<?xml version="1.0" encoding="UTF-8"?>
<svg xmlns="http://www.w3.org/2000/svg" xmlns:xlink="http://www.w3.org/1999/xlink" version="1.1" width="349.25212" height="234.46961" viewBox="0,0,349.25212,234.46961">
  <g transform="translate(-78.47468,-56.21436)">
    <g stroke="none" stroke-miterlimit="10">
      <path d="M78.47468,56.21436z" fill="#ff9500" stroke-width="0"></path>
      <g stroke-width="0.5">
        <path d="M183.70213,181.09973c0,-0.63106 0.23727,-1.2075 0.62871,-1.64743c0.04331,-0.30868 0.08916,-0.61554 0.13752,-0.92043c-0.11399,-0.28428 -0.17662,-0.59408 -0.17662,-0.91829c0,-0.61634 0.22634,-1.18058 0.60157,-1.61643c0.00631,-7.09398 2.02195,-13.29301 4.92772,-19.74363c0.7063,-1.56795 1.55233,-4.25532 2.61476,-5.6669c0.60719,-0.80673 4.06029,-3.92381 4.8585,-4.82442c2.20156,-2.48398 4.21567,-5.33363 6.5808,-7.65528c3.0018,-2.94662 6.93474,-5.30916 10.32316,-7.81341c0,0 1.40213,-1.03627 2.74965,-0.23776c4.86376,-2.35035 10.03056,-2.84319 15.18815,-4.23694c7.20475,-1.94697 15.53063,-4.81535 22.94569,-1.61783c1.00221,0.43218 1.72777,1.32944 2.65676,1.89873c2.36785,1.45103 5.16658,2.11529 7.57429,3.43337c1.91745,1.0497 3.59843,2.47886 5.47933,3.59094c2.21017,1.62974 5.25078,3.08644 7.2855,4.80348c0.8486,0.7161 1.32088,1.77976 2.05987,2.60546c2.8919,3.23125 6.145,5.90977 8.4963,9.62011c2.11494,3.33736 3.06206,7.18425 4.8317,10.66189c1.14036,2.24101 2.45836,4.44178 3.12737,6.86051c1.9044,6.88496 1.27968,14.70797 1.25188,21.80498c-1.99373,10.02085 -6.62641,19.22621 -12.84868,27.3616c-0.66407,0.86825 -4.01237,3.87198 -4.85855,4.82445c-0.82093,0.92403 -2.88162,4.01056 -3.66042,4.77801c-2.88294,2.84087 -6.54024,4.11382 -9.89416,6.16912c-0.92899,0.56929 -1.65804,1.4588 -2.65678,1.8987c-1.78401,0.78577 -3.80792,0.98082 -5.5576,1.83828c-5.38724,0.92359 -9.45593,1.20999 -14.52482,0.4397l-0.84277,0.25904c-9.2004,-1.61307 -18.1419,-2.46028 -26.64617,-6.65039c-3.94546,-1.96141 -6.50078,-4.40403 -9.50374,-7.44064c-1.51968,-1.53671 -2.35265,-1.41801 -4.19649,-2.51063c-3.07986,-1.82505 -6.80434,-4.26254 -9.36494,-6.78579c-7.90307,-7.7878 -10.22157,-20.37954 -9.27936,-31.36705c-0.19646,-0.35505 -0.30812,-0.76223 -0.30812,-1.19511zM239.89516,231.47315l2.85606,0.04855c0.31973,0.06301 0.63303,0.12166 0.94067,0.17608l1.88689,-0.67736c0,0 2.14956,-0.70606 3.06296,1.21815c2.58427,0.08502 5.06972,-0.16252 8.15767,-0.64288c1.58587,-0.78572 3.4318,-0.94163 5.0557,-1.64791c0.79753,-0.34687 1.32209,-1.13042 2.06025,-1.58741c2.99986,-1.85718 6.39117,-2.90641 8.97388,-5.45141c1.3476,-1.32792 2.16045,-3.10482 3.41507,-4.51845c1.41417,-1.59339 3.29156,-2.77492 4.57551,-4.47201c5.63962,-7.45428 10.01589,-15.78368 11.91562,-24.93073c-0.03018,-6.49818 0.63781,-13.73099 -1.10659,-20.02894c-0.58076,-2.09677 -1.78469,-3.97698 -2.76889,-5.92205c-1.68852,-3.33699 -2.57544,-7.06246 -4.60238,-10.25505c-2.20508,-3.4732 -5.32885,-5.92383 -8.01328,-8.97277c-0.55612,-0.63163 -0.83386,-1.49813 -1.47783,-2.04272c-1.91534,-1.61974 -4.7651,-2.93672 -6.86558,-4.49298c-1.76505,-1.04358 -3.33463,-2.39629 -5.13398,-3.38136c-2.46958,-1.35199 -5.32709,-2.03526 -7.75595,-3.53894c-0.73818,-0.457 -1.26643,-1.23243 -2.06027,-1.58746c-6.07264,-2.71585 -13.66885,0.30734 -19.50742,1.86837c-4.81204,1.28656 -9.79741,1.6281 -14.28972,3.89571c0,0 -1.23313,0.60756 -2.33583,0.03115c-3.08384,2.23822 -6.67591,4.3701 -9.35915,7.02607c-2.29154,2.26823 -4.24296,5.03645 -6.39106,7.4514c-1.41595,1.59184 -3.27404,2.7879 -4.57546,4.47199c-0.51773,0.66996 -1.95225,4.45935 -2.10227,4.79159c-2.74114,6.07047 -4.48058,11.72053 -4.50674,18.39607c-2.11577,10.63422 -1.47426,25.14245 6.93444,33.4285c3.09499,3.04983 7.12975,4.91832 10.74277,7.1945c4.10399,2.58549 6.46989,6.39578 11.00372,8.60596c3.53916,1.74376 6.45403,2.22506 10.20157,3.32585c2.81622,0.82722 5.38321,1.94451 8.37149,2.23264c0.6103,0.05884 1.22429,0.09721 1.83811,0.1372c0.47231,-0.14936 0.86004,-0.14936 0.86004,-0.14936z" fill="#c19e4b"></path>
        <path d="M239.03332,231.67248c-0.61382,-0.03999 -1.22959,-0.07845 -1.8399,-0.13729c-2.98828,-0.28813 -5.5636,-1.40669 -8.37981,-2.23391c-3.74754,-1.10079 -6.67237,-1.58557 -10.21153,-3.32934c-4.53384,-2.21018 -6.91135,-6.02801 -11.01533,-8.6135c-3.61302,-2.27618 -7.65597,-4.1537 -10.75094,-7.20353c-8.40871,-8.28605 -9.05918,-22.82606 -6.94341,-33.46028c0.02616,-6.67555 1.77037,-12.34374 4.5115,-18.41422c0.15003,-0.33225 1.587,-4.12613 2.10473,-4.79609c1.30142,-1.68409 3.16309,-2.88523 4.57904,-4.47707c2.14811,-2.41494 4.10635,-5.19016 6.39788,-7.45839c2.68326,-2.65598 6.28489,-4.79423 9.36872,-7.03245c1.10271,0.5764 2.33769,-0.03206 2.33769,-0.03206c4.49231,-2.26761 9.49186,-2.61336 14.30389,-3.89993c5.83856,-1.56103 13.45371,-4.58345 19.52635,-1.8676c0.79384,0.35503 1.32431,1.13102 2.0625,1.58802c2.42886,1.50367 5.29417,2.1898 7.76376,3.54179c1.79935,0.98506 3.37425,2.34064 5.1393,3.38422c2.10049,1.55626 4.95679,2.87803 6.87213,4.49777c0.64397,0.54459 0.92353,1.41272 1.47966,2.04436c2.68442,3.04893 5.81579,5.50873 8.02088,8.98193c2.02692,3.19259 2.9188,6.92803 4.60732,10.26502c0.9842,1.94508 2.18991,3.83139 2.77067,5.92815c1.74442,6.29796 1.07683,13.5502 1.10701,20.04837c-1.89974,9.14705 -6.28753,17.5004 -11.92715,24.95469c-1.28395,1.69708 -3.16568,2.88299 -4.57984,4.47639c-1.25462,1.41362 -2.07155,3.19381 -3.41915,4.52173c-2.5827,2.54501 -5.98252,3.5992 -8.98238,5.45638c-0.73816,0.45699 -1.26488,1.24148 -2.06242,1.58835c-1.6239,0.70628 -3.47447,0.86382 -5.06033,1.64954c-3.08795,0.48036 -5.58081,0.72953 -8.16508,0.64451c-0.91339,-1.92422 -3.06571,-1.21783 -3.06571,-1.21783l-1.88876,0.67749c-0.30765,-0.05442 -0.62184,-0.11303 -0.94158,-0.17604l-2.85883,-0.04853c0,0 -0.38855,-0.00002 -0.86086,0.14934z" fill="#ffce66"></path>
      </g>
      <path d="M290.00037,167.67566l-0.08078,-0.04366l-0.45838,0.60226c-0.46166,0.62045 -1.20675,1.02329 -2.04732,1.02329c-1.40115,0 -2.537,-1.11929 -2.537,-2.5c0,-0.41989 0.10506,-0.8156 0.29066,-1.16301l0.15882,-0.31302l-0.29606,-0.29175l0.88817,-0.87521l0.40547,-0.79913c0,0 0.89373,-1.76139 2.68119,-1.37594c0.05867,-0.004 0.1179,-0.00603 0.1776,-0.00603c1.40115,0 2.537,1.11929 2.537,2.5c0,0.57191 -0.19488,1.09896 -0.52278,1.52019l-0.04645,0.06103c-0.20134,1.03768 -1.15015,1.66098 -1.15015,1.66098z" fill="#363636" stroke-width="0.5"></path>
      <path d="M234.37244,175.16667c0,1.14678 -0.00741,2.29356 -0.01966,3.44027c-0.85843,2.60857 -1.11303,5.2751 -3.07644,7.42897c-3.45587,3.79108 -10.74224,5.72115 -14.06351,0.58602c-2.61878,-4.04899 -0.33657,-9.8587 -0.23106,-14.3242c-0.57163,-0.2683 -1.15013,-0.48008 -1.76801,-0.44739c-0.75168,0.03976 -2.8134,1.79657 -3.50008,2.20257c0,0 -1.30528,0.77174 -2.08844,-0.5145c-0.78316,-1.28624 0.52211,-2.05798 0.52211,-2.05798c1.11529,-0.65942 3.36411,-2.48856 4.61833,-2.59742c1.71191,-0.14858 3.40385,0.94394 4.97174,1.37462c3.75536,1.03155 7.72361,1.21564 11.42928,2.41934l0.05986,-0.07697c0,0 1.30293,0 1.49791,1.18786z" fill="#714c19" stroke-width="0.5"></path>
      <path d="M283.31861,173.35117c0.17603,1.13358 0.34476,2.26828 0.50869,3.40362c-0.44812,2.70651 -0.29044,5.38031 -1.90062,7.80206c-2.83414,4.2626 -9.74037,7.25659 -13.8117,2.67565c-3.21021,-3.61203 -1.84611,-9.69507 -2.42731,-14.12492c-0.60623,-0.18001 -1.21059,-0.30311 -1.81634,-0.1787c-0.73694,0.15136 -2.50523,2.19527 -3.12169,2.69896c0,0 -1.17179,0.95744 -2.14339,-0.19726c-0.9716,-1.1547 0.20019,-2.11213 0.20019,-2.11213c1.00124,-0.81808 2.94339,-2.96139 4.16646,-3.25595c1.66941,-0.40206 3.50958,0.42568 5.12554,0.61769c3.87048,0.45989 7.82134,0.05034 11.66915,0.6878l0.04735,-0.08501c0,0 1.28794,-0.19422 1.66303,0.9509z" fill="#714c19" stroke-width="0.5"></path>
      <path d="M288.07683,183.15764c-0.46646,1.13919 -0.93293,2.27839 -1.39939,3.41758c-0.94873,1.24395 -2.08735,2.41452 -3.37037,3.48711c-1.91299,2.55194 -3.52923,5.27071 -6.50826,6.79897c-7.1414,3.66359 -19.65751,4.3646 -25.53108,-2.35568c-2.42066,-2.76961 -3.94737,-8.08566 -4.66731,-11.57003c-0.62017,-3.0015 -0.52989,-5.28887 -2.49002,-7.70572c0,0 -0.05517,-0.07249 -0.1305,-0.20023c-0.43648,-0.07099 -1.14458,-0.27385 -1.62703,-0.85361l0.00004,-0.00002c-1.09356,-0.33207 -2.39067,-0.42533 -2.7881,0.67191c-0.16822,0.46442 -0.21099,0.94555 -0.18878,1.43592c0.64376,0.79118 0.49324,1.73489 0.33514,2.2497c0.06555,0.40692 0.11395,0.81253 0.11285,1.21283c-1.24705,7.47257 -3.15475,13.33875 -10.03899,17.60813c-6.46413,4.00885 -12.79211,3.88559 -20.04058,2.66161c-2.49453,-0.42123 -4.25967,-0.65499 -6.36169,-2.17911c-2.9707,-2.15397 -4.85134,-4.98818 -6.00326,-8.20397v-2.10377c-0.00504,-0.68931 0.08917,-1.48364 0.21682,-2.33582c-1.16342,-0.68045 -1.16342,-2.16713 -1.16342,-2.16713l0.04926,-1.65234c0.40714,-2.00601 0.35398,-4.65262 1.58301,-6.41067c-0.35938,0.18346 -0.73283,0.34383 -1.10117,0.50674c-0.16611,0.07347 -0.33524,0.14032 -0.50603,0.20347l-1.00078,0.98618l-0.05351,-0.05273c-0.08237,0.10651 -0.16794,0.21094 -0.25701,0.31307c-0.92088,1.05584 -2.51397,1.26841 -3.77711,1.8949l-2.85117,1.68574c-0.38907,0.2392 -0.84867,0.37741 -1.34103,0.37741c-1.40115,0 -2.537,-1.11929 -2.537,-2.5c0,-0.81467 0.39543,-1.53833 1.0075,-1.99475l0.00222,-0.00437c-0.38757,-0.0104 -0.77459,-0.02436 -1.15964,-0.03668c0.05848,-0.40763 0.11695,-0.81525 0.17544,-1.22287l-0.00001,-0.00001c0,0 0.10908,-0.7524 0.62796,-1.36822c0.00164,-0.0071 0.00333,-0.01419 0.00503,-0.02127c-0.04504,-0.18645 -0.06887,-0.38099 -0.06887,-0.58103c0,-0.99801 0.59344,-1.85943 1.45158,-2.26029l2.30936,-1.13783l0.0204,0.0402c0.04718,-0.03853 0.09495,-0.07649 0.14331,-0.11383c0.02335,-0.01802 3.25472,-1.07675 5.43784,-1.79085c-0.93523,-0.87014 -1.77394,-1.90901 -2.15682,-3.10101c-1.93464,-6.023 3.01369,-8.8803 7.84338,-10.16485c-2.86522,-3.31749 -0.14802,-11.95581 4.9489,-12.87051c1.19742,-0.21489 2.24579,0.93649 3.4097,1.28727c1.08571,0.32721 2.34439,0.17246 3.3219,0.74152c1.28505,0.74809 2.2927,1.91365 3.21948,3.06652c0.53487,0.66536 0.99531,1.42287 1.26516,2.23185c1.75625,-1.80394 4.48433,-2.91194 7.03715,-2.66694c5.51491,0.52928 6.35694,5.70746 9.24497,8.97426c1.86843,2.11348 4.18927,3.04895 6.44645,4.7065l2.15644,1.0625c0.25353,0.11843 0.48396,0.27707 0.6828,0.46755c1.36941,-0.1723 2.75043,-0.26326 4.12807,-0.2685l1.31171,0.28922c1.16048,-0.91456 2.34668,-2.22837 3.31522,-3.64066l0.76902,-1.51561l0.09793,0.04825c0.05706,-0.16977 0.1227,-0.3372 0.19829,-0.50192c0.1309,-0.28524 0.28906,-0.55034 0.46925,-0.79926c0.10744,-0.25863 0.20237,-0.51408 0.28331,-0.76452c0.72535,-2.24459 0.27035,-4.7449 2.62858,-6.40464c2.30955,-1.62548 7.54475,-1.45624 9.54714,0.60001c0.6873,0.70578 -0.70669,1.898 -0.61259,2.87177c0.03013,0.31173 0.59706,-0.23659 0.84878,-0.4277c0.552,-0.41908 0.97507,-0.99226 1.54392,-1.38886c0.93554,-0.65227 1.99246,-1.11978 2.94813,-1.74307c2.55918,-1.66911 3.83079,-4.34059 6.10757,-6.08444c1.35567,-1.03835 2.83329,-2.8091 4.51124,-2.45019c5.46387,1.16872 3.70918,5.40137 3.25228,8.41649c-0.39308,0.96837 -0.65784,1.99748 -1.17923,2.90511c-0.20019,0.34848 -1.19357,0.46496 -0.9335,0.77266c0.27213,0.32197 0.78731,-0.31707 1.17714,-0.48439c0.72978,-0.31322 1.46114,-0.62343 2.1815,-0.95714c3.60551,-1.6703 8.63049,-3.96212 11.07439,1.38836c0.64444,1.41088 -0.1501,3.11514 -0.5599,4.60872c-0.3654,1.33172 -0.94951,2.43752 -1.69573,3.36239c0.69587,0.84946 1.52045,1.64377 1.77022,2.68437c0.29138,1.21397 -0.36445,2.46895 -0.53911,3.70448c-0.20134,1.42423 0.40253,3.21957 -0.58888,4.27473c-1.10579,1.1769 -3.08482,1.07119 -4.68899,1.34254c-0.2803,0.04741 -0.93015,-0.62986 -0.73625,-0.42484c2.20324,2.32944 1.29079,4.80228 0.67053,7.8341c-0.30424,1.48714 -0.69364,2.84031 -1.19683,4.10358zM250.41136,172.15684c0.53523,3.16642 1.26049,5.37286 2.25571,8.31505c0.80531,2.38072 1.03948,4.77428 2.60657,6.90292c3.06117,4.1581 8.75386,4.57694 13.36423,3.65853c4.12917,-0.82256 7.51857,-1.55261 10.46632,-3.74182c0.16249,-0.22724 0.32749,-0.45241 0.49684,-0.67397c1.6652,-1.61332 2.84038,-3.31708 3.67259,-5.18861l0.47324,-2.37907c0,0 0.15459,-0.7617 0.72231,-1.35102c0.17276,-0.7923 0.31019,-1.61502 0.42007,-2.47225c0.24871,-1.94038 -1.85825,-3.98215 -1.06145,-5.77342c0.6505,-1.46236 2.48124,-2.14407 3.98078,-2.74896c0.73838,-0.29785 1.75281,0.65818 2.38652,0.1805c0.44104,-0.33244 -0.59657,-0.98841 -0.58888,-1.53553c0.00967,-0.68708 0.68842,-1.30473 0.6563,-1.97222c-0.58782,-0.12909 -0.98866,-0.42192 -1.26198,-0.76124c-1.45116,0.61609 -3.02892,1.04292 -4.60764,1.38036c-0.42542,0.71511 -1.15113,1.07266 -1.15113,1.07266l-1.89675,0.81092c-10.01595,1.62186 -20.11022,1.76692 -30.27366,1.7765c0.00367,0.05549 0.00512,0.11042 0.0046,0.16467l0.47341,0.65448c0,0 0.54009,2.1287 -1.4155,2.89615c0.21624,0.42344 0.27746,0.78538 0.27746,0.78538zM205.95604,170.1997c-0.53949,1.05382 -1.41198,1.93745 -2.08084,2.91732c-0.02179,0.74048 -0.4203,1.51791 -0.78138,2.29406c0.06332,0.48731 0.21379,0.98708 0.16957,1.47029c-0.08261,0.90266 -0.57067,1.75249 -0.57727,2.65879c-0.06265,8.60958 7.52301,12.43059 15.11089,12.60702c2.41048,0.05605 2.26628,-0.94778 4.56301,-1.62088c1.0745,-0.3149 2.27736,-0.10693 3.32426,-0.50198c1.53673,-0.5799 2.59503,-1.99538 3.92115,-2.95549c2.19585,-2.94513 3.90749,-4.96614 4.61281,-8.59997l0.53869,-1.1929c0.00003,-1.86532 0.03931,-4.2507 0.26954,-4.66404c0.21585,-0.38756 0.45053,-0.73731 0.70157,-1.05181c-0.24075,-0.3823 -0.37976,-0.83333 -0.37976,-1.31635c0,-0.48517 0.14026,-0.93807 0.38299,-1.32146l0.93525,-1.53605l0.40693,-1.0025c-1.06312,0.32184 -2.15827,0.51778 -3.48176,0.61553c-1.15693,2.04377 -3.32689,0.97462 -3.32689,0.97462c-2.57812,-1.37695 -4.75045,-0.89474 -7.70982,-0.89813c-5.53928,-0.00633 -10.90834,1.04631 -16.32613,2.10644c-0.05198,0.58236 -0.27277,1.01751 -0.27277,1.01751z" fill="#292f33" stroke-width="0.5"></path>
      <g stroke-width="0.5">
        <path d="M259.67593,197.0822c2.49321,2.64828 2.64154,8.05943 0.22223,10.88524c-1.37881,1.61049 -5.01291,3.69138 -7.68573,2.74033c-0.39868,0.5065 -0.82241,0.95238 -1.25982,1.28635c-5.00021,3.81763 -11.95543,0.95413 -16.62256,-2.32528c-0.58153,0.23643 -1.17169,0.43054 -1.7932,0.47102c-4.6615,0.30361 -8.05698,-3.14573 -8.04124,-7.74422c0.01218,-3.55567 2.92921,-5.91515 5.41667,-7.89785c0,0 1.14736,-0.9045 2.39426,-0.47638c0.46904,-1.04073 0.93059,-2.03182 1.31184,-2.92816c1.71169,-4.02444 2.59615,-8.49157 3.99627,-12.63386l0.35624,-0.2165c-0.08047,-0.34243 -0.08048,-0.59294 -0.08048,-0.59294c0.07984,-1.28679 -0.42141,-2.74779 0.23951,-3.86038c1.97616,-3.32662 5.68309,-4.75822 9.20002,-2.459c1.08867,0.71173 1.06207,2.35252 1.5931,3.52879l0.46036,1.78427c0,0 0.13369,0.52697 0.02717,1.15105c0.36123,0.5644 0.4349,1.1452 0.4349,1.1452c0.63233,5.15595 3.31669,10.4883 4.82046,15.81301c1.68189,0.53734 4.05609,1.31608 5.01,2.32932zM239.10411,204.12715c-0.11055,-0.06572 -0.21845,-0.1347 -0.32322,-0.20674c0.02846,0.06582 0.05286,0.13146 0.07352,0.19678c0.0846,0.06659 0.17412,0.13388 0.26964,0.20247c-0.00218,-0.01693 -0.00422,-0.03384 -0.00615,-0.05072c-0.00539,-0.04731 -0.00999,-0.09458 -0.01379,-0.14178z" fill="#ff924c"></path>
        <path d="M231.53767,194.34389c0.03991,-0.06291 0.08049,-0.12535 0.12179,-0.18731c0,0 0.00284,-0.0042 0.00844,-0.0119c0.14039,-0.21939 0.37434,-0.4609 0.74484,-0.53395c0.16264,-0.04509 0.34803,-0.05658 0.55253,-0.00601c0.18559,0.02665 0.38014,0.09948 0.55724,0.25318c0.15287,0.10986 0.25669,0.24178 0.32619,0.3788c0.10686,0.17552 0.14772,0.35521 0.15118,0.52295c0.03072,0.24793 -0.02545,0.4577 -0.11793,0.62933c-0.33768,1.38722 0.08734,2.3101 0.10146,3.86098l0.03438,-0.48389c0,0 0.89697,0.88388 0,1.76776c-0.89697,0.88388 -1.79393,0 -1.79393,0l-0.51364,-0.84823c-0.48441,-0.0728 -0.87872,-0.41562 -1.01983,-0.86772l-0.39667,-1.17265l0.19136,-0.06286l-0.25645,-0.33243c0.13866,-0.45346 0.30108,-0.90277 0.48926,-1.34134c-0.0556,-0.22383 -0.08334,-0.45049 -0.08334,-0.65866z" fill="#863528"></path>
        <path d="M257.46169,198.84527l-1.11826,1.28857c0,0 -0.49424,0.48704 -1.11586,0.37652c-0.17029,0.0176 -0.36548,-0.00141 -0.58816,-0.07455c-1.20341,-0.39528 -0.80228,-1.58113 -0.80228,-1.58113l0.34082,-0.80472c-0.25252,-0.6481 -0.3486,-1.34872 -0.38512,-2.04951c-0.04023,-0.14622 -0.05141,-0.31467 -0.01742,-0.50759c-0.00155,-0.08116 -0.00263,-0.16216 -0.00337,-0.24291c0,0 0,-1.25 1.2685,-1.25c0.77615,0 1.0774,0.46797 1.19433,0.83125c1.64216,0.87403 1.84777,1.91106 1.22682,4.01406z" fill="#863528"></path>
      </g>
      <path d="M225.41255,205.15833c8.66187,4.3266 21.87845,6.63201 30.65332,1.44343c0.3819,-0.2986 0.7638,-0.59718 1.1457,-0.89578l0.97018,-1.20972c0,0 0.74055,-0.91217 1.73149,-0.48259l0.75035,-1.60339c0.54123,0.17777 1.08246,0.35555 1.62369,0.53332c4.35142,1.4293 9.85452,2.71521 13.25268,5.90534c1.63852,1.53822 2.7109,4.65272 0.51492,6.52472c-2.31274,1.97153 -8.61259,-0.31472 -11.42603,-1.447c1.96393,3.04538 3.00185,6.82904 -1.60478,8.15221c-2.31148,0.66394 -6.01139,-0.74219 -7.83782,-2.12992c-0.55532,-0.42194 -1.61966,-1.58052 -2.20227,-2.3401c-0.08329,0.36661 -0.20982,0.72034 -0.25468,0.98601c-1.14387,3.28232 -4.56213,7.17947 -8.55814,4.61166c-0.33224,-0.21349 -1.75134,-2.60773 -2.07228,-3.13482c-0.1516,-0.24898 -0.34819,-0.73737 -0.47853,-1.17027c-0.35046,0.43868 -1.06037,0.8937 -1.49222,1.15144c-2.04997,1.22348 -6.10007,2.89684 -8.16453,0.48819c-0.60152,-0.70181 -0.785,-1.52322 -0.72661,-2.37669c-3.16815,1.8493 -6.63948,3.37565 -10.26185,2.01581c-2.02676,-0.76085 -2.87782,-2.27305 -2.80361,-3.85322c-2.29017,0.70361 -4.6593,1.0572 -6.94363,0.45363c-2.43689,-0.64389 -3.92924,-1.25627 -2.7045,-4.353c0.11434,-0.28912 2.83373,-1.94754 3.33778,-2.19652c3.45852,-1.70833 7.09269,-3.26109 10.71244,-4.60227c0,0 0.4591,-0.16965 0.95387,-0.05963c0.71291,-0.98835 1.88503,-0.41085 1.88503,-0.41085z" fill="#292f33" stroke-width="0.5"></path>
      <g stroke-width="0.5">
        <g>
          <path d="M290.99013,264.07125c-0.96516,-0.01727 -1.60172,0.8456 -1.60172,0.8456l-1.06921,1.45815c-3.31589,5.30405 -7.50464,9.13432 -11.81414,13.61406c-4.77438,2.35578 -9.44192,4.89404 -14.64217,6.23615c-5.00799,1.29247 -9.87788,-0.23265 -14.71576,-1.22887c-5.07266,-1.04457 -9.63585,-2.30082 -14.08794,-5.0841c-3.99479,-2.46402 -5.14713,-5.33561 -6.92299,-9.30166c-0.84184,-1.88008 -3.10593,-2.95461 -3.77096,-4.90426c-0.47849,-1.40273 0.28027,-5.78207 0.49521,-7.23582c0.65951,-4.46066 2.99277,-8.48919 5.13239,-12.46639c2.64469,-4.91604 4.67858,-9.45658 9.35343,-12.7487c1.71768,-1.82242 3.49323,-2.14277 5.71054,-3.27372c11.58146,-5.90717 22.75079,-1.45853 34.0911,2.28406c0,0 0.82069,0.2653 1.54781,-0.0957c0.29547,0.02767 0.51005,-0.00428 0.51005,-0.00428c6.42262,-1.09396 11.86669,-6.98095 17.5554,-10.0616c5.4642,-2.95907 13.70892,0.83225 18.45749,3.65787c2.89365,4.22339 6.03843,7.1607 5.16339,12.71044c-0.60221,3.81937 -4.91593,5.44581 -4.23337,10.25347c0.16466,1.15976 1.51546,4.57262 2.35076,5.52166c1.97205,2.24057 9.68622,4.98695 3.90386,7.69856c-4.67467,0.67009 -9.06298,-1.71693 -13.58321,-2.58426c-6.77616,-1.30021 -12.43645,1.11567 -17.82996,4.70932z" fill="#781616"></path>
          <g>
            <g>
              <path d="M317.98231,230.51138c-0.06414,0.06517 -0.12834,0.12432 -0.19244,0.17784c-3.50286,4.82448 -9.49805,7.462 -15.57354,6.98909c-3.52833,-0.27464 -7.11677,-1.87365 -10.65475,-1.45901c-8.75918,2.49128 -12.99296,10.86737 -21.20796,14.38222c-7.32469,3.13393 -13.1695,0.48391 -20.55426,0.32013c-10.7154,0.56389 -9.16671,12.72514 -14.34464,18.82559c-3.43872,4.05138 -8.5756,5.96773 -13.11094,2.80405c0,0 -1.22232,-0.90153 -0.72024,-2.19318c-0.03377,-0.37367 0.02813,-0.65837 0.02813,-0.65837c0.67228,-2.68776 -0.44786,-5.36872 0.0489,-8.23936c1.81379,-10.48163 6.13726,-21.72061 14.32125,-28.8785c4.05278,-2.75448 7.51543,-5.83764 12.59266,-6.49639c10.85641,-1.40856 20.63726,6.35507 31.06885,5.22993l0.80041,-0.19722c0.26269,-0.17477 0.483,-0.25018 0.483,-0.25018c9.38617,-3.18601 16.92539,-14.25511 27.87235,-10.03435c3.307,1.27506 6.13995,4.19837 8.72329,6.51941l0.39777,0.38862c0,0 0.4332,0.42633 0.57944,1.04532l0.35708,0.15073c-0.11278,0.20696 -0.2298,0.41076 -0.35084,0.61137c-0.07108,0.30787 -0.24093,0.63444 -0.56354,0.96224zM307.44969,224.49601c-9.0483,-3.38184 -17.2752,7.34109 -25.21455,10.078c0,0 -0.00222,0.00076 -0.00654,0.00216c-0.36501,0.24128 -0.71388,0.32175 -0.71388,0.32175l-1.42287,0.31319c-10.53506,1.07748 -20.22651,-6.56438 -30.98346,-5.23983c-4.30595,0.53021 -7.2662,3.392 -10.69638,5.71386c-7.41631,6.42747 -11.21245,17.03337 -12.8507,26.43686c-0.48229,2.76837 0.37073,5.12229 0.01318,7.82863c2.92098,1.26256 6.6533,-1.58805 7.95495,-4.34256c1.22412,-2.59046 1.53682,-5.63209 2.67297,-8.26873c2.43934,-5.66089 7.32709,-9.85967 13.50985,-10.33369c6.80109,0.15224 12.4245,2.86506 19.08188,0.00272c8.51007,-3.6589 12.71314,-12.0378 22.0301,-14.63601c8.02131,-0.78007 17.41112,4.10235 23.14008,-3.0113c-1.94028,-1.8253 -4.11849,-3.96946 -6.51462,-4.86501z" fill="#783232"></path>
              <path d="M314.02471,229.33623c-5.72896,7.11366 -15.23255,2.29357 -23.25388,3.07365c-9.31696,2.59821 -13.47345,11.00449 -21.98353,14.66338c-6.65738,2.86233 -12.20876,0.08779 -19.00984,-0.06445c-6.18277,0.47402 -11.07302,4.65144 -13.51236,10.31236c-1.13615,2.63664 -1.45322,5.66709 -2.67734,8.25757c-1.30165,2.75452 -5.15045,5.66413 -8.07142,4.40155c0.35755,-2.70633 -0.49936,-5.06956 -0.01705,-7.83792c1.63826,-9.40351 5.43588,-20.05428 12.85221,-26.48175c3.43018,-2.32186 6.40283,-5.20328 10.70879,-5.73349c10.75694,-1.32454 20.54007,6.3128 31.07512,5.23533l1.42508,-0.3111c0,0 0.34955,-0.07977 0.71455,-0.32105c0.00432,-0.0014 0.00654,-0.00214 0.00654,-0.00214c7.93934,-2.73692 16.17563,-13.44778 25.22394,-10.06594c2.39612,0.89557 4.57888,3.04873 6.51916,4.87401z" fill="#a14343"></path>
            </g>
            <path d="M305.55978,225.64138c0.88988,1.74467 -0.8548,2.63454 -0.8548,2.63454l0.18188,-0.17736c-2.24176,2.07992 -5.13815,4.74852 -8.41426,4.81031c-2.26304,0.04269 -3.65662,-1.03662 -5.93756,-0.2482c-4.31947,1.49305 -6.76521,5.78511 -11.38773,7.11884c-3.00383,0.86669 -5.87841,-0.30275 -8.78588,0.48481c0,0 -0.28076,0.07017 -0.65341,0.04861c-0.0728,0.04645 -0.11848,0.06974 -0.11848,0.06974l-1.94013,0.9862c-3.16787,1.15847 -5.24731,1.67929 -8.35296,-0.02838c-3.3032,-1.81631 -6.52006,-7.88137 -10.79907,-4.29641c-2.09365,3.92871 -4.07313,6.07494 -7.66405,8.69112c-2.36309,1.72165 -5.26679,2.45335 -6.61066,5.27036c-2.51041,5.26229 0.36941,11.32904 -3.54757,15.87313c-1.46426,1.69869 -2.48039,1.87176 -4.49206,2.77019c0,0 -1.79393,0.78587 -2.5798,-1.00804c-0.78587,-1.79393 1.00804,-2.5798 1.00804,-2.5798c5.25902,-2.24825 3.7104,-4.58656 3.95936,-9.35891c0.10954,-2.0996 1.16595,-5.4793 2.11963,-7.38925c2.30937,-4.62504 7.64052,-6.21595 11.44136,-9.37163c1.58268,-1.31403 2.38034,-3.70605 3.38616,-5.43979c0.83865,-0.64698 1.53625,-1.53829 2.51595,-1.94094c8.18046,-3.36218 10.74858,8.10095 18.03162,5.22596l1.74444,-0.89311c0,0 0.50242,-0.25625 1.10555,-0.22412c0.27384,-0.1494 0.4965,-0.20505 0.4965,-0.20505c2.90904,-0.68464 5.80984,0.41083 8.64767,-0.44759c4.4582,-1.34858 6.86616,-5.5859 11.22487,-7.06789c2.69663,-0.91689 4.52588,-0.09216 7.14555,0.04342c2.01047,0.10404 4.4827,-2.53917 5.78704,-3.75967l0.70825,-0.44584c0,0 1.74467,-0.88988 2.63454,0.8548z" fill="#b17878"></path>
          </g>
          <g>
            <path d="M277.69131,251.82088c0.18832,0.31331 0.25658,0.58646 0.25658,0.58646c1.00849,4.05973 3.29349,11.81636 6.58725,14.5935c0.63151,0.53245 3.19291,-1.9261 3.50696,-2.16704c4.06531,-3.11905 8.72708,-6.22968 13.08706,-8.85803c3.58903,-2.43624 6.90453,-4.95138 10.2566,-7.67951c0.94714,-0.77084 2.14708,-1.2798 2.89499,-2.24519c0.332,-0.42854 1.10978,-1.43095 0.57525,-1.52116c-1.0248,-0.17296 -2.05547,0.38734 -3.09473,0.37916c-6.67636,-0.0526 -13.345,0.85222 -19.87445,2.35893c-4.66273,1.06996 -9.7185,2.54474 -14.19552,4.55289zM274.14898,252.34248l-0.39258,-2.97754c5.26954,-2.67293 11.49911,-4.58113 17.25012,-5.91377c6.82642,-1.57365 13.79976,-2.51385 20.78271,-2.45904c1.34383,0.01054 4.79338,-0.18796 5.62735,0.57354c1.78591,1.63077 1.16394,4.97007 0.11236,6.67454c-0.31496,0.51052 -3.13827,2.66149 -3.66874,3.09252c-3.47147,2.82071 -6.9117,5.42874 -10.62676,7.94683c-4.26373,2.51728 -8.84396,5.61726 -12.80207,8.65819c-2.11968,1.62851 -4.6798,3.93422 -7.68623,2.54712c-0.8848,-0.40824 -1.2397,-1.50378 -1.8598,-2.25546c-3.26638,-3.95946 -5.49202,-9.91395 -6.73756,-14.87254c0,0 -0.11945,-0.47801 0.00124,-1.01442z" fill="#868686"></path>
            <path d="M291.8635,247.20699c6.52942,-1.50673 13.27902,-2.38119 19.95538,-2.32857c1.03926,0.00819 2.07138,-0.54921 3.09617,-0.37625c0.53455,0.09021 -0.24185,1.09578 -0.57385,1.52432c-0.7479,0.96538 -1.94656,1.47774 -2.89371,2.24859c-3.35206,2.72811 -6.66654,5.2823 -10.25557,7.71855c-4.35999,2.62837 -9.11812,5.77709 -13.18345,8.89613c-0.31404,0.24095 -2.88172,2.69521 -3.51324,2.16277c-3.29376,-2.77712 -5.60385,-10.59207 -6.61233,-14.65178c0,0 -0.06801,-0.2753 -0.25632,-0.5886c4.477,-2.00815 9.57416,-3.53518 14.2369,-4.60514z" fill="#a2a2a2"></path>
          </g>
          <path d="M280.8871,253.72397c-0.10846,-3.33197 -3.29098,-8.51317 -5.0609,-11.14372c-0.58686,-0.87223 -0.75499,-2.47929 -1.8005,-2.58939c-0.84605,-0.0891 -2.47336,0.44328 -3.92353,0.96339c2.789,4.47997 4.63097,8.85206 5.23558,14.13992l0.04823,0.31763c1.61361,-0.18374 5.53573,-0.62479 5.50113,-1.68778zM265.30503,240.43576c-0.53043,-1.8853 1.35487,-2.41575 1.35487,-2.41575c1.77575,-0.49926 6.184,-2.33203 8.06768,-1.8828c4.74153,1.13083 7.09047,9.04435 8.63372,12.97546c0.35522,0.90485 1.6052,4.1579 1.40809,5.13124c-0.90964,4.49189 -5.73959,4.43072 -9.28182,5.09586l-1.66695,0.04416c0,0 -1.53703,0.01231 -1.89868,-1.34652c-0.14789,-0.31845 -0.18778,-0.5826 -0.18778,-0.5826l-0.28856,-1.91946c-0.53476,-4.76127 -2.22345,-8.64771 -4.77387,-12.67913c0,0 -0.32195,-0.51088 -0.32462,-1.14407c-0.4252,-0.17591 -0.83597,-0.54374 -1.04211,-1.2764z" fill="#343434"></path>
          <path d="M275.38644,255.47702l-0.04864,-0.31762c-0.60462,-5.28785 -2.48595,-9.77735 -5.27494,-14.25733c1.45017,-0.52011 3.10615,-1.06477 3.95218,-0.97565c1.0455,0.11012 1.23035,1.71659 1.81722,2.58881c1.76991,2.63055 4.99138,7.92403 5.09985,11.25599c0.0346,1.063 -3.93205,1.52207 -5.54566,1.70581z" fill="#434343"></path>
          <path d="M300.38303,250.10072c-1.93654,0.2925 -2.22903,-1.64406 -2.22903,-1.64406l-0.10307,-0.74149c-1.11697,-4.48806 -2.45181,-8.59989 -6.20983,-11.49359c0,0 -1.54419,-1.20467 -0.33951,-2.74886c0.11916,-0.15274 0.24163,-0.27858 0.36561,-0.38136c-0.17786,-1.72966 1.59612,-2.06275 1.59612,-2.06275c1.64542,-0.30875 3.29572,-0.59331 4.95103,-0.84355l0.46185,-0.06976c0,0 1.34046,-0.20248 1.95936,0.84472c3.88142,2.14136 7.04771,6.13062 8.0566,10.46508c0.66081,2.83901 0.41458,6.35488 -2.42799,8.00651c-0.93601,0.54386 -2.11408,0.46718 -3.17111,0.70078l-1.10824,0.2573c0,0 -0.94177,0.2172 -1.65475,-0.31515c-0.04755,0.0098 -0.09654,0.01856 -0.14707,0.02619zM302.57023,246.2826c6.83396,-0.91854 -0.47497,-10.26684 -4.10599,-12.14247c-0.86707,0.13492 -1.7327,0.27939 -2.59692,0.43179c3.24128,3.25754 4.7426,7.32474 5.90774,11.89302z" fill="#343434"></path>
          <path d="M301.79045,246.52839c-1.16516,-4.56826 -2.72151,-8.75076 -5.96279,-12.0083c0.86421,-0.1524 1.75108,-0.30766 2.61816,-0.44258c3.63102,1.87562 10.98178,11.34752 4.14783,12.26604z" fill="#434343"></path>
          <g>
            <path d="M268.96999,274.3922c-0.46032,0.77471 -1.28167,0.34827 -1.28167,0.34827c-4.55739,-2.47457 -2.03062,-8.78603 2.92582,-8.73852c2.20927,0.02117 4.16792,2.58206 3.52499,4.73436c-0.72537,2.42834 -2.95258,3.4934 -5.16914,3.6559zM267.31788,271.69958c0.14298,0.05115 0.23505,0.11307 0.23505,0.11307l1.01776,0.72988c1.7904,0.02779 5.54095,-2.79521 2.74345,-4.31717c-2.01919,-1.09854 -4.67699,1.526 -3.99625,3.47424z" fill="#868686"></path>
            <path d="M271.35354,268.1733c2.7975,1.52196 -1.02271,4.45486 -2.81312,4.42707l-1.04123,-0.75062c0,0 -0.09489,-0.06638 -0.23788,-0.11754c-0.68072,-1.94823 2.07302,-4.65744 4.09222,-3.55892z" fill="#a2a2a2"></path>
          </g>
          <g>
            <path d="M247.0944,274.09119c-0.03016,0.01312 -0.04819,0.0193 -0.04819,0.0193c-5.53118,1.398 -3.76851,-7.0573 0.57448,-7.90892c3.0731,-0.60261 5.87145,1.49571 4.77716,4.86839c-0.69483,2.14149 -2.4968,2.70666 -4.40417,3.28139zM245.97244,272.43522c0.37202,-0.62516 1.12338,-0.38137 1.12338,-0.38137l0.8822,0.33906c1.05482,-0.44353 2.14862,-0.66889 2.55695,-1.92738c0.68428,-2.10897 -1.74181,-3.32359 -3.41494,-2.18804c-0.91179,0.61884 -2.2489,4.28221 -1.14758,4.15772z" fill="#868686"></path>
            <path d="M247.09032,268.21937c1.67313,-1.13554 4.19421,0.13881 3.50993,2.24779c-0.40832,1.25847 -1.57495,1.54704 -2.62978,1.99058l-0.91123,-0.34984c0,0 -0.76315,-0.25402 -1.13517,0.37115c-1.10132,0.12449 0.25445,-3.64086 1.16625,-4.2597z" fill="#a2a2a2"></path>
          </g>
          <g>
            <path d="M256.1548,280.1681c-4.71987,-1.25544 -0.25726,-9.63498 5.038,-6.54698c4.58803,2.67558 -0.24192,9.01715 -4.64765,6.86891zM256.32124,277.96856c0.3046,0.04764 0.52789,0.23354 0.52789,0.23354l0.78009,0.6568c1.52012,0.88643 4.59571,-1.42522 3.36081,-3.04503c-2.65254,-3.47938 -4.63269,0.95817 -4.6688,2.15469z" fill="#868686"></path>
            <path d="M261.04818,275.78426c1.2349,1.61982 -1.93457,4.01573 -3.45469,3.12932l-0.7993,-0.67615c0,0 -0.2285,-0.19573 -0.5331,-0.24337c0.03611,-1.19651 2.13455,-5.68917 4.78709,-2.20979z" fill="#a2a2a2"></path>
          </g>
          <g>
            <path d="M259.15251,269.22947c-0.29155,0.21045 -0.65394,0.19761 -0.65394,0.19761c-6.38285,-0.45355 -2.67669,-8.11383 2.18326,-7.65272c5.17996,0.49146 3.56386,7.07324 -0.51006,7.76841zM258.11513,267.45628c0.38925,-0.48597 1.048,-0.27223 1.048,-0.27223l1.16889,0.40679c1.93657,-0.2029 2.44657,-3.82123 0.18956,-3.86452c-2.13466,-0.04096 -5.24541,3.4741 -2.40642,3.72998z" fill="#868686"></path>
            <path d="M260.54868,263.66692c2.25701,0.0433 1.74252,3.78225 -0.19405,3.98515l-1.21081,-0.40566c0,0 -0.68179,-0.22643 -1.07106,0.25954c-2.83899,-0.25588 0.34126,-3.87999 2.47592,-3.83903z" fill="#a2a2a2"></path>
          </g>
          <path d="M319.9675,248.22343c0.86321,5.19934 7.65787,5.46814 8.66716,10.46323c0.68204,3.37553 -2.77321,5.74706 -5.09771,6.97699c-6.83801,1.06599 -12.6302,-3.03665 -19.37048,-2.72974c-4.73515,0.2156 -8.0592,2.24804 -11.76441,4.83602c-0.12136,0.27686 -0.46162,0.9045 -1.13192,1.14667c-3.51828,5.46136 -7.8412,9.56752 -12.45185,14.16649c-5.13701,2.68522 -10.31942,5.50425 -16.00004,6.88672c-9.80533,2.38628 -23.42389,-1.54684 -31.78022,-6.77091c-4.59552,-2.90463 -6.41994,-6.33499 -8.44118,-11.0684c-0.86015,-2.01433 -3.1994,-3.20914 -3.90997,-5.28097c-0.63904,-1.86327 0.07928,-7.07789 0.36467,-8.96534c0.74915,-4.95455 3.189,-9.32628 5.559,-13.73097c2.86397,-5.32272 5.18559,-10.28127 10.25971,-13.85457c2.03462,-1.99818 3.97103,-2.49879 6.45984,-3.76822c12.60353,-6.42848 24.38944,-1.97613 36.75359,1.98885c0.29242,-0.127 0.52573,-0.16223 0.52573,-0.16223c5.76699,-0.70782 11.10644,-7.1395 16.33511,-9.68825c7.25929,-3.53858 16.68704,0.26011 22.91316,4.28579c0.03432,0.04762 0.0687,0.0952 0.10308,0.14269c-0.10394,0.58174 0.16523,1.10946 0.16523,1.10946c0.64672,1.23723 1.49477,2.3864 2.48198,3.37353l1.20959,0.89648c1.25995,1.9812 2.23568,4.03586 2.54779,6.37281c-0.09024,0.1633 -0.12944,0.28413 -0.12944,0.28413c-0.591,1.82152 -1.66556,5.13333 -2.25656,6.95484c0,0 -0.15929,0.49094 -0.02264,1.01024c-1.18876,1.54504 -2.32594,3.09704 -1.98929,5.12469zM308.75588,259.35011c4.52023,0.86735 8.90856,3.25425 13.58322,2.58416c5.78237,-2.71162 -1.93288,-5.44761 -3.90493,-7.68818c-0.83529,-0.94904 -2.18572,-4.35318 -2.35038,-5.51294c-0.68255,-4.80768 3.63403,-6.42091 4.23625,-10.24027c0.87503,-5.54974 -2.26141,-8.47029 -5.15507,-12.69368c-4.74857,-2.82562 -12.9764,-6.60015 -18.44062,-3.64109c-5.68871,3.08064 -11.10726,8.97801 -17.52989,10.07199c0,0 -0.21306,0.03219 -0.50854,0.00452c-0.72712,0.361 -1.54312,0.09625 -1.54312,0.09625c-11.34031,-3.74257 -22.45143,-8.2183 -34.0329,-2.31113c-2.21731,1.13096 -3.98809,1.44356 -5.70578,3.26598c-4.67486,3.29212 -6.70204,7.81219 -9.34673,12.72824c-2.13962,3.97722 -4.47248,7.98945 -5.13199,12.45012c-0.21492,1.45373 -0.9751,5.82463 -0.49661,7.22735c0.66504,1.94965 2.92713,3.01741 3.76897,4.89749c1.77586,3.96606 2.92189,6.82458 6.91667,9.2886c4.45208,2.78328 9.00347,4.02558 14.07613,5.07014c4.83788,0.99622 9.68925,2.50972 14.69724,1.21724c5.20026,-1.34211 9.8404,-3.88526 14.6148,-6.24103c4.3095,-4.47974 8.45513,-8.29153 11.77103,-13.59558l1.06483,-1.45345c0,0 0.63302,-0.85829 1.59818,-0.84101c5.3935,-3.59365 11.04306,-5.98389 17.81922,-4.68369z" fill="#4e0e0e"></path>
        </g>
        <g>
          <path d="M416.60919,211.09792l-0.33233,-0.51758c-1.7488,0.78079 -3.47175,1.61274 -5.14018,2.54453c2.25758,0.38296 4.70373,0.53463 5.66035,-1.9218c-0.11613,-0.05225 -0.18784,-0.10514 -0.18784,-0.10514zM426.5693,205.50318l0.0027,0.26012c0.07973,0.00792 0.16523,0.0257 0.25681,0.05542c0.8134,0.26391 0.68602,1.00766 0.64067,1.19196l0.24945,0.76411c0,0 0.06548,0.43354 -0.1813,0.76425c0.01639,0.52884 0.00641,1.00433 -0.07374,1.13818c-0.51337,0.8573 -5.05318,2.34885 -6.07546,2.32115c-0.87582,-0.02373 -2.02641,-1.06767 -2.91166,-1.66777l0.29625,1.15161c-1.65574,4.92586 -6.45352,3.60828 -10.20794,3.18818c0,0 -0.3974,-0.04645 -0.65448,-0.33398c-0.31394,0.01328 -0.5403,-0.03594 -0.5403,-0.03594l-2.05158,-0.44602c-1.8517,-0.41079 -3.50584,-1.08118 -5.29649,-1.56892c-0.70014,0.29237 -1.444,0.05101 -1.444,0.05101l-0.02035,-0.04659c-5.88236,-0.71196 -11.85828,-6.83615 -8.66866,-13.28449c0.28965,-0.58558 0.83801,-1.19173 1.44486,-1.76071c0.25777,-0.42917 0.6105,-0.67755 0.6105,-0.67755c2.474,-1.50077 2.3532,-5.80416 3.21876,-8.48202l0.75422,-1.58387c0,0 0.42793,-0.8733 1.29608,-1.08757c0.11951,-0.94645 -0.07799,-1.92671 0.32052,-2.80306c1.25384,-2.75732 5.46553,-2.39562 7.4021,-0.87598l0.51427,0.83402c0,0 0.25318,0.49641 0.00312,0.93128c0.96499,-0.27768 1.93482,-0.55094 2.90689,-0.81313c-0.00808,-0.06147 -0.0084,-0.09981 -0.0084,-0.09981l0.00004,0c-0.00765,-1.15102 -0.15981,-2.91999 0.59767,-3.92051c1.60705,-2.12263 7.31427,-1.77217 8.28502,0.36859l0.34855,0.66172c0,0 0.30388,0.59575 -0.08295,1.05372c0.35883,-0.0475 0.71679,-0.09054 1.0738,-0.12877l0.39892,-0.14149c0,0 1.30863,-0.36819 2.05209,0.59922c1.07144,-0.03131 1.68514,0.99663 1.68514,0.99663c3.32279,5.67323 4.66657,13.25958 4.72152,19.78105l-0.48237,1.8124c0,0 -0.07941,0.24476 -0.26939,0.52805c0.12619,0.5902 -0.0477,1.12609 -0.0477,1.12609l-0.06959,0.08397c0.00212,0.03182 0.00426,0.06366 0.00638,0.09548zM421.42711,210.04026c2.22862,-0.23643 3.90873,-0.7558 4.05581,-2.52366c-0.11412,-0.12954 -0.22546,-0.26167 -0.33433,-0.39593c-0.09455,-0.04303 -0.17224,-0.09921 -0.23609,-0.16242c-1.65414,0.69996 -3.32678,1.37486 -4.994,2.06539c0.66011,0.47951 1.421,1.02592 1.5086,1.01662zM427.43922,206.88355c0.00089,0.01344 0.00189,0.02797 0.00298,0.04347l0.00285,0.00872zM415.83882,180.58671l-0.45686,-0.91739c-0.02486,-0.50946 -3.47891,-0.52165 -4.40704,-0.32757c-0.77894,0.1629 -0.72274,1.96352 -0.68083,2.84066c1.95611,-0.49135 3.91419,-0.92027 5.85299,-1.23281c-0.20486,-0.16015 -0.30827,-0.36289 -0.30827,-0.36289zM403.70593,183.45856l-0.02267,-0.21871c-2.80319,-2.57092 -3.76263,-0.08554 -4.36524,2.04751c1.5724,-0.44852 3.17464,-0.92523 4.79412,-1.39818c-0.26982,-0.1632 -0.40622,-0.43062 -0.40622,-0.43062zM395.77654,198.59977c-4.29639,3.58826 -2.46596,8.92603 2.8645,9.75018c0.63525,-0.27067 1.30262,-0.11927 1.30262,-0.11927c2.15877,0.49781 4.0527,1.33922 6.20724,1.79612l1.82967,0.39779c4.78649,-2.85272 10.05268,-4.80641 15.17144,-6.9735c-0.07624,-0.53416 0.07181,-0.9904 0.07181,-0.9904l0.29131,-0.57212c-0.04269,-5.63877 -1.09221,-12.56797 -3.99051,-17.5085l-0.54176,0.13736c-6.49459,0.66454 -13.4635,3.07217 -19.71805,4.85463c0,0 -0.16949,0.0477 -0.42114,0.06364c-0.8783,2.76359 -1.08494,5.40519 -2.3231,7.65621c-0.00571,0.88794 -0.744,1.50785 -0.744,1.50785z" fill="#343434"></path>
          <g>
            <path d="M395.59325,209.00066c0.47496,-0.79939 -0.65263,-1.74797 -0.85265,-2.65606c-0.2029,-0.92121 -1.31655,-6.13931 -2.39278,-6.35694c-0.29008,-0.05867 -1.94907,0.95882 -3.13236,1.69326c0.07373,0.13029 0.14628,0.26054 0.21716,0.39081c-0.15232,-0.07742 -0.28261,-0.1742 -0.3939,-0.28106c-0.47487,0.29502 -0.84917,0.52787 -0.98602,0.59766c0,0 -0.6456,0.32929 -1.35166,0.19452c-5.97168,2.36238 -11.86395,4.87436 -17.89314,7.15113c-14.49173,5.47129 -28.89725,11.10299 -43.36321,16.61946c-0.27911,0.15419 -0.50809,0.21142 -0.50809,0.21142c-0.0353,0.00878 -0.07507,0.01799 -0.11894,0.02762c-0.09744,0.03713 -0.19488,0.07426 -0.29233,0.11137c-0.00753,-0.01603 -0.01524,-0.03183 -0.02316,-0.04738c-1.23955,0.23825 -3.93528,0.65861 -4.41052,1.22266c-0.48039,0.57016 0.67126,3.92964 0.87589,4.5273c1.36289,3.98054 1.96263,5.81935 6.01323,3.69927l0.40044,-0.13229c0.01247,-0.06542 0.02477,-0.14717 0.03175,-0.24c14.37484,-6.54387 29.71994,-10.72872 43.80353,-17.92764c6.51414,-2.45644 12.99574,-5.21526 19.5874,-7.48446l1.17209,-0.20205c0.03778,0.1395 0.07609,0.27895 0.11503,0.41828c1.40148,-0.50452 3.28835,-1.17683 3.50226,-1.53685zM393.29998,196.18811c3.62118,0.98303 5.43959,8.14644 5.7588,11.30247c0.10947,1.08228 0.5378,2.2974 0.03727,3.26321c-0.93987,1.81355 -4.88631,2.91976 -6.65154,3.82132l-1.8423,0.93965c0,0 -1.22907,0.6269 -2.1502,-0.20327c-5.24758,1.93067 -10.44952,4.11001 -15.65146,6.07668c-13.33203,6.78548 -27.78315,10.8975 -41.46293,16.87785c-0.39515,0.66643 -1.16269,0.90936 -1.16269,0.90936l-1.4144,0.41968c-2.40866,1.20406 -5.476,2.57431 -8.09001,0.71351c-0.79101,-0.56309 -1.01576,-1.65573 -1.48879,-2.50367c-1.63911,-2.93822 -4.53837,-9.01727 -2.2088,-12.29566c1.06604,-1.50022 4.80804,-2.21802 6.7308,-2.67553c14.59358,-5.54449 29.10863,-11.24753 43.72066,-16.76424c6.69895,-2.52859 13.22767,-5.34807 19.88539,-7.93159c0.02065,0.05047 0.04175,0.10085 0.06326,0.15113c1.79987,-1.03362 4.35014,-2.52893 5.92696,-2.10088z" fill="#343434"></path>
            <path d="M392.15461,210.5229c-0.03894,-0.13935 -0.20432,-0.24877 -0.24211,-0.38827l-1.04523,0.17111c-6.59166,2.26921 -13.07144,5.04068 -19.58558,7.49711c-14.08359,7.19891 -29.55064,11.41899 -43.92549,17.96285c-0.00699,0.09283 0.09401,0.10967 0.08154,0.17509l-0.51362,0.19738c-4.05062,2.1201 -4.65476,0.27197 -6.01764,-3.70857c-0.20462,-0.59764 -1.35858,-3.96441 -0.87818,-4.53457c0.47525,-0.56405 3.29768,-1.01599 4.53723,-1.25424c0.0079,0.01555 0.01561,0.03126 0.02313,0.04728c0.09745,-0.03712 0.06818,-0.04276 0.16562,-0.07988c0.04386,-0.00962 0.08364,-0.01883 0.11894,-0.02762c0,0 0.22893,-0.05738 0.50804,-0.21156c14.46597,-5.51647 28.98607,-11.20424 43.4778,-16.67552c6.02922,-2.27676 11.92753,-4.77963 17.89921,-7.142c0.70605,0.13477 1.35211,-0.19372 1.35211,-0.19372c0.13686,-0.0698 0.5111,-0.30276 0.98596,-0.59778c0.11127,0.10685 0.12596,0.26431 0.27828,0.34174c-0.07088,-0.13029 -0.14306,-0.2598 -0.21678,-0.3901c1.18329,-0.73443 2.95751,-1.81337 3.24757,-1.7547c1.07622,0.21763 2.19435,5.44618 2.39724,6.3674c0.20001,0.90809 1.32888,1.86117 0.85394,2.66056c-0.2139,0.36002 -2.1005,1.0335 -3.50198,1.53802z" fill="#434343"></path>
          </g>
          <path d="M416.21234,180.94942c-1.93881,0.31254 -4.02211,0.7675 -5.97821,1.25884c-0.04191,-0.87714 -0.09041,-2.74278 0.68851,-2.90568c0.92812,-0.19409 4.49108,-0.17518 4.51593,0.33429l0.46488,0.94096c0,0 0.10402,0.21143 0.30886,0.37159z" fill="#888888"></path>
          <path d="M404.17708,183.8823c-1.61949,0.47296 -3.34604,0.98366 -4.91843,1.43217c0.60262,-2.13305 1.68015,-4.67409 4.48334,-2.10317l0.02534,0.22504c0,0 0.13993,0.28277 0.40975,0.44596z" fill="#888888"></path>
          <path d="M395.71179,198.60781c0,0 0.7378,-0.62657 0.74351,-1.51451c1.23815,-2.25102 1.4552,-4.92944 2.3335,-7.69302c0.25166,-0.01595 0.4219,-0.0648 0.4219,-0.0648c6.25455,-1.78246 13.31536,-4.20674 19.80995,-4.87128l0.54299,-0.13646c2.8983,4.94053 3.96971,11.94541 4.0124,17.58419l-0.29242,0.57485c0,0 -0.14985,0.46004 -0.07362,0.9942c-5.11874,2.16709 -10.45369,4.15527 -15.24018,7.00799l-1.83829,-0.39983c-2.15453,-0.45691 -4.07287,-1.31219 -6.23164,-1.81c0,0 -0.66992,-0.15384 -1.30518,0.11683c-5.33046,-0.82415 -7.1794,-6.1999 -2.88301,-9.78816z" fill="#434343"></path>
          <path d="M405.35765,206.47105c-5.2031,-1.10452 1.89532,-10.89247 5.79299,-5.23068c2.57196,3.73605 -2.48905,7.70036 -5.79299,5.23068zM407.43148,205.35647c1.53519,0.22767 3.15665,-1.5969 2.10621,-3.00516c-1.48466,-1.99038 -3.71394,0.15205 -3.997,1.44792c0.36269,0.13947 0.54638,0.49957 0.54638,0.49957l0.13453,0.32808c0.00235,0.0029 0.00471,0.00581 0.00705,0.0087c0.05712,-0.00316 0.11802,-0.00984 0.18277,-0.02019c0,0 0.85918,-0.05745 1.02006,0.74108z" fill="#343434"></path>
          <path d="M416.67111,211.07722c0,0 0.07277,0.05638 0.18889,0.10862c-0.95661,2.45643 -3.5263,2.34636 -5.78388,1.96341c1.66843,-0.9318 3.50757,-1.82229 5.25637,-2.60309l0.33861,0.53107z" fill="#888888"></path>
          <path d="M421.38762,210.09223c-0.0876,0.0093 -0.87248,-0.57381 -1.53257,-1.05334c1.66721,-0.69052 3.45848,-1.41561 5.11262,-2.11557c0.06384,0.06321 0.14465,0.12488 0.2392,0.1679c0.10888,0.13426 0.22444,0.27698 0.33856,0.40652c-0.14709,1.76786 -1.9292,2.35803 -4.15782,2.59447z" fill="#888888"></path>
          <path d="M415.37034,180.15804c0.85411,0.47901 0.37507,1.33311 0.37507,1.33311l-0.3972,0.39994c3.36814,2.70276 6.60524,10.32225 0.88451,12.45947c-6.22099,2.05626 -12.93873,3.05185 -19.17438,5.3576c-1.36241,0.99226 -2.9062,1.86147 -4.38404,2.9022c0,0 -0.65278,0.45971 -1.19457,-0.04049c-1.87892,0.97502 -3.69919,2.00009 -5.5626,2.9868c0.09028,0.9053 -0.83084,1.04442 -0.83084,1.04442l-0.50619,-0.02811c-6.30744,4.30356 -15.14802,6.28488 -22.37526,8.75931c-7.19503,2.44223 -13.92121,6.15017 -21.06351,8.70401c-0.19982,0.47616 -0.76868,0.56207 -0.76868,0.56207l-1.28448,0.18849c-0.3927,0.15007 -0.78539,0.30014 -1.17809,0.45022c-6.71361,2.12302 -13.62194,3.91143 -20.23605,6.17516c0,0 -0.00284,0.00097 -0.00829,0.00266c-0.08113,0.05829 -0.17081,0.10393 -0.26568,0.13527l-0.97749,0.33456l-0.00791,-0.02311l-0.04025,0.03821c-0.52122,0.12077 -1.04179,0.24078 -1.56172,0.36079c-0.97724,0.52538 -2.18454,0.57812 -3.49819,0.8811c-2.11518,0.48786 -4.18189,1.11716 -6.26567,1.72528c-0.00096,0.042 -0.00293,0.08492 -0.00594,0.12875l0.00001,-0.00001c-0.13455,1.95388 -2.08845,1.81931 -2.08845,1.81931l-0.70907,-0.05461c-3.0175,-0.00125 -5.63851,1.19254 -8.49456,2.04013c-7.55313,2.24157 -15.20538,3.6732 -21.75456,8.29206c0,0 -1.60128,1.12767 -2.72895,-0.47362c-1.12768,-1.60129 0.47362,-2.72895 0.47362,-2.72895c6.94073,-4.88117 14.90676,-6.47284 22.8999,-8.84592c3.23889,-0.96159 6.1496,-2.15053 9.57316,-2.20055l1.00956,0.06374c0,0 0.27956,0.01926 0.6199,0.14895c2.16458,-0.66504 4.34751,-1.23613 6.54514,-1.7695c0.24311,-0.06055 0.48645,-0.11922 0.73002,-0.17574c1.27153,-0.30372 2.54783,-0.59692 3.82822,-0.89041l-0.00361,-0.01284l1.85128,-0.52086c0.13304,-0.0892 0.24532,-0.12765 0.24532,-0.12765c6.61394,-2.26367 13.51695,-4.04677 20.22866,-6.17262c0.44159,-0.16491 0.88321,-0.32983 1.3248,-0.49474l0.69595,-0.1077c0.19981,-0.2459 0.48583,-0.3438 0.48583,-0.3438c7.43387,-2.52337 14.36005,-6.39792 21.79558,-8.96112c6.75064,-2.30954 15.73758,-4.14192 21.59148,-8.29771c0.09016,-0.45053 0.53814,-0.67901 0.53814,-0.67901c2.51831,-1.28447 4.91217,-2.67128 7.43361,-3.95734l1.05273,-0.53695c0,0 0.16632,-0.08483 0.39075,-0.10778c0.04751,-0.50517 0.55025,-0.7616 0.55025,-0.7616l0.96894,-0.48885c1.16685,-0.92844 2.66446,-1.78949 3.64161,-2.92955c0.65524,-0.7645 1.11959,-1.69339 1.46344,-2.70918l0.01526,-0.22594c-0.25211,-0.38185 -0.0977,-0.85777 -0.0977,-0.85777c0.30511,-0.94035 0.66237,-1.85702 0.91801,-2.79118c0.11119,-0.79076 0.20394,-1.57875 0.3035,-2.33612l-0.11368,0.01717l-0.20634,-1.36621c-0.02615,-0.15154 -0.01688,-0.31148 0.03388,-0.46793c0.16691,-0.51443 0.71925,-0.79614 1.23366,-0.62923c0.30862,0.10014 0.53349,0.33898 0.62797,0.62514l0.33455,0.97748l-0.05792,0.01983l0.09149,0.10439c0.05266,0.76405 0.00804,1.48284 -0.10075,2.18094c-0.0117,0.74859 -0.18593,1.56814 -0.33276,2.25427c-0.08911,0.41636 -0.18961,0.81635 -0.3014,1.20162c0.33847,0.39177 0.1604,0.94057 0.1604,0.94057c-0.22481,0.68491 -0.5022,1.35503 -0.82551,2.00063c-0.2089,0.76476 -0.50854,1.43837 -0.87975,2.04369c5.19393,-1.49486 10.6311,-2.42717 15.59404,-4.20509c1.3136,-0.38224 1.35312,-1.17179 1.49852,-2.44159c0.44165,-3.85714 -1.8922,-4.88115 -3.70477,-8.06463l0.64495,-1.45821c0,0 0.47901,-0.85411 1.33311,-0.37507z" fill="#1f1f1f"></path>
          <path d="M424.11453,205.59739c-0.87235,0.44493 -1.31727,-0.42742 -1.31727,-0.42742l-0.37321,-0.90596c-0.24725,-3.87126 -2.27536,-5.20186 -5.07834,-7.37294c-3.12087,-0.42351 -5.31922,1.57593 -7.81581,3.04225c-2.37549,1.39519 -4.57255,2.87233 -6.8386,4.26154c0.29913,0.05785 0.59787,0.1243 0.89543,0.19885c0.05696,0.00309 0.11394,0.00639 0.17091,0.00987c0,0 0.26825,0.01847 0.51395,0.17664c3.38612,0.99567 6.53271,3.0136 8.22121,5.35844l0.29641,-0.10973c0,0 0.93145,0.30222 0.62923,1.23366l-0.00001,0.00001c-0.30222,0.93145 -1.23366,0.62923 -1.23366,0.62923l-1.29326,-0.62551c-0.5771,-0.8448 -1.42246,-1.65378 -2.43614,-2.37208c-0.05692,0.07918 -0.13148,0.15769 -0.22756,0.23366l0,0.00004c-0.76813,0.60738 -1.37551,-0.16076 -1.37551,-0.16076l-0.32559,-0.44563c-1.22738,-1.03005 -2.49403,-1.66643 -3.78669,-2.01183c-2.24622,-0.0759 -4.51867,0.18223 -6.80962,0.51732c-0.28381,0.17128 -0.55213,0.36674 -0.80245,0.58777c0,0 -0.73837,0.64322 -1.3816,-0.09516c-0.0194,-0.02226 -0.03752,-0.04444 -0.05446,-0.06651c-1.12396,0.37357 -2.24501,0.78767 -3.35529,1.18195c-0.18462,0.32205 -0.5395,0.45604 -0.5395,0.45604l-1.20131,0.45195c-4.04058,2.0609 -7.53822,5.05686 -11.85238,6.53342c-7.05498,2.39469 -16.39948,3.92882 -22.53235,8.18718c-6.65055,2.33815 -12.73879,5.74445 -19.62889,7.35146c-0.21291,0.13706 -0.42967,0.1698 -0.42967,0.1698l-1.27502,0.18598c-1.80826,0.7291 -3.47979,1.30201 -5.23351,2.18981c-6.44175,1.77978 -12.6759,4.75959 -19.02618,6.995c-0.00301,1.36739 -1.44897,1.7742 -1.44897,1.7742l-1.3464,0.37568c-10.70716,3.66454 -22.42483,8.09579 -33.71893,9.28015c0,0 -1.94784,0.20425 -2.15209,-1.74357c-0.20425,-1.94784 1.74357,-2.15209 1.74357,-2.15209c10.99961,-1.15347 22.43344,-5.52225 32.85906,-9.09045l1.5539,-0.44032c0,0 0.91428,-0.25723 1.6486,0.22324c6.41309,-2.23388 12.68309,-5.18882 19.17383,-7.0457c1.80683,-0.92945 3.55967,-1.51002 5.43332,-2.25585l1.35905,-0.21128c0.17104,-0.10562 0.32662,-0.14151 0.32662,-0.14151c6.7947,-1.56717 12.67718,-5.03192 19.27185,-7.20924c6.10849,-4.37118 15.70316,-5.85316 22.78801,-8.29549c4.23824,-1.45058 7.71714,-4.44297 11.69456,-6.47166l0.34435,-0.13043c0.18243,-0.36287 0.5886,-0.50186 0.5886,-0.50186c0.90977,-0.31137 1.82046,-0.63538 2.73053,-0.94861l0.77133,-0.55973c0.59242,-0.08949 1.18327,-0.18053 1.77276,-0.26974c0.7134,-0.21439 1.42551,-0.40866 2.13559,-0.57139c0.95812,-0.36952 1.99546,-0.5726 3.07082,-0.63276c5.63393,-3.34175 12.22766,-9.8985 18.87631,-8.85613c3.49784,2.48378 5.96319,4.43271 6.28417,9.05218l0.16373,0.14677c0,0 0.44493,0.87235 -0.42742,1.31727z" fill="#1f1f1f"></path>
          <path d="M401.0502,198.23389c-5.74086,0.7498 -2.94307,-7.74524 1.60719,-7.59579c2.80882,0.09226 4.44361,3.94672 2.81476,6.16882c-0.79637,1.08644 -2.40358,1.30976 -3.59724,1.58638zM400.56699,196.37386c0.18403,-0.09852 0.38199,-0.11359 0.5342,-0.10396c0.16126,0.00384 0.3711,0.03969 0.55314,0.17059c0.66468,-0.12334 1.86107,-0.28837 2.24165,-0.79607c0.64012,-0.85392 0.00839,-3.05482 -1.22291,-3.04787c-2.05291,0.0116 -4.04691,4.21372 -2.10607,3.77731z" fill="#343434"></path>
          <g>
            <path d="M412.01354,199.77021c-0.03964,-0.00882 -0.08052,-0.01999 -0.12269,-0.03367c-0.93145,-0.30222 -0.62923,-1.23366 -0.62923,-1.23366l0.49138,-1.17949c1.07082,-1.08212 1.85232,-1.73695 2.9722,-2.28705c-1.5849,-0.23971 -2.98471,-0.95621 -3.45366,-2.06768c-0.3981,-0.12255 -0.59984,-0.51806 -0.59984,-0.51806l-0.22674,-0.87556c0.45961,-2.51999 1.40647,-3.74686 3.46198,-5.18758c4.10668,-2.01214 9.25113,2.84855 6.29322,6.9953c-0.57154,0.80127 -1.53286,1.31213 -2.62179,1.56138c0.23782,0.11357 0.46376,0.24515 0.67721,0.39225c2.7069,0.10495 3.55094,3.90177 2.25204,5.97107c-0.01958,0.0312 -0.0397,0.06164 -0.0603,0.09135c-0.45016,1.37001 -1.60607,2.46396 -3.62293,2.70397c-3.61157,0.42978 -5.56611,-1.89073 -4.81083,-4.33256zM415.02145,200.22365c0.41758,-0.15711 0.84056,0.08012 0.84056,0.08012l0.66585,0.41998c0.40572,-0.04732 1.65894,0.02911 2.14143,-0.26158c0.24742,-1.00787 -0.06324,-2.24681 -0.77584,-3.08507c-0.9798,0.42153 -2.82045,1.99444 -2.87201,2.84653zM413.64727,191.67948c0.00052,-0.00041 0.00103,-0.00082 0.00156,-0.00124c0.76813,-0.60738 1.3755,0.16075 1.3755,0.16075l-0.33111,0.19991c0.00903,0.00568 0.01806,0.01153 0.02709,0.01758c0.80897,-0.04176 2.26609,0.08339 2.87406,-0.53551c0.7549,-0.76849 0.86425,-2.97207 -0.52575,-3.08114c-1.57542,-0.12361 -4.00895,2.49167 -3.42135,3.23962z" fill="#343434"></path>
            <path d="M414.96355,200.25381c0.05156,-0.85209 1.97343,-2.51616 2.95323,-2.93769c0.7126,0.83827 1.04644,2.18398 0.79901,3.19185c-0.48249,0.29068 -1.8082,0.22835 -2.21392,0.27566l-0.68851,-0.43632c0,0 -0.43224,-0.25059 -0.84981,-0.0935z" fill="#888888"></path>
            <path d="M413.59108,191.7127c-0.58761,-0.74795 1.9344,-3.45321 3.50982,-3.32959c1.39002,0.10907 1.29946,2.41004 0.54455,3.17852c-0.60797,0.6189 -2.15474,0.5058 -2.9637,0.54756c-0.00902,-0.00605 0.05981,-0.1167 0.05078,-0.12238l0.25662,-0.0928c0,0 -0.62842,-0.78991 -1.39654,-0.18253c-0.00052,0.00042 0.11135,-0.06563 0.11083,-0.06521z" fill="#888888"></path>
            <path d="M406.56875,206.7229c-0.20868,0.1683 -0.44026,0.2217 -0.44026,0.2217c-5.14463,0.892 -4.32263,-6.63617 -0.36844,-7.7675c6.01115,-1.71984 9.19871,6.19117 2.54895,7.81609l-1.14666,-0.03645c0,0 -0.33033,-0.02275 -0.59359,-0.23386zM406.56432,205.23308c0.30859,-0.2594 0.73259,-0.23021 0.73259,-0.23021l0.57194,0.08192c4.16339,-0.8828 2.01454,-5.00391 -1.50988,-4.043c-1.70898,0.46593 -2.9486,4.79246 -0.67064,3.99441c0,0 0.51539,-0.11887 0.87599,0.1969z" fill="#343434"></path>
            <path d="M405.64291,205.08309c-2.27795,0.79805 -1.01961,-3.63495 0.68937,-4.10088c3.52442,-0.9609 5.71752,3.28267 1.55413,4.16547l-0.5923,-0.07957c0,0 -0.44632,-0.03416 -0.75489,0.22524c-0.3606,-0.31576 -0.89629,-0.21025 -0.89629,-0.21025z" fill="#888888"></path>
            <path d="M399.46886,195.83424c0.68555,0.13273 0.73652,0.89529 0.73652,0.89529c-0.25092,2.25419 3.70326,0.5691 4.37403,-0.58943c1.97377,-3.40904 -2.88762,-5.18142 -4.83824,-1.81438c-0.03279,0.32159 -0.06559,0.64318 -0.09839,0.96476zM398.28368,197.05793c-0.06973,-0.00924 -0.14372,-0.02595 -0.22218,-0.05141c-0.93145,-0.30222 -0.62923,-1.23366 -0.62923,-1.23366l0.29711,-0.90028c0.04964,-0.38376 0.09926,-0.76753 0.14889,-1.15129c0.86122,-1.56273 2.20654,-3.34631 4.17349,-3.53904c3.55603,-0.34841 5.88728,3.92251 4.24264,6.90367c-1.72691,3.13031 -7.265,3.96152 -8.01073,-0.028z" fill="#343434"></path>
            <path d="M399.57752,195.29185c0.03279,-0.32159 0.06963,-0.66718 0.10242,-0.98877c1.95062,-3.36703 6.93425,-1.5488 4.96048,1.86024c-0.67077,1.15854 -4.73828,2.85945 -4.48737,0.60526c0,0 -0.06244,-0.78767 -0.74799,-0.92041z" fill="#888888"></path>
            <path d="M405.30008,195.32231c-0.97693,-0.06729 -0.90966,-1.04423 -0.90966,-1.04423l0.07538,-0.26425c-0.13859,-0.5383 -0.4033,-1.05727 -0.75767,-1.4855c0,0 -0.60737,-0.76813 0.16076,-1.37551c0.76813,-0.60737 1.37551,0.16076 1.37551,0.16076c0.49374,0.64453 0.87484,1.39172 1.10671,2.16982l-0.00682,0.92925c0,0 -0.06729,0.97693 -1.04423,0.90966z" fill="#343434"></path>
          </g>
        </g>
      </g>
      <g stroke-width="0.5">
        <path d="M273.64101,261.47123l-0.08062,-0.42366c-0.42542,-2.15474 -1.10265,-4.34643 -2.42678,-6.09872c-0.10718,-0.14184 -0.12796,-0.32342 -0.2413,-0.45734c0.23058,0.0417 1.19162,0.15657 1.6273,-0.72426c4.00389,-0.59368 8.24237,0.47415 8.92198,4.82616c1.08901,6.97362 -3.04102,14.66404 -5.87496,20.75999c-4.96211,6.01406 -10.5781,6.49175 -17.49812,4.1331c-1.31487,-0.44818 -2.85799,-0.67942 -3.82431,-1.6774c-2.38865,-2.46691 -1.39846,-6.67293 -3.71212,-9.27842c-1.34534,-1.51503 -4.39783,-2.381 -6.60251,-2.87539c0.21204,-2.70335 -0.42417,-5.9484 -0.01475,-8.25127c0.91576,-5.15101 2.41056,-11.51082 4.14328,-16.48745c0.66772,-1.9178 1.72047,-2.64118 1.60227,-4.78744c1.02425,-1.24355 2.46278,-2.11885 3.4855,-3.36445c0.5163,-0.62881 1.10716,-2.8308 2.02948,-3.45327c5.39618,-3.6418 11.94105,3.15557 11.85856,8.68363c-1.33866,-0.23374 -1.70519,1.22272 -1.70519,1.22272l-0.10689,0.45335c-0.28889,1.18293 -0.69807,2.3904 -1.11441,3.50123c-0.07114,-2.76902 -0.05,-4.75578 -1.45985,-7.16357c0,0 -0.77131,-1.28309 -2.05471,-0.50664c-1.2834,0.77644 -0.50742,1.95987 -0.50742,1.95987c1.13352,1.7895 0.9983,3.47551 1.03014,5.55795c-0.274,-0.1405 -0.55577,-0.2218 -0.86257,-0.18748c-0.00178,0.00021 -0.00356,0.00039 -0.00534,0.00061c-0.05718,-0.01414 -0.1143,-0.0284 -0.1727,-0.04276l-0.1123,0.05903l0.00728,-0.07335l-1.96784,-0.1978c-0.3166,-0.03504 -0.64335,0.02931 -0.93695,0.20694c-0.7088,0.42882 -0.96457,1.25538 -0.53576,1.96417c0.25726,0.42521 0.69588,0.67589 1.15569,0.71673l1.71433,0.16886c0.31419,0.49904 1.07126,0.55041 1.59643,0.83234l1.00845,1.01874c0,0 0.58764,0.57773 1.31623,0.45143c0.25036,0.18885 0.6079,0.3489 1.04482,0.27212c2.43758,3.22167 5.52664,4.83866 6.34659,9.40834l0.08012,0.42712c0,0 0.18172,1.45057 1.65556,1.17165c1.47384,-0.27892 1.19348,-1.74537 1.19348,-1.74537z" fill="#b7b7b7"></path>
        <path d="M243.95546,238.59785c3.12831,1.04358 -0.60013,7.83798 -1.09257,10.29095c-0.80076,3.98885 -2.3916,7.99215 -3.10446,11.96239c-0.91532,5.09781 2.14658,11.84899 -5.51279,10.80504c-0.72631,-0.099 -1.44266,-0.29332 -2.16103,-0.43918c0,0 -0.0704,-0.0142 -0.18721,-0.02435c-3.53939,-10.54214 0.40882,-21.87566 3.06659,-32.30617c0.87605,-0.15824 1.29214,-0.72776 1.48488,-1.23813c2.55759,0.03592 4.82902,0.28854 7.50657,0.94947z" fill="#b7b7b7"></path>
        <path d="M262.19534,268.88747c1.27727,0.78648 0.49079,2.06376 0.49079,2.06376l-0.55314,0.89549c-1.29761,2.3245 -2.17855,4.71119 -3.416,7.05994c0,0 -0.70103,1.32611 -2.02714,0.62508c-1.32611,-0.70103 -0.62508,-2.02714 -0.62508,-2.02714c1.25334,-2.36219 2.14374,-4.76574 3.44642,-7.11605l0.62037,-1.01031c0,0 0.78648,-1.27727 2.06377,-0.49078z" fill="#6b6b6b"></path>
        <path d="M267.67686,263.25111c1.26843,0.80068 0.46773,2.0691 0.46773,2.0691l-0.28933,0.31414c-0.81956,3.24615 -2.29912,6.64071 -3.86946,9.61723c0,0 -0.70103,1.32611 -2.02713,0.62509c-1.32611,-0.70103 -0.62508,-2.02714 -0.62508,-2.02714c1.4507,-2.73838 2.89575,-5.94021 3.60861,-8.93214l0.66553,-1.19854c0,0 0.80069,-1.26844 2.06911,-0.46773z" fill="#6b6b6b"></path>
        <path d="M272.49576,263.22982c-1.47384,0.27892 -1.75277,-1.19491 -1.75277,-1.19491l-0.08048,-0.42521c-0.81995,-4.56967 -3.88247,-6.13401 -6.32005,-9.35568c-0.43693,0.07678 -0.78876,-0.08081 -1.03913,-0.26964c-0.72859,0.12631 -1.30839,-0.44928 -1.30839,-0.44928l-1.00226,-1.01798c-0.52517,-0.28193 -1.27425,-0.33344 -1.58845,-0.83249l-1.70662,-0.17024c-0.45979,-0.04084 -0.89463,-0.29266 -1.15188,-0.71789c-0.42882,-0.7088 -0.20184,-1.63104 0.50696,-2.05986c0.2936,-0.17762 0.62381,-0.24273 0.94042,-0.20769l1.97506,0.19701l-0.00731,0.07337l0.11275,-0.05905c0.05841,0.01438 0.11619,0.02861 0.17337,0.04276c0.00178,-0.00021 0.00357,-0.00039 0.00536,-0.00061c0.30679,-0.03432 0.59188,0.04704 0.8659,0.18753c-0.03183,-2.08242 0.10158,-3.66854 -1.03195,-5.45802c0,0 -0.77644,-1.2834 0.50696,-2.05986c1.2834,-0.77644 2.05986,0.50696 2.05986,0.50696c1.40984,2.4078 1.39704,4.39621 1.46818,7.16523c0.41635,-1.11085 0.79744,-2.22234 1.08633,-3.40527l0.13519,-0.54926c0,0 0.3351,-1.36159 1.67377,-1.12785c0.08248,-5.52805 -6.43541,-12.32328 -11.83159,-8.68146c-0.92231,0.62245 -1.50787,2.82309 -2.02417,3.4519c-1.02272,1.24561 -2.45236,2.11714 -3.47659,3.36067c0.1182,2.14626 -0.92663,2.86432 -1.59436,4.78211c-1.73273,4.9766 -3.20952,11.29336 -4.12528,16.44436c-0.4094,2.30286 0.22005,5.52698 0.00802,8.23032c2.20469,0.49439 5.24497,1.34642 6.59031,2.86145c2.31366,2.60549 1.30619,6.80275 3.69485,9.26966c0.96633,0.99799 2.50083,1.2276 3.8157,1.67578c6.92002,2.35867 12.50032,1.8913 17.46242,-4.12277c2.83394,-6.09595 6.94479,-13.74379 5.85579,-20.71742c-0.67961,-4.35201 -4.91274,-5.40033 -8.91664,-4.80665c-0.43567,0.88084 -1.39654,0.7663 -1.62712,0.72461c0.11334,0.13392 0.22387,0.27146 0.33106,0.4133c1.32413,1.75229 2.00582,3.96932 2.43123,6.12404l0.08048,0.42521c0,0 0.27892,1.47384 -1.19492,1.75276zM249.83278,234.14892c1.09494,-1.32976 1.49561,-3.28092 2.90154,-4.27615c8.29406,-5.87117 17.41341,2.95826 18.28622,11.11662c0.33942,3.17262 -1.0439,6.12834 -1.8475,9.19958c6.7017,-1.95532 14.88064,-0.24616 16.41131,7.63846c1.53364,7.89991 -3.13086,16.89 -6.44967,23.77094c-6.19424,7.55194 -13.59878,8.95889 -22.50041,5.85065c-1.9089,-0.66655 -4.0209,-1.25702 -5.4266,-2.71038c-2.66596,-2.75631 -1.61437,-6.86593 -3.80689,-9.38891c-0.81186,-0.93422 -3.69112,-1.45769 -5.02077,-1.70793c-2.77616,3.07519 -7.49666,2.42668 -11.11865,1.70697c0,0 -0.69554,-0.13963 -1.2035,-0.65906c-1.40321,0.01839 -1.92505,-1.44622 -1.92505,-1.44622c-3.28901,-9.46154 -1.33286,-21.95101 1.09604,-31.50366c0.72329,-2.84464 2.05919,-5.2527 2.60761,-8.0972l2.18316,0.47529l0.40223,-0.67238c3.94934,-0.08113 7.11185,0.21021 10.95429,1.18644c1.138,0.60569 1.96802,0.92247 2.58451,1.31539c0.65717,-0.56891 1.32219,-1.13048 1.8722,-1.79844zM236.45276,237.69823c-0.19274,0.51038 -0.60379,1.07924 -1.47985,1.23749c-2.65778,10.43051 -6.59869,21.66751 -3.0593,32.20967c0.1168,0.01013 0.18672,0.02418 0.18672,0.02418c0.71836,0.14588 1.42877,0.33863 2.15508,0.43762c7.65936,1.04394 4.57317,-5.70602 5.48849,-10.80384c0.71285,-3.97023 2.28334,-7.88993 3.0841,-11.87876c0.49244,-2.45297 4.23722,-9.23674 1.10888,-10.28031c-2.67755,-0.66094 -4.92654,-0.91012 -7.48412,-0.94602z" fill="#6b6b6b"></path>
      </g>
      <g stroke-width="0.5">
        <path d="M362.72177,250.99962c-1.91565,0.13768 -3.4388,0.88232 -5.43349,0.52176c-0.66235,-0.11973 -1.30233,-0.33384 -1.94298,-0.54619c0.00177,0.37942 -0.03329,0.83076 -0.11133,1.45685l-0.00001,-0.00001c-0.0924,0.74128 -0.16651,1.5093 -0.47294,2.19057c-0.11546,0.25666 -0.91725,0.25424 -0.71464,0.44955c0.21429,0.20655 0.52843,-0.30817 0.82386,-0.34427c1.21781,-0.14889 2.45477,0.00449 3.68019,-0.05538c4.62989,-0.22616 8.11041,-1.34426 12.42261,-2.72026c2.03749,-0.65015 3.038,-0.8384 4.53208,-2.4867c-0.01863,-1.23634 0.19184,-2.39518 0.33355,-3.58764c-3.96007,2.62405 -8.50111,4.78996 -13.11689,5.12171zM379.35965,251.31079l-0.77946,0.7078c-4.98173,6.19453 -12.13623,7.72019 -19.83802,7.80348c-2.69291,0.02912 -6.54523,0.95438 -8.13266,-2.17737c-0.10025,-0.19777 -0.15003,-0.40844 -0.1698,-0.62675c-0.22288,-0.22983 -0.33027,-0.46412 -0.33027,-0.46412l-0.2093,-1.51088c0.36598,-0.98554 0.73704,-1.96925 1.11609,-2.94984c0.10523,-2.0598 -0.73295,-1.77851 -1.52855,-3.61479c-0.72383,-1.67067 -0.5405,-4.24301 -0.30715,-6.00702c0.39027,-2.95027 2.38314,-5.93258 2.44251,-8.88185c0.01176,-0.58419 -0.35065,-1.14551 -0.29785,-1.72741c0.13629,-1.502 0.97751,-1.54327 0.67512,-2.95577c-0.87413,-4.08305 -5.70398,-5.00865 -8.10968,-8.02241c-1.65624,-3.55365 -2.57186,-6.63204 -1.84683,-10.44042c0.25369,-1.33257 0.13752,-2.85007 0.90716,-3.96712c1.48777,-2.15934 4.45286,-3.43312 7.10295,-3.2149c0.34246,-3.3569 2.37857,-7.04686 5.8015,-7.71112c1.58055,-0.30671 3.18231,0.08919 4.68904,0.64703c0.63551,-2.54898 2.123,-4.26708 5.6782,-4.95444l1.22031,0.00553c0,0 0.98603,0.03333 1.3317,0.84561c0.56806,0.15628 1.10037,0.43925 1.56243,0.87223c1.14045,1.0687 1.19756,2.71133 1.36002,4.3078c0.78358,0.09426 1.14991,0.89339 1.14991,0.89339c1.75634,4.17879 4.41771,0.5492 7.51716,1.42723c1.36623,0.38702 2.40091,1.88905 3.22994,2.92648c3.68787,4.61501 4.78514,11.30408 4.61683,17.06281c-0.19057,5.63511 -0.4583,10.83564 -2.02797,16.23381c-0.64301,2.21135 -1.77633,3.27153 -3.12217,4.92023c-1.90685,2.33599 -2.17563,4.92659 -2.2718,7.76989l-0.48682,1.53209c0,0 -0.17055,0.45929 -0.57921,0.75542c-0.15042,0.31636 -0.36331,0.5153 -0.36331,0.5153zM364.47049,198.41377c-0.02062,0.02919 -0.04143,0.05822 -0.06243,0.0871l0.015,0.00815l-0.11217,0.20656c-0.07104,1.28073 0.23906,2.90445 0.55625,3.95757c1.14188,0.81429 2.27671,1.64015 3.4495,2.44258c3.78311,2.66794 7.79831,0.11156 11.45348,2.11409c0.37107,0.2033 0.71141,0.41792 1.02385,0.64312c-0.07907,-0.11666 -0.16265,-0.23011 -0.25098,-0.34012c-0.80084,-0.63683 -1.44197,-1.52202 -2.37229,-1.94791c-2.34067,-1.07153 -5.09205,-0.25375 -7.38211,-1.54865c-0.99188,-0.56085 -2.54983,-2.0362 -3.04723,-3.08814c-0.32954,-0.69692 -0.12449,-3.40183 -1.06329,-3.88015c-0.63151,-0.32174 -1.11006,-0.38033 -1.46613,-0.25003c-0.25426,0.61951 -0.47989,1.22546 -0.74143,1.59582zM353.7676,214.55019c-0.89122,-0.03016 -1.23469,-0.57219 -1.3667,-1.00684c-0.95624,-0.83178 -1.84836,-1.80145 -2.23968,-2.97765c-0.27708,-0.83285 0.23717,-1.48107 -0.78959,-1.78984c-4.50778,-1.35557 -3.15956,6.00301 -2.38616,7.84756c1.24402,2.96694 6.37216,3.52058 8.36848,5.88416c0,0 0.0569,0.07111 0.12514,0.19232c0.82042,0.30854 1.51431,0.8377 1.8913,2.25028c0.38213,1.43184 -0.35985,2.95745 -0.27822,4.43714l-0.09155,2.7441c0,0 -0.00988,0.29219 -0.14992,0.61421c0.32992,1.978 0.34213,3.54573 -0.52863,5.48578c-1.13802,2.5355 -4.2426,5.21088 -2.11792,7.68464l0.03932,0.07399c7.60638,1.60762 14.69647,-0.89407 21.06206,-4.82445c1.42804,-0.88173 2.99642,-1.77635 3.93838,-3.30538c0.93981,-1.52554 1.31062,-3.58431 2.19916,-5.19764c1.12558,-5.34093 0.84411,-9.47643 0.26383,-14.86278c-0.36457,-3.38405 -0.07597,-5.88065 -3.41815,-7.96121c-1.25776,-0.78297 -3.28845,0.05885 -4.66876,0.0135c-2.85795,-0.09391 -4.65781,-0.69441 -6.99862,-2.26125c-0.95495,-0.65473 -1.89356,-1.32013 -2.83035,-1.98403c-0.93349,0.04579 -1.36744,-0.90083 -1.36744,-0.90083c-0.01426,-0.03145 -0.02846,-0.06329 -0.04262,-0.0955c-0.73207,-0.51426 -1.46746,-1.02389 -2.21307,-1.52315c-0.89749,-0.60094 -1.35633,-1.73362 -2.26558,-2.31663c-2.09278,-1.34189 -2.56746,3.83196 -2.51302,4.65224c0.27998,4.21801 4.78457,7.93235 8.91904,8.95674c0.79871,-0.11499 1.59341,-0.21657 2.35936,-0.05156l0.04053,-0.03561c0,0 1.36355,-0.62508 1.98863,0.73846c0.22701,0.49521 0.19173,0.89302 0.05474,1.19886c0.0969,0.47756 0.11278,1.00003 0.18366,1.4645c0.36286,2.37748 0.16979,4.96571 0.29083,7.38747c0,0 0.07395,1.49818 -1.42423,1.57212c-1.49818,0.07395 -1.57212,-1.42423 -1.57212,-1.42423c-0.09132,-1.8724 -0.21498,-3.67456 -0.34642,-5.52117c-0.04679,-0.6573 0.49485,-1.50031 0.39797,-2.08547l-0.08954,0.03223c-0.8174,-0.03546 -1.6564,-0.16134 -2.4975,-0.36857c-0.96362,0.1073 -1.89775,0.23316 -2.1065,0.20676c-2.46336,-0.3114 -5.21251,-1.12726 -7.52107,-2.49442c0.00156,-0.1538 0.00381,-0.3076 0.00677,-0.46139c-0.09458,0.01164 -0.19634,0.01621 -0.30582,0.0125z" fill="#6b6b6b"></path>
        <path d="M380.83781,207.89696c-0.31245,-0.2252 -0.65259,-0.44016 -1.02365,-0.64346c-3.65518,-2.00252 -7.75652,0.55714 -11.53963,-2.1108c-1.17279,-0.80243 -2.31548,-1.65702 -3.45735,-2.47132c-0.68495,-2.27409 -1.31962,-7.24497 1.82813,-5.64117c0.93879,0.47832 0.81139,3.24303 1.14091,3.93997c0.49738,1.05192 2.04308,2.46733 3.03496,3.02818c2.29006,1.29491 4.96266,0.49585 7.30333,1.56737c0.93034,0.42589 1.66191,1.3535 2.46275,1.99034c0.08833,0.11 0.17149,0.22423 0.25057,0.34091z" fill="#b7b7b7"></path>
        <path d="M355.00182,249.174c7.47828,1.11254 14.65598,-1.15944 21.04493,-4.94488l-0.04469,0.15566c-0.05245,1.73857 -0.47316,3.3429 -0.44699,5.07938c-1.49407,1.6483 -2.49768,1.85537 -4.53518,2.50551c-4.3122,1.37599 -7.87949,2.50682 -12.5094,2.73299c-1.22541,0.05986 -2.46743,-0.10171 -3.68523,0.04717c-0.29543,0.03612 -0.60965,0.55065 -0.82394,0.34409c-0.20262,-0.19531 0.59901,-0.19327 0.71447,-0.44993c0.30643,-0.68126 0.3775,-1.45752 0.4699,-2.19879c0.20957,-1.68134 0.10752,-2.11831 -0.18388,-3.27117z" fill="#b7b7b7"></path>
        <path d="M354.11783,214.34865c-0.00534,0.22687 -0.08991,0.39489 -0.09222,0.62185c2.30855,1.36716 5.07422,2.168 7.53758,2.47942c0.20876,0.02639 1.16285,-0.1057 2.12647,-0.213c0.84111,0.20723 1.70618,0.33776 2.52356,0.37321l0.09016,-0.03192c0.09688,0.58516 -0.4364,1.43336 -0.38961,2.09065c0.13144,1.84664 0.2519,3.73033 0.34323,5.60273c0,0 0.01567,1.41704 1.51386,1.34308c1.49818,-0.07395 1.41242,-1.55876 1.41242,-1.55876c-0.12105,-2.42176 0.07755,-4.95079 -0.28531,-7.32827c-0.07089,-0.46445 -0.08078,-0.98128 -0.17768,-1.45884c0.137,-0.30583 0.17613,-0.70083 -0.05088,-1.19605c-0.62508,-1.36355 -1.9771,-0.73286 -1.9771,-0.73286l-0.04037,0.03566c-0.76594,-0.16501 -1.54611,-0.06093 -2.34483,0.05407c-4.13448,-1.02439 -8.66118,-4.83295 -8.94114,-9.05096c-0.05445,-0.82027 0.42949,-5.99787 2.52228,-4.65599c0.90924,0.58301 1.37189,1.71473 2.26939,2.31567c0.74562,0.49926 1.48628,1.0081 2.21835,1.52235c0.01415,0.03221 0.02844,0.06403 0.04269,0.09548c0,0 0.43782,0.94639 1.37132,0.9006c0.93679,0.66391 1.88496,1.33003 2.83991,1.98476c2.34081,1.56684 4.16291,2.17721 7.02088,2.27113c1.38031,0.04535 3.41814,-0.78965 4.67591,-0.00669c3.34219,2.08056 3.06426,4.59811 3.42883,7.98218c0.58029,5.38635 0.85569,9.55967 -0.26989,14.9006c-0.88855,1.61334 -1.26742,3.68207 -2.20724,5.20761c-0.94196,1.52903 -2.51966,2.43064 -3.94768,3.31237c-6.36558,3.93038 -13.49991,6.43511 -21.1063,4.82749l-0.03942,-0.07404c-2.12468,-2.47375 0.97738,-5.15027 2.11541,-7.68577c0.87077,-1.94004 0.85219,-3.51144 0.52227,-5.48943c0.14005,-0.32202 0.1492,-0.61473 0.1492,-0.61473l0.08582,-2.74878c-0.08163,-1.47969 0.649,-3.02148 0.26688,-4.45332c-0.37699,-1.41259 -1.0749,-1.95774 -1.89532,-2.26628c-0.06824,-0.12121 -0.12522,-0.19347 -0.12522,-0.19347c-1.99631,-2.36359 -7.12226,-2.93507 -8.36627,-5.90201c-0.77341,-1.84457 -2.11114,-9.22153 2.39663,-7.86596c1.02676,0.30876 0.58842,1.02205 0.86552,1.8549c0.47031,1.41364 1.66603,2.52636 2.825,3.46249c0.36463,0.09584 0.72831,0.19295 1.09293,0.28879z" fill="#b7b7b7"></path>
      </g>
    </g>
  </g>
</svg>
