<?xml version="1.0" encoding="UTF-8"?>
<svg xmlns="http://www.w3.org/2000/svg" xmlns:xlink="http://www.w3.org/1999/xlink" version="1.1" width="59.52583" height="47.04494" viewBox="0,0,59.52583,47.04494">
  <g transform="translate(-208.99574,-169.4048)">
    <g stroke="none" stroke-miterlimit="10">
      <path d="M219.87191,197.15735c0,-0.85052 -0.57911,-1.12564 -0.949,-1.21251c-0.21795,-0.31457 -0.55179,-0.70258 -1.30037,-0.45305c-0.21287,0.07096 -0.37484,0.16683 -0.49724,0.27731c-0.1811,-0.03019 -0.46195,-0.05339 -0.64305,-0.08357c0,0 -0.16467,-0.02751 -0.38368,-0.00216c-0.20054,-0.23459 -0.43519,-0.3527 -0.43519,-0.3527l-0.30141,-0.1339c-0.50443,-0.36025 -3.6489,-1.9589 -3.94753,-2.53898c-0.11626,-0.22583 0.57048,0.20548 0.76105,0.03756c0.58111,-0.51204 1.15029,-1.14856 1.34623,-1.89788c0.10513,-0.40204 -0.63045,-0.70678 -0.55893,-1.11613c0.14341,-0.82092 1.67215,0.12295 2.50003,0.02763c0.90371,-0.10405 1.7755,-0.41065 2.60387,-0.82509l0.11054,0.25874l1.61547,-0.69458c0.4596,-0.18472 0.78517,-0.63784 0.78517,-1.16351c0,-0.53655 -0.33734,-0.99597 -0.81207,-1.17323l-1.00696,-0.40274c-1.0409,-0.86482 2.83846,-1.62202 3.79154,-1.93979c2.60882,-0.86981 4.27842,-0.93627 6.36525,-0.65932l2.13003,0.84835c0.15062,0.06432 0.31746,0.09914 0.49159,0.09914c0.69036,0 1.25572,-0.5633 1.25572,-1.25366c0,-0.17413 -0.03511,-0.3402 -0.09944,-0.49082l-0.458,-1.14624l-0.08813,0.03529l0.01734,-0.1705c-0.36584,-0.37788 -0.73048,-0.75641 -1.09632,-1.13429c-0.42899,-0.42457 -0.81481,-0.8969 -1.28575,-1.2744c-0.32402,-0.25973 -0.69734,-0.45681 -1.07764,-0.62363c-0.18993,-0.08331 -0.8728,-0.19394 -0.66556,-0.20212c1.34258,-0.05301 2.84123,-0.59834 4.19528,-0.33638c1.72382,0.3335 3.05416,2.19623 4.81628,2.35953c1.32964,0.12322 2.52011,-0.98814 3.89165,-0.55667c0.98296,0.30923 1.10291,1.92603 2.05575,2.31836c2.13991,0.88109 4.14406,-0.48965 6.1281,-0.80797c0.87415,-0.14025 1.24453,1.47606 2.11901,1.61428c1.38082,0.21825 5.08236,-0.82593 6.45661,-1.39978c1.16704,-1.56521 2.50559,-3.32132 3.33907,-5.10388c0.21824,-0.46676 0.2859,-0.98821 0.4276,-1.48457c-0.01536,0.41585 0.06786,0.64925 0.06703,0.65864c-0.41221,4.66544 -0.87002,9.32067 -1.38511,13.96806c-0.08438,0.76134 -0.64853,3.72075 0.1252,4.31603c1.75482,1.3501 3.79854,-0.23463 4.32104,-1.77326c0.35091,0.19979 0.80984,0.36763 1.19933,0.46265c0.2966,0.07236 0.91293,-0.67261 0.83465,-0.37752c-0.12845,0.48421 -0.80132,0.6522 -1.02586,1.10001c-1.02117,2.03649 -0.99681,3.40871 -2.75059,5.16068c-1.02754,1.02648 -2.62802,1.56925 -3.30435,2.95427c-0.52399,1.07304 0.26008,2.38074 0.35458,3.57114c0.06097,0.76799 -0.81134,1.31619 -1.24036,1.95609c-0.99231,1.9791 -1.65267,4.20026 -2.97723,5.98617c-0.44231,0.59637 -0.79285,1.53956 -1.53047,1.62453c-2.10866,0.2429 -1.5849,-3.04743 -4.51426,-3.05916c-1.4916,-0.00598 -2.68446,1.91149 -4.15847,1.68306c-0.44688,-0.06925 -0.52532,-0.7388 -0.82533,-1.07717c-1.3508,-1.52353 -3.08966,-2.85251 -4.37569,-4.11808c-0.46426,-0.45687 0.15224,-1.39231 0.26779,-2.03334c0.15396,-0.85416 0.3861,-1.69679 0.45643,-2.56187c0.11166,-1.37339 -0.87357,-2.63731 -1.88343,-3.57477c-0.82538,0.23681 -1.77992,0.23314 -2.49624,0.70666c-2.06739,1.36664 -1.40321,5.02891 -4.05895,6.11305c-0.94597,0.38617 -1.22105,-0.41122 -2.00652,-0.6901c-1.23193,-0.43738 -3.38874,0.02918 -4.43255,-0.81067c-0.56818,-0.45716 -0.82097,-1.26542 -1.43328,-1.66152c-1.09717,-0.70975 -3.69743,-0.06385 -4.40325,-1.16889c-0.70976,-1.1112 -0.73935,-2.36738 -0.85605,-3.61803c0.23796,-0.18037 0.43503,-0.48195 0.43503,-0.97877z" fill="#ffae00" stroke-width="0.25"></path>
      <path d="M235.27812,196.15056c0.14675,0.33328 0.24925,0.66698 0.31041,0.99653c0.1692,0.09252 0.31525,0.20788 0.43257,0.34767c1.16377,1.38668 0.91811,2.44135 0.1291,3.22972c-0.02481,1.70808 -1.18681,2.76693 -3.5364,3.48879l-0.57786,0.04809c0,0 -1.25,0 -1.25,-1.25c0,-0.19292 0.02978,-0.35607 0.08014,-0.49404c-0.39293,-0.01244 -0.78099,-0.03384 -1.12814,-0.13042c0.14854,0.1787 0.29325,0.35093 0.43347,0.51438c0,0 0.81348,0.94907 -0.13559,1.76256c-0.94907,0.81348 -1.76256,-0.13559 -1.76256,-0.13559c-1.11424,-1.30111 -2.61412,-3.4327 -3.96352,-4.46197c-0.92558,-0.706 -2.1025,-1.14924 -2.80999,-2.07368c-0.4569,-0.59701 -1.4455,-1.14045 -1.26169,-1.86941c0.26316,-1.04361 1.53603,-1.50803 2.30359,-2.2625c0.76612,-0.75306 1.10127,-1.88562 1.90225,-2.60149c0.42518,-0.38 1.07822,-0.37471 1.60194,-0.6003c0.73445,-0.31635 1.434,-1.33815 2.16947,-1.02417c1.00498,0.42902 0.53231,2.52573 1.56604,2.87991c0.67792,0.23227 2.54191,-0.03188 3.03054,0.22587c0.97869,0.51626 1.58366,1.51517 1.99495,2.60255c0.17434,0.2251 0.33267,0.4927 0.47129,0.80751z" fill="#b14400" stroke-width="0.5"></path>
      <path d="M254.56114,184.85336c0.60503,0.71504 0.22089,1.34765 -0.00971,1.61986c0.02886,2.06228 -0.39764,4.50188 -1.12174,5.33726c2.73523,0.82696 4.99333,3.58823 5.4038,6.59327c0.11117,0.81387 0.02195,3.01016 -0.36364,3.77279c-0.10031,0.19839 -1.51595,1.0436 -1.29022,1.77399c0.0982,0.31775 0.35062,0.672 0.65161,1.05082c0.18206,0.11045 0.34946,0.28391 0.45033,0.55497c0.76758,0.94834 1.52624,2.00313 0.86237,3.0045c-0.50163,0.75665 -1.72468,0.56757 -2.58702,0.85135c-2.61967,0.20183 -5.9018,1.20608 -8.481,0.41955c-1.02045,-0.31119 -1.75136,-1.23752 -2.71606,-1.69303c-2.16839,-1.02387 -3.12079,-2.05648 -2.59605,-4.88143c0.10868,-0.58506 0.37679,-1.12611 0.60437,-1.67887c0.02515,-0.07172 0.05414,-0.14426 0.08673,-0.21752c0.02209,-0.0576 0.04347,-0.1154 0.06392,-0.17347c0.41342,-1.17425 0.79407,-2.20552 1.34613,-3.25958c-0.18224,-0.65574 0.35513,-1.1931 0.35513,-1.1931c1.01464,-0.99546 1.49293,-2.38486 2.44752,-3.40719c-1.14363,0.03398 -2.2876,0.03626 -3.19189,0.11125c-3.25703,0.56217 -8.76937,-0.91304 -7.31845,-4.64636c-0.05576,-0.25195 -0.03308,-0.45606 -0.03308,-0.45606c0.47119,-3.82115 3.33127,-6.42105 7.49059,-5.03663c1.18145,0.39324 1.73594,1.36332 3.05608,0.91536c2.20022,-0.74661 3.9293,-3.49883 6.24672,-0.69198c0.20405,0.24715 0.35572,0.64764 0.45959,1.14395c0.06184,0.05289 0.12332,0.11463 0.18398,0.18631zM251.31048,189.2387l-0.07349,0.01843l0.01524,0.02285l-1.39258,0.92839c-0.20119,0.1384 -0.44494,0.21942 -0.7076,0.21942c-0.44482,0 -0.83537,-0.23235 -1.05692,-0.58229c-0.15479,0.0655 -0.30915,0.12749 -0.46568,0.18692l0.09296,0.16268l-0.81,0.46285c0.56332,-0.06241 1.12723,-0.11702 1.69301,-0.1486c0.94694,-0.05285 2.32736,0.58366 2.83701,-0.21617c0.19855,-0.3116 0.3512,-0.88481 0.45457,-1.54966c-0.19548,0.1651 -0.39099,0.33016 -0.58653,0.49518zM247.23612,186.78048l-0.05412,0.21294c0.02958,-0.00221 0.05945,-0.00338 0.08957,-0.0035l0.09453,-0.2127c-0.04352,0.00175 -0.08685,0.00282 -0.12998,0.00325zM243.71495,191.0223c0.05107,-0.00571 0.10146,-0.01185 0.15108,-0.0184c-0.01197,-0.01947 -0.02342,-0.03928 -0.03433,-0.05944zM240.83802,190.86365c0.34784,0.09389 0.74392,0.15462 1.15308,0.18641c-0.17189,-0.15285 -0.30131,-0.35242 -0.36836,-0.57878zM242.44703,185.63644c0.00244,0.00203 0.00487,0.00406 0.0073,0.00611l0.00801,-0.0048c-0.0051,-0.00044 -0.0102,-0.00088 -0.0153,-0.0013zM250.55811,206.06215l-0.05683,0.01918l0.01077,0.01516l-1.83033,1.29995c0.04581,0.01786 0.09233,0.03424 0.13963,0.049c1.59389,0.49728 3.75081,0.05828 5.64466,-0.26679c-0.23934,-0.89993 -0.00225,-2.30436 -0.69381,-2.71002l-0.76919,0.90758c0,0 -0.83398,0.69893 -1.59783,0.01446c-0.31302,0.2349 -0.59953,0.45914 -0.84708,0.67148zM245.40016,205.01249l-0.03831,0.03956c-0.10195,0.10555 -0.22232,0.19319 -0.35593,0.25776c0.036,0.20781 0.12289,0.38896 0.28927,0.52057c0.19802,0.15665 0.48661,0.03658 0.7556,-0.00091c-0.26356,-0.21339 -0.47908,-0.49637 -0.65063,-0.81698zM251.6913,194.52286c0.13375,-0.01576 0.27001,-0.01461 0.40917,0.00709c0.14701,0.02292 0.29026,0.06413 0.42882,0.1209c0.18013,-0.10062 0.38772,-0.15796 0.6087,-0.15796c0.69036,0 1.25,0.55964 1.25,1.25c0,0.19407 -0.04422,0.3778 -0.12315,0.54168l-0.07163,0.15758c0.0241,0.055 0.0468,0.11016 0.06806,0.16531c0.3265,-0.20413 0.59961,-0.34451 0.79084,-0.39682c0.09745,-0.02666 0.19968,-0.05159 0.30525,-0.07397c-0.35496,-0.53298 -0.74553,-0.98335 -1.1129,-1.28428c-1.04901,-0.85929 -1.9677,-1.01845 -2.78986,-0.77333c0.08332,0.12949 0.16241,0.27696 0.23669,0.4438zM255.18483,202.54216c0.0174,0.00918 0.03461,0.01858 0.05163,0.02821c0.0308,-0.0517 0.06236,-0.10324 0.09454,-0.1546c-0.04834,0.04226 -0.09708,0.08439 -0.14617,0.12639z" fill="#b14400" stroke-width="0.5"></path>
      <path d="M256.34287,202.07349c0,-0.86454 0.59795,-1.13114 0.96672,-1.21335c1.04106,-2.30362 -1.91988,-2.98881 -3.10494,-4.6636c-0.69463,-0.98169 -1.59058,-4.22547 -3.66613,-3.27289c-1.36568,0.62678 -2.94306,3.77456 -3.92738,5.00689c0,0 -0.78086,0.97609 -1.75695,0.19523c-0.97609,-0.78086 -0.19523,-1.75695 -0.19523,-1.75695c0.53694,-0.67007 1.16783,-1.67009 1.86215,-2.65896c-0.80044,-0.00417 -1.61076,0.14274 -2.36652,0.40526c0,0 -0.65941,0.2198 -1.15869,-0.16013c-3.5481,0.97723 -7.48317,0.53872 -6.80822,-4.45773c0.21145,-1.56532 1.42096,-3.40144 1.9309,-4.93515c0,0 0.39528,-1.18586 1.58114,-0.79058c1.18586,0.39528 0.79058,1.58114 0.79058,1.58114c-0.37212,1.11376 -3.09279,5.98706 -1.18846,7.01045c0.47643,0.25603 3.02666,-1.00997 3.45277,-1.11593c0.76824,-0.19104 1.56652,-0.37624 2.23734,-0.79659l0.22817,-0.28095c0,0 0.88388,-0.88388 1.76777,0c0.45351,0.45351 0.44164,0.90701 0.32256,1.24113l0.36117,0.09816c0,0 0.20405,0.06802 0.41466,0.23227c0.50332,-0.52412 1.02452,-0.93966 1.55505,-1.15101c3.47791,-1.38549 5.31854,2.01449 6.65045,4.23009c0.37241,0.6195 1.3235,0.63359 1.85426,1.12426c2.10042,1.94175 2.29929,4.44774 0.98765,6.77206l-1.54079,0.60688c0,0 -1.25,0 -1.25,-1.25z" fill="#712c00" stroke-width="0.5"></path>
      <path d="M243.45116,203.2323c1.18586,0.39528 0.79058,1.58113 0.79058,1.58113l-0.18733,0.10264c-0.06352,0.21951 -0.12704,0.43901 -0.19056,0.65852c3.21522,-1.33733 6.41752,1.38903 9.44751,1.82607c1.12701,0.16255 2.7394,1.28319 3.39762,0.35403c0.14208,-0.20057 -0.13267,-0.48328 -0.11465,-0.72841c0.19242,-2.61682 -1.31105,0.56742 -3.85445,-0.82658c-0.61949,-0.33953 -1.8807,-2.36098 -2.28323,-2.9639c0,0 -0.69337,-1.04007 0.3467,-1.73344c1.04007,-0.69337 1.73344,0.3467 1.73344,0.3467c0.48765,0.73263 0.7644,1.666 1.46822,2.19438c0.8686,0.65208 2.67937,-1.14781 3.87745,-0.52566c3.15184,1.63673 1.10499,6.35358 -1.68186,6.60517c-2.87223,0.2593 -4.99948,-1.26721 -7.60584,-1.91806c-1.97621,-0.49349 -4.31586,-0.44194 -6.34684,-0.72275c-0.21983,-0.71836 -0.43966,-1.43672 -0.65949,-2.15508l0.2816,-1.30418c0,0 0.39528,-1.18586 1.58113,-0.79058z" fill="#712c00" stroke-width="0.5"></path>
      <path d="M254.31032,189.7244c-1.25,0 -1.25,-1.25 -1.25,-1.25l0.01614,-1.20659c-0.10341,-0.29769 -0.62308,-2.70519 -1.03717,-2.76584c-1.26407,-0.18515 -2.36183,1.44261 -3.31548,1.83128c-1.73469,0.707 -2.12071,0.30617 -3.71853,-0.19c0,0 -1.18586,-0.39528 -0.79058,-1.58113c0.39528,-1.18586 1.58113,-0.79058 1.58113,-0.79058c3.11996,1.14923 5.81265,-4.20869 8.63992,-0.17472c0.12934,0.18454 1.02785,3.02088 1.10842,3.27054l0.01614,1.60704c0,0 0,1.25 -1.25,1.25z" fill="#712c00" stroke-width="0.5"></path>
      <path d="M232.03594,200.74435c-0.63254,0 -0.945,-0.32009 -1.09934,-0.63631l-0.75477,0.30191c-0.15062,0.06433 -0.31643,0.09994 -0.49057,0.09994c-0.69036,0 -1.25,-0.55964 -1.25,-1.25c0,-0.17413 0.03561,-0.33994 0.09993,-0.49056l0.10656,-0.26639c-0.68896,0.16553 -1.37759,0.32965 -1.95059,-0.00045c-0.48933,-0.2819 0.98469,-1.3529 0.48835,-1.62227c-0.62634,-0.33991 -1.3158,1.08133 -1.97662,0.81459c-0.23108,-0.09328 -0.09854,-0.42181 0.04854,-0.75481l-0.51455,0.32159c-0.19548,0.12667 -0.42857,0.20022 -0.67884,0.20022c-0.69036,0 -1.25,-0.55964 -1.25,-1.25c0,-0.18469 0.04006,-0.36003 0.11195,-0.5178l0.69251,-1.61586c0,0 0.4924,-1.14893 1.64133,-0.65653c0.40176,0.17218 0.60282,0.42465 0.69442,0.68019c0.17848,-0.13414 0.37127,-0.20525 0.59147,-0.15564c0.56096,0.12639 -0.39421,1.47325 0.12493,1.72053c0.69837,0.33265 1.57909,-0.98789 2.2438,-0.59223c0.20867,0.12421 -1.00793,3.03689 -0.14529,0.91024l2.65824,-0.50033c-0.00939,0.33438 -0.01877,0.66876 -0.02816,1.00314l0.22173,-0.22173c0.22621,-0.2262 0.5387,-0.36611 0.88388,-0.36611c0.69036,0 1.25,0.55964 1.25,1.25c0,0.11436 -0.01536,0.22513 -0.04412,0.33036l-0.46214,1.84855l0.03732,0.16576c0,0 0,1.25 -1.25,1.25z" fill="#953900" stroke-width="0.5"></path>
      <path d="M250.50486,188.65488c-0.40508,0.40508 -0.81015,0.43887 -1.13015,0.35661c-1.48602,0.92762 -3.21834,1.99533 -3.59253,0.29926c-0.88999,0.1689 -1.80437,0.73349 -2.66764,0.469c-0.22029,-0.06749 -0.12358,-0.40412 -0.03848,-0.72315l-0.74814,0.46758c-0.19548,0.12666 -0.42857,0.20022 -0.67884,0.20022c-0.11037,0 -0.2174,-0.0143 -0.31934,-0.04116c-0.29448,0.11086 -0.67602,0.11874 -1.1106,-0.19167c-1.01717,-0.72654 -0.29062,-1.74371 -0.29062,-1.74371l1.16265,-1.62772c0.22579,-0.32457 0.60151,-0.53701 1.02685,-0.53701c0.56624,0 1.04454,0.3765 1.19822,0.89281c0.21156,-0.19971 0.44255,-0.33608 0.7223,-0.31342c0.75964,0.06153 0.1423,2.45732 0.47038,1.0141l1.99033,-1.06039c0.15885,0.58394 0.01584,1.35943 0.47654,1.75182c0.57274,0.48781 1.12408,-1.01367 1.7676,-1.40338l1.76146,0.42245c0,0 0.88388,0.88388 0,1.76777z" fill="#953900" stroke-width="0.5"></path>
      <path d="M250.61004,199.62804c0.02399,-0.04513 0.04883,-0.09032 0.07411,-0.13532c0.00264,-0.23137 0.02004,-0.48065 -0.11717,-0.59786l-0.12037,0.06018c0.02791,0.15575 0.14553,0.45096 0.16343,0.673zM256.06214,198.20042c0.28267,0.21472 0.4809,0.45467 0.5411,0.71503l0.12177,0.01353l-0.08426,0.75838l0.0749,0.01248l-0.23109,1.38653c-0.0895,0.60252 -0.60895,1.06477 -1.23637,1.06477c-0.64161,0 -1.17032,-0.4834 -1.24178,-1.10587c-1.13392,0.41644 -3.17817,0.00623 -3.55324,-0.39388c-0.10575,-0.11281 -0.11803,-0.2735 -0.07571,-0.45805c-0.31808,0.48697 -0.75884,0.89631 -1.15765,1.33485c-0.01036,0.08212 -0.0287,0.16176 -0.0542,0.23812c0.3061,0.04497 0.63671,0.21949 0.86999,0.68603c0.55902,1.11803 -0.55902,1.67705 -0.55902,1.67705l-0.716,0.32698l-1.16456,0.93165c-0.21512,0.17514 -0.48962,0.28014 -0.78865,0.28014c-0.69036,0 -1.25,-0.55964 -1.25,-1.25c0,-0.14845 0.02588,-0.29086 0.07337,-0.42296l0.27412,-0.82238c-0.21524,-0.22455 -0.3475,-0.52926 -0.3475,-0.86486c0,-0.34518 0.13991,-0.65768 0.36612,-0.88388l0.87231,-0.87231c0.31967,-0.47876 0.9422,-1.39006 1.62475,-2.24145c-0.09869,-0.04871 -0.20003,-0.11437 -0.30321,-0.20035c-0.96028,-0.80023 -0.16004,-1.76051 -0.16004,-1.76051c0.46597,-0.53929 0.93194,-1.07858 1.39791,-1.61786l0.31655,-0.03405l-0.0461,-0.11525l1.14602,-0.45842c0.15062,-0.06433 0.31643,-0.09994 0.49057,-0.09994c0.69036,0 1.25,0.55964 1.25,1.25c0,0.20994 -0.05176,0.4078 -0.14321,0.5815l-0.17382,0.34764c0.40373,0.09042 0.73134,0.45065 0.89175,0.91942c0.74009,0.10468 1.71179,0.3692 2.44917,0.75156c0.23529,-0.02211 0.4703,-0.04559 0.70347,-0.07786z" fill="#953900" stroke-width="0.5"></path>
      <path d="M232.1136,200.19776c0,1.25 -1.25,1.25 -1.25,1.25h-1.51023c1.02285,0.5284 2.17781,2.23003 2.74688,1.37291c0.22467,-0.33838 -0.15096,-0.87855 0.07478,-1.21621c0.689,-1.03066 2.12474,-1.19125 2.36962,-2.71337c0.10203,-0.63418 -2.13371,-4.30368 -2.58909,-4.75359c-0.33374,-0.32973 -3.90251,0.35801 -4.402,0.0403c-0.93252,-0.59317 -0.93895,-2.00585 -1.51331,-2.95008c0,0 -0.64312,-1.07186 0.42874,-1.71499c1.07186,-0.64312 1.71499,0.42874 1.71499,0.42874c0.40131,0.67643 0.21246,1.72288 0.83136,2.20823c0.54545,0.42775 3.3587,-0.74789 4.50777,0.0403c0.46697,0.32031 0.46219,1.03834 0.76517,1.51674c1.06164,1.67633 2.87982,3.30448 2.74189,5.45304c-0.12935,2.01492 -1.9667,2.61531 -2.78865,3.85168c-0.30363,0.45672 0.05039,1.27624 -0.39417,1.59742c-2.80961,2.02984 -4.24618,-1.1217 -6.59854,-0.5858c-3.72888,-1.17989 -4.43525,-3.48334 -6.70511,-6.28528c-0.43688,-0.53929 -1.37734,-0.80227 -1.45203,-1.49229c-0.24559,-2.26901 1.39803,-2.7626 2.80683,-3.60621l1.0472,-1.06284c0,0 0.88388,-0.88388 1.76777,0v-0.00002c0.88388,0.88388 0,1.76777 0,1.76777l-1.29748,1.28184c-0.6374,0.34328 -2.31954,0.50597 -1.88252,1.08314c1.40588,1.85671 3.52644,4.95148 5.9109,5.82154c0.38582,-0.04702 0.77962,-0.2014 1.16434,-0.2336c-0.26208,-0.12789 -0.52682,-0.36438 -0.60983,-0.80166l-1.59958,-0.08074c-1.12186,-1.0632 -2.15612,-2.29675 -2.78078,-3.71053c0,0 -0.4924,-1.14893 0.65653,-1.64133c1.14893,-0.4924 1.64133,0.65653 1.64133,0.65653c0.3534,0.85892 0.82128,1.6926 1.43963,2.38563l0.92845,-0.09515c0,0 1.03213,0 1.22063,0.93787h1.35851c0,0 1.25,0 1.25,1.25z" fill="#712c00" stroke-width="0.5"></path>
      <path d="M241.1025,188.00546c0,-0.69036 0.55964,-1.25 1.25,-1.25c0.69036,0 1.25,0.55964 1.25,1.25c0,0.69036 -0.55964,1.25 -1.25,1.25c-0.69036,0 -1.25,-0.55964 -1.25,-1.25z" fill="#712c00" stroke-width="0.5"></path>
      <path d="M249.691,201.46652c0.13804,1.24235 -1.10432,1.38039 -1.10432,1.38039l-2.11021,0.23446c0,0 -1.24235,0.13804 -1.38039,-1.10432c-0.13804,-1.24235 1.10432,-1.38039 1.10432,-1.38039l2.11021,-0.23446c0,0 1.24235,-0.13804 1.38039,1.10432z" fill="#712c00" stroke-width="0.5"></path>
      <path d="M253.20309,199.08311c0.17677,1.23744 -1.06066,1.41421 -1.06066,1.41421l-1.64126,0.23446c0,0 -1.23744,0.17677 -1.41421,-1.06066c-0.17677,-1.23744 1.06066,-1.41421 1.06066,-1.41421l1.64126,-0.23446c0,0 1.23744,-0.17677 1.41421,1.06066z" fill="#712c00" stroke-width="0.5"></path>
      <path d="M224.37215,196.22532c-1.05887,-0.35297 -0.85708,-1.33625 -0.80172,-1.54278c-0.19545,0.12662 -0.4285,0.20013 -0.67872,0.20013c-0.5593,0 -1.03281,-0.36733 -1.19243,-0.8739c-0.18156,0.15496 -0.36816,0.30769 -0.56078,0.45846c-0.30051,0.54618 -0.56633,1.14261 -0.81241,1.9054c0,0 -0.39528,1.18585 -1.58114,0.79057c-1.18585,-0.39528 -0.79057,-1.58114 -0.79057,-1.58114c0.14551,-0.42524 0.29411,-0.8081 0.44848,-1.16317c-0.17395,-0.21476 -0.27816,-0.48832 -0.27816,-0.78622c0,-0.69036 0.55964,-1.25 1.25,-1.25c0.03995,0 0.07946,0.00187 0.11845,0.00554c0.3457,-0.54791 0.729,-1.10659 1.16579,-1.76239l0.68017,-1.13363c0.21591,-0.37447 0.62035,-0.62653 1.08365,-0.62653c0.15061,0 0.295,0.02664 0.42871,0.07546c0.47418,-0.47848 0.93623,-0.93728 1.29095,-1.37435l0.16805,-0.06036l-0.03512,-0.04917l1.62944,-1.16388c0.20689,-0.1517 0.46217,-0.24129 0.73838,-0.24129c0.69036,0 1.25,0.55964 1.25,1.25c0,0.22847 -0.06129,0.44262 -0.16833,0.62691l-1.16131,2.09034l-0.22885,-0.12714c-0.05746,0.13572 -0.11627,0.27044 -0.17676,0.40545c0.08102,-0.0165 0.16489,-0.02516 0.25078,-0.02516c0.69036,0 1.25,0.55964 1.25,1.25c0,0.23358 -0.06407,0.45219 -0.17558,0.63923l-0.92697,1.62222l-0.03241,-0.01852c-0.10744,0.34945 -0.22629,0.69503 -0.36124,1.03493l-0.20922,0.63445c0,0 -0.3953,1.18585 -1.58115,0.79055z" fill-opacity="0.41961" fill="#ff0000" stroke-width="0.5"></path>
      <path d="M233.28594,199.02543c0,1.25 -1.25,1.25 -1.25,1.25l-0.29216,-0.01256c-0.54709,0.07815 -1.09418,0.15631 -1.64127,0.23446c0,0 -0.27129,0.03876 -0.57797,-0.04705l0.67388,0.84234c0,0 0.78087,0.97608 -0.19521,1.75696c-0.97608,0.78087 -1.75696,-0.19521 -1.75696,-0.19521l-0.93787,-1.17234c0,0 -0.09438,-0.11797 -0.1765,-0.3047c-0.62594,0.28 -1.23868,-0.17957 -1.23868,-0.17957l-1.16395,-0.92254c-0.90175,-1.14023 -1.07241,-1.74528 -2.54092,-1.64108c0,0 -1.25,0 -1.25,-1.25c0,-1.25 1.25,-1.25 1.25,-1.25c2.31881,0.08975 3.06144,0.80679 4.49309,2.57934l0.71179,0.48428c0,0 0.26673,0.20005 0.42136,0.53127c0.36794,-0.17107 0.69505,-0.11203 0.94468,0.00602c-0.031,-0.08897 -0.05519,-0.18806 -0.07095,-0.29839c-0.17677,-1.23744 1.06066,-1.41421 1.06066,-1.41421c0.54709,-0.07815 1.09418,-0.15631 1.64127,-0.23446l0.64571,-0.01256c0,0 1.25,0 1.25,1.25z" fill-opacity="0.41961" fill="#ff0000" stroke-width="0.5"></path>
      <path d="M242.25422,185.25246c0.33567,-0.18377 0.89338,-0.32986 1.45108,0.22785c0.88388,0.88388 0,1.76777 0,1.76777l-1.44029,1.24436c-0.63729,-0.15863 -1.41506,-0.08776 -2.04611,-0.25659c-0.1384,0.05281 -0.2886,0.08174 -0.44555,0.08174c-0.51396,0 -0.95547,-0.31019 -1.14754,-0.75356c-0.26948,0.60026 -0.33199,1.07076 0.18626,2.05924c0,0 0.49241,1.14893 -0.65652,1.64133c-1.14893,0.49241 -1.64133,-0.65652 -1.64133,-0.65652c-0.95246,-2.52614 -0.45628,-3.14292 0.51158,-5.52922l0.10011,-0.08885l-0.03389,-0.02259l0.92712,-1.39067c0.22257,-0.34462 0.61005,-0.57275 1.05082,-0.57275c0.40051,0 0.75702,0.18836 0.98579,0.48132l0.02047,-0.01775l-0.01409,-0.00704l0.69128,-1.38258c0.20043,-0.42281 0.63114,-0.71521 1.13015,-0.71521c0.69036,0 1.25,0.55964 1.25,1.25c0,0.16467 -0.03184,0.3219 -0.0897,0.46588l-0.69328,1.84875l-0.00341,-0.00128c-0.00047,0.00466 -0.00095,0.00932 -0.00143,0.01398c-0.00891,0.08618 -0.0425,0.19489 -0.09151,0.31241z" fill-opacity="0.41961" fill="#ff0000" stroke-width="0.5"></path>
      <path d="M244.86924,191.32764c0.19483,-1.23472 1.42955,-1.0399 1.42955,-1.0399l1.38882,0.22301c2.39919,0.14106 2.59713,-0.47289 3.6302,-2.60232c0.3044,-0.62744 0.60322,-1.26257 0.81352,-1.92749c0.0733,-0.23176 0.20454,-0.90572 0.03847,-0.72821c-1.44933,1.54915 -2.75784,2.19253 -4.78457,2.78229c0,0 -1.20191,0.3434 -1.5453,-0.85851c-0.3434,-1.20191 0.85851,-1.5453 0.85851,-1.5453c1.55826,-0.43543 3.83293,-2.65738 5.06305,-2.84491c4.21489,-0.64253 2.57245,4.54546 1.80863,6.2071c-1.48702,3.23493 -2.59392,3.88627 -6.07793,4.0097l-1.58305,-0.24591c0,0 -1.23472,-0.19483 -1.0399,-1.42955z" fill-opacity="0.41961" fill="#ff0000" stroke-width="0.5"></path>
      <path d="M248.40205,205.05944c1,-0.75 1.75,0.25 1.75,0.25l-0.29661,0.43785c0.63068,0.00115 1.24353,-0.01768 1.84668,-0.04494c-0.03164,-0.10997 -0.0486,-0.22617 -0.0486,-0.34632c0,-0.23458 0.06461,-0.45406 0.17702,-0.64163l1.04757,-1.8233l0.00288,0.00165l0.00306,-0.01188c0.22526,-0.37473 0.43255,-0.77159 0.63179,-1.17937c-1.30249,1.12004 -2.69121,1.76475 -3.84088,0.78693c-0.14341,-0.12197 -0.26026,-0.25417 -0.35318,-0.39462c-1.04754,1.05926 -2.17143,1.78861 -3.10424,1.31622c-0.19249,-0.09748 -0.35265,-0.21485 -0.48394,-0.34841c-0.35683,0.78352 -0.71297,1.56741 -1.07383,2.34929c0,0 -0.52382,1.13495 -1.65877,0.61113c-1.13495,-0.52382 -0.61113,-1.65877 -0.61113,-1.65877c0.94525,-2.04802 1.85966,-4.10892 2.83603,-6.14225l0.02318,-0.02427l-0.00803,-0.00438l1.18497,-2.17245c0.20835,-0.40033 0.62701,-0.67373 1.10953,-0.67373c0.69036,0 1.25,0.55964 1.25,1.25c0,0.0561 -0.0037,0.11133 -0.01086,0.16547l-0.23751,2.01067c0.78421,-0.93064 1.66133,-1.80488 1.82031,-1.97589l0.98976,-1.67068c0.21498,-0.37798 0.62137,-0.6329 1.08731,-0.6329c0.69036,0 1.25,0.55964 1.25,1.25c0,0.19407 -0.04422,0.3778 -0.12315,0.54168l-0.98924,2.17632c-0.02667,0.15711 -0.05473,0.34319 -0.08798,0.54028c1.14167,-1.31489 2.76996,-2.92198 2.90575,-3.05653l1.48746,-1.71769c0.22926,-0.26777 0.56977,-0.43746 0.94992,-0.43746c0.69036,0 1.25,0.55964 1.25,1.25c0,0.14845 -0.02588,0.29086 -0.07337,0.42297l-0.78134,2.34403l-0.31586,-0.10529c-0.19786,0.81152 -0.447,1.57839 -0.75156,2.33851c0.01383,-0.01364 0.02758,-0.02729 0.04124,-0.04095l1.15381,-1.15381c0.22621,-0.22621 0.53871,-0.36612 0.88388,-0.36612c0.69036,0 1.25,0.55964 1.25,1.25c0,0.2933 -0.10101,0.563 -0.27015,0.77622l-1.42306,1.82966c-0.39131,0.94699 -0.8443,1.87786 -1.3276,2.52137c0.52543,0.14789 0.9106,0.63065 0.9106,1.20337c0,0.49901 -0.2924,0.92972 -0.71521,1.13015l-1.38258,0.69128l-0.14267,-0.28535l-0.5821,0.14552l-0.05321,-0.21283l-0.4382,0.29793c-0.01241,-0.05953 -0.02445,-0.11917 -0.03612,-0.1789c-1.31656,0.85595 -3.51055,0.59735 -5.1684,0.60005l-1.70339,-1.43785c0,0 -0.75,-1 0.25,-1.75z" fill-opacity="0.41961" fill="#ff0000" stroke-width="0.5"></path>
      <path d="M219.9213,197.14968c0,0.49682 -0.19747,0.79618 -0.43543,0.97655c0.1167,1.25065 0.14363,2.49799 0.85339,3.60919c0.70582,1.10504 3.3024,0.45184 4.39957,1.16159c0.61231,0.3961 0.86133,1.19901 1.42951,1.65617c1.04381,0.83985 3.19182,0.36478 4.42375,0.80216c0.78547,0.27888 1.05427,1.07223 2.00024,0.68606c2.65574,-1.08414 1.98682,-4.74867 4.05421,-6.11531c0.71632,-0.47352 1.65077,-0.47362 2.47615,-0.71043c1.00986,0.93746 2.00729,2.3001 1.89563,3.67349c-0.07033,0.86508 -0.30689,1.70852 -0.46085,2.56268c-0.11555,0.64103 -0.74355,1.47715 -0.27929,1.93402c1.28603,1.26557 3.0142,2.59677 4.365,4.1203c0.30001,0.33837 0.37735,1.00829 0.82423,1.07754c1.47401,0.22843 2.65665,-1.68409 4.14825,-1.67811c2.92936,0.01173 2.40202,3.30456 4.51068,3.06166c0.73762,-0.08497 1.08474,-1.0253 1.52705,-1.62167c1.32456,-1.78591 1.97623,-3.9966 2.96854,-5.9757c0.42902,-0.6399 1.29891,-1.18374 1.23794,-1.95173c-0.0945,-1.1904 -0.88123,-2.49154 -0.35724,-3.56458c0.67633,-1.38502 2.27495,-1.92004 3.30249,-2.94652c1.75378,-1.75197 1.72889,-3.11377 2.75006,-5.15026c0.22454,-0.44781 0.89755,-0.61392 1.026,-1.09813c0.07828,-0.29509 -0.5381,0.44932 -0.8347,0.37696c-0.38949,-0.09502 -0.74884,-0.27191 -1.09975,-0.4717c-0.5225,1.53863 -2.66592,3.13038 -4.42074,1.78028c-0.77373,-0.59528 -0.2082,-3.54481 -0.12382,-4.30615c0.51509,-4.64739 0.98336,-9.28209 1.39557,-13.94753c0.00083,-0.00939 -0.00675,-0.3082 0.00861,-0.72405c-0.1417,0.49636 -0.20842,1.01891 -0.42666,1.48567c-0.83348,1.78256 -2.25135,3.59945 -3.41839,5.16466c-1.37425,0.57385 -5.07094,1.6239 -6.45176,1.40565c-0.87448,-0.13822 -1.23897,-1.74931 -2.11312,-1.60906c-1.98404,0.31832 -3.97315,1.69682 -6.11306,0.81573c-0.95284,-0.39233 -1.06412,-2.00722 -2.04708,-2.31645c-1.37154,-0.43147 -2.54882,0.67984 -3.87846,0.55662c-1.76212,-0.1633 -3.08045,-2.02924 -4.80427,-2.36274c-1.35405,-0.26196 -2.84366,0.27857 -4.18624,0.33158c-0.20724,0.00818 0.4209,0.03512 0.61083,0.11843c0.3803,0.16682 0.75497,0.36307 1.07899,0.6228c0.47094,0.3775 0.85797,0.84914 1.28696,1.27371c0.36584,0.37788 0.73169,0.75576 1.09753,1.13364l0.02919,0.25901l0.08785,-0.03514l0.45841,1.14602c0.06433,0.15062 0.09993,0.31643 0.09993,0.49056c0,0.69036 -0.55964,1.25 -1.25,1.25c-0.17413,0 -0.33994,-0.03561 -0.49056,-0.09993l-2.12708,-0.85084c-2.08683,-0.27695 -3.74788,-0.22071 -6.3567,0.6491c-0.95308,0.31777 -4.82858,1.06754 -3.78768,1.93236l1.00694,0.40278c0.47473,0.17726 0.81279,0.63486 0.81279,1.17141c0,0.52567 -0.32449,0.97556 -0.78409,1.16028l-1.61479,0.69204l-0.11067,-0.25823c-0.82837,0.41444 -1.69951,0.71811 -2.60322,0.82216c-0.82788,0.09532 -2.35647,-0.84937 -2.49988,-0.02845c-0.07152,0.40935 0.66435,0.71216 0.55922,1.1142c-0.19594,0.74932 -0.76476,1.38203 -1.34587,1.89407c-0.19057,0.16792 -0.87731,-0.2634 -0.76105,-0.03757c0.29863,0.58008 3.44313,2.17383 3.94756,2.53408l0.3014,0.13359c0,0 0.2346,0.1173 0.43514,0.35189c0.21901,-0.02535 0.38368,0.0021 0.38368,0.0021c0.1811,0.03018 0.36219,0.06036 0.54329,0.09055c0.1224,-0.11048 0.28433,-0.20691 0.4972,-0.27787c0.74858,-0.24953 1.18213,0.13101 1.40008,0.44558c0.36989,0.08687 0.9486,0.35868 0.9486,1.2092zM216.12114,198.14821c0,0 -0.48738,-0.08123 -0.79822,-0.44797c-0.39393,0.03091 -0.72762,-0.13593 -0.72762,-0.13593l-0.63647,-0.33533c-1.56693,-1.11943 -4.83947,-2.69714 -4.96218,-4.96886c-0.05104,-0.94483 2.0471,-0.95112 2.11348,-1.89499c0.04071,-0.57893 -0.70847,-1.22187 -0.37865,-1.6994c0.81712,-1.18307 3.86978,-1.90081 5.90185,-1.74838c-0.42792,-0.44254 -0.81692,-0.89872 -0.85321,-1.47853c-0.09933,-1.58671 2.05209,-2.6139 3.14146,-3.05321c2.53158,-1.02091 5.88517,-2.52837 8.68482,-2.1003c-1.15431,-0.91054 -2.31821,-2.02213 -1.91836,-3.21459c0.60233,-1.79629 5.65836,-2.27177 7.0682,-2.01309c1.49316,0.27397 3.18405,2.2741 4.5744,2.32661c1.52501,0.05759 3.11895,-0.8767 4.56238,-0.38125c1.01449,0.34822 1.18703,1.95142 2.17334,2.37289c1.15714,0.49447 4.29839,-1.04864 5.14137,-1.06c1.02392,-0.01379 1.55907,1.55509 2.57622,1.67346c0.5879,0.06842 1.04165,-0.60842 1.62277,-0.7207c0.89011,-0.17198 1.85602,0.08335 2.71093,-0.21831c0.87339,-1.3054 2.01882,-2.79885 2.67777,-4.21403c0.66083,-1.41921 0.24526,-2.80243 1.59331,-4.04931c0.77345,-0.7154 1.95631,-1.7339 2.89806,-1.26153c0.98411,0.49361 0.78181,2.08084 0.91441,3.17379c0.52565,4.33271 -0.80337,9.97308 -1.38331,14.2989c-0.04913,0.36645 -0.02494,1.52864 -0.13208,2.59733c0.1994,-0.25464 0.39082,-0.43995 0.59665,-0.58978l-0.00838,-0.00838l0.93787,-0.93787l0.3325,0.3325c0.33574,-0.13341 0.72973,-0.29065 1.20855,-0.51193l-0.0054,1.28057l0.53409,0.17803l-0.10777,0.3233c3.36202,-0.91622 2.2868,1.85315 1.74509,3.90878c-0.65302,2.47805 -1.49498,4.25138 -3.3461,6.10413c-0.83949,0.84023 -2.1644,1.20444 -2.79367,2.21179c-0.34611,0.55406 0.59418,2.17844 0.58065,2.53154c-0.04431,1.15669 -0.98295,2.31268 -1.57566,3.20654c-1.20878,2.42536 -2.85588,8.59407 -6.28991,8.81533c-0.9579,0.06172 -1.99013,-0.17078 -2.79473,-0.69424c-0.87357,-0.56833 -1.04636,-2.51787 -2.07328,-2.34022c-1.65034,0.2855 -3.11536,1.91312 -4.76151,1.60441c-2.26579,-0.4249 -3.36441,-4.1269 -5.07615,-5.32786c-0.44477,-0.31205 -1.15425,-0.27823 -1.45798,-0.72873c-1.63447,-2.42431 1.03522,-4.97976 0.21764,-7.30461c-0.79814,0.5379 -0.7754,1.5245 -1.15631,2.35382c-0.78819,1.71607 -2.14762,3.7887 -4.03671,4.41954c-1.36115,0.45454 -7.39441,-0.95248 -8.5819,-1.79434c-0.58074,-0.4117 -0.81641,-1.19685 -1.38411,-1.62636c-1.7714,-1.34022 -3.20868,0.66868 -4.9979,-1.69897c-1.30666,-1.72909 -1.04265,-3.27945 -1.30912,-4.99409c-0.32037,-0.05339 -0.64073,-0.10679 -0.9611,-0.16018z" fill="#e29a00" stroke-width="0.5"></path>
      <path d="M240.71122,179.72144c1.25,0 1.25,1.25 1.25,1.25l-0.06414,0.86423c-0.30752,0.8358 -0.27042,1.9009 -0.92257,2.50739c-1.87993,1.74835 -3.0923,1.62437 -3.60352,0.75253c-0.22523,0.54475 -0.44364,1.09396 -0.63219,1.66389c0,0 -0.39529,1.18585 -1.58114,0.79057c-0.47101,-0.157 -0.69258,-0.43872 -0.78855,-0.72132c-0.18438,0.46033 -0.63464,0.78547 -1.16084,0.78547c-0.37884,0 -0.71831,-0.16853 -0.94754,-0.4347c-0.02438,-0.01844 -0.04862,-0.03827 -0.07267,-0.05957c0.02895,0.07624 0.05837,0.15418 0.08834,0.2339l0.00042,0.02424l0.00709,-0.00236l0.45971,1.37912c0.04749,0.1321 0.07337,0.27451 0.07337,0.42297c0,0.04547 -0.00243,0.09037 -0.00716,0.13458c0.15474,0.16495 0.31026,0.32914 0.46669,0.49244c0.22628,0.00855 0.40922,0.05961 0.55714,0.13658c-0.034,-0.06818 -0.06805,-0.13637 -0.10216,-0.20458c0,0 -0.55902,-1.11803 0.55902,-1.67705c1.11803,-0.55902 1.67705,0.55902 1.67705,0.55902c0.8248,1.64961 1.61903,3.28859 2.36889,4.97515l0.10774,0.74216c0,0 0,1.25 -1.25,1.25c-0.94575,0 -1.17595,-0.71556 -1.23198,-1.06389c-0.88199,0.87448 -1.76211,-0.00564 -1.76211,-0.00564l-0.23447,-0.23447c-0.54709,-0.54709 -1.09418,-1.09419 -1.64127,-1.64128c0,0 -0.2321,-0.2321 -0.33949,-0.57736c-1.20448,-1.22767 -2.35081,-2.5119 -3.4945,-3.79765c-0.21727,-0.17138 -0.42491,-0.35394 -0.62089,-0.54879l-0.80398,-0.58727c0,0 -0.02001,-0.01501 -0.05225,-0.04361c0.03843,0.09391 0.07588,0.1904 0.11235,0.28959c0,0 0.39528,1.18586 -0.79058,1.58114c-1.18586,0.39528 -1.58114,-0.79058 -1.58114,-0.79058c-0.04101,-0.14785 -0.08747,-0.28531 -0.13914,-0.41365c-1.64883,1.49693 -5.29739,0.61077 -7.08685,0.31349l-0.91285,-0.58357c0,0 -0.88388,-0.88388 0,-1.76777c0.7336,-0.7336 1.46721,-0.24946 1.69546,-0.06362c0.81896,0.09159 1.79428,0.08415 2.6935,0.19409l-0.84601,-0.50761c-0.37446,-0.21591 -0.62652,-0.62035 -0.62652,-1.08365c0,-0.69036 0.55964,-1.25 1.25,-1.25h1.4068v0.12092l0.28719,-0.08748c1.83437,0.88443 3.15096,1.58109 4.0611,3.09059c0.00087,-0.22441 0.07557,-0.47715 0.27891,-0.74828c0.08373,-0.11164 0.17057,-0.20146 0.25879,-0.27296c0.0413,-0.04705 0.08764,-0.09399 0.13947,-0.14065c0.33804,-0.30424 0.66379,-0.37479 0.94144,-0.34144l-0.53988,-1.25971c-0.0719,-0.15777 -0.11195,-0.33311 -0.11195,-0.5178c0,-0.69036 0.55964,-1.25 1.25,-1.25c0.47328,0 0.88513,0.26303 1.09734,0.65089l0.92583,1.6202l-0.18122,0.10356l0.01038,0.02422l-0.0027,0.00116c0.44322,0.55258 0.76367,1.1277 1.10918,1.93124c0.06603,-0.36114 0.31111,-0.62301 0.45697,-0.75083c-0.89068,-2.02573 -2.90511,-4.73026 -3.32291,-6.70952c-1.13301,0.11449 -1.32586,-1.04263 -1.32586,-1.04263l-0.23059,-1.38358c-0.01371,-0.07415 -0.02088,-0.1506 -0.02088,-0.22872c0,-0.69036 0.55964,-1.25 1.25,-1.25c0.47329,0 0.88514,0.26304 1.09734,0.6509l0.92582,1.6202l-0.17008,0.09719c2.00678,2.31444 3.44811,4.90799 4.38621,7.978c0.41836,-1.05383 0.88901,-2.06939 1.25013,-3.16096v-0.00001v0l0.45983,-1.37945c0.15709,-0.51078 0.63267,-0.88205 1.19497,-0.88205c0.61444,0 1.12534,0.44333 1.23027,1.02757l0.26298,1.31491c0.15653,-0.281 0.30456,-0.55651 0.36896,-0.78435l-0.06414,-0.07366c0,0 0,-1.25 1.25,-1.25zM234.34467,191.12556c0.04844,0.04844 0.09687,0.09688 0.14531,0.14531c-0.02949,-0.06043 -0.05902,-0.12085 -0.0886,-0.18127z" fill-opacity="0.41961" fill="#ff6300" stroke-width="0.5"></path>
      <path d="M218.5143,196.95343c-0.97609,0.78087 -1.75695,-0.19522 -1.75695,-0.19522l-1.20482,-1.82152c0.47992,-0.76461 0.5027,-1.18402 0.22118,-1.60998l-0.2702,0.3088l-1.87042,-1.63661c-0.26472,-0.2292 -0.43219,-0.56773 -0.43219,-0.94538c0,-0.69036 0.55964,-1.25 1.25,-1.25h1.4068c0.04807,0 0.096,-0.00039 0.14378,-0.00112c-0.01266,-0.16096 0.00815,-0.34391 0.07717,-0.55096c0.39528,-1.18586 1.58114,-0.79058 1.58114,-0.79058c0.92166,0.311 1.88056,0.51945 2.84394,0.65395l0.01344,0.00774l0.00091,-0.00544l1.38653,0.23109c0.60252,0.0895 1.06477,0.60895 1.06477,1.23637c0,0.59487 -0.41554,1.09269 -0.97219,1.21902l-1.85037,0.4626l-0.08202,-0.32807c-0.65752,0.20339 -1.28397,0.29357 -2.04019,0.33356c0.4712,0.45876 0.50923,1.18357 0.01401,2.40163l0.67091,0.52316c0,0 0.78087,0.97609 -0.19522,1.75695z" fill-opacity="0.41961" fill="#ff6300" stroke-width="0.5"></path>
      <path d="M247.975,182.13204c-0.57912,0.23164 -0.98485,0.05873 -1.24604,-0.17268c-0.27005,1.11911 -1.14843,2.24656 -1.6425,3.13614c0,0 -0.60705,1.0927 -1.69975,0.48564c-1.0927,-0.60705 -0.48564,-1.69975 -0.48564,-1.69975c1.50462,-2.70754 1.73935,-3.49389 4.39211,-5.30676l1.37819,1.93258c0,0 0.46423,1.1606 -0.69637,1.62483z" fill-opacity="0.41961" fill="#ff6300" stroke-width="0.5"></path>
      <path d="M260.73102,188.18562c-0.27342,0.13671 -0.51341,0.17312 -0.71996,0.15011c-1.75052,1.94628 -3.0023,4.05705 -4.08954,6.50802c0,0 -0.11198,0.25195 -0.34908,0.46661c-0.10808,0.21616 -0.21616,0.43231 -0.32423,0.64847l-0.45867,-0.35125c-0.15548,-0.00599 -0.32794,-0.04478 -0.51795,-0.12924c-0.37312,-0.16583 -0.57019,-0.39937 -0.66642,-0.6387l-0.59303,0.00115c0.07163,-0.14326 0.14326,-0.28653 0.2149,-0.42979l-0.1382,-0.10584c0,0 0.12941,-0.59568 0.62348,-0.86471c0.13929,-0.27858 0.27858,-0.55715 0.41786,-0.83573c0,0 0.08134,-0.16269 0.24403,-0.33292c0.72905,-1.44446 1.54226,-2.78449 2.49909,-4.05186c-1.1125,-0.45203 -0.68529,-1.59127 -0.68529,-1.59127c0.3536,-0.94216 0.74537,-1.86487 1.12529,-2.79186c-0.06827,-0.01881 -0.13919,-0.04362 -0.21281,-0.07517c-1.14894,-0.49239 -0.65655,-1.64133 -0.65655,-1.64133c0.80963,-1.88909 1.59698,-3.75958 2.31085,-5.67276c-2.22103,3.44914 -4.58495,6.80381 -6.93743,10.1645c0,0 -0.71683,1.02404 -1.74087,0.30722c-1.02404,-0.71683 -0.30722,-1.74087 -0.30722,-1.74087c2.37723,-3.39606 4.76762,-6.7853 7.00598,-10.27473l0.63712,-0.67781c0,0 0.88388,-0.88389 1.76777,-0.00002c0.10882,0.10882 0.19085,0.21764 0.25103,0.32481c0.00824,-0.0243 0.01646,-0.04862 0.02467,-0.07294l0.46819,-1.40455c0,0 0.39529,-1.18585 1.58114,-0.79056c1.18585,0.39529 0.79056,1.58114 0.79056,1.58114l-0.4697,1.40907c-0.67466,1.9982 -1.44145,3.93254 -2.24932,5.86398l1.01022,-0.11144c0,0 0.88392,0.88385 0.00007,1.76777c-0.0885,0.08851 -0.177,0.15929 -0.26461,0.21501c-0.34627,0.9313 -0.73026,1.8452 -1.1069,2.76404l2.07455,0.73635c0,0 0.55902,1.11803 -0.55902,1.67705z" fill-opacity="0.41961" fill="#ff6300" stroke-width="0.5"></path>
      <path d="M261.90782,192.40889c0.38616,-0.59604 0.78697,-1.18454 1.13125,-1.70762c-0.04631,-0.10144 -0.08365,-0.21809 -0.10914,-0.35217c-0.23344,-1.22801 0.99457,-1.46145 0.99457,-1.46145l2.13603,1.63048c-1.38707,2.82232 -2.45136,4.88821 -4.62023,6.39979l0.21598,0.26997l-1.16456,0.93165c-0.21512,0.17514 -0.48962,0.28014 -0.78865,0.28014c-0.69036,0 -1.25,-0.55964 -1.25,-1.25c0,-0.12924 0.01961,-0.2539 0.05603,-0.37116l0.461,-1.6135l0.00239,0.00068l-0.00011,-0.00859c0.23525,-0.78419 0.4705,-1.56837 0.70575,-2.35256c0,0 0.35919,-1.19728 1.55647,-0.83809c0.32823,0.09847 0.53948,0.25992 0.67322,0.44243z" fill-opacity="0.41961" fill="#ff6300" stroke-width="0.5"></path>
      <path d="M247.92572,209.52246c-0.88388,0.88388 -1.76777,0 -1.76777,0l-0.44328,-0.51129c-0.59579,-1.07724 -1.22157,-2.14989 -1.9936,-3.10873c0,0 -0.14999,-0.18749 -0.23633,-0.46386c-0.14577,0.01521 -0.31089,0.00446 -0.49755,-0.0422c-1.21268,-0.30316 -0.90952,-1.51584 -0.90952,-1.51584l0.24209,-0.96688c0.71383,-2.56017 0.72494,-4.88403 0.43163,-7.50168c0,0 -0.13804,-1.24235 1.10432,-1.38039c1.24235,-0.13804 1.38039,1.10432 1.38039,1.10432c0.3237,2.93671 0.2777,5.56897 -0.50623,8.4421l-0.06616,0.26508c0.59845,-0.01621 1.00952,0.49763 1.00952,0.49763c0.85324,1.07254 1.55915,2.25946 2.22682,3.45636l0.02565,-0.04237c0,0 0.88388,0.88388 0,1.76777z" fill-opacity="0.41961" fill="#ff6300" stroke-width="0.5"></path>
      <path d="M237.1718,203.10818c-0.80023,-0.96028 0.16004,-1.76051 0.16004,-1.76051l1.26508,-1.03378c0.60502,-0.98397 1.18405,-1.9862 1.69967,-3.01983c0,0 0.55902,-1.11803 1.67705,-0.55901c1.11803,0.55902 0.55901,1.67705 0.55901,1.67705c-0.61168,1.22071 -1.32147,2.39159 -2.05182,3.54522l-1.54852,1.31089c0,0 -0.96028,0.80023 -1.76051,-0.16004z" fill-opacity="0.41961" fill="#ff6300" stroke-width="0.5"></path>
      <path d="M231.09227,206.61984c-1.02934,-0.70919 -0.32015,-1.73854 -0.32015,-1.73854l1.30954,-1.89809c0.79564,-1.43824 1.58685,-2.87894 2.37391,-4.32189c0,0 0.59857,-1.09737 1.69594,-0.4988c1.09737,0.59857 0.4988,1.69594 0.4988,1.69594c-0.80911,1.48335 -1.6237,2.96372 -2.44337,4.44126l-1.37614,1.99997c0,0 -0.70919,1.02934 -1.73854,0.32015z" fill-opacity="0.41961" fill="#ff6300" stroke-width="0.5"></path>
    </g>
  </g>
</svg>
