<?xml version="1.0" encoding="UTF-8"?>
<svg xmlns="http://www.w3.org/2000/svg" xmlns:xlink="http://www.w3.org/1999/xlink" version="1.1" width="175.68349" height="57.97056" viewBox="0,0,175.68349,57.97056">
  <g transform="translate(-152.15826,-140.28063)">
    <g fill="#292f33" stroke="none" stroke-miterlimit="10">
      <path d="M251.74149,147.99279c7.51455,-3.75727 16.59463,-6.26214 27.55335,-7.20145c10.3325,-0.93931 32.56304,-0.93932 43.83486,3.13106c1.25243,0.31311 2.50486,0.93931 3.75728,1.56553c0.93932,0.31311 0.93931,0.62622 0.93931,1.87864v1.56553c0,3.13107 0.31311,1.87864 -1.87864,3.13106c-4.38349,2.50484 -6.88833,9.08007 -8.14076,18.16015c-1.87864,13.15046 -8.14076,21.29122 -18.78637,25.3616c-9.70629,3.75727 -20.66502,3.44416 -30.37131,-0.31311c-5.3228,-2.19174 -10.01939,-5.63591 -13.77666,-10.95871c-6.57523,-9.39319 -4.38348,-15.34221 -7.82765,-23.48296c-3.13107,-7.20144 -11.27182,-7.20144 -14.08978,0c-3.44417,8.14076 -1.25243,14.08977 -7.82766,23.48296c-3.75727,5.63591 -8.45387,8.76696 -13.77667,10.95871c-9.70629,3.75727 -20.66501,4.07038 -30.3713,0.31311c-10.3325,-3.75727 -16.90772,-12.21114 -18.78636,-25.3616c-1.25242,-9.08008 -3.75728,-15.65531 -8.14077,-18.16015c-2.19174,-1.25242 -1.87864,0 -1.87864,-3.13106v-1.56553c0,-1.25242 0.3131,-1.56553 0.62621,-1.87864c1.25242,-0.62622 2.50485,-1.25242 3.75728,-1.56553c10.95872,-4.07038 33.18925,-4.07037 43.83486,-3.13106c10.95872,0.93931 20.03879,3.44418 27.24023,7.20145c6.88834,3.44417 17.22084,3.44417 24.10917,0"></path>
    </g>
  </g>
</svg>
