<?xml version="1.0" encoding="UTF-8"?>
<svg xmlns="http://www.w3.org/2000/svg" xmlns:xlink="http://www.w3.org/1999/xlink" version="1.1" width="180.26748" height="240.02858" viewBox="0,0,180.26748,240.02858">
  <g transform="translate(-164.67799,-70.86492)">
    <g stroke="none" stroke-miterlimit="10">
      <path d="M291.20004,136.20001c-2.5,0 -2.5,-2.5 -2.5,-2.5l0.3809,0.52642c-2.5979,-4.15211 -5.25465,-7.9856 -7.998,-11.99681c-2.25466,-3.29667 -2.73041,-7.75808 -5.35714,-10.8751c-0.75047,-0.89054 -1.88388,-1.36969 -2.82582,-2.05454c0,0 -2,-1.50001 -0.49999,-3.5c1.50001,-2 3.5,-0.49999 3.5,-0.49999c1.1914,0.91517 2.60612,1.59669 3.5742,2.74551c0.4063,0.48216 0.76538,0.98858 1.08949,1.51271c1.28561,-0.7863 2.64885,-1.46615 3.98939,-2.13412c4.58673,-2.28549 8.95616,-4.56715 13.75851,-6.46091c4.12038,-1.62483 8.03259,-2.74394 12.01597,-4.49085c-0.01814,-0.12147 -0.02754,-0.2458 -0.02754,-0.37233c0,-0.88153 0.45626,-1.6565 1.14552,-2.10164l2.36776,-1.5785c3.99975,-2.55098 5.84513,-7.40824 6.91903,-11.92034c0.29404,-1.23546 0.09798,-3.86418 -1.16405,-4.62402c-1.72813,-1.04047 -3.9694,0.75624 -5.90456,1.32558c-8.54202,3.80252 -14.81646,10.34359 -22.96533,14.7447c-3.4131,1.84338 -8.04173,2.57091 -11.74992,3.39329c-5.89734,1.30788 -11.66265,3.35107 -17.54345,4.78662c-4.06329,0.99188 -8.93263,3.77927 -13.19879,3.26577c-0.06898,-0.0083 -0.13771,-0.01766 -0.2062,-0.02802v0.03654h-2.61555c-4.85787,1.23654 -10.38865,2.47174 -14.06526,5.70536c-0.00995,0.00875 -0.01988,0.01752 -0.0298,0.0263c-0.04581,0.49857 -0.23801,0.95476 -0.53323,1.32521l-2.85102,3.64727l-0.04218,-0.03297l-0.05528,0.15012c-2.49914,2.49752 -4.692,5.17966 -6.83634,7.91992c7.08751,-0.83614 13.52443,0.92015 19.1652,6.58144c0.32271,0.32389 3.16339,4.62038 3.54356,5.19062l0.41987,2.18676c0,0 0,2.5 -2.5,2.5c-2.5,0 -2.5,-2.5 -2.5,-2.5l0.41987,0.58672c-1.01447,-1.52178 -1.75162,-3.2721 -3.04779,-4.56241c-5.76065,-5.73462 -12.28751,-6.18908 -19.78524,-4.02049c0,0 -0.1733,0.04952 -0.44014,0.07542c-0.38153,0.39757 -1.75494,1.59574 -3.40844,0.27292c-0.10568,-0.08454 -0.20106,-0.17023 -0.28694,-0.25669c-1.28081,0.31053 -2.31905,-0.7277 -2.31905,-0.7277l-2.27026,-2.27915c-3.95135,-2.95474 -7.9159,-5.44358 -12.26035,-7.64284c-1.50473,-0.76173 -3.28851,-0.85176 -4.8,-1.59998c-1.57492,-0.77962 -3.06316,-1.94827 -4.80713,-2.16455c-3.88143,-0.48134 -10.22434,1.81074 -13.23499,4.18853c-1.93182,1.52573 -3.40659,7.56508 -3.17397,9.86154c0.21293,2.10209 1.57607,3.95049 1.95798,6.02853c1.55079,0.86073 2.69555,2.42166 4.34706,3.06841c0.74889,0.29327 1.60528,-0.1122 2.40939,-0.12829c3.55433,-0.07114 7.38838,-0.54043 10.69843,1.05424c5.92464,2.85428 8.05543,8.77956 13.66184,12.03133c5.44055,3.15558 13.20557,2.88878 19.19331,3.73958c0,0 2.47487,0.35356 2.12131,2.82844c-0.00488,0.03413 -0.01015,0.06772 -0.01582,0.10078c0.84094,0.73647 0.84094,1.94565 0.84094,1.94565c0,6.48112 -0.70236,12.50247 -1.63225,18.80044c-0.75564,5.1178 0.45954,10.63745 0.02376,15.80575c-0.23127,2.74285 -1.34388,5.35959 -1.61019,8.09926c-0.35807,3.68355 0.44932,7.52027 0,11.20003c-0.71381,5.84576 -0.78132,11.53036 -0.78132,17.49451c0,3.51797 -0.33554,6.43617 -0.83227,9.80047c-0.35056,2.37427 0.30729,4.81976 0,7.20002c-0.34999,2.71105 -2.12363,5.14231 -2.38641,7.905c-0.15451,1.62434 0.1673,3.27339 -0.01355,4.89501c-0.39102,3.50592 -1.93084,6.92769 -2.40002,10.39994c-0.14283,1.05706 0.1578,2.14507 0.00001,3.2c-0.45444,3.03816 -2.0494,7.54621 -3.42194,10.29796c-1.26654,2.53923 -2.99434,4.16159 -3.87409,6.89214c-0.77271,2.20614 -0.75633,4.28225 -1.20542,6.47732c0.40599,0.53832 1.18233,1.9192 -0.19858,3.3c-0.13251,0.1325 -0.26503,0.24514 -0.39679,0.34015c2.80871,1.39243 5.65329,3.11468 8.62955,3.42431c2.60126,0.27061 5.24598,-0.30368 7.84586,-0.02012c7.73685,0.84384 15.42347,2.5154 23.35322,1.62009c0.83795,-0.09461 1.56474,-0.68413 2.40002,-0.79999c4.90332,-0.68009 10.35825,-0.04001 15.29501,-0.01355c4.912,-1.26069 10.118,-1.9367 13.7377,-5.68653l0.06748,-0.19331c-0.00046,-2.38959 0.00096,-6.94993 0.03256,-7.23935c0.37022,-3.39099 1.96079,-6.87296 2.38641,-10.30503c0.33585,-2.70814 0.33756,-5.45976 0.82228,-8.14525c0.65709,-3.64052 2.00056,-7.54517 2.39128,-11.1497c0.17243,-1.5907 -0.17951,-3.21013 0,-4.80005c0.0801,-0.70943 0.77276,-1.28559 0.76771,-1.99952c-0.00575,-0.81278 -0.80072,-1.49129 -0.79814,-2.30408c0.0039,-1.23095 0.6961,-2.37638 0.81687,-3.6014c0.81362,-8.2529 -0.58391,-16.45884 0.78983,-24.70075c0.0061,-2.44801 0.49894,-4.87108 0.8102,-7.29923c0.26742,-2.08611 -0.22075,-4.21699 -0.00947,-6.30954c0.48665,-4.81991 1.10937,-9.5674 1.59923,-14.39122c0.30273,-2.98104 0.447,-6.83064 0.02376,-9.79334c-0.13772,-0.96404 -0.83227,-1.82661 -0.83227,-2.80044c0,-0.97384 0.71148,-1.83413 0.83227,-2.80044c0.40958,-3.27668 -0.18849,-6.82026 -0.02902,-10.12728c0.11788,-2.44447 0.36303,-4.83625 0.55046,-7.24117c-1.93325,-0.89811 -1.22542,-3.02166 -1.22542,-3.02166c1.28782,-3.67681 1.00902,-8.20684 0.80695,-12.40754c-3.6913,1.04452 -7.25079,2.60438 -10.64846,4.87819l-1.68091,-3.31815l-1.09259,-0.84211c0.1664,-0.11055 0.33314,-0.21963 0.50022,-0.32724l-0.08125,-0.16038c0,0 0.67131,-0.67131 1.60024,-0.77287c3.7166,-2.1755 7.59309,-3.67042 11.6032,-4.66131l0.53893,-2.20438c0,0 0.60634,-2.42536 3.0317,-1.81903c2.23486,0.55871 1.89557,2.66191 1.82848,2.98886c3.37801,-0.4747 6.8379,-0.66351 10.36523,-0.66351c6.07179,0.03929 12.083,-1.62435 18.09451,-2.38126c4.52265,-0.56945 9.36327,-0.88622 13.6071,-2.96453c2.19686,-1.07586 4.77375,-3.36733 5.00881,-5.98278c0.17592,-1.95736 -1.3835,-4.25783 -2.1465,-5.85341c-0.7124,-1.48977 -1.86859,-3.03956 -3.43129,-3.57331c-1.69438,-0.57873 -3.56918,-0.3348 -5.33264,-0.6447h-5c-0.84843,0 -1.59816,-0.42264 -2.05011,-1.06887c-5.19515,3.2447 -10.66013,2.24201 -16.33856,4.13354c-4.20558,1.40092 -7.84387,3.751 -12.20499,4.86069l-0.43856,0.94239c0,0 -0.34072,0.34072 -0.87258,0.57341c0.40858,0.63793 0.81633,1.28151 1.22391,1.93239l0.3809,2.12645c0,0 0,2.5 -2.5,2.5zM285.31714,119.57037c1.40477,2.00798 2.76347,3.98284 4.09846,5.97921c0.01077,-0.01146 0.01667,-0.01735 0.01667,-0.01735l2.76139,-2.25756c4.216,-1.03195 7.72412,-3.38156 11.79501,-4.73935c5.1582,-1.72045 10.93403,-0.62398 15.42459,-3.71545c0,0 2.04916,-1.3661 3.43567,0.64734l2.52143,-1.63047l0.02522,0.039l0.09264,-0.11068c1.81202,-0.89242 4.73217,-1.78777 5.98513,-3.77938c2.11295,-3.35858 4.12942,-11.33045 -1.23004,-13.17598c-3.99876,-1.37698 -7.30252,-0.19545 -11.14436,0.89059c-0.90919,0.25702 -1.75841,0.96216 -2.69847,0.86744c-0.12855,-0.01295 -0.25654,-0.02878 -0.38402,-0.04721c-0.00535,0.01423 -0.01083,0.02836 -0.01645,0.04238v0.03711h-0.01526c-0.37601,0.89073 -1.26675,1.33608 -1.26675,1.33608c-4.87324,2.43657 -9.64414,3.7186 -14.62953,5.7007c-4.65776,1.85184 -8.87481,4.07737 -13.3364,6.27778c-1.3691,0.67523 -2.80811,1.3157 -4.0822,2.16079c0.75055,1.91361 1.48032,3.82701 2.64725,5.495zM217.50022,118.46918c0.00621,-0.51357 0.16726,-0.98987 0.43865,-1.38437l2.75455,-4.1318l0.03069,0.02046c0.03186,-0.06554 0.06438,-0.13082 0.09758,-0.19584c0.79426,-1.55544 2.39246,-2.54523 3.60996,-3.7974c5.56895,-5.72755 11.7644,-8.02916 18.9785,-10.15858c0.24989,-0.16744 0.53166,-0.29101 0.83428,-0.35969l3.14927,-0.7873l3.14561,-0.78642c0.21047,-0.05753 0.43202,-0.08824 0.66074,-0.08824c0.67198,0 1.28204,0.26513 1.73128,0.69648c3.80508,-0.94058 7.47645,-2.18383 11.32022,-3.03557c4.63018,-1.02599 8.96845,-2.96871 13.59997,-4c3.30164,-0.73517 7.61336,-1.3356 10.65011,-3.00668c5.08115,-2.79609 9.24019,-6.91258 13.99446,-10.14332c3.44847,-2.34339 5.67143,-3.12768 9.45488,-4.80731c2.51643,-0.71536 7.45351,-2.64506 10.08079,-0.97909c3.29929,2.0921 4.23203,6.31429 3.636,9.77594c-0.65574,3.80844 -2.14932,7.58481 -4.4325,10.70645c3.68639,-1.00447 7.14692,-1.30333 10.9215,0.1834c8.08808,3.18571 7.7506,14.37207 3.56989,20.42399c-0.73203,1.05967 -1.41345,1.81472 -2.11655,2.40919c6.55964,1.39332 11.94624,9.40099 11.27943,15.70508c-1.26844,11.99208 -17.31067,12.62476 -26.00895,14.22481c-2.94495,0.54172 -5.97469,0.44682 -8.9452,0.82402c-2.24378,0.28492 -4.47357,0.81053 -6.73533,0.82261c-3.78145,0 -7.48206,0.21573 -11.07644,0.81522c0.09084,3.04887 0.2775,6.20803 0.07406,9.27235c0.70234,0.74006 0.70234,1.81242 0.70234,1.81242c-0.00279,4.38266 -0.5945,8.57551 -0.80325,12.92769c-0.16823,3.5075 0.40616,7.19136 -0.02902,10.67278c-0.08855,0.70844 -0.7677,1.28559 -0.7677,1.99954c0,0.71395 0.66674,1.29277 0.7677,1.99954c0.47402,3.31817 0.35287,7.66627 0.02377,11.00664c-0.47593,4.83059 -1.09777,9.5842 -1.60072,14.40877c-0.22433,2.15185 0.25274,4.34295 -0.00947,6.49051c-0.28863,2.36396 -0.79601,4.71924 -0.78977,7.10074c-1.38308,8.29794 0.03342,16.58261 -0.81026,24.89923c-0.09777,0.96376 -0.78652,1.82992 -0.7831,2.79862c0.00309,0.87386 0.80685,1.62212 0.80183,2.49597c-0.0056,0.97381 -0.72627,1.83237 -0.83227,2.80041c-0.27031,2.46853 -0.30352,4.97786 -0.84143,7.40218c-1.21526,5.47713 -1.65235,11.00072 -2.34503,16.50281c-0.43925,3.489 -2.04625,7.0577 -2.41351,10.49502c-0.20076,1.87905 -0.08403,3.77402 -0.01177,5.6671c0.46386,0.3628 0.84404,0.95754 0.84404,1.93246c0,2.04955 -1.68027,2.41884 -2.28577,2.48538l-0.04644,0.08238c-4.67735,4.55638 -10.49068,5.60469 -16.66233,7.11353c-4.84672,0.02211 -10.30493,-0.72228 -15.10502,-0.01355c-5.46159,0.80639 -11.94409,1.58459 -17.60088,0.79998c-3.12171,-0.43298 -6.24104,-1.21675 -9.44593,-1.57986c-2.70078,-0.30599 -5.45443,0.29512 -8.15414,-0.02012c-4.37085,-0.51038 -8.29849,-3.54426 -12.39012,-4.89606c0,0 -2.37169,-0.79061 -1.58109,-3.16231c0.53775,-1.61316 1.80696,-1.76333 2.56382,-1.69438l-0.9638,-2.30559c0.94888,-2.70904 0.70789,-5.22202 1.59998,-7.99999c1.9152,-5.60091 6.27451,-10.27104 7.10401,-16.40987c0.14283,-1.05707 -0.15779,-2.14508 0,-3.20002c0.52559,-3.51375 2.00808,-6.8593 2.40003,-10.39999c0.17255,-1.55881 -0.17659,-3.14513 -0.01355,-4.70496c0.29635,-2.83519 2.08459,-5.34819 2.41351,-8.09501c0.28535,-2.38297 -0.32972,-4.82276 0,-7.2c0.43959,-3.16934 0.76771,-5.65114 0.76771,-8.99958c0,-6.16039 0.04362,-12.05901 0.81878,-18.10546c0.46778,-3.64884 -0.35817,-7.54039 0,-11.19999c0.26167,-2.67359 1.36959,-5.22341 1.58976,-7.90074c0.43829,-5.32961 -0.71118,-10.89545 0.02376,-16.19425c0.83915,-6.05009 1.56769,-11.77533 1.56769,-17.99955c0,0 0,-0.03718 0.00453,-0.10248c-6.39121,-0.77991 -13.78331,-0.87514 -19.46478,-4.08306c-2.21638,-1.25143 -4.41118,-2.64344 -6.20749,-4.44668c-1.35712,-1.36236 -1.84027,-3.44028 -3.20001,-4.80002c-1.16598,-1.16598 -2.67226,-1.95242 -4.13061,-2.72197c-3.73608,-1.97147 -8.65224,0.72558 -12.49216,-0.67409c-0.32916,-0.11998 -6.15716,-4.42107 -6.85301,-4.93159c-0.82928,-2.8278 -2.59725,-5.43471 -2.84195,-8.37143c-0.3331,-3.99776 1.63601,-11.35018 4.82603,-14.13846c1.06078,-0.92719 2.48682,-1.32523 3.7414,-1.96629c3.95876,-2.02281 8.86885,-4.01745 13.42351,-3.44522c2.28698,0.28733 4.33584,1.59572 6.39295,2.6355c1.50519,0.76081 3.28819,0.85237 4.79998,1.59997c4.73556,2.3418 9.06769,5.14484 13.33962,8.35716l2.23751,2.22964c1.35765,-1.72878 2.67903,-3.46273 4.0247,-5.17181z" fill="#000000" stroke-width="0.5"></path>
      <path d="M285.2704,119.58816c-1.16693,-1.66799 -1.89958,-3.59294 -2.65013,-5.50655c1.27409,-0.84509 2.71277,-1.48936 4.08187,-2.16459c4.46159,-2.20041 8.68661,-4.45555 13.34437,-6.30739c4.98539,-1.9821 9.82396,-3.27985 14.6972,-5.71642c0,0 0.89191,-0.44463 1.26792,-1.33536l-0.03851,0.08432l0.00006,-0.03707c0.00562,-0.01402 0.06476,-0.11253 0.07011,-0.12676c0.12748,0.01843 0.25646,0.0349 0.38501,0.04785c0.94006,0.09472 1.79341,-0.60734 2.7026,-0.86436c3.84184,-1.08604 7.15584,-2.25596 11.1546,-0.87898c5.35946,1.84553 3.35078,9.84237 1.23783,13.20095c-1.25296,1.99161 -4.17376,2.8971 -5.98578,3.78952l-0.0927,0.11103l-0.0252,-0.0391l-2.52299,1.63691c-1.38651,-2.01344 -3.43621,-0.64571 -3.43621,-0.64571c-4.49056,3.09147 -10.3375,2.02232 -15.4957,3.74277c-4.07089,1.35779 -7.59457,3.69417 -11.81057,4.72612l-2.68253,2.19608c0,0 -0.08465,0.06753 -0.09542,0.07899c-1.33499,-1.99637 -2.70105,-3.98426 -4.10582,-5.99224z" fill="#0035c4" stroke-width="0.25"></path>
      <path d="M291.22783,136.15841c2.5,0 2.44405,-2.41712 2.44405,-2.41712l-0.38001,-2.12586c-0.40758,-0.65088 -0.8141,-1.29368 -1.22268,-1.93161c0.53186,-0.23269 0.92496,-0.65859 0.92496,-0.65859l0.43849,-0.94243c4.36112,-1.10969 8.00324,-3.45715 12.20882,-4.85807c5.67843,-1.89153 11.14753,-0.88537 16.34268,-4.13007c0.45195,0.64623 1.20249,1.06965 2.05092,1.06965l5.00122,0.00124c1.76346,0.3099 3.63958,0.06741 5.33396,0.64614c1.5627,0.53375 2.72039,2.08533 3.43279,3.5751c0.763,1.59558 2.32413,3.89831 2.14821,5.85567c-0.23506,2.61545 -2.89406,4.96399 -5.09092,6.03985c-4.24383,2.07831 -9.08263,2.39758 -13.60528,2.96703c-6.01151,0.75691 -12.01828,2.42555 -18.09007,2.38626c-3.52733,0 -6.983,0.19253 -10.36101,0.66723c0.06709,-0.32695 0.40847,-2.42859 -1.82639,-2.9873c-2.42536,-0.60633 -2.97513,1.73658 -2.97513,1.73658l-0.59507,2.28713c-4.01011,0.99089 -7.88032,2.48949 -11.59692,4.66499c-0.92893,0.10156 -1.59917,0.77338 -1.59917,0.77338l0.08111,0.16032c-0.16708,0.10761 -0.29184,0.12593 -0.45824,0.23648l1.09393,0.84275l1.68394,3.31978c3.39767,-2.27381 6.96242,-3.83013 10.65372,-4.87465c0.20207,4.2007 0.48679,8.73609 -0.80103,12.4129c0,0 -0.70547,2.12625 1.22778,3.02436c-0.18743,2.40492 -0.42855,4.80241 -0.54643,7.24688c-0.15947,3.30702 0.44383,6.8625 0.03425,10.13918c-0.12079,0.96631 -0.83134,1.8303 -0.83134,2.80414c0,0.97383 0.69527,1.84082 0.83299,2.80486c0.42324,2.9627 0.27848,6.82725 -0.02425,9.80829c-0.48986,4.82382 -1.12007,9.58985 -1.60672,14.40976c-0.21128,2.09255 0.27297,4.22858 0.00555,6.31469c-0.31126,2.42815 -0.80881,4.85597 -0.81491,7.30398c-1.37374,8.24191 0.01298,16.45511 -0.80064,24.70801c-0.12077,1.22502 -0.81451,2.37118 -0.81841,3.60213c-0.00258,0.81279 0.79224,1.49137 0.79799,2.30415c0.00505,0.71393 -0.68857,1.29051 -0.76867,1.99994c-0.17951,1.58992 0.1713,3.20982 -0.00113,4.80052c-0.39072,3.60453 -1.73764,7.51041 -2.39473,11.15093c-0.48472,2.68549 -0.48808,5.4376 -0.82393,8.14574c-0.42562,3.43207 -2.01856,6.91463 -2.38878,10.30562c-0.0316,0.28942 -0.03374,4.84992 -0.03328,7.23951l-0.06753,0.19332c-3.6197,3.74983 -8.83203,4.42674 -13.74403,5.68743c-4.93676,-0.02646 -10.39838,-0.66647 -15.3017,0.01362c-0.83528,0.11586 -1.56309,0.70531 -2.40104,0.79992c-7.92975,0.89531 -15.6262,-0.778 -23.36305,-1.62184c-2.59988,-0.28356 -5.24759,0.28978 -7.84885,0.01917c-2.97626,-0.30963 -5.82443,-2.03331 -8.63314,-3.42574c0.13176,-0.09501 0.26437,-0.20761 0.39688,-0.34011c1.38091,-1.3808 0.60412,-2.76188 0.19813,-3.3002c0.44909,-2.19507 0.43206,-4.27148 1.20477,-6.47762c0.87975,-2.73055 2.64978,-4.44356 3.91632,-6.98279c1.37254,-2.75175 2.92493,-7.16932 3.37937,-10.20748c0.15779,-1.05493 -0.14354,-2.14328 -0.00071,-3.20034c0.46918,-3.47225 2.00759,-6.89475 2.39861,-10.40067c0.18085,-1.62162 -0.14232,-3.27143 0.01219,-4.89577c0.26278,-2.76269 2.03519,-5.19469 2.38518,-7.90574c0.30729,-2.38026 -0.35319,-4.82749 -0.00263,-7.20176c0.49673,-3.3643 0.82848,-6.28547 0.82848,-9.80344c0,-5.96415 0.05839,-11.65917 0.7722,-17.50493c0.44932,-3.67976 -0.36391,-7.52878 -0.00584,-11.21233c0.26631,-2.73967 1.37673,-5.36773 1.608,-8.11058c0.43578,-5.1683 -0.77555,-10.71131 -0.01991,-15.82911c0.92989,-6.29797 1.64425,-12.33639 1.64425,-18.81751c0,0 0.00057,-1.2097 -0.84037,-1.94617c0.00567,-0.03306 0.011,-0.06671 0.01588,-0.10084c0.35356,-2.47488 -2.0548,-2.75377 -2.0548,-2.75377c-5.98774,-0.8508 -13.74657,-0.59057 -19.18712,-3.74615c-5.60641,-3.25177 -7.73758,-9.17657 -13.66222,-12.03085c-3.31005,-1.59467 -7.1422,-1.12789 -10.69653,-1.05675c-0.80411,0.01609 -1.66005,0.42092 -2.40894,0.12765c-1.65151,-0.64675 -2.87884,-2.2641 -4.42963,-3.12483c-0.38191,-2.07804 -1.74399,-3.92793 -1.95692,-6.03002c-0.23262,-2.29646 1.24497,-8.33929 3.17679,-9.86502c3.01065,-2.37779 9.35765,-4.67397 13.23908,-4.19263c1.74397,0.21628 3.23303,1.38421 4.80795,2.16383c1.51149,0.74822 3.29634,0.83736 4.80107,1.59909c4.34445,2.19926 8.31134,4.68632 12.26269,7.64106l2.27054,2.27895c0,0 1.03905,1.03767 2.31986,0.72714c0.08588,0.08646 0.18131,0.17211 0.28699,0.25665c1.6535,1.32282 3.02861,0.12355 3.41014,-0.27402c0.26684,-0.0259 0.44038,-0.07557 0.44038,-0.07557c7.49773,-2.16859 14.03566,-1.71914 19.79631,4.01548c1.29617,1.29031 2.03464,3.04024 3.04911,4.56202l-0.42008,-0.58666c0,0 0.00154,2.49958 2.50154,2.49958c2.5,0 2.50266,-2.5006 2.50266,-2.5006l-0.40067,-2.08862c-0.38017,-0.57024 -3.21895,-4.86714 -3.54166,-5.19103c-5.64077,-5.66129 -12.06708,-7.4214 -19.15459,-6.58526c2.14434,-2.74026 4.29845,-5.5144 6.79759,-8.01192l0.05534,-0.15014l0.0422,0.03296l2.85323,-3.64799c0.29522,-0.37045 0.48792,-0.82679 0.53373,-1.32536c0.00992,-0.00878 0.01987,-0.01756 0.02982,-0.02631c3.67661,-3.23362 9.21585,-4.47048 14.07372,-5.70702l2.61703,-0.00014l0,-0.03654c0.06849,0.01036 0.13734,0.01971 0.20632,0.02801c4.26616,0.5135 9.1429,-2.2739 13.20619,-3.26578c5.8808,-1.43555 11.65475,-3.47734 17.55209,-4.78522c3.70819,-0.82238 8.34163,-1.54843 11.75473,-3.39181c8.14887,-4.40111 14.42925,-10.93957 22.97127,-14.74209c1.93516,-0.56934 4.17797,-2.36521 5.9061,-1.32474c1.26203,0.75984 1.4592,3.3892 1.16516,4.62466c-1.0739,4.5121 -2.97069,9.45514 -6.97044,12.00612l-2.36729,1.57878c-0.68926,0.44514 -1.09495,1.13384 -1.09495,2.01537c0,0.12653 -0.04128,0.33707 -0.02314,0.45854c-3.98338,1.74691 -7.89202,2.86793 -12.0124,4.49276c-4.80235,1.89376 -9.16679,4.17751 -13.75352,6.463c-1.34054,0.66797 -2.70209,1.34839 -3.9877,2.13469c-0.32411,-0.52413 -0.68236,-1.03029 -1.08866,-1.51245c-0.96808,-1.14882 -2.38049,-1.82971 -3.57189,-2.74488c0,0 -1.99815,-1.49959 -3.49816,0.50041c-1.50001,1.99999 0.52099,3.40223 0.52099,3.40223c0.94194,0.68485 2.07725,1.16446 2.82772,2.055c2.62673,3.11702 3.10765,7.5801 5.36231,10.87677c2.74335,4.01121 5.40812,7.84864 8.00602,12.00075l-0.38129,-0.52665c0,0 0.00221,2.50139 2.50221,2.50139z" fill="#0035c4" stroke-width="0.25"></path>
    </g>
  </g>
</svg>
