<?xml version="1.0" encoding="UTF-8"?>
<svg xmlns="http://www.w3.org/2000/svg" xmlns:xlink="http://www.w3.org/1999/xlink" version="1.1" width="111.13602" height="184.41314" viewBox="0,0,111.13602,184.41314">
  <g transform="translate(-184.43199,-87.79343)">
    <g stroke="none" stroke-miterlimit="10">
      <path d="M228.23141,140.17731c-0.98201,-0.63794 -2.10136,-1.06856 -3.25056,-1.36014c-0.53041,-0.83232 -1.01978,-1.70231 -1.38471,-2.541c1.05415,-0.07012 2.07848,-0.06043 3.17091,0.04864l0.12749,0.36202c0.37177,-0.13022 0.70924,-0.19654 1.00125,-0.23017c0.55576,0.07954 1.16103,0.17322 1.78536,0.29088l0.27971,-0.17667l0.03438,0.13501l1.80184,-0.43959c0.07465,-0.01695 0.14859,-0.03892 0.21824,-0.06715c1.12221,2.62522 2.14247,5.29351 3.74103,7.69133l0.06808,0.07076l-0.56024,-0.18565c-0.20933,-0.09874 -0.50179,-0.25906 -0.70658,-0.30537c-0.16308,-0.44614 -0.46146,-0.73135 -0.93178,-0.83808l-1.78848,-0.43757c-0.54956,-0.13632 -1.18507,-0.13521 -1.76482,-0.02508c-0.00522,-0.01361 -0.02757,-0.12568 -0.03319,-0.13909l0.14728,-0.21655l-0.49889,-0.19214l-1.35252,-1.34697l-0.03576,0.03702z" fill="#bd7614" stroke-width="0.5"></path>
      <path d="M236.05001,142.80001c0,1.25 -1.25,1.25 -1.25,1.25l-0.82607,-0.85703l-1.15097,0.38365c-0.1321,0.04749 -0.27451,0.07337 -0.42296,0.07337c-0.69036,0 -1.25,-0.55964 -1.25,-1.25c0,-0.20994 0.05176,-0.4078 0.14321,-0.5815l0.09099,-0.18197c-0.06012,0.00888 -0.12162,0.01348 -0.18421,0.01348c-0.26832,0 -0.5169,-0.08454 -0.72054,-0.22844c-0.12487,0.04185 -0.25853,0.06452 -0.39748,0.06452c-0.47493,0 -0.88799,-0.26486 -1.09954,-0.65494c-0.58664,-0.10296 -1.03243,-0.61499 -1.03243,-1.23113c0,-0.26266 0.08102,-0.50641 0.21942,-0.7076l0.75805,-1.13706c0.2515,-0.50479 0.503,-1.00957 0.7545,-1.51436c0,0 0.55901,-1.11804 1.67705,-0.55902c0.49064,0.24532 0.65831,0.59829 0.69199,0.91719c0.20874,-0.15647 0.46805,-0.24916 0.749,-0.24916c0.69036,0 1.25,0.55964 1.25,1.25c0,0.14333 -0.02412,0.28103 -0.06854,0.40926c0.50381,0.16126 0.86855,0.6334 0.86855,1.19073c0,0.11436 -0.01536,0.22514 -0.04413,0.33038l-0.20902,0.83605c0.06611,-0.0108 0.13396,-0.01642 0.20313,-0.01642c0.69036,0 1.25,0.55964 1.25,1.25c0,0.14845 -0.02588,0.29086 -0.07337,0.42296l-0.05606,0.16818c0.07967,0.15981 0.12943,0.35945 0.12943,0.60886z" fill="#794c0d" stroke-width="0.5"></path>
      <path d="M223.60449,249.56737c0,0 -0.69733,-0.1678 -1.16638,0.26171c-2.049,-0.1861 -4.24268,-0.6057 -6.09524,-1.08117c0,0 -1.12796,-0.35628 -1.43112,0.8564c-0.00736,0.02941 -0.09846,0.11154 -0.10407,0.1399c-0.25207,-0.02582 -0.51353,-0.07257 -0.77859,-0.13232c0.11123,-0.26079 0.13203,-0.60325 -0.07514,-1.0176c-0.559,-1.11804 -1.679,-0.56461 -1.679,-0.56461l-0.24075,0.26894c-0.61153,0.00783 -1.15504,-0.06398 -1.64813,-0.19241c-0.95082,-0.53041 -1.80075,-1.10696 -2.40385,-1.56778c0,0 -0.29699,-0.22378 -0.68856,-0.26469c-0.86219,-0.74869 -1.71622,-1.58883 -2.81591,-2.27312c0.56383,-1.0242 1.15712,-2.03171 1.79614,-2.98656c0,0 0.15089,-0.05475 0.20651,-0.18809c0.32576,0.54037 0.64124,1.09148 0.93266,1.67652l0.64038,0.29087c0.02703,0.57396 0.52825,0.94643 0.52825,0.94643c2.53236,1.85609 6.1559,2.48608 9.71997,2.93816c0.35945,0.48773 1.02049,0.47617 1.02049,0.47617c1.40765,0 2.75791,0.08218 4.18256,0.17518c0.2656,0.04224 0.52107,0.09204 0.77693,0.13915l0.3357,0.06376c0,0 0.3761,0.07491 0.75224,-0.07423c2.93695,0.1605 5.85416,0.18509 8.65805,-0.74392l0.88834,-0.69894c0,0 0.19911,-0.19725 0.31381,-0.50105c0.10042,-0.03246 0.16127,-0.06265 0.16127,-0.06265c1.02708,-0.51563 2.03378,-1.07515 3.00065,-1.69879c-0.07237,0.36019 0.07593,0.8398 0.64695,1.22047c0.04137,0.02758 0.0822,0.05264 0.12245,0.07491c-0.12246,0.90938 -0.20215,1.81139 -0.24042,2.69515c-0.58111,-0.50372 -1.34825,-0.11992 -1.34825,-0.11992l-0.31823,0.09464l0.18385,-0.24829c0,0 0.74208,-1.00007 -0.26348,-1.7426c-1.00556,-0.74254 -1.64817,0.26697 -1.64817,0.26697l-0.26192,0.35593c-0.71005,0.9616 -1.44976,1.88213 -2.19716,2.77388c-0.22905,-0.25981 -0.56422,-0.42413 -0.93781,-0.42413c-0.14846,0 -0.29118,0.0268 -0.42328,0.07429l-1.10399,0.37102c-1.06324,0.17801 -2.25208,0.4261 -3.4291,0.55437c-0.08822,-0.0541 -0.18407,-0.09707 -0.28496,-0.1281l-1.17548,-0.38779c0,0 -0.9953,-0.31953 -1.46938,0.51842c-0.21603,-0.03516 -0.43251,-0.07798 -0.63882,-0.13444z" fill="#bdbdbd" stroke-width="0.5"></path>
      <path d="M236.01445,247.98503c-0.14456,0.05488 -0.29148,0.10476 -0.44032,0.15029l0.09011,0.22527l-1.97368,0.78949c-0.15062,0.06433 -0.31643,0.09994 -0.49057,0.09994c-0.0982,0 -0.19376,-0.01132 -0.28544,-0.03274c-0.85131,0.5494 -1.51111,0.82996 -2.32199,0.94552l0.05259,0.26293l-1.97469,0.39493c-0.08709,0.01921 -0.17759,0.02934 -0.27045,0.02934c-0.35761,0 -0.68014,-0.15017 -0.90799,-0.39089c-0.50792,0.13654 -0.97545,0.18586 -1.49201,0.15932v0.23157h-1.60001c-0.69036,0 -1.25,-0.55964 -1.25,-1.25c0,-0.14066 0.02323,-0.2759 0.06607,-0.40208l-0.18734,0.03123c-0.07416,0.01371 -0.15061,0.02088 -0.22874,0.02088c-0.37016,0 -0.70274,-0.1609 -0.93162,-0.41657c-0.4327,0.23544 -0.86899,0.46414 -1.30934,0.68459c0,0 -1.11803,0.55903 -1.67706,-0.559c-0.55903,-1.11803 0.559,-1.67706 0.559,-1.67706c1.24027,-0.61933 2.44604,-1.30759 3.63671,-2.01761l0.14698,0.00963l-0.01995,-0.05984l1.1723,-0.39077c0.1321,-0.04749 0.27451,-0.07337 0.42297,-0.07337c0.69036,0 1.25,0.55964 1.25,1.25c0,0.0392 -0.0018,0.07797 -0.00533,0.11624c0.0957,-0.02927 0.19192,-0.05609 0.28849,-0.08038l1.48535,-0.74266c0.1737,-0.09145 0.37156,-0.14321 0.5815,-0.14321c0.69036,0 1.25,0.55964 1.25,1.25c0,0.18502 -0.0402,0.36065 -0.11233,0.51863l1.17175,-0.46871c0.15062,-0.06433 0.31643,-0.09994 0.49057,-0.09994c0.34641,0 0.6599,0.14091 0.8863,0.36854c0.2609,-0.16415 0.52673,-0.33919 0.79176,-0.53895l0.03682,-0.00729l-0.00823,-0.01235l1.18576,-0.79051c0.20119,-0.1384 0.44493,-0.21942 0.7076,-0.21942c0.3029,0 0.58064,0.10774 0.79698,0.28698c0.03615,-0.02645 0.07271,-0.05215 0.10964,-0.07704v0l1.18579,-0.79054c0.20119,-0.13841 0.44494,-0.21942 0.7076,-0.21942c0.37514,0 0.71168,0.16525 0.9408,0.42693c0.08362,-0.01763 0.17032,-0.02691 0.25919,-0.02691c0.69036,0 1.25,0.55964 1.25,1.25c0,0.49901 -0.2924,0.92972 -0.71521,1.13015l-1.55329,0.77663c-0.1737,0.09145 -0.37156,0.14321 -0.5815,0.14321c-0.16836,0 -0.32895,-0.03328 -0.47554,-0.09363c-0.18174,0.14311 -0.37542,0.26558 -0.56542,0.36166z" fill="#797979" stroke-width="0.5"></path>
      <path d="M272.46704,198.01417c-0.04335,-0.00698 -0.0812,-0.01134 -0.11111,-0.01397l0.18484,-0.46877c1.18859,-5.99626 3.75492,-11.47381 5.85001,-17.15085c0.29813,-0.08287 0.60299,-0.3591 0.76687,-0.61284l0.77441,-1.16303c0.42768,-0.57467 0.75116,-1.22025 1.00031,-1.90147l0.2884,0.14416l0.78729,-1.57814c0.09146,-0.17371 0.10167,-0.28067 0.10167,-0.49062c0,-0.25941 -0.09872,-0.51797 -0.234,-0.71771l0.38725,-0.62575c0.13841,-0.2012 0.25541,-0.48675 0.25541,-0.74942c0,-0.69036 -0.51659,-1.16147 -1.20695,-1.16147c-0.28596,0 -0.53965,0.08656 -0.75027,0.24811l-0.50385,0.26065c-0.09214,-0.4074 -0.38063,-0.74362 -0.76319,-0.89259c0.02069,-0.27058 -0.02826,-0.60674 -0.30454,-0.88535c0.34352,-5.33043 0.72145,-10.69555 0.73464,-15.97065c0,0 0.01615,-0.49019 -0.38803,-0.85957c-0.05587,-0.31029 -0.20549,-0.53518 -0.20549,-0.53518l-0.21289,-0.31993c-0.82125,-1.22569 -1.7538,-2.46314 -2.68126,-3.59253c0.86055,0.20128 1.70198,0.52086 2.50749,0.93754c0.12527,0.13586 0.23663,0.20976 0.23663,0.20976c1.58432,1.05427 3.04059,2.21434 4.35763,3.4711c2.00472,2.25504 3.5531,4.98223 4.36692,7.45874l0.00951,0.02834c0,0 0.40128,1.18872 1.58713,0.79343c0.08707,-0.02903 0.16613,-0.06202 0.23693,-0.09879c1.21992,2.27695 2.22313,4.73395 2.99148,7.29507l-0.05135,0.84415c0,0 0.00161,0.68762 0.50578,1.04402c-0.20612,0.45823 -0.03916,0.96088 -0.03916,0.96088c0.73709,1.92278 -0.50431,4.38293 -1.43373,6.07133c-2.65354,4.82048 -6.1663,9.93776 -11.20369,12.4764l0.16717,-0.13581c0,0 -1.25288,-0.00047 -1.25288,1.24953c0,0.44133 0.15716,0.72708 0.35877,0.91179c-1.81727,1.37551 -3.78107,2.51953 -5.47289,4.08778l-1.12249,0.74681c-0.24511,0.1583 -0.43167,0.39986 -0.51876,0.68484z" fill="#0024a3" stroke-width="0.5"></path>
      <path d="M227.98792,176.93964c0.51343,-0.35454 0.51543,-1.04672 0.51543,-1.04672l-0.02414,-0.15496c0.34029,-1.70147 0.61382,-3.40617 1.16673,-5.05375c0,0 0.13117,-0.3919 0.01719,-0.80003c0.73408,-2.09207 1.68914,-4.05427 3.22192,-5.60905c1.17711,0.38407 1.57265,-0.79494 1.57265,-0.79494c1.00761,-3.12744 5.10014,-4.2654 8.01081,-5.20667c0.89676,-0.29 1.8981,-0.59662 2.79073,-0.61671c-0.0013,0.00727 -0.00257,0.0146 -0.0038,0.02198c-0.20549,1.233 1.02922,1.43874 1.02922,1.43874c0.50459,0.08388 0.96675,0.16753 1.39049,0.25493c0.01075,0.03526 0.02122,0.07119 0.03126,0.10777l0.46875,0.96391c0,0 0.56156,1.1187 1.6796,0.55969c0.39172,-0.19586 0.57817,-0.46016 0.65433,-0.72113c0.22363,0.11439 0.43939,0.23966 0.64912,0.37744c-0.79054,0.86422 0.0561,1.7103 0.0561,1.7103c1.1416,1.13621 2.19109,2.00329 3.0693,2.81912c1.47459,4.59683 1.59767,7.78822 -0.99499,12.16438l-0.65181,1.10609c0,0 -0.63204,1.0793 0.44465,1.71431c1.07669,0.63501 1.64107,-0.37093 1.64107,-0.37093l0.65277,-1.1052c0.74368,-1.26618 1.29949,-2.45943 1.68463,-3.6241c0.01475,0.00762 0.0969,-0.05899 0.11226,-0.05158c1.1257,0.54342 1.60076,-0.50932 1.60076,-0.50932l0.51843,-1.20934c0.39347,-2.86737 0.70433,-5.62022 -1.12519,-8.15351c-0.32985,-0.45674 -0.72105,-0.8634 -1.15014,-1.24322l-0.74434,-1.45386c-1.02269,-1.28475 -1.72795,-2.88573 -3.04641,-3.86457c-1.08048,-0.80216 -2.62614,-1.19216 -4.12548,-1.45678c-1.47775,-1.7092 -3.9178,-2.07767 -6.5121,-1.61381c0.46914,-0.85295 0.77344,-1.84319 0.94705,-2.81314c0.18263,-0.3804 0.35425,-0.76592 0.5119,-1.15671c0,0 0.11447,-0.28607 0.08768,-0.63096c0.57455,0.21764 1.16033,0.43593 1.74421,0.66881c7.74104,3.08742 19.03155,0.76039 24.98341,-5.19155c0.12802,-0.08534 0.25525,-0.17159 0.38144,-0.25892c-0.04355,0.49381 0.26634,0.90663 0.26634,0.90663c0.05906,0.07876 0.11863,0.15737 0.17824,0.23557c0.00909,1.40697 0.47309,2.70927 1.38454,4.10985l0.95723,0.99133c0,0 0.88487,0.88469 1.76874,0.00079c0.0004,-0.0004 0.0008,-0.0008 0.0012,-0.0012c0.36742,0.48552 0.72454,0.98172 1.06281,1.49195l0.21351,0.32011c0,0 0.06711,0.10053 0.19052,0.21811c0.00602,3.26908 -0.1271,6.577 -0.31711,9.88666c-0.87834,0.21926 -0.87807,1.20759 -0.87807,1.20759c0,2.59467 0.02981,5.13372 -0.08297,7.66453l-0.23923,0.71919c-0.04749,0.1321 -0.07317,0.27488 -0.07317,0.42333c0,0.25349 0.07586,0.49013 0.20553,0.68713c-0.10217,1.36979 -0.25446,2.74733 -0.48668,4.1337l-0.11405,2.32619c0,0 -0.00389,0.08217 0.01117,0.20506c-1.70189,4.39404 -3.5618,8.73775 -4.68548,13.33548c-0.02375,0.04637 -0.03518,0.07506 -0.03518,0.07506c-0.41404,1.041 -1.02478,1.99658 -1.54807,2.95691c0.47462,-3.15029 1.05698,-6.31618 1.67205,-9.46373l1.78748,-0.92333c-0.00015,-6.06326 0.80876,-12.02954 0.80876,-18.07931c0,0 0.00095,-0.79797 -0.63812,-1.11828c-0.05006,-0.48314 -0.10617,-0.96086 -0.16934,-1.43201c-0.08586,-0.6404 -0.17772,-1.30161 -0.46692,-1.8794c-0.15941,-0.31849 -0.93227,-0.35016 -0.81667,-0.68703c0.13051,-0.38031 1.04267,0.06391 1.16274,-0.31982c0.22563,-0.72107 -0.11315,-1.52233 -0.3617,-2.23583c-0.36275,-1.04135 -1.3743,-1.75739 -2.26825,-2.40301c-0.37091,-0.26788 -0.23088,-0.8066 -0.11929,-1.32585c0.20171,-0.15592 0.3545,-0.3721 0.43123,-0.62161l0.39124,-1.17235l0.09793,0.08849c0,0 0.81303,-0.81166 0.10156,-1.65751l0.13341,-0.26667c0,0 0.30307,-0.60462 0.01793,-1.14706c0.02576,-0.10279 0.05161,-0.2055 0.07737,-0.30829c0,0 0.20306,-0.80826 -0.38344,-1.26993c0.01419,-0.07538 0.0217,-0.15307 0.0217,-0.23256c0,-0.69036 -0.55825,-1.24904 -1.24861,-1.24904c-0.69036,0 -1.19483,0.47624 -1.19483,1.1666c0,0.37491 0.16578,0.71176 0.42719,0.94087c-0.12458,0.49953 -0.24869,0.99937 -0.37327,1.4989l-0.37906,1.13829c-0.04749,0.1321 -0.07321,0.27463 -0.07321,0.42308c0,0.24626 0.07169,0.47624 0.19465,0.66977l-0.0693,0.27766c-0.5248,0.35213 -0.52462,1.05313 -0.52462,1.05313c0.01165,1.30022 -0.19137,2.56898 0.76875,3.68598c0.51104,0.59455 1.28373,0.95251 1.7311,1.59634c0.08866,0.12759 0.48844,0.1372 0.36736,0.23456c-0.3447,0.27717 -1.1011,-0.02869 -1.16749,0.40862c-0.19961,1.31487 0.96687,2.51284 1.11728,3.83424c0.20324,1.7856 0.39947,3.64604 0.39433,5.45202l0.00077,1.20116c0,0 0.00059,0.41875 0.24215,0.77126c-0.10268,1.89541 -0.23597,3.79509 -0.35675,5.69044c-0.52987,0.2639 -0.65684,0.90129 -0.65684,0.90129c-0.83817,4.25273 -1.74038,8.6523 -2.49637,13.02171c-0.18441,0.22224 -0.2601,0.45007 -0.2601,0.45007c-0.91212,2.7702 -1.42352,5.60286 -2.39702,8.3967l-0.07202,1.6162l-0.00004,-0.00006c0,0 -0.00151,0.89646 0.75588,1.17245c-4.81114,8.17914 -10.76042,15.77906 -18.52615,21.22107c-1.04675,-0.22533 -1.40399,0.84029 -1.40399,0.84029c-0.015,0.04505 -0.03015,0.09008 -0.04528,0.13507c-0.22377,0.14485 -0.45005,0.28807 -0.67681,0.4294c-2.68797,2.01991 -5.76886,4.47898 -7.6259,7.28187l-0.14577,0.42591l-1.02594,0.6831c-3.85799,2.58187 -8.97748,3.36237 -13.51905,3.4031c-2.08209,-0.71861 -4.46982,-0.64633 -6.50031,-1.51198c-6.4977,-2.77014 -1.53579,-10.50417 0.92802,-14.16761c0.57146,-0.8497 1.59098,-1.8197 2.12902,-2.70954c0.00085,0.35864 -0.00849,0.71729 -0.02622,1.07687c-0.45921,1.47877 -1.0308,2.71284 -2.12102,4.16121l-1.23473,2.05425c0,0 -0.64434,1.07104 0.42752,1.71416c1.07187,0.64312 1.71384,-0.42947 1.71384,-0.42947l0.23224,-0.38769c0.12916,0.22971 0.36004,0.43893 0.7653,0.54975c1.20574,0.3297 1.53453,-0.87655 1.53453,-0.87655l0.10367,-0.47157c0.52119,-1.92319 0.86381,-3.84318 0.98552,-5.75029c0.16325,-0.54343 0.314,-1.11284 0.46564,-1.71941c0,0 0.21978,-0.88561 -0.4713,-1.33263c-0.09528,-1.37976 -0.32636,-2.75447 -0.70388,-4.11549c0.27039,0.14159 0.60102,0.18027 0.85967,0.26103c2.59957,0.81165 5.72372,0.52759 8.44743,1.20914c0,0 1.17425,0.39546 1.47741,-0.81722c0.30316,-1.21268 -0.91215,-1.51696 -0.91215,-1.51696c-2.75639,-0.68847 -5.68399,-0.54161 -8.35307,-1.19158c-1.41569,-0.34474 -3.63628,-2.83628 -4.77686,-3.77804c-3.98491,-3.29029 -9.51345,-5.83421 -11.27863,-11.20356c-1.50305,-2.20969 -1.46023,-4.66924 -1.93746,-7.06952l1.69218,-0.43709c0.5022,-0.29764 0.9513,-0.56405 1.35956,-0.81169c2.84983,-0.60529 4.89082,-1.4623 6.65526,-3.70397c0.33474,0.19995 0.70066,0.20216 0.70066,0.20216l1.43186,-0.00788c0.35528,0.12089 0.78768,0.25603 1.1067,0.3654c0.17298,0.23661 0.30492,0.50204 0.38078,0.80782c0,0 0.2969,1.16796 1.48276,0.77268c0.37587,-0.12529 0.69118,-0.31164 0.81229,-0.53284c0.81631,0.39215 1.61894,0.87057 2.54122,1.56263c0,0 0.1273,0.09511 0.32507,0.1725c-0.32375,1.82956 -0.60279,3.66114 -0.82299,5.53875l-0.00301,1.66954c0,0 -0.00111,1.20511 1.18781,1.24515c0.01058,0.57514 0.01696,1.13977 0.01894,1.69983l0.42599,1.74638c0,0 0.30112,1.20922 1.5138,0.90605c0.70039,-0.17509 0.89568,-0.65272 0.93523,-1.02574c0.27193,0.20379 0.87538,0.63966 1.56243,-0.04739c0.88388,-0.88389 -0.00253,-1.77183 -0.00253,-1.77183l-0.28096,-0.26249c-3.32184,-4.39329 -0.96555,-9.85959 -0.95339,-14.90142c0,0 0.00011,-0.03304 -0.00521,-0.08809c0.3424,-1.15722 0.81109,-2.26516 1.43303,-3.27761c0,0 0.60325,-1.00439 -0.32625,-1.65206c0.15441,-0.62825 0.31404,-1.26105 0.47207,-1.89301c0,0 0.11828,-0.47001 -0.08486,-0.89764l0.23201,-0.3475c0,0 0.11284,-0.16873 0.17929,-0.41485z" fill="#0024a3" stroke-width="0.5"></path>
      <path d="M240.84443,125.09919c1.0727,-0.47216 2.14915,-0.9677 3.18467,-1.52801c-0.00057,0.01648 0.09792,0.01745 0.09792,0.03407c0,0.7813 0.6319,1.40822 1.4132,1.40822c0.56473,0 0.95588,-0.30405 1.18272,-0.78255l0.73826,-1.48515c0.28989,-0.30692 0.51033,-0.68772 0.68092,-1.09908l0.45311,0.15195l0.44262,-1.33477c0.03064,-0.08525 0.05358,-0.17593 0.06743,-0.26787l0.17868,0.07499c0,0 1.07946,0.76382 1.86418,-0.41327c0.24579,-0.3687 0.30183,-0.70642 0.25914,-0.98607l0.79597,-0.26896c0.57808,-0.17778 1.00731,-0.72739 1.00731,-1.36377c0,-0.7813 -0.56467,-1.34202 -1.34597,-1.34202c-0.16801,0 -0.32743,0.02752 -0.47693,0.08127l-1.3223,0.43685c-0.43281,0.14427 -0.86259,0.28372 -1.29541,0.42799c-0.70862,-0.02076 -1.2933,-0.06922 -1.82581,-0.14055l-0.94876,-0.9028l-0.02423,0.02429l-0.04915,-0.09278c-0.21644,-0.15923 -0.42664,-0.3083 -0.63141,-0.44664c0.13563,-0.2171 0.21537,-0.4761 0.21537,-0.75094c0,-0.7813 -0.54831,-1.36214 -1.32961,-1.36214c-0.16801,0 -0.32864,0.02842 -0.47814,0.08217l-1.9373,0.64254c-0.94095,-0.00531 -1.7737,0.36371 -2.61538,1.07726c-0.0666,0.0026 -0.22614,-0.02402 -0.29007,-0.01253l-0.05003,-0.15821l-0.80268,0.60054l-1.24336,0.6198l0.01237,0.02466l-0.07167,0.00669c-0.146,0.09103 -0.29175,0.18123 -0.43773,0.2723c0.01447,-0.02181 -0.06804,-0.06779 -0.05349,-0.08953c0,0 0.40781,-0.61331 0.19588,-1.24811c0.9938,-1.29648 1.59824,-2.81153 2.52568,-4.1974c0,0 0.21895,-0.32856 0.25279,-0.75276c0.60255,-0.82685 1.23011,-1.64088 1.86481,-2.44555l1.51544,-0.91057l-0.06695,-0.11172c0.10514,-0.02585 0.21074,-0.05218 0.31588,-0.07804l0.35038,-0.50534c1.43988,-1.13965 2.73736,-2.28707 3.97363,-3.68084c0.74599,-0.55673 1.45786,-1.11054 2.40741,-1.39139c0,0 0.92873,-0.30959 0.98602,-1.18327c0.06224,-0.0597 0.11605,-0.12414 0.16181,-0.19054c0.0411,0.04197 0.08257,0.08378 0.12404,0.12553l0.9068,0.90504c0,0 1.00481,0.99936 2.00513,-0.00098c1.00032,-1.00034 0.01573,-1.90191 0.01573,-1.90191l-0.90385,-0.90564c-0.63109,-0.62623 -1.33393,-2.05673 -2.08902,-3.14437c0.42565,-0.07116 0.93139,-0.23994 1.64326,-0.54503c0.34018,-0.14579 0.41798,-0.7616 0.78737,-0.78471c1.4143,-0.08848 2.78684,2.61959 3.88986,1.72996c1.14082,-0.92012 1.71515,-1.6454 1.9147,-2.22851c2.07996,1.57359 3.60634,3.5497 5.30835,5.81946c0,0 0.26818,0.35591 0.70165,0.51903c0.45217,1.3243 1.78844,0.88173 1.78844,0.88173l0.81152,-0.38316c5.13623,3.06993 11.26335,6.43211 12.78641,12.53939c2.97688,11.59787 -1.16978,25.36019 -11.31788,32.12555c-5.25493,5.255 -15.29118,7.5178 -22.15855,4.76266c-2.64192,-1.05992 -6.70959,-1.71546 -7.31473,-4.92207c0,0 -0.15642,-0.62088 -0.67443,-0.92336c-0.08329,-0.1192 -0.15219,-0.18806 -0.15219,-0.18806l-0.72996,-0.69096c-1.96275,-2.9441 -3.01183,-6.29416 -4.55085,-9.55098c-0.43347,-2.21792 -0.47102,-4.71567 -0.19442,-7.15158c0.29224,-0.1575 0.58396,-0.31674 0.87512,-0.47671c-0.0066,0.05543 0.08872,0.09591 0.08872,0.15312c0,0.78131 0.63265,1.41109 1.41395,1.41109c0.38835,0 0.64285,-0.1334 0.89849,-0.38675l1.63021,-1.61804l-0.0904,0.36402c1.31365,-0.31062 2.39108,-0.661 3.24985,-1.0752l-0.41283,1.07769z" fill="#0024a3" stroke-width="0.25"></path>
      <path d="M259.51613,98.48389c-0.69675,-0.70142 -1.36787,-1.4452 -1.90008,-2.27833l-1.35084,-0.67542c-0.42281,-0.20043 -0.7152,-0.63114 -0.7152,-1.13014c0,-0.69036 0.55964,-1.25 1.25,-1.25h1.60001v0.32156c0.39651,-0.03594 0.79213,-0.04107 1.18221,-0.0043c-0.06314,-0.31734 -0.12465,-1.1374 0.8225,-1.45311c1.18586,-0.39528 1.58114,0.79058 1.58114,0.79058c0.52842,1.59482 1.07809,2.97166 1.79034,4.26269c1.65471,0.77799 2.93277,1.39032 4.1467,3.18342l0.00034,0.11822c0.24675,0.06889 0.50611,0.1407 0.78499,0.21509l1.07702,0.1795c0.26677,0.03963 0.50604,0.16354 0.68987,0.34379l0.29282,0.0976c0.51079,0.15708 0.88207,0.63267 0.88207,1.19497c0,0.69036 -0.55964,1.25 -1.25,1.25c-0.0674,0 -0.13355,-0.00533 -0.19806,-0.0156l-2.16181,-0.30883c-0.22195,0.20158 -0.5167,0.32443 -0.84014,0.32443c-0.14845,0 -0.29086,-0.02588 -0.42297,-0.07337l-1.1723,-0.39077l0.0437,-0.13111l-0.30558,0.00858c-0.32593,-0.31654 -0.63385,-0.63153 -0.92548,-0.94656c-0.03194,-0.01772 -0.06406,-0.0358 -0.09639,-0.05424c-0.10764,-0.01866 -0.21339,-0.04409 -0.31626,-0.07665l-0.96375,-0.46784c0,0 -0.15296,-0.07648 -0.31743,-0.22944l-0.31883,-0.10272c0,0 -1.18586,-0.39528 -0.79058,-1.58113c0.09724,-0.29173 0.24233,-0.48777 0.40583,-0.61754c-0.19202,-0.08405 -0.38533,-0.17273 -0.57897,-0.26914c0,0 -0.10617,-0.05308 -0.23671,-0.15925c-0.85657,0.75669 -1.68817,-0.07491 -1.68817,-0.07491z" fill="#001769" stroke-width="0.5"></path>
      <path d="M234.52815,127.44312c-0.64312,-1.07187 0.42875,-1.71499 0.42875,-1.71499l2.01895,-1.21114c2.85451,-1.57934 5.29389,-3.33074 8.17566,-3.98731c0.08437,-0.03864 0.16873,-0.07605 0.25293,-0.11198l-0.10759,-0.43038l1.57278,-0.3932c0.10523,-0.02876 0.21601,-0.04412 0.33036,-0.04412c0.02993,0 0.05962,0.00105 0.08902,0.00312c0.3152,-0.16908 0.67883,-0.38111 1.06951,-0.60652c-0.00562,-0.04809 -0.00851,-0.09701 -0.00851,-0.1466c0,-0.42593 0.21303,-0.80211 0.53836,-1.02779c-0.08844,-0.17145 -0.13837,-0.366 -0.13837,-0.57222c0,-0.08417 0.00832,-0.16639 0.02418,-0.24589c-0.90842,0.17057 -1.71638,0.30689 -1.81678,0.27213c-1.35899,-0.47056 -1.9936,-1.09902 -2.13461,-1.70415l-1.65164,0.47189c-0.11726,0.03641 -0.24192,0.05603 -0.37116,0.05603c-0.61758,0 -1.13056,-0.44787 -1.23185,-1.03654l-0.98663,0.49332c-0.1737,0.09145 -0.37156,0.14321 -0.58151,0.14321c-0.5783,0 -1.06488,-0.39271 -1.2076,-0.926c-0.27499,0.06538 -0.55086,0.12412 -0.82893,0.17768l0.02677,0.06247l-2.27247,0.97391c-0.15777,0.0719 -0.3331,0.11195 -0.51779,0.11195c-0.69036,0 -1.25,-0.55964 -1.25,-1.25c0,-0.41416 0.20142,-0.78127 0.51164,-1.00873l1.58837,-1.19127l0.04756,0.06342l0.1223,-0.17064c0.46162,-0.15955 0.92324,-0.31909 1.38486,-0.47864c0,0 0.61657,-0.20553 1.10873,0.12441c0.70996,-0.25077 1.50962,-0.45116 2.41346,-0.89556l0.08851,0.00323l-0.01069,-0.03207l1.1723,-0.39077c0.1321,-0.04749 0.27451,-0.07337 0.42297,-0.07337c0.47264,0 0.88401,0.26232 1.09647,0.64931c0.04472,-0.01662 0.0894,-0.03268 0.13399,-0.04818l1.29386,-0.80294c0.19483,-0.12542 0.42676,-0.19818 0.67569,-0.19818c0.69036,0 1.25,0.55964 1.25,1.25c0,0.0948 -0.01055,0.18713 -0.03055,0.27589l0.75758,-0.25252c0.1321,-0.04749 0.27451,-0.07337 0.42296,-0.07337c0.69036,0 1.25,0.55964 1.25,1.25c0,0.28596 -0.09602,0.54949 -0.25758,0.76011l-0.64465,0.85952c0.07636,-0.0164 0.14634,-0.03152 0.20707,-0.04535c0.65083,-0.14823 1.30908,-0.26172 1.96366,-0.39238l1.55113,-0.38778c0.10523,-0.02876 0.216,-0.04412 0.33036,-0.04412c0.69024,0 1.24982,0.55946 1.25,1.24966c0.11106,-0.03233 0.22851,-0.04966 0.35001,-0.04966c0.69036,0 1.25,0.55964 1.25,1.25c0,0.21743 -0.05552,0.4219 -0.15315,0.6c0.09763,0.1781 0.15315,0.38257 0.15315,0.6c0,0.44077 -0.22813,0.82825 -0.57276,1.05082l-1.18388,0.78925l-0.18551,-0.27827c-0.94806,0.83061 -1.94681,1.39465 -3.08762,1.96063c-0.09227,0.13007 -0.20879,0.24173 -0.34298,0.32839l-1.18388,0.78925l-0.18091,-0.27137l-0.16023,0.05662c-0.08738,0.04256 -0.1756,0.08574 -0.26469,0.12961c-1.47891,1.07107 -3.11013,1.55335 -5.20919,2.59992l-0.09692,-0.01058l0.01386,0.04158l-0.30865,0.10289c-1.70515,0.89868 -3.65896,1.63935 -4.66246,2.19428l-1.98105,1.18885c0,0 -1.07187,0.64312 -1.71499,-0.42875z" fill="#001769" stroke-width="0.5"></path>
      <path d="M279.12038,131.57667c-0.31654,0.87069 -1.28378,3.92105 -2.23864,4.69314c-0.56624,0.98794 -1.19041,1.94094 -1.85901,2.84889c-0.48991,0.6653 -2.16663,2.6579 -3.87853,3.63081c-1.03645,1.15873 -2.15334,2.26344 -3.32364,3.32524c-0.68896,0.62508 -2.91537,3.06549 -4.67595,3.57663c-0.94947,0.72755 -1.90849,1.44326 -2.85765,2.16228l-0.27022,-0.00024l0.02118,0.08854l-2.12012,0.50729c-0.10147,0.02659 -0.20797,0.04075 -0.31778,0.04075c-0.69036,0 -1.25,-0.55964 -1.25,-1.25c0,-0.0358 0.0015,-0.07125 0.00445,-0.10628c-0.01297,0.00551 -0.02592,0.01104 -0.03887,0.01658l-1.76878,0.81408c-0.16517,0.08048 -0.35072,0.12563 -0.54681,0.12563c-0.69036,0 -1.25,-0.55964 -1.25,-1.25c0,-0.20994 0.05176,-0.4078 0.14321,-0.5815l0.5451,-1.09022c-0.56308,0.20941 -1.12174,0.41914 -1.67063,0.63452l-0.02374,0.00032l0.00258,0.00734l-1.70456,0.59916c-0.1374,0.05195 -0.28636,0.08038 -0.44195,0.08038c-0.64921,0 -1.18282,-0.49492 -1.24413,-1.12804c-0.22297,-0.20425 -0.37161,-0.48832 -0.40068,-0.80695l-1.70733,0.31043c-0.08012,0.01612 -0.16301,0.02457 -0.24787,0.02457c-0.49093,0 -0.91575,-0.28301 -1.12023,-0.69478c-1.2394,-0.08717 -2.4518,-0.266 -3.58294,-0.54256c0,0 -1.21268,-0.30318 -0.90949,-1.51586c0.30318,-1.21268 1.51586,-0.90949 1.51586,-0.90949c2.37868,0.61054 5.1964,0.66814 7.77657,0.34573c0.15453,-0.02982 0.30561,-0.05189 0.45686,-0.0614c0.32615,-0.04694 0.64775,-0.09992 0.96339,-0.1586v-0.16306h0.39655l0.86853,-0.14475c0.00805,-0.05145 0.01924,-0.10186 0.03336,-0.15103c-0.15097,-0.11427 -0.27128,-0.23982 -0.35332,-0.37586c-0.65415,-1.08473 1.42782,-3.09389 2.72146,-4.27417c-0.01092,-0.06644 -0.01659,-0.13465 -0.01659,-0.20418c0,-0.53655 0.33806,-0.99415 0.81279,-1.17141l1.94665,-0.77866c0.15062,-0.06433 0.31643,-0.09993 0.49056,-0.09993c0.10435,0 0.20571,0.01279 0.3026,0.03688c1.56081,-1.51274 3.8989,-2.13212 5.68727,-3.61804c1.84063,-1.52934 4.01315,-3.62937 5.42196,-5.53436l0.0264,-0.00233c0.00025,-0.00032 0.00049,-0.00064 0.00074,-0.00095l-0.01507,-0.01206l1.55453,-1.94315c0.22886,-0.29115 0.58424,-0.47815 0.9833,-0.47815c0.03369,0 0.06707,0.00133 0.10009,0.00395c0.55845,-0.67279 1.10902,-1.33905 1.57492,-2.01677c1.01573,-1.47752 1.96056,-3.08668 2.71326,-4.76349v-0.82152h0.06505l-0.05568,-0.15273c0.01828,-0.07247 0.03819,-0.14435 0.05965,-0.21566c0.04116,-0.46123 0.48532,-0.99811 0.66111,-1.78354l-0.152,-0.0912l0.21716,-0.36195c0.00307,-0.04814 0.00498,-0.09712 0.00562,-0.14697c0.00948,-0.74288 -0.51661,-1.39349 -0.75106,-2.09847l0.00134,-0.04977l-0.01387,0.00347l-0.39323,-1.57281c-0.02877,-0.10524 -0.04413,-0.21602 -0.04413,-0.33038c0,-0.69036 0.55964,-1.25 1.25,-1.25c0.26266,0 0.5064,0.08101 0.70759,0.21942l1.18579,0.79052l-0.0383,0.05745c0.12916,0.07591 0.25198,0.16244 0.3667,0.26256c0.44205,0.3858 0.69829,1.40997 0.84443,2.46726c0.11657,0.19 0.18379,0.41354 0.18379,0.65279c0,0.07721 -0.007,0.15278 -0.0204,0.22612c2.76484,4.91489 0.51712,11.12697 -1.30921,16.15055zM262.09161,145.36019c-0.49013,0.41782 -1.07045,0.93333 -1.69635,1.46601c0.23063,-0.0722 0.46274,-0.14119 0.69754,-0.20691c0.06599,-0.04979 0.1332,-0.10018 0.20167,-0.15123l-0.08666,-0.19498l0.54553,-0.24246c0.0884,-0.22469 0.20231,-0.44829 0.33827,-0.67043z" fill="#001769" stroke-width="0.5"></path>
      <path d="M217.15001,215.2c0,-1.25 1.25,-1.25 1.25,-1.25h0.39999c1.25099,0 2.47539,-0.05332 3.69206,-0.11258c-0.1277,-0.21378 -0.19417,-0.50055 -0.11777,-0.88256c0.24514,-1.22573 1.47087,-0.98058 1.47087,-0.98058c1.28208,0.26065 2.55754,0.32206 3.81303,0.21954c0.11183,-0.08258 0.23791,-0.14697 0.37388,-0.18878l2.34436,-0.78146l0.09143,0.2743c0.16978,-0.02229 0.33802,-0.04975 0.50483,-0.08198c0.97403,-0.45273 1.97141,-0.86093 2.96148,-1.26111c1.12247,-0.4537 2.17982,-1.05038 3.21371,-1.69582c0.21834,-0.15214 0.43425,-0.30724 0.64761,-0.46498l-0.14548,-0.19398l1.5899,-1.19242c0.21062,-0.16155 0.47414,-0.25757 0.7601,-0.25757c0.11736,0 0.23094,0.01617 0.33863,0.04641c0.55078,-0.34499 1.10721,-0.67595 1.67566,-0.9785l1.10183,-1.10181v0l0.4885,0.48851l1.27926,-0.4885c-0.1927,0.39881 -0.39737,0.78322 -0.61284,1.15493l0.61283,0.61283l-1.60001,1.60001l-0.08574,-0.08574c-0.23189,0.13396 -0.47021,0.27897 -0.7143,0.4327c-0.11968,0.14574 -0.24101,0.28972 -0.3639,0.43209c0.4308,0.19731 0.73006,0.63224 0.73006,1.13707c0,0.44077 -0.22814,0.82826 -0.57277,1.05083l-1.18388,0.78923l-0.16204,-0.24306c-1.63109,1.63355 -3.64128,2.95696 -5.8117,3.86463c-0.32599,0.30402 -0.65044,0.61379 -0.97207,0.93121l-0.22413,0.03715l0.03345,0.07233l-2.20812,1.0211c-0.16566,0.08107 -0.3519,0.12659 -0.54877,0.12659c-0.5641,0 -1.04094,-0.37367 -1.19647,-0.88699c-0.45026,0.04266 -0.9003,0.06612 -1.34845,0.06956l-1.03212,0.34403c-0.1321,0.04749 -0.27451,0.07337 -0.42296,0.07337c-0.5694,0 -1.04988,-0.38071 -1.20077,-0.90147l-0.29732,0.04247l-0.02495,-0.17466c-2.11243,0.94124 -4.47802,0.63366 -6.87696,0.63366h-0.39999c0,0 -1.25,0 -1.25,-1.25z" fill="#001769" stroke-width="0.5"></path>
      <path d="M245.04612,200.72058c-1.12058,-0.5539 -0.56668,-1.67448 -0.56668,-1.67448l0.34415,-0.66968c0.58644,-1.75931 1.16251,-3.517 1.7285,-5.27722l-0.0701,-0.14021l0.03815,-0.01907c-0.06205,-0.11971 -0.11568,-0.24405 -0.15905,-0.37402c-0.25869,-0.77533 -0.03154,-1.95347 0.39807,-3.21397c-0.00603,-0.0498 -0.00914,-0.10051 -0.00914,-0.15194c0,-0.07812 0.00717,-0.15457 0.02088,-0.22873l0.39612,-2.37676l0.11213,0.01869c0.01449,-0.12585 0.02705,-0.24763 0.03839,-0.36578c-0.3417,-0.2231 -0.56752,-0.60889 -0.56752,-1.04742v-0.47291c-0.6029,0.39869 -1.23976,0.7317 -1.73981,0.375c-0.55771,-0.39783 -0.86824,-0.81322 -1.00111,-1.23081c-0.16112,0.04839 -0.32944,0.09543 -0.50592,0.1414c0,0 -1.21268,0.30317 -1.51585,-0.9095c-0.30317,-1.21268 0.9095,-1.51585 0.9095,-1.51585c0.41288,-0.09764 0.75626,-0.1987 1.05542,-0.31171c-0.00149,-0.02502 -0.00225,-0.05023 -0.00225,-0.07562c0,-0.44077 0.22813,-0.82825 0.57276,-1.05082l1.18388,-0.78925v0c0,0 0,0 0,-0.00001c0.82869,-1.40936 3.04567,-2.52663 4.05329,-4.0533l0.32202,-0.66564c0,0 0.12833,-0.25666 0.38498,-0.46255l0.3204,-1.28161l0.15799,0.0395c0.06306,-0.10307 0.1508,-0.22087 0.26728,-0.32483c0.18971,-1.05654 0.63955,-1.98312 1.44451,-3.22613c0.0473,-0.16801 0.09533,-0.34567 0.14274,-0.53486l0.06721,0.0161l0.01562,-0.03906l-0.06854,-0.02285l0.39088,-1.17265c0.15709,-0.51078 0.63267,-0.88206 1.19497,-0.88206c0.69036,0 1.25,0.55964 1.25,1.25c0,0.06807 -0.00544,0.13488 -0.01591,0.2c0.01047,0.06512 0.01591,0.13192 0.01591,0.2c0,0.14845 -0.02588,0.29086 -0.07337,0.42296l-0.39077,1.17233l-0.01383,-0.00461c-0.01626,0.03357 -0.03486,0.06747 -0.05484,0.10163l0.0057,0.05689c-0.04686,0.07029 -0.09158,0.14163 -0.13446,0.21377c-0.08157,0.29927 -0.16352,0.58324 -0.24754,0.8568c-0.07068,0.61084 -0.09418,1.22839 -0.17898,1.83768c-0.30436,2.18699 -0.58008,5.36798 -1.91836,7.23067c-0.25253,0.35148 -0.99701,1.17241 -1.8376,1.66189c0.68761,0.00322 1.24403,0.56162 1.24403,1.24999c0,0.11436 -0.01536,0.22513 -0.04412,0.33036l-0.3932,1.57281l-0.1477,-0.03692c-0.08547,0.18585 -0.16696,0.38301 -0.24552,0.58921c-0.00472,0.05006 -0.00964,0.10013 -0.01477,0.1502c0.01204,0.03717 0.02362,0.07454 0.03472,0.11211c0.40657,1.37571 -0.97529,5.2984 -1.21561,6.73677l-0.02584,0.04495l0.01471,0.00368l-0.39365,1.57464c-0.11115,0.4898 -0.50992,0.87035 -1.00936,0.9547c-0.49246,1.3337 -0.9857,2.64843 -1.41437,3.93449l-0.4747,0.98692c0,0 -0.5539,1.12058 -1.67448,0.56668z" fill="#001769" stroke-width="0.5"></path>
      <path d="M223.2,199.64999c-1.25,0 -1.25,-1.25 -1.25,-1.25l0.01701,-1.0055c0.00468,-0.02615 0.01779,-0.23579 0.03784,-0.5445c-0.00161,0.00001 -0.00322,0.00001 -0.00483,0.00001c-0.26757,0 -0.51551,-0.08407 -0.71883,-0.22724c-0.08811,0.04123 -0.17845,0.07886 -0.27001,0.11228c-0.22727,0.3121 -0.59552,0.51496 -1.01115,0.51496c-0.09286,0 -0.18336,-0.01013 -0.27045,-0.02934l-1.97469,-0.39493l0.00731,-0.03656c-0.11831,-0.02248 -0.2357,-0.05114 -0.35199,-0.08708c-1.31623,-0.40674 -1.78343,-1.90311 -2.34037,-3.10439c-1.80068,-0.83927 -3.79802,-1.45851 -5.4651,-2.01187c0,0 -1.18585,-0.39529 -0.79057,-1.58114c0.39529,-1.18585 1.58114,-0.79057 1.58114,-0.79057c0.40343,0.135 0.81453,0.27265 1.23016,0.41459c-0.04882,-0.13372 -0.07546,-0.27811 -0.07546,-0.42873c0,-0.30431 0.10874,-0.58322 0.28949,-0.8c-0.18075,-0.21678 -0.28949,-0.49569 -0.28949,-0.8c0,-0.69036 0.55964,-1.25 1.25,-1.25c0.14845,0 0.29086,0.02588 0.42296,0.07337l1.17233,0.39077l-0.05313,0.15939l0.35033,0.17516l0.1466,0.0013h1.16093c0.26298,0 0.50699,0.08121 0.70833,0.21992c0.29003,0.03238 0.57581,0.10696 0.85388,0.23372c0.88132,0.40177 2.22606,1.06532 2.08791,2.02283c0.19339,0.06425 0.36502,0.16967 0.52244,0.30195c0.16879,-0.01728 0.33787,-0.02028 0.50067,-0.00874c1.29273,-1.42967 2.88441,-1.74925 3.75298,1.03774c0.05535,0.17761 0.05886,0.42237 0.02751,0.70583c0.36109,-0.69224 0.69179,-1.39457 1.02917,-2.12489c-0.43232,-0.1967 -0.73289,-0.63243 -0.73289,-1.13836c0,-0.11436 0.01536,-0.22513 0.04412,-0.33036l0.3932,-1.5728l0.01032,0.00258c0.02816,-0.10707 0.06579,-0.21228 0.11461,-0.31529c0.17473,-0.36874 0.34806,-0.67964 0.51896,-0.93858c0.01455,-0.16151 0.02717,-0.32322 0.03798,-0.48508l-0.24583,-0.7375c-0.04749,-0.1321 -0.07337,-0.27451 -0.07337,-0.42296c0,-0.55733 0.36475,-1.02947 0.86856,-1.19073c-0.00473,-0.01366 -0.00924,-0.02744 -0.0135,-0.04131l-0.35084,-1.05246l-0.69427,-1.02212c0,0 -0.68567,-1.02852 0.32948,-1.72182c0.09577,-0.15735 0.24452,-0.30966 0.46745,-0.44342c0.19623,-0.11774 0.37809,-0.178 0.54426,-0.19788c-0.08467,-0.21839 -0.17131,-0.44017 -0.26172,-0.66602c0,0 -0.46423,-1.1606 0.69637,-1.62483c0.10554,-0.04222 0.20533,-0.071 0.29953,-0.08843c0.04023,-1.14342 0.11643,-2.30855 0.11468,-3.55097c0,0 0,-1.25 1.25,-1.25c1.25,0 1.25,1.25 1.25,1.25c-0.00291,2.23527 -0.32444,4.22275 -0.099,6.30016l0.03485,0.10456l-0.02218,0.00739c0.01631,0.1383 0.0351,0.27703 0.05664,0.41628c0.2166,0.46256 0.38528,0.95499 0.56058,1.5847l1.50299,1.50302l-0.21278,0.21277c0.36306,0.37369 0.65732,0.79299 0.83621,1.27858l0.72327,1.08493c0.1384,0.20119 0.21941,0.44493 0.21941,0.70759c0,0.69036 -0.55964,1.25 -1.25,1.25c-0.17413,0 -0.33994,-0.03561 -0.49056,-0.09993l-1.97368,-0.78948l0.14547,-0.36368c-0.43899,-0.17922 -0.85476,-0.39739 -1.23169,-0.66769c-0.1043,0.16259 -0.21903,0.33311 -0.34467,0.51266c0.40747,0.6454 0.67501,1.53678 0.73767,2.29452c0.05967,0.72152 -0.61729,1.31013 -0.90225,1.97568c-0.48749,1.13856 -0.95377,2.20678 -1.49028,3.24052v1.4474h-0.45668c0.06439,0.93165 0.03764,1.83364 0.04586,2.75042c1.2108,0.02585 1.2108,1.24958 1.2108,1.24958c-0.0065,1.57919 0.23368,2.90838 0.73584,4.40472l0.17316,-0.32277c0,0 1.11804,0.559 0.55904,1.67704c-0.559,1.11804 -1.67704,0.55904 -1.67704,0.55904l-1.36057,-1.07059c-0.02659,0.00169 -0.05341,0.00255 -0.08043,0.00255c-0.59488,0 -1.0927,-0.41555 -1.21902,-0.9722l-0.39365,-1.57464v0c-0.09235,-0.38048 -0.20069,-0.85913 -0.29737,-1.38773c-0.18514,0.19041 -0.46548,0.33456 -0.88997,0.33456z" fill="#001769" stroke-width="0.5"></path>
      <path d="M226.57289,239.16158c-0.49054,0.09615 -1.03555,0.18296 -1.65504,0.26407l1.48778,-2.19048c-0.31232,0.12995 -0.62841,0.25464 -0.94957,0.37404l0.13472,0.23576l-2.15155,1.22945c-0.18704,0.11152 -0.40565,0.17559 -0.63923,0.17559c-0.69036,0 -1.25,-0.55964 -1.25,-1.25c0,-0.06258 0.0046,-0.12409 0.01348,-0.1842l-1.78198,0.89097c-0.1737,0.09145 -0.37156,0.14321 -0.5815,0.14321c-0.57164,0 -1.05366,-0.38372 -1.20253,-0.90764c-0.34375,0.15727 -0.7152,0.29493 -1.11713,0.41167c-0.23529,0.06834 -0.49634,0.15819 -0.76562,0.24305l-0.70598,0.9413c-0.22746,0.31022 -0.59457,0.51163 -1.00873,0.51163c-0.67393,0 -1.2233,-0.53333 -1.24906,-1.20096c-0.66762,-0.02576 -1.20096,-0.57512 -1.20096,-1.24906c0,-0.34518 0.13992,-0.65769 0.36613,-0.8839l0.92373,-0.92371c-0.29783,-0.22848 -0.48984,-0.58801 -0.48984,-0.99238c0,-0.20621 0.04993,-0.40076 0.13837,-0.57222c-0.32533,-0.22568 -0.53836,-0.60186 -0.53836,-1.02779c0,-0.14845 0.02588,-0.29086 0.07337,-0.42297l0.34726,-1.04178c-0.25803,-0.22899 -0.42063,-0.56313 -0.42063,-0.93525c0,-0.17413 0.0356,-0.33994 0.09993,-0.49055l0.78946,-1.97368l0.29536,0.11814c0.32822,-1.0299 0.86974,-1.7574 1.88348,-2.81727c0.39664,-0.83158 0.71344,-1.71474 0.9691,-2.73983c0,0 0.30319,-1.21267 1.51586,-0.90949c1.21267,0.30319 0.90949,1.51586 0.90949,1.51586c-0.009,0.03593 -0.01808,0.07172 -0.02722,0.10738c0.50173,0.16248 0.86454,0.63359 0.86454,1.18944c0,0.11436 -0.01536,0.22513 -0.04412,0.33036l-0.3932,1.57281l-0.44529,-0.11132c-0.13691,0.4882 -0.31103,0.94417 -0.51768,1.38309c0.5707,0.11571 1.00029,0.62021 1.00029,1.22505c0,0.20995 -0.05176,0.40781 -0.14322,0.58152l-0.2089,0.4178l0.87982,-0.48365c0.18324,-0.10539 0.39573,-0.16566 0.62229,-0.16566c0.69036,0 1.25,0.55964 1.25,1.25c0,0.07024 -0.00579,0.13913 -0.01693,0.20622c0.66658,-0.29602 1.32818,-0.59457 1.93408,-0.94125l3.03777,-0.40838c-0.47112,0.99152 -0.92416,1.76344 -1.40931,2.42492l1.12575,-0.43659c0.14743,-0.06116 0.30909,-0.09491 0.47864,-0.09491c0.29796,0 0.57157,0.10425 0.78634,0.27827l1.01693,-0.52691c0.17733,-0.09652 0.38062,-0.15135 0.59671,-0.15135c0.64206,0 1.17105,0.48408 1.24193,1.10717c0.30735,-0.166 0.60158,-0.33346 0.87622,-0.50491l1.17425,-0.78284c0.20119,-0.1384 0.44493,-0.21942 0.7076,-0.21942c0.69036,0 1.25,0.55964 1.25,1.25c0,0.14845 -0.02588,0.29086 -0.07337,0.42297l-0.00446,0.01339c0.79326,-0.95753 1.60812,-1.87797 2.68714,-2.45953c0.01827,-0.02086 0.03722,-0.04111 0.05682,-0.06071l1.19998,-1.20001c0.00174,-0.00174 0.00349,-0.00348 0.00524,-0.00521l0.3948,-0.3948c0.72083,-0.71941 1.29576,-1.37318 1.90084,-1.88829c0.04159,-0.05288 0.08736,-0.10231 0.1368,-0.14782l1.78799,-1.65554l0.01272,0.01374l0.02812,-0.04993c0.43292,-0.33603 0.85835,-0.67597 1.27863,-1.0177l0.05828,-0.05784l0.00571,0.00576c0.00971,-0.00791 0.01942,-0.01582 0.02913,-0.02373c0.0309,-0.37074 0.2236,-0.69551 0.50728,-0.9035l1.58837,-1.19125l0.03656,0.04874c2.3571,-1.91702 4.54901,-3.98086 6.66008,-6.13849c0.01791,-0.22404 0.0949,-0.43142 0.21538,-0.60657l1.37722,-2.06594l0.23871,0.15913c1.02467,-1.95026 2.29792,-3.43996 4.22005,-5.35699l0.97839,-1.35754c0.22613,-0.32194 0.60029,-0.53236 1.0236,-0.53236c0.06899,0 0.13668,0.00559 0.20263,0.01634c0.45671,-0.61748 0.90928,-1.24037 1.35867,-1.87098c2.31438,-4.82913 4.16126,-9.91266 4.79835,-15.05041c0,0 0.15504,-1.24035 1.39539,-1.08531c0.26464,0.03308 0.46576,0.11557 0.61842,0.22487c0.44784,-2.01736 1.0049,-4.17641 1.88823,-5.85059l0.11128,-0.57245l0.18248,0.03547c0.02309,-0.44264 0.0921,-0.8778 0.23018,-1.29892l0.38409,-1.92048c0.07376,-0.41068 0.34811,-0.75173 0.71802,-0.91812c0.19148,-0.74986 0.37631,-1.50254 0.55393,-2.2574l-0.4899,-1.30496l0.02209,-0.00829c-0.03333,-0.08813 -0.06385,-0.17753 -0.0912,-0.26834c-0.21027,-0.69808 0.00536,-1.44088 0.14892,-2.17533c-0.02061,-0.05407 -0.03758,-0.10995 -0.0506,-0.16732l-0.39365,-1.57464l0.03071,-0.00768c-0.02525,-0.07575 -0.0475,-0.15273 -0.06637,-0.23109c-0.13329,-0.55358 0.00357,-1.11989 0.1489,-1.68768l-0.32179,-0.45587l0.01701,-0.01201c-0.00661,-0.00855 -0.01318,-0.01714 -0.01972,-0.02575c-0.17465,0.09275 -0.37391,0.14529 -0.58544,0.14529c-0.52374,0 -0.97224,-0.3221 -1.15823,-0.77901l-0.98325,-2.26724l0.02437,-0.01057l-0.05453,-0.06573c-0.67151,-2.3571 -1.09524,-4.76838 -1.46004,-7.19243c-0.2197,0.12548 -0.45111,0.25554 -0.69544,0.39162l-2.09445,1.28941c-0.19409,0.12402 -0.42472,0.1959 -0.67213,0.1959c-0.69036,0 -1.25,-0.55964 -1.25,-1.25c0,-0.2654 0.08271,-0.51148 0.22376,-0.71387c-1.53228,0.37225 -3.22067,0.54146 -4.38299,0.79008l-1.55735,0.38934c-0.10524,0.02876 -0.21601,0.04412 -0.33037,0.04412c-0.69036,0 -1.25,-0.55964 -1.25,-1.25c0,-0.11463 0.01543,-0.22566 0.04433,-0.33112c-0.229,0.01931 -0.45914,0.02286 -0.6898,0.01928c-0.93187,0.07896 -1.82091,0.09684 -2.31428,-0.05738c-1.70693,-0.07257 -3.20806,-0.36814 -4.81194,-1.18078h-1.3783c-0.69036,0 -1.25,-0.55964 -1.25,-1.25c0,-0.69036 0.55964,-1.25 1.25,-1.25h1.60001v0.21857l0.28719,-0.18513c0.10302,0.05019 0.20508,0.09741 0.30622,0.14186c0.95487,-0.23842 1.94595,-0.24183 2.9582,-0.14271l0.04839,-0.03259c0.07606,0.02213 0.15287,0.04285 0.23032,0.06231c0.65857,0.07571 1.32546,0.1894 1.99657,0.305c0.74963,0.07788 1.49102,0.15052 2.15454,0.32926c1.22515,-0.1711 2.47029,-0.29249 3.71708,-0.42763l1.03725,-1.37953c0.73741,-0.28693 1.54088,-0.39713 2.35385,-0.38099c0.02681,-0.01072 0.05362,-0.02143 0.08044,-0.03215l0.01407,0.03459c0.0053,0.00017 0.01059,0.00034 0.01589,0.00052v-0.51138h1.59998c0.08155,0 0.16127,0.00781 0.23847,0.02272c0.19118,-0.12672 0.38271,-0.25357 0.57468,-0.37936c-0.04097,-0.12369 -0.06315,-0.25593 -0.06315,-0.39336c0,-0.34518 0.13991,-0.65768 0.36612,-0.88389l1.20001,-1.2l0.2989,0.2989c0.49215,-0.55986 1.05587,-1.03938 1.70663,-1.36987l0.75656,0.01116l0.09882,-0.03294c0.1321,-0.04749 0.27451,-0.07337 0.42297,-0.07337c0.1931,0 0.37597,0.04378 0.53923,0.12197l0.88611,0.01307c-0.05467,0.11406 -0.10935,0.22597 -0.16407,0.33582c0.36627,0.16693 0.57883,0.48577 0.57883,0.48577c2.09315,3.1714 4.85928,4.43881 6.14578,8.29806l-0.86698,0.89947l0.21485,0.50132l-0.01242,0.00532c0.02037,0.04112 0.04027,0.08251 0.05966,0.12419c2.07473,4.45999 -0.52645,11.56519 -1.25845,16.06725l-0.07557,0.11506l0.03296,0.01298l-0.1263,0.32065c-0.30359,3.30127 -1.00153,6.58617 -2.01284,9.81849l0.04509,0.13526l-0.03844,0.01281c0.01813,0.04582 0.03461,0.09232 0.04929,0.13958c0.65434,-0.5904 1.32563,-1.16948 2.0064,-1.74156c-0.20346,-0.0687 -0.41146,-0.20997 -0.60313,-0.46553c-0.75,-1 0.25001,-1.75 0.25001,-1.75c5.7489,-4.30953 10.02706,-9.23673 12.3358,-16.10271l0.38394,-1.91973c0.10493,-0.58424 0.61583,-1.02757 1.23027,-1.02757c0.5623,0 1.03789,0.37128 1.19497,0.88207l0.39088,1.17267l-0.03738,0.01246c0.03037,0.05975 0.05891,0.12057 0.08538,0.18259c0.03192,0.07477 0.00749,3.65112 0.01006,3.67704c0.01457,0.14693 0.03237,0.29432 0.05291,0.4421c0.59233,0.76959 0.77311,1.955 0.75078,2.95873c-0.00302,0.13579 -0.0118,0.27647 -0.02575,0.42139c0.24014,1.04506 0.43711,2.08591 0.42816,3.10095c-0.06929,7.86445 -6.25965,13.60362 -11.48333,18.79249c-1.63035,2.38499 -4.03375,3.54733 -6.30951,5.07083c-0.89893,0.60178 -1.47707,1.73183 -2.50798,2.05959c-1.45435,0.46238 -2.5497,0.62127 -2.9754,-0.14113c-0.21284,0.16798 -0.48161,0.26823 -0.7738,0.26823c-0.61444,0 -1.12534,-0.44333 -1.23027,-1.02757l-0.32621,-1.63106c-0.33731,0.99829 -0.70508,1.9903 -1.09822,2.97471c0.66248,0.67574 0.09478,1.52728 0.09478,1.52728c-0.7121,1.06805 -1.42847,2.10802 -2.15311,3.12831c-0.21512,0.44621 -0.43399,0.89031 -0.6561,1.33215c0.1303,0.03131 0.26914,0.08775 0.41594,0.17652c1.06965,0.64679 0.42286,1.71645 0.42286,1.71645l-1.28287,2.1164c-2.16373,2.70695 -4.34837,5.44762 -7.01071,7.56146c-0.1221,0.15044 -0.24372,0.30172 -0.3646,0.45401l-0.06041,0.00451l0.0312,0.02856l-0.37262,0.40708l0.06925,0.07004l-1.4274,1.41145c-0.22583,0.22351 -0.53643,0.36153 -0.87927,0.36153c-0.09152,0 -0.18074,-0.00984 -0.26666,-0.02851l-0.82243,0.61683c-2.86834,3.426 -6.3775,6.3902 -9.88688,9.08771c-0.51714,0.3975 -0.94652,0.78366 -1.34883,1.1263c-0.53139,0.56578 -1.1951,1.08271 -1.92346,1.68613c-0.74684,0.80451 -1.47383,1.62061 -2.15727,2.44219c-0.04905,0.05896 -0.09519,0.11635 -0.13878,0.17227c0.01451,0.0762 0.02211,0.15484 0.02211,0.23526c0,0.5018 -0.29568,0.93454 -0.72232,1.13349l-0.34896,0.17183c-0.28276,0.31315 -0.69102,0.59964 -1.48123,0.93197c-0.02001,0.00842 -0.04006,0.01673 -0.06014,0.02493l0.00577,0.00962l-1.98238,1.18944c-0.1917,0.1196 -0.41815,0.18871 -0.66074,0.18871c-0.22967,0 -0.44488,-0.06194 -0.62982,-0.17003l-1.79904,0.514c-0.11726,0.03641 -0.24192,0.05602 -0.37115,0.05602c-0.36818,0 -0.69919,-0.15918 -0.92794,-0.41248l-0.23827,0.01203c0,0 -0.69315,0.01873 -1.06089,-0.48797zM274.70537,190.5445c0.37633,-0.55279 0.7522,-1.10427 1.12997,-1.65369l-0.43252,0.20653c-0.16898,0.08522 -0.35994,0.13322 -0.56211,0.13322c-0.41762,0 -0.7874,-0.2048 -1.0144,-0.51944c-0.08316,0.06831 -0.16619,0.13654 -0.24907,0.2047c-0.33078,1.0542 -0.67822,2.10539 -1.03819,3.15238c0.56723,-0.4883 1.35867,-1.0149 2.16632,-1.52371z" fill="#001769" stroke-width="0.5"></path>
      <path d="M255.45365,143.55037c0.1055,0.03784 1.31545,0.50287 0.88745,1.78689c-0.44735,1.34208 -1.78944,0.89473 -1.78944,0.89473l-2.17608,-1.1621c0.12858,-0.81751 0.03681,-1.70248 0.37912,-2.45454c-0.56924,-0.18306 -0.98116,-0.71693 -0.98116,-1.34701c0,-0.32362 0.10867,-0.62187 0.2915,-0.86023l1.34949,-1.79936c0,0 0.8488,-1.13175 1.98055,-0.28295c0.61331,0.45997 0.64499,1.00304 0.54532,1.40407c0.05428,0.02533 0.0968,0.07497 0.12438,0.1555c0.90299,2.63566 0.42009,3.1626 -0.61114,3.66502z" fill="#000000" stroke-width="0.5"></path>
      <path d="M278.42969,118.19511c-1.37244,0.3431 -1.71555,-1.02934 -1.71555,-1.02934l-0.11823,-1.19268c-0.51457,-0.23462 -1.37767,-0.16324 -1.54369,-0.70385c-0.11289,-0.3676 0.0175,-0.74547 0.21949,-1.10778c-0.42482,-0.01129 -0.98422,-0.18824 -1.24338,-0.96569c-0.44738,-1.34208 0.8947,-1.78945 0.8947,-1.78945c0.9139,-0.05706 2.07721,-0.80123 2.74168,-0.17119c0.63356,0.60071 -0.45942,1.79193 -0.16535,2.61398c0.13357,0.3734 0.78168,0.13439 1.17252,0.20158l0.78715,2.42887c0,0 0.3431,1.37245 -1.02934,1.71555z" fill="#000000" stroke-width="0.5"></path>
      <path d="M247.53167,183.25514c0.67876,1.04966 -0.3709,1.72842 -0.3709,1.72842l-1.42284,0.91781c-0.80598,0.40252 -1.67324,0.70827 -2.56369,0.9092l0.10306,0.3092l-1.17233,0.39077c-0.1321,0.04749 -0.27451,0.07337 -0.42296,0.07337c-0.69036,0 -1.25,-0.55964 -1.25,-1.25c0,-0.11857 0.01651,-0.23329 0.04735,-0.34197c-0.155,0.04323 -0.31239,0.079 -0.47527,0.10825l0.07319,0.21958l-1.17233,0.39077c-0.1321,0.04749 -0.27451,0.07337 -0.42296,0.07337c-0.68285,0 -1.23782,-0.54755 -1.2498,-1.22754l-0.56868,0.28434c-0.1737,0.09145 -0.37156,0.14321 -0.58151,0.14321c-0.45776,0 -0.85806,-0.24606 -1.07582,-0.61314c-0.26384,0.07216 -0.53352,0.13083 -0.80643,0.18017l-0.40087,0.43259l-0.34393,-0.31871c-0.01781,0.00231 -0.03562,0.0046 -0.05343,0.00687l-1.16049,0.58025l-0.03125,-0.0625l-0.04942,0.09932c-0.4277,0.14367 -0.85539,0.28733 -1.28309,0.431c0,0 -1.18586,0.39528 -1.58113,-0.79058c-0.39528,-1.18586 0.79058,-1.58113 0.79058,-1.58113c0.3654,-0.12071 0.73081,-0.24143 1.09621,-0.36214l2.15364,-1.07682c0.1737,-0.09145 0.37156,-0.14321 0.58151,-0.14321c0.3155,0 0.6037,0.11689 0.82365,0.30971c0.23937,-0.25326 0.50891,-0.47765 0.79108,-0.66458l0.17473,-0.0005l-0.02082,-0.06246l1.17233,-0.39077c0.1321,-0.04749 0.27451,-0.07337 0.42296,-0.07337c0.34465,0 0.65672,0.13948 0.88284,0.36507c0.32453,-0.24555 0.67681,-0.46106 0.99483,-0.65071l0.14295,-0.00247l-0.01592,-0.04775l1.17233,-0.39078c0.1321,-0.04749 0.27451,-0.07337 0.42297,-0.07337c0.69004,0 1.24948,0.55913 1.25,1.24904l1.12703,-0.37567c0.1321,-0.04749 0.27451,-0.07337 0.42296,-0.07337c0.69036,0 1.25,0.55964 1.25,1.25c0,0.12034 -0.01701,0.23671 -0.04875,0.34684l0.91997,-0.5965c0,0 1.04966,-0.67876 1.72842,0.3709z" fill="#000000" stroke-width="0.5"></path>
      <path d="M231.36396,218.4929c-0.559,-1.11804 0.55904,-1.67704 0.55904,-1.67704l0.96373,-0.46781c0.39111,-0.13037 0.78222,-0.26074 1.17333,-0.39111c0.17777,-0.5926 0.82667,-0.8089 0.82667,-0.8089l1.04608,-0.33704c1.24335,-0.80605 1.85154,-2.02965 2.7492,-3.22711c0,0 0.61052,-0.81402 1.46433,-0.42236c1.289,-1.49459 2.37504,-3.20482 2.72299,-4.73079c0,0 0.26307,-1.05228 1.27931,-0.95135c0.28248,-0.45061 0.55963,-0.90612 0.82624,-1.36501c-0.00366,-0.00709 -0.0073,-0.01426 -0.01092,-0.02149c-0.559,-1.11804 0.55904,-1.67704 0.55904,-1.67704l0.17316,0.32277c0.7896,-2.36557 1.42033,-5.06845 2.45021,-7.32704c0.45133,-0.9898 1.12456,-1.99053 1.08562,-3.07768c0,0 0,-0.56269 0.37753,-0.93302l0.04991,-0.14935l0.10454,-1.07663c0.13395,-0.26221 0.25122,-0.51769 0.35385,-0.76875c0.11282,-0.57246 0.22563,-1.14493 0.33845,-1.71739c0,0 0.03827,-0.19137 0.16019,-0.40775c0.05841,-0.29884 0.11447,-0.5926 0.16734,-0.88346c0.0448,-0.64332 0.04958,-1.31864 0.0482,-2.06366c0,0 0,-0.53329 0.34833,-0.90321c0.03461,-0.48368 0.05305,-0.97946 0.05167,-1.49679c0,0 0,-1.25 1.25,-1.25c0.60989,0 0.92221,0.29757 1.08214,0.60234c0.3419,0.22306 0.56788,0.60897 0.56788,1.04765c0,0.38244 -0.17175,0.72476 -0.44232,0.95405c-0.02461,0.40965 -0.05937,0.81115 -0.10276,1.20882c0.23313,0.43866 0.10773,0.9403 0.10773,0.9403c-0.18605,0.72492 -0.36571,1.43228 -0.54244,2.13422c-0.05558,0.39261 -0.12752,0.77973 -0.22027,1.16689c-0.00071,0.04048 -0.01173,0.36217 -0.18133,0.66848c-0.06536,0.21525 -0.13786,0.43148 -0.21828,0.64963c-0.00211,0.00851 -0.00421,0.01702 -0.00632,0.02553l0.00598,1.45208c0,0 0,0.86357 -0.71778,1.15515l-0.13277,0.39921c-0.21966,2.03322 -1.09219,4.22307 -1.98834,6.35483c-1.06734,4.14815 -4.0724,8.30413 -6.39747,11.89446l-1.44237,1.78322c0,0 -0.17951,0.22158 -0.47288,0.36733c-0.95659,1.02962 -1.98299,1.94359 -2.96962,2.6614l-0.24489,0.26831c0,0 -0.32274,0.32274 -0.7732,0.38316c-0.11554,0.08554 -0.23584,0.17077 -0.36152,0.25585l-1.32715,0.45381c-0.17766,0.5928 -0.82675,0.80916 -0.82675,0.80916c-0.39999,0.13333 -0.79999,0.26666 -1.19998,0.39999l-0.6363,0.33218c0,0 -1.11804,0.559 -1.67704,-0.55904z" fill="#000000" stroke-width="0.5"></path>
      <path d="M272.3,200.45c-0.42836,0 -0.85671,0 -1.28507,0c-0.7417,1.45147 -1.50982,2.89629 -2.30788,4.32731c-0.52733,1.41874 -1.00321,2.85873 -1.45837,4.30625c-2.13687,1.37172 -4.19058,4.15622 -5.74417,6.8605c-3.99539,5.28466 -8.63944,10.02495 -14.16709,13.74482c-0.55434,1.56786 -1.16154,3.1118 -1.69059,4.69373l-0.06751,0.06377l0.03144,0.01563l-0.79732,1.60396c-0.08377,0.17782 -0.20822,0.33269 -0.36136,0.45262c-0.07476,0.31921 -0.19306,0.64223 -0.32013,1.0011c0.00005,0.00473 0.00008,0.00946 0.00008,0.0142c0,0.11436 -0.01536,0.22514 -0.04413,0.33038l-0.39323,1.57281l-0.1195,-0.02988l-0.2982,0.89461c-0.01014,0.03297 -0.0216,0.06535 -0.03433,0.09709c-0.26592,0.9214 -0.80743,1.80061 -1.74022,3.05693l-0.0391,0.05869c0.35047,0.43203 0.25167,1.02485 0.25167,1.02485c-0.65083,3.86147 -0.42844,7.37883 0.41297,10.99534c0.11225,-0.03309 0.23107,-0.05084 0.35403,-0.05084c0.59487,0 1.09269,0.41554 1.21902,0.97218l0.39368,1.57464l-0.00025,0.00006c0.12419,0.48827 0.0926,0.98705 -0.03916,1.48169c1.12088,1.6406 2.23184,4.0703 2.0606,5.02165c-0.26779,1.48776 -2.37029,2.42409 -3.52181,2.94008c-1.75136,0.78477 -3.52285,1.08359 -5.33927,1.44388l-1.59766,1.3821c-2.70211,0.92741 -8.82094,2.51853 -12.14949,0.98922c-1.02418,-0.32328 -2.09192,-0.82389 -2.98439,-1.16209l-0.1251,-0.40415l-0.15622,0.10415l-0.79054,-1.18579c-0.13696,-0.19909 -0.21772,-0.43985 -0.21939,-0.69937c-0.84494,0.63399 -2.05756,1.51887 -2.27168,1.54662c-0.08074,0.01046 -0.16154,0.0187 -0.24239,0.02492l0.00919,0.04595l-1.97469,0.39493c-0.08709,0.01921 -0.17759,0.02934 -0.27045,0.02934c-0.31141,0 -0.59623,-0.11388 -0.81507,-0.30226c-1.051,0.26694 -2.09852,0.55528 -3.1465,0.82318c-0.07912,0.57866 -0.55428,1.03122 -1.14334,1.07552l-1.73616,0.14943c-5.1551,0.4437 -10.01,0.68691 -15.16496,0.2374c-2.05717,-0.17939 -3.61481,0.17005 -5.53095,-1.02363c-0.96298,-0.5999 -1.38866,-1.5239 -1.43787,-2.57175c-0.60758,-0.08504 -1.07515,-0.60685 -1.07515,-1.23787c0,-0.24259 0.06911,-0.46904 0.18871,-0.66074l1.18944,-1.98238l0.39296,0.23578c0.88798,-1.53752 2.01572,-2.68325 3.68949,-4.362l0.73858,-1.1079c0.22257,-0.34463 0.61005,-0.57277 1.05083,-0.57277c0.07397,0 0.14644,0.00642 0.21688,0.01875c1.40242,-2.02697 2.72698,-4.11068 4.08311,-5.91874c0.31601,-0.42132 0.62886,-0.86755 0.94642,-1.32096c0.06621,-0.1573 0.13642,-0.25559 0.13642,-0.25559c0.74239,-1.03926 1.47107,-2.08588 2.19324,-3.13745c1.3995,-3.36196 2.88161,-6.66188 4.03806,-10.13129c0,0 0.1171,-0.35131 0.41504,-0.60776l-0.51307,-0.51307c-0.22621,-0.22621 -0.36612,-0.53871 -0.36612,-0.88388c0,-0.35618 0.14897,-0.67756 0.388,-0.90524c-0.56678,-1.11527 -0.77485,-2.37508 -0.41615,-3.40519c-0.22957,-0.22664 -0.37185,-0.54149 -0.37185,-0.88958c0,-0.28596 0.09602,-0.54949 0.25758,-0.76011l1.17686,-1.56911c0.61817,-0.92822 0.75671,-1.87591 1.25915,-2.26306c0.04017,-0.15811 0.11047,-0.30419 0.20444,-0.43177l0.92686,-1.2914c0.15822,-0.22627 0.38944,-0.39772 0.65949,-0.4802l0.16409,-0.18232c0.05199,-0.0577 0.10282,-0.11451 0.15256,-0.17045c-0.00069,-0.0171 -0.00104,-0.03429 -0.00104,-0.05156c0,-0.34518 0.13991,-0.65768 0.36612,-0.88388l1.76777,-1.76777l0.01225,0.01225c0.0067,-0.00633 0.0134,-0.01266 0.0201,-0.01899c0.00771,-0.01516 0.01543,-0.03032 0.02314,-0.04547l0.02178,0.00312c0.01485,-0.01398 0.0297,-0.02795 0.04456,-0.04191l-0.00777,-0.00994l0.11097,-0.08675c0.19404,-0.18126 0.38903,-0.36053 0.58495,-0.53799c0.00841,-0.01509 0.01688,-0.02971 0.02535,-0.04385l-0.01258,-0.01887l0.04157,-0.02772c0.08785,-0.13606 0.16794,-0.21615 0.16794,-0.21615l1.66488,-1.6604c1.62195,-1.21975 3.25259,-2.36219 4.83812,-3.63177c0,0 0.12894,-0.10315 0.33059,-0.18761c-0.00959,-0.1373 -0.00147,-0.29341 0.04551,-0.45044c-0.5831,-0.52576 -1.12456,-1.02935 -1.58773,-1.41919c-4.2294,-3.55977 -9.99929,-6.29875 -11.93038,-12.01749c-0.74802,-1.14259 -1.3632,-2.61941 -1.80694,-4.12665c-1.08872,0.27469 -1.45604,-0.82727 -1.45604,-0.82727l-0.448,-1.39505c-0.00375,-0.91071 -0.5208,-1.91951 -0.57432,-2.81336c-1.87929,-2.34439 -4.428,-2.11074 -7.14101,-3.46397c-0.8604,-0.42916 -1.542,-1.16612 -2.40002,-1.60001c-1.05507,-0.53352 -2.26619,-1.24144 -2.64718,-2.36067c-0.07687,-0.22582 -0.04956,-3.43526 -0.04764,-3.81979c-0.27855,-0.27875 -0.36867,-0.63928 -0.36867,-0.63928c-0.57925,-2.52086 0.20604,-4.22674 0.81255,-6.65265l0.41429,-1.24579c0,0 0.12645,-0.37935 0.45087,-0.63742c1.13312,-4.44451 4.80159,-6.01235 8.67303,-7.93435l0.07608,-0.22823l0.11017,0.03672c0.04759,-0.19536 0.11965,-0.38267 0.22638,-0.55859c0.66558,-1.09705 2.3911,-0.93326 3.57097,-1.43769c1.1024,-0.47131 3.13653,-1.72695 4.08307,-2.03101c1.81656,-0.58353 4.63894,-0.03465 6.50489,0.3338c1.38067,-0.26409 2.79322,-0.21954 3.87257,0.67701c1.75427,1.45718 2.17427,4.97604 2.01229,7.78619c0.34417,1.59969 -0.10711,3.41503 -0.72404,5.15017c0.41201,-0.26986 0.80663,-0.43965 1.12956,-0.41132c3.09361,0.27147 2.99588,3.09645 1.87935,5.40054c0.34346,0.22278 0.57067,0.60959 0.57067,1.04947c0,0.28596 -0.09602,0.54949 -0.25758,0.76011l-1.19244,1.58989c-0.98832,1.31366 -1.82592,2.44089 -3.04535,3.25668c0.7894,0.41681 1.50984,0.83674 2.12352,1.38422c1.73945,0.60296 3.18036,1.2147 4.79888,2.32569c0.59514,-2.96992 1.29215,-5.91393 2.03052,-8.89555c-0.8684,-0.69011 -0.2296,-1.64831 -0.2296,-1.64831l1,-1.5c0,0 0.09983,-0.14974 0.28055,-0.29772l0.01581,-0.42018c0.06655,-0.33273 0.13099,-0.66516 0.19549,-0.99705c-0.34994,-0.47723 -0.17167,-1.1012 -0.17167,-1.1012l0.11319,-0.39618c1.26202,-4.39762 2.61738,-8.66067 6.33872,-11.46043c0,0 0.17235,-0.12926 0.4276,-0.20891c1.13329,-1.57067 3.04595,-3.06111 5.20253,-4.14324c0.00731,-0.01371 0.0147,-0.02707 0.02213,-0.04007c-0.54778,-0.89872 0.32141,-1.58748 0.32141,-1.58748l1.27015,-0.98704c0.50772,-0.76807 0.97026,-1.57069 1.37367,-2.4006c0.06512,-0.51251 0.08768,-1.05395 0.08249,-1.63266c0,0 0,-0.25327 0.114,-0.5318c-1.45721,-0.72183 -2.72472,-1.63124 -3.60594,-3.04667l-2.04339,-0.0075c-0.0537,0.00618 -0.1083,0.00936 -0.16366,0.00936c-0.16802,0 -0.32919,-0.02929 -0.4787,-0.08304l-1.27524,-0.42508l-0.47073,-0.11768l-0.0335,0.1005l-1.30653,-0.43551l-1.72938,-0.43235c-0.53624,-0.12169 -0.95677,-0.54801 -1.07005,-1.08739l-0.04636,0.11588l-2.2329,-0.89316c-0.53728,-0.20061 -0.91987,-0.7185 -0.91987,-1.32574c0,-0.0387 0.00156,-0.07704 0.00461,-0.11496c-0.20529,-0.1028 -0.41882,-0.19039 -0.63799,-0.26618l-0.44916,0.12817l-0.4906,1.03771c-0.16372,-0.24885 -0.33099,-0.50062 -0.50003,-0.75503l-0.22863,0.06524c0,0 -0.39655,-0.39655 -0.44063,-0.93997c-0.05003,-0.00773 -0.09993,-0.01539 -0.14969,-0.02303c0,0 -1.39544,-0.23257 -1.16287,-1.628c0.02585,-0.15509 0.06607,-0.29008 0.11713,-0.40751c-0.38626,-0.66515 -0.74219,-1.34007 -1.04068,-2.0206c-0.75558,-0.02915 -1.35918,-0.65089 -1.35918,-1.41361c0,-0.29727 0.09169,-0.57311 0.24832,-0.80081l0.89466,-1.34199l0.04724,0.0315l0.03582,-0.14367c0.6604,-0.63724 1.30247,-1.38661 1.56275,-2.26664c0,0 0.00384,-0.01155 0.0119,-0.03214c0.08918,-0.27793 0.27249,-0.6084 0.64925,-0.79272c0.05829,-0.03399 0.12097,-0.06405 0.18826,-0.08873c0.34388,-0.51601 0.67733,-1.01092 1.01391,-1.4868l0.47692,-0.95382l0.16268,0.08134c0.02872,-0.03761 0.05752,-0.0751 0.08641,-0.11246c1.45205,-2.80063 3.87881,-6.55172 6.62608,-8.03661c0.07185,-0.24147 0.14644,-0.48051 0.2237,-0.71687c-0.00508,-0.0562 -0.00508,-0.08939 -0.00508,-0.08939l0.14935,-1.08534c0.25389,-0.50615 0.51761,-1.00818 0.79416,-1.50295c0.00253,-0.01196 0.00412,-0.01832 0.00412,-0.01832l0.57895,-2.13718c0.4741,-0.5375 0.87083,-1.10676 1.23425,-1.69264c-0.02916,-0.11315 -0.04465,-0.23177 -0.04465,-0.35402c0,-0.29727 0.09169,-0.57313 0.24833,-0.80083l0.89468,-1.34199c0.78787,-1.18097 1.62326,-2.31156 2.48511,-3.42641c0.04239,-0.44154 0.28775,-0.82379 0.64166,-1.05237l0.38563,-0.25709c0.21046,-0.26514 0.42197,-0.53014 0.63423,-0.7955c0,0 0.5164,-0.64552 1.25316,-0.5549c0.02736,-0.0212 0.05465,-0.04239 0.08188,-0.06357l0.40335,-0.64059c0,0 0.39653,-0.59482 1.04867,-0.6569l1.00298,-1.42972c0.54922,-0.28392 1.03505,-0.59597 1.49667,-0.91325c0.20069,-0.2314 0.39996,-0.47114 0.59837,-0.72073c0,0 0.52099,-0.65123 1.26295,-0.55365c0.40482,-0.24926 0.83158,-0.47901 1.30551,-0.67452l0.52629,-0.97647c-0.75243,-0.98813 -1.40946,-2.02732 -1.96241,-3.11695l-0.29937,0.19958l-0.89466,-1.34199c-0.15663,-0.2277 -0.24832,-0.50355 -0.24832,-0.80081c0,-0.78131 0.63338,-1.41468 1.41468,-1.41468c0.168,0 0.32917,0.02929 0.47868,0.08303l1.29492,0.43163c2.51117,0.69455 2.24701,-1.0179 4.56419,-0.96737c0.66738,0.01456 1.27439,0.42894 1.80773,0.86856c-0.00158,-0.00594 -0.00313,-0.01188 -0.00466,-0.01781l-0.00666,0.00166l-0.445,-1.78002c-0.03256,-0.1191 -0.04993,-0.24446 -0.04993,-0.37388c0,-0.78131 0.63338,-1.41468 1.41468,-1.41468c0.29726,0 0.57311,0.09169 0.80081,0.24832l1.28738,0.85825c3.79224,1.90888 6.03572,4.7084 8.55019,8.06057c0,0 0.05463,0.07285 0.1177,0.19544l1.11433,-0.30507c6.43199,2.9042 13.51847,7.51606 15.30577,14.64892c2.78129,11.37548 -0.38065,24.62301 -9.17083,32.54517c0.89851,0.46299 0.55813,1.48412 0.55813,1.48412c-0.09191,0.2624 -0.16478,0.51409 -0.2187,0.75751c4.09195,0.09769 7.79386,2.32598 10.6687,5.42161c4.78896,4.52304 8.02744,10.2199 9.96141,16.66641l0.05272,1.55919c0,0 0,0.27002 -0.1255,0.55906c0.33218,0.25815 0.46135,0.64566 0.46135,0.64566c0.8534,2.80502 -0.24823,5.53286 -1.60726,8.03127c-0.60574,1.11357 -1.25373,2.22967 -1.95025,3.32418c0.0406,0.26888 -0.00262,0.48498 -0.00262,0.48498c-0.73536,3.13358 -2.008,3.40661 -4.30906,5.48353c-1.558,1.40624 -2.93955,3.03948 -4.48369,4.46449c0.0112,0.06728 0.01703,0.13638 0.01703,0.20684c0,0.41416 -0.20142,0.78127 -0.51164,1.00873l-1.58837,1.19127l-0.04882,-0.0651c-0.23896,0.17801 -0.47186,0.35025 -0.70031,0.51663c-1.22984,1.33215 -2.56375,2.54041 -3.99262,3.90203l-1.65824,1.24645c0,0 -1,0.75 -1.75,-0.25001c-0.06609,-0.08812 -0.1186,-0.17431 -0.15939,-0.2582c-0.13219,0.02431 -0.22259,0.02431 -0.22259,0.02431zM273.00476,197.28307l1.12106,-0.74737c1.69182,-1.56825 3.64632,-2.71476 5.46359,-4.09027c-0.20161,-0.18471 -0.35742,-0.47022 -0.35742,-0.91155c0,-1.25 1.25,-1.25 1.25,-1.25l-0.16674,0.13587c5.03739,-2.53864 8.49855,-7.62925 11.15209,-12.44973c0.92942,-1.6884 2.16589,-4.11809 1.4288,-6.04087c0,0 -0.16608,-0.49826 0.04004,-0.95649c-0.50417,-0.3564 -0.50417,-1.03878 -0.50417,-1.03878l0.05272,-0.84081c-0.76835,-2.56112 -1.75107,-4.99546 -2.97099,-7.27241c-0.0708,0.03677 -0.14935,0.07005 -0.23642,0.09908c-1.18585,0.39529 -1.58114,-0.79056 -1.58114,-0.79056l-0.00944,-0.02831c-0.81382,-2.47651 -2.34518,-5.20017 -4.3499,-7.45521c-1.31704,-1.25676 -2.76387,-2.41745 -4.34819,-3.47172c0,0 -0.11095,-0.07397 -0.23622,-0.20983c-0.80551,-0.41668 -1.64248,-0.73723 -2.50303,-0.93851c0.92746,1.12939 1.83818,2.26933 2.65943,3.49502l0.21325,0.31987c0,0 0.14989,0.22484 0.20576,0.53513c0.40418,0.36938 0.40418,0.95825 0.40418,0.95825c-0.01319,5.2751 -0.36103,10.62348 -0.70455,15.95391c0.27628,0.27861 0.32867,0.61029 0.30798,0.88087c0.38256,0.14897 0.67367,0.48091 0.76581,0.88831l0.42067,-0.3155c0.21062,-0.16155 0.47414,-0.25757 0.7601,-0.25757c0.69036,0 1.25,0.55964 1.25,1.25c0,0.26267 -0.08102,0.50641 -0.21943,0.70761l-0.39487,0.59229c0.13528,0.19974 0.2143,0.44069 0.2143,0.7001c0,0.20995 -0.05176,0.40781 -0.14322,0.58152l-0.78877,1.5775l-0.2923,-0.14615c-0.24915,0.68122 -0.57213,1.32708 -0.99981,1.90175l-0.77511,1.16263c-0.16388,0.25374 -0.41716,0.44433 -0.71529,0.5272c-2.09509,5.67704 -4.66862,11.15082 -5.85721,17.14708l-0.18486,0.46876c0.02991,0.00263 0.06758,0.00691 0.11093,0.01389c0.08709,-0.28498 0.27327,-0.5267 0.51838,-0.685zM227.84007,177.39337l-0.23125,0.34688c0.20314,0.42764 0.08585,0.89679 0.08585,0.89679c-0.15803,0.63196 -0.31454,1.26174 -0.46895,1.88999c0.9295,0.64767 0.32814,1.64995 0.32814,1.64995c-0.62194,1.01245 -1.08477,2.11177 -1.42717,3.26899c0.00532,0.05505 0.00532,0.08789 0.00532,0.08789c-0.01216,5.04183 -2.36838,10.46138 0.95346,14.85467l0.28039,0.26144c0,0 0.88388,0.88388 0,1.76777c-0.68705,0.68705 -1.3741,0.306 -1.64603,0.10221c-0.03955,0.37302 -0.2343,0.85149 -0.93469,1.02658c-1.21268,0.30317 -1.51585,-0.90951 -1.51585,-0.90951l-0.42795,-1.75043c-0.00198,-0.56006 -0.00985,-1.12861 -0.02043,-1.70375c-1.18892,-0.04004 -1.18892,-1.24898 -1.18892,-1.24898l0.00217,-1.67368c0.2202,-1.87761 0.4991,-3.72393 0.82285,-5.55349c-0.19777,-0.07739 -0.32502,-0.17283 -0.32502,-0.17283c-0.92228,-0.69206 -1.72444,-1.17319 -2.54075,-1.56534c-0.12111,0.2212 -0.33813,0.42591 -0.714,0.5512c-1.18586,0.39528 -1.58114,-0.79058 -1.58114,-0.79058c-0.07586,-0.30578 -0.2075,-0.57266 -0.38048,-0.80927c-0.31902,-0.10937 -0.65389,-0.22242 -1.00917,-0.34331l-1.43173,0.00728c0,0 -0.36594,-0.00212 -0.70068,-0.20207c-1.76444,2.24167 -3.80439,3.09125 -6.65422,3.69654c-0.40826,0.24764 -0.85729,0.51277 -1.35949,0.81041l-1.69216,0.43641c0.47723,2.40028 0.43366,4.84985 1.93671,7.05954c1.76518,5.36935 7.28466,7.89223 11.26957,11.18252c1.14058,0.94176 3.35407,3.42557 4.76976,3.77031c2.66908,0.64997 5.58453,0.4952 8.34092,1.18367c0,0 1.21268,0.30316 0.90952,1.51584c-0.30316,1.21268 -1.51584,0.90952 -1.51584,0.90952c-2.72371,-0.68155 -5.85949,-0.40465 -8.45906,-1.2163c-0.25865,-0.08076 -0.52471,-0.19579 -0.7951,-0.33738c0.37752,1.36102 0.60481,2.73274 0.70009,4.1125c0.69108,0.44702 0.46991,1.33168 0.46991,1.33168c-0.15164,0.60657 -0.30304,1.17555 -0.46629,1.71898c-0.12171,1.90711 -0.46668,3.82569 -0.98787,5.74888l-0.15277,0.55868c0,0 -0.3297,1.20573 -1.53544,0.87603c-0.40526,-0.11082 -0.63707,-0.3206 -0.76623,-0.55031l-0.23223,0.38769c0,0 -0.64312,1.07186 -1.71499,0.42874c-1.07186,-0.64312 -0.42874,-1.71499 -0.42874,-1.71499l1.23457,-2.05437c1.09022,-1.44837 1.66108,-2.68297 2.12029,-4.16174c0.01773,-0.35958 0.02639,-0.71874 0.02554,-1.07738c-0.53804,0.88984 -1.49699,1.78027 -2.06845,2.62997c-2.46381,3.66344 -7.43208,11.39335 -0.93438,14.16349c2.03049,0.86565 4.41244,0.79068 6.49453,1.50929c4.54157,-0.04073 9.64841,-0.82434 13.5064,-3.40621l1.02485,-0.68321l0.14564,-0.42592c1.85704,-2.80289 4.92808,-5.26184 7.61605,-7.28175c0.22676,-0.14133 0.45202,-0.28443 0.67579,-0.42928c0.01513,-0.04499 0.03019,-0.09001 0.04519,-0.13506c0,0 0.35508,-1.06528 1.40183,-0.83995c7.76573,-5.44201 13.67937,-13.01564 18.49051,-21.19478c-0.75739,-0.27599 -0.75647,-1.17127 -0.75647,-1.17127l0.00004,0.00006l0.07084,-1.61358c0.9735,-2.79384 1.48118,-5.61022 2.3933,-8.38042c0,0 0.07565,-0.22696 0.26006,-0.4492c0.75599,-4.36941 1.66193,-8.74795 2.5001,-13.00068c0,0 0.12732,-0.63656 0.65719,-0.90046c0.12078,-1.89535 0.2574,-3.78864 0.36008,-5.68405c-0.24156,-0.35251 -0.24156,-0.77033 -0.24156,-0.77033v-1.2c0.00514,-1.80598 -0.18739,-3.66168 -0.39063,-5.44728c-0.15041,-1.3214 -1.31384,-2.5162 -1.11423,-3.83107c0.06639,-0.43731 0.89213,-0.20351 1.23683,-0.48068c0.12108,-0.09736 -0.34815,-0.03503 -0.43681,-0.16262c-0.44737,-0.64383 -1.21799,-0.99992 -1.72903,-1.59447c-0.96012,-1.117 -0.75449,-2.38367 -0.76614,-3.68389c0,0 0,-0.70086 0.5248,-1.05299l0.0694,-0.27759c-0.12296,-0.19353 -0.19417,-0.42316 -0.19417,-0.66942c0,-0.14845 0.02588,-0.29086 0.07337,-0.42296l0.37936,-1.13808c0.12458,-0.49953 0.24915,-0.99905 0.37373,-1.49858c-0.26141,-0.22911 -0.42646,-0.56547 -0.42646,-0.94038c0,-0.69036 0.55964,-1.25 1.25,-1.25c0.69036,0 1.25,0.55964 1.25,1.25c0,0.07949 -0.00742,0.15725 -0.02161,0.23263c0.5865,0.46167 0.38428,1.27055 0.38428,1.27055c-0.02576,0.10279 -0.05151,0.20557 -0.07727,0.30836c0.28514,0.54244 -0.01738,1.14748 -0.01738,1.14748l-0.13336,0.26671c0.71147,0.84585 -0.10078,1.65813 -0.10078,1.65813l-0.09804,-0.08858l-0.39088,1.17265c-0.07673,0.24951 -0.22947,0.46573 -0.43118,0.62165c-0.11159,0.51925 -0.25082,1.05865 0.12009,1.32653c0.89395,0.64562 1.90822,1.36418 2.27097,2.40553c0.24855,0.7135 0.58881,1.5163 0.36318,2.23737c-0.12007,0.38373 -1.03268,-0.06097 -1.16319,0.31934c-0.1156,0.33687 0.65811,0.36947 0.81752,0.68796c0.2892,0.57779 0.38241,1.24057 0.46827,1.88097c0.06317,0.47115 0.12022,0.95004 0.17028,1.43318c0.63907,0.32031 0.63907,1.11954 0.63907,1.11954c0,6.04977 -0.80014,12.03675 -0.79999,18.10001l-1.78732,0.9243c-0.61507,3.14755 -1.19753,6.32945 -1.67215,9.47974c0.52329,-0.96033 1.03482,-1.92729 1.44886,-2.96829c0,0 0.01142,-0.02856 0.03517,-0.07493c1.12368,-4.59773 2.98608,-8.92266 4.68797,-13.3167c-0.01506,-0.12289 -0.01108,-0.2048 -0.01108,-0.2048l0.11506,-2.32348c0.23222,-1.38637 0.38644,-2.75973 0.48861,-4.12952c-0.12967,-0.197 -0.20512,-0.43286 -0.20512,-0.68635c0,-0.14845 0.02588,-0.29086 0.07337,-0.42296l0.23954,-0.71864c0.11278,-2.53081 0.08708,-5.06373 0.08708,-7.6584c0,0 0,-0.98798 0.87834,-1.20724c0.19001,-3.30966 0.32792,-6.61237 0.3219,-9.88145c-0.12341,-0.11758 -0.19032,-0.21793 -0.19032,-0.21793l-0.21325,-0.31987c-0.33827,-0.51023 -0.69415,-1.00532 -1.06157,-1.49084c-0.0004,0.0004 -0.0008,0.0008 -0.0012,0.0012c-0.88387,0.8839 -1.76777,0.00003 -1.76777,0.00003l-0.95622,-0.99053c-0.91145,-1.40058 -1.37281,-2.70097 -1.3819,-4.10794c-0.05961,-0.0782 -0.11897,-0.15667 -0.17803,-0.23543c0,0 -0.30935,-0.41246 -0.2658,-0.90627c-0.12619,0.08733 -0.25329,0.17367 -0.38131,0.25901c-5.95186,5.95194 -17.2215,8.28656 -24.96254,5.19914c-0.58388,-0.23288 -1.16754,-0.45095 -1.74209,-0.66859c0.02679,0.34489 -0.08764,0.63096 -0.08764,0.63096c-0.15765,0.39079 -0.32876,0.77635 -0.51139,1.15675c-0.17361,0.96995 -0.4718,1.86038 -0.94094,2.71333c2.5943,-0.46386 5.04318,-0.09414 6.52093,1.61506c1.49934,0.26462 3.05066,0.6563 4.13114,1.45846c1.31846,0.97884 2.02929,2.58223 3.05198,3.86698l0.74608,1.45478c0.42909,0.37982 0.82238,0.78772 1.15223,1.24446c1.82952,2.53329 1.52635,5.29205 1.13288,8.15942l-0.51781,1.20993c0,0 -0.54342,1.1257 -1.66912,0.58228c-0.01536,-0.00741 -0.0304,-0.01494 -0.04515,-0.02256c-0.38514,1.16467 -0.93889,2.35989 -1.68257,3.62607l-0.65218,1.1058c0,0 -0.63501,1.07669 -1.7117,0.44168c-1.07669,-0.63501 -0.44168,-1.7117 -0.44168,-1.7117l0.65218,-1.1058c2.59266,-4.37616 2.47885,-7.56171 1.00426,-12.15854c-0.87821,-0.81583 -1.92203,-1.68057 -3.06363,-2.81678c0,0 -0.8458,-0.8458 -0.05526,-1.71002c-0.20973,-0.13778 -0.42447,-0.26273 -0.6481,-0.37712c-0.07616,0.26097 -0.26201,0.52545 -0.65373,0.72131c-1.11804,0.55901 -1.67705,-0.55903 -1.67705,-0.55903l-0.4678,-0.9637c-0.01004,-0.03658 -0.02044,-0.07249 -0.03119,-0.10775c-0.42374,-0.0874 -0.88389,-0.17068 -1.38848,-0.25456c0,0 -1.23299,-0.20549 -1.0275,-1.43849c0.00123,-0.00738 0.0025,-0.01471 0.0038,-0.02198c-0.89263,0.02009 -1.89014,0.32706 -2.7869,0.61706c-2.91067,0.94127 -6.99042,2.07825 -7.99803,5.20569c0,0 -0.39278,1.17835 -1.56989,0.79428c-1.53278,1.55478 -2.4795,3.51393 -3.21358,5.606c0.11398,0.40813 -0.01655,0.79972 -0.01655,0.79972c-0.55291,1.64758 -0.81982,3.34839 -1.16011,5.04986l0.02427,0.15487c0,0 0,0.69071 -0.51343,1.04525c-0.06644,0.24612 -0.17853,0.41425 -0.17853,0.41425zM238.64106,249.85191l-0.80003,0.40005c-1.01076,0.50463 -1.85408,0.90657 -2.63418,1.19882l-0.92482,1.23312l-0.02713,-0.02035l-0.02855,0.08936c-2.44394,2.45122 -4.84161,5.19617 -7.36015,7.77177l-0.19293,0.25081l-0.00587,-0.00452l-0.0092,0.02372c-1.51399,1.81427 -3.13282,3.50008 -4.8872,5.06501l-0.72259,0.86711c-0.01837,0.02236 -0.0375,0.04408 -0.05735,0.0651c0.05259,0.02348 0.10326,0.05048 0.1517,0.0807l1.98238,1.18944l-0.01436,0.02393c0.04703,0.02035 0.09387,0.04123 0.14049,0.06267c0.22259,0.10237 0.34486,0.34299 0.47586,0.56983c0.45305,0.16561 0.90607,0.31383 1.35513,0.38155c3.71835,0.56076 8.70853,-2.08412 12.36135,-2.79318c0.57742,-0.11208 6.19305,-1.07371 6.20456,-2.17318c0.00516,-0.49279 -0.31741,-1.05565 -0.72834,-1.6572c-0.15164,0.06537 -0.3188,0.10159 -0.49442,0.10159c-0.58512,0 -1.07634,-0.40202 -1.2125,-0.94491l-0.651,-2.368c-1.01969,-3.24755 -1.62837,-6.35368 -1.70872,-9.5529c-0.11903,0.0931 -0.21213,0.13966 -0.21213,0.13966zM230.08201,252.38392c-0.40477,0 -0.76461,-0.19239 -0.99306,-0.49072c-1.12522,0.17349 -2.26271,0.31132 -3.38641,0.32405l-0.51733,0.12934l-0.01327,-0.05307l-0.13718,0.08103c-2.27491,0.00398 -4.78244,-0.30122 -7.12823,-0.76025l-0.62921,0.30544c-2.39463,0.71692 -5.37724,-0.24521 -7.89356,-1.58667c-2.31235,-0.83583 -3.51975,-2.66547 -5.8624,-4.0511l-0.87522,2.04221l-0.02386,-0.01023c-0.01754,0.05524 -0.03606,0.11024 -0.05563,0.16499c-0.00854,0.02388 -0.3777,0.48206 -0.8589,1.07414c-1.87114,3.78253 -3.8255,7.5228 -6.74186,10.46473l-0.39999,0.39999c0,0 -0.70846,0.70846 -1.4911,0.22257c-1.50035,2.19288 -2.76041,4.30047 -4.76362,6.11386c-0.54721,0.93001 -0.69551,1.74646 0.10783,2.17005c1.23759,0.65257 2.98905,0.44195 4.27258,0.5522c2.36818,0.20342 4.66788,0.25798 6.96401,0.21343c0.00418,-0.01948 0.00876,-0.0392 0.01376,-0.05917c0.30317,-1.21268 1.51585,-0.90951 1.51585,-0.90951c4.75718,1.22098 9.51933,-1.0645 14.15696,-1.99165l1.11691,-0.37229c0.1321,-0.04749 0.27451,-0.07337 0.42296,-0.07337c0.09872,0 0.19477,0.01144 0.28689,0.03308c0.39425,-0.27896 0.84005,-0.56131 1.33095,-0.95814c0.35316,-0.28548 0.70089,-0.57553 1.04336,-0.87023l0.29874,-0.44811l0.02695,0.01797l0.01411,-0.07593c1.21536,-1.44124 2.18444,-2.61978 3.24188,-3.63604c0.1431,-0.14837 0.28978,-0.30144 0.43908,-0.46101c0.34252,-0.36609 0.68819,-0.72968 1.03642,-1.09122l-0.12011,-0.14679l1.30974,-1.07166c0.35221,-0.35632 0.70631,-0.71106 1.06175,-1.06466c0.04602,-0.25592 0.16995,-0.48479 0.34635,-0.66118l1.26448,-1.26445c0.2468,-0.2468 0.48321,-0.48193 0.71221,-0.7069c0.15147,-0.29933 0.33526,-0.57817 0.51939,-0.80765c0.18551,-0.2312 0.37196,-0.46003 0.55907,-0.68708zM223.58521,249.52122c0.20631,0.05646 0.41797,0.10161 0.634,0.13677c0.47408,-0.83795 1.4581,-0.50994 1.4581,-0.50994l1.17264,0.39088c0.10089,0.03103 0.19634,0.07448 0.28456,0.12858c1.17702,-0.12827 2.35868,-0.36467 3.42192,-0.54268l1.10262,-0.36754c0.1321,-0.04749 0.27451,-0.07337 0.42297,-0.07337c0.37359,0 0.70891,0.16389 0.93796,0.4237c0.7474,-0.89175 1.4846,-1.80008 2.19465,-2.76168l0.26183,-0.35457c0,0 0.74253,-1.00556 1.74809,-0.26302c1.00556,0.74253 0.26302,1.74809 0.26302,1.74809l-0.18398,0.24915l0.21937,-0.1097c0,0 0.76711,-0.38358 1.34822,0.12014c0.03827,-0.88376 0.11746,-1.77797 0.23992,-2.68735c-0.04025,-0.02227 -0.08108,-0.04711 -0.12245,-0.07469c-0.57102,-0.38067 -0.61954,-0.86585 -0.54717,-1.22604c-0.96687,0.62364 -1.97336,1.18837 -3.00044,1.704c0,0 -0.06085,0.03043 -0.16127,0.06289c-0.1147,0.3038 -0.31388,0.50298 -0.31388,0.50298l-0.8886,0.70197c-2.80389,0.92901 -5.72806,0.92466 -8.66501,0.76416c-0.37614,0.14914 -0.75589,0.07944 -0.75589,0.07944l-0.33727,-0.0619c-0.25586,-0.04711 -0.51692,-0.09149 -0.78252,-0.13373c-1.42465,-0.093 -2.84693,-0.18383 -4.25458,-0.18383c0,0 -0.66746,0 -1.02691,-0.48773c-3.56407,-0.45208 -7.19073,-1.10619 -9.72309,-2.96228c0,0 -0.50076,-0.37558 -0.52779,-0.94954l-0.64027,-0.29144c-0.29142,-0.58504 -0.60582,-1.14062 -0.93158,-1.68099c-0.05562,0.13334 -0.1103,0.21536 -0.1103,0.21536c-0.63902,0.95485 -1.23065,1.95281 -1.79448,2.97701c1.09969,0.68429 1.95375,1.51735 2.81594,2.26604c0.39157,0.04091 0.68847,0.26358 0.68847,0.26358c0.6031,0.46082 1.45179,1.02991 2.40261,1.56032c0.49309,0.12843 1.03585,0.19751 1.64738,0.18968l0.24102,-0.26804c0,0 1.11804,-0.559 1.67704,0.55904c0.20717,0.41435 0.184,0.75192 0.07277,1.01271c0.26506,0.05975 0.525,0.10395 0.77707,0.12977c0.00561,-0.02836 0.01207,-0.05724 0.01943,-0.08665c0.30316,-1.21268 1.51584,-0.90952 1.51584,-0.90952c1.85256,0.47547 3.99718,0.87219 6.04618,1.05829c0.46905,-0.42951 1.15386,-0.2583 1.15386,-0.2583zM240.16591,240.65003c0.02135,0.02135 0.04168,0.04271 0.06101,0.06405c0.22311,-0.45041 0.42068,-0.87128 0.68015,-1.20818l0.37087,-1.11263c0.32487,-1.58398 0.69377,-2.58558 1.27292,-3.51886c-0.77762,0.6848 -1.48614,1.43368 -2.25477,2.19038l-0.69604,1.42814c0,0 -0.55903,1.11803 -1.67706,0.559c-0.15965,-0.07983 -0.2851,-0.17105 -0.38287,-0.26879c-0.02022,-0.00329 -0.0407,-0.00706 -0.06146,-0.01135l-0.30327,0.20218c-4.40381,2.92578 -10.11606,3.83178 -15.29359,3.7938c-3.28851,-1.06337 -7.29118,-0.868 -9.88364,-3.54999c-5.70043,-5.89728 1.27995,-14.10692 5.39407,-19.67859l0.27079,-1.08312c0.07959,-0.35072 0.30666,-0.64542 0.61256,-0.81547c-0.06582,-0.27069 -0.1383,-0.54079 -0.21763,-0.81025c-0.00991,0.00776 -0.01982,0.01552 -0.02973,0.02327c-0.15668,0.30065 -0.39618,0.48027 -0.39618,0.48027c-1.5059,1.12943 -2.96949,2.25621 -4.38543,3.45504c-0.08379,0.21428 -0.22501,0.39978 -0.40473,0.53757l-1.43418,1.12109c-0.22694,1.08384 -1.56545,1.97585 -2.46897,2.98074l-1.35265,1.50295l-0.06401,0.09601l-0.014,-0.00933l-0.22731,0.25257c-0.20027,0.54665 -0.45348,1.07346 -0.7955,1.65786c-0.01369,0.11715 -0.04359,0.22936 -0.08738,0.33432l-0.75138,1.92557l-0.3241,-0.12647c-0.18136,1.27627 -0.22759,2.51041 0.26589,3.09013l0.01792,0.13225l0.0364,-0.01456l0.78949,1.97368c0.06433,0.15062 0.09994,0.31643 0.09994,0.49057c0,0.01668 -0.00033,0.03329 -0.00097,0.04982c1.25236,0.60279 2.10506,2.5447 2.77298,3.97432c0.34184,0.10926 0.77458,0.37956 0.82345,1.04829c2.84521,2.12092 6.41515,1.42239 9.79611,2.10116c1.47113,0.29535 2.91026,0.74057 4.37925,1.04386c1.39545,0.09975 2.7948,0.18226 4.17518,0.15131c0.19963,-0.55156 0.80871,-0.75459 0.80871,-0.75459c2.04699,-0.68235 4.13982,-1.22573 5.98934,-2.32919c0.09032,-0.3703 0.36579,-0.93497 1.20594,-0.93497c0.44493,0 0.73149,0.15837 0.91605,0.36237c0.25326,-0.16957 0.50312,-0.34399 0.74909,-0.52352l0.25099,-0.27272c0,0 0.88388,-0.88388 1.76777,0zM240.89328,125.0885c0.00001,0 0.00002,-0.00001 0.00002,-0.00001v0.00001zM241.30558,124.00786c-0.85877,0.4142 -1.83765,0.74769 -3.1513,1.05831l0.09055,-0.36315l-1.63082,1.61497c-0.25564,0.25335 -0.60744,0.40983 -0.99579,0.40983c-0.7813,0 -1.41468,-0.63337 -1.41468,-1.41468c0,-0.05721 0.0034,-0.11362 0.01,-0.16905c-0.29116,0.15997 -0.58299,0.31853 -0.87523,0.47603c-0.2766,2.43591 -0.24316,4.92069 0.19031,7.13861c1.53902,3.25682 2.57682,6.59155 4.53957,9.53565l0.72863,0.68978c0,0 0.06858,0.06859 0.15187,0.18779c0.51801,0.30248 0.67293,0.92214 0.67293,0.92214c0.60514,3.20661 4.65961,3.85476 7.30153,4.91468c6.86737,2.75514 16.86302,0.4948 22.11795,-4.7602c10.1481,-6.76536 14.27146,-20.4646 11.29458,-32.06247c-1.52306,-6.10728 -7.62523,-9.44299 -12.76146,-12.51292l-0.81042,0.38366c0,0 -1.33236,0.44412 -1.78453,-0.88018c-0.43347,-0.16312 -0.7,-0.51849 -0.7,-0.51849c-1.70201,-2.26976 -3.2167,-4.24374 -5.29666,-5.81733c-0.19955,0.58311 -0.77053,1.30848 -1.91135,2.2286c-1.10302,0.88963 -2.46876,-1.81894 -3.88306,-1.73046c-0.36939,0.02311 -0.44561,0.63867 -0.78579,0.78446c-0.71187,0.30509 -1.21458,0.47324 -1.64023,0.5444c0.75509,1.08764 1.43716,2.42036 2.06825,3.04659l0.9054,0.90538c0,0 1.00034,1.00032 0.00002,2.00066c-1.00032,1.00034 -2.00066,0.00002 -2.00066,0.00002l-0.90543,-0.90542c-0.04147,-0.04175 -0.08276,-0.08361 -0.12386,-0.12558c-0.04576,0.0664 -0.09913,0.13071 -0.16137,0.19041c-0.05729,0.87368 -0.98324,1.18233 -0.98324,1.18233c-0.94955,0.28085 -1.65564,0.83208 -2.40163,1.38881c-1.23627,1.39377 -2.52343,2.53399 -3.96331,3.67364l-0.34933,0.50436c-0.10514,0.02586 -0.21026,0.05172 -0.3154,0.07757l0.067,0.11167l-1.51269,0.90763c-0.6347,0.80467 -1.25797,1.61292 -1.86052,2.43977c-0.03384,0.4242 -0.25184,0.75121 -0.25184,0.75121c-0.92744,1.38587 -1.5273,2.89059 -2.5211,4.18707c0.21193,0.6348 -0.1951,1.24533 -0.1951,1.24533c-0.01455,0.02174 -0.02907,0.04352 -0.04354,0.06533c0.14598,-0.09107 0.29195,-0.18211 0.43795,-0.27314l0.07169,-0.00675l-0.01236,-0.02471l1.244,-0.62199l0.80335,-0.60251l0.1441,0.19214c0.06393,-0.01149 0.12936,-0.01869 0.19596,-0.02129c0.84168,-0.71355 1.6766,-1.08766 2.61755,-1.08235l1.93948,-0.6465c0.1495,-0.05375 0.31068,-0.08304 0.47869,-0.08304c0.7813,0 1.41468,0.63338 1.41468,1.41468c0,0.27484 -0.07837,0.53139 -0.214,0.74849c0.20477,0.13834 0.41516,0.28705 0.6316,0.44628l0.04926,0.09257l0.02417,-0.02417l0.85892,0.85891c0.53251,0.07133 1.11871,0.1168 1.82733,0.13756c0.43282,-0.14427 0.86564,-0.28855 1.29845,-0.43282l1.32675,-0.44225c0.1495,-0.05375 0.31068,-0.08304 0.47869,-0.08304c0.7813,0 1.41468,0.63338 1.41468,1.41468c0,0.63638 -0.42019,1.17462 -0.99827,1.3524l-0.7937,0.26456c0.04269,0.27965 -0.01063,0.60984 -0.25642,0.97854c-0.78472,1.17709 -1.96181,0.39236 -1.96181,0.39236l-0.07993,-0.05922c-0.01385,0.09194 -0.03655,0.18097 -0.06719,0.26622l-0.44224,1.32676l-0.45309,-0.15103c-0.17059,0.41136 -0.39142,0.78663 -0.68131,1.09355l-0.73946,1.47888c-0.22684,0.4785 -0.71429,0.80942 -1.27902,0.80942c-0.7813,0 -1.41468,-0.63338 -1.41468,-1.41468c0,-0.01662 0.00029,-0.03317 0.00086,-0.04965c-1.03551,0.56031 -2.11251,1.05285 -3.18521,1.52501zM204.13203,184.73391c0,1.25 -1.25,1.25 -1.25,1.25h-0.40002c-0.77695,-0.07865 -1.72333,0.25472 -2.33086,-0.23594c-1.34316,-1.0848 -1.21368,-2.21557 -0.56863,-3.19327c-0.92081,-0.43445 -1.79852,-0.99288 -2.61431,-1.59435l-1.16344,-0.77562c-0.21741,-0.14041 -0.38845,-0.34644 -0.48511,-0.59009l-0.31488,-0.20992c-0.34463,-0.22257 -0.57276,-0.61005 -0.57276,-1.05082c0,-0.69036 0.55964,-1.25 1.25,-1.25c0.26266,0 0.5064,0.08101 0.70759,0.21942l1.08228,0.72152c0.02866,0.0098 0.0571,0.01967 0.08531,0.02958c0.31552,0.01782 0.59486,0.17046 0.86746,0.35523c0.41547,0.19828 0.77387,0.41651 1.09508,0.65842c1.94021,0.62205 4.16974,0.37633 6.17459,0.41591l1.2092,-0.00005l0.87088,-0.58059c0.2012,-0.13841 0.44494,-0.21942 0.7076,-0.21942c0.6164,0 1.1286,0.44617 1.23126,1.03317c0.69007,-0.70243 1.84549,-1.56498 2.07906,-1.99558c0.21563,-0.39753 0.36734,-0.84217 0.49432,-1.30607c-0.37993,-1.12507 -0.01907,-2.87565 0.06072,-3.47673c0.11059,-0.83304 -0.1362,-2.10401 0.63406,-2.44001c0.56509,-0.2465 1.33121,-0.21821 1.97087,0.03272c0.05701,-0.15291 0.11176,-0.30467 0.16291,-0.45457l-0.71707,-0.05907c0,0 -0.88388,-0.88389 0.00002,-1.76777c0.25905,-0.25905 0.5181,-0.36625 0.7549,-0.38836c0.01284,-0.14125 0.02432,-0.28638 0.03424,-0.43454c-0.13887,-0.18314 -0.33439,-0.33634 -0.59864,-0.45315c0,0 -1.04006,-0.69338 -0.34667,-1.73344c0.28002,-0.42003 0.61659,-0.55734 0.91835,-0.57178c-0.12704,-1.28922 -0.44278,-2.44087 -1.06045,-2.95978c-0.0059,-0.00496 -0.0118,-0.00984 -0.01769,-0.01467c-0.2168,0.18082 -0.49577,0.28962 -0.80015,0.28962h-2.39999v-0.0725c-0.06674,0.01879 -0.13349,0.03757 -0.20023,0.05636l-0.16571,-0.13607l-0.02935,0.08806l-1.17267,-0.39089c-0.27172,-0.08357 -0.50396,-0.25726 -0.66183,-0.48619c-0.96209,-0.12354 -1.916,-0.1536 -2.57495,0.07709c-1.21664,0.42593 -3.60178,2.44758 -5.42855,2.80661c-0.06671,0.08128 -0.14347,0.154 -0.22838,0.21626l-1.57827,1.18369c-0.21062,0.16155 -0.47414,0.25757 -0.7601,0.25757c-0.14101,0 -0.27656,-0.02335 -0.403,-0.06639c-2.99055,1.41613 -6.1321,2.74567 -6.77126,6.26153c0,0 -0.10688,0.5344 -0.53235,0.8269l-0.29322,0.87745c-0.33966,1.35857 -0.86875,2.51971 -0.94959,3.77166c0.13377,0.2268 0.17515,0.43371 0.17515,0.43371l0.41818,2.12197c0.00321,1.12042 -0.2363,2.25652 -0.04755,3.36093c0.1157,0.67699 2.24209,1.41889 2.69702,1.72218c2.91767,1.9451 5.9639,1.87979 8.36103,4.13791c1.20225,-1.082 2.03345,-0.31665 2.59776,0.90265c0.02837,-0.0091 0.04468,-0.01318 0.04468,-0.01318l0.32185,-0.07729c0.23026,-0.56074 0.87815,-0.72271 0.87815,-0.72271l1.54512,-0.38593c0.85433,-0.5503 1.63085,-1.00643 2.57612,-1.19457l-0.13885,-0.16662l0.32996,-0.27497c0.16321,-0.38249 0.49745,-0.60531 0.49745,-0.60531l1.18579,-0.79051c0.20119,-0.1384 0.44493,-0.21941 0.70758,-0.21941c0.24191,0 0.46777,0.06872 0.65913,0.1877c0.07559,-0.10225 0.15072,-0.20837 0.2255,-0.31855c-0.0827,-0.16151 -0.13463,-0.36436 -0.13463,-0.61915c0,-0.76233 0.46491,-1.05974 0.82767,-1.17577c0.17727,-0.59349 0.82702,-0.81008 0.82702,-0.81008c0.64196,-0.18987 1.14721,-0.50866 1.5836,-0.90582c-0.02502,-0.09863 -0.03832,-0.20193 -0.03832,-0.30834c0,-0.24259 0.06911,-0.46904 0.18871,-0.66074l0.98451,-1.64084c0.14582,-0.49765 0.322,-0.98357 0.55389,-1.44761c0.34602,-0.69243 0.89895,-1.30066 1.08904,-2.05103c0.0778,-0.30709 0.28782,-1.13915 0.03385,-0.94978c-0.74671,0.55677 -1.25936,1.3734 -1.91611,2.03389l-0.39999,0.39999c0,0 -0.56589,0.56589 -1.24487,0.33929c-0.98512,2.50644 -2.68489,5.26172 -5.0731,5.21576c-0.70869,-0.01364 -1.3253,-0.44961 -1.95827,-0.81056c-0.08135,0.01419 -0.14533,0.01908 -0.17972,0.02076c-0.47413,0.46442 -1.24319,0.81726 -1.8176,1.03649c-1.20862,0.46127 -2.40971,0.519 -3.57178,0.30859c-0.39666,0.27196 -0.4834,0.43946 0.56143,0.1558h0.40002c0,0 1.25,0 1.25,1.25zM228.28134,140.17431l0.06751,0.12962l0.03592,-0.03592l1.30371,1.30369l0.48485,0.19394l-0.12563,0.31405c0.00562,0.01341 0.01105,0.02692 0.01627,0.04053c0.57975,-0.11013 1.1883,-0.09716 1.73786,0.03916l1.78208,0.44551c0.47032,0.10673 0.85163,0.44779 1.01471,0.89393c0.20479,0.04631 0.41459,0.15036 0.62392,0.2491l0.55966,0.18655l-0.06817,-0.07062c-1.59856,-2.39782 -2.60199,-4.99648 -3.7242,-7.6217c-0.06965,0.02823 -0.14206,0.05107 -0.21671,0.06802l-1.78208,0.44553l-0.03374,-0.13496l-0.27572,0.17679c-0.62433,-0.11766 -1.20769,-0.21661 -1.76345,-0.29615c-0.29201,0.03363 -0.61994,0.09374 -0.99171,0.22396l-0.12857,-0.36115c-1.09243,-0.10907 -2.10513,-0.13169 -3.15928,-0.06157c0.36493,0.83869 0.86016,1.6952 1.39057,2.52752c1.1492,0.29158 2.27017,0.70622 3.25218,1.34416zM224.7132,133.10523c1.06292,0.0523 2.26364,0.27732 3.26055,0.49334c0.59683,-0.06241 1.12939,-0.0326 1.67419,0.07245v-0.15514h0.92242c0.02326,-0.07252 0.05141,-0.13923 0.0835,-0.2006c-0.00259,-0.00518 -0.00518,-0.01036 -0.00777,-0.01553c0,0 -0.3005,-0.60101 -0.0731,-1.18171c-0.33306,-2.51421 -0.27408,-5.21684 0.10396,-7.83363c-0.33599,0.4058 -0.66552,0.84735 -0.98174,1.30281c-0.02033,0.17693 -0.07331,0.34394 -0.15276,0.49484l-0.89269,1.78534l-0.08873,-0.04437l-0.02894,0.23888c-0.11831,0.11831 -0.24736,0.23402 -0.38481,0.34366c-0.35749,1.54096 -2.3313,3.27854 -3.20731,4.59354l-0.13998,-0.06683c-0.02819,0.05797 -0.05713,0.11563 -0.0868,0.17296zM241.92981,116.93107c-0.31009,0.14544 -0.6064,0.29449 -0.89333,0.44173c0.31495,-0.10308 0.65782,-0.16961 1.00327,-0.23611c-0.04204,-0.06507 -0.07888,-0.1338 -0.10994,-0.20562z" fill="#000000" stroke-width="0.5"></path>
      <path d="M224.68391,133.14577c0.02967,-0.05733 0.11743,-0.19586 0.14562,-0.25383l0.1387,0.06593c0.87601,-1.315 2.79056,-2.97211 3.14805,-4.51307c0.13745,-0.10964 0.26377,-0.22767 0.38208,-0.34598l0.03267,-0.23579l0.08613,0.04228l0.8984,-1.7811c0.07945,-0.1509 0.18473,-0.40313 0.20506,-0.58006c0.31622,-0.45546 0.64716,-0.89615 0.98315,-1.30195c-0.37804,2.61679 -0.43005,5.39848 -0.09699,7.91269c-0.2274,0.5807 0.06751,1.18614 0.06751,1.18614c0.00259,0.00517 0.00516,0.01036 0.00775,0.01554c-0.03209,0.06137 -0.06166,0.12901 -0.08492,0.20153l-0.92942,0.00369l-0.00056,0.15538c-0.5448,-0.10505 -1.09356,-0.13111 -1.69039,-0.0687c-0.99691,-0.21602 -2.22992,-0.45042 -3.29284,-0.50272z" fill="#bd7614" stroke-width="0.5"></path>
      <path d="M204.13451,184.78383c0,-1.25 -1.25736,-1.25017 -1.25736,-1.25017l-0.40245,-0.0003c-1.04483,0.28366 -0.93998,0.01788 -0.54332,-0.25408c1.16207,0.21041 2.34064,0.15288 3.54926,-0.30839c0.57441,-0.21923 1.33085,-0.56715 1.80498,-1.03157c0.03439,-0.00168 0.09741,-0.00602 0.17876,-0.02021c0.63297,0.36095 1.24391,0.80079 1.9526,0.81443c2.38821,0.04596 4.06986,-2.67962 5.05498,-5.18606c0.67898,0.2266 1.24448,-0.33699 1.24448,-0.33699l0.39976,-0.3982c0.65675,-0.66049 1.16915,-1.46937 1.91586,-2.02614c0.25397,-0.18937 0.14389,0.64143 0.06609,0.94852c-0.19009,0.75037 -0.74377,1.36627 -1.08979,2.0587c-0.23189,0.46404 -0.40939,0.95554 -0.55521,1.45319l-0.98705,1.64755c-0.1196,0.1917 -0.18986,0.42048 -0.18986,0.66307c0,0.10641 0.01284,0.21056 0.03786,0.30919c-0.43639,0.39716 -0.94502,0.72126 -1.58698,0.91113c0,0 -0.65267,0.22022 -0.82994,0.81371c-0.36276,0.11603 -0.8317,0.41751 -0.8317,1.17984c0,0.25479 0.05103,0.45843 0.13373,0.61994c-0.07478,0.11018 -0.15102,0.21722 -0.22661,0.31947c-0.19136,-0.11898 -0.41845,-0.18673 -0.66036,-0.18673c-0.26265,0 -0.50868,0.08265 -0.70987,0.22105l-1.19072,0.79343c0,0 -0.33678,0.22404 -0.49999,0.60653l-0.33143,0.2756l0.13908,0.16652c-0.94527,0.18814 -1.73191,0.64727 -2.58624,1.19757l-1.55088,0.38665c0,0 -0.6511,0.16208 -0.88136,0.72282l-0.32296,0.07728c0,0 -0.01646,0.00408 -0.04483,0.01318c-0.56431,-1.2193 -1.4049,-1.98576 -2.60715,-0.90376c-2.39713,-2.25812 -5.47116,-2.20959 -8.38883,-4.15469c-0.45493,-0.30329 -2.58674,-1.0531 -2.70244,-1.73009c-0.18875,-1.10441 0.04681,-2.24974 0.0436,-3.37016l-0.41987,-2.12919c0,0 -0.0416,-0.20845 -0.17537,-0.43525c0.08084,-1.25195 0.61006,-2.42641 0.94972,-3.78498l0.29381,-0.88075c0.42547,-0.2925 0.53319,-0.83026 0.53319,-0.83026c0.63916,-3.51586 3.80293,-4.87442 6.79348,-6.29055c0.12644,0.04304 0.26317,0.0657 0.40418,0.0657c0.28596,0 0.5526,-0.09765 0.76322,-0.2592l1.58599,-1.18662c0.08491,-0.06226 0.1628,-0.13529 0.22951,-0.21657c1.82677,-0.35903 4.23289,-2.38162 5.44953,-2.80755c0.65895,-0.23069 1.62092,-0.19857 2.58301,-0.07503c0.15787,0.22893 0.39256,0.40354 0.66428,0.48711l1.17638,0.39258l0.02931,-0.08808l0.16632,0.13638c0.06674,-0.01879 0.13393,-0.03734 0.20067,-0.05613l0.0001,0.07255l2.40543,0.00338c0.30438,0 0.58448,-0.10797 0.80128,-0.28879c0.00589,0.00483 0.01184,0.00975 0.01774,0.01471c0.61767,0.51891 0.93964,1.67618 1.06668,2.9654c-0.30176,0.01444 -0.63882,0.15123 -0.91884,0.57126c-0.69339,1.04006 0.3502,1.73752 0.3502,1.73752c0.26425,0.11681 0.4613,0.27209 0.60017,0.45523c-0.00992,0.14816 -0.02071,0.2943 -0.03355,0.43555c-0.2368,0.02211 -0.49605,0.12901 -0.7551,0.38806c-0.8839,0.88388 0.00307,1.77305 0.00307,1.77305l0.71772,0.06041c-0.05115,0.1499 -0.19702,0.34283 -0.25403,0.49574c-0.63966,-0.25093 -1.31577,-0.32261 -1.88086,-0.07611c-0.77026,0.336 -0.51959,1.61656 -0.63018,2.4496c-0.07979,0.60108 -0.43901,2.37113 -0.05908,3.4962c-0.12698,0.4639 -0.28023,0.91644 -0.49586,1.31397c-0.23357,0.4306 -1.39631,1.30851 -2.08638,2.01094c-0.10266,-0.587 -0.61421,-1.03411 -1.23061,-1.03411c-0.26266,0 -0.50964,0.08531 -0.71084,0.22372l-0.87786,0.5874l-1.21804,0.00571c-2.00485,-0.03958 -4.29442,0.19435 -6.23463,-0.4277c-0.32121,-0.24191 -0.68548,-0.46842 -1.10095,-0.6667c-0.2726,-0.18477 -0.5544,-0.34238 -0.86992,-0.3602c-0.02821,-0.00991 -0.05683,-0.0202 -0.08549,-0.03l-1.08457,-0.72837c-0.20119,-0.13841 -0.34752,-0.24189 -0.61018,-0.24189c-0.69036,0 -1.25126,0.55477 -1.25126,1.24513c0,0.44077 0.22592,0.82248 0.57055,1.04505l0.31414,0.20836c0.09666,0.24365 0.26575,0.44612 0.48316,0.58653l1.15922,0.76966c0.81579,0.60147 1.67981,1.14833 2.60062,1.58278c-0.64505,0.9777 -0.78328,2.10451 0.55988,3.18931c0.60753,0.49066 1.54335,0.15492 2.3203,0.23357l0.39815,-0.00018c0,0 1.24379,-0.00008 1.24379,-1.25008z" fill="#750000" stroke-width="0.5"></path>
      <path d="M240.20891,240.67556c-0.88389,-0.88388 -1.76915,0.00219 -1.76915,0.00219l-0.25158,0.27359c-0.24597,0.17953 -0.49732,0.35597 -0.75058,0.52554c-0.18456,-0.204 -0.47165,-0.3617 -0.91658,-0.3617c-0.84015,0 -1.11871,0.56818 -1.20903,0.93848c-1.84952,1.10346 -3.9595,1.6584 -6.00649,2.34075c0,0 -0.61235,0.20422 -0.81198,0.75578c-1.38038,0.03095 -2.79368,-0.04912 -4.18913,-0.14887c-1.46899,-0.30329 -2.92425,-0.75067 -4.39538,-1.04602c-3.38096,-0.67877 -6.97557,0.00289 -9.82078,-2.11803c-0.04887,-0.66873 -0.48385,-0.9421 -0.82569,-1.05136c-0.66792,-1.42962 -1.52652,-3.38352 -2.77888,-3.98631c0.00064,-0.01653 0.00093,-0.03326 0.00093,-0.04994c0,-0.17414 -0.03602,-0.34125 -0.10035,-0.49187l-0.79083,-1.97925l-0.0364,0.01458l-0.01798,-0.1326c-0.49348,-0.57972 -0.44799,-1.82218 -0.26663,-3.09845l0.3241,0.12682l0.75161,-1.93103c0.04379,-0.10496 0.07379,-0.21814 0.08748,-0.33529c0.34202,-0.5844 0.59609,-1.11626 0.79636,-1.66291l0.22751,-0.25343l0.014,0.00935l0.06409,-0.09632l1.3543,-1.50831c0.90352,-1.00489 2.24763,-1.90773 2.47457,-2.99157l1.43781,-1.12578c0.17972,-0.13779 0.32248,-0.32497 0.40627,-0.53925c1.41594,-1.19883 2.89483,-2.33648 4.40073,-3.46591c0,0 0.24118,-0.18035 0.39786,-0.481c0.00991,-0.00775 0.05797,0.07693 0.06788,0.06917c0.07933,0.26946 0.15215,0.53942 0.21797,0.81011c-0.3059,0.17005 -0.5301,0.46344 -0.60969,0.81416l-0.26836,1.08183c-4.11412,5.57167 -11.07809,13.70929 -5.37766,19.60657c2.59246,2.68199 6.56239,2.46584 9.8509,3.52921c5.17753,0.03798 10.83862,-0.8445 15.24243,-3.77028l0.30274,-0.20127c0.02076,0.00429 0.12802,0.05775 0.14824,0.06104c0.09777,0.09774 0.13647,0.13921 0.29612,0.21904c1.11803,0.55903 1.6753,-0.55564 1.6753,-0.55564l0.69427,-1.42396c0.76863,-0.7567 1.57297,-1.47795 2.35059,-2.16275c-0.57915,0.93328 -0.951,1.94426 -1.27587,3.52824l-0.37216,1.11541c-0.25947,0.3369 -0.45879,0.76096 -0.6819,1.21137c-0.01933,-0.02134 -0.1256,-0.09383 -0.14695,-0.11518z" fill="#750000" stroke-width="0.5"></path>
      <path d="M238.88106,249.67073c0.08035,3.19922 0.71115,6.34577 1.73084,9.59332l0.64956,2.38104c0.13616,0.54289 0.53107,0.91816 1.11619,0.91816c0.17562,0 0.43861,-0.00766 0.59025,-0.07303c0.41093,0.60155 0.73163,1.16978 0.72647,1.66257c-0.01151,1.09947 -5.64342,2.08204 -6.22084,2.19412c-3.65282,0.70906 -8.70291,3.35388 -12.42126,2.79312c-0.44906,-0.06772 -0.90607,-0.21927 -1.35912,-0.38488c-0.131,-0.22684 -0.25536,-0.46951 -0.47795,-0.57188c-0.04662,-0.02144 -0.09385,-0.04273 -0.14088,-0.06308l0.01434,-0.02395l-1.98754,-1.19596c-0.04844,-0.03022 -0.09942,-0.05769 -0.15201,-0.08117c0.01985,-0.02102 0.03893,-0.04281 0.0573,-0.06517l0.72187,-0.86826c1.75438,-1.56493 3.36729,-3.26512 4.88128,-5.07939l0.00916,-0.0239l0.00588,0.00457l0.19255,-0.25257c2.51854,-2.5756 4.97896,-5.37835 7.4229,-7.82957l0.02857,-0.08935l0.02735,0.02041l0.92787,-1.23213c0.7801,-0.29225 1.63218,-0.69003 2.64294,-1.19466l0.8018,-0.39894c0,0 0.09346,-0.04632 0.21249,-0.13942z" fill="#750000" stroke-width="0.5"></path>
      <path d="M230.30163,252.37113c-0.18711,0.22705 -0.37326,0.45707 -0.55877,0.68827c-0.18413,0.22948 -0.36757,0.5099 -0.51904,0.80923c-0.229,0.22497 -0.46515,0.46147 -0.71195,0.70827l-1.26407,1.26723c-0.1764,0.17639 -0.30016,0.40698 -0.34618,0.6629c-0.35544,0.3536 -0.70938,0.71124 -1.06159,1.06756l-1.30977,1.07503l0.12009,0.14724c-0.34823,0.36154 -0.69425,0.72902 -1.03677,1.09511c-0.1493,0.15957 -0.29625,0.31442 -0.43935,0.46279c-1.05744,1.01626 -2.03208,2.21075 -3.24744,3.65199l-0.01425,0.07619l-0.02695,-0.01798l-0.29985,0.44999c-0.34247,0.2947 -0.69328,0.58917 -1.04644,0.87465c-0.4909,0.39683 -0.94123,0.68424 -1.33548,0.9632c-0.09212,-0.02164 -0.18875,-0.03253 -0.28747,-0.03253c-0.14845,0 -0.29204,0.02696 -0.42414,0.07445l-1.12085,0.37543c-4.63763,0.92715 -9.45856,3.21236 -14.21574,1.99138c0,0 -1.21449,-0.30457 -1.51766,0.90811c-0.005,0.01997 -0.00951,0.03975 -0.01369,0.05923c-2.29613,0.04455 -4.60544,-0.02026 -6.97362,-0.22368c-1.28353,-0.11025 -3.03825,0.09505 -4.27584,-0.55752c-0.80334,-0.42359 -0.65692,-1.24399 -0.10971,-2.174c2.00321,-1.81339 3.26,-3.93226 4.76035,-6.12514c0.78264,0.48589 1.49111,-0.22249 1.49111,-0.22249l0.39981,-0.40113c2.91636,-2.94193 4.88738,-6.72702 6.75852,-10.50955c0.4812,-0.59208 0.85502,-1.05386 0.86356,-1.07774c0.01957,-0.05475 0.03859,-0.11008 0.05613,-0.16532l0.02391,0.0102l0.88148,-2.04574c2.34265,1.38563 3.57355,3.21052 5.8859,4.04635c2.51632,1.34146 5.53701,2.32383 7.93164,1.60691l0.62956,-0.30497c2.34579,0.45903 4.85993,0.77688 7.13484,0.7729l0.13715,-0.08112l0.01332,0.05322l0.51738,-0.12921c1.1237,-0.01273 2.26178,-0.14873 3.387,-0.32222c0.22845,0.29833 0.58877,0.4924 0.99354,0.4924z" fill="#750000" stroke-width="0.5"></path>
      <path d="M208.61511,180.03136c-0.51627,0.01541 -1.05309,-0.02811 -1.57246,-0.14161c-0.17473,0.26359 -0.44674,0.45708 -0.76483,0.52927l-1.57464,0.39367l-0.01552,-0.06207l-0.13493,0.09002c-1.07068,-0.00371 -1.77594,0.0293 -2.35607,-0.14195c-0.17731,0.0965 -0.38058,0.15132 -0.59665,0.15132c-0.14845,0 -0.29086,-0.02588 -0.42296,-0.07337l-2.31668,-0.77222c-0.44351,-0.1364 -0.78184,-0.51292 -0.86327,-0.97784c-0.22473,-0.16908 -0.44352,-0.33886 -0.65948,-0.51163l-0.06057,0.12113l-1.67977,-0.83989c-0.06051,0.06206 -0.11073,0.12129 -0.15157,0.17796c0.39192,0.07813 0.71776,0.33951 0.88441,0.69105l0.75311,1.50619l0.189,0.2835c1.06791,0.65025 1.76768,1.28813 2.56783,2.45177c0,0 0.69336,1.04007 -0.34671,1.73343c-1.04007,0.69336 -1.73343,-0.34671 -1.73343,-0.34671c-0.26528,-0.41596 -0.55262,-0.75224 -0.86187,-1.04716c-0.03236,0.00251 -0.06506,0.00379 -0.09806,0.00379c-0.44077,0 -0.82825,-0.22813 -1.05082,-0.57276l-0.4185,-0.62776c-0.24183,-0.16598 -0.49266,-0.33905 -0.75243,-0.52941l0.0102,-0.18943c-0.96465,-0.20188 -1.67372,-1.28891 -1.83529,-2.84204c-0.17562,-1.68816 0.76208,-2.24491 1.85677,-2.85175c0.22859,-0.29613 0.58706,-0.48686 0.99009,-0.48686c0.14846,0 0.29087,0.02588 0.42298,0.07338l1.14496,0.38167c0.28695,0.08825 0.52988,0.27703 0.68767,0.52523l0.53948,0.26974l-0.1321,0.26419c0.81615,0.03954 1.30928,0.44121 2.21395,1.08403l1.32617,0.21838l-0.05243,0.31838c0.41262,0.01689 0.829,0.0426 1.33835,0.05906c0.07391,-0.07863 0.15789,-0.1477 0.24988,-0.20513c0.22079,-0.35364 0.61346,-0.58892 1.06108,-0.58892h1.48547c0.29562,-0.07109 0.59555,-0.11075 0.89806,-0.12511c0.36106,-0.2749 0.81649,-0.2749 0.81649,-0.2749h2c0.69036,0 1.25,0.55964 1.25,1.25c0,0.5623 -0.37128,1.03788 -0.88206,1.19497l-1.17267,0.39089l-0.02699,-0.08097z" fill="#bdbdbd" stroke-width="0.5"></path>
      <path d="M197.28388,183.6839c-0.8839,0.88387 -1.76777,-0.00003 -1.76777,-0.00003l-0.70195,-0.8886c-0.23255,-0.69928 -0.41386,-1.37142 -0.56414,-2.04304c-0.15524,-0.27256 -0.27168,-0.5549 -0.35256,-0.85259l-0.52803,-0.79207c-0.1384,-0.20119 -0.21941,-0.44493 -0.21941,-0.70758c0,-0.5185 0.31569,-0.96327 0.76535,-1.15257c0.02189,-0.11454 0.0459,-0.23136 0.07196,-0.35059c0,0 0.30316,-1.21268 1.51584,-0.90952c1.21268,0.30316 0.90952,1.51584 0.90952,1.51584c-0.13899,0.46093 -0.22572,0.8431 -0.24172,1.17476l0.42906,0.57208l-0.0549,0.04118l0.14461,0.09642c0.07917,0.24849 0.15775,0.5109 0.2183,0.77763c0.16394,0.12976 0.3581,0.25987 0.58534,0.39471v0l1.18388,0.78923c0.34463,0.22257 0.57277,0.61005 0.57277,1.05083c0,0.69036 -0.55964,1.25 -1.25,1.25c-0.11436,0 -0.22513,-0.01536 -0.33036,-0.04412l-0.25804,-0.06451c-0.03774,0.04742 -0.08018,0.09498 -0.12774,0.14254z" fill="#797979" stroke-width="0.5"></path>
    </g>
  </g>
</svg>
