<?xml version="1.0" encoding="UTF-8"?>
<svg xmlns="http://www.w3.org/2000/svg" xmlns:xlink="http://www.w3.org/1999/xlink" version="1.1" width="51.46674" height="38.5268" viewBox="0,0,51.46674,38.5268">
  <g transform="translate(-425.47065,-14.60257)">
    <g fill="#d6d6d6" stroke="none" stroke-width="0.5" stroke-miterlimit="10">
      <path d="M444.31988,23.51322c1.06668,-1.59997 2.13334,-3.19996 3.19999,-4.79995l3.24326,-0.80591c4.60662,-3.34312 9.34107,-5.17561 14.15495,-0.42351c1.144,1.12932 2.08154,2.47021 2.89638,3.8559c0.50494,0.85868 0.32334,2.74686 1.3174,2.68237c0.74031,-0.04802 1.33109,-0.90605 2.0682,-0.82211c3.34466,0.38087 6.22604,1.97146 5.66766,6.10043c-0.21293,1.57451 -1.89469,2.56374 -2.65323,3.95982c-0.9725,1.78988 -1.4244,3.94927 -2.84672,5.4075c-1.81107,1.85681 -5.47923,2.66021 -6.79228,5.06399c-0.9455,1.73092 -0.98726,3.82454 -1.64885,5.68259c-1.31743,1.17293 -2.27008,2.98814 -3.95228,3.51879c-3.68424,1.16218 -5.69705,-3.18085 -8.4988,-4.0404c-1.1582,-0.35532 -4.10567,0.55347 -4.97659,0.80756c-3.17579,0.92656 -7.79721,3.29971 -11.099,3.29971c-3.57173,0 -8.07078,-2.47135 -8.87783,-6.16817c-0.25858,-1.18446 0.52124,-2.37275 0.90616,-3.52238c0.38706,-1.15605 0.54187,-2.51514 1.40393,-3.37719c1.92669,-1.92669 5.54203,-1.30319 7.65346,-2.75889c2.04815,-1.41208 4.34211,-3.6342 5.67351,-5.7173c1.15666,-1.51511 2.2938,-3.12935 2.86908,-4.94662l0.21918,-0.2563c-0.89631,-1.28686 0.07242,-2.73992 0.07242,-2.73992z"></path>
    </g>
  </g>
</svg>
