<?xml version="1.0" encoding="UTF-8"?>
<svg xmlns="http://www.w3.org/2000/svg" xmlns:xlink="http://www.w3.org/1999/xlink" version="1.1" width="115.22178" height="115.22177" viewBox="0,0,115.22178,115.22177">
  <g transform="translate(-182.38911,-122.38913)">
    <g stroke-miterlimit="10">
      <path d="M296.36088,223.24577c0,7.9788 -6.32551,13.11514 -12.47226,13.11514c-13.06451,0 -62.8835,0 -87.00577,0c-8.05426,0 -13.24374,-6.26142 -13.24374,-15.68675c0,-24.44785 0,-70.18266 0,-83.14837c0,-6.73371 5.74984,-13.88665 14.52954,-13.88665c24.30136,0 71.81534,0 84.86278,0c6.50435,0 13.32946,6.6496 13.32946,13.02945c0,13.23182 0,62.66727 0,86.57718z" fill-opacity="0.34118" fill="#909090" stroke-opacity="0.45882" stroke="#000000" stroke-width="2.5"></path>
      <path d="M203.32862,199.6192c-0.59338,0.19779 -0.9888,-0.0003 -1.23582,-0.24761c-0.50015,-0.07664 -0.9996,-0.15614 -1.49831,-0.2386c0,0 -1.233,-0.20551 -1.02749,-1.4385c0.09849,-0.59091 0.43298,-0.85143 0.75464,-0.96251c-0.00396,-0.0007 -0.00793,-0.00141 -0.01192,-0.00213c-1.22984,-0.22361 -1.00622,-1.45345 -1.00622,-1.45345l0.08612,-0.47366c1.87062,-10.28798 2.94269,-21.66557 7.20146,-31.27708c0,0 0.41395,-0.93138 1.33529,-0.7383c0.04641,-0.00402 0.07363,-0.00402 0.07363,-0.00402c6.16697,0 12.6045,1.35778 18.74629,0.80362c8.166,-0.7368 15.87492,-3.53316 24.119,-3.72158c8.81716,-1.16218 16.85041,0.97205 25.37986,2.67556l-0.07767,0.32009l1.52645,0.70807c1.45403,3.67089 0.47526,7.25731 -0.74745,10.8989c-1.09881,6.69034 -2.66219,13.08887 -3.98741,19.67716c-0.37612,1.86986 -1.31937,6.41953 -3.07653,7.5444c-0.52994,0.33925 -1.25367,-0.16132 -1.88253,-0.13955c-1.22886,0.04254 -2.66996,0.5577 -3.87683,0.79393c-7.96224,0.01073 -16.49416,0.46234 -24.49294,-0.26484c-2.48243,-0.22568 -4.84794,-0.80211 -7.36356,-0.79575c-9.60524,0 -19.32572,-0.35713 -28.81406,-1.71064c-0.03928,0.01649 -0.08057,0.03203 -0.12399,0.0465zM203.55487,196.35499l0.25105,0.74873c9.36639,1.35192 18.9797,1.67962 28.46076,1.67962c2.58356,0.00572 5.02071,0.57252 7.56978,0.80427c7.85174,0.71385 16.22524,0.25763 24.04039,0.26848c1.23208,-0.25272 2.87799,-0.86028 4.12317,-0.80609c0.29221,0.01272 0.53048,0.53938 0.78414,0.39377c0.37084,-0.21288 0.47586,-0.62679 0.5226,-1.08921c-0.27707,0.24015 -0.72122,0.43576 -1.33244,0.13015c-0.24494,-0.12247 -0.40939,-0.27177 -0.51685,-0.43027c-0.02488,-0.02215 -0.04978,-0.04565 -0.07468,-0.07055c-0.88389,-0.88388 0,-1.76776 0,-1.76776l0.97911,-0.97912c0.10307,-0.15461 0.20614,-0.30922 0.30921,-0.46383c-0.32112,-0.36804 -0.32111,-0.87319 -0.32111,-0.87319l0.36612,-1.15055c0.12048,-0.12048 0.24097,-0.24096 0.36145,-0.36144c-0.11896,-0.06156 -0.2402,-0.14954 -0.36144,-0.27077c-0.88389,-0.88387 -0.00002,-1.76777 -0.00002,-1.76777l0.63635,-0.62554c0.44444,-0.35556 0.88889,-0.71112 1.33333,-1.06667c0,0 0.47544,-0.38035 1.02814,-0.27833c0.43584,-1.92236 0.83962,-3.84475 1.22059,-5.77559c-0.26727,0.29153 -0.52362,0.59347 -0.77425,0.8969l-0.87637,0.88365c0,0 -0.88388,0.88389 -1.76777,0.00001c-0.88389,-0.88388 -0.00001,-1.76777 -0.00001,-1.76777l0.7236,-0.71634c0.27609,-0.32877 0.55861,-0.65468 0.85113,-0.97126c-0.34085,-0.36955 -0.34085,-0.89518 -0.34085,-0.89518l0.50001,-1.26667c0.35555,-0.26666 0.71112,-0.53334 1.06667,-0.8c0,0 0.79107,-0.5933 1.49372,-0.02092c0.14302,-0.79578 0.28348,-1.59409 0.42201,-2.3955c-0.18044,0.19183 -0.36367,0.38068 -0.54853,0.56698l-0.85819,0.50081c0,0 -1.11804,0.55901 -1.67705,-0.55902c-0.55901,-1.11803 0.55901,-1.67705 0.55901,-1.67705l0.20846,-0.03252c0.82499,-0.81769 1.62107,-1.69257 2.21202,-2.69257c0,0 0.46773,-0.77954 1.27022,-0.61016c0.10838,-0.40257 0.20576,-0.80583 0.287,-1.20944c-0.63415,0.61195 -1.2853,1.20693 -1.96185,1.77079c-0.10496,0.36822 -0.39405,0.87525 -1.19016,0.87525c-1.03666,0 -1.21359,-0.85973 -1.24379,-1.1532c-0.19456,0.20262 -0.39488,0.39762 -0.60389,0.58085c-2.1393,1.87544 -4.37823,3.62604 -6.66666,5.33333c-6.77488,6.77488 -17.47599,12.5508 -27.219,12.57235c0,0 -0.4463,0.00001 -0.80555,-0.26667h-0.52779c-3.90374,0 -6.54086,-1.34834 -10.07835,-2.49515c-5.38406,-2.68429 -8.81732,-6.59161 -12.71972,-10.98786c-1.12871,-1.27155 -2.34333,-2.55209 -3.50181,-3.8703l0.13995,0.20994c0,0 0.69337,1.04007 -0.3467,1.73344c-0.31982,0.21321 -0.60686,0.26251 -0.85103,0.22855c0.02236,0.02795 0.04472,0.0559 0.06708,0.08385l0.47644,1.18559c0,0 0.37275,1.11829 -0.69166,1.54492c0.01478,0.02463 0.02956,0.04927 0.04434,0.0739l0.17813,0.90978c0,0 0,1.25 -1.25,1.25c-1.04656,0 -1.21689,-0.87623 -1.24461,-1.16144c-0.20908,-0.34848 -0.41817,-0.69695 -0.62726,-1.04542c0,0 -0.02947,-0.04911 -0.06527,-0.1326c-0.15973,0.74655 -0.3117,1.4961 -0.45739,2.24752c0.0687,-0.05054 0.14684,-0.09841 0.23553,-0.14275c1.11804,-0.55901 1.67704,0.55903 1.67704,0.55903c0.26666,0.53333 0.53333,1.06667 0.79999,1.6l0.36132,1.32248c0,0 0.30319,1.21267 -0.90948,1.51586c-0.21981,0.05496 -0.40973,0.06011 -0.57339,0.03171c0.26111,0.81016 0.43997,1.6471 0.45353,2.48895l-1.26372,1.04153c0.18851,0.44708 0.33636,0.91095 0.43943,1.38l-0.27971,1.61497c0,0 -0.30317,1.21268 -1.51585,0.90951c-1.21268,-0.30317 -0.90951,-1.51585 -0.90951,-1.51585l0.25362,-0.51835c-0.06278,-0.36838 -0.17762,-0.73445 -0.33795,-1.07844c-0.16653,1.04624 -0.33258,2.08733 -0.50219,3.12023c0.13187,-0.04435 0.28591,-0.07026 0.46587,-0.07026c1.25,0 1.25,1.25 1.25,1.25c-0.02139,0.57621 -0.04276,1.15242 -0.06415,1.72863l-0.8482,1.22288c0.09463,0.19004 0.18925,0.38009 0.28387,0.57013zM203.61382,184.53382c-0.06365,0.38518 -0.12655,0.77019 -0.1889,1.15487c0.22436,-0.00963 0.42177,0.05554 0.58271,0.14311c-0.08302,-0.44149 -0.22626,-0.87655 -0.39381,-1.29798zM204.04093,182.35107c0.3576,-0.15326 0.6516,-0.14751 0.88694,-0.0669c-0.22905,-0.45812 -0.45812,-0.91624 -0.68717,-1.37436c-0.08937,0.48939 -0.17654,0.97925 -0.2619,1.46927c0.02015,-0.00956 0.04086,-0.01889 0.06213,-0.02801zM205.49021,175.49481c0.07792,-0.04675 0.15357,-0.08444 0.22688,-0.11414c-0.08831,-0.11039 -0.17663,-0.22079 -0.26494,-0.33118c-0.04413,0.1866 -0.08769,0.37345 -0.13068,0.56053c0.05085,-0.03964 0.10695,-0.07814 0.16874,-0.11522zM206.17558,172.21683c-0.03732,0.13523 -0.07424,0.27065 -0.11081,0.40624c0.1538,-0.00945 0.29578,0.01658 0.42231,0.06101c-0.10384,-0.15575 -0.20767,-0.3115 -0.31151,-0.46725zM262.381,175.35568c2.28308,-1.7202 4.52283,-3.46128 6.66667,-5.33334c1.96461,-1.71554 3.06438,-3.81616 5.45765,-4.91528c-0.14938,-0.09547 -0.28829,-0.23881 -0.39639,-0.45037c-7.69795,-1.59321 -15.03128,-3.36245 -23.05067,-2.29878c-8.23053,0.19165 -15.93216,3.01486 -24.09236,3.71938c-6.05124,0.52245 -12.33167,-0.71736 -18.41456,-0.79059c-0.18515,0.43658 -0.36377,0.87687 -0.53627,1.32059c1.61513,2.79451 4.33248,5.33879 6.51636,7.79239c3.65194,4.103 6.78259,7.82146 11.81361,10.34547c3.22143,1.09973 5.56161,2.30485 9.12164,2.30485h1.06667c0,0 0.44068,0 0.79873,0.26165c8.99503,-0.19131 18.84376,-5.7508 25.04893,-11.95597z" fill-opacity="0.55686" fill="#000000" stroke="none" stroke-width="0.5"></path>
    </g>
  </g>
</svg>
