<?xml version="1.0" encoding="UTF-8"?>
<svg xmlns="http://www.w3.org/2000/svg" xmlns:xlink="http://www.w3.org/1999/xlink" version="1.1" width="324.65618" height="225.34627" viewBox="0,0,324.65618,225.34627">
  <g transform="translate(-78.47468,-56.21436)">
    <g stroke="none" stroke-miterlimit="10">
      <g stroke-width="0.5">
        <path d="M183.70212,181.09973c0,-0.63106 0.23381,-1.2075 0.61954,-1.64743c0.04267,-0.30868 0.08786,-0.61554 0.13552,-0.92043c-0.11233,-0.28428 -0.17404,-0.59408 -0.17404,-0.91829c0,-0.61634 0.22304,-1.18058 0.5928,-1.61643c0.00622,-7.09398 1.99246,-13.29301 4.85584,-19.74363c0.696,-1.56795 1.52969,-4.25532 2.57662,-5.6669c0.59833,-0.80673 4.00107,-3.92381 4.78764,-4.82442c2.16945,-2.48398 4.15418,-5.33363 6.48481,-7.65528c2.95801,-2.94662 6.83359,-5.30916 10.17258,-7.81341c0,0 1.38168,-1.03627 2.70954,-0.23776c4.79281,-2.35035 9.88425,-2.84319 14.96661,-4.23694c7.09966,-1.94697 15.30409,-4.81535 22.611,-1.61783c0.9876,0.43218 1.70257,1.32944 2.61801,1.89873c2.33331,1.45103 5.09122,2.11529 7.46381,3.43337c1.88949,1.0497 3.54594,2.47886 5.39941,3.59094c2.17793,1.62974 5.17419,3.08644 7.17924,4.80348c0.83622,0.7161 1.30162,1.77976 2.02982,2.60546c2.84971,3.23125 6.05536,5.90977 8.37237,9.62011c2.08409,3.33736 3.0174,7.18425 4.76122,10.66189c1.12372,2.24101 2.4225,4.44178 3.08176,6.86051c1.87662,6.88496 1.26102,14.70797 1.23362,21.80498c-1.96465,10.02085 -6.52976,19.22621 -12.66127,27.3616c-0.65438,0.86825 -3.95384,3.87198 -4.78769,4.82445c-0.80896,0.92403 -2.83958,4.01056 -3.60703,4.77801c-2.84089,2.84087 -6.44484,4.11382 -9.74984,6.16912c-0.91544,0.56929 -1.63385,1.4588 -2.61803,1.8987c-1.75799,0.78577 -3.75238,0.98082 -5.47654,1.83828c-5.30866,0.92359 -9.318,1.20999 -14.31296,0.4397l-0.83048,0.25904c-9.0662,-1.61307 -17.87728,-2.46028 -26.2575,-6.65039c-3.88791,-1.96141 -6.40596,-4.40403 -9.36512,-7.44064c-1.49752,-1.53671 -2.31834,-1.41801 -4.13528,-2.51063c-3.03494,-1.82505 -6.70509,-4.26254 -9.22834,-6.78579c-7.78779,-7.7878 -10.07247,-20.37954 -9.14401,-31.36705c-0.1936,-0.35505 -0.30362,-0.76223 -0.30362,-1.19511zM239.07552,231.47315l2.8144,0.04855c0.31507,0.06301 0.62379,0.12166 0.92695,0.17608l1.85937,-0.67736c0,0 2.11821,-0.70606 3.01828,1.21815c2.54657,0.08502 4.99577,-0.16252 8.03868,-0.64288c1.56273,-0.78572 3.38174,-0.94163 4.98195,-1.64791c0.78589,-0.34687 1.3028,-1.13042 2.0302,-1.58741c2.9561,-1.85718 6.29795,-2.90641 8.84298,-5.45141c1.32794,-1.32792 2.12894,-3.10482 3.36526,-4.51845c1.39354,-1.59339 3.24355,-2.77492 4.50877,-4.47201c5.55736,-7.45428 9.86979,-15.78368 11.74182,-24.93073c-0.02974,-6.49818 0.62851,-13.73099 -1.09045,-20.02894c-0.57229,-2.09677 -1.75865,-3.97698 -2.7285,-5.92205c-1.66389,-3.33699 -2.53788,-7.06246 -4.53524,-10.25505c-2.17292,-3.4732 -5.25112,-5.92383 -7.89639,-8.97277c-0.54801,-0.63163 -0.8217,-1.49813 -1.45628,-2.04272c-1.8874,-1.61974 -4.6956,-2.93672 -6.76544,-4.49298c-1.7393,-1.04358 -3.28599,-2.39629 -5.05909,-3.38136c-2.43356,-1.35199 -5.24939,-2.03526 -7.64282,-3.53894c-0.72742,-0.457 -1.24796,-1.23243 -2.03022,-1.58746c-5.98406,-2.71585 -13.46947,0.30734 -19.22288,1.86837c-4.74185,1.28656 -9.6545,1.6281 -14.08128,3.89571c0,0 -1.21514,0.60756 -2.30176,0.03115c-3.03885,2.23822 -6.57853,4.3701 -9.22264,7.02607c-2.25811,2.26823 -4.18107,5.03645 -6.29784,7.4514c-1.3953,1.59184 -3.22629,2.7879 -4.50872,4.47199c-0.51018,0.66996 -1.92377,4.45935 -2.07161,4.79159c-2.70115,6.07047 -4.41523,11.72053 -4.441,18.39607c-2.08491,10.63422 -1.45276,25.14245 6.83329,33.4285c3.04984,3.04983 7.02575,4.91832 10.58607,7.1945c4.04413,2.58549 6.37552,6.39578 10.84322,8.60596c3.48754,1.74376 6.35989,2.22506 10.05277,3.32585c2.77514,0.82722 5.30469,1.94451 8.24938,2.23264c0.6014,0.05884 1.20643,0.09721 1.8113,0.1372c0.46542,-0.14936 0.84749,-0.14936 0.84749,-0.14936z" fill="#c19e4b"></path>
        <path d="M238.22623,231.67248c-0.60487,-0.03999 -1.21165,-0.07845 -1.81306,-0.13729c-2.94469,-0.28813 -5.48245,-1.40669 -8.25758,-2.23391c-3.69288,-1.10079 -6.57504,-1.58557 -10.06258,-3.32934c-4.4677,-2.21018 -6.81054,-6.02801 -10.85466,-8.6135c-3.56032,-2.27618 -7.5443,-4.1537 -10.59413,-7.20353c-8.28606,-8.28605 -8.92704,-22.82606 -6.84213,-33.46028c0.02577,-6.67555 1.74455,-12.34374 4.4457,-18.41422c0.14784,-0.33225 1.56385,-4.12613 2.07403,-4.79609c1.28243,-1.68409 3.11695,-2.88523 4.51225,-4.47707c2.11677,-2.41494 4.04645,-5.19016 6.30456,-7.45839c2.64412,-2.65598 6.19322,-4.79423 9.23207,-7.03245c1.08662,0.5764 2.30359,-0.03206 2.30359,-0.03206c4.42678,-2.26761 9.35341,-2.61336 14.09525,-3.89993c5.7534,-1.56103 13.25747,-4.58345 19.24154,-1.8676c0.78226,0.35503 1.305,1.13102 2.03241,1.58802c2.39343,1.50367 5.21695,2.1898 7.65051,3.54179c1.7731,0.98506 3.32504,2.34064 5.06434,3.38422c2.06985,1.55626 4.88449,2.87803 6.77189,4.49777c0.63458,0.54459 0.91006,1.41272 1.45807,2.04436c2.64527,3.04893 5.73096,5.50873 7.90388,8.98193c1.99736,3.19259 2.87623,6.92803 4.54012,10.26502c0.96985,1.94508 2.15797,3.83139 2.73026,5.92815c1.71897,6.29796 1.06112,13.5502 1.09086,20.04837c-1.87203,9.14705 -6.19582,17.5004 -11.75318,24.95469c-1.26522,1.69708 -3.1195,2.88299 -4.51304,4.47639c-1.23632,1.41362 -2.04134,3.19381 -3.36928,4.52173c-2.54503,2.54501 -5.89526,3.5992 -8.85136,5.45638c-0.7274,0.45699 -1.24643,1.24148 -2.03233,1.58835c-1.60021,0.70628 -3.42379,0.86382 -4.98652,1.64954c-3.04291,0.48036 -5.49941,0.72953 -8.04598,0.64451c-0.90007,-1.92422 -3.021,-1.21783 -3.021,-1.21783l-1.86121,0.67749c-0.30316,-0.05442 -0.61277,-0.11303 -0.92784,-0.17604l-2.81713,-0.04853c0,0 -0.38289,-0.00002 -0.8483,0.14934z" fill="#ffce66"></path>
      </g>
      <path d="M224.80413,205.15833c8.53552,4.3266 21.55932,6.63201 30.20621,1.44343c0.37633,-0.2986 0.75266,-0.59718 1.12899,-0.89578l0.95603,-1.20972c0,0 0.72975,-0.91217 1.70624,-0.48259l0.7394,-1.60339c0.53333,0.17777 1.06667,0.35555 1.6,0.53332c4.28795,1.4293 9.71078,2.71521 13.05937,5.90534c1.61462,1.53822 2.67136,4.65272 0.50741,6.52472c-2.279,1.97153 -8.48696,-0.31472 -11.25937,-1.447c1.93528,3.04538 2.95806,6.82904 -1.58137,8.15221c-2.27777,0.66394 -5.9237,-0.74219 -7.7235,-2.12992c-0.54722,-0.42194 -1.59604,-1.58052 -2.17015,-2.3401c-0.08208,0.36661 -0.20676,0.72034 -0.25097,0.98601c-1.12718,3.28232 -4.49558,7.17947 -8.4333,4.61166c-0.32739,-0.21349 -1.72579,-2.60773 -2.04205,-3.13482c-0.14939,-0.24898 -0.34311,-0.73737 -0.47155,-1.17027c-0.34535,0.43868 -1.04491,0.8937 -1.47046,1.15144c-2.02007,1.22348 -6.01109,2.89684 -8.04544,0.48819c-0.59275,-0.70181 -0.77355,-1.52322 -0.71601,-2.37669c-3.12194,1.8493 -6.54263,3.37565 -10.11216,2.01581c-1.9972,-0.76085 -2.83584,-2.27305 -2.76271,-3.85322c-2.25677,0.70361 -4.59134,1.0572 -6.84234,0.45363c-2.40134,-0.64389 -3.87193,-1.25627 -2.66505,-4.353c0.11268,-0.28912 2.79239,-1.94754 3.28909,-2.19652c3.40807,-1.70833 6.98924,-3.26109 10.55619,-4.60227c0,0 0.4524,-0.16965 0.93996,-0.05963c0.70251,-0.98835 1.85753,-0.41085 1.85753,-0.41085z" fill="#292f33" stroke-width="0.5"></path>
      <path d="M288.44987,167.67566l-0.0796,-0.04366l-0.45169,0.60226c-0.45492,0.62045 -1.18915,1.02329 -2.01746,1.02329c-1.38071,0 -2.5,-1.11929 -2.5,-2.5c0,-0.41989 0.10352,-0.8156 0.28642,-1.16301l0.15651,-0.31302l-0.29175,-0.29175l0.87522,-0.87521l0.39956,-0.79913c0,0 0.88069,-1.76139 2.64208,-1.37594c0.05782,-0.004 0.11618,-0.00603 0.17501,-0.00603c1.38071,0 2.5,1.11929 2.5,2.5c0,0.57191 -0.19204,1.09896 -0.51515,1.52019l-0.04577,0.06103c-0.1984,1.03768 -1.13337,1.66098 -1.13337,1.66098z" fill="#363636" stroke-width="0.5"></path>
      <path d="M230.16327,171.66566c0.99037,0 1.84623,0.57587 2.251,1.41103c0.83518,0.40476 1.41108,1.26064 1.41108,2.25102c0,1.07264 -0.67553,1.9875 -1.62436,2.34236l2.20538,-0.01827c-0.078,5.84082 -2.73528,14.30756 -10.05336,14.12053c-1.51816,-0.0388 -3.2037,-0.1884 -4.42262,-1.09425c-4.68436,-3.48123 -1.26378,-10.18057 -0.99591,-14.6267c-0.46235,0.06007 -2.41181,0.18039 -2.84318,-1.97644c-0.4903,-2.45145 1.96115,-2.94175 1.96115,-2.94175c2.95273,-0.52995 5.20957,-0.25075 7.64949,0.53076c1.07537,-0.03242 2.23938,-0.42928 3.19106,0.04682c0.09834,0.0492 0.19524,0.10061 0.29079,0.15406c0.3008,-0.12822 0.63186,-0.19917 0.97949,-0.19917z" fill="#714c19" stroke-width="0.5"></path>
      <path d="M281.48987,175.19407c0,3.00068 -0.02015,7.19886 -1.3676,9.98216c-2.4368,5.03347 -10.43798,7.90499 -14.27471,2.63663c-0.75714,-1.03967 -0.6381,-2.49233 -0.9175,-3.74777c-0.71218,-3.2001 -0.63647,-6.17393 -0.62996,-9.41543c-0.22757,0.13863 -0.44398,0.29353 -0.64778,0.46663c0,0 -1.99999,1.50001 -3.5,-0.49998c-1.50001,-1.99999 0.49998,-3.5 0.49998,-3.5c1.01117,-0.70493 1.84784,-1.77777 3.03351,-2.11479c3.3212,-0.94404 7.88839,-0.07756 11.41909,-0.6753l2.94464,0.67529c0,0 1.07991,0.35996 1.53943,1.3228c0.66681,0.35297 1.15477,0.99877 1.29259,1.7661l0.57193,2.85972l-0.08844,0.01769z" fill="#714c19" stroke-width="0.5"></path>
      <path d="M286.55438,183.15764c-0.45966,1.13919 -0.91932,2.27839 -1.37898,3.41758c-0.93489,1.24395 -2.0569,2.41452 -3.32121,3.48711c-1.88509,2.55194 -3.47775,5.27071 -6.41332,6.79897c-7.03724,3.66359 -19.37078,4.3646 -25.15868,-2.35568c-2.38535,-2.76961 -3.88979,-8.08566 -4.59923,-11.57003c-0.61112,-3.0015 -0.52216,-5.28887 -2.4537,-7.70572c0,0 -0.05437,-0.07249 -0.1286,-0.20023c-0.43012,-0.07099 -1.12788,-0.27385 -1.60329,-0.85361l0.00004,-0.00002c-1.07761,-0.33207 -2.3558,-0.42533 -2.74744,0.67191c-0.16577,0.46442 -0.20791,0.94555 -0.18603,1.43592c0.63437,0.79118 0.48604,1.73489 0.33025,2.2497c0.0646,0.40692 0.11229,0.81253 0.1112,1.21283c-1.22886,7.47257 -3.10874,13.33875 -9.89255,17.60813c-6.36984,4.00885 -12.60552,3.88559 -19.74827,2.66161c-2.45814,-0.42123 -4.19753,-0.65499 -6.2689,-2.17911c-2.92736,-2.15397 -4.78058,-4.98818 -5.9157,-8.20397v-2.10377c-0.00497,-0.68931 0.08787,-1.48364 0.21366,-2.33582c-1.14645,-0.68045 -1.14645,-2.16713 -1.14645,-2.16713l0.04855,-1.65234c0.4012,-2.00601 0.34882,-4.65262 1.55992,-6.41067c-0.35414,0.18346 -0.72214,0.34383 -1.08511,0.50674c-0.16369,0.07347 -0.33035,0.14032 -0.49865,0.20347l-0.98618,0.98618l-0.05273,-0.05273c-0.08117,0.10651 -0.16549,0.21094 -0.25326,0.31307c-0.90744,1.05584 -2.4773,1.26841 -3.72201,1.8949l-2.80958,1.68574c-0.38339,0.2392 -0.83629,0.37741 -1.32147,0.37741c-1.38071,0 -2.5,-1.11929 -2.5,-2.5c0,-0.81467 0.38967,-1.53833 0.9928,-1.99475l0.00218,-0.00437c-0.38192,-0.0104 -0.76329,-0.02436 -1.14273,-0.03668c0.05763,-0.40763 0.11525,-0.81525 0.17288,-1.22287l-0.00001,-0.00001c0,0 0.10749,-0.7524 0.6188,-1.36822c0.00162,-0.0071 0.00328,-0.01419 0.00496,-0.02127c-0.04438,-0.18645 -0.06787,-0.38099 -0.06787,-0.58103c0,-0.99801 0.58479,-1.85943 1.43041,-2.26029l2.27567,-1.13783l0.0201,0.0402c0.04649,-0.03853 0.09356,-0.07649 0.14122,-0.11383c0.02301,-0.01802 3.20725,-1.07675 5.35853,-1.79085c-0.92159,-0.87014 -1.74806,-1.90901 -2.12536,-3.10101c-1.90642,-6.023 2.96973,-8.8803 7.72898,-10.16485c-2.82343,-3.31749 -0.14586,-11.95581 4.87671,-12.87051c1.17996,-0.21489 2.21303,0.93649 3.35996,1.28727c1.06987,0.32721 2.31019,0.17246 3.27345,0.74152c1.2663,0.74809 2.25926,1.91365 3.17252,3.06652c0.52707,0.66536 0.9808,1.42287 1.24671,2.23185c1.73064,-1.80394 4.41892,-2.91194 6.9345,-2.66694c5.43447,0.52928 6.26422,5.70746 9.11012,8.97426c1.84118,2.11348 4.12817,3.04895 6.35242,4.7065l2.12499,1.0625c0.24983,0.11843 0.4769,0.27707 0.67284,0.46755c1.34944,-0.1723 2.71032,-0.26326 4.06786,-0.2685l1.29257,0.28922c1.14355,-0.91456 2.31245,-2.22837 3.26686,-3.64066l0.75781,-1.51561l0.0965,0.04825c0.05622,-0.16977 0.12091,-0.3372 0.1954,-0.50192c0.12899,-0.28524 0.28485,-0.55034 0.4624,-0.79926c0.10588,-0.25863 0.19942,-0.51408 0.27917,-0.76452c0.71477,-2.24459 0.26641,-4.7449 2.59024,-6.40464c2.27586,-1.62548 7.4347,-1.45624 9.40788,0.60001c0.67727,0.70578 -0.69638,1.898 -0.60365,2.87177c0.02969,0.31173 0.58835,-0.23659 0.8364,-0.4277c0.54395,-0.41908 0.96085,-0.99226 1.5214,-1.38886c0.92189,-0.65227 1.9634,-1.11978 2.90513,-1.74307c2.52185,-1.66911 3.77491,-4.34059 6.01848,-6.08444c1.3359,-1.03835 2.79196,-2.8091 4.44544,-2.45019c5.38417,1.16872 3.65508,5.40137 3.20484,8.41649c-0.38734,0.96837 -0.64824,1.99748 -1.16203,2.90511c-0.19727,0.34848 -1.17616,0.46496 -0.91989,0.77266c0.26816,0.32197 0.77582,-0.31707 1.15997,-0.48439c0.71913,-0.31322 1.43983,-0.62343 2.14968,-0.95714c3.55292,-1.6703 8.5046,-3.96212 10.91285,1.38836c0.63504,1.41088 -0.14791,3.11514 -0.55174,4.60872c-0.36007,1.33172 -0.93566,2.43752 -1.67099,3.36239c0.68572,0.84946 1.49827,1.64377 1.7444,2.68437c0.28713,1.21397 -0.35914,2.46895 -0.53125,3.70448c-0.1984,1.42423 0.39666,3.21957 -0.58029,4.27473c-1.08966,1.1769 -3.03982,1.07119 -4.62059,1.34254c-0.27621,0.04741 -0.91659,-0.62986 -0.72551,-0.42484c2.1711,2.32944 1.27196,4.80228 0.66075,7.8341c-0.2998,1.48714 -0.68353,2.84031 -1.17937,4.10358zM249.43832,172.15684c0.52742,3.16642 1.2421,5.37286 2.22281,8.31505c0.79356,2.38072 1.02432,4.77428 2.56855,6.90292c3.01652,4.1581 8.62617,4.57694 13.16929,3.65853c4.06894,-0.82256 7.40891,-1.55261 10.31366,-3.74182c0.16012,-0.22724 0.32271,-0.45241 0.48959,-0.67397c1.64091,-1.61332 2.79895,-3.31708 3.61902,-5.18861l0.46634,-2.37907c0,0 0.15234,-0.7617 0.71177,-1.35102c0.17024,-0.7923 0.30567,-1.61502 0.41394,-2.47225c0.24508,-1.94038 -1.83115,-3.98215 -1.04596,-5.77342c0.64101,-1.46236 2.44505,-2.14407 3.92272,-2.74896c0.72761,-0.29785 1.72725,0.65818 2.35171,0.1805c0.4346,-0.33244 -0.58787,-0.98841 -0.58029,-1.53553c0.00953,-0.68708 0.67838,-1.30473 0.64673,-1.97222c-0.57925,-0.12909 -0.97424,-0.42192 -1.24357,-0.76124c-1.43,0.61609 -2.98474,1.04292 -4.54043,1.38036c-0.41922,0.71511 -1.13434,1.07266 -1.13434,1.07266l-1.86909,0.81092c-9.86985,1.62186 -19.81688,1.76692 -29.83208,1.7765c0.00362,0.05549 0.00505,0.11042 0.00454,0.16467l0.46651,0.65448c0,0 0.53221,2.1287 -1.39485,2.89615c0.21309,0.42344 0.27341,0.78538 0.27341,0.78538zM205.63141,170.1997c-0.53162,1.05382 -1.39138,1.93745 -2.05049,2.91732c-0.02148,0.74048 -0.41417,1.51791 -0.76998,2.29406c0.0624,0.48731 0.21068,0.98708 0.1671,1.47029c-0.08141,0.90266 -0.56235,1.75249 -0.56885,2.65879c-0.06174,8.60958 7.41327,12.43059 14.89048,12.60702c2.37532,0.05605 2.23322,-0.94778 4.49645,-1.62088c1.05883,-0.3149 2.24415,-0.10693 3.27577,-0.50198c1.51432,-0.5799 2.55718,-1.99538 3.86395,-2.95549c2.16382,-2.94513 3.85049,-4.96614 4.54552,-8.59997l0.53083,-1.1929c0.00003,-1.86532 0.03874,-4.2507 0.2656,-4.66404c0.2127,-0.38756 0.44396,-0.73731 0.69133,-1.05181c-0.23724,-0.3823 -0.37422,-0.83333 -0.37422,-1.31635c0,-0.48517 0.13821,-0.93807 0.3774,-1.32146l0.92161,-1.53605l0.40099,-1.0025c-1.04761,0.32184 -2.12679,0.51778 -3.43097,0.61553c-1.14005,2.04377 -3.27836,0.97462 -3.27836,0.97462c-2.54052,-1.37695 -4.68116,-0.89474 -7.59736,-0.89813c-5.45848,-0.00633 -10.74923,1.04631 -16.08799,2.10644c-0.05122,0.58236 -0.26879,1.01751 -0.26879,1.01751z" fill="#292f33" stroke-width="0.5"></path>
      <g stroke-width="0.5">
        <path d="M258.56775,197.0822c2.45685,2.64828 2.60301,8.05943 0.21899,10.88524c-1.3587,1.61049 -4.93979,3.69138 -7.57362,2.74033c-0.39287,0.5065 -0.81041,0.95238 -1.24144,1.28635c-4.92727,3.81763 -11.78104,0.95413 -16.3801,-2.32528c-0.57304,0.23643 -1.1546,0.43054 -1.76705,0.47102c-4.5935,0.30361 -7.93946,-3.14573 -7.92395,-7.74422c0.012,-3.55567 2.88648,-5.91515 5.33766,-7.89785c0,0 1.13062,-0.9045 2.35934,-0.47638c0.4622,-1.04073 0.91702,-2.03182 1.2927,-2.92816c1.68673,-4.02444 2.55829,-8.49157 3.93798,-12.63386l0.35104,-0.2165c-0.0793,-0.34243 -0.07931,-0.59294 -0.07931,-0.59294c0.07868,-1.28679 -0.41526,-2.74779 0.23602,-3.86038c1.94734,-3.32662 5.60019,-4.75822 9.06582,-2.459c1.07279,0.71173 1.04658,2.35252 1.56986,3.52879l0.45365,1.78427c0,0 0.13174,0.52697 0.02677,1.15105c0.35596,0.5644 0.42856,1.1452 0.42856,1.1452c0.62311,5.15595 3.26831,10.4883 4.75015,15.81301c1.65735,0.53734 3.99693,1.31608 4.93692,2.32932zM238.296,204.12715c-0.10894,-0.06572 -0.21526,-0.1347 -0.31851,-0.20674c0.02805,0.06582 0.05209,0.13146 0.07245,0.19678c0.08336,0.06659 0.17158,0.13388 0.2657,0.20247c-0.00214,-0.01693 -0.00416,-0.03384 -0.00606,-0.05072c-0.00531,-0.04731 -0.00984,-0.09458 -0.01359,-0.14178z" fill="#ff924c"></path>
        <path d="M230.83994,194.34389c0.03932,-0.06291 0.07932,-0.12535 0.12001,-0.18731c0,0 0.0028,-0.0042 0.00832,-0.0119c0.13834,-0.21939 0.36888,-0.4609 0.73398,-0.53395c0.16027,-0.04509 0.34295,-0.05658 0.54447,-0.00601c0.18288,0.02665 0.37459,0.09948 0.54911,0.25318c0.15064,0.10986 0.25294,0.24178 0.32143,0.3788c0.1053,0.17552 0.14557,0.35521 0.14898,0.52295c0.03027,0.24793 -0.02508,0.4577 -0.11621,0.62933c-0.33275,1.38722 0.08607,2.3101 0.09998,3.86098l0.03388,-0.48389c0,0 0.88388,0.88388 0,1.76776c-0.88388,0.88388 -1.76777,0 -1.76777,0l-0.50615,-0.84823c-0.47735,-0.0728 -0.86591,-0.41562 -1.00495,-0.86772l-0.39088,-1.17265l0.18857,-0.06286l-0.25271,-0.33243c0.13664,-0.45346 0.29669,-0.90277 0.48212,-1.34134c-0.05479,-0.22383 -0.08213,-0.45049 -0.08213,-0.65866z" fill="#863528"></path>
        <path d="M256.38579,198.84527l-1.10195,1.28857c0,0 -0.48703,0.48704 -1.09958,0.37652c-0.1678,0.0176 -0.36015,-0.00141 -0.57958,-0.07455c-1.18586,-0.39528 -0.79058,-1.58113 -0.79058,-1.58113l0.33585,-0.80472c-0.24883,-0.6481 -0.34351,-1.34872 -0.37951,-2.04951c-0.03964,-0.14622 -0.05066,-0.31467 -0.01717,-0.50759c-0.00153,-0.08116 -0.00259,-0.16216 -0.00332,-0.24291c0,0 0,-1.25 1.25,-1.25c0.76483,0 1.06169,0.46797 1.17691,0.83125c1.61821,0.87403 1.82082,1.91106 1.20892,4.01406z" fill="#863528"></path>
      </g>
      <path d="M78.47468,56.21436z" fill="#ff9500" stroke-width="0"></path>
      <g stroke-width="0.5">
        <g>
          <path d="M258.13292,260.27241c-0.95077,-0.16692 -1.71359,0.58665 -1.71359,0.58665l-1.28265,1.27445c-4.09923,4.72487 -8.83191,7.8583 -13.78471,11.61458c-5.08226,1.58589 -10.0873,3.36865 -15.43287,3.88705c-5.14794,0.49921 -9.72196,-1.76356 -14.34648,-3.49886c-4.84895,-1.81953 -9.16174,-3.76908 -13.12768,-7.20987c-3.56375,-3.0544 -4.25624,-6.0701 -5.39477,-10.26378c-0.53972,-1.98799 -2.6095,-3.40103 -2.96375,-5.43029c-0.25489,-1.46001 1.17465,-5.66843 1.61271,-7.07117c1.34411,-4.30416 4.27458,-7.92155 7.0058,-11.5183c3.37593,-4.44578 6.09015,-8.61545 11.21948,-11.14178c1.97981,-1.53362 3.78357,-1.57439 6.1496,-2.34735c12.35821,-4.03728 22.70134,2.09167 33.323,7.54967c0,0 0.76954,0.38952 1.5439,0.14579c0.28759,0.07321 0.50453,0.07497 0.50453,0.07497c6.51459,-0.08346 12.80671,-5.05375 18.90475,-7.21375c5.85739,-2.07476 13.41344,2.95073 17.66568,6.47939c2.20279,4.62146 4.85336,8.01144 3.12723,13.358c-1.18793,3.67954 -5.70189,4.61647 -5.77409,9.47181c-0.01742,1.17126 0.78709,4.75247 1.4649,5.8197c1.60024,2.51959 8.79444,6.43044 2.66116,8.21135c-4.72202,-0.06387 -8.68648,-3.10331 -13.01722,-4.66198c-6.4921,-2.33657 -12.45885,-0.82886 -18.34493,1.88376z" fill="#781616"></path>
          <g>
            <g>
              <path d="M290.00857,231.3106c-0.07348,0.05443 -0.14608,0.10288 -0.21771,0.1458c-4.20947,4.22209 -10.54147,5.89674 -16.46986,4.48624c-3.44289,-0.81915 -6.73954,-2.95594 -10.29899,-3.09568c-9.03977,1.10104 -14.52276,8.71816 -23.18387,10.91485c-7.72246,1.95863 -13.08492,-1.56677 -20.35468,-2.8752c-10.673,-1.10673 -11.03136,11.1475 -17.09371,16.36999c-4.02607,3.46832 -9.39821,4.56383 -13.38732,0.73432c0,0 -1.06752,-1.08039 -0.37098,-2.27841c0.02467,-0.37438 0.13001,-0.64602 0.13001,-0.64602c1.08145,-2.55077 0.39118,-5.37315 1.32763,-8.13185c3.41927,-10.07288 9.43537,-20.50426 18.63151,-26.30461c4.43131,-2.09181 8.33069,-4.59993 13.44863,-4.46235c10.94345,0.29419 19.40023,9.48234 29.88001,9.99055l0.82133,-0.07055c0.28664,-0.13186 0.51599,-0.17215 0.51599,-0.17215c9.76702,-1.68999 18.9335,-11.45423 29.09235,-5.58493c3.06892,1.77307 5.4136,5.1008 7.60523,7.7948l0.3326,0.44566c0,0 0.36175,0.48842 0.41011,1.12262l0.32935,0.20434c-0.14355,0.18693 -0.29079,0.3701 -0.44151,0.54948c-0.11802,0.2931 -0.33652,0.58933 -0.70612,0.86307zM280.53769,223.73279c-8.41347,-4.74575 -18.20554,4.56974 -26.47356,6.04073c0,0 -0.00231,0.00041 -0.0068,0.00111c-0.39805,0.18168 -0.75518,0.207 -0.75518,0.207l-1.45424,0.08846c-10.57459,-0.57136 -18.96196,-9.62532 -29.79411,-9.98707c-4.33605,-0.14481 -7.70475,2.22265 -11.45385,3.98374c-8.32436,5.198 -13.72123,15.08584 -16.79968,24.12092c-0.90629,2.6599 -0.4291,5.11773 -1.20253,7.73574c2.68952,1.70079 6.81918,-0.53574 8.53274,-3.05473c1.6115,-2.36898 2.39267,-5.32517 3.92444,-7.75342c3.28871,-5.21349 8.76913,-8.60242 14.95051,-8.1107c6.69496,1.20639 11.82896,4.75945 18.85004,2.96551c8.97498,-2.29318 14.42806,-9.91784 24.03545,-11.03791c8.04516,0.47485 16.56299,6.75601 23.327,0.61817c-1.63333,-2.10443 -3.45221,-4.56079 -5.68023,-5.81753z" fill="#783232"></path>
              <path d="M286.28143,229.53521c-6.76401,6.13785 -15.40393,-0.0994 -23.4491,-0.57425c-9.60739,1.12007 -15.0187,8.77901 -23.99369,11.07218c-7.02107,1.79393 -12.07433,-1.80892 -18.76929,-3.01532c-6.1814,-0.49172 -11.66095,2.87574 -14.94967,8.08923c-1.53176,2.42825 -2.31552,5.37272 -3.92703,7.74171c-1.71355,2.51901 -5.96745,4.79572 -8.65696,3.09493c0.77342,-2.618 0.29384,-5.08561 1.20014,-7.74551c3.07846,-9.03509 8.48376,-18.96703 16.80815,-24.16503c3.74909,-1.76109 7.13309,-4.14602 11.46916,-4.0012c10.83214,0.36175 19.31078,9.42548 29.88536,9.99685l1.4561,-0.08605c0,0 0.3577,-0.02453 0.75574,-0.20621c0.00449,-0.00071 0.00679,-0.0011 0.00679,-0.0011c8.26802,-1.47099 18.06749,-10.77311 26.48097,-6.02735c2.22801,1.25675 4.04998,3.72271 5.68331,5.82712z" fill="#a14343"></path>
            </g>
            <path d="M278.49285,224.57083c0.60819,1.86169 -1.2535,2.46986 -1.2535,2.46986l0.20721,-0.14697c-2.53752,1.70662 -5.81314,3.89314 -9.05911,3.44549c-2.24221,-0.30921 -3.45132,-1.59181 -5.82701,-1.1671c-4.49892,0.80425 -7.58142,4.66451 -12.35496,5.26434c-3.10197,0.38978 -5.76012,-1.21182 -8.7546,-0.88524c0,0 -0.28825,0.02573 -0.65303,-0.05344c-0.07913,0.03458 -0.12788,0.0505 -0.12788,0.0505l-2.06973,0.673c-3.30932,0.65255 -5.44442,0.84417 -8.24725,-1.32499c-2.98112,-2.30716 -5.21726,-8.79815 -10.001,-5.92107c-2.67827,3.55598 -4.96699,5.36883 -8.92056,7.39573c-2.60176,1.33385 -5.58384,1.60583 -7.34881,4.18001c-3.29704,4.80868 -1.39412,11.249 -5.96916,15.12979c-1.71026,1.45073 -2.74093,1.46393 -4.86771,2.03911c0,0 -1.89419,0.4978 -2.39199,-1.39638c-0.4978,-1.89419 1.39638,-2.39199 1.39638,-2.39199c5.54432,-1.40441 4.37755,-3.95482 5.3645,-8.63064c0.43422,-2.05713 2.00258,-5.23182 3.24124,-6.97052c2.99949,-4.21037 8.513,-4.95423 12.75772,-7.48148c1.76751,-1.05236 2.92691,-3.29152 4.18973,-4.84806c0.92893,-0.50892 1.75647,-1.2811 2.7868,-1.52675c8.60329,-2.05123 9.36039,9.67162 17.00151,7.96235l1.86196,-0.61142c0,0 0.53612,-0.17514 1.12695,-0.04974c0.29372,-0.10507 0.52231,-0.12547 0.52231,-0.12547c2.98006,-0.22465 5.67559,1.30794 8.61229,0.90056c4.61353,-0.64 7.65021,-4.45205 12.18616,-5.2393c2.80629,-0.48706 4.48531,0.61169 7.05215,1.15237c1.96993,0.41494 4.82259,-1.81235 6.30062,-2.81553l0.76888,-0.33046c0,0 1.86169,-0.60819 2.46986,1.2535z" fill="#b17878"></path>
          </g>
          <g>
            <path d="M246.89751,246.10571c0.13739,0.33875 0.16242,0.61919 0.16242,0.61919c0.36591,4.16707 1.41883,12.18443 4.24143,15.43931c0.54118,0.62405 3.45326,-1.40698 3.80091,-1.59623c4.5003,-2.45001 9.58852,-4.79907 14.30372,-6.71859c3.92377,-1.84943 7.58959,-3.81927 11.3246,-5.99383c1.05534,-0.61444 2.31975,-0.93091 3.20848,-1.76846c0.39451,-0.37179 1.31851,-1.24128 0.80446,-1.41339c-0.98551,-0.32998 -2.09068,0.0635 -3.11607,-0.10595c-6.58723,-1.0886 -13.31548,-1.23019 -19.99968,-0.75557c-4.77232,0.33301 -9.99576,1.00489 -14.73028,2.29354zM243.31715,246.07097l0.0745,-3.00239c5.62066,-1.82231 12.07096,-2.74011 17.95914,-3.16363c6.98797,-0.49463 14.02272,-0.34068 20.91247,0.79769c1.32589,0.21907 4.76443,0.55858 5.47004,1.44035c1.51104,1.88828 0.37813,5.09052 -0.92536,6.61104c-0.3904,0.45542 -3.51346,2.14193 -4.10442,2.48537c-3.86733,2.24749 -7.6708,4.28973 -11.73178,6.20043c-4.60287,1.82473 -9.60889,4.17594 -13.99116,6.56542c-2.34683,1.27964 -5.2339,3.15988 -7.9885,1.32279c-0.81069,-0.54067 -0.99117,-1.67803 -1.48704,-2.51688c-2.61198,-4.41861 -3.88608,-10.64646 -4.3466,-15.73831c0,0 -0.04377,-0.49076 0.15873,-1.00192z" fill="#868686"></path>
            <path d="M261.61422,243.74829c6.68418,-0.47464 13.4877,-0.29049 20.07492,0.79812c1.02539,0.16946 2.13154,-0.22092 3.11705,0.10905c0.51406,0.17212 -0.40906,1.04494 -0.80358,1.41674c-0.88872,0.83754 -2.1524,1.15757 -3.20776,1.77202c-3.735,2.17455 -7.40587,4.18312 -11.32964,6.03256c-4.71521,1.91952 -9.90455,4.29125 -14.40485,6.74125c-0.34764,0.18926 -3.26526,2.21508 -3.80644,1.59104c-2.82261,-3.25487 -3.89127,-11.33372 -4.25717,-15.50079c0,0 -0.02443,-0.28252 -0.16182,-0.62126c4.73451,-1.28866 10.00696,-2.00574 14.77927,-2.33874z" fill="#a2a2a2"></path>
          </g>
          <path d="M249.75903,248.48193c0.41021,-3.3084 -1.92923,-8.92091 -3.26924,-11.79438c-0.44431,-0.95278 -0.36088,-2.56644 -1.37661,-2.83755c-0.82195,-0.21939 -2.51218,0.05386 -4.02553,0.3425c2.05957,4.85869 3.20034,9.46375 2.97659,14.78135l-0.00167,0.32126c1.62257,0.06903 5.5656,0.24232 5.69647,-0.81316zM236.42922,232.93546c-0.23127,-1.9448 1.71354,-2.17608 1.71354,-2.17608c1.83174,-0.21749 6.47109,-1.34356 8.26218,-0.60729c4.50845,1.85333 5.60016,10.0356 6.51432,14.15865c0.21042,0.94903 0.94014,4.35671 0.59428,5.28765c-1.59606,4.29617 -6.35794,3.4858 -9.96048,3.59287l-1.65359,-0.2152c0,0 -1.5203,-0.22649 -1.66657,-1.625c-0.09666,-0.33755 -0.09505,-0.60469 -0.09505,-0.60469l0.01297,-1.94098c0.21101,-4.78655 -0.85377,-8.88807 -2.74729,-13.26659c0,0 -0.23873,-0.55467 -0.14304,-1.1806c-0.39273,-0.2398 -0.7414,-0.66695 -0.83128,-1.42273z" fill="#343434"></path>
          <path d="M244.05289,249.35964l0.00126,-0.32132c0.22376,-5.3176 -0.93768,-10.04476 -2.99724,-14.90346c1.51333,-0.28864 3.2338,-0.56957 4.05574,-0.35017c1.01572,0.27112 0.94889,1.88681 1.39321,2.83957c1.34001,2.87347 3.70049,8.60293 3.29028,11.91133c-0.13086,1.05548 -4.1207,0.89308 -5.74327,0.82405z" fill="#434343"></path>
          <path d="M269.58111,247.92974c-1.95847,-0.01174 -1.94672,-1.97022 -1.94672,-1.97022l0.01331,-0.74851c-0.40656,-4.60706 -1.08677,-8.87629 -4.34992,-12.3184c0,0 -1.33841,-1.42982 0.09142,-2.76824c0.14143,-0.13239 0.28196,-0.23768 0.42038,-0.31997c0.09286,-1.7363 1.89704,-1.7899 1.89704,-1.7899c1.6734,-0.04952 3.34788,-0.07439 5.02197,-0.06457l0.46709,0.00279c0,0 1.35564,0.00811 1.80445,1.13871c3.50186,2.71806 6.01034,7.15056 6.33398,11.5891c0.21199,2.90719 -0.57716,6.34218 -3.6417,7.53241c-1.0091,0.39194 -2.16097,0.13327 -3.24146,0.1999l-1.13475,0.0821c0,0 -0.96408,0.06834 -1.58575,-0.56826c-0.04849,0.0023 -0.09826,0.00334 -0.14936,0.00304zM272.33463,244.49754c6.8937,0.15371 1.12492,-10.21608 -2.17084,-12.63274c-0.8775,-0.00134 -1.75507,0.00696 -2.63247,0.02333c2.69617,3.7213 3.54778,7.97229 3.98948,12.66607z" fill="#343434"></path>
          <path d="M271.52614,244.61927c-0.44171,-4.69376 -1.32978,-9.0672 -4.02595,-12.78851c0.8774,-0.01636 1.77761,-0.03203 2.65512,-0.03069c3.29576,2.41667 9.08667,12.91504 2.19298,12.76131z" fill="#434343"></path>
          <g>
            <path d="M234.77731,267.04913c-0.57503,0.69384 -1.32021,0.14504 -1.32021,0.14504c-4.11789,-3.15217 -0.64179,-8.99477 4.24717,-8.17826c2.17919,0.36395 3.71645,3.19789 2.74714,5.22426c-1.09361,2.28626 -3.45919,2.99259 -5.6741,2.80896zM233.56333,264.13264c0.1333,0.07273 0.21465,0.14819 0.21465,0.14819l0.89209,0.87905c1.76437,0.30545 5.90776,-1.90098 3.38051,-3.83884c-1.82414,-1.39873 -4.85721,0.7813 -4.48723,2.8116z" fill="#868686"></path>
            <path d="M238.09757,261.27575c2.52726,1.93787 -1.70202,4.24204 -3.46639,3.93659l-0.91205,-0.90318c0,0 -0.08343,-0.08031 -0.21674,-0.15305c-0.36996,-2.0303 2.77104,-4.27908 4.59519,-2.88035z" fill="#a2a2a2"></path>
          </g>
          <g>
            <path d="M213.21377,263.35516c-0.03183,0.00828 -0.05061,0.01158 -0.05061,0.01158c-5.68117,0.52222 -2.62702,-7.55684 1.79553,-7.72381c3.12939,-0.11814 5.56801,2.38923 3.96331,5.55109c-1.01891,2.00764 -2.88678,2.28615 -4.86026,2.55776zM212.36253,261.54507c0.46458,-0.55982 1.16897,-0.20232 1.16897,-0.20232l0.81886,0.47193c1.11089,-0.27437 2.22642,-0.32716 2.8252,-1.50699c1.00344,-1.97715 -1.20464,-3.55373 -3.03379,-2.69174c-0.99682,0.46976 -2.88652,3.88109 -1.77923,3.92911z" fill="#868686"></path>
            <path d="M214.12144,257.55393c1.82915,-0.86199 4.12179,0.78836 3.11835,2.76551c-0.59878,1.17981 -1.79606,1.28374 -2.90696,1.55812l-0.84586,-0.48708c0,0 -0.71445,-0.36943 -1.17903,0.19039c-1.10729,-0.04802 0.81668,-3.5572 1.8135,-4.02695z" fill="#a2a2a2"></path>
          </g>
          <g>
            <path d="M221.22073,270.76518c-4.46769,-1.97307 1.24188,-9.55808 5.99344,-5.68533c4.11696,3.35551 -1.63907,8.87023 -5.65782,6.06397zM221.72665,268.61815c0.29351,0.09436 0.48522,0.31267 0.48522,0.31267l0.66865,0.76996c1.36405,1.1117 4.76127,-0.69436 3.79286,-2.48628c-2.08013,-3.84905 -4.72527,0.22723 -4.94673,1.40363z" fill="#868686"></path>
            <path d="M226.73545,267.19429c0.96841,1.79191 -2.53462,3.66665 -3.89867,2.55497l-0.68463,-0.79206c0,0 -0.19534,-0.22883 -0.48884,-0.32319c0.22146,-1.1764 2.99201,-5.28875 5.07214,-1.4397z" fill="#a2a2a2"></path>
          </g>
          <g>
            <path d="M225.88052,260.42467c-0.32069,0.16263 -0.67669,0.09368 -0.67669,0.09368c-6.23502,-1.43911 -1.3844,-8.43103 3.34501,-7.22091c5.04083,1.28979 2.42238,7.54082 -1.71007,7.595zM225.13106,258.51191c0.45999,-0.41964 1.07756,-0.10621 1.07756,-0.10621l1.09155,0.58335c1.94459,0.10025 3.01022,-3.39501 0.78729,-3.78822c-2.10241,-0.37191 -5.72121,2.61752 -2.95639,3.3111z" fill="#868686"></path>
            <path d="M228.12346,255.14636c2.22292,0.39321 1.13412,4.00694 -0.81047,3.90669l-1.13314,-0.58875c0,0 -0.63837,-0.32954 -1.09837,0.09009c-2.76483,-0.69358 0.93957,-3.77994 3.04198,-3.40803z" fill="#a2a2a2"></path>
          </g>
          <path d="M289.21954,249.11608c0.04545,5.27031 6.71596,6.59085 6.93742,11.68208c0.14965,3.4405 -3.63192,5.24677 -6.1192,6.10085c-6.92059,-0.00867 -12.00552,-4.9609 -18.71172,-5.70428c-4.7112,-0.52224 -8.31052,0.96944 -12.37261,2.95071c-0.16288,0.25466 -0.59646,0.82186 -1.29624,0.95701c-4.3236,4.84884 -9.23165,8.23399 -14.50045,12.06129c-5.49164,1.85504 -11.04891,3.83521 -16.87529,4.31889c-10.05693,0.83487 -22.89963,-5.1651 -30.34348,-11.62329c-4.08879,-3.58295 -5.35845,-7.25499 -6.62022,-12.24483c-0.53695,-2.12345 -2.66231,-3.66699 -3.04258,-5.82403c-0.34198,-1.9399 1.1773,-6.97974 1.75229,-8.79999c1.50936,-4.77814 4.59841,-8.71802 7.62358,-12.7013c3.65569,-4.81348 6.71907,-9.35142 12.28648,-12.09353c2.3202,-1.65803 4.31086,-1.85191 6.96659,-2.7195c13.44883,-4.39357 24.40049,1.83477 35.99904,7.67144c0.30859,-0.08006 0.54454,-0.07863 0.54454,-0.07863c5.80695,0.19619 12.08029,-5.32842 17.64129,-7.03441c7.72069,-2.36852 16.44428,2.84795 21.96982,7.79153c0.02651,0.05237 0.05308,0.1047 0.07968,0.15696c-0.193,0.55855 -0.00904,1.12166 -0.00904,1.12166c0.44677,1.32264 1.10611,2.58956 1.92808,3.718l1.05572,1.07342c0.93704,2.15281 1.58191,4.33405 1.52739,6.69112c-0.11449,0.14731 -0.17199,0.26058 -0.17199,0.26058c-0.86666,1.70766 -2.44241,4.81247 -3.30907,6.52012c0,0 -0.23359,0.46025 -0.17922,0.99447c-1.41424,1.34172 -2.77861,2.69833 -2.76088,4.75367zM276.41627,258.367c4.33073,1.55868 8.29523,4.59801 13.01725,4.66188c6.13328,-1.78091 -1.0636,-5.68166 -2.66383,-8.20126c-0.67781,-1.06723 -1.4833,-4.63976 -1.46589,-5.81102c0.07221,-4.85535 4.58694,-5.77879 5.77487,-9.45832c1.72612,-5.34657 -0.91881,-8.71869 -3.12161,-13.34016c-4.25224,-3.52866 -11.79422,-8.53495 -17.65163,-6.4602c-6.09804,2.15999 -12.36657,7.14451 -18.88116,7.22798c0,0 -0.21548,-0.00129 -0.50307,-0.07449c-0.77435,0.24372 -1.53935,-0.14452 -1.53935,-0.14452c-10.62167,-5.45798 -20.90309,-11.60465 -33.26131,-7.56737c-2.36603,0.77296 -4.16386,0.80682 -6.14368,2.34044c-5.12933,2.52634 -7.83375,6.67682 -11.20968,11.12261c-2.73122,3.59676 -5.65875,7.19812 -7.00286,11.50228c-0.43804,1.40273 -1.86766,5.60258 -1.61278,7.06259c0.35426,2.02926 2.42312,3.43531 2.96283,5.42331c1.13852,4.19369 1.8268,7.19549 5.39055,10.2499c3.96592,3.44079 8.26922,5.37472 13.11818,7.19425c4.62453,1.73531 9.18206,3.98373 14.32999,3.48451c5.34558,-0.51839 10.32432,-2.31022 15.4066,-3.89611c4.9528,-3.75628 9.64001,-6.87814 13.73925,-11.60302l1.27759,-1.27049c0,0 0.75862,-0.74959 1.70938,-0.58267c5.88607,-2.71262 11.83825,-4.19667 18.33035,-1.8601z" fill="#4e0e0e"></path>
        </g>
        <g>
          <path d="M390.45365,227.44633l-0.24793,-0.5629c-1.84882,0.49979 -3.68006,1.05412 -5.47293,1.71556c2.17074,0.72884 4.56368,1.25849 5.8901,-1.01962c-0.10661,-0.06965 -0.16924,-0.13304 -0.16924,-0.13304zM401.16165,223.46594l-0.03773,0.25739c0.07753,0.0202 0.15924,0.05105 0.24509,0.09462c0.76256,0.38701 0.52124,1.10196 0.44782,1.27698l0.12779,0.79358c0,0 -0.00263,0.43846 -0.29777,0.72683c-0.06593,0.52497 -0.14961,0.99314 -0.24957,1.11293c-0.64026,0.76719 -5.35661,1.53576 -6.36218,1.34966c-0.86151,-0.15943 -1.83606,-1.36936 -2.61739,-2.09964l0.11384,1.18364c-2.4005,4.60904 -6.93551,2.56248 -10.57917,1.56453c0,0 -0.38537,-0.1076 -0.59468,-0.43155c-0.3122,-0.03562 -0.52817,-0.11939 -0.52817,-0.11939l-1.95745,-0.75916c-1.76546,-0.69332 -3.29545,-1.61242 -4.98865,-2.37228c-0.73704,0.18011 -1.43441,-0.17382 -1.43441,-0.17382l-0.01288,-0.04918c-5.70047,-1.61668 -10.65303,-8.59447 -6.50085,-14.46936c0.37706,-0.5335 1.01288,-1.04716 1.70072,-1.51501c0.32128,-0.38394 0.7083,-0.57454 0.7083,-0.57454c2.67702,-1.09843 3.22587,-5.36839 4.49673,-7.87938l0.99101,-1.44755c0,0 0.55834,-0.79626 1.44923,-0.87314c0.26501,-0.91641 0.22212,-1.91545 0.75186,-2.7193c1.66675,-2.5292 5.77121,-1.51794 7.44835,0.28397l0.37854,0.90376c0,0 0.17304,0.5297 -0.14152,0.92047c0.9964,-0.12448 1.9969,-0.24384 2.99789,-0.35192c0.00156,-0.06199 0.0072,-0.09991 0.0072,-0.09991h0.00004c0.17116,-1.13825 0.29551,-2.9094 1.19916,-3.78016c1.91714,-1.84736 7.50073,-0.61499 8.12731,1.65053l0.24158,0.70781c0,0 0.20769,0.63571 -0.24556,1.02806c0.36185,0.00879 0.72215,0.02185 1.08077,0.03952l0.41605,-0.07783c0,0 1.34993,-0.16053 1.93417,0.91058c1.06331,0.13544 1.50996,1.24619 1.50996,1.24619c2.40161,6.12036 2.55117,13.82335 1.59287,20.27426l-0.75793,1.71552c0,0 -0.11645,0.22946 -0.34811,0.47982c0.03302,0.60264 -0.22196,1.10502 -0.22196,1.10502l-0.08178,0.07214c-0.00284,0.03176 -0.00568,0.06355 -0.00852,0.09531zM395.37734,227.14957c2.2383,0.11247 3.97868,-0.13972 4.39848,-1.86331c-0.09263,-0.14569 -0.18209,-0.29351 -0.2688,-0.44304c-0.08672,-0.05719 -0.15475,-0.12475 -0.20801,-0.19711c-1.74277,0.43463 -3.49991,0.84164 -5.25412,1.26492c0.57765,0.57619 1.24447,1.23412 1.33246,1.23853zM401.80668,224.96464c-0.0012,0.01342 -0.00247,0.02792 -0.00381,0.04341l0.00146,0.00906zM394.43006,197.18554l-0.30888,-0.9772c0.05455,-0.50715 -3.35572,-1.05549 -4.30273,-1.00788c-0.79478,0.03998 -1.01885,1.82748 -1.11363,2.70049c2.00868,-0.18166 4.0096,-0.30135 5.97343,-0.30907c-0.17751,-0.19002 -0.24818,-0.40635 -0.24818,-0.40635zM381.99841,198.13869l0.01156,-0.21958c-2.37001,-2.97498 -3.70371,-0.66872 -4.63021,1.34488c1.62297,-0.19893 3.2798,-0.42108 4.95308,-0.63684c-0.24121,-0.20311 -0.33443,-0.48847 -0.33443,-0.48847zM371.81421,211.86508c-4.80143,2.87764 -3.82199,8.43489 1.31586,10.0767c0.66958,-0.16875 1.30535,0.08443 1.30535,0.08443c2.05529,0.82696 3.79562,1.95224 5.85308,2.73814l1.74572,0.67706c5.17139,-2.07493 10.67706,-3.18725 16.07021,-4.53327c0.00762,-0.53952 0.22471,-0.96724 0.22471,-0.96724l0.3766,-0.51996c0.83335,-5.57702 0.87246,-12.58513 -1.22358,-17.91576l-0.55652,0.05157c-6.51901,-0.35193 -13.77723,0.94445 -20.23269,1.73415c0,0 -0.17484,0.0208 -0.42592,-0.00252c-1.29675,2.5937 -1.91104,5.17118 -3.48369,7.20266c-0.14352,0.87629 -0.9691,1.37404 -0.9691,1.37404z" fill="#343434"></path>
          <g>
            <path d="M370.0182,222.11137c0.59333,-0.71596 -0.3733,-1.82811 -0.4299,-2.75624c-0.05741,-0.94155 -0.34733,-6.26927 -1.37672,-6.65137c-0.27745,-0.10299 -2.07431,0.64456 -3.35728,1.18637c0.05261,0.14016 0.10405,0.2801 0.15384,0.41979c-0.13845,-0.10013 -0.25214,-0.21597 -0.34548,-0.33881c-0.51492,0.21772 -0.92083,0.38961 -1.06687,0.43732c0,0 -0.68891,0.22505 -1.36547,-0.01771c-6.26606,1.40651 -12.47691,2.97314 -18.78649,4.28614c-15.1655,3.15482 -30.27074,6.48147 -45.4178,9.68492c-0.29967,0.10898 -0.53475,0.12996 -0.53475,0.12996c-0.03624,0.0032 -0.07695,0.00612 -0.12179,0.00881c-0.10202,0.02155 -0.20404,0.04309 -0.30608,0.06463c-0.00495,-0.01701 -0.01012,-0.03381 -0.01553,-0.0504c-1.26151,0.0429 -3.98982,0.03959 -4.54687,0.52301c-0.5631,0.48865 0.05297,3.98621 0.16232,4.60839c0.7283,4.14388 1.03526,6.05352 5.36593,4.58808l0.41612,-0.06851c0.02248,-0.06269 0.04731,-0.14155 0.06863,-0.23217c15.21656,-4.23253 31.02535,-5.98401 46.0559,-10.90887c6.81655,-1.4152 13.6479,-3.13417 20.51196,-4.35237l1.18925,-0.01762c0.01566,0.14368 0.03185,0.28738 0.04869,0.43107c1.46282,-0.28079 3.4312,-0.65198 3.69841,-0.97442zM369.74215,209.09813c3.42463,1.53336 4.10873,8.89224 3.93402,12.05956c-0.0599,1.08615 0.17456,2.35304 -0.46986,3.22942c-1.21006,1.64562 -5.28039,2.12566 -7.16421,2.7422l-1.96585,0.6422c0,0 -1.31151,0.42845 -2.09256,-0.53466c-5.48372,1.09247 -10.96096,2.43767 -16.40517,3.57279c-14.22392,4.63313 -29.13825,6.45147 -43.58069,10.23523c-0.49383,0.597 -1.28979,0.7178 -1.28979,0.7178l-1.46241,0.19498c-2.56641,0.81547 -5.8093,1.69283 -8.10268,-0.55127c-0.69399,-0.67908 -0.74635,-1.79337 -1.08199,-2.70447c-1.16301,-3.15709 -3.08322,-9.61258 -0.27288,-12.4895c1.28605,-1.3165 5.09413,-1.44458 7.0646,-1.59799c15.27749,-3.21131 30.502,-6.59145 45.79339,-9.77244c7.01032,-1.45778 13.89764,-3.22935 20.87575,-4.74781c0.01257,0.05306 0.02559,0.10611 0.03903,0.15912c1.93853,-0.74162 4.69005,-1.82281 6.18128,-1.15513z" fill="#343434"></path>
            <path d="M366.38491,223.08123c-0.01684,-0.14371 -0.16322,-0.27747 -0.17889,-0.42115l-1.05912,0.00674c-6.86406,1.2182 -13.69557,2.94995 -20.51212,4.36515c-15.03056,4.92486 -30.96527,6.69219 -46.18185,10.92471c-0.02132,0.09062 0.07584,0.12293 0.05337,0.18563l-0.53804,0.11524c-4.33068,1.46544 -4.64053,-0.45407 -5.36883,-4.59795c-0.10935,-0.62216 -0.72655,-4.12728 -0.16345,-4.61593c0.55707,-0.48342 3.41544,-0.49164 4.67695,-0.53454c0.00539,0.0166 0.01057,0.0333 0.01551,0.0503c0.10203,-0.02154 0.07399,-0.03165 0.17601,-0.05319c0.04482,-0.00269 0.08555,-0.00561 0.12179,-0.00881c0,0 0.23506,-0.02114 0.53473,-0.13012c15.14706,-3.20345 30.37421,-6.5677 45.53971,-9.72251c6.30961,-1.313 12.52501,-2.86968 18.79107,-4.27618c0.67657,0.24276 1.36578,0.01857 1.36578,0.01857c0.14604,-0.0477 0.55191,-0.21974 1.06682,-0.43744c0.09333,0.12283 0.08339,0.28067 0.22184,0.3808c-0.04979,-0.13971 -0.10098,-0.27886 -0.15358,-0.41903c1.28297,-0.5418 3.2032,-1.33218 3.48064,-1.22917c1.02938,0.3821 1.32211,5.72085 1.37951,6.66239c0.05658,0.92813 1.02378,2.04493 0.43048,2.76089c-0.26721,0.32245 -2.23549,0.69482 -3.69831,0.97562z" fill="#434343"></path>
          </g>
          <path d="M394.74276,197.60185c-1.96382,0.00772 -4.0925,0.13368 -6.10117,0.31534c0.09479,-0.87301 0.33655,-2.72355 1.13133,-2.76354c0.947,-0.04763 4.46381,0.52428 4.40926,1.03142l0.31314,1.00173c0,0 0.06993,0.22501 0.24742,0.41504z" fill="#888888"></path>
          <path d="M382.39804,198.63046c-1.67328,0.21577 -3.45819,0.4522 -5.08116,0.65112c0.92651,-2.01361 2.38551,-4.35653 4.75552,-1.38153l-0.00991,0.22624c0,0 0.09433,0.30107 0.33554,0.50417z" fill="#888888"></path>
          <path d="M371.74899,211.86297c0,0 0.82614,-0.50441 0.96965,-1.3807c1.57265,-2.03148 2.20294,-4.64371 3.49969,-7.23739c0.25108,0.02332 0.42684,0.00149 0.42684,0.00149c6.45546,-0.7897 13.80705,-2.08825 20.32606,-1.73632l0.5576,-0.05049c2.09604,5.33063 2.0668,12.41692 1.23345,17.99394l-0.37813,0.52247c0,0 -0.21946,0.43119 -0.22709,0.97072c-5.39314,1.34602 -10.97209,2.48173 -16.14347,4.55666l-1.75391,-0.68041c-2.05746,-0.7859 -3.81974,-1.92867 -5.87503,-2.75563c0,0 -0.63791,-0.25599 -1.30749,-0.08724c-5.13785,-1.64182 -6.12967,-7.23946 -1.32824,-10.1171z" fill="#434343"></path>
          <path d="M380.05696,221.12855c-4.96849,-1.89901 3.56361,-10.46608 6.5349,-4.26777c1.96068,4.09009 -3.6545,7.2205 -6.5349,4.26777zM382.27871,220.3495c1.48122,0.46328 3.36632,-1.0874 2.54728,-2.64169c-1.15761,-2.19676 -3.6925,-0.42645 -4.17334,0.80975c0.33664,0.19409 0.46218,0.57835 0.46218,0.57835l0.08195,0.34499c0.00187,0.00323 0.00375,0.00647 0.00562,0.00969c0.05692,0.00575 0.11811,0.0086 0.18369,0.00844c0,0 0.85767,0.07665 0.89262,0.89047z" fill="#343434"></path>
          <path d="M390.51801,227.4355c0,0 0.06313,0.06699 0.16974,0.13664c-1.32642,2.27811 -3.84785,1.77037 -6.01859,1.04154c1.79288,-0.66144 3.74798,-1.25558 5.5968,-1.75537l0.25205,0.5772z" fill="#888888"></path>
          <path d="M395.33026,227.19478c-0.08798,-0.00442 -0.7728,-0.70232 -1.35044,-1.27852c1.75421,-0.42328 3.63634,-0.86145 5.3791,-1.29608c0.05325,0.07236 0.1235,0.14582 0.21023,0.203c0.08671,0.14953 0.17871,0.30847 0.27134,0.45416c-0.4198,1.72358 -2.27194,2.02989 -4.51024,1.91742z" fill="#888888"></path>
          <path d="M394.03383,196.68933c0.76937,0.60582 0.16353,1.37518 0.16353,1.37518l-0.45448,0.33342c2.90764,3.19295 4.9224,11.22265 -1.06079,12.4457c-6.46482,1.0654 -13.25567,1.00585 -19.7737,2.31543c-1.49995,0.76868 -3.15999,1.38765 -4.78149,2.1863c0,0 -0.71625,0.35278 -1.1738,-0.22548c-2.00753,0.67146 -3.96488,1.40146 -5.9589,2.08688c-0.05138,0.90834 -0.98293,0.90275 -0.98293,0.90275l-0.49568,-0.10636c-6.89916,3.27201 -15.94015,3.85663 -23.46395,5.17888c-7.48697,1.29544 -14.70731,3.91405 -22.15952,5.32793c-0.27133,0.43936 -0.84663,0.4359 -0.84663,0.4359l-1.29817,-0.01323c-0.41124,0.08728 -0.82248,0.17455 -1.2337,0.26183c-6.96183,1.05486 -14.06407,1.74892 -20.94945,2.95823c0,0 -0.00296,0.00052 -0.0086,0.00134c-0.0892,0.04498 -0.18488,0.07615 -0.28346,0.09238l-1.01758,0.17873l-0.00423,-0.02407l-0.04569,0.0315c-0.53365,0.03837 -1.06654,0.07609 -1.59881,0.11392c-1.04697,0.36727 -2.24781,0.23192 -3.59258,0.32726c-2.16529,0.15352 -4.30463,0.45429 -6.45756,0.73149c-0.00747,0.04135 -0.01608,0.08344 -0.02586,0.12627l0.00001,-0.00001c-0.4363,1.90929 -2.3456,1.47298 -2.3456,1.47298l-0.69199,-0.16404c-2.98071,-0.46976 -5.75529,0.30258 -8.7083,0.69644c-7.80958,1.04162 -15.5913,1.26773 -22.77822,4.81367c0,0 -1.75695,0.86536 -2.62232,-0.8916c-0.86537,-1.75697 0.8916,-2.62232 0.8916,-2.62232c7.61445,-3.74429 15.73101,-4.07977 23.99567,-5.18299c3.34892,-0.44703 6.40893,-1.1696 9.79874,-0.68744l0.98742,0.21972c0,0 0.27318,0.06243 0.58926,0.24339c2.24159,-0.32087 4.48672,-0.5461 6.7405,-0.73178c0.24956,-0.02206 0.49905,-0.04224 0.74845,-0.06026c1.30327,-0.10261 2.60962,-0.19408 3.92005,-0.28521l-0.00157,-0.01324l1.9097,-0.22709c0.14527,-0.06746 0.26217,-0.088 0.26217,-0.088c6.88521,-1.20928 13.98136,-1.89892 20.94175,-2.95687c0.46184,-0.09435 0.92371,-0.18869 1.38555,-0.28304l0.70424,0.00167c0.23557,-0.21189 0.53331,-0.2642 0.53331,-0.2642c7.73552,-1.33851 15.17929,-4.09065 22.92263,-5.46825c7.02737,-1.23336 16.18983,-1.64813 22.618,-4.84458c0.15902,-0.43106 0.63704,-0.58722 0.63704,-0.58722c2.68721,-0.87788 5.26737,-1.87618 7.95791,-2.75513l1.12334,-0.36698c0,0 0.17747,-0.05797 0.40274,-0.04581c0.12537,-0.49167 0.66183,-0.66693 0.66183,-0.66693l1.03308,-0.33248c1.29685,-0.73601 2.91,-1.35407 4.05232,-2.32859c0.766,-0.65349 1.36895,-1.49902 1.86635,-2.4491l0.05016,-0.22084c-0.18977,-0.41636 0.03667,-0.86253 0.03667,-0.86253c0.44742,-0.88157 0.94267,-1.73165 1.34026,-2.61479c0.23262,-0.76391 0.44659,-1.52794 0.66254,-2.26066l-0.11497,-0.00069l0.00829,-1.38168c-0.0023,-0.15376 0.03169,-0.31033 0.10613,-0.45699c0.24476,-0.48227 0.83414,-0.67481 1.3164,-0.43005c0.28933,0.14684 0.47438,0.4177 0.52328,0.71507l0.17871,1.01757l-0.0603,0.01059l0.07418,0.11733c-0.06661,0.76296 -0.22229,1.46611 -0.43816,2.13885c-0.12779,0.7377 -0.42716,1.52025 -0.67874,2.17526c-0.15267,0.39747 -0.31406,0.77701 -0.48432,1.14026c0.27353,0.43957 0.01242,0.95407 0.01242,0.95407c-0.32842,0.64169 -0.70651,1.26061 -1.12614,1.84819c-0.32511,0.72304 -0.72571,1.34196 -1.1864,1.88231c5.36305,-0.67028 10.87904,-0.74704 16.05785,-1.73281c1.35702,-0.17364 1.51866,-0.94748 1.85945,-2.17931c1.03519,-3.74178 -1.11135,-5.11576 -2.40766,-8.54206l0.86355,-1.34039c0,0 0.60582,-0.76937 1.37518,-0.16353z" fill="#1f1f1f"></path>
          <path d="M398.72201,223.17786c-0.93085,0.30408 -1.23493,-0.62676 -1.23493,-0.62676l-0.22801,-0.95292c0.35684,-3.8627 -1.44007,-5.49206 -3.87196,-8.07203c-3.01727,-0.90295 -5.4994,0.73091 -8.19339,1.79179c-2.56331,1.00943 -4.96309,2.12752 -7.41736,3.14803c0.28652,0.1036 0.57132,0.21562 0.85369,0.33548c0.05579,0.0119 0.11156,0.02399 0.1673,0.03629c0,0 0.26213,0.0599 0.48029,0.2543c3.19045,1.50935 5.98556,3.99138 7.2895,6.56996l0.30985,-0.06237c0,0 0.87323,0.44318 0.43005,1.3164l-0.00001,0.00001c-0.44318,0.87323 -1.3164,0.43005 -1.3164,0.43005l-1.18046,-0.81873c-0.43894,-0.92417 -1.14842,-1.85459 -2.03828,-2.72157c-0.06852,0.06938 -0.15437,0.13536 -0.26108,0.19549v0.00004c-0.85313,0.48075 -1.33387,-0.37239 -1.33387,-0.37239l-0.25245,-0.49077c-1.05256,-1.20813 -2.20504,-2.03346 -3.42839,-2.57539c-2.20719,-0.42375 -4.49216,-0.52159 -6.80735,-0.54628c-0.30696,0.12514 -0.60237,0.27656 -0.88398,0.45604c0,0 -0.82929,0.52077 -1.35007,-0.30853c-0.01571,-0.025 -0.03017,-0.04972 -0.04347,-0.07416c-1.16834,0.19452 -2.34008,0.42954 -3.49812,0.64664c-0.23239,0.28948 -0.60377,0.36674 -0.60377,0.36674l-1.25691,0.25994c-4.31157,1.40852 -8.23198,3.82508 -12.72308,4.61387c-7.34124,1.27023 -16.81062,1.33484 -23.53029,4.5893c-6.93293,1.27717 -13.47623,3.69684 -20.53229,4.21453c-0.23161,0.10234 -0.45083,0.10103 -0.45083,0.10103l-1.28844,-0.01425c-1.89955,0.43949 -3.63975,0.74591 -5.51005,1.35065c-6.63997,0.75798 -13.26118,2.73369 -19.88154,3.95597c-0.21529,1.35033 -1.70688,1.5277 -1.70688,1.5277l-1.3884,0.16207c-11.1463,1.9576 -23.40989,4.51572 -34.75092,3.93208c0,0 -1.95593,-0.10066 -1.85527,-2.05658c0.10066,-1.95593 2.05658,-1.85527 2.05658,-1.85527c11.04531,0.56843 23.0188,-1.97206 33.87202,-3.87819l1.60342,-0.19371c0,0 0.94313,-0.11215 1.59393,0.47651c6.68217,-1.21103 13.33495,-3.1566 20.03527,-3.98314c1.92923,-0.63763 3.75096,-0.939 5.71769,-1.38487l1.37537,0.0023c0.18537,-0.07778 0.34463,-0.08907 0.34463,-0.08907c6.95562,-0.49315 13.30473,-3.00252 20.1575,-4.12948c6.71313,-3.36971 16.42154,-3.34395 23.79967,-4.6566c4.41208,-0.77491 8.31341,-3.19086 12.55758,-4.57737l0.36042,-0.07538c0.23656,-0.33014 0.65938,-0.40439 0.65938,-0.40439c0.94708,-0.16634 1.89704,-0.34502 2.84471,-0.51314l0.84888,-0.43319c0.59913,0.00358 1.19695,0.00539 1.79314,0.00879c0.73803,-0.10103 1.47167,-0.18236 2.19842,-0.23287c1.00387,-0.21627 2.06016,-0.25582 3.13182,-0.14828c6.08448,-2.42644 13.6163,-7.87987 20.02247,-5.81781c3.06977,2.99677 5.2026,5.30486 4.80243,9.91813l0.13896,0.17041c0,0 0.30408,0.93085 -0.62676,1.23493z" fill="#1f1f1f"></path>
          <path d="M377.08074,212.32248c-5.78765,-0.15068 -1.70478,-8.10827 2.76709,-7.25413c2.76043,0.52726 3.77691,4.58881 1.82279,6.53106c-0.95541,0.94962 -2.57779,0.92068 -3.79993,1.0086zM376.89219,210.40998c0.19709,-0.06875 0.39499,-0.0529 0.54386,-0.01976c0.15871,0.02883 0.36044,0.09683 0.51995,0.2544c0.67576,-0.01864 1.88328,0.00409 2.33808,-0.43836c0.76495,-0.74418 0.48261,-3.01647 -0.73484,-3.20079c-2.02981,-0.3073 -4.65209,3.53426 -2.66703,3.40449z" fill="#343434"></path>
          <g>
            <path d="M387.67256,215.54243c-0.03779,-0.01487 -0.07644,-0.03225 -0.11597,-0.05231c-0.87323,-0.44318 -0.43005,-1.3164 -0.43005,-1.3164l0.66856,-1.08889c1.22586,-0.90273 2.09955,-1.42827 3.29127,-1.79782c-1.52845,-0.48289 -2.80004,-1.40805 -3.09073,-2.57885c-0.37425,-0.18288 -0.51213,-0.60492 -0.51213,-0.60492l-0.08804,-0.90015c0.84531,-2.41806 1.97119,-3.48303 4.22547,-4.58712c4.3693,-1.35009 8.69664,4.25042 5.13074,7.88761c-0.68902,0.70281 -1.718,1.0582 -2.83243,1.13536c0.2173,0.14911 0.42008,0.31418 0.60808,0.49265c2.65777,0.52397 2.90205,4.40581 1.2976,6.24833c-0.02419,0.02779 -0.04878,0.05473 -0.07376,0.08088c-0.65742,1.2835 -1.96917,2.1847 -3.99884,2.10865c-3.6345,-0.1362 -5.20503,-2.73204 -4.07977,-5.02699zM390.57358,216.45741c0.4369,-0.09036 0.81793,0.20966 0.81793,0.20966l0.59256,0.51827c0.40814,0.01626 1.6343,0.28634 2.15607,0.07409c0.40091,-0.95723 0.28639,-2.22939 -0.28741,-3.16812c-1.03337,0.26428 -3.09592,1.53232 -3.27916,2.36608zM390.54272,207.8035c0.00058,-0.00033 0.00115,-0.00065 0.00172,-0.00098c0.85313,-0.48075 1.33387,0.37238 1.33387,0.37238l-0.35814,0.14607c0.00804,0.00701 0.01606,0.0142 0.02403,0.02158c0.80563,0.08435 2.22566,0.43424 2.92235,-0.08276c0.86506,-0.64196 1.31525,-2.80184 -0.04096,-3.12541c-1.53712,-0.36673 -4.34722,1.83898 -3.88287,2.6691z" fill="#343434"></path>
            <path d="M390.51171,216.47822c0.18323,-0.83376 2.34018,-2.17923 3.37355,-2.44351c0.5738,0.93874 0.69464,2.31997 0.29372,3.2772c-0.52178,0.21224 -1.82173,-0.05518 -2.22987,-0.07143l-0.61242,-0.53794c0,0 -0.38809,-0.31467 -0.82499,-0.22431z" fill="#888888"></path>
            <path d="M390.48206,207.82758c-0.46435,-0.83012 2.44711,-3.11097 3.98423,-2.74424c1.35622,0.32358 0.9095,2.58257 0.04443,3.22453c-0.69669,0.517 -2.20714,0.16509 -3.01278,0.08075c-0.00797,-0.00738 0.07721,-0.106 0.06917,-0.11301l0.26792,-0.05183c0,0 -0.49814,-0.8779 -1.35126,-0.39716c-0.00058,0.00034 0.12019,-0.04754 0.11961,-0.04722z" fill="#888888"></path>
            <path d="M381.21427,221.56539c-0.23228,0.13386 -0.46935,0.15066 -0.46935,0.15066c-5.22074,0.08238 -3.23981,-7.22686 0.84209,-7.7305c6.20528,-0.76563 8.12585,7.54437 1.30444,8.11708l-1.1271,-0.21405c0,0 -0.32279,-0.07377 -0.55008,-0.3232zM381.44121,220.09295c0.34512,-0.20834 0.75945,-0.11367 0.75945,-0.11367l0.55228,0.16973c4.24997,-0.22565 2.76706,-4.63042 -0.86381,-4.22841c-1.76059,0.19493 -3.65695,4.27651 -1.28272,3.84183c0,0 0.5276,-0.0374 0.8348,0.33052z" fill="#343434"></path>
            <path d="M380.55427,219.80171c-2.37424,0.43468 -0.44285,-3.74918 1.31775,-3.94411c3.63087,-0.40201 5.13848,4.13061 0.88851,4.35626l-0.57276,-0.17057c0,0 -0.4356,-0.10304 -0.78071,0.1053c-0.3072,-0.36792 -0.85277,-0.34687 -0.85277,-0.34687z" fill="#888888"></path>
            <path d="M375.89116,209.70639c0.65663,0.23757 0.58858,0.9988 0.58858,0.9988c-0.59788,2.18789 3.56998,1.1372 4.41251,0.09687c2.47915,-3.06123 -2.04808,-5.56694 -4.49784,-2.54361c-0.08233,0.3126 -0.16466,0.62519 -0.247,0.93778zM374.53035,210.73122c-0.06745,-0.01996 -0.13795,-0.04795 -0.21151,-0.08528c-0.87323,-0.44318 -0.43005,-1.3164 -0.43005,-1.3164l0.4333,-0.84323c0.10862,-0.3714 0.21723,-0.74281 0.32585,-1.11421c1.09342,-1.41006 2.69937,-2.96312 4.67238,-2.8481c3.567,0.20796 5.20683,4.78906 3.11925,7.47869c-2.19201,2.82421 -7.79199,2.78544 -7.90923,-1.27147z" fill="#343434"></path>
            <path d="M376.08272,209.18745c0.08233,-0.3126 0.17238,-0.64828 0.25471,-0.96087c2.44976,-3.02333 7.09063,-0.45334 4.61148,2.60789c-0.84253,1.04034 -5.1248,2.08906 -4.52692,-0.09883c0,0 0.06062,-0.78781 -0.596,-1.02539z" fill="#888888"></path>
            <path d="M381.73115,210.10608c-0.95464,-0.21816 -0.73649,-1.17281 -0.73649,-1.17281l0.1155,-0.24934c-0.05333,-0.55329 -0.23425,-1.10706 -0.51784,-1.58513c0,0 -0.48074,-0.85313 0.37239,-1.33387c0.85313,-0.48074 1.33387,0.37239 1.33387,0.37239c0.38768,0.71338 0.64814,1.51067 0.75639,2.31534l-0.15102,0.91692c0,0 -0.21816,0.95464 -1.17281,0.73649z" fill="#343434"></path>
          </g>
        </g>
      </g>
      <g stroke-width="0.5">
        <path d="M241.63296,254.02897l0.16032,-0.40036c0.80241,-2.04451 1.4126,-4.2558 1.24106,-6.44542c-0.01388,-0.17724 0.06643,-0.34142 0.04309,-0.51529c0.1718,0.15934 0.91957,0.77386 1.76115,0.26649c3.69303,1.65686 6.68858,4.83987 4.91658,8.87247c-2.83943,6.46181 -10.46195,10.71585 -16.13356,14.32483c-7.42042,2.39348 -12.40912,-0.22959 -16.96841,-5.94473c-0.86631,-1.08594 -2.04176,-2.11208 -2.31823,-3.47345c-0.68339,-3.36516 2.41674,-6.37519 1.87118,-9.8167c-0.31723,-2.00115 -2.42236,-4.37519 -4.01342,-5.97942c1.63502,-2.16328 2.84723,-5.23991 4.43278,-6.95946c3.54651,-3.84627 8.23207,-8.39898 12.37291,-11.6582c1.59572,-1.25598 2.87235,-1.29827 3.92902,-3.17013c1.53284,-0.49587 3.21632,-0.45831 4.74899,-0.95673c0.77373,-0.25162 2.4578,-1.78843 3.57017,-1.81596c6.50812,-0.16106 8.36008,9.09151 5.31244,13.70433c-1.00187,-0.91809 -2.0953,0.11148 -2.0953,0.11148l-0.33429,0.32436c-0.88066,0.84095 -1.87589,1.63779 -2.82509,2.34934c1.43182,-2.37116 2.51995,-4.03358 2.62935,-6.82161c0,0 0.04143,-1.49651 -1.45811,-1.53377c-1.49954,-0.03727 -1.48332,1.37778 -1.48332,1.37778c-0.00909,2.11827 -1.03132,3.46586 -2.12637,5.23742c-0.15515,-0.26599 -0.34874,-0.48628 -0.62569,-0.62264c-0.00161,-0.00079 -0.00321,-0.00158 -0.00483,-0.00237c-0.04056,-0.04272 -0.081,-0.0855 -0.12246,-0.12907l-0.12641,-0.01077l0.04565,-0.05788l-1.55131,-1.22677c-0.24785,-0.20009 -0.5578,-0.3219 -0.90084,-0.33042c-0.82817,-0.02058 -1.48894,0.53798 -1.50953,1.36615c-0.01234,0.49682 0.22214,0.94431 0.58752,1.22643l1.35331,1.06582c-0.00415,0.58969 0.60598,1.04083 0.89656,1.56128l0.30077,1.40154c0,0 0.18384,0.8033 0.8657,1.08941c0.10919,0.29397 0.32418,0.62143 0.73364,0.79213c0.318,4.02738 2.04935,7.05383 0.27831,11.34542l-0.1626,0.403c0,0 -0.62837,1.31997 0.76357,1.879c1.39194,0.55901 1.94577,-0.82747 1.94577,-0.82747z" fill="#b7b7b7"></path>
        <path d="M228.94613,218.76614c2.07333,2.56451 -4.72816,6.28002 -6.46451,8.08131c-2.82353,2.92912 -6.32049,5.44478 -9.05994,8.40558c-3.51748,3.80169 -4.57496,11.13894 -10.4654,6.1331c-0.55857,-0.47469 -1.05739,-1.02432 -1.58402,-1.53421c0,0 -0.05166,-0.04989 -0.1446,-0.12137c2.69751,-10.78831 12.1295,-18.20953 19.98785,-25.56519c0.82331,0.33864 1.48066,0.083 1.918,-0.24315c2.13536,1.40811 3.9129,2.84462 5.81262,4.84392z" fill="#b7b7b7"></path>
        <path d="M227.99489,254.11085c0.65237,1.3507 -0.69833,2.00307 -0.69833,2.00307l-0.94844,0.45644c-2.34549,1.25928 -4.37343,2.79543 -6.68131,4.10755c0,0 -1.30501,0.73956 -2.04457,-0.56547c-0.73956,-1.30501 0.56547,-2.04457 0.56547,-2.04457c2.32849,-1.31489 4.37351,-2.86014 6.73717,-4.13842l1.06693,-0.51695c0,0 1.3507,-0.65237 2.00308,0.69834z" fill="#6b6b6b"></path>
        <path d="M235.64942,252.3154c0.63727,1.3579 -0.72063,1.99516 -0.72063,1.99516l-0.41299,0.1088c-2.43925,2.29329 -5.51451,4.35604 -8.44102,6.01771c0,0 -1.30501,0.73956 -2.04457,-0.56546c-0.73956,-1.30501 0.56547,-2.04457 0.56547,-2.04457c2.69743,-1.52549 5.63977,-3.44447 7.85219,-5.58107l1.20639,-0.6512c0,0 1.35791,-0.63727 1.99517,0.72064z" fill="#6b6b6b"></path>
        <path d="M239.72071,254.89355c-1.39194,-0.55901 -0.83293,-1.95096 -0.83293,-1.95096l0.16127,-0.40159c1.77104,-4.29158 0.03368,-7.25938 -0.28432,-11.28676c-0.40947,-0.17071 -0.62098,-0.493 -0.73018,-0.78698c-0.68186,-0.2861 -0.86025,-1.08337 -0.86025,-1.08337l-0.29597,-1.39757c-0.29056,-0.52045 -0.89389,-0.9674 -0.88975,-1.5571l-1.34608,-1.06283c-0.36536,-0.28211 -0.59604,-0.72853 -0.58369,-1.22536c0.02058,-0.82817 0.70864,-1.48285 1.53681,-1.46227c0.34304,0.00853 0.65631,0.13156 0.90417,0.33166l1.55781,1.23l-0.04569,0.05787l0.1268,0.011c0.04146,0.04358 0.08247,0.08669 0.12303,0.12942c0.00161,0.00079 0.00322,0.00159 0.00484,0.00238c0.27695,0.13637 0.47331,0.3585 0.62847,0.62447c1.09504,-1.77155 2.06193,-3.03593 2.07101,-5.1542c0,0 0.03727,-1.49954 1.53681,-1.46227c1.49954,0.03727 1.46227,1.53681 1.46227,1.53681c-0.10939,2.78804 -1.1914,4.45634 -2.62321,6.82751c0.94921,-0.71156 1.86907,-1.44267 2.74973,-2.28362l0.4098,-0.38992c0,0 1.01585,-0.96658 2.01772,-0.04848c3.04762,-4.61282 1.21723,-13.84904 -5.29089,-13.68798c-1.11237,0.02753 -2.79123,1.56607 -3.56496,1.81767c-1.53266,0.49842 -3.20663,0.46248 -4.73945,0.95835c-1.05667,1.87186 -2.32376,1.91392 -3.91948,3.1699c-4.14083,3.25921 -8.78802,7.78534 -12.33453,11.63161c-1.58554,1.71956 -2.79216,4.77491 -4.42717,6.93819c1.59106,1.60424 3.69341,3.95995 4.01064,5.96111c0.54555,3.44151 -2.5644,6.43485 -1.88101,9.80001c0.27646,1.36137 1.44555,2.3815 2.31185,3.46744c4.55928,5.71515 9.51235,8.32769 16.93278,5.93419c5.6716,-3.60898 13.25503,-7.83747 16.09448,-14.29928c1.772,-4.0326 -1.22956,-7.19631 -4.92259,-8.85317c-0.84157,0.50738 -1.58939,-0.10676 -1.76118,-0.26611c0.02334,0.17388 0.04236,0.3493 0.05626,0.52655c0.17154,2.18962 -0.44853,4.42466 -1.25095,6.46915l-0.16127,0.40159c0,0 -0.55901,1.39194 -1.95096,0.83292zM236.2944,218.1843c1.63884,-0.53041 3.02754,-1.95837 4.74818,-2.03942c10.15055,-0.47808 13.07671,11.87339 9.41689,19.21685c-1.42323,2.85572 -4.18099,4.60061 -6.51257,6.75514c6.69943,1.96309 12.66923,7.80926 9.71111,15.27651c-2.96387,7.48172 -11.73684,12.54277 -18.23983,16.55188c-9.28697,3.02532 -16.2831,0.2216 -22.10803,-7.19261c-1.24912,-1.58994 -2.71032,-3.2252 -3.11164,-5.20691c-0.7611,-3.75837 2.33881,-6.6541 1.85087,-9.96085c-0.18068,-1.22444 -2.32439,-3.21659 -3.30978,-4.14373c-3.99556,1.09518 -7.6231,-1.99426 -10.28682,-4.55187c0,0 -0.51076,-0.49235 -0.65887,-1.20361c-1.19208,-0.74046 -0.8427,-2.25549 -0.8427,-2.25549c2.3263,-9.74303 10.70277,-19.2113 17.89537,-25.95069c2.14186,-2.00689 4.56461,-3.31594 6.55906,-5.41691l1.58322,1.57656l0.7011,-0.34978c3.37093,2.05928 5.87833,4.00846 8.58958,6.90095c0.63244,1.12335 1.16106,1.83739 1.46875,2.50054c0.86014,-0.12525 1.72295,-0.2401 2.54616,-0.50653zM223.10989,213.96628c-0.43733,0.32616 -1.0901,0.58396 -1.91341,0.24532c-7.85835,7.35566 -17.23219,14.6995 -19.92971,25.48781c0.09294,0.07147 0.14428,0.12097 0.14428,0.12097c0.52662,0.5099 1.02128,1.05501 1.57985,1.52969c5.89044,5.00583 6.9268,-2.3435 10.44429,-6.14518c2.73944,-2.96079 6.1742,-5.41699 8.99774,-8.34611c1.73635,-1.80128 8.54587,-5.49904 6.47253,-8.06355c-1.89971,-1.9993 -3.66019,-3.42083 -5.79556,-4.82893z" fill="#6b6b6b"></path>
      </g>
      <g stroke-width="0.5">
        <path d="M326.02969,246.06547c-1.38709,-1.3284 -2.96106,-1.95856 -4.03164,-3.6798c-0.3555,-0.57155 -0.62598,-1.18981 -0.89823,-1.8074c-0.28021,0.25582 -0.63846,0.53257 -1.15516,0.89465v-0.00001c-0.61176,0.4287 -1.23108,0.88892 -1.9419,1.11863c-0.2678,0.08653 -0.80383,-0.50976 -0.81277,-0.22847c-0.00945,0.29747 0.58301,0.1852 0.80796,0.38009c0.9273,0.80333 1.64329,1.82361 2.50967,2.6923c3.27337,3.28208 6.43728,5.11343 10.35034,7.38861c1.84889,1.07501 2.65964,1.69077 4.8843,1.69321c0.90443,-0.84313 1.90508,-1.46436 2.88454,-2.15913c-4.60248,-1.17685 -9.25488,-3.0919 -12.5971,-6.29269zM336.95927,258.61379l-1.04779,-0.10331c-7.93585,0.46043 -13.86647,-3.82236 -19.09445,-9.47857c-1.82794,-1.97768 -5.09824,-4.21413 -3.84037,-7.49217c0.07943,-0.20701 0.20228,-0.38524 0.35094,-0.54634c0.02095,-0.31946 0.12267,-0.55627 0.12267,-0.55627l0.98015,-1.1687c0.97642,-0.38965 1.95489,-0.77431 2.93642,-1.15093c1.59825,-1.30363 0.82739,-1.73658 1.65561,-3.55839c0.75353,-1.65749 2.7843,-3.247 4.24911,-4.25719c2.44987,-1.68954 5.9985,-2.21198 8.22567,-4.14626c0.44115,-0.38314 0.61436,-1.02845 1.08136,-1.37962c1.20539,-0.90643 1.80027,-0.31022 2.64502,-1.48197c2.44188,-3.38714 -0.11143,-7.5901 0.51006,-11.39588c1.52461,-3.61208 3.19354,-6.35608 6.50439,-8.37295c1.15848,-0.70571 2.20602,-1.80978 3.55074,-1.98827c2.59945,-0.34503 5.53308,0.99962 7.14886,3.11146c2.71938,-1.99776 6.82184,-2.96282 9.61054,-0.86974c1.28768,0.96648 2.06848,2.42 2.66544,3.91168c2.31676,-1.23848 4.58878,-1.28774 7.48331,0.88793l0.81445,0.90876c0,0 0.63669,0.75365 0.26613,1.55488c0.26514,0.52613 0.41233,1.11073 0.40115,1.74387c-0.02761,1.56268 -1.20758,2.70689 -2.28263,3.89825c0.4557,0.64437 0.10875,1.45211 0.10875,1.45211c-1.92111,4.10565 2.55599,3.64482 3.98385,6.53251c0.62941,1.27288 0.20946,3.04779 -0.00387,4.35854c-0.949,5.83079 -5.17396,11.13149 -9.55786,14.8695c-4.30715,3.63857 -8.34374,6.92843 -13.40023,9.38526c-2.07137,1.00644 -3.61788,0.87705 -5.74341,0.98482c-3.01158,0.15271 -5.1132,1.69108 -7.28647,3.52699l-1.46283,0.66664c0,0 -0.45504,0.18159 -0.94878,0.07715c-0.33553,0.10064 -0.62588,0.0762 -0.62588,0.0762zM366.20332,212.08888c-0.03549,0.00428 -0.07097,0.00833 -0.10648,0.01213l0.00402,0.01659l-0.22843,0.05537c-0.99752,0.8064 -1.99375,2.12555 -2.56204,3.06721c0.16203,1.39309 0.31075,2.78872 0.5023,4.19678c0.55894,4.59537 5.14821,5.85849 6.11484,9.91263c0.09813,0.41158 0.16725,0.80796 0.2098,1.19073c0.03349,-0.13689 0.06156,-0.27498 0.08389,-0.41429c-0.06488,-1.02112 0.16157,-2.09039 -0.1466,-3.06605c-0.77537,-2.45473 -3.22745,-3.94676 -3.8032,-6.5138c-0.24937,-1.11184 -0.20022,-3.25695 0.24632,-4.33145c0.29583,-0.71188 2.43948,-2.37422 2.16451,-3.39132c-0.18498,-0.68418 -0.46253,-1.0784 -0.79802,-1.25508c-0.63002,0.22698 -1.23078,0.4661 -1.68089,0.52056zM347.05637,214.97501c-0.57544,-0.68121 -0.40384,-1.29953 -0.17003,-1.68899c-0.02453,-1.26714 0.09621,-2.57923 0.70606,-3.65842c0.43183,-0.76416 1.25754,-0.81758 0.79781,-1.7862c-2.01836,-4.25251 -6.57154,1.68338 -7.42078,3.49427c-1.36599,2.9128 1.66327,7.08749 1.24939,10.15351c0,0 -0.01458,0.0899 -0.05869,0.22182c0.32148,0.81543 0.39449,1.68501 -0.40029,2.91214c-0.80561,1.24386 -2.43479,1.71691 -3.47746,2.77l-2.09658,1.77279c0,0 -0.22333,0.18867 -0.55609,0.30081c-1.24569,1.57149 -2.40022,2.63215 -4.42316,3.28769c-2.64384,0.85674 -6.71053,0.3488 -7.12002,3.58394l-0.0285,0.07879c3.90991,6.71968 10.52119,10.30001 17.70609,12.38466c1.61184,0.46767 3.32738,1.03077 5.09324,0.70374c1.76183,-0.32629 3.53746,-1.43225 5.33001,-1.85546c4.71615,-2.7478 7.59446,-5.73056 11.20004,-9.77399c2.26526,-2.54035 4.31046,-4.00096 3.61165,-7.87531c-0.26299,-1.45802 -2.24948,-2.39942 -3.14173,-3.45356c-1.84741,-2.18262 -2.60935,-3.9203 -3.01747,-6.70737c-0.15498,-1.14742 -0.29108,-2.28989 -0.42708,-3.43c-0.66013,-0.66162 -0.24915,-1.61843 -0.24915,-1.61843c0.01376,-0.03167 0.02785,-0.06356 0.04224,-0.09567c-0.10965,-0.8879 -0.22496,-1.77516 -0.35483,-2.66304c-0.15633,-1.06873 0.37595,-2.16882 0.19844,-3.23423c-0.40857,-2.45223 -4.5642,0.66623 -5.13604,1.25683c-2.94051,3.037 -2.67368,8.86936 -0.66011,12.62287c0.62105,0.51523 1.22945,1.03649 1.62085,1.71525l0.0536,0.00618c0,0 1.37824,0.592 0.78625,1.97023c-0.215,0.50054 -0.5337,0.74122 -0.85242,0.84477c-0.28919,0.3922 -0.66603,0.75444 -0.96296,1.11857c-1.51987,1.86388 -3.56897,3.45682 -5.28389,5.17107c0,0 -1.06153,1.05979 -2.12132,-0.00174c-1.05979,-1.06153 0.00174,-2.12132 0.00174,-2.12132c1.32743,-1.3237 2.58106,-2.62425 3.86245,-3.96041c0.45611,-0.47561 1.44465,-0.63937 1.81365,-1.10374l-0.08396,-0.04479c-0.52199,-0.63001 -0.99142,-1.33671 -1.40192,-2.09952c-0.72596,-0.64271 -1.4459,-1.25108 -1.56635,-1.42361c-1.42142,-2.03585 -2.6604,-4.62203 -3.19499,-7.25125c0.11512,-0.10201 0.23069,-0.2035 0.34673,-0.30447c-0.07207,-0.06233 -0.14372,-0.13475 -0.21441,-0.21843z" fill="#6b6b6b"></path>
        <path d="M370.14894,230.58894c-0.04257,-0.38278 -0.1113,-0.77925 -0.20942,-1.19081c-0.96664,-4.05414 -5.61612,-5.37895 -6.17506,-9.97432c-0.19155,-1.40807 -0.32424,-2.82879 -0.48626,-4.22188c1.22715,-2.03341 4.4881,-5.83849 5.41008,-2.42815c0.27498,1.01711 -1.86095,2.77714 -2.1568,3.48902c-0.44653,1.07449 -0.45945,3.1703 -0.21008,4.28214c0.57575,2.56704 2.96111,4.01319 3.73648,6.46792c0.30819,0.97567 0.11095,2.14047 0.17582,3.1616c-0.02233,0.1393 -0.05127,0.2776 -0.08476,0.41451z" fill="#b7b7b7"></path>
        <path d="M322.2053,239.11533c4.19116,6.29258 10.69085,10.09198 17.78392,12.29119l-0.14543,0.07126c-1.32461,1.1273 -2.79667,1.89143 -4.06699,3.07564c-2.22466,-0.00244 -3.05144,-0.60788 -4.90033,-1.68289c-3.91305,-2.27518 -7.1446,-4.16236 -10.41799,-7.44444c-0.86638,-0.86868 -1.57966,-1.89821 -2.50696,-2.70154c-0.22496,-0.19488 -0.81733,-0.08279 -0.80789,-0.38027c0.00894,-0.28129 0.54514,0.31461 0.81294,0.22808c0.71081,-0.2297 1.3342,-0.6977 1.94595,-1.1264c1.38755,-0.97238 1.64318,-1.34117 2.30274,-2.33061z" fill="#b7b7b7"></path>
        <path d="M347.44077,215.09956c-0.17184,0.14821 -0.35319,0.1982 -0.52306,0.34873c0.53457,2.62922 1.79578,5.21758 3.21719,7.25343c0.12046,0.17253 0.85841,0.79154 1.58437,1.43423c0.41051,0.76282 0.89397,1.49196 1.41596,2.12196l0.08415,0.04546c-0.369,0.46436 -1.35578,0.63781 -1.81189,1.11341c-1.2814,1.33617 -2.59765,2.68906 -3.92506,4.01276c0,0 -1.04044,0.96215 0.01936,2.02368c1.05979,1.06153 2.10349,0.00195 2.10349,0.00195c1.71492,-1.71425 3.7238,-3.26337 5.24367,-5.12726c0.29692,-0.36413 0.67358,-0.71813 0.96277,-1.11033c0.31871,-0.10354 0.63792,-0.33948 0.85292,-0.84003c0.592,-1.37824 -0.78266,-1.95792 -0.78266,-1.95792l-0.05352,-0.00602c-0.3914,-0.67876 -0.99192,-1.18755 -1.61296,-1.70279c-2.01358,-3.7535 -2.22536,-9.66546 0.71516,-12.70246c0.57184,-0.5906 4.73645,-3.70471 5.14503,-1.25248c0.17751,1.06541 -0.3515,2.16768 -0.19517,3.23641c0.12986,0.88788 0.2493,1.77851 0.35897,2.66641c-0.0144,0.0321 -0.02841,0.06405 -0.04217,0.09572c0,0 -0.40821,0.95953 0.25192,1.62115c0.13599,1.14012 0.27797,2.29015 0.43294,3.43757c0.40811,2.78708 1.17766,4.54788 3.02507,6.7305c0.89225,1.05414 2.87848,2.0054 3.14146,3.46344c0.69881,3.87435 -1.35477,5.35696 -3.62004,7.8973c-3.60557,4.04343 -6.51601,7.04706 -11.23216,9.79486c-1.79256,0.4232 -3.58099,1.52987 -5.34283,1.85615c-1.76586,0.32703 -3.49283,-0.23829 -5.10466,-0.70596c-7.1849,-2.08465 -13.82811,-5.69576 -17.73802,-12.41543l0.02846,-0.0789c0.40948,-3.23513 4.47533,-2.72981 7.11917,-3.58655c2.02293,-0.65553 3.17591,-1.72337 4.4216,-3.29486c0.33277,-0.11214 0.55599,-0.30169 0.55599,-0.30169l2.09622,-1.78018c1.04267,-1.05309 2.67624,-1.54542 3.48185,-2.78926c0.79478,-1.22714 0.73094,-2.11041 0.40946,-2.92585c0.04412,-0.13192 0.05949,-0.22265 0.05949,-0.22265c0.41389,-3.06603 -2.60066,-7.25105 -1.23466,-10.16385c0.84925,-1.8109 5.4231,-7.75136 7.44145,-3.49886c0.45973,0.96862 -0.36331,1.12198 -0.79512,1.88614c-0.73296,1.29705 -0.75615,2.93025 -0.67303,4.41775c0.17351,0.33471 0.34543,0.66958 0.51894,1.00429z" fill="#b7b7b7"></path>
      </g>
    </g>
  </g>
</svg>
