<?xml version="1.0" encoding="UTF-8"?>
<svg xmlns="http://www.w3.org/2000/svg" xmlns:xlink="http://www.w3.org/1999/xlink" version="1.1" width="100.55836" height="134.18748" viewBox="0,0,100.55836,134.18748">
  <defs>
    <linearGradient x1="239.58163" y1="138.50635" x2="239.58163" y2="223.31426" gradientUnits="userSpaceOnUse" id="color-1">
      <stop offset="0" stop-color="#e0e0e0"></stop>
      <stop offset="1" stop-color="#c7c7c7"></stop>
    </linearGradient>
    <linearGradient x1="239.77567" y1="138.33535" x2="238.74763" y2="223.13702" gradientUnits="userSpaceOnUse" id="color-2">
      <stop offset="0" stop-color="#e0e0e0"></stop>
      <stop offset="1" stop-color="#c7c7c7"></stop>
    </linearGradient>
  </defs>
  <g transform="translate(-189.95213,-98.06074)">
    <g stroke="none" stroke-miterlimit="10">
      <path d="" fill="#672929" stroke-width="0.25"></path>
      <path d="" fill="#000000" stroke-width="0.5"></path>
      <path d="" fill="#000000" stroke-width="0.5"></path>
      <path d="" fill="#565656" stroke-width="0.5"></path>
      <path d="" fill="#565656" stroke-width="0.5"></path>
      <g>
        <path d="" fill="#000000" stroke-width="0.5"></path>
        <path d="" fill="url(#color-1)" stroke-width="0.25"></path>
        <path d="" fill="#2f2f2f" stroke-width="0.5"></path>
        <path d="" fill="#2f2f2f" stroke-width="0.5"></path>
        <path d="" fill="#2f2f2f" stroke-width="0.5"></path>
        <path d="" fill="#2f2f2f" stroke-width="0.5"></path>
        <path d="" fill="#2f2f2f" stroke-width="0.5"></path>
        <path d="" fill="#2f2f2f" stroke-width="0.5"></path>
        <path d="" fill="#2f2f2f" stroke-width="0.5"></path>
        <path d="" fill="#2f2f2f" stroke-width="0.5"></path>
        <path d="" fill="#2f2f2f" stroke-width="0.5"></path>
      </g>
      <g stroke-width="0.5">
        <path d="M217.99846,117.99578c4.4425,-0.01639 4.29957,-7.42788 5.58094,-10.71057c2.00797,-5.14416 6.02654,-7.51464 10.74928,-8.33338c6.15632,-1.44045 11.34694,-1.08381 17.24372,0.70368c1.73132,0.52481 3.35523,0.20379 5.10935,0.34246c2.12049,0.16762 4.67703,1.29066 6.63946,2.11762c5.22875,0.96189 8.60041,3.88018 11.94615,7.8569c1.10769,1.31659 2.5011,1.98605 2.89404,4.05962c0.34267,1.80828 -0.48046,3.19259 -0.79198,4.90688c-0.47127,2.59341 -0.51707,4.53382 -0.08807,7.12864c0.16378,0.49529 0.32757,0.99056 0.49134,1.48585l0.04757,0.18886c-0.9547,-0.59836 -2.03747,-1.30275 -3.13919,-1.97329c-0.29132,-1.95952 -0.41031,-3.78098 -0.03619,-5.83758c0.24946,-1.37129 1.37322,-3.90488 1.0685,-5.20656c-0.37069,-1.58346 -1.4619,-1.83246 -2.33719,-2.8774c-3.05596,-3.6483 -5.98193,-6.19561 -10.79318,-7.0807c-3.54165,-1.49245 -6.66436,-1.51791 -10.31754,-2.18996c-2.67367,-0.49185 -5.16105,-1.85999 -7.90159,-2.05787c-3.03754,-0.21933 -6.67241,0.41155 -9.65744,1.13212c-3.7962,0.64508 -7.24578,2.26895 -8.8069,6.59056c-0.93611,2.59142 -1.3336,5.83286 -2.42648,8.36719c2.85741,-3.04678 3.4415,-7.55434 6.55599,-10.30385c3.3808,-2.98462 9.72468,-2.87251 13.74556,-3.56285c2.74876,-0.08906 4.61137,1.10726 7.1564,1.87387c3.09868,0.93339 6.41998,0.52741 9.49473,1.44793c4.27502,1.27984 8.11315,4.79597 11.04443,8.27968c2.47142,2.99578 2.61562,6.67705 1.41387,10.38377c-0.79597,-0.43253 -1.57036,-0.80643 -2.28068,-1.06721c0.83033,-2.63764 0.8129,-5.30078 -1.00711,-7.42077c-2.62094,-3.13108 -6.07499,-6.36947 -9.9087,-7.52426c-3.05787,-0.92109 -6.39727,-0.52062 -9.49473,-1.44793c-2.20197,-0.65922 -3.91041,-1.88142 -6.26879,-1.79079c-3.52639,0.60545 -9.41824,0.4248 -12.40289,2.97874c-1.65298,1.41444 -2.36918,4.35741 -3.32794,6.31732c-0.6143,1.25577 -1.51868,2.39524 -2.52062,3.3943c-1.92289,-0.16076 -3.94602,-0.4358 -5.62347,0.26183c-0.85437,0.35532 -2.25183,1.4513 -3.23459,0.98303c-0.02619,-0.01247 -0.05056,-0.02569 -0.07321,-0.0396c0.02733,-1.33329 1.25715,-1.3763 1.25715,-1.3763z" fill="#000000"></path>
        <path d="M271.42054,114.33748c-2.93128,-3.48372 -6.76439,-6.96687 -11.0394,-8.24671c-3.07475,-0.92052 -6.35168,-0.48647 -9.45037,-1.41985c-2.54503,-0.76661 -4.37521,-1.97693 -7.12396,-1.88788c-4.02088,0.69035 -10.34857,0.55007 -13.72936,3.53468c-3.11449,2.74952 -3.69718,7.23561 -6.55459,10.28238c1.09288,-2.53433 1.39108,-5.77406 2.3272,-8.36548c1.56112,-4.32161 5.01732,-5.96532 8.81352,-6.6104c2.98503,-0.72056 6.63633,-1.37023 9.67387,-1.15089c2.74053,0.19789 5.26246,1.55718 7.93613,2.04903c3.65318,0.67204 6.81243,0.72517 10.35407,2.21762c4.81126,0.88509 7.74276,3.45934 10.79872,7.10764c0.8753,1.04495 1.96604,1.2997 2.33673,2.88316c0.30471,1.30166 -0.82133,3.84564 -1.07079,5.21692c-0.37414,2.0567 -0.25863,3.88666 0.03213,5.84772c-0.62827,-0.38306 -1.26318,-0.75569 -1.88443,-1.09192c1.20228,-3.70695 1.05241,-7.36973 -1.41945,-10.36603z" fill="#565656"></path>
      </g>
      <g stroke-width="0.5">
        <path d="M285.35464,130.15116c5.53735,5.94543 5.37208,14.52158 0.37086,20.53449l-0.77685,-0.19606c-0.4975,0.60918 -1.33049,0.33932 -1.33049,0.33932l-1.42883,-0.55687c-2.60921,-2.18777 -4.92183,-4.36249 -7.69982,-6.40507c-1.2948,-1.07617 -2.60112,-2.10992 -3.9007,-3.14038c-0.36762,0.32054 -0.73526,0.64107 -1.10288,0.96161l-0.31595,0.32351c-1.76818,-1.95409 -3.59937,-4.18077 -5.56929,-6.27929c0.55975,0.46669 1.09812,0.95272 1.61255,1.46221c0.18396,-0.13328 0.36256,-0.27458 0.53565,-0.42219c-0.96975,-0.83854 -1.92171,-1.70454 -2.84747,-2.61611c-2.45031,-2.41273 -4.51334,-7.0904 -7.99581,-8.04656c0,0 -0.79909,-0.25888 -0.87495,-1.00726c-0.08231,-0.08249 -0.1476,-0.16616 -0.19857,-0.24977c0.80802,-1.59702 2.0362,-2.64808 3.21303,-3.89201c3.71116,-2.17866 8.82783,-3.06012 12.87561,-2.30916c0.08864,0.20454 0.31787,0.27881 0.31787,0.27881c0.7698,0.19074 1.37376,1.1877 2.12248,1.69113c2.02335,1.36048 4.17099,2.59545 6.10548,4.02093l0.37432,0.14824c0,0 0.04674,0.01514 0.11565,0.02128c2.11562,1.71828 4.55855,3.36407 6.39812,5.33921zM264.68769,132.40727c3.56311,3.4972 7.49462,6.2878 11.34336,9.49154c2.79016,2.06114 5.12865,4.28005 7.75697,6.4512l0.30968,0.05188c0.11178,-0.05085 0.21782,-0.08462 0.31809,-0.10435c3.60334,-4.9909 3.56887,-11.66584 -0.89801,-16.45051c-1.86559,-1.99831 -4.40008,-3.64575 -6.50522,-5.39672c-1.99848,-1.68519 -3.69705,-4.18736 -6.31155,-5.03438c-3.93372,-1.27441 -10.66614,-0.18992 -13.97368,2.77111c3.41035,1.7598 5.26988,5.5795 7.96039,8.22024zM267.84298,139.80387c0.25293,-0.22053 0.50586,-0.44106 0.7588,-0.66159c-0.3096,-0.24936 -0.61828,-0.49968 -0.92577,-0.75151c-0.25498,0.22837 -0.5189,0.44771 -0.79135,0.65543c0.25473,0.31763 0.50105,0.64404 0.73851,0.97997z" fill="#000000"></path>
        <path d="M264.63797,132.40209c-2.69052,-2.64074 -4.54336,-6.48068 -7.95371,-8.24048c3.30753,-2.96103 10.07783,-4.06983 14.01155,-2.79542c2.6145,0.84702 4.34847,3.35908 6.34695,5.04426c2.10514,1.75097 4.65911,3.43263 6.5247,5.43094c4.46689,4.78466 4.4835,11.50381 0.88016,16.49471c-0.10028,0.01973 -0.20694,0.05401 -0.31872,0.10485l-0.3101,-0.05155c-2.62831,-2.17114 -4.97633,-4.38421 -7.76649,-6.44535c-3.84874,-3.20373 -7.85124,-6.04477 -11.41435,-9.54196z" fill="#491d1d"></path>
        <path d="M267.61835,140.07594c-0.23746,-0.33593 -0.52781,-0.72281 -0.78253,-1.04044c0.27245,-0.20772 0.58372,-0.46633 0.83871,-0.6947c0.30748,0.25182 0.66744,0.54755 0.97704,0.7969c-0.25294,0.22053 -0.54374,0.4942 -0.79667,0.71473z" fill="#565656"></path>
      </g>
      <g stroke-width="0.5">
        <path d="M216.66084,134.83202l-0.01649,-0.45172c0.01098,-0.27105 0.02197,-0.54209 0.03296,-0.81314c-2.5896,0.02592 -5.18077,-0.02723 -7.76341,-0.1324c-2.39031,-0.09733 -5.45874,-1.16918 -7.83117,-0.84476c-0.10824,0.36628 -0.40888,0.90725 -1.23938,0.87359c-1.24897,-0.05063 -1.19834,-1.29961 -1.19834,-1.29961c0.27225,-6.19899 2.80681,-11.77019 8.9626,-14.11809c2.83037,-1.07954 5.89901,-0.8085 8.84556,-0.68026c1.22712,-0.14722 2.49919,-0.28584 3.78739,-0.38567c1.03666,0.80001 2.88347,0.18807 3.95759,0.04929c2.33647,-0.30189 5.24962,1.42957 7.55524,1.84805l0.65682,-0.0151c0,0 0.36955,-0.01509 0.46,-0.33715c2.49104,1.21745 4.52795,3.21745 5.73816,6.39035c0.49903,1.30835 0.61477,2.62704 0.612,3.96695c0.04737,0.02987 0.09533,0.06369 0.14378,0.10177c0.98288,0.77229 0.21059,1.75518 0.21059,1.75518l-0.40763,0.00583c-0.00136,0.03321 -0.00272,0.06644 -0.00408,0.09969c0.00691,1.18423 -1.19722,1.23559 -1.19722,1.23559l-0.5001,0.01765c-3.13746,0.37643 -6.33753,0.89495 -9.49711,0.7669c-1.04701,0.12833 -2.09672,0.23687 -3.14849,0.32749c-0.15883,0.69732 -0.30701,1.35669 -0.41312,2.03164c-1.56811,0.21033 -3.13102,0.36162 -4.64853,0.20845c-1.09184,-0.1102 -2.13697,-0.3366 -3.16748,-0.59291c0.02329,-0.00258 0.04657,-0.00512 0.06983,-0.00763zM209.01514,130.93684c6.29579,0.25399 12.60329,0.16641 18.85485,-0.56991c2.93042,0.11877 5.89401,-0.33043 8.80974,-0.69148c-0.03313,-2.86225 -0.66567,-6.27565 -2.88371,-8.13984c-1.68317,-1.41466 -3.70245,-1.43507 -5.76129,-1.70331c-3.77539,-0.49188 -7.68639,-0.42408 -11.483,0.03142c-2.65274,-0.1006 -5.49909,-0.45611 -8.05323,0.51807c-4.46926,1.70463 -6.54886,5.40552 -7.16608,9.7229c2.49423,-0.09172 5.19115,0.73164 7.68271,0.83215zM222.21883,133.38084c-1.01132,0.05979 -2.02399,0.10447 -3.0374,0.1357c-0.01304,0.32168 -0.02608,0.64335 -0.03911,0.96504l0.01219,0.23693c0.91935,0.02722 1.84421,0.1283 2.76893,0.25098c0.07989,-0.53179 0.18146,-1.05524 0.2954,-1.58865z" fill="#000000"></path>
        <path d="M208.96831,130.95435c-2.49156,-0.10051 -5.19089,-0.93272 -7.68512,-0.841c0.61722,-4.31739 2.70238,-8.05127 7.17164,-9.7559c2.55414,-0.97418 5.42172,-0.63901 8.07446,-0.53841c3.79661,-0.4555 7.76771,-0.51152 11.5431,-0.01964c2.05884,0.26823 4.08714,0.30363 5.77032,1.71828c2.21804,1.8642 2.85318,5.30399 2.88631,8.16624c-2.91573,0.36105 -5.88307,0.82243 -8.81349,0.70367c-6.25157,0.73633 -12.65143,0.82074 -18.94722,0.56675z" fill="#491d1d"></path>
        <path d="M222.26504,133.36172c-0.11394,0.53342 -0.22141,1.1056 -0.3013,1.63739c-0.92472,-0.12269 -1.93531,-0.23246 -2.85465,-0.25969l-0.01468,-0.24351c0.01304,-0.32168 0.02681,-0.67426 0.03985,-0.99595c1.01341,-0.03123 2.11945,-0.07846 3.13077,-0.13825z" fill="#565656"></path>
      </g>
      <g stroke-width="0.5">
        <path d="M247.15817,124.877c-0.00343,0.00291 -0.00689,0.00581 -0.01038,0.00869c0.0382,0.06766 0.07339,0.14274 0.10491,0.22601c0.44246,1.16908 -0.72661,1.61153 -0.72661,1.61153c-0.35848,0.13399 -0.72175,0.25922 -1.08906,0.37332c0.01345,0.1331 0.00621,0.22273 0.00621,0.22273c-0.07777,0.56913 -0.15554,1.13826 -0.23331,1.70739l0.77,0.75839c0,0 0.12709,0.14941 0.22139,0.3802l0.5644,-0.27697c0,0 0.25085,-0.10885 0.56879,-0.1074c0.26599,-0.09011 0.49613,-0.08252 0.49613,-0.08252v0.00002c0.15512,0.00754 0.30935,0.00258 0.46295,-0.01152c-0.36678,0.18645 -0.73317,0.37326 -1.14886,0.53434c-1.92814,0.74716 -6.12436,0.67393 -7.96198,1.07402c-0.54626,0.11893 -1.10093,0.24912 -1.66034,0.3904c0.06847,-0.29738 0.21869,-0.50736 0.21869,-0.50736l0.77433,-1.05462c0.25171,-0.719 0.22157,-1.57686 -0.06035,-2.28455c0,0 -0.02821,-0.08247 -0.04795,-0.21129c-0.4567,-0.09034 -0.87116,-0.22113 -1.19733,-0.40657c-2.3395,-1.33012 -2.43886,-5.07967 -0.50237,-6.85994c1.69456,-1.55786 6.44355,-2.13828 8.65021,-2.44124c0.39875,-0.05474 0.80891,-0.20394 1.20933,-0.24599c0.52911,0.63488 1.28866,1.14641 1.52553,1.86135c0.01909,0.05763 0.03476,0.11464 0.04735,0.1711c-0.04111,0.13346 -0.07957,0.26854 -0.11572,0.40486c-0.09677,0.17281 -0.21094,0.34744 -0.34632,0.53516c0,0 -0.27395,0.38292 0.08142,0.67144c-0.01273,0.06919 -0.02515,0.1384 -0.0373,0.20763c-0.00402,0.0028 -0.00805,0.00566 -0.0121,0.0086c-0.40459,0.29378 -0.1108,0.69837 -0.1108,0.69837l0.00589,0.00032c-0.0464,0.29371 -0.09066,0.58461 -0.1361,0.86926l0.04045,0.40055c0,0 0.0565,0.34056 0.35859,0.40878c-0.06857,0.39156 -0.11753,0.7914 -0.13817,1.20475c-0.18104,-0.02844 -0.38997,-0.0948 -0.57151,-0.23922zM244.63225,124.44341l-0.23091,-1.41776c0.01433,-0.88293 0.13326,-1.78909 0.40876,-2.63388c-2.33388,0.2512 -5.61319,1.17629 -6.44154,1.83784c-2.42485,1.93656 0.9837,2.95022 2.23181,2.99182c0.81076,0.02702 1.62827,-0.02445 2.42854,-0.15722c0.56383,-0.09355 1.12656,-0.21211 1.67735,-0.36886c-0.05633,-0.14533 -0.07401,-0.25193 -0.07401,-0.25193zM242.83072,129.79442c0.03194,-0.70873 0.06388,-1.41745 0.09582,-2.12618c-0.30736,0.04255 -0.61626,0.07451 -0.92631,0.09464c-0.29201,0.01896 -0.63245,0.03556 -0.99823,0.04268c0.16405,0.99381 0.09214,2.04482 -0.14107,3.02636c0.83186,-0.12557 1.69124,-0.20254 2.55354,-0.28237z" fill="#000000"></path>
        <path d="M243.45222,130.58235c-0.8623,0.07983 -1.78654,0.16601 -2.6184,0.29158c0.23321,-0.98155 0.30566,-2.11692 0.14162,-3.11073c0.36578,-0.00712 0.73635,-0.03123 1.02836,-0.0502c0.31006,-0.02013 0.64294,-0.04394 0.9503,-0.08649c-0.03194,0.70873 -0.04863,1.48502 -0.08057,2.19374z" fill="#565656"></path>
        <path d="M244.6787,124.46191c0,0 0.01658,0.10917 0.07291,0.2545c-0.55079,0.15675 -1.12606,0.29199 -1.6899,0.38553c-0.80027,0.13278 -1.66764,0.19351 -2.47839,0.16649c-1.24811,-0.04161 -4.68744,-1.11684 -2.26259,-3.0534c0.82835,-0.66155 4.19462,-1.6032 6.5285,-1.8544c-0.2755,0.8448 -0.3836,1.78021 -0.39792,2.66315l0.2274,1.43811z" fill="#565656"></path>
      </g>
      <path d="" fill="#491d1d" stroke-width="0.5"></path>
      <path d="" fill="#491d1d" stroke-width="0.5"></path>
      <path d="" fill="#565656" stroke-width="0.5"></path>
      <path d="" fill="#565656" stroke-width="0.5"></path>
      <path d="" fill="#565656" stroke-width="0.5"></path>
      <g>
        <path d="M287.82408,180.37075c-0.27375,0.35658 -0.2792,0.80674 -0.2792,0.80674l0.01304,0.32835c-0.18003,1.00546 -0.37252,2.01208 -0.58093,3.01206c-0.04055,3.01044 -1.04272,5.73394 -1.92621,8.55352c-2.22936,7.11479 -6.11259,14.71439 -11.50901,20.00398c-2.72911,4.42608 -7.52352,5.42407 -11.74992,7.82242c-4.02417,2.28359 -8.08802,4.753 -12.46322,6.44188c0,0 -0.57226,0.22073 -0.76073,0.75299c-0.33073,-0.09081 -0.6305,-0.03463 -0.6305,-0.03463l-1.44936,0.27691c-2.21094,0.85346 -4.61294,1.15797 -6.958,1.46764c-4.79524,-0.04798 -8.94806,-2.87634 -13.51002,-3.88009c-3.34245,-0.73541 -7.77953,-1.68812 -10.24502,-4.31895c0,0 -0.51424,-0.52644 -1.15684,-0.37838l-0.0401,-0.01962c-3.972,-3.05485 -7.98058,-6.30979 -11.47876,-9.88686c-3.13826,-3.20903 -4.73689,-7.98059 -7.40894,-11.57859c-3.45182,-9.17343 -3.31278,-18.30701 -3.24495,-27.86797c0.78326,-3.59654 1.32893,-7.13648 2.72034,-10.58428c1.49946,-3.71562 5.52654,-7.63596 7.97291,-10.81675c0,0 0.46487,-0.60435 0.19769,-1.23162c3.58119,-3.51901 7.83427,-7.84327 12.3079,-9.99261c1.07032,-0.51423 2.21817,-0.88953 3.38027,-1.22444c0.18291,0.18891 0.46033,0.33236 0.8792,0.33744c0.83997,0.01019 1.12374,-0.55162 1.21858,-0.92078c1.61576,-0.45199 3.20462,-0.9493 4.60471,-1.76214c4.43554,-0.75747 9.20545,-3.57631 13.74027,-3.48543c1.82335,0.03654 3.73527,0.31215 5.6021,0.33478l1.3381,-0.27954c0.0139,0.00357 0.02153,0.0052 0.02153,0.0052c1.07731,0.21625 2.20357,-0.02775 3.29918,0.05588c0.9259,0.07068 1.66135,0.88794 2.56882,1.0848c3.45411,0.74929 6.55726,1.56974 9.33524,2.98075c0.01098,0.24696 0.11273,0.5213 0.38219,0.79736c0.54743,0.56086 1.10455,0.42748 1.44305,0.24944c1.88747,1.21911 3.62452,2.8065 5.21524,4.94709c2.90464,1.84156 5.23437,4.27497 7.61355,6.72214l0.26365,0.27016c0,0 0.06848,0.0702 0.18651,0.15193c1.25219,2.37011 1.98468,5.00802 3.25533,7.35904c1.31994,2.4422 3.73407,3.8627 4.96301,6.41114c1.2404,2.57219 1.53293,5.2637 2.49063,7.82024c0.46687,3.07069 0.42557,6.16492 0.37871,9.2688z" fill="#672929" stroke-width="0.25"></path>
        <path d="M272.41104,218.45913l-0.23465,0.64706c-0.56492,2.59378 -0.8116,5.98103 -0.36901,8.58128c0.08704,0.51135 0.5972,0.94727 0.53299,1.462c-0.11469,0.91925 -0.19576,2.19063 -1.03707,2.57839c-0.94645,0.4362 -2.85909,-1.18647 -3.63428,-1.78733c-2.2491,-1.74326 -3.79601,-4.23788 -4.08712,-7.04244c-1.32717,0.57547 -2.63202,1.13349 -3.85215,1.71969c-3.25452,1.56365 -6.07148,3.67757 -9.51059,5.00513c0,0 -0.42181,0.16282 -0.85599,0.03893c-0.2111,0.6612 -0.97348,0.80408 -0.97348,0.80408l-1.2251,0.22427c-2.3757,0.91706 -4.96835,1.23272 -7.48702,1.55804c-5.10078,-0.0701 -9.30939,-2.93865 -14.14512,-3.92451c-3.31101,-0.67501 -7.11428,-1.68476 -9.99645,-3.7378c-0.08632,0.04477 -0.17326,0.07734 -0.25441,0.10105c-1.95306,2.43734 -4.15563,4.28274 -7.23685,5.23784c-1.64947,0.5113 -2.95927,1.43586 -4.01987,-1.15172c-0.43717,-1.06655 0.69759,-2.21626 0.79868,-3.36448c0.217,-2.46438 1.15017,-4.92585 1.15159,-7.35016c0,0 0.00329,-0.27182 0.13357,-0.56041c-1.66199,-1.44418 -3.27217,-2.93873 -4.7869,-4.49306c-3.28589,-3.37178 -5.03036,-8.27572 -7.77952,-12.08609c-3.76882,-9.5711 -3.69606,-19.2765 -3.53246,-29.31388c0.7916,-3.79936 1.35612,-7.61603 2.88097,-11.22681c1.59207,-3.76993 5.28807,-7.58815 7.90265,-10.885c-0.43112,-0.77272 0.26284,-1.45006 0.26284,-1.45006c3.59232,-3.50627 7.80581,-7.80435 12.31615,-10.36448l-0.19473,-0.40793c-0.06178,-0.16002 -0.12355,-0.32008 -0.18532,-0.4801l1.1102,-0.35518l0.61187,-0.37903l0.62387,-0.13073c0.05723,0.14826 0.11447,0.29653 0.17169,0.4448l0.1054,0.21256c0.85438,-0.34055 1.74318,-0.61553 2.64045,-0.87062c-0.08014,-0.30159 -0.15249,-0.60347 -0.22012,-0.90827l0.22361,-0.05303l0.82382,-0.42662l0.60009,-0.20615l0.3967,-0.25759l0.28669,-0.09848c0.08677,0.43431 0.17964,0.85862 0.29181,1.28259c1.48426,-0.42613 2.92771,-0.91012 4.21045,-1.6628l-0.00001,0c3.73659,-0.74456 7.67024,-2.60766 11.55996,-3.33911c0.11822,-0.30392 0.32101,-0.50182 0.32101,-0.50182l0.61921,-0.58961l0.94955,0.24966l1.77182,0.02148c-0.06398,0.17801 -0.13365,0.35341 -0.2084,0.52545c0.84098,0.02247 1.70052,0.09762 2.56344,0.17048l-0.36505,-0.69856l0.11302,-0.0268l0.75485,0.00915l0.75485,0.00915l0.21902,0.05758l0.94513,0.01145l0.23803,0.33594c0,0 0.09888,0.1694 0.15116,0.41318l0.60427,-0.17354c0,0 0.26607,-0.0631 0.57882,-0.00583c0.27768,-0.042 0.50291,0.0059 0.50291,0.0059l0,0.00002c0.47663,0.10916 0.9663,0.09478 1.45878,0.06122l0.15278,0.08388l0.97156,0.25546l0.00007,0l0.00006,0.00003l0.97158,0.25545l0.63775,0.00774l0.08676,0.03009l0.72793,0.25249l0.32762,0.0292c0.1657,0.06813 0.33488,0.12416 0.50966,0.16034c0.03783,0.00783 0.07566,0.01568 0.11345,0.02355l0.24651,0.12045l1.21518,0.2584l0.60628,0.12892l0.1398,0.04849l0.1519,0.01355l0.31719,0.06745l0.0052,-0.00018l0.25989,0.14268l0.2581,0.06786l0.70415,0.46019l0.72795,0.25251l0.00002,0l0.00002,0.00001l0.72793,0.25249l0.00004,0l0.00003,0.00002l0.72786,0.25247l0.19067,0.06614l0.34474,0.23591l0.5416,0.20087l0.11491,0.07511l0.4108,0.36083l0.41525,0.21395l0.21125,0.14456l0.24735,0.09172l0.09478,0.04884l0.10072,0.02366l0.14953,0.05545l0.47467,0.41696l0.38867,0.20026l0.05454,0.0982l0.27778,0.07303l0.24762,0.12759l1.34077,0.31506l1.81475,1.18597l0.07428,0.07611l0.32199,0.19855l0.3623,0.33746l0.0258,0.02907l0.05836,0.31144l0.51859,0.33892l0.70016,0.7892l0.72498,0.49612l0.1353,0.05019l0.17149,0.15973l0.22476,-0.01277l0.03353,0.01243c0.19629,0.24917 0.38938,0.50572 0.57916,0.76994c2.80307,1.66823 5.0672,4.1039 7.33253,6.43053c0.52594,0.12135 0.81731,0.62058 0.81731,0.62058c1.48903,2.56557 2.25554,5.48158 3.65355,8.0756c1.31846,2.44641 3.75409,3.92386 5.0181,6.51827c1.30869,2.68609 1.59523,5.60749 2.65079,8.25137c0.58436,3.7487 0.48894,7.47994 0.44291,11.27635l0.1976,0.40715c0,0 0.38088,1.19057 -0.80968,1.57143c-0.0031,0.00099 -0.00621,0.00198 -0.0093,0.00295c-0.07095,0.35561 -0.14461,0.71066 -0.22169,1.06496c-0.03395,3.16245 -1.09494,6.04973 -2.02175,9.00918c-2.30763,7.36854 -6.31362,15.34328 -11.93265,20.80328c-0.80246,1.30143 -1.82006,2.4074 -2.97782,3.37275c0.00425,0.27346 -0.06854,0.48331 -0.06854,0.48331zM287.39645,171.11216c-0.95769,-2.55653 -1.2478,-5.23991 -2.48819,-7.8121c-1.22895,-2.54843 -3.63935,-3.96144 -4.95929,-6.40364c-1.27066,-2.35102 -1.99828,-4.98222 -3.25048,-7.35233c-0.11801,-0.08174 -0.18635,-0.15175 -0.18635,-0.15175l-0.26339,-0.26986c-2.37918,-2.44717 -4.70114,-4.87344 -7.60578,-6.715c-1.59071,-2.14059 -3.32166,-3.72411 -5.20912,-4.94321c-0.3385,0.17803 -0.89436,0.31206 -1.44179,-0.2488c-0.26946,-0.27607 -0.37057,-0.55011 -0.38156,-0.79706c-2.77799,-1.41102 -5.87181,-2.22807 -9.32593,-2.97734c-0.90746,-0.19686 -1.64021,-1.01351 -2.56611,-1.08419c-1.09561,-0.08364 -2.21861,0.1609 -3.29593,-0.05534c0,0 -0.00762,-0.00162 -0.02151,-0.00521l-1.33679,0.2797c-1.86683,-0.02263 -3.773,-0.29798 -5.59636,-0.33453c-4.53483,-0.09088 -9.29026,2.72564 -13.7258,3.48311c-1.40009,0.81285 -2.98409,1.30834 -4.59986,1.76032c-0.09484,0.36918 -0.37717,0.93032 -1.21714,0.92013c-0.41887,-0.00508 -0.69566,-0.14882 -0.87858,-0.33773c-1.16212,0.33491 -2.30668,0.70844 -3.37703,1.22269c-4.47362,2.14932 -8.71412,6.46315 -12.29532,9.98215c0.26718,0.62726 -0.19698,1.23077 -0.19698,1.23077c-2.44637,3.18079 -6.46619,7.08937 -7.96566,10.80499c-1.39139,3.4478 -1.93375,6.97705 -2.71701,10.57359c-0.06785,9.56096 -0.20992,18.66567 3.24189,27.8391c2.67206,3.59799 4.26329,8.35732 7.40155,11.56634c3.49819,3.57706 7.49488,6.82149 11.46687,9.87635l0.04006,0.0196c0.64259,-0.14807 1.15578,0.37772 1.15578,0.37772c2.46549,2.63085 6.89182,3.57873 10.23427,4.31415c4.56195,1.00374 8.7004,3.82982 13.49564,3.87782c2.34506,-0.30968 4.7398,-0.61374 6.95074,-1.4672l1.44783,-0.27669c0,0 0.29913,-0.05607 0.62988,0.03474c0.18848,-0.53226 0.75982,-0.75281 0.75982,-0.75281c4.3752,-1.68888 8.42493,-4.15319 12.44911,-6.43678c4.2264,-2.39835 9.00861,-3.38703 11.73772,-7.81309c5.39643,-5.28958 9.26745,-12.86756 11.49681,-19.98234c0.8835,-2.81958 1.88408,-5.53386 1.92464,-8.5443c0.20841,-0.99998 0.40075,-2.00338 0.58078,-3.00885l-0.01303,-0.328c0,0 0.00545,-0.44932 0.27921,-0.8059c0.04686,-3.10388 0.08922,-6.18855 -0.37764,-9.25922zM207.3297,224.06518c-0.14734,1.46481 0.20863,2.88287 -0.88966,4.06218c-0.21694,0.23294 0.47926,-0.43841 0.77333,-0.56023c0.48869,-0.20248 1.02811,-0.26671 1.51352,-0.47692c1.88402,-0.81594 3.28141,-2.29606 4.5198,-3.85668l-0.16597,-0.08854c-1.58231,-1.21696 -3.17112,-2.46558 -4.73255,-3.75318c-0.2632,1.58059 -0.8525,3.02373 -1.01846,4.67338zM266.03196,221.98678c-0.06159,1.88429 0.90651,3.91405 2.23675,5.27695c0.16324,0.16725 0.61268,0.41137 1.05644,0.70067c-0.05034,-0.52212 0.05804,-1.0563 0.02358,-1.58181c-0.13556,-2.06678 -0.14725,-4.23987 0.13461,-6.33939c-1.11346,0.64805 -2.28296,1.22852 -3.46483,1.77332c0.01428,0.10322 0.01347,0.17027 0.01347,0.17027z" fill="#000000" stroke-width="0.5"></path>
        <path d="M218.30461,135.72357c-0.89727,0.25509 -1.86819,0.55617 -2.72257,0.89671l-0.11029,-0.2176c-0.05824,-0.15089 -0.11943,-0.30901 -0.18058,-0.4671l0.12773,-0.02676l0.34099,-0.16536l0.79078,-0.25298l0.73381,-0.23476l0.71515,-0.44301l0.07801,-0.01851c0.07105,0.31539 0.14747,0.63033 0.22694,0.92936z" fill="#565656" stroke-width="0.5"></path>
        <path d="M265.99974,221.94853c0,0 0.00221,-0.06819 -0.01206,-0.17141c1.18188,-0.54481 2.40269,-1.13149 3.51613,-1.77954c-0.28185,2.09952 -0.26249,4.35954 -0.12694,6.42633c0.03446,0.52552 -0.0833,1.06472 -0.03297,1.58684c-0.44377,-0.2893 -0.90363,-0.53047 -1.06687,-0.69772c-1.33024,-1.3629 -2.3389,-3.48019 -2.27731,-5.36448z" fill="#565656" stroke-width="0.5"></path>
        <path d="M208.33212,219.34444c1.56143,1.28761 3.21525,2.57345 4.79755,3.79041l0.1663,0.09026c-1.23839,1.5606 -2.70123,3.09646 -4.58526,3.91241c-0.48539,0.21023 -1.03738,0.26808 -1.52607,0.47055c-0.29407,0.12183 -0.99254,0.79148 -0.7756,0.55854c1.09829,-1.17931 0.72355,-2.63164 0.8709,-4.09644c0.16595,-1.64965 0.78897,-3.14511 1.05217,-4.72571z" fill="#565656" stroke-width="0.5"></path>
        <g>
          <path d="M277.17725,163.20993l-0.30162,-0.63186c-1.78684,-4.6342 -4.98912,-7.60187 -7.46684,-11.85813c-2.12845,-2.90279 -5.10134,-6.95933 -8.26933,-8.77534c-3.81207,-2.18519 -8.30771,-1.82827 -12.40116,-2.68118c0,0 -0.27458,-0.0584 -0.53583,-0.24994l-1.20572,-0.01966c-6.24567,-1.32805 -13.07843,-0.14575 -19.31999,0.80175c-6.12732,1.96595 -10.12411,5.56015 -15.11444,9.45624c-1.88393,1.47084 -5.14506,3.18431 -5.78353,5.47366c0,0 -0.30036,0.86596 -1.12819,0.85763c-1.70056,2.10448 -3.56442,3.9157 -4.56554,6.55095c-1.88229,4.95472 -2.46704,11.09665 -2.53091,16.36486c-0.05741,4.73588 -0.15264,10.31925 1.60364,14.76978c1.86504,4.72611 5.24055,8.86394 7.46783,13.48509c1.83099,2.48237 3.77574,4.75563 6.2452,6.64626l0.80912,0.55339c0.63746,-0.03238 1.05581,0.53973 1.05581,0.53973c1.78729,2.50076 5.3812,3.96027 8.16983,5.00901c1.93427,0.72743 3.57502,1.9169 5.38048,2.76469c2.48029,1.16468 6.36972,0.75876 8.96397,0.27257c0.53329,0.00647 1.06658,0.01292 1.59988,0.01939l1.21428,-0.23377c0,0 0.10568,-0.01981 0.26087,-0.01681c0.42679,-0.6838 1.30244,-0.49761 1.30244,-0.49761c3.49359,0.80904 7.16408,-1.08947 10.10895,-2.67498c4.55018,-2.44981 8.63493,-4.79519 12.36515,-8.4449c5.02605,-4.88636 10.27236,-10.82526 12.43478,-17.72287c0.85982,-2.74263 1.16517,-5.56279 1.6704,-8.38287c1.49217,-7.02099 0.89974,-13.88877 -1.04119,-20.65031c-0.66406,-0.05615 -0.98832,-0.72481 -0.98832,-0.72481zM262.3906,139.78022c3.50003,1.99632 6.7772,6.37239 9.10957,9.57002c2.32235,3.96985 5.21884,6.89247 7.13082,10.97679c0.48965,0.03685 0.84509,0.40101 0.84509,0.40101l0.55942,0.7621c2.45941,7.69642 3.32834,15.56859 1.62466,23.5754c-0.52041,2.90488 -0.85066,5.81489 -1.73624,8.64373c-2.29173,7.32066 -7.75724,13.55608 -13.07611,18.77058c-3.9143,3.81039 -8.16182,6.27768 -12.91305,8.84993c-3.49348,1.89132 -7.50304,3.69341 -11.6047,2.96804c-0.30195,0.39013 -0.80534,0.48446 -0.80534,0.48446l-1.45864,0.26719c-0.53329,-0.00647 -1.06658,-0.01292 -1.59988,-0.01939c-3.08058,0.57737 -7.28995,0.83341 -10.22816,-0.49347c-1.76954,-0.79912 -3.34122,-1.98576 -5.22074,-2.69755c-3.04236,-1.15218 -6.50748,-2.6811 -8.73165,-5.17471c-0.16428,-0.06408 -0.26809,-0.13511 -0.26809,-0.13511l-1.61529,-1.10597c-2.73059,-2.10806 -4.90492,-4.60626 -6.91905,-7.38101c-2.30844,-4.73345 -5.81514,-9.01175 -7.66799,-13.90038c-1.81937,-4.8003 -1.82248,-10.59346 -1.7609,-15.67323c0.0673,-5.55089 0.71354,-11.94693 2.67604,-17.1745c1.17317,-3.12498 3.38596,-5.18854 5.34332,-7.74681c0,0 0.28539,-0.37107 0.73396,-0.48439c1.34748,-2.48791 3.97455,-4.03324 6.24014,-5.80013c5.29486,-4.12936 9.54137,-7.82255 16.05581,-9.90064c6.49349,-1.01588 13.6647,-2.23618 20.16965,-0.85302l1.21015,0.00859c0,0 0.48996,0.00594 0.85264,0.31714c4.33597,0.92871 9.00474,0.63539 13.05458,2.94531z" fill="#000000" stroke-width="0.5"></path>
          <path d="M277.22265,163.18892c0,0 0.32479,0.66981 0.98885,0.72596c1.94093,6.76154 2.53722,13.65395 1.04507,20.67493c-0.50522,2.82008 -0.81273,5.65066 -1.67255,8.3933c-2.16242,6.89761 -7.42369,12.85914 -12.44974,17.74551c-3.73022,3.6497 -7.83107,6.00442 -12.38124,8.45421c-2.94487,1.58552 -6.62783,3.48667 -10.12142,2.67763c0,0 -0.87724,-0.1861 -1.30404,0.4977c-0.15518,-0.00301 -0.26118,0.01683 -0.26118,0.01683l-1.21574,0.2338c-0.5333,-0.00646 -1.0685,-0.01294 -1.60179,-0.0194c-2.59424,0.48621 -6.49413,0.89076 -8.97443,-0.27393c-1.80546,-0.8478 -3.45294,-2.0394 -5.38722,-2.76682c-2.78865,-1.04873 -6.39272,-2.5137 -8.18001,-5.01446c0,0 -0.41951,-0.57295 -1.05697,-0.54057l-0.81005,-0.5541c-2.46947,-1.89064 -4.42213,-4.17162 -6.25313,-6.65397c-2.22728,-4.62114 -5.6118,-8.77547 -7.47683,-13.5016c-1.75628,-4.45053 -1.66336,-10.05189 -1.60595,-14.78778c0.06387,-5.26821 0.65359,-11.42931 2.53588,-16.38402c1.00112,-2.63525 2.86989,-4.45452 4.57046,-6.55901c0.82783,0.00832 1.12919,-0.85893 1.12919,-0.85893c0.63846,-2.28935 3.90629,-4.00969 5.79023,-5.48054c4.99034,-3.89609 9.00584,-7.50027 15.13316,-9.46622c6.24156,-0.94751 13.09705,-2.13085 19.34271,-0.80281l1.20708,0.01993c0.26125,0.19155 0.53649,0.25009 0.53649,0.25009c4.09346,0.85291 8.60253,0.50116 12.41459,2.68636c3.168,1.81601 6.15175,5.88083 8.28021,8.78361c2.47771,4.25626 5.68959,7.23747 7.47644,11.87167z" fill="url(#color-2)" stroke-width="0.25"></path>
          <path d="M241.0163,137.51304c0.17082,-0.28446 0.48464,-0.54654 1.06108,-0.53956c1.2499,0.01515 1.23476,1.26506 1.23476,1.26506l-0.04017,1.31141c-0.74202,3.40714 1.01165,8.33766 -0.68555,11.51539c-0.01558,0.02919 -0.03148,0.05818 -0.04766,0.08696l0.01923,0.00667l-0.54326,1.56618c-0.16328,0.50884 -0.64331,0.87432 -1.20558,0.8675c-0.69031,-0.00836 -1.24313,-0.57475 -1.23476,-1.26506l0.01616,-1.33323c0.04977,-4.10563 0.38649,-8.19214 0.41535,-12.26252c0,0 0.01302,-1.07392 1.01037,-1.21879z" fill="#2f2f2f" stroke-width="0.5"></path>
          <path d="M262.64567,160.12674c0.75209,-0.82841 1.57685,-1.60591 2.42487,-2.36843c1.7537,-1.71199 3.50465,-3.4198 5.26877,-5.14165c0,0 0.89454,-0.87309 1.76764,0.02142c0.87309,0.89454 -0.02142,1.76764 -0.02142,1.76764c-0.33169,0.32375 -0.66293,0.64708 -0.99379,0.97008c-0.10541,0.36629 -0.35884,0.61365 -0.35884,0.61365l-0.26987,0.2634c-1.65068,1.61114 -3.12506,3.095 -4.89686,4.51635c-0.29532,0.28807 -0.59088,0.57632 -0.88675,0.86479c-0.40052,0.45417 -0.73953,0.88319 -1.13029,1.10171c-0.14004,0.13646 -0.28018,0.27299 -0.42042,0.4096l-0.07107,0.02127l0.01775,0.02274l-1.33832,1.0443c-0.21723,0.17252 -0.49298,0.27419 -0.79199,0.27056c-0.69031,-0.00836 -1.24313,-0.57475 -1.23476,-1.26506c0.00418,-0.34514 0.14786,-0.65592 0.3768,-0.87938l1.0795,-1.05366l0.11171,0.11444l0.21804,-0.17012c0.38369,-0.37529 0.76674,-0.74979 1.14933,-1.12369z" fill="#2f2f2f" stroke-width="0.5"></path>
          <path d="M277.92033,182.30521c-0.36055,-0.00437 -0.72114,-0.00424 -1.08176,-0.00044c-0.68028,0.26698 -1.58908,0.23003 -2.51456,0.07572c-2.75269,0.12547 -5.50761,0.35381 -8.26583,0.32038c0,0 -1.2499,-0.01515 -1.23476,-1.26506c0.01515,-1.2499 1.26506,-1.23476 1.26506,-1.23476c1.41638,0.01718 2.83219,-0.03605 4.24736,-0.10824c0.10262,-0.16978 0.20698,-0.27163 0.20698,-0.27163l1.46087,-0.57785c1.1713,0.3137 2.32064,0.46741 3.46919,0.5952c0.64751,-0.01956 1.29486,-0.03004 1.94204,-0.02648l1.51997,-0.23442c0.07431,-0.0128 0.15085,-0.01905 0.22896,-0.01811c0.69031,0.00836 1.24313,0.57475 1.23476,1.26506c-0.00745,0.6144 -0.45694,1.11989 -1.04241,1.21772l-1.31371,0.24622l-0.00796,-0.04247l-0.03713,0.00573z" fill="#2f2f2f" stroke-width="0.5"></path>
          <path d="M266.88983,209.01342c-0.89454,0.87309 -1.76764,-0.02142 -1.76764,-0.02142l-0.2634,-0.26987c-2.61357,-2.68828 -4.48988,-5.93899 -7.50008,-8.24206c0,0 -0.99084,-0.76205 -0.22878,-1.7529c0.76205,-0.99084 1.7529,-0.22878 1.7529,-0.22878c3.1074,2.40086 5.05217,5.71036 7.76504,8.47754l0.2634,0.26987c0,0 0.87309,0.89454 -0.02142,1.76764z" fill="#2f2f2f" stroke-width="0.5"></path>
          <path d="M239.21653,208.94821c0.07999,-0.45974 0.15988,-0.91265 0.23832,-1.35683c0,0 0.22043,-1.23041 1.45084,-1.00999c1.23041,0.22043 1.00999,1.45084 1.00999,1.45084c-0.67937,3.7319 -1.42079,8.10671 -1.46678,11.90077l-0.07514,0.10994l0.05547,0.0118l-0.27799,1.30735c-0.112,0.58292 -0.62824,1.02003 -1.24264,1.01258c-0.69031,-0.00836 -1.24313,-0.57475 -1.23476,-1.26506l0.01939,-1.59988l0.27305,0.00331c0.00254,-0.1522 0.0062,-0.30528 0.01093,-0.45915c-0.34329,-2.80848 0.05611,-5.59977 0.09256,-8.60693l0.00323,-0.26664c0,0 0.01416,-1.16752 1.1435,-1.23211z" fill="#2f2f2f" stroke-width="0.5"></path>
          <path d="M212.19912,207.93993c-0.54512,0.47014 -1.0755,0.95404 -1.58474,1.45802c0,0 -0.89454,0.8731 -1.76764,-0.0214c-0.8731,-0.89454 0.0214,-1.76764 0.0214,-1.76764c1.37706,-1.32901 2.88149,-2.52844 4.41003,-3.70812c1.56028,-1.41202 3.17746,-2.7463 4.8693,-4.0176c0.44684,-0.33575 0.76937,-0.95068 1.31961,-1.03688c0.08122,-0.07747 0.16205,-0.15539 0.24246,-0.23377l0.08939,-0.01818l0.00451,-0.00352l-0.02423,-0.03313l1.06607,-0.77954c0.21257,-0.159 0.47724,-0.25182 0.76316,-0.24835c0.69031,0.00836 1.24313,0.57475 1.23476,1.26506c-0.00484,0.39903 -0.19613,0.75213 -0.49005,0.97745l-1.32413,1.03322c-1.5382,1.46076 -3.23486,2.75622 -4.93014,4.04517c-1.00312,0.83257 -2.00897,1.68044 -2.96203,2.61212l-0.10011,0.09771c0,0 -0.35583,0.3473 -0.83769,0.3794z" fill="#2f2f2f" stroke-width="0.5"></path>
          <path d="M198.88082,178.0786c0,0 -1.22266,-0.25998 -0.96268,-1.48266c0.25998,-1.22266 1.48266,-0.96268 1.48266,-0.96268c1.76297,0.4152 3.76278,0.28267 5.76485,0.06072c0.25959,-0.81203 1.19948,-0.80064 1.19948,-0.80064l0.53331,0.00646c1.34714,0.01924 2.49026,-0.25784 3.18348,0.31703c0.09373,-0.00246 0.18696,-0.00415 0.27966,-0.00501l0.00004,-0.00336l1.59988,0.01939c0.69031,0.00836 1.24313,0.57475 1.23476,1.26506c-0.00836,0.69031 -0.57475,1.24313 -1.26506,1.23476l-1.43741,-0.01743c-3.74978,-0.03445 -7.8701,1.10521 -11.61293,0.36832z" fill="#2f2f2f" stroke-width="0.5"></path>
          <path d="M216.54523,147.74329c-0.35386,-0.27297 -0.71184,-0.54731 -1.07368,-0.82493c0,0 -0.99083,-0.76207 -0.22877,-1.7529c0.76207,-0.99083 1.7529,-0.22877 1.7529,-0.22877c3.41969,2.63725 6.56071,4.99624 9.145,8.54158l1.00693,1.03163c0.22345,0.22894 0.35956,0.54311 0.35538,0.88826c-0.00836,0.69031 -0.57475,1.24313 -1.26506,1.23476c-0.299,-0.00363 -0.5722,-0.11194 -0.78519,-0.28967l-1.31261,-1.07643l0.14506,-0.1769l-0.03997,0.02106c-0.02898,-0.03945 -0.05803,-0.07876 -0.08714,-0.11792c-2.60789,-1.33775 -4.81415,-3.23146 -6.78249,-5.5713l-0.61312,-0.92762c0,0 -0.2181,-0.33589 -0.21725,-0.75087z" fill="#2f2f2f" stroke-width="0.5"></path>
          <path d="M236.04875,180.26476c-0.08499,-0.33788 -0.06807,-0.68424 0.02457,-1.01967c0.14108,-1.91679 2.33764,-4.07589 3.96737,-3.2933c0.81633,-0.00472 1.24976,0.46092 1.39021,1.12952c0.30644,0.21889 0.59557,0.51473 0.85654,0.8973c1.35299,1.98348 0.17091,3.87579 -1.41199,5.02653c-0.26645,1.20631 -1.47955,0.94836 -1.47955,0.94836c-0.00141,-0.00039 -0.00283,-0.0008 -0.00424,-0.00121c-0.51277,0.35531 -1.04097,0.69482 -1.57811,0.51997c-1.98836,-0.64729 -2.29771,-2.53934 -1.76477,-4.20749z" fill="#2f2f2f" stroke-width="0.5"></path>
        </g>
      </g>
    </g>
  </g>
</svg>
