<?xml version="1.0" encoding="UTF-8"?>
<svg xmlns="http://www.w3.org/2000/svg" xmlns:xlink="http://www.w3.org/1999/xlink" version="1.1" width="35.51677" height="39.8767" viewBox="0,0,35.51677,39.8767">
  <g transform="translate(-222.24163,-160.06164)">
    <g stroke="none" stroke-width="0.5" stroke-miterlimit="10">
      <path d="M244.27406,186.39042c-0.21326,0.42654 -0.5079,0.609 -0.79077,0.67152c-1.03897,2.91432 -2.29456,5.86611 -2.73138,8.89984c-0.13992,0.97172 -0.27571,3.68922 -1.71442,3.96092c-1.21166,0.22883 -2.8776,-2.11362 -3.15536,-3.07574c-0.70134,-2.42931 -0.00844,-5.34732 0.58394,-7.90599c-1.16796,0.88908 -2.53236,1.57277 -3.85008,2.34144c-2.44823,1.42815 -4.24347,2.49245 -6.46803,3.19809l0.1291,0.32275l-2.29487,0.91794c-0.15061,0.06433 -0.31643,0.09993 -0.49056,0.09993c-0.69036,0 -1.25,-0.55964 -1.25,-1.25c0,-0.34518 0.13991,-0.65768 0.36612,-0.88389l0.93471,-0.9347c2.75867,-3.42618 5.93913,-6.3253 8.55482,-9.95278c-3.4291,-1.46804 -5.78941,-4.49203 -6.91508,-7.89006l-0.44872,0.14957l-0.71907,-2.15725c-0.04749,-0.1321 -0.07337,-0.27451 -0.07337,-0.42296c0,-0.69036 0.55964,-1.25 1.25,-1.25c0.29902,0 0.57353,0.105 0.78865,0.28014l1.20608,0.96486c1.93124,1.56053 4.27007,1.36939 6.18353,2.79967c0.84879,0.63445 1.55817,1.43591 2.33096,2.16259c0.03503,-0.03634 0.06982,-0.07287 0.10438,-0.1096c-0.27696,-0.22928 -0.45341,-0.5757 -0.45341,-0.96334c0,-0.69036 0.55964,-1.25 1.25,-1.25c0.27736,0 0.53362,0.09033 0.74097,0.24319c2.50823,-3.84547 3.48544,-8.89346 5.12213,-13.00943l0.4678,-1.40343c0.15709,-0.51078 0.63267,-0.88206 1.19497,-0.88206c0.69036,0 1.25,0.55964 1.25,1.25v1.69938h-0.34875c0.81891,5.34925 -0.11879,12.49612 -1.85088,17.02306c3.96621,-0.7225 7.68047,-2.14873 11.67954,-2.72056l1.42267,-0.23711c0.07415,-0.01371 0.1506,-0.02088 0.22872,-0.02088c0.69036,0 1.25,0.55964 1.25,1.25c0,0.46331 -0.25206,0.86774 -0.62653,1.08365l-1.19421,0.71652l-0.15546,-0.2591c-3.16105,2.77176 -7.66675,4.83144 -11.43072,6.36461c-0.02105,0.05804 -0.04669,0.11777 -0.0774,0.17918zM234.2196,184.13027c-1.64317,2.30044 -3.52443,4.31581 -5.38371,6.34691c3.11013,-1.48525 6.73616,-2.6045 7.85936,-5.68675l0.08298,-0.06665l-0.03503,-0.02102l0.71653,-1.19421c0.21591,-0.37446 0.62035,-0.62652 1.08365,-0.62652c0.69036,0 1.25,0.55964 1.25,1.25c0,0.07812 -0.00717,0.15457 -0.02088,0.22872l-0.23889,1.4334l-0.33249,-0.05541c-0.07528,2.6361 -0.86867,5.00859 -0.86435,7.86133c0.00017,0.11247 0.02105,0.43848 0.04978,0.85666c0.08113,-0.3718 0.1481,-0.63238 0.15412,-0.65831c0.67445,-2.90318 2.00163,-5.77468 2.94394,-8.60505l0.18933,-0.04075c0.12035,-1.04507 1.2147,-1.05662 1.23888,-1.05675c1.92772,-0.7891 3.69236,-1.75673 5.46293,-2.73982c-1.97364,0.53061 -3.95569,1.04692 -6.01405,1.34294c0,0 -1.23744,0.17678 -1.41422,-1.06065c-0.00665,-0.04656 -0.0113,-0.09162 -0.01409,-0.13522c-0.24124,-0.35242 -0.24124,-0.76987 -0.24124,-0.76987l0.0894,-1.43532c1.13549,-2.78874 1.4505,-6.11886 1.6549,-9.29265c-1.20759,3.46056 -2.63916,6.84038 -5.19413,9.42691c0,0 -0.24683,0.24683 -0.61006,0.34918c-0.00846,0.01109 -0.01714,0.02221 -0.02606,0.03335c-0.78087,0.97608 -1.75696,0.19521 -1.75696,0.19521c-1.03336,-0.82869 -1.88606,-1.86759 -2.92151,-2.69367c-1.00959,-0.80544 -2.28895,-1.131 -3.56248,-1.54928c1.40314,1.79633 2.53746,3.89696 4.81586,4.77674l0.65937,0.21752c0,0 1.18585,0.39529 0.79056,1.58114c-0.07194,0.21582 -0.17007,0.37927 -0.28246,0.50226c0.33708,0.63309 -0.12901,1.28562 -0.12901,1.28562zM242.87955,184.10948l-0.18777,0.07581c0.06277,-0.02508 0.12536,-0.05035 0.18777,-0.07581z" fill="#005019"></path>
      <path d="M234.29918,182.8522c0.1124,-0.12299 0.20997,-0.29249 0.28191,-0.50831c0.39529,-1.18585 -0.78814,-1.59806 -0.78814,-1.59806l-0.65936,-0.21755c-2.27841,-0.87977 -3.40718,-2.99208 -4.81031,-4.78841c1.27353,0.41829 2.55514,0.74065 3.56472,1.54609c1.03545,0.82608 1.97019,1.92198 3.00355,2.75067c0,0 0.90431,0.71381 1.68518,-0.26227c0.00891,-0.01114 0.01815,-0.02265 0.02661,-0.03374c0.36323,-0.10235 0.6203,-0.35478 0.6203,-0.35478c2.55498,-2.58653 4.02101,-5.96743 5.22861,-9.42798c-0.2044,3.17379 -0.50343,6.51272 -1.63893,9.30147l-0.07914,1.44684c0,0 0.00608,0.43089 0.24732,0.78331c0.00279,0.0436 0.00807,0.09112 0.01472,0.13768c0.17678,1.23744 1.31583,1.06604 1.31583,1.06604c2.05835,-0.29602 4.13988,-0.81086 6.11352,-1.34147c-1.77058,0.98309 -3.53877,1.97407 -5.46649,2.76317c-0.02418,0.00013 -1.12733,0.02582 -1.24768,1.07088l-0.19056,0.04208c-0.94231,2.83037 -2.30498,5.7174 -2.97943,8.62058c-0.00602,0.02593 -0.07366,0.28651 -0.15479,0.65831c-0.02874,-0.41818 -0.04953,-0.84419 -0.0497,-0.95666c-0.00432,-2.85274 0.7774,-5.22388 0.85268,-7.85998l0.3285,0.05654l0.22692,-1.42763c0.01371,-0.07415 0.01841,-0.14887 0.01841,-0.22699c0,-0.69036 -0.51685,-1.16165 -1.20721,-1.16165c-0.4633,0 -0.90959,0.24444 -1.12551,0.61891l-0.66001,1.11173l0.03445,0.02064l-0.13728,0.15062c-1.12321,3.08225 -4.75967,4.19237 -7.8698,5.67762c1.85928,-2.0311 3.73289,-4.05838 5.37606,-6.35881c0,0 0.46213,-0.66579 0.12505,-1.29888z" fill="#007c28"></path>
    </g>
  </g>
</svg>
