<?xml version="1.0" encoding="UTF-8"?>
<svg xmlns="http://www.w3.org/2000/svg" xmlns:xlink="http://www.w3.org/1999/xlink" version="1.1" width="496.33876" height="379" viewBox="0,0,496.33876,379">
  <defs>
    <linearGradient x1="240" y1="-8.5" x2="240" y2="368.5" gradientUnits="userSpaceOnUse" id="color-1">
      <stop offset="0" stop-color="#1c2038"></stop>
      <stop offset="1" stop-color="#16192c"></stop>
    </linearGradient>
    <linearGradient x1="242.60001" y1="162.89999" x2="242.60001" y2="359.89999" gradientUnits="userSpaceOnUse" id="color-2">
      <stop offset="0" stop-color="#0f111d"></stop>
      <stop offset="1" stop-color="#090a13"></stop>
    </linearGradient>
    <linearGradient x1="51.64248" y1="58.20906" x2="51.64248" y2="248.94325" gradientUnits="userSpaceOnUse" id="color-3">
      <stop offset="0" stop-color="#ffe054" stop-opacity="0.10588"></stop>
      <stop offset="1" stop-color="#ffe054" stop-opacity="0"></stop>
    </linearGradient>
    <linearGradient x1="319.71803" y1="36.49835" x2="319.71803" y2="232.04358" gradientUnits="userSpaceOnUse" id="color-4">
      <stop offset="0" stop-color="#ffe054" stop-opacity="0.10588"></stop>
      <stop offset="1" stop-color="#ffe054" stop-opacity="0"></stop>
    </linearGradient>
    <linearGradient x1="150.64688" y1="34.57524" x2="150.64688" y2="229.63516" gradientUnits="userSpaceOnUse" id="color-5">
      <stop offset="0" stop-color="#ffe054" stop-opacity="0.10588"></stop>
      <stop offset="1" stop-color="#ffe054" stop-opacity="0"></stop>
    </linearGradient>
    <linearGradient x1="430.64248" y1="66.20906" x2="430.64248" y2="256.94325" gradientUnits="userSpaceOnUse" id="color-6">
      <stop offset="0" stop-color="#ffe054" stop-opacity="0.10588"></stop>
      <stop offset="1" stop-color="#ffe054" stop-opacity="0"></stop>
    </linearGradient>
    <linearGradient x1="51.64248" y1="57.20906" x2="51.64248" y2="247.94325" gradientUnits="userSpaceOnUse" id="color-7">
      <stop offset="0" stop-color="#ffe054" stop-opacity="0.10588"></stop>
      <stop offset="1" stop-color="#ffe054" stop-opacity="0"></stop>
    </linearGradient>
    <linearGradient x1="241.60001" y1="328.89999" x2="241.60001" y2="364.89999" gradientUnits="userSpaceOnUse" id="color-8">
      <stop offset="0" stop-color="#61678a"></stop>
      <stop offset="1" stop-color="#939dd2"></stop>
    </linearGradient>
    <linearGradient x1="240.10001" y1="297.89999" x2="240.10001" y2="328.89999" gradientUnits="userSpaceOnUse" id="color-9">
      <stop offset="0" stop-color="#61678a"></stop>
      <stop offset="1" stop-color="#939dd2"></stop>
    </linearGradient>
    <linearGradient x1="240" y1="270.9" x2="240" y2="300.9" gradientUnits="userSpaceOnUse" id="color-10">
      <stop offset="0" stop-color="#61678a"></stop>
      <stop offset="1" stop-color="#939dd2"></stop>
    </linearGradient>
    <linearGradient x1="246.60001" y1="239.9" x2="246.60001" y2="271.9" gradientUnits="userSpaceOnUse" id="color-11">
      <stop offset="0" stop-color="#61678a"></stop>
      <stop offset="1" stop-color="#939dd2"></stop>
    </linearGradient>
    <linearGradient x1="250.1" y1="223.89999" x2="250.1" y2="241.9" gradientUnits="userSpaceOnUse" id="color-12">
      <stop offset="0" stop-color="#61678a"></stop>
      <stop offset="1" stop-color="#939dd2"></stop>
    </linearGradient>
  </defs>
  <g transform="translate(6.5,9.5)">
    <g stroke-miterlimit="10">
      <path d="M-5.5,368.5v-377h491v377z" fill="url(#color-1)" stroke="#000000" stroke-width="2"></path>
      <path d="M-0.39999,359.89999v-197c0,0 157.55506,27 237,27c82.44391,0 249,-27 249,-27v197z" fill="url(#color-2)" stroke="none" stroke-width="0"></path>
      <path d="M81.05352,248.94325l-67.85076,-154.62624c0,0 -8.41868,-23.1658 15.48308,-33.38074c27.05697,-11.56339 33.99592,17.38612 33.99592,17.38612l28.83846,167.23739z" fill="url(#color-3)" stroke="none" stroke-width="0"></path>
      <path d="M326.77411,232.04358l-32.87337,-165.62711c0,0 -3.21962,-24.4369 22.32365,-29.25157c28.91516,-5.45024 29.44145,24.31462 29.44145,24.31462l-7.94142,169.51972z" fill="url(#color-4)" stroke="none" stroke-width="0"></path>
      <path d="M135.92704,229.26395l-11.32098,-168.47799c0,0 -0.05325,-24.64803 25.89691,-26.14097c29.37576,-1.69002 26.07348,27.89577 26.07348,27.89577l-29.65567,167.09441z" fill="url(#color-5)" stroke="none" stroke-width="0"></path>
      <path d="M390.76473,253.55978l28.83846,-167.23739c0,0 6.93895,-28.94952 33.99592,-17.38613c23.90176,10.21495 15.48308,33.38075 15.48308,33.38075l-67.85075,154.62624z" fill="url(#color-6)" stroke="none" stroke-width="0"></path>
      <path d="M81.05352,247.94325l-67.85076,-154.62624c0,0 -8.41868,-23.1658 15.48308,-33.38074c27.05697,-11.56339 33.99592,17.38612 33.99592,17.38612l28.83846,167.23739z" fill="url(#color-7)" stroke="none" stroke-width="0"></path>
      <path d="M-1.39999,365.89999c0,0 0,-11.90899 0,-22c0,-22.25435 116,-118 116,-118l259,-2c0,0 94.01764,94.03986 112.76352,117.59664c7.67885,9.64952 0.23648,24.40336 0.23648,24.40336z" fill="#ffffff" stroke="none" stroke-width="0"></path>
      <path d="M119.60001,217.89999v-9h245v9z" fill="#150b0b" stroke="#000000" stroke-width="2.5"></path>
      <path d="M361.20617,217.6998l-0.85908,-8.95891l100.53884,-9.64071l0.85907,8.9589z" fill="#150b0b" stroke="#000000" stroke-width="2.5"></path>
      <path d="M19.40105,208.05909l0.85907,-8.95891l100.53883,9.64071l-0.85907,8.95891z" fill="#150b0b" stroke="#000000" stroke-width="2.5"></path>
      <path d="M-2.39999,362.89999l14,-33l457,-1l16,35z" fill="url(#color-8)" stroke="none" stroke-width="0"></path>
      <path d="M19.60001,329.89999l29,-31h390l22,30z" fill="url(#color-9)" stroke="none" stroke-width="0"></path>
      <path d="M42.5,299.9l27,-30l334,-1l36,31z" fill="url(#color-10)" stroke="none" stroke-width="0"></path>
      <path d="M74.6,269.9l25,-30h294l13,32z" fill="url(#color-11)" stroke="none" stroke-width="0"></path>
      <path d="M122.60001,241.9v-18h255v18z" fill="url(#color-12)" stroke="none" stroke-width="0"></path>
      <path d="M3.60001,354.89999v-175c0,0 4.01622,-7 6.75,-7c2.76746,0 8.86229,-1.52924 13.97434,0.32091c4.5224,1.63674 8.27566,6.67909 8.27566,6.67909v175c0,0 -3.77271,4.78025 -8.52797,6.40132c-3.97463,1.35495 -8.78638,-0.40132 -11.22203,-0.40132c-3.66112,0 -9.25,-6 -9.25,-6z" fill="#381c1c" stroke="#000000" stroke-width="2.5"></path>
      <path d="M48.10001,308.54933v-145.91156c0,0 3.34865,-5.83646 5.62802,-5.83646c2.30746,0 7.3892,-1.27505 11.65153,0.26756c3.77069,1.36469 6.90009,5.5689 6.90009,5.5689v145.91156c0,0 -3.14561,3.98568 -7.11045,5.33729c-3.31397,1.12973 -7.32591,-0.33461 -9.35671,-0.33461c-3.05257,0 -7.71247,-5.00268 -7.71247,-5.00268z" fill="#381c1c" stroke="#000000" stroke-width="2.5"></path>
      <path d="M86.60001,271.3007v-101.58632c0,0 2.33139,-4.06345 3.91833,-4.06345c1.6065,0 5.1445,-0.88771 8.11201,0.18628c2.62522,0.95012 4.80397,3.87717 4.80397,3.87717v101.58632c0,0 -2.19004,2.77491 -4.95043,3.71592c-2.30725,0.78654 -5.10043,-0.23297 -6.51431,-0.23297c-2.12526,0 -5.36956,-3.48296 -5.36956,-3.48296z" fill="#381c1c" stroke="#000000" stroke-width="2.5"></path>
      <path d="M113.10001,240.04091v-57.54392c0,0 1.32062,-2.30176 2.21955,-2.30176c0.91,0 2.91412,-0.50285 4.59508,0.10552c1.48707,0.5382 2.72122,2.19624 2.72122,2.19624v57.54392c0,0 -1.24055,1.57186 -2.80419,2.1049c-1.30695,0.44554 -2.88916,-0.13196 -3.69005,-0.13196c-1.20386,0 -3.04161,-1.97293 -3.04161,-1.97293z" fill="#381c1c" stroke="#000000" stroke-width="2.5"></path>
      <path d="M467.38586,360.89999c-2.43565,0 -7.2474,1.75627 -11.22203,0.40132c-4.75526,-1.62106 -8.52797,-6.40132 -8.52797,-6.40132v-175c0,0 3.75326,-5.04235 8.27567,-6.67909c5.11204,-1.85014 11.20687,-0.32091 13.97433,-0.32091c2.73378,0 6.75,7 6.75,7v175c0,0 -5.58888,6 -9.25,6z" fill="#381c1c" stroke="#000000" stroke-width="2.5"></path>
      <path d="M424.42339,313.55201c-2.0308,0 -6.04273,1.46434 -9.3567,0.33461c-3.96484,-1.35161 -7.11046,-5.33729 -7.11046,-5.33729v-145.91156c0,0 3.12939,-4.20421 6.90008,-5.5689c4.26232,-1.54262 9.34407,-0.26756 11.65153,-0.26756c2.27937,0 5.62802,5.83646 5.62802,5.83646v145.91156c0,0 -4.6599,5.00268 -7.71247,5.00268z" fill="#381c1c" stroke="#000000" stroke-width="2.5"></path>
      <path d="M388.2663,274.78366c-1.41388,0 -4.20707,1.01951 -6.51431,0.23297c-2.7604,-0.94101 -4.95043,-3.71592 -4.95043,-3.71592v-101.58632c0,0 2.17874,-2.92705 4.80396,-3.87717c2.96751,-1.07399 6.50552,-0.18628 8.11201,-0.18628c1.58694,0 3.91833,4.06346 3.91833,4.06346v101.58632c0,0 -3.2443,3.48296 -5.36956,3.48296z" fill="#381c1c" stroke="#000000" stroke-width="2.5"></path>
      <path d="M364.09425,242.01384c-0.80089,0 -2.38311,0.57751 -3.69005,0.13197c-1.56363,-0.53304 -2.80419,-2.1049 -2.80419,-2.1049v-57.54392c0,0 1.23415,-1.65804 2.72122,-2.19624c1.68095,-0.60837 3.68507,-0.10551 4.59508,-0.10551c0.89893,0 2.21955,2.30176 2.21955,2.30176v57.54393c0,0 -1.83775,1.97293 -3.04161,1.97293z" fill="#381c1c" stroke="#000000" stroke-width="2.5"></path>
      <path d="M316.10001,240.0409v-57.54392c0,0 1.32062,-2.30175 2.21955,-2.30175c0.91001,0 2.91413,-0.50286 4.59508,0.10551c1.48707,0.5382 2.72122,2.19624 2.72122,2.19624v57.54393c0,0 -1.24056,1.57186 -2.80419,2.1049c-1.30694,0.44554 -2.88915,-0.13197 -3.69005,-0.13197c-1.20386,0 -3.04161,-1.97294 -3.04161,-1.97294z" fill="#381c1c" stroke="#000000" stroke-width="2.5"></path>
      <path d="M265.10001,240.0409v-57.54392c0,0 1.32062,-2.30175 2.21955,-2.30175c0.91001,0 2.91413,-0.50286 4.59508,0.10551c1.48707,0.5382 2.72122,2.19624 2.72122,2.19624v57.54393c0,0 -1.24056,1.57186 -2.80419,2.1049c-1.30694,0.44554 -2.88915,-0.13197 -3.69005,-0.13197c-1.20386,0 -3.04161,-1.97294 -3.04161,-1.97294z" fill="#381c1c" stroke="#000000" stroke-width="2.5"></path>
      <path d="M215.10001,240.0409v-57.54392c0,0 1.32062,-2.30176 2.21955,-2.30176c0.91001,0 2.91412,-0.50286 4.59508,0.10551c1.48707,0.5382 2.72122,2.19624 2.72122,2.19624v57.54393c0,0 -1.24056,1.57186 -2.80419,2.1049c-1.30695,0.44554 -2.88916,-0.13197 -3.69005,-0.13197c-1.20386,0 -3.04161,-1.97293 -3.04161,-1.97293z" fill="#381c1c" stroke="#000000" stroke-width="2.5"></path>
      <path d="M161.10001,240.0409v-57.54392c0,0 1.32062,-2.30176 2.21955,-2.30176c0.91,0 2.91413,-0.50286 4.59508,0.10551c1.48707,0.5382 2.72122,2.19624 2.72122,2.19624v57.54393c0,0 -1.24055,1.57186 -2.80419,2.1049c-1.30695,0.44554 -2.88915,-0.13197 -3.69005,-0.13197c-1.20386,0 -3.04161,-1.97293 -3.04161,-1.97293z" fill="#381c1c" stroke="#000000" stroke-width="2.5"></path>
    </g>
  </g>
</svg>
