<?xml version="1.0" encoding="UTF-8"?>
<svg xmlns="http://www.w3.org/2000/svg" xmlns:xlink="http://www.w3.org/1999/xlink" version="1.1" width="197.01245" height="143.50429" viewBox="0,0,197.01245,143.50429">
  <g transform="translate(-145.26081,-119.29156)">
    <g stroke="none" stroke-miterlimit="10">
      <g stroke-width="0.5">
        <path d="M181.45344,171.68166c0.05811,-0.62838 0.34399,-1.18083 0.76859,-1.58339c0.07091,-0.30344 0.14416,-0.60484 0.21968,-0.90405c-0.08569,-0.29342 -0.11859,-0.60758 -0.08875,-0.93042c0.05675,-0.61372 0.33078,-1.15502 0.7391,-1.55498c0.65933,-7.06328 3.20789,-13.0531 6.65302,-19.21269c0.8374,-1.49721 1.91497,-4.09641 3.08742,-5.4056c0.67006,-0.74821 4.34535,-3.53876 5.21149,-4.36313c2.38893,-2.27369 4.62761,-4.9285 7.16209,-7.02571c3.21674,-2.66176 7.29337,-4.65744 10.84875,-6.84364c0,0 1.47122,-0.90466 2.71992,0.01272c4.98885,-1.8991 10.10404,-1.92107 15.29313,-2.84097c7.24876,-1.28503 15.68243,-3.38586 22.66392,0.47082c0.94362,0.52128 1.57294,1.48055 2.43207,2.13171c2.1898,1.65969 4.87484,2.57505 7.11599,4.10598c1.78481,1.21921 3.30265,2.79481 5.04586,4.07282c2.01863,1.82334 4.86804,3.54971 6.70648,5.44406c0.76674,0.79005 1.13223,1.89204 1.78132,2.78128c2.5401,3.47989 5.48552,6.44218 7.45109,10.35009c1.76797,3.51506 2.34312,7.43154 3.75936,11.05497c0.91262,2.33495 2.00325,4.64596 2.43703,7.11511c1.23476,7.0285 -0.0985,14.7616 -0.77921,21.82594c-2.87893,9.7974 -8.27218,18.54336 -15.12667,26.07966c-0.73154,0.80431 -4.29354,3.4915 -5.21155,4.36315c-0.8906,0.84563 -3.19677,3.73209 -4.03162,4.42562c-3.09038,2.56725 -6.79622,3.50297 -10.27641,5.24525c-0.96396,0.48259 -1.76122,1.30218 -2.78172,1.64959c-1.82287,0.62058 -3.82675,0.63117 -5.62252,1.32625c-5.37115,0.4309 -9.38983,0.34694 -14.29265,-0.87996l-0.8508,0.18148c-8.87918,-2.44094 -17.57483,-4.0958 -25.53368,-9.03967c-3.69081,-2.31104 -5.97327,-4.97512 -8.64028,-8.27128c-1.34967,-1.66806 -2.17794,-1.62544 -3.88656,-2.88071c-2.85402,-2.09672 -6.28415,-4.86177 -8.56437,-7.60663c-7.03769,-8.47174 -8.15335,-21.22034 -6.21722,-32.07571c-0.16009,-0.37137 -0.23216,-0.78695 -0.1923,-1.21798zM231.95378,226.93935l2.79798,0.30746c0.30793,0.09175 0.60994,0.17858 0.9068,0.26068l1.91383,-0.50329c0,0 2.17422,-0.50804 2.89331,1.49087c2.52793,0.31912 4.98951,0.29812 8.06372,0.09996c1.62843,-0.6385 3.45407,-0.62627 5.11252,-1.18222c0.81448,-0.27304 1.40134,-1.00567 2.16773,-1.39375c3.11454,-1.57713 6.53879,-2.31421 9.30733,-4.61408c1.44457,-1.20002 2.40575,-2.89562 3.76698,-4.18942c1.53432,-1.45832 3.48526,-2.4645 4.90136,-4.0379c6.22008,-6.91096 11.28107,-14.80793 13.98732,-23.74376c0.56867,-6.47332 1.89005,-13.6148 0.75824,-20.04426c-0.37681,-2.14056 -1.38502,-4.122 -2.17167,-6.1481c-1.34959,-3.47601 -1.87687,-7.26612 -3.5718,-10.62906c-1.84391,-3.6585 -4.6834,-6.38214 -7.03673,-9.66168c-0.48753,-0.6794 -0.68028,-1.56742 -1.26202,-2.16812c-1.73025,-1.78663 -4.40527,-3.35656 -6.32303,-5.09679c-1.63583,-1.19929 -3.05142,-2.68865 -4.72629,-3.83279c-2.29874,-1.5703 -5.0397,-2.50993 -7.28452,-4.22758c-0.68225,-0.52203 -1.12919,-1.3421 -1.87544,-1.76764c-5.70859,-3.25526 -13.44056,-0.9341 -19.31325,0.09059c-4.84017,0.84452 -9.76339,0.7323 -14.38016,2.5827c0,0 -1.26592,0.4931 -2.29485,-0.1809c-3.23201,1.94893 -6.95295,3.74586 -9.83036,6.1471c-2.45735,2.05069 -4.62701,4.63011 -6.95714,6.83991c-1.53594,1.45661 -3.46927,2.47902 -4.9013,4.03787c-0.56969,0.62014 -2.32617,4.26328 -2.50397,4.5805c-3.24858,5.796 -5.47559,11.26424 -6.11586,17.90906c-3.05515,10.3971 -3.76144,24.90191 3.72651,33.91565c2.75609,3.31767 6.54308,5.54429 9.8787,8.1386c3.78891,2.94685 5.75958,6.9556 10.00482,9.56773c3.31218,2.05746 6.12801,2.80116 9.70386,4.23728c2.68719,1.07922 5.10312,2.42465 8.00878,2.98267c0.59343,0.11397 1.19236,0.20788 1.79098,0.30338c0.47719,-0.10587 0.85763,-0.0707 0.85763,-0.0707z" fill="#c19e4b"></path>
        <path d="M231.08975,227.05963c-0.59862,-0.09551 -1.19928,-0.18967 -1.79272,-0.30363c-2.90565,-0.55802 -5.32965,-1.90548 -8.01683,-2.9847c-3.57585,-1.43612 -6.40113,-2.18419 -9.71331,-4.24166c-4.24524,-2.61213 -6.22662,-6.62946 -10.01551,-9.5763c-3.33563,-2.5943 -7.12982,-4.83066 -9.8859,-8.14833c-7.48798,-9.01375 -6.78754,-23.55101 -3.73239,-33.94811c0.64028,-6.64482 2.87363,-12.13069 6.12222,-17.92669c0.1778,-0.31723 1.93711,-3.96463 2.5068,-4.58477c1.43204,-1.55886 3.36935,-2.58599 4.90529,-4.04261c2.33013,-2.20979 4.50713,-4.79557 6.96447,-6.84625c2.87743,-2.40125 6.60832,-4.20365 9.84033,-6.15258c1.02893,0.67399 2.29676,0.18016 2.29676,0.18016c4.61676,-1.85041 9.55429,-1.7411 14.39444,-2.58562c5.87268,-1.02469 13.62316,-3.34337 19.33176,-0.0881c0.74625,0.42554 1.19532,1.24636 1.87757,1.76839c2.24482,1.71765 4.99318,2.66083 7.29192,4.23113c1.67487,1.14413 3.09541,2.63684 4.73124,3.83612c1.91777,1.74023 4.59877,3.31552 6.32901,5.10215c0.58174,0.6007 0.77613,1.49051 1.26366,2.16993c2.35332,3.27953 5.19943,6.01298 7.04334,9.67149c1.69494,3.36292 2.22616,7.16342 3.57574,10.63943c0.78665,2.02611 1.79604,4.0138 2.17286,6.15435c1.13182,6.42947 -0.19095,13.59034 -0.75963,20.06366c-2.70625,8.93585 -7.78076,16.85561 -14.00083,23.76658c-1.41609,1.57339 -3.37168,2.58353 -4.90601,4.04186c-1.36122,1.29379 -2.32673,2.9923 -3.77128,4.19232c-2.76854,2.29988 -6.2016,3.04114 -9.31613,4.61826c-0.76639,0.38808 -1.35545,1.12146 -2.16994,1.39449c-1.65843,0.55595 -3.48878,0.54492 -5.1172,1.18343c-3.07422,0.19816 -5.54323,0.2201 -8.07115,-0.09902c-0.71909,-1.99891 -2.89604,-1.4908 -2.89604,-1.4908l-1.91568,0.50325c-0.29686,-0.0821 -0.59976,-0.16897 -0.90769,-0.26072l-2.80069,-0.30769c0,0 -0.38127,-0.03528 -0.85846,0.07061z" fill="#ffce66"></path>
      </g>
      <path d="M218.04657,195.71916c7.49755,5.94654 19.79697,10.81055 29.30699,7.45649c0.42845,-0.21729 0.8569,-0.43455 1.28535,-0.65184l1.17868,-0.99403c0,0 0.89747,-0.74775 1.76828,-0.13153l1.04518,-1.42309c0.48699,0.28086 0.97399,0.56173 1.46098,0.8426c3.91539,2.25814 8.97138,4.60281 11.61416,8.39829c1.2743,1.8301 1.68668,5.09304 -0.80801,6.49434c-2.62731,1.47581 -8.25247,-2.00602 -10.74236,-3.66998c1.287,3.37094 1.53225,7.28273 -3.18012,7.67111c-2.36455,0.19489 -5.65552,-1.91211 -7.14136,-3.63182c-0.45176,-0.52287 -1.24762,-1.86783 -1.65819,-2.7269c-0.15376,0.34279 -0.34667,0.66442 -0.44313,0.91588c-1.76097,2.99051 -5.84085,6.13511 -9.18533,2.83152c-0.27806,-0.27467 -1.16927,-2.90024 -1.37371,-3.47994c-0.09657,-0.27382 -0.18867,-0.79111 -0.22793,-1.24095c-0.42613,0.36072 -1.20257,0.66662 -1.67107,0.83402c-2.22397,0.79468 -6.46906,1.63588 -7.98048,-1.13103c-0.44038,-0.80619 -0.45322,-1.64717 -0.22613,-2.47187c-3.42876,1.18744 -7.08563,1.99868 -10.31102,-0.0477c-1.80464,-1.14498 -2.32383,-2.79438 -1.9361,-4.32798c-2.3519,0.23796 -4.71002,0.11742 -6.79479,-0.92423c-2.224,-1.11123 -3.54238,-2.0054 -1.74044,-4.79812c0.16823,-0.26073 3.12554,-1.34962 3.66199,-1.49421c3.6809,-0.99208 7.50031,-1.7971 11.26344,-2.39768c0,0 0.47719,-0.07573 0.93288,0.1296c0.88602,-0.82785 1.90216,-0.03098 1.90216,-0.03098z" fill="#292f33" stroke-width="0.5"></path>
      <path d="M286.99226,167.95872l-0.07524,-0.05081l-0.50522,0.55812c-0.51011,0.57593 -1.27831,0.90946 -2.1031,0.83319c-1.37484,-0.12712 -2.38633,-1.34471 -2.25921,-2.71956c0.03866,-0.4181 0.17817,-0.8026 0.39228,-1.1317l0.18466,-0.29728l-0.26365,-0.31737l0.95208,-0.79091l0.47144,-0.75895c0,0 1.03912,-1.67283 2.75754,-1.12685c0.05795,0.00134 0.11624,0.00469 0.17481,0.01011c1.37484,0.12712 2.38633,1.34471 2.25921,2.71955c-0.05266,0.56948 -0.2924,1.07661 -0.65292,1.46631l-0.05119,0.05656c-0.2931,1.015 -1.28148,1.54958 -1.28148,1.54958z" fill="#363636" stroke-width="0.5"></path>
      <path d="M212.98586,162.62745c0.98616,0.09118 1.78537,0.7434 2.11153,1.61228c0.79436,0.47994 1.28901,1.3852 1.19783,2.37138c-0.09876,1.06809 -0.85565,1.91687 -1.83312,2.18285l2.1977,0.18486c-0.61543,5.80883 -4.04096,13.99495 -11.31074,13.13494c-1.50814,-0.17842 -3.17274,-0.48256 -4.30308,-1.49679c-4.34394,-3.89774 -0.32109,-10.25369 0.355,-14.65627c-0.46591,0.01725 -2.41817,-0.04243 -2.64914,-2.22982c-0.26252,-2.48619 2.22367,-2.74869 2.22367,-2.74869c2.98898,-0.25583 5.21053,0.22996 7.56814,1.23279c1.07378,0.06672 2.26938,-0.22128 3.17319,0.34042c0.09339,0.05805 0.18515,0.11816 0.27537,0.18017c0.31133,-0.09998 0.64751,-0.14015 0.99367,-0.10814z" fill="#714c19" stroke-width="0.5"></path>
      <path d="M267.20595,174.99618c-0.27627,2.98793 -0.68286,7.16643 -2.28085,9.81385c-2.88988,4.78773 -11.12146,6.91038 -14.45683,1.31116c-0.65821,-1.10496 -0.40592,-2.54049 -0.56855,-3.81633c-0.41452,-3.25207 -0.06533,-6.20631 0.2396,-9.43344c-0.23937,0.1171 -0.46912,0.25141 -0.688,0.405c0,0 -2.1296,1.3095 -3.43911,-0.8201c-1.3095,-2.1296 0.82011,-3.43911 0.82011,-3.43911c1.07178,-0.60884 2.00367,-1.60009 3.21533,-1.82651c3.39402,-0.63425 7.86203,0.64906 11.43277,0.37892l2.86996,0.94353c0,0 1.04219,0.45786 1.4111,1.45892c0.63148,0.41286 1.05791,1.10085 1.12449,1.8776l0.30621,2.90023l-0.08969,0.00948z" fill="#714c19" stroke-width="0.5"></path>
      <path d="M280.11848,182.72564c-0.61528,1.06323 -1.23057,2.12647 -1.84586,3.1897c-1.10053,1.10012 -2.37599,2.10128 -3.77857,2.98543c-2.22522,2.2615 -4.18437,4.72929 -7.30567,5.82956c-7.48249,2.63759 -19.79206,1.59729 -24.57743,-5.87012c-1.97219,-3.07752 -2.71413,-8.5523 -2.92654,-12.10181c-0.18297,-3.05761 0.22676,-5.30974 -1.34573,-7.97419c0,0 -0.04364,-0.07942 -0.09916,-0.21632c-0.41587,-0.13077 -1.07817,-0.42973 -1.46733,-1.07058l0.00004,-0.00001c-1.02021,-0.48031 -2.27258,-0.75238 -2.81462,0.27888c-0.22943,0.4365 -0.33881,0.90692 -0.38611,1.39549c0.51681,0.87253 0.23725,1.78599 0.01062,2.27379c0.00674,0.41197 -0.00309,0.82025 -0.06045,1.21642c-2.26745,7.22552 -4.95356,12.76905 -12.27033,16.04206c-6.87027,3.07328 -13.02666,2.07438 -19.92632,-0.14186c-2.37448,-0.76271 -4.06371,-1.23874 -5.90018,-3.039c-2.59538,-2.54421 -4.03164,-5.61086 -4.70326,-8.95432l0.29584,-2.08287c0.09201,-0.68316 0.29562,-1.45653 0.54,-2.28256c-1.03937,-0.8349 -0.83031,-2.30681 -0.83031,-2.30681l0.28042,-1.6291c0.67931,-1.92966 0.99961,-4.55733 2.44589,-6.12761c-0.37642,0.13183 -0.76331,0.23887 -1.14558,0.34912c-0.1724,0.04972 -0.3468,0.09247 -0.52231,0.13133l-1.11506,0.83769l-0.04479,-0.05963c-0.09534,0.09403 -0.19351,0.18558 -0.29476,0.27435c-1.04689,0.91775 -2.63105,0.90745 -3.95149,1.35267l-3.01872,1.2739c-0.41321,0.18291 -0.88105,0.25606 -1.36141,0.18784c-1.36699,-0.19416 -2.31776,-1.45972 -2.12361,-2.82671c0.11456,-0.80658 0.60212,-1.46825 1.26343,-1.83533l0.00277,-0.00402c-0.37667,-0.064 -0.75228,-0.13146 -1.12622,-0.197c0.11438,-0.39547 0.22875,-0.79095 0.34312,-1.18641l-0.00001,-0.00001c0,0 0.21222,-0.72981 0.80505,-1.26761c0.0026,-0.0068 0.00524,-0.01359 0.0079,-0.02036c-0.01772,-0.19083 -0.01363,-0.38675 0.01451,-0.5848c0.14034,-0.9881 0.84046,-1.75872 1.73405,-2.03669l2.41306,-0.80652l0.01424,0.04263c0.05144,-0.03161 0.10339,-0.06257 0.15582,-0.09284c0.02531,-0.01461 3.3268,-0.61504 5.55712,-1.01953c-0.79008,-0.99109 -1.46224,-2.13586 -1.66817,-3.36907c-1.04051,-6.23124 4.18898,-8.37446 9.08157,-8.97699c-2.32887,-3.68156 1.53683,-11.85751 6.63812,-12.05685c1.19845,-0.04683 2.05935,1.23838 3.14556,1.74696c1.01323,0.4744 2.26298,0.49561 3.13665,1.19447c1.14852,0.91873 1.96771,2.21234 2.70978,3.48218c0.42826,0.73286 0.77097,1.54665 0.92048,2.38499c1.96711,-1.54265 4.78449,-2.26161 7.24063,-1.6653c5.30604,1.28822 5.39938,6.53163 7.75763,10.16616c1.52569,2.35139 3.6584,3.59916 5.62746,5.55302l1.95447,1.35076c0.23069,0.15239 0.43321,0.34137 0.60041,0.55752c1.36026,0.01917 2.72041,0.12049 4.06519,0.30619l1.23906,0.46811c1.26079,-0.74467 2.60282,-1.88105 3.74635,-3.1451l0.96341,-1.39398l0.08875,0.06134c0.07953,-0.16018 0.16712,-0.31685 0.26404,-0.46946c0.16782,-0.26427 0.35941,-0.50482 0.5702,-0.7263c0.14119,-0.24117 0.26973,-0.48093 0.38391,-0.71767c1.0233,-2.12177 0.931,-4.66029 3.46513,-5.97675c2.48183,-1.28929 7.5656,-0.3963 9.23002,1.91699c0.57129,0.79401 -0.95635,1.78121 -1.00148,2.75835c-0.01444,0.31281 0.61577,-0.1515 0.88823,-0.30583c0.59748,-0.33842 1.09083,-0.84729 1.70159,-1.16112c1.00445,-0.51615 2.10135,-0.83255 3.12138,-1.31723c2.7315,-1.2979 4.34778,-3.76663 6.81428,-5.17765c1.46863,-0.84018 3.15924,-2.38858 4.74582,-1.80072c5.16632,1.91424 2.85922,5.86168 1.98946,8.78352c-0.51967,0.90428 -0.92269,1.88648 -1.559,2.71284c-0.24432,0.31728 -1.22985,0.29494 -1.0194,0.63562c0.22022,0.35648 0.81269,-0.20481 1.21655,-0.31646c0.75603,-0.20898 1.51319,-0.41477 2.26292,-0.64534c3.7525,-1.15409 8.97725,-2.72682 10.60918,2.90915c0.43033,1.48616 -0.58449,3.06339 -1.19434,4.48534c-0.54376,1.26785 -1.26913,2.28173 -2.12721,3.094c0.55946,0.93745 1.25223,1.83812 1.34959,2.90299c0.11357,1.24229 -0.70276,2.39391 -1.0469,3.59296c-0.39671,1.38217 -0.06002,3.24336 -1.17564,4.15065c-1.24433,1.01198 -3.16025,0.63309 -4.76346,0.67944c-0.28013,0.00809 -0.81891,-0.75249 -0.65856,-0.52264c1.82196,2.6116 0.58401,4.93342 -0.44746,7.84917c-0.50595,1.4302 -1.07614,2.71597 -1.74471,3.89696zM244.91815,166.61484c0.07692,3.20912 0.47422,5.49414 1.03145,8.54501c0.45089,2.46865 0.34278,4.87089 1.57234,7.19553c2.40183,4.54097 7.89684,5.74448 12.52396,5.47405c4.14418,-0.24221 7.55362,-0.49533 10.73736,-2.25432c0.19048,-0.20246 0.38312,-0.40253 0.5795,-0.59843c1.85147,-1.36654 3.23759,-2.89053 4.31269,-4.62814l0.79626,-2.28985c0,0 0.25794,-0.73271 0.89468,-1.23751c0.27997,-0.76049 0.52974,-1.55599 0.75748,-2.38948c0.5155,-1.88664 -1.25297,-4.20008 -0.2237,-5.86314c0.84028,-1.35769 2.72226,-1.77893 4.2703,-2.17003c0.76226,-0.19257 1.61754,0.89453 2.30297,0.5094c0.47703,-0.26802 -0.44304,-1.06126 -0.3586,-1.60187c0.10605,-0.67891 0.85511,-1.19637 0.91764,-1.86168c-0.55534,-0.20926 -0.90523,-0.55473 -1.12417,-0.92855c-1.50243,0.40888 -3.10173,0.61283 -4.68942,0.72817c-0.51561,0.64906 -1.27391,0.90249 -1.27391,0.90249l-1.96455,0.54002c-9.99985,0.21783 -19.86844,-1.03731 -29.78546,-2.43618c-0.00421,0.05544 -0.01053,0.11004 -0.01866,0.16367l0.36984,0.71358c0,0 0.22758,2.18239 -1.78826,2.67123c0.15143,0.4492 0.16025,0.81603 0.16025,0.81603zM201.82176,158.51697c-0.67453,0.96859 -1.65,1.72253 -2.44035,2.59998c-0.1254,0.7301 -0.6235,1.44459 -1.08492,2.16299c-0.00675,0.49124 0.06978,1.0069 -0.04132,1.47918c-0.20753,0.88225 -0.8032,1.65599 -0.93708,2.55238c-1.27182,8.51535 5.5916,13.34954 12.96971,14.57567c2.34384,0.38952 2.34431,-0.62433 4.6797,-0.97248c1.09259,-0.16287 2.23688,0.2097 3.3138,-0.03635c1.58082,-0.36119 2.81237,-1.61596 4.24116,-2.38277c2.55647,-2.61158 4.51058,-4.37534 5.7097,-7.87532l0.6933,-1.1064c0.26233,-1.84678 0.63609,-4.20302 0.91883,-4.58035c0.26509,-0.3538 0.54324,-0.66756 0.83237,-0.94415c-0.18113,-0.41186 -0.25332,-0.87767 -0.1854,-1.35589c0.06822,-0.48035 0.26875,-0.90932 0.55947,-1.25526l1.12846,-1.39119l0.53798,-0.93615c-1.08246,0.17132 -2.17846,0.21356 -3.48343,0.12695c-1.41612,1.86315 -3.38284,0.50393 -3.38284,0.50393c-2.32165,-1.72052 -4.50882,-1.54412 -7.39557,-1.95755c-5.40335,-0.77384 -10.78955,-0.47566 -16.22434,-0.1768c-0.1326,0.56938 -0.4092,0.9696 -0.4092,0.9696z" fill="#292f33" stroke-width="0.5"></path>
      <g stroke-width="0.5">
        <path d="M250.25928,193.54693c1.82588,3.117 0.79817,8.43167 -2.14063,10.67493c-1.67488,1.27849 -5.62128,2.53554 -7.98706,1.03732c-0.49312,0.40954 -0.99722,0.75455 -1.49028,0.98738c-5.63637,2.66151 -11.70853,-1.61665 -15.4894,-5.81319c-0.61062,0.10689 -1.22039,0.17063 -1.8271,0.07767c-4.55043,-0.69714 -7.07111,-4.78853 -6.06133,-9.27481c0.78079,-3.46891 4.09758,-5.1508 6.91958,-6.55638c0,0 1.29949,-0.63854 2.40653,0.04522c0.67637,-0.91612 1.33479,-1.78537 1.89545,-2.57923c2.51727,-3.56434 4.33442,-7.73721 6.5774,-11.48302l0.38956,-0.13545c-0.00335,-0.35148 0.05082,-0.59605 0.05082,-0.59605c0.35515,-1.23932 0.1889,-2.77256 1.06542,-3.71794c2.62077,-2.82668 6.4968,-3.43428 9.38309,-0.43989c0.89345,0.92692 0.51297,2.5232 0.76943,3.7848l0.05698,1.84017c0,0 0.01464,0.54299 -0.22283,1.1296c0.22545,0.62803 0.17071,1.21078 0.17071,1.21078c-0.50685,5.16868 0.92237,10.94694 1.21741,16.46612c1.50188,0.8831 3.61765,2.14944 4.31623,3.34202zM228.94361,196.04042c-0.09215,-0.08773 -0.18103,-0.17808 -0.26625,-0.27074c0.01315,0.07033 0.02243,0.13962 0.02817,0.20779c0.06698,0.08304 0.13857,0.16782 0.21562,0.25514c0.00158,-0.01699 0.00325,-0.03393 0.00505,-0.05083c0.00505,-0.04734 0.01085,-0.09448 0.0174,-0.14136z" fill="#ff924c"></path>
        <path d="M223.78011,184.87603c0.052,-0.05291 0.10455,-0.10522 0.15768,-0.15692c0,0 0.00364,-0.00349 0.0107,-0.00982c0.18252,-0.18428 0.45984,-0.3702 0.8321,-0.36256c0.16623,-0.00935 0.34707,0.01893 0.53288,0.1119c0.17279,0.06557 0.34421,0.17814 0.48134,0.36596c0.12331,0.13985 0.19466,0.29077 0.23188,0.43936c0.06485,0.19414 0.06529,0.37828 0.03234,0.54279c-0.02408,0.2486 -0.12348,0.44143 -0.24957,0.5893c-0.62493,1.28242 -0.41565,2.27403 -0.73751,3.7912l0.13774,-0.4651c0,0 0.67177,1.05413 -0.38236,1.72592c-1.05413,0.67177 -1.72593,-0.38236 -1.72593,-0.38236l-0.3107,-0.93763c-0.45029,-0.17432 -0.75552,-0.59308 -0.79348,-1.06455l-0.12799,-1.22943l0.19771,-0.02058l-0.17483,-0.37922c0.23149,-0.41317 0.48493,-0.81723 0.76084,-1.20531c-0.00507,-0.23038 0.01725,-0.45758 0.06228,-0.66083z" fill="#863528"></path>
        <path d="M247.74762,194.79633l-1.35458,1.01972c0,0 -0.58084,0.37017 -1.15499,0.12977c-0.16764,-0.01911 -0.35132,-0.07927 -0.54974,-0.19814c-1.07229,-0.64242 -0.42986,-1.71471 -0.42986,-1.71471l0.50195,-0.71303c-0.10276,-0.68658 -0.04366,-1.39109 0.07278,-2.08308c-0.00708,-0.15133 0.01859,-0.31818 0.09303,-0.49929c0.01605,-0.07956 0.03254,-0.15888 0.04929,-0.23789c0,0 0.27037,-1.22042 1.49079,-0.95003c0.74672,0.16544 0.93533,0.68653 0.96926,1.06613c1.39085,1.20336 1.36436,2.25966 0.31208,4.18052z" fill="#863528"></path>
      </g>
      <g>
        <g fill="#242424">
          <path d="M234.06565,241.09189c-2.71173,4.88501 1.52043,8.26283 -0.96822,13.03927c-1.68176,3.22777 -5.41183,3.67384 -7.69127,3.65862c-5.09998,-2.24641 -6.27091,-8.46744 -10.83004,-11.32344c-3.20287,-2.0064 -6.63462,-1.79209 -10.66279,-1.27504c-0.25278,0.18265 -0.86802,0.56656 -1.45457,0.46512c-5.71473,3.0824 -11.09809,4.62316 -16.97786,6.45584c-5.01679,-0.06197 -10.14718,-0.02953 -14.69653,-1.46705c-7.85265,-2.4813 -14.19983,-12.17973 -16.32624,-20.55539c-1.14948,-4.63348 -0.17322,-8.43748 1.49531,-13.45671c0.71006,-2.13595 -0.05354,-4.24977 0.78956,-6.36609c0.75826,-1.90328 4.50404,-6.06921 5.8763,-7.56532c3.60216,-3.9273 7.93285,-6.56903 12.239,-9.27153c5.20366,-3.26575 9.82693,-6.46845 15.36167,-7.20172c2.57499,-0.78174 4.14425,-0.31705 6.55497,-0.25982c12.20815,0.28978 17.04157,9.5876 22.55613,18.73271c0.26931,0.02583 0.4426,0.10346 0.4426,0.10346c4.18089,2.0595 11.68569,-1.01676 16.67602,-0.79462c6.92836,0.30842 10.64547,7.95053 12.14593,14.30608c-0.00772,0.05697 -0.01539,0.11393 -0.02298,0.17082c-0.4333,0.45373 -0.59094,1.03361 -0.59094,1.03361c-0.35942,1.36676 -0.53303,2.75077 -0.51458,4.05942l0.21954,1.33342c-0.43024,2.29249 -1.09079,4.51676 -2.35878,6.67729c-0.16118,0.0991 -0.26259,0.18517 -0.26259,0.18517c-1.52875,1.29774 -4.30824,3.65724 -5.83698,4.95497c0,0 -0.41203,0.34977 -0.6502,0.86103c-1.74201,0.78246 -3.45499,1.59482 -4.51251,3.4999zM219.8035,245.4996c2.38234,2.84111 3.72332,6.93204 7.1729,8.51835c5.45144,0.338 2.17506,-5.59444 2.30719,-8.44039c0.05597,-1.20546 1.32276,-4.76737 1.94571,-5.8441c2.58238,-4.46348 6.39334,-3.85659 9.18619,-6.87263c4.05814,-4.38248 3.86381,-8.35414 4.64636,-13.33732c-1.29832,-4.63618 -4.25338,-11.70188 -9.65439,-11.67912c-5.62291,0.0237 -12.84284,2.60242 -17.69134,0.57248c0,0 -0.15826,-0.07089 -0.33225,-0.23155c-0.69809,-0.02523 -1.0601,-0.63144 -1.0601,-0.63144c-4.9913,-8.4792 -9.37291,-17.48477 -20.59105,-17.75104c-2.14776,-0.05097 -3.49144,-0.60118 -5.75057,0.17569c-5.09924,0.67556 -9.25591,3.63632 -14.06171,6.65277c-3.88802,2.44039 -7.92322,4.82153 -11.15663,8.36427c-1.05375,1.15459 -4.29589,4.57328 -4.8684,6.00492c-0.79575,1.98983 -0.00219,3.95831 -0.63964,5.96998c-1.34472,4.24364 -2.40067,7.24023 -1.36314,11.21547c1.13289,4.46238 3.29956,7.64138 5.92826,10.89116c2.50703,3.09936 4.69739,6.65121 8.75445,7.85492c4.21282,1.24993 8.81837,1.20441 13.39305,1.3827c5.60969,-1.86925 10.69303,-3.23814 16.17771,-6.27855l1.60411,-0.76084c0,0 0.94998,-0.44733 1.56432,0.01444c5.75442,-0.60295 10.91766,-0.04919 14.48899,4.20984z" stroke-width="0.5"></path>
          <path d="M219.83784,245.54404c-3.57134,-4.25903 -8.75833,-4.8077 -14.51277,-4.20475c-0.61433,-0.46177 -1.56812,-0.01414 -1.56812,-0.01414l-1.60818,0.76101c-5.48465,3.04041 -10.59675,4.4062 -16.20645,6.27545c-4.57465,-0.17829 -9.19867,-0.13945 -13.41149,-1.38938c-4.05707,-1.20371 -6.26369,-4.7666 -8.77072,-7.86596c-2.62871,-3.24977 -4.80731,-6.4462 -5.9402,-10.90858c-1.03753,-3.97524 0.01718,-6.9911 1.36189,-11.23474c0.63745,-2.01167 -0.15226,-3.99005 0.64348,-5.97988c0.5725,-1.43164 3.8226,-4.86072 4.87637,-6.01531c3.2334,-3.54274 7.28859,-5.93737 11.17661,-8.37776c4.80579,-3.01646 8.98744,-5.98457 14.08668,-6.66014c2.25912,-0.77687 3.61163,-0.22769 5.75939,-0.17672c11.21816,0.26627 15.65293,9.2815 20.64422,17.7607c0,0 0.36528,0.60793 1.06336,0.63316c0.17399,0.16066 0.33332,0.23215 0.33332,0.23215c4.84849,2.02994 12.08394,-0.53623 17.70686,-0.55993c5.40102,-0.02276 8.36612,7.06521 9.66443,11.70139c-0.78254,4.98318 -0.59448,8.97795 -4.65261,13.36042c-2.79285,3.01603 -6.61709,2.42272 -9.19948,6.8862c-0.62295,1.07673 -1.89904,4.64436 -1.95501,5.84982c-0.13213,2.84594 3.13338,8.78307 -2.31806,8.44507c-3.44959,-1.58631 -4.85988,-5.76585 -7.24223,-8.60696z" stroke-width="0.25"></path>
          <path d="M329.99275,253.59507l-0.1619,0.22565c0.04667,0.04374 0.09086,0.09868 0.13149,0.16671c0.36086,0.60428 -0.18955,1.18691 -0.33486,1.32491l-0.31911,0.77467c0,0 -0.23033,0.40433 -0.59822,0.57535c-0.32207,0.46381 -0.62766,0.86937 -0.76379,0.94774c-0.87187,0.50188 -4.75089,-0.31334 -5.39564,-0.81056c-0.5524,-0.42598 -0.64094,-1.85928 -0.83683,-2.78684l-0.53259,1.13063c-4.17137,3.48281 -6.45025,0.12478 -8.61792,-1.97593c0,0 -0.22821,-0.22408 -0.21383,-0.59114c-0.2117,-0.1339 -0.32737,-0.28116 -0.32737,-0.28116l-1.04833,-1.33466c-0.94101,-1.21172 -1.59076,-2.55592 -2.44382,-3.80575c-0.63744,-0.07195 -0.96744,-0.62457 -0.96744,-0.62457l0.01613,-0.04962c-3.36242,-3.33773 -3.38066,-11.38778 2.74208,-15.47379c0.55602,-0.37106 1.29255,-0.64008 2.04357,-0.84994c0.43697,-0.25088 0.8217,-0.30185 0.8217,-0.30185c2.54667,-0.1492 5.17569,-3.91756 7.421,-5.82693l1.48497,-1.01716c0,0 0.82659,-0.55524 1.52374,-0.33813c0.67283,-0.76114 1.16155,-1.69824 1.97102,-2.26973c2.54681,-1.79814 5.0474,0.46391 5.34582,2.6715l-0.19155,0.95761c0,0 -0.1483,0.54546 -0.58386,0.80483c0.79977,0.20725 1.59989,0.42055 2.3945,0.64442c0.03344,-0.05678 0.05736,-0.08999 0.05736,-0.08999l0.00002,0.00001c0.71916,-0.9965 1.73344,-2.593 2.85352,-3.1054c2.37631,-1.08707 5.85273,1.85772 5.13478,4.15395l-0.1905,0.73223c0,0 -0.17796,0.65463 -0.71663,0.8706c0.2623,0.12516 0.52126,0.25376 0.77659,0.38609l0.34741,0.06264c0,0 1.0793,0.28827 0.9523,1.46706c0.71374,0.46908 0.46458,1.63999 0.46458,1.63999c-1.41667,6.43261 -5.31879,13.59933 -9.38585,19.25067l-1.45263,1.34017c0,0 -0.2054,0.17438 -0.5067,0.33081c-0.28955,0.56758 -0.73931,0.94936 -0.73931,0.94936l-0.0979,0.04022c-0.01865,0.02843 -0.03729,0.05689 -0.05593,0.08532zM329.68786,255.18865c-0.00787,0.01201 -0.01637,0.025 -0.02544,0.03888l-0.00363,0.00884zM314.3895,233.38256c-5.04039,1.10626 -7.21269,6.55851 -4.27833,9.7375c0.58177,0.06062 0.9188,0.50022 0.9188,0.50022c1.0852,1.42896 1.78267,3.03172 2.89084,4.42344l0.93492,1.19031c4.89511,-0.24481 9.53539,0.50804 14.21439,1.00854c0.28665,-0.49611 0.66957,-0.82115 0.66957,-0.82115l0.54861,-0.35868c3.51968,-4.88419 7.19901,-11.34775 8.42969,-16.95174l-0.43735,-0.13235c-4.62496,-2.43372 -10.65376,-3.58334 -15.82651,-4.94152c0,0 -0.13981,-0.03733 -0.31285,-0.14009c-2.30749,1.97742 -4.10316,4.16059 -6.32132,5.52922c-0.5623,0.76336 -1.43051,0.95631 -1.43051,0.95631z" stroke-width="0.5"></path>
          <path d="M314.33606,233.34761c0,0 0.87807,-0.19861 1.44038,-0.96197c2.21815,-1.36864 4.05538,-3.56115 6.36286,-5.53856c0.17304,0.10276 0.31414,0.14007 0.31414,0.14007c5.17277,1.35819 11.26502,2.53058 15.88998,4.9643l0.43819,0.13325c-1.23071,5.60399 -4.94029,12.13863 -8.45998,17.02282l-0.55143,0.35957c0,0 -0.38712,0.32619 -0.67377,0.8223c-4.679,-0.5005 -9.37883,-1.25537 -14.27394,-1.01056l-0.94144,-1.19274c-1.10818,-1.39171 -1.82932,-3.0103 -2.91449,-4.43926c0,0 -0.34,-0.44306 -0.92176,-0.50368c-2.93437,-3.17899 -0.74915,-8.68929 4.29122,-9.79555z" stroke-width="0.25"></path>
          <path d="M314.30246,230.15544c1.72723,2.52464 -1.60138,9.54627 -3.38008,12.41668c-0.60996,0.98434 -1.09692,2.23091 -2.02874,2.83234c-1.74969,1.12934 -5.00194,0.25643 -6.71255,0.21688l-1.78448,-0.04237c0,0 -1.19052,-0.02826 -1.26493,-1.1709c-4.61372,-0.7641 -9.35432,-1.29255 -13.96116,-2.00446c-12.90463,-0.3191 -24.85226,-3.46265 -37.47565,-4.63733c-0.6752,0.39196 -1.32522,0.24615 -1.32522,0.24615l-1.1802,-0.29282c-2.31769,-0.0765 -5.16659,-0.3146 -5.68921,-3.13016c-0.15812,-0.852 0.38366,-1.89865 0.6107,-2.84916c0.78669,-3.29364 2.733,-9.88024 6.3044,-11.62983c1.63431,-0.80062 4.5098,0.3127 6.04309,0.80827c12.9411,1.97376 25.93107,3.77439 38.86662,5.78067c5.93001,0.92028 11.93273,1.51079 17.87062,2.36459c-0.01838,0.0531 -0.03641,0.10633 -0.05411,0.15967c1.81612,-0.05834 4.40879,-0.16752 5.16087,0.93181z" stroke-width="0.25"></path>
        </g>
        <g stroke-width="0.5">
          <g>
            <path d="M196.62752,239.86289c-0.61433,-0.46177 -1.56948,-0.01212 -1.56948,-0.01212l-1.6099,0.76286c-5.48465,3.04041 -10.60755,4.40528 -16.21726,6.27454c-4.57464,-0.17828 -9.19488,-0.14966 -13.40769,-1.39958c-4.05704,-1.20372 -6.25208,-4.77418 -8.75912,-7.87353c-2.62871,-3.24977 -4.79423,-6.44628 -5.92712,-10.90866c-1.03753,-3.97524 0.02255,-6.98603 1.36725,-11.22966c0.63745,-2.01167 -0.15313,-3.98692 0.6426,-5.97673c0.57252,-1.43164 3.81904,-4.85828 4.87282,-6.01287c3.2334,-3.54274 7.27911,-5.93774 11.16712,-8.37813c4.80579,-3.01645 8.9797,-5.99176 14.07891,-6.66732c2.25912,-0.77687 3.61076,-0.23114 5.75852,-0.18017c11.21815,0.26627 15.65449,9.27543 20.64576,17.75464c0,0 0.3647,0.60885 1.06281,0.63408c0.17397,0.16067 0.33307,0.23246 0.33307,0.23246c4.84851,2.02995 12.07843,-0.52798 17.70134,-0.5517c5.401,-0.02278 8.35645,7.06521 9.65477,11.7014c-0.78257,4.98317 -0.59337,8.97315 -4.65148,13.35563c-2.79283,3.01605 -6.61028,2.42187 -9.19264,6.88535c-0.62295,1.07673 -1.89499,4.64635 -1.95096,5.8518c-0.13212,2.84594 3.13702,8.78685 -2.31442,8.44884c-3.44959,-1.58631 -4.79047,-5.67732 -7.17284,-8.51843c-3.57134,-4.25903 -8.75763,-4.79564 -14.51206,-4.19269z" fill="#781616"></path>
            <g>
              <g>
                <path d="M235.22432,223.40908c-0.08256,0.02653 -0.16134,0.04782 -0.23653,0.06432c-5.30407,2.54013 -10.84674,2.03966 -14.48467,-1.18127c-2.11272,-1.87055 -3.43121,-4.91143 -5.98381,-6.19182c-7.24107,-1.90635 -15.25291,3.35923 -22.78541,2.58785c-6.71615,-0.68778 -8.83504,-5.68004 -13.5155,-9.24048c-7.29569,-4.4748 -13.94316,6.73345 -21.13496,9.59875c-4.77617,1.90289 -9.30918,1.17769 -10.2567,-3.65141c0,0 -0.2246,-1.34366 0.91317,-2.22547c0.2132,-0.33799 0.4324,-0.55494 0.4324,-0.55494c2.12633,-2.00739 3.08735,-4.83882 5.21504,-7.08525c7.76887,-8.20244 17.63984,-15.89625 27.44409,-18.28197c4.35804,-0.49978 8.54061,-1.55632 12.24382,0.22616c7.91842,3.8114 9.36991,15.03745 16.83484,18.89666l0.64255,0.20045c0.28009,-0.02914 0.47024,0.00781 0.47024,0.00781c8.08425,1.59732 19.93137,-4.46103 24.36705,4.24858c1.33998,2.63111 1.33597,6.46463 1.54921,9.66303l0.01318,0.51942c0,0 0.01241,0.56836 -0.28227,1.17006l0.13648,0.29536c-0.20325,0.12631 -0.40726,0.24796 -0.61187,0.36497c-0.23972,0.23268 -0.55518,0.43576 -0.97038,0.56918zM232.18602,213.34315c-3.73356,-7.1068 -15.80837,-1.66548 -22.67291,-2.98035c0,0 -0.00193,-0.00037 -0.00559,-0.00117c-0.38822,0.03915 -0.66484,-0.05297 -0.66484,-0.05297l-1.1187,-0.38861c-7.50198,-3.94824 -8.97217,-15.02783 -16.77331,-18.86567c-3.12276,-1.53627 -6.84064,-0.43807 -10.52321,-0.02325c-8.84748,2.11105 -17.97859,9.50286 -24.9555,16.8565c-2.05398,2.16489 -2.98229,4.59051 -4.91646,6.75966c1.0978,2.4416 5.30874,1.71052 7.88476,-0.06306c2.42259,-1.66796 4.53862,-4.14712 6.93327,-5.89564c5.14136,-3.75409 10.94885,-5.11323 15.25199,-2.65952c4.30966,3.28024 6.24563,8.22417 12.35868,8.83729c7.81424,0.78373 15.80796,-4.49849 23.4776,-2.42614c5.68659,3.04093 8.69737,11.60037 16.88351,8.11612c-0.10853,-2.47299 -0.17059,-5.33122 -1.1593,-7.2132z" fill="#783232"></path>
                <path d="M233.40004,220.56293c-8.18615,3.48425 -11.30984,-5.0741 -16.99643,-8.11503c-7.66965,-2.07235 -15.6504,3.25506 -23.46466,2.47131c-6.11303,-0.61312 -7.96351,-5.57694 -12.27317,-8.85719c-4.30313,-2.4537 -10.09881,-1.11414 -15.24018,2.63996c-2.39465,1.74852 -4.5065,4.21601 -6.92909,5.88398c-2.576,1.77359 -6.89953,2.50162 -7.99732,0.06003c1.93416,-2.16914 2.86578,-4.60458 4.91978,-6.76947c6.97692,-7.35365 16.13722,-14.78349 24.9847,-16.89453c3.68259,-0.41482 7.42085,-1.52422 10.54361,0.01206c7.80114,3.83784 9.33356,14.95597 16.83554,18.90422l1.11881,0.39144c0,0 0.2766,0.09302 0.66484,0.05387c0.00368,0.00079 0.00558,0.00118 0.00558,0.00118c6.86455,1.31486 18.93783,-4.11171 22.67139,2.9951c0.98871,1.882 1.04804,4.75009 1.15659,7.22306z" fill="#a14343"></path>
              </g>
              <path d="M230.24128,213.4562c-0.52116,1.9171 -2.21108,1.87698 -2.21108,1.87698l0.22939,-0.0688c-2.76059,0.75636 -6.31556,1.71746 -8.47653,0.25391c-1.49275,-1.01096 -1.71645,-2.58729 -3.68995,-2.96321c-3.73723,-0.71191 -8.0216,1.85835 -11.85493,0.86871c-2.49097,-0.6431 -3.61731,-2.9829 -5.99608,-3.64964c0,0 -0.226,-0.06946 -0.45383,-0.2606c-0.07638,0.00636 -0.12063,0.0053 -0.12063,0.0053l-1.87715,-0.04751c-2.78081,-0.46734 -4.4554,-0.98084 -5.39282,-3.89192c-0.99703,-3.09627 0.73475,-9.81786 -4.29229,-8.7064c-3.82772,2.41983 -6.46013,3.35482 -10.43199,3.94914c-2.61379,0.3911 -4.95499,-0.32209 -7.59766,1.48586c-4.93664,3.37732 -6.88779,9.94431 -12.28372,12.05081c-2.01712,0.78746 -2.78419,0.4663 -4.65247,0.30993c0,0 -1.6564,-0.15264 -1.03693,-2.06406c0.61951,-1.91143 2.27591,-1.7588 2.27591,-1.7588c4.82091,0.49543 5.28884,-2.23879 8.45238,-6.2405c1.39182,-1.76055 4.20228,-4.18702 6.02158,-5.39313c4.40552,-2.92066 8.85964,-1.82477 13.30688,-2.78729c1.85184,-0.4008 3.87336,-2.09502 5.61558,-3.12497c0.95025,-0.16984 1.96285,-0.61576 2.85076,-0.50951c7.41408,0.8871 1.86615,11.96509 8.39244,12.85698l1.69184,0.03722c0,0 0.48666,0.01156 0.85713,0.31853c0.27135,-0.0021 0.4506,0.05299 0.4506,0.05299c2.31505,0.75627 3.5049,3.04438 5.88314,3.61776c3.73622,0.90077 7.96169,-1.63977 11.71737,-0.90016c2.32358,0.45758 2.98965,2.01599 4.60124,3.34585c1.23684,1.02061 4.50108,-0.11498 6.11379,-0.56396l0.73925,-0.05669c0,0 1.68994,0.04011 1.16878,1.95721z" fill="#b17878"></path>
            </g>
            <g>
              <path d="M195.71985,223.13743c-0.0751,0.35748 -0.20272,0.62473 -0.20272,0.62473c-1.90071,3.96915 -5.30028,11.71856 -4.91382,15.63934c0.0741,0.75172 3.27993,-0.18327 3.63494,-0.24572c4.59552,-0.80848 9.57209,-1.33352 14.04978,-1.58227c3.85745,-0.43996 7.58735,-1.07462 11.47492,-1.87609c1.09845,-0.22647 2.19589,-0.10996 3.28769,-0.59649c0.48465,-0.21597 1.61908,-0.72061 1.32957,-1.04593c-0.55502,-0.62369 -1.57512,-0.61753 -2.24316,-1.10577c-4.29155,-3.13655 -9.18041,-5.44358 -14.35777,-7.16692c-3.69343,-1.23582 -7.8961,-2.30441 -12.05944,-2.64489zM193.09715,221.9473l1.61886,-2.75042c5.0949,0.13394 10.3306,1.37209 14.8942,2.88518c5.41183,1.8031 10.52032,4.22068 15.00907,7.50107c0.86384,0.63129 3.22318,2.05719 3.28431,3.10025c0.13091,2.2337 -2.3727,4.82646 -4.12617,5.80998c-0.52518,0.29459 -3.70716,0.84297 -4.32195,0.96921c-4.02316,0.82606 -7.89231,1.48311 -11.88287,1.93531c-4.34546,0.19748 -9.26254,0.7511 -13.73945,1.54182c-2.39753,0.42346 -5.50637,1.2272 -6.58119,-1.36141c-0.31632,-0.76185 0.14301,-1.87125 0.2142,-2.80682c0.37509,-4.92807 2.67937,-11.09532 4.992,-15.94966c0,0 0.22334,-0.46767 0.63897,-0.87453z" fill="#868686"></path>
              <path d="M207.80255,225.71891c5.17736,1.72332 10.09955,4.09402 14.3911,7.23057c0.66803,0.48825 1.68726,0.48527 2.24226,1.10895c0.28949,0.32532 -0.84601,0.83333 -1.33069,1.0493c-1.09178,0.48653 -2.19054,0.37354 -3.289,0.60001c-3.88755,0.80146 -7.64138,1.47028 -11.49883,1.91025c-4.47771,0.24874 -9.54067,0.76203 -14.13619,1.5705c-0.35501,0.06246 -3.56221,0.99085 -3.63631,0.23912c-0.38646,-3.92077 3.03352,-11.7321 4.93424,-15.70124c0,0 0.12915,-0.26898 0.20425,-0.62645c4.16332,0.34047 8.42569,1.38314 12.11911,2.61897z" fill="#a2a2a2"></path>
            </g>
            <path d="M196.59268,226.25883c2.02589,-2.92462 3.22387,-8.86782 3.73228,-11.95661c0.16857,-1.02417 1.07066,-2.48838 0.4627,-3.06744c-0.49197,-0.46859 -1.88099,-0.76277 -3.14755,-0.98551c-1.01176,5.15607 -2.56909,9.78059 -5.50402,14.62222l-0.16857,0.29634c1.1608,0.58859 3.97884,2.02406 4.62515,1.09102zM194.85895,207.58092c0.84245,-1.87199 2.39738,-1.45669 2.39738,-1.45669c1.46434,0.39148 5.47279,0.85142 6.41034,2.11112c2.35994,3.17087 -1.09691,11.08523 -2.5703,15.19103c-0.33915,0.94506 -1.57597,4.33012 -2.31598,5.07854c-3.41506,3.45387 -6.50522,1.16483 -9.21812,0.09857l-1.10758,-0.7337c0,0 -1.00336,-0.70102 -0.38277,-2.04071c0.10453,-0.34319 0.24488,-0.58954 0.24488,-0.58954l1.0206,-1.78947c2.64892,-4.35501 4.00002,-8.48962 4.88412,-13.14826c0,0 0.11284,-0.58979 0.50945,-1.13726c-0.16476,-0.34863 -0.19943,-0.85613 0.12795,-1.58362z" fill="#343434"></path>
            <path d="M191.92677,225.22434l0.1683,-0.29652c2.93493,-4.84163 4.54064,-9.58566 5.5524,-14.74174c1.26656,0.22274 2.68185,0.5196 3.17382,0.98819c0.60795,0.57907 -0.28295,2.05051 -0.45152,3.07467c-0.50841,3.08879 -1.75181,9.14687 -3.77767,12.07149c-0.64632,0.93305 -3.50453,-0.5075 -4.66535,-1.09609z" fill="#434343"></path>
            <path d="M211.50069,232.1598c-1.43842,-0.6443 -0.40958,-2.45033 -0.40958,-2.45033l0.39971,-0.68739c2.09992,-4.38889 3.82202,-8.5541 3.20817,-12.79039c0,0 -0.2424,-1.7542 1.5094,-2.52856c0.17327,-0.0766 0.33178,-0.12845 0.47673,-0.15971c0.97292,-1.57448 2.33157,-1.04047 2.33157,-1.04047c1.26006,0.49548 2.50807,1.01409 3.73772,1.56463l0.34306,0.15365c0,0 0.99568,0.44597 0.73779,1.63591c1.16708,3.64441 0.70843,8.55183 -1.36487,12.75817c-1.35797,2.7551 -3.7293,5.67414 -6.60961,5.78285c-0.94844,0.03581 -1.66331,-0.57579 -2.49498,-0.86369l-0.87975,-0.29115c0,0 -0.74668,-0.24867 -0.8736,-1.03802c-0.03695,-0.01356 -0.07422,-0.02869 -0.11175,-0.0455zM215.31941,229.8787c5.00459,2.37174 6.1512,-9.07685 4.97914,-12.37608c-0.64652,-0.28506 -1.29813,-0.56122 -1.9538,-0.82989c0.05024,4.31091 -1.53594,8.5147 -3.65511,12.9951z" fill="#343434"></path>
            <path d="M214.65968,229.72969c2.11915,-4.48038 3.74221,-8.80912 3.69197,-13.12004c0.65567,0.26866 1.32781,0.54535 1.97435,0.83041c1.17206,3.29923 -0.02521,14.8738 -5.02978,12.50205z" fill="#434343"></path>
            <g>
              <path d="M175.87097,238.57114c-0.78554,0.4552 -1.04931,-0.29298 -1.04931,-0.29298c-1.39533,-4.24482 4.21195,-8.51966 7.39261,-6.18384c1.41776,1.04116 1.07542,4.15723 -0.69506,5.71628c-1.99752,1.75901 -4.11026,1.64662 -5.64825,0.76053zM176.49476,235.48335c0.06045,0.11033 0.08112,0.20637 0.08112,0.20637l0.20009,1.10087c1.14227,0.85293 5.34765,0.15411 4.49302,-2.45409c-0.61687,-1.88257 -3.98955,-0.84901 -4.77423,1.14686z" fill="#868686"></path>
              <path d="M181.32725,234.30985c0.85461,2.6082 -3.46502,3.36957 -4.60728,2.51664l-0.20225,-1.12963c0,0 -0.0197,-0.1012 -0.08014,-0.21154c0.78469,-1.99586 4.2728,-3.05804 4.88968,-1.17548z" fill="#a2a2a2"></path>
            </g>
            <g>
              <path d="M161.89034,228.18303c-0.02779,-0.00265 -0.04336,-0.00566 -0.04336,-0.00566c-4.46233,-1.35494 1.99865,-7.83298 5.34761,-6.55684c2.36972,0.90299 2.86231,4.00881 0.03173,6.41167c-1.79729,1.52571 -3.32006,1.17894 -4.91714,0.79163zM162.20534,226.235c0.63427,-0.36706 0.9676,0.19113 0.9676,0.19113l0.35816,0.70096c0.9623,0.10576 1.81258,0.41778 2.86877,-0.47883c1.77,-1.50254 0.96259,-3.67364 -0.83556,-3.4687c-0.97992,0.11169 -4.15067,2.65291 -3.35897,3.05542z" fill="#868686"></path>
              <path d="M165.58163,223.11568c1.79814,-0.20494 2.6295,2.06167 0.8595,3.56421c-1.0562,0.8966 -1.99342,0.60539 -2.95573,0.49963l-0.37018,-0.7237c0,0 -0.33453,-0.57247 -0.96879,-0.20541c-0.79171,-0.40252 2.45528,-3.02306 3.4352,-3.13476z" fill="#a2a2a2"></path>
            </g>
            <g>
              <path d="M163.93628,237.62041c-2.26751,-3.26834 5.89472,-8.43096 7.38207,-3.3153c1.28873,4.43242 -5.82937,7.66686 -7.33176,3.77376zM165.42781,235.79998c0.16733,0.18213 0.19503,0.44588 0.19503,0.44588l0.09212,0.92779c0.42702,1.46851 3.8735,0.89832 4.09261,-1.07081c0.47068,-4.22971 -3.60363,-1.31836 -4.37976,-0.30287z" fill="#868686"></path>
              <path d="M169.86386,236.10422c-0.21911,1.96913 -3.77941,2.56856 -4.20644,1.10007l-0.09239,-0.95338c0,0 -0.02488,-0.27465 -0.19221,-0.45677c0.77612,-1.01548 4.96171,-3.91961 4.49103,0.3101z" fill="#a2a2a2"></path>
            </g>
            <g>
              <path d="M172.75952,229.57189c-0.32125,0.04656 -0.54792,-0.1323 -0.54792,-0.1323c-3.8492,-3.34653 3.37055,-8.23889 6.22853,-5.59095c3.04618,2.8223 -2.14125,7.75198 -5.21749,6.46545zM173.20308,227.56189c0.55787,-0.23901 0.85011,0.25038 0.85011,0.25038l0.50123,0.89212c1.38208,0.7216 3.9887,-2.16371 2.55395,-3.24606c-1.35697,-1.02369 -5.58329,0.56838 -3.90529,2.10358z" fill="#868686"></path>
              <path d="M177.1633,225.41965c1.43475,1.08235 -1.25068,4.06964 -2.63275,3.34804l-0.5291,-0.91056c0,0 -0.29919,-0.511 -0.85706,-0.27201c-1.678,-1.5352 2.66195,-3.18916 4.01891,-2.16547z" fill="#a2a2a2"></path>
            </g>
            <path d="M225.36759,239.60794c-2.71175,4.885 1.52043,8.26283 -0.96821,13.03927c-1.68176,3.22777 -5.41183,3.67385 -7.69127,3.65862c-5.09998,-2.24641 -6.27091,-8.46744 -10.83004,-11.32344c-3.20284,-2.00639 -6.63462,-1.79209 -10.66277,-1.27504c-0.25278,0.18265 -0.86804,0.56656 -1.45457,0.46512c-5.71473,3.0824 -11.09809,4.62316 -16.97786,6.45584c-5.01679,-0.06197 -10.14718,-0.02953 -14.69653,-1.46705c-7.85265,-2.4813 -14.19983,-12.17973 -16.32624,-20.55539c-1.14948,-4.63348 -0.17322,-8.43748 1.49531,-13.45671c0.71005,-2.13595 -0.05356,-4.24977 0.78956,-6.36609c0.75823,-1.90328 4.50404,-6.06921 5.8763,-7.56532c3.60216,-3.9273 7.93285,-6.56903 12.239,-9.27153c5.20366,-3.26575 9.82693,-6.46845 15.36167,-7.20172c2.57499,-0.78174 4.14425,-0.31705 6.55497,-0.25982c12.20815,0.28978 17.04157,9.5876 22.55613,18.73271c0.26931,0.02583 0.4426,0.10346 0.4426,0.10346c4.18089,2.0595 11.68569,-1.01676 16.67602,-0.79462c6.92836,0.30842 10.64547,7.95053 12.14593,14.30608c-0.00772,0.05697 -0.01539,0.11393 -0.02298,0.17082c-0.4333,0.45373 -0.59094,1.03361 -0.59094,1.03361c-0.35942,1.36676 -0.53303,2.75077 -0.51458,4.05942l0.21954,1.33342c-0.43024,2.29249 -1.09079,4.51676 -2.35878,6.67729c-0.16118,0.0991 -0.26259,0.18517 -0.26259,0.18517c-1.52875,1.29774 -4.30824,3.65724 -5.83698,4.95497c0,0 -0.41203,0.34977 -0.6502,0.86103c-1.74201,0.78246 -3.45499,1.59482 -4.51251,3.4999zM211.10544,244.01566c2.38234,2.84111 3.72332,6.93204 7.17291,8.51835c5.45144,0.338 2.17503,-5.59445 2.30719,-8.44039c0.05597,-1.20546 1.32277,-4.76737 1.94571,-5.8441c2.58238,-4.46348 6.39334,-3.85659 9.18619,-6.87263c4.05814,-4.38248 3.86381,-8.35414 4.64636,-13.33732c-1.29832,-4.63618 -4.25338,-11.70188 -9.65439,-11.67912c-5.62291,0.0237 -12.84284,2.60242 -17.69134,0.57248c0,0 -0.15826,-0.07089 -0.33225,-0.23155c-0.69809,-0.02523 -1.0601,-0.63144 -1.0601,-0.63144c-4.9913,-8.4792 -9.37291,-17.48477 -20.59105,-17.75104c-2.14776,-0.05097 -3.49143,-0.60117 -5.75057,0.17569c-5.09924,0.67556 -9.25591,3.63632 -14.06171,6.65277c-3.88802,2.44039 -7.92322,4.82153 -11.15663,8.36427c-1.05375,1.15459 -4.29589,4.57328 -4.8684,6.00492c-0.79575,1.98983 -0.00219,3.95831 -0.63964,5.96998c-1.34472,4.24364 -2.40067,7.24023 -1.36314,11.21547c1.13291,4.46238 3.29956,7.64138 5.92826,10.89116c2.50703,3.09936 4.6974,6.65121 8.75445,7.85492c4.21282,1.24993 8.81837,1.20441 13.39305,1.3827c5.6097,-1.86925 10.69303,-3.23814 16.17771,-6.27855l1.60411,-0.76084c0,0 0.94998,-0.44733 1.5643,0.01444c5.75442,-0.60295 10.91766,-0.04919 14.48899,4.20984z" fill="#4e0e0e"></path>
          </g>
          <g>
            <path d="M311.32335,252.32602l0.11034,-0.60037c-1.62399,-0.13613 -3.26341,-0.21616 -4.93034,-0.18481c1.22144,1.37563 2.71052,2.63905 4.87552,0.96286c-0.04234,-0.09884 -0.05554,-0.17768 -0.05554,-0.17768zM321.29469,252.11113l-0.1619,0.22565c0.04667,0.04374 0.09086,0.09868 0.13149,0.16671c0.36086,0.60428 -0.18955,1.18691 -0.33486,1.32491l-0.31911,0.77467c0,0 -0.23032,0.40433 -0.59822,0.57535c-0.32207,0.46381 -0.62766,0.86937 -0.7638,0.94774c-0.87185,0.50188 -4.75089,-0.31334 -5.39564,-0.81056c-0.5524,-0.42598 -0.64095,-1.85929 -0.83685,-2.78685l-0.53259,1.13063c-4.17137,3.48281 -6.45025,0.12478 -8.61792,-1.97593c0,0 -0.2282,-0.22407 -0.21383,-0.59114c-0.2117,-0.1339 -0.32737,-0.28116 -0.32737,-0.28116l-1.04833,-1.33466c-0.94102,-1.21172 -1.59076,-2.55592 -2.44382,-3.80575c-0.63744,-0.07195 -0.96744,-0.62457 -0.96744,-0.62457l0.01613,-0.04962c-3.36242,-3.33773 -3.38066,-11.38778 2.74209,-15.47379c0.55602,-0.37106 1.29255,-0.64008 2.04357,-0.84994c0.43695,-0.25088 0.8217,-0.30185 0.8217,-0.30185c2.54667,-0.1492 5.17569,-3.91756 7.421,-5.82693l1.48497,-1.01716c0,0 0.82659,-0.55524 1.52373,-0.33813c0.67283,-0.76114 1.16157,-1.69823 1.97102,-2.26973c2.54681,-1.79814 5.0474,0.46391 5.34584,2.67151l-0.19156,0.9576c0,0 -0.1483,0.54546 -0.58385,0.80483c0.79977,0.20725 1.59989,0.42055 2.3945,0.64442c0.03344,-0.05678 0.05736,-0.08999 0.05736,-0.08999l0.00002,0.00001c0.71916,-0.9965 1.73343,-2.593 2.85352,-3.1054c2.37631,-1.08707 5.85273,1.85772 5.13478,4.15395l-0.1905,0.73223c0,0 -0.17796,0.65463 -0.71662,0.87061c0.2623,0.12516 0.52126,0.25376 0.77659,0.38609l0.34741,0.06264c0,0 1.0793,0.28827 0.95229,1.46706c0.71374,0.46908 0.46458,1.63999 0.46458,1.63999c-1.41667,6.43261 -5.31878,13.59933 -9.38585,19.25067l-1.45263,1.34017c0,0 -0.2054,0.17438 -0.5067,0.33081c-0.28955,0.56758 -0.73931,0.94936 -0.73931,0.94936l-0.0979,0.04022c-0.01865,0.02843 -0.03729,0.05689 -0.05593,0.08532zM315.10954,253.64429c1.59235,0.82789 3.00736,1.15774 4.21481,-0.29924c0.00755,-0.16459 0.01856,-0.33013 0.03252,-0.49635c-0.03417,-0.0809 -0.04916,-0.16533 -0.05075,-0.24943c-1.51183,-0.16204 -3.01986,-0.35425 -4.5342,-0.53047c0.12593,0.71929 0.27505,1.54296 0.33765,1.5755zM320.98978,253.7047c-0.00787,0.01201 -0.01635,0.025 -0.02544,0.03888l-0.00363,0.00884zM330.0189,225.64809l0.28119,-1.00294c0.3044,-0.45101 -1.92531,-2.06076 -2.6486,-2.32305c-0.60703,-0.22012 -1.7034,1.35924 -2.22805,2.13534c1.5762,0.48181 3.11437,1.01838 4.56686,1.64643c-0.03195,-0.23301 0.02861,-0.45578 0.02861,-0.45578zM320.35307,222.50801l0.1229,-0.19917c-0.19842,-3.51574 -2.38345,-1.81589 -4.1157,-0.25479c1.3007,0.3411 2.63844,0.6717 3.98501,1.01351c-0.07212,-0.26572 0.00778,-0.55957 0.00778,-0.55957zM305.69145,231.89862c-5.04039,1.10626 -7.21269,6.55851 -4.27833,9.7375c0.58178,0.06062 0.91881,0.50023 0.91881,0.50023c1.08517,1.42896 1.78265,3.03172 2.89084,4.42344l0.93493,1.19031c4.89512,-0.24481 9.53539,0.50804 14.21439,1.00854c0.28665,-0.49611 0.66957,-0.82115 0.66957,-0.82115l0.54861,-0.35868c3.51969,-4.88419 7.19901,-11.34775 8.42969,-16.95174l-0.43735,-0.13235c-4.62496,-2.43372 -10.65376,-3.58334 -15.82651,-4.94152c0,0 -0.13981,-0.03733 -0.31285,-0.14009c-2.30749,1.97742 -4.10316,4.16059 -6.3213,5.52923c-0.5623,0.76336 -1.43051,0.95631 -1.43051,0.95631z" fill="#343434"></path>
            <g>
              <path d="M299.02954,240.78634c0.81055,-0.46971 0.67691,-1.8101 1.11861,-2.68609c0.4481,-0.88865 3.00943,-5.90579 2.44919,-6.59183c-0.15099,-0.18492 -1.86571,-0.07527 -3.09423,0.01045c-0.0342,0.14654 -0.06916,0.2925 -0.10519,0.43769c-0.04997,-0.13732 -0.07348,-0.28113 -0.07832,-0.42484c-0.4932,0.03465 -0.88212,0.06221 -1.01469,0.05906c0,0 -0.62535,-0.01485 -0.99792,-0.45801c-5.35435,-0.72693 -10.75139,-1.28804 -16.08913,-2.11547c-12.82907,-1.98975 -25.70321,-3.80121 -38.54401,-5.74006c-0.27779,0.00379 -0.46212,-0.05286 -0.46212,-0.05286c-0.0284,-0.00877 -0.05996,-0.01924 -0.09441,-0.03125c-0.08648,-0.01308 -0.17295,-0.02617 -0.25942,-0.03927c0.00521,-0.01732 0.01014,-0.03452 0.01479,-0.0516c-0.95283,-0.36838 -2.96344,-1.25388 -3.62611,-0.98732c-0.66988,0.26944 -2.03732,3.70079 -2.28075,4.31112c-1.62134,4.06493 -2.38965,5.92891 1.56791,5.9754l0.3426,0.07128c0.04924,-0.05066 0.10862,-0.1155 0.17155,-0.19235c13.42811,1.01035 26.00066,4.50499 39.65221,4.8154c5.76491,0.89695 11.69897,1.51798 17.3963,2.61235l0.88634,0.36837c-0.06331,0.13784 -0.1262,0.27587 -0.18862,0.4141c1.22521,0.21365 2.87038,0.50729 3.23545,0.29575zM305.60442,228.67149c1.72723,2.52464 -1.60139,9.54626 -3.38008,12.41668c-0.60996,0.98434 -1.09692,2.23091 -2.02874,2.83234c-1.74969,1.12934 -5.00194,0.25643 -6.71255,0.21688l-1.78448,-0.04237c0,0 -1.19052,-0.02826 -1.26493,-1.1709c-4.61374,-0.7641 -9.35432,-1.29255 -13.96116,-2.00446c-12.90463,-0.3191 -24.85229,-3.46265 -37.47565,-4.63733c-0.67521,0.39196 -1.32522,0.24615 -1.32522,0.24615l-1.1802,-0.29282c-2.31772,-0.0765 -5.1666,-0.31461 -5.68921,-3.13016c-0.15815,-0.852 0.38366,-1.89865 0.61069,-2.84917c0.78669,-3.29364 2.733,-9.88024 6.30441,-11.62983c1.63433,-0.80062 4.5098,0.3127 6.04308,0.80827c12.9411,1.97376 25.93106,3.77439 38.86662,5.78067c5.93001,0.92028 11.93273,1.51079 17.87062,2.36459c-0.01838,0.0531 -0.0364,0.10634 -0.05411,0.15967c1.81612,-0.05834 4.40879,-0.16752 5.16087,0.93181z" fill="#343434"></path>
              <path d="M295.84452,240.50744c0.06244,-0.13824 0.02415,-0.3092 0.08744,-0.44704l-0.78471,-0.33634c-5.69733,-1.09436 -11.63816,-1.70364 -17.40308,-2.60059c-13.65154,-0.31041 -26.32523,-3.83113 -39.75337,-4.84149c-0.06293,0.07684 -0.0081,0.13813 -0.05731,0.1888l-0.45686,-0.06753c-3.95755,-0.04649 -3.18624,-1.92054 -1.56489,-5.98547c0.24342,-0.61031 1.61398,-4.04902 2.28383,-4.31846c0.66269,-0.26655 2.77525,0.65036 3.72806,1.01874c-0.00467,0.01708 -0.00956,0.03419 -0.01476,0.0515c0.08648,0.01309 0.07105,-0.00532 0.15752,0.00777c0.03447,0.01201 0.06602,0.02248 0.09441,0.03125c0,0 0.18438,0.05649 0.46217,0.05271c12.8408,1.93885 25.82443,3.755 38.65351,5.74476c5.33776,0.82743 10.73297,1.39921 16.08732,2.12615c0.37257,0.44317 0.9977,0.45891 0.9977,0.45891c0.13256,0.00315 0.52153,-0.02455 1.01472,-0.05919c0.00486,0.1437 -0.0847,0.28634 -0.03473,0.42365c0.03605,-0.14521 0.07077,-0.29035 0.105,-0.4369c1.2285,-0.08571 3.05653,-0.19503 3.20751,-0.0101c0.56022,0.68604 -2.00478,5.71427 -2.45288,6.60292c-0.44171,0.87599 -0.31007,2.22086 -1.12061,2.69057c-0.36504,0.21155 -2.01079,-0.08096 -3.23599,-0.29461z" fill="#434343"></path>
            </g>
            <path d="M330.03267,226.13394c-1.45249,-0.62805 -3.08817,-1.20014 -4.66436,-1.68195c0.52466,-0.77609 1.66691,-2.40799 2.27395,-2.18787c0.7233,0.26228 3.01932,1.92826 2.7149,2.37927l-0.29083,1.02698c0,0 -0.06562,0.23055 -0.0337,0.46356z" fill="#888888"></path>
            <path d="M320.39168,223.09171c-1.34657,-0.34182 -2.78623,-0.70064 -4.08691,-1.04175c1.73225,-1.56111 4.02878,-3.25431 4.22719,0.26145l-0.12515,0.20587c0,0 -0.08725,0.30873 -0.01514,0.57443z" fill="#888888"></path>
            <path d="M305.64443,231.87558c0,0 0.8721,-0.19892 1.4344,-0.96228c2.21814,-1.36864 4.0437,-3.57874 6.35119,-5.55615c0.17304,0.10276 0.31406,0.13944 0.31406,0.13944c5.17277,1.35819 11.27154,2.53599 15.89653,4.96972l0.43757,0.13369c-1.23069,5.60399 -4.94344,12.14298 -8.46314,17.02717l-0.55107,0.36052c0,0 -0.38647,0.32748 -0.67313,0.82359c-4.67899,-0.5005 -9.38551,-1.25544 -14.28061,-1.01062l-0.93922,-1.19605c-1.10818,-1.39171 -1.81273,-3.01774 -2.8979,-4.4467c0,0 -0.33717,-0.44288 -0.91894,-0.50351c-2.93437,-3.17899 -0.75014,-8.67258 4.29024,-9.77884z" fill="#434343"></path>
            <path d="M306.94585,243.12504c-2.67547,-3.36189 8.08014,-8.51912 7.04304,-1.83021c-0.68433,4.41382 -6.45659,5.49047 -7.04304,1.83021zM308.99038,243.12372c0.85119,0.9072 3.04935,0.08393 3.25485,-1.6173c0.29045,-2.40445 -2.50138,-1.58839 -3.49996,-0.60153c0.14721,0.28824 0.03964,0.68394 0.03964,0.68394l-0.11926,0.34531c-0.00029,0.00359 -0.0006,0.00719 -0.00089,0.01078c0.039,0.02372 0.08263,0.04615 0.13109,0.06721c0,0 0.59267,0.34824 0.19455,1.11159z" fill="#343434"></path>
            <path d="M311.37647,252.33682c0,0 0.01167,0.08233 0.05401,0.18117c-2.165,1.67619 -3.76027,0.39146 -4.98172,-0.98416c1.66693,-0.03135 3.41845,0.05197 5.04244,0.18809l-0.11476,0.61491z" fill="#888888"></path>
            <path d="M315.05126,253.67084c-0.06259,-0.03254 -0.20417,-0.89897 -0.33009,-1.61827c1.51435,0.17623 3.13081,0.38007 4.64262,0.54211c0.00157,0.08409 0.01514,0.1747 0.04931,0.25559c-0.01392,0.16623 -0.02888,0.34286 -0.03643,0.50745c-1.20745,1.45699 -2.7331,1.14099 -4.32543,0.3131z" fill="#888888"></path>
            <path d="M329.98509,225.06139c0.25189,0.80868 -0.59569,1.3237 -0.59569,1.3237l-0.50889,0.16111c0.48143,3.89106 -2.21513,11.96297 -7.26528,11.15799c-5.32328,-1.10644 -10.30105,-3.3579 -15.79076,-4.25591c-1.50674,0.22519 -3.05357,0.26026 -4.66555,0.47384c0,0 -0.71205,0.09434 -0.74832,-0.58802c-1.83047,-0.02881 -3.65442,0.0127 -5.4822,0.00114c-0.51104,0.82278 -1.19522,0.51631 -1.19522,0.51631l-0.3102,-0.25861c-6.79304,0.79221 -13.76601,-1.59176 -20.00415,-2.80336c-6.19702,-1.22447 -12.8866,-1.13995 -19.11967,-2.24372c-0.42898,0.31825 -0.85151,0.12899 -0.85151,0.12899l-0.95062,-0.43211c-0.34878,-0.05235 -0.69757,-0.10471 -1.04634,-0.15707c-5.68437,-1.27693 -11.28436,-2.93269 -16.99278,-4.04217c0,0 -0.00243,-0.00048 -0.00704,-0.00154c-0.08924,0.01272 -0.17602,0.01057 -0.25719,-0.00631l-0.84365,-0.16396l0.00941,-0.02361l-0.05012,0.01433c-0.4136,-0.13714 -0.8263,-0.27464 -1.23859,-0.41184c-0.96354,0.00077 -1.77875,-0.51272 -2.82027,-0.85956c-1.67705,-0.55848 -3.41162,-0.97248 -5.14399,-1.41266c-0.02704,0.03579 -0.05533,0.07191 -0.08484,0.10832l0.00001,-0.00001c-1.31633,1.62326 -2.49733,0.60252 -2.49733,0.60252l-0.42495,-0.37541c-1.95381,-1.39818 -4.40258,-1.58187 -6.78583,-2.17303c-6.30275,-1.56336 -12.16017,-3.87133 -19.30813,-2.91905c0,0 -1.74664,0.23142 -1.46973,-1.67209c0.27691,-1.90351 2.02357,-2.13491 2.02357,-2.13491c7.56663,-0.99729 13.72799,1.31791 20.39846,2.97154c2.70294,0.67007 5.33632,0.99207 7.58542,2.53403l0.61385,0.52241c0,0 0.16898,0.14605 0.30785,0.41551c1.82049,0.4285 3.59377,0.94653 5.35284,1.50391c0.19557,0.06033 0.39009,0.12238 0.58343,0.1864c1.01471,0.32671 2.0259,0.6647 3.0399,1.00434l0.00573,-0.01275l1.52684,0.40782c0.14228,-0.01536 0.23922,0.00347 0.23922,0.00347c5.70829,1.10945 11.30149,2.76733 16.98641,4.04094c0.38977,0.06219 0.77961,0.1244 1.16939,0.18658l0.51857,0.22933c0.28412,-0.11962 0.53099,-0.07165 0.53099,-0.07165c6.40276,1.26505 13.32673,1.12941 19.75562,2.36086c5.8257,1.13318 12.79978,3.7134 19.20607,2.83867c0.34182,-0.34691 0.77575,-0.3366 0.77575,-0.3366c2.4393,0.0579 4.86238,-0.0301 7.30471,0.02788l1.0197,0.0242c0,0 0.16111,0.00383 0.32092,0.08793c0.34857,-0.4138 0.83554,-0.40224 0.83554,-0.40224l0.93517,0.02689c1.33991,-0.26069 2.85169,-0.31009 4.20185,-0.84117c0.90538,-0.35614 1.79053,-0.94247 2.65229,-1.65957l0.15203,-0.18786c0.07691,-0.44614 0.47633,-0.7852 0.47633,-0.7852c0.78921,-0.66995 1.59729,-1.29533 2.35057,-1.98284c0.56949,-0.63069 1.12531,-1.26753 1.66624,-1.87478l-0.08444,-0.03782l0.72582,-1.27413c0.0784,-0.14284 0.18502,-0.27653 0.31633,-0.38798c0.43174,-0.3665 0.96675,-0.3538 1.19497,0.02837c0.13692,0.22927 0.13231,0.53943 0.0135,0.83005l-0.39822,0.99814l-0.05,-0.00972l-0.0064,0.13241c-0.44656,0.68351 -0.92765,1.28293 -1.43728,1.8348c-0.47852,0.64037 -1.10694,1.26671 -1.63369,1.79063c-0.31965,0.31793 -0.63639,0.61645 -0.95118,0.89706c-0.02721,0.49468 -0.48781,0.88568 -0.48781,0.88568c-0.5765,0.48676 -1.17776,0.93642 -1.79332,1.34368c-0.61643,0.56301 -1.23428,1.00539 -1.85554,1.35571c4.30482,1.11522 8.41329,2.82837 12.74654,3.59245c1.09135,0.27845 1.61366,-0.38437 2.50667,-1.41248c2.7126,-3.12296 1.84504,-5.08694 2.67366,-8.67247l1.33513,-0.95935c0,0 0.8476,-0.51503 1.09949,0.29367z" fill="#1f1f1f"></path>
            <path d="M319.64533,251.05583c-0.84497,-0.02007 -0.58438,-0.97861 -0.58438,-0.97861l0.3282,-0.95435c2.27524,-3.45412 1.79861,-5.541 1.34878,-8.71173c-1.75512,-1.81032 -4.43695,-1.10328 -6.9766,-0.99427c-2.41645,0.10374 -4.76886,0.36078 -7.11067,0.51004c0.15737,0.18841 0.30908,0.38404 0.4549,0.58613c0.03495,0.02904 0.06978,0.05826 0.10449,0.08765c0,0 0.16214,0.14014 0.22179,0.39034c1.567,2.42672 2.33575,5.62441 1.95433,8.42902l0.26104,0.04258c0,0 0.41323,0.69198 -0.36851,1.35559l-0.00001,0.00001c-0.78174,0.66361 -1.19497,-0.02837 -1.19497,-0.02837l-0.44421,-1.1384c0.15765,-0.99599 0.11899,-2.08527 -0.08576,-3.17427c-0.08669,0.04195 -0.18437,0.07516 -0.29439,0.09621l-0.00002,0.00004c-0.87966,0.16833 -0.78986,-0.77555 -0.78986,-0.77555l0.06944,-0.53518c-0.14703,-1.45688 -0.56718,-2.59233 -1.18722,-3.4888c-1.40726,-1.10548 -3.04164,-1.93495 -4.73641,-2.70658c-0.29158,0.01636 -0.58836,0.06074 -0.88956,0.13551c0,0 -0.88294,0.21302 -0.83508,-0.72178c0.00143,-0.02818 0.00365,-0.05571 0.00656,-0.08259c-0.96307,-0.19813 -1.94973,-0.35994 -2.91697,-0.53387c-0.32219,0.19234 -0.63636,0.14362 -0.63636,0.14362l-1.06248,-0.16632c-3.91382,-0.09292 -8.06419,0.87222 -11.78759,0.14854c-6.0764,-1.20063 -13.09448,-4.2037 -19.74597,-3.36965c-5.77886,-1.06215 -11.86544,-0.94249 -17.3395,-2.7463c-0.22414,0.01966 -0.38514,-0.05246 -0.38514,-0.05246l-0.94289,-0.4299c-1.62999,-0.20826 -3.07313,-0.48794 -4.76764,-0.53403c-5.29232,-1.44717 -11.20513,-1.76299 -16.72483,-2.77476c-0.86217,1.17821 -2.05472,0.85968 -2.05472,0.85968l-1.10847,-0.2993c-9.24098,-1.79613 -19.61886,-3.39871 -27.67974,-7.60619c0,0 -1.39023,-0.72565 -0.29715,-2.50056c1.09308,-1.77492 2.48329,-1.04928 2.48329,-1.04928c7.85071,4.09778 18.00541,5.62281 27.00341,7.37171l1.28355,0.3396c0,0 0.75405,0.20141 0.92744,0.95589c5.55945,1.04217 11.47982,1.39603 16.85238,2.79937c1.7551,0.03476 3.25574,0.34548 4.93861,0.56957l1.01324,0.44697c0.17724,-0.01192 0.3006,0.02916 0.3006,0.02916c5.38719,1.794 11.37726,1.52864 17.01877,2.70367c6.70673,-0.94266 13.85401,2.22122 19.97973,3.39458c3.6579,0.71094 7.79388,-0.25979 11.64652,-0.16834l0.30511,0.04691c0.34645,-0.22857 0.69698,-0.16043 0.69698,-0.16043c0.7852,0.15261 1.57894,0.29474 2.3655,0.4459l0.85176,-0.12575c0.44004,0.19709 0.88003,0.39212 1.31801,0.5881c0.59697,0.14535 1.18045,0.30748 1.7428,0.49586c0.8531,0.12484 1.65278,0.42993 2.3872,0.87593c5.75171,-0.27432 14.14767,-2.87776 17.7986,1.09981c0.70321,3.76221 1.07408,6.58496 -1.6241,10.71866l0.01372,0.20242c0,0 -0.26059,0.95855 -1.10556,0.93848z" fill="#1f1f1f"></path>
            <path d="M309.33767,234.02471c-4.19036,-2.0112 2.96613,-8.04426 5.81957,-5.80856c1.7614,1.38007 0.3955,5.46213 -2.05753,6.62493c-1.19933,0.56852 -2.38089,0.01704 -3.3281,-0.29699zM310.19481,232.19638c0.18119,0.00022 0.31888,0.07887 0.41143,0.15765c0.10203,0.07797 0.21541,0.20606 0.25098,0.40327c0.50813,0.20134 1.38692,0.61291 1.95285,0.35114c0.95185,-0.44028 1.92721,-2.63143 1.12526,-3.19553c-1.33708,-0.9405 -5.27226,1.76134 -3.74052,2.28347z" fill="#343434"></path>
            <g>
              <path d="M315.47274,240.42609c-0.02013,-0.02596 -0.03958,-0.05453 -0.05829,-0.08585c-0.41323,-0.69198 0.36851,-1.35559 0.36851,-1.35559l1.06031,-0.79001c1.3744,-0.43772 2.29256,-0.64079 3.36405,-0.59684c-0.87582,-0.9406 -1.3318,-2.20683 -0.93635,-3.38279c-0.18078,-0.29004 -0.06265,-0.72465 -0.06265,-0.72465l0.40394,-0.8603c1.88304,-1.96113 3.26818,-2.58111 5.50602,-2.87229c3.92596,0.16558 4.20045,6.74066 -0.32427,8.94844c-0.87429,0.42661 -1.81837,0.42222 -2.68054,0.13306c0.0826,0.20808 0.14617,0.42621 0.19189,0.65193c1.6874,1.34383 -0.15447,5.01005 -2.29761,6.19379c-0.03231,0.01785 -0.0645,0.0348 -0.09653,0.05088c-1.15346,0.97345 -2.59042,1.38198 -4.04784,0.65522c-2.60977,-1.3014 -2.41602,-4.2082 -0.39063,-5.96501zM317.13586,242.20992c0.36931,0.05781 0.49407,0.4583 0.49407,0.4583l0.16711,0.6706c0.29257,0.14703 1.05628,0.7932 1.55168,0.76582c0.79433,-0.75491 1.3725,-1.96755 1.43828,-3.02063c-0.89985,-0.09001 -3.08166,0.41467 -3.65109,1.12589zM321.62086,234.20285c0.0006,-0.00011 0.00119,-0.00023 0.00179,-0.00035c0.87966,-0.16833 0.78986,0.77554 0.78986,0.77554l-0.34024,0.01915c0.00228,0.00908 0.00444,0.01831 0.00647,0.02771c0.55028,0.33852 1.41539,1.12115 2.19857,0.86873c0.97244,-0.31344 2.42955,-2.16378 1.59777,-2.90145c-0.94272,-0.83606 -4.16433,0.29334 -4.25423,1.21065z" fill="#343434"></path>
              <path d="M317.07938,242.20914c0.56943,-0.71121 2.86122,-1.25692 3.76106,-1.16692c-0.06576,1.05309 -0.6961,2.36857 -1.49042,3.12347c-0.49541,0.02737 -1.31491,-0.64021 -1.6075,-0.78724l-0.17149,-0.69519c0,0 -0.12235,-0.41631 -0.49165,-0.47412z" fill="#888888"></path>
              <path d="M321.56356,234.20548c0.08991,-0.91731 3.42541,-2.08336 4.36815,-1.2473c0.83177,0.73767 -0.6744,2.68073 -1.64686,2.99416c-0.78317,0.25242 -1.71394,-0.56131 -2.26422,-0.89983c-0.00203,-0.0094 0.11217,-0.07299 0.10989,-0.08206l0.22461,0.03876c0,0 0.08987,-0.97239 -0.78978,-0.80407c-0.0006,0.00012 0.11343,-0.00506 0.11283,-0.00494z" fill="#888888"></path>
              <path d="M307.57192,243.90304c-0.24105,0.04857 -0.42467,-0.01258 -0.42467,-0.01258c-3.89362,-1.61247 1.37481,-7.72624 4.64785,-6.8714c4.97568,1.29951 2.06365,9.59999 -3.26599,7.92291l-0.71981,-0.56235c0,0 -0.19965,-0.17258 -0.23738,-0.47659zM308.50627,242.61577c0.36309,-0.0809 0.61937,0.14059 0.61937,0.14059l0.31894,0.33547c3.25223,1.16609 4.45287,-3.384 1.56542,-4.18687c-1.40011,-0.38931 -4.92488,2.76912 -2.94729,3.13536c0,0 0.40863,0.13609 0.44356,0.57544z" fill="#343434"></path>
              <path d="M308.00379,242.05976c-1.97761,-0.36624 1.62629,-3.60786 3.0264,-3.21855c2.88747,0.80287 1.63843,5.47909 -1.6138,4.313l-0.3336,-0.34288c0,0 -0.26762,-0.23611 -0.63068,-0.15521c-0.03493,-0.43936 -0.4483,-0.59636 -0.4483,-0.59636z" fill="#888888"></path>
              <path d="M309.82297,231.22241c0.36055,0.43192 -0.08613,1.11336 -0.08613,1.11336c-1.58063,1.82846 2.04078,2.20556 3.20412,1.5167c3.42314,-2.02704 1.38915,-5.80685 -1.99256,-3.80534c-0.22356,0.26224 -0.44711,0.52448 -0.67067,0.78672zM308.28543,231.72933c-0.03935,-0.04026 -0.07677,-0.08893 -0.11158,-0.14722c-0.41323,-0.69198 0.36851,-1.35559 0.36851,-1.35559l0.75882,-0.63909c0.27358,-0.30808 0.54716,-0.61617 0.82072,-0.92425c1.54097,-0.94938 3.53447,-1.86514 4.9298,-1.1207c2.5226,1.34589 1.34587,6.10967 -1.59488,7.91996c-3.08789,1.90088 -7.19812,0.0538 -5.17137,-3.73313z" fill="#343434"></path>
              <path d="M310.23457,230.80482c0.22356,-0.26224 0.46483,-0.54332 0.68838,-0.80556c3.38172,-2.00151 5.46604,1.87446 2.04291,3.90149c-1.16334,0.68887 -4.86812,0.27294 -3.28749,-1.55552c0,0 0.45509,-0.70841 0.09451,-1.14033z" fill="#888888"></path>
              <path d="M313.92223,233.48065c-0.59049,-0.51037 0.06769,-1.322 0.06769,-1.322l0.21506,-0.19306c0.24886,-0.52855 0.40389,-1.0988 0.44373,-1.63231c0,0 0.08981,-0.94387 0.96946,-1.11218c0.87965,-0.16832 0.78986,0.77555 0.78986,0.77555c-0.08565,0.78463 -0.30886,1.60565 -0.64815,2.38426l-0.589,0.79848c0,0 -0.65818,0.81162 -1.24868,0.30126z" fill="#343434"></path>
            </g>
          </g>
        </g>
      </g>
      <g>
        <path d="M153.89308,209.28329z" fill="#ff9500" stroke-width="0"></path>
        <path d="M177.90497,204.43888c0.23652,0.20794 0.39345,0.42101 0.4917,0.63068c0.31927,-0.24153 0.8932,-0.54624 1.56321,-0.31217c0.23349,-0.47722 0.63793,-0.75666 0.63793,-0.75666c0.70707,-0.48854 1.41413,-0.97708 2.1212,-1.46562l1.63311,-0.70879c0,0 1.62935,-0.66205 2.29141,0.9673c0.31858,0.78402 0.10659,1.34409 -0.19912,1.71419c0.12371,0.2159 0.20966,0.48916 0.23189,0.8349c0.11284,1.7551 -1.64226,1.86793 -1.64226,1.86793l-0.24813,0.00518c-0.52304,0.09241 -1.04609,0.1848 -1.56914,0.27721c-0.16144,0.21889 -0.31309,0.44437 -0.45323,0.67638c0,0 -0.92832,1.49376 -2.42209,0.56545c-0.11111,-0.06905 -0.2088,-0.14122 -0.29447,-0.21567c-0.58135,0.76839 -1.27935,1.81377 -1.74633,2.83432c0.1251,0.39886 0.25019,0.79774 0.37529,1.1966c0,0 0.2282,0.76193 -0.13471,1.41446l0.62139,0.70095c0.40274,-0.0705 0.75692,0.03958 1.03091,0.18928c0.39107,-0.03305 0.76628,-0.15021 1.13584,-0.29881l0.42562,-1.05985c0.34281,-0.38991 2.57951,-2.95973 2.83526,-3.1282c1.71716,-1.13122 3.37198,-0.56368 4.78196,-2.22084c1.55927,-1.83262 2.71776,-6.33396 0.71618,-8.30358c-1.74853,-1.72059 -4.47996,-1.73833 -6.72711,-1.84087c0,0 -0.61287,-0.0285 -1.0978,-0.41379c-1.89021,1.29707 -4.17839,1.41293 -6.28099,2.52212c-3.87078,2.04194 -9.44753,5.72681 -11.12734,9.85974c0,0 -0.52772,1.25009 -1.75414,1.09066c-0.02617,0.30504 -0.10804,0.52095 -0.10804,0.52095l-0.94711,2.49786c0,0 -0.32486,0.85676 -1.12403,1.09899c-0.14213,0.25572 -0.28346,0.51187 -0.42429,0.76825c0,0 -0.49722,0.90471 -1.42292,0.94691c-0.08028,0.14906 -0.15868,0.29896 -0.23527,0.44951c0,0 -0.46812,0.90753 -1.38248,0.98285c-0.19108,0.42563 -0.33938,0.86801 -0.4618,1.34177l0.02861,-0.01305c0.00201,0.03434 0.00412,0.06869 0.00628,0.10305l0.13115,-0.00458c0,0 0.30243,0.74429 -0.00455,1.43119c0.09531,0.85237 0.22246,1.70895 0.36126,2.56566c0.21649,0.07211 0.42244,0.18781 0.60457,0.34795c0.18915,0.16629 0.33404,0.36417 0.43375,0.57881c0.48794,-0.48959 1.2029,-0.53556 1.2029,-0.53556l1.69777,-0.10786c2.37766,-0.32634 3.98292,-0.38555 5.54278,-2.27841c0,0 1.16126,-1.32083 2.48209,-0.15957c1.32083,1.16126 0.15957,2.48209 0.15957,2.48209c-2.31398,2.52494 -4.49572,2.96974 -7.82423,3.45486l-1.8323,0.1191c0,0 -0.98444,0.0633 -1.52616,-0.64221c0.00487,0.12097 0.00684,0.2421 0.00554,0.36289c0.11475,0.062 0.22437,0.13782 0.3265,0.2276c0.25634,0.22537 0.43142,0.50877 0.52286,0.81322l0.54594,1.70913c0.91156,3.07111 2.40915,3.16733 5.34923,2.97357c0,0 0.08935,-0.00575 0.22905,0.00552c0.17611,-0.11664 0.31071,-0.17133 0.31071,-0.17133l0.77462,-0.30916c1.6296,-0.50895 3.71094,-1.3878 5.28369,-1.15242c0.12783,-0.10866 0.26813,-0.19636 0.41605,-0.26278l2.07788,-0.9902c0.13868,-0.07 0.28505,-0.12067 0.43494,-0.15172c2.05685,-1.15382 4.36577,-1.74713 6.28086,-2.8174c-0.05422,-0.03777 -0.10687,-0.07898 -0.15767,-0.12364c-0.59416,-0.52238 -0.75178,-1.35652 -0.44324,-2.04217l0.75326,-1.78441l0.0534,0.02255c0.00168,-0.04907 0.00339,-0.09812 0.00507,-0.14718l0.6962,-1.12689c0.02484,-0.07164 0.05773,-0.15505 0.10047,-0.24397c-0.19476,0.12293 -0.4402,0.21751 -0.74914,0.26573c-1.73768,0.27127 -2.00895,-1.46641 -2.00895,-1.46641l-0.2451,-1.96743c-0.14624,-0.16442 -0.29247,-0.32883 -0.43871,-0.49325c-0.02681,-0.00756 -0.05357,-0.01529 -0.0803,-0.02313c-1.14343,0.69689 -2.12928,-0.36149 -2.12928,-0.36149c-1.40294,-1.50618 -2.80536,-3.01282 -4.20724,-4.51998l-1.35937,-1.19514c-0.72948,-0.64135 -0.80092,-1.75262 -0.15957,-2.48209c0.55264,-0.62858 1.45422,-0.76857 2.15976,-0.38491l0.60813,0.31368c0.41506,-1.26815 0.83012,-2.53628 1.24517,-3.80442l0.76354,-1.08382c0,0 1.16126,-1.32083 2.48209,-0.15957zM196.02747,199.90578c0.97593,2.90061 0.65981,7.78549 -0.94885,10.35805c-0.57482,0.91924 -3.26802,2.85264 -3.45058,4.06641c-0.25533,1.69757 0.82783,3.90654 0.62411,5.80904c-0.34479,3.2199 -1.9464,4.99008 -3.12734,7.78758c-1.45275,1.6803 -2.34227,3.43791 -4.20386,4.73737c-5.16093,3.60255 -10.90191,3.31129 -16.80357,4.42121c-3.55315,0.66822 -7.22153,3.41045 -10.33245,-0.31459c-0.37515,-0.44921 -0.50146,-1.04247 -0.64826,-1.62386l-1.00129,-0.64148c-3.57152,-4.2275 -7.5889,-12.42136 -5.83945,-18.13064c0.86086,-2.80942 3.16502,-4.79118 5.05363,-6.9388c-1.9561,-1.64934 -3.88951,-3.62281 -3.99685,-5.95853c-0.13028,-2.83465 2.00076,-4.56061 3.64611,-6.42774c1.54159,-1.74939 3.29502,-2.76314 5.0072,-4.24893c3.82724,-3.32117 7.03111,-6.98696 11.28334,-9.92775c1.57477,-1.0121 3.44102,-2.52677 5.39243,-2.95861c0.65846,-0.83152 1.80368,-0.52987 1.80368,-0.52987l0.91207,0.25852c0.31675,0.13748 0.65775,0.31848 1.01326,0.53659c2.50986,0.84706 4.27968,2.9784 5.33389,5.48574c0.67057,1.18517 1.06764,2.39991 0.98754,3.51053c0.15785,1.00373 0.21553,2.00314 0.1743,2.94952l-0.07173,0.10687l0.05441,0.00994l-0.01409,0.0771c3.11766,2.44463 7.76319,3.45738 9.15238,7.58628zM182.74117,220.0579c0,0 0.07705,0.49362 -0.11407,0.99576c0.39406,-0.36732 1.12511,-0.78436 2.09411,-0.18216c0.7479,0.46479 0.88863,1.07133 0.8427,1.56117l0.32202,-0.34013c0.30723,-0.49438 0.61447,-0.98875 0.9217,-1.48314c-0.02928,-0.18238 -0.05991,-0.528 0.03946,-0.88866c-0.17992,-2.03938 -0.20579,-4.08401 -0.81085,-6.017c-0.21436,0.21043 -0.40558,0.44672 -0.58787,0.6932c0.17124,0.23394 0.29451,0.54907 0.32178,0.97337c0.11286,1.7551 -1.64224,1.86797 -1.64224,1.86797l-0.01899,-0.05139c-0.2164,0.06913 -0.97755,0.31612 -1.77738,0.56753zM174.36248,196.98875c1.70026,-0.88492 3.72036,-1.02888 5.3882,-1.88402c3.66414,-1.87872 2.41244,-5.99089 -0.44477,-7.71715c-2.63125,-1.26798 -5.37583,0.86446 -7.50122,2.44497c-4.86339,3.6166 -8.50174,7.36092 -12.46381,11.86743l-1.30647,0.73128c0,0 -0.12007,0.04879 -0.30828,0.08729l-0.20519,0.81299c1.09334,2.1108 2.65398,2.86919 4.8109,3.77229c0,0 0.0167,0.00705 0.04597,0.0214c2.55968,-4.27743 7.76846,-7.94215 11.98463,-10.13647z" fill="#6b6b6b" stroke-width="0.5"></path>
        <path d="M174.42093,196.98453c-4.21617,2.19432 -9.52023,5.90892 -12.07991,10.18635c-0.02928,-0.01436 -0.04615,-0.02154 -0.04615,-0.02154c-2.15693,-0.90311 -3.73358,-1.68193 -4.82692,-3.79273l0.20406,-0.81553c0.18821,-0.0385 0.30835,-0.08713 0.30835,-0.08713l1.30616,-0.73206c3.96207,-4.50651 7.66629,-8.33021 12.52968,-11.94681c2.12539,-1.58051 4.89789,-3.69885 7.52915,-2.43087c2.85719,1.72625 4.1266,5.86862 0.46246,7.74736c-1.66784,0.85515 -3.68659,1.00806 -5.38685,1.89297z" fill="#b7b7b7" stroke-width="0.5"></path>
        <path d="M182.27405,217.743c0.79983,-0.25141 1.5744,-0.52561 1.7908,-0.59474l0.01844,0.05205c0,0 1.80562,-0.13322 1.69276,-1.88832c-0.02729,-0.42429 -0.1567,-0.73971 -0.32794,-0.97365c0.18229,-0.24648 0.38088,-0.48234 0.59524,-0.69277c0.60505,1.93298 0.66585,4.07671 0.84576,6.11609c-0.09938,0.36066 -0.08057,0.71565 -0.05129,0.89802c-0.30723,0.49438 -0.63809,0.99675 -0.94533,1.49113l-0.32718,0.34049c0.04593,-0.48983 -0.113,-1.09883 -0.8609,-1.56362c-0.969,-0.60221 -1.72591,-0.20113 -2.11997,0.1662c0.19111,-0.50213 0.10682,-1.00519 0.10682,-1.00519z" fill="#b7b7b7" stroke-width="0.5"></path>
        <path d="M176.58447,205.86133c-1.74977,-0.17724 -1.91519,1.57311 -1.91519,1.57311l-0.23347,2.63387l-1.61026,-0.84001c-0.70554,-0.38366 -1.59215,-0.25155 -2.14479,0.37703c-0.64135,0.72948 -0.55969,1.83125 0.16978,2.4726v0l1.35969,1.19477c1.40188,1.50716 2.72867,2.92627 4.13161,4.43244c0,0 0.96877,1.07426 2.11221,0.37737c0.02672,0.00785 0.14906,0.08349 0.17587,0.09105c0.14624,0.16442 0.29141,0.33029 0.43765,0.4947l0.23613,1.97692c0,0 0.19264,1.65078 1.93031,1.37952c0.30894,-0.04822 0.5512,-0.13947 0.74596,-0.26241c-0.04273,0.08892 0.01117,0.25113 -0.01367,0.32278l-0.70196,1.13229c-0.00168,0.04906 -0.00383,0.09849 -0.00552,0.14755l-0.05352,-0.02244l-0.76095,1.7896c-0.30854,0.68566 -0.2061,1.41638 0.38806,1.93876c0.0508,0.04466 0.15649,0.19044 0.2107,0.22821c-1.91508,1.07028 -4.25219,1.66999 -6.30905,2.82381c-0.14989,0.03105 -0.29799,0.08165 -0.43667,0.15165l-2.08534,0.9893c-0.14793,0.06642 -0.2895,0.15386 -0.41734,0.26252c-1.57274,-0.23538 -3.66859,0.63837 -5.2982,1.14732l-0.77608,0.30838c0,0 -0.1351,0.05441 -0.31121,0.17105c-0.13969,-0.01127 -0.22957,-0.00582 -0.22957,-0.00582c-2.94008,0.19376 -4.45126,0.08688 -5.36283,-2.98422l-0.54901,-1.71264c-0.09145,-0.30445 -0.26822,-0.59006 -0.52456,-0.81543c-0.10212,-0.08979 -0.21238,-0.16649 -0.32713,-0.22848c0.0013,-0.12079 0.09578,-0.30857 0.09091,-0.42954c0.54173,0.70551 1.52366,0.63881 1.52366,0.63881l1.83009,-0.12173c3.32851,-0.48512 5.49848,-0.94003 7.81246,-3.46496c0,0 1.08885,-1.22925 -0.23199,-2.3905c-1.32083,-1.16126 -2.4886,0.15224 -2.4886,0.15224c-1.55986,1.89287 -3.1682,1.94752 -5.54585,2.27387l-1.69911,0.10556c0,0 -1.35918,0.03614 -1.52937,1.3858l-0.38429,0.17104c-0.25468,-1.5025 -0.52598,-3.02625 -0.69355,-4.52482c0.30698,-0.6869 0.00344,-1.43541 0.00344,-1.43541l-0.13117,0.0045c-0.00217,-0.03436 -0.00434,-0.06902 -0.00636,-0.10336l-0.02861,0.01306c0.12243,-0.47377 0.27,-0.92006 0.46108,-1.34569c0.91437,-0.07533 1.38213,-0.98559 1.38213,-0.98559c0.07659,-0.15054 0.15486,-0.30199 0.23514,-0.45105c0.92569,-0.04219 1.42276,-0.95025 1.42276,-0.95025c0.14084,-0.25638 0.28219,-0.51567 0.42432,-0.7714c0.79916,-0.24223 1.12442,-1.10404 1.12442,-1.10404l0.94977,-2.50951c0,0 0.0827,-0.21818 0.10886,-0.52322c1.22642,0.15943 1.75764,-1.09813 1.75764,-1.09813c1.67981,-4.13293 7.31105,-7.84777 11.18184,-9.88972c2.1026,-1.10919 4.40905,-1.22102 6.29925,-2.5181c0.48494,0.3853 1.10104,0.41519 1.10104,0.41519c2.24714,0.10254 4.99407,0.13081 6.74259,1.8514c2.00158,1.96961 0.85465,6.48615 -0.70462,8.31878c-1.40998,1.65716 -3.0655,1.08834 -4.78266,2.21956c-0.25575,0.16848 -2.4879,2.74861 -2.8307,3.13853l-0.42362,1.06771c-0.36956,0.14861 -0.86031,0.28571 -1.25137,0.31876c-0.274,-0.1497 -0.62717,-0.25493 -1.0299,-0.18442l-0.61694,-0.68899c0.36291,-0.65253 0.14307,-1.40205 0.14307,-1.40205c-0.1251,-0.39886 -0.24094,-0.78924 -0.36604,-1.18811c0.46698,-1.02055 1.23304,-2.1614 1.81439,-2.92979c0.08568,0.07445 0.18537,0.14807 0.29647,0.21711c1.49377,0.92831 2.42865,-0.55969 2.42865,-0.55969c0.14014,-0.23201 0.2912,-0.45808 0.45264,-0.67698c0.52304,-0.09241 1.04896,-0.18175 1.57201,-0.27414l0.24861,-0.00463c0,0 1.66681,-0.03569 1.55398,-1.79079c-0.02222,-0.34573 -0.10621,-0.6169 -0.22992,-0.8328c0.30571,-0.37009 0.52034,-0.92764 0.20178,-1.71166c-0.66205,-1.62935 -2.28485,-0.96222 -2.28485,-0.96222l-1.62995,0.71075c-0.70707,0.48854 -1.4097,0.9794 -2.11676,1.46793c0,0 -0.40329,0.27995 -0.63678,0.75717c-1.02987,-0.35978 -1.82531,0.55609 -1.82531,0.55609c-0.21369,0.24761 -0.43017,0.5131 -0.64972,0.79236c-0.21892,-0.15036 -0.50061,-0.26001 -0.87663,-0.29809z" fill="#b7b7b7" stroke-width="0.5"></path>
      </g>
      <g stroke-width="0.5">
        <path d="M287.6562,229.14431c-0.08724,-0.26107 -0.17723,-0.50252 -0.27295,-0.72956c-0.00836,0.39921 -0.02977,0.78268 -0.06505,1.15207zM274.53988,223.98633c0.58663,-1.76719 1.33124,-3.52963 2.66727,-4.47837c4.9999,-3.55057 10.59432,2.17572 12.96035,7.21225c1.14231,-0.88775 2.80423,-1.52129 3.95036,-1.69684c3.76162,-0.57616 7.10141,2.41205 7.68685,6.1315c0.47078,2.99098 -1.72148,6.82692 -3.96431,8.6063c-0.20464,0.16236 -1.09341,0.885 -2.01144,1.42583c0.14605,0.02287 0.27914,0.04396 0.39104,0.05994l1.78937,1.65563c0,0 1.15763,1.15763 0.19953,2.38176l-0.18194,1.38347c-2.99073,5.94799 -3.79801,14.56702 -11.29304,15.7554c-1.39824,-0.43278 -4.05123,-1.80572 -5.60868,-1.63804c-2.84575,0.30638 -5.38232,1.21784 -8.0796,1.49487c-1.03464,0.96647 -2.05555,0.33022 -2.40977,0.04995c-0.60296,-0.04213 -1.21943,-0.12943 -1.85394,-0.27386c-2.95903,-0.6736 -6.35655,-1.81806 -8.86245,-3.57881c-2.80304,-1.96955 -4.01736,-5.38918 -6.82448,-7.16904c0,0 -1.5333,-1.02221 -0.51109,-2.55551c0.42491,-0.63737 0.93814,-0.83316 1.39284,-0.84436c0.31232,-3.02448 2.21985,-5.06258 3.6995,-8.05781c1.57643,-3.19112 -1.05976,-5.58249 -1.74886,-8.32591c-1.49669,-5.95855 4.10002,-11.34751 8.708,-14.12511c0,0 1.45553,-0.87331 2.41088,0.45332c3.79272,0.4384 6.45429,2.96304 7.49361,6.13343zM285.36285,239.6191c0,-1.8428 1.8428,-1.8428 1.8428,-1.8428c0.65521,0 2.62088,0 3.27609,0c0,0 0.24205,0 0.5507,0.08772c2.66644,-1.08723 5.32955,-2.5137 3.99966,-5.33751c-0.35593,-0.75577 -0.4715,-1.78032 -1.19077,-2.20521c-0.20057,-0.11848 0.09625,0.49714 -0.02082,0.69854c-0.36844,0.6338 -0.85916,1.19668 -1.3805,1.71209c-0.57481,0.56829 -1.22866,1.05434 -1.88908,1.52038c-2.68896,1.89752 -5.27804,2.30267 -8.29804,3.17205c-0.01542,0.00444 -0.03074,0.00901 -0.04595,0.01371c-0.35755,0.22768 -0.69898,0.42235 -1.02177,0.60945c-0.92995,0.87663 -1.38271,2.33706 -2.23725,3.19265l-1.2632,2.21061c-0.31284,0.5718 -0.92001,0.95958 -1.61775,0.95958c-1.01775,0 -1.8428,-0.82505 -1.8428,-1.8428c0,-0.21886 0.03815,-0.42881 0.10817,-0.62355l0.64163,-1.92486v0c0.42074,-1.18375 1.17852,-2.14581 2.07879,-3.00442c0.31148,-0.40338 0.69566,-0.79837 1.12463,-1.19353c-0.09841,-0.14765 -0.18507,-0.32381 -0.25497,-0.53351c-0.58273,-1.74824 1.16551,-2.33097 1.16551,-2.33097l0.74143,-0.22761c0.65521,-0.32761 1.31043,-0.65523 1.96564,-0.98284c0,0 0.57395,-0.28698 1.21381,-0.18355c0.47503,-0.80156 0.75726,-1.70895 0.7398,-2.78715c-0.52273,-1.52677 -0.631,-2.6269 -2.33415,-3.12273c-0.71773,-0.20895 -1.99039,-1.06702 -2.2145,-0.35387c-0.41696,1.32683 0.19404,3.8288 -0.42085,5.45617c-1.8781,4.97059 -6.85851,4.45125 -9.8424,7.78334c-1.75572,1.96061 -2.28164,5.40126 -3.78554,7.67212c0,0 -1.02219,1.53331 -2.5555,0.51112c-1.53331,-1.02219 -0.51111,-2.5555 -0.51111,-2.5555c1.48005,-2.20327 2.00291,-5.10679 3.47856,-7.27922c-0.27638,-0.59402 -0.14858,-1.23301 -0.14858,-1.23301l0.31689,-1.57959l0.13388,-0.8033c-0.99658,-0.02431 -1.79699,-0.8398 -1.79699,-1.84224c0,-0.85295 0.57949,-1.57056 1.36624,-1.78058c0.337,-0.43639 0.86537,-0.71744 1.45939,-0.71744c0.25784,0 0.50332,0.05296 0.72615,0.14858l0.26405,-0.26405c1.71127,-1.5972 1.77859,-2.58427 0.25754,-4.34772c-0.17537,-0.18809 -1.13071,-1.44375 -1.70189,-1.36286c-1.07461,0.15218 -5.09911,4.09875 -5.25854,5.32202c-0.22945,1.76048 1.20384,3.30336 1.59166,4.8034c1.52144,5.88468 -1.31637,10.75677 -4.16182,15.47964c0.32499,0.31442 0.476,0.6668 0.476,0.6668c4.56787,11.13175 20.11655,10.81521 26.99716,2.20814c1.44395,-1.9962 3.09237,-3.75801 2.59051,-6.36664l-0.74141,-0.24713c0,0 -0.43841,-0.14614 -0.80297,-0.5116c-0.50003,0.61338 -0.90351,1.29513 -1.32191,2.0923c-0.04672,0.72107 -0.57585,1.2502 -0.57585,1.2502l-3.27891,-1.79957c1.11062,-2.21795 2.0939,-3.8621 3.72176,-5.282c-0.18639,-0.26288 -0.31262,-0.61895 -0.31262,-1.10126zM288.94656,253.8647l0.02568,0.00993c-0.04829,0.0602 -0.09688,0.12006 -0.14577,0.17957c-0.01603,0.02546 -0.03205,0.051 -0.04806,0.07661l0.07549,0.07196c0,0 -0.18857,0.37717 -0.56574,0.68044c-0.14859,0.17505 -0.39169,0.4111 -0.71796,0.561c-0.5072,0.51056 -1.03813,0.98959 -1.58958,1.43687c1.17134,0.10407 2.29632,0.20212 2.85971,0.01819c0.91833,-0.29979 0.87632,-1.72524 1.39466,-2.54043c0.50606,-0.79587 0.93261,-1.51667 1.2858,-2.21441c0.22671,-0.52187 0.45249,-1.04517 0.67902,-1.56863c0.44742,-1.26206 0.66672,-2.57839 0.69503,-4.2636c-0.16368,-0.02728 -0.32737,-0.05457 -0.49105,-0.08184c-0.08127,3.07453 -1.76413,4.98079 -3.45724,7.63433z" fill="#6b6b6b"></path>
        <path d="M292.37416,246.28418c0.16368,0.02728 0.39054,-0.05071 0.55422,-0.02343c-0.02831,1.68521 -0.22367,3.03135 -0.67109,4.29341c-0.22653,0.52346 -0.45026,1.0835 -0.67696,1.60537c-0.35319,0.69774 -0.82213,1.46244 -1.32819,2.25831c-0.51834,0.81519 -0.50039,2.24268 -1.41871,2.54248c-0.5634,0.18392 -1.71519,0.07618 -2.88653,-0.02789c0.55145,-0.44728 1.14303,-1.03286 1.65023,-1.54342c0.32627,-0.1499 0.56283,-0.38869 0.71142,-0.56374c0.37717,-0.30328 0.55888,-0.68242 0.55888,-0.68242l-0.1046,0.04738c0.01601,-0.02561 0.06256,-0.17015 0.07858,-0.19561c0.04888,-0.05951 0.09493,-0.11995 0.14323,-0.18015l-0.02496,-0.00978c1.6931,-2.65354 3.33322,-4.44598 3.41449,-7.52051z" fill="#b7b7b7"></path>
        <path d="M285.73688,240.72193c-1.62787,1.41989 -2.63144,3.10812 -3.74206,5.32608l3.19184,1.71317c0,0 0.52445,-0.52315 0.57118,-1.24423c0.4184,-0.79717 0.8153,-1.46649 1.31533,-2.07987c0.36455,0.36546 0.80332,0.51071 0.80332,0.51071l0.85522,0.29339c0.50187,2.60864 -1.16456,4.39494 -2.60852,6.39114c-6.88061,8.60707 -22.52328,8.90338 -27.09115,-2.22837c0,0 -0.15207,-0.3546 -0.47706,-0.66903c2.84545,-4.72287 5.68466,-9.64796 4.16321,-15.53263c-0.38782,-1.50004 -1.81524,-3.05224 -1.58579,-4.81272c0.15943,-1.22327 4.20088,-5.18507 5.27549,-5.33725c0.57118,-0.08089 1.5881,1.28105 1.76347,1.46913c1.52106,1.76345 1.46181,2.74519 -0.24947,4.34239l-0.26284,0.26309c-0.22282,-0.09563 -0.46688,-0.14979 -0.72472,-0.14979c-0.59401,0 -1.118,0.27683 -1.455,0.71321c-0.78676,0.21003 -1.36075,0.92088 -1.36075,1.77383c0,1.00244 0.80164,1.8161 1.79823,1.84041l-0.13204,0.80028l-0.31358,1.57286c0,0 -0.12589,0.6338 0.1505,1.22782c-1.47566,2.17243 -1.99744,5.04277 -3.47749,7.24604c0,0 -1.02546,1.52361 0.50785,2.5458c1.53331,1.02219 2.44378,-0.46009 2.44378,-0.46009c1.50391,-2.27086 2.02547,-5.75271 3.78119,-7.71332c2.98389,-3.3321 8.03502,-2.85865 9.91312,-7.82924c0.61489,-1.62737 0.00165,-4.1297 0.41862,-5.45654c0.22411,-0.71315 1.50548,0.14683 2.22321,0.35578c1.70314,0.49583 1.82456,1.6016 2.34729,3.12837c0.01746,1.0782 -0.32969,2.0898 -0.80473,2.89136c-0.63987,-0.10342 -1.20905,0.18645 -1.20905,0.18645c-0.65521,0.32761 -1.30194,0.65907 -1.95716,0.98668l-0.73681,0.22909c0,0 -1.72111,0.46305 -1.13838,2.21128c0.0699,0.2097 0.13083,0.50591 0.22924,0.65356c-0.42897,0.39516 -0.7991,0.792 -1.11059,1.19539c-0.90027,0.85861 -1.59733,1.77346 -2.01807,2.95721v0l-0.64737,1.8814c-0.07002,0.19475 -0.11293,0.39724 -0.11293,0.6161c0,1.01775 0.79003,1.81975 1.80777,1.81975c0.69774,0 1.27676,-0.38785 1.5896,-0.95965l1.21969,-2.17258c0.85454,-0.85559 1.31173,-2.26318 2.24168,-3.13981c0.32279,-0.1871 0.66427,-0.38169 1.02181,-0.60937c0.01522,-0.0047 0.1365,-0.07143 0.15192,-0.07587c3.02,-0.86938 5.50029,-1.21778 8.18925,-3.1153c0.66042,-0.46604 1.31517,-0.95021 1.88999,-1.5185c0.52134,-0.51542 1.01343,-1.07574 1.38186,-1.70954c0.11707,-0.20139 -0.07366,-0.87895 0.12691,-0.76047c0.71927,0.42489 0.83845,1.45637 1.19438,2.21214c1.32989,2.82381 -1.32903,4.26378 -3.99547,5.35101c-0.30866,-0.08772 -0.67128,-0.06422 -0.67128,-0.06422c-0.65521,0 -2.62002,0.00367 -3.27523,0.00367c0,0 -1.72236,-0.02227 -1.72236,1.82052c0,0.48231 0.12656,0.84638 0.31294,1.10926z" fill="#b7b7b7"></path>
      </g>
    </g>
  </g>
</svg>
