<?xml version="1.0" encoding="UTF-8"?>
<svg xmlns="http://www.w3.org/2000/svg" xmlns:xlink="http://www.w3.org/1999/xlink" version="1.1" width="286.08804" height="337.80314" viewBox="0,0,286.08804,337.80314">
  <g transform="translate(-98.99062,-3.08517)">
    <g stroke-miterlimit="10">
      <path d="M98.99062,55.17947v-45h280v45z" fill="#ffffff" stroke="none" stroke-width="0"></path>
      <g stroke="none" stroke-width="0.5">
        <path d="M306.46164,205.04807l0.02327,0.57251c-0.0109,0.00258 -0.0913,0.09782 -0.1022,0.10042c0.02611,-3.07488 0.7019,-4.90506 1.70212,-7.90575c0.51899,-1.557 0.49535,-3.49479 1.48603,-4.80329c1.21393,-1.60336 5.24056,-2.09316 6.95073,-2.72089c0.63217,-0.23204 1.18958,-0.77917 1.86299,-0.77917c1.20935,0 2.2959,0.63269 3.40925,1.17773l-0.59757,1.67704c0,0 1.35573,1.35792 2.96774,0.75211c2.30597,0.83464 4.7672,1.6931 6.93912,1.90545c1.75236,0.17133 3.62717,0.45103 5.2693,-0.18421c1.47952,-0.57234 2.2753,-2.20857 3.50079,-3.2159c1.0296,-0.84631 2.47022,-1.24449 3.23789,-2.33398c2.85385,-4.05019 1.05944,-4.48008 0.56506,-8.59632c-0.69698,-5.80311 -2.00905,-10.67883 -3.87105,-16.26496c0,0 -0.74018,-2.41219 -3.16492,-1.89053l-0.43682,-0.81267c-4.03811,-1.30103 -7.74009,-3.91048 -11.3345,-6.1682c-0.67931,-0.42669 -1.689,-0.63332 -2.18065,-1.2672c-0.48594,-0.62653 -0.27553,-1.58609 -0.62394,-2.29833c-1.35423,-2.76834 -4.41845,-7.51309 -4.33146,-10.78276c0.02199,-0.82674 0.77171,-1.50057 0.89244,-2.31874c0.2305,-1.56209 -0.39791,-4.80402 0.59391,-6.45446c1.13229,-1.88419 5.35449,-6.17282 7.2603,-7.25268c1.90706,-1.08056 4.38026,-0.79523 6.34161,-1.77381c0.86146,-0.42981 1.42172,-1.42985 2.35043,-1.68349c1.10681,-0.30228 2.29836,0.06832 3.44519,0.1025c3.48911,0.8723 7.14525,0.40987 10.48398,1.69745c2.33533,0.90061 4.74028,1.83155 6.73475,3.34381c1.39242,1.05577 2.31174,2.66646 3.71308,3.71037c0.9875,0.73562 2.48585,0.68416 3.35656,1.55488c0.87072,0.87073 0.84433,2.35033 1.55553,3.35557c0.71818,1.01511 1.96235,1.59065 2.66982,2.61326c1.59059,2.29912 1.4326,6.18527 1.42797,8.68122c-0.00596,3.20732 0.25298,7.42974 -2.04952,10.14489c-1.50295,1.7723 -4.89645,3.32235 -7.11992,4.66161c-0.4882,-0.15308 -1.08831,-0.16844 -1.81734,0.07457c-2.74737,0.91578 -1.83119,3.67396 -1.83119,3.67396l0.81469,2.33503c-0.01808,2.73719 0.61981,5.45758 0.89651,8.18081c0.37156,3.65684 -0.03124,7.62397 0.01129,11.31263c-1.66425,4.7515 -4.4549,11.77355 -8.87944,14.69317c-2.10079,1.38625 -6.25027,1.80343 -8.56705,2.46537c-1.96368,0.56105 -3.99269,1.50812 -6.03964,1.75955c-2.48923,0.30576 -5.04982,-0.33218 -7.53375,0.01399c-0.8903,0.12408 -1.64659,0.89618 -2.5455,0.8974c-0.8669,0.00119 -8.87546,-1.78458 -9.69305,-1.85308c-2.42449,-0.20315 -4.92227,-0.05334 -7.31668,0.46195c-0.21727,-0.35009 -0.42614,-0.55881 -0.42614,-0.55881z" fill="#e36f00"></path>
        <path d="M340.30805,165.41727c-3.9206,-0.24366 -7.71229,-1.03891 -10.72018,-2.56499c-6.05455,-3.07184 -9.87624,-9.36053 -11.70194,-15.69249c-0.05926,-0.20552 -1.95549,-7.80561 -1.94723,-7.86954c0.01532,-0.11849 0.03299,-0.23642 0.05282,-0.35384h-0.07452v-3.70686c0,-1.5994 1.29657,-2.89598 2.89598,-2.89598c1.30273,0 2.40455,0.86018 2.76848,2.04356l0.74126,2.22384c4.88592,4.63624 9.07286,7.18024 15.20604,9.85373c1.126,0.49083 2.06385,1.44869 3.26396,1.71047c1.4077,0.30705 2.88965,-0.21116 4.32204,-0.05578c3.95306,0.42882 9.63262,2.22564 13.63436,1.0293c0.92239,-0.27575 1.48553,-1.2534 2.34698,-1.68321c1.63198,-0.81425 5.40749,-1.64813 7.05699,-2.06145c0,0 2.80951,-0.70237 3.51188,2.10715c0.17687,0.70752 0.13104,1.28141 -0.03656,1.7441c0.12303,0.45912 0.12303,0.8117 0.12303,0.8117l-0.14862,1.84251c-0.35753,1.04556 -0.71506,2.09112 -1.07259,3.13668c-3.0456,4.49859 -6.53122,6.19299 -10.85855,7.54003c0.48205,2.60343 -2.1611,3.26424 -2.1611,3.26424c-3.77124,0.66653 -3.58372,2.12765 -5.70649,5.28389c-2.18856,3.25406 -3.57026,7.219 -4.66904,11.17969c0.22212,1.74509 0.19035,3.40149 -0.48231,4.56007c-0.11249,0.19375 -0.23271,0.38152 -0.35971,0.56404l0.13145,0.06572l-1.82537,3.65075c-0.46435,0.97955 -1.46221,1.65697 -2.61829,1.65697c-1.5994,0 -2.89598,-1.29657 -2.89598,-2.89598c0,-0.34393 0.05995,-0.67386 0.16998,-0.97991l0.87895,-2.63689c0.28536,-1.14133 0.57665,-2.30038 0.88394,-3.46539c0.05281,-0.96653 0.17776,-2.08576 -0.04206,-3.57447c-0.66617,-4.51172 -2.66583,-8.96144 -0.81551,-13.42694c0.05315,-0.12828 0.10203,-0.26383 0.14792,-0.40471zM325.01474,146.24812c-0.57366,-0.40238 -1.13978,-0.81926 -1.70117,-1.25283c0.03883,0.18443 0.0828,0.36638 0.13334,0.54513c0.08842,0.31271 0.18275,0.62655 0.28312,0.94058l0.23533,0.07845c0.31952,-0.16622 0.67394,-0.27462 1.04937,-0.31132zM347.75412,157.29519c0.16361,0.16662 0.30722,0.35294 0.42696,0.55507c0.06571,-0.15621 0.13243,-0.31211 0.20069,-0.4672c-0.20825,-0.02715 -0.41753,-0.05655 -0.62765,-0.08788z" fill="#9f4d00"></path>
        <path d="M306.92224,205.56033c2.39441,-0.5153 4.8864,-0.66888 7.31089,-0.46574c0.81759,0.06851 8.81503,1.8494 9.68192,1.84822c0.89891,-0.00123 1.65244,-0.77413 2.54274,-0.89821c2.48393,-0.34617 5.03456,0.29006 7.52379,-0.0157c2.04695,-0.25143 4.06746,-1.19858 6.03114,-1.75964c2.31677,-0.66194 6.4535,-1.07686 8.55429,-2.46311c4.42454,-2.91962 7.1935,-9.92973 8.85775,-14.68123c-0.04253,-3.68866 0.34826,-7.64118 -0.0233,-11.29802c-0.2767,-2.72323 -0.92147,-5.42471 -0.90339,-8.1619l-0.81548,-2.32823c0,0 -0.91578,-2.74737 1.83159,-3.66314c0.72903,-0.24301 1.32908,-0.22808 1.81729,-0.07499c2.22347,-1.33926 5.61831,-2.88217 7.12126,-4.65447c2.3025,-2.71515 2.04924,-6.9234 2.0552,-10.13071c0.00464,-2.49595 0.16968,-6.3722 -1.42091,-8.67131c-0.70747,-1.02261 -1.94783,-1.59422 -2.66601,-2.60934c-0.7112,-1.00525 -0.68114,-2.48168 -1.55186,-3.35241c-0.87071,-0.87072 -2.36487,-0.81622 -3.35236,-1.55185c-1.40134,-1.04391 -2.31445,-2.65106 -3.70687,-3.70683c-1.99447,-1.51226 -4.3898,-2.43949 -6.72513,-3.3401c-3.33873,-1.28758 -6.98054,-0.82296 -10.46965,-1.69525c-1.14684,-0.03418 -2.3337,-0.40484 -3.44051,-0.10256c-0.92872,0.25365 -1.48555,1.2534 -2.34701,1.6832c-1.96135,0.97858 -4.42543,0.69147 -6.33249,1.77202c-1.90581,1.07985 -6.11489,5.36299 -7.24717,7.24718c-0.99182,1.65044 -0.35769,4.88864 -0.5882,6.45073c-0.12073,0.81818 -0.86731,1.48951 -0.8893,2.31625c-0.08698,3.26967 2.98485,8.00655 4.33908,10.77489c0.34841,0.71224 0.14072,1.66812 0.62665,2.29466c0.49164,0.63389 1.40581,0.77499 2.08512,1.20167c3.5944,2.25772 7.31849,4.84819 11.3566,6.14922l0.43776,0.81222c2.42474,-0.52165 3.24729,1.94607 3.24729,1.94607c1.862,5.58613 3.13675,10.51294 3.83373,16.31605c0.49438,4.11624 2.28103,4.54847 -0.57282,8.59866c-0.76768,1.08949 -2.21597,1.48888 -3.24557,2.33519c-1.22549,1.00733 -2.02843,2.64374 -3.50795,3.21608c-1.64213,0.63524 -3.52662,0.35438 -5.27898,0.18305c-2.17191,-0.21235 -4.64567,-1.07494 -6.95164,-1.90958c-1.612,0.60581 -2.97252,-0.75459 -2.97252,-0.75459l0.59705,-1.67735c-1.11335,-0.54504 -2.20527,-1.18135 -3.41462,-1.18135c-0.67341,0 -1.23221,0.54605 -1.86438,0.77809c-1.71017,0.62773 -5.74082,1.11397 -6.95475,2.71733c-0.99068,1.30849 -0.88849,3.1612 -1.40748,4.7182c-1.00022,3.00068 -1.67943,4.82809 -1.70554,7.90297c0.01089,-0.00259 0.02179,-0.00518 0.03269,-0.00776l0.04655,-0.66494c0,0 0.20826,0.20826 0.42552,0.55835zM326.76844,187.74174c0.93994,0.254 1.88141,0.50315 2.8164,0.77344c0.64852,0.18748 3.62278,1.52004 4.56904,1.03165c0.92288,-0.47634 1.26141,-1.67115 2.05238,-2.34418c0.68306,-0.5812 1.66305,-0.75544 2.31468,-1.37168c1.00582,-0.95118 -0.56813,-4.33941 -0.57282,-4.37533c-0.61765,-4.73123 -1.55032,-8.77485 -2.94184,-13.21982c-1.45302,-0.09099 -2.10636,-0.95661 -2.40014,-1.71666c-3.85704,-1.55565 -7.62008,-3.82808 -10.99766,-6.17556c-1.17262,-0.81499 -2.57319,-1.39812 -3.47521,-2.50519c-0.73449,-0.90146 -0.69947,-2.22922 -1.22674,-3.26561c-1.83928,-3.6152 -4.85911,-9.01842 -4.92804,-13.31961c-0.01808,-1.12794 0.80918,-2.12662 0.96409,-3.24401c0.38779,-2.79714 -0.10353,-5.90664 1.26521,-8.37665c1.31235,-2.36827 7.08678,-8.08493 9.43367,-9.43367c0.97582,-0.5608 5.14488,-1.18493 6.64143,-1.93484c1.13169,-0.56708 1.98113,-1.73384 3.21332,-2.02366c1.8909,-0.44475 3.88441,-0.06837 5.82661,-0.10256c3.9882,0.99707 7.87377,0.58215 11.77145,2.01161c0.28826,0.10572 7.92712,3.94357 8.10225,4.07362c1.4029,1.0418 2.31201,2.65427 3.70687,3.70683c1.22333,0.92312 2.97762,1.07134 4.06129,2.15501c1.08367,1.08368 1.25947,2.81764 2.155,4.06132c0.80509,1.11808 2.14526,1.79451 2.89426,2.95092c2.18313,3.37066 2.28008,7.94606 2.28594,11.71634c0.00759,4.87635 -0.18735,9.94032 -3.50506,13.96386c-1.85193,2.24592 -6.03192,4.20508 -8.61129,5.86121l0.0317,0.09873c0.01713,2.8572 0.66996,5.67545 0.95,8.51894c0.40664,4.1289 0.01395,8.64166 -0.0233,12.79649c-2.0696,6.44466 -5.62703,14.72042 -11.52989,18.68039c-2.57025,1.72427 -7.07157,2.26618 -9.97996,3.09715c-2.77115,0.79176 -3.82674,1.55231 -6.94284,1.94723c-2.41524,0.30609 -4.89485,-0.36887 -7.30366,-0.0157c-1.04386,0.15304 -1.96244,0.95639 -3.01746,0.95525c-6.32664,-0.00682 -11.56167,-3.26729 -17.84499,-1.06647c0,0 -2.74737,0.91579 -3.66315,-1.83157c-0.05112,-0.15335 -0.09082,-0.301 -0.12023,-0.4431c-0.21567,-0.15546 -0.33856,-0.27836 -0.33856,-0.27836l-1.77491,-2.97446c0.04235,-4.72337 1.34173,-8.54419 2.92871,-12.96303c0.43642,-1.21519 0.5539,-2.62377 1.37261,-3.62219c2.16623,-2.64171 9.92505,-5.7717 13.42205,-5.7717c0.5891,0 5.55811,1.69605 6.47602,2.00201c0,0 1.57582,0.52526 1.94277,1.97361z" fill="#000000"></path>
      </g>
      <g stroke="none" stroke-width="0.5">
        <path d="M171.11222,199.81493c-2.39441,-0.5153 -4.8922,-0.6651 -7.31668,-0.46195c-0.81759,0.06851 -8.82615,1.85427 -9.69305,1.85308c-0.8989,-0.00123 -1.6552,-0.77333 -2.5455,-0.8974c-2.48393,-0.34617 -5.04452,0.29178 -7.53374,-0.01399c-2.04695,-0.25144 -4.07597,-1.1985 -6.03965,-1.75955c-2.31677,-0.66194 -6.46626,-1.07913 -8.56705,-2.46537c-4.42454,-2.91962 -7.21519,-9.94168 -8.87944,-14.69317c0.04253,-3.68866 -0.36027,-7.6558 0.01128,-11.31263c0.2767,-2.72323 0.91458,-5.44363 0.89651,-8.18082l0.81469,-2.33502c0,0 0.91618,-2.75818 -1.83119,-3.67396c-0.72903,-0.24301 -1.32914,-0.22766 -1.81734,-0.07457c-2.22347,-1.33926 -5.61698,-2.8893 -7.11992,-4.66161c-2.3025,-2.71515 -2.04356,-6.93758 -2.04952,-10.1449c-0.00464,-2.49595 -0.16263,-6.3821 1.42796,-8.68122c0.70747,-1.02261 1.95164,-1.59815 2.66982,-2.61326c0.7112,-1.00525 0.68481,-2.48484 1.55553,-3.35557c0.87071,-0.87072 2.36907,-0.81926 3.35656,-1.55488c1.40134,-1.04391 2.32066,-2.6546 3.71308,-3.71037c1.99447,-1.51226 4.39943,-2.44319 6.73475,-3.34381c3.33873,-1.28758 6.99487,-0.82516 10.48398,-1.69745c1.14684,-0.03419 2.33839,-0.40478 3.4452,-0.1025c0.92872,0.25364 1.48897,1.25368 2.35043,1.68349c1.96135,0.97858 4.43455,0.69325 6.34161,1.77381c1.90581,1.07985 6.12801,5.36849 7.26029,7.25268c0.99182,1.65044 0.36341,4.89237 0.59391,6.45446c0.12073,0.81818 0.87044,1.492 0.89244,2.31874c0.08698,3.26967 -2.97723,8.01442 -4.33146,10.78276c-0.34842,0.71224 -0.13801,1.6718 -0.62395,2.29833c-0.49165,0.63389 -1.50133,0.84051 -2.18064,1.2672c-3.5944,2.25772 -7.29639,4.86717 -11.3345,6.16821l-0.43682,0.81267c-2.42474,-0.52165 -3.16492,1.89053 -3.16492,1.89053c-1.862,5.58613 -3.17407,10.46186 -3.87105,16.26496c-0.49438,4.11624 -2.28879,4.54613 0.56506,8.59632c0.76768,1.08949 2.2083,1.48767 3.23789,2.33398c1.22549,1.00733 2.02127,2.64356 3.50079,3.2159c1.64213,0.63524 3.51694,0.35554 5.26931,0.18421c2.17191,-0.21235 4.63314,-1.0708 6.93911,-1.90544c1.612,0.60581 2.96774,-0.75212 2.96774,-0.75212l-0.59757,-1.67704c1.11335,-0.54504 2.19989,-1.17773 3.40924,-1.17773c0.67341,0 1.23082,0.54713 1.86299,0.77917c1.71017,0.62773 5.73681,1.11753 6.95073,2.72089c0.99068,1.30849 0.96704,3.24629 1.48603,4.80329c1.00022,3.00069 1.67601,4.83087 1.70212,7.90575c-0.01089,-0.00259 -0.0913,-0.09784 -0.1022,-0.10042l0.02327,-0.57251c0,0 -0.20886,0.20871 -0.42613,0.55881z" fill="#e36f00"></path>
        <path d="M137.83987,160.03003c1.85032,4.4655 -0.14934,8.91523 -0.81552,13.42694c-0.21982,1.48872 -0.09487,2.60795 -0.04206,3.57448c0.30729,1.16501 0.59859,2.32406 0.88395,3.46539l0.87895,2.63689c0.11003,0.30604 0.16998,0.63597 0.16998,0.97991c0,1.5994 -1.29657,2.89598 -2.89598,2.89598c-1.15608,0 -2.15394,-0.67742 -2.6183,-1.65697l-1.82537,-3.65075l0.13145,-0.06573c-0.127,-0.18252 -0.24723,-0.37028 -0.35972,-0.56403c-0.67266,-1.15858 -0.70443,-2.81499 -0.48231,-4.56007c-1.09878,-3.9607 -2.48048,-7.92564 -4.66904,-11.1797c-2.12278,-3.15624 -1.93526,-4.61737 -5.70649,-5.28389c0,0 -2.64315,-0.66081 -2.1611,-3.26424c-4.32733,-1.34705 -7.81296,-3.04144 -10.85856,-7.54003c-0.35753,-1.04556 -0.71506,-2.09112 -1.07259,-3.13668l-0.14862,-1.84251c0,0 0,-0.35259 0.12303,-0.8117c-0.1676,-0.46269 -0.21344,-1.03658 -0.03656,-1.74409c0.70236,-2.80951 3.51188,-2.10715 3.51188,-2.10715c1.6495,0.41332 5.42502,1.2472 7.05699,2.06145c0.86145,0.42981 1.42459,1.40746 2.34698,1.68321c4.00173,1.19635 9.68129,-0.60048 13.63436,-1.0293c1.4324,-0.15538 2.91434,0.36283 4.32204,0.05577c1.20011,-0.26177 2.13796,-1.21963 3.26396,-1.71046c6.13318,-2.67348 10.32011,-5.21749 15.20604,-9.85373l0.74126,-2.22383c0.36393,-1.18338 1.46576,-2.04356 2.76849,-2.04356c1.5994,0 2.89598,1.29657 2.89598,2.89598v3.70686h-0.07452c0.01984,0.11742 0.03751,0.23535 0.05282,0.35383c0.00827,0.06393 -1.88797,7.66403 -1.94723,7.86954c-1.8257,6.33197 -5.6474,12.62065 -11.70194,15.69249c-3.00789,1.52609 -6.79958,2.32133 -10.72018,2.56499c0.0459,0.14088 0.09477,0.27643 0.14792,0.40471zM154.03464,140.76749l0.23534,-0.07845c0.10037,-0.31403 0.19471,-0.62787 0.28312,-0.94058c0.05054,-0.17875 0.09451,-0.3607 0.13334,-0.54513c-0.56139,0.43357 -1.12751,0.85045 -1.70117,1.25283c0.37543,0.03671 0.72985,0.1451 1.04937,0.31132zM129.61823,151.59111c0.06826,0.15509 0.13498,0.31099 0.20069,0.4672c0.11974,-0.20213 0.26335,-0.38845 0.42696,-0.55507c-0.21012,0.03132 -0.4194,0.06072 -0.62765,0.08787z" fill="#9f4d00"></path>
        <path d="M171.50328,199.21003l0.04655,0.66494c0.0109,0.00258 0.02179,0.00516 0.03269,0.00775c-0.02611,-3.07488 -0.70532,-4.90229 -1.70554,-7.90297c-0.51899,-1.557 -0.4168,-3.4097 -1.40748,-4.7182c-1.21393,-1.60336 -5.24458,-2.0896 -6.95475,-2.71733c-0.63217,-0.23204 -1.19097,-0.77809 -1.86438,-0.77809c-1.20935,0 -2.30127,0.63631 -3.41462,1.18135l0.59704,1.67735c0,0 -1.36051,1.3604 -2.97251,0.7546c-2.30598,0.83464 -4.77973,1.69722 -6.95164,1.90957c-1.75236,0.17133 -3.63685,0.4522 -5.27898,-0.18305c-1.47952,-0.57234 -2.28245,-2.20875 -3.50794,-3.21608c-1.0296,-0.84631 -2.4779,-1.24569 -3.24557,-2.33518c-2.85385,-4.05019 -1.0672,-4.48242 -0.57282,-8.59866c0.69698,-5.80311 1.97174,-10.72992 3.83374,-16.31605c0,0 0.82255,-2.46773 3.24729,-1.94608l0.43776,-0.81222c4.03811,-1.30103 7.7622,-3.8915 11.3566,-6.14922c0.67931,-0.42669 1.59347,-0.56779 2.08512,-1.20168c0.48594,-0.62653 0.27824,-1.58241 0.62666,-2.29465c1.35423,-2.76834 4.42606,-7.50522 4.33908,-10.77489c-0.02199,-0.82674 -0.76858,-1.49808 -0.8893,-2.31625c-0.2305,-1.56209 0.40362,-4.80029 -0.5882,-6.45073c-1.13228,-1.88418 -5.34137,-6.16733 -7.24718,-7.24718c-1.90706,-1.08056 -4.37114,-0.79344 -6.33249,-1.77202c-0.86146,-0.42981 -1.41829,-1.42956 -2.34701,-1.68321c-1.10681,-0.30228 -2.29367,0.06837 -3.44051,0.10256c-3.48911,0.87229 -7.13093,0.40767 -10.46966,1.69525c-2.33532,0.90062 -4.73066,1.82784 -6.72513,3.34011c-1.39242,1.05577 -2.30553,2.66292 -3.70686,3.70683c-0.9875,0.73562 -2.48165,0.68114 -3.35237,1.55185c-0.87072,0.87073 -0.84066,2.34716 -1.55186,3.35241c-0.71818,1.01512 -1.95854,1.58673 -2.66601,2.60934c-1.59059,2.29911 -1.42555,6.17536 -1.42091,8.67131c0.00596,3.20732 -0.2473,7.41556 2.0552,10.13072c1.50295,1.7723 4.8978,3.31521 7.12127,4.65447c0.4882,-0.15308 1.08826,-0.16801 1.81729,0.07499c2.74737,0.91578 1.83159,3.66314 1.83159,3.66314l-0.81548,2.32823c0.01808,2.73719 -0.6267,5.43868 -0.9034,8.1619c-0.37156,3.65683 0.01923,7.60935 -0.0233,11.29802c1.66425,4.7515 4.43321,11.76162 8.85775,14.68123c2.10079,1.38624 6.23752,1.80117 8.55429,2.4631c1.96368,0.56105 3.98419,1.5082 6.03114,1.75964c2.48923,0.30576 5.03986,-0.33047 7.52379,0.0157c0.8903,0.12407 1.64383,0.89698 2.54273,0.89821c0.8669,0.00119 8.86434,-1.77971 9.68193,-1.84821c2.42449,-0.20315 4.91647,-0.04957 7.31089,0.46573c0.21727,-0.35009 0.42552,-0.55835 0.42552,-0.55835zM153.17434,179.97618c0.9179,-0.30596 5.88691,-2.002 6.47602,-2.002c3.497,0 11.25582,3.12999 13.42205,5.7717c0.81872,0.99842 0.93619,2.407 1.37261,3.62219c1.58697,4.41884 2.88635,8.23966 2.9287,12.96303l-1.77491,2.97446c0,0 -0.12289,0.12289 -0.33856,0.27835c-0.02941,0.1421 -0.06911,0.28975 -0.12023,0.4431c-0.91579,2.74736 -3.66315,1.83158 -3.66315,1.83158c-6.28332,-2.20082 -11.51835,1.05965 -17.84499,1.06647c-1.05502,0.00114 -1.9736,-0.80221 -3.01746,-0.95526c-2.40881,-0.35316 -4.88842,0.32179 -7.30366,0.0157c-3.11611,-0.39492 -4.17169,-1.15547 -6.94284,-1.94723c-2.90839,-0.83097 -7.40971,-1.37289 -9.97995,-3.09715c-5.90286,-3.95997 -9.46029,-12.23573 -11.52989,-18.68039c-0.03725,-4.15483 -0.42994,-8.66759 -0.0233,-12.79649c0.28005,-2.84349 0.93286,-5.66175 0.95,-8.51894l0.0317,-0.09872c-2.57937,-1.65612 -6.75936,-3.6153 -8.61129,-5.86122c-3.31771,-4.02354 -3.51265,-9.08751 -3.50506,-13.96386c0.00587,-3.77027 0.10282,-8.34568 2.28595,-11.71633c0.74899,-1.15642 2.08916,-1.83284 2.89425,-2.95092c0.89553,-1.24368 1.07133,-2.97764 2.155,-4.06132c1.08367,-1.08367 2.83796,-1.23189 4.06129,-2.15501c1.39485,-1.05255 2.30396,-2.66502 3.70686,-3.70683c0.17513,-0.13005 7.81399,-3.9679 8.10225,-4.07362c3.89768,-1.42946 7.78325,-1.01454 11.77145,-2.01161c1.9422,0.03419 3.93571,-0.34219 5.82661,0.10256c1.23219,0.28981 2.08164,1.45658 3.21332,2.02365c1.49655,0.74991 5.6656,1.37404 6.64143,1.93484c2.34689,1.34874 8.12132,7.0654 9.43367,9.43367c1.36873,2.47 0.87741,5.57952 1.2652,8.37665c0.15491,1.11739 0.98217,2.11607 0.96409,3.24401c-0.06893,4.30119 -3.08876,9.70441 -4.92804,13.31961c-0.52728,1.03639 -0.49224,2.36414 -1.22674,3.26561c-0.90202,1.10706 -2.3026,1.6902 -3.47521,2.50519c-3.37758,2.34748 -7.14062,4.61992 -10.99766,6.17556c-0.29377,0.76005 -0.94712,1.62568 -2.40014,1.71666c-1.39152,4.44497 -2.32419,8.48859 -2.94184,13.21982c-0.00469,0.03592 -1.57864,3.42414 -0.57282,4.37533c0.65163,0.61623 1.63163,0.79048 2.31469,1.37168c0.79098,0.67303 1.1295,1.86784 2.05239,2.34418c0.94625,0.4884 3.92052,-0.84417 4.56904,-1.03164c0.93499,-0.27029 1.87646,-0.51944 2.8164,-0.77344c0.36695,-1.44835 1.94277,-1.97361 1.94277,-1.97361z" fill="#000000"></path>
      </g>
      <g stroke="none" stroke-width="0.5">
        <path d="M258.89496,217.37011c-4.25922,8.0525 -3.83074,16.32865 -2.69242,25.43532c0.56397,4.51181 0.57304,10.09212 3.20476,14.15896c0.71202,1.10029 2.05209,1.69841 2.78314,2.78615c1.97239,2.93474 3.19341,7.04456 4.33125,10.46389c-0.01005,0.02421 -0.01965,0.04848 -0.02881,0.07258l-0.09694,0.00708c0,0 0.00003,0.09263 0.01648,0.24415c-0.39499,1.50399 0.83183,2.73531 0.83183,2.73531c3.52386,3.29699 2.21515,4.07891 2.89434,8.62257c0.28883,1.9322 1.58987,3.6306 1.85148,5.56667c0.98625,7.29895 1.48166,14.80369 0.01152,22.13338c-0.36224,1.80602 -0.50897,3.65627 -0.90525,5.45513c-0.90284,4.09829 -4.63189,8.4145 1.37012,11.50288c3.18445,1.63858 8.79592,-0.16946 12.49253,1.12533c1.32138,0.42572 3.21178,0.20722 3.92176,1.4002c0.324,0.54442 0.40551,1.4385 0.08151,1.98292c-0.27645,0.46452 -0.99077,0.43752 -1.49991,0.61912c-2.1814,0.77809 -5.58377,2.4754 -7.88787,2.49143c-2.90788,0.02023 -7.50159,-2.63648 -10.32007,-3.55749c-2.54898,-0.83294 -5.31375,-0.76775 -7.98039,-1.05083c-3.72359,-0.39528 -6.33272,-1.83434 -10.20137,-1.85025l-3.36116,-0.86103c0,0 -0.13115,-0.03262 -0.34342,-0.05569c-1.15987,-1.46499 -3.13137,-0.80804 -3.13137,-0.80804l-0.59428,0.97074c0.83722,-1.76156 -0.29118,-4.13414 -0.29118,-6.21272c0.58865,-1.73314 1.84851,-3.16729 2.56557,-4.85136c2.48448,-5.835 3.97283,-12.76622 5.67383,-18.88623c0.58305,-2.09773 2.56614,-3.70805 2.84478,-5.86739c0.75658,-5.86317 -5.07184,-14.38781 -9.51375,-17.63835c-1.11484,-0.81582 -2.57571,-1.05041 -3.70674,-1.84363c-1.24983,-0.87653 -1.95125,-2.48087 -3.35555,-3.0795c-1.33542,-0.56927 -2.8883,0.05556 -4.32371,-0.16124c-1.11545,-0.16848 -2.07779,-0.98124 -3.20575,-0.96316c-1.19657,0.01918 -6.22119,2.00811 -7.28039,2.40949c-0.69109,0.95868 -3.93035,5.31371 -4.55033,6.55668c-1.729,3.46634 -1.99835,7.64045 -3.71885,11.09852c-0.56385,1.13329 -1.68754,1.9916 -2.02523,3.21153c-1.57622,5.69421 0.93658,12.46471 1.74966,17.97156c0.97432,6.59889 -0.61971,12.84213 -2.67421,19.00581c0,0 -0.10386,0.30142 -0.14726,0.6016c-6.98428,3.39413 -16.01564,5.58389 -23.57031,6.82454c-1.8538,0.30444 -3.70243,-0.66326 -5.56219,-0.92893c-1.88681,-0.26954 -3.94379,0.11188 -5.68115,-0.67189c-0.81314,-0.36683 -2.33078,-0.7846 -2.11019,-1.64895c0.2484,-0.97329 5.06025,-2.88568 5.79429,-3.38061c3.66269,-0.93045 6.89311,-1.08142 8.92993,-5.40479c0.95074,-2.01806 -1.52649,-4.87148 -1.7631,-6.89131c-0.1797,-1.53402 0.18936,-3.10332 -0.00221,-4.63591c-0.40137,-3.21103 -1.35422,-5.96393 -0.91598,-9.38263c0.85039,-6.63385 2.34034,-11.68553 5.28043,-17.63079c0.82457,-1.66738 0.65642,-3.78655 1.71386,-5.31687c1.30537,-1.88912 2.94649,-3.63936 3.82543,-5.75038c5.44329,-8.39887 8.22658,-17.97609 12.16032,-27.153c1.14182,-2.66371 2.64731,-5.29646 2.9881,-8.17447c0.35466,-2.99509 0.38403,-6.05838 0.00483,-9.05046c-0.28737,-2.26745 -1.54343,-4.33509 -1.86823,-6.59748c-0.19341,-1.34721 0.30774,-2.77973 -0.08547,-4.08272c-0.00894,-0.02964 -0.01821,-0.05913 -0.02781,-0.08847c0.00231,-0.00652 0.00345,-0.00993 0.00345,-0.00993c0.51904,-1.55702 0.37168,-3.44837 1.41024,-4.71924c2.57069,-3.14571 7.07641,-3.51493 10.6826,-3.49781c3.40381,0.01616 7.29955,-0.5082 10.66645,-0.03798c3.19447,0.44614 6.09143,2.41564 9.38617,2.79676c5.0563,0.5849 9.83141,0.10673 14.26179,2.52559c0.1693,0.66821 0.6008,1.59063 1.69038,1.96563z" fill="#e36f00"></path>
        <path d="M210.73542,228.58885c-0.45872,0.12281 -0.81089,0.12281 -0.81089,0.12281l-3.67407,-3.81175c1.86099,-4.71194 -2.29889,-6.20798 2.84293,-10.6528c2.93347,-2.53583 8.46668,-1.53997 11.95166,-1.52122c2.12463,0.01143 4.18243,-0.91507 6.30708,-0.92114c6.34608,-0.01811 12.71324,2.0846 18.99955,2.78863c2.20769,0.24725 4.44997,0.19999 6.66442,0.0233c1.52404,-0.12161 3.30067,-1.55479 4.53917,-0.65835c4.99285,3.61387 2.38512,5.9483 0.54989,8.98969c0.1176,3.25428 0.66693,6.6785 1.02926,9.92752c0.14116,1.2658 0.99829,2.43523 0.9267,3.70686c-0.12711,2.25764 0.47149,5.52053 -1.50777,6.61396c-1.93397,1.06841 -4.34142,-1.15558 -6.19443,-2.35893c-2.24056,-1.45502 -3.08818,-5.93076 -6.20511,-6.68978c-1.04387,-0.2542 -2.15463,0.22947 -3.22148,0.10257c-1.26473,-0.15044 -2.44355,-0.76476 -3.70686,-0.9267c-2.45116,-0.31421 -4.96205,0.31071 -7.41366,0c-2.15214,-0.27275 -4.07543,-1.87821 -6.24433,-1.83387c-1.21538,0.02485 -2.3112,0.92975 -3.52683,0.92805c-2.82002,-0.00396 -5.58925,-0.93753 -8.40925,-0.92591c0,0 -2.89598,0 -2.89598,-2.89598c0,-0.00232 0,-0.00464 0.00001,-0.00696z" fill="#9f4d00"></path>
        <path d="M214.63847,297.39611l-0.11317,0.71408c2.32903,6.98717 2.96378,13.92959 2.92877,21.30345c-0.0066,1.38993 -0.16497,2.7856 -0.03739,4.16968c0.13036,1.41434 1.35031,2.87136 0.80735,4.18382c-1.25141,3.02495 -7.2894,5.46978 -10.16384,6.44108c-11.12799,3.76022 -22.21624,2.44118 -33.79054,1.65941c-1.07537,-2.09111 -3.68863,-3.96786 -3.22611,-6.27334c0.38037,-1.89597 3.20976,-2.26869 5.05551,-2.84541c3.56635,-1.11434 7.7341,1.16967 11.26648,-0.683c2.221,-1.16488 6.61958,-4.07552 8.46396,-5.91991c3.39664,-3.39664 4.77625,-8.99263 6.85999,-13.12526c2.34387,-4.64856 5.65254,-8.53064 7.26779,-13.54408c0,0 0.91578,-2.74737 3.66314,-1.83159c2.74737,0.91578 1.83159,3.66314 1.83159,3.66314c-0.24483,0.716 -0.51805,1.4103 -0.81352,2.08793z" fill="#9f4d00"></path>
        <path d="M248.84642,302.61698c0.218,0 0.41959,0.01641 0.606,0.04676c-0.09941,-3.61485 0.35171,-7.28359 1.21805,-10.82714c0,0 0.70237,-2.80951 3.51188,-2.10714c2.80951,0.70237 2.10714,3.51188 2.10714,3.51188c-1.79049,6.9762 -1.69601,14.76992 2.38026,20.85904c0.943,1.40865 2.23505,3.73853 3.74645,4.70318c0.90081,0.57494 2.18061,0.42158 3.01544,1.08872c0.96729,0.77299 1.29697,2.13012 2.14339,3.03385c1.03973,1.11014 3.15565,1.47347 3.47156,2.96131c1.01122,4.76259 -2.59262,7.67445 -6.83039,7.51708c-1.37475,-0.05105 -2.29681,-1.54781 -3.56735,-2.07533c-2.90665,-1.20682 -6.77784,-1.88459 -9.83193,-2.6481c-2.38322,-0.83077 -10.48204,-0.34566 -11.66678,-1.92496c-1.26284,-1.68343 0.09468,-4.22101 0.42883,-6.29876c0.8033,-4.99491 4.97823,-9.22112 6.52007,-14.00678l-0.1486,-0.93763c0,0 0,-2.89598 2.89598,-2.89598zM244.42396,322.58683c-0.30998,0.15057 -0.61089,0.30239 -0.70858,0.60485c-0.11972,0.37067 0.26306,-0.15555 0.70858,-0.60485z" fill="#9f4d00"></path>
        <path d="M257.18119,215.45746c-4.43038,-2.41886 -9.19256,-1.93671 -14.24886,-2.52161c-3.29474,-0.38113 -6.18269,-2.34968 -9.37716,-2.79583c-3.3669,-0.47023 -7.25283,0.05355 -10.65665,0.03739c-3.60619,-0.01712 -8.10183,0.3497 -10.67252,3.49541c-1.03856,1.27087 -0.88854,3.16126 -1.40758,4.71828c0,0 -0.00113,0.0034 -0.00344,0.00993c0.00959,0.02934 0.01887,0.05883 0.02781,0.08847c0.39321,1.30299 -0.10655,2.73494 0.08686,4.08215c0.3248,2.26239 1.5818,4.32962 1.86917,6.59707c0.3792,2.99209 0.35466,6.05296 0,9.04806c-0.34079,2.87801 -1.8371,5.50439 -2.97891,8.1681c-3.93374,9.17691 -6.69657,18.70832 -12.13985,27.1072c-0.87895,2.11103 -2.52091,3.85285 -3.82628,5.74197c-1.05744,1.53032 -0.89088,3.64279 -1.71545,5.31018c-2.94009,5.94526 -4.43709,10.98186 -5.28747,17.61571c-0.43824,3.4187 0.50963,6.16508 0.911,9.3761c0.19157,1.53259 -0.17971,3.09952 0,4.63354c0.23661,2.01982 2.70988,4.86959 1.75914,6.88765c-2.03682,4.32337 -5.34369,4.56134 -9.00638,5.49178c-0.73404,0.49493 -5.4665,2.32297 -5.7149,3.29626c-0.2206,0.86435 1.29567,1.28084 2.10881,1.64767c1.73736,0.78377 3.79173,0.40014 5.67854,0.66968c1.85976,0.26568 3.7054,1.23114 5.5592,0.9267c7.55467,-1.24066 16.5726,-3.43741 23.55687,-6.83154c0.04341,-0.30018 0.1076,-0.49277 0.1076,-0.49277c2.05451,-6.16368 3.64321,-12.40917 2.66888,-19.00806c-0.81308,-5.50684 -3.34276,-12.28968 -1.76653,-17.9839c0.33769,-1.21993 1.45978,-2.08001 2.02362,-3.2133c1.7205,-3.45806 1.97786,-7.6542 3.70686,-11.12054c0.61999,-1.24296 3.85944,-5.63067 4.55052,-6.58936c1.0592,-0.40138 6.12151,-2.42878 7.31809,-2.44795c1.12796,-0.01808 2.12862,0.79565 3.24407,0.96413c1.43541,0.2168 3.01581,-0.38622 4.35122,0.18305c1.40429,0.59863 2.11533,2.22979 3.36516,3.10633c1.13103,0.79322 2.59201,1.0376 3.70685,1.85342c4.44191,3.25054 10.25719,11.80785 9.50061,17.67101c-0.27864,2.15934 -2.27011,3.77791 -2.85316,5.87564c-1.70101,6.12002 -3.20785,13.06119 -5.69233,18.89618c-0.71706,1.68408 -1.98135,3.11945 -2.57,4.85259c0,2.07858 1.12724,4.45142 0.29002,6.21298l0.56918,-1.08383c0,0 1.96864,-0.65621 3.12851,0.80877c0.21227,0.02307 0.34311,0.05578 0.34311,0.05578l3.35833,0.86193c3.86865,0.01591 6.47025,1.45819 10.19385,1.85347c2.66664,0.28308 5.42659,0.22067 7.97557,1.05361c2.81848,0.921 7.40807,3.58062 10.31595,3.56039c2.30409,-0.01603 5.70224,-1.70973 7.88364,-2.48783c0.50913,-0.18161 1.22268,-0.15387 1.49913,-0.61838c0.324,-0.54442 0.32399,-1.35619 -0.00001,-1.90061c-0.70998,-1.19299 -2.60133,-0.97354 -3.92272,-1.39926c-3.69661,-1.29479 -9.31347,0.51783 -12.49792,-1.12075c-6.00201,-3.08838 -2.34693,-7.49355 -1.44409,-11.59184c0.39628,-1.79886 0.53973,-3.64584 0.90197,-5.45186c1.47015,-7.32969 0.96297,-14.81531 -0.02328,-22.11427c-0.26161,-1.93608 -1.56463,-3.62802 -1.85346,-5.56023c-0.67919,-4.54366 0.62787,-5.31299 -2.89599,-8.60998c0,0 -1.22673,-1.22675 -0.83174,-2.73074c-0.01646,-0.15152 -0.01646,-0.24374 -0.01646,-0.24374l0.09694,-0.00708c0.00916,-0.0241 0.01876,-0.04825 0.02882,-0.07246c-1.13784,-3.41932 -2.35442,-7.51046 -4.3268,-10.4452c-0.73105,-1.08774 -2.06815,-1.67984 -2.78017,-2.78013c-2.63172,-4.06683 -2.62701,-9.63085 -3.19098,-14.14266c-1.13832,-9.10668 -1.55562,-17.37567 2.70361,-25.42817c-1.08958,-0.375 -1.51908,-1.29649 -1.68838,-1.9647zM207.62307,210.15717c4.69866,-5.93891 12.30335,-5.77171 18.98224,-5.77171c0.5889,0 7.54391,-0.01108 7.8776,0.03739c3.14127,0.45629 5.95654,2.42471 9.15708,2.76443c6.56753,0.69712 12.17706,0.39093 17.93341,4.17154l0.86707,2.2432c0.55283,-0.06297 1.19752,0.05993 1.91302,0.53693c2.40961,1.60638 0.80322,4.01599 0.80322,4.01599c-5.10878,7.52123 -4.30971,15.44745 -3.24219,23.98772c0.44477,3.55817 0.16195,8.61088 2.36935,11.80531c0.74505,1.0782 2.05693,1.68718 2.78017,2.78013c2.22546,3.36311 3.63185,7.87069 4.91745,11.72722l0.12136,1.50452c0.90019,0.80666 1.85318,1.57445 2.43147,2.61805c1.36871,2.47 0.88741,5.57812 1.26519,8.37661c0.26137,1.93613 1.56445,3.6281 1.85347,5.56029c0.95961,6.41534 1.7528,13.70969 0.94239,20.27869c-0.4,3.24233 -1.20297,6.42349 -1.9171,9.61139c-0.23004,1.02692 -0.59866,2.02097 -0.98999,2.99787c-0.26524,0.66214 -1.16616,2.04904 -0.45411,2.09114c4.30138,0.25428 7.35687,-0.62887 11.59651,0.73264c5.47126,1.87083 10.06846,4.13726 7.19779,11.52758c-1.12117,2.88637 -7.39553,4.40521 -10.08396,5.12078c-1.52786,0.40666 -3.04666,1.04651 -4.6277,1.04013c-4.81904,-0.01944 -9.50647,-4.11472 -14.25343,-4.66882c-1.49769,-0.17482 -3.02567,0.18897 -4.52354,0.01569c-3.93916,-0.4557 -6.19818,-1.8709 -10.19379,-1.85346l-4.05539,-0.99146c0,0 -0.79231,-0.19807 -1.43024,-0.8046l-3.79609,0.58532c-2.59129,-4.85225 -3.41691,-6.84615 -3.41692,-12.32126c0.72522,-2.19837 2.0727,-4.14266 2.99033,-6.26793c2.4157,-5.59487 3.71204,-12.30409 5.42819,-18.17238c0.32056,-1.09614 0.58188,-2.22799 1.10569,-3.24282c0.39197,-0.7594 1.45845,-1.15952 1.60148,-2.00205c0.3261,-1.92096 -2.31719,-5.7536 -3.26299,-7.16645c-2.47973,-3.70424 -4.12459,-4.11668 -7.62413,-6.67074c-0.88648,-0.64698 -1.18753,-2.01876 -2.19503,-2.45393c-0.93882,-0.40551 -2.04855,0.31619 -3.0625,0.18305c-0.82,-0.10767 -1.48951,-0.86734 -2.31626,-0.88934c-1.33467,-0.03551 -2.50657,0.93744 -3.80243,1.25891c-0.89211,1.54799 -2.0622,2.93412 -2.8632,4.53116c-1.73075,3.4508 -1.96821,7.66088 -3.70687,11.12057c-0.43229,0.86019 -1.40743,1.42459 -1.68317,2.34696c-1.35039,4.5171 1.33076,10.98343 1.94026,15.37773c1.04508,7.53475 -0.52463,14.65644 -2.87558,21.72014c0.0844,0.28399 0.13288,0.61019 0.13288,0.98485c0,2.89598 -2.89598,2.89598 -2.89598,2.89598l0.36844,-0.30575c-7.19908,3.56478 -15.04671,4.76908 -22.79294,6.69576c-2.50928,0.62412 -5.12846,1.30699 -7.69422,0.98632c-0.96928,-0.12114 -1.81309,-0.78856 -2.78009,-0.9267c-4.66453,-0.66635 -13.77386,-1.12526 -12.60029,-8.80331c0.27978,-1.83046 1.62384,-3.42133 2.96592,-4.69715c1.66607,-1.58381 4.22763,-1.86132 6.14649,-3.12711c0.14103,-0.03466 5.26664,-1.04105 5.82107,-1.92194c0.24015,-0.38156 -0.72134,-0.59124 -0.90981,-1.0008c-0.47302,-1.02794 -0.88995,-2.11024 -1.03799,-3.23207c-0.20207,-1.53125 0.19157,-3.10098 0,-4.63358c-0.46373,-3.70988 -1.42184,-7.08478 -0.9424,-11.01154c0.87857,-7.19571 2.57373,-13.01444 5.83305,-19.45278c1.07705,-2.12756 0.59628,-3.65434 1.99148,-5.81041c1.08045,-1.66968 2.82159,-3.00442 3.40712,-4.90109l-0.13275,-0.06338c0,0 0,-2.1156 1.80823,-2.73035c4.04361,-6.60367 6.77102,-14.18983 9.48898,-21.43353c1.16306,-3.0997 3.21237,-6.21683 3.55187,-9.55161c0.53818,-5.28631 -1.13017,-9.03222 -1.83777,-14.00964c-0.25925,-1.82365 -0.30792,-3.86445 -1.40443,-5.34452c0,0 -1.60638,-2.40961 0.80322,-4.01599c0.62732,-0.41821 1.20019,-0.56422 1.70446,-0.55142c0.53372,-1.56526 1.11189,-3.18333 1.30733,-3.43036z" fill="#3e1e00"></path>
      </g>
      <g stroke="none">
        <path d="M242.7108,100.65171c0,1.72334 1.0278,2.42134 1.85831,2.7039c-0.00264,0.04919 -0.00264,0.07642 -0.00264,0.07642c0.05253,5.85682 -0.76766,12.12363 -2.64241,17.73378l-0.13882,2.65379c0,0 0.0063,2.89687 2.90227,2.89687c1.83556,0 2.51187,-1.16245 2.75798,-2.01448c0.02412,0.00905 0.03731,0.01344 0.03731,0.01344c2.51794,0.80864 5.25171,0.73554 7.87835,1.04322c1.94041,0.22729 3.63605,1.56975 5.56823,1.85877c5.06946,0.75829 10.41327,1.5277 15.52037,0.54861c0.38055,0.24313 0.87686,0.40934 1.52185,0.42677c0.07519,2.78165 2.89694,2.78571 2.89694,2.78571l-0.36869,-0.30621c3.3347,1.65123 6.98977,2.09211 10.22035,3.72601c3.47407,1.75705 7.55397,4.58426 10.55954,7.06089c4.37784,3.6074 5.91334,8.21621 7.39717,13.40967c0.99843,3.49455 2.27288,6.95772 2.6781,10.60462c0.85757,7.71783 -0.87809,15.35147 -0.94575,22.89858c0.04424,6.8355 -1.39008,13.89204 -3.56537,20.40995c-0.71624,2.14611 -1.22199,5.88442 -2.49949,7.73739c-1.83092,2.65567 -4.42973,4.66633 -6.79066,6.70081c-2.5592,2.20533 -4.31331,5.22212 -6.70377,7.60931c-2.60691,2.60333 -5.16553,4.81103 -7.60365,7.31391c1.07365,-4.6436 1.36255,-9.31821 1.36255,-14.6296c0,-4.50189 0.3093,-8.63574 -1.07939,-12.96008c0,0 -0.27001,-0.93482 -1.16266,-1.52389c-0.48685,-0.65761 -1.14463,-0.98627 -1.14463,-0.98627l-4.22602,-1.02392c-1.54452,0.61782 -3.09272,1.23806 -4.63723,1.85587c-2.69196,1.07832 -5.12039,2.89186 -7.93726,3.58086c-1.13508,0.27763 -2.35109,-0.20217 -3.50817,-0.03896c-0.96724,0.13645 -1.81202,0.81801 -2.78268,0.9276c-4.48858,0.5068 -9.1818,-0.43668 -13.68822,-0.02496c-1.77721,0.16237 -3.49526,0.91819 -5.27988,0.91744c-1.64892,-0.0007 -3.21603,-0.92206 -4.86496,-0.92167c-0.95473,0.00022 -1.75912,0.92039 -2.71387,0.92298c-1.12213,0.00303 -2.13002,-0.78176 -3.24508,-0.90762c-5.30779,-0.59908 -10.59032,-0.46422 -15.88282,-0.94288c-4.36561,-0.39483 -8.51398,-2.21306 -12.75842,-2.75812c-3.95982,-0.50851 -6.66833,-0.41224 -10.48201,-1.67512c-4.54032,-2.27016 -10.26201,-4.07022 -13.95311,-7.77731c-2.71959,-2.73136 -5.5841,-7.88226 -6.6008,-11.58683c-0.80198,-2.92216 -0.38043,-6.06567 -0.88287,-9.05394c-1.07189,-6.3751 -1.42786,-13.18277 -0.89819,-19.6747c0.43332,-5.31107 1.77683,-10.20253 1.8598,-15.55599c0.72968,-2.51183 0.97858,-5.82129 2.86393,-7.67547c2.34367,-2.30492 6.98362,-2.93414 9.99036,-3.93967c4.14472,-1.3861 9.14093,-2.98792 13.45276,-3.60404c2.44639,-0.34957 4.96848,0.33545 7.41629,-0.00407c5.82017,-0.80727 12.42784,-1.09323 18.07519,-2.90681c1.85346,-0.6178 3.71576,-1.24039 5.56921,-1.85822l0.93893,0.14805c0,0 1.15775,-0.00131 2.00883,-0.72993c0.32433,0.78605 1.04537,1.65426 2.63202,1.65426c2.89598,0 2.90221,-2.89721 2.90221,-2.89721c0,-1.07448 0.01076,-8.42814 -0.03571,-8.80451c-0.0195,-0.15797 -0.06237,-0.31097 -0.11914,-0.46089c0.15644,-0.51481 0.15679,-0.9287 0.15679,-0.9287l0.00038,-2.78017c-0.0047,-1.33074 0.64346,-2.71371 -0.00293,-3.87692c-0.04218,-0.07591 -0.08959,-0.14626 -0.14188,-0.21166c0.00212,-0.0174 -0.00676,-0.15012 -0.00469,-0.16753l0.0937,-0.01873l-0.04806,-0.17886c0.00359,-0.03505 -0.00372,-0.18544 -0.00034,-0.22051c0.25865,-0.09433 2.68512,-0.93798 1.81784,-3.53979c-0.72325,-2.16977 -2.58555,-2.05501 -3.33804,-1.91073c-0.53095,-0.61051 -1.31133,-0.99673 -2.18395,-0.99673c-0.92896,0 -1.75329,0.43697 -2.28322,1.11705c-4.35871,-1.99267 -6.44203,-10.49769 -6.90492,-14.37395c-0.49695,-4.16156 0.49068,-5.10003 3.01626,-8.01181c2.40173,-2.76897 2.26479,-4.11672 5.54829,-5.77023c2.01135,-1.01288 5.09919,-0.64791 7.10073,-0.64592c5.10817,0.00504 8.53126,0.30682 12.07331,3.97762c5.55118,3.28959 6.61811,15.12156 1.6231,19.92143c-1.46973,1.41232 -3.41856,2.21506 -5.11455,3.34572l-0.2467,-0.48634c0,0 -2.89326,0.00025 -2.89326,2.89622z" fill="#e36f00" stroke-width="0.25"></path>
        <path d="M226.14199,166.62193c-0.57783,0 -1.04036,-0.11529 -1.41061,-0.29986l-0.4538,0.15126l-0.068,-0.204l-0.38389,0.31522c-6.10307,0.03659 -11.04282,2.70416 -17.013,2.81549c-0.04321,0.00136 -0.08709,0.00204 -0.13165,0.00204c-1.00576,0 -1.66222,-0.3493 -2.0907,-0.80528c-0.45598,-0.42848 -0.80528,-1.08494 -0.80528,-2.0907c0,-0.01294 0.00006,-0.02583 0.00017,-0.03866c0.03283,-8.45361 -3.20319,-18.71184 4.68602,-25.30019c2.65847,-2.22011 5.37492,-2.58772 8.52062,-3.38957c1.32504,-0.33776 2.62821,-1.25731 3.97425,-1.01656c4.3734,0.78218 8.80587,6.59198 9.84774,10.54538c1.36005,5.16077 -0.6054,11.18158 -1.84791,16.13729c-0.00448,0.01973 -0.00917,0.03939 -0.01405,0.05895l0.08603,0.22322c0,0 0,2.89598 -2.89598,2.89598zM225.17688,148.6372c-0.34848,-1.52546 -3.22773,-5.90349 -4.97956,-6.13539c-0.5926,-0.07845 -1.01898,0.64782 -1.58608,0.83683c-1.98839,0.66275 -4.57282,0.73101 -6.30683,2.17068c-1.58326,1.31451 -2.11691,3.5416 -2.94784,5.42421c-1.67194,3.78804 -0.53845,8.30893 -0.00953,12.51195c1.30826,-0.17419 2.58878,-0.46733 3.8666,-0.79486c0.60927,-1.82063 2.73453,-1.82063 2.73453,-1.82063l1.28545,0.05624c1.63872,-0.32295 3.25844,-1.173 4.91614,-0.96884c0.09549,0.01176 0.1906,0.02513 0.28536,0.04001v-0.05411h1.47805c0.98514,-3.62825 2.08075,-7.68944 1.26371,-11.26609z" fill="#262626" stroke-width="0.5"></path>
        <path d="M223.95415,159.94422l-1.48317,0.00456l-0.00017,0.05424c-0.09476,-0.01489 -0.19094,-0.02744 -0.28642,-0.03919c-1.6577,-0.20415 -3.31012,0.65735 -4.94883,0.98029l-1.29485,-0.05669c0,0 -2.13875,-0.00344 -2.74801,1.81719c-1.27782,0.32753 -2.57146,0.61351 -3.87973,0.7877c-0.52892,-4.20302 -1.68428,-8.78571 -0.01234,-12.57375c0.83092,-1.8826 1.38981,-4.14384 2.97308,-5.45835c1.73402,-1.43967 4.35888,-1.51592 6.34727,-2.17867c0.5671,-0.18901 1.00082,-0.91354 1.59342,-0.83509c1.75183,0.2319 4.66524,4.63824 5.01372,6.1637c0.81704,3.57665 -0.2888,7.70581 -1.27395,11.33406z" fill="#ffffff" stroke-width="0.25"></path>
        <path d="M267.76555,162.33539c-0.04409,-4.91627 0.36872,-9.75918 -0.8486,-14.48057c-0.24086,-0.93418 -0.03966,-2.00791 -0.51342,-2.8483c-0.48356,-0.85778 -4.23367,-1.54233 -4.4736,-1.57408c-3.62867,-0.48037 -6.12883,1.3704 -8.71897,3.80705c-3.66863,3.45124 -2.24385,12.07029 -1.17516,16.37981c4.35905,0.048 8.28759,0.30487 12.48364,1.24135c0.6747,-0.23168 1.35272,-0.39828 2.04408,-0.3021c0.11851,0.01648 0.23645,0.03535 0.35383,0.05641v-0.07811h0.07713zM246.50029,165.35506c-1.35506,-5.54261 -2.24656,-13.09346 0.1611,-18.55477c3.59665,-8.15835 18.22696,-13.82904 24.47657,-5.13023c0.92539,1.28805 0.87748,3.04835 1.33998,4.56542c1.67062,5.47997 1.04666,11.31906 1.00479,17.02767l-0.71403,2.22348c0.4669,0.51417 0.75142,1.19696 0.75142,1.9462c0,1.37819 -0.96273,2.53153 -2.25237,2.8242l-3.64803,0.912l-0.07752,-0.31008l-0.62485,0.39655c-0.47911,-0.11009 -0.9517,-0.21461 -1.41892,-0.31374c-0.53386,0.06568 -1.08496,0.09879 -1.58558,0.22728l-2.55583,0.08646c0,0 -1.79321,0 -2.55748,-1.41107c-2.74382,-0.30847 -5.50524,-0.44235 -8.56303,-0.44235c0,0 -2.67207,0 -2.88282,-2.56669c-0.64475,-0.64571 -0.85339,-1.48032 -0.85339,-1.48032z" fill="#262626" stroke-width="0.5"></path>
        <path d="M267.02879,164.58352l-0.07735,0.00016l-0.00016,0.07823c-0.11738,-0.02106 -0.23626,-0.03926 -0.35477,-0.05575c-0.69136,-0.09618 -1.37716,0.07496 -2.05187,0.30664c-4.19605,-0.93649 -8.18502,-1.19952 -12.54406,-1.24752c-1.06868,-4.30952 -2.49675,-13.01782 1.17189,-16.46906c2.59014,-2.43665 5.14255,-4.30042 8.77122,-3.82005c0.23993,0.03175 4.01186,0.72686 4.49542,1.58463c0.47376,0.84039 0.2817,1.92301 0.52257,2.85719c1.21732,4.72139 0.80128,9.64154 0.84537,14.55781z" fill="#ffffff" stroke-width="0.25"></path>
        <path d="M236.24005,120.79943c0.00058,-0.01903 0.00112,-0.03773 0.00165,-0.05608c0.03244,-1.1352 -0.11026,-6.72341 0.0157,-7.5237c0.19583,-1.2443 0.61588,-2.4643 1.18377,-3.58862c0.3709,-0.73432 1.39896,-1.09071 1.58455,-1.89218c0.12664,-0.5469 -0.62802,-0.9468 -0.80371,-1.47997c-0.83318,-2.52837 -1.69657,-1.8157 -4.65537,-2.80197c0,0 -2.30061,-0.76687 -1.98955,-3.00236l-0.35622,-0.41305l-0.19833,0.29749l-2.1937,-1.4625c-3.63794,-0.35172 -7.14418,-1.47887 -9.85352,-3.17106c0,0 -2.40959,-1.60642 -0.80316,-4.01601c1.60642,-2.40959 4.016,-0.80316 4.016,-0.80316c1.48002,1.09651 3.51961,1.15368 5.34441,1.40443c1.26888,0.17436 2.52929,0.6794 3.79087,0.88931h1.99021c6.87933,-1.22074 10.32722,-7.5828 12.32208,-13.77392v0l0.90558,-2.71678c0.36393,-1.18337 1.46576,-2.04355 2.76848,-2.04355c0.84528,0 1.60597,0.36214 2.13539,0.93974c0.58987,0.08107 1.01312,0.2927 1.01312,0.2927l3.30572,2.60119c0.35843,1.23197 1.0753,2.41286 1.0753,3.69591c-0.00001,3.91635 -2.54439,8.80893 -5.70994,12.21418c-1.01988,2.2491 -2.49677,4.206 -4.57801,5.4364c0.61633,0.21354 1.13817,0.62938 1.48608,1.16809l1.82848,2.74276l-0.29749,0.19832l0.65959,0.56886c0.11438,5.46458 -0.58345,16.23167 -5.73706,19.88723c-0.92959,0.65938 -2.09811,0.82157 -3.24449,1.03418c-0.24284,0.47697 -0.54887,0.92818 -0.93245,1.34641c-1.1815,1.28823 -3.26994,1.23669 -4.90492,1.85503l-0.78413,-0.54364l-0.13168,0.39503l-2.71681,-0.90561c-1.18336,-0.36394 -2.04353,-1.46576 -2.04353,-2.76848c0,-1.3782 0.96273,-2.53155 2.25238,-2.82421l3.54876,-0.88717c0.22691,-0.11907 0.46307,-0.21468 0.70594,-0.29323zM242.78589,101.88861c0.07465,-0.31297 0.20009,-0.60624 0.36715,-0.87059c-0.23094,0.03366 -0.46875,0.06172 -0.7124,0.08475c0.10536,0.21877 0.22198,0.4853 0.34525,0.78585z" fill="#9f4d00" stroke-width="0.5"></path>
        <path d="M310.46187,195.26695c2.74737,0.91578 1.83159,3.66314 1.83159,3.66314l-0.92671,2.78016c-0.92944,2.78814 -1.72897,5.06425 -3.08527,7.46118c-0.81106,5.63111 -2.71344,11.9502 -5.76293,15.70014c-2.48646,3.05758 -5.83167,5.40837 -8.39224,8.40183c-1.37137,1.60322 -3.87504,5.74964 -5.91201,6.82911c-0.08476,0.04492 -0.17013,0.08834 -0.25607,0.13036l0.02645,0.03967l-2.74722,1.83147c-0.46612,0.32065 -1.03081,0.50834 -1.63934,0.50834c-1.5994,0 -2.89598,-1.29657 -2.89598,-2.89598c0,-0.34393 0.05996,-0.67386 0.16999,-0.97991l0.67396,-2.02192c-1.07455,-2.96148 -1.32888,-6.98664 -1.14531,-10.58097c-0.19613,-3.30064 -0.16289,-6.98291 0.1335,-10.12278c-0.20109,-2.837 0.02843,-5.749 0.67051,-8.49931c-0.05481,-0.2193 -0.11946,-0.4484 -0.19499,-0.68922c-0.65206,0.34971 -1.30702,0.65232 -1.96499,0.91475c-0.17364,1.09891 -0.96536,1.9923 -2.00794,2.31293l-2.71681,0.90558v0c-0.50223,0.16129 -1.01456,0.31148 -1.53505,0.45099c-0.51765,0.28219 -1.19306,0.34756 -1.82752,0.4401c-0.44304,0.09532 -0.89012,0.18369 -1.34013,0.26535c-3.14339,0.64665 -6.34412,1.00955 -9.4784,1.70177c-3.68468,0.81378 -5.15445,1.68647 -9.0759,1.02515c-3.16131,0.19258 -5.50777,1.31958 -8.7031,1.78814c-6.02177,0.88302 -11.70136,1.20829 -17.71262,-0.01885c-1.72692,-0.35253 -3.71066,-0.10827 -5.17384,-1.09093c-0.15654,-0.10513 -0.30719,-0.21678 -0.45266,-0.33414l-0.04548,0.06822l-2.74279,-1.82848c-0.24603,-0.15888 -0.46643,-0.35406 -0.65364,-0.57793c-2.45556,-0.13838 -4.95336,0.4008 -7.39832,0.09095c-3.52128,-0.44627 -6.68566,-2.40224 -10.19382,-2.78013c-0.13273,-0.0143 -8.2496,0.07644 -8.45047,-0.0157c-0.14255,-0.06538 -0.28209,-0.13556 -0.41896,-0.21003l-0.03294,0.09882l-2.71681,-0.90558c-0.92631,-0.28487 -1.65458,-1.02187 -1.92728,-1.95344c-1.70657,-0.47265 -3.37604,-1.08662 -4.9796,-1.9204c-2.21641,-1.15244 -3.64255,-3.42087 -5.40899,-5.18731c-0.78756,-0.78756 -1.99885,-1.05967 -2.78017,-1.85343c-2.61526,-2.6569 -2.84699,-5.01191 -6.04558,-7.05185c0,0 -2.4096,-1.60639 -0.80321,-4.01599c1.60639,-2.4096 4.01599,-0.80321 4.01599,-0.80321c1.07385,0.73842 2.30001,1.29375 3.22154,2.21527c1.5751,1.5751 2.11697,4.00003 3.7068,5.56026c0.79493,0.78012 1.99261,1.06587 2.78017,1.85343c1.32351,1.32351 2.16406,3.28391 3.85813,4.07982c5.13015,2.41025 10.44318,2.67599 15.8724,3.44979c3.33432,0.47522 6.68688,1.45278 10.08377,1.8377c5.86809,0.66494 11.30649,-0.40881 17.13662,1.02052c3.41159,1.18926 6.56784,0.82002 10.18439,0.81136c2.25053,-0.47903 4.53451,-0.92685 6.61347,-0.92685c0.00445,0 0.00891,0 0.01336,0.00001c0.76869,-0.05551 1.53698,-0.05476 2.30399,0.03739c0.3885,0.04667 0.76264,0.11326 1.12533,0.19521c4.57169,-0.57764 9.07014,-1.40634 13.70099,-2.04864c6.75057,-0.9363 14.27553,0.80138 20.1719,-3.25788l3.45979,-0.48637c0,0 2.68551,-0.00001 2.88436,2.58608c0.19173,0.19382 0.34438,0.40007 0.46235,0.58789c2.0327,1.08195 1.25405,3.41795 1.25405,3.41795c-0.07126,0.20344 -0.13869,0.40978 -0.20234,0.61868c0.23115,2.38565 -0.19515,4.4388 -0.61315,7.2698c-0.04521,0.30623 -0.08182,0.61751 -0.11101,0.93294c0.03073,0.30995 0.06777,0.61674 0.11101,0.91944c0.15953,1.11675 0.96409,2.11595 0.96409,3.24404c0,1.12808 -0.80456,2.12726 -0.96409,3.244c-0.00615,0.04306 -0.0122,0.08622 -0.01815,0.12947c0.03227,0.74639 0.05554,1.47887 0.05554,2.18678c0,0.20367 0.06891,0.67169 0.11745,1.2462c1.32246,-1.22836 2.86093,-2.27474 3.8441,-3.7793c0.34978,-0.53527 3.82766,-5.75786 4.0687,-6.00165c2.05312,-2.07662 3.56709,-1.645 5.14455,-4.10829c1.13533,-1.77288 1.67832,-3.88452 2.83405,-5.64417c0.07238,-0.10655 0.14289,-0.21247 0.21164,-0.31781c0.1591,-1.25655 0.242,-2.48099 0.22868,-3.63608v-0.9267c0,0 0,-2.89598 2.89598,-2.89598c0.02516,0 0.05011,0.00022 0.07483,0.00065l0.88466,-2.65402c0,0 0.91578,-2.74737 3.66314,-1.83159z" fill="#9f4d00" stroke-width="0.5"></path>
        <path d="M242.70696,100.70953c0,-2.89598 2.89598,-2.89598 2.89598,-2.89598l0.247,0.48637c1.69599,-1.13066 3.64922,-1.9327 5.11895,-3.34503c4.99501,-4.79987 3.90946,-16.51758 -1.64172,-19.80717c-3.54204,-3.6708 -6.95649,-3.97212 -12.06466,-3.97716c-2.00154,-0.00198 -5.08445,-0.36728 -7.0958,0.64561c-3.2835,1.65351 -3.14209,3.0006 -5.54381,5.76957c-2.52558,2.91178 -3.50969,3.84947 -3.01274,8.01103c0.46288,3.87626 2.521,12.26826 6.87971,14.26093c0.52993,-0.68008 1.35673,-1.11748 2.28569,-1.11748c0.87263,0 1.6551,0.38595 2.18604,0.99646c0.75249,-0.14428 2.61816,-0.25932 3.34141,1.91045c0.86728,2.60181 -1.55075,3.56097 -1.80939,3.6553c-0.00338,0.03506 -0.00687,0.07012 -0.01046,0.10517l0.05883,0.2942l-0.09359,0.01872c-0.00207,0.01741 -0.00417,0.03481 -0.00629,0.05221c0.05229,0.0654 0.09984,0.13574 0.14202,0.21165c0.64639,1.16321 0.00939,2.66148 0.0141,3.99222v2.78013c0,0 0,0.41385 -0.15644,0.92866c0.05677,0.14992 0.09955,0.30293 0.11905,0.4609c0.04646,0.37637 0.03739,7.72982 0.03739,8.8043c0,0 0,2.89598 -2.89598,2.89598c-1.58665,0 -2.304,-0.86929 -2.62833,-1.65534c-0.85108,0.72862 -2.00523,0.72862 -2.00523,0.72862l-0.9376,-0.14861c-1.85345,0.61783 -3.7069,1.23563 -5.56035,1.85344c-5.64735,1.81358 -12.2392,2.08407 -18.05937,2.89134c-2.44781,0.33951 -4.96733,-0.34957 -7.41372,0c-4.31183,0.61612 -9.30408,2.20955 -13.4488,3.59564c-3.00674,1.00553 -7.64488,1.62904 -9.98854,3.93396c-1.88535,1.85418 -2.13292,5.15712 -2.8626,7.66895c-0.08296,5.35345 -1.42606,10.23233 -1.85938,15.5434c-0.52966,6.49193 -0.17683,13.28472 0.89507,19.65982c0.50244,2.98826 0.07838,6.12574 0.88035,9.0479c1.01671,3.70458 3.87618,8.84702 6.59577,11.57838c3.69111,3.70708 9.4052,5.49852 13.94553,7.76868c3.81368,1.26288 6.51635,1.16184 10.47617,1.67035c4.24443,0.54506 8.38335,2.35781 12.74897,2.75264c5.2925,0.47866 10.56125,0.33944 15.86904,0.93853c1.11505,0.12586 2.11976,0.91017 3.24189,0.90714c0.95475,-0.00258 1.75662,-0.92302 2.71135,-0.92324c1.64892,-0.00038 3.21127,0.92078 4.86019,0.92148c1.78462,0.00075 3.49749,-0.75483 5.27471,-0.9172c4.50642,-0.41172 9.18708,0.53432 13.67565,0.02752c0.97066,-0.1096 1.81285,-0.79025 2.78009,-0.9267c1.15708,-0.16322 2.37031,0.31771 3.50539,0.04008c2.81687,-0.689 5.23828,-2.49888 7.93024,-3.5772c1.54452,-0.61782 3.08904,-1.23562 4.63356,-1.85344l4.22409,1.02536c0,0 0.6576,0.32881 1.14444,0.98642c0.89266,0.58906 1.23454,1.61473 1.23454,1.61473c1.38869,4.32434 1.07531,8.46114 1.07531,12.96302c0,5.31138 -0.34774,9.88637 -1.42139,14.52998c2.43812,-2.50288 4.99127,-4.7073 7.59818,-7.31064c2.39047,-2.38719 4.13955,-5.40016 6.69875,-7.60549c2.36094,-2.03448 4.95529,-4.04094 6.78621,-6.69661c1.27751,-1.85297 1.78003,-5.5876 2.49627,-7.73371c2.17529,-6.5179 3.60249,-13.56309 3.55825,-20.39859c0.06766,-7.54711 1.79835,-15.16461 0.94079,-22.88245c-0.40522,-3.6469 -1.68034,-7.10169 -2.67877,-10.59624c-1.48383,-5.19346 -3.01812,-9.79008 -7.39595,-13.39748c-3.00557,-2.47663 -7.08277,-5.29471 -10.55684,-7.05176c-3.23058,-1.6339 -6.88189,-2.0669 -10.2166,-3.71813l0.36843,0.30573c0,0 -2.81926,0 -2.89445,-2.78165c-0.64499,-0.01743 -1.14042,-0.18239 -1.52098,-0.42552c-5.1071,0.97909 -10.44,0.22122 -15.50947,-0.53708c-1.93217,-0.28902 -3.61984,-1.6261 -5.56025,-1.85339c-2.62664,-0.30768 -5.34766,-0.22933 -7.8656,-1.03796c0,0 -0.01312,-0.00438 -0.03724,-0.01343c-0.24611,0.85203 -0.91823,2.01547 -2.75379,2.01547c-2.89598,0 -2.89598,-2.89598 -2.89598,-2.89598l0.14861,-2.76921c1.87475,-5.61015 2.68401,-11.76165 2.63148,-17.61847c0,0 0,-0.02723 0.00264,-0.07642c-0.83051,-0.28255 -1.85604,-0.98037 -1.85604,-2.70371zM215.85399,81.82146c0.42659,-3.02131 2.41894,-5.70427 4.39338,-8.03062c1.0435,-1.22949 1.76242,-2.73455 2.92016,-3.85713c4.96172,-4.811 11.51156,-5.28205 18.08721,-4.54098c5.26735,0.59362 8.04605,1.68454 11.74448,5.27587c8.14875,5.86294 9.38873,20.87337 2.06521,28.38184c-0.18338,0.18802 -3.22397,2.22 -4.9215,3.35018c0.20938,0.58645 0.20938,1.08905 0.20938,1.08905c-0.03826,5.21569 -0.56019,10.53416 -1.82969,15.64902c0.45708,0.03146 0.7763,0.13787 0.7763,0.13787c2.20508,0.77239 4.64535,0.50984 6.96171,0.81551c1.93689,0.25559 3.62419,1.59179 5.56027,1.8534c4.90841,0.66325 10.46929,1.80367 15.30117,0.11122l3.69162,3.55829c0.00287,-0.00003 0.00434,-0.00003 0.00434,-0.00003l2.22182,0.30573c3.33525,1.6865 6.87693,2.0628 10.17104,3.6956c3.80352,1.8853 8.43304,5.0422 11.6842,7.77561c9.84698,8.27885 12.18054,23.52766 12.18054,35.6012c0,0.65731 0.01133,9.33288 -0.03739,9.731c-0.24654,2.01444 -0.91271,3.99378 -0.88931,6.02312c-0.04006,7.4962 -1.47502,15.08023 -3.85547,22.23015c-0.8799,2.64288 -1.55806,6.63146 -3.06406,8.94714c-2.07846,3.19592 -5.22667,5.73182 -8.04111,8.13078c-2.42708,2.06878 -4.02172,4.96535 -6.2753,7.22189c-1.07273,1.07414 -2.5774,1.64907 -3.65082,2.72251c-0.80618,0.80619 -1.10338,2.03146 -1.90943,2.83778c-0.78743,0.78769 -1.99084,1.06762 -2.78016,1.8534c-1.77667,1.7687 -2.63344,4.57209 -4.84531,5.75211c-0.08461,0.04513 -0.16983,0.08876 -0.25565,0.13096l0.02604,0.03905l-2.74715,1.83144c-0.46612,0.32065 -1.03082,0.50834 -1.63934,0.50834c-1.5994,0 -2.89598,-1.29657 -2.89598,-2.89598c0,-0.34394 0.05996,-0.67386 0.16998,-0.97991l0.90532,-2.716l0.0286,0.00953l-0.00051,-0.08983c2.83415,-7.06283 3.53017,-12.75372 3.53017,-20.31829c0,-3.71213 0.46946,-7.2937 -0.67806,-10.83475c-1.23028,0.49212 -2.46056,0.98423 -3.69084,1.47635c-2.95771,1.18133 -5.66405,3.05118 -8.75061,3.83652c-1.26262,0.32127 -2.61889,-0.1463 -3.90834,0.04008c-0.96678,0.13974 -1.80907,0.82037 -2.78009,0.9267c-4.66586,0.51093 -9.45738,-0.39476 -14.12571,0.02752c-1.96541,0.17779 -3.87237,0.93537 -5.84581,0.93619c-1.50146,0.00063 -2.90546,-0.93155 -4.40693,-0.93191c-0.999,-0.00024 -1.84998,0.93245 -2.84897,0.93016c-1.42593,-0.00327 -2.75435,-0.79119 -4.17183,-0.94627c-5.22389,-0.57147 -10.44292,-0.44006 -15.63911,-0.91487c-4.49143,-0.41041 -8.83771,-2.27905 -13.19901,-2.80769c-4.2906,-0.52007 -7.57932,-0.63388 -11.76487,-2.03644c-5.20518,-2.60259 -11.46451,-4.68122 -15.70937,-8.91217c-3.48729,-3.47585 -6.9502,-9.58869 -8.23154,-14.3696c-0.82289,-3.07035 -0.44437,-6.35191 -0.97305,-9.48635c-1.15517,-6.84884 -1.52788,-14.14454 -0.95848,-21.11546c0.4342,-5.31573 1.85566,-10.14316 1.8436,-15.51524c0,0 0,-0.18538 0.0469,-0.46234c0.04308,-0.27757 0.10171,-0.45344 0.10171,-0.45344c1.22752,-3.67334 1.5169,-7.48364 4.40647,-10.39911c3.10039,-3.12818 8.22254,-3.99399 12.2525,-5.33316c8.05768,-2.67758 16.33245,-3.71592 24.54641,-4.74478c4.75088,-0.59508 9.8189,-0.14621 14.37548,-1.74222c1.85344,-0.61779 3.70687,-1.23561 5.56031,-1.85342l2.76919,-0.14861c0,0 1.01941,0 1.84859,0.60482c0.07255,-1.55882 0.1217,-3.11602 -0.07362,-4.65865c-0.13721,-1.08376 -0.95961,-2.04046 -0.96196,-3.13287c-0.00412,-1.91708 0.61658,-3.79171 0.86302,-5.6924l-0.01831,-0.09158c-9.49041,-1.97124 -14.03198,-16.12325 -12.87243,-24.33579z" fill="#3e1e00" stroke-width="0.5"></path>
      </g>
      <text transform="translate(101.34441,44.40001) scale(0.97671,0.97671)" font-size="40" xml:space="preserve" fill="#000000" stroke="#000000" stroke-width="3" font-family="&quot;JetBrains Mono&quot;, Sans Serif" font-weight="normal" text-anchor="start">
        <tspan x="0" dy="0"> !</tspan>
      </text>
    </g>
  </g>
</svg>
