<?xml version="1.0" encoding="UTF-8"?>
<svg xmlns="http://www.w3.org/2000/svg" xmlns:xlink="http://www.w3.org/1999/xlink" version="1.1" width="373.95051" height="379.6595" viewBox="0,0,373.95051,379.6595">
  <g transform="translate(-41.99697,-8.17947)">
    <g stroke-miterlimit="10">
      <path d="M383.66195,222.1269c-4.5185,-3.03898 -9.1418,-5.62049 -13.8807,-8.32818c1.07432,-7.2091 2.17854,-14.5694 -0.98986,-20.89763c-0.86611,-1.01205 -1.52508,-2.2398 -2.59272,-3.03638c-4.47645,-3.33994 -11.13659,-2.43599 -14.36294,2.23003c-0.68164,0.9858 -0.71851,2.28153 -1.08886,3.42139c-1.45098,4.46582 -2.37654,8.90532 -2.98442,13.39246l-1.12074,-0.27143c-1.20001,-0.4 -2.39984,-0.80077 -3.59984,-1.20077c0,0 -0.16512,-0.05503 -0.42274,-0.0925c0.22555,-1.23756 0.44148,-2.48889 0.52941,-3.78715c0.23172,-3.42119 0.44338,-6.22241 -0.00542,-9.66086c-0.18664,-1.4299 0.11788,-3.02804 -0.57995,-4.28998c-0.89374,-1.61624 -2.05247,-3.48611 -3.86771,-3.82653c-1.28238,-0.24049 -2.36583,0.08847 -3.28266,0.7589c0.06942,-0.56539 0.08314,-1.20114 0.20099,-1.7808c0.4943,-2.48746 1.03639,-6.68135 2.212,-9.02178c1.55694,-3.09957 4.62562,-5.70538 6.83985,-8.24204c3.40895,-3.90537 6.80637,-6.44813 11.38568,-9.08449c2.73082,-1.57217 5.12795,-3.83651 8.33229,-4.42541c0.86692,0.63006 1.9952,0.42513 1.9952,0.42513c3.62718,-0.6919 7.94705,-0.4478 11.59321,0.25655c1.94713,0.37614 3.88095,1.32863 5.85125,1.10338c2.81273,-0.32155 4.02274,-1.52188 6.11795,-3.22188c0.14528,-0.11788 0.32264,-0.26698 0.51145,-0.43505c-0.16054,1.55951 -0.06901,3.32763 -0.06516,3.44936c0.04539,1.43321 -0.68314,3.19445 0.23484,4.29603c1.03346,1.24015 3.02498,1.18351 4.60608,1.50923c1.54749,0.31879 3.57322,0.53979 5.14675,0.00383c-1.52282,1.94677 -3.66386,3.88048 -4.28581,6.1635c-1.42067,5.21493 2.58026,9.88609 4.03035,14.52097c1.2432,3.9736 1.74335,8.08964 1.77919,12.25447l-0.73281,2.60965c0,0 -0.65586,2.41628 1.75605,3.07408c0.06029,0.01645 0.11953,0.0311 0.17764,0.04379c-0.62359,2.38931 -1.60931,4.65714 -1.93192,7.14851c-0.51561,3.98182 -1.00534,7.69968 -2.3189,11.62456c-0.70021,2.80068 -1.86998,5.6414 -2.64143,8.49044l-0.1056,-0.05125c-0.00478,-0.00159 -0.00956,-0.00318 -0.01435,-0.00477c-0.07229,3.07145 -0.6903,5.66866 -1.2358,8.54852c-0.1303,0.92028 -0.27129,1.84 -0.42482,2.75442c-0.19173,2.46605 0.15419,5.21387 0.15419,7.61138l-1.67335,1.19534l0.45662,0.61228c-0.69684,1.2389 0.18345,2.56204 0.18345,2.56204c0.42105,0.63157 0.84209,1.26315 1.26315,1.89472c-0.16538,0.6968 -0.00902,1.32528 -0.00902,1.32528l0.00212,0.00844l-0.07689,0.18531c0,0 -0.00036,0.88182 0.52315,1.59796l0.37578,1.5015c1.76496,4.28711 -2.67405,7.49428 -5.14068,10.51994c-4.93127,6.04889 -13.6695,8.3653 -21.38597,6.38835c-1.22192,-0.40834 -2.54142,-0.95964 -3.86683,-1.44638c-0.85751,0.01884 -1.72569,0.05128 -2.63784,-0.10028c-3.07355,-0.51068 -5.1514,-2.30299 -8.22911,-2.47281c0.28696,0.21678 0.57836,0.42106 0.87265,0.60976c-0.50936,-0.20504 -1.01935,-0.42124 -1.52627,-0.62633c-0.15237,-0.01338 -0.50729,-0.06991 -0.78718,-0.30733c-0.50135,-0.18682 -1.0018,-0.35236 -1.49781,-0.47474c-3.44469,-0.84987 -8.2544,-2.23728 -10.88337,-4.95555c-0.66842,-0.69112 -0.92195,-1.72134 -1.60193,-2.40109c-0.13753,-0.13749 -0.27729,-0.2699 -0.41768,-0.39767c0.0327,0.01208 0.11831,-0.06109 0.15119,-0.04966c3.0158,1.04819 4.5487,-0.00823 7.14528,-0.75299c5.64399,-1.61883 8.36581,-3.54048 9.33764,-9.55452l-2.31132,-3.72302c0,0 -0.02218,-0.02212 -0.06387,-0.05888c0.11968,-1.25537 -0.60478,-2.58563 -1.1113,-3.76984c-1.30503,-3.05109 -6.0607,-8.33174 -9.41012,-8.8852c-3.27409,-0.54101 -6.14463,1.02415 -8.43968,3.1945c-0.05587,-1.04734 -0.04508,-2.10151 0.02656,-3.14991c0.64255,0.18003 1.30463,0.03069 1.30463,0.03069l4.36026,-2.07615c0.063,-0.19134 0.12441,-0.38285 0.1837,-0.57544c0.86194,0.21428 1.72218,0.4261 2.58412,0.64038l3.34657,0.42018c0,0 0.46019,0.05684 1.00946,-0.07625c0.00101,0.07419 0.02209,0.92517 0.5385,1.61336c0.17361,0.44893 0.40653,0.74035 0.40653,0.74035l1.5969,1.99728c0.77072,0.86969 1.28506,2.05407 2.30773,2.6059c4.53542,2.4473 11.73575,0.61582 14.92668,-3.5418c6.43292,1.72054 11.03399,-0.80705 16.87655,-3.54436c2.38098,-1.11552 5.55192,-0.98618 5.46514,-5.20949c-0.0311,-1.51368 -3.70467,-4.5916 -5.09332,-5.52556z" fill="#53cbf0" stroke="none" stroke-width="0.5"></path>
      <path d="M171.28823,155.06525c0,0 -0.17803,0.06646 -0.2905,0.18206c-2.65896,-0.98634 -5.70063,-2.00919 -8.78281,-2.5689c0.22173,-0.07178 0.55141,-0.19655 0.78849,-0.35898l2.63694,1.0671c1.08249,-0.42769 2.30554,-0.46944 3.14802,-1.27251c1.01727,-0.96969 1.70458,-2.33536 1.99575,-3.71026c0.33567,-1.58507 0.46488,-3.36502 -0.17849,-4.85203c-2.27217,-5.25167 -11.90457,-5.02788 -13.36584,0.76819c-0.39749,1.57661 -0.00377,3.31508 0.50543,4.85923c0.33843,1.02629 1.30164,1.73089 1.95195,2.59397c0,0 0.16441,0.3442 0.60985,0.62404c-2.61415,-0.29276 -5.10748,-0.18923 -7.46897,0.64982c-7.37524,2.62048 -9.75239,10.3289 -13.67402,16.20593c-2.60837,3.90896 -6.05712,7.33372 -8.79546,11.16341c0,0 -1.36102,1.79703 0.37743,3.23578c-0.52828,2.15973 1.65776,2.88945 1.65776,2.88945c5.12067,1.6917 8.51746,5.34277 13.2177,7.84771c2.21989,1.18306 3.8507,1.49271 6.15454,2.47838c0.14524,0.06214 0.33836,0.21249 0.48021,0.27722c-2.32006,1.29712 -4.46457,1.43931 -7.38417,2.33521c-0.79973,0.2454 -1.41734,0.96199 -2.23153,1.15405c-3.2794,0.77357 -7.38693,0.64359 -10.81458,1.14157c-6.7898,-0.00357 -13.64607,0.83336 -20.46681,0.39668c-5.89048,-0.37713 -12.71485,-3.23303 -17.59106,-6.38597c-2.67899,-1.73223 -4.03781,-5.57103 -5.71566,-8.10518c-0.04834,-0.47552 -0.19491,-0.81707 -0.19491,-0.81707c-1.95035,-4.5291 -2.68285,-8.35493 -3.01049,-13.2041c-0.26537,-3.92748 -1.1862,-7.90056 -1.19669,-11.8351c-0.02268,-8.50958 2.64886,-17.86047 6.87604,-25.18836c3.56985,-6.28362 12.05281,-12.59877 19.39582,-13.58481c7.08327,-0.95117 15.45491,-1.71863 20.70737,-7.5764c0.67485,-0.75263 1.15883,-1.50797 1.54114,-2.28576c1.19008,1.56326 3.15954,2.83263 4.81447,3.07068c2.54891,0.36664 7.04017,-1.10926 9.33198,-2.2414c1.32205,-0.65308 2.9039,-2.18564 4.42917,-2.65198c-1.89539,2.64571 -3.00855,6.11035 -1.29254,9.24899c2.3308,4.2631 8.86789,3.7164 12.5883,5.76574c7.45015,4.10382 12.36191,12.87364 12.31323,21.25066c-0.31544,2.23313 -0.96727,4.18968 -1.55609,6.354l-1.511,1.07891z" fill="#0024a3" stroke="none" stroke-width="0.5"></path>
      <path d="M170.46775,208.50673c-0.83801,0.838 -1.67602,0.88149 -2.32571,0.69543c-0.02407,0.03519 -0.04882,0.07005 -0.07428,0.10457c-0.74897,1.01556 -2.29302,1.07476 -3.50042,1.44152c-0.87957,0.26718 -1.78726,0.40188 -2.70727,0.46626c-0.30417,0.81986 -0.75278,1.52898 -1.3599,2.0592c-3.76636,3.28932 -6.63267,1.6576 -10.05593,0.00613l-2.68349,0.67088c-0.21047,0.05753 -0.43202,0.08824 -0.66073,0.08824c-0.77555,0 -1.46861,-0.35314 -1.92716,-0.9074c-1.02606,-0.31143 -1.77285,-1.26481 -1.77285,-2.3926c0,-0.77133 0.34931,-1.46107 0.89838,-1.91966c-1.38496,0.35113 -2.75808,0.6275 -4.08828,0.80037c0,0 -2.48069,0.31009 -2.79079,-2.1706c-0.31009,-2.48069 2.1706,-2.79079 2.1706,-2.79079c4.71995,-0.56199 8.92391,-2.89484 13.47261,-4.27487c1.37502,-0.41717 2.71211,-1.6309 4.11024,-1.29934c2.60782,0.61843 4.43779,3.73684 5.00198,6.99032c0.31255,-0.07974 0.63394,-0.1513 0.94163,-0.20086c-0.55942,-0.45848 -0.91638,-1.15483 -0.91638,-1.93456c0,-1.38071 1.11929,-2.5 2.5,-2.5c0.41989,0 0.8156,0.10352 1.16301,0.28642l2.35504,1.1775l-0.06494,0.12989l0.58725,0.33557l1.72742,1.60286c0,0 1.76776,1.76778 -0.00002,3.53553z" fill="#0024a3" stroke="none" stroke-width="0.5"></path>
      <path d="M121.76176,205.23513c-6.41044,-0.3469 -12.72692,-2.84373 -19.06175,-2.79616c0,0 -2.18455,0 -2.46949,-2.04208l-2.9049,-0.42481c-3.47567,-1.19341 -6.27575,-2.65288 -7.76097,-6.34087c-0.79273,-1.96846 -0.30084,-3.84301 -0.8718,-5.81725c-0.66899,-2.31321 -1.75898,-4.49231 -2.40345,-6.81247c-0.82282,-2.96223 -0.93753,-5.92619 -1.62252,-8.88816c-0.51065,-2.20811 -1.46257,-3.14488 -1.66107,-5.60401c-0.08036,-0.99557 0.39064,-1.97157 0.3942,-2.97037c0.0063,-1.76777 -0.52488,-3.49642 -0.77488,-5.24644c-1.01119,-7.18582 0.29081,-12.63537 2.95492,-19.2851c1.64085,-4.09562 3.51704,-7.90629 7.37257,-10.3743c1.50918,-0.96606 3.38215,-1.22746 4.95267,-2.09022c2.36581,-1.29964 4.45751,-2.65629 7.03801,-3.71363c2.57697,-1.0559 4.97282,-1.04954 7.43865,-2.32637c0,0 1.37273,-0.68638 2.50486,0.09202c0.53221,-0.06052 1.15405,0.07384 1.81364,0.6235c1.92055,1.60046 0.32009,3.52101 0.32009,3.52101c-4.35918,5.23057 -8.98992,10.2525 -11.61085,16.55624c-0.87034,2.09329 -1.51874,2.35307 -1.83386,4.59004c-0.27124,1.92549 0.27906,3.13212 0.41787,5.07603c0.54268,7.59958 1.51935,14.85019 4.22626,22.04567c1.52286,3.55808 2.87764,7.48445 5.23981,10.57937c2.37523,3.11202 6.2778,4.96675 9.44552,7.08452c1.35173,0.90369 2.35763,2.30101 3.78942,3.0716c2.03813,1.09693 4.16422,1.80699 6.34957,2.32223c0.49013,-0.60906 1.17794,-0.86699 1.17794,-0.86699c3.10358,-1.15983 6.83838,-2.76427 10.24816,-2.55336c2.1,0.12989 4.09484,0.99234 6.17505,1.3079l0.3003,0.29486l0.07232,-0.14464l2.35155,1.17578c0.84561,0.40086 1.43041,1.26228 1.43041,2.26029c0,1.30615 -1.00167,2.37835 -2.27874,2.49034l-3.9725,0.39726c0,0 -0.03479,0.00348 -0.09655,0.0055c-8.4724,3.92926 -17.28436,5.31207 -26.69046,4.80307z" fill="#001769" stroke="none" stroke-width="0.5"></path>
      <path d="M169.01349,151.7337c0.05894,-0.11715 0.11789,-0.2343 0.17683,-0.35145c0.85646,-2.58639 1.40271,-4.71157 1.4097,-7.44328c0.01193,-4.66079 -1.94296,-9.62876 -5.26777,-13.03224c-4.15366,-4.25194 -11.58982,-4.06734 -16.56668,-6.73997c-1.41635,-0.7606 -3.83919,-2.76595 -5.22729,-3.87563c0,0 -1.95217,-1.56174 -0.39043,-3.51391c1.56174,-1.95217 3.51391,-0.39043 3.51391,-0.39043c0.87253,0.69856 3.50692,2.85655 4.37269,3.32439c4.65,2.51274 10.26889,2.88252 14.92036,5.6655c6.19744,3.70794 9.63104,11.55099 9.64521,18.56229c0.00687,3.39876 -0.71609,6.15098 -1.79031,9.3567c-0.42455,0.85378 -0.8491,1.70755 -1.27365,2.56133l-4.73606,-1.91803c0,0 0,-1.54408 1.21348,-2.20527z" fill="#001769" stroke="none" stroke-width="0.5"></path>
      <path d="M120.91426,259.20856c0.44818,-0.19069 0.92371,-0.53069 1.18933,-1.13826c0.41615,-0.1657 0.82557,-0.33686 1.21225,-0.47216c0.75182,-0.26306 3.90684,-2.72495 4.80394,-3.19832c1.86318,-0.98315 2.23237,-0.41934 4.50567,-0.54364c0.67962,-0.03716 1.42556,-0.62286 2.02194,-0.29485c0.64516,0.35484 0.5028,1.43462 1.01372,1.96481c0.48492,0.50321 2.62871,0.90419 2.47093,2.23466c-0.21067,1.77642 -2.43936,3.01275 -2.39869,4.80116c0.03252,1.4302 1.30143,2.55598 2.02387,3.79072c2.1379,3.65392 4.54319,5.63773 3.16172,10.1115c-0.92041,1.156 -2.56266,2.00682 -2.75988,3.47127c-0.1814,1.34697 1.3084,2.3987 1.80355,3.66442c0.81546,2.0845 0.66476,3.54384 0.61971,5.79801c-0.00691,0.34578 0.16913,0.8173 -0.10003,1.03447c-0.37259,0.30063 -0.95953,0.07574 -1.42282,0.19644c-2.88441,0.75153 -4.5534,1.12521 -7.51518,1.49464c-3.43528,0.42849 -4.32375,1.72498 -7.20697,-0.41117l-2.96267,-0.41647c0.04869,-0.20916 0.07553,-0.43921 0.07553,-0.6999c0,-2.5 -2.49877,-2.48512 -2.49877,-2.48512l-2.29431,0.10158c-4.59169,1.54242 -8.73883,4.51569 -13.50483,5.58204c-6.16639,1.37968 -12.12057,0.24009 -18.20135,2.34865c-4.91231,-0.03605 -10.32187,0.58007 -15.19983,-0.00409c-3.30667,-0.39599 -6.86312,-2.57116 -9.84428,-3.84707c-7.12843,-3.0509 -14.07358,-10.31721 -12.88748,-18.90463c0.50012,-3.62091 1.12316,-7.27599 2.30666,-10.81764c1.90293,-5.70859 2.61487,-11.16297 4.05057,-16.95908c1.75672,-7.09213 5.65618,-13.74959 7.95766,-20.63957c1.56443,-4.68346 2.9422,-9.51342 4.49325,-14.25695l0.93493,-0.47828c2.69749,-1.81835 5.62344,-2.39307 8.46243,-3.81109c5.07895,-2.53684 9.39766,-6.30488 14.48184,-8.83803c0,0 0.01487,-0.00743 0.04159,-0.0223c1.38786,1.45896 2.93291,2.75407 4.66369,3.79518c5.82386,3.5032 13.99986,3.22842 20.51854,4.49173c3.78925,0.0241 7.75119,0.42195 11.43807,-0.63721c2.78201,-0.79921 5.80321,-2.35208 8.83077,-1.89296c1.09329,0.16579 2.11418,0.61814 3.09886,1.22062c0.06747,0.04621 0.13504,0.09175 0.20271,0.13658c0.06502,0.04307 0.13176,0.08259 0.19998,0.1191c2.68482,1.76443 5.13279,4.52467 8.09813,5.43606c0.99847,0.30688 2.09284,0.00672 3.13148,0.11782c3.14872,0.33681 5.86949,1.2071 8.68737,0.89477c0.12717,0.17109 0.27565,0.32536 0.44145,0.45886c-0.61983,5.11089 -0.3271,10.25647 -0.91725,15.40796c-0.27757,2.423 -1.29189,4.72187 -1.59176,7.14221c-0.02443,0.19718 -0.01634,6.33268 -0.01634,6.70749l0.00122,3.20118c0,0 0.0019,2.50198 2.5019,2.50198c1.79599,0 2.30182,-1.29016 2.44424,-2.01683c1.18341,1.28246 2.34723,2.62112 3.46462,4.00555c1.04302,2.32349 2.28656,5.25578 2.42133,5.56862c2.13629,4.95888 2.83926,5.65153 2.77883,10.95686l0.00122,4.60317c0,0 0.00075,2.50238 2.50075,2.50238c2.5,0 2.40426,-2.47115 2.40426,-2.47115l0.09512,-1.17842c0.49284,2.42506 0.71542,4.91535 0.60369,7.44791c-0.00899,0.20361 -0.1251,0.43424 -0.15153,0.6497c-0.30106,-0.60495 -1.0914,-1.93418 -2.94156,-1.31743c-2.3717,0.7906 -1.58062,3.16448 -1.58062,3.16448c0.13601,0.40698 1.4713,4.30628 1.47416,4.71743c0.00971,1.3948 -0.86409,2.65936 -1.41133,3.94236c-1.49608,3.50751 -4.06475,7.81761 -7.15253,10.13787c-1.98841,1.49416 -5.00936,2.08706 -7.32958,2.86051l-0.80938,-0.12824c0,0 -2.50088,0.0033 -2.50088,2.5033c0,2.5 2.40482,2.46937 2.40482,2.46937l2.39029,-0.12744c1.26286,-0.42098 2.71636,-0.77377 4.05011,-1.22601c0.29032,6.76228 1.90569,13.60709 2.72208,20.33071c1.55375,12.79642 2.87587,25.90472 6.10032,38.41915c0.45338,1.75959 1.99621,3.11699 2.42306,4.8832c0.20421,0.845 0.26956,1.71823 0.31767,2.59383c-0.88722,1.14879 -0.1622,2.60067 -0.1622,2.60067l-0.00618,-0.08294l0.05554,0.08477c-6.18796,4.2031 -14.51767,4.47743 -21.62519,6.05934c-2.00042,0.44523 -4.07239,0.48954 -6.10563,0.74619c-0.85981,0.10853 -1.60699,0.90645 -2.46914,0.81846c-0.02097,-0.00214 -0.04165,-0.00504 -0.06198,-0.00868c-0.46123,-0.80961 -0.9627,-1.71099 -1.28831,-2.57899c-1.54178,-4.10995 -1.69082,-8.69261 -2.22974,-12.94831c-0.49688,-3.92373 -2.09658,-7.27627 -3.31708,-10.90566c-2.49994,-7.43405 -2.33369,-15.71793 -4.79711,-23.17746c0,0 -0.23495,-0.70551 -0.83347,-1.21866c0.8287,-4.16214 1.85447,-8.28911 3.22372,-12.39372c0,0 0.10394,-0.31315 0.12292,-0.7504c1.19823,0.04804 2.40255,0.23721 3.57486,0.01772c3.09783,-0.58001 5.76825,-1.87863 8.21035,-3.57876l0.10129,0.30325l2.34413,-0.77992c1.02154,-0.31419 1.76244,-1.26238 1.76244,-2.38697c0,-1.38071 -1.02962,-2.45575 -2.41033,-2.45575c-0.09357,0 -0.18602,0.00529 -0.27693,0.01531l-2.99195,0.29504l0.00546,0.05604l-0.13885,-0.03925c-9.74539,2.0216 -20.26998,6.14206 -30.23685,6.10101c0,0 -2.50529,0.00035 -2.50529,2.50035c0,2.5 2.49435,2.40025 2.49435,2.40025c3.71745,-0.01312 7.45252,-0.53569 11.2042,-1.30392c0.71249,0.5092 1.57632,0.51006 1.57632,0.51006l1.58863,-0.12717c0.03204,-0.01067 0.11682,0.06341 0.14878,0.0524c-3.24168,10.66133 -4.51198,21.50719 -5.78223,32.54135c-0.55921,4.85769 -1.91953,9.61005 -2.41616,14.52046c-0.53441,5.28398 -1.16143,10.70652 -2.70886,15.83717l-1.19345,0.39762c-6.46715,2.17035 -14.47109,2.05412 -21.25591,1.38742c-2.42716,-0.2385 -4.74886,-1.17754 -7.16826,-1.48489c-4.86531,-0.61807 -10.02228,0.14907 -14.41495,-2.1317c0.43542,-1.41769 0.84207,-2.84292 1.20737,-4.30416c1.6386,-4.91563 2.68382,-9.74283 3.27931,-14.79424c0.32704,-2.77421 1.47734,-3.98547 2.31456,-6.79335c0.76532,-2.56673 1.07332,-6.37819 1.637,-8.94745c2.73516,-12.46693 7.11508,-24.62067 9.37643,-37.18168c2.55794,1.1573 5.34412,1.93034 8.24667,2.90029l1.26985,0.66288c0,0 2.23048,1.11562 3.34848,-1.12047c1.118,-2.23608 -1.15717,-3.26223 -1.15717,-3.26223l-1.93262,-0.93857c-4.16786,-1.38603 -8.12719,-2.38499 -11.51857,-4.93061c4.8103,-0.74613 9.65808,-0.46292 14.58924,-1.55232c4.92521,-1.08809 8.97976,-4.0727 13.71114,-5.63579l0.87722,0.16407c-0.04876,0.20925 -0.07765,0.44652 -0.07765,0.70738c0,2.5 2.4133,2.45037 2.4133,2.45037l0.21223,-0.41821c1.02075,0.63756 1.90186,1.59383 3.06245,1.91233c3.77791,1.03677 4.06698,-0.28162 7.42575,-0.70232c4.95917,-0.62117 12.24829,-0.64362 13.35955,-6.86499c0.40931,-2.29151 0.06662,-6.39186 -0.97993,-8.59918c-0.25785,-0.54387 -1.5487,-0.55748 -1.3979,-1.14019c0.20339,-0.78591 1.3595,-0.8871 2.03911,-1.33111c1.25516,-3.64514 1.88959,-6.7374 0.1244,-10.40142c-0.0115,-0.02387 -3.21306,-4.90038 -3.36117,-5.08223c-0.32742,-0.402 -1.21583,-0.49466 -1.17882,-1.01181c0.04455,-0.6225 1.0667,-0.74342 1.3458,-1.30162c0.54466,-1.08935 1.09813,-2.27975 1.05561,-3.49693c-0.04808,-1.37639 -0.53453,-2.77685 -1.31033,-3.91479c-0.60212,-0.88318 -1.851,-1.10203 -2.61635,-1.84821c-0.855,-0.83358 -1.10733,-2.32037 -2.18514,-2.83438c-1.32071,-0.62986 -2.91362,-0.24545 -4.37603,-0.29374c-3.98086,-0.13146 -6.11528,0.64766 -9.37859,2.8232c-0.28203,0.18802 -0.67106,0.39103 -1.05453,0.6092c0.08981,-0.35128 0.14396,-0.68544 0.14245,-0.92869c-0.0129,-2.07829 -0.84288,-4.09554 -0.8642,-6.17376c-3.31138,-6.8828 -7.08152,-16.45389 -15.44353,-18.65766c-1.52972,-0.40316 -3.18826,-0.60015 -4.75728,-0.45873c0.25029,-1.53625 0.41196,-3.17432 0.34215,-4.72345l0.69921,-4.888c0.02054,-0.12903 0.04343,-0.16209 0.04343,-0.29689c0,-1.38071 -1.11789,-2.50019 -2.4986,-2.50019c-1.12459,0 -2.07404,0.74226 -2.38822,1.76381l-0.78099,2.34514l0.18775,0.06264l-0.28364,0.32745c-0.00622,1.51098 -0.05469,3.14752 -0.19407,4.79196c-0.11972,0.94891 -0.26353,2.09899 -0.40433,3.22028c-0.21882,1.26153 -0.51116,2.47945 -0.90258,3.59699c0,0 -0.19057,0.57265 -0.1033,1.24904c-0.00084,0.00319 -0.00168,0.00639 -0.00252,0.00959c-0.20253,0.77206 -0.11112,1.54333 0.11124,2.31544l-0.11321,0.9051c0,0 -0.04526,0.36222 0.03705,0.82724c-0.34593,0.3021 -0.607,0.69766 -0.74538,1.14762l-0.78049,2.3449c-0.16238,0.48712 -0.31716,0.98553 -0.46892,1.4923c-0.07469,0.17688 -0.12685,0.3695 -0.16782,0.56937c-0.94311,3.23603 -1.76973,6.73866 -3.22971,9.6271c-0.44799,0.88631 -1.24627,1.57281 -1.63791,2.48542c-0.74489,1.73578 -1.11813,3.66556 -2.18921,5.22138c0,0 -0.3967,0.59581 -0.44655,1.36317c-1.70889,0.28826 -3.41405,0.53965 -5.06899,0.75144c-0.60299,0.07716 -7.20749,-0.17126 -7.59603,-0.03635l-3.19885,-0.00153c-1.38071,0 -2.49815,1.1165 -2.49815,2.49721c0,1.38071 1.03366,2.44835 2.41437,2.44835l3.20091,-0.00151c0.95174,0.33046 1.98873,0.16293 3.01347,0.05984c3.36914,0.11463 6.85629,0.30945 10.09821,-0.08641c5.41131,-0.66075 10.18269,-1.59331 15.71281,-1.59331c0,0 2.50515,-0.00163 2.50515,-2.50163c0,-0.16493 -0.01074,-0.319 -0.03106,-0.46288c0.83125,-0.73724 0.8332,-1.93757 0.8332,-1.93757c-0.04829,-9.03523 -2.56762,-17.01541 -4.54411,-25.62719l0.1683,-1.59072c0.00282,-0.02251 0.00569,-0.04503 0.00857,-0.06754c0.52905,-0.03938 1.38364,0.16097 1.86988,0.18493c1.68643,0.08311 3.59585,0.10881 4.94226,1.12768c4.79778,3.63062 6.78194,8.67769 9.43829,13.74646c-0.01153,1.00868 -0.17981,2.02792 -0.0342,3.02611c0.10305,0.70649 0.77424,1.28581 0.769,1.99975c-0.01393,1.89812 -1.77089,3.19529 -1.29537,4.68157l-0.77262,0.5159c-0.68925,0.44514 -1.13528,1.12063 -1.13528,2.00216c0,1.38071 1.12388,2.50062 2.50459,2.50062c0.29693,0 0.5831,-0.05151 0.84731,-0.1465l2.34801,-0.78076l-0.13278,-0.39735l0.86059,0.01268c0.12727,-0.17655 0.25486,-0.35301 0.38213,-0.52956z" fill="#0024a3" stroke="none" stroke-width="0.25"></path>
      <path d="M128.33614,242.52638c0.09094,-0.00503 0.18188,-0.01006 0.27282,-0.01508l-0.03742,-0.09355l3.94736,-1.57893c0.14673,-0.06267 0.30066,-0.1117 0.46022,-0.14552c1.023,-0.4778 2.04814,-0.95108 3.07325,-1.42425c0,0 0.38069,-0.1757 0.90223,-0.2273c0.60765,-0.39543 1.78797,-0.87889 2.98759,0.20971l0.4971,-0.12428c0.21047,-0.05753 0.43201,-0.08824 0.66073,-0.08824c1.18849,0 2.18328,0.82933 2.43723,1.94085c0.21392,-0.06906 0.47788,-0.14106 0.77793,-0.21447l1.19425,-0.39809l0.04181,0.12544c0.37248,-0.07562 0.76455,-0.15078 1.16171,-0.22391c0.48306,-0.22755 0.97484,-0.43786 1.48778,-0.63791c0.13888,-1.93556 2.21203,-2.17535 2.21203,-2.17535l1.69406,-0.18743l4.85228,-0.97047c0.17418,-0.03842 0.35518,-0.05867 0.54092,-0.05867c1.38071,0 2.5,1.11929 2.5,2.5c0,0.99801 -0.58479,1.85943 -1.43041,2.26029l-1.90463,0.95232c-0.19926,0.58004 -0.6059,1.06368 -1.13139,1.36236c-0.23536,0.99999 -1.07115,1.76836 -2.10605,1.90377l-3.25678,0.48031c-0.59184,0.10212 -1.17313,0.20825 -1.74639,0.31349c-1.0871,0.58404 -2.45143,0.50347 -3.66477,0.78486l-0.11226,-0.02609l0.00622,0.04357l-2.75741,0.39391c-0.12902,0.02054 -0.26132,0.03121 -0.39612,0.03121c-0.44323,0 -0.85952,-0.11534 -1.22049,-0.31765c-1.25716,-0.04659 -2.53619,-0.2205 -3.8663,-0.57853c0,0 -0.28699,-0.082 -0.63431,-0.28849c-0.20036,0.07517 -0.40073,0.15033 -0.60109,0.2255c0,0 -0.48086,0.18032 -1.08843,0.15957l-1.87132,0.93567l-0.19689,0.07959l0.00047,0.00827c-0.00683,-0.00006 -0.01366,-0.00011 -0.02049,-0.00017l-1.97264,0.79744c0,0 -0.55191,0.22077 -1.22514,0.17788l-0.92933,0.2788c-0.24371,0.07928 -0.50386,0.12213 -0.77402,0.12213c-1.38071,0 -2.5,-1.11929 -2.5,-2.5c0,-0.88153 0.45626,-1.6565 1.14551,-2.10163l2.36775,-1.5785l0.0616,0.0924z" fill="#001769" stroke="none" stroke-width="0.5"></path>
      <path d="M167.6944,309.84698c-0.36725,-2.67922 -0.65213,-5.40865 -0.64355,-8.05701c0,0 0.00161,-0.21558 -0.05893,-0.51301c2.43954,-1.87495 4.60726,-4.51504 6.29018,-7.3548c0.01629,1.89206 -0.1637,3.80138 0.08613,5.84269c0.20304,1.65902 0.98745,3.35613 0.78577,5.01532c-0.20094,1.65301 -0.62295,7.65961 -3.25313,5.86863z" fill="#0024a3" stroke="none" stroke-width="0.25"></path>
      <path d="M174.06695,252.35255c-1.50728,-2.34707 -3.29709,-4.65608 -5.16845,-6.85528c-0.60555,-1.25165 -1.18867,-2.32893 -1.62768,-2.90273c-1.28646,-1.68143 -3.39241,-2.59118 -4.89311,-4.08438c-0.01205,-0.01206 -0.02428,-0.02424 -0.03632,-0.03629c0,0 -0.39005,-0.38875 -0.98138,-0.61966c-0.03214,-0.97385 -0.03824,-1.95228 0.08358,-2.91673c0.31055,-2.45874 1.31527,-4.84313 1.59609,-7.30544c0.71704,-6.2872 -0.01262,-12.68246 1.57706,-18.87574c0,0 0.03829,-0.15288 0.05724,-0.39147c0.99763,-0.90862 1.76447,-1.78048 3.22234,-2.45078c1.38893,0.21812 2.89598,0.198 3.99446,1.02257c0.82382,0.61839 1.38932,3.29567 1.44157,3.91988c0.34723,4.14796 0.37602,7.97708 0.83494,12.10741c0.09312,0.83811 0.69355,1.57648 0.80892,2.41182c0.29848,2.16111 -0.54791,4.37394 -0.81232,6.53948c-0.51539,4.22118 -0.04647,8.87466 -0.04647,13.13082c0,2.4305 -0.17314,4.8904 -0.05047,7.30652z" fill="#0024a3" stroke="none" stroke-width="0.25"></path>
      <path d="M174.50505,252.59019c-0.22562,0.13336 -0.44216,0.23223 -0.64932,0.30194c-0.04713,0.03487 -0.09536,0.06824 -0.14462,0.10006c-0.48816,0.80872 -1.35631,1.34676 -2.34595,1.34676c-0.94039,0 -1.77109,-0.48584 -2.27028,-1.22808l-2.18951,-3.17063l0.40762,-0.30116c-0.72765,-0.77276 -1.3575,-1.62135 -1.82796,-2.57893l-2.09842,-3.03872c-0.04726,-0.06666 -0.09179,-0.13552 -0.13342,-0.2064c-0.40447,-0.02278 -0.78578,-0.13552 -1.12558,-0.3192c-0.56128,0.05555 -1.00621,-0.01261 -1.11814,-0.51377c-0.06125,-0.27428 -0.09781,-0.54863 -0.11344,-0.82304c-0.11613,-0.25981 -0.19567,-0.54071 -0.23177,-0.83561l-0.0501,-0.36269h-0.41415v-3.20163c0,-1.06603 0.56415,-1.99577 1.40048,-2.48723l0.38135,-1.57784c0.02342,-1.24507 0.11152,-2.47354 0.22486,-3.69711c-0.68083,-0.52066 -1.12231,-1.35704 -1.12231,-2.30007c0,-0.29556 0.04337,-0.58063 0.12387,-0.84879l0.86682,-3.13814l0.05127,0.01515c0.84091,-5.78107 1.38782,-11.65621 2.41286,-17.40546c1.56228,-1.33857 2.41787,-2.66222 4.69078,-3.57824c0.36071,-0.07187 0.71742,-0.14451 1.07036,-0.21823c0.45162,0.95638 0.22519,2.0103 0.22519,2.0103c-0.62383,2.88656 -1.08248,5.82305 -1.48299,8.77454c0.14304,0.34527 0.22223,0.72556 0.22223,1.12497c0,0.17866 -0.01584,0.35348 -0.04616,0.52307l-0.79324,4.92305c0.33843,1.0584 0.01234,2.26308 -0.04837,3.38642c-0.19808,3.66483 -0.80919,7.1659 -0.881,10.81849c0.00003,0.00536 0.00004,0.01074 0.00004,0.01611c0,0.04123 -0.00084,0.08227 -0.00252,0.12308c-0.00283,0.17859 -0.00434,0.35755 -0.00443,0.53692l-0.06394,0.10458l-0.01077,0.08907l0.05388,0.00796l-0.43644,3.16003c-0.02089,0.17066 -0.05632,0.33663 -0.10497,0.49653c0.99551,0.21148 1.82011,0.99856 2.51933,2.04185c0.35148,0.17125 0.66241,0.41687 0.91384,0.71724l3.08498,3.64683l-0.07187,0.06504c0.08096,0.05292 0.16194,0.10584 0.2429,0.15877l1.91736,3.44195c0,0 1.37116,2.48196 -1.02836,3.90022z" fill="#001769" stroke="none" stroke-width="0.5"></path>
      <path d="M167.66394,297.2209l0.21038,0.10519c0.02717,-0.18628 0.05435,-0.37256 0.08152,-0.55885l0.52695,-0.19982l-0.14452,-0.18065l0.57739,-0.46191c0.1161,-0.23465 0.2322,-0.46931 0.34829,-0.70396c0,0 1.11804,-2.23607 3.3541,-1.11803c0.47719,0.2386 0.80163,0.52811 1.01678,0.83595c0.47173,0.45473 0.76517,1.09315 0.76517,1.80011c0,0.32934 -0.06368,0.64381 -0.17941,0.93176l-1.17978,3.14606l-0.28158,-0.10559c-0.02537,0.25 -0.05073,0.5 -0.0761,0.75l-0.53165,0.15769c-0.04657,0.0513 -0.09525,0.10065 -0.14589,0.14793l0.1475,0.20649l-2.72619,1.94729c-0.35389,1.04015 -5.0722,3.15852 -5.98149,3.60466l-0.41557,-0.07731l0.0237,0.1659l-0.72065,0.10295c-0.1121,0.47376 -0.35899,0.8954 -0.69795,1.22218c0.47167,0.45472 0.76506,1.0931 0.76506,1.8c0,0.86366 -0.43795,1.62503 -1.10388,2.07415l-2.05853,1.4287c0.22997,0.37817 0.36242,0.82218 0.36242,1.29714c0,0.99801 -0.58479,1.85943 -1.43041,2.26029l-3.15157,1.57578l-0.00278,-0.00557c-0.01409,0.00681 -0.02817,0.01362 -0.04226,0.02042c-0.00419,0.00436 -0.0084,0.00871 -0.0126,0.01306c-0.92107,0.95135 -2.31309,1.21805 -3.60666,1.63552c-0.75337,0.32741 -1.50875,0.64878 -2.26578,0.96922c-2.09953,0.98446 -4.18258,1.99769 -6.27356,2.99678c0.00584,0.00923 0.01162,0.01851 0.01734,0.02782l2.6618,4.18279l-0.03866,0.0246c0.0806,0.11461 0.15885,0.23112 0.23455,0.3497c1.5856,2.48396 2.18058,10.06717 2.59257,12.94578c0.49337,3.44726 0.89946,6.89231 1.23062,10.33983c0.08714,0.71748 0.16955,1.43529 0.24661,2.15368c0.81634,4.78808 1.89829,9.50785 2.63345,14.31889l-0.05234,0.1914h0.05968v4c0,1.03476 -0.62866,1.92269 -1.52487,2.30269c-0.0226,0.13827 -0.04804,0.27632 -0.07652,0.41414c-0.00574,0.02779 -0.01166,0.05552 -0.01775,0.08319h0.01913v2.79999c0,1.38071 -1.11929,2.5 -2.5,2.5c-0.18992,0 -0.3749,-0.02118 -0.5527,-0.0613c-0.34613,0.24617 -0.75765,0.4064 -1.20342,0.44955c-0.45705,0.49892 -1.11394,0.81176 -1.84389,0.81176c-1.38071,0 -2.5,-1.11929 -2.5,-2.5v-0.73555c-0.207,-0.17352 -0.39522,-0.37036 -0.5602,-0.59609c-1.04638,-1.43169 0.11508,-3.54476 0.17261,-5.31714l-0.39252,0.43552c0,0 -0.87441,-1.31161 -0.19304,-2.54615l-0.89204,-1.93276l0.04631,-0.02137c-0.06609,-0.12353 -0.12958,-0.24869 -0.19025,-0.37561c-0.93632,-1.95872 -0.98049,-4.16951 -0.9853,-6.39336c-2.08249,-5.18993 -3.01525,-11.37379 -4.14315,-16.36242c-1.18442,-5.23863 -2.51427,-10.35107 -3.03906,-15.63366c-0.33274,0.20801 -0.71794,0.3399 -1.13123,0.37131l-4.57555,0.39787l-0.00295,-0.03397l-0.10523,0.04102c-0.13443,0.00002 -0.26883,-0.00007 -0.40319,-0.00028l-0.11366,0.09294l0.03066,0.02512l-2.06216,2.5166c1.33308,0.05387 2.39728,1.15162 2.39728,2.49793c0,0.08464 -0.00421,0.16831 -0.01242,0.25079l-0.43786,4.95004l-0.02223,-0.00197c0.00254,0.04478 0.00486,0.08959 0.00694,0.13443c0.13197,2.84006 -1.0337,5.5927 -1.64896,8.36846c-1.05158,4.74422 -2.32047,9.42638 -3.66694,14.08799c0.36181,-0.20358 0.77942,-0.3197 1.22414,-0.3197c1.38071,0 2.5,1.11929 2.5,2.5c0,0.29691 -0.05176,0.58172 -0.14674,0.84592l-0.78153,2.34463l-0.01994,-0.00665l0.0049,0.05042c-0.22078,0.58873 -0.43837,1.17437 -0.65514,1.75761c0.01993,0.61644 -0.16817,1.1055 -0.16817,1.1055l-1.97905,5.14554c-0.14846,0.41457 -0.4033,0.77851 -0.73164,1.05891c-0.04574,0.10447 -0.09179,0.20896 -0.13815,0.31347c0,0 -1.01535,2.28453 -3.29988,1.26918c-0.05019,-0.02231 -0.09879,-0.04523 -0.14585,-0.06872c-0.32827,0.88887 -1.14728,1.53999 -2.12827,1.62459c-0.14434,0.07168 -0.29658,0.12983 -0.45508,0.17277c-0.1146,0.46375 -0.22793,0.92766 -0.33989,1.39175l-0.28543,1.18193c0,0 -0.58686,2.43014 -3.017,1.84329c-2.43014,-0.58686 -1.84329,-3.017 -1.84329,-3.017l0.28543,-1.18193c0.63318,-2.61931 1.30913,-5.23309 2.00906,-7.84326c-0.40658,-2.59024 0.24306,-5.1947 1.0102,-7.73149c0.14249,-0.58748 0.2815,-1.12662 0.39291,-1.56603c0.62087,-5.9302 1.14087,-11.87099 1.85088,-17.79255c0.47848,-3.99055 1.49857,-7.99196 1.39253,-11.96117c-7.43991,-2.53172 -14.82224,-5.44125 -22.29745,-7.84395l-1.46419,0.18302c-0.11411,0.01595 -0.2307,0.02419 -0.3492,0.02419c-1.01059,0 -1.88114,-0.59964 -2.27524,-1.46253c-0.27037,-0.07877 -0.5409,-0.15667 -0.81159,-0.23367c0,0 -2.40381,-0.68682 -1.71699,-3.09062c0.68682,-2.40381 3.09062,-1.71699 3.09062,-1.71699c0.48877,0.14022 0.97702,0.28327 1.46478,0.42891c0.14179,-0.18393 0.29926,-0.35634 0.47593,-0.51467c0.12252,-0.1098 0.29748,-0.21723 0.51539,-0.322c-1.60021,-0.58164 -2.91222,-1.45951 -3.19396,-2.29608c-0.10727,-0.31853 0.8406,-1.65524 1.9671,-3.00748c-0.0106,-0.09348 -0.01605,-0.18853 -0.01605,-0.28485c0,-0.10848 0.00691,-0.21535 0.02031,-0.32019l-0.00814,0.0009c-0.10227,0.01274 -0.20646,0.0193 -0.31218,0.0193c-1.38071,0 -2.5,-1.11929 -2.5,-2.5c0,-0.69036 0.27982,-1.31536 0.73223,-1.76777l1.67987,-1.67987c0.06849,-0.69655 0.42285,-1.30918 0.94418,-1.71897l1.98197,-1.58558l0.03518,0.04397c0.02692,-0.04377 0.05384,-0.08755 0.08076,-0.13132l0.15073,-0.0326l-0.02992,-0.04787l3.12888,-1.95555c-2.11071,-0.69792 -4.18543,-1.50918 -6.36541,-2.41675c0,0 -2.30769,-0.96154 -1.34615,-3.26923c0.96154,-2.30769 3.26923,-1.34615 3.26923,-1.34615c2.47999,1.03422 4.77891,1.92001 7.16965,2.65133l3.34488,0.37165l-0.00402,0.0362c0.05665,-0.0045 0.11336,-0.00853 0.17015,-0.01207c1.65429,-0.10323 3.46813,0.53106 5.21931,1.36383l0.98665,0.2819c1.75126,0.08217 3.60735,0.54727 5.47057,1.11486h2.08126c1.08895,-0.19932 2.20248,-0.11155 3.31555,-0.04524c0.34045,-0.20428 0.73354,-0.32981 1.1541,-0.35142l3.33121,-0.19722c3.33398,-0.30796 6.67938,-1.47395 9.99391,-1.00176c0.0459,0.00654 0.09175,0.01333 0.13754,0.02036l0.00004,-0.02394l2.462,0.00366c3.87289,-1.02893 7.62528,-2.68906 11.43139,-3.88159l2.32836,-0.77612c0.2642,-0.09499 0.54902,-0.14674 0.84593,-0.14674c0.28276,0 0.55456,0.04694 0.80803,0.13347c0.93239,-0.56165 1.84845,-1.14956 2.74794,-1.76197c0.1208,-0.56128 0.43004,-1.05252 0.85823,-1.40426l2.30446,-1.92039c3.69075,-5.8022 10.87839,-9.86059 12.48101,-16.84581l0.06496,-0.07949l-0.03636,-0.01212l0.78179,-2.34532c0.31418,-1.02155 1.26534,-1.76411 2.38993,-1.76411c1.27327,0 2.32422,0.95187 2.48007,2.18284l0.3948,2.76362l-0.09188,0.01313c0.04575,0.1853 0.08191,0.37345 0.1069,0.56494c0.15731,1.2053 -0.39778,2.87796 -1.18991,4.6149v1.56059h-0.06024c0.00725,0.20478 0.00219,0.41062 -0.01727,0.61772c-0.18408,1.95832 -1.66605,3.58257 -2.77151,5.20948c-2.26453,3.33272 -5.18612,6.38365 -8.24632,9.09086l-0.4609,0.76817l-0.05139,-0.03083c-0.08011,0.14908 -0.16509,0.29597 -0.25545,0.44041c-0.26806,0.42851 -0.61023,0.78909 -0.99723,1.1081c0.54893,-0.20689 1.26835,-0.27567 2.01903,0.21128l1.78362,-1.11476c0.35235,-0.22832 0.76581,-0.37035 1.21046,-0.39617zM158.54551,303.4373l0.05839,-0.03893c0.03516,-0.6344 0.30685,-1.20571 0.72835,-1.62721l1.81024,-1.81024c-0.77012,0.45601 -1.59113,0.86261 -2.31189,1.35593c-1.29577,0.88688 -2.5984,1.74933 -3.91408,2.58192l0.91883,-0.51684c0.37101,-0.218 0.80324,-0.343 1.26466,-0.343c0.51873,0 1.00056,0.15798 1.39999,0.42846c0.01505,-0.01019 0.03022,-0.02022 0.0455,-0.03009zM134.3,321.83896c0.27395,0 0.53761,0.04406 0.78428,0.12549l0.41529,-0.34607l0.03106,0.03727c0.0757,-0.07855 0.1536,-0.1553 0.23387,-0.23009c0.97232,-0.90593 2.29941,-1.28253 3.57461,-1.7401c-0.09309,-0.13629 -0.17304,-0.28226 -0.23803,-0.43609c-0.74736,0.35835 -1.50717,0.72292 -2.1403,1.02345c-0.34573,0.21511 -0.69162,0.43072 -1.0379,0.64663l-1.14633,0.17631l-2.58565,1.29283c-0.34741,0.18291 -0.74313,0.28643 -1.16302,0.28643c-0.32963,0 -0.64436,-0.06379 -0.93251,-0.17971l-0.20183,0.64585c0.76525,0.04542 1.5115,0.02223 2.24354,-0.05672c0.4329,-0.74475 1.23944,-1.24547 2.16292,-1.24547zM132.9707,314.93332l0.03771,0.04031c0.09216,-0.10017 0.18661,-0.19851 0.28353,-0.29488c1.27846,-1.27118 3.27537,-1.50777 4.91595,-2.25535c1.38291,-0.63017 2.7633,-1.26495 4.14194,-1.90337l-2.25899,0.91491c-0.3038,0.13128 -0.63881,0.20403 -0.99081,0.20403c-1.11466,0 -2.05893,-0.72949 -2.38146,-1.73709c-0.25646,0.08883 -0.53187,0.13708 -0.81856,0.13708c-0.11912,0 -0.23629,-0.00833 -0.35096,-0.02444c-1.84128,0.37554 -3.69889,0.70126 -5.58301,0.99289l-0.12937,-0.03685l0.00242,0.04668l-1.01459,0.05263c-1.5092,0.52893 -3.20174,0.43476 -4.80001,0.62183c-0.74604,0.08732 -1.49153,0.16656 -2.23676,0.2379c0.6142,0.45551 1.01228,1.18594 1.01228,2.00935c0,0.41779 -0.10248,0.81165 -0.28368,1.1578c0.10276,-0.00815 0.20542,-0.01691 0.30795,-0.02638l-2.88104,2.91861c-0.00614,0.50259 -0.16059,0.96948 -0.42161,1.35893l-0.42298,0.65257c0.29349,-0.07902 0.60219,-0.17544 0.91792,-0.27393l2.36323,-1.77244c0.21852,-0.16762 0.46552,-0.29996 0.73248,-0.38853l3.28174,-2.42229c0.41885,-0.31658 0.9405,-0.50434 1.506,-0.50434c1.38071,0 2.5,1.11929 2.5,2.5c0,0.06996 -0.00287,0.13925 -0.00851,0.20776zM99.95812,305.4808c0.22945,0.04249 0.44791,0.11632 0.65076,0.21688c0.09888,-0.09086 0.20509,-0.17386 0.31765,-0.24801l-1.07372,-0.35791c0.04514,0.12534 0.08054,0.25532 0.1053,0.38903zM99.69368,324.81631c-0.05566,0.03947 -0.11154,0.07861 -0.16763,0.11743c0.7505,0.26241 1.50044,0.52759 2.24997,0.79468c0.13472,-0.12832 0.28374,-0.24176 0.44444,-0.33768c-0.2383,-0.21626 -0.43468,-0.47788 -0.5755,-0.77123c-0.66221,0.11184 -1.314,0.18027 -1.95128,0.1968z" fill="#001769" stroke="none" stroke-width="0.5"></path>
      <path d="M135.37339,269.65329c-0.40887,-0.66102 -0.74885,-1.39611 -0.92601,-2.15832l-2.7897,1.74356c-0.39095,0.25333 -0.85714,0.40043 -1.35768,0.40043c-1.38071,0 -2.5,-1.11929 -2.5,-2.5c0,-0.85069 0.42489,-1.60213 1.07402,-2.05371l2.57596,-1.83996c0.28301,-0.3421 0.54315,-0.65337 0.78093,-0.94484c0.13022,-0.58253 0.42127,-1.06622 0.99613,-1.32987c0.72848,-1.12832 1.03864,-2.22481 0.97295,-4.23164c0,0 0,-2.5 2.5,-2.5c2.5,0 2.5,2.5 2.5,2.5c-0.05318,2.43959 -0.42513,4.13465 -1.18555,5.69633c0.42049,0.83823 0.65548,1.90682 1.05726,2.71311c1.35234,2.71385 2.78506,4.48803 3.96912,7.51276l0.29524,0.55972c0,0 0.91326,1.82641 -0.56164,3.00329c0.21205,2.34266 -0.3679,5.13612 0.35869,7.14042c0.4557,3.59019 0.55789,7.73385 -3.19315,9.9452c-1.07768,0.63533 -2.45279,0.49614 -3.68641,0.70405c-3.20369,0.53993 -9.30308,1.41273 -12.40461,0.27582c-1.1024,-0.4041 -2.96597,-2.77725 -4.52333,-3.11757c-4.31184,-0.94223 -8.03027,2.20634 -11.75824,3.5116c-5.57204,1.95091 -12.45826,0.96299 -18.29015,0.949c-3.65442,0.5309 -7.42231,0.66245 -11.03046,1.18212c-2.03842,0.29358 -4.06926,0.95737 -6.12399,0.81788c-8.1781,-0.55521 -13.47376,-5.8112 -19.97016,-9.98788c-0.85864,-0.55204 -1.95051,-0.74639 -2.70711,-1.43164c-1.44993,-1.31319 -2.27417,-3.18608 -3.49767,-4.71246l-0.2156,-0.19397c0,0 -1.65264,-1.65264 -0.16416,-3.36c-0.34622,-0.34912 -0.69135,-0.69615 -1.03584,-1.03999c0,0 -1.76777,-1.76777 0,-3.53553c1.76777,-1.76777 3.53553,0 3.53553,0c4.99726,5.00599 10.27789,11.23609 17.37766,13.38148c8.7166,2.63397 19.49821,0.87823 28.11572,-1.60204c5.717,-1.88332 11.25049,-0.75847 16.96448,-2.0448c2.55914,-0.57611 4.6229,-2.19375 7.2,-2.8c3.39169,-0.79788 7.64775,-0.27826 10.88214,-1.50222c2.23792,-0.84688 4.20229,-3.47239 6.11106,-4.8011c0.79087,-0.55053 1.5366,-1.44526 2.37933,-1.89592c-0.57127,-0.81918 -1.20279,-1.60944 -1.72476,-2.4533z" fill="#001769" stroke="none" stroke-width="0.5"></path>
      <path d="M119.40973,255.99039c-2.45145,-0.49028 -1.96117,-2.94174 -1.96117,-2.94174l0.35145,-1.50972c0.1135,-8.43661 -7.36934,-16.04537 -15.89999,-15.89999c0,0 -2.5,0 -2.5,-2.5c0,-2.5 2.5,-2.5 2.5,-2.5c11.43076,0.14127 20.78547,9.54545 20.89999,20.89999l-0.44854,2.49028c0,0 -0.49028,2.45145 -2.94174,1.96117z" fill="#001769" stroke="none" stroke-width="0.5"></path>
      <path d="M73.19279,262.00739l0.03222,0.05155l-3.16731,1.97957c-0.39096,0.25333 -0.85714,0.40043 -1.35768,0.40043c-1.38071,0 -2.5,-1.11929 -2.5,-2.5c0,-0.1348 0.01067,-0.2671 0.03121,-0.39612l0.39391,-2.75743l0.2411,0.03444l-0.0607,-0.67356c4.57011,-6.04483 10.8884,-9.55966 16.02337,-15.06534c1.30885,-1.40334 1.54689,-2.88979 2.56526,-4.48938c4.41716,-6.93819 5.69177,-15.04183 8.56502,-22.73043c0,0 0.8778,-2.34082 3.21863,-1.46302c2.34082,0.8778 1.46302,3.21863 1.46302,3.21863c-1.07377,2.85267 -1.93844,5.74072 -2.81418,8.60567c0.11189,0.2838 0.17335,0.59299 0.17335,0.91653c0,0.22871 -0.03071,0.45025 -0.08824,0.66072l-0.76302,3.05211c-0.01374,0.09515 -0.02786,0.19004 -0.04235,0.2847c0.01416,0.35957 -0.05927,0.70755 -0.17736,1.05013c-0.19583,1.0617 -0.43594,2.09631 -0.70726,3.11753c0.8174,0.4111 1.37823,1.25746 1.37823,2.2348c0,0.29691 -0.05176,0.58173 -0.14674,0.84593l-1.18154,3.54464l-0.01075,-0.00358c-0.0014,0.01578 -0.00283,0.03156 -0.00429,0.04735c-0.10381,1.12179 -0.83119,2.0955 -1.18763,3.16421c-1.22684,3.6784 -2.03285,6.8952 -3.76486,10.3811l-0.05967,0.04579l0.02609,0.01491l-1.57593,2.75787c-0.34388,0.62853 -0.94991,1.09317 -1.67104,1.24686c-0.58801,0.57658 -1.4825,0.93619 -2.12318,1.47548l-1.28244,0.71551c0,0 -1.91858,0.95927 -3.08998,-0.67647c-0.25915,0.09093 -0.53781,0.14039 -0.82803,0.14039c-0.78287,0 -1.48169,-0.35984 -1.94009,-0.92315c-1.14637,0.65567 -2.3268,1.19844 -3.56714,1.6916z" fill="#001769" stroke="none" stroke-width="0.5"></path>
      <path d="M157.30193,204.04784c0.45062,-0.16816 0.90087,-0.34009 1.35384,-0.49922c-0.39013,0.27967 -0.85033,0.43386 -1.35384,0.49922z" fill="#000000" stroke="none" stroke-width="0.5"></path>
      <path d="M91.91162,256.28958c1.6953,0.03308 2.276,-1.74727 2.276,-1.74727l0.74382,-2.23587c1.15384,-2.90968 1.80388,-6.0005 2.48225,-9.05622c0.05045,-0.22728 0.16234,-0.54397 0.25954,-0.76135c1.12941,5.28039 2.07734,10.65407 2.051,16.08024c-1.69908,0.05143 -3.36891,0.1817 -4.99145,0.34882c-0.94358,-1.70207 -2.94621,-1.04599 -2.94621,-1.04599l-0.56407,0.1874c0.22029,-0.55726 0.42455,-1.12324 0.63534,-1.68543z" fill="#0024a3" stroke="none" stroke-width="0.25"></path>
      <path d="M380.43192,320.2385c0,0 -2.23685,0.00387 -2.48332,2.11214c-0.59906,0.19768 -1.2597,0.26352 -1.82362,0.54784c-1.68886,0.8515 -2.98255,2.42423 -4.72343,3.16359c-2.58364,1.09729 -7.36941,2.22789 -10.0791,2.19086c-2.625,-0.03587 -5.14218,-1.14112 -7.73163,-1.57315c-4.89352,-0.81643 -11.1619,-0.92826 -15.26567,-3.76073c-1.11498,-0.3675 -2.30414,-0.56746 -3.34742,-1.10581c-0.72744,-0.37538 0.34334,-1.60436 0.58008,-2.38797c0.9943,-3.29104 2.5243,-5.34893 3.90513,-8.55097c2.08978,-4.84604 3.16631,-10.38204 5.53476,-15.0895c0.44635,-0.88713 1.25568,-1.57921 1.64291,-2.49369c2.33316,-5.51002 2.52068,-11.71256 3.67447,-17.4785c3.70707,1.22307 7.26247,2.94534 11.19773,4.02342c3.22715,0.88409 7.97021,0.03344 11.28719,0.03344c2.7608,0 7.39955,0.91 9.97835,-0.09515c1.01772,-0.39668 1.58935,-1.55258 2.57084,-2.03196c0.76906,-0.37562 1.54875,-0.71892 2.33276,-1.04586c0.36244,0.27673 0.86313,0.4683 1.55363,0.4683c0.6039,0 1.06264,-0.14514 1.41001,-0.36642c0.38873,0.70468 0.49016,1.65531 1.14769,2.96872c2.41426,4.82244 4.15155,9.58337 2.2552,15.02297c-2.19894,8.78347 -5.43628,19.7375 -13.06281,25.6619l-0.55377,-0.2135z" fill="#53cbf0" stroke="none" stroke-width="0.5"></path>
      <path d="M362.0872,277.4029c-0.96333,-0.28978 -1.90632,-0.60896 -2.83605,-0.94334c1.85627,0.39968 3.70915,0.8178 5.54392,1.31663c-0.99065,-0.02888 -1.91702,-0.1354 -2.70788,-0.37329z" fill="#53cbf0" stroke="none" stroke-width="0.5"></path>
      <path d="M347.73225,276.50673c0,0 -1.76777,-1.76777 0,-3.53553c1.76777,-1.76777 3.53553,0 3.53553,0c0.3116,0.32 0.62437,0.6148 0.93879,0.88638c0.03002,0.00367 0.05988,0.00787 0.08956,0.0126l1.98782,0.28397c0.35995,-0.20077 0.77465,-0.31518 1.21607,-0.31518c0.36938,0 0.72005,0.08011 1.03559,0.2239l2.50448,1.07334c3.03693,0.36202 4.69844,0.71113 6.29525,1.64113c0.06513,0.00767 0.13033,0.01525 0.19561,0.02272l0.15384,-0.35897l1.15127,0.49339c3.01022,0.27535 6.1429,0.31987 9.20051,0.01231c0.78073,-0.26074 1.55948,-0.55197 2.36301,-0.67552h-0.00001c0.84014,-0.12917 1.52236,-0.10605 2.16361,-0.07002c1.98225,-0.46774 3.88484,-1.12421 5.64676,-2.00685l2.27489,-1.5166c0.40239,-0.27681 0.88987,-0.43884 1.4152,-0.43884c1.38071,0 2.5,1.11929 2.5,2.5c0,0.05799 -0.00197,0.11553 -0.00586,0.17253c0.2793,0.12297 0.55987,0.23958 0.84389,0.33885c5.37069,9.60159 4.48947,19.04787 1.13623,29.07157c-1.30772,3.90912 -2.98054,8.35486 -5.64089,11.60205c-1.30457,1.59233 -3.15511,2.64495 -4.74838,3.94837c-2.84663,2.32875 -6.89908,7.33553 -10.62893,8.16692c-1.23281,0.27479 -2.50401,-0.33352 -3.75602,-0.50028l0.23009,-1.11488c0.08889,-0.54181 0.16881,-1.08799 0.32916,-1.59489l0.15127,-0.73297c5.7007,-7.32781 9.82397,-14.76065 13.3032,-23.06592c0.07912,-0.28553 0.17086,-0.5643 0.28626,-0.83074l-0.00002,-0.00003v-1.46058h0.17833c-0.04868,-0.13348 -0.09737,-0.26697 -0.14605,-0.40045l0.28124,-0.32836l-0.18524,-0.06174l0.78176,-2.3453c0.20944,-0.681 0.70195,-1.23802 1.34021,-1.53372c0.15201,-0.7788 0.21907,-1.57162 0.15603,-2.3532c-0.16874,-2.09223 -0.48416,-4.83402 -2.07404,-6.40945c-2.17321,-2.15346 -2.91913,-1.23749 -5.48549,-0.89194c-3.90167,0.52535 -8.79786,0.42419 -12.74674,0.42419c-3.91606,0 -7.66969,-1.25506 -11.42452,-1.61011c-0.88908,-0.08407 -4.10307,0.94523 -4.68871,1.1139c0,0 -2.40381,0.68679 -3.0906,-1.71702c-0.68679,-2.40381 1.71702,-3.0906 1.71702,-3.0906c0.47185,-0.13385 0.97422,-0.28572 1.49396,-0.43727l-0.23837,-0.8282c-0.68313,-0.5158 -1.3607,-1.1005 -2.03655,-1.76297z" fill="#3b8fa9" stroke="none" stroke-width="0.5"></path>
      <path d="M374.09366,275.16432l-1.78421,-0.45364c-8.9075,-3.01264 -18.47108,-0.91827 -26.21694,-7.09513c-0.39797,0.26739 -0.87702,0.42341 -1.39251,0.42341c-0.36938,0 -0.72005,-0.08011 -1.03559,-0.2239l-2.74919,-1.17821l0.03783,-0.08827c-0.08127,-0.0038 -0.16253,-0.0076 -0.2438,-0.01139l-0.15302,-0.18255l-0.04298,0.06447l-2.36773,-1.5785c-0.68925,-0.44514 -1.14551,-1.2201 -1.14551,-2.10163c0,-1.27327 0.95187,-2.32422 2.18284,-2.48007l1.10728,-0.15818c0.18271,-0.7407 0.73576,-1.86175 2.40986,-1.86175c2.00005,0 2.40002,1.60007 2.48001,2.24004c2.8966,1.43001 5.63274,4.94831 8.35747,5.9044c6.49231,2.27811 13.77694,1.41853 20.35313,3.58385l0.36438,0.08914c0.36465,-0.3189 0.82277,-0.53358 1.32789,-0.59753l2.40531,-0.34361c4.1654,-2.471 8.47288,-5.11699 10.72559,-9.52171c0.34069,-2.63462 0.87255,-5.20392 0.69256,-7.87738c-0.33663,-5.00016 -2.36453,-9.63711 -2,-14.75443c0.27556,-3.86839 1.90618,-7.21076 2.88441,-10.89012c2.38515,-8.9711 4.71842,-17.7571 4.71414,-27.088c0.82226,-6.57814 -0.02463,-13.5532 -2.26038,-19.80719c-0.8875,-2.48257 -2.76912,-5.52822 -2.93436,-8.21296c-0.09993,-1.62354 0.25741,-3.38363 0.94826,-4.94375c-0.14336,-0.43006 -0.28671,-0.86011 -0.43007,-1.29017l0.84675,-2.02557c-2.48957,-0.33201 -4.91275,-0.54609 -6.0727,-3.65698c-0.34481,-0.92474 -0.4921,-1.62548 -0.49037,-2.1602c-0.34069,-0.02239 -0.68139,-0.04478 -1.02208,-0.06717c0,0 -2.4807,-0.31008 -2.17061,-2.79078c0.31008,-2.4807 2.79078,-2.17061 2.79078,-2.17061c0.59686,0.14817 1.19372,0.29634 1.79058,0.44451l1.33159,-1.33159c0.45241,-0.45241 1.07741,-0.73223 1.76777,-0.73223c1.38071,0 2.5,1.11929 2.5,2.5c0,0.22872 -0.03071,0.45027 -0.08824,0.66074l-0.78642,3.14562l-0.01944,-0.00486c-0.00174,0.03249 -0.00361,0.06499 -0.00561,0.09748c-0.02609,0.4248 -0.71668,0.57614 -0.80265,0.99297c-0.04008,0.19431 0.39734,-0.00314 0.59503,0.01359c0.72142,0.06104 1.44269,0.12793 2.16087,0.21959c1.81504,0.23165 6.58185,0.63562 7.21115,2.86353c0.8574,3.03546 -1.73357,4.41582 -3.52929,6.20612c3.40804,10.11787 7.00197,19.55382 7.65977,30.44988c0.37864,6.27197 -1.18905,12.88392 -2.89489,18.85432c-1.15402,4.03904 -1.60516,8.19702 -2.75526,12.22242c-0.65164,4.63386 -1.82022,9.44628 -1.54886,14.14036c0.40159,6.94674 2.45535,14.8121 -1.10011,21.33298c-2.8123,5.1579 -8.36643,8.66992 -13.80548,10.37698c-1.04018,0.32646 -2.09195,1.24061 -3.13629,0.92772c-0.23825,-0.07138 -0.46956,-0.15774 -0.69517,-0.25644l-0.04595,0.16083l-1.64101,-0.46887c-0.93703,0.8258 -2.27853,0.49042 -2.27853,0.49042z" fill="#3b8fa9" stroke="none" stroke-width="0.5"></path>
      <path d="M347.6805,380.34607c0,-0.52061 -0.10983,-0.93344 -0.2815,-1.2598c0.26537,-0.48203 0.49245,-1.19635 0.18438,-1.97519c1.13855,-2.32112 2.21966,-4.65432 3.1407,-7.10695c0.83325,-2.21884 1.23046,-4.85048 2.29146,-6.96596c1.21148,-2.41553 2.05561,-2.19642 3.23233,-4.89481c0.44732,-1.02578 0.39755,-2.31229 0.85092,-3.33542c1.12057,-2.52885 3.01603,-4.69119 4.04847,-7.25729c1.70839,-4.24617 3.35301,-8.4685 4.80692,-12.81324c0,0 0.38253,-1.14078 -0.07852,-2.07524c0.63323,-0.11306 1.27831,-0.24173 1.91571,-0.38506c-0.22801,2.27051 -0.02839,4.44301 -0.2584,6.97312c-0.24978,2.74758 -1.33701,6.01924 -1.5868,8.76681c-0.24265,2.66904 0.28282,5.40492 0.01205,8.07126c-0.45821,4.51215 -0.9921,9.05699 -1.60215,13.45527c-0.40416,2.9139 -0.17851,5.55497 -0.71386,8.41392c-0.07164,0.38258 0.47613,1.03198 0.10948,1.16262c-0.68558,0.24428 -1.4183,-0.50572 -2.14299,-0.43862c-0.18214,0.01686 -4.81964,1.56938 -5.20178,1.69676c-2.09235,0.70222 -6.85814,2.28433 -8.81806,0.73673c0.05878,-0.22558 0.09163,-0.48072 0.09163,-0.76891z" fill="#d38133" stroke="none" stroke-width="0.5"></path>
      <path d="M320.78105,371.47873c-0.64157,0.24632 -3.06869,1.0045 -4.16404,0.24068l1.99324,-1.38338l1.60295,-2.47359c0,0 0.67928,-1.36644 -0.08833,-2.49662c1.62453,-3.17773 3.52008,-6.1127 5.17781,-9.37823c4.58395,-9.02983 9.42211,-18.04352 13.99501,-27.10469c0.78995,0.30001 1.60915,0.55707 2.44018,0.77754c-4.18738,8.66619 -6.66949,17.54125 -9.3143,26.78456c-0.99327,3.47135 -2.05191,6.88477 -3.19513,10.31448c-0.44803,1.34411 -0.44793,2.88375 -1.21804,4.07298c-0.96389,1.48849 -6.04522,0.63564 -7.22937,0.64626z" fill="#d38133" stroke="none" stroke-width="0.5"></path>
      <path d="M394.53386,237.3197c0.13105,-0.78316 0.27382,-1.53717 0.41764,-2.27575c-0.1766,1.28985 -0.367,2.57886 -0.58589,3.85203c0.02988,-0.53899 0.08294,-1.06653 0.16825,-1.57629z" fill="#00629e" stroke="none" stroke-width="0.5"></path>
      <path d="M387.07469,326.89824c-1.41665,-0.85119 -2.02489,-2.10748 -2.7035,-3.49484c7.99003,-6.69403 11.85512,-16.9216 14.43428,-27.25408c1.50423,-4.67941 1.1212,-8.96121 -0.26292,-13.15919c1.57534,2.36037 3.02384,4.72022 4.5104,7.31708c2.59921,4.54053 4.77407,9.70882 5.30845,15.03027c0.14416,1.43557 -0.25956,2.93962 0.0543,4.34786c0.47616,2.13649 2.09157,3.97332 2.34495,6.14752c0.50342,4.31973 -0.10101,8.47463 -1.12276,12.59319c-0.50386,0.29057 -1.07507,0.49259 -1.51475,0.87338c-0.20483,0.17739 -0.21222,0.9722 -0.34605,0.7366c-1.43063,-2.5186 0.67211,-6.04676 -5.77661,-4.85206c-1.40722,0.2607 -1.48554,2.45212 -2.24136,3.66743c-0.36309,0.58382 -0.82852,1.11042 -1.12477,1.73083c-0.13318,0.2789 -0.03682,1.20682 -0.1423,0.9163c-0.51328,-1.41372 -1.92138,-6.3849 -3.38127,-6.98513c-4.38795,-1.80408 -4.43262,1.69636 -7.13281,2.964c-0.32305,0.15166 -0.59739,-0.39534 -0.90329,-0.57915z" fill="#53cbf0" stroke="none" stroke-width="0.5"></path>
      <path d="M344.79623,279.51948c-0.53634,4.00731 -1.05702,8.07417 -2.64766,11.73327c-0.37071,0.85278 -1.14354,1.48244 -1.55742,2.31512c-2.39768,4.8238 -3.58841,10.46672 -5.6984,15.42534c-1.28251,3.014 -2.8088,5.08665 -3.80591,8.08067c-0.18084,-0.02471 -0.29677,-0.02486 -0.29677,-0.02486l-1.59453,0.1273c-0.80001,0.26666 -1.62362,0.48095 -2.40491,0.79829c-0.5596,0.22731 -1.90774,1.30421 -1.64737,0.75921c0.21445,-0.44889 0.94189,-0.6919 0.90371,-1.1879c-0.0103,-0.13381 -0.02331,-0.26749 -0.0379,-0.40065l0.06986,0.00007l-0.00461,-4.00244c0,-1.21739 -0.878,-2.23736 -2.03029,-2.46025c2.26034,-2.6549 4.43401,-5.39345 5.80018,-8.54429c0.40553,-0.9353 0.17886,-2.1205 0.68129,-3.00752c1.02218,-1.80462 3.00119,-3.02985 4.03818,-4.826c1.58434,-2.74419 2.51958,-6.0095 4.58638,-8.46699c1.7766,-2.11244 3.69638,-4.24858 5.64616,-6.31838z" fill="#53cbf0" stroke="none" stroke-width="0.5"></path>
      <path d="M355.28232,270.52914c-0.55211,-0.22225 -1.10452,-0.45637 -1.65497,-0.67559c0.10449,0.01592 0.17266,0.01592 0.17266,0.01592c0.19082,-0.00237 0.37763,0.00162 0.56088,0.01137c0.30363,0.2319 0.61079,0.44912 0.92144,0.6483z" fill="#53cbf0" stroke="none" stroke-width="0.5"></path>
      <path d="M359.91806,296.93607c-1.10303,0.55151 -1.93399,0.28686 -2.49291,-0.12295c-3.11931,4.30201 -5.0231,9.86185 -5.74383,14.99238c-0.37743,2.68678 1.2077,7.76262 4.81463,7.59635c2.92656,-0.13491 5.95661,-1.91454 8.54737,-3.01155c0.65488,-0.27729 1.45055,-0.22257 2.04237,-0.61692c2.30775,-1.53777 4.35828,-4.45227 6.38769,-6.3877c1.3576,-4.49439 4.39541,-8.92876 4.42733,-13.82617c0.01272,-1.95154 -1.56693,-6.67451 -3.82515,-7.26678c-1.44687,-0.37948 -2.79368,0.33858 -4.08492,0.77897c-3.94635,1.34594 -7.56991,1.74502 -9.91046,5.41505l0.95591,-0.90478c0,0 1.11803,2.23606 -1.11804,3.3541zM357.42452,289.84193c2.97037,-3.14133 6.58194,-4.0748 10.98494,-5.51363c2.51786,-0.8228 4.24167,-1.67175 7.11503,-0.82101c2.64467,0.78302 4.33756,3.00341 5.52132,5.29436c4.1522,8.03577 -0.64092,15.69988 -3.31917,23.21267c-2.39786,2.48012 -5.13297,6.09215 -8.01233,8.01234c-2.53008,1.68725 -6.5767,2.80072 -9.50797,3.49874c-1.29665,0.30877 -2.56979,0.90554 -3.90229,0.87278c-4.77648,-0.11741 -8.91334,-4.84451 -9.57172,-9.29772c-0.47283,-3.19817 0.09719,-4.4026 0.84235,-7.40674c1.61166,-6.49747 3.89631,-12.35181 8.65761,-17.16146c0,0 0.48106,-0.48105 1.19223,-0.69032z" fill="#000000" stroke="none" stroke-width="0.5"></path>
      <path d="M359.8892,296.89524c2.23607,-1.11804 1.16403,-3.26629 1.16403,-3.26629l-0.99553,0.81315c2.34055,-3.67003 6.00331,-4.07156 9.94966,-5.4175c1.29124,-0.44039 2.64707,-1.15419 4.09394,-0.77471c2.25822,0.59227 3.85449,5.33154 3.84177,7.28308c-0.03192,4.89741 -3.07001,9.38535 -4.42761,13.87974c-2.02941,1.93543 -4.1125,4.87201 -6.42025,6.40978c-0.59182,0.39435 -1.3959,0.34053 -2.05078,0.61782c-2.59076,1.09701 -5.64533,2.87083 -8.57189,3.00574c-3.60693,0.16627 -5.2113,-4.92764 -4.83387,-7.61442c0.72073,-5.13053 2.63094,-10.75094 5.75025,-15.05295c0.55892,0.40981 1.39725,0.66809 2.50028,0.11658z" fill="#ffffff" stroke="none" stroke-width="0.5"></path>
      <path d="M366.40001,349.23897c-1.20902,0 -1.83335,-0.58469 -2.15575,-1.18855c-0.08142,0.12951 -0.16283,0.25902 -0.24425,0.38853l-0.63043,-3.49543c-0.70677,0.22782 -1.47473,0.34634 -2.16959,0.59543v0l-1.00417,-3.57965c0.43059,-0.75353 0.83509,-1.49249 1.21984,-2.22784c0.13777,-0.18722 0.26847,-0.37668 0.38016,-0.57214l4.4792,-4.42751c0.13249,0.73596 0.26498,1.47192 0.39747,2.20789l0.23018,-0.24968c0.18501,0.68999 0.37002,1.37997 0.55503,2.06996c-0.10881,0.23744 -0.21868,0.47389 -0.32978,0.70961c0.17611,0.97829 0.35223,1.95659 0.52834,2.93488l-0.4596,0.13004l0.35332,0.2574c-1.10191,1.75284 -2.20382,3.50567 -3.30573,5.25851c-0.34425,-0.6448 -0.34425,-1.31145 -0.34425,-1.31145v-1.99678c-0.17125,0.07704 -0.34882,0.1428 -0.53043,0.20133l-0.03089,-0.17125l-2.1387,0.76668v0c-0.33472,-1.19322 -1.11941,-2.34574 -1.00417,-3.57965c0.07903,-0.84616 0.69978,-1.52109 1.21984,-2.22784c1.13922,-2.17731 2.10534,-4.32293 3.06314,-6.72099c0,0 0.92848,-2.32119 3.24967,-1.39271c2.32119,0.92848 1.39271,3.24967 1.39271,3.24967c-0.54059,1.34956 -1.08712,2.63483 -1.66348,3.89255c0.48077,1.793 0.96153,3.58599 1.4423,5.37899v2.60001c0,0 0,2.5 -2.5,2.5z" fill="#905823" stroke="none" stroke-width="0.5"></path>
      <path d="M368.50002,357.93895c0,2.5 -2.5,2.5 -2.5,2.5l-1.19055,-0.12829c-2.72348,-0.92642 -4.81003,-1.1264 -7.65592,-0.69683c0,0 -2.47487,0.35355 -2.82842,-2.12133c-0.35355,-2.47487 2.12133,-2.82842 2.12133,-2.82842c3.6109,-0.49252 6.4787,-0.23282 9.94412,0.90315l-0.39056,-0.12829c0,0 2.5,0 2.5,2.5z" fill="#905823" stroke="none" stroke-width="0.5"></path>
      <path d="M366.82537,368.54527c-0.60633,2.42536 -3.03169,1.81903 -3.03169,1.81903l-1.24243,-0.33776c-3.72543,-0.37257 -7.23277,-0.66464 -10.83806,-1.68379c0,0 -2.4038,-0.68682 -1.71698,-3.09063c0.68682,-2.4038 3.09063,-1.71698 3.09063,-1.71698c3.30544,0.95606 6.53757,1.17382 9.96193,1.51622l1.95758,0.46223c0,0 2.42536,0.60633 1.81903,3.03169z" fill="#905823" stroke="none" stroke-width="0.5"></path>
      <path d="M333.20724,335.22936c1.16536,-1.3256 2.30116,-2.79426 2.82106,-4.48097c0,0 0.79056,-2.37171 3.16227,-1.58115c0.01722,0.00574 0.03428,0.01156 0.05117,0.01747c0.45799,-0.57626 1.16497,-0.94575 1.95826,-0.94575c1.38071,0 2.5,1.11929 2.5,2.5c0,0.46716 -0.12813,0.90438 -0.35117,1.27846l-1.57819,2.76187l-0.0762,-0.04354l-0.02676,0.2085c-0.47085,0.5855 -0.70312,1.55812 -1.34415,1.86749l-1.32883,2.32544c-0.42441,0.77571 -1.24811,1.30178 -2.19468,1.30178c-0.31115,0 -0.60903,-0.05684 -0.88381,-0.16071l-0.40746,0.47537c-0.45858,0.54156 -1.1435,0.88536 -1.90872,0.88536c-1.38071,0 -2.5,-1.11929 -2.5,-2.5c0,-0.52532 0.16202,-1.01279 0.43883,-1.41518l1.58102,-2.37155l0.05694,0.03796z" fill="#905823" stroke="none" stroke-width="0.5"></path>
      <path d="M334.58672,354.81911c-2.08014,1.38673 -3.46687,-0.69342 -3.46687,-0.69342l0.59336,-0.18293c-1.77848,-0.50851 -3.54884,-1.04757 -5.30379,-1.63211c0,0 -2.37171,-0.79058 -1.58113,-3.16228c0.79058,-2.37171 3.16228,-1.58113 3.16228,-1.58113c1.68598,0.56245 3.38719,1.07999 5.09623,1.5679l2.19333,2.2171c0,0 1.38673,2.08014 -0.69342,3.46687z" fill="#905823" stroke="none" stroke-width="0.5"></path>
      <path d="M331.3,366.33898c0,2.5 -2.5,2.5 -2.5,2.5h-0.79999c-3.10817,-0.00657 -6.02806,-0.43417 -9.1101,-0.81932c0,0 -2.4807,-0.31008 -2.17061,-2.79078c0.31008,-2.4807 2.79078,-2.17061 2.79078,-2.17061c2.87521,0.35948 5.59323,0.78766 8.48994,0.78071h0.79999c0,0 2.5,0 2.5,2.5z" fill="#905823" stroke="none" stroke-width="0.5"></path>
      <path d="M119.53064,53.17947v-45h240.93872v45z" fill="#ffffff" stroke="none" stroke-width="0"></path>
      <text transform="translate(132.54956,38.98335) scale(0.69199,0.69199)" font-size="40" xml:space="preserve" fill="#000000" stroke="#000000" stroke-width="3" font-family="&quot;JetBrains Mono&quot;, Sans Serif" font-weight="normal" text-anchor="start">
        <tspan x="0" dy="0"> !</tspan>
      </text>
      <path d="M171.23826,155.06731l1.51106,-1.07776c0.58882,-2.16432 1.24154,-4.11417 1.55698,-6.3473c0.04868,-8.37702 -4.85084,-17.12289 -12.30099,-21.22671c-3.72041,-2.04934 -10.24532,-1.49299 -12.57612,-5.75609c-1.71601,-3.13864 -0.59984,-6.60171 1.29555,-9.24742c-1.52527,0.46634 -3.10429,2.00015 -4.42634,2.65323c-2.29181,1.13214 -6.77398,2.61075 -9.32289,2.24411c-1.65493,-0.23805 -3.61836,-1.50661 -4.80844,-3.06987c-0.38231,0.77779 -0.86464,1.53322 -1.53949,2.28585c-5.25246,5.85777 -13.59754,6.6188 -20.68081,7.56997c-7.34301,0.98604 -15.80629,7.28089 -19.37614,13.56451c-4.22718,7.32789 -6.89329,16.65007 -6.87061,25.15965c0.01049,3.93454 0.92834,7.89529 1.19371,11.82277c0.32764,4.84917 1.0538,8.66333 3.00415,13.19243c0,0 0.14612,0.34094 0.19446,0.81646c1.67785,2.53415 3.03027,6.36595 5.70926,8.09818c4.87621,3.15294 11.68517,5.99933 17.57565,6.37646c6.82074,0.43668 13.65574,-0.40356 20.44554,-0.39999c3.42765,-0.49798 7.52345,-0.36584 10.80285,-1.13941c0.81419,-0.19206 1.42923,-0.90777 2.22896,-1.15317c2.9196,-0.8959 5.05656,-1.03454 7.37662,-2.33166c-0.14185,-0.06473 -0.28527,-0.12831 -0.43051,-0.19045c-2.30384,-0.98567 -3.93914,-1.29306 -6.15903,-2.47612c-4.70024,-2.50494 -8.11158,-6.15206 -13.23225,-7.84376c0,0 -2.18848,-0.7295 -1.6602,-2.88923c-1.73845,-1.43875 -0.38356,-3.33559 -0.38356,-3.33559c2.73834,-3.82969 6.15832,-7.24323 8.76669,-11.15219c3.92163,-5.87703 6.28106,-13.53891 13.6563,-16.15939c2.36149,-0.83905 4.95371,-0.95743 7.56786,-0.66467c-0.44544,-0.27984 -0.70869,-0.6089 -0.70869,-0.6089c-0.65031,-0.86308 -1.6125,-1.56295 -1.95093,-2.58924c-0.5092,-1.54415 -0.90032,-3.27523 -0.50283,-4.85184c1.46127,-5.79607 11.18702,-6.05532 13.45919,-0.80365c0.64337,1.48701 0.51554,3.27228 0.17987,4.85735c-0.29117,1.3749 -0.97784,2.74457 -1.99511,3.71426c-0.84248,0.80307 -2.16496,0.85539 -3.24745,1.28308l-2.63673,-1.0652c-0.23708,0.16243 -0.46758,0.27442 -0.68931,0.3462c3.08218,0.55971 6.1242,1.58688 8.78316,2.57322c0.11247,-0.1156 0.19058,-0.17809 0.19058,-0.17809zM83.30214,188.80426c-2.14239,-5.02055 -3.0413,-9.41308 -3.39585,-14.80757c-0.26566,-4.04207 -1.21535,-8.12253 -1.20629,-12.17723c0.02113,-9.45422 2.90002,-19.47264 7.52939,-27.64034c4.40055,-7.66163 14.09863,-14.70055 23.02385,-16.03549c7.47593,-1.11817 16.66882,-1.65005 19.49582,-10.04529l0.37086,-2.59604c0.15585,-1.23096 1.2068,-2.18284 2.48007,-2.18284c0.88153,0 1.6565,0.45626 2.10163,1.14551l1.5785,2.36775l-0.05227,0.03485c0.07417,0.08301 0.14686,0.16747 0.21794,0.25353c0.90853,1.1001 0.30255,2.96262 1.12196,4.13061c0.55448,0.79034 5.12164,-0.90792 5.49338,-1.02056c2.68351,-0.8131 4.51424,-2.75809 7.19344,-3.59795c0.43359,-0.13592 5.87656,-0.85051 6.34543,-0.91372l0.33389,0.16271l0.01965,-0.13758l2.76362,0.3948c1.23096,0.15585 2.18284,1.2068 2.18284,2.48007c0,1.05134 -0.64897,1.95111 -1.56816,2.32056l-2.74705,1.1773l-0.02581,-0.06022c-2.01581,1.99907 -3.74412,4.35594 -2.78816,6.12239c0.33304,0.6154 2.85375,1.21448 3.01974,1.26826c2.38189,0.77178 5.41035,1.38768 7.60416,2.57566c9.31862,5.0462 14.85428,15.65826 14.89899,25.97327c-0.45925,3.18794 -1.3041,5.7598 -2.41215,8.76893c5.20804,1.20804 10.56606,2.47837 14.72439,5.93789c6.29708,5.23885 10.11069,16.01146 0.60541,20.20225c-1.5258,0.67272 -3.09961,1.07373 -4.70349,1.30576l-1.06754,2.17857c-0.90867,0.51867 -1.81734,1.03734 -2.72601,1.556c-3.2695,2.18218 -6.66621,3.94536 -10,6c-2.79356,1.7217 -5.663,3.80137 -8.81954,5.00138c3.43854,0.9653 6.59426,2.44574 9.99017,3.9275l2.27679,1.79232c0,0 1.75571,1.40456 0.60508,3.21468c0.44762,2.26109 0.23505,4.71502 0.50089,7.11675c0.51066,4.61354 2.08632,9.55299 1.61352,14.3059c-0.10883,1.0941 -0.66019,2.10944 -0.79999,3.20001c-0.64487,5.03062 0.01873,10.61511 0.01873,15.69455c0,3.06368 -0.2021,5.4901 0.76771,8.39953c0.02032,2.26676 0.03228,4.53363 0.03228,6.80048v1.59998c0,0 0,0.91155 -0.55042,1.63379c0.27908,1.56753 0.50403,3.1172 0.69987,4.5951c0.22409,1.69101 0.73543,3.37256 0.64839,5.07613c-0.18376,3.59692 -1.7829,7.05326 -3.03751,10.33947l-0.32589,0.85027c0,0 -0.04792,0.12502 -0.1505,0.3061c0.13036,0.23627 0.1878,0.40859 0.1878,0.40859l0.00001,-0.00001c1.19989,3.73648 0.41179,7.00612 0.89599,10.79012c0.10703,0.83644 0.69022,1.56388 0.79999,2.39996c0.61264,4.66654 -0.56631,12.95725 -5.89335,14.83358c-1.18419,0.41711 -2.44886,-0.55521 -3.67329,-0.83281l-0.94658,-0.23606c0.46781,2.77146 0.95034,5.53461 1.28209,8.26741c1.53122,12.61348 3.00009,25.35014 5.97966,37.72665c0.4121,1.71179 1.93877,3.01187 2.37651,4.71729c0.49958,1.94629 0.12295,4.07591 0.67241,5.998c0.86678,1.52995 -0.49736,2.89414 -0.49736,2.89414l-1.98105,1.91245c-6.87032,4.51216 -15.33977,5.00562 -23.18412,6.7461c-2.19706,0.48748 -4.4576,0.63299 -6.69712,0.85497c-1.32988,0.13182 -2.61353,0.9993 -3.93216,0.7821c-0.78292,-0.12896 -1.44432,-0.59269 -2.0954,-1.08482l-0.64961,0.2121c-0.10794,-0.335 -0.24359,-0.65843 -0.39632,-0.97477c-0.07232,-0.04693 -0.1452,-0.09231 -0.21879,-0.13574c0,0 -1.3307,-0.88714 -1.15388,-2.30663c-0.21482,-0.39479 -0.4118,-0.79729 -0.56905,-1.21674c-1.69874,-4.53143 -1.99307,-9.55537 -2.57159,-14.25129c-0.44207,-3.58828 -1.9868,-6.57765 -3.08336,-9.89406c-1.51177,-4.57216 -2.03256,-9.44987 -2.78422,-14.25503c-0.4241,3.23995 -0.79581,6.49661 -1.17251,9.76984c-0.54922,4.77221 -1.91057,9.45802 -2.38711,14.28c-0.51458,5.20683 -1.15126,10.53147 -2.54506,15.6238c0.69372,1.46526 -0.57861,2.73768 -0.57861,2.73768l-0.17576,-0.06256c-0.41471,1.07104 -1.60151,1.46663 -1.60151,1.46663l-2.40002,0.79998c-7.11697,2.3581 -15.78162,2.38486 -23.25595,1.6261c-2.54983,-0.25885 -4.99119,-1.21785 -7.53504,-1.53009c-5.60444,-0.68789 -10.72912,-0.14102 -15.91761,-2.63168c0,0 -0.76095,-0.38048 -1.17308,-1.14144l-2.48057,-1.0852c0.87982,-2.63945 1.69564,-5.20529 2.3714,-7.90841c1.55829,-4.6747 2.49245,-9.23552 3.11904,-14.00644c0.34735,-2.64479 1.71376,-5.05332 2.4849,-7.60692c0.4619,-1.52956 1.30798,-7.50633 1.56124,-8.65344c2.82938,-12.81529 7.41227,-25.29886 9.56915,-38.24522c0,0 0.02805,-0.16827 0.11344,-0.40956c-0.89395,-0.64676 -1.76543,-1.37618 -2.61524,-2.21166c0,0 -0.33755,-0.33755 -0.57014,-0.86515c-4.87182,0.13553 -10.13736,0.57518 -14.86254,-0.03486c-3.72876,-0.4814 -7.57974,-2.70905 -10.95627,-4.15803c-9.4787,-4.06761 -17.16931,-13.31976 -15.91099,-24.3102c0.44074,-3.84954 1.24681,-7.83365 2.49601,-11.59011c1.8692,-5.60739 2.51537,-10.93993 3.95546,-16.6511c1.81856,-7.21215 5.71976,-13.95848 8.05156,-20.96965c1.60334,-4.82088 3.01525,-9.79395 4.62437,-14.67074c0.05358,-0.58332 0.34436,-1.03603 0.64917,-1.35815c0.28012,-0.35278 0.69569,-0.71028 1.27978,-0.84096l0.82463,-0.39893c2.92503,-1.93202 6.08546,-2.66101 9.14211,-4.19116c4.53449,-2.26995 8.46391,-5.53315 12.89006,-8.00282c-0.69938,-1.19018 -1.37322,-2.39466 -2.12556,-3.51884c0,0 -0.36848,-0.55272 -0.44065,-1.27827c-0.1196,-0.18956 -0.17709,-0.3237 -0.17709,-0.3237zM156.83827,200.57164c0,0 -0.14008,-0.11206 -0.31517,-0.31367c-6.94524,5.08413 -16.05783,5.28888 -24.34588,6.45522c-7.02213,0.00363 -14.10238,0.886 -21.15443,0.39999c-6.66349,-0.45923 -14.55217,-3.49255 -20.02436,-7.22355c-0.78534,-0.53545 -1.47026,-1.15819 -2.08631,-1.83954c-4.73952,2.51588 -8.85899,6.01867 -13.66746,8.42041c-2.83899,1.41802 -5.76038,1.99048 -8.45787,3.80883l-0.93443,0.478c-1.55105,4.74353 -2.92323,9.56976 -4.48766,14.25322c-2.30148,6.88998 -6.19172,13.53819 -7.94844,20.63032c-1.4357,5.79611 -2.14161,11.2403 -4.04454,16.94889c-1.1835,3.54165 -1.80386,7.189 -2.30398,10.80991c-1.1861,8.58742 5.76057,15.83898 12.889,18.88988c2.98116,1.27591 6.53711,3.44599 9.84378,3.84198c4.87796,0.58416 10.28673,-0.03605 15.19904,0c6.08078,-2.10856 12.03147,-0.97891 18.19786,-2.35859c4.766,-1.06635 8.82034,-4.00298 13.41203,-5.5454l2.3906,-0.12829c0,0 2.5,0 2.5,2.5c0,0.26069 -0.02719,0.49419 -0.07588,0.70335l2.96267,0.4165c2.88322,2.13615 3.67246,0.82737 7.10774,0.39888c2.96178,-0.36943 4.63049,-0.73896 7.5149,-1.49049c0.46329,-0.1207 1.05022,0.10459 1.42281,-0.19604c0.26916,-0.21717 0.09312,-0.68692 0.10003,-1.0327c0.04505,-2.25417 0.19691,-3.70362 -0.61855,-5.78812c-0.49515,-1.26572 -1.98299,-2.31079 -1.80159,-3.65776c0.19722,-1.46445 1.84082,-2.31201 2.76123,-3.46801c1.38147,-4.47377 -1.01562,-6.445 -3.15352,-10.09892c-0.72244,-1.23474 -1.98732,-2.35648 -2.01984,-3.78668c-0.04067,-1.78841 2.18929,-3.02364 2.39996,-4.80006c0.15778,-1.33047 -1.98287,-1.72904 -2.46779,-2.23225c-0.51092,-0.53019 -0.36668,-1.6087 -1.01184,-1.96354c-0.59638,-0.32801 -1.34075,0.25866 -2.02037,0.29582c-2.2733,0.1243 -2.63843,-0.43736 -4.50161,0.54579c-0.8971,0.47337 -4.04814,2.93694 -4.79996,3.2c-0.38668,0.1353 -0.79474,0.30694 -1.21089,0.47264c-0.26562,0.60757 -0.74002,0.94794 -1.1882,1.13863l-0.00001,-0.00007c-0.12727,0.17655 -0.25455,0.35311 -0.38182,0.52966l-0.85932,-0.01231l0.13242,0.39725l-2.34466,0.78159c-0.26421,0.09499 -0.54904,0.14676 -0.84597,0.14676c-1.38071,0 -2.5,-1.11929 -2.5,-2.5c0,-0.88153 0.45625,-1.65649 1.1455,-2.10163l0.77365,-0.51577c-0.47552,-1.48628 1.26694,-2.68451 1.28087,-4.58263c0.00524,-0.71394 -0.66466,-1.29308 -0.76771,-1.99957c-0.14561,-0.99819 0.02307,-2.01738 0.0346,-3.02606c-2.65635,-5.06877 -4.63089,-10.11562 -9.42867,-13.74624c-1.34641,-1.01887 -3.25176,-1.04504 -4.93819,-1.12815c-0.48624,-0.02396 -1.33933,-0.22457 -1.86838,-0.18519c-0.00288,0.02251 -0.00573,0.04503 -0.00855,0.06754l-0.18717,1.49252c1.97649,8.61178 4.51581,16.68994 4.5641,25.72517c0,0 0,1.19988 -0.83125,1.93712c0.02032,0.14388 0.0312,0.29792 0.0312,0.46285c0,2.5 -2.5,2.5 -2.5,2.5c-5.53012,0 -10.28319,0.92055 -15.6945,1.5813c-3.24192,0.39586 -6.72388,0.19472 -10.09302,0.08009c-1.02474,0.10309 -2.06073,0.26911 -3.01247,-0.06135h-3.19998c-1.38071,0 -2.5,-1.11929 -2.5,-2.5c0,-1.38071 1.11929,-2.5 2.5,-2.5h3.19998c0.38854,-0.13491 6.99653,0.10945 7.59952,0.03229c1.65494,-0.21179 3.36377,-0.46665 5.07266,-0.75491c0.04985,-0.76736 0.4477,-1.36413 0.4477,-1.36413c1.07108,-1.55582 1.44895,-3.4889 2.19384,-5.22468c0.39164,-0.91261 1.19251,-1.60064 1.6405,-2.48695c1.45998,-2.88844 2.29307,-6.39405 3.23618,-9.63008c0.04097,-0.19987 0.09345,-0.39261 0.16814,-0.56949c0.15176,-0.50677 0.30737,-1.00548 0.46975,-1.4926l0.78176,-2.34533c0.13838,-0.44996 0.40034,-0.84579 0.74627,-1.14789c-0.08231,-0.46502 -0.03688,-0.82729 -0.03688,-0.82729l0.11351,-0.90519c-0.22236,-0.77211 -0.31335,-1.5435 -0.11082,-2.31556c0.00084,-0.0032 0.00168,-0.0064 0.00252,-0.00959c-0.08727,-0.67639 0.10364,-1.24913 0.10364,-1.24913c0.39142,-1.11754 0.6851,-2.3358 0.90392,-3.59733c0.1408,-1.12129 0.28543,-2.27156 0.40515,-3.22047c0.13938,-1.64444 0.18868,-3.28116 0.1949,-4.79214l0.28387,-0.3275l-0.18786,-0.06262l0.78179,-2.3453c0.31418,-1.02155 1.26534,-1.7641 2.38993,-1.7641c1.38071,0 2.5,1.11929 2.5,2.5c0,0.1348 -0.01067,0.26711 -0.03121,0.39614l-0.69828,4.88788c0.06981,1.54913 -0.10675,3.08832 -0.35704,4.62457c1.56902,-0.14142 3.23118,0.05513 4.7609,0.45829c8.36201,2.20377 12.14739,11.77591 15.45877,18.65871c0.02132,2.07822 0.85397,4.09615 0.86687,6.17444c0.00151,0.24325 -0.0525,0.57745 -0.14231,0.92873c0.38347,-0.21817 0.77351,-0.42088 1.05554,-0.6089c3.26331,-2.17554 5.4059,-2.9513 9.38676,-2.81984c1.46241,0.04829 3.05895,-0.33404 4.37966,0.29582c1.07781,0.51401 1.3331,2.00281 2.1881,2.83639c0.76535,0.74618 2.0169,0.96714 2.61902,1.85032c0.7758,1.13794 1.26514,2.54104 1.31322,3.91743c0.04252,1.21718 -0.50953,2.40904 -1.05419,3.49839c-0.2791,0.5582 -1.30122,0.67915 -1.34577,1.30165c-0.03701,0.51715 0.85268,0.61124 1.1801,1.01324c0.14811,0.18185 3.35417,5.06447 3.36567,5.08834c1.76519,3.66402 1.136,6.76757 -0.11916,10.41271c-0.67961,0.44401 -1.83543,0.54613 -2.03882,1.33204c-0.1508,0.58271 1.14063,0.59843 1.39848,1.1423c1.04655,2.20732 1.39074,6.32027 0.98143,8.61178c-1.11126,6.22137 -8.40311,6.25971 -13.36228,6.88088c-3.35877,0.4207 -3.65205,1.74821 -7.42996,0.71144c-1.16059,-0.3185 -2.04151,-1.2751 -3.06226,-1.91266l-0.21325,0.4199c0,0 -2.5,0 -2.5,-2.5c0,-0.26086 0.02721,-0.49451 0.07597,-0.70376l-0.7854,-0.12448c-4.73138,1.56309 -8.86272,4.56646 -13.78793,5.65455c-4.93116,1.0894 -9.70267,0.74557 -14.51297,1.4917c3.39138,2.54562 7.33304,3.52429 11.5009,4.91032l1.92748,0.93561c0,0 2.23609,1.118 1.11809,3.35408c-1.118,2.23609 -3.35408,1.11809 -3.35408,1.11809l-1.2726,-0.66436c-2.90255,-0.96995 -5.62566,-1.81877 -8.1836,-2.97607c-2.26135,12.56101 -6.65554,24.70325 -9.3907,37.17018c-0.56368,2.56926 -0.87346,6.37981 -1.63878,8.94654c-0.83722,2.80788 -1.98804,4.01889 -2.31508,6.7931c-0.59549,5.05141 -1.64238,9.87786 -3.28098,14.79349c-0.3653,1.46124 -0.77223,2.88635 -1.20765,4.30404c4.39267,2.28077 9.5425,1.51123 14.40781,2.1293c2.4194,0.30735 4.73729,1.24558 7.16445,1.48408c6.78482,0.6667 14.77736,0.78228 21.24451,-1.38807l1.19278,-0.39758c1.54743,-5.13065 2.17193,-10.55295 2.70634,-15.83693c0.49663,-4.91041 1.8536,-9.66224 2.41281,-14.51993c1.27025,-11.03416 2.52352,-21.87334 5.7652,-32.53467c-0.03196,0.01101 -0.06395,0.02186 -0.09599,0.03253l-1.59054,0.12829c0,0 -0.86544,0 -1.57793,-0.5092c-3.75168,0.76823 -7.50461,1.29606 -11.22206,1.30918c0,0 -2.5,0 -2.5,-2.5c0,-2.5 2.5,-2.5 2.5,-2.5c9.96687,0.04105 20.45337,-4.05338 30.19876,-6.07498l0.13883,0.03929l-0.00549,-0.05599l2.99101,-0.29319c0.09091,-0.01002 0.18329,-0.01516 0.27686,-0.01516c1.38071,0 2.5,1.11929 2.5,2.5c0,1.12459 -0.74254,2.07574 -1.76408,2.38993l-2.34533,0.78182l-0.10116,-0.30345c-2.4421,1.70013 -5.11886,3.00659 -8.21669,3.5866c-1.17231,0.21949 -2.37925,0.03278 -3.57748,-0.01526c-0.01898,0.43725 -0.12355,0.75094 -0.12355,0.75094c-1.36925,4.10461 -2.40502,8.23814 -3.23372,12.40028c0.59852,0.51315 0.83367,1.21856 0.83367,1.21856c2.46342,7.45953 2.2931,15.74523 4.79304,23.17928c1.2205,3.62939 2.81966,6.98214 3.31654,10.90587c0.53892,4.2557 0.68668,8.83883 2.22846,12.94878c0.32561,0.868 0.7938,1.67508 1.25503,2.48469c0.02033,0.00364 0.04098,0.00655 0.06195,0.00869c0.86215,0.08799 1.60806,-0.70946 2.46787,-0.81799c2.03324,-0.25665 4.10239,-0.29977 6.10281,-0.745c7.10752,-1.58191 15.42797,-1.85072 21.61593,-6.05382l0.00466,-0.00492l-0.05401,0.00308c0,0 -0.72568,-1.45137 0.16154,-2.60016c-0.04811,-0.8756 -0.11399,-1.74841 -0.3182,-2.59341c-0.42685,-1.76621 -1.97016,-3.12322 -2.42354,-4.88281c-3.22445,-12.51443 -4.55697,-25.61098 -6.11072,-38.4074c-0.81639,-6.72362 -2.43785,-13.55467 -2.72817,-20.31695c-1.33375,0.45224 -2.6914,0.83344 -3.95426,1.25442l-2.39058,0.1283c0,0 -2.5,0 -2.5,-2.5c0,-2.5 2.5,-2.5 2.5,-2.5l0.80937,0.1283c2.32022,-0.77345 5.34042,-1.36226 7.32883,-2.85642c3.08778,-2.32026 5.656,-6.62111 7.15208,-10.12862c0.54724,-1.283 1.42128,-2.54442 1.41157,-3.93922c-0.00286,-0.41115 -1.33756,-4.3065 -1.47357,-4.71348c0,0 -0.79061,-2.3717 1.58109,-3.1623c1.85016,-0.61675 2.73814,0.69093 3.0392,1.29588c0.02643,-0.21546 0.04467,-0.42555 0.05366,-0.62916c0.11173,-2.53256 -0.1094,-5.01753 -0.60224,-7.44259v1.14757c0,0 0,2.5 -2.5,2.5c-2.5,0 -2.5,-2.5 -2.5,-2.5v-4.59998c0.06043,-5.30533 -0.63862,-5.9905 -2.77491,-10.94938c-0.13477,-0.31284 -1.37576,-3.2415 -2.41878,-5.56499c-1.11739,-1.38443 -2.2787,-2.72008 -3.46211,-4.00254c-0.14242,0.72667 -0.64818,2.01691 -2.44417,2.01691c-2.5,0 -2.5,-2.5 -2.5,-2.5v-3.20001c0,-0.37481 -0.0057,-6.50824 0.01873,-6.70542c0.29987,-2.42034 1.31584,-4.71793 1.59341,-7.14093c0.59015,-5.15149 0.30126,-10.29448 0.92109,-15.40537c-0.17768,-0.14307 -0.33539,-0.30994 -0.46827,-0.49578c0.48748,-0.05151 0.97776,-0.13811 1.47358,-0.26872c0.84989,-3.97706 0.46025,-7.65157 -3.20032,-10.41135zM164.40381,214.10628l0.09619,0.1132c0,0 0,1.25693 -0.89125,1.98831c-0.19729,3.80382 -0.08712,7.63399 -0.52092,11.43771c-0.28082,2.46231 -1.29599,4.80042 -1.60654,7.25916c-0.12182,0.96445 -0.12276,1.93623 -0.09062,2.91008c0.59133,0.23091 0.97709,0.61668 0.97709,0.61668c0.01204,0.01205 0.02408,0.02411 0.03613,0.03617c1.5007,1.4932 3.58383,2.39565 4.87029,4.07708c0.43901,0.5738 1.01659,1.65101 1.62214,2.90266c1.87136,2.1992 3.65109,4.50969 5.15837,6.85676c-0.12267,-2.41612 0.04531,-4.87442 0.04531,-7.30492c0,-4.25616 -0.49666,-8.88426 0.01873,-13.10544c0.26441,-2.16554 1.11202,-4.333 0.81354,-6.49411c-0.11537,-0.83534 -0.70687,-1.56188 -0.79999,-2.39999c-0.45892,-4.13033 -0.46631,-7.94704 -0.81354,-12.095c-0.05225,-0.62421 -0.61241,-3.30029 -1.43623,-3.91868c-0.00464,-0.00349 -0.00929,-0.00696 -0.01395,-0.01041c-0.51666,-0.21933 -1.02701,-0.44004 -1.53366,-0.65916c-0.80899,-0.18535 -1.68562,-0.22831 -2.51778,-0.36538c0.1734,-0.082 0.35666,-0.16108 0.55143,-0.23697c0.13002,-0.02504 0.25946,-0.05019 0.38834,-0.07547c-1.27372,-0.53954 -2.54111,-1.04879 -3.84474,-1.47908c0.78041,3.04729 0.50165,6.38647 -0.50833,9.9468zM162.38829,147.39458c1.19212,-0.41483 2.31174,0.4249 2.31174,0.4249l-0.69059,0.82829c0.51752,-0.10564 1.12323,-0.00927 1.55257,-0.31693c0.31397,-0.22499 0.321,-0.70871 0.40488,-1.08576c0.77622,-3.48906 -5.25812,-3.04906 -3.66379,0.00188c0.02642,0.05056 0.05492,0.0997 0.0852,0.14761zM147.95832,190.00401c1.56996,0.83803 4.2894,1.65784 5.84098,2.32386c1.91492,0.82199 4.18453,2.8168 6.43034,2.59742c4.13658,-0.40409 7.47652,-3.15565 10.85604,-5.23245c2.94377,-1.80901 5.92018,-3.39467 8.82605,-5.23759c-3.59379,-0.09785 -7.19873,-0.2431 -10.63115,0.61759c-8.73693,1.23971 -17.87973,2.01943 -26.77038,1.4727c1.73302,1.19546 3.48086,2.40837 5.44811,3.45847zM136.21606,180.92668l0.5375,0.01792c10.28732,1.46959 21.25976,0.70622 31.56586,-0.7785c2.77134,-0.69079 4.31937,-1.23264 7.29773,-1.24657c4.79136,-0.0224 9.8943,1.3294 14.57147,-0.58635c5.12773,-2.1003 2.37862,-6.63824 -0.12506,-9.73253c-4.80739,-5.94143 -13.18421,-6.45513 -20.04649,-8.40695c-4.4068,-1.65024 -10.83535,-4.12692 -15.60572,-2.40955c-5.91569,2.1297 -8.0086,9.53426 -11.14369,14.2406c-2.08673,3.13256 -4.68795,5.94277 -7.05159,8.90192zM170.89901,310.59885c2.63018,1.79098 3.01223,-4.19303 3.21317,-5.84604c0.20168,-1.65919 -0.57683,-3.29416 -0.77987,-4.95318c-0.24983,-2.04131 -0.04894,-3.93771 -0.06523,-5.82977c-1.68292,2.83976 -3.78806,5.44765 -6.2276,7.3226c0.06054,0.29743 0.06054,0.50668 0.06054,0.50668c-0.00858,2.64836 0.24538,5.32208 0.61263,8.0013zM91.88473,256.33173c-0.21079,0.56219 -0.41691,1.12704 -0.6372,1.6843l0.56192,-0.18857c0,0 1.98425,-0.66141 2.92783,1.04066c1.62254,-0.16712 3.26411,-0.29158 4.96319,-0.34301c0.02634,-5.42617 -0.91075,-10.70756 -2.04016,-15.98795c-0.0972,0.21738 -0.18357,0.43738 -0.23402,0.66466c-0.67837,3.05572 -1.32497,6.14757 -2.47881,9.05725l-0.77574,2.33064c0,0 -0.5917,1.7751 -2.287,1.74202z" fill="#000000" stroke="none" stroke-width="0.5"></path>
      <path d="M162.34204,147.41354c-0.03028,-0.04791 -0.06035,-0.10145 -0.08677,-0.15201c-1.59433,-3.05094 4.53608,-3.49238 3.75986,-0.00332c-0.08388,0.37705 -0.10476,0.88393 -0.41873,1.10892c-0.42934,0.30766 -1.0701,0.22499 -1.58762,0.33063l0.66538,-0.92107c0,0 -1.14001,-0.77797 -2.33213,-0.36314z" fill="#ffffff" stroke="none" stroke-width="0.5"></path>
      <path d="M147.90833,190.0053c-1.96725,-1.0501 -3.71443,-2.27252 -5.44745,-3.46798c8.89065,0.54673 18.12624,-0.24949 26.86317,-1.4892c3.43242,-0.86069 7.04206,-0.70414 10.63585,-0.60629c-2.90587,1.84292 -5.88045,3.44215 -8.82422,5.25116c-3.37952,2.0768 -6.77862,4.87735 -10.9152,5.28144c-2.24581,0.21938 -4.5533,-1.80766 -6.46822,-2.62965c-1.55158,-0.66602 -4.27396,-1.50146 -5.84392,-2.33949z" fill="#bd7614" stroke="none" stroke-width="0.5"></path>
      <path d="M136.16968,180.94536c2.36364,-2.95915 4.96159,-5.78211 7.04832,-8.91467c3.13509,-4.70634 5.2447,-12.15444 11.16039,-14.28414c4.77037,-1.71737 11.25691,0.75364 15.66371,2.40388c6.86228,1.95182 15.26403,2.50709 20.07142,8.44852c2.50368,3.09429 5.25006,7.65033 0.12233,9.75063c-4.67717,1.91575 -9.78947,0.58019 -14.58083,0.60259c-2.97836,0.01393 -4.54804,0.57044 -7.31938,1.26123c-10.3061,1.48472 -21.34101,2.21982 -31.62833,0.75023l-0.53764,-0.01825z" fill="#bd7614" stroke="none" stroke-width="0.5"></path>
      <path d="M136.47334,161.41529c0.42825,2.14378 -1.75496,2.79874 -1.75496,2.79874c-1.64445,0.43206 -3.23798,1.42508 -4.93335,1.29618c-7.13873,-0.54274 -6.91565,-10.23517 -3.20395,-14.20581c2.80442,-3.00006 9.02429,-3.50378 11.48123,0.30196c0.98649,1.52805 0.81265,3.5457 1.21897,5.31855l-1.4452,3.21259c0,0 -0.45424,0.9085 -1.36273,1.27778zM133.10628,159.48985c-0.11437,-0.84432 0.25766,-1.5884 0.25766,-1.5884l0.9548,-1.58743c-1.03652,-5.1179 -5.28098,-0.87621 -5.42672,2.50578c-0.01568,0.36395 0.54517,1.84576 1.32296,1.70894c1.00866,-0.17744 1.9324,-0.67428 2.8913,-1.03889z" fill="#000000" stroke="none" stroke-width="0.5"></path>
      <path d="M130.19552,160.5748c-0.77779,0.13682 -1.36238,-1.36586 -1.3467,-1.72981c0.14574,-3.38199 4.48073,-7.66498 5.51725,-2.54708l-0.95536,1.6212c0,0 -0.39108,0.76803 -0.27671,1.61235c-0.9589,0.36461 -1.92982,0.8659 -2.93848,1.04334z" fill="#ffffff" stroke="none" stroke-width="0.5"></path>
      <path d="M340.3,183.23896c-1.82339,0 -2.31688,-1.3299 -2.45044,-2.04976c-0.10935,0.27839 -0.63536,1.44467 -1.84194,1.65142c-0.12582,0.71137 -0.24209,1.3758 -0.35613,1.9497c-0.11785,0.57966 -0.20806,1.15102 -0.27748,1.71641c0.91683,-0.67043 2.00243,-1.00187 3.28481,-0.76138c1.81524,0.34042 3.04745,2.27812 3.94119,3.89436c0.69783,1.26194 0.3961,2.85676 0.58274,4.28666c0.4488,3.43845 0.24413,6.22726 0.01241,9.64845c-0.08793,1.29826 -0.30178,2.54287 -0.52733,3.78043c0.25762,0.03747 0.42274,0.09251 0.42274,0.09251c1.2,0.4 2.4,0.80001 3.60001,1.20001l1.02301,0.25026c0.60788,-4.48714 1.54712,-8.9516 2.9981,-13.41742c0.37035,-1.13986 0.41165,-2.43949 1.09329,-3.42529c3.22635,-4.66602 9.9125,-5.58033 14.38895,-2.24039c1.06764,0.79658 1.73221,2.02411 2.59832,3.03616c3.1684,6.32823 2.11099,13.75361 1.03667,20.96271c4.7389,2.70769 9.35787,5.29904 13.87637,8.33802v0.00001c1.38865,0.93396 5.05978,4.01571 5.09088,5.52939c0.08678,4.22331 -3.09476,4.10499 -5.47574,5.22051c-5.84256,2.73731 -10.47832,5.27494 -16.91124,3.5544c-3.19093,4.15762 -10.41377,5.98144 -14.94919,3.53414c-1.02267,-0.55183 -1.54144,-1.73939 -2.31216,-2.60908l-1.6,-1.99999c0,0 -0.23388,-0.29235 -0.40749,-0.74128c-0.51641,-0.68819 -0.53928,-1.54105 -0.54029,-1.61524c-0.54927,0.13309 -1.01014,0.07548 -1.01014,0.07548l-3.34898,-0.4232c-0.86194,-0.21428 -1.72388,-0.42856 -2.58582,-0.64284c-0.05929,0.19259 -0.1204,0.38456 -0.1834,0.5759l-4.36073,2.07543c0,0 -0.57735,0.09623 -1.2199,-0.0838c-0.07164,1.0484 -0.08416,2.09994 -0.02829,3.14728c2.29505,-2.17035 5.16357,-3.73818 8.43766,-3.19717c3.34942,0.55346 8.09058,5.82191 9.39561,8.873c0.50652,1.18421 1.22763,2.51276 1.10795,3.76813c0.04169,0.03676 0.06377,0.05883 0.06377,0.05883l2.30707,3.7213c-0.97183,6.01404 -3.73189,8.02793 -9.37588,9.64676c-2.59658,0.74476 -4.13424,1.79857 -7.15004,0.75038c-0.03288,-0.01143 -0.06568,-0.02318 -0.09838,-0.03526c0.14039,0.12777 0.27973,0.25992 0.41726,0.39741c0.67998,0.67975 0.93156,1.70884 1.59998,2.39996c2.62897,2.71827 7.42921,4.10168 10.8739,4.95155c0.49601,0.12238 0.99517,0.28754 1.49652,0.47436c0.27989,0.23742 0.63412,0.29376 0.78649,0.30714c0.50692,0.20509 1.01556,0.42096 1.52492,0.626c-0.29429,-0.1887 -0.58487,-0.39278 -0.87183,-0.60956c3.07771,0.16982 5.14841,1.96089 8.22196,2.47157c0.91215,0.15156 1.77811,0.11895 2.63562,0.10011c1.32541,0.48674 2.64166,1.03797 3.86358,1.44631c7.71647,1.97695 16.4364,-0.33578 21.36767,-6.38467c2.46663,-3.02566 6.89806,-6.22896 5.1331,-10.51607l-0.37618,-1.50125c-0.52351,-0.71614 -0.52351,-1.59773 -0.52351,-1.59773l0.07675,-0.18522l-0.00212,-0.00844c0,0 -0.15701,-0.62805 0.00837,-1.32485c-0.42106,-0.63157 -0.84211,-1.26314 -1.26316,-1.89471c0,0 -0.88152,-1.32228 -0.18468,-2.56118l-0.45661,-0.61229l1.6714,-1.19386c0,-2.39751 -0.35066,-5.14102 -0.15893,-7.60707c0.15353,-0.91442 0.29231,-1.83171 0.42261,-2.75199c0.5455,-2.87986 1.15694,-5.46713 1.22923,-8.53858c0.00479,0.00159 0.00957,0.00318 0.01435,0.00477l0.1056,0.05125c0.77145,-2.84904 1.93669,-5.67614 2.6369,-8.47682c1.31356,-3.92488 1.80338,-7.62465 2.31899,-11.60647c0.32261,-2.49137 1.3108,-4.75053 1.93439,-7.13984c-0.05811,-0.01269 -0.1173,-0.02721 -0.17759,-0.04366c-2.41191,-0.6578 -1.75411,-3.06971 -1.75411,-3.06971l0.73404,-2.60736c-0.03584,-4.16483 -0.5281,-8.27047 -1.7713,-12.24407c-1.45009,-4.63488 -5.44129,-9.29838 -4.02062,-14.51331c0.62195,-2.28302 2.76265,-4.21694 4.28547,-6.16371c-1.57353,0.53596 -3.59599,0.3168 -5.14348,-0.00199c-1.5811,-0.32572 -3.56887,-0.26734 -4.60233,-1.50749c-0.91798,-1.10158 -0.18805,-2.86226 -0.23344,-4.29547c-0.00385,-0.12173 -0.09454,-1.88954 0.066,-3.44905c-0.18881,0.16807 -0.36593,0.31726 -0.51121,0.43514c-2.09521,1.7 -3.30146,2.9015 -6.11419,3.22305c-1.9703,0.22525 -3.89923,-0.72619 -5.84636,-1.10233c-3.64616,-0.70435 -7.95627,-0.94783 -11.58345,-0.25593c0,0 -1.12662,0.20484 -1.99354,-0.42522c-3.20434,0.5889 -5.59388,2.85213 -8.3247,4.4243c-4.57931,2.63636 -7.96472,5.17474 -11.37367,9.08011c-1.74479,1.99886 -4.01482,4.03718 -5.66073,6.3282c0.01847,0.00072 0.037,0.0015 0.05561,0.00233c1.43231,0.06418 2.11242,1.93911 3.16864,2.90866l0.54783,3.96174c0,0 0,2.5 -2.5,2.5zM337.96657,180.48409l0.38126,-0.58338c-0.06024,-2.09515 -0.24973,-0.45587 -0.38126,0.58338zM394.93607,273.50144l0.07041,0.10181c0.39806,-0.20291 0.79173,-0.41537 1.18009,-0.63979c5.42043,2.89816 8.18887,9.64565 11.17579,14.88178c2.9465,5.16525 5.32488,10.97632 5.92553,17.00847c0.12129,1.2181 -0.31937,2.4768 -0.05471,3.67197c0.51198,2.31202 2.13952,4.32109 2.44817,6.66892c0.74372,5.65748 -0.10827,10.98141 -2.09452,16.22291c-1.71466,1.21408 -5.13281,4.31225 -7.74349,3.19225c-1.05021,-0.45055 -1.57,-1.59754 -2.03668,-2.72737c-0.40405,0.85316 -1.08489,1.74522 -1.63886,2.18545c-1.3538,1.07585 -2.94802,2.54099 -4.65799,2.28366c-1.37036,-0.20622 -4.58581,-4.3875 -4.73178,-6.65408c-0.00574,0.00629 -0.01164,0.01201 -0.0177,0.01711c-1.21613,1.02248 -2.40416,2.3303 -3.95984,2.65324c-4.42582,0.91873 -6.58599,-2.94001 -8.40825,-6.1598c-0.67361,0.40021 -1.37117,0.7799 -2.09378,1.13788c-2.50008,1.2385 -2.07903,2.02869 -4.88702,3.2405c-0.0781,0.03371 -0.15764,0.06733 -0.23854,0.10083c-0.00072,0.00226 -0.00111,0.00341 -0.00111,0.00341c-1.08866,3.10821 -0.38164,5.73121 -0.68023,9.01569c-0.27113,2.98251 -1.33252,5.85763 -1.60368,8.84015c-0.24023,2.64238 0.2638,5.31934 0.00365,7.95984c-0.45637,4.63209 -0.95615,9.27279 -1.62374,13.79423c-0.48053,3.25454 0.40602,5.97857 -0.896,9.19009c-0.50339,1.24164 -0.60344,2.88206 -1.70991,3.63756c-1.1793,0.80523 -2.85653,0.18345 -4.26135,0.43962c-1.52789,0.27862 -2.93646,1.01283 -4.40984,1.50396c-4.17086,1.38202 -10.80755,3.09835 -14.55836,-0.60393c-0.86763,-0.85641 -0.93598,-2.25141 -1.40397,-3.37711l2.01766,-2.09329l-2.68202,-0.61537c1.67903,-3.358 3.36913,-6.61798 4.68859,-10.14188c0.89623,-2.39359 1.36186,-5.15328 2.50169,-7.43848c0.8442,-1.6925 2.4274,-2.96909 3.15952,-4.713c0.41803,-0.99574 0.33693,-2.15895 0.77657,-3.14534c1.12527,-2.52466 2.99672,-4.68529 4.01774,-7.25388c1.63889,-4.12297 3.28884,-8.27894 4.69103,-12.49212c-0.04298,-0.00001 -0.08559,-0.00022 -0.12784,-0.00063c-2.8136,-0.02713 -5.50666,-1.16858 -8.2822,-1.63067c-1.93924,-0.32286 -3.98436,-0.56306 -6.0275,-0.86964c-0.06481,0.20031 -0.12549,0.32166 -0.12549,0.32166c-4.36139,8.68277 -6.78629,17.49335 -9.43574,26.78095c-1.0079,3.53314 -2.06543,7.00206 -3.22861,10.49163c-0.24973,0.74921 -1.69443,5.19119 -1.98492,5.52692c-2.95821,3.41891 -6.46875,2.59538 -10.3863,2.55021c-3.20702,0.95309 -7.8501,0.73445 -9.80464,-2.88805c-0.6948,-1.28773 -0.19721,-2.91977 -0.29582,-4.37966l1.6743,-1.26841l1.03866,-1.55799c1.82128,-4.51083 4.47149,-8.26889 6.65895,-12.58817c4.55686,-8.99776 9.33213,-17.88456 13.88887,-26.90742c-2.86981,-1.12492 -4.25964,-1.25095 -4.74764,-4.64382c-1.5941,0.53771 -4.71422,1.57147 -5.14494,1.44368c-2.98697,-0.88624 -4.41263,-2.42238 -4.47444,-4.12248c-0.38238,0.27448 -0.78711,0.50642 -1.2335,0.65904c-0.12691,0.04339 -0.25486,0.08158 -0.38374,0.11516l0.01403,0.0421l-2.34466,0.78153c-0.26419,0.09499 -0.54901,0.14674 -0.84591,0.14674c-1.38071,0 -2.5,-1.11929 -2.5,-2.5c0,-0.29691 0.05176,-0.58173 0.14675,-0.84593l0.78153,-2.3446l0.10496,0.03499l0.02096,-0.3428c3.34013,-5.04147 8.75407,-9.4297 11.1595,-15.113c0.45988,-1.08655 0.32227,-2.39779 0.91079,-3.4204c1.04323,-1.81269 2.98518,-3.00169 4.01322,-4.82304c1.70977,-3.02916 2.781,-6.41237 5.02898,-9.13016c2.32981,-2.81673 4.95359,-5.65139 7.5611,-8.33875c0.21577,0.0056 0.43018,0.01458 0.64332,0.02678l0.49203,-1.47207c0.13783,-0.3222 0.27565,-0.6444 0.41348,-0.96661c-0.32439,-0.02948 -0.65143,-0.05245 -0.98138,-0.0684c-2.31579,-1.18856 -4.96442,-2.86637 -6.36299,-4.22823c-0.68884,-0.67076 -0.92023,-1.71999 -1.59997,-2.39996c-0.6637,-0.66393 -1.70209,-0.87261 -2.3503,-1.55167c-2.9092,-3.04761 -4.28411,-5.59775 -3.96749,-10.08482c0.11259,-1.59562 1.20852,-4.15167 2.1649,-6.41857c-0.10372,-0.71888 -0.18619,-1.36672 -0.2543,-1.83975l-0.1612,-0.03554c0,0 -0.18359,-0.36719 -0.25318,-0.87836c-1.00363,-1.3073 0.00911,-2.8264 0.00911,-2.8264c0.30716,-0.45287 0.6385,-0.91399 0.99284,-1.37295c0.03064,-0.95528 0.02735,-1.90842 -0.0939,-2.85429c-0.29907,-2.33304 -1.07673,-4.67511 -0.79998,-7.0109c0.11397,-0.96197 0.78042,-1.82992 0.7831,-2.79862c0.00206,-0.7441 -0.66253,-1.35911 -0.76954,-2.09549c-0.00798,-0.05489 -0.01473,-0.10986 -0.02038,-0.16491c-0.32122,-0.42055 -0.51201,-0.94605 -0.51201,-1.5161c0,-0.14474 0.0123,-0.28661 0.03591,-0.42462l0.31006,-2.01534c-0.4174,-1.60446 -1.2394,-3.12552 -1.42717,-4.77404c-0.62047,-5.44751 -0.74522,-12.83531 0.01355,-18.30587c0.11586,-0.83528 0.69295,-1.56357 0.79999,-2.40002c0.52612,-4.1116 -0.00361,-7.92961 0.81632,-12.08985c0.58458,-2.90571 1.24543,-7.47696 2.59407,-10.1841c1.77388,-3.56073 5.01115,-6.44724 7.56872,-9.3636c3.78795,-4.31934 7.57586,-7.21687 12.62633,-10.1199c3.44758,-1.98168 6.3502,-4.49523 10.46183,-5.1098c0.59016,-0.08821 1.1619,-0.15967 1.72045,-0.2163c0.03153,0.22808 0.06898,0.4498 0.11199,0.66535c4.21156,-0.68077 8.93297,-0.45516 13.13735,0.33554l-0.00006,-0.00003c1.80928,0.34027 2.46539,1.18956 4.28698,1.03101c2.50363,-0.21792 3.71934,-2.99189 5.71995,-4.05588c1.4206,-0.75553 3.10057,-2.3838 4.53472,-1.6543c3.13627,1.5953 2.43077,7.98548 1.8526,10.71931c-0.089,0.42082 -1.04214,0.70744 -0.76677,1.03787c0.28574,0.34287 0.81842,-0.42154 1.26434,-0.44081c0.82298,-0.03556 1.63891,0.38984 2.45532,0.28009c2.15682,-0.28994 4.05201,-1.597 6.12319,-2.26494c0.79693,1.61683 2.17243,3.06119 2.3908,4.85048c0.49928,4.09107 -5.00505,6.33658 -5.96065,9.63533c-1.01947,3.51922 2.97033,8.45 3.97938,11.62004c1.35933,4.27047 1.89577,8.66461 1.95725,13.12515c0.57162,0.13192 1.18858,0.22373 1.85448,0.26824c0.01475,1.4131 -0.01954,2.81601 -0.17302,4.1779c-0.38207,3.39016 -2.00744,6.3346 -2.40659,9.65912c-0.51072,4.25381 -1.09848,8.23008 -2.48093,12.39353c-0.8807,3.52259 -2.68749,7.20144 -3.11904,10.80648c-0.61802,5.1627 -1.25222,10.24347 -2.67673,15.2357c0.54665,0.38351 1.62285,1.38952 0.90619,3.01801c0.1898,0.28469 0.3796,0.5694 0.5694,0.8541l0.2266,2.04358c0.0845,0.20024 0.11864,0.33683 0.11864,0.33683l0.77493,3.10737c1.89374,6.52287 -2.06131,10.36561 -6.06697,15.08391c-0.17486,0.20597 -0.32919,0.43013 -0.47462,0.66187c0.35909,0.71819 0.71819,1.43638 1.07728,2.15458zM384.25082,275.49658c-0.92858,0.47301 -1.46825,1.56474 -2.42917,1.96805c-0.7756,0.32554 -1.6805,-0.09515 -2.52164,-0.09515c-2.16667,0 -4.33333,0 -6.5,0c-2.2679,0 -5.50797,0.51072 -8.2182,0.39924c-1.65985,-0.44664 -3.33245,-0.82935 -5.00842,-1.19408c-3.46258,-1.22743 -6.73139,-2.68683 -10.1702,-3.65129c-0.25546,0.59486 -0.51092,1.18972 -0.76638,1.78458l-0.18038,0.54276c0.63566,0.17292 1.26452,0.36541 1.8891,0.57198c-1.15715,5.77263 -1.32151,11.96798 -3.65923,17.48879c-0.38723,0.91448 -1.19412,1.5998 -1.64047,2.48693c-2.36845,4.70746 -3.44629,10.21232 -5.53607,15.05836c-1.38083,3.20204 -2.9151,5.25122 -3.9094,8.54226c-0.23674,0.78361 -1.30883,2.01059 -0.58139,2.38597c1.04328,0.53835 2.22997,0.73501 3.34495,1.10251c4.10377,2.83247 10.35361,2.93015 15.24713,3.74658c2.58945,0.43202 5.0928,1.53341 7.7178,1.56928c2.70969,0.03703 7.47613,-1.09228 10.05977,-2.18957c1.74088,-0.73936 3.02421,-2.30803 4.71307,-3.15953c0.56392,-0.28432 1.22129,-0.34828 1.82035,-0.54596c0.24647,-2.10827 2.47797,-2.10827 2.47797,-2.10827v-0.00002l0.55333,0.21388c7.62653,-5.9244 10.84744,-16.82934 13.04638,-25.61281c1.89635,-5.43959 0.16879,-10.18026 -2.24547,-15.0027c-0.65753,-1.31341 -0.75616,-2.26084 -1.14489,-2.96552c-0.34738,0.22128 -0.8054,0.36716 -1.4093,0.36716c-0.70263,0 -1.2078,-0.19748 -1.57098,-0.48143c0.92051,-0.38483 1.84718,-0.74659 2.76981,-1.11116c-0.37755,-0.75512 -0.75511,-1.51023 -1.13266,-2.26535c-1.68121,0.6586 -3.37282,1.31779 -5.01541,2.1545zM362.2,233.81947c0,-1.03198 0.42599,-1.63797 0.92629,-1.99381c0.86169,-3.14741 0.48718,-6.50819 0.67754,-9.74443c0.25924,-4.40715 0.90375,-8.81553 1.20102,-13.21709c0.33519,-4.96316 1.93009,-8.6124 -0.39711,-13.27629c-1.96795,-2.47644 -6.3208,-4.49135 -8.61271,-0.80423c-0.56135,0.90308 -1.17688,2.79245 -1.67039,4.54353c4.55339,-1.40054 5.80077,1.05147 6.46797,5.10008c0.15882,0.96374 -0.71472,5.08896 -0.79888,6.36946c-0.26943,4.09969 -0.63502,8.08846 -1.21885,12.17633c-0.4949,3.46439 -1.52343,12.81095 -5.66341,10.39501c-0.11063,0.16002 -0.24631,0.3131 -0.41271,0.44791l0.35344,0.4418c1.5632,2.44911 7.05553,2.15294 9.14812,-0.38918c-0.00022,-0.01625 -0.00032,-0.03262 -0.00032,-0.04909zM378.32037,230.01529c0.99729,-0.53971 1.92662,-1.20943 2.95921,-1.67808c0.56891,-0.25821 1.18002,-0.43074 1.79701,-0.53721c-2.63726,-0.77556 -5.30146,-3.66412 -7.40245,-5.12704c-2.02346,-1.40893 -4.34533,-2.46328 -6.57863,-3.59613c-0.13069,1.1088 -0.23598,2.20416 -0.29932,3.28089c-0.17846,3.03387 0.08141,6.35453 -0.49304,9.44274c3.43584,0.7994 6.85227,-0.07238 10.01723,-1.78517zM343.15904,227.76198l3.05105,0.37679c0,0 0.16379,0.02047 0.40194,0.09299c0.03189,-4.83397 0.14669,-9.60517 0.5537,-14.3415c-0.16897,-0.01966 -0.27204,-0.04543 -0.27204,-0.04543l-1.78425,-0.45365c-1.04565,-0.34855 -2.0913,-0.69711 -3.13695,-1.04566c-0.29004,4.85718 -0.36301,9.94421 -1.18519,14.81987c0.79058,0.19886 1.58116,0.39772 2.37175,0.59658zM340.35108,256.6688c1.14019,0.43193 3.09991,-0.57949 4.04997,-0.84962c3.63147,-1.03256 5.26638,-1.44803 5.78431,-5.23686c-1.43519,0.62684 -3.17389,0.70287 -4.64891,1.19307c-2.34287,0.77862 -4.8947,2.53959 -7.40213,2.96965c0.69096,0.88718 1.44297,1.63063 2.21676,1.92376zM335.46167,243.40899l0.51322,1.25694c0.08997,0.63538 0.10563,1.29305 0.13552,1.94641l0.55341,0.61201c-0.12762,0.30783 -0.26442,0.62594 -0.40608,0.95068c0.078,0.44257 0.1985,0.87236 0.39236,1.28013c0.79589,1.67413 6.60468,-2.18808 7.21345,-2.39161c1.08385,-0.36235 2.23297,-0.48955 3.35647,-0.69877c0.22429,-0.04177 0.64797,0.17217 0.68236,-0.05337c0.14399,-0.94444 -1.32767,-1.37646 -1.93882,-2.11076c-0.80805,-0.97087 -2.83537,-4.51127 -4.464,-4.71345c-2.50085,-0.31046 -4.63445,1.97372 -6.03789,3.92179zM335.96749,221.82379c-0.02476,0.15226 -0.06327,0.29991 -0.11423,0.44163l-0.15912,0.47734c-0.0391,0.65436 -0.11714,1.31159 -0.02639,1.95683c0.04703,0.33442 0.16662,0.65521 0.30085,0.97257c-0.25335,0.2487 -0.35446,0.55203 -0.35446,0.55203c-0.44516,1.33548 -0.82721,2.71442 -1.12237,4.11802l0.23653,0.6867c1.40383,-4.15084 1.74365,-8.68699 1.95933,-13.16601zM337.60002,198.61947c-0.00266,3.53925 -0.11524,7.10145 -0.34304,10.65884c0.41849,-3.06903 1.12609,-6.05995 1.34787,-9.21419c0.19819,-2.81869 -0.40203,-5.65884 -0.60487,-8.4649c-0.02181,-0.30173 0.24351,-0.89472 -0.05881,-0.90563c-0.31131,-0.01123 -0.12667,0.61886 -0.2734,0.89364c-0.74869,1.40206 -1.37664,2.89179 -1.7424,4.43857c0,0 -0.01768,0.07074 -0.05909,0.18503c1.73374,0.44993 1.73374,2.40864 1.73374,2.40864zM387.09841,326.85423c0.3059,0.18381 0.57811,0.72973 0.90116,0.57807c2.70019,-1.26764 2.73056,-4.77245 7.11851,-2.96837c1.45989,0.60023 2.85896,5.57091 3.37224,6.98463c0.10548,0.29052 0.00875,-0.63739 0.14193,-0.91629c0.29625,-0.62041 0.75893,-1.14682 1.12202,-1.73064c0.75582,-1.21531 0.8272,-3.40556 2.23442,-3.66626c6.44872,-1.1947 4.33745,2.33637 5.76808,4.85497c0.13383,0.2356 0.14008,-0.55869 0.34491,-0.73608c0.43968,-0.38078 1.00771,-0.58115 1.51157,-0.87172c1.02175,-4.11856 1.60897,-8.25729 1.10555,-12.57702c-0.25338,-2.1742 -1.87572,-3.99463 -2.35188,-6.13112c-0.31386,-1.40824 0.08945,-2.89246 -0.05471,-4.32803c-0.53438,-5.32145 -2.67521,-10.45099 -5.27442,-14.99152c-1.48656,-2.59686 -2.92172,-4.95439 -4.49706,-7.31476c1.38411,4.19798 1.76382,8.47955 0.25959,13.15896c-2.57916,10.33248 -6.40732,20.47172 -14.39735,27.16575c0.67861,1.38737 1.2788,2.63824 2.69545,3.48943zM347.70006,380.30004c0,0.28819 -0.03323,0.54317 -0.09201,0.76875c1.95992,1.5476 6.70907,-0.03827 8.80142,-0.74049c0.38214,-0.12738 5.00799,-1.67913 5.19013,-1.69599c0.72469,-0.0671 1.4531,0.6839 2.13868,0.43962c0.36665,-0.13064 -0.18158,-0.77991 -0.10994,-1.16249c0.53535,-2.85895 0.29982,-5.49598 0.70398,-8.40988c0.61005,-4.39828 1.118,-8.89357 1.57621,-13.40572c0.27077,-2.66634 -0.239,-5.37112 0.00365,-8.04016c0.24979,-2.74757 1.34661,-6.01225 1.59639,-8.75983c0.23001,-2.53011 0.03575,-4.70002 0.26376,-6.97053c-0.6374,0.14333 -1.27953,0.27311 -1.91276,0.38617c0.46105,0.93446 0.11217,1.98109 0.11217,1.98109c-1.45391,4.34474 -3.13364,8.66071 -4.84203,12.90688c-1.03244,2.5661 -2.8994,4.73041 -4.01997,7.25926c-0.45337,1.02313 -0.37608,2.22891 -0.8234,3.25469c-1.17671,2.69839 -2.02902,2.47145 -3.2405,4.88698c-1.061,2.11548 -1.46511,4.74271 -2.29836,6.96155c-0.92104,2.45263 -2.00324,4.78527 -3.14179,7.10639c0.30807,0.77884 0.07966,1.49253 -0.18571,1.97456c0.17167,0.32636 0.28009,0.73856 0.28009,1.25917zM320.79961,371.4323c1.18415,-0.01062 6.24978,0.83874 7.21367,-0.64975c0.77011,-1.18923 0.767,-2.72895 1.21503,-4.07306c1.14322,-3.42972 2.17815,-6.83707 3.17142,-10.30842c2.64482,-9.24331 5.12495,-18.03163 9.31233,-26.69782c-0.83104,-0.22046 -1.64562,-0.47506 -2.43557,-0.77507c-4.5729,9.06117 -9.36111,17.98866 -13.94506,27.01849c-1.65773,3.26553 -3.55604,6.1987 -5.18057,9.37643c0.76761,1.13018 0.08527,2.4949 0.08527,2.4949l-1.64934,2.56218l-1.94432,1.29619c1.09535,0.76382 3.51558,0.00225 4.15715,-0.24407zM339.13341,285.885c-2.0668,2.45749 -2.98678,5.72564 -4.57112,8.46983c-1.03699,1.79615 -2.9646,2.97231 -3.98678,4.77693c-0.50243,0.88702 -0.28366,2.04432 -0.68919,2.97962c-1.36617,3.15084 -3.5484,5.87929 -5.80874,8.53419c1.15229,0.22289 2.02245,1.23705 2.02245,2.45444v4h-0.06972c0.01459,0.13316 0.02714,0.26663 0.03744,0.40044c0.03818,0.496 -0.68858,0.73933 -0.90303,1.18822c-0.26037,0.545 1.08515,-0.53305 1.64475,-0.76036c0.78129,-0.31735 1.60003,-0.53333 2.40004,-0.79999l1.59054,-0.12829c0,0 0.11513,0 0.29597,0.02471c0.99711,-2.99402 2.51184,-5.06746 3.79435,-8.08146c2.10998,-4.95862 3.26619,-10.51787 5.66387,-15.34167c0.41388,-0.83268 1.18878,-1.46021 1.55949,-2.31299c1.59064,-3.6591 2.12286,-7.71759 2.6592,-11.7249c-1.94978,2.06979 -3.86292,4.20884 -5.63952,6.32128z" fill="#000000" stroke="none" stroke-width="0.5"></path>
      <path d="M362.20773,233.91801c-2.09259,2.54212 -7.60725,2.83657 -9.17045,0.38746l-0.35453,-0.44215c0.1664,-0.13481 0.3335,-0.38282 0.44413,-0.54284c4.13998,2.41594 5.15599,-6.93297 5.65089,-10.39736c0.58383,-4.08787 0.93661,-7.97772 1.20604,-12.07741c0.08416,-1.2805 0.96006,-5.4053 0.80124,-6.36904c-0.6672,-4.04861 -1.89137,-6.50256 -6.44476,-5.10202c0.49351,-1.75108 1.08513,-3.73725 1.64648,-4.64033c2.29191,-3.68712 6.66669,-1.67099 8.63464,0.80545c2.3272,4.66389 0.75474,8.32664 0.41955,13.2898c-0.29727,4.40156 -0.95261,8.88766 -1.21185,13.29481c-0.19036,3.23624 0.16963,6.60271 -0.69206,9.75012c-0.5003,0.35584 -0.92962,0.96245 -0.92962,1.99443c0,0.01647 0.00008,0.03284 0.0003,0.04909z" fill="#ffffff" stroke="none" stroke-width="0.5"></path>
      <path d="M336.69585,217.81358c-0.21568,4.47902 -0.57021,9.11407 -1.97404,13.26491l-0.2392,-0.68712c0.29516,-1.4036 0.68568,-2.88169 1.13084,-4.21717c0,0 0.08704,-0.30111 0.34039,-0.54981c-0.13423,-0.31736 -0.25376,-0.63817 -0.30079,-0.97259c-0.09075,-0.64524 0.00505,-1.30459 0.04415,-1.95895l0.16206,-0.47707c0.05096,-0.14172 0.0906,-0.28922 0.11536,-0.44148z" fill="#ffffff" stroke="none" stroke-width="0.5"></path>
      <path d="M335.88354,196.25775c0.04141,-0.11429 0.02591,-0.27935 0.02591,-0.27935c0.36576,-1.54678 1.01208,-3.03905 1.76077,-4.44111c0.14673,-0.27478 -0.03668,-0.90479 0.27463,-0.89356c0.30232,0.01091 0.03774,0.60396 0.05955,0.90569c0.20284,2.80606 0.84855,5.69891 0.65036,8.5176c-0.22178,3.15424 -0.97929,6.19227 -1.39778,9.2613c0.2278,-3.55739 0.32814,-7.12111 0.3308,-10.66036c0,0 0.0295,-1.96027 -1.70424,-2.4102z" fill="#ffffff" stroke="none" stroke-width="0.5"></path>
      <path d="M338.08508,254.75375c2.50743,-0.43006 5.1378,-2.24026 7.48067,-3.01888c1.47502,-0.4902 3.22889,-0.54857 4.66408,-1.17541c-0.51793,3.78883 -2.19171,4.27684 -5.82318,5.3094c-0.95006,0.27013 -2.95471,1.26274 -4.0949,0.83081c-0.77379,-0.29313 -1.53571,-1.05874 -2.22667,-1.94592z" fill="#d38133" stroke="none" stroke-width="0.5"></path>
      <path d="M341.49775,239.43723c1.62863,0.20218 3.70746,3.78713 4.51551,4.758c0.61115,0.7343 2.08144,1.18453 1.93745,2.12897c-0.03439,0.22554 -0.45861,0.01348 -0.6829,0.05525c-1.1235,0.20922 -2.28681,0.35877 -3.37066,0.72112c-0.60877,0.20353 -6.48741,4.06318 -7.2833,2.38905c-0.19386,-0.40777 -0.32012,-0.84487 -0.39812,-1.28744c0.14166,-0.32474 0.2759,-0.6473 0.40352,-0.95513l-0.55606,-0.61823c-0.02989,-0.65336 -0.04834,-1.32751 -0.13831,-1.96289l-0.51223,-1.26683c1.40344,-1.94807 3.58424,-4.27232 6.08509,-3.96186z" fill="#d38133" stroke="none" stroke-width="0.5"></path>
      <path d="M378.34592,230.05827c-3.16496,1.71279 -6.6452,2.57377 -10.08104,1.77437c0.57445,-3.08821 0.30757,-6.46227 0.48603,-9.49614c0.06334,-1.07673 0.17833,-2.186 0.30902,-3.2948c2.2333,1.13285 4.59048,2.17233 6.61394,3.58126c2.10099,1.46292 4.81336,4.41582 7.45062,5.19138c-0.61699,0.10647 -1.23113,0.28672 -1.80004,0.54493c-1.03259,0.46865 -1.98125,1.15929 -2.97854,1.699z" fill="#00629e" stroke="none" stroke-width="0.5"></path>
      <path d="M343.15361,227.81167c-0.79059,-0.19886 -1.59677,-0.40206 -2.38735,-0.60092c0.82218,-4.87566 0.90395,-10.05653 1.19399,-14.91371c1.04565,0.34855 2.11164,0.69625 3.15729,1.0448l1.79677,0.45744c0,0 0.10475,0.02657 0.27372,0.04623c-0.40701,4.73633 -0.52837,9.59974 -0.56026,14.43371c-0.23815,-0.07252 -0.404,-0.09235 -0.404,-0.09235l-3.07017,-0.37518z" fill="#00629e" stroke="none" stroke-width="0.5"></path>
      <path d="M353.8,223.03895c2,1.5 0.5,3.5 0.5,3.5l-1.5,2c0,0 -1.5,2 -3.5,0.5c-2,-1.5 -0.5,-3.5 -0.5,-3.5l1.5,-2c0,0 1.5,-2 3.5,-0.5z" fill="#ffffff" stroke="none" stroke-width="0.5"></path>
      <path d="M329.3,222.03895c0,-1.38071 1.11929,-2.5 2.5,-2.5c1.38071,0 2.5,1.11929 2.5,2.5c0,1.38071 -1.11929,2.5 -2.5,2.5c-1.38071,0 -2.5,-1.11929 -2.5,-2.5z" fill="#ffffff" stroke="none" stroke-width="0.5"></path>
      <path d="M374.97545,257.11399c0.07833,-0.02171 0.15671,-0.0432 0.23517,-0.06442c0.09171,-0.12918 0.18686,-0.26254 0.28423,-0.39909c-0.12708,0.12166 -0.24994,0.23206 -0.36657,0.32981c-0.05122,0.04293 -0.10213,0.08763 -0.15284,0.1337zM371.57015,262.17859c-0.65694,0.91707 -1.90535,0.73873 -1.90535,0.73873c-2.09357,-0.32046 -3.37867,-0.24372 -5.14091,-1.70667c-2.99532,-2.48659 -3.0535,-8.01699 -1.10776,-11.22356c1.63342,-2.69186 5.7846,-5.52203 8.83516,-6.34783c4.5762,-1.2388 9.5079,0.69638 9.9449,5.91411c0.13135,1.5683 -0.39716,4.3066 -1.14503,5.82687c-1.1449,2.32732 -1.9567,3.07639 -3.54985,4.95454c-1.83709,0.67611 -3.92029,1.57348 -5.93118,1.84382z" fill="#ff5ebc" stroke="none" stroke-width="0.5"></path>
      <path d="M372.06775,183.30675c-1.76778,1.76775 -3.53553,-0.00003 -3.53553,-0.00003l-1.26827,-1.44971c-0.87049,-1.80428 -0.96191,-2.54734 -2.67827,-3.79141c-1.04182,-0.75514 -2.19489,-0.36109 -3.3113,-0.09351c-3.95155,0.94708 -5.5556,3.84684 -6.57057,7.45369c0,0 -0.68682,2.4038 -3.09063,1.71698c-2.4038,-0.68682 -1.71698,-3.09063 -1.71698,-3.09063c0.62335,-2.15382 1.01868,-4.25257 2.45964,-6.08487c3.11656,-3.96296 10.16213,-7.16191 14.8585,-4.15493c2.8351,1.81525 3.16267,3.16014 4.52174,5.80857l0.33171,0.1503c0,0 1.76775,1.76778 -0.00003,3.53553z" fill="#000000" stroke="none" stroke-width="0.5"></path>
    </g>
  </g>
</svg>
