<?xml version="1.0" encoding="UTF-8"?>
<svg xmlns="http://www.w3.org/2000/svg" xmlns:xlink="http://www.w3.org/1999/xlink" version="1.1" width="115.22178" height="115.22177" viewBox="0,0,115.22178,115.22177">
  <g transform="translate(-182.38911,-122.38912)">
    <g stroke-miterlimit="10">
      <path d="M296.36088,223.24576c0,7.9788 -6.32551,13.11514 -12.47226,13.11514c-13.06451,0 -62.8835,0 -87.00577,0c-8.05426,0 -13.24374,-6.26142 -13.24374,-15.68675c0,-24.44785 0,-70.18266 0,-83.14837c0,-6.73371 5.74984,-13.88665 14.52954,-13.88665c24.30136,0 71.81534,0 84.86278,0c6.50435,0 13.32946,6.6496 13.32946,13.02945c0,13.23182 0,62.66727 0,86.57718z" fill-opacity="0.34118" fill="#909090" stroke-opacity="0.45882" stroke="#000000" stroke-width="2.5"></path>
      <path d="M278.54571,180.54927c0.07231,0.08365 0.13081,0.16631 0.1774,0.24748c0.10893,-0.34874 0.21334,-0.67187 0.28714,-0.89676c-0.17675,0.1811 -0.54393,0.25865 -0.91866,0.29185c0.15129,0.07082 0.30485,0.18473 0.45412,0.35743zM277.17502,183.60589c0.04852,0.13336 0.07499,0.27731 0.07499,0.42745c0,0.11962 -0.0168,0.23531 -0.04817,0.34484c0.42939,-0.37761 0.86233,-0.75127 1.29169,-1.12892l-0.01018,-0.28259c0,0 0,-0.01636 0.00187,-0.04533l-0.26856,-0.22134c0.00075,-0.05238 0.01402,-0.13648 0.03683,-0.24401c-0.35782,0.32474 -0.71543,0.73894 -1.07848,1.1499zM277.82965,187.74816l0.08838,0.04419l-1.05454,2.10911c-0.18644,0.3933 -0.57214,0.67376 -1.02672,0.71099c-0.40448,0.90767 -0.81951,2.00513 -1.39634,2.66362c0.42105,0.66972 -0.1071,1.37392 -0.1071,1.37392l-0.79128,1.05503c-0.22746,0.31022 -0.59457,0.51163 -1.00873,0.51163c-0.69036,0 -1.25,-0.55964 -1.25,-1.25c0,-0.09286 0.01013,-0.18336 0.02934,-0.27045l0.2616,-1.30802l0.37796,0.07559c0.20601,-1.70183 0.96229,-2.98143 2.09974,-4.8798c-0.06928,-0.03395 -0.13171,-0.07521 -0.18623,-0.12429c-0.52168,-0.46958 -0.39992,-1.23757 -0.25546,-2.01609l-0.13142,-0.13142l-0.98304,0.4249c-0.82105,3.75976 -1.83903,7.36296 -3.65524,10.94306c-1.41342,2.78611 -4.10071,5.33116 -7.05095,7.46668c0.31895,0.2265 0.52706,0.59888 0.52706,1.01986l0,1.89454c1.07162,-1.65209 2.51862,-3.26499 3.38332,-4.55371l0.11371,-0.06048l-0.03092,-0.03092l1.06667,-1.06667c0.22621,-0.22621 0.53871,-0.36612 0.88388,-0.36612c0.0516,0 0.10247,0.00313 0.15243,0.0092c0.90047,-2.06422 2.56637,-4.34657 3.40481,-5.40673l2.04276,-0.46913c0,0 1.25,0 1.25,1.25c0,1.25 -1.25,1.25 -1.25,1.25l-0.09059,-0.46913c-1.00059,1.23354 -1.59491,2.86778 -2.26707,4.41561c0.51883,-0.24155 1.03865,-0.48664 1.55367,-0.74009c0.83811,-1.03759 1.58056,-2.1345 2.06369,-3.36847c1.77358,-3.55242 3.75581,-7.72664 4.04551,-11.87197c-0.24836,0.40274 -0.52045,0.78983 -0.80891,1.16554zM273.0089,184.19002l0.46609,-0.46609c0.73496,-1.1312 1.73818,-1.9456 3.23346,-3.23887l0.07416,-0.0641c0,0 0.13096,-0.11319 0.33753,-0.2066c-1.23386,-0.02603 -2.52504,-0.26437 -3.78679,-0.26437c-0.46139,0 -0.92296,-0.00176 -1.38468,-0.005c0.24613,0.11536 0.40188,0.27111 0.40188,0.27111l0.87519,1.66237c-0.15417,0.75162 -0.23213,1.5216 -0.24615,2.28956zM266.93334,207.68334c-0.24847,0 -0.48,-0.07249 -0.67461,-0.19749c-0.4163,0.76423 -0.85569,1.56476 -1.31846,2.30691c0.85016,-0.68439 1.67151,-1.41651 2.46101,-2.19996c-0.14454,0.05839 -0.30249,0.09054 -0.46794,0.09054zM259.01667,212.56666c0,-0.07812 0.00717,-0.15457 0.02088,-0.22873l0.26279,-1.57677l0.01096,0.00183l-0.00392,-0.04038c0.03218,-0.13673 0.06575,-0.27386 0.10107,-0.41098c-0.88645,0.95734 -1.80904,1.78397 -3.03199,2.5269c0,0 -1.07186,0.64312 -1.71499,-0.42874c-0.64312,-1.07186 0.42874,-1.71499 0.42874,-1.71499c1.56178,-0.92295 2.48542,-2.02287 3.64624,-3.41642l0.13533,-0.18946c-1.47503,0.90635 -2.93455,1.70157 -4.26011,2.36592c-4.28486,1.41579 -8.09438,3.29871 -12.7797,3.29468c-0.64553,-0.00056 -1.28424,-0.0303 -1.91722,-0.08474c0.02734,0.34572 -0.0875,0.63281 -0.0875,0.63281c-0.10971,0.27369 -0.22343,0.54578 -0.34058,0.81643c1.90257,-1.20136 4.64002,-2.01758 5.51126,-0.70009c0.53258,0.80537 -0.07365,1.94363 -0.30877,2.8801c-0.07657,0.30496 -0.78783,0.47952 -0.59757,0.72986c0.18508,0.24354 0.50804,-0.34254 0.744,-0.53719c0.44529,-0.36735 0.85897,-0.77159 1.29751,-1.14698c0.83946,-0.71859 4.21353,-4.24642 5.51303,-3.67405c1.78768,0.78739 1.17084,2.28226 0.75776,2.94228c0.13691,-0.16141 0.33829,-0.38768 0.62303,-0.69l0.89232,-0.3718c0,0 1.15385,-0.48077 1.63461,0.67308c0.16652,0.39965 0.13694,0.71855 0.02713,0.9647c1.29513,-0.52161 2.55947,-1.10201 3.7866,-1.74886c-0.21725,-0.22488 -0.35091,-0.53104 -0.35091,-0.86841zM249.91394,215.40464c-0.71093,0.73615 -1.71647,1.61748 -2.55813,2.29561c1.00252,-0.22604 1.99587,-0.47445 2.97767,-0.74807c-0.31957,-0.27169 -0.44411,-0.92116 -0.41954,-1.54754zM242.7493,215.10915c-0.33842,0.22483 -0.83722,0.54603 -1.08526,0.68888c-0.45791,0.26371 -0.78635,0.7124 -1.22804,1.00246c-0.54752,0.35957 -1.16368,0.61062 -1.81102,0.7765c1.07086,0.11726 2.14053,0.21025 3.20723,0.27802c-0.15103,-0.93306 0.2687,-2.15544 0.9171,-2.74586zM235.28334,217.10001c0,-0.24259 0.06911,-0.46904 0.18871,-0.66074l0.77091,-1.28484c0.45579,-0.9119 0.88525,-1.8385 1.26313,-2.78533c0,0 0.00347,-0.00867 0.01056,-0.02422c-1.71591,-0.30494 -3.39851,-0.7552 -5.07083,-1.25574c-0.07886,1.12752 -1.24582,1.12753 -1.24582,1.12753l0.16005,-0.20994c-1.68183,1.11286 -5.85991,3.85475 -7.87027,1.51473c-0.67889,-0.79021 0.46308,-2.03146 0.69463,-3.04719c0,0 0.4924,-1.14893 1.64133,-0.65653c1.14893,0.4924 0.65653,1.64133 0.65653,1.64133c-2.10671,1.59661 1.68142,-0.46657 3.06188,-1.27236c-1.67165,-0.52803 -3.34637,-1.05124 -5.04732,-1.47402c0,0 -0.33131,-0.08283 -0.6043,-0.33508c-0.48539,-0.10277 -0.94675,-0.2113 -1.38877,-0.32724c-0.15862,0.81265 -0.80006,1.71349 -1.68928,2.28888l1.05219,-0.62259c0,0 1.25,0 1.25,1.25c0,1.25 -1.25,1.25 -1.25,1.25l-3.21446,-0.62259c0.19711,-0.58828 0.3058,-1.4742 0.51544,-2.1911c-0.15187,0.09178 -0.28977,0.17359 -0.39506,0.23786c-0.67566,0.41249 -1.27092,0.9947 -2.02141,1.24656c-0.03441,0.01155 -0.06889,0.02281 -0.10345,0.03381l0.00436,0.01092l-1.18562,0.47425c6.2771,2.68286 13.03378,4.67191 19.81731,5.72735c-0.0003,-0.0112 -0.00045,-0.02244 -0.00045,-0.03371zM213.23942,208.90242c0.3251,-0.77044 0.45775,-1.63297 0.44392,-2.46908c0,0 0,-1.25 1.25,-1.25c1.25,0 1.25,1.25 1.25,1.25c-0.00846,0.68892 -0.08183,1.38508 -0.22793,2.06341c0.78966,-0.74243 1.75171,-1.46327 2.67073,-1.87674c-1.36667,-0.67881 -2.67717,-1.53502 -4.17613,-2.65334c-2.56962,-1.92718 -5.11463,-4.33514 -7.27768,-7.02117l-0.07993,0.39966l-0.04847,-0.00969c-0.02172,0.1366 -0.05502,0.27133 -0.10302,0.40371c-0.12709,0.35046 -0.40525,0.5974 -0.72322,0.81708c0.33846,0.07799 0.71156,0.30681 0.86167,0.90727c0.30317,1.21268 -0.90951,1.51584 -0.90951,1.51584l-1.16434,0.28698l-1.57677,0.26279c-0.07415,0.01371 -0.1506,0.02088 -0.22872,0.02088c-0.69036,0 -1.25,-0.55964 -1.25,-1.25c0,-0.23358 0.06407,-0.4522 0.17559,-0.63924l0.59464,-1.0406c-0.40553,0.14836 -0.81037,0.2986 -1.21464,0.45024c0,0 -1.17041,0.43891 -1.60931,-0.73151c-0.4389,-1.17041 0.73151,-1.60932 0.73151,-1.60932c0.12329,-0.04622 0.24663,-0.09233 0.37002,-0.13829c-0.42735,-0.76289 0.25168,-1.44187 0.25168,-1.44187l0.13336,-0.10929c2.43539,-2.07238 -1.03423,0.05959 -2.47101,0.35227c0,0 -0.50143,0.10029 -0.92701,-0.14813c1.83224,3.3951 4.1175,6.55244 6.43893,9.31837c1.02889,1.2259 2.52937,2.20355 4.01944,3.12758c0.00489,-0.45063 0.04658,-0.83691 0.18167,-1.17376l-0.3544,0.07088c-0.08709,0.01921 -0.17759,0.02934 -0.27045,0.02934c-0.69036,0 -1.25,-0.55964 -1.25,-1.25c0,-0.29903 0.105,-0.57352 0.28014,-0.78865l1.03498,-1.29371c0.34271,-0.51478 0.68543,-1.02956 1.02814,-1.54434c0,0 0.69337,-1.04007 1.73343,-0.3467c0.87089,0.58059 0.5264,1.40427 0.39129,1.65686c0.68206,0.00962 1.23201,0.56553 1.23201,1.24988c0,0.18469 -0.04005,0.36002 -0.11195,0.51778l-0.67866,1.58358c-0.04647,0.14377 -0.09908,0.28106 -0.15883,0.40862c0.34338,0.0644 0.72966,0.27904 0.90135,0.87995c0.3434,1.20191 -0.85851,1.54531 -0.85851,1.54531l-0.6076,0.04975c0.03655,0.02578 0.07288,0.0516 0.10898,0.07747c0.55653,0.27741 1.1181,0.5494 1.68432,0.81575zM204.24562,195.44156l1.22699,-0.73618c0.00771,-0.00482 0.01549,-0.00955 0.02331,-0.0142c-0.17788,-0.26038 -0.35169,-0.52266 -0.52113,-0.78667c-0.02264,0.56938 -0.3944,1.06691 -0.79457,1.55859c0.02179,-0.00719 0.04359,-0.01438 0.06539,-0.02155zM198.42152,192.94096c1.13277,-0.22162 3.87347,-1.53523 5.43325,-0.92687c-0.48003,-0.88371 -0.9068,-1.78187 -1.27062,-2.689c-0.37544,-0.9361 -0.55446,-1.98328 -0.67414,-3.05513c-0.43543,0.51521 -0.99412,1.01308 -1.82611,1.84727l-0.9905,0.6895c0,0 -1.04006,0.69338 -1.73344,-0.34669c-0.28865,-0.43297 -0.27689,-0.80586 -0.16482,-1.09365c-0.65637,0.32851 -1.31291,0.65672 -1.96943,0.98498c0,0 -0.0425,0.02125 -0.11508,0.04718c0.57782,1.96177 1.36575,3.88332 2.29843,5.74056c-0.02708,-0.99023 1.01246,-1.19815 1.01246,-1.19815zM200.66101,182.851l0.17163,0.01216l-0.01111,-0.05554l0.71197,-0.1424c-0.02776,-0.17568 -0.05838,-0.34919 -0.09256,-0.52007c0,0 -0.06244,-0.3122 0.03327,-0.65298c-2.49403,-0.14407 -5.07595,-0.4601 -7.4222,0.22769c0.01955,1.40883 0.17654,2.81116 0.44884,4.19886c0.02779,-0.01389 0.05558,-0.02778 0.08337,-0.04168c0.23776,-0.45754 0.75385,-0.62956 0.75385,-0.62956l0.55215,-0.15268c1.0712,-0.64175 2.10078,-1.35238 3.11659,-2.07863c0,0 0.74564,-0.5326 1.41611,-0.04737c0.07935,-0.03928 0.15872,-0.07854 0.23809,-0.1178zM270.58278,180.21612c0.12755,-0.12756 0.25511,-0.2183 0.38001,-0.28019c-4.61668,-0.05202 -9.24817,-0.23163 -13.88176,-0.25509c-0.13928,0.03257 -0.29595,0.0385 -0.47001,0.00247c-4.57405,0.75921 -9.20955,0.67896 -13.82117,1.06061c-6.80871,0.56349 -13.65161,1.51153 -20.47844,0.53628c-6.16703,0.01283 -12.29575,0.2523 -18.44787,0.2689c0.02072,0.06508 0.02886,0.10577 0.02886,0.10577c0.41569,2.07849 0.21122,4.73192 0.99016,6.68672c2.10486,5.28232 6.56867,10.25106 11.06744,13.62507c3.02648,2.28035 5.04066,3.28386 8.82847,4.04094l-0.27079,-0.15898c0,0 1.11804,-0.559 1.67704,0.55904c0.0323,0.0646 0.059,0.12733 0.08064,0.1882c5.16932,1.43993 10.16787,3.66001 15.636,3.65463c4.30711,-0.00423 7.81705,-1.78221 11.75363,-3.10534c4.31918,-2.15305 10.76539,-6.13517 12.97115,-10.62527c1.99279,-4.05658 3.00216,-8.0376 3.86331,-12.34306c0,-0.93438 0.10537,-1.87165 0.28485,-2.78863l-0.1915,0.5957c0,0 -0.88389,-0.88388 -0.00001,-1.76777zM249.951,139.71678c0.36566,-1.04293 0.21945,-2.45697 1.09698,-3.1288c2.06458,-1.58064 5.46334,2.19172 6.63592,3.36148c0,0 0.50504,0.50505 0.36982,1.13337c0.04379,0.00411 0.08756,0.00825 0.13133,0.01243c0.72535,-2.26859 1.61677,-3.77756 4.48163,-3.64526c0.80186,0.03703 1.83278,-0.53037 2.40796,0.02956c1.34422,1.30856 0.48663,3.00571 -0.73344,4.41229c0.22881,0.03673 0.45688,0.07407 0.68415,0.11198c2.39826,0.47935 4.98237,0.66274 7.22007,1.68922c8.21565,3.76868 13.37784,11.84023 15.11363,20.36181c2.00765,10.25624 0.94227,22.59772 -4.4661,31.62543c-1.2468,1.56331 -2.42916,3.69729 -3.92245,5.01466c-1.43247,1.26371 -3.13128,2.25208 -4.8918,3.1381c-0.88572,1.05756 -1.83381,2.07433 -2.71598,3.13094c-6.45689,7.7337 -15.42174,11.61534 -25.10623,13.51328c-12.38501,0 -25.36195,-3.38822 -36.50124,-8.97303c-2.34785,-1.67155 -5.35826,-3.13937 -7.24568,-5.33351c-5.74094,-6.67391 -10.9395,-15.72799 -10.95957,-24.80404c0,0 0,-0.10176 0.02903,-0.24721c-0.2845,-1.03024 0.75673,-1.44672 0.75673,-1.44672c3.4874,-1.37635 7.18755,-0.62274 10.86424,-0.62274c4.10554,0 8.19901,-0.11217 12.29961,-0.19025c-0.19285,-2.2175 0.43221,-3.64672 0.58982,-5.88292c0.66973,-9.50202 3.46587,-16.891 10.87315,-23.2609c5.09955,-3.64598 11.35017,-7.64909 17.68469,-8.52323c1.78265,-0.24599 3.61279,-0.37956 5.46433,-0.4218zM252.44901,139.81655l0.17727,0.95094c0.83151,0.01595 1.66493,0.04816 2.49795,0.09474c-1.14716,-1.25755 -2.7246,-2.90118 -2.67522,-1.04568zM259.22322,144.20902c-0.00959,0.0019 -0.01929,0.00369 -0.02907,0.00535c0.01457,0.00574 0.02914,0.01182 0.04367,0.01824c-0.00491,-0.00776 -0.00978,-0.01562 -0.0146,-0.0236zM262.4785,140.06781c0.09028,-0.11029 0.27142,-0.27045 0.45607,-0.41572c-0.42924,0.03947 -0.97713,-0.12443 -1.40299,-0.05843c-0.23334,0.03617 -0.56207,0.89306 -0.84261,1.77692c0.17753,0.02201 0.35479,0.0445 0.53177,0.06744c0.44693,-0.43045 0.86572,-0.8913 1.25777,-1.37022zM274.49394,148.2309c-0.13079,0.32697 -0.31683,0.52498 -0.51664,0.64074c0.79157,0.31994 1.56786,0.63466 2.33384,0.9799c-0.57836,-0.57008 -1.17435,-1.14128 -1.79548,-1.67766c-0.0068,0.01882 -0.01404,0.03783 -0.02172,0.05703zM271.11667,146.60312c0.20396,-0.06769 0.4184,-0.22812 0.63114,-0.37355c-0.17332,-0.09062 -0.3488,-0.1761 -0.52654,-0.25593c-0.03477,-0.01561 -0.06964,-0.03102 -0.1046,-0.0462zM248.8339,143.45278c0.14207,0.0512 0.25087,-0.01048 0.34625,-0.12674c-0.15726,0.00632 -0.31435,0.01331 -0.47127,0.021c0.02557,0.04788 0.06568,0.08435 0.12502,0.10574zM253.52577,143.4601l-0.63326,0.84435c0.18925,0.02514 0.37829,0.05279 0.56712,0.08304c0.08154,-0.01319 0.16933,-0.02014 0.26051,-0.01633c-0.09762,-0.28795 -0.11276,-0.66053 0.17472,-1.04438c-0.0914,-0.00344 -0.18279,-0.00669 -0.27417,-0.00976c-0.0284,0.04994 -0.06014,0.09774 -0.09492,0.14308zM247.33214,144.02328c-0.14027,-0.12047 -0.27288,0.02956 -0.41191,0.22069c0.1762,-0.01677 0.35242,-0.03216 0.52863,-0.04609c-0.02524,-0.06869 -0.06267,-0.12817 -0.11673,-0.17459zM273.99126,175.67637c-0.00433,0.00023 -0.00867,0.00046 -0.01301,0.00068c0.00045,0.00709 0.00089,0.01419 0.00134,0.02128zM270.31426,174.35055c-0.33241,-0.86897 0.36372,-1.74133 0.97528,-2.5761c-0.00016,-0.04363 -0.00021,-0.08728 -0.00012,-0.13096c0.16105,-0.75994 0.14515,-1.41258 0.03298,-2.03029c-0.17703,-0.32653 -0.33498,-0.84024 -0.46825,-1.60856c-0.19807,-0.55308 -0.4164,-1.12992 -0.59562,-1.78379c-1.69646,-6.18965 -3.91261,-13.70679 -9.27181,-17.85034c2.27062,9.02462 -0.10665,17.63853 -1.64964,26.66633c-0.27909,0.70053 -0.51727,1.4216 -0.68836,2.15662c4.30927,0.0317 8.60395,0.17117 12.90033,0.23036c-0.00632,-0.72018 -0.04407,-1.43335 -0.08891,-2.14454c-0.56273,-0.22582 -0.9973,-0.54029 -1.14589,-0.92871zM273.81737,168.95049c-0.03377,0.01818 -0.06758,0.03763 -0.10141,0.05818c0.00284,0.01268 0.00566,0.02536 0.00846,0.03805c0.14488,-0.10669 0.21717,-0.16308 0.09296,-0.09622zM272.65225,163.73721c0.24629,-0.48466 -0.30003,-0.86508 -0.81446,-1.11366c0.16651,0.5579 0.32628,1.11287 0.48059,1.66266c0.12502,-0.18039 0.23928,-0.36285 0.33387,-0.54899zM271.83256,160.26843c-0.25771,-0.01209 -0.51696,-0.04768 -0.77274,-0.10478c0.13101,0.38934 0.25787,0.77885 0.38102,1.16777c0.37428,-0.54281 0.83418,-1.04225 0.39173,-1.063zM270.88334,157.43333c0.1655,0.14276 0.36685,0.22338 0.58445,0.27544c-0.75326,-0.81488 -1.53588,-1.60772 -2.27877,-2.45644c-0.04663,-0.05328 -0.09304,-0.10665 -0.13925,-0.16011c0.32166,0.6824 0.62309,1.37635 0.90693,2.07731c0.50279,-0.05409 0.92665,0.26381 0.92665,0.26381zM273.45126,161.50095c0.07005,0.26376 0.52713,0.05282 0.84616,0.03937c-0.05809,-0.12085 -0.12031,-0.24128 -0.18712,-0.36124c-0.0317,-0.05692 -0.06378,-0.11344 -0.09624,-0.16957c-0.27333,0.14301 -0.62611,0.25303 -0.5628,0.49144zM275.08108,164.32946c-0.00074,0.00686 -1.80798,2.70395 -1.83803,2.77219c-0.30535,0.69341 1.91137,-0.65129 2.27293,0.01453c0.57684,1.06227 0.09655,2.46397 -0.26812,3.61643c-0.204,0.64471 -0.85949,1.02525 -1.46819,1.43026c0.0049,0.32723 0.0167,0.65347 0.03278,0.97918c0.80733,-0.18834 2.56836,-0.58919 3.11112,-0.51951c-0.36217,-1.67856 -0.72324,-3.35525 -1.05507,-5.03302c-0.42768,-1.10462 -0.57334,-2.23456 -0.77794,-3.35691c-0.00284,0.03238 -0.00601,0.06466 -0.00948,0.09685zM276.2,176.78334l-0.14862,0.34234c0,0 -0.06923,0.13847 -0.2077,0.29358c0.61239,-0.01908 1.35631,-0.03924 2.08495,-0.03504c-0.16361,-0.81266 -0.33313,-1.62422 -0.50543,-2.43503c-0.31673,0.70891 -0.88151,1.35985 -1.2232,1.83416zM250.80632,177.01029c-0.6307,-0.06365 -1.12298,-0.59615 -1.12298,-1.24363c0,-0.30738 0.11095,-0.58884 0.29498,-0.80653l1.32808,-1.59369l0.02262,0.01884l0.01201,-0.0229c-0.3548,-0.22055 -0.59101,-0.61388 -0.59101,-1.06238c0,-0.29903 0.105,-0.57353 0.28014,-0.78865l1.06045,-1.32555l0.01854,0.01483l0.02613,-0.06762c0.31299,-0.3136 0.60199,-0.63411 0.8862,-0.94482l-0.55673,0.07953c-0.06451,0.01027 -0.13067,0.0156 -0.19807,0.0156c-0.64537,0 -1.17651,-0.48909 -1.24299,-1.11683c-0.80831,2.57546 -1.53143,5.17931 -2.06462,7.84531c-0.04877,0.24381 -0.09752,0.48761 -0.14629,0.73141c0.15697,0.26101 0.31468,0.68952 0.07211,1.15186c0.63708,-0.0318 1.27387,-0.06605 1.91016,-0.1062c-0.09456,-0.29606 -0.04408,-0.59064 0.01126,-0.7786zM252.05104,166.23752c0.21809,-0.32662 0.46586,-0.643 0.73993,-0.93544l-0.88446,0.14741c-0.19414,0.58093 -0.38578,1.1627 -0.57373,1.74571zM254.88404,158.84951c0.23363,-0.20136 0.80706,-0.4331 1.12691,-0.62175l-1.23265,-0.15408l0.06618,-0.52951c-0.07692,-0.02134 -0.15387,-0.04259 -0.23083,-0.06381c-0.25004,0.7603 -0.50543,1.51897 -0.76341,2.27687c0.34174,-0.3059 0.68648,-0.6084 1.03379,-0.90773zM256.24768,154.02235c0.43871,-0.35437 1.83379,-1.29534 1.32508,-1.05192c-0.5575,0.26677 -1.14639,0.47382 -1.74791,0.62842c-0.09338,0.32015 -0.18848,0.63977 -0.28512,0.9589c0.23889,-0.17473 0.47777,-0.34948 0.70794,-0.53541zM253.43369,152.77218c-0.09586,-0.57514 0.12127,-0.92672 0.38027,-1.13815c0.13035,-0.48621 0.25572,-0.9739 0.37543,-1.46327c-1.37615,1.25403 -2.87722,2.35797 -4.3037,3.60689c-4.65114,4.07217 -8.81141,8.57876 -13.18565,12.91484c-2.90225,4.35334 -6.5103,7.84823 -9.22815,12.38395l-0.05295,0.10679c5.04584,0.12553 10.0917,-0.50525 15.12457,-0.92714c1.39743,-0.11714 2.79673,-0.19114 4.19574,-0.25835l-0.49831,-1.1429c0.0889,-0.44444 0.17779,-0.88889 0.26668,-1.33333c1.55722,-7.78624 4.78677,-15.04514 6.95362,-22.61571c-0.01057,-0.04255 -0.0198,-0.08706 -0.02756,-0.13362zM257.40223,156.27367c1.06957,-0.10299 1.62429,0.13938 0.8193,2.63802c-0.31881,0.98956 -1.58558,2.08626 -2.82362,3.07351c0.02276,-0.00124 0.04569,-0.00186 0.06876,-0.00186c0.69035,0 1.25,0.55964 1.25,1.25c0,0.25027 -0.07355,0.48336 -0.20021,0.67884l-1.12689,1.80302l1.01638,-0.60983c0.19169,-0.1196 0.41815,-0.1887 0.66074,-0.1887c0.69036,0 1.25,0.55964 1.25,1.25c0,0.23358 -0.06407,0.4522 -0.17559,0.63924l-1.05578,1.84761l-0.29308,-0.16748c-0.14954,0.27937 -0.31066,0.53809 -0.49017,0.79095l0.08658,0.43286l1.24679,0.13366c-0.20625,0.40128 -0.40533,0.76101 -0.6027,1.08921l0.38449,0.3845l-1.06667,1.06667l-0.1864,-0.1864c-0.7951,1.0044 -1.68475,1.75145 -2.99198,2.83515l-0.11128,0.13352c0.26747,-0.01889 0.53495,-0.03777 0.80242,-0.05666l-0.65949,2.49205c0.94533,-0.09017 1.88898,-0.20306 2.83029,-0.35004l0.0735,-0.12999c0.19149,-0.9401 0.46438,-1.86807 0.82195,-2.75834c1.09458,-6.77008 2.84914,-13.30251 2.46666,-19.97176c-0.55682,0.73871 -1.35717,1.39631 -1.994,1.88224zM224.64934,172.31934c0.72425,-0.53673 1.46437,-0.78956 2.00822,-0.93317c-0.26975,-0.22929 -0.44089,-0.57107 -0.44089,-0.95284c0,-0.4633 0.25205,-0.86774 0.62652,-1.08366l1.31369,-0.78821l0.01324,0.02206l0.06292,-0.06422c0.76765,-0.32664 1.52419,-0.68071 2.30294,-0.97992c0.29963,-0.11512 0.60159,-0.22492 0.90589,-0.32765c-0.71138,-0.33223 -1.34475,-1.17615 -1.22279,-1.92274c0.22563,-1.38114 1.49864,-2.09408 2.84006,-2.32773c-0.19891,-0.17434 -0.35209,-0.38309 -0.43358,-0.64583c-0.03128,-0.10088 -0.04757,-0.20008 -0.05013,-0.29753c-0.91832,1.06731 -1.85254,2.12274 -2.8524,3.125c-2.1972,2.63901 -4.29307,5.19721 -6.28715,7.90448zM236.79532,159.24442l-0.43252,-0.173c-0.3028,-0.11306 -0.54999,-0.34017 -0.68933,-0.62906c-0.5463,0.60233 -1.0793,1.21614 -1.60859,1.83348c0.82643,-0.45456 1.86001,-0.80665 2.73044,-1.03141zM239.62795,155.36314l-0.42839,-0.34271c-0.41315,0.33924 -0.81266,0.68998 -1.20113,1.05008c0.62032,-0.26268 1.1279,-0.51613 1.62953,-0.70737zM248.0691,150.60607c0,0 0.84137,-0.33655 1.37791,0.27983c1.5647,-1.26602 3.1673,-2.45812 4.48209,-3.99707c-3.17514,1.83553 -6.55915,3.16694 -9.77406,4.89094c1.37129,-0.27723 2.74068,-0.69895 3.91406,-1.1737zM244.48983,154.24841c0.14292,0.20322 0.22683,0.45094 0.22683,0.71826c0,0.05567 -0.00364,0.11048 -0.01069,0.16422c0.43385,-0.4133 0.87049,-0.82394 1.31043,-1.23143c-0.50431,0.13175 -1.01556,0.24922 -1.52657,0.34895zM241.68982,157.12428l-0.05232,-0.11772c-0.38089,0.23487 -0.76852,0.45647 -1.17642,0.66926c0.16036,0.21018 0.25559,0.47273 0.25559,0.75751c0,0.30738 -0.11094,0.58884 -0.29497,0.80653l-0.61269,0.73524c1.20268,-1.22118 2.412,-2.43591 3.64008,-3.63272zM237.18932,161.7226c0.24381,0.02374 0.46709,0.11752 0.64947,0.26096c0.23637,-0.24146 0.47274,-0.4829 0.70921,-0.72425c-0.3249,0.16275 -0.83557,0.32634 -1.35868,0.46329zM229.59353,170.65194c0.31447,0.18162 0.47075,0.37587 0.50603,0.57808c0.32327,-0.40054 0.64723,-0.80039 0.97033,-1.20136c-0.61501,0.26084 -1.16479,0.49217 -1.47636,0.62328zM226.57738,174.04375c0.00394,0.04044 0.00597,0.08144 0.00597,0.12292c0,0.34518 -0.13992,0.65768 -0.36612,0.88388l-1.06667,1.06667l-0.1421,-0.1421c-0.64963,0.86987 -1.33717,1.67058 -2.11477,2.65036l-0.38159,0.16434c0.73197,0.10408 1.46403,0.18565 2.19613,0.24766c0.02276,-0.06121 0.04041,-0.09651 0.04041,-0.09651l0.57951,-1.15076c1.11051,-1.84832 2.36428,-3.53158 3.65848,-5.16945c-0.7447,0.5067 -1.71037,1.00132 -2.40926,1.42298zM279.46666,154.61667c-0.76068,0 -1.05845,-0.46291 -1.17501,-0.82532c-2.59209,-1.81703 -5.21619,-2.49147 -8.13704,-3.81771c-0.93689,-0.42541 -1.99631,-1.05071 -3.08297,-1.51618c1.29692,1.73093 2.54854,3.4905 4.00601,5.15687c1.81831,2.07892 3.84695,3.87772 5.21206,6.33993c1.24943,2.25357 1.04468,4.68285 1.97515,6.92289c0.68969,3.41265 1.47467,6.81549 2.16087,10.24437l0.0088,0.47533c0.20818,0.05764 0.36393,0.12969 0.44937,0.21927c1.01558,1.06465 0.18086,2.81173 -0.09013,4.16991c0.11399,0.17479 0.18958,0.40659 0.18958,0.71397c0,0.05581 -0.0025,0.10914 -0.00725,0.16008c0.00725,0.06623 0.00725,0.10659 0.00725,0.10659l-0.01701,0.06117c0.89937,5.47969 -1.45672,11.13034 -3.84991,15.96344c0.06038,-0.05047 0.1203,-0.10142 0.17973,-0.15285c1.34539,-1.16447 2.41942,-3.18403 3.54422,-4.58536c3.26756,-5.4353 3.70901,-10.3657 4.31572,-16.47622c0.44097,-4.44128 0.66017,-8.80209 -0.24849,-13.23168c-0.69711,-3.5634 -1.82029,-8.06153 -4.23317,-10.87105c-0.0884,0.37011 -0.36186,0.94257 -1.20777,0.94257zM264.57464,144.46285c-0.3107,-0.05175 -0.62263,-0.10227 -0.93571,-0.15147c0.33724,0.35035 0.66241,0.70686 0.97816,1.06826c1.18044,0.04262 2.29576,0.3847 3.39258,0.84062l0.80729,-1.00911c-1.40343,-0.31061 -2.86293,-0.47226 -4.24232,-0.74831zM228.90664,152.54007c-0.33524,-0.2235 -0.49039,-0.48301 -0.54671,-0.7321c-3.95381,3.41762 -6.97673,7.74891 -8.77757,12.63105c-0.99655,2.70168 -0.77388,5.98209 -1.0051,8.78415c-0.15962,1.93442 -0.67893,3.07142 -0.63037,4.8051c0.0591,-0.35291 0.25312,-0.6116 0.25312,-0.6116l0.33189,-0.44217c-0.11565,-0.40935 0.0156,-0.8031 0.0156,-0.8031l0.41246,-1.09811c2.76048,-4.1385 5.74101,-7.8081 8.91702,-11.61621c3.53788,-3.52894 6.28359,-7.69092 10.2871,-10.809c3.40199,-2.6496 7.29101,-4.2152 11.04261,-6.05879c-4.0796,0.06327 -8.31732,1.08489 -12.08585,2.11884c-2.15015,0.58992 -4.62243,0.83856 -5.9875,2.74188l-0.49326,0.74336c0,0 -0.69338,1.04006 -1.73344,0.3467zM273.5158,177.33897l-0.6684,0.10009c0.28748,0.00275 0.57497,0.00506 0.86248,0.00687zM258.01747,147.10518c-0.16971,-0.04362 -0.34477,-0.12728 -0.49546,-0.27821l-0.30295,0.05113c-0.1708,-0.06579 -0.34073,-0.13596 -0.50918,-0.21056c0.00409,0.01774 0.00767,0.03542 0.01076,0.05302c0.67925,0.42045 0.50509,1.29125 0.50509,1.29125c-0.20447,1.00381 -0.43574,1.99911 -0.68815,2.98773c0.96283,-0.12683 1.95969,-0.19724 2.4643,-0.02457c-0.22681,-1.28179 -0.5485,-2.57086 -0.98441,-3.86979zM237.38413,146.14636c1.34537,-0.35833 2.71035,-0.70558 4.08686,-1.00904c-0.13474,-0.13789 -0.26717,-0.32657 -0.32071,-0.56606c-1.26943,0.42552 -2.52946,0.96359 -3.76615,1.5751zM254.87635,145.61497c0.00402,0.0911 -0.004,0.17712 -0.02095,0.2578c0.06751,-0.04199 0.14272,-0.08104 0.22476,-0.11234c-0.06867,-0.04755 -0.13663,-0.09603 -0.20381,-0.14547zM218.00584,178.81753c0.03452,-0.00049 0.06904,-0.00097 0.10356,-0.00145c-0.06109,-0.09172 -0.10397,-0.18427 -0.13245,-0.27573c0.00804,0.09061 0.01763,0.18295 0.02889,0.27719zM256.11282,143.44547c0.39713,0.38029 0.83637,0.72513 1.33481,0.94309l0.97391,-0.24762c0,0 0.02024,-0.00404 0.05605,-0.0085c-0.34978,-0.12586 -0.55046,-0.33124 -0.66218,-0.55054c-0.56651,-0.0516 -1.13426,-0.09726 -1.70258,-0.13643z" fill-opacity="0.55686" fill="#000000" stroke="none" stroke-width="0.5"></path>
      <path d="M215.86627,193.83847c0.02361,0.25761 0.0504,0.54103 0.0504,0.86153c0,0 0,1.25 -1.25,1.25c-1.25,0 -1.25,-1.25 -1.25,-1.25c0,-2.3797 -0.12466,-2.90873 1.58578,-4.74739l0.19879,-0.05014l-0.02692,-0.05384l1.5775,-0.78875c0.1737,-0.09145 0.37156,-0.14321 0.58151,-0.14321c0.69036,0 1.25,0.55964 1.25,1.25c0,0.09286 -0.01013,0.18336 -0.02934,0.27045l-0.2616,1.30802l-0.1334,-0.02668c0.00325,0.12379 0.00651,0.24757 0.00976,0.37136l-1.28488,1.36073c0,0 -0.44416,0.44416 -1.01762,0.38791z" fill-opacity="0.55686" fill="#000000" stroke="none" stroke-width="0.5"></path>
      <path d="M234.79999,202.29983c0.011,0.06489 0.022,0.12978 0.03301,0.19468c0,0 0.2055,1.23299 -1.0275,1.43849c-1.23299,0.2055 -1.43849,-1.0275 -1.43849,-1.0275c-0.09314,-0.56746 -0.18627,-1.13493 -0.27941,-1.70239l0.02772,-0.1031l-0.03198,0v-1.33333c0,0 0,0 0,0c0,-0.69036 0.55964,-1.25 1.25,-1.25c0.28595,0 0.54948,0.09602 0.76009,0.25757l1.05657,0.79241l0.50001,1.53335c0,0 0,0.96662 -0.85002,1.19982z" fill-opacity="0.55686" fill="#000000" stroke="none" stroke-width="0.5"></path>
      <path d="M245.23621,189.54634c-0.04171,0.37883 -0.24098,0.89605 -0.99105,1.04606c-1.22573,0.24514 -1.47087,-0.98058 -1.47087,-0.98058c-0.09087,-0.59727 -0.18173,-1.19454 -0.2726,-1.79181l0.30739,-0.34121l-0.1476,-0.08856l0.7882,-1.31369c0.21591,-0.37447 0.62035,-0.62653 1.08366,-0.62653c0.53655,0 0.99414,0.33805 1.17141,0.81279l0.52253,1.3063z" fill-opacity="0.55686" fill="#000000" stroke="none" stroke-width="0.5"></path>
      <path d="M255.32251,197.54426c-0.04145,0.0714 -0.0808,0.13802 -0.11731,0.19887c0,0 -0.64312,1.07186 -1.71499,0.42874c-1.07186,-0.64312 -0.42874,-1.71499 -0.42874,-1.71499c0.47824,-0.79706 2.37532,-4.75556 3.63576,-4.32942c3.92869,1.32825 0.77247,3.78861 -0.07999,4.78976l-0.85823,0.50082c0,0 -0.18231,0.09115 -0.4365,0.12622z" fill-opacity="0.55686" fill="#000000" stroke="none" stroke-width="0.5"></path>
      <path d="M232.35055,185.98388c-0.06595,0.06595 -0.13189,0.12205 -0.19747,0.16942c-0.07434,0.3653 -0.33134,0.99671 -1.21974,0.99671c-1.25,0 -1.25,-1.25 -1.25,-1.25c0,-0.44444 0,-0.88889 0,-1.33333l2.66721,-0.35056c0,0 0.88388,0.88388 0,1.76777z" fill-opacity="0.55686" fill="#000000" stroke="none" stroke-width="0.5"></path>
      <path d="M211.09494,184.92903c-0.11169,-0.12278 -0.20919,-0.28567 -0.28077,-0.5004c-0.3953,-1.18585 0.79055,-1.58115 0.79055,-1.58115l2.38114,1.31445c-0.17778,0.53334 -0.35555,1.06667 -0.53333,1.60001c0,0 -0.39528,1.18586 -1.58113,0.79058c-1.18586,-0.39528 -0.79058,-1.58113 -0.79058,-1.58113c0.00471,-0.01412 0.00941,-0.02824 0.01412,-0.04236z" fill-opacity="0.55686" fill="#000000" stroke="none" stroke-width="0.5"></path>
      <path d="M243.95985,205.55514c-0.29838,0.23904 -0.84964,0.50669 -1.50986,0.01151c-0.99999,-0.75001 -0.24998,-1.75 -0.24998,-1.75c0.26667,-0.35555 0.53334,-0.7111 0.80001,-1.06665l1.396,1.41498l0.60398,0.08504c-0.07487,0.09983 -0.14975,0.19966 -0.22462,0.29948l0.14382,0.14578c0,0 -0.25251,0.75753 -0.95935,0.85985z" fill-opacity="0.55686" fill="#000000" stroke="none" stroke-width="0.5"></path>
      <path d="M258.94485,183.34731c0.14967,-0.03064 0.25515,-0.03064 0.25515,-0.03064l0.10378,0.15434c0.41488,0.21288 0.55294,0.58936 0.59358,0.88277l0.60938,0.90626l-1.0559,1.58386c-0.22257,0.34463 -0.61005,0.57276 -1.05082,0.57276c-0.69036,0 -1.25,-0.55964 -1.25,-1.25c0,-0.07812 0.00717,-0.15457 0.02088,-0.22873l0.26279,-1.57677c0,0 0.2055,-1.23299 1.43849,-1.0275c0.0248,0.00413 0.04903,0.00868 0.07268,0.01363z" fill-opacity="0.55686" fill="#000000" stroke="none" stroke-width="0.5"></path>
    </g>
  </g>
</svg>
