<?xml version="1.0" encoding="UTF-8"?>
<svg xmlns="http://www.w3.org/2000/svg" xmlns:xlink="http://www.w3.org/1999/xlink" version="1.1" width="240.93872" height="254.12797" viewBox="0,0,240.93872,254.12797">
  <g transform="translate(-119.53064,-8.17947)">
    <g stroke-miterlimit="10">
      <path d="M286.57803,248.57658c-0.63756,0.29684 -1.39675,0.59006 -2.41444,1.10321c-1.68881,0.85155 -2.97457,2.42482 -4.71625,3.16224c-3.07113,1.3003 -5.69679,1.03807 -8.8993,1.40855c-1.95998,0.22674 -3.74462,1.3457 -5.69909,1.61577c-3.53023,0.48781 -6.79356,0.51585 -10.39108,0.77737c-3.16806,0.2303 -6.34062,1.08473 -9.504,0.79727c-1.17159,-0.10646 -2.2723,-0.67479 -3.4434,-0.78652c-2.52675,-0.24107 -5.12888,-0.08618 -7.58768,-0.71613c-3.88322,-1.29437 -7.91125,-1.88741 -10.94173,-4.96956c-0.89361,-0.90884 -1.44063,-2.11382 -2.28204,-3.07119c-0.92428,-1.05165 -2.22639,-1.7762 -3.00513,-2.93974c-1.73312,-2.5895 -2.22565,-5.86973 -3.8702,-8.51637c-1.6962,-2.72975 -4.06898,-5.29236 -5.65306,-8.14367c-0.67668,-1.218 -0.91998,-2.64352 -1.54295,-3.88984c-4.40623,-8.81513 -9.4813,-17.97955 -11.84919,-27.62215c-1.40541,-4.19409 -3.47869,-7.83615 -3.91008,-12.35913c-0.63815,-6.69084 2.04731,-13.65485 5.28341,-19.31494c1.17868,-2.06156 1.49419,-3.51339 2.97467,-5.27374c2.03484,-2.4195 4.48489,-4.0791 6.85777,-6.05676c2.35113,-1.95953 4.51146,-4.8231 7.4335,-6.05122c2.33722,-0.98232 5.25069,-1.47204 7.694,-2.28853c3.12998,-0.78251 5.28795,-1.12751 8.41376,-1.52078c1.033,-0.12997 1.98489,-0.77366 3.02597,-0.78494c8.2191,-0.08908 13.38808,2.95652 20.23525,6.86715c4.19811,2.39767 7.71575,4.53626 10.35418,8.77967c1.44263,2.3202 4.0719,5.77098 4.45244,8.66912c0.45145,3.43813 -0.02557,7.33961 -0.02557,10.80673c0,6.50868 -1.70953,13.07331 -0.75763,19.6265c0.35789,2.46385 1.70554,5.23293 2.49546,7.60275c1.06416,3.19255 1.82203,6.9119 3.32232,9.91978c1.27836,2.56292 3.53035,4.6457 4.79764,7.20467c2.01001,4.05872 4.45564,8.32016 5.55544,12.71909c2.04753,3.10404 3.0264,5.66676 2.98345,9.39178l-0.53645,0.48244c0,0 -1.11885,2.23694 1.11724,3.35494c0.01094,0.00547 -0.04858,-0.06012 -0.03769,-0.05481z" fill="#a2f9ff" stroke="none" stroke-width="0.25"></path>
      <path d="M231.06563,194.32016c-0.37971,0.35355 -0.8106,0.68168 -1.27825,0.97795c1.60505,0.18239 3.06075,0.28296 4.63262,-0.26564c-1.1209,-0.14401 -2.23698,-0.45017 -3.35437,-0.71231zM242.68987,182.66071c1.75939,1.69711 1.97075,3.38712 1.44083,4.93532c-0.18147,3.70798 -2.5315,7.62383 -4.38458,10.10889c-2.73814,1.82458 -3.71863,2.99291 -7.31808,3.08386c-2.14923,0.0543 -4.25008,-0.8139 -6.39996,-0.79999l-1.98235,-0.77594c-3.38874,-0.27628 -7.70904,-2.99563 -8.94427,-5.20972c-3.14448,-5.63637 -1.66846,-9.77483 1.63976,-14.69094c0.65865,-0.97877 1.10127,-2.17304 2.03231,-2.8976c4.13561,-3.21843 11.28406,-2.17019 15.64927,0.47816c1.47745,0.89635 2.63473,2.24753 4.06433,3.21837c1.21192,0.82302 2.85424,1.05818 3.83521,2.14622c0.09368,0.10391 0.18328,0.20903 0.2689,0.3153c0.03357,0.0277 0.06646,0.05703 0.09863,0.08807z" fill="#6ba3a7" stroke="none" stroke-width="0.5"></path>
      <path d="M234.6602,251.72113c1.7677,-1.76783 3.53553,-0.00013 3.53553,-0.00013l-0.47737,0.11637c3.58277,0.76757 5.60925,0.26589 8.33729,-0.5716l0.98559,-0.65709l0.04469,0.06703c0.10672,-0.09457 0.21682,-0.18577 0.3307,-0.27321c1.3556,-1.04074 3.23697,-1.02262 4.98927,-0.98146c1.06054,-0.29722 2.18711,-0.60126 3.30038,-0.86097c0.36868,-0.92082 1.26928,-1.57124 2.32179,-1.57124h2.89166c1.54904,-0.55938 2.79829,-1.84091 4.38389,-2.29276c0.90106,-0.25678 1.97705,0.59254 2.80641,0.15667c1.78635,-0.93881 2.82129,-5.25263 3.67223,-6.86229c0.34479,-0.65221 1.28409,-0.99718 1.38245,-1.72833c0.11555,-0.85888 -0.71169,-1.60775 -0.81793,-2.46783c-0.14282,-1.15617 -0.1075,-2.32748 -0.05555,-3.49441c-0.2112,0.05796 -0.43358,0.08892 -0.66319,0.08892c-1.38071,0 -2.5,-1.11929 -2.5,-2.5v-4h0.07592l-0.0674,-0.2062c0.24197,-1.40443 0.5137,-2.82905 0.92758,-4.19982l-0.1021,0.01702l-0.04575,-0.27451l-0.08491,0.16911c-0.53569,2.54236 -1.16394,5.03114 -1.75805,7.40175l-0.36395,2.99784c0,0 -0.30516,2.48131 -2.78646,2.17615c-0.33762,-0.04152 -0.62366,-0.12333 -0.86589,-0.2337c-0.43288,0.62498 -1.36135,1.50007 -2.94234,0.87956c-2.32717,-0.91338 -1.4138,-3.24055 -1.4138,-3.24055l0.41762,-1.06403c0.32435,-0.82637 3.22781,-8.16207 3.5056,-9.10889c0.38533,-1.3134 0.11535,-2.84527 0.80759,-4.02608c0.03907,-0.06665 0.07885,-0.13279 0.11931,-0.19845l-0.04414,-0.01766l1.57835,-3.94593c0.03468,-0.09289 0.07473,-0.18316 0.11977,-0.27044c0.24411,-3.24168 0.05019,-6.41289 -0.94865,-9.26459c0,0 -0.79056,-2.37171 1.58115,-3.16227c2.37171,-0.79056 3.16227,1.58115 3.16227,1.58115c1.21826,3.79361 1.38917,7.8679 1.01719,11.96576c0.19557,-0.04913 0.40028,-0.07522 0.61109,-0.07522c1.25484,0 2.29375,0.92451 2.47274,2.12955l0.79323,4.75948l-0.04162,0.00694c0.02797,0.13393 0.05326,0.26859 0.07563,0.40405c0.21459,1.29937 -0.23238,2.59991 -0.56777,3.90026c0.0763,0.03721 0.15207,0.0758 0.22725,0.11571l0.25064,-0.75188c0.31419,-1.02154 1.26534,-1.76408 2.38993,-1.76408c0.41241,0 0.80149,0.09986 1.14439,0.27671c0.45137,-0.65065 1.20371,-1.0767 2.05557,-1.0767c1.38071,0 2.5,1.11929 2.5,2.5c0,0.22871 -0.03071,0.45025 -0.08824,0.66072l-0.73028,2.92119c0.00036,0.19762 -0.00041,0.39476 -0.00239,0.59145c0.50069,1.63566 0.51766,3.5513 0.29788,5.51415l0.25527,-0.25527c0.45241,-0.45241 1.07741,-0.73223 1.76777,-0.73223c1.38071,0 2.5,1.11929 2.5,2.5c0,0.22872 -0.03071,0.45026 -0.08824,0.66073l-0.78639,3.14556l-0.09492,-0.02373l0.01428,0.28475c-0.67673,1.36477 -1.69167,3.52861 -2.75039,5.38063c0.58869,-0.01692 1.15012,0.08405 1.66049,0.38978c1.60043,0.95874 2.49482,3.46205 1.94976,5.24628c-0.77784,2.54621 -6.20521,6.18966 -10.43033,7.00176c-3.02813,2.28906 -6.79528,3.55204 -9.20232,0.97599c-0.36549,-0.39115 -0.48925,-0.88004 -0.47174,-1.41598c-0.16408,0.01372 -0.32872,0.02887 -0.49395,0.04565c-5.32194,0.54049 -10.91007,2.09398 -16.12611,0.84206l-3.5392,0.70783c-0.11107,0.0245 -0.2249,0.04161 -0.34097,0.05079c-1.66851,0.462 -3.33938,0.79801 -4.99768,0.80786c-1.52396,0.00906 -2.99501,-0.56569 -4.49252,-0.84853l-2.07747,-1.48361c0,0 -1.76783,-1.7677 -0.00013,-3.53553z" fill-opacity="0.53333" fill="#76b3b8" stroke="none" stroke-width="0.5"></path>
      <path d="M217.21859,244.66053c-2.37171,0.79055 -3.16227,-1.58116 -3.16227,-1.58116l-0.69956,-2.14595c-0.73347,-1.21496 -2.19453,-2.22597 -2.20327,-3.64409l-2.31027,-3.08034c-0.32312,-0.42124 -0.51516,-0.9483 -0.51516,-1.52021c0,-0.94838 0.52808,-1.77341 1.30622,-2.19711l-1.64342,-2.73908c-2.11303,-2.49737 -3.83281,-5.36192 -5.64293,-8.07699c0,0 -1.38679,-2.0801 0.69331,-3.46689c2.0801,-1.38679 3.46689,0.69331 3.46689,0.69331c1.73323,2.59975 3.37218,5.36443 5.40573,7.74545c0.00951,0.01092 0.01892,0.02191 0.02824,0.03299c2.54511,2.96594 5.75424,4.75472 8.00947,8.01143l0.47646,1.49687c1.38071,0 2.5,1.11929 2.5,2.5c0,1.38071 -1.11929,2.5 -2.5,2.5c-0.23697,0 -0.51231,-0.09259 -0.79004,-0.2325c-0.17919,0.64838 -0.61302,1.19105 -1.18713,1.5136l0.34888,1.02839c0,0 0.79055,2.37171 -1.58116,3.16227z" fill-opacity="0.53333" fill="#76b3b8" stroke="none" stroke-width="0.5"></path>
      <path d="M226.99588,154.45655c-1.15417,1.15421 -2.30836,0.80126 -2.97054,0.4172c-0.23531,0.12964 -0.40673,0.18678 -0.40673,0.18678c-1.15276,0.37579 -2.17114,0.84768 -3.0969,1.39612c-0.26346,1.11214 -1.37561,1.66822 -1.37561,1.66822c-0.75325,0.37379 -1.50071,0.7675 -2.23745,1.18286c-1.64505,1.61729 -3.13711,3.4686 -4.92807,5.3424l-1.47244,2.22546c0,0 -1.10363,1.6554 -2.81858,1.02814c-0.1272,0.19058 -0.2543,0.38121 -0.38134,0.57183c0,0 -0.79032,1.1855 -2.07266,1.16994l-0.39005,0.52007c-0.45492,0.62044 -1.18914,1.02327 -2.01745,1.02327c-0.72995,0 -1.38684,-0.31284 -1.84389,-0.81177c-1.26624,-0.12261 -2.25608,-1.18984 -2.25608,-2.48825c0,-0.52532 0.16202,-1.01279 0.43883,-1.41518l1.58102,-2.37155l0.0247,0.01646l0.01459,-0.07365c0.85075,-1.13136 1.40496,-2.56493 2.55224,-3.39409c0.04863,-0.03514 0.09758,-0.06972 0.14685,-0.10376l-0.02599,-0.02599l2.39996,-2.39999c0.45241,-0.45242 1.07742,-0.73225 1.76778,-0.73225c0.08355,0 0.16613,0.0041 0.24757,0.0121c0.29233,-0.43193 0.58309,-0.86489 0.87232,-1.29885c0,0 0.7442,-1.11629 1.96,-1.1682c1.27532,-1.52129 2.64007,-2.93935 4.13141,-4.17533c1.43789,-1.19168 4.55043,-3.17223 6.56597,-2.96343c1.50474,0.15588 2.76052,1.23844 4.14077,1.85766l1.44973,1.26828c0,0 1.7678,1.76773 0.00007,3.53553z" fill="#d3fcff" stroke="none" stroke-width="0.5"></path>
      <path d="M290.92759,244.64273c0.56092,-0.18856 1.27062,-0.17843 2.08718,0.36593c2.08014,1.38673 0.69342,3.46687 0.69342,3.46687c-2.26399,3.29244 -3.97566,3.97221 -7.38172,5.65905c-1.75157,0.86746 -3.09313,2.46445 -4.88706,3.24052c-3.49847,1.51347 -6.65698,1.4076 -10.30587,1.79495c-1.89901,0.20159 -3.61563,1.30865 -5.50499,1.58649c-10.6773,1.57016 -22.46175,2.54046 -33.09942,-0.06742c-4.77846,-1.59278 -9.29559,-2.51171 -13.06881,-6.23257c-0.99123,-0.97747 -1.6062,-2.28026 -2.52088,-3.3297c-1.06248,-1.21902 -2.50358,-2.11496 -3.39849,-3.46181c-1.70682,-2.56876 -2.16675,-5.82142 -3.809,-8.43194c-1.7904,-2.846 -4.22666,-5.53756 -5.88327,-8.51945c-0.71815,-1.29267 -0.99876,-2.79135 -1.66025,-4.11391c-4.55094,-9.09914 -9.63782,-18.48017 -12.16068,-28.41196c-1.49022,-4.50026 -3.66202,-8.37514 -4.08753,-13.25261c-0.67927,-7.78616 2.14576,-15.6831 5.9256,-22.3012c1.62958,-2.85323 1.359,-3.42761 3.42893,-5.93015c2.21969,-2.68361 4.93336,-4.56952 7.54833,-6.74838c2.74361,-2.28604 5.19183,-5.28218 8.57359,-6.75292c2.47558,-1.07664 5.70285,-1.64619 8.31241,-2.51401c7.44136,-1.86038 14.2038,-2.80714 21.92921,-1.66242c3.00259,0.44491 5.48408,2.05133 8.02458,3.50045c4.16269,2.37442 8.74106,4.28674 12.38319,7.47363c4.16257,3.64228 7.34442,8.64257 9.47174,13.73194c1.85247,4.43182 0.99029,9.85204 0.99029,14.55669c0,6.23869 -1.70558,12.54652 -0.83227,18.79956c0.30656,2.195 1.60204,4.70412 2.30396,6.80991c0.99177,2.97538 1.67076,6.49413 3.07409,9.29216c1.28112,2.55436 3.50976,4.64116 4.79999,7.20005c2.05683,4.07927 4.5311,8.44951 5.64052,12.88695c2.43916,3.6177 3.36801,7.02488 3.41323,11.36531zM286.54279,248.54108c-0.01089,-0.00531 -0.02181,-0.0107 -0.03275,-0.01617c-2.23609,-1.118 -1.11809,-3.35408 -1.11809,-3.35408l0.53607,-0.48204c0.04295,-3.72502 -0.9387,-6.28452 -2.98623,-9.38856c-1.0998,-4.39893 -3.54954,-8.6543 -5.55955,-12.71302c-1.26729,-2.55897 -3.52163,-4.63712 -4.79999,-7.20004c-1.50029,-3.00788 -2.26177,-6.71524 -3.32593,-9.90779c-0.78992,-2.36982 -2.13808,-5.12627 -2.49597,-7.59012c-0.9519,-6.55319 0.76771,-13.09178 0.76771,-19.60046c0,-3.46712 0.48373,-7.3614 0.03228,-10.79953c-0.38054,-2.89814 -3.00216,-6.34338 -4.44479,-8.66358c-2.63843,-4.24341 -6.14419,-6.37694 -10.3423,-8.77461c-6.84717,-3.91063 -11.99732,-6.95466 -20.21642,-6.86558c-1.04108,0.01128 -1.99029,0.65461 -3.02329,0.78458c-3.12581,0.39327 -5.27655,0.73653 -8.40653,1.51904c-2.44331,0.81649 -5.35037,1.30366 -7.68759,2.28598c-2.92204,1.22812 -5.07528,4.08753 -7.42641,6.04706c-2.37288,1.97766 -4.81673,3.63211 -6.85157,6.05161c-1.48048,1.76035 -1.79242,3.2083 -2.9711,5.26986c-3.2361,5.66009 -5.91263,12.60799 -5.27448,19.29883c0.43139,4.52298 2.50706,8.15328 3.91247,12.34737c2.36789,9.6426 7.43309,18.77297 11.83932,27.5881c0.62297,1.24632 0.86315,2.66809 1.53983,3.88609c1.58408,2.85131 3.94835,5.40652 5.64455,8.13627c1.64455,2.64664 2.13001,5.92281 3.86313,8.51231c0.77874,1.16354 2.07725,1.88657 3.00153,2.93822c0.84141,0.95737 1.38556,2.16136 2.27917,3.0702c3.03048,3.08215 7.04797,3.67313 10.93119,4.9675c2.4588,0.62995 5.05416,0.47494 7.58091,0.71601c1.1711,0.11173 2.26886,0.6803 3.44045,0.78676c3.16338,0.28746 6.32791,-0.56542 9.49597,-0.79572c3.59752,-0.26152 6.85303,-0.28665 10.38326,-0.77446c1.95447,-0.27007 3.73498,-1.38684 5.69496,-1.61358c3.20251,-0.37048 5.82295,-0.1047 8.89408,-1.405c1.74168,-0.73742 3.02422,-2.30796 4.71303,-3.15951c1.01769,-0.51315 1.77554,-0.80509 2.4131,-1.10193z" fill="#293e40" stroke="none" stroke-width="0.5"></path>
      <path d="M119.53064,53.17947v-45h240.93872v45z" fill="#ffffff" stroke="none" stroke-width="0"></path>
      <text transform="translate(132.54956,38.98335) scale(0.69199,0.69199)" font-size="40" xml:space="preserve" fill="#000000" stroke="#000000" stroke-width="3" font-family="&quot;JetBrains Mono&quot;, Sans Serif" font-weight="normal" text-anchor="start">
        <tspan x="0" dy="0">Этап пройден!</tspan>
      </text>
    </g>
  </g>
</svg>
