<?xml version="1.0" encoding="UTF-8"?>
<svg xmlns="http://www.w3.org/2000/svg" xmlns:xlink="http://www.w3.org/1999/xlink" version="1.1" width="57.16662" height="49.66669" viewBox="0,0,57.16662,49.66669">
  <g transform="translate(-211.41669,-155.16665)">
    <g stroke="none" stroke-miterlimit="10">
      <path d="M223.18334,201.1667l0.3177,-40.42715c0,0 2.56287,0.75443 5.92001,-1.08503c2.93613,-1.60879 7.93601,-1.75097 10.51821,-1.77567c2.47943,-0.02372 6.60036,-0.9409 10.49481,1.69507c3.34969,2.26725 6.28054,0.84793 6.28054,0.84793l0.63539,40.74484z" fill-opacity="0.50196" fill="#d2d2d2" stroke-width="0"></path>
      <path d="M215.18334,193.33335v-19.33333h49.83333v19.33333z" fill-opacity="0.50196" fill="#d2d2d2" stroke-width="0"></path>
      <path d="M219.01667,197.50004v-31h42v31z" fill-opacity="0.50196" fill="#d2d2d2" stroke-width="0"></path>
      <path d="M238.08335,204.83335v-3.83334h3.83333v3.83334z" fill-opacity="0.50196" fill="#000000" stroke-width="NaN"></path>
      <path d="M241.91669,204.83335v-3.83334h3.83333v3.83334z" fill-opacity="0.50196" fill="#000000" stroke-width="NaN"></path>
      <path d="M245.75001,204.83335v-3.83334h3.83333v3.83334z" fill-opacity="0.50196" fill="#000000" stroke-width="NaN"></path>
      <path d="M249.58335,204.83335v-3.83334h3.83333v3.83334z" fill-opacity="0.50196" fill="#000000" stroke-width="NaN"></path>
      <path d="M230.58335,204.83335v-3.83334h3.83333v3.83334z" fill-opacity="0.50196" fill="#000000" stroke-width="NaN"></path>
      <path d="M234.41669,204.83335v-3.83334h3.83333v3.83334z" fill-opacity="0.50196" fill="#000000" stroke-width="NaN"></path>
      <path d="M253.25001,204.83335v-3.83334h3.83333v3.83334z" fill-opacity="0.50196" fill="#000000" stroke-width="NaN"></path>
      <path d="M257.08336,201.00004v-3.83334h3.83333v3.83334z" fill-opacity="0.50196" fill="#000000" stroke-width="NaN"></path>
      <path d="M226.75,204.83335v-3.83334h3.83333v3.83334z" fill-opacity="0.50196" fill="#000000" stroke-width="NaN"></path>
      <path d="M219.41669,201.00004v-3.83334h3.83333v3.83334z" fill-opacity="0.50196" fill="#000000" stroke-width="NaN"></path>
      <path d="M223.08335,204.83335v-3.83334h3.83333v3.83334z" fill-opacity="0.50196" fill="#000000" stroke-width="NaN"></path>
      <path d="M215.41669,197.16671v-3.83334h3.83333v3.83334z" fill-opacity="0.50196" fill="#000000" stroke-width="NaN"></path>
      <path d="M260.91668,197.16671v-3.83334h3.83333v3.83334z" fill-opacity="0.50196" fill="#000000" stroke-width="NaN"></path>
      <path d="M211.41669,193.16671v-3.83334h3.83333v3.83334z" fill-opacity="0.50196" fill="#000000" stroke-width="NaN"></path>
      <path d="M264.74998,185.50004v-3.83334h3.83333v3.83334z" fill-opacity="0.50196" fill="#000000" stroke-width="NaN"></path>
      <path d="M211.41669,181.83335v-3.83334h3.83333v3.83334z" fill-opacity="0.50196" fill="#000000" stroke-width="NaN"></path>
      <path d="M211.41669,185.66671v-3.83334h3.83333v3.83334z" fill-opacity="0.50196" fill="#000000" stroke-width="NaN"></path>
      <path d="M264.74998,193.16671v-3.83334h3.83333v3.83334z" fill-opacity="0.50196" fill="#000000" stroke-width="NaN"></path>
      <path d="M211.41669,189.50004v-3.83334h3.83333v3.83334z" fill-opacity="0.50196" fill="#000000" stroke-width="NaN"></path>
      <path d="M264.74998,189.33335v-3.83334h3.83333v3.83334z" fill-opacity="0.50196" fill="#000000" stroke-width="NaN"></path>
      <path d="M264.74998,181.66671v-3.83334h3.83333v3.83334z" fill-opacity="0.50196" fill="#000000" stroke-width="NaN"></path>
      <path d="M211.41669,178.00004v-3.83334h3.83333v3.83334z" fill-opacity="0.50196" fill="#000000" stroke-width="NaN"></path>
      <path d="M264.74998,177.83335v-3.83334h3.83333v3.83334z" fill-opacity="0.50196" fill="#000000" stroke-width="NaN"></path>
      <path d="M215.41669,174.16671v-3.83334h3.83333v3.83334z" fill-opacity="0.50196" fill="#000000" stroke-width="NaN"></path>
      <path d="M215.41669,170.50004v-3.83334h3.83333v3.83334z" fill-opacity="0.50196" fill="#000000" stroke-width="NaN"></path>
      <path d="M260.91668,174.00004v-3.83334h3.83333v3.83334z" fill-opacity="0.50196" fill="#000000" stroke-width="NaN"></path>
      <path d="M260.91668,170.33335v-3.83334h3.83333v3.83334z" fill-opacity="0.50196" fill="#000000" stroke-width="NaN"></path>
      <path d="M257.08336,166.5v-3.83334h3.83333v3.83334z" fill-opacity="0.50196" fill="#000000" stroke-width="NaN"></path>
      <path d="M219.41669,166.5v-3.83334h3.83333v3.83334z" fill-opacity="0.50196" fill="#000000" stroke-width="NaN"></path>
      <path d="M223.08335,162.66671v-3.83333h3.83333v3.83333z" fill-opacity="0.50196" fill="#000000" stroke-width="NaN"></path>
      <path d="M226.75,162.66671v-3.83333h3.83333v3.83333z" fill-opacity="0.50196" fill="#000000" stroke-width="NaN"></path>
      <path d="M253.33335,162.66671v-3.83334h3.83333v3.83334z" fill-opacity="0.50196" fill="#000000" stroke-width="NaN"></path>
      <path d="M249.49999,162.66671v-3.83334h3.83333v3.83334z" fill-opacity="0.50196" fill="#000000" stroke-width="NaN"></path>
      <path d="M234.29168,159v-3.83334h3.83333v3.83334z" fill-opacity="0.50196" fill="#000000" stroke-width="NaN"></path>
      <path d="M238.125,159v-3.83334h3.83333v3.83334z" fill-opacity="0.50196" fill="#000000" stroke-width="NaN"></path>
      <path d="M241.875,159v-3.83334h3.83333v3.83334z" fill-opacity="0.50196" fill="#000000" stroke-width="NaN"></path>
      <path d="M245.75001,159v-3.83334h3.83333v3.83334z" fill-opacity="0.50196" fill="#000000" stroke-width="NaN"></path>
      <path d="M230.58335,159v-3.83334h3.83333v3.83334z" fill-opacity="0.50196" fill="#000000" stroke-width="NaN"></path>
      <g fill-opacity="0.50196" fill="#717171">
        <path d="M236.20834,179.90837v-3.83334h3.83333v3.83334z" stroke-width="NaN"></path>
        <path d="M232.54168,179.90837v-3.83334h3.83333v3.83334z" stroke-width="NaN"></path>
        <path d="M236.125,183.7417v-3.83334h3.83333v3.83334z" stroke-width="NaN"></path>
        <path d="M232.45834,183.7417v-3.83334h3.83333v3.83334z" stroke-width="NaN"></path>
        <path d="M236.20834,187.67503v-3.83334h3.83333v3.83334z" stroke-width="NaN"></path>
        <path d="M236.08332,176.15837v-3.83334h3.83333v3.83334z" stroke-width="NaN"></path>
        <path d="M239.95834,179.90837v-3.83334h3.83333v3.83334z" stroke-width="NaN"></path>
        <path d="M243.625,179.90837v-3.83334h3.83333v3.83334z" stroke-width="NaN"></path>
        <path d="M240.04168,183.7417v-3.83334h3.83333v3.83334z" stroke-width="NaN"></path>
        <path d="M243.70834,183.7417v-3.83334h3.83333v3.83334z" stroke-width="NaN"></path>
        <path d="M239.95834,187.67503v-3.83334h3.83333v3.83334z" stroke-width="NaN"></path>
        <path d="M240.08337,176.15837v-3.83334h3.83333v3.83334z" stroke-width="NaN"></path>
      </g>
    </g>
  </g>
</svg>
