<?xml version="1.0" encoding="UTF-8"?>
<svg xmlns="http://www.w3.org/2000/svg" xmlns:xlink="http://www.w3.org/1999/xlink" version="1.1" width="20.65743" height="54.21352" viewBox="0,0,20.65743,54.21352">
  <g transform="translate(-229.67128,-153.01824)">
    <g stroke-miterlimit="10">
      <g>
        <path d="M229.67128,163.34696c0,-5.70439 4.62432,-10.32872 10.32872,-10.32872c5.70439,0 10.32872,4.62432 10.32872,10.32872c0,5.70439 -4.62432,10.32872 -10.32872,10.32872c-5.70439,0 -10.32872,-4.62432 -10.32872,-10.32872z" fill="#000000" stroke="none" stroke-width="none"></path>
        <path d="M238.18128,206.69076v-33.4645h3.63745v33.4645z" fill="#000000" stroke="#000000" stroke-width="0.5"></path>
        <path d="M238.05033,206.98176v-2.90996h11.05784v2.90996z" fill="#000000" stroke="#000000" stroke-width="0.5"></path>
        <path d="M232.37591,196.28767v-17.89623h2.32797v17.89623z" fill="#000000" stroke="#000000" stroke-width="0.5"></path>
        <path d="M232.43984,178.34976l6.41078,-5.92559l1.58016,1.70954l-6.41078,5.92559z" fill="#000000" stroke="#000000" stroke-width="0.5"></path>
        <path d="M245.27871,196.97518v-17.89623h2.32797v17.89623z" fill="#000000" stroke="#000000" stroke-width="0.5"></path>
        <path d="M245.9626,180.74681l-6.41078,-5.92558l1.58016,-1.70954l6.41078,5.92559z" fill="#000000" stroke="#000000" stroke-width="0.5"></path>
        <path d="M241.6478,163.43793c0,-1.76784 1.43311,-3.20095 3.20095,-3.20095c1.76784,0 3.20095,1.43311 3.20095,3.20095c0,1.76784 -1.43311,3.20095 -3.20095,3.20095c-1.76784,0 -3.20095,-1.43311 -3.20095,-3.20095z" fill="#ffffff" stroke="none" stroke-width="0"></path>
        <path d="M234.33293,163.54345c0,-1.76784 1.43312,-3.20095 3.20095,-3.20095c1.76784,0 3.20095,1.43312 3.20095,3.20095c0,1.76784 -1.43312,3.20095 -3.20095,3.20095c-1.76784,0 -3.20095,-1.43312 -3.20095,-3.20095z" fill="#ffffff" stroke="none" stroke-width="0"></path>
        <path d="M235.86786,163.6234c0,-1.20534 0.97712,-2.18247 2.18247,-2.18247c1.20534,0 2.18247,0.97712 2.18247,2.18247c0,1.20534 -0.97712,2.18247 -2.18247,2.18247c-1.20534,0 -2.18247,-0.97712 -2.18247,-2.18247z" fill="#000000" stroke="none" stroke-width="0"></path>
        <path d="M243.24828,163.58343c0,-1.20534 0.97712,-2.18247 2.18247,-2.18247c1.20534,0 2.18247,0.97713 2.18247,2.18247c0,1.20534 -0.97713,2.18247 -2.18247,2.18247c-1.20534,0 -2.18247,-0.97712 -2.18247,-2.18247z" fill="#000000" stroke="none" stroke-width="0"></path>
      </g>
    </g>
  </g>
</svg>
