<?xml version="1.0" encoding="UTF-8"?>
<svg xmlns="http://www.w3.org/2000/svg" xmlns:xlink="http://www.w3.org/1999/xlink" version="1.1" width="187.43029" height="65.63262" viewBox="0,0,187.43029,65.63262">
  <g transform="translate(-145.84506,-125.18369)">
    <g fill="#292f33" stroke="none" stroke-miterlimit="10">
      <path d="M332.2444,141.71072c-1.35989,1.31566 -8.16488,2.84692 -9.51922,6.81049c-1.35989,3.9691 -1.37094,27.41335 -12.23345,35.51187c-10.16045,7.57889 -33.87559,9.86194 -48.90624,1.31566c-13.11794,-7.45728 -12.6536,-23.16233 -15.05827,-32.51015c-0.85684,-3.33339 -3.27256,-5.0139 -6.96528,-5.0139c-3.69271,0 -6.10844,1.68049 -6.96529,5.0139c-2.40467,9.35338 -1.94588,25.05288 -15.05829,32.51015c-15.03064,8.55184 -38.74576,6.26875 -48.91173,-1.31566c-10.85699,-8.10403 -10.86805,-31.54277 -12.23347,-35.51186c-1.35437,-3.96357 -8.15933,-5.4893 -9.51922,-6.81049c-1.37094,-1.32672 -1.37094,-6.617 -0.00553,-7.93822c0.94529,-0.91764 7.00398,1.51468 13.13454,-1.60865c12.64807,-6.44564 44.61096,-12.66465 65.41281,2.07851c2.22779,1.581 11.53694,1.84636 14.14063,1.73027c2.60369,0.11054 11.91284,-0.15479 14.14063,-1.73027c20.8074,-14.74319 52.77029,-8.52418 65.41836,-2.07851c6.13056,3.12332 12.18926,0.69098 13.13452,1.60865c1.37093,1.32119 1.36541,6.61148 -0.00553,7.93822zM216.03481,140.35638c-6.26875,-3.85852 -19.13793,-4.09627 -22.96884,-4.09627c-8.36387,0 -16.53977,1.5589 -22.39945,3.5545c-3.69271,1.26039 -2.56501,9.4584 -2.14486,12.81391c0.65784,5.26819 2.4047,19.35352 6.99293,22.77535c3.67059,2.73638 13.05714,4.65458 19.82894,4.65458h0.00553c6.11396,0 11.95706,-1.55337 16.44027,-4.10731c7.31354,-4.16259 8.40257,-15.89302 8.82822,-22.00145c0.23771,-3.36101 0.97294,-10.18258 -4.58271,-13.59333zM308.45189,139.78699c-5.8652,-1.9956 -14.03558,-3.52688 -22.39945,-3.52688c-3.8309,0 -16.69457,0.26536 -22.96884,4.12389c-5.55565,3.41079 -4.81489,10.2821 -4.5827,13.64311c0.42564,6.10843 1.51468,17.76699 8.82821,21.92405c4.48874,2.55394 10.32632,4.10732 16.44581,4.10732h0.00555c6.77179,0 16.15834,-1.91819 19.82894,-4.65457c4.58823,-3.42183 6.33507,-17.57906 6.99291,-22.85274c0.42012,-3.35548 1.54233,-11.50377 -2.15039,-12.76416z"></path>
    </g>
  </g>
</svg>
