<?xml version="1.0" encoding="UTF-8"?>
<svg xmlns="http://www.w3.org/2000/svg" xmlns:xlink="http://www.w3.org/1999/xlink" version="1.1" width="321.19994" height="336.77921" viewBox="0,0,321.19994,336.77921">
  <g transform="translate(-79.40002,-11.6104)">
    <g stroke="none" stroke-miterlimit="10">
      <path d="M88.31564,328.61039c0,0 16,-20.5985 16,-32.10001c0,-24.14805 -6.06414,4.50221 -10.04872,-44.1924c-0.59522,-7.27412 3.74438,-65.15844 3.01263,-73.75344c-0.23731,-2.78745 -17.45194,-68.53772 -17.64152,-71.24481c-1.94572,-27.78276 8.67761,-71.70934 8.67761,-71.70934c0,0 -12.60264,-21.46011 8.4239,-20.44654c5.86827,0.28288 21.73281,18.2132 32.25081,17.57214c19.88693,-1.21209 85.77117,-14.42446 107.91596,-15.43106c14.92427,-0.67839 40.54072,1.62046 54.14997,0.91386c29.89262,-1.55204 65.36001,-6.60839 73.85938,-6.60839c6.34357,0 25.39999,15 25.39999,15c0,0 -4.30426,16.55744 -1.677,49.84293c2.20947,27.99243 11.3705,71.03601 11.83896,94.14703c0.97157,47.9307 -4.16196,152.01005 -4.16196,152.01005c0,0 6.8751,16.10871 -32.52064,19.49727c-5.19656,0.44698 -28.0068,-7.08378 -34.50223,-6.59417c-5.41818,0.40841 -27.16192,3.80264 -33.24331,4.17608c-4.59181,0.28197 -30.28214,8.51628 -35.06363,8.69531c-8.42783,0.31554 -43.80911,-15.34526 -52.03061,-14.98105c-9.93324,0.44004 -39.34412,6.82986 -47.9634,7.15102c-2.72426,0.1015 -17.35563,-9.79234 -19.88468,-9.68134c-10.6975,0.46953 -30.35234,15.73688 -36.1915,15.73688c-17.79261,0 -16.6,-18 -16.6,-18z" fill="#d6d6d6" stroke-width="0"></path>
      <path d="M114.91564,303.51038l-11,-15c0,0 12.57555,13.59144 33.19615,18.10359c30.25914,6.62123 74.38191,5.22504 93.09351,7.37227c14.12883,1.62134 55.71035,9.52414 55.71035,9.52414l65,-5c0,0 -60.0161,13.57931 -88.76511,11.92299c-10.7767,-0.62088 -41.27907,-11.44 -57.09454,-13.84571c-8.9022,-1.35412 -54.71337,6.39113 -63.18379,5.2433c-39.11052,-5.29991 -26.95656,-18.32058 -26.95656,-18.32058z" fill="#9e9e9e" stroke-width="0"></path>
      <path d="M121.8722,32.25287c8.47042,-1.14784 54.2816,6.59742 63.18379,5.2433c15.81547,-2.4057 46.31783,-13.22483 57.09454,-13.84571c28.74901,-1.65632 88.76511,11.923 88.76511,11.923l-65,-5c0,0 -41.58152,7.9028 -55.71035,9.52414c-18.71159,2.14723 -62.83437,0.75104 -93.0935,7.37226c-20.6206,4.51215 -33.19615,18.10359 -33.19615,18.10359l11,-15c0,0 -12.15397,-13.02067 26.95656,-18.32058z" fill="#9e9e9e" stroke-width="0"></path>
      <path d="M119.03609,74.98197c0.34947,0.69894 0.37123,1.28864 0.23601,1.7691c2.16542,7.36107 3.32043,14.76607 4.69501,22.38785l0.09329,0.51782c0,0 0.44326,2.46039 -2.01713,2.90365c-2.46039,0.44326 -2.90365,-2.01713 -2.90365,-2.01713l-0.09329,-0.51782c-1.23025,-6.83572 -2.12803,-13.57948 -4.00106,-20.25488l-0.24224,0.12096c-2.00675,1.20473 -3.83064,2.43844 -5.78992,3.47678c-1.17993,7.40956 -3.10553,14.69429 -5.8919,21.66018c0,0 -0.92848,2.32119 -3.24967,1.39271c-2.32119,-0.92848 -1.39271,-3.24967 -1.39271,-3.24967c2.3978,-5.99448 4.05016,-12.14776 5.14992,-18.40261c-0.4794,-0.23048 -0.93145,-0.67137 -1.20044,-1.47836c-0.79055,-2.37171 1.58116,-3.16227 1.58116,-3.16227c0.11746,-0.03784 0.23411,-0.07709 0.34999,-0.11767c0.78096,-5.9095 1.11892,-11.89558 1.17286,-17.91107l0.22483,-0.34717l-0.12882,-0.04294l0.78176,-2.3453c0.31417,-1.02157 1.26534,-1.76413 2.38994,-1.76413c0.85068,0 1.60213,0.42489 2.0537,1.07402l2.88682,4.04156l-0.01471,0.01051c0.04335,0.0544 0.08631,0.10916 0.12885,0.16428c1.5737,2.03891 3.21844,7.26978 4.06137,9.65744c0.19383,0.54905 0.38072,1.09816 0.56118,1.6474c0.20352,0.19848 0.39343,0.45591 0.55885,0.78676zM112.39698,75.5085l1.06253,-0.53193c-0.97759,-2.4886 -2.13386,-4.94355 -3.02119,-7.44502c-0.07818,3.20049 -0.27768,6.40323 -0.60749,9.59308c0.84606,-0.54101 1.69296,-1.0925 2.56615,-1.61613z" fill="#696969" stroke-width="0.5"></path>
      <path d="M135.10001,80.10001c0,-2.5 2.5,-2.5 2.5,-2.5l-0.4801,1.11326c1.25661,-1.85 2.72306,-3.23469 1.42277,-5.53883c-0.58564,-1.03778 -1.62652,-1.77709 -2.18353,-2.83051c-0.2171,-0.41059 0.30796,-1.09584 -0.04943,-1.39247c-0.28973,-0.24048 -0.09693,0.78212 -0.32475,1.08191c-0.53352,0.70208 -1.40213,1.11361 -1.89784,1.84287c-0.7991,1.17559 -1.08574,2.93112 -0.5154,4.23315c0,0 0.38068,1.14195 -0.17867,2.10521c0.78987,4.48229 2.35812,8.98436 3.43229,13.27908l0.07464,3.00632c0,0 0,2.5 -2.5,2.5c-2.5,0 -2.5,-2.5 -2.5,-2.5l0.07464,-1.79367c-1.61266,-6.45371 -4.03905,-13.14648 -4.07464,-19.80634c0,0 0,-1.42447 1.07525,-2.1229c0.6944,-1.74962 1.95674,-3.31501 3.83978,-4.61044c1.35973,-0.93541 2.84799,-2.39326 4.4753,-2.1181c1.52528,0.2579 2.16497,2.21518 3.15053,3.40752c4.17429,5.05009 4.32737,8.71977 0.83933,14.03068l-3.68017,1.11326c0,0 -2.5,0 -2.5,-2.5z" fill="#696969" stroke-width="0.5"></path>
      <path d="M157.25486,79.06226c-1.88225,0.94276 -3.80165,1.81312 -5.74352,2.62811c-0.05069,1.70696 -0.06069,3.41905 -0.23005,5.11508c-0.20352,2.038 -0.79451,4.04645 -0.78126,6.09454c0,0 0,2.5 -2.5,2.5c-2.5,0 -2.5,-2.5 -2.5,-2.5c0.01203,-2.25172 0.59435,-4.4649 0.81872,-6.70545c0.15658,-1.56359 0.28957,-3.10836 0.42445,-4.64249c-0.09665,-0.1528 -0.18553,-0.32647 -0.26438,-0.52357c-0.53357,-1.33392 0.00605,-2.2079 0.56161,-2.71005c0.3562,-3.61113 0.82412,-7.19485 1.74336,-10.86011c0.35336,-1.40895 2.06714,-6.25927 3.20487,-6.52302c4.15407,-0.96301 6.95198,4.94509 7.9945,7.33192c2.61623,5.98978 4.31607,13.77286 4.88772,20.20664l0.02898,2.80186c0,0 0.02427,2.49988 -2.47561,2.52415c-2.49988,0.02427 -2.52415,-2.47561 -2.52415,-2.47561l-0.02358,-2.613c-0.25221,-3.09327 -1.08079,-6.12701 -1.97747,-9.09818c-0.06486,-0.2149 -0.14183,-0.49612 -0.22829,-0.82713zM154.7452,74.73772l1.64224,-1.09905c-0.36924,-1.43734 -0.7311,-2.73796 -1.00919,-3.42345c-0.34848,-0.85899 -0.91138,-1.6161 -1.394,-2.41089c-0.14219,0.30768 -0.28785,0.61581 -0.36796,0.93734c-0.59757,2.39852 -1.10017,4.82174 -1.53145,7.25622c0.89482,-0.40328 1.78244,-0.8221 2.66036,-1.26018z" fill="#696969" stroke-width="0.5"></path>
      <path d="M183.20004,90.60001c-2.5,0 -2.5,-2.5 -2.5,-2.5l0.00066,-2.34265c-0.06813,-2.9696 -0.20011,-5.85658 -0.28146,-8.72742c-2.44558,0.89689 -4.52111,1.85696 -7.03246,3.55018c0,0 -0.04051,0.02701 -0.11399,0.06783c0.1433,1.78077 0.26989,3.56239 0.32189,5.34764l0.10432,3.63265c0,0 0.07177,2.49897 -2.4272,2.57074c-2.49897,0.07177 -2.57074,-2.4272 -2.57074,-2.4272l-0.10432,-3.63265c-0.12181,-4.30598 -0.69468,-8.54009 -0.69676,-12.83914c-0.00021,-0.42551 -0.03074,-0.85537 -0.06834,-1.28625c-2.0005,-0.746 -1.45699,-2.92006 -1.45699,-2.92006c0.26666,-1.06667 0.53333,-2.13334 0.79999,-3.20001l0.7873,-3.14928c0.25264,-1.11331 1.24829,-1.94441 2.43804,-1.94441c1.38071,0 2.5,1.11929 2.5,2.5v5c0.25326,1.44041 -0.04663,4.56688 -0.03511,6.73098c2.45696,-1.4043 4.71968,-2.32201 7.48823,-3.2772c0.01932,-2.33929 0.11856,-4.69488 0.35934,-7.10254c0,0 0.24877,-2.48759 2.73637,-2.23882c2.48759,0.24877 2.23882,2.73637 2.23882,2.73637c-0.24293,2.42916 -0.33476,4.80163 -0.34447,7.15825c0.2155,0.34537 0.35687,0.7985 0.35687,1.39299c0,0.57405 -0.13181,1.01628 -0.3349,1.35697c0.06494,3.4841 0.25125,6.96833 0.33424,10.58569l0.00066,2.45733c0,0 0,2.5 -2.5,2.5z" fill="#696969" stroke-width="0.5"></path>
      <path d="M198.71992,88.97945c-1.88571,0.24331 -2.52232,-1.13257 -2.71907,-1.80547c-0.1916,0.74045 -0.75343,1.82603 -2.40084,1.82603c-2.5,0 -2.5,-2.5 -2.5,-2.5l0.35627,-2.08624c1.35958,-2.26475 2.57942,-4.53479 3.80499,-6.82273c0.00897,-0.90788 0.0423,-1.81157 0.10126,-2.71272c-2.2265,-3.01649 -4.21772,-6.2036 -5.6837,-9.84985c0,0 -0.92846,-2.3212 1.39273,-3.24966c2.3212,-0.92846 3.24966,1.39273 3.24966,1.39273c0.60872,1.53044 1.32414,2.97707 2.11926,4.3631c0.3239,-1.40166 0.71827,-2.80799 1.18783,-4.2252c0,0 0.79056,-2.37171 3.16227,-1.58115c2.37171,0.79056 1.58115,3.16227 1.58115,3.16227c-0.09943,0.29629 -0.19507,0.592 -0.28699,0.88721c0.45377,-0.97306 0.83126,-1.99036 1.08989,-3.08412c0,0 0.60633,-2.42536 3.03169,-1.81903c2.42536,0.60633 1.81903,3.03169 1.81903,3.03169c-1.15983,4.45259 -3.68089,7.66774 -5.92725,11.5826c2.34847,2.8766 4.8294,5.68254 7.10193,8.71109l0.56776,0.53223c0,0 1.76777,1.76777 0,3.53553c-1.76777,1.76777 -3.53553,0 -3.53553,0l-1.03222,-1.06775c-1.57149,-2.09636 -3.21921,-4.0878 -4.85326,-6.06376c0.07966,1.25208 0.20534,2.51785 0.37251,3.80269l0.16014,1.24112c0,0 0.31992,2.47945 -2.15952,2.79937zM195.74373,86.98626l0.16859,-0.2301l-0.00553,-0.04288c-0.05414,0.09101 -0.10849,0.182 -0.16306,0.27298z" fill="#696969" stroke-width="0.5"></path>
      <path d="M227.20004,89.79999c-2.5,0 -2.5,-2.5 -2.5,-2.5l0.0031,-4.12453c0.15437,-1.55917 0.30588,-3.11821 0.46407,-4.67644c-1.66208,2.19885 -3.57837,4.22465 -5.63575,6.08858l0.14868,0.09912l-1.57847,2.36776c-0.44513,0.68927 -1.22011,1.14554 -2.10165,1.14554c-1.38071,0 -2.5,-1.11929 -2.5,-2.5l0,-3.816c-1.15358,-5.95163 0.00333,-11.72917 0,-17.78401c0,0 0,-2.5 2.5,-2.5c2.5,0 2.5,2.5 2.5,2.5c-0.0027,5.13287 -0.90186,10.11283 -0.35665,15.12566c3.2,-3.64084 6.33436,-7.90164 7.45635,-12.62464l0.05734,-0.08202l-0.02875,-0.00958l1.56289,-4.68873c0.31417,-1.02157 1.26534,-1.76413 2.38994,-1.76413c1.38071,0 2.5,1.11929 2.5,2.5c0,0.1168 -0.00801,0.23174 -0.02351,0.34428l-0.60632,4.92378l-0.00034,-0.00004c0.00004,0.00064 0.00007,0.00127 0.00011,0.00191c0.26934,4.87324 -1.26196,10.72843 -1.75415,15.59803l0.0031,3.87547c0,0 0,2.5 -2.5,2.5z" fill="#696969" stroke-width="0.5"></path>
      <path d="M235.10001,64.89999c0.1124,-5.97021 8.13877,-13.6546 13.42661,-6.91433c1.57939,2.0132 -0.48005,8.27217 -0.88307,9.95446l-4.7573,3.10361c0,0 -0.80938,0.48562 -1.73187,0.36276c0.32019,3.87813 0.21174,7.82764 -0.20615,11.58788l-0.04866,2.75239c0,0 -0.04675,2.49956 -2.54631,2.45282c-2.49956,-0.04675 -2.45282,-2.54631 -2.45282,-2.54631l0.05872,-2.98927c0.61597,-5.25745 0.60973,-11.11362 -0.58491,-16.3348c-0.16347,-0.46682 -0.28345,-0.93942 -0.27423,-1.42919zM240.77371,66.51565l2.78276,-1.45577c0.18874,-1.48909 1.06204,-2.98479 0.7169,-4.44557c-0.20972,-0.88763 -1.8809,0.49682 -2.45721,1.20374c-1.48959,1.82715 -1.91603,2.603 -1.04445,4.69137c0,0 0.0007,0.00211 0.002,0.00622z" fill="#696969" stroke-width="0.5"></path>
      <path d="M252.10001,81.70001c0,0.20746 -0.01722,0.3977 -0.04879,0.57216c0.27041,0.2745 0.56529,0.39971 0.88146,0.21854c0.68288,-0.39131 0.85103,-1.34552 1.42936,-1.87935c0.9198,-0.84903 2.13066,-1.3504 3.02187,-2.22939c2.21656,-2.18616 3.90865,-5.68301 5.16284,-9.02909c-0.2785,0.10628 -0.57113,0.20373 -0.87936,0.29182c-1.72655,0.49344 -3.79187,1.48527 -5.35361,0.59904c-1.48401,-0.84213 -1.41103,-3.11488 -1.93911,-4.73741c-0.72183,-2.21786 -0.61526,-4.7625 0.05364,-6.99689c0,0 0.79055,-2.37171 3.16227,-1.58116c2.37171,0.79055 1.58116,3.16227 1.58116,3.16227c-0.51469,1.3032 -0.07648,2.80802 0.05364,4.20312c0.05253,0.56317 -0.75219,1.27622 -0.33913,1.66261c0.35251,0.32975 0.63541,-0.74788 1.04641,-1.001c2.72717,-1.67958 3.16479,-2.41839 4.9758,-5.08621l0.70163,-2.10493c0.31417,-1.02157 1.26534,-1.76413 2.38994,-1.76413c1.38071,0 2.5,1.11929 2.5,2.5c0,0.22871 -0.03071,0.45025 -0.08824,0.66072l-0.77263,3.09059c0.02569,2.83303 -1.54357,5.77522 -2.49168,8.30859c-1.42504,3.80775 -3.19326,8.28661 -6.13131,11.25815c-0.99487,1.00621 -2.28058,1.67755 -3.37815,2.5706c-3.54893,2.88761 -3.36934,4.72499 -8.67815,1.7549c-1.10242,-0.61676 -1.49332,-2.03786 -2.23999,-3.05679l2.88012,-3.88674c0,0 2.5,0 2.5,2.5z" fill="#696969" stroke-width="0.5"></path>
      <path d="M293.57176,84.09054c-0.79055,2.37171 -3.16227,1.58116 -3.16227,1.58116l-3.63757,-1.70992c-0.34403,-3.96148 -0.05314,-6.6688 0.33661,-10.46797c0.01093,-0.10651 0.02067,-0.21973 0.02969,-0.33872c-2.1077,3.0359 -4.22845,6.00983 -6.97045,8.71268c-0.94221,0.92876 -1.62592,2.26525 -2.8534,2.75885c-1.66901,0.67116 -4.15725,1.87723 -5.36886,0.54755c-1.44196,-1.58247 -0.1605,-4.28902 0.01541,-6.42268c0.0836,-1.01408 0.63036,-1.94748 0.75787,-2.95697c0.27132,-2.14792 -0.28389,-4.3505 0.01355,-6.49496c0.44078,-3.17791 0.98229,-6.47301 1.61624,-9.68984c0,0 0.49028,-2.45145 2.94174,-1.96117c2.45145,0.49028 1.96117,2.94174 1.96117,2.94174c-0.64373,3.16641 -1.12133,6.37855 -1.58371,9.51017c-0.30698,2.07914 0.27198,4.2193 0.01355,6.30503c-0.02978,0.24038 -0.07491,0.60505 -0.14837,1.03085c0.72438,-0.71766 1.30864,-1.29109 1.33372,-1.32129c2.95032,-3.55264 5.11395,-7.33492 7.88167,-11.04445l1.55002,-2.32506c0.44513,-0.68926 1.22011,-1.14553 2.10164,-1.14553c1.12458,0 2.07574,0.74254 2.38992,1.76408l0.78182,2.3453l-0.13082,0.04361c0.10315,0.24184 0.19089,0.49027 0.25913,0.747c0.26775,1.00742 -0.65253,1.98399 -0.87377,3.00264c-0.87373,4.0229 -0.71707,7.63718 -1.99815,11.53557l1.16248,-0.10994c0,0 2.37171,0.79055 1.58116,3.16227z" fill="#696969" stroke-width="0.5"></path>
      <path d="M291.36774,49.53219c1.7678,1.76773 0.00007,3.53553 0.00007,3.53553l-2.56779,1.53229c-1.82059,-0.1573 -3.87625,0.43662 -5.46178,-0.4719c-1.16248,-0.66611 -1.13995,-2.42502 -1.70992,-3.63754c0,0 -0.79056,-2.37171 1.58115,-3.16227c2.37171,-0.79056 3.16227,1.58115 3.16227,1.58115c-0.03665,0.38748 -0.48431,1.05599 -0.10994,1.16245c0.82775,0.2354 1.69215,-0.3146 2.53822,-0.4719l-0.96781,-0.06775c0,0 1.76773,-1.7678 3.53553,-0.00007z" fill="#696969" stroke-width="0.5"></path>
      <path d="M235.36777,138.33224c1.76777,1.76777 0,3.53553 0,3.53553l-0.06775,-0.96778c-0.02021,2.25392 0.4278,5.95968 -1.83821,7.62811c-1.14991,0.84667 -2.85597,0.1865 -4.26135,0.43962c-0.95842,0.17262 -1.82664,0.83227 -2.80048,0.83227c-1.88561,0 -3.71449,-0.82173 -5.59997,-0.79999c-8.7268,0 -18.03714,0.92684 -26.70548,-0.01873c-3.85116,-0.4201 -6.88588,-0.78126 -10.89449,-0.78126c-3.19234,0 -9.56531,0.96606 -12.1678,-1.53226c-1.10579,-1.06153 -1.02488,-2.89091 -1.45757,-4.36141c-1.1664,-3.96401 -0.96791,-6.85367 0,-10.81267c0,0 0.01735,-0.06939 0.05791,-0.18176c-0.0208,-0.06598 -0.04013,-0.13448 -0.05791,-0.20559c-0.60633,-2.42536 1.81903,-3.03169 1.81903,-3.03169c4.38148,-1.07119 6.87462,-0.45649 11.25263,-0.06247c4.21564,0.3794 8.54507,-0.41891 12.75991,-0.00365c7.50133,0.73906 15.1372,1.36358 22.59422,2.42376c5.26304,0.74825 11.10951,2.7522 16.40902,0.89602l3.29055,3.97169c0,0 0,2.5 -2.5,2.5c-0.25331,0 -0.48096,-0.02567 -0.68554,-0.0718c0.27938,0.12332 0.56632,0.31711 0.85327,0.60405zM174.42539,132.70634c-0.89034,3.46899 -0.6191,4.93894 0,8.38734c0.12037,0.67045 -0.30896,1.52838 0.1424,2.03855c1.02325,1.15657 3.08801,0.07197 4.63225,0.06778c2.93332,-0.00797 5.86667,-0.00662 8.79999,0c2.25173,0.00508 4.468,0.56518 6.70542,0.81872c8.43895,0.95627 17.59095,-0.01873 26.09457,-0.01873c1.20016,0.01076 2.41233,-0.13745 3.60047,0.03228c0.70677,0.10097 1.28557,0.76771 1.99952,0.76771c0.71396,0 1.28784,-0.71128 1.99957,-0.76771c0.72552,-0.05752 1.42143,0.56309 2.13868,0.43962c0.26258,-0.0452 -0.18822,-0.50649 -0.20595,-0.77234c-0.06211,-0.93118 -0.02152,-1.86637 -0.03228,-2.79956l1.53222,-2.56775c0,0 1.00404,-1.00404 2.25544,-0.74207c-0.45491,-0.19725 -0.76068,-0.51131 -0.96622,-0.84438c-5.34134,0.82298 -10.61215,-0.61561 -15.92192,-1.37808c-9.80977,-1.40866 -19.85718,-2.35543 -29.79955,-2.36771c-4.52938,-0.0056 -8.6195,-1.05004 -12.94654,-0.4394c-0.01478,0.09257 -0.02807,0.14574 -0.02807,0.14574z" fill="#696969" stroke-width="0.5"></path>
      <path d="M261.70004,135.29999c0,2.5 -2.5,2.5 -2.5,2.5h-3.20001c0,0 -2.5,0 -2.5,-2.5c0,-2.5 2.5,-2.5 2.5,-2.5h3.20001c0,0 2.5,0 2.5,2.5z" fill="#696969" stroke-width="0.5"></path>
      <path d="M284.80002,149c-2.5,0 -2.5,-2.5 -2.5,-2.5v-3.20001c0,0 0,-2.21775 2.08881,-2.47563l-2.15658,-2.15661c0,0 -0.04591,-0.04591 -0.11554,-0.13034c-0.30274,0.0626 -0.51671,0.0626 -0.51671,0.0626l-2.20633,-0.07465c-1.06667,-0.26667 -2.13334,-0.53335 -3.20001,-0.80002c0,0 -1.78179,-0.44546 -1.90915,-2.09996c-0.60658,1.37462 -2.28449,1.37462 -2.28449,1.37462c-1.06665,0 -3.73334,0 -4.79999,0c0,0 -2.5,0 -2.5,-2.5c0,-2.5 2.5,-2.5 2.5,-2.5c1.06665,0 2.1333,0 3.19995,0h1.60004c0,0 2.37073,0 2.49494,2.30862c0.75404,-1.97333 2.9114,-1.43399 2.9114,-1.43399c1.06667,0.26667 2.13334,0.53335 3.20001,0.80002l0.99363,-0.07465c0,0 1.16218,0 1.90176,0.7924c1.25633,-0.26989 2.26604,0.73984 2.26604,0.73984l2.39996,2.39999c0,0 1.76776,1.76778 -0.00002,3.53553c-0.44719,0.44718 -0.89437,0.66812 -1.31294,0.74866c0.44521,0.69224 0.44521,1.48356 0.44521,1.48356v3.20001c0,0 0,2.5 -2.5,2.5z" fill="#696969" stroke-width="0.5"></path>
      <path d="M272.70004,148.89999c0,-2.5 2.5,-2.5 2.5,-2.5c1.06667,0 2.93333,0 4,0c0,0 2.5,0 2.5,2.5c0,2.5 -2.5,2.5 -2.5,2.5c-1.06667,0 -2.13334,0 -3.20001,0h-0.79999c0,0 -2.5,0 -2.5,-2.5z" fill="#696969" stroke-width="0.5"></path>
      <path d="M253.43231,149.86781c-1.7678,-1.76773 -0.00007,-3.53553 -0.00007,-3.53553l2.56779,-1.53229c1.33333,0 2.66667,0 4,0c0,0 1.70247,0 2.29759,1.40492c0.73168,-0.6049 1.70241,-0.6049 1.70241,-0.6049c1.06667,0 3.73332,0 4.79999,0c0,0 2.5,0 2.5,2.5c0,2.5 -2.5,2.5 -2.5,2.5c-1.06667,0 -2.13334,0 -3.20001,0h-1.59998c0,0 -1.70247,0 -2.29759,-1.40492c-0.73168,0.6049 -1.70241,0.6049 -1.70241,0.6049c-1.33333,0 -2.66667,0 -4,0l0.96781,0.06775c0,0 -1.76773,1.7678 -3.53553,0.00007z" fill="#696969" stroke-width="0.5"></path>
      <path d="M247.89999,146.5c0,-1.38071 1.11929,-2.5 2.5,-2.5c1.38071,0 2.5,1.11929 2.5,2.5c0,1.38071 -1.11929,2.5 -2.5,2.5c-1.38071,0 -2.5,-1.11929 -2.5,-2.5z" fill="#696969" stroke-width="0.5"></path>
      <path d="M242.39999,136.79999c0.13307,0 0.25905,0.00708 0.37833,0.02049c-0.1352,-0.20157 -0.25422,-0.44254 -0.35002,-0.72994c-0.79055,-2.37171 1.58116,-3.16227 1.58116,-3.16227c1.06353,-0.30942 2.12706,-0.61885 3.19059,-0.92827l3.19052,0.92828c0,0 2.37171,0.79057 1.58114,3.16228c-0.79057,2.37171 -3.16228,1.58114 -3.16228,1.58114l-1.6094,-0.6717c-0.53649,0.2239 -1.07298,0.4478 -1.60946,0.6717c0,0 -0.52092,0.17363 -1.15587,0.11402c0.46529,0.69931 0.46529,1.51426 0.46529,1.51426c0,1.06666 0,2.93334 0,4c0,0 0,0.30402 -0.10602,0.70002c0.00201,0 0.00403,-0.00001 0.00604,-0.00001c1.38071,0 2.5,1.11929 2.5,2.5c0,1.38071 -1.11929,2.5 -2.5,2.5c-1.38071,0 -2.5,-1.11929 -2.5,-2.5c0,-0.24299 0.03467,-0.47789 0.09933,-0.70001c-2.49935,-0.00043 -2.49935,-2.5 -2.49935,-2.5c0,-1.06666 0,-2.13332 0,-3.19998v-0.80002c0,0 0,-2.5 2.5,-2.5z" fill="#696969" stroke-width="0.5"></path>
      <path d="M297.32765,138.2087c-0.02922,0.05065 -0.0475,0.07807 -0.0475,0.07807c-1.93843,2.85367 -1.6549,3.25616 -1.98013,6.61323c-0.05789,0.59758 -0.68243,1.17597 -0.4719,1.73823c0.12622,0.33708 0.71492,-0.19183 1.0709,-0.13853c2.8617,0.42846 5.67941,1.12943 8.50146,1.53259c4.21488,0.60213 8.58339,0.21512 12.8,0.79999c5.98334,0.82992 11.86095,1.56772 17.99956,1.56772c3.97395,0 8.47376,0.5931 12.39953,0.03228c0.96403,-0.13772 1.82659,-0.83227 2.80041,-0.83227c0.97384,0 1.83642,0.69455 2.80048,0.83227c3.12766,0.4468 6.45875,-0.44868 9.59999,0c1.8905,0.27003 3.60959,1.35363 5.50503,1.58645c2.62418,0.32234 6.2674,0.332 8.89408,0.01355c3.55454,-0.43095 4.17775,-2.60593 4.30047,-5.53228c0.02852,-0.68003 0.46673,-1.36153 0.29582,-2.02035c-0.33148,-1.2778 -2.63006,-0.33322 -3.9495,-0.2918c-4.10912,0.82181 -8.43825,1.26879 -12.6468,0.77987c-1.67528,-0.19462 -3.12966,-1.36672 -4.79999,-1.60001c-2.08148,-0.29071 -4.22014,0.27873 -6.30502,0.01355c-0.96094,-0.12223 -1.82988,-0.78042 -2.79856,-0.7831c-2.04826,-0.00567 -4.06576,1.03747 -6.09642,0.76955c-1.67206,-0.22061 -3.12861,-1.37439 -4.79999,-1.60001c-3.1542,-0.42578 -6.4482,-0.33672 -9.59996,-0.79999c-6.06617,-0.89164 -11.32964,-3.97421 -17.60005,-4c-5.11154,-1.70385 -10.61373,-0.96106 -15.60898,0.70398l0.17726,0.19604c0,0 -0.16326,0.16327 -0.44018,0.34096zM293.90518,134.751c0.1722,-0.26387 0.32705,-0.41872 0.32705,-0.41872l1.77724,-1.404c5.66636,-1.88874 12.18948,-2.82983 17.99099,-0.89599c6.29042,-0.02745 11.54524,3.16382 17.60003,4c3.14924,0.43491 6.45296,0.32959 9.59999,0.79999c1.66801,0.24933 3.13454,1.33408 4.79998,1.60001c1.70203,0.27176 3.38006,-0.82672 5.10365,-0.83043c1.23094,-0.00264 2.37959,0.66676 3.60134,0.81688c2.14885,0.26403 4.3525,-0.29768 6.49503,0.01355c1.66903,0.24245 3.12263,1.42422 4.79998,1.60001c3.79814,0.39804 7.65446,-0.08037 11.3532,-0.8201c3.39583,0.06497 6.68671,-0.8192 8.85054,2.90815c0.73462,1.26544 0.26261,2.91683 0.29582,4.37967c0.12369,5.44775 -2.82883,9.57526 -8.49958,10.46772c-2.87748,0.45286 -7.4108,0.38046 -10.30587,0.01355c-1.95741,-0.24807 -3.74181,-1.33445 -5.69504,-1.61356c-3.12761,-0.44691 -6.45876,0.44874 -9.59996,0c-0.70678,-0.10097 -1.28561,-0.76771 -1.99957,-0.76771c-0.71394,0 -1.29275,0.66674 -1.99952,0.76771c-4.20345,0.60049 -8.94993,0.03228 -13.20044,0.03228c-11.39996,0 -22.79836,-1.63195 -34.00048,-3.23226c-2.70489,-0.38641 -8.57203,0.22108 -10.42764,-2.60594c-0.85705,-1.30572 -0.38891,-3.10213 -0.4719,-4.6618c-0.21116,-3.96845 0.6917,-6.14645 2.81991,-9.38677c0,0 0.28307,-0.42459 0.78525,-0.76222z" fill="#696969" stroke-width="0.5"></path>
      <path d="M188.10001,155.29999c0,2.5 -2.5,2.5 -2.5,2.5l-3.60047,-0.03228c-2.96597,-0.95339 -5.27114,-1.58794 -8.39953,-1.56769c0,0 -2.5,0 -2.5,-2.5c0,-2.5 2.5,-2.5 2.5,-2.5c3.37322,0.01802 6.02423,0.52502 9.20044,1.63226l2.79956,-0.03228c0,0 2.5,0 2.5,2.5z" fill="#696969" stroke-width="0.5"></path>
      <path d="M188.70004,155.29999c0,-1.38071 1.11929,-2.5 2.5,-2.5c1.38071,0 2.5,1.11929 2.5,2.5c0,1.38071 -1.11929,2.5 -2.5,2.5c-1.38071,0 -2.5,-1.11929 -2.5,-2.5z" fill="#696969" stroke-width="0.5"></path>
      <path d="M208.89999,156.10001c0,2.5 -2.5,2.5 -2.5,2.5c-1.06667,0 -4.5333,0 -5.59998,0c0,0 -2.5,0 -2.5,-2.5c0,-2.5 2.5,-2.5 2.5,-2.5c1.06667,0 2.13334,0 3.20001,0h2.39996c0,0 2.5,0 2.5,2.5z" fill="#696969" stroke-width="0.5"></path>
      <path d="M232.63606,153.38197c1.11803,2.23607 -1.11803,3.3541 -1.11803,3.3541l-2.71801,1.06392c-1.06667,0 -2.13334,0 -3.20001,0c0,0 -2.30508,0 -2.48845,-2.2134c-0.46929,0.93457 -1.52099,1.28513 -1.52099,1.28513l-2.79013,0.89599c-1.20013,0.01076 -2.40026,0.02152 -3.6004,0.03228c0,0 -2.5,0 -2.5,-2.5c0,-2.5 2.5,-2.5 2.5,-2.5c0.93317,0.01076 1.86634,0.02152 2.7995,0.03228l2.00992,-0.70398c0,0 2.37171,-0.79055 3.16227,1.58116c0.05905,0.17716 0.10046,0.34549 0.12653,0.50534c0.5913,-1.4148 2.30175,-1.4148 2.30175,-1.4148c1.06667,0 2.13334,0 3.20001,0l0.48194,-0.53606c0,0 2.23607,-1.11803 3.3541,1.11803z" fill="#696969" stroke-width="0.5"></path>
      <path d="M253.60001,165c-2.5,0 -2.5,-2.5 -2.5,-2.5l0.41987,-1.01326c-0.46672,-0.70008 -0.93343,-1.40016 -1.40015,-2.10025c-0.86446,0.13621 -1.63775,-0.25044 -1.63775,-0.25044l-0.48194,-0.53606c-1.06667,0 -2.13334,0 -3.20001,0c0,0 -2.5,0 -2.5,-2.5c0,-0.25323 0.02565,-0.48081 0.07175,-0.68533c-0.12332,0.27933 -0.31709,0.56621 -0.60397,0.85309c-1.29709,1.29709 -2.59418,0.69071 -3.19294,0.27586c-0.3281,0.10936 -0.65619,0.21873 -0.98429,0.32809c0,0 -2.37171,0.79055 -3.16227,-1.58116c-0.79055,-2.37171 1.58116,-3.16227 1.58116,-3.16227c0.80001,-0.26666 1.60002,-0.53333 2.40002,-0.79999l3.35831,1.40394c0,0 1.00394,1.00394 0.74211,2.25524c0.60176,-1.38747 2.29011,-1.38747 2.29011,-1.38747c1.06667,0 2.13334,0 3.20001,0l2.71801,1.06392c0,0 0.37266,0.18633 0.73764,0.55899c1.60369,-0.44084 2.62448,1.09036 2.62448,1.09036c0.53333,0.8 1.06665,1.6 1.59998,2.39999l0.41987,3.78673c0,0 0,2.5 -2.5,2.5z" fill="#696969" stroke-width="0.5"></path>
      <path d="M238.30002,168.89999c0,-2.5 2.5,-2.5 2.5,-2.5l1.79369,0.07464c1.06665,-0.26666 2.1333,-0.53333 3.19995,-0.79999c0,0 2.319,-0.57975 2.98873,1.66212c0.2562,-0.08862 0.53129,-0.13676 0.81762,-0.13676c1.38071,0 2.5,1.11929 2.5,2.5c0,1.38071 -1.11929,2.5 -2.5,2.5c-1.11685,0 -2.06264,-0.73236 -2.38335,-1.74304c-0.12906,0.04807 -0.21032,0.06839 -0.21032,0.06839c-1.06665,0.26666 -2.1333,0.53333 -3.19995,0.79999l-3.00636,0.07464c0,0 -2.5,0 -2.5,-2.5z" fill="#696969" stroke-width="0.5"></path>
      <path d="M225.50003,168.10001c0,-2.5 2.5,-2.5 2.5,-2.5c1.06667,0 4.5333,0 5.59998,0c0,0 2.5,0 2.5,2.5c0,2.5 -2.5,2.5 -2.5,2.5c-1.06667,0 -2.13334,0 -3.20001,0h-2.39996c0,0 -2.5,0 -2.5,-2.5z" fill="#696969" stroke-width="0.5"></path>
      <path d="M216.70004,167.29999c0,-2.5 2.5,-2.5 2.5,-2.5l1.59058,0.1283c0.79999,0.26667 1.59998,0.53335 2.39996,0.80002c0,0 2.3717,0.7906 1.5811,3.1623c-0.7906,2.3717 -3.1623,1.5811 -3.1623,1.5811c-0.79999,-0.26667 -1.59998,-0.53335 -2.39996,-0.80002l-0.00939,0.1283c0,0 -2.5,0 -2.5,-2.5z" fill="#696969" stroke-width="0.5"></path>
      <path d="M204.70004,168.10001c0,-2.5 2.5,-2.5 2.5,-2.5h4c0,0 2.5,0 2.5,2.5c0,2.5 -2.5,2.5 -2.5,2.5h-4c0,0 -2.5,0 -2.5,-2.5z" fill="#696969" stroke-width="0.5"></path>
      <path d="M193.50003,166.5c0,-2.5 2.5,-2.5 2.5,-2.5l1.59054,0.12829c0.80001,0.26666 1.60002,0.53333 2.40002,0.79999c0,0 2.37171,0.79055 1.58116,3.16227c-0.79055,2.37171 -3.16227,1.58116 -3.16227,1.58116c-0.80001,-0.26666 -1.60002,-0.53333 -2.40002,-0.79999l-0.00944,0.12829c0,0 -2.5,0 -2.5,-2.5z" fill="#696969" stroke-width="0.5"></path>
      <path d="M187.10001,167.29999c0,-1.38071 1.11929,-2.5 2.5,-2.5c1.38071,0 2.5,1.11929 2.5,2.5c0,1.38071 -1.11929,2.5 -2.5,2.5c-1.38071,0 -2.5,-1.11929 -2.5,-2.5z" fill="#696969" stroke-width="0.5"></path>
      <path d="M176.70004,168.10001c0,-1.38071 1.11929,-2.5 2.5,-2.5c1.38071,0 2.5,1.11929 2.5,2.5c0,1.38071 -1.11929,2.5 -2.5,2.5c-1.38071,0 -2.5,-1.11929 -2.5,-2.5z" fill="#696969" stroke-width="0.5"></path>
      <path d="M170.98674,154.81986c2.08013,1.38674 0.6934,3.46687 0.6934,3.46687l-1.43431,2.11162c-0.22469,0.6974 -0.44938,1.39481 -0.67407,2.09221c0,0 -0.1187,0.35611 -0.40209,0.74635c0.13981,-0.02426 0.2836,-0.0369 0.43034,-0.0369c1.38071,0 2.5,1.11929 2.5,2.5c0,0.14582 -0.01248,0.28873 -0.03644,0.42771c0.42389,-0.33069 0.95716,-0.52772 1.53644,-0.52772c1.38071,0 2.5,1.11929 2.5,2.5c0,1.38071 -1.11929,2.5 -2.5,2.5c-1.38071,0 -2.5,-1.11929 -2.5,-2.5c0,-0.14582 0.01248,-0.28873 0.03644,-0.42771c-0.42389,0.33069 -0.95716,0.52772 -1.53644,0.52772c-1.38071,0 -2.5,-1.11929 -2.5,-2.5c0,-0.55433 0.18041,-1.06652 0.48573,-1.48106c-0.3396,0.03832 -0.72992,0.00154 -1.17624,-0.14723c-2.37171,-0.79055 -1.58116,-3.16227 -1.58116,-3.16227c0.30864,-0.90261 0.61727,-1.80522 0.92591,-2.70784l1.76564,-2.68837c0,0 1.38674,-2.08013 3.46687,-0.6934z" fill="#696969" stroke-width="0.5"></path>
      <path d="M235.95466,179.39999c-0.84481,1.73432 -1.22734,2.54158 -2.6745,4.48676c-0.35896,0.48248 -0.99908,0.7791 -1.20228,1.34509c-0.40918,1.13973 2.59769,2.70836 3.52261,2.80043c5.49844,0.54735 11.21265,-0.68415 16.70499,-0.01355c2.9978,0.36602 5.78231,1.27298 8.89408,0.81354c0.83424,-0.12317 1.56325,-0.69541 2.40002,-0.79999c1.45263,-0.18155 5.37715,1.04002 6.41368,0.15024c0.56752,-2.28777 0.98952,-2.66421 0.41504,-4.89196c-0.10978,-0.42573 0.30051,-1.10101 -0.08279,-1.31637c-0.75515,-0.42428 -1.7261,-0.15872 -2.59184,-0.18637c-3.81196,-0.12177 -7.10579,0.85358 -10.95366,0.81219c-1.30857,-0.01408 -2.66106,0.23379 -3.92448,-0.10727c-0.92824,-0.25058 -1.48062,-1.31853 -2.39996,-1.60001c-1.93675,-0.59297 -4.07086,0.36139 -6.076,0.07499c-3.04549,-0.43499 -5.20466,-1.5884 -8.39954,-1.56773zM232.00057,176.09924c0.19041,-0.69316 0.62474,-1.10357 1.07231,-1.34656c0.4216,-0.29452 0.98987,-0.50061 1.7048,-0.35269l1.22236,0c3.41784,0.01826 5.96478,1.16996 9.20043,1.63229c2.48643,0.35527 4.14069,-0.62238 6.72405,0.07499c0.92824,0.25058 1.48062,1.31853 2.39996,1.60001c1.96679,0.60217 4.12625,0.14306 6.17008,-0.08854c4.16509,-0.47199 9.18163,-2.20623 13.15999,0.60708c1.03412,0.73128 1.08144,2.29438 1.51718,3.48362c1.40398,3.83175 0.19567,5.86474 -1.18494,9.50806c-1.35166,0.85346 -2.50181,2.18215 -4.05497,2.56037c-1.81054,0.4409 -3.69326,-1.11655 -5.53135,-0.81015c-4.62642,0.7712 -8.04428,0.61112 -12.7059,0.01355c-4.24995,-0.5448 -9.0103,0.03693 -13.29458,0.01873c-4.17157,-0.01772 -7.68668,-0.327 -10.12663,-4.38569c-0.05605,-0.09324 -0.1092,-0.18616 -0.15953,-0.27879c-0.91523,1.87795 -2.20538,3.4604 -3.68204,4.33998c-4.11389,2.45043 -11.04981,1.12449 -15.63177,1.12449c-1.99988,0 -4.02038,-0.3193 -5.99955,-0.03228c-0.93328,0.13534 -1.76145,0.82843 -2.70448,0.83046c-2.0506,0.00441 -4.06899,-1.14384 -6.0955,-0.83046c-0.96239,0.14883 -1.82661,0.82626 -2.80042,0.8323c-0.84327,0.00523 -1.55677,-0.79383 -2.40003,-0.80002c-0.71394,-0.00524 -1.29278,0.66676 -1.99956,0.76774c-0.29291,0.04185 -6.28775,0.03228 -6.80042,0.03228c-6.28731,-0.0336 -16.7348,-0.12318 -16.90002,-8.89999c-0.00907,-0.48175 1.471,-4.81866 1.72834,-5.59064l1.24667,-1.57809c-0.47134,-0.49678 -0.82926,-1.27422 -0.44669,-2.42189c0.7906,-2.3717 3.1623,-1.5811 3.1623,-1.5811c1.4096,0.46989 2.71914,1.49333 4.20494,1.47936c2.39543,-0.02251 4.60903,-1.62877 7.00448,-1.60767c1.81679,0.01601 3.40103,1.38098 5.20042,1.63229c2.57832,0.36009 6.31084,0.30385 8.89408,-0.01355c1.22177,-0.15012 2.37045,-0.81297 3.6014,-0.81688c0.8128,-0.00258 1.4917,0.7719 2.30408,0.79815c1.55603,0.05028 2.85981,-1.33757 4.39954,-1.56772c1.08628,-0.16237 2.20455,0.11776 3.29502,-0.01355c1.22214,-0.14716 2.37054,-0.83197 3.60141,-0.81688c3.01593,0.03698 5.89823,1.61726 9.1045,1.63045c0.66651,0.2559 1.28571,0.75359 1.99952,0.76771c1.09293,0.02161 2.2261,-1.13817 3.21137,-0.66467c2.13116,1.0242 3.29611,2.84582 3.73261,4.95075c0.8942,-1.40707 1.91504,-2.79022 2.65658,-4.18684zM170.52676,180.37184c-0.13749,0.87446 -0.75896,1.49594 -0.75896,1.49594l-0.19606,-0.17716c-0.45023,1.35059 -1.41021,2.58707 -1.47173,4.0094c-0.15878,3.67075 3.70841,2.85713 5.80546,3.11871c2.03239,0.25351 4.04646,0.79454 6.09456,0.78129c1.99986,0 4.01974,0.31511 5.9995,0.03228c0.96406,-0.13773 1.82665,-0.82626 2.80048,-0.8323c0.84326,-0.00523 1.55676,0.79383 2.40001,0.80002c0.71392,0.00524 1.29173,-0.6741 1.9995,-0.76773c1.29074,-0.17076 2.61245,-0.16202 3.90595,-0.01355c0.96238,0.11047 1.8299,0.78045 2.7986,0.78313c0.74409,0.00206 1.35861,-0.66585 2.09544,-0.76958c5.77842,-0.81347 11.88346,0.44945 17.69505,-0.01355c3.43629,-0.27377 3.46938,-1.75562 4.30512,-4.61771c0.28091,-0.96202 0.43552,-2.04062 0.15451,-3.00261c-0.10709,-0.36659 0.21394,-1.09079 -0.16555,-1.13371c-0.61063,-0.06906 -0.97433,0.92089 -1.58868,0.93531c-0.97355,0.02286 -1.86694,-0.55485 -2.80041,-0.83227c-2.25147,0.00982 -4.53829,-0.233 -6.69854,-0.86744c-0.61702,-0.18121 -1.15396,-0.71346 -1.79694,-0.70213c-0.96855,0.01707 -1.83804,0.65789 -2.79861,0.7831c-1.02633,0.13378 -2.0793,-0.15201 -3.105,-0.01355c-1.80053,0.24305 -3.38402,1.5919 -5.20044,1.63229c-0.87365,0.01943 -1.62211,-0.79874 -2.49597,-0.80183c-0.9687,-0.00343 -1.83766,0.66087 -2.79862,0.7831c-2.93114,0.37282 -7.38658,0.4105 -10.30587,-0.01355c-1.54067,-0.22379 -2.84291,-1.59266 -4.39955,-1.56773c-2.52135,0.04039 -4.87392,1.60836 -7.39555,1.59235c-0.12959,-0.00082 -1.03818,-0.28337 -2.07771,-0.6205z" fill="#696969" stroke-width="0.5"></path>
      <path d="M286.37174,179.30945c0.79055,2.37171 -1.58116,3.16227 -1.58116,3.16227l-2.40002,0.79999c0,0 -2.37171,0.79055 -3.16227,-1.58116c-0.79055,-2.37171 1.58116,-3.16227 1.58116,-3.16227l2.40002,-0.79999c0,0 2.37171,-0.79055 3.16227,1.58116z" fill="#696969" stroke-width="0.5"></path>
      <path d="M300.89999,180.10001c0,2.5 -2.5,2.5 -2.5,2.5l-1.79364,-0.07464c-1.06667,0.26666 -2.13334,0.53333 -3.20001,0.79999c0,0 -2.42536,0.60633 -3.03169,-1.81903c-0.60633,-2.42536 1.81903,-3.03169 1.81903,-3.03169c1.06667,-0.26666 2.13334,-0.53333 3.20001,-0.79999l3.00629,-0.07464c0,0 2.5,0 2.5,2.5z" fill="#696969" stroke-width="0.5"></path>
      <path d="M315.30002,178.5c0,2.5 -2.5,2.5 -2.5,2.5l-0.99365,-0.07464c-1.06667,0.26666 -2.13334,0.53333 -3.20001,0.79999c0,0 -2.42536,0.60633 -3.03169,-1.81903c-0.60633,-2.42536 1.81903,-3.03169 1.81903,-3.03169c1.06667,-0.26666 2.13334,-0.53333 3.20001,-0.79999l2.2063,-0.07464c0,0 2.5,0 2.5,2.5z" fill="#696969" stroke-width="0.5"></path>
      <path d="M326.23612,180.41799c-1.118,2.23609 -3.35408,1.11809 -3.35408,1.11809l0.30853,-0.66436c-0.79999,0.26666 -1.59998,0.53333 -2.39996,0.79999c0,0 -2.37171,0.79057 -3.16228,-1.58114c-0.79057,-2.37171 1.58114,-3.16228 1.58114,-3.16228c0.79999,-0.26666 1.59998,-0.53333 2.39996,-0.79999l3.50861,0.93561c0,0 2.23609,1.118 1.11809,3.35408z" fill="#696969" stroke-width="0.5"></path>
      <path d="M265.62998,203.31529c-0.61624,-0.16076 -1.25822,-0.59427 -1.6017,-1.62475c-0.79055,-2.37171 1.58116,-3.16227 1.58116,-3.16227c3.48823,-1.12017 6.5603,-0.45768 10.08512,-0.90954c1.09058,-0.13981 2.10862,-0.66676 3.20001,-0.80002c0.73773,-0.09008 1.4818,-0.12391 2.22948,-0.12533c-0.26776,-0.39814 -0.42402,-0.87753 -0.42402,-1.39341c0,-0.57565 0.19456,-1.10586 0.52151,-1.52846c-0.00719,-0.00109 -0.01437,-0.00221 -0.02154,-0.00337c-0.13024,0.02094 -0.26385,0.03183 -0.39999,0.03183c-1.38071,0 -2.5,-1.11929 -2.5,-2.5c0,-1.32415 1.02946,-2.40785 2.33168,-2.49442c-0.89984,-0.37838 -1.53169,-1.26818 -1.53169,-2.30556c0,-1.38071 1.11929,-2.5 2.5,-2.5c1.38071,0 2.5,1.11929 2.5,2.5c0,1.13687 -0.75885,2.0965 -1.79766,2.39999c1.03881,0.3035 1.79766,1.26312 1.79766,2.39999c0,0.29739 -0.05193,0.58266 -0.14721,0.84722c0.26456,-0.09528 0.54983,-0.14721 0.84722,-0.14721c1.38071,0 2.5,1.11929 2.5,2.5c0,1.11364 -0.72815,2.0572 -1.73432,2.38057c1.25222,0.05649 2.49941,0.07265 3.72886,-0.06185c1.22366,-0.13386 2.37045,-0.81297 3.6014,-0.81688c0.50686,-0.00161 0.96149,0.30929 1.42903,0.54349c0.17223,-1.21274 1.21472,-2.14534 2.47504,-2.14534c1.23601,0 2.26252,0.89698 2.46411,2.0755c0.37156,0.15466 0.74562,0.30096 1.13635,0.35677c0.13913,0.01988 0.28132,0.03839 0.42623,0.05558c-0.08218,-0.24769 -0.12667,-0.51257 -0.12667,-0.78784c0,-1.38071 1.11929,-2.5 2.5,-2.5c1.12048,0 2.06879,0.73712 2.38646,1.7529c0.44042,-1.7529 2.41353,-1.7529 2.41353,-1.7529c1.06665,0 5.33331,0 6.39996,0c0,0 2.5,0 2.5,2.5c0,0.29428 -0.03464,0.55392 -0.09576,0.78299c0.27969,0.02966 0.56012,0.04844 0.84113,0.05897c-0.09408,-0.26308 -0.14532,-0.54654 -0.14532,-0.84197c0,-1.38071 1.11929,-2.5 2.5,-2.5c0.99969,0 1.86233,0.58677 2.26231,1.43468c0.73533,-0.6347 1.73769,-0.6347 1.73769,-0.6347l2.20633,0.07465c0.72233,0.25402 1.40731,0.85783 2.16699,0.76205c0.62347,-0.07861 0.95997,-0.81121 1.43995,-1.21681c0,0 2.08013,-1.38674 3.46687,0.69339c0.49163,0.73745 0.54753,1.38776 0.41485,1.92001c0.22612,0.01541 0.45114,0.03332 0.67493,0.054c-0.5889,-2.40945 1.82372,-3.01262 1.82372,-3.01262l3.5009,-0.85593c1.16849,-0.00624 2.33698,-0.01249 3.50548,-0.01873c0,0 1.39553,0 2.10129,1.04265c0.57068,-0.24263 1.09866,-0.24263 1.09866,-0.24263l2.47556,0.10727c0.57925,-0.42913 1.15849,-0.85827 1.73774,-1.2874c0,0 1.59335,-1.06222 2.92069,0.06716c0.19684,-1.1842 1.22601,-2.08704 2.46605,-2.08704c1.38071,0 2.5,1.11929 2.5,2.5c0,1.38071 -1.11929,2.5 -2.5,2.5c-0.55351,0 -1.06501,-0.17988 -1.47922,-0.48438c-0.19694,1.03979 -1.13403,1.66451 -1.13403,1.66451c-0.97132,0.60665 -1.94264,1.2133 -2.91397,1.81996c2.90516,0.00733 6.2626,0.44753 9.12677,0.03219c0.78844,-0.11433 1.50186,-0.62672 2.2729,-0.78422c-0.32194,-0.33261 -0.61594,-0.71937 -0.87662,-1.16843c-0.7346,-1.26543 -0.23875,-2.91753 -0.29581,-4.37962c-0.00869,-0.2226 -0.01136,-1.01436 -0.0075,-1.99421c-0.41654,0.31045 -0.93306,0.49421 -1.4925,0.49421c-1.38071,0 -2.5,-1.11929 -2.5,-2.5c0,-0.64377 0.24333,-1.23071 0.64304,-1.67386c-0.95683,-0.46166 -1.3148,-1.53558 -1.3148,-1.53558l-0.79999,-2.39999c0,0 -0.03844,-0.11531 -0.07293,-0.30356c-0.51532,-0.17177 -1.03063,-0.34355 -1.54595,-0.51532c0,0 -0.15938,-0.05313 -0.38174,-0.17316c-0.61746,0.30145 -1.22764,0.30145 -1.22764,0.30145l-0.00941,-0.12829c-0.80001,0.26667 -1.60002,0.53335 -2.40002,0.80002c0,0 -2.37171,0.79058 -3.16228,-1.58113c-0.79058,-2.37171 1.58113,-3.16228 1.58113,-3.16228c0.65202,-0.21734 1.30404,-0.43468 1.95606,-0.65203c-0.25511,-0.03919 -0.51039,-0.07585 -0.76594,-0.10855c-4.62134,-0.59135 -9.43602,0.23108 -14.14751,0.25755c0.55087,0.34225 1.04796,0.95994 1.04796,2.07472c0,0.218 -0.01901,0.41699 -0.05371,0.59863c0.4681,-1.10417 1.74737,-1.42399 1.74737,-1.42399l3.20001,-0.79999c0,0 2.42536,-0.60633 3.03169,1.81903c0.60633,2.42536 -1.81903,3.03169 -1.81903,3.03169l-3.20001,0.79999c0,0 -2.42536,0.60633 -3.03169,-1.81903c-0.1094,-0.43761 -0.1201,-0.81601 -0.06416,-1.14231c-0.583,1.43597 -2.31047,1.43597 -2.31047,1.43597l-0.8094,-0.12829c-0.80001,0.26667 -1.60002,0.53335 -2.40002,0.80002c0,0 -2.37171,0.79058 -3.16228,-1.58113c-0.79058,-2.37171 1.58113,-3.16228 1.58113,-3.16228c0.73211,-0.24404 1.46422,-0.48808 2.19632,-0.73212c-0.06876,-0.00917 -0.13748,-0.01865 -0.20616,-0.02846c-1.89051,-0.27002 -3.60898,-1.3588 -5.50505,-1.58646c-2.99063,-0.35908 -5.92314,-0.369 -8.89498,-0.81354c-3.48303,-0.521 -6.79112,-2.5256 -8.05928,-5.6741c-0.22924,1.53189 -0.7911,2.97025 -1.70594,4.10499c-1.8015,2.23452 -7.38988,2.37947 -9.83431,2.40139c-1.20016,-0.01076 -2.41233,0.13745 -3.60047,-0.03228c-0.70677,-0.10097 -1.28557,-0.76771 -1.99952,-0.76771c-0.71396,0 -1.29278,0.66674 -1.99957,0.76771c-6.40221,0.91458 -13.62122,0.01919 -19.90591,-0.78644c-3.29867,-0.42285 -6.05746,0.39898 -9.2851,-0.90958c-1.24164,-0.50339 -2.91138,-0.58398 -3.63756,-1.70991c-0.84654,-1.31256 -0.38891,-3.10213 -0.4719,-4.6618c-0.2865,-5.3846 1.3794,-9.22769 6.5095,-11.1717c0,0 1.68651,-0.56216 2.68924,0.6838c4.95602,0.10818 9.61158,0.92159 14.50179,1.62019c1.86665,0.26666 3.73457,0.52459 5.59995,0.80001c0.7063,0.10428 1.28561,0.76771 1.99957,0.76771c0.71394,0 1.29109,-0.67915 1.99952,-0.76771c2.38147,-0.29768 4.82575,0.35057 7.20001,0c2.23044,-0.32933 4.5771,-1.4108 6.72489,-0.72503c2.48082,0.7921 4.14514,3.01084 4.88972,5.5912c0.66563,-2.8079 2.89848,-3.8341 4.99905,-5.27858c0,0 1.28611,-0.85742 2.50997,-0.21258c0.71301,-1.0073 2.07682,-1.0073 2.07682,-1.0073h0.79999c7.54829,0 15.41982,0.59734 22.70548,2.41872c3.58213,0 7.04691,1.23005 10.58911,0.79999c5.4569,-0.66253 10.74525,-0.83259 16.30545,-0.81872c2.957,0.00738 4.54852,-0.24841 7.41134,1.0137c4.14686,1.8282 8.36447,8.38089 5.99285,13.06594c-0.66308,1.30989 -2.21307,1.9703 -3.50584,2.66615c-2.05688,1.10715 -4.68532,0.52035 -7.0038,0.23547c-4.36141,-0.53588 -9.6306,-0.40075 -14.05157,0.49784c0.24919,0.08307 0.49839,0.16613 0.74758,0.2492l0.8094,-0.12829c0,0 2.5,0 2.5,2.5c0,0.81278 -0.26425,1.36132 -0.62092,1.73152l0.49263,1.47792c0,0 0.50564,1.51695 -0.50503,2.52887c0.17011,0.08036 0.32969,0.17935 0.47611,0.29434c0.01706,-0.63503 0.03848,-1.08061 0.06452,-1.15709c1.74926,-5.13893 7.42888,-5.73463 11.99271,-5.77555c0,0 2.5,0 2.5,2.5c0,0.26529 -0.02815,0.50244 -0.07848,0.71441c3.32413,-0.08624 6.67523,-1.43377 9.97893,-0.78214c1.3261,0.26156 2.51156,0.99996 3.76734,1.49994c0.50337,1.49987 1.5765,2.91892 1.5101,4.49961c-0.05118,1.21839 -1.30287,2.06794 -1.83213,3.16656c-0.79335,1.64681 -1.39154,6.21927 -1.97157,6.95612c-0.86517,1.09909 -2.50773,1.31246 -3.87377,1.6132c-0.07664,0.01687 -0.15402,0.03289 -0.23211,0.04808c1.3389,0.60706 2.4134,1.54452 2.96351,2.9827c0.56692,1.48213 -0.471,3.13857 -0.7065,4.70785c-0.33155,1.32319 -1.27494,5.76593 -2.25757,6.76143c-0.85643,0.86765 -2.23493,0.97793 -3.37721,1.40392c-4.19406,1.56408 -8.19286,0.35935 -12.48512,0.90958c-2.36374,0.30301 -4.74337,1.09898 -7.10587,0.78644c-0.70779,-0.09364 -1.28561,-0.76771 -1.99957,-0.76771c-0.71394,0 -1.29322,0.66349 -1.99952,0.76771c-1.08658,0.16034 -2.2048,-0.11987 -3.29502,0.01355c-1.19105,0.14577 -2.30554,0.81537 -3.50546,0.81872c-1.09949,0.00307 -2.10051,-0.79999 -3.20001,-0.79999c-1.0995,0 -2.10052,0.79999 -3.20002,0.79999c-1.09948,0 -2.10047,-0.79968 -3.19995,-0.79999c-1.1304,-0.00032 -2.16568,0.81604 -3.29594,0.79815c-1.87972,-0.02975 -3.52841,-1.62813 -5.40815,-1.59998c-0.74401,0.01114 -1.35722,0.67635 -2.09545,0.76955c-1.32284,0.16701 -2.66667,0 -4.00001,0c-0.93349,0.27742 -1.82664,0.83227 -2.80048,0.83227c-0.97382,0 -1.83637,-0.69455 -2.80041,-0.83227c-3.58871,-0.51267 -7.42993,0.38427 -11.0459,0.02012c-3.36972,-0.33936 -6.4888,-1.96889 -9.75414,-2.42011c-1.05662,-0.14601 -2.14505,0.1578 -3.19997,0c-1.668,-0.24951 -3.12493,-1.40379 -4.80003,-1.6c-5.25678,-0.61576 -10.73509,-0.04784 -16.00002,-0.79999c-0.70677,-0.10097 -1.28558,-0.77297 -1.9995,-0.76773c-0.84326,0.00619 -1.57089,0.95383 -2.40002,0.80002c-1.65433,-0.30689 -3.7622,-0.633 -4.59147,-2.09701c-0.82821,-1.46213 0.37743,-3.33955 0.56615,-5.00933l-0.07464,-0.99367c0,0 0,-0.34821 0.12995,-0.78471zM340.40048,198.43227c1.74973,0.20952 3.62844,0.1787 5.49975,0.10859c-0.47079,-0.09478 -1.16693,-0.34147 -1.60152,-0.98351c-0.57068,0.24263 -1.09866,0.24263 -1.09866,0.24263c-0.96485,-0.00624 -1.9297,-0.01249 -2.89455,-0.01873l-1.22627,0.31474c0.43012,0.15748 0.86768,0.28197 1.32125,0.33628zM270.10779,202.70276c0.39224,0.67001 0.39224,1.39725 0.39224,1.39725l-0.07464,2.20634c-0.18014,0.24231 -0.34735,0.49533 -0.52191,0.74227c0.66541,-0.33059 1.36535,-0.65316 2.09656,-0.64862c1.88557,0.01171 3.71439,0.81016 5.59997,0.80002c4.45973,-0.024 8.83401,0.25609 13.20043,0.83227c1.67207,0.22064 3.12868,1.37416 4.80006,1.60001c1.05704,0.14284 2.14464,-0.15519 3.19994,0c3.18391,0.46821 6.17363,2.05532 9.44593,2.37988c2.57194,0.2551 5.16913,-0.02314 7.75366,-0.01217c2.98239,0.01267 4.95784,1.04653 7.59955,0.03228c1.33333,0 2.67677,0.1639 3.99999,0c0.93588,-0.11592 1.76149,-0.83992 2.70447,-0.83043c2.00285,0.02015 3.78939,1.64071 5.79192,1.59998c1.06844,-0.02173 2.03542,-0.80152 3.10408,-0.80183c1.09948,-0.00032 2.10047,0.79999 3.19995,0.79999c1.0995,0 2.10051,-0.79999 3.20001,-0.79999c1.0995,0 2.10052,0.79661 3.20001,0.79999c2.77436,0.00853 6.05229,-1.59997 8.79998,-1.59998c0.97384,0 1.83807,0.68345 2.80048,0.83227c1.89477,0.29299 3.7909,-0.58116 5.69406,-0.81354c3.95789,-0.48325 7.65071,0.32274 11.51488,-0.69046c0.4631,-0.12143 1.07752,0.13557 1.42283,-0.19605c1.09091,-1.04766 0.5764,-2.97102 0.94239,-4.43859c0.29787,-0.56406 0.98213,-1.06047 0.8936,-1.69217c-0.05525,-0.39424 -0.78431,-0.14457 -1.16659,-0.25567c-0.57539,-0.16723 -1.10727,-0.50597 -1.70212,-0.57809c-4.16519,-0.50502 -8.53317,0.54417 -12.70498,0.01355c-0.96096,-0.12223 -1.82991,-0.78042 -2.79861,-0.7831c-0.7441,-0.00206 -1.35862,0.66582 -2.09545,0.76955c-3.16713,0.44585 -6.79711,0.03228 -10.00049,0.03228c-3.471,0 -7.37461,0.40998 -10.80041,-0.03228c-1.67267,-0.21594 -3.12967,-1.36672 -4.80001,-1.60001c-3.93413,-0.54948 -8.4192,0.03228 -12.39958,0.03228c-0.51833,0 -6.50119,0.00956 -6.80041,-0.03228c-0.75572,-0.10568 -1.39185,-0.77521 -2.15492,-0.77254c-1.22819,0.00429 -2.37806,0.65324 -3.59832,0.79265c-2.9663,0.33888 -7.29816,0.40111 -10.24676,-0.02011c-0.70678,-0.10097 -1.28563,-0.77295 -1.99957,-0.76771c-0.84324,0.00619 -1.5567,0.8003 -2.39996,0.79999c-0.87387,-0.00033 -1.62211,-0.79874 -2.49597,-0.80183c-0.9687,-0.00343 -1.83603,0.67445 -2.79862,0.7831c-3.41529,0.38548 -6.99699,-0.43625 -10.39995,0c-1.09058,0.13981 -2.10862,0.66676 -3.20001,0.80002c-2.18199,0.26642 -4.17084,-0.0136 -6.1977,0.12148zM305.5865,196.84711c-0.02247,0.07185 -0.04809,0.1423 -0.07671,0.21119c0.04625,-0.0011 0.09247,-0.00228 0.13865,-0.00351c-0.02308,-0.06634 -0.04381,-0.13553 -0.06194,-0.20768zM369.57468,186.30636c-0.22731,-0.9092 -0.02856,-1.56278 0.30874,-2.02462c-1.93544,0.17592 -4.04227,0.68928 -4.29064,2.14271c-0.31873,1.86515 0.21431,3.78639 0.10727,5.67555c-0.03851,0.67954 -0.4667,1.36152 -0.29581,2.02035c0.08355,0.3221 0.58822,0.36479 0.92024,0.38691c2.15403,0.14356 4.31673,-0.10727 6.47554,-0.10727c2.13334,0 4.26671,-0.01148 6.40002,0c0.93322,0.00502 1.86634,0.02088 2.7995,0.03228c0.30877,0.00377 0.81204,0.30011 0.92628,0.01322c0.73639,-1.8493 0.30897,-4.0784 1.22838,-5.84386c0.3569,-0.68532 1.49956,-1.19361 1.27807,-1.93387c-3.42915,-0.33218 -6.49406,0.7135 -9.92677,0.7135l-2.89913,0.7441c0,0 -2.42535,0.60635 -3.0317,-1.819zM316.44897,162.33446c-0.31583,0.41472 -0.66221,0.64564 -0.66221,0.64564c-0.03575,0.0228 -2.88149,1.56147 -2.92345,2.34657c-0.03916,0.73275 0.54867,1.36514 0.73703,2.07435c0.1148,0.43225 -0.1551,1.02142 0.16746,1.33121c1.1644,1.11829 5.42061,0.7269 6.63269,0.90005c0.83479,0.11925 1.56518,0.68073 2.39996,0.79999c1.02461,0.14638 2.07857,-0.14647 3.10502,-0.01355c1.95672,0.25339 3.74179,1.33446 5.69502,1.61355c6.00196,0.8576 12.36583,-0.73848 18.39996,0c1.64007,0.20072 3.24185,0.79541 4.89413,0.78644c4.99471,-1.24868 11.45489,-1.4558 16.61092,-0.79999c0.81565,0.10375 4.62443,1.51108 5.49036,-0.29839c0.23615,-0.49346 -0.12918,-1.08956 -0.26353,-1.61986c-0.77704,-3.06695 -2.64227,-4.77155 -5.83774,-5.11922c-6.13639,-0.66764 -12.57956,0.1845 -18.5891,0.79999c-4.08379,0.41826 -7.74044,-0.79999 -11.81092,-0.79999c-7.09886,-1.77468 -14.74567,-2.38126 -22.09457,-2.38126h-0.79999c0,0 -0.56071,0 -1.15104,-0.26554zM262.3117,161.63719c-1.52276,1.2114 -1.18624,3.33547 -1.41171,5.66279c-0.05789,0.59758 -0.70632,1.1855 -0.4719,1.73823c0.15197,0.35833 0.77991,-0.18158 1.16249,-0.10994c2.84866,0.53345 5.39797,0.33431 8.31488,0.69046c5.84632,0.71382 12.53859,1.66431 18.49411,0.81354c0.96406,-0.13772 1.82664,-0.83227 2.80048,-0.83227c1.88561,0 3.71449,0.82173 5.59997,0.79999c1.61859,0.01866 3.23788,-0.28378 4.8094,-0.67169c0.44084,-0.10882 1.07691,0.23102 1.35629,-0.12693c0.90855,-1.16404 0.66258,-5.9137 -1.29017,-6.30864c-2.30985,-0.46716 -2.1591,0.55377 -4.47506,0.87501c-2.37725,0.32974 -4.81854,-0.29768 -7.20002,0c-0.9663,0.12079 -1.82659,0.83227 -2.80041,0.83227c-0.97384,0 -1.83587,-0.69848 -2.80048,-0.83227c-2.92248,-0.40535 -5.78147,-0.4079 -8.70499,-0.78647c-1.95673,-0.25338 -3.74181,-1.33445 -5.69504,-1.61356c-1.97975,-0.28289 -3.99964,0.03228 -5.9995,0.03228h-0.79999c0,0 -0.40464,0 -0.88834,-0.16279z" fill="#696969" stroke-width="0.5"></path>
      <path d="M247.17172,198.50941c0.79058,2.37171 -1.58113,3.16228 -1.58113,3.16228l-2.40002,0.80002c0,0 -2.37171,0.79058 -3.16228,-1.58113c-0.05906,-0.17718 -0.10047,-0.34553 -0.12654,-0.50538c-0.5913,1.41479 -2.30174,1.41479 -2.30174,1.41479l-0.8094,-0.12829c-0.80001,0.26667 -1.60002,0.53335 -2.40002,0.80002c0,0 -1.39532,0.46511 -2.40223,-0.3884c-0.71444,0.5167 -1.58836,0.5167 -1.58836,0.5167l-0.00942,-0.12829c-1.90285,0.6328 -3.83902,1.16623 -5.7842,1.65365c0,0 -2.42535,0.60635 -3.0317,-1.819c-0.01869,-0.07475 -0.0345,-0.14777 -0.04758,-0.2191c-1.27204,1.05097 -2.50231,0.38899 -3.02814,0.00218c-1.24327,0.40134 -2.44465,0.95576 -3.5122,1.6907c0,0 -2.08013,1.38674 -3.46687,-0.69339c-1.38674,-2.08013 0.69339,-3.46687 0.69339,-3.46687c1.94057,-1.26288 4.13988,-2.1616 6.38043,-2.74525l3.17414,1.45764c0,0 0.5586,0.55862 0.73376,1.36184c0.45607,-0.31044 0.89209,-0.41945 0.89209,-0.41945c1.8216,-0.4543 3.63515,-0.95133 5.41576,-1.54636l1.59056,-0.12829c0,0 0.91239,0 1.6348,0.55119c0.40115,-0.2984 0.77464,-0.4229 0.77464,-0.4229c0.80001,-0.26667 1.60002,-0.53335 2.40002,-0.80002l2.39055,-0.12829c0,0 2.3051,0 2.48845,2.21343c0.46929,-0.93455 1.52096,-1.28512 1.52096,-1.28512l2.40002,-0.80002c0,0 2.37171,-0.79058 3.16228,1.58113z" fill="#696969" stroke-width="0.5"></path>
      <path d="M255.89999,208.10001c0,-0.64378 0.24334,-1.23073 0.64306,-1.67388c-0.9568,-0.46167 -1.31475,-1.53556 -1.31475,-1.53556l-0.76416,-2.29252c-0.49054,-0.00494 -0.85474,-0.12635 -0.85474,-0.12635l-2.39996,-0.80002c0,0 -2.3717,-0.7906 -1.5811,-3.1623c0.7906,-2.3717 3.1623,-1.5811 3.1623,-1.5811l2.39996,0.80002c0,0 1.16947,0.38984 1.59224,1.44323c1.77356,-0.10811 2.3889,1.73792 2.3889,1.73792l0.79999,2.39999c0,0 0.50565,1.51697 -0.50505,2.52889c0.84718,0.40026 1.43332,1.26252 1.43332,2.26167c0,1.38071 -1.11929,2.5 -2.5,2.5c-1.38071,0 -2.5,-1.11929 -2.5,-2.5z" fill="#696969" stroke-width="0.5"></path>
      <path d="M248.70004,212.89999c0,-1.38071 1.11929,-2.5 2.5,-2.5c1.38071,0 2.5,1.11929 2.5,2.5c0,1.38071 -1.11929,2.5 -2.5,2.5c-1.38071,0 -2.5,-1.11929 -2.5,-2.5z" fill="#696969" stroke-width="0.5"></path>
      <path d="M234.30002,212.10001c0,-2.5 2.5,-2.5 2.5,-2.5l2.39053,0.12829c0.80001,0.26666 1.60002,0.53333 2.40002,0.79999c0,0 2.37171,0.79055 1.58116,3.16227c-0.79055,2.37171 -3.16227,1.58116 -3.16227,1.58116c-0.80001,-0.26666 -1.60002,-0.53333 -2.40002,-0.79999l-0.80942,0.12829c0,0 -2.5,0 -2.5,-2.5z" fill="#696969" stroke-width="0.5"></path>
      <path d="M223.89999,213.70001c0,-2.5 2.5,-2.5 2.5,-2.5l3.19058,0.12829c0.80001,0.26666 1.60002,0.53333 2.40002,0.79999c0,0 2.37171,0.79055 1.58116,3.16227c-0.79055,2.37171 -3.16227,1.58116 -3.16227,1.58116c-0.80001,-0.26666 -1.60002,-0.53333 -2.40002,-0.79999l-1.60947,0.12829c0,0 -2.5,0 -2.5,-2.5z" fill="#696969" stroke-width="0.5"></path>
      <path d="M215.22829,215.29055c-0.79055,-2.37171 1.58116,-3.16227 1.58116,-3.16227l2.40002,-0.79999c0,0 2.37171,-0.79055 3.16227,1.58116c0.79055,2.37171 -1.58116,3.16227 -1.58116,3.16227l-2.40002,0.79999c0,0 -2.37171,0.79055 -3.16227,-1.58116z" fill="#696969" stroke-width="0.5"></path>
      <path d="M212.16776,204.73223c1.76777,1.76777 0,3.53553 0,3.53553l-0.79997,0.79997c-0.72111,0.72113 -1.44223,1.44226 -2.16334,2.1634c0.12884,-0.02048 0.26095,-0.03112 0.39555,-0.03112c1.38071,0 2.5,1.11929 2.5,2.5c0,1.38071 -1.11929,2.5 -2.5,2.5c-1.38071,0 -2.5,-1.11929 -2.5,-2.5c0,-0.56126 0.18495,-1.07932 0.49723,-1.49655c-0.45678,0.09781 -0.99194,0.07106 -1.54813,-0.25237c-1.03372,0.90279 -2.21439,1.58937 -3.3173,1.82678c-2.08001,0.44773 -4.22386,-1.1025 -6.33134,-0.81015c-0.96461,0.13381 -1.82665,0.82667 -2.80048,0.83227c-0.87383,0.00502 -1.62206,-0.79874 -2.4959,-0.80183c-0.9687,-0.00343 -1.83765,0.66087 -2.79861,0.7831c-3.16272,0.40227 -6.71314,0.01873 -9.90549,0.01873c-4.2727,0 -8.73262,0.58502 -12.79056,-0.92828c-1.14228,-0.42598 -2.54072,-0.51703 -3.37718,-1.40394c-2.02061,-2.14248 -1.5138,-5.65803 -1.53221,-8.16778l1.06392,-2.71801c0,0 0.47049,-0.94098 1.41147,-1.29689c0.38085,-1.13906 1.63399,-1.55678 1.63399,-1.55678c1.06354,-0.30944 2.08312,-0.91056 3.19061,-0.92831c1.78558,-0.02862 3.52504,1.05982 5.2945,0.81875c1.95049,-0.26574 4.04543,-0.66309 5.90549,-0.01873l1.60938,-0.67172c0,0 1.67561,-0.55856 2.6795,0.67172h1.04065c0.634,-0.33716 1.26322,-0.5582 1.8892,-0.69223c0.19346,-0.06625 0.3864,-0.12124 0.57843,-0.15625c1.37006,-1.54465 3.18957,-0.33165 3.18957,-0.33165l1.02948,0.68631c0.92464,0.18071 1.851,0.38831 2.78424,0.52611c5.40232,0.79768 13.53906,-1.4754 14.86724,6.06727c0.04367,0.24797 0.08228,0.49907 0.11409,0.752c0.60182,-0.41469 1.89389,-1.01139 3.18596,0.28068zM166.2361,202.81805l-0.53606,0.48194c-0.01385,1.54419 -1.13404,3.66253 0.06776,4.63226c0.37257,0.30063 0.95967,0.07462 1.42275,0.19604c3.68014,0.9649 7.3688,0.6717 11.20944,0.6717c2.99422,0 6.32482,0.38362 9.29458,0.01873c1.22178,-0.15012 2.37045,-0.81297 3.60141,-0.81688c0.81278,-0.00258 1.49126,0.7924 2.30403,0.79815c0.71394,0.00505 1.29012,-0.68762 1.99957,-0.76771c1.5902,-0.17952 3.2124,-0.19396 4.8009,0c1.5919,0.19437 2.90021,1.23739 3.60677,-1.45674c1.51457,-5.77505 -7.6532,-3.57027 -10.80772,-4.00782c-0.32381,-0.04491 -0.64704,-0.11199 -0.96991,-0.18889c-0.31398,0.14208 -0.66254,0.22118 -1.02958,0.22118c-0.22872,0 -0.45027,-0.03071 -0.66074,-0.08824l-2.42869,-0.60718c-0.22999,0.04299 -0.45962,0.08761 -0.68883,0.13404c-0.77737,0.3084 -1.54118,0.737 -2.3163,0.54266c-0.10421,-0.02613 -0.20594,-0.05765 -0.30546,-0.09396v0.11269h-3.20001c-0.45542,0 -0.8824,-0.12178 -1.25015,-0.33454l-1.1498,0.33454c-3.46714,-1.11386 -5.51196,0.45571 -9.20053,-0.03228c-1.19301,-0.15783 -2.49838,-0.55952 -3.60894,-0.09601c0,0 -0.00807,0.00269 -0.02342,0.00728c-0.06686,0.21065 -0.13106,0.33905 -0.13106,0.33905z" fill="#696969" stroke-width="0.5"></path>
      <path d="M186.11495,281.65792l2.3555,-2.70359c2.88518,-3.52835 5.73949,-6.99642 8.96185,-10.22209c0,0 0.35192,-0.35191 0.89874,-0.58469c-0.39952,-1.1894 -0.92293,-2.33419 -1.69881,-3.07977c-1.18897,-1.14252 -2.67223,-1.95245 -4.13059,-2.72198c-0.8632,-0.45549 -1.91911,-0.64723 -3.03104,-0.70857c0.35482,0.10852 0.726,0.32383 1.09718,0.69501c1.76777,1.76777 0,3.53553 0,3.53553c-5.72891,5.71546 -10.86659,12.34728 -15.51713,19.04681c0.23302,-0.04369 0.46726,-0.07866 0.70304,-0.1024c3.44654,-0.34709 6.71167,-0.08401 10.04578,-0.26064c-0.93572,-1.45729 0.31548,-2.89363 0.31548,-2.89363zM192.29129,282.17942l-1.44379,1.65771c1.99275,-0.41683 4.76832,-0.89385 6.23817,-1.86376c3.61557,-2.38581 3.53312,-5.26514 2.72934,-8.52642c-2.66077,2.78449 -5.07609,5.73954 -7.52372,8.73246zM168.32765,285.90166l0.70579,-1.04598c5.32313,-7.88434 11.27268,-15.78274 17.99881,-22.52345c0,0 0.52672,-0.52672 1.29265,-0.71762c-1.53739,0.01599 -3.09249,0.18848 -4.32487,0.1854c-2.25175,-0.00562 -4.472,-0.53241 -6.70548,-0.81872c-0.93367,-0.11969 -1.90711,-0.16548 -2.89689,-0.17196c0.39811,1.0902 -0.25391,2.17689 -0.25391,2.17689c-4.81225,7.95226 -11.77895,14.97839 -17.70655,22.20239l-0.23056,0.40115c3.19385,-0.061 6.57747,-0.3612 9.69881,0.02896c0.76096,0.09512 1.47004,0.49982 2.21034,0.6864c0.10873,-0.25065 0.21186,-0.40348 0.21186,-0.40348zM150.63593,285.24835l1.68856,-2.90323c5.6807,-6.96821 12.54742,-13.76226 17.21423,-21.40422c-0.65857,0.02007 -1.30732,0.03251 -1.93915,0.02685c-2.08364,-0.69458 -4.27836,-0.88763 -6.49889,-0.90649c1.43977,1.53536 0.01993,3.23917 0.01993,3.23917c-5.59189,6.71011 -11.08642,13.47132 -16.83918,20.04582l-0.91359,0.92148c0,0 -1.7677,1.76783 -3.53553,0.00013c-1.76783,-1.7677 -0.00013,-3.53553 -0.00013,-3.53553l0.68639,-0.67862c5.71477,-6.53109 11.17299,-13.2477 16.72738,-19.91393c-0.95524,0.03146 -1.90614,0.0602 -2.84595,0.0602c-3.33475,0 -6.56478,0.06746 -9.79307,0.22908c0.06413,0.04626 0.12868,0.09633 0.19359,0.15042c1.92055,1.60046 0.32009,3.52101 0.32009,3.52101c-5.46738,6.56072 -10.63118,13.7534 -16.61899,19.83051c0.91043,0.04864 1.81335,0.07475 2.69844,0.06902l0.48187,-0.53608c0,0 2.23603,-1.1181 3.35414,1.11793c0.17912,0.35821 0.27216,0.68773 0.3021,0.98856c5.00349,0.33079 10.09964,0.17626 15.11873,0.08273c0.08969,-0.25031 0.17905,-0.40481 0.17905,-0.40481zM123.36394,282.98197l1.26829,-2.24971c6.03349,-6.01551 11.1813,-13.27344 16.64726,-19.8327c0,0 0.10676,-0.12812 0.29823,-0.2906c-1.50049,0.10339 -3.00752,0.2288 -4.53135,0.37889c-1.74159,0.17154 -3.37115,0.05804 -4.98304,0.04408c0.23443,0.98587 -0.29272,1.90839 -0.29272,1.90839c-3.99312,6.96812 -9.40502,12.562 -14.2795,18.83116c0.09101,0.21957 0.20344,0.43033 0.34323,0.6299c0.26048,0.3719 0.9154,0.01809 1.35621,0.1269c0.68919,0.17012 1.30482,0.62168 2.00991,0.70398c0.65393,0.07633 1.31909,0.15408 1.99119,0.22936c0.07883,-0.29275 0.17228,-0.47965 0.17228,-0.47965zM111.83231,284.26786c-1.76783,-1.7677 -0.00013,-3.53553 -0.00013,-3.53553l0.56784,-0.53237c0.01048,-0.01396 0.02097,-0.02792 0.03145,-0.04187c-0.20492,-0.82009 -0.36987,-1.50395 -0.45682,-1.85175c-0.76414,-3.1255 -1.29464,-4.07704 -0.84236,-7.40676c0.46935,-3.45534 2.97988,-9.01711 5.75022,-11.18635c1.10179,-0.86273 5.12261,-1.64382 6.41856,-2.01351c0.60957,-0.17389 4.69688,-1.61555 5.09851,-1.66739c3.96295,-0.5116 4.37403,0.364 8.15409,-0.02011c4.69988,-0.47757 9.0794,-0.81222 13.84633,-0.81222c5.77664,0 12.49436,-1.00314 18.00051,0.83233c4.40812,-0.05083 8.39123,0.23346 12.70497,0.78643c3.43194,0.43994 7.06814,-0.52578 10.49503,0.01355c2.76977,0.43591 6.62459,2.70822 8.56726,4.69995c2.15497,2.20939 3.0103,5.3952 3.83255,8.26882c0.58973,2.06101 1.73132,4.05953 1.69789,6.20299c-0.06147,3.94127 -2.77354,8.0689 -5.98388,10.22257c-2.1777,1.46092 -6.28757,2.09202 -8.76585,2.71249c-5.03767,0.99383 -9.66923,0.34954 -14.70211,0.84873c-2.52722,0.25066 -4.90677,1.59738 -7.44635,1.61214c-1.19991,0.00698 -2.3148,-0.66989 -3.50546,-0.81872c-3.24779,-0.40597 -6.81611,0.01873 -10.09451,0.01873c-10.33193,0 -20.96611,0.78003 -31.00635,-1.67462c0,0 -0.83982,-0.20995 -1.40754,-0.87695c-1.76384,-0.10033 -3.54333,-0.15599 -5.17672,-0.77674c-1.16708,-0.44353 -2.64147,-0.51642 -3.44371,-1.47308c-0.09939,-0.11852 -0.22221,-0.38962 -0.3588,-0.76262c-0.58694,0.07482 -1.28076,-0.07435 -1.97461,-0.76814zM119.91748,263.68675c-3.20023,2.67186 -3.97925,7.45995 -3.46802,11.43175c3.56639,-4.30006 7.21355,-8.47156 10.16294,-13.27818c-2.02518,0.51404 -5.37102,0.74111 -6.69492,1.84643z" fill="#696969" stroke-width="0.5"></path>
      <path d="M365.43228,311.46775c-0.53455,-0.53455 -0.74582,-1.0691 -0.78044,-1.55477c-1.15656,0.85994 -2.31552,1.77076 -3.69509,2.0967c-0.11985,0.02832 -0.24009,0.05298 -0.36068,0.07432l0.01033,0.04133l-2.3007,0.57521c3.23349,1.18369 6.39946,2.55094 9.46874,4.16636c1.59045,0.11762 2.96135,-1.37658 4.0578,-2.53466c2.90449,-3.06771 10.06682,-8.79768 5.60003,-13.26446c-2.24708,-2.24708 -6.6764,-3.16562 -9.49962,-4.22304c-1.40977,-0.52802 -2.82473,-1.14159 -4.24974,-1.75714l-2.15118,3.58536l5.2184,-0.13726c-0.4779,1.42648 -0.81045,2.91627 -1.26037,4.35494c3.9026,-3.1659 9.3508,-6.91114 8.94339,1.78376c-0.11081,2.36494 -3.04882,3.6364 -4.35299,5.61235l-1.11235,1.181c0,0 -1.76777,1.76777 -3.53553,0zM354.30002,310.50003c0,-0.49034 0.14117,-0.94771 0.38507,-1.33368c-1.03846,0.50243 -2.11766,0.91863 -3.25098,1.21168l-0.11002,0.05501c1.05074,0.30289 2.09677,0.61962 3.13717,0.95223c-0.10421,-0.27518 -0.16125,-0.57355 -0.16125,-0.88524zM345.14102,308.28169l0.84634,-1.26511c-0.69984,0.47552 -1.36701,1.02322 -2.0663,1.50008c0.32278,0.07547 0.64532,0.15177 0.96761,0.22895c0.06786,-0.16417 0.15271,-0.31955 0.25235,-0.46392zM328.68091,304.68488l2.19581,-2.08855l0.02399,0.02523l0.04332,-0.08695c1.22924,-1.00842 2.40589,-2.04138 3.55547,-3.09477c-1.71476,1.25749 -4.34001,3.19481 -5.71457,3.61735l-3.08177,1.71211c0.1351,0.02841 0.2704,0.05612 0.40591,0.08311c0.70356,0.14011 1.40825,0.2792 2.1138,0.41786c0.12312,-0.21749 0.27788,-0.4147 0.45804,-0.58538zM320.70004,303.30002c0,-0.81167 0.38681,-1.533 0.98615,-1.98971l3.8273,-2.97489c1.84869,-1.66794 3.68281,-3.33406 5.49776,-5.02058c-1.36603,0.8216 -2.72724,1.65575 -4.08625,2.50513c-1.27304,0.79565 -6.69066,4.19049 -6.83988,4.21809c-0.1607,0.02972 -0.32168,0.05446 -0.48293,0.07468l0.00887,0.05321l-4.75359,0.79231c-0.14832,0.02743 -0.30122,0.04176 -0.45748,0.04176c-0.01353,0 -0.02704,-0.00011 -0.04052,-0.00032c2.08702,0.86738 4.19477,1.6981 6.34273,2.40506c-0.00143,-0.03474 -0.00215,-0.06966 -0.00215,-0.10475zM311.89999,298.50003c0,-0.80639 0.38179,-1.5236 0.97446,-1.98074l3.64605,-2.86612c0.64778,-0.64619 1.27247,-1.31722 1.91303,-1.97117c-0.1742,0.08231 -0.33273,0.15952 -0.47168,0.23161c-1.2329,0.63966 -6.52973,3.66858 -6.83834,3.76103c-0.03202,0.00959 -0.06407,0.01907 -0.09615,0.02844l0.0064,0.01419l-4.50906,2.03277c-0.15376,0.07348 -0.3162,0.13171 -0.48537,0.17273c1.54198,0.39793 3.06319,0.84922 4.51739,1.46752c0.69391,0.29504 1.38882,0.59194 2.08545,0.88741c-0.45826,-0.45317 -0.74218,-1.08226 -0.74218,-1.77766zM302.94809,295.49308c0,-0.72235 0.30636,-1.37315 0.79624,-1.82955l3.30658,-3.09661c-2.35582,1.13257 -4.51032,2.8494 -7.06652,3.38693l-3.46983,1.54212c0.82715,0.21698 1.66685,0.41575 2.5271,0.58781c1.54972,0.51457 3.15222,0.90182 4.75637,1.28746c-0.52109,-0.45817 -0.84995,-1.12976 -0.84995,-1.87816zM291.89999,293.69998c0,-0.83863 0.41293,-1.58081 1.04656,-2.03432l2.90184,-2.1282c0.01045,-0.0104 0.02088,-0.0208 0.03131,-0.03119c-0.88934,0.62142 -1.74876,1.29842 -2.76876,1.63335c-0.06343,0.02083 -0.127,0.0411 -0.19071,0.06083l0.00829,0.02074l-3.94736,1.57898c-0.23856,0.10189 -0.49618,0.16775 -0.76602,0.19075c1.26543,0.36794 2.49718,0.76041 3.72321,1.14772c-0.02521,-0.14242 -0.03835,-0.289 -0.03835,-0.43865zM285.50003,290.50003c0,-0.31907 0.05977,-0.62418 0.16874,-0.90475l0.74916,-2.07149c-1.2551,0.53566 -2.52882,1.00754 -3.86121,1.28594c-0.0101,0.00211 -0.02021,0.00421 -0.03032,0.0063l0.00208,0.0052l-3.94736,1.57892c-0.09113,0.03892 -0.18504,0.07258 -0.28135,0.10061c2.73766,0.68668 5.50363,1.29227 8.22846,2.02032c-0.62323,-0.45464 -1.02818,-1.19055 -1.02818,-2.02105zM275.10001,288.1038c-0.54175,0.37889 -1.08718,0.74838 -1.66461,1.0351c0.78623,0.25132 1.57847,0.48518 2.37496,0.70672c-0.43872,-0.44971 -0.70934,-1.06416 -0.71035,-1.74182zM264.11797,283.64414c0.20111,-0.2911 0.45323,-0.52901 0.73812,-0.7331c3.08065,-3.00928 7.58716,-6.7946 8.77223,-10.8016c0,0 0.24854,-0.74565 0.885,-1.2614c-0.20771,-0.1074 -0.41609,-0.21333 -0.62536,-0.31728c-0.08295,0.10079 -0.13934,0.15598 -0.13934,0.15598l-1.08249,1.04194c-1.13847,0.86708 -2.46231,1.53375 -3.4154,2.60125c-1.09359,1.22487 -0.5886,3.3349 -1.52409,4.68438c-1.08037,1.55848 -3.72082,2.48757 -3.62847,4.38165c0.00416,0.08527 0.00987,0.16889 0.01711,0.25089zM278.44037,273.41001c0.11264,-0.08869 0.2252,-0.17716 0.33771,-0.26539l0.07575,0.00012c-0.12022,-0.05917 -0.24013,-0.11902 -0.35976,-0.17946c-0.00889,0.17255 -0.03082,0.32482 -0.0537,0.44472zM285.11009,276.1131l-0.22457,0.26949c0.43186,-0.26443 0.86339,-0.5298 1.29466,-0.79617c-0.2239,-0.05084 -0.44388,-0.10034 -0.66151,-0.14973c-0.10014,0.24765 -0.23881,0.47559 -0.40857,0.67641zM290.53371,280.30187l3.56959,-1.6491c0.2363,-0.11554 0.49352,-0.19491 0.76445,-0.23089c-0.58283,-0.23629 -1.16542,-0.47318 -1.75005,-0.704zM297.70004,280.89999c0,0.48518 -0.13821,0.93809 -0.37741,1.32148l-0.59207,0.98677c2.20974,-0.9623 4.565,-1.70622 6.65322,-2.50562c-1.45609,-0.0914 -2.92352,-0.2329 -4.39933,-0.72033c-0.62004,-0.20478 -1.23401,-0.42708 -1.8445,-0.65938c0.35017,0.43021 0.56009,0.97913 0.56009,1.57707zM309.93976,282.47729l-1.68938,2.11172c1.35075,-0.62515 2.70608,-1.24275 4.06938,-1.85041c-0.67832,-0.26744 -1.35859,-0.5363 -2.04315,-0.80408c-0.08909,0.19574 -0.20268,0.37796 -0.33685,0.54277zM319.43506,285.46756c0.04361,-0.0171 0.08648,-0.03373 0.12858,-0.04989c-0.0358,-0.01166 -0.07158,-0.02334 -0.10734,-0.03505zM328.14665,289.20353c0.63167,-0.38084 1.26434,-0.75902 1.89824,-1.13477c-0.48389,-0.07314 -0.96549,-0.16071 -1.44539,-0.25864c-0.11373,0.4233 -0.26364,0.88673 -0.45285,1.3934zM338.0337,283.48873l0.05488,-0.01168l-0.00657,-0.01314l3.15497,-1.57748c0.34741,-0.18291 0.74312,-0.28642 1.16302,-0.28642c1.38071,0 2.5,1.11929 2.5,2.5c0,0.2969 -0.05176,0.58172 -0.14674,0.84591l-0.22529,0.6759c2.87161,0.66279 5.77937,1.24993 8.57751,1.59689c1.11395,0.13813 2.27157,-0.21705 3.36734,0.02638c4.52969,1.00632 8.8878,3.29324 13.19458,4.91023c3.56371,1.33801 8.47358,2.55009 11.30043,5.37694c6.94582,6.94583 -0.28402,15.24265 -5.60004,20.33552c-1.32036,1.26494 -2.33874,3.00252 -4.01107,3.74194c-1.44281,0.63794 -3.15403,0.08228 -4.73105,0.12342c-13.25024,-6.36255 -27.21465,-9.10965 -41.53471,-11.9855c-5.72108,-1.14894 -11.13903,-3.44307 -16.44765,-5.73796c-3.43438,-1.48467 -7.33519,-1.9054 -10.88497,-3.0934c-3.92074,-0.7842 -7.43832,-2.12631 -11.25724,-3.21596c-5.06683,-1.44571 -10.30041,-2.36704 -15.29161,-4.02859c-2.50111,-0.83261 -6.68451,-1.10753 -8.72691,-2.78496c-0.33844,-0.27796 -0.65585,-0.58788 -0.94992,-0.924c-0.21158,-0.18951 -0.39068,-0.41455 -0.52792,-0.66572c-1.99472,-2.77504 -2.57114,-6.8418 -0.73136,-9.71138c0.81419,-1.26991 2.30292,-1.98725 3.20002,-3.20002c1.0295,-1.39177 0.57441,-3.58015 1.67598,-4.91559c1.21092,-1.468 2.92885,-2.43048 4.39328,-3.64572l0.70881,-0.7111c0,0 0.01099,-0.01076 0.0321,-0.02972c0.0311,-0.22108 0.09377,-0.4582 0.19527,-0.71197c0.92846,-2.3212 3.24966,-1.39273 3.24966,-1.39273c2.80526,1.12786 5.36783,2.78969 8.11618,4.04991c3.02459,1.3869 6.11855,1.71758 9.27402,2.67598c3.20477,0.97337 6.24184,2.43679 9.41043,3.52217c3.62566,1.24194 7.09394,0.39937 10.73824,1.72842c4.49127,1.63794 8.67454,3.5544 13.37434,4.72845c4.2582,1.06373 8.63748,1.01759 12.76893,2.15179c0.20747,-0.11575 0.41516,-0.23136 0.62308,-0.34682zM347.97172,292.89056l-0.05155,-0.01718c-0.05209,0.18328 -0.11589,0.36377 -0.19353,0.54095c-0.09346,0.21327 -0.20417,0.41494 -0.32892,0.60716c0.07502,-0.04187 0.14925,-0.08375 0.22266,-0.12567l0.07156,-0.01202l-0.00993,-0.01987l3.15503,-1.57748c0.20786,-0.10943 0.43301,-0.19045 0.67029,-0.23787c-1.01984,-0.14538 -2.05019,-0.31723 -3.08531,-0.50893zM354.50003,294.50003c0,0.28423 -0.04743,0.55739 -0.13482,0.81198c1.20285,-0.83468 2.40944,-1.66332 3.62657,-2.47496c-0.81609,-0.26603 -1.63732,-0.49829 -2.46454,-0.68218c-0.82211,-0.18276 -1.68308,0.04498 -2.52751,0.05306c0.8831,0.38571 1.50028,1.26683 1.50028,2.2921z" fill="#696969" stroke-width="0.5"></path>
      <path d="M115.55627,163.46015l0.77286,-1.09529c-1.84774,-1.84765 -3.8432,-3.8517 -3.95725,-4.0031c-0.03753,-0.04982 -0.07467,-0.10011 -0.11148,-0.15083c-0.86041,1.13633 -1.75672,2.24735 -2.68014,3.34288c1.6498,1.18836 3.46078,2.19716 5.41739,3.23736c0.02587,0.00099 0.05174,0.00208 0.07763,0.00326c0.07432,-0.75704 0.48099,-1.33427 0.48099,-1.33427zM128.48629,147.55629c2.14373,1.28625 0.85748,3.42998 0.85748,3.42998c-0.29723,0.49521 -0.597,0.98835 -0.8986,1.47996c0.62759,3.31777 1.56787,5.38022 3.95484,8.53379l1.36777,1.3322c0,0 0.17297,0.17296 0.35659,0.46479c0.13882,0.02442 0.2768,0.04939 0.41388,0.07488c-0.15715,-1.21477 0.57992,-2.40661 0.56246,-3.63137c-0.01982,-1.39068 -0.79571,-2.70505 -0.79586,-4.09587c-0.00009,-0.79378 0.76974,-1.45128 0.79516,-2.24465c0.05839,-1.82291 -1.95331,-4.38181 -2.78014,-5.81323c-0.28849,-0.49943 -0.19815,-1.29747 -0.69951,-1.5826c-1.20484,-0.6852 -2.64738,0.86995 -4.01985,1.06356c-0.99888,0.14091 -2.04671,-0.27626 -3.0261,-0.03459c-1.89963,0.46875 -3.5284,1.71763 -5.38386,2.33858c-0.51414,0.17207 -1.02837,0.34013 -1.54284,0.50433c-0.08273,0.38425 -0.21161,0.642 -0.21161,0.642c-0.6036,1.20108 -1.25473,2.36166 -1.94646,3.48948c0.27311,0.66799 0.51219,1.35974 0.93846,1.9307c0.75301,1.00861 1.62517,1.91359 2.5403,2.78132c1.39148,-2.28191 2.8297,-4.52854 4.24314,-6.79621c-0.02924,-0.18712 -0.05801,-0.377 -0.08641,-0.56979c0,0 -0.35355,-2.47487 2.12133,-2.82842c0.04166,-0.00595 0.08271,-0.0111 0.12318,-0.01547c0.50375,-0.54998 1.59386,-1.36705 3.11666,-0.45337zM103.41712,167.33109c-1.19987,-0.2877 -1.66555,-1.0256 -1.82948,-1.69923c-1.44669,-0.65315 -3.07302,-1.03533 -4.15536,-2.16407c-5.07176,-5.28919 -1.40923,-12.82483 2.16771,-17.66778l2.48205,-1.53609c0,0 2.23609,-1.118 3.35408,1.11809c0.42473,0.8495 0.36538,1.53763 0.12845,2.06439c4.07545,-0.90602 8.05699,-1.99454 12.04485,-3.3181c1.99803,-0.66314 3.77518,-1.94559 5.81621,-2.46141c1.09042,-0.27558 2.26079,0.12631 3.37392,-0.03459c3.08241,-0.44556 3.13144,-2.47223 7.1801,-0.53648c1.22541,0.58589 1.70508,2.1164 2.50044,3.21745c1.58282,2.19117 3.55946,5.77456 3.61989,8.58673c0.01918,0.89282 -0.80472,1.66231 -0.80482,2.55534c-0.00015,1.32869 0.82039,2.57554 0.80411,3.90413c-0.03241,2.6454 -1.57399,5.28741 -2.63749,7.56864c-3.2804,0.28343 -6.8568,0.0241 -10.21087,0.23734c-0.09071,0.27854 -0.24449,0.57129 -0.48128,0.87421c-1.53964,1.96965 -3.50929,0.43001 -3.50929,0.43001l-0.50444,-0.3951c-1.16031,0.46276 -2.30883,1.03127 -3.48609,1.39567c-0.07402,0.25788 -0.19912,0.53065 -0.3897,0.81652c-1.38674,2.08013 -3.46687,0.69339 -3.46687,0.69339l-1.48068,-0.98966c-1.53475,0.54282 -3.25237,1.76142 -4.73304,1.37725c-2.07938,-0.53951 -3.47002,-2.41585 -5.06532,-3.94636c-0.21899,-0.00014 -0.45751,-0.02802 -0.71711,-0.09026zM122.79232,161.76336l1.00372,0.78293c0.20009,-0.04611 0.40119,-0.08462 0.60351,-0.114c0.88643,-0.12876 1.80666,-0.19874 2.74134,-0.2203c-0.93677,-1.41862 -1.64992,-2.74252 -2.21325,-4.11862c-0.74615,1.19114 -1.48753,2.38561 -2.21413,3.59135c0.02632,0.02617 0.05259,0.05239 0.0788,0.07865zM109.01325,154.18014c0,0 -1.21658,-0.81105 -1.1687,-2.12302c-1.37492,0.31772 -2.75867,0.61498 -4.15422,0.89434c0,0 -1.45956,0.29191 -2.35149,-0.70097c-1.38425,2.54926 -2.34899,5.60323 -0.56189,7.49397c-0.1542,-0.21465 -0.30655,-0.4338 -0.45706,-0.65767c0,0 -1.38677,-2.08011 0.69333,-3.46688c2.08011,-1.38677 3.46688,0.69333 3.46688,0.69333c0.4468,0.67692 0.91645,1.29954 1.40824,1.87747c1.09657,-1.30065 2.15251,-2.62637 3.147,-3.9969c-0.00735,-0.00458 -0.01471,-0.00913 -0.0221,-0.01366z" fill="#696969" stroke-width="0.5"></path>
      <path d="M96.21323,182.9801c-2.08011,-1.38677 -0.69333,-3.46688 -0.69333,-3.46688l1.74985,-2.60191c2.12945,-2.12302 4.42179,-4.08342 6.76852,-5.96348c0,0 1.95217,-1.56174 3.51391,0.39043c1.56174,1.95217 -0.39043,3.51391 -0.39043,3.51391c-2.08026,1.66172 -4.1361,3.36661 -6.03141,5.23653l-1.45023,2.19807c0,0 -1.38677,2.08011 -3.46688,0.69333z" fill="#696969" stroke-width="0.5"></path>
      <path d="M100.63222,192.26776c-1.76776,-1.76778 0.00002,-3.53553 0.00002,-3.53553l2.40002,-2.39999c1.8252,-1.81876 3.80872,-3.48309 5.86771,-5.03222c0,0 1.99998,-1.50002 3.50001,0.49996c1.50002,1.99998 -0.49996,3.50001 -0.49996,3.50001c-1.87462,1.40119 -3.68055,2.90967 -5.33224,4.56781l-2.40002,2.39999c0,0 -1.76778,1.76776 -3.53553,-0.00002z" fill="#696969" stroke-width="0.5"></path>
      <path d="M183.03223,307.46773c-1.76774,-1.76779 0.00004,-3.53553 0.00004,-3.53553l2.52977,-2.52081c1.91957,-1.43972 3.77684,-2.97916 5.47023,-4.67914c0,0 1.76779,-1.76774 3.53553,0.00004c1.76774,1.76779 -0.00004,3.53553 -0.00004,3.53553c-1.78336,1.77704 -3.71566,3.41026 -5.72972,4.92083l-2.27028,2.27912c0,0 -1.76779,1.76774 -3.53553,-0.00004z" fill="#696969" stroke-width="0.5"></path>
      <path d="M159.36396,307.6181c-1.11807,-2.23605 1.11798,-3.35412 1.11798,-3.35412l0.6553,0.02361c1.64922,-2.36737 3.85727,-4.32596 6.10104,-6.13976c0,0 1.95217,-1.56174 3.51391,0.39043c1.56174,1.95217 -0.39043,3.51391 -0.39043,3.51391c-1.87859,1.48483 -3.76664,3.0705 -5.09891,5.06019l-2.54477,1.62371c0,0 -2.23605,1.11807 -3.35412,-1.11798z" fill="#696969" stroke-width="0.5"></path>
      <path d="M139.03225,305.06779c-1.76777,-1.76777 0,-3.53553 0,-3.53553l1.4497,-1.26828c3.4092,-1.70463 6.40691,-3.24663 10.11176,-4.1893c0,0 2.42536,-0.60633 3.03169,1.81903c0.60633,2.42536 -1.81903,3.03169 -1.81903,3.03169c-3.34859,0.8196 -6.00838,2.2707 -9.08831,3.8107l-0.15027,0.3317c0,0 -1.76777,1.76777 -3.53553,0z" fill="#696969" stroke-width="0.5"></path>
      <path d="M93.62829,253.69055c-0.79056,-2.37171 1.58115,-3.16227 1.58115,-3.16227l2.54889,-0.84453c4.33982,-0.8731 8.20437,-1.67101 12.64166,-1.68372c0,0 2.5,0 2.5,2.5c0,2.5 -2.5,2.5 -2.5,2.5c-3.99502,-0.01295 -7.44804,0.73918 -11.35834,1.51623l-2.2511,0.75545c0,0 -2.37171,0.79056 -3.16227,-1.58115z" fill="#696969" stroke-width="0.5"></path>
      <path d="M240.48196,312.73609c-2.23606,-1.11805 -1.11801,-3.35411 -1.11801,-3.35411l1.60003,-3.2c1.25767,-2.51224 2.6478,-4.95857 4.09234,-7.36823c0,0 1.28625,-2.14373 3.42998,-0.85748c2.14373,1.28625 0.85748,3.42998 0.85748,3.42998c-1.38058,2.29884 -2.70972,4.63271 -3.90766,7.0318l-1.60005,3.20003c0,0 -1.11805,2.23606 -3.35411,1.11801z" fill="#696969" stroke-width="0.5"></path>
      <path d="M255.3937,318.52537c-2.42536,-0.60633 -1.81903,-3.03169 -1.81903,-3.03169l0.88063,-3.46104c1.09873,-2.21896 2.20131,-4.43602 3.30868,-6.65068c0,0 1.11807,-2.23605 3.35412,-1.11798c2.23605,1.11807 1.11798,3.35412 1.11798,3.35412c-1.02602,2.05197 -2.05611,4.10191 -3.09135,6.14925l-0.71935,2.93899c0,0 -0.60633,2.42536 -3.03169,1.81903z" fill="#696969" stroke-width="0.5"></path>
      <path d="M267.89691,322.59788c-2.49787,-0.10312 -2.39475,-2.60099 -2.39475,-2.60099l0.11589,-2.50069c0.36339,-2.36896 0.57627,-4.87471 -0.04338,-7.18989c0,0 -0.60633,-2.42536 1.81903,-3.03169c2.42536,-0.60633 3.03169,1.81903 3.03169,1.81903c0.70014,2.95511 0.5463,6.0997 0.14241,9.10964l-0.0699,1.99983c0,0 -0.10312,2.49787 -2.60099,2.39475z" fill="#696969" stroke-width="0.5"></path>
      <path d="M382.10135,278.25441c-1.35442,2.10132 -3.45574,0.74691 -3.45574,0.74691l-0.92477,-0.72389c-4.75305,-1.35834 -9.53216,-2.55333 -14.32714,-3.75206c0,0 -2.42536,-0.60633 -1.81903,-3.03169c0.60633,-2.42536 3.03169,-1.81903 3.03169,-1.81903c4.84888,1.2122 9.68136,2.42219 14.48806,3.79515l2.26002,1.32888c0,0 2.10132,1.35442 0.74691,3.45574z" fill="#696969" stroke-width="0.5"></path>
      <path d="M378.50003,288.10001c0,2.5 -2.5,2.5 -2.5,2.5l-2.18671,-0.41986c-2.0929,-1.39599 -3.78142,-2.57264 -6.05794,-3.80886c-1.09755,-0.596 -2.7294,-0.54553 -3.38349,-1.60949c-0.81798,-1.33055 -0.3146,-3.10786 -0.4719,-4.6618c0,0 0,-2.5 2.5,-2.5c2.5,0 2.5,2.5 2.5,2.5c-0.1573,0.57941 -0.7598,1.21138 -0.4719,1.73823c0.22643,0.41437 0.9854,-0.20205 1.41656,-0.00951c1.6395,0.73212 4.96542,3.00733 6.74211,4.19114l-0.58674,-0.41986c0,0 2.5,0 2.5,2.5z" fill="#696969" stroke-width="0.5"></path>
      <path d="M144.80002,161.79999c-2.5,0 -2.5,-2.5 -2.5,-2.5l0.07464,-2.2063c0.34995,-1.27514 0.34834,-2.70457 1.04985,-3.82543c0.42119,-0.67297 2.14984,-0.37782 2.07552,-1.16824c-0.10034,-1.06716 -2.2891,-1.08634 -2.38786,-2.15365c-0.11862,-1.28194 0.89343,-2.41092 1.66188,-3.48601c-0.97485,-0.3411 -1.67405,-1.26907 -1.67405,-2.36034c0,-0.88153 0.45626,-1.6565 1.14552,-2.10164l2.21632,-1.47754c1.49261,-1.47388 2.07937,-3.24174 2.65603,-4.99799c-0.96366,0.43116 -1.90214,0.75662 -2.90114,1.01594l0.11726,0.35179l-4.68805,1.56269c-0.2642,0.09499 -0.54902,0.14675 -0.84594,0.14675c-1.38071,0 -2.5,-1.11929 -2.5,-2.5c0,-0.14391 0.01216,-0.28498 0.03551,-0.42224c-0.57517,0.15418 -1.15176,0.30292 -1.72915,0.4476c0,0 -2.42535,0.60635 -3.0317,-1.819c-0.60635,-2.42535 1.819,-3.0317 1.819,-3.0317c1.8216,-0.4543 3.63514,-0.95133 5.41575,-1.54636l2.34466,-0.78156c0.2642,-0.09499 0.54903,-0.14675 0.84594,-0.14675c1.38071,0 2.5,1.11929 2.5,2.5c0,0.02866 -0.00048,0.05721 -0.00144,0.08564c1.65677,-1.06947 3.45672,-1.98448 5.20306,-3.13143l0.34827,-0.00455l-0.04046,-0.12137l2.34466,-0.78153c0.2642,-0.09498 0.54901,-0.14674 0.84591,-0.14674c1.38071,0 2.5,1.11929 2.5,2.5c0,0.52533 -0.16203,1.01282 -0.43885,1.41521l-1.58108,2.37156l-0.00737,-0.00491c-1.19564,3.75084 -2.72537,7.23632 -5.44694,10.26878c0.00368,0.0101 0.00711,0.02054 0.01029,0.0313c0.44234,1.49722 -0.23727,3.15645 -0.79026,4.61642c-0.20306,0.53611 -1.51501,0.50395 -1.35799,1.0553c0.32692,1.14794 2.4715,1.45423 2.41219,2.64634c-0.0752,1.5115 -2.0183,2.29326 -2.72453,3.63174c-0.40952,0.77616 -0.36675,1.71639 -0.55013,2.57459l0.07464,0.99365c0,0 0,2.5 -2.5,2.5z" fill="#696969" stroke-width="0.5"></path>
      <path d="M209.01323,274.18012c-2.08012,-1.38676 -0.69335,-3.46688 -0.69335,-3.46688l1.39387,-2.02465c0.27166,-0.38131 1.13265,-0.8 0.81498,-1.14393c-0.60969,-0.66008 -1.94886,-0.1341 -2.58324,-0.77048c-1.15883,-1.1625 -2.44546,-2.63271 -2.44546,-4.27414c0,-0.90502 0.60144,-2.49715 1.55636,-3.54444c-1.33579,-0.30065 -2.647,-0.83523 -3.92373,-1.31088c-1.0991,-0.40947 -2.03221,-1.20638 -3.14399,-1.58007c-2.522,-0.84768 -5.30087,-0.7232 -7.83031,-1.5484c-1.32246,-0.43144 -3.04436,-0.57788 -3.78647,-1.75446c-0.62618,-0.99277 -0.78123,-3.33999 -0.47414,-5.68145c-2.18397,1.84964 -4.73435,3.01556 -7.33206,1.1183c-0.20895,-0.15261 -0.14068,-1.62878 0.04087,-3.30145c-0.74206,0.85927 -1.54173,1.58098 -2.60608,1.67052c-2.60873,0.21946 -4.75976,-1.1941 -5.66922,-2.86993c-2.32926,2.49564 -4.73207,4.21328 -8.52483,5.22759c0,0 -2.42535,0.60638 -3.03173,-1.81896c-0.60638,-2.42535 1.81896,-3.03173 1.81896,-3.03173c4.07383,-0.91971 5.80017,-3.24784 8.34348,-6.44191l0.12359,-0.07204l-0.02848,-0.02848l2.40002,-2.40002c0.45241,-0.45241 1.07741,-0.73223 1.76777,-0.73223c1.38071,0 2.5,1.11929 2.5,2.5v3.20001l-0.07293,0c0.01634,0.13303 0.02999,0.2665 0.04064,0.40047c0.03742,0.47056 -0.77761,0.60666 -0.95806,1.04285c-0.06344,0.15335 0.37467,0.20843 0.48984,0.08896c0.65339,-0.67778 1.11378,-1.51709 1.65715,-2.28696l-0.00885,-0.00708l3.10906,-3.8863c0.45772,-0.5823 1.16848,-0.95629 1.9666,-0.95629c1.36267,0 2.4707,1.09022 2.49943,2.446l0.07634,3.09673l-0.03839,0.00095c0.01167,0.09177 0.02166,0.18387 0.02983,0.27633c0.02127,0.24059 0.03059,0.48342 0.02844,0.72712c0.86345,-0.81042 1.67696,-1.479 1.90801,-1.69048l1.47126,-2.2068c0.44514,-0.68923 1.22009,-1.14547 2.10161,-1.14547c1.1246,0 2.07576,0.74256 2.38994,1.76412l0.78176,2.34527l-0.08037,0.02679c0.09829,0.26897 0.1701,0.54713 0.20759,0.83721c0.33394,2.58365 -1.72456,4.92082 -2.41768,7.43206c-0.13327,0.48285 -0.65429,0.974 -0.45317,1.43275c0.13723,0.313 0.67448,-0.19705 1.01358,-0.15448c1.29778,0.1629 2.5666,0.50562 3.84863,0.76479c2.60758,0.52714 5.0883,1.56695 7.5771,2.50677c0.82412,0.3112 6.05184,1.33108 6.54398,1.6584c1.55575,1.03472 3.92361,2.17368 3.8838,4.04168c-0.03714,1.74257 -2.68082,2.22851 -4.04067,3.31881c-0.23917,0.19176 -0.75449,0.21927 -0.75449,0.52582c0,0.30654 0.49706,0.35936 0.75449,0.52579c1.26652,0.81882 3.26335,1.02665 3.81678,2.42959c0.65004,1.64784 -0.52333,3.50398 -0.78499,5.25598l-1.8062,2.7754c0,0 -1.38676,2.08012 -3.46688,0.69335z" fill="#696969" stroke-width="0.5"></path>
      <path d="M313.62749,268.94303c0.72793,0.22815 1.67253,0.82027 1.67253,2.35698c0,2.5 -2.5,2.5 -2.5,2.5l-4.77172,-3.29061c0.52903,-1.58302 1.02649,-3.08931 1.55796,-4.58428c-9.55169,3.10798 -5.89239,-4.94055 -3.41146,-10.04907c-1.79729,1.78335 -3.6203,3.54039 -5.50079,5.22344c-2.2624,2.02487 -4.43541,4.58639 -7.77805,4.69867c-1.79792,0.06039 -4.91521,-1.40292 -6.80144,-1.61693c-4.13488,-0.46913 -8.84983,0.95267 -12.89497,-0.01355c-1.49884,-0.35801 -3.52109,-0.61139 -4.16178,-2.01289c-0.45206,-0.98887 -0.4866,-2.14727 -0.27741,-3.34742c-0.02906,0.01897 -0.05822,0.03776 -0.08747,0.05639l0.02716,0.03621l-3.17981,2.38487c-0.42124,0.32312 -0.9483,0.51516 -1.52021,0.51516c-0.65467,0 -1.25057,-0.25164 -1.69624,-0.66347c-1.10206,1.78945 -2.23258,3.56007 -3.50378,5.26346c0,0 -1.50001,2 -3.5,0.49999c-2,-1.50001 -0.49999,-3.5 -0.49999,-3.5c2.65739,-3.52349 4.66482,-7.4042 7.11988,-11.08676l1.57847,-2.3677c0.44514,-0.68925 1.2201,-1.14551 2.10163,-1.14551c1.38071,0 2.5,1.11929 2.5,2.5c0,0.01383 -0.00011,0.02763 -0.00034,0.04141l1.73306,-2.8884c0.43183,-0.74893 1.24069,-1.25304 2.1673,-1.25304c1.25484,0 2.29375,0.92451 2.47274,2.12955l0.79323,4.75951l-0.10097,0.01683c0.0472,0.19523 0.08984,0.39175 0.12733,0.58972c0.32329,1.70738 -1.56133,3.45051 -1.93004,4.94959c-0.06051,0.24603 0.38617,-0.38644 0.63815,-0.41291c1.19333,-0.12537 2.39966,-0.02778 3.59954,-0.03228c1.66665,-0.00626 3.33334,-0.00343 5,0c3.68138,0.00757 6.61336,1.37004 10.10407,1.60188c1.90824,0.12674 3.20485,-2.11688 4.61452,-3.40927c3.66915,-3.36388 7.16597,-6.91892 10.69644,-10.42595l0.24824,-0.07179l-0.05,-0.075l2.37158,-1.58101c0.40238,-0.2768 0.88985,-0.43882 1.41517,-0.43882c1.38071,0 2.5,1.11929 2.5,2.5c0,0.34827 -0.07121,0.6799 -0.19987,0.98113l-1.52597,3.81484c-0.22633,1.3334 -0.50909,2.55759 -0.86448,3.36073c-0.6292,1.42193 -1.76437,2.58094 -2.39997,4.00003c-0.09322,0.20814 -0.15153,0.42991 -0.19251,0.65816c0.67569,-0.71321 1.37346,-1.40626 2.05055,-2.1182l2.0645,-2.0645c0.45241,-0.45241 1.07741,-0.73223 1.76777,-0.73223c1.38071,0 2.5,1.11929 2.5,2.5c0,0.29692 -0.05176,0.58176 -0.14676,0.84597l-0.78159,2.34466l-0.92005,-0.3067l-0.94834,0.94834l-1.89675,-1.89675l-0.97826,-0.3261l0.16305,-0.48911l-0.82357,-0.82357l5.14661,-2.42335c0.08577,1.77241 0.39302,3.54794 0.25731,5.31722c-0.13686,1.78431 -1.8646,4.18105 -2.42695,5.67676c-0.29133,0.77485 -0.51189,1.57272 -0.71726,2.37569z" fill="#696969" stroke-width="0.5"></path>
      <path d="M386.29687,128.19788c-2.49787,-0.10312 -2.39475,-2.60099 -2.39475,-2.60099l0.01879,-0.40551c-2.34908,2.25515 -5.41067,4.80211 -7.93225,4.47329c-2.44771,-0.31919 -3.39914,-1.02586 -3.56958,-1.84539c-1.34549,1.11073 -2.81028,2.074 -4.42845,2.65242c0,0 -2.3717,0.7906 -3.1623,-1.5811c-0.7906,-2.3717 1.5811,-3.1623 1.5811,-3.1623c1.88985,-0.55897 3.37961,-2.1031 4.75258,-3.51694l0.16459,-0.07592l-0.02658,-0.03544l3.17981,-2.38484c0.42124,-0.32311 0.94829,-0.51515 1.5202,-0.51515c1.38071,0 2.5,1.11929 2.5,2.5l0,1.90179c1.32006,-1.64162 3.45377,-3.50696 4.31994,-4.34708l2.64102,-2.55075c0.44996,-0.43578 1.06319,-0.70398 1.73906,-0.70398c1.38071,0 2.5,1.11929 2.5,2.5c0,0.13481 -0.01067,0.26712 -0.03121,0.39615l-0.70107,4.90717l-0.0699,1.99982c0,0 -0.10312,2.49787 -2.60099,2.39475z" fill="#696969" stroke-width="0.5"></path>
      <path d="M256.09983,112.8706c0.02939,2.49983 -2.47044,2.52922 -2.47044,2.52922l-1.18813,0.0134c-8.15735,0.26538 -16.16952,1.79468 -24.30299,2.38294c-5.84098,0.42246 -11.77262,-0.23685 -17.62472,0.00124c-6.28934,0.25588 -12.69576,0.62462 -18.97787,1.0449c-4.51228,0.30188 -9.09292,0.30573 -13.59531,0.6433c-1.76735,0.13251 -3.54183,1.10786 -5.26915,0.71108c-0.15702,-0.03607 -0.31143,-0.07879 -0.46353,-0.12741l-0.01402,0.05609l-3.14928,-0.78733c-1.1133,-0.25265 -1.94438,-1.24829 -1.94438,-2.43804c0,-1.12461 0.74257,-2.07577 1.76414,-2.38994l2.34533,-0.78176l0.01888,0.05663l0.13001,-0.10117c5.87154,-1.18037 11.0809,-2.39226 17.07673,-2.56736c8.68716,-1.2415 16.88112,-3.74638 25.45582,-5.46401c1.76918,-0.35439 3.53959,-0.71263 5.31122,-1.07084c-4.666,0.35236 -9.30294,0.86696 -14.01843,1.21168c-3.08795,0.22574 -6.20424,-0.22618 -9.28845,0.04594c-8.98299,0.79258 -18.2753,2.46376 -27.35415,1.54738c-1.28788,-0.12999 -2.51101,-0.68129 -3.79999,-0.79999c-3.55066,-0.32698 -8.88455,-0.35671 -12.43565,-0.00529c-1.94903,0.19288 -3.7631,1.18942 -5.25006,1.01281c-0.05095,0.09593 -0.10917,0.19351 -0.17528,0.29266c-1.38674,2.08013 -3.46687,0.69339 -3.46687,0.69339l-3.40601,-4.40459c1.82511,-0.57942 3.69428,-1.0674 5.59274,-1.46641v1.31958l0.58676,0.39117l-0.58676,0.88014v2.09998l-1.39998,0l-0.78675,1.18014l-2.36776,-1.5785c-0.68926,-0.44513 -1.14552,-1.2201 -1.14552,-2.10164c0,-1.38071 1.11929,-2.5 2.5,-2.5h3.20001v0.30913c6.40809,-1.34683 13.15006,-1.68013 19.65893,-1.09568c5.10887,0.45874 10.14349,1.2519 15.36386,0.79283c4.96834,-0.4369 9.89959,-1.12134 14.86378,-1.55038c3.09842,-0.26779 6.22835,0.18116 9.32977,-0.04916c7.70935,-0.5725 15.2135,-1.61561 22.97747,-1.59821c4.7618,-0.79365 9.60103,-1.16919 14.39997,-1.60001c3.37774,-0.30323 6.93984,0.44106 10.30076,0.01021c5.16512,-0.66214 10.22792,-1.57254 15.44008,-2.31656l0.14077,0.04818l-0.00171,-0.05629l3.0381,-0.09252c0.02929,-0.00102 0.05871,-0.00153 0.08825,-0.00153c1.38071,0 2.5,1.11929 2.5,2.5c0,1.12461 -0.74257,2.07577 -1.76414,2.38994l-4.68874,1.56287l-0.02081,-0.06244c-0.12008,0.05459 -0.24124,0.10714 -0.36355,0.15751c-1.28974,0.53107 -2.79987,-0.1338 -4.18423,0.03652c-4.24899,0.52276 -8.46364,1.82836 -12.73558,2.39195c-2.89249,0.3816 -6.86012,0.64444 -9.73827,1.25827c-8.40977,1.79355 -16.85018,3.42664 -25.29565,5.11299c-3.82612,0.76398 -7.5798,1.67633 -11.33408,2.56755c2.24459,-0.11635 4.48522,-0.22152 6.71144,-0.31261c5.83329,-0.23869 11.75478,0.42969 17.57535,0.00124c8.17149,-0.60149 16.21687,-2.11263 24.41425,-2.38786l1.29459,-0.01579c0,0 2.49983,-0.02939 2.52922,2.47044z" fill="#696969" stroke-width="0.5"></path>
    </g>
  </g>
</svg>
