<?xml version="1.0" encoding="UTF-8"?>
<svg xmlns="http://www.w3.org/2000/svg" xmlns:xlink="http://www.w3.org/1999/xlink" version="1.1" width="245.7722" height="101.56132" viewBox="0,0,245.7722,101.56132">
  <g transform="translate(-122.61384,-181.39341)">
    <g stroke="none" stroke-miterlimit="10">
      <path d="M222.7568,240.11515c0,0 -0.37759,-0.12633 -0.88088,-0.12722c-0.73913,-0.80179 -1.91242,-0.80376 -1.91242,-0.80376l-2.95716,0.0028c-6.07613,0.772 -11.91657,1.71693 -18.07329,0.79275c-6.89924,-0.01148 -13.78522,-0.71256 -20.68396,-0.41056c-4.28963,0.18778 -8.2482,1.00834 -12.55853,0.79966c-5.76637,-0.27917 -11.55797,-0.81133 -17.33906,-0.80668c-6.0125,0.00483 -11.72227,1.91237 -17.72422,1.21401c0,0 -0.86738,-0.09639 -1.63413,0.33723c-1.43789,-0.93029 -2.0509,-2.64078 -0.6142,-4.39259c1.58704,-1.93513 3.79925,-3.29062 6.24483,-3.84553c5.62136,-1.2755 10.79842,1.64653 16.27161,2.43923l1.05574,0.046c0,0 2.49979,-0.00101 2.49979,-2.50101c0,-0.62782 -0.15781,-1.09876 -0.39395,-1.45085c-0.093,-1.93057 -2.15287,-2.22614 -2.15287,-2.22614c-1.19821,-0.16643 -3.16073,-0.88714 -4.56563,-0.90041c0.57213,-0.17397 1.20773,-0.53122 1.80347,-0.55563c0.86791,-0.03556 1.71646,0.26764 2.57577,0.39465c2.07408,0.30657 4.44763,0.56794 6.44538,1.12495c3.98816,1.11198 7.45337,3.87271 11.53875,4.46798c4.13775,0.60289 8.19253,0.18396 12.29985,-0.40283l1.54078,-0.47585c0,0 2.37118,-0.79261 1.58061,-3.16432c-0.79057,-2.37171 -3.16266,-1.58285 -3.16266,-1.58285l-0.76296,0.29693c-0.91312,0.13045 -1.89023,0.27884 -2.90015,0.40999c-0.79897,-5.75218 -1.3597,-11.84175 1.12189,-17.29862c3.25261,-7.15231 11.37908,-10.94227 17.95432,-13.9815c3.09711,-1.43155 5.07171,-3.062 8.42921,-3.87395c5.87217,-1.67827 11.80048,-3.10515 17.66418,-4.82911c4.06642,-1.19556 8.15723,-2.71099 12.47839,-2.70973c2.25389,0.00065 4.47489,0.66614 6.7251,0.79494c2.17986,0.12477 4.36621,-0.39319 6.54964,-0.39679c7.38351,-0.01217 14.69893,1.76151 21.80918,3.53982l0.42356,0.01462c3.25814,1.0489 7.31689,1.52456 10.30407,3.02099c1.14544,0.57381 3.8066,2.99907 4.76091,3.7325c2.26348,1.7396 4.75312,3.22713 6.07865,5.91464c1.1553,2.34236 1.18218,5.00256 1.35962,7.49913c0.37521,5.27931 0.74759,11.40149 3.05676,16.15654l3.83564,0.71773c7.09525,4.3122 16.16221,2.3615 24.05764,1.84035c2.2554,-0.14887 4.51403,-0.24317 6.76907,-0.3974c0.75663,-0.05175 1.52224,0.06357 2.27497,-0.02897c0.25237,-0.03103 0.79264,-0.57434 0.78436,-0.3202c-0.01967,0.60394 -0.55054,1.15684 -0.72435,1.72383c-5.33726,1.49293 -11.15639,2.04376 -16.65512,1.44396c-0.36976,-0.34447 -0.91172,-0.59707 -1.70617,-0.59707c-2.5,0 -2.50051,2.50207 -2.50051,2.50207l2.05024,2.84765c6.85977,0.96532 14.21345,0.34647 20.87805,-1.63741c0.08592,0.05647 0.17511,0.10853 0.26774,0.1559c1.62849,0.83279 3.66029,0.00505 5.48607,-0.1045c4.31144,-0.25869 8.64007,-1.47702 12.94686,-2.019c2.16116,-0.48056 5.70209,-2.13936 7.97115,-1.11394c2.39509,1.08237 -1.21289,6.92872 -2.52941,7.81796c-2.86671,1.93631 -7.22371,1.90671 -10.52411,2.37783l-1.24649,-0.025c0,0 -2.50038,0.00141 -2.50038,2.50141c0,0.05928 0.00139,0.11724 0.00413,0.17374c-2.677,-0.24038 -6.51857,0.12747 -7.90448,0.12747c-11.52171,0 -22.89434,-1.19333 -34.40262,-1.19333l-1.22471,-0.25232c-0.71607,-0.99123 -1.97541,-0.94747 -1.97541,-0.94747l-1.57141,-0.04426c0.05498,-0.83572 -0.34811,-1.53939 -0.34811,-1.53939c-1.49859,-2.60913 -4.91369,-9.50828 -8.31457,-9.96612c-1.80842,-0.24345 -4.01489,-0.13099 -5.25335,1.20911c-0.77241,0.8358 -0.88634,2.05983 -0.80639,3.28926c-0.22193,-0.17477 -0.53955,-0.38637 -0.76985,-0.54653c-1.2427,-0.86424 -3.56365,-2.11672 -5.44353,-2.78645c0.07639,-0.23967 0.11717,-0.49413 0.11717,-0.75912c0,-1.27327 -0.86088,-2.28277 -2.09185,-2.43862l-2.73363,-0.41818c0.11937,-0.26451 0.22902,-0.54887 0.3296,-0.85879c0.41363,-1.2745 -0.13331,-2.67758 -0.36211,-3.99784c-0.69602,-4.0163 -2.99628,-10.01575 -7.08936,-11.76531c-2.8817,-1.23176 -4.97988,0.1783 -7.44338,1.19238c0,0 -0.38999,0.14432 -0.7211,0.40934c-1.23588,-0.24126 -2.52782,-0.1755 -4.23995,0.30047c-1.50085,0.41723 -3.92476,2.81139 -5.6378,1.48163c-2.09739,-1.62811 -3.65151,-3.91475 -6.04446,-5.23688c-0.3445,-0.19033 -3.96527,-1.21194 -4.4512,-1.79717c-0.44815,-0.53974 -0.24312,-1.51098 -0.61897,-2.10334c-0.77225,-1.2171 -1.54421,-2.41912 -2.75348,-3.20359c-4.24235,-2.75207 -12.51464,-0.47117 -14.45947,4.31655c-0.54182,1.33385 -0.38144,2.84604 -0.57311,4.27292c0,0 -0.27553,2.47985 2.20918,2.75592c2.48471,0.27607 2.66161,-2.2203 2.66161,-2.2203c0.07499,-0.97312 -0.02332,-1.98226 0.22652,-2.92575c0.50244,-1.89737 5.69175,-3.09908 7.1313,-2.07302c1.3125,0.9355 1.2161,3.15946 2.32025,4.33363c1.52044,1.61685 3.98459,1.95597 5.9404,3.00514c2.24824,1.20603 3.68377,3.84092 5.83266,5.06908c5.54612,3.16978 9.79225,-3.88972 14.13231,0.69351c0.41568,0.6088 1.0507,1.18244 1.34115,1.85999c0.33706,0.78628 0.47225,1.65379 0.60258,2.49928c0.86016,5.58027 -6.1146,4.50511 -9.64228,4.2697l-1.33252,-1.52109c0,0 -1.78143,-1.76397 -3.5492,0.0038c-0.80899,0.809 -0.88115,1.61833 -0.71753,2.2579l-1.63846,0.58358c-1.18408,1.14374 -2.0687,2.98946 -3.68617,3.296c-3.4406,0.65204 -7.23179,-3.24696 -3.79896,-6.08053c0.59168,-0.48839 1.49295,-0.6174 2.21227,-0.8842c0,0 2.24549,-0.89965 1.2607,-3.19752c-0.98479,-2.29787 -3.29527,-1.32491 -3.29527,-1.32491c-3.59089,1.66876 -4.64741,1.37654 -6.14009,5.94643c-0.89194,2.73069 -0.15372,5.17703 1.44559,7.02533c-2.40707,2.24783 -4.90411,5.68302 -2.17323,8.04246c-2.65377,-0.65132 -5.26093,-1.44879 -7.75067,-2.28122z" fill="#ffce66" stroke-width="0.25"></path>
      <path d="M349.27882,262.72154c0.17007,-0.42518 0.38687,-0.74133 0.62758,-0.97413c-0.37782,-1.51864 1.04051,-2.53174 1.04051,-2.53174c0.35306,-0.25204 5.53827,-3.99121 5.81413,-4.02684c3.91038,-0.50497 8.62891,4.02386 8.11685,7.99298c-0.62976,4.88151 -6.16501,7.79944 -10.47689,5.86187c-1.23003,-0.55272 -1.81435,-1.99549 -2.72153,-2.99324l-1.00791,-0.07925c0,0 -2.3212,-0.92846 -1.39273,-3.24966zM354.79202,262.47925l0.72855,0.37028c1.44255,2.03862 1.74432,2.77657 3.34607,0.81551c0.32866,-0.40239 0.89749,-0.65194 1.05548,-1.14689c0.15294,-0.47911 -1.92403,-2.5589 -2.28317,-2.40699c-1.13929,0.48192 -1.9474,1.4903 -2.84694,2.36808z" fill="#000000" stroke-width="0.5"></path>
      <path d="M258.72513,216.49642c0.35357,-2.47487 2.82844,-2.1213 2.82844,-2.1213c1.22881,0.23469 2.60875,0.06875 3.68643,0.70408c2.61245,1.54013 4.69345,6.6731 3.65546,9.85796c-0.07035,1.80898 -0.72952,3.56259 -1.98111,4.43948c-1.37307,0.96199 -4.81771,-0.0694 -7.11813,-0.86866c-0.41009,0.26602 -0.85283,0.49663 -1.32446,0.68509c-3.22348,1.28807 -4.64363,0.44695 -7.6106,-0.35476c-0.01236,-0.00735 -0.02463,-0.01462 -0.0368,-0.02179c-0.07614,-0.02328 -0.15097,-0.04832 -0.22437,-0.07513c-0.00022,0.00007 -0.00045,0.00013 -0.00067,0.0002c-0.51762,0.15202 -1.08129,0.38628 -1.65635,0.61747c-0.1665,0.52247 -0.40195,1.18693 -0.98317,1.84312c-3.10012,3.50001 -8.12042,5.05088 -11.54657,0.76529c-1.25825,-1.57388 -2.19113,-6.16193 -0.03467,-7.62261c-0.58931,-0.02899 -1.17789,-0.13409 -1.75296,-0.26173c-2.19217,-0.48658 -7.42418,-1.09992 -9.0222,-2.50935c-1.10907,-0.97818 -1.7127,-2.4886 -2.07111,-3.92331c-0.13354,-0.53455 -0.04966,-1.07466 0.08688,-1.52928c-0.36643,-0.05601 -0.70668,-0.19157 -1.00257,-0.3885c-0.75367,0.07436 -2.04472,-0.06138 -2.5883,-1.69208c-0.79059,-2.3717 1.58111,-3.16229 1.58111,-3.16229c0.09142,-0.01937 0.18126,-0.03903 0.26957,-0.05889l0.04614,-0.32298l0.12586,0.01798c0.00526,-0.21892 0.02266,-0.43795 0.05454,-0.6571c0.50709,-3.48652 6.07941,-4.24046 8.05117,-4.91701l0.30525,0.54008c1.30487,-0.12743 2.65924,-0.02484 3.79982,0.54149c0.86017,0.4271 0.43831,1.97007 1.10602,2.66034c0.43208,0.44668 1.27922,0.0781 1.82694,0.37173c2.51169,1.34649 4.59146,4.03774 6.57305,6.02826c1.2211,1.22661 2.65608,2.22082 4.01898,3.28765c0.43683,0.34194 0.61975,1.10414 1.16858,1.18496c0.43397,0.0639 0.6311,-0.61471 0.98984,-0.86712c0.8949,-0.62964 1.72709,-1.41945 2.76258,-1.77305c1.98534,-0.67796 4.09251,-0.82362 5.98577,-0.08473c0.00471,-0.10665 0.01505,-0.21776 0.03159,-0.33351zM228.14862,212.39037c0.01999,0.03812 0.04006,0.07681 0.06022,0.11607l0.08594,-0.22918c-0.05021,0.03882 -0.099,0.07658 -0.14616,0.1131z" fill="#ff924c" stroke-width="0.5"></path>
      <path d="M341.08234,272.31264c-0.49533,-0.40949 -0.89951,-1.08085 -0.76303,-2.17272c0.31008,-2.4807 2.79078,-2.17061 2.79078,-2.17061c1.47962,0.30611 3.33562,-0.11407 4.43885,0.91833c3.75305,3.51212 1.98752,7.39742 -0.21852,10.87053c-0.79969,1.25901 -1.76547,2.70498 -3.19407,3.13362c-1.05658,0.31702 -2.08323,-0.64421 -3.12196,-1.08988l-2.21826,0.31689c-0.12902,0.02054 -0.26132,0.03121 -0.39612,0.03121c-1.38071,0 -2.5,-1.11929 -2.5,-2.5c0,-0.69036 0.27982,-1.31536 0.73223,-1.76777l2,-2l0.12401,0.12401c0.4744,-0.73995 0.98606,-1.45319 1.5515,-2.12461z" fill="#000000" stroke-width="0.5"></path>
      <path d="M256.52849,246.3712l-0.38513,0.15321c0.90206,3.85174 0.99071,7.34366 4.06598,10.60037c5.82259,6.16614 16.83013,8.61069 24.72336,6.51593c2.80055,-0.74323 3.17956,-0.31312 5.31994,-1.69655c2.37769,-1.53681 3.70296,-3.55417 5.16689,-5.91704c1.97829,-3.91816 6.6912,-9.48572 12.04227,-6.00523c2.42923,1.58004 1.70768,5.6837 1.83192,7.85088c0.13841,2.41431 0.89614,5.09653 2.57741,6.91921c8.26555,8.96078 23.88522,0.87935 30.12571,-6.63773c1.91231,-2.8213 1.42895,-3.23303 1.93546,-6.50472c0.12016,-0.77613 0.47218,-1.50058 0.77781,-2.22406c0.10665,-0.25246 0.72443,-0.65789 0.4519,-0.68687c-0.43521,-0.04628 -0.72943,0.54462 -1.16198,0.61137c-0.10608,0.01637 -0.21246,0.02897 -0.31907,0.03846l-0.24488,1.77957c-0.95127,1.86568 -1.13096,4.04822 -1.98138,5.96196c-3.57361,8.04186 -17.95146,13.97514 -25.42635,8.0642c-4.34746,-3.43786 -4.73941,-10.97169 -6.40003,-15.95363c0,0 -0.14258,-0.42773 -0.12498,-0.98045c-1.96273,-0.06916 -3.92956,-0.1101 -5.9033,-0.1101l-2.81101,-0.43401c0,0 -0.85764,-0.14294 -1.47707,-0.766h-0.37179c0.13279,1.16262 -0.77237,2.06779 -0.77237,2.06779l0.1301,-0.38296c-1.74212,4.061 -3.12533,8.12233 -6.92949,10.70746c-5.97355,4.05935 -14.42158,3.41036 -21.08978,1.95274c-2.98087,-0.6516 -6.84397,-1.99478 -8.72927,-4.61507c-2.15122,-2.98988 -2.32532,-7.98432 -2.82421,-11.47638c0,0 -0.013,-0.09096 -0.01656,-0.2405c-0.24321,0.00205 -0.47915,-0.00258 -0.71687,-0.01296c-0.39904,0.99544 -1.46321,1.4211 -1.46321,1.4211zM221.20944,244.8217c0,0 -0.58251,-0.19417 -1.07392,-0.67874c-0.08564,0.00704 -0.1355,0.00704 -0.1355,0.00704l-2.64468,-0.00483c-1.81372,0.22193 -3.54448,0.92486 -5.35487,1.17253c-2.49564,0.34142 -5.02879,-0.36944 -7.54768,-0.36827c-1.94334,0.0009 -3.90452,0.25703 -5.83001,-0.00573c-6.71453,0.01234 -13.40521,-0.68564 -20.11888,-0.39586c-4.46779,0.19284 -8.53572,0.99993 -13.04215,0.79832c-5.67681,-0.25396 -11.37113,-0.79109 -17.06175,-0.79616c-5.79971,-0.00517 -11.21724,1.60464 -16.987,1.28826c-1.01006,1.11461 -2.60356,0.58345 -2.60356,0.58345c-1.04231,-0.39498 -2.27615,-0.46479 -3.12692,-1.18493c-6.72767,-5.69469 -1.15992,-13.46259 4.89705,-16.26903c3.90583,-1.80973 7.60821,-1.55443 11.31354,-0.77596c0.19721,-3.42402 3.84443,-4.95663 6.61454,-5.42462c1.26394,-0.21353 2.55174,0.24981 3.82417,0.40496c5.87011,0.71577 10.56463,2.61174 15.8388,4.97398c1.55578,0.69681 3.33993,0.96051 5.17825,0.98962c-0.88752,-6.59096 -1.31656,-13.52336 1.582,-19.73506c3.86451,-8.28177 12.70558,-12.8652 20.4487,-16.43293c3.28753,-1.51477 5.58475,-3.21087 9.17376,-4.13266c8.9031,-2.5429 18.33866,-6.14078 27.53182,-7.26517c3.92772,-0.48039 6.93533,0.14651 10.83938,0.38319c2.08773,0.12657 4.17017,-0.40615 6.26173,-0.40306c7.70993,0.01139 15.2972,1.74864 22.72836,3.60177c0.21976,0.00068 0.4152,0.02508 0.56541,0.05227l0.71997,-0.05408c0,0 1.16952,0 1.90874,0.79991c2.97072,0.76719 6.20212,1.36252 8.77705,2.6482c2.05519,1.02617 3.83736,2.88365 5.64207,4.27309c2.96199,2.28042 5.7667,4.21215 7.52405,7.69303c3.40504,6.74455 1.06276,15.18366 3.70679,22.06021c0.1445,-0.08826 0.2905,-0.15431 0.43572,-0.2021l-0.00542,-0.03832c0,0 0.08633,-0.01439 0.22937,-0.02163c1.03387,-0.21553 1.9684,0.40749 1.9684,0.40749c2.41335,1.7248 5.04138,1.80181 7.99046,1.98644c6.71746,0.42054 13.41045,-0.86464 20.09826,-1.2032c2.17818,-0.11027 5.96241,-0.2336 7.43953,1.96395c0.76448,1.13734 -0.01964,2.74082 -0.0509,4.11085c-0.00245,0.10743 -0.07171,0.27015 -0.11165,0.40366c0.05216,0.07004 0.10225,0.14536 0.14991,0.22632c4.84689,-0.1461 10.18332,-2.0647 15.07096,-2.6712c3.82178,-0.84864 7.45499,-2.85892 11.32778,-0.47141c5.93418,3.65831 2.26305,12.94921 -2.27117,16.18544c-3.49464,2.49424 -8.61659,2.64376 -12.67638,3.22417l-0.67274,0.00865c1.15438,2.16389 -0.46936,3.66934 -0.81309,5.91692c-0.56769,3.71194 -0.68761,5.3904 -2.86452,8.69529c-5.31318,6.3564 -11.83808,9.76278 -19.78834,11.72746c-3.89279,0.962 -7.28866,1.42812 -11.12116,-0.09328c-5.23549,-2.07835 -8.84949,-5.84727 -10.31578,-11.31062c-0.28308,-1.05474 -0.39827,-2.15248 -0.47163,-3.24209c-0.07562,-1.12308 -0.03684,-2.25291 0.02599,-3.37678c0.01487,-0.26603 0.46158,-0.6972 0.20595,-0.77234c-2.49114,-0.73232 -4.03027,2.92381 -4.75772,4.39479c-1.91276,3.03891 -3.7258,5.72673 -6.83311,7.68294c-10.39222,6.54245 -28.15873,3.2799 -36.35672,-5.58064c-3.78076,-4.08632 -3.92177,-7.93851 -5.15729,-12.53273c-10.0038,2.28812 -20.63565,-0.03365 -30.22395,-3.22077zM222.79059,240.07829c2.48974,0.83243 5.08735,1.62302 7.74112,2.27434c-2.73088,-2.35944 -0.28602,-5.70944 2.12105,-7.95727c-1.59931,-1.8483 -2.34781,-4.30387 -1.45587,-7.03456c1.49268,-4.56989 2.62743,-4.3399 6.21832,-6.00866c0,0 2.29787,-0.98479 3.28266,1.31308c0.98479,2.29787 -1.31308,3.28266 -1.31308,3.28266c-0.71932,0.2668 -1.56628,0.312 -2.15796,0.80039c-3.43283,2.83357 0.34155,6.72466 3.78215,6.07262c1.61747,-0.30654 2.49261,-2.15376 3.67669,-3.2975l1.63264,-0.58359c-0.16362,-0.63957 -0.09508,-1.44857 0.71391,-2.25757c1.76777,-1.76777 3.53553,0 3.53553,0l1.33061,1.52198c3.52768,0.23541 10.48053,1.33154 9.62037,-4.24873c-0.13033,-0.84549 -0.26798,-1.70781 -0.60504,-2.49409c-0.29045,-0.67755 -0.83137,-1.21761 -1.24705,-1.82641c-4.34006,-4.58323 -8.63487,2.51142 -14.18099,-0.65836c-2.14889,-1.22816 -3.63215,-3.92452 -5.88039,-5.13055c-1.95581,-1.04917 -4.41817,-1.39421 -5.93861,-3.01106c-1.10415,-1.17417 -0.91832,-3.35448 -2.23082,-4.28998c-1.43955,-1.02606 -6.6237,0.16433 -7.12614,2.0617c-0.24984,0.94349 -0.14999,1.94625 -0.22498,2.91937c0,0 -0.27607,2.48471 -2.76078,2.20864c-2.48471,-0.27607 -2.20864,-2.76078 -2.20864,-2.76078c0.19167,-1.42688 0.03318,-2.94679 0.575,-4.28064c1.94483,-4.78772 10.23149,-7.09039 14.47384,-4.33832c1.20927,0.78447 2.0476,2.06129 2.81985,3.27839c0.37585,0.59236 0.10122,1.49192 0.54937,2.03166c0.48593,0.58523 4.11686,1.59859 4.46136,1.78892c2.39295,1.32213 4.02222,3.6413 6.11961,5.26941c1.71304,1.32976 4.03941,-1.04242 5.54026,-1.45965c1.71213,-0.47597 3.10179,-0.56276 4.33767,-0.3215c0.33111,-0.26502 0.62297,-0.3901 0.62297,-0.3901c2.4635,-1.01408 4.65977,-2.44358 7.54147,-1.21182c4.09308,1.74956 6.39231,7.77202 7.08833,11.78832c0.2288,1.32026 0.77369,2.72916 0.36006,4.00366c-0.10058,0.30992 -0.21084,0.59566 -0.33021,0.86017l2.6423,0.37746c1.23097,0.15585 2.18284,1.2068 2.18284,2.48007c0,0.26499 -0.04123,0.52036 -0.11762,0.76003c1.87988,0.66973 4.20081,1.92225 5.44351,2.78649c0.2303,0.16016 0.45875,0.3265 0.68068,0.50127c-0.07995,-1.22943 0.03236,-2.44995 0.80477,-3.28575c1.23846,-1.3401 3.53844,-1.41728 5.34686,-1.17383c3.40088,0.45784 6.81381,7.36234 8.3124,9.97147c0,0 0.40263,0.70461 0.34765,1.54033h1.48174c0,0 1.34926,0 2.06533,0.99123l1.13469,0.20878c11.50828,0 22.87828,1.19998 34.39999,1.19998c1.38591,0 5.22714,-0.36671 7.90414,-0.12633c-0.00274,-0.0565 -0.00415,-0.11438 -0.00415,-0.17366c0,-2.5 2.5,-2.5 2.5,-2.5l1.24646,0.02513c3.3004,-0.47112 7.65693,-0.43949 10.52364,-2.3758c1.31652,-0.88924 4.92391,-6.73219 2.52882,-7.81456c-2.26906,-1.02542 -5.71107,0.648 -7.87223,1.12856c-4.30679,0.54198 -8.63578,1.76232 -12.94722,2.02101c-1.82578,0.10955 -3.85771,0.93791 -5.4862,0.10512c-0.09263,-0.04737 -0.18181,-0.09948 -0.26773,-0.15595c-6.6646,1.98388 -14.01929,2.60669 -20.87906,1.64137l-2.14645,-2.87487c0,0 0,-2.5 2.5,-2.5c0.79445,0 1.33644,0.25246 1.7062,0.59693c5.49873,0.5998 11.31732,0.05174 16.65458,-1.44119c0.17381,-0.56699 0.70452,-1.11889 0.72419,-1.72283c0.00828,-0.25414 -0.43306,0.30377 -0.68543,0.3348c-0.75273,0.09254 -1.51837,-0.02257 -2.275,0.02918c-2.25504,0.15423 -4.51381,0.2494 -6.76921,0.39827c-7.89543,0.52115 -16.96277,2.47383 -24.05802,-1.83837l-3.9334,-0.73877c-2.30917,-4.75505 -2.68241,-10.86149 -3.05762,-16.1408c-0.17744,-2.49657 -0.2029,-5.14907 -1.3582,-7.49143c-1.32553,-2.68751 -3.81245,-4.16738 -6.07593,-5.90698c-0.95431,-0.73343 -3.61251,-3.1531 -4.75795,-3.72691c-2.98718,-1.49643 -7.03913,-1.96334 -10.29727,-3.01224l-0.42326,-0.01432c-7.11025,-1.77831 -14.39645,-3.53756 -21.77996,-3.52539c-2.18343,0.0036 -4.3584,0.5217 -6.53826,0.39693c-2.25021,-0.1288 -4.46062,-0.79655 -6.71451,-0.7972c-4.32116,-0.00126 -8.39557,1.50505 -12.46199,2.70061c-5.8637,1.72396 -11.78014,3.13635 -17.65231,4.81462c-3.3575,0.81195 -5.32911,2.43579 -8.42622,3.86734c-6.57524,3.03923 -14.69871,6.81475 -17.95132,13.96706c-2.48159,5.45687 -1.92176,11.53374 -1.12279,17.28592c1.00992,-0.13115 1.987,-0.27967 2.90012,-0.41012l0.76298,-0.29683c0,0 2.37171,-0.79057 3.16228,1.58114c0.79057,2.37171 -1.58114,3.16228 -1.58114,3.16228l-1.63698,0.50316c-4.10732,0.58679 -8.16259,1.00388 -12.30034,0.40099c-4.08538,-0.59527 -7.55138,-3.35992 -11.53954,-4.4719c-1.99775,-0.55701 -4.37147,-0.81949 -6.44555,-1.12606c-0.85931,-0.12701 -1.70791,-0.43059 -2.57582,-0.39503c-0.59574,0.02441 -1.13219,0.36867 -1.70432,0.54264c1.4049,0.01327 3.36731,0.7332 4.56552,0.89963c0,0 2.05965,0.29423 2.15265,2.2248c0.23614,0.35209 0.3938,0.82224 0.3938,1.45006c0,2.5 -2.5,2.5 -2.5,2.5l-1.15354,-0.02513c-5.47319,-0.7927 -10.65072,-3.71725 -16.27208,-2.44175c-2.44558,0.55491 -4.55923,1.89354 -6.14627,3.82867c-1.4367,1.75181 -0.82406,3.46048 0.61383,4.39077c0.76675,-0.43362 1.63413,-0.33724 1.63413,-0.33724c6.00195,0.69836 11.71142,-1.21047 17.72392,-1.2153c5.78109,-0.00465 11.57188,0.52464 17.33825,0.80381c4.31033,0.20868 8.26823,-0.61387 12.55786,-0.80165c6.89874,-0.302 13.78187,0.39264 20.68111,0.40412c6.15672,0.92418 11.9913,-0.02945 18.06743,-0.80145l2.95536,-0.00483c0,0 1.17135,0 1.91048,0.80179c0.50329,0.00089 0.8801,0.12649 0.8801,0.12649zM248.60435,239.22084l-2.87587,1.15035l-0.03862,-0.09654c-0.13676,0.05207 -0.27787,0.10701 -0.42296,0.16445c-0.63026,0.41935 -1.2816,0.80394 -1.96058,1.14086l-0.24533,-0.01647l0.02581,0.09035l-2.74447,0.78412c-0.01132,0.00352 -0.02267,0.00695 -0.03406,0.01031c-1.2029,0.45082 -2.42659,0.8556 -3.57655,1.11584c4.92015,0.68901 9.89432,0.67173 14.61286,-0.63513c-1.20351,-1.1665 -2.24702,-2.60912 -2.74023,-3.70813zM268.45148,234.49702l-0.75703,-1.85277c-0.75105,-0.03742 -1.50909,0.00578 -2.30256,0.23467c-0.47221,0.13622 -0.94221,0.27465 -1.4104,0.4148c0.76155,0.27339 1.50968,0.55978 2.21779,0.86468c0.73248,0.31539 1.46718,0.64831 2.12519,1.09888c0.33883,0.23202 0.73898,1.32091 0.82102,0.91853c0.0559,-0.2742 -0.08517,-0.55399 -0.25191,-0.82975c-0.05977,0.00393 -0.09359,0.00393 -0.09359,0.00393l-0.09227,-0.22583c-0.10661,0.02975 -0.21238,0.06211 -0.31715,0.09754zM290.18676,240.13012l-0.16663,-0.24995c-0.11488,0.19853 -0.27429,0.3847 -0.48674,0.55478c-0.07083,0.0567 -0.14174,0.11097 -0.21271,0.16285c1.3523,0.38978 2.71812,0.73347 4.11314,0.97681c-0.53848,-0.84324 -1.11315,-1.66437 -1.69647,-2.47822zM253.43965,238.08608c-0.07517,-0.13879 -0.13995,-0.27614 -0.18947,-0.41106c-0.00156,0.05519 0.0117,0.1148 0.04217,0.17943c0.03969,0.0842 0.08975,0.16068 0.1473,0.23163zM268.7949,225.76771c0.13894,-0.53417 -0.28956,-1.06525 -0.43993,-1.59632c-0.71121,-2.51185 -1.52367,-6.77346 -4.11168,-8.21168c-0.23242,-0.12916 -0.66537,-0.06762 -1.1543,0.07989c0.14642,0.13805 0.29443,0.2799 0.44439,0.42543c2.18293,3.32383 3.60902,7.65465 2.62262,11.14529c0.87252,-0.36913 2.43574,-1.06152 2.6389,-1.84262zM274.90001,248.45c0,2.5 -2.5,2.5 -2.5,2.5h-0.79999c-1.37145,-0.12446 -2.94969,0.36143 -4.11435,-0.37338c-1.70629,-1.07653 -2.48239,-4.46892 -3.01985,-6.39445c-0.27425,0.06437 -0.54679,0.12472 -0.81736,0.17988c0.01929,0.08453 0.02641,0.13437 0.02641,0.13437c0.38801,2.7159 0.40053,6.9419 1.97584,9.32367c1.18181,1.78682 4.24179,2.39071 6.61319,2.72722c0.15088,-1.0334 1.03613,-1.69732 1.03613,-1.69732l0.75917,-0.07778c0.70562,-1.459 0.80728,-3.42222 2.11685,-4.37701c1.18436,-0.8635 2.96394,0.00821 4.38229,-0.36143c0.83369,-0.21727 1.46756,-0.90291 2.20134,-1.35437c0,0 0.26945,-0.15397 0.67272,-0.25848c0.60864,-1.15534 1.25973,-2.28879 1.93406,-3.40787c-0.19366,-0.06468 -0.3871,-0.13108 -0.58033,-0.19923c-3.18749,-1.12414 -6.25045,-2.4537 -9.72107,-2.66743c-1.8768,-0.11558 -3.82956,0.25782 -5.7739,0.75242c0.52165,2.17287 0.05505,3.61764 2.30887,3.05122h0.79999c0,0 2.5,0 2.5,2.5zM281.84167,254.86625c-0.92103,0.2199 -1.98302,-0.80867 -2.81766,-0.36143c-0.60018,0.3216 -0.18878,1.34867 -0.28318,2.02301l-0.73886,0.70294c4.50365,0.32595 9.6646,-0.05528 12.43826,-3.53293c1.41297,-1.77159 2.34104,-4.85316 3.22146,-6.93747c-1.08319,-0.10434 -2.15897,-0.25273 -3.22779,-0.44766c-1.06817,1.71087 -2.09791,3.45055 -2.99784,5.25534l-0.71485,1.81042c0,0 -0.92846,2.3212 -3.24966,1.39273c-0.22419,-0.08967 -0.41806,-0.19234 -0.58538,-0.30465c-0.33358,0.1713 -0.67874,0.31237 -1.0445,0.3997zM318.8,251.15001l1.71318,0.09619c0.93334,-0.26667 1.86668,-0.53335 2.80002,-0.80002c0,0 2.28969,-0.65421 3.0382,1.54903c0.74363,-0.92442 1.5477,-1.8931 2.14902,-2.61348c-0.21882,-0.01094 -0.43741,-0.0231 -0.65574,-0.03658c-4.40894,-0.27227 -8.79444,-0.60249 -13.18823,-0.84676c0.56081,1.62831 1.16438,3.26934 1.65043,4.92922c0.14368,-2.27761 2.49313,-2.27761 2.49313,-2.27761zM318.8,256.15001c0,0 -1.29957,0 -2.02476,-0.93698c0.02397,0.10511 0.04724,0.21031 0.06979,0.31559c0.30781,1.4372 0.41826,2.91063 1.05548,4.18292c-0.00034,-0.02034 -0.00051,-0.04085 -0.00051,-0.06153c0,-1.59719 1.0204,-2.17397 1.75739,-2.38226c0.41398,-0.40091 0.83407,-0.7958 1.26046,-1.18373zM326.36174,258.00217c-1.33044,1.06092 -2.59244,2.21064 -3.79397,3.4156l-1.87277,0.63259c0.74897,0.20181 1.5493,0.25544 2.28222,0.30591c4.79697,0.33036 12.004,-2.57132 13.96808,-7.38626c0.74042,-1.81514 1.03575,-3.80438 1.81517,-5.59804c-1.68574,0.02688 -3.37991,0.07091 -5.07156,0.08824c0.28041,1.17171 -0.56837,2.19025 -0.56837,2.19025c-0.6915,0.82846 -1.24717,1.79253 -2.0745,2.48538c-0.48209,0.40373 -1.46242,0.15293 -1.74605,0.71415c-0.19378,0.38344 0.84518,0.15482 1.26777,0.23223l0.23223,-0.73223c0,0 2.5,0 2.5,2.5c0,2.5 -2.5,2.5 -2.5,2.5l-3.76777,-0.73223c-0.17071,-0.23541 -0.37566,-0.46049 -0.59558,-0.68105c-0.04679,0.04297 -0.07491,0.06546 -0.07491,0.06546z" fill="#000000" stroke-width="0.5"></path>
      <path d="M326.31946,258.02887c0,0 0.11278,-0.07571 0.15957,-0.11868c0.21992,0.22056 0.41755,0.43652 0.58826,0.67193l3.71796,0.7201c0,0 2.46651,0.03463 2.46651,-2.46537c0,-2.5 -2.48049,-2.44594 -2.48049,-2.44594l-0.23982,0.72567c-0.42259,-0.07741 -1.44445,0.07069 -1.25067,-0.31275c0.28363,-0.56122 1.31337,-0.30413 1.79546,-0.70786c0.82733,-0.69285 1.32152,-1.57807 2.01302,-2.40653c0,0 0.90635,-1.10008 0.62594,-2.27179c1.69165,-0.01733 3.40013,-0.04803 5.08587,-0.07491c-0.77942,1.79366 -1.06571,3.80589 -1.80613,5.62103c-1.96408,4.81494 -9.25679,7.75748 -14.05376,7.42712c-0.73292,-0.05047 -1.53846,-0.11051 -2.28743,-0.31232l1.95359,-0.6914c1.20153,-1.20496 2.38171,-2.29738 3.71215,-3.3583z" fill-opacity="0.21961" fill="#c7e5f9" stroke-width="0.5"></path>
      <path d="M320.95948,256.05632c-0.42639,0.38793 -0.83949,0.79885 -1.25347,1.19976c-0.73699,0.20829 -1.78616,0.75085 -1.78616,2.34804c0,0.02068 -0.03907,0.13317 -0.03873,0.15351c-0.63722,-1.27229 -0.76424,-2.82655 -1.07205,-4.26375c-0.02255,-0.10528 -0.04373,-0.21252 -0.0677,-0.31763c0.72519,0.93698 2.05686,0.92379 2.05686,0.92379z" fill-opacity="0.21961" fill="#c7e5f9" stroke-width="0.5"></path>
      <path d="M318.8499,251.14665c0,0 -2.44463,0.02453 -2.58831,2.30214c-0.48605,-1.65988 -1.09143,-3.33886 -1.65224,-4.96717c4.39379,0.24427 8.87481,0.57876 13.28375,0.85103c0.21833,0.01348 0.43725,0.027 0.65607,0.03794c-0.60132,0.72038 -1.40526,1.71076 -2.14889,2.63518c-0.74851,-2.20324 -3.13499,-1.54532 -3.13499,-1.54532c-0.93334,0.26667 -1.86708,0.53192 -2.80042,0.79859l-1.71475,-0.10568z" fill-opacity="0.21961" fill="#c7e5f9" stroke-width="0.5"></path>
      <path d="M274.87978,248.49575c0,-2.5 -2.45333,-2.50327 -2.45333,-2.50327l-0.79384,-0.00451c-2.25382,0.56642 -1.85127,-0.95513 -2.37292,-3.128c1.94434,-0.4946 3.93244,-0.879 5.80924,-0.76342c3.47062,0.21373 6.57548,1.573 9.76297,2.69714c0.19323,0.06815 0.38736,0.13619 0.58102,0.20087c-0.67433,1.11908 -1.32213,2.26592 -1.93077,3.42126c-0.40327,0.10451 -0.67262,0.25961 -0.67262,0.25961c-0.73378,0.45146 -1.36782,1.14679 -2.20151,1.36406c-1.41835,0.36964 -3.20538,-0.481 -4.38974,0.3825c-1.30957,0.95479 -1.45756,2.94105 -2.16318,4.40005l-0.76576,0.07679c0,0 -0.88941,0.66282 -1.04029,1.69622c-2.3714,-0.33651 -5.46114,-0.96556 -6.64295,-2.75238c-1.57531,-2.38177 -1.58887,-6.65075 -1.97688,-9.36665c0,0 -0.00693,-0.05027 -0.02622,-0.1348c0.27057,-0.05516 0.63305,-0.07186 0.9073,-0.13623c0.53746,1.92553 1.31832,5.28639 3.02461,6.36292c1.16466,0.73481 2.73738,0.23335 4.10883,0.35781l0.79597,-0.00613c0,0 2.48055,-0.01532 2.48055,-2.51532z" fill-opacity="0.21961" fill="#c7e5f9" stroke-width="0.5"></path>
      <path d="M282.92336,254.43313c0.16732,0.11231 0.35523,0.20935 0.57942,0.29902c2.3212,0.92847 3.19368,-1.39711 3.19368,-1.39711l0.69021,-1.75927c0.89993,-1.80479 2.01114,-3.59054 3.07931,-5.30141c1.06882,0.19493 2.15453,0.35455 3.23772,0.45889c-0.88042,2.08431 -1.80419,5.21189 -3.21716,6.98348c-2.77366,3.47765 -8.02204,3.86843 -12.52569,3.54248l0.73834,-0.70371c0.0944,-0.67434 -0.32186,-1.71072 0.27832,-2.03232c0.83464,-0.44724 1.98287,0.53263 2.9039,0.31273c0.36576,-0.08733 0.70837,-0.23148 1.04195,-0.40278z" fill-opacity="0.21961" fill="#c7e5f9" stroke-width="0.5"></path>
      <path d="M256.47986,246.35966c0,0 1.06465,-0.42754 1.46369,-1.42298c0.23772,0.01038 0.56994,0.04204 0.81315,0.03999c0.00356,0.14954 0.01663,0.24025 0.01663,0.24025c0.49889,3.49206 0.67481,8.47334 2.82603,11.46322c1.8853,2.62029 5.74787,3.95602 8.72874,4.60762c6.6682,1.45762 15.01846,2.1268 20.99201,-1.93255c3.80416,-2.58513 5.22169,-6.70742 6.96381,-10.76842l-0.13145,0.38337c0,0 0.91179,-0.90681 0.779,-2.06943l0.3736,-0.00029c0.61943,0.62306 1.48451,0.76553 1.48451,0.76553l2.82634,0.4366c1.97374,0 3.96051,0.05347 5.92324,0.12263c-0.0176,0.55272 0.12725,0.98294 0.12725,0.98294c1.66062,4.98194 1.97056,12.52426 6.31802,15.96212c7.47489,5.91094 21.84666,0.00121 25.42027,-8.04065c0.85042,-1.91374 1.03054,-4.08935 1.98181,-5.95503l0.24518,-1.77761c0.10661,-0.00949 0.21299,-0.02211 0.31907,-0.03848c0.43255,-0.06675 0.82523,-0.67514 1.26044,-0.62886c0.27253,0.02898 -0.34513,0.43507 -0.45178,0.68753c-0.30563,0.72348 -0.65731,1.45028 -0.77747,2.22641c-0.50651,3.27169 -0.02282,3.69097 -1.93513,6.51227c-6.24049,7.51708 -21.86938,15.62589 -30.13493,6.66511c-1.68127,-1.82268 -2.5294,-4.5398 -2.66781,-6.95411c-0.12424,-2.16718 0.61172,-6.22943 -1.81751,-7.80947c-5.35107,-3.48049 -9.97934,2.05925 -11.95763,5.97741c-1.46393,2.36287 -2.79369,4.35061 -5.17138,5.88742c-2.14038,1.38343 -2.61022,0.99508 -5.41077,1.73831c-7.89323,2.09476 -18.90486,-0.36925 -24.72745,-6.53539c-3.07527,-3.25671 -3.16263,-6.76026 -4.06469,-10.612l0.38519,-0.15346z" fill="#292f33" stroke-width="0.5"></path>
      <path d="M291.75131,239.04837c0.58332,0.81385 1.18686,1.7088 1.72534,2.55204c-1.39502,-0.24334 -2.85327,-0.60651 -4.20557,-0.99629c0.07097,-0.05188 0.14155,-0.10978 0.21238,-0.16648c0.21245,-0.17008 0.37438,-0.37485 0.48926,-0.57338l0.16476,0.25735z" fill="#ffce66" stroke-width="0.5"></path>
      <path d="M268.82376,225.80853c-0.20316,0.7811 -1.79353,1.48263 -2.66605,1.85176c0.9864,-3.49064 -0.46223,-7.91688 -2.64516,-11.24071c-0.14996,-0.14553 -0.29957,-0.28661 -0.44599,-0.42466c0.48893,-0.14751 0.93013,-0.21231 1.16255,-0.08315c2.58801,1.43822 3.44984,5.7833 4.16105,8.29515c0.15037,0.53107 0.57253,1.06747 0.43359,1.60164z" fill="#ffce66" stroke-width="0.5"></path>
      <path d="M268.43659,235.24124c0.10477,-0.03543 0.11685,-0.10241 0.22346,-0.13216l0.1863,0.25964c0,0 0.03411,-0.00072 0.09388,-0.00465c0.16674,0.27576 0.30269,0.56538 0.24679,0.83958c-0.08204,0.40238 -0.56912,-0.7353 -0.90795,-0.96732c-0.65801,-0.45057 -1.30793,-0.73174 -2.04041,-1.04713c-0.70811,-0.3049 -1.54128,-0.64247 -2.30283,-0.91586c0.46819,-0.14015 0.95384,-0.2982 1.42605,-0.43442c0.79347,-0.22889 1.60798,-0.27453 2.35903,-0.23711l0.78056,1.89649z" fill="#ffce66" stroke-width="0.5"></path>
      <path d="M248.64862,239.1976c0.49321,1.09901 1.54166,2.5737 2.74517,3.7402c-4.71854,1.30686 -9.79024,1.32818 -14.71039,0.63917c1.14996,-0.26024 2.37316,-0.66703 3.57606,-1.11785c0.01139,-0.00336 0.02273,-0.00682 0.03405,-0.01034l2.74332,-0.79307l-0.02577,-0.09502l0.24532,0.01666c0.67898,-0.33692 1.41633,-0.75353 2.04659,-1.17288c0.14509,-0.05744 0.28891,-0.10931 0.42567,-0.16138l0.04007,0.09841l2.8799,-1.14391z" fill="#ffce66" stroke-width="0.5"></path>
      <path d="M208.48827,227.40954c-0.25049,0.95324 -1.10149,1.52058 -1.10149,1.52058c-2.37797,1.51975 -10.04739,5.17715 -11.75144,-0.06877c-0.54997,-1.69307 1.14414,-3.41323 2.12194,-4.9008c1.42298,-2.16484 5.97297,-4.53463 8.36772,-5.11768c1.34504,-0.32748 2.87043,-0.97189 4.13322,-0.40468c1.68348,0.75618 3.71582,2.1456 3.84168,3.98682c0.11692,1.71045 -2.19963,2.63037 -3.29945,3.94555z" fill="#714c19" stroke-width="0.5"></path>
      <path d="M250.13102,208.38457c-0.2053,0.09864 -0.40964,0.19913 -0.61298,0.3015c0,0 -2.23607,1.11803 -3.3541,-1.11803c-1.11803,-2.23607 1.11803,-3.3541 1.11803,-3.3541c2.60806,-1.29608 4.95133,-2.70411 7.95502,-3.03742c1.48779,-0.16509 3.34523,-0.63247 4.47734,0.34687c7.26002,6.28035 -2.08043,8.07142 -6.20425,8.60733l-2.2281,-0.64462c0,0 -0.73434,-0.36717 -1.15096,-1.10152z" fill="#714c19" stroke-width="0.5"></path>
    </g>
  </g>
</svg>
