<?xml version="1.0" encoding="UTF-8"?>
<svg xmlns="http://www.w3.org/2000/svg" xmlns:xlink="http://www.w3.org/1999/xlink" version="1.1" width="127.79958" height="111.03302" viewBox="0,0,127.79958,111.03302">
  <g transform="translate(-176.10021,-124.48349)">
    <g stroke="none" stroke-miterlimit="10">
      <path d="M202.4053,227.31946l0.71023,-90.37744c0,0 5.72946,1.68658 13.23456,-2.42565c6.56391,-3.59655 17.74146,-3.9144 23.51413,-3.96962c5.54292,-0.05303 14.75552,-2.10344 23.46181,3.78943c7.48845,5.06858 14.04054,1.8956 14.04054,1.8956l1.42046,91.08766z" fill="#a2f9ff" stroke-width="0"></path>
      <path d="M184.52079,209.80754v-43.22088h111.40555v43.22088z" fill="#a2f9ff" stroke-width="0"></path>
      <path d="M193.09044,219.12241v-69.30245h93.89365v69.30245z" fill="#a2f9ff" stroke-width="0"></path>
      <path d="M235.71519,235.51651v-8.56967h8.56965v8.56967z" fill="#000000" stroke-width="NaN"></path>
      <path d="M244.28486,235.51651v-8.56967h8.56965v8.56967z" fill="#000000" stroke-width="NaN"></path>
      <path d="M252.85451,235.51651v-8.56967h8.56966v8.56967z" fill="#000000" stroke-width="NaN"></path>
      <path d="M261.42418,235.51651v-8.56967h8.56965v8.56967z" fill="#000000" stroke-width="NaN"></path>
      <path d="M218.94848,235.51651v-8.56967h8.56966v8.56967z" fill="#000000" stroke-width="NaN"></path>
      <path d="M227.51814,235.51651v-8.56967h8.56965v8.56967z" fill="#000000" stroke-width="NaN"></path>
      <path d="M269.62123,235.51651v-8.56967h8.56965v8.56967z" fill="#000000" stroke-width="NaN"></path>
      <path d="M278.19093,226.94688v-8.56968h8.56965v8.56968z" fill="#000000" stroke-width="NaN"></path>
      <path d="M210.37881,235.51651v-8.56967h8.56965v8.56967z" fill="#000000" stroke-width="NaN"></path>
      <path d="M193.98471,226.94688v-8.56968h8.56965v8.56968z" fill="#000000" stroke-width="NaN"></path>
      <path d="M202.18176,235.51651v-8.56967h8.56965v8.56967z" fill="#000000" stroke-width="NaN"></path>
      <path d="M185.04246,218.37723v-8.56968h8.56966v8.56968z" fill="#000000" stroke-width="NaN"></path>
      <path d="M286.76056,218.37723v-8.56968h8.56965v8.56968z" fill="#000000" stroke-width="NaN"></path>
      <path d="M176.10021,209.43497v-8.56967h8.56965v8.56967z" fill="#000000" stroke-width="NaN"></path>
      <path d="M295.33014,192.29565v-8.56967h8.56965v8.56967z" fill="#000000" stroke-width="NaN"></path>
      <path d="M176.10021,184.09856v-8.56968h8.56965v8.56968z" fill="#000000" stroke-width="NaN"></path>
      <path d="M176.10021,192.66826v-8.56967h8.56965v8.56967z" fill="#000000" stroke-width="NaN"></path>
      <path d="M295.33014,209.43497v-8.56967h8.56965v8.56967z" fill="#000000" stroke-width="NaN"></path>
      <path d="M176.10021,201.2379v-8.56967h8.56965v8.56967z" fill="#000000" stroke-width="NaN"></path>
      <path d="M295.33014,200.86528v-8.56967h8.56965v8.56967z" fill="#000000" stroke-width="NaN"></path>
      <path d="M295.33014,183.726v-8.56967h8.56965v8.56967z" fill="#000000" stroke-width="NaN"></path>
      <path d="M176.10021,175.5289v-8.56967h8.56965v8.56967z" fill="#000000" stroke-width="NaN"></path>
      <path d="M295.33014,175.15629v-8.56968h8.56965v8.56968z" fill="#000000" stroke-width="NaN"></path>
      <path d="M185.04246,166.95928v-8.56967h8.56966v8.56967z" fill="#000000" stroke-width="NaN"></path>
      <path d="M185.04246,158.76218v-8.56968h8.56966v8.56968z" fill="#000000" stroke-width="NaN"></path>
      <path d="M286.76056,166.58665v-8.56967h8.56965v8.56967z" fill="#000000" stroke-width="NaN"></path>
      <path d="M286.76056,158.38956v-8.56967h8.56965v8.56967z" fill="#000000" stroke-width="NaN"></path>
      <path d="M278.19093,149.81988v-8.56967h8.56965v8.56967z" fill="#000000" stroke-width="NaN"></path>
      <path d="M193.98471,149.81988v-8.56967h8.56965v8.56967z" fill="#000000" stroke-width="NaN"></path>
      <path d="M202.18176,141.25031v-8.56965h8.56965v8.56965z" fill="#000000" stroke-width="NaN"></path>
      <path d="M210.37881,141.25031v-8.56965h8.56965v8.56965z" fill="#000000" stroke-width="NaN"></path>
      <path d="M269.80754,141.25031v-8.56968h8.56965v8.56968z" fill="#000000" stroke-width="NaN"></path>
      <path d="M261.23783,141.25031v-8.56968h8.56965v8.56968z" fill="#000000" stroke-width="NaN"></path>
      <path d="M227.23869,133.05317v-8.56968h8.56966v8.56968z" fill="#000000" stroke-width="NaN"></path>
      <path d="M235.80832,133.05317v-8.56968h8.56965v8.56968z" fill="#000000" stroke-width="NaN"></path>
      <path d="M244.19168,133.05317v-8.56968h8.56965v8.56968z" fill="#000000" stroke-width="NaN"></path>
      <path d="M252.85451,133.05317v-8.56968h8.56966v8.56968z" fill="#000000" stroke-width="NaN"></path>
      <path d="M218.94848,133.05317v-8.56968h8.56966v8.56968z" fill="#000000" stroke-width="NaN"></path>
    </g>
  </g>
</svg>
