<?xml version="1.0" encoding="UTF-8"?>
<svg xmlns="http://www.w3.org/2000/svg" xmlns:xlink="http://www.w3.org/1999/xlink" version="1.1" width="156.52906" height="184.774" viewBox="0,0,156.52906,184.774">
  <g transform="translate(-161.73551,-67.27385)">
    <g stroke="none" stroke-miterlimit="10">
      <path d="M241.88819,102.66044c0.04343,1.7228 1.08849,2.39467 1.92586,2.65621c-0.0014,0.04924 -0.00071,0.07646 -0.00071,0.07646c0.2001,5.85363 -0.46191,12.13912 -2.19469,17.79473l-0.0719,2.65645c0,0 0.0793,2.89579 2.97434,2.82281c1.83497,-0.04625 2.48178,-1.22538 2.70634,-2.08334c0.02434,0.00844 0.03764,0.0125 0.03764,0.0125c2.53752,0.74493 5.26857,0.60297 7.90213,0.84436c1.94552,0.17832 3.67445,1.47763 5.6133,1.71786c5.08696,0.63031 10.44846,1.26481 15.52927,0.15734c0.38655,0.23346 0.8869,0.38711 1.53213,0.38828c0.14526,2.77887 2.96622,2.71183 2.96622,2.71183l-0.37629,-0.29683c3.37525,1.56668 7.04028,1.91531 10.311,3.46728c3.51725,1.66895 7.66709,4.39245 10.73411,6.79255c4.46735,3.49594 6.11851,8.06459 7.73273,13.21901c1.08618,3.46828 2.44749,6.89824 2.94448,10.53377c1.05178,7.69377 -0.49097,15.36872 -0.36843,22.91514c0.21648,6.83221 -1.03956,13.92265 -3.04992,20.49331c-0.66193,2.16348 -1.07332,5.91334 -2.30372,7.79792c-1.76342,2.70096 -4.31074,4.77647 -6.61965,6.8698c-2.50281,2.26912 -4.18035,5.32915 -6.5099,7.77582c-2.54048,2.66819 -5.04265,4.93967 -7.41693,7.5032c0.95629,-4.66918 1.12731,-9.34958 0.99347,-14.65929c-0.11345,-4.50046 0.09159,-8.64079 -1.40563,-12.92876c0,0 -0.29348,-0.92772 -1.20069,-1.49411c-0.50326,-0.64514 -1.16912,-0.95711 -1.16912,-0.95711l-4.25048,-0.9171c-1.52846,0.65654 -3.06054,1.3156 -4.58899,1.97214c-2.66393,1.14581 -5.04589,3.01998 -7.84451,3.77974c-1.12772,0.30614 -2.35543,-0.14286 -3.50804,0.04945c-0.96349,0.16078 -1.79084,0.86341 -2.75842,0.99742c-4.47439,0.61975 -9.18989,-0.20517 -13.6845,0.31998c-1.77255,0.20711 -3.47101,1.00598 -5.25509,1.0502c-1.64841,0.04085 -3.23824,-0.84073 -4.88664,-0.79879c-0.95442,0.02428 -1.73537,0.96443 -2.68975,0.99107c-1.1217,0.03131 -2.14905,-0.72784 -3.26692,-0.82556c-5.3212,-0.46514 -10.59866,-0.1972 -15.90154,-0.54234c-4.37417,-0.28469 -8.56705,-1.99781 -12.82387,-2.43574c-3.97137,-0.40857 -6.67659,-0.24408 -10.52089,-1.41045c-4.59608,-2.15502 -10.36132,-3.81034 -14.14466,-7.42324c-2.78755,-2.66196 -5.78095,-7.73904 -6.89068,-11.41681c-0.87536,-2.90103 -0.53316,-6.05416 -1.11074,-9.02882c-1.2322,-6.34607 -1.7596,-13.14261 -1.39369,-19.64582c0.29935,-5.3203 1.51917,-10.24407 1.46721,-15.59791c0.66615,-2.52942 0.83158,-5.8441 2.6696,-7.7452c2.28485,-2.36325 6.90747,-3.10919 9.88791,-4.19017c4.10847,-1.4901 9.06274,-3.21731 13.35767,-3.94189c2.4368,-0.41111 4.97535,0.21014 7.41383,-0.19095c5.79798,-0.95368 12.39634,-1.40605 17.9962,-3.36137c1.8373,-0.66431 3.68332,-1.33363 5.52061,-1.99797l0.94237,0.12434c0,0 1.15735,-0.03048 1.9898,-0.78032c0.34403,0.77763 1.08672,1.62739 2.67287,1.58741c2.89506,-0.07298 2.82828,-2.96942 2.82828,-2.96942c-0.02707,-1.07414 -0.20163,-8.42574 -0.25756,-8.80081c-0.02347,-0.15743 -0.07019,-0.3093 -0.13072,-0.45774c0.14341,-0.51859 0.13334,-0.93236 0.13334,-0.93236l-0.06968,-2.7793c-0.03823,-1.3302 0.57487,-2.72906 -0.10063,-3.87561c-0.04408,-0.07483 -0.09324,-0.14396 -0.14717,-0.20802c0.00168,-0.01745 -0.01054,-0.1499 -0.00891,-0.16736l0.0932,-0.02108l-0.05255,-0.17759c0.00271,-0.03513 -0.00839,-0.18529 -0.00589,-0.22043c0.25619,-0.10082 2.66063,-1.00534 1.72806,-3.58447c-0.77769,-2.15086 -2.63651,-1.9892 -3.38513,-1.826c-0.54617,-0.59694 -1.33603,-0.96337 -2.20837,-0.94138c-0.92866,0.02341 -1.74173,0.48101 -2.25435,1.17423c-4.40754,-1.8822 -6.70452,-10.33202 -7.26494,-14.19539c-0.60166,-4.14772 0.36201,-5.11077 2.81341,-8.08527c2.33119,-2.82861 2.16034,-4.17249 5.40113,-5.90821c1.98519,-1.06324 5.08124,-0.7762 7.0822,-0.82465c5.10667,-0.12369 8.53628,0.09175 12.16971,3.67212c5.63231,3.14866 6.99706,14.94999 2.12459,19.8742c-1.43368,1.44891 -3.36166,2.3005 -5.02862,3.47354l-0.25888,-0.47997c0,0 -2.89234,0.07316 -2.81936,2.96821z" fill="#e36f00" stroke-width="0.25"></path>
      <path d="M235.92721,122.96482c0.0001,-0.01904 0.00017,-0.03774 0.00024,-0.0561c0.00383,-1.13565 -0.27965,-6.7185 -0.1739,-7.52171c0.16441,-1.24884 0.55358,-2.47904 1.09296,-3.61731c0.35228,-0.74344 1.37103,-1.12562 1.53637,-1.93151c0.11282,-0.54992 -0.65168,-0.93067 -0.84074,-1.45924c-0.89663,-2.50657 -1.74178,-1.77237 -4.7245,-2.68377c0,0 -2.31921,-0.70865 -2.06458,-2.95127l-0.36652,-0.40394l-0.19077,0.30239l-2.22986,-1.40676c-3.64565,-0.25993 -7.17918,-1.29837 -9.9303,-2.92175c0,0 -2.4493,-1.54519 -0.9041,-3.9945c1.54519,-2.4493 3.99448,-0.90411 3.99448,-0.90411c1.50718,1.05886 3.54756,1.06462 5.37811,1.26931c1.27287,0.14233 2.5456,0.61545 3.81207,0.7935l1.98958,-0.05015c6.84638,-1.3937 10.13286,-7.84063 11.97107,-14.08006v0l0.83683,-2.73874c0.33399,-1.19217 1.4138,-2.07984 2.7161,-2.11266c0.84501,-0.0213 1.61459,0.32155 2.15839,0.88563c0.59172,0.06618 1.02018,0.26708 1.02018,0.26708l3.37022,2.51706c0.38936,1.22254 1.13576,2.38499 1.16809,3.66764c0.09868,3.9151 -2.3216,8.87025 -5.40034,12.35419c-0.96288,2.27408 -2.38999,4.26758 -4.43956,5.55003c0.62151,0.19794 1.15367,0.6005 1.51504,1.13027l1.89702,2.69581l-0.2924,0.20575l0.67371,0.55206c0.25205,5.45996 -0.17424,16.24122 -5.23409,20.02549c-0.91268,0.6826 -2.07674,0.87418 -3.2174,1.11561c-0.23075,0.48294 -0.52531,0.94172 -0.89822,1.36948c-1.14866,1.3176 -3.23774,1.3187 -4.85662,1.97804l-0.79758,-0.52371l-0.12168,0.39822l-2.73877,-0.83686c-1.19215,-0.33401 -2.07981,-1.4138 -2.11264,-2.7161c-0.03473,-1.37776 0.89863,-2.55501 2.1805,-2.88008l3.52527,-0.97631c0.22384,-0.12475 0.45752,-0.22629 0.69833,-0.31093zM241.99443,103.89506c0.06674,-0.31475 0.18475,-0.61109 0.3451,-0.87956c-0.23002,0.03947 -0.46705,0.07352 -0.71004,0.10268c0.11084,0.21604 0.23414,0.47955 0.36494,0.7769z" fill="#9f4d00" stroke-width="0.5"></path>
      <path d="M312.00198,195.53836c2.76957,0.84626 1.92332,3.61582 1.92332,3.61582l-0.85636,2.80263c-0.85889,2.81068 -1.6008,5.10622 -2.89628,7.53656c-0.6689,5.64976 -2.41145,12.01478 -5.36547,15.84037c-2.40862,3.11927 -5.69353,5.55361 -8.17785,8.61064c-1.33054,1.63727 -3.72893,5.84546 -5.73805,6.97592c-0.0836,0.04704 -0.16784,0.0926 -0.2527,0.13677l0.02744,0.03899l-2.7002,1.90012c-0.45789,0.33229 -1.01768,0.53415 -1.62601,0.54949c-1.59889,0.0403 -2.92774,-1.22318 -2.96804,-2.82208c-0.00866,-0.34382 0.04296,-0.67516 0.14525,-0.98388l0.62279,-2.03826c-1.14884,-2.93346 -1.50452,-6.95094 -1.41158,-10.54875c-0.27924,-3.29465 -0.33881,-6.97659 -0.12163,-10.12293c-0.27251,-2.83103 -0.11644,-5.74789 0.45613,-8.5135c-0.06032,-0.21785 -0.13072,-0.44525 -0.2123,-0.68409c-0.64304,0.36603 -1.29017,0.68505 -1.94131,0.96398c-0.14589,1.10294 -0.91485,2.016 -1.94902,2.3628l-2.69313,0.97376v0c-0.498,0.17389 -1.00638,0.33695 -1.52319,0.48953c-0.51038,0.29514 -1.18392,0.37751 -1.81585,0.48601c-0.44049,0.10646 -0.88521,0.20606 -1.33302,0.29904c-3.1261,0.72565 -6.31666,1.1691 -9.4325,1.94008c-3.663,0.90637 -5.11032,1.81582 -9.04719,1.25353c-3.15546,0.27218 -5.47277,1.45795 -8.65528,2.00689c-5.9976,1.03448 -11.66719,1.50277 -17.70747,0.4275c-1.73525,-0.3089 -3.71221,-0.01473 -5.19969,-0.96021c-0.15914,-0.10115 -0.31256,-0.20898 -0.46094,-0.32263l-0.04375,0.06934l-2.788,-1.75878c-0.24995,-0.15263 -0.4752,-0.3422 -0.66799,-0.56128c-2.45827,-0.07646 -4.94169,0.5255 -7.39368,0.27736c-3.53141,-0.35739 -6.74407,-2.233 -10.26064,-2.52237c-0.13305,-0.01095 -8.24505,0.2843 -8.44818,0.19725c-0.14415,-0.06177 -0.28542,-0.12841 -0.42412,-0.1994l-0.03044,0.09962l-2.73877,-0.83683c-0.9332,-0.26144 -1.6798,-0.97985 -1.97589,-1.90425c-1.71794,-0.4295 -3.40235,-1.0012 -5.02641,-1.79431c-2.24475,-1.09622 -3.7276,-3.328 -5.53799,-5.04936c-0.80715,-0.76746 -2.02491,-1.00896 -2.82599,-1.78278c-2.68138,-2.59016 -2.97238,-4.93858 -6.22136,-6.89727c0,0 -2.44932,-1.54516 -0.90416,-3.99447c1.54516,-2.44932 3.99447,-0.90416 3.99447,-0.90416c1.09212,0.71113 2.33188,1.23538 3.27634,2.13339c1.61429,1.53491 2.2171,3.94542 3.84574,5.46509c0.81433,0.75984 2.01883,1.01532 2.82599,1.78278c1.35644,1.28974 2.24613,3.22833 3.95972,3.9813c5.18926,2.28021 10.5073,2.41198 15.95429,3.04872c3.34524,0.39104 6.72137,1.28381 10.12688,1.58301c5.88299,0.51685 11.2926,-0.69359 17.15689,0.58837c3.44047,1.10291 6.58642,0.65426 10.20161,0.55446c2.23774,-0.53559 4.50972,-1.04082 6.58801,-1.09321c0.00445,-0.00011 0.00891,-0.00023 0.01336,-0.00033c0.76704,-0.07486 1.53511,-0.09348 2.3042,-0.02068c0.38955,0.03687 0.76525,0.094 1.12989,0.16679c4.55568,-0.69266 9.03182,-1.63446 13.64502,-2.39325c6.72483,-1.10611 14.2912,0.4414 20.0834,-3.76516l3.44644,-0.5734c0,0 2.68466,-0.06769 2.94861,2.51257c0.19656,0.18893 0.35436,0.39126 0.47702,0.57605c2.05932,1.03038 1.33978,3.38527 1.33978,3.38527c-0.06611,0.20517 -0.12832,0.41314 -0.18669,0.62358c0.2912,2.37907 -0.08323,4.44231 -0.42976,7.28294c-0.03748,0.30727 -0.06624,0.61937 -0.08747,0.93544c0.03853,0.30908 0.08329,0.61484 0.13415,0.91635c0.18762,1.11237 1.01711,2.09099 1.04553,3.21872c0.02843,1.12772 -0.7507,2.14685 -0.88204,3.26726c-0.00506,0.0432 -0.01002,0.08651 -0.01488,0.12989c0.05107,0.74534 0.09278,1.477 0.11062,2.18468c0.00513,0.20361 0.08581,0.66974 0.14882,1.24285c1.29109,-1.26129 2.8027,-2.34611 3.74764,-3.87497c0.33618,-0.54391 3.68135,-5.85249 3.91617,-6.10227c2.00014,-2.1277 3.5245,-1.73436 5.03939,-4.23663c1.0903,-1.80093 1.57991,-3.92558 2.69092,-5.7138c0.06967,-0.10834 0.13749,-0.216 0.20357,-0.32304c0.12739,-1.26016 0.1794,-2.4863 0.13698,-3.64069l-0.02335,-0.9264c0,0 -0.07297,-2.89506 2.82208,-2.96804c0.02515,-0.00063 0.0501,-0.00105 0.07483,-0.00124l0.8175,-2.67547c0,0 0.84625,-2.76958 3.61582,-1.92332z" fill="#9f4d00" stroke-width="0.5"></path>
      <path d="M241.88581,102.71834c-0.07297,-2.89506 2.82208,-2.96804 2.82208,-2.96804l0.25917,0.47999c1.66696,-1.17304 3.59936,-2.02404 5.03304,-3.47296c4.87247,-4.92422 3.49198,-16.61085 -2.14032,-19.75951c-3.63342,-3.58038 -7.05437,-3.79557 -12.16105,-3.67188c-2.00096,0.04846 -5.0921,-0.23904 -7.07728,0.82421c-3.24079,1.73573 -3.06548,3.07883 -5.39666,5.90744c-2.4514,2.9745 -3.41157,3.93668 -2.80991,8.0844c0.56041,3.86337 2.82935,12.20084 7.23689,14.08304c0.51262,-0.69322 1.32814,-1.15132 2.2568,-1.17473c0.87235,-0.02199 1.6643,0.34413 2.21045,0.94106c0.74862,-0.1632 2.6108,-0.32522 3.38849,1.82564c0.93257,2.57913 -1.46053,3.59892 -1.71671,3.69974c-0.00249,0.03513 -0.0051,0.07027 -0.0078,0.1054l0.06623,0.29263l-0.09309,0.02107c-0.00163,0.01745 -0.0033,0.0349 -0.00498,0.05235c0.05392,0.06406 0.10323,0.13318 0.14731,0.20801c0.67549,1.14655 0.07645,2.66039 0.11469,3.99059l0.07006,2.77925c0,0 0.01042,0.41371 -0.13299,0.9323c0.06053,0.14844 0.10715,0.30032 0.13063,0.45775c0.05593,0.37508 0.23216,7.72642 0.25924,8.80056c0,0 0.07298,2.89507 -2.82208,2.96804c-1.58614,0.03998 -2.32518,-0.81096 -2.66921,-1.58859c-0.83245,0.74984 -1.98623,0.77892 -1.98623,0.77892l-0.94105,-0.12493c-1.8373,0.66434 -3.67459,1.32864 -5.51188,1.99296c-5.59985,1.95531 -12.18279,2.39182 -17.98077,3.34551c-2.43847,0.40108 -4.97456,-0.22429 -7.41136,0.18682c-4.29494,0.72458 -9.24545,2.44331 -13.35393,3.9334c-2.98045,1.08098 -7.6014,1.82117 -9.88623,4.18442c-1.83802,1.9011 -2.00229,5.20923 -2.66843,7.73865c0.05197,5.35384 -1.16777,10.26502 -1.46711,15.58532c-0.3659,6.50322 0.15799,13.28495 1.3902,19.63102c0.57758,2.97465 0.23272,6.12181 1.10807,9.02284c1.10974,3.67779 4.09788,8.74653 6.88544,11.40849c3.78336,3.61289 9.54077,5.25978 14.13687,7.4148c3.84429,1.16637 6.54356,0.99726 10.51493,1.40582c4.25682,0.43793 8.4401,2.14581 12.81429,2.43051c5.30288,0.34514 10.56645,0.07319 15.88765,0.53834c1.11787,0.09772 2.14203,0.85647 3.26372,0.82516c0.95438,-0.02664 1.73281,-0.96699 2.68723,-0.99127c1.64838,-0.04193 3.23345,0.83956 4.88187,0.79871c1.78407,-0.04422 3.47736,-0.84272 5.24992,-1.04983c4.49462,-0.52515 9.19762,0.30264 13.672,-0.31711c0.96759,-0.13403 1.79236,-0.83568 2.75585,-0.99646c1.1526,-0.19233 2.37756,0.25788 3.50528,-0.04827c2.79861,-0.75976 5.17365,-2.63008 7.83758,-3.7759c1.52846,-0.65654 3.05693,-1.31307 4.58539,-1.96962l4.24858,0.91859c0,0 0.66568,0.31213 1.16893,0.95727c0.90722,0.56638 1.27484,1.58311 1.27484,1.58311c1.49722,4.28797 1.28818,8.43135 1.40163,12.9318c0.13385,5.3097 -0.0985,9.892 -1.0548,14.56118c2.37428,-2.56352 4.87107,-4.83158 7.41155,-7.49979c2.32955,-2.44667 4.00215,-5.50276 6.50497,-7.77188c2.30893,-2.09333 4.85189,-4.16452 6.61531,-6.86549c1.23041,-1.88458 1.63867,-5.63068 2.30059,-7.79416c2.01036,-6.57065 3.25957,-13.64956 3.04309,-20.48177c-0.12255,-7.54642 1.41564,-15.20511 0.36387,-22.89889c-0.49699,-3.63553 -1.85876,-7.0571 -2.94493,-10.52537c-1.61423,-5.15442 -3.26387,-9.71091 -7.73121,-13.20685c-3.06703,-2.4001 -7.21394,-5.11455 -10.73119,-6.7835c-3.27072,-1.55197 -6.93179,-1.89282 -10.30705,-3.4595l0.37602,0.29635c0,0 -2.81837,0.07104 -2.96363,-2.70783c-0.64522,-0.00117 -1.14466,-0.15359 -1.53122,-0.38706c-5.0808,1.10748 -10.43111,0.48423 -15.51808,-0.14608c-1.93884,-0.24024 -3.65966,-1.53437 -5.60518,-1.71269c-2.63356,-0.2414 -5.35175,-0.09449 -7.88926,-0.83942c0,0 -0.01323,-0.00405 -0.03757,-0.01249c-0.22456,0.85796 -0.86716,2.03797 -2.70213,2.08422c-2.89506,0.07298 -2.96803,-2.82208 -2.96803,-2.82208l0.07878,-2.77208c1.73278,-5.65561 2.38677,-11.82555 2.18667,-17.67919c0,0 -0.00069,-0.02723 0.00072,-0.07646c-0.83737,-0.26153 -1.88016,-0.93328 -1.92358,-2.65608zM214.5654,84.51294c0.35032,-3.0311 2.27443,-5.76341 4.18962,-8.13877c1.01218,-1.25539 1.69295,-2.7781 2.82203,-3.9295c4.83891,-4.93451 11.37481,-5.57046 17.96704,-4.99532c5.28063,0.4607 8.08594,1.48125 11.87369,4.97824c8.2939,5.65573 9.91174,20.63015 2.77975,28.32079c-0.17858,0.19258 -3.16701,2.30053 -4.83551,3.47313c0.22409,0.58099 0.23676,1.08343 0.23676,1.08343c0.09319,5.215 -0.29456,10.54493 -1.43476,15.69016c0.45773,0.01993 0.77953,0.11826 0.77953,0.11826c2.22385,0.71658 4.65672,0.39262 6.98005,0.63982c1.94271,0.2067 3.66315,1.49996 5.60521,1.7127c4.92356,0.53935 10.51142,1.53928 15.29911,-0.27439l3.78011,3.46413c0.00287,-0.0001 0.00434,-0.00014 0.00434,-0.00014l2.22882,0.24965c3.37669,1.60192 6.92673,1.88886 10.26094,3.43812c3.84982,1.78886 8.55743,4.82809 11.87643,7.47871c10.05248,8.02809 12.76955,23.21325 13.0738,35.28295c0.01657,0.6571 0.24651,9.32963 0.20784,9.72886c-0.1957,2.02002 -0.81178,4.01551 -0.73725,6.04362c0.14885,7.49483 -1.09454,15.11261 -3.29406,22.32025c-0.81302,2.66422 -1.39046,6.66861 -2.83763,9.02151c-1.99726,3.24728 -5.08057,5.86171 -7.83366,8.33083c-2.37418,2.12929 -3.89532,5.06512 -6.09132,7.37773c-1.04532,1.10083 -2.53502,1.71349 -3.58105,2.81365c-0.78561,0.82625 -1.05184,2.05862 -1.83731,2.885c-0.76733,0.80729 -1.9633,1.11745 -2.73257,1.92287c-1.73154,1.81291 -2.51739,4.637 -4.69882,5.87238c-0.08344,0.04725 -0.16754,0.09301 -0.25227,0.13736l0.02702,0.03838l-2.70012,1.90008c-0.45789,0.3323 -1.01769,0.53416 -1.62601,0.54949c-1.59889,0.0403 -2.92773,-1.22318 -2.96804,-2.82208c-0.00866,-0.34383 0.04296,-0.67515 0.14523,-0.98388l0.83659,-2.73795l0.02883,0.00881l-0.00278,-0.08979c2.65527,-7.132 3.20767,-12.83862 3.01705,-20.40079c-0.09355,-3.71095 0.28551,-7.30321 -0.95087,-10.81422c-1.21749,0.52296 -2.43498,1.04592 -3.65247,1.56889c-2.927,1.25548 -5.58536,3.19294 -8.65115,4.05581c-1.25412,0.35298 -2.62174,-0.08026 -3.90609,0.13855c-0.96295,0.16406 -1.78782,0.8657 -2.75585,0.99646c-4.6515,0.62834 -9.46432,-0.15632 -14.12053,0.38347c-1.96031,0.22726 -3.84757,1.03266 -5.82037,1.0832c-1.50097,0.03847 -2.92802,-0.85804 -4.42902,-0.82056c-0.99869,0.02493 -1.82589,0.97877 -2.82462,1.00165c-1.42556,0.03267 -2.77341,-0.72153 -4.19435,-0.84084c-5.23663,-0.43965 -10.45069,-0.17676 -15.6572,-0.52048c-4.50034,-0.2971 -8.89234,-2.05563 -13.26557,-2.4742c-4.30235,-0.41179 -7.59289,-0.44269 -11.81245,-1.73933c-5.26911,-2.4706 -11.57883,-4.39084 -15.92896,-8.51348c-3.57377,-3.38687 -7.18962,-9.4105 -8.59103,-14.15761c-0.9,-3.04864 -0.60429,-6.3387 -1.21179,-9.45882c-1.32739,-6.81755 -1.88383,-14.10154 -1.49027,-21.0846c0.30011,-5.32498 1.59947,-10.1867 1.45204,-15.55677c0,0 -0.00467,-0.18532 0.03524,-0.46337c0.03607,-0.27856 0.09025,-0.45586 0.09025,-0.45586c1.13457,-3.7031 1.32783,-7.51949 4.14302,-10.50684c3.02058,-3.20532 8.11929,-4.19993 12.11422,-5.64023c7.98765,-2.87977 16.23362,-4.1263 24.41905,-5.36182c4.73438,-0.71461 9.81209,-0.3936 14.32701,-2.10392c1.83729,-0.6643 3.67455,-1.32862 5.51184,-1.99295l2.76456,-0.21834c0,0 1.01909,-0.02569 1.86325,0.55804c0.03325,-1.56015 0.04314,-3.11809 -0.19099,-4.65531c-0.16447,-1.07996 -1.01072,-2.01563 -1.0406,-3.10764c-0.05243,-1.91636 0.52083,-3.80604 0.7193,-5.71234l-0.02061,-0.09109c-9.53707,-1.73146 -14.43382,-15.76454 -13.48159,-24.00369z" fill="#3e1e00" stroke-width="0.5"></path>
      <path d="M244.18372,162.67801c-3.00239,0.75058 -3.75297,-2.25181 -3.75297,-2.25181l-0.66459,-2.65842l-0.69034,0.65353c-0.66022,0.99033 -1.32045,1.98066 -1.98067,2.97099c0,0 -0.59973,0.89959 -1.62195,1.28087c0.00851,0.00278 0.01703,0.00559 0.02557,0.00844c2.26905,0.75633 2.19996,2.68175 2.05149,3.51748c0.09796,0.07535 0.18731,0.15402 0.26873,0.23535c0.3683,0.04839 0.76288,0.18049 1.17747,0.43079c0.62432,-0.33536 1.78594,-0.75087 2.93957,-0.06503c0.44844,-0.26343 0.90714,-0.35689 1.3324,-0.35683c0.00136,-2.05282 2.15702,-2.77139 2.15702,-2.77139c7.21718,-2.40016 13.93592,-3.08786 21.27996,-4.08021c2.06899,-0.27957 3.87714,-1.6718 5.94196,-1.98067c3.88932,-0.58178 6.71851,-0.94588 10.6388,-1.9282l1.81137,0.83178c0.218,-0.00089 0.44524,0.02562 0.67862,0.08883c0.33232,-0.37479 0.67372,-0.74072 1.02392,-1.09693l0.9904,-0.99036c0,0 2.18839,-2.1883 4.37669,0.00008c2.1883,2.18839 -0.00008,4.37669 -0.00008,4.37669l-0.40339,0.40337c0.01846,0.03725 0.03617,0.07425 0.05315,0.111c0.37835,-0.33797 2.34494,-1.90605 4.31156,0.06053c2.18837,2.18833 0.00004,4.37669 0.00004,4.37669l-2.31214,2.26818c-0.9617,0.7188 -1.88015,1.4647 -2.78157,2.219c-0.26227,0.86879 -0.84829,1.45482 -0.84829,1.45482l-3.96135,3.96135c0,0 -1.50925,1.50925 -3.27437,0.7676c-0.90032,0.29725 -2.36324,0.42032 -3.46963,-1.23926c-0.02293,-0.0344 -0.0451,-0.06865 -0.06652,-0.10274c-0.40843,0.61409 -0.81701,1.22808 -1.22573,1.84197c0.01942,0.15856 0.02972,0.32682 0.02972,0.50539c0,3.09479 -3.09479,3.09479 -3.09479,3.09479l-0.35114,-0.00109c-0.29893,0.07193 -0.62757,0.09559 -0.98241,0.04282l-3.22443,1.61222l-0.06738,-0.13475c-0.10409,0.09799 -0.20818,0.19598 -0.31228,0.29397l-0.42789,-0.04492l0.03047,0.15233l-4.889,0.97782c-0.21563,0.04756 -0.43969,0.07263 -0.66962,0.07263c-0.8557,0 -1.63028,-0.34728 -2.1905,-0.9086c-0.53033,0.06063 -1.06224,0.07602 -1.5964,0.02906c-0.90642,0.33646 -1.82796,0.62658 -2.76726,0.85634l-0.37814,-0.14523v0.16842h-3.96135c-1.05474,0 -1.98624,-0.52764 -2.54496,-1.33336c-1.16868,0.99915 -2.38802,1.9384 -3.66103,2.79423l-0.51867,0.60367c0,0 -2.05254,2.05254 -4.16979,0.19413l-0.12299,0.09335c0,0 -2.07819,1.55865 -3.85457,-0.08408c-0.00053,0.00053 -0.00106,0.00105 -0.00158,0.00158l-3.21637,2.16236c0,0 -2.55101,1.70069 -4.26759,-0.82252c-0.72823,0.37701 -2.10162,0.81107 -3.37005,-0.32299l-0.61769,0.34822c0,0 -2.19577,1.09787 -3.65382,-0.61768c-0.70716,-0.03632 -1.49044,-0.3555 -2.1867,-1.28385c-1.33096,-1.77463 -0.4359,-3.23125 0.17786,-3.91399l-3.60895,-0.72181c-1.12965,0.12821 -2.26349,0.28156 -3.31103,-0.08336c-0.09718,-0.03385 -0.19384,-0.06888 -0.28998,-0.10502l-0.012,0.05998l-4.89545,-0.97907c-0.46756,-0.08398 -0.89866,-0.27297 -1.26803,-0.54169c-0.88378,-0.14729 -1.76756,-0.29459 -2.65134,-0.44188c0,0 -2.01767,-0.33627 -2.49894,-2.10239c-2.85463,-0.74875 -5.63559,-1.82466 -8.27963,-3.13388c0,0 -2.05533,-1.02765 -1.73834,-3.08298l-0.27583,-0.55165c-1.50815,0 -3.01631,0 -4.52446,0h-0.99036c0,0 -3.09479,0 -3.09479,-3.09479c0,-0.39282 0.04986,-0.73578 0.13693,-1.03521c-0.90185,-2.47571 1.57385,-3.71354 1.57385,-3.71354l0.18784,-0.09118c-0.69165,-0.0646 -2.88894,-0.47502 -2.88894,-3.08272c0,-3.09479 3.09479,-3.09479 3.09479,-3.09479c0.83774,0 2.20699,0 3.65813,0c1.70161,-2.00321 4.00054,-0.47058 4.00054,-0.47058c0.2358,0.1747 0.47048,0.33073 0.70452,0.47058c0.20138,0 0.38577,0 0.54978,0c0,0 1.55366,0 2.45933,1.10082c1.68543,0.33153 3.4444,0.38273 5.45167,1.03867c3.61581,1.18157 5.70609,1.30618 9.4204,1.86178c4.96682,0.74296 8.63887,2.94954 13.86465,2.97103l3.45391,1.10917c0,0 1.6065,0.53549 2.04669,2.00261c0.1305,0.04679 0.25695,0.1021 0.37867,0.16525c0.30075,-0.45596 0.78756,-0.98926 1.51223,-1.23725c-0.22254,-0.09075 -0.45308,-0.2127 -0.69094,-0.37128c-2.57502,-1.71669 -0.85833,-4.2917 -0.85833,-4.2917c0.66022,-0.99033 1.32045,-1.98066 1.98067,-2.97099l0.13441,-0.13923c-2.19587,-0.20569 -2.59275,-2.58697 -2.59275,-2.58697l-0.46199,-2.77199c-0.9324,-0.53318 -1.56075,-1.53743 -1.56075,-2.68844c0,-1.06553 0.53849,-2.0053 1.35818,-2.56199c0.34083,-0.66229 0.99238,-1.27675 2.21816,-1.48105c3.05268,-0.50877 3.56145,2.54391 3.56145,2.54391l0.99032,5.94202c0,0 0.03217,0.19303 0.03179,0.4901c0.80546,-0.28484 1.88907,-0.31657 2.97976,0.71806l0.27376,-1.42576c0.66022,-0.99033 1.32045,-1.98066 1.98067,-2.97099c0,0 0.3308,-0.4962 0.9198,-0.90775c1.38927,-2.77788 2.78788,-5.49856 4.46177,-8.13291c0.01019,-1.02765 0.5604,-1.85297 0.5604,-1.85297l1.98067,-2.97103c0,0 1.71667,-2.57503 4.2917,-0.85835c2.57503,1.71667 0.85835,4.2917 0.85835,4.2917l-1.42058,2.13089c-0.0179,1.01717 -0.5601,1.83047 -0.5601,1.83047c-2.25767,3.37353 -3.93425,6.93165 -5.74894,10.561l-1.57007,1.79466c0,0 -0.03711,0.03711 -0.1065,0.09684c-0.05279,0.4384 -0.22875,1.26501 -0.81518,1.9052l0.74541,2.98168c0,0 0.75058,3.00239 -2.25181,3.75297zM246.00815,154.45997l0.07804,-0.10906c-0.00312,0.00203 -0.00625,0.00405 -0.00939,0.00608c-0.02288,0.03432 -0.04577,0.06865 -0.06865,0.10297zM270.48935,171.94805l2.97099,-4.95166l0.06222,0.03733c0.04921,-0.11709 0.09991,-0.23365 0.1522,-0.34964c0.01846,-0.04094 1.65551,-1.68592 3.24252,-3.27538c0.00399,-0.05375 0.00965,-0.10673 0.01684,-0.15893c-1.05831,0.16265 -2.14415,0.31545 -3.29527,0.471c-2.069,0.27958 -3.87716,1.67182 -5.942,1.98068c-6.66002,0.9962 -12.73797,1.47946 -19.25081,3.49999l2.34353,1.56236c1.29541,0.10322 2.17924,1.46361 3.27322,2.1821l1.11604,1.05118l0.21521,0.10411c2.25754,-0.43721 4.56148,-0.67243 6.85543,-0.68469h2.18456c1.37814,-0.34037 2.83939,-0.65915 4.44277,-0.97529l0.30496,0.09925v-0.11431h0.60863c0.44848,-0.08673 0.92754,-0.0781 1.41293,-0.04971zM222.42845,169.37128l0.4014,0.4014c0.67386,-0.82119 1.41774,-1.56889 2.25895,-2.20529l-0.3482,-0.46428l0.49189,-0.36891l-0.12106,-0.0424c-5.15033,0.02247 -9.01671,-2.31592 -13.86469,-2.97103c-1.30854,-0.17682 -2.65538,0.19534 -3.96128,0c-3.05229,-0.45656 -5.87807,-2.54377 -8.91303,-2.97099c-0.75869,-0.1068 -1.5422,-0.01024 -2.3174,0.04365c0.2101,0.48722 0.42855,0.97105 0.65321,1.45193l1.42062,2.13092c0.81867,0.54578 1.63733,1.09156 2.456,1.63734l1.46198,1.37699c0,0 0.21563,0.21563 0.44383,0.57921c0.68638,0.21954 1.37946,0.41596 2.07781,0.58695c0.00129,0.00031 0.00194,0.00047 0.00194,0.00047h0.00001c0.00001,0 0.00001,0 0.00002,0v0c2.40123,0.62548 4.76421,1.54331 6.9142,2.79292c0.17132,0.02855 0.34265,0.05711 0.51397,0.08566h1.72454v0.16419l0.37812,-0.141c0.11035,0.07829 0.2207,0.15659 0.33104,0.23488l0.04142,-0.16567l2.81947,0.70485c0.68867,0.04411 1.38596,0.14371 2.07611,0.19733z" fill="#262626" stroke-width="0.5"></path>
      <path d="M271.24917,172.39637c-0.48539,-0.02839 -0.96609,-0.0336 -1.41458,0.05313l-0.60955,0.00166l-0.00034,0.11487l-0.30521,-0.09883c-1.60338,0.31614 -3.09008,0.65585 -4.46822,0.99622l-2.20645,0.00286c-2.29395,0.01226 -4.63338,0.22753 -6.89092,0.66474l-0.21589,-0.10504l-1.12005,-1.0579c-1.09398,-0.71849 -1.98225,-2.09242 -3.27766,-2.19564l-2.34425,-1.56916c6.51284,-2.02053 12.68374,-2.53117 19.34376,-3.52737c2.06484,-0.30886 3.87556,-1.69618 5.94457,-1.97576c1.15112,-0.15555 2.23813,-0.30553 3.29645,-0.46819c-0.00719,0.0522 -0.01269,0.10562 -0.01668,0.15937c-1.58701,1.58946 -3.22175,3.24288 -3.24021,3.28382c-0.05229,0.11599 -0.10275,0.23398 -0.15196,0.35107l-0.06225,-0.03754l-2.97429,4.97871z" fill="#ffffff" stroke-width="0.5"></path>
      <path d="M219.41081,172.45829c-0.69015,-0.05362 -1.39088,-0.14868 -2.07955,-0.19279l-2.82698,-0.6977l-0.04226,0.1663c-0.11034,-0.07829 -0.22154,-0.15597 -0.3319,-0.23426l-0.38089,0.14282l0.00063,-0.16458l-1.73786,0.00591c-0.17132,-0.02855 -0.34739,-0.05604 -0.51871,-0.08459c-2.14999,-1.24961 -4.56914,-2.20111 -6.97037,-2.82659v0c-0.00001,0 -0.00001,0 -0.00002,0h-0.00001c0,0 -0.00065,-0.00016 -0.00194,-0.00047c-0.69835,-0.17099 -1.39319,-0.3745 -2.07957,-0.59404c-0.2282,-0.36358 -0.44433,-0.58292 -0.44433,-0.58292l-1.46213,-1.38451c-0.81867,-0.54578 -1.63666,-1.09743 -2.45533,-1.64321l-1.41913,-2.13711c-0.22466,-0.48088 -0.44184,-0.9683 -0.65194,-1.45552c0.7752,-0.05389 1.56002,-0.15347 2.31871,-0.04667c3.03496,0.42722 5.86778,2.50352 8.92007,2.96008c1.3059,0.19534 2.70126,-0.19341 4.00979,-0.01659c4.84798,0.65511 8.75399,3.04285 13.90432,3.02038l0.12106,0.04254l-0.49192,0.37023l0.34812,0.46583c-0.84121,0.6364 -1.58662,1.39337 -2.26048,2.21456l-0.40111,-0.40255z" fill="#ffffff" stroke-width="0.5"></path>
    </g>
  </g>
</svg>
