<?xml version="1.0" encoding="UTF-8"?>
<svg xmlns="http://www.w3.org/2000/svg" xmlns:xlink="http://www.w3.org/1999/xlink" version="1.1" width="27.89784" height="33.08901" viewBox="0,0,27.89784,33.08901">
  <g transform="translate(-226.05108,-163.45549)">
    <g stroke="none" stroke-width="0.5" stroke-miterlimit="10">
      <path d="M236.65794,174.3566c2.29997,-2.48148 3.61931,-5.84377 4.93442,-8.91211l0.47047,-1.17619c0.17726,-0.47474 0.63486,-0.8128 1.17141,-0.8128c0.5623,0 1.03788,0.37128 1.19497,0.88205l0.47644,1.42928l-0.02092,0.00697c0.02503,0.06169 0.04808,0.12435 0.06893,0.18809c0.69539,2.12623 -0.32776,5.32536 -0.22584,7.56209c0.03785,0.83053 0.23909,1.6516 0.23597,2.48299c-0.00077,0.20653 -0.41308,0.44473 -0.2474,0.56805c1.72157,1.28144 5.33228,0.64879 7.3275,2.06241c0.70383,0.49867 1.92861,0.88951 1.90468,1.75176c-0.1184,4.26555 -7.66431,2.955 -9.58765,5.10733c-0.67162,0.75158 -0.94087,2.68953 -1.12028,3.51437c-0.39843,1.78939 -0.58889,3.54452 -1.25659,5.24737l-0.46806,1.40419c-0.15709,0.51078 -0.63267,0.88206 -1.19497,0.88206c-0.64351,0 -1.17345,-0.48627 -1.2424,-1.11141l-0.24071,-1.92571l0.07252,-0.00907c-0.18384,-0.48748 -0.35576,-0.97917 -0.51189,-1.47593c-0.23018,-0.73239 -0.56143,-1.43558 -0.7283,-2.18494c-0.07469,-0.3354 0.31666,-0.87146 0.01221,-1.03078c-0.09974,-0.0522 -2.10648,0.79814 -2.23813,0.85087c-1.50957,0.60458 -6.86777,2.27745 -8.25856,1.29303c-3.90874,-2.76666 3.42968,-6.69539 4.75006,-8.14161c0.45009,-0.49299 -0.45387,-1.27949 -0.86237,-1.80745c-1.02113,-1.31973 -1.80785,-2.35435 -2.57462,-3.88822c-0.17121,-0.72338 -0.84445,-1.50445 -0.51363,-2.17015c1.30207,-2.62014 5.28943,-1.50411 7.29805,-1.01123l0.97108,0.24278c0,0 0.19171,0.04793 0.40362,0.1819zM236.35548,176.5843c-0.36592,0.10115 -0.70752,0.01575 -0.70752,0.01575l-0.97105,-0.24277c-0.50128,-0.12802 -5.17503,-0.98743 -3.89749,-0.26812c1.1058,2.211 4.71025,5.22123 3.36058,7.89945c-0.43658,0.86634 -3.21265,2.60829 -4.00331,3.39735c-0.50322,0.50221 -2.11855,1.79205 -1.44296,1.57062c2.22065,-0.72784 4.90553,-1.85331 7.1963,-2.15766c1.05273,-0.13986 2.25535,-0.58131 3.18522,-0.06832c0.74836,0.41285 0.68256,1.56798 0.98331,2.368c0.1324,0.35218 0.2791,0.69392 0.42018,1.02709c0.10046,-0.55158 0.1991,-1.10561 0.32142,-1.65713c0.37645,-1.66318 0.55701,-3.39326 1.79299,-4.73981c1.47325,-1.60505 4.83203,-1.80578 6.76222,-2.47341c0.1626,-0.05624 0.72901,-0.42816 1.26269,-0.62338c-0.30772,-0.05356 -0.61718,-0.12619 -0.79507,-0.1947c-0.6034,-0.2324 -1.19231,-0.50971 -1.81427,-0.68652c-1.39448,-0.39643 -4.28429,-0.55048 -5.28551,-1.66669c-0.43872,-0.48911 -0.18404,-1.30134 -0.2564,-1.95438c-0.24164,-2.18101 -0.17084,-4.19855 -0.06237,-6.32218c-1.13876,2.44095 -2.46714,4.80271 -4.35556,6.70653c0,0 -0.83498,0.83498 -1.69339,0.07027z" fill="#7c0000"></path>
      <path d="M238.02866,176.46829c1.88842,-1.90382 3.25043,-4.26801 4.38919,-6.70896c-0.10847,2.12362 -0.16259,4.1494 0.07905,6.33041c0.07235,0.65305 -0.16951,1.47954 0.26921,1.96865c1.00122,1.1162 3.8981,1.29463 5.29258,1.69106c0.62196,0.17682 1.21083,0.45769 1.81423,0.6901c0.17789,0.06852 0.48731,0.14186 0.79503,0.19542c-0.53368,0.19521 -1.10043,0.57066 -1.26302,0.6269c-1.93019,0.66763 -5.30725,0.90082 -6.7805,2.50587c-1.23597,1.34655 -1.4407,3.08712 -1.81714,4.7503c-0.12233,0.55152 -0.22366,1.10587 -0.32412,1.65744c-0.14108,-0.33317 -0.28957,-0.67478 -0.42197,-1.02696c-0.30075,-0.80002 -0.24128,-1.95522 -0.98964,-2.36807c-0.92987,-0.51299 -2.15254,-0.0774 -3.20527,0.06246c-2.29077,0.30435 -4.99046,1.41766 -7.21111,2.1455c-0.67558,0.22143 0.93898,-1.06936 1.4422,-1.57157c0.79066,-0.78906 3.56584,-2.53217 4.00243,-3.39851c1.34967,-2.67822 -2.26033,-5.73836 -3.36614,-7.94937c-1.27754,-0.7193 3.40171,0.13061 3.90299,0.25863l0.97334,0.23989c0,0 0.34509,0.08173 0.71101,-0.01942c0.8584,0.7647 1.70765,-0.07979 1.70765,-0.07979z" fill="#b90000"></path>
    </g>
  </g>
</svg>
