<?xml version="1.0" encoding="UTF-8"?>
<svg xmlns="http://www.w3.org/2000/svg" xmlns:xlink="http://www.w3.org/1999/xlink" version="1.1" width="121" height="362" viewBox="0,0,121,362">
  <g transform="translate(3.39999,2.10001)">
    <g stroke-miterlimit="10">
      <path d="M-3.39999,359.89999v-362h121v362z" fill="#f566ff" stroke="none" stroke-width="0"></path>
      <path d="M16.72501,247.68703v-137.57407h80.75v137.57407z" fill="none" stroke="#ffffff" stroke-width="1"></path>
      <g fill="#ffffff" stroke="none" stroke-width="0">
        <path d="M72.40261,181.1394c-3.62577,0 -14.65914,0 -14.65914,0v-4.42893c0,0 11.03337,0 14.65914,0c1.04405,0 2.01706,0.64036 2.01706,1.355c0,0.5959 0,1.24343 0,1.6144c0,0.57199 -0.97301,1.45952 -2.01706,1.45952z"></path>
        <path d="M56.72628,185.70225c-2.01167,-0.79492 -12.83215,-5.07064 -16.4477,-6.49932c-0.73923,-0.29212 -0.64935,-0.66331 0.22616,-0.99185c3.87789,-1.45519 14.57512,-5.46931 16.4228,-6.16266c0.53323,-0.2001 0.98818,0.30916 0.98818,0.99968c0,1.69555 0,8.96343 0,11.89304c0,0.76248 -0.55999,1.00983 -1.18944,0.7611z"></path>
      </g>
    </g>
  </g>
</svg>
