<?xml version="1.0" encoding="UTF-8"?>
<svg xmlns="http://www.w3.org/2000/svg" xmlns:xlink="http://www.w3.org/1999/xlink" version="1.1" width="70.85748" height="70.85747" viewBox="0,0,70.85748,70.85747">
  <g transform="translate(-204.57126,-144.57127)">
    <g stroke-miterlimit="10">
      <path d="M204.57126,197.29975c0,-13.18522 0,-29.94078 0,-37.17112c0,-6.77705 9.24868,-15.55736 16.26237,-15.55736c7.79138,0 26.20389,0 39.49433,0c8.63031,0 15.10078,11.13866 15.10078,19.04217c0,7.78889 0,24.76513 0,37.17112c0,8.35965 -5.31082,14.64418 -12.77759,14.64418c-14.11219,0 -35.92558,0 -44.14071,0c-6.21645,0 -13.93918,-8.01385 -13.93918,-18.12896z" fill="#dad5e0" stroke="none" stroke-width="0"></path>
      <path d="M242.90301,161.0103c10.90285,-7.9814 22.8114,0.43066 22.8114,11.90541c-0.00025,11.32699 -8.4816,17.86099 -15.70217,23.42401c-0.75034,0.57832 -1.48757,1.14609 -2.19986,1.70769c-2.66992,2.10471 -5.24082,4.08574 -7.81225,4.08574c-2.57143,0 -5.14234,-1.98102 -7.81223,-4.08574c-0.71229,-0.5616 -1.44931,-1.12938 -2.19978,-1.70769c-7.22065,-5.56303 -15.70202,-12.09703 -15.70227,-23.42401c0,-12.50467 14.14327,-21.37333 25.71428,-9.35154l5.14285,5.14033c0.75317,0.75258 1.97409,0.75065 2.727,-0.00252c0.75266,-0.7533 0.75317,-1.97421 0,-2.7271z" fill="#ff3e3e" stroke="#ffffff" stroke-width="5"></path>
      <path d="M224.7906,189.05474l-3.85714,-17.57143c0,0 2.76468,-1.59071 6.03447,-0.98891c3.91605,0.72075 8.68073,3.65558 11.96553,3.65558c3.31782,0 7.75598,-2.50757 11.75478,-3.22879c3.33282,-0.60111 6.57855,0.56212 6.57855,0.56212l-2.14286,18.57143c0,0 -10.75603,5.65953 -15.85397,5.49147c-5.0117,-0.16522 -14.47936,-6.49147 -14.47936,-6.49147z" fill="#384150" stroke="none" stroke-width="0"></path>
      <path d="M242.90288,161.01032c10.90285,-7.9814 22.8114,0.43066 22.8114,11.90541c-0.00026,11.32699 -8.4816,17.86099 -15.70217,23.42401c-0.75035,0.57832 -1.48757,1.14608 -2.19986,1.70768c-2.66992,2.10471 -5.24083,4.08575 -7.81225,4.08575c-2.57143,0 -5.14234,-1.98103 -7.81223,-4.08575c-0.71229,-0.5616 -1.44931,-1.12937 -2.19978,-1.70768c-7.22065,-5.56303 -15.70202,-12.09703 -15.70227,-23.42401c0,-12.50467 14.14327,-21.37333 25.71428,-9.35154l5.14285,5.14033c0.75317,0.75258 1.97409,0.75065 2.727,-0.00252c0.75266,-0.7533 0.75317,-1.97421 0,-2.7271zM248.39725,182.79217c-0.59065,-0.88611 -1.78817,-1.12551 -2.67428,-0.53486c-4.02377,2.68225 -9.26537,2.68225 -13.28909,0c-0.88614,-0.59065 -2.08356,-0.35126 -2.67439,0.53486c-0.59079,0.88611 -0.35123,2.08337 0.53486,2.67428c5.31931,3.54626 12.2488,3.54626 17.56805,0c0.88611,-0.59091 1.12577,-1.78817 0.53485,-2.67428zM226.22125,172.29046c-1.42007,0 -2.57129,1.72708 -2.57143,3.85715c0,2.13017 1.15127,3.85714 2.57143,3.85714c1.42015,0 2.57143,-1.72697 2.57143,-3.85714c-0.00013,-2.13007 -1.15136,-3.85715 -2.57143,-3.85715zM251.93554,172.29046c-1.4202,0 -2.57143,1.72708 -2.57143,3.85715c0,2.13017 1.15123,3.85714 2.57143,3.85714c1.4202,0 2.57143,-1.72697 2.57143,-3.85714c0,-2.13007 -1.15123,-3.85715 -2.57143,-3.85715z" fill="#ff3e3e" stroke="#000000" stroke-width="0"></path>
    </g>
  </g>
</svg>
