<?xml version="1.0" encoding="UTF-8"?>
<svg xmlns="http://www.w3.org/2000/svg" xmlns:xlink="http://www.w3.org/1999/xlink" version="1.1" width="156.17333" height="185.84107" viewBox="0,0,156.17333,185.84107">
  <g transform="translate(-160.90344,-65.11169)">
    <g stroke="none" stroke-miterlimit="10">
      <g>
        <path d="M242.7108,100.65171c0,1.72334 1.0278,2.42134 1.85831,2.7039c-0.00264,0.04919 -0.00264,0.07642 -0.00264,0.07642c0.05253,5.85682 -0.76766,12.12363 -2.64241,17.73378l-0.13882,2.65379c0,0 0.0063,2.89687 2.90227,2.89687c1.83556,0 2.51187,-1.16245 2.75798,-2.01448c0.02412,0.00905 0.03731,0.01344 0.03731,0.01344c2.51794,0.80864 5.25171,0.73554 7.87835,1.04322c1.94041,0.22729 3.63605,1.56975 5.56823,1.85877c5.06946,0.75829 10.41327,1.5277 15.52037,0.54861c0.38055,0.24313 0.87686,0.40934 1.52185,0.42677c0.07519,2.78165 2.89694,2.78571 2.89694,2.78571l-0.36869,-0.30621c3.3347,1.65123 6.98977,2.09211 10.22035,3.72601c3.47407,1.75705 7.55397,4.58426 10.55954,7.06089c4.37784,3.6074 5.91334,8.21621 7.39717,13.40967c0.99843,3.49455 2.27288,6.95772 2.6781,10.60462c0.85757,7.71783 -0.87809,15.35147 -0.94575,22.89858c0.04424,6.8355 -1.39008,13.89204 -3.56537,20.40995c-0.71624,2.14611 -1.22199,5.88442 -2.49949,7.73739c-1.83092,2.65567 -4.42973,4.66633 -6.79066,6.70081c-2.5592,2.20533 -4.31331,5.22212 -6.70377,7.60931c-2.60691,2.60333 -5.16553,4.81103 -7.60365,7.31391c1.07365,-4.6436 1.36255,-9.31821 1.36255,-14.6296c0,-4.50189 0.3093,-8.63574 -1.07939,-12.96008c0,0 -0.27001,-0.93482 -1.16266,-1.52389c-0.48685,-0.65761 -1.14463,-0.98627 -1.14463,-0.98627l-4.22602,-1.02392c-1.54452,0.61782 -3.09272,1.23806 -4.63723,1.85587c-2.69196,1.07832 -5.12039,2.89186 -7.93726,3.58086c-1.13508,0.27763 -2.35109,-0.20217 -3.50817,-0.03896c-0.96724,0.13645 -1.81202,0.81801 -2.78268,0.9276c-4.48858,0.5068 -9.1818,-0.43668 -13.68822,-0.02496c-1.77721,0.16237 -3.49526,0.91819 -5.27988,0.91744c-1.64892,-0.0007 -3.21603,-0.92206 -4.86496,-0.92167c-0.95473,0.00022 -1.75912,0.92039 -2.71387,0.92298c-1.12213,0.00303 -2.13002,-0.78176 -3.24508,-0.90762c-5.30779,-0.59908 -10.59032,-0.46422 -15.88282,-0.94288c-4.36561,-0.39483 -8.51398,-2.21306 -12.75842,-2.75812c-3.95982,-0.50851 -6.66833,-0.41224 -10.48201,-1.67512c-4.54032,-2.27016 -10.26201,-4.07022 -13.95311,-7.77731c-2.71959,-2.73136 -5.5841,-7.88226 -6.6008,-11.58683c-0.80198,-2.92216 -0.38043,-6.06567 -0.88287,-9.05394c-1.07189,-6.3751 -1.42786,-13.18277 -0.89819,-19.6747c0.43332,-5.31107 1.77683,-10.20253 1.8598,-15.55599c0.72968,-2.51183 0.97858,-5.82129 2.86393,-7.67547c2.34367,-2.30492 6.98362,-2.93414 9.99036,-3.93967c4.14472,-1.3861 9.14093,-2.98792 13.45276,-3.60404c2.44639,-0.34957 4.96848,0.33545 7.41629,-0.00407c5.82017,-0.80727 12.42784,-1.09323 18.07519,-2.90681c1.85346,-0.6178 3.71576,-1.24039 5.56921,-1.85822l0.93893,0.14805c0,0 1.15775,-0.00131 2.00883,-0.72993c0.32433,0.78605 1.04537,1.65426 2.63202,1.65426c2.89598,0 2.90221,-2.89721 2.90221,-2.89721c0,-1.07448 0.01076,-8.42814 -0.03571,-8.80451c-0.0195,-0.15797 -0.06237,-0.31097 -0.11914,-0.46089c0.15644,-0.51481 0.15679,-0.9287 0.15679,-0.9287l0.00038,-2.78017c-0.0047,-1.33074 0.64346,-2.71371 -0.00293,-3.87692c-0.04218,-0.07591 -0.08959,-0.14626 -0.14188,-0.21166c0.00212,-0.0174 -0.00676,-0.15012 -0.00469,-0.16753l0.0937,-0.01873l-0.04806,-0.17886c0.00359,-0.03505 -0.00372,-0.18544 -0.00034,-0.22051c0.25865,-0.09433 2.68512,-0.93798 1.81784,-3.53979c-0.72325,-2.16977 -2.58555,-2.05501 -3.33804,-1.91073c-0.53095,-0.61051 -1.31133,-0.99673 -2.18395,-0.99673c-0.92896,0 -1.75329,0.43697 -2.28322,1.11705c-4.35871,-1.99267 -6.44203,-10.49769 -6.90492,-14.37395c-0.49695,-4.16156 0.49068,-5.10003 3.01626,-8.01181c2.40173,-2.76897 2.26479,-4.11672 5.54829,-5.77023c2.01135,-1.01288 5.09919,-0.64791 7.10073,-0.64592c5.10817,0.00504 8.53126,0.30682 12.07331,3.97762c5.55118,3.28959 6.61811,15.12156 1.6231,19.92143c-1.46973,1.41232 -3.41856,2.21506 -5.11455,3.34572l-0.2467,-0.48634c0,0 -2.89326,0.00025 -2.89326,2.89622z" fill="#e36f00" stroke-width="0.25"></path>
        <path d="M236.24005,120.79943c0.00058,-0.01903 0.00112,-0.03773 0.00165,-0.05608c0.03244,-1.1352 -0.11026,-6.72341 0.0157,-7.5237c0.19583,-1.2443 0.61588,-2.4643 1.18377,-3.58862c0.3709,-0.73432 1.39896,-1.09071 1.58455,-1.89218c0.12664,-0.5469 -0.62802,-0.9468 -0.80371,-1.47997c-0.83318,-2.52837 -1.69657,-1.8157 -4.65537,-2.80197c0,0 -2.30061,-0.76687 -1.98955,-3.00236l-0.35622,-0.41305l-0.19833,0.29749l-2.1937,-1.4625c-3.63794,-0.35172 -7.14418,-1.47887 -9.85352,-3.17106c0,0 -2.40959,-1.60642 -0.80316,-4.01601c1.60642,-2.40959 4.016,-0.80316 4.016,-0.80316c1.48002,1.09651 3.51961,1.15368 5.34441,1.40443c1.26888,0.17436 2.52929,0.6794 3.79087,0.88931h1.99021c6.87933,-1.22074 10.32722,-7.5828 12.32208,-13.77392v0l0.90558,-2.71678c0.36393,-1.18337 1.46576,-2.04355 2.76848,-2.04355c0.84528,0 1.60597,0.36214 2.13539,0.93974c0.58987,0.08107 1.01312,0.2927 1.01312,0.2927l3.30572,2.60119c0.35843,1.23197 1.0753,2.41286 1.0753,3.69591c-0.00001,3.91635 -2.54439,8.80893 -5.70994,12.21418c-1.01988,2.2491 -2.49677,4.206 -4.57801,5.4364c0.61633,0.21354 1.13817,0.62938 1.48608,1.16809l1.82848,2.74276l-0.29749,0.19832l0.65959,0.56886c0.11438,5.46458 -0.58345,16.23167 -5.73706,19.88723c-0.92959,0.65938 -2.09811,0.82157 -3.24449,1.03418c-0.24284,0.47697 -0.54887,0.92818 -0.93245,1.34641c-1.1815,1.28823 -3.26994,1.23669 -4.90492,1.85503l-0.78413,-0.54364l-0.13168,0.39503l-2.71681,-0.90561c-1.18336,-0.36394 -2.04353,-1.46576 -2.04353,-2.76848c0,-1.3782 0.96273,-2.53155 2.25238,-2.82421l3.54876,-0.88717c0.22691,-0.11907 0.46307,-0.21468 0.70594,-0.29323zM242.78589,101.88861c0.07465,-0.31297 0.20009,-0.60624 0.36715,-0.87059c-0.23094,0.03366 -0.46875,0.06172 -0.7124,0.08475c0.10536,0.21877 0.22198,0.4853 0.34525,0.78585z" fill="#9f4d00" stroke-width="0.5"></path>
        <path d="M310.46187,195.26695c2.74737,0.91578 1.83159,3.66314 1.83159,3.66314l-0.92671,2.78016c-0.92944,2.78814 -1.72897,5.06425 -3.08527,7.46118c-0.81106,5.63111 -2.71344,11.9502 -5.76293,15.70014c-2.48646,3.05758 -5.83167,5.40837 -8.39224,8.40183c-1.37137,1.60322 -3.87504,5.74964 -5.91201,6.82911c-0.08476,0.04492 -0.17013,0.08834 -0.25607,0.13036l0.02645,0.03967l-2.74722,1.83147c-0.46612,0.32065 -1.03081,0.50834 -1.63934,0.50834c-1.5994,0 -2.89598,-1.29657 -2.89598,-2.89598c0,-0.34393 0.05996,-0.67386 0.16999,-0.97991l0.67396,-2.02192c-1.07455,-2.96148 -1.32888,-6.98664 -1.14531,-10.58097c-0.19613,-3.30064 -0.16289,-6.98291 0.1335,-10.12278c-0.20109,-2.837 0.02843,-5.749 0.67051,-8.49931c-0.05481,-0.2193 -0.11946,-0.4484 -0.19499,-0.68922c-0.65206,0.34971 -1.30702,0.65232 -1.96499,0.91475c-0.17364,1.09891 -0.96536,1.9923 -2.00794,2.31293l-2.71681,0.90558v0c-0.50223,0.16129 -1.01456,0.31148 -1.53505,0.45099c-0.51765,0.28219 -1.19306,0.34756 -1.82752,0.4401c-0.44304,0.09532 -0.89012,0.18369 -1.34013,0.26535c-3.14339,0.64665 -6.34412,1.00955 -9.4784,1.70177c-3.68468,0.81378 -5.15445,1.68647 -9.0759,1.02515c-3.16131,0.19258 -5.50777,1.31958 -8.7031,1.78814c-6.02177,0.88302 -11.70136,1.20829 -17.71262,-0.01885c-1.72692,-0.35253 -3.71066,-0.10827 -5.17384,-1.09093c-0.15654,-0.10513 -0.30719,-0.21678 -0.45266,-0.33414l-0.04548,0.06822l-2.74279,-1.82848c-0.24603,-0.15888 -0.46643,-0.35406 -0.65364,-0.57793c-2.45556,-0.13838 -4.95336,0.4008 -7.39832,0.09095c-3.52128,-0.44627 -6.68566,-2.40224 -10.19382,-2.78013c-0.13273,-0.0143 -8.2496,0.07644 -8.45047,-0.0157c-0.14255,-0.06538 -0.28209,-0.13556 -0.41896,-0.21003l-0.03294,0.09882l-2.71681,-0.90558c-0.92631,-0.28487 -1.65458,-1.02187 -1.92728,-1.95344c-1.70657,-0.47265 -3.37604,-1.08662 -4.9796,-1.9204c-2.21641,-1.15244 -3.64255,-3.42087 -5.40899,-5.18731c-0.78756,-0.78756 -1.99885,-1.05967 -2.78017,-1.85343c-2.61526,-2.6569 -2.84699,-5.01191 -6.04558,-7.05185c0,0 -2.4096,-1.60639 -0.80321,-4.01599c1.60639,-2.4096 4.01599,-0.80321 4.01599,-0.80321c1.07385,0.73842 2.30001,1.29375 3.22154,2.21527c1.5751,1.5751 2.11697,4.00003 3.7068,5.56026c0.79493,0.78012 1.99261,1.06587 2.78017,1.85343c1.32351,1.32351 2.16406,3.28391 3.85813,4.07982c5.13015,2.41025 10.44318,2.67599 15.8724,3.44979c3.33432,0.47522 6.68688,1.45278 10.08377,1.8377c5.86809,0.66494 11.30649,-0.40881 17.13662,1.02052c3.41159,1.18926 6.56784,0.82002 10.18439,0.81136c2.25053,-0.47903 4.53451,-0.92685 6.61347,-0.92685c0.00445,0 0.00891,0 0.01336,0.00001c0.76869,-0.05551 1.53698,-0.05476 2.30399,0.03739c0.3885,0.04667 0.76264,0.11326 1.12533,0.19521c4.57169,-0.57764 9.07014,-1.40634 13.70099,-2.04864c6.75057,-0.9363 14.27553,0.80138 20.1719,-3.25788l3.45979,-0.48637c0,0 2.68551,-0.00001 2.88436,2.58608c0.19173,0.19382 0.34438,0.40007 0.46235,0.58789c2.0327,1.08195 1.25405,3.41795 1.25405,3.41795c-0.07126,0.20344 -0.13869,0.40978 -0.20234,0.61868c0.23115,2.38565 -0.19515,4.4388 -0.61315,7.2698c-0.04521,0.30623 -0.08182,0.61751 -0.11101,0.93294c0.03073,0.30995 0.06777,0.61674 0.11101,0.91944c0.15953,1.11675 0.96409,2.11595 0.96409,3.24404c0,1.12808 -0.80456,2.12726 -0.96409,3.244c-0.00615,0.04306 -0.0122,0.08622 -0.01815,0.12947c0.03227,0.74639 0.05554,1.47887 0.05554,2.18678c0,0.20367 0.06891,0.67169 0.11745,1.2462c1.32246,-1.22836 2.86093,-2.27474 3.8441,-3.7793c0.34978,-0.53527 3.82766,-5.75786 4.0687,-6.00165c2.05312,-2.07662 3.56709,-1.645 5.14455,-4.10829c1.13533,-1.77288 1.67832,-3.88452 2.83405,-5.64417c0.07238,-0.10655 0.14289,-0.21247 0.21164,-0.31781c0.1591,-1.25655 0.242,-2.48099 0.22868,-3.63608v-0.9267c0,0 0,-2.89598 2.89598,-2.89598c0.02516,0 0.05011,0.00022 0.07483,0.00065l0.88466,-2.65402c0,0 0.91578,-2.74737 3.66314,-1.83159z" fill="#9f4d00" stroke-width="0.5"></path>
        <path d="M242.70696,100.70953c0,-2.89598 2.89598,-2.89598 2.89598,-2.89598l0.247,0.48637c1.69599,-1.13066 3.64922,-1.9327 5.11895,-3.34503c4.99501,-4.79987 3.90946,-16.51758 -1.64172,-19.80717c-3.54204,-3.6708 -6.95649,-3.97212 -12.06466,-3.97716c-2.00154,-0.00198 -5.08445,-0.36728 -7.0958,0.64561c-3.2835,1.65351 -3.14209,3.0006 -5.54381,5.76957c-2.52558,2.91178 -3.50969,3.84947 -3.01274,8.01103c0.46288,3.87626 2.521,12.26826 6.87971,14.26093c0.52993,-0.68008 1.35673,-1.11748 2.28569,-1.11748c0.87263,0 1.6551,0.38595 2.18604,0.99646c0.75249,-0.14428 2.61816,-0.25932 3.34141,1.91045c0.86728,2.60181 -1.55075,3.56097 -1.80939,3.6553c-0.00338,0.03506 -0.00687,0.07012 -0.01046,0.10517l0.05883,0.2942l-0.09359,0.01872c-0.00207,0.01741 -0.00417,0.03481 -0.00629,0.05221c0.05229,0.0654 0.09984,0.13574 0.14202,0.21165c0.64639,1.16321 0.00939,2.66148 0.0141,3.99222v2.78013c0,0 0,0.41385 -0.15644,0.92866c0.05677,0.14992 0.09955,0.30293 0.11905,0.4609c0.04646,0.37637 0.03739,7.72982 0.03739,8.8043c0,0 0,2.89598 -2.89598,2.89598c-1.58665,0 -2.304,-0.86929 -2.62833,-1.65534c-0.85108,0.72862 -2.00523,0.72862 -2.00523,0.72862l-0.9376,-0.14861c-1.85345,0.61783 -3.7069,1.23563 -5.56035,1.85344c-5.64735,1.81358 -12.2392,2.08407 -18.05937,2.89134c-2.44781,0.33951 -4.96733,-0.34957 -7.41372,0c-4.31183,0.61612 -9.30408,2.20955 -13.4488,3.59564c-3.00674,1.00553 -7.64488,1.62904 -9.98854,3.93396c-1.88535,1.85418 -2.13292,5.15712 -2.8626,7.66895c-0.08296,5.35345 -1.42606,10.23233 -1.85938,15.5434c-0.52966,6.49193 -0.17683,13.28472 0.89507,19.65982c0.50244,2.98826 0.07838,6.12574 0.88035,9.0479c1.01671,3.70458 3.87618,8.84702 6.59577,11.57838c3.69111,3.70708 9.4052,5.49852 13.94553,7.76868c3.81368,1.26288 6.51635,1.16184 10.47617,1.67035c4.24443,0.54506 8.38335,2.35781 12.74897,2.75264c5.2925,0.47866 10.56125,0.33944 15.86904,0.93853c1.11505,0.12586 2.11976,0.91017 3.24189,0.90714c0.95475,-0.00258 1.75662,-0.92302 2.71135,-0.92324c1.64892,-0.00038 3.21127,0.92078 4.86019,0.92148c1.78462,0.00075 3.49749,-0.75483 5.27471,-0.9172c4.50642,-0.41172 9.18708,0.53432 13.67565,0.02752c0.97066,-0.1096 1.81285,-0.79025 2.78009,-0.9267c1.15708,-0.16322 2.37031,0.31771 3.50539,0.04008c2.81687,-0.689 5.23828,-2.49888 7.93024,-3.5772c1.54452,-0.61782 3.08904,-1.23562 4.63356,-1.85344l4.22409,1.02536c0,0 0.6576,0.32881 1.14444,0.98642c0.89266,0.58906 1.23454,1.61473 1.23454,1.61473c1.38869,4.32434 1.07531,8.46114 1.07531,12.96302c0,5.31138 -0.34774,9.88637 -1.42139,14.52998c2.43812,-2.50288 4.99127,-4.7073 7.59818,-7.31064c2.39047,-2.38719 4.13955,-5.40016 6.69875,-7.60549c2.36094,-2.03448 4.95529,-4.04094 6.78621,-6.69661c1.27751,-1.85297 1.78003,-5.5876 2.49627,-7.73371c2.17529,-6.5179 3.60249,-13.56309 3.55825,-20.39859c0.06766,-7.54711 1.79835,-15.16461 0.94079,-22.88245c-0.40522,-3.6469 -1.68034,-7.10169 -2.67877,-10.59624c-1.48383,-5.19346 -3.01812,-9.79008 -7.39595,-13.39748c-3.00557,-2.47663 -7.08277,-5.29471 -10.55684,-7.05176c-3.23058,-1.6339 -6.88189,-2.0669 -10.2166,-3.71813l0.36843,0.30573c0,0 -2.81926,0 -2.89445,-2.78165c-0.64499,-0.01743 -1.14042,-0.18239 -1.52098,-0.42552c-5.1071,0.97909 -10.44,0.22122 -15.50947,-0.53708c-1.93217,-0.28902 -3.61984,-1.6261 -5.56025,-1.85339c-2.62664,-0.30768 -5.34766,-0.22933 -7.8656,-1.03796c0,0 -0.01312,-0.00438 -0.03724,-0.01343c-0.24611,0.85203 -0.91823,2.01547 -2.75379,2.01547c-2.89598,0 -2.89598,-2.89598 -2.89598,-2.89598l0.14861,-2.76921c1.87475,-5.61015 2.68401,-11.76165 2.63148,-17.61847c0,0 0,-0.02723 0.00264,-0.07642c-0.83051,-0.28255 -1.85604,-0.98037 -1.85604,-2.70371zM215.85399,81.82146c0.42659,-3.02131 2.41894,-5.70427 4.39338,-8.03062c1.0435,-1.22949 1.76242,-2.73455 2.92016,-3.85713c4.96172,-4.811 11.51156,-5.28205 18.08721,-4.54098c5.26735,0.59362 8.04605,1.68454 11.74448,5.27587c8.14875,5.86294 9.38873,20.87337 2.06521,28.38184c-0.18338,0.18802 -3.22397,2.22 -4.9215,3.35018c0.20938,0.58645 0.20938,1.08905 0.20938,1.08905c-0.03826,5.21569 -0.56019,10.53416 -1.82969,15.64902c0.45708,0.03146 0.7763,0.13787 0.7763,0.13787c2.20508,0.77239 4.64535,0.50984 6.96171,0.81551c1.93689,0.25559 3.62419,1.59179 5.56027,1.8534c4.90841,0.66325 10.46929,1.80367 15.30117,0.11122l3.69162,3.55829c0.00287,-0.00003 0.00434,-0.00003 0.00434,-0.00003l2.22182,0.30573c3.33525,1.6865 6.87693,2.0628 10.17104,3.6956c3.80352,1.8853 8.43304,5.0422 11.6842,7.77561c9.84698,8.27885 12.18054,23.52766 12.18054,35.6012c0,0.65731 0.01133,9.33288 -0.03739,9.731c-0.24654,2.01444 -0.91271,3.99378 -0.88931,6.02312c-0.04006,7.4962 -1.47502,15.08023 -3.85547,22.23015c-0.8799,2.64288 -1.55806,6.63146 -3.06406,8.94714c-2.07846,3.19592 -5.22667,5.73182 -8.04111,8.13078c-2.42708,2.06878 -4.02172,4.96535 -6.2753,7.22189c-1.07273,1.07414 -2.5774,1.64907 -3.65082,2.72251c-0.80618,0.80619 -1.10338,2.03146 -1.90943,2.83778c-0.78743,0.78769 -1.99084,1.06762 -2.78016,1.8534c-1.77667,1.7687 -2.63344,4.57209 -4.84531,5.75211c-0.08461,0.04513 -0.16983,0.08876 -0.25565,0.13096l0.02604,0.03905l-2.74715,1.83144c-0.46612,0.32065 -1.03082,0.50834 -1.63934,0.50834c-1.5994,0 -2.89598,-1.29657 -2.89598,-2.89598c0,-0.34394 0.05996,-0.67386 0.16998,-0.97991l0.90532,-2.716l0.0286,0.00953l-0.00051,-0.08983c2.83415,-7.06283 3.53017,-12.75372 3.53017,-20.31829c0,-3.71213 0.46946,-7.2937 -0.67806,-10.83475c-1.23028,0.49212 -2.46056,0.98423 -3.69084,1.47635c-2.95771,1.18133 -5.66405,3.05118 -8.75061,3.83652c-1.26262,0.32127 -2.61889,-0.1463 -3.90834,0.04008c-0.96678,0.13974 -1.80907,0.82037 -2.78009,0.9267c-4.66586,0.51093 -9.45738,-0.39476 -14.12571,0.02752c-1.96541,0.17779 -3.87237,0.93537 -5.84581,0.93619c-1.50146,0.00063 -2.90546,-0.93155 -4.40693,-0.93191c-0.999,-0.00024 -1.84998,0.93245 -2.84897,0.93016c-1.42593,-0.00327 -2.75435,-0.79119 -4.17183,-0.94627c-5.22389,-0.57147 -10.44292,-0.44006 -15.63911,-0.91487c-4.49143,-0.41041 -8.83771,-2.27905 -13.19901,-2.80769c-4.2906,-0.52007 -7.57932,-0.63388 -11.76487,-2.03644c-5.20518,-2.60259 -11.46451,-4.68122 -15.70937,-8.91217c-3.48729,-3.47585 -6.9502,-9.58869 -8.23154,-14.3696c-0.82289,-3.07035 -0.44437,-6.35191 -0.97305,-9.48635c-1.15517,-6.84884 -1.52788,-14.14454 -0.95848,-21.11546c0.4342,-5.31573 1.85566,-10.14316 1.8436,-15.51524c0,0 0,-0.18538 0.0469,-0.46234c0.04308,-0.27757 0.10171,-0.45344 0.10171,-0.45344c1.22752,-3.67334 1.5169,-7.48364 4.40647,-10.39911c3.10039,-3.12818 8.22254,-3.99399 12.2525,-5.33316c8.05768,-2.67758 16.33245,-3.71592 24.54641,-4.74478c4.75088,-0.59508 9.8189,-0.14621 14.37548,-1.74222c1.85344,-0.61779 3.70687,-1.23561 5.56031,-1.85342l2.76919,-0.14861c0,0 1.01941,0 1.84859,0.60482c0.07255,-1.55882 0.1217,-3.11602 -0.07362,-4.65865c-0.13721,-1.08376 -0.95961,-2.04046 -0.96196,-3.13287c-0.00412,-1.91708 0.61658,-3.79171 0.86302,-5.6924l-0.01831,-0.09158c-9.49041,-1.97124 -14.03198,-16.12325 -12.87243,-24.33579z" fill="#3e1e00" stroke-width="0.5"></path>
        <path d="M186.30002,168.89999c0,-2.5 2.5,-2.5 2.5,-2.5l-0.1402,0.18353c3.98599,-1.60725 8.15727,-2.42043 12.2126,-3.88042c5.07937,-1.82867 9.97574,-3.9216 15.11736,-5.52105c-1.64527,-0.40793 -3.28283,-0.85824 -4.96696,-0.98833c-4.25696,-0.32882 -8.62054,0.42862 -12.86918,-0.00588c-4.19787,-0.42931 -7.56636,-2.43614 -11.75365,-2.38786c0,0 -2.5,0 -2.5,-2.5c0,-2.5 2.5,-2.5 2.5,-2.5c4.46165,0.04 7.87138,1.98633 12.24635,2.41219c4.20171,0.409 8.51958,-0.34521 12.73092,-0.00588c6.28923,0.50675 12.15635,2.34819 18.52334,2.42494l2.05348,-0.6845c0.2642,-0.09499 0.54903,-0.14675 0.84594,-0.14675c1.38071,0 2.5,1.11929 2.5,2.5c0,1.05133 -0.64896,1.9511 -1.56815,2.32055l-4.54276,1.94692l-0.02528,-0.05899c-0.11588,0.06446 -0.23327,0.12661 -0.3523,0.18627c-1.53703,0.77041 -3.44594,0.15266 -5.13715,0.46218c-3.15912,0.57818 -6.22242,1.61665 -9.26287,2.65108c-3.99065,1.35771 -7.87621,3.17389 -11.84722,4.60016c-3.98904,1.43275 -8.11776,2.21103 -12.0241,3.80831l-1.74017,0.18353c0,0 -2.5,0 -2.5,-2.5z" fill="#262626" stroke-width="0.5"></path>
        <path d="M285.70004,173.70001c0,2.5 -2.5,2.5 -2.5,2.5l-2.18682,-0.41989c-3.03132,-2.05904 -5.71659,-2.34281 -9.2009,-3.78177c-4.56908,-1.88695 -8.72922,-4.67051 -13.41202,-6.32973c-3.38596,-1.19972 -6.96311,-2.05435 -10.39084,-3.1969c0,0 -2.37171,-0.79055 -1.58116,-3.16227c0.03912,-0.11735 0.0821,-0.22696 0.12848,-0.3293c-0.55436,-0.34113 -1.05676,-0.95945 -1.05676,-2.08016c0,-2.5 2.5,-2.5 2.5,-2.5c5.96709,0.01934 11.606,-1.82534 17.55127,-2.29922c5.47088,-0.43606 11.79943,0.86411 17.31858,-0.07734c0.73781,-0.82342 1.93013,-0.82342 1.93013,-0.82342l0.16561,0.33749c0.21636,-0.06502 0.431,-0.13466 0.6438,-0.2092l-0.18881,1.13642l1.76995,3.60699c-6.72771,2.16052 -14.24745,0.45676 -21.24233,1.01328c-4.20178,0.3343 -8.23199,1.30058 -12.33878,1.87365c2.15022,0.62386 4.30761,1.23159 6.39032,1.9727c4.7938,1.70583 9.04615,4.51418 13.72141,6.44572c3.73376,1.54256 6.70213,2.03372 10.06557,4.24283l-0.58672,-0.41989c0,0 2.5,0 2.5,2.5z" fill="#262626" stroke-width="0.5"></path>
      </g>
    </g>
  </g>
</svg>
