<?xml version="1.0" encoding="UTF-8"?>
<svg xmlns="http://www.w3.org/2000/svg" xmlns:xlink="http://www.w3.org/1999/xlink" version="1.1" width="321.19994" height="336.77921" viewBox="0,0,321.19994,336.77921">
  <g transform="translate(-79.40002,-11.61039)">
    <g stroke="none" stroke-miterlimit="10">
      <path d="M88.31564,328.61039c0,0 16,-20.5985 16,-32.10001c0,-24.14805 -6.06414,4.50221 -10.04872,-44.1924c-0.59522,-7.27412 3.74438,-65.15844 3.01263,-73.75344c-0.23731,-2.78745 -17.45194,-68.53772 -17.64152,-71.24481c-1.94572,-27.78276 8.67761,-71.70934 8.67761,-71.70934c0,0 -12.60264,-21.46011 8.4239,-20.44654c5.86827,0.28288 21.73281,18.2132 32.25081,17.57214c19.88693,-1.21209 85.77117,-14.42446 107.91596,-15.43106c14.92427,-0.67839 40.54072,1.62046 54.14997,0.91386c29.89262,-1.55204 65.36001,-6.60839 73.85938,-6.60839c6.34357,0 25.39999,15 25.39999,15c0,0 -4.30426,16.55744 -1.677,49.84293c2.20947,27.99243 11.3705,71.03601 11.83896,94.14703c0.97157,47.9307 -4.16196,152.01005 -4.16196,152.01005c0,0 6.8751,16.10871 -32.52064,19.49727c-5.19656,0.44698 -28.0068,-7.08378 -34.50223,-6.59417c-5.41818,0.40841 -27.16192,3.80264 -33.24331,4.17608c-4.59181,0.28197 -30.28214,8.51628 -35.06363,8.69531c-8.42783,0.31554 -43.80911,-15.34526 -52.03061,-14.98105c-9.93324,0.44004 -39.34412,6.82986 -47.9634,7.15102c-2.72426,0.1015 -17.35563,-9.79234 -19.88468,-9.68134c-10.6975,0.46953 -30.35234,15.73688 -36.1915,15.73688c-17.79261,0 -16.6,-18 -16.6,-18z" fill="#d6d6d6" stroke-width="0"></path>
      <path d="M114.91564,303.51038l-11,-15c0,0 12.57555,13.59144 33.19615,18.10359c30.25914,6.62123 74.38191,5.22504 93.09351,7.37227c14.12883,1.62134 55.71035,9.52414 55.71035,9.52414l65,-5c0,0 -60.0161,13.57931 -88.76511,11.92299c-10.7767,-0.62088 -41.27907,-11.44 -57.09454,-13.84571c-8.9022,-1.35412 -54.71337,6.39113 -63.18379,5.2433c-39.11052,-5.29991 -26.95656,-18.32058 -26.95656,-18.32058z" fill="#9e9e9e" stroke-width="0"></path>
      <path d="M121.8722,32.25287c8.47042,-1.14784 54.2816,6.59742 63.18379,5.2433c15.81547,-2.4057 46.31783,-13.22483 57.09454,-13.84571c28.74901,-1.65632 88.76511,11.923 88.76511,11.923l-65,-5c0,0 -41.58152,7.9028 -55.71035,9.52414c-18.71159,2.14723 -62.83437,0.75104 -93.0935,7.37226c-20.6206,4.51215 -33.19615,18.10359 -33.19615,18.10359l11,-15c0,0 -12.15397,-13.02067 26.95656,-18.32058z" fill="#9e9e9e" stroke-width="0"></path>
      <path d="M114.40949,262.52828c2.37171,-0.79055 3.16226,1.58116 3.16226,1.58116l0.79999,2.40001c0.35247,2.55784 5.45489,3.08334 7.66803,1.77613c5.4735,-3.23297 10.52101,-13.71625 6.33778,-19.51597c-1.31119,-1.81787 -3.97092,-2.08041 -5.96807,-3.09789l-2.34533,-0.78176c-1.02157,-0.31417 -1.76413,-1.26534 -1.76413,-2.38994c0,-0.92661 0.50411,-1.73548 1.25304,-2.1673l3.76181,-2.25711c2.76114,-2.78795 3.83746,-4.1267 4.62912,-8.04256c0.28216,-1.39567 1.53701,-4.20816 -0.4583,-5.4064c-0.83654,-0.50236 -1.97847,0.0201 -2.91129,0.3065c-2.6159,0.80315 -5.09836,2.28024 -6.49423,4.55357c0,0 -1.38673,2.08015 -3.46687,0.69342c-2.08014,-1.38673 -0.69342,-3.46687 -0.69342,-3.46687c0.6752,-0.96249 1.12606,-2.13044 2.0256,-2.88749c2.94438,-2.47797 10.48553,-5.84457 14.16885,-3.45239c1.98687,1.2904 2.8028,3.94982 3.39639,6.24339c0.3674,1.41963 -0.39091,2.90774 -0.65473,4.35021c-0.90177,4.93049 -2.70256,7.26901 -6.03608,10.62247c0.84471,0.31296 1.66056,0.71284 2.42965,1.15998c2.24894,1.30749 4.60168,4.67997 5.18358,7.17619c1.54133,6.61189 -1.51601,15.27337 -6.26538,19.94213c-3.96335,3.89607 -8.60308,4.92654 -13.75831,3.00397c-1.1423,-0.426 -2.51515,-0.54194 -3.37721,-1.404c-0.86204,-0.86205 -0.93595,-2.25144 -1.40392,-3.37716l-0.79999,-2.40004c0,0 -0.79055,-2.37171 1.58116,-3.16226z" fill="#696969" stroke-width="0.5"></path>
      <path d="M164.7717,256.09059c-0.28959,0.86876 -0.79133,1.31322 -1.31094,1.52765c-0.01539,1.23111 -0.06831,2.4634 -0.17,3.69674c-0.42908,5.20405 -1.61226,10.35521 -1.59072,15.58502l-4.44033,-0.38649l-0.55967,0.38649c0.00051,-0.14505 0.00184,-0.29001 0.00393,-0.43487l-0.54002,-0.04701c0,0 -0.96675,-1.93336 0.69537,-3.10352c0.33272,-4.15537 1.09885,-8.26236 1.44995,-12.42957c0.09919,-1.17721 0.15312,-2.35332 0.17263,-3.5285c-2.99956,0.68011 -5.83408,0.89612 -8.89134,1.91518c0,0 -0.30987,0.10329 -0.74294,0.12319c-0.30949,0.8027 -0.61841,1.60551 -0.91769,2.41141c-1.68924,4.54876 -4.0307,8.86049 -5.5582,13.48428c0,0 -0.79055,2.37171 -3.16226,1.58116c-2.37171,-0.79055 -1.58117,-3.16226 -1.58117,-3.16226c1.57922,-4.70134 3.92231,-9.08533 5.64176,-13.71579c1.06511,-2.86834 2.26513,-5.69342 3.13947,-8.62554c0.4676,-1.56811 0.30261,-3.28653 0.81301,-4.84124c0.54134,-1.64891 1.63391,-3.0677 2.30844,-4.66674c1.24185,-2.94396 1.67639,-6.16825 2.39204,-9.28224c0.71767,-3.12276 1.82519,-5.94182 2.46073,-9.11957l0.09086,-0.13345l-0.04632,-0.01544l0.78176,-2.34534c0.31417,-1.02157 1.26534,-1.76414 2.38995,-1.76414c0.88153,0 1.65649,0.45625 2.10162,1.1455l1.57853,2.36776l-0.08253,0.05502c0.14387,0.19304 0.27642,0.39481 0.39514,0.60727c0.61309,1.09717 -0.0013,2.51658 0.10244,3.76914c0.41091,4.96123 0.3843,9.96341 0.79472,14.90911c0.30158,3.63415 0.69216,7.28349 0.87408,10.94471c0.53203,0.23883 2.06591,1.11744 1.40769,3.0921zM157.46467,237.30388c-0.02361,-1.31824 -0.01716,-2.63873 -0.08134,-3.95535c-0.86455,3.62756 -1.8969,7.22791 -3.24213,10.4471c-0.61608,1.47432 -1.66774,2.75856 -2.16374,4.2775c-0.49908,1.52837 -0.32608,3.21842 -0.78697,4.75874c-0.08867,0.29634 -0.18044,0.59167 -0.27488,0.88612c2.49147,-0.57506 4.92043,-0.87384 7.47223,-1.36119c-0.24173,-5.02591 -0.83339,-10.03911 -0.92318,-15.05292z" fill="#696969" stroke-width="0.5"></path>
      <path d="M188.48201,273.53611c-2.23609,-1.118 -1.11808,-3.35408 -1.11808,-3.35408l0.61196,-1.09335c3.09982,-12.2921 4.18481,-24.72196 8.76427,-36.63474c0.23071,-0.59539 1.13781,-1.32893 0.69212,-1.78617c-0.43706,-0.44839 -1.11163,0.72447 -1.7377,0.71351c-1.09933,-0.01925 -2.10751,-0.6762 -3.20002,-0.79999c-3.59291,-0.40713 -7.77921,0.84755 -11.29502,-0.01355c-0.43586,-0.10675 -0.38851,-1.03511 -0.83683,-1.05452c-0.38138,-0.0165 0.46513,0.65774 0.48138,1.03913c0.06923,1.62506 -0.03801,3.25897 -0.22947,4.87419c-0.4275,3.60658 -1.3423,6.5359 -2.18091,10.04545c-2.34697,9.8218 -3.30089,20.24547 -6.462,29.8186c0,0 -0.79055,2.37171 -3.16226,1.58116c-2.37171,-0.79055 -1.58117,-3.16226 -1.58117,-3.16226c3.64948,-10.83017 5.08146,-22.98627 7.54193,-34.19337c0.70434,-3.20818 0.36107,-6.59699 1.14218,-9.78735c0.40469,-1.65291 0.71311,-3.69192 2.12498,-4.64193c1.10635,-0.74443 2.63343,0.44456 3.96309,0.54546c4.88804,0.37092 9.45981,-0.14625 14.30503,0.78644c1.54386,0.29719 3.70083,-0.53043 4.66232,0.7135c1.27453,1.64893 0.46141,4.14256 0.69212,6.21383c-4.43834,12.09798 -5.70288,24.54175 -8.83582,36.96523l-0.98801,2.10673c0,0 -1.118,2.23609 -3.35409,1.11809z" fill="#696969" stroke-width="0.5"></path>
      <path d="M214.07419,234.34868c-0.04214,0.03748 -0.08351,0.076 -0.12405,0.11564c-0.4764,0.46576 -0.21146,1.33566 -0.50431,1.9341c-0.46253,0.94519 -1.17575,1.74602 -1.7333,2.63845c-3.98875,6.3846 -6.43091,13.98243 -7.34976,21.46557c-0.33137,2.69869 0.2791,5.43211 0.52393,8.14002c0.1276,1.41123 0.14647,2.84053 0.02097,4.25277c0.89444,-0.60438 2.53348,-0.54597 3.02498,-0.7399c0.94378,-0.37237 7.16421,-3.60381 8.00334,-4.32859c1.81913,-1.57121 3.97388,-5.51495 5.15438,-7.46813c1.94598,-2.82999 1.70564,-5.35324 3.02334,-8.47001c0.36682,-0.86764 1.24189,-1.46478 1.57662,-2.34529c1.44966,-3.81339 1.84465,-9.1329 1.42183,-13.19696c-0.26992,-2.59438 -0.40215,-5.19504 -3.0111,-5.84603c-1.05378,-0.26294 -3.15343,-1.32794 -4.3509,-0.29625c-1.06127,0.91434 -1.68095,2.24135 -2.52143,3.36203l-0.07651,0.09564c0,0 -1.33435,1.66797 -3.07804,0.68694zM214.92557,228.24926c0.61303,-0.85605 1.26595,-1.66808 2.12426,-2.2533c2.70103,-1.84167 9.36204,-1.37791 11.78822,1.0154c2.10188,2.07341 2.92952,6.09897 3.2498,8.84231c0.56824,4.86729 -0.08288,11.0292 -1.77812,15.60309c-0.34092,0.91983 -1.23202,1.55514 -1.62345,2.45464c-1.40026,3.21788 -1.37344,6.05192 -3.37656,9.12996c-4.09407,6.74288 -8.16195,10.83551 -15.64233,13.80338c-0.78922,0.31313 -7.07847,1.77794 -7.58536,1.49134c-3.08345,-1.74345 -1.94803,-6.77473 -2.16873,-9.17855c-0.11711,-1.27549 -0.70896,-2.48365 -0.78028,-3.76253c-0.54266,-9.73051 3.26146,-20.88653 8.35447,-29.03192c0.99719,-1.59483 1.24229,-3.6876 2.56244,-5.02742c1.29477,-1.31405 3.10926,-1.98625 4.66388,-2.97939c0,0 0.07746,-0.04648 0.21176,-0.10703z" fill="#696969" stroke-width="0.5"></path>
      <path d="M253.60001,280.19998c-2.5,0 -2.5,-2.5 -2.5,-2.5l0.05397,-1.31667c1.85334,-8.75345 3.53727,-17.67905 4.37968,-26.59089c0.31977,-3.38289 0.40592,-4.7377 0.72113,-6.99939c-1.0491,1.23675 -2.18179,2.42585 -2.76282,3.91762c-1.05695,2.71367 -1.93356,5.51265 -3.25588,8.10738c-0.62851,1.2333 -0.8484,2.80365 -1.91672,3.68384c-0.14832,0.1222 -0.30071,0.23806 -0.45667,0.34837l0.03731,0.04974l-3.17975,2.38488c-0.42124,0.32313 -0.94831,0.51517 -1.52023,0.51517c-1.38071,0 -2.5,-1.11929 -2.5,-2.5c0,-4.17736 0,-11.55472 0,-15.73208c-0.75686,2.58594 -2.48373,4.85778 -3.18894,7.46858c-0.43089,1.59522 -0.28057,3.30872 -0.69565,4.90813c-1.98252,7.63916 -6.12265,14.73271 -7.99011,22.36171c0,0 -0.60639,2.42534 -3.03173,1.81896c-2.42534,-0.60638 -1.81896,-3.03172 -1.81896,-3.03172c1.94663,-7.6499 6.03881,-14.76725 8.00988,-22.43822c0.41834,-1.62805 0.27267,-3.37066 0.71864,-4.99136c0.01918,-0.06972 3.13464,-7.14324 3.24193,-7.63675c0.24446,-1.12449 -0.25896,-2.34668 0.06216,-3.45172c0.49428,-1.70092 1.83247,-3.06673 2.38425,-4.74927l0.77045,-3.08185c0.25264,-1.11331 1.24829,-1.94441 2.43804,-1.94441c0.998,0 1.85941,0.58479 2.26028,1.43039l1.57582,3.15157l-0.06278,0.03139c0.09369,0.1663 0.18064,0.33685 0.25984,0.51227c0.62752,1.38986 0.05498,3.04948 0.06688,4.57439c0.03721,4.77023 0.0139,9.54188 0.00389,14.31276c0.52809,-1.04431 1.11313,-2.08432 1.58638,-3.26947c1.35649,-3.39709 1.39233,-5.51112 3.47991,-8.50271c0.64799,-0.9286 1.74185,-1.48217 2.40171,-2.40237c0.74189,-1.03458 0.93965,-2.41409 1.7539,-3.39275c0.57996,-0.69708 1.48916,-1.02806 2.26183,-1.51086l1.35207,-2.70419c0.40085,-0.84563 1.26229,-1.43042 2.2603,-1.43042c1.38071,0 2.5,1.11929 2.5,2.5c0,0.18572 -0.02025,0.36672 -0.05867,0.5409l-0.97044,4.85228c0.01299,2.65236 -0.98372,5.217 -1.29542,7.85101c-1.2776,10.79636 -2.68594,21.42755 -4.92946,32.07247l0.05398,0.2833c0,0 0,2.5 -2.5,2.5z" fill="#696969" stroke-width="0.5"></path>
      <path d="M275.83466,275.85425c2.16459,-6.75228 3.91728,-13.61224 5.68736,-20.45425h-3.12203c-2.85607,-0.03293 -5.16147,0.63293 -7.95594,0.77454c-0.94206,3.53472 -1.8476,7.07905 -2.37365,10.70905c-0.79447,5.48228 -0.76325,11.1209 -2.49865,16.407l-5.40781,-1.27252c0,0 -1.11807,-2.23604 1.11798,-3.35411c0.13678,-0.0684 0.26937,-0.12424 0.39779,-0.16881c0.81574,-4.05113 0.85782,-8.31079 1.44989,-12.37865c1.06459,-7.31432 3.62469,-14.28407 4.99336,-21.51746c0.32648,-1.72543 0.22302,-3.52912 0.68434,-5.22348c0.58785,-2.15912 1.83534,-4.10833 2.36734,-6.28189c0,0 0.60633,-2.42536 3.03169,-1.81903c2.42536,0.60633 1.81903,3.03169 1.81903,3.03169c-0.57185,2.24749 -1.82437,4.28024 -2.43259,6.51816c-0.41368,1.52214 -0.26591,3.14885 -0.55607,4.69929c-0.35062,1.87348 -0.78463,3.7289 -1.25333,5.57704c2.19536,-0.21019 4.20083,-0.67915 6.61662,-0.70081h3.20001c0,0 0.56355,0 1.15552,0.26757c1.36235,-5.16436 2.79133,-10.30185 4.47277,-15.3581c0,0 0.79055,-2.37172 3.16226,-1.58117c2.37171,0.79055 1.58116,3.16227 1.58116,3.16227c-4.64018,13.88586 -7.3343,28.40257 -12,42.40002l-4.87171,-1.5906c0,0 0,-1.10501 0.73465,-1.84573z" fill="#696969" stroke-width="0.5"></path>
      <path d="M315.57007,278.51695c1.1987,1.33679 0.11008,2.96978 0.11008,2.96978l-1.57847,2.36776c-0.44513,0.68926 -1.2201,1.14554 -2.10165,1.14554c-1.38071,0 -2.5,-1.11929 -2.5,-2.5c0,-0.22871 0.03072,-0.45025 0.08824,-0.66071l0.78639,-3.14562l0.00059,0.00015l-0.00018,-0.0018c2.13121,-8.45749 3.80968,-16.94255 5.80072,-25.43813c0.22228,-0.94846 0.56721,-1.86372 0.88804,-2.78539c-2.64473,3.21437 -5.20824,6.5079 -7.93433,9.62122c-1.65948,1.8952 -2.79032,4.19503 -4.21322,6.27374c-1.87291,2.73613 -4.15866,5.17409 -6.02877,7.91214c-0.69048,1.01094 -0.82305,2.38394 -1.66285,3.27473c-0.05852,0.06207 -0.11755,0.1236 -0.17705,0.18461l0.02807,0.02246l-3.10905,3.8863c-0.45772,0.58229 -1.16848,0.95629 -1.9666,0.95629c-1.38071,0 -2.5,-1.11929 -2.5,-2.5v-3.20001h0.08262l-0.07045,-0.24634c2.58014,-13.09165 3.91707,-27.07081 8.11612,-39.74423c0,0 0.79055,-2.37171 3.16226,-1.58116c2.37171,0.79055 1.58116,3.16227 1.58116,3.16227c-3.41208,10.16754 -4.80436,21.25152 -6.64355,31.96719c0.67246,-0.87828 1.44064,-1.80572 2.28383,-2.9135c6.702,-8.80509 12.58448,-18.52983 20.55732,-26.25791l0.64071,-1.92217c0.31417,-1.02157 1.26534,-1.76414 2.38995,-1.76414c1.38071,0 2.5,1.11929 2.5,2.5c0,0.18572 -0.02025,0.36672 -0.05867,0.5409l-0.7771,3.88555c0.10286,4.26385 -1.27874,5.85592 -2.22051,9.86906c-1.88932,8.05089 -3.50505,16.09991 -5.47365,24.12144z" fill="#696969" stroke-width="0.5"></path>
      <path d="M214.23223,130.33228l0.19608,0.17715c0.29353,-0.70332 0.37857,-1.53191 0.25512,-2.30782c-5.66518,3.2203 -12.51889,2.03198 -18.63121,-0.13027c0.40931,0.61396 0.81862,1.22792 1.22794,1.84188c0,0 0.99242,1.48859 0.03892,2.78676c0.2061,0.05707 0.43112,0.10195 0.6814,0.13229c4.33635,0.52575 9.96083,0.46415 14.10061,-0.73257c0.44491,-0.12861 0.90809,-0.21482 1.37536,-0.29082c0.1435,-0.86427 0.7558,-1.4766 0.7558,-1.4766zM219.17173,125.70944c0.20408,0.70144 0.33807,1.43284 0.40197,2.17363c0.20331,-0.30895 0.39655,-0.60806 0.58051,-0.88146c0.60586,-1.78377 0.67834,-3.68409 0.64111,-5.59101c-0.60161,0.90726 -1.54185,2.32123 -2.21783,3.31463c0.42278,0.46981 0.59423,0.98421 0.59423,0.98421zM189.9199,127.88674l0.57272,-2.03603c-1.57862,-0.63612 -3.22367,-1.26709 -4.70487,-2.07386c0.53402,1.41888 3.26364,4.19955 3.98005,4.95538c0.49584,0.52312 0.93583,0.80522 1.37642,0.99101c-0.40811,-0.61217 -0.81622,-1.22433 -1.22432,-1.83649zM210.37174,110.49059c-0.79058,2.37171 -3.16228,1.58113 -3.16228,1.58113l-0.49141,-0.93565c0.36822,0.77467 -0.18094,1.70701 -0.21801,2.56395c-0.12235,2.82858 2.10494,3.18028 4.00105,2.39969c0.8196,-0.14775 1.71115,-0.07636 2.4588,-0.44322c1.00776,-0.49449 0.65486,-2.60619 0.57243,-3.15601c-0.31483,-2.09997 -3.02219,-4.34011 -4.59409,-5.57236c-1.06647,-0.83603 -2.82286,-1.08458 -4.66673,-0.95517c-1.90384,0.36707 -3.75816,0.96479 -5.66283,1.55412c-0.17622,0.09735 -0.3415,0.19739 -0.49432,0.29959c-2.15014,1.438 -4.37427,4.98861 -3.68119,7.69899c0.59854,2.34067 3.26128,5.85984 5.57631,4.60265c0,0 2.37172,-0.79055 3.16227,1.58116c0.79055,2.37171 -1.58116,3.16226 -1.58116,3.16226c-0.06164,0.01586 -0.12323,0.03312 -0.18477,0.05156c1.36701,0.40475 2.75166,0.66843 4.13473,0.67744c0.60412,0.00393 4.23227,-1.2633 4.86894,-1.47242c1.39372,-0.4578 2.74674,-0.67626 3.82278,-1.79605c0.79578,-0.82814 1.36048,-1.8394 1.93389,-2.84463c-0.10516,0.08636 -0.21382,0.17169 -0.32604,0.25595c-1.09485,0.82207 -2.62741,0.77116 -3.94111,1.15675c-1.03299,0.2999 -2.0252,0.96297 -3.09898,0.89968c-4.06422,-0.23954 -7.22482,-4.10691 -7.29999,-8.09998c-0.03796,-2.01646 2.20677,-5.58459 2.98194,-7.03609l4.30864,0.66438c0,0 2.37171,0.79058 1.58113,3.16228zM189.53231,112.49955c0.12826,-0.94483 0.38787,-1.85813 0.75599,-2.72529c-0.40177,0.16008 -0.78114,0.33841 -1.12799,0.54019c-0.54321,0.31601 -1.0762,0.65593 -1.60845,0.9982c0.10061,0.13697 0.19589,0.29266 0.2842,0.46927c1.11807,2.23605 -1.11798,3.35412 -1.11798,3.35412l-0.34634,-0.64547c-1.66876,3.99846 2.06249,5.38984 5.28458,6.52007c-1.66309,-2.6378 -2.48063,-5.88416 -2.12401,-8.5111zM225.70005,115.29999v2.40002c0,4.18419 0.25168,7.53971 -1.05427,11.49839c-1.532,2.31241 -2.4935,4.20598 -4.93145,5.82822c-1.12786,0.75049 -4.99277,1.52809 -6.21535,1.87368c-4.7298,1.33702 -11.35868,1.64498 -16.29943,0.8674c-2.00567,-0.31565 -3.68188,-1.71392 -5.4979,-2.62192c-1.84264,-0.92131 -3.98618,-1.44824 -5.46938,-2.87802c-2.20274,-2.12339 -5.33674,-5.76647 -5.53222,-8.96779c-0.0514,-0.8417 0.77302,-1.55715 0.79999,-2.39999c0.01859,-0.58103 -0.4478,-1.07296 -0.6717,-1.60944c0,0 -0.28829,-0.86491 0.00561,-1.72422c-0.07836,-0.45945 -0.12413,-0.94734 -0.1339,-1.46634c-0.01609,-0.8544 0.36102,-1.65653 0.67628,-2.46689c-0.53273,-0.20844 -1.05158,-0.65314 -1.34805,-1.54257c-0.79055,-2.37171 1.58116,-3.16227 1.58116,-3.16227c1.92294,-0.60873 3.47226,-2.05401 5.23031,-3.04271c2.42955,-1.36635 5.82262,-1.83309 8.4613,-2.58585c2.79767,-0.79811 5.47536,-2.11115 8.39351,-2.481c6.65989,-0.84407 18.99914,1.21661 20.37316,9.28083c0.17269,1.01349 0.19792,1.95747 0.1116,2.85752c1.52071,0.54814 1.52072,2.34292 1.52072,2.34292zM218.81325,109.61749c-0.51209,-0.56074 -1.19065,-1.07019 -1.96146,-1.52293c1.24011,1.9702 2.05084,4.16604 1.96852,6.26403c0.67422,-1.74796 1.02289,-3.61332 -0.00706,-4.7411z" fill="#696969" stroke-width="0.5"></path>
      <path d="M258.08201,107.93608l0.30859,-0.66439c-1.69502,0.56503 -3.38553,1.12352 -5.07013,1.68609c0.1813,1.47879 0.28091,2.97468 0.3322,4.46425c0.03835,0.03509 0.07673,0.07179 0.11509,0.11016c1.00743,1.0074 0.86666,2.01481 0.55918,2.69506c0.41098,-0.19859 0.79886,-0.41638 1.15876,-0.65387c2.57193,-1.6971 3.43081,-4.5615 4.05829,-7.36597c-0.79079,0.06427 -1.46197,-0.27133 -1.46197,-0.27133zM256.80941,102.5283l1.81615,0.48431c-0.0462,-0.04755 -0.09386,-0.08974 -0.14301,-0.12584c-1.73402,-1.27381 -4.85042,-0.88053 -6.72886,-1.09894c-0.06573,-0.00764 -0.13127,-0.01669 -0.19663,-0.02696c0.2989,0.73668 0.55712,1.49004 0.78,2.25632c1.48671,-0.49658 2.97778,-0.99067 4.47235,-1.48888zM248.70005,116.10001c0.00719,-1.74688 -0.01446,-3.63528 -0.1748,-5.5149c-0.78173,0.27112 -1.5619,0.54534 -2.34035,0.82375c0.06866,0.55878 0.14677,1.12134 0.24142,1.68854l0.74542,2.21205c0,0 0.50543,1.51629 -0.50437,2.52822c2.08607,-0.04344 4.21204,-0.35565 6.0611,-0.96841zM246.56395,102.81804c0,0 -0.35577,-0.71156 -0.26454,-1.53257c-0.57843,0.15676 -1.20197,0.36809 -1.83744,0.61203c0.21705,0.33391 0.30973,0.61189 0.30973,0.61189c0.4078,1.26979 0.65738,2.53469 0.83918,3.80571c0.68297,-0.24104 1.36715,-0.47938 2.05248,-0.71568c-0.28386,-0.98245 -0.64374,-1.91859 -1.09941,-2.78136zM242.42831,116.89057l-0.85456,-2.58793c-0.06128,-0.36808 -0.11435,-0.74059 -0.16176,-1.11634c-2.01895,0.78615 -4.02416,1.61626 -6.01315,2.50981c0.39132,-0.06326 0.75319,-0.15189 1.03078,-0.23574c0.63924,-0.37937 1.25164,-0.36487 1.75033,-0.21715c0.66539,0.11808 1.40191,0.52318 1.78341,1.64145l0.02728,0.04363c0.8353,0.29259 1.78963,0.51836 2.81385,0.67239c-0.26474,-0.37578 -0.37618,-0.71012 -0.37618,-0.71012zM240.0283,104.0906c0,0 -0.01191,-0.03573 -0.02842,-0.09989c-0.42155,0.23307 -0.79048,0.44973 -1.08554,0.63593c-1.08387,0.68395 -2.01074,1.59334 -3.0704,2.31421c-0.5675,0.38605 -1.42678,0.42348 -1.80035,0.99927c-0.45329,0.69868 -0.2353,1.65242 -0.44324,2.45889c-0.05481,0.21259 -0.14047,0.46276 -0.24027,0.73708c2.48555,-1.1135 4.99544,-2.1334 7.52518,-3.09425c-0.17201,-1.36378 -0.41846,-2.69941 -0.85695,-3.95124zM264.00003,112c2.5,0 2.5,2.5 2.5,2.5l-0.12829,2.39056c-1.1637,3.49114 -1.90629,7.87956 -4.60395,10.57722c-5.32088,5.32089 -14.96083,4.75124 -21.76776,4.73223c-3.65649,-0.01021 -8.27334,-0.0628 -10.78674,-3.38253c-2.48015,-3.27581 -0.90637,-4.07114 -0.49451,-7.42294c0.1262,-1.02705 0.11899,-2.06197 0.08151,-3.09874c-0.22965,-0.30276 -0.43275,-0.64046 -0.60448,-1.01614c-1.12468,-2.46046 0.14968,-9.83917 1.76067,-12.21977c0.69502,-1.02704 2.00294,-1.46277 2.99957,-2.20074c3.72637,-2.75923 9.90805,-6.77655 14.88864,-6.85432c1.49152,-0.02329 2.91839,0.64908 4.40168,0.80733c2.83879,0.30286 6.82816,0.07389 9.27114,2.10107c2.60685,2.16315 2.64436,4.50488 3.38177,7.5273c-0.37124,1.97646 -0.65247,3.8232 -1.18185,5.57069c0.09046,-0.00738 0.1846,-0.01122 0.28259,-0.01122zM233.68131,122.00549c-0.03468,0.27266 -1.35216,2.87109 -0.49451,3.77701c2.22294,2.34803 7.23098,1.41752 10.01324,1.41752c4.4173,0 11.57304,0.1914 15.03222,-3.26777c1.63443,-1.63442 2.29463,-4.6543 2.95261,-7.1085c-0.01706,0.02041 -0.03422,0.04082 -0.05147,0.06121c-5.10336,6.03142 -15.59276,7.07691 -22.72396,4.78673l-1.47451,-1.26093c-1.0158,0.18148 -2.13655,0.27101 -3.23902,0.19106c-0.00288,0.78164 -0.00746,1.34747 -0.01461,1.40368z" fill="#696969" stroke-width="0.5"></path>
      <path d="M278.11984,117.83487c0.10282,-0.30848 0.20564,-0.61694 0.30847,-0.92542c0,0 0.07296,-0.21888 0.24105,-0.5015c-0.25187,-0.16764 -0.50079,-0.33993 -0.74656,-0.51687l-0.00684,-0.02858c-0.35992,-0.03633 -0.7179,-0.07768 -1.06982,-0.13482c-0.14981,1.22363 -0.71939,2.56938 0.03623,3.32629c0.26222,-0.66211 0.76625,-1.02272 1.23748,-1.2191zM295.682,115.13607c-2.23608,-1.11801 -1.11806,-3.3541 -1.11806,-3.3541l0.80001,-1.60005c2.00027,-3.95565 3.02254,-7.90519 5.38453,-11.69171c-0.76686,-0.16739 -1.50808,-0.47558 -2.27645,-0.64085c0.25912,1.06092 -0.39189,2.03741 -0.39189,2.03741c-2.86596,4.2965 -4.752,8.74035 -7.04404,13.33125l-1.2683,1.44974c0,0 -0.49104,0.49104 -1.21432,0.69673c2.76875,0.54046 5.65714,0.61054 8.33529,0.08463c-0.35759,-0.00011 -0.75985,-0.08958 -1.20676,-0.31304zM305.28016,100.68675c-2.51902,3.76403 -3.45773,7.71985 -5.4441,11.7313l-0.79996,1.59996c0,0 -0.41989,0.8398 -1.25968,1.23275c4.19813,-1.0553 7.76545,-3.66821 9.35587,-8.35122c-0.0097,-1.78592 -0.21184,-4.9976 -1.5117,-6.98204c-0.1341,0.45978 -0.34042,0.76926 -0.34042,0.76926zM286.23227,114.66776c-1.76776,-1.76776 0,-3.53553 0,-3.53553l0.33168,-0.15024c2.12059,-4.23468 3.92484,-8.35636 6.38846,-12.35764c-2.1823,0.46533 -4.48374,0.82272 -6.66676,1.4707c0.03463,0.01039 0.0696,0.02147 0.10492,0.03324c2.37171,0.79056 1.58115,3.16227 1.58115,3.16227c-1.14722,3.35502 -2.86561,6.19679 -4,9.6l-0.65116,0.8243c0.98951,0.44398 2.03332,0.82563 3.11013,1.13683c-0.06608,-0.05654 -0.13225,-0.11776 -0.19842,-0.18393zM283.2283,101.70944c0,0 0.08375,-0.25124 0.2785,-0.56293c-1.22815,0.59104 -2.37517,1.35167 -3.38876,2.36964c-0.29188,0.29314 -4.64702,5.1644 -3.40695,6.84785c0.02981,-0.76104 0.34464,-1.98465 1.99867,-2.31545c0.74127,-0.14825 1.30322,-0.02753 1.72652,0.21305c0.97199,-2.18182 2.05651,-4.26928 2.79201,-6.55216zM313.57176,107.30945l0.82858,2.4916c0.29928,1.33164 0.92635,2.63036 0.89784,3.99492c-0.10717,5.13066 -4.6975,8.05315 -8.9076,9.47574c-7.56404,2.55589 -14.87871,2.68671 -22.696,1.70957c-2.95307,-0.36912 -7.8998,0.15887 -10.26229,-2.3135c-2.58273,-2.70284 -0.66683,-5.61992 -2.7124,-8.38104c0,0 -1.38674,-2.08013 0.6934,-3.46687c0.07554,-0.05036 0.15017,-0.09615 0.22386,-0.13764c-0.4674,-3.82725 2.65629,-8.41765 5.04482,-10.79834c4.24661,-4.23266 10.01061,-4.98946 15.51543,-6.21015c2.13611,-0.47369 4.33336,-1.0957 6.50808,-0.85501c1.09283,0.12095 2.1108,0.64994 3.20001,0.80002c1.27299,0.1754 2.68207,-0.36164 3.85125,0.17157c4.68029,2.13444 6.00649,7.2747 6.26107,11.88607c1.13695,0.38197 1.55397,1.63307 1.55397,1.63307zM284.30548,120.01873c2.03231,0.25404 4.04638,0.78356 6.09451,0.78126c0.52296,-0.00059 1.0444,-0.02761 1.56484,-0.07207c-3.00651,-0.12915 -6.0392,-0.79838 -8.88121,-1.97299c-0.13448,0.40343 -0.26895,0.80686 -0.40343,1.21029c0.64137,-0.00345 1.20912,0.0015 1.62529,0.05352zM300.39957,120.03228c2.82175,-0.38168 10.06136,-2.51341 9.90229,-6.42821c-0.01991,-0.48995 -0.1778,-0.95729 -0.35215,-1.42194c-2.64722,4.11865 -6.63287,6.68886 -11.10474,7.84693c0.5205,0.03686 1.04073,0.07273 1.5546,0.00323z" fill="#696969" stroke-width="0.5"></path>
      <path d="M234.40516,166.35721c-0.18744,0.7407 -0.74524,1.8428 -2.40513,1.8428c-0.45981,0 -0.83505,-0.08457 -1.14128,-0.2226c-0.34538,0.54066 -0.9611,1.02259 -2.05874,1.02259c-2.5,0 -2.5,-2.5 -2.5,-2.5v-3.20001c0.03457,-3.85614 1.00097,-6.97399 1.63399,-10.81099c0,0 0.26431,-1.58593 1.64085,-2.00215c0.38014,-1.14041 1.6346,-1.55857 1.6346,-1.55857c1.35263,-0.25767 2.89522,-1.51068 4.0579,-0.773c5.89198,3.73828 4.46014,11.99449 1.07397,16.71989c-0.47583,0.66403 -1.20772,1.07131 -1.93617,1.48203zM234.3439,154.96635c-0.00784,-0.75711 -0.22965,-1.63687 -0.81126,-2.12163c-0.27822,-0.2319 -0.48539,0.51706 -0.72573,0.80802c-0.53635,3.02384 -1.36527,5.71594 -1.49165,8.6857c2.12371,-1.67087 3.05799,-4.53776 3.02864,-7.37208z" fill="#696969" stroke-width="0.5"></path>
      <path d="M250.88015,155.08676c-1.38674,2.08013 -3.46687,0.69338 -3.46687,0.69338l-0.52298,-1.22868c0.09326,1.55854 -0.50613,2.90188 -1.37848,4.11892l-0.7219,2.16555c-0.31419,1.02154 -1.26534,1.76408 -2.38993,1.76408c-1.38071,0 -2.5,-1.11929 -2.5,-2.5v-3.76753c-0.24178,-0.94206 -0.48357,-1.88411 -0.72535,-2.82616c0,0 -0.60632,-2.42535 1.81904,-3.03168c1.73132,-0.43283 2.53572,0.67921 2.85432,1.35109c0.87222,-0.96326 1.69211,-1.77092 2.06169,-2.17718l4.27707,1.97133c0,0 2.08013,1.38675 0.69338,3.46688z" fill="#696969" stroke-width="0.5"></path>
      <path d="M263.20005,158.60001c-1.39284,0 -2.00968,-0.776 -2.28285,-1.46332c-1.81018,1.80003 -4.26962,4.02114 -5.49154,3.79644c-1.70041,-0.31269 -2.20919,-2.77292 -2.69332,-4.43267c-0.88314,-3.02766 0.04976,-4.95585 0.89599,-7.591c0,0 0.79056,-2.37171 3.16227,-1.58115c2.37171,0.79056 1.58115,3.16227 1.58115,3.16227c-0.2609,0.74489 -0.32539,1.53576 -0.36442,2.33316c0.36484,-0.31213 0.6827,-0.55042 0.82092,-0.67299l1.47011,-2.20522c0.44513,-0.68927 1.2201,-1.14553 2.10165,-1.14553c1.22887,0 2.25065,0.88663 2.46053,2.05509l0.79097,3.95459l0.04855,1.29033c0,0 0,2.5 -2.5,2.5z" fill="#696969" stroke-width="0.5"></path>
      <path d="M284.16776,152.26777c-1.76776,1.76776 -3.53553,0 -3.53553,0l-1.40393,-1.7772c-0.52629,-3.81968 0.42539,0.85612 -3.47458,0.89727c-0.23735,0.00251 -0.39598,-0.11525 -0.50801,-0.30419c-0.34375,0.5906 -0.71364,1.16682 -1.10382,1.7303l0.22986,0.07662l-0.78175,2.3453c-0.31417,1.02157 -1.26534,1.76413 -2.38994,1.76413c-1.38071,0 -2.5,-1.11929 -2.5,-2.5v-2.96752c-0.2418,-0.94204 -0.4836,-1.88406 -0.7254,-2.82609c0,0 -0.60638,-2.42535 1.81897,-3.03173c0.97301,-0.24327 1.65325,0.00141 2.11903,0.38168l0.09741,-0.2922c0.31417,-1.02157 1.26534,-1.76413 2.38994,-1.76413c0.88152,0 1.65648,0.45624 2.10162,1.14549l0.39993,0.59989c0.23411,-0.66381 0.32994,-1.59579 0.92405,-1.67849c4.86661,-0.67743 4.87374,1.78178 6.14612,4.84258l0.19604,-0.17722c0,0 1.76776,1.76776 0,3.53553z" fill="#696969" stroke-width="0.5"></path>
      <path d="M308.80002,69.60001c2.57917,0 5.1345,0.11239 7.6776,0.2776c0.92554,-2.11375 1.75637,-4.27788 2.85984,-6.31373c-1.50142,0.4573 -2.95638,0.97035 -4.2385,1.33642c-1.40982,0.40254 -4.93707,1.02931 -5.91216,2.31721c-0.4665,0.61615 -0.79824,1.4857 -0.99806,2.4661c0.35179,-0.08361 0.61128,-0.08361 0.61128,-0.08361zM337.60001,71.20001l0.45204,0.44398c0.62201,-2.02532 0.82879,-4.17461 -0.03878,-5.22652c-0.80861,-0.98042 -3.53585,-1.33274 -4.31223,-1.51717c-0.04235,-0.01408 -0.08475,-0.02827 -0.1272,-0.04255c-0.06919,0.22324 -0.13773,0.3603 -0.13773,0.3603c-0.94706,1.88209 -1.77717,3.80844 -2.53913,5.76319c2.22419,0.13249 4.45593,0.21877 6.70303,0.21877zM323.03225,77.53222l0.19605,0.17722c0.25046,-0.75036 0.50131,-1.49889 0.75468,-2.24519c-1.50948,-0.12614 -3.01907,-0.25443 -4.53129,-0.37221c-0.41363,0.81874 -0.86317,1.62069 -1.37152,2.39471l-0.50352,1.04081c0.72494,0.2137 1.69914,0.78543 1.72293,2.315c1.15,-0.00438 2.30334,-0.02913 3.44813,-0.09699c-1.27471,-1.65409 0.28454,-3.21334 0.28454,-3.21334zM328.84857,63.21535c-0.91742,-0.27881 -1.83868,-0.50756 -2.75403,-0.63408c-0.40864,-0.05647 -0.83075,-0.07939 -1.26281,-0.07437c0.35875,1.11425 -0.3516,2.17981 -0.3516,2.17981c-1.18584,1.74583 -2.05367,3.64987 -2.87878,5.57824c1.36795,0.1131 2.73462,0.22989 4.10184,0.34101c0.93658,-2.50535 1.9568,-4.97431 3.14538,-7.39061zM327.97172,79.29056l-0.70927,0.89785c3.03865,-0.61741 5.89136,-1.79489 8.3084,-4.01081c-2.15956,-0.04662 -4.30627,-0.16218 -6.44738,-0.31081c-0.38999,1.13725 -0.77088,2.27949 -1.15175,3.42377zM312.96396,76.582l0.94668,-1.85064c-1.11823,-0.05392 -2.23956,-0.09386 -3.365,-0.1148c-0.08188,0.95525 -0.77784,1.6512 -0.77784,1.6512l-0.75746,0.45199c0.05656,0.09191 0.11539,0.17961 0.17647,0.26275c0.69619,0.9477 2.10203,1.31005 3.56626,1.43166c-0.23548,-0.93938 0.2109,-1.83217 0.2109,-1.83217zM232.70005,88.9c0,-0.19146 0.02152,-0.3779 0.06228,-0.55703c-4.2644,1.75154 -8.62497,2.72448 -13.46127,1.35732c-1.28927,-0.36446 -5.32374,-1.15625 -6.41855,-2.01351c-0.93998,-0.73602 -1.41152,-1.92225 -2.09511,-2.90469c-1.10507,-0.22771 -2.26465,-0.32868 -3.21912,-0.90657c-0.02444,-0.0148 -0.0488,-0.02972 -0.07308,-0.04479c-0.65543,1.54135 -1.49945,3.27633 -0.56855,4.55496c0.78775,1.08201 2.02096,1.79123 3.38147,2.31709c-0.00537,-0.06688 -0.0081,-0.13451 -0.0081,-0.20277c0,-1.38071 1.11929,-2.5 2.5,-2.5c1.38071,0 2.5,1.11929 2.5,2.5c0,0.56824 -0.18958,1.09219 -0.50894,1.51207c0.10418,0.02902 0.20687,0.05819 0.30788,0.08763c5.8849,1.71479 13.22577,1.46164 19.45652,-0.78359c-1.06832,-0.28427 -1.85543,-1.25827 -1.85543,-2.41611zM237.70005,88.9c0,0.44237 -0.1149,0.85791 -0.31648,1.2184c0.8512,-0.41935 1.6701,-0.88139 2.44868,-1.38616c0.92156,-1.42144 1.55136,-2.96321 2.09185,-4.54836c-0.19201,0.14801 -0.39473,0.29545 -0.60974,0.44276c-0.76245,0.5224 -1.79004,0.50433 -2.61597,0.91915c-0.77369,0.38857 -1.54471,0.77545 -2.31535,1.15127c0.78405,0.42193 1.31701,1.2502 1.31701,2.20294zM188.31808,91.13606l-1.33132,0.64408c-1.60118,1.05683 -3.06763,2.32582 -4.41897,3.68764c0,0 -0.16014,0.16014 -0.43221,0.33582c2.658,-0.15699 5.53945,-0.48458 7.29671,-2.27138c1.2546,-1.27569 1.7545,-3.31542 2.2569,-5.09755c-0.64279,0.39948 -1.31309,0.75747 -2.00643,1.07717c-0.28186,1.08281 -1.36467,1.62422 -1.36467,1.62422zM179.03225,95.46778c-1.76776,-1.76776 0,-3.53554 0,-3.53554c0.04345,-0.04316 0.08699,-0.08623 0.13063,-0.12923c-0.50169,0.02286 -1.00435,0.03666 -1.50689,0.04218c-0.2662,1.55747 -1.66725,1.87404 -2.2258,1.93838c-1.05183,0.99672 -2.15765,1.94137 -3.32137,2.80371c2.25211,-0.07274 4.55869,-0.3211 6.84488,-0.57512c0.22253,-0.02473 0.45311,-0.04563 0.69036,-0.06401c-0.2021,-0.11815 -0.40696,-0.27553 -0.61181,-0.48037zM166.71803,95.93609c-0.19814,0.08172 -0.4017,0.17449 -0.60428,0.27829c0.40812,0.0765 0.82092,0.14035 1.23788,0.19284c-0.15042,-0.28001 -0.23881,-0.54602 -0.28003,-0.79618zM170.09453,91.38126c-0.15249,-0.0191 -0.30553,-0.02994 -0.45898,-0.0349c0.09319,0.26544 0.12533,0.52254 0.11655,0.76461c0.27906,-0.21809 0.55377,-0.44204 0.82424,-0.67111c-0.16121,-0.01901 -0.32183,-0.03855 -0.48181,-0.05859zM160.80946,100.07173c-0.72277,-0.24092 -1.15186,-0.62868 -1.39914,-1.05141c-0.76819,-0.28835 -1.64941,-0.33105 -2.32465,-0.79368c-2.40859,-1.65025 -3.24362,-3.27576 -4.76579,-5.53988c0,0 -1.04436,-1.56653 0.03898,-2.887c-1.58623,0.40117 -3.15099,0.78377 -4.77755,1.12037c6.47572,7.88214 11.02625,17.38471 17.55209,25.19492c3.64549,4.36296 6.64588,9.2327 10.39997,13.59998c1.65609,1.92659 3.52931,3.68983 4.94675,5.79821c0.97608,1.46408 1.63179,3.18652 2.88766,4.41901c0.68623,0.67345 1.72554,0.91476 2.40002,1.59998c1.98453,2.01613 3.53754,5.2188 5.11235,7.58104l0.48763,0.41896c0,0 0.28176,0.28177 0.50781,0.7328c0.52596,-0.44234 1.11807,-0.59036 1.11807,-0.59036c2.5426,-0.63411 5.625,-2.13769 8.20589,-2.44236c1.58896,-0.18758 3.20931,0.17243 4.79999,0c3.70806,-0.40196 8.09819,-1.54183 11.79783,-2.35859c1.24952,-0.27586 3.84174,-1.4886 5.00223,-1.64141c4.23433,-0.55761 8.32477,-0.49167 12.55875,-1.54853c5.89971,-1.47264 11.71423,-3.32883 17.63531,-4.80913c4.50852,-1.12711 9.28912,-2.7435 13.90093,-3.2559c5.55885,-0.61762 11.29306,0.50611 16.85909,-0.00656c1.35401,-0.12472 2.64681,-0.66675 4,-0.80002c5.77572,-0.56885 11.79002,0.72655 17.54088,0.00657c7.34575,-0.91966 14.11257,-4.7692 21.60003,-4.79999c5.19261,-1.33273 10.55451,-2.4098 15.90499,-2.38644l1.46538,-0.51329c0.44887,-0.26761 0.93878,-0.32794 1.33504,-0.31574c0.3985,-0.01228 0.89173,0.04882 1.34266,0.3203c2.08094,0.60207 3.69354,-0.45886 6.05102,-1.04891c1.33743,-0.33474 2.93,-0.89373 4.54779,-1.39394c-1.32261,-2.54022 -2.1316,-5.15 -3.33106,-7.73945c-0.55408,1.21177 -1.27605,2.31168 -2.29294,3.14553c-0.29287,0.24016 -4.93734,1.81863 -5.61849,2.01353c-5.49381,1.57199 -11.24878,2.41038 -17.00442,1.68094c-1.11478,-0.14128 -6.20027,-1.46259 -7.0623,-2.31348c-0.45183,-0.44599 -2.31462,-5.79898 -2.33226,-6.56777c-0.01934,-0.84306 0.77308,-1.55715 0.80005,-2.4c0.0186,-0.58101 -0.44783,-1.07292 -0.67174,-1.60938c0,0 -0.60225,-1.80663 0.82131,-2.79193c-0.15112,-0.66533 -0.20495,-1.38921 -0.14328,-2.17589c0.11359,-1.44925 1.2317,-2.6348 1.78399,-3.97949c0.37075,-0.9027 0.40365,-1.97238 0.98306,-2.75762c1.80033,-2.43988 4.39184,-4.38689 7.35506,-5.79532c-4.17037,0.95714 -8.81042,0.5707 -12.8289,-0.02265c-2.10526,-0.31086 -5.6467,0.73069 -7.46128,-0.43962c-1.55198,-1.00094 -2.69698,-6.59856 -3.30996,-8.43752c0,0 -0.11319,-0.33957 -0.12542,-0.80457c-0.6843,-0.43541 -1.31997,-0.98206 -1.88959,-1.66851c-0.4678,-0.56376 -0.86297,-1.24159 -1.18583,-1.99843c-1.59742,0.24111 -3.10073,0.67247 -4.83691,1.25265c0,0 -0.13611,0.04537 -0.35399,0.08176c-0.15667,0.72043 -0.34986,1.42556 -0.7099,2.06086c-0.65231,1.15103 -1.83011,1.91121 -2.75888,2.85343c-5.14218,5.21666 -10.4655,6.14262 -17.3673,7.09995c-0.96459,0.1338 -1.82659,0.8323 -2.80043,0.8323c-1.88563,0 -3.71441,-0.80002 -5.60004,-0.80002c-2.28372,0 -4.53966,-0.50931 -6.80042,-0.83227c-2.67361,-0.38194 -4.58882,0.87856 -6.96735,-1.49997c-1.99558,-1.99558 -1.55472,-5.01122 -1.79475,-7.69241c-0.93514,0.40205 -1.88313,0.77262 -2.84691,1.09637c0,0 -2.16895,0.72299 -3.04991,-1.28799l-0.16895,0.50684c-1.28604,3.85818 -2.30344,7.17927 -4.60394,10.57721c-5.35208,3.62349 -11.15288,4.63796 -17.3673,5.49994c-0.9646,0.1338 -1.82659,0.8323 -2.80042,0.8323c-0.97385,0 -1.83586,-0.69856 -2.80049,-0.8323c-3.24532,-0.44993 -5.99283,-0.63149 -9.19011,-1.69599c-3.48893,-1.1616 -6.33088,-1.62136 -8.53606,-5.05738c-0.90888,-1.41618 -1.1195,-2.85914 -1.01276,-4.31961c-0.96699,0.16161 -1.9084,0.51831 -2.67388,1.08541c0,0 -0.94147,0.62765 -1.97991,0.40505l-0.23515,0.70541c-0.95188,2.85568 -1.56351,5.95668 -3.80389,8.17715c-3.58285,3.55103 -8.94881,3.41203 -13.52142,3.92009c-3.72421,0.41379 -7.22963,1.30932 -11.04681,0.77987c-0.83528,-0.11585 -1.56579,-0.67677 -2.40002,-0.79999c-1.16231,-0.17167 -2.39533,0.25151 -3.52397,-0.07499c-0.48085,-0.13911 -0.89773,-0.41569 -1.30249,-0.72119c-0.11685,-0.02495 -0.23803,-0.05795 -0.36364,-0.09982zM160.51136,93.66199c1.05037,-1.08872 2.64709,-1.46536 3.97063,-2.19805l0.42387,-0.50479c-1.73441,-0.48442 -3.52519,-1.27899 -5.13022,-2.3372c-0.26247,0.46089 -0.52657,0.92132 -0.73954,1.39606v0l-0.43976,0.87953l0.28381,0.18921l-0.67159,1.00741c0.66426,0.69504 1.36833,1.29069 2.10677,1.79928c0.05999,-0.0806 0.12508,-0.15791 0.19603,-0.23145zM192.10001,76.9c0,1.73513 -1.20427,2.26599 -1.94116,2.4284c-1.55482,2.17574 -3.27491,4.22377 -4.4733,6.57227c3.61381,-1.32218 6.68456,-3.57902 7.84676,-7.00113c0,-0.12069 0.19299,-3.12139 -0.31903,-3.68205c-1.23326,-1.35041 -2.75308,-2.22315 -4.40802,-2.78718l-2.23747,2.23745c-3.48389,3.48389 -6.55066,6.71047 -9.2876,10.81898c0,0 -1.38673,2.08013 -3.46687,0.69339c-2.08014,-1.38674 -0.6934,-3.46687 -0.6934,-3.46687c2.83643,-4.2517 6.01602,-7.67162 9.59597,-11.26413c-1.20736,-0.05081 -2.39548,-0.04914 -3.51584,-0.04914c-0.58466,0 -1.17095,-0.0264 -1.75745,-0.05686c-3.20484,5.23932 -6.57537,10.09496 -10.2274,15.02657c0.13396,0.02513 0.26267,0.04602 0.3853,0.06257c1.0257,0.13845 2.07793,-0.14166 3.10497,-0.01355c1.09105,0.13609 2.10944,0.66022 3.20001,0.80002c1.79409,0.22999 3.87351,0.24567 6.00096,0.00697c0.02279,-0.4191 0.12187,-0.71634 0.12187,-0.71634c1.44004,-4.21108 4.24537,-7.32403 6.69159,-10.99612l2.88012,-1.11326c0,0 2.5,0 2.5,2.5zM176.48197,65.86394c0,0 1.80536,-0.90268 2.98279,0.53634c5.8858,0.01319 13.73809,0.49663 17.72206,5.78225c1.73734,2.30496 1.28094,4.90434 1.28094,7.5179c-0.41564,1.26001 -0.93543,2.39884 -1.54532,3.42656c0.74701,-0.55697 1.47132,-1.16478 2.35315,-1.41972c1.10046,-0.31814 2.27906,-0.13411 3.4332,-0.10727c0.23055,-1.03106 0.40316,-2.06542 0.39123,-3.1c0,0 0,-0.31457 0.11158,-0.72053c-0.7524,-2.73561 -0.48935,-5.73885 1.20164,-7.99697c0.72507,-0.96824 1.96882,-1.40609 2.94287,-2.12335c4.13157,-3.04232 7.05456,-4.56432 11.94496,-5.95944c9.04229,-2.57956 18.19577,-4.11881 26.46675,1.43252c1.42878,2.11044 4.30028,6.30985 3.92596,9.14499c-0.16013,1.21286 -0.96856,2.73582 -1.85177,4.15051c0.73496,0.45485 0.98408,1.11559 1.04187,1.68771c0.382,-0.27262 0.72556,-0.38714 0.72556,-0.38714c1.11664,-0.3689 2.20717,-0.81559 3.27884,-1.3045c-0.20094,-0.72 -0.2669,-1.47422 -0.16609,-2.25563c0.4486,-3.47729 4.88534,-6.4254 7.49109,-8.14829c3.67433,-2.42942 7.69469,-3.124 11.8878,-4.32018c0.61563,-0.17562 4.68953,-1.61347 5.0985,-1.66743c2.13177,-0.28126 4.2673,0.53329 6.40094,0.79999c2.26535,0.28316 4.61644,0.19796 6.79009,0.89603c1.08249,0.42768 2.43565,0.44899 3.24746,1.28306c2.87503,2.95389 3.17125,6.49773 2.08889,9.79207c0.97294,0.23934 1.55326,1.10983 1.55326,1.10983l0.35137,0.60767c1.88016,-0.62446 3.57953,-1.08861 5.33936,-1.37658c-0.1889,-3.3713 0.56388,-6.91492 2.24237,-8.96184c1.95066,-2.37882 5.67383,-3.27836 8.48775,-4.08282c4.04876,-1.15749 8.76143,-2.97172 13.00441,-2.48096c2.82851,0.32715 5.70339,1.58199 8.39351,2.48096c2.69049,0.70011 4.96745,0.85536 6.88784,3.28281c2.7797,3.51366 1.41093,10.04249 -1.08681,14.08257v0.31141c0.29957,0.11858 0.48681,0.24341 0.48681,0.24341c0.99998,0.72088 2.22129,1.20695 2.99996,2.16262c0.63407,0.77821 0.60608,1.9233 1.05907,2.8191c0.81786,1.61733 2.02899,3.00365 3.0343,4.51164l1.28765,1.21896c0,0 0.52572,0.52571 0.71708,1.29045c1.54501,0.51215 4.35346,1.46166 4.63262,1.69058c2.27447,1.86508 2.58548,4.11974 3.3807,6.69082c-0.60091,2.67373 -1.18108,6.09228 -2.59464,8.73644c0.04663,0.10434 0.06816,0.16894 0.06816,0.16894c0.51468,1.59746 1.53012,2.98774 2.2741,4.49216c1.65501,3.34664 2.38488,6.61583 4.4418,9.818c0.06957,-0.00123 0.13857,-0.00153 0.20697,-0.00087c1.85207,0.01792 4.36856,-0.54193 5.47591,0.94274c1.78545,2.39383 -0.97763,7.19567 -2.60271,8.90631c-0.66222,0.69708 -1.71551,0.92478 -2.40002,1.59998c-1.59143,1.56976 -2.42667,3.77108 -3.87914,5.47025c-3.09051,3.61542 -5.90548,7.27803 -9.16539,10.73327c0.52177,0.35064 0.97677,0.96219 0.97677,2.02872c0,2.5 -2.5,2.5 -2.5,2.5h-0.79999c-8.57396,0 -16.8485,0.40941 -25.19959,1.56772c-2.11309,0.29309 -4.28951,-0.31162 -6.39995,-0.00001c-4.13955,0.61122 -8.35561,1.2977 -12.50147,2.33258c-5.71697,1.8377 -11.97798,1.64076 -17.89856,2.46744c-4.06047,0.56696 -8.00317,2.68367 -12.095,3.21354c-1.02644,0.13291 -2.07929,-0.15202 -3.105,-0.01356c-2.31998,0.31318 -4.68067,1.77742 -6.95874,2.34853c-2.2518,0.56453 -5.71532,1.04999 -8.00001,1.60001c-1.61326,0.38837 -2.90233,1.62302 -4.43034,2.27003c-3.21151,1.35987 -7.37206,1.8541 -10.76968,2.52999c-5.93563,1.99192 -11.81968,1.80245 -17.93624,2.46501c-4.1075,0.44494 -7.91115,2.6705 -12.00001,3.19998c-8.5375,1.10555 -17.1846,0.9867 -25.69155,3.04385c-0.62206,0.3105 -1.21146,0.26266 -1.68625,0.1024c-0.53203,-0.11611 -1.11179,-0.41571 -1.48678,-1.11527l-0.02757,-0.03209c-0.48397,-0.32265 -4.94506,-3.28006 -5.18107,-3.51237c-0.68521,-0.67448 -0.92164,-1.7186 -1.59998,-2.39999c-2.06124,-2.07053 -5.12653,-3.52652 -7.20002,-5.60001c-2.05899,-2.05899 -4.13738,-4.94047 -5.76557,-7.38281c-2.98771,-2.98767 -6.08976,-6.3438 -8.79998,-9.59997c-3.66556,-4.40395 -5.86432,-10.0634 -9.60002,-14.40001c-5.88401,-6.83048 -11.13387,-12.88089 -14.03834,-21.59441c0,0 -0.0016,-0.00481 -0.00445,-0.01408c-0.00483,-0.00159 -0.00966,-0.00319 -0.01449,-0.0048c-2.3717,-0.79062 -1.58108,-3.16231 -1.58108,-3.16231l0.69847,-2.04252c-0.01761,-0.11974 -0.02672,-0.24223 -0.02672,-0.36685c0,-0.34825 0.07121,-0.67988 0.19986,-0.9811l1.57892,-3.94736l0.36052,0.1442c0.37199,-1.23919 0.99171,-2.28194 2.1307,-3.5878c2.02985,-4.06325 4.06865,-8.21211 5.45827,-12.4185c0,0 0.56404,-1.69214 2.16857,-1.74139c0.01162,-0.01194 0.0234,-0.02388 0.03534,-0.03582c1.15033,-1.15034 2.30066,-0.80357 2.96389,-0.42101c0.42667,-0.21618 0.79292,-0.27721 0.79292,-0.27721c3.59491,-0.59309 6.70005,-1.48121 10.20469,-2.35937l0.55716,-0.31266c-0.01097,-0.06261 -0.02134,-0.1326 -0.0297,-0.20853c-0.50203,-1.06817 -0.79801,-2.2236 -0.82117,-3.45344c-0.00906,-0.48141 1.47102,-4.81883 1.72826,-5.59057c0,0 0.63768,-1.91308 2.48579,-1.73017l0.76845,-1.06601c4.34927,-1.63385 8.37056,-4.5915 13.11704,-5.28098c0.14282,-0.02075 1.6907,-0.02886 3.27725,-0.03176zM321.67507,148.21898c-0.08531,-0.21583 -0.14267,-0.41954 -0.17653,-0.61153c-0.7985,-0.73929 -0.7985,-1.90744 -0.7985,-1.90744c0,-2.93333 0,-6.66667 0,-9.6c0,0 0,-2.5 2.5,-2.5c0.36694,0 0.68003,0.05386 0.94716,0.14577c0.32745,-0.24525 0.65802,-0.47652 1.00157,-0.64929c-3.9175,0.38951 -7.68739,1.69618 -11.48761,2.85868c3.23485,1.79943 3.72087,6.79259 4.71058,9.75428l0.79999,2.39999c0,0 0.44407,1.33222 -0.3319,2.33255c1.05895,0.07458 2.11739,0.14419 3.15972,-0.00971c3.57954,-0.52852 7.15289,-0.89981 10.74146,-1.15321c0.08166,-0.41449 0.22295,-0.69707 0.22295,-0.69707l0.66436,-1.27255c1.58493,-4.75485 2.70637,-10.21947 4.9259,-14.7078c0.30801,-0.62285 0.66254,-1.22614 1.00881,-1.83267c-4.0498,0.37544 -8.04621,1.23229 -12.02222,2.20366c5.23672,1.33809 6.93583,9.73938 4.11453,13.62592c-1.22677,1.68996 -3.79559,1.74277 -5.69338,2.61415l-1.04294,0.41225c0,0 -2.32496,0.91899 -3.24395,-1.40597zM327.73045,143.50095c1.35262,-1.44285 -0.14033,-3.77568 -0.80463,-4.94645c-0.15128,-0.26662 -0.23035,-0.83621 -0.52581,-0.7545c-0.32639,0.09026 -0.51458,0.39825 -0.69997,0.71065c0,1.92807 0,3.85615 0,5.78422c0.77542,-0.1045 1.52358,-0.25327 2.03041,-0.79391zM312.80002,146.60001h-2.21118c-0.49439,1.58897 -0.90172,3.24909 -1.3707,4.85373c1.90112,-0.34968 3.80149,-0.65417 5.68312,-0.92313c-0.33459,-0.42498 -0.47295,-0.84005 -0.47295,-0.84005l-0.79999,-2.39999c-0.08477,-0.2549 -0.16797,-0.51045 -0.24936,-0.76665c-0.33523,0.07609 -0.57894,0.07609 -0.57894,0.07609zM306.30002,144.10001c0,-0.89527 0.32061,-1.46994 0.73219,-1.83882c0.30906,-0.75125 0.64634,-1.49478 1.02307,-2.22857c0.38517,-0.75023 0.56163,-1.83426 0.82906,-2.77669c-0.98516,0.21927 -1.97713,0.40026 -2.97888,0.52532c-1.38473,0.17286 -2.78277,0.22999 -4.18793,0.22479c1.41911,0.62653 2.40887,2.16622 2.33393,4.98424c-0.04173,1.56926 -2.30977,2.12655 -3.46465,3.18983l-1.83195,0.35175c0.00984,1.79193 0.53489,3.64671 0.54516,5.56814l-4.44018,-0.38658l-0.55982,0.38658c0.00095,-0.14721 0.00029,-0.29232 -0.00177,-0.43547l-0.5343,-0.04652c0,0 -0.8177,-1.63542 0.34414,-2.80832c-0.02948,-0.30142 -0.05885,-0.59833 -0.08526,-0.89315c-1.89476,-0.90628 -1.19451,-3.00709 -1.19451,-3.00709c0.66479,-1.94419 1.35413,-4.79373 3.25419,-5.99623c0.71168,-0.4504 1.48563,-0.79899 2.26223,-1.0115c-3.38196,-0.16917 -6.77642,-0.45145 -10.09838,-0.1139c-1.35278,0.13745 -2.64571,0.67843 -4,0.80002c-5.52557,0.49609 -11.23346,-0.61852 -16.74088,-0.00656c-4.40515,0.48947 -8.98911,2.06658 -13.29915,3.14407c-5.89832,1.47461 -11.68806,3.31969 -17.56464,4.79091c-3.41296,0.85444 -6.74506,1.06754 -10.12739,1.36218c0.02337,0.73643 -0.27821,1.3396 -0.27821,1.3396l-0.66437,1.2726c-2.07352,6.22018 -1.20029,12.76011 -2.71012,19.04556c5.62099,-0.57227 11.03108,-0.44149 16.49675,-2.25242c3.06444,-0.61605 7.12183,-1.00576 10.03025,-2.27006c1.75949,-0.76485 3.3119,-2.05127 5.16976,-2.52996c2.87025,-0.73953 5.14226,-0.88775 8,-1.60001c2.48103,-0.61837 4.91145,-2.07333 7.44115,-2.45146c1.08628,-0.16237 2.20451,0.11738 3.29503,-0.01355c4.01736,-0.48234 7.90839,-2.60405 11.90499,-3.18643c5.64925,-0.82319 11.89905,-0.44927 17.30152,-2.33261c0.47316,-0.11846 0.94762,-0.23331 1.4231,-0.34473c-0.08612,-0.67484 0.10413,-1.24557 0.10413,-1.24557c0.79762,-2.3927 1.44739,-4.78684 2.27269,-7.12447c-0.00065,-0.02798 -0.00097,-0.05629 -0.00097,-0.08492zM343.04582,134.79838c-2.14582,4.2389 -3.16839,9.57507 -4.67408,14.09219l-0.04089,0.08423c1.89793,-0.07458 3.80313,-0.12222 5.71872,-0.14862c0.2328,-0.5441 0.58268,-0.89397 0.58268,-0.89397l0.8,-0.79997c4.56138,-4.56144 8.76224,-9.64164 12.52692,-14.87615c1.3863,-1.92755 2.82815,-3.37691 4.37221,-4.95512c-0.63777,0.22417 -1.17273,0.17047 -1.60489,-0.00524c-0.04012,0.00964 -0.08017,0.0195 -0.12013,0.02962c-4.84287,1.22605 -10.03584,3.54542 -14.90054,2.56625l-0.2322,0.07457c-0.6242,1.68788 -1.61402,3.22462 -2.42782,4.8322zM217.62832,169.70944c1.7621,-5.03086 0.83095,-10.39669 1.50396,-15.60989c0.02526,-0.19571 1.29681,-3.99642 1.62776,-4.98581c-0.57481,0.24563 -1.15384,0.47761 -1.75742,0.61253c-3.79815,0.84901 -8.36445,2.0052 -12.20217,2.44146c-1.58976,0.18072 -3.20848,-0.16452 -4.79999,0c-2.15635,0.22292 -4.80845,1.46248 -7.03177,2.14371c-2.17113,6.7672 -3.09352,13.80796 -5.24785,20.52111c6.77738,-1.01847 13.6016,-1.20073 20.37369,-2.01383c2.52752,-0.30347 4.95212,-1.28073 7.41024,-2.09119c-0.02554,-0.57082 0.12355,-1.01809 0.12355,-1.01809zM339.72664,85.41433c-1.27169,1.97259 -2.87588,3.39457 -4.68496,4.39884c2.73631,-0.77607 5.60448,-1.1467 8.3456,-1.08365c-0.91138,-1.6472 -1.77319,-3.46777 -2.89399,-4.86502c-0.17656,0.50469 -0.4233,1.01725 -0.76664,1.54982zM325.76781,115.93225c0.30977,0.32256 0.89386,0.07377 1.33115,0.16745c1.87215,0.40109 3.78643,0.70618 5.70106,0.70029c4.46103,-0.01371 7.82595,-0.28071 12.10102,-1.50028c1.33171,-0.3799 2.87739,-0.35057 3.98148,-1.18648c0.46332,-0.35078 0.80558,-0.95303 1.08208,-1.64491c-2.67496,1.32093 -5.68135,2.08068 -8.46562,2.83198c-1.03851,0.28023 -2.02341,0.88743 -3.099,0.89972c-0.97377,0.01113 -1.83411,-0.71151 -2.80043,-0.8323c-1.19063,-0.14884 -2.39969,0.02152 -3.59953,0.03229h-3.20001c0,0 -2.5,0 -2.5,-2.5c0,-0.49131 0.09655,-0.88607 0.25171,-1.20325c-0.31801,-0.12211 -0.63095,-0.25403 -0.93669,-0.39627c-0.26828,1.43132 -1.00847,3.42258 0.15276,4.63177zM313.46181,86.87189c0.55273,0.23442 1.13987,-0.42262 1.73823,-0.47189c1.19614,-0.09849 2.41161,-0.13262 3.60041,0.03228c5.46956,0.75866 12.81722,1.78965 16.67291,-3.64659c0.08909,-0.12561 0.16318,-0.26863 0.22456,-0.42473c-6.46384,3.85528 -14.72889,3.43903 -22.09792,3.43903h-0.02139c-0.0097,0.38384 -0.44805,0.93142 -0.11681,1.0719zM336.09863,110.39931c0.10073,0.00947 0.20135,0.02041 0.30187,0.03297c0.70843,0.08855 1.28568,0.75472 1.9995,0.76773c0.61309,0.01117 1.11471,-0.52083 1.70104,-0.70032c3.34225,-1.02312 7.51608,-1.6437 10.20246,-4.19532c0.02393,-0.70817 0.31168,-1.61919 1.49708,-2.09922c0.81023,-1.75207 1.24158,-4.03455 1.70128,-5.60922c-1.25534,-3.20371 -2.31655,-3.04111 -5.49241,-4.12422c-5.93179,-2.02302 -10.48335,0.06736 -15.85271,2.33799c-0.65502,0.277 -1.45383,0.21773 -2.04241,0.61692c-3.85038,2.61144 -6.5248,9.34571 0.06005,10.64026c1.12064,0.22031 2.28374,-0.04458 3.42561,-0.06688c0,0 2.43241,0 2.49863,2.39931zM134.37174,113.70944c2.70539,8.11627 7.70197,13.60625 13.16162,20.00556c3.72126,4.36173 5.92877,10.00064 9.60004,14.40004c2.72113,3.2608 5.803,6.60302 8.79999,9.59998c1.54835,2.32259 3.48233,5.06516 5.43438,7.01721c2.06782,2.06782 5.12034,3.52888 7.20002,5.60001c0.68126,0.67846 0.92653,1.71377 1.59998,2.39999c0.88716,0.90399 2.02817,1.49702 3.14396,2.12239l-0.13707,-0.54828l0.13512,-0.03378c-0.07981,-0.21866 -0.14975,-0.44124 -0.20793,-0.66848c-0.23601,-0.9218 0.41233,-1.83017 0.79277,-2.73674c-0.07292,-0.80093 0.26934,-1.48543 0.26934,-1.48543l0.46885,-0.73432c0.04762,-0.14517 0.09522,-0.29017 0.14281,-0.435c0.20455,-1.53669 0.50561,-5.91802 2.24835,-7.32585c0.05975,-0.22765 0.11837,-0.45619 0.17575,-0.68571l0.07301,-0.0768l-0.04442,-0.0148l0.78176,-2.3453c0.19149,-0.62265 0.61962,-1.14164 1.17942,-1.45203c0.21705,-0.82658 0.44606,-1.65031 0.69153,-2.46989c-1.15346,0.12085 -2.04876,-0.77445 -2.04876,-0.77445l-1.11236,-1.18102c-1.36749,-2.05126 -2.73234,-5.09638 -4.48762,-6.81898c-0.68623,-0.67345 -1.72555,-0.91476 -2.40002,-1.59998c-0.23197,-0.23566 -3.18994,-4.69741 -3.51237,-5.18103c-1.30912,-1.98347 -3.10902,-3.5953 -4.65323,-5.4018c-3.73571,-4.37025 -6.77898,-9.24351 -10.39996,-13.59997c-6.91476,-8.31924 -11.58273,-18.66041 -18.83641,-26.72311c-0.5287,1.39506 -1.11107,2.78327 -1.72722,4.16389c0.12681,0.2994 0.19694,0.62863 0.19694,0.97424c0,0.22871 -0.03071,0.45025 -0.08824,0.66072l-0.78639,3.1456l-0.09205,-0.02302c-0.0188,0.16404 -0.04386,0.32775 -0.07596,0.4911c-0.28066,1.42812 -1.77876,2.30731 -2.58269,3.52056c-1.32659,2.00203 -2.48031,4.1161 -3.82884,6.10342l-0.21565,0.66926c0.82714,0.49851 1.14156,1.44178 1.14156,1.44178zM159.65362,78.61323c-0.19113,0.48071 -0.33131,0.97155 -0.3536,1.48677c-0.07526,1.73978 1.34067,3.24053 3.1128,4.34851c3.10741,-4.15996 5.99829,-8.22448 8.75301,-12.5059c-0.792,0.30678 -1.57181,0.66547 -2.37524,0.9291c-2.35966,0.77429 -4.07941,2.16134 -6.47308,2.81506l-1.03733,1.79998c0,0 -0.60954,0.91432 -1.62656,1.12649zM211.81508,79.94999c0.56511,-0.03254 1.06224,0.17209 1.41348,0.38019c0.31291,0.16912 0.68054,0.43455 0.94385,0.83164l0.70775,0.75144c1.59503,2.76775 7.07417,4.23721 10.31939,3.71903c6.09504,-0.97323 13.35646,-4.25821 16.72036,-9.31903c0.13683,-0.20585 2.71761,-3.97627 2.78643,-4.39047c0.2041,-1.2285 -1.83159,-4.26401 -2.47407,-5.25503c-4.62968,-3.04626 -8.80632,-2.25323 -13.98589,-1.67992c-4.08394,0.45203 -8.94816,1.04584 -12.748,2.95797c-2.18871,1.10139 -5.49169,3.11524 -7.11162,4.87167c-1.49662,1.62274 -0.13632,5.79493 1.645,6.70704c0.54551,0.27932 1.1662,0.34738 1.78332,0.42548zM259.36778,85.53223c0.99795,0.99793 2.83561,-0.09953 4.23272,0.10005c1.99588,0.28512 3.98336,0.76771 5.9995,0.76771c1.2002,0 2.41233,-0.13746 3.60048,0.03228c0.70679,0.10097 1.2856,0.76774 1.99955,0.76774c0.71395,0 1.29322,-0.66344 1.9995,-0.76773c0.9416,-0.13904 1.87968,-0.27577 2.80741,-0.42621c-4.90458,0.7107 -10.60397,-0.44344 -14.84694,-1.8191c-0.08745,0.00762 -0.17545,0.01153 -0.26405,0.0112c-1.67629,-0.00624 -3.81933,-0.56396 -5.84127,-1.5431c-0.2142,1.09934 -0.39726,2.16682 0.31309,2.87716zM294.32214,78.03184l-0.83695,-0.93641c-0.90983,1.25534 -1.97604,2.39094 -3.10021,3.33794c-1.90834,1.6076 -3.86356,3.23891 -6.1105,4.32398c-1.07373,0.51852 -2.2453,0.88146 -3.47695,1.11638c5.37683,-0.93117 10.33559,-2.48456 13.52461,-7.84189zM269.60348,80.20935c2.29829,0.48009 4.4257,0.58212 7.19654,0.59064c1.6234,0.00499 3.77158,0.25772 5.32559,-0.55733c1.85329,-0.97202 3.47294,-2.34695 5.08945,-3.67602c2.39425,-1.96851 7.09091,-8.97297 1.59438,-10.09492c-1.90357,-0.66678 -4.00844,-0.45384 -6.00984,-0.70401c-1.60926,-0.20115 -3.19764,-1.0557 -4.79914,-0.79999c-1.56525,0.24992 -2.97756,1.09654 -4.50147,1.53258c-3.63693,1.04067 -7.36473,1.55955 -10.51222,3.67983c-1.50207,1.01186 -4.70974,2.77486 -5.30884,4.6517c-0.04048,0.12681 -0.05201,0.24981 -0.0394,0.36917c0.30245,0.01199 2.28825,0.169 2.45089,2.22427c1.12587,0.74667 2.19646,1.27383 3.30587,1.45982c0.30655,-0.63648 0.93132,-1.28509 2.20472,-1.28509c0.95041,0 1.53951,0.36131 1.90465,0.80922c0.73122,0.05255 1.63515,0.40438 2.06709,1.70019c0.01121,0.03363 0.02178,0.06694 0.03173,0.09994z" fill="#696969" stroke-width="0.5"></path>
      <path d="M217.50003,72.10001c0,-1.38071 1.11929,-2.5 2.5,-2.5c1.38071,0 2.5,1.11929 2.5,2.5c0,1.38071 -1.11929,2.5 -2.5,2.5c-1.38071,0 -2.5,-1.11929 -2.5,-2.5z" fill="#696969" stroke-width="0.5"></path>
      <path d="M232.04447,74.53484c-0.32889,-0.11581 -0.67053,-0.3254 -1.01218,-0.66703c-1.7678,-1.76774 -0.00007,-3.53553 -0.00007,-3.53553l4.9395,0.17716c0.26666,0.80001 0.53333,1.60001 0.79999,2.40002c0,0 0.79055,2.37172 -1.58117,3.16227c-2.1784,0.72611 -3.02289,-1.21555 -3.14608,-1.53689z" fill="#696969" stroke-width="0.5"></path>
      <path d="M221.50003,81.70001c0,-1.38071 1.11929,-2.5 2.5,-2.5c1.38071,0 2.5,1.11929 2.5,2.5c0,1.38071 -1.11929,2.5 -2.5,2.5c-1.38071,0 -2.5,-1.11929 -2.5,-2.5z" fill="#696969" stroke-width="0.5"></path>
      <path d="M271.56575,71.5336c-0.22289,0.09508 -0.44062,0.19393 -0.65141,0.29303c-0.61462,0.28896 -2.0548,1.48891 -1.37578,1.50284c0.58115,0.01193 1.10765,-0.35299 1.66148,-0.52949l-0.16779,-0.86774c0,0 0.20031,-0.20031 0.5335,-0.39865zM272.48324,71.18081c0.60922,-0.10826 1.34688,0.01377 2.08454,0.75143c1.76777,1.76777 0,3.53553 0,3.53553l-3.36774,2.33221c-1.57951,-0.1765 -3.61102,0.59065 -4.73854,-0.52949c-4.10931,-4.08239 -1.34791,-7.27339 1.82417,-9.69711c3.69022,-2.81961 9.97687,-2.33173 12.90114,1.40912c0.76841,0.98298 1.0913,2.28385 1.28094,3.51703c1.27626,8.29919 -6.16137,10.86462 -12.86774,10.90045c0,0 -2.5,0 -2.5,-2.5c0,-2.5 2.5,-2.5 2.5,-2.5c3.65396,0.02364 8.4947,-0.30663 7.93231,-5.09955c-0.05136,-0.43768 -0.0337,-0.94713 -0.31904,-1.28296c-1.29627,-1.52569 -3.08217,-1.3922 -4.73003,-0.83667z" fill="#696969" stroke-width="0.5"></path>
      <path d="M331.89999,99.29999c0,-1.38071 1.11929,-2.5 2.5,-2.5c1.38071,0 2.5,1.11929 2.5,2.5c0,1.38071 -1.11929,2.5 -2.5,2.5c-1.38071,0 -2.5,-1.11929 -2.5,-2.5z" fill="#696969" stroke-width="0.5"></path>
      <path d="M338.30002,105.70001c0,-1.38071 1.11929,-2.5 2.5,-2.5c1.38071,0 2.5,1.11929 2.5,2.5c0,1.38071 -1.11929,2.5 -2.5,2.5c-1.38071,0 -2.5,-1.11929 -2.5,-2.5z" fill="#696969" stroke-width="0.5"></path>
      <path d="M344.70004,99.29999c0,-1.38071 1.11929,-2.5 2.5,-2.5c1.38071,0 2.5,1.11929 2.5,2.5c0,1.38071 -1.11929,2.5 -2.5,2.5c-1.38071,0 -2.5,-1.11929 -2.5,-2.5z" fill="#696969" stroke-width="0.5"></path>
      <path d="M107.14501,108.06149c0.00075,-0.21053 -0.01382,-0.41566 -0.11276,-0.59371c-0.32253,-0.58042 -1.35702,0.1491 -1.93384,0.47803c-1.93945,1.10596 -5.37375,3.39866 -5.90566,5.67865c-0.36223,1.55265 -0.73942,3.5201 0.24156,4.77693c0.27938,0.35795 0.91545,0.01809 1.3563,0.12691c3.26147,0.80508 3.70879,1.01653 6.89138,-0.66435c0,0 2.23607,-1.11803 3.3541,1.11803c1.11803,2.23607 -1.11803,3.3541 -1.11803,3.3541c-3.96178,1.90176 -6.4863,2.54026 -10.7086,0.93563c-1.16709,-0.44354 -2.66013,-0.50109 -3.44375,-1.47307c-1.00751,-1.24968 -1.22258,-3.00371 -1.44695,-4.59319c-0.23439,-1.66043 -0.33203,-3.40661 0.08854,-5.02991c0.3224,-1.24438 1.24213,-2.26825 2.05935,-3.26051c2.94685,-3.57805 9.21068,-9.29196 14.10116,-4.98278c0.9147,0.80597 1.05606,2.20875 1.40393,3.37719c1.18741,3.98837 1.83685,5.64348 -3.63985,7.26844c-1.1623,0.34486 -2.34829,-0.60413 -3.52244,-0.90619l-0.1772,-4.93946c0,0 1.1446,-1.1446 2.51278,-0.67075z" fill="#696969" stroke-width="0.5"></path>
      <path d="M173.70004,189.70001c0,2.5 -2.5,2.5 -2.5,2.5h-0.80005c-1.57949,-0.17649 -3.42075,0.35909 -4.73847,-0.52948c-0.83326,-0.56188 0.16477,-2.19543 -0.46454,-2.97901c-0.31675,-0.3944 -0.53981,1.1675 -1.04161,1.10363c-2.19526,-0.27942 -4.85284,-0.38152 -6.31762,-2.04033c-2.08368,-2.35969 1.08459,-4.10111 1.26225,-6.05482c0.05848,-0.64313 -0.68293,-1.47284 -1.37045,-2.10479c-0.36171,1.99332 -1.04236,3.86641 -2.14278,5.22224c-5.81873,7.16934 -17.51242,3.95721 -21.03256,-3.61909c-2.71563,-5.84477 1.11568,-8.93344 6.25521,-10.67009c1.17442,-0.39684 5.62972,-1.97967 6.40188,-1.59299c1.6412,0.82187 2.17773,2.95525 3.26659,4.43287c-0.30205,1.17413 -0.6041,2.34827 -0.90615,3.5224l-1.40406,1.77726c0,0 -1.76783,1.7677 -3.53553,-0.00013c-1.7677,-1.76783 0.00013,-3.53553 0.00013,-3.53553l0.19604,0.17729c0.23127,-0.42586 0.46255,-0.85173 0.69382,-1.27759c0.03539,-0.19537 -2.3986,0.99932 -3.13157,1.23984c-1.00433,0.32957 -2.76051,0.72321 -3.6038,1.54578c-1.44136,1.40595 2.44955,5.36868 3.32756,5.95589c2.29032,1.53174 7.62725,1.42822 9.49889,-0.99085c1.63747,-2.1164 1.84869,-6.71568 1.16146,-9.07618c0,0 -0.60633,-2.42536 1.81902,-3.03169c2.42536,-0.60633 3.03169,1.81902 3.03169,1.81902c0.18913,0.84562 0.32473,1.82716 0.38978,2.87767c1.2031,-0.18858 2.15257,0.76088 2.15257,0.76088c2.18553,2.26043 3.80881,3.08995 3.93226,6.5678c0.03929,1.10692 -0.39705,2.21864 -0.92828,3.19055c-0.04878,0.08925 -0.18062,0.1601 -0.33597,0.21475c1.52775,-0.40192 3.78073,-1.38639 4.76724,-0.79684c1.03138,0.61637 0.30019,2.55741 1.13556,3.42101c0.40412,0.41778 1.10762,-0.35298 1.66143,-0.52948h0.80005c0,0 2.5,0 2.5,2.5z" fill="#696969" stroke-width="0.5"></path>
      <path d="M292.9686,42.14227c0.29639,-0.6542 0.91987,-1.34229 2.23144,-1.34229c2.5,0 2.5,2.5 2.5,2.5l-1.57094,2.91474c1.67989,-1.02095 2.78993,-2.41434 4.23004,-4.35867c0.34577,-0.46683 1.87499,-1.96847 1.4367,-2.97639c-0.55897,-1.28544 -2.79416,-0.28925 -4.19584,-0.27965c-1.68843,0.01156 -3.56261,0.14897 -4.93819,1.12811c-3.51939,2.50512 -1.95366,2.91613 0.30678,2.41416zM295.00801,46.80094c-2.07622,0.70618 -4.54634,1.50912 -6.58766,0.30324c-3.52799,-2.08412 -3.49742,-5.34583 -1.74696,-8.3185c2.3964,-4.06963 6.62878,-5.20609 10.92661,-5.18567c1.57521,0.00749 3.23281,-0.39901 4.72446,0.10727c4.19032,1.42224 4.95881,3.76426 4.06829,7.91719c-0.25717,1.19934 -1.25109,2.11278 -1.95192,3.11945c-2.56226,3.68043 -5.01867,5.86526 -9.25027,7.3278c0,0 -2.37171,0.79058 -3.16228,-1.58113c-0.79058,-2.37171 1.58113,-3.16228 1.58113,-3.16228c0.50856,-0.161 0.97163,-0.33617 1.3986,-0.52737z" fill="#696969" stroke-width="0.5"></path>
      <path d="M161.40635,55.27465c2.42536,0.60633 1.81902,3.03169 1.81902,3.03169l-0.12499,0.16812c0.74419,-0.72322 1.58171,-1.37343 1.60149,-3.07853c0.03442,-2.96638 -2.82166,-3.53677 -5.1014,-3.2282c-3.1467,0.42591 -9.32455,6.98872 -6.41369,10.41478c0.63903,0.75214 2.85668,1.30508 3.60378,1.54577c0,0 2.37171,0.79055 1.58116,3.16227c-0.79055,2.37171 -3.16227,1.58116 -3.16227,1.58116c-2.21837,-0.75854 -4.40768,-1.22212 -5.9962,-3.25421c-6.41949,-8.21209 5.19154,-19.8157 13.58716,-18.38521c5.77939,0.98472 8.10935,7.22609 5.88584,12.2791c-1.08565,2.46717 -3.14389,4.97806 -6.28629,4.68862c-1.67547,-0.15432 -3.06098,-1.398 -4.59147,-2.09701l0.56615,-5.00933c0,0 0.60633,-2.42536 3.03169,-1.81902z" fill="#696969" stroke-width="0.5"></path>
      <path d="M357.41456,170.80244c0.5656,0.33736 1.08547,0.95752 1.08547,2.09755c0,2.5 -2.5,2.5 -2.5,2.5l-3.17168,-1.70939c-0.28716,-1.25499 -1.25076,-2.53781 -0.86148,-3.76498c2.38078,-7.50528 15.74558,-8.54355 16.90085,0.17392c0.20965,1.58196 0.40355,3.33044 -0.26353,4.78011c-0.53343,1.15923 -2.05874,1.5135 -3.01918,2.35369c-2.8356,2.48057 -2.44513,3.3611 -6.61064,4.49977c-1.08488,0.29656 -2.26075,-0.12631 -3.37386,0.03459c-2.23145,0.32256 -4.5546,1.33572 -6.72497,0.72503c-2.17773,-0.61277 -4.33912,-3.13083 -5.84327,-4.62495c0,0 -1.76778,-1.76776 -0.00002,-3.53553c1.76776,-1.76778 3.53553,-0.00002 3.53553,-0.00002c0.21772,0.2194 2.86503,3.11217 3.7567,3.37505c1.80904,0.53334 2.76935,-0.63439 4.47511,-0.87501c0.99886,-0.1409 2.04031,0.24884 3.02604,0.03459c2.49849,-0.54305 2.66583,-2.00616 4.58944,-3.50023c0.51903,-0.40314 1.43638,-0.28651 1.78075,-0.84627c0.28666,-0.46595 -0.16969,-1.08095 -0.26353,-1.61992c-0.58055,-3.33434 -5.6937,-2.03515 -6.51771,-0.09801z" fill="#696969" stroke-width="0.5"></path>
      <path d="M260.00003,194.60001c-2.5,0 -2.5,-2.5 -2.5,-2.5l0.12829,-3.19055c0.39498,-1.04232 0.4556,-2.28404 1.18494,-3.12696c3.38478,-3.91192 10.89356,-4.14066 12.4746,2.07115c0.34312,1.34811 -1.29254,2.46678 -1.84203,3.74475c-0.3331,0.7747 -0.42038,1.64702 -0.80005,2.39999c-1.48814,2.95133 -3.69087,6.24094 -6.83438,7.58789c-4.49765,1.92718 -10.94452,1.43632 -12.28924,-4.35445c-0.27423,-1.18094 0.6041,-2.34826 0.90616,-3.52238c0,0 0.79056,-2.37171 3.16227,-1.58115c2.37171,0.79056 1.58115,3.16227 1.58115,3.16227c-2.06115,3.79541 4.76223,2.2265 6.26055,0.64168c1.79169,-1.89512 2.23235,-4.46575 3.52199,-6.53064c0.30366,-0.48621 1.16791,-0.51441 1.35792,-1.05524c0.26531,-0.75513 -1.62194,-0.48646 -2.3877,-0.25362c-1.47741,0.44923 -1.21464,1.03487 -1.55274,2.39782l0.12829,1.60944c0,0 0,2.5 -2.5,2.5z" fill="#696969" stroke-width="0.5"></path>
      <path d="M310.12082,168.33565c0.40542,0.5588 0.66334,1.38627 0.11527,2.48239c-1.11803,2.23607 -3.3541,1.11803 -3.3541,1.11803l-2.24976,-4.80386c1.84484,-1.78367 3.71847,-4.46343 6.89965,-3.91008c2.98377,0.51901 5.75406,3.66329 5.34389,6.82504c-0.19246,1.48356 -1.32403,2.7313 -2.33914,3.83018c-3.90853,4.23107 -7.20682,4.5939 -12.52563,5.48863c0,0 -2.46599,0.41099 -2.87698,-2.05499c-0.41099,-2.46599 2.05499,-2.87698 2.05499,-2.87698c2.1551,-0.35555 4.56838,-0.16555 6.41629,-1.33008c1.61321,-1.01662 3.54086,-2.01022 4.31891,-3.75108c0.21487,-0.48076 -0.53364,-1.10846 -1.05601,-1.17496c-0.27564,-0.03509 -0.52174,0.02835 -0.74738,0.15776z" fill="#696969" stroke-width="0.5"></path>
      <path d="M196.48197,195.46394c0.20493,-0.10247 0.40048,-0.17676 0.58663,-0.22718c-0.34773,-1.25497 -1.66384,-2.23676 -3.46858,-2.23676c-3.97701,0 -6.82733,4.76356 -3.78386,7.78195c1.98984,1.97344 2.28685,1.82214 4.57445,2.54636c0,0 2.3717,0.7906 1.5811,3.1623c-0.7906,2.3717 -3.1623,1.5811 -3.1623,1.5811c-3.20381,-1.10733 -3.77445,-0.98784 -6.6255,-3.85366c-0.85536,-0.85979 -1.52316,-1.9177 -2.0297,-3.01966c-3.59242,-7.81524 5.52721,-14.79461 12.63639,-12.27011c1.14883,0.40795 2.5151,0.54191 3.37715,1.40395c0.86206,0.86206 1.01692,2.22113 1.40399,3.37718c0.38493,1.14964 1.09356,2.32463 0.90616,3.52243c-0.20563,1.31433 -1.33187,2.30328 -1.9978,3.45492l-5.11617,-1.86872c0,0 -1.11803,-2.23607 1.11803,-3.3541z" fill="#696969" stroke-width="0.5"></path>
      <path d="M369.73087,60.65528c0.32351,-0.71149 1.11052,-2.6771 -0.46268,-2.87741c-0.69323,-0.08827 -1.28641,0.56866 -1.96817,0.72213l1.66778,0.63222c0,0 0.63436,0.63436 0.76307,1.52307zM368.03695,63.30435c-1.40843,0.55965 -2.60467,-0.63657 -2.60467,-0.63657l-3.13227,-4.16777c1.19523,-1.50887 2.04131,-3.37763 3.58569,-4.52662c4.28051,-3.18461 9.20949,0.71287 9.41431,5.3266c0.16813,3.78733 -3.16017,7.0627 -5.36663,9.58498c-0.84021,0.96047 -1.20888,2.45558 -2.35375,3.01924c-1.31272,0.64629 -2.91973,0.19721 -4.37959,0.29581c0,0 -2.5,0 -2.5,-2.5c0,-2.5 2.5,-2.5 2.5,-2.5c0.67344,0.0986 1.41597,0.60888 2.02031,0.29581c0.58357,-0.30231 0.44317,-1.26175 0.84632,-1.78081c0.63273,-0.81465 1.32662,-1.59734 1.97028,-2.41067z" fill="#696969" stroke-width="0.5"></path>
      <path d="M127.30002,145.70001c0,2.5 -2.5,2.5 -2.5,2.5h-3.20001c-1.74271,-0.34608 -4.07169,0.31063 -5.22813,-1.03824c-0.99385,-1.15922 -0.01105,-3.09828 0.42787,-4.56077c0.0001,-0.00033 0.0002,-0.00066 0.0003,-0.001l-0.80002,0c0,0 0,0 0,0c-1.38071,0 -2.5,-1.11929 -2.5,-2.5c0,-0.69035 0.27982,-1.31535 0.73222,-1.76776l2.39996,-2.39999l0.05343,0.05343l0.12937,-0.21903c0.54011,-0.15933 1.31767,-0.00313 1.62032,-0.478c0.20334,-0.31904 -0.53801,-0.53206 -0.80702,-0.79808c0,0 -0.79056,-2.37171 1.58115,-3.16227c2.37171,-0.79056 3.16227,1.58115 3.16227,1.58115c0.26432,1.33397 1.24787,2.72035 0.79296,4.0019c-0.22876,0.64444 -0.7425,1.0931 -1.33172,1.4899c0.04951,0.04498 0.09548,0.09811 0.13757,0.16021c0.86905,1.28238 0.33318,3.05671 -0.13887,4.63854l2.96834,0c0,0 2.5,0 2.5,2.5z" fill="#696969" stroke-width="0.5"></path>
      <path d="M136.35216,65.66175c-1.56174,1.95217 -3.51391,0.39043 -3.51391,0.39043l-0.09566,-0.07653c-0.30493,-0.4996 -0.61861,-0.99403 -0.92635,-1.49197c-0.41944,1.18766 -1.15655,2.33724 -2.1617,3.09053c-1.46175,1.09549 -3.18844,2.0823 -5.00986,2.22095c-0.31261,0.0238 -0.53632,-0.17023 -0.72356,-0.44797c-0.13669,0.73033 -0.51686,1.42171 -0.81139,2.10951c-0.93194,2.17626 -1.80768,4.4095 -2.25828,6.73364c0,0 -0.49032,2.45145 -2.94177,1.96113c-2.45145,-0.49032 -1.96113,-2.94177 -1.96113,-2.94177c0.71262,-3.47224 1.69748,-6.72992 3.27975,-9.90025c0.68803,-1.37858 0.9487,-3.35675 2.36034,-3.97411c1.12189,-0.49064 2.1487,1.34389 3.36672,1.46948c0.56377,0.05813 1.00609,-0.56221 1.39016,-0.979c0.93694,-1.01675 2.59383,-5.31194 3.34642,-5.32346c2.37687,-0.03639 4.11609,2.3793 6.17414,3.56895l0.09566,0.07653c0,0 1.95217,1.56174 0.39043,3.51391z" fill="#696969" stroke-width="0.5"></path>
      <path d="M244.80002,44.20001c-2.5,0 -2.5,-2.5 -2.5,-2.5l0.35627,0.48623c-0.18725,-0.93499 0.24712,-2.29998 -0.56174,-2.80498c-0.60242,-0.37611 -0.15198,1.57727 -0.71828,2.00582c-1.20995,0.91563 -2.84926,1.0589 -4.21237,1.72547c-1.07401,0.5252 -1.88469,1.78012 -3.07873,1.83992c-2.09487,0.10491 -4.29532,-0.37935 -6.13967,-1.37827c-0.55429,-0.3002 0.7137,-1.70957 0.1091,-1.88793c-0.59009,-0.17408 -0.34324,1.19198 -0.63845,1.73177c-0.9943,1.81811 -2.7219,3.18795 -4.4294,4.3621c0,0 -2.08013,1.38674 -3.46687,-0.69339c-1.38674,-2.08013 0.69339,-3.46687 0.69339,-3.46687c3.31006,-2.11103 4.42649,-6.60363 9.33218,-6.70618c1.12528,-0.02352 0.86327,2.16953 1.70907,2.91211c0.46929,0.41202 1.26517,0.41087 1.86033,0.22171c0.69691,-0.22151 1.07108,-1.02551 1.72132,-1.36009c1.20472,-0.61989 2.59672,-0.82853 3.78763,-1.47455c1.44931,-0.78618 2.49747,-3.25131 4.08164,-2.79417c2.14725,0.61962 2.82554,3.46335 4.23831,5.19502l0.35627,2.08627c0,0 0,2.5 -2.5,2.5z" fill="#696969" stroke-width="0.5"></path>
      <path d="M348.80945,50.47172c-2.37171,-0.79056 -1.58115,-3.16227 -1.58115,-3.16227l0.30503,-0.73087c-0.05697,0.01431 -0.11622,0.02035 -0.17793,0.0166c-2.01805,-0.1229 -4.22333,-0.32774 -5.88055,-1.48586c-0.53063,-0.37082 -0.42995,-1.11588 -0.33775,-1.85099c-0.75756,0.9533 -1.72145,1.73239 -2.56931,2.60945c0,0 -1.76777,1.76777 -3.53553,0c-1.76777,-1.76777 0,-3.53553 0,-3.53553c1.92503,-1.87519 4.83803,-6.04934 8.57075,-4.42376c1.16695,0.5082 0.4549,2.65065 1.32225,3.58218c1.31939,1.41702 4.20617,-1.53641 5.79279,-0.42674c1.39962,0.97889 1.45464,3.09073 2.18196,4.6361l-0.92828,3.19055c0,0 -0.79056,2.37171 -3.16227,1.58115z" fill="#696969" stroke-width="0.5"></path>
      <path d="M367.68198,129.53606c-2.23607,-1.11803 -1.11803,-3.3541 -1.11803,-3.3541l1.03606,-1.98195c0.78639,-1.04798 1.44066,-2.20959 2.35917,-3.14393c0.29848,-0.30363 1.20446,-0.04027 1.18937,-0.46578c-0.01424,-0.40158 -0.84405,0.25192 -1.20334,0.07198c-1.51901,-0.76075 -3.61335,-1.23249 -4.25488,-2.80556c-1.51061,-3.7041 2.01873,-5.76858 4.25489,-7.11899c0.51964,-0.31381 1.37372,-0.89123 2.32039,-1.31828c-1.56887,-0.87917 -4.67468,-3.30168 -5.76559,-4.11946c0,0 -2,-1.50001 -0.49999,-3.5c1.50001,-2 3.5,-0.49999 3.5,-0.49999c0.21425,0.16077 4.3292,3.32591 5.19835,3.75421c0.75643,0.37275 1.73916,0.27621 2.40003,0.80002c1.45912,1.1565 4.18243,2.28509 3.78813,4.10471c-0.2777,1.28151 -6.59956,4.14056 -8.43168,5.10333c-0.55739,0.29291 -1.0578,0.69753 -1.63742,0.94244c0.57342,0.0418 1.16622,0.03213 1.63743,0.33302c1.366,0.87227 3.26575,1.68537 3.59659,3.27199c0.34605,1.65957 -3.54868,6.38601 -4.45146,7.5903l-0.56392,1.218c0,0 -1.11803,2.23607 -3.3541,1.11803z" fill="#696969" stroke-width="0.5"></path>
      <path d="M335.17172,188.10942c0.79058,2.37171 -1.58113,3.16228 -1.58113,3.16228l-4.00195,0.79299c-0.42631,-0.77109 -0.53822,-1.83613 -1.27893,-2.31326c-0.33862,-0.21812 -0.12778,0.84297 -0.41206,1.14541l0.00236,0.00314l-0.02946,0.02209c-0.00474,0.00384 -0.00961,0.00749 -0.01459,0.01095l-3.1357,2.35181c-0.42124,0.32312 -0.9483,0.51516 -1.52021,0.51516c-1.38071,0 -2.5,-1.11929 -2.5,-2.5v-3.19998l0.04645,0c-0.02417,-0.34371 -0.0846,-0.65127 -0.36856,-0.7359c-0.43193,-0.12874 -0.39413,0.81068 -0.5912,1.21602c0,0 -2.08013,1.38674 -3.46687,-0.69339c-1.38674,-2.08013 0.69339,-3.46687 0.69339,-3.46687c1.40295,-0.66133 2.73934,-2.48013 4.20885,-1.98399c1.79983,0.60767 2.66631,2.62797 3.82086,4.21228c0.54037,-1.2302 1.52274,-2.00704 4.24736,-1.79963c1.04443,0.07951 1.28068,1.65786 1.92102,2.48679l0.7981,-0.80704c0,0 2.37171,-0.79058 3.16228,1.58113z" fill="#696969" stroke-width="0.5"></path>
      <path d="M273.50003,204.89999c0,-2.5 2.5,-2.5 2.5,-2.5l0.00944,0.12829c2.22487,-0.71681 3.88746,-1.2568 4.94479,-3.52666c1.07569,-2.30927 0.70273,-4.73552 3.16709,-6.48921c-0.38701,-0.30155 -1.80935,-1.58732 -0.60147,-3.39915c1.38674,-2.08013 3.46687,-0.69339 3.46687,-0.69339c2.73715,2.00576 6.42882,3.52744 3.58104,8.64788c-0.63742,1.14611 -2.69445,-0.75498 -3.92313,-0.29648c-0.59803,0.22317 -0.16808,1.26931 -0.33493,1.88543c-0.23389,0.86372 -0.44839,1.74918 -0.86391,2.54169c-1.84713,3.52294 -4.25573,4.8425 -7.85526,6.07331l-1.59054,0.12829c0,0 -2.5,0 -2.5,-2.5z" fill="#696969" stroke-width="0.5"></path>
      <path d="M233.76781,194.33226c1.76775,1.76778 -0.00003,3.53553 -0.00003,3.53553l-4.48584,2.06828c-1.04437,-0.57816 -2.30066,-0.89663 -3.2672,-1.57016c-2.572,2.36614 -6.70285,5.38746 -10.41775,3.92561c-1.14854,-0.45196 -1.00195,-2.27587 -1.7236,-3.27719c-0.5497,-0.76274 -1.36077,-1.29772 -2.04116,-1.94658c0,0 -1.76777,-1.76777 0,-3.53553c1.76777,-1.76777 3.53553,0 3.53553,0c0.91963,0.95116 2.07638,1.72006 2.75889,2.85347c0.26271,0.43628 -0.59016,1.31861 -0.12362,1.5228c0.502,0.21971 0.80749,-0.76453 1.29802,-1.0088c1.25975,-0.62734 2.5354,-1.32983 3.5186,-2.33608l1.4787,-2.21807c0.44513,-0.68926 1.22011,-1.14553 2.10164,-1.14553c1.12458,0 2.07574,0.74254 2.38992,1.76408l0.31607,0.94815c0.72793,0.64403 1.52889,1.18747 2.41206,1.55172l-1.28576,-1.13173c0,0 1.76778,-1.76775 3.53553,0.00003z" fill="#696969" stroke-width="0.5"></path>
      <path d="M131.36777,285.06779c-1.76777,1.76777 -3.53553,0 -3.53553,0l0.96778,-0.06775c-5.02597,-0.02187 -9.90957,-1.02088 -14.80047,-1.63232c-1.32273,-0.16536 -2.67458,-0.15047 -3.99909,0c-1.07155,0.12173 -2.10651,1.1432 -3.13224,0.81015c-1.74575,-0.56683 -3.55684,-1.65358 -4.43288,-3.26649c-0.58523,-1.07748 0.57214,-2.39205 0.69694,-3.61183c0.10857,-1.06111 -0.15779,-2.14504 0,-3.19995c0.2495,-1.66802 1.40381,-3.12496 1.60004,-4.80008c0.15513,-1.32427 -0.16605,-2.67703 0,-3.99998c0.09503,-0.75711 0.77521,-1.39181 0.77254,-2.15486c-0.00826,-2.36348 -0.79648,-4.68118 -0.80482,-7.04466c0,0 0,-2.5 2.5,-2.5c2.5,0 2.5,2.5 2.5,2.5c-0.01016,2.46605 0.8022,4.8893 0.79516,7.35536c-0.00264,0.92382 -0.71329,1.72833 -0.82744,2.64507c-0.52925,4.25034 -0.70503,9.42456 -2.50307,13.1882c-0.31723,0.66402 1.30326,-0.77687 2.03486,-0.85637c1.85604,-0.20168 3.74319,-0.18575 5.60089,0c0.8391,0.0839 1.56186,0.70721 2.40002,0.79999c3.73908,0.41387 7.82445,0.78691 11.59955,0.76777l2.56775,1.53222c0,0 1.76777,1.76777 0,3.53553z" fill="#696969" stroke-width="0.5"></path>
      <path d="M331.3937,251.32535c-2.42536,-0.60633 -1.81903,-3.03169 -1.81903,-3.03169l0.74408,-2.89914c0.01199,-2.91673 0.38633,-5.93415 0.79999,-8.79999c0.12381,-0.85774 0.77507,-1.6023 0.81794,-2.46787c0.0437,-0.88234 -1.51269,-1.13328 -1.93713,-1.15892c-1.33092,-0.08038 -2.67699,0.16539 -4.00004,-0.00001c-4.38551,-0.54823 -8.67965,-1.59067 -13.19949,-1.56775c0,0 -2.5,0 -2.5,-2.5c0,-2.5 2.5,-2.5 2.5,-2.5c4.80468,0.0209 9.33711,1.04937 14.00046,1.63232c4.21313,0.52668 8.77041,-0.54211 10.06283,5.24098c0.29147,1.30422 -0.63581,2.60379 -0.78204,3.93215c-0.32652,2.96609 -0.81303,5.81079 -0.79999,8.79999l-0.8559,3.50089c0,0 -0.60633,2.42536 -3.03169,1.81903z" fill="#696969" stroke-width="0.5"></path>
    </g>
  </g>
</svg>
