<?xml version="1.0" encoding="UTF-8"?>
<svg xmlns="http://www.w3.org/2000/svg" xmlns:xlink="http://www.w3.org/1999/xlink" version="1.1" width="321.19994" height="336.77921" viewBox="0,0,321.19994,336.77921">
  <g transform="translate(-79.40003,-11.61041)">
    <g stroke="none" stroke-miterlimit="10">
      <path d="M88.31565,328.61041c0,0 16,-20.5985 16,-32.10001c0,-24.14805 -6.06414,4.50221 -10.04872,-44.1924c-0.59522,-7.27412 3.74438,-65.15844 3.01263,-73.75344c-0.23731,-2.78745 -17.45194,-68.53772 -17.64152,-71.24481c-1.94572,-27.78276 8.67761,-71.70934 8.67761,-71.70934c0,0 -12.60264,-21.46011 8.4239,-20.44654c5.86827,0.28288 21.73281,18.2132 32.25081,17.57214c19.88693,-1.21209 85.77117,-14.42446 107.91596,-15.43106c14.92427,-0.67839 40.54072,1.62046 54.14997,0.91386c29.89262,-1.55204 65.36001,-6.60839 73.85938,-6.60839c6.34357,0 25.39999,15 25.39999,15c0,0 -4.30426,16.55744 -1.677,49.84293c2.20947,27.99243 11.3705,71.03601 11.83896,94.14703c0.97157,47.9307 -4.16196,152.01005 -4.16196,152.01005c0,0 6.8751,16.10871 -32.52064,19.49727c-5.19656,0.44698 -28.0068,-7.08378 -34.50223,-6.59417c-5.41818,0.40841 -27.16192,3.80264 -33.24331,4.17608c-4.59181,0.28197 -30.28214,8.51628 -35.06363,8.69531c-8.42783,0.31554 -43.80911,-15.34526 -52.03061,-14.98105c-9.93324,0.44004 -39.34412,6.82986 -47.9634,7.15102c-2.72426,0.1015 -17.35563,-9.79234 -19.88468,-9.68134c-10.6975,0.46953 -30.35234,15.73688 -36.1915,15.73688c-17.79261,0 -16.6,-18 -16.6,-18z" fill="#d6d6d6" stroke-width="0"></path>
      <path d="M114.91565,303.51039l-11,-15c0,0 12.57555,13.59144 33.19615,18.10359c30.25914,6.62123 74.38191,5.22504 93.09351,7.37227c14.12883,1.62134 55.71035,9.52414 55.71035,9.52414l65,-5c0,0 -60.0161,13.57931 -88.76511,11.92299c-10.7767,-0.62088 -41.27907,-11.44 -57.09454,-13.84571c-8.9022,-1.35412 -54.71337,6.39113 -63.18379,5.2433c-39.11052,-5.29991 -26.95656,-18.32058 -26.95656,-18.32058z" fill="#9e9e9e" stroke-width="0"></path>
      <path d="M121.87221,32.25289c8.47042,-1.14784 54.2816,6.59742 63.18379,5.2433c15.81547,-2.4057 46.31783,-13.22483 57.09454,-13.84571c28.74901,-1.65632 88.76511,11.923 88.76511,11.923l-65,-5c0,0 -41.58152,7.9028 -55.71035,9.52414c-18.71159,2.14723 -62.83437,0.75104 -93.0935,7.37226c-20.6206,4.51215 -33.19615,18.10359 -33.19615,18.10359l11,-15c0,0 -12.15397,-13.02067 26.95656,-18.32058z" fill="#9e9e9e" stroke-width="0"></path>
      <path d="M116.80947,263.32831c2.37171,-0.79055 3.16227,1.58116 3.16227,1.58116l0.19604,1.4228c0.24927,0.07457 3.56862,-2.3094 3.66448,-2.40002c2.67198,-2.52616 2.09763,-7.48771 2.50006,-10.63269c0.15274,-1.19368 0.5595,-2.4984 0.096,-3.60898c0,0 -0.79055,-2.37172 1.58116,-3.16227c2.37171,-0.79055 3.16227,1.58116 3.16227,1.58116c0.30943,1.06353 0.91053,2.0831 0.92827,3.19058c0.0156,0.97369 -0.71397,1.8338 -0.83227,2.80041c-0.75957,6.20634 -0.749,11.56019 -6.68093,15.2797c-1.12708,0.70671 -2.12713,1.91633 -3.45495,1.99773c-1.57912,0.09681 -2.99974,-1.00673 -4.49962,-1.5101l-1.40394,-3.37724c0,0 -0.79055,-2.37171 1.58116,-3.16226z" fill="#696969" stroke-width="0.5"></path>
      <path d="M131.20004,275.40002c-2.5,0 -2.5,-2.5 -2.5,-2.5l0.07464,-1.40632c0.51711,-2.01481 0.42504,-4.1408 0.75762,-6.19415c0.30328,-1.87239 1.96164,-3.29796 2.47495,-5.12398c0.25953,-0.92323 -0.21252,-1.92696 -0.07498,-2.87605c0.35695,-2.46325 1.70631,-5.22087 2.49603,-7.59003c0,0 0.79057,-2.37171 3.16228,-1.58114c2.37171,0.79057 1.58114,3.16228 1.58114,3.16228c-0.70251,2.10751 -1.99481,4.61339 -2.30402,6.80987c-0.16378,1.16345 0.25152,2.39533 -0.07498,3.52398c-0.46721,1.61505 -2.12889,2.8062 -2.32498,4.476c-0.2589,2.20465 -0.31518,4.4496 -0.84235,6.60589l0.07464,0.19366c0,0 0,2.5 -2.5,2.5z" fill="#696969" stroke-width="0.5"></path>
      <path d="M148.10002,241.70002c0,2.5 -2.5,2.5 -2.5,2.5h-2.39996c-0.52049,0 -6.4988,0.00957 -6.80047,-0.03228c-1.86773,-0.25905 -3.73459,-0.52456 -5.59998,-0.79999c-0.7063,-0.10429 -1.28563,-0.77294 -1.99958,-0.76771c-0.84326,0.00618 -1.55676,0.80416 -2.40003,0.79999c-0.74184,-0.00367 -1.33422,-0.93032 -2.06813,-0.82211c-0.70259,0.10359 -0.99885,1.04908 -1.63345,1.36788c-0.52433,0.2634 -1.31568,-0.09287 -1.73059,0.32203c-0.41491,0.41491 -0.03925,1.21646 -0.32203,1.73059c-0.30076,0.54682 -1.196,0.69577 -1.34575,1.30161c-0.20337,0.82277 4.29018,2.29929 4.69057,2.42829c0,0 2.37171,0.79055 1.58116,3.16227c-0.79055,2.37171 -3.16226,1.58116 -3.16226,1.58116c-3.21582,-1.0996 -7.84544,-2.93734 -8.10947,-7.17169c-0.08213,-1.31725 1.28606,-2.30716 1.85419,-3.49843c0.47707,-1.00033 0.4944,-2.28567 1.27806,-3.06934c0.78366,-0.78367 2.07758,-0.78343 3.06934,-1.27806c1.09127,-0.54426 1.96616,-1.61753 3.1666,-1.83208c0.93202,-0.16658 1.78501,0.78195 2.73179,0.77787c0.84327,-0.00364 1.55675,-0.80522 2.40001,-0.79999c0.97383,0.00605 1.83587,0.69848 2.80047,0.83227c3.8827,0.53853 7.62256,0.76771 11.59955,0.76771h2.39996c0,0 2.5,0 2.5,2.5z" fill="#696969" stroke-width="0.5"></path>
      <path d="M161.76781,271.13226c1.76776,1.76776 0,3.53553 0,3.53553l-4.15842,2.20396c-1.12571,-0.46799 -2.57117,-0.4893 -3.37713,-1.404c-0.72971,-0.82816 -1.17926,-1.47573 -1.43431,-2.02345c-2.08818,2.3211 -4.63961,3.78852 -7.92239,2.64844c-6.55961,-2.27811 -3.57262,-8.87914 -0.48166,-12.68856c-0.6235,0.13257 -1.39256,0.03267 -2.16162,-0.73639c-1.76776,-1.76776 0,-3.53553 0,-3.53553c3.3319,-3.22146 8.89582,-7.07901 9.86774,0.96778c0.38308,3.17169 -2.11345,4.43219 -3.76666,6.38496c-0.96062,1.13468 -1.2836,2.68248 -1.96161,4.00558c-0.17254,0.3367 -0.78515,0.42041 -0.80701,0.79811c-0.01464,0.2529 0.50667,0.00731 0.75974,0.0186c0.50654,0.02259 1.07292,0.32434 1.51886,0.08302c2.36912,-1.28207 4.37292,-6.08562 5.86473,-8.32006l0.70202,-2.10609c0.31417,-1.02157 1.26534,-1.76414 2.38994,-1.76414c1.38071,0 2.5,1.11929 2.5,2.5c0,0.18572 -0.02025,0.36672 -0.05867,0.5409l-0.74968,3.74848c0.10335,1.18196 0.12107,2.32579 -0.02392,3.31108c-0.13216,0.89809 -1.4934,2.19085 -0.69993,2.6318c0.41848,0.23255 0.94853,0.13074 1.4228,0.1961l-0.95835,-0.99611c0,0 1.76776,-1.76776 3.53553,0z" fill="#696969" stroke-width="0.5"></path>
      <path d="M177.43614,274.18206c1.118,2.23609 -1.11808,3.35408 -1.11808,3.35408l-2.11171,0.98927c-1.66979,0.18872 -3.49133,1.28682 -5.00937,0.56614c-1.31741,-0.62543 -1.47391,-2.53132 -1.99726,-3.89252c-1.90339,-4.95056 -0.87666,-9.07614 1.92022,-13.28573c1.20573,-1.81473 3.03305,-4.91093 5.12343,-5.72294c2.83674,-1.10192 7.13844,-0.06469 8.76085,2.73002c0.73462,1.26544 0.19721,2.91978 0.29582,4.37967c0,0 0,2.5 -2.5,2.5c-2.5,0 -2.5,-2.5 -2.5,-2.5c0.0986,-0.67345 0.46673,-1.36153 0.29582,-2.02035c-0.56705,-2.18588 -3.69383,0.97802 -3.86247,1.20531c-1.21551,1.63826 -3.18187,3.90614 -3.46563,6.01549c-0.23781,1.76774 0.57863,3.5236 0.73257,5.30061c0.0285,0.32896 -0.72484,0.9491 -0.39729,0.90742c0.57299,-0.07292 0.92711,-0.68923 1.39066,-1.03384l1.08836,-0.61072c0,0 2.23609,-1.118 3.35408,1.11809z" fill="#696969" stroke-width="0.5"></path>
      <path d="M192.06321,269.16184c-0.30605,0.25859 -1.24829,0.93953 -2.3449,0.59755c-0.01203,0.24539 -0.01825,0.49224 -0.01825,0.74066c0,1.20019 0.13746,2.4123 -0.03229,3.60043c-0.10098,0.70679 -0.48896,1.34228 -0.76776,1.99955c-0.05749,0.13552 -0.3854,0.37052 -0.23819,0.3719c2.00041,0.01882 6.19323,-4.17893 5.13405,-6.39226c-0.29497,-0.6164 -0.98367,-0.80309 -1.73265,-0.91784zM190.72646,264.6568l1.26416,-0.52845c2.03579,0.69612 5.1208,1.43324 6.2136,3.59202c3.06841,6.06149 -5.95219,17.12906 -12.46593,12.80781c-3.7178,-2.46641 -1.37583,-4.63964 -1.00596,-7.22864c0.30172,-2.11187 -0.30666,-4.28878 0,-6.39994c0.65715,-4.52411 3.45333,-8.86209 4.89599,-13.19011c0,0 0.79057,-2.37171 3.16228,-1.58114c2.37171,0.79057 1.58114,3.16228 1.58114,3.16228c-1.06331,3.18995 -2.62518,6.21677 -3.64529,9.36617z" fill="#696969" stroke-width="0.5"></path>
      <path d="M227.0361,270.98201c1.11803,2.23607 -1.11804,3.3541 -1.11804,3.3541l-1.59995,0.79998c-1.49114,0.61971 -2.86982,2.04901 -4.4734,1.85914c-1.48693,-0.17606 -2.65328,-0.87904 -3.48808,-1.84588c-1.66536,1.50155 -3.73092,2.01464 -6.15529,0.14874c-1.61808,2.25513 -3.65886,3.96425 -6.20128,4.10194c-1.10601,0.05989 -2.12705,-0.61885 -3.19058,-0.92827c0,0 -2.37172,-0.79056 -1.58117,-3.16227c0.79055,-2.37171 3.16227,-1.58116 3.16227,-1.58116c3.48187,1.45315 3.45685,-1.7053 5.04718,-4.48309c0.59041,-1.03125 1.22658,-2.05392 1.71963,-3.13435c0.11343,-0.3748 0.24989,-0.7086 0.41219,-1.02498c0.02015,-0.05861 0.03974,-0.11742 0.05876,-0.17646l0.00019,0.00005l-0.00019,-0.00007l0.78176,-2.34527c0.31418,-1.02156 1.26534,-1.76412 2.38994,-1.76412c1.38071,0 2.5,1.11929 2.5,2.5c0,0.29691 -0.05176,0.58173 -0.14674,0.84593l-0.78154,2.34461v0c-0.02838,0.083 -0.05729,0.16713 -0.08673,0.25232c0.70986,1.12785 -0.85752,2.68926 -1.11445,4.61858c-0.07175,0.53877 0.49848,-0.96603 0.74935,-1.4482c0.7746,-1.48873 1.70361,-2.91955 2.2343,-4.51162l0.28378,-0.20963l-0.11812,-0.07875l1.57853,-2.36776c0.44513,-0.68925 1.2201,-1.1455 2.10163,-1.1455c1.38071,0 2.5,1.11929 2.5,2.5c0,0.22871 -0.03071,0.45025 -0.08823,0.66071l-0.78639,3.14562l-0.09884,-0.02471c-0.01001,0.14333 -0.0233,0.2866 -0.04024,0.42978c-0.17618,1.48919 -4.06843,5.59873 0.59567,2.35251l1.6,-0.8c0,0 2.23607,-1.11803 3.3541,1.11804z" fill="#696969" stroke-width="0.5"></path>
      <path d="M237.57094,267.44588c-0.332,0.57299 -0.63327,1.16591 -0.92514,1.75252c-0.63532,1.27687 -2.20738,2.27675 -2.14575,3.70162c0.02512,0.58079 0.62244,1.03021 0.6717,1.60946c0.00134,0.01577 0.00101,0.03173 -0.00082,0.04785c0.01202,-0.01107 0.02486,-0.0208 0.03856,-0.02903c0.72301,-0.434 1.59189,-0.55893 2.39996,-0.79998c0.55062,-0.16426 1.23719,-0.04068 1.6731,-0.41505c0.64859,-0.55703 0.74515,-1.57648 1.34969,-2.18102c0.60455,-0.60454 1.624,-0.7011 2.18103,-1.34969c0.9231,-1.07483 0.72681,-2.74305 1.21504,-4.07309c0.82601,-2.25025 0.77249,-3.16218 -2.21688,-1.72317c-0.73827,0.35539 -1.34977,0.92924 -2.02465,1.39387l0.04932,0.63789c0,0 -0.75505,1.5101 -2.26515,1.42784zM235.03072,274.83637c-0.20451,0.26304 -0.53454,0.51689 -0.31266,0.62757c0.22152,0.11049 0.22523,-0.30678 0.31266,-0.62757zM237.77646,260.74956c4.47292,-2.60996 11.30947,-4.13199 11.9236,3.35048c0.11981,1.45972 -2.03172,7.56407 -2.91326,8.7175c-0.64907,0.84926 -1.8632,1.09443 -2.61902,1.85026c-0.75582,0.75582 -1.001,1.96996 -1.85025,2.61902c-1.27715,0.97609 -8.51274,3.31066 -9.83554,2.64926c-0.79503,-0.39751 -3.00477,-5.82298 -2.98193,-7.03607c0.07166,-3.80701 3.89942,-8.85154 6.33221,-11.36773c0,0 0.84165,-0.84165 1.9442,-0.78272z" fill="#696969" stroke-width="0.5"></path>
      <path d="M353.50004,244.10005c0,-1.38071 1.11929,-2.5 2.5,-2.5c1.38071,0 2.5,1.11929 2.5,2.5c0,1.38071 -1.11929,2.5 -2.5,2.5c-1.38071,0 -2.5,-1.11929 -2.5,-2.5z" fill="#696969" stroke-width="0.5"></path>
      <path d="M373.99746,304.6918c-2.19176,-1.20258 -0.98917,-3.39434 -0.98917,-3.39434l0.35079,-0.63933c3.16611,-5.77036 6.51986,-11.32232 8.79824,-17.50484c1.68868,-4.56252 3.82343,-9.19871 5.14529,-13.87909c1.01248,-3.58494 1.862,-7.26796 2.58451,-10.99673c-1.10381,2.71505 -1.81991,5.44481 -3.32706,8.0812c-2.49536,4.36505 -7.00608,11.42319 -12.14895,8.04021c-0.38565,0.00009 -0.75716,0.01527 -1.1179,0.04369c-0.36882,0.24587 -0.73763,0.49174 -1.10645,0.73762c0,0 -1.05256,0.7017 -2.15937,0.35806c-1.521,0.94826 -3.14411,1.75469 -4.83677,2.33352c0,0 -1.03706,0.34571 -1.96825,-0.10585c-0.28229,0.36714 -1.57662,1.83587 -3.40904,0.61428v0.00001c-2.08014,-1.38673 -0.69342,-3.46687 -0.69342,-3.46687l1.38029,-1.9935c1.7852,-8.60395 3.00687,-17.44766 4.39578,-26.25826c-2.35549,0.60575 -4.58532,0.8957 -6.98755,0.53953c-1.358,6.90302 -2.3311,13.82427 -3.06372,20.82186l-3.67354,6.69559l-4.02806,-3.3976c0,0 -1.42091,-2.05694 0.63603,-3.47785c0.90282,-0.62365 1.68311,-0.57733 2.2745,-0.32899l-0.09835,-0.53692c0.86471,-9.16186 2.41518,-18.19788 4.48445,-27.16732c0.6555,-2.84132 1.43197,-5.62014 2.08313,-8.40984c-0.7913,0 -1.51966,0 -1.92286,0c0,0 -2.2889,0 -2.48644,-2.19012c-1.63907,0.02988 -3.19126,0.12636 -4.71829,0.2728c-1.26848,7.1612 -2.96066,14.22287 -3.70991,21.48798c-0.86442,8.38181 -0.87679,16.72486 -2.69674,24.98117l-0.51015,3.87593c0,0 -0.32771,2.47843 -2.80614,2.15072h-0.00001c-2.47843,-0.32771 -2.15072,-2.80613 -2.15072,-2.80613l0.54295,-4.08859c1.8048,-8.14256 1.79533,-16.38465 2.65019,-24.6544c0.7086,-6.85484 2.24154,-13.53214 3.48145,-20.27824c-0.69255,0.10661 -1.39409,0.21941 -2.11012,0.33693c-0.01826,0.02956 -0.03674,0.05841 -0.05543,0.08655c-0.36201,1.63771 -2.03093,1.8061 -2.37032,1.82341c-0.63412,0.71104 -1.24207,1.46386 -2.10362,1.81169c-0.21364,0.08625 -0.43304,0.14626 -0.65669,0.18691v2.10343h-0.01804c0.00528,0.0386 0.0104,0.07724 0.01535,0.1159c0.2169,1.69145 -0.31374,3.39614 -0.47117,5.09416c-0.40738,4.39393 -0.78218,8.7908 -1.1341,13.18957c-0.65654,8.20628 -0.49421,16.37676 -2.46483,24.39923l-0.99111,2.11913c0,0 -1.118,2.23609 -3.35408,1.11809l-0.00003,-0.00001c-2.23609,-1.118 -1.11809,-3.35408 -1.11809,-3.35408l0.60887,-1.08094c1.23665,-4.98772 1.70109,-10.15077 1.99512,-15.33645c-0.2217,0.03536 -0.36791,0.03536 -0.36791,0.03536h-0.79999c-1.45989,-0.09861 -3.14036,0.48207 -4.37967,-0.29582c-0.24611,-0.15448 -0.47329,-0.30597 -0.68273,-0.45494c-1.15756,3.55827 -2.2144,7.17569 -3.48552,10.56532c-0.09339,0.24903 -3.57695,9.55312 -3.627,9.6252c-0.05453,0.07853 -0.11077,0.15557 -0.16857,0.23122l0.00002,0.00001l-0.00001,0.00001l0.02362,0.01574l-1.57846,2.36776c-0.44513,0.68926 -1.2201,1.14554 -2.10165,1.14554c-1.1246,0 -2.07578,-0.74257 -2.38995,-1.76414l-0.14672,-0.44014l-2.93068,0.51353c-1.065,-1.08265 -2.50215,-1.91912 -3.45518,-3.07585c-0.27488,-0.02763 -0.57468,-0.10627 -0.9001,-0.25214c-2.28129,-1.0226 -1.25869,-3.30389 -1.25869,-3.30389l0.07013,-0.15646c4.46991,-9.90001 5.33497,-21.61283 7.77522,-32.18328c0.01689,-0.07318 0.58526,-2.53619 1.15106,-4.98412c-0.03996,-0.00854 -0.08045,-0.01792 -0.12145,-0.02818l0.00003,-0.00001c-2.42536,-0.60633 -1.81903,-3.03168 -1.81903,-3.03168c0.31982,-1.27934 0.58741,-2.75099 0.91768,-4.25127c-0.67952,0.29642 -1.66982,0.41564 -2.66011,-0.57465c-0.6623,-0.6623 -0.82833,-1.32461 -0.77699,-1.89394c-0.38559,0.08816 -0.75805,0.15154 -1.0548,0.19393c-1.08731,0.15532 -2.20288,-0.10314 -3.29501,0.01355c-4.30921,0.46043 -4.15331,2.41443 -5.08011,6.12508c-1.36289,5.45664 -2.61606,11.03742 -3.96951,16.60725c2.09683,-0.56992 4.17474,-0.75687 6.26164,0.79962c2.22692,1.66093 2.83447,4.60333 3.33017,7.07769c1.00714,5.02731 1.05631,10.17521 -1.96055,14.68528c-2.9251,4.37289 -8.15697,6.45183 -12.64121,8.69591l-1.92779,0.96395c0,0 -2.23604,1.11809 -3.35413,-1.11795c-1.11809,-2.23604 1.11795,-3.35413 1.11795,-3.35413l1.92794,-0.96402c3.529,-1.7628 8.39051,-3.49066 10.70301,-6.9762c2.25946,-3.40559 1.98523,-7.17786 1.23952,-10.9147c-0.22663,-1.13563 -0.49343,-3.14717 -1.46987,-4.12226c-0.52968,-0.52895 -3.05586,0.25774 -4.62448,0.80002c-1.83466,7.04892 -3.94447,14.00731 -6.76021,20.59798c0,0 -0.98481,2.29785 -3.28267,1.31304c-2.29786,-0.98481 -1.31305,-3.28267 -1.31305,-3.28267c1.85033,-4.30289 3.38691,-8.8259 4.74472,-13.43075c-1.73897,4.36773 -3.93448,8.51173 -7.00587,12.10697c-1.3743,1.6087 -8.58217,5.88161 -9.28152,5.57177c-3.21778,-1.42563 -2.21905,-7.73084 -1.94456,-10.53675c1.21998,-12.471 3.2602,-24.78374 5.31911,-37.13742c0,0 0.41099,-2.46598 2.87698,-2.05499c0.33971,0.05661 0.62482,0.15223 0.86393,0.27502c1.2212,-1.95878 2.59604,-3.84698 4.1251,-5.70901c1.35312,-1.64778 2.14624,-4.16558 4.16356,-4.85591c6.23527,-2.13372 6.64153,3.22152 7.31514,6.83023c0.45011,2.41135 0.62101,4.80944 0.56812,7.19248c0.27834,-1.2006 0.58562,-2.39268 0.95291,-3.56578c0.34258,-1.09419 0.48581,-2.33249 1.21352,-3.21852c2.86361,-3.48666 6.58125,-2.80663 10.38631,-3.35021c0.83481,-0.11926 1.55702,-0.82161 2.40003,-0.79998c1.9017,0.04879 4.33348,-0.39912 5.62126,0.99805c0.31537,-0.41538 0.66482,-0.79794 1.05398,-1.13971c1.37407,-1.20673 3.03681,-2.06048 4.68057,-2.86192c2.56134,-1.24882 7.21531,-2.07168 9.37795,0.68631c1.39697,1.78152 0.62404,4.50564 0.55989,6.76865c-0.21406,7.55148 -4.53839,12.20905 -11.48689,14.04167l-1.34222,0.07124c-0.30691,0.95236 -0.60648,1.90541 -0.82818,2.86574c-2.17311,9.41328 -3.20656,19.53757 -6.36788,28.72316c0.67684,0.53259 0.83254,1.26449 0.83009,1.83268c0.94946,0.48312 1.87319,1.01795 2.76663,1.59217c0.24498,-0.04438 0.47036,-0.05297 0.6773,-0.0338l0.25792,-0.17659c0,0 0.06381,0 0.17102,0.0102c0.24476,-0.98221 0.72254,-2.00855 1.0438,-2.86963c1.00878,-2.70392 2.04233,-5.39861 3.04006,-8.10663c1.9298,-5.23784 3.27558,-11.11174 5.65679,-16.14057c2.88725,-6.09751 6.5791,-11.72453 8.71665,-18.18392v-0.00001l0.05425,-0.16276c-0.11417,-0.28804 -0.18257,-0.63315 -0.18257,-1.04667c0,-1.61896 1.04842,-2.18951 1.78737,-2.39058c0.41998,-0.31963 0.94416,-0.50938 1.51265,-0.50938c0.16978,0 0.33561,0.01693 0.49589,0.04918c0.47465,-0.71198 0.94931,-1.42396 1.42396,-2.13594l1.54447,-0.01588c0.60458,-0.87666 1.72471,-1.06335 1.72471,-1.06335c5.43824,-0.90402 10.08787,-1.63405 15.611,-1.63405h1.59998c0,0 1.60333,0 2.242,1.284l0.15801,-0.48397c0,0 0.19442,0 0.47483,0.05422c0.1478,-1.30193 0.23068,-2.61766 0.22512,-3.95423c0,0 0,-2.5 2.5,-2.5c2.5,0 2.5,2.5 2.5,2.5c-0.01,2.72574 -0.32702,5.39973 -0.80862,8.04865c-0.01729,0.24318 -0.05991,0.46008 -0.12218,0.65356c-0.80865,4.2126 -2.00502,8.36721 -3.01364,12.57169c2.32268,0.32175 4.46524,-0.39758 6.83011,-1.17238c1.43451,-8.46176 3.1644,-16.84042 5.84267,-24.89211c0,0 0.79059,-2.37171 3.16229,-1.58112c2.3717,0.79059 1.58112,3.16229 1.58112,3.16229c-2.56159,7.66743 -4.1915,15.6228 -5.54078,23.65767c0.47514,0.36089 0.86909,0.95935 0.86909,1.95176c0,1.46042 -0.85314,2.06771 -1.56266,2.32024c-1.33715,8.4801 -2.49103,17.00738 -4.22089,25.33876c1.09016,-0.36216 2.11507,-0.69302 3.13959,-0.96769v-0.00001l1.15717,-0.77144c0,0 0.5376,-0.3584 1.2484,-0.43749c-0.45547,-3.93671 0.927,-7.76591 1.68676,-11.57206c1.00993,-5.05931 2.17095,-9.72332 3.66198,-14.64243c2.02041,-6.66559 3.16757,-11.93006 8.22187,-17.03568c0,0 0.1565,-0.1565 0.42294,-0.3298l0.00001,0.00001c1.22553,-2.48266 4.61326,-9.6591 6.51308,-10.47794c0.40527,-0.17467 0.78951,-0.32736 1.15378,-0.45914c-0.26318,-1.62597 -0.62066,-3.22285 -1.09381,-4.77481c-0.66118,-2.16875 -2.05037,-4.0446 -3.06432,-6.07255c0,0 -1.11802,-2.23608 1.11806,-3.35409c2.23608,-1.11802 3.35409,1.11806 3.35409,1.11806c0.18133,0.36267 3.27628,6.53565 3.33558,6.72744c0.62682,2.02715 1.07532,4.12001 1.38385,6.25108c1.41634,1.05198 1.56279,3.46736 1.53599,6.14571c-0.03404,3.40205 -0.51287,6.78885 -1.24991,10.15496c-0.12096,1.70846 -0.26968,3.39752 -0.42692,5.05336c-1.09783,11.56104 -2.73357,23.70592 -5.90032,34.91861c-1.35769,4.80724 -3.53334,9.56905 -5.26794,14.25566c-2.38437,6.41636 -5.81547,12.18126 -9.10386,18.17447l-0.35079,0.63933c0,0 -1.20258,2.19176 -3.39434,0.98917zM325.17173,256.29062c-0.10994,0.20244 -0.20486,0.38292 -0.28444,0.54349c0.89735,0.13285 1.81194,0.17634 2.71272,0.16596l-0.96785,-0.06775c0,0 0.70239,-0.70244 1.66445,-0.779c0.10475,-2.1031 0.22358,-4.19923 0.39682,-6.27814c0.09321,-1.11855 0.12786,-2.46621 0.16445,-3.89992c-1.27724,2.42629 -2.58021,4.84325 -3.76947,7.33147c-0.09612,0.2011 -0.19083,0.40335 -0.28421,0.60669c0.82498,1.00484 0.36753,2.3772 0.36753,2.3772zM338.13438,231.89038l0.23339,-0.22259c-0.07934,0.07174 -0.15699,0.14616 -0.23339,0.22259zM320.555,233.29563c0.52364,-1.30397 0.34332,-2.78963 0.55178,-4.17926c0.16217,-1.08107 0.99424,-2.22818 0.55989,-3.23135c-0.27791,-0.64185 -3.14883,0.54413 -3.42198,0.68631c-1.48552,0.77322 -2.55236,1.63411 -3.34932,2.59383c0.93848,0.36008 1.60468,1.26969 1.60468,2.3349c0,0.22871 -0.03071,0.45026 -0.08824,0.66073l-0.78639,3.14557c0,0 -0.22014,0.88055 -0.9257,1.44787l-0.06123,0.16326c0.01799,0.48482 -0.00179,0.96608 -0.05093,1.44459c2.63321,-0.78171 4.7846,-2.12091 5.96744,-5.06645zM273.30869,244.54846c-1.05446,6.51201 -2.0485,13.0273 -2.86832,19.58444c-0.3241,2.59226 -0.58425,5.1922 -0.85027,7.79106c-0.09296,0.90817 -0.10321,1.82981 -0.29063,2.72328c-0.19289,0.91953 -1.78395,2.71289 -0.84471,2.6891c1.03311,-0.02616 0.84104,-1.92092 1.51305,-2.70603c0.59089,-0.69034 1.60715,-0.92561 2.19126,-1.62171c0.97739,-1.16477 1.60319,-2.58416 2.41617,-3.86908c4.38583,-6.93187 6.32393,-14.72028 8.53672,-22.57036c1.38385,-4.87462 1.75225,-8.60847 1.42608,-13.66875c-0.07464,-1.15808 -0.15048,-2.3161 -0.21672,-3.47469c-0.05428,-0.9495 -0.08909,-3.51107 -0.68485,-2.76975c-3.92293,4.88138 -7.70515,10.86269 -9.6459,16.77805l-0.01886,0.05658c0,0 -0.18998,0.5699 -0.66303,1.05785zM385.52515,233.16711c-1.93595,3.31359 -2.66891,6.89375 -3.92981,11.05157c-1.44731,4.77249 -2.56273,9.26063 -3.54374,14.171c-0.69284,3.46795 -1.82181,6.74434 -1.58383,10.30993c0.04521,0.67737 0.08017,2.0892 0.73228,1.90044c0.37799,-0.1094 0.46803,-0.63281 0.71051,-0.94272c2.09064,-2.67199 4.54487,-5.37016 5.74478,-8.62466c0.78816,-2.13772 1.38104,-4.36212 2.39997,-6.39998c2.08812,-8.53059 5.35831,-16.53896 7.0971,-25.24172c0.01161,-0.05814 0.2531,-1.51652 0.54261,-3.26185c0.06933,-1.91113 0.08084,-3.83245 0.00285,-5.74049c-1.40583,2.26682 -2.68814,5.07286 -3.81724,7.33554l-1.55937,3.90431c0,0 -0.8067,2.01677 -2.79609,1.53862z" fill="#696969" stroke-width="0.5"></path>
      <path d="M264.73525,307.28945c-2.38945,0.73522 -3.12467,-1.65423 -3.12467,-1.65423l-0.25913,-0.84218c-1.00161,-3.25519 -2.00007,-6.51136 -2.99576,-9.76837c-2.324,-18.1442 -1.9649,-36.08317 0.17724,-54.25101c1.14709,-9.72862 3.04043,-18.48931 10.09928,-25.64142c0,0 1.76775,-1.76778 3.53553,-0.00003c1.76778,1.76775 0.00003,3.53553 0.00003,3.53553c-6.28288,6.18544 -7.67199,14.1952 -8.66909,22.69012c-2.07042,17.63913 -2.39381,34.99604 -0.25434,52.61753c0.96515,3.11476 1.92701,6.23054 2.88599,9.3472l0.25913,0.84218c0,0 0.73522,2.38945 -1.65423,3.12467z" fill="#696969" stroke-width="0.5"></path>
      <path d="M99.66702,67.10962c-0.08184,2.02461 0.22979,4.35147 1.76526,2.42261c0.42817,-0.53787 0.81684,-1.11452 1.12195,-1.7306c0.67082,-1.35452 0.46326,-2.99236 0.54578,-4.50164c0.04189,-0.76624 0.72565,-2.74436 0.10002,-2.29999c-0.85199,0.60515 -1.18572,1.72151 -1.7542,2.59839l-0.67414,2.09222c0,0 -0.30507,0.91515 -1.10467,1.419zM96.8696,61.64921l0.08467,-0.24759c0.69266,-1.02312 1.14346,-2.26115 2.07799,-3.06936c3.11466,-2.69368 5.83625,-3.7855 8.77195,0.58813c1.42541,2.12359 0.34567,8.88147 -0.75839,11.07799c-1.84605,3.67274 -6.31221,7.86052 -10.48012,3.80027c-2.40286,-2.34079 -2.13633,-7.7432 -1.3374,-10.48919c0,0 0.43831,-1.31494 1.6413,-1.66025z" fill="#696969" stroke-width="0.5"></path>
      <path d="M120.00003,69.00002c-2.5,0 -2.5,-2.5 -2.5,-2.5v-2.39999c0,-1.83008 -0.42399,-4.42392 0.04854,-6.55052c-1.57015,0.84353 -2.12671,-0.15157 -4.08676,-0.22139c-0.14713,-0.00524 0.18074,0.23638 0.23823,0.37192c0.2788,0.65727 0.67693,1.29139 0.76771,1.99955c0.5042,3.9332 0.83959,7.56856 -0.04236,11.40677c0,0 -0.60633,2.42536 -3.03169,1.81903c-2.42536,-0.60633 -1.81903,-3.03169 -1.81903,-3.03169c0.82487,-2.94956 0.33421,-6.30901 -0.04236,-9.39321c-0.35481,-2.90593 -2.73637,-4.24201 1.00594,-7.22857c1.57614,-1.25784 4.05121,-0.37736 5.96338,-1.01768c1.55854,-0.5219 3.4812,-2.68489 4.67805,-1.5584c2.0703,1.9486 1.32035,10.27427 1.32035,13.4042v2.39999c0,0 0,2.5 -2.5,2.5z" fill="#696969" stroke-width="0.5"></path>
      <path d="M124.48199,68.73609c-2.23608,-1.11802 -1.11806,-3.35409 -1.11806,-3.35409l1.26831,-2.24977c1.11334,-1.10475 2.93782,-1.83562 3.28988,-3.36404c0.2998,-1.30156 -1.6198,-2.15182 -2.16788,-3.36983c-1.06053,-2.35682 -2.1179,-5.87939 0.78402,-7.92645c1.68239,-1.18679 7.726,-0.59413 9.08986,1.36631c0.89196,1.28213 0.38732,3.10221 0.47189,4.66179c0.22334,4.11836 0.78468,7.82821 0.79999,12c0,0 0,2.5 -2.5,2.5c-2.5,0 -2.5,-2.5 -2.5,-2.5c0.00492,-1.1813 -0.1,-2.35749 -0.24204,-3.5318c-1.06215,1.42547 -2.55786,2.76099 -3.4902,3.69957l-0.33167,0.95024c0,0 -1.11802,2.23608 -3.35409,1.11806zM131.04277,55.4222c0.0148,-0.3079 0.03423,-0.61542 0.05723,-0.92218c0.04489,-0.5987 0.58741,-1.14907 0.47189,-1.73824c-0.05126,-0.26146 -0.5075,0.23528 -0.77231,0.20596c-0.46653,-0.05166 -0.86928,-0.41076 -1.33778,-0.43962c-0.61486,-0.03787 0.47508,1.14057 0.78402,1.67352c0.23993,0.41391 0.51563,0.81702 0.79695,1.22055z" fill="#696969" stroke-width="0.5"></path>
      <path d="M143.89999,65.70003c0,-4.54816 0,-9.09632 0,-13.64448c-0.73592,0.0804 -1.49518,0.13726 -2.29999,0.14448c0,0 -2.5,0 -2.5,-2.5c0,-2.5 2.5,-2.5 2.5,-2.5c3.13842,0.03619 5.61186,-0.77143 8.79999,-0.80002l2.56778,1.53222c0,0 1.7678,1.76773 0.00007,3.53553c-1.76773,1.7678 -3.53553,0.00007 -3.53553,0.00007l0.96768,-0.06782c-0.51593,-0.00595 -1.01388,0.0109 -1.5,0.04335c0,5.28555 0,10.57109 0,15.85664l-2.5,-0.79999l-2.5,0.79999c0,-0.53333 0,-1.06665 0,-1.59998c0,-0.00004 0.00002,-2.5 2.5,-2.5c2.5,0 2.5,2.5 2.5,2.5l-2.5,0.79999l-2.5,-0.79999v0z" fill="#696969" stroke-width="0.5"></path>
      <path d="M159.29964,60.99473c-0.0024,0.90178 0.0281,1.80516 -0.0319,2.70484c-0.01773,0.26585 -0.44382,0.65229 -0.20595,0.77234c0.80863,0.40812 3.92249,-2.5012 4.22852,-2.9286c0.25344,-0.35395 0.34154,-1.51714 -0.51695,-1.37997c-0.7561,0.12082 -1.44467,0.50802 -2.167,0.76203zM159.16649,56.00082c0.02184,-0.0008 0.03356,-0.0008 0.03356,-0.0008l0.19366,0.07464c1.41101,-0.27932 2.83539,-1.1779 4.23303,-0.83795c11.11921,2.70455 0.14122,17.95089 -7.4885,13.29141c-1.25569,-0.76685 -1.46124,-2.59726 -1.80593,-4.02765c-0.04184,-0.17364 -0.03228,-6.39373 -0.03228,-6.80044c0,-3.65271 -0.197,-6.8865 0.92828,-10.39057c0,0 0.79056,-2.37171 3.16227,-1.58115c2.37171,0.79056 1.58115,3.16227 1.58115,3.16227c-0.78311,2.2358 -0.86342,4.67037 -0.80523,7.11024z" fill="#696969" stroke-width="0.5"></path>
      <path d="M89.76777,58.33226c1.76777,1.76777 0,3.53553 0,3.53553l-0.1424,-0.36145c-1.19717,4.77776 -3.08733,12.68872 2.16138,15.71352c0,0 2.08014,1.38673 0.69342,3.46687c-1.38673,2.08014 -3.46687,0.69342 -3.46687,0.69342c-1.00002,-0.72088 -2.24005,-1.19202 -3.00006,-2.16263c-0.85724,-1.09479 -1.64906,-5.12928 -2.01351,-6.41852c-1.3517,-4.7816 -0.38757,-7.84386 0.77493,-12.50532l1.45758,-1.96143c0,0 1.76777,-1.76777 3.53553,0z" fill="#696969" stroke-width="0.5"></path>
      <path d="M174.76262,46.5723c-2.06257,-0.27313 -2.06257,-2.47227 -2.06257,-2.47227l4.26779,-2.56776c0.9196,0.95115 2.03543,1.74572 2.75881,2.85346c1.90949,2.92407 1.49797,6.51737 1.94112,9.71385c0.13373,0.96461 0.84787,1.82674 0.83227,2.80044c-0.03774,2.35497 -1.77433,5.72861 -2.52831,7.99057c0,0 -0.79056,2.37171 -3.16227,1.58115c-2.37171,-0.79056 -1.58115,-3.16227 -1.58115,-3.16227c0.53566,-1.60701 2.31596,-4.74703 2.27174,-6.40945c-0.01899,-0.7137 -0.66349,-1.29324 -0.76771,-1.99954c-0.52632,-3.56688 -0.18559,-5.8494 -1.96971,-8.32817z" fill="#696969" stroke-width="0.5"></path>
      <path d="M123.28494,198.64324c-0.12643,0.91687 -0.655,1.67939 -1.38312,2.13406c0.43586,0.27703 0.87386,0.55511 1.35797,0.68543c3.05089,0.82129 6.32723,0.51019 9.39185,1.27863c1.27876,0.32065 2.38806,1.16656 3.66997,1.47438c13.31322,3.19692 27.27055,2.7693 40.6319,4.61169c9.57084,1.31972 18.89046,0.78974 28.41953,1.05288c3.98106,0.10994 8.5709,-2.45593 12.64269,-3.01668c1.46497,-0.20175 2.93396,-0.47004 4.4127,-0.45784c1.28651,0.01061 8.19209,1.59824 8.24368,-1.78601c0.0149,-0.9777 -0.14858,-1.94712 -0.29199,-2.91747l-0.28306,0.04937c0.41733,-3.02653 0.78277,-6.03509 1.1197,-9.03332c-0.44551,0.54192 -0.9562,0.82522 -0.9562,0.82522c-0.76093,0.42212 -1.52187,0.84424 -2.2828,1.26636l1.83205,4.3973l0.46718,0.24546c-0.10144,0.04827 -0.20317,0.09606 -0.30518,0.14336l0.25932,0.62242c0,0 -1.64456,2.40041 -4.05809,0.85104c-0.90374,0.28115 -1.82073,0.51604 -2.74649,0.69644c0,0 -2.94662,0.55059 -3.49721,-2.39603c-0.43326,-2.31867 1.29895,-3.15372 2.05692,-3.40433c-0.63951,-0.97886 -0.47445,-2.17593 -0.47445,-2.17593l0.91845,-1.76395c-1.10051,-1.56619 0.10227,-3.32178 0.10227,-3.32178l2.21173,-2.13219c-0.41076,-0.18567 -0.82404,-0.50447 -1.21088,-1.01504c-1.14083,-1.50571 -0.61382,-2.78148 -0.06802,-3.51913c-0.12127,-0.12113 -0.24091,-0.25823 -0.35813,-0.41294c-1.81023,-2.3893 0.57907,-4.19954 0.57907,-4.19954l1.51365,-1.07705c-0.83699,-1.98856 1.04196,-3.41213 1.04196,-3.41213l1.585,-1.12783c1.03761,-0.50247 2.07522,-1.00494 3.11283,-1.50741c0,0 1.37885,-0.66772 2.64243,-0.06272c0.10373,-0.91111 0.21025,-1.82305 0.32021,-2.73602c-1.45976,0.62277 -2.91951,1.24553 -4.37927,1.8683l-3.04829,1.47707c0,0 -1.77047,0.85735 -3.13749,-0.25123c-0.60214,0.61253 -1.18827,1.21511 -1.74739,1.80677l-1.55003,1.63976c0,0 -2.0592,2.1784 -4.2376,0.1192c-0.43816,-0.41418 -0.70488,-0.83319 -0.8514,-1.23832c-0.14578,0.41814 -0.3132,0.82078 -0.61114,1.1335c-5.60161,5.87953 -13.95279,10.012 -21.15542,13.50283c0,0 -1.77255,0.85837 -3.1399,-0.25316c-0.75117,0.22484 -1.42682,0.13167 -1.42682,0.13167l-0.95023,-0.13103c-2.97781,-0.42133 -5.10093,-0.81653 -7.02238,-1.75964c-2.72038,0.20793 -5.47831,0.02395 -8.18155,-0.33682c-7.14796,-1.05101 -12.58558,-5.63917 -18.40052,-9.62313c-2.53798,-1.73883 -5.96793,-3.13586 -8.26511,-5.15714c-1.01844,-0.89612 -1.44564,-2.34042 -2.45762,-3.24382c-1.62561,-1.45119 -3.75347,-2.26149 -5.38677,-3.70402c-1.84621,-1.63058 -3.12114,-3.84047 -4.96799,-5.47032c-0.18788,-0.16581 -0.40351,-0.29041 -0.63303,-0.39434l-2.85609,2.24774c0.0293,0.26985 0.02555,0.56839 -0.01998,0.89859c-0.15686,1.1376 -0.68944,1.7793 -1.28684,2.1381c0.22696,0.05504 0.45393,0.11008 0.68089,0.16512l1.43528,4.60076c0,0 0.31693,1.69615 -0.81699,2.75517l1.0046,1.71592c0,0 0.18828,0.55583 0.1523,1.25892c0.55866,0.11761 2.79457,0.75393 2.43575,3.35612c-0.40946,2.96952 -3.37899,2.56006 -3.37899,2.56006l-1.16801,-0.25141c-1.31068,0.14205 -2.62135,0.2841 -3.93203,0.42615c0,0 -2.98017,0.32299 -3.30316,-2.65718c-0.32299,-2.98017 2.65718,-3.30316 2.65718,-3.30316c0.32796,-0.03554 0.65592,-0.07109 0.98388,-0.10663c-0.98521,-0.37762 -2.12819,-0.45564 -3.12515,-0.1922c0,0 -0.57472,0.10739 -1.26395,-0.02651c-0.32476,3.62309 -0.66832,7.24531 -1.11079,10.86963c0.97693,-0.74015 1.95385,-1.4803 2.93078,-2.22045l4.12015,-0.31815c0,0 2.96952,0.40946 2.56006,3.37899c-0.13337,0.9672 -0.53832,1.57594 -1.0238,1.95712c0.75806,0.44485 1.54263,1.30306 1.31896,2.92515c-0.2545,1.84568 -1.49799,2.38601 -2.40275,2.53064l1.7476,2.22059c0,0 -0.40946,2.96952 -3.37899,2.56006c-0.59251,-0.0817 -1.05049,-0.26532 -1.40404,-0.50694c-0.32343,0.06043 -0.64687,0.12087 -0.9703,0.1813c0.30361,0.5473 0.43902,1.19394 0.34695,1.86167zM118.2867,200.63607c0.04677,-0.02455 0.09356,-0.04917 0.14038,-0.07367c-0.01837,-0.01492 -0.03655,-0.03006 -0.05454,-0.0454c-0.02864,0.03983 -0.05728,0.07951 -0.08584,0.11907zM119.33866,191.35511c0.14935,-0.02791 0.29869,-0.05581 0.44804,-0.08372c-0.0989,-0.20586 -0.18199,-0.43878 -0.24473,-0.70221c-0.04475,0.2406 -0.11951,0.51687 -0.24379,0.79451c0.02627,-0.00593 0.04048,-0.00859 0.04048,-0.00859zM121.09771,167.06443c-0.00679,0.07477 -0.01356,0.14954 -0.02033,0.2243c0.10591,-0.0125 0.21213,-0.02371 0.31861,-0.03364c-0.09939,-0.05628 -0.1996,-0.11957 -0.29829,-0.19067zM121.62126,161.62348c-0.01393,0.13462 -0.02777,0.26923 -0.04153,0.40384c0.16645,-0.0769 0.33438,-0.13499 0.49748,-0.17863c-0.15198,-0.07507 -0.30397,-0.15014 -0.45595,-0.22521zM127.51439,157.3697l-0.09305,0.14122c0.02175,0.00708 0.04399,0.01453 0.06665,0.02235c0.03557,-0.06935 0.04851,-0.12617 0.0264,-0.16357zM123.31578,149.26239l-0.0329,0.23862c0.00047,0.00774 -0.13765,1.01115 -0.33355,2.42935c1.1169,0.02026 2.28144,-0.12809 3.41976,-0.21165c-0.76962,-0.95968 -1.68122,-1.8149 -3.0533,-2.45632zM232.70884,178.39434c-0.23397,0.21038 -0.47267,0.41593 -0.71575,0.6164c0.20714,0.17583 0.40433,0.39814 0.58385,0.67696c0.04383,-0.4311 0.08778,-0.86221 0.13191,-1.29336zM232.24877,161.68937c0,0 1.23858,-0.52863 2.40972,-0.04709c0.19145,-1.45147 0.32514,-2.91438 0.47134,-4.3748l-2.02426,2.14144c-0.57192,0.9224 -1.22527,1.83664 -1.93435,2.74054c0.35918,-0.15337 0.71837,-0.30673 1.07755,-0.4601zM209.71824,170.23803c0.69116,-0.73801 0.66719,-1.96789 1.34331,-2.7197c2.81873,-3.13425 6.90833,-4.48368 10.10099,-6.90257c2.96635,-2.24743 5.72579,-5.18906 8.78119,-7.50398l0.00002,-0.00001v-0.00001l3.24385,-2.45764v0c0.61147,-0.46327 1.39968,-0.69328 2.21968,-0.58021c0.28866,0.0398 0.56202,0.11947 0.8153,0.23267c0.16239,-0.6219 1.49224,-1.0683 1.10414,-1.58053c-0.38826,-0.51244 -1.17837,0.62247 -1.82116,0.63517c-1.27874,0.02526 -2.534,-0.34941 -3.801,-0.52412c-7.73133,-1.06607 -15.47011,-2.08701 -23.18722,-3.25186c-12.27501,3.04925 -25.50888,-0.17821 -37.96738,-1.3133c-12.30367,-1.12099 -24.54896,1.39501 -36.83449,0.72637c-2.7297,-0.14856 -5.08383,-0.77804 -7.51207,-0.99271c1.0158,0.47846 2.12612,0.81871 2.96603,1.55435c2.04097,1.78759 2.86833,4.70688 4.91528,6.48762c0.76285,0.66364 1.96406,0.67147 2.71968,1.34332c2.66449,2.3691 4.34101,5.56743 7.39806,7.65409c0.91532,0.62478 2.12472,0.78819 2.95672,1.52027c1.01843,0.89612 1.44561,2.34041 2.4576,3.2438c2.1149,1.88795 5.4213,3.17968 7.79113,4.80331c4.92102,3.37151 9.83,7.89687 15.87447,8.65943c0.22492,0.03218 0.45032,0.06244 0.6761,0.09072c0.6226,-0.50828 1.4467,-0.76631 2.30569,-0.64786l3.52898,0.48661c1.40658,-0.16022 2.92562,-0.97733 4.20398,-0.38865c0.22232,0.10238 0.43818,0.21491 0.64845,0.3362l0.05955,-0.14822l3.61178,1.45101c0.58402,0.21995 1.07307,0.61372 1.41389,1.11102c0.26905,0.07107 0.68569,0.21321 1.09111,0.48021c6.29877,-3.04304 14.06601,-6.64711 18.89632,-11.8048zM237.2286,199.81865l-1.07806,1.91308c-0.00029,0.00212 -0.00057,0.00423 -0.00086,0.00635c0.14275,1.30936 0.69987,2.63982 0.42568,3.92795c-1.93462,9.08876 -11.33512,6.19164 -17.68542,7.12876c-4.42991,0.65373 -8.94834,3.07979 -13.37392,3.07905c-1.59873,-0.00027 -3.15284,-0.6225 -4.75124,-0.65514c-2.02184,-0.04129 -3.94137,1.0997 -5.96358,1.11432c-2.55789,0.01849 -5.0441,-1.07269 -7.60195,-1.04822c-3.81363,0.03647 -7.16233,0.01976 -11.06466,-0.51833c-2.69222,-0.37123 -5.35371,-1.17802 -8.07128,-1.15201c-1.01109,0.00968 -1.97106,0.58544 -2.9818,0.55718c-11.10778,-0.31058 -23.35418,-2.92711 -33.96832,-5.6358c-3.13496,-0.80003 -6.48626,-0.51067 -9.61308,-1.34194c-0.86226,-0.22923 -1.48519,-1.09743 -2.36296,-1.25728c-1.70469,-0.31045 -3.87859,1.00512 -5.19681,-0.11945c-5.25907,-4.48651 -0.89684,-5.21388 -0.36426,-8.70071c0.22712,-1.48695 -0.55037,-5.0787 -0.86058,-6.72019c0,0 -0.30959,-1.65667 0.77771,-2.71774l-0.15135,-2.95604c0.98313,-8.02291 1.512,-16.0364 2.3523,-24.06491c0.41946,-4.00764 -0.13481,-8.36265 1.64967,-11.9755l0.81893,-5.93904c0.04589,-0.33279 0.14476,-0.64525 0.28692,-0.93003c-0.00066,-0.00347 -0.00131,-0.00695 -0.00196,-0.01044c-0.55057,-2.94662 2.39605,-3.49719 2.39605,-3.49719c4.77048,-0.83708 8.39755,0.45022 13.19797,0.70659c3.84788,0.2055 7.70894,0.12167 11.5601,-0.00872c8.47943,-0.28709 16.86098,-1.47671 25.39642,-0.70975c12.24014,1.09985 25.15166,4.29797 37.20011,1.30501c8.1169,1.03593 16.2191,2.18184 24.32511,3.29957c1.90202,0.26227 8.67273,1.00761 9.58184,2.20752c1.212,1.59969 0.18086,4.01757 0.05611,6.02066c-0.24348,3.90932 -1.07007,7.76036 -1.6051,11.64054c-1.56036,11.31603 -2.39591,22.42185 -3.73963,33.70387c1.37484,1.39839 0.41191,3.34798 0.41191,3.34798z" fill="#696969" stroke-width="0.5"></path>
      <path d="M192.06155,170.36252c-0.40946,2.96952 -3.37899,2.56006 -3.37899,2.56006l-0.3599,-0.10839c-1.62742,0.09838 -3.25484,0.19675 -4.88226,0.29513c0,0 -0.99949,0.06042 -1.87806,-0.46625c-0.69719,0.75507 -1.69031,0.88234 -2.23966,0.88861c-1.01179,0.8657 -2.43613,0.6693 -2.43613,0.6693l-6.17191,-0.89011c-0.5484,-0.2634 -1.09681,-0.52679 -1.64521,-0.79019c-0.56285,0.03516 -1.12213,0.10395 -1.67561,0.21608c0,0 -2.94662,0.55057 -3.49719,-2.39605c-0.55057,-2.94662 2.39605,-3.49719 2.39605,-3.49719c0.21656,-0.038 0.43368,-0.07178 0.65128,-0.10161c1.39053,-1.25015 3.25835,-0.32759 3.25835,-0.32759c0.09621,0.04935 0.19242,0.0987 0.28863,0.14804c1.8995,0.04326 3.80805,0.27297 5.68261,0.52004l3.56342,0.49136c0,0 0.63157,0.08709 1.27202,0.4722c0.83517,-0.84633 2.06967,-0.92095 2.06967,-0.92095c1.62742,-0.09838 3.25484,-0.19675 4.88226,-0.29513l1.54057,0.15366c0,0 2.96952,0.40946 2.56006,3.37899z" fill="#696969" stroke-width="0.5"></path>
      <path d="M266.61328,105.21988l2.68833,-1.76564c3.80674,-1.30171 6.78409,-2.98633 10.38038,-4.7903c0,0 2.23606,-1.11803 3.3541,1.11804c0.27603,0.55207 0.34762,1.03599 0.29888,1.45176c1.24129,-1.23 2.46733,-2.47378 3.69729,-3.7015c0.84253,-0.84101 1.61899,-1.75431 2.52979,-2.52086c0.25551,-0.21505 0.51072,-0.43628 0.77044,-0.65238c-0.72397,-0.21791 -1.40693,-0.52374 -1.83792,-0.57772c-3.76049,-0.47104 -7.10325,-1.0088 -10.78661,-0.30267c0.2696,1.93085 -1.71735,2.59315 -1.71735,2.59315c-3.40324,1.13438 -6.24498,2.85274 -9.60001,3.99999l-1.59056,0.12829c0,0 -0.44462,0 -0.95885,-0.18751c0.3462,0.8558 0.65687,1.69657 0.93053,2.4969c0.35702,1.10804 0.84927,2.12292 1.3932,3.10429c0.24051,-0.25526 0.44838,-0.39383 0.44838,-0.39383zM271.49838,107.94582l-2.1116,1.43431c0,0 -0.34275,0.2285 -0.84274,0.36087c0.39144,0.7527 0.74569,1.53384 1.02771,2.36843c0.04567,0.13516 0.46962,0.88412 0.68123,1.65774c0.18576,-0.29775 0.39297,-0.58246 0.61369,-0.85212c0.51635,-0.63082 1.11084,-1.19115 1.70473,-1.75202l0.44186,-1.14313c2.78208,-1.83623 5.3248,-4.00869 7.7635,-6.30658c-3.09626,1.58562 -5.87264,3.13519 -9.27837,4.2325zM264.80002,95.20003l0.00941,0.1283c3.0217,-0.97357 5.701,-2.55855 8.70996,-3.6847c-0.02369,-0.13966 -0.03687,-0.27274 -0.04078,-0.39951l-2.25032,-2.33464c1.87781,-5.36128 0.10258,-11.35878 -3.64924,-15.53898c0.74796,2.41422 1.29613,4.76087 1.32094,7.52951l0.06778,-0.96778c0,0 1.76781,1.76774 0.00007,3.53553c-0.11431,0.11431 -0.22861,0.21383 -0.34244,0.3c0.7878,1.3002 2.2196,2.60236 1.82608,4.02251c-1.36052,4.90997 -7.83443,3.60972 -11.25144,3.60972c-0.03119,0 -0.15537,0.01989 -0.34268,0.04583c1.35737,1.49732 2.54928,3.40759 3.55684,5.40574c0.48951,-1.65155 2.38582,-1.65155 2.38582,-1.65155zM261.62832,71.29058c0,0 -0.37877,-1.13633 0.17459,-2.09807c-1.20569,-0.51014 -2.4807,-0.86229 -3.80336,-1.02476c-3.80229,-0.46706 -7.39906,-0.09108 -10.8476,0.85974c4.03632,0.7866 8.19044,2.61809 12.03861,3.90081l-0.5843,1.78965c1.57542,0.38133 3.29888,1.06526 4.73872,1.867c-0.44572,-1.74497 -1.097,-3.43534 -1.71667,-5.29436zM245.19955,73.76773c-1.97976,-0.28289 -3.99964,0.03228 -5.9995,0.03228c0,0 -0.99067,0 -1.72476,-0.62363c-0.51454,0.29036 -1.02672,0.58878 -1.53675,0.89416c-3.32428,3.34974 -6.83148,6.52774 -10.15088,9.8823c0.84752,-0.3194 1.71152,-0.58042 2.61192,-0.72053c1.05398,-0.16402 2.14293,0.14285 3.19999,0.00001c2.55022,-0.34461 5.16603,-2.06946 7.44376,-3.04199c2.34556,-1.0015 4.94538,-1.6551 7.36617,-2.46201l0.78606,2.20837c1.5154,-1.32156 3.09715,-2.47443 5.14964,-3.59894c0.19674,-0.10779 0.38705,-0.23271 0.57405,-0.36612c-2.56453,-0.94412 -5.18707,-1.84201 -7.7197,-2.2039zM240.95674,84.80972c-2.72276,1.1715 -5.54934,2.90824 -8.55624,3.35803c-1.05494,0.1578 -2.14189,-0.13468 -3.20003,0.00001c-2.86225,0.36431 -5.71993,2.42631 -8.59411,3.15762c0,0 -0.63618,0.15904 -1.33834,-0.0116c-1.24429,1.62801 -2.40545,3.33414 -3.45357,5.1465c-0.56897,0.98383 -0.73919,2.14247 -1.03172,3.25047c7.15284,-3.17919 15.01471,-4.85743 21.31727,-9.61071l1.982,-1.03608c0,0 0.96044,-0.48022 1.93715,-0.18175c0.0437,-0.09408 0.08869,-0.1876 0.13504,-0.28054c0.12714,-0.25488 2.16182,-3.28156 3.08069,-4.64581c-0.77712,0.25858 -1.54189,0.53708 -2.27815,0.85387zM211.78674,106.98014c0,0 -0.08353,0.05568 -0.22827,0.128c-0.51877,1.25923 -1.01079,2.53921 -1.46727,3.83289c1.48307,-0.4567 2.97306,-0.88313 4.50251,-1.26637c0,0 0.14628,-0.03657 0.37597,-0.05582c0.59044,-0.2178 1.18134,-0.43329 1.76295,-0.66355c3.8943,-1.54174 7.32313,-3.89372 11.11067,-5.56496c1.83005,-0.80751 3.86896,-1.02804 5.76612,-1.66202l1.24109,1.19625c0.64756,-1.32126 1.41894,-2.5809 2.10375,-3.92293c0.69332,-1.35871 1.08282,-2.85768 1.42661,-4.38174c-8.13039,5.6941 -18.35209,6.84449 -26.59413,12.36025zM202.42831,116.09056c-0.79055,-2.37171 1.58116,-3.16226 1.58116,-3.16226l0.59408,-0.19802c0.33963,-1.00495 0.68545,-2.00444 1.01776,-2.99943c0.32297,-0.96702 1.34194,-5.84269 1.66901,-6.58752c0.63793,-1.45276 1.72503,-2.67071 2.43844,-4.08794c0.77746,-1.54448 0.80499,-3.4109 1.65681,-4.91564c0.16119,-0.28475 4.68437,-6.29975 5.01443,-6.73973c1.42572,-1.90048 2.48743,-4.09943 4.15725,-5.78946c3.96157,-4.00951 8.28638,-7.49144 12.30422,-11.48104c8.02713,-4.8242 16.32998,-8.11499 25.93898,-6.8972c11.8214,1.49818 19.91219,13.80744 17.73414,25.06115c0.05865,0.09239 0.11197,0.1926 0.15865,0.30127c5.26317,-0.98321 10.39364,-0.14498 15.61227,1.02402c1.63518,0.36629 4.00948,-0.38552 4.92266,1.01951c2.66796,4.10493 -2.52606,6.52626 -4.39011,8.15038c-5.06477,4.41284 -9.33059,9.50234 -14.59306,13.60581c-0.22005,0.41617 -0.47715,0.67328 -0.47715,0.67328l-0.80003,0.80006c-2.33483,2.31682 -4.81807,7.83051 -9.28582,6.06829c-1.35183,-0.5332 -1.44974,-2.52379 -2.05366,-3.84553c-0.65494,-1.4334 -0.76757,-3.08346 -1.4741,-4.49215c-1.34955,-2.69073 -3.12504,-4.58091 -4.12592,-7.50782c-0.93137,-2.89079 -2.72716,-7.23729 -4.94631,-9.37444c-0.70893,-0.68274 -1.91846,-0.81986 -2.44976,-1.64838c-1.0296,-1.60558 -2.89631,-3.64491 -2.03639,-5.34741c1.04358,-2.06612 9.66819,-1.36072 11.80416,-1.32035c0.82581,0.01561 1.6565,0.00069 2.47555,0.10727c0.02202,0.00286 0.04743,0.00842 0.07525,0.01609c-1.98291,-1.14041 -1.71827,-3.2114 -2.93753,-4.90587c-0.51232,-0.712 -2.89317,-1.30716 -3.51219,-1.51717c-0.69489,-0.23575 -1.34914,-0.84877 -2.07437,-0.73699c-0.67178,0.10353 -0.99049,0.94683 -1.57188,1.29896c-3.02579,1.83259 -4.77985,3.30068 -7.32146,5.82269c-2.65011,4.01522 -3.78631,7.30898 -5.13302,11.91401c-0.95281,3.25808 -3.4696,5.8751 -3.93259,9.30147c-0.14283,1.05706 0.17085,2.14711 0,3.20001c-0.29149,1.79641 -1.43022,3.33421 -2.32355,4.93825c0.10871,1.14394 -0.77642,2.02907 -0.77642,2.02907l-0.29054,0.22952c-1.78149,4.40153 -2.43096,9.55919 -3.90551,13.99326c0,0 -0.55595,1.66788 -2.1341,1.74007l-0.22822,0.64109c-1.65386,-0.57932 -3.47672,-0.44476 -5.20983,-0.704c-2.71131,-0.40555 -5.14127,-2.09448 -7.90502,-2.38645c-3.29736,-0.34834 -6.776,-0.80273 -10.09456,-0.78126c0,0 -1.17624,0 -1.91509,-0.80682c-0.1509,-0.02624 -0.30929,-0.06611 -0.47544,-0.12149c-2.37171,-0.79056 -1.58115,-3.16227 -1.58115,-3.16227c0.57929,-1.65389 0.45248,-3.4756 0.70398,-5.20986c0.1961,-1.35228 0.49517,-2.69086 0.85423,-4.01782c-0.3051,-0.25923 -0.57441,-0.63973 -0.75823,-1.19121zM233.01119,107.04575c-1.1099,0.25322 -2.22053,0.5008 -3.25446,0.96398c-3.8381,1.71941 -7.32704,4.06766 -11.28935,5.63499c-1.70825,0.67571 -3.56746,1.09372 -5.08058,2.13543c0,0 -1.33578,0.89053 -2.58012,0.1739c-0.82554,0.26065 -1.65076,0.53048 -2.4824,0.80666c-0.44783,1.7798 -0.80721,3.5655 -1.05654,5.33977c-0.04572,0.32534 -0.08395,0.65253 -0.11856,0.98062c8.16385,-2.73551 16.18103,-5.6492 24.33447,-8.37719c0.86532,-1.51507 1.86271,-3.02747 2.04865,-4.60434c0.11042,-0.93641 -0.09767,-1.89346 -0.03846,-2.83163c-0.18057,-0.05846 -0.34069,-0.13407 -0.48266,-0.22219zM216.3055,126.41875c2.83809,0.32927 5.3417,2.04151 8.09498,2.41354c0.82166,0.11103 1.65453,0.17787 2.48396,0.26085c0.85944,-2.76408 1.56807,-5.57122 2.36354,-8.35355c-5.18938,1.77536 -10.34253,3.60381 -15.53109,5.38951c0.87139,0.09241 1.73606,0.19074 2.58862,0.28965z" fill="#696969" stroke-width="0.5"></path>
      <path d="M354.40947,170.47173c-2.85248,-0.99913 -5.71251,-0.83696 -8.70844,-1.57141c-1.90407,-0.66377 -4.00293,-0.49113 -6.00646,-0.71902c-3.25449,-0.37018 -6.35544,-2.00418 -9.60003,-2.40002c-4.16592,-0.50825 -6.91283,-0.9852 -10.95439,-2.5338c-2.41346,-0.92477 -5.89932,0.28782 -7.56824,-1.68567c-1.82232,-2.15488 1.29755,-6.06113 2.348,-7.64855c4.00216,-6.04799 9.33195,-11.24446 12.21339,-17.90542c-1.41647,-0.03107 -2.81632,-0.00855 -4.13283,0.15991c-0.83644,0.10703 -1.56469,0.68413 -2.39996,0.79998c-5.27236,0.73129 -10.80399,-0.50552 -16.09501,0.01355c-2.18849,0.2147 -4.21796,1.3276 -6.40001,1.6c-4.63047,0.57806 -9.6392,0.10327 -14.35643,0.02831c-2.59395,5.53802 -2.56383,10.99172 -3.47341,17.03867c-0.84129,5.59294 -2.06242,11.1499 -3.17463,16.69465c2.73498,-0.3909 4.92424,0.1585 8.14536,0.46925c1.75152,0.16897 3.55982,-0.28424 5.2781,0.0951c0.93888,0.20728 1.46311,1.38403 2.40003,1.60001c3.32254,0.76591 7.44902,-0.55032 10.87595,-0.07498c7.47497,1.03683 16.34947,1.65949 23.99912,0.80002c0.93714,-0.1053 1.76146,-0.82577 2.70448,-0.83046c1.16289,-0.00577 2.23282,0.80014 3.39573,0.80016c1.62207,0.00003 3.2,-0.53334 4.79999,-0.80002c3.69919,0.88714 6.9039,0.36478 10.60571,0.81676c1.09139,0.13325 2.10901,0.66362 3.20001,0.79999c1.05842,0.1323 2.17488,-0.29491 3.19995,0c0.60415,0.17381 1.0535,1.86183 1.35602,1.31074c0.36023,-0.6562 -0.8261,-1.29326 -0.96146,-2.02949c-0.19288,-1.04907 -0.00507,-2.13333 0,-3.19998c0.00255,-0.53697 0.02543,-1.05821 0.06615,-1.56726zM331.12122,137.02849c-2.19446,5.413 -5.50123,9.52217 -9.06905,14.10786c-1.39705,1.79561 -2.70258,3.66241 -3.97201,5.55041c-0.23269,0.34608 -0.42191,0.73286 -0.63275,1.09971c2.43367,-0.3793 5.2213,1.61854 7.3218,2.33482c1.88574,0.64305 3.95995,0.44501 5.93626,0.69745c3.24266,0.4142 6.35771,2.04879 9.60003,2.40002c2.27017,0.24592 4.61956,0.18217 6.79346,0.88096c3.07382,0.78751 5.86217,0.65571 8.89166,1.6286l0.00941,-0.1283c0,0 0.0392,0 0.10777,0.00491c0.35378,-1.23753 0.77311,-2.47397 1.21159,-3.77501c-0.24568,-0.25555 -0.44732,-0.5959 -0.54864,-1.04919c-1.93748,-1.63566 -3.54489,-3.47745 -5.5557,-5.14733c-2.62928,-2.18348 -5.75552,-4.14212 -8.1828,-6.56562c-0.94354,-0.94207 -1.46174,-2.25268 -2.40003,-3.19998c-1.61428,-1.62981 -3.97184,-2.38403 -5.59998,-4c-1.45797,-1.44708 -2.80697,-3.13438 -3.87403,-4.946c-0.02173,0.06852 -0.037,0.1067 -0.037,0.1067zM361.19164,165.55395c-0.49748,1.26478 -0.95711,2.55214 -1.12391,3.74651c-0.27662,1.98066 0.24081,4.01057 0.03228,5.99955c-0.21019,2.00482 0.5029,4.58519 -0.96147,5.97051c-1.22339,1.15735 -3.36094,-0.23018 -5.044,-0.28923c-2.1486,-0.07538 -4.26749,-0.52663 -6.39996,-0.79999c-3.50356,-0.44912 -6.6888,0.13373 -10.19433,-0.78328c-1.59999,0.26667 -3.17792,0.79999 -4.79999,0.80002c-1.03632,0.00002 -1.968,-0.79371 -3.0043,-0.79987c-0.74408,-0.00442 -1.3558,0.68829 -2.09545,0.76958c-8.1565,0.89643 -17.62678,0.37742 -25.60098,-0.80002c-3.75536,-0.5545 -7.77606,0.73247 -11.52395,-0.07498c-0.93992,-0.2025 -1.46177,-1.38995 -2.40003,-1.60001c-1.40616,-0.31482 -2.88604,0.21672 -4.32187,0.0951c-3.5937,-0.30439 -5.16022,-1.30801 -8.56315,-0.11612c0,0 -2.37171,0.79055 -3.16226,-1.58116c-0.16495,-0.49487 -0.19223,-0.9209 -0.1321,-1.28527c-0.79617,-0.7394 -0.79617,-1.90527 -0.79617,-1.90527l0.04855,-1.29027c1.10652,-5.53271 2.3336,-11.07726 3.17584,-16.65799c1.03166,-6.8359 1.10998,-12.8842 4.23955,-19.16975c0,0 0.27817,-0.55635 0.83452,-0.97527c0.66324,-1.20669 2.20155,-1.2067 2.20155,-1.2067c4.83985,0 10.09492,0.61964 14.89455,0.01873c2.18196,-0.27319 4.2123,-1.37767 6.40004,-1.6c5.2039,-0.52885 10.74187,0.77588 15.90499,0.01355c3.786,-0.559 7.44812,-0.77156 11.28538,-0.82055c0.25651,-0.27419 0.61855,-0.51479 1.1245,-0.68345c1.32556,-0.44185 2.15721,0.10412 2.63297,0.67173h0.55755c0,0 2.5,0 2.5,2.5c0,0.88237 -0.31143,1.45332 -0.71445,1.82274c2.15772,2.66873 5.44539,4.2944 7.98222,6.80948c0.94686,0.93875 1.45798,2.25641 2.40002,3.19998c2.30517,2.30891 5.32162,4.14816 7.8172,6.23443c2.49476,2.08559 4.26675,4.44805 7.0018,6.25323l-1.83112,3.83531l1.67965,0.8242l1.13644,-0.18882c-0.06947,0.20841 -0.14475,0.42077 -0.22431,0.63639l0.3526,0.17302c0,0 0,1.62358 -1.30839,2.25394z" fill="#696969" stroke-width="0.5"></path>
      <path d="M353.5069,170.34844c0.04095,-0.45894 0.34439,-2.39637 2.54819,-2.34782c2.49939,0.05506 2.44433,2.55445 2.44433,2.55445l-0.14656,1.59212l-1.56294,4.68872c-0.31418,1.02155 -1.26534,1.76411 -2.38993,1.76411c-1.38071,0 -2.5,-1.11929 -2.5,-2.5c0,-0.18574 0.02026,-0.36675 0.05868,-0.54094l0.05531,-0.27654c-0.05672,-0.01002 -0.11361,-0.03351 -0.17069,-0.07284c-1.44152,-0.99304 -1.91955,-2.92777 -2.87933,-4.39165c0,0 -1.11803,-2.23607 1.11805,-3.3541c2.23607,-1.11803 3.3541,1.11805 3.3541,1.11805c0.08652,0.54192 -0.15729,1.33001 0.07078,1.76644z" fill="#696969" stroke-width="0.5"></path>
    </g>
  </g>
</svg>
