<?xml version="1.0" encoding="UTF-8"?>
<svg xmlns="http://www.w3.org/2000/svg" xmlns:xlink="http://www.w3.org/1999/xlink" version="1.1" width="192.48287" height="186.36268" viewBox="0,0,192.48287,186.36268">
  <g transform="translate(-143.90693,-69.13961)">
    <g fill="#d6d6d6" stroke="none" stroke-width="0.5" stroke-miterlimit="10">
      <path d="M167.12116,202.90787c10.6679,-16.24871 14.68514,-34.82931 21.1522,-52.9222c3.95528,-4.05134 8.77922,-8.00014 11.94898,-12.74472c2.28049,-3.4135 3.23333,-7.75464 4.61104,-11.54332c0.14211,-0.3908 2.06386,-4.93774 2.34035,-6.20024c1.67944,-7.66874 3.02606,-14.27416 6.58052,-21.29578c1.82812,-3.61134 1.92778,-7.99359 4.15869,-11.47783c1.80112,-2.81299 4.70941,-4.05255 7.44243,-5.69507c2.26989,-0.76943 4.4361,-1.8381 6.7323,-2.52507c4.16341,-1.24559 8.66771,-1.2774 12.83872,-2.41117c9.33799,-2.53825 18.61736,-10.13279 28.90558,-5.46956c6.67177,3.02404 8.63692,10.35302 11.60416,16.35906c1.28201,2.59493 1.35285,3.58112 3.87825,5.39141c1.33654,0.95807 3.17107,0.87365 4.76623,1.27326c6.64362,0.95317 13.19477,2.34347 19.82487,3.17208c5.62544,0.70305 12.75154,1.45052 17.34904,5.40708c2.85112,2.45365 3.32446,6.80627 3.99697,10.18391c0.77943,3.91467 1.6705,9.26439 0.74127,13.21474c-0.69796,2.96716 -4.31802,5.87065 -5.77825,8.4358c-1.11843,1.96472 -2.03027,4.06532 -3.37361,5.88368c-3.99275,5.98921 -7.15679,12.36453 -11.16624,18.35103c-3.82072,5.70471 -8.70104,10.32058 -11.85152,16.54864c-2.41975,4.78351 -2.36473,10.06054 -2.94185,15.16187c-0.45819,4.0501 -2.22059,7.72118 -3.27369,11.56817c-1.16108,4.24143 -1.51927,8.74489 -1.51386,13.10358c-1.10249,7.7767 -1.44338,19.31462 -8.03922,24.89696c-3.08389,2.61003 -7.46954,3.7119 -11.04308,5.21214c-1.68967,0.70935 -2.96575,2.16625 -4.55655,3.07594c-3.41537,1.95304 -7.05102,3.33247 -10.63071,4.91838c-4.76328,2.11027 -9.81625,4.02512 -14.92249,1.56517c-3.20576,-1.54439 -5.83251,-4.0684 -8.27786,-6.55871c-11.78678,-4.53252 -25.05626,-5.50062 -37.64657,-4.39338c-2.84951,0.2506 -5.71466,0.36852 -8.547,0.76898c-3.4608,0.48932 -7.0026,2.05223 -10.52478,2.41859c-2.60321,0.27077 -5.21398,-0.47447 -7.81092,-0.79999c-3.94875,-0.49496 -7.73306,-0.71546 -11.66369,-1.70258c-1.53568,-0.63053 -3.20164,-1.008 -4.60703,-1.8916c-3.65244,-2.29637 -2.44208,-3.59112 -5.73246,-6.45828c-0.96816,-0.84363 -2.51035,-0.88294 -3.40271,-1.80638c-1.7179,-1.77773 -4.7382,-7.49838 -4.78099,-10.42686c-0.02563,-1.75418 0.63922,-3.4549 0.80091,-5.2018c0.13884,-1.50003 -0.32332,-3.07213 0.09875,-4.51824c0.38287,-1.3118 1.2918,-2.44498 2.22494,-3.4433c4.41081,-4.71893 10.58885,-4.34121 16.17723,-6.20396l0.62274,-0.99604c0,0 1.60707,-1.6071 3.28894,-0.22437z"></path>
    </g>
  </g>
</svg>
