<?xml version="1.0" encoding="UTF-8"?>
<svg xmlns="http://www.w3.org/2000/svg" xmlns:xlink="http://www.w3.org/1999/xlink" version="1.1" width="100.63285" height="136.93086" viewBox="0,0,100.63285,136.93086">
  <defs>
    <linearGradient x1="239.58163" y1="138.50634" x2="239.58163" y2="223.31425" gradientUnits="userSpaceOnUse" id="color-1">
      <stop offset="0" stop-color="#e0e0e0"></stop>
      <stop offset="1" stop-color="#c7c7c7"></stop>
    </linearGradient>
  </defs>
  <g transform="translate(-190.21625,-95.48266)">
    <g stroke="none" stroke-miterlimit="10">
      <path d="M288.13607,179.95621c-0.26941,0.35987 -0.2694,0.81007 -0.2694,0.81007l0.01701,0.32816c-0.16783,1.00758 -0.3481,2.01645 -0.54437,3.01888c-0.00406,3.01071 -0.97313,5.74616 -1.82238,8.57624c-2.14295,7.14129 -5.93377,14.78741 -11.26568,20.14202c-2.67526,4.45883 -7.45722,5.51487 -11.65423,7.96427c-3.99619,2.3322 -8.02981,4.85069 -12.38421,6.59249c0,0 -0.56954,0.22765 -0.75155,0.76215c-0.33181,-0.0868 -0.63088,-0.02699 -0.63088,-0.02699l-1.4459,0.29446c-2.20043,0.88019 -4.59856,1.2138 -6.9397,1.55188c-4.79547,0.01015 -8.98227,-2.76766 -13.55606,-3.71603c-3.35112,-0.69485 -7.79942,-1.59368 -10.29662,-4.19445c0,0 -0.52059,-0.52017 -1.16134,-0.36432l-0.04034,-0.01913c-4.00873,-3.00648 -8.05647,-6.21259 -11.59776,-9.74699c-3.17693,-3.17075 -4.83328,-7.92259 -7.54876,-11.48793c-3.56276,-9.13091 -3.53446,-18.2655 -3.58252,-27.82658c0.73961,-3.60577 1.24233,-7.15206 2.59183,-10.61648c1.45432,-3.73352 5.43357,-7.70239 7.8412,-10.9126c0,0 0.45751,-0.60994 0.18275,-1.23392c3.53827,-3.56216 7.73862,-7.93767 12.18586,-10.14107c1.06402,-0.52717 2.20722,-0.91635 3.36519,-1.26532c0.18519,0.18668 0.46432,0.32676 0.88322,0.32676c0.84003,0 1.11697,-0.56519 1.20733,-0.93549c1.61016,-0.47154 3.19288,-0.98807 4.58302,-1.81783c4.42604,-0.81118 9.16141,-3.68764 13.69701,-3.65174c1.82366,0.01443 3.73878,0.26685 5.60575,0.26685l1.33462,-0.29574c0.01394,0.00341 0.02159,0.00494 0.02159,0.00494c1.07985,0.20317 2.20308,-0.05446 3.29962,0.01589c0.92668,0.05945 1.67199,0.86774 2.58178,1.05358c3.46294,0.70736 6.5758,1.49014 9.37069,2.86738c0.01398,0.2468 0.11904,0.51989 0.39183,0.79267c0.55419,0.55418 1.10965,0.41406 1.44597,0.23194c1.9021,1.19614 3.65828,2.76236 5.27482,4.88351c2.92675,1.80622 5.28581,4.2112 7.69448,6.62935l0.2669,0.26694c0,0 0.06933,0.06936 0.18833,0.14966c1.28083,2.35475 2.04523,4.98359 3.3443,7.31904c1.34945,2.42602 3.78062,3.81716 5.04036,6.35051c1.27149,2.55697 1.59663,5.24474 2.58524,7.78948c0.50406,3.0648 0.50027,6.15931 0.49103,9.26353z" fill="#672929" stroke-width="0.25"></path>
      <path d="M273.18586,218.22863l-0.22679,0.64986c-0.53344,2.60044 -0.73904,5.99043 -0.26496,8.58512c0.09323,0.51026 0.60864,0.93997 0.55067,1.45543c-0.10354,0.92057 -0.16918,2.19284 -1.00574,2.59077c-0.94109,0.44764 -2.87326,-1.15172 -3.65569,-1.74314c-2.27006,-1.71587 -3.84711,-4.19155 -4.17218,-6.99238c-1.3201,0.59151 -2.61809,1.16531 -3.83102,1.76627c-3.23533,1.60298 -6.02646,3.7509 -9.44922,5.12004c0,0 -0.41981,0.16793 -0.85545,0.0493c-0.20308,0.66371 -0.96366,0.81582 -0.96366,0.81582l-1.22229,0.23911c-2.36441,0.94579 -4.95304,1.29286 -7.46758,1.64869c-5.10126,-0.00827 -9.34433,-2.82559 -14.19166,-3.75275c-3.31895,-0.63482 -7.13418,-1.59839 -10.04103,-3.61635c-0.08577,0.04581 -0.17232,0.07944 -0.25316,0.10412c-1.92336,2.46083 -4.10342,4.3328 -7.17282,5.32518c-1.64315,0.53125 -2.94164,1.47163 -4.03353,-1.1029c-0.45006,-1.06117 0.67067,-2.22456 0.75784,-3.37392c0.18711,-2.46683 1.09037,-4.93943 1.06241,-7.36358c0,0 0,-0.27184 0.12677,-0.56199c-1.67937,-1.42393 -3.30755,-2.89884 -4.84102,-4.4347c-3.32652,-3.3317 -5.1303,-8.21413 -7.92546,-11.9909c-3.88456,-9.52472 -3.92946,-19.23028 -3.88754,-29.26891c0.74549,-3.80868 1.26369,-7.63191 2.74467,-11.26091c1.54625,-3.78895 5.19569,-7.65169 7.77011,-10.98c-0.44045,-0.76744 0.24524,-1.45314 0.24524,-1.45314c3.54955,-3.54955 7.71064,-7.89841 12.18961,-10.51302l-0.19966,-0.40554c-0.10075,-0.25187 -0.20149,-0.50373 -0.30224,-0.7556c-2.35287,1.08199 -4.73949,2.09246 -7.13958,3.05197c-2.22135,0.88806 -5.45988,1.16383 -7.49255,2.42951c0.05091,0.37853 -0.00239,0.99513 -0.77413,1.30382c-1.1606,0.46423 -1.62483,-0.69637 -1.62483,-0.69637c-2.28497,-5.76893 -2.24862,-11.88946 2.41006,-16.54812c2.14201,-2.142 5.05345,-3.14875 7.7951,-4.23592c1.20224,-0.72134 2.4618,-1.45622 3.75829,-2.14721c-0.19167,-0.14918 -0.35467,-0.38501 -0.42856,-0.7545c-0.24514,-1.22573 0.98058,-1.47087 0.98058,-1.47087c4.36622,-0.74415 2.88472,-7.33659 3.55102,-10.47732c1.04412,-4.9217 4.56749,-7.69763 9.06416,-9.20402c5.79411,-2.29678 10.96359,-2.8308 17.08646,-2.20352c1.7977,0.18417 3.33673,-0.36906 5.08699,-0.53333c2.11582,-0.19859 4.83336,0.38407 6.91302,0.80001c5.31649,0 9.1605,2.05135 13.17051,5.05177c1.32761,0.99336 2.81915,1.36214 3.58077,3.1486c0.66418,1.5579 0.10509,2.92878 0.10887,4.51021c0.00572,2.39241 0.31175,4.13205 1.20314,6.37788c0.25069,0.41522 0.50138,0.83044 0.75206,1.24566l0.5795,1.15079c0,0 0.00665,0.01329 0.01704,0.0377c0.13147,0.05536 0.26339,0.10903 0.39583,0.16071c2.64588,1.05835 5.65991,1.88682 8.14817,3.27089c7.10018,3.9494 9.58612,12.15902 6.68153,19.42061l-0.79946,0.05291c-0.28553,0.73286 -1.16115,0.73286 -1.16115,0.73286l-1.53091,-0.0894c-3.15647,-1.27712 -6.02676,-2.63323 -9.29904,-3.7202c-1.56345,-0.62472 -3.12478,-1.20555 -4.67869,-1.78532c-0.25094,0.41824 -0.50189,0.83647 -0.75283,1.25471l-0.32919,0.66395c0.78251,0.76229 1.52629,1.6126 2.22784,2.56467c2.82308,1.63412 5.11658,4.04218 7.40994,6.34117c0.52738,0.11497 0.82477,0.61063 0.82477,0.61063c1.52003,2.54733 2.32182,5.45383 3.75117,8.03071c1.34802,2.43025 3.80138,3.87806 5.09675,6.45696c1.34115,2.67003 1.66308,5.58774 2.75062,8.21863c0.62976,3.74135 0.57958,7.47346 0.57958,11.27015l0.20252,0.40473c0,0 0.39528,1.18586 -0.79058,1.58113c-0.00309,0.00103 -0.00618,0.00205 -0.00926,0.00306c-0.06664,0.35644 -0.13599,0.71236 -0.20877,1.06758c0.00439,3.16263 -1.02152,6.06256 -1.91239,9.03302c-2.21814,7.39597 -6.12717,15.41868 -11.6796,20.94641c-0.78662,1.31106 -1.79075,2.42928 -2.93672,3.4086c0.00756,0.27339 -0.06268,0.4841 -0.06268,0.4841zM266.85001,221.83335c-0.03875,1.8849 0.95389,3.90277 2.30055,5.24944c0.16525,0.16525 0.61762,0.40391 1.06486,0.68781c-0.05666,-0.52147 0.04523,-1.05692 0.0044,-1.58198c-0.1606,-2.06498 -0.19863,-4.23778 0.05775,-6.34056c-1.10552,0.6615 -2.2679,1.2561 -3.44309,1.81519c0.01553,0.10304 0.01553,0.17009 0.01553,0.17009zM208.17726,224.62318c-0.12958,1.46649 0.24356,2.88013 -0.84035,4.07266c-0.2141,0.23555 0.47391,-0.44418 0.76648,-0.56957c0.48619,-0.20838 1.02481,-0.27915 1.50762,-0.49524c1.87399,-0.83872 3.25334,-2.33568 4.47272,-3.91118l-0.16704,-0.08652c-1.59695,-1.19769 -3.20078,-2.42696 -4.7777,-3.69554c-0.24402,1.58367 -0.81579,3.03384 -0.96173,4.68539zM287.59623,170.70349c-0.98861,-2.54474 -1.31122,-5.2244 -2.58271,-7.78137c-1.25974,-2.53335 -3.6871,-3.91703 -5.03655,-6.34305c-1.29907,-2.33545 -2.05853,-4.95764 -3.33936,-7.31239c-0.119,-0.0803 -0.18817,-0.14948 -0.18817,-0.14948l-0.26664,-0.26665c-2.40867,-2.41815 -4.75988,-4.81609 -7.68663,-6.62231c-1.61654,-2.12115 -3.36656,-3.68357 -5.26866,-4.87971c-0.33632,0.18212 -0.89051,0.32288 -1.4447,-0.2313c-0.27279,-0.27278 -0.37721,-0.54557 -0.39119,-0.79237c-2.79489,-1.37724 -5.89839,-2.15672 -9.36133,-2.86408c-0.90979,-0.18584 -1.65238,-0.99355 -2.57906,-1.053c-1.09654,-0.07035 -2.2165,0.18778 -3.29635,-0.01539c0,0 -0.00763,-0.00153 -0.02157,-0.00494l-1.3333,0.29588c-1.86697,0 -3.77634,-0.25223 -5.6,-0.26666c-4.5356,-0.0359 -9.25653,2.83806 -13.68257,3.64924c-1.39014,0.82976 -2.96802,1.34441 -4.57818,1.81595c-0.09036,0.3703 -0.36587,0.93482 -1.2059,0.93482c-0.4189,0 -0.69742,-0.14038 -0.88261,-0.32706c-1.15797,0.34897 -2.29793,0.73636 -3.36195,1.26353c-4.44724,2.2034 -8.63514,6.5683 -12.17341,10.13046c0.27476,0.62398 -0.18205,1.23307 -0.18205,1.23307c-2.40763,3.21021 -6.37978,7.16723 -7.8341,10.90075c-1.3495,3.46442 -1.84903,6.99998 -2.58864,10.60575c0.04806,9.56108 0.01636,18.66685 3.57912,27.79776c2.71548,3.56534 4.36428,8.30502 7.54121,11.47577c3.54129,3.5344 7.57702,6.73014 11.58575,9.73662l0.0403,0.01911c0.64075,-0.15585 1.16027,0.36368 1.16027,0.36368c2.4972,2.60077 6.9347,3.49492 10.28582,4.18977c4.57379,0.94837 8.74619,3.72408 13.54166,3.71393c2.34114,-0.33808 4.73201,-0.67115 6.93244,-1.55134l1.44438,-0.29421c0,0 0.29844,-0.05969 0.63025,0.02711c0.18201,-0.5345 0.75064,-0.76196 0.75064,-0.76196c4.3544,-1.7418 8.37397,-4.25501 12.37016,-6.58721c4.19701,-2.4494 8.96689,-3.49598 11.64215,-7.95481c5.33191,-5.35461 9.1108,-12.97895 11.25375,-20.12024c0.84925,-2.83008 1.81686,-5.55629 1.82092,-8.567c0.19627,-1.00243 0.37644,-2.00809 0.54427,-3.01567l-0.01701,-0.32781c0,0 0,-0.44935 0.26941,-0.80922c0.00924,-3.10422 0.0142,-6.18917 -0.48986,-9.25397zM246.64516,129.94094c1.01117,0.21871 2.074,-0.11626 3.10363,-0.01539c0.98149,0.09616 1.7862,0.89215 2.75427,1.08034c3.71219,0.72164 7.19713,1.60406 10.31917,3.17922c0.13393,-0.18349 0.26029,-0.37295 0.37946,-0.56672c-1.18098,-0.49884 -2.35351,-1.0293 -3.51515,-1.61117c-3.07464,-1.5401 -6.47889,-5.35424 -10.08653,-5.19056c0,0 -0.83998,0 -1.1428,-0.68857c-0.36511,-0.18694 -0.53406,-0.45248 -0.60256,-0.71155l-0.1213,0.06678c0,0 -0.59336,0 -0.96245,-0.40881c-0.00386,0.00231 -0.00775,0.0046 -0.01166,0.00687c0.02661,0.073 0.04904,0.15283 0.0665,0.24013c0.24514,1.22573 -0.98058,1.47087 -0.98058,1.47087c-0.37558,0.07351 -0.75444,0.13759 -1.13548,0.19003c-0.00852,0.13351 -0.03033,0.22074 -0.03033,0.22074c-0.16987,0.54873 -0.33975,1.09745 -0.50962,1.64618l0.63549,0.87419c0,0 0.10092,0.1682 0.15617,0.41131l0.60212,-0.18086c0,0 0.26528,-0.06632 0.5787,-0.01285c0.27715,-0.04536 0.50295,-0.0002 0.50295,-0.0002zM266.12814,135.85688c0.17265,-0.28775 0.3453,-0.5755 0.51796,-0.86325c-0.37138,-0.1418 -0.74218,-0.2848 -1.11231,-0.4296c-0.17219,0.29584 -0.35566,0.58583 -0.55083,0.86741c0.34022,0.22366 0.67515,0.45827 1.00459,0.70466zM224.61593,133.73411c3.72729,-0.7898 7.63807,-2.70045 11.51863,-3.47899c0.11454,-0.30532 0.3149,-0.50567 0.3149,-0.50567l0.9365,-0.91366c0.366,-0.6681 0.47668,-1.51933 0.31439,-2.26362c0,0 -0.01433,-0.08597 -0.01272,-0.21629c-0.43576,-0.16387 -0.82322,-0.36074 -1.11464,-0.59706c-2.09024,-1.6951 -1.57455,-5.41035 0.62721,-6.84965c1.92669,-1.25949 6.70664,-1.05479 8.93313,-0.99249c0.60449,0.01692 1.26931,-0.17229 1.81169,0.09515c0.7024,0.34635 1.12694,1.0878 1.69041,1.6317c0.15042,0.69779 0.23474,1.27193 0.25167,1.79984c3.12933,-3.63856 8.49423,-6.29697 12.92616,-6.45264c0.51481,-2.71696 0.12682,-5.36286 -2.22991,-7.09071c-3.14418,-2.36458 -7.12713,-4.68814 -11.10651,-5.08942c-3.17405,-0.32007 -6.38589,0.58579 -9.6,0.26666c-2.2849,-0.22686 -4.18627,-1.03732 -6.48933,-0.56913c-3.35865,1.11954 -9.18595,1.92581 -11.65927,4.69572c-1.36979,1.53405 -1.54171,4.27871 -2.13005,6.18568c-0.39958,1.29516 -1.14336,2.5272 -2.01102,3.63282c4.06577,-0.86961 8.10067,-0.33557 11.56338,3.1271c0.99016,0.99015 1.63472,2.14638 2.1798,3.37042c0.05544,0.0079 0.11303,0.01917 0.17282,0.03412c1.21268,0.30316 0.90952,1.51584 0.90952,1.51584l-0.36965,0.17191c0.01233,0.03087 0.02467,0.06175 0.03702,0.09265c0.49029,1.07799 -0.5877,1.61698 -0.5877,1.61698l-0.44922,0.22049c-2.70964,1.6258 -5.41835,3.40687 -8.35435,4.58128c-0.90313,0.54502 -1.81682,1.07309 -2.7397,1.58564c0.14611,0.73183 0.28592,1.42121 0.47687,2.10905c1.47899,-0.44409 2.91646,-0.94555 4.18998,-1.71372zM217.65194,134.57382c-0.89857,0.46788 -1.80455,0.92253 -2.7167,1.3652c0.11957,0.29892 0.23913,0.59783 0.3587,0.89675l0.10796,0.21126c0.85019,-0.35088 1.7356,-0.63661 2.62971,-0.90256c-0.14442,-0.518 -0.26565,-1.03725 -0.37966,-1.57065zM241.69695,129.21732c0.14751,-0.69394 0.29502,-1.38788 0.44253,-2.08182c-0.31018,-0.00833 -0.62014,-0.02736 -0.92931,-0.05825c-0.29118,-0.02909 -0.62974,-0.06844 -0.99175,-0.12128c-0.00083,1.00726 -0.24379,2.03232 -0.63451,2.96246c0.84119,0.01228 1.70158,0.07701 2.56532,0.13939zM244.35001,124.23334l0.00426,-1.43643c0.15865,-0.86868 0.42429,-1.74315 0.83435,-2.53146c-2.34352,-0.13419 -5.73002,0.24168 -6.65548,0.75873c-2.70912,1.51355 0.48755,3.07144 1.71202,3.31677c0.7954,0.15936 1.61031,0.24239 2.42152,0.24239c0.57154,0 1.14608,-0.02486 1.7151,-0.08934c-0.03178,-0.15259 -0.03178,-0.26065 -0.03178,-0.26065zM265.33449,115.05754c0.0424,0.06837 0.08558,0.14925 0.1216,0.23999c0.69825,0.19036 1.37269,0.45336 2.03525,0.74959c-0.73744,-1.88173 -1.27015,-3.60747 -1.27467,-5.68045c-0.00276,-1.26505 0.64406,-3.71122 0.10887,-4.82312c-0.65106,-1.35261 -1.76931,-1.39569 -2.81922,-2.18473c-3.6656,-2.75484 -7.00415,-4.54823 -11.89614,-4.54823c-3.75322,-0.75066 -6.82901,-0.26059 -10.54349,-0.26059c-2.71853,0 -5.4124,-0.81281 -8.14351,-0.53942c-3.02709,0.30302 -6.48783,1.46308 -9.29323,2.59648c-3.61684,1.19922 -6.71569,3.21525 -7.46916,7.32932c-0.45181,2.46697 -0.25628,5.42573 -0.8726,7.86748c2.25901,-3.18895 2.01793,-7.30856 4.58356,-10.27437c2.78501,-3.21941 9.04448,-4.16109 12.8741,-5.43762c2.68728,-0.53088 4.7356,0.23115 7.37733,0.49754c3.21642,0.32434 6.40945,-0.58345 9.6,-0.26666c4.43602,0.44044 8.84697,2.94885 12.36017,5.57725c3.0067,2.29434 3.79872,5.60565 3.25114,9.15754zM260.84681,129.79278c4.4675,2.22881 9.06769,3.67189 13.71647,5.53349c3.28958,1.10088 6.19811,2.49106 9.36763,3.74647l0.31059,-0.04609c0.09067,-0.08282 0.18114,-0.14763 0.27045,-0.19731c1.88974,-5.8585 -0.20026,-12.1979 -5.92434,-15.37296c-2.39066,-1.32606 -5.30951,-2.11218 -7.85183,-3.12911c-2.42057,-0.98722 -4.80763,-2.84409 -7.55591,-2.84409c-4.135,0 -10.20547,3.10662 -12.43941,6.9429c3.78671,0.62307 6.73295,3.68372 10.10637,5.3667zM204.60244,137.73941c5.84981,-2.3412 11.57071,-4.99892 16.97543,-8.22588c2.72306,-1.08923 5.24427,-2.71038 7.75783,-4.23152c-1.2,-2.59876 -3.17232,-5.45557 -5.95854,-6.25049c-2.11434,-0.60323 -3.96563,0.20339 -5.9543,0.8c-3.64673,1.09403 -7.18849,2.75428 -10.4674,4.72163c-2.4622,0.99232 -5.20529,1.83113 -7.13825,3.76408c-3.38232,3.3823 -3.76781,7.60991 -2.56667,11.80253c2.23894,-1.10307 5.03684,-1.45381 7.3519,-2.38034z" fill="#000000" stroke-width="0.5"></path>
      <path d="M260.79793,129.80318c-3.37342,-1.68298 -6.31955,-4.76495 -10.10626,-5.38802c2.23394,-3.83628 8.33294,-6.9777 12.46794,-6.9777c2.74828,0 5.17206,1.85537 7.59263,2.84259c2.54232,1.01693 5.49025,1.8296 7.88091,3.15566c5.72408,3.17506 7.81071,9.56201 5.92097,15.42051c-0.08931,0.04968 -0.18022,0.11516 -0.27089,0.19798l-0.31089,0.04654c-3.16952,-1.25541 -6.0853,-2.63709 -9.37488,-3.73797c-4.64878,-1.8616 -9.33205,-3.33077 -13.79955,-5.55958z" fill="#491d1d" stroke-width="0.5"></path>
      <path d="M204.56685,137.77454c-2.31506,0.92653 -5.11878,1.27018 -7.35772,2.37325c-1.20114,-4.19262 -0.82406,-8.45262 2.55826,-11.83492c1.93296,-1.93295 4.68711,-2.799 7.14931,-3.79132c3.27891,-1.96735 6.88034,-3.64141 10.52707,-4.73544c1.98867,-0.59661 3.85432,-1.39325 5.96866,-0.79002c2.78622,0.79492 4.7717,3.67476 5.9717,6.27352c-2.51356,1.52114 -5.03321,3.15495 -7.75627,4.24418c-5.40472,3.22696 -11.21121,5.91954 -17.06102,8.26074z" fill="#491d1d" stroke-width="0.5"></path>
      <path d="M265.9983,136.18493c-0.32944,-0.24639 -0.72488,-0.52496 -1.0651,-0.74862c0.19517,-0.28158 0.41158,-0.62353 0.58377,-0.91937c0.37013,0.1448 0.8037,0.31519 1.17508,0.45699c-0.17266,0.28775 -0.36496,0.63772 -0.53761,0.92547z" fill="#565656" stroke-width="0.5"></path>
      <path d="M242.1811,130.09635c-0.86374,-0.06238 -1.78962,-0.12864 -2.63081,-0.14092c0.39072,-0.93014 0.64803,-2.03834 0.64886,-3.0456c0.36201,0.05284 0.73153,0.08971 1.02271,0.1188c0.30917,0.03089 0.64146,0.06189 0.95164,0.07022c-0.14751,0.69394 -0.29104,1.45703 -0.43855,2.15097z" fill="#565656" stroke-width="0.5"></path>
      <path d="M244.39281,124.25919c0,0 -0.00151,0.11041 0.03027,0.263c-0.56902,0.06448 -1.15867,0.10374 -1.73021,0.10374c-0.81121,0 -1.67682,-0.08205 -2.47222,-0.24141c-1.22447,-0.24533 -4.44143,-1.869 -1.73231,-3.38255c0.92546,-0.51705 4.40046,-0.89502 6.74398,-0.76083c-0.41006,0.78831 -0.6698,1.69342 -0.82845,2.5621l-0.01105,1.45594z" fill="#565656" stroke-width="0.5"></path>
      <path d="M262.03342,105.90266c-3.5132,-2.6284 -7.91324,-5.1082 -12.34926,-5.54864c-3.19055,-0.31679 -6.33487,0.60879 -9.55129,0.28445c-2.64173,-0.26639 -4.66068,-1.04625 -7.34796,-0.51537c-3.82962,1.27653 -10.07826,2.1904 -12.86327,5.40981c-2.56563,2.96581 -2.32706,7.06603 -4.58607,10.25498c0.61632,-2.44175 0.32345,-5.38268 0.77526,-7.84965c0.75347,-4.11407 3.85524,-6.14889 7.47208,-7.34811c2.8054,-1.1334 6.2789,-2.31292 9.30599,-2.61594c2.73111,-0.27339 5.45735,0.52586 8.17588,0.52586c3.71448,0 6.8312,-0.47137 10.58442,0.27929c4.89199,0 8.24086,1.81653 11.90646,4.57137c1.04991,0.78904 2.16874,0.83733 2.8198,2.18994c0.53519,1.1119 -0.112,3.5677 -0.10924,4.83275c0.00452,2.07298 0.53493,3.80838 1.27237,5.69011c-0.66256,-0.29623 -1.43151,-0.5919 -2.12976,-0.78226c-0.03602,-0.09074 -0.07932,-0.17127 -0.12172,-0.23964c0.54758,-3.55189 -0.24698,-6.8446 -3.25368,-9.13894z" fill="#565656" stroke-width="0.5"></path>
      <path d="M217.6863,134.53748c0.11401,0.5334 0.24977,1.09954 0.39419,1.61754c-0.89411,0.26595 -1.86131,0.57877 -2.7115,0.92965l-0.11292,-0.21625c-0.11957,-0.29892 -0.25109,-0.62634 -0.37066,-0.92526c0.91215,-0.44267 1.9023,-0.9378 2.80087,-1.40568z" fill="#565656" stroke-width="0.5"></path>
      <path d="M266.81733,221.79549c0,0 0.00139,-0.06821 -0.01414,-0.17125c1.17519,-0.55909 2.38879,-1.16054 3.49431,-1.82204c-0.25638,2.10278 -0.20963,4.36241 -0.04903,6.42739c0.04083,0.52506 -0.07039,1.06565 -0.01373,1.58712c-0.44724,-0.2839 -0.90999,-0.51948 -1.07524,-0.68473c-1.34666,-1.34667 -2.38091,-3.45158 -2.34216,-5.33648z" fill="#565656" stroke-width="0.5"></path>
      <path d="M209.12238,219.89063c1.57692,1.26858 3.2462,2.53429 4.84315,3.73198l0.16738,0.08823c-1.21938,1.5755 -2.6635,3.12898 -4.53749,3.9677c-0.48281,0.21609 -1.03406,0.28063 -1.52025,0.48901c-0.29257,0.12539 -0.98287,0.80345 -0.76877,0.5679c1.08391,-1.19253 0.69159,-2.64021 0.82117,-4.1067c0.14594,-1.65155 0.75079,-3.15445 0.99481,-4.73812z" fill="#565656" stroke-width="0.5"></path>
      <g>
        <path d="M277.28199,162.92571l-0.30926,-0.62815c-1.84289,-4.6122 -5.08091,-7.54083 -7.61003,-11.76675c-2.16348,-2.87677 -5.18532,-6.89698 -8.3751,-8.67445c-3.83827,-2.13883 -8.32926,-1.72742 -12.43275,-2.53065c0,0 -0.27527,-0.05506 -0.53882,-0.24343l-1.20586,-0.00504c-6.26131,-1.25224 -13.07923,0.01279 -19.30885,1.03589c-6.10304,2.04008 -10.05596,5.68247 -14.9987,9.63877c-1.86596,1.49357 -5.10609,3.24644 -5.71675,5.54336c0,0 -0.28984,0.86953 -1.11771,0.87124c-1.67493,2.12494 -3.51669,3.95862 -4.48579,6.60581c-1.82209,4.97717 -2.33235,11.12574 -2.33235,16.39434c0,4.73623 -0.02754,10.32034 1.78256,14.74925c1.92219,4.70316 5.34761,8.79977 7.63075,13.39358c1.86095,2.45999 3.83311,4.70951 6.32531,6.57007l0.81576,0.54354c0.63702,-0.04011 1.06228,0.52689 1.06228,0.52689c1.81747,2.47892 5.4288,3.89475 8.22995,4.9096c1.94295,0.70393 3.598,1.87342 5.4136,2.69927c2.49423,1.13453 6.37846,0.6815 8.96661,0.16388c0.53333,0 1.06666,0 1.6,0l1.21136,-0.24847c0,0 0.10543,-0.02109 0.26064,-0.01997c0.41847,-0.68892 1.29631,-0.51336 1.29631,-0.51336c3.50314,0.76663 7.15034,-1.17623 10.07578,-2.79733c4.52015,-2.50478 8.57617,-4.89951 12.26187,-8.59417c4.96645,-4.94693 10.14038,-10.94899 12.21903,-17.8723c0.82651,-2.75285 1.09766,-5.5765 1.56866,-8.4025c1.40694,-7.03856 0.73131,-13.89866 -1.29144,-20.63617c-0.66469,-0.0481 -0.99704,-0.71277 -0.99704,-0.71277zM262.21241,139.67696c3.52398,1.95375 6.85394,6.28977 9.22491,9.45889c2.37031,3.94141 5.302,6.8287 7.26336,10.88954c0.49007,0.03091 0.84989,0.39074 0.84989,0.39074l0.56862,0.75526c2.55253,7.66603 3.51681,15.5271 1.91032,23.55398c-0.48516,2.91098 -0.78012,5.82477 -1.63133,8.66415c-2.20282,7.3479 -7.59235,13.64911 -12.84762,18.92771c-3.86782,3.85755 -8.08513,6.37616 -12.80482,9.00581c-3.4703,1.93353 -7.45771,3.7841 -11.56786,3.1085c-0.2972,0.39376 -0.79941,0.49419 -0.79941,0.49419l-1.4553,0.28485c-0.53333,0 -1.06666,0 -1.6,0c-3.07335,0.61466 -7.27931,0.92172 -10.23338,-0.36945c-1.7791,-0.77761 -3.36505,-1.94511 -5.25306,-2.63407c-3.05611,-1.11522 -6.5395,-2.60201 -8.79374,-5.06849c-0.16505,-0.06208 -0.26971,-0.13185 -0.26971,-0.13185l-1.62858,-1.08631c-2.75594,-2.0748 -4.96039,-4.54647 -7.00802,-7.29659c-2.36565,-4.70511 -5.92395,-8.9406 -7.83593,-13.80641c-1.87743,-4.7779 -1.95076,-10.57059 -1.95076,-15.65074c0,-5.5513 0.56867,-11.9547 2.46766,-17.20567c1.1352,-3.13897 3.32281,-5.22921 5.24902,-7.81101c0,0 0.28087,-0.37449 0.72803,-0.49325c1.31722,-2.50406 3.92536,-4.08112 6.16937,-5.87534c5.24441,-4.19324 9.44585,-7.93763 15.93461,-10.09454c6.4807,-1.09452 13.63659,-2.40167 20.15782,-1.09745l1.21016,-0.00608c0,0 0.49,0 0.85642,0.30679c4.34691,0.87608 9.01178,0.52619 13.08932,2.78684z" fill="#000000" stroke-width="0.5"></path>
        <path d="M277.32714,162.90416c0,0 0.33288,0.66582 0.99757,0.71392c2.02275,6.73751 2.70255,13.62218 1.29561,20.66074c-0.471,2.826 -0.74417,5.6601 -1.57068,8.41295c-2.07865,6.92331 -7.26727,12.94819 -12.23372,17.89512c-3.6857,3.69466 -7.75771,6.0989 -12.27786,8.60368c-2.92544,1.6211 -6.58508,3.56676 -10.08822,2.80013c0,0 -0.87944,-0.17544 -1.29791,0.51348c-0.15521,-0.00112 -0.26095,0.01999 -0.26095,0.01999l-1.21282,0.24853c-0.53334,0 -1.06858,0.00001 -1.60191,0.00001c-2.58815,0.51762 -6.48286,0.96941 -8.97709,-0.16512c-1.8156,-0.82585 -3.47741,-1.99739 -5.42036,-2.70132c-2.80115,-1.01485 -6.42272,-2.43602 -8.24019,-4.91494c0,0 -0.42642,-0.56782 -1.06344,-0.52771l-0.81671,-0.54424c-2.4922,-1.86056 -4.47238,-4.1177 -6.33333,-6.57769c-2.28314,-4.59381 -5.71776,-8.70681 -7.63995,-13.40997c-1.8101,-4.42891 -1.78509,-10.03099 -1.78509,-14.76722c0,-5.2686 0.515,-11.43639 2.33709,-16.41356c0.9691,-2.64719 2.81568,-4.48899 4.49061,-6.61393c0.82787,-0.00171 1.1187,-0.87255 1.1187,-0.87255c0.61066,-2.29692 3.8574,-4.05675 5.72336,-5.55032c4.94274,-3.9563 8.91426,-7.60889 15.0173,-9.64897c6.22962,-1.0231 13.07025,-2.28946 19.33156,-1.03722l1.20723,0.0053c0.26355,0.18837 0.53948,0.24357 0.53948,0.24357c4.10349,0.80323 8.60797,0.39685 12.44624,2.53568c3.18978,1.77747 6.22259,5.80582 8.38607,8.68259c2.52912,4.22592 5.7769,7.16797 7.61979,11.78017l0.30963,0.6289z" fill="url(#color-1)" stroke-width="0.25"></path>
        <path d="M240.8122,137.66906c0.16736,-0.28651 0.47798,-0.55238 1.05447,-0.55238c1.25,0 1.25,1.25 1.25,1.25l-0.02427,1.3118c-0.70066,3.41589 1.11264,8.32478 -0.54591,11.52285c-0.01523,0.02937 -0.03077,0.05855 -0.0466,0.08754l0.01931,0.00644l-0.52423,1.57265c-0.15709,0.51078 -0.63267,0.88205 -1.19497,0.88205c-0.69036,0 -1.25,-0.55964 -1.25,-1.25v-1.33333c0,-4.10593 0.28715,-8.19623 0.26668,-12.26666c0,0 0,-1.07399 0.99552,-1.23095z" fill="#2f2f2f" stroke-width="0.5"></path>
        <path d="M262.7141,160.0189c0.74199,-0.83746 1.55727,-1.6249 2.39598,-2.39765c1.73282,-1.73313 3.46294,-3.46203 5.20605,-5.20513c0,0 0.88388,-0.88388 1.76777,0c0.88388,0.88388 0,1.76777 0,1.76777c-0.32775,0.32775 -0.65503,0.65507 -0.98196,0.98205c-0.10096,0.36754 -0.35138,0.61795 -0.35138,0.61795l-0.26666,0.26666c-1.63103,1.63103 -3.08731,3.13266 -4.84175,4.57538c-0.29181,0.29163 -0.58385,0.58343 -0.8762,0.87547c-0.39498,0.459 -0.72877,0.89209 -1.11686,1.11534c-0.13838,0.13815 -0.27685,0.27637 -0.41542,0.41467l-0.07081,0.02214l0.01803,0.02253l-1.32556,1.06045c-0.21512,0.17514 -0.48962,0.28014 -0.78865,0.28014c-0.69036,0 -1.25,-0.55964 -1.25,-1.25c0,-0.34517 0.13991,-0.65767 0.36611,-0.88388l1.06665,-1.06667l0.11309,0.11308l0.21596,-0.17276c0.37911,-0.37991 0.7576,-0.75903 1.13562,-1.13755z" fill="#2f2f2f" stroke-width="0.5"></path>
        <path d="M278.2565,182.01059c-0.36058,0 -0.72114,0.0045 -1.08169,0.01267c-0.67699,0.27521 -1.58617,0.24928 -2.51346,0.10619c-2.75097,0.15883 -5.50291,0.42055 -8.26134,0.42055c0,0 -1.25,0 -1.25,-1.25c0,-1.25 1.25,-1.25 1.25,-1.25c1.41648,0 2.83155,-0.07038 4.24574,-0.15971c0.10056,-0.17101 0.20367,-0.27413 0.20367,-0.27413l1.45376,-0.59551c1.17501,0.29948 2.32614,0.43925 3.47615,0.5531c0.64722,-0.02741 1.2944,-0.04574 1.94158,-0.05003l1.51702,-0.25283c0.07415,-0.01371 0.1506,-0.02088 0.22873,-0.02088c0.69036,0 1.25,0.55964 1.25,1.25c0,0.61444 -0.44333,1.12534 -1.02757,1.23027l-1.31063,0.26212l-0.00847,-0.04237l-0.03706,0.00618z" fill="#2f2f2f" stroke-width="0.5"></path>
        <path d="M267.55056,208.85055c-0.88388,0.88388 -1.76777,0 -1.76777,0l-0.26666,-0.26666c-2.64596,-2.6564 -4.56155,-5.88414 -7.59944,-8.15054c0,0 -1.00001,-0.74999 -0.25002,-1.75c0.74999,-1.00001 1.75,-0.25002 1.75,-0.25002c3.13628,2.36302 5.12101,5.6487 7.86723,8.38279l0.26666,0.26666c0,0 0.88388,0.88388 0,1.76777z" fill="#2f2f2f" stroke-width="0.5"></path>
        <path d="M239.87849,209.12079c0.07442,-0.46067 0.14881,-0.91453 0.22186,-1.35962c0,0 0.2055,-1.23299 1.43849,-1.0275c1.23299,0.2055 1.0275,1.43849 1.0275,1.43849c-0.63408,3.73986 -1.32241,8.12334 -1.32241,11.91767l-0.0738,0.11085l0.05561,0.01112l-0.26212,1.31063c-0.10493,0.58424 -0.61583,1.02757 -1.23027,1.02757c-0.69036,0 -1.25,-0.55964 -1.25,-1.25v-1.6h0.27308c0.0007,-0.15222 0.0025,-0.30533 0.00536,-0.45925c-0.37732,-2.80411 -0.01178,-5.60003 -0.01178,-8.60742v-0.26666c0,0 0,-1.16761 1.12848,-1.24588z" fill="#2f2f2f" stroke-width="0.5"></path>
        <path d="M212.85085,208.44009c-0.53938,0.47672 -1.06385,0.96701 -1.56695,1.47712c0,0 -0.88388,0.88389 -1.76777,0.00002c-0.88389,-0.88388 -0.00002,-1.76777 -0.00002,-1.76777c1.36085,-1.34561 2.85063,-2.56318 4.36476,-3.76131c1.54304,-1.43083 3.14394,-2.78461 4.82025,-4.07632c0.44273,-0.34115 0.75779,-0.95994 1.30694,-1.0528c0.08028,-0.07845 0.16016,-0.15734 0.23961,-0.23669l0.08916,-0.01927l0.00447,-0.00357l-0.02463,-0.03284l1.05655,-0.79241c0.21062,-0.16156 0.47415,-0.25758 0.7601,-0.25758c0.69036,0 1.25,0.55964 1.25,1.25c0,0.39906 -0.187,0.75445 -0.47816,0.98331l-1.31151,1.04919c-1.52039,1.4793 -3.2012,2.79523 -4.88074,4.10464c-0.99295,0.84466 -1.98845,1.70467 -2.93014,2.64784l-0.09891,0.09891c0,0 -0.35159,0.35159 -0.83303,0.38953z" fill="#2f2f2f" stroke-width="0.5"></path>
        <path d="M199.17154,178.7424c0,0 -1.22573,-0.24514 -0.98058,-1.47087c0.24514,-1.22573 1.47087,-0.98058 1.47087,-0.98058c1.76788,0.39379 3.76594,0.23704 5.76516,-0.00917c0.24972,-0.81512 1.18969,-0.81512 1.18969,-0.81512h0.53335c1.34728,0.00291 2.48695,-0.28801 3.18709,0.27842c0.0937,-0.00359 0.18689,-0.00641 0.27957,-0.0084v-0.00336h1.6c0.69036,0 1.25,0.55964 1.25,1.25c0,0.69036 -0.55964,1.25 -1.25,1.25h-1.43752c-3.74992,0.01101 -7.85613,1.20053 -11.60761,0.50907z" fill="#2f2f2f" stroke-width="0.5"></path>
        <path d="M216.46694,148.19519c-0.35715,-0.26865 -0.71842,-0.53864 -1.0836,-0.81185c0,0 -1,-0.75 -0.25001,-1.75c0.75,-1 1.75,-0.25001 1.75,-0.25001c3.45141,2.5956 6.6208,4.91635 9.24786,8.4301l1.01936,1.01935c0.22621,0.22621 0.36612,0.53871 0.36612,0.88389c0,0.69036 -0.55964,1.25 -1.25,1.25c-0.29902,0 -0.57352,-0.105 -0.78864,-0.28013l-1.32556,-1.06044l0.14291,-0.17864l-0.0397,0.02155c-0.02946,-0.0391 -0.05898,-0.07805 -0.08856,-0.11685c-2.62391,-1.30604 -4.85297,-3.17286 -6.84952,-5.48867l-0.62432,-0.92012c0,0 -0.22215,-0.33322 -0.22634,-0.74818z" fill="#2f2f2f" stroke-width="0.5"></path>
        <path d="M236.36326,180.47785c-0.08908,-0.33683 -0.07635,-0.68336 0.0122,-1.0199c0.11783,-1.91835 2.28805,-4.10394 3.92716,-3.34116c0.81621,-0.01461 1.25526,0.44573 1.40379,1.11258c0.30906,0.21517 0.60177,0.50748 0.86735,0.88685c1.37693,1.96693 0.21788,3.87344 -1.35095,5.04327c-0.25181,1.20945 -1.46794,0.96623 -1.46794,0.96623c-0.00142,-0.00038 -0.00284,-0.00077 -0.00426,-0.00115c-0.50842,0.3615 -1.03247,0.70739 -1.57169,0.53906c-1.99606,-0.62314 -2.32833,-2.5113 -1.81565,-4.18578z" fill="#2f2f2f" stroke-width="0.5"></path>
      </g>
    </g>
  </g>
</svg>
