<?xml version="1.0" encoding="UTF-8"?>
<svg xmlns="http://www.w3.org/2000/svg" xmlns:xlink="http://www.w3.org/1999/xlink" version="1.1" width="52.11217" height="96.98988" viewBox="0,0,52.11217,96.98988">
  <g transform="translate(-25.54283,-116.19414)">
    <g stroke="none" stroke-width="0.5" stroke-miterlimit="10">
      <path d="M76.14738,211.38732c0.50262,0.35671 0.50262,1.03768 0.50262,1.03768l-2.36804,0.75902c-0.58357,-1.18414 -1.35781,-2.13093 -1.95284,-3.31425c-7.89852,-11.05788 -13.12858,-24.13562 -19.62649,-36.0462c0,0 -0.59856,-1.09737 0.49881,-1.69593c1.09737,-0.59856 1.69593,0.49881 1.69593,0.49881c6.47857,11.87961 11.69599,24.92533 19.57351,35.9538c0.50122,1.00844 1.12384,1.85854 1.6765,2.80708z" fill="#000000"></path>
      <path d="M63.20469,156.21085c-1.18585,-0.39531 -0.79054,-1.58115 -0.79054,-1.58115l0.40977,-0.98555c0.26666,-0.33333 0.53333,-0.66667 0.79999,-1c1.98022,-2.47526 5.12528,-5.49849 5.32775,-8.88354c0.30545,-5.10673 -5.42189,-8.00426 -9.81361,-7.49325c0,0 -1.23098,0.13678 -1.37843,-1.0873c-0.57004,0.46769 -1.1156,0.96637 -1.63659,1.48786c-7.14689,8.5703 -2.63733,20.19086 -1.79912,30.24971c2.695,-4.47431 6.99563,-8.7498 11.87041,-10.27497c3.51619,-1.10011 9.80527,-2.15657 11.20204,2.42012c0.3521,1.1537 0.24517,2.80001 0.23749,3.96245c-2.33427,7.1728 -5.83583,13.18328 -12.87483,16.71782l-1.64294,-0.43419c0,0 -0.88385,-0.88392 0.00007,-1.76777c0.40988,-0.40985 0.81975,-0.43958 1.14148,-0.3536c5.903,-3.18276 8.80386,-8.41753 10.90851,-14.56271c-0.01008,-1.11808 0.20209,-2.65751 -0.54603,-3.62368c-1.26833,-1.63799 -5.94431,-0.51489 -7.61444,0.00625c-5.23893,1.63473 -9.74669,6.94998 -11.86341,11.72533c0,0 -0.50767,1.14226 -1.64994,0.63459c-0.31263,-0.13895 -0.50167,-0.32544 -0.61135,-0.52303c-0.93097,-0.19217 -0.93097,-1.21923 -0.93097,-1.21923c0.05799,-11.37048 -5.95846,-23.88022 1.82945,-34.02109c-3.63987,0.90151 -6.91989,2.50406 -10.05312,4.63264c-2.11472,1.43665 -4.59037,1.79471 -6.62778,3.48462c-2.27283,1.88519 -4.04985,5.0228 -5.1856,7.67288c-2.2574,3.76542 -4.03474,7.74546 -3.856,12.26646c0.09451,2.39041 1.32935,4.53185 1.98306,6.79568c0.21235,0.08687 1.09465,0.51772 0.74584,1.56411c-0.3953,1.18585 -1.58115,0.79055 -1.58115,0.79055l-1.42494,-1.1147c-0.59206,-2.71056 -2.09654,-5.07426 -2.2202,-7.92141c-0.21422,-4.93234 1.65494,-9.40131 4.12748,-13.51881c1.26476,-2.95111 3.2827,-6.33984 5.79609,-8.44274c2.1284,-1.78078 4.71131,-2.16094 6.88619,-3.67628c4.16163,-2.8996 8.75289,-4.81219 13.8539,-5.54935c0,0 0.03184,-0.00455 0.08603,-0.00708c-1.85172,-2.40178 -1.46377,-5.80214 -0.02728,-8.7145c1.15864,-2.34906 2.32265,-4.8796 4.66502,-6.30686c3.43373,-2.09224 10.13094,-1.92822 12.66706,1.53498c0.89373,1.22043 1.0471,2.22668 1.43098,3.61939c-0.64361,6.85862 -7.4322,13.28601 -14.18095,10.01111c-0.00814,0.31627 -0.14523,0.67517 -0.60158,0.96039c-0.0196,0.01225 -0.03906,0.02391 -0.05839,0.035c5.55126,0.06106 11.68647,3.97096 11.24423,10.1694c-0.28826,4.04025 -3.48721,7.33517 -5.87226,10.31648c-0.26666,0.33333 -0.53332,0.66666 -0.79998,1l0.00974,0.21444c0,0 -0.39531,1.18585 -1.58115,0.79054zM65.83041,130.02758c-0.46525,0.21611 -0.9444,0.36924 -1.42799,0.44623c-0.26484,0.14095 -0.53889,0.25593 -0.82094,0.34156c-0.15134,0.04594 -0.2948,0.08458 -0.43142,0.11639c2.23255,0.57216 4.42897,-0.26085 6.14171,-1.7955c-0.4948,0.20659 -1.02569,0.40271 -1.62223,0.64721l-1.2244,0.26726c0,0 -0.2892,0.05784 -0.61474,-0.02315zM70.05006,119.91414c0.15619,0.01758 0.3122,0.03899 0.46793,0.06425c-0.17566,-0.13604 -0.35869,-0.26258 -0.54813,-0.37946c0.03135,0.10379 0.05803,0.20891 0.0802,0.31521zM63.07824,125.1537c-0.13152,0.23338 -0.22296,0.43785 -0.2602,0.59511c0.36788,-0.05197 0.73403,-0.14031 1.07502,-0.2839c0.21312,-0.79123 0.77308,-1.49797 1.49881,-2.10889c-0.64864,0.36004 -1.24512,0.78552 -1.75477,1.24687c-0.12439,0.1126 -0.33527,0.30764 -0.55887,0.55081zM70.61776,123.48851c-0.11466,0.82315 -0.38912,1.65863 -0.78478,2.45267c0.1828,-0.14248 0.35596,-0.29599 0.51474,-0.46389c2.2027,-2.32914 1.57976,-2.49574 0.27004,-1.98878z" fill="#000000"></path>
      <path d="M73.51804,125.06598c0.55902,1.11803 -0.55902,1.67705 -0.55902,1.67705l-0.00994,-0.10455c-1.54408,1.80107 -2.89208,3.15605 -4.79908,4.58652c0,0 -1,0.75 -1.75,-0.25001c-0.75,-1 0.25001,-1.75 0.25001,-1.75c1.78776,-1.3406 2.95286,-2.52373 4.40093,-4.21349l0.79005,-0.50454c0,0 1.11803,-0.55902 1.67705,0.55902z" fill="#ffffff"></path>
      <path d="M70.85,122.425c0,0.73931 -0.43726,1.04136 -0.79455,1.16476c-1.51418,1.75075 -3.38531,3.10374 -4.91472,4.85837c0,0 -0.82313,0.94072 -1.76385,0.11759c-0.94072,-0.82313 -0.11759,-1.76385 -0.11759,-1.76385c1.61856,-1.84332 3.64604,-3.24459 5.16463,-5.15774l1.17608,-0.46913c0,0 1.25,0 1.25,1.25z" fill="#ffffff"></path>
    </g>
  </g>
</svg>
