<?xml version="1.0" encoding="UTF-8"?>
<svg xmlns="http://www.w3.org/2000/svg" xmlns:xlink="http://www.w3.org/1999/xlink" version="1.1" width="30.90411" height="41.58597" viewBox="0,0,30.90411,41.58597">
  <g transform="translate(-224.54795,-159.20702)">
    <g stroke="none" stroke-width="0.5" stroke-miterlimit="10">
      <path d="M236.63539,181.00529c-0.57367,0.57366 -1.14733,0.40267 -1.47935,0.21198c-1.84677,1.2799 -3.777,2.82328 -5.80025,3.88986c1.98016,-0.19702 4.94202,-0.65952 6.14577,-0.07134c0.75788,0.37032 1.54589,1.03479 1.7144,1.8613c0.18558,0.91023 -0.48402,1.79544 -0.79001,2.67256c-0.30673,0.87924 -0.85161,2.36342 -1.52992,3.87045c0.3119,-0.36164 0.62302,-0.72471 0.93493,-1.08835c0.92545,-1.05708 3.24792,-4.56751 5.30188,-3.65354c0.8699,0.38709 1.95205,4.38919 2.31927,5.24695c0.36945,0.86296 0.84042,1.67924 1.2337,2.53157c-0.32227,-1.99422 0.00384,-4.23157 -0.22288,-6.26206c-0.11905,-1.06622 -0.63631,-4.41026 -0.33811,-5.11297c0.30127,-0.70995 1.30044,-0.82983 1.96152,-1.22702c1.57276,-0.94494 3.29063,-2.25253 5.09387,-2.82824c-2.57209,-0.2107 -6.5414,-0.23183 -8.3332,-2.0166c-0.42511,-0.42344 -1.42678,-4.36671 -1.595,-4.95974c-0.72462,-2.55453 -2.14098,-5.7109 -2.76322,-8.67777c-0.57685,4.51468 -1.18044,9.32673 -2.52249,13.42492c0,0 -0.02527,0.07582 -0.08221,0.18274l0.75132,0.2375c0,0 0.88388,0.88389 -0.00002,1.76777zM233.72395,179.14275c-0.33691,-0.49334 -0.12935,-1.11602 -0.12935,-1.11602c1.68704,-4.95517 2.1213,-11.15846 2.88253,-16.40027l0.06524,-0.09658l-0.03453,-0.01151l0.47642,-1.42928c0.15709,-0.51078 0.63267,-0.88207 1.19497,-0.88207c0.51326,0 0.95426,0.30934 1.14675,0.75175l1.03585,2.24432l-0.32962,0.15213c1.32847,2.69199 1.99709,5.46692 2.9203,8.62343c0.37752,1.29077 0.79316,5.40906 1.72636,6.34995c1.30659,1.31735 5.94384,1.13938 7.60642,1.32913l0.11663,0.06653l0.0105,-0.03149l2.15759,0.71919c0.51078,0.15709 0.88206,0.63267 0.88206,1.19497c0,0.45473 -0.24281,0.85275 -0.60585,1.07147l-1.92382,1.20238l-0.11966,-0.19146c-1.16171,0.85223 -2.35724,1.5735 -3.80698,2.4017c-0.57654,0.32937 -1.12516,0.71337 -1.72975,0.98787c-0.29714,0.13491 -0.85985,-0.08355 -0.95171,0.2296c-0.34543,1.17757 0.49809,2.407 0.63299,3.62675c0.2261,2.04446 0.6369,4.70873 0.24869,6.76364c-0.21108,1.11731 0.08451,2.90438 -0.99452,3.26305c-1.21682,0.40447 -2.40527,-0.99153 -3.39819,-1.80292c-1.20153,-0.98185 -2.63744,-4.95823 -2.88451,-6.44025c-0.0422,-0.25313 0.05608,-0.51896 0.16225,-0.75259c0.19213,-0.42282 -0.43578,0.83115 -0.74617,1.17662c-0.54631,0.60804 -1.07621,1.23063 -1.61432,1.84595c-1.44354,1.68292 -2.87035,3.35667 -4.43381,4.92947l-1.1814,1.41768c-0.22925,0.27908 -0.57703,0.4571 -0.96639,0.4571c-0.63663,0 -1.16211,-0.47593 -1.24003,-1.09141l-0.24019,-1.68119l0.02652,-0.00379c-0.01688,-0.12285 -0.02513,-0.24716 -0.02295,-0.37322c0.01653,-0.95762 0.81718,-1.73249 1.23387,-2.59486c1.20977,-2.50375 2.98126,-4.98535 3.87651,-7.62218c0.14422,-0.42477 -0.90085,-0.04761 -1.34572,0.01004c-0.48815,0.06326 -0.96579,0.20556 -1.45662,0.24277c-0.09786,0.00742 -3.40821,0.00305 -3.66697,0.00273l-2.36427,0.23642c-0.04632,0.0052 -0.0934,0.00788 -0.14111,0.00788c-0.69036,0 -1.25,-0.55964 -1.25,-1.25c0,-0.31743 0.11832,-0.60723 0.31327,-0.82769l1.64228,-1.87688l0.349,0.30538c1.93538,-2.0919 4.24434,-3.45642 6.87145,-5.13424z" fill="#af7800"></path>
      <path d="M236.59011,179.21636l-0.75176,-0.23653c0.05694,-0.10691 0.0831,-0.18463 0.0831,-0.18463c1.34206,-4.09819 1.98481,-8.93784 2.56167,-13.45252c0.62224,2.96687 2.05138,6.12342 2.776,8.67795c0.16822,0.59303 1.20301,4.55609 1.62812,4.97953c1.7918,1.78477 5.77088,1.83612 8.34298,2.04682c-1.80323,0.57571 -3.52648,1.90533 -5.09924,2.85027c-0.66109,0.39719 -1.67092,0.53121 -1.97219,1.24117c-0.29819,0.70271 0.2057,4.05561 0.32475,5.12183c0.22672,2.03049 -0.10632,4.27038 0.21595,6.2646c-0.39328,-0.85233 -0.86604,-1.66814 -1.23548,-2.5311c-0.36722,-0.85777 -1.45572,-4.85874 -2.32562,-5.24583c-2.05396,-0.91397 -4.40008,2.59337 -5.32553,3.65045c-0.31191,0.36364 -0.62465,0.72605 -0.93655,1.08768c0.67831,-1.50703 1.2226,-2.99147 1.52933,-3.87071c0.30599,-0.87712 0.97314,-1.7635 0.78755,-2.67374c-0.16851,-0.82651 -0.97164,-1.50288 -1.72952,-1.8732c-1.20375,-0.58818 -4.17441,-0.14044 -6.15457,0.05658c2.02325,-1.06658 3.95026,-2.62506 5.79702,-3.90496c0.33201,0.19069 0.90561,0.35989 1.47928,-0.21377c0.88389,-0.88388 0.00471,-1.7899 0.00471,-1.7899z" fill="#ffae00"></path>
    </g>
  </g>
</svg>
