<?xml version="1.0" encoding="UTF-8"?>
<svg xmlns="http://www.w3.org/2000/svg" xmlns:xlink="http://www.w3.org/1999/xlink" version="1.1" width="230.80894" height="168.39208" viewBox="0,0,230.80894,168.39208">
  <g transform="translate(-124.59553,-95.80396)">
    <g stroke="none" stroke-miterlimit="10">
      <path d="" fill="#000000" stroke-width="0.5"></path>
      <g>
        <path d="M154.65635,224.89047c0,0 -2.04257,0.4077 -2.02717,2.34187c-2.53978,0.36915 -5.06232,-1.06623 -7.73658,-2.20645c-1.76772,-0.7537 -3.78627,-0.81941 -5.55052,-1.58119c-0.85371,-0.36861 -1.48007,-1.15351 -2.31537,-1.56212c-0.61486,-0.30078 -1.44138,-0.1231 -1.98225,-0.5426c-1.30628,-1.01315 -1.71825,-2.83333 -2.64083,-4.20507c-1.69135,-2.51478 -3.2468,-5.56335 -2.8036,-8.71826c0.30592,-2.1776 1.31961,-4.22631 1.59822,-6.40757c0.26199,-2.05116 0.24389,-4.16249 0.75724,-6.16558c0.94635,-4.7968 0.78183,-10.15593 3.01165,-14.67081c1.48808,-3.01303 4.77677,-5.04646 6.89574,-7.52548c1.95834,-2.29109 3.07116,-5.35979 5.13796,-7.56499c0.61315,-0.6542 1.59801,-0.2159 2.1456,0.16667c1.22263,0.85416 5.27832,3.68317 5.14481,5.98744c-0.05603,0.96709 -0.65747,1.83572 -0.7797,2.79668c-0.56948,4.47729 -0.00167,9.36462 -0.00167,13.88768c0.02574,2.87089 -0.32557,4.14251 1.09195,6.73907c0.6918,1.26721 1.66368,2.34501 2.57201,3.46722c0.33475,0.41356 1.05022,0.58059 1.14329,1.10445c0.30503,1.71684 -5.66299,2.62925 -6.53585,1.85376c-1.23892,-1.10071 -1.17516,-3.14494 -1.39709,-4.78726c-0.26999,-1.998 -0.78373,-4.00037 -0.76565,-6.01645l0.00294,-3.20747c0,0 0.00155,-1.20094 -0.82778,-1.93832c-0.01965,-0.16833 -0.04505,-0.2714 -0.04505,-0.2714c-0.22607,-0.77646 -0.45018,-1.55601 -0.67624,-2.33247l0.60847,-1.82143c0.09499,-0.26421 0.14776,-0.55023 0.14776,-0.84715c0,-1.38071 -1.04406,-2.43412 -2.42477,-2.43412c-0.88153,0 -1.65397,0.45317 -2.09911,1.14242l-1.57568,2.36356c0,0 -1.38437,2.07569 0.69575,3.46246c0.0686,0.04574 0.13646,0.08765 0.20353,0.12604c0.1193,0.53338 0.23965,1.06437 0.35896,1.59775c0,0 0.17835,0.7089 0.72602,1.26467l0.00174,2.92145c0.03637,4.95798 0.01659,11.36441 4.23366,14.79307c3.07281,2.49833 8.22635,1.60919 11.45349,-1.01216c-0.03447,0.0578 -0.12991,0.195 -0.16608,0.25182c-0.99298,1.56022 -2.71586,2.54294 -3.39001,4.26508c-0.58972,1.50647 -0.10527,3.23025 -0.15504,4.84727c0,0 -0.00707,2.49668 2.49293,2.49668c2.5,0 2.46849,-2.40517 2.46849,-2.40517c-0.04977,-1.04965 -0.53517,-2.27934 -0.11844,-3.244c0.58894,-1.36332 2.13157,-2.09664 2.94464,-3.33938c0.89954,-1.37491 1.20495,-3.08416 2.12955,-4.44234c2.03305,-2.9864 4.86171,-5.2454 8.02622,-6.78761l-0.31795,0.26211c0,0 1.21062,0.00511 1.94697,-0.8374c1.55326,-0.07963 3.19358,0.13512 4.84902,0.54931c0.15147,0.20196 0.34927,0.40296 0.60383,0.59388c0.43114,0.32335 0.83893,0.48553 1.21358,0.53869l0.49956,0.34381c0,0 1.98045,1.37931 3.36718,-0.70083c0.85356,-1.28037 0.39381,-2.2908 -0.08603,-2.88407c2.77822,-3.94141 5.24995,-7.74609 9.42121,-10.59428l2.68516,-0.65187c0.55669,0.06356 1.00218,-0.04733 1.00218,-0.04733c0.66219,-0.22391 3.80723,-1.85992 4.33714,0.25125c0.04104,0.16353 0.06007,0.32757 0.06114,0.49099c-0.10735,0.03059 -0.218,0.06835 -0.33202,0.11397c-2.3212,0.92846 -1.39173,3.25311 -1.39173,3.25311c0.19358,0.43967 0.4413,0.86624 0.67672,1.29425l-0.05352,1.70529c0,0 -0.02712,0.90366 0.49233,1.64017c-0.10719,0.24157 -0.22275,0.48311 -0.31658,0.72501c-1.98555,-0.15752 -2.50167,1.91019 -2.50167,1.91019c-0.63018,2.94925 -2.0155,4.41531 -4.23407,5.34308c-0.77859,-0.12566 -1.46939,0.15119 -1.46939,0.15119c-0.55785,0.22329 -1.11635,0.44761 -1.67572,0.66756l-0.59601,-0.04467c0,0 -1.42928,0.00284 -2.12659,1.08291c-0.58836,0.21409 -1.17962,0.42355 -1.7735,0.62172l-3.10856,0.77872c0,0 -0.58975,0.14948 -1.11462,0.58901c-1.295,0.31568 -2.59243,0.64907 -3.87386,1.07365l0.55085,1.69546c-2.06768,0.86786 -1.3395,3.07631 -1.3395,3.07631c0.33832,0.92453 0.80478,1.81725 1.13065,2.745c-0.34117,1.14441 -0.81127,2.20449 -1.37592,3.19281c-0.0012,-0.0008 -0.0024,-0.0016 -0.0036,-0.0024c-2.08013,-1.38675 -3.47337,0.69708 -3.47337,0.69708c-0.52179,0.78269 -1.06653,1.54559 -1.63005,2.27695c-1.06286,-0.49923 -2.21712,0.07703 -2.21712,0.07703l-3.15606,1.57648c-4.95888,2.20259 -9.33599,3.54317 -14.64819,4.60559z" fill="#a2f9ff" stroke-width="0.25"></path>
        <path d="M199.60002,197.35002c1.49999,2 -0.50001,3.5 -0.50001,3.5c-3.24138,2.42513 -6.46058,4.2822 -9.99911,6.24456l-2.91611,1.2533c0,0 -2.07292,0.88838 -3.12485,-0.99125c-0.76258,0.16005 -1.56186,0.28812 -2.41117,0.38097c0,0 -2.48759,0.24876 -2.73635,-2.23884c-0.24876,-2.48759 2.23884,-2.73635 2.23884,-2.73635c4.59558,-0.4059 7.36568,-2.27801 11.41951,-4.4895l2.78908,-1.59361c0,0 1.19708,-0.68392 2.3212,-0.14702c0.70478,-0.29482 1.92227,-0.51123 2.91898,0.81774z" fill="#75b3b7" stroke-width="0.5"></path>
        <path d="M151.26817,227.72788c-4.5219,-1.2144 -7.65305,-2.0047 -11.26863,-4.95732c0,0 -0.30087,-0.25072 -0.5652,-0.67278c-1.48863,-0.76236 -2.82688,-1.65035 -4.02035,-2.71029c-1.49303,0.18989 -2.3577,-1.25123 -2.3577,-1.25123l-2.62933,-4.49972c-0.08875,-0.78297 -0.18071,-1.59342 -0.27001,-2.42518c-0.04345,-0.12248 -0.08633,-0.24606 -0.12863,-0.37077c0,0 -0.23802,-0.71405 -0.06106,-1.48916c-0.78631,-8.2168 -0.93771,-17.96796 4.665,-23.86919c0,0 1.76777,-1.76777 3.53553,0c1.76777,1.76777 0,3.53553 0,3.53553c-2.08916,1.92084 -2.43404,4.23492 -2.9048,7.06091c-0.78212,4.69513 -0.61002,9.20756 -0.25953,13.8539c0.15466,0.42569 0.3184,0.83213 0.49138,1.2205c0.08869,-0.51913 0.38383,-1.06978 1.07151,-1.55116c2.04808,-1.43366 3.48174,0.61442 3.48174,0.61442c2.05376,2.94674 4.44219,6.18213 7.24582,8.85949c3.35549,0.57406 6.98656,0.3163 10.55515,0.12162l0.81693,-0.04386c0,0 2.49641,-0.13402 2.63043,2.36238c0.06462,1.20362 -0.48224,1.85808 -1.06596,2.21313c0.57605,0.22166 1.14277,0.70597 1.39492,1.71456c0.60634,2.42536 -1.81902,3.0317 -1.81902,3.0317l-3.80635,0.87465c-1.63123,-0.39265 -3.16483,-0.94178 -4.61323,-1.62152z" fill="#75b3b7" stroke-width="0.5"></path>
        <path d="M183.88571,175.78593c0,0 0.03977,-0.31815 0.20475,-0.71233c-0.72133,-0.11016 -1.43201,-0.27903 -2.12452,-0.50987l-1.58461,0.01827c0.89791,1.67328 2.04649,3.00792 3.23831,4.3285c0.05124,-1.04576 0.14067,-2.0888 0.26606,-3.12458zM188.8471,176.4061c-0.32722,2.52708 -0.39635,5.11074 -0.155,7.65223c1.56829,-1.683 3.32444,-3.24411 5.4629,-4.64859l3.60507,-0.93906c0,0 0.4549,-0.11372 1.01992,-0.04566c3.83385,-0.8127 6.97794,-2.31506 9.84375,2.99656c0.99039,1.83563 -0.31581,4.15956 -0.47371,6.23934l-0.00787,0.27029c0.34436,0.77419 0.63537,1.56077 0.7185,2.39556c0.39191,3.93544 -2.57469,9.08706 -4.2556,12.48212l-2.07087,2.25491c0,0 -1.76777,1.76777 -3.53553,0c-0.16805,-0.16805 -0.30415,-0.3361 -0.41285,-0.50263c-1.167,0.47573 -2.39073,0.84182 -3.61308,1.16022l-0.40621,0.01374c-0.78823,0.30486 -1.57898,0.60315 -2.37356,0.89052c-0.48293,0.4577 -1.03595,0.64205 -1.03595,0.64205c-1.87388,0.62091 -3.77468,1.03228 -5.66613,1.50636c0.07528,0.18962 0.12802,0.39064 0.15493,0.59975c1.0776,0.88458 0.77202,2.4125 0.77202,2.4125c-0.04971,0.23237 -0.10242,0.46179 -0.15806,0.68838c0.08934,0.37726 0.1553,0.75906 0.18767,1.14739c0.15706,1.88393 -2.76892,7.03613 -3.28103,8.06411l-1.29957,1.63413c0,0 -1.1714,1.3706 -2.68858,0.7891c-1.21188,1.17087 -2.53174,2.30309 -3.93564,3.44342l-2.67476,1.81343c0,0 -1.55442,1.05229 -2.88124,-0.01371c-1.57095,0.82309 -3.2683,1.48668 -5.11389,1.9688l-3.19992,0.80004c0,0 -2.42535,0.60638 -3.03173,-1.81896c-0.01972,-0.07888 -0.03624,-0.15583 -0.04973,-0.23091c-0.08444,0.06877 -0.13818,0.1046 -0.13818,0.1046c-1.02076,0.63755 -1.90263,1.59076 -3.06229,1.91265c-4.24863,1.17933 -8.37295,-0.88536 -12.08116,-2.48305c-2.80778,-1.20973 -5.41452,-1.87645 -8.14169,-3.26393c-0.89469,-0.45518 -2.04092,-0.42493 -2.81913,-1.05901c-0.43726,-0.35627 -3.26297,-4.6446 -3.76262,-5.39999c-2.39675,-3.6235 -4.10906,-7.62636 -3.60116,-12.09224c0.24849,-2.18489 1.33371,-4.21717 1.60001,-6.39996c0.2703,-2.21564 0.31183,-4.47488 0.84216,-6.64304c1.05801,-5.20762 0.92047,-10.84554 3.39332,-15.74992c1.77672,-3.52377 5.00599,-5.57165 7.51244,-8.48659c2.17671,-2.53146 3.32408,-6.41248 6.07156,-8.44314c1.53787,-1.13664 3.29191,-1.41797 5.04811,-1.10468c0.51354,-0.60241 1.2231,-0.83893 1.2231,-0.83893c1.92223,-0.61729 3.98735,-0.64108 5.99012,-0.896c1.40129,-0.17836 4.35251,-2.02183 5.18911,-2.29696c1.16767,-0.38401 2.52881,-0.0968 3.6317,-0.63952c2.37489,-1.16866 2.58364,-5.82286 6.88112,-4.12762c1.39388,0.54985 2.25581,5.23184 3.00824,6.97509c0.25163,0.58297 0.48439,1.17369 0.70297,1.77014c3.27798,-1.55684 7.24285,-2.53761 9.66926,-5.02954c2.13915,-2.19691 4.95894,-6.72904 8.58622,-7.06174c7.12051,-0.65311 8.34068,9.18464 7.59955,14.07831c-0.97365,6.42901 -6.79988,11.12506 -12.97867,12.1331c0.27699,0.69387 0.19166,1.37655 0.19166,1.37655zM154.67611,224.84457c5.3122,-1.06242 9.66444,-2.40682 14.62332,-4.60941l3.14894,-1.57522c0,0 1.14983,-0.57492 2.21269,-0.07569c0.56352,-0.73136 1.10343,-1.49226 1.62522,-2.27495c0,0 1.38675,-2.08013 3.46688,-0.69338c0.0012,0.0008 0.0024,0.0016 0.0036,0.0024c0.56465,-0.98832 1.02935,-2.04419 1.37052,-3.1886c-0.32587,-0.92775 -0.79426,-1.81865 -1.13258,-2.74318c0,0 -0.73387,-2.20167 1.33381,-3.06953l-0.55265,-1.6927c1.28143,-0.42458 2.57544,-0.75118 3.87044,-1.06686c0.52487,-0.43953 1.11375,-0.58676 1.11375,-0.58676l3.1074,-0.775c0.59388,-0.19817 1.18461,-0.40552 1.77297,-0.61961c0.69731,-1.08007 2.12603,-1.08007 2.12603,-1.08007l0.596,0.04477c0.55937,-0.21995 1.11764,-0.44266 1.67549,-0.66595c0,0 0.69073,-0.27629 1.46932,-0.15063c2.21857,-0.92777 3.60362,-2.38526 4.2338,-5.33451c0,0 0.51631,-2.06529 2.50186,-1.90777c0.09383,-0.2419 0.20949,-0.48252 0.31668,-0.72409c-0.51945,-0.73651 -0.492,-1.6379 -0.492,-1.6379l0.05394,-1.70308c-0.23542,-0.42801 -0.4827,-0.85272 -0.67628,-1.29239c0,0 -0.92846,-2.3212 1.39274,-3.24966c0.11402,-0.04561 0.22468,-0.08337 0.33203,-0.11396c-0.00107,-0.16342 -0.0199,-0.32688 -0.06094,-0.49041c-0.52991,-2.11117 -3.67413,-0.47297 -4.33632,-0.24906c0,0 -0.44531,0.11133 -1.002,0.04777l-2.59296,0.61315c-4.17126,2.84819 -6.63919,6.66772 -9.41741,10.60913c0.47984,0.59327 0.93976,1.61093 0.0862,2.8913c-1.38673,2.08014 -3.46687,0.69342 -3.46687,0.69342l-0.49964,-0.34291c-0.37465,-0.05316 -0.78254,-0.21387 -1.21368,-0.53722c-0.25456,-0.19092 -0.45242,-0.38995 -0.60389,-0.59191c-1.65544,-0.41419 -3.1958,-0.63021 -4.74906,-0.55058c-0.73634,0.84251 -1.94703,0.84251 -1.94703,0.84251l0.31803,-0.26392c-3.16451,1.54221 -6.04503,3.8498 -8.07808,6.8362c-0.9246,1.35818 -1.23836,3.06641 -2.1379,4.44132c-0.81307,1.24274 -2.36245,1.97415 -2.95139,3.33747c-0.41673,0.96466 0.09955,2.09929 0.14932,3.14894c0,0 0,2.5 -2.5,2.5c-2.5,0 -2.5,-2.5 -2.5,-2.5c0.04977,-1.61702 -0.4404,-3.34459 0.14932,-4.85106c0.67415,-1.72215 2.45748,-2.78452 3.45046,-4.34474c0.03617,-0.05682 0.07144,-0.11415 0.10591,-0.17195c-3.22714,2.62135 -8.39465,3.49416 -11.46746,0.99583c-4.21707,-3.42866 -4.20187,-9.87011 -4.23824,-14.82809v-2.92723c-0.54767,-0.55577 -0.72534,-1.26643 -0.72534,-1.26643c-0.1193,-0.53338 -0.2386,-1.06675 -0.3579,-1.60013c-0.06707,-0.03839 -0.13491,-0.08035 -0.20351,-0.12609c-2.08012,-1.38676 -0.69337,-3.46688 -0.69337,-3.46688l1.5785,-2.36773c0.44514,-0.68925 1.2201,-1.14551 2.10163,-1.14551c1.38071,0 2.5,1.11929 2.5,2.5c0,0.29692 -0.05176,0.58174 -0.14675,0.84595l-0.60611,1.81828c0.22607,0.77646 0.45214,1.55293 0.67821,2.32939c0,0 0.02566,0.10263 0.04531,0.27096c0.82933,0.73738 0.82933,1.9354 0.82933,1.9354v3.20001c-0.01808,2.01608 0.49775,4.00156 0.76774,5.99956c0.22193,1.64233 0.15513,3.67161 1.39405,4.77232c0.87286,0.77549 6.74811,-0.0997 6.44308,-1.81654c-0.09307,-0.52386 -0.81096,-0.69781 -1.14571,-1.11137c-0.90833,-1.12221 -1.88181,-2.21649 -2.57361,-3.4837c-1.41752,-2.59656 -1.05979,-3.8894 -1.08553,-6.76029c0,-4.52306 -0.55075,-9.42814 0.01873,-13.90543c0.12223,-0.96096 0.72707,-1.83153 0.7831,-2.79862c0.13351,-2.30427 -3.87392,-5.04573 -5.09655,-5.89989c-0.5476,-0.38257 -1.53039,-0.82215 -2.14354,-0.16795c-2.0668,2.2052 -3.17005,5.26577 -5.12839,7.55686c-2.11897,2.47902 -5.3995,4.50038 -6.88758,7.51341c-2.22982,4.51488 -2.06036,9.8533 -3.00671,14.6501c-0.51335,2.00309 -0.49582,4.10585 -0.75781,6.15701c-0.27861,2.18126 -1.29409,4.22237 -1.60001,6.39997c-0.44321,3.15491 1.10752,6.19302 2.79887,8.7078c0.92258,1.37174 1.33107,3.18683 2.63735,4.19998c0.54087,0.4195 1.36606,0.24019 1.98092,0.54097c0.8353,0.40861 1.4593,1.19093 2.31301,1.55954c1.76425,0.76177 3.77759,0.82285 5.54531,1.57655c2.67426,1.14022 5.18731,2.56983 7.72709,2.20068c-0.0154,-1.93417 2.02591,-2.34243 2.02591,-2.34243zM163.06641,178.49601v-2.62363c-0.56211,-0.32897 -1.14246,-0.62873 -1.73815,-0.88994c-0.56231,0.37071 -1.63692,0.83293 -2.76174,0.00044c-0.05151,0.20461 -0.09329,0.41055 -0.11885,0.6186c-0.52555,4.27733 0.01873,8.97264 0.01873,13.29452c-0.01799,1.56038 -0.34032,3.03531 0.51444,4.43978c0.68379,1.12354 3.98848,4.73801 4.26343,6.3632c1.76239,-2.27984 3.86818,-4.15821 6.21992,-5.7075c0.12158,-0.71584 0.5808,-1.1925 0.99298,-1.48496c-5.51701,-3.29484 -7.3576,-7.80218 -7.39077,-14.01052zM161.55702,169.72432c1.90192,0.65037 3.71602,1.58813 5.39612,2.69155c0,0 1.52572,1.01712 1.09273,2.61584c0.02054,0.16252 0.02054,0.26432 0.02054,0.26432v3.19998c-0.02876,4.44508 0.91768,7.42301 5.06024,9.78558c3.26907,1.86441 11.8007,3.05491 9.39399,-3.08719c-0.90714,-1.39919 -2.5656,-2.15894 -3.62841,-3.44388c-1.53238,-1.85264 -2.6651,-4.03325 -3.61211,-6.24315c-1.5206,-3.54838 -1.90001,-7.73098 -3.25844,-11.344c-0.23239,-0.61809 -1.99219,-3.17439 -2.43729,-5.14091c-0.58316,0.67781 -1.25518,1.28128 -2.03836,1.67773c-1.33017,0.67334 -2.95571,0.48371 -4.3683,0.96051c-2.05642,0.69412 -3.8663,2.1693 -6.0109,2.50303c-0.62761,0.09767 -1.26742,0.14091 -1.90688,0.18394c1.92277,1.85274 3.37611,4.1951 3.84619,6.40118zM179.16639,169.59602l3.60047,0.03228c5.43386,1.81131 10.64246,-0.57622 13.35374,-5.83063c1.22468,-2.37341 0.54207,-6.02179 -0.07903,-8.38233c-0.17991,-0.68375 -0.70377,-1.94282 -1.34333,-1.64144c-2.57556,1.2137 -3.90226,3.86921 -5.81381,5.73824c-3.16157,3.09126 -7.85903,3.97386 -11.58724,6.19313c0.38501,1.33654 0.7614,2.675 1.17791,3.99443c0.39173,-0.1037 0.69129,-0.1037 0.69129,-0.1037z" fill="#293e40" stroke-width="0.5"></path>
        <path d="M183.92902,175.76094c-0.12539,1.03578 -0.23129,2.14597 -0.28253,3.19173c-1.19182,-1.32058 -2.39987,-2.7353 -3.29778,-4.40858l1.61106,-0.02999c0.69251,0.23084 1.44658,0.41594 2.16791,0.5261c-0.16498,0.39418 -0.19866,0.72075 -0.19866,0.72075z" fill="#a2f9ff" stroke-width="0.25"></path>
        <path d="M179.13044,169.63074c0,0 -0.30076,-0.00128 -0.69249,0.10242c-0.41651,-1.31943 -0.80246,-2.6735 -1.18747,-4.01004c3.72821,-2.21927 8.50223,-3.15984 11.6638,-6.2511c1.91155,-1.86903 3.24249,-4.521 5.81805,-5.7347c0.63956,-0.30138 1.16971,0.96478 1.34962,1.64853c0.6211,2.36054 1.31234,6.04823 0.08766,8.42164c-2.71128,5.25441 -7.99332,7.67574 -13.42719,5.86443l-3.612,-0.04116z" fill="#a2f9ff" stroke-width="0.25"></path>
        <path d="M159.05918,170.73168c-0.47008,-2.20608 -1.91691,-4.56066 -3.83969,-6.4134c0.63946,-0.04303 1.28177,-0.08944 1.90938,-0.18711c2.1446,-0.33373 3.97135,-1.8217 6.02777,-2.51582c1.41259,-0.4768 3.05357,-0.29151 4.38374,-0.96485c0.78318,-0.39645 1.46241,-1.00021 2.04557,-1.67802c0.4451,1.96652 2.21704,4.52472 2.44943,5.14281c1.35843,3.61302 1.77335,7.8525 3.29395,11.40088c0.94701,2.2099 2.0705,4.41172 3.60288,6.26436c1.06281,1.28494 2.72024,2.04601 3.62738,3.4452c2.40671,6.1421 -6.14996,4.96829 -9.41903,3.10388c-4.14256,-2.36257 -5.11518,-5.34005 -5.08642,-9.78513l-0.0256,-3.21579c0,0 -0.0051,-0.10888 -0.02564,-0.2714c0.43299,-1.59872 -1.01307,-2.60747 -1.01307,-2.60747c-1.6801,-1.10342 -3.48841,-2.04878 -5.39033,-2.69915z" fill="#a2f9ff" stroke-width="0.25"></path>
        <path d="M163.05928,178.4465c0.03317,6.20834 1.91909,10.79743 7.4361,14.09227c-0.41218,0.29246 -0.87909,0.77647 -1.00066,1.49231c-2.35174,1.54929 -4.49246,3.43787 -6.25485,5.71771c-0.27495,-1.62519 -3.60855,-5.25219 -4.29234,-6.37573c-0.85476,-1.40447 -0.54745,-2.90388 -0.52946,-4.46426c0,-4.32188 -0.51837,-9.07468 0.00718,-13.35201c0.02556,-0.20805 0.0686,-0.4146 0.12011,-0.61921c1.12482,0.83249 2.20875,0.367 2.77106,-0.00371c0.59569,0.26121 1.18236,0.55985 1.74447,0.88882l0.01263,2.72282z" fill="#a2f9ff" stroke-width="0.25"></path>
      </g>
      <g>
        <path d="M343.32917,169.69955c0,0 0.12859,-0.11499 0.20511,-0.20905c0.39567,-0.21567 0.56131,-0.39494 0.56131,-0.39494l0.8,-0.79992c0.4693,-0.4693 0.93869,-0.9385 1.40799,-1.4078c0.04936,0.0374 0.17845,0.00981 0.23333,0.04463c-0.32872,0.75792 -0.19745,1.5433 -0.19745,1.5433c1.11955,6.65533 3.36486,13.17133 3.88778,19.94458c0.78498,10.1677 -0.58295,19.66427 -3.03638,29.47367c-0.92635,3.70376 -1.55779,8.09357 -3.06298,11.6054c-0.80201,1.87122 -2.1345,3.47985 -3.04224,5.30213c-4.34012,5.75544 -9.48733,11.47159 -15.84534,15.11654c-3.72711,2.1367 -8.16653,3.57556 -12.29197,4.60576c-5.1834,1.29439 -10.21076,3.40292 -15.58088,3.93016c-3.19562,0.31375 -6.52041,-0.38808 -9.70992,0.01063c-0.99164,0.12396 -1.89816,0.78102 -2.89752,0.78102c-0.99937,0 -1.90305,-0.68478 -2.8977,-0.78184c-1.76014,-0.17173 -3.5423,-0.01384 -5.31079,-0.02008c-4.40575,0.03062 -8.5641,-1.46235 -12.83731,-2.33845c-1.62158,-0.33245 -3.31277,-0.30544 -4.92001,-0.70143c-6.10469,-1.50408 -11.54218,-5.3717 -16.75453,-8.60596c-0.9144,-0.56738 -2.09173,-0.70019 -2.91376,-1.39467c-2.30661,-1.94868 -2.8127,-4.84166 -4.19064,-7.24691c-0.63754,-1.11285 -1.80342,-1.89505 -2.33336,-3.06297c-3.26312,-7.19144 -0.57899,-15.98238 -0.61777,-23.398c1.08569,-3.09972 1.15268,-6.15798 2.03051,-9.16157c4.18503,1.24406 8.64336,1.90972 13.06714,2.15195c2.07159,0.71762 4.29216,1.0729 6.46914,1.10474l0.71716,0.01926c-0.00557,0.66443 0.06779,1.3038 0.37721,1.87727c0.06815,0.1263 0.17279,0.26726 0.30874,0.41986c0.16133,0.5483 0.35954,1.07384 0.70897,1.51549c1.4691,1.85685 8.46682,6.33704 10.88839,4.8066c0.56161,-0.35493 1.10556,-0.84055 1.57395,-1.40771c0.51516,1.39901 2.22096,2.01325 3.46934,2.83377c3.08785,2.02953 3.62295,1.67335 6.95202,2.62488c4.30887,1.23159 7.46173,3.01333 11.86973,3.24598c1.15852,0.75905 2.23681,1.45398 2.4488,1.51796c1.12484,0.33945 2.34723,-0.08685 3.51025,0.0801c3.81762,0.54803 6.19866,2.16952 10.38483,1.61404c2.01274,-0.26708 3.67779,-1.70072 5.4922,-2.61196c0.82593,-0.4148 1.84383,-0.40572 2.61459,-0.91575c0.9435,-0.62434 1.4575,-1.76645 2.39847,-2.3946c0.76727,-0.51219 1.88977,-0.3518 2.60262,-0.93738c0.93471,-0.76783 1.40576,-1.96345 2.12279,-2.93767c2.10886,-2.86532 3.7716,-5.53943 5.12753,-8.53203c0.01071,0.00009 0.02147,0.00013 0.03228,0.00013c2.5,0 2.50051,-2.49752 2.50051,-2.49752l-0.0339,-0.38856c0.86149,-5.38276 0.24931,-9.19619 -0.80837,-14.48643c0,0 -0.39113,-1.96192 -2.23225,-2.02185c-0.26571,-1.3163 -0.52879,-2.593 -1.04697,-3.91027c-0.14995,-1.46406 -0.45852,-2.7561 -0.87983,-4.14826c2.233,-1.61414 4.56065,-3.04664 6.79239,-4.57223c0.08878,0.4922 0.14978,1.01663 0.17744,1.57361c1.9398,-0.58126 3.88596,-1.14737 5.84296,-1.68108l2.0605,-0.97548c0,0 0.08913,-0.04453 0.22288,-0.13364c2.21927,-0.06538 2.30257,-2.09573 2.31423,-2.39886c0.42289,-0.4229 0.84587,-0.84568 1.26876,-1.26858z" fill="#a2f9ff" stroke-width="0.5"></path>
        <path d="M331.68787,244.6708c-0.95639,0.68751 -2.08921,1.20473 -3.02595,1.91586c-1.55254,1.17861 -3.07142,2.35202 -4.59705,3.51234c-1.08489,1.07527 -2.18141,2.13493 -3.2845,3.18026l-0.06797,0.02858l0.0149,0.01762l-3.10111,2.62345c-0.43716,0.37473 -1.00523,0.60111 -1.62618,0.60111c-0.43487,0 -0.8438,-0.11103 -1.2,-0.30629c-0.3562,0.19526 -0.76513,0.30629 -1.2,0.30629c-0.66985,0 -1.27817,-0.26345 -1.727,-0.69238c-1.05288,0.3946 -2.12279,0.73239 -3.2115,0.99923c-0.49594,0.12155 -1.26015,0.30713 -2.16555,0.47879c-1.92078,0.72683 -3.76269,1.35812 -4.43908,1.57593c-8.05855,2.595 -17.31934,3.80044 -25.81222,3.23361c-4.66449,-0.31131 -9.3191,-1.81522 -13.86971,-2.83053l-2.69211,-0.38458c-1.23096,-0.15585 -2.18284,-1.2068 -2.18284,-2.48007c0,-0.71511 0.30025,-1.36009 0.78155,-1.81576c-6.99821,-1.169 -13.76101,-2.34959 -20.19961,-5.54817c0,0 -2.23607,-1.11803 -1.11803,-3.3541c1.11803,-2.23607 3.3541,-1.11803 3.3541,-1.11803c6.38863,3.21734 13.24181,4.15973 20.23659,5.33065c4.76115,0.79701 8.8076,1.61555 13.64538,1.60541h2.20001c0,0 0.75474,0 1.43483,0.41469c5.86842,-0.69578 11.55517,-2.42757 17.12884,-4.6748c-0.24197,-0.42372 -0.36382,-0.98678 -0.21514,-1.73019c0.49029,-2.45145 2.94174,-1.96116 2.94174,-1.96116c1.05929,0.25786 2.1,0.93721 3.17788,0.77357c0.67824,-0.10297 1.32719,-0.30366 1.95467,-0.57086c0.29898,-0.14284 0.59772,-0.28648 0.89624,-0.43083c1.56503,-0.83386 3.01325,-2.00781 4.47805,-2.99106c4.79094,-3.21593 9.25901,-7.2312 13.43995,-11.43607c0.55421,-0.81147 1.12461,-1.61182 1.70374,-2.40373l1.44318,-1.96797c0,0 0.76522,-1.04349 1.94533,-1.07847c2.59392,-3.46524 4.92153,-7.11702 7.07799,-10.8722c-1.41238,-1.28824 -0.35103,-3.05716 -0.35103,-3.05716c5.04892,-8.39784 8.1506,-17.84049 10.51836,-27.32009l0.3739,-1.88395c0,0 0.07183,-0.35917 0.29799,-0.77505c-0.32758,-2.61096 -0.71397,-5.13779 -1.11251,-7.52369c0,0 -0.41099,-2.46599 2.05499,-2.87698c2.46599,-0.41099 2.87698,2.05499 2.87698,2.05499c1.76891,10.63655 3.1049,23.3581 0.92174,34.6622l0.29696,2.67272l-0.0457,0.00508c0.02271,0.11228 0.0428,0.22529 0.06006,0.3391c0.26266,1.73262 -1.74858,8.68468 -2.25131,10.29591c-2.28737,7.33094 -5.42543,14.30234 -8.50444,21.32291l-0.29383,0.19267l0.10268,0.08214l-1.58558,1.98197c-0.45772,0.5823 -1.16848,0.95629 -1.9666,0.95629c-0.50291,0 -0.97113,-0.14849 -1.36321,-0.40403c-0.28889,0.31272 -0.65663,0.5515 -1.07166,0.68477c-0.34962,0.2242 -0.71007,0.43597 -1.07726,0.64005zM329.46026,228.14588c-0.32505,0.4141 -0.65401,0.82546 -0.98704,1.23392c0.08358,-0.07427 0.16721,-0.14842 0.25089,-0.22247c0.24631,-0.33648 0.49178,-0.67356 0.73615,-1.01145zM326.75329,230.86225c-0.25931,0.26739 -0.51969,0.53435 -0.78116,0.80073c0.30578,-0.28821 0.61377,-0.57452 0.92345,-0.85905c-0.04618,0.02055 -0.09363,0.04008 -0.14229,0.05833zM331.96069,233.59386c-0.02905,-0.03807 -0.05637,-0.07664 -0.08205,-0.1156c-0.54731,0.81162 -1.10067,1.63574 -1.66329,2.456c0.60058,-0.74906 1.18932,-1.50625 1.76479,-2.27186c-0.0069,-0.02286 -0.01338,-0.04571 -0.01945,-0.06854zM334.31343,221.36048c-0.18809,0.28727 -0.37751,0.57366 -0.5683,0.85913c0.00339,0.04871 0.00502,0.09696 0.00504,0.14469l0.41538,-0.41539c0.04952,-0.19609 0.09881,-0.39224 0.14787,-0.58844z" fill="#75b3b7" stroke-width="0.5"></path>
        <path d="M342.09909,170.93644c-0.01166,0.30313 -0.17251,2.39661 -2.39178,2.46199c-0.13374,0.08911 -0.22286,0.13367 -0.22286,0.13367l-2.06022,0.97583c-1.957,0.53372 -3.90173,1.10149 -5.84153,1.68275c-0.02766,-0.55698 -0.08788,-1.08057 -0.17666,-1.57277c-2.23174,1.52559 -4.48765,2.88845 -6.72065,4.50259c0.42131,1.39216 0.73252,2.68705 0.88247,4.15111c0.51818,1.31727 0.78381,2.59723 1.04952,3.91353c1.84112,0.05993 2.23407,2.02457 2.23407,2.02457c1.05768,5.29024 1.67608,9.11853 0.81459,14.50129l0.03401,0.38903c0,0 0,2.5 -2.5,2.5c-0.01081,0 -0.02157,-0.00005 -0.03228,-0.00014c-1.35593,2.99259 -3.01802,5.67876 -5.12688,8.54408c-0.71703,0.97422 -1.1887,2.17501 -2.12341,2.94284c-0.71285,0.58558 -1.83584,0.42765 -2.60311,0.93984c-0.94097,0.62815 -1.45651,1.77565 -2.40001,2.39999c-0.77076,0.51003 -1.78999,0.50438 -2.61592,0.91918c-1.81441,0.91125 -3.48521,2.35487 -5.49795,2.62195c-4.18617,0.55548 -6.58328,-1.052 -10.4009,-1.60003c-1.16302,-0.16695 -2.3992,0.26446 -3.52404,-0.07499c-0.21199,-0.06397 -1.3023,-0.75786 -2.46082,-1.51691c-4.40801,-0.23265 -7.60477,-2.04391 -11.91364,-3.2755c-3.32907,-0.95153 -3.86801,-0.60848 -6.95586,-2.63801c-1.24838,-0.82052 -2.95471,-1.44209 -3.46987,-2.8411c-0.46839,0.56716 -1.01226,1.05569 -1.57387,1.41062c-2.42157,1.53044 -9.41914,-2.95748 -10.88824,-4.81433c-0.34943,-0.44165 -0.54741,-0.96917 -0.70874,-1.51747c-0.13595,-0.1526 -0.24052,-0.29407 -0.30867,-0.42037c-0.30942,-0.57347 -0.38236,-1.21523 -0.37679,-1.87966h-0.61904c-2.17698,-0.03183 -4.39751,-0.38728 -6.4691,-1.1049c-4.42378,-0.24223 -8.88206,-0.90818 -13.06709,-2.15224c-0.87783,3.00359 -0.944,6.05389 -2.02969,9.15361c0.03878,7.41562 -2.64859,16.18768 0.61453,23.37912c0.52994,1.16792 1.69467,1.94733 2.33221,3.06018c1.37794,2.40525 1.88079,5.29219 4.1874,7.24087c0.82203,0.69448 1.99809,0.82536 2.91249,1.39274c5.21235,3.23426 10.63884,7.09045 16.74353,8.59453c1.60724,0.39599 3.2949,0.36655 4.91648,0.699c4.27322,0.8761 8.4199,2.36371 12.82565,2.33309c1.76849,0.00624 3.54533,-0.153 5.30547,0.01873c0.99465,0.09705 1.89516,0.78132 2.89453,0.78132c0.99936,0 1.90284,-0.65735 2.89448,-0.78131c3.18951,-0.39871 6.5037,0.30353 9.69932,-0.01022c5.37012,-0.52724 10.38111,-2.63037 15.56451,-3.92476c4.12544,-1.0302 8.55431,-2.4615 12.28142,-4.5982c6.35801,-3.64495 11.49349,-9.34443 15.83361,-15.09987c0.90774,-1.82228 2.23834,-3.42581 3.04035,-5.29703c1.50519,-3.51183 2.13459,-7.89119 3.06094,-11.59495c2.45343,-9.8094 3.82497,-19.28258 3.03999,-29.45028c-0.52292,-6.77325 -2.76105,-13.27709 -3.8806,-19.93242c0,0 -0.1308,-0.7848 0.19792,-1.54272c-0.05488,-0.03482 -0.10694,-0.071 -0.1563,-0.1084c-0.4693,0.4693 -0.93861,0.9386 -1.40791,1.4079l-0.79995,0.79998c0,0 -0.24283,0.24284 -0.6385,0.45851c-0.07652,0.09405 -0.12793,0.14546 -0.12793,0.14546c-0.42289,0.4229 -0.84579,0.84579 -1.26868,1.26868zM337.83224,168.13223c0.66667,-0.66666 1.33333,-1.33334 2,-2c0,0 0.24282,-0.24282 0.63847,-0.45848c0.0765,-0.09403 0.12789,-0.14542 0.12789,-0.14542l0.80003,-0.80006c1.06667,-1.06666 2.13334,-2.13332 3.20001,-3.19998c0,0 0.76842,-0.76842 1.79864,-0.78538c1.32376,-6.12607 1.79178,-13.15626 -0.00516,-19.06411c-0.74228,-2.4404 -1.81958,-4.74151 -3.09845,-6.93083c-0.01367,0.43902 -0.03054,0.8436 -0.03958,1.19409c0.02699,0.35583 0.0039,0.82343 -0.19572,1.2726c-1.32323,5.97213 -1.26243,12.0693 -4.07939,17.64527c-1.73193,3.42823 -2.39347,2.88768 -5.07924,6.02109c-0.89915,1.04902 -1.83509,2.07091 -2.71387,3.137c0.60379,1.42791 -0.6181,2.64979 -0.6181,2.64979v-0.00003c-1.6,1.59998 -3.19998,3.19997 -4.79995,4.79998l-0.80003,0.8c-0.53334,0.53334 -1.06667,1.06667 -1.60001,1.60001l-0.29285,0.29286c2.7437,-1.85584 5.49828,-3.46871 8.16335,-5.61279c0,0 1.95217,-1.56174 3.51391,0.39043c0.27043,0.33804 0.4355,0.66437 0.52359,0.97291c0.27756,-0.07566 0.55518,-0.15133 0.83287,-0.22707l1.13973,-0.62414c0,0 0.14357,-0.07179 0.37615,-0.1426zM320.63226,169.5322l0.79998,-0.79995c0.53334,-0.53334 1.06667,-1.06667 1.60001,-1.60001c0,0 0.00041,-0.00041 0.00124,-0.00122c1.09595,-1.09597 2.1919,-2.19193 3.28786,-3.28788c-0.16169,-0.31851 -0.34382,-0.63671 -0.54899,-0.94944c0.0512,-0.08898 0.10618,-0.17564 0.16589,-0.25943c1.23867,-1.73832 2.70564,-3.30255 4.09475,-4.92318c1.96559,-2.29319 3.30637,-2.71691 4.52086,-5.17892c2.5318,-5.13247 2.30434,-10.82938 3.62657,-16.32014l-0.1569,-0.49464c-0.38406,-1.22255 -0.81675,-2.43917 -1.28957,-3.64854c-0.77171,0.39735 -1.54835,0.94031 -2.36756,0.92718c-0.74928,-0.01201 -4.49878,-1.41435 -5.49896,-1.69968c-2.3363,-0.66649 -3.66172,-0.75671 -5.85777,-1.69061c-10.67328,-4.53891 -20.50304,-11.05582 -31.74643,-14.31061c-3.13021,-0.90615 -6.50543,-0.72979 -9.64225,-1.6128c-1.09221,-0.30746 -1.92118,-1.30776 -3.02898,-1.55317c-2.1406,-0.4742 -4.43724,-0.16186 -6.52456,-0.83281c-1.6806,-0.42222 -4.10716,-1.77942 -6.2679,-2.32917c-0.09346,0.22918 -0.18069,0.46875 -0.26145,0.71942c0,0 -0.79055,2.37171 -3.16227,1.58116c-0.88047,-0.29348 -1.32512,-0.80488 -1.5362,-1.33194c-4.03348,2.51342 -5.67032,7.48793 -6.49913,11.99298c-1.21136,6.58448 -1.09057,13.6989 -0.29915,20.43863c1.19067,-0.17091 2.1264,0.76481 2.1264,0.76481c0.28877,0.28979 0.57251,0.5821 0.85222,0.87645c0.50394,0.07099 0.8645,0.25128 0.8645,0.25128l3.54368,1.80796c1.80423,1.77847 3.85436,3.2889 5.77627,4.9395c3.1213,2.68067 5.63192,6.07044 8.74694,8.75526c0.03681,0.03172 0.07378,0.06322 0.11092,0.0945c1.23879,0.37146 2.48953,0.7046 3.74409,1.01747l0.19366,-0.07464c0,0 0.70641,0 1.36822,0.3755c0.25577,-0.44808 0.51368,-0.8943 0.87499,-1.25415c0.67764,-0.67493 1.71021,-0.91532 2.38899,-1.5891c0.75861,-0.75302 0.92454,-2.0847 1.85032,-2.61899c1.40693,-0.81197 3.14288,-1.52969 4.72876,-1.17794c1.14466,0.25389 1.25705,2.06514 2.22884,2.72114c2.71041,1.82964 6.29285,0.20499 8.48835,3.59712c0.27862,-0.05358 0.4715,-0.05358 0.4715,-0.05358c2.5451,0 9.97365,-1.12826 11.62814,1.83825c1.01956,1.82808 0.31459,4.17451 0.47189,6.26176v1.66487c0.64278,0.21477 2.33134,0.77883 3.82193,1.27767l1.51027,-1.51029c0.26595,-0.26595 0.53189,-0.53189 0.79784,-0.79784c0.00144,-0.00148 0.00219,-0.00222 0.00219,-0.00222zM272.80945,164.07174c0,0 -1.58114,-0.52703 -1.73111,-2.01145c-1.19475,-1.17535 -2.32468,-2.42625 -3.47207,-3.65646c-0.07117,0.08784 -0.15045,0.1759 -0.23851,0.26396c-1.76778,1.76776 -3.53553,-0.00002 -3.53553,-0.00002l-2.86442,-2.86446c-2.1447,-2.14992 -4.00667,-4.43535 -5.99244,-6.64977c0.13163,0.91903 0.27934,1.90769 0.42742,2.79608c0.4794,0.03968 1.00537,0.25265 1.53134,0.7786c1.7678,1.76773 0.00007,3.53553 0.00007,3.53553l-0.19653,0.18859c0.55924,1.2079 1.17726,2.39336 1.60044,3.65315c0,0 0.79055,2.37171 -1.58116,3.16227c-2.37171,0.79055 -3.16227,-1.58116 -3.16227,-1.58116c-0.0994,-0.3009 -0.2108,-0.59726 -0.33042,-0.8905c-1.83672,2.30838 -3.78802,4.48155 -6.33505,6.19586c-6.49996,4.37489 -14.24344,6.92063 -22.02636,8.68435c1.16703,0.99677 2.22905,2.17094 3.5779,3.09311c3.51856,2.40554 8.85749,2.74008 12.86964,3.41339c3.43273,0.57607 6.30676,1.95183 9.61867,2.68695c1.64087,0.36421 3.36157,0.36246 4.97047,0.84881c0.5139,0.15535 0.94609,0.31343 1.32005,0.47264c-0.0994,0.09481 -0.19451,0.19375 -0.28609,0.29607c0.35951,-0.08727 0.62653,-0.08727 0.62653,-0.08727h0.86671c0.82609,-2.23765 3.12388,-1.47171 3.12388,-1.47171c0.44466,0.14822 0.88933,0.29645 1.33399,0.44467c0.31876,-0.74639 0.69727,-1.49085 0.90765,-2.24073c1.02572,-0.40838 2.22064,-0.78673 3.49533,-1.06893c-1.72355,-2.06318 -2.59034,-4.61137 -1.51907,-7.1663c1.51249,-3.60722 6.74381,-0.94186 7.81366,-5.16304c-0.72593,-1.76937 0.99109,-2.91407 0.99109,-2.91407c0.72083,-0.47968 1.51052,-0.99215 2.29864,-1.52944c-1.37851,-0.36876 -2.74891,-0.7686 -4.10245,-1.21871zM259.88839,205.90913c1.39272,0.58916 3.96867,1.16882 4.5121,1.32317c1.501,0.42633 3.99333,-0.21964 4.80749,0.88463c0.18246,-0.53674 0.30527,-1.07611 0.29205,-1.61692c-0.01985,-0.81255 -0.80072,-1.49126 -0.79815,-2.30405c0.00176,-0.55586 0.1385,-1.09488 0.3015,-1.63145l-0.51307,-0.01304c-2.82319,0.56462 -5.63325,1.10357 -8.45695,1.58879c0.24179,0.68218 0.07969,1.30973 -0.14497,1.76887zM259.3937,198.47464c2.4045,-0.60058 4.82763,-1.12768 7.25787,-1.61374l3.14209,-0.78625c0,0 0.17926,-0.04481 0.45249,-0.06134c0.05107,-0.12141 0.08109,-0.24743 0.07599,-0.38148c-0.05281,-1.38935 -2.30676,-1.58094 -3.28989,-2.56407c-0.27732,-0.27732 -0.48583,-0.61044 -0.6799,-0.95553c-0.22152,0.05616 -0.47111,0.08779 -0.75234,0.08779c-1.36354,0 -1.98338,-0.74369 -2.26515,-1.41984c-0.00349,-0.00116 -0.00697,-0.00232 -0.01046,-0.00349c-0.73405,0.62331 -1.72439,0.62331 -1.72439,0.62331h-4c0,0 -2.32821,0 -2.49104,-2.24679c-0.1793,0.23816 -0.3701,0.46579 -0.58002,0.67572c-0.18427,0.18427 -0.38406,0.35237 -0.5936,0.51015c-8.37071,-2.42393 -17.05001,-3.16838 -25.22883,-6.29559c-0.94386,-0.36089 -2.00882,-0.46766 -2.85447,-1.02083c-1.31954,-0.86315 -3.72327,-4.53791 -5.88567,-4.42664c-0.61236,0.03151 -1.0971,0.59407 -1.701,0.70032c-0.63343,0.11144 -1.37239,-0.38491 -1.92848,-0.06178c-0.29621,0.17212 0.23902,0.64754 0.42222,0.93702c0.44444,0.70225 0.96868,1.3507 1.45302,2.02605c3.94489,11.83392 15.21886,16.32407 26.77811,17.37434c1.13642,-0.8037 2.52778,-0.10804 2.52778,-0.10804c1.52098,0.80328 3.27261,1.22054 5.00911,1.31688c0.63583,-0.62948 1.51933,-0.75569 1.51933,-0.75569c1.29869,-0.18533 2.59082,-0.38603 3.8791,-0.5992c0.56635,-0.72585 1.46815,-0.95129 1.46815,-0.95129zM288.80002,214.4c1.82612,0 2.31835,1.33389 2.45104,2.05299c0.15652,0.13554 0.31195,0.27319 0.46768,0.41001c0.54539,0.11312 1.37727,0.42931 1.76648,1.31316c0.266,0.13982 0.54416,0.25356 0.83926,0.33111c0.9275,0.24373 1.92654,-0.20996 2.87599,-0.07499c3.21289,0.45671 5.35716,1.98898 8.79905,1.60004c1.86707,-0.21098 2.3997,-1.33103 4.10214,-2.1781c0.68272,-0.33969 1.55111,-0.25549 2.18401,-0.68085c0.93901,-0.63109 1.45825,-1.77305 2.40004,-2.4c0.63648,-0.42371 1.59069,-0.19403 2.19681,-0.66013c0.56723,-0.4362 0.6713,-1.26749 1.07666,-1.85715c2.63173,-3.82829 4.60673,-6.95945 6.0691,-11.34663c0,0 0.29554,-0.88663 1.06733,-1.39499c0.01445,-0.41109 0.01738,-0.81476 0.00997,-1.21382c-0.86885,-0.5459 -1.13095,-1.59431 -1.13095,-1.59431l-0.75337,-3.03718c-0.55871,-1.43213 -1.37374,-2.78918 -1.67613,-4.2964c-0.06052,-0.30164 -0.07096,-0.60804 -0.05637,-0.91676l-0.75644,-2.35553c0,-0.10198 -0.00057,-0.20232 -0.00172,-0.30113c-2.43059,-0.04584 -2.43059,-2.49935 -2.43059,-2.49935l0.07464,-1.79366c-0.26666,-1.06666 -0.60532,-2.11787 -0.79999,-3.19998c-0.11953,-0.66444 0.3382,-1.54831 -0.12955,-2.02579c-0.00421,-0.0043 -0.00849,-0.00856 -0.01285,-0.01279c-0.51142,-0.49622 -1.43461,-0.01736 -2.13121,-0.16745c-0.10932,-0.02355 -0.21782,-0.05011 -0.32566,-0.07909c0.07535,0.35739 0.15819,0.71483 0.24998,1.07246l0.07464,2.2063c0,0 0,0.08649 -0.01609,0.22729l0.01609,0.57273c0,0 0,2.5 -2.5,2.5c-2.5,0 -2.5,-2.5 -2.5,-2.5l0.03401,-0.38903c-0.43505,-2.61706 -0.91432,-5.2313 -1.55935,-7.80466c0,0 -0.29834,-1.1934 0.36065,-2.11523c-0.11135,-0.94967 -0.23739,-1.90772 -0.40128,-2.8801c0,0 -0.05435,-0.3261 -0.00494,-0.76089c-0.92449,0.678 -2.13543,0.37526 -2.13543,0.37526l-1.70566,-0.72259c-0.09654,-0.00004 -0.19308,-0.00011 -0.28962,-0.00019c-0.41021,0.55507 -0.82043,1.11014 -1.23064,1.66521c0,0 -0.42212,0.42212 -1.06009,0.64755c-0.29759,1.386 -0.60625,2.72484 -0.60948,3.88874c-0.00206,0.7441 0.66659,1.35854 0.76955,2.09549c0.13269,0.94977 -0.31872,1.9485 -0.07499,2.87601c0.59498,2.26418 3.04058,4.38859 3.85306,6.82607c0.47811,0.70387 0.95621,1.40775 1.43432,2.11162l0.41987,3.78676c0,0 0,2.5 -2.5,2.5c-2.5,0 -2.5,-2.5 -2.5,-2.5l0.41987,-1.01329c-0.58855,-0.89612 -1.17709,-1.79224 -1.76564,-2.68836c-0.92526,-2.77583 -3.33417,-4.88058 -4.14694,-7.5739c-0.33945,-1.12484 0.09403,-2.3613 -0.07499,-3.52401c-0.13566,-0.93323 -0.8284,-1.76146 -0.83043,-2.7045c-0.00469,-2.18159 0.67535,-4.3178 0.79815,-6.49594c0.03831,-0.67956 0.54361,-1.38644 0.29582,-2.02036c-0.42467,-1.08645 -2.1785,-0.84075 -3.29478,-1.17934c-1.31019,-0.39741 -2.79776,-0.40366 -3.94115,-1.15677c-0.63874,-0.42072 -0.56392,-1.43148 -0.97124,-2.07885c-0.07599,-0.12077 -0.0028,0.29685 -0.07117,0.42209c-0.40963,0.75044 -0.74771,1.57396 -1.34976,2.181c-0.68061,0.68626 -1.72566,0.9293 -2.41093,1.61091c-0.6841,0.68044 -0.93553,1.71885 -1.62023,2.39868c-1.83077,1.81775 -3.65024,3.04694 -5.64266,4.36774c0.03169,0.58382 -0.12219,1.04546 -0.12219,1.04546c-0.83331,2.19901 -2.40651,4.33354 -4.47336,5.45523c-0.8384,0.45501 -1.7645,0.7841 -2.70782,0.9259c-0.35101,0.05277 -0.93987,-0.71867 -0.99902,-0.36868c-0.07394,0.43752 0.62816,0.6309 0.89476,0.9856c2.88433,3.83742 5.50676,3.80088 9.41531,1.16561l2.70783,-0.92594c0,0 0.72278,-0.24093 1.50333,-0.05778c-0.03331,-1.50042 -0.01274,-3.06407 -0.01274,-4.7705c0,0 0,-2.5 2.5,-2.5c2.5,0 2.5,2.5 2.5,2.5c0,0.09799 -0.00017,0.19544 -0.00049,0.29238c0.02762,3.37651 1.20396,6.1124 2.27217,9.31706l0.79999,2.39999c0,0 0.76696,2.30091 -1.47628,3.12555l0.0046,0.06501c0,0 0,2.5 -2.5,2.5c-2.5,0 -2.5,-2.5 -2.5,-2.5l0.1788,-0.67154c-0.69939,-1.7975 -1.12682,-3.45611 -1.38709,-5.08782c-0.17927,0.09045 -0.30112,0.13107 -0.30112,0.13107l-2.09222,0.6741c-1.28424,0.84713 -2.17237,1.54946 -3.22789,2.01843c0.09821,0.36149 0.20711,0.71777 0.37529,1.03739c1.12767,2.143 3.57456,5.25916 4.14695,7.57392c0.13148,0.53171 0.10727,6.71048 0.10727,7.92447l0.06775,-0.96778c0,0 1.76777,1.76777 0,3.53553c-1.76777,1.76777 -3.53553,0 -3.53553,0l-1.53222,-2.56775c0,-2.15882 0.63842,-4.3831 0.10727,-6.47556c-0.20448,-0.80554 -1.07602,-1.28543 -1.45304,-2.02608c-0.8115,-1.59419 -1.64535,-3.1781 -2.40001,-4.79997c-0.24754,-0.532 0.06341,-1.28815 -0.32198,-1.73062c-0.29374,-0.33725 -0.89391,-0.07378 -1.33122,-0.16748c-2.16431,-0.46371 -3.7173,-0.81011 -5.83181,-0.67317c0.3982,0.11646 0.89383,0.32196 1.0986,0.5051c0.71666,0.64096 0.92011,1.72013 1.59998,2.39999c1.69533,1.69533 4.20558,3.09206 4.71011,5.43593c0.22694,1.05431 -0.67352,2.06254 -0.81015,3.13231c-0.13112,1.02667 0.14733,2.07866 0.01355,3.10499c-0.12521,0.96058 -0.78653,1.82992 -0.7831,2.79862c0.00309,0.87385 0.81711,1.62221 0.80183,2.49594c-0.01881,1.07548 -0.52083,2.09226 -0.89969,3.09897c-0.2137,0.56783 -1.00701,1.00885 -0.86854,1.59955c0.10391,0.44325 0.90399,0.1612 1.32302,0.3392c0.9663,0.41047 1.82792,1.05329 2.81257,1.41754c2.97386,1.10014 6.26776,2.47364 9.53832,3.2459c0.19771,-0.73963 0.76523,-1.80118 2.3943,-1.80118zM351.23241,167.68503c1.12377,6.81164 3.39166,13.43254 3.93361,20.36708c0.83543,10.68979 -0.59601,20.73248 -3.17424,31.05026c-0.99586,3.98531 -1.71834,8.623 -3.33908,12.40505c-0.89178,2.08099 -2.34423,3.8794 -3.35967,5.90292c-4.85652,6.50657 -10.59863,12.81562 -17.76637,16.90013c-4.04802,2.30675 -8.84939,3.88319 -13.31855,5.00177c-5.48615,1.37313 -10.74879,3.49768 -16.43549,4.07524c-3.1253,0.31741 -6.38896,-0.39922 -9.50075,-0.01022c-1.19066,0.14884 -2.3055,0.81878 -3.50543,0.81878c-2.74632,0 -5.45372,-0.81101 -8.20002,-0.80005c-4.8287,-0.02736 -9.28921,-1.50599 -13.9744,-2.46684c-1.64382,-0.33712 -3.35638,-0.30312 -4.98302,-0.71519c-6.60653,-1.6736 -12.51094,-5.63935 -18.1569,-9.19134c-1.10825,-0.69722 -2.49807,-0.94973 -3.48754,-1.80721c-2.88083,-2.49657 -3.67734,-5.71487 -5.41258,-8.75913c-0.68548,-1.20258 -1.91384,-2.07132 -2.46784,-3.33985c-3.62555,-8.3017 -1.02677,-17.68461 -0.98544,-26.22086c1.10423,-3.43858 1.30781,-6.69458 2.27255,-10.0546c-7.10296,-3.09467 -12.92589,-8.2728 -15.65065,-16.44656c-1.42241,-2.25864 -3.32249,-4.28087 -1.90878,-7.23719c-0.32987,-0.31138 -0.59834,-0.77198 -0.71138,-1.45019c-0.41101,-2.46598 2.05498,-2.87699 2.05498,-2.87699c10.49218,-1.74874 21.97688,-4.01894 31.04823,-10.02992c2.83571,-1.87903 4.8231,-4.58832 6.83127,-7.26246c-0.62108,-2.3551 -1.16197,-6.94918 -1.44676,-8.81248c-1.27255,-8.32603 -1.68598,-17.39169 -0.16053,-25.72571c1.22191,-6.67565 3.25947,-11.1742 9.15199,-14.98358c1.0107,-0.65339 1.89889,-1.60462 3.06232,-1.91262c0.26181,-0.06931 0.52197,-0.12431 0.78063,-0.1663c0.39677,-0.66944 0.89174,-1.27562 1.54511,-1.76295c0.65603,-0.48932 9.02504,-3.96743 10.04306,-4.30115c10.32163,-3.38355 22.26214,-1.99001 32.76665,-0.24285l0.389,-0.03401c0,0 2.5,0 2.5,2.5c0,0.12041 -0.0058,0.23502 -0.01684,0.34411c1.05852,-0.82003 2.44532,-0.26531 2.44532,-0.26531c5.74552,2.29822 11.74408,3.63768 16.56093,7.51331l2.29736,1.52777c0,0 1.22706,0.81803 1.16801,2.13996c2.6398,3.00886 4.79371,6.56218 6.78456,9.84656l0.89676,1.77558c0,0 0.02938,0.05875 0.06908,0.16198c1.21202,-0.04938 2.04697,0.9943 2.04697,0.9943c3.80874,4.77104 7.45767,10.03198 9.22219,15.97903c2.23899,7.54617 1.50061,16.29692 -0.36167,23.83976l-0.38734,1.54932c0,0 -0.05168,0.20672 -0.18522,0.48437c0.84455,0.61017 1.0259,1.69827 1.0259,1.69827zM327.42267,114.18226c0,0 -0.22838,-0.38064 -0.33228,-0.91737c-0.88276,-0.85097 -1.82516,-1.61163 -2.8383,-2.24222c-2.98043,-1.85507 -6.76951,-2.51241 -10.01416,-3.80543c0,0 -1.09486,-0.43794 -1.47993,-1.4642c-0.85081,-0.29779 -1.69386,-0.60533 -2.52008,-0.93583c0,0 -1.93973,-0.7759 -1.56352,-2.68233c-0.69791,0.46114 -1.508,0.46114 -1.508,0.46114l-1.21098,-0.03401c-9.63595,-1.60937 -20.9006,-3.10238 -30.37555,0.05828c-2.40091,0.8009 -4.59955,1.38908 -6.3742,2.43533c1.4194,0.51896 2.83012,1.08454 4.25974,1.44012c1.98992,0.69369 4.21847,0.30877 6.27537,0.76716c1.22066,0.27203 2.16825,1.30436 3.37105,1.64684c3.10607,0.88443 6.4535,0.69625 9.5577,1.58721c11.42196,3.27829 21.45035,9.8192 32.25357,14.48938c1.64559,0.71138 3.66416,1.02922 5.3423,1.50941c1.39944,0.40044 2.64592,1.53898 4.10101,1.50027c0.19798,-0.00527 0.39861,-0.02104 0.60122,-0.04476c-2.21059,-4.75737 -4.90622,-9.37505 -7.54495,-13.76899z" fill="#000000" stroke-width="0.5"></path>
        <path d="M327.47268,114.18187c2.63873,4.39394 5.33058,9.03109 7.54117,13.78846c-0.20261,0.02372 -0.40339,0.03985 -0.60137,0.04512c-1.45509,0.03871 -2.70171,-1.09951 -4.10115,-1.49995c-1.67814,-0.48019 -3.6973,-0.79672 -5.34289,-1.5081c-10.80322,-4.67018 -20.83073,-11.21309 -32.25269,-14.49138c-3.1042,-0.89096 -6.44981,-0.70799 -9.55588,-1.59242c-1.2028,-0.34248 -2.15079,-1.37349 -3.37145,-1.64552c-2.0569,-0.45839 -4.28489,-0.07537 -6.27481,-0.76906c-1.42962,-0.35558 -2.93665,-0.94808 -4.35605,-1.46704c1.77465,-1.04625 3.97569,-1.64107 6.3766,-2.44197c9.47495,-3.16066 20.80086,-1.69489 30.43681,-0.08552l1.21522,0.03561c0,0 0.81399,0.00188 1.5119,-0.45926c-0.37621,1.90643 1.57227,2.68831 1.57227,2.68831c0.82622,0.3305 1.67572,0.64466 2.52653,0.94245c0.38507,1.02626 1.48412,1.47024 1.48412,1.47024c3.24465,1.29302 7.04009,1.96826 10.02052,3.82333c1.01314,0.63059 1.95605,1.39651 2.83881,2.24748c0.1039,0.53673 0.33233,0.91921 0.33233,0.91921z" fill="#a86a00" stroke-width="0.5"></path>
        <path d="M320.66469,169.57027c0,0 -0.00075,0.00074 -0.00219,0.00222c-0.26595,0.26595 -0.53302,0.53282 -0.79897,0.79877l-1.51246,1.51195c-1.49059,-0.49884 -3.18192,-1.06105 -3.8247,-1.27582l-0.05376,-1.74918c-0.1573,-2.08725 0.60678,-4.3532 -0.41278,-6.18128c-1.65449,-2.96651 -9.09936,-1.82935 -11.64446,-1.82935c0,0 -0.19392,0.00032 -0.47254,0.0539c-2.1955,-3.39213 -5.79924,-1.76587 -8.50965,-3.59551c-0.97179,-0.656 -1.09269,-2.46922 -2.23735,-2.72311c-1.58588,-0.35175 -3.33237,0.36112 -4.7393,1.17309c-0.92578,0.53429 -1.09215,1.8657 -1.85076,2.61872c-0.67878,0.67378 -1.71344,0.9128 -2.39108,1.58773c-0.36131,0.35985 -0.61922,0.80607 -0.87499,1.25415c-0.66181,-0.3755 -1.37031,-0.37703 -1.37031,-0.37703l-0.19382,0.07451c-1.25456,-0.31287 -2.51012,-0.65031 -3.74891,-1.02177c-0.03714,-0.03128 -0.07429,-0.06297 -0.1111,-0.09469c-3.11502,-2.68482 -5.63672,-6.09211 -8.75802,-8.77278c-1.92191,-1.6506 -3.97449,-3.17028 -5.77872,-4.94875l-3.54409,-1.81103c0,0 -0.3606,-0.18072 -0.86454,-0.25171c-0.27971,-0.29435 -0.56355,-0.58785 -0.85232,-0.87764c0,0 -0.93579,-0.93681 -2.12646,-0.7659c-0.79142,-6.73973 -0.90794,-13.87685 0.30342,-20.46133c0.82881,-4.50505 2.47362,-9.49206 6.5071,-12.00548c0.21108,0.52706 0.65573,1.03846 1.5362,1.33194c2.37172,0.79055 3.16487,-1.58392 3.16487,-1.58392c0.08076,-0.25067 0.16856,-0.49079 0.26202,-0.71997c2.16074,0.54975 4.59022,1.90437 6.27082,2.32659c2.08732,0.67095 4.38956,0.35465 6.53016,0.82885c1.1078,0.24541 1.93933,1.24425 3.03154,1.55171c3.13682,0.88301 6.52658,0.70161 9.65679,1.60776c11.24339,3.25479 21.12853,9.80245 31.80181,14.34136c2.19605,0.9339 3.5232,1.02929 5.8595,1.69578c1.00018,0.28533 4.75058,1.69152 5.49986,1.70353c0.81921,0.01313 1.59574,-0.53037 2.36745,-0.92772c0.47282,1.20937 0.90621,2.43045 1.29027,3.653l0.15696,0.49523c-1.32223,5.49076 -1.09681,11.20753 -3.62861,16.34c-1.21449,2.46201 -2.55837,2.89336 -4.52396,5.18655c-1.38911,1.62063 -2.86047,3.19198 -4.09914,4.9303c-0.05971,0.08379 -0.11493,0.17078 -0.16613,0.25976c0.20517,0.31273 0.38696,0.63137 0.54865,0.94988c-1.09596,1.09595 -2.19588,2.19648 -3.29183,3.29245c-0.00083,0.00081 -0.00124,0.00122 -0.00124,0.00122c-0.53334,0.53334 -1.06881,1.06872 -1.60215,1.60206l-0.80109,0.80092z" fill="#c77e00" stroke-width="0.5"></path>
        <path d="M272.85873,164.06331c1.35354,0.45011 2.72442,0.85354 4.10293,1.2223c-0.78812,0.53729 -1.57762,1.05249 -2.29845,1.53217c0,0 -1.71715,1.15101 -0.99122,2.92038c-1.06985,4.22118 -6.30583,1.57307 -7.81832,5.18029c-1.07127,2.55493 -0.21187,5.11443 1.51168,7.17761c-1.27469,0.2822 -2.47513,0.666 -3.50085,1.07438c-0.21038,0.74988 -0.5929,1.49739 -0.91166,2.24378c-0.44466,-0.14822 -0.89109,-0.2953 -1.33575,-0.44352c0,0 -2.30543,-0.76204 -3.13152,1.47561l-0.86861,0.00073c0,0 -0.26851,0.00051 -0.62802,0.08778c0.09158,-0.10232 0.18758,-0.20156 0.28698,-0.29637c-0.37396,-0.15921 -0.80896,-0.31641 -1.32286,-0.47176c-1.6089,-0.48635 -3.34295,-0.48273 -4.98382,-0.84694c-3.31191,-0.73512 -6.21382,-2.11925 -9.64655,-2.69532c-4.01215,-0.67331 -9.36831,-1.02754 -12.88687,-3.43308c-1.34885,-0.92217 -2.4138,-2.10382 -3.58083,-3.10059c7.78292,-1.76372 15.52531,-4.33411 22.02527,-8.709c2.54703,-1.71431 4.56319,-3.92469 6.39991,-6.23307c0.11962,0.29324 0.23518,0.59121 0.33458,0.89211c0,0 0.80995,2.3868 3.18166,1.59625c2.37171,-0.79056 1.50702,-3.09555 1.50702,-3.09555c-0.42318,-1.25979 -1.02933,-2.43677 -1.58857,-3.64467l0.19623,-0.18875c0,0 1.77231,-1.7657 0.00451,-3.53343c-0.52597,-0.52595 -1.04702,-0.73725 -1.52642,-0.77693c-0.14808,-0.88839 -0.27152,-1.97401 -0.40315,-2.89304c1.98577,2.21442 3.86919,4.51036 6.01389,6.66028l2.87313,2.8739c0,0 1.77064,1.77238 3.53842,0.00462c0.08806,-0.08806 0.16719,-0.17638 0.23836,-0.26422c1.14739,1.23021 2.28185,2.49194 3.4766,3.66729c0.14997,1.48442 1.73232,2.01674 1.73232,2.01674z" fill="#805100" stroke-width="0.5"></path>
        <path d="M337.63238,168.96675c-0.23257,0.07081 -0.37747,0.14279 -0.37747,0.14279l-1.14369,0.6245c-0.27769,0.07574 -0.55804,0.15148 -0.8356,0.22714c-0.08809,-0.30854 -0.25498,-0.63491 -0.52541,-0.97295c-1.56174,-1.95217 -3.52586,-0.39237 -3.52586,-0.39237c-2.66507,2.14408 -5.43213,3.75139 -8.17583,5.60723l0.34546,-0.3779c0.53334,-0.53334 1.06558,-1.06732 1.59892,-1.60066l0.79939,-0.80037c1.59997,-1.60001 3.19361,-3.203 4.79361,-4.80298v0.00003c0,0 1.2236,-1.22118 0.61981,-2.64909c0.87878,-1.06609 1.80568,-2.09091 2.70483,-3.13993c2.68577,-3.13341 3.2868,-2.54956 5.01873,-5.97779c2.81696,-5.57597 2.78539,-11.62201 4.10862,-17.59414c0.19962,-0.44917 0.22349,-0.91643 0.1965,-1.27226c0.00904,-0.35049 0.06435,-0.84738 0.07802,-1.2864c1.27887,2.18932 2.37016,4.49899 3.11244,6.93939c1.79694,5.90785 1.33966,13.00052 0.0159,19.12659c-1.03022,0.01696 -1.80236,0.79101 -1.80236,0.79101c-1.06667,1.06666 -2.14765,2.14604 -3.21432,3.2127l-0.80398,0.80216c0,0 -0.05204,0.0517 -0.12854,0.14573c-0.39565,0.21566 -0.64131,0.45968 -0.64131,0.45968c-0.66667,0.66666 -1.34232,1.33587 -2.00899,2.00254z" fill="#503300" stroke-width="0.5"></path>
        <path d="M259.43761,198.49857c0,0 -0.90406,0.22919 -1.47041,0.95504c-1.28828,0.21317 -2.58598,0.42082 -3.88467,0.60615c0,0 -0.88755,0.12999 -1.52338,0.75947c-1.7365,-0.09634 -3.50027,-0.50613 -5.02125,-1.30941c0,0 -1.40273,-0.69227 -2.53915,0.11143c-11.55925,-1.05027 -22.88962,-5.604 -26.83451,-17.43792c-0.48434,-0.67535 -1.00774,-1.32637 -1.45218,-2.02862c-0.1832,-0.28948 -0.71798,-0.7661 -0.42177,-0.93822c0.55609,-0.32313 1.29549,0.17212 1.92892,0.06068c0.6039,-0.10625 1.08966,-0.67111 1.70202,-0.70262c2.1624,-0.11127 4.65799,3.60282 5.97753,4.46597c0.84565,0.55317 1.81728,0.62404 2.76114,0.98493c8.17882,3.12721 16.95465,3.89276 25.32536,6.31669c0.20954,-0.15778 0.30943,-0.32957 0.4937,-0.51384c0.20992,-0.20993 0.50067,-0.43919 0.67997,-0.67735c0.16283,2.24679 2.49074,2.25499 2.49074,2.25499l3.90057,-0.0106c0,0 0.9902,0.00194 1.72425,-0.62137c0.00349,0.00117 0.10682,0.00777 0.11031,0.00893c0.28177,0.67615 0.90137,1.42271 2.26491,1.42271c0.28123,0 0.53086,-0.032 0.75238,-0.08816c0.19407,0.34509 0.40235,0.68003 0.67967,0.95735c0.98313,0.98313 3.23641,1.17841 3.28922,2.56776c0.0051,0.13405 -0.02508,0.26075 -0.07615,0.38216c-0.27323,0.01653 -0.45256,0.06163 -0.45256,0.06163l-3.1429,0.78921c-2.43024,0.48606 -4.85727,1.02243 -7.26177,1.62301z" fill="#503300" stroke-width="0.5"></path>
        <path d="M259.98492,204.12785c2.8237,-0.48522 5.72252,-1.04133 8.54571,-1.60595l0.5148,0.01557c-0.163,0.53657 -0.2937,1.08897 -0.29546,1.64482c-0.00257,0.81279 0.7788,1.51695 0.79865,2.3295c0.01322,0.54081 -0.11562,1.09464 -0.29808,1.63138c-0.81416,-1.10427 -3.35671,-0.43513 -4.85771,-0.86146c-0.54343,-0.15435 -3.16137,-0.77748 -4.55409,-1.36664c0.22466,-0.45914 0.38797,-1.10504 0.14618,-1.78722z" fill="#6ba3a7" stroke-width="0.25"></path>
        <path d="M288.78515,214.44776c-1.62907,0 -2.1995,1.06054 -2.39721,1.80017c-3.27056,-0.77226 -6.57891,-2.15426 -9.55277,-3.2544c-0.98465,-0.36425 -1.84986,-1.0104 -2.81616,-1.42087c-0.41903,-0.178 -1.22036,0.10273 -1.32427,-0.34052c-0.13847,-0.5907 0.65418,-1.03247 0.86789,-1.6003c0.37886,-1.00671 0.87889,-2.02593 0.89769,-3.10141c0.01528,-0.87373 -0.80136,-1.62586 -0.80445,-2.49971c-0.00343,-0.9687 0.65593,-1.84145 0.78114,-2.80203c0.13378,-1.02633 -0.14708,-2.08366 -0.01596,-3.11033c0.13663,-1.06977 1.03528,-2.08376 0.80833,-3.13807c-0.50453,-2.34387 -3.01627,-3.75298 -4.7116,-5.44831c-0.67987,-0.67986 -0.88311,-1.76335 -1.59977,-2.40431c-0.20477,-0.18314 -0.70034,-0.38934 -1.09854,-0.5058c2.11451,-0.13694 3.76695,0.21991 5.93126,0.68362c0.43731,0.0937 1.03749,-0.16984 1.33123,0.16742c0.38539,0.44247 0.07469,1.19463 0.32223,1.72663c0.75466,1.62187 1.58724,3.19341 2.39874,4.7876c0.37702,0.74065 1.24677,1.21454 1.45125,2.02008c0.53115,2.09246 -0.11397,4.30431 -0.11397,6.46313l1.52785,2.5626c0,0 1.76313,1.76356 3.5309,-0.00421c1.76777,-1.76776 -0.06725,-3.46181 -0.06725,-3.46181l-0.06646,0.96907c0,-1.21399 0.0124,-7.41045 -0.11908,-7.94216c-0.57239,-2.31476 -3.02211,-5.45711 -4.14978,-7.60011c-0.16818,-0.31962 -0.27657,-0.67862 -0.37477,-1.04011c1.05552,-0.46897 1.94633,-1.17983 3.23057,-2.02696l2.09454,-0.67892c0,0 0.20911,0.00822 0.38837,-0.08223c0.26027,1.63171 0.6938,3.27259 1.39319,5.07009l-0.17844,0.66818c0,0 -0.00108,2.48525 2.49892,2.48525c2.5,0 2.40176,-2.49634 2.40176,-2.49634l-0.0045,-0.06561c2.24324,-0.82464 1.49142,-3.15408 1.49142,-3.15408l-0.79472,-2.4043c-1.06821,-3.20466 -2.23547,-5.94567 -2.26309,-9.32218c0.00032,-0.09694 0.0008,-0.19452 0.0008,-0.29251c0,0 0.04203,-2.40932 -2.45797,-2.40932c-2.5,0 -2.49277,2.49556 -2.49277,2.49556c0,1.70643 -0.01403,3.26431 0.01927,4.76472c-0.78055,-0.18315 -1.50126,0.05546 -1.50126,0.05546l-2.704,0.92073c-3.90855,2.63527 -6.61874,2.62445 -9.50307,-1.21298c-0.2666,-0.3547 -0.96832,-0.54891 -0.89438,-0.98644c0.05915,-0.34999 0.64808,0.42131 0.99909,0.36854c0.94332,-0.1418 1.8712,-0.4743 2.70959,-0.9293c2.06685,-1.12169 3.64835,-3.267 4.48166,-5.46601c0,0 0.155,-0.46271 0.12331,-1.04653c1.99242,-1.3208 3.82283,-2.55769 5.6536,-4.37544c0.6847,-0.67983 0.94021,-1.72013 1.62431,-2.40057c0.68527,-0.68161 1.73494,-0.92629 2.41555,-1.61255c0.60205,-0.60704 0.94315,-1.43136 1.35278,-2.1818c0.06837,-0.12524 -0.00457,-0.54291 0.07142,-0.42215c0.40732,0.64737 0.33333,1.65795 0.97207,2.07867c1.14339,0.75311 2.63756,0.75843 3.94774,1.15584c1.11628,0.33859 2.87627,0.09282 3.30094,1.17927c0.24779,0.63392 -0.26213,1.44069 -0.30044,2.12025c-0.1228,2.17814 -0.80012,4.21439 -0.79543,6.39598c0.00203,0.94304 0.69769,1.77139 0.83335,2.70462c0.16902,1.16271 -0.26304,2.39929 0.07641,3.52414c0.81277,2.69332 3.25775,4.81922 4.18301,7.59506c0.58855,0.89612 1.18559,1.81392 1.77414,2.71004l-0.41939,1.02044c0,0 -0.09818,2.48638 2.40182,2.48638c2.5,0 2.49818,-2.48675 2.49818,-2.48675l-0.41727,-3.77072c-0.47811,-0.70387 -0.95166,-1.39789 -1.42977,-2.10176c-0.81248,-2.43748 -3.23632,-4.54232 -3.8313,-6.8065c-0.24373,-0.92751 0.21085,-1.9249 0.07816,-2.87467c-0.10296,-0.73695 -0.76783,-1.35011 -0.76577,-2.09421c0.00323,-1.1639 0.33907,-2.59897 0.63666,-3.98497c0.63797,-0.22543 1.06185,-0.64704 1.06185,-0.64704c0.41021,-0.55507 0.82172,-1.10972 1.23193,-1.66479c0.09654,0.00008 0.19359,0.00033 0.29013,0.00037l1.70907,0.72393c0,0 1.21402,0.30421 2.13851,-0.37379c-0.04941,0.43479 0.00555,0.76121 0.00555,0.76121c0.16389,0.97238 0.29307,1.93228 0.40442,2.88195c-0.65899,0.92183 -0.35904,2.1163 -0.35904,2.1163c0.64503,2.57336 1.13645,5.19952 1.5715,7.81658l-0.0335,0.38975c0,0 0.00478,2.50859 2.50478,2.50859c2.5,0 2.40956,-2.45745 2.40956,-2.45745l-0.01553,-0.57166c0.01609,-0.1408 0.0163,-0.2269 0.0163,-0.2269l-0.07237,-2.20257c-0.09179,-0.35763 -0.17334,-0.71323 -0.24869,-1.07063c0.10784,0.02898 0.29712,-0.0034 0.40644,0.02015c0.6966,0.15009 1.62135,-0.32647 2.13277,0.16975c0.00436,0.00423 0.00865,0.00852 0.01286,0.01282c0.46775,0.47748 0.01191,1.36455 0.13144,2.02899c0.19467,1.08211 0.53616,2.13957 0.80282,3.20623l-0.07349,1.79711c0,0 0.00137,2.45964 2.43196,2.50548c0.00115,0.09881 0.00182,0.19975 0.00182,0.30173l0.75691,2.36039c-0.01459,0.30872 -0.0041,0.61695 0.05642,0.91859c0.30239,1.50722 1.11687,2.87226 1.67558,4.30439l0.75236,3.04219c0,0 0.26153,1.05044 1.13038,1.59634c0.00741,0.39906 0.00389,0.80456 -0.01056,1.21565c-0.77179,0.50836 -1.06832,1.39762 -1.06832,1.39762c-1.46237,4.38718 -3.44921,7.53569 -6.08094,11.36398c-0.40536,0.58966 -0.51184,1.4231 -1.07907,1.8593c-0.60612,0.4661 -1.56302,0.23851 -2.1995,0.66222c-0.94179,0.62695 -1.46547,1.77179 -2.40448,2.40288c-0.6329,0.42536 -1.50445,0.34283 -2.18717,0.68251c-1.70244,0.84707 -2.24187,1.96981 -4.10894,2.18079c-3.44189,0.38894 -5.59986,-1.14106 -8.81275,-1.59777c-0.94945,-0.13497 -1.95347,0.31859 -2.88097,0.07486c-0.2951,-0.07755 -0.57476,-0.19143 -0.84076,-0.33124c-0.38921,-0.88385 -1.22449,-1.20051 -1.76988,-1.31364c-0.15573,-0.13682 -0.31212,-0.27464 -0.46864,-0.41018c-0.13269,-0.7191 -0.63017,-2.05432 -2.45629,-2.05432z" fill="#a2f9ff" stroke-width="0.25"></path>
      </g>
    </g>
  </g>
</svg>
