<?xml version="1.0" encoding="UTF-8"?>
<svg xmlns="http://www.w3.org/2000/svg" xmlns:xlink="http://www.w3.org/1999/xlink" version="1.1" width="247.46577" height="116.01456" viewBox="0,0,247.46577,116.01456">
  <g transform="translate(-116.26713,-121.99272)">
    <g stroke-width="0" stroke-miterlimit="10">
      <path d="M121.09943,232.93478v-105.86957h237.56098v105.86957z" fill="#ffffff" stroke="#000000"></path>
      <path d="M125.67993,227.95v-65.5h11v65.5z" fill="#b7b7b7" stroke="none"></path>
      <path d="M343.17993,228.45v-65.5h11v65.5z" fill="#b7b7b7" stroke="none"></path>
      <g fill="#b7b7b7" stroke="none">
        <path d="M125.67885,171.84603v-10.51977h10.5429v10.51977z"></path>
        <path d="M135.96129,177.48798v-10.51976h10.5429v10.51976z"></path>
        <path d="M146.68303,183.161v-10.51976h10.5429v10.51976z"></path>
        <path d="M157.48638,188.13417v-10.51977h10.5429v10.51977z"></path>
        <path d="M167.76883,193.77612v-10.51976h10.5429v10.51976z"></path>
        <path d="M178.49056,199.44914v-10.51976h10.5429v10.51976z"></path>
        <path d="M189.29391,203.7622v-10.51976h10.5429v10.51976z"></path>
        <path d="M199.57635,209.40415v-10.51976h10.5429v10.51976z"></path>
        <path d="M209.85879,212.88555v-10.51976h58.76729v10.51976z"></path>
        <path d="M342.9629,171.54672v-10.51977h10.5429v10.51977z"></path>
        <path d="M332.68044,177.18868v-10.51976h10.5429v10.51976z"></path>
        <path d="M321.95871,182.8617v-10.51976h10.5429v10.51976z"></path>
        <path d="M311.15536,187.83486v-10.51976h10.5429v10.51976z"></path>
        <path d="M300.8729,193.47682v-10.51976h10.5429v10.51976z"></path>
        <path d="M290.15118,199.14984v-10.51976h10.5429v10.51976z"></path>
        <path d="M279.34782,203.46289v-10.51976h10.5429v10.51976z"></path>
        <path d="M269.06539,209.10485v-10.51976h10.5429v10.51976z"></path>
      </g>
      <path d="M116.26714,236.1096v-113.15565h10.14499v113.15565z" fill="#000000" stroke="none"></path>
      <path d="M353.58792,237.20768v-113.15565h10.14499v113.15565z" fill="#000000" stroke="none"></path>
      <path d="M116.90253,227.86229h246.83038v10.14499h-246.83037z" fill="#000000" stroke="none"></path>
      <path d="M116.43985,121.99272h246.83037v10.14499h-246.83037z" fill="#000000" stroke="none"></path>
      <path d="M126.17885,162.84603v-10.51976h10.51976v10.51976z" fill="#000000" stroke="none"></path>
      <path d="M136.43872,168.48798v-10.51976h10.51976v10.51976z" fill="#000000" stroke="none"></path>
      <path d="M147.13694,174.161v-10.51976h10.51976v10.51976z" fill="#000000" stroke="none"></path>
      <path d="M157.91657,179.13417v-10.51977h10.51976v10.51977z" fill="#000000" stroke="none"></path>
      <path d="M168.17645,184.77612v-10.51976h10.51976v10.51976z" fill="#000000" stroke="none"></path>
      <path d="M178.87466,190.44914v-10.51976h10.51976v10.51976z" fill="#000000" stroke="none"></path>
      <path d="M189.6543,194.7622v-10.51977h10.51976v10.51977z" fill="#000000" stroke="none"></path>
      <path d="M199.91418,200.40415v-10.51976h10.51976v10.51976z" fill="#000000" stroke="none"></path>
      <path d="M210.17404,203.88555v-10.51976h58.63832v10.51976z" fill="#000000" stroke="none"></path>
      <path d="M342.98604,162.54672v-10.51977h10.51976v10.51977z" fill="#000000" stroke="none"></path>
      <path d="M332.72614,168.18867v-10.51976h10.51976v10.51976z" fill="#000000" stroke="none"></path>
      <path d="M322.02795,173.86169v-10.51976h10.51976v10.51976z" fill="#000000" stroke="none"></path>
      <path d="M311.2483,178.83486v-10.51977h10.51976v10.51977z" fill="#000000" stroke="none"></path>
      <path d="M300.98841,184.47681v-10.51976h10.51976v10.51976z" fill="#000000" stroke="none"></path>
      <path d="M290.29022,190.14983v-10.51976h10.51976v10.51976z" fill="#000000" stroke="none"></path>
      <path d="M279.51057,194.46289v-10.51976h10.51976v10.51976z" fill="#000000" stroke="none"></path>
      <path d="M269.25071,200.10484v-10.51976h10.51976v10.51976z" fill="#000000" stroke="none"></path>
    </g>
  </g>
</svg>
