<?xml version="1.0" encoding="UTF-8"?>
<svg xmlns="http://www.w3.org/2000/svg" xmlns:xlink="http://www.w3.org/1999/xlink" version="1.1" width="321.19994" height="336.77921" viewBox="0,0,321.19994,336.77921">
  <g transform="translate(-79.40002,-11.61039)">
    <g stroke="none" stroke-miterlimit="10">
      <path d="M88.31564,328.61039c0,0 16,-20.5985 16,-32.10001c0,-24.14805 -6.06414,4.50221 -10.04872,-44.1924c-0.59522,-7.27412 3.74438,-65.15844 3.01263,-73.75344c-0.23731,-2.78745 -17.45194,-68.53772 -17.64152,-71.24481c-1.94572,-27.78276 8.67761,-71.70934 8.67761,-71.70934c0,0 -12.60264,-21.46011 8.4239,-20.44654c5.86827,0.28288 21.73281,18.2132 32.25081,17.57214c19.88693,-1.21209 85.77117,-14.42446 107.91596,-15.43106c14.92427,-0.67839 40.54072,1.62046 54.14997,0.91386c29.89262,-1.55204 65.36001,-6.60839 73.85938,-6.60839c6.34357,0 25.39999,15 25.39999,15c0,0 -4.30426,16.55744 -1.677,49.84293c2.20947,27.99243 11.3705,71.03601 11.83896,94.14703c0.97157,47.9307 -4.16196,152.01005 -4.16196,152.01005c0,0 6.8751,16.10871 -32.52064,19.49727c-5.19656,0.44698 -28.0068,-7.08378 -34.50223,-6.59417c-5.41818,0.40841 -27.16192,3.80264 -33.24331,4.17608c-4.59181,0.28197 -30.28214,8.51628 -35.06363,8.69531c-8.42783,0.31554 -43.80911,-15.34526 -52.03061,-14.98105c-9.93324,0.44004 -39.34412,6.82986 -47.9634,7.15102c-2.72426,0.1015 -17.35563,-9.79234 -19.88468,-9.68134c-10.6975,0.46953 -30.35234,15.73688 -36.1915,15.73688c-17.79261,0 -16.6,-18 -16.6,-18z" fill="#d6d6d6" stroke-width="0"></path>
      <path d="M114.91564,303.51038l-11,-15c0,0 12.57555,13.59144 33.19615,18.10359c30.25914,6.62123 74.38191,5.22504 93.09351,7.37227c14.12883,1.62134 55.71035,9.52414 55.71035,9.52414l65,-5c0,0 -60.0161,13.57931 -88.76511,11.92299c-10.7767,-0.62088 -41.27907,-11.44 -57.09454,-13.84571c-8.9022,-1.35412 -54.71337,6.39113 -63.18379,5.2433c-39.11052,-5.29991 -26.95656,-18.32058 -26.95656,-18.32058z" fill="#9e9e9e" stroke-width="0"></path>
      <path d="M121.8722,32.25287c8.47042,-1.14784 54.2816,6.59742 63.18379,5.2433c15.81547,-2.4057 46.31783,-13.22483 57.09454,-13.84571c28.74901,-1.65632 88.76511,11.923 88.76511,11.923l-65,-5c0,0 -41.58152,7.9028 -55.71035,9.52414c-18.71159,2.14723 -62.83437,0.75104 -93.0935,7.37226c-20.6206,4.51215 -33.19615,18.10359 -33.19615,18.10359l11,-15c0,0 -12.15397,-13.02067 26.95656,-18.32058z" fill="#9e9e9e" stroke-width="0"></path>
      <path d="M120.96781,267.93222c1.76776,1.76776 0,3.53554 0,3.53554l-2.85347,2.75889c-3.20611,1.03803 -5.06463,2.37412 -8.47861,-0.17652c-1.21024,-0.90419 -1.46776,-2.64117 -2.22724,-3.94709c-1.70861,-2.93797 -3.53138,-5.30563 -4.26337,-8.73025c-0.93947,-4.39534 1.49327,-12.20914 4.83396,-15.17607c1.27305,-1.13063 3.1283,-1.34524 4.69246,-2.01786c0,0 2.3212,-0.92846 3.24967,1.39273c0.92847,2.32119 -1.39274,3.24966 -1.39274,3.24966c-1.10251,0.39403 -2.41761,0.42129 -3.30754,1.1821c-3.60909,3.08547 -3.69682,10.059 -1.78127,13.78576c1.39575,2.7155 2.4772,7.47835 6.04604,6.18429l1.94658,-2.04116c0,0 1.76777,-1.76776 3.53553,0z" fill="#696969" stroke-width="0.5"></path>
      <path d="M131.24172,253.164c0.08942,0.4958 0.03317,0.88953 0.03317,0.88953c-0.23019,1.60116 -0.53062,3.19379 -0.69057,4.80348c-0.10792,1.08607 -0.1607,2.18202 -0.11192,3.27235c0.02991,0.66839 0.07245,2.00623 0.72763,1.87066c1.64252,-0.33987 1.80245,-2.83211 2.60849,-4.30305c1.66365,-3.03598 2.7326,-6.53554 2.19875,-10.07252c-0.00111,-0.00738 -1.59323,-2.47001 -1.8954,-2.27742c-0.87606,0.55835 -1.12707,1.75202 -1.57461,2.68953c-0.48616,1.01842 -0.88667,2.07477 -1.29553,3.12743zM125.88076,255.92956c-0.74241,-1.0612 -0.18849,-2.3909 -0.18849,-2.3909l0.47632,-1.14341c1.28952,-3.05052 3.0496,-8.87178 6.91957,-9.94231c1.86002,-0.51452 3.81711,1.02217 5.36638,2.17289c4.06922,3.02241 2.83981,9.86306 1.51017,13.88547c-1.75702,5.31527 -7.00574,14.54694 -13.15145,7.90616c-2.21979,-2.3986 -1.5554,-6.98361 -0.93249,-10.48791z" fill="#696969" stroke-width="0.5"></path>
      <path d="M144.96398,274.18199c1.11803,-2.23607 3.3541,-1.11804 3.3541,-1.11804l1.08827,0.6107c0.74191,0.25086 1.45922,0.91324 2.22573,0.75257c3.83856,-0.80457 8.56569,-9.29064 6.27773,-12.95574c-0.49737,-0.79674 -1.53628,-1.07362 -2.42493,-1.43399l-4.60199,-0.65742c-1.23096,-0.15585 -2.18284,-1.20679 -2.18284,-2.48007c0,-0.88153 0.45625,-1.6565 1.14551,-2.10163l2.22711,-1.48474c0.59657,-0.53879 1.3744,-0.93869 1.75187,-1.64537c0.4803,-0.8992 0.2876,-2.04264 0.6892,-2.97965c0.5018,-1.17078 1.99876,-1.91678 1.68207,-3.40895c-0.12784,-0.60236 -1.23468,0.16047 -1.80524,0.39208c-1.64417,0.66742 -2.56936,0.48916 -3.87252,1.8444c-0.82669,0.85972 -1.41204,1.92258 -2.11805,2.88387c0,0 -1.5,1.99999 -3.5,0.49999c-2,-1.5 -0.49999,-3.5 -0.49999,-3.5c0.894,-1.17205 1.62531,-2.48836 2.682,-3.51615c3.08208,-2.9978 10.65987,-6.09819 13.52219,-0.96348c2.39508,4.29654 -0.24938,4.83093 -1.51788,7.791c-0.46473,1.08447 -0.3051,2.40784 -0.91077,3.42037c-0.26237,0.43862 -0.59051,0.82693 -0.94929,1.19179c5.22756,1.54639 5.9488,4.72855 6.07178,9.67623c0.1406,5.65711 -5.49964,13.13074 -10.93004,14.37302c-1.38406,0.31662 -2.78286,-0.56493 -4.1743,-0.8474l-2.11168,-0.98928c0,0 -2.23607,-1.11803 -1.11803,-3.3541z" fill="#696969" stroke-width="0.5"></path>
      <path d="M177.50003,268.9l0.17881,-0.67148c-0.60842,-1.52657 -1.16238,-2.78226 -1.55464,-3.97908c-0.76852,2.56835 -1.66908,5.10613 -2.62865,7.60237c1.58325,-0.20512 3.1067,-0.82992 4.67259,-1.17632c-0.66811,-0.73825 -0.66811,-1.7755 -0.66811,-1.7755zM172.7838,257.0583l0.09879,-0.1308l-0.05425,-0.01809l0.78176,-2.34527c0.31418,-1.02156 1.26534,-1.76412 2.38994,-1.76412c1.1246,0 2.07577,0.74257 2.38994,1.76413l1.56289,4.68873l-0.46738,0.15579c0.94632,2.12829 1.75027,4.25994 2.83573,6.96286l0.17882,2.52847c0,0 0,0.42325 -0.17415,0.92144c1.12419,-0.23003 2.15397,-0.25148 2.70847,0.57996c1.31611,1.97343 -0.63346,4.70182 -0.98978,7.04694c-0.38195,2.51378 -0.87542,5.02786 -1.67283,7.44222l0.12829,0.00944c0,0 0,2.5 -2.5,2.5c-2.5,0 -2.5,-2.5 -2.5,-2.5l0.12828,-1.59054c0.84991,-2.52285 0.64033,-5.45128 1.94768,-7.65938c-2.06818,0.51713 -6.3628,1.27198 -6.57656,1.25657c-1.2004,-0.08657 -2.17219,-1.50299 -3.36141,-1.31802c-0.62656,0.09746 0.83906,1.07779 0.82972,1.71182c-0.01438,0.97672 -0.59733,1.86009 -0.89599,2.79013c0,0 -0.79055,2.37171 -3.16226,1.58116c-2.37171,-0.79055 -1.58116,-3.16227 -1.58116,-3.16227c0.75716,-2.16173 -0.41016,-5.48663 1.5337,-6.69813c0.59728,-0.37225 1.26363,-0.48136 1.96543,-0.46256c1.83493,-4.62288 3.49042,-9.42561 4.45633,-14.29048z" fill="#696969" stroke-width="0.5"></path>
      <path d="M201.28196,275.13606l0.63608,-0.79997c-1.92372,0.95782 -3.89026,1.85128 -5.92737,2.53563c0,0 -1.63994,0.54669 -2.64705,-0.6328c-1.44213,2.65839 -3.0615,5.23909 -4.94362,7.76112c0,0 -1.5,1.99999 -3.5,0.49999c-2,-1.5 -0.49999,-3.5 -0.49999,-3.5c2.32118,-3.0777 4.79524,-6.7797 6.54721,-10.19763c1.8794,-3.66654 2.67582,-7.93257 4.36109,-11.70143c0.62924,-1.4072 3.01775,-6.52262 4.68037,-6.96562c4.21648,-1.12347 5.95991,2.05789 6.47908,5.16418c0.15876,0.94988 -0.0691,8.99129 0.025,10.20983c0.32786,4.24588 0.74641,8.22281 0.80125,12.46794c0.00602,0.07779 0.00602,0.1227 0.00602,0.1227l-0.00453,0.00072c0.00298,0.26531 0.00453,0.53169 0.00453,0.79926l-2.5,-0.39999l-2.5,0.39999c0,-0.09073 0.00032,-0.38061 0.00062,-0.79989l-0.00062,-0.0001c0,0 0,-0.01004 0.00064,-0.02885c0.00077,-1.10172 0.00137,-3.06168 -0.00397,-4.66654c-0.58096,-0.05167 -1.01472,-0.26855 -1.01472,-0.26855zM199.682,269.86393l2.34428,0.4889c-0.26123,-2.54728 -0.53278,-5.09551 -0.52625,-7.65285c0.00392,-1.53321 0.05072,-3.06643 0.03228,-4.59954c-0.00236,-0.19608 0.02136,-0.57773 0.04406,-0.8802c-0.28202,2.14111 -1.80892,4.21746 -2.56178,6.22932c-1.06412,2.84366 -2.17193,5.58745 -3.40076,8.2486c1.3887,-0.53168 2.73988,-1.16702 4.06817,-1.83423z" fill="#696969" stroke-width="0.5"></path>
      <path d="M220.69201,285.6293c-2.32927,-0.908 -1.42128,-3.23728 -1.42128,-3.23728l1.51615,-3.88558c0.6298,-1.99928 1.01825,-3.91197 1.58893,-5.68895c-0.77998,0.6564 -1.56344,1.30885 -2.33754,1.9709c-1.01488,0.86799 -1.72182,2.16975 -2.93588,2.72603c-0.11002,0.05041 -0.22064,0.09912 -0.33185,0.14624l0.01967,0.03934l-4.42717,2.21355c-0.34741,0.18291 -0.74311,0.28641 -1.163,0.28641c-1.38071,0 -2.5,-1.11929 -2.5,-2.5c0,-0.29691 0.05176,-0.58173 0.14675,-0.84593l0.75889,-2.27667c1.53647,-6.11086 3.49845,-11.93971 4.74289,-18.16767c0,0 0.49028,-2.45146 2.94173,-1.96117c2.45146,0.49029 1.96117,2.94173 1.96117,2.94173c-1.03889,5.18993 -2.57207,10.12227 -3.94577,15.15391c2.34778,-2.52215 5.20806,-4.50781 7.7288,-7.01418l2.39777,-2.39777c0.45241,-0.45241 1.07741,-0.73223 1.76777,-0.73223c1.38071,0 2.5,1.11929 2.5,2.5c0,0.22872 -0.03071,0.45027 -0.08825,0.66074l-1.1991,4.79631l-0.00454,-0.00114c-0.00118,0.01093 -0.00239,0.02186 -0.00359,0.03279c-0.13189,1.19401 -2.55237,8.6716 -2.90148,9.77828l-1.5738,4.04103c0,0 -0.90801,2.32928 -3.23728,1.42128z" fill="#696969" stroke-width="0.5"></path>
      <path d="M233.93578,242.51796c1.58205,1.93574 -0.3537,3.5178 -0.3537,3.5178l-3.62766,2.84642c-2.32494,0.23337 -4.71862,1.3079 -6.97481,0.70011c-1.36306,-0.36719 -1.77316,-2.19702 -2.65974,-3.29553c0,0 -1.38676,-2.08012 0.69335,-3.46688c2.08012,-1.38676 3.46688,0.69335 3.46688,0.69335c0.18012,0.50151 0.02082,1.38601 0.54034,1.50452c0.9784,0.22319 1.94979,-0.47606 2.92469,-0.71409l2.47284,-2.1394c0,0 1.93575,-1.58205 3.5178,0.35369z" fill="#696969" stroke-width="0.5"></path>
      <path d="M272.96781,275.93222c1.76776,1.76776 0,3.53554 0,3.53554l-1.06781,1.03228c-1.12854,0.8422 -2.12284,1.90345 -3.38561,2.52659c-1.70324,0.84049 -3.70383,2.65935 -5.40278,1.81023c-2.05685,-1.02799 -2.73061,-3.85974 -3.20134,-6.11047c-0.34167,-1.63367 0.47536,-3.31086 0.89299,-4.92679c0.7865,-3.04321 1.85635,-5.85057 3.43448,-8.55437c1.13349,-1.94199 4.03691,-6.61866 7.34192,-4.94936c1.65521,0.83602 0.88024,3.60276 1.32036,5.40413c0,0 0,2.5 -2.5,2.5c-0.81245,0 -1.36086,-0.26403 -1.73106,-0.62047c-0.03782,0.05741 -0.07359,0.11576 -0.10667,0.17535c-1.5593,2.8093 -1.95983,4.01164 -2.92768,7.33239c-0.30521,1.04721 -0.58623,2.10726 -0.74487,3.18645c-0.09159,0.62315 -0.56423,1.60709 -0.00126,1.88953c0.50966,0.2557 0.57618,-1.00536 0.99724,-1.38985c0.92931,-0.84862 2.00953,-1.51556 3.01429,-2.27334l0.53228,-0.56781c0,0 1.76777,-1.76776 3.53553,0z" fill="#696969" stroke-width="0.5"></path>
      <path d="M291.32498,279.39687c-2.49687,0.12493 -2.62181,-2.37194 -2.62181,-2.37194l-0.01481,-0.29613c-0.16177,-3.25698 -0.42305,-6.51347 -0.85886,-9.74521c-0.26666,-1.9774 -1.16525,-4.86854 -1.4733,-7.47118c-0.01166,0.05924 -0.02294,0.11852 -0.03373,0.17785c-0.30167,1.65787 -0.53067,3.33109 -0.9146,4.97186c-1.10341,4.71558 -2.04012,9.41025 -3.86037,13.89778c-0.44907,1.1071 -0.53096,2.46714 -1.37975,3.3079c-0.86613,0.85793 -2.25143,0.93595 -3.37715,1.40391c0,0 -2.37171,0.79057 -3.16228,-1.58114c-0.79057,-2.37171 1.58114,-3.16228 1.58114,-3.16228c2.1086,-0.29057 2.60049,-3.35969 3.18303,-5.50194c1.27076,-4.67317 1.95398,-9.63377 3.03752,-14.36755c0.36935,-1.61359 0.22064,-3.54896 1.31863,-4.78771c5.15907,-5.82044 6.48188,-1.63552 8.44774,3.11654c0.52739,1.27486 1.44788,8.28517 1.58832,9.32826c0.4538,3.37045 0.72624,6.76649 0.8974,10.16304l0.01482,0.29613c0,0 0.12493,2.49688 -2.37194,2.62181z" fill="#696969" stroke-width="0.5"></path>
      <path d="M304.54851,276.93913c-1.04739,0.26209 -2.09478,0.52416 -3.14217,0.78625c0,0 -0.37577,0.09394 -0.86847,0.05996c-1.22308,2.59378 -2.52836,5.14113 -3.99415,7.60092c0,0 -1.28625,2.14373 -3.42998,0.85748c-2.14373,-1.28625 -0.85748,-3.42998 -0.85748,-3.42998c1.60932,-2.66162 2.56511,-5.66717 3.85217,-8.49871c0.65146,-1.43322 1.7672,-2.62345 2.41888,-4.05656c2.06613,-4.54361 3.78068,-9.15538 6.03481,-13.66851l1.86902,-4.50406c0.36251,-0.93356 1.26963,-1.59536 2.33131,-1.59536c1.28107,0 2.33708,0.96356 2.48283,2.20547l0.65339,4.92207l-0.00757,0.00101c0.00471,0.01735 0.00939,0.0347 0.01404,0.05207c1.96271,7.32346 0.53994,15.53415 1.78639,23.02262l0.00852,4.20621c0,0 0,2.5 -2.5,2.5c-2.5,0 -2.5,-2.5 -2.5,-2.5l0.00851,-3.79379c-0.28323,-1.69695 -0.44764,-3.30306 -0.55425,-4.88763zM303.45155,272.06094l4.05816,-0.81241c0,0 0.16982,-0.03397 0.42901,-0.03932c-0.03355,-1.03201 -0.06971,-2.08496 -0.12437,-3.17691c-0.09852,-1.96812 -0.41048,-3.73695 -0.57271,-5.43939c-1.44515,3.16442 -2.79048,6.37653 -4.17392,9.5639c0.12795,-0.03196 0.2559,-0.06391 0.38384,-0.09587z" fill="#696969" stroke-width="0.5"></path>
      <path d="M331.15214,292.05181c-2.35183,-0.8479 -1.50392,-3.19972 -1.50392,-3.19972l0.99052,-2.72449c0.51712,-2.73254 0.84346,-5.25574 1.69622,-7.61926c-2.5159,2.5337 -4.93383,4.91411 -7.6753,7.05128l0.30815,0.30816l-2.40002,2.40002v0c-0.45241,0.45241 -1.07741,0.73224 -1.76776,0.73224c-1.38071,0 -2.5,-1.11929 -2.5,-2.5v-3.20001h0.09881l-0.08008,-0.30545c0.94361,-3.85263 1.24472,-7.89787 2.50256,-11.66374c0.69683,-2.08625 1.51509,-4.23158 1.47871,-6.43083c0,0 0,-2.5 2.5,-2.5c2.5,0 2.5,2.5 2.5,2.5c-0.03337,2.71745 -0.86339,5.39049 -1.72125,7.9692c-0.72462,2.17822 -1.08764,4.45513 -1.48153,6.72485c0.29971,-0.25837 0.5941,-0.52088 0.87056,-0.79734c2.06325,-2.06325 4.1275,-4.12551 6.1942,-6.1853l0.16697,-0.07274l-0.02897,-0.03862l3.17981,-2.38488c0.42124,-0.32311 0.9483,-0.51515 1.52021,-0.51515c1.38071,0 2.5,1.11929 2.5,2.5c0,0.1348 -0.01067,0.26711 -0.0312,0.39612l-0.70102,4.90717l-0.01664,-0.00238c-0.00296,0.05111 -0.00618,0.10224 -0.00967,0.15335c-0.2303,3.37633 -1.64292,6.56952 -2.28011,9.89317l-1.10953,3.10043c0,0 -0.84789,2.35182 -3.19972,1.50392z" fill="#696969" stroke-width="0.5"></path>
      <path d="M339.03609,254.98197c1.11804,2.23607 -1.11804,3.35411 -1.11804,3.35411l-1.92746,0.93563c-2.32408,0.74633 -5.52585,2.18081 -7.92912,0.39879c-1.30286,-0.96607 -1.12454,-3.04275 -1.68681,-4.56413c0,0 -0.60634,-2.42535 1.81902,-3.03169c2.42536,-0.60634 3.0317,1.81901 3.0317,1.81901c-0.13986,2.95677 0.90569,1.43261 3.18412,0.63459l1.27249,-0.66434c0,0 2.23606,-1.11804 3.3541,1.11803z" fill="#696969" stroke-width="0.5"></path>
      <path d="M358.25229,290.59564c-2.49563,-0.1477 -2.34793,-2.64334 -2.34793,-2.64334l0.18599,-3.11993c0.48496,-3.85724 0.41426,-7.9754 0.90709,-11.94449c-0.50525,0.73074 -1.0002,1.27698 -1.41781,1.41632c-3.08194,1.02836 -4.96215,0.80998 -6.0077,-0.27978c-1.4635,3.79061 -3.09127,7.39964 -5.08263,10.91907l0.40717,0.15269l-1.73515,4.62698c-0.34031,0.97629 -1.269,1.67683 -2.36131,1.67683c-1.38071,0 -2.5,-1.11929 -2.5,-2.5v-3.20002c0,0 0,-2.11958 1.95166,-2.45541c0.24361,-1.65467 1.46147,-3.01103 2.12435,-4.54692c1.83511,-4.2519 3.3942,-8.61084 4.8573,-13.00001l0.04664,-0.05939l-0.02076,-0.00829l1.5973,-4.00246c0.35402,-0.95046 1.26971,-1.62747 2.34352,-1.62747c1.38071,0 2.5,1.11929 2.5,2.5v5c0.12188,0.96747 -0.5408,1.87608 -0.73224,2.83221c-0.033,0.16481 0.18218,-0.28379 0.25254,-0.43642c0.22001,-0.47726 0.39196,-0.97594 0.61741,-1.45066c0.47077,-0.99129 0.97966,-1.96403 1.46994,-2.94583l1.54953,-3.87373c0.35453,-0.94947 1.26971,-1.62558 2.34281,-1.62558c1.07311,0 1.9883,0.67612 2.34282,1.62561l1.57835,3.94593l-0.04964,0.01986c0.08337,0.21431 0.15591,0.43345 0.21587,0.65822c0.489,1.83328 -0.6001,3.7471 -0.92217,5.61695c-0.7726,4.48557 -0.73258,8.89168 -1.29596,13.42383l-0.1737,2.95729c0,0 -0.1477,2.49563 -2.64333,2.34793z" fill="#696969" stroke-width="0.5"></path>
      <path d="M376.80002,285.00003l-0.21325,-0.41985c-1.02077,0.63752 -1.89736,1.61039 -3.0623,1.91257c-0.9098,0.236 -1.85525,0.21582 -2.80443,0.16875c-0.62036,1.88234 -1.27088,3.74713 -1.99885,5.56702c0,0 -0.92849,2.32118 -3.24968,1.39269c-2.32119,-0.92849 -1.39269,-3.24968 -1.39269,-3.24968c0.81077,-2.02687 1.53725,-4.05909 2.22545,-6.09603c-0.00281,-0.05708 -0.00424,-0.11557 -0.00424,-0.17549c0,-0.8325 0.27722,-1.38778 0.64703,-1.75815c1.02843,-3.13773 2.0007,-6.28615 3.08423,-9.44295c1.48915,-4.33854 4.30444,-7.92477 6.03743,-12.10175c0.60933,-1.46866 1.70011,-9.7614 6.99305,-5.1253c1.26168,1.10511 1.03867,9.47726 1.03825,11.62816c-0.00164,8.34002 -0.79322,16.61679 -0.79899,24.97063l-0.00099,3.03018c0,0 -0.00082,2.5 -2.50082,2.49919c-2.5,-0.00081 -2.49918,-2.50082 -2.49918,-2.50082l0.00099,-3.03109c0.00182,-2.64083 0.08467,-5.25961 0.20062,-7.87231c-0.73158,0.60424 -1.70161,0.60423 -1.70161,0.60423zM373.81332,280.41989l2.98671,-0.41986c0,0 1.13881,0 1.8792,0.76861c0.14866,-2.847 0.31029,-5.69558 0.4227,-8.56644c0.06155,-1.57203 -0.20508,-3.6633 -0.29321,-5.76285c-0.74331,1.24838 -1.5238,2.48098 -2.15984,3.78114c-1.69062,3.45587 -2.95284,7.15877 -4.15232,10.8974c0.47213,-0.17358 0.91705,-0.40189 1.31676,-0.69801z" fill="#696969" stroke-width="0.5"></path>
      <path d="M318.4,79.05676c-0.40848,0 -0.79407,-0.09797 -1.13457,-0.27168c0.1346,-0.86249 0.1346,-1.42833 0.1346,-1.42833l-3.98043,-4.29886c0.98948,0.00047 1.97293,0.02366 2.94278,0.08473l0.2699,-1.88917l0.07326,0.01046c0.00766,-0.15115 0.01821,-0.30231 0.03192,-0.45347c0.1139,-1.25636 1.27291,-2.1826 1.80453,-3.32662c0.8419,-1.81175 1.56379,-3.56119 2.37669,-5.27309c-0.03136,-0.36894 -0.08145,-0.72967 -0.15174,-1.07957c-0.43203,-2.15084 -2.02187,-3.89417 -3.00296,-5.85636c0,0 -0.46927,-0.93855 -0.19171,-1.90356c-2.51559,-0.88777 -5.11259,-2.00317 -7.5727,-2.34676c-4.14468,-0.57886 -8.53924,0.5222 -12.70501,0.01355c-6.41282,-0.78301 -12.95238,-1.47706 -19.29499,-2.41354c-3.51564,-0.51908 -8.56741,-0.43853 -12.09409,0.01355c-3.42104,0.43854 -5.70081,1.32588 -9.10544,0.01873c-5.58577,2.33118 -12.07649,1.86854 -18.21863,1.66621c0.03885,0.77766 0.01426,1.60269 -0.10009,2.53924c-0.36603,2.9978 -1.27299,5.78233 -0.81354,8.8941c0.28009,1.89703 0.68832,3.78147 0.81354,5.69498c0.08074,1.23374 0.78403,2.55846 0.74371,3.75203c0.66359,-0.03319 1.32745,-0.06363 1.99159,-0.0915c-0.19335,0.5473 -0.36961,1.11963 -0.52812,1.71766c-0.24624,0.92901 -0.15094,1.87222 0.0748,2.82086c-1.22693,-0.0237 -2.43456,0.00753 -3.5628,0.17412c-3.98579,0.58852 -8.05558,1.12036 -12.09501,1.61356c-3.10927,0.37963 -6.41716,-0.46946 -9.50498,-0.01355c-4.93543,0.72871 -9.70827,2.40507 -14.80047,2.43228c-3.55792,-0.01013 -6.59344,1.08794 -9.99958,1.56772c-3.45675,0.48692 -7.08743,-0.33212 -10.55407,0.02012c-1.35278,0.13745 -2.64681,0.66671 -4,0.79998c-3.6938,0.36379 -7.51523,-0.40945 -11.2,0c-4.39785,0.48869 -8.3962,2.63084 -12.74088,3.19345c-3.76403,0.48741 -7.00982,1.05233 -10.71491,2.29044c0,0 -2.37172,0.79055 -3.16227,-1.58116c-0.35514,-1.06545 -0.0721,-1.81181 0.3474,-2.31075c-0.1185,0.01322 -0.24362,0.0202 -0.37571,0.0202c-2.5,0 -2.5,-2.5 -2.5,-2.5l0.07464,-0.99368c-1.33112,-5.3293 -2.14916,-10.73379 -3.22604,-16.11605c0,0 -0.30438,-1.5219 0.76565,-2.40726c0.20185,-2.183 2.48579,-2.183 2.48579,-2.183c5.362,0.02209 9.64654,-2.41031 14.79957,-3.16773c3.1488,-0.46283 6.45219,-0.35604 9.59996,-0.79998c2.53784,-0.35793 4.98467,-1.27679 7.53507,-1.53012c0.88039,-0.08745 1.80088,0.2079 2.65405,-0.02626c2.02633,-0.55613 3.73461,-2.12052 5.81089,-2.44362c1.05398,-0.16401 2.14293,0.14285 3.19999,0.00001c3.91624,-0.5292 7.03954,-2.41818 11.20003,-2.40002c5.1148,-1.79153 9.93516,-1.75567 15.19996,-2.4c0.96663,-0.1183 1.82664,-0.82623 2.80047,-0.83227c0.84326,-0.00523 1.55676,0.7938 2.40002,0.79999c0.71392,0.00524 1.29318,-0.66377 1.99951,-0.76771c2.44029,-0.3591 4.89943,-0.57836 7.35412,-0.82013c3.22726,-0.31786 6.61603,-0.20998 9.95525,-0.10777c2.28422,-0.51845 4.62092,-0.81375 6.9529,-1.03248c0.08176,0.41175 0.16438,0.80176 0.24577,1.17508c4.58825,0.15407 9.49215,0.59978 13.89199,-0.01472c1.7994,-0.25131 3.45592,-1.1247 5.20045,-1.63226c3.68379,1.09478 4.78886,0.47118 8.49453,0.01873c3.99564,-0.48786 9.52123,-0.53913 13.50588,0.01355c6.29325,0.87288 12.7457,1.57122 19.10503,2.38645c4.22177,0.5412 8.67355,-0.59965 12.89497,0.01355c3.51216,0.51017 7.17686,2.38716 10.64624,3.25279c2.67847,0.76528 7.57948,1.5089 10.4916,2.82903c0.11588,-0.70153 0.58252,-2.11409 2.46172,-2.11409c2.5,0 2.5,2.5 2.5,2.5l-0.94391,4.75316l0.01563,0.0374c-0.0199,0.05956 -0.03943,0.11925 -0.05862,0.17905l-0.05133,0.25847c-0.0095,-0.00089 -0.01899,-0.00179 -0.02849,-0.00268c-0.54305,1.78811 -0.8152,3.66742 -1.54696,5.386c-0.89515,2.10228 -1.96995,2.0805 -2.21859,4.18904c-0.37066,3.14333 -0.67923,5.33979 -1.69599,8.39011c-0.68455,1.28183 -0.77968,3.14642 -2.05365,3.84549c-1.15708,0.63493 -2.60275,-0.46475 -3.91852,-0.56833c-1.52011,-0.11966 -3.02778,-0.2904 -4.53626,-0.4405c-0.41137,0.29746 -0.91687,0.47278 -1.46332,0.47278zM149.57176,63.76621c0.64812,1.94441 -0.8292,2.82608 -1.38257,3.08066c0.47141,1.65275 0.30446,3.90506 -0.04637,6.02774c0.16094,1.89947 -0.02634,2.82392 -0.29056,4.57901l1.50225,1.0015c0.68926,0.44513 1.14552,1.2201 1.14552,2.10164c0,0.02343 -0.00032,0.04677 -0.00096,0.07004c0.39416,-0.05262 0.79238,-0.10291 1.19551,-0.15131c4.36062,-0.52355 8.42372,-2.71376 12.85909,-3.20658c3.69144,-0.41015 7.50832,0.3751 11.20002,0c1.35278,-0.13745 2.64681,-0.66672 4,-0.79999c3.33852,-0.3288 6.93114,0.50185 10.24586,0.02012c3.64406,-0.5296 6.99973,-1.62278 10.80047,-1.63228c4.77869,0.03092 9.34786,-1.72252 13.99958,-2.36772c3.18028,-0.44111 6.51976,0.39348 9.69497,-0.01355c0.16737,-0.02146 0.33475,-0.04264 0.50214,-0.06356c-0.09078,-0.36222 -0.17434,-0.72018 -0.26438,-1.05472c-0.65842,-2.44646 -0.03228,-5.06695 -0.03228,-7.60046c0,-4.59987 -0.22241,-8.91911 0.87463,-13.40632c0,0 0.03109,-0.12437 0.10736,-0.30974c-1.5688,-0.00077 -3.12273,0.05015 -4.63566,0.20388c-2.35088,0.23888 -4.7054,0.45477 -7.04591,0.7799c-0.96456,0.13399 -1.82661,0.82623 -2.80041,0.83227c-0.84327,0.00523 -1.55677,-0.7938 -2.40003,-0.79999c-0.71394,-0.00524 -1.29139,0.67709 -1.99958,0.76771c-5.28869,0.67674 -10.03518,0.7414 -15.19994,2.39999c-4.22143,0.01736 -7.18777,1.79986 -11.2,2.40002c-1.05494,0.15781 -2.14189,-0.13468 -3.20003,0c-1.38043,0.1757 -4.69309,2.16983 -5.38907,2.35637c-1.11084,0.29772 -2.30219,0.04434 -3.44645,0.15952c-2.42659,0.24426 -4.75069,1.13528 -7.16447,1.48411c-3.15346,0.45573 -6.44738,0.36461 -9.59999,0.79999c-1.23373,0.17038 -2.42054,0.42991 -3.5849,0.72935c0.60212,0.17009 1.22113,0.60726 1.55616,1.61238zM230.4,52.65677c-0.07642,0 -0.15051,-0.00233 -0.22233,-0.00686c-0.73477,3.66902 -0.47762,7.32435 -0.47762,11.10685c0,1.33333 0.00633,2.66668 0,4c-0.00443,0.93324 0.10236,1.87608 -0.03229,2.79956c-0.03684,0.25266 -0.69676,0.71542 -0.46469,0.60894c1.46875,-0.67399 2.88905,-1.65744 4.49796,-1.8088c0.32876,-0.03093 0.95354,0.72426 0.90749,0.39728c-0.09353,-0.66417 -0.94291,-1.03708 -1.08975,-1.69152c-0.22659,-1.0099 0.15993,-2.08038 0.01355,-3.10498c-0.11926,-0.83479 -0.68413,-1.56471 -0.79998,-2.39999c-0.50123,-3.61373 0.33971,-6.82107 0.78643,-10.30591c0.08256,-0.64403 0.10843,-1.34166 0.20543,-2.00896c-0.27462,-0.00501 -0.55019,-0.01115 -0.82655,-0.01813c-0.02169,0.39896 -0.24288,2.43255 -2.49764,2.43255zM323.85685,56.28052l0.15321,-0.45963c0.05129,-0.1668 0.11957,-0.32615 0.20281,-0.47605c-0.31907,-0.0913 -0.63896,-0.18352 -0.95996,-0.27642c0.1919,0.38418 0.39726,0.7961 0.60394,1.21211zM326.082,75.12068c0.20803,0.03751 0.0575,-0.19911 -0.12886,-0.46313c-0.08393,0.03008 -0.16818,0.0589 -0.25258,0.08628c0.0929,0.18473 0.19996,0.34412 0.38144,0.37685zM139.20004,64.45676c0.00014,0 0.00029,0 0.00043,0c0.00746,-0.02099 0.01498,-0.04193 0.02256,-0.06282c-0.43378,0.06708 -0.87265,0.12324 -1.31775,0.16621c0.01486,0.07707 0.02968,0.15416 0.04445,0.23124c0.36778,-0.21282 0.79482,-0.33464 1.25031,-0.33464zM140.45582,82.83871c0.19519,-0.06306 0.38945,-0.12461 0.58293,-0.1847c-0.12491,-0.08124 -0.2421,-0.17333 -0.35024,-0.27493c-0.05935,0.1517 -0.13536,0.30802 -0.23269,0.45963zM144.84271,81.45651c-0.01415,0.00016 -0.02838,0.00025 -0.04269,0.00025c-0.02243,0 -0.04466,-0.0002 -0.06669,-0.0006c-0.02909,0.07542 -0.06172,0.14906 -0.09771,0.22074c0.13343,-0.03111 0.26681,-0.06167 0.40017,-0.09167zM231.00632,50.1821l0.32318,-0.00432c-0.08996,-0.00294 -0.17997,-0.00592 -0.27004,-0.00892c-0.01782,0.00442 -0.03554,0.00883 -0.05314,0.01324z" fill="#696969" stroke-width="0.5"></path>
      <path d="M274.86666,197.71502c6.18482,-9.33702 8.00979,-19.58938 6.66565,-30.81457c-0.31942,-2.66754 -1.79281,-6.03312 -2.3714,-8.65197c-0.46191,-2.0907 -0.30417,-4.28977 -0.79402,-6.37411c-0.313,-1.3318 -2.28558,-3.79327 -2.92916,-4.91953c-2.27704,-3.98482 -3.5794,-6.89454 -7.33773,-9.65484c-3.98611,-2.99895 -7.50545,-6.79844 -11.7587,-9.43996c-3.8092,-2.36574 -8.16111,-0.82861 -12.35262,-2.19536c-1.05704,-0.34467 -1.88521,-1.25874 -2.96304,-1.53154c-0.92824,-0.23493 -1.92017,0.15892 -2.87199,0.05471c-2.88813,-0.31621 -5.67402,-1.34664 -8.5686,-1.5971c-4.0445,-0.34995 -7.51964,0.56942 -11.3787,1.53463c-1.9733,0.49355 -4.11703,0.51334 -5.93187,1.43196c-2.16905,1.0979 -3.90483,2.90055 -5.92747,4.24929c-3.19685,2.13173 -5.5942,3.15685 -7.61363,6.27836c-3.4595,3.48266 -8.6647,7.17556 -11.23726,11.35931c-3.76242,6.11884 -6.66495,12.8712 -7.40828,20.10205c-0.41396,4.02688 0.01793,8.30122 0.01217,12.35366c-0.00417,2.92968 0.53109,5.83525 0.78782,8.75366c0.13064,1.48503 -0.33177,3.00717 -0.05472,4.47196c0.1861,0.98391 0.93531,1.77088 1.40297,2.65632c0,0 0.05601,0.11201 0.11789,0.29844c0.77134,0.28671 1.24603,0.91962 1.24603,0.91962c1.29372,1.7258 2.09227,3.8816 3.72522,5.2907c1.67741,1.44745 4.14211,1.65902 5.98914,2.88267c1.03444,0.68531 1.71602,1.80053 2.6706,2.5933c4.07612,3.38519 11.0014,8.28791 16.71912,8.23518c0.74409,-0.00687 1.35663,-0.68146 2.09552,-0.76955c3.09915,-0.36946 6.21784,0.67457 9.33894,0.67485c1.50916,0.00014 2.9679,-0.58985 4.47304,-0.70001c3.89493,-0.28507 7.96836,-0.01371 11.88298,0.01162c6.33553,-1.62611 12.52475,-3.2578 18.4071,-6.16455c3.81439,-1.88487 6.78006,-5.37142 9.73057,-8.32197l2.40004,-2.4c0,0 1.66276,-1.66275 3.37565,-0.15041c0.15161,-0.15701 0.30456,-0.31261 0.45874,-0.4668zM177.76398,198.01806c-2.59848,-5.41304 -2.65587,-12.09983 -2.66397,-18.11806c-0.00566,-4.21362 -0.41658,-8.65751 0.01216,-12.84635c0.82072,-8.01849 3.98795,-15.69484 8.26389,-22.44222c2.75288,-4.34402 7.84714,-8.08103 11.49061,-11.6964c2.37017,-3.46726 5.18088,-4.91861 8.70685,-7.26867c2.22112,-1.48038 4.16013,-3.41905 6.5521,-4.60371c0.26797,-0.13272 6.32191,-1.63151 6.86805,-1.76799c4.42471,-1.10568 8.38255,-2.03916 13.02133,-1.66539c2.91685,0.23503 5.72345,1.27523 8.63135,1.60292c1.16876,0.1317 2.38631,-0.22775 3.52804,0.05471c1.23624,0.30584 2.23172,1.25708 3.43697,1.66841c4.69783,1.60328 8.64273,-0.06324 13.24735,2.60469c4.47104,2.59053 8.12483,6.68323 12.2413,9.76c4.29602,3.27685 6.03933,6.55507 8.66227,11.1452c1.39126,2.43471 2.68389,3.26644 3.47086,6.28042c0.54539,2.08874 0.33483,4.31921 0.80596,6.42594c0.60983,2.72695 2.07141,6.1808 2.42865,8.948c0.0401,0.31066 0.03228,6.68326 0.03228,7.60046c0,6.29147 0.2291,12.88145 -2.65422,18.69834c-1.42825,2.88139 -3.31853,5.80871 -5.11242,8.4866c-1.41468,1.41468 -2.75116,2.93203 -3.85323,4.60179l-3.96116,0.04069c-2.96909,3.00806 -6.01785,6.09882 -9.82057,8.01833c-6.33677,3.19863 -13.12338,4.95597 -19.99293,6.6355c-3.99112,0.02132 -8.14452,-0.27978 -12.11702,0.01162c-1.6223,0.119 -3.20076,0.71405 -4.82742,0.71418c-2.86415,0.00024 -5.72079,-1.1122 -8.56056,-0.73935c-0.93502,0.12276 -1.76151,0.83648 -2.70454,0.83043c-7.11668,-0.04564 -14.88371,-5.01854 -20.08093,-9.3648c-0.78413,-0.65574 -1.28087,-1.63667 -2.12932,-2.20675c-2.12088,-1.42504 -4.86702,-1.85892 -6.81091,-3.51729c-1.84952,-1.57787 -2.81561,-3.96478 -4.27478,-5.90932c0,0 -0.19347,-0.25795 -0.34879,-0.65806c-0.99149,-0.33242 -1.48724,-1.32389 -1.48724,-1.32389z" fill="#696969" stroke-width="0.5"></path>
      <path d="M224.16393,187.61804c-0.26915,-0.5383 -0.34392,-1.0118 -0.3023,-1.42052c-0.91482,0.61614 -2.06798,0.32784 -2.06798,0.32784c-1.05265,-0.26332 -8.42244,-1.99817 -9.47624,-2.67944c-7.15672,-4.6267 -5.72319,-13.33835 -1.62323,-19.49329c3.08518,-4.63154 8.75133,-9.80213 14.50537,-10.72035c1.05334,-0.16809 2.14406,0.15086 3.20001,0.00001c2.23196,-0.31886 4.5477,-1.31083 6.72489,-0.72504c2.82267,0.75947 7.0212,4.32686 8.00039,7.07341c0.62655,1.75741 0.64443,3.67544 0.96664,5.51316c-0.00792,1.80221 0.1772,3.61565 -0.02376,5.40663c-0.84359,7.51799 -7.12148,13.0416 -13.34193,16.23172l-3.20776,1.6039c0,0 -2.23607,1.11803 -3.35411,-1.11804zM224.863,184.53909c0.23552,-0.18344 0.41896,-0.27516 0.41896,-0.27516l3.19226,-1.59611c7.23734,-3.64727 10.67973,-8.74547 10.6343,-16.76161c-0.21111,-1.36229 -0.24049,-2.76548 -0.63333,-4.08688c-0.44267,-1.48899 -3.41235,-3.68546 -4.79966,-4.12661c-1.7126,-0.54459 -2.88677,0.6481 -4.47505,0.875c-1.05595,0.15086 -2.14117,-0.12895 -3.20002,0c-4.2228,0.51429 -8.89954,5.1703 -11.0946,8.47967c-2.30195,3.47053 -4.73063,9.85725 -0.02326,12.5067c2.43889,1.37268 5.40856,1.44216 8.12374,2.12056c0,0 2.31319,0.5783 1.85666,2.86443z" fill="#696969" stroke-width="0.5"></path>
      <path d="M158.5952,216.69231c0.22965,0.24739 0.43018,0.57808 0.57654,1.01714c0.79055,2.37171 -1.58116,3.16226 -1.58116,3.16226l-2.4,0.79998l-2.34458,0.78155c-0.26421,0.095 -0.54904,0.14676 -0.84596,0.14676c-1.38071,0 -2.5,-1.11929 -2.5,-2.5c0,-0.69035 0.27981,-1.31535 0.73222,-1.76776h0.00001l2.31918,-2.31921c1.96711,-2.51116 4.24699,-4.76116 6.35995,-7.15104c0.72237,-0.81704 1.18462,-1.86003 1.90911,-2.66656c-1.3948,-0.47078 -2.99877,-1.00775 -3.25359,-2.32107c-0.11865,-0.61152 0.05536,-1.1924 0.38226,-1.742c-1.46135,0.17359 -3.14674,-0.10774 -4.79659,-0.56886l-4.62973,-0.5787c-1.25027,-0.1379 -2.22282,-1.19779 -2.22282,-2.48481c0,-0.92661 0.50412,-1.73548 1.25305,-2.16731l3.96071,-2.37642l0.01261,0.02101l0.07061,-0.06879c3.88684,-1.94342 6.75896,-3.67251 9.83528,-6.77626c0,0 1.76777,-1.76776 3.53553,0c1.76776,1.76776 0,3.53553 0,3.53553c-2.63341,2.61307 -5.15875,4.44445 -8.1379,6.12773c0.58784,-0.01819 1.17417,-0.01617 1.75145,-0.0038c2.17007,0.04651 4.90759,-1.38783 6.51128,0.07489c0.61028,0.55664 0.64466,3.79235 -0.50323,5.27011c1.15204,0.37369 2.27002,0.90743 2.57529,1.95195c0.471,1.61163 -1.10781,3.18785 -1.9238,4.65528c-1.64495,2.95814 -4.26266,5.41275 -6.64569,7.9484z" fill="#696969" stroke-width="0.5"></path>
      <path d="M302.38615,155.2638c-2.36381,-0.8139 -1.54991,-3.1777 -1.54991,-3.1777l0.61658,-1.79073c0.404,-1.17318 2.84389,-8.39802 3.41608,-9.49855c0.39932,-0.76805 1.26461,-1.21355 1.70522,-1.95867c0.17671,-0.29883 -0.56333,0.41367 -0.87816,0.56c-0.61316,0.285 -1.21922,0.67494 -1.89328,0.72814c-2.4269,0.19156 -5.35419,1.4563 -7.30333,-0.00224c-2.33776,-1.74934 1.31979,-6.46712 2.22053,-7.81077c0.16829,-0.25104 0.31928,-0.51771 0.47337,-0.78186c-1.05971,0.03831 -2.10141,-0.14865 -2.14688,-0.1436c-3.00905,0.33435 -6.01878,0.80489 -9.04634,0.81218c0,0 -2.5,0 -2.5,-2.5c0,-2.5 2.5,-2.5 2.5,-2.5c4.03249,0.01077 7.69728,-0.74333 11.69455,-0.78129c1.7579,-0.01669 4.13695,-1.42786 5.27325,-0.08647c2.33742,2.7593 -0.56386,6.48987 -1.99123,8.61021c2.87034,-1.03933 6.90086,-0.71946 8.04932,1.61942c0.91436,1.86212 -0.89364,4.05582 -1.49473,6.04133c-0.95659,3.15971 -2.27613,6.19842 -3.35076,9.31995l-0.61658,1.79073c0,0 -0.8139,2.36381 -3.1777,1.54991z" fill="#696969" stroke-width="0.5"></path>
      <path d="M299.30002,78.5c0,1.9951 -1.59218,2.39803 -2.23529,2.47941c-0.15855,0.51686 -0.35348,1.0135 -0.67798,1.43809c-0.69986,0.91572 -1.67463,1.59875 -2.54688,2.36388c0.43857,0.52451 0.58551,1.1123 0.58551,1.1123c0.73885,2.96268 1.65762,5.83743 2.39996,8.79997l0.80004,3.2c0,0 0.02567,0.10264 0.04532,0.27097c0.82933,0.73739 0.82932,1.93541 0.82932,1.93541l-1.70942,3.1717c-1.49508,0.49837 -3.08614,0.7623 -4.49219,1.47409c-2.15288,1.08985 -3.96285,3.67226 -7.01648,2.39026c-1.23824,-0.51985 -1.2404,-2.38397 -1.92773,-3.53768c-2.06914,-3.47314 -3.74441,-6.73052 -6.59929,-9.60789c-3.26947,1.97138 -6.65926,3.67792 -9.76818,5.78966c0,0 -1.12567,0.75044 -2.2729,0.31915c-0.07165,0.01926 -0.14612,0.03669 -0.22353,0.05217c-2.45146,0.49029 -2.94174,-1.96117 -2.94174,-1.96117l-0.76478,-3.8486c-1.18268,-3.66841 -0.37578,-6.92338 -0.85152,-10.64125c-0.10703,-0.83645 -0.68413,-1.56472 -0.79999,-2.4c-1.082,-7.80097 -0.03228,-16.53241 -0.03228,-24.40045c0,0 0,-2.5 2.5,-2.5c0.49088,0 0.88537,0.09638 1.2024,0.2513c0.85805,-0.41314 1.80397,-0.17665 1.80397,-0.17665c4.66879,1.21619 8.69234,3.80526 13.15034,5.71566c7.21154,3.09037 13.8904,7.06984 20.43005,11.42958l1.64931,2.56208c0,0 0.99483,1.98968 -0.7692,3.15374c0.14425,0.31038 0.23315,0.6929 0.23315,1.1643zM289.01322,86.98011c-2.08011,-1.38677 -0.69333,-3.46688 -0.69333,-3.46688c1.52598,-2.21908 3.90487,-3.37106 4.50847,-5.80384l2.62851,-1.13129c-0.06195,-0.09812 -0.09292,-0.16007 -0.09292,-0.16007l0.04933,-0.63788c-6.27143,-4.18092 -12.65477,-8.00657 -19.56995,-10.97044c-3.94113,-1.68918 -7.6571,-4.16518 -11.74331,-5.30242c0,4.99757 0,9.99515 0,14.99271c0,1.99988 -0.3244,4.02111 -0.03228,5.99954c0.12318,0.83423 0.69755,1.56297 0.79999,2.39999c0.44128,3.60566 -0.45351,6.6921 0.74858,10.15879l0.29863,1.48438c3.39393,-2.07767 6.91273,-3.86571 10.29832,-6.12282l3.95452,1.11234c0,0 0.67535,0.67535 0.77377,1.60862c2.25276,2.44746 3.49137,4.67247 5.22078,7.70435c0.55703,0.97656 1.40999,2.08135 1.44401,3.1665c0.02735,-0.06771 0.05915,-0.12372 0.09534,-0.15748c0.70313,-0.65579 1.53816,-1.17379 2.40002,-1.6c0.10023,-0.04957 1.45108,-0.50539 2.74153,-0.93721c-0.04816,-0.12924 -0.06851,-0.21063 -0.06851,-0.21063l-0.80005,-3.20003c-0.72269,-2.89786 -1.61751,-5.71159 -2.35098,-8.60562c-0.19588,-0.0751 -0.39959,-0.18005 -0.61044,-0.32062z" fill="#696969" stroke-width="0.5"></path>
      <path d="M250.93553,78.08647c0.03826,0.62044 -0.05854,1.27175 -0.18863,1.93066c2.1531,0.21985 2.1531,2.48288 2.1531,2.48288l-2.0097,3.25144l-3.94938,0.78989c-0.17418,0.03842 -0.35519,0.05867 -0.54092,0.05867c-1.38071,0 -2.5,-1.11929 -2.5,-2.5c0,-0.52533 0.16203,-1.01282 0.43885,-1.41521l0.64148,-0.9622c-1.08097,-0.27567 -1.88032,-1.25579 -1.88032,-2.4226c0,-0.82832 0.40284,-1.56254 1.02328,-2.01746l2.81852,-2.11388c0.15392,-0.32578 0.30784,-0.65155 0.46176,-0.97733c-3.01406,0.31473 -6.00407,0.87742 -9.01298,1.8804c0,0 -2.37171,0.79058 -3.16228,-1.58113c-0.79058,-2.37171 1.58113,-3.16228 1.58113,-3.16228c7.901,-2.6337 15.67155,-2.52832 23.99059,-2.52832l-0.38652,4.44028l0.38652,0.55972c-0.14526,0 -0.29033,-0.00006 -0.43523,-0.00018l-0.04668,0.53625c0,0 -1.80765,0.90386 -2.98505,-0.53907c-1.49227,0.00154 -2.96836,0.0122 -4.43299,0.05307c-0.05869,0.55733 -0.26401,0.96797 -0.26401,0.96797c-0.56685,1.08948 -1.13369,2.17895 -1.70054,3.26843z" fill="#696969" stroke-width="0.5"></path>
      <path d="M320.89999,73.70001c0,2.5 -2.5,2.5 -2.5,2.5h-3.19995c-4.90188,-0.02619 -8.97342,-1.98035 -13.80624,-2.40854c-3.31448,-0.29367 -6.86039,0.00852 -10.19376,0.00852c0,0 -2.5,0 -2.5,-2.5c0,-2.5 2.5,-2.5 2.5,-2.5c3.46453,0 7.16499,-0.31125 10.60617,0.00852c4.69632,0.43641 8.69481,2.42191 13.39383,2.39151h3.19995c0,0 2.5,0 2.5,2.5z" fill="#696969" stroke-width="0.5"></path>
      <path d="M283.20004,57.79999c-2.5,0 -2.5,-2.5 -2.5,-2.5l0.41989,0.58679c-0.14047,-0.48499 0.06585,-1.3226 -0.42141,-1.45496c-1.31024,-0.35591 -3.06454,1.15236 -4.06631,0.23593c-0.12641,-0.11564 -0.19114,-0.24577 -0.20936,-0.38684c-0.56827,0.28505 -1.13654,0.57011 -1.70481,0.85516c0,0 -2.23607,1.11803 -3.3541,-1.11803c-1.11803,-2.23607 1.11803,-3.3541 1.11803,-3.3541c1.00959,-0.50302 2.01918,-1.00603 3.02877,-1.50905l2.27413,-1.51605c0.40238,-0.2768 0.88985,-0.43882 1.41517,-0.43882c1.38071,0 2.5,1.11929 2.5,2.5c0,0.14229 -0.01189,0.2818 -0.03472,0.41759c0.2764,-0.27187 0.55941,-0.45664 0.83617,-0.3494c1.35161,0.52373 1.85244,2.23002 2.77866,3.34503l0.41989,2.18676c0,0 0,2.5 -2.5,2.5z" fill="#696969" stroke-width="0.5"></path>
      <path d="M178.50003,172.89999c0,2.5 -2.5,2.5 -2.5,2.5h-1.60004c-3.09831,0 -6.19626,0.00132 -9.29451,-0.01873c-4.35647,1.08914 -8.63283,0.81875 -13.10545,0.81875c-5.05754,0 -10.4102,0.48385 -15.44636,-0.01217c-4.00883,-0.39483 -7.98966,-1.23064 -11.99999,-1.60001c-2.90764,-0.2678 -5.8516,0.26474 -8.75985,0.00365c-3.55986,-0.31959 -7.13265,-1.23915 -10.59426,-1.62377c-2.53203,-0.28133 -5.16451,-0.11706 -7.59012,-0.89599c0,0 -2.37171,-0.79055 -1.58116,-3.16227c0.79055,-2.37171 3.16227,-1.58116 3.16227,-1.58116c2.15378,0.75437 4.5418,0.45197 6.80991,0.70398c3.34255,0.37139 6.76211,1.25908 10.20578,1.57625c2.93429,0.27025 5.90522,-0.25984 8.84012,0.00365c4.01046,0.36005 7.99234,1.19279 12.00001,1.60001c4.86589,0.49443 10.06519,-0.01217 14.95366,-0.01217c4.2878,0 8.3239,0.26139 12.49452,-0.78129c0.22384,-0.0012 0.44768,-0.00232 0.67152,-0.00336c-0.46603,-0.69956 -0.46603,-1.51537 -0.46603,-1.51537c0.01838,-7.35138 1.81297,-14.64137 4.1283,-21.59058c0.65206,-1.95709 1.78401,-5.52579 2.68456,-6.98563c0.6119,-0.99192 1.78184,-1.53703 2.45902,-2.48557c0.69292,-0.9706 0.90682,-2.22956 1.59998,-3.19999c0.6576,-0.92064 1.74088,-1.48046 2.40002,-2.39999c1.28246,-1.78911 1.89176,-4.02698 3.29477,-5.72321c3.15644,-3.81611 7.16492,-7.25763 11.1085,-10.19444l4.29633,-1.74178c0,0 2.32119,-0.92848 3.24967,1.39271c0.92848,2.32119 -1.39271,3.24967 -1.39271,3.24967l-3.70367,1.45823c-3.43397,2.59902 -6.90707,5.69489 -9.69142,9.00557c-1.35078,1.60612 -1.88812,3.76718 -3.10526,5.4768c-0.65616,0.92166 -1.74243,1.47936 -2.40003,2.4c-0.69316,0.97042 -0.90657,2.22973 -1.59997,3.19998c-0.63804,0.89277 -1.75293,1.38804 -2.34103,2.31447c-0.46428,0.73139 -1.71622,4.61757 -2.11537,5.81436c-2.14121,6.42013 -3.89103,13.21472 -3.8717,20.0094c0,0 0,0.80628 -0.45789,1.50307c1.71925,-0.00277 3.43849,-0.00307 5.15784,-0.00307h1.60004c0,0 2.5,0 2.5,2.5z" fill="#696969" stroke-width="0.5"></path>
      <path d="M265.25041,220.86489c-1.56491,-1.94963 0.38473,-3.51454 0.38473,-3.51454l0.53584,-0.4301c3.74768,-3.00806 8.00103,-5.92564 11.40287,-9.32309c6.11404,-6.10616 8.77179,-12.94317 12.1804,-20.59554c0.6829,-1.53311 1.75937,-2.89472 2.27404,-4.49219c0,0 0.79055,-2.37171 3.16227,-1.58116c2.37171,0.79055 1.58116,3.16227 1.58116,3.16227c-0.61455,1.79726 -1.75334,3.37263 -2.52589,5.10785c-3.62743,8.14753 -6.63635,15.4426 -13.13872,21.93659c-3.52929,3.52475 -7.9175,6.56304 -11.80631,9.68455l-0.53584,0.4301c0,0 -1.94963,1.56491 -3.51454,-0.38473z" fill="#696969" stroke-width="0.5"></path>
      <path d="M388.82535,159.49367c0.60634,2.42536 -1.81902,3.0317 -1.81902,3.0317l-2.93892,0.71934c-4.38168,2.19084 -6.88464,2.03126 -11.66692,2.523c-1.57676,0.16213 -2.97746,1.09688 -4.50147,1.53259c-4.72728,1.35149 -9.56863,2.24607 -14.38662,3.19607c-1.4132,0.55285 -2.74701,1.38476 -4.2396,1.65854c-1.59746,0.29302 -3.25759,-0.16154 -4.87231,0.01283c-2.40161,0.25934 -4.64257,1.38067 -7.02531,1.77761c-3.49787,0.5827 -7.13593,0.94541 -10.57473,1.42237c-3.46286,0.4803 -7.08711,-0.37269 -10.55406,0.02011c-2.48097,0.28109 -4.94952,0.80761 -7.44636,0.81219c-4.77461,0.00874 -10.06251,0.63472 -14.80049,-0.03228c-0.73683,-0.10373 -1.35138,-0.76271 -2.09544,-0.76958c-0.8671,-0.008 -1.66514,0.48481 -2.49771,0.72721c0,0 -2.42535,0.60635 -3.0317,-1.819c-0.60635,-2.42535 1.819,-3.0317 1.819,-3.0317c1.30077,-0.29094 2.56943,-0.86428 3.90231,-0.87282c0.94302,-0.00605 1.77121,0.69512 2.70448,0.83046c3.32812,0.48263 7.48187,-0.03228 10.79954,-0.03228c3.61992,0 6.57728,-0.39777 10.15367,-0.78785c3.35684,-0.36614 6.91669,0.51166 10.24587,0.02011c3.45286,-0.50981 7.03161,-0.83158 10.54812,-1.41798c2.39151,-0.3988 4.64301,-1.50719 7.05192,-1.782c1.56574,-0.17862 3.17672,0.29214 4.72766,0.01283c1.33324,-0.24011 2.50693,-1.02765 3.7604,-1.54147c4.82036,-0.97629 9.67845,-1.85198 14.41342,-3.20395c0.58701,-0.16761 4.72406,-1.62311 5.0985,-1.66743c4.9826,-0.58972 6.28191,-0.05139 10.73311,-2.27699l3.46098,-0.88063c0,0 2.42536,-0.60634 3.0317,1.81902z" fill="#696969" stroke-width="0.5"></path>
    </g>
  </g>
</svg>
