<?xml version="1.0" encoding="UTF-8"?>
<svg xmlns="http://www.w3.org/2000/svg" xmlns:xlink="http://www.w3.org/1999/xlink" version="1.1" width="122.78706" height="211.84904" viewBox="0,0,122.78706,211.84904">
  <g transform="translate(-160.98282,-82.69981)">
    <g stroke="none" stroke-width="0.5" stroke-miterlimit="10">
      <path d="M253.78137,266.81803c-0.05622,-0.35282 -0.1267,-0.70119 -0.21448,-1.04365c-0.47223,-1.84251 -1.06682,-3.60623 -1.72531,-5.33697c-0.68715,-0.15678 -1.26652,-0.59667 -1.60888,-1.19045l-2.37642,-3.96071l0.05005,-0.03003c-0.07348,-0.09861 -0.14552,-0.19841 -0.21601,-0.29949c-1.53518,-2.20146 -1.81271,-6.82336 -2.04882,-9.98442c-0.141,-0.40491 -0.20814,-0.80963 -0.09817,-1.21062c-0.00821,-0.08907 -0.01656,-0.17594 -0.0251,-0.26048l0.09868,-0.2655c-0.71995,-1.45815 -1.48173,-3.16595 -1.91725,-4.15314c-0.51627,-0.90014 -1.02997,-1.80316 -1.53253,-2.71133c-0.83414,-1.38733 -1.60131,-2.77653 -2.08245,-3.9753c-0.73582,-1.50899 -1.40933,-3.04028 -1.98359,-4.60361l-0.71465,-1.42933c-0.1829,-0.34741 -0.28642,-0.74312 -0.28642,-1.163c0,-0.11207 0.00737,-0.22241 0.02166,-0.33058c-0.01251,-0.14498 -0.01486,-0.29065 -0.0048,-0.43709c-1.77979,-3.3766 -3.95298,-7.08811 -4.38233,-10.42612c-0.00762,-0.05924 -0.01483,-0.11851 -0.02165,-0.17779l-0.02459,0.00567l-0.38772,-1.68015l-0.34426,0.10593l-0.01819,-0.05911c-0.09789,0.04586 -0.19643,0.09052 -0.29567,0.1339c-0.59517,0.26019 -1.24591,0.28044 -1.90916,0.24664c-0.3954,0.2128 -0.77879,0.44563 -1.14659,0.69883c0,0 -2.08014,1.38674 -3.46687,-0.6934c-0.11731,-0.17597 -0.20981,-0.34697 -0.28086,-0.5126c-0.34274,-0.04957 -0.66298,-0.16867 -0.94596,-0.34255c-0.10376,0.17173 -0.20421,0.34505 -0.2997,0.52073c-0.13582,0.24987 -0.27094,0.50013 -0.40538,0.75074c-1.22474,3.32191 -2.2925,7.28022 -4.20584,10.27427c-0.37812,1.03262 -0.75078,2.06726 -1.1206,3.1028l-0.02504,0.02521l0.01349,0.00522l-1.09726,2.83687c-0.16755,0.46508 -0.46908,0.86618 -0.85802,1.15673c-1.49238,5.10948 -3.18809,10.18217 -4.86002,15.19668l-0.03643,0.04179l0.01845,0.00702l-1.05927,2.78464c-0.30457,0.86058 -1.06702,1.5047 -1.99455,1.63956c-0.5151,0.93438 -1.05026,1.85229 -1.59977,2.76067c-0.86634,3.20272 -1.64532,6.43478 -2.81885,9.63406c-0.95084,2.59218 -2.19043,5.06992 -3.21309,7.63461c-0.04187,0.105 -0.08334,0.21192 -0.12462,0.32048c0.18729,0.35059 0.29347,0.75105 0.29347,1.17631c0,0.90999 -0.4862,1.70643 -1.21299,2.14371c0.00858,0.08427 0.01298,0.16978 0.01298,0.25632c0,1.05134 -0.64897,1.95111 -1.56817,2.32056l-2.74703,1.17729l-0.04415,-0.10302l-0.19911,0.19265c-1.315,0.26725 -2.65456,0.39104 -4.00254,0.41421l-0.19809,0.03962c-0.04218,0.0093 -0.08476,0.01754 -0.12771,0.02469l0.07709,0.38546l-3.94938,0.78986c-0.17418,0.03842 -0.35518,0.05867 -0.5409,0.05867c-0.45535,0 -0.88226,-0.12174 -1.24998,-0.33444c-2.26795,0.88514 -4.56195,1.69618 -6.96102,2.26406c-0.68139,0.16129 -5.86045,1.7492 -6.18899,1.67039c-0.22414,-0.05377 -0.44289,-0.12121 -0.65716,-0.2l-0.02966,0.1038l-2.74688,-0.78483c-1.07386,-0.28053 -1.86633,-1.25722 -1.86633,-2.41899c0,-0.94658 0.52608,-1.77029 1.30181,-2.1947l2.75788,-1.5759l0.00987,0.01727l0.05082,-0.05084c3.21451,-1.59998 6.61539,-2.50177 9.82291,-4.10551c1.99976,-0.67012 4.87503,-1.19522 6.28933,-2.95249c1.3102,-1.62793 1.85221,-3.74934 2.88868,-5.56386c1.46418,-2.5633 3.00796,-4.83069 4.34264,-7.49199c1.8145,-3.61802 3.21596,-7.46954 4.37519,-11.40842l0.16666,-2.44365l0.0536,0.00366c-0.00816,-0.08801 -0.0155,-0.17613 -0.02199,-0.26438c-0.19812,-2.69795 1.44874,-5.2131 2.13168,-7.8307c0.51522,-1.97475 1.01408,-3.9574 1.51886,-5.93959c0.77713,-4.3943 1.17205,-9.23709 3.11562,-13.23988l1.26698,-4.75118c0.21816,-0.8982 0.92146,-1.60665 1.81674,-1.83221c0.06854,-0.42511 0.13174,-0.85013 0.18863,-1.27495c-0.5361,-0.45853 -0.8759,-1.13992 -0.8759,-1.90067c0,-0.41989 0.10351,-0.8156 0.28642,-1.163l0.92893,-1.85789c0.03612,-0.3222 0.1572,-0.9383 0.56298,-1.44876c-0.34405,-0.36888 -0.68167,-0.7429 -1.01403,-1.11956c-0.21153,0.05816 -0.43428,0.08922 -0.66428,0.08922c-1.38071,0 -2.5,-1.11929 -2.5,-2.5c0,-0.34146 0.06846,-0.66694 0.1924,-0.96345l0.02832,-0.07243c-0.94628,-1.14993 -1.81927,-2.35372 -2.35839,-3.72238c-0.45521,-1.15561 -1.35161,-3.36668 -1.92369,-5.54457c-0.68541,-0.44584 -1.13864,-1.21858 -1.13864,-2.09718c0,-0.33667 0.06655,-0.65779 0.18721,-0.95093l0.45313,-1.17814c-0.15411,-0.32461 -0.24034,-0.6877 -0.24034,-1.07093c0,-0.25848 0.03923,-0.50781 0.11206,-0.74234l0.78415,-2.74448l0.12439,0.03554l-0.03028,-0.30544c1.46743,-2.66405 2.83995,-5.37501 4.30378,-8.03876c0.52903,-2.62896 3.23281,-6.48818 4.27928,-8.31886l0.07843,-0.05114l-0.03193,-0.02129l1.5785,-2.36773c0.12619,-0.1954 0.2789,-0.37208 0.45302,-0.52494c0.72604,-2.57375 1.28491,-5.20439 1.56101,-7.96933c0,0 0.06732,-0.6732 0.48213,-1.28417l-0.2924,-0.68229l0.11671,-0.05002c-0.07533,-0.08659 -0.15066,-0.17318 -0.226,-0.25977l0.07354,-0.34163l-0.14126,0.02018l-0.39391,-2.75743c-0.02054,-0.12902 -0.03121,-0.26132 -0.03121,-0.39612c0,-0.78506 0.36186,-1.4856 0.92788,-1.94393c-0.33698,-1.54518 -0.60853,-3.03031 -0.5216,-3.47884c0.01147,-0.0592 0.02343,-0.11828 0.03585,-0.17722h-0.04214v-2.96188c-0.7369,-0.64655 -1.40905,-1.45889 -2.00583,-2.49074c-0.71727,-1.24019 -1.6368,-2.99683 -1.70907,-4.64053l-0.13919,0.0464c-0.2642,0.09498 -0.54902,0.14674 -0.84592,0.14674c-0.85186,0 -1.60421,-0.42606 -2.05557,-1.07671c-0.24647,0.12712 -0.51679,0.21447 -0.80249,0.25354c-0.06361,0.16982 -0.14516,0.33088 -0.24235,0.48086l-1.97957,3.16731l-0.03422,-0.02139c-0.07275,0.12571 -0.14922,0.24956 -0.22982,0.37133c-0.92885,1.40328 -2.64112,2.08623 -3.96168,3.12934l-0.0517,0.01535l0.01051,0.01471l-2.77635,1.98309c-0.41378,0.3034 -0.92435,0.48257 -1.47676,0.48257c-0.3256,0 -0.63666,-0.06224 -0.92193,-0.17548c-0.35714,1.05352 -0.93093,1.91587 -1.8393,2.32898l-0.07216,0.0902c-0.45772,0.5823 -1.16848,0.95629 -1.9666,0.95629c-0.64312,0 -1.22953,-0.24284 -1.67252,-0.64183c-2.39061,1.89441 -3.48039,1.35042 -3.9138,-0.04969c-0.04351,-0.02575 -0.08619,-0.05302 -0.128,-0.08184c-4.4333,-3.0562 -0.36777,-7.93364 2.87795,-8.88392l0.42332,-0.35276c0.1334,-0.11277 0.27877,-0.21182 0.43394,-0.29497l1.56606,-1.30504c0.43538,-0.36806 0.99831,-0.58994 1.61306,-0.58994c0.04614,0 0.09199,0.00125 0.13751,0.00372l0.22493,-0.19279c0.43866,-0.38059 1.01121,-0.61093 1.63756,-0.61093c0.14867,0 0.29431,0.01298 0.43584,0.03786c2.30871,-1.19719 4.76041,-2.18288 6.08913,-2.745l0.33668,0.03888l-0.01523,-0.1066l1.57223,-0.22461c2.87419,-2.05525 5.8721,-3.82838 8.8469,-5.92832l0.40066,0.02644l-0.05679,-0.17036l2.34463,-0.78155c0.2642,-0.09499 0.54902,-0.14675 0.84594,-0.14675c0.19267,0 0.38024,0.02179 0.5604,0.06305l0.32334,-0.36953c0.39459,-0.80762 0.87764,-1.57041 1.41687,-2.23556c-0.25344,-0.39101 -0.40061,-0.8573 -0.40061,-1.35796c0,-0.4199 0.10352,-0.81562 0.28643,-1.16303l1.17752,-2.35501l0.05237,0.02618c0.02859,-0.09263 0.05902,-0.18481 0.09143,-0.27651c0.68872,-1.94842 2.62485,-3.19268 3.9245,-4.79941l0.27141,-0.10268l-0.06538,-0.08172l0.75271,-0.60216c1.23637,-1.51237 3.09841,-3.26808 3.84124,-4.01343v0v0l2,-2c0.38107,-0.38107 0.88459,-0.63969 1.44647,-0.71178l1.60076,-1.92091l0.06993,0.05828l0.10061,-0.24317c0.07989,-0.03418 0.15978,-0.06837 0.23968,-0.10255l-0.05141,-0.06426l1.98445,-1.58757c0.43024,-0.35028 0.97924,-0.56027 1.57729,-0.56027c0.92816,0 1.73818,0.5058 2.16946,1.2568c2.01766,-0.64212 4.22083,-1.09369 5.91411,-2.3891l1.41476,-2.12217c0.44513,-0.68926 1.22011,-1.14553 2.10164,-1.14553c1.27326,0 2.32421,0.95186 2.48007,2.18281l0.39483,2.7636l-0.05279,0.00754c-0.09314,0.29078 -0.39594,0.63644 -0.16031,0.71794c0.45726,0.15817 0.92591,-0.212 1.39073,-0.40433l-0.00606,-0.04244l2.75741,-0.39393c0.12902,-0.02054 0.26133,-0.03121 0.39614,-0.03121c1.38071,0 2.5,1.11929 2.5,2.5c0,1.05133 -0.64896,1.9511 -1.56815,2.32055l-2.46806,1.05775c-0.37408,0.36738 -0.83344,0.86859 -1.31223,1.30167c0.21042,0.00884 0.4187,0.03566 0.62283,0.08692c1.13847,0.28588 2.18414,0.89483 3.17299,1.52728c3.3531,2.14456 5.10962,6.84032 6.23888,10.56041c2.2342,7.36002 1.23398,15.87604 -3.13278,22.17132c-1.31676,1.89829 -3.00005,3.55429 -4.67987,5.17224l0.1216,0.16213c2.2201,2.14468 4.47852,4.09712 6.86651,6.08756c0.85093,0.70927 2.11655,1.13525 2.51953,2.16712c0.1866,0.4778 0.39238,0.99514 0.57455,1.52758c0.31303,0.15098 0.50593,0.3053 0.50593,0.3053c1.64848,1.31877 3.48551,3.35184 5.58368,3.96589c1.61089,0.47144 5.20398,0.15723 6.3753,1.20199c3.92923,3.50467 1.24353,6.97771 0.973,10.96152c-0.19906,2.93137 0.00398,6.06767 -0.41787,8.96953c-0.96611,6.6457 -4.50385,12.999 -8.61302,18.12054c-1.61283,1.617 -4.1747,3.4645 -5.26677,5.5274c-1.57547,2.97604 -1.63962,5.6848 -4.88173,7.73192c-1.12947,0.71316 -2.14907,1.01084 -3.19128,1.12813c0.59173,2.24515 1.37568,8.35875 1.45894,8.94144c0.82896,5.80197 1.2559,11.64464 1.67219,17.48902l-0.02222,0.07638l0.02417,-0.00025l0.0184,1.77154c2.0255,0.29442 2.0255,2.46713 2.0255,2.46713c0,4.43063 -0.30344,8.91472 0.38152,13.29662l-0.01436,0.0791l0.02257,-0.00205l0.39716,4.36884c0.00866,0.08465 0.0131,0.17055 0.0131,0.25749c0,0.39384 -0.09107,0.76641 -0.2533,1.09779c0.13954,0.45571 0.27936,0.91133 0.41952,1.36686l-0.00208,0.02342l0.00825,-0.00238l0.91356,3.16554c0.07411,0.2364 0.11406,0.48791 0.11406,0.74876c0,0.13497 -0.0107,0.26743 -0.03128,0.3966l0.25187,0.67163c0.11573,0.28795 0.17941,0.60242 0.17941,0.93177c0,0.39147 -0.08998,0.76192 -0.25038,1.09181c0.0195,0.56631 -0.07422,1.14637 -0.19438,1.72804c0.96546,0.06978 1.98476,0.30231 2.83701,0.4448c1.17413,0.19631 2.04147,1.23098 3.00348,1.93217c3.42632,2.49738 7.86471,5.96279 9.79362,9.83038c0.82658,1.65735 2.50288,3.57625 1.75642,5.2712c-0.69714,1.58296 -3.18275,1.40821 -4.86855,1.79532c-0.19231,0.04416 -5.24175,-0.02388 -5.62188,0.00146c-3.22032,0.21469 -7.44345,1.76645 -10.60641,0.65553c-1.15821,-0.4068 -2.19853,-1.20979 -3.00326,-2.16107c-0.45056,0.43955 -1.06647,0.71038 -1.74565,0.71038c-1.38071,0 -2.5,-1.11929 -2.5,-2.5c0,-0.38089 0.08518,-0.74188 0.23753,-1.06497l1.47523,-3.31932l-0.24884,-0.49768l0.06466,-0.03233c-0.10517,-0.20573 -0.20141,-0.41654 -0.28731,-0.63323c-0.26616,-0.67143 0.58684,-6.22507 0.78386,-7.60604l0.3948,-2.7636c0.04091,-0.32314 0.14351,-0.62705 0.29561,-0.89956c-0.01035,-0.25514 -0.02173,-0.51023 -0.03419,-0.76525zM257.50618,177.13094c-0.00381,0.00671 -0.00762,0.01343 -0.01143,0.02014c0.00085,-0.00017 0.0017,-0.00035 0.00254,-0.00052c0.00296,-0.00654 0.00592,-0.01308 0.00888,-0.01962z" fill="#0024a3"></path>
      <g fill="#324aa3">
        <path d="M243.2,138.95c-1.75,0 -1.75,-1.75 -1.75,-1.75l0.18476,-1.58264c1.23516,-2.46482 2.31464,-4.89232 3.63966,-7.27472c1.09438,-1.96773 1.89017,-5.31766 3.86338,-6.66548c0.48469,-0.33107 1.21295,0.40008 1.75274,0.1695c0.26096,-0.11147 -0.20824,-0.53632 -0.23201,-0.81909c-0.05505,-0.65499 -0.23753,-1.35804 -0.00255,-1.9719c0.0176,-0.04598 0.03564,-0.09174 0.05409,-0.13731l-0.03625,-0.00604l0.39526,-2.37162c0.1253,-0.84353 0.85253,-1.49068 1.73092,-1.49068c0.9665,0 1.75,0.7835 1.75,1.75l0,0.43736c0.39999,0.50843 0.39999,1.16263 0.39999,1.16263v2.40001c0,0.53624 -0.24118,1.01614 -0.62099,1.33715c-0.12131,0.84563 -0.51696,1.6984 -1.21951,2.41619c-0.52546,0.53686 -1.58925,-0.1929 -2.24726,0.1695c-1.0714,0.59008 -1.14824,2.16038 -1.69448,3.25478c-1.52127,3.0479 -2.86704,6.12789 -4.40252,9.205l0.18476,0.01736c0,0 0,1.75 -1.75,1.75z"></path>
        <path d="M240.88437,108.31011c-0.08893,0.04935 -0.17806,0.0992 -0.26721,0.14963c-0.55421,0.5557 -1.15393,1.05933 -1.80243,1.48904l-0.19135,0.0096l0.02658,0.06644l-0.55682,0.22273c-0.25346,0.24818 -0.48685,0.51439 -0.69311,0.80243c0,0 -1.04999,1.40001 -2.45,0.35002c-0.79514,-0.59635 -0.79998,-1.3056 -0.65574,-1.80714c-0.02897,-0.12629 -0.04427,-0.25779 -0.04427,-0.39287c0,-0.48325 0.19588,-0.92076 0.51257,-1.23744l1.17083,-1.17082c0.1126,-0.3043 0.22153,-0.60988 0.32627,-0.91678c0.0221,-0.25424 0.08013,-0.42835 0.08013,-0.42835l0.32023,-0.82294c0.05959,-0.20008 0.11716,-0.40073 0.17257,-0.60198l0.07973,-0.0464l0.08766,-0.22528l1.18779,-1.58371c0.31844,-0.43431 0.8324,-0.71629 1.41222,-0.71629c0.9665,0 1.75,0.7835 1.75,1.75c0,0.32794 -0.0902,0.63481 -0.24716,0.89716c0.26234,-0.15695 0.56921,-0.24715 0.89715,-0.24715c0.9665,0 1.75,0.7835 1.75,1.75c0,0.57982 -0.28198,1.09378 -0.7163,1.41222l-1.58371,1.18778l-0.11853,-0.15804l-0.43109,0.25865l-0.0264,-0.044z"></path>
        <path d="M189.44662,268.86019c-1.6602,-0.5534 -1.1068,-2.21359 -1.1068,-2.21359l0.49494,-1.42919c4.31386,-8.62789 7.99796,-17.389 9.87388,-26.86656c0.88371,-2.58087 0.28477,-4.06229 0.77294,-6.68177c0.62671,-3.36285 3.38681,-6.16911 3.99102,-9.54938c0.53136,-2.97272 0.0206,-5.96414 0.84215,-8.99124c1.05181,-3.87556 3.22119,-7.55714 3.96926,-11.47165c0,0 0.15109,-0.75544 0.754,-1.16361c-0.06437,-0.06016 -0.12805,-0.12055 -0.19098,-0.18107c-1.03647,-0.58146 -2.07412,-1.19191 -3.16833,-1.76856c-3.10435,-3.97536 -6.2287,-8.85106 -6.2287,-14.14357c0,-5.25197 1.97582,-10.0077 4.81201,-14.24528c0.58176,-1.55871 1.30307,-3.08263 2.20394,-4.59684c0.96684,-1.93369 2.03861,-3.6766 3.33403,-5.40787l2.20003,-0.70001c0,0 1.75,0 1.75,1.75c0,0.29456 -0.04958,0.53954 -0.13205,0.74329c0.00649,0.00636 0.01299,0.01278 0.01948,0.01928c1.23744,1.23744 0,2.47487 0,2.47487c-2.17728,2.17728 -4.37143,4.58668 -6.20028,7.22572c-0.577,1.61753 -0.98636,3.27536 -1.30975,5.01715c-0.41743,2.24834 -2.04973,4.25626 -1.60001,6.63937c0.15638,0.82865 0.65015,1.57014 0.80002,2.39999c0.37644,2.08443 0.00645,3.84641 1.02269,5.86813c0.87932,1.74934 2.67059,4.02939 4.11037,5.57777c1.7807,0.97764 3.47412,1.92416 5.63819,2.35697l0.12605,0.11568l0.02523,-0.06307l1.96215,0.78486c0.66463,0.24817 1.13791,0.8888 1.13791,1.63997c0,0.9665 -0.7835,1.75 -1.75,1.75c-0.09436,0 -0.18697,-0.00747 -0.27728,-0.02184l-2.77022,-0.39574l0.00927,-0.06492c-0.0944,0.00266 -0.18892,0.00368 -0.28358,0.00291c-0.83835,-0.00683 -1.72434,-0.31488 -2.59033,-0.79365c-0.85196,3.97414 -2.92369,7.65949 -4.0026,11.59477c-0.79404,2.89622 -0.2321,5.75242 -0.75789,8.60879c-0.63053,3.42542 -3.42031,6.29667 -4.00898,9.65064c-0.444,2.52973 0.01268,4.33799 -0.82703,6.91821c-1.95891,9.69941 -5.70503,18.69111 -10.12612,27.53346l-0.30505,0.97077c0,0 -0.5534,1.6602 -2.21359,1.1068z"></path>
        <path d="M240.27823,193.16596c-0.57097,-0.65183 -1.07608,-1.37299 -1.62179,-2.04466c-1.09631,-1.34936 -3.29823,-1.49775 -4.57776,-2.57775c-0.97837,-0.8258 -4.12328,-3.79957 -4.75919,-4.81051c-1.00935,-1.6046 -1.53044,-5.19807 -1.84568,-7.04535c0,0 -0.28771,-1.72619 1.43847,-2.0139c1.72619,-0.28771 2.0139,1.43847 2.0139,1.43847c0.70106,4.32645 2.0946,6.8513 5.39512,9.74415c1.50368,1.31795 3.55819,1.3799 5.02228,3.02226c0.72874,0.81748 1.21144,1.89016 2.10642,2.5213l-1.44999,3.15c0,0 -1.49662,0 -1.72178,-1.38404z"></path>
        <path d="M248.41736,185.56524c-1.56524,-0.78264 -0.78261,-2.34788 -0.78261,-2.34788l0.70994,-1.38519c0.482,-2.51726 0.82984,-4.00335 1.53756,-5.46966l-0.40695,-0.16278l1.28473,-3.21182c0.11786,-0.31565 0.32424,-0.58814 0.58895,-0.78727c0.08756,-0.91017 0.10322,-1.86891 0.10101,-3.00065c0,0 0,-1.75 1.75,-1.75c1.75,0 1.75,1.75 1.75,1.75c-0.0054,3.02848 -0.14916,5.26281 -1.25748,8.06078l-0.37012,1.85064c-0.10939,0.60905 -0.53391,1.10872 -1.09875,1.32421c-0.1658,0.78946 -0.37886,1.61514 -0.56831,2.53219l-0.8901,1.81482c0,0 -0.78264,1.56524 -2.34788,0.78261z"></path>
        <path d="M257.63476,180.01737l1.07268,-0.90425c0.19258,-0.49765 0.3757,-0.99268 0.54336,-1.49508c0.25324,-0.75884 0.4712,-1.53447 0.63322,-2.36125c0,0 0.34322,-1.71601 2.05924,-1.37279c1.71601,0.34322 1.37279,2.05924 1.37279,2.05924c-0.46235,2.27223 -1.25865,4.22552 -2.11959,6.37368l-0.06273,0.04996l0.03155,0.01578l-0.78306,1.56608c-0.28061,0.59192 -0.8836,1.00127 -1.58219,1.00127c-0.9665,0 -1.75,-0.7835 -1.75,-1.75c0,-0.24379 0.04985,-0.47593 0.13991,-0.68679l0.38485,-0.9621c-0.33701,-0.73974 0.05999,-1.53374 0.05999,-1.53374z"></path>
      </g>
      <path d="M215.16257,142.43743l-0.87857,-1.29423c-0.9027,-4.72368 -3.42581,-9.07493 -4.89494,-13.71713l-0.85961,-0.19648l-0.69185,0.96859c-0.3161,0.45439 -0.84211,0.75181 -1.43759,0.75181c-0.50455,0 -0.95922,-0.21352 -1.2786,-0.55513c-0.21996,0.09965 -0.4642,0.15514 -0.7214,0.15514c-0.42464,0 -0.81396,-0.15125 -1.11702,-0.40281l-0.08296,0.16592l-0.24286,-0.12143c-0.2771,0.67004 -0.61477,1.3076 -1.04256,1.89223l-0.73238,1.46479c-0.2806,0.59193 -0.8836,1.0013 -1.58221,1.0013c-0.62605,0 -1.17532,-0.32875 -1.4846,-0.82303c-0.83115,-0.13593 -1.46541,-0.85738 -1.46541,-1.72698c0,-0.33963 0.09675,-0.65666 0.26419,-0.92504l1.16294,-1.93821c0.68796,-1.29649 1.71625,-2.43355 2.87288,-3.33676c0,0 0.17899,-0.13424 0.45696,-0.24272l0.72886,-0.54666c0.29487,-0.22619 0.66381,-0.36062 1.06416,-0.36062c0.13475,0 0.26595,0.01523 0.39196,0.04406l0.99584,-1.32778c0.31844,-0.43431 0.8324,-0.71629 1.41222,-0.71629c0.25349,0 0.49439,0.0539 0.71186,0.15085l1.07589,-1.43454c0.31844,-0.43432 0.8324,-0.71631 1.41223,-0.71631c0.9665,0 1.75,0.7835 1.75,1.75c0,0.25857 -0.05608,0.50403 -0.15673,0.72491l-0.13299,0.31033c0.1831,0.27659 0.28973,0.60822 0.28973,0.96477c0,0.1001 -0.00841,0.19825 -0.02455,0.29376c0.97025,0.26141 1.19058,1.36305 1.19058,1.36305c0.85254,4.35092 2.98267,8.32312 4.46398,12.46681c0.44796,0.33424 0.64485,0.82647 0.64485,0.82647c0.60761,1.51906 1.15381,3.04132 1.80842,4.50777c0.05487,-0.00519 0.11048,-0.00784 0.16672,-0.00784c0.89129,0 1.62695,0.6663 1.73605,1.52797l0.07797,0.54572c0.01238,0.00544 0.02471,0.01098 0.03699,0.0166c0.03147,-0.93886 0.80248,-1.6903 1.749,-1.6903c0.33963,0 0.65665,0.09675 0.92503,0.26418l1.97534,1.1852l-0.0107,0.01784c0.04476,0.0204 0.08929,0.04143 0.13358,0.0631c2.20668,1.08 4.19887,3.08214 6.30037,4.89138c0.01804,-0.00286 0.03617,-0.00545 0.05438,-0.00775l2.77452,-0.39636l0.00698,0.04886l0.37577,-0.04697l1.92156,-0.38549c0,0 1.13109,-0.22622 1.74033,0.60698l0.08683,-0.43417l0.05945,0.01189c-0.00111,-0.07877 -0.00072,-0.15765 0.00129,-0.23664c0.01613,-0.63216 0.60392,-1.1145 0.83851,-1.70175c0.62956,-1.57603 0.7648,-2.96459 1.79709,-4.35354c1.39657,-1.8791 3.47815,-2.79477 4.76746,-4.75324c0.13967,-0.21216 0.2735,-0.42559 0.4021,-0.64016c0.1605,-0.42142 0.3998,-0.8139 0.6615,-1.1972c1.46732,-2.8767 2.22153,-5.91278 3.65457,-8.82829l0.05667,-0.04433l-0.02321,-0.01393l1.18351,-1.9725c0.30228,-0.52425 0.86849,-0.87713 1.51711,-0.87713c0.02948,0 0.05878,0.00073 0.0879,0.00217c0.7748,-3.07025 1.30368,-6.41627 1.36208,-9.45217c0.04215,-2.1913 -1.75967,-4.69959 -2.55447,-6.68931l-1.08492,-1.44653c-0.22618,-0.29487 -0.36061,-0.66381 -0.36061,-1.06415c0,-0.23076 0.04466,-0.45109 0.12582,-0.65281c-1.15873,-0.58962 -2.22761,-1.23681 -3.0707,-2.43738c-0.18614,-0.26507 -0.07132,-0.65176 -0.01873,-1.00682c-0.45502,0.27798 -1.2894,0.56882 -2.12379,-0.26556c-0.03624,-0.03624 -0.07035,-0.07247 -0.10244,-0.10868c-0.87291,-0.26149 -1.44107,-1.09464 -1.60885,-3.19593c-0.11041,-1.38273 1.25717,-2.50182 1.58045,-3.8509l-0.34066,-1.7033c-0.02689,-0.12192 -0.04107,-0.24862 -0.04107,-0.37863c0,-0.9665 0.7835,-1.75 1.75,-1.75c0.57983,0 1.09379,0.28199 1.41223,0.71631l1.18776,1.58371l-0.07821,0.05865c0.12354,0.1359 0.23711,0.28116 0.33839,0.43794c0.49384,0.76444 0.25332,1.80962 0.08324,2.73012c0.09106,-0.048 0.18239,-0.09533 0.27396,-0.14199l1.56849,-0.78424c0.24319,-0.12803 0.52019,-0.2005 0.81411,-0.2005c0.9665,0 1.75,0.7835 1.75,1.75c0,0.42417 -0.15091,0.8131 -0.40197,1.11601c0.00131,0.02783 0.00198,0.05583 0.00198,0.08398c0,0.57982 -0.28198,1.09378 -0.7163,1.41222l-1.58371,1.18778l-0.05672,-0.07563c-0.08859,0.09482 -0.18136,0.18608 -0.27898,0.27322c-0.13036,0.11637 -0.27765,0.20137 -0.43654,0.26427c0.00558,0.00952 0.01131,0.01896 0.01717,0.02833c0.37964,0.60637 2.27088,1.4408 2.88772,1.74456l1.16432,2.01579l0.93381,0.2668l-0.03467,0.12135c0.2276,0.05574 0.45172,0.12609 0.67153,0.21468c0.40021,0.16129 1.1995,1.99423 1.7027,3.24744c0.5634,0.1389 1.01936,0.55068 1.21965,1.08712l0.78485,1.96215l-0.11484,0.04593l0.02673,0.08018l0.1817,0.19288c0.00103,0.1116 0.00116,0.22295 0.00045,0.33407c0.95653,1.53574 1.04042,4.07336 0.91111,6.48084c0.58687,2.84909 0.9614,5.74022 1.08858,8.70497l-0.11027,0.20514l0.07763,0.01657l-0.36741,1.72164c-0.15291,0.79549 -0.84445,1.39938 -1.68025,1.4173c0.06969,3.83369 -3.62027,8.74675 -5.83363,11.69425c-0.62485,0.8321 -2.60516,3.1258 -4.37894,4.51243l0.80032,0.40016c0.16169,0.03292 0.31886,0.0674 0.47196,0.10345l-0.02609,-0.1826c-0.01438,-0.09031 -0.02185,-0.18293 -0.02185,-0.27728c0,-0.9665 0.7835,-1.75 1.75,-1.75c0.29523,0 0.57339,0.07311 0.81735,0.20221c0.28041,-0.59243 0.88367,-1.00221 1.58264,-1.00221c0.59548,0 1.12149,0.29742 1.43759,0.75181l1.98644,2.78102l-0.03337,0.02384c0.03619,0.03022 0.07238,0.06045 0.10858,0.09067l0.01448,0.14581l0.05154,-0.02577l0.13912,0.27825l1.87824,0.93912l-0.0961,0.1922c0.18364,0.0452 0.36727,0.09041 0.55091,0.13561l0.11061,0.56341l0.2172,-0.1086l0.78427,1.56852c0.12804,0.24319 0.2005,0.52019 0.2005,0.81412c0,0.9665 -0.7835,1.75 -1.75,1.75c-0.29393,0 -0.57093,-0.07246 -0.81411,-0.2005l-1.56852,-0.78426l0.10991,-0.21982c-0.04204,0.00302 -0.08449,0.00456 -0.1273,0.00456c-0.57654,0 -1.08796,-0.2788 -1.4068,-0.70894c-0.07722,0.05333 -0.15895,0.1006 -0.24448,0.14115l-0.27755,0.13878c-0.15026,0.48249 -0.50372,0.8754 -0.96025,1.0786l-1.748,0.82408l-0.04019,-0.08524l-0.13964,0.15812c-1.23902,0.27861 -2.51068,0.42102 -3.78943,0.459l0.05384,0.37687l-2.50702,0.35814c-0.86365,1.33098 -2.83306,4.35865 -3.59223,4.62549l-0.37301,0.46627c-0.99547,1.63724 -1.83547,3.24635 -2.54274,5.12154c0.75732,0.19252 1.3175,0.87892 1.3175,1.69615c0,0.18093 -0.02746,0.35545 -0.07843,0.51962l-0.77336,2.70682c0.28079,0.31042 0.4518,0.72202 0.4518,1.17356v2.5c-0.00339,3.39906 0.4193,6.37689 0.35983,9.49553l0.05879,0.17638l0.35758,-0.0596l0.39457,2.36747c0.0192,0.10381 0.02923,0.21084 0.02923,0.32022c0,0.9665 -0.7835,1.75 -1.75,1.75c-0.69897,0 -1.30223,-0.40978 -1.58264,-1.00221c-0.24397,0.1291 -0.52212,0.20221 -0.81735,0.20221c-0.75117,0 -1.3918,-0.47327 -1.63997,-1.1379l-0.66585,-1.66459c-0.03119,0.00165 -0.0626,0.00249 -0.0942,0.00249c-0.69861,0 -1.3016,-0.40936 -1.58221,-1.00129l-0.78303,-1.56608l0.01985,-0.00992l-0.04216,-0.03639c-0.22132,-0.51674 -0.47409,-1.02558 -0.71486,-1.53299c-0.20088,-0.08813 -0.38204,-0.21291 -0.53501,-0.36588v0l-1.60001,-1.59999l0.11319,-0.11319c-0.12801,-0.07893 -0.25602,-0.15785 -0.38403,-0.23678l-0.02285,-0.45002l-0.15154,0.0433l-0.78888,-2.76114c-0.05098,-0.16417 -0.07843,-0.33869 -0.07843,-0.51962c0,-0.07704 0.00498,-0.15291 0.01463,-0.22732c-0.64417,-0.73792 -1.35254,-1.38472 -2.17894,-1.7751c-0.93768,-0.44294 -1.55597,-0.33023 -2.17356,-0.29709l-0.11214,0.14952l-0.11374,-0.0853c-0.03807,0.11162 -0.07615,0.22323 -0.11422,0.33485l-0.35119,0.06854l0.07952,0.13253l-1.33859,0.80315c-0.27305,0.45875 -0.54239,0.91742 -0.82737,1.34758l-0.2142,1.07104c-0.25035,1.50744 -0.14963,2.68732 -0.63937,3.54464c0.11766,0.18636 0.20112,0.39648 0.24154,0.62154l0.39367,1.96821v0l0.00001,0.00001c0.70018,3.50094 1.71025,6.90815 2.40185,10.40942c0.1275,0.6455 0.54269,1.34344 0.41917,1.9644l0.64045,1.60115c0.3517,0.1747 0.63628,0.46423 0.80471,0.81953l0.78303,1.5661l-0.10544,0.05272l0.19546,0.16196c0.06547,0.32861 0.14539,0.64826 0.23746,0.96055c0.53237,0.49548 0.71326,1.36034 0.95245,2.37284c0.88131,1.78481 1.9982,3.44783 2.77965,5.38462c0,0 0.13201,0.33002 0.1283,0.75209c1.1491,0.49536 2.20303,1.11696 2.30705,1.74443c0.04322,0.26074 0.0739,0.50421 0.09289,0.73148c1.51613,0.67527 2.98088,1.48083 4.24898,1.71872c0.763,0.14314 1.56654,-0.16185 2.32888,-0.01524c1.04333,0.20066 1.9215,0.92464 2.89404,1.35479c0.28361,-0.58387 0.88232,-0.98634 1.57503,-0.98634c0.77076,0 1.42514,0.49828 1.65858,1.19029l0.02877,0.07911c0.30337,-0.51999 0.8672,-0.86941 1.51263,-0.86941c0.42456,0 0.81381,0.15119 1.11685,0.40266c0.24049,-0.90294 1.06862,-1.12798 1.46646,-1.18406c2.94695,-2.29948 4.59947,-4.56267 6.32808,-7.98864c1.03274,-1.38038 2.92008,-2.77432 3.43334,-4.44791c0.59178,-1.92964 0.93561,-4.12301 2.31171,-5.75336c1.31998,-1.56387 3.12179,-2.36945 4.25495,-4.19873c2.90635,-4.69176 4.15967,-10.37718 4.13863,-15.87996c0,0 0,-1.75 1.75,-1.75c1.75,0 1.75,1.75 1.75,1.75c-0.02024,6.11295 -1.38343,12.51208 -4.66135,17.72002c-1.24041,1.97075 -3.10217,2.95503 -4.5451,4.60129c-1.08757,1.24083 -1.17913,3.20837 -1.68829,4.64663c-0.76154,2.15119 -2.44049,3.38959 -3.76661,5.15209c-1.50442,3.04163 -3.11101,5.31385 -5.37618,7.40621c0.71645,0.2191 1.23751,0.88558 1.23751,1.67376c0,0.5451 -0.24922,1.03199 -0.63994,1.35294l-0.63643,0.53036c0.0023,0.00581 0.0046,0.01162 0.00689,0.01743c0.96613,2.45042 0.94241,6.82468 1.17918,9.42646c0.3092,3.39769 0.58222,6.79544 0.73583,10.19481c0.15994,0.14968 0.29176,0.32904 0.38669,0.52929l0.78303,1.5661l-0.03731,0.01865c0.0659,0.11592 0.12474,0.23629 0.17524,0.3619c0.01383,0.0344 0.02726,0.06887 0.0403,0.10343c0.88529,0.08687 1.577,0.83344 1.577,1.74156c0,0.05969 -0.00299,0.11867 -0.00882,0.17682l-0.30877,3.4647l-0.00655,-0.00058c0.00107,0.0116 0.00213,0.0232 0.00316,0.0348c0.21974,2.46806 -0.48074,5.46854 -0.82093,8.17529c0.22914,6.31855 0.35674,12.66305 0.37113,18.96236c0.89643,0.07594 1.60031,0.82761 1.60031,1.74369c0,0.07401 -0.00459,0.14694 -0.01351,0.21854l-0.25238,2.27131c0.4507,-0.23985 0.91589,-0.23985 0.91589,-0.23985c3.12066,0.06082 8.46743,1.58703 11.04268,3.54455c1.16233,0.88352 1.83161,2.35537 3.07734,3.11681c1.4581,0.89125 4.61544,1.67018 3.95489,4.39578c-0.49378,2.03745 -5.21852,1.64287 -6.4749,1.64287c-5.08358,0 -10.20853,0.40831 -15.34435,0.39403c-1.52006,-0.25334 -3.51456,0.29655 -4.80243,-0.34634c-0.29303,0.22116 -0.65782,0.35231 -1.05323,0.35231c-0.9665,0 -1.75,-0.7835 -1.75,-1.75c0,-0.33963 0.09675,-0.65666 0.26419,-0.92504l1.18521,-1.97534l0.07096,0.04258c0.00877,-0.02603 0.01773,-0.05203 0.02685,-0.078l0.02344,-0.14117c0.01481,-0.01478 0.0297,-0.02952 0.04466,-0.0442c0.19571,-0.51094 0.45058,-1.00917 0.70327,-1.49564l-0.11004,-1.98074l0.19137,-0.01063c-0.00006,-0.49883 -0.00014,-0.99767 -0.00024,-1.4965c-0.97821,-5.75235 -0.71675,-11.82788 0.00032,-17.57698v-0.25653c-0.34896,-0.11544 -0.64928,-0.33772 -0.86219,-0.6281l-2.0878,-2.78369l0.02196,-0.01647c-0.05058,-0.05876 -0.1003,-0.11838 -0.14909,-0.17892c-0.55614,-0.68993 -2.22354,-5.99662 -2.51646,-6.88745c-0.58777,-1.78752 -1.15165,-3.57823 -1.69698,-5.37327c-0.05353,-0.07744 -0.10097,-0.1594 -0.14164,-0.2452l-0.78303,-1.5661l0.03023,-0.01511c-0.04408,-0.0696 -0.08589,-0.14091 -0.12517,-0.21411c-0.30542,-0.56901 -0.5413,-2.24077 -0.7117,-3.87213c-0.3928,-1.38793 -0.77808,-2.77915 -1.15826,-4.17417c-0.38773,-1.42273 -0.86804,-2.82508 -1.23684,-4.23793c-1.61529,-2.46363 -2.52254,-7.08149 -3.38367,-9.61234l-0.00142,-0.07831l-0.01843,0.00453l-0.36474,-1.48383c-0.11525,0.00547 -0.22895,0.01062 -0.34064,0.01582l-0.2593,-1.06095l-0.48963,0.19585l-0.78525,-1.96315c-0.09006,-0.21086 -0.1399,-0.44299 -0.1399,-0.68677c0,-0.54073 0.24524,-1.02418 0.63057,-1.34519c-0.70969,-0.30529 -1.41293,-0.64772 -2.14701,-0.92157c-0.14255,0.12132 -0.30481,0.22019 -0.4813,0.29113l-2.19265,0.93971c-0.36842,0.20117 -0.75985,0.34059 -1.1869,0.38439c-5.27417,0.54092 -4.81699,-1.83472 -3.34103,-3.7427c-0.2985,-0.31388 -0.4817,-0.73844 -0.4817,-1.20579c0,-0.0691 0.00401,-0.13727 0.0118,-0.20428c-0.04679,0.02884 -0.09403,0.05978 -0.14175,0.09293c-3.03106,2.10525 -5.73011,5.60906 -7.35478,8.89398c0,0 -0.04001,0.08003 -0.12004,0.19484l-0.56699,1.91852l-0.02693,-0.00796c-0.01168,0.06309 -0.02419,0.12609 -0.03757,0.18899c-0.16706,0.78526 -0.63286,1.45778 -1.09456,2.13313l-0.25607,1.48411l-0.02661,-0.00459c-0.00371,0.06027 -0.00812,0.12054 -0.01326,0.18082c-0.00207,0.02432 -2.55928,6.49567 -2.62572,6.64397c-0.17619,0.39324 -0.3539,0.78666 -0.53337,1.17998l-1.01561,2.79292l-0.25012,-0.09095c-0.14559,0.30186 -0.29254,0.60326 -0.44096,0.90406c-1.03751,4.22682 -2.81235,8.26928 -4.83253,12.20262c0.01649,0.09651 0.02509,0.19571 0.02509,0.29692c0,0.20784 -0.03623,0.40722 -0.10273,0.59216l-0.7871,2.36124l-0.44113,-0.14705c-0.53568,3.06468 -1.62933,6.0471 -3.07012,8.85491c-0.00639,0.18577 -0.04174,0.36419 -0.10167,0.53088l-0.78707,2.36124l-0.04101,-0.01367c-0.01407,0.07657 -0.02974,0.15295 -0.04713,0.22914c-0.22317,0.97752 -1.16054,1.63921 -1.65847,2.5095c-0.09477,0.16563 -0.18766,0.33083 -0.27892,0.49552c0.07451,0.1944 0.11533,0.40549 0.11533,0.6261c0,0.21078 -0.03727,0.41286 -0.10557,0.60001c0.06557,0.17967 0.10254,0.37309 0.10539,0.57477c0.20101,-0.08048 0.42042,-0.12476 0.65017,-0.12476c0.9665,0 1.75,0.7835 1.75,1.75c0,0.41863 -0.147,0.80294 -0.39219,1.1041l-1.5913,1.98911l-0.92907,0.94421c0,0 -1.23744,1.23744 -2.47487,0c-0.00118,-0.00118 -0.00237,-0.00237 -0.00354,-0.00355l-1.65491,1.32394c-0.29019,0.23625 -0.65755,0.38134 -1.05844,0.39161c-0.97602,0.98539 -2.15208,1.86451 -3.64897,2.60871c-2.753,1.3687 -5.3795,1.39464 -8.17477,2.47762c-2.86527,1.1101 -5.33555,2.02266 -8.45102,2.10759l-2.69361,0.38482c-0.09032,0.01438 -0.18294,0.02185 -0.2773,0.02185c-0.9665,0 -1.75,-0.7835 -1.75,-1.75c0,-0.61707 0.31938,-1.15955 0.80186,-1.47115l2.35753,-1.57168c0.04778,-0.03287 0.09728,-0.06343 0.14833,-0.09151c0.12429,-0.09959 0.25406,-0.19653 0.38882,-0.291c-0.06255,-0.18 -0.09654,-0.37336 -0.09654,-0.57466c0,-0.63662 0.33994,-1.19384 0.8482,-1.50006l2.94231,-1.83893l0.01374,0.02199c0.04208,-0.03419 0.08452,-0.06798 0.12737,-0.10135c0.95114,-0.74092 2.25441,-0.85712 3.36507,-1.32622c4.88185,-2.06191 9.806,-3.93245 14.75542,-5.82521l0.77473,-0.4304c0.41321,-0.98957 0.85727,-1.92817 1.39776,-2.69832l0.7006,-1.75145l0.0127,0.00508l0.05349,-0.15084c0.00371,-0.00586 0.00742,-0.01171 0.01113,-0.01757c-0.00043,-0.00048 -0.00085,-0.00096 -0.00128,-0.00144l0.00447,-0.0036c0.0314,-0.04964 0.06252,-0.0993 0.09336,-0.14898l-0.00514,-0.00342l0.09407,-0.14111c1.16957,-1.91786 1.93807,-3.85962 2.73416,-5.87168c-0.43762,-0.31811 -0.72214,-0.83407 -0.72214,-1.41649c0,-0.33963 0.09675,-0.65665 0.26418,-0.92503l1.67158,-2.78598c0.2559,-0.47342 0.50789,-0.94822 0.75609,-1.42449c-0.17061,0.0555 -0.35273,0.08551 -0.54186,0.08551c-0.9665,0 -1.75,-0.7835 -1.75,-1.75c0,-0.29393 0.07246,-0.57093 0.2005,-0.81411l1.18427,-2.36854l0.01818,0.00909c0.01547,-0.04318 0.0314,-0.08622 0.04783,-0.12913c0.75794,-1.97944 2.21179,-4.03229 3.74213,-6.032c-0.47748,-0.3125 -0.79292,-0.85208 -0.79292,-1.46533c0,-0.20784 0.03623,-0.40722 0.10273,-0.59216l0.7871,-2.36124l0.03288,0.01096c0.01657,-0.07573 0.03494,-0.15121 0.05526,-0.22642c0.36832,-1.36328 1.27511,-2.77921 2.34216,-4.19269c-0.07754,-0.1978 -0.12011,-0.41315 -0.12011,-0.63845c0,-0.31985 0.08581,-0.61966 0.23566,-0.87766l1.68431,-3.03176l0.23953,0.13307c0.16639,-0.30608 0.32921,-0.60598 0.49279,-0.89886c-0.8247,-0.14133 -1.4523,-0.85976 -1.4523,-1.72478c0,-0.48325 0.19588,-0.92075 0.51256,-1.23744l1.60001,-1.60001c0.17464,-0.17421 1.43715,-1.38286 2.31416,-2.27219c-0.24009,-0.05984 -0.48859,-0.17638 -0.70241,-0.3891c-0.51128,-0.10327 -1.1373,-0.43445 -1.30049,-1.41359c-0.28769,-1.72619 1.4385,-2.01388 1.4385,-2.01388c1.01898,-0.00242 2.27463,-0.58132 3.1986,-0.35231c0.68666,-0.23009 1.36748,-0.47679 2.03915,-0.74632l0.17921,0.31666c2.38271,-3.39153 5.62839,-6.56224 9.3146,-6.57807c-0.106,-0.09335 -0.2006,-0.19932 -0.28147,-0.31557l-0.91564,-1.28189c-0.02892,-0.02536 -0.057,-0.05166 -0.08419,-0.07885l-2,-2l0.02447,-0.02447c-0.06018,-0.04892 -0.11946,-0.09913 -0.17777,-0.15073c-1.4376,-1.27226 -2.1507,-3.20257 -2.59639,-5.22738l-0.0377,0.01508l-0.78528,-1.96315c-0.09006,-0.21086 -0.13991,-0.44301 -0.13991,-0.68679c0,-0.38989 0.1275,-0.75 0.34309,-1.04091c-0.091,-0.60691 -0.18307,-1.18927 -0.2904,-1.72958l-0.77424,-2.70989c-0.05098,-0.16417 -0.07843,-0.33869 -0.07843,-0.51962c0,-0.60905 0.31113,-1.14543 0.78312,-1.45887c-0.30381,-1.2347 -0.60597,-2.47001 -0.87925,-3.71428c-0.6467,-0.25706 -1.10388,-0.88857 -1.10388,-1.62686v-1.85634c-0.89628,-0.07608 -1.60001,-0.82769 -1.60001,-1.74366c0,-0.20784 0.03623,-0.40722 0.10273,-0.59216l0.7871,-2.36124l0.06181,0.0206c0.0174,-0.10149 0.03768,-0.20266 0.06115,-0.3035c0.38189,-1.64079 3.78711,-5.24413 4.83704,-6.52461l0.39253,-0.0544l-0.07497,-0.14993l1.56852,-0.78426c0.24319,-0.12803 0.52019,-0.2005 0.81411,-0.2005c0.61835,0 1.1618,0.32071 1.47308,0.80486c2.52336,0.09557 4.45608,1.65897 6.06175,3.56233l0.0999,-0.1998l0.17915,0.08957c-0.02331,-0.55546 0.2776,-1.01416 0.44339,-1.22296c0.22568,-0.69241 0.50641,-1.41193 0.85213,-2.30802c0.12576,-0.59718 0.24995,-1.09656 0.54129,-1.3905l1.1671,-2.33419c0.21094,-0.44497 0.60406,-0.78677 1.08303,-0.92906l0.07479,-0.17451c0.18117,-0.45075 0.54451,-0.80866 0.99889,-0.98261c0.27705,-0.62842 0.57039,-1.23657 0.88035,-1.83385c-0.00321,-0.04333 -0.00485,-0.0871 -0.00485,-0.13125c0,-0.41863 0.14699,-0.80293 0.39218,-1.10409l1.09556,-1.36947c0.22467,-0.36566 0.45601,-0.73248 0.69412,-1.10274c0.17751,-0.39557 0.40308,-0.76496 0.65962,-1.11771c-1.69127,0.31973 -3.45808,0.31941 -5.09355,-0.0028c-2.76992,-0.54573 -5.99015,-3.09354 -8.30626,-4.65379c-0.26011,-0.17523 -0.55301,-0.36008 -0.86426,-0.55511l0.4608,1.84321c0.04027,0.14733 0.06177,0.3024 0.06177,0.4625c0,0.9665 -0.7835,1.75 -1.75,1.75c-0.55869,0 -1.05623,-0.2618 -1.37663,-0.66942l-0.90434,-1.13044c-0.32081,0.3676 -0.79278,0.59987 -1.31901,0.59987c-0.6986,0 -1.30159,-0.40935 -1.5822,-1.00127l-0.33443,-0.66884c-0.03354,0.11788 -0.07913,0.23068 -0.13534,0.337l0.16089,0.80448c0.02689,0.12192 0.04107,0.24862 0.04107,0.37863c0,0.9665 -0.7835,1.75 -1.75,1.75c-0.57981,0 -1.09377,-0.28198 -1.41221,-0.71628l-1.18779,-1.5837l0.09197,-0.06898c-0.12672,-0.13342 -0.24478,-0.27531 -0.35217,-0.42763c-0.46264,-0.65622 -0.38832,-3.06015 -0.01197,-5.08418l-0.05599,-0.39196c-0.01438,-0.09031 -0.02185,-0.18293 -0.02185,-0.27728c0,-0.1887 0.02987,-0.37043 0.08513,-0.54071c-0.60116,-0.99455 -1.09756,-2.04221 -1.54939,-3.11405c-0.26289,-0.14751 -0.42317,-0.3078 -0.42317,-0.3078zM246.8,147.75c-0.29368,0 -0.57047,-0.07234 -0.81351,-0.20018l-0.63353,0.76024c-0.32095,0.39072 -0.80784,0.63994 -1.35294,0.63994c-0.19134,0 -0.37551,-0.03071 -0.54785,-0.08746l-0.08338,0.4169c0.71325,-0.12261 1.42651,-0.23982 2.14202,-0.34707l-0.06419,-0.19256l2.19989,-0.73329c-0.06529,-0.1255 -0.11581,-0.25991 -0.14928,-0.40092c-0.21363,0.0929 -0.44942,0.14441 -0.69724,0.14441zM239.00476,179.59583c-0.01735,-0.37768 -0.02727,-0.7602 -0.03182,-1.14177c-0.17951,0.06217 -0.37228,0.09594 -0.57293,0.09594c-0.04937,0 -0.09826,-0.00204 -0.14659,-0.00605zM273.5706,284.65003c-0.29948,-0.284 -0.57556,-0.59751 -0.84407,-0.91795c-0.07369,0.06079 -0.14234,0.1097 -0.19861,0.14672c-0.04596,0.28709 -0.16175,0.55087 -0.32941,0.77336c0.41059,-0.00101 0.89004,-0.00176 1.3721,-0.00212zM256.53209,284.66597c0.06498,0.00514 0.12986,0.01187 0.19465,0.01993c0.02761,-0.08999 0.06229,-0.17689 0.10338,-0.26005c-0.09832,0.0803 -0.19773,0.16036 -0.29803,0.24013zM251.52586,229.72283c-0.10449,-0.99737 -0.22293,-1.99597 -0.35696,-2.9968c0.07433,3.47341 0.0663,6.95252 -0.27599,10.35696c0.05314,-0.4425 0.10014,-0.83246 0.13311,-1.14697c0.2168,-2.06805 0.37915,-4.13949 0.49984,-6.21319zM240.86905,215.31841c-0.1747,-0.02965 -0.35129,-0.0394 -0.52889,-0.03814c0.16728,0.07308 0.32845,0.16104 0.48211,0.26729c0.12411,0.08582 0.23457,0.18349 0.33372,0.29094l0.80656,-0.11522c-0.38928,-0.19364 -0.76411,-0.34898 -1.09351,-0.40488zM186.77646,276.36069c-0.00976,0.02019 -0.0199,0.04016 -0.0304,0.05991c0.3077,-0.08546 0.61134,-0.17527 0.91101,-0.2715c-0.01894,0.00061 -0.03796,0.00091 -0.05706,0.00091c-0.12282,0 -0.24268,-0.01265 -0.35835,-0.03672c-0.15521,0.08313 -0.31027,0.16561 -0.46521,0.2474z" fill="#001769"></path>
      <path d="M239.60093,112.69832c0.11223,-0.45848 0.20003,-0.92333 0.2729,-1.38603c0,0 0.28772,-1.72619 2.0139,-1.43847c1.72619,0.28772 1.43847,2.0139 1.43847,2.0139c-0.26852,1.54227 -0.67418,3.08811 -1.36095,4.4949l-1.74773,-1.71357l-1.38278,0.14834c0.17608,-0.34124 0.32554,-0.69592 0.4536,-1.05936l-0.1861,-0.18247c0,0 0.1224,-0.48962 0.49868,-0.87725z" fill="#ffffff"></path>
      <path d="M236.72073,101.79501c-0.16516,0.26313 -0.43685,0.50625 -0.87081,0.67983c-1.62484,0.64993 -2.27476,-0.97491 -2.27476,-0.97491l-0.78525,-1.96315c-0.09006,-0.21086 -0.1399,-0.44299 -0.1399,-0.68677c0,-0.9665 0.7835,-1.75 1.75,-1.75c0.57981,0 1.09377,0.28198 1.41221,0.71628l1.18779,1.5837c0,0 1.01388,1.35182 -0.27928,2.39502z" fill="#000000"></path>
      <path d="M222.284,128.5275c0,0 -0.9275,1.484 -2.41149,0.5565c-1.484,-0.9275 -0.5565,-2.41149 -0.5565,-2.41149c1.21839,-1.90629 2.73832,-3.70778 4.60514,-4.98582l0.11754,-0.00934l-0.0213,-0.04259l1.56852,-0.78426c0.24319,-0.12803 0.52019,-0.2005 0.81411,-0.2005c0.41533,0 0.79687,0.14469 1.09696,0.38641l0.6531,-0.26124l0.29364,0.73409l1.81727,-0.07262c-0.1707,0.33922 -0.34763,0.68216 -0.5332,1.02335c0.05152,0.05995 0.09905,0.12342 0.14217,0.19001h0.93006c0.94568,0 1.71617,0.75012 1.74892,1.68782c0.45373,0.14975 0.82533,0.4801 1.0297,0.90594l0.1346,-0.05384c0.21086,-0.09006 0.443,-0.13991 0.68678,-0.13991c0.9665,0 1.75,0.7835 1.75,1.75c0,0.24378 -0.04985,0.47592 -0.1399,0.68677l-0.37564,0.93911c0.23124,-0.11267 0.49101,-0.17588 0.76554,-0.17588c0.9665,0 1.75,0.7835 1.75,1.75c0,0.29392 -0.07246,0.57092 -0.20049,0.8141l-0.78424,1.56852l-0.0435,-0.02175c-0.03104,0.08832 -0.06495,0.17582 -0.10208,0.26238c-0.96107,2.24088 -4.98546,4.43677 -6.84041,5.82811l-0.57926,-0.12449v0.22314h-2c-0.94141,0 -1.70919,-0.74335 -1.74843,-1.6751c-1.65575,-0.70268 -2.73485,-2.14062 -2.31293,-4.14901l-0.68737,-0.34369c-0.59192,-0.28061 -1.00127,-0.8836 -1.00127,-1.5822c0,-0.66992 0.37643,-1.25193 0.92932,-1.54603c-0.217,-0.21127 -0.37935,-0.47838 -0.46385,-0.77813c-0.01052,0.01722 -0.02102,0.03444 -0.03148,0.05166z" fill="#bd7614"></path>
      <path d="M231.16791,133.86803c1.06292,-1.10001 2.28209,-2.68771 2.28209,-3.86803c0,-3.25982 -3.91821,-5.78991 -6.5932,-6.28398c0,0 -1.71602,-0.3432 -1.37282,-2.05922c0.3432,-1.71602 2.05922,-1.37282 2.05922,-1.37282c4.25353,0.89938 9.4068,4.70737 9.4068,9.71602c0,3.32464 -3.2168,6.36941 -5.5966,8.06019l-0.5534,-0.1722v0.262h-2c-0.9665,0 -1.75,-0.7835 -1.75,-1.75c0,-0.75118 0.47328,-1.39181 1.13792,-1.63998l1.96215,-0.78485c0,0 0.4772,-0.19088 1.01783,-0.10713z" fill="#794c0d"></path>
      <path d="M161.45001,284.8c0.00224,-0.04486 0.00487,-0.08964 0.0079,-0.13434c-0.10102,-0.11993 -0.19295,-0.25164 -0.27469,-0.3961c-0.64728,-1.14391 0.38326,-2.4475 1.52456,-3.45884c2.75013,-4.72697 9.36173,-8.36804 13.63485,-10.73631c1.65326,-0.91628 3.92374,-1.29461 5.49402,-2.33538c1.99931,-1.32512 3.41365,-3.70875 4.42202,-5.96403c-0.00572,-0.05756 -0.00864,-0.11595 -0.00864,-0.17501c0,-0.20783 0.03623,-0.40721 0.10272,-0.59215l0.78707,-2.36124l0.01904,0.00635l-0.00206,-0.05488c0.93743,-2.34543 1.63322,-4.67729 2.34797,-6.96986c0.0477,-0.75921 0.28002,-1.64538 0.58926,-2.55976c0.89505,-5.49271 1.92863,-11.17343 3.87177,-16.33513l-0.43336,-0.0963l0.75179,-3.383c0.07316,-0.36482 0.25977,-0.68864 0.52145,-0.9331l0.53375,-2.3382l0.02058,0.0047l-0.00727,-0.059c0.11182,-0.37696 0.2195,-0.75461 0.32336,-1.1329c-0.28583,-3.03394 1.69518,-6.76345 1.78073,-9.74989l0.04706,-0.08793l-0.03629,-0.00519l0.39639,-2.77453c0.04389,-0.34664 0.18918,-0.66166 0.40521,-0.9144c0.27286,-1.82594 0.54367,-3.65385 0.84578,-5.47875c-0.49144,-0.67999 -0.93007,-1.42401 -1.65852,-2.26351c-0.43692,-0.50353 -1.17488,-0.68648 -1.60001,-1.2c-1.58119,-1.90994 -1.72971,-4.40498 -2.34171,-6.64976c-1.50509,-5.52058 -2.09996,-10.22457 -2.03315,-16.00249c0.86673,-2.23406 1.20429,-4.51331 2.10163,-6.73875c0.9698,-2.40514 2.76635,-4.47266 4.12815,-6.65034c3.78482,-6.05239 7.27109,-11.92369 13.2781,-15.77394c-2.05663,-5.10401 -2.01558,-10.70088 -2.57232,-16.1318c-0.08525,-0.03702 -0.17167,-0.08184 -0.25599,-0.1361c-0.90505,-0.00573 -1.8252,-0.17266 -2.72887,-0.10362c-0.83257,0.06361 -3.76931,1.6709 -4.46891,2.12647c-2.33629,1.52133 -3.22826,4.69967 -5.54012,6.3587c-0.547,0.39254 -1.10514,0.6601 -1.67413,0.84048c-1.69426,0.75238 -3.49331,1.23107 -5.18695,1.19986c-0.9994,0.21122 -1.98504,0.1673 -2.89586,-0.22143c-0.52491,-0.22402 -0.87505,-0.67659 -1.17071,-1.19297c-0.07298,-0.05988 -0.14511,-0.12185 -0.21636,-0.18597c-0.15558,-0.05975 -0.30894,-0.12372 -0.46015,-0.19204c-0.58996,0.18676 -1.1725,-0.00742 -1.1725,-0.00742l-1.54695,-0.55958c-0.82939,-0.54517 -1.92399,-0.81892 -2.48817,-1.6355c-4.48288,-6.48835 2.85376,-16.24537 9.38646,-17.5683c1.76213,-0.35685 2.72126,-0.07488 4.04075,0.3891c1.39583,-0.43184 2.76036,-0.91227 4.04442,-1.48233c5.28897,-2.34808 9.72722,-6.12867 15.56962,-7.31878c0.02067,-0.01888 0.04203,-0.03736 0.06412,-0.05538c2.09438,-8.99516 7.3645,-15.15454 15.66693,-18.03572c0.32999,-0.39422 0.76626,-0.56872 0.76626,-0.56872l0.00001,-0.00001c3.06585,-1.21646 4.90137,-2.95555 7.32788,-5.12176c0.86147,-0.76905 1.53215,-2.32969 2.67922,-2.19633c1.19298,0.1387 1.72787,1.71799 2.2981,2.775c0.19361,0.35888 -0.29602,0.83549 -0.1458,1.21458c0.07377,0.18619 0.31615,-0.24775 0.48845,-0.34984c0.8579,-0.50829 1.82862,-0.81866 2.65891,-1.37091c2.35719,-1.56783 4.26248,-3.92636 6.27397,-5.90066l0.687,-1.37398c0.28061,-0.59192 0.8836,-1.00127 1.5822,-1.00127c0.9665,0 1.75,0.7835 1.75,1.75c0,0.10937 -0.01003,0.2164 -0.02923,0.32021l-0.39457,2.36749l-0.23823,-0.0397c0.0374,0.95619 -0.00235,1.90952 -0.16311,2.84746c-0.08015,0.46765 -0.22421,1.23431 -0.44258,1.81963c0.5318,-0.12269 1.09063,-0.14789 1.63002,-0.24128c1.03504,-0.1792 5.27369,-1.02078 5.92512,-0.31125c2.25241,2.45331 -1.92484,7.28046 -3.21945,8.89406l-0.56436,0.42883c7.21275,4.86175 10.44291,14.66533 9.06772,23.03006c-0.90461,4.449 -3.50333,7.59281 -5.33144,11.61575c-0.90398,1.98931 -2.09371,3.93802 -3.51701,5.73482c2.76842,3.17571 5.83134,4.70886 9.15617,7.17324l0.18809,-0.26333l2.78104,1.98644c0.04056,0.02822 0.07987,0.0581 0.11783,0.08957c0.02782,-0.00131 0.05582,-0.00198 0.08397,-0.00198c0.40034,0 0.76928,0.13443 1.06415,0.36061l1.13453,0.8509c0.8649,0.19564 1.80845,0.356 2.89618,0.53236l0.2821,0.38493l0.11625,-0.14531l1.98738,1.58991c0.01623,0.01276 0.03223,0.0258 0.048,0.03912c1.86047,0.76707 4.56542,2.28976 5.06219,3.02542v-0.00001c2.08132,3.08216 -0.03505,8.10968 -2.06042,11.65053c1.84615,11.69529 -4.09308,23.09917 -12.0929,31.09899l-0.07218,0.34518c0,0 -0.51583,1.03167 -1.54749,1.0011c-0.57891,2.8854 -1.46718,5.74099 -3.81344,7.42694c-0.27704,0.49022 -0.49141,0.99973 -0.71308,1.42302h-0.00001c0.16412,0.26652 0.25879,0.58037 0.25879,0.91633c0,0.9665 -0.7835,1.75 -1.75,1.75h-2.40002c-0.00493,0 -0.00986,-0.00002 -0.01478,-0.00006c-0.06484,-0.00026 -0.12869,-0.00045 -0.1916,-0.00057c0.15823,0.21821 0.23123,0.40072 0.23123,0.40072l0.00001,0.00005c1.67445,4.3455 1.50343,9.57634 2.27673,14.21461c0.65368,3.92078 1.2368,7.85527 1.76648,11.79801c0.11702,0.5737 0.23099,1.14786 0.33963,1.72277c1.3423,0.24815 1.3423,1.71453 1.3423,1.71453l-0.02381,0.51229c1.07766,6.55909 0.83863,13.23606 0.82383,19.88771c-0.00467,2.09852 1.03818,4.9389 0.39403,6.94434c-0.01492,0.04645 -0.03043,0.09264 -0.0465,0.13858l0.02866,0.00478l-0.28156,1.68943c0.08744,0.03237 0.13796,0.05763 0.13796,0.05763c2.26834,1.13921 4.61321,2.09116 6.82011,3.21022c3.15562,1.60013 6.2695,4.79178 9.06903,6.97161c1.07656,0.83826 4.34566,2.93263 3.8467,4.51434c-0.2725,0.86383 -1.07862,1.34974 -1.98582,1.73479c0.26027,0.30548 0.41737,0.70156 0.41737,1.13433l0.00001,0.00003c0,0.69861 -0.40936,1.30161 -1.0013,1.58221l-1.5661,0.78303c-3.6038,1.79827 -6.71503,1.8221 -10.63826,2.17878c-4.45897,0.40539 -9.22991,1.21034 -13.68046,1.20481c-2.96173,-0.00368 -6.17649,-0.79714 -9.11139,-1.21644c0,0 -1.47144,-0.21022 -1.5084,-1.59927c-0.07977,0.01113 -0.16126,0.01689 -0.2441,0.01689c-0.9665,0 -1.75,-0.7835 -1.75,-1.75c0,-0.13001 0.01418,-0.25671 0.04107,-0.37863l0.39291,-1.96457c0.95802,-4.79016 1.89716,-9.61307 2.78863,-14.33715c0.36473,-1.93276 -0.25885,-4.08175 -0.41666,-5.97532c-0.24857,-2.9826 -0.25948,-5.95835 -0.75435,-8.92251c-1.93401,-5.78682 -3.25482,-11.70555 -5.15689,-17.4539c-1.60891,-4.86237 -2.48178,-9.951 -3.88233,-14.86189c-0.43659,-1.16817 -0.88628,-2.33086 -1.36934,-3.47948c-0.81574,-1.04721 -1.62936,-2.09583 -2.45955,-3.13339l-0.00002,0.00003c0,0 -0.85777,-1.0722 -0.10395,-2.07692c-0.41061,-0.70096 -0.84829,-1.3905 -1.3185,-2.06629h-1.07096c-0.00531,0.0864 -0.01386,0.13771 -0.01386,0.13771c-0.62003,3.56114 -2.39212,6.27647 -3.7094,9.58198c-2.09026,5.24518 -3.50363,10.75661 -5.6,15.99999c-1.47494,3.68908 -3.58021,7.59173 -4.36151,11.49826c-2.67684,5.45772 -4.90245,10.93361 -7.2385,16.50176c-0.89828,2.14113 -1.12183,3.95186 -2.14137,5.94964c0.41056,0.32025 0.67457,0.81963 0.67457,1.38066c0,0.57982 -0.28198,1.09378 -0.71629,1.41222l-1.58368,1.18776c-4.03358,3.00459 -8.62944,4.5366 -13.40828,5.39206c-0.94875,0.25563 -1.90357,0.49406 -2.86253,0.72134c-2.07404,1.00312 -4.146,1.76219 -6.67688,2.32397c-1.24303,0.27592 -2.5002,0.91064 -3.75558,0.69782c-0.08617,-0.01461 -0.17183,-0.03098 -0.25701,-0.049l-0.0044,0.03963l-3.11887,-0.34654c-2.13381,0.19725 -4.26895,0.36234 -6.21549,-0.05073c-0.38358,0.01259 -0.76725,0.01996 -1.15098,0.02147h-2.40001c-0.62709,0 -1.17713,-0.32983 -1.48613,-0.82547zM202.06862,210.40965c0.10255,-0.89075 0.20145,-1.78126 0.29933,-2.67012l-0.02718,0.00817c-0.145,0.91311 -0.28425,1.8266 -0.42183,2.73989c0.04846,-0.02829 0.0984,-0.05432 0.14967,-0.07794zM211.34792,154.57704c-0.01258,-0.01866 -0.02481,-0.03758 -0.03669,-0.05675c-0.3049,0.23212 -0.60213,0.47089 -0.89226,0.71586c0.03568,0.07366 0.06383,0.14779 0.08555,0.22166c0.27552,-0.30125 0.55598,-0.59566 0.84339,-0.88078zM209.04993,126.82483c-1.62484,0.64993 -2.27476,-0.97491 -2.27476,-0.97491l-0.70074,-1.79255c-0.30109,-0.3944 -0.60219,-0.78879 -0.90328,-1.18319l-1.67794,1.34235l-0.25295,-0.31619c-0.00576,0.00632 -0.01153,0.01263 -0.0173,0.01894c0.47214,0.7053 0.87833,1.45421 1.20187,2.23079l0.01259,-0.18752c0,0 0.29445,0.29445 0.45245,0.73971c0.58501,0.0296 1.09424,0.34647 1.38944,0.81238c0.01667,-0.00433 0.0333,-0.00873 0.04991,-0.01321l0.13092,0.07971l0.85309,-0.34123c0.21086,-0.09006 0.44299,-0.1399 0.68677,-0.1399c0.10937,0 0.2164,0.01003 0.32022,0.02923l2.30411,0.38401c-0.25164,-2.28588 -0.24853,-4.58338 -0.08541,-6.90632c-0.75351,0.15774 -1.48712,0.38675 -2.20681,0.66264c0.2645,0.35768 0.529,0.71537 0.79349,1.07305l0.89924,2.20745c0,0 0.64993,1.62484 -0.97491,2.27476zM201.17517,127.44993c-0.17075,-0.45272 -0.38813,-0.89176 -0.6433,-1.30929l-1.31776,0.65888c-0.24319,0.12803 -0.52019,0.2005 -0.81411,0.2005c-0.02816,0 -0.05616,-0.00067 -0.084,-0.00198c-0.05391,0.04468 -0.11054,0.08619 -0.16961,0.12424l0.90363,0.67772c0,0 0.73443,0.55082 0.74046,1.38649c0.59185,-0.37206 1.17451,-0.75819 1.7428,-1.16421l0.05999,-0.04799zM196.95002,130.6l-1.60001,-1.2c0,0 -0.2643,-0.19822 -0.4771,-0.53726l-1.02301,0.41209c0,0 -0.31395,0.12558 -0.72104,0.12833c-0.73013,0.67447 -1.55024,0.39302 -1.94361,0.18908c-0.08679,0.18504 -0.20503,0.35241 -0.34783,0.4952l-1.60001,1.59999l-0.20351,-0.20351c-0.05199,0.0513 -0.1051,0.10333 -0.15911,0.15606c-1.52216,2.76104 -2.87273,5.62139 -1.50815,8.45351c0.67256,0.0792 1.35315,0.11492 2.01471,0.13337c0.0471,-0.03217 0.09386,-0.06249 0.14026,-0.09047c1.03741,-0.62571 2.19897,-1.41662 3.00752,-2.3602c0.04041,-0.1251 0.08069,-0.25024 0.12085,-0.37542v-2.15078c0,-0.27311 0.06256,-0.53162 0.17414,-0.76196c-0.10741,-0.2213 -0.17414,-0.49631 -0.17414,-0.83805c0,-0.74131 0.31402,-1.1686 0.67603,-1.41488c0.16814,-0.23605 0.42878,-0.45184 0.82402,-0.60994c1.04657,-0.41864 1.68868,0.10648 2.01317,0.53327c0.10885,-0.08708 0.21771,-0.17415 0.32656,-0.26123l0.14021,-0.11684c0.0731,-0.46593 0.36251,-0.81051 0.59401,-1.01852c-0.171,-0.08463 -0.27395,-0.16184 -0.27395,-0.16184zM272.55342,171.66019c0,0 -1.66019,0.5534 -2.2136,-1.10679c-0.5534,-1.66019 1.10679,-2.2136 1.10679,-2.2136l2.39999,-0.8c0,0 0.36476,-0.12159 0.80932,-0.0798c0.15953,-0.77309 0.32574,-1.53565 0.52377,-2.2591c0.37094,-1.35516 1.80407,-6.63474 0.22914,-7.76009c-0.77162,-0.55135 -2.83955,0.28863 -4.44556,1.04028c-0.07919,0.28202 -0.19159,0.46937 -0.19159,0.46937c-1.59525,2.65872 -2.92099,5.31578 -4.17373,8.09956h1.00209c0,0 1.75,0 1.75,1.75l-0.00002,-0.00002c0,1.75 -1.75,1.75 -1.75,1.75h-0.72459c0.077,0.17624 0.12582,0.36762 0.14075,0.56842c0.0832,-0.01214 0.1683,-0.01843 0.25487,-0.01843c0.9665,0 1.75,0.7835 1.75,1.75c0,0.33963 -0.09675,0.65666 -0.26419,0.92504l-0.04957,0.08261c0.25551,-0.00973 0.4359,0.02635 0.4359,0.02635c0.66667,0.13333 1.33333,0.26666 2,0.39999l1.1155,0.2231c0.52756,-0.80248 1.03013,-1.6224 1.34814,-2.59818c0.07115,-0.21832 0.13822,-0.44099 0.20196,-0.66717zM268.4568,177.31602c0,0 -1.06254,-0.21251 -1.34821,-1.13918c-0.19069,0.43008 -0.38771,0.85551 -0.59042,1.28056c0.06659,0.18507 0.10288,0.38459 0.10288,0.5926c0,0.24379 -0.04985,0.47593 -0.13991,0.68679l-0.78528,1.96315l-0.08723,-0.03489l-0.00215,0.22453c-0.05667,0.04524 -0.11334,0.09049 -0.17001,0.13573l0.0586,0.04185l-1.79052,2.50673c0.4985,-0.18085 0.98316,-0.10008 0.98316,-0.10008c0.8,0.13334 1.6,0.26667 2.39999,0.40001l0.97822,0.42374c0.90373,-2.04778 1.64553,-4.14565 2.32767,-6.34614c0.02436,-0.07859 0.04988,-0.15615 0.07647,-0.23275c-0.83774,-0.16755 -1.67817,-0.33563 -2.01327,-0.40265zM266.5123,187.32619c-0.8,-0.13334 -1.6,-0.26667 -2.39999,-0.40001c0,0 -1.37875,-0.2298 -1.46646,-1.51085c-0.38334,0.56965 -0.80687,1.15096 -1.23732,1.7771c0.41254,0.33024 0.8028,0.71519 1.23325,1.00145l1.20001,0.8c0,0 1.45609,0.97072 0.48537,2.42681c-0.97072,1.45609 -2.42681,0.48537 -2.42681,0.48537l-1.20001,-0.8c-0.7461,-0.49871 -1.45724,-1.04752 -2.14264,-1.62934l-0.06925,0.13851l-1.82599,-0.91299l-0.74623,-0.1066c-0.586,0.00096 -1.17201,0.00193 -1.75801,0.00289l-1.58679,0.95207l-0.02882,-0.04803c-1.62485,1.29948 -2.96224,2.34153 -4.30502,4.04063c0,0 -0.62408,0.7801 -1.5186,0.68995c-0.13073,0.19215 -0.29871,0.35693 -0.49355,0.48394c0.08026,-0.01127 0.16227,-0.0171 0.24564,-0.0171c0.9665,0 1.75,0.7835 1.75,1.75c0,0.9665 -0.7835,1.75 -1.75,1.75c-0.9665,0 -1.75,-0.7835 -1.75,-1.75c0,-0.61441 0.31663,-1.15487 0.79563,-1.4671c-0.08026,0.01127 -0.16227,0.0171 -0.24564,0.0171c-0.9665,0 -1.75,-0.7835 -1.75,-1.75c0,-0.9665 0.7835,-1.75 1.75,-1.75c0.04454,0 0.08869,0.00166 0.13239,0.00493c0.05819,-0.09452 0.1011,-0.14815 0.1011,-0.14815c0.28171,-0.34854 0.56308,-0.67514 0.84601,-0.98503c-0.01938,-0.10429 -0.02951,-0.21183 -0.02951,-0.32174c0,-0.53565 0.24066,-1.0151 0.61975,-1.3361l2.64876,-2.27036l0.21417,0.24986c0.32623,-0.32066 0.67074,-0.61768 1.03842,-0.8826c0.00262,-0.00706 0.00409,-0.01072 0.00409,-0.01072c0.83027,-2.07569 1.5341,-4.19093 2.23853,-6.30427c-0.46109,-0.31515 -0.76371,-0.84513 -0.76371,-1.4458c0,-0.18094 0.02746,-0.35546 0.07844,-0.51964l0.78891,-2.76114l0.29109,0.08317c0.10266,-0.77368 0.27861,-1.52989 0.56673,-2.25233l0.80002,-2.00001c0,0 0.10136,-0.2534 0.32409,-0.52002c-0.21558,-0.2239 -0.3302,-0.48824 -0.38847,-0.73568c-0.65638,0.59084 -1.60628,0.35337 -1.60628,0.35337l-1.9582,-0.5325c-0.53334,-0.26667 -1.06667,-0.53334 -1.60001,-0.8c0,0 -1.56525,-0.78262 -0.78262,-2.34787c0.78262,-1.56525 2.34787,-0.78262 2.34787,-0.78262c0.1378,0.0689 0.2756,0.1378 0.4134,0.2067c0.44442,0.02219 0.78664,0.19331 0.78664,0.19331l0.01679,0.20841c0.00456,0.00228 0.00912,0.00456 0.01368,0.00684c0.66229,0 1.32458,0 1.98687,0c0,0 0.5106,0 0.98019,0.27581c0.37027,-1.16532 0.81257,-2.29069 1.28147,-3.46428l0.08321,-0.49922l0.10449,0.01742l-0.04253,-0.27088c0.07266,-0.06065 0.14531,-0.12129 0.21797,-0.18194l-0.119,-0.0595l0.78303,-1.56608c0.02155,-0.04545 0.04499,-0.08983 0.07024,-0.13302c-1.64499,-0.31371 -3.00314,-1.49444 -4.79934,-1.76739c-0.18182,0.07757 -0.36201,0.15234 -0.54253,0.22487l0.15353,0.23029l-1.15981,0.7732c-0.98876,1.42709 -1.95135,3.64215 -2.39633,4.14207c-0.41292,0.46391 -0.96867,0.74635 -1.55247,0.99582l-0.04989,0.06652c-0.31844,0.43432 -0.8324,0.71631 -1.41223,0.71631c-0.00098,0 -0.00196,0 -0.00295,0c-0.20204,0.09392 -0.41013,0.18196 -0.61359,0.27328c-0.02532,0.02097 -0.05033,0.04236 -0.07499,0.0642c-0.84327,0.74658 -0.59761,2.18472 -0.69339,3.30691c-0.05553,0.65065 -0.06649,1.23521 -0.03864,1.77931l0.34264,1.79886l-0.07063,0.01345l0.09379,0.14954c0.00012,0.0993 0.00059,0.19849 0.00139,0.29756c0.28158,1.03092 0.70215,2.05255 1.20487,3.31828c0.64001,3.20842 1.11482,8.07785 0.04097,11.2296c-0.4035,1.18428 -0.68622,2.76847 -1.82909,3.27756c-1.1129,0.49574 -2.41627,-0.42861 -3.54672,-0.88292c-1.6421,-0.65994 -4.56527,-1.85799 -5.91469,-3.02605c-0.84593,-0.73224 -1.2669,-1.63133 -1.65199,-2.53653l-1.14759,-1.91268l0.049,-0.0294l-0.11611,-0.09332c-0.06545,-0.16449 -0.1269,-0.32881 -0.18477,-0.49298c-0.53272,-0.53872 -1.43477,-0.76159 -1.74173,-1.452c-0.95727,-2.15312 0.9943,-4.09462 -0.108,-5.98206c-0.88937,-1.52285 -3.04157,2.93674 -3.19268,3.24157c-2.07486,3.34937 -0.8988,5.1894 0.13016,8.61672c0.75723,2.52222 1.25681,5.34221 3.45708,7.1976c1.94794,1.64261 3.78291,2.52128 5.46214,4.67183c2.37829,3.04581 3.74897,6.5099 5.71716,9.77138l0.08466,0.16722c1.64333,-0.77119 3.32224,-1.39633 5.21474,-1.41687c4.06398,-0.0441 8.17262,0.53575 12.06971,-1.07591c-1.50568,-0.18402 -3.02492,-0.27665 -4.54075,-0.27415c0,0 -1.75,0 -1.75,-1.75c0,-1.75 1.75,-1.75 1.75,-1.75c1.95412,0.00294 3.91259,0.14412 5.84749,0.41758l1.08067,0.69583c0.24552,-0.57855 0.44473,-1.15672 0.59562,-1.60632c-1.2019,0.02488 -2.40599,0.11842 -3.58058,0.35891c0,0 -1.71602,0.3432 -2.05922,-1.37282c-0.3432,-1.71602 1.37282,-2.05922 1.37282,-2.05922c1.68836,-0.33091 3.42271,-0.42905 5.14319,-0.43398h0.13215c0.1131,-0.45887 0.22145,-0.91613 0.32909,-1.37214l-0.11805,0.03816c-0.66667,0.13333 -1.33333,0.26666 -2,0.39999c0,0 -1.71602,0.3432 -2.05922,-1.37282c-0.3432,-1.71602 1.37282,-2.05922 1.37282,-2.05922c0.66667,-0.13333 1.33333,-0.26666 2,-0.39999l0.98981,-0.34419c0,0 0.35588,-0.11863 0.79303,-0.08127c0.38359,-1.2818 0.85216,-2.56238 1.49736,-3.85058c0.2881,-0.48016 0.56251,-0.96095 0.82464,-1.4431zM276.99628,283.74909c-2.05168,0.45544 -4.09491,0.95567 -6.11551,1.53357c0,0 -1.68267,0.48076 -2.16343,-1.20191c-0.48076,-1.68267 1.20191,-2.16343 1.20191,-2.16343c1.20458,-0.34382 2.41674,-0.66154 3.6338,-0.95938c-0.16715,-0.12223 -0.33406,-0.24298 -0.5008,-0.36232c-0.26376,0.18621 -0.49886,0.26458 -0.49886,0.26458l-1.7534,0.48979c-2.35939,-0.00554 -4.58829,0.38876 -6.91229,0.77621c0,0 -1.72619,0.28769 -2.01388,-1.4385c-0.28769,-1.72619 1.4385,-2.01388 1.4385,-2.01388c1.9101,-0.31825 3.76326,-0.62504 5.66272,-0.75667c-1.24722,-0.75179 -2.51431,-1.45991 -3.8282,-2.15487c-0.50607,0.38773 -1.14683,0.38773 -1.14683,0.38773l-0.51232,-0.02381c-1.76992,0.27909 -3.60545,0.27909 -5.37538,0c0,0 -1.72619,-0.28769 -1.4385,-2.01388c0.28769,-1.72619 2.01388,-1.4385 2.01388,-1.4385c0.68816,0.12256 1.39243,0.18428 2.09683,0.18517c-0.32954,-0.31824 -0.53448,-0.76468 -0.53448,-1.25898v-2.27042c-0.24333,-1.23272 -0.34126,-2.42996 -0.37947,-3.63548l-0.18983,-0.01142c-0.93333,0.26666 -1.86666,0.53333 -2.79999,0.79999c0,0 -1.68267,0.48076 -2.16343,-1.20191c-0.48076,-1.68267 1.20191,-2.16343 1.20191,-2.16343c0.93333,-0.26666 1.86666,-0.53333 2.79999,-0.79999l1.13189,-0.03663c-0.00641,-1.18204 -0.50885,-2.31884 -0.75426,-3.47864c-0.15462,-0.73069 -0.24237,-1.48905 -0.28563,-2.26445l-0.16374,-0.00521c-1.80324,0.25486 -3.62634,0.41441 -5.4475,0.41758c0,0 -1.75,0 -1.75,-1.75c0,-1.75 1.75,-1.75 1.75,-1.75c1.65575,0.0032 3.3138,-0.14558 4.95253,-0.38241l0.68459,-0.01149c0.06184,-1.27022 0.15311,-2.54411 0.18508,-3.77946c-0.70014,0.24097 -1.40484,-0.11139 -1.40484,-0.11139l0.46342,-0.28258c-1.71781,0.48086 -3.49699,0.85388 -5.28078,0.86734c0,0 -1.75,0 -1.75,-1.75c0,-1.75 1.75,-1.75 1.75,-1.75c1.46025,0.01406 2.9177,-0.3226 4.31926,-0.73267l1.55169,0.38912c-0.15264,-1.27459 -0.30984,-2.54865 -0.47217,-3.82199c-0.69232,0.2253 -1.38136,-0.11921 -1.38136,-0.11921l-0.01742,-0.21525c-1.82115,-0.00318 -3.64424,-0.16272 -5.44747,-0.41758c0,0 -1.73241,-0.24748 -1.48493,-1.9799c0.24748,-1.73241 1.9799,-1.48493 1.9799,-1.48493c1.63872,0.23682 3.29675,0.38561 4.9525,0.38241l0.91497,0.33806c-0.20709,-0.99211 -0.42195,-1.98294 -0.63173,-2.97375c-0.36503,0.13569 -0.68324,0.13569 -0.68324,0.13569c-0.8,0 -3.6,0 -4.39999,0c0,0 -1.75,0 -1.75,-1.75c0,-1.75 1.75,-1.75 1.75,-1.75c0.8,0 1.6,0 2.39999,0h2c0,0 0.00326,0 0.00949,0.00014c-0.04714,-0.25734 -0.09297,-0.51477 -0.13725,-0.77232c-0.21155,-1.23052 -0.37582,-2.49528 -0.51889,-3.77938c-0.67674,0.19644 -1.33599,-0.13319 -1.33599,-0.13319l-0.26486,-0.23283c-1.77033,-0.25585 -3.5638,-0.38536 -5.35251,-0.38242c0,0 -1.75,0 -1.75,-1.75c0,-1.75 1.75,-1.75 1.75,-1.75c1.95413,0.00294 3.9126,0.14412 5.8475,0.4176l0.75123,0.31912c-0.13845,-1.43533 -0.27972,-2.87776 -0.45836,-4.30754c-0.04972,0.0296 -0.10225,0.05833 -0.15774,0.08607c-1.04153,0.52076 -1.73654,0.00197 -2.08502,-0.4035c-1.87813,0.3647 -3.74481,0.69803 -5.65012,0.97068c0,0 -1.73241,0.24749 -1.9799,-1.48492c-0.24749,-1.73241 1.48492,-1.9799 1.48492,-1.9799c2.26212,-0.32261 4.46572,-0.73589 6.70431,-1.1836l1.22401,0.91909c-0.27529,-1.53786 -0.62573,-3.04327 -1.09701,-4.49014l-0.28375,0.04054v0.19652h-1.32672l-0.17822,0.03564c-0.74041,0.17995 -1.4919,0.55305 -2.21142,0.36901c-1.0887,0.06594 -2.32932,0.35545 -3.38127,0.33929l0.00772,0.0193c0.09005,0.21086 0.1399,0.44299 0.1399,0.68677c0,0.9665 -0.7835,1.75 -1.75,1.75c-0.24379,0 -0.47593,-0.04985 -0.68679,-0.13991l-1.96315,-0.78528l0.01611,-0.04028l-0.1438,-0.01682c-2.09672,-1.25622 -3.92179,-2.70513 -5.87236,-4.16773c0,0 -0.02386,-0.01789 -0.06301,-0.05212c-0.02882,0.00141 -0.05781,0.00212 -0.08698,0.00212c-0.75117,0 -1.3918,-0.47327 -1.63997,-1.1379l-0.48486,-1.21211h-3.07519v-0.02599c-0.40326,-0.0166 -0.80635,-0.03797 -1.20926,-0.06319c-0.46828,0.05326 -0.93847,0.0828 -1.41027,0.08323l-2.26028,0.3767c-0.10381,0.0192 -0.21084,0.02923 -0.32021,0.02923c-0.9665,0 -1.75,-0.7835 -1.75,-1.75c0,-0.44139 0.16341,-0.84462 0.43304,-1.15248c0.27128,-1.55081 1.89111,-1.38883 1.89111,-1.38883c1.01203,0.10157 2.02552,0.19827 3.04034,0.27141c0.57794,-0.11432 1.19151,-0.18864 1.88763,-0.23182c-0.15142,-0.21361 -0.29873,-0.42477 -0.44211,-0.63416l-0.868,-1.09884l0.05678,-0.04485l-0.16053,-0.10129c-0.46933,-0.93291 -1.12144,-2.01207 -1.79057,-3.13583c-0.01041,-0.01463 -0.02089,-0.02934 -0.03142,-0.04411l-0.12234,0.08156l-1.58673,-2.38009c-0.19377,-0.28167 -0.30719,-0.62291 -0.30719,-0.99064c0,-0.11147 0.01042,-0.22051 0.03035,-0.32619l-0.64558,-1.29118c-0.43096,-0.86799 -0.9521,-1.61782 -1.42594,-2.32693c-0.12969,0.04015 -0.27404,0.06955 -0.43469,0.08562c-1.74132,0.17413 -1.91544,-1.56719 -1.91544,-1.56719c-0.02352,-0.23915 -0.04705,-0.4783 -0.07057,-0.71745c-0.27046,-0.40656 -0.32459,-0.83961 -0.32459,-0.83961l-0.41013,-3.30832c0.00005,-0.10849 0.00189,-0.2182 0.00577,-0.3287c-0.00605,-0.05919 -0.00915,-0.11926 -0.00915,-0.18005c0,-0.14547 0.01775,-0.28679 0.0512,-0.42192c0.03793,-0.35552 0.10058,-0.71142 0.19541,-1.05428c-0.8219,-0.14365 -1.44663,-0.86077 -1.44663,-1.7238c0,-0.29393 0.07246,-0.57093 0.2005,-0.81412l0.76732,-1.53461c0.12084,-0.2549 0.30146,-0.47594 0.52375,-0.64502c0.09577,-0.19211 0.2409,-0.48332 0.41051,-0.82309c-0.19065,-0.28022 -0.30207,-0.61868 -0.30207,-0.98316c0,-0.33963 0.09675,-0.65666 0.26419,-0.92504l1.18521,-1.97534l0.11588,0.06953l0.08518,-0.3412c1.29274,-0.99823 2.27782,-1.81051 3.3667,-2.44395c-0.33261,-0.16137 -1.01374,-0.59428 -1.03958,-1.44214c-0.35542,-0.04919 -0.61025,-0.1766 -0.61025,-0.1766l-1.06736,-0.56524c-1.06667,-0.8 -2.13334,-1.6 -3.20001,-2.39999c0,0 -1.4,-1.05 -0.35001,-2.45c1.05,-1.4 2.45,-0.35001 2.45,-0.35001c1.06667,0.8 2.13334,1.6 3.20001,2.39999l0.53262,0.23475c0,0 0.95377,0.47689 1.00002,1.43066c0.22258,0.025 0.37076,0.0744 0.37076,0.0744c3.02428,1.00986 6.09314,1.75085 9.11823,2.77233l0.38753,-0.06113c0,0 1.749,0.05915 1.68985,1.80815l-0.00003,-0.00001c-0.05915,1.749 -1.80815,1.68985 -1.80815,1.68985l-1.39028,-0.12126c-0.40951,-0.13865 -0.81984,-0.27212 -1.23078,-0.40175c0.3092,1.52097 0.44528,3.0261 0.76917,4.52765l1.73511,2.42916l-0.36488,0.26063l0.00804,0.02413c0.7365,0.7924 1.40771,1.63841 1.98015,2.54871c0.45837,0.72889 1.23511,1.17461 2.05588,1.54041c0.30425,0.07926 0.60224,0.17086 0.8821,0.29569c0.11437,0.05101 0.21917,0.12144 0.317,0.2055c0.02761,0.01162 0.05512,0.02327 0.08251,0.03495c0.35983,0.15344 0.6716,1.10037 0.88399,0.77187c0.24219,-0.37458 -0.5905,-0.74336 -0.61444,-1.18877c-0.09764,-1.81636 -0.10626,-3.7258 -0.08642,-5.64907c-0.89533,-2.93862 -1.88578,-6.0639 -1.51356,-8.90282c0.00543,-0.04144 0.01128,-0.08279 0.01751,-0.12405h-0.02191v-2.40001c0,-0.59204 0.294,-1.11542 0.74396,-1.4321c-0.01038,-0.23919 -0.01383,-0.47686 0.0008,-0.71002c-0.13467,-0.10401 -0.26731,-0.23787 -0.39479,-0.40784l0.00001,-0.00001c-1.05001,-1.39999 0.34999,-2.45 0.34999,-2.45c0.88259,-0.63529 1.52872,-1.38236 2.1,-2.19699c0,-0.00101 0,-0.00202 0,-0.00302c0,-0.41863 0.147,-0.80294 0.39219,-1.1041l1.51776,-1.89719l1.12292,-1.87156c0.30228,-0.52426 0.86849,-0.87715 1.51712,-0.87715c0.12121,0 0.23953,0.01232 0.3538,0.03578c0.32531,-0.27681 0.64819,-0.55951 0.94305,-0.85476l0.12274,0.01955l-0.06075,-0.07338l0.1209,-0.10011c0.10411,-0.5581 0.4731,-1.023 0.97155,-1.25929l1.53461,-0.7673c0.24319,-0.12803 0.52019,-0.2005 0.81411,-0.2005c0.16834,0 0.33113,0.02377 0.4852,0.06814c0.73054,-0.76809 2.17604,-0.71003 3.70466,-0.75884c0.18997,-0.07067 0.39554,-0.1093 0.61013,-0.1093c0.14418,0 0.28429,0.01744 0.41833,0.05032c0.08755,-0.00816 0.17492,-0.01734 0.26198,-0.02772l0.161,0.17912l0.27735,0.11094l0.06395,-0.12791l0.47761,0.23881c0.63251,-0.89754 2.78681,-1.09838 4.37056,-0.96597c-0.34891,-0.26301 -0.69585,-0.53722 -1.0427,-0.8222c-0.01928,-0.00615 -0.03854,-0.01235 -0.05775,-0.01863l0.00767,-0.0226c-0.03184,-0.02626 -0.06369,-0.05261 -0.09554,-0.07905l-0.02506,0.05011l-1.5661,-0.78305c-0.5656,-0.26812 -0.96451,-0.8306 -0.99888,-1.48957c-1.72198,-1.21951 -3.36923,-2.50365 -4.93139,-4.21184c-2.38987,2.33926 -5.21506,4.23961 -8.31638,5.36143c-5.93366,2.14634 -11.43484,-0.01635 -17.17259,-1.18695c-5.46091,-2.6784 -10.23301,-6.4103 -13.95916,-11.18605c-0.01798,-0.00567 -0.03583,-0.01163 -0.05355,-0.01786c0.62797,2.17167 1.11792,4.40937 1.48039,6.67992c0.96341,3.22386 2.08319,6.40573 3.15384,9.49579l0.44419,1.74851c0,0 0.42443,1.69775 -1.27332,2.12218c-0.74047,0.18511 -1.23872,-0.03346 -1.56519,-0.33881c-0.05,1.3797 -0.13949,2.74839 -0.26613,4.09869l-0.94199,2.72228c0,0 -0.57992,1.65112 -2.23104,1.0712c-1.65112,-0.57992 -1.0712,-2.23104 -1.0712,-2.23104l0.69997,-1.95876c-1.1248,1.16627 -2.22249,2.34871 -3.29772,3.58585c-0.10331,0.51939 -0.42244,0.89171 -0.42244,0.89171c-2.90844,3.38753 -4.54246,6.49451 -6.137,10.55971c-0.78763,3.59436 -0.73873,7.44784 -0.67773,11.155c0.00867,0.03743 0.01221,0.05871 0.01221,0.05871c0.25822,1.56386 0.59342,3.13293 1.0315,4.67189c0.60572,0.31233 0.86714,0.96585 0.86714,0.96585c0.567,1.41766 1.01705,2.80982 1.6362,4.13301c0.57919,0.1872 0.93899,0.66694 0.93899,0.66694c1.50827,2.02093 3.20088,3.5339 5.11947,5.14014l2.56986,1.10135l-0.00864,0.02016c0.63161,0.09671 1.26106,0.20594 1.88724,0.33307l0.16747,0.18449l0.04723,-0.09445l1.5661,0.78306c0.59192,0.28061 1.00127,0.8836 1.00127,1.5822c0,0.9665 -0.7835,1.75 -1.75,1.75c-0.09436,0 -0.18697,-0.00747 -0.27728,-0.02184l-2.77022,-0.39574l-0.99268,-0.55556c-0.22981,0.11094 -0.48756,0.17312 -0.75984,0.17312c-0.48324,0 -0.92074,-0.19587 -1.23743,-0.51255l-1.55793,-1.5579c-0.25685,-0.21412 -0.50998,-0.42716 -0.75951,-0.64013c-1.39365,6.6966 -3.94638,13.03951 -4.7078,19.89081l-0.06691,0.09641l0.04469,0.01073l-0.4051,1.68649c-0.15124,0.69509 -0.71553,1.236 -1.42286,1.35274c-0.07934,0.27882 -0.16076,0.55676 -0.24436,0.83378c-0.58741,3.13596 -1.19693,6.26611 -2.00086,9.33979c-0.1912,0.97406 -0.4441,1.96218 -0.77007,3.01708c-0.30534,0.98815 -0.23675,2.15885 -0.86644,2.97932c-0.04698,0.06122 -0.09533,0.1211 -0.14493,0.17973l0.04015,0.02409l-1.18348,1.9725c-0.01798,0.03119 -0.0369,0.06177 -0.05671,0.0917c-0.72455,3.1259 -1.52114,6.22384 -2.59487,9.23945c-0.4297,2.4743 -0.76529,3.61915 -1.78209,4.66276l0.28306,0.22645l-1.58991,1.98738c-0.20618,0.26229 -0.4857,0.46421 -0.80767,0.57484c-0.70273,2.73983 -1.59196,6.59329 -3.3315,8.38199c-1.61187,1.65742 -4.43084,2.74626 -6.94817,3.68201c-0.17709,0.28624 -0.4344,0.51761 -0.74055,0.66275l-1.56607,0.78306l-0.02764,-0.05528l-0.08531,0.10683c-0.04386,-0.00081 -0.08773,-0.00161 -0.13159,-0.00242l0.01528,0.04583l-1.7971,0.59902c-1.78686,1.88962 -4.95196,2.83606 -7.17696,4.26717c-0.68554,0.44093 -1.36761,0.88748 -2.04295,1.34392c0.54571,-0.0041 1.09115,0.01405 1.55486,-0.01695c2.98298,-0.19942 5.69287,-0.28929 8.39096,-0.58933c0.14284,-0.73461 0.74519,-1.30507 1.49577,-1.4001l2.65898,-0.37985c0.86259,-0.28724 1.69465,-0.96243 2.5906,-0.82557c0.12815,0.01958 0.25523,0.04312 0.38135,0.0702l0.00815,-0.0652l0.82783,0.10348c1.01855,-0.16311 2.14247,-0.24534 3.43376,-0.48723c1.40037,-0.26232 2.66848,-0.59038 3.89192,-0.99544c1.63064,-0.61529 3.25244,-1.25496 4.81175,-2.03206c0.01167,-0.00583 0.02336,-0.01166 0.03504,-0.01751l-0.05482,-0.07217c0,0 0.00001,-0.00001 0.00002,-0.00002c0,0 0.77523,-0.77523 1.71209,-0.48489c0.16846,-0.79025 0.36803,-1.57292 0.58495,-2.3517c0.06469,-3.077 0.97694,-5.77187 2.34158,-8.32559l-0.28387,-0.08111l0.78939,-2.7628c0.06542,-0.25042 0.18492,-0.47897 0.34527,-0.67244c-0.00132,-0.02783 -0.00198,-0.05584 -0.00198,-0.084c0,-0.24378 0.04985,-0.47592 0.1399,-0.68677l0.78525,-1.96315l0.13794,0.05517l0.3039,-0.75974c0.31722,-1.98134 0.83875,-3.93438 1.50361,-5.8515c-0.29194,-0.31268 -0.4706,-0.73248 -0.4706,-1.19401c0,-0.24378 0.04985,-0.47592 0.13991,-0.68678l1.28513,-3.21282l0.00278,0.00111c0.00118,-0.00558 0.00237,-0.01116 0.00356,-0.01674c0.94852,-4.43933 4.84619,-8.51503 7.14895,-12.30397c0.16797,-0.27638 0.33421,-0.55378 0.49893,-0.83205c-0.17668,-0.27333 -0.27925,-0.59906 -0.27925,-0.94875c0,-0.29392 0.07246,-0.57092 0.20049,-0.8141l1.18424,-2.3685c0,0 0,0 0,-0.00001c0.84564,-3.37639 3.88162,-6.46531 6.06267,-9.21728c-0.04352,0.03452 -0.08695,0.06914 -0.1303,0.10386l-1.92967,1.93346c0,0 -1.23744,1.23744 -2.47487,0c-1.23744,-1.23744 0,-2.47487 0,-2.47487l2.07033,-2.06654c0.06461,-0.05164 0.12937,-0.10313 0.19427,-0.15445c-0.88537,-0.08679 -1.57718,-0.83339 -1.57718,-1.74157c0,-0.13762 0.01589,-0.27153 0.04592,-0.4c-0.03004,-0.12847 -0.04592,-0.26238 -0.04592,-0.4c0,-0.69861 0.40936,-1.30161 1.0013,-1.58221l1.5661,-0.78303l0.05295,0.1059l0.18849,-0.20487c1.28774,-0.21463 2.5984,-0.50239 3.75855,-1.10104c0,0 1.37892,-0.68946 2.19539,0.52011c0.28102,-0.19234 0.62098,-0.30485 0.98723,-0.30485h2v0.20134l0.40207,-0.15452c0.08319,0.08331 0.16638,0.16661 0.24956,0.24992c0.02807,-0.00519 0.05569,-0.01046 0.08289,-0.01578l0.0481,-0.0962l0.12203,0.06101c1.18867,-0.25888 1.56911,-0.61222 3.49742,-0.19895c0.23299,0.04993 3.19364,1.54447 3.58056,1.73792l0.80002,0.40003c0,0 1.56524,0.78265 0.78259,2.34788c-0.78265,1.56524 -2.34788,0.78259 -2.34788,0.78259l-0.79995,-0.39999c-0.08736,-0.04368 -0.17503,-0.08628 -0.263,-0.1278c1.03182,1.8717 1.9388,3.88756 2.7413,5.97089c0.29849,0.37972 0.59824,0.7586 0.90011,1.13607l2.02824,2.83842c0,0 1.01717,1.42403 -0.40687,2.4412c-0.11555,0.08254 -0.22843,0.149 -0.3383,0.20146c0.02957,0.10418 0.05893,0.20833 0.08811,0.31245c0.54863,1.45319 1.11147,2.90099 1.72327,4.32945l0.27499,0.54998l-0.02994,0.01497c0.00183,0.00418 0.00367,0.00835 0.00551,0.01253l0.0633,0.05562c0.11179,0.29758 0.2301,0.5849 0.35023,0.86392c0.6239,1.35547 1.30405,2.68864 2.07111,3.98722l-0.01621,0.29075l0.09907,-0.02202l0.75108,3.37981c0.03259,0.13348 0.04986,0.27296 0.04986,0.41648c0,0.24718 -0.05125,0.48239 -0.14369,0.69558c0.68857,1.58166 1.36234,3.16518 2.03985,4.79123c1.06583,2.55805 2.57803,5.01909 3.61139,7.62683c2.68104,6.76577 3.34183,14.40736 3.32723,21.61404c-0.52383,3.18623 -1.03179,6.01892 -2.18784,8.88385c0.28182,0.0122 0.56326,0.0212 0.84379,0.02183c0.29579,0.00066 0.59194,-0.00433 0.88843,-0.01402l0.20711,-0.13419c0,0 1.01008,-0.60978 1.87217,0.00142c2.59045,-0.231 5.20443,-0.65323 7.83231,-0.65323c2.8653,0 5.83131,0.65638 8.65565,0.40596c1.66975,-0.14805 4.10608,-0.8608 6.09778,-0.82127c-0.35812,-0.25616 -0.67698,-0.58074 -1.02518,-0.85125c-0.19875,-0.15441 -0.39702,-0.30945 -0.59505,-0.46481zM248.95009,141.62483c0,0 -1.62483,-0.64994 -0.9749,-2.27477c0.64994,-1.62483 2.27477,-0.9749 2.27477,-0.9749c0.66667,0.26667 1.33333,0.53334 2,0.8l0.55005,-0.12517c0,0 0.44606,0 0.88778,0.2252c0.86428,-0.94514 1.60936,-1.9255 2.17318,-2.89879c-0.0024,-0.00298 -0.00478,-0.00596 -0.00715,-0.00895c-0.92068,-0.07722 -1.86176,-0.00461 -2.7661,0.15873c0,0 -1.72619,0.28771 -2.01389,-1.43848c-0.28771,-1.72619 1.43848,-2.01389 1.43848,-2.01389c1.61729,-0.25224 3.30006,-0.29662 4.91243,-0.0114c0.44361,-1.03217 0.89374,-2.06906 1.44122,-3.05452c0.15122,-0.2722 0.30012,-0.53882 0.44606,-0.8016c-0.06057,-0.02401 -0.09462,-0.04103 -0.09462,-0.04103l-0.01739,-0.21526c-0.93333,0 -1.86666,0 -2.79999,0c0,0 -1.75,0 -1.75,-1.75c0,-0.5664 0.18332,-0.94948 0.43129,-1.20857c-0.82831,0.18089 -1.68614,0.32815 -2.24384,0.89601c-0.77547,0.78959 -0.78306,2.07195 -1.24102,3.07946c-1.39445,3.06779 -2.18711,6.13369 -4.2299,8.77631l-0.06876,0.93122c0,0 -0.42443,1.69775 -2.12218,1.27332h-0.00001c-1.69775,-0.42443 -1.27332,-2.12218 -1.27332,-2.12218l0.73123,-2.2688c2.75127,-3.28079 2.59744,-9.03783 5.72909,-12.14422c0.96117,-0.95342 2.86113,-0.42782 3.81776,-1.38579c0.27489,-0.27528 -0.33248,-0.73215 -0.32436,-1.12109c0.01102,-0.52817 -0.02425,-1.11528 0.11085,-1.62572c-0.04989,-0.12927 -0.08488,-0.26594 -0.10286,-0.40792l-0.39639,-2.77452c0,0 -0.2475,-1.73241 1.48491,-1.97991c0.07311,-0.01045 0.14358,-0.01736 0.21149,-0.02104c-0.0716,-0.19419 -0.11399,-0.42418 -0.11399,-0.69657c0,-1.75 1.75,-1.75 1.75,-1.75c1.40338,0 2.80676,0 4.21014,0c-0.29003,-0.87196 -0.63489,-1.72478 -1.03393,-2.54686c-0.21955,0.04686 -0.37619,0.04686 -0.37619,0.04686c-1.33333,0 -3.46668,0 -4.80002,0c0,0 -1.75,0 -1.75,-1.75c0,-1.75 1.75,-1.75 1.75,-1.75c1.00564,0 2.01128,0 3.01692,0c-1.59586,-2.00542 -3.62334,-3.61994 -6.06684,-4.57517l-1.10346,-0.36463c0,0 -1.6602,-0.55339 -1.10681,-2.21359c0.55339,-1.6602 2.21359,-1.10681 2.21359,-1.10681l1.07871,0.36221c0.07065,-0.06656 0.11792,-0.10201 0.11792,-0.10201l1.43204,-1.0566c0.44795,-0.56218 0.95782,-1.08018 1.34385,-1.68655c0.19865,-0.31205 0.33154,-0.66436 0.47197,-1.01103c-2.3383,0.66996 -6.56038,0.97032 -7.76991,-0.87694c-0.55199,-0.84303 0.49603,-1.95361 0.71675,-2.93681c0.02294,-0.10219 0.0424,-0.20552 0.05901,-0.30976c-2.25011,2.36967 -4.86062,4.68737 -7.60166,4.98088c-1.16962,0.12524 -2.54941,0.32692 -3.51155,-0.34984c-0.3247,-0.22839 -0.56943,-0.80181 -0.7022,-1.40613c-0.46323,0.51223 -1.03954,1.01331 -1.4212,1.35675c-1.22578,1.10305 -2.47644,1.95656 -3.8299,2.68084l0.30017,0.85266c0,0 -0.90348,0.90342 -1.9384,0.3944c-0.05256,0.01301 -0.10498,0.02615 -0.15728,0.03943c-0.29648,0.46263 -0.75911,0.69394 -0.75911,0.69394h0.00002c-3.56634,1.78317 -6.50532,3.98651 -8.66559,6.79636c-0.71533,1.69721 -1.3686,3.39878 -2.11293,5.1379c-0.17512,0.40917 -0.29079,0.84962 -0.40729,1.28863c1.3597,0.15468 2.71423,0.41934 4.00529,0.70866c0.52814,0.11835 0.89667,0.6778 1.43022,0.76867c0.2462,0.04193 0.66721,-0.04682 1.03498,-0.12005c-0.37881,-0.38529 -0.7876,-1.11577 -1.06729,-1.49543c-1.69153,-2.29615 -1.91896,-3.8896 -1.94691,-6.57985c-0.00307,-0.04473 -0.00307,-0.07016 -0.00307,-0.07016l0.00238,-0.00027c-0.00118,-0.13059 -0.00193,-0.26376 -0.00238,-0.39972l1.75,0.2l1.75,-0.2c-0.0004,0.10373 -0.00384,0.23981 -0.00812,0.39907l0.00812,0.00093c0,0 0,0.06576 -0.01275,0.17179c-0.02457,0.93284 -0.05115,2.44012 0.26033,3.11392c0.34524,0.74685 1.15025,1.53746 1.88946,2.38455c0.86657,-0.66982 2.0847,-0.93128 2.87552,-1.7077c1.1369,-1.11622 1.89772,-3.85569 2.37723,-5.31595c0,0 0.55339,-1.6602 2.21359,-1.10681c1.6602,0.55339 1.10681,2.21359 1.10681,2.21359c-0.58521,1.73344 -1.41274,4.29981 -2.62567,5.97236c1.18758,-0.80373 2.39492,-1.58373 3.589,-2.37798c0.79789,-0.53072 3.7464,-2.95218 4.16276,-3.04816c3.92677,-0.9052 4.51657,3.24489 7.61578,3.99721c1.15431,0.2802 1.91436,-0.28728 2.948,-0.72165l1.04993,-0.12517c0,0 1.75,0 1.75,1.75c0,1.75 -1.75,1.75 -1.75,1.75l0.24994,-0.12517c-2.70083,1.04073 -4.55617,1.44164 -7.16997,-0.13619c-0.10578,-0.06386 -0.35658,-0.29494 -0.68369,-0.60273c-0.08086,1.02277 -0.31781,2.10012 -0.58586,3.0743l0.15482,0.02242c-0.55183,1.07675 -0.46941,2.43669 -1.13297,3.44842c-0.05482,0.08359 -0.11162,0.1656 -0.17019,0.24621l0.03854,0.02312l-1.18351,1.9725c-0.30228,0.52425 -0.86849,0.87713 -1.51711,0.87713c-0.75118,0 -1.39181,-0.47328 -1.63998,-1.13792l-0.1364,-0.341c-0.12591,-0.16255 -0.18887,-0.28846 -0.18887,-0.28846l-0.86569,-1.74819c0.02734,-0.03812 0.05467,-0.07624 0.08201,-0.11436c-0.02199,-0.01915 -0.0435,-0.03885 -0.0645,-0.05906l-0.06922,0.01978l-0.03779,-0.13228c-0.00959,-0.01102 -0.01905,-0.02216 -0.02836,-0.03341l-0.85117,1.13491l-0.04159,-0.03119c-0.01212,0.0426 -0.02425,0.0852 -0.03637,0.1278l-1.05915,1.06307c0.06152,0.0471 0.11983,0.0982 0.17453,0.1529l2,2l-0.25113,0.25113c0.90202,0.73463 1.74121,1.53873 2.47827,2.42843l0.90068,1.77524c0,0 0.10001,0.20002 0.15703,0.4928c1.37754,0.80328 0.64297,2.27244 0.64297,2.27244l-0.00004,-0.00002l-0.4,0.80002c-0.4418,0.87811 -1.03738,1.6749 -1.72342,2.39872l0.35817,0.26863l-1.18776,1.58371c-0.17549,0.23934 -0.41035,0.43243 -0.68289,0.55755c-1.3042,2.34799 -3.30037,5.01505 -5.586,4.71622l-1.29342,0.51737l-0.04368,-0.1092l-0.27532,0.20279c-0.10873,-0.00047 -0.21909,-0.00214 -0.33094,-0.00504v0.03662h-2c-0.42622,0 -0.81685,-0.15237 -1.12039,-0.40561c-0.78718,-0.165 -1.58239,-0.38854 -2.34968,-0.6784c-0.08046,0.52766 -0.39658,0.97783 -0.83761,1.23975c1.65664,1.20903 3.41991,2.28792 5.27562,3.23899c4.89893,0.95867 9.74553,3.07352 14.82741,1.21305c1.87347,-0.68588 3.95289,-1.8967 5.86557,-3.3786c-0.50361,-0.20145 -1.00723,-0.40289 -1.51084,-0.60434zM259.2,125.45l1.58264,0.58476c0,0 0.042,0.021 0.10879,0.063c0.41907,-0.97813 0.75956,-2.00166 0.98727,-3.16326c0.00564,-0.03334 0.0112,-0.06673 0.01667,-0.10015c-0.55803,0.20384 -1.11981,0.0634 -1.11981,0.0634l-1.17554,-0.34774c-0.66667,0 -1.33333,0 -2,0c0,0 -0.11266,0 -0.28081,-0.02858c-0.02397,0.88611 0.24189,1.88606 -0.29951,2.55183c-0.1217,0.14966 -0.26275,0.27309 -0.41843,0.37675c0.86624,0 1.73248,0 2.59872,0zM259.60002,119.05l2.02441,0.45224c0,0 0.2439,0.06098 0.52371,0.22915c0.00451,-1.06877 -0.07223,-2.15396 -0.22904,-3.23563c-0.27612,-0.09501 -0.49589,-0.24367 -0.62592,-0.34577c-1.49773,0 -2.99545,0 -4.49318,0c0,0 -0.00036,0 -0.00107,-0.00001c0.05641,0.13612 0.09073,0.25653 0.11041,0.33886c0.20878,0.23524 0.35512,0.52715 0.41306,0.84974l0.34228,1.71142c0.64511,0 1.29022,0 1.93534,0zM266.18437,153.74026c-0.24778,0.04251 -0.24029,0.36373 -0.2206,0.7008c0.08727,0.06333 0.17491,0.12673 0.26311,0.18979c0.07031,-0.4426 0.27279,-0.94468 -0.04251,-0.89059zM248.17023,290.11517l-0.08939,-0.06704c-0.01797,0.01412 -0.03601,0.02803 -0.05411,0.04175c0.04777,0.00837 0.0956,0.0168 0.14349,0.02529zM254.50153,291.0385c0.21304,0.00857 0.42465,0.01297 0.63458,0.01267c0.7946,-0.00115 1.59904,-0.02776 2.40986,-0.07296c-0.25085,-0.01804 -0.49969,-0.02821 -0.74596,-0.02821c-0.81081,0 -1.56327,0.04551 -2.29848,0.0885zM248.00182,257.28601c0.01175,-0.02625 0.02412,-0.05217 0.03711,-0.07772c-0.01845,-0.04627 -0.037,-0.09248 -0.05567,-0.13864c-0.07465,-0.18462 -0.15155,-0.36855 -0.23038,-0.55188c0.08189,0.25629 0.16484,0.51237 0.24894,0.76824zM262.03743,165.96255c0.63315,0.63314 0.61839,1.26629 0.45299,1.73368c1.29997,-3.01515 2.63461,-5.871 4.20783,-8.69279c-0.80682,-0.17788 -1.54116,-0.46222 -2.45046,-1.13378c-0.61929,-0.45737 -1.21249,-1.95878 -1.79414,-1.45442c-0.35096,0.30432 -0.54626,0.75646 -0.71505,1.22818c0.29894,0.31395 0.48244,0.73883 0.48244,1.20657c0,0.20784 -0.03623,0.40722 -0.10273,0.59216l-0.7871,2.36124l-0.33164,0.43695c-0.25944,0.5596 -0.58345,1.09198 -0.95171,1.59806l0.38841,0.19421l-0.78306,1.5661c-0.14524,0.30638 -0.37685,0.56384 -0.66339,0.74095c-0.0099,0.02787 -0.01976,0.05575 -0.02958,0.08364c0.23219,-0.04644 0.46439,-0.09288 0.69658,-0.13931l-0.09426,-0.32141c0,0 1.23743,-1.23745 2.47487,-0.00002zM262.03745,168.43742l-1.69424,1.2786c-0.66667,0.13333 -1.33333,0.26666 -2,0.39999c0,0 -0.19728,0.03946 -0.47143,0.02472c0.16931,0.20078 0.26374,0.42087 0.31131,0.63536c0.71666,0.21897 1.23792,0.88555 1.23792,1.67389c0,0.29392 -0.07246,0.57092 -0.20049,0.8141l-0.75985,1.51973c-1.35292,3.38256 -2.36186,6.88785 -3.60579,10.31856c0.44673,0.00067 0.89345,0.00135 1.34018,0.00202l0.05585,0.10864c0.0188,-0.00713 0.03776,-0.01394 0.05686,-0.02043l0.01072,-0.07503l0.17017,0.02431c0.12307,-0.02743 0.25103,-0.0419 0.38237,-0.0419c0.13001,0 0.25671,0.01418 0.37863,0.04107l1.15141,0.23028c0.7039,-1.08817 1.3379,-2.05691 1.97681,-2.96551l0.00002,0.00002c0.02226,-0.08509 0.05077,-0.16766 0.085,-0.24719l0.81997,-2.03281l0.02615,0.01055l0.00141,-0.07512c0.47764,-0.95576 0.92581,-2.30334 1.52509,-3.49928c-0.11756,0.0249 -0.23948,0.03801 -0.36447,0.03801c-0.9665,0 -1.75,-0.7835 -1.75,-1.75c0,-0.18791 0.02962,-0.3689 0.08443,-0.53856l0.68852,-2.31139l0.0271,0.00807l-0.00264,-0.08384c0.07943,-0.19886 0.15885,-0.39771 0.23828,-0.59657c-0.14988,-0.25802 -0.23571,-0.55786 -0.23571,-0.87774c0,-0.24378 0.04985,-0.47592 0.1399,-0.68677l0.75132,-1.87832c-0.16099,0.33874 -0.37479,0.55255 -0.37479,0.55255zM231.35542,198.66695c0.03358,-0.0047 0.06747,-0.00844 0.10164,-0.0112c-0.05481,-0.04462 -0.10972,-0.08852 -0.16475,-0.1318c0.02104,0.04769 0.04207,0.09536 0.06311,0.14301zM273.54472,185.08205c1.05465,-2.9213 1.41884,-6.2588 1.92909,-9.31975c0.00371,-0.02227 0.00742,-0.04449 0.01114,-0.06668c-0.68138,1.01735 -1.37672,2.0059 -1.73646,3.25306c-1.179,4.08734 -2.73349,7.86035 -4.94338,11.54345c-0.69558,1.39379 -1.4422,2.72483 -1.94272,4.18729c2.705,-2.82112 5.39286,-6.02564 6.68233,-9.59737zM262.45537,167.80373l-0.00035,-0.01516c-0.00178,0.00431 -0.00357,0.0086 -0.00537,0.01287zM219.58253,136.59992c-0.08675,-0.00085 -0.17199,-0.00801 -0.25528,-0.02105c0.31195,0.33557 0.62999,0.66453 0.95397,0.98692c-0.22223,-0.29278 -0.4465,-0.60881 -0.69869,-0.96587zM223.30307,132.74497l0.27955,0.13978l-0.02719,0.05438c0.05108,0.0391 0.10221,0.07812 0.15338,0.11707l0.19137,0.03288c0.01722,0.05042 0.03445,0.10084 0.05167,0.15126c0.01673,0.01262 0.03347,0.02524 0.05021,0.03784l-0.01991,0.05085c0.01567,0.04588 0.03134,0.09176 0.04702,0.13763l0.13735,-0.10988l1.5913,1.98911c0.03645,0.04477 0.07072,0.09137 0.10267,0.13965c1.02973,0.80985 1.80896,1.64984 3.33517,1.94017l2.15688,-0.30812l0.00359,0.02515l0.75709,-0.30284c0.14726,-0.06289 0.3049,-0.10618 0.46963,-0.12657c1.17989,-0.73441 2.18764,-1.69991 2.98619,-3.30446l0.75802,-2.27401c0.21993,-0.71509 0.88574,-1.23487 1.67295,-1.23487c0.01793,0 0.0358,0.00027 0.05361,0.00081c0.12596,-0.18882 0.24875,-0.37846 0.35062,-0.57351c-0.0822,-0.08288 -0.15069,-0.16554 -0.20546,-0.23889l-2.73463,2.05099c-0.29487,0.22618 -0.66381,0.36061 -1.06415,0.36061c-0.0085,0 -0.01698,-0.00006 -0.02545,-0.00018c-3.10057,1.43273 -6.831,1.20178 -10.24216,0.67959c-0.53013,-0.08115 -1.10326,-0.04033 -1.64746,-0.07868c0.27075,0.21732 0.54363,0.43196 0.81814,0.64424zM219.0132,128.00081c0.18344,-0.06528 0.38098,-0.10082 0.58682,-0.10082c0.13001,0 0.25672,0.01418 0.37864,0.04107l1.91978,0.38396c3.7616,-0.12008 8.67281,2.22362 11.89081,-0.50362l0.02951,-0.00721l0.01407,-0.01495l-0.00356,-0.00533l0.02302,-0.01535l0.87337,-0.92795l1.29169,-0.76585c0,0 0.10748,-0.05374 0.2802,-0.1049c-0.02271,-0.03827 -0.04506,-0.07672 -0.06701,-0.11533c-0.28908,0.21096 -0.64527,0.33546 -1.03054,0.33546c-0.48325,0 -0.92075,-0.19588 -1.23744,-0.51256l-1.79919,-1.79919l-0.54598,-0.27299l0.05193,-0.10386c-0.09752,-0.0139 -0.19503,-0.02781 -0.29255,-0.04171l-0.12209,-0.27434l-0.0921,0.0921l-1.0641,-1.0641c-0.8912,-0.55503 -1.8004,-1.07852 -2.49845,-1.22334c-0.9004,-0.18679 -1.43619,1.15086 -2.18926,1.67859c-0.60276,0.4224 -1.23819,0.79418 -1.89525,1.12862c-0.1118,0.11062 -0.22783,0.22602 -0.34839,0.34677l-0.15068,-0.07351c-0.00653,0.00519 -0.01307,0.01038 -0.0196,0.01558l0.09639,0.12049l-1.98911,1.59128c-0.21668,0.1764 -0.47639,0.30198 -0.76095,0.35856c-0.56131,0.43019 -1.12556,0.85791 -1.69314,1.28363c0,0 -0.13222,0.09917 -0.34587,0.19591c0.23635,0.1183 0.47269,0.2366 0.70904,0.3549zM241.96458,112.11209l-0.52671,0.31603c-0.09166,0.1551 -0.19675,0.34248 -0.31654,0.56544l-0.43029,0.03848l0.0916,0.18321l-0.33263,0.16632c0.0258,0.12938 0.0516,0.25875 0.0774,0.38813l-0.01328,0.06605l0.02236,-0.0028l0.20805,1.66441c0.0902,-0.2543 0.19938,-0.41807 0.19938,-0.41807l0.16448,0.02382c0.02556,-0.05106 0.05147,-0.10229 0.07765,-0.15371c0.32032,-0.99533 0.70608,-2.26715 0.77853,-2.8373zM229.74358,114.7713c-0.06223,0.07025 -0.11932,0.15176 -0.17181,0.24206c0.42462,-0.34838 0.85767,-0.68694 1.29724,-1.01785c-0.42283,0.20113 -0.82072,0.43182 -1.12542,0.77579z" fill="#000000"></path>
    </g>
  </g>
</svg>
