<?xml version="1.0" encoding="UTF-8"?>
<svg xmlns="http://www.w3.org/2000/svg" xmlns:xlink="http://www.w3.org/1999/xlink" version="1.1" width="240.93872" height="251.05756" viewBox="0,0,240.93872,251.05756">
  <g transform="translate(-119.53064,-8.17947)">
    <g stroke-miterlimit="10">
      <path d="M300.62548,214.05649c2.43288,3.59063 5.05385,8.61545 3.64165,13.11669c-0.43564,1.38856 -1.70539,2.3869 -2.30128,3.7146c-0.44219,0.98526 -0.36199,2.15167 -0.77748,3.14848c-0.81916,1.96526 -2.52075,3.43975 -3.75687,5.17332c-2.93474,4.11575 -7.77256,9.16569 -12.58074,11.17204c-0.96737,0.40366 -2.07665,0.37603 -3.05827,0.74368c-3.59896,1.34793 -4.13057,2.29403 -7.94024,2.2501c-2.51665,0.01095 -5.01756,0.50263 -7.51381,0.82264c-3.19459,0.40954 -5.92356,-0.46175 -9.00053,-0.79742c-7.13574,-0.77845 -14.56086,0.79554 -21.68743,-0.01187c-1.35109,-0.15307 -2.65101,-0.66916 -4.0042,-0.80243c-7.45034,-0.73376 -14.64229,-0.33871 -21.96073,-2.32518c-0.87777,-0.23825 -1.87695,-0.12836 -2.66828,-0.57674c-1.5816,-0.89616 -2.53123,-2.61825 -3.85865,-3.86024c-1.67062,-7.68498 0.50956,-13.96268 5.987,-19.41554c2.21502,-2.20508 4.97248,-4.11517 6.75814,-6.86086c0.4651,-0.71515 1.36014,-4.18105 1.78336,-5.16467c2.76974,-6.43721 5.89005,-12.16185 10.0408,-17.80845c0.46902,-0.63805 0.58911,-1.57528 1.23513,-2.03326c0.97149,-0.68872 2.24138,-0.8186 3.36028,-1.22624c7.76969,-3.1123 15.73833,-8.42044 24.21506,-9.45174c4.0768,-0.49599 8.75539,-1.34064 12.90858,-0.80919c0.83644,0.10703 1.56759,0.68554 2.40285,0.80139c4.35129,0.60353 8.76312,-0.42707 13.00007,1.42637c0.88088,0.38534 1.51841,1.22344 2.40214,1.60219c1.0106,0.43312 2.18365,0.38745 3.20195,0.80215c2.45633,1.00036 4.20409,3.63617 6.44826,5.08801c1.32944,2.08456 4.07157,5.19876 4.07157,7.84011c0,1.55683 -1.34271,2.8624 -1.5665,4.40307c-0.02003,0.1379 -0.03559,0.27653 -0.04766,0.41505v0.00002c-0.48151,0.17304 -0.95917,0.54626 -1.32038,1.26871c-0.80924,1.61856 0.13963,2.65469 0.725,3.10166c0.0021,0.00677 0.00327,0.01028 0.00327,0.01028l1.00053,3.00334c0,0 0.24146,0.72532 0.85738,1.23994z" fill="#a2f9ff" stroke="none" stroke-width="0.25"></path>
      <path d="M264.74651,226.29565c-0.28985,0.24844 -0.53829,0.37265 -0.53829,0.37265c-3.05784,1.52249 -6.16337,3.00804 -9.61253,3.4452c-2.11642,0.26824 -4.28261,-0.2601 -6.40004,0c-2.72006,0.33412 -5.60024,2.4064 -8.30547,2.41869c-1.07561,0.00489 -2.08003,-0.55495 -3.09892,-0.89969c-4.56497,-1.54454 -6.20819,-0.94179 -4.89378,-7.12475c1.02261,-4.81039 8.34841,-6.82008 12.48731,-7.3568c1.30621,-0.16938 4.09865,0.34976 5.47367,-0.49428c0.8449,-0.51863 1.36453,-1.43854 2.0468,-2.15782c3.02764,-2.00594 5.39478,-2.17866 8.5736,-3.55295c0.88252,-0.38153 1.51515,-1.22374 2.39994,-1.59997c4.59714,-1.95477 12.33883,-4.03884 14.64454,2.5119c0.73618,2.09155 -1.73715,5.22534 -2.75296,6.7611c-0.48852,0.73857 -3.33959,5.06529 -3.76267,5.40002c-1.62687,1.28712 -3.93843,1.90885 -6.26119,2.27668z" fill="#6ba3a7" stroke="none" stroke-width="0.5"></path>
      <path d="M275.93012,253.25682c-0.82459,-2.3601 1.53551,-3.18469 1.53551,-3.18469l1.64305,-0.52984c1.67603,-0.94554 3.23267,-2.03671 4.69618,-3.23796c-0.00968,-0.08938 -0.01464,-0.18018 -0.01464,-0.27213v-3.7747c-0.57231,-0.50868 -1.26282,-1.48978 -0.53606,-2.94331c0.68447,-1.36894 1.78797,-1.48076 2.5409,-1.36163c0.43178,-0.51134 0.8711,-1.01755 1.24231,-1.5448c0.05541,-0.07871 0.25604,-0.34037 0.55428,-0.72443c0.68389,-1.95352 1.76535,-3.89362 3.01817,-5.77663c-0.87811,-1.14757 -0.15566,-2.59249 -0.15566,-2.59249c1.74045,-3.47557 3.13232,-7.06001 4.87379,-10.53683l0.12333,-0.10447l-0.04119,-0.02746l0.50205,-0.75308c-0.01074,-1.20261 -0.3443,-2.38066 -1.30206,-3.67346c0,0 -1.38673,-2.08014 0.69342,-3.46687c2.08014,-1.38673 3.46687,0.69342 3.46687,0.69342c0.91481,1.46474 1.46398,2.80865 1.74813,4.1347c0.53206,0.37102 0.91305,0.94368 1.03223,1.60721l0.73479,3.674c0.99081,0.33223 1.7047,1.26817 1.7047,2.37084c0,0.22872 -0.03071,0.45027 -0.08824,0.66074l-0.4473,1.78915c2.88058,3.03566 -0.98224,8.15695 -2.28987,10.1451c-5.07874,7.72186 -11.58163,15.43771 -19.57545,20.05631l-2.47456,0.90881c0,0 -2.3601,0.82459 -3.18469,-1.53551z" fill-opacity="0.53333" fill="#76b3b8" stroke="none" stroke-width="0.5"></path>
      <path d="M207.75052,251.90178c-0.40086,0.84561 -1.26228,1.43041 -2.26029,1.43041c-1.22888,0 -2.25067,-0.88666 -2.46054,-2.05513l-0.79091,-3.95459l0.07246,-0.01449l-0.10884,-0.22945c0.00966,-2.23022 0.0534,-4.55083 -0.68391,-6.65567c0,0 -0.79062,-2.37169 1.58107,-3.16231c0.49929,-0.16644 0.92851,-0.19273 1.29503,-0.13051c0.84861,-5.89218 3.8077,-11.54526 8.50889,-14.77795c0,0 2.08014,-1.38673 3.46687,0.69342c1.38673,2.08014 -0.69342,3.46687 -0.69342,3.46687c-6.25739,3.99063 -8.51821,15.29222 -4.81709,21.47776l0.23035,-1.25792c0,0 2.5,0 2.5,2.5c0,2.5 -2.5,2.5 -2.5,2.5l-2.8611,-0.78761z" fill-opacity="0.53333" fill="#76b3b8" stroke="none" stroke-width="0.5"></path>
      <path d="M276.80343,197.23603l-0.79242,-0.2264c-5.33373,-1.52867 -10.85007,-2.06245 -16.11134,-3.8057c0,0 -0.29801,-0.09934 -0.64754,-0.33322c-2.1375,0.52063 -4.19072,1.34729 -6.0757,2.50524c0,0 -2.14373,1.28624 -3.42997,-0.8575c-1.28624,-2.14373 0.8575,-3.42997 0.8575,-3.42997c9.02896,-5.31289 20.47624,-4.93768 29.66673,-0.06001l1.38728,1.23596c0,0 1.76777,1.76777 0,3.53553c-0.80894,0.80894 -1.61787,0.87753 -2.25742,0.71395c-0.9579,1.19045 -2.59711,0.72211 -2.59711,0.72211z" fill="#d3fcff" stroke="none" stroke-width="0.5"></path>
      <path d="M299.7185,212.82277l-1,-3c0,0 -0.00117,-0.0035 -0.00327,-0.01027c-0.58537,-0.44697 -1.53346,-1.47972 -0.72422,-3.09828c0.36121,-0.72245 0.83912,-1.09478 1.32063,-1.26782v-0.00002c0.01207,-0.13852 0.02774,-0.27676 0.04777,-0.41466c0.22379,-1.54067 1.56769,-2.84271 1.56769,-4.39954c0,-2.64135 -2.73832,-5.74768 -4.06776,-7.83224c-2.24417,-1.45184 -3.98729,-4.08112 -6.44362,-5.08148c-1.0183,-0.4147 -2.18943,-0.36687 -3.20003,-0.79999c-0.88373,-0.37875 -1.51908,-1.21467 -2.39996,-1.60001c-4.23695,-1.85344 -8.63781,-0.81504 -12.9891,-1.41857c-0.83526,-0.11585 -1.56352,-0.69296 -2.39996,-0.79999c-4.15319,-0.53145 -8.81562,0.31734 -12.89242,0.81333c-8.47673,1.0313 -16.40898,6.32784 -24.17867,9.44014c-1.1189,0.40764 -2.38522,0.5342 -3.35671,1.22292c-0.64602,0.45798 -0.76381,1.39269 -1.23283,2.03074c-4.15075,5.6466 -7.2595,11.34468 -10.02924,17.78189c-0.42322,0.98362 -1.31794,4.44244 -1.78304,5.15759c-1.78566,2.74569 -4.54386,4.64839 -6.75888,6.85347c-5.47744,5.45286 -7.66286,11.71547 -5.99224,19.40045c1.32742,1.24199 2.27464,2.96008 3.85624,3.85624c0.79133,0.44838 1.78948,0.337 2.66725,0.57525c7.31844,1.98647 14.49698,1.57867 21.94732,2.31243c1.35319,0.13327 2.64891,0.64692 4,0.79999c7.12657,0.80741 14.52344,-0.77188 21.65918,0.00657c3.07697,0.33567 5.79443,1.20959 8.98902,0.80005c2.49625,-0.32001 4.98884,-0.80783 7.50549,-0.81878c3.80967,0.04393 4.33368,-0.89675 7.93264,-2.24468c0.98162,-0.36765 2.08859,-0.33789 3.05596,-0.74155c4.80818,-2.00635 9.63579,-7.04191 12.57053,-11.15766c1.23612,-1.73357 2.93539,-3.20221 3.75455,-5.16747c0.41549,-0.99681 0.33439,-2.1601 0.77658,-3.14536c0.59589,-1.3277 1.8648,-2.32207 2.30044,-3.71063c1.4122,-4.50124 -1.20924,-9.5129 -3.64212,-13.10353c-0.61592,-0.51462 -0.85722,-1.23853 -0.85722,-1.23853zM304.70726,211.24547c1.04278,1.58771 1.72674,3.38411 2.56568,5.08834c0.48261,0.98037 1.48462,1.71313 1.74693,2.7739c0.11714,0.47371 0.16303,8.88535 0.01656,9.3918c-0.45975,1.5897 -1.83253,2.77493 -2.49961,4.28937c-0.4511,1.02412 -0.37405,2.22978 -0.82339,3.25467c-0.58933,1.3442 -3.51665,5.01397 -4.24545,6.03261c-3.49201,4.88076 -8.97598,10.36745 -14.62942,12.84234c-1.05424,0.46151 -2.26666,0.45393 -3.34406,0.85843c-3.82827,1.4373 -5.4378,2.51733 -9.66734,2.55525c-2.31286,-0.01172 -4.5987,0.50098 -6.89454,0.78132c-3.60302,0.43995 -6.73858,-0.40655 -10.21093,-0.80005c-7.08668,-0.80309 -14.44485,0.78052 -21.5409,0.00657c-1.35172,-0.14743 -2.64723,-0.66254 -4,-0.79999c-7.73943,-0.78637 -15.26522,-0.2331 -22.85261,-2.4875c-1.23685,-0.36751 -2.61405,-0.38193 -3.73277,-1.02485c-0.74325,-0.42714 -5.17162,-5.14547 -5.74374,-5.74374c-2.63816,-9.84413 -0.36273,-18.19944 6.80769,-25.39947c1.96995,-1.97809 4.38497,-3.54436 6.04116,-5.94658c0.88224,-1.27965 0.80656,-3.01295 1.41691,-4.44239c0.7975,-1.86773 1.59478,-3.73557 2.40002,-5.59998c2.06143,-4.77296 5.0964,-9.13258 8.21773,-13.22685c0.73591,-0.9653 1.13982,-2.24487 2.12018,-2.96058c1.35868,-0.9919 3.09553,-1.31806 4.64329,-1.97709c8.26882,-3.30261 16.41855,-8.57688 25.42131,-9.75987c4.55761,-0.59889 9.66696,-1.3546 14.30765,-0.78665c0.83701,0.10244 1.56574,0.67682 2.39996,0.79999c4.81504,0.71094 9.46277,-0.21781 14.21097,1.78144c0.88612,0.37311 1.51623,1.22127 2.39996,1.60001c2.07101,0.88758 4.42279,1.33464 6.17362,2.75292c1.6822,1.36269 3.19558,2.94387 4.98278,4.16559c2.1721,3.15877 5.53222,7.25088 5.53222,11.36777c0,2.8055 -1.63407,5.04319 -1.59998,8l-0.67327,0.1853l0.66001,1.98002c0.25497,0.24033 0.39338,0.44795 0.39338,0.44795z" fill="#293e40" stroke="none" stroke-width="0.5"></path>
      <path d="M119.53064,53.17947v-45h240.93872v45z" fill="#ffffff" stroke="none" stroke-width="0"></path>
      <text transform="translate(132.54956,38.98335) scale(0.69199,0.69199)" font-size="40" xml:space="preserve" fill="#000000" stroke="#000000" stroke-width="3" font-family="&quot;JetBrains Mono&quot;, Sans Serif" font-weight="normal" text-anchor="start">
        <tspan x="0" dy="0">Этап пройден!</tspan>
      </text>
    </g>
  </g>
</svg>
