<?xml version="1.0" encoding="UTF-8"?>
<svg xmlns="http://www.w3.org/2000/svg" xmlns:xlink="http://www.w3.org/1999/xlink" version="1.1" width="61.27519" height="52.8752" viewBox="0,0,61.27519,52.8752">
  <g transform="translate(-209.36241,-153.5624)">
    <g stroke-miterlimit="10">
      <path d="M219.16644,206.4376c-5.41461,0 -9.80403,-3.78769 -9.80403,-8.46003v-35.95513c0,-4.67235 4.38941,-8.46004 9.80403,-8.46004h41.66713c5.41462,0 9.80403,3.78769 9.80403,8.46004v35.95513c0,4.67235 -4.38941,8.46003 -9.80403,8.46003z" fill="#3a3b41" fill-rule="nonzero" stroke="none" stroke-width="1" stroke-linecap="butt"></path>
      <g fill="#b0b1b3" stroke="none" stroke-linecap="butt">
        <path d="M224.37789,180c0,-8.51713 6.90497,-15.4221 15.4221,-15.4221c8.51713,0 15.42212,6.90497 15.42212,15.4221c0,8.51713 -6.90497,15.4221 -15.42212,15.4221c-8.51713,0 -15.4221,-6.90497 -15.4221,-15.4221zM244.42657,175.37342c-0.85182,0 -1.54236,1.03583 -1.54236,2.31329c0,1.27748 0.69055,2.31329 1.54236,2.31329c0.85182,0 1.54237,-1.03581 1.54237,-2.31329c0,-1.27748 -0.69055,-2.31329 -1.54237,-2.31329zM233.63104,177.68671c0,-1.27748 0.69055,-2.31329 1.54237,-2.31329c0.85182,0 1.54236,1.03583 1.54236,2.31329c0,1.27748 -0.69055,2.31329 -1.54236,2.31329c-0.85182,0 -1.54237,-1.03581 -1.54237,-2.31329z" fill-rule="evenodd" stroke-width="1"></path>
        <path d="M232.51999,181.58v-8.8h14.8v8.8z" fill-rule="nonzero" stroke-width="0"></path>
      </g>
      <path d="M245,184.38c0,0 -1.87258,2.32998 -5,2.4c-3.43589,0.07692 -5,-2.4 -5,-2.4" fill="none" fill-rule="nonzero" stroke="#3a3b41" stroke-width="2" stroke-linecap="round"></path>
      <g fill="#3a3b41" fill-rule="nonzero" stroke="none" stroke-width="0" stroke-linecap="butt">
        <path d="M230.3,180c0,-1.04934 0.85066,-1.9 1.9,-1.9c1.04934,0 1.9,0.85066 1.9,1.9c0,1.04934 -0.85066,1.9 -1.9,1.9c-1.04934,0 -1.9,-0.85066 -1.9,-1.9z"></path>
        <path d="M245.9,180c0,-1.04934 0.85066,-1.9 1.9,-1.9c1.04934,0 1.9,0.85066 1.9,1.9c0,1.04934 -0.85066,1.9 -1.9,1.9c-1.04934,0 -1.9,-0.85066 -1.9,-1.9z"></path>
      </g>
    </g>
  </g>
</svg>
