<?xml version="1.0" encoding="UTF-8"?>
<svg xmlns="http://www.w3.org/2000/svg" xmlns:xlink="http://www.w3.org/1999/xlink" version="1.1" width="121" height="362" viewBox="0,0,121,362">
  <g transform="translate(-238.60001,2.10001)">
    <g stroke-miterlimit="10">
      <path d="M238.60001,359.89999v-362h121v362z" fill="#66ff82" stroke="none" stroke-width="0"></path>
      <path d="M258.72501,247.68703v-137.57407h80.75v137.57407z" fill="none" stroke="#ffffff" stroke-width="1"></path>
      <g fill="#ffffff" stroke="none" stroke-width="0">
        <path d="M296.86059,194.2026c0,-3.62577 0,-14.65914 0,-14.65914h4.42893c0,0 0,11.03337 0,14.65914c0,1.04405 -0.64036,2.01705 -1.35501,2.01705c-0.5959,0 -1.24343,0 -1.6144,0c-0.57199,0 -1.45952,-0.973 -1.45952,-2.01705z"></path>
        <path d="M292.29774,178.52627c0.79492,-2.01167 5.07065,-12.83215 6.49932,-16.4477c0.29211,-0.73923 0.6633,-0.64935 0.99185,0.22616c1.4552,3.8779 5.46931,14.57511 6.16266,16.42279c0.2001,0.53323 -0.30917,0.98818 -0.99969,0.98818c-1.69555,0 -8.96343,0 -11.89304,0c-0.76248,0 -1.00983,-0.55998 -0.7611,-1.18944z"></path>
      </g>
    </g>
  </g>
</svg>
