<?xml version="1.0" encoding="UTF-8"?>
<svg xmlns="http://www.w3.org/2000/svg" xmlns:xlink="http://www.w3.org/1999/xlink" version="1.1" width="291.39797" height="219.92593" viewBox="0,0,291.39797,219.92593">
  <g transform="translate(-78.47468,-56.21436)">
    <g stroke="none" stroke-miterlimit="10">
      <g stroke-width="0.5">
        <path d="M183.7021,181.09973c0,-0.63106 0.23381,-1.2075 0.61954,-1.64743c0.04267,-0.30868 0.08786,-0.61554 0.13552,-0.92043c-0.11233,-0.28428 -0.17404,-0.59408 -0.17404,-0.91829c0,-0.61634 0.22304,-1.18058 0.5928,-1.61643c0.00622,-7.09398 1.99246,-13.29301 4.85584,-19.74363c0.696,-1.56795 1.52969,-4.25532 2.57662,-5.6669c0.59833,-0.80673 4.00107,-3.92381 4.78764,-4.82442c2.16945,-2.48398 4.15418,-5.33363 6.48481,-7.65528c2.95801,-2.94662 6.83359,-5.30916 10.17258,-7.81341c0,0 1.38168,-1.03627 2.70954,-0.23776c4.79281,-2.35035 9.88425,-2.84319 14.96661,-4.23694c7.09966,-1.94697 15.30409,-4.81535 22.611,-1.61783c0.9876,0.43218 1.70257,1.32944 2.61801,1.89873c2.33331,1.45103 5.09122,2.11529 7.46381,3.43337c1.88949,1.0497 3.54594,2.47886 5.39941,3.59094c2.17793,1.62974 5.17419,3.08644 7.17924,4.80348c0.83622,0.7161 1.30162,1.77976 2.02982,2.60546c2.84971,3.23125 6.05536,5.90977 8.37237,9.62011c2.08409,3.33736 3.0174,7.18425 4.76122,10.66189c1.12372,2.24101 2.4225,4.44178 3.08176,6.86051c1.87662,6.88496 1.26102,14.70797 1.23362,21.80498c-1.96465,10.02085 -6.52976,19.22621 -12.66127,27.3616c-0.65438,0.86825 -3.95384,3.87198 -4.78769,4.82445c-0.80896,0.92403 -2.83958,4.01056 -3.60703,4.77801c-2.84089,2.84087 -6.44484,4.11382 -9.74984,6.16912c-0.91544,0.56929 -1.63385,1.4588 -2.61803,1.8987c-1.75799,0.78577 -3.75238,0.98082 -5.47654,1.83828c-5.30866,0.92359 -9.318,1.20999 -14.31296,0.4397l-0.83048,0.25904c-9.0662,-1.61307 -17.87728,-2.46028 -26.2575,-6.65039c-3.88791,-1.96141 -6.40596,-4.40403 -9.36512,-7.44064c-1.49752,-1.53671 -2.31834,-1.41801 -4.13528,-2.51063c-3.03494,-1.82505 -6.70509,-4.26254 -9.22834,-6.78579c-7.78779,-7.7878 -10.07247,-20.37954 -9.14401,-31.36705c-0.1936,-0.35505 -0.30362,-0.76223 -0.30362,-1.19511zM239.0755,231.47315l2.8144,0.04855c0.31507,0.06301 0.62379,0.12166 0.92695,0.17608l1.85937,-0.67736c0,0 2.11821,-0.70606 3.01828,1.21815c2.54657,0.08502 4.99577,-0.16252 8.03868,-0.64288c1.56273,-0.78572 3.38174,-0.94163 4.98195,-1.64791c0.78589,-0.34687 1.3028,-1.13042 2.0302,-1.58741c2.9561,-1.85718 6.29795,-2.90641 8.84298,-5.45141c1.32794,-1.32792 2.12894,-3.10482 3.36526,-4.51845c1.39354,-1.59339 3.24355,-2.77492 4.50877,-4.47201c5.55736,-7.45428 9.86979,-15.78368 11.74182,-24.93073c-0.02974,-6.49818 0.62851,-13.73099 -1.09045,-20.02894c-0.57229,-2.09677 -1.75865,-3.97698 -2.7285,-5.92205c-1.66389,-3.33699 -2.53788,-7.06246 -4.53524,-10.25505c-2.17292,-3.4732 -5.25112,-5.92383 -7.89639,-8.97277c-0.54801,-0.63163 -0.8217,-1.49813 -1.45628,-2.04272c-1.8874,-1.61974 -4.6956,-2.93672 -6.76544,-4.49298c-1.7393,-1.04358 -3.28599,-2.39629 -5.05909,-3.38136c-2.43356,-1.35199 -5.24939,-2.03526 -7.64282,-3.53894c-0.72742,-0.457 -1.24796,-1.23243 -2.03022,-1.58746c-5.98406,-2.71585 -13.46947,0.30734 -19.22288,1.86837c-4.74185,1.28656 -9.6545,1.6281 -14.08128,3.89571c0,0 -1.21514,0.60756 -2.30176,0.03115c-3.03885,2.23822 -6.57853,4.3701 -9.22264,7.02607c-2.25811,2.26823 -4.18107,5.03645 -6.29784,7.4514c-1.3953,1.59184 -3.22629,2.7879 -4.50872,4.47199c-0.51018,0.66996 -1.92377,4.45935 -2.07161,4.79159c-2.70115,6.07047 -4.41523,11.72053 -4.441,18.39607c-2.08491,10.63422 -1.45276,25.14245 6.83329,33.4285c3.04984,3.04983 7.02575,4.91832 10.58607,7.1945c4.04413,2.58549 6.37552,6.39578 10.84322,8.60596c3.48754,1.74376 6.35989,2.22506 10.05277,3.32585c2.77514,0.82722 5.30469,1.94451 8.24938,2.23264c0.6014,0.05884 1.20643,0.09721 1.8113,0.1372c0.46542,-0.14936 0.84749,-0.14936 0.84749,-0.14936z" fill="#c19e4b"></path>
        <path d="M238.22622,231.67248c-0.60487,-0.03999 -1.21165,-0.07845 -1.81306,-0.13729c-2.94469,-0.28813 -5.48245,-1.40669 -8.25758,-2.23391c-3.69288,-1.10079 -6.57504,-1.58557 -10.06258,-3.32934c-4.4677,-2.21018 -6.81054,-6.02801 -10.85466,-8.6135c-3.56032,-2.27618 -7.5443,-4.1537 -10.59413,-7.20353c-8.28606,-8.28605 -8.92704,-22.82606 -6.84213,-33.46028c0.02577,-6.67555 1.74455,-12.34374 4.4457,-18.41422c0.14784,-0.33225 1.56385,-4.12613 2.07403,-4.79609c1.28243,-1.68409 3.11695,-2.88523 4.51225,-4.47707c2.11677,-2.41494 4.04645,-5.19016 6.30456,-7.45839c2.64412,-2.65598 6.19322,-4.79423 9.23207,-7.03245c1.08662,0.5764 2.30359,-0.03206 2.30359,-0.03206c4.42678,-2.26761 9.35341,-2.61336 14.09525,-3.89993c5.7534,-1.56103 13.25747,-4.58345 19.24154,-1.8676c0.78226,0.35503 1.305,1.13102 2.03241,1.58802c2.39343,1.50367 5.21695,2.1898 7.65051,3.54179c1.7731,0.98506 3.32504,2.34064 5.06434,3.38422c2.06985,1.55626 4.88449,2.87803 6.77189,4.49777c0.63458,0.54459 0.91006,1.41272 1.45807,2.04436c2.64527,3.04893 5.73096,5.50873 7.90388,8.98193c1.99736,3.19259 2.87623,6.92803 4.54012,10.26502c0.96985,1.94508 2.15797,3.83139 2.73026,5.92815c1.71897,6.29796 1.06112,13.5502 1.09086,20.04837c-1.87203,9.14705 -6.19582,17.5004 -11.75318,24.95469c-1.26522,1.69708 -3.1195,2.88299 -4.51304,4.47639c-1.23632,1.41362 -2.04134,3.19381 -3.36928,4.52173c-2.54503,2.54501 -5.89526,3.5992 -8.85136,5.45638c-0.7274,0.45699 -1.24643,1.24148 -2.03233,1.58835c-1.60021,0.70628 -3.42379,0.86382 -4.98652,1.64954c-3.04291,0.48036 -5.49941,0.72953 -8.04598,0.64451c-0.90007,-1.92422 -3.021,-1.21783 -3.021,-1.21783l-1.86121,0.67749c-0.30316,-0.05442 -0.61277,-0.11303 -0.92784,-0.17604l-2.81713,-0.04853c0,0 -0.38289,-0.00002 -0.8483,0.14934z" fill="#ffce66"></path>
      </g>
      <path d="M224.80412,205.15833c8.53552,4.3266 21.55932,6.63201 30.20621,1.44343c0.37633,-0.2986 0.75266,-0.59718 1.12899,-0.89578l0.95603,-1.20972c0,0 0.72975,-0.91217 1.70624,-0.48259l0.7394,-1.60339c0.53333,0.17777 1.06667,0.35555 1.6,0.53332c4.28795,1.4293 9.71078,2.71521 13.05937,5.90534c1.61462,1.53822 2.67136,4.65272 0.50741,6.52472c-2.279,1.97153 -8.48696,-0.31472 -11.25937,-1.447c1.93528,3.04538 2.95806,6.82904 -1.58137,8.15221c-2.27777,0.66394 -5.9237,-0.74219 -7.7235,-2.12992c-0.54722,-0.42194 -1.59604,-1.58052 -2.17015,-2.3401c-0.08208,0.36661 -0.20676,0.72034 -0.25097,0.98601c-1.12718,3.28232 -4.49558,7.17947 -8.4333,4.61166c-0.32739,-0.21349 -1.72579,-2.60773 -2.04205,-3.13482c-0.14939,-0.24898 -0.34311,-0.73737 -0.47155,-1.17027c-0.34535,0.43868 -1.04491,0.8937 -1.47046,1.15144c-2.02007,1.22348 -6.01109,2.89684 -8.04544,0.48819c-0.59275,-0.70181 -0.77355,-1.52322 -0.71601,-2.37669c-3.12194,1.8493 -6.54263,3.37565 -10.11216,2.01581c-1.9972,-0.76085 -2.83584,-2.27305 -2.76271,-3.85322c-2.25677,0.70361 -4.59134,1.0572 -6.84234,0.45363c-2.40134,-0.64389 -3.87193,-1.25627 -2.66505,-4.353c0.11268,-0.28912 2.79239,-1.94754 3.28909,-2.19652c3.40807,-1.70833 6.98924,-3.26109 10.55619,-4.60227c0,0 0.4524,-0.16965 0.93996,-0.05963c0.70251,-0.98835 1.85753,-0.41085 1.85753,-0.41085z" fill="#292f33" stroke-width="0.5"></path>
      <path d="M288.44987,167.67566l-0.0796,-0.04366l-0.45169,0.60226c-0.45492,0.62045 -1.18915,1.02329 -2.01746,1.02329c-1.38071,0 -2.5,-1.11929 -2.5,-2.5c0,-0.41989 0.10352,-0.8156 0.28642,-1.16301l0.15651,-0.31302l-0.29175,-0.29175l0.87522,-0.87521l0.39956,-0.79913c0,0 0.88069,-1.76139 2.64208,-1.37594c0.05782,-0.004 0.11618,-0.00603 0.17501,-0.00603c1.38071,0 2.5,1.11929 2.5,2.5c0,0.57191 -0.19204,1.09896 -0.51515,1.52019l-0.04577,0.06103c-0.1984,1.03768 -1.13337,1.66098 -1.13337,1.66098z" fill="#363636" stroke-width="0.5"></path>
      <path d="M286.55438,183.15764c-0.45966,1.13919 -0.91932,2.27839 -1.37898,3.41758c-0.93489,1.24395 -2.0569,2.41452 -3.32121,3.48711c-1.88509,2.55194 -3.47775,5.27071 -6.41332,6.79897c-7.03724,3.66359 -19.37078,4.3646 -25.15868,-2.35568c-2.38535,-2.76961 -3.88979,-8.08566 -4.59923,-11.57003c-0.61112,-3.0015 -0.52216,-5.28887 -2.4537,-7.70572c0,0 -0.05437,-0.07249 -0.1286,-0.20023c-0.43012,-0.07099 -1.12788,-0.27385 -1.60329,-0.85361l0.00004,-0.00002c-1.07761,-0.33207 -2.3558,-0.42533 -2.74744,0.67191c-0.16577,0.46442 -0.20791,0.94555 -0.18603,1.43592c0.63437,0.79118 0.48604,1.73489 0.33025,2.2497c0.0646,0.40692 0.11229,0.81253 0.1112,1.21283c-1.22886,7.47257 -3.10874,13.33875 -9.89255,17.60813c-6.36984,4.00885 -12.60552,3.88559 -19.74827,2.66161c-2.45814,-0.42123 -4.19753,-0.65499 -6.2689,-2.17911c-2.92736,-2.15397 -4.78058,-4.98818 -5.9157,-8.20397v-2.10377c-0.00497,-0.68931 0.08787,-1.48364 0.21366,-2.33582c-1.14645,-0.68045 -1.14645,-2.16713 -1.14645,-2.16713l0.04855,-1.65234c0.4012,-2.00601 0.34882,-4.65262 1.55992,-6.41067c-0.35414,0.18346 -0.72214,0.34383 -1.08511,0.50674c-0.16369,0.07347 -0.33035,0.14032 -0.49865,0.20347l-0.98618,0.98618l-0.05273,-0.05273c-0.08117,0.10651 -0.16549,0.21094 -0.25326,0.31307c-0.90744,1.05584 -2.4773,1.26841 -3.72201,1.8949l-2.80958,1.68574c-0.38339,0.2392 -0.83629,0.37741 -1.32147,0.37741c-1.38071,0 -2.5,-1.11929 -2.5,-2.5c0,-0.81467 0.38967,-1.53833 0.9928,-1.99475l0.00218,-0.00437c-0.38192,-0.0104 -0.76329,-0.02436 -1.14273,-0.03668c0.05763,-0.40763 0.11525,-0.81525 0.17288,-1.22287l-0.00001,-0.00001c0,0 0.10749,-0.7524 0.6188,-1.36822c0.00162,-0.0071 0.00328,-0.01419 0.00496,-0.02127c-0.04438,-0.18645 -0.06787,-0.38099 -0.06787,-0.58103c0,-0.99801 0.58479,-1.85943 1.43041,-2.26029l2.27567,-1.13783l0.0201,0.0402c0.04649,-0.03853 0.09356,-0.07649 0.14122,-0.11383c0.02301,-0.01802 3.20725,-1.07675 5.35853,-1.79085c-0.92159,-0.87014 -1.74806,-1.90901 -2.12536,-3.10101c-1.90642,-6.023 2.96973,-8.8803 7.72898,-10.16485c-2.82343,-3.31749 -0.14586,-11.95581 4.87671,-12.87051c1.17996,-0.21489 2.21303,0.93649 3.35996,1.28727c1.06987,0.32721 2.31019,0.17246 3.27345,0.74152c1.2663,0.74809 2.25926,1.91365 3.17252,3.06652c0.52707,0.66536 0.9808,1.42287 1.24671,2.23185c1.73064,-1.80394 4.41892,-2.91194 6.9345,-2.66694c5.43447,0.52928 6.26422,5.70746 9.11012,8.97426c1.84118,2.11348 4.12817,3.04895 6.35242,4.7065l2.12499,1.0625c0.24983,0.11843 0.4769,0.27707 0.67284,0.46755c1.34944,-0.1723 2.71032,-0.26326 4.06786,-0.2685l1.29257,0.28922c1.14355,-0.91456 2.31245,-2.22837 3.26686,-3.64066l0.75781,-1.51561l0.0965,0.04825c0.05622,-0.16977 0.12091,-0.3372 0.1954,-0.50192c0.12899,-0.28524 0.28485,-0.55034 0.4624,-0.79926c0.10588,-0.25863 0.19942,-0.51408 0.27917,-0.76452c0.71477,-2.24459 0.26641,-4.7449 2.59024,-6.40464c2.27586,-1.62548 7.4347,-1.45624 9.40788,0.60001c0.67727,0.70578 -0.69638,1.898 -0.60365,2.87177c0.02969,0.31173 0.58835,-0.23659 0.8364,-0.4277c0.54395,-0.41908 0.96085,-0.99226 1.5214,-1.38886c0.92189,-0.65227 1.9634,-1.11978 2.90513,-1.74307c2.52185,-1.66911 3.77491,-4.34059 6.01848,-6.08444c1.3359,-1.03835 2.79196,-2.8091 4.44544,-2.45019c5.38417,1.16872 3.65508,5.40137 3.20484,8.41649c-0.38734,0.96837 -0.64824,1.99748 -1.16203,2.90511c-0.19727,0.34848 -1.17616,0.46496 -0.91989,0.77266c0.26816,0.32197 0.77582,-0.31707 1.15997,-0.48439c0.71913,-0.31322 1.43983,-0.62343 2.14968,-0.95714c3.55292,-1.6703 8.5046,-3.96212 10.91285,1.38836c0.63504,1.41088 -0.14791,3.11514 -0.55174,4.60872c-0.36007,1.33172 -0.93566,2.43752 -1.67099,3.36239c0.68572,0.84946 1.49827,1.64377 1.7444,2.68437c0.28713,1.21397 -0.35914,2.46895 -0.53125,3.70448c-0.1984,1.42423 0.39666,3.21957 -0.58029,4.27473c-1.08966,1.1769 -3.03982,1.07119 -4.62059,1.34254c-0.27621,0.04741 -0.91659,-0.62986 -0.72551,-0.42484c2.1711,2.32944 1.27196,4.80228 0.66075,7.8341c-0.2998,1.48714 -0.68353,2.84031 -1.17937,4.10358zM249.4383,172.15684c0.52742,3.16642 1.2421,5.37286 2.22281,8.31505c0.79356,2.38072 1.02432,4.77428 2.56855,6.90292c3.01652,4.1581 8.62617,4.57694 13.16929,3.65853c4.06894,-0.82256 7.40891,-1.55261 10.31366,-3.74182c0.16012,-0.22724 0.32271,-0.45241 0.48959,-0.67397c1.64091,-1.61332 2.79895,-3.31708 3.61902,-5.18861l0.46634,-2.37907c0,0 0.15234,-0.7617 0.71177,-1.35102c0.17024,-0.7923 0.30567,-1.61502 0.41394,-2.47225c0.24508,-1.94038 -1.83115,-3.98215 -1.04596,-5.77342c0.64101,-1.46236 2.44505,-2.14407 3.92272,-2.74896c0.72761,-0.29785 1.72725,0.65818 2.35171,0.1805c0.4346,-0.33244 -0.58787,-0.98841 -0.58029,-1.53553c0.00953,-0.68708 0.67838,-1.30473 0.64673,-1.97222c-0.57925,-0.12909 -0.97424,-0.42192 -1.24357,-0.76124c-1.43,0.61609 -2.98474,1.04292 -4.54043,1.38036c-0.41922,0.71511 -1.13434,1.07266 -1.13434,1.07266l-1.86909,0.81092c-9.86985,1.62186 -19.81688,1.76692 -29.83208,1.7765c0.00362,0.05549 0.00505,0.11042 0.00454,0.16467l0.46651,0.65448c0,0 0.53221,2.1287 -1.39485,2.89615c0.21309,0.42344 0.27341,0.78538 0.27341,0.78538zM205.63141,170.1997c-0.53162,1.05382 -1.39138,1.93745 -2.05049,2.91732c-0.02148,0.74048 -0.41417,1.51791 -0.76998,2.29406c0.0624,0.48731 0.21068,0.98708 0.1671,1.47029c-0.08141,0.90266 -0.56235,1.75249 -0.56885,2.65879c-0.06174,8.60958 7.41327,12.43059 14.89048,12.60702c2.37532,0.05605 2.23322,-0.94778 4.49645,-1.62088c1.05883,-0.3149 2.24415,-0.10693 3.27577,-0.50198c1.51432,-0.5799 2.55718,-1.99538 3.86395,-2.95549c2.16382,-2.94513 3.85049,-4.96614 4.54552,-8.59997l0.53083,-1.1929c0.00003,-1.86532 0.03874,-4.2507 0.2656,-4.66404c0.2127,-0.38756 0.44396,-0.73731 0.69133,-1.05181c-0.23724,-0.3823 -0.37422,-0.83333 -0.37422,-1.31635c0,-0.48517 0.13821,-0.93807 0.3774,-1.32146l0.92161,-1.53605l0.40099,-1.0025c-1.04761,0.32184 -2.12679,0.51778 -3.43097,0.61553c-1.14005,2.04377 -3.27836,0.97462 -3.27836,0.97462c-2.54052,-1.37695 -4.68116,-0.89474 -7.59736,-0.89813c-5.45848,-0.00633 -10.74923,1.04631 -16.08799,2.10644c-0.05122,0.58236 -0.26879,1.01751 -0.26879,1.01751z" fill="#292f33" stroke-width="0.5"></path>
      <g stroke-width="0.5">
        <path d="M258.56773,197.0822c2.45685,2.64828 2.60301,8.05943 0.21899,10.88524c-1.3587,1.61049 -4.93979,3.69138 -7.57362,2.74033c-0.39287,0.5065 -0.81041,0.95238 -1.24144,1.28635c-4.92727,3.81763 -11.78104,0.95413 -16.3801,-2.32528c-0.57304,0.23643 -1.1546,0.43054 -1.76705,0.47102c-4.5935,0.30361 -7.93946,-3.14573 -7.92395,-7.74422c0.012,-3.55567 2.88648,-5.91515 5.33766,-7.89785c0,0 1.13062,-0.9045 2.35934,-0.47638c0.4622,-1.04073 0.91702,-2.03182 1.2927,-2.92816c1.68673,-4.02444 2.55829,-8.49157 3.93798,-12.63386l0.35104,-0.2165c-0.0793,-0.34243 -0.07931,-0.59294 -0.07931,-0.59294c0.07868,-1.28679 -0.41526,-2.74779 0.23602,-3.86038c1.94734,-3.32662 5.60019,-4.75822 9.06582,-2.459c1.07279,0.71173 1.04658,2.35252 1.56986,3.52879l0.45365,1.78427c0,0 0.13174,0.52697 0.02677,1.15105c0.35596,0.5644 0.42856,1.1452 0.42856,1.1452c0.62311,5.15595 3.26831,10.4883 4.75015,15.81301c1.65735,0.53734 3.99693,1.31608 4.93692,2.32932zM238.29599,204.12715c-0.10894,-0.06572 -0.21526,-0.1347 -0.31851,-0.20674c0.02805,0.06582 0.05209,0.13146 0.07245,0.19678c0.08336,0.06659 0.17158,0.13388 0.2657,0.20247c-0.00214,-0.01693 -0.00416,-0.03384 -0.00606,-0.05072c-0.00531,-0.04731 -0.00984,-0.09458 -0.01359,-0.14178z" fill="#ff924c"></path>
        <path d="M230.83992,194.34389c0.03932,-0.06291 0.07932,-0.12535 0.12001,-0.18731c0,0 0.0028,-0.0042 0.00832,-0.0119c0.13834,-0.21939 0.36888,-0.4609 0.73398,-0.53395c0.16027,-0.04509 0.34295,-0.05658 0.54447,-0.00601c0.18288,0.02665 0.37459,0.09948 0.54911,0.25318c0.15064,0.10986 0.25294,0.24178 0.32143,0.3788c0.1053,0.17552 0.14557,0.35521 0.14898,0.52295c0.03027,0.24793 -0.02508,0.4577 -0.11621,0.62933c-0.33275,1.38722 0.08607,2.3101 0.09998,3.86098l0.03388,-0.48389c0,0 0.88388,0.88388 0,1.76776c-0.88388,0.88388 -1.76777,0 -1.76777,0l-0.50615,-0.84823c-0.47735,-0.0728 -0.86591,-0.41562 -1.00495,-0.86772l-0.39088,-1.17265l0.18857,-0.06286l-0.25271,-0.33243c0.13664,-0.45346 0.29669,-0.90277 0.48212,-1.34134c-0.05479,-0.22383 -0.08213,-0.45049 -0.08213,-0.65866z" fill="#863528"></path>
        <path d="M256.38579,198.84527l-1.10195,1.28857c0,0 -0.48703,0.48704 -1.09958,0.37652c-0.1678,0.0176 -0.36015,-0.00141 -0.57958,-0.07455c-1.18586,-0.39528 -0.79058,-1.58113 -0.79058,-1.58113l0.33585,-0.80472c-0.24883,-0.6481 -0.34351,-1.34872 -0.37951,-2.04951c-0.03964,-0.14622 -0.05066,-0.31467 -0.01717,-0.50759c-0.00153,-0.08116 -0.00259,-0.16216 -0.00332,-0.24291c0,0 0,-1.25 1.25,-1.25c0.76483,0 1.06169,0.46797 1.17691,0.83125c1.61821,0.87403 1.82082,1.91106 1.20892,4.01406z" fill="#863528"></path>
      </g>
      <path d="M78.47468,56.21436z" fill="#ff9500" stroke-width="0"></path>
      <path d="M226.33333,186.33333c-4.98548,-0.01726 -12.48433,3.75215 -17.2197,1.16709c-2.4646,-1.34544 -3.58051,-6.12153 -1.44096,-8.26108c2.14343,-2.14344 6.05293,-0.63482 8.35557,0.13823c0.29489,0.04822 0.58589,0.09612 0.87406,0.14528c-0.3934,-0.49625 -0.77351,-1.00221 -1.14071,-1.49582c-0.998,-0.48589 -2.30896,-1.1763 -2.50323,-2.12286c-0.03205,-0.15619 -0.05219,-0.31296 -0.06261,-0.47021l-0.08067,0.01153l-0.08911,-0.62377c-0.11129,-0.07833 -0.2264,-0.15636 -0.34268,-0.23519c-0.44189,0.0843 -1.05789,0.02684 -1.50286,-0.71477c-0.28626,-0.47709 -0.28937,-0.8834 -0.18,-1.2058c-0.00631,-0.04115 -0.01113,-0.08303 -0.01439,-0.12567c-0.07852,-1.02813 0.53082,-2.05837 1.18005,-2.85944c1.70751,-2.10685 4.7768,-1.2682 6.57693,0.11934c2.92426,2.25401 5.60108,6.35804 7.20718,9.62277c0.3225,0.31445 0.645,0.6289 0.9675,0.94336l0.02738,0.08432l0.02623,-0.02098l1.0592,1.324c0.21016,0.25814 0.33616,0.58754 0.33616,0.94637c0,0.18784 -0.03453,0.36762 -0.09758,0.53333c0.06305,0.16571 0.09758,0.34549 0.09758,0.53333c0,0.46084 -0.20782,0.87314 -0.53485,1.1483c-0.05341,1.41837 -1.49848,1.41837 -1.49848,1.41837zM209.55654,181.96898c0.02721,-0.04866 0.05706,-0.09566 0.08934,-0.14078c-0.00824,-0.06352 -0.01251,-0.12828 -0.01254,-0.19403c-0.03502,0.09811 -0.06038,0.21112 -0.0768,0.33482z" fill="#714c19" stroke-width="0.5"></path>
      <path d="M257.22486,186.17019c-0.3825,-0.19068 -0.68132,-0.54265 -0.78953,-0.9906c-0.04411,-0.18259 -0.05276,-0.36545 -0.03038,-0.54134c-0.1002,-0.14627 -0.17598,-0.31292 -0.22009,-0.4955c-0.08426,-0.34879 -0.03913,-0.69857 0.10454,-0.99884l0.71869,-1.53569l0.03042,0.01423l0.00682,-0.08839c0.23965,-0.38138 0.47929,-0.76277 0.71894,-1.14416c0.79459,-3.55057 2.4329,-8.16841 4.74614,-11.04605c1.424,-1.77143 4.21055,-3.30734 6.36503,-1.66034c0.81918,0.62623 1.65339,1.48459 1.81848,2.50241c0.00685,0.04222 0.012,0.08406 0.01553,0.12553c0.18201,0.2877 0.27439,0.68338 0.10816,1.21435c-0.25839,0.82536 -0.84368,1.02586 -1.29301,1.04767c-0.09452,0.10393 -0.18809,0.20681 -0.27787,0.30908l0.05985,0.62726l-0.08112,0.00774c0.0268,0.1553 0.04404,0.31242 0.04955,0.47176c0.03343,0.96571 -1.07876,1.94466 -1.93477,2.6513c-0.24103,0.56603 -0.49172,1.1471 -0.75759,1.72185c0.26857,-0.11545 0.5402,-0.23034 0.81551,-0.34646c2.05674,-1.29212 5.5027,-3.67655 8.0895,-2.09634c2.58212,1.57735 2.61889,6.48192 0.53912,8.36846c-3.99597,3.62471 -12.17027,1.7215 -17.0123,2.90892c0,0 -1.40467,0.33932 -1.78963,-1.02685zM274.14416,178.70792c0.01541,0.06392 0.02646,0.12788 0.03337,0.19156c0.04198,0.03628 0.08202,0.07495 0.1199,0.11587c-0.04501,-0.11638 -0.09619,-0.22027 -0.15327,-0.30742z" fill="#714c19" stroke-width="0.5"></path>
      <g stroke-width="0.5">
        <g>
          <path d="M298.47591,223.27567c-0.7589,0.59656 -0.70693,1.66757 -0.70693,1.66757l0.09288,1.80576c0.78221,6.20615 -0.04344,11.82174 -0.55221,18.01699c-2.21134,4.84298 -4.22454,9.75985 -7.40653,14.08638c-3.06435,4.16656 -7.80232,6.06221 -12.18122,8.34754c-4.59142,2.39623 -8.92178,4.30643 -14.13106,4.963c-4.65312,0.61498 -7.36093,-0.88224 -11.24363,-2.83361c-1.84058,-0.92503 -4.2743,-0.32696 -6.02181,-1.41763c-1.25731,-0.78471 -3.43689,-4.65819 -4.18902,-5.92067c-2.30789,-3.87377 -3.04553,-8.4704 -3.9008,-12.90489c-1.05717,-5.48126 -2.3504,-10.2855 -0.80794,-15.79124c0.17948,-2.49789 1.35307,-3.86824 2.35674,-6.146c5.24241,-11.89715 16.70998,-15.50814 27.86384,-19.77439c0,0 0.80369,-0.31303 1.13906,-1.05234c0.24647,-0.16528 0.39258,-0.32565 0.39258,-0.32565c4.28614,-4.90672 4.78487,-12.90958 7.2467,-18.89214c2.36468,-5.74647 11.15028,-8.01863 16.6161,-8.82973c4.91161,1.4444 9.20508,1.73339 12.0342,6.5874c1.94701,3.34056 -0.36824,7.32719 3.19904,10.62174c0.86054,0.79475 4.06423,2.58603 5.31134,2.79365c2.94429,0.49015 10.65836,-2.25655 7.89072,3.49922c-3.19936,3.47356 -8.10879,4.39692 -12.16008,6.58138c-6.07317,3.27467 -8.9331,8.72409 -10.84195,14.91767z" fill="#781616"></path>
          <g>
            <g>
              <path d="M298.18587,180.20875c-0.00852,0.09104 -0.0209,0.17745 -0.03675,0.25943c0.33424,5.95264 -2.64517,11.78547 -7.6525,15.2585c-2.908,2.01695 -6.69954,3.04552 -9.17941,5.60275c-5.21389,7.46626 -3.20162,16.63329 -7.34691,24.54891c-3.69604,7.05776 -9.90046,8.69775 -15.7271,13.23776c-7.94801,7.2088 0.93776,15.65498 0.78018,23.65508c-0.10464,5.31296 -2.87461,10.04447 -8.38882,10.45883c0,0 -1.51703,0.07379 -1.94421,-1.24452c-0.26231,-0.26825 -0.39427,-0.52802 -0.39427,-0.52802c-1.17756,-2.50785 -3.73995,-3.8777 -5.16913,-6.41636c-5.21839,-9.26946 -8.97042,-20.71189 -7.15144,-31.43124c1.40012,-4.69594 2.1352,-9.27365 5.65372,-12.99284c7.52347,-7.95254 20.00996,-8.11697 27.38332,-15.58139l0.49568,-0.65868c0.09313,-0.30145 0.21622,-0.49913 0.21622,-0.49913c5.26076,-8.40091 4.10827,-21.74394 15.2595,-25.39102c3.3687,-1.10176 7.41166,-0.62654 10.88056,-0.46035l0.55386,0.0498c0,0 0.60515,0.05664 1.10968,0.44393l0.37199,-0.10885c0.04338,0.23167 0.0815,0.46356 0.11447,0.69553c0.13948,0.28351 0.21422,0.64395 0.17137,1.10187zM286.22163,182.20317c-9.14959,3.09735 -8.74883,16.60669 -13.17212,23.74521c0,0 -0.00124,0.002 -0.00371,0.00581c-0.1304,0.41767 -0.34992,0.7005 -0.34992,0.7005l-0.90479,1.14192c-7.48367,7.49287 -19.8239,7.69518 -27.32339,15.51975c-3.00201,3.13214 -3.48762,7.2208 -4.67865,11.18799c-1.68563,9.66813 2.07498,20.28668 6.74807,28.60964c1.37574,2.45026 3.52444,3.73545 4.95767,6.05881c3.06164,-0.86749 4.15267,-5.43541 3.42067,-8.39274c-0.68841,-2.7812 -2.36829,-5.33606 -3.15405,-8.09745c-1.68704,-5.92874 -0.55256,-12.27167 3.93947,-16.54635c5.367,-4.18009 11.43953,-5.6315 14.79005,-12.05706c4.28293,-8.21373 2.24509,-17.36353 7.82367,-25.26516c5.72348,-5.67378 16.08606,-7.824 16.03036,-16.95755c-2.65723,-0.1884 -5.70038,-0.47354 -8.12333,0.34669z" fill="#783232"></path>
              <path d="M294.3761,181.7991c0.05571,9.13357 -10.35566,11.404 -16.07915,17.07779c-5.57859,7.90163 -3.48734,17.04321 -7.77029,25.25694c-3.35052,6.42554 -9.40623,7.7836 -14.77324,11.96369c-4.49204,4.27469 -5.64194,10.60265 -3.9549,16.5314c0.78576,2.76139 2.45519,5.31035 3.1436,8.09157c0.73201,2.95733 -0.41201,7.64458 -3.47365,8.51207c-1.43322,-2.32335 -3.5908,-3.61329 -4.96654,-6.06356c-4.67309,-8.32298 -8.46091,-18.97724 -6.77527,-28.64538c1.19103,-3.96719 1.67383,-8.07891 4.67586,-11.21104c7.49949,-7.82456 19.90791,-8.08831 27.39158,-15.58117l0.90782,-1.14171c0,0 0.22049,-0.28273 0.35088,-0.70039c0.00246,-0.00382 0.00372,-0.00579 0.00372,-0.00579c4.42329,-7.13852 4.03743,-20.64444 13.18703,-23.74179c2.42296,-0.82022 5.47531,-0.53097 8.13253,-0.34259z" fill="#a14343"></path>
            </g>
            <path d="M285.4808,184.2852c1.79223,0.78974 1.00248,2.58196 1.00248,2.58196l0.02887,-0.2524c-0.4229,3.02865 -0.98111,6.92723 -3.48103,9.04551c-1.72685,1.46325 -3.48897,1.50749 -4.75842,3.56001c-2.40401,3.88688 -1.58699,8.75883 -4.32652,12.71375c-1.78022,2.57001 -4.74707,3.48035 -6.50261,5.92813c0,0 -0.17324,0.23181 -0.47567,0.45061c-0.02707,0.08201 -0.04775,0.12893 -0.04775,0.12893l-0.88034,1.9904c-1.72296,2.8998 -3.00538,4.61757 -6.49142,5.25682c-3.70781,0.6799 -10.03379,-1.98753 -11.08441,3.49499c0.86025,4.36785 0.68252,7.28213 -0.44706,11.57901c-0.74336,2.82767 -2.53128,5.22978 -1.79251,8.26223c1.38005,5.66475 7.44589,8.54648 7.28198,14.54353c-0.06127,2.24184 -0.73938,3.01813 -1.73065,4.98572c0,0 -0.89363,1.74275 -2.63638,0.84912c-1.74275,-0.89363 -0.84912,-2.63638 -0.84912,-2.63638c2.65488,-5.06591 -0.02303,-5.89941 -2.84606,-9.7553c-1.24199,-1.6964 -2.55915,-4.98327 -3.02708,-7.06616c-1.13313,-5.04383 1.99306,-9.6459 2.9444,-14.49354c0.39614,-2.01857 -0.49736,-4.37647 -0.81353,-6.35576c0.24107,-1.03141 0.21843,-2.16303 0.72323,-3.09421c4.21501,-7.77546 13.44962,-0.51459 17.27704,-7.34534l0.78751,-1.79459c0,0 0.22743,-0.51611 0.71516,-0.87237c0.11781,-0.28884 0.2552,-0.47268 0.2552,-0.47268c1.82181,-2.36901 4.76222,-3.35324 6.41903,-5.81194c2.60282,-3.86258 1.79111,-8.66824 4.2325,-12.57134c1.51043,-2.41477 3.44929,-2.93165 5.56519,-4.48212c1.62385,-1.18992 1.86939,-4.80077 2.10892,-6.57096l0.26713,-0.79311c0,0 0.78974,-1.79223 2.58196,-1.00248z" fill="#b17878"></path>
          </g>
          <g>
            <path d="M280.42756,222.18614c0.34395,0.1238 0.56948,0.29235 0.56948,0.29235c3.34719,2.50892 10.02001,7.07622 14.32772,7.14693c0.82591,0.01355 1.25726,-3.51054 1.34837,-3.89573c1.17944,-4.98639 2.82647,-10.3432 4.54438,-15.13554c1.24184,-4.15622 2.22184,-8.20073 3.09559,-12.43342c0.24687,-1.19597 0.85517,-2.34873 0.8247,-3.56955c-0.01353,-0.54193 -0.04424,-1.81033 -0.51552,-1.54243c-0.90352,0.5136 -1.34818,1.59918 -2.15878,2.24963c-5.20738,4.17849 -9.80372,9.09409 -13.9118,14.38819c-2.9374,3.77592 -5.92358,8.11395 -8.12415,12.49958zM278.01191,224.82903l-2.18597,-2.05947c2.39465,-5.40169 6.01661,-10.81743 9.63141,-15.48468c4.29593,-5.53365 9.10605,-10.66924 14.55242,-15.03978c1.04812,-0.84109 3.59605,-3.17494 4.72362,-3.11181c2.41466,0.13519 4.04298,3.11619 4.30518,5.10172c0.07854,0.59469 -0.75016,4.04592 -0.88887,4.71522c-0.90776,4.37989 -1.92573,8.57523 -3.21352,12.87452c-1.71352,4.64542 -3.30408,9.94246 -4.44981,14.80055c-0.61357,2.60166 -1.14051,6.00648 -4.34708,6.83146c-0.94372,0.24279 -1.9111,-0.38197 -2.86672,-0.57263c-5.03368,-1.00431 -10.52159,-4.21246 -14.62055,-7.26819c0,0 -0.39465,-0.29497 -0.64012,-0.78695z" fill="#868686"></path>
            <path d="M288.49509,209.65402c4.10805,-5.2941 8.78632,-10.23734 13.9937,-14.41582c0.8106,-0.65043 1.25823,-1.73468 2.16174,-2.24828c0.47128,-0.2679 0.50507,1.00207 0.51859,1.54401c0.03047,1.22081 -0.57468,2.3754 -0.82157,3.57138c-0.87374,4.23267 -1.82828,8.3068 -3.07011,12.46303c-1.71791,4.79234 -3.41555,10.23957 -4.59501,15.22597c-0.09111,0.3852 -0.53003,3.90993 -1.35594,3.89639c-4.3077,-0.0707 -11.03681,-4.66732 -14.38399,-7.17625c0,0 -0.22668,-0.17038 -0.57063,-0.29417c2.20055,-4.38563 5.18579,-8.79032 8.12319,-12.56623z" fill="#a2a2a2"></path>
          </g>
          <path d="M284.10696,221.6414c-2.18976,-2.51371 -7.93055,-4.51785 -10.96465,-5.43798c-1.00604,-0.3051 -2.15195,-1.4443 -3.03179,-0.8689c-0.712,0.46562 -1.6367,1.90662 -2.43187,3.22617c4.99267,1.70939 9.18319,3.93366 12.99353,7.64962l0.23811,0.21568c1.13442,-1.16215 3.8953,-3.98262 3.19671,-4.78456zM263.63324,221.19049c-1.60254,-1.12588 -0.47666,-2.72843 -0.47666,-2.72843c1.06068,-1.50915 3.31879,-5.71541 5.06254,-6.55768c4.38931,-2.12012 11.21082,2.52836 14.89117,4.59965c0.84713,0.47676 3.87168,2.2079 4.33405,3.08682c2.13377,4.05605 -1.64807,7.06102 -3.97292,9.81507l-1.26397,1.08769c0,0 -1.1834,0.9809 -2.32242,0.15635c-0.31587,-0.15333 -0.51371,-0.33284 -0.51371,-0.33284l-1.43667,-1.3052c-3.42341,-3.352 -7.18825,-5.29676 -11.71253,-6.8093c0,0 -0.57237,-0.19246 -0.9746,-0.6815c-0.4407,0.13238 -0.9915,0.10691 -1.61427,-0.33062z" fill="#343434"></path>
          <path d="M280.95187,226.47625l-0.23842,-0.21541c-3.81033,-3.71595 -8.10558,-6.00634 -13.09824,-7.71574c0.79517,-1.31954 1.73434,-2.78817 2.44633,-3.25378c0.87985,-0.57538 2.03834,0.5528 3.04438,0.85789c3.03411,0.92013 8.87603,2.98667 11.06579,5.50038c0.6986,0.80195 -2.08542,3.66453 -3.21984,4.82668z" fill="#434343"></path>
          <path d="M296.92641,206.51256c-1.31596,1.45052 -2.76648,0.13454 -2.76648,0.13454l-0.54848,-0.50952c-3.70196,-2.77233 -7.335,-5.1154 -12.07618,-4.98304c0,0 -1.95805,0.04227 -2.00031,-1.91579c-0.00418,-0.19368 0.01121,-0.3686 0.04233,-0.5266c-1.23094,-1.22807 -0.06661,-2.60731 -0.06661,-2.60731c1.08006,-1.27913 2.17921,-2.5426 3.30392,-3.78265l0.31384,-0.34595c0,0 0.91089,-1.00405 2.05234,-0.58361c4.36135,-0.79339 9.33629,0.29726 12.85741,3.01885c2.30629,1.7826 4.33739,4.66299 3.17819,7.7394c-0.38169,1.01302 -1.34315,1.69809 -2.01472,2.54715l-0.69627,0.89978c0,0 -0.5926,0.76351 -1.48158,0.80151c-0.03065,0.03764 -0.06309,0.0754 -0.09743,0.11325zM296.20855,202.1713c4.71579,-5.03071 -6.85642,-7.65657 -10.85578,-6.81548c-0.58671,0.65252 -1.16627,1.31154 -1.73972,1.9758c4.57063,0.47619 8.3045,2.67945 12.09449,5.4835z" fill="#343434"></path>
          <path d="M295.75955,202.85459c-3.78998,-2.80403 -7.63937,-5.06187 -12.21,-5.53806c0.57345,-0.66427 1.16265,-1.34506 1.74936,-1.99759c3.99936,-0.8411 15.68209,1.85411 10.9663,6.8848z" fill="#434343"></path>
          <g>
            <path d="M287.93296,245.19039c0.13285,0.89131 -0.7732,1.07988 -0.7732,1.07988c-5.09579,0.96236 -7.12621,-5.52583 -3.25498,-8.62133c1.72555,-1.37978 4.86189,-0.63291 5.72381,1.44141c0.97248,2.34035 -0.08051,4.5733 -1.69563,6.10004zM284.95094,244.14769c0.14313,-0.05071 0.25362,-0.06092 0.25362,-0.06092l1.25002,-0.07755c1.40511,-1.10994 2.52771,-5.66798 -0.60216,-5.07956c-2.2591,0.42471 -2.66025,4.13835 -0.90146,5.21802z" fill="#868686"></path>
            <path d="M285.85006,238.86444c3.12988,-0.58842 2.02274,4.09881 0.61762,5.20876l-1.28131,0.0763c0,0 -0.11549,0.00852 -0.25864,0.05924c-1.75877,-1.07967 -1.33678,-4.91958 0.92232,-5.3443z" fill="#a2a2a2"></path>
          </g>
          <g>
            <path d="M270.7893,258.78179c-0.01508,0.02923 -0.02515,0.04542 -0.02515,0.04542c-3.40314,4.57897 -7.38056,-3.08778 -4.55297,-6.49242c2.0008,-2.40912 5.49559,-2.55141 6.77894,0.75395c0.81487,2.09875 -0.22448,3.67554 -1.33947,5.32635zM268.87326,258.20747c-0.10677,-0.7196 0.6296,-1.0055 0.6296,-1.0055l0.89798,-0.29475c0.53718,-1.01034 1.24245,-1.87625 0.76358,-3.10962c-0.8025,-2.06689 -3.4503,-1.47498 -4.02934,0.46242c-0.31555,1.05582 0.96334,4.73992 1.73818,3.94744z" fill="#868686"></path>
            <path d="M267.07533,254.23376c0.57903,-1.9374 3.33821,-2.54303 4.1407,-0.47615c0.47887,1.23336 -0.24289,2.19427 -0.78007,3.20462l-0.92728,0.30475c0,0 -0.75197,0.28542 -0.6452,1.00503c-0.77484,0.79248 -2.10371,-2.98245 -1.78816,-4.03827z" fill="#a2a2a2"></path>
          </g>
          <g>
            <path d="M281.65148,257.76547c-4.45126,2.00985 -6.28839,-7.30447 -0.23307,-8.25772c5.24658,-0.82594 5.51108,7.14111 0.73904,8.26053zM280.39041,255.95566c0.26617,-0.15557 0.5567,-0.15262 0.5567,-0.15262l1.01965,0.01602c1.73827,-0.2737 2.66095,-4.00889 0.68024,-4.48381c-4.25457,-1.02018 -2.98477,3.67028 -2.25659,4.6204z" fill="#868686"></path>
            <path d="M282.67336,251.27554c1.98071,0.47493 1.03854,4.33474 -0.69972,4.60846l-1.04677,-0.01888c0,0 -0.30078,-0.00728 -0.56695,0.14829c-0.72817,-0.95011 -1.94113,-5.75804 2.31344,-4.73787z" fill="#a2a2a2"></path>
          </g>
          <g>
            <path d="M277.06181,247.39364c-0.09295,0.34735 -0.38192,0.56642 -0.38192,0.56642c-5.2333,3.68227 -7.2021,-4.59657 -3.14427,-7.31056c4.32502,-2.89269 7.23204,3.22947 4.5141,6.34281zM275.13725,246.67501c-0.00544,-0.62262 0.64015,-0.87328 0.64015,-0.87328l1.16296,-0.42344c1.37261,-1.3811 -0.51883,-4.50758 -2.29536,-3.11477c-1.68024,1.3173 -1.86963,6.00734 0.49227,4.41149z" fill="#868686"></path>
            <path d="M274.62848,242.20036c1.77653,-1.39281 3.7407,1.83 2.36811,3.2111l-1.19474,0.45081c0,0 -0.67148,0.25539 -0.66605,0.87802c-2.36191,1.59585 -2.18756,-3.22263 -0.50732,-4.53993z" fill="#a2a2a2"></path>
          </g>
          <path d="M310.91784,192.6809c3.95481,3.48393 9.39049,-0.60176 13.32943,2.63156c2.66181,2.18499 1.48275,6.20652 0.45855,8.62872c-4.62574,5.14755 -11.70739,5.62851 -16.73711,10.12602c-3.53346,3.15956 -4.82513,6.83539 -6.06113,11.18262c0.08091,0.29126 0.21387,0.99271 -0.15257,1.604c0.72476,6.45596 -0.0305,12.37017 -0.69732,18.84812c-2.28417,5.32746 -4.51896,10.78732 -8.04773,15.44869c-6.09101,8.04602 -19.13092,13.60438 -28.90847,14.83671c-5.39714,0.65316 -8.97893,-0.85238 -13.53675,-3.24338c-1.9396,-1.0175 -4.50759,-0.46514 -6.36762,-1.62174c-1.67278,-1.04017 -4.41157,-5.53542 -5.3832,-7.17854c-2.55053,-4.31318 -3.42247,-9.24316 -4.36936,-14.15453c-1.14424,-5.93501 -2.47865,-11.24505 -0.80445,-17.22103c0.31403,-2.83439 1.49836,-4.44612 2.62494,-7.00276c5.70506,-12.94707 17.65281,-16.94487 29.74069,-21.68579c0.14636,-0.28322 0.30491,-0.45797 0.30491,-0.45797c4.02205,-4.19312 4.09548,-12.55199 6.53693,-17.83162c3.38963,-7.33003 13.09674,-10.34411 20.46604,-11.15895c0.05669,0.01522 0.1134,0.03036 0.17006,0.04544c0.28709,0.51653 0.8292,0.7554 0.8292,0.7554c1.28309,0.55014 2.66658,0.9048 4.05549,1.04593l1.50398,-0.06965c2.22851,0.73918 4.28318,1.71489 6.00194,3.32876c0.03327,0.18358 0.07924,0.302 0.07924,0.302c0.69312,1.78515 1.95331,5.03088 2.64642,6.81603c0,0 0.1868,0.48114 0.6209,0.79723c0.05513,1.94865 0.15464,3.87011 1.69696,5.22878zM309.26064,208.3894c4.05128,-2.18445 8.96066,-3.10791 12.16002,-6.58147c2.76764,-5.75577 -4.9407,-3.00034 -7.88499,-3.49049c-1.24711,-0.20762 -4.445,-1.99237 -5.30554,-2.78712c-3.56728,-3.29456 -1.24146,-7.27277 -3.18847,-10.61332c-2.82912,-4.854 -7.10554,-5.13527 -12.01716,-6.57967c-5.46581,0.81111 -14.22772,3.0856 -16.59242,8.83208c-2.46184,5.98256 -2.93423,13.97735 -7.22036,18.88407c0,0 -0.14479,0.1596 -0.39125,0.32489c-0.33537,0.73929 -1.13509,1.04979 -1.13509,1.04979c-11.15385,4.26626 -22.59343,7.81948 -27.83584,19.71663c-1.00367,2.27776 -2.17846,3.63909 -2.35794,6.13698c-1.54247,5.50574 -0.25697,10.28988 0.8002,15.77115c0.85528,4.43449 1.58295,9.01824 3.89083,12.89201c0.75215,1.26246 2.92528,5.13028 4.18259,5.915c1.74752,1.09068 4.17542,0.48862 6.01599,1.41366c3.8827,1.95138 6.57737,3.44246 11.23049,2.82748c5.20927,-0.65655 9.52167,-2.57012 14.11308,-4.96635c4.37891,-2.28533 9.09517,-4.17829 12.15952,-8.34485c3.182,-4.32653 5.17088,-9.22988 7.38224,-14.07287c0.50878,-6.19524 1.31269,-11.76926 0.53049,-17.97542l-0.0933,-1.79936c0,0 -0.05182,-1.06522 0.70709,-1.66178c1.90885,-6.19358 4.77667,-11.61635 10.84984,-14.89102z" fill="#4e0e0e"></path>
        </g>
        <g>
          <path d="M362.35237,102.8343l-0.58465,-0.1911c-0.86187,1.7103 -1.67138,3.4439 -2.37554,5.22044c1.99162,-1.12993 3.98323,-2.55828 3.17221,-5.06655c-0.12302,0.0329 -0.21203,0.03723 -0.21203,0.03723zM366.53569,92.20393l0.16648,0.19989c0.06679,-0.04425 0.1443,-0.0845 0.23405,-0.11935c0.79716,-0.30951 1.16847,0.34739 1.2498,0.51888l0.67622,0.43453c0,0 0.32473,0.29461 0.34247,0.70686c0.34691,0.39949 0.63967,0.77429 0.66215,0.92869c0.14393,0.98883 -2.43178,5.0138 -3.24155,5.63838c-0.69375,0.5351 -2.24519,0.45319 -3.31049,0.54756l0.95737,0.70527c1.8298,4.8639 -2.72111,6.87482 -5.89626,8.92192c0,0 -0.33734,0.21514 -0.71828,0.15477c-0.23491,0.2087 -0.44144,0.31361 -0.44144,0.31361l-1.87184,0.95087c-1.69466,0.85186 -3.40028,1.37768 -5.09626,2.13131c-0.35784,0.66905 -1.08685,0.9521 -1.08685,0.9521l-0.04522,-0.02324c-5.00873,3.1657 -13.51033,2.1961 -15.11354,-4.81707c-0.14559,-0.63687 -0.10369,-1.45318 0.00705,-2.27764c-0.07145,-0.49551 0.04494,-0.91092 0.04494,-0.91092c0.9689,-2.72657 -1.84433,-5.98534 -2.86585,-8.60767l-0.41644,-1.70414c0,0 -0.22025,-0.94724 0.31714,-1.66194c-0.50551,-0.80902 -1.27806,-1.4439 -1.52305,-2.37491c-0.77083,-2.92929 2.72179,-5.31063 5.18299,-5.35678l0.92564,0.32136c0,0 0.50993,0.22471 0.59095,0.71976c0.57238,-0.82504 1.1513,-1.64972 1.73895,-2.46724c-0.04512,-0.04254 -0.06959,-0.07205 -0.06959,-0.07205l0.00003,-0.00003c-0.73334,-0.8872 -1.9692,-2.16198 -2.01445,-3.41608c-0.09598,-2.66063 4.54856,-5.99581 6.65377,-4.95022l0.68831,0.29255c0,0 0.612,0.26966 0.60163,0.86905c0.24807,-0.26358 0.49828,-0.52316 0.75081,-0.7784l0.21974,-0.36175c0,0 0.7815,-1.11236 1.96905,-0.83247c0.81058,-0.70138 1.93581,-0.29258 1.93581,-0.29258c6.16045,2.29682 11.99621,7.32696 16.16016,12.34633l0.77154,1.70944c0,0 0.09314,0.23987 0.12494,0.57948c0.47079,0.37765 0.67469,0.90285 0.67469,0.90285l-0.00087,0.10905c0.02175,0.02332 0.04353,0.04665 0.06529,0.06996zM365.4178,98.96985c1.57775,-1.59165 2.5516,-3.05593 1.54836,-4.51897c-0.17031,-0.02827 -0.3401,-0.06031 -0.50932,-0.09556c-0.10047,0.0264 -0.19618,0.03196 -0.28561,0.02333c-0.8396,1.58783 -1.70936,3.16793 -2.56505,4.75671c0.81461,-0.04555 1.74962,-0.10295 1.81163,-0.16551zM368.08221,92.72395c0.00919,0.00985 0.01914,0.02047 0.02978,0.03181l0.00772,0.00496zM342.47318,79.67516l-0.93383,-0.42224c-0.34123,-0.37912 -3.0258,1.79429 -3.62244,2.53125c-0.50072,0.61851 0.68076,1.97846 1.26757,2.63175c1.20546,-1.61699 2.45189,-3.18684 3.75693,-4.65433c-0.25998,0.00535 -0.46824,-0.08642 -0.46824,-0.08642zM334.88519,89.56845l-0.15579,-0.15517c-3.79719,-0.22091 -2.97007,2.31157 -2.08907,4.3455c0.93515,-1.3413 1.87561,-2.72331 2.83181,-4.11332c-0.31225,0.04404 -0.58696,-0.07701 -0.58696,-0.07701zM338.30874,106.31391c-1.06201,5.49606 3.72987,8.47603 8.38179,5.74605c0.32126,-0.61123 0.93415,-0.91565 0.93415,-0.91565c1.98763,-0.97847 3.98717,-1.5233 5.94567,-2.5308l1.66938,-0.84801c1.90667,-5.23576 4.75326,-10.07792 7.35072,-14.99229c-0.39666,-0.36579 -0.57025,-0.81293 -0.57025,-0.81293l-0.13581,-0.62749c-3.59662,-4.34303 -8.78902,-9.04985 -14.15745,-11.0471l-0.33306,0.44883c-4.6133,4.6194 -8.4926,10.88943 -12.21338,16.22351c0,0 -0.10121,0.14408 -0.28616,0.31548c1.06582,2.69682 2.57509,4.87463 3.03811,7.40164c0.55673,0.69176 0.37632,1.63876 0.37632,1.63876z" fill="#343434"></path>
          <g>
            <path d="M344.73973,114.49037c-0.1371,-0.91969 -1.61045,-0.94223 -2.33934,-1.51959c-0.73943,-0.58571 -4.90017,-3.92591 -5.87178,-3.41442c-0.26188,0.13786 -0.90457,1.97484 -1.35747,3.29182c0.13948,0.05438 0.27803,0.10947 0.41528,0.16564c-0.16698,0.03626 -0.32911,0.0436 -0.48289,0.03111c-0.18157,0.52875 -0.3245,0.94574 -0.38646,1.08633c0,0 -0.29224,0.6632 -0.9246,1.00496c-3.13506,5.60474 -6.11403,11.27525 -9.34778,16.84999c-7.77331,13.39855 -15.37843,26.86691 -23.10322,40.28418c-0.11887,0.29589 -0.26016,0.48494 -0.26016,0.48494c-0.02181,0.02912 -0.04681,0.06138 -0.07473,0.09657c-0.05205,0.09035 -0.1041,0.1807 -0.15617,0.27106c-0.01597,-0.00767 -0.03193,-0.01503 -0.04789,-0.02208c-0.81008,0.96801 -2.6336,2.9974 -2.64544,3.73487c-0.01198,0.74546 3.00363,2.62123 3.53992,2.95509c3.57181,2.22359 5.19868,3.26964 6.99804,-0.93327l0.22673,-0.35559c-0.03168,-0.05859 -0.07382,-0.12971 -0.12707,-0.20607c7.00488,-14.15591 16.25254,-27.09678 22.61774,-41.57629c3.49602,-6.02046 6.77573,-12.2547 10.45016,-18.17904l0.78067,-0.89732c0.11744,0.08424 0.23525,0.1681 0.35349,0.25147c0.7673,-1.27669 1.80473,-2.99017 1.74298,-3.40438zM334.86533,106.01c3.42763,-1.52664 9.36395,2.87579 11.60584,5.11996c0.76881,0.76958 1.86868,1.44059 2.09113,2.50541c0.41771,1.99945 -1.94166,5.35079 -2.73994,7.16507l-0.83394,1.8925c0,0 -0.55635,1.26258 -1.79485,1.20133c-2.84672,4.81258 -5.50092,9.78901 -8.28951,14.60063c-6.04403,13.68413 -14.64488,26.00359 -21.46723,39.28352c0.11493,0.7662 -0.32639,1.43953 -0.32639,1.43953l-0.83093,1.21911c-1.10576,2.45534 -2.61698,5.45574 -5.81879,5.66561c-0.96888,0.06351 -1.83358,-0.64125 -2.73604,-0.99946c-3.12716,-1.24124 -9.21584,-4.12022 -9.48228,-8.13316c-0.12192,-1.83636 2.32448,-4.75749 3.52548,-6.32717c7.80599,-13.51964 15.4509,-27.11252 23.28875,-40.62228c3.59365,-6.19317 6.87154,-12.5042 10.39852,-18.71389c0.04791,0.02606 0.0961,0.05177 0.14454,0.07715c0.74167,-1.93851 1.77313,-4.70906 3.26566,-5.37383z" fill="#343434"></path>
            <path d="M343.03682,117.84321c-0.11825,-0.08338 -0.31556,-0.06367 -0.43301,-0.1479l-0.70191,0.79316c-3.67443,5.92435 -6.94473,12.16724 -10.44075,18.1877c-6.3652,14.47951 -15.68511,27.52474 -22.69,41.68065c0.05325,0.07636 0.14216,0.02558 0.17385,0.08416l-0.27331,0.47756c-1.79937,4.20292 -3.43553,3.15243 -7.00734,0.92884c-0.53627,-0.33385 -3.55828,-2.21381 -3.5463,-2.95928c0.01185,-0.73748 1.9136,-2.87142 2.72368,-3.83942c0.01595,0.00707 0.03185,0.01436 0.04781,0.02203c0.05206,-0.09036 0.02582,-0.07622 0.07787,-0.16657c0.02791,-0.03517 0.05292,-0.06745 0.07473,-0.09657c0,0 0.14116,-0.18914 0.26002,-0.48503c7.72479,-13.41727 15.38329,-27.00151 23.1566,-40.40005c3.23376,-5.57476 6.22318,-11.24201 9.35825,-16.84675c0.63236,-0.34176 0.92545,-1.00462 0.92545,-1.00462c0.06195,-0.14059 0.20476,-0.55764 0.38634,-1.08637c0.15376,0.01249 0.26466,0.12524 0.43163,0.08898c-0.13727,-0.05618 -0.27505,-0.11093 -0.41453,-0.16533c0.4529,-1.31698 1.14605,-3.27441 1.40793,-3.41225c0.97161,-0.51148 5.14243,2.834 5.88184,3.41971c0.72888,0.57736 2.20608,0.60258 2.34319,1.52226c0.06175,0.41419 -0.97473,2.12841 -1.74203,3.4051z" fill="#434343"></path>
          </g>
          <path d="M342.9919,79.72019c-1.30505,1.46749 -2.63207,3.13666 -3.83752,4.75364c-0.58681,-0.65329 -1.80342,-2.0685 -1.30271,-2.68701c0.59663,-0.73696 3.36985,-2.97398 3.71108,-2.59486l0.95493,0.43545c0,0 0.21423,0.09812 0.4742,0.09278z" fill="#888888"></path>
          <path d="M335.51812,89.59909c-0.9562,1.39001 -1.97151,2.87692 -2.90667,4.21822c-0.88099,-2.03393 -1.65178,-4.68419 2.14542,-4.46327l0.16186,0.15839c0,0 0.28715,0.13071 0.59939,0.08667z" fill="#888888"></path>
          <path d="M338.26364,106.36107c0,0 0.17582,-0.95185 -0.38091,-1.64361c-0.46302,-2.527 -1.98748,-4.73992 -3.0533,-7.43674c0.18495,-0.1714 0.28602,-0.31685 0.28602,-0.31685c3.72078,-5.33408 7.66079,-11.67509 12.27409,-16.29449l0.33458,-0.44891c5.36843,1.99724 10.62563,6.74889 14.22225,11.09193l0.13666,0.63031c0,0 0.17459,0.45122 0.57126,0.81703c-2.59746,4.91436 -5.47554,9.82671 -7.38221,15.06246l-1.67734,0.85188c-1.9585,1.0075 -3.98571,1.557 -5.97334,2.53547c0,0 -0.61641,0.30415 -0.93767,0.91538c-4.65192,2.72998 -9.48214,-0.26773 -8.42013,-5.76379z" fill="#434343"></path>
          <path d="M350.70844,106.35914c-4.73039,2.4322 -5.41484,-9.63939 1.1839,-7.71474c4.35433,1.27001 2.93739,7.54074 -1.1839,7.71474zM351.61128,104.18474c1.33364,-0.79374 1.4372,-3.23249 -0.26687,-3.66004c-2.40846,-0.60427 -2.78219,2.46493 -2.18261,3.64811c0.36922,-0.12113 0.73915,0.04187 0.73915,0.04187l0.31159,0.16925c0.00366,0.00076 0.00732,0.00153 0.01097,0.00229c0.04227,-0.03855 0.08524,-0.08221 0.12889,-0.13115c0,0 0.62955,-0.58749 1.25887,-0.07032z" fill="#343434"></path>
          <path d="M362.38726,102.77914c0,0 0.09202,-0.0023 0.21504,-0.03519c0.81102,2.50827 -1.25004,4.04692 -3.24165,5.17686c0.70416,-1.77653 1.56671,-3.62895 2.42858,-5.33924l0.59804,0.19758z" fill="#888888"></path>
          <path d="M365.42004,99.03508c-0.06201,0.06257 -1.03879,0.10668 -1.85341,0.15221c0.85569,-1.58878 1.78568,-3.28274 2.62528,-4.87057c0.08943,0.00865 0.19102,0.00536 0.29149,-0.02104c0.16923,0.03524 0.34898,0.07282 0.51929,0.10109c1.00324,1.46304 -0.00492,3.04666 -1.58267,4.63831z" fill="#888888"></path>
          <path d="M341.83921,79.63901c0.96465,-0.16853 1.13317,0.79612 1.13317,0.79612l-0.05508,0.56097c4.31835,-0.03394 11.64235,3.82537 8.55949,9.09702c-3.52173,5.52506 -8.09875,10.54205 -11.47418,16.26972c-0.42879,1.62999 -1.0759,3.27926 -1.5635,5.01976c0,0 -0.21538,0.76881 -0.95137,0.72355c-0.83997,1.94306 -1.60285,3.88783 -2.42341,5.83015c0.64209,0.64455 0.01614,1.33448 0.01614,1.33448l-0.41006,0.29811c-2.16852,7.32134 -7.76777,14.44382 -11.80507,20.92888c-4.03269,6.43975 -6.90213,13.56412 -10.82342,20.05704c0.14606,0.4953 -0.24051,0.92139 -0.24051,0.92139l-0.87634,0.95783c-0.20949,0.36448 -0.419,0.72896 -0.62849,1.09343c-3.86132,5.88813 -8.08502,11.63998 -11.7803,17.57427c0,0 -0.00159,0.00255 -0.00474,0.0073c-0.02604,0.09644 -0.0667,0.1885 -0.12041,0.27273l-0.54611,0.87702l-0.02074,-0.01292l-0.00704,0.05505c-0.32762,0.42299 -0.65522,0.84498 -0.98232,1.26657c-0.42533,1.02476 -1.32765,1.8286 -2.15425,2.8936c-1.33095,1.71482 -2.53492,3.50861 -3.76553,5.29679c0.0258,0.03316 0.0514,0.06767 0.07676,0.10354l0,-0.00001c1.13051,1.59928 -0.46878,2.72979 -0.46878,2.72979l-0.58403,0.40579c-2.33933,1.906 -3.61616,4.48757 -5.29393,6.94938c-4.43702,6.51055 -9.46271,12.45604 -11.61931,20.1745c0,0 -0.52833,1.88589 -2.41424,1.35756c-1.88591,-0.52834 -1.35756,-2.41424 -1.35756,-2.41424c2.29427,-8.1692 7.46201,-14.43702 12.15692,-21.32756c1.90242,-2.79211 3.40683,-5.553 6.02846,-7.75536l0.82268,-0.58861c0,0 0.22883,-0.16175 0.57455,-0.27633c1.25726,-1.88335 2.5881,-3.70548 3.95417,-5.50767c0.15015,-0.20056 0.30165,-0.39981 0.4547,-0.59754c0.79348,-1.03895 1.59732,-2.07276 2.40413,-3.10938l-0.01091,-0.00767l1.10556,-1.57361c0.04673,-0.1532 0.10946,-0.25396 0.10946,-0.25396c3.69519,-5.93414 7.91812,-11.67851 11.77617,-17.56763c0.23801,-0.40688 0.47604,-0.81377 0.71405,-1.22065l0.4713,-0.52329c-0.00055,-0.31684 0.15924,-0.57347 0.15924,-0.57347c4.16651,-6.65358 7.08565,-14.03345 11.22828,-20.71894c3.77215,-6.05608 9.57896,-13.15563 11.48936,-20.07582c-0.21484,-0.40613 -0.01206,-0.86632 -0.01206,-0.86632c1.13993,-2.58696 2.11873,-5.17457 3.26009,-7.76473l0.47653,-1.08143c0,0 0.07529,-0.17085 0.23471,-0.33047c-0.28243,-0.42153 -0.05487,-0.93798 -0.05487,-0.93798l0.44197,-0.99119c0.31755,-1.45695 0.93404,-3.0707 0.97084,-4.57177c0.02467,-1.00658 -0.2025,-2.01992 -0.57796,-3.02445l-0.13097,-0.18475c-0.4367,-0.1366 -0.61779,-0.60302 -0.61779,-0.60302c-0.35782,-0.92159 -0.66025,-1.85777 -1.05249,-2.74329c-0.41357,-0.68311 -0.83968,-1.35241 -1.24114,-2.00227l-0.07725,0.08515l-1.02332,-0.9284c-0.11604,-0.10092 -0.20993,-0.23073 -0.26946,-0.38405c-0.19574,-0.50416 0.05427,-1.07155 0.55843,-1.26729c0.30246,-0.11743 0.62767,-0.07444 0.88174,0.08763l0.87701,0.54612l-0.03236,0.05197l0.13688,0.02308c0.52367,0.55885 0.94334,1.14411 1.30021,1.75389c0.46402,0.58755 0.84692,1.3328 1.16674,1.95733c0.19407,0.37899 0.36896,0.75249 0.52581,1.12173c0.5099,0.08972 0.71873,0.62756 0.71873,0.62756c0.25862,0.67287 0.46713,1.36751 0.62457,2.07218c0.32141,0.7247 0.51489,1.43611 0.60975,2.13982c3.08055,-4.44091 6.70514,-8.59957 9.4278,-13.11387c0.77647,-1.12639 0.30813,-1.76326 -0.38167,-2.83924c-2.09531,-3.26836 -4.55118,-2.58706 -7.96778,-3.90873l-0.42171,-1.5377c0,0 -0.16853,-0.96465 0.79612,-1.13317z" fill="#1f1f1f"></path>
          <path d="M364.69278,93.82829c-0.39488,0.89611 -1.29099,0.50123 -1.29099,0.50123l-0.86177,-0.46626c-2.63814,-2.84395 -5.0508,-2.59345 -8.59515,-2.50462c-2.68631,1.64407 -3.12641,4.58292 -4.13459,7.29707c-0.95927,2.5825 -1.72848,5.11575 -2.60671,7.62446c0.26838,-0.1442 0.5419,-0.28151 0.81962,-0.41177c0.0461,-0.0336 0.09233,-0.06705 0.13869,-0.10036c0,0 0.21957,-0.15521 0.50994,-0.18791c3.25345,-1.36828 6.96731,-1.79296 9.75775,-1.04279l0.16037,-0.27236c0,0 0.91286,-0.35443 1.26729,0.55843l0,0.00001c0.35443,0.91286 -0.55843,1.26729 -0.55843,1.26729l-1.39758,0.33254c-0.98115,-0.29 -2.14753,-0.38272 -3.38708,-0.29878c0.00593,0.09734 -0.00224,0.2053 -0.02869,0.3249l0.00003,0.00003c-0.21145,0.95615 -1.16761,0.74469 -1.16761,0.74469l-0.53395,-0.1396c-1.60217,-0.02262 -2.98599,0.28468 -4.20608,0.83392c-1.78877,1.36071 -3.38677,2.99689 -4.95048,4.70439c-0.1117,0.3121 -0.19613,0.63314 -0.25045,0.96263c0,0 -0.16574,0.96512 -1.13087,0.79938c-0.0291,-0.00499 -0.05716,-0.01072 -0.08424,-0.01713c-0.63498,0.99983 -1.24208,2.02922 -1.85337,3.03644c0.06044,0.36627 -0.12991,0.69438 -0.12991,0.69438l-0.64539,1.10945c-1.829,4.15071 -2.64629,8.68296 -5.0566,12.5537c-3.95419,6.3144 -10.2266,13.40878 -12.28838,20.58475c-3.67649,6.01499 -6.24216,12.50243 -10.56637,18.10219c-0.07839,0.24077 -0.22569,0.40314 -0.22569,0.40314l-0.8706,0.9499c-0.94063,1.70782 -1.87399,3.20817 -2.67204,5.0045c-3.86755,5.4503 -6.81583,11.69943 -10.32455,17.44503c0.86181,1.06162 -0.0017,2.2907 -0.0017,2.2907l-0.80603,1.14203c-5.98211,9.60659 -12.26281,20.44599 -20.26719,28.50137c0,0 -1.38048,1.38927 -2.76974,0.0088c-1.38927,-1.38048 -0.0088,-2.76974 -0.0088,-2.76974c7.79567,-7.84534 13.89587,-18.45695 19.72068,-27.81095l0.92599,-1.32327c0,0 0.546,-0.77714 1.41873,-0.86885c3.55837,-5.78412 6.55014,-12.03664 10.40693,-17.57764c0.8129,-1.86217 1.80444,-3.41986 2.78516,-5.18196l0.91973,-1.02262c0.06581,-0.18995 0.1637,-0.31608 0.1637,-0.31608c4.27544,-5.50858 6.64471,-11.91129 10.37954,-17.76634c1.97159,-7.24802 8.47084,-14.46008 12.41806,-20.83027c2.36789,-3.80263 3.17291,-8.32027 4.97331,-12.40609l0.18444,-0.3187c-0.08794,-0.39651 0.13899,-0.76092 0.13899,-0.76092c0.50829,-0.81626 1.0093,-1.64289 1.51666,-2.46078l0.24404,-0.92125c0.40257,-0.44374 0.80294,-0.8877 1.20341,-1.32937c0.41739,-0.617 0.84651,-1.21758 1.29397,-1.79245c0.50901,-0.89187 1.1846,-1.70483 1.97998,-2.43104c2.25438,-6.15031 3.22081,-15.39878 9.03222,-18.79269c4.28048,-0.28561 7.42277,-0.33323 10.59089,3.04398l0.21964,0.01027c0,0 0.89611,0.39488 0.50123,1.29099z" fill="#1f1f1f"></path>
          <path d="M342.16459,102.69756c-3.97528,4.20913 -7.17561,-4.14258 -3.55475,-6.90239c2.23512,-1.70359 5.93797,0.25046 6.07993,3.00196c0.06941,1.34527 -1.03502,2.53405 -1.78529,3.50278zM340.61461,101.56143c0.08036,-0.19265 0.22426,-0.32943 0.3483,-0.41816c0.1274,-0.09894 0.31268,-0.20376 0.53649,-0.21737c0.43717,-0.51564 1.26008,-1.39962 1.23417,-2.03361c-0.04356,-1.06632 -1.92405,-2.37277 -2.87391,-1.58924c-1.58366,1.30636 -0.47339,5.82313 0.75495,4.25836z" fill="#343434"></path>
          <g>
            <path d="M351.63199,96.95972c-0.03629,0.01821 -0.07504,0.03539 -0.11636,0.05144c-0.91286,0.35443 -1.26729,-0.55843 -1.26729,-0.55843l-0.36458,-1.22464c0.14602,-1.51536 0.33784,-2.51673 0.85809,-3.65079c-1.37977,0.81583 -2.91743,1.14519 -3.98328,0.58017c-0.38598,0.15661 -0.79227,-0.02242 -0.79227,-0.02242l-0.72904,-0.53527c-1.23636,-2.24344 -1.27789,-3.79264 -0.59537,-6.20821c1.91104,-4.15469 8.96976,-3.63882 9.29802,1.44419c0.06343,0.98218 -0.35874,1.98561 -1.04513,2.86695c0.25608,-0.06228 0.51434,-0.1031 0.77272,-0.12398c2.16415,-1.62934 5.21776,0.77977 5.51885,3.20432c0.00455,0.03656 0.00819,0.07286 0.01099,0.10891c0.51693,1.34623 0.31246,2.92454 -1.09892,4.38514c-2.52734,2.61547 -5.50858,2.0523 -6.46641,-0.31741zM354.24966,95.41022c0.22433,-0.38565 0.70206,-0.46911 0.70206,-0.46911l0.78144,-0.09531c0.28453,-0.29307 1.30406,-1.02584 1.49428,-1.55604c-0.44519,-0.93745 -1.46893,-1.7013 -2.55094,-1.90061c-0.49295,0.94588 -0.92541,3.32811 -0.42687,4.02107zM347.78504,89.65699c0.00014,-0.00065 0.00028,-0.00129 0.00042,-0.00194c0.21145,-0.95615 1.1676,-0.74469 1.1676,-0.74469l-0.13027,0.36418c0.01059,-0.00131 0.02129,-0.00248 0.03211,-0.00349c0.60055,-0.5436 1.80891,-1.36747 1.88895,-2.23133c0.09938,-1.07264 -1.20847,-2.84952 -2.35464,-2.05561c-1.29906,0.89982 -1.53226,4.46456 -0.60418,4.67287z" fill="#343434"></path>
            <path d="M354.22386,95.47018c-0.49854,-0.69295 -0.06074,-3.19715 0.43221,-4.14304c1.08202,0.19931 2.19119,1.03125 2.63638,1.96871c-0.19023,0.5302 -1.25704,1.31969 -1.54156,1.61277l-0.80934,0.09697c0,0 -0.49335,0.07895 -0.71769,0.4646z" fill="#888888"></path>
            <path d="M347.76248,89.71823c-0.92808,-0.20831 -0.68317,-3.89869 0.61589,-4.79851c1.14619,-0.79392 2.53014,1.04654 2.43076,2.11919c-0.08005,0.86386 -1.35026,1.75372 -1.95081,2.29732c-0.01082,0.00101 -0.0274,-0.12825 -0.03799,-0.12694l0.14024,-0.2341c0,0 -0.98622,-0.21504 -1.19766,0.74111c-0.00013,0.00065 0.04482,-0.12123 0.04468,-0.12058z" fill="#888888"></path>
            <path d="M351.8062,105.78894c-0.05536,0.26231 -0.20109,0.45005 -0.20109,0.45005c-3.42334,3.94255 -7.54386,-2.41122 -5.19435,-5.78692c3.57172,-5.13172 11.04158,-1.01518 6.91495,4.44656l-0.91169,0.6964c0,0 -0.27038,0.19112 -0.60783,0.19388zM350.86125,104.63715c0.07522,-0.39606 0.42226,-0.64138 0.42226,-0.64138l0.49502,-0.29796c2.6687,-3.3153 -1.60106,-5.15112 -3.7252,-2.1791c-1.02999,1.44111 0.74354,5.57754 2.0046,3.51946c0,0 0.32431,-0.41783 0.80332,-0.40101z" fill="#343434"></path>
            <path d="M350.05237,105.1032c-1.26106,2.05808 -3.08737,-2.1727 -2.05738,-3.61382c2.12414,-2.97201 6.50558,-1.06925 3.83688,2.24605l-0.50932,0.31265c0,0 -0.36748,0.25558 -0.44269,0.65163c-0.47901,-0.01682 -0.82749,0.40348 -0.82749,0.40348z" fill="#888888"></path>
            <path d="M339.42253,101.83721c0.61518,-0.33037 1.1366,0.22838 1.1366,0.22838c1.23012,1.90555 3.22966,-1.89929 3.01735,-3.22106c-0.62476,-3.88934 -5.51238,-2.19068 -4.89624,1.65148c0.17782,0.26996 0.35563,0.53991 0.53344,0.80986zM339.27737,103.53456c-0.05988,0.03691 -0.12779,0.07072 -0.20468,0.10058c-0.91286,0.35443 -1.26729,-0.55843 -1.26729,-0.55843l-0.33869,-0.88548c-0.20406,-0.32878 -0.40814,-0.65756 -0.61219,-0.98634c-0.32016,-1.75537 -0.40471,-3.98784 0.99787,-5.38025c2.53572,-2.51731 7.04151,-0.68065 7.65092,2.66908c0.63992,3.51732 -3.12677,7.66141 -6.22595,5.04084z" fill="#343434"></path>
            <path d="M339.16397,101.34819c-0.17782,-0.26996 -0.36768,-0.56106 -0.54549,-0.83102c-0.61614,-3.84216 4.3952,-5.58254 5.01996,-1.6932c0.21232,1.32177 -1.86505,5.2105 -3.09518,3.30495c0,0 -0.54617,-0.57098 -1.16135,-0.24061z" fill="#888888"></path>
            <path d="M343.61817,97.75532c-0.79964,0.56525 -1.3649,-0.2344 -1.3649,-0.2344l-0.10857,-0.25243c-0.4476,-0.32959 -0.98071,-0.5645 -1.52599,-0.67242c0,0 -0.95615,-0.21146 -0.74469,-1.16761c0.21146,-0.95615 1.16761,-0.74469 1.16761,-0.74469c0.78997,0.18748 1.55752,0.5257 2.22896,0.98218l0.58197,0.72447c0,0 0.56525,0.79964 -0.2344,1.3649z" fill="#343434"></path>
          </g>
        </g>
      </g>
      <g stroke-width="0.5">
        <path d="M271.50966,216.52402l-0.43118,-0.00886c-2.19613,-0.03002 -4.48055,0.17864 -6.46908,1.11119c-0.16096,0.07548 -0.34291,0.05821 -0.49739,0.14136c0.08854,-0.21695 0.39994,-1.13337 -0.37157,-1.74201c0.24836,-4.04005 2.17078,-7.9655 6.56919,-7.72912c7.04797,0.37876 13.71638,6.01187 19.09331,10.04679c4.85609,6.09999 4.1604,11.69317 0.41981,17.97472c-0.71076,1.19356 -1.25655,2.65532 -2.43302,3.39404c-2.9081,1.826 -6.81788,-0.01375 -9.84603,1.71018c-1.76079,1.00243 -3.24013,3.80941 -4.18037,5.86392c-2.60083,-0.76728 -5.90728,-0.81688 -8.07545,-1.69432c-4.8497,-1.96262 -10.76209,-4.74208 -15.27199,-7.46785c-1.73794,-1.0504 -2.22764,-2.23014 -4.35185,-2.55897c-1.00448,-1.25956 -1.5629,-2.84818 -2.5697,-4.10668c-0.50826,-0.63532 -2.54015,-1.66939 -2.95812,-2.70062c-2.44536,-6.03339 5.56004,-11.02871 10.95117,-9.80319c-0.50589,1.26123 0.84309,1.92144 0.84309,1.92144l0.42139,0.19846c1.09745,0.5276 2.19401,1.17796 3.19454,1.81533c-2.72372,-0.50384 -4.66303,-0.93595 -7.31059,-0.05531c0,0 -1.41501,0.48888 -0.92117,1.90525c0.49383,1.41638 1.8123,0.90228 1.8123,0.90228c1.98544,-0.73836 3.60691,-0.25691 5.6508,0.14319c-0.1942,0.23897 -0.33209,0.49779 -0.36205,0.80504c-0.00017,0.00178 -0.00035,0.00356 -0.00051,0.00536c-0.02568,0.05302 -0.05145,0.10594 -0.07761,0.1601l0.0345,0.12209l-0.07026,-0.02231l-0.60102,1.88423c-0.09985,0.30248 -0.10455,0.63547 0.00842,0.95949c0.27274,0.78225 1.02841,1.20364 1.81065,0.93091c0.46927,-0.16362 0.80534,-0.54082 0.94052,-0.98221l0.52022,-1.64219c0.55329,-0.20403 0.76033,-0.93405 1.1449,-1.38946l1.20549,-0.77561c0,0 0.6869,-0.45526 0.71422,-1.19421c0.2366,-0.20582 0.46722,-0.52247 0.48259,-0.96581c3.65663,-1.71756 5.87828,-4.4048 10.5187,-4.26063l0.43445,0.01007c0,0 1.45675,0.12262 1.48911,-1.37703c0.03234,-1.49965 -1.46038,-1.52906 -1.46038,-1.52906z" fill="#b7b7b7"></path>
        <path d="M242.98454,240.82918c1.6688,-2.84439 7.54379,2.2103 9.8416,3.20004c3.73654,1.60945 7.32362,3.99485 11.06016,5.51446c4.79775,1.95118 12.03666,0.35377 9.42916,7.6309c-0.24726,0.69006 -0.58572,1.35064 -0.87718,2.02323c0,0 -0.02847,0.06593 -0.06259,0.17811c-11.04659,1.27949 -21.31678,-4.93019 -30.97078,-9.6904c0.02661,-0.88984 -0.44439,-1.41484 -0.90379,-1.7091c0.5648,-2.49471 1.28233,-4.66458 2.48342,-7.14722z" fill="#b7b7b7"></path>
        <path d="M276.39483,229.2574c1.03395,-1.08671 2.12066,-0.05276 2.12066,-0.05276l0.76153,0.7266c2.00538,1.75086 4.1579,3.10696 6.19948,4.80399c0,0 1.15219,0.96045 0.19173,2.11265c-0.96045,1.15219 -2.11265,0.19173 -2.11265,0.19173c-2.05144,-1.71535 -4.21848,-3.08421 -6.24807,-4.84538l-0.85994,-0.81614c0,0 -1.08671,-1.03395 -0.05276,-2.12066z" fill="#6b6b6b"></path>
        <path d="M272.01583,222.72748c1.046,-1.07512 2.12111,-0.02911 2.12111,-0.02911l0.24742,0.34811c3.00605,1.47403 6.02062,3.62451 8.60742,5.77721c0,0 1.15219,0.96045 0.19174,2.11264c-0.96045,1.15219 -2.11265,0.19173 -2.11265,0.19173c-2.37859,-1.98634 -5.21176,-4.06313 -7.9912,-5.38014l-1.03473,-0.89931c0,0 -1.07512,-1.04601 -0.0291,-2.12112z" fill="#6b6b6b"></path>
        <path d="M272.99295,218.00863c-0.03234,1.49965 -1.53199,1.46731 -1.53199,1.46731l-0.43266,-0.00932c-4.64041,-0.14417 -6.80506,2.52802 -10.46169,4.24558c-0.01537,0.44336 -0.2424,0.75493 -0.47899,0.96076c-0.02731,0.73895 -0.71049,1.18699 -0.71049,1.18699l-1.20346,0.76972c-0.38458,0.4554 -0.5901,1.17757 -1.14339,1.38162l-0.51997,1.63437c-0.13518,0.44137 -0.47159,0.81463 -0.94087,0.97825c-0.78225,0.27274 -1.63748,-0.1403 -1.91021,-0.92255c-0.11297,-0.32402 -0.10829,-0.66055 -0.00843,-0.96304l0.60175,-1.89145l0.07026,0.02235l-0.03442,-0.12253c0.02616,-0.05416 0.05205,-0.10774 0.07773,-0.16076c0.00017,-0.00178 0.00035,-0.00358 0.00052,-0.00537c0.02996,-0.30725 0.1686,-0.56931 0.36278,-0.80829c-2.04387,-0.4001 -3.56797,-0.8591 -5.5534,-0.12073c0,0 -1.41638,0.49383 -1.91021,-0.92255c-0.49383,-1.41638 0.92255,-1.91021 0.92255,-1.91021c2.64757,-0.88065 4.59022,-0.45634 7.31395,0.04749c-1.00054,-0.63737 -2.00902,-1.24038 -3.10648,-1.76798l-0.50936,-0.246c0,0 -1.26268,-0.60981 -0.75678,-1.87105c-5.39113,-1.2255 -13.38884,3.74387 -10.94347,9.77726c0.41796,1.03123 2.44963,2.05981 2.95789,2.69514c1.00681,1.2585 1.56338,2.83763 2.56785,4.09719c2.12421,0.32883 2.61033,1.49972 4.34827,2.55012c4.50989,2.72577 10.38388,5.47869 15.23358,7.44131c2.16816,0.87743 5.45273,0.9293 8.05356,1.69657c0.94023,-2.05451 2.40341,-4.85243 4.16421,-5.85486c3.02814,-1.72393 6.92577,0.1309 9.83387,-1.6951c1.17647,-0.7387 1.71888,-2.19239 2.42964,-3.38595c3.74061,-6.28155 4.439,-11.83767 -0.4171,-17.93766c-5.37692,-4.03491 -12.00765,-9.64045 -19.05562,-10.01922c-4.39841,-0.23638 -6.30065,3.68789 -6.549,7.72794c0.77152,0.60864 0.46048,1.52496 0.37194,1.74191c0.15448,-0.08315 0.31193,-0.1628 0.4729,-0.2383c1.98852,-0.93254 4.29865,-1.14033 6.49476,-1.11029l0.43266,0.00932c0,0 1.49965,0.03234 1.4673,1.532zM239.84919,234.15795c-1.07418,-1.34658 -2.90006,-2.14263 -3.58257,-3.72419c-4.02628,-9.33012 6.50027,-16.42329 14.66252,-15.58767c3.17413,0.32495 5.7793,2.29039 8.61755,3.71259c-0.52508,-6.96135 2.84081,-14.60903 10.87149,-14.4737c8.04626,0.1356 15.87549,6.56074 21.91997,11.23258c6.10546,7.62389 5.94851,15.15928 1.06421,23.22426c-1.04742,1.72949 -2.06246,3.67342 -3.77542,4.74768c-3.24866,2.03735 -7.05141,0.15751 -9.97375,1.78001c-1.0821,0.60079 -2.19048,3.30923 -2.71065,4.55824c2.43361,3.35283 0.82158,7.83669 -0.63259,11.23112c0,0 -0.28064,0.65155 -0.89401,1.04093c-0.2726,1.37659 -1.81352,1.58383 -1.81352,1.58383c-9.93755,1.25831 -21.75118,-3.24187 -30.59375,-7.59638c-2.63319,-1.29671 -4.71239,-3.10233 -7.38165,-4.22793l0.9171,-2.03741l-0.57451,-0.53275c0.7385,-3.88052 1.67845,-6.91414 3.42924,-10.47112c0.82822,-0.9879 1.31003,-1.73433 1.8221,-2.25607c-0.42048,-0.76074 -0.83216,-1.52765 -1.37174,-2.20406zM240.55069,247.98296c0.45941,0.29425 0.93081,0.8142 0.9042,1.70404c9.65401,4.76022 19.83128,10.94276 30.87787,9.66328c0.03411,-0.11217 0.06233,-0.17767 0.06233,-0.17767c0.29148,-0.67259 0.62717,-1.32767 0.87443,-2.01774c2.60749,-7.27713 -4.63527,-5.65569 -9.43302,-7.60688c-3.73653,-1.51959 -7.24603,-3.86776 -10.98257,-5.47722c-2.29781,-0.98974 -8.15902,-6.05819 -9.82782,-3.2138c-1.2011,2.48263 -1.91062,4.63126 -2.47541,7.12597z" fill="#6b6b6b"></path>
      </g>
      <g stroke-width="0.5">
        <path d="M342.61304,167.50325c-1.79078,0.69411 -3.02813,1.85316 -5.04078,2.09419c-0.66831,0.08004 -1.34294,0.06328 -2.01771,0.04841c0.1131,0.36218 0.21211,0.80391 0.32135,1.42532l-0.00001,0c0.12933,0.73573 0.28401,1.49167 0.19112,2.23288c-0.035,0.27925 -0.80217,0.51236 -0.55114,0.63957c0.26549,0.13452 0.41465,-0.44974 0.68645,-0.57101c1.12041,-0.49991 2.34788,-0.71651 3.50171,-1.13355c4.35939,-1.57567 7.35818,-3.66647 11.07626,-6.248c1.75677,-1.21976 2.65791,-1.69349 3.60213,-3.70784c-0.38084,-1.17636 -0.51991,-2.34593 -0.73459,-3.52743c-3.01501,3.67118 -6.7199,7.07499 -11.0348,8.74746zM358.60888,162.91533l-0.53726,0.90548c-2.94323,7.38425 -9.33438,10.94343 -16.67221,13.28454c-2.56565,0.81855 -5.97648,2.83419 -8.41351,0.3066c-0.1539,-0.15962 -0.26334,-0.34638 -0.34634,-0.54926c-0.28054,-0.15425 -0.45199,-0.34668 -0.45199,-0.34668l-0.64372,-1.38281c0.06046,-1.04956 0.12631,-2.09886 0.20074,-3.14753c-0.50423,-1.9999 -1.22286,-1.48489 -2.52259,-3.00662c-1.18249,-1.38449 -1.76255,-3.89727 -2.05745,-5.65203c-0.49323,-2.93481 0.53611,-6.37083 -0.27314,-9.20752c-0.1603,-0.56189 -0.67155,-0.99205 -0.79194,-1.56381c-0.31075,-1.47581 0.48127,-1.76227 -0.22254,-3.02371c-2.03451,-3.6464 -6.92324,-3.113 -10.10783,-5.28753c-2.6267,-2.91068 -4.40586,-5.58452 -4.83105,-9.43792c-0.14878,-1.34833 -0.70541,-2.76482 -0.2977,-4.05861c0.78814,-2.501 3.2485,-4.58927 5.84585,-5.15882c-0.65832,-3.30948 0.20455,-7.43465 3.28156,-9.0747c1.42082,-0.75729 3.06821,-0.84917 4.67234,-0.75833c-0.14096,-2.62323 0.77647,-4.70237 3.97312,-6.40333l1.16814,-0.35303c0,0 0.95235,-0.25767 1.5213,0.4173c0.5889,-0.01741 1.18084,0.09678 1.74967,0.37501c1.40398,0.68671 1.9409,2.24018 2.56497,3.71856c0.77671,-0.13998 1.36155,0.51636 1.36155,0.51636c2.90594,3.47888 4.38424,-0.77218 7.60488,-0.84295c1.41965,-0.03121 2.84976,1.1008 3.94687,1.84908c4.88041,3.32871 7.89343,9.40073 9.42347,14.95502c1.47246,5.44266 2.74357,10.49257 2.82815,16.11369c0.03465,2.30267 -0.73741,3.6489 -1.53981,5.62011c-1.13688,2.79292 -0.63313,5.34825 0.10982,8.09446l-0.01549,1.6075c0,0 -0.02817,0.48913 -0.33186,0.89219c-0.0509,0.34658 -0.19599,0.59927 -0.19599,0.59927zM328.84389,116.72196c-0.01115,0.03396 -0.0225,0.06782 -0.0341,0.1016l0.01673,0.00338l-0.04657,0.23039c0.30815,1.24514 1.08135,2.70622 1.69379,3.61979c1.33064,0.44311 2.65795,0.89933 4.01466,1.32204c4.39974,1.4395 7.48731,-2.18318 11.56936,-1.34219c0.41441,0.08538 0.80277,0.1906 1.16755,0.31413c-0.10984,-0.08831 -0.22305,-0.17221 -0.33979,-0.25142c-0.95253,-0.37361 -1.82532,-1.03153 -2.83969,-1.16547c-2.55212,-0.337 -4.9421,1.25261 -7.51144,0.68722c-1.11284,-0.24489 -3.03533,-1.19774 -3.81967,-2.05725c-0.51964,-0.56944 -1.11789,-3.21532 -2.15574,-3.3969c-0.69814,-0.12213 -1.17281,-0.03762 -1.47492,0.19149c-0.06115,0.66686 -0.0989,1.31236 -0.24016,1.74318zM323.35094,135.28976c-0.86079,0.23286 -1.34828,-0.18443 -1.6021,-0.56115c-1.15832,-0.51434 -2.29585,-1.1793 -3.01528,-2.18876c-0.50942,-0.71478 -0.20818,-1.48543 -1.28034,-1.4791c-4.7071,0.0278 -1.25763,6.66613 0.0233,8.20228c2.06036,2.47088 7.12502,1.49432 9.72735,3.16754c0,0 0.07527,0.05127 0.1761,0.1471c0.87485,0.05405 1.69354,0.35612 2.46868,1.59575c0.78572,1.25652 0.52441,2.93274 1.03692,4.32324l0.71824,2.65001c0,0 0.07635,0.28221 0.03704,0.63115c0.89618,1.79393 1.36819,3.28898 1.10546,5.39919c-0.34336,2.75789 -2.52551,6.22694 0.23189,7.96778l0.05931,0.05918c7.74313,-0.69671 13.78611,-5.16998 18.71702,-10.79623c1.10619,-1.26218 2.34274,-2.57788 2.79421,-4.3161c0.45044,-1.73425 0.20039,-3.81114 0.57603,-5.61426c-0.4923,-5.43601 -1.97567,-9.30655 -4.11196,-14.28508c-1.34216,-3.12784 -1.79935,-5.59912 -5.60512,-6.6066c-1.43222,-0.37914 -3.12622,1.02185 -4.459,1.3838c-2.75955,0.74941 -4.6564,0.70387 -7.35409,-0.10656c-1.1051,-0.34547 -2.19772,-0.70593 -3.28816,-1.0655c-0.8789,0.31787 -1.57167,-0.45959 -1.57167,-0.45959c-0.02286,-0.02588 -0.04579,-0.05214 -0.06878,-0.07878c-0.8508,-0.27664 -1.70342,-0.54787 -2.56276,-0.80618c-1.03438,-0.31092 -1.80559,-1.25895 -2.84594,-1.54927c-2.39454,-0.66823 -1.32911,4.41693 -1.0362,5.18506c1.50617,3.94987 6.90283,6.17779 11.15585,5.94302c0.72974,-0.34445 1.45958,-0.6749 2.24021,-0.74206l0.0283,-0.04594c0,0 1.1199,-0.9979 2.11781,0.12199c0.36241,0.40672 0.4455,0.79735 0.40435,1.12993c0.23285,0.42805 0.40144,0.92284 0.60558,1.34601c1.04497,2.16613 1.62038,4.69697 2.44719,6.97643c0,0 0.5106,1.41042 -0.89983,1.92102c-1.41042,0.5106 -1.92102,-0.89983 -1.92102,-0.89983c-0.63709,-1.76306 -1.28445,-3.44946 -1.95232,-5.17608c-0.23773,-0.61459 0.0325,-1.57948 -0.23194,-2.11039l-0.07613,0.05709c-0.79178,0.20611 -1.63076,0.33214 -2.49564,0.38101c-0.88964,0.38551 -1.74563,0.78012 -1.95293,0.81618c-2.44621,0.42564 -5.31373,0.45298 -7.92197,-0.17604c-0.04367,-0.14748 -0.08668,-0.29516 -0.12901,-0.44303c-0.08699,0.03889 -0.18293,0.07314 -0.28867,0.10175z" fill="#6b6b6b"></path>
        <path d="M347.27427,120.98118c-0.3648,-0.12352 -0.75307,-0.22914 -1.16747,-0.31452c-4.08205,-0.84098 -7.25101,2.81012 -11.65075,1.37063c-1.35671,-0.4227 -2.69997,-0.90408 -4.0306,-1.34719c-1.3225,-1.97273 -3.38879,-6.53812 0.09112,-5.9293c1.03786,0.18157 1.72788,2.86183 2.24752,3.43128c0.78433,0.85951 2.6775,1.75865 3.79035,2.00354c2.56934,0.5654 4.88949,-0.9832 7.44161,-0.6462c1.01439,0.13394 1.98608,0.80585 2.93862,1.17947c0.11674,0.07922 0.22978,0.16399 0.33962,0.25231z" fill="#b7b7b7"></path>
        <path d="M334.69734,168.02491c7.4753,-1.13235 13.66949,-5.41176 18.6653,-10.90633l0.00298,0.16192c0.46036,1.67734 0.52927,3.33447 1.06417,4.98673c-0.94422,2.01435 -1.84279,2.50697 -3.59957,3.72673c-3.71808,2.58153 -6.79608,4.70997 -11.15548,6.28565c-1.15382,0.41704 -2.38852,0.62728 -3.50893,1.12718c-0.27181,0.12127 -0.42109,0.70538 -0.68659,0.57086c-0.25104,-0.12721 0.51585,-0.36064 0.55085,-0.63988c0.09289,-0.74121 -0.06711,-1.50412 -0.19644,-2.23984c-0.29336,-1.66876 -0.51922,-2.0565 -1.13629,-3.07298z" fill="#b7b7b7"></path>
        <path d="M323.62654,134.99426c0.06151,0.21843 0.03,0.40389 0.09444,0.62152c2.60823,0.62903 5.48714,0.58249 7.93335,0.15686c0.20731,-0.03607 1.08056,-0.44249 1.97019,-0.82801c0.86489,-0.04888 1.73014,-0.17811 2.52191,-0.38423l0.07682,-0.05698c0.26443,0.53091 0.00372,1.49831 0.24144,2.1129c0.66788,1.72664 1.33614,3.49192 1.97323,5.25497c0,0 0.43107,1.34997 1.8415,0.83937c1.41042,-0.5106 0.89247,-1.90478 0.89247,-1.90478c-0.82682,-2.27947 -1.37957,-4.75532 -2.42453,-6.92145c-0.20414,-0.42317 -0.36535,-0.9143 -0.5982,-1.34236c0.04116,-0.33257 -0.03742,-0.72166 -0.39984,-1.12838c-0.9979,-1.1199 -2.10514,-0.12003 -2.10514,-0.12003l-0.02812,0.04594c-0.78064,0.06717 -1.49585,0.39574 -2.22559,0.7402c-4.25302,0.23477 -9.69848,-2.07673 -11.20465,-6.02659c-0.2929,-0.76813 -1.35059,-5.85959 1.04395,-5.19136c1.04035,0.29032 1.81492,1.23631 2.8493,1.54723c0.85934,0.25832 1.71676,0.52724 2.56757,0.80387c0.02298,0.02664 0.04599,0.05286 0.06885,0.07874c0,0 0.69641,0.77611 1.57531,0.45823c1.09044,0.35957 2.1924,0.71792 3.29751,1.06339c2.6977,0.81044 4.6187,0.85888 7.37826,0.10947c1.33278,-0.36195 3.0356,-1.75852 4.46783,-1.37938c3.80577,1.00748 4.27934,3.49567 5.6215,6.62351c2.1363,4.97852 3.62498,8.88701 4.11727,14.32302c-0.37565,1.80313 -0.13039,3.89192 -0.58083,5.62617c-0.45147,1.73822 -1.69488,3.06334 -2.80106,4.32551c-4.9309,5.62626 -11.01529,10.11542 -18.75842,10.81213l-0.05943,-0.05919c-2.7574,-1.74084 -0.57797,-5.21022 -0.23461,-7.96812c0.26273,-2.1102 -0.21644,-3.60688 -1.11261,-5.40081c0.03932,-0.34894 -0.03788,-0.63144 -0.03788,-0.63144l-0.72508,-2.65281c-0.51251,-1.3905 -0.26681,-3.07886 -1.05251,-4.33538c-0.77515,-1.23963 -1.60237,-1.55581 -2.47722,-1.60986c-0.10083,-0.09583 -0.17651,-0.14817 -0.17651,-0.14817c-2.60233,-1.67323 -7.67013,-0.71438 -9.73049,-3.18526c-1.28094,-1.53616 -4.72579,-8.19514 -0.0187,-8.22295c1.07216,-0.00633 0.86259,0.80422 1.37202,1.51899c0.86467,1.21323 2.3344,1.9258 3.71716,2.48036c0.37669,-0.01545 0.75286,-0.02941 1.12955,-0.04486z" fill="#b7b7b7"></path>
      </g>
    </g>
  </g>
</svg>
