<?xml version="1.0" encoding="UTF-8"?>
<svg xmlns="http://www.w3.org/2000/svg" xmlns:xlink="http://www.w3.org/1999/xlink" version="1.1" width="321.19994" height="336.77921" viewBox="0,0,321.19994,336.77921">
  <g transform="translate(-79.40002,-11.61041)">
    <g stroke-miterlimit="10">
      <path d="M88.31564,328.6104c0,0 16,-20.5985 16,-32.10001c0,-24.14805 -6.06414,4.50221 -10.04872,-44.1924c-0.59522,-7.27412 3.74438,-65.15844 3.01263,-73.75344c-0.23731,-2.78745 -17.45194,-68.53772 -17.64152,-71.24481c-1.94572,-27.78276 8.67761,-71.70934 8.67761,-71.70934c0,0 -12.60264,-21.46011 8.4239,-20.44654c5.86827,0.28288 21.73281,18.2132 32.25081,17.57214c19.88693,-1.21209 85.77117,-14.42446 107.91596,-15.43106c14.92427,-0.67839 40.54072,1.62046 54.14997,0.91386c29.89262,-1.55204 65.36001,-6.60839 73.85938,-6.60839c6.34357,0 25.39999,15 25.39999,15c0,0 -4.30426,16.55744 -1.677,49.84293c2.20947,27.99243 11.3705,71.03601 11.83896,94.14703c0.97157,47.9307 -4.16196,152.01005 -4.16196,152.01005c0,0 6.8751,16.10871 -32.52064,19.49727c-5.19656,0.44698 -28.0068,-7.08378 -34.50223,-6.59417c-5.41818,0.40841 -27.16192,3.80264 -33.24331,4.17608c-4.59181,0.28197 -30.28214,8.51628 -35.06363,8.69531c-8.42783,0.31554 -43.80911,-15.34526 -52.03061,-14.98105c-9.93324,0.44004 -39.34412,6.82986 -47.9634,7.15102c-2.72426,0.1015 -17.35563,-9.79234 -19.88468,-9.68134c-10.6975,0.46953 -30.35234,15.73688 -36.1915,15.73688c-17.79261,0 -16.6,-18 -16.6,-18z" fill="#d6d6d6" stroke="none" stroke-width="0"></path>
      <path d="M114.91564,303.51039l-11,-15c0,0 12.57555,13.59144 33.19615,18.10359c30.25914,6.62123 74.38191,5.22504 93.09351,7.37227c14.12883,1.62134 55.71035,9.52414 55.71035,9.52414l65,-5c0,0 -60.0161,13.57931 -88.76511,11.92299c-10.7767,-0.62088 -41.27907,-11.44 -57.09454,-13.84571c-8.9022,-1.35412 -54.71337,6.39113 -63.18379,5.2433c-39.11052,-5.29991 -26.95656,-18.32058 -26.95656,-18.32058z" fill="#9e9e9e" stroke="none" stroke-width="0"></path>
      <path d="M121.8722,32.25288c8.47042,-1.14784 54.2816,6.59742 63.18379,5.2433c15.81547,-2.4057 46.31783,-13.22483 57.09454,-13.84571c28.74901,-1.65632 88.76511,11.923 88.76511,11.923l-65,-5c0,0 -41.58152,7.9028 -55.71035,9.52414c-18.71159,2.14723 -62.83437,0.75104 -93.0935,7.37226c-20.6206,4.51215 -33.19615,18.10359 -33.19615,18.10359l11,-15c0,0 -12.15397,-13.02067 26.95656,-18.32058z" fill="#9e9e9e" stroke="none" stroke-width="0"></path>
      <path d="M201.60001,100.8c0.18852,0 0.36283,0.01422 0.52399,0.04051l2.50822,-2.50825c0.45241,-0.45242 1.07742,-0.73225 1.76778,-0.73225c1.38071,0 2.5,1.11929 2.5,2.5c0,0.57191 -0.19203,1.09896 -0.51514,1.5202l-2.38482,3.17978l-0.05426,-0.0407l-0.0571,0.17871c-1.03155,0.99126 -1.90623,2.06034 -2.9381,2.84855l0.92817,0.69749c0.61929,0.45503 1.02125,1.18856 1.02125,2.01597c0,1.38071 -1.11929,2.5 -2.5,2.5c-0.46716,0 -0.90439,-0.12814 -1.27847,-0.35118l-3.91727,-2.23846l-3.24915,-0.64984c-0.9582,-0.17211 -1.72688,-0.89021 -1.9725,-1.82076c-0.44894,-0.24469 -0.86462,-0.48347 -1.24674,-0.73676c-0.89552,-0.51511 -1.79301,-1.0258 -2.71077,-1.48812l-3.49848,-1.75638c-0.84356,-0.40164 -1.4266,-1.26197 -1.4266,-2.25848c0,-0.65847 0.25457,-1.25749 0.67066,-1.70399c-1.94198,-1.91981 -3.54358,-4.1845 -4.54237,-7.10546c0,0 -0.60087,-1.80264 0.81665,-2.78863c-0.07145,-0.56836 -0.14087,-1.13862 -0.21026,-1.70967c-1.80004,-4.91599 -3.85659,-9.68492 -5.61657,-14.64702c-0.13926,-0.39263 -0.90792,-2.96378 -1.52161,-5.34059l-0.27907,0.37208c-0.45492,0.62044 -1.18914,1.02326 -2.01745,1.02326c-0.59266,0 -1.13715,-0.20623 -1.56563,-0.55083c-0.72233,0.55084 -1.63432,0.55083 -1.63432,0.55083l-1.79367,-0.07465c-0.68821,0.16528 -1.40464,0.2608 -2.12518,0.28298c-0.12919,1.05044 -0.90995,1.89926 -1.92558,2.12973l-3.09489,0.77371c-0.21046,0.05752 -0.43201,0.08824 -0.66072,0.08824c-0.12864,0 -0.25501,-0.00971 -0.37841,-0.02845l-2.97637,0.74408c-2.97764,1.48565 -6.38228,1.8901 -9.54609,2.92162l-0.12687,-0.01075l0.00887,0.03997l-2.08133,0.46196c0.49535,2.83767 1.11769,5.65303 1.66082,8.48232c1.90166,9.90622 3.82306,19.80284 6.07874,29.62873c1.53884,0.32283 1.82662,2.04954 1.82662,2.04954l0.15548,0.94264c0.41992,-0.14423 0.83151,-0.29994 1.22704,-0.44696c-0.00351,-1.02326 0.73718,-1.80461 0.73718,-1.80461l1.71503,-1.80895c2.95063,-3.24572 5.34412,-8.06607 8.65621,-10.85921l3.05387,-3.92643c0.45673,-0.59897 1.17782,-0.9855 1.9892,-0.9855c1.11465,0 2.05893,0.72948 2.38145,1.73709c0.25646,-0.08883 0.53188,-0.13708 0.81856,-0.13708c1.38071,0 2.5,1.11929 2.5,2.5c0,0.53526 -0.16822,1.03124 -0.45467,1.43794l-1.83928,2.6895l-0.03373,-0.02307l-0.02715,0.1082c-0.82879,1.01531 -1.67798,1.97028 -2.54475,2.88743c1.3805,0.00024 2.49955,1.11943 2.49955,2.5c0,0.92661 -0.50412,1.73548 -1.25305,2.16731l-3.96071,2.37642l-0.01248,-0.02082l-0.04988,0.05702c-3.02585,1.58697 -6.41938,3.67023 -9.92662,5.16096l-1.97855,1.18341c-0.3828,0.23813 -0.83469,0.37568 -1.3187,0.37568c-0.29844,0 -0.58465,-0.0523 -0.85,-0.14822c-0.21663,0.05247 -0.43332,0.10117 -0.65,0.14584v2.30239c0,1.38071 -1.11929,2.5 -2.5,2.5c-1.12461,0 -2.07577,-0.74256 -2.38994,-1.76413l-0.11153,-0.33458c-0.41758,0.31318 -0.93639,0.49871 -1.49853,0.49871c-0.99802,0 -1.85944,-0.5848 -2.2603,-1.43042l-1.57575,-3.15157l0.08292,-0.04146c-0.10026,-0.16259 -0.1939,-0.32977 -0.27997,-0.50218c-0.66425,-1.3306 0.01677,-2.97612 -0.06431,-4.46109c-0.1561,-2.85895 -0.34517,-5.72394 -0.77667,-8.55445c-0.79631,-5.22349 -1.89131,-10.43347 -2.75111,-15.67317c-0.97428,-5.50909 -1.81326,-11.02522 -2.26469,-16.55803c-0.59144,-0.04061 -1.24452,-0.32231 -1.79023,-1.14088c-1.38674,-2.08013 0.69339,-3.46688 0.69339,-3.46688c0.25672,-0.16861 0.5136,-0.32937 0.77068,-0.48266c-0.12209,-2.21545 -0.24285,-4.43099 -0.45258,-6.63942c-0.15231,-1.60376 -0.7996,-3.20174 -0.65523,-4.79665c-0.03569,-0.25928 -0.02012,-0.50864 0.02387,-0.73756v-2.86358c0,-1.38071 1.11929,-2.5 2.5,-2.5c0.41242,0 0.80151,0.09986 1.14441,0.27673c0.08559,-0.12338 0.18199,-0.23868 0.28784,-0.34452l3.16002,-3.16c1.87761,-3.2013 4.28694,-6.12725 7.69878,-6.96931l1.19287,-1.12089c0.44776,-0.4228 1.05165,-0.68201 1.71608,-0.68201c1.03322,0 1.92006,0.62679 2.30099,1.52089c0.43895,0.0232 0.87723,0.05365 1.31401,0.08837c1.68494,0.13394 3.33077,0.57773 4.99616,0.86659l0.15146,0.13626l0.02794,-0.08383l2.34533,0.78176c0.46998,0.14453 0.8809,0.42389 1.18764,0.79292l1.27645,-0.10296c0,0 2.5,0 2.5,2.5c0,2.5 -2.5,2.5 -2.5,2.5l-0.00942,-0.12829c-0.93771,0.29988 -1.83231,0.81487 -2.81315,0.89963c-1.7688,0.15284 -3.83002,0.76483 -5.32254,-0.19663c-0.22772,-0.1467 -0.4441,-0.30592 -0.65078,-0.47587l-0.06144,0.07681l-3.66915,-2.9353c-0.07696,-0.00373 -0.15365,-0.00679 -0.23003,-0.00912c-0.07522,0.34761 -0.22273,0.66829 -0.42601,0.94552l-2.88928,4.045l-0.03181,-0.02272c-0.03944,0.07225 -0.07971,0.14413 -0.12085,0.21561c-0.05301,0.09211 -5.39936,5.07612 -6.22142,5.8436l-0.21354,0.0526l0.04619,0.06927l-2.37152,1.58105c-0.24894,0.17125 -0.53046,0.29857 -0.83335,0.37078c0.1062,1.01411 0.03118,2.08381 0.12707,3.09303c0.00136,0.01434 0.06118,0.92821 0.14419,2.19959c0.49682,0.43825 0.81814,1.07084 0.84505,1.77883l0.03804,0.86483c3.26856,-0.8084 6.648,-0.86697 10.27329,-0.86885c0.12006,-0.04883 0.23968,-0.09863 0.35884,-0.14951l0.07396,0.00174l-0.00949,-0.02614l3.45982,-1.25569c0.28128,-0.10961 0.5873,-0.16975 0.90736,-0.16975c0.34999,0 0.68318,0.07192 0.9856,0.20178c0.18009,-0.06755 0.36037,-0.13455 0.54095,-0.2007l0.5827,0.3979l0.23885,-0.14331l0.04246,-0.12738l0.10918,0.03639l1.01402,-0.60841l0.03541,0.05902c0.09672,-0.07648 0.19473,-0.1515 0.29412,-0.22498c0.98278,-0.72655 2.36692,-0.61045 3.55038,-0.91568l3.00637,-0.07465c0,0 0.83523,0 1.54015,0.48277l0.93951,-1.40922l0.69495,-2.77986l0.19284,0.04821c-0.01792,-0.15108 -0.03585,-0.30216 -0.05378,-0.45324l0.3449,-0.28287l-0.13875,-0.09249l1.57847,-2.36776c0.05883,-0.0911 0.12342,-0.17812 0.19325,-0.26056c-0.26407,-0.81492 -0.44127,-1.68943 -0.59161,-2.38498c-0.48409,-2.23969 1.67641,-6.07428 4.10084,-7.2948c-0.06563,-0.22365 -0.10084,-0.46031 -0.10084,-0.70519c0,-1.12461 0.74257,-2.07578 1.76414,-2.38995l2.28997,-0.7633c0.2642,-0.09499 0.54901,-0.14674 0.84591,-0.14674c0.98041,0 1.82902,0.56436 2.23866,1.38594c0.35255,-0.03874 0.70651,-0.06622 1.06151,-0.08424l-0.04389,-0.03511c-0.58229,-0.45772 -0.95629,-1.16848 -0.95629,-1.96659c0,-1.38071 1.11929,-2.5 2.5,-2.5c0.29692,0 0.58173,0.05175 0.84594,0.14674l2.34466,0.78157c2.02001,0.68531 3.64993,1.45161 5.09197,2.42371c0.84108,0.20737 1.48546,1.08655 2.23667,1.60086l2.83635,0.70909c1.1133,0.25265 1.94439,1.24828 1.94439,2.43804c0,0.43487 -0.11103,0.8438 -0.30629,1.2c0.19526,0.3562 0.30629,0.76514 0.30629,1.2c0,1.38071 -1.11929,2.5 -2.5,2.5c-0.29691,0 -0.58173,-0.05177 -0.84593,-0.14675l-2.34461,-0.78153l0.04569,-0.13706l-0.11985,-0.04794l-0.29554,0.02774c-0.15885,-0.11778 -0.32113,-0.23099 -0.48622,-0.34044l-0.88201,-0.3528l0.01665,-0.04162c-0.03708,0.00176 -0.07452,0.00211 -0.11232,0.00101c-0.98591,-0.02871 -1.81138,-0.69444 -2.66201,-1.26029c-1.66488,-0.31311 -3.43569,-0.92213 -5.07353,-0.92065c-1.37309,0.00124 -2.69608,0.51848 -4.04309,0.78843c0.0669,0.22563 0.10282,0.46457 0.10282,0.7119c0,0.31098 -0.05678,0.60869 -0.16054,0.88334l-0.85727,2.44078l-0.18696,-0.06567l0.01463,0.44946c-0.41886,0.37547 -0.80639,0.82884 -1.18313,1.30903l-0.33353,0.94387l-0.06618,-0.02339l0.01005,0.16782c-0.14404,0.28848 -1.04151,2.15342 -2.03713,4.09877v2.596h-0.14438c0.29902,1.34001 0.61141,2.67849 0.95963,3.99516c0.02577,-0.00705 0.0519,-0.01389 0.07838,-0.02051c2.42535,-0.60637 3.03172,1.81898 3.03172,1.81898c0.67138,2.69195 1.75027,5.27315 2.38841,7.97316c0.70516,2.9836 1.09035,6.11687 1.46862,9.23173c0.60581,1.66828 1.18186,3.35359 1.70779,5.06847l-0.83088,0.84206l0.77854,2.2032c0.06593,0.17354 0.1131,0.35633 0.13903,0.54588c2.9339,3.48305 7.43429,5.7362 11.37144,8.30271l0.06142,-0.01228l0.01206,0.06027c0.11795,0.07715 0.23539,0.15458 0.35224,0.23235c0.43052,-0.21783 0.85144,-0.44488 1.25717,-0.6847l-0.43116,-0.35648c0,0 0,-2.5 2.5,-2.5z" fill="#696969" stroke="none" stroke-width="0.5"></path>
      <path d="M240.06745,42.85006c-0.09358,0.60831 -0.45611,1.82183 -1.86053,2.09464c-0.54199,0.95453 -1.09911,1.90062 -1.66319,2.84156c0,0 -0.41861,0.69767 -1.17623,1.05819c0.3948,1.59698 -0.06217,3.33534 -0.06748,4.99769c-0.00006,0.01929 -0.00006,0.03858 0,0.05786c0.00072,0.22534 0.0007,0.45095 0,0.67681v1.47252c0.00122,0.02252 0.00244,0.04505 0.00366,0.06757c0.1253,0.58411 0.12497,1.18093 0.09233,1.78157c0.04955,0.99752 0.09554,1.9944 0.13838,2.99082l0.46564,-0.08928c0,0 2.5,0 2.5,2.5c0,2.5 -2.5,2.5 -2.5,2.5l0.5856,-0.4191c-0.28434,0.18921 -0.57032,0.38362 -0.85804,0.58144c0.04008,1.19418 0.07668,2.38811 0.11053,3.58208c0.13372,1.89798 0.27396,3.79548 0.40426,5.69141c0.3005,1.83082 0.57205,3.66306 0.65246,5.50389c0.05384,1.23261 0.0816,2.46961 0.09282,3.70893c0.65881,6.34692 1.50639,12.67277 1.51237,19.05137v0.6c0,0 0,2.5 -2.5,2.5c-2.5,0 -2.5,-2.5 -2.5,-2.5v-0.6c0.00089,-0.89239 -0.01067,-1.78575 -0.03303,-2.6799c-0.846,-0.34052 -1.46285,-1.13036 -1.55505,-2.074l-0.54882,-4.93944l0.01996,-0.00222c-0.01014,-0.03699 -0.02012,-0.07403 -0.02995,-0.11113c-0.97267,-3.6728 -0.22686,-8.91461 -0.25302,-12.76879c-0.01567,-2.30793 -0.05005,-4.60955 -0.10115,-6.90815c-0.21556,-1.29403 -0.42309,-2.5883 -0.56466,-3.88473c-1.20311,1.26893 -2.88525,1.98457 -4.32393,2.98141l-0.20386,0.03419l0.02832,0.05893l-4.0053,1.92472c-0.33926,0.17212 -0.72306,0.26911 -1.12953,0.26911c-0.13321,0 -0.26399,-0.01042 -0.39156,-0.03048c0.48461,4.75823 0.95733,9.51744 1.44474,14.27481c0.16749,-0.02872 0.34934,-0.04432 0.5468,-0.04432c2.5,0 2.5,2.5 2.5,2.5c0,3.2 0,6.40001 0,9.60001l-1.06392,2.71801c0,0 -0.18263,0.36525 -0.54789,0.72671c-0.00807,0.08309 -0.02021,0.16499 -0.03621,0.24549l0.02475,0.54248c0.00225,0.04355 0.0034,0.0874 0.0034,0.13152c0,0.03447 -0.0007,0.06878 -0.00208,0.10291c0.01449,0.1089 0.02197,0.22001 0.02197,0.33287c0,0.59805 -0.21,1.14705 -0.56027,1.57729l-3.11104,3.88879l-0.01906,-0.01525c-0.02241,0.03947 -0.04504,0.07883 -0.06787,0.11809c-0.67065,1.15322 -1.79155,1.96113 -2.79789,2.8569l-1.90282,2.61818c-0.45288,0.63896 -1.19826,1.056 -2.04104,1.056c-0.13614,0 -0.26976,-0.01088 -0.39999,-0.03182c-0.13024,0.02094 -0.26385,0.03182 -0.39999,0.03182c-1.38071,0 -2.5,-1.11929 -2.5,-2.5c0,-0.59805 0.20999,-1.14705 0.56027,-1.57729l3.11104,-3.88879l0.25896,0.20717c0.63722,-1.4597 0.97032,-3.15253 2.14159,-4.20287c0.09996,-0.08964 0.20187,-0.17649 0.30558,-0.26075l-0.04524,-0.04524l1.98055,-1.98055l-0.60448,-2.58771l0.03664,-0.00856c-0.02738,-0.07503 -0.05398,-0.15041 -0.07977,-0.22615c-0.56296,-1.65288 -0.1439,-3.48929 -0.21299,-5.23405c-0.01208,-0.3049 -0.02456,-0.60978 -0.03746,-0.91465l-0.18649,-1.30542c-1.55695,-9.34198 -2.26141,-18.57008 -2.8901,-28.01993c-0.13095,-1.96835 -0.48273,-4.44596 -0.6195,-6.86447c-0.39153,-3.10798 -0.63602,-6.19636 -0.49703,-9.15431l-0.77988,-4.67896c-0.02742,-0.14831 -0.04176,-0.30123 -0.04176,-0.45748c0,-1.38071 1.11929,-2.5 2.5,-2.5c1.12458,0 2.07574,0.74254 2.38993,1.76408l0.78181,2.3453c0,0 0.07185,0.21552 0.10725,0.53827c0.4922,0.4464 0.80571,1.08624 0.8205,1.79951l0.09005,3.73255c0.59117,4.17099 0.52146,8.00194 0.69967,12.10898c0.1561,1.43492 0.30931,2.87011 0.46036,4.30551c2.71101,-1.47366 5.25972,-3.1313 7.93954,-4.73381l0.20773,-0.01833l-0.02529,-0.06324l2.42843,-0.97138c-0.00016,-1.1191 -0.00015,-2.21406 -0.00011,-3.06626c-0.05346,-1.34672 -0.47749,-2.77951 -0.00104,-4.03801c0,-0.6786 0.00029,-1.44089 0.00119,-2.20317v-2.66671c-2.2376,-0.82608 -1.47169,-3.12385 -1.47169,-3.12385l0.78176,-2.3453c0.31417,-1.02157 1.26534,-1.76413 2.38994,-1.76413c0.14581,0 0.2887,0.01248 0.42767,0.03644c-0.33069,-0.4239 -0.52771,-0.95716 -0.52771,-1.53644c0,-1.38071 1.11929,-2.5 2.5,-2.5c0.26916,0 0.52838,0.04254 0.77131,0.12125c0.40944,-0.75621 0.81008,-1.51708 1.20058,-2.28304l0.36236,-0.204l-0.102,-0.102l3.20001,-3.19998v0c0.45241,-0.4524 1.07741,-0.73222 1.76776,-0.73222c1.38071,0 2.5,1.11929 2.5,2.5c0,0.41989 -0.10352,0.8156 -0.28642,1.16301l-1.57748,3.155l-0.07009,-0.03504c-0.04273,0.12714 -0.08859,0.25343 -0.13788,0.37879c-0.35091,0.89255 -1.18927,1.4687 -1.9607,2.08829z" fill="#696969" stroke="none" stroke-width="0.5"></path>
      <path d="M288.06225,99.24662c-2.17084,0.79762 -3.07133,-1.15088 -3.19405,-1.44725c-0.02252,0.00042 -0.04524,0.00063 -0.06818,0.00063c-2.5,0 -2.5,-2.5 -2.5,-2.5v-2.19998c0.0005,-1.7565 -0.03149,-3.51482 -0.08777,-5.27462c-0.74569,-4.63453 -1.3827,-9.26343 -1.91281,-13.89621c-0.14913,0.3439 -0.32364,0.67521 -0.52821,0.99147c-0.04485,0.06933 -0.09035,0.13818 -0.13647,0.20653l0.0374,0.0187l-2.21182,4.4237c-0.16336,0.34462 -0.40323,0.64593 -0.69766,0.88199c-0.25801,0.95753 -0.52315,1.91227 -0.80057,2.86221c-0.47603,1.62999 -0.65202,3.43082 -1.60924,4.83339c0,0.00001 0,0.00001 0,0.00001v0l-0.13357,0.40069c0.17936,0.34479 0.28073,0.73662 0.28073,1.15214c0,0.52533 -0.16204,1.01282 -0.43885,1.41521l-1.55957,2.3393c-0.3931,0.60866 -1.0434,1.03562 -1.79716,1.12713c-2.96859,3.18659 -6.27373,7.2561 -9.97336,9.09468c-0.01186,0.00589 -0.02372,0.01177 -0.0356,0.01762l0.00455,0.00606l-3.17981,2.38485c-0.42124,0.32311 -0.94829,0.51514 -1.5202,0.51514c-0.55274,0 -1.06357,-0.17938 -1.47748,-0.4831c-0.64322,0.1239 -1.28741,0.24514 -1.91617,0.40846c0,0 -2.42535,0.60634 -3.0317,-1.81901c-0.60635,-2.42535 1.81901,-3.0317 1.81901,-3.0317c1.45959,-0.34762 3.0225,-0.40114 4.37877,-1.04284c0.10639,-0.05034 0.21214,-0.10272 0.31724,-0.15703l0.54252,-0.54253l0.00001,0.00001v-0.00001c0.57531,-0.57531 6.06047,-6.06045 6.0645,-6.06448v-0.00001l3.53553,-3.53553c0.45241,-0.45241 1.07741,-0.73224 1.76776,-0.73224c0.17542,0 0.34662,0.01807 0.51184,0.05245l0.10314,-0.10313l0.99445,-2.9833c0.24205,-1.61724 1.0949,-3.08368 1.55301,-4.65345c1.17127,-4.01349 2.12492,-8.11086 3.24656,-12.14274l0.08356,-0.03897l-0.06428,-0.02142l0.12771,-0.38313c-0.61563,-1.09719 0.00793,-2.34432 0.00793,-2.34432l0.6107,-1.08832c0.14999,-0.5984 0.32552,-1.18903 0.52166,-1.77312c-0.37185,-0.43641 -0.5963,-1.00227 -0.5963,-1.62055v-0.05895c-1.99422,0.18718 -3.872,0.00398 -6.17213,-0.73215l-3.08347,-0.77085c-1.11331,-0.25264 -1.94441,-1.24829 -1.94441,-2.43804c0,-0.01487 0.00012,-0.0297 0.00038,-0.04451c-1.89554,-1.3195 -4.53277,-4.34834 -4.7335,-4.9811c-0.69903,-2.20358 1.75709,-5.35578 2.28333,-7.68235l0.04023,-0.24138c-0.00507,-0.12524 -0.00191,-0.25054 0.00806,-0.37591c-0.00093,-0.01529 -0.00191,-0.03059 -0.00295,-0.04591c-0.48944,-0.45636 -0.7955,-1.10687 -0.7955,-1.82885c0,-0.29691 0.05176,-0.58172 0.14674,-0.84593l0.67462,-2.0239c-0.00008,-0.01833 -0.00014,-0.03666 -0.00018,-0.05498l0.03322,-0.04415l0.07387,-0.22161l0.07326,0.02442c0.00099,-0.0153 0.00207,-0.03059 0.00322,-0.04589l-0.12036,-0.0321l0.27403,-1.02761c0.10892,-0.58463 0.24049,-1.06765 0.39254,-1.47203l0.11956,-0.44835c0.24347,-1.00238 1.09114,-1.76846 2.13558,-1.89076c0.75542,-0.37937 1.61324,-0.77179 2.5261,-1.68488c0.67978,-0.67995 0.91476,-1.72552 1.59998,-2.39999c0.17585,-0.17309 1.46909,-1.04366 2.75806,-1.89716c0.01825,-0.01249 0.03668,-0.02473 0.05527,-0.03674l2.36776,-1.57847l0.01067,0.016c0.13261,-0.08668 0.2285,-0.14935 0.27768,-0.18165c0.12677,0.03055 0.25354,0.06111 0.38031,0.09166l-0.07253,-0.21758l2.34461,-0.78157c0.26421,-0.095 0.54904,-0.14675 0.84596,-0.14675c0.09095,0 0.18077,0.00485 0.2692,0.01432c0.26736,-0.13077 0.52994,-0.26707 0.77973,-0.41821l2.33585,-1.55726c0.40239,-0.27681 0.88988,-0.43885 1.41521,-0.43885c0.81052,0 1.53095,0.38571 1.98775,0.9836c0.13355,-0.49758 0.26307,-0.99425 0.38695,-1.48997c0,0 0.60638,-2.42534 3.03172,-1.81897c2.42534,0.60637 1.81897,3.03173 1.81897,3.03173c-1.34552,5.37936 -3.43761,10.90096 -3.93845,16.44918c-1.3857,15.35079 0.96498,30.84023 1.5059,46.20934c0.22417,1.40079 0.45803,2.8023 0.70159,4.20483l1.65223,4.46806c0,0 0.8622,2.34662 -1.48441,3.20882zM276.95673,32.80971c-0.12126,0.02352 -0.24274,0.04324 -0.36442,0.05951l0.01404,0.05615l-3.14562,0.78639c-0.05719,0.01563 -0.11519,0.02928 -0.17393,0.04087c-0.40055,0.27147 -0.77952,0.56918 -1.11904,0.91513c-0.67345,0.68623 -0.92002,1.72021 -1.59997,2.39999c-0.66625,0.66609 -1.7357,0.85055 -2.35847,1.55746c-0.11664,0.1324 -0.21562,0.2816 -0.30266,0.44181l-0.64065,3.84397l-0.01179,-0.00196l0.00484,0.04167c-0.18563,0.92853 -0.44802,1.83848 -0.76844,2.73118c0.00053,0.07478 0.00083,0.14955 0.0009,0.22434l-0.11503,0.08644c-0.01218,0.03245 -0.02445,0.0649 -0.03678,0.09731l0.12631,0.02105l-0.14229,0.85373l0.12775,0.02555l-0.79091,3.95459c-0.14388,0.8011 -0.6694,1.46974 -1.38165,1.81099c0.74141,0.9513 2.40173,1.13241 3.36163,1.96933l3.02905,1.51452c0.49055,0.23255 0.89333,0.62009 1.14509,1.09938c1.17254,0.26044 2.17259,0.27339 3.27177,0.11904c-0.50894,-1.60139 -0.04694,-3.36889 0.01525,-5.05053c0.18768,-5.07441 0.75396,-10.16576 1.35453,-15.20364l0.02865,-0.0592l-0.0188,-0.00321l0.75007,-4.39156c-0.0854,0.02275 -0.17185,0.04273 -0.25943,0.05971z" fill="#696969" stroke="none" stroke-width="0.5"></path>
      <path d="M120.82786,102.46698c-0.05745,-0.16755 -0.07927,-0.27663 -0.07927,-0.27663l-0.8049,-4.02492c-0.17691,-0.9883 -0.35193,-1.97657 -0.52683,-2.96459c-1.11965,-5.64143 -2.27553,-11.27576 -3.34208,-16.92879c-0.73348,-2.78802 -1.8263,-5.51944 -2.06363,-8.37946c-1.79884,0.90446 -3.60944,1.79113 -5.42543,2.68133c-1.09547,0.537 -8.61551,4.33493 -9.68307,4.37505c-0.16851,0.00633 -0.33602,0.00432 -0.50266,-0.00503v0.05609h-1.25281l0.20007,0.83946l-0.00602,0.00143l0.01037,0.01719c0.62166,2.79765 1.19231,5.60363 1.73335,8.41454c0.41915,1.79375 0.82127,3.5915 1.20722,5.39255c2.77043,12.92811 6.52091,25.63036 9.21026,38.57419l0.93469,4.50092c0.04116,0.17994 0.06289,0.36729 0.06289,0.55971c0,1.38071 -1.11929,2.5 -2.5,2.5c-0.15989,0 -0.31627,-0.01501 -0.46782,-0.0437c-0.36283,0.46371 -0.95752,0.84372 -1.93221,0.84372c-2.5,0 -2.5,-2.5 -2.5,-2.5c0.01171,-1.77023 -0.1326,-3.57247 -0.37919,-5.39037c-1.52337,-2.6244 -2.13804,-5.5615 -2.97696,-8.46866c-1.87998,-6.51476 -3.45436,-12.95529 -4.81217,-19.59814c-0.22489,-1.10022 -0.45691,-2.1989 -0.69503,-3.29622c-0.61231,-2.42508 -1.21541,-4.85407 -1.82398,-7.28815c-1.09531,-4.38085 -3.5215,-10.05137 -3.63802,-14.55214v-0.00001v0.00001l-0.78639,-3.14559c-0.05752,-0.21047 -0.08824,-0.43201 -0.08824,-0.66072c0,-1.38071 1.11929,-2.5 2.5,-2.5c0.0029,0 0.0058,0 0.0087,0.00001c0.15015,-0.42843 0.41811,-0.74491 0.70635,-0.97603c0.13737,-1.25084 1.1975,-2.224 2.48493,-2.224h3.18995c4.5139,-1.62245 9.03069,-2.89688 13.93881,-3.60646l1.98709,-0.57618c0.14039,-1.24764 1.19905,-2.21735 2.4842,-2.21735c0.82255,0 1.55231,0.39724 2.00791,1.01035c1.31542,-0.73083 2.61848,-1.48099 3.90579,-2.25409l2.88627,-0.35627c0,0 2.5,0 2.5,2.5c0,2.5 -2.5,2.5 -2.5,2.5l-0.3138,-0.35626c-1.25125,0.75009 -2.51463,1.47072 -3.78776,2.16989c-0.21542,0.97163 -0.29008,1.99799 -0.26395,3.05781c0.56732,3.16421 1.18881,6.3266 1.83144,9.48899c0.12266,0.55238 0.24264,1.10518 0.36022,1.65838c0.17336,0.72617 0.32948,1.43339 0.45477,2.11444c0.06781,0.36853 0.13579,0.73701 0.20394,1.10544c0.08106,0.41078 0.16112,0.82173 0.24033,1.23283c1.53631,7.40573 3.07203,14.81798 4.18354,22.26028c1.22377,6.61565 2.3937,13.24192 3.41975,19.9018l-0.04221,0.1589l0.05154,-0.00142l0.13769,4.98701c0.00083,0.02659 0.00126,0.05329 0.00126,0.08009c0,1.38071 -1.11929,2.5 -2.5,2.5c-1.21303,0 -2.22428,-0.86392 -2.45201,-2.01005l-1.06507,-4.83508l0.01992,-0.00439c-0.01456,-0.03819 -0.02894,-0.07645 -0.04315,-0.1148c-0.59336,-1.6007 -0.41002,-3.38956 -0.61431,-5.08442c-0.49723,-4.12526 -0.80993,-8.32678 -1.49259,-12.42608c-0.46828,-2.812 -0.97394,-5.61642 -1.50172,-8.41637z" fill="#696969" stroke="none" stroke-width="0.5"></path>
      <path d="M283.64294,272.24324c0.94539,0.32595 3.78155,1.30379 4.72694,1.62973c0,0 0.03531,0.01217 0.09581,0.03786c2.0555,0.26354 4.01824,-0.06892 6.03455,0.603c0.93829,0.31268 7.3279,3.89409 8.56458,4.72574c0.90177,0.60644 1.90304,1.15828 2.54973,2.03164c0.86794,1.17218 0.93696,2.83855 1.88017,3.95107c1.46873,1.73237 6.97057,3.19385 9.01387,3.66088c3.6634,0.83733 7.5729,-0.22102 11.15143,-0.89512c1.05386,-0.19852 5.389,-1.55509 6.15735,-1.50571c2.89514,0.18606 4.85964,1.83105 7.13795,3.29918c1.05861,0.83431 2.20652,1.58104 3.43857,2.12764l2.10783,-1.2387c0,0 2.24743,-1.09503 3.34245,1.15239l0.00002,0.00002c1.09503,2.24743 -1.15239,3.34245 -1.15239,3.34245l-3.99464,1.73465c-2.32345,-0.71199 -4.68343,-1.57851 -6.62818,-3.03567c-0.79801,-0.52605 -3.18771,-2.34248 -4.44156,-2.38555c-1.73258,-0.05951 -3.30137,1.09169 -5.00442,1.41572c-4.30942,0.81991 -8.75295,1.85716 -13.15437,0.87937c-3.31036,-0.7354 -9.27801,-2.63336 -11.64123,-5.1529c-1.44175,-1.53713 -1.76212,-4.11678 -3.55094,-5.23103c-0.43817,-0.27293 -6.72152,-3.92423 -7.03122,-4.03611c-1.32075,-0.47713 -2.80781,0.09434 -4.21698,0.05728c0.99422,3.77599 0.70787,7.38478 2.77499,10.84221c3.38901,5.66841 10.05466,7.94455 16.02948,10.00452c5.39315,1.85942 10.63236,2.58133 16.16719,3.89445c3.6291,0.86099 6.72979,1.91079 10.57877,2.07071c2.8035,0.11648 5.60183,-0.44244 8.4076,-0.41352c9.28319,-1.21768 17.45568,-7.35627 21.61064,-15.81554c1.31746,-2.68227 2.03706,-5.96583 3.01181,-8.79303c0.84679,-2.45606 1.90198,-4.84917 2.54841,-7.3654c2.15711,-8.39648 0.20408,-16.47318 -4.54126,-23.48008c-1.46903,-3.07891 -4.29398,-7.17655 -7.52108,-8.75025c-1.96087,-0.95622 -4.26989,-0.89755 -6.40457,-1.3476c-2.19473,-0.4627 -4.30834,-1.52915 -6.5513,-1.53585c-3.73658,-0.01117 -7.59565,1.04681 -11.33715,1.14741c-3.39077,0.09117 -7.44481,-0.29248 -10.8164,0.36404c-3.37757,0.65768 -6.87572,2.21062 -9.94638,3.71417c0,0 -0.75143,0.36612 -1.59699,0.24046l-1.55776,1.0031c-2.36162,-0.02422 -6.16978,0.52954 -8.37831,-0.21429c-1.00057,-0.337 -1.70265,-1.25084 -2.58746,-1.82688c-1.29883,-0.84558 -2.95822,-1.25363 -3.96028,-2.43592c-1.27532,-1.50469 -2.09954,-3.4061 -2.60673,-5.31222c-0.30338,-1.14017 0.33445,-2.35334 0.25382,-3.53043c-0.09239,-1.34904 -1.04713,-6.04193 -2.11361,-6.97131c-0.56577,-0.49304 -1.467,-0.32596 -2.18283,-0.55129c-1.14453,-0.36029 -2.28103,-0.75153 -3.39244,-1.20378c-0.24678,-0.10042 -0.50866,-0.66361 -0.663,-0.44643c-0.76046,1.06994 0.20165,2.64869 -0.04641,3.9377c-0.20157,1.04745 -0.8382,1.97844 -1.04303,3.02525c-0.45727,2.3369 0.09444,4.87195 -0.72866,7.10637c-0.40373,1.09597 -1.38781,1.87896 -2.08172,2.81844c-0.09316,0.07195 -0.36221,0.28104 -0.73278,0.56816c4.79763,2.59367 9.58026,5.22617 14.20876,8.10684c0.38429,-0.45325 0.76419,-0.9184 1.13467,-1.40464c0,0 1.52045,-1.9845 3.50495,-0.46406c0.00481,0.00369 0.0096,0.00737 0.01437,0.01106c0.12211,-0.00194 0.19512,0.00443 0.19512,0.00443l4.92038,1.0975c0.16842,1.33251 0.56207,2.65863 0.59822,3.99488c5.88148,-2.70982 12.11365,-4.47264 18.6396,-2.7567c3.86635,1.01661 6.18896,2.11406 7.31563,4.57046c0.57502,-0.39111 1.19588,-0.69061 1.86848,-0.87012c5.8568,-1.56315 8.29012,4.47906 7.76047,9.24686c-0.46168,4.15594 -2.43584,5.85017 -4.84762,9.02099c-2.22341,2.92317 -3.78387,5.72786 -6.42558,8.34539l-3.32071,0.31691c0,0 -1.74354,-0.60113 -1.71927,-2.26831c-1.4215,-0.10724 -3.10997,0.15015 -3.78603,-0.97515c-0.91499,-1.52302 0.34643,-3.54454 0.72256,-5.281c0.74403,-3.43486 1.87226,-4.09772 3.4392,-7.4945c0.05399,-0.11704 0.10861,-0.23708 0.1639,-0.35983c-0.68762,0.70844 -1.71007,0.78308 -1.71007,0.78308l-0.00004,0.00002l-1.08968,0.07956c-0.30603,0.02189 -0.6131,0.04237 -0.92114,0.0614c0.00117,0.06342 0.00058,0.12851 -0.00185,0.19533c-0.09111,2.49834 -2.58945,2.40723 -2.58945,2.40723l-2.08933,-0.07619c-2.81328,-0.10333 -7.65128,-0.16717 -10.39668,-0.74131c-2.1601,-0.45173 -4.26848,-1.12834 -6.39735,-1.71375c-0.1727,0.25959 -0.34345,0.5162 -0.51116,0.76963c1.23559,1.69945 2.74804,2.90354 3.88864,5.13217l-0.14189,1.93009c0.8401,0.72079 1.67001,1.45694 2.63092,1.99568c3.93744,2.20757 7.60669,1.02131 11.70457,0.14708c0,0 2.44591,-0.51723 2.96315,1.92868c0.51723,2.44591 -1.92868,2.96315 -1.92868,2.96315c-5.44961,1.14308 -9.85787,2.12986 -15.10491,-0.63404c-1.59273,-0.83897 -2.871,-2.17255 -4.30651,-3.25882l-2.05553,-1.57487c0,0 -1.9845,-1.52046 -0.46405,-3.50495l0.00001,-0.00002c0.15243,-0.19896 0.30953,-0.36268 0.46883,-0.49625c-0.13213,-0.15899 -0.26598,-0.31552 -0.40087,-0.47116c-1.07889,1.50832 -2.28144,2.92858 -3.36614,3.43674c-3.71442,1.74013 -6.33081,-0.73238 -7.67852,-3.81241c-1.14738,-2.62221 -0.43936,-5.46492 0.81971,-8.11649c-1.25874,0.07203 -2.10547,-1.04003 -2.10547,-1.04003l-1.57981,-2.09705c-3.89375,-3.42451 -9.15349,-5.33355 -14.59056,-6.48404c-0.97564,4.02526 -0.18558,8.45329 0.78411,12.30233c0.24474,0.97144 0.40858,3.0013 1.52405,3.69244c2.39193,1.48204 5.53364,0.90497 7.93019,1.77447c1.95985,0.71104 3.8037,1.99759 5.4944,3.53517c0.49183,0.00956 0.8561,0.13516 0.8561,0.13516zM261.65746,257.47041c-1.64961,-0.59011 -3.44681,-0.63092 -5.16586,-0.96901c-4.98539,-0.98048 -9.56925,-3.88221 -14.5221,-4.98559c-7.16592,-1.5964 -13.93818,-3.94648 -20.91803,-6.35296c-0.48465,-0.1671 -6.15524,-2.11206 -6.41851,-2.24709c-0.63528,-0.32583 -0.96518,-1.14483 -1.64015,-1.37754c-0.67497,-0.23271 -1.43951,0.20895 -2.14061,0.07403c-4.45036,-0.85643 -8.525,-3.52325 -12.95146,-4.45101c-1.15548,-0.24218 -2.40802,0.03404 -3.52446,-0.34982c-1.38119,-0.47489 -2.48579,-1.54633 -3.80617,-2.17066c-4.00996,-1.89605 -9.41678,-3.86243 -13.75184,-4.76258c-0.82566,-0.17144 -1.7069,0.1589 -2.52967,-0.0259c-3.9237,-0.88132 -6.65383,-2.06822 -10.70981,-2.10162c0,0 -0.83294,-0.00855 -1.53229,-0.49658c-0.40941,0.47768 -0.89368,0.71366 -0.89368,0.71366l-0.71035,0.31821c-4.72071,3.09726 -7.70794,4.07595 -13.13961,1.58498c-0.18372,-0.08425 -2.98106,-1.85131 -4.50071,-2.98759c-0.99991,2.196 -3.65057,5.37279 -5.34808,6.33338c-3.9856,2.2554 -7.06818,0.73469 -9.85624,-1.54739c-1.23946,0.15983 -2.45855,0.06243 -3.3872,-0.6332c-0.91096,-0.68238 -1.0242,-1.94448 -0.92769,-3.22149c-0.30515,-0.25752 -0.6107,-0.50373 -0.91761,-0.734c0,0 -1.9845,-1.52045 -0.46406,-3.50495c1.19465,-1.55926 2.67578,-0.95473 3.25568,-0.62405c0.40038,-0.55307 0.74547,-1.1252 0.85509,-1.77611c0.31314,-1.85943 0.69863,-3.70603 1.06899,-5.55491c0.54391,-2.71521 -0.22463,-5.65629 0.35683,-8.43958c0.03974,-0.19021 2.04705,-5.99482 2.16792,-6.34539c1.43821,-4.17143 2.48798,-8.00477 2.78616,-12.45257c0.09909,-1.47812 -1.18537,-3.32995 -0.20389,-4.43961c0.82746,-0.93553 2.24018,-0.99166 3.59823,-0.94801c0.03687,-0.1929 0.07768,-0.31128 0.07768,-0.31128l1.78994,-2.94518c1.33152,-0.57821 2.54377,-1.68504 3.99458,-1.73464c1.82911,-0.06254 7.93951,1.95717 10.55148,3.91372c0.32081,-0.40059 0.6821,-0.75326 1.1276,-1.00626c1.06012,-0.60205 2.43131,-0.23735 3.65041,-0.22647c1.21232,0.01083 2.57362,-0.31152 3.62541,0.29146c3.58804,2.05696 3.83922,6.35188 3.83029,9.87508c0,0 -0.00646,0.62918 -0.32855,1.25301c2.70928,3.48103 4.33259,7.6537 6.25751,11.60452c0,0 0.59195,1.21494 0.0121,2.29348l1.0753,-0.10319c4.75151,0.65716 8.70095,2.75419 13.30252,3.70865c2.89684,0.60086 5.88935,0.77562 8.74669,1.33757c3.15039,0.61958 6.03545,2.49709 9.16993,3.14723c3.66583,0.76036 6.77611,1.47022 10.38769,2.71541c2.37563,0.83064 4.55508,2.14142 6.82871,3.22039c1.96995,0.93485 4.25626,0.95247 6.39579,1.37324c3.6381,0.7155 6.97004,2.89928 10.58827,3.65058c0.82568,0.17145 1.70229,-0.13681 2.52972,0.02592c4.96418,0.97625 9.4922,3.37431 14.57197,4.18867c4.00666,0.64233 7.10844,1.95847 11.06008,2.93495c4.46313,1.10288 4.86627,-0.33732 9.46694,2.51837c0.70888,0.44001 1.16273,1.16909 1.62676,1.88664c0.22819,-0.19454 0.45977,-0.38376 0.69822,-0.56208c4.03593,-4.85699 -1.2458,-19.02803 8.94462,-17.82749c0.37846,0.04458 7.63604,2.56637 8.03833,2.93857c2.00054,1.85086 3.56974,7.55656 3.78119,10.29287c0.22193,2.87193 -1.42812,3.36109 1.03807,5.86593c3.3142,3.36614 7.00553,2.83196 11.30853,2.87597c0.00023,-0.00028 0.00045,-0.00055 0.00069,-0.00083l-0.4966,-0.53697c0,0 1.09574,-1.07349 2.41149,-0.6804l-0.00001,0.00001c3.26723,-1.54502 6.87437,-3.03299 10.38551,-3.68317c3.59639,-0.66597 7.85399,-0.32347 11.45517,-0.41941c3.77194,-0.10047 7.68553,-1.20952 11.45609,-1.14865c2.58641,0.04176 5.05258,1.11221 7.58381,1.6452c2.59147,0.54567 5.35525,0.66211 7.73043,1.83339c4.05725,2.00076 7.55975,6.77452 9.48353,10.65193c5.47246,8.08055 7.47784,17.60479 5.05822,27.21757c-0.02956,0.11744 -2.31991,6.75489 -2.66673,7.76082c-1.04183,3.02177 -1.83998,6.49249 -3.24635,9.35837c-4.9884,10.16525 -14.69962,17.13086 -25.79983,18.61128c-2.9381,-0.03005 -5.86868,0.53714 -8.80467,0.42185c-4.16886,-0.16372 -7.6919,-1.27327 -11.64095,-2.20531c-5.69257,-1.34354 -11.07212,-2.11206 -16.64089,-4.03204c-7.13477,-2.45989 -14.55763,-5.38873 -18.65692,-12.10916c-2.34609,-3.84621 -2.02918,-7.30228 -3.04021,-11.37787c-1.86351,-2.347 -2.9728,-3.72089 -5.45505,-5.44276c-1.19604,-0.82966 -1.99983,-2.31738 -3.3881,-2.75508c-0.6809,-0.21468 -1.43947,0.20896 -2.14056,0.07405c-0.51559,-0.09922 -6.80461,-2.3121 -7.08956,-2.52364c-2.59463,-1.92611 -2.68333,-3.7077 -3.43148,-6.47824c-0.58824,-2.17836 -1.05147,-4.50889 -1.25559,-6.87126zM324.60919,261.10292c0.01414,0.19358 0.01214,0.37323 -0.00357,0.53994c0.45024,-1.02389 0.94938,-2.14292 1.52175,-3.24025c-0.15225,-0.47773 -0.1482,-0.87292 -0.1482,-0.87292c0.28212,-3.16832 -1.01741,-3.12797 -4.3766,-3.9409c-5.99116,-1.44988 -11.68698,0.54057 -17.02917,3.23343l-1.91694,1.64491c6.02313,0.71987 12.3371,0.84038 18.18765,0.40399l1.08968,-0.07956c0,0 2.49337,-0.18203 2.67539,2.31134zM255.00456,249.17423c0,0 -2.49054,-0.21728 -2.27326,-2.70782c0.21728,-2.49054 2.70782,-2.27326 2.70782,-2.27326c2.76819,0.24209 5.61852,0.55622 8.46293,1.01836c0.21284,-0.38675 0.44273,-0.76723 0.69052,-1.14069c1.30317,-1.96404 3.38719,-2.9601 5.46134,-3.81138c-0.32157,-0.50028 -0.51607,-1.19167 -0.1757,-2.06051c-1.74297,-0.65515 -3.74253,-0.56833 -6.00283,-1.13202c-3.92614,-0.97913 -6.7252,-2.22026 -10.63814,-2.85366c-5.10481,-0.82633 -9.71321,-3.27416 -14.68937,-4.20752c-0.82883,-0.15546 -1.705,0.15005 -2.52972,-0.02592c-3.61055,-0.77041 -6.97301,-2.97244 -10.58833,-3.6506c-2.60381,-0.48842 -5.32262,-0.72247 -7.73932,-1.80779c-2.10988,-0.94755 -4.07302,-2.24306 -6.26339,-2.98585c-3.48524,-1.20163 -6.28107,-1.80021 -9.79794,-2.5517c-3.06322,-0.65455 -5.91369,-2.53547 -8.98148,-3.11093c-2.92475,-0.54863 -5.98287,-0.74303 -8.93513,-1.37389c-4.49565,-0.96064 -8.30957,-3.0332 -12.93361,-3.64453l-1.10963,0.23583c0,0 -2.47836,0.32821 -2.80658,-2.15015c-0.10259,-0.7747 0.06904,-1.33931 0.35349,-1.74947c-0.90395,-0.37887 -1.34849,-1.29127 -1.34849,-1.29127c-0.7924,-1.62637 -1.55029,-3.24397 -2.34751,-4.83298c-0.74129,1.41664 -2.55613,2.35236 -3.64648,3.61262l-4.31367,0.70052c0,0 -2.47838,0.32812 -2.80649,-2.15026c-0.32812,-2.47838 2.15026,-2.80649 2.15026,-2.80649l2.77985,-0.23862c0.38574,-0.14575 0.89297,-0.12069 1.15722,-0.43726c0.15468,-0.18529 -0.48494,-0.02806 -0.71875,-0.088c-0.25463,-0.06528 -2.66763,-0.9702 -3.30313,-0.72206c-1.85638,0.72487 -2.2521,2.27494 -2.14659,3.93809c0,0 -0.02567,2.49986 -2.52554,2.4742c-1.3846,-0.01422 -1.99444,-0.78746 -2.26299,-1.47455c-0.08591,0.13859 -0.16744,0.27827 -0.2433,0.41939l-3.66783,1.15666c0,0 -1.5586,0.40792 -2.50087,-0.68238c-1.41399,0.2779 -2.39002,-1.00388 -2.39002,-1.00388c-0.71044,-1.00746 -1.86283,-1.81921 -2.13132,-3.02238c-0.34955,-1.56639 -0.64883,-3.57243 0.38588,-4.79927c2.33074,-2.76352 10.40121,-3.61656 12.72109,0.25076c0.80194,-0.85096 1.84514,-1.54043 3.18742,-2.0024c1.60442,-0.5522 4.40014,-0.27074 6.72005,0.74535c-0.01538,-0.02203 -0.03078,-0.04405 -0.04622,-0.06605c-0.37085,-0.52859 -0.42532,-1.3892 -1.01645,-1.64902c-1.02946,-0.45249 -2.2648,-0.03052 -3.36229,-0.2756c-2.3423,-0.52306 -4.4642,-1.82493 -6.80676,-2.3468c-3.15228,-0.70226 -6.34565,-0.98884 -9.44502,-1.58529c-0.60875,-0.11715 -1.22713,-0.25804 -1.81536,-0.46731c0.28237,1.84489 -0.89406,4.67751 -0.90151,4.74503c-0.36755,3.32979 -1.13144,5.9624 -2.23871,9.17395c-0.51252,1.48653 -1.17887,2.9296 -1.65007,4.42728c2.42112,-0.97027 5.37911,-0.93359 7.61262,0.06132c1.15726,0.5155 2.548,1.08887 3.45726,1.97925c0.51479,-0.53842 1.19764,-1.10431 2.08435,-1.71289c2.73992,-1.8805 6.37448,0.18089 7.5786,2.7946c0.25076,-0.02153 0.41735,-0.007 0.41735,-0.007c8.40761,0.77765 16.54965,3.68625 24.68168,5.89682c8.12259,2.208 16.63347,3.05964 24.33981,6.70745c1.16747,0.55262 2.10858,1.56126 3.32988,1.98174c1.45668,0.50152 3.06634,0.36987 4.56289,0.73564c4.9996,1.22193 9.94059,2.57206 14.82838,4.25725c5.23966,1.82218 10.78523,1.21152 15.90849,2.9462c1.36498,0.46216 2.43545,1.56074 3.74972,2.15188c4.51906,2.03259 9.79641,3.60766 14.67871,4.25314l1.23563,0.37466c0,0 2.36347,0.81487 1.5486,3.17834c-0.81487,2.36347 -3.17834,1.5486 -3.17834,1.5486l-0.27696,-0.14684c-5.37791,-0.74379 -11.1109,-2.4227 -16.09521,-4.66455c-1.16597,-0.52443 -2.08607,-1.5434 -3.29188,-1.96829c-0.69091,-0.24345 -5.98042,-0.61896 -6.78993,-0.71303c-3.10843,-0.36119 -6.15766,-1.2203 -9.11856,-2.23316c-4.76063,-1.64135 -9.5656,-2.93278 -14.43295,-4.13894c-1.65358,-0.40977 -3.42397,-0.32493 -5.03432,-0.88084c-1.34973,-0.46595 -2.42182,-1.52605 -3.71172,-2.13844c-3.28557,-1.55982 -7.3882,-2.89509 -10.91802,-3.76041c-4.20367,-1.03051 -8.47565,-1.53071 -12.67641,-2.6739c-7.80273,-2.12343 -15.69805,-5.07845 -23.77411,-5.73222c0,0 -0.07822,-0.00683 -0.20572,-0.03192c-0.20294,0.65351 -0.4056,1.30702 -0.52525,1.95985l-3.89667,0.22039c-0.14914,0.28817 -0.38048,0.56748 -0.72742,0.81232c0.93896,0.29357 1.87865,0.69149 2.86985,1.16131c0.68954,0.32683 1.06535,1.18023 1.78543,1.43274c0.39423,0.13824 6.10674,0.61029 6.58549,0.65195l2.11014,0.64857c0,0 0.86256,0.29739 1.36586,1.05395c0.47652,-0.15136 0.87021,-0.14731 0.87021,-0.14731c4.27197,0.05156 7.43278,1.25509 11.50992,2.17439c0.82262,0.18548 1.70497,-0.15007 2.52967,0.0259c4.73302,1.00992 10.60456,3.0628 14.98798,5.14621c1.13722,0.54051 2.04542,1.53803 3.23539,1.94963c0.96263,0.33296 2.05109,0.01252 3.04758,0.22354c4.36385,0.92409 8.39545,3.57421 12.76305,4.41472c0.95629,0.18403 1.99815,-0.19143 2.91881,0.12599c0.92066,0.31742 1.50974,1.25519 2.37626,1.69962c1.77947,0.91267 3.79174,1.27316 5.6824,1.92501c6.82797,2.35412 13.44797,4.62605 20.44432,6.21537c4.83738,1.09888 9.35472,4.01099 14.21761,4.92316c1.40549,0.26364 2.84098,0.41866 4.23918,0.71435c0.00901,-0.87807 0.01806,-1.75945 0.02473,-2.4101c-2.26802,-0.30495 -4.49783,-0.52132 -6.60249,-0.70447zM285.28763,253.86301l1.91493,2.49278c0,0 0.10263,0.13479 0.21937,0.36091c0.53342,-0.84925 1.05558,-1.64792 1.50616,-2.37696c0.49693,-0.80405 1.03519,-1.54149 1.59691,-2.24503c-4.97975,-3.06694 -10.13466,-5.85451 -15.28501,-8.62686c-0.06628,0.04423 -0.11594,0.07495 -0.14629,0.09004c-1.66384,0.82701 -4.32498,1.2294 -5.85837,2.71898c5.89531,1.42666 11.51945,3.71963 16.0523,7.58614zM296.79585,257.55326c0.08243,0.01609 0.16497,0.03204 0.24761,0.04787c0.01962,-0.0403 0.03904,-0.08056 0.05825,-0.12082c0.05504,-0.36601 0.19971,-0.68725 0.35812,-0.94503c0.57728,-1.86616 0.98764,-4.70718 2.43597,-5.67048l-1.65167,0.52415c0,0 -0.06285,-0.00549 -0.16771,-0.02469c0.13995,0.43015 0.15529,0.96147 -0.06798,1.60905c-0.60919,1.76691 -2.08389,1.75747 -2.78953,1.64013c-1.41793,1.82266 -2.77742,3.67607 -4.06606,5.82318c-0.8506,1.41726 -3.3432,5.53878 -1.40096,7.37807c0.81066,0.76769 1.58969,-1.58519 2.22659,-2.50217c0.17743,-0.25545 0.36032,-0.51457 0.54703,-0.77686c-0.17065,-0.71259 -0.21987,-1.96826 1.19917,-2.73511c-0.16849,-0.39197 -0.23664,-0.88659 -0.11698,-1.5084c0.06079,-0.31592 0.15442,-0.58337 0.27142,-0.80957c0.49744,-2.3949 2.91676,-1.92933 2.91676,-1.92933zM325.09706,272.36422c0.5398,0.17336 1.20092,0.54907 1.49893,1.36316c0.98213,-1.2273 1.84632,-2.5594 2.70332,-3.87485c2.45995,-3.77589 7.6988,-7.78557 4.70234,-12.89677c-0.35603,-0.6073 -1.21938,0.75813 -1.65671,1.30979c-0.6146,0.77526 -1.02376,1.69487 -1.58972,2.50632c-1.863,2.67103 -3.27242,5.88371 -4.65568,8.87435c-0.3358,0.72603 -0.59779,1.89902 -1.00248,2.718zM144.24862,217.06236c-0.31417,-0.76693 -0.64854,-1.46491 -0.94567,-2.11839c-0.15745,0.34377 -0.2981,0.68765 -0.40174,1.03173l-3.85678,1.31524c0,0 -2.41853,0.63302 -3.05155,-1.7855c-0.63302,-2.41853 1.7855,-3.05155 1.7855,-3.05155l1.72419,-0.14551c0.87743,-0.88065 -4.66815,-0.95447 -5.5212,-0.69352c-1.68257,0.51469 0.42895,2.35583 0.60104,2.60611c0,0 1.09506,2.24741 -1.15236,3.34246c-0.73866,0.35991 -1.35284,0.35876 -1.84456,0.195c-0.24019,0.57071 -0.50432,1.13514 -0.62052,1.73893c-0.31452,1.63437 -0.36794,3.3656 -0.81806,4.95839c1.64519,-0.9993 3.6251,-1.80026 4.58054,-2.37545c3.09417,-1.86279 4.50199,-4.05529 8.38504,-4.57776c0.46262,-0.06225 0.90976,-0.0953 1.34544,-0.10174c-0.13986,-0.19584 -0.20933,-0.33842 -0.20933,-0.33842zM147.85422,212.22019c0.08676,0.00039 0.13695,0.00477 0.13695,0.00477l1.46128,0.86252c-0.96004,-1.27933 -1.48432,-1.3634 -1.59823,-0.86729zM142.92473,200.579l1.69523,-0.26936c2.08941,-2.67625 -1.23533,-1.96441 -3.25749,-1.4018c-0.13593,0.03782 0.2379,0.15676 0.33391,0.26014c0.42439,0.4569 0.8216,0.93825 1.22835,1.41101zM134.98896,228.86662c1.01256,-0.70189 1.62769,-1.51689 2.16512,-2.41584c-0.90637,0.50073 -1.94455,0.76445 -2.8052,1.34158c-0.58495,0.39226 -1.08599,0.92371 -1.58819,1.44712c0.77155,0.19197 1.52615,0.11386 2.22827,-0.37285zM154.83989,226.12217c0.17052,-0.07516 0.33506,-0.16087 0.49511,-0.25454c-1.81155,-0.17858 -3.69388,-0.41357 -4.55684,-0.70735c-1.91344,-0.65138 -3.51087,-2.07507 -5.33604,-2.6051c2.46987,1.88629 6.01575,5.05774 9.39777,3.56699zM158.36064,185.44561c-0.44265,-0.19727 -0.94943,0.24613 -1.434,0.23949c-0.49153,-0.00673 -1.20814,-0.16439 -1.54909,0.12595l-0.01903,1.8534c0.00031,0.02425 0.00028,0.04854 -0.00012,0.07286c0.44286,0.11736 0.88844,0.23234 1.33769,0.34397c0.88679,0.22036 1.84071,0.21476 2.75985,0.30795c-0.06385,-1.27387 -0.31248,-2.59474 -1.0953,-2.94363zM144.76682,184.16702c-0.95094,-0.35892 -1.79874,-1.18565 -2.81505,-1.17185c-0.7202,0.00978 -1.265,0.64736 -1.86694,1.08042c0.0183,0.00391 0.03664,0.00764 0.05502,0.01117c1.90252,0.36613 3.81688,0.67562 5.7072,1.10023c0.85125,0.19122 1.68819,0.39859 2.51707,0.61572c-0.94345,-0.558 -2.04249,-1.04885 -3.59731,-1.63569z" fill="#696969" stroke="none" stroke-width="0.5"></path>
      <path d="M298.88712,155.87622c-0.02232,0.04348 -0.04585,0.08761 -0.07056,0.13236c-0.23315,1.13147 -0.34882,2.35881 -0.34882,3.69185c-1.36177,4.24054 -3.33684,9.56466 -7.91104,11.50926c-1.27646,0.54265 -2.77007,0.15795 -4.15671,0.1903c-3.91803,0.09141 -8.39205,0.96144 -11.36775,-2.33224c-1.06723,-1.18127 -2.37876,-2.57647 -2.33221,-4.16776c0.15261,-5.21591 5.24609,-5.38174 9.045,-6.36738c1.53165,-2.98051 4.51956,-6.13583 7.11721,-7.91986c0.60608,-0.88879 1.28017,-1.7732 1.97956,-2.59989c0.15414,-0.44473 0.30169,-0.89084 0.44416,-1.33506c-0.8832,-1.85095 0.92728,-3.05793 0.92728,-3.05793l0.01594,-0.01059c0.20151,-0.66199 0.3992,-1.29966 0.59913,-1.89988c0,0 0.79059,-2.3717 3.16229,-1.58111c0.49655,0.16552 0.85448,0.40034 1.11008,0.6682c1.36659,-0.65185 2.73123,-1.3073 4.04446,-2.05877c1.89128,-1.08225 4.07815,-3.1453 6.28049,-3.47083c1.9949,-0.29487 4.31749,-0.64986 6.03615,0.40502c2.82007,1.7309 2.00589,6.69227 0.30598,8.59586c-1.34526,1.50645 -4.65421,1.38354 -6.3564,2.11851c-2.95748,1.27699 -5.16339,2.89434 -6.64448,4.99729c-0.2526,1.52718 -1.18496,3.13911 -1.87979,4.49265zM286.97438,164.93312c-0.1079,0.01048 -0.2146,0.02031 -0.32009,0.02947c-0.08831,0.08946 -0.17684,0.1787 -0.26558,0.26771l-0.24935,0.07869l0.04742,0.07113l-1.81946,1.21297c1.47622,0.24523 2.95793,0.57082 4.27601,-0.00279c0.74725,-0.32519 1.02639,-1.26844 1.58896,-1.85806c0.80127,-0.8398 1.32659,-1.47328 1.72317,-2.08807c-1.82723,1.2446 -3.64723,2.15939 -4.98105,2.28895zM279.89999,164.89999c0,-0.22873 0.03072,-0.45029 0.08825,-0.66077l0.04508,-0.18032c-0.01423,0.0043 -0.02847,0.00857 -0.04271,0.01282c-0.7781,0.23187 -2.47961,0.03868 -2.29057,0.82827c0.24607,1.02785 1.49707,1.37078 2.68182,1.4758c-0.30297,-0.41361 -0.48186,-0.92381 -0.48186,-1.4758zM309.84842,139.9373c0.19277,0.19187 0.36068,0.43367 0.47776,0.7384c0.67578,-0.42978 0.22432,-0.70604 -0.47776,-0.7384z" fill="#696969" stroke="none" stroke-width="0.5"></path>
      <path d="M318.90435,126.55933c-0.20293,0.47012 -0.37977,0.92753 -0.47896,1.347c0,0 -0.60633,2.42536 -3.03169,1.81902c-2.42536,-0.60633 -1.81902,-3.03169 -1.81902,-3.03169c0.65353,-2.50888 3.99097,-12.55613 9.33966,-8.72028c7.17812,5.14784 -0.95113,7.57104 -2.92369,8.49833z" fill="#696969" stroke="none" stroke-width="0.5"></path>
      <path d="M330.54728,121.51195c1.78803,1.74727 0.04077,3.5353 0.04077,3.5353l-1.03518,0.69993c-0.52706,1.58114 -1.05411,3.16227 -1.58117,4.74341c0,0 -0.79058,2.3717 -3.16229,1.58112c-2.3717,-0.79058 -1.58112,-3.16229 -1.58112,-3.16229c0.52706,-1.58114 1.05411,-3.16227 1.58117,-4.74341l2.20252,-2.6133c0,0 1.74727,-1.78803 3.5353,-0.04077z" fill="#696969" stroke="none" stroke-width="0.5"></path>
      <path d="M231.37183,181.52393c0.14743,-1.05239 0.01122,-2.1908 0.08268,-3.26075c-0.90839,-1.28933 0.06539,-2.74996 0.06539,-2.74996l1.57853,-2.36773c0.44514,-0.68924 1.2201,-1.14549 2.10162,-1.14549c1.38071,0 2.5,1.11929 2.5,2.5c0,0.29693 -0.05176,0.58176 -0.14676,0.84598l-0.78159,2.34463l-0.32811,-0.10938c-0.21776,4.8204 -1.2746,9.29817 -1.88251,14.39202c-0.30077,2.52024 -0.04862,5.21669 -1.07474,7.53815c-0.93857,2.1234 -3.14809,4.80626 -5.56181,5.38133c-3.63452,0.86593 -7.6997,0.05194 -8.02452,-4.79272c-0.14495,-2.16192 3.33979,-5.64097 5.59924,-6.35577l0.39918,-0.59875c0.44514,-0.68924 1.2201,-1.14549 2.10162,-1.14549c0.69982,0 1.33248,0.28755 1.78628,0.75094c0.47179,-3.74559 1.05653,-7.45091 1.58553,-11.227z" fill="#696969" stroke="none" stroke-width="0.5"></path>
      <path d="M340.3528,188.93163c0.14777,-0.12268 0.30179,-0.24436 0.46221,-0.36498c1.26504,-0.95121 2.68847,-2.50759 4.23134,-2.15449c0.75386,0.17253 1.40525,0.42156 1.96251,0.73266c0.31336,-0.43492 0.6123,-0.87851 0.86738,-1.34801c2.35633,-4.33696 3.19548,-9.30903 5.01409,-13.85352c0.972,-2.42892 2.21809,-4.74216 3.18845,-7.17174c0,0 0.92846,-2.3212 3.24966,-1.39273c2.3212,0.92846 1.39273,3.24966 1.39273,3.24966c-0.98036,2.44746 -2.2306,4.78096 -3.21145,7.22823c-1.89446,4.72679 -2.79924,9.79032 -5.23504,14.31785c-0.70444,1.30938 -1.78427,2.39637 -2.52014,3.68428c0.04796,1.61439 -0.44244,3.33725 -1.27735,4.83225c-0.40442,0.72416 -1.05718,1.32191 -1.84817,1.78938c-0.41148,0.77164 -0.85918,1.5213 -1.36742,2.23409l-1.55999,2.33995c-0.44514,0.68925 -1.2201,1.1455 -2.10163,1.1455c-1.12461,0 -2.07577,-0.74257 -2.38994,-1.76414l-0.78176,-2.34533l0.32596,-0.10865c-0.20701,-0.42628 -0.3971,-0.85503 -0.56585,-1.28496c-2.85066,-2.19618 -3.75676,-8.09007 0.85493,-9.70665c0.4416,-0.1548 0.87745,-0.15745 1.30946,-0.05865zM343.03401,194.56305c0.13021,-0.28013 0.25714,-0.56225 0.38225,-0.84549l-0.5705,0.88258c0.06297,-0.01149 0.12573,-0.02385 0.18825,-0.03709z" fill="#696969" stroke="none" stroke-width="0.5"></path>
      <path d="M359.56779,45.33224c1.76777,1.76777 0,3.53553 0,3.53553l-1.18099,1.11234c-1.26227,0.67331 -2.35956,2.11816 -3.7868,2.01992c-1.69281,-0.11653 -3.1622,-1.40791 -4.38671,-2.58255c-0.45927,-0.44056 0.27723,-1.57306 -0.27504,-1.88933c-0.65902,-0.37741 -1.48176,0.34045 -2.23279,0.45315c-0.59773,0.0897 -1.33033,-0.21885 -1.80681,0.15304c-0.35794,0.27938 -0.08464,0.90417 -0.12696,1.35626c0,0 -0.79062,2.37169 -3.16231,1.58107c-0.21394,-0.07132 -0.40214,-0.1555 -0.56752,-0.24965c-0.52498,1.06044 -1.47347,1.94781 -2.01593,3.01609c-3.48749,6.86796 -6.23901,14.1241 -9.41305,21.09795c-0.68981,1.51562 -1.71272,2.85792 -2.49622,4.3273c-0.60324,1.13131 -0.53471,2.8566 -1.66101,3.46914c-4.53625,2.46707 -11.39454,-1.76656 -11.15079,-6.98787c0.17441,-3.73613 4.2748,-5.74274 7.3911,-5.54282c1.1981,0.07686 2.664,0.30325 3.61972,1.02431c0.463,-1.00055 0.9161,-2.00544 1.34321,-3.02175c1.70878,-4.066 4.05751,-7.94081 5.89952,-11.95171c1.20292,-2.61931 2.51376,-6.59352 4.49791,-8.83892c1.65292,-1.87056 3.72555,-3.32337 5.58832,-4.98505l0.12926,1.33945c2.66388,-1.04345 7.30097,-1.14372 9.08785,-0.29624c2.45424,1.16401 0.2947,5.20949 2.75152,2.34797l0.41898,-0.48764c0,0 1.76777,-1.76777 3.53553,0z" fill="#696969" stroke="none" stroke-width="0.5"></path>
      <path d="M211.68012,158.28676c-1.38677,2.08011 -3.46688,0.69334 -3.46688,0.69334l-1.96991,-1.37042c-1.00707,-0.19607 -2.01115,-0.311 -3.01284,-0.36106c-3.54861,5.46545 -7.63081,10.62521 -11.78627,15.47463l-1.54604,1.80372c0,0 -1.62698,1.89814 -3.52512,0.27117c-1.89814,-1.62698 -0.27117,-3.52512 -0.27117,-3.52512l1.54604,-1.80372c3.21193,-3.74618 6.39779,-7.69089 9.30214,-11.82939c-0.84126,0.12731 -1.68171,0.2766 -2.52172,0.438c-0.96378,2.11262 -1.89079,4.12847 -1.97353,4.24607c-2.78067,3.95223 -7.57408,7.20207 -11.20679,10.34224l-2.85747,1.00548c0,0 -2.37171,0.79055 -3.16227,-1.58116c-0.79055,-2.37171 1.58116,-3.16227 1.58116,-3.16227l1.94258,-0.59449c3.05181,-2.77173 7.22174,-5.47367 9.59314,-8.85777c0.04173,-0.05954 0.08287,-0.11942 0.12346,-0.1796c-2.54896,0.49629 -5.10178,0.88934 -7.66862,0.90361c0,0 -2.5,0 -2.5,-2.5c0,-2.5 2.5,-2.5 2.5,-2.5c3.43391,0.02271 6.84296,-0.74132 10.26184,-1.53264c0.33486,-0.88633 0.67682,-1.76898 1.0716,-2.62227c0.56545,-1.22218 1.09524,-2.44416 1.60229,-3.66737c-2.15743,-0.32622 -4.07717,0.06429 -5.25565,2.10905c0,0 -1.38677,2.08011 -3.46688,0.69333c-2.08011,-1.38677 -0.69333,-3.46688 -0.69333,-3.46688c0.72089,-1 1.17043,-2.26844 2.16266,-2.99999c2.67032,-1.96876 5.87182,-1.75658 9.06675,-0.91406c0.96716,-2.52557 1.90625,-5.06395 2.92952,-7.62765c0,0 0.92846,-2.3212 3.24966,-1.39273c2.3212,0.92846 1.39273,3.24966 1.39273,3.24966c-0.98544,2.45807 -1.8937,4.89675 -2.8212,7.32427c1.34616,0.47822 2.63839,0.92724 3.83054,1.21401c0.27714,-0.57744 0.54571,-1.15801 0.80516,-1.7417c1.17344,-2.63986 1.94059,-5.45699 3.2282,-8.04308c0,0 1.11802,-2.23608 3.35409,-1.11806c2.23608,1.11802 1.11806,3.35409 1.11806,3.35409c-1.13885,2.26725 -1.83629,4.73083 -2.80457,7.07643c0.13606,-0.03513 0.27326,-0.06999 0.41183,-0.10415l3.67048,-2.23403c0,0 2.14373,-1.28624 3.42997,0.8575c1.28624,2.14373 -0.8575,3.42997 -0.8575,3.42997l-4.32952,2.56596c-2.01035,0.50717 -3.44483,0.99572 -5.06861,1.14872c-0.31452,0.58488 -0.63652,1.16657 -0.96553,1.74506c0.6772,0.16878 1.353,0.34826 2.03415,0.48683l2.83002,1.82959c0,0 2.08011,1.38677 0.69334,3.46688zM201.77076,150.06679c-1.0029,-0.34326 -2.10142,-0.7948 -3.23097,-1.2344c-0.48856,1.1953 -0.99637,2.38912 -1.53508,3.58246c1.20675,-0.19961 2.41718,-0.34864 3.63277,-0.41434c0.38676,-0.64034 0.7648,-1.28492 1.13328,-1.93371z" fill="#696969" stroke="none" stroke-width="0.5"></path>
      <path d="M379.17173,97.70945c0.79055,2.37171 -1.58116,3.16227 -1.58116,3.16227l-2.45659,0.81884c-4.37156,1.42822 -5.75265,2.42991 -10.28723,1.74754c-0.73544,1.13812 -1.47787,2.2707 -2.23234,3.39452l2.39882,-1.61274c0,0 2.08011,-1.38677 3.46688,0.69334c1.38677,2.08011 -0.69334,3.46688 -0.69334,3.46688l-2.20176,1.45325c-1.16078,0.97186 -1.9781,2.74473 -3.48234,2.91559c-1.43628,0.16314 -2.67989,-0.19421 -3.82627,-0.79589c-2.15921,2.85824 -4.46771,5.61316 -7.01866,8.20476l-2.28223,2.30225c0,0 -1.76003,1.77547 -3.5355,0.01543c-1.77547,-1.76003 -0.01543,-3.5355 -0.01543,-3.5355l0.51429,-0.5188c-0.58504,0.10624 -1.28969,-0.0069 -2.02058,-0.67138c-1.84981,-1.68173 -0.16808,-3.53154 -0.16808,-3.53154l1.52833,-1.67762c1.44919,-1.73778 2.94997,-3.53205 4.43831,-5.38142c-0.21051,-0.00445 -0.42504,0.00376 -0.64403,0.02586c-1.41742,0.14303 -3.36286,2.52436 -4.10497,3.28267c0,0 -1.76774,1.76779 -3.53553,0.00004c-1.76779,-1.76774 -0.00004,-3.53553 -0.00004,-3.53553c3.74298,-3.67992 5.95995,-5.24404 11.26674,-3.83257c0.04835,0.01286 0.09655,0.02613 0.1446,0.03981c0.84771,-1.13554 1.67533,-2.28989 2.46976,-3.46274c-2.12909,-0.38735 -4.28601,-0.17684 -6.72654,1.50335c0,0 -2.08011,1.38677 -3.46688,-0.69334c-1.38677,-2.08011 0.69334,-3.46688 0.69334,-3.46688c4.19342,-2.72905 8.03417,-3.04629 12.42326,-2.04975c1.81378,-3.23332 3.27428,-6.59389 4.13813,-10.07647c0,0 0.60633,-2.42536 3.03169,-1.81903c2.42536,0.60633 1.81903,3.03169 1.81903,3.03169c-0.6705,2.66331 -1.64309,5.25208 -2.83398,7.76857c1.55221,-2.46751 3.1106,-4.93359 4.72853,-7.36168c0,0 1.38677,-2.08011 3.46688,-0.69333c2.08011,1.38677 0.69333,3.46688 0.69333,3.46688c-1.83858,2.75631 -3.60443,5.55337 -5.36998,8.34453c1.8874,-0.14424 3.37778,-0.91149 5.64269,-1.68417l2.45661,-0.81885c0,0 2.37171,-0.79055 3.16227,1.58116zM361.27216,108.80218c0.41021,-0.17114 0.60432,-0.6894 0.81253,-1.18501c-0.26911,0.39625 -0.53988,0.7913 -0.81253,1.18501z" fill="#696969" stroke="none" stroke-width="0.5"></path>
      <text transform="translate(113.43151,278.13338) rotate(6.95952) scale(0.5,0.5)" font-size="40" xml:space="preserve" fill="#696969" stroke="#696969" stroke-width="2" font-family="&quot;JetBrains Mono&quot;, Sans Serif" font-weight="normal" text-anchor="start">
        <tspan x="0" dy="0">song by fmax</tspan>
      </text>
    </g>
  </g>
</svg>
