<?xml version="1.0" encoding="UTF-8"?>
<svg xmlns="http://www.w3.org/2000/svg" xmlns:xlink="http://www.w3.org/1999/xlink" version="1.1" width="130.75745" height="132.43929" viewBox="0,0,130.75745,132.43929">
  <g transform="translate(-174.62128,-113.78036)">
    <g stroke="none" stroke-miterlimit="10">
      <path d="M250.71396,200.52414c-2.5,0 -2.5,-2.5 -2.5,-2.5l0.05953,0.14231c-0.26666,-1.2 -0.53333,-2.39999 -0.79999,-3.59999c0,0 -0.31655,-1.42448 0.62234,-2.33868c-0.17945,-0.20585 -0.35484,-0.41646 -0.52602,-0.63194c-2.29816,-2.89287 -2.31911,-5.97233 -2.54955,-9.39447c-0.29848,-4.43268 -0.6954,-8.71349 -0.78692,-13.14268c-0.89388,0.23593 -1.79626,0.46717 -2.06611,1.24841c-0.20781,0.60161 0.26203,1.25814 0.24045,1.89425c-0.06104,1.79925 0.02018,3.60062 0.00619,5.40084c-0.01636,2.10594 -0.61091,4.94048 -1.36998,6.92823c-0.40234,1.0536 -0.86117,2.04833 -1.37197,2.98638c0.34205,0.64351 0.34205,1.30731 0.34205,1.30731c-0.01359,2.253 -0.36325,4.51073 -0.89972,6.69897l-0.82858,2.4916c0,0 -0.79056,2.37171 -3.16227,1.58116c-2.37171,-0.79056 -1.58116,-3.16227 -1.58116,-3.16227l0.7714,-2.30842c0.00644,-0.02512 0.01284,-0.05026 0.0192,-0.07542c-0.7288,0.61193 -1.49353,1.17785 -2.29027,1.69968c0.05594,0.90483 -0.44849,1.66147 -0.44849,1.66147c-1.2288,1.80903 -4.10558,6.80215 -1.30049,8.80907c0.43676,0.31249 0.9255,0.14526 1.42324,-0.18831c-0.03237,-0.07509 -0.06587,-0.1494 -0.10074,-0.22273c0,0 -0.98479,-2.29787 1.31308,-3.28266c1.37379,-0.58876 2.27825,-0.0042 2.78352,0.56117c0.58576,-0.07315 1.2774,0.07728 1.96903,0.76892c1.05466,1.05466 0.85089,2.10932 0.51486,2.78859c2.36135,1.81555 5.94477,1.60463 8.36269,-0.68864l0.55089,-2.21898c0,0 0.68682,-2.4038 3.09063,-1.71698c1.33508,0.38146 1.71679,1.29257 1.7923,2.02731c0.75184,0.23367 1.15493,0.76189 1.37105,1.26112c1.67342,0.43412 3.887,0.63667 4.05611,-1.46187c0.06548,-0.81258 -2.03032,-2.41378 -2.07407,-2.45501c0,0 -1.76777,-1.76777 0,-3.53553c0.09552,-0.09552 0.19105,-0.18072 0.28629,-0.25644c-0.92039,-0.40612 -1.81206,-0.86003 -2.66669,-1.367c0.06288,0.28296 0.12576,0.56592 0.18864,0.84888l0.05953,0.94233c0,0 0,2.5 -2.5,2.5zM261.24057,200.30979c2.30372,4.14554 0.33981,8.64069 -4.20216,10.10706c-2.58964,0.83607 -4.40485,-0.07914 -6.71502,-0.82101l-0.1808,-0.33545c-1.52507,1.65058 -2.74784,3.09627 -5.25425,3.59687c-3.14552,0.62824 -7.88225,-0.5876 -10.69666,-2.73446c-0.51511,0.32222 -1.04727,0.59766 -1.63604,0.71758c-4.85451,0.98881 -7.93512,-2.35264 -8.33158,-6.99174c-0.14627,-1.71155 0.19426,-3.30799 0.79258,-4.81489c-2.17136,0.69082 -4.45732,1.17398 -6.80958,1.47313c-8.57008,0.90869 -19.33077,-1.67747 -23.00278,-10.32605c-2.12117,-4.99592 -4.68888,-9.76165 -7.12638,-14.63867c-0.5441,-1.08866 -1.12727,-2.15866 -1.63189,-3.26617c-0.44692,-0.98088 -0.2135,-3.19644 -1.26833,-2.9746c-0.58614,0.12327 -0.98595,0.6804 -1.47893,1.02059c0,0 -0.58714,0.25163 -1.29503,0.20371c-0.23141,1.12016 -0.39801,2.27447 -0.38977,3.54841c-0.0181,2.01922 -0.53732,4.00281 -0.83227,6.00046c-0.61031,4.13353 0.52149,8.54489 0.01355,12.70499c-0.13065,1.07005 -0.34387,2.13466 -0.51461,3.20175c0.16099,0.63508 0.33358,1.26063 0.52348,1.85881c0.45884,0.40447 0.99974,1.1141 0.82552,2.1289c0.98878,2.08499 2.407,3.98787 3.0807,6.19276c1.15368,3.77579 2.04658,7.12628 3.8162,10.74848c1.36353,2.79099 4.1795,4.45671 6.12083,6.77891c3.7961,4.54087 7.67471,8.9042 12.7832,12.122c1.67176,1.05302 3.67328,1.469 5.4401,2.35328c3.08382,1.03405 6.59253,1.76642 9.79806,2.23496c3.3314,0.48693 6.9371,-0.34353 10.29163,-0.01313c3.3324,0.32822 3.63556,1.21536 6.64812,0.80661c3.48189,-0.47243 6.91468,-1.17449 10.40005,-1.60004c2.08619,-0.25472 4.22493,0.31402 6.30502,0.01355c2.92119,-0.42197 5.87106,-1.9778 8.8,-2.39996c0.99843,-0.14391 2.04668,0.27628 3.02606,0.0346c3.4597,-0.85373 6.42848,-3.46826 9.81408,-4.58137c3.28948,-2.51346 7.90895,-5.15997 10.23366,-8.69985c1.54515,-2.35283 2.43361,-5.64411 4.00001,-8.00001c0.60927,-0.91636 1.79404,-1.36844 2.35115,-2.31741c0.46046,-0.78434 0.33638,-1.78962 0.57518,-2.66722c0.68595,-2.52087 2.0046,-4.98791 2.319,-7.60649c0.13093,-1.09052 -0.14178,-2.20772 0.01355,-3.29504c0.71312,-4.9917 1.81326,-10.04645 2.38647,-15.10496c0.39297,-3.46794 -0.01873,-7.40508 -0.01873,-10.89456c0,-4.41387 -0.22629,-9.25144 -1.02975,-13.95251c-0.04517,0.00252 -0.07027,0.00252 -0.07027,0.00252l0.06694,-0.02199c-0.00334,-0.01948 -0.00668,-0.03895 -0.01004,-0.05843c-0.42529,0.04282 -0.86729,0.04438 -1.21889,0.26906c-0.86259,0.55121 0.04734,3.02554 0.05572,3.13413c0.31121,4.03103 0.34183,8.68314 -0.44036,12.65782c-1.51207,7.68347 -4.17215,17.70355 -11.56842,22.06392c-3.0249,1.78329 -6.50779,2.26679 -9.90772,2.7492c-4.84251,0.01023 -10.47949,-0.29098 -15.70124,-1.67302c0.32924,0.32122 0.62824,0.66478 0.85063,1.06497zM290.80768,159.40135c-0.20197,2.83817 -1.20564,5.78462 -1.19372,8.62278c0.03768,8.9734 0.0099,19.59873 -9.40163,24.24579c-2.18352,1.07814 -3.7485,1.1061 -6.12113,1.44792c-5.32305,0 -14.36037,-0.71502 -18.39335,-4.77567c-2.13371,-2.14835 -2.65628,-6.15976 -3.05877,-8.96449c-0.77199,-5.37963 -0.00802,-9.84357 0.79906,-15.10031c0.44743,-2.91429 -1.02079,-5.67099 -0.35728,-8.62763c0.01182,-0.05269 0.02478,-0.10499 0.03877,-0.15693l-0.2379,0.49908c-1.86258,1.83669 -3.16722,3.52342 -5.92608,4.24849c-5.57359,1.46483 -9.5397,-2.7136 -14.36116,-3.97091l0.19436,0.80112c0.86251,6.03764 1.62513,11.84617 1.62513,17.95354c0,5.47098 -0.15745,10.81715 -5.03822,14.42811c-1.59853,1.18265 -3.6265,1.72393 -5.47123,2.34361c-6.00136,2.00043 -15.50028,4.08832 -20.84506,-0.89752c-2.88469,-2.69096 -2.09487,-5.31515 -3.45518,-8.51748c-1.71785,-4.04402 -4.24324,-7.14726 -6.28635,-10.96201c-1.39835,-2.6109 -1.86187,-5.96236 -2.27882,-8.84117c0,0 -0.063,-0.44101 0.05035,-0.9773c-0.07548,-0.33384 -0.07548,-0.57624 -0.07548,-0.57624l0.02513,-0.75354c0.0349,-0.24431 0.0698,-0.48863 0.1047,-0.73294c-1.1547,0.42796 -2.29011,0.95274 -3.40236,1.59454l-1.65971,1.65971l-1.33922,1.02693c0.36331,-0.09299 0.7315,-0.12928 1.10776,-0.07198c1.47065,0.22397 2.66988,1.44712 3.65321,2.56338c0.78912,0.89581 0.96505,2.18425 1.47843,3.26204c1.27029,2.66681 2.64743,5.29123 3.96812,7.93383c1.30197,2.60513 2.94703,5.07369 4.07363,7.76131c0.86133,2.05479 1.22672,4.33135 2.97977,5.91397c3.82937,3.45707 10.77096,4.3281 15.61745,3.76c8.33914,-1.0218 15.57195,-4.60262 18.76314,-12.82355c1.39031,-3.58163 0.67836,-7.17276 1.03624,-10.87091c0.11923,-1.23209 -0.31061,-2.59733 0.24045,-3.70575c0.9578,-1.92656 3.75684,-3.05339 5.53522,-3.9531l3.1086,0.26435c0,0 0.24798,0.08266 0.55684,0.2747c2.3526,0.09629 2.3526,2.49702 2.3526,2.49702c0,4.97944 0.46839,9.69305 0.79373,14.62277c0.15151,2.29577 -0.14443,4.6353 1.45045,6.60553c5.46961,6.75686 16.43107,7.45916 24.27861,7.47798c2.60813,-0.37572 5.35732,-0.71055 7.69226,-2.05079c2.54038,-1.45816 4.16109,-4.58085 5.48075,-7.03513c2.3512,-4.37273 3.7644,-9.18388 4.1105,-14.1976c0.32616,-4.72481 -2.06816,-12.46227 1.6557,-16.1114c0.8313,-0.81462 2.16495,-0.85538 3.24742,-1.28307l0.18261,-0.01968c-0.37455,-1.35551 -0.81168,-2.68121 -1.32076,-3.96215c-0.27849,0.05353 -0.47126,0.05353 -0.47126,0.05353l-1.20943,-0.12829c-1.44102,0.47448 -2.85521,0.79899 -4.27072,1.03316c0.04554,2.38803 0.14124,4.82009 -0.02615,7.17237zM258.95004,155.54215c-1.82834,3.38412 -0.06155,6.32089 -0.56023,10.02874c-0.6481,4.81889 -1.50385,8.7541 -0.80098,13.69967c0.22758,1.60135 0.44241,4.95404 1.74128,6.23553c1.68113,1.65863 4.69301,1.60833 6.75825,2.08492c2.7938,0.64472 4.71508,1.13941 7.64839,1.13941c1.44034,-0.20346 2.94638,-0.27371 4.27884,-0.95208c7.36091,-3.74754 6.57258,-12.83843 6.59837,-19.75421c0.01111,-2.98025 0.99307,-6.0045 1.2063,-8.97722c0.14746,-2.05581 0.07734,-4.17898 0.02795,-6.27397c-0.71693,0.05152 -1.44211,0.09793 -2.17889,0.14635c-5.87048,0.38581 -11.70994,1.21258 -17.57812,1.59855c-2.44268,0.16066 -4.66518,0.11462 -6.91331,0.30184c-0.08077,0.42829 -0.22786,0.72247 -0.22786,0.72247zM195.98886,161.57768l0.02513,0.04645c0,0 0,0.25255 -0.08027,0.59712c0.04132,0.15255 0.05515,0.24933 0.05515,0.24933c0.31453,2.23668 0.59227,5.13748 1.72118,7.15883c1.2283,2.19932 3.19447,4.18204 4.4,6.40001c1.16667,2.14649 2.4813,5.43322 3.03706,7.82033c0.37275,1.60108 -0.15277,2.75605 1.22138,3.90017c4.17556,3.47659 11.5139,1.38282 15.95493,-0.0975c2.07302,-0.68485 4.22106,-1.19171 5.56247,-3.09006c1.93556,-2.73918 1.52811,-5.79013 1.52811,-8.93824c0,-5.87055 -0.74546,-11.4404 -1.57488,-17.24644l-0.35048,-1.34723c0,0 -0.0818,-0.32721 -0.06513,-0.7713c-2.4422,0.28585 -4.96904,0.44672 -7.33513,0.99809c-1.90676,0.44433 -3.77757,1.24923 -5.73534,1.26658c-6.01425,0.05332 -12.14983,-0.61346 -17.96853,0.28438c-0.13188,0.92316 -0.26376,1.84632 -0.39563,2.76947zM268.75095,139.01056c0.34741,-0.18291 0.74312,-0.28642 1.16302,-0.28642c0.16629,0 0.3288,0.01624 0.48601,0.04721c0.76256,-0.89106 1.45847,-1.9583 2.55728,-2.25692c4.53509,-1.23248 6.38293,-0.18481 7.1545,3.25949l0.15194,-0.0171l-0.02756,-0.0735l3.14606,-1.17978c0.28795,-0.11573 0.60242,-0.17941 0.93176,-0.17941c0.0805,0 0.1601,0.0038 0.23865,0.01124c0.05945,-0.0767 0.11767,-0.15296 0.17458,-0.22873c0.10756,-0.1432 0.71993,-1.2509 1.36536,-2.43067c-1.10904,-0.6999 -2.35626,-1.23007 -3.36358,-2.06849c-4.06963,-3.38732 -7.09817,-7.9165 -11.5134,-10.88758c-3.75092,-1.25031 -6.22764,-3.30796 -10.34793,-3.75796c-3.82394,-0.41763 -7.39961,0.80056 -11.10901,0.80735c-0.79379,0.00145 -1.4509,-0.79005 -2.24467,-0.79519c-0.71393,-0.00462 -1.29274,0.66677 -1.9995,0.76773c-4.44634,0.63521 -9.17195,-0.6538 -13.60005,0c-0.83422,0.12317 -1.56514,0.681 -2.39996,0.79999c-7.07946,1.009 -14.18848,0.77186 -21.04378,3.04199c-5.624,2.82502 -10.91091,5.54719 -15.02335,10.47525c-1.76268,2.11227 -2.49904,4.35624 -3.68757,6.71341c-0.15718,0.31174 -0.32112,0.61911 -0.48995,0.9232c0.14512,0.05736 0.29079,0.11836 0.43677,0.18266c0.65317,-0.04516 1.24764,0.0971 1.71555,0.55191c0.20135,0.19571 0.36763,0.4106 0.50374,0.64141c1.35414,0.84619 2.62376,1.83617 3.59953,2.68446c0.01652,-0.07506 0.03394,-0.14898 0.05221,-0.2216c0.18441,-0.73302 0.77679,-1.5705 1.61353,-2.37079c0.94807,-3.55809 2.97908,-6.4221 7.65592,-5.98213c2.5361,0.23858 5.56416,4.46906 7.42696,6.7533c0.02034,-0.01347 0.04074,-0.02689 0.06119,-0.04026c0.91395,-3.31634 3.78341,-5.63534 8.00086,-5.13464c3.82172,0.45372 3.09049,1.84476 5.26738,3.82136c1.3898,1.26193 3.25553,1.90502 4.6955,3.10939c0.4272,0.3573 0.79908,0.68965 1.13456,1.00986l1.04824,0.35573c0,0 0.69143,0.69143 0.77702,1.64187c0.43226,0.53009 0.87438,1.09985 1.40738,1.76417c0,0 0.52395,0.65493 0.58554,1.50958c0.41895,0.15425 0.87573,0.35745 1.39675,0.62436c2.51367,1.28772 5.74924,4.30926 9.02388,3.41155c0.47035,-0.12894 0.92058,-0.38138 1.34711,-0.69709c-0.00255,-0.44684 0.09076,-0.77345 0.09076,-0.77345c0.96604,-3.33802 2.19107,-6.74897 4.56107,-9.40268c1.31128,-1.46826 3.10613,-2.42597 4.55689,-3.75658c1.12693,-1.03359 5.08439,-5.41389 6.2395,-5.44178c3.51462,-0.08489 4.91267,1.47395 5.20749,3.61218zM177.48813,153.82851c-0.34898,-1.65954 0.0787,-3.40345 0.37035,-5.07402c0.59018,-3.38055 2.68263,-6.12232 5.76056,-7.17167c0.57204,-0.98054 1.1369,-1.97273 1.64913,-3.00705c1.33004,-2.68569 2.32279,-5.29618 4.31243,-7.68661c4.6514,-5.58838 10.59336,-8.74642 16.97665,-11.92471c7.28141,-2.44001 14.65414,-2.28369 22.15629,-3.35803c0.83475,-0.11954 1.5647,-0.68414 2.39996,-0.79999c4.45164,-0.61745 9.16557,0.63351 13.60002,0c0.96404,-0.13772 1.82661,-0.82731 2.80042,-0.8323c0.89303,-0.00458 1.66234,0.80308 2.55538,0.80485c1.22819,0.00243 2.37653,-0.66733 3.59831,-0.79268c2.55085,-0.26171 5.14461,-0.28718 7.69271,0c4.77103,0.5377 7.74551,2.80655 12.05198,4.24204c4.83087,3.20054 8.08147,7.83636 12.4866,11.51245c0.68561,0.57214 1.98913,1.31116 3.12741,2.0193c4.25473,-2.36505 9.31933,0.44844 9.38749,5.89122c0.00138,0.10997 -0.70658,2.0337 -1.43157,3.97506c1.16048,1.61081 2.33375,3.25778 3.17752,4.94939c4.09587,8.21145 5.0542,18.57208 5.0542,27.49838c0,3.70824 0.38291,7.82349 -0.01873,11.50547c-0.55833,5.11835 -1.69169,10.24226 -2.41358,15.29501c-0.67026,4.69144 -1.07426,10.905 -3.49217,15.23129c-0.56709,1.01467 -1.80289,1.51624 -2.4489,2.48258c-1.55733,2.32954 -2.4251,5.66464 -3.99999,7.99999c-2.91404,4.32113 -8.07084,7.47519 -12.16636,10.5001c-3.77547,1.27501 -7.08796,4.03361 -10.98584,5.01873c-1.09043,0.27559 -2.26035,-0.12302 -3.37397,0.0346c-2.91992,0.41329 -5.87235,1.98545 -8.79998,2.39996c-2.14363,0.30351 -4.34759,-0.26173 -6.49503,0.01355c-3.47642,0.44564 -6.92082,1.19635 -10.4,1.60003c-2.58012,0.29937 -5.16766,-0.5309 -7.75178,-0.79348c-3.4508,-0.35065 -7.06817,0.46871 -10.50842,-0.01313c-3.62234,-0.50735 -7.51734,-1.40848 -11.00199,-2.56497c-1.93656,-0.96742 -4.11201,-1.45805 -5.95117,-2.59983c-5.66147,-3.51472 -10.04611,-8.29234 -14.22543,-13.32492c-2.21398,-2.666 -5.0551,-4.43403 -6.67922,-7.62111c-1.96106,-3.84828 -2.98904,-7.58675 -4.1838,-11.65148c-0.64286,-2.18709 -2.1953,-4.00426 -3.08993,-6.10099c-0.17026,-0.39903 -0.33009,-0.81917 -0.48118,-1.25467l-1.33251,-1.3567c0.00474,-0.88693 0.08835,-1.76899 0.20546,-2.64889c-0.32948,-1.36985 -0.62647,-2.73024 -0.9308,-3.94479c0,0 -0.5856,-2.34243 1.69624,-2.99872c-0.02691,-3.33063 -0.5927,-6.73432 -0.13863,-10.00806c0.2407,-1.73536 0.78791,-3.4477 0.76771,-5.19956c0.01923,-3.59965 1.23601,-6.42628 1.61877,-9.90548c0.27796,-2.52657 0.29043,-5.03603 0.37978,-7.53888c-0.72545,-0.81726 -1.3002,-1.73513 -1.52439,-2.80125z" fill="#000000" stroke-width="0.5"></path>
      <path d="M290.75964,159.41515c0.16739,-2.35228 0.07385,-4.7783 0.02831,-7.16633c1.41551,-0.23417 2.92176,-0.59773 4.36278,-1.07221l1.20962,0.12875c0,0 0.19281,0.0001 0.4713,-0.05343c0.50908,1.28094 0.9474,2.60993 1.32195,3.96544l-0.27775,0.05048c-1.08247,0.42769 -2.32093,0.43781 -3.15223,1.25243c-3.72386,3.64913 -1.32717,11.40093 -1.65333,16.12574c-0.3461,5.01372 -1.76114,9.83923 -4.11234,14.21196c-1.31966,2.45428 -2.94351,5.58527 -5.48389,7.04343c-2.33494,1.34024 -5.08726,1.6806 -7.69539,2.05632c-7.84754,-0.01882 -18.82294,-0.70696 -24.29255,-7.46382c-1.59488,-1.97023 -1.36286,-4.38595 -1.51437,-6.68172c-0.32534,-4.92972 -0.79653,-9.57705 -0.79653,-14.55649c0,0 0.01258,-2.38971 -2.34002,-2.486c-0.30886,-0.19204 -0.55425,-0.27321 -0.55425,-0.27321l-3.09428,-0.25929c-1.77838,0.89971 -4.53962,2.01848 -5.49742,3.94504c-0.55106,1.10842 -0.10377,2.45228 -0.223,3.68437c-0.35788,3.69815 0.284,7.31338 -1.10631,10.89501c-3.19119,8.22093 -10.43662,11.79187 -18.77576,12.81367c-4.84649,0.5681 -11.79673,-0.31587 -15.6261,-3.77294c-1.75305,-1.58262 -2.12107,-3.86622 -2.9824,-5.92101c-1.1266,-2.68762 -2.7734,-5.16525 -4.07537,-7.77038c-1.32069,-2.6426 -2.69795,-5.27524 -3.96824,-7.94205c-0.51338,-1.07779 -0.68902,-2.36923 -1.47814,-3.26504c-0.98333,-1.11626 -2.18229,-2.34124 -3.65294,-2.56521c-0.37626,-0.0573 -0.74449,-0.02079 -1.1078,0.0722l1.33941,-1.028l1.66006,-1.66143c1.11225,-0.6418 2.24818,-1.16872 3.40288,-1.59668c-0.0349,0.24431 0.02699,0.51374 -0.00791,0.75805l-0.02496,0.75285c0,0 0.00012,0.24189 0.0756,0.57573c-0.11335,0.53629 -0.05015,0.97638 -0.05015,0.97638c0.41695,2.87881 0.88147,6.22178 2.27982,8.83268c2.04311,3.81475 4.5673,6.9054 6.28515,10.94942c1.36031,3.20233 0.56701,5.81633 3.4517,8.50729c5.34478,4.98584 14.83246,2.88252 20.83382,0.88209c1.84473,-0.61968 3.86814,-1.16472 5.46667,-2.34737c4.88077,-3.61096 4.96075,-8.90266 4.96075,-14.37364c0,-6.10737 -0.73852,-11.97394 -1.60103,-18.01158l-0.19387,-0.80138c4.82146,1.25731 8.83088,5.43408 14.40447,3.96925c2.75886,-0.72507 4.07154,-2.40739 5.93412,-4.24408l0.18211,-0.41609c-0.01399,0.05194 0.02879,0.02122 0.01697,0.07391c-0.66351,2.95664 0.81731,5.72552 0.36988,8.63981c-0.80708,5.25674 -1.56817,9.7748 -0.79618,15.15443c0.40249,2.80473 0.84764,6.75467 2.98135,8.90302c4.03298,4.06065 13.06176,4.78606 18.38481,4.78606c2.37263,-0.34182 3.93513,-0.36525 6.11865,-1.44339c9.41153,-4.64706 9.43467,-15.24496 9.39699,-24.21836c-0.01192,-2.83816 0.99336,-5.77654 1.19533,-8.61471z" fill="#292f33" stroke-width="0.25"></path>
      <path d="M250.68769,200.48158c2.5,0 2.49022,-2.49211 2.49022,-2.49211l-0.06117,-0.94054c-0.06288,-0.28296 -0.12709,-0.56433 -0.18997,-0.84729c0.85463,0.50697 1.74511,0.96243 2.6655,1.36855c-0.09524,0.07572 -0.11109,0.22133 -0.20661,0.31685c-1.76777,1.76776 -0.00533,3.54137 -0.00533,3.54137c0.04375,0.04123 2.13927,1.64269 2.07379,2.45527c-0.16911,2.09854 -2.39083,1.90208 -4.06425,1.46796c-0.21612,-0.49923 -0.62049,-1.02671 -1.37233,-1.26038c-0.07551,-0.73474 -0.45888,-1.64496 -1.79396,-2.02642c-2.40381,-0.68682 -3.10119,1.72095 -3.10119,1.72095l-0.55384,2.21963c-2.41792,2.29327 -6.02402,2.50322 -8.38537,0.68767c0.33603,-0.67927 0.53618,-1.73509 -0.51848,-2.78975c-0.69163,-0.69164 -1.38916,-0.84465 -1.97492,-0.7715c-0.50527,-0.56537 -1.4164,-1.15407 -2.79019,-0.56531c-2.29787,0.98479 -1.25561,3.20085 -1.25561,3.20085c0.03487,0.07333 0.01304,0.23094 0.04541,0.30603c-0.49774,0.33357 -0.98851,0.49939 -1.42527,0.1869c-2.80509,-2.00692 0.06151,-7.00999 1.29031,-8.81902c0,0 0.50217,-0.75983 0.44623,-1.66466c0.79674,-0.52183 1.56102,-1.08846 2.28982,-1.70039c-0.00636,0.02516 0.07187,-0.00298 0.06543,0.02214l-0.77499,2.30345c0,0 -0.7997,2.36305 1.57201,3.15361c2.37171,0.79055 3.15586,-1.58514 3.15586,-1.58514l0.78016,-2.40414c0.53647,-2.18824 0.86176,-4.4835 0.87535,-6.7365c0,0 0.00133,-0.68207 -0.34072,-1.32558c0.5108,-0.93805 0.9934,-1.96362 1.39574,-3.01722c0.75907,-1.98775 1.37431,-4.8286 1.39067,-6.93454c0.01399,-1.80022 -0.06596,-3.60167 -0.00492,-5.40092c0.02158,-0.63611 -0.44865,-1.29262 -0.24084,-1.89423c0.26985,-0.78124 1.17774,-1.01251 2.07162,-1.24844c0.09152,4.42919 0.49946,8.7118 0.79794,13.14448c0.23044,3.42214 0.27829,6.57917 2.57645,9.47204c0.17118,0.21548 0.34558,0.4274 0.52503,0.63325c-0.93889,0.9142 -0.63339,2.3491 -0.63339,2.3491c0.26666,1.2 0.52788,2.40326 0.79454,3.60326l-0.05948,-0.14234c0,0 -0.04926,2.41305 2.45074,2.41305z" fill="#ff924c" stroke-width="0.25"></path>
      <path d="M258.91803,155.50373c0,0 0.14832,-0.29517 0.22909,-0.72346c2.24813,-0.18722 4.48529,-0.1491 6.92797,-0.30976c5.86818,-0.38597 11.75175,-1.20683 17.62223,-1.59264c0.73678,-0.04842 1.46499,-0.09261 2.18192,-0.14413c0.04939,2.09499 0.12706,4.22557 -0.0204,6.28138c-0.21323,2.97272 -1.18484,6.0185 -1.19595,8.99875c-0.02579,6.91578 0.73119,16.06374 -6.62972,19.81128c-1.33246,0.67837 -2.85023,0.75147 -4.29057,0.95493c-2.93331,0 -4.87604,-0.49684 -7.66984,-1.14156c-2.06524,-0.47659 -5.09352,-0.43537 -6.77465,-2.094c-1.29887,-1.28149 -1.52444,-4.64665 -1.75202,-6.248c-0.70287,-4.94557 0.14906,-8.92497 0.79716,-13.74386c0.49868,-3.70785 -1.25355,-6.66481 0.57479,-10.04893z" fill="#ffce66" stroke-width="0.25"></path>
      <path d="M195.94755,161.54952c0.13187,-0.92315 0.26731,-1.85093 0.39919,-2.77409c5.8187,-0.89784 11.99777,-0.24797 18.01202,-0.30129c1.95777,-0.01735 3.84418,-0.81781 5.75094,-1.26214c2.36609,-0.55137 4.9047,-0.7045 7.3469,-0.99035c-0.01667,0.44409 0.06608,0.77216 0.06608,0.77216l0.35247,1.34919c0.82942,5.80604 1.58822,11.41845 1.58822,17.289c0,3.14811 0.3978,6.22153 -1.53776,8.96071c-1.34141,1.89835 -3.50178,2.41667 -5.5748,3.10152c-4.44103,1.48032 -11.82642,3.57825 -16.00198,0.10166c-1.37415,-1.14412 -0.85744,-2.30396 -1.23019,-3.90504c-0.55576,-2.38711 -1.88994,-5.70099 -3.05661,-7.84748c-1.20553,-2.21797 -3.1725,-4.22548 -4.4008,-6.4248c-1.12891,-2.02135 -1.40019,-4.9379 -1.71472,-7.17458c0,0 -0.01359,-0.09717 -0.05491,-0.24972c0.08027,-0.34457 0.08102,-0.59825 0.08102,-0.59825l-0.0251,-0.0465z" fill="#ffce66" stroke-width="0.25"></path>
      <path d="M261.19057,200.31066c-0.22239,-0.40019 -0.42153,-0.74821 -0.75077,-1.06943c5.22175,1.38204 10.75886,1.68649 15.60137,1.67626c3.39993,-0.48241 6.88289,-0.96281 9.90779,-2.7461c7.39627,-4.36037 10.06035,-14.36342 11.57242,-22.04689c0.78219,-3.97468 0.75553,-8.61939 0.44432,-12.65042c-0.00838,-0.10859 -0.91725,-2.58135 -0.05466,-3.13256c0.3516,-0.22468 0.8756,-0.28347 1.30089,-0.32629c0.00336,0.01948 0.00672,0.03898 0.01006,0.05846l-0.06695,0.02198c0,0 0.02512,0.00002 0.07029,-0.0025c0.80346,4.70107 1.03429,9.54672 1.03429,13.96059c0,3.48948 0.41439,7.43426 0.02142,10.9022c-0.57321,5.05851 -1.67171,10.12546 -2.38483,15.11716c-0.15533,1.08732 0.11733,2.20739 -0.0136,3.29791c-0.3144,2.61858 -1.63385,5.09248 -2.3198,7.61335c-0.2388,0.8776 -0.11523,1.88527 -0.57569,2.66961c-0.55711,0.94897 -1.74254,1.40354 -2.35181,2.3199c-1.5664,2.3559 -2.45784,5.6549 -4.00299,8.00773c-2.32471,3.53988 -6.951,6.19687 -10.24048,8.71033c-3.3856,1.11311 -6.36216,3.73505 -9.82186,4.58878c-0.97938,0.24168 -2.02981,-0.17693 -3.02824,-0.03302c-2.92894,0.42216 -5.88785,1.98289 -8.80904,2.40486c-2.08009,0.30047 -4.22572,-0.26598 -6.31191,-0.01126c-3.48537,0.42555 -6.9311,1.12914 -10.41299,1.60157c-3.01256,0.40875 -3.32396,-0.47918 -6.65636,-0.8074c-3.35453,-0.3304 -6.97146,0.49663 -10.30286,0.0097c-3.20553,-0.46854 -6.72352,-1.20624 -9.80734,-2.24029c-1.76682,-0.88428 -3.773,-1.3041 -5.44476,-2.35712c-5.10849,-3.2178 -8.99765,-7.59515 -12.79375,-12.13602c-1.94133,-2.3222 -4.76038,-3.99549 -6.12391,-6.78648c-1.76962,-3.6222 -2.66458,-6.98277 -3.81826,-10.75856c-0.6737,-2.20489 -2.09216,-4.1133 -3.08094,-6.19829c0.17422,-1.0148 -0.36663,-1.72621 -0.82547,-2.13068c-0.1899,-0.59818 -0.36239,-1.22525 -0.52338,-1.86033c0.17074,-1.06709 0.38424,-2.13439 0.51489,-3.20444c0.50794,-4.1601 -0.62153,-8.58126 -0.01122,-12.71479c0.29495,-1.99765 0.81589,-3.98554 0.83399,-6.00476c-0.00824,-1.27394 0.15949,-2.43058 0.3909,-3.55074c0.70789,0.04792 1.29531,-0.20424 1.29531,-0.20424c0.49298,-0.34019 0.89339,-0.89842 1.47953,-1.02169c1.05483,-0.22184 0.90918,2.04161 1.3561,3.02249c0.50462,1.10751 1.08861,2.17587 1.63271,3.26453c2.4375,4.87702 5.00883,9.63242 7.13,14.62834c3.67201,8.64858 14.43399,11.22384 23.00407,10.31515c2.35226,-0.29915 4.63795,-0.77743 6.80931,-1.46825c-0.59832,1.5069 -0.9395,3.08854 -0.79323,4.80009c0.39646,4.6391 3.45887,7.95078 8.31338,6.96197c0.58877,-0.11992 1.11793,-0.39754 1.63304,-0.71976c2.81441,2.14686 7.50646,3.35711 10.65198,2.72887c2.50641,-0.5006 3.70871,-1.93253 5.23378,-3.58311l0.18113,0.33509c2.31017,0.74187 4.11927,1.66535 6.70891,0.82928c4.54197,-1.46637 6.49894,-5.93522 4.19522,-10.08076z" fill="#ffce66" stroke-width="0.25"></path>
      <path d="M267.62526,139.54509c-0.29482,-2.13823 -1.59309,-3.6969 -5.10771,-3.61201c-1.15511,0.02789 -5.11351,4.42156 -6.24044,5.45515c-1.45076,1.33061 -3.25064,2.30204 -4.56192,3.7703c-2.37,2.65371 -3.61471,6.0845 -4.58075,9.42252c0,0 -0.09431,0.32715 -0.09176,0.77399c-0.42653,0.31571 -0.88016,0.56977 -1.35051,0.69871c-3.27464,0.89771 -6.53347,-2.11984 -9.04714,-3.40756c-0.52102,-0.26691 -0.98267,-0.47069 -1.40162,-0.62494c-0.06159,-0.85465 -0.5886,-1.51019 -0.5886,-1.51019c-0.533,-0.66432 -0.98217,-1.23628 -1.41443,-1.76637c-0.08559,-0.95044 -0.78256,-1.64447 -0.78256,-1.64447l-1.05244,-0.35829c-0.33548,-0.32021 -0.71275,-0.6568 -1.13995,-1.0141c-1.43997,-1.20437 -3.31829,-1.86524 -4.70809,-3.12717c-2.17689,-1.9766 -1.44941,-3.3834 -5.27113,-3.83712c-4.21745,-0.5007 -6.98855,1.80255 -7.9025,5.11889c-0.02045,0.01337 -0.13782,0.05121 -0.15816,0.06468c-1.8628,-2.28424 -4.89238,-6.52747 -7.42848,-6.76605c-4.67684,-0.43997 -6.60833,2.41766 -7.5564,5.97575c-0.83674,0.80029 -1.42952,1.63532 -1.61393,2.36834c-0.01827,0.07262 -0.13388,0.16547 -0.1504,0.24053c-0.97577,-0.84829 -2.24595,-1.84183 -3.60009,-2.68802c-0.13611,-0.23081 -0.30247,-0.44644 -0.50382,-0.64215c-0.46791,-0.45481 -1.06245,-0.59782 -1.71562,-0.55266c-0.14598,-0.0643 -0.29167,-0.12553 -0.43679,-0.18289c0.16883,-0.30409 0.3327,-0.61237 0.48988,-0.92411c1.18853,-2.35717 1.92493,-4.60843 3.68761,-6.7207c4.11244,-4.92806 9.40407,-7.66786 15.02807,-10.49288c6.8553,-2.27013 13.98777,-2.05652 21.06723,-3.06552c0.83482,-0.11899 1.57199,-0.67932 2.40621,-0.80249c4.4281,-0.6538 9.18929,0.63701 13.63563,0.0018c0.70676,-0.10096 1.28883,-0.77077 2.00276,-0.76615c0.79377,0.00514 1.45559,0.79948 2.24938,0.79803c3.7094,-0.00679 7.29598,-1.21489 11.11992,-0.79726c4.12029,0.45 6.60372,2.51871 10.35464,3.76902c4.41523,2.97108 7.44784,7.51612 11.51747,10.90344c1.00732,0.83842 2.25469,1.37101 3.36373,2.07091c-0.64543,1.17977 -1.25777,2.29 -1.36533,2.4332c-0.05691,0.07577 -0.11513,0.15228 -0.17458,0.22898c-0.07855,-0.00744 -0.15815,-0.01125 -0.23865,-0.01125c-0.32934,0 -0.64381,0.06389 -0.93176,0.17962l-3.14611,1.18124l0.02756,0.07358l-0.2518,0.01183c-0.77157,-3.4443 -2.5195,-4.49075 -7.05459,-3.25827c-1.09881,0.29862 -1.79474,1.3692 -2.5573,2.26026c-0.15721,-0.03097 -0.31972,-0.04725 -0.48601,-0.04725c-0.4199,0 -0.81563,0.10404 -1.16304,0.28695z" fill="#ffce66" stroke-width="0.25"></path>
      <path d="M214.92931,182.70866c-2.28453,1.01535 -3.29988,-1.26918 -3.29988,-1.26918c-1.84378,-4.23605 -2.6218,-8.09848 -2.21064,-12.7707c0.12637,-1.43606 -0.15537,-3.11524 0.71355,-4.26555c3.76707,-4.98696 6.1048,-3.04531 8.1419,1.59685c0.98132,2.23624 0.89737,5.95262 0.93746,8.52993l-0.05475,0.13842l0.04459,0.00446l-0.39724,3.9725c-0.10959,1.24972 -1.1387,2.23571 -2.40674,2.27738c-0.09243,0.63852 -0.45714,1.33652 -1.46825,1.7859z" fill="#714c19" stroke-width="0.5"></path>
      <path d="M267.03382,179.01087c-0.63752,-1.02076 -1.62429,-1.89383 -1.91257,-3.06228c-0.40926,-1.65879 -0.09228,-3.416 -0.10727,-5.12446c-0.02923,-3.33112 -0.20238,-12.47464 6.65668,-10.3097c1.55436,0.4906 1.86865,2.74049 2.31104,4.30925c0.98804,3.50372 -0.04787,8.56999 -0.80289,12.02418l-0.38477,2.69345c-0.15585,1.23096 -1.2068,2.18284 -2.48007,2.18284c-1.1769,0 -2.16387,-0.81324 -2.4296,-1.90842c-0.54288,-0.34333 -0.85055,-0.80484 -0.85055,-0.80484z" fill="#714c19" stroke-width="0.5"></path>
      <path d="M208.30674,131.5996c0.06824,0.2391 0.10723,0.51232 0.10723,0.82453c0,2.5 -2.5,2.5 -2.5,2.5l-2.97062,-3.74035c0.8675,-1.51036 2.39646,-4.58371 3.9407,-5.61034c5.73022,-3.80954 12.2156,1.47193 15.75046,5.65022c0,0 1.60046,1.92055 -0.32009,3.52101c-1.92055,1.60046 -3.52101,-0.32009 -3.52101,-0.32009c-1.42575,-1.74383 -6.26172,-6.96696 -9.04952,-4.74977c-0.63285,0.50332 -1.0627,1.19053 -1.43715,1.92478z" fill="#000000" stroke-width="0.5"></path>
      <path d="M272.2757,131.57629c-1.95217,1.56174 -3.51391,-0.39043 -3.51391,-0.39043l-1.71548,-2.15645c-0.21679,-0.65641 -0.10684,-1.54208 -0.65037,-1.96923c-0.3439,-0.27026 -0.83285,0.28593 -1.21023,0.50703c-2.12615,1.24567 -3.18611,2.59945 -4.23568,4.77495c0,0 -1.11804,2.23607 -3.3541,1.11803c-2.23607,-1.11804 -1.11803,-3.3541 -1.11803,-3.3541c1.98686,-3.87184 6.7752,-9.83783 12.15412,-7.51803c1.35794,0.58565 1.69972,2.42052 2.54958,3.63078l1.48453,1.84355c0,0 1.56174,1.95217 -0.39043,3.51391z" fill="#000000" stroke-width="0.5"></path>
      <path d="M295.2,197.14999c1.38071,0 2.5,1.11929 2.5,2.5c0,1.38071 -1.11929,2.5 -2.5,2.5c-0.29714,0 -0.58218,-0.05184 -0.84656,-0.14697c-1.20937,5.33751 -3.55893,10.03313 -7.15025,14.34269c-3.7092,5.46503 -9.20737,8.5778 -14.5979,12.17192c-4.35863,2.9061 -8.89868,5.39343 -14.14624,6.38985c-10.19144,1.93516 -21.23958,0.87184 -31.53186,0.8276c-5.1541,-1.12548 -10.91957,-2.75467 -16.21619,-5.23908c-2.62598,0.30139 -5.10625,-0.25879 -6.70855,-2.54276c-0.46822,-0.66742 -0.77249,-1.34231 -0.94276,-2.01546c-2.7018,-2.0622 -5.03907,-4.49308 -6.78248,-7.36727c-3.52873,-5.81749 -5.33485,-12.81659 -9.11338,-18.49637c-0.36265,0.28096 -0.86579,0.47586 -1.56382,0.47586c-2.5,0 -2.5,-2.5 -2.5,-2.5l0.54782,-3.56172c1.36226,-1.59766 3.19175,-2.88344 5.16162,-3.60999c0,0 2.37171,-0.79056 3.16227,1.58115c0.79056,2.37171 -1.58115,3.16227 -1.58115,3.16227c-0.07648,0.0208 -0.15266,0.04369 -0.22845,0.06858c4.49873,6.13012 6.5076,13.72974 10.36068,20.23922c0.91341,1.54315 2.40213,2.93501 3.88091,4.14266c0.27417,-0.42714 0.57167,-0.83777 0.88031,-1.22813c3.69224,-4.66978 10.55181,-5.69851 15.59794,-8.23011c0,0 0.80509,-0.40255 1.69064,-0.24148c1.05188,-0.24409 2.01413,0.3974 2.01413,0.3974c8.27773,5.56571 19.39955,6.58554 28.96502,4.82066c3.19516,-0.58953 5.96911,-2.28755 8.9668,-3.30571c1.06502,-0.68463 2.39351,-1.01983 3.70667,-1.00912c1.19058,-0.39423 2.4164,-0.79464 3.23657,-0.05377c0.1116,0.10081 0.21469,0.20572 0.30973,0.31438c0.6943,0.08629 1.21525,0.43358 1.21525,0.43358l2.0493,1.76208c1.30324,2.61446 2.53089,4.67325 2.42314,7.00567c2.9674,-2.05595 5.76373,-4.35813 7.73759,-7.38336c3.66508,-4.39809 5.94467,-9.13766 6.72834,-14.8578l-0.02513,-0.04647c0,0 0,-2.5 2.5,-2.5c0.0747,0 0.14717,0.00223 0.21747,0.00656c0.06027,-0.00435 0.12114,-0.00656 0.18252,-0.00656c0.90999,0 1.70642,0.48619 2.1437,1.21297c0.08426,-0.00858 0.16977,-0.01298 0.2563,-0.01298zM260.33264,229.3053c1.36491,-0.49599 2.67169,-1.05787 3.93866,-1.67316c-1.80025,-0.7149 -3.51452,-1.74544 -5.05093,-2.57796c-0.30169,-0.16348 -0.64727,-0.30391 -0.99436,-0.45595c-0.22832,0.48053 -0.52868,0.99747 -0.90871,1.55183c-0.00873,0.05702 -0.01934,0.11386 -0.03197,0.1705c-0.28469,1.27568 -0.55616,2.71109 -1.22867,3.82761c1.42548,-0.1062 2.84054,-0.32125 4.27598,-0.84287zM229.81387,219.07863c0.05847,0.0052 0.1162,0.01153 0.17304,0.01918l0.21947,-0.09754c-0.39986,-0.13635 -0.79711,-0.2787 -1.19146,-0.42708c0.24952,0.10648 0.54034,0.26743 0.79895,0.50544zM211.99512,220.11935l0.46657,-0.46656c-0.49177,0.26701 -0.97523,0.55182 -1.44816,0.85925c-0.06128,0.03984 -0.15324,0.10316 -0.2678,0.18623c0.39997,-0.21722 0.81849,-0.40714 1.24939,-0.57892zM220.82533,216.18408c0.59408,-0.2803 1.20249,-0.52429 1.83263,-0.71336c-0.04886,-0.03023 -0.09763,-0.06058 -0.14631,-0.09105c-0.56734,0.26702 -1.14215,0.51721 -1.72134,0.75728c0.01185,0.01557 0.02353,0.03127 0.03502,0.04712zM228.4383,218.38917c0.05132,0.01031 0.17143,0.03716 0.32938,0.09006c-0.10203,-0.03917 -0.20387,-0.07874 -0.3055,-0.11873zM243.9771,228.23049c-1.07033,-0.61081 -2.82488,-1.33673 -4.17506,-2.13666c-0.69707,1.24588 -1.65993,2.4084 -2.77168,3.33958c-0.46797,0.45749 -0.96899,0.88623 -1.45696,1.32633c3.94924,-0.00196 7.88559,-0.0283 11.8469,-0.19019c-1.22278,-0.81759 -2.37993,-1.73229 -3.4432,-2.33907zM225.00179,228.04075c-0.50319,-0.86656 -0.86192,-1.81462 -1.1805,-2.76469c-0.16854,-0.50263 0.21775,-1.364 -0.27199,-1.567c-0.41398,-0.1716 -0.23752,0.91256 -0.56255,1.22108c-0.70624,0.67037 -1.61008,1.09607 -2.43075,1.62016c-0.68782,0.43925 -1.53526,0.94054 -2.48524,1.43664c2.8271,1.07665 5.7722,1.93346 8.85754,2.65281c-0.65312,-0.63832 -1.28393,-1.49236 -1.92652,-2.599zM268.24244,222.75651c-0.10638,0.21519 -0.24284,0.41287 -0.40386,0.58755c0.68938,-0.06424 1.31611,-0.38396 1.82708,-1.08933c-0.44646,0.23231 -0.92488,0.39457 -1.42322,0.50178z" fill="#000000" stroke-width="0.5"></path>
    </g>
  </g>
</svg>
