<?xml version="1.0" encoding="UTF-8"?>
<svg xmlns="http://www.w3.org/2000/svg" xmlns:xlink="http://www.w3.org/1999/xlink" version="1.1" width="226.14047" height="94.48959" viewBox="0,0,226.14047,94.48959">
  <g transform="translate(-124.41636,-38.82335)">
    <g stroke="none" stroke-miterlimit="10">
      <g>
        <path d="M348.0898,84.83349c-14.35613,28.45396 -49.06529,48.47946 -110.60321,48.47946c-61.54422,0 -96.25338,-20.02548 -110.6032,-48.47946c-9.08361,-18.01602 8.85053,-30.11069 22.41292,-13.69469c7.49618,9.07099 20.04439,12.28995 31.97528,13.36083c2.00318,-9.68833 10.60174,-45.67627 27.86813,-45.67627c15.13723,0 20.59243,6.87254 28.34687,6.87254c7.75444,0 13.20964,-6.87254 28.34688,-6.87254c17.26639,0 25.86495,35.98794 27.86813,45.67627c11.93089,-1.07089 24.47911,-4.28353 31.97528,-13.36083c13.5624,-16.41598 31.49653,-4.32133 22.41293,13.69469z" fill="#664500"></path>
        <path d="M281.58173,93.94228c0,0 -8.06941,14.17345 -44.09515,14.17345c-36.01943,0 -44.09515,-14.17344 -44.09515,-14.17344c0,0 6.53238,-42.52031 22.04756,-42.52031c11.77341,0 16.01914,6.07254 22.04757,6.07254c6.02843,0 10.27417,-6.07254 22.04757,-6.07254c15.51518,0 22.04756,42.52032 22.04756,42.52032z" fill="#825d0e"></path>
        <path d="M193.39144,70.31989c0,0 13.06476,12.59861 44.09515,12.59861c31.03667,0 44.09515,-12.59861 44.09515,-12.59861v12.59861c0,0 -13.99705,12.59861 -44.09515,12.59861c-30.09808,0 -44.09515,-12.59861 -44.09515,-12.59861z" fill="#664500"></path>
      </g>
    </g>
  </g>
</svg>
