<?xml version="1.0" encoding="UTF-8"?>
<svg xmlns="http://www.w3.org/2000/svg" xmlns:xlink="http://www.w3.org/1999/xlink" version="1.1" width="40.53036" height="40.53036" viewBox="0,0,40.53036,40.53036">
  <g transform="translate(-39.73483,-40.06815)">
    <g stroke="none" stroke-miterlimit="10">
      <path d="M60.00002,40.06815c11.2134,0 20.26518,9.05178 20.26518,20.26518c0,11.2134 -9.05178,20.26518 -20.26518,20.26518c-11.2134,0 -20.26518,-9.05178 -20.26518,-20.26518c0,-11.2134 9.05178,-20.26518 20.26518,-20.26518" fill="#ffbf66"></path>
      <path d="M62.56695,52.56501c1.62122,-0.81061 3.58018,-1.35102 5.94446,-1.55367c2.22917,-0.20265 7.02526,-0.20265 9.45708,0.67551c0.2702,0.06755 0.54041,0.20265 0.81061,0.33775c0.20265,0.06755 0.20265,0.1351 0.20265,0.4053v0.33775c0,0.67551 0.06755,0.4053 -0.4053,0.67551c-0.94571,0.5404 -1.48611,1.95897 -1.75632,3.91793c-0.4053,2.83713 -1.75632,4.59344 -4.05304,5.4716c-2.09407,0.81061 -4.45834,0.74306 -6.55241,-0.06755c-1.14836,-0.47285 -2.16162,-1.21591 -2.97222,-2.36427c-1.41856,-2.02652 -0.94571,-3.30998 -1.68876,-5.0663c-0.67551,-1.55366 -2.43182,-1.55366 -3.03978,0c-0.74306,1.75632 -0.2702,3.03978 -1.68877,5.0663c-0.81061,1.21591 -1.82387,1.89141 -2.97223,2.36427c-2.09407,0.81061 -4.45834,0.87816 -6.55241,0.06755c-2.22917,-0.81061 -3.64773,-2.63447 -4.05303,-5.4716c-0.2702,-1.95897 -0.81061,-3.37753 -1.75632,-3.91793c-0.47285,-0.2702 -0.4053,0 -0.4053,-0.67551v-0.33775c0,-0.2702 0.06755,-0.33775 0.1351,-0.4053c0.2702,-0.1351 0.54041,-0.2702 0.81061,-0.33775c2.36427,-0.87816 7.16036,-0.87816 9.45708,-0.67551c2.36427,0.20265 4.32324,0.74306 5.8769,1.55367c1.48611,0.74306 3.71528,0.74306 5.2014,0" fill="#494949"></path>
      <path d="M68.51139,67.29105c0.67551,-0.47285 1.21591,0.33775 0.81061,1.08081c-1.68876,2.76957 -4.99875,5.2014 -9.32198,5.2014c-4.32324,0 -7.63322,-2.49937 -9.32198,-5.2014c-0.4053,-0.74306 0.1351,-1.55367 0.81061,-1.08081c5.4716,3.78283 11.55115,3.85039 17.02276,0" fill="#664500"></path>
    </g>
  </g>
</svg>
