<?xml version="1.0" encoding="UTF-8"?>
<svg xmlns="http://www.w3.org/2000/svg" xmlns:xlink="http://www.w3.org/1999/xlink" version="1.1" width="58.52905" height="96.54756" viewBox="0,0,58.52905,96.54756">
  <g transform="translate(-14.02392,-118.55416)">
    <g stroke="none" stroke-width="0.5" stroke-miterlimit="10">
      <path d="M61.89517,127.8505c-0.01214,0.25164 -0.02693,0.50035 -0.04224,0.74462c-0.77003,1.92227 -1.54284,3.5663 -2.9226,4.65087c1.92279,-0.9468 3.23637,-3.15508 3.83176,-5.19437c0.00181,-0.90285 0.00426,-1.50294 -0.08353,-2.02507c-0.0068,0.01795 -0.01361,0.03584 -0.02043,0.05368c-0.24792,0.64838 -0.49705,1.23865 -0.76296,1.77027zM55.17071,118.79621c1.92254,-0.3183 2.56998,-0.40497 4.26082,0.25563c0.53267,0.20811 1.0513,0.47158 1.54412,0.78144c1.52691,0.23541 2.19857,1.06898 2.39018,2.13263c0.08932,0.11258 0.17567,0.22702 0.25887,0.34318c1.57358,2.19709 1.60929,3.38907 1.61324,6.08928c-0.82629,2.93468 -2.67704,5.87824 -5.36367,7.15962c7.0937,5.61661 17.57271,14.0013 10.11159,23.03909c-4.29887,2.24346 -8.36566,1.1105 -11.94852,-1.37088c-0.39663,3.23613 -0.93605,6.47959 -1.61206,9.84624c-0.39647,1.97451 -0.71579,4.32283 -1.79042,5.985c0.01515,0.10161 0.01515,0.16756 0.01515,0.16756c-0.04785,6.44192 2.99066,12.53646 4.17914,18.77257c0.85359,4.47891 1.1211,9.03648 1.61895,13.55831c0,2.27948 0.08454,4.61502 0.67,6.82258c0.15402,0.17682 0.7426,0.95361 -0.03421,1.73041c-0.88388,0.88388 -1.76777,0 -1.76777,0l-0.51801,-0.74047c-0.70488,-2.48472 -0.84619,-5.09628 -0.84619,-7.67428c-0.49558,-4.4165 -0.74798,-8.86563 -1.58105,-13.2417c-1.10168,-5.787 -3.61056,-11.36112 -4.1272,-17.26445c-7.01304,10.17719 -15.42789,18.98904 -24.15977,27.72091c-3.7541,3.73842 -8.1862,6.82644 -11.60889,10.88858c0.01576,0.2765 -0.07365,0.59395 -0.39109,0.91141c-0.88387,0.8839 -1.76777,0.00003 -1.76777,0.00003l-0.29223,-1.86477c3.56257,-4.44028 8.29856,-7.69037 12.29221,-11.70301c9.03228,-9.03229 17.73428,-18.14101 24.84383,-28.80949c0,0 0.55721,-0.8358 1.42186,-0.50941c0.82003,-1.27862 1.17841,-4.16756 1.39294,-5.24464c0.76449,-3.83823 1.35254,-7.50105 1.75259,-11.17948c-2.60781,-2.31562 -4.88965,-5.17389 -6.72733,-7.62309l-0.31804,-0.59099c0,0 -0.55901,-1.11804 0.55903,-1.67705c1.11804,-0.55901 1.67704,0.55903 1.67704,0.55903l0.08196,0.20901c1.32554,1.76815 3.0403,4.02384 5.01783,6.03875c0.21786,-2.74014 0.33094,-5.518 0.33458,-8.41108c-0.29416,-2.3261 -0.69976,-4.60399 -0.99276,-6.92264l-0.00185,-0.26007c-6.95352,1.08262 -14.72638,8.87375 -15.10972,15.97416c-0.06423,1.18969 -0.57038,3.32088 -0.09654,4.44462c0.32566,0.77232 0.929,1.41588 1.20331,2.2079c0.77532,1.55065 1.06649,2.96506 2.32903,4.19448l-0.38706,-0.5288c0,0 1.21268,-0.30317 1.51585,0.9095c0.30317,1.21268 -0.9095,1.51585 -0.9095,1.51585l-1.98706,-0.12879c-1.5006,-1.53091 -1.93897,-3.14154 -2.87096,-5.00554c-0.55189,-1.73843 -1.44535,-2.23051 -1.49512,-4.26979c-0.21743,-8.90846 6.28795,-18.44116 14.97057,-21.19709c-5.69084,-3.52375 -5.75035,-14.64945 2.6501,-16.04026zM51.73942,124.77248c0.03963,-0.02524 0.07954,-0.05019 0.1197,-0.07485c0.17663,-0.3865 0.42872,-0.75434 0.76371,-1.0895c-0.4143,0.288 -0.72051,0.63937 -0.85046,1.05054c-0.01171,0.03704 -0.02269,0.07499 -0.03295,0.1138zM55.93487,125.88846c-0.36007,0.01389 -0.76307,0.09489 -1.17495,0.22886c-0.0802,0.13176 -0.15377,0.26697 -0.21473,0.40872c-0.09535,0.22172 -0.18381,0.44833 -0.25994,0.67882c0.16289,0.30615 0.39363,0.57499 0.66085,0.75161c0.33123,0.00267 0.61199,0.14806 0.72597,0.21647c0.42385,-0.04193 1.29099,-0.62452 1.53783,-1.19668c-0.15181,-0.35428 -0.51305,-0.71385 -1.16035,-1.02899c-0.03765,-0.01703 -0.07593,-0.03684 -0.1147,-0.05881zM53.86332,132.09832c0.87026,0.19515 1.83769,-0.1008 2.73099,-0.67377c-1.06714,0.38691 -2.15905,0.49907 -3.05296,0.22593c0.10434,0.15577 0.21176,0.30541 0.32198,0.44784zM58.32712,123.29422c-0.13255,0.07174 -0.26464,0.14431 -0.39605,0.21806c0.28642,0.06839 0.56249,0.15438 0.82335,0.25792c-0.12219,-0.16898 -0.26371,-0.32839 -0.4273,-0.47598zM68.41416,156.65292c5.07436,-6.71551 -3.53604,-14.45039 -8.57404,-18.4354c-0.62293,-0.49273 -1.29587,-0.86395 -1.96287,-1.25418c0.29013,2.26756 0.6885,4.50446 0.97034,6.78399c0.00429,3.68956 -0.16632,7.20507 -0.50409,10.69057c3.04589,2.44672 6.52151,3.86903 10.07066,2.21502z" fill="#000000"></path>
      <path d="M53.05,126.225c0,0.11216 -0.01006,0.21425 -0.02839,0.30719c0.5282,1.55182 1.09608,3.00526 2.15447,4.31194c0,0 0.78087,0.97608 -0.19521,1.75696c-0.97608,0.78087 -1.75696,-0.19521 -1.75696,-0.19521c-1.39168,-1.75727 -2.10661,-3.67723 -2.80977,-5.78559l1.38585,-1.64528c0,0 1.25,0 1.25,1.25z" fill="#ffffff"></path>
      <path d="M56.2,123.575c0.97298,0 1.18861,0.75735 1.23639,1.09303c0.84467,1.46469 1.7222,2.88196 2.48164,4.39795c0,0 0.55902,1.11803 -0.55901,1.67705c-1.11803,0.55902 -1.67705,-0.55901 -1.67705,-0.55901c-0.78128,-1.56573 -1.69951,-3.02077 -2.56728,-4.53885l-0.16469,-0.82018c0,0 0,-1.25 1.25,-1.25z" fill="#ffffff"></path>
    </g>
  </g>
</svg>
