<?xml version="1.0" encoding="UTF-8"?>
<svg xmlns="http://www.w3.org/2000/svg" xmlns:xlink="http://www.w3.org/1999/xlink" version="1.1" width="100.84777" height="135.23943" viewBox="0,0,100.84777,135.23943">
  <defs>
    <linearGradient x1="239.58163" y1="138.50635" x2="239.58163" y2="223.31426" gradientUnits="userSpaceOnUse" id="color-1">
      <stop offset="0" stop-color="#e0e0e0"></stop>
      <stop offset="1" stop-color="#c7c7c7"></stop>
    </linearGradient>
    <linearGradient x1="238.37697" y1="138.42225" x2="240.59283" y2="223.2012" gradientUnits="userSpaceOnUse" id="color-2">
      <stop offset="0" stop-color="#e0e0e0"></stop>
      <stop offset="1" stop-color="#c7c7c7"></stop>
    </linearGradient>
  </defs>
  <g transform="translate(-189.91996,-97.03496)">
    <g stroke="none" stroke-miterlimit="10">
      <path d="" fill="#672929" stroke-width="0.25"></path>
      <path d="" fill="#000000" stroke-width="0.5"></path>
      <path d="" fill="#000000" stroke-width="0.5"></path>
      <path d="" fill="#565656" stroke-width="0.5"></path>
      <path d="" fill="#565656" stroke-width="0.5"></path>
      <g>
        <path d="" fill="#000000" stroke-width="0.5"></path>
        <path d="" fill="url(#color-1)" stroke-width="0.25"></path>
        <path d="" fill="#2f2f2f" stroke-width="0.5"></path>
        <path d="" fill="#2f2f2f" stroke-width="0.5"></path>
        <path d="" fill="#2f2f2f" stroke-width="0.5"></path>
        <path d="" fill="#2f2f2f" stroke-width="0.5"></path>
        <path d="" fill="#2f2f2f" stroke-width="0.5"></path>
        <path d="" fill="#2f2f2f" stroke-width="0.5"></path>
        <path d="" fill="#2f2f2f" stroke-width="0.5"></path>
        <path d="" fill="#2f2f2f" stroke-width="0.5"></path>
        <path d="" fill="#2f2f2f" stroke-width="0.5"></path>
      </g>
      <g stroke-width="0.5">
        <path d="M208.06604,121.5275c4.37187,-0.78918 2.94144,-8.06273 3.63204,-11.51831c1.0822,-5.41509 4.62697,-8.44868 9.13519,-10.07673c5.81174,-2.48974 10.98523,-3.04177 17.10309,-2.30765c1.79623,0.21553 3.3395,-0.38317 5.09099,-0.55185c2.11731,-0.20393 4.83026,0.45712 6.90666,0.92998c5.31636,0.03736 9.14439,2.32442 13.13108,5.65827c1.31989,1.10375 2.80854,1.52053 3.55631,3.49409c0.6521,1.72106 0.08242,3.22749 0.07395,4.96983c-0.0128,2.63585 0.27975,4.55463 1.15373,7.03521c0.24747,0.45923 0.49494,0.91845 0.7424,1.37768l0.07971,0.1777c-1.04426,-0.4231 -2.23308,-0.92833 -3.43467,-1.39693c-0.62785,-1.87893 -1.06198,-3.6519 -1.05144,-5.74222c0.00703,-1.39378 0.67278,-4.08426 0.1462,-5.31306c-0.64057,-1.4948 -1.75846,-1.55012 -2.80223,-2.42681c-3.64418,-3.06087 -6.96877,-5.06017 -11.86063,-5.09455c-3.74732,-0.8534 -6.82682,-0.33508 -10.54121,-0.36119c-2.71847,-0.0191 -5.40597,-0.93354 -8.13913,-0.65151c-3.02936,0.31258 -6.499,1.56634 -9.3131,2.79535c-3.62603,1.29582 -6.74041,3.49518 -7.52571,8.02251c-0.47089,2.71478 -0.29827,5.97593 -0.93348,8.66177c2.28364,-3.49752 2.07446,-8.03795 4.66299,-11.28746c2.80987,-3.52738 9.07647,-4.52089 12.91588,-5.90037c2.69133,-0.56602 4.73369,0.28794 7.37329,0.59999c3.21383,0.37995 6.41381,-0.59778 9.60183,-0.22635c4.43251,0.51641 8.82392,3.31103 12.31669,6.23151c2.95501,2.52002 3.73759,6.12004 3.19919,9.97932c-0.85909,-0.28742 -1.68673,-0.52087 -2.43159,-0.65407c0.35868,-2.74189 -0.12189,-5.36136 -2.28304,-7.13231c-3.1258,-2.62724 -7.09066,-5.21518 -11.06683,-5.68525c-3.1715,-0.37494 -6.39027,0.60052 -9.60183,0.22635c-2.28309,-0.266 -4.17814,-1.17226 -6.48477,-0.67263c-3.36724,1.20984 -9.20063,2.05719 -11.69534,5.09153c-1.38163,1.6805 -1.5748,4.7032 -2.17789,6.80004c-0.38641,1.34351 -1.07871,2.62296 -1.89152,3.78113c-1.92153,0.1763 -3.96165,0.2575 -5.49212,1.23638c-0.77951,0.49857 -1.96493,1.821 -3.01418,1.53089c-0.02796,-0.00772 -0.05426,-0.0165 -0.07898,-0.02626c-0.20509,-1.3177 0.99848,-1.57406 0.99848,-1.57406z" fill="#000000"></path>
        <path d="M260.03652,108.62899c-3.49276,-2.9205 -7.8735,-5.6835 -12.306,-6.19992c-3.18802,-0.37144 -6.33943,0.62621 -9.55326,0.24628c-2.6396,-0.31205 -4.65247,-1.18544 -7.34379,-0.61943c-3.83941,1.37949 -10.09497,2.34244 -12.90483,5.86981c-2.58853,3.24953 -2.3817,7.76857 -4.66535,11.26608c0.63521,-2.68584 0.36511,-5.92803 0.83601,-8.64281c0.7853,-4.52733 3.90274,-6.74738 7.52878,-8.0432c2.8141,-1.22899 6.29665,-2.50412 9.32602,-2.81669c2.73315,-0.28201 5.45314,0.6177 8.17161,0.6368c3.71439,0.02609 6.83469,-0.47133 10.582,0.38207c4.89187,0.03438 8.2266,2.05924 11.87078,5.12011c1.04378,0.8767 2.16221,0.93776 2.80278,2.43256c0.52656,1.22878 -0.13962,3.92989 -0.14665,5.32366c-0.01054,2.09043 0.42164,3.87237 1.04921,5.75291c-0.68534,-0.26789 -1.37541,-0.52435 -2.04569,-0.74735c0.53889,-3.85961 -0.24606,-7.44043 -3.2016,-9.96088z" fill="#565656"></path>
      </g>
      <g stroke-width="0.5">
        <path d="M279.83557,123.24715c7.15451,3.85011 9.75459,12.02429 6.95145,19.32564l-0.79865,0.06404c-0.2753,0.73676 -1.15082,0.74896 -1.15082,0.74896l-1.532,-0.06806c-3.17395,-1.23302 -6.06286,-2.54901 -9.34997,-3.59029c-1.572,-0.60288 -3.14127,-1.1619 -4.7031,-1.71996c-0.24508,0.42169 -0.49019,0.84338 -0.73527,1.26507l-0.1952,0.4079c-2.30244,-1.28206 -4.75217,-2.802 -7.29207,-4.15598c0.68005,0.26201 1.34608,0.5492 1.99697,0.86631c0.13136,-0.18534 0.25506,-0.37654 0.37152,-0.57196c-1.18782,-0.48234 -2.36761,-0.99641 -3.53725,-1.56204c-3.09579,-1.49711 -6.55286,-5.26346 -10.15787,-5.04953c0,0 -0.8399,0.0117 -1.15228,-0.67258c-0.10446,-0.05166 -0.19318,-0.1099 -0.26831,-0.17269c0.25182,-1.77199 1.077,-3.16204 1.79155,-4.71823c2.81396,-3.2559 7.37579,-5.73521 11.45016,-6.32515c0.14968,0.1652 0.39062,0.16184 0.39062,0.16184c0.79026,-0.06681 1.68262,0.68312 2.55342,0.91918c2.35327,0.63793 4.7839,1.11707 7.07392,1.84512l0.4021,0.02006c0,0 0.04913,-0.00069 0.11635,-0.01702c2.55565,0.94709 5.39794,1.72033 7.77475,2.99938zM260.99047,132.02638c4.49812,2.16636 9.11797,3.5452 13.79223,5.34186c3.3046,1.05494 6.23221,2.40446 9.41892,3.6156l0.30992,-0.05041c0.0895,-0.08408 0.17906,-0.15014 0.26767,-0.20105c1.80794,-5.88426 -0.37018,-12.19392 -6.13794,-15.28893c-2.4089,-1.29263 -5.33842,-2.038 -7.89466,-3.01942c-2.43409,-0.95341 -4.84678,-2.77684 -7.5948,-2.73855c-4.1346,0.05761 -10.16119,3.2485 -12.34148,7.11553c3.79502,0.57025 6.78362,3.58956 10.18015,5.22538zM266.35577,138.0163c0.16862,-0.29013 0.33725,-0.58025 0.50588,-0.87038c-0.37332,-0.13662 -0.74608,-0.27444 -1.1182,-0.41407c-0.16805,0.29821 -0.34746,0.59074 -0.53869,0.87501c0.34331,0.2189 0.68147,0.44882 1.01431,0.69059z" fill="#000000"></path>
        <path d="M260.94172,132.03746c-3.39654,-1.63581 -6.38531,-4.67644 -10.18033,-5.2467c2.18027,-3.86702 8.23492,-7.09312 12.36952,-7.15072c2.74802,-0.03829 5.19741,1.78313 7.6315,2.73653c2.55623,0.98141 5.5152,1.75293 7.9241,3.04556c5.76776,3.095 7.94318,9.45227 6.13524,15.33652c-0.08862,0.05092 -0.1786,0.11766 -0.26811,0.20173l-0.31021,0.05086c-3.1867,-1.21113 -6.12145,-2.55206 -9.42605,-3.607c-4.67426,-1.79665 -9.37755,-3.20044 -13.87566,-5.36678z" fill="#491d1d"></path>
        <path d="M266.23051,138.34613c-0.33284,-0.24178 -0.73213,-0.5148 -1.07543,-0.73371c0.19123,-0.28427 0.40286,-0.62921 0.57091,-0.92742c0.3721,0.13963 0.80802,0.30396 1.18134,0.44057c-0.16863,0.29013 -0.35604,0.64275 -0.52466,0.93287z" fill="#565656"></path>
      </g>
      <g stroke-width="0.5">
        <path d="M212.86327,137.52021l-0.21693,-0.39657c-0.1115,-0.2473 -0.22299,-0.49459 -0.33448,-0.74189c-2.30412,1.18226 -4.64504,2.29451 -7.00161,3.35642c-2.18107,0.98284 -5.40473,1.39775 -7.38105,2.74973c0.06715,0.37599 0.04044,0.99431 -0.71729,1.33593c-1.13954,0.51375 -1.65329,-0.6258 -1.65329,-0.6258c-2.53114,-5.66524 -2.75825,-11.78166 1.6956,-16.63651c2.04784,-2.23221 4.91325,-3.36333 7.60557,-4.56749c1.03144,-0.6809 2.10693,-1.37422 3.21421,-2.04008c1.2851,0.2514 2.66269,-1.12243 3.56109,-1.7273c1.95424,-1.31574 5.33428,-1.0713 7.58336,-1.72905l0.5806,-0.30749c0,0 0.32371,-0.1789 0.26045,-0.50738c2.7725,-0.02627 5.48917,0.85051 7.99154,3.14616c1.03186,0.94662 1.72559,2.07404 2.32284,3.27348c0.05573,0.00551 0.11375,0.01429 0.17412,0.02665c1.2246,0.25069 0.97392,1.47529 0.97392,1.47529l-0.36191,0.18766c0.01365,0.03031 0.02731,0.06063 0.04097,0.09097c0.53623,1.05589 -0.51756,1.64078 -0.51756,1.64078l-0.43931,0.23962c-2.63715,1.74091 -5.2667,3.63691 -8.14943,4.9366c-0.87884,0.58339 -1.76895,1.15029 -2.66892,1.70208c0.17008,0.69466 0.3327,1.35062 0.53991,2.00168c-1.30812,0.88995 -2.63802,1.72479 -4.0636,2.26704c-1.02569,0.39015 -2.06162,0.65548 -3.09787,0.88753c0.01967,-0.01273 0.03935,-0.02542 0.05903,-0.03808zM204.28274,137.45912c5.74363,-2.5908 11.34484,-5.49229 16.60566,-8.94886c2.67366,-1.20542 5.12276,-2.93358 7.56852,-4.56149c-1.31074,-2.54471 -3.40418,-5.31399 -6.22203,-5.98825c-2.13834,-0.51168 -3.9532,0.37388 -5.91435,1.05552c-3.59626,1.24997 -7.06329,3.06112 -10.25449,5.16776c-2.41721,1.09738 -5.12165,2.05346 -6.96963,4.06782c-3.23361,3.52474 -3.4368,7.76503 -2.05632,11.90206c2.18939,-1.19841 4.9696,-1.66924 7.24264,-2.69456zM217.18391,133.73481c-0.8776,0.50612 -1.76317,0.99934 -2.65542,1.48086c0.13232,0.2935 0.26463,0.58698 0.39697,0.88048l0.11695,0.20642c0.8343,-0.38715 1.70659,-0.71072 2.58842,-1.01491c-0.16658,-0.51131 -0.31005,-1.02486 -0.4469,-1.55285z" fill="#000000"></path>
        <path d="M204.2487,137.49574c-2.27304,1.02532 -5.05937,1.48931 -7.24876,2.68772c-1.38048,-4.13704 -1.18709,-8.40932 2.04653,-11.93406c1.84798,-2.01436 4.5623,-2.99813 6.97951,-4.09551c3.1912,-2.10665 6.71724,-3.93416 10.3135,-5.18413c1.96115,-0.68165 3.79078,-1.55784 5.92913,-1.04618c2.81785,0.67427 4.92543,3.46598 6.23617,6.01069c-2.44576,1.62791 -4.89276,3.36865 -7.56641,4.57407c-5.26083,3.45659 -10.94605,6.39658 -16.68968,8.98738z" fill="#491d1d"></path>
        <path d="M217.21667,133.69703c0.13686,0.528 0.29686,1.08777 0.46344,1.59908c-0.88184,0.30418 -1.83468,0.65835 -2.66897,1.04549l-0.12212,-0.21119c-0.13232,-0.2935 -0.27782,-0.61495 -0.41014,-0.90845c0.89225,-0.48152 1.86018,-1.01881 2.73778,-1.52493z" fill="#565656"></path>
      </g>
      <g stroke-width="0.5">
        <path d="M250.33776,126.33759c-0.00398,0.00209 -0.00799,0.00417 -0.01202,0.00622c0.02257,0.07435 0.04059,0.15528 0.05325,0.24342c0.17765,1.23732 -1.05966,1.41496 -1.05966,1.41496c-0.37904,0.05283 -0.76085,0.09607 -1.14418,0.12756c-0.01582,0.13284 -0.04237,0.21875 -0.04237,0.21875c-0.19967,0.5386 -0.39934,1.0772 -0.59901,1.6158l0.58666,0.90768c0,0 0.09156,0.17347 0.13341,0.41924l0.61112,-0.14761c0,0 0.26852,-0.0517 0.57853,0.01886c0.27922,-0.03011 0.5022,0.02734 0.5022,0.02734v0.00002c0.14977,0.04109 0.30139,0.06979 0.45438,0.08943c-0.39855,0.10223 -0.79679,0.20489 -1.23756,0.27172c-2.04447,0.30999 -6.12435,-0.67399 -8.005,-0.68308c-0.55905,-0.0027 -1.12876,0.00375 -1.7055,0.02c0.1315,-0.27537 0.32379,-0.44766 0.32379,-0.44766l0.98514,-0.861c0.40204,-0.64706 0.55917,-1.49094 0.43789,-2.243c0,0 -0.0096,-0.08663 -0.00086,-0.21666c-0.42613,-0.18749 -0.80223,-0.40528 -1.08027,-0.65721c-1.99427,-1.80703 -1.27588,-5.48846 1.0014,-6.80502c1.99278,-1.15208 6.75434,-0.68591 8.97407,-0.50177c0.40111,0.03328 0.8339,-0.02316 1.23388,0.02287c0.37839,0.73475 1.00853,1.39921 1.08426,2.14855c0.0061,0.0604 0.009,0.11946 0.00901,0.1773c-0.06915,0.12133 -0.13606,0.24481 -0.20099,0.37001c-0.13203,0.14763 -0.28145,0.29326 -0.45441,0.44704c0,0 -0.35066,0.31418 -0.06654,0.67308c-0.02747,0.06477 -0.05464,0.12962 -0.08156,0.19455c-0.00453,0.00186 -0.00909,0.00377 -0.01368,0.00576c-0.45879,0.19877 -0.26001,0.65756 -0.26001,0.65756l0.00568,0.00159c-0.10916,0.27659 -0.21562,0.55091 -0.32187,0.81886l-0.04762,0.39976c0,0 -0.01891,0.3447 0.26112,0.47698c-0.15208,0.36728 -0.28681,0.7469 -0.39685,1.14587c-0.17052,-0.06713 -0.36002,-0.17733 -0.50581,-0.35777zM247.96657,125.3651l0.08292,-1.43405c0.20599,-0.85869 0.51912,-1.7173 0.97174,-2.48196c-2.33266,-0.26233 -5.73466,-0.07249 -6.68704,0.3931c-2.78794,1.36292 0.31861,3.09353 1.52781,3.40555c0.78548,0.20268 1.59462,0.33021 2.40461,0.37465c0.57068,0.0313 1.14573,0.03795 1.71742,0.00472c-0.02338,-0.1541 -0.01745,-0.262 -0.01745,-0.262zM245.04453,130.1963c0.18529,-0.68482 0.37059,-1.36964 0.55588,-2.05446c-0.30926,-0.02531 -0.61772,-0.06128 -0.92472,-0.10906c-0.28915,-0.04499 -0.62505,-0.10282 -0.98362,-0.17541c-0.05599,1.0057 -0.35473,2.01592 -0.7958,2.92326c0.83926,0.05833 1.69481,0.17008 2.55384,0.27967z" fill="#000000"></path>
        <path d="M245.47982,131.10052c-0.85902,-0.10959 -1.77989,-0.22646 -2.61915,-0.28479c0.44107,-0.90735 0.75869,-1.99979 0.81468,-3.00549c0.35858,0.07259 0.72552,0.12964 1.01467,0.17463c0.30702,0.04778 0.63711,0.09692 0.94637,0.12223c-0.18529,0.68482 -0.3704,1.43891 -0.55569,2.12372z" fill="#565656"></path>
        <path d="M248.00788,125.39325c0,0 -0.00756,0.11016 0.01582,0.26426c-0.5717,0.03323 -1.16261,0.04013 -1.7333,0.00882c-0.80999,-0.04442 -1.66981,-0.17376 -2.45529,-0.37644c-1.20919,-0.31203 -4.3324,-2.10943 -1.54446,-3.47235c0.95239,-0.46559 4.44287,-0.65268 6.77552,-0.39035c-0.45262,0.76467 -0.76154,1.65419 -0.96752,2.51289l-0.09077,1.45315z" fill="#565656"></path>
      </g>
      <path d="" fill="#491d1d" stroke-width="0.5"></path>
      <path d="" fill="#491d1d" stroke-width="0.5"></path>
      <path d="" fill="#565656" stroke-width="0.5"></path>
      <path d="" fill="#565656" stroke-width="0.5"></path>
      <path d="" fill="#565656" stroke-width="0.5"></path>
      <g>
        <path d="M287.99784,178.58933c-0.25991,0.36679 -0.24814,0.81683 -0.24814,0.81683l0.02557,0.3276c-0.14144,1.01162 -0.29529,2.02486 -0.46531,3.03208c0.07461,3.00978 -0.82267,5.76962 -1.59768,8.62092c-1.95564,7.19485 -5.54538,14.93739 -10.73557,20.42949c-2.55784,4.52721 -7.31058,5.70782 -11.44216,8.26605c-3.93388,2.43581 -7.90033,5.05884 -12.20773,6.91381c0,0 -0.5634,0.24244 -0.73138,0.78153c-0.33396,-0.07811 -0.63137,-0.0105 -0.63137,-0.0105l-1.43771,0.33213c-2.17668,0.93739 -4.56527,1.33355 -6.89679,1.73268c-4.79357,0.13544 -9.05152,-2.53202 -13.64852,-3.36057c-3.36813,-0.60706 -7.83839,-1.38935 -10.4027,-3.92399c0,0 -0.534,-0.5064 -1.17046,-0.33386l-0.04083,-0.01807c-4.08591,-2.90071 -8.21604,-5.99997 -11.84847,-9.44064c-3.25869,-3.08666 -5.03863,-7.7936 -7.84634,-11.28677c-3.80012,-9.0347 -4.01049,-18.16692 -4.30834,-27.72348c0.64515,-3.62386 1.05503,-7.18207 2.31356,-10.68057c1.35628,-3.77024 5.23048,-7.84173 7.5534,-11.11375c0,0 0.44143,-0.62169 0.15045,-1.23828c3.44399,-3.65339 7.52859,-8.13716 11.91674,-10.456c1.04988,-0.55479 2.18253,-0.97371 3.33098,-1.35282c0.19,0.18178 0.4727,0.31452 0.89145,0.30357c0.83974,-0.02194 1.10182,-0.59419 1.18247,-0.96671c1.59729,-0.51344 3.16597,-1.07116 4.53396,-1.93695c4.40334,-0.92655 9.06193,-3.92575 13.59692,-4.00837c1.82342,-0.03322 3.74448,0.16907 5.61081,0.1203l1.32644,-0.33051c0.01402,0.00305 0.02171,0.00438 0.02171,0.00438c1.08478,0.17489 2.2009,-0.112 3.29891,-0.07032c0.92792,0.03522 1.69409,0.82376 2.60842,0.98577c3.48024,0.61664 6.61249,1.31783 9.44241,2.62156c0.02042,0.24635 0.13258,0.5166 0.41241,0.78216c0.56849,0.53951 1.1201,0.38492 1.45154,0.19408c1.9327,1.14604 3.72921,2.66583 5.40062,4.74402c2.97295,1.72913 5.39403,4.07165 7.86506,6.42605l0.27378,0.25987c0,0 0.07112,0.06752 0.19217,0.14469c1.34193,2.32049 2.17474,4.92845 3.53439,7.22916c1.41238,2.38994 3.87907,3.71708 5.20457,6.21665c1.33786,2.52287 1.73312,5.20124 2.78788,7.71928c0.58397,3.05058 0.66102,6.14413 0.7329,9.24754z" fill="#672929" stroke-width="0.25"></path>
        <path d="M274.05271,217.23931l-0.20973,0.65556c-0.46531,2.61349 -0.58227,6.0077 -0.04056,8.58911c0.10653,0.50765 0.63299,0.92375 0.58851,1.44055c-0.07945,0.92295 -0.11183,2.19652 -0.9377,2.61616c-0.92907,0.47208 -2.90237,-1.07625 -3.69999,-1.64703c-2.31411,-1.65598 -3.95532,-4.0896 -4.35345,-6.88098c-1.30419,0.6258 -2.58675,1.23331 -3.78356,1.86577c-3.19234,1.68696 -5.9264,3.90708 -9.31221,5.36518c0,0 -0.41528,0.17883 -0.85388,0.07164c-0.18567,0.66879 -0.94201,0.84072 -0.94201,0.84072l-1.21562,0.27097c-2.33889,1.00724 -4.91757,1.42183 -7.42195,1.84324c-5.09973,0.12502 -9.41496,-2.58048 -14.28486,-3.38068c-3.3344,-0.54789 -7.17351,-1.41144 -10.13208,-3.35277c-0.08455,0.04803 -0.17018,0.08391 -0.25035,0.1107c-1.85841,2.51024 -3.98882,4.43854 -7.03124,5.51077c-1.62871,0.574 -2.90218,1.54799 -4.06096,-0.99713c-0.47764,-1.04904 0.61232,-2.24132 0.66943,-3.39257c0.1226,-2.47087 0.96094,-4.96624 0.86965,-7.38882c0,0 -0.0071,-0.27175 0.11204,-0.56511c-1.716,-1.37956 -3.38216,-2.81143 -4.95523,-4.3067c-3.41244,-3.24365 -5.34316,-8.07728 -8.23605,-11.77973c-4.13209,-9.41997 -4.43057,-19.12104 -4.65095,-29.15734c0.64572,-3.82685 1.06386,-7.66232 2.44951,-11.32878c1.44673,-3.82806 4.99399,-7.78483 7.48058,-11.17927c-0.46035,-0.75567 0.20719,-1.45905 0.20719,-1.45905c3.4556,-3.64108 7.50164,-8.09718 11.91077,-10.82792l-0.21018,-0.40018c-0.06785,-0.15755 -0.1357,-0.31511 -0.20355,-0.47266l1.0958,-0.39738l0.59692,-0.40216l0.61842,-0.15449c0.06285,0.14597 0.12572,0.29193 0.18857,0.43791l0.11344,0.20837c0.84073,-0.37297 1.71838,-0.68174 2.60523,-0.97096c-0.09162,-0.2983 -0.17546,-0.5972 -0.2547,-0.89919l0.22142,-0.06154l0.8069,-0.45782l0.59177,-0.22895l0.38656,-0.27256l0.28271,-0.10937c0.10332,0.43068 0.21234,0.85112 0.34066,1.27049c1.46688,-0.48258 2.89075,-1.02142 4.14377,-1.82261l-0.00001,0c3.70538,-0.88691 7.5649,-2.89909 11.4238,-3.77876c0.10653,-0.3082 0.30158,-0.51372 0.30158,-0.51372l0.5962,-0.61287l0.95839,0.21316l1.77134,-0.0463c-0.05713,0.18033 -0.12005,0.35825 -0.18814,0.53304c0.84122,-0.0097 1.70301,0.03252 2.56808,0.07232l-0.3915,-0.68409l0.11192,-0.0311l0.75466,-0.01973l0.75466,-0.01973l0.22106,0.04916l0.94487,-0.0247l0.25071,0.3266c0,0 0.10527,0.16551 0.16686,0.40709l0.59719,-0.19654c0,0 0.26346,-0.07323 0.57816,-0.02797c0.27587,-0.05259 0.50277,-0.01334 0.50277,-0.01334l0,0.00002c0.48046,0.09085 0.96922,0.05775 1.46005,0.00539l0.15588,0.07798l0.98062,0.21811l0.00007,0l0.00006,0.00003l0.98064,0.2181l0.63757,-0.01667l0.08785,0.02675l0.73705,0.22447l0.32849,0.01666c0.16818,0.06175 0.33938,0.11126 0.51542,0.14071c0.03811,0.00637 0.07619,0.01278 0.11427,0.01919l0.25093,0.11093l1.22417,0.21173l0.61076,0.10564l0.14156,0.0431l0.1523,0.00772l0.31954,0.05527l0.00519,-0.00039l0.26516,0.13264l0.26052,0.05795l0.72124,0.43292l0.73707,0.22448l0.00002,0l0.00002,0.00001l0.73705,0.22447l0.00004,0l0.00003,0.00002l0.73699,0.22444l0.19305,0.0588l0.3535,0.22257l0.54888,0.18001l0.11769,0.07065l0.4243,0.34486l0.42313,0.19791l0.21663,0.13638l0.25067,0.08219l0.09658,0.04517l0.10155,0.0198l0.15153,0.04969l0.49028,0.39851l0.39604,0.18524l0.05825,0.09604l0.28038,0.06236l0.25232,0.11804l1.35185,0.26356l1.85878,1.1157l0.07713,0.07321l0.32934,0.18609l0.37495,0.32337l0.02689,0.02807l0.07024,0.30897l0.53118,0.31884l0.72982,0.76185l0.74342,0.46803l0.13711,0.04497l0.17747,0.15305l0.22411,-0.02136l0.03398,0.01115c0.20568,0.24149 0.40843,0.49046 0.60818,0.74723c2.86482,1.5598 5.22044,3.90712 7.57309,6.1454c0.5302,0.10116 0.84044,0.58887 0.84044,0.58887c1.58607,2.50674 2.46352,5.3913 3.95971,7.92996c1.41106,2.3942 3.90141,3.77741 5.26372,6.32159c1.41045,2.63408 1.80851,5.54238 2.96442,8.14396c0.7273,3.72362 0.77465,7.45577 0.87385,11.25116l0.21303,0.3993c0,0 0.42613,1.17512 -0.749,1.60124c-0.00306,0.00111 -0.00613,0.00221 -0.00918,0.0033c-0.05731,0.35806 -0.11733,0.71566 -0.18081,1.07267c0.08701,3.16143 -0.86277,6.08719 -1.67573,9.0799c-2.02414,7.4514 -5.72222,15.57351 -11.12832,21.24442c-0.75209,1.33117 -1.72667,2.47524 -2.84666,3.48417c0.0147,0.2731 -0.05001,0.48557 -0.05001,0.48557zM287.21643,169.35388c-1.05476,-2.51804 -1.44728,-5.18835 -2.78513,-7.71123c-1.3255,-2.49957 -3.78819,-3.81935 -5.20056,-6.20929c-1.35965,-2.30071 -2.18735,-4.90216 -3.52928,-7.22264c-0.12106,-0.07716 -0.19201,-0.14451 -0.19201,-0.14451l-0.27352,-0.25959c-2.47103,-2.35439 -4.8841,-4.69008 -7.85703,-6.41921c-1.67141,-2.07819 -3.46165,-3.59435 -5.39436,-4.74038c-0.33144,0.19084 -0.88177,0.34604 -1.45025,-0.19347c-0.27983,-0.26555 -0.39134,-0.53553 -0.41176,-0.78188c-2.82991,-1.30374 -5.95273,-2.00187 -9.43297,-2.61851c-0.91433,-0.162 -1.67777,-0.95003 -2.60569,-0.98526c-1.09801,-0.04168 -2.21084,0.24563 -3.29562,0.07074c0,0 -0.00768,-0.00133 -0.02169,-0.00438l-1.32511,0.33061c-1.86633,0.04877 -3.78164,-0.15347 -5.60506,-0.12025c-4.535,0.08262 -9.17922,3.07895 -13.58255,4.0055c-1.36798,0.86579 -2.93188,1.4215 -4.52918,1.93495c-0.08065,0.37254 -0.34132,0.94406 -1.18106,0.96601c-0.41876,0.01095 -0.70085,-0.1221 -0.89085,-0.30389c-1.14846,0.3791 -2.27791,0.79615 -3.32779,1.35094c-4.38815,2.31885 -8.46058,6.79168 -11.90456,10.44507c0.29097,0.61659 -0.14977,1.2374 -0.14977,1.2374c-2.32293,3.27202 -6.19034,7.33147 -7.54661,11.10172c-1.25852,3.4985 -1.66551,7.04591 -2.31066,10.66977c0.29785,9.55656 0.50408,18.66005 4.30419,27.69475c2.80771,3.49317 4.57978,8.18815 7.83847,11.27482c3.63243,3.44067 7.75028,6.52988 11.83619,9.43058l0.04079,0.01806c0.63646,-0.17254 1.16937,0.33324 1.16937,0.33324c2.5643,2.53464 7.02364,3.31253 10.39177,3.91958c4.59701,0.82854 8.8405,3.49428 13.63407,3.35885c2.33151,-0.39913 4.71286,-0.79456 6.88954,-1.73194l1.4362,-0.33186c0,0 0.29678,-0.06747 0.63074,0.01063c0.16799,-0.53907 0.73048,-0.78131 0.73048,-0.78131c4.3074,-1.85498 8.25994,-4.47236 12.19382,-6.90816c4.13158,-2.55823 8.87248,-3.72907 11.43034,-8.25629c5.19018,-5.4921 8.76858,-13.21257 10.7242,-20.40741c0.77501,-2.8513 1.67107,-5.60186 1.59646,-8.61166c0.17001,-1.00722 0.32385,-2.01724 0.46529,-3.02887l-0.02557,-0.32725c0,0 -0.01174,-0.4492 0.24818,-0.81599c-0.07188,-3.10341 -0.14752,-6.18743 -0.73148,-9.23801zM209.23338,225.33022c-0.09122,1.46938 0.31872,2.87278 -0.73366,4.09322c-0.20787,0.24106 0.46214,-0.45641 0.75134,-0.58939c0.48058,-0.22102 1.01717,-0.30582 1.49417,-0.53446c1.85144,-0.8874 3.19121,-2.41988 4.36901,-4.02671l-0.16925,-0.08213c-1.6277,-1.15556 -3.2631,-2.3425 -4.87263,-3.56945c-0.20256,1.5895 -0.73624,3.05412 -0.83899,4.70891zM267.81322,221.00835c0.01051,1.88527 1.05553,3.87652 2.43692,5.18754c0.16951,0.16088 0.62796,0.38763 1.08247,0.65975c-0.07026,-0.51981 0.0176,-1.05774 -0.03694,-1.58155c-0.2145,-2.06009 -0.30928,-4.23115 -0.10794,-6.3399c-1.08786,0.69016 -2.23431,1.31493 -3.39448,1.90454c0.01821,0.1026 0.01997,0.16962 0.01997,0.16962z" fill="#000000" stroke-width="0.5"></path>
        <path d="M216.82174,136.63351c-0.88686,0.28922 -1.84555,0.62721 -2.68628,1.00018l-0.11854,-0.21323c-0.06397,-0.14855 -0.13116,-0.30421 -0.19831,-0.45985l0.12661,-0.03163l0.33442,-0.17828l0.78053,-0.28305l0.7243,-0.26264l0.69768,-0.47003l0.07725,-0.02148c0.08306,0.31244 0.17147,0.62424 0.26231,0.92z" fill="#565656" stroke-width="0.5"></path>
        <path d="M267.77956,220.97135c0,0 -0.00039,-0.06822 -0.01861,-0.17082c1.16018,-0.5896 2.35766,-1.22256 3.44551,-1.91272c-0.20136,2.10876 -0.09557,4.3664 0.11892,6.42648c0.05454,0.52381 -0.04252,1.06712 0.02774,1.58694c-0.4545,-0.27211 -0.92325,-0.49552 -1.09277,-0.6564c-1.38139,-1.31102 -2.47027,-3.38819 -2.48079,-5.27347z" fill="#565656" stroke-width="0.5"></path>
        <path d="M210.05453,220.57459c1.60953,1.22695 3.31131,2.44861 4.939,3.60416l0.16962,0.08382c-1.1778,1.60682 -2.58084,3.19751 -4.43228,4.08489c-0.477,0.22863 -1.02637,0.30755 -1.50696,0.52857c-0.28919,0.13299 -0.96154,0.82885 -0.75368,0.58778c1.05238,-1.22045 0.62237,-2.65738 0.71359,-4.12676c0.10274,-1.6548 0.66811,-3.17299 0.87067,-4.76249z" fill="#565656" stroke-width="0.5"></path>
        <g>
          <path d="M276.7025,161.84825l-0.32557,-0.61986c-1.96277,-4.56248 -5.2762,-7.40551 -7.91488,-11.5639c-2.23791,-2.81926 -5.36376,-6.75914 -8.59888,-8.45267c-3.89284,-2.03781 -8.37155,-1.5092 -12.49463,-2.20494c0,0 -0.27662,-0.04785 -0.545,-0.22926l-1.20559,0.02647c-6.29189,-1.08822 -13.07443,0.35451 -19.27519,1.54003c-6.04765,2.19884 -9.90406,5.94327 -14.74173,10.02736c-1.8263,1.54181 -5.01953,3.37875 -5.56997,5.69083c0,0 -0.26702,0.87681 -1.09456,0.90015c-1.61884,2.16797 -3.41206,4.04915 -4.31166,6.72076c-1.69143,5.02308 -2.04086,11.18288 -1.90321,16.44969c0.12374,4.73461 0.24211,10.31754 2.16732,14.69764c2.04441,4.65133 5.5757,8.65705 7.97809,13.18963c1.92459,2.41053 3.95485,4.60774 6.49482,6.40256l0.82968,0.52204c0.63575,-0.05674 1.07569,0.49895 1.07569,0.49895c1.88162,2.43059 5.52871,3.75158 8.35542,4.69289c1.96068,0.65292 3.64572,1.77877 5.48228,2.5569c2.52302,1.06897 6.3941,0.51462 8.96783,-0.07045c0.53315,-0.01393 1.0663,-0.02787 1.59945,-0.0418l1.20445,-0.28004c0,0 0.10485,-0.02384 0.26003,-0.02678c0.40032,-0.69963 1.28246,-0.54705 1.28246,-0.54705c3.52198,0.67483 7.11716,-1.36265 9.99925,-3.05964c4.45317,-2.62203 8.44522,-5.12192 12.03313,-8.91161c4.8355,-5.07501 9.85084,-11.2102 11.7479,-18.18546c0.7543,-2.77351 0.95158,-5.60328 1.34858,-8.44063c1.22256,-7.07292 0.36791,-13.91302 -1.83017,-20.59538c-0.66572,-0.03071 -1.01532,-0.68648 -1.01532,-0.68648zM261.03062,139.00117c3.57382,1.861 7.01594,6.10855 9.46891,9.21463c2.47248,3.87813 5.47861,6.68784 7.5454,10.69605c0.49072,0.01809 0.85981,0.3684 0.85981,0.3684l0.58816,0.74014c2.75196,7.59672 3.9213,15.42991 2.52509,23.49603c-0.40894,2.92266 -0.62766,5.84317 -1.40439,8.70382c-2.01008,7.40295 -7.23314,13.84282 -12.3487,19.25694c-3.7657,3.9573 -7.91577,6.58523 -12.56515,9.33731c-3.4186,2.02354 -7.3563,3.97766 -11.48269,3.40968c-0.28681,0.40139 -0.78623,0.51491 -0.78623,0.51491l-1.44736,0.32278c-0.53315,0.01393 -1.0663,0.02787 -1.59945,0.0418c-3.05623,0.69476 -7.25274,1.1116 -10.23954,-0.10195c-1.79881,-0.73086 -3.41472,-1.85652 -5.3201,-2.49592c-3.0842,-1.03499 -6.60525,-2.43026 -8.92316,-4.83699c-0.16662,-0.05774 -0.27307,-0.12476 -0.27307,-0.12476l-1.65641,-1.04339c-2.8092,-2.00209 -5.07748,-4.41531 -7.19627,-7.11099c-2.48778,-4.64169 -6.15553,-8.78277 -8.19399,-13.59695c-2.00163,-4.72722 -2.22628,-10.51601 -2.35902,-15.59443c-0.14504,-5.54941 0.25612,-11.96548 2.01727,-17.26427c1.0528,-3.16756 3.18505,-5.31424 5.04314,-7.94548c0,0 0.27099,-0.38169 0.7149,-0.5121c1.25135,-2.53762 3.81738,-4.18229 6.01375,-6.03453c5.13306,-4.32884 9.23523,-8.18172 15.66543,-10.50743c6.44989,-1.26348 13.56918,-2.75714 20.12226,-1.62375l1.20959,-0.0377c0,0 0.48983,-0.01281 0.86415,0.28431c4.36832,0.7622 9.02245,0.29055 13.15767,2.44389z" fill="#000000" stroke-width="0.5"></path>
          <path d="M276.74707,161.82552c0,0 0.35016,0.65689 1.01588,0.68761c2.19809,6.68237 3.05755,13.54692 1.83498,20.61983c-0.397,2.83734 -0.59603,5.67761 -1.35033,8.45112c-1.89705,6.97526 -6.92648,13.13365 -11.76197,18.20866c-3.58791,3.7897 -7.59572,6.29951 -12.04887,8.92153c-2.88209,1.69698 -6.48964,3.7376 -10.01162,3.06276c0,0 -0.88372,-0.15241 -1.28405,0.54722c-0.15518,0.00293 -0.26034,0.0268 -0.26034,0.0268l-1.20591,0.28013c-0.53316,0.01393 -1.06821,0.02793 -1.60137,0.04186c-2.57374,0.58507 -6.45532,1.13846 -8.97834,0.06949c-1.83656,-0.77813 -3.52841,-1.90585 -5.48909,-2.55878c-2.82671,-0.94131 -6.48417,-2.26738 -8.3658,-4.69796c0,0 -0.4411,-0.55648 -1.07687,-0.49974l-0.83065,-0.52272c-2.53997,-1.79481 -4.57844,-3.99944 -6.50303,-6.40997c-2.40239,-4.53259 -5.9433,-8.55445 -7.98772,-13.20578c-1.9252,-4.38011 -2.04657,-9.98092 -2.17032,-14.71554c-0.13766,-5.26679 0.21601,-11.44594 1.90744,-16.46903c0.8996,-2.67161 2.69743,-4.56103 4.31626,-6.729c0.82754,-0.02333 1.09551,-0.90148 1.09551,-0.90148c0.55043,-2.3121 3.75008,-4.15616 5.57639,-5.69796c4.83768,-4.08409 8.71242,-7.8392 14.76007,-10.03804c6.20076,-1.18552 13.00596,-2.63018 19.29786,-1.54196l1.20696,-0.02624c0.26839,0.18142 0.54566,0.22939 0.54566,0.22939c4.12308,0.69573 8.6154,0.1718 12.50824,2.20962c3.23513,1.69353 6.37216,5.64125 8.61006,8.46051c2.63868,4.1584 5.96221,7.01459 7.92498,11.57706l0.32595,0.6206z" fill="url(#color-2)" stroke-width="0.25"></path>
          <path d="M239.58525,137.5531c0.15982,-0.29079 0.46339,-0.56468 1.03967,-0.57974c1.24957,-0.03266 1.28223,1.21691 1.28223,1.21691l0.01001,1.31199c-0.61117,3.43303 1.32976,8.29287 -0.24465,11.53317c-0.01446,0.02976 -0.02923,0.05934 -0.0443,0.08872l0.01947,0.00593l-0.48297,1.58581c-0.14369,0.51471 -0.60941,0.89828 -1.17151,0.91297c-0.69013,0.01803 -1.26419,-0.5268 -1.28223,-1.21691l-0.03483,-1.33288c-0.10728,-4.10452 0.0729,-8.20093 -0.05391,-12.26944c0,0 -0.02806,-1.07363 0.96302,-1.25654z" fill="#2f2f2f" stroke-width="0.5"></path>
          <path d="M262.06362,159.32305c0.71985,-0.85656 1.51429,-1.66503 2.33252,-2.45943c1.68694,-1.77782 3.3713,-3.55132 5.06828,-5.33937c0,0 0.86049,-0.90667 1.76717,-0.04619c0.90667,0.86049 0.04619,1.76717 0.04619,1.76717c-0.31908,0.3362 -0.63769,0.67195 -0.95597,1.00737c-0.09133,0.37005 -0.33511,0.62692 -0.33511,0.62692l-0.2596,0.27353c-1.58786,1.67308 -3.0044,3.21226 -4.72055,4.70032c-0.28409,0.29915 -0.5684,0.59848 -0.85303,0.89807c-0.38285,0.46916 -0.70521,0.91083 -1.08734,1.14413c-0.13472,0.14172 -0.26954,0.28351 -0.40445,0.42539l-0.07021,0.02398l0.01862,0.02205l-1.2974,1.09473c-0.21047,0.1807 -0.48213,0.29284 -0.78106,0.30065c-0.69013,0.01803 -1.26419,-0.5268 -1.28223,-1.21691c-0.00902,-0.34505 0.12268,-0.6611 0.34289,-0.89314l1.03842,-1.09417l0.11601,0.11009l0.21138,-0.17834c0.36905,-0.38969 0.7375,-0.77856 1.10552,-1.16684z" fill="#2f2f2f" stroke-width="0.5"></path>
          <path d="M278.17531,180.90115c-0.36046,0.00943 -0.72079,0.02335 -1.08099,0.04092c-0.66957,0.2928 -1.57911,0.29064 -2.50983,0.17182c-2.74589,0.23065 -5.49004,0.56419 -8.24753,0.63626c0,0 -1.24957,0.03266 -1.28223,-1.21691c-0.03266,-1.24957 1.21691,-1.28223 1.21691,-1.28223c1.416,-0.037 2.82875,-0.14434 4.24012,-0.27059c0.09605,-0.17358 0.19644,-0.27936 0.19644,-0.27936l1.43771,-0.63329c1.18243,0.26868 2.33683,0.37833 3.48942,0.46209c0.64629,-0.04431 1.29277,-0.07955 1.93961,-0.10074l1.5099,-0.29238c0.07376,-0.01564 0.15,-0.02481 0.2281,-0.02685c0.69013,-0.01803 1.26419,0.5268 1.28223,1.21691c0.01605,0.61423 -0.41377,1.13654 -0.99508,1.2567l-1.30333,0.29627l-0.00957,-0.04213l-0.03689,0.00715z" fill="#2f2f2f" stroke-width="0.5"></path>
          <path d="M268.17431,208.01168c-0.86049,0.90667 -1.76717,0.04619 -1.76717,0.04619l-0.27353,-0.2596c-2.71446,-2.58637 -4.71374,-5.76294 -7.80979,-7.9492c0,0 -1.01926,-0.72361 -0.29565,-1.74287c0.72361,-1.01926 1.74287,-0.29565 1.74287,-0.29565c3.19695,2.28027 5.26685,5.51297 8.08357,8.17437l0.27353,0.2596c0,0 0.90667,0.86049 0.04619,1.76717z" fill="#2f2f2f" stroke-width="0.5"></path>
          <path d="M240.51874,209.00482c0.06236,-0.46246 0.12487,-0.91811 0.18626,-1.36495c0,0 0.17321,-1.23794 1.41115,-1.06473c1.23794,0.17321 1.06473,1.41115 1.06473,1.41115c-0.53615,3.75515 -1.10971,8.15512 -1.01058,11.94815l-0.07089,0.11275l0.05588,0.00966l-0.22778,1.31703c-0.08963,0.58677 -0.58877,1.04331 -1.203,1.05937c-0.69013,0.01803 -1.26419,-0.5268 -1.28223,-1.21691l-0.0418,-1.59945l0.27299,-0.00714c-0.00328,-0.15219 -0.00548,-0.30529 -0.00664,-0.45924c-0.45045,-2.7933 -0.15809,-5.59781 -0.23667,-8.60418l-0.00697,-0.26657c0,0 -0.0305,-1.16721 1.09555,-1.27494z" fill="#2f2f2f" stroke-width="0.5"></path>
          <path d="M213.48255,209.03054c-0.52674,0.49065 -1.03822,0.99447 -1.52782,1.51756c0,0 -0.86048,0.90668 -1.76716,0.0462c-0.90668,-0.86048 -0.0462,-1.76716 -0.0462,-1.76716c1.32522,-1.38071 2.78268,-2.63679 4.265,-3.87407c1.50513,-1.47066 3.07011,-2.8658 4.7121,-4.20086c0.43366,-0.3526 0.73245,-0.97941 1.27899,-1.08659c0.0782,-0.08051 0.15599,-0.16147 0.23334,-0.24287l0.08862,-0.02159l0.00437,-0.00369l-0.02547,-0.03219l1.03548,-0.81975c0.20632,-0.16701 0.46726,-0.26987 0.75311,-0.27735c0.69013,-0.01803 1.26419,0.5268 1.28223,1.21691c0.01043,0.39892 -0.16722,0.75908 -0.4523,0.99546l-1.28366,1.08311c-1.48121,1.51852 -3.12707,2.87792 -4.77183,4.23076c-0.97055,0.87031 -1.94323,1.75604 -2.85996,2.72349l-0.0963,0.10146c0,0 -0.34229,0.36066 -0.82257,0.41116z" fill="#2f2f2f" stroke-width="0.5"></path>
          <path d="M199.03196,179.70039c0,0 -1.23172,-0.21303 -1.01868,-1.44476c0.21303,-1.23172 1.44476,-1.01868 1.44476,-1.01868c1.77757,0.34746 3.77085,0.13857 5.76295,-0.15979c0.22834,-0.82137 1.16799,-0.84593 1.16799,-0.84593l0.53317,-0.01394c1.3469,-0.03229 2.47858,-0.35289 3.19328,0.19506c0.09358,-0.00604 0.18666,-0.01129 0.27925,-0.0157l-0.00008,-0.00336l1.59945,-0.0418c0.69013,-0.01803 1.26419,0.5268 1.28223,1.21691c0.01803,0.69013 -0.5268,1.26419 -1.21691,1.28223l-1.43703,0.03756c-3.74835,0.10899 -7.82208,1.40539 -11.59034,0.81218z" fill="#2f2f2f" stroke-width="0.5"></path>
          <path d="M215.52332,148.71171c-0.36405,-0.25922 -0.73225,-0.51968 -1.10444,-0.78326c0,0 -1.01925,-0.72362 -0.29564,-1.74287c0.72362,-1.01925 1.74287,-0.29564 1.74287,-0.29564c3.51805,2.50454 6.747,4.74168 9.46497,8.1856l1.04565,0.99238c0.23204,0.22022 0.38008,0.52896 0.38909,0.87402c0.01803,0.69013 -0.5268,1.26419 -1.21691,1.28223c-0.29892,0.0078 -0.57607,-0.08998 -0.79569,-0.25943l-1.35281,-1.02544l0.13819,-0.18231l-0.03912,0.02258c-0.03047,-0.03832 -0.061,-0.07648 -0.09158,-0.1145c-2.65713,-1.23703 -4.93421,-3.04498 -6.99059,-5.30783l-0.64815,-0.90349c0,0 -0.23078,-0.3273 -0.24581,-0.74202z" fill="#2f2f2f" stroke-width="0.5"></path>
          <path d="M236.25634,180.46351c-0.09785,-0.33439 -0.09417,-0.68113 -0.01445,-1.01987c0.06767,-1.92077 2.18004,-4.16232 3.83852,-3.44263c0.81555,-0.03593 1.26648,0.41278 1.43238,1.07553c0.31458,0.20702 0.61482,0.49159 0.89022,0.86389c1.42785,1.93028 0.31901,3.86642 -1.21872,5.07685c-0.22012,1.21562 -1.4422,1.00425 -1.4422,1.00425c-0.00143,-0.00034 -0.00286,-0.00069 -0.00429,-0.00103c-0.4988,0.37465 -1.01363,0.73413 -1.55707,0.57994c-2.01166,-0.57078 -2.39315,-2.44961 -1.92439,-4.13691z" fill="#2f2f2f" stroke-width="0.5"></path>
        </g>
      </g>
    </g>
  </g>
</svg>
