<?xml version="1.0" encoding="UTF-8"?>
<svg xmlns="http://www.w3.org/2000/svg" xmlns:xlink="http://www.w3.org/1999/xlink" version="1.1" width="321.19994" height="336.77921" viewBox="0,0,321.19994,336.77921">
  <g transform="translate(-79.40002,-11.61039)">
    <g stroke="none" stroke-miterlimit="10">
      <path d="M88.31564,328.61039c0,0 16,-20.5985 16,-32.10001c0,-24.14805 -6.06414,4.50221 -10.04872,-44.1924c-0.59522,-7.27412 3.74438,-65.15844 3.01263,-73.75344c-0.23731,-2.78745 -17.45194,-68.53772 -17.64152,-71.24481c-1.94572,-27.78276 8.67761,-71.70934 8.67761,-71.70934c0,0 -12.60264,-21.46011 8.4239,-20.44654c5.86827,0.28288 21.73281,18.2132 32.25081,17.57214c19.88693,-1.21209 85.77117,-14.42446 107.91596,-15.43106c14.92427,-0.67839 40.54072,1.62046 54.14997,0.91386c29.89262,-1.55204 65.36001,-6.60839 73.85938,-6.60839c6.34357,0 25.39999,15 25.39999,15c0,0 -4.30426,16.55744 -1.677,49.84293c2.20947,27.99243 11.3705,71.03601 11.83896,94.14703c0.97157,47.9307 -4.16196,152.01005 -4.16196,152.01005c0,0 6.8751,16.10871 -32.52064,19.49727c-5.19656,0.44698 -28.0068,-7.08378 -34.50223,-6.59417c-5.41818,0.40841 -27.16192,3.80264 -33.24331,4.17608c-4.59181,0.28197 -30.28214,8.51628 -35.06363,8.69531c-8.42783,0.31554 -43.80911,-15.34526 -52.03061,-14.98105c-9.93324,0.44004 -39.34412,6.82986 -47.9634,7.15102c-2.72426,0.1015 -17.35563,-9.79234 -19.88468,-9.68134c-10.6975,0.46953 -30.35234,15.73688 -36.1915,15.73688c-17.79261,0 -16.6,-18 -16.6,-18z" fill="#d6d6d6" stroke-width="0"></path>
      <path d="M114.91564,303.51038l-11,-15c0,0 12.57555,13.59144 33.19615,18.10359c30.25914,6.62123 74.38191,5.22504 93.09351,7.37227c14.12883,1.62134 55.71035,9.52414 55.71035,9.52414l65,-5c0,0 -60.0161,13.57931 -88.76511,11.92299c-10.7767,-0.62088 -41.27907,-11.44 -57.09454,-13.84571c-8.9022,-1.35412 -54.71337,6.39113 -63.18379,5.2433c-39.11052,-5.29991 -26.95656,-18.32058 -26.95656,-18.32058z" fill="#9e9e9e" stroke-width="0"></path>
      <path d="M121.8722,32.25287c8.47042,-1.14784 54.2816,6.59742 63.18379,5.2433c15.81547,-2.4057 46.31783,-13.22483 57.09454,-13.84571c28.74901,-1.65632 88.76511,11.923 88.76511,11.923l-65,-5c0,0 -41.58152,7.9028 -55.71035,9.52414c-18.71159,2.14723 -62.83437,0.75104 -93.0935,7.37226c-20.6206,4.51215 -33.19615,18.10359 -33.19615,18.10359l11,-15c0,0 -12.15397,-13.02067 26.95656,-18.32058z" fill="#9e9e9e" stroke-width="0"></path>
      <path d="M130.64635,85.78782c-5.55743,1.04735 -7.59264,0.44975 -12.14631,-2.88782c0,0 -2.00001,-1.49999 -0.50001,-3.49999c1.49999,-2.00001 3.5,-0.50002 3.5,-0.50002c3.65863,2.82549 4.08544,2.8873 8.65362,1.91217l3.44636,-0.01217c0,0 0.07685,0 0.2036,0.01347c0.18827,-2.35522 0.11577,-4.18226 -0.94827,-7.0461c-0.88539,-2.38299 -1.67559,-3.05508 -2.96784,-5.13052c-2.49563,-4.00817 -6.85144,-11.51741 -12.93077,-9.42715c-0.82622,0.28408 -1.06479,1.39951 -1.71872,1.97893c-1.92548,1.70607 -3.79533,3.57702 -5.09423,5.79761c0,0 -1.28623,2.14374 -3.42997,0.85752c-2.14374,-1.28623 -0.85751,-3.42996 -0.85751,-3.42996c1.61729,-2.64099 3.73005,-5.01582 6.10572,-7.00244c1.06826,-0.89332 1.75785,-2.38789 3.08132,-2.82106c10.6696,-3.49212 19.299,8.96645 22.50142,17.44233c1.72844,4.5747 1.36775,7.5209 0.94676,12.27358c-0.25156,2.83993 -0.08333,5.77314 -0.89512,8.50617c-1.28716,4.33343 -3.71318,8.20064 -6.02587,12.02613c-0.51182,0.51704 -5.05353,5.15314 -5.53877,5.437c-1.01838,0.59575 -2.33681,0.44391 -3.42036,0.91076c-1.88689,0.81299 -3.53306,2.54716 -5.58687,2.60361c-3.35712,0.09228 -7.57853,-0.93141 -10.43572,-2.8263c-2.9446,-1.95285 -3.31852,-3.59303 -4.82485,-6.54559l-0.33168,-0.15024c0,0 -1.76776,-1.76777 0,-3.53553c1.76776,-1.76776 3.53553,0 3.53553,0l1.26829,1.44974c0.93699,1.92261 1.30362,3.45309 3.17516,4.65442c1.95383,1.25416 4.90919,1.94724 7.16425,1.97369c1.20207,0.01411 3.38028,-1.92668 4.01311,-2.19638c0.93783,-0.39968 2.08777,-0.19546 2.97967,-0.68922c1.69607,-0.93895 2.68212,-2.80054 4.0612,-4.16303c1.96315,-3.30145 4.04696,-6.66115 5.1742,-10.37383c0.54494,-1.79481 0.5386,-3.69818 0.5982,-5.58846z" fill="#696969" stroke-width="0.5"></path>
      <path d="M171.36776,98.33222c1.76779,1.76775 0.00004,3.53553 0.00004,3.53553l-2.4393,2.15345c-2.0134,0.50599 -4.10627,2.27283 -6.04019,1.51799c-1.60451,-0.62627 -1.80642,-3.01578 -2.13098,-4.70732c-0.41725,-2.17463 0.19038,-5.86739 0.65111,-8.65301c-0.82181,1.27219 -1.66925,2.53166 -2.56757,3.76507c-0.96314,1.32241 -1.58832,3.12017 -3.05801,3.83879c-1.85269,0.9059 -4.42325,1.78994 -6.15116,0.66415c-0.49298,-0.32119 -0.74717,-0.81377 -0.86777,-1.39299c-0.58187,1.05886 -1.19289,2.11095 -1.83728,3.16044c-1.59246,2.59357 -3.22762,5.0476 -6.52616,5.95342c-1.18967,0.3267 -2.39404,-0.59736 -3.59106,-0.89604c0,0 -2.37171,-0.79057 -1.58113,-3.16228c0.79058,-2.37171 3.16228,-1.58113 3.16228,-1.58113c2.25544,1.31336 3.19317,-1.1119 4.28281,-2.94262c2.50634,-4.21094 4.55679,-8.34706 6.29032,-12.92344l1.38073,-4.67416c0.2877,-1.0632 1.25922,-1.84537 2.41342,-1.84537c1.37275,0 2.48708,1.1064 2.49989,2.47612l0.04211,3.85386l-0.0474,0.00052c0.01344,0.08624 0.0257,0.17275 0.03669,0.25955c0.17881,1.41199 -0.58846,2.78587 -0.82502,4.18934c-0.12814,0.76026 -0.11516,1.81235 -0.17126,2.80171c0.15822,-0.22081 0.315,-0.44254 0.46628,-0.66773c0.90703,-1.35013 1.83225,-2.68859 2.70634,-4.06028c2.4707,-3.87721 4.6348,-7.6805 7.40168,-11.30593c0.16165,-0.32524 0.36504,-0.61186 0.64311,-0.82525c0.03619,-0.04546 0.07249,-0.0909 0.1089,-0.1363l0.81179,-2.22904c0.33382,-0.98798 1.26835,-1.69927 2.36901,-1.69927c1.38071,0 2.5,1.11929 2.5,2.5c0,0.2969 -0.05175,0.58172 -0.14674,0.84591l-0.78153,2.34466l-0.04594,-0.01531c-0.00454,0.06048 -0.00988,0.12097 -0.01608,0.18147c-0.12152,1.18636 -1.15252,2.09456 -1.60004,3.19998c-1.16646,2.88128 -1.60967,6.02056 -2.04471,9.0984c-0.22793,1.61253 -0.59875,3.20549 -0.76296,4.82576c-0.15027,1.4827 0.04172,2.99344 -0.17888,4.46733c-0.05017,0.33523 -0.89627,0.99626 -0.61138,0.81259c0.72352,-0.46648 1.30654,-1.12131 1.95981,-1.68196l0.76066,-1.04656c0,0 1.76775,-1.76779 3.53553,-0.00003z" fill="#696969" stroke-width="0.5"></path>
      <path d="M184.14387,82.63302c-0.14359,2.44296 -1.82679,4.48076 -2.45818,7.41658c-0.03767,0.17517 -0.60418,3.37507 0.50543,3.97319c3.37188,1.81757 6.26867,-2.97946 7.58722,-5.21447c3.12877,-5.30339 6.05229,-12.26685 6.61694,-18.41463c0.01304,-0.14191 -0.33135,-0.02915 -0.41942,0.08289c-0.7441,0.94666 -1.31349,2.01911 -2.0067,3.00366c-0.94438,1.34128 -1.93664,2.64821 -2.90496,3.97231l-1.84657,2.5237c0,0 -1.16737,1.59546 -2.84471,0.91075l-0.00119,0.00357c0,0 -0.57791,1.73376 -2.22787,1.74246zM187.02902,74.50004c2.25278,-3.0773 8.06417,-14.26608 13.37569,-7.09374c1.33572,1.80367 0.44743,4.49304 0.24869,6.72863c-0.15913,1.79013 -0.77821,3.51339 -1.31172,5.22957c-1.6568,5.32955 -4.47384,12.77527 -8.65442,16.56962c-1.57792,1.43214 -3.31209,3.00267 -5.40208,3.41835c-6.85896,1.36415 -9.38406,-4.75225 -8.53305,-10.11523c0.07942,-0.50048 2.8326,-8.83754 3.46846,-9.56206c0.07256,-0.08267 0.14663,-0.1637 0.22211,-0.24318l-0.04269,-0.03202l2.38257,-3.1767c0.45492,-0.62044 1.18914,-1.02326 2.01744,-1.02326c0.5197,0 1.00235,0.15857 1.40223,0.42998z" fill="#696969" stroke-width="0.5"></path>
      <path d="M238.83496,88.24777c1.45225,2.03494 -0.5827,3.48718 -0.5827,3.48718l-1.55118,1.10701c-5.00775,3.56715 -10.29274,6.60768 -15.91664,9.11187c-1.39653,0.61987 -2.9035,1.16329 -4.4657,1.67789c-2.1806,4.29852 -4.7186,8.40063 -7.81504,12.34991c-2.36307,3.01391 -3.65627,5.45513 -7.83634,6.52767c-4.19369,1.07604 -8.57446,-0.04188 -9.52579,-5.15533c-0.40387,-2.17083 0.68514,-4.42235 1.61848,-6.42348c2.31327,-4.95974 7.99535,-6.85563 12.67879,-8.53974c2.48857,-0.89486 4.94176,-1.72926 7.37747,-2.62492c0.89061,-2.0053 1.69966,-3.99677 2.44646,-5.89588c0.05131,-0.13048 0.102,-0.26309 0.15215,-0.39768c-2.73269,2.05778 -6.10076,4.16727 -8.84376,-1.03993c-1.02892,-1.95328 0.18847,-4.42912 0.622,-6.59384c1.06187,-5.30208 4.20917,-9.85247 7.74404,-13.80578c0.91257,-1.0206 1.70995,-2.27596 2.94852,-2.85935c4.88191,-2.29947 6.37213,-1.1695 6.91908,4.26955c0.10133,1.00766 0.12984,1.84063 0.09189,2.55892c1.33591,0.05079 2.40333,1.14983 2.40333,2.49817c0,0.2969 -0.05176,0.58172 -0.14674,0.84592l-0.78154,2.34463l-0.15219,-0.05073l0.02191,0.36743c-0.86513,1.2913 -1.73837,2.52317 -2.65518,3.69706c-0.11862,0.20761 -0.22665,0.41876 -0.31721,0.63555c-0.62533,1.49698 -1.03102,3.07676 -1.57817,4.60406c-0.75648,2.11164 -1.54684,4.17549 -2.38923,6.19548c5.11221,-2.31127 9.93372,-5.10574 14.49493,-8.36732l1.55117,-1.10701c0,0 2.03494,-1.45225 3.48719,0.5827zM218.61618,83.74599c0.0855,-0.20412 0.1731,-0.4059 0.26301,-0.60497c-0.0873,-0.04745 -0.17595,-0.10093 -0.2659,-0.16089c-2.08014,-1.38674 -0.6934,-3.46687 -0.6934,-3.46687c0.44825,-0.63517 1.10602,-1.16566 1.34475,-1.90551c0.2697,-0.83581 0.12568,-1.99757 0.15327,-2.9922c-0.26307,0.24084 -0.52545,0.48278 -0.75508,0.75177c-1.0168,1.1911 -2.035,2.38693 -2.93616,3.66775c-2.0617,2.93029 -4.40454,7.46841 -4.6978,11.13258c-0.02087,0.26084 0.52439,0.38058 0.74665,0.24245c0.74967,-0.46591 1.21361,-1.28514 1.87378,-1.87102c1.82838,-1.62263 3.45462,-3.13184 4.96687,-4.79309zM209.93845,105.63899c-3.94676,1.27846 -7.78569,2.76336 -10.70622,5.15464c-1.82833,1.49701 -5.51365,9.0841 0.10047,6.89709c1.09912,-0.42817 2.13897,-1.06566 3.00933,-1.86181c3.01566,-2.75853 5.49929,-6.35257 7.59642,-10.18992z" fill="#696969" stroke-width="0.5"></path>
      <path d="M306.78406,81.77894c1.52105,1.98404 -0.463,3.50509 -0.463,3.50509l-2.91001,2.20217c-2.23059,0.68794 -4.49671,2.85788 -6.69177,2.06384c-4.09055,-1.47972 -4.77828,-6.71181 -4.58963,-11.31375c-1.96841,2.35603 -4.0954,4.58708 -6.36186,6.83146c-1.19099,1.17939 -2.08685,2.78089 -3.59155,3.51935c-2.08559,1.02354 -4.75272,2.69315 -6.78929,1.57524c-1.74343,-0.957 -0.93923,-3.88846 -1.04305,-5.87456c-0.03592,-0.68718 -0.0337,-1.36492 0.00239,-2.03411c-4.49833,4.78763 -9.21626,9.32653 -14.41939,13.42587c-1.7758,1.39908 -3.60114,2.73158 -5.44553,4.03841c-2.5882,7.62458 -7.31959,13.92906 -12.10628,20.313c-3.12226,3.74939 -6.21143,9.10031 -11.30776,10.47833c-3.71976,1.00581 -7.06615,-0.09559 -7.91979,-4.3241c-0.75168,-3.72347 2.02113,-7.62348 4.08172,-10.21704c6.31085,-7.94312 14.76425,-13.46764 22.9347,-19.27294c0.43424,-1.15197 0.8404,-2.33337 1.21762,-3.55006c0.00002,-0.00008 2.26988,-6.37101 1.23022,-7.29804c-1.40914,-1.25647 -4.55558,-0.06177 -5.38406,-1.75825c-0.57767,-1.18289 4.75698,-7.31979 5.22098,-8.04933c1.34705,-2.11792 1.9747,-4.63089 2.64388,-7.05071c-0.76,0.46032 -1.70324,0.62109 -2.43077,1.13929c-1.74106,1.24009 -2.65832,3.5538 -3.01032,5.66217c0,0 -0.49028,2.45145 -2.94174,1.96117c-2.45146,-0.49029 -1.96117,-2.94174 -1.96117,-2.94174c1.1581,-5.1857 3.19063,-8.91227 8.69469,-10.6194c1.46784,-0.45526 3.29995,-1.56196 4.55976,-0.6818c1.56553,1.09376 1.88021,3.43452 2.09625,5.33201c0.41341,3.63096 -2.1848,9.06936 -4.95676,12.35509c0.32253,0.32742 0.67062,0.71109 1.04565,1.15731c1.50145,1.78645 1.41779,4.52297 1.41384,6.85658c-0.00064,0.37721 -0.20741,1.25104 -0.51364,2.34069c7.21858,-5.72604 13.46511,-12.33481 19.52271,-19.25931c0.35085,-0.40097 0.70112,-0.80245 1.05086,-1.20439c1.05419,-2.19644 2.22466,-4.34982 3.30202,-6.50451c0,0 1.11805,-2.23606 3.35411,-1.11801c0.02796,0.01398 0.05539,0.02814 0.08231,0.04246c0.65107,-0.38916 1.69024,-0.67855 2.82659,0.29547c1.89814,1.62698 0.27116,3.52512 0.27116,3.52512l-1.54603,1.8037c-1.41251,1.6479 -2.82807,3.29322 -4.25176,4.93147c-0.87448,1.88431 -1.60517,3.81858 -1.99045,5.8348c-0.29035,1.51944 -0.00518,3.12297 -0.37153,4.6259c-0.0161,0.06602 -0.04635,0.14126 -0.08703,0.22232c4.55973,-5.5007 10.01316,-9.99364 13.74462,-16.2272l1.54375,-3.08755c0.40085,-0.84562 1.26229,-1.43042 2.2603,-1.43042c1.38071,0 2.5,1.11929 2.5,2.5c0,0.2969 -0.05176,0.58172 -0.14675,0.84592l-0.73716,2.21149c-0.03093,2.81552 -1.1911,5.53742 -1.2686,8.35235c-0.03865,1.40403 0.03909,2.82061 0.27983,4.20438c0.16354,0.93998 0.00763,2.44033 0.923,2.70942c0.9848,0.2895 1.72084,-1.11953 2.58125,-1.67929l2.34737,-1.82833c0,0 1.98404,-1.52104 3.50509,0.463zM245.91419,105.7383c-2.79419,2.02277 -5.52303,4.13295 -8.07805,6.4761c-3.19502,2.93006 -7.1507,6.50827 -9.12644,10.44232c-0.53751,1.07027 -1.507,4.23995 1.02296,3.034c3.39496,-1.61826 3.14354,-2.04463 5.56008,-4.96842c1.04817,-1.26818 2.10651,-2.52792 3.15976,-3.79188c2.80767,-3.74713 5.30934,-7.37995 7.46168,-11.19211z" fill="#696969" stroke-width="0.5"></path>
      <path d="M183.07584,225.91031c-0.0285,-0.02714 -0.05612,-0.0543 -0.08289,-0.08148c-0.3681,0.31245 -0.75777,0.58853 -1.18862,0.79523c-0.04119,0.04218 -0.08237,0.08439 -0.12353,0.1266l-0.1536,0.05829l0.03456,0.04321l-0.48728,0.38983c0.69493,0.77517 0.68117,2.02337 1.17133,2.95966c1.34118,2.56189 3.06438,4.39309 4,7.20001c1.55619,2.33428 1.94738,4.56383 4.13916,6.36496c3.13667,2.57761 7.10141,2.11761 10.81548,2.66565c0.70631,0.10422 1.28567,0.75793 1.99957,0.76771c2.49579,0.03419 5.43597,-1.64785 7.54518,-2.86223c2.3244,-1.33828 5.58565,-2.49436 7.53677,-4.4539c3.71141,-3.72744 4.47146,-8.43186 6.67227,-12.88223c0.79296,-1.60349 1.83428,-3.10294 2.39997,-4.79999c1.7212,-2.54231 2.28228,-4.2333 5.52132,-5.29437c1.7911,-0.58674 3.75508,-0.37705 5.61996,-0.65403c-1.06256,0.01527 -1.86329,-0.78547 -1.86329,-0.78547l-0.62277,-0.99605c-4.31562,-1.43856 -8.55898,-3.11033 -13.11485,-3.09045c-8.77151,-2.15034 -17.38523,-4.22794 -26.19558,-1.68097c-0.24461,0.07072 -0.51675,0.13817 -0.80911,0.20447c-0.02363,0.05376 -0.04908,0.10654 -0.0763,0.15824l-1.57748,3.15502l-0.04154,-0.02077c-0.03512,0.0958 -0.07235,0.19102 -0.11183,0.28561c-0.25866,0.61983 -0.64366,1.16374 -1.08744,1.67138c1.61208,1.56207 0.12529,3.34622 0.12529,3.34622c-1.08501,1.30129 -2.17002,2.60258 -3.25503,3.90387l-3.25525,3.41986c0,0 -1.72418,1.8103 -3.53448,0.08613zM162.10689,220.10864l0.08791,0.06696l0.11221,-0.29873c0.34779,-0.28026 0.69559,-0.56051 1.04338,-0.84077c-1.15334,-0.34874 -2.36963,-0.60925 -3.58464,-0.87739l-0.5171,1.03422c0.39518,-0.12053 0.80424,-0.23121 0.98565,0.00843c0.54571,0.72087 -0.55922,2.17095 0.16876,2.70712c0.07744,0.05704 0.16291,0.08963 0.25454,0.10292zM177.7497,213.27537l0.25655,-0.05752l-0.03539,-0.06957l3.25142,-1.65403c0.35093,-0.18776 0.75189,-0.29423 1.17772,-0.29423c0.00875,0 0.01749,0.00005 0.02622,0.00014c1.47534,-1.34632 2.87744,-2.72794 4.25949,-3.62676c0.65778,-0.4278 1.44473,-0.77181 2.29273,-1.06224l1.44775,-1.15368c0.42972,-0.34859 0.9774,-0.55748 1.57385,-0.55748c0.58367,0 1.12062,0.20002 1.54605,0.53525c0.62339,-0.1422 1.21712,-0.28351 1.75497,-0.43555c9.46619,-2.67596 18.80203,-0.88985 28.20444,1.51904c4.89047,0.02012 9.45805,1.76721 14.0851,3.30958l1.79756,1.53725c-0.00658,-1.45129 -0.08541,-2.90645 -0.25588,-4.36509c-0.25376,-2.17135 -1.76465,-4.01769 -2.33978,-6.12681c-0.40941,-1.5014 -0.49237,-3.07325 -0.73855,-4.60987c-3.42722,-5.62919 -5.94309,-11.99184 -10.73827,-16.79369c-8.11321,-8.12451 -20.07284,-12.35014 -31.16204,-13.58226c-4.82934,-0.53659 -8.77077,-1.28769 -13.60515,-0.04874c-5.63795,1.12518 -11.14109,2.38503 -16.64948,3.96121c-0.50831,0.14545 -4.30231,0.98789 -5.20063,1.44549c-2.72756,1.38942 -5.26775,2.64564 -7.99999,3.99999c-1.65909,0.8224 -3.55538,1.07021 -5.24887,1.81919c-2.58805,1.14461 -4.90021,2.83952 -7.25453,4.40965c-5.45445,3.63765 -11.82853,7.55267 -15.18052,13.48567c-0.99122,1.75445 -1.48023,3.7539 -2.37841,5.55775c-1.44324,2.85423 -3.09307,6.64394 -3.78118,9.75476c-0.22517,1.01796 0.16414,2.09613 0.01283,3.12765c-0.05311,0.36207 -0.13556,0.71791 -0.23582,1.06997c0.74792,-0.48506 1.50423,-0.93437 2.26976,-1.31621c3.9112,-1.95088 7.74081,-2.10228 11.89793,-2.62192c0.83675,-0.10459 1.5647,-0.68413 2.39996,-0.79999c3.82273,-0.53022 7.40633,0.31218 11.10594,0.78644c3.18654,0.40848 6.9032,-0.76622 10.01898,0.08854c1.0232,0.2807 1.71288,1.2858 2.68694,1.70645c2.71047,1.17051 6.05535,1.47502 8.88698,2.44049c0.5445,0.45597 0.93393,1.24542 1.63349,1.36792c0.00557,0.00098 0.01113,0.00187 0.01668,0.00269c0.12734,-0.03045 0.26204,-0.0528 0.40207,-0.06273c0.41662,-0.18118 0.78872,-0.65798 1.24892,-0.7298c2.02823,-0.31651 4.11807,0.21385 6.15986,0.02559c0.77822,-0.67006 1.57304,-1.33099 2.39029,-1.98251zM176.09569,230.52348c-0.3957,0 -0.76993,-0.09193 -1.10249,-0.2556c-1.86265,-0.33282 -2.99079,-0.15249 -5.09481,0.8779c-7.385,3.61663 -7.19606,12.86688 -11.965,18.53919c-3.6381,4.32726 -8.12085,5.5147 -13.23437,7.21536c-4.04091,0.99063 -6.75363,0.63112 -10.69947,0.06743c-1.05594,-0.15085 -2.14601,0.16402 -3.19998,-0.00001c-2.41044,-0.37513 -3.96421,-1.5892 -6.15626,-2.55804c-0.96542,-0.42669 -2.12757,-0.4749 -2.96074,-1.12292c-0.72881,-0.56686 -1.01518,-1.54461 -1.56679,-2.28758c0.30028,1.5915 0.56207,3.1889 0.7655,4.79534c0.67969,5.36733 0.96653,10.24679 3.03993,15.37697c1.66898,4.21285 3.86828,10.46123 7.79313,13.20188c0.64393,0.44964 1.56404,0.32249 2.24594,0.71216c1.15765,0.66154 2.04754,1.72951 3.20005,2.39998c3.27112,1.90299 8.08112,2.65967 11.68687,3.86159c3.78164,1.26056 7.34467,2.73733 11.35905,3.06137c1.36829,0.11045 2.59514,0.19293 3.7568,0.17473l-0.06304,-0.08321c0,0 0,-2.5 2.5,-2.5c0.89521,0 1.46985,0.32056 1.83873,0.7321c4.05292,-0.31986 7.88444,-1.70844 11.77074,-3.00384c2.97539,-0.99178 6.49411,-1.67075 9.29216,-3.07409c1.7189,-0.8621 3.08154,-2.33711 4.80003,-3.2c0.68148,-0.34218 1.55112,-0.25548 2.18403,-0.68084c0.939,-0.63107 1.4565,-1.77561 2.4,-2.39995c0.77077,-0.51004 1.78777,-0.50885 2.61592,-0.91921c2.57307,-1.27499 5.29815,-3.46616 7.51342,-5.28755c2.38268,-1.95902 3.91322,-4.7141 6.09636,-6.90467c3.25555,-4.34129 6.88558,-8.57729 10.3553,-12.74694c1.50197,-1.80495 3.36769,-3.33471 4.60672,-5.32934c4.14253,-6.66875 6.27147,-14.78312 7.67325,-22.36626c0.33424,-1.8081 0.66492,-3.62466 0.95186,-5.44891c-0.02565,-0.01836 -0.05064,-0.03714 -0.07499,-0.05631c-2.74028,0.34647 -4.74622,0.2592 -6.57773,3.08419c-0.56568,1.69705 -1.59202,3.20399 -2.39996,4.79998c-2.53158,5.00086 -3.51132,10.11513 -7.72776,14.31772c-2.263,2.25557 -5.74705,3.60465 -8.46323,5.1462c-2.87257,1.63029 -6.62181,3.50743 -10.05479,3.53768c-0.9738,0.00858 -1.83586,-0.69854 -2.80048,-0.83227c-4.66736,-0.64706 -9.29512,-0.46523 -13.18452,-3.73437c-3.00619,-2.52678 -3.4093,-4.95767 -5.46081,-8.03494c-0.53069,-1.59209 -1.30345,-3.11531 -2.23436,-4.51166c-0.5947,-0.89204 -1.30769,-1.71897 -1.76564,-2.68835c-0.25064,-0.53055 0.06342,-1.28815 -0.32197,-1.73063c-0.26582,-0.30519 -0.78399,-0.11212 -1.20291,-0.1478c-0.04426,0.00233 -0.08883,0.00351 -0.13368,0.00351zM156.62376,234.34074c0.00564,-0.0057 0.01132,-0.01137 0.01702,-0.01702l0.79152,-0.79149l0,0c0.45241,-0.4524 1.0774,-0.73221 1.76774,-0.73221c0.01618,0 0.03231,0.00016 0.04841,0.00046l0.77281,-3.06963c0.65481,-0.49588 1.15094,-0.86635 1.5156,-1.13618l0.22535,-0.23342c-0.85117,0.5071 -2.30787,1.26727 -2.68742,0.74809c-0.51884,-0.70971 0.21978,-1.63839 0.65778,-2.54716c-0.25672,-0.28821 -0.44771,-0.63624 -0.54948,-1.02057c-0.40107,0.44685 -0.86486,0.9947 -1.18607,0.74992c-1.05005,-0.8002 -0.59258,-2.67338 -1.43134,-3.69289c-0.69096,-0.83987 -2.64016,-0.48008 -2.87536,-1.54191c-0.01472,-0.06644 -0.02243,-0.13136 -0.0238,-0.1949l-1.30348,0.65174c-0.34741,0.18291 -0.74312,0.28642 -1.16302,0.28642c-1.38071,0 -2.5,-1.11929 -2.5,-2.5c0,-0.52532 0.16202,-1.01279 0.43883,-1.41518l1.58102,-2.37155l0.16789,0.11193l0.14447,-0.49295c0.04773,-0.03283 0.09546,-0.06564 0.14319,-0.09847c-1.73504,-0.0717 -3.73904,0.27974 -5.53396,0.38043c0.19414,0.57439 0.12255,1.08623 -0.04716,1.50504c-0.17694,0.62522 -0.55354,1.01787 -0.95678,1.26446c0.16796,0.336 0.26245,0.71511 0.26245,1.1163c0,0.61476 -0.22189,1.17768 -0.58995,1.61307l-2.92252,3.50704c0.67077,0.44835 1.1125,1.21257 1.1125,2.07995c0,0.59805 -0.20999,1.14705 -0.56027,1.57729l-0.37699,0.47123c0.39555,0.31716 0.6926,0.75211 0.83798,1.25163l0.03338,0.00209l-0.02466,-0.07397l2.3446,-0.78153c0.2642,-0.09499 0.54902,-0.14675 0.84593,-0.14675c0.13484,0 0.26719,0.01068 0.39625,0.03123l0.58861,-0.3924c0.40239,-0.27679 0.88986,-0.43881 1.41517,-0.43881c1.38071,0 2.5,1.11929 2.5,2.5c0,0.29737 -0.05192,0.58261 -0.14719,0.84715c0.26456,-0.09527 0.54981,-0.1472 0.8472,-0.1472c1.38071,0 2.5,1.11929 2.5,2.5c0,0.02227 -0.00029,0.04446 -0.00087,0.06659c0.81562,0.31449 1.42485,1.0443 1.5685,1.93022zM140.09841,250.67657c-0.1598,0.12793 -0.31894,0.25412 -0.47646,0.37882l-0.52648,0.02333l0.04276,0.16076l-3.24057,0.86188c-0.07897,0.0229 -0.15954,0.04201 -0.24151,0.05712c2.09898,0.3165 3.61859,0.5757 5.5774,0.33944c-0.422,-0.42423 -0.8059,-1.01836 -1.13514,-1.82134zM132.70004,249.69998c0,-0.31529 0.05837,-0.61696 0.16488,-0.89477c-0.36254,0.10442 -0.65537,0.13415 -0.85134,0.06789c-0.02453,-0.0083 -0.04889,-0.01666 -0.07304,-0.02511c-0.0063,0.00186 -0.01261,0.00372 -0.01892,0.00557l0.01235,0.03705l-4.30733,1.43574c1.21981,0.63692 3.038,1.58683 3.97387,1.70596c0.85523,0.10887 1.72863,-0.05681 2.58969,-0.04469c-0.87769,-0.38801 -1.49016,-1.2663 -1.49016,-2.28765zM124.04675,247.25404l0.67484,-2.02439c-0.01421,-0.10787 -0.02154,-0.21791 -0.02154,-0.32966c0,-0.34825 0.07121,-0.67988 0.19985,-0.98111l0.16923,-0.42307c-1.12045,-0.04614 -2.16021,-0.28295 -2.89764,-0.96143c-0.18354,0.04292 -0.37486,0.06562 -0.57149,0.06562c-0.51126,0 -0.98668,-0.15347 -1.38269,-0.41685c0.15004,1.2945 0.14582,2.659 0.96949,3.59936c0.56332,0.64312 1.57643,0.74517 2.18097,1.34971c0.23524,0.23524 0.39234,0.53476 0.53518,0.84516c0.01221,-0.25278 0.06196,-0.49572 0.1438,-0.72334zM132.05919,234.55913l0.57306,0.57307c0.08351,-0.08351 0.1729,-0.16114 0.2675,-0.2322c-0.27434,-0.20612 -0.50489,-0.46736 -0.67521,-0.76728zM143.39552,242.6092l0.26418,-0.10566l0.32836,-0.49254c-0.18519,-0.15637 -0.34734,-0.33917 -0.48063,-0.54259zM119.02031,235.07827l-0.73062,0.69452c0.0896,0.27161 0.18052,0.54287 0.27202,0.81367l0.73559,-1.4712c-0.09388,-0.00724 -0.18631,-0.01966 -0.277,-0.03698zM128.08248,215.85087l0.0841,-0.12003c-0.06643,0.0071 -0.13277,0.01427 -0.19904,0.02155c0.03931,0.03168 0.07764,0.06453 0.11494,0.09848zM117.47129,219.83456c0.03171,0.0773 0.05901,0.15365 0.08254,0.22781l0.36378,-0.54565c-0.14911,0.10521 -0.29789,0.21127 -0.44631,0.31785zM173.01804,297.0149c-0.35251,0.34746 -0.69998,0.52119 -0.69998,0.52119c-4.28483,2.0568 -7.69822,2.26866 -12.52423,1.85539c-4.48339,-0.38394 -8.30876,-1.89457 -12.52779,-3.30093c-7.86344,-2.62117 -16.42942,-4.76406 -21.99936,-11.20557c-2.63388,-3.04602 -4.50864,-8.18984 -5.98787,-11.8565c-2.19882,-5.54797 -2.64504,-10.81895 -3.36009,-16.62303c-1.16124,-9.42577 -4.4347,-18.5545 -5.59998,-28c-0.36605,-2.96712 -0.37587,-7.24507 0,-10.21091c0.24807,-1.9574 1.34244,-3.74066 1.61353,-5.69501c0.14987,-1.08043 -0.22475,-2.20772 0.01283,-3.27231c0.79664,-3.56986 2.59372,-7.76327 4.21882,-11.04528c0.91869,-1.82887 1.39947,-3.86909 2.42164,-5.6422c3.86267,-6.70038 10.59305,-11.16492 16.81947,-15.31438c2.6181,-1.74477 5.21673,-3.58016 8.08977,-4.86248c1.61033,-0.71874 3.4325,-0.91413 5.00681,-1.70867c9.85987,-4.97619 19.98156,-7.59496 30.94994,-9.79332c5.36738,-1.31286 9.83981,-0.64373 15.19477,-0.04874c12.27148,1.36347 25.27783,6.10636 34.24674,15.06473c5.30357,5.29735 8.13969,12.28603 11.85296,18.55932c0.28718,1.66339 0.41734,3.36165 0.86155,4.99015c0.39626,1.45273 2.22896,4.91117 2.46015,6.67319c0.95362,7.2682 -0.30524,14.60465 -1.61432,21.68105c-1.50496,8.1353 -3.84652,16.90245 -8.32675,24.03376c-4.26794,6.7934 -10.63235,12.317 -15.43801,18.72364c-2.42459,2.41603 -4.06994,5.27666 -6.70369,7.49536c-2.45292,2.06637 -5.61868,4.46623 -8.48658,5.9124c-0.68089,0.34335 -1.55111,0.25552 -2.18402,0.68089c-0.93901,0.63109 -1.45654,1.77564 -2.40005,2.39998c-0.77076,0.51002 -1.78852,0.50725 -2.61589,0.91914c-1.72146,0.85699 -3.07927,2.3417 -4.80007,3.20002c-2.26325,1.12889 -5.1039,1.72467 -7.50776,2.52594c-3.65327,1.21774 -7.26033,2.5324 -10.97256,3.34317z" fill="#696969" stroke-width="0.5"></path>
      <path d="M162.48787,270.25371l-1.52925,1.20493l0.80916,0.80918l-2.26298,2.26292c1.1885,1.47805 2.68404,2.89634 4.48019,4.43591c0.79181,0.6787 1.8467,1.02687 2.58281,1.76561c0.7567,0.75941 1.04556,2.83502 2.055,2.47401c5.4541,-1.95061 10.76235,-5.16875 15.59045,-8.3864c0.2273,-0.15148 4.84024,-3.21341 4.90408,-3.30274c1.09482,-1.5317 1.20289,-5.66517 1.18269,-7.41712v-0.79999c0,0 0,-0.97074 0.60491,-1.70242c-0.13924,-0.05899 -0.26468,-0.12885 -0.37768,-0.20684c-0.64016,0.5867 -1.2924,1.15719 -2.01288,1.63587c-0.76982,0.51147 -1.79003,0.50433 -2.61597,0.91914c-4.61007,2.31531 -10.21519,5.10465 -15.59436,5.05241c-2.50006,-0.02428 -5.26617,-1.9343 -7.70662,-2.4719c-1.01436,-0.22345 -2.01137,-0.42165 -2.99861,-0.61686c-0.56673,1.9343 0.53427,2.01377 2.88906,4.34429zM195.30002,263.30001v0.79999c-0.02487,2.77363 -0.31789,7.80269 -2.01726,10.18284c-0.81285,1.13849 -4.76249,3.67459 -6.29599,4.69727c-4.50152,3.00203 -8.97566,5.28531 -13.96261,7.40049c-1.36082,0.57718 -2.5716,1.72136 -4.04692,1.81308c-4.69115,0.29164 -3.58273,-1.57181 -5.945,-3.9259c-2.83438,-2.82457 -6.59533,-4.95925 -9.0603,-8.30597c-2.66853,-3.62307 -2.85335,-7.59074 -2.87193,-11.86181c0,0 0,-0.2099 0.06082,-0.50805c-0.58819,-0.46663 -1.19015,-1.30971 -0.7325,-2.68258c0.7906,-2.37169 3.1623,-1.58109 3.1623,-1.58109c3.42102,1.14328 6.68861,1.55617 10.21205,2.34544c1.92378,0.43093 4.75133,2.35886 6.69328,2.32815c4.60377,-0.07281 9.25256,-2.58076 13.20569,-4.54768c0.68274,-0.3397 1.55039,-0.25661 2.18409,-0.68083c1.70707,-1.14276 3.02275,-2.80735 4.72754,-3.95349l3.88676,4.48014c0,0 0,0.97075 -0.60491,1.70243c1.4049,0.59512 1.40489,2.29757 1.40489,2.29757z" fill="#696969" stroke-width="0.5"></path>
      <path d="M217.74468,239.443c-0.28468,0.21293 -0.56708,0.42884 -0.84603,0.64929c-1.25698,0.9934 -2.11563,2.70545 -3.66528,3.10989l-3.46557,3.46557h0l-0.34775,-0.34775l-1.42002,1.07998c0.16178,-0.69167 0.2803,-1.39928 0.38977,-2.11023l-1.1889,-1.1889l-2.42357,1.93886c-0.43024,0.35028 -0.97924,0.56028 -1.57729,0.56028c-1.38071,0 -2.5,-1.11929 -2.5,-2.5c0,-0.22873 0.03072,-0.45029 0.08825,-0.66077l-3.85009,1.88888c0.17374,-1.00688 0.24228,-2.04558 0.34413,-3.0742l-1.71935,0.85966c-0.34741,0.1829 -0.74312,0.28642 -1.163,0.28642c-0.13691,0 -0.27126,-0.01101 -0.40219,-0.03218l-1.54529,2.15987c-0.4517,0.64818 -1.20258,1.07233 -2.05252,1.07233c-1.38071,0 -2.5,-1.11929 -2.5,-2.5c0,-0.4199 0.10352,-0.81562 0.28643,-1.16304l1.36635,-2.73265c-0.30027,0.01026 -0.59415,-0.04224 -0.87751,-0.18166c-1.24257,-0.61139 -1.79735,-2.10919 -2.13651,-3.56304c-1.99593,-1.45216 -3.14956,-3.88326 -2.23619,-6.43505c-0.19564,-0.35646 -0.30691,-0.76579 -0.30691,-1.20111c0,-0.5653 0.18763,-1.08679 0.50401,-1.50557l0.7112,-0.96401c0.08144,-0.41727 0.26668,-0.79742 0.52774,-1.11246l3.14836,-3.86074l0.03501,0.02855c0.0467,-0.07537 0.09434,-0.15024 0.14295,-0.2246c0.17158,-0.26245 0.37083,-0.49982 0.58984,-0.71927c-0.5814,-0.45776 -0.95473,-1.16796 -0.95473,-1.96536c0,-0.69035 0.27982,-1.31534 0.73222,-1.76775l3.19995,-3.20002l0.01851,0.0185c0.80639,-1.0325 1.88491,-1.91719 3.63497,-2.77737c1.7214,-0.84609 3.70145,-2.52308 5.47105,-1.78308c1.68106,0.70298 2.44155,1.61411 2.65805,2.59801l2.81511,-2.23385c0.42224,-0.34119 0.95779,-0.54771 1.54136,-0.55429c0.35392,-0.59379 0.68655,-1.19941 0.99272,-1.81821c0,0 1.11806,-2.23606 3.35412,-1.118c2.23605,1.11806 1.118,3.35412 1.118,3.35412c-0.64924,1.28676 -1.3924,2.5257 -2.19621,3.72648c0.96759,0.34502 1.66017,1.26935 1.66017,2.35544c0,0.34826 -0.07121,0.6799 -0.19987,0.98113l-1.57898,3.94736l-0.40041,-0.16016c-0.14803,0.4369 -0.3131,0.86591 -0.49894,1.2845c0.17776,0.34358 0.27817,0.73368 0.27817,1.14721c0,0.18572 -0.02025,0.36672 -0.05867,0.5409l-0.40216,2.0108l0.31493,-0.10497c0.2642,-0.09499 0.549,-0.14674 0.84591,-0.14674c1.24978,0 2.28537,0.91707 2.47053,2.11499l0.11427,-0.07618c0.40239,-0.27681 0.88987,-0.43884 1.4152,-0.43884c0.84637,0 1.59451,0.42059 2.04681,1.06417l2.13797,-1.42532c0.40239,-0.2768 0.88987,-0.43883 1.41519,-0.43883c0.85683,0 1.61299,0.43105 2.06345,1.08813c0.28414,0.17821 0.56207,0.44323 0.81664,0.82507c1.38679,2.0801 -0.69332,3.46689 -0.69332,3.46689l-2.37152,1.58107c-0.4024,0.27682 -0.88988,0.43886 -1.41522,0.43886c-0.49399,0 -0.95451,-0.14327 -1.34229,-0.39053l-1.36922,0.5477c0.10815,0.06517 0.21095,0.13829 0.30762,0.21857c0.04847,-0.0353 0.08978,-0.06549 0.12332,-0.09016l0.08794,0.28715c0.42908,0.44886 0.69263,1.05729 0.69263,1.72727c0,0.14307 -0.01202,0.28332 -0.0351,0.41982l0.21217,0.69281l2.00352,0.90178c-0.46864,0.34421 -0.94189,0.68236 -1.41461,1.0212l0.10172,0.33216c0,0 -0.68233,0.6823 -1.62306,0.77521zM205.54138,220.53158c0.05123,0.04018 0.10086,0.08231 0.14877,0.12628l0.22977,-0.34464v0c0.08742,-0.12969 0.17828,-0.25792 0.27241,-0.38435l-0.06197,0.0155c-0.20156,0.20283 -0.39895,0.39936 -0.58898,0.58721zM204.86532,230.77632l0.50815,-0.16939c-0.06823,-0.07299 -0.13215,-0.15007 -0.19133,-0.23083c-0.10223,0.13544 -0.20817,0.26864 -0.31681,0.40022zM213.68582,233.83819l0.42845,-0.28563c-0.15204,-0.07342 -0.29553,-0.16179 -0.42853,-0.26319c0.00917,0.18591 0.00926,0.36946 0.00008,0.54882z" fill="#696969" stroke-width="0.5"></path>
      <path d="M236.16776,214.33224c1.76776,1.76776 0,3.53554 0,3.53554l-1.9614,1.45757c-0.91598,0.21661 -1.83012,0.44089 -2.74298,0.67037l-2.04816,1.36544c-0.40239,0.2768 -0.88986,0.43883 -1.41519,0.43883c-1.38071,0 -2.5,-1.11929 -2.5,-2.5c0,-0.29691 0.05176,-0.58172 0.14674,-0.84592l0.28684,-0.86054l-0.47288,0.11822c-0.21046,0.05752 -0.43201,0.08823 -0.66072,0.08823c-1.38071,0 -2.5,-1.11929 -2.5,-2.5c0,-0.52532 0.16202,-1.01279 0.43883,-1.41518l1.46252,-2.19382c-0.19221,-0.35408 -0.30138,-0.75978 -0.30138,-1.19099c0,-1.3015 0.99456,-2.37072 2.26513,-2.48911c0.50588,-0.57437 1.49021,-1.27833 2.95297,-0.54693c2.23605,1.11806 1.118,3.35412 1.118,3.35412c-0.2114,0.42141 -0.42279,0.84282 -0.63418,1.26423l2.68672,-0.0203c-0.17758,0.87286 -0.35516,1.74573 -0.53274,2.6186c0.42147,-0.05117 0.84258,-0.10302 1.23777,-0.20596l-0.36143,-0.1424c0,0 1.76777,-1.76776 3.53553,0z" fill="#696969" stroke-width="0.5"></path>
      <path d="M126.88202,208.73608c-2.23607,-1.11802 -1.11806,-3.3541 -1.11806,-3.3541l1.68158,-3.35017c2.40286,-3.46417 5.27093,-5.59003 8.71053,-7.97265c1.29415,-0.89646 2.38018,-2.17577 3.85339,-2.73086c1.14999,-0.4333 2.46601,0.04544 3.68511,-0.10956c4.03229,-0.5127 7.62111,-0.99461 10.99409,2.44324c2.05211,2.09158 2.188,7.03551 2.21134,9.638c0,0 0,2.5 -2.5,2.5c-2.5,0 -2.5,-2.5 -2.5,-2.5c0.01408,-1.22105 0.1115,-5.30621 -0.98861,-6.36199c-2.12168,-2.0362 -4.2921,-1.03938 -6.60589,-0.75671c-0.89902,0.10983 -1.86615,-0.42566 -2.71491,-0.10956c-1.02498,0.38173 -1.66823,1.41745 -2.54664,2.06913c-2.74124,2.0337 -5.34726,3.53712 -7.28947,6.42731l-1.51837,3.04986c0,0 -1.11802,2.23607 -3.35409,1.11806z" fill="#696969" stroke-width="0.5"></path>
      <path d="M201.7678,193.86777c-1.76776,1.76776 -3.53553,0 -3.53553,0l-2.80848,-2.88067c-1.85636,-0.71822 -4.4847,-1.9344 -6.5643,-1.98781c-4.70226,-0.12076 -8.19431,7.39512 -7.22633,11.32633c0.23942,0.97232 0.93529,1.77091 1.40293,2.65637c0,0 1.11802,2.23608 -1.11806,3.3541c-2.23607,1.11802 -3.3541,-1.11806 -3.3541,-1.11806c-0.59901,-1.24788 -1.51657,-2.38815 -1.79702,-3.74365c-1.49141,-7.20846 3.91872,-17.34906 11.97362,-17.47366c3.3281,-0.05148 6.48458,1.60407 9.4357,2.81218l3.59155,3.51934c0,0 1.76776,1.76777 0,3.53554z" fill="#696969" stroke-width="0.5"></path>
      <path d="M222.83829,286.80217c-0.32904,-0.26399 -0.65104,-0.52934 -0.96544,-0.79666c-3.86485,-2.24604 -7.07512,-5.4285 -8.97071,-9.77068l-0.47385,-1.39427c0,0 -0.79055,-2.37171 1.58116,-3.16227c0.24863,-0.08288 0.47989,-0.131 0.69468,-0.15074c0.05274,-3.19212 0.55813,-6.90741 3.29716,-8.99954c3.00646,-2.2964 6.12961,-2.46976 9.21922,0.01831c1.04627,0.84256 1.77516,2.09788 2.20324,3.39686c1.46876,-1.35726 4.06154,-3.0438 5.38571,-3.46489c5.47959,-1.74251 7.71672,0.54301 10.7112,4.64192c0.18593,1.35253 0.71037,2.70089 0.55778,4.05758c-0.14142,1.25737 -0.88589,2.37269 -1.41049,3.52411c-1.6716,3.66891 -5.17427,7.91786 -9.34736,10.49953c1.87494,0.2429 3.72964,0.34859 5.47941,0.34859c12.2999,0.01098 28.02218,-0.69271 38.57222,-7.95217c9.59829,-6.60457 15.48818,-18.90603 18.22749,-29.8468c1.38915,-4.12019 1.15714,-8.34168 1.94743,-12.58416c1.08745,-5.83772 0.8297,-10.61533 0.36177,-16.5061c-0.33967,-4.27606 -0.70924,-8.71305 -1.64102,-12.99404c-1.37657,2.23898 -3.09849,4.12398 -4.92494,5.29196c-1.46693,0.93808 -3.25905,1.2272 -4.88858,1.8408l-1.65437,0.15052c0,0 -2.12807,0 -2.45741,-1.9634c-8.61231,0.26666 -14.93974,-11.78206 -13.16999,-19.13466c0.38611,-1.60411 2.31323,-6.32444 3.64243,-7.3353c3.34333,-2.54262 5.30839,-1.37553 8.07442,0.89061c0.60973,0.49953 1.20018,1.07897 1.62766,1.7467c0.53266,-0.82574 1.42719,-1.62898 2.13273,-2.00801c0.6263,-0.33645 1.18318,-0.59517 1.69083,-0.78731c-1.30127,-1.81836 -2.5949,-3.64978 -3.56877,-5.64685c-3.82406,-3.73292 -7.05782,-7.85318 -12.15311,-9.96239c-2.42298,-1.003 -4.57411,-0.48164 -7.14331,-0.6025c-6.63251,-0.312 -12.50004,-0.26741 -19.09667,0.77424c-5.48239,0.8657 -11.74481,1.45113 -14.60818,6.7692c0,0 -1.24033,2.17062 -3.41095,0.93028c-2.17062,-1.24033 -0.93028,-3.41095 -0.93028,-3.41095c4.04107,-6.79162 10.85139,-8.07185 18.19181,-9.2308c6.92067,-1.09268 13.14448,-1.16101 20.10334,-0.82576c4.0162,0.19348 5.01899,-0.4991 8.85669,0.99751c5.94343,2.31778 9.9267,7.23269 14.24686,11.63761c1.69108,3.31124 4.13611,6.22484 6.1214,9.34586c0.38138,0.14116 0.7905,0.28727 1.23486,0.43421c1.19495,1.3463 2.61104,2.52492 3.58484,4.0389c1.52025,2.36355 1.86309,5.32587 1.40412,8.32075c2.49565,6.43387 3.18706,13.52963 3.71778,20.31131c0.4963,6.34172 0.74954,11.60287 -0.43822,17.89389c-0.82987,4.39542 -0.63695,8.72453 -2.05257,13.01584c-3.00032,12.01932 -9.66457,25.33451 -20.17253,32.55322c-11.46511,7.87625 -28.02501,8.83665 -41.42778,8.84781c-5.35139,0 -11.15531,-0.91651 -16.20399,-3.1581c-0.97268,0.03829 -1.75772,-0.58973 -1.75772,-0.58973zM223.30464,280.51296c0.52649,0.23259 0.8632,0.56933 0.8632,0.56933l-0.24982,-0.06835c0.88546,0.46764 1.69722,1.11526 2.65637,1.40293c3.76504,1.12922 8.18034,-3.07349 10.45784,-5.33464c2.10622,-2.0911 4.33063,-5.02406 3.84711,-8.10242c-4.59403,-6.78028 -9.27144,5.88308 -15.05557,3.1573c-2.03191,-0.95754 0.30252,-6.41191 -3.36611,-6.38776c-1.81132,0.01192 -2.62352,2.98166 -2.78183,4.24742c-0.56253,4.4979 0.90688,7.68874 3.62881,10.51619zM290.11959,207.03162c0.18408,-0.08646 0.36367,-0.18233 0.53748,-0.29029c3.08168,-1.91415 4.84345,-5.17788 5.20668,-8.55405c-0.05086,-0.11247 -0.10243,-0.22466 -0.15472,-0.33656c-1.26946,-2.71698 -2.45606,-5.47662 -3.85999,-8.12662c-0.12543,-0.23676 -0.25525,-0.4715 -0.3889,-0.70452c-0.6898,-0.17266 -1.38873,-0.16539 -2.10996,0.33447c-2.04582,1.41788 -3.26371,4.86878 -5.75062,4.76366c-1.80448,-0.07627 -3.19826,-5.09091 -5.1314,-5.98984c-0.78511,-0.36508 -1.07013,1.38623 -1.40518,2.18461c-0.37729,0.89905 -0.78699,1.79278 -1.03556,2.73556c-1.50139,5.6945 4.47891,14.81011 10.5878,11.90408c0,0 2.29787,-0.98479 3.28266,1.31308c0.11741,0.27395 0.18815,0.52924 0.2217,0.76642z" fill="#696969" stroke-width="0.5"></path>
      <path d="M267.39531,211.83921c0.52085,-0.28703 1.07663,-0.50286 1.67095,-0.63157c5.86655,-1.27047 9.86208,8.23078 11.30546,12.45177c0,0 0.79059,2.3717 -1.58111,3.16229c-2.3717,0.79059 -3.16229,-1.58111 -3.16229,-1.58111c-0.26188,-0.8128 -0.58945,-1.56796 -0.95741,-2.29457c-0.9716,-0.24011 -1.55104,-1.10928 -1.55104,-1.10928l-0.67202,-1.02499c-0.08694,-0.10867 -2.38155,-3.38162 -3.15908,-4.1266c-0.24466,0.20944 -0.47651,0.44276 -0.69679,0.69559c-0.00768,0.0128 -0.01573,0.02516 -0.02421,0.03703c-0.47428,0.66419 -0.93519,1.34177 -1.36649,2.03692c-1.08348,2.01808 -1.82531,4.39674 -2.53332,6.04719l-0.06245,0.05088l0.03057,0.01529l-1.17579,2.35157c-0.40086,0.84561 -1.26228,1.4304 -2.26029,1.4304c-1.38071,0 -2.5,-1.11929 -2.5,-2.5c0,-0.32934 0.06368,-0.64381 0.17941,-0.93176l1.17978,-3.14606l0.01388,0.0052c0.00228,-0.01965 0.00461,-0.0393 0.00699,-0.05895c0.12732,-1.05144 0.80168,-1.96169 1.25202,-2.9203c1.04364,-2.22149 3.17045,-6.77762 6.06324,-7.95893z" fill="#696969" stroke-width="0.5"></path>
      <path d="M243.41101,216.94931l3.06913,-2.68607c1.70731,2.59953 2.51668,4.8715 3.49159,7.79618c0,0 0.79058,2.3717 -1.58112,3.16229c-2.3717,0.79058 -3.16229,-1.58112 -3.16229,-1.58112c-0.50435,-1.51302 -0.9126,-2.79761 -1.4835,-4.06062c-1.06079,-0.48608 -1.37018,-1.72365 -1.37018,-1.72365l0.30552,-0.26739c-0.11398,-0.18217 -0.23383,-0.36604 -0.36028,-0.5522z" fill="#696969" stroke-width="0.5"></path>
      <path d="M247.48894,252.13097c0.28868,-0.11172 0.50008,-0.14696 0.50008,-0.14696l2.1242,-0.33782c1.12894,-0.31244 1.87202,-0.48015 2.52859,-0.70197c1.45828,-0.89358 2.82809,-1.81621 4.19842,-2.85219c0.58319,-0.70657 1.08958,-1.50377 1.89248,-1.90484c0.04231,-0.02113 0.08479,-0.0418 0.12744,-0.062l-0.02188,-0.02735l2,-1.60001l0.66578,0.83222c0.92031,-0.18052 1.85655,-0.31821 2.75878,-0.54735l-0.9993,2.53082l0.90425,0.90425l-2,2l-0.03657,-0.03657l-0.04535,0.11486c-0.08241,0.06875 -0.16468,0.13731 -0.24682,0.20569c-0.92056,1.91903 -3.37379,3.35784 -5.82518,4.38877c-1.0388,0.65587 -2.12622,1.25877 -3.2958,1.79556c-1.15439,0.52982 -2.2484,1.49973 -3.51807,1.46395c-5.44404,-0.15341 -8.40753,-7.40718 -10.88011,-11.11327c0,0 -1.38675,-2.08013 0.69338,-3.46687c2.08013,-1.38675 3.46687,0.69338 3.46687,0.69338c1.36514,2.0492 2.4376,4.29322 3.90664,6.26927c0.34967,0.47036 0.70135,1.08332 1.10217,1.59845z" fill="#696969" stroke-width="0.5"></path>
      <path d="M329.4868,187.65381c-2.40381,0.68679 -3.09061,-1.71702 -3.09061,-1.71702l-0.79999,-2.8c0,0 -0.02756,-0.09646 -0.05231,-0.25625c-1.42541,-0.29166 -2.85759,-0.55097 -4.29743,-0.75567c0,0 -1.47869,-0.21125 -1.98682,-1.45015c-1.06713,2.7506 -1.56121,5.64905 -1.18475,7.82171l0.02513,1.15356c0,0 0,0.34177 -0.12636,0.77257c0.18088,0.62356 0.10124,1.18101 0.10124,1.18101c-0.47288,2.8977 0.22612,7.27939 2.72385,9.32445c1.7951,1.46977 5.71065,1.68587 7.88807,2.31816c5.79123,1.68169 13.66136,0.13701 18.70789,-3.26382c1.19441,-0.80491 2.57593,-1.47618 3.41581,-2.64627c1.046,-1.45726 1.34486,-3.32629 2.05268,-4.97455c2.12614,-6.38114 2.9821,-13.14587 -0.9433,-18.92479l-0.88765,-0.81898c0,0 -1.34286,-1.34284 -0.51741,-2.85817c-4.33685,1.48712 -9.10036,1.78504 -13.80474,2.37107c-3.98893,0.49691 -8.5927,1.52197 -13.1327,1.87198c-0.96118,0.86064 -1.84661,1.97462 -2.61686,3.22618c0.54337,-0.11796 0.99304,-0.05372 0.99304,-0.05372c2.21181,0.3174 4.40727,0.75075 6.58876,1.23442l2.1757,1.00438c0,0 2.23608,1.11802 1.11806,3.35409c-0.24263,0.48527 -0.53792,0.81258 -0.85159,1.02762l0.2193,0.76758c0,0 0.68679,2.40381 -1.71702,3.09061zM313.10002,189.64999l0.02513,-0.44641c-0.58974,-4.79987 1.05012,-10.7491 4.10844,-15.28675c-3.73556,-0.48423 -7.18372,-1.89692 -9.90779,-5.01232c-1.61339,-1.84516 -1.97988,-4.40304 -2.55116,-6.64816c0,0 -0.60635,-2.42535 1.819,-3.0317c2.42535,-0.60635 3.0317,1.819 3.0317,1.819c0.11299,0.46164 0.74057,3.80465 1.44884,4.55185c2.16302,2.28189 4.71594,3.03599 7.43414,3.21738c3.81266,-2.02168 1.49001,-7.38413 3.20725,-10.97842c1.93696,-4.05417 6.02063,-6.41725 10.37667,-4.91981c0.63244,0.21741 0.79845,1.14422 1.39938,1.43771c0.20779,0.10149 0.07253,-0.46175 0.16422,-0.67404c0.33671,-0.77957 0.60297,-1.61342 1.11604,-2.29008c1.22259,-1.61239 4.2194,-4.40077 6.49746,-4.23728c7.66551,0.55013 8.24746,10.15082 6.77569,15.42044c-0.12339,0.87739 -0.24679,1.75479 -0.37018,2.63218l-0.44337,0.48958c2.01302,-0.4388 3.92647,-1.11317 5.51783,-2.27308c0.41323,-1.52837 0.67989,-2.51091 0.52021,-3.71158c-0.56953,-0.72598 -0.56953,-1.6585 -0.56953,-1.6585l4.8717,-1.59059c1.19798,3.86978 0.64988,6.04617 -0.72101,9.82052c-1.04523,0.86595 -2.14279,1.58108 -3.28229,2.17704c0.60389,0.22979 0.99936,0.62525 0.99936,0.62525l1.51238,1.58102c4.78412,7.28419 4.12898,15.46155 1.45666,23.47521c-0.26902,0.62891 -2.48675,5.87017 -2.74731,6.22547c-5.44242,7.42136 -19.29595,9.99276 -27.47627,7.68988c-2.99909,-0.84429 -7.23382,-1.255 -9.71197,-3.28182c-3.89557,-3.1861 -5.06601,-9.28537 -4.4761,-13.87556c0,0 0.0258,-0.18057 0.11223,-0.4372c-0.13736,-0.44791 -0.13736,-0.80923 -0.13736,-0.80923zM340.40941,166.02169c-0.34996,-0.11666 -0.63106,-0.26773 -0.85602,-0.44054l-0.66905,1.24253c0.12785,-0.0173 0.2558,-0.0345 0.38385,-0.05157c0.76001,-0.10133 1.55134,-0.18751 2.35949,-0.2748c-0.04569,-0.10969 -0.08198,-0.217 -0.10986,-0.32179c-0.32348,0.02639 -0.69152,-0.01487 -1.10842,-0.15383zM329.96339,167.41185l-0.48781,0.73171c0.24359,-0.03073 0.48707,-0.06208 0.73049,-0.09397c-0.10841,-0.19785 -0.19083,-0.41196 -0.24268,-0.63774zM327.19395,158.95212l0.85607,-1.28409c-0.85928,0.51159 -1.39455,1.3453 -1.73758,2.3419zM340.58365,153.21848l0.24976,-0.3122c0.08949,-0.11384 0.18865,-0.21973 0.29624,-0.31641c-0.36299,0.04847 -0.72989,0.25204 -1.10191,0.56026c0.19122,0.00208 0.37729,0.02562 0.55591,0.06834z" fill="#696969" stroke-width="0.5"></path>
      <path d="M343.19057,184.82171c-2.37171,0.79056 -3.16227,-1.58115 -3.16227,-1.58115l-0.19889,-0.75021c-0.26204,-0.45857 -0.52408,-0.91714 -0.78612,-1.37571c-0.5974,0.26157 -2.16361,0.72725 -3.187,-0.97839c-1.28624,-2.14373 0.85749,-3.42997 0.85749,-3.42997c2.54356,-1.52279 5.16323,-2.9337 7.87091,-4.1408l2.52504,-0.56693c0,0 2.45145,-0.4903 2.94175,1.96115c0.4903,2.45145 -1.96115,2.94175 -1.96115,2.94175l-1.47496,0.23309c-1.08402,0.48019 -2.15222,0.9972 -3.20564,1.54355c0.25363,0.44385 0.50726,0.88771 0.7609,1.33156l0.6011,1.64979c0,0 0.79056,2.37171 -1.58115,3.16227z" fill="#696969" stroke-width="0.5"></path>
      <path d="M344.00002,191.75c-0.07164,0 -0.14122,-0.00205 -0.20881,-0.00604c-5.71048,4.10388 -13.81301,7.77467 -19.89706,2.53361c-0.87368,-0.75263 -1.31617,-1.89387 -1.97426,-2.84081c0,0 -1.38676,-2.08012 0.69337,-3.46688c2.08012,-1.38676 3.46688,0.69337 3.46688,0.69337c4.02962,6.44074 11.92967,1.39005 16.35814,-2.16542l4.06174,2.75217c0,0 0,2.5 -2.5,2.5z" fill="#696969" stroke-width="0.5"></path>
      <path d="M361.70188,310.07697c-1.62698,-1.89814 0.27116,-3.52512 0.27116,-3.52512l2.79033,-2.39167c0.26962,-0.23591 0.53923,-0.47183 0.80885,-0.70774c-0.66673,0.37696 -1.80332,0.70195 -2.93994,-0.43462c-0.38149,-0.38147 -0.59833,-0.76295 -0.70382,-1.12666c-1.27294,2.7723 -2.36156,5.66426 -4.2941,8.41193l-1.86657,1.91467c0,0 -1.76777,1.76777 -3.53553,0c-1.76777,-1.76777 0,-3.53553 0,-3.53553l1.33344,-1.28534c0.13049,-0.17923 0.25283,-0.35339 0.36787,-0.52323c-2.00023,1.51168 -4.03323,3.22776 -6.38814,3.96263c-5.85283,1.82642 -10.41382,-0.44799 -15.65172,-2.45634c-4.52119,-1.73355 -7.64082,-2.96472 -10.09188,-7.53916c-1.9601,-3.65817 -1.66418,-7.23403 -2.37077,-11.14059c-0.23865,0.16689 -0.50778,0.29317 -0.79739,0.36882l-2.57876,0.73677c-1.75653,0.88434 -5.66504,2.95809 -8.39071,2.44302c-1.45473,4.05152 -3.04207,8.44746 -2.38932,12.44766c0,0 0.35355,2.47487 -2.12132,2.82842c-2.47487,0.35355 -2.82842,-2.12132 -2.82842,-2.12132c-0.7847,-6.10634 1.84384,-12.12012 3.69171,-17.90886c2.62823,-8.23333 7.13521,-17.33879 12.35506,-24.30646c5.26389,-7.02645 12.85398,-12.37002 20.09949,-17.16897c7.46695,-2.74565 14.80516,-6.17787 22.73237,-7.43765c7.85407,-1.24816 15.02649,-0.01297 22.79624,-0.0316l-0.2,2.5l0.2,2.5c-0.13347,-0.00028 -0.26675,-0.00094 -0.39984,-0.00195l-0.00016,0.00195c0,0 -0.02514,0 -0.07037,-0.00252c-7.33284,-0.06267 -14.1068,-1.19332 -21.53338,-0.02908c-7.41688,1.16271 -14.26713,4.4488 -21.26763,6.96234c-6.5442,4.39761 -13.52044,9.26605 -18.30053,15.63105c-2.54663,3.391 -4.93275,7.35577 -6.98,11.46652c2.82721,-0.81161 5.53249,-1.58814 8.30779,-2.00903c-0.75969,-0.79094 -1.38911,-1.6947 -1.44833,-2.72497c-0.23144,-4.02685 5.50417,-8.18177 8.96467,-8.67272c1.33784,-0.1898 2.73297,-0.12241 3.91686,0.26328c-0.02122,-0.6057 0.07686,-1.17816 0.41092,-1.68485c0.91353,-1.38559 3.12986,-1.20543 4.77806,-1.39994c0.21846,-0.02578 6.99267,0.86385 7.14638,0.90719c0.64105,0.18074 1.29134,0.41594 1.86693,0.75859c1.06985,-2.87356 3.97154,-5.02562 7.23574,-4.38594c1.41168,0.27665 2.2991,1.75229 3.28044,2.80413c3.82099,4.0955 5.53349,9.26862 6.40748,14.61912c3.33552,-0.47996 6.69934,-0.69766 10.08497,-0.7032h2.39999c0,0 2.5,0 2.5,2.5c0,0.54458 -0.11863,0.97053 -0.30419,1.30369c2.1197,0.85547 1.37592,3.08687 1.37592,3.08687l-0.40001,1.20005c-0.56998,1.21251 -0.5955,2.89385 -1.70995,3.63752c-0.54438,0.36326 -1.13517,0.58018 -1.75871,0.6984c0.04893,0.33277 0.02731,0.7174 -0.09924,1.16031c-0.47871,1.67546 -1.79156,1.84946 -2.54319,1.80108c0.27994,0.14429 0.5626,0.36438 0.83751,0.68512c1.62698,1.89814 -0.27116,3.52512 -0.27116,3.52512c-1.96726,1.68448 -3.77166,3.3805 -5.73539,4.97404c0.699,-0.30189 1.788,-0.46344 2.78988,0.68158c1.64625,1.88145 -0.23519,3.5277 -0.23519,3.5277c-1.06988,0.93612 -2.13975,1.87224 -3.20963,2.80836l-2.80965,2.40832c0,0 -1.89814,1.62698 -3.52512,-0.27116zM366.65309,302.48433l-0.09963,0.10951c0.08169,-0.07148 0.16339,-0.14296 0.24508,-0.21445c-0.04834,0.03505 -0.09682,0.07003 -0.14545,0.10493zM363.74691,298.41566c2.69383,-1.91345 4.91598,-4.11012 7.42612,-6.2638c0,0 0.75744,-0.64923 1.72549,-0.64899c-2.48014,-0.81183 -3.15425,0.71537 -5.31731,2.48359c-1.65604,1.35374 -2.85952,2.84995 -3.83592,4.43076zM335.10539,295.80325c-0.27513,0.71476 -0.94794,1.69495 -2.55414,1.53433c-0.00617,-0.00062 -0.01232,-0.00125 -0.01845,-0.00189c2.67283,2.21426 6.55896,3.00124 10.2672,3.0143c2.46558,0.00868 4.35172,-0.02652 6.31054,-1.74274c1.06438,-0.93255 1.255,-2.54143 1.75952,-3.86355c0.97562,-2.55668 1.84732,-4.11776 2.23625,-6.87093c0,-1.59629 0.56633,-3.17051 0.48191,-4.76456c-0.09047,-1.70831 -6.36977,-1.35907 -7.18821,-1.35819c-1.9935,0.00215 -3.90477,0.07493 -5.75533,0.2832c4.15677,2.97722 -0.90895,9.30772 -2.56454,11.80353l-1.11238,1.18104c0,0 -0.80027,0.80027 -1.86237,0.78547zM330.31241,294.60123c0.32223,-3.07256 0.77531,-8.19601 3.19158,-10.85414c-1.2851,0.51042 -2.55248,1.14387 -3.811,1.92707c0.00142,0.1762 -0.0123,0.28593 -0.0123,0.28593c-0.1692,1.33656 -0.61088,3.87021 -0.40485,5.34315c0.17584,1.25716 0.53288,2.3548 1.03557,3.30964c0.00061,-0.00766 0.001,-0.01165 0.001,-0.01165zM324.54886,286.86347c-0.60365,-1.09407 0.01509,-2.33152 0.01509,-2.33152l1.64932,-2.56208c0.35602,-0.23653 0.71494,-0.46417 1.07665,-0.68312c-4.6511,-0.45252 -8.92211,1.08579 -13.4031,2.36706l-0.50004,0.47631c0,0 -0.36209,0.24139 -0.88483,0.37168c-0.03364,0.53535 -0.20406,0.93299 -0.20406,0.93299c-0.03295,0.07683 -0.09381,0.28029 -0.18333,0.55386l1.19868,-0.34247l0.0129,0.04515c0.05053,-0.02925 0.10136,-0.05804 0.15251,-0.08637c0.82478,-0.45674 1.87247,-0.23086 2.79998,-0.39999c1.27824,-0.23309 2.55857,-1.14194 3.81372,-0.80604c2.71497,0.72657 3.77331,2.65501 4.29871,4.96252c0.0171,-0.81645 0.07467,-1.64747 0.15782,-2.49799zM349.37722,276.7563c3.55992,0.26918 7.73776,1.00949 9.0346,5.03548c0.65851,2.04433 -0.31808,4.28768 -0.31808,6.43545c-0.37653,2.61355 -1.08775,5.99876 -2.3163,8.96476c0.14903,-0.24069 0.29098,-0.48476 0.42438,-0.73275c1.86751,-3.47182 2.59282,-7.52305 5.7437,-10.28343c2.17502,-1.90546 6.43873,-2.99894 9.25448,-3.0258c1.00157,-0.00955 1.99715,0.19979 2.97724,0.40628c0.408,0.08596 0.81348,0.69601 1.161,0.4656c0.3244,-0.21508 -0.07328,-0.77498 -0.10992,-1.16247l0.39998,-1.19998c0,0 0.04188,-0.12564 0.13528,-0.30945h-1.36357c-4.12903,-0.00754 -8.2719,0.33058 -12.3097,1.15147c0,0 -2.45145,0.49028 -2.94174,-1.96117c-0.17394,-0.86973 0.02239,-1.49261 0.34816,-1.93432c-0.57462,-3.95003 -1.4214,-6.99909 -3.60187,-10.40753c-0.80855,-1.2639 -1.21376,-2.99362 -2.52195,-3.72836c-0.30908,-0.17359 -1.28715,1.03175 -1.295,1.11177c-0.12276,1.25067 1.22023,3.09783 0.15641,3.7668c-2.74341,1.72517 -8.00478,-1.25768 -10.94438,-1.61793c-0.56358,-0.06907 -1.69144,-0.35626 -2.47689,-0.59079l1.17277,0.97731c0.55817,0.4585 0.9142,1.15406 0.9142,1.93277c0,1.38071 -1.11929,2.5 -2.5,2.5c-0.22871,0 -0.45025,-0.03071 -0.66072,-0.08824l-3.14562,-0.78639l0.01042,-0.04168c-0.06741,-0.00419 -0.13481,-0.00901 -0.20221,-0.0145c-1.90594,-0.15513 -2.55241,-1.76924 -4.47407,-1.49077c-1.32273,0.19168 -4.09667,2.06005 -4.63537,3.32728c-0.31049,0.7304 1.5323,0.41424 2.29812,0.62258l1.2,0.39999c0,0 2.37171,0.79055 1.58116,3.16227c-0.01633,0.049 -0.03334,0.09664 -0.05098,0.14297c0.15145,0.35389 0.22487,0.79449 0.16398,1.34255c-0.02118,0.19062 -0.05536,0.36499 -0.10041,0.52448c5.88743,-2.69082 12.37328,-3.39477 18.99291,-2.89424zM326.69416,298.19737c-0.66263,-1.03695 -1.15347,-2.06699 -1.50797,-3.10182c0.19523,1.22823 0.4821,2.38642 1.01202,3.3637c1.66541,3.07137 3.45714,3.75796 6.17571,4.76173c-2.36098,-1.26437 -4.36625,-2.96809 -5.67976,-5.02361zM346.05459,306.06371c0.93321,-0.28069 1.82596,-0.83104 2.68858,-1.46064c-3.63864,1.45025 -8.08251,1.45004 -12.13492,0.31115c2.99441,1.24168 5.85464,2.22981 9.44633,1.14949z" fill="#696969" stroke-width="0.5"></path>
      <path d="M361.36781,260.21774c-1.76774,1.76779 -3.53553,0.00004 -3.53553,0.00004l-0.99401,-1.0156c-5.10113,-4.13181 -11.61143,-1.90491 -16.58518,1.68214c0,0 -2.03434,1.45309 -3.48743,-0.58125c-1.45309,-2.03434 0.58125,-3.48743 0.58125,-3.48743c4.58254,-3.24629 11.38738,-6.18358 17.22749,-4.79878c2.25129,0.53382 3.67265,1.92301 5.38735,3.28097l1.40602,1.38436c0,0 1.76779,1.76774 0.00004,3.53553z" fill="#696969" stroke-width="0.5"></path>
    </g>
  </g>
</svg>
