<?xml version="1.0" encoding="UTF-8"?>
<svg xmlns="http://www.w3.org/2000/svg" xmlns:xlink="http://www.w3.org/1999/xlink" version="1.1" width="204.61496" height="181.87787" viewBox="0,0,204.61496,181.87787">
  <g transform="translate(-137.69252,-89.06107)">
    <g stroke="none" stroke-miterlimit="10">
      <path d="M201.80528,208.89025c-0.0267,-0.20909 -0.06333,-0.41509 -0.14088,-0.60309c-1.07577,-2.60771 -1.98457,-3.01422 -2.23066,-5.75228c-0.14606,-1.62511 0.16588,-3.276 -0.01496,-4.89761c-0.09346,-0.83807 -0.67758,-1.56735 -0.80075,-2.40157c-0.84771,-5.74134 0.30969,-12.12077 0.81642,-17.76505c0.23668,-2.63636 -0.33613,-5.32054 -0.00729,-7.94699c0.2732,-2.18196 1.32172,-4.2238 1.60002,-6.40511c0.24521,-1.92195 0.29147,-3.87764 0.56185,-5.79406c1.88143,0.21737 2.52932,-1.72724 2.52932,-1.72724c0.09409,-0.29204 0.88872,-3.20625 1.46903,-3.55015c0.68905,-0.40834 1.58412,-0.24713 2.36643,-0.419c2.7764,-0.60997 5.67371,-2.04188 8.50044,-2.34837c1.41478,-0.1534 2.88048,0.25966 4.26952,-0.04969c1.06912,-0.2381 1.81429,-1.4029 2.89958,-1.55072c0.90498,-0.12326 1.7149,0.68904 2.62197,0.79575c3.42034,0.40237 7.2512,0.01231 10.7091,0.01231c4.16943,0 8.43251,0.48204 12.41228,-0.84455l2.80398,0.02938c0,0 1.37368,-0.00249 2.0856,-1.01534c0.30215,0.13224 0.67253,0.21196 1.12139,0.21196c2.5,0 2.507,-2.50215 2.507,-2.50215c0,-1.18874 -0.02718,-2.3753 -0.04668,-3.55794c0.04811,-0.26284 0.04836,-0.44242 0.04836,-0.44242l-0.06519,-1.57652c0.00023,-0.08642 0.00071,-0.17285 0.00129,-0.25923c0.60911,-2.50489 0.78093,-4.41716 0.68491,-6.38529l0.10763,0.02685l0.78796,-3.1458c0.05752,-0.21046 0.09733,-0.33242 0.09733,-0.56113c0,-1.08918 -0.69473,-2.01586 -1.66664,-2.35856c-0.31863,-0.88933 -1.14415,-1.38549 -1.14415,-1.38549c-2.96759,-1.76328 -7.16965,-4.17335 -8.58076,-7.64137c-1.46742,-3.6064 -0.31261,-10.51817 2.10533,-13.65162c0.87611,-1.13538 2.1174,-1.9462 3.06321,-3.02421c2.65444,-3.02543 3.84329,-5.74377 8.11801,-6.37082c5.47021,-0.80241 12.27839,4.1983 15.131,8.52016c2.34141,3.40107 1.66527,3.85399 1.19467,7.96749c-0.2147,1.87664 0.11908,3.99524 -0.62513,5.73134c-1.91247,4.46144 -6.64013,6.13484 -10.29148,8.53295l0.58612,-0.41994c0,0 -2.49719,0.00023 -2.49719,2.50023c0,1.12455 0.5126,1.6435 1.06921,1.9839c-0.1332,0.26646 -0.22828,0.65971 -0.25859,0.96991l-0.54856,4.93946l0.01745,0.00194c-0.00893,0.03209 -0.01038,-0.03549 -0.01908,-0.00331c-0.00088,0.00325 -0.02526,0.76257 -0.05886,1.81518c-0.13156,1.52805 -0.19118,3.06304 -0.19487,4.59316l0.00078,4.00007c0,0.31598 0.05925,0.61833 0.1662,0.89664c0.24366,0.71716 0.85244,1.60459 2.34095,1.60459c0.02068,0 0.04134,-0.00013 0.06168,-0.00047c0.72131,2.08177 2.95317,1.52876 2.95317,1.52876c3.54956,-0.88743 7.15411,-1.99435 10.81391,-2.32437c4.02242,-0.36273 8.18852,0.47695 12.20199,-0.01424c0.83703,-0.10244 1.56248,-0.70472 2.40043,-0.79933c3.58999,-0.40533 6.26447,0.38819 9.60195,0.80537c1.32303,0.16538 2.67681,-0.15746 4.00063,0.00149c6.03859,0.72505 12.19841,5.131 15.74631,9.81833c0.68085,2.92692 1.81769,5.7811 2.17009,8.77891c0.22967,1.9538 -0.55521,3.90001 -0.79365,5.85277c-0.25474,2.08617 0.31019,4.22927 0.01291,6.30981c-0.66607,4.66156 -3.40754,9.00171 -4.0167,13.70556c-0.13293,1.02643 0.15112,2.08125 0.01266,3.10695c-0.40368,2.99057 -2.14972,6.34301 -3.10744,9.21609c-1.12764,3.38283 -1.51071,5.53327 -4.61896,7.51554c-1.24864,0.83243 -2.25881,1.54326 -3.3086,2.13535c-1.81055,-0.80396 -2.98811,0.96154 -2.98811,0.96154l-0.26005,0.3902c-0.21436,0.05984 -0.43649,0.11729 -0.66679,0.17175l-0.19371,-0.07459c0,0 -2.50202,0.00175 -2.50202,2.50175c0,0.63849 0.16272,1.1142 0.40556,1.4682c-0.3327,0.44042 -0.6484,0.89321 -0.92126,1.37256c-0.34983,0.61455 -0.12765,1.49444 -0.57327,2.04351c-0.53408,0.65806 -1.55889,0.74581 -2.16661,1.33511c-0.21463,0.07072 -0.42794,0.14157 -0.63908,0.21195c0,0 -1.85816,0.61989 -1.73861,2.40505c-1.98208,2.34618 -3.86858,4.83916 -6.26285,6.83718c-2.35133,1.96219 -5.56262,3.27073 -8.2414,5.08867c2.6494,-4.42512 5.53426,-8.58976 7.33089,-13.58565c1.04191,-2.89726 2.23001,-5.855 -1.09742,-8.56321c-1.04384,-0.84958 -2.66415,0.42772 -4.00648,0.52533c-6.13186,0.44585 -11.75031,3.19813 -18.0155,3.17233c-2.28366,0.01675 -4.54148,0.54273 -6.80673,0.83259c-3.22486,0.41266 -5.787,-0.4111 -8.80723,-0.80075c-2.3635,-0.30492 -4.74604,0.4978 -7.11175,0.78502c-2.19637,0.26666 -4.39819,-0.53377 -6.59438,-0.80192c-3.38813,-0.41368 -6.9316,0.4148 -10.31167,0.01006c-1.67458,-0.20053 -3.13517,-1.35262 -4.80316,-1.60212c-2.60271,-0.38931 -5.97132,-0.04396 -8.48001,-0.72832c-0.74531,-0.20331 -1.2028,-0.98278 -1.87087,-1.37072c-2.6326,-1.52873 -5.30149,-2.36652 -8.16017,-3.28761c-1.06956,-0.72651 -2.42358,-1.12398 -3.39696,-1.94536c-0.01574,-0.13268 -0.04135,-0.27185 -0.07773,-0.41737c-0.15888,-0.63551 -0.44327,-1.06371 -0.77557,-1.34836z" fill="#e36f00" stroke-width="0.5"></path>
      <path d="M268.29586,126.81544v3.19998c0,2.29819 -0.31094,4.61502 -0.01873,6.89456c0.35022,2.73205 2.04474,4.92775 0.5229,7.8851c-0.67177,1.30545 -2.04964,2.47917 -3.50583,2.66615c-0.11347,0.01457 -0.22669,0.02454 -0.33968,0.03028l0.03188,0.09563l-2.3446,0.78153c-0.2642,0.09499 -0.54902,0.14675 -0.84593,0.14675c-1.38071,0 -2.5,-1.11929 -2.5,-2.5c0,-1.1246 0.74256,-2.07576 1.76412,-2.38994l1.32637,-0.44212c0.17173,-2.67545 -0.37389,-4.57076 -0.6718,-7.26248c-0.14322,-1.29408 -0.21701,-2.62451 0.01355,-3.90592c0.08809,-0.48961 0.84437,-0.69421 0.90302,-1.18821c0.02986,-0.25156 -0.50645,-0.02254 -0.75975,-0.01861c-1.6487,0.02557 -3.32878,0.23391 -4.88498,0.779c0,0 -2.37171,0.79058 -3.16228,-1.58113c-0.79058,-2.37171 1.58113,-3.16228 1.58113,-3.16228c0.49147,-0.15783 1.01322,-0.31546 1.55447,-0.46039l-1.31948,-0.32986c-1.11331,-0.25264 -1.94441,-1.24829 -1.94441,-2.43804c0,-0.14735 0.01275,-0.29172 0.0372,-0.43208c-2.18095,-0.33008 -4.25808,-1.06039 -6.05155,-2.24129c-1.105,-0.72758 -1.90228,-1.83927 -2.85342,-2.7589c0,0 -1.76774,-1.76779 0.00004,-3.53553c1.76779,-1.76774 3.53553,0.00004 3.53553,0.00004c8.04197,8.43296 18.77209,0.91329 24.10559,-6.74657c0.98247,-1.411 0.9093,-3.31661 1.3263,-4.98463l0.06385,-0.07985l-0.03526,-0.01175l0.78176,-2.3453c0.31417,-1.02157 1.26534,-1.76413 2.38994,-1.76413c1.22887,0 2.25065,0.88664 2.46053,2.0551l0.79097,3.95458l-0.03544,0.00709c0.0249,0.07858 0.04886,0.15753 0.07183,0.23687c0.70734,2.44392 -0.227,5.79406 -0.88758,8.14532c-1.53891,5.47755 -5.65072,10.81221 -11.36668,12.54803c0.26643,0.59105 0.26643,1.15301 0.26643,1.15301z" fill="#9f4d00" stroke-width="0.5"></path>
      <path d="M321.40255,264.39718c-1.75869,0.26959 -3.5223,-0.58217 -5.29495,-0.78831c1.24609,-0.96407 2.45537,-2.09587 3.61785,-3.25834c2.33812,-3.47782 3.88233,-6.41086 5.2045,-10.37748c0.25722,-0.7717 1.72494,-5.0766 1.71588,-5.55796c-0.19445,-10.32929 -14.39793,-11.32972 -21.61157,-11.26767c-1.25826,0.01083 -2.54815,-0.23548 -3.77077,0.06205c-0.60309,0.14676 -1.32435,0.30868 -1.97759,0.55994c1.55773,-1.42869 3.04141,-2.96436 4.40841,-4.60476c0.36603,-0.43923 0.60243,-0.98283 0.89145,-1.47896c7.35145,-2.3432 14.63562,-3.98223 22.52446,-3.23489c4.02808,0.3816 9.43157,4.9028 9.86111,9.1399c0.13448,1.32653 -0.16324,2.68517 0.00376,4.008c0.0932,0.73825 0.77324,1.35682 0.77118,2.10093c-0.00568,2.04973 -0.78571,4.06381 -0.79206,6.11354c-0.89697,5.33478 -2.26349,9.71036 -5.28844,14.18573l0.00052,0.00658c-0.04954,0.08064 -0.07457,0.13041 -0.07457,0.13041l-1.10647,2.20761c-1.3875,0.28452 -2.86285,0.2398 -4.27057,0.45036c-1.66799,0.2495 -3.14507,1.34778 -4.81214,1.60333z" fill="#e36f00" stroke-width="0.5"></path>
      <path d="M249.04445,228.04307c-0.11604,-1.06071 -0.71415,-1.98808 -1.26835,-2.9271c1.60272,-0.31684 3.20695,-0.9355 4.80097,-0.67935c3.5176,0.56525 6.70813,1.2525 10.42777,0.79727c2.00121,-0.24492 3.99688,-0.78144 6.01294,-0.76336c3.85704,-0.01362 7.39632,-0.62965 11.11228,-1.69019c1.52423,-0.43502 2.9329,-1.31803 4.50372,-1.5303c1.05705,-0.14284 2.17191,0.27967 3.20188,0.00231c0.43096,-0.11605 0.32583,-0.80128 0.71806,-1.01422c0.30414,-0.16512 -0.27485,0.53495 -0.41661,0.85066c-0.24034,0.53524 -0.43222,1.09169 -0.6485,1.6371c-0.48853,1.23194 -0.86782,2.5148 -1.4632,3.69881c-2.35282,4.67892 -5.5528,8.75941 -7.92511,13.49239l-1.51571,2.28055c-0.2768,0.40238 -0.43877,0.89415 -0.43877,1.41946c0,1.38071 1.11867,2.50637 2.49938,2.50637c0.18574,0 0.26798,-0.03585 0.44217,-0.07428l3.94901,-0.78697l-0.01417,-0.07062c0.16049,-0.01974 0.32067,-0.04302 0.48054,-0.07075c2.12177,-0.36804 5.79082,-3.79432 7.63009,-5.02051c0.11361,-0.07574 0.32654,-0.16157 0.43979,-0.23782c0.06389,0.15019 0.13492,0.28612 0.21159,0.40785c-1.18106,2.83243 -2.41471,5.64458 -3.38518,8.65672c-2.28999,3.38787 -3.7066,6.8529 -4.93399,10.72654c-0.28622,0.90333 -0.55417,2.88844 -1.78898,3.28582c-0.84037,0.27044 -1.77009,-0.26732 -2.64584,-0.15585c-1.81913,0.23153 -3.63102,0.57711 -5.45294,0.78559c-4.37759,0.50091 -8.68517,1.81484 -12.9804,2.42853c-1.86635,0.26666 -3.74009,-0.57214 -5.61143,-0.80116c-7.3675,-0.90167 -15.40095,-0.04997 -22.82876,-0.04997c-1.33334,0 -2.66877,-0.02468 -4.00192,-0.00259c-0.04071,0.00067 -0.08156,0.00092 -0.12241,0.00092c0.52195,-0.59105 0.88765,-1.15194 0.907,-1.16815c1.19809,-1.00318 3.88664,-2.2826 4.93308,-3.31724c1.0062,-0.99486 1.64661,-2.30741 2.56928,-3.38018c2.94931,-3.42907 5.51917,-6.8534 7.55095,-10.95557c1.60171,-3.23387 2.32268,-7.39101 3.34864,-10.79526c0.69365,-2.3016 1.96556,-5.08718 1.70318,-7.48546z" fill="#e36f00" stroke-width="0.5"></path>
      <path d="M193.47489,192.76212c0.04514,1.10915 0.13432,2.20993 0.28451,3.29279c0.11585,0.83527 0.70636,1.56249 0.79914,2.40063c0.17255,1.55881 -0.18614,3.14778 -0.01617,4.70688c0.36377,3.33676 1.02262,3.77721 2.2162,6.28037c-2.63065,1.12909 -5.07575,2.57234 -8.04919,2.93759c-2.01637,0.24768 -4.06859,-0.01682 -6.10013,-0.01682c-5.98467,0 -13.65229,-0.198 -18.25207,-4.86632c-1.89659,-1.92485 -3.17604,-4.21785 -4.32892,-6.53204c-0.78359,-1.57292 -1.7552,-3.10094 -2.16947,-4.80871c-0.01572,-3.82165 -1.39579,-7.42125 -0.82321,-11.29915c0.18609,-1.2603 0.45812,-2.51744 0.64059,-3.77902c0.41871,-0.41871 0.83786,-0.83708 1.25657,-1.25579c0,0 1.7623,-1.77274 -0.00546,-3.54051c-0.78861,-0.78861 -1.58131,-0.87853 -2.21297,-0.73075c-0.04898,-0.01207 -0.09782,-0.02244 -0.14605,-0.03069c-1.01622,-1.20582 -2.19778,-2.30432 -3.09283,-3.60255c-0.91146,-1.32203 -0.77187,-3.15811 -1.48368,-4.5975c-1.22577,-2.47872 -2.65477,-6.15977 -4.21535,-8.38238c-0.61685,-0.87852 -1.70169,-1.36427 -2.30055,-2.25515c-0.42542,-0.63287 -0.33987,-1.50432 -0.67957,-2.18705c-0.24289,-0.48816 -2.01811,-2.6439 -2.14397,-3.70513c-0.34377,-2.89866 4.47228,-0.12691 5.73865,0.61083l0.65737,1.77613c0.31418,1.02155 1.18024,1.71159 2.30483,1.71159c0.998,0 1.86278,-0.58963 2.26364,-1.43524l1.58128,-3.15749l-0.05083,-0.02537c0.09021,-0.16817 0.17411,-0.34153 0.24878,-0.51908c1.7396,-4.13663 -0.29888,-4.26128 -0.75929,-7.37945c-0.61176,-4.14317 -0.54148,-9.89498 1.38773,-13.70593c1.18913,-2.34899 2.43234,-4.68471 3.84068,-6.91349c0.71023,-1.12399 0.59628,-2.00808 1.9223,-2.08721c1.71016,-0.10205 2.32886,4.82882 2.3152,5.59882c-0.02267,1.27828 -0.64495,2.48274 -0.78613,3.7534c-0.35532,3.19792 0.25424,5.55391 -0.77614,8.64509c-0.01612,1.79767 -0.34079,7.62592 0.97872,8.73237c3.14016,2.63311 4.00953,-1.0323 6.27698,-1.13038c1.42486,-0.06164 2.4183,1.54513 3.71137,2.14679c0.532,0.24754 1.22826,0.02744 1.7351,0.3231c1.2425,0.72479 -0.94413,2.843 -0.69375,4.25949c0.2684,1.51845 2.6757,3.97982 3.43594,5.48295c3.19039,6.30797 0.28936,16.37292 -5.56418,20.10623l-1.1192,2.88113c0,0 -0.01274,1.05059 0.76698,1.79066c0.02009,1.26929 0.1978,2.26686 1.07334,4.00872c3.37071,6.70597 11.25778,8.13947 18.12186,6.90266l0.00001,-0.00002c1.0042,0.35266 2.01737,-0.1533 2.01737,-0.1533l-0.01664,-0.28811c0.04817,-0.01268 0.16263,0.04931 0.21063,0.03637z" fill="#e36f00" stroke-width="0.5"></path>
      <path d="M164.82805,209.38323c-0.44252,-0.4081 -0.49517,-1.0702 -0.62698,-1.68827c-0.29944,-0.1803 -0.58701,-0.38045 -0.85974,-0.60533c-0.58696,-0.48399 -1.10537,-1.00997 -1.56456,-1.57025c-0.05212,-0.04234 -0.10185,-0.08753 -0.14871,-0.13615c-2.18741,-2.26963 -2.88606,-5.15843 -3.59182,-8.07576c-0.4569,0.49672 -1.11232,0.80799 -1.84043,0.80799c-1.38071,0 -2.5,-1.11929 -2.5,-2.5v-3.20001h0.07135l-0.06283,-0.20621c0.49036,-2.94506 1.15802,-8.34963 2.80446,-11.86949c0.04305,-0.26411 0.08957,-0.52737 0.13963,-0.79128c-0.88245,-0.16279 -1.76722,-0.48495 -2.69272,-1.08948c-1.0576,-0.69082 -1.51994,-2.0189 -2.24001,-3.05681c-2.32881,-3.35674 -5.01467,-8.72022 0.05414,-11.53543c0.40075,-1.12695 1.04957,-2.07572 1.92447,-2.58312c1.35866,-0.78797 2.93182,1.12778 4.3999,1.68602c1.51557,0.5763 2.90516,1.40067 3.98321,2.50073c0.1717,-0.09193 0.34578,-0.17604 0.52785,-0.22665c0.46125,-0.12822 1.10857,0.16516 1.42278,-0.19604c0.43667,-0.50196 0.07573,-1.39059 0.44113,-1.94659c2.24841,-3.42122 7.28922,-7.66062 5.35493,-12.29508c0,0 -0.79059,-2.3717 1.58111,-3.16229c0.52217,-0.17406 0.9677,-0.19484 1.34502,-0.12138l0.45884,-1.18706c1.42569,-0.65709 2.74834,-2.32816 4.27706,-1.97128c2.17163,0.50696 4.3196,5.16121 4.40968,7.25144c0.03631,0.84249 -0.77952,1.55697 -0.80002,2.39999c-0.04477,1.84134 1.3497,3.46729 1.58128,5.29455c0.60905,4.80569 -0.20233,9.36895 -1.70957,13.89604c-0.2571,0.77221 -1.6847,5.16079 -1.98492,5.5269c-3.06938,3.74311 -8.88907,4.42702 -13.08577,3.28283c-0.27623,-0.07531 -0.54983,-0.16114 -0.82053,-0.25644c0.01952,0.15773 0.01952,0.25611 0.01952,0.25611c-0.06979,6.05255 2.71803,12.02041 5.34579,17.30164c0.18304,0.36788 0.24711,0.78698 0.33161,1.19576c0.04198,0.01857 0.08236,0.03749 0.121,0.05681c0.85998,0.42999 1.54217,1.16577 2.39999,1.60004c2.43371,1.23204 5.44229,1.30744 7.91301,2.35947c0.97439,0.41489 1.91315,0.89709 2.85168,1.38075c4.51927,-0.65255 9.11019,-1.48707 13.70905,-1.72244c-0.09133,-0.43123 -0.2026,-1.41588 0.44087,-2.17926c-0.78126,-1.05878 -1.39627,-2.28133 -1.98469,-4.00219c0,0 -0.79055,-2.37171 1.58116,-3.16227c2.37171,-0.79055 3.16227,1.58116 3.16227,1.58116c0.97847,3.03702 1.6301,3.27129 4.01324,5.25721c1.65435,1.37861 2.75531,3.38598 4.52936,4.60672c1.41642,0.97466 3.33145,0.85396 4.98467,1.3263c4.48701,1.28199 9.01943,2.05397 13.54267,3.18406c3.09577,0.77345 5.55639,2.10556 8.36973,3.32998c0.66849,0.29094 1.3518,0.52203 2.04584,0.70538c1.11434,-0.04365 2.23067,-0.11911 3.3428,-0.11911h0.79999c0,0 1.17337,0 1.91238,0.80386c1.2383,0.01779 2.47434,-0.00387 3.68759,-0.00387c13.9315,0 27.50426,-0.22555 40.80949,-4.6717l0.78693,0.7585c0.16962,-0.60285 0.60662,-1.22302 1.61302,-1.55849c2.37171,-0.79057 3.16228,1.58114 3.16228,1.58114c0.30943,1.06351 0.91053,2.08306 0.92828,3.19052c0.0156,0.97372 -0.69455,1.83642 -0.83227,2.80048c-0.46734,3.27148 0.48367,5.99855 -0.86728,9.15601c0.5036,-0.27585 1.02986,-0.52408 1.43179,-0.9242c0.62383,-0.62103 0.87091,-1.54098 1.43444,-2.21722c1.91046,-2.29258 4.75251,-3.95499 6.08754,-6.71344c0.89747,-1.85436 1.42131,-4.01263 2.87804,-5.46936c2.74463,-2.74463 7.06632,-2.16332 9.59998,-4.79999c2.86508,-2.98156 4.52127,-7.19836 5.79608,-11.0228l4.87171,1.59056c0,0 0,1.15925 -0.7894,1.89896c-1.42922,3.95381 -3.37224,8.17138 -6.34286,11.06882c-2.78355,2.71498 -7.00294,2.20295 -9.59997,4.79998c-1.88415,1.88415 -2.08271,4.87772 -3.83441,7.01722c-1.43344,1.75077 -3.35142,3.06169 -4.79998,4.79998c-0.66763,0.80117 -1.02973,1.84388 -1.76564,2.58283c-0.67846,0.68126 -1.7201,0.92012 -2.39996,1.59998c-0.18872,0.18872 -0.34347,0.40532 -0.48312,0.63429c0.27255,-0.31148 0.52862,-0.48219 0.52862,-0.48219c0.96482,-0.6184 1.80516,-1.4992 2.89445,-1.8552c1.65194,-0.53989 3.47942,-0.31717 5.15575,-0.77576c2.5281,-0.6916 4.8867,-1.94102 7.43106,-2.57017l0.30545,0.09808v-0.11681h3.20001c0.72419,0 1.37647,0.30792 1.83303,0.79999h3.76694c0.77157,0 1.46151,0.34953 1.9201,0.8989c2.01071,0.39305 4.05441,2.09818 5.44771,3.03335l0.11852,0.51023l0.19383,-0.12922l1.58102,2.37152c0.27681,0.40239 0.43883,0.88987 0.43883,1.41519c0,0.38182 -0.08559,0.74364 -0.23864,1.06733c0.35979,0.91634 0.52073,1.96003 0.88609,2.8728l-0.0034,0.0785l0.02763,-0.00921l0.78159,2.3446c0.095,0.26422 0.14676,0.54905 0.14676,0.84598c0,1.33451 -1.04563,2.4248 -2.3623,2.49627c-0.03165,0.10097 -0.05588,0.20236 -0.07,0.3042c-0.35885,2.58726 -0.58416,4.57271 -1.24583,6.92887c0.3007,0.41269 0.47812,0.92096 0.47812,1.47067c0,0.52533 -0.16203,1.01281 -0.43884,1.4152l-1.55957,2.33932c-0.25849,0.40024 -0.62819,0.72191 -1.06539,0.9213c-0.30813,0.75649 -0.91046,1.43681 -1.27393,2.17897l-0.13685,0.09547l0.0547,0.03647l-1.57853,2.36776c-0.44514,0.68925 -1.2201,1.1455 -2.10163,1.1455c-0.08558,0 -0.17016,-0.0043 -0.25353,-0.0127l-0.84477,1.26718c-0.44513,0.68927 -1.22011,1.14554 -2.10165,1.14554c-1.38071,0 -2.5,-1.11929 -2.5,-2.5c0,-0.22871 0.03071,-0.45025 0.08824,-0.66072l0.78639,-3.14562l-0.07464,-0.19366c0,0 0,-2.5 2.5,-2.5c0.07823,0 0.154,0.00245 0.22741,0.00719c0.37542,-0.60898 0.79079,-1.09653 1.33849,-1.30338c0.02006,-0.06497 0.04085,-0.12976 0.06239,-0.19437l0.78176,-2.34533c0.31417,-1.02157 1.26534,-1.76414 2.38994,-1.76414c0.022,0 0.04393,0.00028 0.0658,0.00085c1.02658,-3.13445 1.67705,-6.24791 2.11816,-9.44326l-0.53721,-1.61163c-0.08427,-0.23441 -0.13452,-0.48504 -0.14478,-0.74596h-3.10194v-0.09493c-0.13292,0.02334 -0.26639,0.0443 -0.40045,0.06265c-0.96779,0.13253 -1.86009,-0.59733 -2.79013,-0.89599l0.47109,-2.00203c-1.41787,-1.50754 -2.41513,-1.2514 -5.7708,-1.91823c0,0 -1.65525,-0.33105 -1.97345,-1.80923l-0.99537,0.19907c-0.17418,0.03842 -0.35518,0.05867 -0.5409,0.05867c-0.70074,0 -1.33414,-0.2883 -1.78806,-0.75276c-0.71446,0.28445 -1.43544,0.54829 -2.17598,0.74963c-2.23188,0.6068 -4.75951,0.64967 -6.64921,1.98328c0,0 -2.08013,1.38675 -3.46688,-0.69338c-0.50353,-0.7553 -0.54998,-1.41917 -0.40489,-1.95844c-0.1564,0.26786 -0.32917,0.52229 -0.54727,0.73949c-1.49619,1.49004 -3.18047,2.73485 -4.95815,3.84183l0.15817,0.15817l-0.54728,0.54728l0.56436,-0.37623c0.40238,-0.2768 0.88985,-0.43882 1.41517,-0.43882c1.38071,0 2.5,1.11929 2.5,2.5c0,0.52532 -0.16203,1.0128 -0.43883,1.41519l-1.44043,2.16064c-1.40366,4.32079 -3.92401,9.15614 -4.55305,13.62463c-0.16378,1.16346 0.31796,2.41672 -0.07499,3.524c-0.49277,1.38859 -1.36925,2.68871 -2.47523,3.66228c-2.54515,2.24043 -6.93263,2.51143 -10.01201,2.89452c-1.76111,0.21909 -3.58516,0.63121 -5.40759,1.06546l0.0889,0.13335l-2.37153,1.58108c-0.40239,0.27682 -0.88989,0.43886 -1.41522,0.43886c-1.38071,0 -2.5,-1.11929 -2.5,-2.5c0,-0.69034 0.27981,-1.31534 0.73221,-1.76774l2.27017,-2.27022c0.99178,-1.48511 1.30507,-3.33105 2.01132,-4.9734c0.40194,-0.93468 1.21532,-1.64419 1.67371,-2.55252c1.11455,-2.20855 1.35555,-4.7721 2.32629,-7.04752c0.37728,-0.88435 1.21844,-1.51744 1.59998,-2.39996c0.73922,-1.70986 0.92677,-3.61164 1.51463,-5.37926c0,0 0.39369,-1.18102 1.45885,-1.59843c0.03833,-0.24973 0.07947,-0.49564 0.12008,-0.73537c0.09499,-0.56077 0.43249,-1.02424 0.80296,-1.47773c-0.40623,-0.03149 -0.81085,-0.07034 -1.2107,-0.13015c-1.66798,-0.2495 -3.12965,-1.36669 -4.79998,-1.59997c-3.18527,-0.44486 -6.7752,0.03228 -9.99952,0.03228c-2.48042,0 -7.24959,-0.83251 -9.67558,-0.10727c-1.692,0.50582 -3.06282,1.80756 -4.73381,2.37898c0,0 -2.37169,0.79062 -3.16231,-1.58107c-0.29325,-0.87968 -0.15145,-1.54185 0.14302,-2.02684c-0.27133,-0.59499 -0.27133,-1.16381 -0.27133,-1.16381l0.12829,-2.39053c0.94814,-2.84449 1.58006,-6.36739 4.05426,-8.39624c0.33492,-0.27464 4.3173,-1.58875 5.37967,-1.9368c-1.81457,0.01835 -3.63521,0.02355 -5.46224,0.02355c-3.59741,0 -7.21399,0.03321 -10.70387,-0.80162c-1.6403,-0.00342 -3.14466,-0.01166 -3.29655,-0.03065c-0.70845,-0.08855 -1.28563,-0.77295 -1.99957,-0.76771c-0.84324,0.00619 -1.55692,0.81933 -2.39996,0.79999c-1.8164,-0.04168 -3.39588,-1.42161 -5.2005,-1.63226c-1.29291,-0.15092 -2.61197,0.16314 -3.90503,0.01355c-1.95997,-0.22674 -3.74045,-1.34367 -5.69494,-1.61358c-2.41487,-0.33349 -5.09062,0.07404 -7.23133,-1.09221c-1.78578,-0.97289 -2.85858,-2.99879 -4.6666,-3.9297c-0.98533,-0.50733 -2.30146,-0.47889 -3.06935,-1.278c-0.50311,-0.52357 -1.74506,-4.38686 -2.15658,-5.63412c-0.26106,4.80014 1.07744,6.95108 -4.15127,8.65903c-1.8117,0.59179 -3.68229,0.44389 -5.53044,-0.07011c-0.30998,1.02841 -1.26451,1.77742 -2.39399,1.77742h-3.20001c-1.19719,0 -7.41757,0.02421 -7.92446,-0.10727c-2.32525,-0.60318 -3.91735,-1.98897 -5.27924,-3.62083c-1.64132,-0.5443 -4.12225,-1.39667 -4.56407,-1.80412zM323.04097,234.11496l0.8995,0.1799l-0.3582,-0.71641c-0.00381,-0.00723 -0.00758,-0.01448 -0.01132,-0.02175c-0.41865,-0.16117 -0.85104,-0.29576 -1.28371,-0.43081c0.25614,0.29292 0.50689,0.62077 0.75373,0.98907zM289.7281,216.81499c0.01416,-0.09913 0.02984,-0.19907 0.04642,-0.29963c-0.5092,-0.00291 -0.9138,-0.11014 -1.23527,-0.27869c-2.08268,0.62953 -4.17094,1.16695 -6.26533,1.62565c0.6369,-0.00157 1.27729,0.01443 1.92191,0.05312c1.55906,0.09358 3.44671,-0.50945 4.66179,0.47189c0.30293,0.24466 0.56855,0.48094 0.80017,0.70987c-0.03546,-0.76483 -0.03753,-1.52725 0.07032,-2.28222zM157.75906,174.25418c-0.1728,-0.01963 -0.34618,-0.0419 -0.51925,-0.06276c0.15671,0.11222 0.31586,0.20564 0.47903,0.28328c0.01017,-0.0746 0.02362,-0.14816 0.04022,-0.22052zM176.82805,151.44767c0,0 0,0 0,0c0.01558,-0.01558 0.03137,-0.03096 0.04736,-0.04613c-0.05132,-0.20398 -0.18408,-0.39302 -0.30453,-0.58642c-0.30925,0.4221 -0.80069,0.78635 -1.58165,0.87809c0.03321,0.52251 0.03474,1.05262 0.0068,1.58648zM164.89874,173.07087c0.16759,-0.01759 0.33264,-0.03854 0.49522,-0.06277c-0.11751,-0.06455 -0.22927,-0.13826 -0.33431,-0.22019c-0.05497,0.09022 -0.10969,0.18548 -0.16091,0.28295zM176.37829,150.0405c0.0995,-0.3902 0.37685,-0.89706 0.12724,-0.77361c-0.39899,0.19732 -0.34866,0.81911 -0.52299,1.22867z" fill="#9f4d00" stroke-width="0.5"></path>
      <path d="M150.69582,180.01543c0,-1.31093 0.68742,-1.93445 1.34132,-2.23101c-0.95182,-1.06355 -1.992,-2.06157 -2.76794,-3.25466c-2.43108,-3.7381 -2.81742,-8.96613 -5.50148,-12.65257c-2.04034,-2.80231 -6.20917,-7.13168 -6.0719,-11.06175c0.04808,-1.37642 0.43446,-2.85707 1.31326,-3.91752c3.46523,-4.18156 8.0172,-2.10109 11.69537,0.30925c-0.05783,-0.53661 -0.09736,-1.07796 -0.17633,-1.59127c-0.67608,-4.39463 -1.38963,-9.03391 -0.80002,-13.60095c0.38843,-3.00873 2.13411,-5.32224 3.42194,-7.89789c1.25086,-2.50173 2.27278,-6.34646 4.72831,-8.08841c6.73757,-4.77962 11.14008,3.49559 11.21746,9.18678c0.01959,1.44097 -0.65301,2.81405 -0.81215,4.24634c-0.35338,3.18045 0.21804,5.83964 -0.8201,8.9541c0.00046,0.04022 0.21064,1.26104 0.10225,2.33862c0.71014,-0.28945 1.47806,-0.45321 2.23002,-0.43906c3.15547,0.0594 3.48246,1.38295 5.89836,2.6542c0.98079,0.51609 2.34687,0.43764 3.06941,1.27801c0.94531,1.09946 1.38581,2.62907 1.53038,4.07182c0.09932,0.99112 -0.92277,1.87708 -0.83483,2.86928c0.05548,0.62594 0.84879,0.93055 1.21678,1.43993c1.78405,2.46946 1.90046,2.63269 2.7202,5.48779c2.17011,7.55839 -0.44068,16.72666 -6.29458,22.05494c0.27175,8.29197 8.87589,9.93383 15.90375,7.4723l0.18412,3.2273l0.21751,0.23606c-0.01547,-4.74486 0.68459,-9.61633 1.10105,-14.13796c0.24638,-2.67505 -0.32623,-5.39345 0.00656,-8.05913c0.27241,-2.18204 1.33351,-4.21721 1.60004,-6.39998c0.30024,-2.45884 0.35084,-4.95448 0.8298,-7.38484c0,0 0.46769,-2.33844 2.77341,-1.99074c0.61785,-1.90774 1.27065,-3.92013 3.03791,-5.16252c2.05464,-1.44442 6.99029,-2.04134 9.54115,-2.75675c2.36597,-0.66357 4.92561,-0.30085 7.3246,-0.83281c1.25996,-0.27939 2.2197,-1.5026 3.50159,-1.65195c1.27895,-0.14901 2.4977,0.66926 3.77827,0.80379c3.24755,0.34117 6.82094,-0.01873 10.09451,-0.01873c3.92398,0 7.86231,0.47804 11.59955,-0.76771l3.60047,-0.03228c0,0 0.30024,0 0.69261,0.10404c-0.03406,-4.3045 -0.13254,-8.46225 0.90708,-12.70299l0.073,-0.07679l-0.04442,-0.0148l0.34437,-1.03312c-0.03832,-0.02025 -0.05889,-0.0326 -0.05889,-0.0326c-3.88218,-2.34928 -8.82481,-5.44053 -10.61214,-9.96025c-2.10674,-5.32741 -0.74676,-13.78356 2.67028,-18.44527c0.93581,-1.27669 2.29863,-2.18362 3.33949,-3.37622c3.29412,-3.77434 5.63126,-7.42436 11.08815,-8.02972c7.60008,-0.84312 15.98893,4.59498 20.08061,10.68097c1.65816,2.54799 2.73836,3.53755 2.81913,6.92729c0.0348,1.46012 -0.65443,2.85375 -0.81144,4.30582c-0.43203,3.99535 -0.22703,6.78475 -2.95444,10.13862c-0.29272,0.35996 -5.18776,5.18609 -5.41907,5.34164c-1.26057,0.8477 -2.78168,1.24841 -4.11071,1.97795c0.31177,0.41705 0.49639,0.93468 0.49639,1.49543v4c0,0.16475 0.00267,6.57272 -0.00852,6.60619c-0.0221,0.06611 -0.04465,0.13203 -0.06766,0.19777l0.04216,0.00703l-0.55519,3.33124c3.52103,-0.90248 7.05276,-1.90132 10.68299,-2.23372c3.87941,-0.35522 7.94964,0.51719 11.80577,0.02376c0.83646,-0.10703 1.56175,-0.7082 2.40002,-0.79999c4.08605,-0.44743 7.3655,0.32057 11.20092,0.79999c1.32305,0.16538 2.67772,-0.17123 4.00002,0c3.20883,0.41554 5.92486,2.03097 8.69791,3.42194c0.82613,0.41439 1.8461,0.40769 2.61592,0.91915c3.16279,2.10138 5.91397,5.26297 8.14303,8.25221c0.90421,3.42862 2.25413,6.88339 2.63051,10.42808c0.24632,2.31979 -0.50997,4.63797 -0.80661,6.95186c-0.27529,2.14741 0.29257,4.3517 -0.01354,6.49493c-0.65691,4.59925 -3.43191,8.88667 -3.98646,13.50507c-0.93178,7.76001 -3.09188,18.69692 -9.89451,23.37463c-2.21617,1.47745 -3.93137,2.59919 -6.07825,3.46283l-0.46766,0.70097c-0.41497,0.54358 -0.87174,1.0594 -1.30019,1.59403c11.74439,-2.93003 25.20942,-3.57424 31.10517,8.66362c2.5141,5.21855 1.0278,11.07449 1.04569,16.50461c-1.00695,6.08912 -2.53941,11.08919 -5.90667,16.21439l-0.58682,1.17361c0.06498,0.23462 0.10197,0.50173 0.10197,0.80583c0,2.5 -2.5,2.5 -2.5,2.5l-0.00937,-0.1276c-0.0353,0.01176 -0.07096,0.02276 -0.10695,0.03297c-1.89183,0.58403 -3.9195,0.59699 -5.8832,0.86233c-1.67135,0.22584 -3.12878,1.37297 -4.79997,1.59998c-2.26047,0.30705 -4.51926,-0.76771 -6.80048,-0.76771c-0.99938,0 -1.90149,0.66915 -2.89456,0.78125c-2.02375,0.22846 -2.92542,0.22035 -3.88031,-0.00739c-0.133,0.01705 -0.27453,0.02612 -0.42514,0.02612c-0.91127,0 -1.49038,-0.33216 -1.8584,-0.75435c-0.16706,-0.0555 -0.34393,-0.11349 -0.53215,-0.17393c0,0 -2.37171,-0.79057 -1.58114,-3.16228c0.69535,-2.08605 2.6139,-1.72571 3.06597,-1.60864c3.01508,-1.99106 6.00435,-3.81772 8.5724,-6.38578c1.97663,-2.99478 3.22919,-5.40813 4.36163,-8.80555c0.4502,-1.35062 1.41017,-2.58711 1.47169,-4.00945c0.12086,-2.79402 -3.50228,-4.17586 -5.49057,-4.82829c-4.11335,-1.34974 -9.50291,-2.66048 -13.83502,-1.53856c-1.639,0.42446 -3.41923,1.29664 -5.16668,2.08089c-1.43992,3.65551 -3.06007,7.17712 -4.36192,10.98433c-1.52255,2.31198 -2.02823,2.86097 -3.13609,5.45835c-1.69239,3.96783 -1.60825,8.74864 -6.15297,10.95297c-1.12757,0.5469 -2.51799,-0.03467 -3.75629,0.15803c-1.91437,0.29791 -3.82778,0.61291 -5.75408,0.82011c-4.27047,0.45935 -8.43391,1.91197 -12.64594,2.37991c-2.40029,0.26666 -4.80534,-0.49345 -7.20087,-0.79999c-7.06358,-0.90386 -14.86547,0.03228 -21.99957,0.03228c-3.26438,0 -11.45954,1.50135 -12.09998,-4.10006c-0.18345,-1.60453 2.19463,-2.37014 3.31499,-3.5333c2.13195,-2.21339 4.99481,-3.38187 7.06695,-5.48282c6.54715,-6.63817 9.49143,-14.18027 12.12972,-22.92275c1.01361,-3.35881 1.9621,-4.52662 0.15225,-7.74304c0,0 -0.2884,-0.57677 -0.27931,-1.29092c-1.13164,-0.18104 -2.26229,-0.4013 -3.39006,-0.54587c-3.43753,-0.44065 -7.04866,0.43136 -10.49502,-0.01355c-1.67266,-0.21594 -3.12863,-1.37414 -4.79998,-1.59997c-2.76799,-0.37402 -6.45937,-0.08832 -9.12401,-0.87498c-1.10457,-0.3261 -1.92676,-1.26554 -2.93038,-1.83049c-2.52596,-1.4219 -5.12139,-2.18563 -7.84357,-3.11651c-0.56263,-0.36953 -3.45006,-2.23203 -4.89468,-3.28354c-3.24537,1.15445 -6.02545,3.05315 -9.70144,3.51902c-8.97772,1.13779 -21.61655,0.46563 -28.47324,-6.31347c-3.90049,-3.85635 -6.57237,-8.99749 -7.91349,-14.2623c0.01427,-3.26921 -0.81875,-5.80414 -0.81875,-9.10544c0,-1.8869 0.2907,-3.51347 0.52189,-5.17596c-0.73841,-0.16739 -1.92194,-0.70398 -1.92194,-2.42411zM193.29738,192.76321l0.01645,0.28827c0,0 -1.01497,0.50746 -2.01917,0.1548l-0.00001,0.00002c-6.86408,1.23681 -14.77389,-0.18652 -18.1446,-6.89249c-0.87554,-1.74186 -1.05441,-2.73925 -1.0745,-4.00854c-0.77972,-0.74007 -0.77972,-1.88983 -0.77972,-1.88983l1.11323,-2.8801c5.85354,-3.73331 8.73137,-13.71358 5.54098,-20.02155c-0.76024,-1.50313 -3.14912,-3.95324 -3.41752,-5.47169c-0.25038,-1.41649 1.93806,-3.53412 0.69556,-4.25891c-0.50684,-0.29566 -1.19863,-0.07443 -1.73063,-0.32197c-1.29307,-0.60166 -2.27675,-2.20742 -3.70161,-2.14578c-2.26745,0.09808 -3.12161,3.76119 -6.26177,1.12808c-1.31951,-1.10645 -1.02206,-7.03088 -1.00594,-8.82855c1.03038,-3.09118 0.42455,-5.44796 0.77987,-8.64588c0.14118,-1.27066 0.76515,-2.47538 0.78782,-3.75366c0.01366,-0.77 -0.58983,-5.60205 -2.29999,-5.5c-1.32602,0.07913 -1.20964,0.96274 -1.91987,2.08673c-1.40834,2.22878 -2.64521,4.56265 -3.83434,6.91164c-1.92921,3.81095 -1.98984,9.558 -1.37808,13.70117c0.46041,3.11817 2.50502,3.23822 0.76542,7.37485c-0.07467,0.17755 -0.15765,0.35009 -0.24786,0.51826l0.0508,0.0254l-1.57578,3.15154c-0.40086,0.84561 -1.26228,1.4304 -2.26028,1.4304c-1.12459,0 -2.07575,-0.74255 -2.38993,-1.7641l-0.57378,-1.72129c-1.26637,-0.73774 -6.08007,-3.51325 -5.7363,-0.61459c0.12586,1.06123 1.90289,3.21345 2.14578,3.70161c0.3397,0.68273 0.25543,1.55117 0.68085,2.18404c0.59886,0.89088 1.68463,1.37403 2.30148,2.25255c1.56058,2.22261 2.99191,5.88468 4.21768,8.3634c0.71181,1.43939 0.56939,3.26204 1.48085,4.58407c0.89505,1.29823 2.07016,2.38448 3.08639,3.5903c0.04824,0.00825 0.09687,0.01834 0.14585,0.03041c0.63167,-0.14778 1.42028,-0.06277 2.20888,0.72584c1.76777,1.76777 0,3.53553 0,3.53553c-0.41871,0.41871 -0.83742,0.83742 -1.25613,1.25613c-0.18247,1.26158 -0.45782,2.51629 -0.64391,3.77658c-0.57258,3.8779 0.79785,7.47243 0.81357,11.29408c0.41427,1.70777 1.38092,3.23413 2.16451,4.80705c1.15288,2.31419 2.42537,4.60578 4.32196,6.53063c4.59978,4.66832 12.24757,4.86774 18.23224,4.86774c2.03154,0 4.0782,0.26641 6.09457,0.01873c2.97344,-0.36525 5.41106,-1.80467 8.04171,-2.93376c-1.19358,-2.50316 -1.85379,-2.94273 -2.21756,-6.27949c-0.16997,-1.5591 0.1861,-3.14619 0.01355,-4.705c-0.09278,-0.83814 -0.68414,-1.5647 -0.79999,-2.39997c-0.15019,-1.08286 -0.24134,-2.18198 -0.28648,-3.29113c-0.048,0.01293 -0.09608,0.02574 -0.14425,0.03842zM202.62118,210.20904c0.03638,0.14551 0.06184,0.28448 0.07758,0.41716c0.97338,0.82137 2.32589,1.21692 3.39545,1.94343c2.85868,0.92109 5.52382,1.7548 8.15642,3.28352c0.66808,0.38795 1.12436,1.16627 1.86967,1.36958c2.50869,0.68435 5.87326,0.33568 8.47597,0.72499c1.66799,0.2495 3.12542,1.39945 4.8,1.59998c3.38007,0.40474 6.91689,-0.42723 10.30502,-0.01355c2.19619,0.26815 4.39274,1.06665 6.58911,0.79998c2.36571,-0.28722 4.74237,-1.09135 7.10586,-0.78643c3.02024,0.38965 5.57427,1.21265 8.79913,0.79999c2.26525,-0.28987 4.51676,-0.81552 6.80042,-0.83227c6.26519,0.0258 11.86772,-2.72188 17.99958,-3.16773c1.34233,-0.0976 2.95967,-1.37336 4.00351,-0.52378c3.32743,2.70821 2.18634,5.75418 1.14443,8.65144c-1.79663,4.9959 -4.68932,9.16366 -7.33872,13.58878c2.67878,-1.81793 5.85494,-3.21988 8.20627,-5.18207c2.39427,-1.99802 4.2754,-4.48818 6.25748,-6.83436c-0.11954,-1.78516 1.73694,-2.40399 1.73694,-2.40399c0.21114,-0.07038 0.42407,-0.14097 0.63869,-0.21168c0.60772,-0.58931 1.63103,-0.676 2.16511,-1.33406c0.44562,-0.54907 0.22247,-1.42822 0.57229,-2.04278c0.27286,-0.47935 0.58766,-0.93142 0.92036,-1.37184c-0.24284,-0.354 -0.40591,-0.82943 -0.40591,-1.46792c0,-2.5 2.5,-2.5 2.5,-2.5l0.19366,0.07464c0.2303,-0.05446 0.45209,-0.11159 0.66645,-0.17143l0.25979,-0.38997c0,0 1.17607,-1.76404 2.98663,-0.96008c1.04979,-0.59209 2.05808,-1.30087 3.30671,-2.1333c3.10825,-1.98228 3.48743,-4.12761 4.61507,-7.51044c0.95772,-2.87309 2.70025,-6.21933 3.10394,-9.2099c0.13845,-1.0257 -0.14648,-2.07855 -0.01355,-3.10498c0.60916,-4.70386 3.34748,-9.03344 4.01355,-13.69501c0.29728,-2.08053 -0.26829,-4.21882 -0.01355,-6.30499c0.23845,-1.95275 1.02316,-3.89439 0.79349,-5.8482c-0.3524,-2.9978 -1.48869,-5.84502 -2.16953,-8.77193c-3.5479,-4.68733 -9.70451,-9.08167 -15.7431,-9.80672c-1.32381,-0.15895 -2.67695,0.16538 -3.99998,0c-3.33748,-0.41717 -6.00914,-1.20532 -9.59913,-0.79999c-0.83795,0.09461 -1.56299,0.69755 -2.40002,0.79999c-4.01347,0.49119 -8.17182,-0.33897 -12.19424,0.02376c-3.65981,0.33003 -7.25023,1.44647 -10.79979,2.33389c0,0 -2.22356,0.5559 -2.94486,-1.52587c-0.02034,0.00034 -0.04085,0.00051 -0.06153,0.00051c-1.48852,0 -2.09076,-0.88627 -2.33442,-1.60343c-0.10695,-0.27831 -0.16558,-0.58059 -0.16558,-0.89657v-4c0.00369,-1.53011 0.06361,-3.06509 0.19518,-4.59314c0.0336,-1.05261 0.05811,-1.81192 0.05899,-1.81517c0.0087,-0.03218 0.01751,-0.06432 0.02644,-0.09642l-0.01747,-0.00194l0.54881,-4.93944c0.03031,-0.3102 0.11731,-0.60377 0.25051,-0.87023c-0.55661,-0.3404 -1.06245,-0.95911 -1.06245,-2.08366c0,-2.5 2.5,-2.5 2.5,-2.5l-0.58676,0.41987c3.65134,-2.39811 8.38799,-4.0698 10.30047,-8.53124c0.74421,-1.7361 0.38375,-3.75833 0.59844,-5.63497c0.47061,-4.1135 1.14915,-4.56583 -1.19226,-7.9669c-2.85261,-4.32185 -9.64924,-9.32145 -15.11946,-8.51904c-4.27472,0.62705 -5.45737,3.34487 -8.11181,6.3703c-0.94581,1.078 -2.18442,1.88836 -3.06053,3.02374c-2.41794,3.13345 -3.59707,9.94833 -2.12965,13.55473c1.41111,3.46802 5.6202,5.87651 8.5878,7.63979c0,0 0.82666,0.496 1.1453,1.38533c0.97191,0.3427 1.66843,1.26919 1.66843,2.35837c0,0.22871 -0.03071,0.45025 -0.08824,0.66071l-0.78639,3.14563l-0.10748,-0.02687c0.09602,1.96813 -0.07316,3.87999 -0.68227,6.38488c-0.00057,0.08638 -0.00097,0.17279 -0.0012,0.25921l0.0656,1.57644c0,0 0,0.17953 -0.04811,0.44237c0.01951,1.18264 0.04811,2.36889 0.04811,3.55763c0,0 0,2.5 -2.5,2.5c-0.44886,0 -0.81713,-0.0806 -1.11928,-0.21284c-0.71192,1.01285 -2.08073,1.01285 -2.08073,1.01285l-2.79955,-0.03228c-3.97976,1.32659 -8.23102,0.83227 -12.40046,0.83227c-3.45791,0 -7.28507,0.38364 -10.70541,-0.01873c-0.90707,-0.10671 -1.71679,-0.91944 -2.62177,-0.79619c-1.08529,0.14782 -1.8293,1.30996 -2.89842,1.54806c-1.38904,0.30935 -2.85415,-0.10526 -4.26893,0.04814c-2.82672,0.3065 -5.72271,1.73411 -8.4991,2.34408c-0.78231,0.17187 -1.67717,0.00983 -2.36622,0.41817c-0.58031,0.34391 -1.37429,3.255 -1.46838,3.54703c0,0 -0.64762,1.94289 -2.52904,1.72553c-0.27038,1.91642 -0.3162,3.86743 -0.56141,5.78938c-0.2783,2.18132 -1.32685,4.21805 -1.60004,6.40001c-0.32885,2.62645 0.24325,5.30451 0.00657,7.94087c-0.50673,5.64427 -1.66781,12.01189 -0.8201,17.75323c0.12317,0.83422 0.70653,1.5619 0.79999,2.39997c0.18085,1.62161 -0.13252,3.26986 0.01354,4.89497c0.24608,2.73806 1.15269,3.1411 2.22847,5.74881c0.07756,0.188 0.11396,0.39369 0.14066,0.60278c0.33231,0.28465 0.61609,0.71201 0.77497,1.34752zM321.39541,264.3477c1.66707,-0.25555 3.13201,-1.35048 4.8,-1.59998c1.40772,-0.21056 2.87464,-0.16133 4.26214,-0.44585l1.10227,-2.20448c0,0 0.02477,-0.04955 0.07431,-0.13019l-0.00053,-0.00657c3.02495,-4.47537 4.3738,-8.81662 5.27077,-14.1514c0.00635,-2.04973 0.78763,-4.04811 0.79331,-6.09784c0.00206,-0.74411 -0.67634,-1.35726 -0.76954,-2.09551c-0.167,-1.32283 0.13448,-2.67347 0,-4c-0.42954,-4.2371 -5.80966,-8.73759 -9.83774,-9.11919c-7.88884,-0.74734 -15.12113,0.88416 -22.47258,3.22736c-0.28902,0.49613 -0.52256,1.03715 -0.88859,1.47638c-1.367,1.6404 -2.84179,3.1644 -4.39952,4.59309c0.65324,-0.25126 1.28871,-0.46443 1.8918,-0.61119c1.22262,-0.29753 2.51606,-0.05605 3.77432,-0.06688c7.21364,-0.06205 21.50556,0.97071 21.70001,11.3c0.00906,0.48136 -1.47104,4.81883 -1.72826,5.59053c-1.32217,3.96662 -2.90023,6.91658 -5.23835,10.3944c-1.16248,1.16247 -2.36934,2.1948 -3.61543,3.15887c1.77265,0.20614 3.52293,1.05803 5.28162,0.78844zM249.07373,228.0836c0.26238,2.39828 -0.99595,5.1691 -1.6896,7.4707c-1.02596,3.40425 -1.74077,7.52565 -3.34248,10.75952c-2.03178,4.10217 -4.60785,7.51058 -7.55716,10.93965c-0.92267,1.07277 -1.56442,2.38322 -2.57062,3.37808c-1.04644,1.03464 -3.73498,2.31407 -4.93307,3.31725c-0.01935,0.01621 -0.38539,0.57661 -0.90734,1.16766c0.04085,0 0.08165,-0.00032 0.12236,-0.00099c1.33315,-0.02209 2.66666,0 4,0c7.42781,0 15.43298,-0.86939 22.80048,0.03228c1.87134,0.22902 3.73271,1.06665 5.59906,0.79999c4.29523,-0.61369 8.57656,-1.91923 12.95415,-2.42014c1.82192,-0.20848 3.62674,-0.54834 5.44587,-0.77987c0.87575,-0.11147 1.80336,0.42847 2.64373,0.15803c1.23481,-0.39738 1.49881,-2.37756 1.78503,-3.28089c1.22739,-3.87364 2.63592,-7.31995 4.92591,-10.70782c0.97047,-3.01214 2.2033,-5.80985 3.38436,-8.64228c-0.07667,-0.12173 -0.14764,-0.257 -0.21153,-0.40719c-0.11325,0.07625 -0.22667,0.15224 -0.34028,0.22798c-1.83927,1.22619 -5.50828,4.66152 -7.63005,5.02956c-0.15987,0.02773 -0.32007,0.05125 -0.48056,0.07099l0.01416,0.07077l-3.94938,0.78992c-0.17419,0.03843 -0.3552,0.05868 -0.54094,0.05868c-1.38071,0 -2.5,-1.11929 -2.5,-2.5c0,-0.52531 0.16202,-1.01279 0.43882,-1.41517l1.51638,-2.27463c2.37231,-4.73298 5.5794,-8.79517 7.93222,-13.47409c0.59538,-1.18401 0.9766,-2.46407 1.46513,-3.69601c0.21628,-0.54541 0.40895,-1.10082 0.64929,-1.63606c0.14176,-0.31571 0.79928,-1.07769 0.49514,-0.91257c-0.39223,0.21294 -0.36558,0.96015 -0.79654,1.0762c-1.02997,0.27736 -2.14292,-0.14285 -3.19997,-0.00001c-1.57082,0.21227 -2.97729,1.09761 -4.50152,1.53263c-3.71596,1.06054 -7.24194,1.68605 -11.09898,1.69967c-2.01606,-0.01808 -3.9983,0.52279 -5.99951,0.76771c-3.71964,0.45523 -6.88334,-0.23474 -10.40094,-0.79999c-1.59402,-0.25615 -3.18856,0.35742 -4.79128,0.67426c0.5542,0.93902 1.1536,1.86549 1.26964,2.9262z" fill="#3e1e00" stroke-width="0.5"></path>
      <path d="M233.64757,176.99908c-3.49087,-6.43455 -1.70947,-14.30581 2.03576,-20.32053c1.86897,-3.00151 4.43802,-6.81611 8.51248,-6.76313c5.25904,0.06839 6.82694,4.9346 8.00034,9.00103c1.49134,5.16824 1.81985,13.02076 -1.02486,17.93077c-1.21472,2.09663 -4.80403,4.44029 -6.6152,5.78268c-1.33309,0.3489 -2.67455,1.42618 -3.99925,1.04669c-1.98745,-0.56934 -3.35141,-2.42164 -5.02711,-3.63247l-1.08249,-1.04194c0,0 -0.88555,-0.86664 -0.79968,-2.00311zM238.70164,176.18571c1.00149,0.95765 2.41858,2.78589 3.53394,2.01529c0.39449,-0.30058 4.12848,-3.00075 4.58474,-3.8173c2.13741,-3.8251 1.6966,-10.09436 0.57524,-14.06929c-0.39461,-1.39878 -0.77844,-5.51686 -3.19973,-5.39899c-1.9559,0.09521 -3.4313,3.07321 -4.28745,4.43687c-2.67357,4.25844 -4.92881,11.22687 -1.63242,15.67642c0,0 0.32799,0.49202 0.42567,1.15699z" fill="#262626" stroke-width="0.5"></path>
      <path d="M238.6832,176.23218c-0.09768,-0.66497 -0.42967,-1.15878 -0.42967,-1.15878c-3.29639,-4.44955 -1.03535,-11.50982 1.63822,-15.76826c0.85615,-1.36366 2.35541,-4.34398 4.31131,-4.43919c2.42129,-0.11787 2.82854,4.01017 3.22315,5.40895c1.12136,3.97493 1.55599,10.32731 -0.58142,14.15241c-0.45626,0.81655 -4.21578,3.5231 -4.61027,3.82368c-1.11536,0.7706 -2.54981,-1.06115 -3.5513,-2.0188z" fill="#ffffff" stroke-width="0.25"></path>
      <path d="M274.1122,181.29728c-1.36563,0.20362 -2.08521,-0.53607 -2.44456,-1.17102c-0.5288,-0.34859 -1.80987,-1.42486 -0.90792,-3.22884c0.04894,-0.09788 0.10002,-0.18934 0.15297,-0.27474c-0.5142,-4.05677 -0.42855,-8.0294 -0.41688,-12.20726c0.00876,-3.13327 -0.25,-4.34589 1.01377,-7.41139c0.3785,-0.91814 1.19521,-1.59928 1.64047,-2.48697c1.06769,-2.12858 2.11951,-4.55434 4.13147,-5.82824c3.01423,-1.9085 3.96578,-1.19367 6.90489,-0.24509c9.07609,2.92925 10.81199,13.30326 8.80975,21.47066c-2.05593,6.1824 -5.75419,14.74729 -14.02699,13.76436c-1.78991,-0.21266 -3.17875,-1.71908 -4.85697,-2.38147zM275.94886,176.62083c0.72975,0.21544 1.47314,0.39905 2.14535,0.74885c0.65443,0.34054 1.00393,1.2427 1.7283,1.38243c0.66249,0.12779 1.28375,-0.42048 1.90597,-0.68138c4.06289,-1.70358 5.15543,-5.62914 6.46707,-9.55426c1.11963,-4.37016 1.06432,-9.2318 -1.93307,-12.91608c-1.0538,-1.2953 -4.49609,-4.05695 -6.35229,-2.65833c-1.17174,0.88289 -1.61436,2.45853 -2.26856,3.77173c-0.41464,0.83231 -1.1777,1.46513 -1.55948,2.31302c-0.84859,1.88458 -0.5925,3.38362 -0.58633,5.38861c0.01282,4.17299 -0.14882,8.14179 0.45304,12.20541z" fill="#262626" stroke-width="0.5"></path>
      <path d="M275.44667,164.40621c-0.00617,-2.00499 -0.24688,-3.5317 0.60171,-5.41628c0.38178,-0.84789 1.15607,-1.48847 1.57071,-2.32078c0.6542,-1.3132 1.11065,-2.89344 2.28239,-3.77633c1.8562,-1.39862 5.32607,1.36596 6.37987,2.66126c2.99739,3.68428 3.07903,8.61359 1.9594,12.98375c-1.31164,3.92512 -2.45112,7.87928 -6.51401,9.58286c-0.62222,0.2609 -1.25053,0.80842 -1.91302,0.68063c-0.72437,-0.13973 -1.08148,-1.04388 -1.73591,-1.38442c-0.67221,-0.3498 -1.42385,-0.53715 -2.1536,-0.75259c-0.60186,-4.06362 -0.46471,-8.08512 -0.47753,-12.25811z" fill="#ffffff" stroke-width="0.25"></path>
    </g>
  </g>
</svg>
