<?xml version="1.0" encoding="UTF-8"?>
<svg xmlns="http://www.w3.org/2000/svg" xmlns:xlink="http://www.w3.org/1999/xlink" version="1.1" width="115.22178" height="115.22177" viewBox="0,0,115.22178,115.22177">
  <g transform="translate(-182.38911,-122.38912)">
    <g stroke-opacity="0.45882" stroke="#000000" stroke-miterlimit="10">
      <path d="M183.63911,223.24575c0,-23.90991 0,-73.34536 0,-86.57718c0,-6.37985 6.82511,-13.02945 13.32946,-13.02945c13.04744,0 60.56142,0 84.86278,0c8.7797,0 14.52954,7.15294 14.52954,13.88665c0,12.96571 0,58.70052 0,83.14837c0,9.42533 -5.18948,15.68675 -13.24374,15.68675c-24.12227,0 -73.94126,0 -87.00577,0c-6.14675,0 -12.47226,-5.13634 -12.47226,-13.11514z" fill-opacity="0.34118" fill="#909090" stroke-width="2.5"></path>
      <path d="M194.91134,181.32319c3.69922,-2.78492 28.22481,-21.24879 35.15304,-26.46464c1.154,-0.86878 1.84873,-0.10964 1.87676,1.11086c0.07895,3.43701 0.4519,19.6738 0.4519,19.6738c0,0 43.91577,-0.4661 50.43507,-0.53529c1.56808,-0.01664 2.91786,1.37727 2.91786,3.10264c0,2.10516 0,4.68243 0,5.75c0,0.94814 -1.09448,2.12233 -2.42008,2.12952c-6.10608,0.03314 -51.34847,0.27869 -51.34847,0.27869c0,0 0.27921,13.67161 0.34916,17.09689c0.03005,1.4716 -0.79118,2.63021 -2.24522,1.73707c-7.56681,-4.64784 -31.33962,-19.25007 -35.07072,-21.54187c-0.96645,-0.59363 -1.01515,-1.64818 -0.09929,-2.33768z" fill-opacity="0.58824" fill="#ffffff" stroke-width="0"></path>
    </g>
  </g>
</svg>
