<?xml version="1.0" encoding="UTF-8"?>
<svg xmlns="http://www.w3.org/2000/svg" xmlns:xlink="http://www.w3.org/1999/xlink" version="1.1" width="141.89867" height="205.10866" viewBox="0,0,141.89867,205.10866">
  <g transform="translate(-169.05066,-77.44567)">
    <g stroke="none" stroke-width="0.5" stroke-miterlimit="10">
      <path d="M243.22586,106.20762c-0.37788,0.56458 -0.45573,1.0592 -0.45573,1.0592c-1.0269,7.18842 -0.40991,13.96858 -0.42303,21.15374l1.06714,2.71851c0,0 0.50961,1.01169 1.52038,1.33429c1.0857,0.85458 2.51044,0.24835 2.51044,0.24835c3.23887,-1.39091 6.83759,-3.29176 10.17232,-4.30495c4.35312,-1.32259 8.88663,-1.48839 13.20137,-2.79044c7.6497,-2.30843 14.35611,-4.42283 21.92014,-0.67284c2.57416,2.07911 5.03654,4.68709 6.76637,7.51798c0.66631,1.09044 0.72069,3.55957 0.95187,4.56134c1.13791,4.93096 1.72248,9.8992 2.35445,14.95245c0.58274,4.65965 2.07879,9.19005 2.38529,13.87274c0.30647,4.68219 0.38581,9.3477 0.3971,14.0547c-0.87618,6.20297 -4.23702,10.17635 -7.59227,15.20066l-0.5068,0.10684c0,0 -1.89207,1.26216 -0.86652,3.18231l-0.22314,0.54621c-0.79062,5.89759 -4.591,12.18574 -8.28557,16.79971c-0.2939,0.36704 -0.69425,0.63312 -1.04103,0.96806c-0.51744,-4.78504 -1.88799,-9.48834 -4.03321,-13.8024c0,0 -1.05454,-2.15883 -3.2906,-1.04078c-0.13738,0.06869 -0.26235,0.14181 -0.37544,0.21815l-1.66953,0.46671c-4.499,3.60629 -9.73196,6.03211 -14.71254,8.89573c-6.80308,2.54052 -13.50124,4.22604 -20.4654,6.26983c-2.89165,0.84862 -5.64985,2.10453 -8.6159,2.75136c-3.98907,0.86992 -8.37696,0.53435 -12.42534,0.74737c-7.98477,0.42015 -14.66773,-0.21982 -22.09031,-3.40739c-3.75175,-1.60166 -6.31409,-3.51022 -9.40567,-6.03969c-1.78516,-1.46059 -3.02925,-1.54414 -4.35953,-3.5308c-8.00725,-11.95819 -9.21836,-26.58752 -10.75733,-40.43841c0,0 -0.06282,-0.56443 -0.39681,-1.12494c-0.00517,-0.09699 -0.01325,-0.1535 -0.01325,-0.1535c-0.21233,-1.46161 -0.61347,-3.38581 -0.39971,-4.90331c1.3561,-9.6269 14.25274,-12.6752 21.63034,-15.63075c4.97609,-1.99348 9.53701,-4.4959 14.73438,-5.9865c5.84334,-2.49794 12.21964,-3.82362 18.50285,-4.73364l2.97218,-0.84495c0,0 0.84304,-0.24133 1.38808,-0.9333c0.54661,0.30815 1.30109,0.43811 2.25255,-0.03762c2.23606,-1.11804 1.13642,-3.25591 1.13642,-3.25591c-2.68684,-5.29143 -2.1502,-10.91851 -2.15011,-16.60291c0.00003,-1.74152 -0.28803,-3.50318 -0.02425,-5.22461l0.16138,-0.03556c0,0 0.35393,-0.58603 0.28038,-1.38763c0.3408,-1.5383 -1.11761,-2.51125 -1.11761,-2.51125c-1.46408,-0.97605 -3.14635,-1.66908 -4.41511,-2.88827c-2.73962,-2.6326 -2.3602,-8.19918 -1.39555,-11.86712c0.8125,-0.31252 1.28959,-1.02666 1.28959,-1.02666c2.39762,-3.75939 10.46688,-7.69662 15.0391,-5.85196c5.37266,2.1676 7.47199,10.0121 4.68449,14.96911c-1.05357,1.87358 -2.90814,3.53802 -4.56197,4.84304l-1.07338,1.63423c0,0 -0.48622,0.97253 -0.176,1.95552z" fill="#e36f00"></path>
      <path d="M289.71995,237.13129c-0.66503,-0.72406 -1.46302,-1.38732 -2.41921,-1.96856c-1.72288,-1.04728 -4.2375,-1.24052 -6.15537,-1.52097l-1.01074,-0.02152c0.92768,-1.13253 1.96585,-2.03777 3.06643,-2.36734c1.14414,-0.34261 5.35205,-0.88578 6.48633,-0.03552c1.49428,1.12013 0.78987,3.98344 0.03255,5.91391z" fill="#e36f00"></path>
      <path d="M275.66335,241.59097c1.07528,-1.0854 2.28163,-2.11983 3.53991,-3.16735c0.46155,0.14664 0.84112,0.14671 0.84112,0.14671l0.44757,-0.02506c1.13531,0.15769 3.21373,0.30244 4.3481,0.91126c1.06793,0.57316 1.69291,1.8522 2.05249,3.00966c1.3716,4.41516 0.49541,7.47351 -0.45111,11.91038c-0.23915,1.121 -1.64846,5.29309 -1.65373,6.16325c-0.02465,4.07134 3.74992,10.5731 -0.14619,14.3098c-0.06455,0.06191 -4.27634,2.17765 -4.35314,2.21082c-1.14167,0.49305 -2.43496,0.65274 -3.67833,0.67631c-5.03614,-2.70133 -6.87956,-7.14634 -5.75299,-12.70346c0.43181,-2.13002 1.53161,-4.1668 1.62908,-6.33796c0.05834,-1.29964 -0.12828,-2.65916 -0.55443,-3.88834c-0.28035,-0.80861 -1.29967,-1.2554 -1.49926,-2.08764c-0.18333,-0.76445 0.33786,-1.54583 0.45365,-2.32338c0.42734,-2.86984 1.63675,-5.14727 3.27853,-7.15516c0.86509,-0.38497 1.30241,-1.25136 1.30241,-1.25136c0.06307,-0.12659 0.12906,-0.25975 0.19633,-0.39848z" fill="#e36f00"></path>
      <path d="M269.24782,263.68826c1.56173,-1.95218 3.51391,-0.39046 3.51391,-0.39046c2.27633,1.85947 5.27819,3.71938 8.28292,3.45702c1.65621,-0.14462 7.02079,-1.212 8.03947,0.05196c2.56102,3.17764 -2.18795,9.14339 -4.59918,10.58772c-4.55653,2.72938 -12.62851,3.36748 -16.13563,-1.51461c-1.16976,-1.62837 -1.37239,-4.57408 -1.64303,-6.45266l0.04847,-0.17723h-0.05476v-2.80002c0,-1.33194 1.04161,-2.42059 2.35469,-2.49584c0.05734,-0.08772 0.12155,-0.17639 0.19313,-0.26586z" fill="#9f4d00"></path>
      <path d="M265.45919,252.725c0.03985,0.39966 0.09763,0.8041 0.17803,1.21064c0.31424,1.58884 2.12669,2.84823 1.93674,4.45668c-0.32348,2.73918 -1.58525,5.31818 -1.94204,8.1119c-0.22547,-0.03644 -0.37532,-0.03623 -0.37532,-0.03623l-1.28449,0.26465c-3.14945,-1.57475 -6.33287,-3.02371 -9.26298,-4.98111c-5.11383,-4.08574 -6.61639,-9.13931 -6.61472,-15.61507c0.00252,-9.80416 3.53339,-19.1435 8.82698,-27.27461c0.01694,-0.00591 0.03398,-0.01182 0.05092,-0.01773c0.22897,1.75051 0.4868,3.55832 0.81233,5.36705c-0.07909,0.16126 -0.11415,0.36848 -0.11415,0.36848c-3.31413,10.06504 -2.12356,20.20828 6.43817,27.13369z" fill="#e36f00"></path>
      <path d="M261.74747,217.14228c1.11368,-0.40923 2.22578,-0.83129 3.32045,-1.24344c4.90038,-2.78499 10.02735,-5.24047 14.55186,-8.59696c1.78855,4.26012 2.7999,8.98672 2.77033,13.5559l0.00155,2.81438c0,1.07723 0.67994,2.00528 1.63518,2.35683c-0.88723,0.12361 -1.69099,0.31154 -2.3288,0.53688c-4.87914,1.7238 -7.92551,7.71826 -10.1999,12.28963c-0.14521,0.15336 -0.29055,0.30797 -0.43345,0.46408c-0.02679,-0.01971 -0.04203,-0.02981 -0.04203,-0.02981l-0.63664,-0.28187c-1.39979,-1.74973 -3.51303,-3.67397 -4.57701,-5.64145c-2.55284,-4.72062 -3.40383,-10.92345 -4.06153,-16.22418z" fill="#e36f00"></path>
      <path d="M243.7949,129.00011c0.33362,0.29383 0.60438,0.70009 0.74591,1.25958c0.62017,2.45146 -2.48073,2.94174 -2.48073,2.94174l-5.97846,-3.16951c0.87165,-1.37816 2.45269,-2.55872 2.74278,-4.08239c0.31941,-1.67771 -0.89195,-3.33004 -1.0448,-5.02233c-0.34526,-3.82242 0.38829,-7.60087 0.49801,-11.37722c0.02875,-0.9897 -0.61519,-1.90131 -1.18273,-2.82293c-0.74658,0.07165 -1.49305,0.11257 -2.23257,0.12293c0,0 -3.16231,0 -3.16231,-2.5c0,-2.5 3.16231,-2.5 3.16231,-2.5c0.68966,0.01389 1.42197,-0.02327 2.16951,-0.11171c1.76549,-2.73982 6.10896,-3.40776 8.14497,-6.48666c0.8841,-1.33697 -0.32072,-3.06875 0.18452,-4.52356c0.03753,-0.10806 0.07809,-0.2152 0.12143,-0.32149l-0.08977,-0.01014l0.49939,-2.76362c0.19714,-1.23096 1.52651,-2.18284 3.1371,-2.18284c1.42254,0 2.62569,0.74256 3.02309,1.76413l0.98887,2.34532l-0.28839,0.076l0.43306,0.45119c-0.08712,0.70977 -0.77685,6.86807 -1.13001,7.78782c-1.38872,3.61674 -4.82452,6.12302 -8.91222,7.55088c0.67231,1.35088 1.42858,2.69458 1.45838,4.12467c0.07582,3.63926 -0.84788,7.32777 -0.51392,11.02277c0.10731,1.18729 1.15717,5.27329 0.97905,6.17768c-0.04066,0.20645 -0.61089,1.17414 -1.27245,2.24967z" fill="#9f4d00"></path>
      <path d="M257.24623,237.19197c0.45902,0.38105 1.67955,1.62629 0.53389,3.34477c-0.8507,1.27604 -1.96232,1.24745 -2.69461,1.03466c-1.38712,0.31331 -2.75,-0.46101 -3.84789,-1.63039c-0.65489,0.09288 -1.30608,0.20702 -1.82057,-0.13778c-4.67945,-3.13605 -2.89779,-3.86437 -1.64696,-7.55956c1.57296,-4.64682 4.44586,-7.66729 6.56766,-11.94852l0.13199,-0.0987l-0.04985,-0.03323l1.5785,-2.36773c0.44513,-0.68925 1.2201,-1.1455 2.10163,-1.1455c0.79553,0 1.50428,0.37158 1.96215,0.95065c0.14405,-0.53614 0.51431,-1.08399 1.31984,-1.48675c2.23608,-1.11801 3.35409,1.11807 3.35409,1.11807c1.26887,2.55181 2.0403,6.5609 4.67825,8.1914c1.68019,1.03851 6.17368,2.32485 8.093,1.43216c0.65517,-0.30472 1.03706,-1.02128 1.64528,-1.41136c1.50576,-0.96575 3.28084,-1.45548 4.8,-2.4c1.5783,-0.98129 2.97085,-2.49284 4.11449,-4.18363c-0.11982,0.0155 -0.2424,0.02354 -0.36712,0.02354c-0.17669,0 -0.3491,-0.01612 -0.51543,-0.04678c2.29806,-2.07118 4.0564,-4.88615 6.38647,-7.2162c0.60066,-0.60065 1.70362,-0.45952 2.42152,-0.87686c0.61147,0.45575 1.00746,1.18451 1.00746,2.00577c0,0.22872 -0.03072,0.45027 -0.08825,0.66075l-0.78642,3.14559l-0.35182,-0.08796c-0.20477,3.24079 -1.10003,6.40855 -3.75603,8.66839c-0.7372,0.62724 -1.87508,0.54202 -2.72276,1.00928c-1.47075,0.81069 -2.81916,1.82629 -4.24736,2.70981c-2.40771,1.48947 -2.91487,4.20645 -5.02988,5.88092c-1.52765,1.20946 -3.73906,1.19411 -5.43255,2.15774c-1.22475,0.6969 -4.16758,4.00417 -4.88496,3.95547c-1.64134,-0.11142 -2.71586,-1.93117 -3.74448,-3.21505c-1.6193,-2.02115 -2.33865,-6.0414 -3.12322,-8.48446l0.10981,-0.40046h-0.14209v-2.80002c0,-0.25585 0.03843,-0.50272 0.10984,-0.73516c-0.89477,-1.67892 -1.56762,-3.50453 -2.4012,-5.24759l-0.33378,2.33633l-0.03871,-0.00554c0.00349,0.05772 0.00645,0.1155 0.00887,0.17335c0.04046,0.96984 -0.59654,1.85089 -0.79998,2.8c-0.78701,3.67151 -0.85999,7.86222 -1.97015,11.43214c-0.04834,0.15544 -0.09052,0.31907 -0.12865,0.48846z" fill="#9f4d00"></path>
      <path d="M221.7418,185.27163c-1.97872,-0.33241 -3.58628,-2.54067 -4.24935,-4.17756c-1.8964,-4.68156 -2.66243,-11.51274 2.09289,-14.45652c2.10986,-1.30611 6.39749,1.74495 7.77125,3.39934c3.56205,4.28968 2.70279,10.32027 -1.06303,13.91159l-1.52751,0.82693c0,0 -0.07318,0.04348 -0.18299,0.12735c-0.94305,0.18687 -1.90372,0.52638 -2.84128,0.36888z" fill="#ffffff"></path>
      <path d="M267.74181,172.77163c-1.97872,-0.33241 -3.58628,-2.54067 -4.24935,-4.17756c-1.89641,-4.68156 -2.66242,-11.51274 2.09289,-14.45652c2.10986,-1.30611 6.39749,1.74495 7.77125,3.39934c3.56205,4.28968 2.70279,10.32027 -1.06302,13.91159l-1.52751,0.82693c0,0 -0.07318,0.04348 -0.18299,0.12734c-0.94306,0.18687 -1.90371,0.52639 -2.84127,0.36889z" fill="#ffffff"></path>
      <path d="M307.28627,176.30624c2.14373,1.28625 0.85748,3.42998 0.85748,3.42998l-1.04587,1.69854c-1.83495,4.27753 -4.20671,8.97215 -7.1645,12.60019c-0.52678,0.64614 -1.35605,1.02801 -1.80673,1.72936c-2.58195,4.01806 -3.18595,9.63731 -5.01694,14.04237c-0.47446,1.14148 -0.84481,1.88438 -1.2383,2.48989l-1.15084,2.68527c-0.36946,0.91919 -1.26922,1.56815 -2.32055,1.56815c-1.27327,0 -2.32422,-0.95187 -2.48007,-2.18284l-0.35125,-2.45876c-1.18394,-2.28871 -2.33104,-4.59437 -3.47838,-6.90169c-0.25752,-0.77876 -0.61187,-1.53194 -0.77256,-2.33628c-0.09199,-0.46048 0.49087,-1.35406 0.02446,-1.40852c-0.51439,-0.06006 -0.43929,0.97237 -0.82789,1.31471c-1.77758,1.56597 -4.85502,2.95048 -6.91959,4.06942c-5.57473,3.02135 -11.94671,6.01418 -17.92736,8.14866c-4.26466,1.52205 -8.89736,1.94731 -12.68059,4.53543c0,0 -1.30889,0.8726 -2.54231,0.19516c-1.63768,0.62491 -3.34058,1.10384 -5.07007,1.35782c-5.12706,1.70907 -10.33267,1.44984 -15.58141,0.78759c-0.34245,0.07931 -0.59298,0.07931 -0.59298,0.07931l-2.95534,-0.00483c-6.65113,-0.8451 -13.53993,-3.26122 -20.24464,-3.19518c0,0 -2.5,0 -2.5,-2.5c0,-0.49142 0.0966,-0.88624 0.25181,-1.20345c-2.6807,-0.94518 -5.38117,-1.90497 -8.14238,-2.82483c0,0 -2.37171,-0.79056 -1.58115,-3.16227c0.79056,-2.37171 3.16227,-1.58115 3.16227,-1.58115c10.38121,3.46228 19.85671,7.53855 30.76301,9.09682c5.52418,0.78928 10.89601,1.43381 16.27203,-0.35824c1.78043,-0.24669 3.54315,-0.74359 5.18958,-1.46474l1.3848,-0.20214c0,0 0.26877,0 0.63005,0.08812c3.94209,-2.17867 8.22227,-2.80298 12.50258,-4.33283c5.73591,-2.05011 11.95428,-4.9297 17.27265,-7.85134c2.2509,-1.23653 4.33186,-2.79412 6.68039,-3.93058c1.53957,-0.745 3.12877,-2.35922 4.77214,-1.88527c2.34117,0.67519 3.35697,4.586 4.05189,6.6552c0.68811,1.36761 1.37296,2.73626 2.05268,4.10752c0.47881,-1.2925 0.82974,-2.63283 1.26592,-3.94137c1.06662,-3.19992 2.04561,-7.27514 3.84509,-10.12378c0.562,-0.88967 1.52544,-1.4574 2.19327,-2.27064c2.67248,-3.2544 4.78453,-7.54368 6.43547,-11.39981l1.35415,-2.30146c0,0 1.28625,-2.14373 3.42998,-0.85748z" fill="#9f4d00"></path>
      <path d="M295.28616,214.48278c0.20354,-0.57158 0.40634,-1.14375 0.60861,-1.7164c-2.10702,3.88526 -4.55035,7.29943 -7.82351,10.20752l0.32261,0.25808l-1.58558,1.98197c-0.20049,0.25505 -0.44952,0.47015 -0.73319,0.63135c1.35379,-0.03745 2.75838,0.06283 3.99886,0.34421c1.66933,-3.92885 3.77767,-7.67825 5.2122,-11.70674zM310.73956,187.10507c-4.06471,9.46499 -7.26888,19.35212 -10.74229,29.05267c-1.58577,4.42875 -4.00684,8.52225 -5.71245,12.89449c2.11711,3.47628 0.75731,8.57373 -0.80706,11.78607l0.26393,0.48197c0,0 0,1.58859 -1.26634,2.2331c0.48698,3.88723 -0.39482,8.19952 -1.18863,11.88827c-0.37226,1.72988 -1.56164,3.30922 -1.54503,5.07862c0.02499,2.66215 1.618,5.58693 1.60001,8.40001c-0.05861,9.16379 -7.51828,13.70968 -15.87437,13.63311c-4.96263,-2.38867 -8.61525,-6.15234 -9.6581,-11.20663c-0.32934,0.07353 -0.56754,0.07353 -0.56754,0.07353l-3.51803,-0.26394c-3.40961,-1.70483 -6.78039,-3.30351 -9.9576,-5.41802c-13.49728,-10.80949 -9.4574,-30.37271 -2.01812,-44.45751c-17.17143,5.31646 -35.5942,8.22959 -52.29104,1.08733c-4.1522,-1.78581 -7.16264,-3.952 -10.60017,-6.76452c-1.77777,-1.45454 -3.92384,-2.59125 -5.24312,-4.47159c-8.72162,-12.43065 -10.03856,-28.22296 -11.65662,-42.78568c0,0 -0.00353,-0.03179 -0.0062,-0.08859c-0.31109,-0.52391 -0.38395,-1.03393 -0.38395,-1.03393c-0.00952,-0.06769 -0.01916,-0.13514 -0.02887,-0.20236c-0.25076,-0.38962 -0.39625,-0.85342 -0.39625,-1.3512c0,-0.23852 0.0334,-0.46922 0.09578,-0.68771c-0.17837,-1.32626 -0.27774,-2.62958 -0.07162,-4.05903c1.72883,-11.98914 15.33061,-15.81372 24.76951,-19.58319c5.01796,-2.00394 9.62239,-4.53256 14.86885,-6.02561c6.00946,-2.58226 12.64571,-3.97957 19.11607,-4.88946l2.63457,-0.75878c0,0 0.19532,-0.05581 0.49053,-0.07993c-1.75089,-5.1641 -1.50352,-10.36503 -1.50361,-15.89434c-0.00003,-1.99184 -0.24107,-4.00148 0.02503,-5.97546l0.05034,-0.12329c-1.49311,-0.9958 -3.6018,-2.41041 -3.74322,-2.5554c-4.43665,-4.54869 -4.02477,-12.62848 -2.20394,-18.15835l2.05363,-1.84547c0,0 0.06405,-0.03203 0.17591,-0.0744c4.3157,-5.20631 13.66523,-9.23133 20.2344,-6.7749c8.32808,3.11415 11.33034,14.40046 7.3038,21.93006c-1.3202,2.46877 -3.70192,4.63263 -5.83429,6.35746l0.27435,-0.03415c0,0 -0.08763,0.17525 -0.26289,0.40311c0.18141,0.62413 0.10165,1.18241 0.10165,1.18241c-0.94008,6.58066 -0.44543,12.80827 -0.38125,19.35538c6.41591,-2.67056 12.67304,-4.8416 19.55962,-5.78476c3.5799,-0.49029 7.07629,-2.40887 10.62538,-3.16918c6.35331,-1.36105 12.09639,-0.56466 17.86878,2.33919c3.18616,2.53118 6.41451,5.70734 8.43662,9.28922c1.41238,2.50184 0.84827,3.23868 1.4491,5.84222c1.17824,5.10563 1.79376,10.23144 2.44696,15.45952c0.59438,4.75723 2.08893,9.34971 2.41364,14.13763c0.33329,4.91447 0.41044,9.813 0.39999,14.75447c-0.17818,1.23683 -0.42234,2.50202 -0.73608,3.76192c1.81241,1.0606 0.94022,3.09567 0.94022,3.09567zM264.07997,251.67242c-8.56174,-6.92541 -9.7241,-17.07771 -6.40997,-27.14275c0,0 0.03575,-0.10723 0.11483,-0.26848c-0.32552,-1.80873 -0.58171,-3.61657 -0.81067,-5.36708c-0.01694,0.00591 -0.03388,0.01181 -0.05082,0.01772c-5.29359,8.1311 -8.77911,17.40426 -8.78163,27.20842c-0.00167,6.47575 1.46178,11.49622 6.57561,15.58196c2.93011,1.9574 6.09297,3.40725 9.24243,4.982l1.28194,-0.26394c0,0 0.14918,0 0.37465,0.03644c0.35679,-2.79372 1.60771,-5.36765 1.93119,-8.10683c0.18995,-1.60845 -1.62469,-2.86638 -1.93894,-4.45523c-0.0804,-0.40654 -0.13994,-0.80969 -0.1798,-1.20934zM268.00736,243.21548l-1.51783,-1.13347c-1.59362,-1.99202 -3.82011,-4.13746 -5.04387,-6.36703c-0.18963,-0.34548 -0.37099,-0.69729 -0.54457,-1.05478c0.01972,4.57231 1.5637,8.84671 5.27954,12.24005c0.45565,-1.2801 1.08219,-2.5099 1.82672,-3.68478zM265.83777,233.32556c1.06398,1.96748 3.15631,3.88324 4.5561,5.63297l0.63456,0.28159c0,0 0.01511,0.01008 0.0419,0.02979c0.14289,-0.1561 0.28703,-0.31085 0.43224,-0.4642c2.27439,-4.57137 5.26941,-10.53336 10.14855,-12.25716c0.63782,-0.22534 1.43989,-0.40779 2.32713,-0.53141c-0.95524,-0.35155 -1.63657,-1.26966 -1.63657,-2.34689v-2.79999c0.02957,-4.56918 -0.95276,-9.26218 -2.74131,-13.5223c-4.52451,3.35649 -9.59581,5.80029 -14.49618,8.58527c-1.09467,0.41215 -2.19931,0.82403 -3.31299,1.23326c0.6577,5.30072 1.49372,11.43845 4.04656,16.15906zM289.6451,231.24404c-1.13428,-0.85027 -5.26869,-0.29469 -6.41283,0.04792c-1.10058,0.32957 -2.12005,1.19888 -3.04773,2.33141l1.0107,0.02202c1.91786,0.28045 4.3402,0.44359 6.06308,1.49087c0.95619,0.58123 1.75619,1.2415 2.42122,1.96556c0.75732,-1.93046 1.45984,-4.73766 -0.03445,-5.85779zM275.47776,242.03829c0,0 -0.43255,0.86509 -1.29764,1.25006c-1.64178,2.00789 -2.83038,4.27215 -3.25772,7.142c-0.11578,0.77756 -0.6309,1.55107 -0.44757,2.31553c0.19959,0.83223 1.22189,1.27351 1.50224,2.08213c0.42615,1.22917 0.61717,2.563 0.55883,3.86264c-0.09746,2.17116 -1.20901,4.18018 -1.64082,6.31019c-1.12658,5.55713 0.68486,9.98496 5.721,12.68629c1.24336,-0.02357 2.52724,-0.18351 3.6689,-0.67656c0.0768,-0.03317 4.27603,-2.14641 4.34058,-2.20833c3.89611,-3.7367 0.09147,-10.21063 0.11612,-14.28197c0.00527,-0.87016 1.41584,-5.00039 1.65498,-6.12139c0.94652,-4.43687 1.84492,-7.47288 0.47331,-11.88804c-0.35957,-1.15746 -0.97695,-2.4334 -2.04489,-3.00657c-1.13437,-0.60882 -3.20164,-0.75143 -4.33695,-0.90912l-0.44644,0.02513c0,0 -0.37742,0 -0.83896,-0.14664c-1.25829,1.04752 -2.45419,2.08095 -3.52947,3.16635c-0.06727,0.13873 -0.13245,0.27173 -0.19552,0.39832zM243.40564,104.20224l1.07433,-1.63415c1.65383,-1.30502 3.51209,-2.96898 4.56566,-4.84255c2.7875,-4.957 0.67646,-12.70233 -4.69619,-14.86993c-4.57221,-1.84466 -12.63001,2.09201 -15.02762,5.8514c0,0 -0.47597,0.71394 -1.28847,1.02645c-0.96465,3.66794 -1.36349,9.13643 1.37614,11.76903c1.26876,1.21919 2.95489,1.91158 4.41896,2.88763c0,0 1.45929,0.97285 1.11849,2.51115c0.07354,0.8016 -0.26916,1.487 -0.26916,1.487l-0.16119,0.03553c-0.26378,1.72143 0.02506,3.48299 0.02503,5.22451c-0.00009,5.6844 -0.55069,11.21246 2.13615,16.50389c0,0 1.11804,2.23606 -1.11802,3.35411c-0.95146,0.47573 -1.7005,0.34419 -2.24711,0.03603c-0.54504,0.69197 -1.38414,0.93171 -1.38414,0.93171l-2.96541,0.84122c-6.28321,0.91002 -12.64056,2.21257 -18.4839,4.71052c-5.19737,1.4906 -9.7551,3.9809 -14.73119,5.97438c-7.3776,2.95556 -20.27435,5.98992 -21.63045,15.61682c-0.21376,1.51751 0.1867,3.4381 0.39903,4.89971c0,0 0.00806,0.05641 0.01323,0.1534c0.33399,0.56051 0.3966,1.12408 0.3966,1.12408c1.53897,13.85089 2.73616,28.4561 10.74341,40.41429c1.33028,1.98666 2.57169,2.06783 4.35685,3.52841c3.09158,2.52947 5.64808,4.43384 9.39983,6.03551c7.42258,3.18757 14.09219,3.82183 22.07696,3.40168c4.04838,-0.21302 8.42779,0.12108 12.41685,-0.74884c2.96605,-0.64683 5.71791,-1.90287 8.60956,-2.7515c6.96417,-2.04379 13.64627,-3.72595 20.44934,-6.26647c4.98058,-2.86362 10.20173,-5.28289 14.70074,-8.88918l1.66852,-0.46595c0.11309,-0.07635 0.23781,-0.14925 0.37519,-0.21794c2.23606,-1.11804 3.35411,1.11802 3.35411,1.11802c2.14522,4.31406 3.5129,9.01961 4.03034,13.80465c0.34678,-0.33494 0.68753,-0.68131 0.98144,-1.04836c3.69457,-4.61397 7.48667,-10.89422 8.27729,-16.79181l0.2229,-0.54591c-1.02555,-1.92015 0.86523,-3.18067 0.86523,-3.18067l0.50664,-0.10663c3.35526,-5.02431 6.71023,-8.98749 7.58641,-15.19046c-0.01129,-4.707 -0.09352,-9.36337 -0.39999,-14.04556c-0.30651,-4.68269 -1.80366,-9.20273 -2.38641,-13.86237c-0.63197,-5.05325 -1.21511,-10.00951 -2.35303,-14.94047c-0.23118,-1.00178 -0.28454,-3.46734 -0.95086,-4.55777c-1.72983,-2.83089 -4.18923,-5.43166 -6.76339,-7.51076c-7.56403,-3.74999 -14.26405,-1.62596 -21.91375,0.68247c-4.31474,1.30204 -8.84034,1.47538 -13.19345,2.79797c-3.33473,1.01318 -6.92174,2.92067 -10.16061,4.31158c0,0 -1.41898,0.60814 -2.50468,-0.24644c-1.01077,-0.3226 -1.51617,-1.33336 -1.51617,-1.33336l-1.06396,-2.71806c0.01313,-7.18516 -0.60179,-13.96513 0.42512,-21.15355c0,0 0.08491,-0.59437 0.46279,-1.15895c-0.31021,-0.98299 0.17603,-1.95552 0.17603,-1.95552z" fill="#3e1e00"></path>
      <path d="M226.83797,189.23127c-0.62678,0.45451 -1.34752,0.52659 -1.34752,0.52659c-4.58562,0.34789 -5.62597,1.2934 -9.54356,-2.24979c-6.73264,-6.08919 -6.96746,-20.69193 1.33454,-25.25226c7.24506,-3.97975 16.00528,5.11455 17.22016,11.76838c0.94679,5.18553 -1.26569,9.86995 -4.69212,13.41384l-2.48152,1.57597c0,0 -0.18966,0.11379 -0.48999,0.21728zM224.57356,184.85366c0.10981,-0.08387 0.18191,-0.12713 0.18191,-0.12713l1.51848,-0.82405c3.76582,-3.59132 4.61384,-9.53659 1.05178,-13.82627c-1.37376,-1.65438 -5.6139,-4.69762 -7.72376,-3.39151c-4.75532,2.94378 -3.9704,9.69262 -2.07399,14.37418c0.66307,1.63689 2.24077,3.83066 4.21949,4.16307c0.93756,0.1575 1.88304,-0.18141 2.82609,-0.36828z" fill="#262626"></path>
      <path d="M272.83797,176.73127c-0.62678,0.45451 -1.34753,0.52659 -1.34753,0.52659c-4.58562,0.34789 -5.62596,1.2934 -9.54355,-2.24979c-6.73264,-6.08919 -6.96746,-20.69193 1.33454,-25.25226c7.24506,-3.97975 16.00529,5.11455 17.22016,11.76838c0.94679,5.18553 -1.2657,9.86995 -4.69212,13.41383l-2.48152,1.57597c0,0 -0.18965,0.11379 -0.48999,0.21728zM270.57356,172.35366c0.10981,-0.08387 0.1819,-0.12712 0.1819,-0.12712l1.51848,-0.82405c3.76581,-3.59132 4.61384,-9.53659 1.05178,-13.82628c-1.37376,-1.65438 -5.61389,-4.69761 -7.72375,-3.3915c-4.75532,2.94378 -3.97041,9.69261 -2.074,14.37417c0.66307,1.63689 2.24077,3.83066 4.21949,4.16307c0.93756,0.1575 1.88304,-0.18141 2.82609,-0.36829z" fill="#262626"></path>
    </g>
  </g>
</svg>
