<?xml version="1.0" encoding="UTF-8"?>
<svg xmlns="http://www.w3.org/2000/svg" xmlns:xlink="http://www.w3.org/1999/xlink" version="1.1" width="115.22178" height="115.22177" viewBox="0,0,115.22178,115.22177">
  <g transform="translate(-182.38911,-122.38911)">
    <g stroke-miterlimit="10">
      <path d="M296.36088,223.24575c0,7.9788 -6.32551,13.11514 -12.47226,13.11514c-13.06451,0 -62.8835,0 -87.00577,0c-8.05426,0 -13.24374,-6.26142 -13.24374,-15.68675c0,-24.44785 0,-70.18266 0,-83.14837c0,-6.73371 5.74984,-13.88665 14.52954,-13.88665c24.30136,0 71.81534,0 84.86278,0c6.50435,0 13.32946,6.6496 13.32946,13.02945c0,13.23182 0,62.66727 0,86.57718z" fill-opacity="0.34118" fill="#909090" stroke-opacity="0.45882" stroke="#000000" stroke-width="2.5"></path>
      <path d="M259.06434,208.25927c-1.5601,7.80002 -5.38825,12.3515 -13.63353,13.71261c-7.04043,-1.11995 -13.16078,-4.31371 -20.10735,-5.54866c-5.78585,-1.0286 -14.44759,2.42156 -19.98304,-0.19224c-5.82531,-2.75067 -3.79608,-12.28009 -3.55008,-17.61002c-2.12418,-0.92942 -4.22029,-1.78109 -5.72405,-4.45007c-1.68505,-2.99077 -1.45774,-6.29872 -1.72803,-9.64408c-0.54151,-6.70209 -1.84674,-13.18073 -1.85311,-19.97824c0,0 0,-0.49406 0.17474,-1.05479l0.28591,-2.32543c-0.14631,-1.19005 -0.29263,-2.38009 -0.43894,-3.57015c0,0 -0.14218,-1.21723 0.44663,-2.10918c0.00353,-0.28453 0.03424,-0.47229 0.03424,-0.47229c1.65836,-8.30214 6.70427,-7.58058 12.30391,-8.83572c2.85577,-0.64011 5.94954,-2.52407 8.90129,-0.22606c1.43066,1.11381 1.68967,3.75499 3.06758,4.96419c1.04116,0.91368 7.22743,-4.74325 8.55332,-5.23965c4.89004,-1.83081 7.8565,-0.41905 12.42069,2.03467c1.10244,1.32003 2.24633,2.6716 2.97966,4.33172l0.36354,-0.04486c0.26437,-0.52489 0.59975,-0.83252 0.59975,-0.83252c4.19324,-3.828 9.99869,-7.9236 15.52333,-6.67759c3.23971,0.73068 7.47092,7.65631 10.82123,6.73619c1.88677,-0.51818 3.31164,-2.52794 5.14662,-3.27417c5.1287,-2.0857 9.59647,-1.5578 13.80979,2.46366l1.60766,3.19598c0,0 0.85045,1.73347 -0.17696,3.07708c1.27741,0.92569 0.88085,2.86571 0.88085,2.86571c-0.34913,1.70798 -0.69826,3.41593 -1.04739,5.12391l-0.30646,2.04228c0,0 -0.11854,0.77952 -0.57497,1.40486l-0.33933,2.49004l-0.05054,-0.0103l0.02707,0.1569c-1.27914,5.49285 -3.17279,10.59645 -4.6508,15.97698c-2.40794,8.76584 -5.39494,20.22234 -14.76279,21.56446c-3.27109,0.46865 -7.21565,-2.02154 -9.91538,-3.64797c0,0 -0.32416,-0.19822 -0.64047,-0.59467c-0.19486,0.42762 -0.39717,0.85389 -0.60863,1.27099zM207.21117,212.33864c5.64866,1.69879 12.93757,-1.10613 18.7113,-0.19224c6.72799,1.06493 12.78288,4.32797 19.50834,5.50692c5.64127,-0.95486 7.88181,-4.0437 9.07927,-8.81388c-0.07947,0.07553 -0.16005,0.14844 -0.24178,0.21857c-4.09285,3.512 -14.58677,0.36169 -18.2554,-4.53656c-0.49102,0.38215 -0.98204,0.7643 -1.47306,1.14645l-1.42371,1.10803c0,0 -1.4229,1.10741 -2.55387,-0.17318c-5.3133,4.09956 -15.11051,6.43111 -18.87582,-0.11847c-1.11219,-1.9346 -0.66635,-4.14186 -0.73651,-6.23865c-0.77694,-0.13575 -1.55387,-0.27149 -2.33081,-0.40724l-0.72609,0.01254l-2.06517,1.15279c-0.40774,4.17579 -0.8453,10.66469 1.3833,11.33492zM238.84568,199.18659c0.38973,0.74901 0.44255,1.40646 0.34093,1.94925c1.22311,2.64958 4.11116,2.03497 6.13161,2.52294c5.45602,1.3177 6.70969,1.89321 9.55366,-4.72602c1.53525,-4.69471 2.8022,-10.01416 3.46262,-15.29866c-1.26724,-0.9741 -0.815,-2.90986 -0.815,-2.90986l1.82948,-7.83106c0.2423,-1.13435 1.08588,-1.97146 2.08932,-1.97146c1.19254,0 2.15928,1.18233 2.15928,2.64081c0,0.19619 -0.01749,0.38739 -0.05067,0.57138l-0.42052,2.57149c-0.00952,7.56776 -1.65864,15.8287 -3.85907,22.94855c0.48002,0.06245 0.8334,0.27854 0.8334,0.27854c2.03855,1.2684 5.08159,3.31955 7.58924,3.11249c0.99339,-0.08202 2.49842,-1.85536 3.13835,-2.37857c4.82283,-3.94327 5.67139,-6.9078 7.07247,-12.34711c-0.42402,-1.04679 -0.04143,-2.2166 -0.04143,-2.2166l0.92129,-2.81687c1.39638,-4.26938 2.52176,-7.98433 3.9928,-11.64079c0.04241,-0.1596 0.08436,-0.31947 0.12583,-0.47962l-0.46078,-0.18785l1.34989,-4.95281c0.10318,-0.41033 0.28592,-0.77804 0.52618,-1.07622l0.23843,-1.55024c0.34913,-1.70798 0.69826,-3.41593 1.04739,-5.12391c0,0 0.11359,-0.55566 0.44654,-1.08472c-0.43075,-0.38444 -0.66393,-0.85972 -0.66393,-0.85972l-1.15625,-2.43774c-5.22872,-5.3705 -9.97412,1.56432 -15.13146,2.56976c-5.17131,1.00816 -7.76515,-5.81915 -12.21113,-6.78476c-3.87231,-0.84101 -8.14813,2.19853 -11.25653,4.94102c-0.11151,2.43046 -2.15455,2.43046 -2.15455,2.43046l-4.19018,-0.2788c-1.12886,-1.59071 -2.27178,-3.16864 -3.46944,-4.68221c-1.62606,-0.82343 -3.15968,-2.16799 -4.91202,-2.36793c-4.60906,-0.52589 -7.70399,5.11213 -11.80722,6.13155c-5.23226,1.29991 -4.06737,-2.63307 -7.14645,-5.38464c-1.62734,-1.45424 -4.37949,0.57844 -5.83941,0.90066c-3.15065,0.69539 -8.37864,-0.61314 -8.88589,4.68521c0,0 -0.09215,0.56347 -0.40539,1.11217c0.14911,1.33455 0.29821,2.6691 0.44733,4.00365l-0.45649,4.0857c0.08063,6.36116 1.30759,12.4591 1.82794,18.75231c0.20518,2.48146 -0.12664,4.9844 1.03581,7.25707c1.06616,2.08442 3.67413,2.90762 5.97327,3.92588c0.62768,-0.60598 1.43701,-0.60598 1.43701,-0.60598l2.14797,0.02654c0.44834,0.07833 0.89667,0.15667 1.34501,0.235c-0.53404,-8.8093 -0.58515,-17.37899 -0.58515,-26.35269c0,0 0,-2.64081 2.15928,-2.64081c2.15928,0 2.15928,2.64081 2.15928,2.64081c0,9.21959 -0.60931,18.4412 0.42274,27.61046c0.18866,1.67617 -0.04435,6.16549 0.64445,7.63578c0.82372,1.75829 1.89229,1.02676 3.22258,0.98561c4.05812,-0.12552 7.92347,0.1255 10.91066,-3.73352l1.98748,-0.77347c0,0 0.72825,0 1.3389,0.51724c0.51524,-0.401 1.04842,-0.81596 1.54322,-1.20105c-0.18767,-2.26974 0.02571,-4.69127 0.02571,-6.81607c0,-7.24362 -0.20141,-14.24087 0.96321,-21.36266c0,0 0.42346,-2.58952 2.54081,-2.07163c2.11735,0.51789 1.69389,3.10741 1.69389,3.10741c-1.10658,6.76686 -0.87935,13.43667 -0.87935,20.32687c0,1.81366 -0.28547,4.10645 -0.09306,6.10545c0.07408,0.10884 0.1463,0.22979 0.21612,0.36397z" fill-opacity="0.55686" fill="#000000" stroke="none" stroke-width="0.5"></path>
    </g>
  </g>
</svg>
