<?xml version="1.0" encoding="UTF-8"?>
<svg xmlns="http://www.w3.org/2000/svg" xmlns:xlink="http://www.w3.org/1999/xlink" version="1.1" width="240.93872" height="253.40345" viewBox="0,0,240.93872,253.40345">
  <g transform="translate(-119.53064,-8.17947)">
    <g stroke-miterlimit="10">
      <path d="M192.48129,216.37312l0.00026,-2.00214c0,-0.67464 0.00035,-1.3514 0.00035,-2.02604l0.21803,0.06003c0,0 2.23694,-1.12171 1.11894,-3.3578c-0.36121,-0.72245 -0.83887,-1.09567 -1.32038,-1.26871v-0.00002c-0.01207,-0.13852 -0.02763,-0.27715 -0.04766,-0.41505c-0.22379,-1.54067 -1.5665,-2.84624 -1.5665,-4.40307c0,-2.64135 2.74213,-5.75555 4.07157,-7.84011c2.24417,-1.45184 3.99193,-4.08765 6.44826,-5.08801c1.0183,-0.4147 2.19135,-0.36903 3.20195,-0.80215c0.88373,-0.37875 1.52126,-1.21685 2.40214,-1.60219c4.23695,-1.85344 8.64878,-0.82284 13.00007,-1.42637c0.83526,-0.11585 1.56641,-0.69436 2.40285,-0.80139c4.15319,-0.53145 8.83178,0.3132 12.90858,0.80919c8.47673,1.0313 16.44537,6.33944 24.21506,9.45174c1.1189,0.40764 2.38879,0.53752 3.36028,1.22624c0.64602,0.45798 0.76611,1.39521 1.23513,2.03326c4.15075,5.6466 7.27106,11.37124 10.0408,17.80845c0.42322,0.98362 1.31826,4.44952 1.78336,5.16467c1.78566,2.74569 4.54312,4.65578 6.75814,6.86086c5.47744,5.45286 7.65762,11.73056 5.987,19.41554c-1.32742,1.24199 -2.27705,2.96408 -3.85865,3.86024c-0.79133,0.44838 -1.79051,0.33849 -2.66828,0.57674c-7.31844,1.98647 -14.51039,1.59142 -21.96073,2.32518c-1.35319,0.13327 -2.65311,0.64936 -4.0042,0.80243c-7.12657,0.80741 -14.55169,-0.76658 -21.68743,0.01187c-3.07697,0.33567 -5.80594,1.20696 -9.00053,0.79742c-2.49625,-0.32001 -4.99716,-0.81169 -7.51381,-0.82264c-3.80967,0.04393 -4.34128,-0.90217 -7.94024,-2.2501c-0.98162,-0.36765 -2.0909,-0.34002 -3.05827,-0.74368c-4.80818,-2.00635 -9.646,-7.05629 -12.58074,-11.17204c-1.23612,-1.73357 -2.93771,-3.20806 -3.75687,-5.17332c-0.41549,-0.99681 -0.33529,-2.16322 -0.77748,-3.14848c-0.59589,-1.3277 -1.86564,-2.32604 -2.30128,-3.7146c-1.11249,-3.54595 0.27756,-7.41913 2.10735,-10.65435c0.09049,0.00739 0.18467,0.01123 0.2827,0.01123c2.5,0 2.5002,-2.50283 2.5002,-2.50283z" fill="#a2f9ff" stroke="none" stroke-width="0.25"></path>
      <path d="M252.27651,232.44744c-1.77018,-0.67268 -3.38622,-1.18635 -5.00971,-1.61791c-0.20814,0.29141 -0.47729,0.53625 -0.7888,0.71586l-0.50188,0.30113c-0.07607,0.20534 -0.17834,0.39797 -0.30275,0.57382c0.4396,-0.00685 0.94675,0.01288 1.55809,0.09006c0.73826,0.0932 1.35148,0.7584 2.09552,0.76955c0.83506,0.01251 1.60339,-0.46808 2.40508,-0.70212c0.1745,-0.05631 0.35732,-0.0974 0.54444,-0.13039zM225.97129,216.12407c1.95992,-0.41143 4.11623,-0.46137 5.65979,-0.44599c1.30856,0.01304 2.67152,-0.27055 3.92442,0.10727c1.48518,0.44787 2.4215,1.21055 3.28471,2.08382c2.08225,1.01877 3.02805,2.01191 3.21441,2.95264c0.60865,0.36453 1.24719,0.68975 1.74419,1.18854c0.60346,0.60562 0.70117,1.62394 1.34976,2.18097c1.56772,1.3464 5.19044,0.86591 6.88297,1.11908c4.10418,0.6139 9.03943,2.52376 7.53132,8.16922c-0.40232,1.50605 -2.30031,2.13627 -3.63343,2.94425c-0.84311,0.511 -1.86624,0.63637 -2.79936,0.95456c-1.33165,0.29928 -2.63015,0.88412 -3.99494,0.89785c-0.943,0.00949 -1.76863,-0.71451 -2.70453,-0.83043c-2.37224,-0.29383 -4.94442,0.01549 -7.09791,-1.02199c-2.58075,-1.24331 -4.64665,-3.51936 -7.2,-4.79998c-3.26912,-1.63962 -6.70588,-1.12363 -10.09224,-2.27405c-2.86213,-0.97233 -8.33327,-4.14565 -8.10938,-7.97175c0.31072,-5.30985 7.27597,-6.67631 11.22448,-5.59272c0.28689,0.07873 0.55669,0.19645 0.81574,0.33871z" fill="#6ba3a7" stroke="none" stroke-width="0.5"></path>
      <path d="M283.94069,251.91612c-1.00018,0.79249 -2.07521,1.344 -3.10919,1.52973c-1.16292,0.20889 -2.19405,0.05125 -3.062,-0.36344c-0.73523,0.60564 -1.50738,1.12763 -2.31625,1.51775c-1.52765,0.73677 -3.61741,1.98215 -4.99132,0.98771c-0.5165,-0.37384 -0.94305,-0.75384 -1.28839,-1.13817c-0.25229,-0.2236 -0.45905,-0.49743 -0.6046,-0.80582c-0.09491,-0.15607 -0.17776,-0.31264 -0.24911,-0.46957c-0.84396,0.48615 -1.68223,0.92755 -2.49836,1.32148c-1.91883,0.92618 -7.61338,2.99462 -9.92342,2.96805c-1.90485,-0.02191 -4.79358,0.55748 -5.5936,-1.17137c-0.94282,-2.03744 0.79679,-4.56687 2.08859,-6.40298c0.55413,-0.78762 5.68052,-1.87306 6.53906,-2.1117c3.64055,-1.01191 7.11622,-3.60634 10.53057,-5.29194c2.22015,-1.85584 4.62593,-3.90787 6.51328,-6.27629c-0.10299,-3.50076 -1.99657,-6.89844 -2.04488,-10.83145c0,0 0,-2.5 2.5,-2.5c2.5,0 2.5,2.5 2.5,2.5c-0.01827,1.1046 0.17147,2.11733 0.45137,3.09008l0.30578,-0.76446c0.35452,-0.94948 1.26971,-1.6256 2.34282,-1.6256c1.38071,0 2.5,1.11929 2.5,2.5c0,0.22871 -0.03071,0.45025 -0.08824,0.66072l-0.56667,2.26674l2.47297,1.23651l-0.02452,0.04903c0.28207,0.15147 0.54851,0.33189 0.79511,0.54903c4.28226,3.77085 1.90076,10.78359 0.32391,14.80186l-1.73241,2.62285c0,0 -0.66732,1.00098 -1.77051,1.15128z" fill-opacity="0.53333" fill="#76b3b8" stroke="none" stroke-width="0.5"></path>
      <path d="M192.31408,243.07537c-2.49726,-0.11698 -2.38028,-2.61425 -2.38028,-2.61425l0.14303,-3.02241c-0.80764,-0.53162 -1.57384,-1.10306 -2.1285,-1.87776c-0.02236,-0.03123 -0.04445,-0.06258 -0.06629,-0.09405c-0.32197,-0.24927 -0.53886,-0.43808 -0.59233,-0.51362c-2.0279,-2.86527 -3.38597,-7.71896 -0.93587,-10.96627c0.30223,-0.40056 0.67117,-0.81718 1.08364,-1.20198c0.82297,-2.90584 1.91172,-5.66702 2.62187,-7.79747c0,0 0.79057,-2.37171 3.16228,-1.58114c2.37171,0.79057 1.58114,3.16228 1.58114,3.16228c-0.62607,1.87821 -1.27962,3.70186 -1.83278,5.55185c3.44122,2.35551 3.12576,7.57933 2.57924,11.66508l2.23629,1.49082c0.68927,0.44513 1.14554,1.22011 1.14554,2.10165c0,1.38071 -1.11929,2.5 -2.5,2.5c-0.22871,0 -0.45025,-0.03071 -0.66072,-0.08824l-0.79091,-0.19772l-0.05111,1.10296c0,0 -0.11698,2.49726 -2.61425,2.38028z" fill-opacity="0.53333" fill="#76b3b8" stroke="none" stroke-width="0.5"></path>
      <path d="M263.1516,209.37855c-1.60046,1.92055 -3.52101,0.32009 -3.52101,0.32009l-0.95889,-0.79907c-1.47026,-1.22908 -3.0171,-2.26507 -4.58422,-3.24893c-0.44105,0.39044 -1.02106,0.62746 -1.65642,0.62746c-0.2969,0 -0.58172,-0.05176 -0.84591,-0.14674l-2.34466,-0.78153l-0.00944,0.12829c0,0 -2.5,0 -2.5,-2.5c0,-0.74965 0.22479,-1.27451 0.53956,-1.64199c-1.41594,-0.64253 -2.86801,-1.06559 -4.43013,-1.58632c0,0 -2.3717,-0.7906 -1.5811,-3.1623c0.04299,-0.12898 0.09066,-0.2486 0.14238,-0.35951c-0.16597,-0.12228 -0.77292,-0.60952 -1.02091,-1.36175c-1.9736,-0.04422 -3.97188,0.21187 -5.94978,0.21187c-3.849,0 -7.94599,-0.61145 -11.60947,0.6717c0,0 -2.37171,0.79055 -3.16227,-1.58116c-0.79055,-2.37171 1.58116,-3.16227 1.58116,-3.16227c4.32643,-1.38935 8.67634,-0.92827 13.19058,-0.92827c2.91558,0 5.87045,-0.45302 8.74672,0.02416c5.08384,0.84343 10.07205,3.04826 14.68526,5.22657l2.73577,2.6815c0,0 1.76776,1.76778 -0.00002,3.53553c-1.76778,1.76776 -3.53553,-0.00002 -3.53553,-0.00002l-2.06416,-2.11849c-1.39332,-0.63163 -2.83755,-1.27555 -4.3124,-1.87567c0.25561,0.1886 0.51314,0.37328 0.7723,0.55469c0.40379,0.25032 0.81723,0.52123 1.24622,0.81723l0.00745,0.02996c3.05575,2.00069 6.26564,3.69998 9.15996,6.1049l0.95889,0.79907c0,0 1.92055,1.60046 0.32009,3.52101z" fill="#d3fcff" stroke="none" stroke-width="0.5"></path>
      <path d="M190.03104,218.87809c-0.09803,0 -0.19221,-0.00384 -0.2827,-0.01123c-1.82979,3.23522 -3.2205,7.09791 -2.10801,10.64386c0.43564,1.38856 1.70455,2.38293 2.30044,3.71063c0.44219,0.98526 0.36109,2.14855 0.77658,3.14536c0.81916,1.96526 2.51843,3.4339 3.75455,5.16747c2.93474,4.11575 7.76235,9.15131 12.57053,11.15766c0.96737,0.40366 2.07434,0.3739 3.05596,0.74155c3.59896,1.34793 4.12297,2.28861 7.93264,2.24468c2.51665,0.01095 5.00924,0.49877 7.50549,0.81878c3.19459,0.40954 5.91205,-0.46438 8.98902,-0.80005c7.13574,-0.77845 14.53261,0.80084 21.65918,-0.00657c1.35109,-0.15307 2.64681,-0.66672 4,-0.79999c7.45034,-0.73376 14.62888,-0.32596 21.94732,-2.31243c0.87777,-0.23825 1.87592,-0.12687 2.66725,-0.57525c1.5816,-0.89616 2.52882,-2.61425 3.85624,-3.85624c1.67062,-7.68498 -0.5148,-13.94759 -5.99224,-19.40045c-2.21502,-2.20508 -4.97322,-4.10778 -6.75888,-6.85347c-0.4651,-0.71515 -1.35982,-4.17397 -1.78304,-5.15759c-2.76974,-6.43721 -5.87849,-12.13529 -10.02924,-17.78189c-0.46902,-0.63805 -0.58681,-1.57276 -1.23283,-2.03074c-0.97149,-0.68872 -2.23781,-0.81528 -3.35671,-1.22292c-7.76969,-3.1123 -15.70194,-8.40884 -24.17867,-9.44014c-4.0768,-0.49599 -8.73923,-1.34478 -12.89242,-0.81333c-0.83644,0.10703 -1.5647,0.68414 -2.39996,0.79999c-4.35129,0.60353 -8.75215,-0.43487 -12.9891,1.41857c-0.88088,0.38534 -1.51623,1.22126 -2.39996,1.60001c-1.0106,0.43312 -2.18173,0.38529 -3.20003,0.79999c-2.45633,1.00036 -4.19945,3.62964 -6.44362,5.08148c-1.32944,2.08456 -4.06776,5.19089 -4.06776,7.83224c0,1.55683 1.3439,2.85887 1.56769,4.39954c0.02003,0.1379 0.0357,0.27614 0.04777,0.41466v0.00002c0.48151,0.17304 0.95942,0.54537 1.32063,1.26782c1.118,2.23609 -1.11809,3.35408 -1.11809,3.35408l-0.21803,-0.06001c0,0.67464 0,1.34927 0,2.02391v2c0,0 0,2.5 -2.5,2.5zM187.53104,211.37809c0,0 0,-0.15567 0.03884,-0.38931l-0.03885,-0.01069c0.03409,-2.95681 -1.59998,-5.1945 -1.59998,-8c0,-4.11689 3.36012,-8.209 5.53222,-11.36777c1.7872,-1.22172 3.30058,-2.8029 4.98278,-4.16559c1.75083,-1.41828 4.10261,-1.86534 6.17362,-2.75292c0.88373,-0.37874 1.51384,-1.2269 2.39996,-1.60001c4.7482,-1.99925 9.39593,-1.0705 14.21097,-1.78144c0.83422,-0.12317 1.56295,-0.69755 2.39996,-0.79999c4.64069,-0.56795 9.75004,0.18776 14.30765,0.78665c9.00276,1.18299 17.15249,6.45726 25.42131,9.75987c1.54776,0.65903 3.28461,0.98519 4.64329,1.97709c0.98036,0.71571 1.38427,1.99528 2.12018,2.96058c3.12133,4.09427 6.1563,8.45389 8.21773,13.22685c0.80524,1.86441 1.60252,3.73225 2.40002,5.59998c0.61035,1.42944 0.53467,3.16274 1.41691,4.44239c1.65619,2.40222 4.07121,3.96849 6.04116,5.94658c7.17042,7.20003 9.44585,15.55534 6.80769,25.39947c-0.57212,0.59827 -5.00049,5.3166 -5.74374,5.74374c-1.11872,0.64292 -2.49592,0.65734 -3.73277,1.02485c-7.58739,2.2544 -15.11318,1.70113 -22.85261,2.4875c-1.35277,0.13745 -2.64828,0.65256 -4,0.79999c-7.09605,0.77395 -14.45422,-0.80966 -21.5409,-0.00657c-3.47235,0.3935 -6.60791,1.24 -10.21093,0.80005c-2.29584,-0.28034 -4.58168,-0.79304 -6.89454,-0.78132c-4.22954,-0.03792 -5.83907,-1.11795 -9.66734,-2.55525c-1.0774,-0.4045 -2.28982,-0.39692 -3.34406,-0.85843c-5.65344,-2.47489 -11.13741,-7.96158 -14.62942,-12.84234c-0.7288,-1.01864 -3.65612,-4.68841 -4.24545,-6.03261c-0.44934,-1.02489 -0.37229,-2.23055 -0.82339,-3.25467c-0.66708,-1.51444 -2.03986,-2.69967 -2.49961,-4.28937c-0.14647,-0.50645 -0.10058,-8.91809 0.01656,-9.3918c0.26231,-1.06077 1.26432,-1.79353 1.74693,-2.7739c0.83894,-1.70423 1.5229,-3.50063 2.56568,-5.08834c0,0 0.13362,-0.20044 0.38013,-0.43539c0,-0.73453 0,-1.39943 0,-1.77788z" fill="#293e40" stroke="none" stroke-width="0.5"></path>
      <path d="M119.53064,53.17947v-45h240.93872v45z" fill="#ffffff" stroke="none" stroke-width="0"></path>
      <text transform="translate(132.54956,38.98335) scale(0.69199,0.69199)" font-size="40" xml:space="preserve" fill="#000000" stroke="#000000" stroke-width="3" font-family="&quot;JetBrains Mono&quot;, Sans Serif" font-weight="normal" text-anchor="start">
        <tspan x="0" dy="0">Этап пройден!</tspan>
      </text>
    </g>
  </g>
</svg>
