<?xml version="1.0" encoding="UTF-8"?>
<svg xmlns="http://www.w3.org/2000/svg" xmlns:xlink="http://www.w3.org/1999/xlink" version="1.1" width="126.21232" height="109.654" viewBox="0,0,126.21232,109.654">
  <g transform="translate(-176.89384,-125.173)">
    <g fill="#000000" stroke="none" stroke-miterlimit="10">
      <path d="M235.76841,234.827v-8.46323h8.46321v8.46323z" stroke-width="NaN"></path>
      <path d="M244.23164,234.827v-8.46323h8.46321v8.46323z" stroke-width="NaN"></path>
      <path d="M252.69486,234.827v-8.46323h8.46321v8.46323z" stroke-width="NaN"></path>
      <path d="M261.1581,234.827v-8.46323h8.46321v8.46323z" stroke-width="NaN"></path>
      <path d="M219.20994,234.827v-8.46323h8.46322v8.46323z" stroke-width="NaN"></path>
      <path d="M227.67316,234.827v-8.46323h8.46321v8.46323z" stroke-width="NaN"></path>
      <path d="M269.25335,234.827v-8.46323h8.46321v8.46323z" stroke-width="NaN"></path>
      <path d="M277.7166,226.36381v-8.46323h8.46321v8.46323z" stroke-width="NaN"></path>
      <path d="M210.74671,234.827v-8.46323h8.46322v8.46323z" stroke-width="NaN"></path>
      <path d="M194.55622,226.36381v-8.46323h8.46321v8.46323z" stroke-width="NaN"></path>
      <path d="M202.65146,234.827v-8.46323h8.46322v8.46323z" stroke-width="NaN"></path>
      <path d="M185.72502,217.9006v-8.46323h8.46321v8.46323z" stroke-width="NaN"></path>
      <path d="M286.1798,217.9006v-8.46323h8.46321v8.46323z" stroke-width="NaN"></path>
      <path d="M176.89384,209.0694v-8.46323h8.46321v8.46323z" stroke-width="NaN"></path>
      <path d="M294.64295,192.14294v-8.46323h8.46321v8.46323z" stroke-width="NaN"></path>
      <path d="M176.89384,184.04766v-8.46323h8.46321v8.46323z" stroke-width="NaN"></path>
      <path d="M176.89384,192.51092v-8.46323h8.46321v8.46323z" stroke-width="NaN"></path>
      <path d="M294.64295,209.0694v-8.46323h8.46321v8.46323z" stroke-width="NaN"></path>
      <path d="M176.89384,200.97414v-8.46323h8.46321v8.46323z" stroke-width="NaN"></path>
      <path d="M294.64295,200.60614v-8.46323h8.46321v8.46323z" stroke-width="NaN"></path>
      <path d="M294.64295,183.67973v-8.46323h8.46321v8.46323z" stroke-width="NaN"></path>
      <path d="M176.89384,175.58444v-8.46323h8.46321v8.46323z" stroke-width="NaN"></path>
      <path d="M294.64295,175.21644v-8.46323h8.46321v8.46323z" stroke-width="NaN"></path>
      <path d="M185.72502,167.12124v-8.46323h8.46321v8.46323z" stroke-width="NaN"></path>
      <path d="M185.72502,159.02596v-8.46323h8.46321v8.46323z" stroke-width="NaN"></path>
      <path d="M286.1798,166.75325v-8.46323h8.46321v8.46323z" stroke-width="NaN"></path>
      <path d="M286.1798,158.65796v-8.46323h8.46321v8.46323z" stroke-width="NaN"></path>
      <path d="M277.7166,150.19473v-8.46323h8.46321v8.46323z" stroke-width="NaN"></path>
      <path d="M194.55622,150.19473v-8.46323h8.46321v8.46323z" stroke-width="NaN"></path>
      <path d="M202.65146,141.73157v-8.46321h8.46322v8.46321z" stroke-width="NaN"></path>
      <path d="M210.74671,141.73157v-8.46321h8.46322v8.46321z" stroke-width="NaN"></path>
      <path d="M269.43734,141.73157v-8.46323h8.46321v8.46323z" stroke-width="NaN"></path>
      <path d="M260.97405,141.73157v-8.46323h8.46322v8.46323z" stroke-width="NaN"></path>
      <path d="M227.39719,133.63624v-8.46323h8.46321v8.46323z" stroke-width="NaN"></path>
      <path d="M235.86038,133.63624v-8.46323h8.46322v8.46323z" stroke-width="NaN"></path>
      <path d="M244.13962,133.63624v-8.46323h8.46321v8.46323z" stroke-width="NaN"></path>
      <path d="M252.69486,133.63624v-8.46323h8.46321v8.46323z" stroke-width="NaN"></path>
      <path d="M219.20994,133.63624v-8.46323h8.46322v8.46323z" stroke-width="NaN"></path>
    </g>
  </g>
</svg>
