<?xml version="1.0" encoding="UTF-8"?>
<svg xmlns="http://www.w3.org/2000/svg" xmlns:xlink="http://www.w3.org/1999/xlink" version="1.1" width="187.43028" height="187.43028" viewBox="0,0,187.43028,187.43028">
  <g transform="translate(-146.50157,-86.28486)">
    <g stroke="none" stroke-miterlimit="10">
      <path d="M146.50157,180c0,-51.75746 41.9577,-93.71514 93.71514,-93.71514c51.75746,0 93.71514,41.95768 93.71514,93.71514c0,51.75746 -41.95768,93.71514 -93.71514,93.71514c-51.75746,0 -93.71514,-41.9577 -93.71514,-93.71514z" fill="#ffcc4d" stroke-width="1"></path>
      <path d="M217.41802,156.64599c0,8.61766 -4.45481,15.60361 -9.9501,15.60361c-5.49532,0 -9.9501,-6.98598 -9.9501,-15.60361c0,-8.61766 4.45481,-15.60361 9.9501,-15.60361c5.49532,0 9.9501,6.98598 9.9501,15.60361z" fill="#65471b" stroke-width="0"></path>
      <path d="M305.39515,226.33622c-0.94084,3.61425 -4.18172,6.15356 -7.9161,6.20243c-0.75733,0 -1.51468,-0.11054 -2.272,-0.32615l-15.90959,-4.7154c1.86392,2.58731 2.17716,5.98222 0.81815,8.86691c-1.44833,2.99619 -4.35607,4.72642 -7.37988,4.72642c-1.23827,0 -2.49311,-0.29295 -3.67612,-0.90104l-12.99083,-6.73865c-0.29853,2.7861 -1.76341,5.92602 -4.36157,7.26934c-1.18297,0.60809 -2.43784,0.90107 -3.67612,0.90107c-3.02381,0 -5.93707,-2.26096 -7.37988,-5.25714l-0.86789,-1.80214l-0.87342,1.80214c-1.44281,2.99619 -4.35607,5.25714 -7.37988,5.25714c-1.23275,0 -2.49314,-0.29298 -3.67612,-0.90107c-2.59816,-1.34332 -4.05754,-4.47769 -4.35605,-7.26934l-12.99083,6.73865c-1.18297,0.60809 -2.44337,0.90104 -3.67612,0.90104c-3.02381,0 -5.93707,-1.73026 -7.37988,-4.72642c-1.36349,-2.8846 -1.04783,-6.28282 0.82367,-8.86691l-15.90959,4.7154c-0.75733,0.21559 -1.52573,0.32615 -2.27203,0.32615c-3.73438,-0.04884 -6.97525,-2.58816 -7.9161,-6.20243c-1.25487,-4.53296 1.28249,-9.26491 5.65514,-10.56953l27.14799,-8.04876c-0.02765,-0.28193 65.62842,-0.28193 65.60633,0l27.14247,8.04876c4.37817,1.30462 6.91551,6.03656 5.66619,10.56953z" fill="#292f33" stroke-width="1"></path>
      <path d="M283.56187,156.64599c0,8.61763 -4.45481,15.60364 -9.9501,15.60364c-5.49532,0 -9.95013,-6.98598 -9.95013,-15.60364c0,-8.61763 4.45481,-15.60361 9.95013,-15.60361c5.49529,0 9.9501,6.98598 9.9501,15.60361z" fill="#65471b" stroke-width="0"></path>
      <path d="M250.98877,215.23688c-2.56156,1.69209 -6.08105,2.24918 -10.77203,2.24918c-5.53439,0 -9.4288,-0.57794 -12.05801,-2.85832c-8.23132,-3.6705 -19.18038,-5.83636 -19.18038,-10.67832c0,-5.17515 6.52882,-13.53664 14.57793,-13.53664l0.18221,0.01041c1.25476,-19.39381 8.8613,-47.90926 16.47825,-47.90926c7.75232,0 15.49944,28.63517 16.54073,47.90405l0.11973,-0.0052c8.04908,0 14.57793,8.36148 14.57793,13.53664c0,5.10226 -12.14131,7.23169 -20.46633,11.28746z" fill="#ffac33" stroke-width="1"></path>
      <path d="M256.87717,204.99072c-1.135,0.20305 0.28635,-2.08256 0.28635,-7.75232c0,-2.66047 -0.28635,-4.74302 -0.28635,-6.82558c2.08256,0 4.38378,0 4.38378,6.08628c0,3.45184 -3.24878,8.28859 -4.38378,8.49165zM223.33238,204.99072c1.135,0.20305 -0.28635,-2.08256 -0.28635,-7.75232c0,-2.66047 0.28635,-4.74302 0.28635,-6.82558c-2.08256,0 -4.38378,0 -4.38378,6.08628c0.0052,3.45184 3.25399,8.28859 4.38378,8.49165z" fill="#c1694f" stroke-width="1"></path>
      <path d="M227.48706,214.33619l-0.01041,0.01041c-4.64411,-1.99406 -9.94423,-3.582 -13.69803,-5.43028c1.44737,-1.47863 4.47228,-1.99926 7.71069,-1.05688c4.01413,1.16623 6.69541,4.07141 5.99778,6.47675zM266.66521,208.92676c-3.7538,1.84828 -9.05394,3.44143 -13.69282,5.43548l-0.02082,-0.02605c-0.70287,-2.40537 1.97844,-5.30532 5.99257,-6.47675c3.24358,-0.94756 6.27372,-0.42172 7.7211,1.06731z" fill="#662113" stroke-width="1"></path>
      <path d="M219.30935,136.10223c0,0 -0.33168,-17.76699 -7.24169,-23.36134c-7.27486,-5.88733 -13.16216,3.28917 -13.16216,3.28917c0,0 -1.39306,-11.84649 -9.28703,-10.85698c-7.89397,0.98951 -7.56785,8.55736 -7.56785,8.55736c0,0 -4.53296,-10.19915 -13.16216,-6.5783c-8.39149,3.52135 -4.20128,11.18866 -4.20128,11.18866c0,0 -6.32954,-2.26648 -9.20964,2.29965c-3.95252,6.25218 5.51695,11.18866 5.51695,11.18866c0,0 19.74049,-4.60483 29.61349,-4.27868c9.87299,0.32615 28.70137,8.55183 28.70137,8.55183zM259.80747,136.10223c0,0 0.33168,-17.76699 7.24169,-23.36134c7.27486,-5.88733 13.16216,3.28917 13.16216,3.28917c0,0 1.39306,-11.84649 9.28703,-10.85698c7.89949,0.98951 7.56785,8.55736 7.56785,8.55736c0,0 4.53296,-10.19915 13.16216,-6.5783c8.39149,3.52135 4.20128,11.18866 4.20128,11.18866c0,0 6.32954,-2.26096 9.21516,2.30518c3.947,6.25218 -5.51692,11.18869 -5.51692,11.18869c0,0 -19.74049,-4.60483 -29.61352,-4.27868c-9.87855,0.32063 -28.7069,8.54628 -28.7069,8.54628z" fill="#292f33" stroke-width="1"></path>
    </g>
  </g>
</svg>
