<?xml version="1.0" encoding="UTF-8"?>
<svg xmlns="http://www.w3.org/2000/svg" xmlns:xlink="http://www.w3.org/1999/xlink" version="1.1" width="70.12421" height="61.75589" viewBox="0,0,70.12421,61.75589">
  <g transform="translate(-205.00432,-148.80836)">
    <g stroke="#000000" stroke-miterlimit="10">
      <path d="M215.33699,191.69038c-2.30067,-3.03237 -6.59272,-9.01701 -8.33267,-13.61358c-0.47681,-1.25963 -0.48675,-5.21254 -0.01969,-6.50401c1.70413,-4.71217 5.96217,-12.22438 8.7236,-16.88898c1.47764,-2.49601 4.14521,-4.09391 6.41006,-3.85117c4.21804,0.45208 10.67806,1.45902 13.10059,3.51953c3.00068,2.55227 5.50181,13.19031 6.34361,16.90202c0.28611,1.26153 2.46892,-11.74668 6.72788,-15.21816c2.43002,-1.98071 9.63209,-3.64651 13.83939,-4.48497c1.87353,-0.37337 4.07032,1.35817 5.29494,4.13362c1.93378,4.38269 4.6343,10.84647 5.70118,15.03545c0.29033,1.13994 0.3115,4.63055 0.05588,5.71632c-1.13569,4.82391 -4.39215,11.67048 -6.19656,15.2566c-0.74388,1.47839 -2.27303,3.05598 -3.35436,3.74049c-2.81326,1.78087 -15.49657,9.80976 -20.74272,13.13071c-1.4096,0.89232 -3.17782,0.82742 -4.61084,-0.16038c-5.10399,-3.51829 -17.02627,-11.73656 -19.58807,-13.50246c-0.95016,-0.65497 -2.43782,-2.00582 -3.35221,-3.21104z" fill="#a2f9ff" stroke-width="4"></path>
      <path d="M246.43111,185.53506c0,3.30854 -2.8793,11.98693 -6.43111,11.98693c-3.55181,0 -6.4311,-8.67841 -6.4311,-11.98693c0,-0.90925 -8.54638,-8.69 -8.15727,-9.46196c1.02679,-2.03701 12.01267,3.47134 14.58837,3.47134c2.07426,0 13.6055,-4.62031 14.78149,-3.20025c0.83769,1.01154 -8.35039,7.81453 -8.35039,9.19087z" fill="#6ba3a7" stroke-width="0"></path>
    </g>
  </g>
</svg>
