<?xml version="1.0" encoding="UTF-8"?>
<svg xmlns="http://www.w3.org/2000/svg" xmlns:xlink="http://www.w3.org/1999/xlink" version="1.1" width="121" height="362" viewBox="0,0,121,362">
  <g transform="translate(-117.60002,0.99999)">
    <g stroke-miterlimit="10">
      <path d="M117.60003,361.00002v-362h121v362z" fill="#66c2ff" stroke="none" stroke-width="0"></path>
      <path d="M137.72502,248.78706v-137.57407h80.75v137.57407z" fill="none" stroke="#ffffff" stroke-width="1"></path>
      <g fill="#ffffff" stroke="none" stroke-width="0">
        <path d="M180.33944,164.69742c0,3.62578 0,14.65914 0,14.65914h-4.42892c0,0 0,-11.03337 0,-14.65914c0,-1.04405 0.64036,-2.01706 1.35501,-2.01706c0.5959,0 1.24343,0 1.6144,0c0.57199,0 1.45952,0.97301 1.45952,2.01705z"></path>
        <path d="M184.9023,180.37375c-0.79492,2.01167 -5.07065,12.83215 -6.49932,16.4477c-0.29211,0.73923 -0.6633,0.64935 -0.99185,-0.22616c-1.4552,-3.8779 -5.4693,-14.57512 -6.16266,-16.4228c-0.2001,-0.53323 0.30917,-0.98818 0.99968,-0.98818c1.69555,0 8.96343,0 11.89304,0c0.76248,0 1.00984,0.55999 0.76111,1.18944z"></path>
      </g>
    </g>
  </g>
</svg>
