<?xml version="1.0" encoding="UTF-8"?>
<svg xmlns="http://www.w3.org/2000/svg" xmlns:xlink="http://www.w3.org/1999/xlink" version="1.1" width="373.95055" height="379.6595" viewBox="0,0,373.95055,379.6595">
  <g transform="translate(-41.99696,-8.17947)">
    <g stroke-miterlimit="10">
      <path d="M362.69639,156.10932c0,0 1.99348,-0.00011 2.42171,-1.77727c0.66115,0.18587 1.26216,0.07677 1.26216,0.07677c3.62718,-0.6919 7.94723,-0.44749 11.59339,0.25686c0.90141,0.17413 1.80127,0.47208 2.70079,0.71898c0.46712,0.24131 0.88477,0.30106 0.88477,0.30106c4.57071,0.5265 8.42378,4.82058 11.21248,8.29126c1.2474,1.55244 2.62047,3.29864 3.03305,5.32733c-0.03576,0.6361 -0.00043,1.2652 0.08866,1.887c-0.07721,1.14603 -0.30958,2.39192 -0.43782,3.27465l-0.35001,1.34757c0,0 -0.60352,2.42775 1.82184,3.03409c0.77402,0.1935 1.36374,0.07914 1.80665,-0.16753c0.53521,1.13119 1.03686,2.25602 1.38741,3.37648c1.2432,3.9736 1.74292,8.09019 1.77876,12.25502l-0.73291,2.60978c0,0 -0.65615,2.41623 1.75576,3.07403c0.06029,0.01645 0.11952,0.03109 0.17763,0.04378c-0.62359,2.38931 -1.60977,4.6572 -1.93238,7.14857c-0.51561,3.98182 -1.00608,7.69892 -2.31964,11.6238c-0.70021,2.80068 -1.87002,5.64044 -2.64147,8.48948l-0.1056,-0.05125c-0.00478,-0.00159 -0.00956,-0.00318 -0.01435,-0.00477c-0.07229,3.07145 -0.68995,5.66795 -1.23545,8.54781c-0.1303,0.92028 -0.27116,1.83986 -0.42469,2.75428c-0.19173,2.46605 0.15443,5.21369 0.15443,7.6112l-1.67324,1.19529l0.45661,0.61229c-0.69684,1.2389 0.18349,2.56203 0.18349,2.56203c0.42105,0.63157 0.84207,1.26316 1.26313,1.89473c-0.16538,0.6968 -0.009,1.32528 -0.009,1.32528l0.00212,0.00844l-0.07689,0.18531c0,0 -0.00036,0.88183 0.52315,1.59797l0.37578,1.50151c1.76496,4.28711 -2.67381,7.49428 -5.14044,10.51994c-4.93127,6.04889 -13.66893,8.36558 -21.3854,6.38863c-1.22192,-0.40834 -2.54132,-0.95955 -3.86673,-1.44629c-0.85751,0.01884 -1.72565,0.05135 -2.6378,-0.10021c-3.07355,-0.51068 -5.15126,-2.30274 -8.22897,-2.47256c0.28696,0.21678 0.57834,0.42103 0.87263,0.60973c-0.50936,-0.20504 -1.01933,-0.42119 -1.52625,-0.62628c-0.15237,-0.01338 -0.50729,-0.06988 -0.78718,-0.3073c-0.50135,-0.18682 -1.00179,-0.35231 -1.4978,-0.47469c-3.44469,-0.84987 -8.25441,-2.23689 -10.88338,-4.95516c-0.29679,-0.30687 -0.51226,-0.6808 -0.71867,-1.06076c-2.16539,-0.48608 -3.44905,-2.06067 -4.6178,-3.95824c-3.43791,-5.5818 -2.95027,-12.5019 -2.75223,-19.0976c0.18479,-0.73729 0.3955,-1.47681 0.64176,-2.21761c0.65926,-5.12798 1.77959,-10.93296 0.36079,-16.04433c-0.13118,-0.47259 -0.37745,-0.90759 -0.61413,-1.34311c-0.07021,-0.9478 -0.17673,-1.88197 -0.32827,-2.78759c-0.05797,-0.34648 -0.17183,-0.68083 -0.30316,-1.0093c0.07468,-0.9238 0.19453,-1.85764 0.13012,-2.77356c-0.49811,-7.083 0.19175,-13.33315 1.18013,-20.24925c0.399,-2.79205 0.27929,-5.17688 0.86975,-7.85353c0.09804,-0.17077 0.19982,-0.3418 0.30455,-0.51196c0.76094,-1.23639 -0.07138,-1.9762 1.18195,-3.22953c0.05623,-0.05623 0.11654,-0.10677 0.17992,-0.15219c-0.3795,-0.40446 -0.75028,-0.8178 -1.11351,-1.23853l0.35441,-0.70824c2.35767,-4.71543 5.72946,-9.92529 2.20065,-14.9866c-1.56498,-2.24464 -4.51658,-3.67931 -5.83319,-6.13223c-0.75815,-1.41246 -0.83826,-3.11369 -1.16106,-4.59917c3.88237,2.19637 9.08961,5.03925 12.85579,3.24293c2.42555,-1.15689 3.35566,-4.24734 3.6661,-6.58753c0.07176,-0.54091 -0.68077,-1.30905 -0.23264,-1.62038c0.43077,-0.29927 0.00509,1.14577 0.3602,1.53181c0.84164,0.91497 1.97963,1.51361 3.04009,2.16242c3.78139,2.31352 8.13968,3.1353 12.49937,3.15648z" fill="#53cbf0" stroke="none" stroke-width="0.5"></path>
      <path d="M368.27022,274.13043c-4.23722,-0.44281 -7.70226,-2.58963 -11.87065,-3.15346c-4.30851,-0.58278 -8.6484,-0.60212 -12.69791,-2.62195c-1.7208,-0.8583 -3.08398,-2.33226 -4.80002,-3.20003c-0.8958,-0.45299 -2.03056,-0.43786 -2.81912,-1.05901c-0.83968,-0.66141 -1.09165,-1.866 -1.85025,-2.61902c-0.68238,-0.67736 -1.94923,-0.75072 -2.40002,-1.59998c-0.07759,-0.14616 -0.1496,-0.29452 -0.21671,-0.44482l-0.09567,0.06378l-1.58101,-2.37158c-0.2768,-0.40238 -0.43882,-0.88985 -0.43882,-1.41517c0,-0.40119 0.0945,-0.78031 0.26246,-1.11631c-0.55661,-0.3404 -1.06244,-0.9591 -1.06244,-2.08365c0,-2.5 2.5,-2.5 2.5,-2.5c1.20013,0.01076 2.41228,-0.13745 3.6004,0.03228c0.70679,0.10097 1.28562,0.76771 1.99958,0.76771c0.71396,0 1.29271,-0.66728 1.99958,-0.76771c0.94943,-0.1349 1.95275,0.33453 2.87593,0.07499c0.80009,-0.22493 1.28545,-1.07607 2.02612,-1.4531c1.42351,-0.72462 3.1075,-1.04002 4.31339,-2.08753c2.49691,-2.16897 4.73591,-5.12085 6.85163,-7.65162c2.07072,-2.47695 1.5003,-3.63385 5.2089,-4.80779c2.35134,-0.74431 8.25024,-0.42851 10.72488,-0.07499c0.89865,0.12838 2.19089,1.49344 2.63184,0.69995c0.23255,-0.41847 0.13069,-0.94852 0.19604,-1.42278c2.0666,-6.15219 5.58286,-11.93265 7.15548,-18.25112c3.03194,-12.18176 3.57922,-24.9975 2.33494,-37.45288c-0.35057,-3.50929 -2.6734,-7.02043 -3.76452,-10.40707c-2.87799,-4.23702 -6.30675,-7.50351 -11.34476,-9.12665l-0.00001,-0.00001l0,0l-2.34533,-0.78179c-1.02156,-0.31418 -1.76411,-1.26534 -1.76411,-2.38994c0,-1.12461 0.74257,-2.07577 1.76414,-2.38994l2.34533,-0.78176l0.02275,0.06824c0.12033,-0.05856 0.2427,-0.11346 0.36736,-0.16424c2.61191,-1.0641 7.44481,0.06396 9.99101,0.896c3.16089,1.03291 6.96245,1.79442 9.90786,3.32594c4.16745,2.16695 5.22671,6.06316 8.03491,9.4608c0.81035,0.98044 2.01616,1.64595 2.64217,2.75322c1.65605,2.92918 1.44598,6.50802 1.89219,9.63129c0.62319,4.3621 1.60832,8.7082 1.63232,13.20047c-0.01954,3.01979 0.35546,6.22597 0.76771,9.19956c0.13373,0.96461 0.83227,1.82661 0.83227,2.80044c0,0.97383 -0.71397,1.83382 -0.83227,2.80044c-0.5426,4.43358 -0.43746,8.72073 -1.6674,13.09855c-1.44918,5.15818 -4.06351,10.24721 -4.71908,15.60649c-0.43339,3.543 -1.34778,7.67573 -0.81353,11.29408c0.29495,1.99763 0.81416,3.98121 0.83227,6.00042c0,6.46666 -0.63349,12.86904 -5.53222,17.76777c-1.08744,1.08744 -3.73218,2.327 -4.98279,3.36561c-0.8013,0.66546 -1.39739,1.57814 -2.19081,2.24264c0.68921,-0.26709 1.36217,-0.56339 2.01577,-0.89082l2.27489,-1.5166c0.40239,-0.27681 0.88987,-0.43884 1.4152,-0.43884c1.38071,0 2.5,1.11929 2.5,2.5c0,0.05799 -0.00197,0.11553 -0.00586,0.17253c0.2793,0.12297 0.55987,0.23958 0.84389,0.33885c5.37069,9.60159 4.48947,19.04787 1.13623,29.07157c-1.30772,3.90912 -2.98054,8.35486 -5.64089,11.60205c-1.30457,1.59233 -3.15511,2.64495 -4.74838,3.94837c-2.84663,2.32875 -6.89908,7.33553 -10.62893,8.16692c-1.23281,0.27479 -2.50401,-0.33352 -3.75602,-0.50028l0.23009,-1.11488c0.08889,-0.54181 0.16881,-1.08799 0.32916,-1.59489l0.15127,-0.73297c5.7007,-7.32781 9.82397,-14.76065 13.3032,-23.06592c0.07912,-0.28553 0.17086,-0.5643 0.28626,-0.83074l-0.00002,-0.00003v-1.46058h0.17833c-0.04868,-0.13348 -0.09737,-0.26697 -0.14605,-0.40045l0.28124,-0.32836l-0.18524,-0.06174l0.78176,-2.3453c0.20944,-0.681 0.70195,-1.23802 1.34021,-1.53372c0.15201,-0.7788 0.21907,-1.57162 0.15603,-2.3532c-0.16874,-2.09223 -0.48416,-4.83402 -2.07404,-6.40945c-2.17321,-2.15346 -2.91913,-1.23749 -5.48549,-0.89194c-3.90167,0.52535 -8.79786,0.42419 -12.74674,0.42419c-3.91606,0 -7.66969,-1.25506 -11.42452,-1.61011c-0.88908,-0.08407 -4.10307,0.94523 -4.68871,1.1139c0,0 -2.40381,0.68679 -3.0906,-1.71702c-0.68679,-2.40381 1.71702,-3.0906 1.71702,-3.0906c0.47185,-0.13385 0.97422,-0.28572 1.49396,-0.43727l-0.23837,-0.8282c-0.68313,-0.5158 -1.3607,-1.1005 -2.03655,-1.76297l-0.00002,0.00001c0,0 -1.76777,-1.76777 0,-3.53553c1.76777,-1.76777 3.53553,0 3.53553,0c0.3116,0.32 0.62437,0.6148 0.93879,0.88638c0.03002,0.00367 0.05988,0.00787 0.08956,0.0126l1.98782,0.28397c0.35995,-0.20077 0.77465,-0.31518 1.21607,-0.31518c0.36938,0 0.72005,0.08011 1.03559,0.2239l2.50448,1.07334c3.03693,0.36202 4.69844,0.71113 6.29525,1.64113c0.06513,0.00767 0.13033,0.01525 0.19561,0.02272l0.15384,-0.35897l1.15127,0.49339c3.01022,0.27535 6.1429,0.31987 9.20051,0.01231c0.03232,-0.01079 0.06463,-0.02164 0.09695,-0.03252c-1.23779,-0.02978 -2.38308,-0.17013 -3.25797,-0.41231c-1.44323,-0.3995 -3.05762,-1.3926 -4.60533,-2.37153z" fill="#3b8fa9" stroke="none" stroke-width="0.5"></path>
      <path d="M380.43192,320.2385c0,0 -2.23685,0.00387 -2.48332,2.11214c-0.59906,0.19768 -1.2597,0.26352 -1.82362,0.54784c-1.68886,0.8515 -2.98255,2.42423 -4.72343,3.16359c-2.58364,1.09729 -7.36941,2.22789 -10.0791,2.19086c-2.625,-0.03587 -5.14218,-1.14112 -7.73163,-1.57315c-4.89352,-0.81643 -11.1619,-0.92826 -15.26567,-3.76073c-1.11498,-0.3675 -2.30414,-0.56746 -3.34742,-1.10581c-0.72744,-0.37538 0.34334,-1.60436 0.58008,-2.38797c0.9943,-3.29104 2.5243,-5.34893 3.90513,-8.55097c2.08978,-4.84604 3.16631,-10.38204 5.53476,-15.0895c0.44635,-0.88713 1.25568,-1.57921 1.64291,-2.49369c2.33316,-5.51002 2.52068,-11.71256 3.67447,-17.4785c3.70707,1.22307 7.26247,2.94534 11.19773,4.02342c3.22715,0.88409 7.97021,0.03344 11.28719,0.03344c2.7608,0 7.39955,0.91 9.97835,-0.09515c1.01772,-0.39668 1.58935,-1.55258 2.57084,-2.03196c0.76906,-0.37562 1.54875,-0.71892 2.33276,-1.04586c0.36244,0.27673 0.86313,0.4683 1.55363,0.4683c0.6039,0 1.06264,-0.14514 1.41001,-0.36642c0.38873,0.70468 0.49016,1.65531 1.14769,2.96872c2.41426,4.82244 4.15155,9.58337 2.2552,15.02297c-2.19894,8.78347 -5.43628,19.7375 -13.06281,25.6619l-0.55377,-0.2135z" fill="#53cbf0" stroke="none" stroke-width="0.5"></path>
      <path d="M123.32857,118.17712c0,0 1.22242,1.21907 2.64831,0.61994c0.40699,0.11217 0.72355,0.11217 0.72355,0.11217l1.21094,-0.12825c4.37395,1.44017 8.73489,2.08845 13.02246,3.92971c5.96216,2.55038 13.76677,5.18188 18.43744,9.88505c8.95813,9.02046 10.64632,20.11474 8.90037,32.3386c-0.35863,2.96597 -1.38712,5.33676 -1.974,8.24162c-1.08521,5.37139 -1.73032,11.16634 -4.18097,16.16885c-0.69492,1.41853 -2.07035,2.3977 -2.99999,3.67478c-5.38298,7.39477 -13.03742,11.34482 -22.12694,12.64336c-3.80344,1.11434 -7.43791,0.99955 -11.35224,0.7501c-11.49614,-0.73261 -31.16733,-1.19645 -34.97074,-15.00704c0,0 -0.59354,-2.07264 -2.59991,-1.82173c-0.26016,-0.452 -0.51583,-0.91565 -0.76114,-1.39353c-1.9439,-3.78675 -1.16288,-8.87083 -1.78446,-12.91352c-1.03682,-6.74337 -2.0688,-12.96292 -1.57736,-19.84504c0.12956,-1.81426 -0.22308,-3.66697 0.29997,-5.45905c0.72189,-2.47336 2.4527,-5.11241 3.85595,-7.23517c1.82489,-5.36887 5.55378,-9.80596 7.33685,-15.12383c0.86174,-2.57009 1.30651,-3.46505 1.33246,-6.41625c0.00583,-0.66335 -0.06925,-1.33507 -0.22591,-1.98298c0.6715,0.33694 1.55682,0.58215 2.13732,0.7752c2.60261,0.86551 6.90386,2.3163 9.62548,1.18303c3.54816,-1.47744 4.53663,-3.92501 3.53786,-7.58908c-0.17372,-0.63728 -0.55484,-1.37616 -1.05688,-2.04936c4.84272,0.68919 8.87,2.96039 12.54157,6.64242z" fill="#0024a3" stroke="none" stroke-width="0.5"></path>
      <path d="M169.18675,148.61908c-2.08013,1.38675 -3.46688,-0.69338 -3.46688,-0.69338l-1.24107,-1.95827c-0.66667,-1.66667 -1.33333,-3.33333 -2,-5c0,0 -0.92848,-2.32119 1.39272,-3.24967c2.32119,-0.92848 3.24967,1.39272 3.24967,1.39272c0.66667,1.66667 1.33333,3.33333 2,5l0.75893,1.04173c0,0 1.38675,2.08013 -0.69338,3.46688z" fill="#ffffff" stroke="none" stroke-width="0.5"></path>
      <path d="M140.41804,206.77502l-2.62774,1.21538c-2.74168,0.50294 -5.23949,0.01257 -7.72212,-0.60239c-6.28364,0.23753 -12.67344,-0.23189 -18.86127,-0.96631c-5.62914,-0.6681 -10.71139,-1.63762 -15.49366,-4.80263c0,0 -1.30184,-0.8679 -1.15913,-2.2604l-1.68,-0.96624c-1.71667,-1.43301 -3.32727,-3.01792 -4.71861,-4.76854c-3.18246,-7.29014 -4.15776,-14.33181 -5.13619,-22.17486c-0.87935,-7.04886 -2.00435,-13.80436 -0.35242,-20.88447c1.04752,-4.48962 3.43283,-10.20677 5.96297,-14.0272c0.50189,-0.75784 1.44956,-1.14972 1.94353,-1.91275c0.85959,-1.32781 1.08692,-2.97842 1.79669,-4.39199c0.44438,-1.57747 1.25457,-3.06848 1.46221,-4.69415c0.14261,-1.11656 -0.25508,-2.27471 -0.02599,-3.37677c0.3486,-1.67696 0.24581,-3.98831 1.73345,-4.83723c1.39673,-0.79704 3.15262,0.67002 4.6783,1.17838c2.83121,0.94337 4.86591,2.97334 7.88038,0.9659c4.63908,-3.08933 -2.21179,-6.89542 2.62194,-10.53401c1.25353,-0.9436 2.95145,1.08159 4.4719,1.46882c1.8371,0.46788 3.87351,0.41939 5.52436,1.35137c1.79923,1.01574 3.2495,2.56 4.97013,3.70386c0,0 1.11674,0.7445 1.16823,1.96073c0.13703,0.09737 0.27492,0.21375 0.41279,0.35162c1.76778,1.76776 0.00002,3.53553 0.00002,3.53553c-10.50297,10.49131 -18.6639,25.23082 -14.18149,40.28682c0.82034,2.75546 3.17138,5.4333 4.59174,7.91817c0.60677,1.09946 2.08245,4.23585 3.37415,5.26746c2.92073,2.33262 6.61641,2.92784 9.99323,3.97351c1.59977,0.49538 2.99514,1.58536 4.62897,1.95316c8.15899,1.83671 16.42503,3.18041 24.65557,1.5335c0.5131,-1.60038 2.37002,-1.60038 2.37002,-1.60038l0.00003,0.00001h3.47282c0.50271,-0.11818 1.11217,-0.06444 1.81338,0.35628c2.14374,1.28623 0.85752,3.42997 0.85752,3.42997l-0.50607,0.82191c0.07281,0.51757 -0.03909,1.12709 -0.53767,1.79186c-0.2292,0.30561 -0.47008,0.52949 -0.71371,0.68949c-2.51151,5.46585 -5.6679,10.184 -11.19158,13.20657c-1.52554,0.83478 -3.26134,1.22702 -4.81505,2.00813c-3.47018,1.96785 -6.13814,2.35287 -9.52886,2.76187c-0.41942,0.71334 -1.13276,1.07001 -1.13276,1.07001z" fill="#001769" stroke="none" stroke-width="0.5"></path>
      <path d="M174.06695,252.35255c-1.50728,-2.34707 -3.29709,-4.65608 -5.16845,-6.85528c-0.60555,-1.25165 -1.18867,-2.32893 -1.62768,-2.90273c-1.28646,-1.68143 -3.39241,-2.59118 -4.89311,-4.08438c-0.01205,-0.01206 -0.02428,-0.02424 -0.03632,-0.03629c0,0 -0.39005,-0.38875 -0.98138,-0.61966c-0.03214,-0.97385 -0.03824,-1.95228 0.08358,-2.91673c0.31055,-2.45874 1.31527,-4.84313 1.59609,-7.30544c0.71704,-6.2872 -0.01262,-12.68246 1.57706,-18.87574c0,0 0.03829,-0.15288 0.05724,-0.39147c0.99763,-0.90862 1.76447,-1.78048 3.22234,-2.45078c1.38893,0.21812 2.89598,0.198 3.99446,1.02257c0.82382,0.61839 1.38932,3.29567 1.44157,3.91988c0.34723,4.14796 0.37602,7.97708 0.83494,12.10741c0.09312,0.83811 0.69355,1.57648 0.80892,2.41182c0.29848,2.16111 -0.54791,4.37394 -0.81232,6.53948c-0.51539,4.22118 -0.04647,8.87466 -0.04647,13.13082c0,2.4305 -0.17314,4.8904 -0.05047,7.30652z" fill="#0024a3" stroke="none" stroke-width="0.25"></path>
      <path d="M170.46775,208.50673c-0.83801,0.838 -1.67602,0.88149 -2.32571,0.69543c-0.02407,0.03519 -0.04882,0.07005 -0.07428,0.10457c-0.74897,1.01556 -2.29302,1.07476 -3.50042,1.44152c-0.87957,0.26718 -1.78726,0.40188 -2.70727,0.46626c-0.30417,0.81986 -0.75278,1.52898 -1.3599,2.0592c-3.76636,3.28932 -6.63267,1.6576 -10.05593,0.00613l-2.68349,0.67088c-0.21047,0.05753 -0.43202,0.08824 -0.66073,0.08824c-0.77555,0 -1.46861,-0.35314 -1.92716,-0.9074c-1.02606,-0.31143 -1.77285,-1.26481 -1.77285,-2.3926c0,-0.77133 0.34931,-1.46107 0.89838,-1.91966c-1.38496,0.35113 -2.75808,0.6275 -4.08828,0.80037c0,0 -2.48069,0.31009 -2.79079,-2.1706c-0.31009,-2.48069 2.1706,-2.79079 2.1706,-2.79079c4.71995,-0.56199 8.92391,-2.89484 13.47261,-4.27487c1.37502,-0.41717 2.71211,-1.6309 4.11024,-1.29934c2.60782,0.61843 4.43779,3.73684 5.00198,6.99032c0.31255,-0.07974 0.63394,-0.1513 0.94163,-0.20086c-0.55942,-0.45848 -0.91638,-1.15483 -0.91638,-1.93456c0,-1.38071 1.11929,-2.5 2.5,-2.5c0.41989,0 0.8156,0.10352 1.16301,0.28642l2.35504,1.1775l-0.06494,0.12989l0.58725,0.33557l1.72742,1.60286c0,0 1.76776,1.76778 -0.00002,3.53553z" fill="#0024a3" stroke="none" stroke-width="0.5"></path>
      <path d="M120.91426,259.20856c0.44818,-0.19069 0.92371,-0.53069 1.18933,-1.13826c0.41615,-0.1657 0.82557,-0.33686 1.21225,-0.47216c0.75182,-0.26306 3.90684,-2.72495 4.80394,-3.19832c1.86318,-0.98315 2.23237,-0.41934 4.50567,-0.54364c0.67962,-0.03716 1.42556,-0.62286 2.02194,-0.29485c0.64516,0.35484 0.5028,1.43462 1.01372,1.96481c0.48492,0.50321 2.62871,0.90419 2.47093,2.23466c-0.21067,1.77642 -2.43936,3.01275 -2.39869,4.80116c0.03252,1.4302 1.30143,2.55598 2.02387,3.79072c2.1379,3.65392 4.54319,5.63773 3.16172,10.1115c-0.92041,1.156 -2.56266,2.00682 -2.75988,3.47127c-0.1814,1.34697 1.3084,2.3987 1.80355,3.66442c0.81546,2.0845 0.66476,3.54384 0.61971,5.79801c-0.00691,0.34578 0.16913,0.8173 -0.10003,1.03447c-0.37259,0.30063 -0.95953,0.07574 -1.42282,0.19644c-2.88441,0.75153 -4.5534,1.12521 -7.51518,1.49464c-3.43528,0.42849 -4.32375,1.72498 -7.20697,-0.41117l-2.96267,-0.41647c0.04869,-0.20916 0.07553,-0.43921 0.07553,-0.6999c0,-2.5 -2.49877,-2.48512 -2.49877,-2.48512l-2.29431,0.10158c-4.59169,1.54242 -8.73883,4.51569 -13.50483,5.58204c-6.16639,1.37968 -12.12057,0.24009 -18.20135,2.34865c-4.91231,-0.03605 -10.32187,0.58007 -15.19983,-0.00409c-3.30667,-0.39599 -6.86312,-2.57116 -9.84428,-3.84707c-7.12843,-3.0509 -14.07358,-10.31721 -12.88748,-18.90463c0.50012,-3.62091 1.12316,-7.27599 2.30666,-10.81764c1.90293,-5.70859 2.61487,-11.16297 4.05057,-16.95908c1.75672,-7.09213 5.65618,-13.74959 7.95766,-20.63957c1.56443,-4.68346 2.9422,-9.51342 4.49325,-14.25695l0.93493,-0.47828c2.69749,-1.81835 5.62344,-2.39307 8.46243,-3.81109c4.50116,-2.24824 8.40522,-5.46349 12.77416,-7.92919c0.42445,0.64023 0.86893,1.27747 1.41713,1.84765l0.5,0.5c0,0 0.88388,0.88388 1.76776,0c0.41693,-0.41693 0.44052,-0.83387 0.34909,-1.15803c0.75189,0.61053 1.54381,1.17205 2.37898,1.67442c5.82386,3.5032 13.99986,3.22842 20.51854,4.49173c3.78925,0.0241 7.75119,0.42195 11.43807,-0.63721c2.78201,-0.79921 5.80321,-2.35208 8.83077,-1.89296c1.09329,0.16579 2.11418,0.61814 3.09886,1.22062c0.06747,0.04621 0.13504,0.09175 0.20271,0.13658c0.06502,0.04307 0.13176,0.08259 0.19998,0.1191c2.68482,1.76443 5.13279,4.52467 8.09813,5.43606c0.99847,0.30688 2.09284,0.00672 3.13148,0.11782c3.14872,0.33681 5.86949,1.2071 8.68737,0.89477c0.12717,0.17109 0.27565,0.32536 0.44145,0.45886c-0.61983,5.11089 -0.3271,10.25647 -0.91725,15.40796c-0.27757,2.423 -1.29189,4.72187 -1.59176,7.14221c-0.02443,0.19718 -0.01634,6.33268 -0.01634,6.70749l0.00122,3.20118c0,0 0.0019,2.50198 2.5019,2.50198c1.79599,0 2.30182,-1.29016 2.44424,-2.01683c1.18341,1.28246 2.34723,2.62112 3.46462,4.00555c1.04302,2.32349 2.28656,5.25578 2.42133,5.56862c2.13629,4.95888 2.83926,5.65153 2.77883,10.95686l0.00122,4.60317c0,0 0.00075,2.50238 2.50075,2.50238c2.5,0 2.40426,-2.47115 2.40426,-2.47115l0.09512,-1.17842c0.49284,2.42506 0.71542,4.91535 0.60369,7.44791c-0.00899,0.20361 -0.1251,0.43424 -0.15153,0.6497c-0.30106,-0.60495 -1.0914,-1.93418 -2.94156,-1.31743c-2.3717,0.7906 -1.58062,3.16448 -1.58062,3.16448c0.13601,0.40698 1.4713,4.30628 1.47416,4.71743c0.00971,1.3948 -0.86409,2.65936 -1.41133,3.94236c-1.49608,3.50751 -4.06475,7.81761 -7.15253,10.13787c-1.98841,1.49416 -5.00936,2.08706 -7.32958,2.86051l-0.80938,-0.12824c0,0 -2.50088,0.0033 -2.50088,2.5033c0,2.5 2.40482,2.46937 2.40482,2.46937l2.39029,-0.12744c1.26286,-0.42098 2.71636,-0.77377 4.05011,-1.22601c0.29032,6.76228 1.90569,13.60709 2.72208,20.33071c1.55375,12.79642 2.87587,25.90472 6.10032,38.41915c0.45338,1.75959 1.99621,3.11699 2.42306,4.8832c0.20421,0.845 0.26956,1.71823 0.31767,2.59383c-0.88722,1.14879 -0.1622,2.60067 -0.1622,2.60067l-0.00618,-0.08294l0.05554,0.08477c-6.18796,4.2031 -14.51767,4.47743 -21.62519,6.05934c-2.00042,0.44523 -4.07239,0.48954 -6.10563,0.74619c-0.85981,0.10853 -1.60699,0.90645 -2.46914,0.81846c-0.02097,-0.00214 -0.04165,-0.00504 -0.06198,-0.00868c-0.46123,-0.80961 -0.9627,-1.71099 -1.28831,-2.57899c-1.54178,-4.10995 -1.69082,-8.69261 -2.22974,-12.94831c-0.49688,-3.92373 -2.09658,-7.27627 -3.31708,-10.90566c-2.49994,-7.43405 -2.33369,-15.71793 -4.79711,-23.17746c0,0 -0.23495,-0.70551 -0.83347,-1.21866c0.8287,-4.16214 1.85447,-8.28911 3.22372,-12.39372c0,0 0.10394,-0.31315 0.12292,-0.7504c1.19823,0.04804 2.40255,0.23721 3.57486,0.01772c3.09783,-0.58001 5.76825,-1.87863 8.21035,-3.57876l0.10129,0.30325l2.34413,-0.77992c1.02154,-0.31419 1.76244,-1.26238 1.76244,-2.38697c0,-1.38071 -1.02962,-2.45575 -2.41033,-2.45575c-0.09357,0 -0.18602,0.00529 -0.27693,0.01531l-2.99195,0.29504l0.00546,0.05604l-0.13885,-0.03925c-9.74539,2.0216 -20.26998,6.14206 -30.23685,6.10101c0,0 -2.50529,0.00035 -2.50529,2.50035c0,2.5 2.49435,2.40025 2.49435,2.40025c3.71745,-0.01312 7.45252,-0.53569 11.2042,-1.30392c0.71249,0.5092 1.57632,0.51006 1.57632,0.51006l1.58863,-0.12717c0.03204,-0.01067 0.11682,0.06341 0.14878,0.0524c-3.24168,10.66133 -4.51198,21.50719 -5.78223,32.54135c-0.55921,4.85769 -1.91953,9.61005 -2.41616,14.52046c-0.53441,5.28398 -1.16143,10.70652 -2.70886,15.83717l-1.19345,0.39762c-6.46715,2.17035 -14.47109,2.05412 -21.25591,1.38742c-2.42716,-0.2385 -4.74886,-1.17754 -7.16826,-1.48489c-4.86531,-0.61807 -10.02228,0.14907 -14.41495,-2.1317c0.43542,-1.41769 0.84207,-2.84292 1.20737,-4.30416c1.6386,-4.91563 2.68382,-9.74283 3.27931,-14.79424c0.32704,-2.77421 1.47734,-3.98547 2.31456,-6.79335c0.76532,-2.56673 1.07332,-6.37819 1.637,-8.94745c2.73516,-12.46693 7.11508,-24.62067 9.37643,-37.18168c2.55794,1.1573 5.34412,1.93034 8.24667,2.90029l1.26985,0.66288c0,0 2.23048,1.11562 3.34848,-1.12047c1.118,-2.23608 -1.15717,-3.26223 -1.15717,-3.26223l-1.93262,-0.93857c-4.16786,-1.38603 -8.12719,-2.38499 -11.51857,-4.93061c4.8103,-0.74613 9.65808,-0.46292 14.58924,-1.55232c4.92521,-1.08809 8.97976,-4.0727 13.71114,-5.63579l0.87722,0.16407c-0.04876,0.20925 -0.07765,0.44652 -0.07765,0.70738c0,2.5 2.4133,2.45037 2.4133,2.45037l0.21223,-0.41821c1.02075,0.63756 1.90186,1.59383 3.06245,1.91233c3.77791,1.03677 4.06698,-0.28162 7.42575,-0.70232c4.95917,-0.62117 12.24829,-0.64362 13.35955,-6.86499c0.40931,-2.29151 0.06662,-6.39186 -0.97993,-8.59918c-0.25785,-0.54387 -1.5487,-0.55748 -1.3979,-1.14019c0.20339,-0.78591 1.3595,-0.8871 2.03911,-1.33111c1.25516,-3.64514 1.88959,-6.7374 0.1244,-10.40142c-0.0115,-0.02387 -3.21306,-4.90038 -3.36117,-5.08223c-0.32742,-0.402 -1.21583,-0.49466 -1.17882,-1.01181c0.04455,-0.6225 1.0667,-0.74342 1.3458,-1.30162c0.54466,-1.08935 1.09813,-2.27975 1.05561,-3.49693c-0.04808,-1.37639 -0.53453,-2.77685 -1.31033,-3.91479c-0.60212,-0.88318 -1.851,-1.10203 -2.61635,-1.84821c-0.855,-0.83358 -1.10733,-2.32037 -2.18514,-2.83438c-1.32071,-0.62986 -2.91362,-0.24545 -4.37603,-0.29374c-3.98086,-0.13146 -6.11528,0.64766 -9.37859,2.8232c-0.28203,0.18802 -0.67106,0.39103 -1.05453,0.6092c0.08981,-0.35128 0.14396,-0.68544 0.14245,-0.92869c-0.0129,-2.07829 -0.84288,-4.09554 -0.8642,-6.17376c-3.31138,-6.8828 -7.08152,-16.45389 -15.44353,-18.65766c-1.52972,-0.40316 -3.18826,-0.60015 -4.75728,-0.45873c0.25029,-1.53625 0.41196,-3.17432 0.34215,-4.72345l0.69921,-4.888c0.02054,-0.12903 0.04343,-0.16209 0.04343,-0.29689c0,-1.38071 -1.11789,-2.50019 -2.4986,-2.50019c-1.12459,0 -2.07404,0.74226 -2.38822,1.76381l-0.78099,2.34514l0.18775,0.06264l-0.28364,0.32745c-0.00622,1.51098 -0.05469,3.14752 -0.19407,4.79196c-0.11972,0.94891 -0.26353,2.09899 -0.40433,3.22028c-0.21882,1.26153 -0.51116,2.47945 -0.90258,3.59699c0,0 -0.19057,0.57265 -0.1033,1.24904c-0.00084,0.00319 -0.00168,0.00639 -0.00252,0.00959c-0.20253,0.77206 -0.11112,1.54333 0.11124,2.31544l-0.11321,0.9051c0,0 -0.04526,0.36222 0.03705,0.82724c-0.34593,0.3021 -0.607,0.69766 -0.74538,1.14762l-0.78049,2.3449c-0.16238,0.48712 -0.31716,0.98553 -0.46892,1.4923c-0.07469,0.17688 -0.12685,0.3695 -0.16782,0.56937c-0.94311,3.23603 -1.76973,6.73866 -3.22971,9.6271c-0.44799,0.88631 -1.24627,1.57281 -1.63791,2.48542c-0.74489,1.73578 -1.11813,3.66556 -2.18921,5.22138c0,0 -0.3967,0.59581 -0.44655,1.36317c-1.70889,0.28826 -3.41405,0.53965 -5.06899,0.75144c-0.60299,0.07716 -7.20749,-0.17126 -7.59603,-0.03635l-3.19885,-0.00153c-1.38071,0 -2.49815,1.1165 -2.49815,2.49721c0,1.38071 1.03366,2.44835 2.41437,2.44835l3.20091,-0.00151c0.95174,0.33046 1.98873,0.16293 3.01347,0.05984c3.36914,0.11463 6.85629,0.30945 10.09821,-0.08641c5.41131,-0.66075 10.18269,-1.59331 15.71281,-1.59331c0,0 2.50515,-0.00163 2.50515,-2.50163c0,-0.16493 -0.01074,-0.319 -0.03106,-0.46288c0.83125,-0.73724 0.8332,-1.93757 0.8332,-1.93757c-0.04829,-9.03523 -2.56762,-17.01541 -4.54411,-25.62719l0.1683,-1.59072c0.00282,-0.02251 0.00569,-0.04503 0.00857,-0.06754c0.52905,-0.03938 1.38364,0.16097 1.86988,0.18493c1.68643,0.08311 3.59585,0.10881 4.94226,1.12768c4.79778,3.63062 6.78194,8.67769 9.43829,13.74646c-0.01153,1.00868 -0.17981,2.02792 -0.0342,3.02611c0.10305,0.70649 0.77424,1.28581 0.769,1.99975c-0.01393,1.89812 -1.77089,3.19529 -1.29537,4.68157l-0.77262,0.5159c-0.68925,0.44514 -1.13528,1.12063 -1.13528,2.00216c0,1.38071 1.12388,2.50062 2.50459,2.50062c0.29693,0 0.5831,-0.05151 0.84731,-0.1465l2.34801,-0.78076l-0.13278,-0.39735l0.86059,0.01268c0.12727,-0.17655 0.25486,-0.35301 0.38213,-0.52956z" fill="#0024a3" stroke="none" stroke-width="0.25"></path>
      <path d="M174.50505,252.59019c-0.22562,0.13336 -0.44216,0.23223 -0.64932,0.30194c-0.04713,0.03487 -0.09536,0.06824 -0.14462,0.10006c-0.48816,0.80872 -1.35631,1.34676 -2.34595,1.34676c-0.94039,0 -1.77109,-0.48584 -2.27028,-1.22808l-2.18951,-3.17063l0.40762,-0.30116c-0.72765,-0.77276 -1.3575,-1.62135 -1.82796,-2.57893l-2.09842,-3.03872c-0.04726,-0.06666 -0.09179,-0.13552 -0.13342,-0.2064c-0.40447,-0.02278 -0.78578,-0.13552 -1.12558,-0.3192c-0.56128,0.05555 -1.00621,-0.01261 -1.11814,-0.51377c-0.06125,-0.27428 -0.09781,-0.54863 -0.11344,-0.82304c-0.11613,-0.25981 -0.19567,-0.54071 -0.23177,-0.83561l-0.0501,-0.36269h-0.41415v-3.20163c0,-1.06603 0.56415,-1.99577 1.40048,-2.48723l0.38135,-1.57784c0.02342,-1.24507 0.11152,-2.47354 0.22486,-3.69711c-0.68083,-0.52066 -1.12231,-1.35704 -1.12231,-2.30007c0,-0.29556 0.04337,-0.58063 0.12387,-0.84879l0.86682,-3.13814l0.05127,0.01515c0.84091,-5.78107 1.38782,-11.65621 2.41286,-17.40546c1.56228,-1.33857 2.41787,-2.66222 4.69078,-3.57824c0.36071,-0.07187 0.71742,-0.14451 1.07036,-0.21823c0.45162,0.95638 0.22519,2.0103 0.22519,2.0103c-0.62383,2.88656 -1.08248,5.82305 -1.48299,8.77454c0.14304,0.34527 0.22223,0.72556 0.22223,1.12497c0,0.17866 -0.01584,0.35348 -0.04616,0.52307l-0.79324,4.92305c0.33843,1.0584 0.01234,2.26308 -0.04837,3.38642c-0.19808,3.66483 -0.80919,7.1659 -0.881,10.81849c0.00003,0.00536 0.00004,0.01074 0.00004,0.01611c0,0.04123 -0.00084,0.08227 -0.00252,0.12308c-0.00283,0.17859 -0.00434,0.35755 -0.00443,0.53692l-0.06394,0.10458l-0.01077,0.08907l0.05388,0.00796l-0.43644,3.16003c-0.02089,0.17066 -0.05632,0.33663 -0.10497,0.49653c0.99551,0.21148 1.82011,0.99856 2.51933,2.04185c0.35148,0.17125 0.66241,0.41687 0.91384,0.71724l3.08498,3.64683l-0.07187,0.06504c0.08096,0.05292 0.16194,0.10584 0.2429,0.15877l1.91736,3.44195c0,0 1.37116,2.48196 -1.02836,3.90022z" fill="#001769" stroke="none" stroke-width="0.5"></path>
      <path d="M128.33615,242.52638c0.09094,-0.00503 0.18188,-0.01006 0.27282,-0.01508l-0.03742,-0.09355l3.94736,-1.57893c0.14673,-0.06267 0.30066,-0.1117 0.46022,-0.14552c1.023,-0.4778 2.04814,-0.95108 3.07325,-1.42425c0,0 0.38069,-0.1757 0.90223,-0.2273c0.60765,-0.39543 1.78797,-0.87889 2.98759,0.20971l0.4971,-0.12428c0.21047,-0.05753 0.43201,-0.08824 0.66073,-0.08824c1.18849,0 2.18328,0.82933 2.43723,1.94085c0.21392,-0.06906 0.47788,-0.14106 0.77793,-0.21447l1.19425,-0.39809l0.04181,0.12544c0.37248,-0.07562 0.76455,-0.15078 1.16171,-0.22391c0.48306,-0.22755 0.97484,-0.43786 1.48778,-0.63791c0.13888,-1.93556 2.21203,-2.17535 2.21203,-2.17535l1.69406,-0.18743l4.85228,-0.97047c0.17418,-0.03842 0.35518,-0.05867 0.54092,-0.05867c1.38071,0 2.5,1.11929 2.5,2.5c0,0.99801 -0.58479,1.85943 -1.43041,2.26029l-1.90463,0.95232c-0.19926,0.58004 -0.6059,1.06368 -1.13139,1.36236c-0.23536,0.99999 -1.07115,1.76836 -2.10605,1.90377l-3.25678,0.48031c-0.59184,0.10212 -1.17313,0.20825 -1.74639,0.31349c-1.0871,0.58404 -2.45143,0.50347 -3.66477,0.78486l-0.11226,-0.02609l0.00622,0.04357l-2.75741,0.39391c-0.12902,0.02054 -0.26132,0.03121 -0.39612,0.03121c-0.44323,0 -0.85952,-0.11534 -1.22049,-0.31765c-1.25716,-0.04659 -2.53619,-0.2205 -3.8663,-0.57853c0,0 -0.28699,-0.082 -0.63431,-0.28849c-0.20036,0.07517 -0.40073,0.15033 -0.60109,0.2255c0,0 -0.48086,0.18032 -1.08843,0.15957l-1.87132,0.93567l-0.19689,0.07959l0.00047,0.00827c-0.00683,-0.00006 -0.01366,-0.00011 -0.02049,-0.00017l-1.97264,0.79744c0,0 -0.55191,0.22077 -1.22514,0.17788l-0.92933,0.2788c-0.24371,0.07928 -0.50386,0.12213 -0.77402,0.12213c-1.38071,0 -2.5,-1.11929 -2.5,-2.5c0,-0.88153 0.45626,-1.6565 1.14551,-2.10163l2.36775,-1.5785l0.0616,0.0924z" fill="#001769" stroke="none" stroke-width="0.5"></path>
      <path d="M167.69441,309.84698c-0.36725,-2.67922 -0.65213,-5.40865 -0.64355,-8.05701c0,0 0.00161,-0.21558 -0.05893,-0.51301c2.43954,-1.87495 4.60726,-4.51504 6.29018,-7.3548c0.01629,1.89206 -0.1637,3.80138 0.08613,5.84269c0.20304,1.65902 0.98745,3.35613 0.78577,5.01532c-0.20094,1.65301 -0.62295,7.65961 -3.25313,5.86863z" fill="#0024a3" stroke="none" stroke-width="0.25"></path>
      <path d="M167.66394,297.2209l0.21038,0.10519c0.02717,-0.18628 0.05435,-0.37256 0.08152,-0.55885l0.52695,-0.19982l-0.14452,-0.18065l0.57739,-0.46191c0.1161,-0.23465 0.2322,-0.46931 0.34829,-0.70396c0,0 1.11804,-2.23607 3.3541,-1.11803c0.47719,0.2386 0.80163,0.52811 1.01678,0.83595c0.47173,0.45473 0.76517,1.09315 0.76517,1.80011c0,0.32934 -0.06368,0.64381 -0.17941,0.93176l-1.17978,3.14606l-0.28158,-0.10559c-0.02537,0.25 -0.05073,0.5 -0.0761,0.75l-0.53165,0.15769c-0.04657,0.0513 -0.09525,0.10065 -0.14589,0.14793l0.1475,0.20649l-2.72619,1.94729c-0.35389,1.04015 -5.0722,3.15852 -5.98149,3.60466l-0.41557,-0.07731l0.0237,0.1659l-0.72065,0.10295c-0.1121,0.47376 -0.35899,0.8954 -0.69795,1.22218c0.47167,0.45472 0.76506,1.0931 0.76506,1.8c0,0.86366 -0.43795,1.62503 -1.10388,2.07415l-2.05853,1.4287c0.22997,0.37817 0.36242,0.82218 0.36242,1.29714c0,0.99801 -0.58479,1.85943 -1.43041,2.26029l-3.15157,1.57578l-0.00278,-0.00557c-0.01409,0.00681 -0.02817,0.01362 -0.04226,0.02042c-0.00419,0.00436 -0.0084,0.00871 -0.0126,0.01306c-0.92107,0.95135 -2.31309,1.21805 -3.60666,1.63552c-0.75337,0.32741 -1.50875,0.64878 -2.26578,0.96922c-2.09953,0.98446 -4.18258,1.99769 -6.27356,2.99678c0.00584,0.00923 0.01162,0.01851 0.01734,0.02782l2.6618,4.18279l-0.03866,0.0246c0.0806,0.11461 0.15885,0.23112 0.23455,0.3497c1.5856,2.48396 2.18058,10.06717 2.59257,12.94578c0.49337,3.44726 0.89946,6.89231 1.23062,10.33983c0.08714,0.71748 0.16955,1.43529 0.24661,2.15368c0.81634,4.78808 1.89829,9.50785 2.63345,14.31889l-0.05234,0.1914h0.05968v4c0,1.03476 -0.62866,1.92269 -1.52487,2.30269c-0.0226,0.13827 -0.04804,0.27632 -0.07652,0.41414c-0.00574,0.02779 -0.01166,0.05552 -0.01775,0.08319h0.01913v2.79999c0,1.38071 -1.11929,2.5 -2.5,2.5c-0.18992,0 -0.3749,-0.02118 -0.5527,-0.0613c-0.34613,0.24617 -0.75765,0.4064 -1.20342,0.44955c-0.45705,0.49892 -1.11394,0.81176 -1.84389,0.81176c-1.38071,0 -2.5,-1.11929 -2.5,-2.5v-0.73555c-0.207,-0.17352 -0.39522,-0.37036 -0.5602,-0.59609c-1.04638,-1.43169 0.11508,-3.54476 0.17261,-5.31714l-0.39252,0.43552c0,0 -0.87441,-1.31161 -0.19304,-2.54615l-0.89204,-1.93276l0.04631,-0.02137c-0.06609,-0.12353 -0.12958,-0.24869 -0.19025,-0.37561c-0.93632,-1.95872 -0.98049,-4.16951 -0.9853,-6.39336c-2.08249,-5.18993 -3.01525,-11.37379 -4.14315,-16.36242c-1.18442,-5.23863 -2.51427,-10.35107 -3.03906,-15.63366c-0.33274,0.20801 -0.71794,0.3399 -1.13123,0.37131l-4.57555,0.39787l-0.00295,-0.03397l-0.10523,0.04102c-0.13443,0.00002 -0.26883,-0.00007 -0.40319,-0.00028l-0.11366,0.09294l0.03066,0.02512l-2.06216,2.5166c1.33308,0.05387 2.39728,1.15162 2.39728,2.49793c0,0.08464 -0.00421,0.16831 -0.01242,0.25079l-0.43786,4.95004l-0.02223,-0.00197c0.00254,0.04478 0.00486,0.08959 0.00694,0.13443c0.13197,2.84006 -1.0337,5.5927 -1.64896,8.36846c-1.05158,4.74422 -2.32047,9.42638 -3.66694,14.08799c0.36181,-0.20358 0.77942,-0.3197 1.22414,-0.3197c1.38071,0 2.5,1.11929 2.5,2.5c0,0.29691 -0.05176,0.58172 -0.14674,0.84592l-0.78153,2.34463l-0.01994,-0.00665l0.0049,0.05042c-0.22078,0.58873 -0.43837,1.17437 -0.65514,1.75761c0.01993,0.61644 -0.16817,1.1055 -0.16817,1.1055l-1.97905,5.14554c-0.14846,0.41457 -0.4033,0.77851 -0.73164,1.05891c-0.04574,0.10447 -0.09179,0.20896 -0.13815,0.31347c0,0 -1.01535,2.28453 -3.29988,1.26918c-0.05019,-0.02231 -0.09879,-0.04523 -0.14585,-0.06872c-0.32827,0.88887 -1.14728,1.53999 -2.12827,1.62459c-0.14434,0.07168 -0.29658,0.12983 -0.45508,0.17277c-0.1146,0.46375 -0.22793,0.92766 -0.33989,1.39175l-0.28543,1.18193c0,0 -0.58686,2.43014 -3.017,1.84329c-2.43014,-0.58686 -1.84329,-3.017 -1.84329,-3.017l0.28543,-1.18193c0.63318,-2.61931 1.30913,-5.23309 2.00906,-7.84326c-0.40658,-2.59024 0.24306,-5.1947 1.0102,-7.73149c0.14249,-0.58748 0.2815,-1.12662 0.39291,-1.56603c0.62087,-5.9302 1.14087,-11.87099 1.85088,-17.79255c0.47848,-3.99055 1.49857,-7.99196 1.39253,-11.96117c-7.43991,-2.53172 -14.82224,-5.44125 -22.29745,-7.84395l-1.46419,0.18302c-0.11411,0.01595 -0.2307,0.02419 -0.3492,0.02419c-1.01059,0 -1.88114,-0.59964 -2.27524,-1.46253c-0.27037,-0.07877 -0.5409,-0.15667 -0.81159,-0.23367c0,0 -2.40381,-0.68682 -1.71699,-3.09062c0.68682,-2.40381 3.09062,-1.71699 3.09062,-1.71699c0.48877,0.14022 0.97702,0.28327 1.46478,0.42891c0.14179,-0.18393 0.29926,-0.35634 0.47593,-0.51467c0.12252,-0.1098 0.29748,-0.21723 0.51539,-0.322c-1.60021,-0.58164 -2.91222,-1.45951 -3.19396,-2.29608c-0.10727,-0.31853 0.8406,-1.65524 1.9671,-3.00748c-0.0106,-0.09348 -0.01605,-0.18853 -0.01605,-0.28485c0,-0.10848 0.00691,-0.21535 0.02031,-0.32019l-0.00814,0.0009c-0.10227,0.01274 -0.20646,0.0193 -0.31218,0.0193c-1.38071,0 -2.5,-1.11929 -2.5,-2.5c0,-0.69036 0.27982,-1.31536 0.73223,-1.76777l1.67987,-1.67987c0.06849,-0.69655 0.42285,-1.30918 0.94418,-1.71897l1.98197,-1.58558l0.03518,0.04397c0.02692,-0.04377 0.05384,-0.08755 0.08076,-0.13132l0.15073,-0.0326l-0.02992,-0.04787l3.12888,-1.95555c-2.11071,-0.69792 -4.18543,-1.50918 -6.36541,-2.41675c0,0 -2.30769,-0.96154 -1.34615,-3.26923c0.96154,-2.30769 3.26923,-1.34615 3.26923,-1.34615c2.47999,1.03422 4.77891,1.92001 7.16965,2.65133l3.34488,0.37165l-0.00402,0.0362c0.05665,-0.0045 0.11336,-0.00853 0.17015,-0.01207c1.65429,-0.10323 3.46813,0.53106 5.21931,1.36383l0.98665,0.2819c1.75126,0.08217 3.60735,0.54727 5.47057,1.11486h2.08126c1.08895,-0.19932 2.20248,-0.11155 3.31555,-0.04524c0.34045,-0.20428 0.73354,-0.32981 1.1541,-0.35142l3.33121,-0.19722c3.33398,-0.30796 6.67938,-1.47395 9.99391,-1.00176c0.0459,0.00654 0.09175,0.01333 0.13754,0.02036l0.00004,-0.02394l2.462,0.00366c3.87289,-1.02893 7.62528,-2.68906 11.43139,-3.88159l2.32836,-0.77612c0.2642,-0.09499 0.54902,-0.14674 0.84593,-0.14674c0.28276,0 0.55456,0.04694 0.80803,0.13347c0.93239,-0.56165 1.84845,-1.14956 2.74794,-1.76197c0.1208,-0.56128 0.43004,-1.05252 0.85823,-1.40426l2.30446,-1.92039c3.69075,-5.8022 10.87839,-9.86059 12.48101,-16.84581l0.06496,-0.07949l-0.03636,-0.01212l0.78179,-2.34532c0.31418,-1.02155 1.26534,-1.76411 2.38993,-1.76411c1.27327,0 2.32422,0.95187 2.48007,2.18284l0.3948,2.76362l-0.09188,0.01313c0.04575,0.1853 0.08191,0.37345 0.1069,0.56494c0.15731,1.2053 -0.39778,2.87796 -1.18991,4.6149v1.56059h-0.06024c0.00725,0.20478 0.00219,0.41062 -0.01727,0.61772c-0.18408,1.95832 -1.66605,3.58257 -2.77151,5.20948c-2.26453,3.33272 -5.18612,6.38365 -8.24632,9.09086l-0.4609,0.76817l-0.05139,-0.03083c-0.08011,0.14908 -0.16509,0.29597 -0.25545,0.44041c-0.26806,0.42851 -0.61023,0.78909 -0.99723,1.1081c0.54893,-0.20689 1.26835,-0.27567 2.01903,0.21128l1.78362,-1.11476c0.35235,-0.22832 0.76581,-0.37035 1.21046,-0.39617zM158.54551,303.4373l0.05839,-0.03893c0.03516,-0.6344 0.30685,-1.20571 0.72835,-1.62721l1.81024,-1.81024c-0.77012,0.45601 -1.59113,0.86261 -2.31189,1.35593c-1.29577,0.88688 -2.5984,1.74933 -3.91408,2.58192l0.91883,-0.51684c0.37101,-0.218 0.80324,-0.343 1.26466,-0.343c0.51873,0 1.00056,0.15798 1.39999,0.42846c0.01505,-0.01019 0.03022,-0.02022 0.0455,-0.03009zM134.3,321.83896c0.27395,0 0.53761,0.04406 0.78428,0.12549l0.41529,-0.34607l0.03106,0.03727c0.0757,-0.07855 0.1536,-0.1553 0.23387,-0.23009c0.97232,-0.90593 2.29941,-1.28253 3.57461,-1.7401c-0.09309,-0.13629 -0.17304,-0.28226 -0.23803,-0.43609c-0.74736,0.35835 -1.50717,0.72292 -2.1403,1.02345c-0.34573,0.21511 -0.69162,0.43072 -1.0379,0.64663l-1.14633,0.17631l-2.58565,1.29283c-0.34741,0.18291 -0.74313,0.28643 -1.16302,0.28643c-0.32963,0 -0.64436,-0.06379 -0.93251,-0.17971l-0.20183,0.64585c0.76525,0.04542 1.5115,0.02223 2.24354,-0.05672c0.4329,-0.74475 1.23944,-1.24547 2.16292,-1.24547zM132.9707,314.93332l0.03771,0.04031c0.09216,-0.10017 0.18661,-0.19851 0.28353,-0.29488c1.27846,-1.27118 3.27537,-1.50777 4.91595,-2.25535c1.38291,-0.63017 2.7633,-1.26495 4.14194,-1.90337l-2.25899,0.91491c-0.3038,0.13128 -0.63881,0.20403 -0.99081,0.20403c-1.11466,0 -2.05893,-0.72949 -2.38146,-1.73709c-0.25646,0.08883 -0.53187,0.13708 -0.81856,0.13708c-0.11912,0 -0.23629,-0.00833 -0.35096,-0.02444c-1.84128,0.37554 -3.69889,0.70126 -5.58301,0.99289l-0.12937,-0.03685l0.00242,0.04668l-1.01459,0.05263c-1.5092,0.52893 -3.20174,0.43476 -4.80001,0.62183c-0.74604,0.08732 -1.49153,0.16656 -2.23676,0.2379c0.6142,0.45551 1.01228,1.18594 1.01228,2.00935c0,0.41779 -0.10248,0.81165 -0.28368,1.1578c0.10276,-0.00815 0.20542,-0.01691 0.30795,-0.02638l-2.88104,2.91861c-0.00614,0.50259 -0.16059,0.96948 -0.42161,1.35893l-0.42298,0.65257c0.29349,-0.07902 0.60219,-0.17544 0.91792,-0.27393l2.36323,-1.77244c0.21852,-0.16762 0.46552,-0.29996 0.73248,-0.38853l3.28174,-2.42229c0.41885,-0.31658 0.9405,-0.50434 1.506,-0.50434c1.38071,0 2.5,1.11929 2.5,2.5c0,0.06996 -0.00287,0.13925 -0.00851,0.20776zM99.95812,305.4808c0.22945,0.04249 0.44791,0.11632 0.65076,0.21688c0.09888,-0.09086 0.20509,-0.17386 0.31765,-0.24801l-1.07372,-0.35791c0.04514,0.12534 0.08054,0.25532 0.1053,0.38903zM99.69368,324.81631c-0.05566,0.03947 -0.11154,0.07861 -0.16763,0.11743c0.7505,0.26241 1.50044,0.52759 2.24997,0.79468c0.13472,-0.12832 0.28374,-0.24176 0.44444,-0.33768c-0.2383,-0.21626 -0.43468,-0.47788 -0.5755,-0.77123c-0.66221,0.11184 -1.314,0.18027 -1.95128,0.1968z" fill="#001769" stroke="none" stroke-width="0.5"></path>
      <path d="M135.37339,269.65329c-0.40887,-0.66102 -0.74885,-1.39611 -0.92601,-2.15832l-2.7897,1.74356c-0.39095,0.25333 -0.85714,0.40043 -1.35768,0.40043c-1.38071,0 -2.5,-1.11929 -2.5,-2.5c0,-0.85069 0.42489,-1.60213 1.07402,-2.05371l2.57596,-1.83996c0.28301,-0.3421 0.54315,-0.65337 0.78093,-0.94484c0.13022,-0.58253 0.42127,-1.06622 0.99613,-1.32987c0.72848,-1.12832 1.03864,-2.22481 0.97295,-4.23164c0,0 0,-2.5 2.5,-2.5c2.5,0 2.5,2.5 2.5,2.5c-0.05318,2.43959 -0.42513,4.13465 -1.18555,5.69633c0.42049,0.83823 0.65548,1.90682 1.05726,2.71311c1.35234,2.71385 2.78506,4.48803 3.96912,7.51276l0.29524,0.55972c0,0 0.91326,1.82641 -0.56164,3.00329c0.21205,2.34266 -0.3679,5.13612 0.35869,7.14042c0.4557,3.59019 0.55789,7.73385 -3.19315,9.9452c-1.07768,0.63533 -2.45279,0.49614 -3.68641,0.70405c-3.20369,0.53993 -9.30308,1.41273 -12.40461,0.27582c-1.1024,-0.4041 -2.96597,-2.77725 -4.52333,-3.11757c-4.31184,-0.94223 -8.03027,2.20634 -11.75824,3.5116c-5.57204,1.95091 -12.45826,0.96299 -18.29015,0.949c-3.65442,0.5309 -7.42231,0.66245 -11.03046,1.18212c-2.03842,0.29358 -4.06926,0.95737 -6.12399,0.81788c-8.1781,-0.55521 -13.47376,-5.8112 -19.97016,-9.98788c-0.85864,-0.55204 -1.95051,-0.74639 -2.70711,-1.43164c-1.44993,-1.31319 -2.27417,-3.18608 -3.49767,-4.71246l-0.2156,-0.19397c0,0 -1.65264,-1.65264 -0.16416,-3.36c-0.34622,-0.34912 -0.69135,-0.69615 -1.03584,-1.03999c0,0 -1.76777,-1.76777 0,-3.53553c1.76777,-1.76777 3.53553,0 3.53553,0c4.99726,5.00599 10.27789,11.23609 17.37766,13.38148c8.7166,2.63397 19.49821,0.87823 28.11572,-1.60204c5.717,-1.88332 11.25049,-0.75847 16.96448,-2.0448c2.55914,-0.57611 4.6229,-2.19375 7.2,-2.8c3.39169,-0.79788 7.64775,-0.27826 10.88214,-1.50222c2.23792,-0.84688 4.20229,-3.47239 6.11106,-4.8011c0.79087,-0.55053 1.5366,-1.44526 2.37933,-1.89592c-0.57127,-0.81918 -1.20279,-1.60944 -1.72476,-2.4533z" fill="#001769" stroke="none" stroke-width="0.5"></path>
      <path d="M119.40973,255.99039c-2.45145,-0.49028 -1.96117,-2.94174 -1.96117,-2.94174l0.35145,-1.50972c0.1135,-8.43661 -7.36934,-16.04537 -15.89999,-15.89999c0,0 -2.5,0 -2.5,-2.5c0,-2.5 2.5,-2.5 2.5,-2.5c11.43076,0.14127 20.78547,9.54545 20.89999,20.89999l-0.44854,2.49028c0,0 -0.49028,2.45145 -2.94174,1.96117z" fill="#001769" stroke="none" stroke-width="0.5"></path>
      <path d="M73.19279,262.00739l0.03222,0.05155l-3.16731,1.97957c-0.39096,0.25333 -0.85714,0.40043 -1.35768,0.40043c-1.38071,0 -2.5,-1.11929 -2.5,-2.5c0,-0.1348 0.01067,-0.2671 0.03121,-0.39612l0.39391,-2.75743l0.2411,0.03444l-0.0607,-0.67356c4.57011,-6.04483 10.8884,-9.55966 16.02337,-15.06534c1.30885,-1.40334 1.54689,-2.88979 2.56526,-4.48938c4.41716,-6.93819 5.69177,-15.04183 8.56502,-22.73043c0,0 0.8778,-2.34082 3.21863,-1.46302c2.34082,0.8778 1.46302,3.21863 1.46302,3.21863c-1.07377,2.85267 -1.93844,5.74072 -2.81418,8.60567c0.11189,0.2838 0.17335,0.59299 0.17335,0.91653c0,0.22871 -0.03071,0.45025 -0.08824,0.66072l-0.76302,3.05211c-0.01374,0.09515 -0.02786,0.19004 -0.04235,0.2847c0.01416,0.35957 -0.05927,0.70755 -0.17736,1.05013c-0.19583,1.0617 -0.43594,2.09631 -0.70726,3.11753c0.8174,0.4111 1.37823,1.25746 1.37823,2.2348c0,0.29691 -0.05176,0.58173 -0.14674,0.84593l-1.18154,3.54464l-0.01075,-0.00358c-0.0014,0.01578 -0.00283,0.03156 -0.00429,0.04735c-0.10381,1.12179 -0.83119,2.0955 -1.18763,3.16421c-1.22684,3.6784 -2.03285,6.8952 -3.76486,10.3811l-0.05967,0.04579l0.02609,0.01491l-1.57593,2.75787c-0.34388,0.62853 -0.94991,1.09317 -1.67104,1.24686c-0.58801,0.57658 -1.4825,0.93619 -2.12318,1.47548l-1.28244,0.71551c0,0 -1.91858,0.95927 -3.08998,-0.67647c-0.25915,0.09093 -0.53781,0.14039 -0.82803,0.14039c-0.78287,0 -1.48169,-0.35984 -1.94009,-0.92315c-1.14637,0.65567 -2.3268,1.19844 -3.56714,1.6916z" fill="#001769" stroke="none" stroke-width="0.5"></path>
      <path d="M157.30193,204.04784c0.45062,-0.16816 0.90087,-0.34009 1.35384,-0.49922c-0.39013,0.27967 -0.85033,0.43386 -1.35384,0.49922z" fill="#000000" stroke="none" stroke-width="0.5"></path>
      <path d="M91.91162,256.28958c1.6953,0.03308 2.276,-1.74727 2.276,-1.74727l0.74382,-2.23587c1.15384,-2.90968 1.80388,-6.0005 2.48225,-9.05622c0.05045,-0.22728 0.16234,-0.54397 0.25954,-0.76135c1.12941,5.28039 2.07734,10.65407 2.051,16.08024c-1.69908,0.05143 -3.36891,0.1817 -4.99145,0.34882c-0.94358,-1.70207 -2.94621,-1.04599 -2.94621,-1.04599l-0.56407,0.1874c0.22029,-0.55726 0.42455,-1.12324 0.63534,-1.68543z" fill="#0024a3" stroke="none" stroke-width="0.25"></path>
      <path d="M362.0872,277.4029c-0.96333,-0.28978 -1.90632,-0.60896 -2.83605,-0.94334c1.85627,0.39968 3.70915,0.8178 5.54392,1.31663c-0.99065,-0.02888 -1.91702,-0.1354 -2.70788,-0.37329z" fill="#53cbf0" stroke="none" stroke-width="0.5"></path>
      <path d="M362.0872,277.4029c-0.81605,-0.24547 -1.61748,-0.51204 -2.40864,-0.79108c3.87998,0.46895 8.08326,0.70032 11.96858,0.792c-2.9878,0.15771 -6.9896,0.77224 -9.55994,-0.00092z" fill="#3b8fa9" stroke="none" stroke-width="0.5"></path>
      <path d="M356.58481,275.24112l1.22153,0.27251c0,0 0.90528,0.22631 1.47142,0.95549c-1.86781,-0.671 -3.68192,-1.40386 -5.49996,-2.08341c0.96456,0.19605 1.90702,0.47044 2.80701,0.85541z" fill="#3b8fa9" stroke="none" stroke-width="0.5"></path>
      <path d="M386.38262,274.50573c0.39643,-0.22325 0.81285,-0.41598 1.29971,-0.53803c-0.43412,0.17459 -0.86771,0.35291 -1.29971,0.53803z" fill="#3b8fa9" stroke="none" stroke-width="0.5"></path>
      <path d="M347.6805,380.34607c0,-0.52061 -0.10983,-0.93344 -0.2815,-1.2598c0.26537,-0.48203 0.49245,-1.19635 0.18438,-1.97519c1.13855,-2.32112 2.21966,-4.65432 3.1407,-7.10695c0.83325,-2.21884 1.23046,-4.85048 2.29146,-6.96596c1.21148,-2.41553 2.05561,-2.19642 3.23233,-4.89481c0.44732,-1.02578 0.39755,-2.31229 0.85092,-3.33542c1.12057,-2.52885 3.01603,-4.69119 4.04847,-7.25729c1.70839,-4.24617 3.35301,-8.4685 4.80692,-12.81324c0,0 0.38253,-1.14078 -0.07852,-2.07524c0.63323,-0.11306 1.27831,-0.24173 1.91571,-0.38506c-0.22801,2.27051 -0.02839,4.44301 -0.2584,6.97312c-0.24978,2.74758 -1.33701,6.01924 -1.5868,8.76681c-0.24265,2.66904 0.28282,5.40492 0.01205,8.07126c-0.45821,4.51215 -0.9921,9.05699 -1.60215,13.45527c-0.40416,2.9139 -0.17851,5.55497 -0.71386,8.41392c-0.07164,0.38258 0.47613,1.03198 0.10948,1.16262c-0.68558,0.24428 -1.4183,-0.50572 -2.14299,-0.43862c-0.18214,0.01686 -4.81964,1.56938 -5.20178,1.69676c-2.09235,0.70222 -6.85814,2.28433 -8.81806,0.73673c0.05878,-0.22558 0.09163,-0.48072 0.09163,-0.76891z" fill="#d38133" stroke="none" stroke-width="0.5"></path>
      <path d="M320.78106,371.47873c-0.64157,0.24632 -3.06869,1.0045 -4.16404,0.24068l1.99324,-1.38338l1.60295,-2.47359c0,0 0.67928,-1.36644 -0.08833,-2.49662c1.62453,-3.17773 3.52008,-6.1127 5.17781,-9.37823c4.58395,-9.02983 9.42211,-18.04352 13.99501,-27.10469c0.78995,0.30001 1.60915,0.55707 2.44018,0.77754c-4.18738,8.66619 -6.66949,17.54125 -9.3143,26.78456c-0.99327,3.47135 -2.05191,6.88477 -3.19513,10.31448c-0.44803,1.34411 -0.44793,2.88375 -1.21804,4.07298c-0.96389,1.48849 -6.04522,0.63564 -7.22937,0.64626z" fill="#d38133" stroke="none" stroke-width="0.5"></path>
      <path d="M394.53386,237.3197c0.13105,-0.78316 0.27382,-1.53717 0.41764,-2.27575c-0.1766,1.28985 -0.367,2.57886 -0.58589,3.85203c0.02988,-0.53899 0.08294,-1.06653 0.16825,-1.57629z" fill="#00629e" stroke="none" stroke-width="0.5"></path>
      <path d="M387.07469,326.89824c-1.41665,-0.85119 -2.02489,-2.10748 -2.7035,-3.49484c7.99003,-6.69403 11.85512,-16.9216 14.43428,-27.25408c1.50423,-4.67941 1.1212,-8.96121 -0.26292,-13.15919c1.57534,2.36037 3.02384,4.72022 4.5104,7.31708c2.59921,4.54053 4.77407,9.70882 5.30845,15.03027c0.14416,1.43557 -0.25956,2.93962 0.0543,4.34786c0.47616,2.13649 2.09157,3.97332 2.34495,6.14752c0.50342,4.31973 -0.10101,8.47463 -1.12276,12.59319c-0.50386,0.29057 -1.07507,0.49259 -1.51475,0.87338c-0.20483,0.17739 -0.21222,0.9722 -0.34605,0.7366c-1.43063,-2.5186 0.67211,-6.04676 -5.77661,-4.85206c-1.40722,0.2607 -1.48554,2.45212 -2.24136,3.66743c-0.36309,0.58382 -0.82852,1.11042 -1.12477,1.73083c-0.13318,0.2789 -0.03682,1.20682 -0.1423,0.9163c-0.51328,-1.41372 -1.92138,-6.3849 -3.38127,-6.98513c-4.38795,-1.80408 -4.43262,1.69636 -7.13281,2.964c-0.32305,0.15166 -0.59739,-0.39534 -0.90329,-0.57915z" fill="#53cbf0" stroke="none" stroke-width="0.5"></path>
      <path d="M344.79623,279.51948c-0.53634,4.00731 -1.05702,8.07417 -2.64766,11.73327c-0.37071,0.85278 -1.14354,1.48244 -1.55742,2.31512c-2.39768,4.8238 -3.58841,10.46672 -5.6984,15.42534c-1.28251,3.014 -2.8088,5.08665 -3.80591,8.08067c-0.18084,-0.02471 -0.29677,-0.02486 -0.29677,-0.02486l-1.59453,0.1273c-0.80001,0.26666 -1.62362,0.48095 -2.40491,0.79829c-0.5596,0.22731 -1.90774,1.30421 -1.64737,0.75921c0.21445,-0.44889 0.94189,-0.6919 0.90371,-1.1879c-0.0103,-0.13381 -0.02331,-0.26749 -0.0379,-0.40065l0.06986,0.00007l-0.00461,-4.00244c0,-1.21739 -0.878,-2.23736 -2.03029,-2.46025c2.26034,-2.6549 4.43401,-5.39345 5.80018,-8.54429c0.40553,-0.9353 0.17886,-2.1205 0.68129,-3.00752c1.02218,-1.80462 3.00119,-3.02985 4.03818,-4.826c1.58434,-2.74419 2.51958,-6.0095 4.58638,-8.46699c1.7766,-2.11244 3.69638,-4.24858 5.64616,-6.31838z" fill="#53cbf0" stroke="none" stroke-width="0.5"></path>
      <path d="M355.28232,270.52914c-0.55211,-0.22225 -1.10452,-0.45637 -1.65497,-0.67559c0.10449,0.01592 0.17266,0.01592 0.17266,0.01592c0.19082,-0.00237 0.37763,0.00162 0.56088,0.01137c0.30363,0.2319 0.61079,0.44912 0.92144,0.6483z" fill="#53cbf0" stroke="none" stroke-width="0.5"></path>
      <path d="M359.91806,296.93607c-1.10303,0.55151 -1.93399,0.28686 -2.49291,-0.12295c-3.11931,4.30201 -5.0231,9.86185 -5.74383,14.99238c-0.37743,2.68678 1.2077,7.76262 4.81463,7.59635c2.92656,-0.13491 5.95661,-1.91454 8.54737,-3.01155c0.65488,-0.27729 1.45055,-0.22257 2.04237,-0.61692c2.30775,-1.53777 4.35828,-4.45227 6.38769,-6.3877c1.3576,-4.49439 4.39541,-8.92876 4.42733,-13.82617c0.01272,-1.95154 -1.56693,-6.67451 -3.82515,-7.26678c-1.44687,-0.37948 -2.79368,0.33858 -4.08492,0.77897c-3.94635,1.34594 -7.56991,1.74502 -9.91046,5.41505l0.95591,-0.90478c0,0 1.11803,2.23606 -1.11804,3.3541zM357.42452,289.84193c2.97037,-3.14133 6.58194,-4.0748 10.98494,-5.51363c2.51786,-0.8228 4.24167,-1.67175 7.11503,-0.82101c2.64467,0.78302 4.33756,3.00341 5.52132,5.29436c4.1522,8.03577 -0.64092,15.69988 -3.31917,23.21267c-2.39786,2.48012 -5.13297,6.09215 -8.01233,8.01234c-2.53008,1.68725 -6.5767,2.80072 -9.50797,3.49874c-1.29665,0.30877 -2.56979,0.90554 -3.90229,0.87278c-4.77648,-0.11741 -8.91334,-4.84451 -9.57172,-9.29772c-0.47283,-3.19817 0.09719,-4.4026 0.84235,-7.40674c1.61166,-6.49747 3.89631,-12.35181 8.65761,-17.16146c0,0 0.48106,-0.48105 1.19223,-0.69032z" fill="#000000" stroke="none" stroke-width="0.5"></path>
      <path d="M359.8892,296.89524c2.23607,-1.11804 1.16403,-3.26629 1.16403,-3.26629l-0.99553,0.81315c2.34055,-3.67003 6.00331,-4.07156 9.94966,-5.4175c1.29124,-0.44039 2.64707,-1.15419 4.09394,-0.77471c2.25822,0.59227 3.85449,5.33154 3.84177,7.28308c-0.03192,4.89741 -3.07001,9.38535 -4.42761,13.87974c-2.02941,1.93543 -4.1125,4.87201 -6.42025,6.40978c-0.59182,0.39435 -1.3959,0.34053 -2.05078,0.61782c-2.59076,1.09701 -5.64533,2.87083 -8.57189,3.00574c-3.60693,0.16627 -5.2113,-4.92764 -4.83387,-7.61442c0.72073,-5.13053 2.63094,-10.75094 5.75025,-15.05295c0.55892,0.40981 1.39725,0.66809 2.50028,0.11658z" fill="#ffffff" stroke="none" stroke-width="0.5"></path>
      <path d="M366.40001,349.23897c-1.20902,0 -1.83335,-0.58469 -2.15575,-1.18855c-0.08142,0.12951 -0.16283,0.25902 -0.24425,0.38853l-0.63043,-3.49543c-0.70677,0.22782 -1.47473,0.34634 -2.16959,0.59543v0l-1.00417,-3.57965c0.43059,-0.75353 0.83509,-1.49249 1.21984,-2.22784c0.13777,-0.18722 0.26847,-0.37668 0.38016,-0.57214l4.4792,-4.42751c0.13249,0.73596 0.26498,1.47192 0.39747,2.20789l0.23018,-0.24968c0.18501,0.68999 0.37002,1.37997 0.55503,2.06996c-0.10881,0.23744 -0.21868,0.47389 -0.32978,0.70961c0.17611,0.97829 0.35223,1.95659 0.52834,2.93488l-0.4596,0.13004l0.35332,0.2574c-1.10191,1.75284 -2.20382,3.50567 -3.30573,5.25851c-0.34425,-0.6448 -0.34425,-1.31145 -0.34425,-1.31145v-1.99678c-0.17125,0.07704 -0.34882,0.1428 -0.53043,0.20133l-0.03089,-0.17125l-2.1387,0.76668v0c-0.33472,-1.19322 -1.11941,-2.34574 -1.00417,-3.57965c0.07903,-0.84616 0.69978,-1.52109 1.21984,-2.22784c1.13922,-2.17731 2.10534,-4.32293 3.06314,-6.72099c0,0 0.92848,-2.32119 3.24967,-1.39271c2.32119,0.92848 1.39271,3.24967 1.39271,3.24967c-0.54059,1.34956 -1.08712,2.63483 -1.66348,3.89255c0.48077,1.793 0.96153,3.58599 1.4423,5.37899v2.60001c0,0 0,2.5 -2.5,2.5z" fill="#905823" stroke="none" stroke-width="0.5"></path>
      <path d="M368.50002,357.93895c0,2.5 -2.5,2.5 -2.5,2.5l-1.19055,-0.12829c-2.72348,-0.92642 -4.81003,-1.1264 -7.65592,-0.69683c0,0 -2.47487,0.35355 -2.82842,-2.12133c-0.35355,-2.47487 2.12133,-2.82842 2.12133,-2.82842c3.6109,-0.49252 6.4787,-0.23282 9.94412,0.90315l-0.39056,-0.12829c0,0 2.5,0 2.5,2.5z" fill="#905823" stroke="none" stroke-width="0.5"></path>
      <path d="M366.82537,368.54527c-0.60633,2.42536 -3.03169,1.81903 -3.03169,1.81903l-1.24243,-0.33776c-3.72543,-0.37257 -7.23277,-0.66464 -10.83806,-1.68379c0,0 -2.4038,-0.68682 -1.71698,-3.09063c0.68682,-2.4038 3.09063,-1.71698 3.09063,-1.71698c3.30544,0.95606 6.53757,1.17382 9.96193,1.51622l1.95758,0.46223c0,0 2.42536,0.60633 1.81903,3.03169z" fill="#905823" stroke="none" stroke-width="0.5"></path>
      <path d="M333.20724,335.22936c1.16536,-1.3256 2.30116,-2.79426 2.82106,-4.48097c0,0 0.79056,-2.37171 3.16227,-1.58115c0.01722,0.00574 0.03428,0.01156 0.05117,0.01747c0.45799,-0.57626 1.16497,-0.94575 1.95826,-0.94575c1.38071,0 2.5,1.11929 2.5,2.5c0,0.46716 -0.12813,0.90438 -0.35117,1.27846l-1.57819,2.76187l-0.0762,-0.04354l-0.02676,0.2085c-0.47085,0.5855 -0.70312,1.55812 -1.34415,1.86749l-1.32883,2.32544c-0.42441,0.77571 -1.24811,1.30178 -2.19468,1.30178c-0.31115,0 -0.60903,-0.05684 -0.88381,-0.16071l-0.40746,0.47537c-0.45858,0.54156 -1.1435,0.88536 -1.90872,0.88536c-1.38071,0 -2.5,-1.11929 -2.5,-2.5c0,-0.52532 0.16202,-1.01279 0.43883,-1.41518l1.58102,-2.37155l0.05694,0.03796z" fill="#905823" stroke="none" stroke-width="0.5"></path>
      <path d="M334.58672,354.81911c-2.08014,1.38673 -3.46687,-0.69342 -3.46687,-0.69342l0.59336,-0.18293c-1.77848,-0.50851 -3.54884,-1.04757 -5.30379,-1.63211c0,0 -2.37171,-0.79058 -1.58113,-3.16228c0.79058,-2.37171 3.16228,-1.58113 3.16228,-1.58113c1.68598,0.56245 3.38719,1.07999 5.09623,1.5679l2.19333,2.2171c0,0 1.38673,2.08014 -0.69342,3.46687z" fill="#905823" stroke="none" stroke-width="0.5"></path>
      <path d="M331.3,366.33898c0,2.5 -2.5,2.5 -2.5,2.5h-0.79999c-3.10817,-0.00657 -6.02806,-0.43417 -9.1101,-0.81932c0,0 -2.4807,-0.31008 -2.17061,-2.79078c0.31008,-2.4807 2.79078,-2.17061 2.79078,-2.17061c2.87521,0.35948 5.59323,0.78766 8.48994,0.78071h0.79999c0,0 2.5,0 2.5,2.5z" fill="#905823" stroke="none" stroke-width="0.5"></path>
      <path d="M119.53064,53.17947v-45h240.93872v45z" fill="#ffffff" stroke="none" stroke-width="0"></path>
      <text transform="translate(132.54956,38.98335) scale(0.69199,0.69199)" font-size="40" xml:space="preserve" fill="#000000" stroke="#000000" stroke-width="3" font-family="&quot;JetBrains Mono&quot;, Sans Serif" font-weight="normal" text-anchor="start">
        <tspan x="0" dy="0"> !</tspan>
      </text>
      <path d="M167.50943,152.31067l-2.80414,-0.97566c-3.63436,-3.01103 -3.49861,-4.22375 -4.07299,-8.59559c-0.14481,-1.10225 -1.01858,-2.15071 -0.79347,-3.2394c0.25435,-1.23006 1.406,-2.08187 2.109,-3.1228c0,0 0.12671,-0.15839 0.35307,-0.34884c-0.88524,-1.16322 -1.87243,-2.29754 -2.96865,-3.40139c-4.67067,-4.70317 -12.45488,-7.31953 -18.41704,-9.86991c-4.28757,-1.84126 -8.63183,-2.48598 -13.00578,-3.92615l-1.20944,0.12829c0,0 -0.31566,0 -0.72265,-0.11217c-1.42589,0.59913 -2.64509,-0.62007 -2.64509,-0.62007h-0.00001c-3.67157,-3.68203 -7.68697,-5.95558 -12.52969,-6.64477c0.50204,0.6732 0.88279,1.4122 1.05651,2.04948c0.99877,3.66407 0.01661,6.10915 -3.53155,7.58659c-2.72162,1.13327 -7.01547,-0.32186 -9.61808,-1.18737c-0.5805,-0.19305 -1.46477,-0.43903 -2.13627,-0.77597c0.15666,0.64791 0.23257,1.31899 0.22674,1.98234c-0.02595,2.9512 -0.46645,3.84241 -1.32819,6.4125c-1.78307,5.31787 -5.50103,9.73893 -7.32592,15.1078c-1.40325,2.12276 -3.13117,4.75273 -3.85306,7.22609c-0.52305,1.79208 -0.16947,3.6385 -0.29903,5.45276c-0.49144,6.88212 0.53719,13.07895 1.57401,19.82232c0.62158,4.04269 -0.16583,9.11533 1.77807,12.90208c0.24531,0.47788 0.5,0.94026 0.76016,1.39226c2.00637,-0.25091 2.59786,1.81932 2.59786,1.81932c3.80341,13.81059 23.43831,14.25802 34.93445,14.99063c3.91433,0.24945 7.53692,0.36549 11.34036,-0.74885c9.08952,-1.29854 16.72037,-5.23583 22.10335,-12.6306c0.92964,-1.27708 2.30163,-2.25258 2.99655,-3.67111c2.45065,-5.00251 3.08677,-10.78181 4.17198,-16.1532c0.58688,-2.90486 1.613,-5.26593 1.97163,-8.2319c0.61778,-4.32526 0.80692,-8.5043 0.39656,-12.4987c-0.61364,0.0472 -1.10926,-0.11801 -1.10926,-0.11801zM164.76117,140.37791c-0.06786,0.58162 0.70007,0.98479 0.80657,1.56059c0.48821,2.63942 -0.68217,3.39418 1.52699,5.00441l0.58336,0.18249c-0.63007,-2.43665 -1.53558,-4.79108 -2.7609,-7.0533c-0.08394,0.08429 -0.1417,0.18305 -0.15602,0.30581zM175.18609,175.54946c1.91202,-1.28889 2.12099,-4.66291 2.7692,-6.47786c0.03329,-0.09321 0.06675,-0.18641 0.10034,-0.27961c-1.33862,0.53052 -2.74251,0.91606 -4.06716,1.48378l-2.0457,0.68375c-0.28934,1.03663 -0.57288,2.08556 -0.79328,3.19962c-0.25823,1.30524 -0.49685,2.63556 -0.74269,3.97473c1.67323,-0.80138 3.39925,-1.65412 4.77929,-2.58441zM184.75146,164.02924c-0.95509,4.65405 -2.46501,12.39538 -6.53755,15.49921c-2.07148,1.57875 -5.6092,3.04817 -7.99585,4.24657l-0.1503,0.33172c0,0 -0.41987,0.41986 -1.05498,0.64572c-0.61377,2.37307 -1.39272,4.6887 -2.49129,6.85349c-0.24902,0.4907 -2.93597,3.68553 -3.40342,4.32889c-1.18192,1.62671 -2.4662,3.11678 -3.84392,4.47256c2.76343,-0.3758 5.14722,0.83655 7.92144,-0.73006c2.58073,0.90668 5.06322,2.05176 7.68936,3.19764h-0.00001l2.27679,1.79232c0,0 1.75571,1.40456 0.60508,3.21468c0.44762,2.26109 0.23505,4.71502 0.50089,7.11675c0.51066,4.61354 2.08632,9.55299 1.61352,14.3059c-0.10883,1.0941 -0.66019,2.10944 -0.79999,3.20001c-0.64487,5.03062 0.01873,10.61511 0.01873,15.69455c0,3.06368 -0.2021,5.4901 0.76771,8.39953c0.02032,2.26676 0.03228,4.53363 0.03228,6.80048v1.59998c0,0 0,0.91155 -0.55042,1.63379c0.27908,1.56753 0.50403,3.1172 0.69987,4.5951c0.22409,1.69101 0.73543,3.37256 0.64839,5.07613c-0.18376,3.59692 -1.7829,7.05326 -3.03751,10.33947l-0.32589,0.85027c0,0 -0.04792,0.12502 -0.1505,0.3061c0.13036,0.23627 0.1878,0.40859 0.1878,0.40859l0.00001,-0.00001c1.19989,3.73648 0.41179,7.00612 0.89599,10.79012c0.10703,0.83644 0.69022,1.56388 0.79999,2.39996c0.61264,4.66654 -0.56631,12.95725 -5.89335,14.83358c-1.18419,0.41711 -2.44886,-0.55521 -3.67329,-0.83281l-0.94658,-0.23606c0.46781,2.77146 0.95034,5.53461 1.28209,8.26741c1.53122,12.61348 3.00009,25.35014 5.97966,37.72665c0.4121,1.71179 1.93877,3.01187 2.37651,4.71729c0.49958,1.94629 0.12295,4.07591 0.67241,5.998c0.86678,1.52995 -0.49736,2.89414 -0.49736,2.89414l-1.98105,1.91245c-6.87032,4.51216 -15.33977,5.00562 -23.18412,6.7461c-2.19706,0.48748 -4.4576,0.63299 -6.69712,0.85497c-1.32988,0.13182 -2.61353,0.9993 -3.93216,0.7821c-0.78292,-0.12896 -1.44432,-0.59269 -2.0954,-1.08482l-0.64961,0.2121c-0.10794,-0.335 -0.24359,-0.65843 -0.39632,-0.97477c-0.07232,-0.04693 -0.1452,-0.09231 -0.21879,-0.13574c0,0 -1.3307,-0.88714 -1.15388,-2.30663c-0.21482,-0.39479 -0.4118,-0.79729 -0.56905,-1.21674c-1.69874,-4.53143 -1.99307,-9.55537 -2.57159,-14.25129c-0.44207,-3.58828 -1.9868,-6.57765 -3.08336,-9.89406c-1.51177,-4.57216 -2.03256,-9.44987 -2.78422,-14.25503c-0.4241,3.23995 -0.79581,6.49661 -1.17251,9.76984c-0.54922,4.77221 -1.91057,9.45802 -2.38711,14.28c-0.51458,5.20683 -1.15126,10.53147 -2.54506,15.6238c0.69372,1.46526 -0.57861,2.73768 -0.57861,2.73768l-0.17576,-0.06256c-0.41471,1.07104 -1.60151,1.46663 -1.60151,1.46663l-2.40002,0.79998c-7.11697,2.3581 -15.78162,2.38486 -23.25595,1.6261c-2.54983,-0.25885 -4.99119,-1.21785 -7.53504,-1.53009c-5.60444,-0.68789 -10.72912,-0.14102 -15.91761,-2.63168c0,0 -0.76095,-0.38048 -1.17308,-1.14144l-2.48057,-1.0852c0.87982,-2.63945 1.69564,-5.20529 2.3714,-7.90841c1.55829,-4.6747 2.49245,-9.23552 3.11904,-14.00644c0.34735,-2.64479 1.71376,-5.05332 2.4849,-7.60692c0.4619,-1.52956 1.30798,-7.50633 1.56124,-8.65344c2.82938,-12.81529 7.41227,-25.29886 9.56915,-38.24522c0,0 0.02805,-0.16827 0.11344,-0.40956c-0.89395,-0.64676 -1.76543,-1.37618 -2.61524,-2.21166c0,0 -0.33755,-0.33755 -0.57014,-0.86515c-4.87182,0.13553 -10.13736,0.57518 -14.86254,-0.03486c-3.72876,-0.4814 -7.57974,-2.70905 -10.95627,-4.15803c-9.4787,-4.06761 -17.16931,-13.31976 -15.91099,-24.3102c0.44074,-3.84954 1.24681,-7.83365 2.49601,-11.59011c1.8692,-5.60739 2.51537,-10.93993 3.95546,-16.6511c1.81856,-7.21215 5.71976,-13.95848 8.05156,-20.96965c1.60334,-4.82088 3.01525,-9.79395 4.62437,-14.67074c0.05358,-0.58332 0.34436,-1.03603 0.64917,-1.35815c0.28012,-0.35278 0.69569,-0.71028 1.27978,-0.84096l0.82463,-0.39893c2.92503,-1.93202 6.08546,-2.66101 9.14211,-4.19116c3.98798,-1.99637 7.50795,-4.76099 11.30942,-7.07841c0.77728,0.33385 1.37823,0.81558 1.89204,1.37692c-1.12379,-1.95377 -2.44952,-3.72199 -3.5026,-5.86882h0.00002c-2.16119,-4.40587 -1.50458,-9.63841 -2.22193,-14.29793c-1.8574,-12.06467 -4.26577,-24.66587 3.02193,-35.49884c2.09153,-6.4168 8.21594,-12.26684 8.14588,-19.27969c-0.02726,-2.72813 -1.90261,-5.77616 1.89326,-7.91031c1.31326,-0.73835 2.91659,0.75836 4.36336,1.17869c2.35086,0.68299 4.36286,1.53846 6.82052,1.81599c0.78735,0.08891 2.08414,0.54991 2.3695,-0.18927c0.56985,-1.47609 -2.6892,-2.87774 -3.11449,-3.54925c-0.04969,-0.07846 -0.09801,-0.15765 -0.14507,-0.2375l-0.03934,0.03147l-1.58757,-1.98445c-0.35028,-0.43024 -0.56027,-0.97924 -0.56027,-1.57729c0,-1.38071 1.11929,-2.5 2.5,-2.5h3.2c7.3956,0.01562 13.40384,2.66815 18.67965,7.66334c0.30466,-0.06335 0.52034,-0.06335 0.52034,-0.06335l2.79056,0.12829c4.4749,1.51344 8.9794,2.18535 13.39425,4.07385c6.57872,2.82518 14.78979,5.76563 19.98298,10.93011c0.73946,0.73537 1.10381,1.77679 1.76557,2.58279c1.88751,2.29894 3.90191,4.0954 5.42892,6.73014c1.2768,2.20301 2.18273,4.57578 2.79916,7.04189c0.37359,0.25948 0.59076,0.53093 0.59076,0.53093c3.43034,4.34722 12.1832,10.09443 11.05703,16.29637c0.42775,0.82811 0.24224,1.75565 0.24224,1.75565zM179.82212,161.60712c0.14923,-1.20011 -1.07303,-2.1699 -1.68439,-3.21334c-1.14736,-1.95823 -2.64211,-3.45197 -4.1955,-4.89487c0.14636,3.98013 -0.19206,7.98996 -0.71584,11.74827c2.16828,-0.69968 6.38682,-1.96003 6.59573,-3.64006zM89.5,201.95922l-1.57171,-2.30942c-0.09908,-0.2999 -0.20582,-0.59159 -0.3192,-0.87631c-4.2061,2.4324 -8.00167,5.5179 -12.36442,7.69701c-2.83899,1.41802 -5.76038,1.99048 -8.45787,3.80883l-0.93443,0.478c-1.55105,4.74353 -2.92323,9.56976 -4.48766,14.25322c-2.30148,6.88998 -6.19172,13.53819 -7.94844,20.63032c-1.4357,5.79611 -2.14161,11.2403 -4.04454,16.94889c-1.1835,3.54165 -1.80386,7.189 -2.30398,10.80991c-1.1861,8.58742 5.76057,15.83898 12.889,18.88988c2.98116,1.27591 6.53711,3.44599 9.84378,3.84198c4.87796,0.58416 10.28673,-0.03605 15.19904,0c6.08078,-2.10856 12.03147,-0.97891 18.19786,-2.35859c4.766,-1.06635 8.82034,-4.00298 13.41203,-5.5454l2.3906,-0.12829c0,0 2.5,0 2.5,2.5c0,0.26069 -0.02719,0.49419 -0.07588,0.70335l2.96267,0.4165c2.88322,2.13615 3.67246,0.82737 7.10774,0.39888c2.96178,-0.36943 4.63049,-0.73896 7.5149,-1.49049c0.46329,-0.1207 1.05022,0.10459 1.42281,-0.19604c0.26916,-0.21717 0.09312,-0.68692 0.10003,-1.0327c0.04505,-2.25417 0.19691,-3.70362 -0.61855,-5.78812c-0.49515,-1.26572 -1.98299,-2.31079 -1.80159,-3.65776c0.19722,-1.46445 1.84082,-2.31201 2.76123,-3.46801c1.38147,-4.47377 -1.01562,-6.445 -3.15352,-10.09892c-0.72244,-1.23474 -1.98732,-2.35648 -2.01984,-3.78668c-0.04067,-1.78841 2.18929,-3.02364 2.39996,-4.80006c0.15778,-1.33047 -1.98287,-1.72904 -2.46779,-2.23225c-0.51092,-0.53019 -0.36668,-1.6087 -1.01184,-1.96354c-0.59638,-0.32801 -1.34075,0.25866 -2.02037,0.29582c-2.2733,0.1243 -2.63843,-0.43736 -4.50161,0.54579c-0.8971,0.47337 -4.04814,2.93694 -4.79996,3.2c-0.38668,0.1353 -0.79474,0.30694 -1.21089,0.47264c-0.26562,0.60757 -0.74002,0.94794 -1.1882,1.13863l-0.00001,-0.00007c-0.12727,0.17655 -0.25455,0.35311 -0.38182,0.52966l-0.85932,-0.01231l0.13242,0.39725l-2.34466,0.78159c-0.26421,0.09499 -0.54904,0.14676 -0.84597,0.14676c-1.38071,0 -2.5,-1.11929 -2.5,-2.5c0,-0.88153 0.45625,-1.65649 1.1455,-2.10163l0.77365,-0.51577c-0.47552,-1.48628 1.26694,-2.68451 1.28087,-4.58263c0.00524,-0.71394 -0.66466,-1.29308 -0.76771,-1.99957c-0.14561,-0.99819 0.02307,-2.01738 0.0346,-3.02606c-2.65635,-5.06877 -4.63089,-10.11562 -9.42867,-13.74624c-1.34641,-1.01887 -3.25176,-1.04504 -4.93819,-1.12815c-0.48624,-0.02396 -1.33933,-0.22457 -1.86838,-0.18519c-0.00288,0.02251 -0.00573,0.04503 -0.00855,0.06754l-0.18717,1.49252c1.97649,8.61178 4.51581,16.68994 4.5641,25.72517c0,0 0,1.19988 -0.83125,1.93712c0.02032,0.14388 0.0312,0.29792 0.0312,0.46285c0,2.5 -2.5,2.5 -2.5,2.5c-5.53012,0 -10.28319,0.92055 -15.6945,1.5813c-3.24192,0.39586 -6.72388,0.19472 -10.09302,0.08009c-1.02474,0.10309 -2.06073,0.26911 -3.01247,-0.06135h-3.19998c-1.38071,0 -2.5,-1.11929 -2.5,-2.5c0,-1.38071 1.11929,-2.5 2.5,-2.5h3.19998c0.38854,-0.13491 6.99653,0.10945 7.59952,0.03229c1.65494,-0.21179 3.36377,-0.46665 5.07266,-0.75491c0.04985,-0.76736 0.4477,-1.36413 0.4477,-1.36413c1.07108,-1.55582 1.44895,-3.4889 2.19384,-5.22468c0.39164,-0.91261 1.19251,-1.60064 1.6405,-2.48695c1.45998,-2.88844 2.29307,-6.39405 3.23618,-9.63008c0.04097,-0.19987 0.09345,-0.39261 0.16814,-0.56949c0.15176,-0.50677 0.30737,-1.00548 0.46975,-1.4926l0.78176,-2.34533c0.13838,-0.44996 0.40034,-0.84579 0.74627,-1.14789c-0.08231,-0.46502 -0.03688,-0.82729 -0.03688,-0.82729l0.11351,-0.90519c-0.22236,-0.77211 -0.31335,-1.5435 -0.11082,-2.31556c0.00084,-0.0032 0.00168,-0.0064 0.00252,-0.00959c-0.08727,-0.67639 0.10364,-1.24913 0.10364,-1.24913c0.39142,-1.11754 0.6851,-2.3358 0.90392,-3.59733c0.1408,-1.12129 0.28543,-2.27156 0.40515,-3.22047c0.13938,-1.64444 0.18868,-3.28116 0.1949,-4.79214l0.28387,-0.3275l-0.18786,-0.06262l0.78179,-2.3453c0.31418,-1.02155 1.26534,-1.7641 2.38993,-1.7641c1.38071,0 2.5,1.11929 2.5,2.5c0,0.1348 -0.01067,0.26711 -0.03121,0.39614l-0.69828,4.88788c0.06981,1.54913 -0.10675,3.08832 -0.35704,4.62457c1.56902,-0.14142 3.23118,0.05513 4.7609,0.45829c8.36201,2.20377 12.14739,11.77591 15.45877,18.65871c0.02132,2.07822 0.85397,4.09615 0.86687,6.17444c0.00151,0.24325 -0.0525,0.57745 -0.14231,0.92873c0.38347,-0.21817 0.77351,-0.42088 1.05554,-0.6089c3.26331,-2.17554 5.4059,-2.9513 9.38676,-2.81984c1.46241,0.04829 3.05895,-0.33404 4.37966,0.29582c1.07781,0.51401 1.3331,2.00281 2.1881,2.83639c0.76535,0.74618 2.0169,0.96714 2.61902,1.85032c0.7758,1.13794 1.26514,2.54104 1.31322,3.91743c0.04252,1.21718 -0.50953,2.40904 -1.05419,3.49839c-0.2791,0.5582 -1.30122,0.67915 -1.34577,1.30165c-0.03701,0.51715 0.85268,0.61124 1.1801,1.01324c0.14811,0.18185 3.35417,5.06447 3.36567,5.08834c1.76519,3.66402 1.136,6.76757 -0.11916,10.41271c-0.67961,0.44401 -1.83543,0.54613 -2.03882,1.33204c-0.1508,0.58271 1.14063,0.59843 1.39848,1.1423c1.04655,2.20732 1.39074,6.32027 0.98143,8.61178c-1.11126,6.22137 -8.40311,6.25971 -13.36228,6.88088c-3.35877,0.4207 -3.65205,1.74821 -7.42996,0.71144c-1.16059,-0.3185 -2.04151,-1.2751 -3.06226,-1.91266l-0.21325,0.4199c0,0 -2.5,0 -2.5,-2.5c0,-0.26086 0.02721,-0.49451 0.07597,-0.70376l-0.7854,-0.12448c-4.73138,1.56309 -8.86272,4.56646 -13.78793,5.65455c-4.93116,1.0894 -9.70267,0.74557 -14.51297,1.4917c3.39138,2.54562 7.33304,3.52429 11.5009,4.91032l1.92748,0.93561c0,0 2.23609,1.118 1.11809,3.35408c-1.118,2.23609 -3.35408,1.11809 -3.35408,1.11809l-1.2726,-0.66436c-2.90255,-0.96995 -5.62566,-1.81877 -8.1836,-2.97607c-2.26135,12.56101 -6.65554,24.70325 -9.3907,37.17018c-0.56368,2.56926 -0.87346,6.37981 -1.63878,8.94654c-0.83722,2.80788 -1.98804,4.01889 -2.31508,6.7931c-0.59549,5.05141 -1.64238,9.87786 -3.28098,14.79349c-0.3653,1.46124 -0.77223,2.88635 -1.20765,4.30404c4.39267,2.28077 9.5425,1.51123 14.40781,2.1293c2.4194,0.30735 4.73729,1.24558 7.16445,1.48408c6.78482,0.6667 14.77736,0.78228 21.24451,-1.38807l1.19278,-0.39758c1.54743,-5.13065 2.17193,-10.55295 2.70634,-15.83693c0.49663,-4.91041 1.8536,-9.66224 2.41281,-14.51993c1.27025,-11.03416 2.52352,-21.87334 5.7652,-32.53467c-0.03196,0.01101 -0.06395,0.02186 -0.09599,0.03253l-1.59054,0.12829c0,0 -0.86544,0 -1.57793,-0.5092c-3.75168,0.76823 -7.50461,1.29606 -11.22206,1.30918c0,0 -2.5,0 -2.5,-2.5c0,-2.5 2.5,-2.5 2.5,-2.5c9.96687,0.04105 20.45337,-4.05338 30.19876,-6.07498l0.13883,0.03929l-0.00549,-0.05599l2.99101,-0.29319c0.09091,-0.01002 0.18329,-0.01516 0.27686,-0.01516c1.38071,0 2.5,1.11929 2.5,2.5c0,1.12459 -0.74254,2.07574 -1.76408,2.38993l-2.34533,0.78182l-0.10116,-0.30345c-2.4421,1.70013 -5.11886,3.00659 -8.21669,3.5866c-1.17231,0.21949 -2.37925,0.03278 -3.57748,-0.01526c-0.01898,0.43725 -0.12355,0.75094 -0.12355,0.75094c-1.36925,4.10461 -2.40502,8.23814 -3.23372,12.40028c0.59852,0.51315 0.83367,1.21856 0.83367,1.21856c2.46342,7.45953 2.2931,15.74523 4.79304,23.17928c1.2205,3.62939 2.81966,6.98214 3.31654,10.90587c0.53892,4.2557 0.68668,8.83883 2.22846,12.94878c0.32561,0.868 0.7938,1.67508 1.25503,2.48469c0.02033,0.00364 0.04098,0.00655 0.06195,0.00869c0.86215,0.08799 1.60806,-0.70946 2.46787,-0.81799c2.03324,-0.25665 4.10239,-0.29977 6.10281,-0.745c7.10752,-1.58191 15.42797,-1.85072 21.61593,-6.05382l0.00466,-0.00492l-0.05401,0.00308c0,0 -0.72568,-1.45137 0.16154,-2.60016c-0.04811,-0.8756 -0.11399,-1.74841 -0.3182,-2.59341c-0.42685,-1.76621 -1.97016,-3.12322 -2.42354,-4.88281c-3.22445,-12.51443 -4.55697,-25.61098 -6.11072,-38.4074c-0.81639,-6.72362 -2.43785,-13.55467 -2.72817,-20.31695c-1.33375,0.45224 -2.6914,0.83344 -3.95426,1.25442l-2.39058,0.1283c0,0 -2.5,0 -2.5,-2.5c0,-2.5 2.5,-2.5 2.5,-2.5l0.80937,0.1283c2.32022,-0.77345 5.34042,-1.36226 7.32883,-2.85642c3.08778,-2.32026 5.656,-6.62111 7.15208,-10.12862c0.54724,-1.283 1.42128,-2.54442 1.41157,-3.93922c-0.00286,-0.41115 -1.33756,-4.3065 -1.47357,-4.71348c0,0 -0.79061,-2.3717 1.58109,-3.1623c1.85016,-0.61675 2.73814,0.69093 3.0392,1.29588c0.02643,-0.21546 0.04467,-0.42555 0.05366,-0.62916c0.11173,-2.53256 -0.1094,-5.01753 -0.60224,-7.44259v1.14757c0,0 0,2.5 -2.5,2.5c-2.5,0 -2.5,-2.5 -2.5,-2.5v-4.59998c0.06043,-5.30533 -0.63862,-5.9905 -2.77491,-10.94938c-0.13477,-0.31284 -1.37576,-3.2415 -2.41878,-5.56499c-1.11739,-1.38443 -2.2787,-2.72008 -3.46211,-4.00254c-0.14242,0.72667 -0.64818,2.01691 -2.44417,2.01691c-2.5,0 -2.5,-2.5 -2.5,-2.5v-3.20001c0,-0.37481 -0.0057,-6.50824 0.01873,-6.70542c0.29987,-2.42034 1.31584,-4.71793 1.59341,-7.14093c0.59015,-5.15149 0.30126,-10.29448 0.92109,-15.40537c-0.17768,-0.14307 -0.33539,-0.30994 -0.46827,-0.49578c0.48748,-0.05151 0.97776,-0.13811 1.47358,-0.26872c0.74894,-3.50464 0.53532,-6.77434 -2.03091,-9.39019c-5.49551,4.89073 -12.32557,7.81703 -19.98627,8.91145c-4.25202,1.18758 -8.29299,1.11902 -12.65964,0.85115c-10.46425,-0.64191 -24.37447,-1.54605 -32.87164,-8.58059c-1.73971,0.85162 -2.99012,-0.81559 -2.99012,-0.81559zM164.40381,214.10628l0.09619,0.1132c0,0 0,1.25693 -0.89125,1.98831c-0.19729,3.80382 -0.08712,7.63399 -0.52092,11.43771c-0.28082,2.46231 -1.29599,4.80042 -1.60654,7.25916c-0.12182,0.96445 -0.12276,1.93623 -0.09062,2.91008c0.59133,0.23091 0.97709,0.61668 0.97709,0.61668c0.01204,0.01205 0.02408,0.02411 0.03613,0.03617c1.5007,1.4932 3.58383,2.39565 4.87029,4.07708c0.43901,0.5738 1.01659,1.65101 1.62214,2.90266c1.87136,2.1992 3.65109,4.50969 5.15837,6.85676c-0.12267,-2.41612 0.04531,-4.87442 0.04531,-7.30492c0,-4.25616 -0.49666,-8.88426 0.01873,-13.10544c0.26441,-2.16554 1.11202,-4.333 0.81354,-6.49411c-0.11537,-0.83534 -0.70687,-1.56188 -0.79999,-2.39999c-0.45892,-4.13033 -0.46631,-7.94704 -0.81354,-12.095c-0.05225,-0.62421 -0.61241,-3.30029 -1.43623,-3.91868c-0.00464,-0.00349 -0.00929,-0.00696 -0.01395,-0.01041c-0.51666,-0.21933 -1.02701,-0.44004 -1.53366,-0.65916c-0.80899,-0.18535 -1.68562,-0.22831 -2.51778,-0.36538c0.1734,-0.082 0.35666,-0.16108 0.55143,-0.23697c0.13002,-0.02504 0.25946,-0.05019 0.38834,-0.07547c-1.27372,-0.53954 -2.54111,-1.04879 -3.84474,-1.47908c0.78041,3.04729 0.50165,6.38647 -0.50833,9.9468zM170.89901,310.59885c2.63018,1.79098 3.01223,-4.19303 3.21317,-5.84604c0.20168,-1.65919 -0.57683,-3.29416 -0.77987,-4.95318c-0.24983,-2.04131 -0.04894,-3.93771 -0.06523,-5.82977c-1.68292,2.83976 -3.78806,5.44765 -6.2276,7.3226c0.06054,0.29743 0.06054,0.50668 0.06054,0.50668c-0.00858,2.64836 0.24538,5.32208 0.61263,8.0013zM91.88473,256.33173c-0.21079,0.56219 -0.41691,1.12704 -0.6372,1.6843l0.56192,-0.18857c0,0 1.98425,-0.66141 2.92783,1.04066c1.62254,-0.16712 3.26411,-0.29158 4.96319,-0.34301c0.02634,-5.42617 -0.91075,-10.70756 -2.04016,-15.98795c-0.0972,0.21738 -0.18357,0.43738 -0.23402,0.66466c-0.67837,3.05572 -1.32497,6.14757 -2.47881,9.05725l-0.77574,2.33064c0,0 -0.5917,1.7751 -2.287,1.74202z" fill="#000000" stroke="none" stroke-width="0.5"></path>
      <path d="M170.37512,178.17256c0.24584,-1.33917 0.46736,-2.69716 0.72559,-4.0024c0.2204,-1.11406 0.51898,-2.21091 0.80832,-3.24754l2.07564,-0.6967c1.32465,-0.56772 2.76401,-0.94209 4.10263,-1.47261c-0.03359,0.0932 -0.06639,0.18695 -0.09968,0.28016c-0.64821,1.81495 -0.86871,5.27257 -2.78073,6.56146c-1.38004,0.93029 -3.15854,1.77625 -4.83177,2.57763z" fill="#bd7614" stroke="none" stroke-width="0.5"></path>
      <path d="M173.20188,165.29076c0.52378,-3.75831 0.86655,-7.85747 0.72019,-11.8376c1.55339,1.4429 3.111,2.95638 4.25836,4.91461c0.61136,1.04344 1.83229,2.06733 1.68306,3.26744c-0.20891,1.68003 -4.49333,2.95588 -6.66161,3.65556z" fill="#bd7614" stroke="none" stroke-width="0.5"></path>
      <path d="M328.86395,181.74119l2,-3.99999c1.11224,-2.22452 3.70255,-5.80432 3.36833,-8.48153c-0.35633,-2.85427 -5.52477,-5.45972 -6.92831,-8.00573c-1.75098,-3.17626 -2.16332,-6.11803 -1.8638,-9.19472h-0.44015v-3.2c0,-1.38071 1.11929,-2.5 2.5,-2.5c0.69036,0 1.31536,0.27982 1.76777,0.73223l1.78263,1.78263c2.31193,1.12421 4.39749,2.3868 6.84018,3.21342c0.05377,0.0182 2.79733,1.11149 3.32644,0.91845c1.24641,-0.45474 0.51368,-2.64353 1.13825,-3.8141c0.9234,-1.73063 1.55074,-4.22706 3.43286,-4.77967c1.62464,-0.47701 2.99735,1.5813 4.43969,2.46822c3.59986,2.21362 6.4137,3.79637 10.37486,4.18605c-0.01962,-0.33703 -0.05763,-0.66634 -0.12392,-0.99047c1.09253,-0.48166 2.24883,-0.85354 3.52086,-1.04367c0.59016,-0.08821 1.1619,-0.15967 1.72045,-0.2163c0.03153,0.22808 0.06898,0.4498 0.11199,0.66535c4.21156,-0.68077 8.93297,-0.45516 13.13735,0.33554l-0.00006,-0.00003c1.28163,0.24104 1.98462,0.73749 2.93311,0.9502c0.21411,-0.0023 0.3511,0.01727 0.3511,0.01727c6.2227,1.00555 13.82402,7.12118 17.06318,13.68128c0.85627,0.1566 1.69495,0.35438 2.5013,0.64694c0.43574,0.1581 0.74251,0.50992 1.02794,0.89673c-0.89463,0.93732 -1.66954,1.88733 -1.97615,2.94575c-0.02139,0.07386 -0.04058,0.14835 -0.05764,0.22342c0.0987,0.80253 0.09847,1.58216 0.04443,2.35493c0.65188,3.08921 3.21266,6.59143 3.9926,9.04169c1.35933,4.27047 1.89577,8.66461 1.95725,13.12515c0.57162,0.13192 1.18858,0.22373 1.85448,0.26824c0.01475,1.4131 -0.01954,2.81601 -0.17302,4.1779c-0.38207,3.39016 -2.00744,6.3346 -2.40659,9.65912c-0.51072,4.25381 -1.09848,8.23008 -2.48093,12.39353c-0.8807,3.52259 -2.68749,7.20144 -3.11904,10.80648c-0.61802,5.1627 -1.25222,10.24347 -2.67673,15.2357c0.54665,0.38351 1.62285,1.38952 0.90619,3.01801c0.1898,0.28469 0.3796,0.5694 0.5694,0.8541l0.2266,2.04358c0.0845,0.20024 0.11864,0.33683 0.11864,0.33683l0.77493,3.10737c1.89374,6.52287 -2.06131,10.36561 -6.06697,15.08391c-0.17486,0.20597 -0.32919,0.43013 -0.47462,0.66187c0.35909,0.71819 0.71819,1.43638 1.07728,2.15458l-0.00001,-0.00001l0.07041,0.10181c0.39806,-0.20291 0.79173,-0.41537 1.18009,-0.63979c5.42043,2.89816 8.18887,9.64565 11.17579,14.88178c2.9465,5.16525 5.32488,10.97632 5.92553,17.00847c0.12129,1.2181 -0.31937,2.4768 -0.05471,3.67197c0.51198,2.31202 2.13952,4.32109 2.44817,6.66892c0.74372,5.65748 -0.10827,10.98141 -2.09452,16.22291c-1.71466,1.21408 -5.13281,4.31225 -7.74349,3.19225c-1.05021,-0.45055 -1.57,-1.59754 -2.03668,-2.72737c-0.40405,0.85316 -1.08489,1.74522 -1.63886,2.18545c-1.3538,1.07585 -2.94802,2.54099 -4.65799,2.28366c-1.37036,-0.20622 -4.58581,-4.3875 -4.73178,-6.65408c-0.00574,0.00629 -0.01164,0.01201 -0.0177,0.01711c-1.21613,1.02248 -2.40416,2.3303 -3.95984,2.65324c-4.42582,0.91873 -6.58599,-2.94001 -8.40825,-6.1598c-0.67361,0.40021 -1.37117,0.7799 -2.09378,1.13788c-2.50008,1.2385 -2.07903,2.02869 -4.88702,3.2405c-0.0781,0.03371 -0.15764,0.06733 -0.23854,0.10083c-0.00072,0.00226 -0.00111,0.00341 -0.00111,0.00341c-1.08866,3.10821 -0.38164,5.73121 -0.68023,9.01569c-0.27113,2.98251 -1.33252,5.85763 -1.60368,8.84015c-0.24023,2.64238 0.2638,5.31934 0.00365,7.95984c-0.45637,4.63209 -0.95615,9.27279 -1.62374,13.79423c-0.48053,3.25454 0.40602,5.97857 -0.896,9.19009c-0.50339,1.24164 -0.60344,2.88206 -1.70991,3.63756c-1.1793,0.80523 -2.85653,0.18345 -4.26135,0.43962c-1.52789,0.27862 -2.93646,1.01283 -4.40984,1.50396c-4.17086,1.38202 -10.80755,3.09835 -14.55836,-0.60393c-0.86763,-0.85641 -0.93598,-2.25141 -1.40397,-3.37711l2.01766,-2.09329l-2.68202,-0.61537c1.67903,-3.358 3.36913,-6.61798 4.68859,-10.14188c0.89623,-2.39359 1.36186,-5.15328 2.50169,-7.43848c0.8442,-1.6925 2.4274,-2.96909 3.15952,-4.713c0.41803,-0.99574 0.33693,-2.15895 0.77657,-3.14534c1.12527,-2.52466 2.99672,-4.68529 4.01774,-7.25388c1.63889,-4.12297 3.28884,-8.27894 4.69103,-12.49212c-0.04298,-0.00001 -0.08559,-0.00022 -0.12784,-0.00063c-2.8136,-0.02713 -5.50666,-1.16858 -8.2822,-1.63067c-1.93924,-0.32286 -3.98436,-0.56306 -6.0275,-0.86964c-0.06481,0.20031 -0.12549,0.32166 -0.12549,0.32166c-4.36139,8.68277 -6.78629,17.49335 -9.43574,26.78095c-1.0079,3.53314 -2.06543,7.00206 -3.22861,10.49163c-0.24973,0.74921 -1.69443,5.19119 -1.98492,5.52692c-2.95821,3.41891 -6.46875,2.59538 -10.3863,2.55021c-3.20702,0.95309 -7.8501,0.73445 -9.80464,-2.88805c-0.6948,-1.28773 -0.19721,-2.91977 -0.29582,-4.37966l1.6743,-1.26841l1.03866,-1.55799c1.82128,-4.51083 4.47149,-8.26889 6.65895,-12.58817c4.55686,-8.99776 9.33213,-17.88456 13.88887,-26.90742c-2.86981,-1.12492 -4.25964,-1.25095 -4.74764,-4.64382c-1.5941,0.53771 -4.71422,1.57147 -5.14494,1.44368c-2.98697,-0.88624 -4.41263,-2.42238 -4.47444,-4.12248c-0.38238,0.27448 -0.78711,0.50642 -1.2335,0.65904c-0.12691,0.04339 -0.25486,0.08158 -0.38374,0.11516l0.01403,0.0421l-2.34466,0.78153c-0.26419,0.09499 -0.54901,0.14674 -0.84591,0.14674c-1.38071,0 -2.5,-1.11929 -2.5,-2.5c0,-0.29691 0.05176,-0.58173 0.14675,-0.84593l0.78153,-2.3446l0.10496,0.03499l0.02096,-0.3428c3.34013,-5.04147 8.75407,-9.4297 11.1595,-15.113c0.45988,-1.08655 0.32227,-2.39779 0.91079,-3.4204c1.04323,-1.81269 2.98518,-3.00169 4.01322,-4.82304c1.70977,-3.02916 2.781,-6.41237 5.02898,-9.13016c2.32981,-2.81673 4.95359,-5.65139 7.5611,-8.33875c0.21577,0.0056 0.43018,0.01458 0.64332,0.02678l0.49203,-1.47207c0.13783,-0.3222 0.27565,-0.6444 0.41348,-0.96661c-0.32439,-0.02948 -0.65143,-0.05245 -0.98138,-0.0684c-2.31579,-1.18856 -4.96442,-2.86637 -6.36299,-4.22823c-0.68884,-0.67076 -0.92023,-1.71999 -1.59997,-2.39996c-0.6637,-0.66393 -1.70209,-0.87261 -2.3503,-1.55167c-2.2067,-2.31168 -3.53062,-4.33713 -3.90317,-7.1388c-1.91388,0.15933 -2.48266,-1.83132 -2.48266,-1.83132l-0.88881,-3.29456c0.56619,-5.05418 0.82756,-9.87768 2.45452,-14.74527c0.51119,-4.22734 1.67045,-9.36822 0.43094,-13.57199c-0.30368,-1.02993 -1.02513,-1.92065 -1.2418,-2.97232c-0.17456,-0.84723 0.03364,-4.84552 -0.04477,-5.92546c-0.54314,-7.4811 0.18273,-14.07209 1.226,-21.37768c0.39741,-2.78292 0.36194,-5.31682 0.91084,-8.02561c-1.63956,-1.17123 -0.6792,-3.09195 -0.6792,-3.09195zM362.7,156.15921c-4.35969,-0.02118 -8.7081,-0.8447 -12.48949,-3.15822c-1.06046,-0.64881 -2.1967,-1.24798 -3.03834,-2.16295c-0.35511,-0.38604 0.07048,-1.83105 -0.36029,-1.53178c-0.44813,0.31133 0.3046,1.07941 0.23284,1.62032c-0.31044,2.34019 -1.23619,5.429 -3.66174,6.58589c-3.76618,1.79632 -8.96656,-1.05016 -12.84893,-3.24653c0.3228,1.48548 0.40388,3.18609 1.16203,4.59855c1.31661,2.45292 4.26708,3.88831 5.83206,6.13295c3.52881,5.06131 0.16564,10.26437 -2.19203,14.9798l-0.35382,0.70765c0.36323,0.42073 0.73409,0.83398 1.11359,1.23844c-0.06338,0.04542 -0.1235,0.09576 -0.17973,0.15199c-1.25333,1.25333 -0.41849,1.99033 -1.17943,3.22672c-0.10473,0.17016 -0.20606,0.34064 -0.3041,0.51141c-0.59046,2.67665 -0.46585,5.05417 -0.86485,7.84622c-0.98838,6.9161 -1.67213,13.13932 -1.17402,20.22232c0.06441,0.91592 -0.05582,1.84582 -0.1305,2.76962c0.13133,0.32847 0.24496,0.66134 0.30293,1.00782c0.15154,0.90562 0.25724,1.83587 0.32745,2.78367c0.23668,0.43552 0.4824,0.8685 0.61358,1.34109c1.4188,5.11137 0.29016,10.90006 -0.3691,16.02804c-0.24626,0.7408 -0.45793,1.47911 -0.64272,2.2164c-0.19804,6.5957 -0.69656,13.50593 2.74135,19.08773c1.16875,1.89757 2.44792,3.46949 4.61331,3.95557c0.20641,0.37996 0.42102,0.75345 0.71781,1.06032c2.62897,2.71827 7.42921,4.10168 10.8739,4.95155c0.49601,0.12238 0.99517,0.28754 1.49652,0.47436c0.27989,0.23742 0.63412,0.29376 0.78649,0.30714c0.50692,0.20509 1.01556,0.42096 1.52492,0.626c-0.29429,-0.1887 -0.58487,-0.39278 -0.87183,-0.60956c3.07771,0.16982 5.14841,1.96089 8.22196,2.47157c0.91215,0.15156 1.77811,0.11895 2.63562,0.10011c1.32541,0.48674 2.64166,1.03797 3.86358,1.44631c7.71647,1.97695 16.4364,-0.33578 21.36767,-6.38467c2.46663,-3.02566 6.89806,-6.22896 5.1331,-10.51607l-0.37618,-1.50125c-0.52351,-0.71614 -0.52351,-1.59773 -0.52351,-1.59773l0.07675,-0.18522l-0.00212,-0.00844c0,0 -0.15701,-0.62805 0.00837,-1.32485c-0.42106,-0.63157 -0.84211,-1.26314 -1.26316,-1.89471c0,0 -0.88152,-1.32228 -0.18468,-2.56118l-0.45661,-0.61229l1.6714,-1.19386c0,-2.39751 -0.35066,-5.14102 -0.15893,-7.60707c0.15353,-0.91442 0.29231,-1.83171 0.42261,-2.75199c0.5455,-2.87986 1.15694,-5.46713 1.22923,-8.53858c0.00479,0.00159 0.00957,0.00318 0.01435,0.00477l0.1056,0.05125c0.77145,-2.84904 1.93669,-5.67614 2.6369,-8.47682c1.31356,-3.92488 1.80338,-7.62465 2.31899,-11.60647c0.32261,-2.49137 1.3108,-4.75053 1.93439,-7.13984c-0.05811,-0.01269 -0.1173,-0.02721 -0.17759,-0.04366c-2.41191,-0.6578 -1.75411,-3.06971 -1.75411,-3.06971l0.73404,-2.60736c-0.03584,-4.16483 -0.5281,-8.27047 -1.7713,-12.24407c-0.35055,-1.12046 -0.84961,-2.2426 -1.38482,-3.37379c-0.44291,0.24667 -1.03166,0.36194 -1.80568,0.16844c-2.42536,-0.60634 -1.81902,-3.0317 -1.81902,-3.0317l0.35048,-1.34721c0.12824,-0.88273 0.36193,-2.12764 0.43914,-3.27367c-0.08909,-0.6218 -0.12349,-1.25025 -0.08773,-1.88635c-0.41258,-2.02869 -1.78133,-3.77226 -3.02873,-5.3247c-2.7887,-3.47068 -6.63065,-7.76036 -11.20136,-8.28686c0,0 -0.41687,-0.05955 -0.88399,-0.30086c-0.89952,-0.2469 -1.79704,-0.54433 -2.69845,-0.71846c-3.64616,-0.70435 -7.95627,-0.94783 -11.58345,-0.25593c0,0 -0.59992,0.10908 -1.26107,-0.07679c-0.42823,1.77716 -2.4195,1.77716 -2.4195,1.77716zM384.25082,275.49658c-0.92858,0.47301 -1.46825,1.56474 -2.42917,1.96805c-0.7756,0.32554 -1.6805,-0.09515 -2.52164,-0.09515c-2.16667,0 -4.33333,0 -6.5,0c-2.2679,0 -5.50797,0.51072 -8.2182,0.39924c-1.65985,-0.44664 -3.33245,-0.82935 -5.00842,-1.19408c-3.46258,-1.22743 -6.73139,-2.68683 -10.1702,-3.65129c-0.25546,0.59486 -0.51092,1.18972 -0.76638,1.78458l-0.18038,0.54276c0.63566,0.17292 1.26452,0.36541 1.8891,0.57198c-1.15715,5.77263 -1.32151,11.96798 -3.65923,17.48879c-0.38723,0.91448 -1.19412,1.5998 -1.64047,2.48693c-2.36845,4.70746 -3.44629,10.21232 -5.53607,15.05836c-1.38083,3.20204 -2.9151,5.25122 -3.9094,8.54226c-0.23674,0.78361 -1.30883,2.01059 -0.58139,2.38597c1.04328,0.53835 2.22997,0.73501 3.34495,1.10251c4.10377,2.83247 10.35361,2.93015 15.24713,3.74658c2.58945,0.43202 5.0928,1.53341 7.7178,1.56928c2.70969,0.03703 7.47613,-1.09228 10.05977,-2.18957c1.74088,-0.73936 3.02421,-2.30803 4.71307,-3.15953c0.56392,-0.28432 1.22129,-0.34828 1.82035,-0.54596c0.24647,-2.10827 2.47797,-2.10827 2.47797,-2.10827v-0.00002l0.55333,0.21388c7.62653,-5.9244 10.84744,-16.82934 13.04638,-25.61281c1.89635,-5.43959 0.16879,-10.18026 -2.24547,-15.0027c-0.65753,-1.31341 -0.75616,-2.26084 -1.14489,-2.96552c-0.34738,0.22128 -0.8054,0.36716 -1.4093,0.36716c-0.70263,0 -1.2078,-0.19748 -1.57098,-0.48143c0.92051,-0.38483 1.84718,-0.74659 2.76981,-1.11116c-0.37755,-0.75512 -0.75511,-1.51023 -1.13266,-2.26535c-1.68121,0.6586 -3.37282,1.31779 -5.01541,2.1545zM387.09841,326.85423c0.3059,0.18381 0.57811,0.72973 0.90116,0.57807c2.70019,-1.26764 2.73056,-4.77245 7.11851,-2.96837c1.45989,0.60023 2.85896,5.57091 3.37224,6.98463c0.10548,0.29052 0.00875,-0.63739 0.14193,-0.91629c0.29625,-0.62041 0.75893,-1.14682 1.12202,-1.73064c0.75582,-1.21531 0.8272,-3.40556 2.23442,-3.66626c6.44872,-1.1947 4.33745,2.33637 5.76808,4.85497c0.13383,0.2356 0.14008,-0.55869 0.34491,-0.73608c0.43968,-0.38078 1.00771,-0.58115 1.51157,-0.87172c1.02175,-4.11856 1.60897,-8.25729 1.10555,-12.57702c-0.25338,-2.1742 -1.87572,-3.99463 -2.35188,-6.13112c-0.31386,-1.40824 0.08945,-2.89246 -0.05471,-4.32803c-0.53438,-5.32145 -2.67521,-10.45099 -5.27442,-14.99152c-1.48656,-2.59686 -2.92172,-4.95439 -4.49706,-7.31476c1.38411,4.19798 1.76382,8.47955 0.25959,13.15896c-2.57916,10.33248 -6.40732,20.47172 -14.39735,27.16575c0.67861,1.38737 1.2788,2.63824 2.69545,3.48943zM347.70006,380.30004c0,0.28819 -0.03323,0.54317 -0.09201,0.76875c1.95992,1.5476 6.70907,-0.03827 8.80142,-0.74049c0.38214,-0.12738 5.00799,-1.67913 5.19013,-1.69599c0.72469,-0.0671 1.4531,0.6839 2.13868,0.43962c0.36665,-0.13064 -0.18158,-0.77991 -0.10994,-1.16249c0.53535,-2.85895 0.29982,-5.49598 0.70398,-8.40988c0.61005,-4.39828 1.118,-8.89357 1.57621,-13.40572c0.27077,-2.66634 -0.239,-5.37112 0.00365,-8.04016c0.24979,-2.74757 1.34661,-6.01225 1.59639,-8.75983c0.23001,-2.53011 0.03575,-4.70002 0.26376,-6.97053c-0.6374,0.14333 -1.27953,0.27311 -1.91276,0.38617c0.46105,0.93446 0.11217,1.98109 0.11217,1.98109c-1.45391,4.34474 -3.13364,8.66071 -4.84203,12.90688c-1.03244,2.5661 -2.8994,4.73041 -4.01997,7.25926c-0.45337,1.02313 -0.37608,2.22891 -0.8234,3.25469c-1.17671,2.69839 -2.02902,2.47145 -3.2405,4.88698c-1.061,2.11548 -1.46511,4.74271 -2.29836,6.96155c-0.92104,2.45263 -2.00324,4.78527 -3.14179,7.10639c0.30807,0.77884 0.07966,1.49253 -0.18571,1.97456c0.17167,0.32636 0.28009,0.73856 0.28009,1.25917zM320.79961,371.4323c1.18415,-0.01062 6.24978,0.83874 7.21367,-0.64975c0.77011,-1.18923 0.767,-2.72895 1.21503,-4.07306c1.14322,-3.42972 2.17815,-6.83707 3.17142,-10.30842c2.64482,-9.24331 5.12495,-18.03163 9.31233,-26.69782c-0.83104,-0.22046 -1.64562,-0.47506 -2.43557,-0.77507c-4.5729,9.06117 -9.36111,17.98866 -13.94506,27.01849c-1.65773,3.26553 -3.55604,6.1987 -5.18057,9.37643c0.76761,1.13018 0.08527,2.4949 0.08527,2.4949l-1.64934,2.56218l-1.94432,1.29619c1.09535,0.76382 3.51558,0.00225 4.15715,-0.24407zM339.13341,285.885c-2.0668,2.45749 -2.98678,5.72564 -4.57112,8.46983c-1.03699,1.79615 -2.9646,2.97231 -3.98678,4.77693c-0.50243,0.88702 -0.28366,2.04432 -0.68919,2.97962c-1.36617,3.15084 -3.5484,5.87929 -5.80874,8.53419c1.15229,0.22289 2.02245,1.23705 2.02245,2.45444v4h-0.06972c0.01459,0.13316 0.02714,0.26663 0.03744,0.40044c0.03818,0.496 -0.68858,0.73933 -0.90303,1.18822c-0.26037,0.545 1.08515,-0.53305 1.64475,-0.76036c0.78129,-0.31735 1.60003,-0.53333 2.40004,-0.79999l1.59054,-0.12829c0,0 0.11513,0 0.29597,0.02471c0.99711,-2.99402 2.51184,-5.06746 3.79435,-8.08146c2.10998,-4.95862 3.26619,-10.51787 5.66387,-15.34167c0.41388,-0.83268 1.18878,-1.46021 1.55949,-2.31299c1.59064,-3.6591 2.12286,-7.71759 2.6592,-11.7249c-1.94978,2.06979 -3.86292,4.20884 -5.63952,6.32128z" fill="#000000" stroke="none" stroke-width="0.5"></path>
      <path d="M376.19837,234.76895c0.09027,2.49837 -2.4081,2.58864 -2.4081,2.58864l-2.38548,0.08475c-6.14094,0.42879 -11.78279,1.95255 -17.8471,0.65734c0,0 -2.44047,-0.54233 -1.89813,-2.9828c0.54233,-2.44047 2.9828,-1.89813 2.9828,-1.89813c5.42214,1.26376 10.88289,-0.37331 16.41199,-0.76411l2.55538,-0.09378c0,0 2.49837,-0.09027 2.58864,2.4081z" fill="#000000" stroke="none" stroke-width="0.5"></path>
      <path d="M138.17171,203.24839c0.79057,2.37171 -1.58114,3.16228 -1.58114,3.16228l-3.39011,1.09601c-2.80056,0.03117 -5.59973,0.03228 -8.40046,0.03228c0,0 -2.5,0 -2.5,-2.5c0,-2.5 2.5,-2.5 2.5,-2.5c2.53373,0 5.06612,-0.00667 7.59954,0.03228l2.60989,-0.90399c0,0 2.37171,-0.79057 3.16228,1.58114z" fill="#001769" stroke="none" stroke-width="0.5"></path>
    </g>
  </g>
</svg>
