<?xml version="1.0" encoding="UTF-8"?>
<svg xmlns="http://www.w3.org/2000/svg" xmlns:xlink="http://www.w3.org/1999/xlink" version="1.1" width="187.8637" height="187.8637" viewBox="0,0,187.8637,187.8637">
  <g transform="translate(-146.06815,-86.06815)">
    <g stroke="none" stroke-miterlimit="10">
      <path d="M146.06815,180c0,-51.87715 42.05473,-93.93185 93.93185,-93.93185c51.87715,0 93.93185,42.0547 93.93185,93.93185c0,51.87715 -42.0547,93.93185 -93.93185,93.93185c-51.87715,0 -93.93185,-42.05473 -93.93185,-93.93185z" fill="#ffcc4d"></path>
      <path d="M233.86759,165.97108c0.97244,-1.3481 1.23654,-3.08187 0.70961,-4.65836c-0.65071,-1.94696 -6.73433,-19.02553 -20.3941,-19.02553c-13.65976,0 -19.74855,17.07857 -20.3941,19.02553c-0.61252,1.75768 -0.23177,3.70899 0.99658,5.1075c1.22836,1.39851 3.11424,2.0278 4.93625,1.64715c1.82203,-0.38065 3.29824,-1.71231 3.86398,-3.48561c0.84179,-2.52537 5.10757,-11.96069 10.59212,-11.96069c5.33479,0 9.54376,8.86722 10.59212,11.96069c0.72302,2.16387 2.73711,3.53243 4.90098,3.53243c1.66222,0.00261 3.2241,-0.79502 4.19654,-2.1431zM285.50031,165.9648c0.96881,-1.34734 1.23114,-3.07816 0.70508,-4.65207c-0.64554,-1.94696 -6.73433,-19.02553 -20.38893,-19.02553c-13.6546,0 -19.74339,17.07857 -20.38893,19.02553c-0.85877,2.69185 0.60515,5.57411 3.28539,6.46847c2.68025,0.89436 5.58163,-0.53125 6.51142,-3.19942c0.84179,-2.52537 5.11272,-11.96069 10.59729,-11.96069c5.33479,0 9.54892,8.86722 10.59729,11.96069c0.70077,2.10906 2.67339,3.53235 4.89583,3.53243c1.6595,-0.00237 3.21675,-0.80207 4.18558,-2.14941zM288.69462,190.63602c-0.66104,1.11035 -16.61378,27.07679 -48.69484,27.07679c-32.08106,0 -48.02864,-25.96646 -48.69484,-27.07679c-0.63505,-1.05902 -0.43145,-2.41944 0.48583,-3.24613c0.91728,-0.82669 2.29148,-0.88823 3.27899,-0.14687c0.19625,0.14976 20.31663,14.97667 44.93001,14.97667c24.67536,0 44.72861,-14.8269 44.93001,-14.97667c0.9889,-0.73872 2.36192,-0.67602 3.27938,0.14976c0.91753,0.82537 1.1211,2.18538 0.48545,3.24322z" fill="#664500"></path>
    </g>
  </g>
</svg>
