<?xml version="1.0" encoding="UTF-8"?>
<svg xmlns="http://www.w3.org/2000/svg" xmlns:xlink="http://www.w3.org/1999/xlink" version="1.1" width="350.63703" height="230.81146" viewBox="0,0,350.63703,230.81146">
  <g transform="translate(-78.47468,-56.21436)">
    <g stroke="none" stroke-miterlimit="10">
      <g stroke-width="0.5">
        <path d="M183.7021,181.09973c0,-0.63106 0.23381,-1.2075 0.61954,-1.64743c0.04267,-0.30868 0.08786,-0.61554 0.13552,-0.92043c-0.11233,-0.28428 -0.17404,-0.59408 -0.17404,-0.91829c0,-0.61634 0.22304,-1.18058 0.5928,-1.61643c0.00622,-7.09398 1.99246,-13.29301 4.85584,-19.74363c0.696,-1.56795 1.52969,-4.25532 2.57662,-5.6669c0.59833,-0.80673 4.00107,-3.92381 4.78764,-4.82442c2.16945,-2.48398 4.15418,-5.33363 6.48481,-7.65528c2.95801,-2.94662 6.83359,-5.30916 10.17258,-7.81341c0,0 1.38168,-1.03627 2.70954,-0.23776c4.79281,-2.35035 9.88425,-2.84319 14.96661,-4.23694c7.09966,-1.94697 15.30409,-4.81535 22.611,-1.61783c0.9876,0.43218 1.70257,1.32944 2.61801,1.89873c2.33331,1.45103 5.09122,2.11529 7.46381,3.43337c1.88949,1.0497 3.54594,2.47886 5.39941,3.59094c2.17793,1.62974 5.17419,3.08644 7.17924,4.80348c0.83622,0.7161 1.30162,1.77976 2.02982,2.60546c2.84971,3.23125 6.05536,5.90977 8.37237,9.62011c2.08409,3.33736 3.0174,7.18425 4.76122,10.66189c1.12372,2.24101 2.4225,4.44178 3.08176,6.86051c1.87662,6.88496 1.26102,14.70797 1.23362,21.80498c-1.96465,10.02085 -6.52976,19.22621 -12.66127,27.3616c-0.65438,0.86825 -3.95384,3.87198 -4.78769,4.82445c-0.80896,0.92403 -2.83958,4.01056 -3.60703,4.77801c-2.84089,2.84087 -6.44484,4.11382 -9.74984,6.16912c-0.91544,0.56929 -1.63385,1.4588 -2.61803,1.8987c-1.75799,0.78577 -3.75238,0.98082 -5.47654,1.83828c-5.30866,0.92359 -9.318,1.20999 -14.31296,0.4397l-0.83048,0.25904c-9.0662,-1.61307 -17.87728,-2.46028 -26.2575,-6.65039c-3.88791,-1.96141 -6.40596,-4.40403 -9.36512,-7.44064c-1.49752,-1.53671 -2.31834,-1.41801 -4.13528,-2.51063c-3.03494,-1.82505 -6.70509,-4.26254 -9.22834,-6.78579c-7.78779,-7.7878 -10.07247,-20.37954 -9.14401,-31.36705c-0.1936,-0.35505 -0.30362,-0.76223 -0.30362,-1.19511zM239.0755,231.47315l2.8144,0.04855c0.31507,0.06301 0.62379,0.12166 0.92695,0.17608l1.85937,-0.67736c0,0 2.11821,-0.70606 3.01828,1.21815c2.54657,0.08502 4.99577,-0.16252 8.03868,-0.64288c1.56273,-0.78572 3.38174,-0.94163 4.98195,-1.64791c0.78589,-0.34687 1.3028,-1.13042 2.0302,-1.58741c2.9561,-1.85718 6.29795,-2.90641 8.84298,-5.45141c1.32794,-1.32792 2.12894,-3.10482 3.36526,-4.51845c1.39354,-1.59339 3.24355,-2.77492 4.50877,-4.47201c5.55736,-7.45428 9.86979,-15.78368 11.74182,-24.93073c-0.02974,-6.49818 0.62851,-13.73099 -1.09045,-20.02894c-0.57229,-2.09677 -1.75865,-3.97698 -2.7285,-5.92205c-1.66389,-3.33699 -2.53788,-7.06246 -4.53524,-10.25505c-2.17292,-3.4732 -5.25112,-5.92383 -7.89639,-8.97277c-0.54801,-0.63163 -0.8217,-1.49813 -1.45628,-2.04272c-1.8874,-1.61974 -4.6956,-2.93672 -6.76544,-4.49298c-1.7393,-1.04358 -3.28599,-2.39629 -5.05909,-3.38136c-2.43356,-1.35199 -5.24939,-2.03526 -7.64282,-3.53894c-0.72742,-0.457 -1.24796,-1.23243 -2.03022,-1.58746c-5.98406,-2.71585 -13.46947,0.30734 -19.22288,1.86837c-4.74185,1.28656 -9.6545,1.6281 -14.08128,3.89571c0,0 -1.21514,0.60756 -2.30176,0.03115c-3.03885,2.23822 -6.57853,4.3701 -9.22264,7.02607c-2.25811,2.26823 -4.18107,5.03645 -6.29784,7.4514c-1.3953,1.59184 -3.22629,2.7879 -4.50872,4.47199c-0.51018,0.66996 -1.92377,4.45935 -2.07161,4.79159c-2.70115,6.07047 -4.41523,11.72053 -4.441,18.39607c-2.08491,10.63422 -1.45276,25.14245 6.83329,33.4285c3.04984,3.04983 7.02575,4.91832 10.58607,7.1945c4.04413,2.58549 6.37552,6.39578 10.84322,8.60596c3.48754,1.74376 6.35989,2.22506 10.05277,3.32585c2.77514,0.82722 5.30469,1.94451 8.24938,2.23264c0.6014,0.05884 1.20643,0.09721 1.8113,0.1372c0.46542,-0.14936 0.84749,-0.14936 0.84749,-0.14936z" fill="#c19e4b"></path>
        <path d="M238.22622,231.67248c-0.60487,-0.03999 -1.21165,-0.07845 -1.81306,-0.13729c-2.94469,-0.28813 -5.48245,-1.40669 -8.25758,-2.23391c-3.69288,-1.10079 -6.57504,-1.58557 -10.06258,-3.32934c-4.4677,-2.21018 -6.81054,-6.02801 -10.85466,-8.6135c-3.56032,-2.27618 -7.5443,-4.1537 -10.59413,-7.20353c-8.28606,-8.28605 -8.92704,-22.82606 -6.84213,-33.46028c0.02577,-6.67555 1.74455,-12.34374 4.4457,-18.41422c0.14784,-0.33225 1.56385,-4.12613 2.07403,-4.79609c1.28243,-1.68409 3.11695,-2.88523 4.51225,-4.47707c2.11677,-2.41494 4.04645,-5.19016 6.30456,-7.45839c2.64412,-2.65598 6.19322,-4.79423 9.23207,-7.03245c1.08662,0.5764 2.30359,-0.03206 2.30359,-0.03206c4.42678,-2.26761 9.35341,-2.61336 14.09525,-3.89993c5.7534,-1.56103 13.25747,-4.58345 19.24154,-1.8676c0.78226,0.35503 1.305,1.13102 2.03241,1.58802c2.39343,1.50367 5.21695,2.1898 7.65051,3.54179c1.7731,0.98506 3.32504,2.34064 5.06434,3.38422c2.06985,1.55626 4.88449,2.87803 6.77189,4.49777c0.63458,0.54459 0.91006,1.41272 1.45807,2.04436c2.64527,3.04893 5.73096,5.50873 7.90388,8.98193c1.99736,3.19259 2.87623,6.92803 4.54012,10.26502c0.96985,1.94508 2.15797,3.83139 2.73026,5.92815c1.71897,6.29796 1.06112,13.5502 1.09086,20.04837c-1.87203,9.14705 -6.19582,17.5004 -11.75318,24.95469c-1.26522,1.69708 -3.1195,2.88299 -4.51304,4.47639c-1.23632,1.41362 -2.04134,3.19381 -3.36928,4.52173c-2.54503,2.54501 -5.89526,3.5992 -8.85136,5.45638c-0.7274,0.45699 -1.24643,1.24148 -2.03233,1.58835c-1.60021,0.70628 -3.42379,0.86382 -4.98652,1.64954c-3.04291,0.48036 -5.49941,0.72953 -8.04598,0.64451c-0.90007,-1.92422 -3.021,-1.21783 -3.021,-1.21783l-1.86121,0.67749c-0.30316,-0.05442 -0.61277,-0.11303 -0.92784,-0.17604l-2.81713,-0.04853c0,0 -0.38289,-0.00002 -0.8483,0.14934z" fill="#ffce66"></path>
      </g>
      <path d="M288.44987,167.67566l-0.0796,-0.04366l-0.45169,0.60226c-0.45492,0.62045 -1.18915,1.02329 -2.01746,1.02329c-1.38071,0 -2.5,-1.11929 -2.5,-2.5c0,-0.41989 0.10352,-0.8156 0.28642,-1.16301l0.15651,-0.31302l-0.29175,-0.29175l0.87522,-0.87521l0.39956,-0.79913c0,0 0.88069,-1.76139 2.64208,-1.37594c0.05782,-0.004 0.11618,-0.00603 0.17501,-0.00603c1.38071,0 2.5,1.11929 2.5,2.5c0,0.57191 -0.19204,1.09896 -0.51515,1.52019l-0.04577,0.06103c-0.1984,1.03768 -1.13337,1.66098 -1.13337,1.66098z" fill="#363636" stroke-width="0.5"></path>
      <path d="M78.47468,56.21436z" fill="#ff9500" stroke-width="0"></path>
      <path d="M233.63333,175.16667c0,1.14678 -0.0073,2.29356 -0.01937,3.44027c-0.84591,2.60857 -1.09679,5.2751 -3.03157,7.42897c-3.40546,3.79108 -10.58555,5.72115 -13.85837,0.58602c-2.58058,-4.04899 -0.33166,-9.8587 -0.22769,-14.3242c-0.56329,-0.2683 -1.13335,-0.48008 -1.74222,-0.44739c-0.74072,0.03976 -2.77236,1.79657 -3.44903,2.20257c0,0 -1.28624,0.77174 -2.05798,-0.5145c-0.77174,-1.28624 0.5145,-2.05798 0.5145,-2.05798c1.09903,-0.65942 3.31504,-2.48856 4.55097,-2.59742c1.68694,-0.14858 3.3542,0.94394 4.89922,1.37462c3.70058,1.03155 7.61095,1.21564 11.26257,2.41934l0.05899,-0.07697c0,0 1.28393,0 1.47606,1.18786z" fill="#714c19" stroke-width="0.5"></path>
      <path d="M281.86557,173.35117c0.17347,1.13358 0.33973,2.26828 0.50127,3.40362c-0.44158,2.70651 -0.2862,5.38031 -1.8729,7.80206c-2.7928,4.2626 -9.59829,7.25659 -13.61024,2.67565c-3.16338,-3.61203 -1.81918,-9.69507 -2.39191,-14.12492c-0.59739,-0.18001 -1.19293,-0.30311 -1.78985,-0.1787c-0.72619,0.15136 -2.46869,2.19527 -3.07615,2.69896c0,0 -1.1547,0.95744 -2.11213,-0.19726c-0.95743,-1.1547 0.19727,-2.11213 0.19727,-2.11213c0.98664,-0.81808 2.90045,-2.96139 4.10569,-3.25595c1.64506,-0.40206 3.45839,0.42568 5.05078,0.61769c3.81403,0.45989 7.70725,0.05034 11.49894,0.6878l0.04666,-0.08501c0,0 1.26915,-0.19422 1.63877,0.9509z" fill="#714c19" stroke-width="0.5"></path>
      <path d="M286.55438,183.15764c-0.45966,1.13919 -0.91932,2.27839 -1.37898,3.41758c-0.93489,1.24395 -2.0569,2.41452 -3.32121,3.48711c-1.88509,2.55194 -3.47775,5.27071 -6.41332,6.79897c-7.03724,3.66359 -19.37078,4.3646 -25.15868,-2.35568c-2.38535,-2.76961 -3.88979,-8.08566 -4.59923,-11.57003c-0.61112,-3.0015 -0.52216,-5.28887 -2.4537,-7.70572c0,0 -0.05437,-0.07249 -0.1286,-0.20023c-0.43012,-0.07099 -1.12788,-0.27385 -1.60329,-0.85361l0.00004,-0.00002c-1.07761,-0.33207 -2.3558,-0.42533 -2.74744,0.67191c-0.16577,0.46442 -0.20791,0.94555 -0.18603,1.43592c0.63437,0.79118 0.48604,1.73489 0.33025,2.2497c0.0646,0.40692 0.11229,0.81253 0.1112,1.21283c-1.22886,7.47257 -3.10874,13.33875 -9.89255,17.60813c-6.36984,4.00885 -12.60552,3.88559 -19.74827,2.66161c-2.45814,-0.42123 -4.19753,-0.65499 -6.2689,-2.17911c-2.92736,-2.15397 -4.78058,-4.98818 -5.9157,-8.20397v-2.10377c-0.00497,-0.68931 0.08787,-1.48364 0.21366,-2.33582c-1.14645,-0.68045 -1.14645,-2.16713 -1.14645,-2.16713l0.04855,-1.65234c0.4012,-2.00601 0.34882,-4.65262 1.55992,-6.41067c-0.35414,0.18346 -0.72214,0.34383 -1.08511,0.50674c-0.16369,0.07347 -0.33035,0.14032 -0.49865,0.20347l-0.98618,0.98618l-0.05273,-0.05273c-0.08117,0.10651 -0.16549,0.21094 -0.25326,0.31307c-0.90744,1.05584 -2.4773,1.26841 -3.72201,1.8949l-2.80958,1.68574c-0.38339,0.2392 -0.83629,0.37741 -1.32147,0.37741c-1.38071,0 -2.5,-1.11929 -2.5,-2.5c0,-0.81467 0.38967,-1.53833 0.9928,-1.99475l0.00218,-0.00437c-0.38192,-0.0104 -0.76329,-0.02436 -1.14273,-0.03668c0.05763,-0.40763 0.11525,-0.81525 0.17288,-1.22287l-0.00001,-0.00001c0,0 0.10749,-0.7524 0.6188,-1.36822c0.00162,-0.0071 0.00328,-0.01419 0.00496,-0.02127c-0.04438,-0.18645 -0.06787,-0.38099 -0.06787,-0.58103c0,-0.99801 0.58479,-1.85943 1.43041,-2.26029l2.27567,-1.13783l0.0201,0.0402c0.04649,-0.03853 0.09356,-0.07649 0.14122,-0.11383c0.02301,-0.01802 3.20725,-1.07675 5.35853,-1.79085c-0.92159,-0.87014 -1.74806,-1.90901 -2.12536,-3.10101c-1.90642,-6.023 2.96973,-8.8803 7.72898,-10.16485c-2.82343,-3.31749 -0.14586,-11.95581 4.87671,-12.87051c1.17996,-0.21489 2.21303,0.93649 3.35996,1.28727c1.06987,0.32721 2.31019,0.17246 3.27345,0.74152c1.2663,0.74809 2.25926,1.91365 3.17252,3.06652c0.52707,0.66536 0.9808,1.42287 1.24671,2.23185c1.73064,-1.80394 4.41892,-2.91194 6.9345,-2.66694c5.43447,0.52928 6.26422,5.70746 9.11012,8.97426c1.84118,2.11348 4.12817,3.04895 6.35242,4.7065l2.12499,1.0625c0.24983,0.11843 0.4769,0.27707 0.67284,0.46755c1.34944,-0.1723 2.71032,-0.26326 4.06786,-0.2685l1.29257,0.28922c1.14355,-0.91456 2.31245,-2.22837 3.26686,-3.64066l0.75781,-1.51561l0.0965,0.04825c0.05622,-0.16977 0.12091,-0.3372 0.1954,-0.50192c0.12899,-0.28524 0.28485,-0.55034 0.4624,-0.79926c0.10588,-0.25863 0.19942,-0.51408 0.27917,-0.76452c0.71477,-2.24459 0.26641,-4.7449 2.59024,-6.40464c2.27586,-1.62548 7.4347,-1.45624 9.40788,0.60001c0.67727,0.70578 -0.69638,1.898 -0.60365,2.87177c0.02969,0.31173 0.58835,-0.23659 0.8364,-0.4277c0.54395,-0.41908 0.96085,-0.99226 1.5214,-1.38886c0.92189,-0.65227 1.9634,-1.11978 2.90513,-1.74307c2.52185,-1.66911 3.77491,-4.34059 6.01848,-6.08444c1.3359,-1.03835 2.79196,-2.8091 4.44544,-2.45019c5.38417,1.16872 3.65508,5.40137 3.20484,8.41649c-0.38734,0.96837 -0.64824,1.99748 -1.16203,2.90511c-0.19727,0.34848 -1.17616,0.46496 -0.91989,0.77266c0.26816,0.32197 0.77582,-0.31707 1.15997,-0.48439c0.71913,-0.31322 1.43983,-0.62343 2.14968,-0.95714c3.55292,-1.6703 8.5046,-3.96212 10.91285,1.38836c0.63504,1.41088 -0.14791,3.11514 -0.55174,4.60872c-0.36007,1.33172 -0.93566,2.43752 -1.67099,3.36239c0.68572,0.84946 1.49827,1.64377 1.7444,2.68437c0.28713,1.21397 -0.35914,2.46895 -0.53125,3.70448c-0.1984,1.42423 0.39666,3.21957 -0.58029,4.27473c-1.08966,1.1769 -3.03982,1.07119 -4.62059,1.34254c-0.27621,0.04741 -0.91659,-0.62986 -0.72551,-0.42484c2.1711,2.32944 1.27196,4.80228 0.66075,7.8341c-0.2998,1.48714 -0.68353,2.84031 -1.17937,4.10358zM249.4383,172.15684c0.52742,3.16642 1.2421,5.37286 2.22281,8.31505c0.79356,2.38072 1.02432,4.77428 2.56855,6.90292c3.01652,4.1581 8.62617,4.57694 13.16929,3.65853c4.06894,-0.82256 7.40891,-1.55261 10.31366,-3.74182c0.16012,-0.22724 0.32271,-0.45241 0.48959,-0.67397c1.64091,-1.61332 2.79895,-3.31708 3.61902,-5.18861l0.46634,-2.37907c0,0 0.15234,-0.7617 0.71177,-1.35102c0.17024,-0.7923 0.30567,-1.61502 0.41394,-2.47225c0.24508,-1.94038 -1.83115,-3.98215 -1.04596,-5.77342c0.64101,-1.46236 2.44505,-2.14407 3.92272,-2.74896c0.72761,-0.29785 1.72725,0.65818 2.35171,0.1805c0.4346,-0.33244 -0.58787,-0.98841 -0.58029,-1.53553c0.00953,-0.68708 0.67838,-1.30473 0.64673,-1.97222c-0.57925,-0.12909 -0.97424,-0.42192 -1.24357,-0.76124c-1.43,0.61609 -2.98474,1.04292 -4.54043,1.38036c-0.41922,0.71511 -1.13434,1.07266 -1.13434,1.07266l-1.86909,0.81092c-9.86985,1.62186 -19.81688,1.76692 -29.83208,1.7765c0.00362,0.05549 0.00505,0.11042 0.00454,0.16467l0.46651,0.65448c0,0 0.53221,2.1287 -1.39485,2.89615c0.21309,0.42344 0.27341,0.78538 0.27341,0.78538zM205.63141,170.1997c-0.53162,1.05382 -1.39138,1.93745 -2.05049,2.91732c-0.02148,0.74048 -0.41417,1.51791 -0.76998,2.29406c0.0624,0.48731 0.21068,0.98708 0.1671,1.47029c-0.08141,0.90266 -0.56235,1.75249 -0.56885,2.65879c-0.06174,8.60958 7.41327,12.43059 14.89048,12.60702c2.37532,0.05605 2.23322,-0.94778 4.49645,-1.62088c1.05883,-0.3149 2.24415,-0.10693 3.27577,-0.50198c1.51432,-0.5799 2.55718,-1.99538 3.86395,-2.95549c2.16382,-2.94513 3.85049,-4.96614 4.54552,-8.59997l0.53083,-1.1929c0.00003,-1.86532 0.03874,-4.2507 0.2656,-4.66404c0.2127,-0.38756 0.44396,-0.73731 0.69133,-1.05181c-0.23724,-0.3823 -0.37422,-0.83333 -0.37422,-1.31635c0,-0.48517 0.13821,-0.93807 0.3774,-1.32146l0.92161,-1.53605l0.40099,-1.0025c-1.04761,0.32184 -2.12679,0.51778 -3.43097,0.61553c-1.14005,2.04377 -3.27836,0.97462 -3.27836,0.97462c-2.54052,-1.37695 -4.68116,-0.89474 -7.59736,-0.89813c-5.45848,-0.00633 -10.74923,1.04631 -16.08799,2.10644c-0.05122,0.58236 -0.26879,1.01751 -0.26879,1.01751z" fill="#292f33" stroke-width="0.5"></path>
      <g stroke-width="0.5">
        <path d="M258.56773,197.0822c2.45685,2.64828 2.60301,8.05943 0.21899,10.88524c-1.3587,1.61049 -4.93979,3.69138 -7.57362,2.74033c-0.39287,0.5065 -0.81041,0.95238 -1.24144,1.28635c-4.92727,3.81763 -11.78104,0.95413 -16.3801,-2.32528c-0.57304,0.23643 -1.1546,0.43054 -1.76705,0.47102c-4.5935,0.30361 -7.93946,-3.14573 -7.92395,-7.74422c0.012,-3.55567 2.88648,-5.91515 5.33766,-7.89785c0,0 1.13062,-0.9045 2.35934,-0.47638c0.4622,-1.04073 0.91702,-2.03182 1.2927,-2.92816c1.68673,-4.02444 2.55829,-8.49157 3.93798,-12.63386l0.35104,-0.2165c-0.0793,-0.34243 -0.07931,-0.59294 -0.07931,-0.59294c0.07868,-1.28679 -0.41526,-2.74779 0.23602,-3.86038c1.94734,-3.32662 5.60019,-4.75822 9.06582,-2.459c1.07279,0.71173 1.04658,2.35252 1.56986,3.52879l0.45365,1.78427c0,0 0.13174,0.52697 0.02677,1.15105c0.35596,0.5644 0.42856,1.1452 0.42856,1.1452c0.62311,5.15595 3.26831,10.4883 4.75015,15.81301c1.65735,0.53734 3.99693,1.31608 4.93692,2.32932zM238.29599,204.12715c-0.10894,-0.06572 -0.21526,-0.1347 -0.31851,-0.20674c0.02805,0.06582 0.05209,0.13146 0.07245,0.19678c0.08336,0.06659 0.17158,0.13388 0.2657,0.20247c-0.00214,-0.01693 -0.00416,-0.03384 -0.00606,-0.05072c-0.00531,-0.04731 -0.00984,-0.09458 -0.01359,-0.14178z" fill="#ff924c"></path>
        <path d="M230.83992,194.34389c0.03932,-0.06291 0.07932,-0.12535 0.12001,-0.18731c0,0 0.0028,-0.0042 0.00832,-0.0119c0.13834,-0.21939 0.36888,-0.4609 0.73398,-0.53395c0.16027,-0.04509 0.34295,-0.05658 0.54447,-0.00601c0.18288,0.02665 0.37459,0.09948 0.54911,0.25318c0.15064,0.10986 0.25294,0.24178 0.32143,0.3788c0.1053,0.17552 0.14557,0.35521 0.14898,0.52295c0.03027,0.24793 -0.02508,0.4577 -0.11621,0.62933c-0.33275,1.38722 0.08607,2.3101 0.09998,3.86098l0.03388,-0.48389c0,0 0.88388,0.88388 0,1.76776c-0.88388,0.88388 -1.76777,0 -1.76777,0l-0.50615,-0.84823c-0.47735,-0.0728 -0.86591,-0.41562 -1.00495,-0.86772l-0.39088,-1.17265l0.18857,-0.06286l-0.25271,-0.33243c0.13664,-0.45346 0.29669,-0.90277 0.48212,-1.34134c-0.05479,-0.22383 -0.08213,-0.45049 -0.08213,-0.65866z" fill="#863528"></path>
        <path d="M256.38579,198.84527l-1.10195,1.28857c0,0 -0.48703,0.48704 -1.09958,0.37652c-0.1678,0.0176 -0.36015,-0.00141 -0.57958,-0.07455c-1.18586,-0.39528 -0.79058,-1.58113 -0.79058,-1.58113l0.33585,-0.80472c-0.24883,-0.6481 -0.34351,-1.34872 -0.37951,-2.04951c-0.03964,-0.14622 -0.05066,-0.31467 -0.01717,-0.50759c-0.00153,-0.08116 -0.00259,-0.16216 -0.00332,-0.24291c0,0 0,-1.25 1.25,-1.25c0.76483,0 1.06169,0.46797 1.17691,0.83125c1.61821,0.87403 1.82082,1.91106 1.20892,4.01406z" fill="#863528"></path>
      </g>
      <path d="M224.80412,205.15833c8.53552,4.3266 21.55932,6.63201 30.20621,1.44343c0.37633,-0.2986 0.75266,-0.59718 1.12899,-0.89578l0.95603,-1.20972c0,0 0.72975,-0.91217 1.70624,-0.48259l0.7394,-1.60339c0.53333,0.17777 1.06667,0.35555 1.6,0.53332c4.28795,1.4293 9.71078,2.71521 13.05937,5.90534c1.61462,1.53822 2.67136,4.65272 0.50741,6.52472c-2.279,1.97153 -8.48696,-0.31472 -11.25937,-1.447c1.93528,3.04538 2.95806,6.82904 -1.58137,8.15221c-2.27777,0.66394 -5.9237,-0.74219 -7.7235,-2.12992c-0.54722,-0.42194 -1.59604,-1.58052 -2.17015,-2.3401c-0.08208,0.36661 -0.20676,0.72034 -0.25097,0.98601c-1.12718,3.28232 -4.49558,7.17947 -8.4333,4.61166c-0.32739,-0.21349 -1.72579,-2.60773 -2.04205,-3.13482c-0.14939,-0.24898 -0.34311,-0.73737 -0.47155,-1.17027c-0.34535,0.43868 -1.04491,0.8937 -1.47046,1.15144c-2.02007,1.22348 -6.01109,2.89684 -8.04544,0.48819c-0.59275,-0.70181 -0.77355,-1.52322 -0.71601,-2.37669c-3.12194,1.8493 -6.54263,3.37565 -10.11216,2.01581c-1.9972,-0.76085 -2.83584,-2.27305 -2.76271,-3.85322c-2.25677,0.70361 -4.59134,1.0572 -6.84234,0.45363c-2.40134,-0.64389 -3.87193,-1.25627 -2.66505,-4.353c0.11268,-0.28912 2.79239,-1.94754 3.28909,-2.19652c3.40807,-1.70833 6.98924,-3.26109 10.55619,-4.60227c0,0 0.4524,-0.16965 0.93996,-0.05963c0.70251,-0.98835 1.85753,-0.41085 1.85753,-0.41085z" fill="#292f33" stroke-width="0.5"></path>
      <g stroke-width="0.5">
        <g>
          <path d="M289.43588,262.28614c-0.96279,-0.06972 -1.64532,0.75727 -1.64532,0.75727l-1.1469,1.39786c-3.59935,5.11593 -7.99015,8.7128 -12.53683,12.95162c-4.8954,2.09272 -9.69403,4.37347 -14.95956,5.43087c-5.07085,1.01829 -9.85062,-0.76934 -14.62718,-2.02711c-5.00837,-1.31881 -9.49651,-2.8213 -13.79069,-5.84251c-3.85492,-2.67756 -4.84943,-5.60756 -6.40704,-9.66429c-0.73838,-1.92307 -2.9407,-3.1191 -3.49875,-5.10202c-0.40152,-1.42667 0.59421,-5.75828 0.88787,-7.19819c0.90105,-4.41821 3.44988,-8.31392 5.80257,-12.16892c2.90805,-4.76498 5.18579,-9.18823 10.03271,-12.22132c1.81422,-1.72634 3.60456,-1.94968 5.88008,-2.95841c11.88549,-5.26878 22.79644,-0.21946 33.9165,4.13414c0,0 0.80505,0.30953 1.55072,-0.01141c0.29353,0.04369 0.50953,0.02346 0.50953,0.02346c6.4726,-0.74316 12.22868,-6.32546 18.07646,-9.09227c5.617,-2.65762 13.6434,1.57634 18.23132,4.65595c2.65975,4.37446 5.64019,7.4784 4.46472,12.97236c-0.80897,3.78098 -5.20474,5.17049 -4.78457,10.00815c0.10136,1.167 1.26462,4.64825 2.04708,5.6413c1.84732,2.34447 9.40077,5.50619 3.47953,7.89942c-4.70419,0.41495 -8.95623,-2.20712 -13.42262,-3.31893c-6.69545,-1.66669 -12.47871,0.43788 -18.05962,3.73298z" fill="#781616"></path>
          <g>
            <g>
              <path d="M318.21271,230.24341c-0.06759,0.06159 -0.13491,0.11716 -0.20182,0.16711c-3.75997,4.6269 -9.88969,6.93458 -15.93049,6.13206c-3.50818,-0.46606 -7.00438,-2.2578 -10.55967,-2.03613c-8.88167,2.01138 -13.56458,10.1449 -21.95852,13.20792c-7.48424,2.73107 -13.17633,-0.2328 -20.54126,-0.79783c-10.73021,-0.01952 -9.84499,12.20795 -15.34693,18.01786c-3.6539,3.85843 -8.88737,5.49267 -13.244,2.08709c0,0 -1.1715,-0.96665 -0.59994,-2.22909c-0.0134,-0.37495 0.06388,-0.65587 0.06388,-0.65587c0.81741,-2.64723 -0.15531,-5.38513 0.49678,-8.22452c2.38097,-10.36752 7.30908,-21.35482 15.87013,-28.05717c4.19654,-2.53007 7.82169,-5.42041 12.92723,-5.80215c10.91693,-0.81624 20.26123,7.46767 30.73856,6.91134l0.80995,-0.15341c0.2718,-0.16023 0.49589,-0.22355 0.49589,-0.22355c9.5455,-2.67099 17.67537,-13.31383 28.37667,-8.50415c3.23279,1.45297 5.90261,4.52598 8.35594,6.98403l0.37605,0.40967c0,0 0.40938,0.44925 0.52175,1.07528l0.34836,0.16992c-0.12387,0.20052 -0.25179,0.39766 -0.38356,0.59139c-0.08771,0.30355 -0.27507,0.6204 -0.61502,0.93018zM308.02271,223.6643c-8.85105,-3.86877 -17.64877,6.39102 -25.72517,8.69224c0,0 -0.00226,0.00064 -0.00665,0.0018c-0.37759,0.22108 -0.73032,0.28246 -0.73032,0.28246l-1.43779,0.23537c-10.57806,0.50312 -19.8397,-7.65434 -30.65276,-6.91658c-4.32841,0.29532 -7.43987,2.99194 -10.99121,5.12387c-7.75479,6.01476 -12.12193,16.39858 -14.269,25.6991c-0.63209,2.73805 0.09169,5.13487 -0.41246,7.81777c2.84802,1.4195 6.7298,-1.22398 8.17928,-3.90364c1.36315,-2.52008 1.84075,-5.54021 3.11857,-8.11118c2.7435,-5.5199 7.8523,-9.44673 14.05169,-9.58391c6.78275,0.52177 12.25036,3.53631 19.05351,1.04015c8.69641,-3.19082 13.3488,-11.32881 22.79324,-13.41664c8.05186,-0.34282 17.16233,5.04288 23.26957,-1.74877c-1.83817,-1.92809 -3.89659,-4.1875 -6.24049,-5.212z" fill="#783232"></path>
              <path d="M314.32485,228.85483c-6.10724,6.79167 -15.33472,1.46202 -23.38659,1.80484c-9.44444,2.08783 -14.05181,10.25569 -22.74823,13.4465c-6.80315,2.49615 -12.19548,-0.5761 -18.97822,-1.09788c-6.1994,0.13718 -11.30953,4.04255 -14.05303,9.56247c-1.27782,2.57097 -1.75918,5.5797 -3.12233,8.0998c-1.44948,2.67968 -5.45078,5.37573 -8.29878,3.95622c0.50416,-2.68289 -0.223,-5.08921 0.4091,-7.82725c2.14708,-9.30053 6.51814,-19.72908 14.27295,-25.74384c3.55134,-2.13193 6.67625,-4.84748 11.00467,-5.1428c10.81304,-0.73775 20.16648,7.42018 30.74453,6.91707l1.43989,-0.23316c0,0 0.35337,-0.06065 0.73095,-0.28173c0.00439,-0.00116 0.00665,-0.00178 0.00665,-0.00178c8.0764,-2.30123 16.88283,-12.54846 25.7339,-8.67968c2.34389,1.02452 4.40636,3.29316 6.24453,5.22123z" fill="#a14343"></path>
            </g>
            <path d="M306.07332,224.70523c0.79371,1.79047 -0.99677,2.58417 -0.99677,2.58417l0.19125,-0.16721c-2.35152,1.95496 -5.38872,4.46215 -8.66334,4.34573c-2.26201,-0.08041 -3.59485,-1.23389 -5.91528,-0.57064c-4.39426,1.256 -7.06973,5.40874 -11.75792,6.48919c-3.04651,0.7021 -5.85326,-0.6219 -8.79924,0.00643c0,0 -0.28416,0.0548 -0.65509,0.01301c-0.07522,0.04242 -0.1221,0.0632 -0.1221,0.0632l-1.99088,0.87926c-3.22617,0.98453 -5.33085,1.39152 -8.33906,-0.48247c-3.19957,-1.99321 -6.08193,-8.22419 -10.54951,-4.87718c-2.30415,3.80907 -4.39739,5.84451 -8.12523,8.26159c-2.4532,1.59063 -5.39238,2.16338 -6.88742,4.90316c-2.7928,5.11802 -0.24707,11.33237 -4.40531,15.65678c-1.55445,1.61657 -2.57848,1.73414 -4.63603,2.52187c0,0 -1.834,0.68718 -2.52118,-1.14681c-0.68718,-1.834 1.14681,-2.52118 1.14681,-2.52118c5.37347,-1.959 3.95427,-4.37805 4.46233,-9.12981c0.22353,-2.09054 1.46212,-5.40781 2.51823,-7.26308c2.55741,-4.49264 7.96717,-5.79136 11.93395,-8.73573c1.65178,-1.22604 2.57831,-3.57116 3.6769,-5.24765c0.87258,-0.60043 1.61761,-1.45249 2.61775,-1.80128c8.35115,-2.91245 10.29225,8.67334 17.72083,6.19857l1.79042,-0.79695c0,0 0.51561,-0.22856 1.1161,-0.16368c0.28156,-0.13429 0.50691,-0.17775 0.50691,-0.17775c2.94196,-0.52547 5.77891,0.72609 8.65921,0.02323c4.52493,-1.1042 7.1597,-5.20434 11.59253,-6.44717c2.74249,-0.76892 4.5242,0.15404 7.13262,0.43184c2.00184,0.21319 4.61412,-2.2917 5.98289,-3.43948l0.73144,-0.40667c0,0 1.79047,-0.79371 2.58417,0.99677z" fill="#b17878"></path>
          </g>
          <g>
            <path d="M276.82276,249.33086c0.17101,0.32309 0.22432,0.59954 0.22432,0.59954c0.78628,4.10855 2.64619,11.97794 5.78409,14.93005c0.60163,0.566 3.29291,-1.74966 3.61959,-1.97317c4.22887,-2.89342 9.05287,-5.74599 13.54929,-8.13342c3.71617,-2.23751 7.16351,-4.56867 10.65895,-7.11052c0.98765,-0.71821 2.21348,-1.16118 3.01277,-2.08448c0.35481,-0.40986 1.18594,-1.3685 0.6571,-1.48764c-1.01388,-0.22842 -2.07349,0.27502 -3.11077,0.21035c-6.66363,-0.4155 -13.3716,0.12542 -19.9733,1.27491c-4.71401,0.81488 -9.84248,2.0126 -14.42205,3.77438zM273.25731,249.6591l-0.23012,-2.99448c5.40707,-2.38248 11.73117,-3.94917 17.54612,-4.96717c6.90188,-1.20019 13.91602,-1.75987 20.88566,-1.3255c1.34127,0.08359 4.79651,0.07292 5.58784,0.87864c1.69461,1.72545 0.89201,5.026 -0.25069,6.67078c-0.34225,0.49264 -3.27833,2.48693 -3.83145,2.88849c-3.61969,2.6278 -7.19663,5.04494 -11.04309,7.35732c-4.39428,2.28175 -9.13628,5.12813 -13.25386,7.94937c-2.20508,1.51086 -4.88677,3.67397 -7.81334,2.12547c-0.8613,-0.45574 -1.15611,-1.56896 -1.73443,-2.35324c-3.04628,-4.13119 -4.9449,-10.19788 -5.91901,-15.21685c0,0 -0.09328,-0.4838 0.05639,-1.01285z" fill="#868686"></path>
            <path d="M291.22484,245.49431c6.60168,-1.14951 13.38884,-1.65572 20.05246,-1.2402c1.03728,0.06468 2.09818,-0.43578 3.11205,-0.20736c0.52885,0.11914 -0.30107,1.08101 -0.65588,1.49087c-0.79928,0.92329 -2.02402,1.36972 -3.01168,2.08794c-3.49542,2.54183 -6.94387,4.91204 -10.66004,7.14956c-4.49644,2.38744 -9.41872,5.27281 -13.64761,8.16622c-0.32668,0.22352 -3.02399,2.53455 -3.62563,1.96856c-3.1379,-2.95209 -5.0197,-10.88107 -5.80597,-14.98961c0,0 -0.05294,-0.27859 -0.22394,-0.60166c4.57956,-1.76178 9.7522,-3.00943 14.46621,-3.8243z" fill="#a2a2a2"></path>
          </g>
          <path d="M279.91034,251.40489c0.07285,-3.33294 -2.82327,-8.6795 -4.44756,-11.40239c-0.53857,-0.90285 -0.61908,-2.51667 -1.65706,-2.68345c-0.83995,-0.13497 -2.4938,0.30815 -3.9701,0.74865c2.54131,4.62498 4.14285,9.09074 4.45908,14.40365l0.03089,0.31978c1.62121,-0.09574 5.56151,-0.3229 5.58475,-1.3862zM265.07379,237.28917c-0.42715,-1.91135 1.48421,-2.33852 1.48421,-2.33852c1.80027,-0.40198 6.30164,-1.99237 8.15811,-1.44139c4.67304,1.38694 6.58826,9.41647 7.91551,13.42566c0.3055,0.92282 1.37677,4.23902 1.12703,5.20021c-1.15251,4.43579 -5.97199,4.11212 -9.54514,4.58369l-1.66689,-0.04653c0,0 -1.53543,-0.07127 -1.82266,-1.44776c-0.13036,-0.32602 -0.15583,-0.59195 -0.15583,-0.59195l-0.18378,-1.93231c-0.27511,-4.7833 -1.75001,-8.7558 -4.07747,-12.91992c0,0 -0.2937,-0.52763 -0.26194,-1.16003c-0.41501,-0.19877 -0.80517,-0.58839 -0.97117,-1.33117z" fill="#343434"></path>
          <path d="M274.32251,252.85629l-0.0313,-0.31979c-0.31624,-5.3129 -1.9507,-9.89804 -4.492,-14.52303c1.4763,-0.4405 3.15944,-0.89432 3.99938,-0.75934c1.03797,0.1668 1.1352,1.78094 1.67378,2.68378c1.62428,2.72289 4.55319,8.18368 4.48034,11.51661c-0.02324,1.06331 -4.00899,1.30604 -5.6302,1.40178z" fill="#434343"></path>
          <path d="M299.57444,248.84694c-1.94958,0.18678 -2.13635,-1.76282 -2.13635,-1.76282l-0.0626,-0.746c-0.87131,-4.54215 -1.98063,-8.72047 -5.57577,-11.81421c0,0 -1.47641,-1.28684 -0.18956,-2.76325c0.12729,-0.14604 0.25642,-0.26503 0.3858,-0.36092c-0.08356,-1.73677 1.70591,-1.97292 1.70591,-1.97292c1.65977,-0.21884 3.3231,-0.41325 4.98957,-0.57313l0.46496,-0.04455c0,0 1.34949,-0.1293 1.91054,0.95c3.75926,2.34922 6.70398,6.50472 7.47572,10.88762c0.50548,2.87074 0.06847,6.36802 -2.85969,7.86266c-0.96419,0.49217 -2.13635,0.35155 -3.20452,0.52734l-1.12059,0.19667c0,0 -0.95219,0.16568 -1.63517,-0.40465c-0.04801,0.0072 -0.09741,0.01328 -0.14828,0.01816zM301.96599,245.15339c6.87379,-0.54563 0.08392,-10.27748 -3.43976,-12.34774c-0.87312,0.08758 -1.74533,0.18477 -2.61655,0.28996c3.05938,3.42894 4.33736,7.57175 5.25241,12.19662z" fill="#343434"></path>
          <path d="M301.174,245.35642c-0.91507,-4.62485 -2.24173,-8.88578 -5.30111,-12.31472c0.87122,-0.10519 1.76522,-0.212 2.63835,-0.29958c3.52368,2.07026 10.3486,11.92779 3.47482,12.47341z" fill="#434343"></path>
          <g>
            <path d="M266.88717,271.39464c-0.50176,0.74854 -1.29871,0.27807 -1.29871,0.27807c-4.41611,-2.71868 -1.54994,-8.88344 3.39659,-8.56653c2.20485,0.14125 4.02137,2.80484 3.26238,4.919c-0.85632,2.38531 -3.13814,3.32771 -5.36026,3.36946zM265.38391,268.61618c0.13999,0.05885 0.22856,0.12568 0.22856,0.12568l0.97657,0.78413c1.78624,0.12509 5.68472,-2.48983 2.97411,-4.16163c-1.95648,-1.20669 -4.75304,1.26947 -4.17923,3.25183z" fill="#868686"></path>
            <path d="M269.60532,265.31453c2.71062,1.6718 -1.2634,4.39267 -3.04965,4.26758l-0.99888,-0.80612c0,0 -0.09114,-0.07144 -0.23114,-0.1303c-0.57379,-1.98236 2.32317,-4.53785 4.27966,-3.33117z" fill="#a2a2a2"></path>
          </g>
          <g>
            <path d="M245.06032,269.90475c-0.03083,0.01146 -0.04917,0.01665 -0.04917,0.01665c-5.59901,1.09521 -3.37925,-7.25175 1.00362,-7.86599c3.10132,-0.43464 5.78145,1.81272 4.50541,5.12091c-0.81023,2.10055 -2.64026,2.56691 -4.57606,3.03709zM244.03004,268.19023c0.40546,-0.60401 1.14245,-0.31973 1.14245,-0.31973l0.86246,0.38652c1.07737,-0.38553 2.18181,-0.55109 2.65796,-1.78551c0.79793,-2.06865 -1.55854,-3.41337 -3.29093,-2.37047c-0.94409,0.56835 -2.47839,4.15361 -1.37193,4.08918z" fill="#868686"></path>
            <path d="M245.37547,264.0414c1.73239,-1.0429 4.18046,0.36663 3.38253,2.43529c-0.47614,1.23441 -1.65673,1.45913 -2.73411,1.84466l-0.89086,-0.39886c0,0 -0.74821,-0.29513 -1.15367,0.30888c-1.10646,0.06443 0.45202,-3.62164 1.39611,-4.18999z" fill="#a2a2a2"></path>
          </g>
          <g>
            <path d="M253.77693,276.46527c-4.64463,-1.51019 0.26695,-9.63472 5.38649,-6.26339c4.43578,2.92106 -0.7318,8.99066 -5.01422,6.60607zM254.06269,274.27803c0.30156,0.06413 0.51441,0.26189 0.51441,0.26189l0.74323,0.69824c1.46968,0.96776 4.6664,-1.17325 3.52139,-2.85781c-2.45945,-3.61845 -4.67793,0.70488 -4.77904,1.89767z" fill="#868686"></path>
            <path d="M258.90142,272.35395c1.14501,1.68456 -2.15003,3.90461 -3.61971,2.93687l-0.76136,-0.71861c0,0 -0.21752,-0.20786 -0.51908,-0.27199c0.10111,-1.19278 2.4407,-5.56471 4.90015,-1.94626z" fill="#a2a2a2"></path>
          </g>
          <g>
            <path d="M257.36491,265.7058c-0.30256,0.19429 -0.66372,0.16176 -0.66372,0.16176c-6.34875,-0.7999 -2.2316,-8.24735 2.59609,-7.5227c5.14558,0.77236 3.17403,7.25654 -0.93166,7.72919zM256.42548,263.87883c0.4151,-0.46409 1.06125,-0.21485 1.06125,-0.21485l1.14504,0.46974c1.94474,-0.09731 2.6507,-3.68256 0.39938,-3.8485c-2.12928,-0.15696 -5.42653,3.18378 -2.60565,3.59363z" fill="#868686"></path>
            <path d="M259.06145,260.22738c2.25132,0.16594 1.53431,3.87139 -0.41043,3.96871l-1.18696,-0.47089c0,0 -0.66847,-0.26316 -1.08359,0.20092c-2.82088,-0.40985 0.5517,-3.8557 2.68098,-3.69874z" fill="#a2a2a2"></path>
          </g>
          <path d="M319.23199,248.03719c0.57926,5.23858 7.34925,5.87639 8.08548,10.91897c0.49751,3.40762 -3.08156,5.58779 -5.46949,6.68952c-6.88585,0.69265 -12.44642,-3.71883 -19.19342,-3.77883c-4.73987,-0.04216 -8.1695,1.80656 -12.00993,4.18926c-0.13623,0.26985 -0.51011,0.87807 -1.19259,1.08343c-3.81,5.262 -8.34977,9.12706 -13.20363,13.46856c-5.2754,2.40196 -10.60341,4.93507 -16.35079,6.00665c-9.92056,1.84966 -23.30515,-2.81806 -31.3651,-8.48871c-4.43081,-3.15018 -6.06603,-6.67466 -7.82693,-11.51096c-0.74936,-2.05811 -3.02019,-3.37834 -3.61707,-5.48574c-0.53679,-1.89526 0.46397,-7.06311 0.85156,-8.93225c1.01741,-4.90649 3.69133,-9.13911 6.2973,-13.40843c3.14912,-5.15914 5.73689,-9.98414 10.99778,-13.27628c2.14025,-1.88461 4.10101,-2.2792 6.65516,-3.41144c12.93439,-5.73375 24.46081,-0.64721 36.5911,3.98412c0.29889,-0.11091 0.53377,-0.13341 0.53377,-0.13341c5.79694,-0.39324 11.47817,-6.52511 16.83768,-8.78582c7.44094,-3.13868 16.64822,1.16696 22.64626,5.52519c0.03168,0.04942 0.06342,0.09879 0.09517,0.14808c-0.13541,0.57523 0.10467,1.1168 0.10467,1.1168c0.5785,1.27056 1.36282,2.46414 2.2949,3.50348l1.15906,0.96092c1.15037,2.04677 2.01295,4.15144 2.19755,6.5019c-0.09898,0.15815 -0.1447,0.27667 -0.1447,0.27667c-0.68916,1.78669 -1.94218,5.03519 -2.63134,6.82187c0,0 -0.18575,0.48155 -0.07753,1.00751c-1.271,1.47812 -2.49088,2.966 -2.26497,5.00896zM307.43203,258.53787c4.46639,1.11182 8.71846,3.73377 13.42264,3.31883c5.92124,-2.39324 -1.63385,-5.54464 -3.48117,-7.88911c-0.78246,-0.99305 -1.94582,-4.46557 -2.04718,-5.63257c-0.42016,-4.83768 3.97775,-6.21384 4.78672,-9.99481c1.17546,-5.49396 -1.79756,-8.58071 -4.45732,-12.95518c-4.58792,-3.07961 -12.59837,-7.29589 -18.21539,-4.63828c-5.84778,2.7668 -11.57895,8.36086 -18.05155,9.10403c0,0 -0.2145,0.02056 -0.50803,-0.02313c-0.74567,0.32093 -1.54607,0.01221 -1.54607,0.01221c-11.12006,-4.35358 -21.97141,-9.42678 -33.85691,-4.158c-2.27552,1.00874 -4.06067,1.2246 -5.8749,2.95094c-4.84693,3.03309 -7.11686,7.43626 -10.02491,12.20125c-2.35269,3.85501 -4.90023,7.73448 -5.80128,12.15269c-0.29364,1.4399 -1.29033,5.763 -0.88881,7.18966c0.55806,1.98292 2.75875,3.17209 3.49713,5.09516c1.55761,4.05674 2.54653,6.97334 6.40144,9.65091c4.29417,3.02121 8.77129,4.50912 13.77966,5.82793c4.77656,1.25777 9.53847,3.03279 14.60932,2.01449c5.26554,-1.0574 10.03708,-3.34451 14.9325,-5.43723c4.54668,-4.23882 8.89342,-7.81958 12.49278,-12.93551l1.14228,-1.39341c0,0 0.67875,-0.8226 1.64154,-0.75288c5.5809,-3.2951 11.35206,-5.37465 18.04751,-3.70797z" fill="#4e0e0e"></path>
        </g>
        <g>
          <path d="M417.74919,216.22078l-0.3037,-0.53488c-1.78866,0.68456 -3.5543,1.4216 -5.27092,2.26131c2.23342,0.50513 4.66771,0.78957 5.75646,-1.61122c-0.11312,-0.05849 -0.18185,-0.1152 -0.18185,-0.1152zM427.99875,211.17582l-0.01145,0.25988c0.07918,0.01224 0.16359,0.03465 0.25342,0.0693c0.79785,0.30774 0.63022,1.04347 0.57492,1.22503l0.20754,0.77654c0,0 0.04181,0.43646 -0.22258,0.75326c-0.01239,0.52895 -0.0482,1.00319 -0.13551,1.13249c-0.55922,0.82812 -5.17341,2.07065 -6.19267,1.98741c-0.87323,-0.07131 -1.96537,-1.17626 -2.81668,-1.8236l0.2332,1.16601c-1.9211,4.82856 -6.64015,3.25208 -10.36618,2.62848c0,0 -0.39429,-0.06799 -0.63535,-0.36907c-0.3142,-0.00381 -0.53755,-0.06526 -0.53755,-0.06526l-2.0243,-0.5569c-1.82663,-0.51086 -3.44187,-1.27019 -5.20336,-1.85456c-0.715,0.25387 -1.44464,-0.02757 -1.44464,-0.02757l-0.01779,-0.04763c-5.83495,-1.03072 -11.46908,-7.47075 -7.93359,-13.73614c0.32106,-0.56897 0.90156,-1.14441 1.53845,-1.67955c0.28072,-0.41452 0.64643,-0.64336 0.64643,-0.64336c2.55193,-1.36404 2.66528,-5.66764 3.67515,-8.29448l0.83922,-1.54052c0,0 0.47478,-0.84874 1.35329,-1.0155c0.17079,-0.93855 0.02688,-1.9281 0.47244,-2.78149c1.40189,-2.68507 5.58769,-2.09493 7.43878,-0.47225l0.46817,0.86075c0,0 0.22582,0.50944 -0.04752,0.93007c0.97866,-0.2248 1.96191,-0.44493 2.9468,-0.65389c-0.00473,-0.06182 -0.00296,-0.10012 -0.00296,-0.10012l0.00004,0c0.05494,-1.14973 -0.00082,-2.92436 0.80994,-3.88222c1.72008,-2.03212 7.3998,-1.37189 8.25273,0.81848l0.31206,0.67969c0,0 0.27104,0.61139 -0.14012,1.04765c0.36088,-0.02792 0.72065,-0.05144 1.07921,-0.0702l0.40602,-0.11959c0,0 1.32671,-0.2965 2.01648,0.7099c1.07156,0.02699 1.62846,1.08677 1.62846,1.08677c3.00944,5.84549 3.93878,13.49368 3.63909,20.00849l-0.58019,1.78349c0,0 -0.0926,0.24008 -0.2977,0.51262c0.09392,0.59619 -0.10885,1.12183 -0.10885,1.12183l-0.07405,0.08006c0.00039,0.03189 0.00079,0.0638 0.00118,0.09569zM422.61747,215.42662c2.23818,-0.11492 3.94404,-0.54217 4.18702,-2.29942c-0.10691,-0.13555 -0.2109,-0.27354 -0.31231,-0.41352c-0.09207,-0.04811 -0.16659,-0.10843 -0.22691,-0.17502c-1.68975,0.60899 -3.39661,1.19196 -5.0989,1.79082c0.63306,0.51469 1.36312,1.10166 1.4511,1.09714zM428.79231,212.60145c0.00016,0.01347 0.00037,0.02803 0.00061,0.04357l0.00237,0.00886zM418.63877,185.71281l-0.40631,-0.94087c0.00288,-0.51006 -3.4454,-0.71002 -4.38271,-0.56669c-0.78664,0.12031 -0.82842,1.92132 -0.83426,2.79944c1.97993,-0.38427 3.95843,-0.7061 5.91136,-0.91277c-0.19585,-0.17105 -0.28808,-0.37911 -0.28808,-0.37911zM406.36769,187.92078l-0.01075,-0.21962c-2.65927,-2.71952 -3.75241,-0.28998 -4.4701,1.80715c1.59446,-0.36237 3.22025,-0.75126 4.86305,-1.13547c-0.26055,-0.17763 -0.38221,-0.45207 -0.38221,-0.45207zM397.62683,202.60849c-4.48512,3.34937 -2.9476,8.77876 2.33017,9.8915c0.64903,-0.23573 1.30718,-0.04827 1.30718,-0.04827c2.12851,0.61444 3.9739,1.55758 6.10041,2.13094l1.80534,0.49668c4.93451,-2.58827 10.29913,-4.25276 15.52813,-6.13835c-0.04709,-0.53752 0.12555,-0.98503 0.12555,-0.98503l0.32198,-0.55544c0.26394,-5.63275 -0.4073,-12.60876 -3.03271,-17.69956l-0.54843,0.1077c-6.52111,0.31046 -13.61061,2.33565 -19.95282,3.77543c0,0 -0.17183,0.03841 -0.42398,0.04065c-1.02725,2.71175 -1.3772,5.33821 -2.73591,7.51859c-0.05398,0.88632 -0.82488,1.46517 -0.82488,1.46517z" fill="#343434"></path>
          <g>
            <path d="M396.87834,212.98403c0.51772,-0.77239 -0.55663,-1.78087 -0.70698,-2.69849c-0.15252,-0.93088 -0.98082,-6.20181 -2.04363,-6.47763c-0.28646,-0.07435 -1.99832,0.85144 -3.21979,1.52046c0.06654,0.13411 0.1319,0.26811 0.19559,0.40204c-0.14789,-0.08559 -0.27272,-0.18931 -0.37804,-0.30206c-0.49021,0.26877 -0.87661,0.48092 -1.01706,0.54317c0,0 -0.66255,0.2937 -1.36024,0.12075c-6.09128,2.03422 -12.11141,4.22214 -18.25547,6.16774c-14.76776,4.67532 -29.45815,9.51549 -44.20264,14.23732c-0.28708,0.13879 -0.51883,0.18348 -0.51883,0.18348c-0.03573,0.00685 -0.07594,0.01388 -0.12027,0.02111c-0.09931,0.03178 -0.19863,0.06355 -0.29795,0.09531c-0.00665,-0.01642 -0.01349,-0.03261 -0.02055,-0.04857c-1.25067,0.17051 -3.96527,0.44368 -4.47047,0.98106c-0.51068,0.5432 0.45662,3.96032 0.62846,4.56822c1.14446,4.04875 1.64334,5.91745 5.80322,4.02072l0.40704,-0.11032c0.01601,-0.06465 0.03273,-0.14561 0.04475,-0.23792c14.70935,-5.75266 30.25928,-9.09705 44.71343,-15.51963c6.63806,-2.09865 13.26006,-4.501 19.96534,-6.40847l1.18134,-0.13803c0.03014,0.14135 0.06081,0.28267 0.09212,0.42392c1.42684,-0.42758 3.34747,-0.99631 3.58064,-1.34417zM395.28505,200.06575c3.56238,1.17845 4.98864,8.43013 5.13579,11.59885c0.05047,1.08663 0.4121,2.32324 -0.1402,3.26041c-1.03708,1.75977 -5.03782,2.64978 -6.84946,3.45404l-1.89066,0.8381c0,0 -1.26134,0.55915 -2.13597,-0.31987c-5.34479,1.64252 -10.65752,3.53581 -15.95869,5.21676c-13.68122,6.05061 -28.33453,9.37088 -42.31922,14.59864c-0.4308,0.64396 -1.21041,0.8448 -1.21041,0.8448l-1.43513,0.34216c-2.47056,1.07133 -5.60786,2.27279 -8.11684,0.27262c-0.75923,-0.60526 -0.92424,-1.70851 -1.35047,-2.58091c-1.47694,-3.02299 -4.04141,-9.25067 -1.53705,-12.39756c1.14603,-1.44004 4.92152,-1.95334 6.86631,-2.30563c14.87344,-4.74287 29.67708,-9.64833 44.56743,-14.36245c6.82652,-2.16064 13.49887,-4.621 20.2872,-6.83874c0.01788,0.05152 0.03621,0.10297 0.05495,0.15435c1.8534,-0.93424 4.4812,-2.28868 6.03241,-1.77554z" fill="#343434"></path>
            <path d="M393.36203,214.31707c-0.03131,-0.14126 -0.19049,-0.25951 -0.22064,-0.40086l-1.05299,0.11403c-6.70528,1.90748 -13.32616,4.32256 -19.96421,6.4212c-14.45415,6.42257 -30.12776,9.7955 -44.83712,15.54816c-0.01203,0.09231 0.08791,0.11462 0.0719,0.17926l-0.52359,0.16916c-4.15989,1.89674 -4.66266,0.0185 -5.80711,-4.03025c-0.17183,-0.60788 -1.14103,-4.03241 -0.63035,-4.57561c0.50521,-0.53738 3.34804,-0.8352 4.59871,-1.00571c0.00704,0.01596 0.01389,0.03206 0.02053,0.04847c0.09932,-0.03177 0.0704,-0.03899 0.16972,-0.07076c0.04432,-0.00722 0.08454,-0.01425 0.12027,-0.02111c0,0 0.23171,-0.04485 0.51879,-0.18363c14.74449,-4.72183 29.55235,-9.61176 44.32011,-14.28707c6.14408,-1.9456 12.16975,-4.12409 18.26103,-6.1583c0.69768,0.17296 1.36064,-0.11992 1.36064,-0.11992c0.14045,-0.06226 0.5268,-0.27453 1.017,-0.54329c0.1053,0.11274 0.1114,0.27077 0.25929,0.35636c-0.06369,-0.13395 -0.12872,-0.26719 -0.19525,-0.40131c1.22147,-0.66901 3.05172,-1.6499 3.33817,-1.57554c1.0628,0.27582 1.89501,5.55743 2.04751,6.48831c0.15034,0.91762 1.22573,1.93067 0.70803,2.70305c-0.23316,0.34786 -2.15358,0.91777 -3.58042,1.34535z" fill="#434343"></path>
          </g>
          <path d="M418.99204,186.09529c-1.95293,0.20667 -4.05789,0.54769 -6.03781,0.93196c0.00584,-0.87812 0.05884,-2.74364 0.84547,-2.86395c0.9373,-0.14334 4.49396,0.06925 4.49108,0.57932l0.41303,0.96484c0,0 0.09237,0.21677 0.2882,0.38783z" fill="#888888"></path>
          <path d="M406.8151,188.36951c-1.64281,0.38421 -3.39457,0.80029 -4.98902,1.16265c0.7177,-2.09713 1.93178,-4.57583 4.59105,-1.85631l0.01307,0.22608c0,0 0.12435,0.28996 0.3849,0.46758z" fill="#888888"></path>
          <path d="M397.56174,202.613c0,0 0.77077,-0.58553 0.82475,-1.47185c1.3587,-2.18038 1.72105,-4.84303 2.7483,-7.55477c0.25215,-0.00224 0.4248,-0.04177 0.4248,-0.04177c6.34221,-1.43978 13.52438,-3.47659 20.04549,-3.78705l0.54961,-0.10674c2.62541,5.0908 3.31439,12.14357 3.05045,17.77633l-0.32324,0.5581c0,0 -0.17464,0.45121 -0.12756,0.98873c-5.22899,1.88559 -10.66414,3.58078 -15.59865,6.16905l-1.81383,-0.49918c-2.1265,-0.57337 -3.99551,-1.53168 -6.12402,-2.14612c0,0 -0.66057,-0.19003 -1.3096,0.0457c-5.27777,-1.11274 -6.83171,-6.58106 -2.34659,-9.93043z" fill="#434343"></path>
          <path d="M406.76583,210.98903c-5.13535,-1.38577 2.48472,-10.77332 6.0688,-4.90799c2.36504,3.87036 -2.90402,7.55365 -6.0688,4.90799zM408.8972,209.98885c1.52054,0.3108 3.2388,-1.42292 2.26648,-2.88621c-1.37425,-2.06815 -3.71671,-0.05009 -4.06981,1.22847c0.35457,0.15898 0.51841,0.52854 0.51841,0.52854l0.11649,0.33491c0.00219,0.00302 0.00439,0.00606 0.00657,0.00907c0.05721,-0.00005 0.11838,-0.00341 0.1836,-0.01022c0,0 0.86103,-0.01065 0.97826,0.79544z" fill="#343434"></path>
          <path d="M417.81213,216.20348c0,0 0.0696,0.06025 0.18271,0.11873c-1.08875,2.40079 -3.64865,2.15117 -5.88207,1.64605c1.71662,-0.83971 3.60146,-1.6289 5.39012,-2.31346l0.30924,0.54869z" fill="#888888"></path>
          <path d="M422.57522,215.47637c-0.08798,0.00452 -0.83999,-0.6204 -1.47304,-1.1351c1.70229,-0.59886 3.53033,-1.22549 5.22008,-1.83448c0.06031,0.06659 0.13765,0.13256 0.22972,0.18066c0.10142,0.13998 0.20905,0.28877 0.31596,0.42433c-0.24299,1.75725 -2.05455,2.24966 -4.29273,2.36458z" fill="#888888"></path>
          <path d="M418.19429,185.25931c0.8268,0.52474 0.30204,1.35153 0.30204,1.35153l-0.41836,0.37775c3.21622,2.88188 6.03427,10.66609 0.20581,12.48913c-6.32358,1.715 -13.08552,2.34389 -19.4373,4.30721c-1.41434,0.91672 -3.00311,1.70071 -4.53534,2.65956c0,0 -0.67681,0.42354 -1.1906,-0.10538c-1.92915,0.87143 -3.80246,1.79602 -5.71676,2.67996c0.04093,0.90887 -0.88639,0.9977 -0.88639,0.9977l-0.50391,-0.05559c-6.53209,3.95427 -15.46731,5.45202 -22.81839,7.52986c-7.31717,2.04744 -14.23499,5.38421 -21.50557,7.54596c-0.22541,0.46459 -0.7981,0.51945 -0.7981,0.51945l-1.29283,0.11838c-0.40028,0.1285 -0.80055,0.257 -1.20082,0.3855c-6.8191,1.75488 -13.81445,3.16505 -20.54185,5.06584c0,0 -0.00289,0.00081 -0.00842,0.00221c-0.08418,0.05379 -0.17621,0.09449 -0.27264,0.12063l-0.99423,0.28092l-0.00664,-0.02351l-0.04227,0.03597c-0.52701,0.09225 -1.05334,0.18378 -1.57903,0.27535c-1.00436,0.47147 -2.21274,0.4585 -3.54092,0.68961c-2.13858,0.37214 -4.23644,0.88815 -6.3502,1.38208c-0.00324,0.04189 -0.00754,0.08464 -0.01293,0.12824l0.00001,-0.00001c-0.24058,1.94367 -2.18427,1.70308 -2.18427,1.70308l-0.70505,-0.09308c-3.01297,-0.1653 -5.69501,0.88422 -8.59291,1.57528c-7.66383,1.82761 -15.38259,2.84109 -22.1732,7.09705c0,0 -1.66022,1.03894 -2.69916,-0.62129c-1.03895,-1.66023 0.62129,-2.69916 0.62129,-2.69916c7.19584,-4.4966 15.23663,-5.65282 23.34696,-7.58782c3.28638,-0.78408 6.25742,-1.81301 9.67864,-1.67682l1.0046,0.11853c0,0 0.2781,0.03443 0.61089,0.18243c2.19754,-0.54637 4.40829,-0.99794 6.63166,-1.41104c0.24604,-0.04724 0.49221,-0.0926 0.73849,-0.13579c1.28616,-0.23414 2.57652,-0.45752 3.87097,-0.68096l-0.00291,-0.01302l1.87686,-0.41944c0.13769,-0.08184 0.2519,-0.11412 0.2519,-0.11412c6.72723,-1.90074 13.71697,-3.3059 20.53433,-5.06371c0.4499,-0.14066 0.89984,-0.28132 1.34974,-0.42198l0.70078,-0.0697c0.21288,-0.23467 0.5038,-0.31688 0.5038,-0.31688c7.56007,-2.11548 14.68665,-5.60773 22.25054,-7.76289c6.86622,-1.93911 15.93949,-3.28018 22.01067,-7.11156c0.11452,-0.44496 0.57426,-0.64875 0.57426,-0.64875c2.58442,-1.14566 5.05014,-2.40027 7.63777,-3.54734l1.08037,-0.47892c0,0 0.17069,-0.07566 0.39603,-0.08638c0.0749,-0.50184 0.59084,-0.73056 0.59084,-0.73056l0.99408,-0.43545c1.2156,-0.86363 2.75781,-1.64198 3.7955,-2.72723c0.69584,-0.72775 1.21,-1.63002 1.60857,-2.62561l0.02752,-0.22478c-0.23098,-0.39499 -0.05092,-0.86181 -0.05092,-0.86181c0.35578,-0.92237 0.76235,-1.81826 1.0684,-2.73714c0.15402,-0.78355 0.28947,-1.56533 0.43006,-2.31616l-0.11445,0.01096l-0.13176,-1.37541c-0.01787,-0.15274 0.00008,-0.31194 0.05927,-0.4654c0.19463,-0.50459 0.76147,-0.75586 1.26605,-0.56123c0.30272,0.11677 0.51427,0.36748 0.59305,0.65836l0.28091,0.99422l-0.05891,0.01665l0.08568,0.10921c0.01104,0.76578 -0.07259,1.48108 -0.21917,2.17224c-0.05238,0.74685 -0.27091,1.55571 -0.45483,2.23284c-0.11161,0.4109 -0.23371,0.80483 -0.36628,1.18346c0.31667,0.40959 0.10903,0.9479 0.10903,0.9479c-0.26171,0.67167 -0.57513,1.32572 -0.93306,1.95279c-0.25017,0.75227 -0.58599,1.40859 -0.98956,1.99284c5.26752,-1.21027 10.74734,-1.84559 15.7996,-3.35106c1.33244,-0.31026 1.41483,-1.09649 1.62905,-2.35651c0.6507,-3.82742 -1.62402,-4.97681 -3.26084,-8.25412l0.72328,-1.42099c0,0 0.52474,-0.8268 1.35153,-0.30204z" fill="#1f1f1f"></path>
          <path d="M425.54247,211.13643c-0.89525,0.39684 -1.29208,-0.4984 -1.29208,-0.4984l-0.3234,-0.92491c-0.03641,-3.87898 -1.98918,-5.31787 -4.66998,-7.63813c-3.09323,-0.59256 -5.39703,1.28441 -7.96965,2.61282c-2.44783,1.26398 -4.72195,2.61948 -7.06018,3.88344c0.29554,0.07403 0.59023,0.15662 0.88329,0.24724c0.05671,0.00618 0.11342,0.01257 0.17012,0.01915c0,0 0.26685,0.03303 0.50359,0.20432c3.32698,1.17829 6.35921,3.36431 7.91772,5.79748l0.30194,-0.09345c0,0 0.91364,0.35241 0.56123,1.26605l-0.00001,0.00001c-0.35241,0.91364 -1.26605,0.56123 -1.26605,0.56123l-1.25734,-0.6949c-0.53032,-0.87493 -1.33044,-1.72867 -2.30357,-2.50102c-0.06114,0.07597 -0.13986,0.15031 -0.23993,0.22094l0,0.00004c-0.80002,0.56472 -1.36474,-0.23531 -1.36474,-0.23531l-0.30088,-0.46267c-1.16956,-1.09526 -2.39974,-1.79956 -3.67171,-2.21473c-2.23877,-0.19791 -4.52189,-0.06371 -6.82767,0.14633c-0.2927,0.1556 -0.57125,0.33618 -0.83322,0.54327c0,0 -0.77225,0.60213 -1.37438,-0.17013c-0.01816,-0.02328 -0.03505,-0.04641 -0.05076,-0.06937c-1.14261,0.31191 -2.28451,0.66445 -3.41459,0.99778c-0.20186,0.31154 -0.5635,0.42603 -0.5635,0.42603l-1.2241,0.38597c-4.14665,1.83817 -7.802,4.63955 -12.19006,5.87937c-7.17474,2.00759 -16.58883,3.03141 -22.94414,6.95004c-6.76783,1.97312 -13.03226,5.04338 -19.99954,6.27341c-0.22005,0.12528 -0.43827,0.14619 -0.43827,0.14619l-1.28325,0.11638c-1.84523,0.62971 -3.54543,1.1109 -5.34482,1.90204c-6.52898,1.42692 -12.91592,4.06339 -19.37834,5.95024c-0.07735,1.3652 -1.54329,1.6928 -1.54329,1.6928l-1.36483,0.30192c-10.89056,3.077 -22.83181,6.86463 -34.1736,7.4332c0,0 -1.95606,0.09805 -2.05411,-1.858c-0.09805,-1.95606 1.858,-2.05411 1.858,-2.05411c11.04605,-0.55374 22.70049,-4.29443 33.30469,-7.29053l1.57554,-0.35519c0,0 0.92691,-0.20714 1.63402,0.31254c6.52506,-1.88191 12.94644,-4.4916 19.52853,-5.99284c1.85469,-0.82984 3.6365,-1.31426 5.54793,-1.95712l1.36853,-0.13708c0.17653,-0.09616 0.33383,-0.12354 0.33383,-0.12354c6.86985,-1.19544 12.932,-4.33525 19.6353,-6.15081c6.33711,-4.03261 15.99816,-4.99076 23.20531,-7.04429c4.31084,-1.21801 7.94728,-4.01684 12.02911,-5.82628l0.35093,-0.11152c0.20189,-0.35241 0.61501,-0.46912 0.61501,-0.46912c0.92535,-0.26145 1.85231,-0.53547 2.77807,-0.79875l0.80062,-0.51697c0.59641,-0.05715 1.19133,-0.11593 1.7848,-0.17296c0.724,-0.17529 1.44562,-0.33055 2.1635,-0.45444c0.97679,-0.31688 2.02364,-0.46326 3.10068,-0.46487c5.80728,-3.0305 12.74773,-9.21907 19.32988,-7.81677c3.35763,2.67028 5.71337,4.75036 5.78273,9.38045l0.15551,0.15545c0,0 0.39684,0.89525 -0.4984,1.29208z" fill="#1f1f1f"></path>
          <path d="M402.9126,202.52987c-5.77313,0.43657 -2.51763,-7.89379 2.01778,-7.49718c2.79965,0.24483 4.22246,4.18247 2.47521,6.31273c-0.85426,1.04154 -2.47123,1.17715 -3.67817,1.38846zM402.53122,200.64632c0.18911,-0.08837 0.3876,-0.09265 0.53906,-0.07476c0.16081,0.0126 0.36839,0.05981 0.54305,0.20041c0.6704,-0.08702 1.874,-0.18676 2.28162,-0.67302c0.6856,-0.81786 0.17446,-3.04985 -1.0554,-3.10985c-2.0505,-0.10003 -4.27001,3.98747 -2.30832,3.65722z" fill="#343434"></path>
          <g>
            <path d="M413.77618,204.65997c-0.0391,-0.01096 -0.07931,-0.02434 -0.12068,-0.04029c-0.91364,-0.35241 -0.56123,-1.26605 -0.56123,-1.26605l0.55478,-1.15103c1.12807,-1.0223 1.94401,-1.63367 3.09215,-2.12208c-1.56952,-0.32552 -2.92831,-1.11707 -3.33614,-2.25239c-0.39085,-0.14401 -0.57079,-0.54991 -0.57079,-0.54991l-0.1788,-0.88659c0.59594,-2.49127 1.6081,-3.66485 3.7389,-4.99169c4.21,-1.78589 9.08258,3.3473 5.90359,7.3271c-0.61426,0.76901 -1.60193,1.22685 -2.7028,1.41653c0.23129,0.12633 0.44975,0.27 0.65488,0.42849c2.69719,0.25196 3.33356,4.08906 1.92408,6.08468c-0.02125,0.03009 -0.04299,0.05939 -0.06518,0.08794c-0.52398,1.34351 -1.73765,2.373 -3.76458,2.503c-3.62959,0.23279 -5.45508,-2.19055 -4.56816,-4.58771zM416.75499,205.27627c0.4255,-0.13417 0.83496,0.1257 0.83496,0.1257l0.64203,0.45556c0.40769,-0.02519 1.6549,0.11926 2.15248,-0.14477c0.30185,-0.99293 0.05901,-2.24693 -0.60696,-3.12269c-1.00127,0.36764 -2.92471,1.83815 -3.02252,2.68618zM415.84737,196.67003c0.00054,-0.00038 0.00107,-0.00076 0.00162,-0.00115c0.80002,-0.56472 1.36473,0.2353 1.36473,0.2353l-0.34149,0.18161c0.00871,0.00616 0.01741,0.0125 0.02609,0.01903c0.81004,0.00228 2.2582,0.20647 2.89892,-0.37846c0.79556,-0.72631 1.02456,-2.92069 -0.35746,-3.10517c-1.56637,-0.20908 -4.13849,2.27003 -3.59242,3.04882z" fill="#343434"></path>
            <path d="M416.69554,205.30324c0.09781,-0.84803 2.10731,-2.40515 3.10858,-2.77278c0.66597,0.87577 0.92615,2.23764 0.62429,3.23057c-0.49758,0.26402 -1.81794,0.1297 -2.22563,0.15489l-0.66377,-0.47311c0,0 -0.41798,-0.27372 -0.84347,-0.13956z" fill="#888888"></path>
            <path d="M415.78946,196.70014c-0.54608,-0.77879 2.11928,-3.34293 3.68565,-3.13384c1.38203,0.18448 1.16651,2.47712 0.37094,3.20343c-0.64072,0.58493 -2.17905,0.3879 -2.98909,0.38562c-0.00868,-0.00653 0.06607,-0.11328 0.05736,-0.11944l0.26129,-0.07871c0,0 -0.58454,-0.82291 -1.38455,-0.25819c-0.00054,0.00039 0.11475,-0.05948 0.11421,-0.05909z" fill="#888888"></path>
            <path d="M407.96145,211.30635c-0.21752,0.15671 -0.45166,0.19744 -0.45166,0.19744c-5.18552,0.61098 -3.95544,-6.86137 0.05441,-7.77604c6.09576,-1.39048 8.84851,6.68213 2.12024,7.94311l-1.14298,-0.09874c0,0 -0.3286,-0.04068 -0.58,-0.26579zM408.03802,209.8185c0.32224,-0.24224 0.74402,-0.19004 0.74402,-0.19004l0.56664,0.11289c4.20523,-0.65514 2.28361,-4.88698 -1.28784,-4.11911c-1.73178,0.37233 -3.20479,4.62506 -0.88681,3.95204c0,0 0.52109,-0.09067 0.86399,0.24423z" fill="#343434"></path>
            <path d="M407.12613,209.61863c-2.31797,0.67302 -0.82048,-3.68501 0.91131,-4.05734c3.57145,-0.76786 5.53059,3.58866 1.32536,4.2438l-0.5871,-0.11165c0,0 -0.4438,-0.05837 -0.76602,0.18387c-0.3429,-0.3349 -0.88353,-0.25867 -0.88353,-0.25867z" fill="#888888"></path>
            <path d="M401.46405,200.04779c0.67732,0.16981 0.68676,0.93401 0.68676,0.93401c-0.3731,2.23721 3.66684,0.7696 4.39961,-0.35075c2.15619,-3.29669 -2.60165,-5.33075 -4.73244,-2.07474c-0.05023,0.31933 -0.10046,0.63866 -0.1507,0.95798zM400.21409,201.20524c-0.06912,-0.01302 -0.1421,-0.03373 -0.21906,-0.06341c-0.91364,-0.35241 -0.56123,-1.26605 -0.56123,-1.26605l0.34562,-0.8828c0.07043,-0.38049 0.14084,-0.761 0.21126,-1.14149c0.94491,-1.5136 2.38521,-3.2214 4.35973,-3.3069c3.56971,-0.15456 5.66531,4.23679 3.86103,7.12412c-1.89454,3.03179 -7.46963,3.56068 -7.99736,-0.46348z" fill="#343434"></path>
            <path d="M401.60204,199.51211c0.05023,-0.31933 0.1058,-0.66241 0.15603,-0.98174c2.13079,-3.256 7.0082,-1.16951 4.85201,2.12718c-0.73277,1.12036 -4.88673,2.59761 -4.51364,0.3604c0,0 -0.01952,-0.7899 -0.69684,-0.95972z" fill="#888888"></path>
            <path d="M407.31448,199.85365c-0.97183,-0.1203 -0.85154,-1.09214 -0.85154,-1.09214l0.08964,-0.25976c-0.10912,-0.54504 -0.34522,-1.07763 -0.67579,-1.5245c0,0 -0.56471,-0.80002 0.23531,-1.36474c0.80002,-0.56471 1.36474,0.23531 1.36474,0.23531c0.45797,0.67042 0.79788,1.43722 0.98711,2.22678l-0.05733,0.9275c0,0 -0.1203,0.97183 -1.09214,0.85154z" fill="#343434"></path>
          </g>
        </g>
      </g>
      <g stroke-width="0.5">
        <path d="M272.25378,258.74674l-0.05747,-0.42742c-0.30764,-2.17468 -0.86471,-4.39995 -2.09162,-6.22164c-0.09931,-0.14746 -0.11019,-0.3299 -0.21608,-0.46978c0.22797,0.05417 1.18135,0.22112 1.66427,-0.63472c4.03025,-0.37512 8.2044,0.92157 8.6464,5.30409c0.70826,7.02251 -3.83377,14.47702 -6.99494,20.40988c-5.28174,5.73539 -10.9154,5.90704 -17.69695,3.17565c-1.28856,-0.519 -2.81682,-0.8338 -3.72746,-1.88284c-2.251,-2.59313 -1.0336,-6.73909 -3.20218,-9.46652c-1.26098,-1.58593 -4.26188,-2.61658 -6.43642,-3.2301c0.3587,-2.68782 -0.10014,-5.96266 0.43387,-8.23987c1.19445,-5.0936 3.03281,-11.36274 5.03354,-16.2378c0.771,-1.87866 1.86152,-2.54374 1.86018,-4.69325c1.09034,-1.18602 2.57433,-1.98182 3.66326,-3.16998c0.54972,-0.59981 1.25943,-2.76642 2.21422,-3.33782c5.5862,-3.34304 11.75183,3.80011 11.36891,9.31551c-1.32397,-0.30617 -1.76914,1.1282 -1.76914,1.1282l-0.13138,0.44687c-0.35278,1.16547 -0.827,2.34891 -1.30312,3.43546c0.07951,-2.76879 0.20863,-4.75146 -1.06822,-7.23234c0,0 -0.70041,-1.32313 -2.02413,-0.6176c-1.32372,0.70552 -0.61322,1.92938 -0.61322,1.92938c1.03455,1.84848 0.80787,3.52465 0.72644,5.60574c-0.26596,-0.15519 -0.54289,-0.25169 -0.8511,-0.2341c-0.00179,0.00011 -0.00358,0.0002 -0.00537,0.00032c-0.05633,-0.01723 -0.11259,-0.03457 -0.17012,-0.05209l-0.11534,0.05284l0.01126,-0.07285l-1.95418,-0.30449c-0.31423,-0.0522 -0.64399,-0.00571 -0.94681,0.15569c-0.73107,0.38965 -1.0314,1.20108 -0.64176,1.93214c0.23376,0.43857 0.6581,0.71272 1.11501,0.7785l1.70261,0.26181c0.28659,0.51538 1.03975,0.60784 1.54882,0.9179l0.95157,1.07206c0,0 0.55536,0.60882 1.28974,0.52232c0.23972,0.20218 0.58803,0.38143 1.02848,0.32852c2.25882,3.34943 5.2554,5.13197 5.82569,9.73947l0.05678,0.43084c0,0 0.10259,1.4583 1.58941,1.25993c1.48682,-0.19838 1.28661,-1.6779 1.28661,-1.6779z" fill="#b7b7b7"></path>
        <path d="M243.85572,234.29325c3.06695,1.21212 -1.02538,7.79376 -1.65045,10.21633c-1.01644,3.93941 -2.82258,7.8503 -3.75024,11.77591c-1.19112,5.04051 1.4992,11.94817 -6.09208,10.48934c-0.71985,-0.13834 -1.42458,-0.37132 -2.13396,-0.55602c0,0 -0.06952,-0.01801 -0.18561,-0.03449c-2.961,-10.71898 1.59754,-21.82108 4.81847,-32.09167c0.88336,-0.11038 1.3298,-0.65643 1.55,-1.15557c2.55185,0.17492 4.80619,0.55066 7.44385,1.35618z" fill="#b7b7b7"></path>
        <path d="M260.42184,265.52973c1.23262,0.85476 0.37786,2.08739 0.37786,2.08739l-0.60101,0.86409c-1.42207,2.25051 -2.43146,4.58578 -3.79478,6.86378c0,0 -0.77209,1.28604 -2.05813,0.51394c-1.28604,-0.77209 -0.51394,-2.05813 -0.51394,-2.05813c1.37991,-2.29056 2.39967,-4.64214 3.82821,-6.91815l0.67438,-0.97509c0,0 0.85476,-1.23262 2.0874,-0.37785z" fill="#6b6b6b"></path>
        <path d="M266.20168,260.19973c1.22302,0.86846 0.35455,2.09147 0.35455,2.09147l-0.30598,0.29795c-0.99483,3.19679 -2.65676,6.50589 -4.3866,9.39263c0,0 -0.77209,1.28604 -2.05812,0.51395c-1.28604,-0.77209 -0.51394,-2.05813 -0.51394,-2.05813c1.59743,-2.65546 3.21442,-5.77399 4.08889,-8.72274l0.72971,-1.16058c0,0 0.86847,-1.22303 2.09148,-0.35455z" fill="#6b6b6b"></path>
        <path d="M271.01461,260.44046c-1.48682,0.19838 -1.68521,-1.28844 -1.68521,-1.28844l-0.05724,-0.42896c-0.57029,-4.60749 -3.54324,-6.33602 -5.80206,-9.68545c-0.44046,0.05291 -0.7832,-0.12357 -1.02293,-0.32574c-0.73438,0.08651 -1.28203,-0.51975 -1.28203,-0.51975l-0.94543,-1.07096c-0.50907,-0.31007 -1.25424,-0.40223 -1.54084,-0.91762l-1.69484,-0.26277c-0.45689,-0.06578 -0.8774,-0.34087 -1.11115,-0.77945c-0.38965,-0.73107 -0.11287,-1.6396 0.6182,-2.02925c0.30282,-0.1614 0.63608,-0.20846 0.95032,-0.15625l1.96143,0.3041l-0.01129,0.07286l0.11579,-0.05283c0.05754,0.01753 0.11446,0.03488 0.17079,0.05212c0.00179,-0.00011 0.00359,-0.0002 0.00539,-0.00032c0.3082,-0.01759 0.58845,0.07915 0.85442,0.23433c0.08143,-2.08107 0.30088,-3.65759 -0.73368,-5.50605c0,0 -0.70552,-1.32372 0.6182,-2.02925c1.32372,-0.70552 2.02925,0.6182 2.02925,0.6182c1.27685,2.48089 1.15596,4.46566 1.07645,7.23445c0.47613,-1.08657 0.91708,-2.1757 1.26986,-3.34117l0.16485,-0.5411c0,0 0.40863,-1.34136 1.73261,-1.03518c0.38291,-5.51539 -5.7559,-12.65493 -11.3421,-9.31188c-0.95479,0.57139 -1.65912,2.73694 -2.20885,3.33675c-1.08893,1.18816 -2.56384,1.98068 -3.65416,3.16669c0.00134,2.14951 -1.08099,2.8097 -1.85199,4.68836c-2.00073,4.87504 -3.81877,11.10216 -5.01322,16.19576c-0.534,2.2772 -0.08076,5.53077 -0.43946,8.21858c2.17455,0.61352 5.16401,1.62959 6.42499,3.21552c2.16858,2.72742 0.93441,6.8637 3.18542,9.45683c0.91064,1.04905 2.43039,1.36175 3.71895,1.88075c6.78155,2.73141 12.37901,2.56812 17.66074,-3.16728c3.16117,-5.93286 7.68174,-13.34589 6.97349,-20.36841c-0.442,-4.38252 -4.61187,-5.65944 -8.64213,-5.28432c-0.48291,0.85585 -1.43614,0.68924 -1.66411,0.63508c0.10589,0.13988 0.20878,0.28323 0.3081,0.43069c1.2269,1.82169 1.78705,4.0725 2.09468,6.24716l0.05724,0.42896c0,0 0.19838,1.48682 -1.28845,1.6852zM249.96622,230.17044c1.16562,-1.26826 1.67177,-3.19475 3.12973,-4.11208c8.601,-5.41156 17.22682,3.90061 17.65479,12.09436c0.16643,3.18638 -1.37554,6.06252 -2.34493,9.08553c6.79809,-1.58807 14.87201,0.56323 15.97175,8.51941c1.10187,7.97161 -4.0445,16.6948 -7.7325,23.38513c-6.59566,7.204 -14.06574,8.20631 -22.78522,4.6187c-1.86984,-0.76935 -3.94661,-1.47377 -5.27122,-3.0014c-2.51216,-2.89718 -1.2387,-6.94354 -3.29081,-9.582c-0.75987,-0.97698 -3.60641,-1.65621 -4.92049,-1.97837c-2.93925,2.91971 -7.61751,2.01551 -11.19501,1.09995c0,0 -0.68692,-0.17724 -1.16589,-0.72352c-1.40213,-0.05793 -1.84358,-1.54874 -1.84358,-1.54874c-2.76974,-9.62636 -0.13746,-21.99101 2.8072,-31.39748c0.87688,-2.80111 2.34172,-5.13298 3.04398,-7.94345l2.15409,0.59328l0.43819,-0.64952c3.94791,0.13371 7.0899,0.59655 10.87358,1.78024c1.10339,0.66666 1.91496,1.0281 2.50917,1.45396c0.68713,-0.53234 1.3817,-1.05692 1.96721,-1.69399zM236.413,232.98706c-0.2202,0.49915 -0.66157,1.04482 -1.54494,1.1552c-3.22093,10.27059 -7.76694,21.27671 -4.80594,31.9957c0.11608,0.01647 0.18513,0.0343 0.18513,0.0343c0.70937,0.18472 1.40825,0.41581 2.1281,0.55414c7.59127,1.45882 4.87663,-5.44895 6.06775,-10.48946c0.92765,-3.9256 2.70892,-7.75412 3.72536,-11.69352c0.62507,-2.42257 4.73313,-8.99271 1.66616,-10.20482c-2.63766,-0.80553 -4.86977,-1.17662 -7.42162,-1.35152z" fill="#6b6b6b"></path>
      </g>
      <g stroke-width="0.5">
        <path d="M361.77209,253.13373c-1.9203,0.03333 -3.48168,0.69406 -5.45382,0.22558c-0.65486,-0.15556 -1.28225,-0.40415 -1.91041,-0.65102c-0.01886,0.37896 -0.07841,0.82772 -0.19037,1.44864l-0.00001,-0.00001c-0.13257,0.73516 -0.24832,1.49802 -0.59134,2.16162c-0.12924,0.25 -0.92972,0.20399 -0.73802,0.41003c0.20274,0.21789 0.5444,-0.27898 0.84136,-0.29897c1.2241,-0.08246 2.4509,0.13794 3.67776,0.14479c4.63534,0.02589 8.1715,-0.90133 12.55213,-2.04085c2.06982,-0.53841 3.07909,-0.67199 4.66057,-2.23662c0.04861,-1.23552 0.32178,-2.38121 0.52811,-3.5642c-4.09688,2.40487 -8.74896,4.32069 -13.37595,4.401zM378.36845,254.349l-0.81679,0.66438c-5.31114,5.91452 -12.53801,7.04895 -20.23294,6.71339c-2.69051,-0.11733 -6.58744,0.59712 -8.00225,-2.6163c-0.08935,-0.20293 -0.1276,-0.41599 -0.13547,-0.63505c-0.21005,-0.24161 -0.30455,-0.48139 -0.30455,-0.48139l-0.12685,-1.52002c0.41902,-0.96418 0.84301,-1.92627 1.27482,-2.8848c0.21706,-2.05103 -0.63517,-1.81573 -1.32976,-3.69255c-0.63193,-1.70755 -0.30902,-4.26612 0.01989,-6.01483c0.55009,-2.92469 2.70216,-5.79424 2.92178,-8.73592c0.0435,-0.58269 -0.28785,-1.16288 -0.20349,-1.74105c0.21775,-1.49237 1.05997,-1.48784 0.83482,-2.91469c-0.65085,-4.12454 -5.42324,-5.31135 -7.66153,-8.45145c-1.46059,-3.63844 -2.20749,-6.76206 -1.27648,-10.52539c0.32576,-1.31681 0.29227,-2.83838 1.1215,-3.91193c1.60297,-2.07526 4.63292,-3.18595 7.26723,-2.82397c0.52446,-3.33332 2.75817,-6.90712 6.21216,-7.3843c1.59489,-0.22033 3.17275,0.26207 4.64693,0.90101c0.77315,-2.51066 2.35185,-4.14535 5.93916,-4.6384l1.2182,0.07187c0,0 0.98276,0.08689 1.28376,0.91676c0.55872,0.18693 1.07486,0.49842 1.5127,0.95589c1.08066,1.12912 1.04838,2.77243 1.1238,4.37537c0.7773,0.13672 1.09964,0.95459 1.09964,0.95459c1.52655,4.2681 4.38132,0.78857 7.42845,1.83381c1.34317,0.46073 2.29466,2.01679 3.06606,3.09776c3.43151,4.80869 4.16349,11.54752 3.68234,17.28858c-0.49666,5.61641 -1.04673,10.7947 -2.90757,16.09954c-0.76228,2.17312 -1.95157,3.17012 -3.38505,4.74321c-2.03103,2.22886 -2.44026,4.80102 -2.69087,7.63489l-0.5694,1.50336c0,0 -0.19527,0.44934 -0.61942,0.72281c-0.1674,0.30771 -0.39079,0.49479 -0.39079,0.49479zM366.3772,200.72073c-0.02218,0.02803 -0.04453,0.05588 -0.06707,0.08358l0.01453,0.00895l-0.12323,0.20016c-0.14057,1.27497 0.0808,2.91315 0.34026,3.98196c1.09592,0.87517 2.18417,1.7615 3.3116,2.62651c3.63247,2.86967 7.78071,0.53537 11.3216,2.73366c0.35947,0.22317 0.68764,0.45598 0.98737,0.69783c-0.07261,-0.12079 -0.1499,-0.23861 -0.23212,-0.35326c-0.76503,-0.67943 -1.35709,-1.59817 -2.26288,-2.07401c-2.27895,-1.1972 -5.07072,-0.53022 -7.287,-1.94771c-0.95992,-0.61395 -2.43536,-2.17182 -2.87483,-3.24924c-0.29116,-0.71381 0.06064,-3.40357 -0.85076,-3.93222c-0.61308,-0.3556 -1.08774,-0.44012 -1.45037,-0.32937c-0.28757,0.60477 -0.54581,1.19756 -0.82709,1.55315zM354.81284,216.25139c-0.88826,-0.07857 -1.20176,-0.63847 -1.30994,-1.07966c-0.9096,-0.88254 -1.74769,-1.89928 -2.07448,-3.09501c-0.23139,-0.84668 0.31734,-1.46599 -0.69111,-1.83012c-4.42741,-1.59864 -3.48126,5.82235 -2.80928,7.70622c1.08087,3.03019 6.17133,3.86181 8.03619,6.33043c0,0 0.05295,0.0741 0.1145,0.19884c0.80243,0.35269 1.46653,0.91879 1.76616,2.34978c0.30372,1.4505 -0.52011,2.93351 -0.51905,4.41545l-0.2406,2.73506c0,0 -0.02575,0.29122 -0.18309,0.60515c0.22189,1.99301 0.14885,3.55909 -0.8261,5.44893c-1.27419,2.46988 -4.51963,4.97251 -2.53258,7.55813l0.03524,0.07602c7.50773,2.01878 14.72334,-0.09373 21.2932,-3.67222c1.47387,-0.80279 3.08856,-1.61081 4.11226,-3.08637c1.02136,-1.47219 1.50355,-3.50775 2.47849,-5.07039c1.41429,-5.27184 1.35807,-9.41652 1.07149,-14.82645c-0.18005,-3.39887 0.24386,-5.87608 -2.98026,-8.13527c-1.21333,-0.85019 -3.28679,-0.12002 -4.66259,-0.24035c-2.84862,-0.24915 -4.61317,-0.94662 -6.86533,-2.6384c-0.91794,-0.70568 -1.81899,-1.42113 -2.7183,-2.13498c-0.9346,-0.00503 -1.31644,-0.97384 -1.31644,-0.97384c-0.01253,-0.03218 -0.02498,-0.06474 -0.03736,-0.09768c-0.70303,-0.5533 -1.40962,-1.10216 -2.12699,-1.64122c-0.86349,-0.64885 -1.26007,-1.8048 -2.13628,-2.43638c-2.01673,-1.45368 -2.772,3.68671 -2.76223,4.50873c0.05024,4.22699 4.34623,8.18074 8.41889,9.4284c0.80378,-0.0714 1.60283,-0.12962 2.35867,0.07679l0.04241,-0.03335c0,0 1.39552,-0.55002 1.94554,0.84549c0.19975,0.50682 0.1429,0.90212 -0.01052,1.20006c0.07079,0.48212 0.05824,1.00468 0.10377,1.47232c0.23307,2.39369 -0.10044,4.9676 -0.11124,7.39236c0,0 -0.00761,1.49998 -1.5076,1.49236c-1.49998,-0.00761 -1.49236,-1.5076 -1.49236,-1.5076c0.01061,-1.8746 -0.01488,-3.68081 -0.04573,-5.53184c-0.01099,-0.65887 0.57569,-1.47119 0.51076,-2.06075l-0.09116,0.02731c-0.81426,-0.07985 -1.64518,-0.25116 -2.47377,-0.50381c-0.96803,0.05475 -1.90762,0.12964 -2.11463,0.09193c-2.44279,-0.44487 -5.14351,-1.40898 -7.37433,-2.89963c0.00992,-0.15349 0.02053,-0.30694 0.03184,-0.46034c-0.09507,0.00648 -0.19693,0.00551 -0.30605,-0.00415z" fill="#6b6b6b"></path>
        <path d="M382.20473,211.07975c-0.29974,-0.24185 -0.62769,-0.47499 -0.98715,-0.69816c-3.5409,-2.19828 -7.77534,0.13461 -11.4078,-2.73506c-1.12743,-0.86501 -2.22197,-1.78046 -3.31788,-2.65563c-0.5603,-2.30797 -0.92378,-7.306 2.13212,-5.53344c0.9114,0.52865 0.63387,3.28235 0.92502,3.99617c0.43945,1.07741 1.90592,2.57476 2.86584,3.18871c2.21627,1.4175 4.92836,0.76492 7.20731,1.96212c0.90581,0.47584 1.58587,1.44185 2.3509,2.12129c0.08222,0.11464 0.15905,0.23322 0.23166,0.35403z" fill="#b7b7b7"></path>
        <path d="M354.16282,250.89109c7.40673,1.51747 14.69734,-0.36091 21.28265,-3.7934l-0.05309,0.153c-0.14689,1.73315 -0.65421,3.31223 -0.72248,5.04757c-1.58147,1.56463 -2.59486,1.71683 -4.66469,2.25524c-4.38063,1.13951 -8.00413,2.07472 -12.63948,2.04884c-1.22685,-0.00685 -2.45825,-0.23571 -3.68234,-0.15326c-0.29696,0.02 -0.63869,0.51669 -0.84143,0.29879c-0.1917,-0.20604 0.60863,-0.16042 0.73787,-0.41042c0.34302,-0.66359 0.45618,-1.43484 0.58875,-2.16999c0.30067,-1.66746 0.22253,-2.10933 -0.00576,-3.27633z" fill="#b7b7b7"></path>
        <path d="M355.17351,216.06919c-0.01767,0.22624 -0.11125,0.38942 -0.12589,0.61592c2.23081,1.49065 4.94885,2.44067 7.39163,2.88555c0.20702,0.0377 1.16688,-0.04232 2.13491,-0.09707c0.8286,0.25265 1.68529,0.43002 2.49954,0.50986l0.09176,-0.02697c0.06492,0.58956 -0.51368,1.40751 -0.5027,2.06638c0.03085,1.85105 0.04872,3.73851 0.03812,5.6131c0,0 -0.06139,1.4158 1.4386,1.4234c1.49998,0.00761 1.49508,-1.47966 1.49508,-1.47966c0.01079,-2.42476 0.3466,-4.93925 0.11353,-7.33294c-0.04553,-0.46762 -0.02731,-0.98422 -0.0981,-1.46634c0.15342,-0.29793 0.21397,-0.69022 0.01422,-1.19705c-0.55002,-1.39552 -1.93433,-0.83927 -1.93433,-0.83927l-0.04225,0.03341c-0.75584,-0.20641 -1.54051,-0.1449 -2.3443,-0.07349c-4.07267,-1.24766 -8.38561,-5.29669 -8.43584,-9.52368c-0.00977,-0.82202 0.75495,-5.96565 2.77168,-4.51197c0.8762,0.63158 1.27664,1.78678 2.14014,2.43563c0.71737,0.53906 1.42927,1.08741 2.1323,1.6407c0.01238,0.03293 0.02492,0.06548 0.03744,0.09766c0,0 0.38572,0.96879 1.32033,0.97382c0.89931,0.71386 1.80986,1.43054 2.7278,2.13622c2.25216,1.69179 4.03838,2.40032 6.88702,2.64948c1.3758,0.12033 3.45602,-0.60265 4.66936,0.24754c3.22413,2.25919 2.80974,4.75791 2.98979,8.15679c0.28659,5.40993 0.33469,9.59205 -1.0796,14.86389c-0.97495,1.56265 -1.46573,3.60772 -2.4871,5.07991c-1.0237,1.47556 -2.64808,2.29006 -4.12193,3.09284c-6.56985,3.57849 -13.82981,5.69163 -21.33754,3.67285l-0.03534,-0.07607c-1.98705,-2.58561 1.25594,-5.08951 2.53014,-7.55939c0.97496,-1.88983 1.04184,-3.45991 0.81995,-5.45292c0.15735,-0.31393 0.1824,-0.60571 0.1824,-0.60571l0.23514,-2.74005c-0.00106,-1.48194 0.81231,-2.98173 0.5086,-4.43222c-0.29963,-1.431 -0.96687,-2.01328 -1.7693,-2.36597c-0.06155,-0.12474 -0.11452,-0.19999 -0.11452,-0.19999c-1.86485,-2.46863 -6.95215,-3.31795 -8.03302,-6.34814c-0.67198,-1.88389 -1.60666,-9.32267 2.82074,-7.72403c1.00845,0.36413 0.53198,1.05253 0.76339,1.89921c0.39276,1.43712 1.52621,2.6132 2.63257,3.61096c0.35888,0.11552 0.71674,0.23226 1.07561,0.34778z" fill="#b7b7b7"></path>
      </g>
    </g>
  </g>
</svg>
