<?xml version="1.0" encoding="UTF-8"?>
<svg xmlns="http://www.w3.org/2000/svg" xmlns:xlink="http://www.w3.org/1999/xlink" version="1.1" width="287.27756" height="220.49946" viewBox="0,0,287.27756,220.49946">
  <g transform="translate(-78.47468,-56.21436)">
    <g stroke="none" stroke-miterlimit="10">
      <g stroke-width="0.5">
        <path d="M184.29128,183.4564c0,-0.63106 0.23381,-1.2075 0.61954,-1.64743c0.04267,-0.30868 0.08786,-0.61554 0.13552,-0.92043c-0.11233,-0.28428 -0.17404,-0.59408 -0.17404,-0.91829c0,-0.61634 0.22304,-1.18058 0.5928,-1.61643c0.00622,-7.09398 1.99246,-13.29301 4.85584,-19.74363c0.696,-1.56795 1.52969,-4.25532 2.57662,-5.6669c0.59833,-0.80673 4.00107,-3.92381 4.78764,-4.82442c2.16945,-2.48398 4.15418,-5.33363 6.48481,-7.65528c2.95801,-2.94662 6.83359,-5.30916 10.17258,-7.81341c0,0 1.38168,-1.03627 2.70954,-0.23776c4.79281,-2.35035 9.88425,-2.84319 14.96661,-4.23694c7.09966,-1.94697 15.30409,-4.81535 22.611,-1.61783c0.9876,0.43218 1.70257,1.32944 2.61801,1.89873c2.33331,1.45103 5.09122,2.11529 7.46381,3.43337c1.88949,1.0497 3.54594,2.47886 5.39941,3.59094c2.17793,1.62974 5.17419,3.08644 7.17924,4.80348c0.83622,0.7161 1.30162,1.77976 2.02982,2.60546c2.84971,3.23125 6.05536,5.90977 8.37237,9.62011c2.08409,3.33736 3.0174,7.18425 4.76122,10.66189c1.12372,2.24101 2.4225,4.44178 3.08176,6.86051c1.87662,6.88496 1.26102,14.70797 1.23362,21.80498c-1.96465,10.02085 -6.52976,19.22621 -12.66127,27.3616c-0.65438,0.86825 -3.95384,3.87198 -4.78769,4.82445c-0.80896,0.92403 -2.83958,4.01056 -3.60703,4.77801c-2.84089,2.84087 -6.44484,4.11382 -9.74984,6.16912c-0.91544,0.56929 -1.63385,1.4588 -2.61803,1.8987c-1.75799,0.78577 -3.75238,0.98082 -5.47654,1.83828c-5.30866,0.92359 -9.318,1.20999 -14.31296,0.4397l-0.83048,0.25904c-9.0662,-1.61307 -17.87728,-2.46028 -26.2575,-6.65039c-3.88791,-1.96141 -6.40596,-4.40403 -9.36512,-7.44064c-1.49752,-1.53671 -2.31834,-1.41801 -4.13528,-2.51063c-3.03494,-1.82505 -6.70509,-4.26254 -9.22834,-6.78579c-7.78779,-7.7878 -10.07247,-20.37954 -9.14401,-31.36705c-0.1936,-0.35505 -0.30362,-0.76223 -0.30362,-1.19511zM239.66468,233.82982l2.8144,0.04855c0.31507,0.06301 0.62379,0.12166 0.92695,0.17608l1.85937,-0.67736c0,0 2.11821,-0.70606 3.01828,1.21815c2.54657,0.08502 4.99577,-0.16252 8.03868,-0.64288c1.56273,-0.78572 3.38174,-0.94163 4.98195,-1.64791c0.78589,-0.34687 1.3028,-1.13042 2.0302,-1.58741c2.9561,-1.85718 6.29795,-2.90641 8.84298,-5.45141c1.32794,-1.32792 2.12894,-3.10482 3.36526,-4.51845c1.39354,-1.59339 3.24355,-2.77492 4.50877,-4.47201c5.55736,-7.45428 9.86979,-15.78368 11.74182,-24.93073c-0.02974,-6.49818 0.62851,-13.73099 -1.09045,-20.02894c-0.57229,-2.09677 -1.75865,-3.97698 -2.7285,-5.92205c-1.66389,-3.33699 -2.53788,-7.06246 -4.53524,-10.25505c-2.17292,-3.4732 -5.25112,-5.92383 -7.89639,-8.97277c-0.54801,-0.63163 -0.8217,-1.49813 -1.45628,-2.04272c-1.8874,-1.61974 -4.6956,-2.93672 -6.76544,-4.49298c-1.7393,-1.04358 -3.28599,-2.39629 -5.05909,-3.38136c-2.43356,-1.35199 -5.24939,-2.03526 -7.64282,-3.53894c-0.72742,-0.457 -1.24796,-1.23243 -2.03022,-1.58746c-5.98406,-2.71585 -13.46947,0.30734 -19.22288,1.86837c-4.74185,1.28656 -9.6545,1.6281 -14.08128,3.89571c0,0 -1.21514,0.60756 -2.30176,0.03115c-3.03885,2.23822 -6.57853,4.3701 -9.22264,7.02607c-2.25811,2.26823 -4.18107,5.03645 -6.29784,7.4514c-1.3953,1.59184 -3.22629,2.7879 -4.50872,4.47199c-0.51018,0.66996 -1.92377,4.45935 -2.07161,4.79159c-2.70115,6.07047 -4.41523,11.72053 -4.441,18.39607c-2.08491,10.63422 -1.45276,25.14245 6.83329,33.4285c3.04984,3.04983 7.02575,4.91832 10.58607,7.1945c4.04413,2.58549 6.37552,6.39578 10.84322,8.60596c3.48754,1.74376 6.35989,2.22506 10.05277,3.32585c2.77514,0.82722 5.30469,1.94451 8.24938,2.23264c0.6014,0.05884 1.20643,0.09721 1.8113,0.1372c0.46542,-0.14936 0.84749,-0.14936 0.84749,-0.14936z" fill="#c19e4b"></path>
        <path d="M238.8154,234.02915c-0.60487,-0.03999 -1.21165,-0.07845 -1.81306,-0.13729c-2.94469,-0.28813 -5.48245,-1.40669 -8.25758,-2.23391c-3.69288,-1.10079 -6.57504,-1.58557 -10.06258,-3.32934c-4.4677,-2.21018 -6.81054,-6.02801 -10.85466,-8.6135c-3.56032,-2.27618 -7.5443,-4.1537 -10.59413,-7.20353c-8.28606,-8.28605 -8.92704,-22.82606 -6.84213,-33.46028c0.02577,-6.67555 1.74455,-12.34374 4.4457,-18.41422c0.14784,-0.33225 1.56385,-4.12613 2.07403,-4.79609c1.28243,-1.68409 3.11695,-2.88523 4.51225,-4.47707c2.11677,-2.41494 4.04645,-5.19016 6.30456,-7.45839c2.64412,-2.65598 6.19322,-4.79423 9.23207,-7.03245c1.08662,0.5764 2.30359,-0.03206 2.30359,-0.03206c4.42678,-2.26761 9.35341,-2.61336 14.09525,-3.89993c5.7534,-1.56103 13.25747,-4.58345 19.24154,-1.8676c0.78226,0.35503 1.305,1.13102 2.03241,1.58802c2.39343,1.50367 5.21695,2.1898 7.65051,3.54179c1.7731,0.98506 3.32504,2.34064 5.06434,3.38422c2.06985,1.55626 4.88449,2.87803 6.77189,4.49777c0.63458,0.54459 0.91006,1.41272 1.45807,2.04436c2.64527,3.04893 5.73096,5.50873 7.90388,8.98193c1.99736,3.19259 2.87623,6.92803 4.54012,10.26502c0.96985,1.94508 2.15797,3.83139 2.73026,5.92815c1.71897,6.29796 1.06112,13.5502 1.09086,20.04837c-1.87203,9.14705 -6.19582,17.5004 -11.75318,24.95469c-1.26522,1.69708 -3.1195,2.88299 -4.51304,4.47639c-1.23632,1.41362 -2.04134,3.19381 -3.36928,4.52173c-2.54503,2.54501 -5.89526,3.5992 -8.85136,5.45638c-0.7274,0.45699 -1.24643,1.24148 -2.03233,1.58835c-1.60021,0.70628 -3.42379,0.86382 -4.98652,1.64954c-3.04291,0.48036 -5.49941,0.72953 -8.04598,0.64451c-0.90007,-1.92422 -3.021,-1.21783 -3.021,-1.21783l-1.86121,0.67749c-0.30316,-0.05442 -0.61277,-0.11303 -0.92784,-0.17604l-2.81713,-0.04853c0,0 -0.38289,-0.00002 -0.8483,0.14934z" fill="#ffce66"></path>
      </g>
      <path d="M225.3933,207.515c8.53552,4.3266 21.55932,6.63201 30.20621,1.44343c0.37633,-0.2986 0.75266,-0.59718 1.12899,-0.89578l0.95603,-1.20972c0,0 0.72975,-0.91217 1.70624,-0.48259l0.7394,-1.60339c0.53333,0.17777 1.06667,0.35555 1.6,0.53332c4.28795,1.4293 9.71078,2.71521 13.05937,5.90534c1.61462,1.53822 2.67136,4.65272 0.50741,6.52472c-2.279,1.97153 -8.48696,-0.31472 -11.25937,-1.447c1.93528,3.04538 2.95806,6.82904 -1.58137,8.15221c-2.27777,0.66394 -5.9237,-0.74219 -7.7235,-2.12992c-0.54722,-0.42194 -1.59604,-1.58052 -2.17015,-2.3401c-0.08208,0.36661 -0.20676,0.72034 -0.25097,0.98601c-1.12718,3.28232 -4.49558,7.17947 -8.4333,4.61166c-0.32739,-0.21349 -1.72579,-2.60773 -2.04205,-3.13482c-0.14939,-0.24898 -0.34311,-0.73737 -0.47155,-1.17027c-0.34535,0.43868 -1.04491,0.8937 -1.47046,1.15144c-2.02007,1.22348 -6.01109,2.89684 -8.04544,0.48819c-0.59275,-0.70181 -0.77355,-1.52322 -0.71601,-2.37669c-3.12194,1.8493 -6.54263,3.37565 -10.11216,2.01581c-1.9972,-0.76085 -2.83584,-2.27305 -2.76271,-3.85322c-2.25677,0.70361 -4.59134,1.0572 -6.84234,0.45363c-2.40134,-0.64389 -3.87193,-1.25627 -2.66505,-4.353c0.11268,-0.28912 2.79239,-1.94754 3.28909,-2.19652c3.40807,-1.70833 6.98924,-3.26109 10.55619,-4.60227c0,0 0.4524,-0.16965 0.93996,-0.05963c0.70251,-0.98835 1.85753,-0.41085 1.85753,-0.41085z" fill="#292f33" stroke-width="0.5"></path>
      <path d="M289.03905,170.03233l-0.0796,-0.04366l-0.45169,0.60226c-0.45492,0.62045 -1.18915,1.02329 -2.01746,1.02329c-1.38071,0 -2.5,-1.11929 -2.5,-2.5c0,-0.41989 0.10352,-0.8156 0.28642,-1.16301l0.15651,-0.31302l-0.29175,-0.29175l0.87522,-0.87521l0.39956,-0.79913c0,0 0.88069,-1.76139 2.64208,-1.37594c0.05782,-0.004 0.11618,-0.00603 0.17501,-0.00603c1.38071,0 2.5,1.11929 2.5,2.5c0,0.57191 -0.19204,1.09896 -0.51515,1.52019l-0.04577,0.06103c-0.1984,1.03768 -1.13337,1.66098 -1.13337,1.66098z" fill="#363636" stroke-width="0.5"></path>
      <path d="M222.5041,174.61149c0.99037,0 1.84623,0.57587 2.251,1.41103c0.83518,0.40476 1.41108,1.26064 1.41108,2.25102c0,1.07264 -0.67553,1.9875 -1.62436,2.34236l2.20538,-0.01827c-0.078,5.84082 -2.73528,14.30756 -10.05336,14.12053c-1.51816,-0.0388 -3.2037,-0.1884 -4.42262,-1.09425c-4.68436,-3.48123 -1.26378,-10.18057 -0.99591,-14.6267c-0.46235,0.06007 -2.41181,0.18039 -2.84318,-1.97644c-0.4903,-2.45145 1.96115,-2.94175 1.96115,-2.94175c2.95273,-0.52995 5.20957,-0.25075 7.64949,0.53076c1.07537,-0.03242 2.23938,-0.42928 3.19106,0.04682c0.09834,0.0492 0.19524,0.10061 0.29079,0.15406c0.3008,-0.12822 0.63186,-0.19917 0.97949,-0.19917z" fill="#714c19" stroke-width="0.5"></path>
      <path d="M272.03203,179.90741c0,3.00068 -0.02015,7.19886 -1.3676,9.98216c-2.4368,5.03347 -10.43798,7.90499 -14.27471,2.63663c-0.75714,-1.03967 -0.6381,-2.49233 -0.9175,-3.74777c-0.71218,-3.2001 -0.63647,-6.17393 -0.62996,-9.41543c-0.22757,0.13863 -0.44398,0.29353 -0.64778,0.46663c0,0 -1.99999,1.50001 -3.5,-0.49998c-1.50001,-1.99999 0.49998,-3.5 0.49998,-3.5c1.01117,-0.70493 1.84784,-1.77777 3.03351,-2.11479c3.3212,-0.94404 7.88839,-0.07756 11.41909,-0.6753l2.94464,0.67529c0,0 1.07991,0.35996 1.53943,1.3228c0.66681,0.35297 1.15477,0.99877 1.29259,1.7661l0.57193,2.85972l-0.08844,0.01769z" fill="#714c19" stroke-width="0.5"></path>
      <path d="M287.14356,185.51431c-0.45966,1.13919 -0.91932,2.27839 -1.37898,3.41758c-0.93489,1.24395 -2.0569,2.41452 -3.32121,3.48711c-1.88509,2.55194 -3.47775,5.27071 -6.41332,6.79897c-7.03724,3.66359 -19.37078,4.3646 -25.15868,-2.35568c-2.38535,-2.76961 -3.88979,-8.08566 -4.59923,-11.57003c-0.61112,-3.0015 -0.52216,-5.28887 -2.4537,-7.70572c0,0 -0.05437,-0.07249 -0.1286,-0.20023c-0.43012,-0.07099 -1.12788,-0.27385 -1.60329,-0.85361l0.00004,-0.00002c-1.07761,-0.33207 -2.3558,-0.42533 -2.74744,0.67191c-0.16577,0.46442 -0.20791,0.94555 -0.18603,1.43592c0.63437,0.79118 0.48604,1.73489 0.33025,2.2497c0.0646,0.40692 0.11229,0.81253 0.1112,1.21283c-1.22886,7.47257 -3.10874,13.33875 -9.89255,17.60813c-6.36984,4.00885 -12.60552,3.88559 -19.74827,2.66161c-2.45814,-0.42123 -4.19753,-0.65499 -6.2689,-2.17911c-2.92736,-2.15397 -4.78058,-4.98818 -5.9157,-8.20397v-2.10377c-0.00497,-0.68931 0.08787,-1.48364 0.21366,-2.33582c-1.14645,-0.68045 -1.14645,-2.16713 -1.14645,-2.16713l0.04855,-1.65234c0.4012,-2.00601 0.34882,-4.65262 1.55992,-6.41067c-0.35414,0.18346 -0.72214,0.34383 -1.08511,0.50674c-0.16369,0.07347 -0.33035,0.14032 -0.49865,0.20347l-0.98618,0.98618l-0.05273,-0.05273c-0.08117,0.10651 -0.16549,0.21094 -0.25326,0.31307c-0.90744,1.05584 -2.4773,1.26841 -3.72201,1.8949l-2.80958,1.68574c-0.38339,0.2392 -0.83629,0.37741 -1.32147,0.37741c-1.38071,0 -2.5,-1.11929 -2.5,-2.5c0,-0.81467 0.38967,-1.53833 0.9928,-1.99475l0.00218,-0.00437c-0.38192,-0.0104 -0.76329,-0.02436 -1.14273,-0.03668c0.05763,-0.40763 0.11525,-0.81525 0.17288,-1.22287l-0.00001,-0.00001c0,0 0.10749,-0.7524 0.6188,-1.36822c0.00162,-0.0071 0.00328,-0.01419 0.00496,-0.02127c-0.04438,-0.18645 -0.06787,-0.38099 -0.06787,-0.58103c0,-0.99801 0.58479,-1.85943 1.43041,-2.26029l2.27567,-1.13783l0.0201,0.0402c0.04649,-0.03853 0.09356,-0.07649 0.14122,-0.11383c0.02301,-0.01802 3.20725,-1.07675 5.35853,-1.79085c-0.92159,-0.87014 -1.74806,-1.90901 -2.12536,-3.10101c-1.90642,-6.023 2.96973,-8.8803 7.72898,-10.16485c-2.82343,-3.31749 -0.14586,-11.95581 4.87671,-12.87051c1.17996,-0.21489 2.21303,0.93649 3.35996,1.28727c1.06987,0.32721 2.31019,0.17246 3.27345,0.74152c1.2663,0.74809 2.25926,1.91365 3.17252,3.06652c0.52707,0.66536 0.9808,1.42287 1.24671,2.23185c1.73064,-1.80394 4.41892,-2.91194 6.9345,-2.66694c5.43447,0.52928 6.26422,5.70746 9.11012,8.97426c1.84118,2.11348 4.12817,3.04895 6.35242,4.7065l2.12499,1.0625c0.24983,0.11843 0.4769,0.27707 0.67284,0.46755c1.34944,-0.1723 2.71032,-0.26326 4.06786,-0.2685l1.29257,0.28922c1.14355,-0.91456 2.31245,-2.22837 3.26686,-3.64066l0.75781,-1.51561l0.0965,0.04825c0.05622,-0.16977 0.12091,-0.3372 0.1954,-0.50192c0.12899,-0.28524 0.28485,-0.55034 0.4624,-0.79926c0.10588,-0.25863 0.19942,-0.51408 0.27917,-0.76452c0.71477,-2.24459 0.26641,-4.7449 2.59024,-6.40464c2.27586,-1.62548 7.4347,-1.45624 9.40788,0.60001c0.67727,0.70578 -0.69638,1.898 -0.60365,2.87177c0.02969,0.31173 0.58835,-0.23659 0.8364,-0.4277c0.54395,-0.41908 0.96085,-0.99226 1.5214,-1.38886c0.92189,-0.65227 1.9634,-1.11978 2.90513,-1.74307c2.52185,-1.66911 3.77491,-4.34059 6.01848,-6.08444c1.3359,-1.03835 2.79196,-2.8091 4.44544,-2.45019c5.38417,1.16872 3.65508,5.40137 3.20484,8.41649c-0.38734,0.96837 -0.64824,1.99748 -1.16203,2.90511c-0.19727,0.34848 -1.17616,0.46496 -0.91989,0.77266c0.26816,0.32197 0.77582,-0.31707 1.15997,-0.48439c0.71913,-0.31322 1.43983,-0.62343 2.14968,-0.95714c3.55292,-1.6703 8.5046,-3.96212 10.91285,1.38836c0.63504,1.41088 -0.14791,3.11514 -0.55174,4.60872c-0.36007,1.33172 -0.93566,2.43752 -1.67099,3.36239c0.68572,0.84946 1.49827,1.64377 1.7444,2.68437c0.28713,1.21397 -0.35914,2.46895 -0.53125,3.70448c-0.1984,1.42423 0.39666,3.21957 -0.58029,4.27473c-1.08966,1.1769 -3.03982,1.07119 -4.62059,1.34254c-0.27621,0.04741 -0.91659,-0.62986 -0.72551,-0.42484c2.1711,2.32944 1.27196,4.80228 0.66075,7.8341c-0.2998,1.48714 -0.68353,2.84031 -1.17937,4.10358zM250.02748,174.51351c0.52742,3.16642 1.2421,5.37286 2.22281,8.31505c0.79356,2.38072 1.02432,4.77428 2.56855,6.90292c3.01652,4.1581 8.62617,4.57694 13.16929,3.65853c4.06894,-0.82256 7.40891,-1.55261 10.31366,-3.74182c0.16012,-0.22724 0.32271,-0.45241 0.48959,-0.67397c1.64091,-1.61332 2.79895,-3.31708 3.61902,-5.18861l0.46634,-2.37907c0,0 0.15234,-0.7617 0.71177,-1.35102c0.17024,-0.7923 0.30567,-1.61502 0.41394,-2.47225c0.24508,-1.94038 -1.83115,-3.98215 -1.04596,-5.77342c0.64101,-1.46236 2.44505,-2.14407 3.92272,-2.74896c0.72761,-0.29785 1.72725,0.65818 2.35171,0.1805c0.4346,-0.33244 -0.58787,-0.98841 -0.58029,-1.53553c0.00953,-0.68708 0.67838,-1.30473 0.64673,-1.97222c-0.57925,-0.12909 -0.97424,-0.42192 -1.24357,-0.76124c-1.43,0.61609 -2.98474,1.04292 -4.54043,1.38036c-0.41922,0.71511 -1.13434,1.07266 -1.13434,1.07266l-1.86909,0.81092c-9.86985,1.62186 -19.81688,1.76692 -29.83208,1.7765c0.00362,0.05549 0.00505,0.11042 0.00454,0.16467l0.46651,0.65448c0,0 0.53221,2.1287 -1.39485,2.89615c0.21309,0.42344 0.27341,0.78538 0.27341,0.78538zM206.22059,172.55637c-0.53162,1.05382 -1.39138,1.93745 -2.05049,2.91732c-0.02148,0.74048 -0.41417,1.51791 -0.76998,2.29406c0.0624,0.48731 0.21068,0.98708 0.1671,1.47029c-0.08141,0.90266 -0.56235,1.75249 -0.56885,2.65879c-0.06174,8.60958 7.41327,12.43059 14.89048,12.60702c2.37532,0.05605 2.23322,-0.94778 4.49645,-1.62088c1.05883,-0.3149 2.24415,-0.10693 3.27577,-0.50198c1.51432,-0.5799 2.55718,-1.99538 3.86395,-2.95549c2.16382,-2.94513 3.85049,-4.96614 4.54552,-8.59997l0.53083,-1.1929c0.00003,-1.86532 0.03874,-4.2507 0.2656,-4.66404c0.2127,-0.38756 0.44396,-0.73731 0.69133,-1.05181c-0.23724,-0.3823 -0.37422,-0.83333 -0.37422,-1.31635c0,-0.48517 0.13821,-0.93807 0.3774,-1.32146l0.92161,-1.53605l0.40099,-1.0025c-1.04761,0.32184 -2.12679,0.51778 -3.43097,0.61553c-1.14005,2.04377 -3.27836,0.97462 -3.27836,0.97462c-2.54052,-1.37695 -4.68116,-0.89474 -7.59736,-0.89813c-5.45848,-0.00633 -10.74923,1.04631 -16.08799,2.10644c-0.05122,0.58236 -0.26879,1.01751 -0.26879,1.01751z" fill="#292f33" stroke-width="0.5"></path>
      <g stroke-width="0.5">
        <path d="M259.15692,199.43887c2.45685,2.64828 2.60301,8.05943 0.21899,10.88524c-1.3587,1.61049 -4.93979,3.69138 -7.57362,2.74033c-0.39287,0.5065 -0.81041,0.95238 -1.24144,1.28635c-4.92727,3.81763 -11.78104,0.95413 -16.3801,-2.32528c-0.57304,0.23643 -1.1546,0.43054 -1.76705,0.47102c-4.5935,0.30361 -7.93946,-3.14573 -7.92395,-7.74422c0.012,-3.55567 2.88648,-5.91515 5.33766,-7.89785c0,0 1.13062,-0.9045 2.35934,-0.47638c0.4622,-1.04073 0.91702,-2.03182 1.2927,-2.92816c1.68673,-4.02444 2.55829,-8.49157 3.93798,-12.63386l0.35104,-0.2165c-0.0793,-0.34243 -0.07931,-0.59294 -0.07931,-0.59294c0.07868,-1.28679 -0.41526,-2.74779 0.23602,-3.86038c1.94734,-3.32662 5.60019,-4.75822 9.06582,-2.459c1.07279,0.71173 1.04658,2.35252 1.56986,3.52879l0.45365,1.78427c0,0 0.13174,0.52697 0.02677,1.15105c0.35596,0.5644 0.42856,1.1452 0.42856,1.1452c0.62311,5.15595 3.26831,10.4883 4.75015,15.81301c1.65735,0.53734 3.99693,1.31608 4.93692,2.32932zM238.88518,206.48382c-0.10894,-0.06572 -0.21526,-0.1347 -0.31851,-0.20674c0.02805,0.06582 0.05209,0.13146 0.07245,0.19678c0.08336,0.06659 0.17158,0.13388 0.2657,0.20247c-0.00214,-0.01693 -0.00416,-0.03384 -0.00606,-0.05072c-0.00531,-0.04731 -0.00984,-0.09458 -0.01359,-0.14178z" fill="#ff924c"></path>
        <path d="M231.4291,196.70056c0.03932,-0.06291 0.07932,-0.12535 0.12001,-0.18731c0,0 0.0028,-0.0042 0.00832,-0.0119c0.13834,-0.21939 0.36888,-0.4609 0.73398,-0.53395c0.16027,-0.04509 0.34295,-0.05658 0.54447,-0.00601c0.18288,0.02665 0.37459,0.09948 0.54911,0.25318c0.15064,0.10986 0.25294,0.24178 0.32143,0.3788c0.1053,0.17552 0.14557,0.35521 0.14898,0.52295c0.03027,0.24793 -0.02508,0.4577 -0.11621,0.62933c-0.33275,1.38722 0.08607,2.3101 0.09998,3.86098l0.03388,-0.48389c0,0 0.88388,0.88388 0,1.76776c-0.88388,0.88388 -1.76777,0 -1.76777,0l-0.50615,-0.84823c-0.47735,-0.0728 -0.86591,-0.41562 -1.00495,-0.86772l-0.39088,-1.17265l0.18857,-0.06286l-0.25271,-0.33243c0.13664,-0.45346 0.29669,-0.90277 0.48212,-1.34134c-0.05479,-0.22383 -0.08213,-0.45049 -0.08213,-0.65866z" fill="#863528"></path>
        <path d="M256.97497,201.20194l-1.10195,1.28857c0,0 -0.48703,0.48704 -1.09958,0.37652c-0.1678,0.0176 -0.36015,-0.00141 -0.57958,-0.07455c-1.18586,-0.39528 -0.79058,-1.58113 -0.79058,-1.58113l0.33585,-0.80472c-0.24883,-0.6481 -0.34351,-1.34872 -0.37951,-2.04951c-0.03964,-0.14622 -0.05066,-0.31467 -0.01717,-0.50759c-0.00153,-0.08116 -0.00259,-0.16216 -0.00332,-0.24291c0,0 0,-1.25 1.25,-1.25c0.76483,0 1.06169,0.46797 1.17691,0.83125c1.61821,0.87403 1.82082,1.91106 1.20892,4.01406z" fill="#863528"></path>
      </g>
      <path d="M78.47468,56.21436z" fill="#ff9500" stroke-width="0"></path>
      <g stroke-width="0.5">
        <g>
          <path d="M212.06666,260.09121c-0.87805,-0.40107 -1.80611,0.136 -1.80611,0.136l-1.56236,0.91019c-5.15738,3.53971 -10.52682,5.37973 -16.26622,7.76705c-5.31787,0.25432 -10.61061,0.71861 -15.91436,-0.12646c-5.10765,-0.81385 -8.96406,-4.15601 -13.00221,-7.00042c-4.23414,-2.98247 -7.91664,-5.95569 -10.88778,-10.28466c-2.67928,-3.85372 -2.58966,-6.94661 -2.63492,-11.29185c-0.02146,-2.05984 -1.66847,-3.94876 -1.50005,-6.00181c0.12117,-1.47713 2.56485,-5.18965 3.34218,-6.43677c2.38514,-3.82669 6.13244,-6.58909 9.68171,-9.38173c4.38709,-3.45185 8.06427,-6.8032 13.66461,-7.95578c2.30233,-0.98536 4.05817,-0.57038 6.54262,-0.72231c12.97672,-0.79355 21.4421,7.74353 30.34606,15.70147c0,0 0.64658,0.57083 1.45737,0.53005c0.25987,0.1433 0.46937,0.19966 0.46937,0.19966c6.32548,1.56051 13.66684,-1.66424 20.11236,-2.21824c6.19116,-0.53214 12.23736,6.2349 15.46344,10.72105c0.96741,5.02736 2.67842,8.97576 -0.33903,13.71499c-2.07663,3.26157 -6.68103,3.03104 -7.97414,7.71157c-0.31194,1.12909 -0.43562,4.79747 -0.04856,6.00104c0.91384,2.84148 6.89068,8.43867 0.50657,8.61692c-4.55361,-1.25147 -7.62444,-5.19166 -11.4228,-7.79113c-5.69401,-3.89681 -11.84815,-3.94098 -18.22777,-2.79879z" fill="#781616"></path>
          <g>
            <g>
              <path d="M250.21069,240.0943c-0.08482,0.03416 -0.16729,0.06276 -0.24742,0.08625c-5.13739,3.02537 -11.68705,3.05074 -17.06886,0.19214c-3.12546,-1.66012 -5.77744,-4.55854 -9.18686,-5.59053c-9.02557,-1.21194 -16.25074,4.77811 -25.18591,4.72187c-7.96681,-0.05013 -12.26812,-4.81282 -18.97374,-7.91057c-10.04989,-3.75996 -13.48401,8.0087 -20.66655,11.53539c-4.77001,2.34212 -10.24486,2.04885 -13.14049,-2.66214c0,0 -0.76089,-1.31448 0.21501,-2.29838c0.11819,-0.35609 0.28858,-0.59243 0.28858,-0.59243c1.68921,-2.19603 1.73226,-5.10128 3.33352,-7.53506c5.84672,-8.88652 14.29682,-17.46574 24.65765,-20.76213c4.81538,-0.90792 9.22086,-2.35273 14.13906,-0.93019c10.51633,3.04177 16.38548,14.06412 26.39918,17.19619l0.81261,0.13865c0.31061,-0.05539 0.54271,-0.0366 0.54271,-0.0366c9.87774,0.82521 21.20852,-6.31469 29.56098,1.92469c2.52322,2.48906 3.95389,6.30016 5.39611,9.45942l0.20959,0.51508c0,0 0.22703,0.56381 0.11405,1.18973l0.26724,0.28073c-0.18602,0.14474 -0.37465,0.2849 -0.56571,0.42052c-0.18805,0.25391 -0.47414,0.48554 -0.90078,0.65734zM242.95444,230.37485c-6.94644,-6.71234 -18.76958,-0.16433 -27.1415,-0.82381c0,0 -0.00234,-0.00019 -0.00686,-0.00064c-0.43098,0.07554 -0.78297,0.01006 -0.78297,0.01006l-1.42961,-0.28077c-10.08954,-3.21707 -15.92533,-14.09208 -26.31693,-17.17119c-4.15971,-1.23255 -8.01619,0.20984 -12.08804,0.96958c-9.36542,2.93311 -17.07933,11.14232 -22.33476,19.11038c-1.54719,2.34577 -1.70461,4.84454 -3.11266,7.18325c2.17427,2.32352 6.73419,1.19956 9.0271,-0.80648c2.15635,-1.88657 3.65711,-4.55059 5.75123,-6.51461c4.49611,-4.21676 10.65355,-6.11566 16.51165,-4.08248c6.17507,2.85419 10.24831,7.58609 17.49487,7.6189c9.26322,0.04193 16.46134,-5.96295 26.04101,-4.62642c7.66601,2.48641 14.32663,10.71093 22.41881,6.47518c-1.05046,-2.44804 -2.19182,-5.28342 -4.03135,-7.06094z" fill="#783232"></path>
              <path d="M247.05106,237.43717c-8.09219,4.23576 -14.88201,-3.97703 -22.54804,-6.46344c-9.57967,-1.33653 -16.74602,4.71205 -26.00924,4.67011c-7.24655,-0.03281 -11.22911,-4.79255 -17.40418,-7.64675c-5.85812,-2.03318 -12.00932,-0.15486 -16.50543,4.06191c-2.09412,1.96402 -3.59442,4.61605 -5.75078,6.50263c-2.29291,2.00604 -6.98318,3.1376 -9.15744,0.81408c1.40805,-2.3387 1.56562,-4.84753 3.11282,-7.19331c5.25544,-7.96807 12.98862,-16.21784 22.35406,-19.15093c4.07185,-0.75975 7.94754,-2.21519 12.10725,-0.98262c10.3916,3.07911 16.31324,13.98656 26.40277,17.20364l1.43081,0.28357c0,0 0.35234,0.06638 0.78331,-0.00916c0.00452,0.00044 0.00685,0.00065 0.00685,0.00065c8.37192,0.65949 20.19885,-5.87372 27.1453,0.83863c1.83952,1.77754 2.98144,4.62297 4.03192,7.071z" fill="#a14343"></path>
            </g>
            <path d="M240.76443,230.67068c0.11954,1.95486 -1.83532,2.07439 -1.83532,2.07439l0.23756,-0.09003c-2.88563,1.01227 -6.60645,2.30301 -9.63494,1.05202c-2.09199,-0.86413 -2.93895,-2.40998 -5.34501,-2.5975c-4.55642,-0.35514 -8.51204,2.604 -13.28272,1.98185c-3.10011,-0.4043 -5.26901,-2.62392 -8.24918,-3.0623c0,0 -0.28543,-0.04773 -0.61851,-0.21624c-0.08529,0.01353 -0.13647,0.01665 -0.13647,0.01665l-2.17252,0.12985c-3.36698,-0.20224 -5.48148,-0.55471 -7.6474,-3.36005c-2.3037,-2.9838 -2.83238,-9.82878 -8.18666,-8.24971c-3.48777,2.76652 -6.15938,3.94428 -10.49608,4.90974c-2.85388,0.63535 -5.8083,0.14725 -8.16487,2.19373c-4.40218,3.82292 -4.1832,10.53491 -9.58838,13.1379c-2.02058,0.97306 -3.02133,0.72617 -5.22442,0.74697c0,0 -1.95851,0.00452 -1.96303,-1.95397c-0.00452,-1.95851 1.95397,-1.96303 1.95397,-1.96303c5.7193,0.03771 5.23271,-2.72438 7.36585,-7.00073c0.93848,-1.88137 3.25608,-4.55853 4.89283,-5.92909c3.96349,-3.31887 9.48656,-2.64967 14.23107,-4.026c1.97563,-0.57311 3.66176,-2.44794 5.27599,-3.63612c1.02719,-0.25847 2.02257,-0.79726 3.08155,-0.7754c8.84256,0.18243 6.62181,11.71789 14.44708,11.98883l1.95594,-0.1226c0,0 0.56295,-0.03442 1.10313,0.23578c0.31071,-0.02768 0.53707,0.01017 0.53707,0.01017c2.94053,0.53338 5.16299,2.69565 8.1076,3.04127c4.62595,0.54297 8.52508,-2.38107 13.11305,-2.00014c2.83848,0.23567 4.18652,1.72198 6.53434,2.8919c1.80185,0.89786 5.12363,-0.53889 6.80672,-1.13734l0.82734,-0.12609c0,0 1.95486,-0.11954 2.07439,1.83532z" fill="#b17878"></path>
          </g>
          <g>
            <path d="M204.76279,243.55085c0.04761,0.36244 0.00118,0.64013 0.00118,0.64013c-0.69574,4.12484 -1.69666,12.14886 0.21487,16.00987c0.3665,0.74026 3.69634,-0.49159 4.08045,-0.58715c4.97238,-1.23718 10.48829,-2.22856 15.535,-2.89822c4.26314,-0.80123 8.30699,-1.78397 12.46938,-2.9474c1.1761,-0.32874 2.47945,-0.31645 3.55053,-0.90308c0.47546,-0.26041 1.58871,-0.86906 1.1346,-1.16513c-0.87059,-0.56763 -2.03924,-0.46527 -2.98887,-0.88759c-6.10048,-2.71305 -12.57604,-4.54519 -19.1642,-5.76988c-4.70228,-0.88006 -9.9265,-1.54584 -14.83296,-1.49155zM201.30667,242.6152l0.82851,-2.88677c5.89846,-0.34747 12.37193,0.38941 18.17688,1.463c6.88717,1.28186 13.65622,3.20316 20.03694,6.04061c1.22793,0.54605 4.47002,1.74091 4.93072,2.772c0.98657,2.20806 -0.91656,5.02158 -2.56108,6.16466c-0.49255,0.34238 -3.93976,1.18767 -4.59819,1.37114c-4.30881,1.20066 -8.50411,2.21879 -12.91548,3.04475c-4.91412,0.60623 -10.35102,1.6204 -15.19393,2.82874c-2.59352,0.64711 -5.86117,1.73933 -8.06408,-0.73249c-0.64832,-0.72748 -0.53644,-1.87362 -0.80498,-2.81033c-1.41451,-4.93414 -1.07848,-11.28209 -0.24131,-16.32571c0,0 0.08128,-0.48596 0.40604,-0.92961z" fill="#868686"></path>
            <path d="M219.59872,244.97717c6.58815,1.22467 13.12582,3.11695 19.22629,5.83001c0.94962,0.42233 2.11844,0.32322 2.98903,0.89084c0.45411,0.29608 -0.65912,0.90818 -1.13459,1.16859c-1.07106,0.58662 -2.3746,0.57796 -3.55072,0.9067c-4.16237,1.16342 -8.22087,2.18237 -12.48402,2.98361c-5.04672,0.66966 -10.66619,1.6575 -15.63858,2.89467c-0.38411,0.09557 -3.718,1.32099 -4.0845,0.58073c-1.91154,-3.861 -0.91036,-11.94849 -0.21461,-16.07332c0,0 0.04753,-0.27956 -0.00008,-0.64199c4.90645,-0.05429 10.18949,0.58009 14.89176,1.46016z" fill="#a2a2a2"></path>
          </g>
          <path d="M206.93335,246.57135c1.23049,-3.09833 0.38051,-9.1192 -0.19234,-12.23758c-0.18994,-1.03398 0.29735,-2.57458 -0.61732,-3.09284c-0.74017,-0.4194 -2.44472,-0.58079 -3.98197,-0.68273c0.76905,5.22085 0.71283,9.96477 -0.84341,15.05447l-0.08255,0.31048c1.55284,0.47559 5.32503,1.63669 5.71758,0.64823zM197.95026,228.16807c0.26616,-1.94033 2.2065,-1.67418 2.2065,-1.67418c1.82744,0.25101 6.60085,0.33009 8.14867,1.49385c3.8961,2.92939 2.89117,11.12278 2.73709,15.34314c-0.03547,0.97143 -0.18781,4.45303 -0.75705,5.26681c-2.62695,3.75548 -7.03106,1.77156 -10.54436,0.96756l-1.54604,-0.62486c0,0 -1.4142,-0.6022 -1.20342,-1.99246c-0.0085,-0.35101 0.06036,-0.60913 0.06036,-0.60913l0.50156,-1.87511c1.41011,-4.579 1.41301,-8.81647 0.68368,-13.5308c0,0 -0.09128,-0.59693 0.15901,-1.17856c-0.31965,-0.33101 -0.54946,-0.83222 -0.44603,-1.58627z" fill="#343434"></path>
          <path d="M201.19015,245.98316l0.08217,-0.31063c1.55624,-5.0897 1.62323,-9.95699 0.85419,-15.17784c1.53724,0.10194 3.27298,0.26352 4.01313,0.68292c0.91465,0.51827 0.44293,2.06501 0.63288,3.09898c0.57285,3.11838 1.41372,9.25773 0.18323,12.35606c-0.39256,0.98847 -4.21278,-0.17389 -5.76562,-0.64948z" fill="#434343"></path>
          <path d="M226.25516,251.03091c-1.89234,-0.50477 -1.38756,-2.39712 -1.38756,-2.39712l0.20146,-0.72101c0.76725,-4.56088 1.18456,-8.86377 -1.10613,-13.01696c0,0 -0.93501,-1.7209 0.7859,-2.65591c0.17022,-0.09249 0.33274,-0.15898 0.48744,-0.20374c0.5273,-1.6569 2.28679,-1.25423 2.28679,-1.25423c1.6319,0.37367 3.25862,0.77147 4.87624,1.20273l0.45132,0.12038c0,0 1.30987,0.34939 1.45936,1.55659c2.70412,3.51264 4.01497,8.43414 3.20993,12.81104c-0.52728,2.86682 -2.15638,5.99219 -5.42193,6.37196c-1.07529,0.12507 -2.12484,-0.41546 -3.18727,-0.62319l-1.11884,-0.20643c0,0 -0.9502,-0.17675 -1.39143,-0.94944c-0.0475,-0.00999 -0.09593,-0.02152 -0.14531,-0.03468zM229.78456,248.40313c6.6326,1.88554 3.66245,-9.60313 1.08185,-12.77217c-0.84886,-0.22238 -1.70021,-0.43543 -2.55343,-0.64064c1.67166,4.28054 1.42482,8.60895 0.66972,13.26261z" fill="#343434"></path>
          <path d="M228.97148,248.31725c0.75507,-4.65364 0.99748,-9.10975 -0.67418,-13.39028c0.85322,0.20521 1.72834,0.41685 2.57721,0.63923c2.5806,3.16904 5.53978,14.78772 -1.09281,12.90217z" fill="#434343"></path>
          <g>
            <path d="M187.7571,260.76518c-0.73129,0.52659 -1.31416,-0.19225 -1.31416,-0.19225c-3.19091,-4.08795 1.64504,-8.86632 6.17058,-6.84443c2.0172,0.90123 2.7909,4.03105 1.34233,5.74785c-1.63433,1.93699 -4.10156,2.02456 -6.19875,1.28883zM187.31706,257.63691c0.11068,0.10397 0.17039,0.19749 0.17039,0.19749l0.64185,1.07545c1.63051,0.74011 6.19612,-0.35127 4.23861,-2.86333c-1.4129,-1.81318 -4.89737,-0.46762 -5.05084,1.59041z" fill="#868686"></path>
            <path d="M192.4248,256.01452c1.95752,2.51207 -2.71585,3.6764 -4.34635,2.93629l-0.65509,-1.10383c0,0 -0.06051,-0.09874 -0.17119,-0.20272c0.15348,-2.05801 3.75972,-3.44292 5.17263,-1.62974z" fill="#a2a2a2"></path>
          </g>
          <g>
            <path d="M167.81979,251.75769c-0.03289,-0.00001 -0.05189,-0.00154 -0.05189,-0.00154c-5.62948,-0.92593 -0.63843,-7.97493 3.68353,-7.0223c3.05822,0.67408 4.78646,3.71496 2.43694,6.37054c-1.49184,1.68618 -3.36963,1.48512 -5.34788,1.25077zM167.45204,249.79152c0.59063,-0.42471 1.18223,0.09871 1.18223,0.09871l0.67355,0.66301c1.14418,0.01435 2.23703,0.24431 3.11374,-0.7466c1.46919,-1.66057 -0.27046,-3.74259 -2.25778,-3.36924c-1.08302,0.20347 -3.7712,3.02867 -2.71173,3.35412z" fill="#868686"></path>
            <path d="M170.15973,246.37226c1.98731,-0.37335 3.79022,1.80136 2.32102,3.46193c-0.8767,0.9909 -2.06155,0.78984 -3.20574,0.77548l-0.69586,-0.68447c0,0 -0.59833,-0.53751 -1.18896,-0.1128c-1.05947,-0.32544 1.68653,-3.2367 2.76955,-3.44017z" fill="#a2a2a2"></path>
          </g>
          <g>
            <path d="M173.70161,260.94594c-3.82648,-3.035 3.60986,-8.93689 7.23246,-3.99196c3.13878,4.28449 -3.82094,8.17116 -7.00306,4.44295zM174.73213,258.99563c0.26027,0.16526 0.3908,0.42483 0.3908,0.42483l0.4531,0.91358c1.03997,1.4195 4.78262,0.52758 4.2969,-1.45051c-1.04331,-4.24895 -4.6301,-0.97058 -5.14079,0.11209z" fill="#868686"></path>
            <path d="M179.93808,258.8796c0.48573,1.97809 -3.37663,2.90981 -4.41661,1.49033l-0.46299,-0.939c0,0 -0.13138,-0.27066 -0.39165,-0.43593c0.51069,-1.08266 4.22794,-4.36435 5.27125,-0.1154z" fill="#a2a2a2"></path>
          </g>
          <g>
            <path d="M180.81625,252.11296c-0.35132,0.07659 -0.67847,-0.07983 -0.67847,-0.07983c-5.67133,-2.96352 0.78435,-8.50785 5.05634,-6.14526c4.55328,2.51816 0.44442,7.90787 -3.56838,6.91918zM180.57286,250.07308c0.55088,-0.29021 1.06956,0.16869 1.06956,0.16869l0.90937,0.83953c1.85661,0.58694 3.76845,-2.52711 1.7163,-3.46768c-1.9409,-0.88959 -6.19612,1.09169 -3.69521,2.45947z" fill="#868686"></path>
            <path d="M184.31665,247.56999c2.05215,0.94057 0.08804,4.16341 -1.76857,3.57649l-0.94826,-0.85524c0,0 -0.53475,-0.47974 -1.08564,-0.18954c-2.5009,-1.36778 1.86157,-3.4213 3.80247,-2.53171z" fill="#a2a2a2"></path>
          </g>
          <path d="M244.96123,257.12664c-1.28381,5.11176 4.83884,8.07026 3.77049,13.05306c-0.72197,3.36722 -4.83663,4.16251 -7.45885,4.3624c-6.69518,-1.75195 -10.36842,-7.82553 -16.67102,-10.23447c-4.42766,-1.69233 -8.28668,-1.15557 -12.71691,-0.2616c-0.22178,0.20541 -0.78428,0.64507 -1.49553,0.59957c-5.40574,3.60316 -11.00832,5.64259 -17.07141,8.01902c-5.78186,0.41165 -11.65875,0.92786 -17.41904,-0.07195c-9.94286,-1.72578 -20.85968,-10.76778 -26.43636,-18.89303c-3.05422,-4.49749 -3.3578,-8.37096 -3.32174,-13.51773c0.01535,-2.19023 -1.65258,-4.21944 -1.47714,-6.40271c0.15779,-1.96349 2.89778,-6.45799 3.91282,-8.07466c2.66447,-4.24375 6.64648,-7.27829 10.57761,-10.37093c4.75047,-3.7372 8.85831,-7.35699 14.93698,-8.608c2.66308,-1.02 4.63837,-0.7061 7.42701,-0.87663c14.12192,-0.86358 23.15116,7.92299 32.90511,16.49351c0.31881,0.00027 0.54678,0.06109 0.54678,0.06109c5.5702,1.65285 13.03305,-2.11306 18.84448,-2.36299c8.06837,-0.34698 15.19634,6.89902 19.29816,13.07523c0.01246,0.05736 0.02499,0.1147 0.03756,0.17197c-0.32749,0.49191 -0.29134,1.0832 -0.29134,1.0832c0.09914,1.39253 0.41803,2.7847 0.92918,4.08382l0.75123,1.30478c0.36444,2.31944 0.43898,4.59279 -0.20762,6.86009c-0.14791,0.11371 -0.23209,0.20884 -0.23209,0.20884c-1.26893,1.43423 -3.57607,4.0419 -4.84499,5.47612c0,0 -0.34201,0.38655 -0.42398,0.91724c-1.70665,0.94214 -3.36879,1.91125 -3.86945,3.90476zM230.24029,262.85353c3.79835,2.59948 6.86924,6.53958 11.42286,7.79104c6.38412,-0.17826 0.40214,-5.76635 -0.5117,-8.60783c-0.38707,-1.20357 -0.26653,-4.8638 0.04542,-5.99289c1.29312,-4.68054 5.89487,-4.43676 7.9715,-7.69832c3.01745,-4.73923 1.3074,-8.66894 0.33997,-13.69631c-3.22608,-4.48614 -9.2635,-11.23106 -15.45467,-10.69893c-6.44553,0.55399 -13.76764,3.79845 -20.09312,2.23795c0,0 -0.20821,-0.05553 -0.46808,-0.19883c-0.81078,0.04077 -1.45328,-0.52768 -1.45328,-0.52768c-8.90398,-7.95792 -17.30518,-16.49661 -30.2819,-15.70306c-2.48445,0.15194 -4.23281,-0.26824 -6.53515,0.71712c-5.60036,1.15257 -9.26321,4.48783 -13.6503,7.93969c-3.54928,2.79265 -7.2897,5.54028 -9.67484,9.36697c-0.77731,1.24712 -3.21892,4.95133 -3.34009,6.42846c-0.16842,2.05306 1.47947,3.93498 1.50092,5.99482c0.04524,4.34525 -0.04494,7.42363 2.63433,11.27735c2.97113,4.32897 6.64839,7.28468 10.88253,10.26715c4.03817,2.84443 7.88222,6.16854 12.98988,6.98238c5.30375,0.84508 10.57332,0.36538 15.89122,0.11107c5.73939,-2.38732 11.06192,-4.22759 16.21931,-7.7673l1.55647,-0.90763c0,0 0.92299,-0.53428 1.80104,-0.13321c6.37962,-1.1422 12.51369,-1.0788 18.2077,2.81801z" fill="#4e0e0e"></path>
        </g>
        <g>
          <path d="M348.3893,261.6606l-0.09812,-0.60721c-1.9151,0.01788 -3.82692,0.09298 -5.72861,0.28139c1.91709,1.25223 4.09941,2.36766 5.95698,0.49721c-0.08562,-0.09426 -0.13027,-0.17138 -0.13027,-0.17138zM359.75472,260.50636l-0.10136,0.23958c0.06994,0.03908 0.14124,0.08952 0.21335,0.15332c0.64046,0.56664 0.2268,1.19773 0.11166,1.34861l-0.07627,0.80017c0,0 -0.11301,0.42365 -0.47128,0.62836c-0.19606,0.49143 -0.39499,0.92341 -0.52191,1.01416c-0.81289,0.58114 -5.57074,0.13669 -6.49699,-0.29675c-0.79356,-0.37134 -1.43184,-1.78777 -2.00398,-2.69133l-0.18803,1.17414c-3.48426,3.85559 -7.35738,0.73251 -10.63208,-1.15123c0,0 -0.34583,-0.20121 -0.46677,-0.56746c-0.29315,-0.11313 -0.48105,-0.24861 -0.48105,-0.24861l-1.70304,-1.22783c-1.53384,-1.11575 -2.78292,-2.39066 -4.23007,-3.55259c-0.75864,-0.01139 -1.34435,-0.52959 -1.34435,-0.52959l-0.00007,-0.05084c-5.10929,-3.0007 -8.14412,-11.00114 -2.64578,-15.64043c0.49931,-0.4213 1.24403,-0.7582 2.02755,-1.03766c0.40765,-0.29061 0.8302,-0.37756 0.8302,-0.37756c2.8674,-0.38855 4.47432,-4.3825 6.33679,-6.49232l1.32374,-1.15119c0,0 0.74094,-0.62991 1.62246,-0.47986c0.48734,-0.82009 0.69753,-1.79771 1.4127,-2.44217c2.25019,-2.02769 5.96748,-0.01499 7.13655,2.15133l0.13864,0.96998c0,0 0.03401,0.55621 -0.36886,0.85512c0.99562,0.13057 1.99392,0.26712 2.98985,0.41471c0.01713,-0.05959 0.03214,-0.09487 0.03214,-0.09487l0.00004,0.00001c0.45241,-1.05841 1.01896,-2.7411 2.11284,-3.35611c2.32072,-1.30477 7.41372,1.29456 7.44932,3.64487l0.05546,0.74584c0,0 0.04083,0.66752 -0.49664,0.93303c0.34796,0.09967 0.69335,0.20308 1.03595,0.31053l0.42223,0.0295c0,0 1.34683,0.18474 1.64237,1.3685c0.99489,0.39896 1.14729,1.58641 1.14729,1.58641c0.7822,6.52799 -1.01374,14.02019 -3.56637,20.02158l-1.16569,1.46923c0,0 -0.1705,0.19272 -0.45777,0.37664c-0.11987,0.59152 -0.4932,1.01346 -0.4932,1.01346l-0.09732,0.04921c-0.01075,0.03002 -0.02151,0.06007 -0.03226,0.09009zM353.22894,262.61387c2.13777,0.67276 3.88554,0.86716 4.72603,-0.69506c-0.05294,-0.16433 -0.10228,-0.32991 -0.14851,-0.49647c-0.06952,-0.0772 -0.11833,-0.15971 -0.15164,-0.24316c-1.79605,-0.01846 -3.59905,-0.06727 -5.40332,-0.09959c0.41385,0.70314 0.89341,1.50784 0.97744,1.53428zM360.00135,262.11922c-0.00454,0.01268 -0.00942,0.0264 -0.01462,0.04105l-0.00087,0.00913zM359.86129,233.37773l-0.05273,-1.0235c0.18056,-0.47704 -2.98156,-1.86688 -3.91001,-2.05938c-0.77921,-0.16154 -1.4464,1.51185 -1.75807,2.33282c1.98965,0.33026 3.95619,0.71854 5.85861,1.20583c-0.12391,-0.22861 -0.1378,-0.45577 -0.1378,-0.45577zM347.5905,231.16813l0.06651,-0.20958c-1.54405,-3.47612 -3.41576,-1.58026 -4.81969,0.13498c1.62073,0.21637 3.28009,0.41881 4.95376,0.63157c-0.18226,-0.25733 -0.20058,-0.55697 -0.20058,-0.55697zM334.27662,241.88596c-5.37154,1.57516 -5.82378,7.1999 -1.26529,10.08318c0.69049,0.00538 1.24197,0.41058 1.24197,0.41058c1.78065,1.31809 3.18134,2.84553 4.97444,4.12443l1.51883,1.09504c5.52733,-0.70513 11.13564,-0.39448 16.69394,-0.33835c0.1433,-0.5202 0.46115,-0.87943 0.46115,-0.87943l0.49545,-0.4083c2.21154,-5.18717 4.01499,-11.95937 3.32955,-17.64612l-0.55156,-0.0903c-6.22006,-1.98296 -13.57076,-2.55702 -20.01695,-3.41917c0,0 -0.17444,-0.02392 -0.41155,-0.10974c-1.90837,2.18333 -3.15221,4.52291 -5.18594,6.09265c-0.35966,0.81187 -1.28401,1.08556 -1.28401,1.08556z" fill="#343434"></path>
          <g>
            <path d="M329.95711,251.34926c0.75456,-0.54338 0.09931,-1.86319 0.27837,-2.77564c0.18166,-0.92564 1.24334,-6.15455 0.34342,-6.78367c-0.24256,-0.16957 -2.16979,0.10117 -3.54788,0.30228c0.0156,0.14889 0.03013,0.29728 0.04312,0.44501c-0.10876,-0.13179 -0.18959,-0.27253 -0.24898,-0.41492c-0.55316,0.08097 -0.98928,0.14506 -1.14263,0.15443c0,0 -0.72338,0.04423 -1.31697,-0.36115c-6.41829,-0.21752 -12.82349,-0.26617 -19.26035,-0.58515c-15.47113,-0.76771 -30.92724,-1.35394 -46.39278,-2.06995c-0.31746,0.02997 -0.55024,-0.00896 -0.55024,-0.00896c-0.03587,-0.00604 -0.07601,-0.01347 -0.12008,-0.02216c-0.10416,-0.00485 -0.20832,-0.0097 -0.31249,-0.01457c-0.0005,-0.01771 -0.00128,-0.03527 -0.00233,-0.05269c-1.23163,-0.27631 -3.8711,-0.96687 -4.53197,-0.63939c-0.66804,0.33103 -0.95302,3.87097 -1.00395,4.50063c-0.33919,4.1937 -0.52325,6.11907 4.03693,5.79196l0.41996,0.03854c0.03755,-0.05501 0.08145,-0.12506 0.12491,-0.20739c15.79206,-0.26237 31.53217,2.02547 47.31865,1.04624c6.95321,0.3478 13.99728,0.40535 20.94684,0.95576l1.15533,0.28257c-0.02104,0.14299 -0.04158,0.28613 -0.06149,0.42943c1.48638,0.0968 3.48478,0.2335 3.82461,-0.01122zM332.96849,238.68624c2.92785,2.34669 1.7359,9.64055 0.76886,12.66169c-0.33161,1.03603 -0.42389,2.32112 -1.26832,3.00687c-1.58562,1.28768 -5.6456,0.72676 -7.62398,0.84881l-2.06423,0.12621c0,0 -1.37715,0.08422 -1.89036,-1.04461c-5.58207,-0.32433 -11.22153,-0.40245 -16.77612,-0.67554c-14.93236,0.90013 -29.82372,-1.09767 -44.75357,-1.07455c-0.62831,0.45332 -1.42903,0.3697 -1.42903,0.3697l-1.46436,-0.17975c-2.68907,0.14259 -6.0484,0.17465 -7.70243,-2.57486c-0.50052,-0.83202 -0.27046,-1.92355 -0.36573,-2.88983c-0.3301,-3.34826 -0.56199,-10.07929 2.8825,-12.15538c1.57624,-0.95003 5.29375,-0.11458 7.23931,0.2334c15.59374,0.74125 31.17875,1.30578 46.7783,2.07988c7.15146,0.35541 14.26294,0.37616 21.39853,0.66473c-0.0012,0.05452 -0.00197,0.10914 -0.00232,0.16382c2.06284,-0.22931 4.998,-0.58241 6.27291,0.43943z" fill="#343434"></path>
            <path d="M326.19667,251.37248c0.01991,-0.14331 -0.08805,-0.30964 -0.06701,-0.45263l-1.02666,-0.26031c-6.94956,-0.55041 -13.99701,-0.59564 -20.95022,-0.94344c-15.78648,0.97923 -31.65246,-1.325 -47.44453,-1.06264c-0.04347,0.08232 0.04242,0.13808 0.00488,0.19308l-0.54972,-0.02403c-4.56019,0.32711 -4.37645,-1.60855 -4.03725,-5.80225c0.05093,-0.62964 0.3367,-4.17719 1.00475,-4.50822c0.66089,-0.32748 3.42913,0.38469 4.66076,0.661c0.00103,0.01742 0.00184,0.03489 0.00233,0.05259c0.10417,0.00486 0.07958,-0.01199 0.18374,-0.00713c0.04406,0.00869 0.0842,0.01612 0.12008,0.02216c0,0 0.2328,0.03877 0.55026,0.0088c15.46554,0.71601 31.04909,1.29657 46.52022,2.06429c6.43688,0.31898 12.84397,0.37841 19.26226,0.59594c0.59358,0.40538 1.31705,0.36207 1.31705,0.36207c0.15335,-0.00937 0.58947,-0.0736 1.14262,-0.15456c0.05938,0.14238 0.00999,0.29262 0.11875,0.42441c-0.01299,-0.14775 -0.02747,-0.2953 -0.04306,-0.4442c1.37809,-0.20109 3.4355,-0.4822 3.67804,-0.31262c0.89991,0.62911 -0.16183,5.86941 -0.3435,6.79503c-0.17908,0.91244 0.47556,2.2369 -0.27898,2.78028c-0.33982,0.24473 -2.33844,0.1092 -3.82481,0.0124z" fill="#434343"></path>
          </g>
          <path d="M360.05902,233.85939c-1.90242,-0.48729 -3.99417,-0.90168 -5.98381,-1.23194c0.31168,-0.82097 1.01186,-2.55091 1.79108,-2.38937c0.92845,0.19249 4.18774,1.63197 4.00718,2.10901l0.05066,1.04831c0,0 0.01098,0.23537 0.13488,0.46398z" fill="#888888"></path>
          <path d="M347.85336,231.74472c-1.67367,-0.21276 -3.46056,-0.43364 -5.0813,-0.65002c1.40392,-1.71523 3.40614,-3.615 4.95019,-0.13887l-0.06659,0.21645c0,0 0.01544,0.31512 0.1977,0.57245z" fill="#888888"></path>
          <path d="M334.21404,241.8675c0,0 0.92657,-0.28 1.28623,-1.09187c2.03373,-1.56974 3.30181,-3.93891 5.21018,-6.12223c0.23711,0.08582 0.4127,0.10898 0.4127,0.10898c6.44618,0.86214 13.88779,1.45763 20.10785,3.44059l0.55233,0.09161c0.68544,5.68676 -1.12816,12.5371 -3.3397,17.72426l-0.49756,0.41036c0,0 -0.32102,0.36199 -0.46433,0.88219c-5.55829,-0.05614 -11.24342,-0.36261 -16.77073,0.34252l-1.52592,-1.10033c-1.79309,-1.2789 -3.21062,-2.82879 -4.99127,-4.14688c0,0 -0.55284,-0.40845 -1.24334,-0.41383c-4.55849,-2.88328 -4.10806,-8.55023 1.26348,-10.12539z" fill="#434343"></path>
          <path d="M339.91966,252.92729c-4.32979,-3.08951 6.08546,-9.23068 7.39932,-2.48372c0.86699,4.45212 -5.35573,6.06689 -7.39932,2.48372zM342.26602,252.73311c1.31672,0.82151 3.53169,-0.20422 3.13065,-1.91472c-0.56682,-2.41755 -3.46596,-1.34298 -4.24273,-0.26779c0.27688,0.27264 0.30157,0.67613 0.30157,0.67613l-0.00761,0.35451c0.001,0.0036 0.002,0.00721 0.003,0.0108c0.05364,0.0199 0.11213,0.03808 0.17564,0.05444c0,0 0.8107,0.29026 0.63948,1.08663z" fill="#343434"></path>
          <path d="M348.45432,261.66633c0,0 0.04422,0.08074 0.12984,0.175c-1.85758,1.87045 -4.16976,0.74385 -6.08685,-0.50837c1.90169,-0.18841 3.94341,-0.27082 5.85851,-0.2887l0.0985,0.62208z" fill="#888888"></path>
          <path d="M353.17199,262.64576c-0.08403,-0.02644 -0.57093,-0.87436 -0.98477,-1.57751c1.80427,0.03233 3.73607,0.08247 5.53212,0.10093c0.0333,0.08344 0.08278,0.17223 0.1523,0.24942c0.04624,0.16656 0.09523,0.34354 0.14816,0.50787c-0.8405,1.56222 -2.71006,1.39203 -4.84783,0.71927z" fill="#888888"></path>
          <path d="M359.60285,232.7977c0.59192,0.78011 -0.1882,1.37202 -0.1882,1.37202l-0.52382,0.20816c2.00942,3.8225 1.93621,12.10078 -4.16212,11.77699c-6.5247,-0.5977 -13.0815,-2.3662 -19.71921,-2.74101c-1.64523,0.36599 -3.40766,0.54677 -5.17807,0.91113c0,0 -0.78202,0.16095 -1.07913,-0.51393c-2.11194,0.14403 -4.19007,0.35735 -6.29245,0.51829c-0.27856,0.8661 -1.17866,0.62599 -1.17866,0.62599l-0.4529,-0.22781c-7.50096,1.42831 -16.39761,-0.2837 -24.01184,-0.89963c-7.57184,-0.6326 -15.219,0.08246 -22.78704,-0.42676c-0.37327,0.35683 -0.92914,0.20855 -0.92914,0.20855l-1.25296,-0.33986c-0.41996,-0.01914 -0.83992,-0.03829 -1.25987,-0.05743c-7.00302,-0.73311 -14.05103,-1.85077 -21.01898,-2.41515c0,0 -0.00299,-0.00025 -0.00866,-0.00087c-0.09765,0.02106 -0.1981,0.02711 -0.29759,0.01799l-1.02978,-0.0834l0.00197,-0.02435l-0.05216,0.01897c-0.5261,-0.09731 -1.05131,-0.19506 -1.57594,-0.29255c-1.10573,0.09165 -2.23373,-0.34187 -3.55914,-0.58841c-2.13412,-0.39695 -4.28023,-0.64486 -6.43355,-0.91901c-0.01765,0.03813 -0.03658,0.0767 -0.05684,0.11568l0.00001,-0.00001c-0.90325,1.73778 -2.64104,0.83452 -2.64104,0.83452l-0.62834,-0.33309c-2.76621,-1.20556 -5.64588,-1.15715 -8.60286,-1.51998c-7.82009,-0.95951 -15.40777,-2.7012 -23.25622,-1.0803c0,0 -1.91829,0.39481 -2.3131,-1.5235c-0.39481,-1.91831 1.5235,-2.3131 1.5235,-2.3131c8.31216,-1.70514 16.25143,0.01506 24.52744,1.02962c3.35352,0.41111 6.49687,0.48278 9.65586,1.80341l0.90021,0.4614c0,0 0.24864,0.12924 0.50894,0.384c2.25013,0.25422 4.47957,0.60189 6.70744,0.99002c0.24707,0.04153 0.4936,0.08485 0.73949,0.13025c1.28708,0.22904 2.57434,0.46964 3.86545,0.7116l0.00181,-0.01321l1.90531,0.26136c0.15758,-0.02869 0.27589,-0.01912 0.27589,-0.01912c6.96778,0.56437 14.00877,1.68477 21.01118,2.41453c0.47071,0.02505 0.94145,0.05012 1.41217,0.07516l0.6811,0.17904c0.28135,-0.14571 0.58267,-0.12131 0.58267,-0.12131c7.82322,0.65353 15.72025,-0.13446 23.56089,0.48321c7.11143,0.57688 16.08283,2.48387 23.10895,1.01002c0.26249,-0.37709 0.76444,-0.40778 0.76444,-0.40778c2.8217,-0.17255 5.57014,-0.48861 8.39534,-0.66136l1.17956,-0.07213c0,0 0.18635,-0.01139 0.40129,0.05714c0.2452,-0.44422 0.80851,-0.47867 0.80851,-0.47867l1.08352,-0.06148c1.44045,-0.38554 3.15727,-0.57726 4.50826,-1.23254c0.90593,-0.43943 1.70245,-1.10577 2.42317,-1.8999l0.10417,-0.20108c-0.07875,-0.45074 0.2528,-0.82547 0.2528,-0.82547c0.65509,-0.74042 1.34853,-1.4383 1.95579,-2.19278c0.41758,-0.68066 0.81714,-1.36614 1.21071,-2.02082l-0.11109,-0.02963l0.35612,-1.33502c0.03651,-0.14938 0.10885,-0.29233 0.21784,-0.41552c0.35837,-0.40504 0.97724,-0.44289 1.38229,-0.08453c0.243,0.215 0.35384,0.52374 0.32625,0.82384l-0.08341,1.02977l-0.06102,-0.00494l0.04222,0.13223c-0.25668,0.72157 -0.58449,1.36281 -0.96289,1.95947c-0.30952,0.6817 -0.79639,1.3636 -1.20488,1.93409c-0.24789,0.34619 -0.49969,0.67282 -0.75597,0.98146c0.15397,0.4943 -0.22835,0.92643 -0.22835,0.92643c-0.4795,0.53825 -1.00131,1.04195 -1.55544,1.50485c-0.49678,0.61781 -1.04039,1.11584 -1.62236,1.52269c5.35892,0.7025 10.71632,2.01789 15.97644,2.36866c1.35699,0.17384 1.70838,-0.53431 2.34852,-1.64054c1.9445,-3.36028 0.21335,-5.23073 -0.17793,-8.8731l1.17339,-1.07959c0,0 0.78011,-0.59192 1.37202,0.1882z" fill="#1f1f1f"></path>
          <path d="M357.46635,259.61293c-0.97743,0.05976 -1.03719,-0.91767 -1.03719,-0.91767l0.01942,-0.97963c1.31849,-3.64821 -0.00996,-5.67772 -1.71342,-8.78715c-2.69245,-1.63399 -5.50615,-0.67817 -8.38052,-0.33023c-2.73494,0.33107 -5.33899,0.8085 -7.97121,1.17778c0.25117,0.17244 0.49857,0.3526 0.74163,0.53973c0.05099,0.02557 0.10191,0.05133 0.15276,0.07727c0,0 0.23858,0.12401 0.40074,0.3671c2.70728,2.26446 4.78691,5.37062 5.39914,8.19453l0.31557,0.01771c0,0 0.73341,0.64888 0.08453,1.38229l-0.00001,0.00001c-0.64888,0.73341 -1.38229,0.08453 -1.38229,0.08453l-0.93611,-1.08972c-0.19194,-1.00494 -0.64414,-2.0841 -1.28687,-3.1473c-0.08379,0.04988 -0.18349,0.0921 -0.30191,0.12341l-0.00001,0.00004c-0.94673,0.25031 -1.19702,-0.69643 -1.19702,-0.69643l-0.12066,-0.53855c-0.71423,-1.43434 -1.62161,-2.5234 -2.66897,-3.35606c-2.02923,-0.96616 -4.21585,-1.63651 -6.45014,-2.24369c-0.32858,0.04377 -0.65262,0.11588 -0.97036,0.21862c0,0 -0.93375,0.29505 -1.22879,-0.63871c-0.0089,-0.02815 -0.01667,-0.05572 -0.02339,-0.08272c-1.17966,-0.1061 -2.37282,-0.17387 -3.54819,-0.25553c-0.29783,0.22159 -0.67669,0.20279 -0.67669,0.20279l-1.28186,-0.06511c-4.52736,0.27684 -8.93012,1.62775 -13.47509,1.25962c-7.42446,-0.62028 -16.60466,-2.94345 -23.9275,-1.48691c-7.03106,-0.51069 -13.97291,0.18242 -20.93179,-1.09428c-0.24992,0.04069 -0.46174,-0.01581 -0.46174,-0.01581l-1.24328,-0.3384c-1.949,-0.05326 -3.71027,-0.19514 -5.67259,-0.08111c-6.61675,-0.93933 -13.52214,-0.69549 -20.23689,-1.18055c-0.54855,1.25254 -2.0367,1.04839 -2.0367,1.04839l-1.38444,-0.19295c-11.27995,-0.91372 -23.79245,-1.52779 -34.62061,-4.94983c0,0 -1.86748,-0.59019 -1.27729,-2.45765c0.59019,-1.86748 2.45765,-1.27729 2.45765,-1.27729c10.54582,3.33282 22.77313,3.89086 33.75649,4.78055l1.60051,0.2165c0,0 0.94096,0.12908 1.42247,0.86272c6.77173,0.51153 13.70007,0.3048 20.39251,1.19299c2.02764,-0.13101 3.86654,0.0363 5.88215,0.10031l1.33043,0.34873c0.19898,-0.02857 0.35596,0.00063 0.35596,0.00063c6.8555,1.27514 13.63201,0.4463 20.54766,1.08216c7.34554,-1.56972 16.7343,0.90112 24.20515,1.48965c4.46499,0.36165 8.84914,-0.99347 13.30572,-1.26599l0.36779,0.01785c0.3121,-0.25989 0.73999,-0.22522 0.73999,-0.22522c0.95844,0.07763 1.92277,0.14405 2.88223,0.22011l0.93064,-0.20535c0.5789,0.15441 1.15698,0.30677 1.73308,0.46027c0.73968,0.08817 1.47014,0.1943 2.18617,0.32851c1.02598,0.04362 2.05816,0.27146 3.06816,0.64553c6.49953,-0.81526 15.16232,-4.19523 20.84234,-0.58573c2.21575,3.67349 3.69829,6.44447 2.14877,10.80812l0.09154,0.19992c0,0 0.05976,0.97743 -0.91767,1.03719z" fill="#1f1f1f"></path>
          <path d="M339.25803,243.65545c-5.563,-1.60394 0.39299,-8.27623 4.50542,-6.323c2.53855,1.20571 2.49899,5.39234 0.11857,6.77962c-1.16383,0.67828 -2.7266,0.24154 -3.93146,0.01872zM339.55739,241.75714c0.20806,-0.01688 0.39558,0.04832 0.53129,0.1179c0.14632,0.06788 0.32442,0.18451 0.43908,0.37719c0.65866,0.15221 1.8215,0.47843 2.3731,0.16483c0.92776,-0.52745 1.22701,-2.79758 0.09526,-3.28268c-1.88691,-0.80877 -5.39244,2.24822 -3.43872,2.62274z" fill="#343434"></path>
          <g>
            <path d="M348.69696,249.44002c-0.03282,-0.02391 -0.06585,-0.05047 -0.09905,-0.07984c-0.73341,-0.64888 -0.08453,-1.38229 -0.08453,-1.38229l0.92133,-0.88533c1.41375,-0.56477 2.39166,-0.85325 3.63804,-0.91064c-1.35749,-0.85239 -2.35498,-2.06807 -2.34132,-3.27434c-0.3161,-0.27127 -0.3432,-0.71443 -0.3432,-0.71443l0.14159,-0.89329c1.42725,-2.1271 2.78511,-2.87406 5.24484,-3.3746c4.5685,-0.20575 7.34527,6.30433 2.97805,8.92581c-0.84386,0.50654 -1.92919,0.59124 -3.02711,0.38514c0.17272,0.19905 0.32737,0.40988 0.46435,0.62996c2.44003,1.17667 1.69845,4.99483 -0.31845,6.3737c-0.03041,0.0208 -0.061,0.04068 -0.09176,0.05969c-0.95957,1.07647 -2.45606,1.61813 -4.4011,1.03317c-3.48295,-1.04748 -4.34882,-3.95526 -2.68168,-5.89268zM351.27389,251.05636c0.44557,0.02262 0.73872,0.40897 0.73872,0.40897l0.44288,0.65084c0.39088,0.11856 1.50944,0.68884 2.06786,0.6149c0.62914,-0.82535 0.83882,-2.08532 0.52003,-3.13834c-1.06662,-0.00459 -3.38211,0.70291 -3.76949,1.46361zM353.42428,242.67382c0.00064,-0.00017 0.00127,-0.00034 0.00192,-0.00051c0.94673,-0.25031 1.19702,0.69642 1.19702,0.69642l-0.38339,0.05113c0.00602,0.00881 0.01196,0.01779 0.01781,0.02694c0.7584,0.2846 2.04446,0.98096 2.84893,0.65616c0.99889,-0.40331 1.97871,-2.3801 0.74777,-3.03491c-1.39515,-0.74216 -4.6703,0.68443 -4.43007,1.60476z" fill="#343434"></path>
            <path d="M351.20878,251.06091c0.38738,-0.7607 2.81372,-1.51935 3.88034,-1.51477c0.31879,1.05303 0.08775,2.42014 -0.5414,3.24549c-0.55842,0.07394 -1.74906,-0.51237 -2.13995,-0.63091l-0.45713,-0.67487c0,0 -0.29629,-0.40229 -0.74187,-0.42492z" fill="#888888"></path>
            <path d="M353.35951,242.68184c-0.24023,-0.92033 3.15195,-2.3941 4.5471,-1.65194c1.23096,0.65482 0.22951,2.7284 -0.76939,3.13171c-0.80447,0.3248 -2.17754,-0.39629 -2.93594,-0.68089c-0.00585,-0.00915 0.10143,-0.08313 0.09541,-0.09194l0.27234,0.01735c0,0 -0.2609,-0.97509 -1.20761,-0.72478c-0.00064,0.00018 0.12829,-0.01573 0.12765,-0.01556z" fill="#888888"></path>
            <path d="M340.92959,253.6416c-0.25851,0.07102 -0.49216,0.02755 -0.49216,0.02755c-5.0731,-1.23558 -1.31458,-7.80998 2.76253,-7.26898c6.19801,0.82241 5.96303,9.34822 -0.78264,8.18388l-1.03681,-0.4911c0,0 -0.29379,-0.15272 -0.45091,-0.45136zM341.52017,252.27384c0.38648,-0.11467 0.76359,0.08133 0.76359,0.08133l0.49171,0.30339c4.16973,0.85236 3.84438,-3.78393 0.22935,-4.30964c-1.75291,-0.25492 -4.61641,3.21723 -2.20924,3.39474c0,0 0.52,0.09673 0.7246,0.53018z" fill="#343434"></path>
            <path d="M340.73521,251.76854c-2.40717,-0.17751 0.516,-3.73982 2.26892,-3.4849c3.61503,0.52571 3.93207,5.29195 -0.23766,4.43959l-0.51132,-0.30937c0,0 -0.39559,-0.20946 -0.78206,-0.09479c-0.20459,-0.43345 -0.73787,-0.55053 -0.73787,-0.55053z" fill="#888888"></path>
            <path d="M338.76591,240.82404c0.57559,0.39534 0.31796,1.11486 0.31796,1.11486c-1.1298,1.96669 3.16832,1.99993 4.24577,1.20543c3.17042,-2.3379 -0.5795,-5.90335 -3.71193,-3.59474c-0.15843,0.28177 -0.31686,0.56354 -0.47529,0.8453zM337.19081,241.47298c-0.06025,-0.0363 -0.12142,-0.08116 -0.1832,-0.13582c-0.73341,-0.64888 -0.08453,-1.38229 -0.08453,-1.38229l0.63176,-0.70687c0.19869,-0.33205 0.39736,-0.66413 0.59605,-0.99618c1.4134,-1.0891 3.35882,-2.18747 5.23921,-1.57908c3.39955,1.09992 3.83233,5.94637 1.13447,8.02331c-2.83283,2.18086 -8.24241,0.7325 -7.33377,-3.22309z" fill="#343434"></path>
            <path d="M339.08204,240.37011c0.15843,-0.28177 0.33014,-0.58394 0.48857,-0.86571c3.13243,-2.30862 6.97613,1.34768 3.80571,3.68558c-1.07745,0.79452 -5.4858,0.73054 -4.356,-1.23615c0,0 0.25715,-0.74713 -0.31844,-1.14247z" fill="#888888"></path>
            <path d="M344.31683,242.68216c-0.86889,-0.45163 -0.41726,-1.32052 -0.41726,-1.32052l0.17459,-0.2122c0.08778,-0.54888 0.05222,-1.13037 -0.10178,-1.66446c0,0 -0.2503,-0.94673 0.69643,-1.19702c0.94673,-0.2503 1.19702,0.69643 1.19702,0.69643c0.19545,0.78804 0.24664,1.62523 0.14867,2.43122l-0.37715,0.84929c0,0 -0.45163,0.86889 -1.32052,0.41726z" fill="#343434"></path>
          </g>
        </g>
      </g>
      <g stroke-width="0.5">
        <path d="M188.72401,247.53168l0.23401,-0.36226c1.17902,-1.85305 2.2013,-3.9066 2.45217,-6.08856c0.02031,-0.17662 0.13057,-0.32238 0.14095,-0.49751c0.13811,0.18929 0.75439,0.93561 1.67754,0.59876c3.30748,2.33329 5.63817,6.03096 3.12685,9.64968c-4.02411,5.79861 -12.32011,8.5145 -18.57778,10.9708c-7.74141,0.92845 -12.13559,-2.60125 -15.51628,-9.0836c-0.64236,-1.23172 -1.5996,-2.46393 -1.6103,-3.85305c-0.02644,-3.43375 3.59265,-5.79453 3.71612,-9.27682c0.07179,-2.02487 -1.53985,-4.75804 -2.79432,-6.63723c2.01896,-1.81021 3.79781,-4.59782 5.68326,-5.98199c4.21732,-3.09608 9.68788,-6.66744 14.37614,-9.07354c1.80667,-0.92722 3.06778,-0.7243 4.4633,-2.35921c1.59942,-0.19321 3.24457,0.16598 4.84431,-0.02977c0.80759,-0.09882 2.75475,-1.28476 3.85181,-1.0988c6.41855,1.088 6.46471,10.52397 2.59026,14.46794c-0.80755,-1.09293 -2.07788,-0.29176 -2.07788,-0.29176l-0.39021,0.25435c-1.02538,0.65678 -2.15476,1.24832 -3.22264,1.76497c1.85932,-2.05315 3.24562,-3.47647 3.8868,-6.19198c0,0 0.32719,-1.46089 -1.13747,-1.78457c-1.46466,-0.32369 -1.71968,1.06829 -1.71968,1.06829c-0.4145,2.07734 -1.67583,3.20428 -3.08981,4.7334c-0.10135,-0.29077 -0.24918,-0.54405 -0.4949,-0.73092c-0.00143,-0.00108 -0.00285,-0.00217 -0.00429,-0.00325c-0.03163,-0.0497 -0.06313,-0.09943 -0.09548,-0.15013l-0.12201,-0.03477l0.05589,-0.04807l-1.28773,-1.5011c-0.20496,-0.24384 -0.48585,-0.42274 -0.82091,-0.49679c-0.80891,-0.17877 -1.5644,0.24295 -1.74317,1.05185c-0.10724,0.48527 0.03723,0.96937 0.34183,1.31623l1.12421,1.30521c-0.11698,0.57799 0.39549,1.1376 0.58104,1.70405l0.02686,1.4332c0,0 0.02663,0.82364 0.6411,1.23501c0.05088,0.30944 0.1992,0.672 0.5684,0.91794c-0.45899,4.01376 0.66087,7.31571 -1.89909,11.18881l-0.23675,0.36441c0,0 -0.86947,1.17524 0.38968,1.99043c1.25916,0.81518 2.0682,-0.43962 2.0682,-0.43962z" fill="#b7b7b7"></path>
        <path d="M183.02348,210.49215c1.54396,2.91404 -5.84309,5.25856 -7.8922,6.69407c-3.33212,2.33432 -7.24604,4.1339 -10.5017,6.51541c-4.18029,3.05788 -6.62304,10.05692 -11.44606,4.01588c-0.45735,-0.57285 -0.84171,-1.20782 -1.26097,-1.80911c0,0 -0.04115,-0.05886 -0.11869,-0.14681c4.71319,-10.07224 15.39158,-15.55027 24.5129,-21.26525c0.74324,0.49001 1.43738,0.36496 1.92907,0.12858c1.82625,1.79091 3.29586,3.54118 4.77764,5.86722z" fill="#b7b7b7"></path>
        <path d="M175.32257,245.00084c0.38169,1.45062 -1.06893,1.83231 -1.06893,1.83231l-1.01828,0.2664c-2.5432,0.7869 -4.82775,1.90635 -7.34415,2.75232c0,0 -1.42247,0.47601 -1.89848,-0.94647c-0.47601,-1.42247 0.94647,-1.89848 0.94647,-1.89848c2.53717,-0.84474 4.84021,-1.96985 7.40489,-2.77193l1.14617,-0.30311c0,0 1.45062,-0.38169 1.83231,1.06894z" fill="#6b6b6b"></path>
        <path d="M183.17925,244.70418c0.36549,1.45479 -1.0893,1.82027 -1.0893,1.82027l-0.42618,0.02771c-2.83321,1.78383 -6.24652,3.21962 -9.43704,4.29022c0,0 -1.42247,0.47601 -1.89848,-0.94646c-0.47601,-1.42247 0.94647,-1.89848 0.94647,-1.89848c2.9396,-0.98081 6.19493,-2.30093 8.7755,-3.9744l1.30875,-0.40817c0,0 1.4548,-0.36549 1.82028,1.08931z" fill="#6b6b6b"></path>
        <path d="M186.6816,248.01414c-1.25916,-0.81518 -0.44398,-2.07434 -0.44398,-2.07434l0.23518,-0.36328c2.55996,-3.87309 1.42297,-7.11863 1.88196,-11.13239c-0.36921,-0.24595 -0.5151,-0.60278 -0.56599,-0.91222c-0.61447,-0.41136 -0.63691,-1.22804 -0.63691,-1.22804l-0.02291,-1.42838c-0.18554,-0.56645 -0.69213,-1.12065 -0.57516,-1.69865l-1.11768,-1.30089c-0.30459,-0.34685 -0.44553,-0.82917 -0.33828,-1.31445c0.17877,-0.80891 0.97944,-1.31974 1.78835,-1.14097c0.33506,0.07405 0.61898,0.25479 0.82394,0.49864l1.29349,1.50551l-0.05592,0.04805l0.12235,0.03507c0.03235,0.05071 0.06435,0.10088 0.09597,0.15058c0.00143,0.00108 0.00286,0.00218 0.0043,0.00326c0.24572,0.18687 0.39591,0.44249 0.49728,0.73325c1.41397,-1.52911 2.60506,-2.58498 3.01954,-4.66232c0,0 0.32369,-1.46466 1.78835,-1.14097c1.46466,0.32369 1.14097,1.78835 1.14097,1.78835c-0.64118,2.71552 -2.02259,4.14578 -3.88191,6.19894c1.06789,-0.51666 2.11071,-1.05812 3.13609,-1.7149l0.47687,-0.30424c0,0 1.18212,-0.7542 1.98967,0.33874c3.87443,-3.94397 3.84632,-13.35977 -2.57224,-14.44776c-1.09706,-0.18596 -3.03944,1.00267 -3.84703,1.10148c-1.59974,0.19575 -3.23585,-0.16003 -4.83526,0.03318c-1.39552,1.63491 -2.64722,1.43359 -4.45389,2.36081c-4.68825,2.40609 -10.11606,5.95871 -14.33338,9.05479c-1.88544,1.38417 -3.65473,4.15197 -5.67368,5.96218c1.25447,1.87919 2.86689,4.59385 2.7951,6.61872c-0.12347,3.48229 -3.74901,5.82481 -3.72257,9.25856c0.01069,1.38912 0.96283,2.61421 1.60519,3.84593c3.38068,6.48236 7.74191,9.9949 15.48332,9.06644c6.25767,-2.4563 14.51041,-5.1546 18.53453,-10.95321c2.51132,-3.61872 0.17103,-7.29859 -3.13645,-9.63188c-0.92315,0.33686 -1.53954,-0.4091 -1.67765,-0.59839c-0.01038,0.17513 -0.0253,0.35095 -0.0456,0.52758c-0.25087,2.18195 -1.2874,4.25692 -2.46642,6.10995l-0.23518,0.36328c0,0 -0.81518,1.25916 -2.07434,0.44397zM190.34721,211.32801c1.71008,-0.20682 3.34649,-1.34247 5.05081,-1.09258c10.05429,1.47424 10.56145,14.15746 5.56332,20.66433c-1.94367,2.53039 -4.98449,3.71498 -7.68546,5.38324c6.19962,3.20948 10.93964,10.0905 6.60653,16.85322c-4.34152,6.77583 -13.9212,10.06353 -21.07149,12.75337c-9.6944,1.19122 -16.02428,-2.90014 -20.32189,-11.29245c-0.92159,-1.79969 -2.04267,-3.68446 -2.05713,-5.70635c-0.02742,-3.83456 3.56957,-6.0832 3.72378,-9.42219c0.0571,-1.23638 -1.66552,-3.60212 -2.45517,-4.70078c-4.13133,0.30991 -7.10024,-3.41692 -9.22499,-6.43722c0,0 -0.40704,-0.58103 -0.41623,-1.30749c-1.02825,-0.955 -0.39526,-2.37511 -0.39526,-2.37511c4.14871,-9.11737 14.18305,-16.80668 22.53294,-22.04425c2.48648,-1.55967 5.11505,-2.38063 7.47486,-4.06087l1.25207,1.85052l0.7551,-0.20907c2.91429,2.6666 5.0021,5.0598 7.10938,8.41788c0.40566,1.22366 0.78778,2.0257 0.96281,2.73549c0.86821,0.04175 1.73704,0.09423 2.59604,-0.00966zM178.21422,204.66366c-0.49169,0.23639 -1.18174,0.36444 -1.92498,-0.12557c-9.12132,5.71498 -19.72782,11.12819 -24.44102,21.20043c0.07754,0.08794 0.11845,0.14636 0.11845,0.14636c0.41925,0.6013 0.80039,1.23103 1.25774,1.80388c4.82302,6.04103 7.24735,-0.9739 11.42765,-4.03178c3.25565,-2.38151 7.09714,-4.13463 10.42926,-6.46895c2.04911,-1.43551 9.44064,-3.76107 7.89667,-6.67511c-1.48177,-2.32604 -2.93751,-4.05834 -4.76377,-5.84924z" fill="#6b6b6b"></path>
      </g>
      <g stroke-width="0.5">
        <path d="M271.19831,261.12946c-0.92321,-1.68415 -2.23469,-2.75862 -2.73786,-4.7222c-0.16709,-0.65202 -0.23904,-1.32301 -0.31289,-1.99389c-0.34419,0.15968 -0.7691,0.31582 -1.37079,0.5057v-0.00001c-0.71239,0.2248 -1.44147,0.47739 -2.18847,0.48262c-0.28142,0.00196 -0.61324,-0.72796 -0.70639,-0.4624c-0.0985,0.28085 0.50028,0.35201 0.65619,0.60554c0.64268,1.04508 1.01856,2.23349 1.58347,3.32258c2.13437,4.11479 4.60078,6.81312 7.64811,10.16009c1.43984,1.58142 2.02779,2.41256 4.14866,3.08415c1.11618,-0.53198 2.25736,-0.82341 3.40046,-1.19134c-4.03524,-2.50692 -7.89601,-5.73286 -10.12049,-9.79084zM277.84661,276.3845l-0.96818,-0.41373c-7.70675,-1.94828 -12.07421,-7.81682 -15.35843,-14.78377c-1.14831,-2.43598 -3.59431,-5.55265 -1.40856,-8.30043c0.13803,-0.17352 0.30881,-0.30654 0.49904,-0.41546c0.11609,-0.29836 0.28434,-0.4936 0.28434,-0.4936l1.28633,-0.81969c1.04841,-0.07786 2.09727,-0.15034 3.14664,-0.21424c1.91639,-0.76243 1.31149,-1.40723 2.64941,-2.89549c1.21725,-1.35402 3.63213,-2.25897 5.33299,-2.78169c2.84465,-0.87427 6.38607,-0.30496 9.09196,-1.47962c0.53598,-0.23268 0.8953,-0.79598 1.4463,-0.9904c1.42224,-0.50182 1.8102,0.24574 2.96832,-0.6176c3.34773,-2.49563 2.1771,-7.27201 3.91471,-10.71453c2.54063,-2.9861 4.95773,-5.10091 8.72196,-6.02833c1.31712,-0.32451 2.64828,-1.06229 3.98439,-0.82797c2.58283,0.45296 4.97604,2.61786 5.88166,5.11795c3.1944,-1.08713 7.39715,-0.77332 9.42699,2.06174c0.93728,1.30909 1.24464,2.93017 1.3652,4.53233c2.58201,-0.48415 4.76361,0.15238 6.86954,3.09804l0.50334,1.11168c0,0 0.38047,0.91028 -0.21396,1.56291c0.09458,0.58152 0.05909,1.18332 -0.14205,1.78376c-0.49644,1.48198 -1.96596,2.21821 -3.34962,3.03097c0.24075,0.75161 -0.33313,1.41756 -0.33313,1.41756c-3.06725,3.33752 1.3411,4.24491 1.83409,7.42838c0.21732,1.40326 -0.71713,2.96962 -1.31489,4.15547c-2.65915,5.27519 -8.28303,9.05933 -13.58837,11.30534c-5.20223,2.17428 -10.04155,4.09739 -15.6029,4.91923c-2.27819,0.33667 -3.71413,-0.25196 -5.77362,-0.78862c-2.91801,-0.76036 -5.38508,0.07451 -8.00997,1.17158l-1.59562,0.19569c0,0 -0.48859,0.03629 -0.92804,-0.21186c-0.35026,-0.00496 -0.61981,-0.11561 -0.61981,-0.11561zM319.7323,240.81246c-0.03513,-0.00659 -0.07019,-0.0134 -0.10519,-0.02046l-0.00116,0.01703l-0.23451,-0.01591c-1.1939,0.46895 -2.54083,1.42729 -3.36608,2.15437c-0.26457,1.3773 -0.54259,2.75302 -0.78351,4.15348c-0.8494,4.55064 3.14728,7.13587 2.8495,11.293c-0.03023,0.42203 -0.08356,0.82084 -0.15813,1.19869c0.07312,-0.12048 0.14143,-0.24373 0.20464,-0.36986c0.24532,-0.99333 0.78295,-1.94495 0.78256,-2.96813c-0.00098,-2.57427 -1.89061,-4.73487 -1.66744,-7.35619c0.09666,-1.13536 0.78887,-3.16631 1.53796,-4.0567c0.49629,-0.58991 3.04072,-1.53035 3.08447,-2.58306c0.02942,-0.70814 -0.11669,-1.16759 -0.38348,-1.43701c-0.66912,0.02693 -1.31398,0.07425 -1.75963,-0.00922zM300.60406,237.8048c-0.34386,-0.82276 0.00582,-1.36082 0.34596,-1.6619c0.35781,-1.21582 0.86767,-2.4308 1.77394,-3.27654c0.64171,-0.59885 1.44524,-0.40139 1.2982,-1.46345c-0.64555,-4.66271 -6.77354,-0.37155 -8.12822,1.09997c-2.17899,2.36693 -0.54595,7.25953 -1.86303,10.05902c0,0 -0.04095,0.08135 -0.12271,0.19389c0.06128,0.87437 -0.1307,1.72563 -1.25782,2.65681c-1.14249,0.94388 -2.83851,0.90491 -4.14968,1.59554l-2.53278,1.05994c0,0 -0.26974,0.11275 -0.62083,0.11958c-1.66075,1.12394 -3.08088,1.78815 -5.20732,1.80475c-2.7791,0.02169 -6.50461,-1.68612 -7.86836,1.27596l-0.05088,0.06657c1.70727,7.58463 6.9352,12.98802 13.16013,17.13757c1.39648,0.93091 2.86314,1.98402 4.64559,2.20337c1.77838,0.21885 3.80446,-0.30171 5.64129,-0.16605c5.32432,-1.20173 8.96661,-3.18042 13.62157,-5.95185c2.92455,-1.7412 5.31442,-2.51888 5.81352,-6.42398c0.18782,-1.4696 -1.42345,-2.965 -1.95724,-4.23872c-1.10523,-2.63727 -1.30911,-4.52368 -0.85988,-7.30442c0.19739,-1.14089 0.41129,-2.27138 0.62457,-3.39959c-0.43051,-0.82956 0.24927,-1.61841 0.24927,-1.61841c0.02265,-0.02606 0.04568,-0.05224 0.06907,-0.07853c0.16254,-0.87976 0.31949,-1.7606 0.46274,-2.64642c0.17243,-1.06625 1.01099,-1.95525 1.16222,-3.02471c0.34807,-2.46155 -4.55319,-0.73771 -5.27622,-0.34649c-3.71793,2.01171 -5.21805,7.65416 -4.42693,11.83954c0.43728,0.6782 0.86068,1.35834 1.02976,2.1234l0.04925,0.02202c0,0 1.1363,0.9792 0.15711,2.11549c-0.35562,0.41267 -0.73196,0.54633 -1.06707,0.5492c-0.39378,0.28703 -0.86214,0.51912 -1.25486,0.77706c-2.01019,1.32031 -4.44357,2.22302 -6.59476,3.34194c0,0 -1.33117,0.69135 -2.02253,-0.63983c-0.69135,-1.33117 0.63983,-2.02253 0.63983,-2.02253c1.66415,-0.86305 3.25096,-1.72621 4.87496,-2.61499c0.57806,-0.31636 1.57007,-0.17515 2.06167,-0.507l-0.06659,-0.06798c-0.30828,-0.75786 -0.54337,-1.57304 -0.70537,-2.42401c-0.49898,-0.83133 -1.00255,-1.6281 -1.06552,-1.82887c-0.74312,-2.36916 -1.1467,-5.20826 -0.86555,-7.87651c0.14047,-0.06265 0.28123,-0.12468 0.42226,-0.18606c-0.04998,-0.08113 -0.09652,-0.17174 -0.13876,-0.27281z" fill="#6b6b6b"></path>
        <path d="M317.92967,259.6425c0.07456,-0.37786 0.12828,-0.77663 0.15852,-1.19865c0.29777,-4.15713 -3.73778,-6.81931 -2.88838,-11.36995c0.24092,-1.40046 0.54178,-2.7953 0.80636,-4.17259c1.78202,-1.57005 6.03661,-4.21785 5.88994,-0.68813c-0.04374,1.05272 -2.61021,2.08865 -3.10651,2.67855c-0.74909,0.89039 -1.3919,2.88522 -1.48857,4.02058c-0.22318,2.62133 1.61663,4.71809 1.61761,7.29236c0.0004,1.02319 -0.53812,2.07469 -0.78345,3.06803c-0.0632,0.12613 -0.13241,0.24932 -0.20554,0.36981z" fill="#b7b7b7"></path>
        <path d="M269.64193,253.35077c2.10398,7.26193 7.15958,12.84066 13.26248,17.07184l-0.16013,0.02421c-1.60238,0.67659 -3.23612,0.96247 -4.80385,1.70967c-2.12088,-0.67158 -2.72721,-1.4977 -4.16706,-3.07913c-3.04733,-3.34697 -5.56145,-6.11889 -7.69583,-10.23368c-0.56492,-1.08908 -0.93544,-2.28549 -1.57811,-3.33057c-0.15591,-0.25353 -0.75456,-0.32484 -0.65606,-0.6057c0.09315,-0.26557 0.42524,0.46404 0.70667,0.46208c0.74699,-0.00523 1.48229,-0.26401 2.19466,-0.48881c1.6158,-0.50991 1.97054,-0.78472 2.8972,-1.5299z" fill="#b7b7b7"></path>
        <path d="M300.93319,238.03923c-0.20847,0.08965 -0.39645,0.08277 -0.60374,0.17522c-0.28115,2.66824 0.14296,5.51611 0.88607,7.88527c0.06298,0.20077 0.58053,1.01311 1.0795,1.84443c0.16201,0.85098 0.40372,1.69178 0.712,2.44963l0.06658,0.06867c-0.4916,0.33184 -1.48486,0.2004 -2.06291,0.51675c-1.62401,0.88879 -3.28628,1.78303 -4.95042,2.64608c0,0 -1.28169,0.60458 -0.59033,1.93576c0.69135,1.33117 2.00546,0.63467 2.00546,0.63467c2.15118,-1.11893 4.53304,-1.99195 6.54322,-3.31226c0.3927,-0.25793 0.85842,-0.48223 1.2522,-0.76926c0.3351,-0.00286 0.7105,-0.13184 1.06612,-0.54452c0.9792,-1.1363 -0.15739,-2.10267 -0.15739,-2.10267l-0.04923,-0.02185c-0.16907,-0.76506 -0.58871,-1.43094 -1.02599,-2.10914c-0.79111,-4.18538 0.78544,-9.88718 4.50338,-11.89889c0.72302,-0.39122 5.63155,-2.1082 5.28348,0.35334c-0.15122,1.06946 -0.98733,1.96152 -1.15976,3.02778c-0.14326,0.88582 -0.29728,1.77112 -0.45981,2.65088c-0.02339,0.02628 -0.04636,0.05253 -0.06902,0.07859c0,0 -0.67796,0.79228 -0.24745,1.62184c-0.2133,1.12821 -0.42387,2.26768 -0.62126,3.40858c-0.44925,2.78075 -0.24506,4.69148 0.86016,7.32877c0.53379,1.27373 2.14184,2.77845 1.95402,4.24806c-0.4991,3.9051 -2.90358,4.70124 -5.82813,6.44244c-4.65495,2.77144 -8.33416,4.76037 -13.65848,5.9621c-1.83684,-0.13567 -3.87535,0.38171 -5.65372,0.16286c-1.78245,-0.21935 -3.25935,-1.27802 -4.65582,-2.20892c-6.22493,-4.14955 -11.47406,-9.59189 -13.18133,-17.17653l0.05088,-0.06668c1.36376,-2.96208 5.08924,-1.25702 7.86834,-1.27871c2.12643,-0.01659 3.54724,-0.68811 5.20799,-1.81205c0.35109,-0.00684 0.621,-0.12046 0.621,-0.12046l2.53465,-1.06709c1.31118,-0.69063 3.01718,-0.66872 4.15967,-1.61259c1.12713,-0.93119 1.33197,-1.79276 1.27069,-2.66713c0.08176,-0.11253 0.12372,-0.19444 0.12372,-0.19444c1.31709,-2.79949 -0.29881,-7.69753 1.88018,-10.06445c1.35469,-1.47153 7.50376,-5.76082 8.14932,-1.09812c0.14704,1.06205 -0.68401,0.96071 -1.32571,1.55957c-1.08921,1.01647 -1.60264,2.56703 -1.97087,4.01063c0.06477,0.3714 0.128,0.74248 0.19277,1.11388z" fill="#b7b7b7"></path>
      </g>
    </g>
  </g>
</svg>
