<?xml version="1.0" encoding="UTF-8"?>
<svg xmlns="http://www.w3.org/2000/svg" xmlns:xlink="http://www.w3.org/1999/xlink" version="1.1" width="28.46996" height="37.39783" viewBox="0,0,28.46996,37.39783">
  <g transform="translate(-225.76501,-161.30108)">
    <g stroke="none" stroke-width="0.5" stroke-miterlimit="10">
      <path d="M233.4653,176.44687c-0.55583,-3.36916 -0.57789,-7.49896 1.23946,-9.97128c1.44529,-1.96616 3.69247,-3.4665 5.66336,-4.83659l0.28927,0.02033l-0.01641,-0.09847l1.43339,-0.2389c0.07416,-0.01371 0.15061,-0.02088 0.22873,-0.02088c0.69036,0 1.25,0.55964 1.25,1.25c0,0.24259 -0.0691,0.46903 -0.1887,0.66073l-0.47505,0.79176c-0.42621,2.74254 -0.15247,5.09168 1.25502,7.93202c0.59032,1.19127 1.57495,2.97354 3.21249,2.50851c1.32411,-0.37602 2.59024,-1.59413 3.63341,-2.43v0v0l1.20607,-0.96485c0.21512,-0.17514 0.48962,-0.28013 0.78864,-0.28013c0.69036,0 1.25,0.55964 1.25,1.25c0,0.05286 -0.00328,0.10495 -0.00965,0.15609l-0.24076,2.16688l-0.1149,-0.01277c0.01827,1.37034 -0.1438,2.70051 -0.68342,4.19274c-0.66391,1.83595 -2.96662,3.26356 -3.08036,5.22071c-0.16475,2.83505 2.43831,5.27655 1.69712,8.28661c-0.22111,0.89795 -0.19481,2.39203 -1.10703,2.54389c-1.85077,0.3081 -3.26507,-2.55168 -3.91127,-3.75655c-0.45207,-0.84291 -1.06334,-2.99831 -1.71642,-2.29949c-0.67674,0.72413 -0.94168,1.74504 -1.45057,2.59555c-0.68863,1.14483 -1.44737,2.25165 -2.28173,3.29505c-0.48441,0.60577 -0.98908,1.19602 -1.51454,1.76655c-0.4263,0.46286 -0.80623,0.99558 -1.33851,1.33121c-2.23985,1.41233 -3.51523,2.22 -3.98372,-1.40424c-0.28672,-2.21808 1.20227,-5.63523 1.21293,-8.05939c0.00285,-0.64892 0.55498,-1.66161 -0.02803,-1.94656c-0.99692,-0.48725 -2.2315,-0.01499 -3.32136,-0.22347c-2.03854,-0.38994 -3.54045,-0.98399 -4.97398,-2.48228c-0.55238,-0.57733 -1.59862,-0.96578 -1.62255,-1.76445c-0.08402,-2.80443 4.2162,-3.34597 6.00203,-4.15791c0.56549,-0.34045 1.13117,-0.68057 1.69704,-1.0204zM234.02396,179.02622c-0.36433,0.21821 -0.72872,0.43631 -1.09318,0.65432c-0.70746,0.32188 -1.39631,0.6883 -2.12239,0.96564c-0.68885,0.26312 -1.40275,0.45703 -2.11378,0.65245c-0.14352,0.03945 -0.56954,-0.02899 -0.44367,0.05046c1.39862,0.88289 2.80066,1.74113 4.57087,2.06531c0.78957,0.1446 3.97626,0.37961 4.44728,0.7476c1.77554,1.38716 0.98067,6.17425 0.68276,7.97296c-0.0989,0.59712 -0.23466,1.18799 -0.37957,1.77564c-0.08731,0.35405 -0.16637,0.71146 -0.25664,1.06533c0.74012,-0.889 1.84281,-1.84827 2.07026,-2.13245c0.76424,-0.95485 1.46015,-1.96745 2.0881,-3.01697c0.67663,-1.12484 1.86266,-3.2684 2.9193,-3.71647c2.03615,-0.86342 3.93519,2.30529 4.59561,3.52699c0.00626,0.01157 0.12642,0.18308 0.28296,0.43466c-0.27268,-1.6366 -1.03543,-3.04288 -1.3906,-4.66812c-0.82144,-3.75887 1.89068,-4.70441 2.96028,-7.7489c0.36453,-1.0376 0.37955,-1.93464 0.59359,-2.78262c-1.06832,0.85508 -2.2621,1.71762 -3.50389,2.00517c-4.34022,1.00503 -6.73683,-4.35216 -7.57015,-7.71509c-0.21903,-0.88392 -0.57838,-2.81416 -0.37307,-4.2299c-1.16744,0.86922 -2.34328,1.81382 -3.19616,2.91959c-1.53998,1.99661 -1.32747,5.90609 -0.77295,8.76342c0.1485,0.20372 0.37241,0.60968 0.23485,1.07223c0.06903,0.28118 0.13998,0.54447 0.21091,0.7858c0,0 0.3434,1.20191 -0.85851,1.5453c-1.20191,0.3434 -1.5453,-0.85851 -1.5453,-0.85851c-0.01234,-0.04423 -0.02464,-0.08885 -0.03689,-0.13385z" fill="#003a5f"></path>
      <path d="M234.11038,179.16688c0,0 0.24387,1.19585 1.44578,0.85246c1.20191,-0.3434 0.86274,-1.5662 0.86274,-1.5662c-0.07093,-0.24132 -0.13835,-0.51125 -0.20738,-0.79242c0.13756,-0.46255 -0.08173,-0.87469 -0.23023,-1.07841c-0.55452,-2.85733 -0.74159,-6.78237 0.79839,-8.77898c0.85288,-1.10578 2.04142,-2.05187 3.20886,-2.9211c-0.20532,1.41573 0.15597,3.34603 0.375,4.22995c0.83332,3.36294 3.27422,8.7523 7.61444,7.74728c1.24179,-0.28755 2.43463,-1.15239 3.50295,-2.00747c-0.21404,0.84798 -0.22591,1.75486 -0.59045,2.79246c-1.0696,3.04448 -3.78926,4.02828 -2.96782,7.78715c0.35517,1.62524 1.11063,3.04006 1.3833,4.67665c-0.15653,-0.25158 -0.34517,-0.49597 -0.35142,-0.50754c-0.66042,-1.22171 -2.49533,-4.31391 -4.53149,-3.45049c-1.05664,0.44806 -2.26424,2.60078 -2.94086,3.72562c-0.62795,1.04952 -1.33379,2.06276 -2.09803,3.01761c-0.22745,0.28418 -1.33668,1.2428 -2.07679,2.1318c0.09027,-0.35387 0.18558,-0.80995 0.27289,-1.164c0.14492,-0.58765 0.26506,-1.07975 0.36396,-1.67687c0.29791,-1.7987 1.07441,-6.5925 -0.70114,-7.97967c-0.47101,-0.36798 -3.67653,-0.62357 -4.46611,-0.76817c-1.77021,-0.32418 -3.17706,-1.19858 -4.57568,-2.08147c-0.12586,-0.07945 0.30015,-0.011 0.44368,-0.05045c0.71103,-0.19543 1.42471,-0.3915 2.11357,-0.65462c0.72608,-0.27734 1.41482,-0.64956 2.12228,-0.97144c0.36445,-0.218 0.72943,-0.44201 1.09376,-0.66022c0.01225,0.045 0.12346,0.10432 0.1358,0.14855z" fill="#0062a1"></path>
    </g>
  </g>
</svg>
