<?xml version="1.0" encoding="UTF-8"?>
<svg xmlns="http://www.w3.org/2000/svg" xmlns:xlink="http://www.w3.org/1999/xlink" version="1.1" width="57.16662" height="49.66669" viewBox="0,0,57.16662,49.66669">
  <g transform="translate(-211.41669,-155.16665)">
    <g stroke="none" stroke-miterlimit="10">
      <g>
        <path d="M223.18334,201.16669l0.3177,-40.42715c0,0 2.56287,0.75443 5.92001,-1.08503c2.93613,-1.60879 7.93601,-1.75097 10.51821,-1.77567c2.47943,-0.02372 6.60036,-0.9409 10.49481,1.69507c3.34969,2.26725 6.28054,0.84793 6.28054,0.84793l0.63539,40.74484z" fill="#f1ea00" stroke-width="0"></path>
        <path d="M215.18334,193.33335v-19.33333h49.83333v19.33333z" fill="#f1ea00" stroke-width="0"></path>
        <path d="M219.01667,197.50003v-31h42v31z" fill="#f1ea00" stroke-width="0"></path>
        <path d="M238.08335,204.83335v-3.83334h3.83333v3.83334z" fill="#000000" stroke-width="NaN"></path>
        <path d="M241.91669,204.83335v-3.83334h3.83333v3.83334z" fill="#000000" stroke-width="NaN"></path>
        <path d="M245.75001,204.83335v-3.83334h3.83333v3.83334z" fill="#000000" stroke-width="NaN"></path>
        <path d="M249.58335,204.83335v-3.83334h3.83333v3.83334z" fill="#000000" stroke-width="NaN"></path>
        <path d="M230.58335,204.83335v-3.83334h3.83333v3.83334z" fill="#000000" stroke-width="NaN"></path>
        <path d="M234.41669,204.83335v-3.83334h3.83333v3.83334z" fill="#000000" stroke-width="NaN"></path>
        <path d="M253.25001,204.83335v-3.83334h3.83333v3.83334z" fill="#000000" stroke-width="NaN"></path>
        <path d="M257.08336,201.00003v-3.83334h3.83333v3.83334z" fill="#000000" stroke-width="NaN"></path>
        <path d="M226.75001,204.83335v-3.83334h3.83333v3.83334z" fill="#000000" stroke-width="NaN"></path>
        <path d="M219.41669,201.00003v-3.83334h3.83333v3.83334z" fill="#000000" stroke-width="NaN"></path>
        <path d="M223.08335,204.83335v-3.83334h3.83333v3.83334z" fill="#000000" stroke-width="NaN"></path>
        <path d="M215.41669,197.1667v-3.83334h3.83333v3.83334z" fill="#000000" stroke-width="NaN"></path>
        <path d="M260.91668,197.1667v-3.83334h3.83333v3.83334z" fill="#000000" stroke-width="NaN"></path>
        <path d="M211.41669,193.1667v-3.83334h3.83333v3.83334z" fill="#000000" stroke-width="NaN"></path>
        <path d="M264.74998,185.50003v-3.83334h3.83333v3.83334z" fill="#000000" stroke-width="NaN"></path>
        <path d="M211.41669,181.83335v-3.83334h3.83333v3.83334z" fill="#000000" stroke-width="NaN"></path>
        <path d="M211.41669,185.6667v-3.83334h3.83333v3.83334z" fill="#000000" stroke-width="NaN"></path>
        <path d="M264.74998,193.1667v-3.83334h3.83333v3.83334z" fill="#000000" stroke-width="NaN"></path>
        <path d="M211.41669,189.50003v-3.83334h3.83333v3.83334z" fill="#000000" stroke-width="NaN"></path>
        <path d="M264.74998,189.33335v-3.83334h3.83333v3.83334z" fill="#000000" stroke-width="NaN"></path>
        <path d="M264.74998,181.6667v-3.83334h3.83333v3.83334z" fill="#000000" stroke-width="NaN"></path>
        <path d="M211.41669,178.00003v-3.83334h3.83333v3.83334z" fill="#000000" stroke-width="NaN"></path>
        <path d="M264.74998,177.83335v-3.83334h3.83333v3.83334z" fill="#000000" stroke-width="NaN"></path>
        <path d="M215.41669,174.1667v-3.83334h3.83333v3.83334z" fill="#000000" stroke-width="NaN"></path>
        <path d="M215.41669,170.50003v-3.83334h3.83333v3.83334z" fill="#000000" stroke-width="NaN"></path>
        <path d="M260.91668,174.00003v-3.83334h3.83333v3.83334z" fill="#000000" stroke-width="NaN"></path>
        <path d="M260.91668,170.33335v-3.83334h3.83333v3.83334z" fill="#000000" stroke-width="NaN"></path>
        <path d="M257.08336,166.5v-3.83334h3.83333v3.83334z" fill="#000000" stroke-width="NaN"></path>
        <path d="M219.41669,166.5v-3.83334h3.83333v3.83334z" fill="#000000" stroke-width="NaN"></path>
        <path d="M223.08335,162.6667v-3.83333h3.83333v3.83333z" fill="#000000" stroke-width="NaN"></path>
        <path d="M226.75001,162.6667v-3.83333h3.83333v3.83333z" fill="#000000" stroke-width="NaN"></path>
        <path d="M253.33335,162.6667v-3.83334h3.83333v3.83334z" fill="#000000" stroke-width="NaN"></path>
        <path d="M249.49999,162.6667v-3.83334h3.83333v3.83334z" fill="#000000" stroke-width="NaN"></path>
        <path d="M234.29168,159v-3.83334h3.83333v3.83334z" fill="#000000" stroke-width="NaN"></path>
        <path d="M238.12501,159v-3.83334h3.83333v3.83334z" fill="#000000" stroke-width="NaN"></path>
        <path d="M241.87501,159v-3.83334h3.83333v3.83334z" fill="#000000" stroke-width="NaN"></path>
        <path d="M245.75001,159v-3.83334h3.83333v3.83334z" fill="#000000" stroke-width="NaN"></path>
        <path d="M230.58335,159v-3.83334h3.83333v3.83334z" fill="#000000" stroke-width="NaN"></path>
        <g fill="#827d00">
          <path d="M236.20834,179.90836v-3.83334h3.83333v3.83334z" stroke-width="NaN"></path>
          <path d="M232.54168,179.90836v-3.83334h3.83333v3.83334z" stroke-width="NaN"></path>
          <path d="M236.12501,183.74169v-3.83334h3.83333v3.83334z" stroke-width="NaN"></path>
          <path d="M232.45834,183.74169v-3.83334h3.83333v3.83334z" stroke-width="NaN"></path>
          <path d="M236.20834,187.67502v-3.83334h3.83333v3.83334z" stroke-width="NaN"></path>
          <path d="M236.08332,176.15836v-3.83334h3.83333v3.83334z" stroke-width="NaN"></path>
          <path d="M239.95834,179.90836v-3.83334h3.83333v3.83334z" stroke-width="NaN"></path>
          <path d="M243.62501,179.90836v-3.83334h3.83333v3.83334z" stroke-width="NaN"></path>
          <path d="M240.04168,183.74169v-3.83334h3.83333v3.83334z" stroke-width="NaN"></path>
          <path d="M243.70834,183.74169v-3.83334h3.83333v3.83334z" stroke-width="NaN"></path>
          <path d="M239.95834,187.67502v-3.83334h3.83333v3.83334z" stroke-width="NaN"></path>
          <path d="M240.08337,176.15836v-3.83334h3.83333v3.83334z" stroke-width="NaN"></path>
        </g>
      </g>
    </g>
  </g>
</svg>
