<?xml version="1.0" encoding="UTF-8"?>
<svg xmlns="http://www.w3.org/2000/svg" xmlns:xlink="http://www.w3.org/1999/xlink" version="1.1" width="78.48436" height="55.83371" viewBox="0,0,78.48436,55.83371">
  <defs>
    <radialGradient cx="240" cy="174.5061" r="39.24218" gradientUnits="userSpaceOnUse" id="color-1">
      <stop offset="0" stop-color="#ff3d75"></stop>
      <stop offset="1" stop-color="#ff3c3c"></stop>
    </radialGradient>
  </defs>
  <g transform="translate(-200.75782,-152.08314)">
    <g stroke="none" stroke-width="0" stroke-miterlimit="10">
      <g>
        <path d="M200.75782,199.09469c0,-3.08618 0,-9.41036 0,-9.41036h78.48436c0,0 0,7.71 0,10.99308c0,2.66424 -3.40767,7.23945 -8.7501,7.23945c-16.96537,0 -53.44158,0 -62.26057,0c-3.76199,0 -7.47368,-5.834 -7.47368,-8.82217z" fill="#902340"></path>
        <path d="M200.75783,188.35823c0,-9.01068 0,-22.57372 0,-27.67137c0,-3.8567 5.92549,-8.60371 11.24705,-8.60371c9.3724,0 40.12944,0 56.60052,0c6.39522,0 10.63678,5.56715 10.63678,9.8615c0,5.12747 0,17.81304 0,26.41358c0,4.96652 -3.96793,8.57081 -10.00789,8.57081c-16.12282,0 -47.00987,0 -56.60052,0c-5.56674,0 -11.87594,-3.58988 -11.87594,-8.57081z" fill="url(#color-1)"></path>
      </g>
    </g>
  </g>
</svg>
