<?xml version="1.0" encoding="UTF-8"?>
<svg xmlns="http://www.w3.org/2000/svg" xmlns:xlink="http://www.w3.org/1999/xlink" version="1.1" width="117.41822" height="198.02131" viewBox="0,0,117.41822,198.02131">
  <g transform="translate(-181.55,-73.19992)">
    <g stroke="none" stroke-miterlimit="10">
      <path d="M249.64547,244.07913c0.79557,0 1.08459,-0.50681 1.18973,-0.87497c1.77185,3.50434 3.14057,7.2479 3.57412,10.99581c0.4109,3.55219 2.90933,4.54407 0.67307,7.86728c-1.77493,1.80111 -3.82879,1.80969 -5.9845,2.8768c-3.33055,1.64868 -7.19173,2.58048 -10.86,3.10451c-1.74134,0.24875 -4.12323,0.8965 -5.92296,0.42653c-1.89283,-0.49428 -4.00287,-1.32547 -5.90831,-1.96222c-1.58836,-0.52866 -3.96505,-0.96837 -5.36518,-1.8787c-0.57924,-0.37661 -0.91804,-1.16068 -1.58018,-1.35797c-3.01786,-0.8992 -5.27207,2.22721 -7.60898,3.26574c-5.13664,2.28274 -10.83048,1.2305 -15.90395,-0.46066c-0.61866,-0.20623 -3.69517,-0.76128 -4.01413,-1.22345c-0.33887,-0.49102 0.83216,-0.87571 1.11624,-1.40034c0.83272,-1.53785 1.29146,-3.39362 1.70788,-5.0824c0.90054,-3.65214 -0.75699,-6.12119 -0.75699,-9.53656c0,-1.37907 1.30367,-2.86561 1.28644,-4.07629c0.31451,-0.14895 0.55751,-0.42675 0.66118,-0.76386l0.2774,-0.83179c0.27711,0.11254 0.52829,0.11236 0.52829,0.11236c4.13818,-0.1793 8.78038,3.20218 12.85258,4.34621c4.60005,1.29232 10.01109,0.82496 14.7959,0.82496c4.26126,0 8.10128,-0.94734 12.25196,-1.59759c3.83395,-0.60064 9.02182,-1.04115 12.64427,-2.81033c0.10311,0.02352 0.21811,0.03691 0.34608,0.03691z" fill="#750000" stroke-width="0.5"></path>
      <path d="M234.19977,246.01616c4.79865,-0.64846 9.23485,-2.77164 14.20024,-2.81616l0.75098,0c0.02625,-0.66717 0.57541,-1.19998 1.24902,-1.19998c0.14845,0 0.29086,0.02588 0.42296,0.07337l1.17233,0.39077l-0.03191,0.09573c0.18023,0.04839 0.35452,0.11475 0.52051,0.20624c0.50798,0.27998 0.42906,1.07835 0.67097,1.60552c1.1866,2.58585 1.37129,5.02897 2.05783,7.77519l0.03732,0.70316c0,0 0,1.25 -1.25,1.25c-0.26479,0 -0.47348,-0.05609 -0.63797,-0.14451c0.05157,0.11738 0.10516,0.23254 0.16086,0.34532c0.68816,1.39338 2.03027,2.45198 2.87346,3.78696c0,4.2356 -2.95751,4.90535 -6.10297,7.0023c-6.23763,4.15837 -13.34178,6.99474 -20.68866,4.54578c-2.43652,-0.8142 -8.89389,-1.87458 -9.98707,-4.78019c-0.29787,-0.79171 0.95079,-3.83327 1.16968,-4.70883c0.84078,-3.3632 2.81655,-7.90483 1.62683,-11.30156c0,0 -0.39528,-1.18586 0.79058,-1.58113c0.53748,-0.17916 0.91256,-0.0335 1.16203,0.17934c2.91599,-1.43249 6.65017,-0.99721 9.833,-1.42732zM252.30144,249.62912c0.02211,0.18375 0.04609,0.36699 0.07212,0.54935c-0.02328,-0.18345 -0.04701,-0.36685 -0.07212,-0.54935z" fill="#520000" stroke-width="0.5"></path>
      <path d="M205.085,131.47075l-0.84637,1.46105c-0.54506,1.9334 -0.93971,3.87473 -1.42593,5.82137c0,0 -0.09,0.35999 -0.36807,0.63867l0.00537,1.05817c0,0 0,1.25 -1.25,1.25c-0.14149,0 -0.26697,-0.01602 -0.37824,-0.04442c-0.18499,0.05955 -0.41014,0.07519 -0.68327,0.01675c-1.22233,-0.26153 -0.9608,-1.48386 -0.9608,-1.48386l0.0706,-0.32997c1.4153,-6.61249 3.7559,-12.82796 9.17085,-17.18458c0,0 0.97609,-0.78087 1.75696,0.19521c0.78087,0.97608 -0.19521,1.75696 -0.19521,1.75696c-2.04918,1.62901 -3.60005,3.57438 -4.80525,5.72033c0.23717,0.55139 -0.09063,1.12434 -0.09063,1.12434z" fill="#000000" stroke-width="0.5"></path>
      <path d="M210.30171,245.26458c-4.13863,-1.20593 -8.2248,-3.87765 -12.46961,-4.38446l0.35798,-0.53798l-0.01096,-0.00731l0.02716,-0.01767c1.0117,-1.69709 1.45538,-2.43828 1.56111,-3.51386l0.10835,-0.00264l0.06084,0.03618l0.3219,-0.96656c0.00083,-0.00057 0.09943,0.01982 0.10025,0.01925c0.32067,0.26087 0.62834,0.54767 0.95953,0.78383c2.03405,1.45042 4.75765,2.49853 7.09797,3.35205c5.67794,2.07074 11.69636,0.08562 17.42777,0.03423c3.03113,-1.01038 6.41665,0.00882 9.55839,-0.37478c3.49111,-0.42626 6.62177,-1.15918 10.05137,-2.01448l0.9957,0.0223c0,0 0.57539,-0.00052 0.94541,-0.39098c1.08401,1.66267 2.14106,3.42849 3.09512,5.24749l-1.53336,-1.1384c-1.27905,0.9476 -3.29222,0.92144 -4.90212,1.45806c-6.07264,2.02416 -13.3086,3.18111 -19.65212,3.18111c-4.52069,0 -9.76523,0.47791 -14.10068,-0.78538z" fill="#bdbdbd" stroke-width="0.5"></path>
      <path d="M225.51779,85.34009c0.2559,-0.63975 0.51642,-1.27304 0.77232,-1.91279c0.39616,-0.56653 0.89038,-1.07381 1.56553,-1.5044c0,0 1.04332,-0.68998 0.34994,-1.73004c-0.69338,-1.04007 -1.72802,-0.34221 -1.72802,-0.34221c-0.94455,0.64951 -1.65944,1.38702 -2.23105,2.20428c-0.08942,0.10667 -0.09956,0.12521 -0.13711,0.19623c-0.78582,1.21748 -1.27131,2.61471 -1.724,4.16354l0.34077,1.1498c-2.56653,0.48145 -4.9972,1.91964 -6.52698,4.16116c0,0 -0.70238,1.03121 0.33767,1.7246c1.04005,0.69338 1.72352,-0.35254 1.72352,-0.35254c2.60589,-4.03492 9.22619,-4.61591 11.89713,-0.01062c1.13243,1.95255 -0.21047,4.41559 -1.36964,6.20718c-0.20143,-0.05491 -0.35778,-0.05435 -0.35778,-0.05435l-0.80686,0.06567c-0.0096,-0.00132 -0.07507,-0.08581 -0.08468,-0.08755c0.89363,-1.22344 1.00421,-2.20521 1.60756,-4.0031c0,0 0.4771,-1.1285 -0.70876,-1.52378c-1.18586,-0.39528 -1.58642,0.79742 -1.58642,0.79742c-0.18559,0.56013 -0.28889,1.10213 -0.40735,1.61169c-0.27546,0.08979 -0.51233,0.27521 -0.66656,0.51402l-0.72559,1.08383l-0.18004,0.17951c-0.14456,0.09501 -0.25123,0.20733 -0.32628,0.32527l-0.61251,0.61041c-0.18879,0.18879 -0.31984,0.43844 -0.35725,0.71628c-0.07996,0.07685 -0.16319,0.15384 -0.24849,0.22895c-1.08802,-0.50725 -1.63918,0.58213 -1.63918,0.58213l0.39454,0.89918c-0.67182,-0.90812 -1.44497,-1.44612 -2.35734,-1.85897c-3.3596,-3.35493 -8.06618,-4.80268 -12.7536,-3.48017c-0.22488,-0.45579 -0.45862,-0.91417 -0.62085,-1.39311c-0.47452,-1.40093 1.17422,-3.23792 1.5858,-4.45601c1.6925,-5.00901 3.61788,-10.12435 9.04876,-12.01535c2.70537,0.01181 5.75168,-0.80565 8.43527,-1.19817c1.58971,-0.23252 3.92538,-1.92333 5.45359,-0.63258c2.58261,2.18132 5.44971,9.83241 1.68272,12.00337c-0.45159,0.3109 -1.05102,0.55604 -1.57057,0.74603c-0.19261,-0.27871 -0.62431,-0.85797 -1.49503,-0.42262c-0.07884,0.03942 -0.24934,0.08032 -0.31229,0.12471c-1.22291,-0.73462 -2.59641,-1.12347 -4.00149,-1.21855c-0.01808,-0.10675 -0.03985,-0.17152 -0.03985,-0.17152l-0.06232,-0.14877c0.52688,-0.35167 0.52945,-1.0474 0.52945,-1.0474l-0.0867,-0.73065z" fill="#750000" stroke-width="0.5"></path>
      <path d="M210.50605,238.02724c-3.5347,-0.40335 -6.17837,-3.01779 -9.1439,-4.54007c0.80986,-2.01051 1.67938,-4.14239 2.05226,-6.28436c1.62586,2.04931 4.10366,2.80307 7.08557,3.6548c6.16915,1.76212 12.36423,2.08405 18.4996,3.61801c6.19227,0.0331 12.38622,1.08694 16.50074,-3.98745l0.09955,0.75807c0,0 0.00011,0.50391 0.31812,0.87164c0.24449,1.02312 0.38481,2.0548 0.62044,3.09264c-0.05552,-0.0054 -0.08868,-0.00539 -0.08868,-0.00539l-1.50323,0.03777c-3.3383,0.8365 -6.45727,1.54936 -9.85266,1.98462c-3.18817,0.40869 -6.58351,-0.59555 -9.67942,0.43642c-2.07708,-0.02395 -3.69356,0.55858 -5.64466,0.79221c-3.01768,0.36135 -6.31227,-0.0921 -9.26373,-0.4289z" fill="#750000" stroke-width="0.5"></path>
      <path d="M291.2354,188.52154c0.88388,-0.88389 -0.00146,-1.75846 -0.00146,-1.75846l-0.28395,-0.26471c-0.94416,-1.25187 -1.69845,-2.50428 -2.56055,-3.7332c0.2377,-0.81262 -0.53441,-1.32309 -0.53441,-1.32309l-1.09393,-0.71982c-0.01722,-0.01738 -0.03404,-0.03446 -0.05122,-0.05187c-0.08421,-0.08911 -0.16807,-0.17611 -0.25569,-0.26404c0,0 -0.00727,-0.00731 -0.02145,-0.02013c-3.38225,-3.4945 -5.93647,-7.33971 -10.86686,-7.87761c-0.52306,-0.2304 -1.07214,-0.4343 -1.66102,-0.61233c-0.39767,-0.94379 -0.87836,-2.08614 -1.35439,-3.18996c0.48501,0.43331 1.006,0.82336 1.55896,1.15514l1.17697,0.78291c0,0 1.04491,0.69151 1.73827,-0.34856c0.00015,-0.00023 0.0003,-0.00045 0.00045,-0.00068c1.45876,0.79742 2.88019,1.65458 4.423,2.42786c0.05654,0.02833 0.11297,0.05691 0.16812,0.08574c0.0921,0.26634 0.27358,0.49181 0.50631,0.64211l1.18881,0.78948c2.9767,1.98451 5.91046,4.47448 8.14814,7.35674c0.89144,1.14823 0.98176,2.22405 1.75373,2.65636c-0.00924,0.06128 -0.01389,0.12482 -0.01389,0.18868c0,0.14845 0.02615,0.29277 0.07364,0.42487l0.38201,1.15013c0.15709,0.51078 0.6326,0.88563 1.1949,0.88563c0.0066,0 0.01319,-0.00005 0.01977,-0.00015c2.07965,1.65415 1.89723,3.57241 1.0777,5.62143c-0.3602,0.15665 -0.63387,0.48131 -0.7226,0.87231l-0.36497,1.45406c-0.19575,0.41898 -0.37386,0.93238 -0.56007,1.44325c-0.46674,0.99558 -1.04677,1.84037 -1.74336,2.60923c-0.1779,0.13032 -0.374,0.26661 -0.57695,0.40252l-1.77623,0.35728c-0.58424,0.10493 -1.03169,0.61803 -1.03169,1.23247c0,0.28691 0.09642,0.55137 0.25896,0.76234c-0.71735,0.67627 -1.56865,1.51258 -2.32557,1.36673c-0.26086,-0.17822 -0.54895,-0.2009 -0.78153,-0.1742c-0.22653,0.00625 -0.49828,0.0664 -0.72667,0.26371l-0.38319,0.19967c-1.79311,0.62805 -2.78079,0.10029 -4.71528,-0.05934c-1.85345,-0.15295 -3.13848,0.41323 -4.91588,0.39274c0,0 -0.18942,-0.00035 -0.42004,0.07286l-0.84291,-0.63136c-1.51069,-1.08332 -2.67367,-2.24884 -3.78925,-3.67542c-0.30807,-1.19623 -0.86051,-2.35168 -1.5941,-3.31378c0,0 -0.46097,-0.57653 -1.11525,-0.49206c0.90025,-1.64364 1.74237,-3.3242 2.48118,-5.04741c0,0 0.49046,-1.15561 -0.65847,-1.648l-0.00001,0.00002c-0.10366,-0.04442 -0.2021,-0.07607 -0.2952,-0.09582c0.49012,-1.16413 0.95868,-2.36201 1.36273,-3.54507c0.66133,-0.17527 0.85089,-0.9202 0.85089,-0.9202l0.50947,-2.00515c0.28278,-2.24607 0.6668,-4.49218 0.71617,-6.68284c0.77715,-0.00871 1.06701,-0.50926 1.17212,-0.87386c0.22696,0.0707 0.41202,0.07009 0.41202,0.07009c0.17958,-0.00091 0.35734,0.00314 0.53075,0.01365c1.15978,0.56331 2.1454,1.31942 3.0762,2.36324c0.12093,0.30244 0.36273,0.50456 0.51237,0.6073c0.02095,0.02631 0.04202,0.05272 0.06294,0.07934l1.22987,1.63153c0,0 0.75792,0.99003 1.75229,0.25308c0.30801,0.25571 0.61284,0.52291 0.89858,0.80049l1.64478,1.20382c0,0 0.27549,0.2012 0.63788,0.25319c0.01568,0.01758 0.02525,0.02703 0.02525,0.02703c1.79247,1.7855 2.80883,3.91532 4.30577,5.9212l0.51542,0.53628c0,0 0.78776,0.85647 1.67164,-0.02741z" fill="#0024a3" stroke-width="0.25"></path>
      <path d="M246.70795,226.65778c-1.04005,-0.69339 -1.73476,0.34704 -1.73476,0.34704l-0.80084,1.20021c-3.45538,5.1832 -9.27956,3.81848 -14.81859,3.85433c-6.00554,-1.5015 -12.17778,-1.83524 -18.21711,-3.56118c-2.78726,-0.79655 -4.95878,-1.22859 -6.23087,-3.54156c0.23576,-0.28364 0.30204,-0.61479 0.30204,-0.61479l0.39356,-1.97101c0.06939,-0.27757 0.11882,-0.55856 0.15204,-0.8419c0.1261,-0.38176 0.28773,-0.85769 0.40993,-1.24155c0.11394,0.0608 0.24891,0.1096 0.40946,0.14171c1.22573,0.24515 1.47005,-0.98089 1.47005,-0.98089c0.12777,-0.63889 0.21874,-1.18143 0.34031,-1.8173c0.02838,-0.09682 0.03731,-0.1608 0.03731,-0.1608l0.01857,-0.13315c0.22585,-1.19345 0.43622,-2.38643 0.62096,-3.59173c0.05573,-0.29342 0.14759,-0.67998 0.20315,-0.97329c0.47065,-0.17933 0.76892,-0.54161 0.76892,-1.07523l-0.00069,-2.00027h-0.00427l0.00421,-0.01301c-0.00623,-0.29956 -0.01569,-0.59876 -0.02727,-0.8974c0.13217,-0.68147 0.26567,-1.36312 0.40229,-2.04477c0,0 0.19194,-0.9659 -0.6214,-1.35451c-0.09446,-1.1424 -0.20441,-2.28344 -0.30279,-3.42549c0.54549,-0.34735 0.5455,-1.0665 0.5455,-1.0665l-0.00015,-0.30007c-0.008,-4.20153 -1.06229,-8.30282 -1.70491,-12.45c-0.43439,-2.80337 -0.43268,-5.71964 -0.99509,-8.47362c0.48868,-0.11726 1.04672,-0.31231 1.50783,-0.46509c0,0 1.10454,-0.33708 0.70927,-1.52294c-0.39527,-1.18585 -1.58293,-0.79339 -1.58293,-0.79339c-3.18821,1.06992 -8.14812,1.41152 -10.72514,-1.30731c-0.75108,-0.79241 -1.24332,-1.84947 -2.1159,-2.50572c-0.55592,-0.4181 -1.35832,-0.50516 -1.81805,-1.02718c-0.33165,-0.37658 -0.53249,-0.83993 -0.71163,-1.31647c0.02848,-0.01792 0.0572,-0.03726 0.08616,-0.05794c1.01717,-0.72655 0.2903,-1.74608 0.2903,-1.74608l-0.54702,-0.76681c-0.84878,-1.18821 -1.60039,-2.04241 -2.14086,-3.07697c0.274,-0.17157 0.52042,-0.48153 0.52042,-1.03651c0,-0.25322 -0.05127,-0.45597 -0.13308,-0.61699c0.32604,-1.02779 0.53825,-1.84617 0.63251,-2.75031l0.26356,0.06594l0.39351,-1.57499c0.02877,-0.10524 0.0442,-0.21646 0.0442,-0.33081c0,-0.3208 -0.12065,-0.61441 -0.31931,-0.83572c0.08302,-0.25121 0.16779,-0.50839 0.25558,-0.7711c0,0 0.09434,-0.28328 0.05288,-0.61844c0.50298,-0.77779 0.9685,-1.53162 1.39804,-2.29874c0.25843,-0.17001 0.4046,-0.38959 0.4046,-0.38959c0.16654,-0.24997 0.33346,-0.50111 0.5,-0.75109l0.02441,0.01745l1.44588,-2.02568c0.13609,-0.18561 0.22259,-0.41108 0.23887,-0.65475l0.96256,-1.34826c0.1517,-0.20688 0.24179,-0.46314 0.24179,-0.73935c0,-0.69036 -0.47198,-1.20188 -1.16234,-1.20188c-0.4032,0 -0.76122,0.18982 -0.98979,0.48616l-0.36885,0.46898c-0.22412,-0.33576 -0.60645,-0.55688 -1.04043,-0.55688c-0.34517,0 -0.65726,0.13908 -0.88346,0.36528l-1.19918,1.19817l0.01007,0.01005l-0.03897,0.0198c-0.84824,0.96866 -1.78955,1.90192 -2.63743,2.87088c0.22184,-2.00303 0.30948,-4.02281 0.30948,-6.05881l-0.53145,-1.36001c0,0 -0.47009,-1.07229 -1.58813,-0.51328c-0.28659,0.14329 -0.55238,0.27853 -0.65625,0.46704c-1.32961,-3.00456 -1.33984,-6.82081 0.25046,-9.64639c0.64318,-1.14278 1.61616,-2.12083 2.06486,-3.35301l-0.00093,-0.01088l0.00413,0.00138l0.34393,-1.03062c1.27544,-1.79765 2.36724,-4.15809 3.14226,-5.32478l0.01373,-0.10737l0.03267,0.01466l0.46798,-1.04072c0.97676,-1.29033 1.93157,-2.60078 2.81599,-3.94877c0.12719,-0.10465 0.23371,-0.23419 0.31154,-0.38082l0.50392,-0.90629c0.43312,-0.71092 0.84648,-1.43556 1.231,-2.1749c0.04028,-0.06572 0.08056,-0.13167 0.12053,-0.19764c2.4098,-3.01068 4.6107,-6.45817 6.20442,-9.63347l-0.00701,-0.09575l0.03806,0.01267l0.38049,-1.13999c1.67975,-1.97771 2.85751,-5.03761 3.70797,-7.52312c2.22145,-0.54133 4.43418,-0.33284 6.41208,0.50759c-0.02276,0.05048 -0.02394,0.20246 -0.04319,0.2602c-0.39529,1.18585 0.77089,1.4831 0.77089,1.4831c1.18622,0.39541 2.16194,0.57499 2.97822,0.86827c0.29833,0.31784 0.58316,0.65576 0.85188,1.01309l0.37402,0.49021c0,0 0.43756,0.57274 1.08283,0.51713c0.12192,0.23468 0.23904,0.49631 0.35162,0.78908l-0.0777,0.83508c0,0 -0.0003,0.65929 0.47848,1.02026c-0.42142,0.64456 -0.79718,1.33537 -1.19991,2.14591l0.01329,0.14392l-0.05356,-0.01341l-0.39265,1.57273c-0.0236,0.08636 -0.0381,0.17643 -0.04257,0.26917c-0.43632,1.05927 -0.77102,2.16764 -1.09246,3.13545l-1.12803,1.88208l0.1595,0.0958c-0.66978,0.86481 -1.08334,1.81315 -1.49824,3.44368v0.00001l-0.12607,0.50518l-0.93151,1.55442l0.30072,0.18064c-0.50452,0.78222 -0.71314,1.55481 -0.9786,2.85112c-0.12875,0.15092 -0.22176,0.33268 -0.26718,0.53286l-0.39266,1.57429l0.07475,0.01873l-0.08255,0.41392c-0.01181,0.05352 -0.0201,0.10831 -0.0248,0.16417c-0.25544,0.64069 -0.44735,1.35254 -0.6837,2.34859l-0.69835,1.04883c-0.13841,0.2012 -0.21885,0.44468 -0.21885,0.70734c0,0.32499 0.12409,0.62099 0.3274,0.8433c-0.47464,1.01219 -0.85672,2.18085 -1.28092,3.26196c-0.17995,0.10012 -0.33185,0.24296 -0.44321,0.41539l-0.78767,1.18291l0.14182,0.09466l-0.21935,0.43942l0.00002,0.00001h-0.00002c0,0.00001 0,0.00001 0,0.00001h-0.00001l-0.16579,0.33213c-1.10044,1.37103 -1.86317,2.91446 -2.96183,4.74684l-0.77657,1.16567c-0.08998,0.13079 -0.15521,0.27907 -0.19019,0.43935c-0.15543,-0.05222 -0.31368,-0.10083 -0.47531,-0.14519c0,0 -1.2109,-0.30514 -1.51408,0.90753c-0.30318,1.21268 0.83299,1.45148 0.83299,1.45148c0.77166,0.16489 1.52537,0.54343 2.11972,0.97461c-0.57518,0.80987 0.17727,1.55956 0.17727,1.55956c1.51678,1.50512 2.56307,3.05478 3.25618,4.6676c0.66655,2.86015 0.78717,5.93698 0.78717,8.02918l0.00044,0.73696c-0.10682,0.00999 -0.22168,0.03362 -0.34521,0.0748c-1.18585,0.39528 -0.78992,1.57655 -0.78992,1.57655c0.57254,1.71332 0.54157,3.08185 0.17565,4.45363c-0.14991,0.22427 -0.20295,0.43471 -0.20295,0.43471c-0.0614,0.2458 -0.11901,0.48079 -0.17427,0.7103c-0.3307,0.86602 -0.76392,1.75767 -1.23205,2.76439l-1.20558,1.69841c0,0 -0.44597,0.62931 -0.13981,1.24926l-0.23951,0.3182c0,0 -0.75159,0.99685 0.24841,1.74685c1,0.75 1.66314,-0.20047 1.66314,-0.20047l1.23634,-1.65419c1.13003,-1.91094 1.5199,-3.39716 2.01779,-5.39037c0.11456,-0.32523 0.21674,-0.65077 0.30583,-0.97368c0.56667,-0.27188 0.66984,-0.96318 0.66984,-0.96318l0.13613,-0.91c0.29692,-1.97424 0.53279,-3.88506 0.62101,-5.70551c0.3409,0.09584 0.65344,0.03286 0.65344,0.03286c0.96452,-0.19534 1.92156,-0.45815 2.85634,-0.77132c0.08511,0.09016 0.24204,0.18045 0.24204,0.18045c0.37405,0.28039 0.74159,0.56279 1.10556,0.84618c-0.17138,1.04769 0.90333,1.34952 0.90333,1.34952c0.46327,0.13163 0.93036,0.26358 1.40041,0.39614c0.83906,0.59912 1.70986,1.14541 2.6575,1.61026l1.78839,0.01826c0,0 0.31878,-0.00604 0.63362,-0.16586c2.76405,0.83384 5.51527,1.75194 8.07571,2.85671l1.2921,0.10343c0,0 0.70791,0.00471 1.05794,-0.52941c0.6846,0.01823 1.47891,0.02523 2.1732,-0.00112c-0.00482,0.14808 0.01794,0.31613 0.07964,0.50123c0.3953,1.18585 1.48374,0.76801 1.48374,0.76801c2.20166,-0.7389 4.1385,-1.39148 6.09627,-2.329c0.04596,-0.00338 0.09124,-0.00919 0.13569,-0.01741l0.48281,-0.0604c0.22866,0.29489 0.58632,0.48585 0.98836,0.48585c0.24259,0 0.36916,-0.07406 0.56086,-0.19366l1.98234,-1.18658l-0.13805,-0.22957c0.13493,-0.14224 0.26832,-0.28506 0.4003,-0.43011c0.24145,-0.13687 0.4748,-0.27905 0.70393,-0.42841c0.10676,-0.03697 0.20696,-0.08772 0.29837,-0.1506l1.1859,-0.78909c1.02993,-0.69242 2.04879,-1.07144 2.20909,-1.85126c0.06997,-0.05293 0.14091,-0.10606 0.2128,-0.15985l1.16256,-0.77391c0.29345,-0.18952 0.50268,-0.49736 0.55828,-0.8571c0.02379,0.01586 0.14552,0.01157 0.16931,0.02743l1.49352,0.21074c0,0 1.06183,0.01975 1.14704,-1.0975c0.29179,0.71724 1.25296,0.69756 1.25296,0.69756c4.16272,-0.10603 6.99261,5.23362 8.96859,9.68397c-1.02007,0.57021 -0.48618,1.64042 -0.48618,1.64042c1.20306,2.37924 1.20901,4.94085 0.93256,7.51647c-0.66625,0.31096 -0.66669,1.13407 -0.66669,1.13407c0.02567,2.22603 -0.93749,3.78576 -1.69835,5.84268c-0.95829,2.59066 -1.81467,5.18222 -2.8006,7.7549c-0.11753,0.1398 -0.1765,0.25761 -0.1765,0.25761l-0.40056,0.80073l-0.78993,1.57894c-0.09146,0.17371 -0.14359,0.37201 -0.14359,0.58196c0,0.51405 0.31004,0.95592 0.75355,1.14794c-0.97343,1.68126 -1.97729,3.35263 -2.93523,5.03973l-1.14384,1.42929c-0.17514,0.21512 -0.28069,0.49009 -0.28069,0.78911c0,0.31378 0.11541,0.60073 0.30637,0.82023c-0.05126,0.10342 -0.10609,0.20415 -0.16499,0.30093c-1.28708,2.11474 -2.78352,4.09042 -4.25532,6.07695l-0.00655,0.03052l-0.0099,-0.00665l-0.85487,1.27194c-0.13978,0.20183 -0.22211,0.44703 -0.22211,0.71112c0,0.26065 0.07966,0.50274 0.21613,0.70304c-0.70563,0.63621 -1.03741,1.44422 -1.64083,2.65336l-0.75901,1.13758c-0.13841,0.2012 -0.21981,0.44512 -0.21981,0.70778c0,0.04147 0.00198,0.08249 0.00593,0.12292c-0.20914,0.2191 -0.38704,0.48215 -0.54229,0.77279c-0.23724,0.12606 -0.4296,0.32654 -0.54503,0.57004l-0.7889,1.5762l0.10968,-0.01942c-0.01585,0.01819 0.00553,0.12922 -0.01026,0.14746c-0.25756,0.04544 -0.48849,0.16996 -0.66582,0.34729l-1.20116,1.20045l0.30782,0.30762c-0.96019,0.98129 -1.27224,2.02212 -1.81777,3.75749c-0.07447,-0.21387 -0.22958,-0.43022 -0.51503,-0.62053z" fill="#0024a3" stroke-width="0.25"></path>
      <path d="M249.34128,115.44338c-1.43586,-1.11678 -2.40902,-2.58824 -4.19047,-3.47048c-1.73898,-0.86122 -3.80513,-1.72962 -5.38169,-2.90884c-0.34985,-0.26168 -0.64289,-0.5486 -0.89237,-0.83461c-0.2133,0.16938 -0.4832,0.27056 -0.77674,0.27056c-0.11435,0 -0.22512,-0.01535 -0.33035,-0.04412l-1.12632,-0.28157c-1.83866,0.46487 -6.29729,0.36722 -7.70209,-0.73093c-0.27345,-0.21376 -0.6134,-0.61431 -0.84548,-1.01924c-0.12626,0.53044 -0.34463,1.05171 -0.34611,1.59613c-0.00457,1.6818 0.60198,3.42702 0.76202,5.21312c0.24063,-0.01609 0.50169,-0.02688 0.78832,-0.03339c0,0 1.25,0 1.25,1.25c0,1.25 -1.25,1.25 -1.25,1.25c-2.01472,-0.06598 -2.19456,0.38512 -3.85081,1.4729l-1.35392,0.46296c0,0 -0.65382,0.21793 -1.15233,-0.15533c-1.70576,1.37911 -2.77801,3.63703 -3.72003,5.51866c-2.54703,5.08753 -3.0729,11.012 -3.0729,16.6508c0,0 0,1.08283 -1.00782,1.23284c-1.47751,4.57005 -2.71014,10.69633 0.72449,14.77468c1.94279,2.30692 4.95785,3.76365 7.11722,5.9086c2.63218,2.76012 7.06159,2.34818 10.51633,2.85002c1.38484,0.20117 2.18518,1.00208 3.64704,0.79323c5.15908,-0.7371 9.02018,-3.18932 13.67437,-5.51421c5.88259,-1.88751 10.10042,-9.50865 10.83773,-15.39789c0.4545,-3.63026 -0.42555,-7.24136 -0.39322,-10.8475c1.36363,-4.09095 -2.11849,-9.32435 -3.88904,-12.85058c-1.02693,-2.04524 -1.35007,-4.14279 -3.61287,-2.9886l0.01966,0.12328c0,0 -0.88387,0.88389 -1.76776,0.00003c-0.45376,-0.45373 -0.44164,-0.90748 -0.3224,-1.24165c-0.8284,-0.27609 -1.67289,-0.52031 -2.35246,-1.04887zM226.30662,104.09127c0.71517,-0.63676 1.65413,-1.37859 2.59907,-1.2236c1.05437,0.17294 0.84679,1.98889 1.55306,2.58895c0.56689,0.48165 2.33438,0.57576 3.91396,0.4928c0.30055,-1.16926 2.61875,-1.97781 3.12752,-1.93327c1.38103,0.1209 2.74629,2.27927 3.73068,3.01981c1.47025,1.10605 3.39792,1.87414 5.01828,2.69116c2.60978,1.3159 4.36886,3.32291 6.81674,4.68395l1.58895,-0.38678c0,0 0.8658,-0.17316 1.2876,0.49925c1.73912,0.64248 3.00638,3.62328 3.68043,4.97729c1.97485,3.96703 5.64625,9.74349 4.11097,14.3494c0.04107,3.56195 0.85699,7.14592 0.40677,10.7525c-0.85131,6.81952 -5.65903,15.09715 -12.36229,17.40213c-4.81095,2.40813 -8.91345,5.08679 -14.32563,5.68578c-1.85273,0.20505 -2.68819,-0.57426 -4.35295,-0.80677c-4.17434,-0.58302 -8.62929,-0.40346 -11.88364,-3.54998c-2.20905,-2.22617 -5.29047,-3.68265 -7.28281,-6.0914c-4.08391,-4.93749 -2.84351,-12.11507 -1.01916,-17.58779c0,0 0.19947,-0.59836 0.74006,-0.80331c0.08723,-8.21422 1.58959,-21.62002 10.4505,-24.78724c0.39999,-0.13333 0.79998,-0.26666 1.19997,-0.39999l0.39828,0.38388c0.11703,-0.06848 0.231,-0.1318 0.34368,-0.19033c-0.08938,-2.66908 -1.92551,-7.82054 0.25995,-9.76644z" fill="#000000" stroke-width="0.5"></path>
      <path d="M251.72301,116.45172c-0.11924,0.33417 -0.12965,0.78921 0.32411,1.24294c0.88389,0.88386 1.76996,0.00181 1.76996,0.00181l-0.01981,-0.12341c2.2628,-1.15419 2.59242,0.95026 3.61935,2.9955c1.77055,3.52623 5.2629,8.78523 3.89927,12.87618c-0.03233,3.60614 0.84511,7.23895 0.39061,10.86921c-0.73731,5.88924 -4.97822,13.53754 -10.86081,15.42505c-4.65419,2.32489 -8.54033,4.78327 -13.69941,5.52037c-1.46186,0.20885 -2.26853,-0.59259 -3.65337,-0.79376c-3.45474,-0.50184 -7.90169,-0.09598 -10.53387,-2.8561c-2.15937,-2.14495 -5.18661,-3.61148 -7.1294,-5.9184c-3.43463,-4.07835 -2.21376,-10.22731 -0.73625,-14.79736c1.00782,-0.15001 1.00738,-1.23504 1.00738,-1.23504c0,-5.6388 0.53402,-11.60048 3.08105,-16.68801c0.94202,-1.88163 2.02399,-4.14999 3.72975,-5.5291c0.49851,0.37326 1.15372,0.15425 1.15372,0.15425l1.35641,-0.46471c1.65625,-1.08778 1.84427,-1.54323 3.85899,-1.47725c0,0 1.2534,-0.00128 1.2534,-1.25128c0,-1.25 -1.21666,-1.15574 -1.21666,-1.15574c-0.28663,0.00651 -0.584,-0.07586 -0.82463,-0.05977c-0.16004,-1.7861 -0.7646,-3.53208 -0.76003,-5.21388c0.00148,-0.54442 0.22117,-1.06614 0.34743,-1.59658c0.23208,0.40493 0.57281,0.80523 0.84626,1.01899c1.4048,1.09815 5.87625,1.1936 7.71491,0.72873l1.12836,0.28153c0.10523,0.02877 0.2166,0.04412 0.33095,0.04412c0.29354,0 0.56484,-0.10114 0.77814,-0.27052c0.24948,0.28601 0.54424,0.57303 0.89409,0.83471c1.57656,1.17922 3.65376,2.04973 5.39274,2.91095c1.78145,0.88224 2.7645,2.358 4.20036,3.47478c0.67957,0.52856 1.52858,0.77569 2.35698,1.05178z" fill="#0024a3" stroke-width="0.25"></path>
      <path d="M242.94947,242.8674l-0.11014,0.14685c-0.05768,0.43942 -0.3436,0.80698 -0.73482,0.97976l-0.29577,0.39436c-0.22746,0.31022 -0.59457,0.51163 -1.00873,0.51163c-0.35008,0 -0.66656,-0.14392 -0.89348,-0.37582l-0.00185,0.00097c-1.78624,0.2548 -2.79128,0.48918 -3.89537,0.47752c-0.11924,0.1014 -0.25776,0.1808 -0.40928,0.23195v0.06538h-1.48292c-0.01102,0.01134 -0.02209,0.02263 -0.03323,0.03388l-0.21439,0.02033c-0.19771,0.11419 -0.40363,0.21397 -0.61947,0.2958l-0.10191,-0.2274l-2.39809,0.2274c0.39483,-0.52537 0.78968,-1.01848 1.19015,-1.4927c-0.10498,-0.09952 -0.1927,-0.21707 -0.2582,-0.34768l-0.26892,0.44821l0.05883,0.0353l-1.18823,1.98036c-0.21591,0.37446 -0.62035,0.62652 -1.08365,0.62652c-0.08887,0 -0.17558,-0.00928 -0.25921,-0.02691c-0.22912,0.26166 -0.56565,0.4269 -0.94077,0.4269c-0.69036,0 -1.25,-0.55964 -1.25,-1.25c0,-0.02264 0.0006,-0.04513 0.00179,-0.06747l0.08949,-1.91032l0.01789,0.00084l-0.01468,-0.04919c0.14531,-1.04957 0.33603,-2.18436 -0.03034,-3.17858c0,0 -0.39528,-1.18586 0.79058,-1.58113c1.18586,-0.39528 1.58113,0.79058 1.58113,0.79058c0.03579,0.11503 0.0677,0.23106 0.09601,0.34793c0.33907,0.02193 0.6413,0.17904 0.85336,0.41799l0.02655,-0.00885l0.24326,-0.72975c0.15709,-0.51077 0.63267,-0.88204 1.19496,-0.88204c0.34933,0 0.6652,0.1433 0.89201,0.37432l0.78301,-0.54273c0.20446,-0.14581 0.4547,-0.23159 0.72497,-0.23159c0.69025,0 1.24982,0.55947 1.25,1.24968c0.11106,-0.03233 0.22851,-0.04966 0.35001,-0.04966c0.08773,0 0.17334,0.00904 0.25597,0.02623l0.46011,-0.46012c0.22621,-0.22621 0.53871,-0.36613 0.8839,-0.36613c0.3874,0 0.73363,0.17623 0.96291,0.45289c0.2141,-0.17207 0.4235,-0.35259 0.6181,-0.5472l0.08557,-0.03358l-0.01657,-0.02209l1.58988,-1.19244c0.21062,-0.16156 0.47415,-0.25758 0.76011,-0.25758c0.55733,0 1.02947,0.36475 1.19073,0.86856c0.12823,-0.04441 0.26593,-0.06854 0.40927,-0.06854c0.40438,0 0.76391,0.19202 0.99239,0.48985l0.92375,-0.92375c0.19924,-0.19924 0.46544,-0.33154 0.76194,-0.36024c0.22853,-0.24945 0.55696,-0.40587 0.92193,-0.40587c0.30431,0 0.58323,0.10874 0.8,0.28949c0.21678,-0.18075 0.49569,-0.28949 0.8,-0.28949c0.69036,0 1.25,0.55964 1.25,1.25v1.60001h-0.16155c0.01693,0.25998 -0.01028,0.5169 -0.1032,0.76927c-0.41543,1.12829 -2.16982,0.86247 -3.32355,0.8318l-0.25298,0.33731c-0.22746,0.31022 -0.59457,0.51163 -1.00873,0.51163c-0.24945,0 -0.48184,-0.07307 -0.67693,-0.19898c-0.25514,0.19687 -0.51227,0.38418 -0.77362,0.56636z" fill="#747474" stroke-width="0.5"></path>
      <path d="M229.25002,88.05c0,1.25 -1.25,1.25 -1.25,1.25l-1.59531,-0.06415c-2.73956,-1.28785 -2.50308,-3.19743 -1.3415,-4.99249l0.05817,-0.23268l-0.23939,-0.11969l0.78788,-1.57577c0.12428,-0.26217 0.3371,-0.4742 0.59985,-0.59747c0.02668,-0.04005 0.05378,-0.07966 0.08134,-0.11891c0.00523,-0.13003 0.03033,-0.25495 0.07234,-0.3718l0.38165,-1.14497c0.01839,-0.05979 0.04114,-0.11767 0.06789,-0.17327c0.18598,-0.81815 -0.48095,-0.69259 -1.38149,-0.01743c-0.27512,0.20626 -0.4849,0.44114 -0.64882,0.69546c-0.01082,0.09935 -0.03327,0.1952 -0.06598,0.28617l-0.37236,1.117c-0.42168,2.12398 0.14107,5.52224 -2.57688,6.34116c-0.02521,0.0076 -0.05047,0.01496 -0.07578,0.02211l0.00739,0.01479l-1.57748,0.78876c-0.04395,0.02314 -0.08944,0.04374 -0.13629,0.0616c-0.2248,0.68522 -0.60905,1.32185 -1.00517,1.92498c0,0 -0.69337,1.04007 -1.73344,0.3467c-1.04007,-0.69337 -0.3467,-1.73344 -0.3467,-1.73344c0.53166,-0.78271 0.94915,-1.64518 1.29573,-2.52563l0.47566,-0.07982c0.00432,-0.00417 0.00866,-0.00831 0.01304,-0.01243l-0.10339,-0.20679l1.57751,-0.78876c0.06364,-0.03351 0.13053,-0.06169 0.20007,-0.08394c-0.04441,-0.12823 -0.06854,-0.26593 -0.06854,-0.40927c0,-0.14845 0.02588,-0.29086 0.07337,-0.42296l0.39077,-1.17232c0.31782,-0.95108 0.20149,-2.11473 0.82905,-2.89367c0.76732,-1.97237 2.83663,-3.86191 4.60407,-3.95168c0.88574,-0.04499 2.05527,-0.31302 2.63662,0.35675c0.57172,0.65867 0.34533,1.66795 0.33004,2.5845c0.02358,0.09592 0.03608,0.19619 0.03608,0.29939c0,0.14845 -0.02588,0.29086 -0.07337,0.42296l-0.38165,1.14497c-0.04604,0.14971 -0.11944,0.28743 -0.21437,0.40733c0.17677,0.55714 -0.5841,1.17694 -0.99476,2.42001l-0.39088,1.17265c-0.06818,0.22168 -0.19634,0.41708 -0.36555,0.56726c0.04092,0.19144 0.14045,0.30028 0.36587,0.27896l0.80471,-0.06415c0,0 1.25,0 1.25,1.25z" fill="#747474" stroke-width="0.5"></path>
      <path d="M229.04008,89.54338c-0.20293,0.30439 -0.43555,0.46031 -0.6631,0.52858c-0.17309,0.48273 -0.63471,0.82803 -1.17699,0.82803c-0.34518,0 -0.65768,-0.13991 -0.88389,-0.36612l-1.59998,-1.59999l0.13768,-0.13768l-0.40864,-0.26785c-0.09627,-2.95268 0.0161,-4.05608 1.75482,-6.42834c0,0 0.75,-1 1.75,-0.25001c1,0.75 0.25001,1.75 0.25001,1.75c-0.98944,1.2812 -1.25594,1.90615 -1.38523,3.20009c0.25703,0.00298 0.49541,0.08353 0.69282,0.21933l1.18579,0.79052c0,0 1.04006,0.69337 0.34669,1.73344z" fill="#bdbdbd" stroke-width="0.5"></path>
      <path d="M280.84784,199.17616c0.01073,0.18124 -0.00643,0.33772 -0.0436,0.4728c2.08078,-0.07099 4.21727,-0.438 6.11425,-0.81704l1.55115,-0.38779c0.10524,-0.02876 0.21601,-0.04412 0.33037,-0.04412c0.69036,0 1.25,0.55964 1.25,1.25c0,0.10608 -0.01321,0.20908 -0.03809,0.30743l1.25876,-0.31359c0.10493,-0.02858 0.21536,-0.04384 0.32934,-0.04384c0.69036,0 1.25,0.55964 1.25,1.25c0,0.59487 -0.41554,1.09269 -0.97218,1.21902l-1.57464,0.39368l-0.00033,-0.00134l-0.57632,0.14358l-0.01818,-0.073l-0.04259,0.08654c-0.32437,0.0474 -0.6544,0.10395 -0.98871,0.16604c-1.45098,0.50736 -2.93604,0.76681 -4.4325,0.82004c-1.03157,0.12866 -2.04849,0.16862 -3.01409,0.02392c-0.40305,0.04153 -0.81207,0.0656 -1.22683,0.07153l-0.00362,-0.00282v0.00283h-1.60001c-0.68201,0 -1.23645,-0.5462 -1.24976,-1.22503c-1.49204,-0.50021 -2.95902,-1.14386 -4.37748,-1.88787l-0.09196,-0.32428l-0.12085,0.08057l-0.11488,-0.17231c-0.2225,0.20425 -0.51923,0.32893 -0.84507,0.32893c-0.41415,0 -0.78127,-0.20141 -1.00873,-0.51163l-1.19128,-1.58837l0.00929,-0.00697l-0.02972,-0.02107c-0.92524,-1.49055 -1.10124,-3.36915 -0.86601,-5.35857c-0.38887,-3.55645 0.50766,-7.8622 1.53157,-10.24174c0.64836,-1.50676 1.72155,-2.63633 2.43198,-4.07084c0.14052,-0.28373 0.13017,-0.64719 0.24049,-0.93891c-0.21248,0.04547 -0.39558,0.028 -0.50289,-0.14263c-0.41263,-0.65613 0.19354,-1.54832 0.13621,-2.32129c-0.10053,-1.35533 -0.03582,-2.33245 0.35414,-3.17514l-0.78896,-0.78895c-0.15636,-0.15636 -0.27149,-0.35395 -0.32768,-0.57506c-0.03586,-0.02628 -0.07166,-0.05272 -0.10739,-0.07931l-0.15078,1.20622l-0.34116,-0.04264c-0.1827,4.81197 -1.68841,9.59976 -3.01576,14.24868c-0.31289,1.09586 -1.33102,5.27076 -2.36817,5.64972c-0.07517,0.02747 -0.15162,0.04516 -0.22885,0.05399c-0.15088,0.40196 -0.30235,0.80323 -0.4537,1.2038c0.19518,-0.12609 0.42773,-0.19927 0.67738,-0.19927c0.69036,0 1.25,0.55964 1.25,1.25c0,0.09279 -0.01011,0.18322 -0.02929,0.27024l-0.25684,1.28531l-0.07129,-0.01425l0.0258,0.18094c-1.54376,3.04056 -3.28186,5.92405 -5.14644,8.72314c-2.61545,5.10319 -6.10702,9.8731 -9.86058,14.1819c0.0886,0.17158 0.13863,0.36631 0.13863,0.57272c0,0.2813 -0.09292,0.5409 -0.24974,0.74978l-0.90224,1.23125l-0.04605,-0.03375l-0.04299,0.14197c-0.63905,0.55546 -1.29087,1.21441 -1.959,1.91695c-0.00071,0.14622 -0.02653,0.28651 -0.07336,0.41677l-0.39077,1.1723l-0.16553,-0.05518l-0.02694,0.41862c-3.07472,2.18757 -5.30816,5.88788 -8.85617,7.56995c-1.41253,0.66967 -3.14389,0.50957 -4.81753,0.40902l-0.73819,0.36909c-0.1737,0.09145 -0.37156,0.14321 -0.5815,0.14321c-0.69036,0 -1.25,-0.55964 -1.25,-1.25c0,-0.34358 0.13862,-0.65478 0.36298,-0.88074l1.20267,-1.21193c0.29565,-0.37028 0.66113,-0.84859 1.06341,-1.18592c-0.14428,-0.20381 -0.22906,-0.45271 -0.22906,-0.72141c0,-0.28596 0.09602,-0.54949 0.25758,-0.7601l1.14147,-1.52195c0.98665,-1.98803 1.70447,-3.40659 2.82384,-4.67981c0.00653,-0.16818 0.04629,-0.32784 0.11289,-0.47259l0.01674,-0.03865l-0.10251,-0.07688l0.32131,-0.42841l0.74693,-1.72497l0.01219,0.00528l0.00504,-0.04331c1.18556,-2.30368 2.54167,-6.11599 4.27414,-8.81438c0.03498,-0.28135 0.16345,-0.53368 0.35336,-0.72494l0.72642,-0.73203c0.17385,-0.19789 0.35123,-0.38194 0.53229,-0.55012c0.02448,-0.0307 0.04894,-0.06143 0.07338,-0.09219c0.02988,-0.05508 0.06913,-0.10299 0.11539,-0.14557c3.14008,-3.97114 5.98735,-8.39381 8.58714,-12.93125c0.05518,-0.34151 0.23376,-0.5926 0.23376,-0.5926l0.50147,-0.70508c1.628,-2.90529 3.15713,-5.84421 4.59915,-8.72946c0,0 0.46866,-0.9373 1.40596,-0.66638c1.76947,-3.1882 3.31926,-6.49262 4.65641,-10.04851c0.7058,-1.87694 2.2472,-4.76248 1.46981,-6.7308c0,0 -0.39528,-1.18586 0.79058,-1.58114c1.02911,-0.34303 1.46283,0.50471 1.55951,0.73481c0.20738,-0.36261 0.5556,-0.72028 1.07675,-1.067c0.35208,-0.23424 2.95925,0.51663 3.5082,0.79514c1.481,0.75139 2.48772,2.03363 3.57177,3.22548c0.11792,0.03472 0.22814,0.09251 0.32836,0.18025c0.10853,0.09503 0.16291,0.21905 0.18046,0.36217c0.40401,0.41419 0.82911,0.8042 1.30113,1.14094c0.92027,0.65655 2.11111,0.86692 3.04798,1.4929c0.22638,-0.31996 0.59936,-0.52885 1.02113,-0.52885c0.41415,0 0.78127,0.20141 1.00873,0.51163l0.72013,0.96017c4.24937,0.93973 5.49542,4.4966 6.27007,8.18094l0.70787,1.41575c0.09145,0.1737 0.14321,0.37156 0.14321,0.5815c0,0.55335 -0.35956,1.02273 -0.85779,1.18723l0.02846,0.14232c0.01921,0.08709 0.02934,0.17759 0.02934,0.27045c0,0.69036 -0.55964,1.25 -1.25,1.25c-0.59488,0 -1.0927,-0.41555 -1.21902,-0.9722l-0.39365,-1.57464v0c-0.01206,-0.10106 -0.02406,-0.20214 -0.03597,-0.30322c-0.11146,0.03258 -0.22937,0.05006 -0.35136,0.05006c-0.44076,0 -0.82824,-0.22812 -1.05081,-0.57274l-0.77978,-1.16965c-0.13841,-0.2012 -0.21943,-0.44494 -0.21943,-0.70761c0,-0.05204 0.00318,-0.10334 0.00936,-0.15371c-0.49092,-0.62712 -1.00467,-1.21225 -1.39763,-1.85493l-0.00687,0.03437l-0.174,-0.0348c-0.12007,0.03837 -0.24804,0.05908 -0.38084,0.05908c-0.14846,0 -0.29087,-0.02588 -0.42297,-0.07337l-1.14499,-0.38167c-0.38759,-0.1192 -0.69485,-0.42179 -0.82051,-0.8065c-0.11454,-0.03742 -0.22181,-0.09093 -0.31912,-0.15787l-1.16966,-0.77977c-0.24863,-0.16057 -0.43662,-0.40697 -0.52207,-0.6973c-0.13149,-0.05587 -0.26081,-0.11775 -0.38818,-0.18475l-0.07673,0.19182l-1.60839,-0.64336c-0.29337,-0.00969 -0.62997,-0.04216 -1.01458,-0.10068c-0.90269,-0.13734 -1.42419,-1.08721 -2.05972,-1.794c-0.00606,0.0586 -0.00726,0.11777 -0.00309,0.17745c0.02838,0.40541 0.45164,0.74903 0.3991,1.15202c-0.04745,0.36402 -0.92278,0.61851 -0.66384,0.87872c0.40587,0.40786 1.51607,-0.3598 1.71684,0.17943c0.02737,0.07352 0.04479,0.14722 0.05367,0.22106c0.13804,-0.0525 0.28779,-0.08125 0.44425,-0.08125c0.69036,0 1.25,0.55964 1.25,1.25c0,0.11436 -0.01536,0.22513 -0.04412,0.33036l-0.3932,1.57281c0,0 -0.27322,1.0929 -1.33843,0.94428c-0.19846,0.30403 -0.39151,0.60588 -0.57888,0.90681c-0.35622,0.78211 -0.83133,1.53802 -1.26012,2.56393c-1.10557,2.64515 -1.96643,5.57954 -2.61631,8.3616c-0.02666,0.11411 -0.05461,0.22705 -0.08325,0.3389c0.08391,0.78844 0.1852,1.57581 0.28859,2.36296c0.35364,0.87129 0.81823,1.59179 1.37088,2.18351c0.18799,0.02948 0.36209,0.10085 0.51242,0.20427l1.0262,0.68413c1.01657,0.16346 1.94273,0.19133 3.43242,-0.00837l1.55996,-0.09298c0,0 1.24782,-0.07384 1.32166,1.17397zM273.85845,169.48957c-0.32306,-0.22959 -0.69711,-0.49211 -1.05586,-0.74842c0.1171,0.12196 0.22854,0.22542 0.3283,0.2948c0.23441,0.16302 0.47826,0.31221 0.72756,0.45362zM288.05794,179.70159c-0.27743,-0.87912 -0.5781,-1.77454 -1.08831,-2.46265c-0.17924,0.22002 -0.43186,0.37787 -0.72056,0.43624c0.61932,0.39803 1.13979,1.04566 1.80886,2.02641zM237.58388,228.45225l0.03794,-0.02088c0.00059,-0.00165 0.00118,-0.00331 0.00177,-0.00496c-0.01163,0.00419 -0.02334,0.00821 -0.03513,0.01206c-0.0015,0.0046 -0.00303,0.0092 -0.00459,0.01378zM236.64009,229.94338l-0.23128,-0.15418c-0.15066,0.29704 -0.31192,0.58857 -0.48358,0.8732c0.42431,0.11679 0.90028,0.2086 1.43601,0.06229c-0.3336,-0.19872 -0.56685,-0.54836 -0.60554,-0.95473z" fill="#001769" stroke-width="0.5"></path>
      <path d="M202.76213,173.45336c-0.18088,-0.87606 0.54525,-1.26341 0.77496,-1.36253c0.80209,-1.79717 1.76828,-3.5037 2.48057,-5.6465c0.87336,-2.62736 1.49148,-5.25924 2.37837,-7.93223l0.38497,-1.5399c0.12632,-0.55665 0.62414,-0.9722 1.21902,-0.9722c0.69036,0 1.25,0.55964 1.25,1.25v1.60001h-0.02848c0.00711,0.05745 0.01263,0.11523 0.0164,0.17338c0.05767,0.88927 -0.4799,1.71645 -0.72283,2.57383c-0.15875,0.56026 -0.3252,1.11815 -0.49753,1.67422c0.48504,0.17185 0.83245,0.63463 0.83245,1.17856c0,0.07813 -0.00717,0.15458 -0.02088,0.22874l-0.39615,2.37678l-0.41698,-0.0695c-0.02468,0.17921 -0.05339,0.35516 -0.08615,0.52858c0.07704,0.16229 0.12014,0.34381 0.12014,0.53541c0,0.26266 -0.08101,0.5064 -0.21941,0.70759l-0.19619,0.29429c0.01027,0.06453 0.01561,0.1307 0.01561,0.19811c0,0.26266 -0.08101,0.5064 -0.21941,0.70759l-0.79051,1.18578l-0.04225,-0.02817c-0.00091,0.00173 -0.00182,0.00346 -0.00273,0.00519l-0.02841,0.12209c-0.02643,0.0266 -0.05269,0.05311 -0.07879,0.07953c-0.28946,0.53857 -0.61791,1.10474 -0.98592,1.71911l-0.64825,1.29649c0.04315,0.30633 -0.02724,0.54888 -0.14356,0.73732c0.08935,0.17215 0.13984,0.36771 0.13984,0.57506c0,0.36498 -0.15643,0.69343 -0.4059,0.92196c-0.04921,0.50823 -0.40278,0.92741 -0.87617,1.07301l-1.17264,0.39089l-0.02935,-0.08806l-0.16571,0.13607c-0.39004,-0.00103 -0.76788,-0.01303 -1.13436,-0.03624c0.34061,1.8062 -0.49999,2.86395 -3.08489,1.34669c-0.58344,-0.34247 -1.20356,-1.48121 -1.78304,-2.62262c-0.84748,-0.44891 -1.62705,-1.01732 -2.3643,-1.71179l-0.26234,0.32793l-1.94316,-1.55452c-0.23765,-0.18681 -0.40591,-0.45791 -0.45972,-0.76826c-0.42411,-0.32179 -0.86497,-0.63403 -1.01418,-1.11268l-0.92218,-0.30741c-0.51077,-0.15709 -0.88205,-0.63267 -0.88205,-1.19496c0,-0.69036 0.55964,-1.25 1.25,-1.25c0.14846,0 0.29087,0.02588 0.42298,0.07338l1.1723,0.39078v0c0.17881,0.06114 0.35211,0.12692 0.52045,0.19699c-2.18862,-2.36375 -3.90711,-5.02165 -4.54874,-8.80565c0,0 -0.2055,-1.23299 1.0275,-1.43849c0.42888,-0.07148 0.73344,0.03108 0.94828,0.19526c-0.01129,-1.00907 0.0085,-2.43046 0.51407,-3.06797c0.04469,-0.05636 0.09126,-0.11076 0.13951,-0.1634l-0.03643,-0.02429l0.78926,-1.18387c0.22257,-0.34462 0.61005,-0.57274 1.05081,-0.57274c0.69036,0 1.25,0.55964 1.25,1.25c0,0.14846 -0.02588,0.29088 -0.07338,0.42299l-0.3908,1.17232v0c-1.50892,4.30804 2.94216,10.34909 5.39793,13.63354c0.73069,0.97725 2.0983,1.41912 2.88194,2.31913z" fill="#001769" stroke-width="0.5"></path>
      <path d="M217.01672,101.67814c0.22886,-0.29115 0.58424,-0.47815 0.9833,-0.47815c0.42594,0 0.80212,0.21304 1.0278,0.53837c0.17145,-0.08843 0.366,-0.13836 0.57221,-0.13836c0.23402,0 0.45302,0.06431 0.6403,0.17622l0.16474,-0.49419c0.15709,-0.51077 0.63267,-0.88204 1.19496,-0.88204c0.5623,0 1.03789,0.37128 1.19497,0.88207l0.39088,1.17267l-0.07051,0.0235c0.061,0.14691 0.10648,0.29974 0.13151,0.4604c0.11643,0.74738 -0.60653,1.3861 -0.92884,2.07039c-0.88244,1.87347 -1.81683,3.69131 -2.94582,5.42668l-0.12724,0.05927l0.03892,0.03892l-1.19064,1.19064c-0.16395,0.63222 -0.31343,1.26543 -0.44325,1.89729v0.0282h-0.00578c-0.17292,0.8454 -0.3105,1.68832 -0.4003,2.52318c-0.09483,0.8816 0.00628,3.83085 -0.42735,4.56402c-0.04922,0.08322 -0.10155,0.16406 -0.15659,0.2428l0.05806,0.02903l-0.78791,1.57579c-0.20043,0.4228 -0.63114,0.7152 -1.13014,0.7152c-0.69036,0 -1.25,-0.55964 -1.25,-1.25c0,-0.11436 0.01536,-0.22513 0.04412,-0.33036l0.3932,-1.57281v0v-0.00001c0.36506,-1.42223 0.09215,-4.25737 0.86577,-5.87189c-0.74594,-0.17648 -1.55328,-0.2755 -1.9711,-0.86591c-0.02221,-0.03139 0.02098,-1.15507 0.26198,-2.15032l-1.8534,0.74136c-0.15062,0.06433 -0.31643,0.09993 -0.49056,0.09993c-0.69036,0 -1.25,-0.55964 -1.25,-1.25c0,-0.14845 0.02588,-0.29086 0.07337,-0.42296l0.0435,-0.1305c-0.20305,-0.09473 -0.37339,-0.20252 -0.51492,-0.32103l-1.06138,0.42455c-0.15062,0.06433 -0.31643,0.09993 -0.49056,0.09993c-0.39926,0 -0.7548,-0.18719 -0.98365,-0.47859c-0.16301,0.13656 -0.32765,0.26611 -0.50109,0.38939l-0.39298,0.42264l0.17109,0.25663l-1.18576,0.79052c-0.17274,0.11883 -0.37684,0.19536 -0.59736,0.21463c-0.02818,0.036 -0.05639,0.07199 -0.08462,0.10796c0.01598,0.07979 0.02436,0.16233 0.02436,0.24682c0,0.26414 -0.08193,0.50915 -0.22177,0.711l-0.82887,1.23387l-0.01984,-0.01333l-0.01005,0.05588c-0.16542,0.20688 -0.33054,0.41338 -0.49543,0.61951l-0.10997,0.15395l-0.0084,-0.006c-0.29322,0.36644 -0.58578,0.73171 -0.87814,1.09585c-0.38986,0.60854 -0.91469,1.16583 -1.46404,1.8141c-0.16403,0.20195 -0.32822,0.40357 -0.49265,0.60487c-0.107,0.13801 -0.2137,0.28099 -0.31929,0.42996l-0.05674,0.03608l0.01542,0.01353l-0.52538,0.59882c-1.44532,1.74824 -2.91881,3.47339 -4.47092,5.18138c-1.15624,1.82958 -2.50274,3.57968 -3.86062,5.3013c-0.88738,2.47285 -2.3082,4.61679 -3.45332,6.96593c0,0.0011 0,0.00221 0,0.00331c0,0.08888 -0.00928,0.17559 -0.02691,0.25922c0.0347,0.03038 0.0677,0.06266 0.09885,0.09666c0.63312,0.0613 1.12804,0.59492 1.12804,1.24413c0,0.11436 -0.01536,0.22513 -0.04412,0.33036l-0.20877,0.83508c0.59671,0.09451 1.05291,0.61126 1.05291,1.23455c0,0.17413 -0.03561,0.33995 -0.09994,0.49057l-0.28155,0.70385c0.10556,-0.02896 0.21671,-0.04442 0.33146,-0.04442c0.69036,0 1.25,0.55964 1.25,1.25c0,0.11436 -0.01536,0.22513 -0.04412,0.33036l-0.20901,0.83607c0.06612,-0.01081 0.13397,-0.01642 0.20315,-0.01642c0.55733,0 1.02947,0.36474 1.19073,0.86855c0.12823,-0.04441 0.26594,-0.06854 0.40928,-0.06854c0.1572,0 0.30762,0.02902 0.4462,0.08199c0.13564,-0.17533 0.26877,-0.34811 0.4012,-0.51658c0.03316,-0.07877 0.07416,-0.15343 0.12202,-0.22301l0.79051,-1.18578l0.21385,0.14256c0.15771,-0.14479 0.32077,-0.27834 0.49164,-0.39826c0.33632,-0.47634 0.72901,-0.90343 1.18459,-1.25093l1.5899,-1.19242c0.21062,-0.16155 0.47414,-0.25757 0.7601,-0.25757c0.44762,0 0.84029,0.23528 1.06108,0.58892c0.35364,0.22079 0.58892,0.61346 0.58892,1.06108c0,0.26267 -0.08102,0.50641 -0.21943,0.70761l-0.79054,1.18578l-0.0514,-0.03427l-0.03653,0.1508c-0.1554,0.14506 -0.32474,0.30879 -0.50568,0.48534c-0.02713,0.36007 -0.2068,0.67758 -0.47458,0.88806l-1.19412,0.95529c-0.04417,0.1854 -0.12963,0.35478 -0.24614,0.49788l-1.55552,1.94439l-0.01735,-0.01388l-0.02732,0.06666c-0.28785,0.28753 -0.55492,0.55944 -0.80833,0.81893l-1.12308,1.49743l-0.20157,-0.15118c-0.00361,0.00356 -0.00721,0.00712 -0.01082,0.01067c-0.18031,0.32517 -0.38171,0.63524 -0.61074,0.92314l0.02314,0.01735l-1.19128,1.58837c-0.22746,0.31022 -0.59457,0.51163 -1.00873,0.51163c-0.69036,0 -1.25,-0.55964 -1.25,-1.25c0,-0.21743 0.05552,-0.4219 0.15315,-0.6c-0.09763,-0.1781 -0.15315,-0.38257 -0.15315,-0.6c0,-0.14846 0.02588,-0.29088 0.07338,-0.42299l0.24465,-0.73391c-0.62832,-0.06593 -1.11802,-0.59734 -1.11802,-1.24312c0,-0.14845 0.02588,-0.29086 0.07337,-0.42296l0.39077,-1.17232c0.03941,-0.11526 0.09301,-0.23584 0.15835,-0.35472h-0.5725c-0.42593,0 -0.8021,-0.21303 -1.02778,-0.53835c-0.17145,0.08843 -0.36599,0.13836 -0.57219,0.13836c-0.69036,0 -1.25,-0.55964 -1.25,-1.25c0,-0.1215 0.01733,-0.23894 0.04966,-0.35001c-0.55719,-0.00014 -1.02917,-0.36484 -1.1904,-0.86855c-0.12823,0.04441 -0.26594,0.06854 -0.40928,0.06854c-0.69036,0 -1.25,-0.55964 -1.25,-1.25c0,-0.26267 0.08102,-0.50641 0.21943,-0.70761l0.7201,-1.08012c0.09959,-0.31088 0.1822,-0.60033 0.26049,-0.86962v-1.34266h0.4648c0.02216,-0.07571 0.04488,-0.1511 0.06814,-0.22617c0.02831,-0.59969 0.16726,-1.17129 0.47699,-1.6672l0.00001,-0.00001v0l0.41518,-0.62276c0.45515,-0.9862 0.97146,-1.93352 1.48713,-2.87474c-0.00408,-0.00301 -0.00817,-0.00605 -0.01226,-0.00911c-1,-0.75 -0.24999,-1.75 -0.24999,-1.75c0.85606,-1.14141 1.77895,-2.28273 2.70195,-3.43846c0.00124,-0.00228 0.00249,-0.00457 0.00375,-0.00688c-0.09923,-0.17919 -0.15572,-0.38533 -0.15572,-0.60466c0,-0.26267 0.08102,-0.50641 0.21943,-0.70761l0.79054,-1.18578l0.2194,0.14627l0.24928,-0.24928c1.14945,-1.99836 2.44597,-3.71576 3.95524,-5.31167l-0.1019,-0.05095l0.78788,-1.57577c0.20043,-0.42281 0.63114,-0.71521 1.13015,-0.71521c0.23614,0 0.45699,0.06548 0.64538,0.17927l0.83262,-1.51822l0.41663,0.22849c0.48458,-1.02929 1.05672,-2.01007 1.68663,-2.96057c-0.02045,-0.0897 -0.03125,-0.18308 -0.03125,-0.27898c0,-0.26266 0.08101,-0.5064 0.21942,-0.7076l1.37728,-2.0659l0.30185,0.20124c0.87287,-1.67956 1.95428,-3.16711 3.26045,-4.55102c-0.03906,-0.0397 -0.07549,-0.08199 -0.10901,-0.1266c-0.22806,0.30354 -0.5911,0.49988 -1,0.49988c-0.69036,0 -1.25,-0.55964 -1.25,-1.25c0,-0.20995 0.05176,-0.40781 0.14322,-0.58152l0.78877,-1.5775l0.20417,0.10209c0.00996,-0.01231 0.01994,-0.0246 0.02995,-0.03686c0.4146,-1.42625 1.08305,-2.59714 2.25419,-4.2151l0.77887,-1.16834c0.22257,-0.34463 0.61005,-0.57277 1.05083,-0.57277c0.69036,0 1.25,0.55964 1.25,1.25c0,0.09286 -0.01013,0.18336 -0.02934,0.27045l-0.10705,0.53526c0.52503,-0.19247 1.47366,-0.97255 3.17642,-1.68357l-0.06929,0.57289l0.03911,0.03129c0.22675,-0.95895 0.76966,-1.73137 2.53848,-1.31114c0.75142,0.17852 0.79169,1.32635 1.18754,1.98952l0.25028,0.47941c0.16941,-0.08578 0.361,-0.13411 0.56387,-0.13411c0.69036,0 1.25,0.55964 1.25,1.25c0,0.09421 -0.01042,0.18599 -0.03018,0.27424zM212.88198,101.80901l-0.25996,-0.53553l-1.2358,1.54474c0.06947,-0.01197 0.14091,-0.01821 0.2138,-0.01821c0.58569,0 1.07731,0.40282 1.21291,0.94652c0.15355,-0.17941 0.31163,-0.35533 0.47356,-0.52811c0.01663,-0.02408 0.03343,-0.04826 0.05039,-0.07256l-0.16367,-0.10911l0.39205,-0.58807c-0.45552,-0.18414 -0.68328,-0.63967 -0.68328,-0.63967zM210.25582,103.38058c0.03235,0.05092 0.06112,0.10433 0.08595,0.1599l0.25604,-0.25604c-0.06443,0.01024 -0.1305,0.01556 -0.19781,0.01556c-0.04135,0 -0.08224,-0.00201 -0.12256,-0.00593zM215.83052,110.93697c0.05106,-0.02618 0.10415,-0.04894 0.15898,-0.068c0.09802,-0.42595 0.19961,-0.85105 0.30481,-1.27549c-0.10839,-0.048 -0.20867,-0.11097 -0.29824,-0.18627c-0.03332,0.49633 -0.08542,1.04653 -0.16555,1.52976z" fill="#001769" stroke-width="0.5"></path>
      <path d="M230.82575,165.49514c-0.24514,1.22573 -1.47087,0.98058 -1.47087,0.98058l-2.16053,-0.44338c-2.36031,-1.18712 -4.33769,-2.80628 -5.96492,-4.78819c-0.12127,-0.03759 -0.23465,-0.09315 -0.33701,-0.16357l-1.16966,-0.77977c-0.34463,-0.22257 -0.57276,-0.61005 -0.57276,-1.05082c0,-0.02134 0.00053,-0.04255 0.00159,-0.06362c-0.77255,-1.09335 -2.3561,-1.90162 -3.03669,-2.81245c-0.09797,0.0343 -0.19215,0.07211 -0.28081,0.11502l-0.36671,-0.44l-0.16075,0.24113l-1.18388,-0.78925c-0.34463,-0.22257 -0.57276,-0.61005 -0.57276,-1.05082c0,-0.0941 0.0104,-0.18578 0.03011,-0.27394c-0.01006,-0.0032 -0.02011,-0.00641 -0.03017,-0.00961l-0.08776,-0.29124l-0.10224,0.06816l-0.79051,-1.18578c-0.1384,-0.20119 -0.21941,-0.44493 -0.21941,-0.70759c0,-0.69036 0.55964,-1.25 1.25,-1.25c0.05359,0 0.10638,0.00337 0.15819,0.00991c-0.11645,-0.25043 -0.18718,-0.50631 -0.14758,-0.77533c0.00486,-0.03301 0.01291,-0.06401 0.02383,-0.09321l-0.04714,0.01179l-0.3932,-1.5728c-0.02876,-0.10523 -0.04412,-0.216 -0.04412,-0.33036c0,-0.65392 0.50212,-1.19056 1.14184,-1.24539c-0.05796,-0.52836 -0.10909,-1.05509 0.11181,-1.51685c0.04636,-0.0969 0.09266,-0.18985 0.13889,-0.27894c-0.14354,-1.37339 -0.19091,-2.77043 -0.19253,-4.15882c0,0 0,-1.25 1.25,-1.25c1.25,0 1.25,1.25 1.25,1.25c-0.00105,0.83252 0.01105,1.70408 0.05688,2.5895c1.13861,0.72267 1.72078,3.64672 0.91764,5.5054c0.144,0.43364 0.30878,0.85678 0.49722,1.2659c0.38716,0.40945 0.74636,0.84452 1.08521,1.2967l0.10915,-0.10915l1.76777,1.76777c0.22621,0.22621 0.36612,0.53871 0.36612,0.88388c0,0.69036 -0.55964,1.25 -1.25,1.25c-0.14846,0 -0.29087,-0.02588 -0.42297,-0.07337l-1.17233,-0.39078l0.04413,-0.13239l-0.31839,-0.00045c-0.00785,0.05646 -0.0182,0.11384 -0.03114,0.17214c1.16027,0.68196 2.12329,1.73041 2.89003,3.19642l1.0162,1.01619c1.87136,0.64146 3.6604,3.61868 5.60015,4.57991l1.83947,0.35661c0,0 1.22573,0.24514 0.98058,1.47087z" fill="#001769" stroke-width="0.5"></path>
      <path d="M238.86425,165.2106c0,0 -1.1606,0.46424 -1.62484,-0.69636c-0.46424,-1.1606 0.69636,-1.62484 0.69636,-1.62484c4.99656,-1.99565 9.444,-5.90382 13.04074,-10.1278c0.63727,-0.83141 1.26894,-1.6553 1.95561,-2.43049c0.13031,-0.17119 0.25916,-0.3424 0.38655,-0.51353l0.18317,-0.36634l-0.1419,-0.0946l0.78923,-1.18387c0.22257,-0.34463 0.61005,-0.57276 1.05082,-0.57276c0.45171,0 0.84745,0.23959 1.06708,0.59863c0.0754,-0.03563 0.15493,-0.06393 0.23768,-0.084c0.47747,-0.84782 0.91818,-1.71324 1.28052,-2.57599c-0.37928,-0.21463 -0.63527,-0.62174 -0.63527,-1.08865c0,-0.12924 0.01961,-0.25389 0.05602,-0.37116l0.67886,-2.37605l0.17161,0.04903c0.10549,-1.01636 0.33003,-2.01169 0.75765,-3.29709l0.39088,-1.17267c0.15708,-0.51079 0.63267,-0.88207 1.19497,-0.88207c0.61444,0 1.12534,0.44333 1.23027,1.02757l0.39545,1.97729l-0.02523,0.00505c0.01868,0.07257 0.0352,0.14586 0.04934,0.21994c0.28194,1.47712 -0.27268,3.47097 -1.0278,5.45281l-0.18795,1.16623l-0.02326,-0.00375c-0.00146,0.04613 -0.0035,0.09229 -0.00616,0.13846c-0.10556,1.83848 -1.17918,3.93467 -2.37773,5.91248l-0.00794,0.03175c-0.06441,0.28383 -0.22541,0.53097 -0.44661,0.70504c-0.76679,1.22413 -1.54127,2.38252 -2.11235,3.38103l-1.13292,2.17803c-0.20413,0.41274 -0.62948,0.69657 -1.12112,0.69657c-0.59269,0 -1.08903,-0.41249 -1.21761,-0.96605l-0.03753,-0.14682c-0.02821,0.02481 -0.05653,0.04952 -0.08496,0.07412c-0.13218,0.15485 -0.2647,0.31102 -0.39744,0.46872l0.21542,0.21542l-1.19998,1.2c-0.20038,0.20039 -0.46849,0.33306 -0.76704,0.36073c-0.01288,0.01495 -0.02577,0.02992 -0.03866,0.04491l-0.01601,0.00694c-0.0161,0.01741 -0.0322,0.03483 -0.04831,0.05226l-0.0149,0.01006l0.00124,0.00149l-1.91425,1.59521c-0.21769,0.18403 -0.49916,0.29498 -0.80653,0.29498c-0.69036,0 -1.25,-0.55964 -1.25,-1.25c0,-0.09159 0.00985,-0.18089 0.02855,-0.26688c-2.23989,1.74156 -4.64799,3.20727 -7.19375,4.22702z" fill="#001769" stroke-width="0.5"></path>
      <path d="M259.28389,122.53388c-0.88388,0.88388 -1.76777,0 -1.76777,0l-0.67904,-0.70341c-0.08746,0.60484 -0.608,1.06953 -1.23707,1.06953c-0.14845,0 -0.29086,-0.02588 -0.42296,-0.07337l-0.19689,-0.06563c-0.03319,1.03515 -0.58056,1.7903 -2.10251,1.73659c-1.17233,-0.04137 -2.03878,-1.68038 -2.05999,-2.85325c-0.00583,-0.32212 0.56333,-0.64388 1.25493,-0.91813c-0.2363,-0.51352 -0.49426,-1.01028 -0.87353,-1.31652c-2.6047,-2.10315 -5.37266,-3.40667 -7.85622,-5.49636c-0.63107,-0.53098 -1.87317,0.51601 -2.47371,-0.04926c-1.27078,-1.19614 0.44092,-3.26863 -1.26441,-3.42821c0,0 -1.18585,-0.39528 -0.79057,-1.58114c0.39528,-1.18585 1.58114,-0.79057 1.58114,-0.79057c1.985,0.8491 2.7631,1.60989 1.96769,3.68937c0.08649,-0.19534 0.26969,-0.54998 0.43701,-0.55352c0.64907,-0.01374 1.30863,0.23946 1.85718,0.5867c1.60032,1.01299 2.94533,2.09259 4.22672,3.37943c1.05355,1.05803 2.84323,1.36734 3.91613,2.32337c0.17199,-0.14341 0.3831,-0.24149 0.61497,-0.27589c-0.20351,-0.27093 -0.58715,-0.9592 0.10112,-1.64748c0.88388,-0.88389 1.76777,-0.00001 1.76777,-0.00001c1.39035,1.40449 2.26643,2.95678 3.35619,4.59052l0.64381,0.60949c0,0 0.88388,0.88388 0,1.76777z" fill="#001769" stroke-width="0.5"></path>
      <path d="M222.40001,221.7c-1.25,0 -1.25,-1.25 -1.25,-1.25v-1.60001c0,-1.29688 -0.03923,-2.62655 -0.01755,-3.95177c-0.59684,-0.03178 -1.08257,-0.48222 -1.16884,-1.06298l-0.39662,-2.37973l0.03816,-0.00636c-0.02049,-0.11008 -0.03667,-0.22119 -0.04793,-0.33348c-0.07922,-0.79039 0.55629,-1.4864 0.84494,-2.22821l0.20073,-0.80292c-0.59671,-0.09451 -1.05291,-0.61126 -1.05291,-1.23455c0,-0.07812 0.00717,-0.15457 0.02088,-0.22873l0.34751,-2.0851c-0.22754,-0.22638 -0.36839,-0.53982 -0.36839,-0.88615c0,-0.1432 0.02408,-0.28078 0.06841,-0.40891l0.56654,-1.76966c-0.12045,-0.61149 0.22645,-1.37249 0.67663,-2.13127c1.0249,-3.07394 2.26295,-6.11605 3.55496,-9.11609c-0.28451,-0.22912 -0.46655,-0.58034 -0.46655,-0.97407c0,-0.20995 0.05176,-0.40781 0.14321,-0.58151l1.10679,-2.21357l0.31719,0.15859c0.22681,-0.62841 0.47674,-1.23342 0.74634,-1.83417c-0.4219,-0.20078 -0.71352,-0.631 -0.71352,-1.12934c0,-0.30738 0.11095,-0.58884 0.29498,-0.80653l1.25104,-1.50124c1.04159,-1.68116 1.96655,-3.76251 3.45543,-5.01018c-0.65638,-0.96582 0.29856,-1.68204 0.29856,-1.68204l0.49717,-0.37288c-0.82462,-0.20111 -1.5671,-0.65676 -2.24943,-1.22257l-0.05674,0.11348l-1.57578,-0.78789c-0.42281,-0.20043 -0.7152,-0.63114 -0.7152,-1.13014c0,-0.36128 0.15327,-0.68676 0.39832,-0.91497c-0.34177,-0.21617 -0.66669,-0.46022 -0.94043,-0.71921c-0.3937,-0.16894 -0.78441,-0.31871 -1.15707,-0.44293l-0.10336,-0.14406l-0.04082,0.06123l-1.18388,-0.78925c-0.34463,-0.22257 -0.57276,-0.61005 -0.57276,-1.05082c0,-0.69036 0.55964,-1.25 1.25,-1.25c0.14845,0 0.29086,0.02588 0.42296,0.07337l1.17233,0.39077l-0.09465,0.28397l0.17836,0.1189c1.18645,0.25237 2.21767,0.75615 3.31332,1.52939c0.0473,0.02712 0.09447,0.05449 0.14145,0.08211c0.85482,-0.39375 1.46625,0.4215 1.46625,0.4215c0.34854,0.4648 0.69707,0.9296 1.04561,1.39439c0.14689,0.12443 0.26398,0.26172 0.32761,0.42118l1.12944,1.4118c0.4892,0.21972 0.96379,0.45192 1.40031,0.6554c1.13659,-1.89945 6.74269,-2.84833 8.32177,-3.13521l2.10638,-0.41858c0.08661,-0.01898 0.17657,-0.02899 0.26888,-0.02899c0.67393,0 1.22329,0.53333 1.24906,1.20094c0.66761,0.02577 1.20093,0.57513 1.20093,1.24905c0,0.56229 -0.37127,1.03787 -0.88205,1.19496l-1.17264,0.39089v-0.00001l-1.17173,0.39058l-0.04009,-0.12028c-0.19999,0.04399 -0.39397,0.08655 -0.58309,0.12742c-1.80354,1.25279 -4.51552,1.456 -6.68903,2.01536l-1.59986,0.41166c0,0 -0.66007,0.16984 -1.13081,-0.22871l-0.07308,0.04872c-0.2012,0.13841 -0.44494,0.21942 -0.7076,0.21942c-0.1067,0 -0.21029,-0.01337 -0.30916,-0.03853l-0.61897,1.03163l-0.31311,-0.18786c-0.0593,0.12292 -0.11957,0.24494 -0.18078,0.36617c0.17027,0.21359 0.27203,0.4842 0.27203,0.77858c0,0.11437 -0.01536,0.22514 -0.04413,0.33038l-0.39323,1.5728l-0.46494,-0.11624c-0.149,0.65215 -0.35556,1.27757 -0.60589,1.88629c0.41901,0.20186 0.70816,0.63055 0.70816,1.12678c0,0.0674 -0.00533,0.13355 -0.0156,0.19806l-0.35051,2.45359l-0.01767,-0.00252c-0.0015,0.0413 -0.00344,0.08262 -0.00586,0.12395c-0.163,2.79113 -2.34939,6.19659 -3.28275,8.84611c-1.73039,4.91206 -3.2917,9.82401 -4.49856,14.86511l0.09738,0.29214l-0.02679,0.00893c0.02571,0.06037 0.05047,0.12121 0.07421,0.18255c0.52279,1.35094 -0.24054,2.32585 -0.38321,3.58482c-0.1965,1.73395 0.00937,3.70253 0.00937,5.44725v1.60001c0,0 0,1.25 -1.25,1.25z" fill="#001769" stroke-width="0.5"></path>
      <path d="M205.99234,217.20002c1.24998,-0.00768 1.25766,1.2423 1.25766,1.2423l0.00369,0.61187c0.00321,0.19988 0.00953,0.39613 0.01875,0.58917c0.01312,-0.00355 0.02633,-0.0069 0.03963,-0.01003c0.1067,-1.95452 0.46013,-3.85088 1.08782,-5.93281c0.17461,-0.57915 0.07195,-1.28969 0.457,-1.75621c0.04586,-0.05556 0.09344,-0.10928 0.14258,-0.16135l-0.0395,-0.02633l0.78923,-1.18385c0.22257,-0.34463 0.61005,-0.57276 1.05082,-0.57276c0.69036,0 1.25,0.55964 1.25,1.25c0,0.14845 -0.02588,0.29086 -0.07337,0.42297l-0.39077,1.1723c0,0 -0.15156,0.45467 -0.54851,0.7071c0.05558,0.91012 -0.73878,1.97269 -1.00914,3.14694c-0.45231,1.9645 -0.39494,3.95667 -0.20965,5.93617c0.37351,0.70317 0.4916,1.21676 0.4215,1.81452h0.20994v1.60001c0,0.69036 -0.55964,1.25 -1.25,1.25c-0.01112,0 -0.02221,-0.00015 -0.03327,-0.00043c-0.18054,0.46823 -0.63484,0.80042 -1.16671,0.80042c-0.26266,0 -0.50639,-0.08101 -0.70758,-0.21941l-0.60929,-0.40619c-0.21605,0.37395 -0.62019,0.62559 -1.08312,0.62559c-0.4633,0 -0.86774,-0.25206 -1.08365,-0.62652l-0.50585,-0.84308c-0.43825,0.1482 -0.86911,0.32466 -1.14138,0.03367c-0.80435,-0.85964 -0.79233,-1.87359 -0.47652,-2.85554l-0.01831,-0.00366l0.39545,-1.97729c0.10493,-0.58424 0.61583,-1.02757 1.23027,-1.02757c0.27851,0 0.53574,0.09108 0.74353,0.24508c-0.00542,-0.8042 0.0183,-1.51409 0.01049,-1.94829l-0.004,-0.63912c0,0 -0.00768,-1.24998 1.2423,-1.25766z" fill="#001769" stroke-width="0.5"></path>
      <path d="M291.28389,188.53388c-0.88388,0.88388 -1.76777,0 -1.76777,0l-0.51611,-0.53387c-1.49694,-2.00588 -2.49142,-4.08063 -4.28389,-5.86613c0,0 -0.00926,-0.00926 -0.02494,-0.02684c-0.36239,-0.05199 -0.63162,-0.24993 -0.63162,-0.24993l-1.62724,-1.19974c-0.28574,-0.27758 -0.58329,-0.54497 -0.8913,-0.80068c-0.99437,0.73695 -1.74034,-0.25577 -1.74034,-0.25577l-1.22675,-1.63277c-0.02092,-0.02662 -0.04186,-0.05309 -0.06281,-0.0794c-0.14964,-0.10274 -0.39041,-0.30533 -0.51134,-0.60777c-0.9308,-1.04382 -1.91059,-1.80314 -3.07037,-2.36645c-0.17341,-0.01051 -0.34984,-0.01544 -0.52942,-0.01453c0,0 -0.18419,0 -0.41115,-0.0707c-0.10511,0.3646 -0.39092,0.86191 -1.16807,0.87062c-0.04937,2.19066 -0.41992,4.41729 -0.7027,6.66336l-0.50692,1.99591c0,0 -0.18898,0.74038 -0.85031,0.91565c-0.40405,1.18306 -0.87344,2.36689 -1.36356,3.53102c0.0931,0.01975 0.19142,0.05082 0.29508,0.09524l0.00001,-0.00002c1.14893,0.49239 0.65654,1.64133 0.65654,1.64133c-0.73881,1.72321 -1.58605,3.39358 -2.4863,5.03722c0.65428,-0.08447 1.11347,0.48952 1.11347,0.48952c0.73359,0.9621 1.27904,2.10997 1.58711,3.3062c1.11558,1.42658 2.26658,2.58427 3.77727,3.66759l0.8404,0.63028c0.23062,-0.07321 0.41913,-0.07321 0.41913,-0.07321c1.7774,0.02049 3.04964,-0.54868 4.90309,-0.39573c1.93449,0.15963 2.90853,0.68793 4.70164,0.05988l0.38202,-0.19945c0.22839,-0.19731 0.49797,-0.25697 0.7245,-0.26322c0.23258,-0.0267 0.5187,-0.00348 0.77956,0.17474c0.75692,0.14585 1.60103,-0.68773 2.31838,-1.364c-0.16254,-0.21097 -0.25921,-0.47531 -0.25921,-0.76222c0,-0.61444 0.44333,-1.12534 1.02757,-1.23027l1.77189,-0.35437c0.20295,-0.13591 0.39736,-0.27088 0.57526,-0.4012c0.69659,-0.76886 1.26984,-1.60692 1.73658,-2.6025c0.18621,-0.51087 0.36144,-1.02045 0.55719,-1.43943l0.3625,-1.45003c0.08873,-0.391 0.36075,-0.71238 0.72095,-0.86903c0.81953,-2.04902 0.99748,-3.94917 -1.08217,-5.60332c-0.00658,0.0001 -0.01317,0.00015 -0.01977,0.00015c-0.5623,0 -1.03788,-0.37128 -1.19497,-0.88206l-0.38165,-1.14497c-0.04749,-0.1321 -0.07337,-0.27451 -0.07337,-0.42296c0,-0.06386 0.00479,-0.12659 0.01403,-0.18787c-0.77197,-0.43231 -0.85784,-1.49462 -1.74928,-2.64285c-2.23768,-2.88226 -5.13141,-5.3447 -8.10811,-7.32921l-1.18388,-0.78925c-0.23273,-0.1503 -0.41233,-0.37581 -0.50443,-0.64215c-0.05515,-0.02883 -0.11097,-0.05744 -0.16751,-0.08577c-1.54281,-0.77328 -2.95153,-1.63279 -4.41029,-2.43021c-0.00015,0.00023 -0.0003,0.00045 -0.00045,0.00068c-0.69336,1.04007 -1.73343,0.34671 -1.73343,0.34671l-1.17508,-0.78379c-0.55296,-0.33178 -1.07198,-0.72286 -1.55699,-1.15617c0.47603,1.10382 0.90764,2.15905 1.30531,3.10284c0.58888,0.17803 1.14125,0.38019 1.66431,0.61059c4.93039,0.5379 7.53585,4.38781 10.9181,7.88231c0.01418,0.01282 0.02161,0.02025 0.02161,0.02025c0.08762,0.08793 0.17348,0.17648 0.25769,0.26559c0.01718,0.01741 0.03439,0.03481 0.05161,0.05219l1.10016,0.72604c0,0 0.77754,0.51837 0.53984,1.33099c0.8621,1.22892 1.62263,2.50719 2.56679,3.75906l0.28388,0.26611c0,0 0.88388,0.88388 0,1.76777zM249.60002,244.09999c-0.12797,0 -0.24284,-0.0131 -0.34595,-0.03662c-3.62245,1.76918 -8.80577,2.21749 -12.63972,2.81813c-4.15068,0.65025 -7.95308,1.61852 -12.21434,1.61852c-4.78481,0 -10.14942,0.44245 -14.74947,-0.84987c-4.0722,-1.14403 -8.71235,-4.52945 -12.85053,-4.35015c0,0 -0.2511,0 -0.52821,-0.11254l-0.27682,0.83048c-0.10367,0.33711 -0.34608,0.61346 -0.66059,0.76241c0.01723,1.21068 -1.28438,2.69058 -1.28438,4.06965c0,3.41537 1.65868,5.86871 0.75814,9.52085c-0.41642,1.68878 -0.87642,3.53689 -1.70914,5.07474c-0.28408,0.52463 -1.45553,0.90773 -1.11666,1.39875c0.31896,0.46217 3.39431,1.0136 4.01297,1.21983c5.07347,1.69116 10.75784,2.72745 15.89448,0.44471c2.33691,-1.03853 4.57953,-4.17464 7.59739,-3.27544c0.66214,0.19729 0.99074,0.97665 1.56998,1.35326c1.40013,0.91033 3.74977,1.3488 5.33813,1.87746c1.90544,0.63675 3.99909,1.47502 5.89192,1.9693c1.79973,0.46997 4.17124,-0.16854 5.91258,-0.41729c3.66827,-0.52403 7.5205,-1.44037 10.85105,-3.08905c2.15571,-1.06711 4.20757,-1.06849 5.9825,-2.8696c2.23626,-3.32321 -0.26305,-4.30259 -0.67395,-7.85478c-0.43355,-3.74791 -1.79757,-7.47291 -3.56942,-10.97725c-0.10514,0.36816 -0.39437,0.87452 -1.18994,0.87452zM210.34949,245.24984c4.33545,1.26329 9.52983,0.75017 14.05052,0.75017c6.34352,0 13.53208,-1.11171 19.60472,-3.13587c1.6099,-0.53662 3.62286,-0.50661 4.90191,-1.45421l1.53344,1.13629c-0.95406,-1.819 -2.01058,-3.57402 -3.09459,-5.23669c-0.37002,0.39046 -0.94549,0.39046 -0.94549,0.39046l-0.89684,-0.03732c-3.4296,0.8553 -6.65933,1.6017 -10.15044,2.02796c-3.14174,0.3836 -6.52134,-0.61716 -9.55247,0.39322c-5.73141,0.05139 -11.75599,2.00924 -17.43393,-0.0615c-2.34032,-0.85352 -5.06314,-1.90786 -7.09719,-3.35828c-0.33119,-0.23616 -0.63862,-0.52415 -0.95929,-0.78502c-0.00082,0.00057 -0.00164,0.00113 -0.00247,0.0017l-0.32151,0.96454l-0.15939,-0.05313l-0.0098,0.0196c-0.10573,1.07558 -0.54871,1.80961 -1.56041,3.5067l-0.02716,0.01763l0.01096,0.0073l-0.35796,0.53694c4.24481,0.50681 8.32876,3.16359 12.46739,4.36952zM210.55275,238.00938c2.95146,0.3368 6.22936,0.76812 9.24704,0.40677c1.9511,-0.23363 3.52293,-0.82397 5.60001,-0.80002c3.09591,-1.03197 6.45931,0.00192 9.64748,-0.40677c3.39539,-0.43526 6.51126,-1.13554 9.84956,-1.97204l1.50318,-0.03732c0,0 0.03316,0 0.08868,0.0054c-0.23563,-1.03784 -0.37618,-2.06265 -0.62067,-3.08577c-0.31801,-0.36773 -0.31801,-0.86961 -0.31801,-0.86961v-0.76737c-4.11452,5.07439 -10.31048,4.0411 -16.50275,4.008c-6.13537,-1.53396 -12.42758,-1.87837 -18.59673,-3.64049c-2.98191,-0.85173 -5.36208,-1.58471 -6.98794,-3.63402c-0.37288,2.14197 -1.24061,4.25918 -2.05047,6.26969c2.96553,1.52228 5.60592,4.12019 9.14062,4.52354zM249.12291,235.50082c3.60213,5.40332 7.02729,11.89172 7.71774,18.39645c0.21068,1.98478 1.97296,3.41886 2.00937,5.35274c0.0275,1.46077 -1.12956,3.25474 -1.88333,4.39246c-2.1638,2.14237 -4.28513,2.25044 -6.81749,3.53042c-4.80494,2.42865 -13.0021,5.00624 -18.43638,3.69367c-1.94541,-0.46988 -4.1626,-1.38373 -6.10808,-2.0307c-1.71085,-0.57106 -4.36057,-1.09458 -5.86189,-2.12254c-0.36743,-0.25158 -0.41774,-0.87852 -0.83004,-1.04677c-0.25485,-0.10399 -0.4415,0.36942 -0.71256,0.41729c-2.42083,0.42753 -2.97724,1.67931 -5.29002,2.70729c-5.69533,2.53145 -12.06061,1.52635 -17.70549,-0.35528c-1.5209,-0.50699 -4.94419,-1.06172 -5.58706,-2.78017c-0.25734,-0.68788 0.20016,-1.46773 0.45944,-2.15488c0.73353,-1.94406 1.77714,-3.65492 2.3148,-5.77165c0.83292,-3.27915 -0.8419,-5.73678 -0.8419,-8.87917c0,-2.10084 0.80819,-3.97417 2.03367,-5.48936c0.01079,-0.04554 0.02408,-0.09011 0.0397,-0.13357l0.02585,-0.07755l-0.28929,-0.19285l0.78923,-1.18388c0.00125,-0.00194 0.00251,-0.00388 0.00377,-0.00581c0.29659,-0.53698 0.67535,-1.02461 1.10438,-1.47398l-0.25731,-0.19298l1.19125,-1.58834c0.09873,-0.13465 0.22376,-0.2488 0.36754,-0.33488c0.13668,-0.30484 0.25009,-0.59333 0.36425,-0.84874l0.2911,-0.87332l0.02132,0.00711l0.01538,-0.04353c-0.0019,-0.01555 -0.00379,-0.0311 -0.00569,-0.04665l0.03313,-0.031l0.01547,-0.04378l-0.01178,-0.00589l0.10829,-0.21658c0.32765,-0.715 0.58885,-1.77075 1.03085,-2.44012c0.08256,-0.23838 0.19759,-0.41134 0.32829,-0.53568l0.03794,-0.15175l0.01986,0.00497c-0.00245,-0.01709 -0.00489,-0.03418 -0.00734,-0.05128l0.04594,-0.03525l-0.03165,-0.01055l0.39088,-1.17267c0.08957,-0.29126 0.28271,-0.53716 0.53642,-0.69473c0.75002,-1.86874 1.43035,-3.8466 1.40855,-5.73733c0,0 0,-0.92997 0.80213,-1.18563c-0.01529,-0.38247 0.10156,-0.94988 0.85255,-1.20023c0.00021,-0.00007 0.00041,-0.00014 0.00062,-0.00021l0.51678,-2.32556l0.01099,0.00244c-0.00112,-0.01159 -0.00224,-0.02319 -0.00336,-0.03478l0.01924,-0.02913l-0.01074,-0.00299l0.31623,-1.13458c0.38432,-2.04904 0.80447,-4.68603 1.89618,-5.86798c0.01096,-0.25699 0.0167,-0.52945 0.0155,-0.82161l0.13207,-0.1465l0.00474,-0.01896l-0.08881,-0.0296l0.39088,-1.17264c0.1192,-0.3876 0.4218,-0.69486 0.80652,-0.82053c0.06878,-0.21058 0.19197,-0.39655 0.35296,-0.54131l-0.0145,-0.27022c0,0 0,-0.50476 0.32075,-0.87277c0.01446,-0.07509 0.02894,-0.15018 0.04343,-0.22528c-0.14778,-3.43274 -0.61387,-6.81128 -0.763,-10.24777c-0.11616,-2.67676 0.11792,-4.90062 -0.73704,-7.45889c0,0 -0.18905,-0.5671 0.0865,-1.04769c-0.07589,-0.43592 -0.1486,-0.87197 -0.21621,-1.30827c-0.42958,-2.77233 -0.37519,-5.72428 -0.97757,-8.43607c-3.37805,0.32041 -6.93554,-0.35265 -9.3908,-2.71947c-0.71346,-0.68776 -1.09179,-1.7051 -1.88537,-2.29861c-0.68851,-0.51494 -1.61785,-0.72634 -2.1824,-1.3748c-0.85101,-0.97752 -1.05548,-2.3808 -1.77124,-3.46128l-0.46295,-1.35391c0,0 -0.15344,-0.46032 0.01767,-0.90296c-0.93749,-1.3286 -1.63716,-2.51973 -2.0465,-4.39604c-0.01269,-0.05219 -0.02209,-0.10566 -0.028,-0.16018c-0.24507,-0.24651 -0.34317,-0.54081 -0.34317,-0.54081c-0.7926,-2.39217 -0.85776,-4.31366 -0.36684,-6.56975c-0.64166,-0.42759 -0.47304,-1.27068 -0.47304,-1.27068c0.38493,-1.89327 0.59512,-3.7991 0.69643,-5.71822c-3.53227,-3.69461 -4.74369,-9.81018 -2.56641,-14.63452c-0.09834,-0.17859 -0.1543,-0.38381 -0.1543,-0.6021c0,-0.20995 0.05176,-0.40781 0.14322,-0.58152l0.78877,-1.57751l0.20172,0.10086c0.13926,-0.17881 0.2849,-0.35265 0.4361,-0.52187c0.28284,-0.68477 0.61357,-1.34279 0.97863,-1.98736c-0.43114,-0.6723 0.10158,-1.38259 0.10158,-1.38259c0.36274,-0.48367 0.7303,-0.96514 1.1004,-1.44568l0.8363,-1.66151c0.4513,-0.60283 0.99778,-1.13147 1.59898,-1.59984l0.00266,-0.00465l-0.22223,-0.22222l0.81178,-0.81178l0.16362,-0.28696l0.01755,0.01001l0.00542,-0.04866c0.45953,-0.68584 0.86936,-1.32624 1.25689,-1.93022c0.73126,-1.79452 2.2142,-3.74152 3.50944,-5.51641c0.0564,-0.09083 0.11245,-0.18094 0.16828,-0.27032c0.51406,-1.09912 1.27077,-2.17441 2.08524,-3.22741l0.03474,-0.05864l-0.16845,-0.12656l1.18359,-1.57538c0.17497,-0.2382 0.43235,-0.41211 0.7301,-0.47972c0.54797,-0.69826 1.06073,-1.38662 1.47929,-2.06558c-0.02843,-0.10467 -0.0436,-0.2148 -0.0436,-0.32847c0,-0.26266 0.08101,-0.50639 0.21941,-0.70759l0.77976,-1.16964c0.02126,-0.03293 0.04403,-0.06479 0.06821,-0.09549c1.1131,-2.03477 2.22779,-4.06112 3.11003,-6.19066c-0.10229,-0.18226 -0.14008,-0.33345 -0.14008,-0.33345c-0.45946,-1.94301 -1.49821,-2.73205 -1.22119,-4.9034c0.18391,-1.44155 1.20763,-2.453 1.64801,-3.79504c1.9583,-5.96793 4.54829,-11.55245 10.98563,-13.63857c2.74586,-0.01129 5.68219,-0.82282 8.4,-1.20001c1.35494,-0.18805 2.8247,-1.22239 4.20022,-1.21614c1.94311,0.00883 3.06595,1.1506 4.16669,2.45751c3.23341,3.83902 5.35079,11.15499 0.52669,14.63255c-0.60873,0.39616 -1.26839,0.72064 -1.95211,0.97952c0.12038,0.18141 0.23598,0.36956 0.34648,0.56454c1.85837,3.27907 -0.26404,7.03382 -2.04769,9.70927l-1.44005,0.55662c0,0 -0.60714,0 -0.97515,-0.42314l-1.02012,-0.04099c-0.3741,-0.15552 -0.73228,-0.3737 -1.05773,-0.63773c-0.63788,0.7232 -1.52056,1.30117 -2.76695,1.76999c0.06084,0.13408 0.12101,0.27321 0.18057,0.41764l0.01747,0.32526c0.21561,-0.17887 0.96072,-0.69 1.70583,0.05512c0.88388,0.88389 -0.00001,1.76776 -0.00001,1.76776c-0.35879,0.35601 -0.66377,0.68882 -0.93556,1.02152c0.06543,0.15169 0.10167,0.31891 0.10167,0.4946c0,0.26266 -0.08102,0.5064 -0.21941,0.70759l-0.69261,1.03892c-0.89654,1.75647 -1.70766,3.5071 -2.34268,5.42048l-0.00002,-0.00001c0,0.00001 0,0.00001 0,0.00001l0.00002,0.00001l-0.0003,0.00092c-0.0057,0.01853 -0.01182,0.03688 -0.01835,0.05504l-0.38168,1.14499c-0.11443,0.37207 -0.39787,0.67012 -0.76073,0.80455l-0.16236,0.2706l-0.21378,-0.12828c-0.05238,0.9497 -0.50274,1.64523 -0.82232,2.89598c0.00937,0.06169 0.01422,0.12487 0.01422,0.18918c0,0.14845 -0.02588,0.29086 -0.07337,0.42296l-0.38165,1.14497c-0.11443,0.37208 -0.39788,0.67015 -0.76073,0.80458l-0.16236,0.2706l-0.07754,-0.04652c0.07577,1.21287 -0.30307,2.31687 -0.58623,3.72425l-0.05783,0.06258l0.03557,0.01185l-0.39088,1.17265c-0.02437,0.07925 -0.05641,0.15513 -0.09525,0.22679c0.00017,0.0038 0.00033,0.00761 0.00047,0.01141c0.09555,0.17665 0.1498,0.37892 0.1498,0.59386c0,0.09287 -0.01013,0.18336 -0.02934,0.27045l-0.39494,1.97469l-0.36971,-0.07394c-0.27578,3.06975 -1.45464,5.88037 -3.4299,8.5431l-0.75214,1.12823c-0.08199,0.16233 -0.17226,0.32586 -0.26856,0.48959c-0.03734,0.13581 -0.09701,0.26237 -0.17482,0.37548l-0.79054,1.18579c-0.17496,0.26226 -0.37167,0.50696 -0.58508,0.73746c-0.15762,0.42563 -0.35647,0.83444 -0.58309,1.21228l0.17813,-0.24312c0,0 0,1.13831 -1.08626,1.2424c2.28672,1.62421 3.64859,4.30935 4.44345,7.24501c0.81438,1.8775 1.2248,3.82606 1.36523,5.86348c0.01782,-0.00086 0.0276,-0.00086 0.0276,-0.00086c0.59992,0.00538 1.19984,0.01076 1.79977,0.01614l1.00492,-0.352c0,0 0.54636,-0.18213 1.021,0.07172c0.06336,-0.02483 0.12661,-0.04991 0.18973,-0.07524l1.68143,-0.42331c0,0 1.21268,-0.30316 1.51584,0.90952c0.25147,1.00591 -0.54005,1.38602 -0.81728,1.4864c0.52804,0.43004 1.05839,0.86906 1.59829,1.28627c3.08158,0.87777 6.26493,1.78276 9.3298,2.85418c0.64341,-0.44807 1.36989,0.03626 1.36989,0.03626c2.27164,1.683 7.64341,0.71498 10.77184,0.60066c0.08277,-0.0106 0.13475,-0.0106 0.13475,-0.0106l0.00098,0.00615c0.13788,-0.00399 0.27106,-0.00615 0.39904,-0.00615l-0.01157,0.07228c0.81793,-0.34252 1.62646,-0.7178 2.45351,-1.15258l0.46465,-0.30977l0.02894,0.04341l0.0825,-0.10963c0.02011,0.01051 0.04022,0.02103 0.06032,0.03154c0.02497,-0.0139 0.04996,-0.02787 0.07497,-0.04189l-0.01759,-0.04397l0.32105,-0.12842c0.13944,-0.08026 0.27969,-0.16243 0.42088,-0.24662l0.14902,0.01573l-0.02198,-0.06594l1.1723,-0.39077c0.1321,-0.04749 0.27451,-0.07337 0.42297,-0.07337c0.08774,0 0.17337,0.00904 0.25601,0.02624l1.26013,-1.26013c0.22621,-0.22621 0.53871,-0.36612 0.88388,-0.36612c0.01707,0 0.03406,0.00034 0.05096,0.00102c0.48629,-0.62868 1.06236,-1.23213 1.86515,-2.0349l0.39997,-0.39999c0,0 0.54484,-0.54486 1.20677,-0.35124c0.00786,-0.15819 0.05259,-0.33074 0.15133,-0.5155c0.13975,-0.31382 0.34273,-0.49285 0.55513,-0.5909c0.32391,-0.17471 0.65748,-0.13709 0.90058,-0.06243c0.04172,0.0102 0.06537,0.01808 0.06537,0.01808c0.46529,0.15509 0.93057,0.31019 1.39586,0.46528c0.15981,-0.07967 0.35945,-0.12943 0.60886,-0.12943c0.51365,0 0.81623,0.21107 0.99447,0.45974c0.36386,-0.45974 1.00553,-0.45974 1.00553,-0.45974c4.83695,0.0857 8.05197,4.61257 10.36409,9.27813c0.13573,-0.05051 0.2826,-0.07811 0.43593,-0.07811c0.11436,0 0.22513,0.01536 0.33036,0.04412l1.57278,0.3932l-0.00434,0.01735l0.05065,-0.00482c3.0881,1.02934 5.29512,2.38099 7.90769,4.13684c1.12483,0.75597 2.29169,1.17609 3.31787,1.70703l0.48921,0.19568l-0.02406,0.06015c0.37064,0.21817 0.71703,0.46217 1.02925,0.75627c0.29541,0.14944 0.57825,0.32086 0.84476,0.51799l1.16306,0.77537c0.34463,0.22257 0.57276,0.61005 0.57276,1.05082c0,0.03586 -0.00151,0.07136 -0.00447,0.10646c1.65878,1.43147 3.20553,3.01168 4.53971,4.72428c0.83597,1.07307 2.01498,2.11084 2.15789,3.46358c0.0076,0.07192 0.01309,0.14383 0.01669,0.21573l0.05285,-0.01321l0.10748,0.42994l0.41654,0.62483c4.15347,2.81121 2.98335,7.07148 1.24117,10.84208l-0.09399,0.65796l-0.02888,-0.00413c-0.00126,0.05678 -0.00343,0.11361 -0.00658,0.17048c-0.10055,1.8202 -1.35059,3.13836 -2.75969,4.18126c-0.11626,0.10301 -0.23669,0.19498 -0.36164,0.27384c-2.09245,2.57938 -4.87201,4.70136 -7.52546,4.41842l-0.60635,0.29434c-2.13917,0.68695 -3.48452,0.28246 -5.69839,0.05988c-1.47025,-0.14782 -2.72833,0.27588 -4.1581,0.38139c-0.74202,0.883 -1.68883,0.17288 -1.68883,0.17288l-1.59043,-1.19292c-0.89288,-0.64642 -1.68199,-1.32019 -2.41375,-2.04862c-0.18346,0.16711 -0.45019,0.28909 -0.83797,0.29151c-1.24998,0.00781 -1.25779,-1.24216 -1.25779,-1.24216l-0.00459,-0.73907c0.00492,-0.26047 -0.01096,-0.52428 -0.04627,-0.78761c-0.03308,-0.0435 -0.06615,-0.08722 -0.09919,-0.13114c0,0 -0.40843,-0.54457 -0.22062,-1.13138c-0.15879,-0.42161 -0.36586,-0.8245 -0.61479,-1.19074c-0.27132,-0.05171 -0.51155,-0.19113 -0.69005,-0.38762c-0.60124,1.04455 -1.21451,2.08269 -1.8251,3.12137c0.00038,0.01275 0.00058,0.02554 0.00058,0.03838c0,0.14846 -0.02588,0.29088 -0.07338,0.42298l-0.3908,1.17233l-0.28732,-0.09578l-0.16602,0.24713c-0.77569,3.45851 -3.26378,6.42017 -5.4873,9.34311c0.00317,0.03632 0.00479,0.07308 0.00479,0.11023c0,0.20994 -0.05176,0.4078 -0.14321,0.5815l-1.10678,2.21358l-0.24401,-0.122c-0.24696,0.64892 -0.53522,1.26444 -0.91023,2.0234c0.0028,0.03413 0.00422,0.06865 0.00422,0.10351c0,0.20994 -0.05176,0.4078 -0.14321,0.5815l-0.78874,1.57751l-0.27258,-0.13629l-0.17407,0.2321c-0.44954,1.21414 -1.00891,2.30689 -1.5485,3.89437l-0.14575,0.10224l0.06292,0.04195l-0.78926,1.18388c-0.16322,0.25274 -0.41514,0.44282 -0.71173,0.52621l0.00407,0.10221c-0.06198,0.04415 -0.12396,0.08829 -0.18594,0.13244l0.08286,0.05524l-0.78923,1.18388c-0.08387,0.12987 -0.19116,0.2432 -0.3159,0.33401c-0.18891,0.74168 -0.39394,1.48191 -0.68494,2.18875l0.33585,0.80473c0,0 0.39528,1.18586 -0.79058,1.58113c-0.43447,0.14482 -0.76282,0.0774 -1.00449,-0.06618c0.39207,1.43827 0.45649,2.85485 0.93212,4.33114zM246.69341,226.60996c0.28545,0.19031 0.44033,0.40673 0.5148,0.6206c0.54553,-1.73537 0.85541,-2.77547 1.8156,-3.75676l-0.30768,-0.30767l1.19998,-1.20001c0.17733,-0.17733 0.40769,-0.30163 0.66525,-0.34707c0.01579,-0.01824 0.03161,-0.03645 0.04746,-0.05464l-0.14684,-0.07342l0.78788,-1.57578c0.11543,-0.2435 0.30723,-0.44374 0.54447,-0.5698c0.15525,-0.29064 0.33252,-0.55341 0.54166,-0.77251c-0.00395,-0.04043 -0.00597,-0.08143 -0.00597,-0.1229c0,-0.26266 0.08101,-0.5064 0.21942,-0.7076l0.75809,-1.13714c0.60342,-1.20914 0.93311,-2.01606 1.63874,-2.65227c-0.13647,-0.2003 -0.21625,-0.44232 -0.21625,-0.70297c0,-0.26409 0.0819,-0.50905 0.22168,-0.71088l0.85378,-1.2713l0.0099,0.00665l0.00653,-0.03051c1.4718,-1.98653 2.96283,-3.95843 4.24991,-6.07317c0.0589,-0.09678 0.11349,-0.19732 0.16475,-0.30074c-0.19096,-0.2195 -0.30658,-0.50628 -0.30658,-0.82006c0,-0.29902 0.105,-0.57353 0.28014,-0.78865l1.14248,-1.4281c0.95794,-1.6871 1.95777,-3.35436 2.9312,-5.03562c-0.44351,-0.19202 -0.75381,-0.63359 -0.75381,-1.14764c0,-0.20995 0.05176,-0.40781 0.14322,-0.58152l0.78877,-1.5775l0.39998,-0.79998c0,0 0.05877,-0.11754 0.1763,-0.25734c0.98593,-2.57268 1.83768,-5.15664 2.79597,-7.7473c0.76086,-2.05692 1.72142,-3.61032 1.69575,-5.83635c0,0 0,-0.82172 0.66625,-1.13268c0.27645,-2.57562 0.26878,-5.12908 -0.93428,-7.50832c0,0 -0.5341,-1.06821 0.48597,-1.63842c-1.97598,-4.45035 -4.80521,-9.77662 -8.96793,-9.67059c0,0 -0.86314,0 -1.15493,-0.71724c-0.08521,1.11725 -1.24506,1.11725 -1.24506,1.11725l-1.49336,-0.20994c-0.02379,-0.01586 -0.04757,-0.03171 -0.07136,-0.04757c-0.0556,0.35974 -0.26459,0.66882 -0.55804,0.85834l-1.16239,0.77491c-0.07189,0.05379 -0.14279,0.10715 -0.21276,0.16008c-0.1603,0.77982 -1.17879,1.16182 -2.20872,1.85424l-1.18579,0.79052c-0.09141,0.06288 -0.19159,0.11391 -0.29835,0.15088c-0.22913,0.14936 -0.46244,0.29239 -0.70389,0.42926c-0.13198,0.14505 -0.26534,0.2888 -0.40027,0.43104l0.13806,0.23009l-1.98238,1.18944c-0.1917,0.1196 -0.41815,0.18871 -0.66074,0.18871c-0.40204,0 -0.75975,-0.18981 -0.98841,-0.4847l-0.38287,0.06381c-0.04445,0.00822 -0.08973,0.01409 -0.13569,0.01747c-1.95777,0.93752 -3.89607,1.60037 -6.09773,2.33927c0,0 -1.18585,0.3953 -1.58115,-0.79055c-0.0617,-0.1851 -0.08488,-0.35095 -0.08006,-0.49903c-0.69429,0.02635 -1.39035,0.03784 -2.07495,0.01961c-0.35003,0.53412 -1.05917,0.53412 -1.05917,0.53412l-1.29284,-0.10126c-2.56044,-1.10477 -5.31103,-2.02472 -8.07508,-2.85856c-0.31484,0.15982 -0.63209,0.15982 -0.63209,0.15982l-1.88717,-0.03344c-0.94764,-0.46485 -1.81671,-1.01951 -2.65577,-1.61863c-0.47005,-0.13256 -0.93717,-0.2644 -1.40044,-0.39603c0,0 -1.07304,-0.30659 -0.90166,-1.35428c-0.36397,-0.28339 -0.73089,-0.56723 -1.10494,-0.84762c0,0 -0.06572,-0.04929 -0.15083,-0.13945c-0.93478,0.31317 -1.88951,0.56983 -2.85403,0.76517c0,0 -0.31239,0.06248 -0.65329,-0.03336c-0.08822,1.82045 -0.32235,3.71227 -0.61927,5.68651l-0.13651,0.90712c0,0 -0.10365,0.68873 -0.67032,0.96061c-0.08909,0.32291 -0.1919,0.64587 -0.30646,0.9711c-0.49789,1.99321 -0.89199,3.46881 -2.02202,5.37975l-1.23729,1.6525c0,0 -0.75,1 -1.75,0.25c-1,-0.75 -0.25,-1.74999 -0.25,-1.74999l0.23934,-0.31857c-0.30616,-0.61995 0.13887,-1.25147 0.13887,-1.25147l1.20464,-1.70097c0.46813,-1.00672 0.89981,-1.90409 1.23051,-2.77011c0.05526,-0.22951 0.11254,-0.46625 0.17394,-0.71205c0,0 0.05287,-0.2115 0.20278,-0.43577c0.36592,-1.37178 0.39658,-2.75247 -0.17596,-4.46579c0,0 -0.39527,-1.18585 0.79058,-1.58113c0.12353,-0.04118 0.23847,-0.0652 0.34529,-0.07519v-0.73896c0,-2.0922 -0.11338,-5.18536 -0.77993,-8.04551c-0.69311,-1.61282 -1.73718,-3.1655 -3.25396,-4.67062c0,0 -0.75119,-0.75121 -0.17601,-1.56108c-0.59435,-0.43118 -1.27164,-0.74523 -2.0433,-0.91012c0,0 -1.21268,-0.30318 -0.9095,-1.51586c0.30318,-1.21267 1.51586,-0.9095 1.51586,-0.9095c0.16163,0.04436 0.32013,0.09271 0.47556,0.14493c0.03498,-0.16028 0.10071,-0.30907 0.19069,-0.43986l0.77814,-1.16718c1.09866,-1.83238 1.86776,-3.38079 2.9682,-4.75182l0.16619,-0.33239h0.00001c0,0 0,0 0,-0.00001h0.00002l-0.00002,-0.00001l0.21988,-0.43975l-0.14191,-0.09461l0.78927,-1.18388c0.11136,-0.17243 0.264,-0.31569 0.44395,-0.41581c0.4242,-1.08111 0.80953,-2.25142 1.28417,-3.26361c-0.20331,-0.22231 -0.32733,-0.51834 -0.32733,-0.84333c0,-0.26266 0.08102,-0.50641 0.21943,-0.70761l0.6996,-1.04937c0.23635,-0.99605 0.42999,-1.70858 0.68543,-2.34927c0.0047,-0.05586 0.01308,-0.11068 0.02489,-0.1642l0.0828,-0.41401l-0.07482,-0.0187l0.39365,-1.57464c0.04542,-0.20018 0.13889,-0.3821 0.26764,-0.53302c0.26546,-1.29631 0.47598,-2.06949 0.9805,-2.85171l-0.30097,-0.18057l0.93286,-1.5548l0.12632,-0.50525v-0.00001c0.4149,-1.63053 0.83067,-2.57938 1.50045,-3.44419l-0.15963,-0.09577l1.12942,-1.88235c0.32144,-0.96781 0.65759,-2.07642 1.09391,-3.13569c0.00447,-0.09274 0.01904,-0.18282 0.04264,-0.26918l0.39319,-1.57281l0.0536,0.0134l-0.01328,-0.14392c0.40273,-0.81054 0.77973,-1.50151 1.20115,-2.14607c-0.47878,-0.36097 -0.47878,-1.02023 -0.47878,-1.02023l0.08941,-0.73577c-0.11258,-0.29277 -0.22949,-0.55442 -0.35141,-0.7891c-0.64527,0.05561 -1.08203,-0.51723 -1.08203,-0.51723l-0.37378,-0.49024c-0.26872,-0.35733 -0.55301,-0.69533 -0.85134,-1.01317c-0.81628,-0.29328 -1.7899,-0.47323 -2.97612,-0.86864c0,0 -1.18586,-0.39529 -0.79057,-1.58114c0.01925,-0.05774 0.04038,-0.11173 0.06314,-0.16221c-1.9779,-0.84043 -4.18633,-1.04999 -6.40778,-0.50866c-0.85046,2.48551 -2.024,5.54395 -3.70375,7.52166l-0.37992,1.13976l-0.03804,-0.01268l0.00703,0.09574c-1.59372,3.1753 -3.78727,6.61902 -6.19707,9.6297c-0.03997,0.06597 -0.0801,0.13182 -0.12038,0.19754c-0.38452,0.73934 -0.79623,1.4629 -1.22935,2.17382l-0.50323,0.90581c-0.07783,0.14663 -0.184,0.27592 -0.31119,0.38057c-0.88442,1.34799 -1.83588,2.6558 -2.81264,3.94613l-0.46725,1.04008l-0.03266,-0.01467l-0.01367,0.10732c-0.77502,1.16669 -1.86281,3.5231 -3.13825,5.32075l-0.34329,1.02989l-0.00413,-0.00138l0.00093,0.01087c-0.4487,1.23218 -1.41932,2.20723 -2.0625,3.35001c-1.5903,2.82558 -1.57561,6.63445 -0.246,9.63901c0.10387,-0.18851 0.28026,-0.36854 0.56685,-0.51183c1.11804,-0.55901 1.67705,0.55903 1.67705,0.55903l0.53195,1.35901c0,2.036 -0.08507,4.04949 -0.30691,6.05252c0.84788,-0.96896 1.69586,-1.93785 2.5441,-2.90651l0.03899,-0.01984l-0.01007,-0.01006l1.20002,-1.2c0.2262,-0.2262 0.5387,-0.36611 0.88387,-0.36611c0.43398,0 0.81629,0.22115 1.04041,0.55691l0.36921,-0.46968c0.22857,-0.29634 0.58717,-0.48723 0.99037,-0.48723c0.69036,0 1.25,0.55964 1.25,1.25c0,0.27621 -0.08958,0.5315 -0.24128,0.73838l-0.96154,1.34616c-0.01628,0.24367 -0.10238,0.46823 -0.23847,0.65384l-1.44464,2.0225l-0.02441,-0.01744c-0.16654,0.24998 -0.33307,0.49997 -0.49961,0.74994c0,0 -0.14596,0.21893 -0.40439,0.38894c-0.42954,0.76712 -0.89413,1.51754 -1.39711,2.29533c0.04146,0.33516 -0.0527,0.61763 -0.0527,0.61763c-0.08779,0.26271 -0.17234,0.51882 -0.25536,0.77003c0.19866,0.22131 0.3195,0.51389 0.3195,0.83469c0,0.11435 -0.01535,0.22512 -0.04412,0.33036l-0.3932,1.5728l-0.26357,-0.06589c-0.09426,0.90414 -0.30617,1.71877 -0.63221,2.74656c0.08181,0.16102 0.13311,0.36295 0.13311,0.61617c0,0.55498 -0.2464,0.86355 -0.5204,1.03512c0.54047,1.03456 1.29188,1.88444 2.14066,3.07265l0.5469,0.76566c0,0 0.72655,1.01717 -0.29062,1.74372c-0.02896,0.02068 -0.05769,0.03996 -0.08617,0.05788c0.17914,0.47654 0.37962,0.93792 0.71127,1.3145c0.45973,0.52202 1.26169,0.6071 1.81761,1.0252c0.87258,0.65625 1.36354,1.70896 2.11462,2.50137c2.57702,2.71883 7.53263,2.36795 10.72084,1.29803c0,0 1.18586,-0.39527 1.58113,0.79058c0.39527,1.18586 -0.79058,1.58113 -0.79058,1.58113c-0.46111,0.15278 -0.93827,0.28903 -1.42695,0.40629c0.56241,2.75398 0.55229,5.66109 0.98668,8.46446c0.64262,4.14718 1.68705,8.24194 1.69505,12.44347v0.29999c0,0 0,0.71916 -0.54549,1.06651c0.09838,1.14205 0.20649,2.28222 0.30095,3.42462c0.81334,0.38861 0.62026,1.35402 0.62026,1.35402c-0.13662,0.68165 -0.27053,1.36313 -0.4027,2.0446c0.01158,0.29864 0.02069,0.5977 0.02692,0.89726l-0.00421,0.01301h0.00427v2c0,0.53362 -0.33438,0.98915 -0.80503,1.16848c-0.05556,0.29331 -0.11116,0.58668 -0.16689,0.8801c-0.18474,1.2053 -0.39571,2.39805 -0.62156,3.5915l-0.01859,0.13314c0,0 -0.00895,0.06397 -0.03733,0.16079c-0.12157,0.63587 -0.24711,1.27224 -0.37488,1.91113c0,0 -0.24514,1.22573 -1.47087,0.98058c-0.16055,-0.03211 -0.29586,-0.08104 -0.4098,-0.14184c-0.1222,0.38386 -0.24724,0.76672 -0.37334,1.14848c-0.03322,0.28334 -0.08278,0.56428 -0.15217,0.84185l-0.39382,1.97091c0,0 -0.06623,0.33117 -0.30199,0.61481c1.27209,2.31297 3.43847,2.74335 6.22573,3.5399c6.03933,1.72594 12.19772,2.05803 18.20326,3.55953c5.53903,-0.03585 11.35182,1.33043 14.8072,-3.85277l0.80003,-1.2c0,0 0.69339,-1.04005 1.73344,-0.34666zM225.56061,85.31424l0.0894,0.73576c0,0 0,0.70271 -0.52688,1.05438l0.06274,0.15033c0,0 0.02217,0.0665 0.04025,0.17325c1.40508,0.09508 2.77967,0.4954 4.00258,1.23002c0.06295,-0.04439 0.13346,-0.0866 0.2123,-0.12602c0.87072,-0.43535 1.40237,0.14645 1.59498,0.42516c0.51955,-0.18999 1.01904,-0.43627 1.47063,-0.74717c3.76699,-2.17096 0.91727,-9.78524 -1.66534,-11.96656c-1.52821,-1.29075 -3.85135,0.40795 -5.44106,0.64047c-2.68359,0.39252 -5.69462,1.21182 -8.39999,1.20001c-5.43088,1.891 -7.32187,6.9524 -9.01437,11.96141c-0.41158,1.21809 -2.06402,3.04157 -1.5895,4.4425c0.16223,0.47894 0.39376,0.93284 0.61864,1.38863c4.68742,-1.32251 9.35302,0.09962 12.71262,3.45455c0.91237,0.41285 1.67596,0.95125 2.34778,1.85937l-0.39343,-0.89932c0,0 0.54401,-1.08802 1.63203,-0.58077c0.0853,-0.07511 0.16728,-0.15175 0.24724,-0.2286c0.03741,-0.27784 0.16609,-0.52673 0.35488,-0.71552l0.60908,-0.60907c0.07505,-0.11794 0.17985,-0.2294 0.32441,-0.32441l0.179,-0.17899l0.72057,-1.08087c0.15423,-0.23881 0.38764,-0.42168 0.6631,-0.51147c0.11846,-0.50956 0.21629,-1.04644 0.40188,-1.60657c0,0 0.39528,-1.18586 1.58114,-0.79058c1.18586,0.39528 0.79058,1.58114 0.79058,1.58114c-0.60335,1.79789 -0.72578,2.79082 -1.61941,4.01426c0.00961,0.00174 0.01922,0.00328 0.02882,0.0046l0.80473,-0.06415c0,0 0.15562,0 0.35705,0.05491c1.15917,-1.79159 2.48762,-4.23648 1.35519,-6.18903c-2.67094,-4.60529 -9.26631,-3.95741 -11.8722,0.07751c0,0 -0.69339,1.04005 -1.73344,0.34667c-1.04005,-0.69339 -0.34667,-1.73344 -0.34667,-1.73344c1.52978,-2.24152 3.95296,-3.69295 6.51949,-4.1744l-0.32941,-1.13221c0.45269,-1.54883 0.94757,-2.93867 1.73339,-4.15615c0.03755,-0.07102 0.09978,-0.17492 0.1892,-0.28159c0.57161,-0.81726 1.28946,-1.55281 2.23401,-2.20232c0,0 1.04006,-0.69338 1.73344,0.34669c0.69338,1.04006 -0.34669,1.73344 -0.34669,1.73344c-0.67515,0.43059 -1.16892,0.93839 -1.56508,1.50492c-0.2559,0.63975 -0.51179,1.2795 -0.76769,1.91925zM188.67339,158.08319c-0.04251,0.41734 -0.05561,0.82694 -0.0369,1.24046c0.18502,-0.49013 0.35278,-0.97872 0.52091,-1.484c-0.10733,0.07982 -0.27674,0.18522 -0.48401,0.24354z" fill="#000000" stroke-width="0.5"></path>
      <path d="M224.55001,157.25c0,1.25 -1.25,1.25 -1.25,1.25l0.29338,-0.20994c-0.78138,0.30862 -1.586,1.28781 -2.34414,0.92584c-2.67493,-1.27716 -1.19729,-2.60348 -0.42759,-3.61105l-1.2175,1.19258l-0.6912,-2.73332c-0.16159,-0.05856 -0.32921,-0.1626 -0.49683,-0.33022c-0.88389,-0.88388 0,-1.76776 0,-1.76776l2.64291,-1.43417c0.09603,1.06784 0.19207,2.13567 0.2881,3.20351l0.13774,-0.14065l-0.10097,0.70682l-2.47488,-0.35354l0.18613,-1.30293l-0.67904,-0.67904l1.20001,-1.20002c0.2262,-0.2262 0.5387,-0.36612 0.88389,-0.36612c0.69036,0 1.25,0.55964 1.25,1.25c0,0.0674 -0.00534,0.13355 -0.0156,0.19806l-0.24953,1.74676l0.29348,-0.29967c0.40544,1.59677 0.31162,4.32197 0.42828,2.91479l1.09337,-0.20994c0,0 1.25,0 1.25,1.25z" fill="#000000" stroke-width="0.5"></path>
      <path d="M255.7,150.10001c-1.25,0 -1.25,-1.25 -1.25,-1.25l0.13198,-0.95904c0.82686,-1.65112 1.88962,-2.69273 1.52826,-3.39096h-0.41024c-0.69036,0 -1.25,-0.55964 -1.25,-1.25c0,-0.34518 0.13992,-0.65769 0.36613,-0.88389l0.2661,-0.2661c-0.19407,0 -0.38814,0 -0.58221,0c0,0 -1.25,0 -1.25,-1.25c0,-1.25 1.25,-1.25 1.25,-1.25c0.66667,0 1.33333,0 2,0h1.6c0.69036,0 1.25,0.55964 1.25,1.25c0,0.34518 -0.13991,0.65768 -0.36612,0.88389l-0.93069,0.93068c1.79303,0.48854 -0.59485,5.06194 -1.23519,6.34446l0.13197,-0.15902c0,0 0,1.25 -1.25,1.25z" fill="#000000" stroke-width="0.5"></path>
      <path d="M241.54102,112.53196c1.11804,-0.55901 1.67704,0.55903 1.67704,0.55903l-0.32274,0.17316c2.13025,0.71011 3.89407,1.34974 5.84783,2.514c0,0 1.07186,0.64312 0.42874,1.71498c-0.64312,1.07187 -1.71499,0.42874 -1.71499,0.42874c-1.78668,-1.0803 -3.3921,-1.63264 -5.35218,-2.28602l-1.12273,-1.42684c0,0 -0.55901,-1.11804 0.55903,-1.67705z" fill="#000000" stroke-width="0.5"></path>
      <path d="M222.8,217.65001l-1.25,0.39999c0,-1.02552 -0.1162,-2.43431 0.04464,-3.66775c-0.0291,-0.1058 -0.04464,-0.21721 -0.04464,-0.33225c0,-0.14845 0.02588,-0.29086 0.07337,-0.42296l0.37167,-1.11504c0.12651,-0.6501 0.24229,-1.26692 0.35498,-1.85749v-0.20452v0c0,-0.21997 0.05682,-0.42667 0.15658,-0.60623c0.30495,-1.55298 0.61335,-2.93391 1.08146,-4.28644c-0.02485,-0.09832 -0.03806,-0.20127 -0.03806,-0.30731c0,-0.11436 0.01536,-0.22513 0.04412,-0.33036l0.3932,-1.57281l0.05558,0.01389l-0.01526,-0.14442c0.27497,-0.55464 0.51111,-1.16672 0.73402,-1.80409l0.04339,-0.13017c0.01158,-0.03766 0.0249,-0.07456 0.03985,-0.11061c0.4684,-1.36951 0.89136,-2.83543 1.51606,-4.08755c0.00744,-0.05601 0.01858,-0.11085 0.03318,-0.16426l0.3932,-1.57281l0.20696,0.05174l0.23614,-0.59035c0.5836,-1.70988 1.23617,-3.34782 1.92235,-4.96089c-0.03766,-0.37252 0.0983,-0.68975 0.0983,-0.68975l0.2152,-0.50213c2.16653,-5.0511 3.58958,-10.383 4.92106,-15.70864c0,0 0.30319,-1.21267 1.51586,-0.90949c1.21267,0.30319 0.90949,1.51586 0.90949,1.51586c-0.7054,2.82145 -1.43853,5.64252 -2.28858,8.42488c0.57328,0.55131 0.22484,1.36435 0.22484,1.36435c-1.4536,3.38623 -2.98428,6.55574 -4.29944,9.94266c-0.00374,0.13582 -0.02915,0.26623 -0.07289,0.38789l-0.78133,2.34403l-0.13746,-0.04582l-0.39456,0.98642c-0.43622,1.92797 -1.11082,3.77173 -1.98223,5.66107l-0.25529,1.27649l-0.06556,-0.01311l0.02218,0.17364c-0.04179,0.04094 -0.08359,0.08188 -0.12538,0.12282l0.06107,0.03053l-0.71095,1.42187c-0.1256,1.80874 -0.69622,3.86488 -1.15708,5.66124v0.97319c0.14027,1.05825 -0.67713,1.8119 -0.81616,2.78488c-0.08958,0.62695 -0.05922,1.26195 -0.02491,1.89735c0.04105,0.17427 0.04105,0.30245 0.04105,0.30245l-0.02448,0.00783c0.01353,0.26438 0.02448,0.52862 0.02448,0.79215z" fill="#000000" stroke-width="0.5"></path>
      <path d="M222.40001,223.3c-1.25,0 -1.25,-1.25 -1.25,-1.25l0.03732,-1.10315c0.13333,-0.53334 0.26666,-1.06667 0.39999,-1.60001c0,0 0.30316,-1.21268 1.51584,-0.90952c1.21268,0.30316 0.90952,1.51584 0.90952,1.51584c-0.13333,0.53334 -0.26666,1.06667 -0.39999,1.60001l0.03732,0.49682c0,0 0,1.25 -1.25,1.25z" fill="#000000" stroke-width="0.5"></path>
      <path d="M211.68388,96.13389c-0.88389,0.88388 -1.76777,-0.00002 -1.76777,-0.00002l0.47919,-0.49803c-1.48774,0.43286 -2.31085,0.37094 -3.16296,-0.08279l-0.0276,0.0828l-1.17267,-0.39088c-0.51079,-0.15708 -0.88207,-0.63267 -0.88207,-1.19497c0,-0.5623 0.37128,-1.03788 0.88206,-1.19497l0.70138,-0.23379c-0.4763,-1.62093 0.46163,-4.0127 1.24733,-5.69522c0.04354,-0.51691 0.16604,-1.0049 0.47611,-1.38171c0.04582,-0.05568 0.09351,-0.10932 0.14287,-0.16114l-0.0398,-0.02653l0.78923,-1.18387c0.22257,-0.34463 0.61005,-0.57276 1.05082,-0.57276c0.05629,0 0.1117,0.00372 0.16602,0.01093c0.72019,-1.87959 1.49356,-3.71682 1.80827,-5.4061c0,0 0.24516,-1.22572 1.47088,-0.98056c1.22572,0.24516 0.98056,1.47088 0.98056,1.47088c-0.76881,3.64603 -5.04054,10.06714 -2.50286,13.60566l0.01048,0.17138l0.05247,-0.01749l0.3908,1.17232c0.0475,0.13211 0.07338,0.27452 0.07338,0.42299c0,0.52259 -0.32069,0.97028 -0.77601,1.157c0.02002,0.2801 -0.06673,0.60349 -0.39013,0.92688z" fill="#520000" stroke-width="0.5"></path>
      <path d="M242.84505,235.04634c-0.60073,0.18025 -1.17362,0.32068 -1.73752,0.43429c-0.00999,0.00687 -0.02008,0.01359 -0.03027,0.02018l-1.18388,0.78926l-0.04605,-0.06907l-0.14086,0.1718c-1.49902,0.39192 -4.44762,2.13831 -5.81925,2.07376c-0.09662,-0.00455 -0.19231,-0.01388 -0.2872,-0.02737v0.06081l-1.60001,0c-0.40747,0 -0.7694,-0.19496 -0.9976,-0.49669c-0.46859,0.00005 -0.92721,-0.02764 -1.4024,-0.08575v0.18241h-1.60001v-0.47325c-0.36218,-0.08425 -0.74446,-0.18344 -1.15485,-0.29839l0.00182,-0.00162l-0.82357,0.20589l-0.02844,0.08533c-0.15708,0.51079 -0.63267,0.88207 -1.19497,0.88207c-0.59488,0 -1.0927,-0.41555 -1.21902,-0.9722l-0.39365,-1.57464l0.18078,-0.04519l-0.21063,-0.39437c0.30816,-0.67421 0.61632,-1.34841 0.92449,-2.02262c0,0 0.55901,-1.11804 1.67705,-0.55903c0.36507,0.18253 0.55134,0.42467 0.63664,0.66803c0.47381,0 1.20438,0 1.20438,0c0.55117,0 1.01902,0.35673 1.18527,0.85189l0.20921,-0.03487l0.09657,0.57941l1.09679,0.07335l0.61686,-0.20562l0.01213,0.0364l0.06232,-0.05867c0.44379,-0.08928 0.89309,-0.14553 1.34542,-0.17563c0.44626,-0.28514 0.97012,-0.49226 1.42523,-0.61464c1.60671,-0.43203 3.17632,-0.56589 4.7502,-0.7334v-0.11821h1.03375c1.00509,-0.1262 2.01559,-0.2955 3.04217,-0.59369l1.04019,-1.04019c0.22621,-0.22621 0.53871,-0.36612 0.88388,-0.36612c0.27394,0 0.52729,0.08812 0.73327,0.23756l0.50663,-0.37997c0.21062,-0.16156 0.47415,-0.25758 0.7601,-0.25758c0.69036,0 1.25,0.55964 1.25,1.25c0,0.20994 -0.05176,0.4078 -0.14321,0.5815l-0.78874,1.57751l-0.11691,-0.05845c-0.02134,0.1089 -0.04269,0.2178 -0.06403,0.3267l-0.62085,-0.35287l0.37712,0.56569l-0.35457,0.23637l0.14503,0.40746c0,0 -0.60718,0.60713 -1.31826,0.31178c-0.11563,0.03531 -0.23839,0.05431 -0.36558,0.05431c-0.36497,0 -0.69341,-0.15641 -0.92193,-0.40587c-0.23649,-0.0229 -0.45369,-0.11169 -0.63303,-0.24779z" fill="#520000" stroke-width="0.5"></path>
    </g>
  </g>
</svg>
