<?xml version="1.0" encoding="UTF-8"?>
<svg xmlns="http://www.w3.org/2000/svg" xmlns:xlink="http://www.w3.org/1999/xlink" version="1.1" width="288.3046" height="221.13266" viewBox="0,0,288.3046,221.13266">
  <g transform="translate(-78.47468,-56.21436)">
    <g stroke="none" stroke-miterlimit="10">
      <g stroke-width="0.5">
        <path d="M183.70214,182.43306c0,-0.63106 0.23381,-1.2075 0.61954,-1.64743c0.04267,-0.30868 0.08786,-0.61554 0.13552,-0.92043c-0.11233,-0.28428 -0.17404,-0.59408 -0.17404,-0.91829c0,-0.61634 0.22304,-1.18058 0.5928,-1.61643c0.00622,-7.09398 1.99246,-13.29301 4.85584,-19.74363c0.696,-1.56795 1.52969,-4.25532 2.57662,-5.6669c0.59833,-0.80673 4.00107,-3.92381 4.78764,-4.82442c2.16945,-2.48398 4.15418,-5.33363 6.48481,-7.65528c2.95801,-2.94662 6.83359,-5.30916 10.17258,-7.81341c0,0 1.38168,-1.03627 2.70954,-0.23776c4.79281,-2.35035 9.88425,-2.84319 14.96661,-4.23694c7.09966,-1.94697 15.30409,-4.81535 22.611,-1.61783c0.9876,0.43218 1.70257,1.32944 2.61801,1.89873c2.33331,1.45103 5.09122,2.11529 7.46381,3.43337c1.88949,1.0497 3.54594,2.47886 5.39941,3.59094c2.17793,1.62974 5.17419,3.08644 7.17924,4.80348c0.83622,0.7161 1.30162,1.77976 2.02982,2.60546c2.84971,3.23125 6.05536,5.90977 8.37237,9.62011c2.08409,3.33736 3.0174,7.18425 4.76122,10.66189c1.12372,2.24101 2.4225,4.44178 3.08176,6.86051c1.87662,6.88496 1.26102,14.70797 1.23362,21.80498c-1.96465,10.02085 -6.52976,19.22621 -12.66127,27.3616c-0.65438,0.86825 -3.95384,3.87198 -4.78769,4.82445c-0.80896,0.92403 -2.83958,4.01056 -3.60703,4.77801c-2.84089,2.84087 -6.44484,4.11382 -9.74984,6.16912c-0.91544,0.56929 -1.63385,1.4588 -2.61803,1.8987c-1.75799,0.78577 -3.75238,0.98082 -5.47654,1.83828c-5.30866,0.92359 -9.318,1.20999 -14.31296,0.4397l-0.83048,0.25904c-9.0662,-1.61307 -17.87728,-2.46028 -26.2575,-6.65039c-3.88791,-1.96141 -6.40596,-4.40403 -9.36512,-7.44064c-1.49752,-1.53671 -2.31834,-1.41801 -4.13528,-2.51063c-3.03494,-1.82505 -6.70509,-4.26254 -9.22834,-6.78579c-7.78779,-7.7878 -10.07247,-20.37954 -9.14401,-31.36705c-0.1936,-0.35505 -0.30362,-0.76223 -0.30362,-1.19511zM239.07553,232.80648l2.8144,0.04855c0.31507,0.06301 0.62379,0.12166 0.92695,0.17608l1.85937,-0.67736c0,0 2.11821,-0.70606 3.01828,1.21815c2.54657,0.08502 4.99577,-0.16252 8.03868,-0.64288c1.56273,-0.78572 3.38174,-0.94163 4.98195,-1.64791c0.78589,-0.34687 1.3028,-1.13042 2.0302,-1.58741c2.9561,-1.85718 6.29795,-2.90641 8.84298,-5.45141c1.32794,-1.32792 2.12894,-3.10482 3.36526,-4.51845c1.39354,-1.59339 3.24355,-2.77492 4.50877,-4.47201c5.55736,-7.45428 9.86979,-15.78368 11.74182,-24.93073c-0.02974,-6.49818 0.62851,-13.73099 -1.09045,-20.02894c-0.57229,-2.09677 -1.75865,-3.97698 -2.7285,-5.92205c-1.66389,-3.33699 -2.53788,-7.06246 -4.53524,-10.25505c-2.17292,-3.4732 -5.25112,-5.92383 -7.89639,-8.97277c-0.54801,-0.63163 -0.8217,-1.49813 -1.45628,-2.04272c-1.8874,-1.61974 -4.6956,-2.93672 -6.76544,-4.49298c-1.7393,-1.04358 -3.28599,-2.39629 -5.05909,-3.38136c-2.43356,-1.35199 -5.24939,-2.03526 -7.64282,-3.53894c-0.72742,-0.457 -1.24796,-1.23243 -2.03022,-1.58746c-5.98406,-2.71585 -13.46947,0.30734 -19.22288,1.86837c-4.74185,1.28656 -9.6545,1.6281 -14.08128,3.89571c0,0 -1.21514,0.60756 -2.30176,0.03115c-3.03885,2.23822 -6.57853,4.3701 -9.22264,7.02607c-2.25811,2.26823 -4.18107,5.03645 -6.29784,7.4514c-1.3953,1.59184 -3.22629,2.7879 -4.50872,4.47199c-0.51018,0.66996 -1.92377,4.45935 -2.07161,4.79159c-2.70115,6.07047 -4.41523,11.72053 -4.441,18.39607c-2.08491,10.63422 -1.45276,25.14245 6.83329,33.4285c3.04984,3.04983 7.02575,4.91832 10.58607,7.1945c4.04413,2.58549 6.37552,6.39578 10.84322,8.60596c3.48754,1.74376 6.35989,2.22506 10.05277,3.32585c2.77514,0.82722 5.30469,1.94451 8.24938,2.23264c0.6014,0.05884 1.20643,0.09721 1.8113,0.1372c0.46542,-0.14936 0.84749,-0.14936 0.84749,-0.14936z" fill="#c19e4b"></path>
        <path d="M238.22623,233.00581c-0.60487,-0.03999 -1.21165,-0.07845 -1.81306,-0.13729c-2.94469,-0.28813 -5.48245,-1.40669 -8.25758,-2.23391c-3.69288,-1.10079 -6.57504,-1.58557 -10.06258,-3.32934c-4.4677,-2.21018 -6.81054,-6.02801 -10.85466,-8.6135c-3.56032,-2.27618 -7.5443,-4.1537 -10.59413,-7.20353c-8.28606,-8.28605 -8.92704,-22.82606 -6.84213,-33.46028c0.02577,-6.67555 1.74455,-12.34374 4.4457,-18.41422c0.14784,-0.33225 1.56385,-4.12613 2.07403,-4.79609c1.28243,-1.68409 3.11695,-2.88523 4.51225,-4.47707c2.11677,-2.41494 4.04645,-5.19016 6.30456,-7.45839c2.64412,-2.65598 6.19322,-4.79423 9.23207,-7.03245c1.08662,0.5764 2.30359,-0.03206 2.30359,-0.03206c4.42678,-2.26761 9.35341,-2.61336 14.09525,-3.89993c5.7534,-1.56103 13.25747,-4.58345 19.24154,-1.8676c0.78226,0.35503 1.305,1.13102 2.03241,1.58802c2.39343,1.50367 5.21695,2.1898 7.65051,3.54179c1.7731,0.98506 3.32504,2.34064 5.06434,3.38422c2.06985,1.55626 4.88449,2.87803 6.77189,4.49777c0.63458,0.54459 0.91006,1.41272 1.45807,2.04436c2.64527,3.04893 5.73096,5.50873 7.90388,8.98193c1.99736,3.19259 2.87623,6.92803 4.54012,10.26502c0.96985,1.94508 2.15797,3.83139 2.73026,5.92815c1.71897,6.29796 1.06112,13.5502 1.09086,20.04837c-1.87203,9.14705 -6.19582,17.5004 -11.75318,24.95469c-1.26522,1.69708 -3.1195,2.88299 -4.51304,4.47639c-1.23632,1.41362 -2.04134,3.19381 -3.36928,4.52173c-2.54503,2.54501 -5.89526,3.5992 -8.85136,5.45638c-0.7274,0.45699 -1.24643,1.24148 -2.03233,1.58835c-1.60021,0.70628 -3.42379,0.86382 -4.98652,1.64954c-3.04291,0.48036 -5.49941,0.72953 -8.04598,0.64451c-0.90007,-1.92422 -3.021,-1.21783 -3.021,-1.21783l-1.86121,0.67749c-0.30316,-0.05442 -0.61277,-0.11303 -0.92784,-0.17604l-2.81713,-0.04853c0,0 -0.38289,-0.00002 -0.8483,0.14934z" fill="#ffce66"></path>
      </g>
      <g stroke-width="0.5">
        <path d="M228.21745,174.33233c0.99037,0 1.84623,0.57587 2.251,1.41103c0.83518,0.40476 1.41108,1.26064 1.41108,2.25102c0,1.07264 -0.67553,1.9875 -1.62436,2.34236l2.20538,-0.01827c-0.078,5.84082 -2.73528,14.30756 -10.05336,14.12053c-1.51816,-0.0388 -3.2037,-0.1884 -4.42262,-1.09425c-4.68436,-3.48123 -1.26378,-10.18057 -0.99591,-14.6267c-0.46235,0.06007 -2.41181,0.18039 -2.84318,-1.97644c-0.4903,-2.45145 1.96115,-2.94175 1.96115,-2.94175c2.95273,-0.52995 5.20957,-0.25075 7.64949,0.53076c1.07537,-0.03242 2.23938,-0.42928 3.19106,0.04682c0.09834,0.0492 0.19524,0.10061 0.29079,0.15406c0.3008,-0.12822 0.63186,-0.19917 0.97949,-0.19917z" fill="#714c19"></path>
        <path d="M277.18735,180.21741c0,3.00068 -0.02015,7.19886 -1.3676,9.98216c-2.4368,5.03347 -10.43798,7.90499 -14.27471,2.63663c-0.75714,-1.03967 -0.6381,-2.49233 -0.9175,-3.74777c-0.71218,-3.2001 -0.63647,-6.17393 -0.62996,-9.41543c-0.22757,0.13863 -0.44398,0.29353 -0.64778,0.46663c0,0 -1.99999,1.50001 -3.5,-0.49998c-1.50001,-1.99999 0.49998,-3.5 0.49998,-3.5c1.01117,-0.70493 1.84784,-1.77777 3.03351,-2.11479c3.3212,-0.94404 7.88839,-0.07756 11.41909,-0.6753l2.94464,0.67529c0,0 1.07991,0.35996 1.53943,1.3228c0.66681,0.35297 1.15477,0.99877 1.29259,1.7661l0.57193,2.85972l-0.08844,0.01769z" fill="#714c19"></path>
        <path d="M287.55438,185.82431c-0.45966,1.13919 -0.91932,2.27839 -1.37898,3.41758c-0.93489,1.24395 -2.0569,2.41452 -3.32121,3.48711c-1.88509,2.55194 -3.47775,5.27071 -6.41332,6.79897c-7.03724,3.66359 -19.37078,4.3646 -25.15868,-2.35568c-2.38535,-2.76961 -3.88979,-8.08566 -4.59923,-11.57003c-0.61112,-3.0015 -0.52216,-5.28887 -2.4537,-7.70572c0,0 -0.05437,-0.07249 -0.1286,-0.20023c-0.43012,-0.07099 -1.12788,-0.27385 -1.60329,-0.85361l0.00004,-0.00002c-1.07761,-0.33207 -2.3558,-0.42533 -2.74744,0.67191c-0.16577,0.46442 -0.20791,0.94555 -0.18603,1.43592c0.63437,0.79118 0.48604,1.73489 0.33025,2.2497c0.0646,0.40692 0.11229,0.81253 0.1112,1.21283c-1.22886,7.47257 -3.10874,13.33875 -9.89255,17.60813c-6.36984,4.00885 -12.60552,3.88559 -19.74827,2.66161c-2.45814,-0.42123 -4.19753,-0.65499 -6.2689,-2.17911c-2.92736,-2.15397 -4.78058,-4.98818 -5.9157,-8.20397v-2.10377c-0.00497,-0.68931 0.08787,-1.48364 0.21366,-2.33582c-1.14645,-0.68045 -1.14645,-2.16713 -1.14645,-2.16713l0.04855,-1.65234c0.4012,-2.00601 0.34882,-4.65262 1.55992,-6.41067c-0.35414,0.18346 -0.72214,0.34383 -1.08511,0.50674c-0.16369,0.07347 -0.33035,0.14032 -0.49865,0.20347l-0.98618,0.98618l-0.05273,-0.05273c-0.08117,0.10651 -0.16549,0.21094 -0.25326,0.31307c-0.90744,1.05584 -2.4773,1.26841 -3.72201,1.8949l-2.80958,1.68574c-0.38339,0.2392 -0.83629,0.37741 -1.32147,0.37741c-1.38071,0 -2.5,-1.11929 -2.5,-2.5c0,-0.81467 0.38967,-1.53833 0.9928,-1.99475l0.00218,-0.00437c-0.38192,-0.0104 -0.76329,-0.02436 -1.14273,-0.03668c0.05763,-0.40763 0.11525,-0.81525 0.17288,-1.22287l-0.00001,-0.00001c0,0 0.10749,-0.7524 0.6188,-1.36822c0.00162,-0.0071 0.00328,-0.01419 0.00496,-0.02127c-0.04438,-0.18645 -0.06787,-0.38099 -0.06787,-0.58103c0,-0.99801 0.58479,-1.85943 1.43041,-2.26029l2.27567,-1.13783l0.0201,0.0402c0.04649,-0.03853 0.09356,-0.07649 0.14122,-0.11383c0.02301,-0.01802 3.20725,-1.07675 5.35853,-1.79085c-0.92159,-0.87014 -1.74806,-1.90901 -2.12536,-3.10101c-1.90642,-6.023 2.96973,-8.8803 7.72898,-10.16485c-2.82343,-3.31749 -0.14586,-11.95581 4.87671,-12.87051c1.17996,-0.21489 2.21303,0.93649 3.35996,1.28727c1.06987,0.32721 2.31019,0.17246 3.27345,0.74152c1.2663,0.74809 2.25926,1.91365 3.17252,3.06652c0.52707,0.66536 0.9808,1.42287 1.24671,2.23185c1.73064,-1.80394 4.41892,-2.91194 6.9345,-2.66694c5.43447,0.52928 6.26422,5.70746 9.11012,8.97426c1.84118,2.11348 4.12817,3.04895 6.35242,4.7065l2.12499,1.0625c0.24983,0.11843 0.4769,0.27707 0.67284,0.46755c1.34944,-0.1723 2.71032,-0.26326 4.06786,-0.2685l1.29257,0.28922c1.14355,-0.91456 2.31245,-2.22837 3.26686,-3.64066l0.75781,-1.51561l0.0965,0.04825c0.05622,-0.16977 0.12091,-0.3372 0.1954,-0.50192c0.12899,-0.28524 0.28485,-0.55034 0.4624,-0.79926c0.10588,-0.25863 0.19942,-0.51408 0.27917,-0.76452c0.71477,-2.24459 0.26641,-4.7449 2.59024,-6.40464c2.27586,-1.62548 7.4347,-1.45624 9.40788,0.60001c0.67727,0.70578 -0.69638,1.898 -0.60365,2.87177c0.02969,0.31173 0.58835,-0.23659 0.8364,-0.4277c0.54395,-0.41908 0.96085,-0.99226 1.5214,-1.38886c0.92189,-0.65227 1.9634,-1.11978 2.90513,-1.74307c2.52185,-1.66911 3.77491,-4.34059 6.01848,-6.08444c1.3359,-1.03835 2.79196,-2.8091 4.44544,-2.45019c5.38417,1.16872 3.65508,5.40137 3.20484,8.41649c-0.38734,0.96837 -0.64824,1.99748 -1.16203,2.90511c-0.19727,0.34848 -1.17616,0.46496 -0.91989,0.77266c0.26816,0.32197 0.77582,-0.31707 1.15997,-0.48439c0.71913,-0.31322 1.43983,-0.62343 2.14968,-0.95714c3.55292,-1.6703 8.5046,-3.96212 10.91285,1.38836c0.63504,1.41088 -0.14791,3.11514 -0.55174,4.60872c-0.36007,1.33172 -0.93566,2.43752 -1.67099,3.36239c0.68572,0.84946 1.49827,1.64377 1.7444,2.68437c0.28713,1.21397 -0.35914,2.46895 -0.53125,3.70448c-0.1984,1.42423 0.39666,3.21957 -0.58029,4.27473c-1.08966,1.1769 -3.03982,1.07119 -4.62059,1.34254c-0.27621,0.04741 -0.91659,-0.62986 -0.72551,-0.42484c2.1711,2.32944 1.27196,4.80228 0.66075,7.8341c-0.2998,1.48714 -0.68353,2.84031 -1.17937,4.10358zM250.43833,174.82351c0.52742,3.16642 1.2421,5.37286 2.22281,8.31505c0.79356,2.38072 1.02432,4.77428 2.56855,6.90292c3.01652,4.1581 8.62617,4.57694 13.16929,3.65853c4.06894,-0.82256 7.40891,-1.55261 10.31366,-3.74182c0.16012,-0.22724 0.32271,-0.45241 0.48959,-0.67397c1.64091,-1.61332 2.79895,-3.31708 3.61902,-5.18861l0.46634,-2.37907c0,0 0.15234,-0.7617 0.71177,-1.35102c0.17024,-0.7923 0.30567,-1.61502 0.41394,-2.47225c0.24508,-1.94038 -1.83115,-3.98215 -1.04596,-5.77342c0.64101,-1.46236 2.44505,-2.14407 3.92272,-2.74896c0.72761,-0.29785 1.72725,0.65818 2.35171,0.1805c0.4346,-0.33244 -0.58787,-0.98841 -0.58029,-1.53553c0.00953,-0.68708 0.67838,-1.30473 0.64673,-1.97222c-0.57925,-0.12909 -0.97424,-0.42192 -1.24357,-0.76124c-1.43,0.61609 -2.98474,1.04292 -4.54043,1.38036c-0.41922,0.71511 -1.13434,1.07266 -1.13434,1.07266l-1.86909,0.81092c-9.86985,1.62186 -19.81688,1.76692 -29.83208,1.7765c0.00362,0.05549 0.00505,0.11042 0.00454,0.16467l0.46651,0.65448c0,0 0.53221,2.1287 -1.39485,2.89615c0.21309,0.42344 0.27341,0.78538 0.27341,0.78538zM206.63141,172.86637c-0.53162,1.05382 -1.39138,1.93745 -2.05049,2.91732c-0.02148,0.74048 -0.41417,1.51791 -0.76998,2.29406c0.0624,0.48731 0.21068,0.98708 0.1671,1.47029c-0.08141,0.90266 -0.56235,1.75249 -0.56885,2.65879c-0.06174,8.60958 7.41327,12.43059 14.89048,12.60702c2.37532,0.05605 2.23322,-0.94778 4.49645,-1.62088c1.05883,-0.3149 2.24415,-0.10693 3.27577,-0.50198c1.51432,-0.5799 2.55718,-1.99538 3.86395,-2.95549c2.16382,-2.94513 3.85049,-4.96614 4.54552,-8.59997l0.53083,-1.1929c0.00003,-1.86532 0.03874,-4.2507 0.2656,-4.66404c0.2127,-0.38756 0.44396,-0.73731 0.69133,-1.05181c-0.23724,-0.3823 -0.37422,-0.83333 -0.37422,-1.31635c0,-0.48517 0.13821,-0.93807 0.3774,-1.32146l0.92161,-1.53605l0.40099,-1.0025c-1.04761,0.32184 -2.12679,0.51778 -3.43097,0.61553c-1.14005,2.04377 -3.27836,0.97462 -3.27836,0.97462c-2.54052,-1.37695 -4.68116,-0.89474 -7.59736,-0.89813c-5.45848,-0.00633 -10.74923,1.04631 -16.08799,2.10644c-0.05122,0.58236 -0.26879,1.01751 -0.26879,1.01751z" fill="#292f33"></path>
      </g>
      <path d="M225.80413,205.15833c8.53552,4.3266 21.55932,6.63201 30.20621,1.44343c0.37633,-0.2986 0.75266,-0.59718 1.12899,-0.89578l0.95603,-1.20972c0,0 0.72975,-0.91217 1.70624,-0.48259l0.7394,-1.60339c0.53333,0.17777 1.06667,0.35555 1.6,0.53332c4.28795,1.4293 9.71078,2.71521 13.05937,5.90534c1.61462,1.53822 2.67136,4.65272 0.50741,6.52472c-2.279,1.97153 -8.48696,-0.31472 -11.25937,-1.447c1.93528,3.04538 2.95806,6.82904 -1.58137,8.15221c-2.27777,0.66394 -5.9237,-0.74219 -7.7235,-2.12992c-0.54722,-0.42194 -1.59604,-1.58052 -2.17015,-2.3401c-0.08208,0.36661 -0.20676,0.72034 -0.25097,0.98601c-1.12718,3.28232 -4.49558,7.17947 -8.4333,4.61166c-0.32739,-0.21349 -1.72579,-2.60773 -2.04205,-3.13482c-0.14939,-0.24898 -0.34311,-0.73737 -0.47155,-1.17027c-0.34535,0.43868 -1.04491,0.8937 -1.47046,1.15144c-2.02007,1.22348 -6.01109,2.89684 -8.04544,0.48819c-0.59275,-0.70181 -0.77355,-1.52322 -0.71601,-2.37669c-3.12194,1.8493 -6.54263,3.37565 -10.11216,2.01581c-1.9972,-0.76085 -2.83584,-2.27305 -2.76271,-3.85322c-2.25677,0.70361 -4.59134,1.0572 -6.84234,0.45363c-2.40134,-0.64389 -3.87193,-1.25627 -2.66505,-4.353c0.11268,-0.28912 2.79239,-1.94754 3.28909,-2.19652c3.40807,-1.70833 6.98924,-3.26109 10.55619,-4.60227c0,0 0.4524,-0.16965 0.93996,-0.05963c0.70251,-0.98835 1.85753,-0.41085 1.85753,-0.41085z" fill="#292f33" stroke-width="0.5"></path>
      <path d="M288.44987,167.67566l-0.0796,-0.04366l-0.45169,0.60226c-0.45492,0.62045 -1.18915,1.02329 -2.01746,1.02329c-1.38071,0 -2.5,-1.11929 -2.5,-2.5c0,-0.41989 0.10352,-0.8156 0.28642,-1.16301l0.15651,-0.31302l-0.29175,-0.29175l0.87522,-0.87521l0.39956,-0.79913c0,0 0.88069,-1.76139 2.64208,-1.37594c0.05782,-0.004 0.11618,-0.00603 0.17501,-0.00603c1.38071,0 2.5,1.11929 2.5,2.5c0,0.57191 -0.19204,1.09896 -0.51515,1.52019l-0.04577,0.06103c-0.1984,1.03768 -1.13337,1.66098 -1.13337,1.66098z" fill="#363636" stroke-width="0.5"></path>
      <g stroke-width="0.5">
        <path d="M260.06773,197.0822c2.45685,2.64828 2.60301,8.05943 0.21899,10.88524c-1.3587,1.61049 -4.93979,3.69138 -7.57362,2.74033c-0.39287,0.5065 -0.81041,0.95238 -1.24144,1.28635c-4.92727,3.81763 -11.78104,0.95413 -16.3801,-2.32528c-0.57304,0.23643 -1.1546,0.43054 -1.76705,0.47102c-4.5935,0.30361 -7.93946,-3.14573 -7.92395,-7.74422c0.012,-3.55567 2.88648,-5.91515 5.33766,-7.89785c0,0 1.13062,-0.9045 2.35934,-0.47638c0.4622,-1.04073 0.91702,-2.03182 1.2927,-2.92816c1.68673,-4.02444 2.55829,-8.49157 3.93798,-12.63386l0.35104,-0.2165c-0.0793,-0.34243 -0.07931,-0.59294 -0.07931,-0.59294c0.07868,-1.28679 -0.41526,-2.74779 0.23602,-3.86038c1.94734,-3.32662 5.60019,-4.75822 9.06582,-2.459c1.07279,0.71173 1.04658,2.35252 1.56986,3.52879l0.45365,1.78427c0,0 0.13174,0.52697 0.02677,1.15105c0.35596,0.5644 0.42856,1.1452 0.42856,1.1452c0.62311,5.15595 3.26831,10.4883 4.75015,15.81301c1.65735,0.53734 3.99693,1.31608 4.93692,2.32932zM239.79599,204.12715c-0.10894,-0.06572 -0.21526,-0.1347 -0.31851,-0.20674c0.02805,0.06582 0.05209,0.13146 0.07245,0.19678c0.08336,0.06659 0.17158,0.13388 0.2657,0.20247c-0.00214,-0.01693 -0.00416,-0.03384 -0.00606,-0.05072c-0.00531,-0.04731 -0.00984,-0.09458 -0.01359,-0.14178z" fill="#ff924c"></path>
        <path d="M232.33995,194.34389c0.03932,-0.06291 0.07932,-0.12535 0.12001,-0.18731c0,0 0.0028,-0.0042 0.00832,-0.0119c0.13834,-0.21939 0.36888,-0.4609 0.73398,-0.53395c0.16027,-0.04509 0.34295,-0.05658 0.54447,-0.00601c0.18288,0.02665 0.37459,0.09948 0.54911,0.25318c0.15064,0.10986 0.25294,0.24178 0.32143,0.3788c0.1053,0.17552 0.14557,0.35521 0.14898,0.52295c0.03027,0.24793 -0.02508,0.4577 -0.11621,0.62933c-0.33275,1.38722 0.08607,2.3101 0.09998,3.86098l0.03388,-0.48389c0,0 0.88388,0.88388 0,1.76776c-0.88388,0.88388 -1.76777,0 -1.76777,0l-0.50615,-0.84823c-0.47735,-0.0728 -0.86591,-0.41562 -1.00495,-0.86772l-0.39088,-1.17265l0.18857,-0.06286l-0.25271,-0.33243c0.13664,-0.45346 0.29669,-0.90277 0.48212,-1.34134c-0.05479,-0.22383 -0.08213,-0.45049 -0.08213,-0.65866z" fill="#863528"></path>
        <path d="M257.88579,198.84527l-1.10195,1.28857c0,0 -0.48703,0.48704 -1.09958,0.37652c-0.1678,0.0176 -0.36015,-0.00141 -0.57958,-0.07455c-1.18586,-0.39528 -0.79058,-1.58113 -0.79058,-1.58113l0.33585,-0.80472c-0.24883,-0.6481 -0.34351,-1.34872 -0.37951,-2.04951c-0.03964,-0.14622 -0.05066,-0.31467 -0.01717,-0.50759c-0.00153,-0.08116 -0.00259,-0.16216 -0.00332,-0.24291c0,0 0,-1.25 1.25,-1.25c0.76483,0 1.06169,0.46797 1.17691,0.83125c1.61821,0.87403 1.82082,1.91106 1.20892,4.01406z" fill="#863528"></path>
      </g>
      <path d="M78.47468,56.21436z" fill="#ff9500" stroke-width="0"></path>
      <g stroke-width="0.5">
        <g>
          <path d="M213.80334,261.49842c-0.89085,-0.37177 -1.80062,0.19575 -1.80062,0.19575l-1.53135,0.96144c-5.03731,3.70858 -10.34287,5.72543 -16.00004,8.30153c-5.30653,0.43031 -10.58099,1.06964 -15.90981,0.4007c-5.13181,-0.64423 -9.09679,-3.85683 -13.22694,-6.56595c-4.33059,-2.8406 -8.10955,-5.69022 -11.22244,-9.91841c-2.80544,-3.76287 -2.81832,-6.85703 -3.00746,-11.19838c-0.08967,-2.058 -1.79834,-3.89133 -1.69801,-5.94883c0.07218,-1.48033 2.39156,-5.27175 3.12716,-6.54394c2.25709,-3.90359 5.91084,-6.78859 9.36568,-9.69725c4.27036,-3.59526 7.83452,-7.06656 13.39362,-8.40399c2.26843,-1.06107 4.03705,-0.70447 6.5151,-0.93861c12.94331,-1.22291 21.6868,7.02911 30.84946,14.68778c0,0 0.66513,0.5491 1.47412,0.48149c0.26447,0.13462 0.47572,0.184 0.47572,0.184c6.3737,1.35015 13.60422,-2.11598 20.02786,-2.88315c6.17014,-0.7369 12.43715,5.82617 15.81004,10.20301c1.13339,4.99256 2.97423,8.88213 0.1154,13.71869c-1.96747,3.32856 -6.57697,3.25065 -7.71436,7.97144c-0.27437,1.13881 -0.27649,4.80927 0.15023,5.99936c1.00745,2.80966 7.1664,8.20582 0.79169,8.59542c-4.59256,-1.09996 -7.79221,-4.93629 -11.67458,-7.40853c-5.81995,-3.70608 -11.97218,-3.54641 -18.31047,-2.19354z" fill="#781616"></path>
          <g>
            <g>
              <path d="M251.26416,240.24913c-0.08364,0.03695 -0.16512,0.06827 -0.24443,0.0944c-5.03437,3.19386 -11.5796,3.43615 -17.05313,0.75737c-3.17873,-1.5557 -5.92525,-4.36469 -9.36698,-5.28319c-9.06076,-0.91234 -16.08357,5.31372 -25.0157,5.55345c-7.9641,0.21376 -12.42079,-4.40386 -19.22533,-7.27781c-10.16891,-3.42505 -13.21136,8.45091 -20.27316,12.21355c-4.68982,2.49882 -10.17138,2.38704 -13.22145,-2.22546c0,0 -0.80401,-1.28856 0.13876,-2.30424c0.10633,-0.35981 0.2688,-0.60166 0.2688,-0.60166c1.61555,-2.25077 1.56235,-5.15586 3.08213,-7.64134c5.54919,-9.07529 13.71051,-17.92967 23.95648,-21.56741c4.78267,-1.06691 9.13788,-2.65684 14.1005,-1.39797c10.61131,2.69179 16.8423,13.51371 26.95424,16.31241l0.81675,0.11166c0.30861,-0.06565 0.5412,-0.05455 0.5412,-0.05455c9.89965,0.4976 20.98774,-7.01366 29.60851,0.94456c2.60427,2.40412 4.16038,6.16575 5.70645,9.2755l0.22654,0.50786c0,0 0.24558,0.55598 0.15339,1.1853l0.27639,0.27172c-0.18112,0.15082 -0.36501,0.29716 -0.55147,0.43903c-0.17954,0.26 -0.4578,0.50098 -0.87851,0.68681zM243.68996,230.77534c-7.16495,-6.47858 -18.76472,0.45742 -27.15389,0.07558c0,0 -0.00235,-0.00011 -0.00688,-0.00041c-0.42824,0.08977 -0.78221,0.03599 -0.78221,0.03599l-1.43813,-0.23327c-10.19056,-2.88113 -16.38332,-13.5569 -26.87121,-16.29014c-4.19825,-1.09411 -8.00485,0.47522 -12.04929,1.36941c-9.26313,3.24168 -16.70092,11.70188 -21.68956,19.83963c-1.46864,2.39573 -1.54322,4.89834 -2.87304,7.2824c2.25003,2.25023 6.77023,0.97586 8.99544,-1.10502c2.09268,-1.95695 3.50438,-4.66922 5.53231,-6.70152c4.35398,-4.36336 10.44515,-6.46515 16.36738,-4.62711c6.26621,2.6481 10.49394,7.2425 17.73762,7.03528c9.25952,-0.26489 16.25481,-6.50489 25.8735,-5.48638c7.74416,2.23115 14.67352,10.23055 22.62097,5.72911c-1.13096,-2.41191 -2.3656,-5.20792 -4.263,-6.92355z" fill="#783232"></path>
              <path d="M248.01824,237.69811c-7.94746,4.50145 -15.00557,-3.48195 -22.74974,-5.71309c-9.61868,-1.01851 -16.58076,5.2641 -25.84029,5.52898c-7.24366,0.20721 -11.38168,-4.41801 -17.6479,-7.06612c-5.92225,-1.83804 -12.00786,0.24298 -16.36184,4.60635c-2.02792,2.0323 -3.43956,4.73256 -5.53226,6.68953c-2.22521,2.08089 -6.87543,3.36716 -9.12546,1.11693c1.32982,-2.38405 1.40421,-4.89673 2.87286,-7.29246c4.98865,-8.13776 12.44435,-16.63913 21.70751,-19.8808c4.04445,-0.89419 7.86981,-2.4772 12.06807,-1.38308c10.48788,2.73324 16.76753,13.43859 26.95808,16.31973l1.43942,0.23602c0,0 0.35435,0.05467 0.78258,-0.0351c0.00453,0.00029 0.00687,0.00042 0.00687,0.00042c8.38917,0.38184 19.99322,-6.53949 27.15818,-0.0609c1.89739,1.71564 3.13292,4.52169 4.2639,6.93358z" fill="#a14343"></path>
            </g>
            <path d="M241.51096,231.14355c0.18422,1.94983 -1.76561,2.13404 -1.76561,2.13404l0.23445,-0.09785c-2.85052,1.10729 -6.52655,2.52055 -9.59481,1.37056c-2.11946,-0.79437 -3.01716,-2.31132 -5.42811,-2.41905c-4.56568,-0.20403 -8.42112,2.8845 -13.20979,2.42069c-3.1118,-0.3014 -5.35303,-2.44797 -8.34608,-2.7874c0,0 -0.28685,-0.03825 -0.62533,-0.19563c-0.0848,0.01635 -0.13585,0.02116 -0.13585,0.02116l-2.16702,0.20173c-3.37183,-0.09061 -5.49684,-0.37286 -7.75449,-3.10492c-2.40126,-2.90586 -3.15636,-9.72957 -8.4554,-7.97404c-3.39423,2.88052 -6.02537,4.14611 -10.32771,5.25468c-2.83127,0.72952 -5.80023,0.33954 -8.08773,2.46295c-4.27315,3.96662 -3.83199,10.66768 -9.14799,13.44826c-1.98725,1.03945 -2.99563,0.82584 -5.19681,0.9196c0,0 -1.95728,0.06939 -2.02667,-1.88788c-0.06939,-1.95728 1.88788,-2.02667 1.88788,-2.02667c5.71741,-0.15174 5.13961,-2.8962 7.12994,-7.24085c0.87565,-1.91142 3.10331,-4.66387 4.69377,-6.08788c3.8514,-3.44832 9.3936,-2.96242 14.08992,-4.49513c1.95556,-0.63823 3.57867,-2.56788 5.15267,-3.80887c1.01806,-0.29235 1.99505,-0.86381 3.05418,-0.87704c8.84375,-0.11054 7.00627,11.49214 14.83623,11.50376l1.95081,-0.18732c0,0 0.5615,-0.05305 1.11033,0.19912c0.30963,-0.03796 0.53711,-0.00762 0.53711,-0.00762c2.95658,0.4357 5.24944,2.52317 8.20388,2.77108c4.64139,0.38946 8.44154,-2.66211 13.03961,-2.43336c2.84473,0.14152 4.24125,1.58237 6.62654,2.6739c1.8306,0.83769 5.10297,-0.70829 6.76532,-1.36216l0.82271,-0.15342c0,0 1.94983,-0.18422 2.13404,1.76561z" fill="#b17878"></path>
          </g>
          <g>
            <path d="M205.95568,245.20904c0.05959,0.36066 0.02238,0.63974 0.02238,0.63974c-0.55874,4.14563 -1.29335,12.19839 0.74501,15.99397c0.39081,0.72772 3.67803,-0.61374 4.05877,-0.72197c4.92868,-1.40119 10.40873,-2.57471 15.43049,-3.41115c4.23427,-0.94198 8.24335,-2.05812 12.36492,-3.35877c1.16457,-0.36751 2.46761,-0.3984 3.51867,-1.02018c0.46657,-0.27601 1.55905,-0.9212 1.09538,-1.20207c-0.88891,-0.53848 -2.05353,-0.39748 -3.01663,-0.78811c-6.187,-2.50952 -12.71968,-4.12617 -19.34479,-5.13199c-4.72885,-0.72383 -9.97225,-1.21622 -14.87422,-0.99946zM202.47043,244.38837l0.73244,-2.91263c5.88372,-0.54264 12.37804,-0.02057 18.21536,0.86017c6.92585,1.05305 13.75482,2.74911 20.22601,5.37366c1.24534,0.50508 4.52523,1.5919 5.01983,2.60717c1.05916,2.17418 -0.74974,5.04918 -2.3555,6.2461c-0.48094,0.3585 -3.89826,1.3175 -4.55025,1.52269c-4.26668,1.34271 -8.42596,2.49924 -12.80755,3.47085c-4.89134,0.76865 -10.29167,1.96234 -15.0919,3.33041c-2.57067,0.73265 -5.80035,1.9325 -8.08392,-0.465c-0.67206,-0.70561 -0.5982,-1.85482 -0.89762,-2.78213c-1.57716,-4.88459 -1.45155,-11.24018 -0.7819,-16.30877c0,0 0.06514,-0.48838 0.37502,-0.94255z" fill="#868686"></path>
            <path d="M220.8307,246.14321c6.6251,1.0058 13.22185,2.68051 19.40884,5.19003c0.96308,0.39064 2.12798,0.25288 3.01689,0.79135c0.46367,0.28088 -0.62868,0.92951 -1.09526,1.20552c-1.05105,0.62178 -2.35416,0.6563 -3.51874,1.02381c-4.12156,1.30064 -8.14408,2.45345 -12.37835,3.39545c-5.02177,0.83644 -10.60544,2.00986 -15.53413,3.41104c-0.38074,0.10824 -3.6722,1.44341 -4.06303,0.71569c-2.03837,-3.79557 -1.3056,-11.91178 -0.74685,-16.0574c0,0 0.03825,-0.28098 -0.02135,-0.64163c4.90196,-0.21677 10.20311,0.24229 14.93195,0.96614z" fill="#a2a2a2"></path>
          </g>
          <path d="M208.22507,248.15599c1.12719,-3.13739 0.07827,-9.1268 -0.59754,-12.22449c-0.22408,-1.02712 0.21191,-2.58302 -0.71942,-3.0707c-0.75365,-0.39465 -2.46261,-0.4995 -4.00239,-0.55047c0.94154,5.19252 1.04248,9.93569 -0.34434,15.07414l-0.07223,0.31304c1.56774,0.4239 5.37631,1.45942 5.73592,0.4585zM198.6374,230.06034c0.20175,-1.94808 2.14984,-1.74634 2.14984,-1.74634c1.83476,0.19035 6.60816,0.11128 8.19368,1.22315c3.99098,2.79875 3.25798,11.02092 3.24376,15.24407c-0.00327,0.97207 -0.04022,4.45681 -0.58219,5.28899c-2.50112,3.84043 -6.96852,2.00345 -10.50653,1.31626l-1.56589,-0.57331c0,0 -1.43337,-0.55503 -1.26875,-1.95151c-0.02012,-0.35054 0.04016,-0.61079 0.04016,-0.61079l0.43918,-1.89069c1.25768,-4.62319 1.12023,-8.85843 0.23516,-13.54602c0,0 -0.111,-0.59358 0.11989,-1.18318c-0.33043,-0.32024 -0.57672,-0.81357 -0.49832,-1.57063z" fill="#343434"></path>
          <path d="M202.46555,247.75834l0.07184,-0.31318c1.38682,-5.13845 1.29256,-10.00529 0.35102,-15.1978c1.53977,0.05097 3.27991,0.15498 4.03355,0.54963c0.93132,0.4877 0.51108,2.0492 0.73517,3.07632c0.67582,3.09769 1.71956,9.20583 0.59237,12.34321c-0.3596,1.00093 -4.21623,-0.03426 -5.78397,-0.45816z" fill="#434343"></path>
          <path d="M227.68397,251.97316c-1.90802,-0.44182 -1.46619,-2.34985 -1.46619,-2.34985l0.17747,-0.72729c0.61577,-4.58379 0.89033,-8.89814 -1.53665,-12.97318c0,0 -0.9915,-1.68899 0.6975,-2.68048c0.16706,-0.09807 0.3273,-0.16991 0.48042,-0.21977c0.47214,-1.67346 2.244,-1.32928 2.244,-1.32928c1.64338,0.31941 3.28239,0.66312 4.9134,1.04057l0.45506,0.10536c0,0 1.32072,0.30581 1.51011,1.5074c2.81898,3.42115 4.2921,8.29654 3.63248,12.6977c-0.43204,2.88271 -1.95673,6.06033 -5.20792,6.54804c-1.07056,0.16061 -2.13744,-0.34486 -3.20616,-0.51729l-1.12506,-0.16926c0,0 -0.95553,-0.14518 -1.42211,-0.90283c-0.04781,-0.00842 -0.09659,-0.01833 -0.14638,-0.02985zM231.12442,249.22993c6.69142,1.66483 3.34238,-9.71916 0.65824,-12.80099c-0.85576,-0.19414 -1.7137,-0.37888 -2.57325,-0.55572c1.81252,4.22282 1.70917,8.55703 1.10862,13.23315z" fill="#343434"></path>
          <path d="M230.30894,249.17102c0.60053,-4.6761 0.69522,-9.13779 -1.1173,-13.36061c0.85955,0.17684 1.7412,0.35938 2.59697,0.55352c2.68414,3.08183 6.02652,14.59613 -0.66489,12.93129z" fill="#434343"></path>
          <g>
            <path d="M189.52947,262.97716c-0.71345,0.55052 -1.31981,-0.14862 -1.31981,-0.14862c-3.32456,-3.98002 1.35048,-8.91594 5.9405,-7.04505c2.04595,0.83392 2.92288,3.93641 1.53197,5.70024c-1.56928,1.99005 -4.03225,2.15929 -6.15267,1.49343zM188.98605,259.86518c0.11406,0.10025 0.17683,0.19174 0.17683,0.19174l0.67712,1.0536c1.65413,0.6857 6.18109,-0.5563 4.14145,-3.00215c-1.47218,-1.76539 -4.91017,-0.30516 -4.99539,1.75682z" fill="#868686"></path>
            <path d="M194.03726,258.07451c2.03964,2.44586 -2.59259,3.76433 -4.24672,3.07864l-0.69129,-1.08153c0,0 -0.06374,-0.09668 -0.17781,-0.19694c0.08523,-2.06197 3.64363,-3.56556 5.11582,-1.80017z" fill="#a2a2a2"></path>
          </g>
          <g>
            <path d="M169.30474,254.63494c-0.03287,0.00108 -0.05192,0.00018 -0.05192,0.00018c-5.65706,-0.73897 -0.90221,-7.94941 3.44893,-7.14045c3.07886,0.57242 4.90688,3.55439 2.6466,6.28633c-1.43518,1.73466 -3.31859,1.59591 -5.30352,1.42721zM168.87209,252.68203c0.57624,-0.44404 1.18486,0.0595 1.18486,0.0595l0.69514,0.64034c1.14403,-0.02355 2.24389,0.17008 3.0873,-0.84932c1.41339,-1.70832 -0.39427,-3.73158 -2.36813,-3.29262c-1.07568,0.23923 -3.66882,3.15192 -2.59915,3.44209z" fill="#868686"></path>
            <path d="M171.46503,249.17497c1.97386,-0.43896 3.8478,1.67484 2.43441,3.38316c-0.8434,1.01939 -2.03425,0.85768 -3.17829,0.88123l-0.71815,-0.66105c0,0 -0.61581,-0.5174 -1.19205,-0.07336c-1.06967,-0.29017 1.5784,-3.29078 2.65409,-3.53001z" fill="#a2a2a2"></path>
          </g>
          <g>
            <path d="M175.48767,263.62335c-3.92491,-2.9066 3.31189,-9.05155 7.09628,-4.22931c3.27896,4.17818 -3.54821,8.29323 -6.85206,4.67245zM176.45301,261.63997c0.2656,0.15655 0.40465,0.41166 0.40465,0.41166l0.48311,0.89808c1.08641,1.38427 4.79747,0.36889 4.2465,-1.59203c-1.18347,-4.21207 -4.65971,-0.81669 -5.13426,0.28229z" fill="#868686"></path>
            <path d="M181.65226,261.35159c0.55097,1.96092 -3.2784,3.02004 -4.36482,1.63579l-0.49384,-0.92315c0,0 -0.14028,-0.26616 -0.40587,-0.42272c0.47456,-1.09898 4.08107,-4.50199 5.26454,-0.28992z" fill="#a2a2a2"></path>
          </g>
          <g>
            <path d="M182.30584,254.55957c-0.34859,0.08818 -0.68074,-0.05732 -0.68074,-0.05732c-5.76638,-2.77406 0.50214,-8.52916 4.85003,-6.30935c4.63418,2.36597 0.70609,7.88881 -3.33726,7.03357zM181.99502,252.52887c0.54096,-0.3083 1.07456,0.13318 1.07456,0.13318l0.93667,0.80896c1.87503,0.52512 3.68268,-2.65054 1.6005,-3.52262c-1.9693,-0.82482 -6.15656,1.29631 -3.61173,2.58051z" fill="#868686"></path>
            <path d="M185.65387,249.90316c2.08218,0.87208 0.22588,4.15821 -1.64915,3.6331l-0.97606,-0.82336c0,0 -0.55035,-0.46177 -1.09132,-0.15348c-2.54483,-1.2842 1.74723,-3.48108 3.71653,-2.65626z" fill="#a2a2a2"></path>
          </g>
          <path d="M246.5817,257.446c-1.1138,5.15148 5.10347,7.90557 4.20074,12.92102c-0.61005,3.38929 -4.69611,4.32042 -7.31027,4.60705c-6.74953,-1.52924 -10.62192,-7.47783 -17.00084,-9.6767c-4.48128,-1.54475 -8.32041,-0.88048 -12.7186,0.15973c-0.21485,0.21264 -0.76248,0.6707 -1.47485,0.64877c-5.28343,3.78022 -10.8154,6.00409 -16.79645,8.58003c-5.76505,0.60292 -11.62162,1.31349 -17.41187,0.50501c-9.99457,-1.39552 -21.20487,-10.07099 -27.0476,-18.00708c-3.20151,-4.39387 -3.63321,-8.25516 -3.76763,-13.4003c-0.0572,-2.18954 -1.79143,-4.1624 -1.68839,-6.35027c0.09267,-1.96763 2.6823,-6.55042 3.64323,-8.19982c2.52245,-4.32967 6.40177,-7.49444 10.22831,-10.71557c4.62408,-3.89249 8.60978,-7.64634 14.64368,-9.098c2.62784,-1.10765 4.61244,-0.85934 7.3939,-1.12213c14.08557,-1.33083 23.40087,7.15187 33.43333,15.39463c0.31864,-0.01029 0.54851,0.04295 0.54851,0.04295c5.62189,1.46746 12.95591,-2.54356 18.75588,-2.98583c8.05245,-0.61402 15.4165,6.39193 19.72063,12.42889c0.01435,0.05692 0.02877,0.11381 0.04324,0.17063c-0.31102,0.50248 -0.2553,1.09226 -0.2553,1.09226c0.14521,1.38849 0.51003,2.76932 1.06393,4.05081l0.79404,1.27918c0.44106,2.3061 0.59085,4.57573 0.0197,6.86321c-0.14407,0.11855 -0.22505,0.21642 -0.22505,0.21642c-1.22073,1.47547 -3.44024,4.15812 -4.66096,5.63358c0,0 -0.32902,0.39767 -0.39337,0.93078c-1.67451,0.99815 -3.30364,2.02178 -3.738,4.03078zM232.05849,263.65731c3.88236,2.47225 7.08207,6.30848 11.67463,7.40844c6.37471,-0.38961 0.21093,-5.77651 -0.79652,-8.58616c-0.42672,-1.19009 -0.42747,-4.8523 -0.1531,-5.99111c1.13739,-4.7208 5.74469,-4.62957 7.71216,-7.95811c2.85883,-4.83657 1.01956,-8.70748 -0.11384,-13.70005c-3.37289,-4.37683 -9.6304,-10.91808 -15.80055,-10.1812c-6.42364,0.76716 -13.63428,4.25235 -20.00797,2.90221c0,0 -0.20993,-0.04861 -0.4744,-0.18322c-0.80898,0.0676 -1.46996,-0.47926 -1.46996,-0.47926c-9.16266,-7.65866 -17.84206,-15.9144 -30.78538,-14.69149c-2.47805,0.23414 -4.23937,-0.1279 -6.50781,0.93317c-5.55911,1.33742 -9.10949,4.79217 -13.37984,8.38744c-3.45484,2.90867 -7.1022,5.77868 -9.35929,9.68226c-0.73558,1.27218 -3.05317,5.05522 -3.12535,6.53556c-0.10033,2.05751 1.60899,3.88382 1.69865,5.94182c0.18913,4.34137 0.20096,7.42105 3.0064,11.18392c3.11288,4.22819 6.88602,7.06049 11.21661,9.90109c4.13016,2.70912 8.0822,5.90409 13.21401,6.54831c5.32883,0.66896 10.57963,0.01499 15.88618,-0.41531c5.65717,-2.5761 10.91584,-4.59165 15.95316,-8.30023l1.52555,-0.95869c0,0 0.90479,-0.56456 1.79564,-0.19279c6.33829,-1.35287 12.47109,-1.49266 18.29105,2.21342z" fill="#4e0e0e"></path>
        </g>
        <g>
          <path d="M350.10319,258.55188l-0.11818,-0.60363c-1.91346,0.0813 -3.82174,0.21967 -5.71615,0.47097c1.95752,1.18804 4.17558,2.23058 5.97018,0.29964c-0.0887,-0.09137 -0.13587,-0.16698 -0.13587,-0.16698zM361.42413,257.02185l-0.09337,0.2428c0.0712,0.03674 0.14413,0.08479 0.21831,0.14617c0.65887,0.54512 0.26635,1.18956 0.15626,1.34418l-0.04972,0.80226c0,0 -0.09892,0.42716 -0.45021,0.64363c-0.17968,0.49766 -0.36419,0.93599 -0.48803,1.03089c-0.79319,0.60774 -5.56315,0.32112 -6.50325,-0.0814c-0.80542,-0.34485 -1.49027,-1.73936 -2.09202,-2.62348l-0.14904,1.17973c-3.35465,3.96888 -7.32908,0.97579 -10.66438,-0.79846c0,0 -0.35231,-0.18965 -0.48531,-0.55168c-0.29674,-0.10336 -0.48902,-0.23254 -0.48902,-0.23254l-1.74278,-1.17075c-1.56995,-1.06433 -2.86057,-2.29717 -4.34541,-3.41054c-0.7586,0.01374 -1.36115,-0.48478 -1.36115,-0.48478l-0.00175,-0.05081c-5.20587,-2.82983 -8.50402,-10.72537 -3.16234,-15.54422c0.48508,-0.43761 1.21824,-0.79899 1.99207,-1.10425c0.3978,-0.30395 0.81724,-0.40485 0.81724,-0.40485c2.85296,-0.48331 4.32671,-4.52829 6.11829,-6.69864l1.28488,-1.1944c0,0 0.71967,-0.65411 1.60567,-0.53333c0.45991,-0.83578 0.6376,-1.81982 1.33104,-2.48762c2.1818,-2.10111 5.9637,-0.21262 7.20389,1.91378l0.17069,0.96486c0,0 0.05241,0.55478 -0.34033,0.86687c0.9994,0.09752 2.00167,0.20094 3.00195,0.31546c0.01514,-0.06013 0.02898,-0.09588 0.02898,-0.09588l0.00004,0.00001c0.41711,-1.07281 0.92762,-2.77334 2.00053,-3.42425c2.27624,-1.38092 7.45253,1.04831 7.56595,3.39614l0.08014,0.7436c0,0 0.06292,0.66581 -0.46547,0.94897c0.35107,0.08809 0.6997,0.18 1.04567,0.27605l0.42298,0.0155c0,0 1.35221,0.14003 1.68679,1.31335c1.00756,0.36579 1.1992,1.54754 1.1992,1.54754c0.99798,6.4985 -0.54883,14.04608 -2.90129,20.12872l-1.11639,1.50703c0,0 -0.16403,0.19826 -0.44504,0.39159c-0.10021,0.59516 -0.45936,1.02924 -0.45936,1.02924l-0.09563,0.05241c-0.00975,0.03036 -0.0195,0.06075 -0.02926,0.09111zM354.97175,259.34434c2.15888,0.60159 3.91213,0.738 4.70042,-0.85121c-0.05835,-0.16248 -0.11315,-0.32635 -0.16487,-0.49128c-0.07204,-0.07485 -0.12355,-0.15571 -0.15961,-0.238c-1.79568,0.04104 -3.5993,0.05197 -5.40365,0.07942c0.43691,0.68904 0.94286,1.47742 1.02772,1.50107zM361.72406,258.62566c-0.00412,0.01283 -0.00854,0.02669 -0.01326,0.04151l-0.00056,0.00916zM360.63215,229.90457l-0.0866,-1.02119c0.16466,-0.48276 -3.04176,-1.76711 -3.97607,-1.92875c-0.78414,-0.13565 -1.39553,1.55892 -1.67984,2.38977c1.9995,0.26418 3.97782,0.58711 5.89533,1.01113c-0.13141,-0.22438 -0.15282,-0.45095 -0.15282,-0.45095zM348.29491,228.1026l0.05953,-0.21167c-1.65833,-3.42307 -3.46623,-1.46626 -4.81257,0.29453c1.62701,0.16257 3.29216,0.30994 4.97196,0.46715c-0.19068,-0.25116 -0.21892,-0.55003 -0.21892,-0.55003zM335.34331,239.25551c-5.31642,1.7522 -5.58212,7.38884 -0.93064,10.11955c0.69029,-0.01749 1.25488,0.36922 1.25488,0.36922c1.82333,1.25839 3.27384,2.7386 5.10831,3.95741l1.55427,1.04413c5.50094,-0.88781 11.11646,-0.76308 16.67357,-0.89107c0.12599,-0.52466 0.43177,-0.89422 0.43177,-0.89422l0.48166,-0.42449c2.03852,-5.25757 3.61669,-12.08578 2.74328,-17.74672l-0.55425,-0.07199c-6.28233,-1.77586 -13.64801,-2.10615 -20.11921,-2.75432c0,0 -0.17514,-0.01813 -0.41496,-0.09605c-1.83501,2.24534 -3.00068,4.62483 -4.98131,6.26107c-0.33257,0.82333 -1.24735,1.1275 -1.24735,1.1275z" fill="#343434"></path>
          <g>
            <path d="M331.33957,248.85669c0.73615,-0.56807 0.03754,-1.86545 0.18629,-2.78334c0.1509,-0.93115 1.03882,-6.19236 0.11855,-6.79132c-0.24804,-0.16145 -2.16525,0.17298 -3.53592,0.41962c0.02052,0.14829 0.03996,0.29612 0.05783,0.44334c-0.11307,-0.12811 -0.19851,-0.2661 -0.26258,-0.40645c-0.55018,0.09924 -0.98394,0.17774 -1.13689,0.19219c0,0 -0.72152,0.06817 -1.3282,-0.31733c-6.42197,-0.00482 -12.82527,0.1587 -19.26916,0.05308c-15.48807,-0.25488 -30.95511,-0.32888 -46.43588,-0.53227c-0.31629,0.04047 -0.55024,0.00927 -0.55024,0.00927c-0.03606,-0.00484 -0.07642,-0.01094 -0.12075,-0.01817c-0.10426,-0.00139 -0.20853,-0.0028 -0.3128,-0.00421c-0.00109,-0.01768 -0.00244,-0.03521 -0.00407,-0.05258c-1.24011,-0.23536 -3.901,-0.83813 -4.55066,-0.48894c-0.65671,0.35297 -0.82429,3.90041 -0.85433,4.53141c-0.20011,4.20263 -0.32029,6.13305 4.22655,5.65508l0.421,0.02461c0.03571,-0.05622 0.07726,-0.12769 0.11797,-0.21141c15.77471,-0.78527 31.58196,0.98 47.32735,-0.52154c6.96092,0.11731 14.00303,-0.05846 20.967,0.26147l1.16405,0.24415c-0.0163,0.14361 -0.03208,0.28735 -0.04723,0.43124c1.48877,0.04752 3.4906,0.11796 3.82214,-0.13789zM333.9299,236.10087c3.00397,2.24844 2.05425,9.57777 1.1878,12.62928c-0.29711,1.04644 -0.34678,2.33388 -1.16803,3.04723c-1.5421,1.33949 -5.61843,0.91334 -7.59168,1.10085l-2.05892,0.19451c0,0 -1.3736,0.12978 -1.92392,-0.98143c-5.58975,-0.13927 -11.22871,-0.03056 -16.78929,-0.11954c-14.89436,1.3942 -29.84372,-0.10929 -44.7646,0.40829c-0.61295,0.47389 -1.416,0.41683 -1.416,0.41683l-1.46951,-0.13115c-2.68287,0.23158 -6.0393,0.37488 -7.78349,-2.31834c-0.5278,-0.81498 -0.33402,-1.91354 -0.46124,-2.87613c-0.44082,-3.33549 -0.89552,-10.05515 2.47833,-12.24418c1.54391,-1.00171 5.28705,-0.28985 7.24307,-0.0065c15.60974,0.22437 31.20489,0.27241 46.82152,0.52942c7.15931,0.11835 14.26758,-0.09645 21.4088,-0.04436c0.0006,0.05453 0.00165,0.10914 0.00311,0.16381c2.05411,-0.29751 4.97597,-0.74763 6.28403,0.23143z" fill="#343434"></path>
            <path d="M327.58196,249.00443c0.01515,-0.14389 -0.09825,-0.30656 -0.08197,-0.45017l-1.03472,-0.22617c-6.96397,-0.31993 -14.00905,-0.13173 -20.96997,-0.24904c-15.74539,1.50155 -31.67898,-0.27593 -47.4537,0.50933c-0.04072,0.08372 0.04697,0.13659 0.01127,0.19282l-0.55021,-0.00581c-4.54685,0.47797 -4.42732,-1.46272 -4.22721,-5.66535c0.03005,-0.63099 0.19817,-4.18605 0.85488,-4.53902c0.64968,-0.34919 3.43999,0.27091 4.68009,0.50627c0.00161,0.01737 0.003,0.03481 0.00408,0.05248c0.10427,0.0014 0.07914,-0.01462 0.1834,-0.01322c0.04432,0.00722 0.08469,0.01332 0.12075,0.01817c0,0 0.23396,0.03103 0.55025,-0.00943c15.48077,0.20339 31.075,0.2675 46.56307,0.52239c6.44391,0.10562 12.84946,-0.04719 19.27143,-0.04236c0.60668,0.3855 1.32832,0.31825 1.32832,0.31825c0.15295,-0.01445 0.5867,-0.09308 1.13687,-0.19232c0.06406,0.14034 0.01968,0.29213 0.13274,0.42024c-0.01787,-0.14724 -0.03723,-0.29423 -0.05775,-0.44253c1.37067,-0.24662 3.41764,-0.59572 3.66567,-0.43426c0.92026,0.59896 0.03265,5.87155 -0.11826,6.80268c-0.14876,0.91787 0.54939,2.21992 -0.18674,2.788c-0.33153,0.25585 -2.33354,0.18659 -3.82231,0.13907z" fill="#434343"></path>
          </g>
          <path d="M360.84572,230.37942c-1.91752,-0.42402 -4.02184,-0.7689 -6.02133,-1.03308c0.28432,-0.83084 0.92682,-2.58303 1.71096,-2.44738c0.93432,0.16164 4.23949,1.49237 4.07484,1.97514l0.08536,1.04605c0,0 0.01877,0.23488 0.15017,0.45926z" fill="#888888"></path>
          <path d="M348.57672,228.67016c-1.6798,-0.15721 -3.47303,-0.31878 -5.10004,-0.48137c1.34634,-1.76079 3.28454,-3.72583 4.94287,-0.30275l-0.05938,0.21854c0,0 0.02586,0.31444 0.21655,0.56558z" fill="#888888"></path>
          <path d="M335.28013,239.23913c0,0 0.91679,-0.31054 1.24936,-1.13387c1.98062,-1.63624 3.16954,-4.04611 5.00455,-6.29144c0.23982,0.07792 0.41608,0.09525 0.41608,0.09525c6.4712,0.64817 13.92845,0.99686 20.21078,2.77273l0.55506,0.07327c0.87341,5.66093 -0.71231,12.56758 -2.75083,17.82515l-0.4837,0.42661c0,0 -0.30885,0.37242 -0.43486,0.89709c-5.5571,0.12799 -11.24926,0.00998 -16.75019,0.89779l-1.56152,-1.04919c-1.83447,-1.21881 -3.30255,-2.7209 -5.12588,-3.9793c0,0 -0.56607,-0.38991 -1.25636,-0.37242c-4.65148,-2.73072 -4.38899,-8.40948 0.92743,-10.16168z" fill="#434343"></path>
          <path d="M341.34895,250.10388c-4.42974,-2.94441 5.7764,-9.42716 7.313,-2.72742c1.01397,4.42097 -5.15186,6.24094 -7.313,2.72742zM343.68759,249.8321c1.3432,0.77745 3.52299,-0.32108 3.06552,-2.01736c-0.64658,-2.39745 -3.50854,-1.22745 -4.24927,-0.12713c0.28576,0.26332 0.3238,0.66577 0.3238,0.66577l0.00414,0.35457c0.00112,0.00356 0.00223,0.00714 0.00335,0.01069c0.05427,0.01812 0.11333,0.03435 0.17735,0.0486c0,0 0.81987,0.26325 0.67512,1.06485z" fill="#343434"></path>
          <path d="M350.16837,258.55546c0,0 0.04687,0.07923 0.13557,0.1706c-1.79461,1.93095 -4.14283,0.88154 -6.10035,-0.30649c1.8944,-0.25129 3.93228,-0.40128 5.84574,-0.48258l0.11905,0.61848z" fill="#888888"></path>
          <path d="M354.91589,259.3781c-0.08486,-0.02364 -0.59957,-0.85497 -1.03647,-1.54403c1.80435,-0.02745 3.73675,-0.04131 5.53243,-0.08235c0.03605,0.0823 0.08844,0.1694 0.16048,0.24424c0.05174,0.16493 0.10655,0.3402 0.1649,0.50269c-0.78829,1.5892 -2.66247,1.48102 -4.82135,0.87943z" fill="#888888"></path>
          <path d="M360.35464,229.33342c0.61743,0.76008 -0.14266,1.3775 -0.14266,1.3775l-0.51664,0.22539c2.13493,3.75385 2.33593,12.03002 -3.76977,11.90838c-6.54091,-0.38127 -13.15269,-1.93163 -19.79918,-2.0864c-1.63221,0.42028 -3.38768,0.65933 -5.14505,1.08213c0,0 -0.77626,0.18677 -1.09556,-0.47791c-2.10601,0.2139 -4.17594,0.49593 -6.27183,0.72641c-0.24973,0.87485 -1.15728,0.66469 -1.15728,0.66469l-0.4602,-0.21269c-7.44954,1.67596 -16.39801,0.25955 -24.02846,-0.10385c-7.58864,-0.38147 -15.20792,0.58648 -22.78867,0.32819c-0.36124,0.369 -0.92173,0.2392 -0.92173,0.2392l-1.26353,-0.29818c-0.42036,-0.00522 -0.84073,-0.01045 -1.26108,-0.01567c-7.02346,-0.50077 -14.10462,-1.38437 -21.08744,-1.71767c0,0 -0.003,-0.00015 -0.00869,-0.00058c-0.0969,0.02428 -0.19709,0.03366 -0.29683,0.02783l-1.03198,-0.04925l0.00117,-0.02441l-0.0515,0.02069c-0.52903,-0.07983 -1.05719,-0.16014 -1.58476,-0.2402c-1.10209,0.12823 -2.24383,-0.2677 -3.57668,-0.4702c-2.14609,-0.32605 -4.29924,-0.50275 -6.46046,-0.70542c-0.01637,0.03869 -0.03402,0.07787 -0.05298,0.1175l0.00001,-0.00001c-0.8452,1.76674 -2.61195,0.92154 -2.61195,0.92154l-0.63903,-0.3121c-2.80462,-1.11328 -5.68111,-0.96952 -8.64849,-1.23421c-7.84758,-0.69998 -15.48878,-2.18941 -23.27924,-0.30945c0,0 -1.90416,0.45813 -2.36229,-1.44606c-0.45813,-1.90418 1.44606,-2.36229 1.44606,-2.36229c8.25113,-1.97951 16.24301,-0.5232 24.54809,0.2167c3.36529,0.29981 6.50929,0.26733 9.71029,1.48261l0.915,0.43133c0,0 0.25278,0.12094 0.52137,0.36693c2.25731,0.17956 4.49705,0.45319 6.73655,0.76732c0.24831,0.03332 0.49614,0.06846 0.7434,0.10569c1.29396,0.18629 2.58848,0.38412 3.8869,0.58318l0.00137,-0.01327l1.91292,0.19811c0.15654,-0.03389 0.2751,-0.02824 0.2751,-0.02824c6.98264,0.33329 14.05689,1.21987 21.07963,1.7173c0.47128,0.00944 0.9426,0.01891 1.41388,0.02835l0.68666,0.15639c0.27637,-0.15495 0.57833,-0.14055 0.57833,-0.14055c7.84058,0.39407 15.70717,-0.65505 23.56396,-0.2974c7.12663,0.34103 16.15627,1.94984 23.12973,0.24409c0.24986,-0.38558 0.75051,-0.43287 0.75051,-0.43287c2.81444,-0.26591 5.5509,-0.67282 8.36883,-0.93906l1.17652,-0.11116c0,0 0.18587,-0.01756 0.40296,0.04381c0.23035,-0.4521 0.79221,-0.50519 0.79221,-0.50519l1.08089,-0.09734c1.42689,-0.43304 3.13642,-0.68151 4.46497,-1.38118c0.89088,-0.46919 1.66489,-1.16155 2.35892,-1.97911l0.09746,-0.20442c-0.09364,-0.44788 0.22532,-0.83339 0.22532,-0.83339c0.6302,-0.76171 1.30015,-1.48218 1.88209,-2.25635c0.3948,-0.69412 0.77144,-1.39246 1.14312,-2.05981l-0.11201,-0.02594l0.31171,-1.34608c0.03154,-0.15051 0.09911,-0.29578 0.20395,-0.4225c0.34476,-0.41669 0.96204,-0.47502 1.37873,-0.13026c0.24999,0.20683 0.371,0.51173 0.35336,0.81258l-0.04926,1.03197l-0.06115,-0.00292l0.04658,0.13076c-0.23264,0.72967 -0.53903,1.38142 -0.89746,1.99029c-0.28677,0.69158 -0.75079,1.38922 -1.14016,1.97294c-0.23628,0.35421 -0.47713,0.689 -0.72305,1.00596c0.17025,0.48893 -0.19754,0.93348 -0.19754,0.93348c-0.46141,0.55384 -0.96626,1.07455 -1.50475,1.55555c-0.47605,0.63393 -1.00286,1.14969 -1.57104,1.57559c5.37925,0.52463 10.77728,1.66186 16.04612,1.83822c1.36201,0.1288 1.68974,-0.5906 2.2929,-1.71743c1.83214,-3.42284 0.03999,-5.23493 -0.47171,-8.86234l1.13699,-1.11786c0,0 0.76008,-0.61743 1.3775,0.14266z" fill="#1f1f1f"></path>
          <path d="M359.10744,256.2047c-0.97492,0.0921 -1.06701,-0.88281 -1.06701,-0.88281l-0.01303,-0.97974c1.19694,-3.68987 -0.198,-5.67427 -2.00351,-8.72558c-2.74509,-1.54392 -5.52559,-0.49543 -8.38686,-0.05248c-2.72248,0.42147 -5.30929,0.98489 -7.92783,1.44114c0.25675,0.16403 0.50998,0.3359 0.7591,0.51487c0.05181,0.02387 0.10356,0.04792 0.15524,0.07217c0,0 0.24256,0.11604 0.41267,0.35362c2.78079,2.17356 4.96216,5.20913 5.66758,8.01121l0.31598,0.00724c0,0 0.7545,0.62423 0.13026,1.37873l-0.00001,0.00001c-0.62423,0.7545 -1.37873,0.13026 -1.37873,0.13026l-0.97169,-1.05812c-0.22512,-0.99803 -0.71281,-2.06162 -1.3904,-3.10295c-0.0821,0.05263 -0.18034,0.09813 -0.29766,0.13334l-0.00001,0.00004c-0.93792,0.28152 -1.21943,-0.6564 -1.21943,-0.6564l-0.13843,-0.53425c-0.76135,-1.4099 -1.70429,-2.46831 -2.77866,-3.26582c-2.06012,-0.89842 -4.26774,-1.49598 -6.52092,-2.02882c-0.32696,0.05462 -0.64842,0.13743 -0.96258,0.25064c0,0 -0.92346,0.32581 -1.24927,-0.59766c-0.00983,-0.02784 -0.0185,-0.05514 -0.02611,-0.0819c-1.18253,-0.06697 -2.37727,-0.09519 -3.55471,-0.13787c-0.29033,0.23134 -0.6696,0.22509 -0.6696,0.22509l-1.28331,-0.02261c-4.5157,0.42664 -8.87131,1.92263 -13.42597,1.70523c-7.44093,-0.37404 -16.69304,-2.39188 -23.96362,-0.69361c-7.04412,-0.27754 -13.9592,0.64511 -20.95655,-0.40041c-0.24844,0.04894 -0.46201,-0.00051 -0.46201,-0.00051l-1.25381,-0.29704c-1.94969,0.01132 -3.7147,-0.07215 -5.67217,0.10681c-6.64423,-0.71966 -13.53776,-0.24725 -20.26489,-0.50964c-0.50676,1.27002 -2.00086,1.11528 -2.00086,1.11528l-1.39007,-0.14699c-11.30403,-0.53962 -23.83,-0.73893 -34.76556,-3.80047c0,0 -1.886,-0.52801 -1.35799,-2.414c0.52801,-1.886 2.414,-1.35799 2.414,-1.35799c10.65041,2.98171 22.8895,3.13448 33.8963,3.6599l1.6068,0.16337c0,0 0.94472,0.09784 1.45026,0.81513c6.78496,0.28697 13.70265,-0.14912 20.42083,0.51692c2.02219,-0.1981 3.86562,-0.09178 5.88225,-0.09457l1.34125,0.30448c0.19793,-0.03515 0.35578,-0.01116 0.35578,-0.01116c6.89397,1.04738 13.63931,-0.00544 20.57223,0.40102c7.28952,-1.81215 16.75497,0.34638 24.24121,0.68714c4.47452,0.21357 8.81138,-1.28601 13.25649,-1.70598l0.36818,0.00566c0.30332,-0.27009 0.73213,-0.24961 0.73213,-0.24961c0.96049,0.04584 1.92648,0.08028 2.88794,0.12453l0.92333,-0.23606c0.5837,0.13515 1.1665,0.26828 1.74738,0.40261c0.74219,0.06362 1.47577,0.1455 2.19585,0.25592c1.02686,0.00962 2.06602,0.20315 3.08785,0.54356c6.46896,-1.03008 15.01506,-4.69512 20.81151,-1.27572c2.3362,3.59809 3.90971,6.31845 2.50556,10.73103l0.09811,0.19678c0,0 0.0921,0.97492 -0.88281,1.06701z" fill="#1f1f1f"></path>
          <path d="M340.3806,240.85905c-5.61307,-1.41882 0.11867,-8.2847 4.29353,-6.46875c2.57709,1.12097 2.67621,5.30661 0.34305,6.77197c-1.14073,0.71646 -2.7171,0.33171 -3.92868,0.14892zM340.61692,238.95186c0.20738,-0.02376 0.39696,0.0352 0.53491,0.10024c0.14849,0.063 0.33035,0.17367 0.45133,0.36244c0.66334,0.13031 1.83634,0.41784 2.37725,0.08614c0.90978,-0.55789 1.13368,-2.83668 -0.01352,-3.28403c-1.91267,-0.74583 -5.31502,2.42558 -3.34997,2.7352z" fill="#343434"></path>
          <g>
            <path d="M350.00594,246.32782c-0.03359,-0.02281 -0.06748,-0.04826 -0.10164,-0.07652c-0.7545,-0.62423 -0.13026,-1.37873 -0.13026,-1.37873l0.8915,-0.91536c1.39427,-0.61128 2.36209,-0.93199 3.60589,-1.03063c-1.38498,-0.80696 -2.42219,-1.98894 -2.44849,-3.195c-0.32491,-0.26065 -0.36668,-0.70267 -0.36668,-0.70267l0.11192,-0.89749c1.35602,-2.1732 2.6884,-2.96473 5.1302,-3.54646c4.55918,-0.35695 7.55004,6.0576 3.27205,8.82228c-0.82662,0.53422 -1.90855,0.65481 -3.01269,0.48518c0.17922,0.19322 0.34077,0.39881 0.48496,0.61423c2.47767,1.09521 1.86295,4.93584 -0.10717,6.38075c-0.0297,0.02179 -0.05962,0.04268 -0.08973,0.06269c-0.92339,1.10766 -2.40112,1.69858 -4.36446,1.17837c-3.51573,-0.93154 -4.47744,-3.80906 -2.87538,-5.80063zM352.63499,247.85792c0.44608,0.00785 0.75186,0.38428 0.75186,0.38428l0.46419,0.63582c0.39459,0.10555 1.53143,0.63847 2.08709,0.54607c0.60146,-0.84573 0.76929,-2.11196 0.4158,-3.15384c-1.06618,0.03074 -3.35697,0.81454 -3.71894,1.58766zM354.50654,239.40877c0.00064,-0.00019 0.00126,-0.00038 0.0019,-0.00058c0.93792,-0.28152 1.21943,0.65639 1.21943,0.65639l-0.38148,0.0638c0.0063,0.00861 0.01254,0.01738 0.0187,0.02633c0.76741,0.25932 2.07583,0.91271 2.8691,0.56144c0.98499,-0.43617 1.8988,-2.44433 0.64684,-3.05802c-1.41896,-0.69554 -4.64507,0.83874 -4.37448,1.75061z" fill="#343434"></path>
            <path d="M352.57006,247.86463c0.36197,-0.77311 2.76186,-1.61171 3.82804,-1.64246c0.35349,1.04189 0.16786,2.41591 -0.43361,3.26164c-0.55566,0.09239 -1.76507,-0.45416 -2.15967,-0.55969l-0.47924,-0.65936c0,0 -0.30945,-0.39226 -0.75553,-0.40012z" fill="#888888"></path>
            <path d="M354.44209,239.41893c-0.27058,-0.91187 3.07092,-2.49718 4.48989,-1.80164c1.25197,0.61369 0.31975,2.71931 -0.66524,3.15547c-0.79327,0.35126 -2.18947,-0.32396 -2.95688,-0.58328c-0.00615,-0.00895 0.09862,-0.08645 0.09232,-0.09505l0.27276,0.00832c0,0 -0.29305,-0.96591 -1.23096,-0.68439c-0.00064,0.0002 0.1277,-0.01997 0.12706,-0.01978z" fill="#888888"></path>
            <path d="M342.38198,250.78436c-0.25602,0.07955 -0.49098,0.04384 -0.49098,0.04384c-5.11123,-1.06688 -1.57253,-7.76215 2.52027,-7.35649c6.22185,0.61668 6.26937,9.1456 -0.51116,8.20532l-1.05251,-0.4565c0,0 -0.29869,-0.1429 -0.46561,-0.43618zM342.92694,249.39779c0.38247,-0.12741 0.76586,0.05599 0.76586,0.05599l0.50149,0.28694c4.19568,0.71379 3.71695,-3.90918 0.08648,-4.31487c-1.76039,-0.19672 -4.50732,3.36837 -2.09559,3.46605c0,0 0.52292,0.07945 0.74176,0.50589z" fill="#343434"></path>
            <path d="M342.12567,248.91876c-2.41172,-0.09768 0.39185,-3.75485 2.15225,-3.55813c3.63046,0.40569 4.10519,5.15881 -0.09049,4.44502l-0.52128,-0.29227c0,0 -0.40231,-0.19625 -0.78477,-0.06884c-0.21884,-0.42643 -0.7557,-0.52579 -0.7557,-0.52579z" fill="#888888"></path>
            <path d="M339.79495,238.04549c0.58837,0.37606 0.35471,1.10372 0.35471,1.10372c-1.06405,2.00303 3.23282,1.8939 4.28337,1.06414c3.09125,-2.44162 -0.7747,-5.88092 -3.82895,-3.46983c-0.14901,0.28686 -0.29802,0.57373 -0.44704,0.86058zM338.24222,238.74624c-0.06141,-0.03429 -0.12404,-0.0771 -0.1876,-0.12968c-0.7545,-0.62423 -0.13026,-1.37873 -0.13026,-1.37873l0.608,-0.7274c0.18758,-0.33845 0.37515,-0.67692 0.56273,-1.01537c1.37655,-1.13532 3.28452,-2.29752 5.18404,-1.75174c3.43411,0.98672 4.02717,5.81618 1.39958,7.98134c-2.75904,2.27349 -8.21362,1.00509 -7.4365,-2.97843z" fill="#343434"></path>
            <path d="M340.09589,237.58133c0.14901,-0.28686 0.31062,-0.59455 0.45963,-0.88142c3.05425,-2.4111 7.01693,1.11589 3.92569,3.55751c-1.05055,0.82977 -5.4586,0.91183 -4.39455,-1.0912c0,0 0.23226,-0.75523 -0.35611,-1.13129z" fill="#888888"></path>
            <path d="M345.40437,239.71874c-0.88337,-0.4226 -0.46076,-1.30598 -0.46076,-1.30598l0.16747,-0.21786c0.06956,-0.55149 0.01475,-1.13148 -0.15685,-1.66018c0,0 -0.28151,-0.93792 0.6564,-1.21943c0.93792,-0.28151 1.21943,0.6564 1.21943,0.6564c0.22144,0.78114 0.30033,1.61617 0.22911,2.42496l-0.34882,0.86132c0,0 -0.4226,0.88337 -1.30598,0.46076z" fill="#343434"></path>
          </g>
        </g>
      </g>
      <g stroke-width="0.5">
        <path d="M200.32903,256.42336l0.23401,-0.36226c1.17902,-1.85305 2.2013,-3.9066 2.45217,-6.08856c0.02031,-0.17662 0.13057,-0.32238 0.14095,-0.49751c0.13811,0.18929 0.75439,0.93561 1.67754,0.59876c3.30748,2.33329 5.63817,6.03096 3.12685,9.64968c-4.02411,5.79861 -12.32011,8.5145 -18.57778,10.9708c-7.74141,0.92845 -12.13559,-2.60125 -15.51628,-9.0836c-0.64236,-1.23172 -1.5996,-2.46393 -1.6103,-3.85305c-0.02644,-3.43375 3.59265,-5.79453 3.71612,-9.27682c0.07179,-2.02487 -1.53985,-4.75804 -2.79432,-6.63723c2.01896,-1.81021 3.79781,-4.59782 5.68326,-5.98199c4.21732,-3.09608 9.68788,-6.66744 14.37614,-9.07354c1.80667,-0.92722 3.06778,-0.7243 4.4633,-2.35921c1.59942,-0.19321 3.24457,0.16598 4.84431,-0.02977c0.80759,-0.09882 2.75475,-1.28476 3.85181,-1.0988c6.41855,1.088 6.46471,10.52397 2.59026,14.46794c-0.80755,-1.09293 -2.07788,-0.29176 -2.07788,-0.29176l-0.39021,0.25435c-1.02538,0.65678 -2.15476,1.24832 -3.22264,1.76497c1.85932,-2.05315 3.24562,-3.47647 3.8868,-6.19198c0,0 0.32719,-1.46089 -1.13747,-1.78457c-1.46466,-0.32369 -1.71968,1.06829 -1.71968,1.06829c-0.4145,2.07734 -1.67583,3.20428 -3.08981,4.7334c-0.10135,-0.29077 -0.24918,-0.54405 -0.4949,-0.73092c-0.00143,-0.00108 -0.00285,-0.00217 -0.00429,-0.00325c-0.03163,-0.0497 -0.06313,-0.09943 -0.09548,-0.15013l-0.12201,-0.03477l0.05589,-0.04807l-1.28773,-1.5011c-0.20496,-0.24384 -0.48585,-0.42274 -0.82091,-0.49679c-0.80891,-0.17877 -1.5644,0.24295 -1.74317,1.05185c-0.10724,0.48527 0.03723,0.96937 0.34183,1.31623l1.12421,1.30521c-0.11698,0.57799 0.39549,1.1376 0.58104,1.70405l0.02686,1.4332c0,0 0.02663,0.82364 0.6411,1.23501c0.05088,0.30944 0.1992,0.672 0.5684,0.91794c-0.45899,4.01376 0.66087,7.31571 -1.89909,11.18881l-0.23675,0.36441c0,0 -0.86947,1.17524 0.38968,1.99043c1.25916,0.81518 2.0682,-0.43962 2.0682,-0.43962z" fill="#b7b7b7"></path>
        <path d="M194.62847,219.38383c1.54396,2.91404 -5.84309,5.25856 -7.8922,6.69407c-3.33212,2.33432 -7.24604,4.1339 -10.5017,6.51541c-4.18029,3.05788 -6.62304,10.05692 -11.44606,4.01588c-0.45735,-0.57285 -0.84171,-1.20782 -1.26097,-1.80911c0,0 -0.04115,-0.05886 -0.11869,-0.14681c4.71319,-10.07224 15.39158,-15.55027 24.5129,-21.26525c0.74324,0.49001 1.43738,0.36496 1.92907,0.12858c1.82625,1.79091 3.29586,3.54118 4.77764,5.86722z" fill="#b7b7b7"></path>
        <path d="M186.92761,253.89252c0.38169,1.45062 -1.06893,1.83231 -1.06893,1.83231l-1.01828,0.2664c-2.5432,0.7869 -4.82775,1.90635 -7.34415,2.75232c0,0 -1.42247,0.47601 -1.89848,-0.94647c-0.47601,-1.42247 0.94647,-1.89848 0.94647,-1.89848c2.53717,-0.84474 4.84021,-1.96985 7.40489,-2.77193l1.14617,-0.30311c0,0 1.45062,-0.38169 1.83231,1.06894z" fill="#6b6b6b"></path>
        <path d="M194.78425,253.59586c0.36549,1.45479 -1.0893,1.82027 -1.0893,1.82027l-0.42618,0.02771c-2.83321,1.78383 -6.24652,3.21962 -9.43704,4.29022c0,0 -1.42247,0.47601 -1.89848,-0.94646c-0.47601,-1.42247 0.94647,-1.89848 0.94647,-1.89848c2.9396,-0.98081 6.19493,-2.30093 8.7755,-3.9744l1.30875,-0.40817c0,0 1.4548,-0.36549 1.82028,1.08931z" fill="#6b6b6b"></path>
        <path d="M198.28659,256.90582c-1.25916,-0.81518 -0.44398,-2.07434 -0.44398,-2.07434l0.23518,-0.36328c2.55996,-3.87309 1.42297,-7.11863 1.88196,-11.13239c-0.36921,-0.24595 -0.5151,-0.60278 -0.56599,-0.91222c-0.61447,-0.41136 -0.63691,-1.22804 -0.63691,-1.22804l-0.02291,-1.42838c-0.18554,-0.56645 -0.69213,-1.12065 -0.57516,-1.69865l-1.11768,-1.30089c-0.30459,-0.34685 -0.44553,-0.82917 -0.33828,-1.31445c0.17877,-0.80891 0.97944,-1.31974 1.78835,-1.14097c0.33506,0.07405 0.61898,0.25479 0.82394,0.49864l1.29349,1.50551l-0.05592,0.04805l0.12235,0.03507c0.03235,0.05071 0.06435,0.10088 0.09597,0.15058c0.00143,0.00108 0.00286,0.00218 0.0043,0.00326c0.24572,0.18687 0.39591,0.44249 0.49728,0.73325c1.41397,-1.52911 2.60506,-2.58498 3.01954,-4.66232c0,0 0.32369,-1.46466 1.78835,-1.14097c1.46466,0.32369 1.14097,1.78835 1.14097,1.78835c-0.64118,2.71552 -2.02259,4.14578 -3.88191,6.19894c1.06789,-0.51666 2.11071,-1.05812 3.13609,-1.7149l0.47687,-0.30424c0,0 1.18212,-0.7542 1.98967,0.33874c3.87443,-3.94397 3.84632,-13.35977 -2.57224,-14.44776c-1.09706,-0.18596 -3.03944,1.00267 -3.84703,1.10148c-1.59974,0.19575 -3.23585,-0.16003 -4.83526,0.03318c-1.39552,1.63491 -2.64722,1.43359 -4.45389,2.36081c-4.68825,2.40609 -10.11606,5.95871 -14.33338,9.05479c-1.88544,1.38417 -3.65473,4.15197 -5.67368,5.96218c1.25447,1.87919 2.86689,4.59385 2.7951,6.61872c-0.12347,3.48229 -3.74901,5.82481 -3.72257,9.25856c0.01069,1.38912 0.96283,2.61421 1.60519,3.84593c3.38068,6.48236 7.74191,9.9949 15.48332,9.06644c6.25767,-2.4563 14.51041,-5.1546 18.53453,-10.95321c2.51132,-3.61872 0.17103,-7.29859 -3.13645,-9.63188c-0.92315,0.33686 -1.53954,-0.4091 -1.67765,-0.59839c-0.01038,0.17513 -0.0253,0.35095 -0.0456,0.52758c-0.25087,2.18195 -1.2874,4.25692 -2.46642,6.10995l-0.23518,0.36328c0,0 -0.81518,1.25916 -2.07434,0.44397zM201.95223,220.21969c1.71008,-0.20682 3.34649,-1.34247 5.05081,-1.09258c10.05429,1.47424 10.56145,14.15746 5.56332,20.66433c-1.94367,2.53039 -4.98449,3.71498 -7.68546,5.38324c6.19962,3.20948 10.93964,10.0905 6.60653,16.85322c-4.34152,6.77583 -13.9212,10.06353 -21.07149,12.75337c-9.6944,1.19122 -16.02428,-2.90014 -20.32189,-11.29245c-0.92159,-1.79969 -2.04267,-3.68446 -2.05713,-5.70635c-0.02742,-3.83456 3.56957,-6.0832 3.72378,-9.42219c0.0571,-1.23638 -1.66552,-3.60212 -2.45517,-4.70078c-4.13133,0.30991 -7.10024,-3.41692 -9.22499,-6.43722c0,0 -0.40704,-0.58103 -0.41623,-1.30749c-1.02825,-0.955 -0.39526,-2.37511 -0.39526,-2.37511c4.14871,-9.11737 14.18305,-16.80668 22.53294,-22.04425c2.48648,-1.55967 5.11505,-2.38063 7.47486,-4.06087l1.25207,1.85052l0.7551,-0.20907c2.91429,2.6666 5.0021,5.0598 7.10938,8.41788c0.40566,1.22366 0.78778,2.0257 0.96281,2.73549c0.86821,0.04175 1.73704,0.09423 2.59604,-0.00966zM189.81926,213.55534c-0.49169,0.23639 -1.18174,0.36444 -1.92498,-0.12557c-9.12132,5.71498 -19.72782,11.12819 -24.44102,21.20043c0.07754,0.08794 0.11845,0.14636 0.11845,0.14636c0.41925,0.6013 0.80039,1.23103 1.25774,1.80388c4.82302,6.04103 7.24735,-0.9739 11.42765,-4.03178c3.25565,-2.38151 7.09714,-4.13463 10.42926,-6.46895c2.04911,-1.43551 9.44064,-3.76107 7.89667,-6.67511c-1.48177,-2.32604 -2.93751,-4.05834 -4.76377,-5.84924z" fill="#6b6b6b"></path>
      </g>
      <g stroke-width="0.5">
        <path d="M285.68908,262.7662c-1.10709,-1.5694 -2.53128,-2.48926 -3.2525,-4.38364c-0.23949,-0.62904 -0.38659,-1.28765 -0.53556,-1.94594c-0.32401,0.19744 -0.72862,0.40047 -1.30508,0.65693v-0.00001c-0.68252,0.30364 -1.3785,0.63677 -2.12015,0.72613c-0.27941,0.03366 -0.69136,-0.65423 -0.75399,-0.37986c-0.06623,0.29016 0.53676,0.2934 0.72024,0.52775c0.75634,0.96601 1.26373,2.1045 1.94776,3.123c2.58441,3.8481 5.33915,6.25134 8.74419,9.23364c1.60886,1.40912 2.28671,2.16872 4.46975,2.59706c1.04913,-0.65436 2.15021,-1.07251 3.24457,-1.5669c-4.29201,-2.03629 -8.49167,-4.80668 -11.15922,-8.58817zM294.0139,277.175l-1.00863,-0.30201c-7.87719,-1.06752 -12.87808,-6.40659 -16.92638,-12.95913c-1.41547,-2.29108 -4.19706,-5.1123 -2.33483,-8.08886c0.1176,-0.18797 0.2723,-0.33938 0.44905,-0.46904c0.08173,-0.30954 0.22691,-0.52249 0.22691,-0.52249l1.18578,-0.95941c1.03296,-0.19549 2.06698,-0.38569 3.10246,-0.56742c1.81828,-0.9735 1.14458,-1.54604 2.30629,-3.17557c1.05694,-1.48255 3.35447,-2.65383 4.9856,-3.36487c2.72803,-1.18922 6.31104,-1.02256 8.86735,-2.49463c0.50635,-0.29159 0.79991,-0.89179 1.3255,-1.14705c1.35664,-0.65887 1.82636,0.04021 2.87983,-0.94812c3.04522,-2.85694 1.34387,-7.47101 2.68253,-11.08739c2.18799,-3.25335 4.35142,-5.62704 7.98718,-6.97268c1.27217,-0.47085 2.51172,-1.35392 3.86573,-1.27164c2.61742,0.15906 5.23932,2.04052 6.42087,4.42265c3.05157,-1.44013 7.26291,-1.60186 9.59926,0.98643c1.07881,1.19515 1.56687,2.77127 1.86718,4.34965c2.51102,-0.77199 4.75044,-0.38533 7.17486,2.30429l0.62539,1.04789c0,0 0.48061,0.86161 -0.0365,1.57707c0.1595,0.56716 0.19204,1.16913 0.05984,1.78841c-0.3263,1.52848 -1.70351,2.4256 -2.98678,3.38909c0.3239,0.7197 -0.17129,1.44607 -0.17129,1.44607c-2.67166,3.66187 1.81085,4.06677 2.6594,7.17442c0.37405,1.36984 -0.37796,3.03151 -0.8383,4.27716c-2.04784,5.54122 -7.20953,9.93492 -12.22802,12.76441c-4.92412,2.74659 -9.51593,5.20272 -14.94927,6.64595c-2.22575,0.59122 -3.71887,0.16813 -5.82571,-0.13306c-2.9851,-0.42673 -5.34239,0.6808 -7.82696,2.06664l-1.56341,0.37423c0,0 -0.48139,0.09111 -0.946,-0.10594c-0.34859,0.03454 -0.62889,-0.04504 -0.62889,-0.04504zM331.6248,237.11004c-0.03565,-0.00259 -0.07125,-0.00541 -0.10683,-0.00848l0.00077,0.01705l-0.23481,0.01061c-1.13346,0.60049 -2.36383,1.70449 -3.1019,2.51992c-0.1077,1.39834 -0.22894,2.79662 -0.31053,4.21531c-0.33125,4.61737 3.93127,6.73581 4.10379,10.90002c0.01751,0.42275 0.00946,0.82503 -0.02206,1.20887c0.05908,-0.12795 0.11307,-0.25811 0.16166,-0.39056c0.13183,-1.01465 0.55882,-2.02078 0.44315,-3.0374c-0.29103,-2.55777 -2.41207,-4.49169 -2.48568,-7.12147c-0.03188,-1.13902 0.42708,-3.23503 1.07108,-4.20416c0.42666,-0.64207 2.84893,-1.86322 2.77378,-2.91415c-0.05056,-0.70694 -0.2475,-1.14701 -0.54295,-1.38465c-0.66182,0.10215 -1.29725,0.22183 -1.74946,0.1891zM312.27948,236.2768c-0.43437,-0.77878 -0.14755,-1.35281 0.1565,-1.6903c0.21854,-1.24839 0.58826,-2.51309 1.39346,-3.45555c0.57015,-0.66734 1.39081,-0.56168 1.12504,-1.6004c-1.16681,-4.56028 -6.77227,0.39402 -7.95252,2.00881c-1.89842,2.59737 0.27549,7.27482 -0.71777,10.20488c0,0 -0.03152,0.08545 -0.10008,0.20648c0.15941,0.8619 0.06457,1.72937 -0.95046,2.78162c-1.02886,1.0666 -2.71847,1.21897 -3.94348,2.05294l-2.39722,1.33857c0,0 -0.25532,0.14242 -0.6034,0.18877c-1.52353,1.30391 -2.85978,2.1239 -4.97081,2.37999c-2.75896,0.33469 -6.65317,-0.94248 -7.67449,2.1544l-0.04306,0.07188c2.55099,7.34397 8.35445,12.12389 15.00729,15.54563c1.49248,0.76763 3.06846,1.64878 4.86427,1.6659c1.79171,0.01708 3.74624,-0.72845 5.58666,-0.80062c5.15501,-1.79399 8.55116,-4.17047 12.86421,-7.44875c2.70974,-2.05963 4.99676,-3.10164 5.05268,-7.03811c0.02104,-1.4814 -1.74846,-2.78573 -2.42237,-3.9912c-1.39534,-2.49595 -1.81048,-4.34737 -1.67742,-7.16102c0.06758,-1.15587 0.15274,-2.30326 0.23755,-3.44831c-0.52124,-0.77577 0.06533,-1.63619 0.06533,-1.63619c0.01957,-0.02845 0.0395,-0.05705 0.05978,-0.08581c0.06238,-0.89247 0.11908,-1.78539 0.16161,-2.68171c0.05119,-1.07889 0.78425,-2.05671 0.81401,-3.1364c0.0685,-2.48509 -4.60732,-0.21998 -5.28166,0.25021c-3.46759,2.41781 -4.32239,8.19336 -3.06473,12.26295c0.51091,0.62461 1.00825,1.25271 1.26245,1.99385l0.05142,0.01633c0,0 1.23939,0.84493 0.39447,2.08432c-0.30686,0.45011 -0.66574,0.62532 -0.99839,0.66593c-0.35893,0.32957 -0.79816,0.61296 -1.15931,0.9135c-1.84862,1.5384 -4.1648,2.70954 -6.17621,4.06372c0,0 -1.2448,0.83694 -2.08174,-0.40787c-0.83694,-1.2448 0.40787,-2.08174 0.40787,-2.08174c1.55631,-1.04506 3.03576,-2.08152 4.54927,-3.14762c0.53873,-0.37948 1.54034,-0.35094 1.99142,-0.73607l-0.07383,-0.06004c-0.39171,-0.7183 -0.71715,-1.5018 -0.974,-2.3291c-0.58947,-0.76981 -1.17961,-1.50477 -1.2648,-1.69717c-1.00533,-2.27034 -1.72623,-5.04589 -1.74752,-7.72883c0.13252,-0.07808 0.26539,-0.15557 0.39861,-0.23245c-0.0588,-0.07498 -0.11526,-0.15977 -0.16862,-0.25544z" fill="#6b6b6b"></path>
        <path d="M331.95532,256.02328c0.03151,-0.38385 0.03996,-0.78614 0.02245,-1.20888c-0.17253,-4.16421 -4.48234,-6.35473 -4.15109,-10.9721c0.08159,-1.41869 0.22337,-2.83854 0.33108,-4.23687c1.59377,-1.76084 5.52293,-4.87116 5.7749,-1.34739c0.07515,1.05094 -2.35825,2.36945 -2.78492,3.01152c-0.644,0.96912 -1.05795,3.02368 -1.02607,4.1627c0.0736,2.62978 2.13794,4.50589 2.42897,7.06366c0.11568,1.01663 -0.30093,2.12211 -0.43277,3.13677c-0.04859,0.13245 -0.10347,0.26265 -0.16256,0.39061z" fill="#b7b7b7"></path>
        <path d="M283.26615,255.21241c2.90881,6.97862 8.5608,11.95219 15.10158,15.46879l-0.15638,0.0421c-1.51594,0.85283 -3.10707,1.32097 -4.58062,2.24005c-2.18304,-0.42834 -2.8786,-1.18088 -4.48746,-2.59c-3.40504,-2.9823 -6.21548,-5.45329 -8.7999,-9.30139c-0.68403,-1.01849 -1.187,-2.16554 -1.94333,-3.13155c-0.18348,-0.23435 -0.78636,-0.23775 -0.72013,-0.52792c0.06263,-0.27437 0.47482,0.41317 0.75423,0.37951c0.74164,-0.08936 1.4431,-0.42934 2.12561,-0.73298c1.54806,-0.68872 1.86957,-1.00175 2.70637,-1.8466z" fill="#b7b7b7"></path>
        <path d="M312.63293,236.47265c-0.19704,0.11257 -0.3846,0.12691 -0.58015,0.24213c0.02128,2.68293 0.76357,5.46488 1.76889,7.73522c0.0852,0.1924 0.69098,0.94125 1.28045,1.71105c0.25686,0.82731 0.59177,1.63552 0.98348,2.35381l0.07389,0.06073c-0.45108,0.38512 -1.45282,0.36643 -1.99155,0.7459c-1.51352,1.06611 -3.06445,2.14195 -4.62075,3.18701c0,0 -1.20541,0.74514 -0.36846,1.98995c0.83694,1.2448 2.0642,0.40466 2.0642,0.40466c2.01141,-1.35419 4.27973,-2.49002 6.12835,-4.02842c0.36114,-0.30054 0.79862,-0.57588 1.15755,-0.90545c0.33264,-0.0406 0.69112,-0.21106 0.99798,-0.66118c0.84493,-1.23939 -0.39331,-2.07155 -0.39331,-2.07155l-0.05138,-0.01616c-0.2542,-0.74114 -0.74619,-1.3555 -1.2571,-1.98011c-1.25766,-4.06959 -0.33359,-9.91272 3.134,-12.33053c0.67434,-0.47019 5.35815,-2.72931 5.28965,-0.24422c-0.02976,1.07969 -0.76003,2.06028 -0.81122,3.13917c-0.04254,0.89632 -0.09583,1.79334 -0.1582,2.68581c-0.02028,0.02875 -0.04015,0.05742 -0.05972,0.08587c0,0 -0.58437,0.86362 -0.06313,1.63939c-0.08482,1.14506 -0.16566,2.301 -0.23324,3.45687c-0.13307,2.81366 0.28511,4.68922 1.68045,7.18518c0.67391,1.20547 2.44126,2.51943 2.42022,4.00084c-0.05592,3.93647 -2.35538,4.99846 -5.06512,7.05809c-4.31304,3.27828 -7.74472,5.6691 -12.89973,7.46309c-1.84043,0.07216 -3.80766,0.81593 -5.59937,0.79885c-1.79581,-0.01712 -3.38259,-0.90264 -4.87506,-1.67026c-6.65284,-3.42174 -12.48175,-8.23798 -15.03274,-15.58195l0.04304,-0.07199c1.02132,-3.09688 4.9152,-1.82244 7.67416,-2.15713c2.11102,-0.25608 3.44712,-1.08341 4.97065,-2.38732c0.34808,-0.04635 0.60347,-0.18966 0.60347,-0.18966l2.39828,-1.34589c1.22501,-0.83397 2.92262,-1.00442 3.95148,-2.07101c1.01503,-1.05226 1.12149,-1.93142 0.96208,-2.79332c0.06856,-0.12103 0.10102,-0.20714 0.10102,-0.20714c0.99327,-2.93006 -1.16422,-7.61484 0.7342,-10.21221c1.18026,-1.6148 6.80688,-6.56962 7.97369,-2.00935c0.26577,1.03872 -0.57141,1.03166 -1.14154,1.69901c-0.96774,1.13272 -1.3032,2.73126 -1.50642,4.20716c0.10621,0.36174 0.21084,0.72333 0.31705,1.08507z" fill="#b7b7b7"></path>
      </g>
    </g>
  </g>
</svg>
