<?xml version="1.0" encoding="UTF-8"?>
<svg xmlns="http://www.w3.org/2000/svg" xmlns:xlink="http://www.w3.org/1999/xlink" version="1.1" width="321.19994" height="336.77921" viewBox="0,0,321.19994,336.77921">
  <g transform="translate(-79.40002,-11.61039)">
    <g stroke="none" stroke-miterlimit="10">
      <path d="M88.31564,328.61039c0,0 16,-20.5985 16,-32.10001c0,-24.14805 -6.06414,4.50221 -10.04872,-44.1924c-0.59522,-7.27412 3.74438,-65.15844 3.01263,-73.75344c-0.23731,-2.78745 -17.45194,-68.53772 -17.64152,-71.24481c-1.94572,-27.78276 8.67761,-71.70934 8.67761,-71.70934c0,0 -12.60264,-21.46011 8.4239,-20.44654c5.86827,0.28288 21.73281,18.2132 32.25081,17.57214c19.88693,-1.21209 85.77117,-14.42446 107.91596,-15.43106c14.92427,-0.67839 40.54072,1.62046 54.14997,0.91386c29.89262,-1.55204 65.36001,-6.60839 73.85938,-6.60839c6.34357,0 25.39999,15 25.39999,15c0,0 -4.30426,16.55744 -1.677,49.84293c2.20947,27.99243 11.3705,71.03601 11.83896,94.14703c0.97157,47.9307 -4.16196,152.01005 -4.16196,152.01005c0,0 6.8751,16.10871 -32.52064,19.49727c-5.19656,0.44698 -28.0068,-7.08378 -34.50223,-6.59417c-5.41818,0.40841 -27.16192,3.80264 -33.24331,4.17608c-4.59181,0.28197 -30.28214,8.51628 -35.06363,8.69531c-8.42783,0.31554 -43.80911,-15.34526 -52.03061,-14.98105c-9.93324,0.44004 -39.34412,6.82986 -47.9634,7.15102c-2.72426,0.1015 -17.35563,-9.79234 -19.88468,-9.68134c-10.6975,0.46953 -30.35234,15.73688 -36.1915,15.73688c-17.79261,0 -16.6,-18 -16.6,-18z" fill="#d6d6d6" stroke-width="0"></path>
      <path d="M114.91564,303.51038l-11,-15c0,0 12.57555,13.59144 33.19615,18.10359c30.25914,6.62123 74.38191,5.22504 93.09351,7.37227c14.12883,1.62134 55.71035,9.52414 55.71035,9.52414l65,-5c0,0 -60.0161,13.57931 -88.76511,11.92299c-10.7767,-0.62088 -41.27907,-11.44 -57.09454,-13.84571c-8.9022,-1.35412 -54.71337,6.39113 -63.18379,5.2433c-39.11052,-5.29991 -26.95656,-18.32058 -26.95656,-18.32058z" fill="#9e9e9e" stroke-width="0"></path>
      <path d="M121.8722,32.25287c8.47042,-1.14784 54.2816,6.59742 63.18379,5.2433c15.81547,-2.4057 46.31783,-13.22483 57.09454,-13.84571c28.74901,-1.65632 88.76511,11.923 88.76511,11.923l-65,-5c0,0 -41.58152,7.9028 -55.71035,9.52414c-18.71159,2.14723 -62.83437,0.75104 -93.0935,7.37226c-20.6206,4.51215 -33.19615,18.10359 -33.19615,18.10359l11,-15c0,0 -12.15397,-13.02067 26.95656,-18.32058z" fill="#9e9e9e" stroke-width="0"></path>
      <path d="M139.36392,106.018c-1.118,-2.23609 1.11808,-3.35408 1.11808,-3.35408l0.5743,0.14987c0.81502,-1.35626 1.64831,-2.67298 2.51104,-3.95477c-2.26871,-1.21364 -4.56207,-2.38791 -6.66734,-3.959c0,0 -2.00001,-1.49999 -0.50001,-3.5c1.5,-2.00001 3.5,-0.50001 3.5,-0.50001c2.07753,1.56683 4.32977,2.73627 6.57062,3.9342c1.64079,-2.11741 3.40815,-4.14324 5.36163,-6.10196c0,0 1.76777,-1.76776 3.53553,0c1.76776,1.76776 0,3.53553 0,3.53553c-1.64304,1.63829 -3.14088,3.33102 -4.53659,5.09282c0.36197,0.23968 0.72012,0.48815 1.07356,0.74748c1.72683,1.267 3.28815,2.81728 5.21331,3.75588l0.48194,-0.26394c0,0 2.5,0 2.5,2.5c0,0.84426 -0.28512,1.40342 -0.66277,1.77374c3.8314,-0.38285 7.68665,-0.59382 11.45735,-1.05503c4.10154,-0.50168 7.9043,-2.73349 12,-3.19998c2.64953,-0.30178 5.35029,0.30027 7.99999,0.00001c4.06012,-0.46009 7.95915,-1.98776 12.00001,-2.4c0.7767,-0.07924 1.59018,0.53871 2.32577,0.27707c0.43968,-0.15639 0.37152,-0.8567 0.53389,-1.29421c1.12602,-3.0342 0.33209,-5.48665 -0.24938,-8.65693c1.76663,-5.64752 -0.79794,-11.22399 -0.77253,-17.04419l-0.69079,-1.97207c-6.64715,1.44904 -13.48648,0.94029 -20.05092,3.14328c-8.38872,2.77952 -17.41691,3.1672 -25.86599,5.69499c-4.78157,1.43054 -9.44163,3.38583 -14.2628,4.74415c-8.6699,2.44267 -18.72991,2.63363 -26.75376,7.05684c-2.78727,1.53651 -5.09454,3.83539 -7.82179,5.47607c0,0 -0.37762,0.22657 -0.91098,0.33104c0.06892,0.0846 0.10482,0.13845 0.10482,0.13845c0.63755,1.02076 1.56733,1.90939 1.91265,3.0623c0.34623,1.15596 -0.06435,2.42205 0.08855,3.61903c0.27863,2.18126 1.33334,4.21724 1.59998,6.4c0.15008,1.22862 -0.91654,3.46472 0.2984,3.70127c4.68143,0.91148 9.16829,-2.0277 13.61986,-2.66352c2.71355,-0.38758 5.48893,0.16689 8.22323,-0.02599c5.39704,-0.38073 11.15529,-2.19896 16.2783,-3.90659c1.58156,-0.38774 3.18274,-0.68479 4.79527,-0.9234l-0.41434,-0.04024c-2.19704,-1.1206 -4.05853,-2.80509 -6.03893,-4.27503c-0.31454,-0.23346 -0.63346,-0.45818 -0.95605,-0.67564c-0.87659,1.29381 -1.71959,2.62581 -2.54323,4.00083l-2.62578,1.74985c0,0 -2.23609,1.118 -3.35408,-1.11809zM208.77169,68.9094l0.89607,2.79012c0.02463,5.98754 2.89819,12.3797 0.82744,18.15583c0.93083,4.2256 1.95161,11.31722 -2.91557,14.04885c-1.18702,0.6662 -2.727,0.08205 -4.07414,0.27708c-4.06753,0.58885 -7.89325,1.952 -11.99999,2.4c-2.65095,0.28919 -5.34868,-0.2856 -8.00001,0c-4.06748,0.43815 -7.90788,2.67817 -11.99999,3.19998c-6.42882,0.81978 -13.27148,0.69594 -19.60649,2.31905c-5.4687,1.82285 -11.56872,3.66593 -17.32179,4.09342c-2.58515,0.19209 -5.21057,-0.39267 -7.77677,-0.02599c-4.10477,0.58652 -7.29935,2.56136 -11.6004,2.43227c-1.72858,-0.05188 -3.64684,0.50495 -5.17964,-0.29581c-3.87261,-2.0231 -2.50881,-4.42324 -2.90167,-7.49874c-0.27863,-2.18126 -1.33334,-4.21723 -1.59998,-6.39999c-0.18896,-1.54685 -0.2712,-3.26655 -1.19888,-4.51869c0,0 -1.38677,-2.08011 0.69334,-3.46689c0.34525,-0.23017 0.67139,-0.36484 0.97527,-0.42936c-0.04496,-0.06436 -0.08906,-0.1324 -0.13219,-0.2043c-1.28624,-2.14374 0.8575,-3.42997 0.8575,-3.42997c2.78546,-1.66653 5.13993,-4.01171 7.98688,-5.57088c7.20018,-3.94328 16.31521,-4.99849 24.22592,-6.71475c6.11523,-1.32672 11.82978,-3.72425 17.79735,-5.50375c8.38854,-2.50142 17.37638,-2.85005 25.68553,-5.6386c7.64627,-2.53348 15.62254,-1.47008 23.19993,-3.99999l3.2906,3.17171c0,0 0,0.35395 -0.13318,0.79549c0.00328,0.0091 0.00487,0.01391 0.00487,0.01391z" fill="#696969" stroke-width="0.5"></path>
      <path d="M131.20004,109c-0.55513,0 -0.98699,-0.12327 -1.32295,-0.31506c-3.5327,1.07269 -8.62424,2.53837 -10.60889,-1.28346c-0.6509,-1.25344 2.55388,-5.76737 3.45168,-7.0882c0.14943,-0.21985 0.29066,-0.44651 0.43264,-0.67265c-1.41508,0.31468 -2.95876,0.43845 -3.1808,2.04993c0,0 -0.79056,2.37171 -3.16227,1.58115c-2.37171,-0.79056 -1.58115,-3.16227 -1.58115,-3.16227c0.46798,-1.12574 0.54188,-2.51515 1.40394,-3.37721c1.38504,-1.38503 11.50521,-3.94649 12.16657,-3.35422c2.39884,2.14826 -0.22723,8.07175 -2.4508,10.94521c0.34928,-0.0815 0.70032,-0.15764 1.0457,-0.24858c1.06327,-0.27993 2.13335,-0.53332 3.20002,-0.79999l3.10633,3.22535c0,0 0,2.5 -2.5,2.5z" fill="#696969" stroke-width="0.5"></path>
      <path d="M174.56777,91.13221c1.76779,1.76775 0.00003,3.53553 0.00003,3.53553l-1.98102,1.91239c-1.54065,1.02357 -5.58473,3.94682 -7.21129,3.60978c-2.16968,-0.44957 -4.39237,-1.98125 -5.31086,-3.99769c-1.59689,-3.50581 1.15525,-6.04878 2.5731,-8.54704c2.40465,-4.237 3.4305,-8.33996 9.62121,-8.43173c1.35267,-0.02005 2.35187,1.3376 3.52781,2.00641c0,0 2.08013,1.38676 0.69338,3.46688c-1.38675,2.08012 -3.46687,0.69338 -3.46687,0.69338c-3.40747,-3.19698 -6.1775,4.34421 -7.50351,6.87659c-0.45926,0.87708 -0.6617,3.11675 0.31479,2.95341c1.60038,-0.26771 2.64028,-1.8878 3.98878,-2.79024l1.21893,-1.28763c0,0 1.76775,-1.76779 3.53554,-0.00003z" fill="#696969" stroke-width="0.5"></path>
      <path d="M112.30702,74.64618c0.66884,0.28693 1.39303,0.90828 1.39303,2.25382c0,2.5 -2.5,2.5 -2.5,2.5l-3.17176,-1.70944c-0.24697,-0.74099 -0.86538,-2.11221 -1.36302,-3.49889c-0.08339,0.28552 -0.16249,0.57097 -0.22613,0.85679c-0.44015,1.97674 -1.02834,3.92049 -1.66744,5.84216c0,0 -0.79061,2.3717 -3.16231,1.58108c-2.3717,-0.79062 -1.58108,-3.16231 -1.58108,-3.16231c0.98454,-2.94599 1.15824,-6.68664 2.35546,-9.45105c0.66918,-1.54515 1.10346,-4.40281 2.77729,-4.21949c4.45279,0.48766 6.00219,5.33268 7.14597,9.00733z" fill="#696969" stroke-width="0.5"></path>
      <path d="M119.4079,65.00894c-0.06361,0.25982 -0.10571,0.52266 -0.10988,0.79083c-0.01544,0.99468 0.34835,1.95865 0.52951,2.93951c0.00156,-0.00235 0.00314,-0.0047 0.00471,-0.00704c1.29246,-1.926 3.18808,-3.35276 3.20001,-6.06448c0.00138,-0.31473 -0.47185,0.41664 -0.70777,0.62496l-1.73767,1.2874c0,0 -0.50285,0.33524 -1.17891,0.42882zM118.31824,60.1045l2.5573,-1.59724c1.89741,0.20832 4.37296,-0.75455 5.69225,0.62496c1.4088,1.47312 0.79184,4.03639 0.7135,6.07322c-0.13461,3.50021 -1.37846,4.93647 -3.91352,7.06232c-1.38062,1.15776 -2.62206,3.30794 -4.41405,3.12006c-1.79388,-0.18806 -2.90429,-2.33939 -3.67854,-3.96847c-0.84418,-1.77623 -0.95242,-3.85257 -0.97317,-5.8191c-0.0134,-1.26923 0.58176,-2.47106 0.87264,-3.70659c0,0 0.60633,-2.42536 3.03169,-1.81903c0.03804,0.00951 0.07534,0.01947 0.1119,0.02986z" fill="#696969" stroke-width="0.5"></path>
      <path d="M133.59058,72.87171c-2.37171,0.79056 -3.16227,-1.58115 -3.16227,-1.58115l-0.89599,-2.7901c-0.00451,-1.365 0.13773,-2.7384 -0.01355,-4.09499c-0.27231,-2.44183 -2.49268,-6.10962 -0.08648,-8.47322c1.78575,-1.75414 5.0147,-0.57644 7.37714,-1.40395c0,0 2.3717,-0.7906 3.16229,1.5811c0.79059,2.3717 -1.5811,3.1623 -1.5811,3.1623c-0.93003,0.29868 -1.81392,0.86073 -2.79009,0.89603c-0.90746,0.03281 -1.7463,-0.89708 -2.6327,-0.69995c-0.43395,0.09651 0.56672,0.70714 0.7135,1.12676c0.36303,1.03784 0.67903,2.10719 0.79999,3.20002c0.1432,1.29377 -0.00904,2.60334 -0.01355,3.905l0.70398,2.00988c0,0 0.79056,2.37171 -1.58115,3.16227z" fill="#696969" stroke-width="0.5"></path>
      <path d="M158.01519,65.09539c0.63639,0.30659 1.28483,0.93138 1.28483,2.2046c0,2.5 -2.5,2.5 -2.5,2.5l-3.1717,-1.70944c-0.59097,-1.84024 -1.00607,-3.78725 -1.11644,-5.72422c-0.84057,1.33618 -1.76698,2.56875 -2.84706,3.78227l0.33521,0.25141l-2.38256,3.17673c-0.45492,0.62044 -1.18914,1.02327 -2.01745,1.02327c-1.22888,0 -2.25067,-0.88665 -2.46054,-2.05513l-0.78217,-3.91093c-0.81398,-3.25907 -1.74374,-6.33841 -2.40874,-9.64362c0,0 -0.49032,-2.45144 1.96112,-2.94176c2.45145,-0.49032 2.94177,1.96113 2.94177,1.96113c0.55014,2.76823 1.30183,5.37783 2.0098,8.07223c0.48036,-0.55685 1.02442,-1.0787 1.41213,-1.69624c1.10545,-1.76073 2.24448,-4.90555 2.97231,-6.72837l0.76438,-2.29317c0.31417,-1.02157 1.26534,-1.76413 2.38994,-1.76413c1.25483,0 2.29372,0.92449 2.47274,2.12951l0.7933,4.75945l-0.03102,0.00517c0.01933,0.06638 0.03817,0.13292 0.05652,0.19964c0.77414,2.81586 -0.13714,5.57324 0.32366,8.40161z" fill="#696969" stroke-width="0.5"></path>
      <path d="M172.54235,64.94047c-2.44047,0.54232 -2.98279,-1.89816 -2.98279,-1.89816l-0.84459,-3.86953c-0.00101,-0.35826 -0.00198,-0.71652 -0.00289,-1.07478l-1.6131,0.4023c-0.5121,0.17113 -1.02422,0.34227 -1.53632,0.5134c0.07945,0.88259 0.13417,1.77479 0.13739,2.6863v0.79999c0,0 0,2.5 -2.5,2.5c-2.5,0 -2.5,-2.5 -2.5,-2.5v-0.79999c0.01466,-3.55799 -0.78745,-6.83108 -0.80005,-10.40002c0,0 0,-2.5 2.5,-2.5c2.5,0 2.5,2.5 2.5,2.5c-0.00367,0.89051 0.04382,1.76317 0.1173,2.62709c0.22791,-0.07579 0.45582,-0.15158 0.68373,-0.22737l3.00142,-0.7521c-0.00158,-1.3492 -0.00239,-2.69841 -0.00239,-4.04762c0,0 0,-2.5 2.5,-2.5c2.5,0 2.5,2.5 2.5,2.5c0,3.24241 -0.00469,6.48482 -0.01493,9.72721l0.75538,3.33048c0,0 0.54232,2.44047 -1.89815,2.98279z" fill="#696969" stroke-width="0.5"></path>
      <path d="M178.30002,50.5c0,-1.38071 1.11929,-2.5 2.5,-2.5c1.38071,0 2.5,1.11929 2.5,2.5c0,1.38071 -1.11929,2.5 -2.5,2.5c-1.38071,0 -2.5,-1.11929 -2.5,-2.5z" fill="#696969" stroke-width="0.5"></path>
      <path d="M176.70005,60.10001c0,-1.38071 1.11929,-2.5 2.5,-2.5c1.38071,0 2.5,1.11929 2.5,2.5c0,1.38071 -1.11929,2.5 -2.5,2.5c-1.38071,0 -2.5,-1.11929 -2.5,-2.5z" fill="#696969" stroke-width="0.5"></path>
      <path d="M118.4,139.39999c-2.5,0 -2.5,-2.5 -2.5,-2.5v-4c0.03575,-0.82518 0.00069,-1.65649 0.10726,-2.47553c0.03174,-0.2439 0.44423,-0.874 0.30245,-0.67303c-0.30998,0.43939 -0.36735,1.09096 -0.81133,1.39434c-0.69624,0.47576 -1.58652,0.57775 -2.39997,0.80003c-0.36841,0.10066 -1.06958,-0.21094 -1.13373,0.16555c-0.08357,0.49041 0.82092,0.69757 0.90304,1.18822c0.04206,0.25132 0.03228,7.91697 0.03228,8.40044c0,0 0,2.5 -2.5,2.5c-2.5,0 -2.5,-2.5 -2.5,-2.5c0,-2.53321 0.26478,-5.07703 0.03228,-7.59955c-0.11253,-1.22098 -1.19711,-2.49233 -0.69694,-3.61183c1.28887,-2.88483 3.77043,-2.89803 6.06627,-3.83442c1.35138,-0.55118 2.59466,-2.23767 3.98872,-1.80567c4.24504,1.31546 3.52863,5.08627 3.60967,8.05145v4c0,0 0,2.5 -2.5,2.5z" fill="#696969" stroke-width="0.5"></path>
      <path d="M129.59057,136.87172c0,0 -0.87542,0.2918 -1.73982,-0.01101c-0.54229,0.99144 -1.13212,1.96081 -1.70698,2.92552c0,0 -1.28623,2.14374 -3.42997,0.85752c-2.14374,-1.28623 -0.85751,-3.42997 -0.85751,-3.42997c0.75747,-1.25281 1.61105,-2.45234 2.27243,-3.75843c0.87159,-1.72123 0.53517,-3.94805 1.58502,-5.56672c3.02701,-4.66705 4.95324,-5.82649 7.87903,0.2869c0.8396,1.75432 -0.03993,3.95186 0.5339,5.81016l2.04112,1.94659c0,0 1.76774,1.76779 -0.00005,3.53553c-1.76779,1.76774 -3.53554,-0.00005 -3.53554,-0.00005l-2.63952,-2.73007z" fill="#696969" stroke-width="0.5"></path>
      <path d="M137.9199,121.11326c0.72087,-1.00001 1.13813,-2.31438 2.16262,-3.00001c7.75347,-5.18894 13.90909,8.39265 6.47419,11.49644c-1.4152,0.59079 -3.01032,-0.11776 -4.55906,-0.49135c0.15958,1.62344 0.34354,3.24397 0.44383,4.88479c0.05856,0.29221 0.05856,0.49687 0.05856,0.49687l-0.03062,0.00537c0.01193,0.239 0.02186,0.47849 0.02946,0.71852l-2.26103,-0.32743l-2.73665,0.47962c-0.11073,-3.80244 -0.79405,-7.46526 -0.80115,-11.27609c0,0 0,-1.17773 0.80836,-1.9165c0.11172,-0.62058 0.4115,-1.07024 0.4115,-1.07024zM142.20581,123.64306c0.22919,0.1564 0.36197,0.28918 0.36197,0.28918l-0.47749,0.1163c0.851,0.31391 1.65446,0.81788 2.55302,0.94174c0.12368,0.01705 0.24654,-3.00531 -0.97512,-3.21242c-0.78234,-0.13263 -1.08774,1.06878 -1.46238,1.8652z" fill="#696969" stroke-width="0.5"></path>
      <path d="M156.87711,125.9557c0.44079,1.60364 -1.09034,2.62442 -1.09034,2.62442c-0.59999,0.34579 -1.29035,0.56849 -1.79996,1.03736c-0.82074,0.75512 0.26002,1.87558 0.38493,2.49195c0.0773,0.38146 -0.34592,0.85294 -0.10994,1.16245c0.54465,0.71438 1.61921,-0.96042 2.05109,-1.74812c1.23791,-2.25782 1.85968,-5.66272 1.34559,-8.23627c-0.08625,-0.43175 -0.18112,0.86174 -0.27168,1.29262l0.04932,0.63791c0,0 -0.18634,0.37268 -0.55901,0.73767zM152.7154,124.63135c-0.14154,-0.86913 0.24857,-1.64935 0.24857,-1.64935l1.64929,-2.56211c1.50941,-0.6358 3.06979,-2.6527 4.52824,-1.90739c2.01232,1.02836 2.65395,3.75322 3.31341,5.91472c1.21113,3.96968 -1.10097,11.71566 -5.49817,13.18247c-5.48945,1.83116 -5.86904,-0.14201 -7.32843,-3.91913c-0.39919,-1.03318 -0.98817,-2.08456 -0.92828,-3.19055c0.20947,-3.868 1.43381,-4.06255 4.01535,-5.86866z" fill="#696969" stroke-width="0.5"></path>
      <path d="M175.20005,133c-2.5,0 -2.5,-2.5 -2.5,-2.5l0.26394,-1.28195c-0.76008,-1.53498 -1.3786,-2.79073 -1.7765,-4.05918c-0.7614,2.89866 -1.31218,5.75769 -2.46631,8.66962c0,0 -0.92849,2.32119 -3.24968,1.39269c-2.32119,-0.92849 -1.39269,-3.24968 -1.39269,-3.24968c1.46586,-3.62681 1.87754,-7.20141 3.09252,-10.87565l0.76813,-3.8407c0.20987,-1.16848 1.23165,-2.05513 2.46053,-2.05513c0.92661,0 1.73548,0.50411 2.1673,1.25305l2.37645,3.96071l-0.04569,0.02742c0.07193,0.0996 0.14253,0.20028 0.21166,0.30212c1.2466,1.83626 1.32486,4.25804 2.32639,6.23865l0.26394,3.51805c0,0 0,2.5 -2.5,2.5z" fill="#696969" stroke-width="0.5"></path>
      <path d="M186.32213,124.1569l0.06843,-0.02861l2.34534,0.78176c1.02157,0.31417 1.76414,1.26534 1.76414,2.38994c0,0.998 -0.5848,1.85943 -1.43041,2.26028l-3.15157,1.57578l-0.50267,-1.00534l-1.71374,1.01506c-0.29516,-0.8088 -0.63066,-1.60559 -0.95756,-2.40494c-0.32976,-0.42967 -0.46853,-0.85284 -0.49335,-1.24385c-0.29137,-0.77009 -0.55178,-1.54941 -0.73854,-2.35066c-0.98426,-4.22289 0.39885,-9.07583 1.7161,-13.0369c0,0 0.79056,-2.37171 3.16227,-1.58115c2.37171,0.79056 1.58115,3.16227 1.58115,3.16227c-0.44105,1.31983 -1.3276,3.78948 -1.49041,5.1149c-0.23132,1.88322 -0.04425,3.59066 -0.15917,5.35144z" fill="#696969" stroke-width="0.5"></path>
      <path d="M195.9,124.9c0,-1.38071 1.11929,-2.5 2.5,-2.5c1.38071,0 2.5,1.11929 2.5,2.5c0,1.38071 -1.11929,2.5 -2.5,2.5c-1.38071,0 -2.5,-1.11929 -2.5,-2.5z" fill="#696969" stroke-width="0.5"></path>
      <path d="M199.99065,120.07171c-2.37169,0.7906 -3.1623,-1.58109 -3.1623,-1.58109l-0.80005,-2.40003c0,0 -0.7906,-2.3717 1.58109,-3.1623c2.37169,-0.7906 3.1623,1.58109 3.1623,1.58109l0.80005,2.40003c0,0 0.7906,2.3717 -1.58109,3.1623z" fill="#696969" stroke-width="0.5"></path>
      <path d="M184.9,162.5c0,1.32798 -0.7054,1.95055 -1.36681,2.24241c3.71443,-0.48148 6.96873,-1.53603 10.86681,-1.5424c2.26654,-0.0037 4.55134,0.31998 6.79955,0.03229c0.85224,-0.10906 1.71702,-0.7642 2.51446,-0.81069c-0.37265,-1.17636 -0.47602,-2.44498 -0.60183,-3.67527c-0.44042,-4.30665 -0.00929,-9.03181 0.00656,-13.35178c0.26575,-1.087 0.5315,-2.174 0.79725,-3.261c-0.6997,0.46644 -1.51599,0.46645 -1.51599,0.46645l-0.80942,-0.12829c-4.4624,1.43301 -8.67531,0.22936 -13.19008,0.89599c-4.02468,0.59426 -7.93821,1.61356 -12.095,1.61356c-2.25453,0.56362 -4.66055,0.25659 -6.93108,0.75184c-2.78967,0.60849 -5.84452,3.03221 -8.56303,3.93156c-1.15285,0.38139 -8.49849,1.63527 -9.40513,1.72681c-3.88813,0.39257 -7.94054,0.29279 -11.80575,0.77625c-2.93316,0.36688 -5.91436,1.2384 -8.89505,1.61352c-2.61437,0.32902 -5.28424,-0.28732 -7.90498,-0.01355c-2.25219,0.23528 -4.99317,1.25828 -7.42472,2.16816c1.86655,5.82979 2.95516,11.96358 4.62457,17.86517c0.22163,0.78349 0.87717,1.84339 0.86831,2.7813c0.78266,-0.22748 1.64414,-0.25762 2.43244,-0.48263c2.52465,-0.72064 5.07691,-1.46663 7.69278,-1.69119c1.52964,-0.13131 3.07897,0.18511 4.60573,0.02376c2.85808,-0.30204 5.96861,-1.1679 9.02918,-2.16799c-1.76198,-1.76662 0.00349,-3.53206 0.00349,-3.53206l2.40002,-2.39999c0.66881,-0.6688 1.31856,-1.34963 1.95665,-2.03763c-1.84689,-0.88357 -3.69139,-1.7846 -5.47514,-2.85089c0,0 -2.14373,-1.28625 -0.85748,-3.42997c1.28625,-2.14372 3.42997,-0.85748 3.42997,-0.85748c2.06742,1.2455 4.213,2.26985 6.35352,3.29693c1.36176,-1.53239 2.7331,-3.05644 4.19243,-4.52094c0,0 1.76776,-1.76778 3.53554,-0.00002c1.76778,1.76775 0.00002,3.53554 0.00002,3.53554c-1.07723,1.07304 -2.10573,2.18261 -3.11722,3.30607c0.92737,0.50968 1.84187,1.05184 2.73622,1.64604l0.21327,-0.41988c0,0 2.5,0 2.5,2.5c0,0.79809 -0.25478,1.34141 -0.60168,1.71128c0.98639,-0.27519 1.96043,-0.59939 2.93561,-0.9019c-0.08681,-0.25385 -0.13392,-0.52611 -0.13392,-0.80937c0,-0.68938 0.27903,-1.31359 0.73032,-1.76585c0.00005,-0.00005 0.00009,-0.00009 0.00014,-0.00014l1.79754,-1.80145c2.61686,-2.66723 5.21112,-6.19765 8.02206,-8.90482c-1.10326,0.08423 -2.22384,0.0812 -3.25946,0.44395c0,0 -2.3717,0.7906 -3.1623,-1.5811c-0.79059,-2.3717 1.5811,-3.1623 1.5811,-3.1623c2.39218,-0.76825 9.77595,-2.3596 11.61869,0.1099c1.0237,1.37188 0.05345,3.53422 -0.65259,5.09356c-0.94533,2.08783 -2.88217,4.22449 -4.96522,6.23818c0.92639,-0.36604 1.85477,-0.72643 2.79916,-1.04165l3.19051,-0.12829c0,0 2.5,0 2.5,2.5zM180.79058,164.87172c-0.2228,0.07416 -0.44644,0.15338 -0.67086,0.23664c0.53065,-0.05356 1.0611,-0.10779 1.59115,-0.16328zM150.56778,169.86779l-0.54149,0.54148c0.70691,-0.24602 1.39998,-0.48463 2.07477,-0.70956c2.18353,-0.53531 4.45164,-0.63358 6.68822,-0.86991l-1.77605,-0.24967c-1.09203,-0.73083 -2.21764,-1.38117 -3.36205,-1.98842c-0.99947,1.11057 -2.01713,2.20983 -3.08339,3.27609zM206.4,137.60001c2.5,0 2.5,2.5 2.5,2.5l-0.07464,3.00633c-0.24803,0.96638 -0.49605,1.93275 -0.74408,2.89913c0.02253,5.40558 -0.01385,10.52854 0.73496,15.85285c0.20994,1.49273 1.35467,3.32721 0.41192,4.50344c-1.02803,1.28265 -3.23291,0.60748 -4.82767,1.00596c-4.64383,1.16035 -9.03148,0.35172 -13.75415,0.82014c-2.42691,0.24071 -4.71744,1.31953 -7.14083,1.59341c-4.78369,0.54063 -9.57678,0.93308 -14.30502,1.58646c-3.25639,0.44999 -6.40332,2.04098 -9.7541,2.42011c-1.98398,0.22448 -4.01323,0.21694 -5.9474,0.71249c-5.31873,1.77286 -11.57443,4.22746 -17.0985,4.8674c-3.12193,0.36166 -6.33168,0.06883 -9.39786,0.75858c-2.0365,0.45812 -8.29405,3.40108 -10.0644,2.00182c-1.28961,-1.01928 -0.60592,-3.2333 -1.00594,-4.82767c-1.68618,-6.72054 -3.30546,-13.85873 -5.50397,-20.40988c0,0 -0.06007,-0.1802 -0.09741,-0.45783c-0.28212,-0.25746 -0.53,-0.62448 -0.70256,-1.14217c-0.79058,-2.3717 1.58113,-3.16228 1.58113,-3.16228c3.14266,-1.04635 7.40723,-2.9201 10.79007,-3.29603c2.68184,-0.29802 5.42006,0.34099 8.09501,-0.01355c6.97874,-0.92496 13.82375,-1.70996 20.8993,-2.41021c0.23145,-0.02291 7.49148,-1.23672 8.19485,-1.47321c2.94046,-0.98864 6.01728,-3.38708 9.03694,-4.06844c2.4442,-0.55151 5.03811,-0.24043 7.46894,-0.84813c4.10531,0 7.93445,-1.03572 11.90499,-1.58646c4.17883,-0.57962 8.37538,0.70912 12.4099,-0.70399l2.39053,-0.12828c0,0 1.28333,0 2.01105,0.91947c0.35649,-0.49734 0.96165,-0.91947 1.98895,-0.91947z" fill="#696969" stroke-width="0.5"></path>
      <path d="M136.10001,168.9c0,2.5 -2.5,2.5 -2.5,2.5l-2.01096,-0.03401c-2.02827,-0.47636 -4.53674,-0.03469 -6.0848,-1.42906c-3.99586,-3.59917 0.44861,-11.40903 4.15033,-13.02321c1.22813,-0.53554 2.62402,0.54306 3.93603,0.81459c0,0 2.37171,0.79058 1.58113,3.16228c-0.79058,2.3717 -3.16228,1.58113 -3.16228,1.58113c-0.288,-0.26182 -0.55233,-1.01855 -0.86402,-0.78544c-0.67092,0.50176 -0.65956,1.54782 -1.10455,2.25767c-0.45792,0.73048 -1.96801,2.06228 -1.14503,2.31915c1.11983,0.34953 2.34345,0.11395 3.51518,0.17092l1.18898,-0.03402c0,0 2.5,0 2.5,2.5z" fill="#696969" stroke-width="0.5"></path>
      <path d="M267.90931,98.66165c-0.07524,-0.0383 -0.15517,-0.06709 -0.24113,-0.08376c-0.47575,-0.09223 -0.8067,0.57932 -1.2776,0.69382c-0.40106,0.09752 -0.81239,0.23513 -1.2269,0.37032c1.19739,0.24135 2.40249,0.54272 3.57205,0.79906c-0.64904,-0.57228 -0.79402,-1.42639 -0.82641,-1.77943zM260.63224,97.06777c-0.44763,-0.63126 -1.50751,0.35921 -2.24166,0.60393c-1.05077,0.35026 -2.08663,1.01891 -3.19053,0.92831c-1.47522,-0.12108 -3.01322,-0.60604 -4.16781,-1.53225c-0.50377,-0.40413 0.03395,-1.31267 -0.15025,-1.93169c-0.07894,-0.26527 0.01429,0.61626 -0.1836,0.80974c-0.60841,0.59485 -1.40773,0.95621 -2.11159,1.43431c0,0 -0.16665,0.1111 -0.43707,0.22324c0.08366,0.00853 0.16725,0.01815 0.25076,0.02893c1.67266,0.21594 3.12861,1.37439 4.79999,1.60001c1.02571,0.13846 2.07867,-0.14733 3.105,-0.01355c0.96058,0.12521 1.82991,0.78624 2.79861,0.7831c0.80652,-0.00262 1.4943,-0.73419 2.29047,-0.79586c-0.28789,-0.65487 -0.35139,-1.55872 -0.76232,-2.13821zM245.11992,96.68674c-1.38675,-2.08012 0.69338,-3.46688 0.69338,-3.46688c1.99043,-1.30727 4.54813,-3.50024 7.30478,-2.55593c1.01347,0.34717 0.83006,1.99442 1.44973,2.8683c0.44762,0.63126 1.5075,-0.35923 2.24164,-0.60395c1.05079,-0.35026 2.08669,-1.01888 3.19061,-0.92828c1.47519,0.12108 3.01315,0.60601 4.16771,1.53221c0.50378,0.40414 -0.19947,1.38878 0.1503,1.93173c0.19078,0.29614 0.17121,-0.78873 0.49139,-0.93565c1.10191,-0.50562 2.32464,-1.09355 3.52245,-0.90615c1.31431,0.20562 2.30325,1.33185 3.45488,1.99777l1.11323,2.8801c0,0 0,1.91213 -1.67226,2.39185c5.79859,0.76192 11.50251,-0.3496 17.17274,1.54042c1.33334,0 2.6803,-0.19001 4.00003,0.00001c2.00964,0.28934 3.68937,1.69909 5.49789,2.62192c1.96936,1.00489 5.12936,1.87786 7.30209,2.1781c5.79776,0.80118 11.69754,0.84586 17.50498,1.58643c2.18133,0.27817 4.21728,1.33303 6.40001,1.6c6.98713,0.85462 13.76461,2.34962 20.89499,2.41354c1.37498,0.45833 2.75671,0.75907 4.14401,0.95391c-0.13539,-0.17079 -0.26258,-0.35955 -0.38051,-0.56813c-0.97113,-1.71754 1.63311,-8.01052 2.26432,-9.9086c0,0 0.79056,-2.37171 3.16227,-1.58115c0.95842,0.31946 1.40043,0.89714 1.5869,1.47216c0.01475,-0.00043 0.02257,-0.00044 0.02257,-0.00044l3.19059,0.12829c1.25722,0.63896 3.2247,0.61699 3.77167,1.91688c0.47153,1.1206 -0.32052,6.03192 -1.43857,8.82487c1.75648,0.01908 3.51618,0.10647 5.2768,0.36223c0.03909,0.00568 0.07806,0.01184 0.11692,0.01847c0.37333,-0.39121 0.76454,-0.58681 0.76454,-0.58681l2.08019,-1.01381c-0.21409,-0.32113 -0.42818,-0.64226 -0.64226,-0.96339c0,0 -1.38674,-2.08013 0.6934,-3.46688c2.08013,-1.38674 3.46688,0.69339 3.46688,0.69339c0.12768,0.19151 0.25534,0.38303 0.38302,0.57453c0.97402,-0.85919 1.88619,-1.7664 2.65675,-2.97456c0,0 0.58707,-0.88058 1.57022,-1.11389c-0.27618,-1.0694 -0.61845,-2.15422 -0.95706,-3.22939c-0.00016,0.27623 -0.04858,0.58233 -0.16134,0.9206c-0.79055,2.37171 -3.16226,1.58116 -3.16226,1.58116l-2.40004,-0.79999c-1.6843,-0.56286 -3.39456,-1.0497 -5.11487,-1.49044c-3.16584,0 -6.58165,-0.3482 -9.69504,-0.81357c-2.71157,-0.4053 -5.14672,-2.05601 -7.90501,-2.38645c-16.48093,-1.97438 -32.55367,-5.58127 -49.29451,-5.58127c-3.02756,-0.0073 -6.03427,-0.50611 -9.04633,-0.81215c-2.91832,-0.29652 -5.87844,0.26229 -8.80005,0c-4.29532,-0.38562 -8.73322,-0.98876 -12.95411,-1.62012c-2.71124,-0.40555 -5.14828,-2.04783 -7.90499,-2.38645c-2.64677,-0.32511 -5.34675,0.2672 -8,0c-3.7281,-0.37544 -7.38723,-2.01783 -11.1409,-2.39343c-2.57172,-0.25733 -5.16911,0.01216 -7.75366,0.01216c0,0 -0.31194,0.00001 -0.71544,-0.11019c-0.0891,2.48105 -0.53948,4.94422 -0.79307,7.41641c-0.04946,0.4822 -0.02088,0.97218 0.01104,1.46165c0.62495,0.24201 1.12836,0.72799 1.39337,1.34108c0.94846,0.39123 1.89648,0.78253 2.90458,0.92333c1.59372,0.22259 3.21706,0.00854 4.8313,-0.06405c-0.31712,-0.17699 -0.62893,-0.45708 -0.91187,-0.8815zM360.09761,108.09335c-0.20823,0.88702 -0.48229,1.73631 -0.89222,2.28243c0.93244,-0.12247 1.89599,-0.18561 2.79509,0.0565c0.43095,0.11605 0.5288,1.4333 0.79654,1.07622c0.32332,-0.43121 -0.52677,-1.02569 -0.43608,-1.55696c0.38525,-2.25699 2.22971,-2.55203 0.04855,-1.87982l-1.60945,0.12829c0,0 -0.30525,0 -0.70242,-0.10666zM381.28015,113.91322l0.48768,0.41906c0,0 1.28713,1.28718 0.56642,2.76315c1.37965,0.38577 2.7191,0.91816 4.15731,1.73194c0.11363,-1.72207 0.11571,-3.58926 -0.61815,-4.61303c-0.67001,-0.9347 -1.8628,-1.49372 -2.43696,-2.4676c-0.70851,0.74395 -1.44748,1.41354 -2.20993,2.08603c0.01788,0.02681 0.03575,0.05364 0.05363,0.08046zM385.01323,123.78013c-3.34628,-2.27303 -5.58296,-2.23941 -9.41364,-2.8124c-1.668,-0.24949 -3.12967,-1.36671 -4.80001,-1.60001c-7.24757,-1.01226 -14.53571,0.7548 -21.60003,-1.6c-0.85555,0.00987 -5.76325,0.08221 -6.30496,0.01355c-1.9574,-0.24807 -3.74053,-1.34345 -5.69503,-1.61352c-2.92432,-0.40408 -5.77895,-0.41335 -8.70499,-0.78647c-2.18134,-0.27815 -4.2173,-1.33302 -6.40004,-1.60001c-5.87284,-0.71836 -11.84157,-0.75273 -17.69497,-1.61352c-2.60114,-0.38253 -6.33152,-1.45934 -8.69791,-2.62195c-1.64049,-0.80598 -2.27365,-1.9927 -4.10209,-2.17807c-1.32653,-0.13448 -2.66665,0.00001 -3.99998,0.00001c-5.82948,-1.94311 -11.60534,-0.76853 -17.60004,-1.60001c-2.60419,-0.3612 -5.67091,-1.57809 -8.30358,-1.56954c-0.84325,0.00274 -1.55671,0.80236 -2.39997,0.79999c-1.23096,-0.00347 -2.37928,-0.66972 -3.60141,-0.81688c-1.09047,-0.13131 -2.20874,0.14882 -3.29502,-0.01355c-1.66801,-0.24932 -3.12541,-1.39949 -4.79999,-1.60001c-3.37669,-0.40434 -3.82307,0.49054 -7.20001,0c-0.23291,-0.03383 -4.76408,-1.55401 -5.1901,-1.69602c0,0 -0.00856,-0.00285 -0.02448,-0.00873c-0.01379,0.03464 -0.02722,0.06944 -0.04024,0.10438c-1.17782,3.15884 -2.16247,6.97183 -3.12605,10.17667c-1.22377,4.07023 -1.11204,7.50073 -1.53739,11.66143c-1.00596,9.84009 -5.345,19.50668 -7.26503,29.13619c-3.85954,11.64873 -6.55049,23.66743 -10.44459,35.34897l-1.40391,1.77714c0,0 -0.46733,0.46733 -1.16172,0.68114c5.31002,3.21733 12.46835,3.71754 18.09237,6.50531c2.3078,1.14396 4.36575,2.78146 6.74145,3.77677c3.98886,1.67115 7.9969,2.05221 12.07249,3.27268c8.57369,2.56745 17.09223,4.51199 25.93401,6.30852c5.80494,-0.02391 11.15087,0.97231 16.8591,1.60657c3.71044,0.41228 7.38278,0.44803 11.10075,0.78977c6.19293,0.56923 11.99481,2.73316 17.9964,4.0652c9.63826,2.1392 19.22579,4.01232 28.80376,6.40091c3.69573,1.03357 6.22614,-0.49664 10.19407,-0.04236c0.83781,0.09592 1.56579,0.67681 2.40002,0.79998c2.24224,0.33106 4.53305,-0.04304 6.79957,-0.03228c1.27759,0.00607 3.02992,0.92652 3.83222,-0.06776c1.03701,-1.28518 1.28094,-5.83124 1.8815,-7.24362c0.37623,-0.8848 1.21843,-1.51745 1.59996,-2.39997c0.78292,-1.81098 0.75965,-3.92159 1.64048,-5.68703c0.37104,-0.74367 1.22817,-1.226 1.4531,-2.02608c0.25954,-0.9232 -0.22513,-1.92882 -0.075,-2.87599c0.31286,-1.97374 1.78923,-3.57626 2.5814,-5.41093c0.99043,-2.29384 1.46079,-5.2188 2.27005,-7.63027c0.27279,-1.37135 1.15598,-6.20658 1.72995,-7.56975c0.37311,-0.88614 1.21848,-1.51746 1.60004,-2.39999c2.46839,-5.70939 3.94766,-12.31026 5.85175,-18.35032c-0.41496,-0.59277 -1.0399,-1.8994 0.26674,-3.20604c0.85816,-0.85817 1.71633,-0.88314 2.37226,-0.68163c-0.92725,-0.42618 -1.32564,-1.42213 -1.32564,-1.42213l-1.73374,-4.45572c-0.02302,-2.69068 0.3802,-5.4104 -0.01283,-8.07233c-0.51712,-3.50237 -1.04895,-5.62561 0.096,-9.191c0,0 0.79055,-2.37171 3.16226,-1.58116c2.37171,0.79055 1.58116,3.16226 1.58116,3.16226c-1.03002,2.94078 -0.30626,3.90874 0.096,6.80899c0.09095,0.65572 -0.01018,7.67311 -0.01283,7.92768l1.46633,3.54429c0,0 0.9285,2.32118 -1.39269,3.24967c-0.65044,0.26019 -1.19153,0.2652 -1.63347,0.13761c0.53193,0.23269 0.87271,0.57346 0.87271,0.57346l1.40393,3.35831c-2.1943,6.58296 -3.78435,13.86866 -6.48539,20.22084c-0.37624,0.88482 -1.21469,1.5191 -1.60003,2.39999c-0.93338,2.13367 -1.01103,4.54706 -1.47001,6.83028c-0.87505,2.64101 -1.45788,5.85183 -2.52999,8.36973c-0.92989,2.18389 -1.94889,2.03127 -2.21852,4.18904c-0.14569,1.16587 0.25153,2.39537 -0.075,3.52404c-0.30367,1.04969 -1.25744,1.79696 -1.74698,2.7739c-0.50959,1.01696 -1.34497,5.00854 -1.55947,5.51299c-0.37622,0.88482 -1.21843,1.51748 -1.59999,2.40001c-1.01632,2.35076 -0.93651,6.88709 -2.91854,8.75638c-2.02034,1.90542 -4.95707,1.52197 -7.36774,1.53221c-3.59185,0.01525 -6.5723,-0.35879 -10.00048,-0.83227c-2.26196,-0.31241 -4.5162,0.84973 -6.79957,0.83227c-1.30178,-0.00995 -2.53752,-0.58309 -3.80628,-0.87463c-9.57514,-2.39926 -19.15886,-4.25494 -28.79634,-6.39907c-5.72658,-1.27404 -11.29574,-3.4039 -17.20355,-3.9348c-3.7898,-0.34057 -7.52227,-0.39052 -11.29928,-0.8102c-5.68582,-0.63177 -10.97556,-1.57308 -16.74087,-1.59344c-9.16753,-1.80722 -17.98938,-3.82357 -26.86604,-6.49147c-4.24603,-1.27615 -8.41765,-1.70317 -12.58322,-3.4552c-2.46217,-1.03558 -4.61866,-2.69087 -7.00274,-3.89539c-6.19793,-3.1314 -13.68059,-3.58599 -19.4884,-7.36569c0,0 -2.08012,-1.38676 -0.69334,-3.46688c0.50563,-0.75842 1.10343,-1.05596 1.65897,-1.12788c-1.33097,-1.66878 0.25335,-3.25312 0.25335,-3.25312l0.19606,0.17717c3.86003,-11.57935 6.48606,-23.52078 10.35547,-35.05105c0.92378,-4.6052 2.23092,-8.93595 3.18314,-13.53269c1.03385,-4.99078 3.45001,-9.78881 3.95185,-14.93109c0.42739,-4.37937 0.41315,-8.15241 1.70029,-12.45173c0.97485,-3.25623 2.02343,-7.29491 3.23626,-10.51016c0.38547,-1.0219 1.24347,-1.84827 1.51157,-2.90703c0.23176,-0.91526 -0.14968,-1.89211 -0.05836,-2.83182c0.25259,-2.59905 0.79896,-5.18251 0.79153,-7.79379c0,0 0,-2.5 2.5,-2.5c0.30167,0 0.56694,0.0364 0.8002,0.10042c0.46622,-1.70043 2.39975,-1.70043 2.39975,-1.70043c0.31017,0 8.08638,-0.00382 8.24634,0.01217c3.79185,0.37896 7.50051,2.03376 11.25913,2.40656c2.65364,0.2632 5.35449,-0.33527 8,0c2.82084,0.3575 5.35078,2.04273 8.095,2.41354c4.16602,0.56293 8.41693,1.19039 12.64588,1.57989c1.99692,0.18393 6.73992,-0.20289 8.80005,0c2.8495,0.28064 5.69037,0.79547 8.55364,0.78782c4.3532,0 7.98393,0.37908 12.24635,0.81218c1.06063,0.10777 6.23695,-0.14217 7.35412,0.02011c1.66903,0.24244 3.1286,1.37439 4.79999,1.60001c8.49366,1.14655 16.99909,2.08476 25.50498,3.18643c2.81581,0.3647 5.35352,2.04349 8.09499,2.41354c3.09188,0.41736 6.36522,0.78647 9.50504,0.78647c2.04629,0.50166 4.08585,1.0447 6.08508,1.70956l2.40001,0.79999c0,0 0.8473,0.28242 1.36022,1.01609c-0.21108,-0.6897 -0.40945,-1.37132 -0.57613,-2.03804c0,0 -0.32905,-1.31624 0.4673,-2.25183c-0.33926,-0.42676 -0.54194,-0.96697 -0.54194,-1.55451c0,-1.38071 1.11929,-2.5 2.5,-2.5c1.38071,0 2.5,1.11929 2.5,2.5c0,0.60492 -0.21485,1.15967 -0.57241,1.59209c0.37065,0.49312 0.49777,1.00159 0.49777,1.00159c0.71575,2.86304 2.0571,6.10478 2.44232,9.00587c0.1162,0.87514 -0.51315,1.8355 -0.15803,2.64375c0.40418,0.9199 1.68324,1.19108 2.21696,2.04238c1.85573,2.95999 1.17336,6.83576 1.17336,10.11435v2.39999c0,0 0,2.5 -2.5,2.5c-2.5,0 -2.5,-2.5 -2.5,-2.5v-0.13898z" fill="#696969" stroke-width="0.5"></path>
      <path d="M244.00003,139.39999c-2.5,0 -2.5,-2.5 -2.5,-2.5l0.07464,-1.40631c0.63867,-2.54799 0.92087,-5.12169 1.52434,-7.579c-1.71643,2.35722 -3.39395,4.73467 -5.01883,7.17205c0,0 -1.38673,2.08014 -3.46687,0.69342c-2.08014,-1.38673 -0.69341,-3.46687 -0.69341,-3.46687c2.61277,-3.91926 5.35877,-7.68616 8.1915,-11.45129l0.15806,-0.09256l-0.0372,-0.03719l2.39997,-2.4c0.45241,-0.45242 1.07742,-0.73225 1.76778,-0.73225c1.38071,0 2.5,1.11929 2.5,2.5v4.79999h-0.04161c0.00872,0.10167 0.01638,0.20348 0.02289,0.30545c0.07444,1.1657 -0.60551,2.25804 -0.83364,3.40363c-0.53761,2.69971 -0.95619,5.42634 -1.62224,8.09726l0.07464,0.19366c0,0 0,2.5 -2.5,2.5z" fill="#696969" stroke-width="0.5"></path>
      <path d="M282.4,151.39999c-2.5,0 -2.5,-2.5 -2.5,-2.5l0.08841,-3.05895c0.1941,-0.70179 0.37387,-1.40074 0.56235,-2.08635c-0.53078,0.37235 -1.1201,0.69703 -1.79048,0.95976c-1.57018,0.61535 -3.68024,1.6353 -5.022,0.61364c-1.41359,-1.07635 -0.83708,-3.46278 -1.03822,-5.22809c-0.38009,-3.33576 0.662,-6.24566 2.18761,-8.99728c-0.88047,0.476 -1.89397,0.22263 -1.89397,0.22263c-1.52576,-0.39159 -3.14459,-1.58873 -4.614,-1.02115c-0.37448,0.14465 -0.37399,0.72193 -0.45485,1.11515c-0.52585,2.55711 -0.86777,5.15393 -1.49944,7.68698l0.07464,1.79366c0,0 0,2.5 -2.5,2.5c-2.5,0 -2.5,-2.5 -2.5,-2.5l0.07464,-3.00633c0.13834,-0.55192 0.24682,-1.16448 0.345,-1.81387c-0.71116,0.84521 -1.57067,1.63544 -2.55191,2.58796c-1.312,1.27361 -2.25876,3.21962 -4.01107,3.74194c-6.97376,2.07871 -8.36309,-1.00598 -7.34943,-7.03417c0.24205,-1.4395 1.53669,-2.48271 2.33916,-3.70205c1.59823,-2.42852 3.47131,-4.80631 5.86682,-6.45361c0,0 1.25958,-0.83974 2.47188,-0.23216c1.69043,-0.11386 3.50826,-0.51815 4.68266,0.5445c0.53728,0.48615 0.79187,1.15671 0.88947,1.90208c0.46493,-0.62636 1.04097,-1.1534 1.76317,-1.53848c1.38043,-0.73606 3.12452,-0.38742 4.68503,-0.27708c1.19834,0.08473 2.33393,0.5706 3.50089,0.8559c0,0 2.12885,0.5322 1.89898,2.59386c0.33112,-0.52122 0.6716,-1.03899 1.01462,-1.55528c0,0 1.38678,-2.08011 3.46688,-0.69334c2.08011,1.38678 0.69333,3.46688 0.69333,3.46688c-1.36509,2.03976 -3.28105,4.4903 -3.61239,7.01368c-0.084,0.63968 0.07309,1.30051 0.10236,1.94644c0.44912,-0.27291 0.9022,-0.54313 1.26214,-0.91465c0.92775,-0.95764 1.60001,-2.13334 2.40002,-3.20001l0.33302,-0.14521l-0.06526,-0.08702l3.17975,-2.38484c0.42124,-0.32312 0.9483,-0.51516 1.52022,-0.51516c1.38071,0 2.5,1.11929 2.5,2.5c0,0.18572 -0.02025,0.36673 -0.05867,0.54091l-0.78986,3.94938l-0.03521,-0.00705c-0.01508,0.10951 -0.03222,0.21888 -0.05156,0.32809c-0.49178,2.7759 -2.41969,5.12557 -3.15311,7.84762l0.08841,1.74104c0,0 0,2.5 -2.5,2.5zM255.84185,132.25139c-1.14301,1.40065 -2.09333,2.98538 -3.04913,4.57309c-0.2806,0.46611 -0.9289,1.05653 -0.62496,1.50776c0.25808,0.38315 0.92757,-0.23808 1.27553,-0.54194c1.6224,-1.41676 3.29712,-2.85973 4.46965,-4.66653c0.68937,-1.0623 2.27903,-4.46597 1.44378,-3.51409l-1.5889,1.85808c0,0 -0.83237,0.8324 -1.92597,0.78363z" fill="#696969" stroke-width="0.5"></path>
      <path d="M297.28191,155.93606c-2.23604,-1.11809 -1.11796,-3.35413 -1.11796,-3.35413l0.61156,-1.09155c0.57911,-2.29815 1.25128,-4.43297 2.04068,-6.49037c-1.38822,0 -2.92918,0 -3.83245,0c-0.77428,2.06082 -1.5,4.15144 -2.21206,6.29062l-4.87169,-1.59061c0,0 0,-1.13636 0.76614,-1.87681c1.70153,-4.96202 3.5319,-9.7093 5.89781,-14.44121c0,0 1.11802,-2.23607 3.35409,-1.11806c2.23608,1.11802 1.11806,3.35409 1.11806,3.35409c-0.7289,1.45784 -1.40416,2.91612 -2.03902,4.38198c0.20098,0 0.40195,0 0.60294,0h3.43185c0.73156,-1.45424 1.53654,-2.90512 2.42441,-4.38623c0,0 1.28623,-2.14374 3.42997,-0.85751c2.14374,1.28623 0.85751,3.42996 0.85751,3.42996c-2.86414,4.76928 -4.76011,9.10592 -6.11917,14.52342l-0.98854,2.10846c0,0 -1.11809,2.23605 -3.35413,1.11796z" fill="#696969" stroke-width="0.5"></path>
      <path d="M311.9,140.10001c0,-1.38071 1.11929,-2.5 2.5,-2.5c1.38071,0 2.5,1.11929 2.5,2.5c0,1.38071 -1.11929,2.5 -2.5,2.5c-1.38071,0 -2.5,-1.11929 -2.5,-2.5z" fill="#696969" stroke-width="0.5"></path>
      <path d="M308.70005,148.89999c0,-1.38071 1.11929,-2.5 2.5,-2.5c1.38071,0 2.5,1.11929 2.5,2.5c0,1.38071 -1.11929,2.5 -2.5,2.5c-1.38071,0 -2.5,-1.11929 -2.5,-2.5z" fill="#696969" stroke-width="0.5"></path>
      <path d="M230.59372,174.52537c-2.42536,-0.60633 -1.81903,-3.03168 -1.81903,-3.03168l0.93636,-3.59896c0.5219,-0.80016 1.1557,-1.90956 1.90183,-2.86464c-0.94576,-0.01363 -1.86695,-0.62475 -2.81286,-0.83007c-0.40394,-0.08768 -1.08345,-0.54816 -1.2295,-0.16147c-0.25777,0.68245 0.62673,1.41876 0.48439,2.13424c-0.65409,3.28761 -1.8964,4.773 -3.57479,7.31401c0,0 -1.38678,2.08011 -3.46689,0.69333c-2.08011,-1.38677 -0.69333,-3.46688 -0.69333,-3.46688c1.34357,-1.99312 2.21209,-2.96466 2.82523,-5.48598c0.33816,-1.39054 -0.49479,-3.22214 0.48438,-4.26578c3.4184,-3.64347 5.09063,-1.28068 8.37054,-0.96147c1.67022,0.16255 4.2681,-1.49157 5.03433,0.0014c1.88518,3.67321 -0.95167,7.21152 -2.74535,9.90387l-0.66361,2.80107c0,0 -0.60632,2.42536 -3.03169,1.81903z" fill="#696969" stroke-width="0.5"></path>
      <path d="M245.28193,174.33606l0.30867,-0.66436c-0.80001,0.26667 -1.60002,0.53334 -2.40002,0.80002c0,0 -0.63565,0.21188 -1.35849,0.0872c-0.54694,0.57507 -1.1008,1.14534 -1.66433,1.70887c0,0 -1.76778,1.76775 -3.53554,-0.00002c-1.76775,-1.76778 0.00002,-3.53553 0.00002,-3.53553c3.8917,-3.89165 7.32469,-8.09616 11.19744,-11.99742l0.00337,-0.00179l-0.0008,-0.00079l2.40002,-2.39999v0c0.45241,-0.4524 1.07741,-0.73222 1.76776,-0.73222c1.38071,0 2.5,1.11929 2.5,2.5c0,0.18572 -0.02025,0.36672 -0.05867,0.5409l-0.78986,3.94938l-0.0086,-0.00172c-0.0012,0.01997 -0.00247,0.03994 -0.00376,0.05991c-0.2977,4.56972 -2.27354,9.81574 -3.18859,14.34646l-1.01443,2.22308c0,0 -1.11802,2.23607 -3.3541,1.11806c-2.23607,-1.11802 -1.11806,-3.3541 -1.11806,-3.3541l0.58555,-0.97693c0.20999,-1.03963 0.38559,-2.20271 0.56104,-3.42299c-0.4851,-0.07423 -0.82863,-0.24601 -0.82863,-0.24601zM247.02331,168.88534c-0.20597,0.22717 -0.41163,0.45458 -0.61716,0.6821l0.4609,0.12292c0.04994,-0.26988 0.10191,-0.53844 0.15626,-0.80501z" fill="#696969" stroke-width="0.5"></path>
      <path d="M258.23226,160.73224c1.9126,-1.68527 6.85524,-2.5299 8.59586,0.30598c1.83644,2.992 0.23735,8.26192 -1.99007,10.55043c-0.8118,0.83408 -2.16499,0.85538 -3.24748,1.28307l-3.10326,-0.82755c-0.64772,1.92006 -1.26263,3.82953 -1.62133,6.06687l0.03402,0.38897c0,0 0,2.5 -2.5,2.5c-2.5,0 -2.5,-2.5 -2.5,-2.5l0.03402,-1.21101c0.73164,-4.25044 2.24382,-7.32269 3.24063,-11.39532c0,0 0.36744,-1.46976 1.67439,-1.83495c0.44811,-1.11811 0.48221,-2.53256 1.38323,-3.32648zM259.98429,167.33456c0.20752,0.06626 0.33379,0.12939 0.33379,0.12939l-0.30861,0.66434c2.11649,-0.43202 2.72004,-1.95593 2.76246,-4.1665c0.00671,-0.34984 -0.83416,0.00012 -1.00412,0.30598c-0.23253,0.41848 -0.1307,0.94852 -0.19605,1.42279c0,0 -0.42521,1.27563 -1.58747,1.644z" fill="#696969" stroke-width="0.5"></path>
      <path d="M277.1098,168.93902l0.06075,0.02245c0.1542,2.3043 0.7833,4.62583 0.46261,6.91291c-0.58164,4.14806 -6.89841,11.24485 -11.66282,6.4852c-1.14126,-1.14013 0.11538,-3.24977 0.519,-4.81164c0.65614,-2.53905 1.84817,-4.67479 3.21332,-6.72488c-0.21825,-0.43357 -0.31059,-0.99899 -0.128,-1.72937c0.45634,-1.8254 1.94308,-1.93349 2.6507,-1.87527c0.30106,-0.42967 0.60035,-0.86377 0.89456,-1.30519c0,0 1.38676,-2.08012 3.46688,-0.69336c2.08012,1.38676 0.69335,3.46688 0.69335,3.46688c-0.05629,0.08441 -0.11309,0.16849 -0.17036,0.25227z" fill="#696969" stroke-width="0.5"></path>
      <path d="M287.20005,185.79999c-2.5,0 -2.5,-2.5 -2.5,-2.5l0.04854,-1.29028c0.23473,-1.15902 0.49126,-2.32072 0.79412,-3.4692c-1.45413,1.70575 -2.99254,3.34206 -4.5749,4.92727c0,0 -1.76777,1.76776 -3.53553,0c-1.76776,-1.76776 0,-3.53554 0,-3.53554c3.08299,-3.0771 5.48649,-7.44466 8.67912,-10.27026c1.45242,-1.28545 2.97669,-3.64669 4.86295,-3.19512c1.84803,0.44242 2.53022,3.11952 2.71941,5.01033c0.14717,1.47084 -1.2335,2.68716 -1.81315,4.04695c-1.01849,2.38924 -1.72668,4.91794 -2.22911,7.46614l0.04855,0.30971c0,0 0,2.5 -2.5,2.5z" fill="#696969" stroke-width="0.5"></path>
      <path d="M297.63891,182.84834l0.7258,3.66304c-0.4661,0.21275 -0.9322,0.4255 -1.3983,0.63824l0.42034,0.63054l-2.37158,1.58101c-0.40238,0.27679 -0.88986,0.43882 -1.41517,0.43882c-1.38071,0 -2.5,-1.11929 -2.5,-2.5c0,-0.22871 0.03071,-0.45026 0.08824,-0.66073l0.78639,-3.14559l0.05068,0.01267l-0.00404,-0.17551c1.99597,-4.96638 4.67778,-9.51759 7.435,-14.11705c0,0 1.28623,-2.14374 3.42997,-0.85752c2.14374,1.28623 0.85751,3.42997 0.85751,3.42997c-2.16902,3.61179 -4.37215,7.2339 -6.10484,11.06211z" fill="#696969" stroke-width="0.5"></path>
      <path d="M301.50003,185.70001c0,-1.38071 1.11929,-2.5 2.5,-2.5c1.38071,0 2.5,1.11929 2.5,2.5c0,1.38071 -1.11929,2.5 -2.5,2.5c-1.38071,0 -2.5,-1.11929 -2.5,-2.5z" fill="#696969" stroke-width="0.5"></path>
      <path d="M304.70005,178.5c0,-1.38071 1.11929,-2.5 2.5,-2.5c1.38071,0 2.5,1.11929 2.5,2.5c0,1.38071 -1.11929,2.5 -2.5,2.5c-1.38071,0 -2.5,-1.11929 -2.5,-2.5z" fill="#696969" stroke-width="0.5"></path>
      <path d="M358.50003,158.5c0,2.5 -2.5,2.5 -2.5,2.5l-2.88627,-0.35627c-1.70469,-1.28159 -4.38448,-1.84074 -5.11407,-3.84477c-0.14895,-0.40913 -0.14673,-0.92011 -0.02756,-1.49662c-1.73413,0.66147 -2.85219,-1.01558 -2.85219,-1.01558l-1.60005,-2.40001c-0.00027,-0.00042 -0.00055,-0.00082 -0.00082,-0.00124c-1.75084,1.18541 -3.47408,2.41538 -5.1442,3.75341l-2.5808,1.73629c0,0 -2.07523,1.39406 -3.46929,-0.68117c-0.55041,-0.81936 -0.56001,-1.53253 -0.37003,-2.09564c-0.03733,0.00032 -0.05782,-0.00053 -0.05782,-0.00053l-2.50071,-0.11589c-1.72352,-0.24963 -3.56454,-0.07543 -5.17056,-0.74887c-0.06948,-0.02913 -0.1382,-0.05961 -0.2062,-0.09133l-0.00997,0.02992l-2.34533,-0.78175c-1.02157,-0.31417 -1.76414,-1.26534 -1.76414,-2.38995c0,-1.12461 0.74257,-2.07578 1.76414,-2.38995l2.21886,-0.7396c2.35584,-1.17466 5.67944,-2.06911 7.27792,-4.32199c0.14034,-0.19779 -0.44352,0.22583 -0.68534,0.24426c-1.01379,0.07726 -2.06556,0.29492 -3.04992,0.04039c-1.34013,-0.34653 -2.49578,-1.19804 -3.74367,-1.79706c0,0 -2.23607,-1.11803 -1.11804,-3.3541c1.11804,-2.23607 3.3541,-1.11803 3.3541,-1.11803c0.88545,0.46765 1.68272,1.16898 2.65636,1.40295c2.34206,0.56279 6.97268,-1.47857 7.46469,3.48467c0.37964,3.82972 -2.16015,6.02458 -5.08615,7.6104l1.15019,0.0402c0,0 2.49788,0.10311 2.39476,2.60099c-0.0003,0.00724 -0.00062,0.01445 -0.00096,0.02164l0.91956,-0.61673c1.68845,-1.34887 3.42853,-2.59137 5.19579,-3.78952c-0.93563,-1.18329 -1.94496,-2.32267 -3.18003,-3.55076c0,0 -1.76775,-1.76779 0.00004,-3.53554c1.76779,-1.76775 3.53553,0.00003 3.53553,0.00003c1.47453,1.48209 2.68772,2.86927 3.8243,4.32996c1.13921,-0.74052 2.28166,-1.48268 3.42111,-2.24233c0,0 2.08011,-1.38677 3.46688,0.69334c1.38677,2.08012 -0.69334,3.46688 -0.69334,3.46688c-1.09598,0.73067 -2.1951,1.44441 -3.29135,2.15608l1.58472,2.37703c0,0 0.09414,0.14121 0.19658,0.37458c1.66217,-2.73251 4.21205,-5.50143 5.5666,-6.09749c1.26954,-0.55865 2.77114,-0.12686 4.15671,-0.1903c0,0 2.5,0 2.5,2.5c0,2.5 -2.5,2.5 -2.5,2.5c-3.4552,-0.2931 -3.02094,1.1078 -5.03774,3.55481c-0.39139,0.47487 -1.71226,0.74026 -1.36201,1.24623c0.57675,0.83316 1.92396,0.63681 2.88594,0.95522l0.3138,-0.35627c0,0 2.5,0 2.5,2.5z" fill="#696969" stroke-width="0.5"></path>
      <path d="M320.05146,189.39028c-0.49028,2.45146 -2.94173,1.96117 -2.94173,1.96117l-5.10846,-1.32946c-0.83303,-2.00862 -2.41093,-3.85315 -2.49908,-6.02588c-0.11683,-2.87998 4.63235,-7.90707 6.72345,-8.72922c1.19814,-0.47107 2.50997,0.57427 3.76496,0.8614c0,0 2.37171,0.79055 1.58116,3.16226c-0.79055,2.37171 -3.16226,1.58116 -3.16226,1.58116c-1.72808,-1.23306 -3.7143,1.57837 -3.91162,3.33219c-0.07807,0.69391 0.46726,1.31608 0.70088,1.97412l2.89154,0.27052c0,0 2.45146,0.49028 1.96117,2.94173z" fill="#696969" stroke-width="0.5"></path>
      <path d="M346.49996,197.71921c-0.01919,2.49992 -2.51911,2.48074 -2.51911,2.48074l-3.22798,-0.14708c-2.14018,-1.18413 -5.84125,-1.17607 -6.42056,-3.55241c-0.51907,-2.12925 2.69518,-3.4941 4.35341,-4.92707c1.86741,-1.61373 4.30584,-2.44157 6.27797,-3.92551c1.10926,-0.83468 2.2111,-1.67943 3.33227,-2.49805c0.25393,-0.18541 1.10371,-0.4753 0.79156,-0.51297c-1.6879,-0.2037 -3.38734,0.35979 -5.08748,0.36315c-1.06667,0.00211 -2.13334,0 -3.20001,0c0,0 -0.84003,0 -1.54621,-0.48693c-1.78649,0.76203 -3.66253,1.35072 -5.44536,2.09779l0.37831,0.209c0,0 2.08013,1.38675 0.69339,3.46688c-1.38675,2.08013 -3.46688,0.69338 -3.46688,0.69338l-2.23579,-1.63659c-1.38081,1.06091 -2.76413,2.14813 -4.38686,2.72818l0.17719,0.19606c0,0 -1.76777,1.76776 -3.53553,0c-1.76776,-1.76776 0,-3.53553 0,-3.53553l1.77716,-1.40392c1.55236,-0.45915 2.68512,-1.80031 3.99539,-2.76047c-0.72747,-3.03361 -1.01245,-5.92913 0.02347,-9.2584c0,0 0.79056,-2.37171 3.16227,-1.58115c2.37171,0.79056 1.58115,3.16227 1.58115,3.16227c-0.67406,1.82918 -0.5892,3.57933 -0.28172,5.35668c2.6318,-1.03354 5.37018,-1.82905 7.72328,-3.42739c0,0 2.08013,-1.38674 3.46688,0.69339c0.10041,0.15062 0.18264,0.2976 0.24881,0.44069c5.59704,-0.13986 13.78032,-0.13577 9.37508,7.89624c-0.30575,0.55748 -6.89261,5.68562 -7.98868,6.37584c-0.59262,0.3732 -1.1968,0.7487 -1.82709,1.06044l1.33095,-0.08638c0,0 2.49992,0.01919 2.48073,2.51912z" fill="#696969" stroke-width="0.5"></path>
      <path d="M299.20533,69.58718c-0.51849,-0.20947 -0.97262,-0.50682 -1.31549,-0.95603c0.14517,0.66053 0.26285,1.3274 0.35471,1.99711c0.32472,-0.38788 0.63883,-0.73345 0.96078,-1.04107zM298.97191,62.69514l-2.99225,0.59844c0.46551,0.88937 0.85973,1.81452 1.18815,2.76392c0.14911,-1.24988 0.92384,-2.43413 1.80411,-3.36237zM290.82774,56.96355c-0.13899,0.02396 -0.28191,0.03645 -0.42775,0.03645c-0.12741,0 -0.25259,-0.00953 -0.37488,-0.02792c0.16199,0.17175 0.32549,0.34168 0.49141,0.50871c0.0829,-0.18546 0.18774,-0.35898 0.31121,-0.51724zM287.9,54.5c0,-0.29693 0.05177,-0.58176 0.14676,-0.84598l0.44515,-1.33537c-0.65369,0.29812 -1.27492,0.54418 -1.30135,0.55306c-0.34223,0.11497 -0.68656,0.22303 -1.03259,0.32534c0.02884,0.02088 0.0575,0.04158 0.08598,0.06209c0.59803,0.43062 1.14343,0.92366 1.66432,1.4457c-0.00548,-0.06755 -0.00827,-0.13587 -0.00827,-0.20484zM266.96482,52.67658l0.12962,0.45364l-2.7593,0.78837c-2.38699,0.87551 -5.04493,1.22953 -7.4752,2.12888c-2.77729,1.02777 -5.7392,2.59475 -8.33129,4.55148c-0.04001,0.0768 -0.08672,0.14996 -0.14189,0.21854c-0.35556,0.44201 -0.85885,0.72275 -1.3657,1.00208c-1.07974,0.93928 -2.06392,1.95009 -2.90339,3.01919c3.68457,0.269 8.19622,1.84828 11.68501,2.43498l0.15784,0.14489l0.0301,-0.09032l2.34528,0.78176c1.02156,0.31418 1.76412,1.26534 1.76412,2.38994c0,1.38071 -1.11929,2.5 -2.5,2.5c-0.18572,0 -0.36672,-0.02025 -0.5409,-0.05867l-3.94938,-0.78986l0.00269,-0.01343c-0.02029,0.0004 -0.04058,0.00076 -0.06088,0.00107c-1.00763,0.0155 -1.95779,-0.35571 -2.90886,-0.74638c-1.4103,-0.24456 -2.81584,-0.51283 -4.29116,-0.85362c-0.12719,-0.02938 -0.25329,-0.06555 -0.37868,-0.10595c-1.55363,0.00092 -3.11856,0.16685 -4.67282,0.16685l-0.01132,-0.04113c-0.29305,0.07456 -0.58716,0.10236 -0.8846,0.03929c-1.72492,-0.36571 -3.94137,-0.88062 -4.66877,-2.48685c-0.13547,-0.29914 -0.15226,-0.59888 -0.09144,-0.89972c-0.30014,-1.08417 0.37601,-2.09837 0.37601,-2.09837c0.71312,-1.06557 1.35416,-2.12376 1.89501,-3.18863c0.79218,-3.55498 0.95777,-7.18269 1.21672,-10.81318c-0.00653,-0.02144 -0.01312,-0.04291 -0.01977,-0.06439l-0.2372,0.0593l-0.78639,-3.14563c-0.05752,-0.21046 -0.08824,-0.432 -0.08824,-0.66071c0,-1.38071 1.11929,-2.5 2.5,-2.5c1.12461,0 2.07577,0.74256 2.38994,1.76413l0.78176,2.34534v0c1.0164,3.16506 1.22509,6.09081 0.78774,8.89644c0.23886,-0.20253 0.48201,-0.40201 0.72895,-0.59835c0.16952,-0.61191 0.12801,-1.33849 0.52487,-1.82505c0.7272,-0.89156 1.92374,-1.27233 2.80174,-2.01586c1.72675,-1.46229 3.06086,-3.35244 4.79999,-4.79999c4.10116,-3.41356 9.35282,-6.29072 14.2283,-8.37635c2.0201,-0.86415 6.00716,-2.55584 8.15673,-2.59029c0.9737,-0.01561 1.83582,0.69848 2.80041,0.83227c1.99979,0.27737 4.06791,0.27872 5.99016,0.89603c2.92516,1.00024 4.81424,2.79199 7.50776,4.12592c2.64934,1.31206 5.61799,2.24145 7.81967,4.42965c3.41458,3.39368 5.64263,7.74741 7.72777,11.91775c1.17683,2.35369 2.03379,4.85594 3.20002,7.20001c0.48674,0.97832 1.4554,1.72079 1.74692,2.7739c1.04586,3.77827 0.34562,9.88219 -0.82101,13.51502l-4.32213,0.15507l-0.44961,2.35436c-1.36632,-0.00563 -2.6943,0.09353 -4.01273,0.22381c-0.4283,0.33804 -1.56221,1.04922 -2.78948,0.29664c-1.44054,0.1501 -2.89396,0.27526 -4.39774,0.27957c0,0 -0.16062,0.00001 -0.40042,-0.04071c-0.21319,0.13276 -0.41998,0.27092 -0.61286,0.42083c0,0 -2.08013,1.38674 -3.46687,-0.69339c-1.38675,-2.08013 0.69338,-3.46688 0.69338,-3.46688c0.52753,-0.23318 1.35801,-0.16828 1.58258,-0.69952c0.31605,-0.74764 -0.3533,-1.61407 -0.26353,-2.42078c0.19376,-1.74122 0.77187,-3.44759 0.7677,-5.19956c-0.00982,-4.12679 -0.95481,-8.77726 -4.06775,-11.83224c-0.68624,-0.67345 -1.72015,-0.92014 -2.40003,-1.60001c-0.67987,-0.67986 -0.92478,-1.71548 -1.59997,-2.39999c-2.21561,-2.2462 -5.61306,-3.63959 -8.2871,-5.20549c-0.22233,-0.13019 -0.42239,-0.2999 -0.61765,-0.47695c-0.72061,-0.07811 -1.34935,-0.46245 -1.75341,-1.02019c-2.19592,-0.42421 -4.04592,0.94447 -6.31376,0.49633c-0.49512,0.08613 -0.99399,0.15711 -1.49554,0.21511zM276.9,43.29999c0,0.34345 -0.06926,0.67073 -0.19457,0.96862c0.67528,-0.27465 1.36356,-0.55931 2.02833,-0.74844c-0.5147,-0.03603 -1.02823,-0.07775 -1.5342,-0.15246c-0.10225,-0.0151 -0.20184,-0.04152 -0.29957,-0.07572c0.00001,0.00267 0.00001,0.00533 0.00001,0.008zM282.18071,46.596c0.07758,-0.02033 0.15399,-0.04263 0.22876,-0.06771h0v0l2.3446,-0.78153c0.24322,-0.08744 0.5039,-0.13825 0.7754,-0.14577c-0.94107,-0.59879 -1.92484,-1.14419 -3.12001,-1.52926c-0.23323,-0.08169 -0.46979,-0.14925 -0.709,-0.20576c0.74761,0.66101 0.72792,1.64721 0.48024,2.73004zM287.98446,47.34652c0.05258,-0.01517 0.10532,-0.03013 0.15822,-0.04487c-0.07508,-0.04534 -0.14952,-0.09092 -0.22341,-0.1367c0.02398,0.05942 0.04575,0.11998 0.06519,0.18157zM302.56871,65.4485l1.1572,-0.8679c-0.01581,-0.03737 -0.03165,-0.07474 -0.0475,-0.11209c-0.38668,0.30142 -0.77738,0.61174 -1.10969,0.97999zM305.70618,70.56928c0.78652,0.30602 1.37987,0.99867 1.54659,1.84452c0.05106,-0.40466 0.06943,-0.80491 -0.0455,-1.18934c-0.15749,-0.52682 -0.57927,-0.91836 -0.95477,-1.33809zM306.9226,74.22148l-0.81019,1.35031c0.44776,0.27671 0.80166,0.69076 1.0029,1.18339c-0.00147,-0.92247 -0.03164,-1.86669 -0.01834,-2.86666c-0.04989,0.11577 -0.10827,0.22702 -0.17437,0.33296zM306.97663,79.3797c0.02031,-0.1544 0.03782,-0.30849 0.05287,-0.46243l-0.17646,0.52938c0.04132,-0.02393 0.08252,-0.04622 0.12359,-0.06695z" fill="#696969" stroke-width="0.5"></path>
      <path d="M352.10001,107.29999c0,2.5 -2.5,2.5 -2.5,2.5c-2.40001,0 -6.39998,0 -8.79998,0c0,0 -2.5,0 -2.5,-2.5c0,-2.5 2.5,-2.5 2.5,-2.5c2.40001,0 4.8,0 7.20001,0h1.59998c0,0 2.5,0 2.5,2.5z" fill="#696969" stroke-width="0.5"></path>
      <path d="M116.16773,279.1322c0.3185,0.31849 0.52223,0.63697 0.64222,0.94512c0.98921,0.10796 1.94163,0.31371 2.56919,0.69351c0.18831,-0.5885 0.46665,-1.16688 0.53959,-1.77626c0.12678,-1.05912 -0.13232,-2.14159 0,-3.20004c0.59897,-4.79145 0.76408,-9.18098 0.78132,-14.09455c0.00514,-1.46653 0.19679,-2.94221 0.03229,-4.3995c-0.10363,-0.918 -0.82487,-1.72126 -0.82751,-2.64509c-0.00426,-1.49171 0.63114,-2.92045 0.80738,-4.40172c0.04001,-0.33625 0.03095,-0.67593 0.01365,-1.01607c-2.3807,0.10608 -5.15667,-0.25888 -7.13529,0.43414l-2.34467,0.78153c-0.2642,0.09499 -0.549,0.14674 -0.84591,0.14674c-1.38071,0 -2.5,-1.11929 -2.5,-2.5c0,-0.82831 0.40283,-1.56253 1.02327,-2.01745l3.17673,-2.38257l0.04694,0.06259c0.12224,-0.11052 0.2483,-0.21731 0.37864,-0.31994c1.17659,-0.92642 2.87379,-0.98757 4.37037,-1.0408c0.84274,-0.02998 1.55762,0.76148 2.40002,0.79999c0.52184,0.02386 1.06591,-0.12879 1.60698,-0.29919c0.35553,-1.98048 0.60044,-3.99226 0.59707,-6.00264c-0.00401,-2.39504 -0.79725,-4.74549 -0.79928,-7.14054c-0.00206,-2.43443 0.46447,-4.84813 0.79928,-7.25942c0.1077,-0.77566 0.92914,-1.47433 0.73224,-2.23227c-0.11178,-0.43028 -0.70855,0.56282 -1.1268,0.7135c-0.95728,0.34489 -1.964,0.53574 -2.95699,0.75781c-2.06425,0.46164 -4.15254,0.85964 -6.15787,1.53262c0,0 -2.37171,0.79057 -3.16228,-1.58114c-0.79057,-2.37171 1.58114,-3.16228 1.58114,-3.16228c2.9909,-0.99099 6.94021,-2.46313 10.08509,-2.50956c1.77357,-0.02618 4.06766,-0.58758 5.27323,0.7135c1.31722,1.42158 0.58124,3.83566 0.73223,5.7678c0.18661,2.3878 -0.79833,4.74541 -0.80069,7.14048c-0.00101,1.01859 0.67029,1.94158 0.78196,2.95403c0.06026,0.54635 -0.01342,9.50474 -0.01355,9.50589c-0.05609,0.48283 -0.57667,1.99778 -1.1471,3.437c0.12758,0.46264 0.23469,0.92868 0.34712,1.36211c0.62644,2.41512 -0.76387,4.95011 -0.7726,7.44513c-0.00267,0.76305 0.68959,1.39631 0.77259,2.15483c0.71861,6.56691 0.01918,13.4609 -0.7865,19.90597c-0.31989,2.55899 0.15564,9.65909 -3.26989,10.85919c-1.45964,0.51137 -2.86498,-1.16685 -4.30974,-1.71886c-1.41197,-0.53947 -2.99018,-0.56322 -4.50161,-0.54579l-0.16783,-5.86777c0,0 1.76773,-1.7678 3.53553,-0.00006z" fill="#696969" stroke-width="0.5"></path>
      <path d="M145.62316,253.23195c-4.32262,0.85861 -8.47952,0.7465 -12.69887,-0.2264c-0.61274,2.95829 -1.35965,5.89622 -1.63278,8.90064c-0.33765,3.71409 0.36213,7.52611 -0.00365,11.24016c-0.25415,2.58053 -0.79422,5.14622 -0.78786,7.73912c0.00003,0.00484 0.00004,0.00969 0.00004,0.01454c0,0.31597 -0.05862,0.61826 -0.16558,0.89657c-0.24366,0.71716 -0.84591,1.60343 -2.33442,1.60343c-1.48852,0 -2.09076,-0.88628 -2.33443,-1.60343c-0.10695,-0.27831 -0.16558,-0.58059 -0.16558,-0.89657c0,-0.00552 0.00002,-0.01103 0.00006,-0.01654c0.00996,-2.75645 0.53345,-5.48736 0.8121,-8.2298c0.37382,-3.6791 -0.33872,-7.47395 -0.00365,-11.15987c0.32084,-3.52929 1.29824,-6.95956 1.93947,-10.43993c-0.34448,-0.49372 -0.5374,-1.19145 -0.21971,-2.14448c0.17037,-0.51107 0.41414,-0.8753 0.69179,-1.13224c0.57987,-5.88017 1.01836,-12.13858 2.45456,-17.88344c0.76816,-3.07267 0.63174,-5.88356 1.62509,-8.8927c0.47049,-1.42525 0.34367,-3.23576 1.43252,-4.26877c1.18537,-1.12457 3.10821,-1.00899 4.66232,-1.51348c3.63828,-0.01944 6.66851,0.34589 10.21088,0.79998c1.18213,0.15153 5.55273,-0.24884 6.49503,0.01355c1.52526,0.42471 3.4392,0.78125 4.23557,2.14967c0.69355,1.19174 -0.40577,2.72772 -0.60292,4.09241c-0.39279,2.71876 -0.90326,5.42835 -1.62029,8.08011c-1.20809,4.46777 -2.17022,8.98063 -3.17373,13.49401c-0.68164,3.06576 -1.97496,6.24278 -2.35785,9.35697c-0.73463,5.9751 -2.16517,12.23816 -4.10956,18.08515c-0.82846,2.4854 -1.52882,4.99736 -2.28415,7.49618c0.13327,0.86187 -0.25149,1.63135 -0.25149,1.63135l-0.24757,-0.01414c-0.13582,0.42959 -0.27444,0.85854 -0.41682,1.28664l-1.51602,-1.39699l-3.22736,-0.18426c1.15095,-3.44388 2.04988,-6.94955 3.19999,-10.3999c1.14282,-3.41993 1.42025,-6.8257 2.3642,-10.2831c0.36032,-1.31975 1.25435,-2.46399 1.55262,-3.79913c0.12947,-0.57952 0.0538,-1.17857 -0.00487,-1.77751c-0.68242,-0.04042 -1.23955,-0.40065 -1.51709,-0.61779zM145.79366,248.07468l1.91661,0.88008c1.08449,-5.57982 2.91378,-11.26055 4.26438,-16.66111c0.51728,-2.06843 1.25791,-4.08226 1.67496,-6.1732c0.31133,-1.56089 -0.27756,-3.88591 0.80971,-5.10632c-0.81186,0.08301 -1.64075,-0.01587 -2.45928,-0.01412c-1.1685,0.00251 -2.34558,0.12289 -3.50547,-0.01873c-3.14971,-0.38457 -5.76248,-0.77911 -8.98907,-0.79999c-0.57924,0.02883 -1.35978,-0.35342 -1.7377,0.08649c-0.46435,0.54052 -0.01924,1.43419 -0.16746,2.13119c-0.36441,1.71366 -0.49746,3.4686 -0.71907,5.2065c-0.27815,2.18132 -1.33301,4.21726 -1.59998,6.39997c-0.57046,4.66386 -1.09325,9.3977 -1.56534,14.05927c4.00223,0.98527 7.95579,1.0679 12.07771,0.00997z" fill="#696969" stroke-width="0.5"></path>
      <path d="M182.82068,281.84212c0.41458,0.58317 1.06835,1.90441 -0.2529,3.22566c-1.76776,1.76776 -3.53553,0 -3.53553,0l-1.40394,-3.35831c1.18812,-3.55547 1.76792,-7.17944 2.30396,-10.80991c0.30698,-2.07914 -0.26829,-4.21886 -0.01355,-6.30505c0.68197,-5.58512 1.87854,-10.79122 3.25592,-16.30085c0.50915,-1.98381 0.48067,-4.06801 0.74408,-6.09911c0.44969,-3.46755 2.45183,-5.88243 3.24815,-9.06895c0.23214,-0.92891 -0.16004,-1.92025 -0.05471,-2.87192c0.10906,-0.9854 1.29505,-6.61488 1.74317,-7.82104c0.28698,-0.77242 0.57387,-1.56834 0.96927,-2.2934c-0.75816,-0.15306 -1.56401,-0.67711 -2.22504,-0.77154c-3.1668,-0.45241 -5.45389,-0.61694 -8.55788,-0.05147c-0.39685,0.07229 -0.97161,-0.24496 -1.20732,0.08239c-0.9757,1.355 0.05407,3.35002 -0.15304,5.00686c-0.3813,3.05022 -0.73977,6.26534 -1.681,9.19348c-0.71377,2.78603 -1.11938,5.70309 -1.53256,8.50147c-0.31161,2.11046 0.30165,4.28811 0,6.40001c-0.27002,1.8905 -1.35932,3.60888 -1.58649,5.50501c-0.31368,2.61831 -0.06609,5.37452 -0.97155,7.85123c-0.79625,2.17798 -2.39373,4.01386 -3.13098,6.21251c-0.40243,1.20015 -0.38325,2.55897 -1.00322,3.66258c-0.5693,1.01342 -1.80141,1.51719 -2.44885,2.48256c-0.42476,0.63333 -0.3387,1.50258 -0.68089,2.18408c-1.95184,3.88723 -3.95737,6.79923 -8.74168,6.99973c-1.07584,0.04509 -2.0631,-0.61762 -3.09464,-0.92643c0,0 -2.37172,-0.79055 -1.58117,-3.16226c0.79055,-2.37171 3.16227,-1.58116 3.16227,-1.58116c4.76678,1.88261 4.64401,-3.06696 6.68287,-6.14264c0.60799,-0.91717 1.79674,-1.3668 2.35108,-2.31736c0.47047,-0.80675 0.30304,-1.85092 0.59676,-2.73745c0.77095,-2.32696 2.38323,-4.30183 3.26904,-6.58754c0.79244,-2.04478 0.34674,-4.37401 0.62843,-6.5488c0.25344,-1.95669 1.3345,-3.74174 1.61358,-5.69494c0.30176,-2.1119 -0.29309,-4.28692 0,-6.40004c0.4151,-2.99272 0.93418,-6.10761 1.66739,-9.09849c0.90408,-2.59345 1.17745,-5.67365 1.51907,-8.4065c0.36853,-2.94801 -0.87509,-4.97751 1.44694,-7.79313c0.82711,-1.00294 2.3426,-1.16057 3.5926,-1.51765c4.42666,-1.26451 8.71229,-0.33335 13.04215,0.74855c1.59475,0.39848 3.84997,-0.31548 4.82764,1.00594c1.59207,2.15185 -1.398,6.12064 -2.08335,7.92916c-1.25612,3.31468 -0.69734,6.85079 -1.51163,10.10697c-0.50301,2.01144 -1.85779,3.73259 -2.43279,5.72464c-0.9227,3.1966 -0.77923,6.25251 -1.57497,9.50732c-0.67871,2.7149 -2.02885,5.84784 -2.35761,8.59412c-0.95625,7.9882 -0.60766,15.96762 -2.84708,23.74169z" fill="#696969" stroke-width="0.5"></path>
      <path d="M204.15481,222.80397c-0.73672,1.38751 -0.71645,3.15745 -0.86696,4.74239c-0.37438,3.94249 -1.0491,8.25066 -1.62009,12.15414c-0.42689,2.91836 -2.02487,5.74099 -2.38646,8.70496c-0.4216,3.45584 -0.40501,6.93854 -0.79999,10.40003c-0.61464,5.3865 -2.61639,10.55184 -3.19345,15.94088c-0.24186,2.25867 -0.32299,4.55336 -0.86246,6.75995c-0.24239,0.83258 -0.71612,1.63067 -0.72719,2.49775c-0.07597,5.95184 8.09112,3.99596 11.9018,3.99596c1.74292,0 3.56108,0.82921 5.22037,0.29582c0.37296,-0.11989 0.3727,-0.70291 0.44427,-1.08808c0.46129,-2.48278 0.26533,-5.05377 0.67401,-7.54575c0.94341,-5.75252 2.65511,-11.53375 3.16986,-17.36818c0.39432,-4.46938 0.56626,-8.7034 1.6439,-13.10294c0.98094,-5.88576 2.34948,-11.67907 3.17986,-17.49137c0.40452,-2.83149 0.87175,-5.11092 0.7865,-8.09404c-0.01727,-0.6042 0.21882,-1.33037 -0.15309,-1.80686c-0.27937,-0.35793 -0.92274,0.00815 -1.35623,-0.12694c-0.46267,-0.14417 -0.80745,-0.81133 -1.27759,-0.69382c-0.81325,0.20326 -1.19876,1.29375 -2.00734,1.51486c-2.51306,0.68723 -4.28776,-0.27305 -6.72405,0.07499c-0.96406,0.13772 -1.82676,0.84787 -2.80048,0.83227c-0.77646,-0.01245 -1.5097,-0.31164 -2.24518,-0.59602zM199.97976,220.08959c0.17326,-0.46813 0.49174,-0.82097 0.77038,-1.05853c0.37036,-0.33848 0.96481,-0.72437 1.72427,-0.68511l2.3162,-0.61764c1.11058,0.4635 2.41765,0.07417 3.60897,-0.09601c2.00513,-0.28644 4.13567,0.65615 6.076,0.075c1.0415,-0.31195 1.71355,-1.55205 2.79259,-1.68516c0.77345,-0.09541 6.48388,1.78107 6.96614,2.37926c1.75395,2.17554 1.47059,5.55913 1.46574,8.09865c-0.01522,7.98451 -2.73085,15.77975 -4.05238,23.70904c-1.0676,4.17403 -1.16029,8.26178 -1.55617,12.49716c-0.56,5.99129 -2.26396,11.92746 -3.23016,17.83177c-0.64531,3.94335 0.7192,9.69435 -3.68164,12.16621c-0.65465,0.36771 -6.40778,0.29582 -7.57968,0.29582c-4.7722,0 -10.87191,1.25279 -14.68863,-2.46204c-0.83406,-0.81179 -0.90014,-2.1483 -1.28305,-3.2474c-0.35425,-1.01684 -0.91818,-2.0179 -0.92643,-3.09465c-0.01022,-1.33286 0.58185,-2.60152 0.87278,-3.90228c0.50422,-1.96461 0.50623,-4.02492 0.73752,-6.03997c0.62361,-5.43306 2.62116,-10.63117 3.20657,-16.05912c0.37386,-3.4665 0.35879,-6.9458 0.79999,-10.40001c0.38586,-3.02096 2.00221,-5.93121 2.41358,-8.89502c0.83992,-6.05145 0.25927,-13.44744 3.24743,-18.80995z" fill="#696969" stroke-width="0.5"></path>
      <path d="M226.4,290.60001c-2.5,0 -2.5,-2.5 -2.5,-2.5l0.12831,-2.39058c0.56875,-1.62369 0.47286,-3.40828 0.69047,-5.11489c0.40516,-3.17736 1.60254,-6.493 2.39996,-9.59997c0,-3.48518 1.17739,-6.22445 1.60004,-9.60006c0.26897,-2.14821 -0.28388,-4.35048 0.01355,-6.49493c0.86083,-6.20641 1.56769,-12.4213 1.56769,-18.79957c0,-2.93677 -1.10712,-9.48642 1.83821,-11.62808c1.18078,-0.85859 2.91585,-0.21545 4.35631,-0.45316c3.90274,-0.64403 5.9385,-1.87527 9.89603,-0.69049c0,0 2.37171,0.79057 1.58114,3.16228c-0.79057,2.37171 -3.16228,1.58114 -3.16228,1.58114c-2.97522,-1.17509 -4.5697,0.68191 -7.70394,0.9096c-0.69595,0.05056 -1.35622,-0.57255 -2.04371,-0.45316c-0.26251,0.04559 0.18822,0.50647 0.20595,0.77232c0.06211,0.93118 0.02785,1.86632 0.03229,2.79955c0.01755,3.69753 0.38171,7.83453 -0.01873,11.50546c-0.4397,4.03089 -1.02688,8.12172 -1.61353,12.095c-0.30698,2.07913 0.2739,4.21951 0.01354,6.30499c-0.43187,3.45932 -1.60003,6.05574 -1.60003,9.60002c-0.75476,3.08722 -2.0141,6.44525 -2.39997,9.59997c-0.249,2.03576 -0.2825,4.13249 -0.90962,6.08519l0.1283,0.80937c0,0 0,2.5 -2.5,2.5z" fill="#696969" stroke-width="0.5"></path>
      <path d="M265.06535,286.40097c0.13274,0.16235 0.2575,0.35448 0.37078,0.58104c1.118,2.23609 -1.11809,3.35408 -1.11809,3.35408l-5.08974,-2.22667c0.26666,-0.8 0.53333,-1.59998 0.79999,-2.39998c3.13888,-9.39246 5.53861,-19.01973 7.94635,-28.61582c0.76964,-3.06741 2.84765,-6.32003 3.15765,-9.39406c0.08106,-0.80383 0.03339,-1.61448 -0.01002,-2.42474c-5.30232,9.74885 -10.07929,19.76416 -16.24212,29.01191c-1.00506,1.50816 -2.22816,2.88846 -3.03436,4.51164c-1.2437,2.50405 -1.89102,7.03984 -4.47801,8.66938c-0.13908,0.08761 -0.28098,0.1693 -0.42532,0.24582l0.04434,0.06651l-2.37152,1.58107c-0.4024,0.27682 -0.88989,0.43886 -1.41523,0.43886c-1.38071,0 -2.5,-1.11929 -2.5,-2.5c0,-0.22871 0.03071,-0.45026 0.08823,-0.66072l0.78639,-3.14562l0.02774,0.00693l-0.00268,-0.09956c3.10562,-9.33893 4.53275,-18.68411 5.51244,-28.34737c0.65893,-6.49936 3.20529,-12.79521 4.00656,-19.25913c0.53108,-4.28429 1.11871,-8.28724 2.50958,-12.4851c0,0 0.79055,-2.37172 3.16226,-1.58117c2.37171,0.79055 1.58116,3.16227 1.58116,3.16227c-1.30602,3.89176 -1.7925,7.56277 -2.29047,11.51491c-0.80912,6.42164 -3.35761,12.68899 -3.99344,19.1409c-0.59731,6.06112 -1.38564,12.02477 -2.63567,17.93132c0.39857,-0.64286 0.81945,-1.29226 1.26772,-1.96443c4.58261,-6.87155 8.54101,-14.20609 12.66567,-21.37349c1.03084,-1.79128 1.4321,-3.8972 2.45221,-5.69461c2.52623,-4.45115 4.98522,-9.1329 7.87599,-13.35654c0.26666,-1.06667 0.53332,-2.13334 0.79998,-3.20001l0.3674,-0.26788l-0.16124,-0.10749l1.57846,-2.3677c0.44513,-0.68926 1.2201,-1.14551 2.10163,-1.14551c1.38071,0 2.5,1.11929 2.5,2.5c0,0.29691 -0.05176,0.58173 -0.14675,0.84593l-0.75317,2.25951c-0.16791,4.73209 -3.43533,9.41253 -3.93236,14.095c-0.16888,1.59106 0.19086,3.21141 0,4.79998c-0.15902,1.32362 -2.21797,5.95816 -2.48895,6.76877c-0.67928,2.03201 -1.03355,4.15858 -1.5534,6.2371c-2.08529,8.33748 -4.27986,16.71382 -6.96001,24.89464z" fill="#696969" stroke-width="0.5"></path>
      <path d="M306.39058,224.12832c2.37171,0.79057 1.58114,3.16228 1.58114,3.16228l-0.70398,2.00985c0.0156,1.3526 0.03888,2.60594 -0.00876,3.83196c0.11921,0.69167 -0.06968,1.30342 -0.08612,1.35465c-0.11917,1.30561 -0.35375,2.61041 -0.80112,4.00349c0,0 -0.14531,0.43591 -0.4982,0.87167c-1.00007,4.79702 -1.34472,9.79423 -1.78697,14.59667c-0.24596,2.67088 0.33657,5.38624 -0.00529,8.04655c-0.28027,2.18106 -1.3268,4.21807 -1.59998,6.40003c-0.55809,4.45774 0.48796,9.12663 0,13.59997c-0.32601,2.98865 -0.83931,5.84269 -1.60868,8.69587c0.17393,0.89577 -0.23656,1.71675 -0.23656,1.71675l-0.25311,-0.01444c-0.13094,0.42826 -0.26794,0.85709 -0.41123,1.28696l-1.51609,-1.39695l-3.22733,-0.18419c1.18791,-3.56371 1.8687,-6.99292 2.29046,-10.7149c0.50652,-4.47001 -0.558,-9.12997 0,-13.59997c0.2724,-2.18206 1.3172,-4.21929 1.59998,-6.40003c0.27391,-2.11231 -0.04877,-4.25989 -0.06326,-6.39198c-0.28383,0.19167 -0.64479,0.33225 -1.10382,0.37983c-0.43898,0.46579 -0.89949,0.90419 -1.43729,1.24428c-2.74219,1.73406 -6.30979,1.25678 -9.42583,1.18223c-0.79428,4.06729 -1.75522,8.12846 -2.20729,12.19657c-0.38298,3.44642 0.46397,7.0522 -0.01355,10.49499c-0.28927,2.08553 -0.554,3.87936 -0.68377,5.84807c1.74075,1.76232 -0.01619,3.51925 -0.01619,3.51925l-5.06775,-0.96778c0,-3.28533 0.36768,-6.05385 0.83227,-9.20043c0.49281,-3.33775 -0.38697,-6.94431 -0.01355,-10.30506c0.26933,-2.4239 1.32917,-4.71636 1.59347,-7.14081c0.66611,-6.11019 1.5739,-11.98579 1.58781,-18.15368c0.00384,-1.70182 -0.15089,-3.41209 0.01873,-5.10544c0.33892,-3.38342 2.18349,-5.91952 0.90956,-9.30397c0,0 -0.7906,-2.37169 1.58109,-3.1623c2.37169,-0.7906 3.1623,1.58109 3.1623,1.58109c1.31768,4.28648 -0.26986,7.28223 -0.69041,11.49608c-0.39481,3.95595 0.43749,8.04321 0,12c-0.04495,0.40656 -0.09498,0.813 -0.1494,1.21932c3.30872,0.09241 5.25495,0.28147 7.90034,-2.49253l3.3772,2.03191c0.56558,-6.37781 1.13122,-12.99328 3.10675,-19.11249c0.08994,-1.53637 0.00123,-3.08976 0.01614,-4.75214l0.896,-2.79008c0,0 0.79057,-2.37171 3.16228,-1.58114z" fill="#696969" stroke-width="0.5"></path>
      <path d="M314.3777,266.41493c-0.03938,1.70402 0.30147,3.43405 0.11017,5.13144c-0.59479,5.27776 -2.42014,10.02501 -2.42014,15.35413c-0.26666,0.79999 -0.46227,1.62729 -0.79999,2.39997c-0.16645,0.38081 -0.99383,0.73791 -0.69995,1.03179c0.29388,0.29388 0.65098,-0.53351 1.03179,-0.69995c0.77268,-0.33772 1.5647,-0.68413 2.39997,-0.79999c2.59324,-0.35969 6.40299,0.89076 8.82083,0.26354c1.0994,-0.28519 0.29201,-2.26015 0.27963,-3.39586c-0.01599,-1.46677 -0.14591,-2.94446 0.03228,-4.40045c0.10244,-0.83702 0.69539,-1.56321 0.79999,-2.39996c0.62282,-4.98255 0.49894,-9.05854 2.67624,-13.59652c0.11046,-0.23021 -0.35657,0.426 -0.60896,0.4647c-0.84125,0.12898 -1.7083,-0.08259 -2.55316,0.02011c-2.7326,0.33216 -3.50655,0.69548 -5.85582,1.48386zM315.40164,261.60582c0.53092,0.06537 0.91643,0.25813 0.91643,0.25813l-0.30861,0.66434c3.22743,-1.06934 7.34058,-2.59091 10.79098,-1.69598c1.50747,0.39099 3.49205,0.67302 4.19109,2.06467c0.76848,1.52989 -0.28175,3.41816 -0.59119,5.10201c-0.46753,2.54413 -1.2124,5.13983 -1.53262,7.70151c-0.26668,2.13331 -0.52711,4.26741 -0.79998,6.39994c-0.50482,3.94504 1.66881,8.75839 -2.88804,11.40377c-2.49286,1.44718 -7.55339,-0.1537 -10.37924,0.26353c-0.83421,0.12317 -1.55678,0.78913 -2.39997,0.79999c-1.80441,0.02323 -4.09222,0.57606 -5.36824,-0.69995c-2.15784,-2.15784 -0.64029,-5.54723 0.10004,-7.7682c0,-5.21972 1.81641,-9.88608 2.37991,-15.0459c0.23718,-2.17181 -0.28003,-4.39013 0.02011,-6.55414c0.11586,-0.83526 0.67682,-1.56575 0.79999,-2.39997c0.42613,-2.88606 -0.03957,-6.27856 -0.03228,-9.19958c0.00628,-2.51666 0.49872,-5.00923 0.81871,-7.50546c0.77231,-6.02468 -0.61547,-11.88252 0.8559,-17.90085c0,0 0.60633,-2.42537 3.03169,-1.81904c2.42536,0.60633 1.81903,3.03169 1.81903,3.03169c-1.15936,4.51718 -0.71238,9.15072 -0.72535,13.7937c-0.00629,2.25173 -0.56518,4.468 -0.81871,6.70541c-0.46079,4.06644 0.41008,8.30548 0.12035,12.40037z" fill="#696969" stroke-width="0.5"></path>
      <path d="M356.9,291.30002c0,2.5 -2.5,2.5 -2.5,2.5l-2.39053,-0.12829c-4.37587,-1.53267 -7.39398,0.84592 -11.70398,0.90954c-1.77357,0.02618 -4.03034,0.55198 -5.27323,-0.7135c-1.26448,-1.28746 -0.7433,-3.56419 -0.69995,-5.36823c0.0482,-2.00558 1.34697,-2.92948 1.59998,-4.79998c0.44799,-3.31203 0.46904,-6.33817 1.60003,-9.59999c-0.01457,-1.26295 -0.08904,-6.43622 -0.01355,-7.10501c0.10865,-0.9626 0.78042,-1.82992 0.7831,-2.79862c0.00206,-0.74412 -0.66582,-1.35866 -0.76955,-2.09551c-0.07402,-0.52583 -0.00614,-7.95069 0,-8.00085c0.19701,-1.60978 1.06665,-3.19942 0.79999,-4.79913c-0.67944,-4.07593 -1.45457,-8.46409 -0.81354,-12.70591c0.23987,-1.58721 0.40241,-3.37429 1.44696,-4.59319c0.89853,-1.04851 2.484,-1.27831 3.83388,-1.56908c2.91839,-0.62863 6.9994,-0.07747 10.00043,-0.03228c1.30851,0.0197 2.66732,-0.25618 3.92449,0.10728c1.15616,0.33426 2.04152,1.2751 3.06227,1.91266c0,0 2.0801,1.38679 0.69331,3.46689c-1.38678,2.0801 -3.46689,0.69331 -3.46689,0.69331c-2.90838,-2.15479 -7.04508,-1.16093 -10.61321,-1.18014c-1.2552,-0.00675 -3.11278,-1.07345 -3.76567,-0.00138c-0.31439,0.51623 -0.14014,1.20254 -0.15302,1.80684c-0.06317,2.96404 -0.34617,5.94813 -0.01355,8.89413c0.09461,0.83793 0.6954,1.56322 0.79998,2.39997c0.26666,2.13365 -0.52706,4.26808 -0.79998,6.40094c-0.27074,2.11577 -0.30611,4.28812 0,6.39906c0.13533,0.93329 0.8284,1.76148 0.83042,2.70454c0.00264,1.23096 -0.68301,2.37774 -0.81688,3.6014c-0.26444,2.41726 0.00825,4.86343 -0.01355,7.29501c-1.07272,3.32754 -1.09845,6.23585 -1.60004,9.59996c-0.018,0.12071 -1.36885,4.29926 -1.59998,4.8c-0.17417,0.37734 -1.03312,0.78335 -0.69995,1.03179c0.35639,0.26576 0.70854,-0.56282 1.12679,-0.7135c0.95729,-0.3449 1.96352,-0.53794 2.957,-0.75781c4.08682,-0.90447 6.97001,-1.20717 10.93899,0.06739l0.80942,-0.12829c0,0 2.5,0 2.5,2.5z" fill="#696969" stroke-width="0.5"></path>
      <path d="M361.99995,289.29994l-2.16769,-1.36775c3.16056,-3.13614 4.88158,-7.25507 7.99997,-10.39993c0.92275,-0.93057 2.22326,-1.42536 3.15165,-2.3503c0.63965,-0.63727 0.89475,-1.5817 1.48276,-2.2669c3.12829,-3.64534 6.80267,-6.97348 10.29295,-10.34549c-5.09208,-0.112 -10.277,-0.55059 -15.16001,-1.60181c-1.50572,-0.32416 -3.54716,0.45396 -4.56733,-0.69996c-1.17485,-1.32889 -0.7316,-3.49956 -0.7135,-5.27323c0.01122,-1.09944 0.66019,-2.10943 0.79998,-3.20001c0.55509,-4.33029 -0.25648,-8.9304 -0.01873,-13.29452c0.0994,-1.82467 -0.49003,-3.90805 0.47188,-5.46176c1.57651,-2.54641 5.19421,-1.58217 7.38181,-1.82612c4.60915,-0.51399 8.8671,-0.82367 13.54086,-0.79343c1.31072,-0.26068 2.63849,-1.11729 3.93215,-0.78204c6.12986,1.58856 5.12007,9.96779 4.441,14.86377c-0.57943,4.17754 -1.10594,8.46478 -1.58642,12.70499c-0.47668,4.2067 0.4248,8.58188 0,12.79999c-0.24437,2.42656 -1.32408,4.71698 -1.59341,7.1409c-0.29302,2.63706 0.22168,5.31555 0.00365,7.95987c-0.2364,2.86698 -0.79799,5.71706 -0.79153,8.59377c0,0 0,2.5 -2.5,2.5c-2.5,0 -2.5,-2.5 -2.5,-2.5c0.0061,-3.01414 0.55548,-6.0027 0.80856,-9.0062c0.22503,-2.67058 -0.29229,-5.37647 0.00365,-8.04012c0.27366,-2.4631 1.36194,-4.79297 1.60654,-7.25913c0.11226,-1.13175 0.13119,-2.27336 0.10767,-3.41956c-3.41715,3.296 -7.0396,6.54336 -10.09307,10.11004c-0.66339,0.7749 -0.99714,1.81047 -1.7172,2.53302c-0.95731,0.96062 -2.28499,1.4952 -3.24837,2.44975c-2.69293,2.66821 -4.37979,6.16152 -6.81834,9.09465c-0.19263,0.31628 -0.38169,0.50534 -0.38169,0.50534l-0.03297,-0.0208c-0.24702,0.28012 -0.50216,0.55416 -0.76704,0.82081zM386.23324,257.60001c0.02098,-0.33592 0.04905,-0.67112 0.08552,-1.00547c0.25081,-2.29925 0.77696,-4.58167 0.78125,-6.89456c0.00907,-4.88431 1.61156,-9.86773 1.0958,-14.82036c-0.10809,-1.03798 -2.09973,0.17332 -3.09033,0.50164c-4.72161,0.02523 -9.00676,0.29161 -13.65909,0.80655c-1.00915,0.1117 -2.03234,0.03987 -3.04588,-0.02012c-0.26599,-0.01575 -0.73833,-0.47018 -0.77238,-0.20591c-0.10997,0.85352 0.40135,1.68056 0.47188,2.53824c0.28066,3.41295 0.00957,6.97378 0,10.39996c-0.00907,3.24651 0.25005,3.65006 -0.81871,6.70548c-0.14679,0.41963 -1.12889,0.96838 -0.7135,1.12679c0.61101,0.23303 1.17894,-0.7154 1.8327,-0.69995c0.84303,0.01993 1.56575,0.67682 2.39997,0.79999c2.11046,0.31161 4.2869,-0.29309 6.40001,0c2.94364,0.40828 5.30615,0.76771 8.39954,0.76771z" fill="#696969" stroke-width="0.5"></path>
      <path d="M201.70004,205.70001c0,2.5 -2.5,2.5 -2.5,2.5h-0.80005c-1.75185,-0.0202 -3.46418,0.52701 -5.19953,0.76771c-4.48391,0.62192 -9.46331,0.03228 -14.00042,0.03228c-3.0834,0 -5.89573,0.31508 -8.80004,-0.79999c-4.09792,1.57338 -8.19646,0.14712 -12.39954,0.76771c-0.83422,0.12317 -1.56186,0.70688 -2.39996,0.79999c-2.40031,0.26667 -4.81872,-0.40289 -7.20093,-0.79999c-2.84445,-0.47415 -4.5058,1.2732 -7.19909,1.6c-2.52784,0.30673 -5.05409,-0.76774 -7.60047,-0.76774c-0.99938,0 -1.90289,0.65733 -2.89455,0.78129c-6.04762,0.75597 -12.13296,-0.78716 -18.0991,0.74408c0,0 -2.42536,0.60633 -3.03169,-1.81903c-0.60633,-2.42536 1.81903,-3.03169 1.81903,-3.03169c6.24759,-1.52741 12.41707,-0.0704 18.70083,-0.8559c1.19067,-0.14884 2.30554,-0.81875 3.50548,-0.81875c2.28343,0 4.53522,1.12706 6.79955,0.8323c3.38433,-0.44056 5.01253,-2.07348 8.80091,-1.60001c0.83677,0.10458 1.56522,0.68071 2.40002,0.79999c3.10851,0.44414 6.05068,-0.81732 9.19953,-0.83227c3.41811,-0.01623 6.30391,0.17958 9.59997,-0.79999c4.84262,1.43916 10.16097,0.79999 15.20002,0.79999c2.26655,0 4.55733,0.36334 6.79957,0.03228c1.99763,-0.29495 3.98121,-0.81416 6.00042,-0.83227h0.80005c0,0 2.5,0 2.5,2.5z" fill="#696969" stroke-width="0.5"></path>
      <path d="M176.63606,194.98197c1.11803,2.23607 -1.11803,3.3541 -1.11803,3.3541l-2.71801,1.06392c-2.03153,0 -4.07818,-0.26643 -6.09456,-0.01873c-1.89543,0.23284 -3.61451,1.31644 -5.505,1.58646c-2.11191,0.30164 -4.28956,-0.31161 -6.40002,0c-0.83422,0.12317 -1.5647,0.68414 -2.39996,0.79999c-3.45931,0.47981 -7.08595,-0.33229 -10.55413,0.02011c-1.35277,0.13746 -2.64681,0.66674 -4,0.80002c-3.30167,0.32518 -5.92954,-0.41114 -9.05576,0.68386c0,0 -2.37171,0.79057 -3.16228,-1.58114c-0.79057,-2.37171 1.58114,-3.16228 1.58114,-3.16228c7.7606,-2.49222 16.42452,-0.5199 24.39011,-1.69602c0.83422,-0.12317 1.5647,-0.68414 2.39996,-0.79999c2.11312,-0.29309 4.28814,0.30176 6.40003,0c1.9532,-0.27908 3.73757,-1.36547 5.69495,-1.61355c0.19278,-0.02443 6.33466,-0.01873 6.70549,-0.01873l0.48194,-0.53606c0,0 2.23607,-1.11803 3.3541,1.11803z" fill="#696969" stroke-width="0.5"></path>
      <path d="M380.00003,309.00003c-0.62768,0 -1.09777,-0.15759 -1.44983,-0.39365c-3.25438,0.54312 -6.45954,0.21569 -9.75018,1.19363c-3.49727,-1.03935 -6.46292,-0.33425 -10.00045,-0.83227c-0.73685,-0.10374 -1.35139,-0.77388 -2.09549,-0.76961c-1.09949,0.00632 -2.10053,0.80572 -3.20002,0.80005c-0.94303,-0.00486 -1.76892,-0.71203 -2.70449,-0.83049c-5.73593,-0.72628 -11.75544,0.71556 -17.50501,0.01356c-4.49454,-0.54877 -8.68896,-0.78126 -13.29452,-0.78126c-3.10861,0 -5.88385,-0.35301 -8.80949,0.6717c0,0 -2.37171,0.79055 -3.16227,-1.58116c-0.79055,-2.37171 1.58116,-3.16227 1.58116,-3.16227c7.35344,-2.36141 16.79408,-1.07122 24.29602,-0.10956c4.27136,0.54754 8.97528,-0.03708 13.29458,-0.01873c1.46685,0.00623 2.94467,-0.14743 4.40048,0.03229c0.73849,0.09116 1.35135,0.77388 2.09543,0.7696c1.09948,-0.00632 2.10052,-0.80572 3.2,-0.80005c0.94305,0.00486 1.77125,0.69514 2.70456,0.83049c3.1835,0.46168 6.07535,-0.43177 9.1995,0.7677c3.46577,-1.33063 6.93321,-0.25408 10.40941,-1.47173l3.29061,3.17175c0,0 0,2.5 -2.5,2.5z" fill="#696969" stroke-width="0.5"></path>
      <path d="M364.89999,315.30002c0,2.5 -2.5,2.5 -2.5,2.5l-2.2063,-0.07464c-4.79066,-1.22955 -9.64552,-1.5254 -14.59368,-1.5254c-3.30015,0 -6.47921,-0.42472 -9.60934,0.67174c0,0 -2.37169,0.79062 -3.16231,-1.58107c-0.79062,-2.37169 1.58107,-3.16231 1.58107,-3.16231c6.37895,-2.04867 13.95045,-1.0162 20.39106,-0.09602c2.19747,0.31395 4.44959,0.31517 6.60587,0.84234l0.99365,-0.07464c0,0 2.5,0 2.5,2.5z" fill="#696969" stroke-width="0.5"></path>
    </g>
  </g>
</svg>
