<svg version="1.1" xmlns="http://www.w3.org/2000/svg" xmlns:xlink="http://www.w3.org/1999/xlink" width="334.18065" height="28.26061" viewBox="0,0,334.18065,28.26061"><g transform="translate(-72.90968,-165.86969)"><g stroke="none" stroke-miterlimit="10"><path d="M77.0758,190.80891c-2.30089,0 -4.16613,-1.86525 -4.16613,-4.16613h4.16613zM72.90968,170.51031c0,-2.30089 1.86524,-4.16613 4.16613,-4.16613v4.16613zM81.50433,166.34418c2.30088,0 4.16613,1.86524 4.16613,4.16613h-4.16613zM81.50433,180.68658c-2.30088,0 -4.16613,-1.86525 -4.16613,-4.16613h4.16613zM86.79842,178.93351c-0.78141,1.09978 -2.04701,1.75307 -3.39615,1.75307v-4.16613zM84.27647,168.09726c0.78141,-1.09978 2.04705,-1.75308 3.39615,-1.75308v4.16613zM92.57563,166.34418c1.55454,0 2.97973,0.86547 3.69665,2.2448c0.71692,1.37935 0.60625,3.04308 -0.28701,4.3153l-3.40964,-2.39397zM83.8705,180.22554c-0.93416,-1.4272 -0.90397,-3.27965 0.0762,-4.67561l3.4096,2.39397zM96.53592,184.36114c0.838,1.28029 0.90674,2.9169 0.17903,4.26294c-0.72767,1.34604 -2.13469,2.18483 -3.66483,2.18483v-4.16613zM87.98895,190.80891c-1.41012,0 -2.72457,-0.71332 -3.49307,-1.89563l3.49307,-2.2705zM83.87675,176.15019c1.41012,0 2.72457,0.71332 3.49307,1.89563l-3.49307,2.2705zM77.33819,180.31632c0,-2.30088 1.86525,-4.16613 4.16613,-4.16613v4.16613zM85.67046,186.64278c0,2.30088 -1.86525,4.16613 -4.16613,4.16613v-4.16613zM72.90968,186.64278v-16.13247h4.16613h4.16613v16.13247h-4.16613zM77.0758,166.34418h4.42852v4.16613v4.16613h-4.42852v-4.16613zM85.67046,170.51031v6.01014h-4.16613h-4.16613v-6.01014h4.16613zM81.50433,172.35432h1.89794v4.16613v4.16613h-1.89794v-4.16613zM80.00611,174.10739l4.27036,-6.01013l3.39615,2.41305l3.39615,2.41306l-4.27036,6.01014l-3.39615,-2.41306zM87.67262,166.34418h4.90301v4.16613v4.16613h-4.90301v-4.16613zM95.98527,172.90428l-5.21933,7.43359l-3.40964,-2.39397l-3.4096,-2.39397l5.21933,-7.43361l3.4096,2.39399zM90.8421,175.6623l5.69381,8.69884l-3.4858,2.28164l-3.4858,2.28164l-5.69381,-8.69888l3.4858,-2.28164zM93.05011,190.80891h-5.06117v-4.16613v-4.16613h5.06117v4.16613zM84.49587,188.91329l-4.1122,-6.32646l3.49307,-2.2705l3.49307,-2.2705l4.1122,6.32646l-3.49307,2.2705zM83.87675,184.48245h-2.37242v-4.16613v-4.16613h2.37242v4.16613zM85.67046,180.31632v6.32646h-4.16613h-4.16613v-6.32646h4.16613zM81.50433,190.80891h-4.42852v-4.16613v-4.16613h4.42852v4.16613zM92.88207,190.80891c-1.29298,0 -2.51271,-0.60034 -3.30136,-1.62494c-0.78869,-1.0246 -1.05691,-2.35735 -0.72604,-3.60726l4.0274,1.06608zM93.12503,169.44423c0.48369,-1.82737 2.13711,-3.10005 4.0274,-3.10005v4.16613zM105.69315,166.34418c1.89033,0 3.54371,1.27268 4.02744,3.10005l-4.02744,1.06608zM113.99087,185.57671c0.33102,1.24992 0.06287,2.58266 -0.72604,3.60726c-0.78854,1.0246 -2.00845,1.62494 -3.30132,1.62494v-4.16613zM105.53499,190.80891c-1.88377,0 -3.53314,-1.26404 -4.02289,-3.08305l4.02289,-1.08308zM102.2136,170.14006c1.88377,0 3.53314,1.26404 4.02289,3.08305l-4.02289,1.08308zM96.60909,173.22311c0.48975,-1.81901 2.13912,-3.08305 4.02289,-3.08305v4.16613zM101.33348,187.72586c-0.48975,1.81901 -2.13912,3.08305 -4.02289,3.08305v-4.16613zM88.85467,185.57671l4.27036,-16.13248l4.0274,1.06608l4.02744,1.06608l-4.27036,16.13247l-4.02744,-1.06608zM97.15243,166.34418h8.54072v4.16613v4.16613h-8.54072v-4.16613zM109.72059,169.44423l4.27028,16.13248l-4.02736,1.06608l-4.0274,1.06608l-4.27036,-16.13247l4.0274,-1.06608zM109.96351,190.80891h-4.42852v-4.16613v-4.16613h4.42852v4.16613zM101.51209,187.72586l-3.32139,-12.3366l4.02289,-1.08308l4.02289,-1.08308l3.32139,12.3366l-4.02289,1.08308zM102.2136,178.47232h-1.58161v-4.16613v-4.16613h1.58161v4.16613zM104.65487,175.38927l-3.32139,12.3366l-4.02289,-1.08308l-4.02289,-1.08308l3.32139,-12.3366l4.02289,1.08308zM97.31059,190.80891h-4.42852v-4.16613v-4.16613h4.42852v4.16613zM111.70442,190.80891c-2.3008,0 -4.16602,-1.86525 -4.16602,-4.16613h4.16602zM107.5384,170.51031c0,-2.30089 1.86521,-4.16613 4.16602,-4.16613v4.16613zM116.13302,166.34418c2.30084,0 4.16613,1.86524 4.16613,4.16613h-4.16613zM120.29915,177.46942c0,0.07707 -0.00227,0.15415 -0.00644,0.23111l-4.15969,-0.23111zM115.97471,184.48245c-1.14493,0 -2.23948,-0.47127 -3.0265,-1.30309c-0.78664,-0.83182 -1.19644,-1.95085 -1.13319,-3.09415l4.15969,0.23111zM119.76626,182.61432c-0.77149,1.16648 -2.07663,1.86813 -3.47493,1.86813v-4.16613zM119.30079,168.21231c0.77149,-1.16648 2.07663,-1.86813 3.47493,-1.86813v4.16613zM127.52057,166.34418c2.30084,0 4.16613,1.86524 4.16613,4.16613h-4.16613zM131.6867,186.64278c0,2.30088 -1.86529,4.16613 -4.16613,4.16613v-4.16613zM123.09197,190.80891c-2.30084,0 -4.16613,-1.86525 -4.16613,-4.16613h4.16613zM118.92584,179.68368c0,-0.07707 0.00227,-0.15415 0.00644,-0.23111l4.15969,0.23111zM123.25029,172.67064c1.14493,0 2.23948,0.47127 3.0265,1.30309c0.78702,0.83182 1.19682,1.95085 1.13319,3.09415l-4.15969,-0.23111zM119.45911,174.53877c0.77111,-1.16648 2.07625,-1.86813 3.47493,-1.86813v4.16613zM119.92458,188.94078c-0.77149,1.16648 -2.07663,1.86813 -3.47531,1.86813v-4.16613zM107.5384,186.64278v-16.13247h4.16602h4.16613v16.13247h-4.16613zM111.70442,166.34418h4.4286v4.16613v4.16613h-4.4286v-4.16613zM120.29915,170.51031v6.95911h-4.16613h-4.16613v-6.95911h4.16613zM120.29271,177.70052l-0.15793,2.84691l-4.16007,-0.23111l-4.15969,-0.23111l0.15831,-2.84691l4.15969,0.23111zM115.97471,176.15019h0.31663v4.16613v4.16613h-0.31663v-4.16613zM112.81602,178.01832l6.48477,-9.80602l3.47493,2.298l3.47531,2.298l-6.48477,9.80601l-3.47493,-2.298zM122.77573,166.34418h4.74484v4.16613v4.16613h-4.74484v-4.16613zM131.6867,170.51031v16.13247h-4.16613h-4.16613v-16.13247h4.16613zM127.52057,190.80891h-4.4286v-4.16613v-4.16613h4.4286v4.16613zM118.92584,186.64278v-6.95911h4.16613h4.16613v6.95911h-4.16613zM118.93228,179.45257l0.15831,-2.84691l4.15969,0.23111l4.15969,0.23111l-0.15793,2.84691l-4.16007,-0.23111zM123.25029,181.0029h-0.31625v-4.16613v-4.16613h0.31625v4.16613zM126.40897,179.13477l-6.48439,9.80601l-3.47531,-2.298l-3.47493,-2.298l6.48477,-9.80601l3.47493,2.298zM116.44927,190.80891h-4.74484v-4.16613v-4.16613h4.74484v4.16613zM131.01141,190.80891c-2.30084,0 -4.16613,-1.86525 -4.16613,-4.16613h4.16613zM126.84528,170.51031c0,-2.30089 1.86529,-4.16613 4.16613,-4.16613v4.16613zM135.44001,166.34418c2.30084,0 4.16613,1.86524 4.16613,4.16613h-4.16613zM135.44001,180.68658c-2.30122,0 -4.16613,-1.86525 -4.16613,-4.16613h4.16613zM140.73402,178.93351c-0.78134,1.09978 -2.04709,1.75307 -3.39615,1.75307v-4.16613zM138.212,168.09726c0.78134,-1.09978 2.04709,-1.75308 3.39615,-1.75308v4.16613zM146.51131,166.34418c1.55435,0 2.97954,0.86547 3.69649,2.2448c0.71695,1.37935 0.60636,3.04308 -0.28708,4.3153l-3.40941,-2.39397zM137.80599,180.22554c-0.93397,-1.4272 -0.90405,-3.27965 0.07613,-4.67561l3.40979,2.39397zM150.47141,184.36114c0.83815,1.28029 0.9067,2.9169 0.17914,4.26294c-0.72794,1.34604 -2.13457,2.18483 -3.66506,2.18483v-4.16613zM141.9244,190.80891c-1.41005,0 -2.72465,-0.71332 -3.49311,-1.89563l3.49311,-2.2705zM137.81243,176.15019c1.41005,0 2.72427,0.71332 3.49311,1.89563l-3.49311,2.2705zM131.27388,180.31632c0,-2.30088 1.86491,-4.16613 4.16613,-4.16613v4.16613zM139.60614,186.64278c0,2.30088 -1.86529,4.16613 -4.16613,4.16613v-4.16613zM126.84528,186.64278v-16.13247h4.16613h4.16613v16.13247h-4.16613zM131.01141,166.34418h4.4286v4.16613v4.16613h-4.4286v-4.16613zM139.60614,170.51031v6.01014h-4.16613h-4.16613v-6.01014h4.16613zM135.44001,172.35432h1.89786v4.16613v4.16613h-1.89786v-4.16613zM133.94172,174.10739l4.27028,-6.01013l3.39615,2.41305l3.39615,2.41306l-4.27028,6.01014l-3.39615,-2.41306zM141.60815,166.34418h4.90316v4.16613v4.16613h-4.90316v-4.16613zM149.92072,172.90428l-5.2194,7.43359l-3.40941,-2.39397l-3.40979,-2.39397l5.2194,-7.43361l3.40979,2.39399zM144.77782,175.6623l5.69359,8.69884l-3.48592,2.28164l-3.48554,2.28164l-5.69397,-8.69888l3.48592,-2.28164zM146.98549,190.80891h-5.06109v-4.16613v-4.16613h5.06109v4.16613zM138.43129,188.91329l-4.11197,-6.32646l3.49311,-2.2705l3.49311,-2.2705l4.11197,6.32646l-3.49311,2.2705zM137.81243,184.48245h-2.37242v-4.16613v-4.16613h2.37242v4.16613zM139.60614,180.31632v6.32646h-4.16613h-4.16613v-6.32646h4.16613zM135.44001,190.80891h-4.4286v-4.16613v-4.16613h4.4286v4.16613zM148.55726,190.80891c-2.30084,0 -4.16613,-1.86525 -4.16613,-4.16613h4.16613zM144.39113,170.51031c0,-2.30089 1.86529,-4.16613 4.16613,-4.16613v4.16613zM152.98586,166.34418c2.30084,0 4.16613,1.86524 4.16613,4.16613h-4.16613zM152.98586,180.68658c-2.30084,0 -4.16613,-1.86525 -4.16613,-4.16613h4.16613zM163.95301,176.52045c0,2.30088 -1.86529,4.16613 -4.16613,4.16613v-4.16613zM155.62075,170.51031c0,-2.30089 1.86529,-4.16613 4.16613,-4.16613v4.16613zM164.21548,166.34418c2.30084,0 4.16613,1.86524 4.16613,4.16613h-4.16613zM168.38161,186.64278c0,2.30088 -1.86529,4.16613 -4.16613,4.16613v-4.16613zM159.78688,190.80891c-2.30084,0 -4.16613,-1.86525 -4.16613,-4.16613h4.16613zM159.78688,176.15019c2.30084,0 4.16613,1.86525 4.16613,4.16613h-4.16613zM148.81973,180.31632c0,-2.30088 1.86529,-4.16613 4.16613,-4.16613v4.16613zM157.15199,186.64278c0,2.30088 -1.86529,4.16613 -4.16613,4.16613v-4.16613zM144.39113,186.64278v-16.13247h4.16613h4.16613v16.13247h-4.16613zM148.55726,166.34418h4.4286v4.16613v4.16613h-4.4286v-4.16613zM157.15199,170.51031v6.01014h-4.16613h-4.16613v-6.01014h4.16613zM152.98586,172.35432h6.80102v4.16613v4.16613h-6.80102v-4.16613zM155.62075,176.52045v-6.01014h4.16613h4.16613v6.01014h-4.16613zM159.78688,166.34418h4.4286v4.16613v4.16613h-4.4286v-4.16613zM168.38161,170.51031v16.13247h-4.16613h-4.16613v-16.13247h4.16613zM164.21548,190.80891h-4.4286v-4.16613v-4.16613h4.4286v4.16613zM155.62075,186.64278v-6.32646h4.16613h4.16613v6.32646h-4.16613zM159.78688,184.48245h-6.80102v-4.16613v-4.16613h6.80102v4.16613zM157.15199,180.31632v6.32646h-4.16613h-4.16613v-6.32646h4.16613zM152.98586,190.80891h-4.4286v-4.16613v-4.16613h4.4286v4.16613zM167.70972,190.80891c-2.30084,0 -4.16613,-1.86525 -4.16613,-4.16613h4.16613zM163.54359,170.51031c0,-2.30089 1.86529,-4.16613 4.16613,-4.16613v4.16613zM172.13832,166.34418c2.30084,0 4.16613,1.86524 4.16613,4.16613h-4.16613zM176.30445,177.46942c0,0.07707 -0.00227,0.15415 -0.00644,0.23111l-4.15969,-0.23111zM171.98001,184.48245c-1.14493,0 -2.23948,-0.47127 -3.0265,-1.30309c-0.78664,-0.83182 -1.19644,-1.95085 -1.13319,-3.09415l4.15969,0.23111zM175.77157,182.61432c-0.77149,1.16648 -2.07663,1.86813 -3.47531,1.86813v-4.16613zM175.3061,168.21231c0.77149,-1.16648 2.07663,-1.86813 3.47493,-1.86813v4.16613zM183.52587,166.34418c2.30084,0 4.16613,1.86524 4.16613,4.16613h-4.16613zM187.692,186.64278c0,2.30088 -1.86529,4.16613 -4.16613,4.16613v-4.16613zM179.09728,190.80891c-2.30084,0 -4.16613,-1.86525 -4.16613,-4.16613h4.16613zM174.93114,179.68368c0,-0.07707 0.00227,-0.15415 0.00644,-0.23111l4.15969,0.23111zM179.25559,172.67064c1.14493,0 2.23948,0.47127 3.0265,1.30309c0.78702,0.83182 1.19682,1.95085 1.13319,3.09415l-4.15969,-0.23111zM175.46403,174.53877c0.77149,-1.16648 2.07663,-1.86813 3.47531,-1.86813v4.16613zM175.9295,188.94078c-0.77111,1.16648 -2.07625,1.86813 -3.47493,1.86813v-4.16613zM163.54359,186.64278v-16.13247h4.16613h4.16613v16.13247h-4.16613zM167.70972,166.34418h4.4286v4.16613v4.16613h-4.4286v-4.16613zM176.30445,170.51031v6.95911h-4.16613h-4.16613v-6.95911h4.16613zM176.29801,177.70052l-0.15831,2.84691l-4.15969,-0.23111l-4.15969,-0.23111l0.15831,-2.84691l4.15969,0.23111zM171.98001,176.15019h0.31625v4.16613v4.16613h-0.31625v-4.16613zM168.82132,178.01832l6.48477,-9.80602l3.47493,2.298l3.47493,2.298l-6.48439,9.80601l-3.47531,-2.298zM178.78103,166.34418h4.74484v4.16613v4.16613h-4.74484v-4.16613zM187.692,170.51031v16.13247h-4.16613h-4.16613v-16.13247h4.16613zM183.52587,190.80891h-4.4286v-4.16613v-4.16613h4.4286v4.16613zM174.93114,186.64278v-6.95911h4.16613h4.16613v6.95911h-4.16613zM174.93758,179.45257l0.15831,-2.84691l4.15969,0.23111l4.15969,0.23111l-0.15831,2.84691l-4.15969,-0.23111zM179.25559,181.0029h-0.31625v-4.16613v-4.16613h0.31625v4.16613zM182.41427,179.13477l-6.48477,9.80601l-3.47493,-2.298l-3.47493,-2.298l6.48439,-9.80601l3.47531,2.298zM172.45457,190.80891h-4.74484v-4.16613v-4.16613h4.74484v4.16613zM185.4351,178.47232c-2.30122,0 -4.16613,-1.86525 -4.16613,-4.16613h4.16613zM181.26897,170.51031c0,-2.30089 1.86491,-4.16613 4.16613,-4.16613v4.16613zM200.61837,166.34418c2.30084,0 4.16613,1.86524 4.16613,4.16613h-4.16613zM204.7845,174.30619c0,2.30088 -1.86529,4.16613 -4.16613,4.16613v-4.16613zM191.0749,174.30619c0,-2.30088 1.86529,-4.16613 4.16613,-4.16613v4.16613zM199.40717,186.64278c0,2.30088 -1.86529,4.16613 -4.16613,4.16613v-4.16613zM190.81244,190.80891c-2.30084,0 -4.16613,-1.86525 -4.16613,-4.16613h4.16613zM190.81244,170.14006c2.30084,0 4.16613,1.86525 4.16613,4.16613h-4.16613zM181.26897,174.30619v-3.79588h4.16613h4.16613v3.79588h-4.16613zM185.4351,166.34418h15.18328v4.16613v4.16613h-15.18328v-4.16613zM204.7845,170.51031v3.79588h-4.16613h-4.16613v-3.79588h4.16613zM200.61837,178.47232h-5.37734v-4.16613v-4.16613h5.37734v4.16613zM199.40717,174.30619v12.3366h-4.16613h-4.16613v-12.3366h4.16613zM195.24103,190.80891h-4.4286v-4.16613v-4.16613h4.4286v4.16613zM186.64631,186.64278v-12.3366h4.16613h4.16613v12.3366h-4.16613zM190.81244,178.47232h-5.37734v-4.16613v-4.16613h5.37734v4.16613zM201.16527,187.63288c-0.0125,-0.01227 -0.025,-0.02462 -0.0375,-0.03704l2.94621,-2.94591zM207.00127,175.49914l-0.00038,0.00023l-2.9269,-2.96458zM213.42658,175.41055v0l2.98371,-2.90739zM222.98065,179.52552c0,2.30088 -1.86529,4.16613 -4.16613,4.16613v-4.16613zM202.04774,180.18373c-0.19278,-1.20458 0.15225,-2.43313 0.94382,-3.36139c0.79156,-0.92825 1.95013,-1.46296 3.17005,-1.46296v4.16613zM204.72201,185.24084v0l2.86289,-3.02658zM215.88081,185.52073c-0.0481,0.04166 -0.09696,0.08219 -0.14695,0.12161l-2.58149,-3.26992zM210.22964,179.47416c0.72188,-1.36384 2.13874,-2.21684 3.68172,-2.21684v4.16613zM218.65621,177.25732c1.33922,0 2.59664,0.64374 3.37987,1.73016c0.78285,1.08638 0.99608,2.48298 0.57265,3.75342l-3.95252,-1.31744zM220.25487,186.96145c-0.02159,0.02583 -0.04393,0.05143 -0.06628,0.07673l-3.11399,-2.76783zM206.31953,181.0029c-1.31195,0 -2.54702,-0.61803 -3.33404,-1.66801c-0.78664,-1.04998 -1.03282,-2.4092 -0.66431,-3.66839l3.99835,1.17027zM218.15476,176.01972c0.24504,1.22393 -0.07196,2.49309 -0.86315,3.45834c-0.79156,0.96522 -1.97399,1.52484 -3.22193,1.52484v-4.16613zM210.13457,177.94182c-0.0356,-0.02913 -0.07082,-0.05882 -0.10529,-0.08908l2.74359,-3.13532zM201.12778,187.59584c-2.45726,-2.45726 -3.71922,-5.54561 -3.71922,-9.0193h4.16613h4.16613c0,1.29222 0.40411,2.25282 1.279,3.12751l-2.94583,2.94587zM197.40856,178.57655c0,-3.47474 1.26347,-6.56313 3.73816,-9.00637l2.92728,2.96461l2.9269,2.96458c-0.85747,0.84656 -1.26007,1.78598 -1.26007,3.07718h-4.16613zM201.14634,169.57041c2.494,-2.4628 5.62428,-3.70071 9.12724,-3.70071v4.16613v4.16613c-1.38884,0 -2.3925,0.42805 -3.27231,1.29718l-2.92728,-2.96435zM210.27357,165.86969c3.50826,0 6.6643,1.20481 9.1208,3.72606l-2.98409,2.90741l-2.98371,2.90739c-0.74877,-0.76854 -1.68425,-1.20859 -3.153,-1.20859v-4.16613zM219.39437,169.59575c2.39893,2.46232 3.58628,5.54692 3.58628,8.9808h-4.16613h-4.16613c0,-1.37426 -0.41586,-2.33856 -1.22181,-3.16599l2.98371,-2.90739zM222.98065,178.57655v0.94897h-4.16613h-4.16613v-0.94897h4.16613zM218.81452,183.69165h-12.65292v-4.16613v-4.16613h12.65292v4.16613zM210.27547,178.8673c0.02272,0.14309 0.05416,0.20857 0.17233,0.32038l-2.86289,3.02658l-2.86289,3.02658c-1.44224,-1.36437 -2.35992,-3.09138 -2.67428,-5.05712l4.11387,-0.65821zM210.44779,179.18768c0.03144,0.02977 0.04545,0.0381 0.03977,0.03447c-0.00606,-0.00409 -0.02613,-0.01632 -0.05908,-0.02988c-0.03295,-0.01363 -0.06817,-0.02405 -0.10112,-0.03041c-0.03257,-0.00632 -0.05227,-0.00659 -0.05378,-0.00659v4.16613v4.16613c-2.14632,0 -4.04948,-0.82599 -5.55156,-2.24668l2.86289,-3.02658zM210.27357,179.15526c0.16248,0 0.23709,-0.02227 0.25376,-0.02776c0.01212,-0.00405 0.02083,-0.00723 0.04356,-0.025l2.58149,3.26992l2.58149,3.26992c-1.60737,1.269 -3.49993,1.84518 -5.46028,1.84518v-4.16613zM210.42393,179.22411c-0.02689,0.02303 -0.06136,0.05715 -0.09771,0.1029c-0.03674,0.04594 -0.06969,0.09601 -0.09658,0.14714l3.68172,1.94929l3.6821,1.94929c-0.43858,0.82823 -1.01994,1.54749 -1.71266,2.14798l-2.72844,-3.14831zM213.91136,177.25732h4.74484v4.16613v4.16613h-4.74484v-4.16613zM222.60873,182.7409c-0.51736,1.55166 -1.29756,2.97257 -2.35386,4.22056l-3.18027,-2.69109l-3.18027,-2.69109c0.33594,-0.39692 0.60977,-0.8739 0.80974,-1.47326l3.95214,1.31744zM220.18859,187.03819c-2.57846,2.90069 -6.03862,4.24521 -9.91501,4.24521v-4.16613v-4.16613c1.81757,0 2.89167,-0.55341 3.6874,-1.4486l3.11362,2.76783zM210.27357,191.2834c-3.48667,0 -6.61051,-1.21541 -9.1083,-3.65052l2.90872,-2.98295l2.90834,-2.98295c0.8764,0.85466 1.88574,1.28415 3.29124,1.28415v4.16613zM206.31953,172.67064h7.75014v4.16613v4.16613h-7.75014v-4.16613zM209.98422,177.65382c0.00795,0.03965 0.03181,0.11445 0.08105,0.19505c0.0481,0.07836 0.08635,0.10688 0.06931,0.09294l2.6383,-3.2244l2.63792,-3.22443c1.40588,1.15023 2.37697,2.69212 2.74397,4.52673l-4.08508,0.81705zM210.02929,177.85274c0.02272,0.01977 0.0553,0.04465 0.09734,0.06939c0.04242,0.02485 0.08484,0.04412 0.12347,0.0578c0.08105,0.02878 0.10226,0.01791 0.02348,0.01791v-4.16613v-4.16613c1.88612,0 3.72642,0.58989 5.24251,1.9165l-2.74321,3.13535zM210.27357,177.99783c-0.09317,0 -0.09696,0.01269 -0.04356,-0.00523c0.02462,-0.00837 0.05378,-0.02079 0.0837,-0.03746c0.0303,-0.01663 0.05302,-0.03299 0.06742,-0.04496l-2.63792,-3.22443l-2.6383,-3.2244c1.51761,-1.24166 3.32079,-1.79579 5.16865,-1.79579v4.16613zM210.38113,177.91019c-0.02121,0.01754 -0.03257,0.02913 -0.03674,0.03401c-0.00265,0.00261 -0.00379,0.0042 -0.00417,0.00481c-0.00038,0.00034 -0.00038,0.00053 -0.00038,0.00061c-0.00038,0.00004 -0.00038,0.00008 -0.00038,0.00008v0v0.00004c0,0.00004 0,0.00008 0,0.00011c0,0.00011 0,0.00038 -0.00038,0.00083c-0.00038,0.00083 -0.00151,0.00284 -0.00303,0.00636c-0.00303,0.00659 -0.00985,0.02227 -0.0178,0.04999l-3.99873,-1.17027l-3.99835,-1.17027c0.48857,-1.66914 1.43656,-3.10275 2.78373,-4.20514l2.6383,3.2244zM228.77498,194.13031c-2.30084,0 -4.16613,-1.86525 -4.16613,-4.16613h4.16613zM224.60885,182.84691c0,-2.30088 1.86529,-4.16613 4.16613,-4.16613v4.16613zM234.5375,183.92999c-0.48971,1.81901 -2.13912,3.08305 -4.02297,3.08305v-4.16613zM229.81311,169.42723c0.48971,-1.81899 2.13912,-3.08305 4.02297,-3.08305v4.16613zM242.37664,166.34418c1.88385,0 3.53326,1.26405 4.02297,3.08305l-4.02297,1.08308zM245.69819,187.01304c-1.88385,0 -3.53326,-1.26404 -4.02297,-3.08305l4.02297,-1.08308zM247.43811,178.68078c2.30084,0 4.16613,1.86525 4.16613,4.16613h-4.16613zM251.60425,189.96417c0,2.30088 -1.86529,4.16613 -4.16613,4.16613v-4.16613zM243.32576,194.13031c-2.30084,0 -4.16613,-1.86525 -4.16613,-4.16613h4.16613zM243.32576,182.47665c2.30084,0 4.16613,1.86525 4.16613,4.16613h-4.16613zM228.72082,186.64278c0,-2.30088 1.86529,-4.16613 4.16613,-4.16613v4.16613zM237.05309,189.96417c0,2.30088 -1.86491,4.16613 -4.16613,4.16613v-4.16613zM234.94313,187.01304c-1.30173,0 -2.52884,-0.6086 -3.31662,-1.64509c-0.78778,-1.0365 -1.04608,-2.38166 -0.69726,-3.63609l4.01388,1.11505zM245.28385,181.73186c0.34844,1.25442 0.09052,2.59959 -0.69726,3.63609c-0.78778,1.0365 -2.01489,1.64509 -3.317,1.64509v-4.16613zM238.89717,170.14006c1.87173,0 3.51318,1.24791 4.01426,3.05109l-4.01426,1.11505zM233.30167,173.19114c0.50069,-1.80318 2.14253,-3.05109 4.01388,-3.05109v4.16613zM224.60885,189.96417v-7.11727h4.16613h4.16613v7.11727h-4.16613zM228.77498,178.68078h1.73955v4.16613v4.16613h-1.73955v-4.16613zM226.49194,181.76383l3.32116,-12.3366l4.02297,1.08308l4.02297,1.08308l-3.32154,12.3366l-4.02297,-1.08308zM233.83607,166.34418h8.54057v4.16613v4.16613h-8.54057v-4.16613zM246.39961,169.42723l3.32154,12.3366l-4.02297,1.08308l-4.02297,1.08308l-3.32116,-12.3366l4.02259,-1.08308zM245.69819,178.68078h1.73993v4.16613v4.16613h-1.73993v-4.16613zM251.60425,182.84691v7.11727h-4.16613h-4.16613v-7.11727h4.16613zM247.43811,194.13031h-4.11235v-4.16613v-4.16613h4.11235v4.16613zM239.15963,189.96417v-3.32139h4.16613h4.16613v3.32139h-4.16613zM243.32576,190.80891h-10.43881v-4.16613v-4.16613h10.43881v4.16613zM237.05309,186.64278v3.32139h-4.16613h-4.16613v-3.32139h4.16613zM232.88695,194.13031h-4.11197v-4.16613v-4.16613h4.11197v4.16613zM234.94313,178.68078h6.32646v4.16613v4.16613h-6.32646v-4.16613zM237.25571,183.96195l-2.37242,-8.54072l4.01388,-1.11505l4.01426,-1.11505l2.37242,8.54072l-4.01426,1.11505zM238.89717,178.47232h-1.58161v-4.16613v-4.16613h1.58161v4.16613zM241.32981,175.42123l-2.37242,8.54072l-4.01426,-1.11505l-4.01388,-1.11505l2.37242,-8.54072l4.01388,1.11505zM247.58393,190.80891c-1.29302,0 -2.51293,-0.60034 -3.30147,-1.62494c-0.78891,-1.0246 -1.05706,-2.35735 -0.72604,-3.60726l4.02751,1.06608zM247.8267,169.44423c0.48365,-1.82737 2.13723,-3.10005 4.02751,-3.10005v4.16613zM260.39478,166.34418c1.89029,0 3.54386,1.27268 4.02751,3.10005l-4.02751,1.06608zM268.69258,185.57671c0.33102,1.24992 0.06249,2.58266 -0.72604,3.60726c-0.78854,1.0246 -2.00845,1.62494 -3.30147,1.62494v-4.16613zM260.23685,190.80891c-1.88385,0 -3.53326,-1.26404 -4.02297,-3.08305l4.02297,-1.08308zM256.91531,170.14006c1.88385,0 3.53326,1.26404 4.02297,3.08305l-4.02297,1.08308zM251.31072,173.22311c0.48971,-1.81901 2.13912,-3.08305 4.02297,-3.08305v4.16613zM256.03512,187.72586c-0.48971,1.81901 -2.13912,3.08305 -4.02297,3.08305v-4.16613zM243.55642,185.57671l4.27028,-16.13248l4.02751,1.06608l4.02751,1.06608l-4.27066,16.13247l-4.02713,-1.06608zM251.85421,166.34418h8.54057v4.16613v4.16613h-8.54057v-4.16613zM264.4223,169.44423l4.27028,16.13248l-4.02751,1.06608l-4.02713,1.06608l-4.27066,-16.13247l4.02751,-1.06608zM264.66507,190.80891h-4.42822v-4.16613v-4.16613h4.42822v4.16613zM256.21388,187.72586l-3.32154,-12.3366l4.02297,-1.08308l4.02297,-1.08308l3.32116,12.3366l-4.02259,1.08308zM256.91531,178.47232h-1.58161v-4.16613v-4.16613h1.58161v4.16613zM259.35666,175.38927l-3.32154,12.3366l-4.02297,-1.08308l-4.02259,-1.08308l3.32116,-12.3366l4.02297,1.08308zM252.01215,190.80891h-4.42822v-4.16613v-4.16613h4.42822v4.16613zM265.61532,190.80891c-1.48276,0 -2.8538,-0.78827 -3.60029,-2.06977c-0.74612,-1.28154 -0.75483,-2.86312 -0.02272,-4.1528l3.62302,2.05644zM270.73967,177.03493c1.04078,0.49967 1.8278,1.40887 2.17283,2.5107c0.34503,1.10183 0.2174,2.29747 -0.35261,3.30162l-3.62302,-2.05644zM264.56735,182.72446v0l2.94583,-2.94587zM264.99836,168.97502c0.00947,-0.00851 0.01894,-0.01699 0.02841,-0.02541l2.77123,3.11069zM280.64067,166.34418c2.30084,0 4.16613,1.86524 4.16613,4.16613h-4.16613zM284.8068,186.64278c0,2.30088 -1.86529,4.16613 -4.16613,4.16613v-4.16613zM276.21207,190.80891c-2.30084,0 -4.16613,-1.86525 -4.16613,-4.16613h4.16613zM276.21207,177.57365c2.30122,0 4.16613,1.86525 4.16613,4.16613h-4.16613zM269.34704,179.829c0.71468,-1.38516 2.14329,-2.25535 3.7018,-2.25535v4.16613zM274.22066,188.55356c-0.71506,1.38516 -2.14329,2.25535 -3.70218,2.25535v-4.16613zM268.4998,180.66908v0l2.77767,-3.10475zM280.3782,178.10206c0,2.30088 -1.86491,4.16613 -4.16613,4.16613v-4.16613zM276.21207,170.14006c2.30122,0 4.16613,1.86525 4.16613,4.16613h-4.16613zM273.88017,178.06551c-0.00682,0.00561 -0.01401,0.01117 -0.02121,0.0167l-2.58149,-3.26992zM261.9923,184.58634l3.32116,-5.85198l3.6234,2.05644l3.62302,2.05644l-3.32116,5.85198l-3.6234,-2.05644zM267.13407,184.54669c-0.95973,-0.4607 -1.81908,-1.07463 -2.56672,-1.82223l2.94583,-2.94587l2.94621,-2.94591c0.09582,0.09593 0.18558,0.15684 0.28027,0.20225l-1.8028,3.75588zM264.56735,182.72446c-1.84673,-1.84673 -2.6436,-4.21052 -2.6436,-6.6785h4.16613h4.16613c0,0.61091 0.15187,0.73551 0.20338,0.78672l-2.94621,2.94591zM261.92375,176.04596c0,-2.72465 1.01199,-5.19937 3.0746,-7.07094l2.79964,3.08528l2.79964,3.08525c-0.21512,0.19509 -0.34162,0.37749 -0.34162,0.90041h-4.16613zM265.02676,168.94961c2.13041,-1.89813 4.8187,-2.60543 7.54789,-2.60543v4.16613v4.16613c-1.31991,0 -1.81605,0.32602 -2.00542,0.49452l-2.77123,-3.11066zM272.57466,166.34418h8.06601v4.16613v4.16613h-8.06601v-4.16613zM284.8068,170.51031v16.13247h-4.16613h-4.16613v-16.13247h4.16613zM280.64067,190.80891h-4.4286v-4.16613v-4.16613h4.4286v4.16613zM272.04594,186.64278v-4.90301h4.16613h4.16613v4.90301h-4.16613zM276.21207,185.90591h-3.16323v-4.16613v-4.16613h3.16323v4.16613zM276.75101,183.65055l-2.53036,4.90301l-3.70218,-1.91078l-3.70218,-1.91078l2.53074,-4.90301l3.7018,1.91078zM270.51848,190.80891h-4.90316v-4.16613v-4.16613h4.90316v4.16613zM274.84255,176.04596c0,-0.09514 -0.01439,-0.34102 -0.14203,-0.66344c-0.13483,-0.34102 -0.35677,-0.6651 -0.64499,-0.92299l-2.77805,3.10479l-2.77767,3.10475c-1.47178,-1.31684 -1.98952,-3.06184 -1.98952,-4.62312h4.16613zM274.05553,174.45954c-0.62719,-0.56118 -1.19265,-0.52361 -1.03812,-0.52361v4.16613v4.16613c-1.36384,0 -3.08938,-0.32094 -4.5176,-1.59911l2.77767,-3.10475zM273.0174,173.93593h3.19467v4.16613v4.16613h-3.19467v-4.16613zM272.04594,178.10206v-3.79588h4.16613h4.16613v3.79588h-4.16613zM276.21207,178.47232h-3.19467v-4.16613v-4.16613h3.19467v4.16613zM273.0174,178.47232c-0.13597,0 0.31587,0.03079 0.86277,-0.4068l-2.6027,-3.25322l-2.60232,-3.25318c1.39035,-1.11243 3.00227,-1.41906 4.34224,-1.41906v4.16613zM273.85896,178.08222c0.23406,-0.18456 0.50865,-0.47971 0.71317,-0.89962c0.20528,-0.42101 0.27042,-0.82554 0.27042,-1.13663h-4.16613h-4.16613c0,-1.79397 0.79459,-3.40521 2.1857,-4.50359l2.58149,3.26992zM292.97241,190.80891c-2.30084,0 -4.16613,-1.86525 -4.16613,-4.16613h4.16613zM288.80628,170.51031c0,-2.30089 1.86529,-4.16613 4.16613,-4.16613v4.16613zM297.40101,166.34418c2.30084,0 4.16613,1.86524 4.16613,4.16613h-4.16613zM297.40101,180.68658c-2.30084,0 -4.16613,-1.86525 -4.16613,-4.16613h4.16613zM308.36816,176.52045c0,2.30088 -1.86529,4.16613 -4.16613,4.16613v-4.16613zM300.0359,170.51031c0,-2.30089 1.86491,-4.16613 4.16613,-4.16613v4.16613zM308.63025,166.34418c2.30084,0 4.16613,1.86524 4.16613,4.16613h-4.16613zM312.79638,186.64278c0,2.30088 -1.86529,4.16613 -4.16613,4.16613v-4.16613zM304.20203,190.80891c-2.30122,0 -4.16613,-1.86525 -4.16613,-4.16613h4.16613zM304.20203,176.15019c2.30084,0 4.16613,1.86525 4.16613,4.16613h-4.16613zM293.23488,180.31632c0,-2.30088 1.86529,-4.16613 4.16613,-4.16613v4.16613zM301.56714,186.64278c0,2.30088 -1.86529,4.16613 -4.16613,4.16613v-4.16613zM288.80628,186.64278v-16.13247h4.16613h4.16613v16.13247h-4.16613zM292.97241,166.34418h4.4286v4.16613v4.16613h-4.4286v-4.16613zM301.56714,170.51031v6.01014h-4.16613h-4.16613v-6.01014h4.16613zM297.40101,172.35432h6.80102v4.16613v4.16613h-6.80102v-4.16613zM300.0359,176.52045v-6.01014h4.16613h4.16613v6.01014h-4.16613zM304.20203,166.34418h4.42822v4.16613v4.16613h-4.42822v-4.16613zM312.79638,170.51031v16.13247h-4.16613h-4.16613v-16.13247h4.16613zM308.63025,190.80891h-4.42822v-4.16613v-4.16613h4.42822v4.16613zM300.0359,186.64278v-6.32646h4.16613h4.16613v6.32646h-4.16613zM304.20203,184.48245h-6.80102v-4.16613v-4.16613h6.80102v4.16613zM301.56714,180.31632v6.32646h-4.16613h-4.16613v-6.32646h4.16613zM297.40101,190.80891h-4.4286v-4.16613v-4.16613h4.4286v4.16613zM310.38571,187.59539c-0.01326,-0.01435 -0.02651,-0.02882 -0.03939,-0.04337l3.10718,-2.77555zM310.36488,169.61205l0.00189,-0.00216l3.08672,2.79835zM325.07473,167.95339c0.05908,0.04373 0.11703,0.08901 0.17384,0.1358l-2.65345,3.21193zM323.82868,176.73254c-1.30021,0 -2.52581,-0.60704 -3.31397,-1.64127l3.31397,-2.52486zM328.15312,172.56641c0,2.30088 -1.86529,4.16613 -4.16613,4.16613v-4.16613zM319.82086,170.51031c0,-2.30089 1.86529,-4.16613 4.16613,-4.16613v4.16613zM328.41521,166.34418c2.30122,0 4.16613,1.86524 4.16613,4.16613h-4.16613zM332.58134,186.64278c0,2.30088 -1.86491,4.16613 -4.16613,4.16613v-4.16613zM323.98699,190.80891c-2.30084,0 -4.16613,-1.86525 -4.16613,-4.16613h4.16613zM323.98699,180.42055c2.30084,0 4.16613,1.86525 4.16613,4.16613h-4.16613zM320.51471,182.06182c0.78816,-1.03422 2.01376,-1.64127 3.31397,-1.64127v4.16613zM325.24857,189.06391c-0.05681,0.04677 -0.11476,0.09207 -0.17384,0.13578l-2.47961,-3.34771zM320.16324,177.84039v0.00004l-3.13558,-2.74344zM320.16324,179.31266v0l-3.13558,2.74344zM325.94469,184.87471c-0.01174,0.01303 -0.02348,0.02594 -0.03522,0.03882l-3.06135,-2.82581zM319.78677,177.9228c-0.01174,-0.01288 -0.02348,-0.02579 -0.03522,-0.03882l3.09657,-2.78699zM310.34632,187.55202c-2.22774,-2.49396 -3.17838,-5.61863 -3.17838,-8.97548h4.16613h4.16613c0,1.74652 0.46206,2.7551 1.06009,3.42441l-3.1068,2.77551zM307.16794,178.57655c0,-3.35472 0.94988,-6.48265 3.19694,-8.96449l3.08862,2.79619l3.08824,2.79619c-0.57871,0.63924 -1.04153,1.6235 -1.04153,3.3721h-4.16613zM310.36677,169.6099c2.21259,-2.44031 5.09972,-3.7402 8.40081,-3.7402v4.16613v4.16613c-0.91655,0 -1.57253,0.28174 -2.22774,1.00464l-3.08635,-2.79835zM318.76758,165.86969c2.30879,0 4.45322,0.71039 6.30714,2.0837l-2.47961,3.34773l-2.47998,3.34771c-0.42343,-0.31375 -0.83058,-0.44687 -1.34755,-0.44687v-4.16613zM325.24857,168.08919c0.69953,0.57789 1.34036,1.22567 1.89407,1.95236l-3.31397,2.52486l-3.31397,2.52486c-0.1212,-0.15903 -0.30261,-0.35477 -0.57303,-0.57822l2.65345,-3.21194zM323.82868,168.40028h0.15831v4.16613v4.16613h-0.15831v-4.16613zM319.82086,172.56641v-2.0561h4.16613h4.16613v2.0561h-4.16613zM323.98699,166.34418h4.42822v4.16613v4.16613h-4.42822v-4.16613zM332.58134,170.51031v16.13247h-4.16613h-4.16613v-16.13247h4.16613zM328.41521,190.80891h-4.42822v-4.16613v-4.16613h4.42822v4.16613zM319.82086,186.64278v-2.0561h4.16613h4.16613v2.0561h-4.16613zM323.98699,188.75281h-0.15831v-4.16613v-4.16613h0.15831v4.16613zM327.14264,187.11155c-0.55372,0.72669 -1.19454,1.37448 -1.89407,1.95236l-2.65345,-3.21194l-2.65345,-3.21194c0.27042,-0.22346 0.45184,-0.41919 0.57303,-0.57822l3.31397,2.52486zM325.07473,189.19969c-1.85393,1.37331 -3.99835,2.08371 -6.30714,2.08371v-4.16613v-4.16613c0.51698,0 0.92412,-0.13313 1.34755,-0.44687l2.47998,3.34771zM318.76758,191.2834c-3.2814,0 -6.1636,-1.27381 -8.38188,-3.68801l3.06779,-2.81892l3.06741,-2.81892c0.64954,0.70684 1.31044,0.99358 2.24668,0.99358v4.16613zM320.16324,177.84043c0.03901,-0.04496 0.0303,-0.05946 0.00417,0.02227c-0.0303,0.09533 -0.08067,0.31644 -0.08067,0.71385h-4.16613h-4.16613c0,-2.15984 0.54841,-4.4064 2.13798,-6.22299l3.1352,2.74344zM320.08673,178.57655c0,0.39741 0.05037,0.61852 0.08067,0.71385c0.02613,0.08173 0.03484,0.06723 -0.00417,0.02227l-3.13558,2.74344l-3.1352,2.74344c-1.58957,-1.81658 -2.13798,-4.06315 -2.13798,-6.22299h4.16613zM320.16324,179.31266c0.00568,0.00648 -0.00757,-0.00966 -0.0428,-0.0359c-0.0356,-0.02685 -0.08219,-0.05507 -0.13521,-0.07874c-0.05302,-0.0236 -0.09696,-0.0356 -0.12385,-0.04094c-0.02538,-0.00511 -0.02348,-0.00182 0.01326,-0.00182v4.16613v4.16613c-2.31334,0 -4.42216,-0.90504 -5.98219,-2.68803l3.1352,-2.7434zM319.87464,179.15526c0.07234,0 0.10756,-0.00606 0.11324,-0.00708c0.00417,-0.0008 -0.01477,0.0025 -0.04924,0.0167c-0.03484,0.01451 -0.0712,0.03435 -0.1034,0.05727c-0.01553,0.01083 -0.02765,0.02057 -0.03598,0.02814c-0.00871,0.00754 -0.0125,0.01189 -0.0125,0.01163l3.06135,2.82581l3.06135,2.82581c-1.62593,1.7614 -3.76921,2.57399 -6.03483,2.57399v-4.16613zM319.75155,179.30073c-0.04356,0.04806 -0.03712,0.06806 -0.01212,-0.00871c0.02954,-0.09139 0.08143,-0.31204 0.08143,-0.71548h4.16613h4.16613c0,2.19093 -0.56508,4.47234 -2.20843,6.29817l-3.09657,-2.78699zM319.82086,178.57655c0,-0.40453 -0.05227,-0.61784 -0.07802,-0.69699c-0.02083,-0.06336 -0.0178,-0.02363 0.04393,0.04325l3.06135,-2.82581l3.06135,-2.82581c1.68122,1.82136 2.24365,4.1214 2.24365,6.30536h-4.16613zM319.75155,177.88398c-0.00265,-0.00288 0.01098,0.01269 0.0428,0.03575c0.03257,0.02348 0.07082,0.04518 0.10983,0.06177c0.03825,0.01636 0.06287,0.02144 0.06476,0.02182c0.00076,0.00019 -0.02803,-0.00549 -0.09431,-0.00549v-4.16613v-4.16613c2.30084,0 4.45435,0.8491 6.07005,2.64443l-3.09657,2.78699zM319.87464,177.99783c-0.03674,0 -0.03863,0.0033 -0.01326,-0.00182c0.02689,-0.00534 0.07082,-0.01735 0.12385,-0.04094c0.05302,-0.02371 0.09961,-0.05189 0.13521,-0.07874c0.03522,-0.02625 0.04848,-0.04238 0.0428,-0.03594l-3.13558,-2.7434l-3.1352,-2.7434c1.56003,-1.78299 3.66885,-2.68803 5.98219,-2.68803v4.16613zM327.25437,170.51031c0,-2.30089 1.86529,-4.16613 4.16613,-4.16613v4.16613zM335.8491,166.34418c2.30084,0 4.16613,1.86524 4.16613,4.16613h-4.16613zM342.58384,182.16003c-0.03522,0.01416 -0.0712,0.02788 -0.1068,0.04109l-1.44035,-3.90927zM346.02544,177.84899c0,1.3329 -0.6378,2.58535 -1.71607,3.3693l-2.45006,-3.3693zM337.69318,170.51031c0,-2.30089 1.86491,-4.16613 4.16613,-4.16613v4.16613zM346.28753,166.34418c2.30084,0 4.16613,1.86524 4.16613,4.16613h-4.16613zM350.45366,186.64278c0,2.30088 -1.86529,4.16613 -4.16613,4.16613v-4.16613zM341.85931,190.80891c-2.30122,0 -4.16613,-1.86525 -4.16613,-4.16613h4.16613zM339.2854,178.14755c1.25401,-0.98537 2.9606,-1.16826 4.39489,-0.47108c1.43429,0.69718 2.34515,2.15211 2.34515,3.74698h-4.16613zM339.28351,178.1185c0.0303,-0.01201 0.06098,-0.02363 0.09165,-0.03492l1.43997,3.90927zM330.23656,183.94616c-0.00947,-0.0089 -0.01894,-0.01784 -0.02841,-0.02681l2.88902,-3.002zM327.25437,176.52045v-6.01014h4.16613h4.16613v6.01014h-4.16613zM331.4205,166.34418h4.4286v4.16613v4.16613h-4.4286v-4.16613zM340.01523,170.51031v5.69381h-4.16613h-4.16613v-5.69381h4.16613zM340.01523,176.20412c0,0.1346 0.02348,-0.51255 -0.63855,-1.13584c-0.61507,-0.57864 -1.15364,-0.49971 -0.83891,-0.49971v4.16613v4.16613c-1.47784,0 -3.36093,-0.34283 -4.87172,-1.765c-1.55851,-1.46682 -1.98308,-3.37926 -1.98308,-4.93171h4.16613zM338.53777,174.56858c0.3795,0 0.72415,-0.06279 1.05858,-0.186l1.44035,3.90927l1.44035,3.90927c-1.2684,0.46729 -2.58944,0.69972 -3.93927,0.69972v-4.16613zM339.48954,174.42371c0.05378,-0.02155 0.01288,-0.01212 -0.08067,0.05602l2.45044,3.36926l2.45006,3.3693c-0.5575,0.40552 -1.14644,0.71017 -1.72554,0.94174l-1.54715,-3.86818zM337.69318,177.84899v-7.33868h4.16613h4.16613v7.33868h-4.16613zM341.85931,166.34418h4.42822v4.16613v4.16613h-4.42822v-4.16613zM350.45366,170.51031v16.13247h-4.16613h-4.16613v-16.13247h4.16613zM346.28753,190.80891h-4.42822v-4.16613v-4.16613h4.42822v4.16613zM337.69318,186.64278v-5.21933h4.16613h4.16613v5.21933h-4.16613zM344.43322,184.69936c-0.68135,0.53512 -1.42368,0.92488 -2.17775,1.20272l-1.44035,-3.90923l-1.43997,-3.90927c0.04696,-0.01738 0.00076,-0.0072 -0.08976,0.06397l2.57391,3.2759zM342.34713,185.86716c-1.46913,0.5808 -3.02348,0.82955 -4.60017,0.82955v-4.16613v-4.16613c0.70105,0 1.19189,-0.10972 1.53654,-0.24595l1.53162,3.87435zM337.74696,186.69672c-2.74434,0 -5.41597,-0.7724 -7.5104,-2.75056l2.86062,-3.02882l2.86024,-3.02885c0.18331,0.17286 0.61129,0.47596 1.78954,0.47596v4.16613zM330.20816,183.91934c-2.09178,-2.01296 -2.95379,-4.65024 -2.95379,-7.3989h4.16613h4.16613c0,0.96287 0.25565,1.25685 0.39919,1.3949l-2.88864,3.002zM348.04185,187.59539c-0.01326,-0.01435 -0.02651,-0.02882 -0.03939,-0.04337l3.1068,-2.77555zM348.02102,169.61205l0.00189,-0.00216l3.08635,2.79835zM362.73087,167.95339c0.05908,0.04373 0.11703,0.08901 0.17346,0.1358l-2.65345,3.21193zM361.48482,176.73254c-1.30021,0 -2.52581,-0.60704 -3.31397,-1.64127l3.31397,-2.52486zM365.80889,172.56641c0,2.30088 -1.86491,4.16613 -4.16613,4.16613v-4.16613zM357.47662,170.51031c0,-2.30089 1.86529,-4.16613 4.16613,-4.16613v4.16613zM366.07135,166.34418c2.30084,0 4.16613,1.86524 4.16613,4.16613h-4.16613zM370.23748,186.64278c0,2.30088 -1.86529,4.16613 -4.16613,4.16613v-4.16613zM361.64276,190.80891c-2.30084,0 -4.16613,-1.86525 -4.16613,-4.16613h4.16613zM361.64276,180.42055c2.30122,0 4.16613,1.86525 4.16613,4.16613h-4.16613zM358.17085,182.06182c0.78816,-1.03422 2.01376,-1.64127 3.31397,-1.64127v4.16613zM362.90434,189.06391c-0.05643,0.04677 -0.11438,0.09207 -0.17346,0.13578l-2.47998,-3.34771zM357.819,177.84039v0.00004l-3.1352,-2.74344zM357.819,179.31266v0l-3.1352,2.74344zM363.60084,184.87471c-0.01174,0.01303 -0.02348,0.02594 -0.0356,0.03882l-3.06097,-2.82581zM357.44292,177.9228c-0.01212,-0.01288 -0.02386,-0.02579 -0.0356,-0.03882l3.09695,-2.78699zM348.00246,187.55202c-2.22812,-2.49396 -3.17876,-5.61863 -3.17876,-8.97548h4.16613h4.16613c0,1.74652 0.46244,2.7551 1.06047,3.42441l-3.10718,2.77551zM344.8237,178.57655c0,-3.35472 0.95026,-6.48265 3.19732,-8.96449l3.08824,2.79619l3.08824,2.79619c-0.57871,0.63924 -1.04153,1.6235 -1.04153,3.3721h-4.16613zM348.02291,169.6099c2.21259,-2.44031 5.09972,-3.7402 8.40081,-3.7402v4.16613v4.16613c-0.91693,0 -1.57253,0.28174 -2.22812,1.00464l-3.08635,-2.79835zM356.42373,165.86969c2.30842,0 4.45322,0.71039 6.30714,2.0837l-2.47998,3.34773l-2.47961,3.34771c-0.42343,-0.31375 -0.83058,-0.44687 -1.34755,-0.44687v-4.16613zM362.90434,168.08919c0.69953,0.57789 1.34074,1.22567 1.89445,1.95236l-3.31397,2.52486l-3.31397,2.52486c-0.1212,-0.15903 -0.30261,-0.35477 -0.57303,-0.57822l2.65307,-3.21194zM361.48482,168.40028h0.15793v4.16613v4.16613h-0.15793v-4.16613zM357.47662,172.56641v-2.0561h4.16613h4.16613v2.0561h-4.16613zM361.64276,166.34418h4.4286v4.16613v4.16613h-4.4286v-4.16613zM370.23748,170.51031v16.13247h-4.16613h-4.16613v-16.13247h4.16613zM366.07135,190.80891h-4.4286v-4.16613v-4.16613h4.4286v4.16613zM357.47662,186.64278v-2.0561h4.16613h4.16613v2.0561h-4.16613zM361.64276,188.75281h-0.15793v-4.16613v-4.16613h0.15793v4.16613zM364.79879,187.11155c-0.55372,0.72669 -1.19492,1.37448 -1.89445,1.95236l-2.65345,-3.21194l-2.65307,-3.21194c0.27042,-0.22346 0.45184,-0.41919 0.57303,-0.57822l3.31397,2.52486zM362.73087,189.19969c-1.85393,1.37331 -3.99873,2.08371 -6.30714,2.08371v-4.16613v-4.16613c0.51698,0 0.92412,-0.13313 1.34755,-0.44687l2.47961,3.34771zM356.42373,191.2834c-3.28178,0 -6.1636,-1.27381 -8.38188,-3.68801l3.06741,-2.81892l3.06779,-2.81892c0.64954,0.70684 1.31044,0.99358 2.24668,0.99358v4.16613zM357.819,177.84043c0.03939,-0.04496 0.0303,-0.05946 0.00454,0.02227c-0.0303,0.09533 -0.08067,0.31644 -0.08067,0.71385h-4.16613h-4.16613c0,-2.15984 0.54841,-4.4064 2.13798,-6.22299l3.1352,2.74344zM357.74288,178.57655c0,0.39741 0.05037,0.61852 0.08067,0.71385c0.02575,0.08173 0.03484,0.06723 -0.00454,0.02227l-3.1352,2.74344l-3.1352,2.74344c-1.58957,-1.81658 -2.13798,-4.06315 -2.13798,-6.22299h4.16613zM357.819,179.31266c0.00568,0.00648 -0.00757,-0.00966 -0.04242,-0.0359c-0.03598,-0.02685 -0.08219,-0.05507 -0.13559,-0.07874c-0.05302,-0.0236 -0.09696,-0.0356 -0.12347,-0.04094c-0.02575,-0.00511 -0.02386,-0.00182 0.01326,-0.00182v4.16613v4.16613c-2.31372,0 -4.42216,-0.90504 -5.98219,-2.68803l3.1352,-2.7434zM357.53078,179.15526c0.07234,0 0.10756,-0.00606 0.11286,-0.00708c0.00454,-0.0008 -0.01439,0.0025 -0.04886,0.0167c-0.03484,0.01451 -0.0712,0.03435 -0.10377,0.05727c-0.01515,0.01083 -0.02727,0.02057 -0.03598,0.02814c-0.00833,0.00754 -0.0125,0.01189 -0.01212,0.01163l3.06135,2.82581l3.06097,2.82581c-1.62555,1.7614 -3.76883,2.57399 -6.03445,2.57399v-4.16613zM357.40731,179.30073c-0.04318,0.04806 -0.03712,0.06806 -0.01212,-0.00871c0.02954,-0.09139 0.08143,-0.31204 0.08143,-0.71548h4.16613h4.16613c0,2.19093 -0.5647,4.47234 -2.20805,6.29817l-3.09657,-2.78699zM357.47662,178.57655c0,-0.40453 -0.05189,-0.61784 -0.07802,-0.69699c-0.02045,-0.06336 -0.01742,-0.02363 0.04431,0.04325l3.06135,-2.82581l3.06097,-2.82581c1.6816,1.82136 2.24365,4.1214 2.24365,6.30536h-4.16613zM357.40731,177.88398c-0.00227,-0.00288 0.01136,0.01269 0.04318,0.03575c0.03257,0.02348 0.07082,0.04518 0.10946,0.06177c0.03863,0.01636 0.06287,0.02144 0.06514,0.02182c0.00076,0.00019 -0.02841,-0.00549 -0.09431,-0.00549v-4.16613v-4.16613c2.30084,0 4.45435,0.8491 6.07005,2.64443l-3.09657,2.78699zM357.53078,177.99783c-0.03712,0 -0.03901,0.0033 -0.01326,-0.00182c0.02651,-0.00534 0.07045,-0.01735 0.12347,-0.04094c0.0534,-0.02371 0.09961,-0.05189 0.13559,-0.07874c0.03484,-0.02625 0.0481,-0.04238 0.04242,-0.03594l-3.1352,-2.7434l-3.1352,-2.7434c1.56003,-1.78299 3.66847,-2.68803 5.98219,-2.68803v4.16613zM367.81128,190.80891c-1.29302,0 -2.51293,-0.60034 -3.30147,-1.62494c-0.78854,-1.0246 -1.05706,-2.35735 -0.72604,-3.60726l4.02751,1.06608zM368.05405,169.44423c0.48365,-1.82737 2.13723,-3.10005 4.02751,-3.10005v4.16613zM380.62213,166.34418c1.89029,0 3.54386,1.27268 4.02751,3.10005l-4.02751,1.06608zM388.91993,185.57671c0.33102,1.24992 0.06287,2.58266 -0.72604,3.60726c-0.78854,1.0246 -2.00808,1.62494 -3.30109,1.62494v-4.16613zM380.4642,190.80891c-1.88385,0 -3.53326,-1.26404 -4.02297,-3.08305l4.02297,-1.08308zM377.14266,170.14006c1.88385,0 3.53326,1.26404 4.02297,3.08305l-4.02297,1.08308zM371.53807,173.22311c0.49009,-1.81901 2.13912,-3.08305 4.02297,-3.08305v4.16613zM376.26247,187.72586c-0.48971,1.81901 -2.13912,3.08305 -4.02259,3.08305v-4.16613zM363.78377,185.57671l4.27028,-16.13248l4.02751,1.06608l4.02751,1.06608l-4.27028,16.13247l-4.02751,-1.06608zM372.08157,166.34418h8.54057v4.16613v4.16613h-8.54057v-4.16613zM384.64965,169.44423l4.27028,16.13248l-4.02713,1.06608l-4.02751,1.06608l-4.27028,-16.13247l4.02713,-1.06608zM384.8928,190.80891h-4.4286v-4.16613v-4.16613h4.4286v4.16613zM376.44123,187.72586l-3.32154,-12.3366l4.02297,-1.08308l4.02297,-1.08308l3.32154,12.3366l-4.02297,1.08308zM377.14266,178.47232h-1.58161v-4.16613v-4.16613h1.58161v4.16613zM379.58401,175.38927l-3.32154,12.3366l-4.02259,-1.08308l-4.02297,-1.08308l3.32116,-12.3366l4.02297,1.08308zM372.23988,190.80891h-4.4286v-4.16613v-4.16613h4.4286v4.16613zM384.89469,187.59539c-0.01326,-0.01435 -0.02651,-0.02882 -0.03939,-0.04337l3.1068,-2.77555zM384.87386,169.61205l0.00189,-0.00216l3.08635,2.79835zM399.58371,167.95339c0.05908,0.04373 0.11703,0.08901 0.17346,0.1358l-2.65307,3.21193zM398.33766,176.73254c-1.30021,0 -2.52581,-0.60704 -3.31397,-1.64127l3.31397,-2.52486zM402.66173,172.56641c0,2.30088 -1.86491,4.16613 -4.16613,4.16613v-4.16613zM394.32946,170.51031c0,-2.30089 1.86529,-4.16613 4.16613,-4.16613v4.16613zM402.92419,166.34418c2.30084,0 4.16613,1.86524 4.16613,4.16613h-4.16613zM407.09032,186.64278c0,2.30088 -1.86529,4.16613 -4.16613,4.16613v-4.16613zM398.4956,190.80891c-2.30084,0 -4.16613,-1.86525 -4.16613,-4.16613h4.16613zM398.4956,180.42055c2.30122,0 4.16613,1.86525 4.16613,4.16613h-4.16613zM395.02369,182.06182c0.78816,-1.03422 2.01376,-1.64127 3.31397,-1.64127v4.16613zM399.75718,189.06391c-0.05643,0.04677 -0.11438,0.09207 -0.17346,0.13578l-2.47961,-3.34771zM394.67184,177.84039v0.00004l-3.1352,-2.74344zM394.67184,179.31266v0l-3.1352,2.74344zM400.45368,184.87471c-0.01174,0.01303 -0.02348,0.02594 -0.03522,0.03882l-3.06135,-2.82581zM394.29576,177.9228c-0.01174,-0.01288 -0.02386,-0.02579 -0.0356,-0.03882l3.09695,-2.78699zM384.8553,187.55202c-2.22812,-2.49396 -3.17876,-5.61863 -3.17876,-8.97548h4.16613h4.16613c0,1.74652 0.46244,2.7551 1.06047,3.42441l-3.10718,2.77551zM381.67654,178.57655c0,-3.35472 0.95026,-6.48265 3.19732,-8.96449l3.08824,2.79619l3.08862,2.79619c-0.57909,0.63924 -1.04191,1.6235 -1.04191,3.3721h-4.16613zM384.87575,169.6099c2.21259,-2.44031 5.09972,-3.7402 8.40081,-3.7402v4.16613v4.16613c-0.91655,0 -1.57253,0.28174 -2.22812,1.00464l-3.08635,-2.79835zM393.27657,165.86969c2.30879,0 4.45322,0.71039 6.30714,2.0837l-2.47961,3.34773l-2.47998,3.34771c-0.42343,-0.31375 -0.83058,-0.44687 -1.34755,-0.44687v-4.16613zM399.75718,168.08919c0.69953,0.57789 1.34074,1.22567 1.89445,1.95236l-3.31397,2.52486l-3.31397,2.52486c-0.1212,-0.15903 -0.30261,-0.35477 -0.57303,-0.57822l2.65345,-3.21194zM398.33766,168.40028h0.15793v4.16613v4.16613h-0.15793v-4.16613zM394.32946,172.56641v-2.0561h4.16613h4.16613v2.0561h-4.16613zM398.4956,166.34418h4.4286v4.16613v4.16613h-4.4286v-4.16613zM407.09032,170.51031v16.13247h-4.16613h-4.16613v-16.13247h4.16613zM402.92419,190.80891h-4.4286v-4.16613v-4.16613h4.4286v4.16613zM394.32946,186.64278v-2.0561h4.16613h4.16613v2.0561h-4.16613zM398.4956,188.75281h-0.15793v-4.16613v-4.16613h0.15793v4.16613zM401.65163,187.11155c-0.55372,0.72669 -1.19492,1.37448 -1.89445,1.95236l-2.65307,-3.21194l-2.65345,-3.21194c0.27042,-0.22346 0.45184,-0.41919 0.57303,-0.57822l3.31397,2.52486zM399.58371,189.19969c-1.85393,1.37331 -3.99835,2.08371 -6.30714,2.08371v-4.16613v-4.16613c0.51698,0 0.92412,-0.13313 1.34755,-0.44687l2.47998,3.34771zM393.27657,191.2834c-3.28178,0 -6.1636,-1.27381 -8.38188,-3.68801l3.06741,-2.81892l3.06779,-2.81892c0.64954,0.70684 1.31044,0.99358 2.24668,0.99358v4.16613zM394.67184,177.84043c0.03939,-0.04496 0.03068,-0.05946 0.00454,0.02227c-0.0303,0.09533 -0.08067,0.31644 -0.08067,0.71385h-4.16613h-4.16613c0,-2.15984 0.54841,-4.4064 2.13798,-6.22299l3.1352,2.74344zM394.59572,178.57655c0,0.39741 0.05037,0.61852 0.08067,0.71385c0.02613,0.08173 0.03484,0.06723 -0.00454,0.02227l-3.1352,2.74344l-3.1352,2.74344c-1.58957,-1.81658 -2.13798,-4.06315 -2.13798,-6.22299h4.16613zM394.67184,179.31266c0.00568,0.00648 -0.00757,-0.00966 -0.04242,-0.0359c-0.0356,-0.02685 -0.08219,-0.05507 -0.13559,-0.07874c-0.05302,-0.0236 -0.09696,-0.0356 -0.12347,-0.04094c-0.02575,-0.00511 -0.02386,-0.00182 0.01326,-0.00182v4.16613v4.16613c-2.31372,0 -4.42216,-0.90504 -5.98219,-2.68803l3.1352,-2.7434zM394.38362,179.15526c0.07234,0 0.10756,-0.00606 0.11324,-0.00708c0.00417,-0.0008 -0.01477,0.0025 -0.04924,0.0167c-0.03484,0.01451 -0.0712,0.03435 -0.10377,0.05727c-0.01515,0.01083 -0.02727,0.02057 -0.03598,0.02814c-0.00833,0.00754 -0.0125,0.01189 -0.01212,0.01163l3.06135,2.82581l3.06135,2.82581c-1.62593,1.7614 -3.76921,2.57399 -6.03483,2.57399v-4.16613zM394.26015,179.30073c-0.04318,0.04806 -0.03674,0.06806 -0.01212,-0.00871c0.02992,-0.09139 0.08143,-0.31204 0.08143,-0.71548h4.16613h4.16613c0,2.19093 -0.5647,4.47234 -2.20805,6.29817l-3.09657,-2.78699zM394.32946,178.57655c0,-0.40453 -0.05189,-0.61784 -0.07802,-0.69699c-0.02045,-0.06336 -0.01742,-0.02363 0.04431,0.04325l3.06135,-2.82581l3.06135,-2.82581c1.68122,1.82136 2.24327,4.1214 2.24327,6.30536h-4.16613zM394.26015,177.88398c-0.00227,-0.00288 0.01136,0.01269 0.04318,0.03575c0.03257,0.02348 0.07082,0.04518 0.10983,0.06177c0.03825,0.01636 0.06249,0.02144 0.06476,0.02182c0.00076,0.00019 -0.02803,-0.00549 -0.09431,-0.00549v-4.16613v-4.16613c2.30084,0 4.45435,0.8491 6.07005,2.64443l-3.09657,2.78699zM394.38362,177.99783c-0.03712,0 -0.03901,0.0033 -0.01326,-0.00182c0.02651,-0.00534 0.07045,-0.01735 0.12347,-0.04094c0.0534,-0.02371 0.09999,-0.05189 0.13559,-0.07874c0.03484,-0.02625 0.0481,-0.04238 0.04242,-0.03594l-3.1352,-2.7434l-3.1352,-2.7434c1.56003,-1.78299 3.66847,-2.68803 5.98219,-2.68803v4.16613z" fill="#ff7e00"/><path d="M77.07581,186.64278v-16.13247h4.42852v6.01014h1.89794l4.27036,-6.01014h4.90301l-5.21933,7.43359l5.69381,8.69888h-5.06117l-4.1122,-6.32646h-2.37242v6.32646zM92.88207,186.64278l4.27036,-16.13247h8.54072l4.27036,16.13247h-4.42852l-3.32139,-12.3366h-1.58161l-3.32139,12.3366zM111.70442,186.64278v-16.13247h4.4286v6.95911l-0.15831,2.84691h0.31663l6.48439,-9.80601h4.74484v16.13247h-4.4286v-6.95911l0.15831,-2.84691h-0.31625l-6.48477,9.80601zM131.01141,186.64278v-16.13247h4.4286v6.01014h1.89786l4.27028,-6.01014h4.90316l-5.2194,7.43359l5.69359,8.69888h-5.06109l-4.11197,-6.32646h-2.37242v6.32646zM148.55726,186.64278v-16.13247h4.4286v6.01014h6.80102v-6.01014h4.4286v16.13247h-4.4286v-6.32646h-6.80102v6.32646zM167.70973,186.64278v-16.13247h4.4286v6.95911l-0.15831,2.84691h0.31625l6.48477,-9.80601h4.74484v16.13247h-4.4286v-6.95911l0.15831,-2.84691h-0.31625l-6.48477,9.80601zM185.4351,174.30619v-3.79588h15.18328v3.79588h-5.37734v12.3366h-4.4286v-12.3366zM204.07399,184.64993c-1.66607,-1.66596 -2.4993,-3.69043 -2.4993,-6.07339c0,-2.38295 0.83323,-4.3969 2.4993,-6.04176c1.6869,-1.66596 3.75368,-2.49896 6.19958,-2.49896c2.4887,0 4.53427,0.82243 6.13671,2.46733c1.60282,1.64486 2.40424,3.66934 2.40424,6.07339v0.94897h-12.65292c0.16854,1.05441 0.6431,1.95066 1.4233,2.68875c0.7802,0.73809 1.67668,1.10713 2.68867,1.10713c1.11766,0 2.07738,-0.31632 2.8788,-0.94897c0.31625,-0.27413 0.56925,-0.59045 0.75899,-0.94897h4.74484c-0.35829,1.07551 -0.88549,2.02447 -1.58161,2.84691c-1.6869,1.89794 -3.95404,2.84691 -6.80102,2.84691c-2.4459,0 -4.51268,-0.82243 -6.19958,-2.46733zM206.31954,176.83677h7.75014c-0.16892,-0.84353 -0.60106,-1.54999 -1.2968,-2.11935c-0.67491,-0.59049 -1.50814,-0.88572 -2.4993,-0.88572c-0.99116,0 -1.83461,0.2847 -2.53036,0.85406c-0.69612,0.5694 -1.1703,1.28639 -1.42368,2.15101zM228.77498,189.96417v-7.11727h1.73955l3.32154,-12.3366h8.54057l3.32154,12.3366h1.73993v7.11727h-4.11235v-3.32139h-10.43881v3.32139zM234.94313,182.84691h6.32646l-2.37242,-8.54072h-1.58161zM247.58393,186.64278l4.27028,-16.13247h8.54057l4.27028,16.13247h-4.42822l-3.32154,-12.3366h-1.58161l-3.32154,12.3366zM265.61533,186.64278l3.32154,-5.85198c-0.5272,-0.25307 -1.00177,-0.59045 -1.42368,-1.01222c-0.94874,-0.94897 -1.4233,-2.1932 -1.4233,-3.73263c0,-1.62381 0.56925,-2.95235 1.70811,-3.98566c1.16008,-1.03331 2.75192,-1.54999 4.77666,-1.54999h8.06601v16.13247h-4.4286v-4.90301h-3.16323l-2.53036,4.90301zM270.67642,176.04596c0,0.65374 0.20035,1.15985 0.60106,1.51837c0.40071,0.35848 0.98056,0.53773 1.73993,0.53773h3.19467v-3.79588h-3.19467c-0.73816,0 -1.31801,0.16869 -1.73993,0.50611c-0.40071,0.31632 -0.60106,0.72756 -0.60106,1.23367zM292.97242,186.64278v-16.13247h4.4286v6.01014h6.80102v-6.01014h4.42822v16.13247h-4.42822v-6.32646h-6.80102v6.32646zM313.4535,184.77647c-1.41308,-1.58161 -2.11942,-3.64824 -2.11942,-6.19992c0,-2.55168 0.70635,-4.60778 2.11942,-6.1683c1.43391,-1.58161 3.20527,-2.37242 5.31409,-2.37242c1.4127,0 2.68867,0.42176 3.82754,1.26529c0.48479,0.40067 0.8961,0.82243 1.23355,1.26529h0.15831v-2.0561h4.42822v16.13247h-4.42822v-2.0561h-0.15831c-0.33746,0.44286 -0.74877,0.86462 -1.23355,1.26529c-1.13887,0.84353 -2.41484,1.26529 -3.82754,1.26529c-2.10882,0 -3.88018,-0.78028 -5.31409,-2.3408zM317.02766,175.09699c-0.73816,0.84353 -1.10705,2.00338 -1.10705,3.47955c0,1.47617 0.36889,2.63602 1.10705,3.47955c0.73816,0.84353 1.68728,1.26529 2.84698,1.26529c1.22333,0 2.21411,-0.41124 2.97348,-1.23367c0.75899,-0.84353 1.13887,-2.01391 1.13887,-3.51118c0,-1.49727 -0.37988,-2.65712 -1.13887,-3.47955c-0.75937,-0.84353 -1.75015,-1.26529 -2.97348,-1.26529c-1.1597,0 -2.10882,0.42176 -2.84698,1.26529zM331.4205,176.52045v-6.01014h4.4286v5.69381c0,1.68706 0.8961,2.53058 2.68867,2.53058c0.86466,0 1.69751,-0.14763 2.49892,-0.44286c0.31625,-0.12654 0.59045,-0.27413 0.82262,-0.44286v-7.33868h4.42822v16.13247h-4.42822v-5.21933c-0.29542,0.23198 -0.64348,0.42176 -1.04418,0.5694c-0.9067,0.35848 -1.9293,0.53773 -3.06817,0.53773c-1.96111,0 -3.51129,-0.53773 -4.64978,-1.61324c-1.11804,-1.07551 -1.67668,-2.54115 -1.67668,-4.3969zM351.10926,184.77647c-1.4127,-1.58161 -2.11942,-3.64824 -2.11942,-6.19992c0,-2.55168 0.70673,-4.60778 2.11942,-6.1683c1.43391,-1.58161 3.20565,-2.37242 5.31447,-2.37242c1.4127,0 2.68867,0.42176 3.82716,1.26529c0.48516,0.40067 0.89648,0.82243 1.23393,1.26529h0.15793v-2.0561h4.4286v16.13247h-4.4286v-2.0561h-0.15793c-0.33746,0.44286 -0.74877,0.86462 -1.23393,1.26529c-1.13849,0.84353 -2.41446,1.26529 -3.82716,1.26529c-2.10882,0 -3.88056,-0.78028 -5.31447,-2.3408zM354.6838,175.09699c-0.73816,0.84353 -1.10705,2.00338 -1.10705,3.47955c0,1.47617 0.36889,2.63602 1.10705,3.47955c0.73816,0.84353 1.6869,1.26529 2.84698,1.26529c1.22295,0 2.21411,-0.41124 2.97348,-1.23367c0.75899,-0.84353 1.13849,-2.01391 1.13849,-3.51118c0,-1.49727 -0.3795,-2.65712 -1.13849,-3.47955c-0.75937,-0.84353 -1.75053,-1.26529 -2.97348,-1.26529c-1.16008,0 -2.10882,0.42176 -2.84698,1.26529zM367.81128,186.64278l4.27028,-16.13247h8.54057l4.27066,16.13247h-4.4286l-3.32154,-12.3366h-1.58161l-3.32116,12.3366zM387.9621,184.77647c-1.4127,-1.58161 -2.11942,-3.64824 -2.11942,-6.19992c0,-2.55168 0.70673,-4.60778 2.11942,-6.1683c1.43429,-1.58161 3.20565,-2.37242 5.31447,-2.37242c1.4127,0 2.68867,0.42176 3.82754,1.26529c0.48479,0.40067 0.8961,0.82243 1.23355,1.26529h0.15793v-2.0561h4.4286v16.13247h-4.4286v-2.0561h-0.15793c-0.33746,0.44286 -0.74877,0.86462 -1.23355,1.26529c-1.13887,0.84353 -2.41484,1.26529 -3.82754,1.26529c-2.10882,0 -3.88018,-0.78028 -5.31447,-2.3408zM391.53664,175.09699c-0.73816,0.84353 -1.10705,2.00338 -1.10705,3.47955c0,1.47617 0.36889,2.63602 1.10705,3.47955c0.73816,0.84353 1.6869,1.26529 2.84698,1.26529c1.22295,0 2.21411,-0.41124 2.97348,-1.23367c0.75899,-0.84353 1.13849,-2.01391 1.13849,-3.51118c0,-1.49727 -0.3795,-2.65712 -1.13849,-3.47955c-0.75937,-0.84353 -1.75053,-1.26529 -2.97348,-1.26529c-1.16008,0 -2.10882,0.42176 -2.84698,1.26529z" fill="#ffffff"/></g></g></svg>