<?xml version="1.0" encoding="UTF-8"?>
<svg xmlns="http://www.w3.org/2000/svg" xmlns:xlink="http://www.w3.org/1999/xlink" version="1.1" width="240.93872" height="332.70884" viewBox="0,0,240.93872,332.70884">
  <g transform="translate(-119.53064,-8.17947)">
    <g stroke-miterlimit="10">
      <g stroke="none" stroke-width="0.5">
        <path d="M258.89496,217.37011c-4.25922,8.0525 -3.83074,16.32865 -2.69242,25.43532c0.56397,4.51181 0.57304,10.09212 3.20476,14.15896c0.71202,1.10029 2.05209,1.69841 2.78314,2.78615c1.97239,2.93474 3.19341,7.04456 4.33125,10.46389c-0.01005,0.02421 -0.01965,0.04848 -0.02881,0.07258l-0.09694,0.00708c0,0 0.00003,0.09263 0.01648,0.24415c-0.39499,1.50399 0.83183,2.73531 0.83183,2.73531c3.52386,3.29699 2.21515,4.07891 2.89434,8.62257c0.28883,1.9322 1.58987,3.6306 1.85148,5.56667c0.98625,7.29895 1.48166,14.80369 0.01152,22.13338c-0.36224,1.80602 -0.50897,3.65627 -0.90525,5.45513c-0.90284,4.09829 -4.63189,8.4145 1.37012,11.50288c3.18445,1.63858 8.79592,-0.16946 12.49253,1.12533c1.32138,0.42572 3.21178,0.20722 3.92176,1.4002c0.324,0.54442 0.40551,1.4385 0.08151,1.98292c-0.27645,0.46452 -0.99077,0.43752 -1.49991,0.61912c-2.1814,0.77809 -5.58377,2.4754 -7.88787,2.49143c-2.90788,0.02023 -7.50159,-2.63648 -10.32007,-3.55749c-2.54898,-0.83294 -5.31375,-0.76775 -7.98039,-1.05083c-3.72359,-0.39528 -6.33272,-1.83434 -10.20137,-1.85025l-3.36116,-0.86103c0,0 -0.13115,-0.03262 -0.34342,-0.05569c-1.15987,-1.46499 -3.13137,-0.80804 -3.13137,-0.80804l-0.59428,0.97074c0.83722,-1.76156 -0.29118,-4.13414 -0.29118,-6.21272c0.58865,-1.73314 1.84851,-3.16729 2.56557,-4.85136c2.48448,-5.835 3.97283,-12.76622 5.67383,-18.88623c0.58305,-2.09773 2.56614,-3.70805 2.84478,-5.86739c0.75658,-5.86317 -5.07184,-14.38781 -9.51375,-17.63835c-1.11484,-0.81582 -2.57571,-1.05041 -3.70674,-1.84363c-1.24983,-0.87653 -1.95125,-2.48087 -3.35555,-3.0795c-1.33542,-0.56927 -2.8883,0.05556 -4.32371,-0.16124c-1.11545,-0.16848 -2.07779,-0.98124 -3.20575,-0.96316c-1.19657,0.01918 -6.22119,2.00811 -7.28039,2.40949c-0.69109,0.95868 -3.93035,5.31371 -4.55033,6.55668c-1.729,3.46634 -1.99835,7.64045 -3.71885,11.09852c-0.56385,1.13329 -1.68754,1.9916 -2.02523,3.21153c-1.57622,5.69421 0.93658,12.46471 1.74966,17.97156c0.97432,6.59889 -0.61971,12.84213 -2.67421,19.00581c0,0 -0.10386,0.30142 -0.14726,0.6016c-6.98428,3.39413 -16.01564,5.58389 -23.57031,6.82454c-1.8538,0.30444 -3.70243,-0.66326 -5.56219,-0.92893c-1.88681,-0.26954 -3.94379,0.11188 -5.68115,-0.67189c-0.81314,-0.36683 -2.33078,-0.7846 -2.11019,-1.64895c0.2484,-0.97329 5.06025,-2.88568 5.79429,-3.38061c3.66269,-0.93045 6.89311,-1.08142 8.92993,-5.40479c0.95074,-2.01806 -1.52649,-4.87148 -1.7631,-6.89131c-0.1797,-1.53402 0.18936,-3.10332 -0.00221,-4.63591c-0.40137,-3.21103 -1.35422,-5.96393 -0.91598,-9.38263c0.85039,-6.63385 2.34034,-11.68553 5.28043,-17.63079c0.82457,-1.66738 0.65642,-3.78655 1.71386,-5.31687c1.30537,-1.88912 2.94649,-3.63936 3.82543,-5.75038c5.44329,-8.39887 8.22658,-17.97609 12.16032,-27.153c1.14182,-2.66371 2.64731,-5.29646 2.9881,-8.17447c0.35466,-2.99509 0.38403,-6.05838 0.00483,-9.05046c-0.28737,-2.26745 -1.54343,-4.33509 -1.86823,-6.59748c-0.19341,-1.34721 0.30774,-2.77973 -0.08547,-4.08272c-0.00894,-0.02964 -0.01821,-0.05913 -0.02781,-0.08847c0.00231,-0.00652 0.00345,-0.00993 0.00345,-0.00993c0.51904,-1.55702 0.37168,-3.44837 1.41024,-4.71924c2.57069,-3.14571 7.07641,-3.51493 10.6826,-3.49781c3.40381,0.01616 7.29955,-0.5082 10.66645,-0.03798c3.19447,0.44614 6.09143,2.41564 9.38617,2.79676c5.0563,0.5849 9.83141,0.10673 14.26179,2.52559c0.1693,0.66821 0.6008,1.59063 1.69038,1.96563z" fill="#e36f00"></path>
        <path d="M210.73542,228.58885c-0.45872,0.12281 -0.81089,0.12281 -0.81089,0.12281l-3.67407,-3.81175c1.86099,-4.71194 -2.29889,-6.20798 2.84293,-10.6528c2.93347,-2.53583 8.46668,-1.53997 11.95166,-1.52122c2.12463,0.01143 4.18243,-0.91507 6.30708,-0.92114c6.34608,-0.01811 12.71324,2.0846 18.99955,2.78863c2.20769,0.24725 4.44997,0.19999 6.66442,0.0233c1.52404,-0.12161 3.30067,-1.55479 4.53917,-0.65835c4.99285,3.61387 2.38512,5.9483 0.54989,8.98969c0.1176,3.25428 0.66693,6.6785 1.02926,9.92752c0.14116,1.2658 0.99829,2.43523 0.9267,3.70686c-0.12711,2.25764 0.47149,5.52053 -1.50777,6.61396c-1.93397,1.06841 -4.34142,-1.15558 -6.19443,-2.35893c-2.24056,-1.45502 -3.08818,-5.93076 -6.20511,-6.68978c-1.04387,-0.2542 -2.15463,0.22947 -3.22148,0.10257c-1.26473,-0.15044 -2.44355,-0.76476 -3.70686,-0.9267c-2.45116,-0.31421 -4.96205,0.31071 -7.41366,0c-2.15214,-0.27275 -4.07543,-1.87821 -6.24433,-1.83387c-1.21538,0.02485 -2.3112,0.92975 -3.52683,0.92805c-2.82002,-0.00396 -5.58925,-0.93753 -8.40925,-0.92591c0,0 -2.89598,0 -2.89598,-2.89598c0,-0.00232 0,-0.00464 0.00001,-0.00696z" fill="#9f4d00"></path>
        <path d="M214.63847,297.39611l-0.11317,0.71408c2.32903,6.98717 2.96378,13.92959 2.92877,21.30345c-0.0066,1.38993 -0.16497,2.7856 -0.03739,4.16968c0.13036,1.41434 1.35031,2.87136 0.80735,4.18382c-1.25141,3.02495 -7.2894,5.46978 -10.16384,6.44108c-11.12799,3.76022 -22.21624,2.44118 -33.79054,1.65941c-1.07537,-2.09111 -3.68863,-3.96786 -3.22611,-6.27334c0.38037,-1.89597 3.20976,-2.26869 5.05551,-2.84541c3.56635,-1.11434 7.7341,1.16967 11.26648,-0.683c2.221,-1.16488 6.61958,-4.07552 8.46396,-5.91991c3.39664,-3.39664 4.77625,-8.99263 6.85999,-13.12526c2.34387,-4.64856 5.65254,-8.53064 7.26779,-13.54408c0,0 0.91578,-2.74737 3.66314,-1.83159c2.74737,0.91578 1.83159,3.66314 1.83159,3.66314c-0.24483,0.716 -0.51805,1.4103 -0.81352,2.08793z" fill="#9f4d00"></path>
        <path d="M248.84642,302.61698c0.218,0 0.41959,0.01641 0.606,0.04676c-0.09941,-3.61485 0.35171,-7.28359 1.21805,-10.82714c0,0 0.70237,-2.80951 3.51188,-2.10714c2.80951,0.70237 2.10714,3.51188 2.10714,3.51188c-1.79049,6.9762 -1.69601,14.76992 2.38026,20.85904c0.943,1.40865 2.23505,3.73853 3.74645,4.70318c0.90081,0.57494 2.18061,0.42158 3.01544,1.08872c0.96729,0.77299 1.29697,2.13012 2.14339,3.03385c1.03973,1.11014 3.15565,1.47347 3.47156,2.96131c1.01122,4.76259 -2.59262,7.67445 -6.83039,7.51708c-1.37475,-0.05105 -2.29681,-1.54781 -3.56735,-2.07533c-2.90665,-1.20682 -6.77784,-1.88459 -9.83193,-2.6481c-2.38322,-0.83077 -10.48204,-0.34566 -11.66678,-1.92496c-1.26284,-1.68343 0.09468,-4.22101 0.42883,-6.29876c0.8033,-4.99491 4.97823,-9.22112 6.52007,-14.00678l-0.1486,-0.93763c0,0 0,-2.89598 2.89598,-2.89598zM244.42396,322.58683c-0.30998,0.15057 -0.61089,0.30239 -0.70858,0.60485c-0.11972,0.37067 0.26306,-0.15555 0.70858,-0.60485z" fill="#9f4d00"></path>
        <path d="M257.18119,215.45746c-4.43038,-2.41886 -9.19256,-1.93671 -14.24886,-2.52161c-3.29474,-0.38113 -6.18269,-2.34968 -9.37716,-2.79583c-3.3669,-0.47023 -7.25283,0.05355 -10.65665,0.03739c-3.60619,-0.01712 -8.10183,0.3497 -10.67252,3.49541c-1.03856,1.27087 -0.88854,3.16126 -1.40758,4.71828c0,0 -0.00113,0.0034 -0.00344,0.00993c0.00959,0.02934 0.01887,0.05883 0.02781,0.08847c0.39321,1.30299 -0.10655,2.73494 0.08686,4.08215c0.3248,2.26239 1.5818,4.32962 1.86917,6.59707c0.3792,2.99209 0.35466,6.05296 0,9.04806c-0.34079,2.87801 -1.8371,5.50439 -2.97891,8.1681c-3.93374,9.17691 -6.69657,18.70832 -12.13985,27.1072c-0.87895,2.11103 -2.52091,3.85285 -3.82628,5.74197c-1.05744,1.53032 -0.89088,3.64279 -1.71545,5.31018c-2.94009,5.94526 -4.43709,10.98186 -5.28747,17.61571c-0.43824,3.4187 0.50963,6.16508 0.911,9.3761c0.19157,1.53259 -0.17971,3.09952 0,4.63354c0.23661,2.01982 2.70988,4.86959 1.75914,6.88765c-2.03682,4.32337 -5.34369,4.56134 -9.00638,5.49178c-0.73404,0.49493 -5.4665,2.32297 -5.7149,3.29626c-0.2206,0.86435 1.29567,1.28084 2.10881,1.64767c1.73736,0.78377 3.79173,0.40014 5.67854,0.66968c1.85976,0.26568 3.7054,1.23114 5.5592,0.9267c7.55467,-1.24066 16.5726,-3.43741 23.55687,-6.83154c0.04341,-0.30018 0.1076,-0.49277 0.1076,-0.49277c2.05451,-6.16368 3.64321,-12.40917 2.66888,-19.00806c-0.81308,-5.50684 -3.34276,-12.28968 -1.76653,-17.9839c0.33769,-1.21993 1.45978,-2.08001 2.02362,-3.2133c1.7205,-3.45806 1.97786,-7.6542 3.70686,-11.12054c0.61999,-1.24296 3.85944,-5.63067 4.55052,-6.58936c1.0592,-0.40138 6.12151,-2.42878 7.31809,-2.44795c1.12796,-0.01808 2.12862,0.79565 3.24407,0.96413c1.43541,0.2168 3.01581,-0.38622 4.35122,0.18305c1.40429,0.59863 2.11533,2.22979 3.36516,3.10633c1.13103,0.79322 2.59201,1.0376 3.70685,1.85342c4.44191,3.25054 10.25719,11.80785 9.50061,17.67101c-0.27864,2.15934 -2.27011,3.77791 -2.85316,5.87564c-1.70101,6.12002 -3.20785,13.06119 -5.69233,18.89618c-0.71706,1.68408 -1.98135,3.11945 -2.57,4.85259c0,2.07858 1.12724,4.45142 0.29002,6.21298l0.56918,-1.08383c0,0 1.96864,-0.65621 3.12851,0.80877c0.21227,0.02307 0.34311,0.05578 0.34311,0.05578l3.35833,0.86193c3.86865,0.01591 6.47025,1.45819 10.19385,1.85347c2.66664,0.28308 5.42659,0.22067 7.97557,1.05361c2.81848,0.921 7.40807,3.58062 10.31595,3.56039c2.30409,-0.01603 5.70224,-1.70973 7.88364,-2.48783c0.50913,-0.18161 1.22268,-0.15387 1.49913,-0.61838c0.324,-0.54442 0.32399,-1.35619 -0.00001,-1.90061c-0.70998,-1.19299 -2.60133,-0.97354 -3.92272,-1.39926c-3.69661,-1.29479 -9.31347,0.51783 -12.49792,-1.12075c-6.00201,-3.08838 -2.34693,-7.49355 -1.44409,-11.59184c0.39628,-1.79886 0.53973,-3.64584 0.90197,-5.45186c1.47015,-7.32969 0.96297,-14.81531 -0.02328,-22.11427c-0.26161,-1.93608 -1.56463,-3.62802 -1.85346,-5.56023c-0.67919,-4.54366 0.62787,-5.31299 -2.89599,-8.60998c0,0 -1.22673,-1.22675 -0.83174,-2.73074c-0.01646,-0.15152 -0.01646,-0.24374 -0.01646,-0.24374l0.09694,-0.00708c0.00916,-0.0241 0.01876,-0.04825 0.02882,-0.07246c-1.13784,-3.41932 -2.35442,-7.51046 -4.3268,-10.4452c-0.73105,-1.08774 -2.06815,-1.67984 -2.78017,-2.78013c-2.63172,-4.06683 -2.62701,-9.63085 -3.19098,-14.14266c-1.13832,-9.10668 -1.55562,-17.37567 2.70361,-25.42817c-1.08958,-0.375 -1.51908,-1.29649 -1.68838,-1.9647zM207.62307,210.15717c4.69866,-5.93891 12.30335,-5.77171 18.98224,-5.77171c0.5889,0 7.54391,-0.01108 7.8776,0.03739c3.14127,0.45629 5.95654,2.42471 9.15708,2.76443c6.56753,0.69712 12.17706,0.39093 17.93341,4.17154l0.86707,2.2432c0.55283,-0.06297 1.19752,0.05993 1.91302,0.53693c2.40961,1.60638 0.80322,4.01599 0.80322,4.01599c-5.10878,7.52123 -4.30971,15.44745 -3.24219,23.98772c0.44477,3.55817 0.16195,8.61088 2.36935,11.80531c0.74505,1.0782 2.05693,1.68718 2.78017,2.78013c2.22546,3.36311 3.63185,7.87069 4.91745,11.72722l0.12136,1.50452c0.90019,0.80666 1.85318,1.57445 2.43147,2.61805c1.36871,2.47 0.88741,5.57812 1.26519,8.37661c0.26137,1.93613 1.56445,3.6281 1.85347,5.56029c0.95961,6.41534 1.7528,13.70969 0.94239,20.27869c-0.4,3.24233 -1.20297,6.42349 -1.9171,9.61139c-0.23004,1.02692 -0.59866,2.02097 -0.98999,2.99787c-0.26524,0.66214 -1.16616,2.04904 -0.45411,2.09114c4.30138,0.25428 7.35687,-0.62887 11.59651,0.73264c5.47126,1.87083 10.06846,4.13726 7.19779,11.52758c-1.12117,2.88637 -7.39553,4.40521 -10.08396,5.12078c-1.52786,0.40666 -3.04666,1.04651 -4.6277,1.04013c-4.81904,-0.01944 -9.50647,-4.11472 -14.25343,-4.66882c-1.49769,-0.17482 -3.02567,0.18897 -4.52354,0.01569c-3.93916,-0.4557 -6.19818,-1.8709 -10.19379,-1.85346l-4.05539,-0.99146c0,0 -0.79231,-0.19807 -1.43024,-0.8046l-3.79609,0.58532c-2.59129,-4.85225 -3.41691,-6.84615 -3.41692,-12.32126c0.72522,-2.19837 2.0727,-4.14266 2.99033,-6.26793c2.4157,-5.59487 3.71204,-12.30409 5.42819,-18.17238c0.32056,-1.09614 0.58188,-2.22799 1.10569,-3.24282c0.39197,-0.7594 1.45845,-1.15952 1.60148,-2.00205c0.3261,-1.92096 -2.31719,-5.7536 -3.26299,-7.16645c-2.47973,-3.70424 -4.12459,-4.11668 -7.62413,-6.67074c-0.88648,-0.64698 -1.18753,-2.01876 -2.19503,-2.45393c-0.93882,-0.40551 -2.04855,0.31619 -3.0625,0.18305c-0.82,-0.10767 -1.48951,-0.86734 -2.31626,-0.88934c-1.33467,-0.03551 -2.50657,0.93744 -3.80243,1.25891c-0.89211,1.54799 -2.0622,2.93412 -2.8632,4.53116c-1.73075,3.4508 -1.96821,7.66088 -3.70687,11.12057c-0.43229,0.86019 -1.40743,1.42459 -1.68317,2.34696c-1.35039,4.5171 1.33076,10.98343 1.94026,15.37773c1.04508,7.53475 -0.52463,14.65644 -2.87558,21.72014c0.0844,0.28399 0.13288,0.61019 0.13288,0.98485c0,2.89598 -2.89598,2.89598 -2.89598,2.89598l0.36844,-0.30575c-7.19908,3.56478 -15.04671,4.76908 -22.79294,6.69576c-2.50928,0.62412 -5.12846,1.30699 -7.69422,0.98632c-0.96928,-0.12114 -1.81309,-0.78856 -2.78009,-0.9267c-4.66453,-0.66635 -13.77386,-1.12526 -12.60029,-8.80331c0.27978,-1.83046 1.62384,-3.42133 2.96592,-4.69715c1.66607,-1.58381 4.22763,-1.86132 6.14649,-3.12711c0.14103,-0.03466 5.26664,-1.04105 5.82107,-1.92194c0.24015,-0.38156 -0.72134,-0.59124 -0.90981,-1.0008c-0.47302,-1.02794 -0.88995,-2.11024 -1.03799,-3.23207c-0.20207,-1.53125 0.19157,-3.10098 0,-4.63358c-0.46373,-3.70988 -1.42184,-7.08478 -0.9424,-11.01154c0.87857,-7.19571 2.57373,-13.01444 5.83305,-19.45278c1.07705,-2.12756 0.59628,-3.65434 1.99148,-5.81041c1.08045,-1.66968 2.82159,-3.00442 3.40712,-4.90109l-0.13275,-0.06338c0,0 0,-2.1156 1.80823,-2.73035c4.04361,-6.60367 6.77102,-14.18983 9.48898,-21.43353c1.16306,-3.0997 3.21237,-6.21683 3.55187,-9.55161c0.53818,-5.28631 -1.13017,-9.03222 -1.83777,-14.00964c-0.25925,-1.82365 -0.30792,-3.86445 -1.40443,-5.34452c0,0 -1.60638,-2.40961 0.80322,-4.01599c0.62732,-0.41821 1.20019,-0.56422 1.70446,-0.55142c0.53372,-1.56526 1.11189,-3.18333 1.30733,-3.43036z" fill="#3e1e00"></path>
      </g>
      <path d="M119.53064,53.17947v-45h240.93872v45z" fill="#ffffff" stroke="none" stroke-width="0"></path>
      <text transform="translate(132.54956,38.98335) scale(0.69199,0.69199)" font-size="40" xml:space="preserve" fill="#000000" stroke="#000000" stroke-width="3" font-family="&quot;JetBrains Mono&quot;, Sans Serif" font-weight="normal" text-anchor="start">
        <tspan x="0" dy="0">Этап пройден!</tspan>
      </text>
    </g>
  </g>
</svg>
