<?xml version="1.0" encoding="UTF-8"?>
<svg xmlns="http://www.w3.org/2000/svg" xmlns:xlink="http://www.w3.org/1999/xlink" version="1.1" width="508.47908" height="368.27707" viewBox="0,0,508.47908,368.27707">
  <g transform="translate(16.37905,-8.17947)">
    <g stroke-miterlimit="10">
      <path d="M443.8134,305.36356c-2.12984,-4.23309 -2.65466,-8.86012 -4.78134,-13.00762c1.42423,-0.89972 2.75986,-1.88871 4.00283,-2.95146c-0.1016,1.13823 0.7773,2.01738 0.7773,2.01738l0.1965,-0.17719c1.16528,3.49558 2.98152,6.47522 4.12569,9.90782c3.59371,5.3905 5.46223,11.65983 7.97251,17.50936c1.04043,2.42446 2.49733,4.19528 3.09013,6.88502c0.51435,2.33377 0.89876,4.70198 1.55207,7.00072c0.47083,1.65668 -0.26956,4.10929 1.25575,4.90911c1.55195,0.81379 3.35342,-1.00419 4.95383,-1.71796c0.74829,-0.33373 1.27026,-1.05841 2.01956,-1.38986c1.38936,-0.61457 2.99972,-0.36753 4.51751,-0.54349c-0.30191,0.46573 -0.53816,1.08342 -0.82679,1.36078c-0.57555,0.55307 -1.34979,0.86217 -2.02277,1.2914c-3.51961,2.60746 -7.66272,-0.49532 -7.5097,6.42224c0.04253,1.92247 2.69454,2.94446 3.20274,4.79904c0.25335,0.92454 -1.87917,3.30571 -2.97125,2.96018c-0.39047,-0.12355 -0.19332,-0.79635 -0.31096,-1.18863c-0.24356,-0.8122 -1.30338,-3.90971 -1.36759,-4.59926c-0.1556,-1.67088 1.2088,-3.75047 0.02235,-4.93723c-1.132,-1.1323 -3.22087,0.03435 -4.80925,0.23581c-4.06985,0.51619 -8.30168,2.79797 -12.25754,3.1857c-0.89888,0.0881 0.27457,-2.2936 1.13435,-2.57027c0.8404,-0.27043 1.75755,0.10315 2.63882,0.15582c1.48367,-0.47695 6.91045,-2.13935 7.37475,-2.86792c1.43625,-2.25371 -2.32499,-7.99441 -3.06851,-9.97473c-2.82212,-7.51656 -5.28982,-15.51757 -8.91102,-22.71476z" fill="#d38133" stroke="none" stroke-width="0.5"></path>
      <path d="M384.31466,303.29529c4.03243,-4.62258 7.49209,-9.67503 11.73804,-14.10664c0.82022,0.85734 1.6876,1.68172 2.51871,2.50201c0.01,0.00507 0.02004,0.01018 0.03004,0.01527c-1.60758,2.46687 -2.92231,5.35678 -4.59399,7.69711c-3.44152,4.81807 -8.10564,8.64805 -11.29173,13.75605c-1.99787,3.20303 -3.33997,6.43652 -5.54123,9.54455c-1.06363,1.50178 -1.48177,3.40255 -2.50552,4.9318c-0.56864,0.84943 -1.63669,1.28496 -2.21474,2.12802c-0.89502,1.30536 -2.34322,2.56738 -2.12676,4.13524c0.33909,2.45609 3.78768,4.41874 5.68649,5.68462c0.81585,0.80399 2.5677,2.40258 3.09777,3.61084c0.40766,0.92923 -3.34347,-0.33176 -3.3971,-0.37082c-2.31731,-1.68769 -2.04519,-3.23355 -4.81143,-4.80123c-1.21995,-0.69137 -2.66491,-1.33385 -4.05562,-1.15444c-3.64326,0.47 -3.32359,2.71224 -5.78812,4.34829c-0.70255,0.46638 -1.70145,0.3295 -2.40226,0.79849c-2.76586,1.85092 -2.82706,3.4464 -6.02677,4.09636c-0.56821,0.11542 0.93003,-0.8491 1.33403,-1.26499c0.6739,-0.69371 1.30343,-1.43859 2.05118,-2.05197c1.87457,-1.53769 3.87864,-1.97406 5.14621,-4.35001c0.03897,-0.07304 0.07668,-0.14658 0.11311,-0.22066l-0.02323,0.10468l1.58093,-2.37158c0.2768,-0.40239 0.43795,-0.89049 0.43795,-1.41581c0,-1.38071 -1.12573,-2.50558 -2.50644,-2.50558c-0.2969,0 -0.58249,0.05094 -0.84669,0.14592l-0.2752,0.09147c0.1982,-0.33944 0.40508,-0.67039 0.65382,-0.95395c2.9487,-3.36151 5.36486,-6.90199 8.05812,-10.49817c4.79749,-6.40585 10.72671,-11.52512 15.96045,-17.52483z" fill="#d38133" stroke="none" stroke-width="0.5"></path>
      <path d="M394.56779,301.86777c-1.76777,1.76777 -3.53553,0 -3.53553,0l-0.41898,-0.48764c-0.80001,-0.53335 -1.60002,-1.06669 -2.40002,-1.60004c0,0 -2.08012,-1.38676 -0.69335,-3.46688c1.38676,-2.08012 3.46688,-0.69335 3.46688,-0.69335c0.80001,0.53335 1.60002,1.06669 2.40002,1.60004l1.18099,1.11234c0,0 1.76777,1.76777 0,3.53553z" fill="#905823" stroke="none" stroke-width="0.5"></path>
      <path d="M383.36777,317.06779c-1.76777,1.76777 -3.53553,0 -3.53553,0l0.17717,-0.19606c-1.04231,-0.395 -2.25278,-0.49339 -3.12692,-1.18499c-0.96675,-0.76487 -1.44173,-1.99998 -2.1626,-2.99997c0,0 -1.38675,-2.08013 0.69338,-3.46688c2.08013,-1.38675 3.46688,0.69338 3.46688,0.69338c0.58263,1.01095 1.57799,1.93409 2.71048,2.21507l1.77715,1.40392c0,0 1.76777,1.76777 0,3.53553z" fill="#905823" stroke="none" stroke-width="0.5"></path>
      <path d="M372.89999,327.30002c0,2.5 -2.5,2.5 -2.5,2.5h-3.19995c-2.15247,-0.0193 -4.34112,-0.27013 -6.39059,-0.92827c0,0 -2.37171,-0.79055 -1.58116,-3.16227c0.79055,-2.37171 3.16227,-1.58116 3.16227,-1.58116c1.52772,0.53509 3.19087,0.69037 4.80949,0.6717h3.19995c0,0 2.5,0 2.5,2.5z" fill="#905823" stroke="none" stroke-width="0.5"></path>
      <path d="M446.50003,298.50003c0,2.5 -2.5,2.5 -2.5,2.5l-0.80947,-0.12829c-0.79999,0.26666 -1.59998,0.53333 -2.39996,0.79999c0,0 -2.37171,0.79057 -3.16228,-1.58114c-0.79057,-2.37171 1.58114,-3.16228 1.58114,-3.16228c0.79999,-0.26666 1.59998,-0.53333 2.39996,-0.79999l2.39061,-0.12829c0,0 2.5,0 2.5,2.5z" fill="#905823" stroke="none" stroke-width="0.5"></path>
      <path d="M454.23612,309.38203c1.118,2.23609 -1.11809,3.35408 -1.11809,3.35408l-2.71804,1.0639c-1.61859,-0.01866 -3.28172,0.13662 -4.80942,0.6717c0,0 -2.37171,0.79055 -3.16227,-1.58116c-0.79055,-2.37171 1.58116,-3.16227 1.58116,-3.16227c2.04945,-0.65814 4.23808,-0.90898 6.39053,-0.92827l0.48204,-0.53607c0,0 2.23609,-1.118 3.35408,1.11809z" fill="#905823" stroke="none" stroke-width="0.5"></path>
      <path d="M463.30002,327.30002c0,2.5 -2.5,2.5 -2.5,2.5l-0.00944,-0.12829c-1.1226,0.30733 -2.21182,1.05761 -3.3678,0.92198c-2.22002,-0.26046 -4.09097,-1.82082 -6.21338,-2.52204c0,0 -2.37169,-0.79062 -1.58107,-3.16231c0.79062,-2.37169 3.16231,-1.58107 3.16231,-1.58107c2.3591,0.79252 4.13695,2.68019 6.41882,1.60001l1.59054,-0.12829c0,0 2.5,0 2.5,2.5z" fill="#905823" stroke="none" stroke-width="0.5"></path>
      <path d="M125.52769,312.82713c-0.43119,0.08018 -0.86641,0.15531 -1.22057,0.39141c-0.94136,0.62756 -1.46251,1.76959 -2.40151,2.40067c-0.63291,0.42537 -1.50325,0.33999 -2.18516,0.68134c-3.35854,1.68124 -5.61872,3.77929 -9.37406,4.70282c-6.40885,3.17337 -13.50269,7.19668 -20.80243,7.85999c-4.47089,0.40625 -8.14424,-1.0611 -12.44182,-1.59478c-2.6274,-0.32627 -5.30578,0.02697 -7.9444,-0.19067c-6.20089,-0.51146 -12.30892,-1.59626 -18.46841,-2.21186c-4.20034,-0.4198 -9.29851,-3.68482 -13.151,-5.2653c-3.00744,-1.2338 -6.15955,-2.16869 -9.03106,-3.6923c-2.59894,-1.37898 -4.72437,-3.52549 -7.21566,-5.09059c-3.29142,-2.06777 -6.42322,-3.67746 -9.03717,-6.71944c-3.40518,-3.96278 -4.8221,-8.14831 -6.31571,-12.97418c-0.96259,-3.11013 -2.79693,-5.93909 -3.53372,-9.11031c-1.25786,-5.41398 -0.04979,-11.22607 -1.32286,-16.60182c0.52994,-0.67755 1.07649,-1.34884 1.26472,-2.16769c0.9139,-3.97563 -0.43,-8.39803 0.08628,-12.42534c0.81915,-6.38983 1.5201,-12.72451 2.38465,-19.11617c0.21512,-1.59038 1.16341,-3.00366 1.54844,-4.56165c0.76619,-3.1003 0.15324,-7.19455 1.49395,-10.09157c1.28691,-2.78076 3.0186,-6.0863 4.73738,-8.66449c1.56999,-4.66677 4.51436,-8.48125 7.08432,-12.59321c2.32299,-3.71679 4.13104,-8.411 7.01178,-11.73742c1.72819,-1.99556 3.91041,-3.57884 5.60359,-5.60419c1.23097,-1.47246 2.17306,-3.23418 3.65448,-4.45437c0.80497,-0.66302 1.84702,-1.02959 2.58444,-1.76701c1.41517,-1.41517 2.2759,-3.3641 3.82044,-4.63682c2.27778,-1.87692 5.43846,-3.82308 8.42105,-4.26897c1.23941,-0.18529 2.60953,0.34149 3.7584,-0.15907c1.27664,-0.55623 2.05672,-1.88177 3.08382,-2.82212c9.57909,-7.18428 15.97638,-16.88761 23.51203,-25.90704c1.72093,-2.05979 5.55747,-4.8989 6.37713,-7.79722c0.31036,1.59853 1.17775,3.21219 1.19174,4.84094c0.03813,4.43846 -1.64706,9.4933 -4.00406,13.20182l-2.05051,1.36783c-0.68926,0.44514 -1.14769,1.12014 -1.14769,2.00167c0,1.38071 1.12086,2.49998 2.50157,2.49998c0.13481,0 0.26738,-0.01067 0.3964,-0.03121l4.91031,-0.70092l-0.00679,-0.04749c0.11314,-0.00609 0.22651,-0.01384 0.33968,-0.02339c0.84608,-0.07139 6.40658,-2.9205 7.48638,-3.46026c7.3205,-3.65928 14.10355,-7.14697 20.16202,-12.29358c-0.1156,0.69117 -0.24836,1.4172 -0.47142,2.16083c-0.96507,3.21724 -1.98775,7.15839 -3.17858,10.32558c-0.65004,1.72887 -3.68984,5.7944 -2.04852,7.83545l0.00002,-0.00003c0.82024,1.02 2.31349,0.99237 3.74759,0.98703l-0.47495,0.20787c0,0 -2.1964,1.02627 -1.07833,3.26232c1.11807,2.23605 3.35624,1.11896 3.35624,1.11896l-0.30901,-0.66452c0.64312,0.21438 1.28743,0.42934 1.93055,0.64372c1.00571,1.47921 2.36808,1.16367 3.03975,0.87813c4.68168,1.10472 9.50332,1.28723 14.01879,3.19905c2.8175,1.19292 6.83387,4.50555 8.4896,7.03259c0.5056,0.77166 0.36502,1.88361 0.94095,2.6043c0.66728,0.83501 1.8625,1.09778 2.62018,1.85172c2.278,2.26675 3.57087,5.68659 5.24467,8.35138c0.66129,1.05282 1.71559,1.84941 2.2704,2.96203c0.48051,0.96362 0.34809,2.14879 0.77197,3.13863c0.3785,0.88385 1.21927,1.51901 1.60082,2.40155c0.9911,2.29245 1.46289,5.22408 2.27189,7.63476c1.6156,8.12122 4.52516,16.27183 5.53801,24.47889c0.70733,5.73145 0.78061,11.50374 0.78061,17.3049c0,2.93119 0.43611,6.30502 0.03112,9.20475c-0.98707,7.06748 -5.60421,13.42911 -7.78294,20.11363c-2.93809,4.40723 -5.63243,9.64976 -8.00544,14.40767c-0.34034,0.68239 -0.25739,1.55121 -0.6816,2.18488c-0.56864,0.84943 -1.55487,1.34426 -2.20793,2.13064c-1.40635,1.69344 -1.978,3.9635 -3.2973,5.72561c-1.84221,2.46052 -5.70419,6.44138 -7.83568,8.56986c-1.96583,1.96306 -4.54479,3.22203 -6.62932,5.05855c-0.47869,0.42174 -0.90178,0.90626 -1.3205,1.39329c-0.1809,-0.03437 -0.37922,-0.05306 -0.59613,-0.05306c-2.17209,0 -2.45855,1.88799 -2.49592,2.38305z" fill="#0024a3" stroke="none" stroke-width="0.5"></path>
      <path d="M105.52468,287.30739c0.14116,-0.42729 0.37421,-0.86515 0.51634,-1.24752c-0.23966,5.9538 -2.75911,11.25005 -5.1246,17.16223c-2.10614,5.26398 -4.36864,12.72542 -9.998,15.47921c-3.02067,1.47766 -6.66597,1.35633 -9.92176,1.34861c-3.87848,0.02722 -9.94852,-0.38538 -13.00081,-3.43672c-3.1619,-3.16092 -3.76705,-7.29947 -4.81527,-11.49737c-2.77521,-11.11409 -3.88682,-22.7815 -3.9145,-34.21674c0.9863,0.97715 2.08383,1.99633 3.17999,2.84977c-0.1721,0.63402 -0.07689,1.19772 -0.07689,1.19772c0.52397,3.14386 0.88443,6.51949 1.32415,9.91116c-0.44413,1.52414 -0.60623,3.04976 0.63376,4.31236c0.5001,2.98499 1.15975,5.87036 2.15778,8.53437c1.61736,4.31715 4.16817,8.5664 6.61321,12.46376c0.94535,1.50688 1.54581,3.27737 2.81982,4.51885c1.06352,1.03637 2.56544,1.49179 3.93192,2.07306c3.28882,1.399 3.72811,1.23045 7.30905,0.06969c8.6263,-2.79621 12.51072,-11.70015 14.37793,-19.9869c0.00162,-0.0052 0.00323,-0.01036 0.00482,-0.01557c1.11521,-2.78507 1.87515,-5.50701 3.01584,-8.19731c0.69688,-0.51553 0.9672,-1.32269 0.9672,-1.32269z" fill="#bd7614" stroke="none" stroke-width="0.5"></path>
      <path d="M60.67114,264.53199c-0.75697,-0.57853 -1.74399,-0.74814 -2.66533,-1.03103c2.0204,-5.74666 4.55663,-11.26518 6.69105,-16.94802c1.56516,-4.1672 3.40643,-8.69262 6.68643,-11.9726c2.71547,-2.71545 6.70454,-4.76951 9.94123,-6.81628c4.75263,-3.0054 9.03555,-5.24108 14.68815,-5.21242c1.6472,-0.01066 3.75857,-0.25019 5.33311,0.55997c3.89701,2.00516 6.28021,6.04672 8.61045,9.5408c4.38373,6.57319 9.4303,13.77752 7.3586,22.00796c-0.66083,0.29223 -1.36517,0.91893 -1.36517,2.24559c0,0.79426 0.25193,1.33894 0.59627,1.70869c-1.39667,0.59827 -1.39764,2.29841 -1.39764,2.29841l-0.00077,1.60262c0.03666,4.08767 -0.3855,4.87081 -2.14248,8.49485c-1.0245,2.11318 -0.70445,2.82752 -2.78002,3.63752c-1.8079,0.70554 -3.87946,0.31369 -5.79518,0.624c-3.72361,0.60315 -5.93621,2.74743 -7.94824,5.6907c-2.82998,2.82994 -6.55911,4.63573 -10.78656,2.95279c-0.95141,-0.37875 0.95636,-1.95324 0.80242,-2.96563c-0.24024,-1.57999 -0.59351,-3.43163 -1.84265,-4.42849c-1.11613,-0.89072 -2.86626,-0.18043 -4.27013,-0.44169c-0.82904,-0.15428 -1.5695,-0.68719 -2.40493,-0.802c-0.95006,-0.13057 -1.95305,0.31634 -2.88056,0.07261c-1.70999,-0.44935 -2.7878,-2.23495 -4.36901,-3.02598c-1.21168,-0.60617 -2.64217,-0.7638 -3.79247,-1.47965c-1.6253,-1.01145 -3.05798,-2.33757 -4.41395,-3.68885c-0.75712,-0.7545 -1.00334,-1.97482 -1.85259,-2.62388z" fill="#bd7614" stroke="none" stroke-width="0.5"></path>
      <path d="M95.36777,279.13223c1.76777,1.76777 0,3.53553 0,3.53553l-2.56775,1.53222c-4.40706,-0.03951 -8.43784,-0.06919 -8.89999,-5.69994c-0.01493,-0.1819 -0.00814,-0.36161 0.01501,-0.53966c-0.99712,0.74746 -2.30556,0.31133 -2.30556,0.31133c-2.40387,-0.80127 -5.2446,-1.39699 -7.50785,-2.52589c-4.5747,-2.28186 -8.63242,-5.89041 -12.48659,-9.11248c-2.32954,-1.94749 -4.17091,-1.81743 -4.89291,-5.60153c-0.12017,-0.62982 1.38281,-4.95229 1.70618,-5.92239c1.95686,-5.87054 3.84345,-10.6266 8.34361,-15.07117c2.82012,-5.64025 7.09738,-7.0782 11.64312,-10.8716c4.3223,-3.60695 7.27093,-7.34964 12.79441,-9.23834l2.40003,-0.79999c0,0 1.90789,-0.63595 2.87167,0.94412c0.60618,-0.29244 2.11459,-0.78579 3.199,0.84084c1.38674,2.08013 -0.6934,3.46687 -0.6934,3.46687c-2.27789,1.51857 -4.88995,2.91307 -7.00175,4.65321c-1.54454,1.27271 -2.40203,3.21922 -3.81719,4.63439c-0.73743,0.73743 -1.77784,1.1026 -2.58282,1.76563c-3.8398,3.1627 -7.12474,8.70366 -7.91724,13.66705c-0.40807,2.55574 0.95381,5.37794 1.55764,7.79325c0.73363,2.93449 1.17023,4.73957 2.85475,7.2196c1.67864,2.55583 2.92339,5.18733 4.46189,7.78373c0.7145,-0.19711 2.092,-0.31918 2.89407,1.28499c0.41502,0.83006 0.36785,1.50605 0.14445,2.02797c0.26981,0.8447 -0.00881,1.68058 -0.00881,1.68058c-1.29939,3.11346 0.167,2.34472 3.22829,2.30942l-0.96778,-0.06775c0,0 1.76777,-1.76777 3.53553,0z" fill="#794c0d" stroke="none" stroke-width="0.5"></path>
      <path d="M63.93231,304.50047c-0.25843,-2.1315 -1.30725,-2.04874 -2.21859,-4.18906c-0.84377,-1.98164 -1.47687,-4.07882 -1.78141,-6.21098c-0.30164,-2.11188 0.31162,-4.28951 0,-6.39995c-0.12318,-0.83424 -0.68416,-1.56474 -0.80002,-2.40002c-0.04185,-0.30169 -0.03228,-6.27989 -0.03228,-6.80042c0,-0.7542 -0.25116,-1.57124 -0.22073,-2.31783c-0.93824,-1.01088 -0.45097,-2.47273 -0.45097,-2.47273l0.78176,-2.34533c0.31417,-1.02157 1.26534,-1.76414 2.38994,-1.76414c1.38071,0 2.5,1.11929 2.5,2.5v3.20001c0.4915,2.07593 0.01148,4.26667 0,6.39996c-0.00943,1.75196 0.52703,3.46421 0.76774,5.19958c0.2931,2.1131 -0.30176,4.2881 0,6.39998c0.5509,3.85551 3.41176,6.66247 4,10.40001c0.02805,0.17825 0.03516,1.40376 0.03387,2.79019l1.17853,0.59697c-0.20061,0.29841 -0.35873,0.64587 -0.51827,0.99169c0.0895,0.25733 0.13814,0.53378 0.13814,0.8216c0,0.2969 -0.05176,0.58172 -0.14674,0.84591l-0.78153,2.34466h-0.00001v0.00003c-0.00001,0.00001 -0.00001,0.00001 -0.00002,0.00002h0.00001l-0.78179,2.34527c-0.31418,1.02155 -1.26534,1.76409 -2.38993,1.76409c-1.38071,0 -2.5,-1.11929 -2.5,-2.5c0,-0.22872 0.03072,-0.45027 0.08825,-0.66075l0.04014,-0.16055c-1.0031,-0.32516 -1.72839,-1.26721 -1.72839,-2.37865c0,-0.69036 0.27982,-1.31536 0.73223,-1.76777l1.78651,-1.78651c0.02079,-0.81801 0.0119,-1.63421 -0.08644,-2.44528z" fill="#794c0d" stroke="none" stroke-width="0.5"></path>
      <path d="M103.35502,290.10995c-0.15709,-0.31832 -0.25501,-0.71518 -0.25501,-1.20996c0,-2.5 2.5,-2.5 2.5,-2.5l3.1717,3.29055c-0.97487,2.92467 -1.78425,5.19666 -3.49152,7.79619c0,0 -1.38673,2.08014 -3.46687,0.69342c-2.08014,-1.38673 -0.69342,-3.46687 -0.69342,-3.46687c1.0744,-1.58177 1.6728,-2.99898 2.23512,-4.60333z" fill="#794c0d" stroke="none" stroke-width="0.5"></path>
      <path d="M458.92552,214.47766c-0.62504,-0.16908 -1.25646,-0.02372 -1.88921,0.2c-1.54228,-3.36049 -3.61664,-6.47467 -6.73044,-8.23299c-0.17488,-0.55016 -0.55732,-1.22196 -1.39723,-1.51433c0.68327,-2.86042 1.1618,-3.51498 0.71963,-6.86149c-0.11889,-0.89977 -0.29182,-1.812 -0.50656,-2.72483c3.2389,1.36835 6.57046,2.35773 9.82579,3.79544c2.25539,0.99609 4.13346,2.70974 6.27745,3.92723c4.47888,2.54338 10.65551,3.48368 13.54451,8.01369l2.88053,1.11872c0,0 1.316,-0.00294 2.03837,-0.9579c0.85088,1.68962 1.28346,3.54676 1.98842,5.66168c1.16935,3.49927 2.02835,7.09182 1.49451,10.82799c-0.03819,0.26727 -0.47046,1.04616 -0.6736,1.82826c-0.64522,-0.52103 -1.42185,-0.89595 -2.16349,-1.26991c-2.46849,-1.24468 -4.6106,-2.51747 -7.04888,-3.91178c-2.86566,-1.6387 -6.04349,-3.40909 -8.98564,-4.87323c-2.56828,-1.27809 -3.48118,-0.62147 -6.16247,-2.26006c-1.19975,-0.73319 -1.85443,-2.39936 -3.21169,-2.76651z" fill="#53cbf0" stroke="none" stroke-width="0.5"></path>
      <path d="M417.41281,204.59923c-0.05003,-2.17137 -1.05709,-4.25253 -1.37438,-7.15326c-0.21066,-1.92594 -0.20345,-3.88752 -0.81611,-5.72552c0.00969,-2.21977 -0.30019,-4.43084 -0.82736,-6.58712l-0.63031,-1.3509l0.28969,-1.02639c-1.44171,-2.05507 -3.4992,-3.71529 -5.74226,-4.84248c-1.23683,-0.62153 -2.38513,-1.4849 -3.73374,-1.79685c-4.23108,-0.97871 -7.70029,0.50762 -10.36181,3.11726c0.8752,-1.86966 1.19085,-4.23478 1.28787,-6.46358c2.42125,-0.53769 4.82609,-1.3123 7.04539,-2.41021l1.39282,-0.45955c1.06946,2.24881 2.42392,4.46541 3.42449,6.46747c0,0 1.12699,2.23747 3.36306,1.11944c0.05013,-0.02506 0.09889,-0.05061 0.1457,-0.07676c3.39959,0.4314 7.8218,1.18562 10.67272,-0.96321c2.30065,-1.73407 3.89617,-5.69157 4.79377,-8.3166c0.16904,-0.50712 0.32586,-1.01487 0.47015,-1.52403c0.21655,0.03391 0.41675,-0.04754 0.41675,-0.04754c3.94706,-0.02895 6.89486,-0.84476 10.37726,-1.98588c-0.02518,0.49537 -0.03791,0.99306 -0.03791,1.4916c-0.21288,0.61067 -0.4096,1.22745 -0.59558,1.84706c-0.44762,-0.02258 -0.96033,0.09818 -1.52326,0.47346c-2.08014,1.38674 -0.69157,3.46893 -0.69157,3.46893c0.25267,0.37901 0.50381,0.74738 0.74883,1.108l-0.23895,0.71654c0,0 -0.78783,2.37568 1.58388,3.16624c0.39476,0.13158 0.7462,0.17636 1.057,0.15825c0.1695,0.37767 0.32707,0.77045 0.46888,1.18047c-1.48665,1.17659 -0.5685,3.01289 -0.5685,3.01289l0.95711,1.87148c1.10539,1.65177 2.08314,3.40046 2.9728,5.17774c1.13684,3.44127 2.48147,7.10381 3.04296,10.65816c0.36301,2.29786 -0.27582,3.18121 -0.77247,5.45806c-0.25957,1.18997 -0.25224,2.45291 -0.67183,3.5963c-2.16643,5.90354 -8.74138,8.77461 -13.74596,11.56317c-4.0598,2.26213 -9.14402,4.77682 -13.88164,5.34435c-3.38482,0.40548 -6.44462,0.48769 -9.75876,1.62428c-3.0291,0.10177 -6.04393,0.80607 -9.07438,0.7591c-3.35477,-0.05199 -7.53284,-1.70519 -10.81531,-2.35993c-4.14586,-0.82696 -9.42553,-2.2099 -11.97583,-6.0749c-1.31295,-1.98978 -1.5883,-6.03927 -2.11563,-8.1366c-1.44517,-5.7478 0.05439,-11.15324 0.07975,-16.98139c0,0 0.00031,-2.27641 -2.16736,-2.48752c0.44719,-3.39657 -0.86483,-6.44753 -2.50076,-9.45642c0.54938,-0.37612 1.09736,-0.79158 1.67013,-1.02599c1.84226,-0.75395 4.00973,-0.68319 5.73559,-1.67503c0.56713,-0.32593 1.04437,-0.77599 1.4952,-1.25737c0.06836,-0.01222 0.22335,0.0242 0.29419,0.00484l1.07292,2.30382c-0.06765,0.23829 -0.1057,0.50935 -0.1057,0.82009c0,2.5 2.41061,2.45521 2.41061,2.45521l0.30982,-0.04883c1.54854,0.28125 3.07301,0.85202 4.64685,0.84141c1.02554,-0.00691 1.96344,-0.60625 2.94629,-0.89913c1.27953,-0.3813 2.83133,-0.29636 3.93488,-1.03585c-1.38877,2.14278 -2.3819,4.55856 -2.97154,6.87594c0,0 -0.40179,1.60894 0.76714,2.53271c-0.06877,0.2906 -0.10116,0.6255 -0.04021,0.97694c-1.229,1.00395 -0.66985,2.67074 -0.66985,2.67074c0.49113,1.4734 1.29378,2.85744 1.50262,4.39643c0.14668,1.08087 -0.22772,2.19897 0.00985,3.26357c0.53886,2.41477 1.89898,4.58656 2.36248,7.01692c0.29453,1.54435 -0.47219,3.61733 0.70707,4.65709c0.02027,0.01787 0.04033,0.03543 0.06048,0.05289c0.09602,0.66953 0.42518,1.16483 0.42518,1.16483c1.97333,2.86972 4.19657,4.86182 7.36463,6.45254c0.68149,0.34219 1.53852,0.26782 2.17995,0.68025c1.13824,0.73187 1.72374,2.37457 3.04148,2.68245c1.56224,0.365 3.20966,-0.34159 4.7266,-0.86381c1.46321,-0.50373 2.98002,-1.09965 4.09282,-2.17501c1.01028,-0.97629 1.27805,-2.49884 1.98896,-3.71062c3.14432,-5.35966 2.9072,-8.28426 1.67968,-14.4656z" fill="#53cbf0" stroke="none" stroke-width="0.5"></path>
      <path d="M400.65594,235.09011c-0.45296,-1.12021 -1.31045,-2.01727 -2.09444,-2.954c2.75075,-0.15125 5.49481,-0.69211 8.25109,-0.81178c4.37818,-1.42349 8.70228,-1.24418 13.07069,-2.47148c5.39719,-1.51634 9.95611,-3.98702 14.89508,-6.59013c4.96468,-2.61666 10.44943,-6.30766 12.85111,-11.71805c4.41022,1.52175 6.29462,9.49173 7.63423,13.51062c1.14316,3.42952 2.67257,7.12362 3.09885,10.72612c0.25998,2.19715 -0.52839,4.40065 -0.79654,6.59682c-0.25472,2.08619 0.32281,4.23551 0.01583,6.31465c-0.86671,5.87011 -1.9965,11.50187 -3.90888,17.239c-1.04682,3.21117 -3.1978,5.55003 -4.68351,8.50524c-3.34141,6.64637 -7.58029,12.00021 -14.20466,15.73255c-4.15312,2.33997 -8.93177,2.44397 -13.43865,2.89195c-2.45417,0.24394 -4.91578,1.13759 -7.36127,0.81818c-4.28798,-0.56007 -8.70136,-3.2834 -12.55241,-5.16744c-1.58687,-1.61638 -2.85005,-2.73487 -4.05268,-4.73663c-0.86075,-1.4327 -1.08516,-5.38534 -0.62629,-6.92023c0.23805,-0.79628 1.07933,-1.28425 1.45252,-2.02685c1.73755,-3.4575 2.75011,-7.83625 4.09278,-11.44153c2.23861,-6.01101 1.44115,-12.14253 0.09236,-18.24977c-0.67554,-3.05884 -0.56096,-6.34311 -1.73523,-9.24724z" fill="#53cbf0" stroke="none" stroke-width="0.5"></path>
      <path d="M340.03707,154.45223c3.90112,1.28938 7.79978,3.8319 11.51482,5.78703c0.387,1.39063 0.82717,2.77313 1.41548,4.09902c1.93789,4.36747 4.4832,8.35558 6.36476,12.74581c0.11513,0.26862 0.14473,0.48296 0.25636,0.7532c-1.10066,-1.19068 -2.26281,-2.33144 -3.46307,-3.53169c-0.95113,-0.91962 -1.66302,-1.97926 -2.768,-2.70683c-1.7236,-1.1349 -3.27795,-0.83677 -5.01717,-1.71721c-7.8375,-3.96757 -17.16375,-6.64832 -25.97762,-6.64832c-3.07789,0 -6.08751,0.42763 -9.11406,0.80514c-0.49562,0.06182 -1.13973,0.12008 -1.76853,0.22779c0.05466,-0.1197 0.10551,-0.24102 0.15335,-0.36165l1.5795,-2.37636c0.27682,-0.40239 0.43797,-0.8938 0.43797,-1.41913c0,-1.38071 -1.12011,-2.50814 -2.50082,-2.50814c-0.2969,0 -0.48173,0.04959 -0.74593,0.14457l-2.06493,0.68674c-1.18887,0.03475 -2.4868,0.23658 -3.66463,0.07756c-1.74505,-0.2356 -0.87264,-1.3127 -1.55277,-2.40261c-0.18649,-0.29886 -1.24567,-0.32506 -0.93559,-0.49223c0.34831,-0.18778 0.74803,0.52564 1.12058,0.39229c3.01879,-1.08051 6.76982,-3.03928 5.28329,-7.44485c-0.59213,-1.75487 -6.46233,-3.02218 -7.91814,-4.06971c-0.99725,-0.71757 -2.03495,-4.05256 -2.21499,-5.21805c-0.18296,-1.18445 1.24199,-1.20341 1.80026,-1.75715c0.19649,-0.19489 0.22924,-1.02662 0.26538,-0.75224c0.07325,0.55613 -0.41879,1.24233 -0.06758,1.67972c0.84091,1.04726 2.10864,1.49741 3.20478,2.27352c5.68996,1.9456 11.41451,3.81187 17.11932,5.71348c2.18564,0.72855 4.8603,1.2265 6.91471,2.26444c2.70823,1.36827 5.36533,3.81404 8.19351,4.88952c1.31873,0.50148 2.81018,0.42355 4.14978,0.86631z" fill="#53cbf0" stroke="none" stroke-width="0.5"></path>
      <path d="M438.34745,100.88409c0,0 0.00084,1.80555 1.53173,2.34933c0.72075,1.72972 1.33889,3.51351 1.68489,5.2101c0.47655,2.33671 -0.25414,4.79126 0.00471,7.16198c0.21145,1.93654 1.06628,3.86544 0.79962,5.79515c-0.40339,2.91908 -1.23652,5.83895 -1.58838,8.71396c-0.70268,5.74158 -0.21706,11.69674 -0.6478,17.48272c-3.05508,-1.98193 -6.2993,-3.87546 -9.70172,-5.03891c0,0 -1.29097,-0.46576 -2.27101,0.17055c-0.05599,-1.68599 -0.10113,-3.36954 -0.10113,-5.0566c0,-4.27106 0.88154,-9.88634 -0.05203,-14.05692c-1.72681,-7.7143 -8.79075,-15.18428 -17.25366,-13.96599c-2.69044,0.3873 -3.69259,1.44753 -5.88964,2.90312c-2.43344,2.43346 -5.58473,5.78521 -7.09725,8.91735c-3.15496,6.5333 -0.46283,13.5697 1.2431,20.20112c-3.29531,0.11982 -5.19286,0.73 -8.11276,2.61018c-0.78562,-1.99221 -2.82928,-7.03484 -2.96369,-7.39345c-1.5898,-4.24152 -2.56856,-9.81684 -6.24917,-12.96999c-1.38879,-1.18978 -3.12611,-1.92023 -4.6863,-2.87423c-5.2006,-1.70225 -11.05824,-1.94397 -14.32425,3.41126c-1.84623,3.02724 -1.59969,7.29189 -1.91712,10.57387c-0.14361,1.48479 -0.81381,2.90657 -0.80955,4.39828c0.00264,0.92385 0.6962,1.72793 0.82568,2.64267c0.68057,4.80788 0.54376,10.36764 2.54876,14.94716c0.14307,0.32679 0.29322,0.65083 0.45071,0.97352c-1.14482,1.90308 -2.05982,3.9492 -2.88999,6.00872l-0.82478,2.46895c0,0 -0.14757,0.35743 -0.17491,0.75091c-0.85046,-1.60796 -1.68648,-3.22971 -2.43198,-4.90395c-0.54622,-1.2267 -0.9688,-2.49401 -1.33574,-3.77457c0.02118,-0.49614 -0.13028,-0.91048 -0.34102,-1.24173c-0.6935,-2.62631 -1.26656,-5.28885 -2.32502,-7.77826c-0.36859,-0.86689 -1.24638,-1.4658 -1.57825,-2.3474c-1.0223,-2.71567 -1.59814,-6.48642 -2.31398,-9.34984c-1.89479,-5.66117 -3.22524,-12.10637 -2.33758,-18.11834c0.12317,-0.83422 0.68114,-1.56759 0.79983,-2.40247c0.47449,-3.33753 0.03552,-6.61647 1.44276,-9.85442c3.05631,-7.03233 7.7719,-12.41386 12.74023,-18.09487c3.91103,-4.47206 8.72497,-9.04406 14.56811,-10.92637c2.95435,-0.98598 6.01391,-1.85848 9.09375,-2.58948c0.96574,0.56953 2.11968,0.18521 2.11968,0.18521c3.00669,-1.0048 5.35636,-1.05428 8.42031,-1.50465c3.27286,-0.48108 6.38569,-2.07602 9.36624,-3.35658c1.11458,-0.47887 3.95946,-1.16211 4.94599,-1.66263c2.56318,-1.30045 5.0397,-3.39562 7.18887,-5.65167c0.1814,2.89688 1.29951,6.0997 3.34229,7.21436c2.66648,1.45498 5.0754,0.08026 7.48315,-0.60084c3.05963,-0.8655 5.73294,-1.50692 8.90477,-1.49717c0.03954,0.00012 0.65229,0.05886 1.48123,0.09918c-1.63012,1.08299 -3.41657,2.62609 -4.3089,3.93944c-0.89742,1.32085 -1.87032,2.74405 -2.04876,4.33092c-0.48089,4.27652 2.16146,6.35817 3.31212,9.92961c0.99547,2.98623 1.65642,5.41769 1.99705,8.08086c-0.92758,-0.00827 -1.8528,-0.02571 -2.77509,-0.04923c0.88738,1.1936 1.7631,2.40215 2.59288,3.64288c0.15278,0.30523 0.30753,0.61775 0.46219,0.93446c0.00031,0.07025 0.00053,0.14103 0.00053,0.21196l0.00027,0.80076z" fill="#53cbf0" stroke="none" stroke-width="0.5"></path>
      <path d="M431.11747,104.39192c-0.52108,-1.10086 -1.05446,-2.21315 -1.48915,-3.50136c-2.9016,-8.59887 -4.97941,-18.11373 -13.92668,-22.54477c-1.48354,-0.73471 -2.83348,-1.80099 -4.42607,-2.25305c-0.89223,-0.25326 -1.86063,0.20296 -2.78102,0.08854c-1.8649,-0.23183 -4.25324,-1.10038 -6.08508,-1.70957c0,0 -2.37171,-0.79057 -1.58114,-3.16228c0.79057,-2.37171 3.16228,-1.58114 3.16228,-1.58114c0.65059,0.21741 1.56282,0.53681 2.48264,0.82669c0.52548,-1.4905 2.21795,-2.65692 3.41247,-3.78162c0.55669,-0.52415 1.60006,-0.18208 2.19681,-0.66013c0.66725,-0.53453 0.60653,-1.7584 1.34974,-2.18099c0.14324,-0.08145 0.28875,-0.15772 0.43625,-0.22946l-0.05526,-0.08288l2.37152,-1.58105c0.40239,-0.27681 0.88988,-0.43885 1.41521,-0.43885c1.38071,0 2.5,1.11929 2.5,2.5c0,0.29691 -0.05176,0.58172 -0.14674,0.84592l-0.57835,1.73508c0.31116,0.75852 0.87302,2.17529 1.34261,2.63222c0.01156,0.01125 0.02344,0.02213 0.03561,0.03264c0.03991,0.02838 0.07964,0.05706 0.11919,0.08605c1.00636,0.60491 3.4221,-0.58829 3.62223,-0.6132c0.92037,-0.11457 1.88879,0.3418 2.78102,0.08854c0.16126,-0.04577 0.3221,-0.10093 0.48274,-0.16396c0.93326,-1.48325 2.31788,-2.64201 4.21263,-2.39975c0.8931,-0.44849 1.82664,-0.75697 2.82866,-0.71126c1.97987,0.09032 3.86972,0.85871 5.80458,1.28807c-0.89782,2.58636 -1.5649,6.0384 -3.88664,7.9664c-0.58715,0.48757 -2.57524,-0.11457 -2.21751,1.21325c1.87819,6.97138 4.31041,13.93215 6.30026,20.90102c0.69794,2.44433 2.0919,4.98779 2.46745,7.49852c0.1578,1.05493 -0.15085,2.14406 0,3.20001c0.73776,5.1644 2.39104,9.53749 0.70398,14.79101c-1.01813,2.90679 -0.32104,5.28945 -0.69043,8.31488c-0.39925,3.26992 -0.76534,5.94022 -0.78126,9.29455c-0.00867,1.82596 0.41364,6.48431 -1.8382,7.62811c-5.25671,2.67007 -6.97389,-0.06211 -7.9295,-4.02768c-0.77738,-3.22595 0.34717,-6.53405 0.79999,-9.60088c0.31419,-2.12795 0.07299,-4.36675 -0.04785,-6.58108c-0.48298,-0.45582 -0.78442,-1.10194 -0.78442,-1.81846c0,-0.18573 0.02025,-0.36672 0.05867,-0.5409l0.7533,-3.76655c-0.00136,-0.48292 -0.00036,-0.9678 0.00211,-1.45429c-0.87152,-3.47846 -0.19121,-7.99455 -0.76801,-11.35757c-0.24123,-0.95021 -0.55893,-1.80269 -0.91069,-2.62031c-0.26886,-0.35154 -0.50773,-0.71609 -0.62814,-1.13591c-0.04092,-0.14266 -0.06996,-0.28696 -0.08981,-0.43256zM426.19318,73.75871c-0.13945,-0.00707 -0.27871,-0.01201 -0.41753,-0.01291l0.37885,0.25256c0.00962,0.00622 0.0192,0.0125 0.02874,0.01884c0.00233,-0.08612 0.00563,-0.17229 0.00994,-0.25849zM437.92004,137.0036c-0.12476,0.98955 -0.21999,2.00187 -0.21999,3.09641c0,0.93324 0.02982,1.86836 -0.03228,2.79954c-0.0172,0.25795 0.047,1.02983 0.0705,0.77237c0.19951,-2.18591 0.20908,-4.41942 0.18178,-6.66831zM426.28373,80.8755c-0.08235,-0.10666 -0.16817,-0.21175 -0.25726,-0.31531c0.08608,0.11062 0.17125,0.22188 0.25552,0.33375c0.00058,-0.00615 0.00116,-0.0123 0.00174,-0.01844z" fill="#3b8fa9" stroke="none" stroke-width="0.5"></path>
      <path d="M400.59623,233.89878l0.29394,-0.44089c-0.16995,0.0147 -0.34011,0.03008 -0.5105,0.04633c-0.15161,0.01446 -0.20457,0.11268 -0.19952,0.25587zM441.90546,227.38126c-1.00198,0.25941 -2.0804,-0.15993 -3.10501,-0.01355c-0.83479,0.11926 -1.56295,0.69755 -2.39996,0.79999c-3.35892,0.41108 -6.02479,-0.41165 -9.2099,0.70403c-2.45313,0.81771 -5.44482,1.3066 -7.77919,2.31454c-3.40866,1.4718 -6.89265,3.61499 -10.15655,5.47604c-2.87742,1.64068 -6.29249,5.50644 -10.15628,4.16954c-4.77276,-1.65142 -4.84981,-9.27508 -1.07814,-11.73602c1.13998,-0.74381 2.72745,-0.07886 4.07412,-0.27707c4.73371,-0.69674 8.56186,-2.44203 12.78747,-4.55479c0,0 0.12787,-0.06394 0.33775,-0.13065c0.17854,-0.55473 0.54563,-1.02488 1.02578,-1.33496l2.21339,-1.47555c0.78536,-0.78538 1.57072,-1.57076 2.35608,-2.35614c0.33217,-0.22331 4.96796,-3.35346 5.28665,-3.51242c2.1632,-1.07899 5.15026,-1.30771 7.55455,-2.17957c0.19583,-0.17727 0.38791,-0.35816 0.57605,-0.54242c1.9609,-1.92045 2.9583,-5.31705 4.48762,-7.61897l1.69051,0.80711c0.14614,-0.46828 0.25523,-0.94329 0.32193,-1.42086c0.79927,-5.72232 -0.52195,-11.06264 -2.30402,-16.40897c-0.16041,-0.48123 -0.36667,-0.9824 -0.59094,-1.49518c-0.45677,0.49477 -1.11086,0.80463 -1.83733,0.80463c-0.88152,0 -1.65648,-0.45625 -2.10162,-1.14549l-1.57853,-2.36773h0.00001l-0.00002,-0.00001c-0.63753,-1.02077 -1.57835,-1.90614 -1.91259,-3.0623c-0.58132,-2.01082 0.19753,-4.64588 -0.07499,-6.724c-0.16905,-1.28911 -0.61078,-3.19234 -0.37638,-4.58043c-0.52626,-0.26469 -1.01605,-0.77335 -1.20732,-1.72975c-0.49028,-2.45145 1.96117,-2.94174 1.96117,-2.94174l6.56751,0.26038c-0.53238,1.72594 -0.88483,3.51804 -1.59715,5.17783c-0.23716,0.55261 -1.12067,0.74928 -1.20222,1.34507c-0.08342,0.60942 0.69499,1.05999 0.78983,1.66774c0.10978,0.70349 0.13737,1.33083 0.13045,1.90818c0.61136,0.04794 1.16092,0.31579 1.56963,0.72451l2.39996,2.39999l-0.02655,0.02655c0.06464,0.05123 0.12869,0.10329 0.19212,0.15623c2.18149,1.8207 2.79127,5.45306 3.63837,7.9944c1.38547,4.15648 2.90534,9.58443 2.97807,14.74175l1.53031,-0.13795c0.43163,0.67677 1.01698,1.22673 1.63388,1.7521c-0.6994,-2.23011 -1.31854,-4.47901 -2.08571,-6.77479c0,0 -0.79055,-2.37171 1.58116,-3.16227c1.19663,-0.39887 1.99076,0.00726 2.48392,0.50762c0.05184,-0.58282 0.22982,-1.11983 0.608,-1.57018c1.04955,-1.24986 3.27952,-0.00684 4.88921,0.26258c4.79027,0.80175 7.36468,5.43896 8.78115,9.58112c0.72496,2.25015 1.88431,4.80181 3.0427,6.83033c1.64187,2.87517 3.98606,3.72737 3.48372,7.6562c-0.21292,1.66525 -0.77333,3.62394 -2.1801,4.54011c-1.10597,0.72028 -2.60286,-0.46329 -3.91852,-0.56833c-0.24702,-0.01972 -0.50826,-0.03677 -0.78074,-0.0531c-2.47458,2.26949 -5.95391,0.18866 -8.13315,-1.08801c-1.47343,-0.86318 -3.24202,-2.31874 -4.76538,-3.77495c0.88409,1.76328 1.81489,3.50845 2.72553,5.34996c2.72714,5.51482 2.7362,12.08592 4.86388,17.74167c0.3667,0.97474 1.40874,1.62755 1.68307,2.63221c0.34472,1.26244 0.07152,2.61633 0.10728,3.92449c0,0.39992 0.0058,8.08651 -0.01873,8.30547c-0.41166,3.67392 -1.76515,8.64416 -3.43549,11.99291c-0.85831,1.72077 -2.34661,3.07676 -3.20001,4.79998c-2.83881,5.73227 -6.92453,11.13927 -11.86083,15.23501c-0.95493,0.79232 -1.6304,1.91673 -2.6706,2.59323c-2.02447,1.31663 -5.3627,1.8071 -7.65447,2.62087c-1.60101,0.56849 -3.1006,1.96189 -4.78645,1.75143c-0.29041,-0.03625 -0.56885,-0.10725 -0.83804,-0.20505l-0.02595,0.07784l-2.34533,-0.78176c-1.02157,-0.31417 -1.76414,-1.26534 -1.76414,-2.38994c0,-0.88154 0.45627,-1.65652 1.14554,-2.10165l2.36776,-1.57847l0.05876,0.08813l0.22961,-0.25379c1.46566,-0.50117 3.27917,-0.3529 4.43657,-1.38235c0.91594,-0.81467 1.28119,-2.117 2.14376,-2.98798c0.67656,-0.68315 1.71634,-0.92394 2.39996,-1.60003c1.93807,-1.91672 4.54337,-5.79894 5.90363,-8.14413c0.72516,-1.25025 1.1291,-2.55533 1.60051,-3.85782c0.60153,-3.45168 1.46416,-6.85852 2.46794,-10.23337c0.12088,-0.98246 0.27985,-1.97543 0.52974,-2.99019c0.61502,-2.49748 1.16705,-2.60181 1.53496,-5.26383c0.2262,-1.63673 -0.5815,-3.25454 -0.78644,-4.89407c-0.64301,-5.14412 -0.66104,-9.80325 -2.30395,-14.80989c-0.19737,-0.60146 -0.44032,-1.24831 -0.725,-1.91746c-0.75871,0.14118 -1.54237,0.23843 -2.19787,0.40814zM405.59394,233.06758c-0.09223,0.01034 -0.18445,0.02035 -0.27666,0.03005c0.02612,0.03547 0.05079,0.07108 0.07406,0.1068c0.06824,-0.04634 0.13582,-0.092 0.2026,-0.13684zM441.60286,215.21193c-0.06691,-0.22563 -0.10283,-0.46458 -0.10283,-0.71193c0,-1.09655 0.70598,-2.02821 1.68821,-2.36525c0.00266,-0.18416 0.00994,-0.36689 0.02162,-0.54888c-0.63155,0.6634 -1.73355,1.77816 -2.75351,2.79179c0.39182,0.25894 0.77409,0.53776 1.14651,0.83426zM440.45386,281.47132c0.59468,-0.44542 1.18572,-0.95203 1.7784,-1.5391c0.43385,-0.42974 0.81176,-0.90612 1.16153,-1.40622c-0.17432,-0.04342 -0.34139,-0.10513 -0.49908,-0.18299c-0.81229,1.12096 -1.6545,2.20889 -2.44085,3.12831zM465.72944,212.84224c0.05171,0.71908 0.14872,1.46112 0.10409,2.15773c0.39481,0.05049 0.75495,0.14876 1.05958,0.32519c-0.08747,-0.46295 -0.1212,-0.94641 -0.35043,-1.35073c-0.22949,-0.40478 -0.5135,-0.77366 -0.81323,-1.13219zM457.92728,198.08844c0.00016,0.00033 0.00033,0.00067 0.00049,0.001c0.00027,0.00007 0.00054,0.00014 0.00081,0.0002c-0.00043,-0.0004 -0.00087,-0.0008 -0.0013,-0.00121z" fill="#3b8fa9" stroke="none" stroke-width="0.5"></path>
      <path d="M352.79273,160.17554c0.36192,1.00339 -0.26912,2.16783 -0.00001,3.19999c0.4522,1.73433 2.24614,2.8257 3.05308,4.42609c0.93134,1.8471 1.56551,3.36446 2.06049,4.94527l0.32981,-0.16491l1.57748,3.155c0.1829,0.34741 0.28642,0.74312 0.28642,1.16301c0,1.38071 -1.11929,2.5 -2.5,2.5c-0.52533,0 -1.01282,-0.16203 -1.41521,-0.43885l-2.37152,-1.58105l0.11192,-0.16788l-0.49291,-0.14447c-2.74365,-4.43334 -8.53962,-2.7612 -11.60775,-7.73602c-0.64633,-1.04798 -0.53217,-2.41328 -0.96919,-3.56437c-1.07609,-2.83437 -2.5275,-5.83414 -3.89136,-8.54934c0,0 -1.11803,-2.23607 1.11805,-3.3541c2.23607,-1.11803 3.3541,1.11805 3.3541,1.11805c0.03618,0.07265 0.07245,0.14553 0.10882,0.21863c0.01831,-0.0004 0.03667,-0.00059 0.05507,-0.00059c0.22871,0 0.45025,0.03071 0.66072,0.08824l2.23469,0.55866c3.7303,-1.06048 6.80323,0.18644 8.29731,4.32863zM351.07915,169.50476c-0.03423,-0.05588 -0.06953,-0.11198 -0.1058,-0.16831c-0.02476,0.04342 -0.05078,0.08603 -0.07801,0.12777c0.06125,0.01358 0.12254,0.02708 0.18381,0.04054z" fill="#3b8fa9" stroke="none" stroke-width="0.5"></path>
      <path d="M160.05707,368.14341c0,0 -0.60501,0.2022 -1.10198,0.70723c-2.95765,1.04047 -6.02287,2.04589 -8.90924,2.40044c-5.30384,0.6515 -10.91176,-0.17656 -16.09593,-0.80953c-4.47302,-0.54615 -8.54701,1.28042 -12.86252,0.79911c-5.64464,-0.62954 -11.0965,-1.59523 -16.82952,-1.59333c-4.88215,-0.88765 -9.46272,-0.29956 -14.33504,-0.78173c-1.09414,-0.10828 -2.1107,-0.69164 -3.20499,-0.79842c-8.9986,-0.87806 -18.28452,1.36827 -27.05324,2.39158c-2.89399,0.33773 -5.84495,-0.26732 -8.7474,-0.01238c-10.47765,0.92031 -21.37753,1.42818 -31.95086,0.55413c-3.98836,-0.45285 -8.09148,-0.13634 -11.88827,-1.27585c-4.06304,-1.21942 -7.00925,-2.66787 -10.42649,-5.21211c-0.40983,-0.30513 -3.61251,-2.20415 -3.90781,-3.52688c-0.66477,-2.97765 -0.50757,-6.66046 -0.79506,-9.73845c-0.44176,-4.72956 -1.65069,-9.34373 -2.33091,-13.95075c-0.34126,-2.31127 -0.14322,-4.5134 -0.23617,-6.73704l1.75941,-0.0946c9.78935,-3.26308 19.57147,-8.27768 26.2693,-16.22265c0.40507,0.25009 0.90382,0.54362 1.31351,0.80046c2.58894,1.62302 4.812,3.82111 7.50893,5.25756c0.14346,0.07641 9.18451,3.78133 9.47641,3.90108c4.4598,1.82963 9.51776,4.97831 14.3395,5.5601c3.45065,0.41635 6.95498,0.36498 10.40339,0.7935c2.77403,0.34471 5.48374,1.18836 8.26927,1.42266c2.57047,0.21621 5.19718,-0.16582 7.75651,0.15656c4.69795,0.59177 8.71509,2.06431 13.6177,1.61846c7.71935,-0.702 15.25473,-4.71293 22.01579,-8.13165c3.85714,-0.97916 6.37803,-3.17403 9.83119,-4.89857c0.82688,-0.41295 1.7567,-0.36261 2.52749,-0.87266c0.71941,-0.47606 1.27809,-1.30354 1.87826,-1.92566c0.62331,2.0776 1.63662,4.06901 3.13048,5.52538c2.33345,2.2749 5.97067,2.52665 8.81281,3.74726c2.84411,1.22146 5.90909,2.5745 8.65929,3.94046c1.72224,0.8554 3.08336,2.33701 4.80042,3.20277c5.95488,3.00251 11.14185,6.88889 14.93638,12.61728c2.34148,4.68305 4.44858,7.74352 4.46145,13.15218c0.00394,1.65512 0.25262,4.75152 -1.41818,6.0165c-0.59559,0.45094 -1.46218,0.72196 -2.40469,0.88357c-1.17201,-1.14415 -2.79617,-0.33186 -2.79617,-0.33186l-1.09139,0.57019c-0.21356,-0.00041 -0.41202,-0.00129 -0.59117,-0.00129l-2.79045,0.89701z" fill="#0024a3" stroke="none" stroke-width="0.5"></path>
      <path d="M119.53064,53.17947v-45h240.93872v45z" fill="#ffffff" stroke="none" stroke-width="0"></path>
      <path d="M55.99057,164.87171l-2.34463,0.78153c-0.25528,0.09178 -0.5298,0.1432 -0.81589,0.14657c-4.30114,3.20636 -8.71593,6.31217 -12.79202,9.78883c-3.37066,2.87498 -6.13189,6.80354 -8.27575,10.56617c-1.58842,2.78779 -3.97415,5.14943 -5.54783,7.90545c-1.14555,2.00623 -2.16013,4.08813 -3.10473,6.19644c-0.81474,1.81846 -0.78524,3.95323 -1.66391,5.74167c-2.43809,4.96245 -3.75518,8.63332 -3.76452,14.40709c-1.81104,7.24429 -0.80459,15.32011 0,22.58911c0.54357,4.91083 0.97215,10.61757 3.00503,15.29406c1.10199,2.53505 2.38176,4.70992 3.2854,7.42083c1.36207,4.08618 3.06983,6.21266 5.35493,9.87621c2.00084,3.20782 1.9656,5.43037 5.19141,7.49819c3.1676,4.15577 5.67451,9.04136 9.01531,13.03115c9.27832,11.08074 19.30778,22.72729 33.87299,26.35963l1.79367,-0.07464c0,0 2.5,0 2.5,2.5c0,0.84992 -0.28895,1.4109 -0.67038,1.78116c1.44729,-0.02196 2.89296,-0.11428 4.32403,-0.26899c2.33533,-0.25246 4.80497,-0.68117 7.04679,0.02011c3.82738,-0.02079 7.2504,-1.28961 10.9006,-2.33254c4.64031,-1.32582 8.91675,-2.52399 13.20056,-4.64553c2.42403,-1.20049 7.04651,-6.09294 9.52046,-5.81831c3.20911,0.35625 3.27593,4.1612 4.22375,6.16574c0.52127,1.10243 1.69354,1.95501 1.83206,3.16657c0.27688,2.42158 -1.59373,4.70641 -2.79772,6.51855c-2.36649,3.56184 -5.18958,7.08399 -8.69337,9.49337c-2.00823,1.33785 -3.756,3.09424 -5.91238,4.17723c-1.04874,0.5267 -2.30792,0.47602 -3.40705,0.88734c-2.70659,1.01289 -3.62404,2.26606 -6.45601,3.21999c-1.28859,0.43405 -2.70948,0.37164 -3.99998,0.79998c-1.20867,0.40118 -2.20149,1.35954 -3.43697,1.66848c-1.09112,0.27283 -2.26046,-0.12386 -3.37395,0.0346c-0.93363,0.13287 -1.76146,0.8284 -2.7045,0.83043c-1.23096,0.00265 -2.37963,-0.66676 -3.60141,-0.81688c-2.14884,-0.26403 -4.35427,0.30977 -6.49499,-0.01355c-2.14607,-0.32413 -3.95173,-1.81713 -6.0109,-2.50306c-3.88083,-1.29275 -8.05977,-1.88949 -11.97926,-3.193c0,0 -0.82685,-0.27563 -1.34138,-0.98961l-1.46845,-0.51434c-4.8227,0.03799 -8.76007,1.8334 -13.30058,3.1326c-0.53182,0.15217 -4.28728,0.98353 -5.20058,1.44546c-1.66349,0.84135 -3.02588,2.19021 -4.64361,3.11651c-2.04344,1.17007 -3.52204,1.49655 -5.2698,2.97108c-1.59188,1.34302 -3.06708,2.84468 -4.80001,3.99999c-2.38126,2.38966 -5.56994,3.96068 -7.86694,6.28275c-1.63279,1.65061 -3.15056,3.42957 -4.93305,4.91726c-1.83406,1.53074 -3.59121,4.45001 -6.385,4.56665c-2.04345,0.08531 -3.64726,-1.89065 -5.59054,-2.52831c-2.10038,-0.68921 -6.6271,-1.51441 -8.17723,-3.00398c-0.79911,-0.76789 -0.76398,-2.08749 -1.278,-3.06934c-0.89188,-1.70362 -2.3417,-3.07921 -3.20001,-4.79998c-1.48314,-2.97345 -1.38995,-5.57207 -1.82191,-8.69792c-0.3415,-2.47129 -1.50755,-5.22662 -2.30401,-7.60989c-1.75575,-5.26739 -4.33166,-13.43651 2.21501,-16.70031c1.29006,-0.64315 5.32585,0.06968 6.95626,-0.15802c3.22442,-0.45033 6.11449,-2.38426 8.90207,-3.77806c3.9102,-1.95512 7.79146,-2.96471 10.12287,-6.98596c0.89386,-1.54175 0.84143,-3.46773 1.4038,-5.1588c0,0 0.05573,-0.16719 0.18198,-0.39799c-0.50787,-0.87334 -0.63667,-1.9785 -1.28447,-2.75697c-0.58278,-0.70033 -1.65405,-0.8378 -2.29357,-1.48672c-1.98528,-2.01446 -2.80194,-5.23917 -4.79999,-7.20001c-1.53916,-1.5105 -3.26903,-2.88361 -4.47802,-4.66938c-1.15018,-3.37316 -2.96497,-7.55822 -3.42195,-11.09788c-0.43924,-3.4023 0.48344,-7.01587 0,-10.40005c-0.13772,-0.96406 -0.83227,-1.82664 -0.83227,-2.80048c0,-0.97382 0.69455,-1.83637 0.83227,-2.80041c0.44679,-3.12754 -0.44232,-6.45807 0,-9.60005c0.10373,-0.73683 0.7742,-1.35136 0.76958,-2.09544c-0.00664,-1.06863 -0.80459,-2.03541 -0.80186,-3.10406c0.00307,-1.19994 0.66991,-2.3148 0.81875,-3.50548c0.45761,-3.66082 -0.37328,-7.52695 0,-11.20001c0.36257,-3.56764 1.881,-7.29749 3.22636,-10.56728c0.15245,-8.46553 7.33259,-16.00516 11.44045,-23.08751c0.83471,-1.43912 0.831,-3.24691 1.56867,-4.73811c1.06842,-2.1598 2.14745,-4.31436 3.23321,-6.46548c1.03305,-2.04668 2.86387,-3.60403 3.99811,-5.59641c0.44592,-0.78329 0.38944,-1.80306 0.88784,-2.55405c0.62561,-0.94266 1.75682,-1.46924 2.39999,-2.40001c0.85003,-1.23014 0.88208,-2.85773 1.35494,-4.27626c0,0 0.79059,-2.3717 3.16229,-1.58111c0.40472,0.13491 0.71736,0.31586 0.95755,0.52322c1.40748,-1.75729 2.94596,-3.40452 4.61386,-4.84014c4.37256,-3.76359 9.17508,-7.08795 13.79405,-10.55224c0.60862,-0.4001 1.22016,-0.75933 1.83625,-1.08699l0.90891,-0.90891c4.03299,-6.0308 9.9653,-11.65809 15.51382,-16.2966c1.47247,-1.23097 3.23111,-2.17046 4.4516,-3.65162c1.22287,-1.48404 1.96641,-3.32486 3.20001,-4.79999c0.65574,-0.78413 1.64139,-1.27772 2.20671,-2.12934c0.46638,-0.70257 0.33099,-1.69919 0.79999,-2.40002c2.26481,-3.38439 3.54591,-3.25194 4.5013,-7.29203c0,0 0.60635,-2.42535 3.0317,-1.819c1.42927,0.35732 1.80569,1.34634 1.87381,2.09845c0.81983,0.73805 0.81983,1.92691 0.81983,1.92691c-0.03644,4.06411 -0.97933,10.07734 -2.61773,13.82044c-0.54242,1.23921 -1.8198,2.04417 -2.42492,3.25399c-0.5176,1.03485 -0.29666,2.35915 -0.88186,3.35733c-1.85878,3.17052 -5.83579,5.54147 -8.53749,7.85686c-2.39689,2.05417 -4.88707,4.9233 -7.52366,6.63802c-1.83923,1.19615 -3.96048,1.84587 -6.12189,2.43415c-1.63435,1.037 -4.01988,2.48331 -5.60189,2.61092zM68.51054,149.83286c-2.30735,2.0749 -4.59183,4.31066 -6.68275,6.65284c1.61621,-1.0538 3.12168,-2.24834 4.28357,-3.62371c0.83354,-0.98669 1.62536,-2.00213 2.39917,-3.02913z" fill="#001769" stroke="none" stroke-width="0.5"></path>
      <text transform="translate(132.54956,38.98335) scale(0.69199,0.69199)" font-size="40" xml:space="preserve" fill="#000000" stroke="#000000" stroke-width="3" font-family="&quot;JetBrains Mono&quot;, Sans Serif" font-weight="normal" text-anchor="start">
        <tspan x="0" dy="0">Этап пройден!</tspan>
      </text>
      <path d="M160.00941,368.12833l2.79016,-0.89607c0.17915,0 0.37758,0.00097 0.59114,0.00138l1.09126,-0.56972c0,0 1.62409,-0.81205 2.7961,0.3321c0.94251,-0.16161 1.80889,-0.43185 2.40448,-0.88279c1.6708,-1.26498 1.42139,-4.35812 1.41745,-6.01324c-0.01287,-5.40866 -2.12079,-8.46217 -4.46227,-13.14522c-3.79453,-5.72839 -8.9812,-9.60648 -14.93608,-12.60899c-1.71706,-0.86576 -3.07778,-2.34463 -4.80002,-3.20003c-2.7502,-1.36596 -5.81421,-2.71463 -8.65832,-3.93609c-2.84214,-1.22061 -6.4776,-1.46704 -8.81105,-3.74194c-1.49386,-1.45637 -2.50463,-3.44233 -3.12794,-5.51993c-0.60017,0.62212 -1.07053,1.4027 -1.78994,1.87876c-0.77079,0.51005 -1.78911,0.50627 -2.61599,0.91922c-3.45316,1.72454 -5.97386,3.91976 -9.831,4.89892c-6.76106,3.41872 -14.28913,7.43984 -22.00848,8.14184c-4.90261,0.44585 -8.86643,-1.01356 -13.56438,-1.60533c-2.55933,-0.32238 -5.16633,0.04681 -7.7368,-0.1694c-2.78553,-0.2343 -5.48915,-1.08586 -8.26318,-1.43057c-3.44841,-0.42852 -6.94934,-0.38364 -10.39999,-0.79999c-4.82174,-0.58179 -9.97169,-3.76968 -14.43149,-5.59931c-0.2919,-0.11975 -9.33297,-3.82462 -9.47643,-3.90103c-2.69693,-1.43645 -4.91941,-3.63587 -7.50835,-5.25889c-0.40969,-0.25684 -0.81737,-0.50905 -1.22244,-0.75914c-6.69783,7.94497 -16.47593,12.94574 -26.26528,16.20882l-1.75939,0.09442c0.09295,2.22364 -0.10473,4.42213 0.23653,6.7334c0.68022,4.60702 1.88902,9.2134 2.33078,13.94296c0.28749,3.07799 0.12948,6.75539 0.79425,9.73304c0.2953,1.32273 3.49742,3.21936 3.90725,3.52449c3.41724,2.54424 6.36199,3.988 10.42503,5.20742c3.79679,1.13951 7.89841,0.81937 11.88677,1.27222c10.57333,0.87405 21.46421,0.3528 31.94186,-0.56751c2.90245,-0.25494 5.84689,0.34429 8.74088,0.00656c8.76872,-1.02331 18.01233,-3.27802 27.01093,-2.39996c1.09429,0.10678 2.10584,0.69171 3.19998,0.79999c4.87232,0.48217 9.43693,-0.09629 14.31908,0.79136c5.73302,-0.0019 11.17718,0.9725 16.82182,1.60204c4.31551,0.48131 8.38608,-1.33957 12.8591,-0.79342c5.18417,0.63297 10.79025,1.46504 16.09409,0.81354c2.88637,-0.35455 5.95043,-1.35681 8.90808,-2.39728c0.49697,-0.50503 1.10179,-0.70665 1.10179,-0.70665zM128.00003,310.39999c0.21691,0 0.415,0.01882 0.5959,0.05319c0.41872,-0.48703 0.84096,-0.97108 1.31965,-1.39282c2.08453,-1.83652 4.65971,-3.09312 6.62554,-5.05618c2.13149,-2.12848 5.98857,-6.10548 7.83078,-8.566c1.3193,-1.76211 1.88841,-4.02973 3.29476,-5.72317c0.65306,-0.78638 1.63811,-1.27995 2.20675,-2.12938c0.42421,-0.63367 0.34048,-1.50161 0.68082,-2.184c2.37301,-4.75791 5.06191,-9.99279 8,-14.40002c2.17873,-6.68452 6.79101,-13.03461 7.77808,-20.10209c0.40499,-2.89973 -0.03228,-6.26839 -0.03228,-9.19958c0,-5.80116 -0.07393,-11.56307 -0.78126,-17.29452c-1.01285,-8.20706 -3.91941,-16.34257 -5.53501,-24.46379c-0.809,-2.41068 -1.2789,-5.33784 -2.27,-7.63029c-0.38155,-0.88254 -1.22154,-1.51614 -1.60004,-2.39999c-0.42388,-0.98984 -0.29055,-2.17334 -0.77106,-3.13696c-0.55481,-1.11262 -1.60795,-1.90728 -2.26924,-2.9601c-1.6738,-2.66479 -2.96317,-6.07979 -5.24117,-8.34654c-0.75768,-0.75394 -1.95168,-1.01527 -2.61896,-1.85028c-0.57593,-0.72069 -0.43431,-1.83149 -0.93991,-2.60315c-1.65573,-2.52704 -5.66723,-5.83513 -8.48473,-7.02805c-4.51547,-1.91182 -9.33018,-2.08959 -14.01186,-3.19431c-0.67167,0.28554 -2.03227,0.60204 -3.03798,-0.87717c-0.64312,-0.21438 -1.28625,-0.42875 -1.92937,-0.64313l0.30867,0.66436c0,0 -2.23605,1.11807 -3.35412,-1.11798c-1.11807,-2.23605 1.11798,-3.35412 1.11798,-3.35412l0.43528,-0.11608c-1.4341,0.00534 -2.92509,0.03389 -3.74533,-0.98611l-0.00002,0.00003c-1.64132,-2.04105 1.43338,-6.20029 2.08342,-7.92916c1.19083,-3.16719 2.17935,-7.01436 3.14442,-10.2316c0.22306,-0.74363 0.35596,-1.46961 0.47156,-2.16078c-6.05847,5.14661 -12.83277,8.63656 -20.15327,12.29584c-1.0798,0.53976 -6.63596,3.38939 -7.48204,3.46078c-0.11317,0.00955 -0.22633,0.01732 -0.33947,0.02341l0.00678,0.04749l-4.90717,0.70104c-0.12902,0.02054 -0.26133,0.03121 -0.39614,0.03121c-1.38071,0 -2.5,-1.11929 -2.5,-2.5c0,-0.88153 0.45626,-1.6565 1.14552,-2.10164l2.05176,-1.36783c2.357,-3.70852 4.04419,-8.7633 4.00606,-13.20176c-0.01399,-1.62875 -0.88574,-3.14251 -1.1961,-4.74104c-0.81966,2.89832 -4.65294,5.73744 -6.37387,7.79723c-7.53565,9.01943 -13.91627,18.71939 -23.49536,25.90367c-1.0271,0.94035 -1.80465,2.26483 -3.08129,2.82106c-1.14887,0.50056 -2.51682,-0.02727 -3.75623,0.15802c-2.98259,0.44589 -6.13771,2.38873 -8.41549,4.26565c-1.54454,1.27272 -2.40204,3.21923 -3.81721,4.6344c-0.73742,0.73742 -1.77782,1.10258 -2.58279,1.7656c-1.48142,1.22019 -2.42064,2.97914 -3.65161,4.4516c-1.69318,2.02535 -3.87181,3.60444 -5.6,5.6c-2.88074,3.32642 -4.68375,8.01256 -7.00674,11.72935c-2.56996,4.11196 -5.51083,7.91726 -7.08082,12.58403c-1.71878,2.57819 -3.4492,5.87759 -4.73611,8.65835c-1.34071,2.89702 -0.72727,6.98469 -1.49346,10.08499c-0.38503,1.55799 -1.33338,2.96838 -1.5485,4.55876c-0.86455,6.39166 -1.56733,12.7152 -2.38648,19.10503c-0.51628,4.02731 0.82536,8.44337 -0.08854,12.419c-0.18823,0.81885 -0.73511,1.48939 -1.26505,2.16694c1.27307,5.37575 0.0611,11.18082 1.31896,16.5948c0.73679,3.17122 2.56831,5.99635 3.5309,9.10648c1.49361,4.82587 2.90594,9.00648 6.31112,12.96926c2.61395,3.04198 5.74163,4.6482 9.03305,6.71597c2.49129,1.5651 4.61322,3.7092 7.21216,5.08818c2.87151,1.52361 6.01954,2.4562 9.02698,3.69c3.85249,1.58048 8.9443,4.84283 13.14464,5.26263c6.15949,0.6156 12.25867,1.69826 18.45956,2.20972c2.63862,0.21764 5.31306,-0.13602 7.94046,0.19025c4.29758,0.53368 7.96473,2.001 12.43562,1.59475c7.29974,-0.66331 14.38272,-4.68479 20.79157,-7.85816c3.75534,-0.92353 6.01041,-3.01982 9.36895,-4.70106c0.68191,-0.34135 1.55115,-0.25551 2.18406,-0.68088c0.939,-0.63108 1.45863,-1.77242 2.39999,-2.39998c0.35416,-0.2361 0.78878,-0.31094 1.21997,-0.39112c0.03737,-0.49506 0.32227,-2.38225 2.49436,-2.38225zM132.96781,319.93221c0.49465,0.51538 3.91321,1.55957 4.62276,1.79608c2.03874,0.67956 4.00533,1.5746 5.92747,2.53567c10.47501,5.23756 20.64848,10.03667 27.44426,20.18121c0.98789,1.97582 2.30743,3.77478 3.28352,5.75646c3.36303,6.82771 3.56104,18.18056 -4.65525,21.07008c-1.60479,0.56438 -3.32463,0.8138 -5.03405,0.87833c-4.36362,1.46689 -9.23096,3.44417 -13.75608,4.01766c-5.74712,0.72836 -11.88062,-0.06534 -17.50589,-0.78644c-4.44939,-0.57036 -8.30701,1.20645 -12.74088,0.80655c-5.6411,-0.50878 -11.04881,-1.59603 -16.77816,-1.59791c-4.95545,-0.90097 -9.51621,-0.33072 -14.48097,-0.80862c-1.09443,-0.10535 -2.10624,-0.6877 -3.19998,-0.79999c-5.02914,-0.5163 -11.14562,0.16532 -16.09411,0.78644c-3.18715,0.40004 -6.45485,1.2504 -9.695,1.61353c-2.93466,0.32889 -5.91795,-0.25814 -8.8591,0.00656c-10.80116,0.97209 -22.02562,1.45504 -32.92279,0.56794c-4.37089,-0.50289 -8.65204,-0.22359 -12.84855,-1.4632c-4.58904,-1.35557 -8.14124,-3.09933 -11.97499,-5.99253c-2.42875,-1.8329 -4.68582,-2.95832 -5.69273,-6.07561c-0.37089,-1.14826 0.06739,-2.42238 -0.08853,-3.61893c-0.31035,-2.38161 -0.69184,-4.75599 -0.90303,-7.14843c-0.40551,-4.59376 -1.66174,-9.07439 -2.28343,-13.55663c-0.47957,-3.45759 0.477,-6.63817 -0.70398,-10.00984c0,0 -0.79057,-2.37171 1.58114,-3.16228c1.37285,-0.45762 2.21592,0.14432 2.68254,0.73251c0.29814,-0.06081 0.50802,-0.06081 0.50802,-0.06081l0.80945,0.12829c8.63945,-2.87978 17.61862,-7.21771 23.61515,-14.19184c-1.68419,-1.18925 -3.27318,-2.51498 -4.71321,-4.19846c-3.85197,-4.50317 -5.5991,-9.26401 -7.30932,-14.76374c-0.37948,-1.22034 -3.41461,-8.55155 -3.6487,-9.56042c-1.25622,-5.41388 0.26012,-11.60256 -1.3732,-16.86322c-0.3376,-0.54661 -0.35605,-1.1152 -0.2687,-1.58388c0.03968,-0.48289 0.21195,-1.03658 0.69917,-1.4787c1.76145,-2.80161 0.88083,-6.06058 0.88937,-9.38804l-0.00002,-0.00001c0.00577,-2.25174 0.53243,-4.47196 0.81875,-6.70543c0.27529,-2.14744 -0.28996,-4.35139 0.01355,-6.49502c0.69946,-4.94013 2.0285,-9.81511 3.25145,-14.64118c0.56523,-2.23052 0.42142,-4.58427 0.735,-6.86382c0.60403,-4.39095 3.39426,-9.13106 5.83548,-12.79292c1.58872,-4.81288 4.67418,-8.78398 7.31914,-13.01594c2.45535,-3.92857 4.37515,-8.71887 7.39328,-12.27065c1.70942,-2.01167 3.91345,-3.56914 5.60001,-5.60001c1.43514,-1.72812 2.63035,-3.70118 4.34839,-5.14837c0.67323,-0.5671 1.59477,-0.81199 2.2172,-1.43441c1.5303,-1.5303 2.52629,-3.57287 4.18279,-4.96557c2.3628,-1.98653 5.09231,-3.47665 7.99439,-4.43836c0.92724,-0.30727 1.82219,-0.76457 2.79013,-0.89603c0.87479,-0.11881 1.82904,0.49808 2.64373,0.15802c0.80628,-0.33655 1.1458,-1.31929 1.7187,-1.97893c10.0763,-7.55718 17.34954,-18.15022 25.30465,-27.69634c1.30019,-1.56023 2.58678,-3.13197 3.90525,-4.67679c1.14726,-1.34421 1.46468,-4.08346 3.22766,-4.20596c4.66395,-0.32406 5.32031,4.70608 6.02582,7.46138c1.41837,5.53925 0.32223,11.28733 -2.12204,16.38286c1.29792,-0.67848 2.68528,-1.26571 4.17863,-2.01259c4.20572,-2.10342 8.61559,-4.09332 12.69324,-6.34334c4.21831,-2.32763 7.69042,-6.24054 11.11049,-9.54722l0.59442,-0.03304l-0.07068,-0.21204l2.3446,-0.78156c0.26421,-0.09499 0.54904,-0.14676 0.84596,-0.14676c1.38071,0 2.5,1.11929 2.5,2.5c0,0.41989 -0.10351,0.8156 -0.28642,1.163l-1.57748,3.15503l-0.02591,-0.01295c-0.84627,3.63804 -1.81387,7.21175 -3.0196,10.82891c-0.62876,1.88628 -0.94918,3.87112 -1.64584,5.73339c-0.27113,0.72477 -0.54014,1.47102 -0.89889,2.15988c0.71177,0.00075 1.44693,0.2094 2.15372,0.10504c2.38915,-0.35276 4.78581,-0.79999 7.20087,-0.79999l0.34338,0.23618l0.04672,-0.14017l2.34533,0.78176c1.02157,0.31417 1.76414,1.26534 1.76414,2.38994c0,0.99801 -0.58479,1.85943 -1.43041,2.26029l-2.71436,1.35718c-0.08692,0.08232 -0.17371,0.16476 -0.26038,0.24733c3.68108,0.64215 7.38888,1.12283 10.91653,2.64893c3.76922,1.6306 8.43809,5.60835 10.71522,8.97195c0.42866,0.63318 0.18212,1.60008 0.66018,2.19683c0.53453,0.66724 1.57788,0.74375 2.18097,1.34973c2.56082,2.57312 4.08125,6.2352 5.9589,9.25343c0.75194,1.20871 1.89284,2.16731 2.53069,3.43992c0.50284,1.00325 0.38656,2.23165 0.82892,3.263c0.37901,0.88363 1.2238,1.51518 1.60004,2.4c1.07138,2.51963 1.65455,5.7277 2.52993,8.36971c1.67842,8.34871 4.59789,16.69494 5.66506,25.13625c0.7494,5.92779 0.81872,11.90671 0.81872,17.90543c0,3.19496 0.42621,6.84411 -0.03228,10.00049c-1.10025,7.57444 -5.79643,14.36178 -8.22192,21.49789c-2.94159,4.41252 -5.61581,9.64312 -8,14.40003c-0.41413,0.82626 -0.40769,1.84611 -0.91916,2.61593c-0.68669,1.03354 -1.79726,1.71879 -2.5933,2.67067c-1.3463,1.60987 -1.84492,3.79877 -3.10526,5.47678c-4.2407,5.64603 -10.03089,9.94998 -15.27254,14.50683c-0.87071,0.75696 -1.61321,1.65959 -2.41797,2.4885c0.36794,1.69343 1.1391,3.43827 2.23022,4.57513zM121.36819,155.12958c-0.2628,0.04488 -0.52569,0.08822 -0.78946,0.1281c0.07062,0.02354 0.14125,0.04708 0.21187,0.07063c0.0614,0.02052 0.12285,0.04079 0.18434,0.06083z" fill="#000000" stroke="none" stroke-width="0.5"></path>
      <path d="M52.69975,222.25947c0.07806,0.20052 0.1382,0.42831 0.17515,0.687c0.35355,2.47487 -2.12133,2.82842 -2.12133,2.82842c-2.83429,0.40246 -6.58427,1.14991 -9.52423,0.79748c-7.01769,-0.84125 -14.99755,-8.3031 -13.26245,-15.84677c0.5216,-2.26774 3.06753,-5.78191 4.54449,-7.46362c4.61023,-5.24936 9.66522,-8.41472 16.33144,-10.34297c3.11272,-0.90038 5.26528,-1.66143 8.38891,0.20547c3.64429,2.17808 4.22079,4.35994 5.93296,7.76419c0.31166,1.59034 0.92823,3.15045 0.93498,4.77103c0.03403,8.16943 -4.95538,13.19389 -11.39993,16.59976zM44.00425,221.62662c0.36929,-0.9084 1.27767,-1.36263 1.27767,-1.36263l1.77101,-0.87768c2.67685,-1.07615 5.12506,-2.70904 7.41602,-4.46265c0.89077,-0.68184 2.06254,-1.05546 2.74678,-1.94439c2.22056,-2.88486 1.88738,-7.22551 1.21961,-10.46793c-1.10461,-2.22909 -1.41925,-3.51245 -3.66708,-5.03586c-1.50359,-1.01902 -3.05549,-0.21749 -4.52422,0.24318c-6.65755,2.08817 -15.29511,6.77645 -17.41088,14.15569c-1.3059,4.55463 5.30352,9.35723 9.13752,9.75327c0.57161,0.05905 1.27448,0.04968 2.03359,-0.00101z" fill="#000000" stroke="none" stroke-width="0.5"></path>
      <path d="M43.99705,221.67609c-0.75911,0.05069 -1.46962,0.05833 -2.04123,-0.00072c-3.834,-0.39604 -10.47762,-5.23674 -9.17172,-9.79137c2.11577,-7.37924 10.82027,-12.12386 17.47782,-14.21203c1.46873,-0.46067 3.03293,-1.25537 4.53652,-0.23635c2.24783,1.52341 2.5763,2.82291 3.68091,5.052c0.66777,3.24242 1.00456,7.62205 -1.216,10.50691c-0.68424,0.88893 -1.86163,1.27443 -2.7524,1.95627c-2.29096,1.75361 -4.77499,3.40899 -7.45184,4.48514l-1.77955,0.87801c0,0 -0.91324,0.45376 -1.28253,1.36216z" fill="#ffffff" stroke="none" stroke-width="0.5"></path>
      <path d="M135.60001,220.39999c0.31977,0 0.59864,0.0409 0.84184,0.11224c1.86705,-0.68514 3.69251,-1.49176 5.40734,-2.48657c-0.2889,-4.04755 0.58251,-6.11469 -1.11818,-10.08581c-1.13014,-2.63888 -3.24012,-7.47855 -6.32154,-8.66816c-0.94827,-0.36609 -5.89427,0.94576 -5.90027,0.94796c-5.66935,2.07631 -9.60206,6.40402 -10.00921,12.66605c-0.16608,2.55433 1.695,4.834 2.39486,7.29619c0.36042,1.26798 0.22191,2.74241 0.9559,3.83737c0.39336,0.5868 1.34218,0.44623 2.02831,0.61442c1.53373,0.37595 3.08438,0.67912 4.62678,1.01783c0.16965,-0.08271 0.35006,-0.14679 0.53856,-0.18956l2.1917,-0.54793c-0.00467,-0.01383 -0.00929,-0.02776 -0.01385,-0.04181h0.00001c-0.77222,-2.37775 1.60553,-3.14996 1.60553,-3.14996l0.66176,-0.21492c0.33437,-0.574 0.95574,-1.10735 2.11045,-1.10735zM137.36777,226.66776c-0.83727,0.79491 -1.37749,2.17969 -2.50329,2.40164c-0.62259,1.33059 -2.26448,1.33059 -2.26448,1.33059h-3c-0.1492,0 -0.29535,-0.01307 -0.43736,-0.03813c-0.82181,0.37486 -1.70494,0.17861 -1.70494,0.17861c-1.77094,-0.39715 -7.85664,-1.36183 -9.30841,-3.15978c-1.26832,-1.57075 -1.38432,-3.79352 -2.02685,-5.70743c-0.96996,-2.88924 -2.75403,-5.71412 -2.62238,-8.75899c0.36057,-8.33956 5.74095,-14.66009 13.33509,-17.40606c1.82303,-0.65919 7.01356,-1.77092 9.15546,-0.97993c4.64769,1.71635 7.6102,7.26263 9.35059,11.4761c2.20941,5.34898 1.66172,9.05555 0.80966,14.56992c-2.64139,1.89666 -5.50118,3.57064 -8.52737,4.77761z" fill="#000000" stroke="none" stroke-width="0.5"></path>
      <path d="M135.62815,220.4413c-1.15471,0 -1.78706,0.53899 -2.12143,1.11299l-0.66518,0.21603c0,0 -2.38729,0.77396 -1.61507,3.15171l-0.00844,-0.09964c0.00456,0.01405 0.01765,0.12762 0.02232,0.14145l-2.20026,0.54793c-0.1885,0.04277 -0.37085,0.10664 -0.5405,0.18935c-1.5424,-0.33871 -3.10972,-0.64704 -4.64345,-1.02299c-0.68613,-0.16819 -1.6412,-0.03144 -2.03456,-0.61824c-0.73399,-1.09496 -0.60469,-2.57794 -0.96511,-3.84592c-0.69986,-2.46219 -2.57254,-4.77197 -2.40646,-7.3263c0.40715,-6.26203 4.38309,-10.64124 10.05244,-12.71755c0.006,-0.0022 4.97407,-1.3121 5.92234,-0.94601c3.08142,1.18961 5.22208,6.05731 6.35222,8.69619c1.70069,3.97112 0.82836,6.07943 1.11726,10.12698c-1.71483,0.99481 -3.55473,1.81933 -5.42178,2.50447c-0.2432,-0.07134 -0.52457,-0.11042 -0.84434,-0.11042z" fill="#ffffff" stroke="none" stroke-width="0.5"></path>
      <path d="M105.57176,287.29058c0,0 -0.26968,0.80906 -0.96656,1.32459c-1.14069,2.6903 -1.89849,5.43072 -3.0137,8.21579c-0.00159,0.00521 -0.0032,0.01041 -0.00482,0.01561c-1.86721,8.28675 -5.79117,17.23599 -14.41747,20.0322c-3.58094,1.16076 -4.03708,1.32996 -7.3259,-0.06904c-1.36648,-0.58127 -2.87841,-1.03907 -3.94193,-2.07544c-1.27401,-1.24148 -1.88519,-3.01723 -2.83054,-4.52411c-2.44504,-3.89736 -5.01814,-8.18169 -6.6355,-12.49884c-0.99803,-2.66401 -1.65543,-5.57249 -2.15553,-8.55748c-1.23999,-1.2626 -1.07423,-2.79639 -0.6301,-4.32053c-0.43972,-3.39167 -0.7917,-6.77844 -1.31567,-9.9223c0,0 -0.09412,-0.56475 0.07798,-1.19877c-1.09616,-0.85344 -2.12517,-1.79979 -3.11147,-2.77694c0.02768,11.43524 1.14962,23.04423 3.92483,34.15832c1.04822,4.1979 1.63705,8.31755 4.79895,11.47847c3.05229,3.05134 9.0972,3.45515 12.97568,3.42793c3.25579,0.00772 6.88097,0.13183 9.90164,-1.34583c5.62936,-2.75379 7.8626,-10.18766 9.96874,-15.45164c2.36549,-5.91218 4.88458,-11.17024 5.12424,-17.12404c-0.14213,0.38237 -0.2817,0.78477 -0.42286,1.21206zM111.26774,288.50045c-0.68697,5.74445 -3.65922,11.31755 -5.77575,16.61017c-2.64378,6.61107 -5.50729,14.54513 -12.39363,18.03517c-3.69002,1.87013 -8.08664,1.84571 -12.09836,1.85424c-5.17799,-0.03096 -12.3835,-0.76878 -16.37733,-4.7634c-4.04776,-4.04856 -4.92264,-8.63509 -6.24801,-13.93031c-2.91527,-11.64734 -4.07465,-23.82528 -4.07465,-35.8063c0,0 0,-1.9783 1.75982,-2.41526c-0.01673,-0.00454 -0.03354,-0.0089 -0.05043,-0.0131c0,0 -1.29808,-0.43272 -1.65344,-1.61824c-2.30625,-0.80816 -1.52767,-3.14398 -1.52767,-3.14398c2.10371,-6.31129 4.90847,-12.28413 7.22701,-18.47684c1.78174,-4.75892 3.99744,-9.91956 7.72857,-13.65067c4.75757,-4.75755 11.64468,-7.99312 17.51776,-10.92771c3.97089,-1.98412 6.079,-2.63414 10.69836,-2.65424c2.78127,0.01486 4.81835,-0.26011 7.47443,1.04265c4.78562,2.34725 7.77123,7.01734 10.60573,11.27061c5.65447,8.48476 10.90906,17.13556 7.4916,27.7773l-2.32501,1.25307c0.85326,0.7354 0.85326,1.95636 0.85326,1.95636v1.60004c-0.04263,5.81111 -1.94925,14.01289 -7.88858,16.68625c-0.55351,0.24914 -1.13821,0.41078 -1.74077,0.52038c0.71972,3.6271 1.25612,4.95534 0.79709,8.79379zM60.71751,264.51327c0.84925,0.64906 1.09316,1.86446 1.85028,2.61896c1.35597,1.35128 2.78315,2.66921 4.40845,3.68066c1.1503,0.71585 2.57596,0.86841 3.78764,1.47458c1.58121,0.79103 2.6506,2.57042 4.36059,3.01977c0.92751,0.24373 1.92595,-0.20555 2.87601,-0.07498c0.83543,0.11481 1.57095,0.64577 2.39999,0.80005c1.40387,0.26126 3.14518,-0.45111 4.26131,0.43961c1.24914,0.99686 1.59797,2.84807 1.83821,4.42806c0.15394,1.01239 -1.75277,2.58695 -0.80136,2.9657c4.22745,1.68294 7.93803,-0.1207 10.76801,-2.95064c2.01203,-2.94327 4.20929,-5.07963 7.9329,-5.68278c1.91572,-0.31031 3.98122,0.08698 5.78912,-0.61856c2.07557,-0.81 1.75081,-1.51855 2.77531,-3.63173c1.75698,-3.62404 2.17269,-4.39427 2.13603,-8.48194v-1.60004c0,0 0,-1.6958 1.39667,-2.29407c-0.34434,-0.36975 -0.59668,-0.91167 -0.59668,-1.70593c0,-1.32666 0.70402,-1.94931 1.36485,-2.24154c2.0717,-8.23044 -2.96121,-15.39848 -7.34494,-21.97167c-2.33024,-3.49408 -4.69734,-7.52428 -8.59435,-9.52944c-1.57454,-0.81016 -3.67836,-0.56799 -5.32556,-0.55733c-5.6526,-0.02866 -9.91049,2.2071 -14.66312,5.2125c-3.23669,2.04677 -7.20527,4.09008 -9.92074,6.80553c-3.28,3.27998 -5.10624,7.78211 -6.6714,11.94931c-2.13442,5.68284 -4.67109,11.17114 -6.69149,16.9178c0.92134,0.28289 1.90729,0.44959 2.66426,1.02812z" fill="#000000" stroke="none" stroke-width="0.5"></path>
      <path d="M447.36784,287.93228l1.40384,1.77712c1.09763,3.29265 2.79341,6.05008 3.8741,9.29222c3.62418,5.4362 5.51381,11.78342 8.04049,17.68696c1.12109,2.61941 2.68535,4.68556 3.34001,7.60878c0.35449,1.58285 0.44881,3.21638 0.79998,4.79997c0.00207,0.00933 0.35738,0.68676 0.60751,1.48165c0.49253,-0.30226 1.03069,-0.54551 1.55488,-0.76527c2.69958,-1.13178 10.18759,-2.48413 12.04741,1.16824c1.92886,3.78796 -3.29617,7.98003 -5.64929,9.5982c-1.02078,0.63753 -1.90345,1.5879 -3.06233,1.91259c-0.79907,0.22388 -1.64136,-0.24597 -2.46268,-0.36463c-0.65405,-0.09449 1.05182,0.83528 1.41839,1.38513c0.73793,1.10689 1.82293,2.13618 1.99774,3.45496c0.67336,5.08 -5.03132,9.58252 -9.83462,8.24149c-2.23131,-0.62296 -4.64978,-7.06219 -4.76149,-9.74626c-0.57612,0.09902 -1.17231,0.15061 -1.73333,0.27569c-2.38026,0.53067 -4.75361,1.0938 -7.14208,1.58624c-1.48276,0.30571 -3.06773,1.3455 -4.47367,0.78392c-6.46117,-2.58083 -4.47368,-9.50146 0.51062,-11.91895c1.12755,-0.54689 2.50415,-0.10534 3.75622,-0.15801c1.20352,-0.41958 2.53449,-0.31941 3.80895,-0.33535c0.35367,-0.00442 -0.78727,-0.10992 -0.98019,-0.40638c-1.09295,-1.6795 -1.67019,-3.64672 -2.37302,-5.52323c-1.03482,-2.76289 -2.42211,-5.31859 -3.25554,-8.16839c-1.44271,-4.93315 -3.1956,-9.47413 -5.44552,-14.00055c-2.06383,-4.15204 -2.49382,-8.91892 -4.70744,-12.9253c-4.10829,1.58187 -8.46636,1.87884 -12.80043,2.31474c-2.87944,0.2896 -5.77373,1.12702 -8.6468,0.77987c-3.23648,-0.39106 -6.53994,-1.84645 -9.67114,-3.43703c-0.0068,0.00358 -0.01038,0.00537 -0.01038,0.00537l-0.63787,-0.04935c-1.70637,2.55962 -3.0968,5.61769 -4.85202,8.07504c-3.37615,4.72671 -7.97532,8.46187 -11.1015,13.4526c-1.26615,2.02131 -1.93773,4.37623 -3.20001,6.39996c-0.09533,0.15284 -3.43229,4.47888 -3.88084,5.3841c-0.41035,0.82814 -0.40768,1.8461 -0.91915,2.61591c-0.68669,1.03354 -1.66648,1.8456 -2.5933,2.67067c-0.29631,0.26378 -1.17735,0.19449 -1.0455,0.56865c0.18372,0.52133 1.02182,0.43089 1.49716,0.71301c0.82681,0.49072 1.59998,1.06665 2.39996,1.59998c3.10993,3.14105 8.19472,8.34101 1.9947,12.13754c-3.9699,2.43093 -8.50329,-1.19225 -10.94741,-3.63637c-0.86576,-0.86576 -1.53402,-2.86222 -2.7004,-2.4899c-1.67691,0.53529 -2.35462,2.66976 -3.81754,3.64875c-0.70081,0.46899 -1.69741,0.33361 -2.39996,0.79999c-3.48412,2.31288 -6.02863,7.45398 -11.57608,3.90149c-4.37121,-2.79925 -1.59069,-6.61997 1.50295,-9.47944c-1.88467,0.77976 -3.79258,1.48872 -5.79955,1.86758c-1.84775,0.3488 -3.86627,1.42532 -5.59837,0.69343c-3.89016,-1.64377 -3.71679,-5.91716 -1.83005,-8.62716c1.89386,-2.72023 3.32194,-1.96342 5.68838,-3.12833c0.98039,-0.48261 1.72083,-1.4554 2.77396,-1.74692c0.49279,-0.13641 6.28205,-0.10727 7.12441,-0.10727c0.67345,0.09861 1.416,0.60889 2.02035,0.29582c0.58357,-0.30231 0.4432,-1.26171 0.84628,-1.78082c2.65223,-3.4157 5.30754,-6.81859 7.93335,-10.31498c4.8813,-6.49968 10.78565,-11.67118 16.11137,-17.73805c4.27695,-4.87215 7.93853,-10.20285 12.46404,-14.86443c-0.49544,-0.95006 -0.86266,-1.97333 -1.04312,-3.09709c-1.15465,-7.19024 3.22831,-14.66479 5.72304,-21.26785c1.89772,-5.02288 1.05142,-10.26076 -0.09439,-15.38415c-0.96864,-4.3312 -0.78322,-7.50157 -3.56092,-11.04848c0,0 -1.02937,-1.37251 -0.24564,-2.69628c-1.70146,-0.3925 -3.57929,-0.91483 -4.70284,-1.16459c-6.97829,-1.55126 -14.78033,-2.56913 -19.17815,-9.12479c-0.11644,-0.17357 -1.78317,-5.04863 -1.88964,-5.47264c-0.5556,-2.21246 -1.33166,-4.3826 -1.65145,-6.64123c-0.70375,-4.97046 0.62021,-9.78611 0.75681,-14.67941c-0.21053,-0.02058 -0.43679,-0.06837 -0.67962,-0.14932c-2.37171,-0.79056 -1.58115,-3.16227 -1.58115,-3.16227c0.78506,-1.98772 0.29893,-3.38602 -0.56483,-4.7411c-0.0307,0.03314 -0.06261,0.06629 -0.09576,0.09944c-1.76778,1.76775 -3.53553,-0.00003 -3.53553,-0.00003l-1.91233,-1.98102c-1.73643,-2.63089 -3.86029,-4.59162 -6.08766,-6.81895c-2.48884,-2.6098 -3.42043,-1.98395 -6.53056,-3.52198c-4.70249,-2.32548 -9.9833,-4.64312 -15.30208,-5.37808c-1.05663,-0.14601 -2.14406,0.15085 -3.2,0c-2.70818,-0.38687 -5.12061,-1.22499 -7.9991,-0.79999c-2.75171,0.40629 -6.10361,1.68368 -8.89504,1.61352c-1.87495,-0.04712 -4.33735,0.42512 -5.53351,-1.01949c-0.67279,-0.81253 -0.11461,-3.46346 0.79453,-5.4518c-3.65135,-0.16805 -6.38547,-0.98471 -7.53816,-5.61942c-0.35073,-1.41021 -1.29163,-2.99779 -0.66434,-4.30859c0.602,-1.25797 2.42746,-1.37703 3.67932,-1.99165c0.3107,-0.15254 0.62177,-0.31228 0.93792,-0.45853c-0.69592,-0.38816 -1.33321,-1.10764 -1.87958,-1.38601c-0.89441,-0.45568 -2.05218,-0.41131 -2.81906,-1.059c-1.79759,-1.5182 -4.31738,-6.69693 -4.18254,-9.18679c0.20524,-3.78986 4.99254,-8.60138 9.21801,-7.03605c1.10557,0.40956 0.93388,2.1966 1.66872,3.11858c0.36253,0.45485 1.00775,0.58113 1.51162,0.8717c5.51291,1.77615 10.99746,3.6425 16.49219,5.47409c2.40743,0.80248 5.23819,1.40089 7.50781,2.52591c2.60965,1.29356 5.14684,3.73571 7.85833,4.73608c1.22777,0.45297 2.61415,0.32819 3.85465,0.74504c2.71812,0.91338 5.42058,2.35235 8.07074,3.81433c-0.22805,-0.69066 -0.48012,-1.37155 -0.76834,-2.03828c-0.38926,-0.90045 -1.28003,-1.53576 -1.62345,-2.45467c-1.07122,-2.86636 -1.73211,-6.82385 -2.49056,-9.85774c-2.13172,-6.41944 -3.41029,-13.50177 -2.46745,-20.29945c0.11585,-0.83527 0.68013,-1.56528 0.79999,-2.39999c0.53238,-3.70756 0.23183,-7.35291 1.75806,-10.95626c3.19019,-7.53185 8.24315,-13.34701 13.54108,-19.3988c4.56163,-5.21071 10.05799,-10.11817 16.77804,-12.41618c3.38738,-1.12782 6.71966,-1.92879 10.07793,-2.57219c0.06818,0.23369 0.14095,0.46609 0.2176,0.69736c0.4464,-0.37247 0.90445,-0.52516 0.90445,-0.52516l-0.00001,0.00001c3.19767,-1.06344 5.9439,-1.2477 9.19011,-1.69602c2.87577,-0.39716 5.6324,-1.92558 8.24376,-3.042c1.50338,-0.64273 3.18992,-0.81699 4.65831,-1.53609c3.22952,-1.58158 6.56692,-5.1559 8.64513,-7.98121l1.55162,-2.32745c0.44513,-0.68926 1.22011,-1.14553 2.10164,-1.14553c1.38071,0 2.5,1.11929 2.5,2.5v4c0.08793,0.47506 -0.67963,6.28189 0.27963,6.5958c1.33275,0.43614 5.94507,-1.55667 7.01405,-1.82118c3.52507,-0.87224 6.58758,-0.92912 10.20632,-0.87463c2.52224,0.03798 7.87493,-0.61775 8.09998,4.10001c0.08589,1.80049 -2.35895,2.76508 -3.80158,3.84579c-2.28536,1.71202 -6.99886,2.19704 -7.42049,6.08604c-0.26826,2.47439 2.31882,5.41124 3.09377,7.67757c0.78999,2.36981 2.13815,5.12628 2.49604,7.59015c0.03097,0.21323 0.03378,3.5584 0.03315,5.4882c1.33114,2.83526 2.56457,5.88902 3.14682,8.84802c0.21487,1.09196 -0.08819,6.28291 0.03359,7.35875c0.26457,2.33722 1.06665,4.67396 0.79999,7.01093c-0.34013,2.98084 -1.23857,5.96473 -1.61353,8.89498c-0.80403,6.28339 -0.0957,12.8839 -0.80005,19.20001c-0.62452,5.60028 -2.39996,11.08952 -2.39996,16.79999c-0.5692,1.7708 -1.07323,3.56307 -1.53291,5.36564c0.87877,1.43948 1.64376,2.90873 2.23689,4.64337l0.66434,1.27249c0,0 0.86616,1.73233 -0.45104,2.90984c1.07192,1.69258 2.02954,3.45956 2.92469,5.25148c0.35923,1.06944 0.7443,2.16617 1.12329,3.27821c0.88335,-0.15838 1.68506,0.24247 1.68506,0.24247c3.8673,1.9426 7.954,2.98922 11.90611,4.75546c2.34259,1.04693 4.31219,2.78631 6.5361,4.06616c4.3268,2.49004 8.95715,3.60421 12.58283,6.629c0.62823,-1.31455 2.25689,-1.31455 2.25689,-1.31455l2.56783,0.73224c3.19756,3.30722 3.98355,6.31605 5.40392,10.5772c1.10211,3.31413 1.73496,6.0775 1.72826,9.59055c-0.00457,2.39424 -0.49623,9.97883 -3.19847,11.13179c-1.97618,0.84317 -5.0726,-2.43054 -6.79989,-3.28597c-6.03003,-2.98635 -11.85185,-7.08075 -18.16152,-9.49835c-1.43403,-0.54946 -2.96087,-0.93651 -4.2803,-1.7153c1.43642,4.09201 3.17325,8.41444 3.62146,12.66241c0.27463,2.60279 -0.46721,5.21486 -0.79999,7.81086c-0.27528,2.14744 0.28389,4.35053 -0.01355,6.49501c-0.8482,6.11533 -2.10661,12.02189 -4.09601,17.99009c-1.15488,3.40419 -3.36325,5.96407 -4.92592,9.10788c-2.13693,4.29912 -4.71293,8.21551 -7.94172,11.54834c1.06279,-0.01548 1.86374,0.78552 1.86374,0.78552zM443.84579,305.40164c3.6212,7.19719 6.0768,15.11442 8.89892,22.63098c0.74352,1.98032 4.48306,7.81669 3.04681,10.0704c-0.4643,0.72857 -5.90733,2.38777 -7.391,2.86472c-0.88127,-0.05267 -1.8034,-0.42844 -2.6438,-0.15801c-0.85978,0.27667 -1.98824,2.56906 -1.08936,2.48096c3.95586,-0.38773 8.16382,-2.67477 12.23367,-3.19096c1.58838,-0.20146 3.66561,-1.36637 4.79761,-0.23407c1.18645,1.18676 -0.15419,3.36345 0.00141,5.03433c0.06421,0.68955 1.10221,3.68947 1.34577,4.50167c0.11764,0.39228 -0.07957,1.06509 0.3109,1.18864c1.09208,0.34553 3.21878,-2.03392 2.96543,-2.95846c-0.5082,-1.85458 -3.15748,-2.87747 -3.20001,-4.79994c-0.15302,-6.91756 3.97153,-3.80453 7.49114,-6.41199c0.67298,-0.42923 1.4434,-0.73461 2.01895,-1.28768c0.28863,-0.27736 0.60064,-0.82987 0.90255,-1.2956c-1.51779,0.17596 -3.13402,-0.0649 -4.52338,0.54967c-0.7493,0.33145 -1.27634,1.06007 -2.02463,1.3938c-1.60041,0.71377 -3.4144,2.5379 -4.96635,1.72411c-1.52531,-0.79982 -0.81726,-3.34705 -1.28809,-5.00373c-0.65331,-2.29874 -1.04425,-4.66409 -1.5586,-6.99786c-0.5928,-2.68974 -2.01958,-4.36679 -3.06001,-6.79125c-2.51028,-5.84953 -4.3658,-12.12249 -7.95951,-17.51299c-1.14417,-3.4326 -2.96062,-6.41215 -4.1259,-9.90773l-0.19613,0.17703c0,0 -0.87903,-0.87909 -0.77743,-2.01732c-1.24297,1.06275 -2.572,2.04828 -3.99623,2.948c2.12668,4.1475 2.65744,8.77019 4.78728,13.00328zM384.28863,303.33799c-5.23374,5.99971 -11.09114,11.05617 -15.88863,17.46202c-2.69326,3.59618 -5.11795,7.12343 -8.06665,10.48494c-0.24874,0.28356 -0.45605,0.61404 -0.65425,0.95348l0.27501,-0.09167c0.2642,-0.09498 0.54901,-0.14674 0.84591,-0.14674c1.38071,0 2.5,1.11929 2.5,2.5c0,0.52532 -0.16203,1.0128 -0.43883,1.41519l-1.58102,2.37152l-0.03372,-0.02248c-0.03643,0.07408 -0.07409,0.14766 -0.11306,0.2207c-1.26757,2.37595 -3.27386,2.81069 -5.14843,4.34838c-0.74775,0.61338 -1.37769,1.35794 -2.05159,2.05165c-0.404,0.41589 -1.83979,1.30231 -1.27158,1.18689c3.19971,-0.64996 3.25804,-2.24759 6.0239,-4.09851c0.70081,-0.46899 1.69741,-0.33361 2.39996,-0.79999c2.46453,-1.63605 2.1393,-3.88125 5.78256,-4.35125c1.39071,-0.17941 2.82616,0.45987 4.04611,1.15124c2.76624,1.56768 2.48267,3.11229 4.79998,4.79998c0.05363,0.03906 3.79818,1.30053 3.39052,0.3713c-0.53007,-1.20826 -2.27395,-2.70734 -3.0898,-3.51133c-1.89881,-1.26588 -5.36376,-3.23092 -5.70285,-5.68701c-0.21646,-1.56786 1.25943,-2.92592 2.15445,-4.23128c0.57805,-0.84306 1.63811,-1.27995 2.20675,-2.12938c1.02375,-1.52925 1.42217,-3.42781 2.4858,-4.92959c2.20126,-3.10803 3.51633,-6.26735 5.5142,-9.47038c3.18609,-5.108 7.85701,-8.9294 11.29853,-13.74747c1.67168,-2.34033 2.98876,-5.22802 4.59634,-7.69489c-0.01,-0.00509 -0.02,-0.01017 -0.03,-0.01524c-0.83111,-0.82029 -1.69454,-1.64151 -2.51476,-2.49885c-4.24595,4.43161 -7.70244,9.48617 -11.73487,14.10875zM352.8225,334.56848c-1.64891,-0.12333 -3.33222,-0.54384 -4.89801,-0.07574c-0.79626,0.23805 -1.28544,1.07601 -2.02609,1.45303c-0.75152,0.38255 -1.62458,0.46864 -2.40001,0.80004c-0.53484,0.22858 -1.05326,0.51357 -1.51159,0.87167c-0.26257,0.20516 -0.55711,1.03668 -0.23007,0.97281c3.82063,-0.74618 7.41692,-2.53716 11.06577,-4.02182zM458.97435,214.46687c1.35726,0.36715 2.00214,2.01283 3.20189,2.74602c2.68129,1.63859 3.55391,0.96323 6.12219,2.24132c2.94215,1.46414 6.09076,3.24486 8.95642,4.88356c2.43828,1.39431 4.57509,2.67181 7.04358,3.91649c0.74164,0.37396 1.51744,0.74975 2.16266,1.27078c0.20314,-0.7821 0.633,-1.5582 0.67119,-1.82547c0.53384,-3.73617 -0.33462,-7.30972 -1.50397,-10.80899c-0.70496,-2.11492 -1.13892,-3.95589 -1.9898,-5.64551c-0.72237,0.95496 -2.03851,0.95496 -2.03851,0.95496l-2.88013,-1.11327c-2.889,-4.53001 -9.00128,-5.42892 -13.48016,-7.9723c-2.14399,-1.21749 -4.00844,-2.93775 -6.26383,-3.93384c-3.25533,-1.43771 -6.57811,-2.4348 -9.81701,-3.80315c0.21474,0.91283 0.38998,1.8223 0.50887,2.72207c0.44217,3.34651 -0.02927,3.9886 -0.71254,6.84902c0.83991,0.29237 1.22317,0.96192 1.39805,1.51208c3.1138,1.75832 5.1898,4.84668 6.73208,8.20717c0.63275,-0.22372 1.26398,-0.36999 1.88902,-0.20091zM400.69841,235.11651c1.17427,2.90413 1.06517,6.17618 1.74071,9.23502c1.34879,6.10724 2.14422,12.20481 -0.09439,18.21582c-1.34267,3.60528 -2.36137,7.97352 -4.09892,11.43102c-0.37319,0.7426 -1.21504,1.22983 -1.45309,2.02611c-0.45887,1.53489 -0.23898,5.48255 0.62177,6.91525c1.20263,2.00176 2.46044,3.11576 4.04731,4.73214c3.85105,1.88404 8.25068,4.60036 12.53866,5.16043c2.44549,0.31941 4.89903,-0.57616 7.3532,-0.8201c4.50688,-0.44798 9.26843,-0.55162 13.42155,-2.89159c6.62437,-3.73234 10.83763,-9.0726 14.17904,-15.71897c1.48571,-2.95521 3.62724,-5.28105 4.67406,-8.49222c1.91238,-5.73713 3.03728,-11.33975 3.90399,-17.20986c0.30698,-2.07914 -0.26827,-4.21885 -0.01355,-6.30504c0.26815,-2.19617 1.05997,-4.39189 0.79999,-6.58904c-0.42628,-3.6025 -1.94729,-7.28538 -3.09045,-10.7149c-1.33961,-4.01889 -3.21057,-11.97925 -7.62079,-13.501c-2.40168,5.41039 -7.87649,9.10501 -12.84117,11.72167c-4.93897,2.60311 -9.47013,5.07273 -14.86732,6.58907c-4.36841,1.2273 -8.67268,1.03568 -13.05086,2.45917c-2.75628,0.11967 -5.49452,0.65345 -8.24527,0.8047c0.78399,0.93673 1.64257,1.8321 2.09553,2.95231zM339.98867,154.46469c-1.3396,-0.44276 -2.82662,-0.35352 -4.14535,-0.855c-2.82818,-1.07548 -5.43344,-3.49563 -8.14167,-4.8639c-2.05441,-1.03794 -4.70658,-1.54553 -6.89222,-2.27408c-5.70481,-1.90161 -11.41782,-3.78032 -17.10778,-5.72592c-1.09614,-0.77611 -2.44752,-1.28106 -3.28843,-2.32832c-0.35121,-0.43739 0.14199,-1.12528 0.06874,-1.68141c-0.03614,-0.27438 0.01294,0.61482 -0.18355,0.80971c-0.55827,0.55374 -1.98135,0.56977 -1.79839,1.75422c0.18004,1.16549 1.22023,4.49566 2.21748,5.21323c1.45581,1.04753 7.32642,2.31389 7.91855,4.06876c1.48653,4.40557 -2.26057,6.34721 -5.27936,7.42772c-0.37255,0.13335 -0.7723,-0.57945 -1.12061,-0.39167c-0.31008,0.16717 0.74914,0.19254 0.93563,0.4914c0.68013,1.08991 -0.19229,2.16223 1.55276,2.39783c1.17783,0.15902 2.3759,-0.03749 3.56477,-0.07224l2.06487,-0.68827c0.2642,-0.09498 0.54901,-0.14674 0.84591,-0.14674c1.38071,0 2.5,1.11929 2.5,2.5c0,0.52533 -0.16203,1.01282 -0.43885,1.41521l-1.58106,2.37154c-0.04784,0.12063 -0.09896,0.24125 -0.15362,0.36095c0.6288,-0.10771 1.27242,-0.16716 1.76804,-0.22898c3.02655,-0.37751 6.02755,-0.81872 9.10544,-0.81872c8.81387,0 18.06092,2.68663 25.89842,6.6542c1.73922,0.88044 3.29235,0.58428 5.01595,1.71918c1.10498,0.72757 1.90226,1.83923 2.85339,2.75885c1.20026,1.20025 2.36156,2.34231 3.46222,3.53299c-0.11163,-0.27024 -0.22454,-0.53989 -0.33967,-0.80851c-1.88156,-4.39023 -4.43298,-8.36513 -6.37087,-12.7326c-0.58831,-1.32589 -1.0301,-2.70076 -1.4171,-4.09139c-3.71504,-1.95513 -7.61255,-4.47867 -11.51367,-5.76805zM438.30002,100.89999v-0.79999c0,-0.07093 -0.00015,-0.14151 -0.00046,-0.21176c-0.15466,-0.31671 -0.30902,-0.62818 -0.4618,-0.93341c-0.82978,-1.24073 -1.70358,-2.44491 -2.59096,-3.63851c0.92229,0.02352 1.84693,0.03975 2.77451,0.04802c-0.34063,-2.66317 -0.99754,-5.08752 -1.99301,-8.07375c-1.15066,-3.57144 -3.78702,-5.64588 -3.30613,-9.9224c0.17844,-1.58687 1.15233,-3.00911 2.04975,-4.32996c0.89233,-1.31335 2.67854,-2.85668 4.30866,-3.93967c-0.82894,-0.04032 -1.44103,-0.09844 -1.48057,-0.09856c-3.17183,-0.00975 -5.84138,0.63481 -8.90101,1.50031c-2.40775,0.6811 -4.81217,2.05885 -7.47865,0.60387c-2.04278,-1.11466 -3.15574,-4.3148 -3.33714,-7.21168c-2.14917,2.25605 -4.62164,4.35283 -7.18482,5.65328c-0.98653,0.50052 -3.82709,1.18505 -4.94167,1.66392c-2.98055,1.28056 -6.08336,2.87695 -9.35622,3.35803c-3.06395,0.45037 -5.40317,0.49919 -8.40986,1.50399c0,0 -1.15145,0.38383 -2.11719,-0.1857c-3.07984,0.731 -6.12851,1.59972 -9.08286,2.5857c-5.84314,1.88231 -10.63989,6.44066 -14.55092,10.91272c-4.96833,5.68101 -9.67363,11.03996 -12.72994,18.07229c-1.40724,3.23795 -0.96752,6.50619 -1.44201,9.84372c-0.11869,0.83488 -0.67682,1.56577 -0.79999,2.39999c-0.88766,6.01197 0.43781,12.4394 2.3326,18.10057c0.71584,2.86342 1.28706,6.6266 2.30936,9.34227c0.33187,0.8816 1.20803,1.47843 1.57662,2.34532c1.05846,2.48941 1.62702,5.14717 2.32052,7.77348c0.21074,0.33125 0.3615,0.74495 0.34032,1.24109c0.36694,1.28056 0.78727,2.54597 1.33349,3.77267c0.7455,1.67424 1.57831,3.29364 2.42877,4.9016c0.02734,-0.39348 0.11888,-0.66808 0.11888,-0.66808l0.82429,-2.46929c0.83017,-2.05952 1.74434,-4.10623 2.88916,-6.00931c-0.15749,-0.32269 -0.30836,-0.64727 -0.45143,-0.97406c-2.005,-4.57952 -1.87741,-10.14835 -2.55798,-14.95623c-0.12948,-0.91474 -0.82486,-1.7213 -0.8275,-2.64515c-0.00426,-1.49171 0.66378,-2.91692 0.80739,-4.40171c0.31743,-3.28198 0.06608,-7.55812 1.91231,-10.58536c3.26601,-5.35523 9.21955,-5.14181 14.42015,-3.43956c1.56019,0.954 3.29179,1.67222 4.68058,2.862c3.68061,3.15315 4.63242,8.7079 6.22222,12.94942c0.13441,0.35861 2.16953,5.39934 2.95515,7.39155c2.9199,-1.88018 4.80275,-2.49011 8.09806,-2.60993c-1.70593,-6.63142 -4.41296,-13.66285 -1.258,-20.19615c1.51252,-3.13214 4.6389,-6.42548 7.07234,-8.85894c2.19705,-1.45559 3.29414,-2.54706 5.98458,-2.93436c8.46291,-1.21829 15.52849,6.28066 17.2553,13.99496c0.93357,4.17058 0.04511,9.80171 0.04511,14.07277c0,1.68706 0.04228,3.3745 0.09827,5.06049c0.98004,-0.63631 2.19231,-0.23222 2.19231,-0.23222c3.40242,1.16345 6.64567,3.05831 9.70075,5.04024c0.43074,-5.78598 -0.06169,-11.7274 0.64099,-17.46898c0.35186,-2.87501 1.18304,-5.78591 1.58643,-8.70499c0.26666,-1.92971 -0.58854,-3.85258 -0.79999,-5.78912c-0.25885,-2.37072 0.4724,-4.81772 -0.00415,-7.15443c-0.346,-1.69659 -0.96295,-3.47473 -1.6837,-5.20445c-1.53089,-0.54378 -1.53089,-2.34656 -1.53089,-2.34656zM419.06178,204.47189c1.22752,6.18134 1.44486,9.12327 -1.69946,14.48293c-0.71091,1.21178 -0.98427,2.73665 -1.99455,3.71294c-1.1128,1.07536 -2.63719,1.67325 -4.1004,2.17698c-1.51694,0.52222 -3.17242,1.22957 -4.73466,0.86457c-1.31774,-0.30788 -1.90877,-1.95081 -3.04701,-2.68268c-0.64143,-0.41243 -1.50259,-0.33864 -2.18408,-0.68083c-3.16806,-1.59072 -5.40839,-3.58934 -7.38172,-6.45906c0,0 -0.33097,-0.49646 -0.42699,-1.16599c-0.02015,-0.01746 -0.04036,-0.03512 -0.06063,-0.05299c-1.17926,-1.03976 -0.41897,-3.11792 -0.7135,-4.66227c-0.4635,-2.43036 -1.83479,-4.61795 -2.37365,-7.03272c-0.23757,-1.0646 0.13385,-2.19145 -0.01283,-3.27232c-0.20884,-1.53899 -1.01284,-2.93648 -1.50397,-4.40988c0,0 -0.55823,-1.67473 0.67077,-2.67868c-0.06095,-0.35144 -0.02793,-0.6891 0.04084,-0.9797c-1.16893,-0.92377 -0.76526,-2.5385 -0.76526,-2.5385c0.58964,-2.31738 1.59312,-4.74939 2.98189,-6.89217c-1.10355,0.73949 -2.57803,0.71748 -3.85756,1.09878c-0.98285,0.29288 -1.91812,0.88798 -2.94366,0.89489c-1.57384,0.01061 -3.0971,-0.56249 -4.64564,-0.84374l-0.30969,0.04855c0,0 -2.5,0 -2.5,-2.5c0,-0.31074 0.03862,-0.58285 0.10627,-0.82114l-1.07183,-2.30568c-0.07084,0.01936 -0.14045,0.035 -0.20881,0.04722c-0.45083,0.48138 -0.92678,0.92918 -1.49391,1.25511c-1.72586,0.99184 -3.89109,0.91634 -5.73335,1.67029c-0.57277,0.23441 -1.12006,0.64808 -1.66944,1.0242c1.63593,3.00889 2.95057,6.04912 2.50338,9.44569c2.16767,0.21111 2.16767,2.48433 2.16767,2.48433c-0.02536,5.82815 -1.52892,11.21051 -0.08375,16.95831c0.52733,2.09733 0.79746,6.13759 2.11041,8.12737c2.5503,3.865 7.81776,5.23591 11.96362,6.06287c3.28247,0.65474 7.44624,2.30109 10.80101,2.35308c3.03045,0.04697 6.03142,-0.65938 9.06052,-0.76115c3.31414,-1.13659 6.35794,-1.21627 9.74276,-1.62175c4.73762,-0.56753 9.8023,-3.07022 13.8621,-5.33235c5.00458,-2.78856 11.5672,-5.63957 13.73363,-11.54311c0.41959,-1.14339 0.41103,-2.40182 0.6706,-3.59179c0.49665,-2.27685 1.13443,-3.15317 0.77142,-5.45103c-0.56149,-3.55435 -1.90515,-7.20251 -3.04199,-10.64378c-0.88966,-1.77728 -1.86506,-3.51818 -2.97045,-5.16995l-0.95593,-1.86873c0,0 -0.91662,-1.83328 0.57003,-3.00987c-0.14181,-0.41002 -0.29853,-0.80132 -0.46803,-1.17899c-0.3108,0.01811 -0.66175,-0.02587 -1.05651,-0.15745c-2.37171,-0.79056 -1.58115,-3.16227 -1.58115,-3.16227l0.2393,-0.71609c-0.24502,-0.36062 -0.49504,-0.7276 -0.74771,-1.10661c0,0 -1.38674,-2.08013 0.6934,-3.46687c0.56293,-0.37528 1.07507,-0.49666 1.52269,-0.47408c0.18598,-0.61961 0.38346,-1.23557 0.59634,-1.84624c0,-0.49854 0.01356,-0.99538 0.03874,-1.49075c-3.4824,1.14112 -6.42395,1.96225 -10.37101,1.9912c0,0 -0.14219,0 -0.35874,-0.03391c-0.14429,0.50916 -0.30052,1.01733 -0.46956,1.52445c-0.8976,2.62503 -2.55358,6.66215 -4.85423,8.39622c-2.85092,2.14883 -7.2545,1.40385 -10.65409,0.97245c-0.04681,0.02615 -0.09526,0.05178 -0.14539,0.07684c-2.23607,1.11803 -3.3541,-1.11805 -3.3541,-1.11805c-1.00057,-2.00206 -2.34768,-4.21874 -3.41714,-6.46755l-1.39007,0.45924c-2.2193,1.09791 -4.61021,1.86844 -7.03146,2.40613c-0.09702,2.2288 -0.46262,4.50781 -1.33782,6.37747c2.66152,-2.60964 6.15589,-4.10514 10.38697,-3.12643c1.34861,0.31195 2.50684,1.17553 3.74367,1.79706c2.24306,1.12719 4.32034,2.79422 5.76205,4.84929l-0.28885,1.02691l0.6341,1.35354c0.52717,2.15628 0.85204,4.38611 0.84235,6.60588c0.61266,1.838 0.60944,3.82818 0.8201,5.75412c0.31729,2.90073 1.31455,5.00473 1.36458,7.1761zM409.61507,150.96664c3.2449,-2.79672 9.37946,-6.15358 13.76824,-4.15394c-0.12403,-3.03693 -0.28331,-6.08114 -0.28331,-9.11269c0,-3.94817 0.89353,-9.27079 0.04511,-13.12724c-1.58196,-7.19075 -8.56471,-12.57758 -15.16014,-8.13942c-1.97678,1.97681 -4.42621,4.65975 -5.72759,7.14106c-0.87555,1.6694 -0.55734,4.49671 -0.55734,6.1256c0,5.4543 2.39395,10.30974 3.16767,15.59955c0.16375,1.11952 -0.08873,2.26839 0.02376,3.39421c0.20846,2.08622 0.71456,4.15496 1.22026,6.21127c0.81746,-1.54567 2.21873,-2.83124 3.50333,-3.93841zM380.6353,152.19363c1.05235,-0.43482 2.13076,-1.02914 3.2688,-0.99178c1.14134,0.03747 2.16833,0.27847 3.07395,0.6802c-0.07519,-1.85858 -0.09376,-3.72668 -0.58556,-5.50841c-0.74688,-2.70582 -2.15557,-5.18499 -3.13994,-7.81374c-1.31004,-3.49846 -1.9417,-8.44623 -4.97773,-11.05058c-0.97248,-0.83421 -2.21294,-1.29203 -3.31942,-1.93805c-0.58528,-0.20118 -1.14148,-0.52872 -1.75583,-0.60355c-7.36885,-0.89759 -6.94392,5.10805 -7.51169,10.57863c-0.12679,1.22163 -0.78842,2.37011 -0.79271,3.59829c-0.00267,0.76307 0.66365,1.39964 0.7726,2.1549c0.6345,4.39859 0.35651,9.67692 2.24195,13.84376c0.77978,1.72331 1.76874,3.38555 2.79112,5.03591c1.78602,-3.7705 6.52562,-6.57707 9.93447,-7.98558zM400.64329,165.79031l1.67954,-0.56419c-0.18368,-1.29033 0.16987,-2.62795 0.00947,-3.92567c-0.59121,-4.78307 -1.63682,-9.87323 -2.3295,-14.70044h-0.00277c-3.21334,-0.03705 -3.98371,0.19395 -6.61323,1.98011c0,0 -0.64874,0.4325 -1.46316,0.45214c0.32272,2.97417 0.31963,5.95179 0.92397,8.95866c0.60812,3.02567 2.0838,5.93178 2.43368,9.00362c0.02687,0.23591 0.05299,0.48098 0.07774,0.73404c1.82496,-0.45327 3.61236,-1.09262 5.28426,-1.93826zM437.60942,159.3283l0.59799,-0.04823c0.34091,-1.98921 0.75727,-3.96732 1.11629,-5.94949l-0.71042,-0.75046c-3.01492,-2.01765 -6.35809,-4.19823 -9.80386,-5.30843c0,0 -0.1958,-0.06527 -0.45614,-0.21456c0.17037,4.8862 0.25145,9.74703 -0.45688,14.53756c3.58608,-0.08785 6.22344,-1.10321 9.71301,-2.2664zM409.90138,161.85544c-0.15161,-0.08565 -0.30408,-0.16829 -0.45809,-0.24576c-0.62466,-0.31419 -1.43508,-0.4705 -2.14218,-0.71932c0.05532,1.15977 -0.24365,2.34307 -0.05555,3.49065c0.32167,1.96242 1.4069,4.07681 2.53866,6.09386c2.23587,-0.62014 2.98747,1.63451 2.98747,1.63451l-0.10989,1.16249c1.58426,-0.43009 4.67327,0.28929 5.82075,-0.75864c1.47657,-1.34847 2.54967,-4.15357 3.14577,-6.0038c0.44722,-1.34168 0.79602,-2.69423 1.06549,-4.0557c-4.37987,2.51559 -10.2223,2.99437 -12.79243,-0.59829zM379.62257,170.37056c-1.002,1.41587 -2.33711,1.10312 -2.99999,0.82115c0.17544,0.35643 0.35426,0.711 0.53803,1.06285c0.1346,0.07907 0.27041,0.17556 0.40662,0.2919c0.90232,0.63301 1.80465,1.26603 2.70697,1.89904l1.9619,3.73643c0,0 0.09688,0.19375 0.17657,0.49571c2.14327,0.38585 4.56902,0.49399 6.54723,-0.62118c0.73744,-0.41572 1.33663,-3.65756 1.35886,-3.86191c0.29989,-2.75639 0.18637,-5.67846 -0.45392,-8.38936c-1.75898,2.47766 -4.09707,2.97581 -6.67428,3.86652l-1.27246,0.66435c0,0 -1.21048,0.60526 -2.29552,0.0345zM415.45492,209.77865c-3.0783,3.83575 -9.97523,4.17777 -14.25445,4.78908c-0.57864,0.08266 -1.112,0.26339 -1.62416,0.47024c1.0892,1.14765 2.37376,2.04546 3.92207,2.81625c0.82739,0.41189 1.85702,0.39167 2.61596,0.91914c0.75242,0.52294 0.90354,1.77393 1.75304,2.11737c0.56256,0.22744 1.11055,-0.48939 1.66524,-0.73541c0.76693,-0.34015 1.72346,-0.41324 2.29962,-1.0231c0.96182,-1.01806 3.11363,-5.09515 3.30004,-6.63268c0.10694,-0.88204 0.11721,-1.86477 0.36074,-2.72532c-0.01253,0.00153 -0.02522,0.00301 -0.0381,0.00443zM364.10001,172.10001l-0.1903,2.24327c0.67456,0.59059 1.52996,1.02339 2.02369,1.77177c0.28296,0.42891 -0.3517,1.46041 0.15692,1.53351c0.53227,0.0765 0.36059,-1.10112 0.81135,-1.39435c1.58613,-1.03181 3.82031,-0.5969 5.46661,-1.52972c0.1179,-0.06681 0.22826,-0.14319 0.33276,-0.22702c-1.03275,-2.00008 -1.93398,-4.0723 -2.9406,-6.08658c-0.89607,-1.79307 -1.99488,-3.53634 -3.08633,-5.28569c-0.40615,0.86537 -0.77554,1.74911 -1.12658,2.6347l-0.77581,2.3307c0,0 -0.53117,1.5934 -2.02879,1.73273c1.35711,0.61304 1.35711,2.27667 1.35711,2.27667zM400.34519,182.73772c1.00504,-0.56241 1.80961,-1.56535 2.93038,-1.83046c0.00969,-0.00229 0.01938,-0.00456 0.02908,-0.0068c-3.52915,-0.91621 -6.13182,1.61577 -7.79483,4.597c1.49407,-0.94646 3.10776,-1.79299 4.83537,-2.75974zM421.35336,156.80668c0.14082,0.02734 0.28362,0.07004 0.4263,0.13182c1.27625,-1.07898 1.73177,-2.61826 0.27903,-4.86331c-0.29678,-0.45864 -0.68797,-0.73771 -1.14305,-0.8772c0.0574,0.07734 0.10917,0.15831 0.15581,0.24261c0.84462,0.40124 1.42857,1.26213 1.42857,2.25942c0,0.52533 -0.16203,1.01282 -0.43885,1.41521l-0.72325,1.08485c-0.00168,0.20661 0.00253,0.40942 0.01543,0.60661zM375.20365,163.21237c-0.04633,-0.19014 -0.07557,-0.39183 -0.08877,-0.6032c-0.17486,0.45604 -0.22413,0.92952 -0.00516,1.33412c0.33132,0.6122 2.7623,2.16247 3.6273,2.71572c0.07624,-0.09738 0.15636,-0.18582 0.23636,-0.26532c-1.67953,-0.47232 -3.38572,-1.6055 -3.76973,-3.18132zM407.20004,186.09999l0.56876,-0.273l-0.16924,-0.05928c-0.3303,-0.00861 -0.6694,0.00302 -1.01529,0.03352c0.0817,0.03503 0.16115,0.07428 0.23809,0.11749zM361.20855,169.62201c0.06954,-0.00812 0.14137,-0.01409 0.21556,-0.01774c-0.10579,-0.04191 -0.20454,-0.08723 -0.29669,-0.13549c0.02706,0.05107 0.05411,0.10215 0.08113,0.15323z" fill="#000000" stroke="none" stroke-width="0.5"></path>
      <path d="M437.64063,159.36734c-3.48957,1.16319 -6.18905,2.17881 -9.77513,2.26666c0.70833,-4.79053 0.62885,-9.73118 0.45848,-14.61738c0.26034,0.14929 0.45731,0.21374 0.45731,0.21374c3.44577,1.1102 6.86428,3.31564 9.8792,5.33329l0.71247,0.75835c-0.35902,1.98217 -0.79063,4.00551 -1.13154,5.99472l-0.60078,0.05063z" fill="#00629e" stroke="none" stroke-width="0.5"></path>
      <path d="M400.66206,165.83666c-1.6719,0.84564 -3.48642,1.48794 -5.31138,1.94121c-0.02475,-0.25306 -0.05185,-0.49831 -0.07872,-0.73422c-0.34988,-3.07184 -1.86532,-6.01762 -2.47344,-9.04329c-0.60434,-3.00687 -0.57919,-6.03601 -0.90191,-9.01018c0.81442,-0.01964 1.47012,-0.45587 1.47012,-0.45587c2.62952,-1.78616 3.43299,-2.01964 6.64633,-1.98259h0.00278c0.69268,4.82721 1.76432,9.99684 2.35553,14.77991c0.1604,1.29772 -0.20522,2.64623 -0.02154,3.93656l-1.68777,0.56845z" fill="#00629e" stroke="none" stroke-width="0.5"></path>
      <path d="M364.05483,172.12136c0,0 -0.00447,-1.69063 -1.36158,-2.30367c1.49762,-0.13933 2.03903,-1.75781 2.03903,-1.75781l0.794,-2.34523c0.35104,-0.88559 0.73455,-1.77356 1.1407,-2.63893c1.09145,1.74935 2.23328,3.50729 3.12935,5.30036c1.00662,2.01428 1.91053,4.15314 2.94328,6.15322c-0.1045,0.08383 -0.21687,0.1625 -0.33477,0.22931c-1.6463,0.93282 -3.92396,0.51332 -5.51009,1.54513c-0.45076,0.29323 -0.28312,1.47012 -0.81539,1.39362c-0.50862,-0.0731 0.1221,-1.10566 -0.16086,-1.53457c-0.49373,-0.74838 -1.36892,-1.19291 -2.04348,-1.7835l0.17979,-2.25791z" fill="#00629e" stroke="none" stroke-width="0.5"></path>
      <path d="M352.86994,334.55267c-3.64885,1.48466 -7.33909,3.30979 -11.15972,4.05597c-0.32704,0.06387 -0.03476,-0.77498 0.22781,-0.98014c0.45833,-0.3581 0.97569,-0.64995 1.51053,-0.87853c0.77543,-0.3314 1.65144,-0.43905 2.40296,-0.8216c0.74065,-0.37702 1.29381,-1.24457 2.09007,-1.48262c1.56579,-0.4681 3.27944,-0.01641 4.92835,0.10692z" fill="#d38133" stroke="none" stroke-width="0.5"></path>
      <path d="M415.53396,209.74551c-0.24353,0.86055 -0.24793,1.8544 -0.35487,2.73644c-0.18641,1.53753 -2.34747,5.66522 -3.30929,6.68328c-0.57616,0.60986 -1.55103,0.6961 -2.31796,1.03625c-0.55469,0.24602 -1.11889,0.9666 -1.68145,0.73916c-0.8495,-0.34344 -1.0228,-1.59817 -1.77522,-2.12111c-0.75894,-0.52747 -1.8119,-0.5271 -2.63929,-0.93899c-1.54831,-0.77079 -2.84032,-1.69691 -3.92952,-2.84456c0.51216,-0.20685 1.04586,-0.39176 1.6245,-0.47442c4.27922,-0.61131 11.26665,-0.97595 14.34495,-4.8117c0.01288,-0.00142 0.02562,-0.00282 0.03815,-0.00435z" fill="#d38133" stroke="none" stroke-width="0.5"></path>
      <path d="M395.46721,185.52363c1.66301,-2.98123 4.35181,-5.56398 7.88096,-4.64777c-0.0097,0.00224 -0.1064,0.05381 -0.11609,0.0561c-1.12077,0.26511 -1.83528,1.22518 -2.84032,1.78759c-1.72761,0.96675 -3.43048,1.85763 -4.92455,2.80409z" fill="#d38133" stroke="none" stroke-width="0.5"></path>
      <path d="M422.73675,162.42811c-0.26947,1.36147 -0.61139,2.73538 -1.05861,4.07706c-0.5961,1.85023 -1.6917,4.70146 -3.16827,6.04993c-1.14748,1.04793 -4.28107,0.3336 -5.86533,0.76369l0.10736,-1.1635c0,0 -0.77357,-2.27307 -3.00944,-1.65293c-1.13176,-2.01705 -2.22241,-4.1755 -2.54408,-6.13792c-0.1881,-1.14758 0.11921,-2.34581 0.06389,-3.50558c0.7071,0.24882 1.52093,0.40134 2.14559,0.71553c0.15401,0.07747 0.30721,0.15939 0.45882,0.24504c2.57013,3.59266 8.4902,3.12426 12.87007,0.60867z" fill="#ffffff" stroke="none" stroke-width="0.5"></path>
      <path d="M409.60602,151.0158c-1.2846,1.10717 -2.69218,2.39115 -3.50964,3.93682c-0.5057,-2.05631 -1.02074,-4.12893 -1.2292,-6.21515c-0.11249,-1.12582 0.13457,-2.27818 -0.02918,-3.3977c-0.77372,-5.28981 -3.18313,-10.20691 -3.18313,-15.66121c0,-1.62889 -0.30678,-4.47166 0.56877,-6.14106c1.30138,-2.48131 3.77246,-5.17586 5.74924,-7.15267c6.59543,-4.43816 13.62609,0.9623 15.20805,8.15305c0.84842,3.85645 -0.03266,9.22697 -0.03266,13.17514c0,3.03155 0.14454,6.09983 0.26857,9.13676c-4.38878,-1.99964 -10.56592,1.36931 -13.81082,4.16603z" fill="#ffffff" stroke="none" stroke-width="0.5"></path>
      <path d="M379.57805,170.34782c1.08504,0.57076 2.30882,-0.05081 2.30882,-0.05081l1.29711,-0.67487c2.57721,-0.89071 4.95653,-1.37535 6.71551,-3.85301c0.64029,2.7109 0.76745,5.68199 0.46756,8.43838c-0.02223,0.20435 -0.63522,3.46942 -1.37266,3.88514c-1.97821,1.11517 -4.44732,1.02003 -6.59059,0.63418c-0.07969,-0.30196 -0.17873,-0.49615 -0.17873,-0.49615l-1.99314,-3.75849c-0.90232,-0.63301 -1.81236,-1.29131 -2.71468,-1.92432c-0.13621,-0.11634 -0.27203,-0.2152 -0.40663,-0.29427c-0.18377,-0.35185 -0.36188,-0.7139 -0.53732,-1.07033c0.66288,0.28197 2.00275,0.58041 3.00475,-0.83546z" fill="#ffffff" stroke="none" stroke-width="0.5"></path>
      <path d="M380.65717,152.2386c-3.40885,1.40851 -8.18453,4.21805 -9.97055,7.98855c-1.02238,-1.65036 -2.02396,-3.31835 -2.80374,-5.04166c-1.88544,-4.16684 -1.63025,-9.4933 -2.26475,-13.89189c-0.10895,-0.75526 -0.77343,-1.40054 -0.77076,-2.16361c0.00429,-1.22818 0.6724,-2.39016 0.79919,-3.61179c0.56777,-5.47058 0.17646,-11.49747 7.54531,-10.59988c0.61435,0.07483 1.17536,0.40186 1.76064,0.60304c1.10648,0.64602 2.35752,1.10435 3.33,1.93856c3.03603,2.60435 3.70395,7.57768 5.01399,11.07614c0.98437,2.62875 2.39604,5.14902 3.14292,7.85484c0.4918,1.78173 0.50159,3.66489 0.57678,5.52347c-0.90562,-0.40173 -1.93694,-0.63823 -3.07828,-0.6757c-1.13804,-0.03736 -2.22841,0.56511 -3.28076,0.99993z" fill="#ffffff" stroke="none" stroke-width="0.5"></path>
      <path d="M374.45501,112.19941c-2.49939,0.05502 -2.55441,-2.44438 -2.55441,-2.44438l0.10883,-0.12104c-0.51896,-1.55803 -1.00741,-3.12656 -1.55688,-4.6741c-0.68092,-1.91777 -1.97985,-5.61442 -4.38439,-6.382c-1.08839,-0.34744 -1.80943,1.42438 -2.5348,2.30707c-0.46804,0.56954 -0.96897,1.1437 -1.24704,1.82643c-0.80152,1.96787 -1.71634,3.90712 -2.2532,5.96302c-0.65293,2.50039 0.06688,6.43106 0.06688,9.02561c0,0 0,2.5 -2.5,2.5c-2.5,0 -2.5,-2.5 -2.5,-2.5c0,-3.04177 -0.64304,-7.23518 0.06688,-10.1744c0.30363,-1.25708 1.23701,-2.28112 1.68845,-3.49299c0.40172,-1.07841 0.39054,-2.29258 0.85841,-3.34398c1.38143,-3.10436 5.09379,-7.57279 9.01809,-7.06652c1.78356,0.2301 5.65772,3.69311 6.55532,5.10165c0.99957,1.56856 2.90823,7.65782 3.46571,9.32909l0.14654,1.59213c0,0 0.05502,2.49939 -2.44438,2.55441z" fill="#000000" stroke="none" stroke-width="0.5"></path>
      <path d="M419.99066,103.27169c-2.37169,0.79061 -3.16231,-1.58108 -3.16231,-1.58108l-0.80006,-2.40002c-1.41346,-4.3871 -3.66169,-6.89305 -8.5228,-6.30932c-0.95882,0.11514 -1.86221,0.51671 -2.8065,0.71902c-0.43731,0.09369 -1.02579,-0.15923 -1.33122,0.16748c-0.34335,0.36727 -0.06212,1.01488 -0.22029,1.49212c-1.50231,4.53275 -3.06762,7.85069 -3.04748,12.74012c0,0 0,2.5 -2.5,2.5c-2.5,0 -2.5,-2.5 -2.5,-2.5c0.01876,-5.31522 1.36671,-9.58945 3.35255,-14.45989c0.45106,-1.10627 0.52544,-2.47267 1.37968,-3.30787c0.8945,-0.87456 2.27999,-1.04311 3.46883,-1.43256c8.43144,-2.762 14.67303,0.62816 17.47063,8.80973l0.80004,2.39997c0,0 0.79061,2.37169 -1.58108,3.16231z" fill="#000000" stroke="none" stroke-width="0.5"></path>
      <path d="M414.44433,248.41754c0.0557,0.2845 0.0557,0.48245 0.0557,0.48245c0,3.97833 -0.32996,7.62114 -0.81872,11.50546c-0.14014,1.1137 0.21855,2.27191 -0.02638,3.36734c-0.54511,2.43793 -1.49818,4.78804 -2.60912,7.02555c-0.26165,0.52698 -2.09007,2.69622 -2.14766,3.79762c-0.18225,3.48534 2.97894,2.74941 5.1023,3.03632c0.83569,0.11292 1.56742,0.6662 2.40002,0.79999c2.25352,0.36212 3.22847,-0.27368 5.45105,-0.77136c4.24888,-0.95141 7.74183,-0.94214 10.7807,-4.12866c2.86853,-2.83395 3.65769,-5.05779 5.02309,-8.69963c0.99618,-2.65704 2.30226,-3.3057 2.24539,-6.27312c-0.01952,-1.01841 -0.67029,-1.94158 -0.78196,-2.95403c-0.37128,-3.36623 0.57778,-6.58701 -0.66344,-9.83813c-1.28602,-3.36846 -4.26929,-8.49473 -7.97974,-9.67464c-1.42555,-0.45332 -2.91228,0.44213 -4.17657,0.80762c-4.83278,1.39711 -7.5178,2.33597 -10.4532,6.69809c-0.51547,1.59764 -0.94475,3.21106 -1.40146,4.81913zM409.37152,253.07923c-0.67148,-0.73849 -0.67148,-1.77921 -0.67148,-1.77921l0.12829,-1.59054c0.92107,-2.75632 1.58726,-5.55499 2.52589,-8.30783c3.69957,-5.58401 7.29715,-7.5352 13.5468,-9.30191c2.78187,-0.78641 3.72144,-1.68094 7.0235,-0.79248c5.23671,1.40901 9.4689,7.99157 11.22021,12.72538c1.41376,3.82141 0.50196,7.07954 0.93654,10.96192c0.13133,1.17326 0.83456,2.26553 0.81801,3.44599c-0.0398,2.83933 -1.55733,5.46804 -2.55454,8.12678c-1.59003,4.23931 -2.89718,7.18726 -6.17698,10.50044c-4.04215,3.90818 -7.84228,4.28498 -13.2193,5.47132c-3.3728,0.74415 -3.73246,1.29517 -7.34888,0.82861c-0.83635,-0.1079 -1.56602,-0.67524 -2.40002,-0.79999c-1.18397,-0.1771 -2.49084,0.37798 -3.59015,-0.09602c-3.9132,-1.68728 -5.62284,-3.86894 -5.70757,-8.06762c-0.0586,-2.9037 1.52381,-3.56254 2.65239,-5.80248c0.92632,-1.83851 1.74738,-3.76404 2.19093,-5.77438c0.21781,-0.98719 -0.1509,-2.02945 -0.02638,-3.03269c0.28544,-2.29966 0.51772,-4.4823 0.65275,-6.71533z" fill="#000000" stroke="none" stroke-width="0.5"></path>
      <path d="M415.81925,243.55603c2.9354,-4.36212 5.65161,-5.30839 10.48439,-6.7055c1.26429,-0.36549 2.76017,-1.25921 4.18572,-0.80589c3.71045,1.17991 6.71863,6.3226 8.00465,9.69106c1.24122,3.25112 0.30313,6.49797 0.67441,9.8642c0.11167,1.01245 0.76257,1.94538 0.78209,2.96379c0.05687,2.96742 -1.25563,3.6367 -2.25181,6.29374c-1.3654,3.64184 -2.1754,5.88548 -5.04393,8.71943c-3.03887,3.18652 -6.56058,3.18225 -10.80946,4.13366c-2.22258,0.49768 -3.209,1.13064 -5.46252,0.76852c-0.8326,-0.13379 -1.56939,-0.68931 -2.40508,-0.80223c-2.12336,-0.28691 -5.29515,0.44176 -5.1129,-3.04358c0.05759,-1.1014 1.88423,-3.27231 2.14588,-3.79929c1.11094,-2.23751 2.05637,-4.59729 2.60148,-7.03522c0.24493,-1.09543 -0.11898,-2.26547 0.02116,-3.37917c0.48876,-3.88432 0.82848,-7.57349 0.82848,-11.55182c0,0 0.00082,-0.1989 -0.05488,-0.4834c0.45671,-1.60807 0.89684,-3.23067 1.41231,-4.82831z" fill="#ffffff" stroke="none" stroke-width="0.5"></path>
      <path d="M368.82548,201.17166c-0.19287,-0.56394 -0.28183,-1.11873 -0.05856,-1.64603c1.98841,-4.6962 4.7521,-5.20629 8.54744,-3.15225c5.10108,2.76071 7.91729,8.91572 9.08598,14.22766c0.28537,1.29709 1.32131,2.70465 0.76436,3.91035c-2.24594,4.86203 -10.83938,3.99854 -14.28219,1.1754c-2.41707,-1.98203 -3.18229,-5.57596 -4.05417,-8.39619c-0.32715,-1.05822 -0.98824,-2.08457 -0.92835,-3.19058c0.05548,-1.02446 0.51415,-1.97188 0.92549,-2.92835z" fill="#ff5ebc" stroke="none" stroke-width="0.5"></path>
      <path d="M440.62363,186.82327c1.05354,0.70047 1.11945,2.50899 1.74811,3.68616c0.01842,0.06054 0.03642,0.12096 0.054,0.18127c0.34294,0.53319 0.60156,1.02362 0.74598,1.41871c1.43058,3.9136 -0.1991,3.76274 -0.70397,6.79104c-0.2186,1.31121 0.37762,2.81475 -0.26354,3.97922c-0.42135,0.76526 -2.83967,2.36567 -4.85005,3.43501c-2.21537,2.41837 -4.45704,4.50887 -8.41595,2.21342c-0.93892,-0.54441 -1.43728,-1.80402 -1.68632,-3.19486c-1.18462,-1.31704 -1.37202,-3.03803 -1.01679,-4.78464c0.08457,-1.48415 0.61658,-3.2106 1.30499,-4.85572c0.40908,-3.5272 1.28139,-6.75891 4.29214,-9.36065c1.31492,-1.13629 2.4332,-3.23857 4.16781,-3.13223c2.16528,0.13274 3.6754,1.64576 4.62359,3.62326z" fill="#ff5ebc" stroke="none" stroke-width="0.5"></path>
      <path d="M379.80641,162.47465c0.8744,0.21861 1.35474,0.67365 1.6115,1.16623c2.03509,1.38667 0.66222,3.44591 0.66222,3.44591l-1.57853,2.36773c-0.44514,0.68924 -1.2201,1.14549 -2.10162,1.14549c-1.38071,0 -2.5,-1.11929 -2.5,-2.5c0,-0.22873 0.03072,-0.45028 0.08825,-0.66076l0.78645,-3.14562c0,0 0.60637,-2.42535 3.03172,-1.81898z" fill="#ffffff" stroke="none" stroke-width="0.5"></path>
      <path d="M415.20004,153.60001c2.5,0 2.5,2.5 2.5,2.5l-0.41989,2.18676c-0.53335,0.8 -1.06669,1.6 -1.60004,2.39999c0,0 -1.38677,2.08011 -3.46688,0.69333c-2.08011,-1.38677 -0.69333,-3.46688 -0.69333,-3.46688c0.53335,-0.8 1.06669,-1.6 1.60004,-2.39999l-0.41989,0.58679c0,0 0,-2.5 2.5,-2.5z" fill="#ffffff" stroke="none" stroke-width="0.5"></path>
    </g>
  </g>
</svg>
