<?xml version="1.0" encoding="UTF-8"?>
<svg xmlns="http://www.w3.org/2000/svg" xmlns:xlink="http://www.w3.org/1999/xlink" version="1.1" width="34.7824" height="105.71101" viewBox="0,0,34.7824,105.71101">
  <g transform="translate(-40.02093,-111.039)">
    <g stroke="none" stroke-width="0.5" stroke-miterlimit="10">
      <g>
        <path d="M57.28189,126.80354c-0.10182,-0.09409 -0.19588,-0.19462 -0.28251,-0.30106c-0.03713,0.15569 -0.0716,0.30355 -0.101,0.43256c0.03941,0.04866 0.07943,0.09622 0.12001,0.14262c0.08837,-0.09144 0.17625,-0.18275 0.26349,-0.27412zM73.19871,166.8087c0.29385,-0.09656 0.66748,-0.08822 1.08463,0.22464c1,0.75 0.25001,1.75 0.25001,1.75l-2.00023,1.55053c-2.17715,-3.50519 -2.65209,-7.17325 -3.87103,-11.04224c-2.21382,-7.02681 -4.76135,-13.47804 -8.73693,-19.68665c-0.97183,-1.5177 -1.4852,-3.05515 -2.31835,-4.49338c-0.17804,1.71081 -0.36158,3.42394 -0.40692,5.14836c-0.25901,9.84958 -0.27009,19.48865 -1.36468,29.29849c-0.14293,0.66621 -0.1531,1.36002 -0.09372,2.04536c0.68113,0.16609 0.8712,0.92637 0.8712,0.92637c2.79929,11.21817 5.86951,23.33754 5.904,34.96984c0,0.29353 0,0.58706 0,0.8806c0.32342,0.02936 0.68487,0.19407 0.93469,0.69369c0.55903,1.11803 -0.559,1.67706 -0.559,1.67706l-2.87569,-0.58469c0,-0.88889 0,-1.77777 0,-2.66666c0.03719,-10.74337 -2.73429,-22.02093 -5.35612,-32.47647c-1.9693,6.15149 -3.22823,12.44292 -4.99019,18.68022c-1.79261,6.34579 -3.97119,12.53459 -5.2931,18.98607c0.0003,0.21962 0.00061,0.43923 0.00091,0.65885c0.48127,0.53513 0.18243,1.28223 0.18243,1.28223l-0.52252,1.3063c-0.17726,0.47474 -0.63486,0.81279 -1.17141,0.81279c-0.69035,0 -1.25,-0.55964 -1.25,-1.25c0,-0.07812 0.00717,-0.15458 0.02088,-0.22873l0.25009,-1.50051c0.00059,-0.44243 0.0012,-0.88485 0.00179,-1.32728c1.29424,-6.61032 3.5409,-12.92722 5.37356,-19.41392c1.86835,-6.61304 3.18619,-13.2823 5.35117,-19.79153c0,0 0.19226,-0.57676 0.71084,-0.79174c-0.12866,-1.08599 -0.16211,-2.20041 0.03981,-3.27141c1.07335,-9.70308 1.07977,-19.23856 1.33595,-28.98065c0.04065,-1.54591 0.1964,-3.08559 0.35837,-4.62286c-5.3722,11.15233 -9.72046,22.43447 -11.50328,34.85599c-0.29959,1.05239 -0.58302,2.11133 -0.79678,3.18445l-0.26666,1.33333c0,0 -0.24515,1.22572 -1.47087,0.98058c-1.22572,-0.24514 -0.98058,-1.47087 -0.98058,-1.47087l0.26666,-1.33334c0.21746,-1.08317 0.49866,-2.15357 0.80321,-3.21554c1.98025,-13.92801 7.19893,-26.48199 13.43782,-38.96499c0,0 0.18552,-0.37106 0.55657,-0.57876c-0.79225,-0.14147 -1.29762,-0.39326 -2.4166,-1.40751c-0.79662,-0.72206 -1.37331,-1.76558 -1.70585,-2.9319c-0.40226,-0.40423 -0.70416,-0.87978 -0.80401,-1.45627c-0.11585,-0.66883 -0.05359,-1.5436 0.15586,-2.45708c-0.34576,0.05845 -0.69957,0.12868 -1.06345,0.21077c0,0 -1.22024,0.27116 -1.4914,-0.94907c-0.27116,-1.22024 0.94908,-1.49139 0.94908,-1.49139c0.48759,-0.10688 0.96124,-0.19566 1.42421,-0.26642c0.13735,-4.47333 5.13196,-8.02099 9.06502,-7.08311c0.59714,-0.32677 1.19599,-0.60238 1.76576,-0.81881c0.63654,-0.24178 1.25908,-0.75742 1.93305,-0.66042c2.42936,0.34963 3.23337,2.22597 3.31801,4.45922c0.03133,0.04195 0.0623,0.08496 0.09289,0.12906c0.90914,1.31042 0.26518,2.93864 -0.55569,4.18944c-0.0986,0.47577 -0.20422,0.9344 -0.30797,1.36442c0.33043,1.01628 0.38283,2.14778 0.20074,3.19637c-0.5282,1.27855 -1.20395,2.16245 -1.98871,2.83583c-0.74921,1.7055 -1.82227,3.21314 -3.42675,3.61737c-0.80341,0.2024 -1.57317,0.16444 -2.29037,-0.05274c-0.01094,0.28006 -0.02526,0.55997 -0.04232,0.83978c0.35303,0.13469 0.57691,0.40335 0.57691,0.40335c1.01741,1.2444 1.61469,2.78466 2.29521,4.24087c1.39668,2.98872 3.71868,5.52938 5.18258,8.51857c2.12148,4.33196 3.62729,9.14853 5.07524,13.74813c0.55044,1.74855 2.25648,5.96587 2.15207,8.26802zM53.70679,117.23626c0.24823,-0.07496 0.51211,-0.12211 0.78679,-0.14405c0.24842,-0.556 0.59246,-1.08876 1.00432,-1.59102c-0.75173,0.38924 -1.45285,0.99583 -1.99875,1.80797c0.06847,-0.02743 0.1377,-0.05179 0.20764,-0.07291zM63.55679,114.04794c-0.1121,-0.32166 -0.33035,-0.54876 -0.74033,-0.49895c-0.34607,0.04205 -0.75433,0.15086 -1.19364,0.31493c0.09768,0.09601 0.19309,0.19705 0.28606,0.30322c0.54977,-0.10541 1.1069,-0.15974 1.64791,-0.1192z" fill="#000000"></path>
        <path d="M61.49685,124.44602c-1.21268,-0.30317 -0.90951,-1.51584 -0.90951,-1.51584l0.22934,-0.76351c0.00162,-1.47678 0.09474,-2.95613 0.27631,-4.4217c0,0 0.15504,-1.24035 1.39539,-1.08531c1.24035,0.15504 1.08531,1.39539 1.08531,1.39539c-0.17191,1.36241 -0.25863,2.7384 -0.25701,4.11162l-0.30398,1.36984c0,0 -0.30316,1.21268 -1.51584,0.90951z" fill="#ffffff"></path>
        <path d="M56.2,125.01667c-1.25,0 -1.25,-1.25 -1.25,-1.25l0.01701,-0.47217c0.35746,-2.10825 0.26206,-4.21937 0.52598,-6.34954c0,0 0.15504,-1.24034 1.39539,-1.0853c1.24035,0.15504 1.08531,1.39539 1.08531,1.39539c-0.27339,2.16665 -0.18744,4.29827 -0.54069,6.45047l0.01701,0.06116c0,0 0,1.25 -1.25,1.25z" fill="#ffffff"></path>
      </g>
    </g>
  </g>
</svg>
