<?xml version="1.0" encoding="UTF-8"?>
<svg xmlns="http://www.w3.org/2000/svg" xmlns:xlink="http://www.w3.org/1999/xlink" version="1.1" width="109.11065" height="52.62833" viewBox="0,0,109.11065,52.62833">
  <g transform="translate(-267.10001,-45.4841)">
    <g fill="#d6d6d6" stroke="none" stroke-width="0.5" stroke-miterlimit="10">
      <path d="M278.32778,66.15036c0.0785,-0.45304 0.23616,-0.76838 0.23616,-0.76838l1.96186,-3.73651c3.82541,-2.67259 6.91385,-6.16821 11.01941,-8.50777c4.74335,-2.703 11.38197,-5.88744 16.85435,-6.70543c5.14887,-0.76963 10.34799,-0.83227 15.60047,-0.83227c4.01963,0 8.3954,-0.62148 12.2114,1.0137c5.48495,2.35034 8.00309,8.56528 11.95633,12.51852c2.32668,2.32668 5.67903,4.05246 7.99999,6.39999c2.00605,2.02901 2.85743,5.14525 4.80005,7.20001c2.12277,2.2453 5.76301,1.33352 8.26398,2.79229c4.34864,2.53649 6.7418,7.95032 6.86822,12.57549c-0.06343,1.38556 0.39356,2.89854 -0.1903,4.15668c-2.95054,6.35808 -13.80879,6.24705 -19.51014,5.51103c-0.40159,-0.05184 -4.48898,-1.49351 -5.09852,-1.6674c-1.29738,-0.37011 -5.01493,-1.0995 -6.21539,-1.87368c-2.56671,-1.65528 -5.70838,-4.63413 -7.24791,-7.2718c-1.54854,-2.65311 -2.11542,-5.33176 -3.87858,-7.81089c-2.38582,-3.35464 -5.51172,-5.94821 -9.74775,-4.75765c-3.42906,2.36068 -8.50193,5.79408 -12.91544,5.81188c-7.02462,0.02833 -13.03254,-5.49973 -19.69643,-6.43047c-2.52879,-0.35319 -6.26666,-0.33254 -8.7991,0c-2.98479,0.39194 -5.24965,3.31387 -8.40048,3.2323c-2.08733,-0.05404 -3.2619,-0.62579 -4.12591,-1.57403l-0.04181,0.04181l-2.40002,-2.40002c-0.45241,-0.45241 -0.73223,-1.07741 -0.73223,-1.76777c0,-1.38071 1.11929,-2.5 2.5,-2.5l2.8951,0c1.51876,-0.49639 3.34317,-0.31405 4.60833,-1.28481c0.48874,-0.37501 0.87431,-0.8523 1.22434,-1.36481z"></path>
    </g>
  </g>
</svg>
