<?xml version="1.0" encoding="UTF-8"?>
<svg xmlns="http://www.w3.org/2000/svg" xmlns:xlink="http://www.w3.org/1999/xlink" version="1.1" width="307.87483" height="233.2081" viewBox="0,0,307.87483,233.2081">
  <g transform="translate(-78.47468,-56.21436)">
    <g stroke="none" stroke-miterlimit="10">
      <g stroke-width="0.5">
        <path d="M183.70212,181.09973c0,-0.63106 0.23381,-1.2075 0.61954,-1.64743c0.04267,-0.30868 0.08786,-0.61554 0.13552,-0.92043c-0.11233,-0.28428 -0.17404,-0.59408 -0.17404,-0.91829c0,-0.61634 0.22304,-1.18058 0.5928,-1.61643c0.00622,-7.09398 1.99246,-13.29301 4.85584,-19.74363c0.696,-1.56795 1.52969,-4.25532 2.57662,-5.6669c0.59833,-0.80673 4.00107,-3.92381 4.78764,-4.82442c2.16945,-2.48398 4.15418,-5.33363 6.48481,-7.65528c2.95801,-2.94662 6.83359,-5.30916 10.17258,-7.81341c0,0 1.38168,-1.03627 2.70954,-0.23776c4.79281,-2.35035 9.88425,-2.84319 14.96661,-4.23694c7.09966,-1.94697 15.30409,-4.81535 22.611,-1.61783c0.9876,0.43218 1.70257,1.32944 2.61801,1.89873c2.33331,1.45103 5.09122,2.11529 7.46381,3.43337c1.88949,1.0497 3.54594,2.47886 5.39941,3.59094c2.17793,1.62974 5.17419,3.08644 7.17924,4.80348c0.83622,0.7161 1.30162,1.77976 2.02982,2.60546c2.84971,3.23125 6.05536,5.90977 8.37237,9.62011c2.08409,3.33736 3.0174,7.18425 4.76122,10.66189c1.12372,2.24101 2.4225,4.44178 3.08176,6.86051c1.87662,6.88496 1.26102,14.70797 1.23362,21.80498c-1.96465,10.02085 -6.52976,19.22621 -12.66127,27.3616c-0.65438,0.86825 -3.95384,3.87198 -4.78769,4.82445c-0.80896,0.92403 -2.83958,4.01056 -3.60703,4.77801c-2.84089,2.84087 -6.44484,4.11382 -9.74984,6.16912c-0.91544,0.56929 -1.63385,1.4588 -2.61803,1.8987c-1.75799,0.78577 -3.75238,0.98082 -5.47654,1.83828c-5.30866,0.92359 -9.318,1.20999 -14.31296,0.4397l-0.83048,0.25904c-9.0662,-1.61307 -17.87728,-2.46028 -26.2575,-6.65039c-3.88791,-1.96141 -6.40596,-4.40403 -9.36512,-7.44064c-1.49752,-1.53671 -2.31834,-1.41801 -4.13528,-2.51063c-3.03494,-1.82505 -6.70509,-4.26254 -9.22834,-6.78579c-7.78779,-7.7878 -10.07247,-20.37954 -9.14401,-31.36705c-0.1936,-0.35505 -0.30362,-0.76223 -0.30362,-1.19511zM239.07552,231.47315l2.8144,0.04855c0.31507,0.06301 0.62379,0.12166 0.92695,0.17608l1.85937,-0.67736c0,0 2.11821,-0.70606 3.01828,1.21815c2.54657,0.08502 4.99577,-0.16252 8.03868,-0.64288c1.56273,-0.78572 3.38174,-0.94163 4.98195,-1.64791c0.78589,-0.34687 1.3028,-1.13042 2.0302,-1.58741c2.9561,-1.85718 6.29795,-2.90641 8.84298,-5.45141c1.32794,-1.32792 2.12894,-3.10482 3.36526,-4.51845c1.39354,-1.59339 3.24355,-2.77492 4.50877,-4.47201c5.55736,-7.45428 9.86979,-15.78368 11.74182,-24.93073c-0.02974,-6.49818 0.62851,-13.73099 -1.09045,-20.02894c-0.57229,-2.09677 -1.75865,-3.97698 -2.7285,-5.92205c-1.66389,-3.33699 -2.53788,-7.06246 -4.53524,-10.25505c-2.17292,-3.4732 -5.25112,-5.92383 -7.89639,-8.97277c-0.54801,-0.63163 -0.8217,-1.49813 -1.45628,-2.04272c-1.8874,-1.61974 -4.6956,-2.93672 -6.76544,-4.49298c-1.7393,-1.04358 -3.28599,-2.39629 -5.05909,-3.38136c-2.43356,-1.35199 -5.24939,-2.03526 -7.64282,-3.53894c-0.72742,-0.457 -1.24796,-1.23243 -2.03022,-1.58746c-5.98406,-2.71585 -13.46947,0.30734 -19.22288,1.86837c-4.74185,1.28656 -9.6545,1.6281 -14.08128,3.89571c0,0 -1.21514,0.60756 -2.30176,0.03115c-3.03885,2.23822 -6.57853,4.3701 -9.22264,7.02607c-2.25811,2.26823 -4.18107,5.03645 -6.29784,7.4514c-1.3953,1.59184 -3.22629,2.7879 -4.50872,4.47199c-0.51018,0.66996 -1.92377,4.45935 -2.07161,4.79159c-2.70115,6.07047 -4.41523,11.72053 -4.441,18.39607c-2.08491,10.63422 -1.45276,25.14245 6.83329,33.4285c3.04984,3.04983 7.02575,4.91832 10.58607,7.1945c4.04413,2.58549 6.37552,6.39578 10.84322,8.60596c3.48754,1.74376 6.35989,2.22506 10.05277,3.32585c2.77514,0.82722 5.30469,1.94451 8.24938,2.23264c0.6014,0.05884 1.20643,0.09721 1.8113,0.1372c0.46542,-0.14936 0.84749,-0.14936 0.84749,-0.14936z" fill="#c19e4b"></path>
        <path d="M238.22623,231.67248c-0.60487,-0.03999 -1.21165,-0.07845 -1.81306,-0.13729c-2.94469,-0.28813 -5.48245,-1.40669 -8.25758,-2.23391c-3.69288,-1.10079 -6.57504,-1.58557 -10.06258,-3.32934c-4.4677,-2.21018 -6.81054,-6.02801 -10.85466,-8.6135c-3.56032,-2.27618 -7.5443,-4.1537 -10.59413,-7.20353c-8.28606,-8.28605 -8.92704,-22.82606 -6.84213,-33.46028c0.02577,-6.67555 1.74455,-12.34374 4.4457,-18.41422c0.14784,-0.33225 1.56385,-4.12613 2.07403,-4.79609c1.28243,-1.68409 3.11695,-2.88523 4.51225,-4.47707c2.11677,-2.41494 4.04645,-5.19016 6.30456,-7.45839c2.64412,-2.65598 6.19322,-4.79423 9.23207,-7.03245c1.08662,0.5764 2.30359,-0.03206 2.30359,-0.03206c4.42678,-2.26761 9.35341,-2.61336 14.09525,-3.89993c5.7534,-1.56103 13.25747,-4.58345 19.24154,-1.8676c0.78226,0.35503 1.305,1.13102 2.03241,1.58802c2.39343,1.50367 5.21695,2.1898 7.65051,3.54179c1.7731,0.98506 3.32504,2.34064 5.06434,3.38422c2.06985,1.55626 4.88449,2.87803 6.77189,4.49777c0.63458,0.54459 0.91006,1.41272 1.45807,2.04436c2.64527,3.04893 5.73096,5.50873 7.90388,8.98193c1.99736,3.19259 2.87623,6.92803 4.54012,10.26502c0.96985,1.94508 2.15797,3.83139 2.73026,5.92815c1.71897,6.29796 1.06112,13.5502 1.09086,20.04837c-1.87203,9.14705 -6.19582,17.5004 -11.75318,24.95469c-1.26522,1.69708 -3.1195,2.88299 -4.51304,4.47639c-1.23632,1.41362 -2.04134,3.19381 -3.36928,4.52173c-2.54503,2.54501 -5.89526,3.5992 -8.85136,5.45638c-0.7274,0.45699 -1.24643,1.24148 -2.03233,1.58835c-1.60021,0.70628 -3.42379,0.86382 -4.98652,1.64954c-3.04291,0.48036 -5.49941,0.72953 -8.04598,0.64451c-0.90007,-1.92422 -3.021,-1.21783 -3.021,-1.21783l-1.86121,0.67749c-0.30316,-0.05442 -0.61277,-0.11303 -0.92784,-0.17604l-2.81713,-0.04853c0,0 -0.38289,-0.00002 -0.8483,0.14934z" fill="#ffce66"></path>
      </g>
      <path d="M224.80413,205.15833c8.53552,4.3266 21.55932,6.63201 30.20621,1.44343c0.37633,-0.2986 0.75266,-0.59718 1.12899,-0.89578l0.95603,-1.20972c0,0 0.72975,-0.91217 1.70624,-0.48259l0.7394,-1.60339c0.53333,0.17777 1.06667,0.35555 1.6,0.53332c4.28795,1.4293 9.71078,2.71521 13.05937,5.90534c1.61462,1.53822 2.67136,4.65272 0.50741,6.52472c-2.279,1.97153 -8.48696,-0.31472 -11.25937,-1.447c1.93528,3.04538 2.95806,6.82904 -1.58137,8.15221c-2.27777,0.66394 -5.9237,-0.74219 -7.7235,-2.12992c-0.54722,-0.42194 -1.59604,-1.58052 -2.17015,-2.3401c-0.08208,0.36661 -0.20676,0.72034 -0.25097,0.98601c-1.12718,3.28232 -4.49558,7.17947 -8.4333,4.61166c-0.32739,-0.21349 -1.72579,-2.60773 -2.04205,-3.13482c-0.14939,-0.24898 -0.34311,-0.73737 -0.47155,-1.17027c-0.34535,0.43868 -1.04491,0.8937 -1.47046,1.15144c-2.02007,1.22348 -6.01109,2.89684 -8.04544,0.48819c-0.59275,-0.70181 -0.77355,-1.52322 -0.71601,-2.37669c-3.12194,1.8493 -6.54263,3.37565 -10.11216,2.01581c-1.9972,-0.76085 -2.83584,-2.27305 -2.76271,-3.85322c-2.25677,0.70361 -4.59134,1.0572 -6.84234,0.45363c-2.40134,-0.64389 -3.87193,-1.25627 -2.66505,-4.353c0.11268,-0.28912 2.79239,-1.94754 3.28909,-2.19652c3.40807,-1.70833 6.98924,-3.26109 10.55619,-4.60227c0,0 0.4524,-0.16965 0.93996,-0.05963c0.70251,-0.98835 1.85753,-0.41085 1.85753,-0.41085z" fill="#292f33" stroke-width="0.5"></path>
      <path d="M288.44987,167.67566l-0.0796,-0.04366l-0.45169,0.60226c-0.45492,0.62045 -1.18915,1.02329 -2.01746,1.02329c-1.38071,0 -2.5,-1.11929 -2.5,-2.5c0,-0.41989 0.10352,-0.8156 0.28642,-1.16301l0.15651,-0.31302l-0.29175,-0.29175l0.87522,-0.87521l0.39956,-0.79913c0,0 0.88069,-1.76139 2.64208,-1.37594c0.05782,-0.004 0.11618,-0.00603 0.17501,-0.00603c1.38071,0 2.5,1.11929 2.5,2.5c0,0.57191 -0.19204,1.09896 -0.51515,1.52019l-0.04577,0.06103c-0.1984,1.03768 -1.13337,1.66098 -1.13337,1.66098z" fill="#363636" stroke-width="0.5"></path>
      <path d="M227.21744,171.48431c0.99037,0 1.84623,0.44609 2.251,1.09304c0.83518,0.31354 1.41108,0.97654 1.41108,1.74372c0,0.83091 -0.67553,1.53959 -1.62436,1.81448l2.20538,-0.01415c-0.078,4.52451 -2.73528,11.08316 -10.05336,10.93828c-1.51816,-0.03006 -3.2037,-0.14594 -4.42262,-0.84765c-4.68436,-2.69669 -1.26378,-7.88625 -0.99591,-11.33038c-0.46235,0.04653 -2.41181,0.13974 -2.84318,-1.53102c-0.4903,-1.89898 1.96115,-2.27879 1.96115,-2.27879c2.95273,-0.41052 5.20957,-0.19424 7.64949,0.41115c1.07537,-0.02511 2.23938,-0.33254 3.19106,0.03627c0.09834,0.03811 0.19524,0.07794 0.29079,0.11934c0.3008,-0.09932 0.63186,-0.15428 0.97949,-0.15428z" fill="#714c19" stroke-width="0.5"></path>
      <path d="M276.18735,175.00986c0,1.89053 -0.02015,4.53551 -1.3676,6.28908c-2.4368,3.17125 -10.43798,4.9804 -14.27471,1.66116c-0.75714,-0.65503 -0.6381,-1.57025 -0.9175,-2.36122c-0.71218,-2.01617 -0.63647,-3.88978 -0.62996,-5.93203c-0.22757,0.08734 -0.44398,0.18493 -0.64778,0.29399c0,0 -1.99999,0.94505 -3.5,-0.315c-1.50001,-1.26006 0.49998,-2.20511 0.49998,-2.20511c1.01117,-0.44413 1.84784,-1.12005 3.03351,-1.33239c3.3212,-0.59478 7.88839,-0.04887 11.41909,-0.42546l2.94464,0.42545c0,0 1.07991,0.22679 1.53943,0.83341c0.66681,0.22238 1.15477,0.62926 1.29259,1.1127l0.57193,1.80172l-0.08844,0.01115z" fill="#714c19" stroke-width="0.5"></path>
      <path d="M286.55438,183.15764c-0.45966,1.13919 -0.91932,2.27839 -1.37898,3.41758c-0.93489,1.24395 -2.0569,2.41452 -3.32121,3.48711c-1.88509,2.55194 -3.47775,5.27071 -6.41332,6.79897c-7.03724,3.66359 -19.37078,4.3646 -25.15868,-2.35568c-2.38535,-2.76961 -3.88979,-8.08566 -4.59923,-11.57003c-0.61112,-3.0015 -0.52216,-5.28887 -2.4537,-7.70572c0,0 -0.05437,-0.07249 -0.1286,-0.20023c-0.43012,-0.07099 -1.12788,-0.27385 -1.60329,-0.85361l0.00004,-0.00002c-1.07761,-0.33207 -2.3558,-0.42533 -2.74744,0.67191c-0.16577,0.46442 -0.20791,0.94555 -0.18603,1.43592c0.63437,0.79118 0.48604,1.73489 0.33025,2.2497c0.0646,0.40692 0.11229,0.81253 0.1112,1.21283c-1.22886,7.47257 -3.10874,13.33875 -9.89255,17.60813c-6.36984,4.00885 -12.60552,3.88559 -19.74827,2.66161c-2.45814,-0.42123 -4.19753,-0.65499 -6.2689,-2.17911c-2.92736,-2.15397 -4.78058,-4.98818 -5.9157,-8.20397v-2.10377c-0.00497,-0.68931 0.08787,-1.48364 0.21366,-2.33582c-1.14645,-0.68045 -1.14645,-2.16713 -1.14645,-2.16713l0.04855,-1.65234c0.4012,-2.00601 0.34882,-4.65262 1.55992,-6.41067c-0.35414,0.18346 -0.72214,0.34383 -1.08511,0.50674c-0.16369,0.07347 -0.33035,0.14032 -0.49865,0.20347l-0.98618,0.98618l-0.05273,-0.05273c-0.08117,0.10651 -0.16549,0.21094 -0.25326,0.31307c-0.90744,1.05584 -2.4773,1.26841 -3.72201,1.8949l-2.80958,1.68574c-0.38339,0.2392 -0.83629,0.37741 -1.32147,0.37741c-1.38071,0 -2.5,-1.11929 -2.5,-2.5c0,-0.81467 0.38967,-1.53833 0.9928,-1.99475l0.00218,-0.00437c-0.38192,-0.0104 -0.76329,-0.02436 -1.14273,-0.03668c0.05763,-0.40763 0.11525,-0.81525 0.17288,-1.22287l-0.00001,-0.00001c0,0 0.10749,-0.7524 0.6188,-1.36822c0.00162,-0.0071 0.00328,-0.01419 0.00496,-0.02127c-0.04438,-0.18645 -0.06787,-0.38099 -0.06787,-0.58103c0,-0.99801 0.58479,-1.85943 1.43041,-2.26029l2.27567,-1.13783l0.0201,0.0402c0.04649,-0.03853 0.09356,-0.07649 0.14122,-0.11383c0.02301,-0.01802 3.20725,-1.07675 5.35853,-1.79085c-0.92159,-0.87014 -1.74806,-1.90901 -2.12536,-3.10101c-1.90642,-6.023 2.96973,-8.8803 7.72898,-10.16485c-2.82343,-3.31749 -0.14586,-11.95581 4.87671,-12.87051c1.17996,-0.21489 2.21303,0.93649 3.35996,1.28727c1.06987,0.32721 2.31019,0.17246 3.27345,0.74152c1.2663,0.74809 2.25926,1.91365 3.17252,3.06652c0.52707,0.66536 0.9808,1.42287 1.24671,2.23185c1.73064,-1.80394 4.41892,-2.91194 6.9345,-2.66694c5.43447,0.52928 6.26422,5.70746 9.11012,8.97426c1.84118,2.11348 4.12817,3.04895 6.35242,4.7065l2.12499,1.0625c0.24983,0.11843 0.4769,0.27707 0.67284,0.46755c1.34944,-0.1723 2.71032,-0.26326 4.06786,-0.2685l1.29257,0.28922c1.14355,-0.91456 2.31245,-2.22837 3.26686,-3.64066l0.75781,-1.51561l0.0965,0.04825c0.05622,-0.16977 0.12091,-0.3372 0.1954,-0.50192c0.12899,-0.28524 0.28485,-0.55034 0.4624,-0.79926c0.10588,-0.25863 0.19942,-0.51408 0.27917,-0.76452c0.71477,-2.24459 0.26641,-4.7449 2.59024,-6.40464c2.27586,-1.62548 7.4347,-1.45624 9.40788,0.60001c0.67727,0.70578 -0.69638,1.898 -0.60365,2.87177c0.02969,0.31173 0.58835,-0.23659 0.8364,-0.4277c0.54395,-0.41908 0.96085,-0.99226 1.5214,-1.38886c0.92189,-0.65227 1.9634,-1.11978 2.90513,-1.74307c2.52185,-1.66911 3.77491,-4.34059 6.01848,-6.08444c1.3359,-1.03835 2.79196,-2.8091 4.44544,-2.45019c5.38417,1.16872 3.65508,5.40137 3.20484,8.41649c-0.38734,0.96837 -0.64824,1.99748 -1.16203,2.90511c-0.19727,0.34848 -1.17616,0.46496 -0.91989,0.77266c0.26816,0.32197 0.77582,-0.31707 1.15997,-0.48439c0.71913,-0.31322 1.43983,-0.62343 2.14968,-0.95714c3.55292,-1.6703 8.5046,-3.96212 10.91285,1.38836c0.63504,1.41088 -0.14791,3.11514 -0.55174,4.60872c-0.36007,1.33172 -0.93566,2.43752 -1.67099,3.36239c0.68572,0.84946 1.49827,1.64377 1.7444,2.68437c0.28713,1.21397 -0.35914,2.46895 -0.53125,3.70448c-0.1984,1.42423 0.39666,3.21957 -0.58029,4.27473c-1.08966,1.1769 -3.03982,1.07119 -4.62059,1.34254c-0.27621,0.04741 -0.91659,-0.62986 -0.72551,-0.42484c2.1711,2.32944 1.27196,4.80228 0.66075,7.8341c-0.2998,1.48714 -0.68353,2.84031 -1.17937,4.10358zM249.43832,172.15684c0.52742,3.16642 1.2421,5.37286 2.22281,8.31505c0.79356,2.38072 1.02432,4.77428 2.56855,6.90292c3.01652,4.1581 8.62617,4.57694 13.16929,3.65853c4.06894,-0.82256 7.40891,-1.55261 10.31366,-3.74182c0.16012,-0.22724 0.32271,-0.45241 0.48959,-0.67397c1.64091,-1.61332 2.79895,-3.31708 3.61902,-5.18861l0.46634,-2.37907c0,0 0.15234,-0.7617 0.71177,-1.35102c0.17024,-0.7923 0.30567,-1.61502 0.41394,-2.47225c0.24508,-1.94038 -1.83115,-3.98215 -1.04596,-5.77342c0.64101,-1.46236 2.44505,-2.14407 3.92272,-2.74896c0.72761,-0.29785 1.72725,0.65818 2.35171,0.1805c0.4346,-0.33244 -0.58787,-0.98841 -0.58029,-1.53553c0.00953,-0.68708 0.67838,-1.30473 0.64673,-1.97222c-0.57925,-0.12909 -0.97424,-0.42192 -1.24357,-0.76124c-1.43,0.61609 -2.98474,1.04292 -4.54043,1.38036c-0.41922,0.71511 -1.13434,1.07266 -1.13434,1.07266l-1.86909,0.81092c-9.86985,1.62186 -19.81688,1.76692 -29.83208,1.7765c0.00362,0.05549 0.00505,0.11042 0.00454,0.16467l0.46651,0.65448c0,0 0.53221,2.1287 -1.39485,2.89615c0.21309,0.42344 0.27341,0.78538 0.27341,0.78538zM205.63141,170.1997c-0.53162,1.05382 -1.39138,1.93745 -2.05049,2.91732c-0.02148,0.74048 -0.41417,1.51791 -0.76998,2.29406c0.0624,0.48731 0.21068,0.98708 0.1671,1.47029c-0.08141,0.90266 -0.56235,1.75249 -0.56885,2.65879c-0.06174,8.60958 7.41327,12.43059 14.89048,12.60702c2.37532,0.05605 2.23322,-0.94778 4.49645,-1.62088c1.05883,-0.3149 2.24415,-0.10693 3.27577,-0.50198c1.51432,-0.5799 2.55718,-1.99538 3.86395,-2.95549c2.16382,-2.94513 3.85049,-4.96614 4.54552,-8.59997l0.53083,-1.1929c0.00003,-1.86532 0.03874,-4.2507 0.2656,-4.66404c0.2127,-0.38756 0.44396,-0.73731 0.69133,-1.05181c-0.23724,-0.3823 -0.37422,-0.83333 -0.37422,-1.31635c0,-0.48517 0.13821,-0.93807 0.3774,-1.32146l0.92161,-1.53605l0.40099,-1.0025c-1.04761,0.32184 -2.12679,0.51778 -3.43097,0.61553c-1.14005,2.04377 -3.27836,0.97462 -3.27836,0.97462c-2.54052,-1.37695 -4.68116,-0.89474 -7.59736,-0.89813c-5.45848,-0.00633 -10.74923,1.04631 -16.08799,2.10644c-0.05122,0.58236 -0.26879,1.01751 -0.26879,1.01751z" fill="#292f33" stroke-width="0.5"></path>
      <g stroke-width="0.5">
        <path d="M258.56775,197.0822c2.45685,2.64828 2.60301,8.05943 0.21899,10.88524c-1.3587,1.61049 -4.93979,3.69138 -7.57362,2.74033c-0.39287,0.5065 -0.81041,0.95238 -1.24144,1.28635c-4.92727,3.81763 -11.78104,0.95413 -16.3801,-2.32528c-0.57304,0.23643 -1.1546,0.43054 -1.76705,0.47102c-4.5935,0.30361 -7.93946,-3.14573 -7.92395,-7.74422c0.012,-3.55567 2.88648,-5.91515 5.33766,-7.89785c0,0 1.13062,-0.9045 2.35934,-0.47638c0.4622,-1.04073 0.91702,-2.03182 1.2927,-2.92816c1.68673,-4.02444 2.55829,-8.49157 3.93798,-12.63386l0.35104,-0.2165c-0.0793,-0.34243 -0.07931,-0.59294 -0.07931,-0.59294c0.07868,-1.28679 -0.41526,-2.74779 0.23602,-3.86038c1.94734,-3.32662 5.60019,-4.75822 9.06582,-2.459c1.07279,0.71173 1.04658,2.35252 1.56986,3.52879l0.45365,1.78427c0,0 0.13174,0.52697 0.02677,1.15105c0.35596,0.5644 0.42856,1.1452 0.42856,1.1452c0.62311,5.15595 3.26831,10.4883 4.75015,15.81301c1.65735,0.53734 3.99693,1.31608 4.93692,2.32932zM238.296,204.12715c-0.10894,-0.06572 -0.21526,-0.1347 -0.31851,-0.20674c0.02805,0.06582 0.05209,0.13146 0.07245,0.19678c0.08336,0.06659 0.17158,0.13388 0.2657,0.20247c-0.00214,-0.01693 -0.00416,-0.03384 -0.00606,-0.05072c-0.00531,-0.04731 -0.00984,-0.09458 -0.01359,-0.14178z" fill="#ff924c"></path>
        <path d="M230.83994,194.34389c0.03932,-0.06291 0.07932,-0.12535 0.12001,-0.18731c0,0 0.0028,-0.0042 0.00832,-0.0119c0.13834,-0.21939 0.36888,-0.4609 0.73398,-0.53395c0.16027,-0.04509 0.34295,-0.05658 0.54447,-0.00601c0.18288,0.02665 0.37459,0.09948 0.54911,0.25318c0.15064,0.10986 0.25294,0.24178 0.32143,0.3788c0.1053,0.17552 0.14557,0.35521 0.14898,0.52295c0.03027,0.24793 -0.02508,0.4577 -0.11621,0.62933c-0.33275,1.38722 0.08607,2.3101 0.09998,3.86098l0.03388,-0.48389c0,0 0.88388,0.88388 0,1.76776c-0.88388,0.88388 -1.76777,0 -1.76777,0l-0.50615,-0.84823c-0.47735,-0.0728 -0.86591,-0.41562 -1.00495,-0.86772l-0.39088,-1.17265l0.18857,-0.06286l-0.25271,-0.33243c0.13664,-0.45346 0.29669,-0.90277 0.48212,-1.34134c-0.05479,-0.22383 -0.08213,-0.45049 -0.08213,-0.65866z" fill="#863528"></path>
        <path d="M256.38579,198.84527l-1.10195,1.28857c0,0 -0.48703,0.48704 -1.09958,0.37652c-0.1678,0.0176 -0.36015,-0.00141 -0.57958,-0.07455c-1.18586,-0.39528 -0.79058,-1.58113 -0.79058,-1.58113l0.33585,-0.80472c-0.24883,-0.6481 -0.34351,-1.34872 -0.37951,-2.04951c-0.03964,-0.14622 -0.05066,-0.31467 -0.01717,-0.50759c-0.00153,-0.08116 -0.00259,-0.16216 -0.00332,-0.24291c0,0 0,-1.25 1.25,-1.25c0.76483,0 1.06169,0.46797 1.17691,0.83125c1.61821,0.87403 1.82082,1.91106 1.20892,4.01406z" fill="#863528"></path>
      </g>
      <path d="M78.47468,56.21436z" fill="#ff9500" stroke-width="0"></path>
      <g stroke-width="0.5">
        <g>
          <path d="M260.7098,256.92828c-0.95476,0.14233 -1.44011,1.09846 -1.44011,1.09846l-0.81377,1.61468c-2.39458,5.77876 -5.8934,10.24809 -9.40406,15.37792c-4.31987,3.11178 -8.50423,6.38589 -13.41149,8.56823c-4.72584,2.10164 -9.78071,1.40155 -14.71667,1.21783c-5.17551,-0.19265 -9.8835,-0.6782 -14.73404,-2.68816c-4.34681,-1.77059 -5.95748,-4.4125 -8.36383,-8.03088c-1.14072,-1.71527 -3.55115,-2.40122 -4.52898,-4.21428c-0.70354,-1.30447 -0.6783,-5.74898 -0.70634,-7.21826c-0.08608,-4.50833 1.54998,-8.86682 3.00353,-13.14273c1.79667,-5.28525 3.05292,-10.09929 7.12001,-14.11812c1.39319,-2.08103 3.09147,-2.69015 5.09161,-4.1717c10.44712,-7.73839 22.19769,-5.19505 34.0003,-3.37631c0,0 0.85323,0.12616 1.51076,-0.34996c0.29598,-0.0215 0.50234,-0.08844 0.50234,-0.08844c6.15384,-2.13944 10.55114,-8.84452 15.65309,-12.82219c4.90061,-3.82069 13.65817,-1.44276 18.80812,0.56002c3.55128,3.68763 7.1379,6.06536 7.19124,11.68341c0.0367,3.86638 -3.94927,6.18277 -2.48224,10.81174c0.35389,1.11666 2.24968,4.25963 3.23021,5.05773c2.31494,1.8842 10.37671,3.31913 5.12143,6.9483c-4.49986,1.43276 -9.22207,-0.19691 -13.82347,-0.30597c-6.89784,-0.1635 -12.08153,3.15383 -16.80763,7.58871z" fill="#781616"></path>
          <g>
            <g>
              <path d="M281.79017,219.37218c-0.0525,0.07487 -0.10605,0.1438 -0.16043,0.20717c-2.65817,5.33664 -8.13557,8.92786 -14.20576,9.46462c-3.52525,0.31172 -7.32846,-0.67283 -10.74941,0.32029c-8.2276,3.90338 -11.02023,12.86356 -18.54211,17.68661c-6.70668,4.30035 -12.90883,2.65178 -20.21927,3.7096c-10.47521,2.32544 -6.93975,14.06406 -11.03932,20.93573c-2.72257,4.56356 -7.47252,7.3018 -12.46798,4.9304c0,0 -1.3544,-0.68733 -1.07249,-2.04415c-0.095,-0.36296 -0.08097,-0.65399 -0.08097,-0.65399c0.21926,-2.76187 -1.32817,-5.22109 -1.31223,-8.13435c0.0582,-10.63725 2.46657,-22.43584 9.35634,-30.84679c3.54234,-3.38586 6.44838,-6.99844 11.34715,-8.48649c10.47481,-3.18181 21.40333,2.86028 31.50595,0.02815l0.75686,-0.32668c0.23022,-0.21574 0.43506,-0.32649 0.43506,-0.32649c8.73127,-4.6921 14.3393,-16.85411 25.83293,-14.49882c3.47214,0.71152 6.74889,3.12694 9.68002,4.98956l0.45647,0.3176c0,0 0.49765,0.34895 0.74409,0.9353l0.37707,0.0897c-0.07707,0.22274 -0.15882,0.44307 -0.24508,0.66091c-0.01927,0.31538 -0.13287,0.66551 -0.39692,1.04209zM270.40887,215.17849c-9.4825,-1.84139 -15.82594,10.09275 -23.2044,14.10303c0,0 -0.00207,0.00112 -0.0061,0.00321c-0.32016,0.29824 -0.65095,0.4352 -0.65095,0.4352l-1.35162,0.54383c-10.21254,2.80221 -21.03277,-3.13453 -31.42337,-0.05201c-4.1593,1.23391 -6.60639,4.54522 -9.60611,7.40159c-6.25323,7.56381 -8.24605,18.65094 -8.30913,28.19586c-0.01857,2.81 1.21142,4.99077 1.30564,7.719c3.08936,0.76293 6.29976,-2.66483 7.12872,-5.59645c0.77959,-2.75703 0.58577,-5.80855 1.27097,-8.59659c1.47114,-5.98597 5.59852,-10.93416 11.61814,-12.42256c6.73287,-0.97283 12.72703,0.77423 18.82041,-3.14807c7.78911,-5.01384 10.55099,-13.97172 19.31106,-18.07267c7.78241,-2.09383 17.8495,1.17116 22.32524,-6.79079c-2.21503,-1.47987 -4.71739,-3.23494 -7.2285,-3.72256z" fill="#783232"></path>
              <path d="M277.69286,218.86663c-4.47574,7.96197 -14.64476,4.77724 -22.42718,6.87107c-8.76006,4.10095 -11.47148,13.07813 -19.26061,18.09197c-6.09338,3.92229 -12.02669,2.10247 -18.75956,3.07529c-6.01964,1.4884 -10.15299,6.41595 -11.62414,12.40193c-0.6852,2.78805 -0.49754,5.82925 -1.27713,8.5863c-0.82896,2.93163 -4.14451,6.4368 -7.23386,5.67387c-0.09422,-2.72823 -1.32958,-4.91752 -1.311,-7.72752c0.06309,-9.54494 2.04996,-20.67656 8.30321,-28.24038c2.99972,-2.85636 5.45579,-6.18908 9.61511,-7.423c10.39059,-3.08251 21.30049,2.83463 31.51303,0.03243l1.35415,-0.54213c0,0 0.33158,-0.1364 0.65174,-0.43463c0.00403,-0.00209 0.0061,-0.00319 0.0061,-0.00319c7.37846,-4.01028 13.73315,-15.93407 23.21566,-14.09268c2.51111,0.48764 5.01943,2.25083 7.23446,3.73068z" fill="#a14343"></path>
            </g>
            <path d="M268.73402,216.6202c1.16574,1.57379 -0.40806,2.73952 -0.40806,2.73952l0.1501,-0.20496c-1.86756,2.42152 -4.28356,5.53174 -7.5045,6.13362c-2.22492,0.41577 -3.77759,-0.41862 -5.89704,0.73561c-4.01366,2.18577 -5.71714,6.82275 -10.05597,8.90144c-2.81949,1.35078 -5.84772,0.67203 -8.58523,1.92886c0,0 -0.26532,0.11556 -0.63641,0.15583c-0.06414,0.05783 -0.10534,0.08835 -0.10534,0.08835l-1.75066,1.29302c-2.9331,1.66564 -4.89801,2.52266 -8.24299,1.35123c-3.55776,-1.24596 -7.73192,-6.69661 -11.36026,-2.45433c-1.41622,4.22048 -3.01415,6.6641 -6.12379,9.8373c-2.04639,2.08821 -4.78941,3.28932 -5.64969,6.28955c-1.60706,5.60457 2.23496,11.11254 -0.87795,16.24102c-1.16368,1.91715 -2.13727,2.25562 -3.973,3.47388c0,0 -1.63954,1.07129 -2.71083,-0.56824c-1.07129,-1.63954 0.56824,-2.71083 0.56824,-2.71083c4.8156,-3.08574 2.90215,-5.13625 2.3597,-9.88422c-0.23864,-2.08887 0.24522,-5.59661 0.87044,-7.63781c1.514,-4.94287 6.50929,-7.39221 9.7369,-11.13216c1.34398,-1.55732 1.73574,-4.04822 2.44148,-5.92424c0.72031,-0.77658 1.26117,-1.77084 2.16093,-2.32972c7.51302,-4.66676 11.93864,6.21498 18.64702,2.1769l1.57303,-1.16889c0,0 0.45321,-0.3357 1.05337,-0.40359c0.24541,-0.19257 0.45582,-0.28421 0.45582,-0.28421c2.75606,-1.15557 5.79793,-0.55411 8.45507,-1.86932c4.17433,-2.06619 5.84959,-6.64295 9.90376,-8.8243c2.50823,-1.34956 4.44855,-0.8382 7.05464,-1.13704c2.00005,-0.22935 4.00191,-3.24448 5.08682,-4.66361l0.62491,-0.55666c0,0 1.57379,-1.16574 2.73952,0.40806z" fill="#b17878"></path>
          </g>
          <g>
            <path d="M245.57078,247.04192c0.23747,0.27791 0.3499,0.53604 0.3499,0.53604c1.66498,3.83748 5.19937,11.11036 8.90647,13.30552c0.71076,0.42087 2.83106,-2.42687 3.10101,-2.71635c3.4945,-3.74749 7.57867,-7.58515 11.44481,-10.89735c3.1375,-2.99541 5.9922,-6.02347 8.8478,-9.26764c0.80686,-0.91666 1.90628,-1.61676 2.48453,-2.69238c0.25668,-0.47748 0.85828,-1.59456 0.31618,-1.59526c-1.03929,-0.00138 -1.9633,0.72142 -2.98965,0.88495c-6.59341,1.0505 -13.02112,3.04401 -19.21215,5.60816c-4.42206,1.82518 -9.16493,4.1145 -13.2489,6.83432zM242.16319,248.14126l-0.87884,-2.87185c4.75586,-3.50633 10.58485,-6.41695 16.03688,-8.68089c6.47288,-2.67921 13.19526,-4.75792 20.09141,-5.85688c1.32712,-0.21149 4.69655,-0.97685 5.64481,-0.3635c2.03066,1.31349 1.96861,4.70966 1.2129,6.56438c-0.22634,0.55552 -2.65574,3.14314 -3.10776,3.65585c-2.95807,3.35519 -5.92046,6.49547 -9.16874,9.59241c-3.78956,3.18675 -7.79506,7.00045 -11.19673,10.65319c-1.82169,1.95615 -3.96595,4.65293 -7.16016,3.78128c-0.94007,-0.25654 -1.47098,-1.27844 -2.20669,-1.91742c-3.87532,-3.36578 -7.0536,-8.87104 -9.10079,-13.55591c0,0 -0.19673,-0.45173 -0.16627,-1.00069z" fill="#868686"></path>
            <path d="M258.78661,240.15129c6.19101,-2.56417 12.70358,-4.5411 19.29698,-5.59159c1.02635,-0.16352 1.95227,-0.88369 2.99155,-0.88232c0.54211,0.00072 -0.0576,1.12068 -0.31429,1.59816c-0.57823,1.07562 -1.67584,1.77886 -2.48271,2.69553c-2.85559,3.24415 -5.70284,6.31055 -8.84033,9.30597c-3.86615,3.3122 -8.03907,7.20334 -11.53359,10.95083c-0.26995,0.28949 -2.39714,3.13404 -3.10791,2.71317c-3.7071,-2.19515 -7.27587,-9.52139 -8.94083,-13.35887c0,0 -0.11253,-0.26029 -0.34999,-0.5382c4.08397,-2.71982 8.85903,-5.06752 13.28109,-6.89269z" fill="#a2a2a2"></path>
          </g>
          <path d="M249.03692,248.39121c-0.65714,-3.26832 -4.65148,-7.85292 -6.83145,-10.15512c-0.72283,-0.76336 -1.154,-2.32059 -2.20334,-2.25656c-0.84915,0.05181 -2.36621,0.84558 -3.7106,1.59801c3.49044,3.95797 6.02902,7.96591 7.49846,13.08134l0.10002,0.3053c1.56112,-0.44765 5.35658,-1.53026 5.14693,-2.57295zM231.47464,237.85826c-0.83445,-1.77184 0.9374,-2.6063 0.9374,-2.6063c1.66894,-0.78562 5.71406,-3.32111 7.64606,-3.18906c4.86317,0.3324 8.48652,7.74946 10.65769,11.37178c0.49975,0.83378 2.26971,3.83578 2.23602,4.82832c-0.15547,4.58043 -4.92922,5.31761 -8.313,6.5585l-1.63678,0.3188c0,0 -1.5139,0.26594 -2.09495,-1.01454c-0.19845,-0.28966 -0.2814,-0.5436 -0.2814,-0.5436l-0.60154,-1.84546c-1.31358,-4.60762 -3.62082,-8.16188 -6.80188,-11.71684c0,0 -0.40189,-0.45071 -0.50907,-1.07477c-0.44841,-0.10329 -0.91427,-0.39824 -1.23856,-1.08681z" fill="#343434"></path>
          <path d="M243.90123,251.02846l-0.10042,-0.30522c-1.46943,-5.11544 -4.06623,-9.23267 -7.55667,-13.19065c1.34438,-0.75242 2.88769,-1.56303 3.73683,-1.61484c1.04933,-0.06402 1.4969,1.48988 2.21973,2.25322c2.17997,2.3022 6.23127,6.9911 6.8884,10.25942c0.20965,1.0427 -3.62677,2.15043 -5.18789,2.59808z" fill="#434343"></path>
          <path d="M267.667,241.59857c-1.86166,0.60824 -2.4699,-1.25344 -2.4699,-1.25344l-0.22409,-0.7143c-1.84269,-4.24203 -3.83815,-8.07702 -8.02239,-10.31048c0,0 -1.7219,-0.93316 -0.78873,-2.65507c0.0923,-0.17032 0.19232,-0.31465 0.29762,-0.43649c-0.46102,-1.67655 1.23362,-2.29798 1.23362,-2.29798c1.57185,-0.5762 3.15252,-1.12934 4.74379,-1.64947l0.444,-0.14507c0,0 1.28863,-0.42103 2.07195,0.5096c4.18172,1.47108 7.96324,4.88277 9.67397,8.99115c1.12051,2.69093 1.45819,6.1992 -1.07264,8.29751c-0.83335,0.69095 -2.00792,0.80984 -3.01188,1.21477l-1.05055,0.43676c0,0 -0.89299,0.36973 -1.68407,-0.03759c-0.04527,0.01751 -0.09216,0.03425 -0.14073,0.05012zM269.19374,237.47173c6.58849,-2.03433 -2.16368,-10.04749 -6.05456,-11.29783c-0.83289,0.27624 -1.66279,0.56165 -2.48998,0.85465c3.73466,2.67764 5.88695,6.44111 7.7904,10.7543z" fill="#343434"></path>
          <path d="M268.46525,237.8429c-1.90346,-4.31316 -4.12906,-8.18128 -7.86372,-10.85892c0.82719,-0.293 1.67625,-0.59256 2.50914,-0.86881c3.89088,1.25034 12.70472,9.37848 6.11623,11.4128z" fill="#434343"></path>
          <g>
            <path d="M240.69606,270.74347c-0.32609,0.84009 -1.20658,0.55511 -1.20658,0.55511c-4.90343,-1.68809 -3.45347,-8.33015 1.44278,-9.10168c2.18244,-0.34391 4.53705,1.85842 4.25833,4.08734c-0.31445,2.51477 -2.33523,3.93297 -4.49453,4.45924zM238.62205,268.36059c0.14946,0.02684 0.2505,0.07271 0.2505,0.07271l1.12431,0.55181c1.77042,-0.26822 5.00335,-3.67175 1.99296,-4.71091c-2.17286,-0.75005 -4.36082,2.27731 -3.36775,4.0864z" fill="#868686"></path>
            <path d="M242.02007,264.21636c3.0104,1.03916 -0.27311,4.56258 -2.04352,4.8308l-1.15087,-0.56839c0,0 -0.10455,-0.0498 -0.25402,-0.07665c-0.99306,-1.80909 1.27555,-4.93581 3.44842,-4.18576z" fill="#a2a2a2"></path>
          </g>
          <g>
            <path d="M219.07105,274.05862c-0.02758,0.01792 -0.04435,0.02699 -0.04435,0.02699c-5.22443,2.2921 -4.88206,-6.33819 -0.7393,-7.89522c2.93141,-1.10176 6.03783,0.50571 5.51544,4.01277c-0.33169,2.22683 -2.01561,3.08177 -3.80191,3.96355zM217.69105,272.61063c0.26369,-0.67801 1.04499,-0.56163 1.04499,-0.56163l0.92608,0.18874c0.9671,-0.61161 2.00868,-1.01448 2.20361,-2.32312c0.32666,-2.19301 -2.26669,-2.99036 -3.72935,-1.59415c-0.7971,0.76089 -1.51096,4.59476 -0.44532,4.29014z" fill="#868686"></path>
            <path d="M218.09747,268.26808c1.46266,-1.39622 4.15956,-0.55563 3.8329,1.63738c-0.19492,1.30862 -1.29789,1.78586 -2.265,2.39748l-0.95648,-0.19458c0,0 -0.79462,-0.12452 -1.05831,0.55349c-1.06565,0.30463 -0.35021,-3.6329 0.44689,-4.39379z" fill="#a2a2a2"></path>
          </g>
          <g>
            <path d="M229.0105,278.55609c-4.86237,-0.45888 -1.84463,-9.46026 3.88783,-7.28897c4.96684,1.88128 1.25029,8.93332 -3.44968,7.54204zM228.81145,276.35926c0.30828,-0.00331 0.5592,0.14317 0.5592,0.14317l0.87783,0.51898c1.64562,0.62326 4.2973,-2.16449 2.8119,-3.55817c-3.19064,-2.99365 -4.41089,1.70995 -4.24894,2.89601z" fill="#868686"></path>
            <path d="M233.11286,273.42444c1.48541,1.39368 -1.24494,4.28003 -2.89056,3.6568l-0.89998,-0.53489c0,0 -0.25768,-0.15531 -0.56596,-0.15201c-0.16195,-1.18605 1.16587,-5.96354 4.35651,-2.96989z" fill="#a2a2a2"></path>
          </g>
          <g>
            <path d="M230.1609,267.27264c-0.2528,0.2557 -0.61234,0.30287 -0.61234,0.30287c-6.37013,0.6066 -3.97968,-7.56048 0.8897,-7.90817c5.19001,-0.37058 4.68285,6.3877 0.77964,7.746zM228.84498,265.69507c0.30367,-0.54357 0.98867,-0.44154 0.98867,-0.44154l1.22001,0.20821c1.87649,-0.51987 1.78203,-4.17275 -0.45115,-3.84278c-2.11213,0.31207 -4.59977,4.29252 -1.7575,4.07612z" fill="#868686"></path>
            <path d="M230.61945,261.5559c2.23318,-0.32997 2.34312,3.44261 0.46663,3.96249l-1.26117,-0.20017c0,0 -0.70982,-0.11074 -1.01351,0.43283c-2.84227,0.2164 -0.30408,-3.88308 1.80805,-4.19515z" fill="#a2a2a2"></path>
          </g>
          <path d="M286.67265,236.51332c1.70987,4.98544 8.45564,4.12864 10.27585,8.88852c1.23004,3.21659 -1.7862,6.12609 -3.87572,7.72294c-6.56814,2.18043 -12.95823,-0.90951 -19.55533,0.50613c-4.63456,0.99449 -7.57739,3.5479 -10.80442,6.71214c-0.07398,0.2931 -0.30593,0.96831 -0.92705,1.31783c-2.56823,5.96733 -6.15381,10.73092 -9.9418,16.02805c-4.62312,3.49657 -9.26893,7.13262 -14.6433,9.43408c-9.27673,3.97256 -23.35778,2.34207 -32.462,-1.43051c-5.01205,-2.10596 -7.37784,-5.188 -10.1529,-9.5227c-1.18094,-1.84465 -3.68537,-2.63682 -4.72828,-4.56289c-0.93793,-1.73218 -1.09049,-6.99383 -1.12067,-8.90249c-0.07921,-5.01024 1.6053,-9.72483 3.21548,-14.46038c1.94579,-5.72255 3.4168,-10.99638 7.83126,-15.35846c1.67676,-2.3067 3.50393,-3.12018 5.74898,-4.78312c11.36908,-8.4213 23.72838,-5.97612 36.57751,-4.10709c0.26744,-0.17354 0.49172,-0.24681 0.49172,-0.24681c5.57095,-1.65034 9.77514,-8.87536 14.5112,-12.25247c6.57537,-4.68864 16.50095,-2.49877 23.30631,0.44361c0.04171,0.0413 0.08347,0.08254 0.12523,0.1237c-0.00645,0.59091 0.34615,1.06695 0.34615,1.06695c0.84213,1.11346 1.8683,2.10684 3.00494,2.91741l1.34101,0.68446c1.56978,1.74597 2.87138,3.61132 3.56508,5.86465c-0.06203,0.17596 -0.08075,0.3016 -0.08075,0.3016c-0.28212,1.89409 -0.79509,5.33789 -1.07722,7.23197c0,0 -0.07605,0.5105 0.14448,1.00011c-0.91733,1.72011 -1.78265,3.43858 -1.11581,5.38282zM277.45214,249.33851c4.6014,0.10908 9.32361,1.73863 13.82347,0.30587c5.25527,-3.62918 -2.80585,-5.05369 -5.12078,-6.93788c-0.98053,-0.79809 -2.87451,-3.93252 -3.2284,-5.04918c-1.46702,-4.62899 2.52395,-6.93282 2.48726,-10.79919c-0.05334,-5.61805 -3.62896,-7.98063 -7.18026,-11.66826c-5.14994,-2.00276 -13.88809,-4.36694 -18.78871,-0.54625c-5.10196,3.97765 -9.47238,10.68878 -15.62621,12.82822c0,0 -0.20483,0.06693 -0.50081,0.08843c-0.65753,0.4761 -1.50605,0.34972 -1.50605,0.34972c-11.80261,-1.81872 -23.50024,-4.39838 -33.94737,3.34001c-2.00014,1.48155 -3.69499,2.08224 -5.08818,4.16327c-4.06711,4.01884 -5.32012,8.81158 -7.11678,14.09684c-1.45355,4.27591 -3.09189,8.61827 -3.00581,13.1266c0.02806,1.46927 0.00003,5.90568 0.70356,7.21015c0.97784,1.81308 3.38518,2.49268 4.5259,4.20795c2.40635,3.61839 4.00863,6.24845 8.35544,8.01904c4.85053,2.00996 9.54458,2.4837 14.72009,2.67634c4.93597,0.18373 9.97065,0.87541 14.69649,-1.22624c4.90728,-2.18234 9.06381,-5.45675 13.3837,-8.56853c3.51067,-5.12983 6.97001,-9.5738 9.3646,-15.35257l0.81022,-1.60932c0,0 0.48262,-0.95103 1.43738,-1.09336c4.7261,-4.43488 9.90344,-7.72515 16.80128,-7.56165z" fill="#4e0e0e"></path>
        </g>
        <g>
          <path d="M375.85781,183.9402l-0.41323,-0.4556c-1.59587,1.05883 -3.15781,2.16385 -4.64948,3.35834c2.28982,0.00493 4.72745,-0.24938 5.26533,-2.83005c-0.12316,-0.03236 -0.20263,-0.07269 -0.20263,-0.07269zM384.75742,176.77767l0.04561,0.25611c0.07994,-0.00536 0.16721,-0.00193 0.26244,0.01226c0.84581,0.12598 0.84298,0.88056 0.82869,1.06982l0.3722,0.71243c0,0 0.13617,0.41678 -0.05262,0.78369c0.10348,0.51888 0.17215,0.98948 0.11521,1.13474c-0.36477,0.9303 -4.59599,3.15098 -5.60881,3.29245c-0.86772,0.12121 -2.17489,-0.71842 -3.14707,-1.16412l0.48233,1.08689c-0.81967,5.13165 -5.76915,4.62434 -9.5414,4.82993c0,0 -0.39962,0.0198 -0.70064,-0.22134c-0.30744,0.06494 -0.53882,0.05377 -0.53882,0.05377l-2.09707,-0.10115c-1.89411,-0.09941 -3.63624,-0.48747 -5.48285,-0.67285c-0.64225,0.40396 -1.41576,0.28874 -1.41576,0.28874l-0.02777,-0.04259c-5.91917,0.26909 -12.82429,-4.78431 -10.74317,-11.6708c0.18898,-0.62537 0.62973,-1.31375 1.13431,-1.97511c0.18337,-0.46584 0.49024,-0.76906 0.49024,-0.76906c2.19224,-1.88866 1.36254,-6.11305 1.77406,-8.89707l0.48235,-1.68667c0,0 0.27787,-0.93197 1.09871,-1.28665c-0.03841,-0.95319 -0.39505,-1.88739 -0.14672,-2.81751c0.78134,-2.9265 4.99495,-3.26519 7.15587,-2.08617l0.64493,0.73766c0,0 0.33168,0.44779 0.15684,0.91798c0.90589,-0.4332 1.81729,-0.86285 2.73273,-1.28195c-0.01812,-0.0593 -0.02476,-0.09706 -0.02476,-0.09706l0.00004,-0.00001c-0.1976,-1.13396 -0.63976,-2.85353 -0.05788,-3.96538c1.23451,-2.35885 6.92126,-2.95556 8.23216,-1.00447l0.45303,0.59508c0,0 0.39807,0.5374 0.09217,1.05295c0.34606,-0.1061 0.692,-0.20766 1.0378,-0.3043l0.37008,-0.20541c0,0 1.22987,-0.57921 2.12287,0.25216c1.05157,-0.20779 1.82657,0.7047 1.82657,0.7047c4.21393,5.04671 6.79191,12.30705 7.9229,18.72993l-0.17649,1.86716c0,0 -0.03791,0.25451 -0.1785,0.56528c0.22191,0.56126 0.13889,1.1185 0.13889,1.1185l-0.05477,0.0943c0.00735,0.03103 0.01471,0.06209 0.02206,0.09312zM380.43494,182.10153c2.15899,-0.60117 3.73028,-1.39082 3.58345,-3.1587c-0.13395,-0.10892 -0.26557,-0.22085 -0.39512,-0.33529c-0.10036,-0.02683 -0.18626,-0.06941 -0.25967,-0.12121c-1.51587,0.96348 -3.0541,1.9053 -4.58441,2.86163c0.73022,0.36394 1.57089,0.77721 1.65576,0.75357zM385.8433,177.99545c0.0031,0.01311 0.00649,0.02727 0.01012,0.04239l0.00425,0.00813zM370.06007,153.97499l-0.60207,-0.82936c-0.10864,-0.49837 -3.51729,0.05994 -4.40063,0.4046c-0.74134,0.28928 -0.38861,2.0559 -0.20244,2.91408c1.84813,-0.80759 3.7085,-1.55393 5.5691,-2.18232c-0.22849,-0.12413 -0.36395,-0.307 -0.36395,-0.307zM358.56791,158.81077l-0.05847,-0.21196c-3.18922,-2.07277 -3.7251,0.53691 -3.96724,2.74018c1.47676,-0.70199 2.97829,-1.43671 4.49746,-2.17058c-0.29307,-0.11641 -0.47175,-0.35764 -0.47175,-0.35764zM353.24743,175.05343c-3.64493,4.24841 -0.95827,9.21068 4.43511,9.14337c0.58184,-0.37185 1.26505,-0.33272 1.26505,-0.33272c2.21133,0.13453 4.21821,0.65167 6.41862,0.74655l1.87024,0.09022c4.24976,-3.6039 9.12108,-6.40031 13.81174,-9.38285c-0.16339,-0.51424 -0.09271,-0.98866 -0.09271,-0.98866l0.19284,-0.61237c-0.97316,-5.55433 -3.1524,-12.21511 -6.82668,-16.60927l-0.51165,0.22492c-6.29572,1.72779 -12.77143,5.25306 -18.64581,8.04379c0,0 -0.15929,0.07503 -0.40486,0.13231c-0.40993,2.87068 -0.17755,5.51014 -1.02703,7.93471c0.14098,0.8767 -0.48482,1.61 -0.48482,1.61z" fill="#343434"></path>
          <g>
            <path d="M354.78402,185.34182c0.33645,-0.86685 -0.93229,-1.61622 -1.2795,-2.47882c-0.35223,-0.87507 -2.31218,-5.83766 -3.40958,-5.87459c-0.29578,-0.00996 -1.76401,1.26749 -2.80978,2.18723c0.09423,0.11633 0.1873,0.23282 0.27871,0.34959c-0.16301,-0.05121 -0.3075,-0.12515 -0.4349,-0.21216c-0.41964,0.36939 -0.75035,0.66083 -0.87381,0.75227c0,0 -0.58237,0.43137 -1.30099,0.41504c-5.49964,3.31598 -10.89626,6.7664 -16.46677,10.00744c-13.38941,7.78903 -26.66731,15.72202 -40.02385,23.55135c-0.24982,0.19816 -0.4662,0.29241 -0.4662,0.29241c-0.03337,0.01449 -0.07107,0.03014 -0.11275,0.04687c-0.08997,0.05271 -0.17994,0.10541 -0.26993,0.15811c-0.01007,-0.01457 -0.02029,-0.02887 -0.03067,-0.0429c-1.1832,0.43966 -3.77252,1.29935 -4.1481,1.93413c-0.37966,0.64165 1.3109,3.76486 1.6114,4.32053c2.00143,3.70087 2.89657,5.41542 6.54151,2.6556l0.3731,-0.19659c0.0015,-0.06659 0.00012,-0.14925 -0.00832,-0.24195c13.09702,-8.82758 27.54051,-15.48874 40.24212,-24.91428c6.01913,-3.49832 11.95623,-7.28949 18.08273,-10.61595l1.12264,-0.39281c0.06029,0.13135 0.1211,0.26256 0.18252,0.39355c1.29894,-0.729 3.0489,-1.70364 3.20043,-2.09405zM350.40666,173.08379c3.73379,0.37161 6.71004,7.13645 7.54598,10.19646c0.28668,1.04935 0.90976,2.17706 0.57557,3.21226c-0.62752,1.94384 -4.33713,3.68649 -5.92928,4.86715l-1.66185,1.23095c0,0 -1.1087,0.82123 -2.15425,0.15456c-4.85677,2.77064 -9.62747,5.77899 -14.43327,8.5776c-12.02864,8.89369 -25.60244,15.3354 -38.10699,23.49242c-0.27968,0.72253 -0.99658,1.08886 -0.99658,1.08886l-1.32569,0.64746c-2.17679,1.58525 -4.97577,3.44316 -7.86115,2.03952c-0.87313,-0.42475 -1.27521,-1.46529 -1.88175,-2.22348c-2.10176,-2.62725 -5.96498,-8.14414 -4.20871,-11.76217c0.8037,-1.65565 4.37582,-2.98147 6.19664,-3.75017c13.47778,-7.87804 26.85192,-15.89949 40.35248,-23.75316c6.18949,-3.59999 12.16305,-7.45877 18.3028,-11.10614c0.02871,0.04636 0.05784,0.09257 0.08735,0.13861c1.60449,-1.31662 3.87287,-3.2125 5.49871,-3.05069z" fill="#343434"></path>
            <path d="M351.64393,187.41094c-0.06142,-0.13101 -0.24259,-0.21161 -0.30289,-0.34296l-1.00263,0.34134c-6.1265,3.32646 -12.05972,7.1298 -18.07885,10.62812c-12.70161,9.42554 -27.25956,16.14157 -40.35659,24.96914c0.00843,0.09271 0.11083,0.09264 0.10933,0.15922l-0.47398,0.27948c-3.64496,2.75982 -4.54596,1.03681 -6.54739,-2.66405c-0.30049,-0.55565 -1.99452,-3.68567 -1.61486,-4.32733c0.37559,-0.63478 3.08465,-1.54655 4.26786,-1.9862c0.01036,0.01404 0.02056,0.02825 0.03062,0.04282c0.08998,-0.05271 0.06018,-0.05343 0.15015,-0.10613c0.04167,-0.01673 0.07938,-0.03238 0.11275,-0.04687c0,0 0.21631,-0.09439 0.46613,-0.29255c13.35654,-7.82933 26.73819,-15.83654 40.12761,-23.62556c5.57053,-3.24104 10.97462,-6.68346 16.47426,-9.99943c0.71862,0.01634 1.30156,-0.41431 1.30156,-0.41431c0.12346,-0.09144 0.45409,-0.383 0.87373,-0.75238c0.12739,0.08701 0.16787,0.23989 0.33089,0.2911c-0.09142,-0.11679 -0.18399,-0.23261 -0.27822,-0.34895c1.04578,-0.91973 2.61749,-2.27682 2.91327,-2.26685c1.09739,0.03694 3.06349,5.00911 3.4157,5.88417c0.3472,0.8626 1.61795,1.6162 1.28152,2.48304c-0.15152,0.3904 -1.90102,1.36614 -3.19996,2.09515z" fill="#434343"></path>
          </g>
          <path d="M370.48838,154.27104c-1.86059,0.62839 -3.84017,1.42109 -5.6883,2.22867c-0.18616,-0.85818 -0.54205,-2.6902 0.19929,-2.97948c0.88333,-0.34468 4.40051,-0.91433 4.50915,-0.41596l0.61387,0.85128c0,0 0.1375,0.19135 0.36598,0.31549z" fill="#888888"></path>
          <path d="M359.10256,159.15091c-1.51917,0.73387 -3.13769,1.52265 -4.61445,2.22463c0.24214,-2.20327 0.88531,-4.88736 4.07453,-2.81458l0.06215,0.21776c0,0 0.1847,0.25578 0.47776,0.37218z" fill="#888888"></path>
          <path d="M353.18489,175.07206c0,0 0.62422,-0.73979 0.48324,-1.61649c0.84947,-2.42457 0.62129,-5.10205 1.03122,-7.97272c0.24557,-0.05728 0.40541,-0.13357 0.40541,-0.13357c5.87439,-2.79073 12.43799,-6.34759 18.73371,-8.07538l0.51301,-0.22424c3.67428,4.39416 5.88761,11.12599 6.86077,16.68032l-0.19349,0.61524c0,0 -0.07184,0.47846 0.09156,0.99272c-4.69066,2.98253 -9.6241,5.82431 -13.87385,9.42821l-1.87907,-0.0908c-2.2004,-0.09489 -4.23364,-0.62167 -6.44497,-0.7562c0,0 -0.68613,-0.04111 -1.26797,0.33074c-5.39338,0.06731 -8.10457,-4.92936 -4.45963,-9.17778z" fill="#434343"></path>
          <path d="M363.99672,181.23466c-5.31405,-0.23024 0.07078,-11.05591 4.8498,-6.11541c3.15355,3.26009 -1.18343,8.00565 -4.8498,6.11541zM365.85806,179.79296c1.55171,-0.02894 2.84965,-2.0962 1.5811,-3.31168c-1.79293,-1.71791 -3.63785,0.7632 -3.70306,2.08802c0.38074,0.07766 0.62137,0.4025 0.62137,0.4025l0.18685,0.30137c0.0028,0.00247 0.0056,0.00495 0.0084,0.00742c0.05582,-0.01255 0.11477,-0.02919 0.17693,-0.05009c0,0 0.8379,-0.19852 1.12842,0.56247z" fill="#343434"></path>
          <path d="M375.91545,183.90956c0,0 0.08108,0.04359 0.20424,0.07594c-0.53788,2.58067 -3.09048,2.8964 -5.3803,2.89148c1.49167,-1.19449 3.15854,-2.37644 4.75441,-3.43528l0.42165,0.46787z" fill="#888888"></path>
          <path d="M380.40458,182.15931c-0.08486,0.02364 -0.95524,-0.42187 -1.68546,-0.78582c1.53031,-0.95633 3.17727,-1.96724 4.69313,-2.93071c0.0734,0.05181 0.16328,0.09928 0.26364,0.1261c0.12955,0.11444 0.26709,0.23612 0.40104,0.34504c0.14683,1.76788 -1.51337,2.64421 -3.67237,3.24538z" fill="#888888"></path>
          <path d="M369.52725,153.62956c0.92147,0.33141 0.59005,1.25288 0.59005,1.25288l-0.32571,0.46003c3.76819,2.10952 8.21895,9.08992 2.92964,12.1424c-5.79608,3.05523 -12.25722,5.14637 -18.02656,8.45008c-1.17987,1.20359 -2.55895,2.31578 -3.84466,3.58624c0,0 -0.56792,0.56119 -1.18486,0.15731c-1.69214,1.27189 -3.31817,2.58344 -4.99308,3.86429c0.23853,0.87797 -0.64698,1.16727 -0.64698,1.16727l-0.50388,0.05586c-5.51028,5.28595 -13.90235,8.69981 -20.62183,12.33362c-6.69302,3.59673 -12.71463,8.36439 -19.33721,12.06248c-0.11845,0.50262 -0.66532,0.68128 -0.66532,0.68128l-1.23573,0.398c-0.36253,0.21286 -0.72506,0.42571 -1.08758,0.63856c-6.27091,3.20242 -12.78913,6.10696 -18.93867,9.43172c0,0 -0.00264,0.00142 -0.00774,0.00399c-0.07039,0.07088 -0.15131,0.13071 -0.23969,0.17728l-0.90883,0.49136l-0.01162,-0.02149l-0.03339,0.04434c-0.49412,0.20517 -0.98774,0.40948 -1.48072,0.6137c-0.87708,0.67953 -2.0591,0.93089 -3.30469,1.44662c-2.0056,0.83041 -3.94002,1.79232 -5.89479,2.73617c0.00599,0.04159 0.01113,0.08425 0.0154,0.12797v-0.00001c0.18991,1.94928 -1.75938,2.13918 -1.75938,2.13918l-0.70835,0.06322c-2.97629,0.49701 -5.36421,2.10718 -8.0411,3.41472c-7.07934,3.45796 -14.39015,6.13346 -20.08679,11.77029c0,0 -1.3931,1.37659 -2.7697,-0.01653c-1.3766,-1.39312 0.01653,-2.7697 0.01653,-2.7697c6.0395,-5.96021 13.63337,-8.84535 21.12496,-12.50567c3.03566,-1.48319 5.7101,-3.13642 9.07841,-3.75104l1.00622,-0.10383c0,0 0.2789,-0.02717 0.63599,0.04454c2.02507,-1.01331 4.08373,-1.93701 6.16312,-2.82592c0.22978,-0.09985 0.46008,-0.1979 0.69098,-0.29386c1.20393,-0.5095 2.4143,-1.00942 3.62865,-1.51029l-0.00568,-0.01207l1.73987,-0.81938c0.11648,-0.10994 0.22088,-0.1664 0.22088,-0.1664c6.14938,-3.32468 12.66322,-6.2231 18.93179,-9.428c0.4083,-0.23557 0.81663,-0.47113 1.22493,-0.7067l0.66862,-0.22113c0.15647,-0.27552 0.42239,-0.4193 0.42239,-0.4193c6.91519,-3.7162 13.10653,-8.68119 20.01678,-12.43694c6.27664,-3.39249 14.83766,-6.68362 19.92502,-11.74894c0.01453,-0.45923 0.41864,-0.75854 0.41864,-0.75854c2.27166,-1.68266 4.40367,-3.4457 6.67816,-5.13044l0.94963,-0.7034c0,0 0.15003,-0.11112 0.36758,-0.17082c-0.03656,-0.50608 0.41695,-0.842 0.41695,-0.842l0.87491,-0.64213c0.99753,-1.10837 2.33241,-2.20487 3.10791,-3.49063c0.52002,-0.8622 0.82462,-1.85501 0.99603,-2.91364l-0.02226,-0.22537c-0.3117,-0.33497 -0.23799,-0.82986 -0.23799,-0.82986c0.14565,-0.97782 0.34665,-1.9409 0.44453,-2.90444c-0.02091,-0.79827 -0.05954,-1.59076 -0.0864,-2.35416l-0.10929,0.0357l-0.4291,-1.31339c-0.05081,-0.14514 -0.06808,-0.30442 -0.04385,-0.4671c0.07968,-0.53492 0.57792,-0.90398 1.11283,-0.8243c0.32092,0.0478 0.58213,0.24624 0.72257,0.51288l0.49135,0.90882l-0.05385,0.02912l0.10747,0.08785c0.17809,0.74487 0.25277,1.46116 0.26075,2.16765c0.11207,0.74025 0.07555,1.57731 0.04403,2.27827c-0.01913,0.42536 -0.05221,0.83645 -0.09885,1.2349c0.39851,0.3305 0.31351,0.90118 0.31351,0.90118c-0.10863,0.71262 -0.27157,1.41935 -0.48385,2.10948c-0.07976,0.78875 -0.26406,1.50259 -0.53023,2.1609c4.87581,-2.33195 10.08441,-4.14923 14.68567,-6.72221c1.23245,-0.59389 1.14107,-1.37913 1.0748,-2.65551c-0.20129,-3.87711 -2.67218,-4.50173 -4.98554,-7.34221l0.39533,-1.54469c0,0 0.33141,-0.92147 1.25288,-0.59005z" fill="#1f1f1f"></path>
          <path d="M382.35189,177.27591c-0.78691,0.58286 -1.36976,-0.20404 -1.36976,-0.20404l-0.51767,-0.83191c-0.88307,-3.7773 -3.10304,-4.75476 -6.22604,-6.43321c-3.14797,0.09761 -4.98599,2.4326 -7.2062,4.29101c-2.11252,1.76828 -4.03552,3.58791 -6.04109,5.33222c0.30457,0.00767 0.61019,0.02387 0.91597,0.04828c0.05669,-0.00636 0.11342,-0.01252 0.17019,-0.01848c0,0 0.26762,-0.02607 0.53606,0.08935c3.50404,0.4229 6.94064,1.89357 8.99313,3.92743l0.27422,-0.15716c0,0 0.96857,0.14427 0.8243,1.11283v0.00001c-0.14427,0.96857 -1.11283,0.8243 -1.11283,0.8243l-1.3788,-0.40339c-0.70868,-0.73792 -1.676,-1.39621 -2.79437,-1.93727c-0.04306,0.08749 -0.10364,0.17723 -0.18585,0.26803l0.00001,0.00004c-0.6573,0.72588 -1.38318,0.06856 -1.38318,0.06856l-0.3947,-0.38575c-1.38061,-0.81325 -2.73496,-1.23174 -4.06691,-1.35897c-2.22792,0.29603 -4.42656,0.92584 -6.63073,1.6346c-0.25163,0.21579 -0.48399,0.45287 -0.69439,0.71219c0,0 -0.62203,0.75631 -1.37835,0.13427c-0.0228,-0.01875 -0.04435,-0.03763 -0.06469,-0.0566c-1.04686,0.55403 -2.08413,1.14755 -3.11408,1.71974c-0.12892,0.34812 -0.4568,0.53886 -0.4568,0.53886l-1.11019,0.6441c-3.64483,2.69978 -6.59978,6.23214 -10.61092,8.40077c-6.56274,3.52672 -15.52567,6.58273 -20.87122,11.79527c-6.17319,3.40418 -11.61543,7.76899 -18.14561,10.49162c-0.18736,0.17033 -0.39574,0.23842 -0.39574,0.23842l-1.22681,0.39395c-1.66306,1.01767 -3.21704,1.85871 -4.8001,3.02389c-6.05945,2.81899 -11.71602,6.78727 -17.61003,10.04053c0.2228,1.34911 -1.13613,1.9891 -1.13613,1.9891l-1.26588,0.59283c-9.95512,5.38218 -20.78027,11.68739 -31.72379,14.72034c0,0 -1.88737,0.52307 -2.41044,-1.36429c-0.52307,-1.88737 1.36429,-2.41044 1.36429,-2.41044c10.65817,-2.95386 21.21369,-9.1506 30.90705,-14.39127l1.45987,-0.69086c0,0 0.85925,-0.40466 1.66282,-0.05203c5.95622,-3.26213 11.65224,-7.2118 17.74728,-10.11492c1.62856,-1.21502 3.26148,-2.07706 4.98626,-3.12202l1.30551,-0.43279c0.15125,-0.13241 0.29877,-0.19349 0.29877,-0.19349c6.44266,-2.66757 11.67231,-7.05607 17.81696,-10.2924c5.30289,-5.3198 14.52117,-8.36568 21.10549,-11.94431c3.94056,-2.13047 6.8776,-5.65622 10.46545,-8.3138l0.31809,-0.1855c0.12001,-0.38801 0.49765,-0.59217 0.49765,-0.59217c0.84587,-0.45732 1.69056,-0.92725 2.53643,-1.38645l0.66832,-0.67941c0.56951,-0.18608 1.13722,-0.37343 1.70388,-0.55875c0.6682,-0.32925 1.33847,-0.63842 2.01194,-0.91617c0.88396,-0.52265 1.87352,-0.89422 2.92419,-1.13111c5.00482,-4.22614 10.42541,-11.78163 17.15492,-11.85138c3.85995,1.87214 6.61326,3.38725 7.69258,7.8903l0.18572,0.11772c0,0 0.58286,0.78691 -0.20404,1.36976z" fill="#1f1f1f"></path>
          <path d="M358.38831,173.8218c-5.53825,1.68742 -4.18154,-7.15297 0.33093,-7.75691c2.7855,-0.3728 5.03428,3.15883 3.7947,5.61939c-0.60605,1.20303 -2.15432,1.68866 -3.28592,2.15857zM357.6046,172.06709c0.16524,-0.12755 0.35799,-0.1751 0.5097,-0.19074c0.15968,-0.02284 0.37256,-0.02213 0.57372,0.07691c0.63518,-0.2314 1.78791,-0.59171 2.07944,-1.15528c0.49034,-0.9479 -0.49613,-3.01428 -1.70939,-2.80411c-2.02281,0.35041 -3.2956,4.8241 -1.45347,4.07321z" fill="#343434"></path>
          <g>
            <path d="M369.45482,173.5268c-0.04055,-0.00216 -0.08272,-0.00642 -0.12656,-0.01295c-0.96857,-0.14427 -0.8243,-1.11283 -0.8243,-1.11283l0.28989,-1.24444c0.87745,-1.24408 1.54009,-2.01896 2.55378,-2.74642c-1.60272,0.02527 -3.10163,-0.45026 -3.74767,-1.46904c-0.41288,-0.05513 -0.67715,-0.41191 -0.67715,-0.41191l-0.36819,-0.82611c0.03721,-2.56129 0.7685,-3.92766 2.55791,-5.68801c3.71807,-2.6626 9.59449,1.28193 7.36188,5.86016c-0.4314,0.88464 -1.29517,1.54722 -2.328,1.97285c0.2533,0.07274 0.49788,0.16521 0.73268,0.27505c2.68707,-0.34345 4.14645,3.2619 3.20706,5.51727c-0.01416,0.03401 -0.02897,0.06735 -0.0444,0.10005c-0.21777,1.42553 -1.17718,2.69533 -3.12673,3.26507c-3.49103,1.02021 -5.80189,-0.94572 -5.46017,-3.47874zM372.49631,173.47735c0.3859,-0.2239 0.84225,-0.05977 0.84225,-0.05977l0.72606,0.30427c0.39234,-0.11366 1.64097,-0.24521 2.06884,-0.61158c0.07761,-1.03489 -0.43336,-2.20554 -1.27459,-2.91462c-0.89675,0.57752 -2.45242,2.43277 -2.36257,3.28168zM369.73021,165.27737c0.00045,-0.00049 0.00088,-0.00098 0.00133,-0.00147c0.6573,-0.72588 1.38317,-0.06857 1.38317,-0.06857l-0.29356,0.25184c0.00985,0.00411 0.01972,0.00839 0.02962,0.01287c0.79096,-0.17476 2.24875,-0.29192 2.74619,-1.00271c0.61764,-0.88259 0.36165,-3.07399 -1.02728,-2.95204c-1.57421,0.13821 -3.54251,3.11941 -2.83947,3.76008z" fill="#343434"></path>
            <path d="M372.4442,173.51666c-0.08985,-0.84891 1.53088,-2.80747 2.42763,-3.38499c0.84123,0.7091 1.39269,1.98121 1.31507,3.01611c-0.42788,0.36636 -1.74568,0.52378 -2.13801,0.63744l-0.75111,-0.31665c0,0 -0.46768,-0.17578 -0.85359,0.04811z" fill="#888888"></path>
            <path d="M369.68028,165.3194c-0.70305,-0.64066 1.33766,-3.72521 2.91187,-3.86342c1.38895,-0.12194 1.67956,2.16239 1.06191,3.04498c-0.49743,0.71079 -2.04165,0.85464 -2.83261,1.0294c-0.0099,-0.00448 0.03973,-0.12498 0.02988,-0.12909l0.23778,-0.1339c0,0 -0.75022,-0.67531 -1.40751,0.05057c-0.00044,0.0005 0.09899,-0.08311 0.09854,-0.08262z" fill="#888888"></path>
            <path d="M365.23278,181.28307c-0.17802,0.20045 -0.39761,0.29136 -0.39761,0.29136c-4.92673,1.72923 -5.35904,-5.83134 -1.64592,-7.60004c5.64466,-2.68877 10.09472,4.58733 3.80454,7.28793l-1.13694,0.15338c0,0 -0.32955,0.0321 -0.62406,-0.13265zM364.98241,179.81444c0.26152,-0.3068 0.68452,-0.34801 0.68452,-0.34801l0.57761,-0.01365c3.96048,-1.55813 1.16066,-5.26785 -2.15672,-3.7382c-1.60858,0.74171 -2.1168,5.21354 -0.00189,4.05031c0,0 0.48869,-0.20233 0.89648,0.04955z" fill="#343434"></path>
            <path d="M364.04888,179.81865c-2.11491,1.16323 -1.60581,-3.4167 0.00278,-4.15842c3.31738,-1.52965 6.18107,2.29355 2.22058,3.85168l-0.59731,0.01932c0,0 -0.44583,0.04 -0.70734,0.3468c-0.40779,-0.25188 -0.9187,-0.05938 -0.9187,-0.05938z" fill="#888888"></path>
            <path d="M356.43243,171.71619c0.69806,0.01772 0.87425,0.76139 0.87425,0.76139c0.12474,2.26468 3.7464,-0.05018 4.21667,-1.30357c1.38378,-3.68815 -3.70352,-4.6335 -5.07142,-0.9906c0.02075,0.32259 0.04151,0.64518 0.06226,0.96776zM355.46558,173.11878c-0.0703,0.0024 -0.14604,-0.00186 -0.22763,-0.01401c-0.96857,-0.14427 -0.8243,-1.11283 -0.8243,-1.11283l0.14438,-0.93698c-0.01441,-0.38669 -0.02884,-0.77339 -0.04325,-1.16007c0.59137,-1.68349 1.62372,-3.66472 3.53185,-4.17957c3.44969,-0.93078 6.45414,2.89658 5.32432,6.10837c-1.18634,3.37249 -6.51116,5.10672 -7.90539,1.2951z" fill="#343434"></path>
            <path d="M356.45005,171.1633c-0.02075,-0.32259 -0.04149,-0.66952 -0.06224,-0.99211c1.36789,-3.6429 6.58333,-2.67251 5.19955,1.01565c-0.47027,1.2534 -4.2011,3.60257 -4.32583,1.33789c0,0 -0.19164,-0.76655 -0.88969,-0.78427z" fill="#888888"></path>
            <path d="M362.09909,170.24845c-0.97464,0.09495 -1.06959,-0.8797 -1.06959,-0.8797l0.03072,-0.27307c-0.22558,-0.50803 -0.57234,-0.97616 -0.99256,-1.34c0,0 -0.72587,-0.65731 -0.06856,-1.38318c0.65731,-0.72587 1.38318,-0.06856 1.38318,-0.06856c0.59339,0.55416 1.09263,1.22816 1.4498,1.9573l0.14671,0.91762c0,0 0.09495,0.97464 -0.8797,1.06959z" fill="#343434"></path>
          </g>
        </g>
      </g>
      <g stroke-width="0.5">
        <path d="M243.08218,256.22344l0.02548,-0.43052c0.11465,-2.19334 -0.00581,-4.48411 -0.86102,-6.5071c-0.06922,-0.16375 -0.04495,-0.3449 -0.12209,-0.50247c0.21337,0.09684 1.11711,0.44333 1.75503,-0.30415c4.02747,0.40389 7.87591,2.47618 7.47018,6.86221c-0.65013,7.02813 -6.53608,13.47448 -10.77524,18.69189c-6.28263,4.61737 -11.84483,3.70662 -17.97754,-0.2733c-1.16528,-0.75623 -2.60492,-1.35796 -3.29774,-2.56203c-1.71256,-2.97632 0.27652,-6.81229 -1.32941,-9.90463c-0.93382,-1.79812 -3.6817,-3.38455 -5.69844,-4.40327c0.86696,-2.56933 1.04396,-5.87141 2.00431,-8.00415c2.14809,-4.77045 5.15336,-10.57131 8.05093,-14.97281c1.11661,-1.69617 2.31434,-2.14003 2.7248,-4.24999c1.29734,-0.95518 2.9063,-1.45196 4.20268,-2.40951c0.65444,-0.4834 1.76606,-2.47392 2.81263,-2.85183c6.12315,-2.211 10.80621,5.98099 9.37381,11.32088c-1.2408,-0.55413 -1.9525,0.7684 -1.9525,0.7684l-0.21456,0.41343c-0.56951,1.0763 -1.26165,2.14698 -1.93711,3.1222c0.60844,-2.70228 1.11499,-4.62349 0.33704,-7.30303c0,0 -0.43397,-1.4328 -1.86833,-0.99392c-1.43436,0.43888 -0.97147,1.77618 -0.97147,1.77618c0.66128,2.01243 0.1177,3.61413 -0.36088,5.64108c-0.2313,-0.20327 -0.48462,-0.35103 -0.79049,-0.39281c-0.00178,-0.00024 -0.00355,-0.00049 -0.00533,-0.00072c-0.05199,-0.0277 -0.10388,-0.0555 -0.15699,-0.08372l-0.12333,0.02976l0.025,-0.06935l-1.85966,-0.6732c-0.29841,-0.11143 -0.63097,-0.12897 -0.9591,-0.02857c-0.79218,0.24238 -1.24238,0.98125 -1,1.77342c0.14541,0.47523 0.50938,0.82559 0.94523,0.97768l1.62092,0.58312c0.18255,0.56074 0.90405,0.79577 1.3443,1.1976l0.72858,1.23449c0,0 0.42845,0.70394 1.1658,0.75972c0.19655,0.24436 0.50407,0.48701 0.9465,0.51946c1.57535,3.72011 4.17496,6.04368 3.85205,10.6751l-0.0268,0.43374c0,0 -0.17867,1.45095 1.31862,1.54108c1.49729,0.09012 1.58421,-1.40036 1.58421,-1.40036z" fill="#b7b7b7"></path>
        <path d="M219.89454,226.78273c2.77795,1.77719 -2.49941,7.45299 -3.57698,9.71095c-1.75227,3.67173 -4.27416,7.1642 -5.93665,10.83939c-2.13465,4.71898 -0.81743,12.01408 -7.98865,9.12803c-0.68002,-0.27367 -1.32707,-0.63734 -1.98792,-0.95451c0,0 -0.06479,-0.03099 -0.17556,-0.06941c-0.85277,-11.08769 5.74814,-21.11091 10.87691,-30.57427c0.88815,0.06089 1.43092,-0.38952 1.74266,-0.83724c2.47108,0.66053 4.61169,1.46116 7.04619,2.75705z" fill="#b7b7b7"></path>
        <path d="M230.16999,260.6142c1.04605,1.07506 -0.02901,2.12112 -0.02901,2.12112l-0.75541,0.73295c-1.82685,1.93641 -3.26491,4.03506 -5.03936,6.00971c0,0 -1.00415,1.11431 -2.11847,0.11016c-1.11431,-1.00415 -0.11016,-2.11847 -0.11016,-2.11847c1.79315,-1.9838 3.24451,-4.09647 5.08259,-6.05667l0.84868,-0.82784c0,0 1.07506,-1.04605 2.12112,0.02902z" fill="#6b6b6b"></path>
        <path d="M236.86383,256.49014c1.034,1.08666 -0.05267,2.12066 -0.05267,2.12066l-0.35739,0.23382c-1.5888,2.94701 -3.85387,5.87645 -6.10467,8.37835c0,0 -1.00415,1.11431 -2.11846,0.11017c-1.11431,-1.00415 -0.11016,-2.11847 -0.11016,-2.11847c2.07654,-2.30027 4.26099,-5.05128 5.68415,-7.7779l0.93853,-0.9993c0,0 1.08667,-1.03401 2.12067,0.05267z" fill="#6b6b6b"></path>
        <path d="M241.54151,257.6484c-1.49729,-0.09012 -1.40717,-1.58741 -1.40717,-1.58741l0.02599,-0.43198c0.32292,-4.63141 -2.26385,-6.89744 -3.8392,-10.61755c-0.44244,-0.03245 -0.74502,-0.27131 -0.94158,-0.51566c-0.73735,-0.05578 -1.15872,-0.75571 -1.15872,-0.75571l-0.72276,-1.23224c-0.44024,-0.40184 -1.15395,-0.63505 -1.33652,-1.1958l-1.61311,-0.58258c-0.43583,-0.15209 -0.79585,-0.50263 -0.94126,-0.97788c-0.24238,-0.79218 0.20331,-1.63085 0.99549,-1.87324c0.32813,-0.1004 0.66423,-0.08275 0.96265,0.02869l1.86685,0.67421l-0.02504,0.06935l0.12377,-0.02967c0.05311,0.02823 0.10566,0.05616 0.15764,0.08387c0.00178,0.00024 0.00356,0.00049 0.00535,0.00072c0.30586,0.04178 0.56239,0.19042 0.79371,0.39367c0.47858,-2.02693 0.99598,-3.53221 0.33468,-5.54462c0,0 -0.43888,-1.43436 0.99549,-1.87324c1.43436,-0.43888 1.87324,0.99549 1.87324,0.99549c0.77795,2.67954 0.27908,4.6044 -0.32936,7.30668c0.67546,-0.97523 1.31689,-1.95972 1.88639,-3.03603l0.26545,-0.4995c0,0 0.65802,-1.23824 1.89883,-0.6841c1.43238,-5.33989 -3.22504,-13.52319 -9.3482,-11.31218c-1.04657,0.37791 -2.1527,2.36842 -2.80715,2.85181c-1.29637,0.95755 -2.89578,1.45285 -4.19312,2.40803c-0.41046,2.10996 -1.59921,2.55058 -2.71582,4.24675c-2.89757,4.40148 -5.87484,10.165 -8.02293,14.93545c-0.96035,2.13273 -1.13877,5.41286 -2.00572,7.98219c2.01674,1.01872 4.75619,2.58866 5.69001,4.38678c1.60594,3.09234 -0.39775,6.91558 1.31481,9.8919c0.69281,1.20407 2.12451,1.80211 3.28979,2.55834c6.13271,3.97994 11.65778,4.89196 17.94041,0.27458c4.23916,-5.21741 10.0961,-11.62715 10.74624,-18.65529c0.40573,-4.38603 -3.4423,-6.43811 -7.46978,-6.84199c-0.63792,0.74749 -1.54157,0.40136 -1.75495,0.30453c0.07713,0.15757 0.15066,0.31798 0.21989,0.48173c0.85521,2.02298 0.9738,4.33941 0.85914,6.53273l-0.02599,0.43198c0,0 -0.09012,1.49729 -1.58741,1.40717zM226.68164,223.90684c1.38699,-1.02148 2.25281,-2.81532 3.8595,-3.43637c9.47837,-3.66368 16.16054,7.12844 15.01095,15.25242c-0.44705,3.15925 -2.51144,5.68673 -4.04198,8.46805c6.97641,-0.25637 14.48868,3.40177 14.04392,11.42128c-0.44563,8.03505 -7.16776,15.61082 -12.0691,21.47075c-7.85355,5.80708 -15.37728,5.3598 -23.24802,0.16828c-1.68783,-1.1133 -3.59119,-2.20251 -4.59863,-3.9556c-1.91063,-3.32477 0.11439,-7.05224 -1.39427,-10.03495c-0.55864,-1.10445 -3.22234,-2.3164 -4.45038,-2.88433c-3.44413,2.30258 -7.86254,0.51892 -11.19839,-1.065c0,0 -0.64025,-0.30555 -1.0057,-0.93346c-1.36506,-0.32546 -1.51275,-1.87322 -1.51275,-1.87322c-0.87436,-9.97866 4.07782,-21.61006 8.76991,-30.27823c1.39724,-2.58125 3.28166,-4.58932 4.5093,-7.21321l2.00055,0.99494l0.5545,-0.55355c3.84917,0.88752 6.84431,1.94369 10.33116,3.83028c0.95525,0.86568 1.68254,1.3759 2.18417,1.9077c0.77638,-0.39085 1.55858,-0.77266 2.25529,-1.28577zM212.83987,224.07495c-0.31174,0.44773 -0.84947,0.89873 -1.73762,0.83785c-5.12877,9.46336 -11.69899,19.39477 -10.84623,30.48247c0.11077,0.03841 0.17513,0.06913 0.17513,0.06913c0.66085,0.31719 1.30251,0.67788 1.98253,0.95155c7.17122,2.88604 5.83015,-4.41384 7.9648,-9.13282c1.66248,-3.67519 4.14417,-7.09157 5.89645,-10.7633c1.07757,-2.25796 6.36817,-7.91946 3.5902,-9.69664c-2.43449,-1.2959 -4.55418,-2.08771 -7.02527,-2.74822z" fill="#6b6b6b"></path>
      </g>
      <g stroke-width="0.5">
        <path d="M320.62877,221.97797c-1.73601,-0.82154 -3.42848,-0.92159 -4.98846,-2.21592c-0.51801,-0.42979 -0.97013,-0.93078 -1.42372,-1.43057c-0.18493,0.33131 -0.43727,0.70715 -0.81293,1.21406v-0.00001c-0.44478,0.60017 -0.88677,1.23263 -1.48846,1.67535c-0.22668,0.16678 -0.92379,-0.22938 -0.84331,0.0403c0.08511,0.28519 0.61165,-0.00868 0.8867,0.10506c1.13376,0.46883 2.13567,1.21031 3.23231,1.76042c4.14334,2.07842 7.72403,2.81517 12.15577,3.73606c2.09397,0.43512 3.05784,0.76288 5.1691,0.06163c0.59137,-1.08588 1.3442,-1.99169 2.05366,-2.96056c-4.73844,0.3391 -9.75769,-0.00632 -13.94063,-1.98584zM334.96583,230.42573l-1.02669,0.23336c-7.38293,2.94654 -14.3636,0.75913 -21.11205,-2.95341c-2.35957,-1.29808 -6.1693,-2.38551 -6.01268,-5.89311c0.00989,-0.22151 0.07007,-0.42944 0.16014,-0.62928c-0.08115,-0.30969 -0.05954,-0.56651 -0.05954,-0.56651l0.56024,-1.41869c0.80308,-0.67845 1.60968,-1.35281 2.42172,-2.02051c1.10394,-1.74217 0.23573,-1.90912 0.44529,-3.89935c0.19067,-1.81072 1.61452,-3.96088 2.68468,-5.38248c1.7898,-2.3776 4.99108,-3.9955 6.49221,-6.53485c0.29734,-0.50299 0.25758,-1.16996 0.58955,-1.65079c0.85686,-1.24112 1.60976,-0.86364 2.04059,-2.2424c1.24536,-3.98554 -2.5061,-7.16529 -3.1201,-10.97229c0.30403,-3.90886 1.0195,-7.03982 3.52258,-10.00024c0.87584,-1.03587 1.52045,-2.41455 2.7397,-3.00915c2.35692,-1.1494 5.56523,-0.80153 7.76595,0.69091c1.94801,-2.75523 5.53471,-4.96818 8.84222,-3.86446c1.52724,0.50965 2.72765,1.64163 3.76572,2.86796c1.80618,-1.9076 3.94601,-2.67286 7.38004,-1.52427l1.06005,0.60455c0,0 0.84235,0.51361 0.74421,1.39091c0.41792,0.41527 0.74244,0.92332 0.93206,1.5275c0.46801,1.49121 -0.28954,2.94986 -0.93264,4.42006c0.6361,0.46718 0.5624,1.34319 0.5624,1.34319c-0.52409,4.50249 3.57749,2.64941 5.8453,4.93732c0.99965,1.0085 1.16258,2.82512 1.37473,4.13606c0.94371,5.83165 -1.38804,12.19645 -4.36478,17.12902c-2.93537,4.81397 -5.72436,9.21156 -9.74435,13.14142c-1.64677,1.60986 -3.15482,1.9762 -5.13717,2.75064c-2.80871,1.09729 -4.31596,3.22135 -5.79707,5.65034l-1.17693,1.09505c0,0 -0.37426,0.31618 -0.87569,0.37324c-0.28648,0.20159 -0.56966,0.27023 -0.56966,0.27023zM347.9953,177.04021c-0.03231,0.01529 -0.06469,0.03035 -0.09718,0.04518l0.00906,0.01446l-0.1992,0.12477c-0.69129,1.08048 -1.21921,2.64698 -1.46053,3.72003c0.59428,1.27035 1.17674,2.54731 1.80376,3.82253c1.98355,4.18274 6.73674,3.92967 8.93589,7.47003c0.22325,0.35942 0.41418,0.71359 0.57561,1.06326c-0.01152,-0.14046 -0.02856,-0.28034 -0.05143,-0.41955c-0.38448,-0.94819 -0.50781,-2.0342 -1.10873,-2.86232c-1.51189,-2.08353 -4.30997,-2.72351 -5.66801,-4.9767c-0.5882,-0.97591 -1.21996,-3.02647 -1.13616,-4.18704c0.05551,-0.7689 1.56342,-3.02386 0.9809,-3.90179c-0.39186,-0.59057 -0.77984,-0.87678 -1.15398,-0.93829c-0.5259,0.41457 -1.0202,0.83142 -1.42999,1.02543zM330.74381,185.83348c-0.76134,-0.46426 -0.79409,-1.10512 -0.69545,-1.54853c-0.424,-1.19434 -0.72442,-2.47727 -0.48716,-3.69395c0.168,-0.8615 0.93443,-1.17332 0.19197,-1.94683c-3.25963,-3.39594 -5.70188,3.67525 -5.93483,5.66177c-0.3747,3.1953 3.81934,6.19771 4.39634,9.23726c0,0 0.0146,0.0899 0.01447,0.229c0.56287,0.67191 0.90713,1.47377 0.54122,2.88927c-0.37089,1.43479 -1.76684,2.3988 -2.42296,3.72758l-1.42832,2.34485c0,0 -0.1522,0.24961 -0.43242,0.46123c-0.68477,1.88479 -1.4446,3.25614 -3.1564,4.51779c-2.23719,1.64889 -6.25581,2.45313 -5.62115,5.65172l-0.00212,0.08376c5.83435,5.13827 13.23859,6.444 20.71401,6.14941c1.67702,-0.06608 3.48258,-0.07442 5.05439,-0.94313c1.56822,-0.86672 2.90295,-2.47747 4.46966,-3.44586c3.6051,-4.09827 5.39237,-7.83821 7.53415,-12.81438c1.34561,-3.12636 2.82391,-5.15881 0.93569,-8.61331c-0.71059,-1.30002 -2.89285,-1.56487 -4.07268,-2.28273c-2.44285,-1.48634 -3.71523,-2.89387 -4.98382,-5.40883c-0.5099,-1.03952 -1.00032,-2.08031 -1.4899,-3.11889c-0.83549,-0.41889 -0.7482,-1.45657 -0.7482,-1.45657c0.00304,-0.0344 0.00632,-0.0691 0.00982,-0.10412c-0.38482,-0.80765 -0.77482,-1.6129 -1.17882,-2.41414c-0.48629,-0.96444 -0.32924,-2.1764 -0.83458,-3.13099c-1.16313,-2.19716 -4.11925,2.07548 -4.47496,2.81661c-1.82913,3.81107 0.26851,9.2597 3.36579,12.18376c0.75212,0.29238 1.49414,0.59448 2.08011,1.11462l0.0528,-0.01108c0,0 1.49472,0.12574 1.36898,1.62046c-0.04567,0.54284 -0.27189,0.87196 -0.54151,1.07099c-0.15031,0.46352 -0.39326,0.92635 -0.55979,1.36569c-0.8524,2.24888 -2.29256,4.4081 -3.37733,6.57671c0,0 -0.67188,1.34111 -2.01299,0.66922c-1.34111,-0.67188 -0.66922,-2.01299 -0.66922,-2.01299c0.84067,-1.67557 1.61866,-3.30583 2.41172,-4.97865c0.28228,-0.59544 1.1683,-1.06343 1.3715,-1.62066l-0.09382,-0.01594c-0.69444,-0.4326 -1.36328,-0.95456 -1.99395,-1.5484c-0.89195,-0.38013 -1.76734,-0.7296 -1.93618,-0.85518c-1.99231,-1.48183 -3.98559,-3.54344 -5.32424,-5.86866c0.07695,-0.13318 0.15449,-0.26602 0.23264,-0.3985c-0.08808,-0.03634 -0.17896,-0.08238 -0.27248,-0.13941z" fill="#6b6b6b"></path>
        <path d="M357.5891,193.34293c-0.16144,-0.34967 -0.35202,-0.70405 -0.57527,-1.06346c-2.19916,-3.54036 -7.02898,-3.32676 -9.01254,-7.50951c-0.62702,-1.27522 -1.20222,-2.58106 -1.79648,-3.85141c0.52109,-2.31714 2.41131,-6.9582 4.3645,-4.01448c0.58253,0.87794 -0.88716,3.22313 -0.94269,3.99204c-0.0838,1.16056 0.56675,3.15289 1.15495,4.1288c1.35803,2.2532 4.07831,2.87075 5.5902,4.95428c0.60093,0.82813 0.78218,1.99552 1.16666,2.94373c0.02287,0.13922 0.03916,0.27957 0.05068,0.42004z" fill="#b7b7b7"></path>
        <path d="M314.80267,216.59402c5.96609,4.64415 13.33375,6.19299 20.75828,6.03613l-0.11543,0.1136c-0.90011,1.48835 -2.05496,2.6788 -2.88557,4.20397c-2.11126,0.70124 -3.08707,0.38834 -5.18104,-0.04677c-4.43175,-0.92089 -8.09426,-1.68922 -12.23761,-3.76763c-1.09664,-0.5501 -2.0989,-1.30121 -3.23266,-1.77005c-0.27504,-0.11374 -0.80157,0.17994 -0.88668,-0.10526c-0.08048,-0.26968 0.61666,0.12606 0.84335,-0.04072c0.60168,-0.44271 1.04507,-1.08383 1.48984,-1.684c1.00882,-1.36129 1.1347,-1.792 1.44749,-2.93924z" fill="#b7b7b7"></path>
        <path d="M331.14786,185.83007c-0.11615,0.19495 -0.27238,0.29972 -0.38593,0.49625c1.33863,2.32521 3.35368,4.38187 5.34598,5.86371c0.16884,0.12558 1.06468,0.47944 1.95663,0.85956c0.63068,0.59385 1.31992,1.13266 2.01436,1.56525l0.09421,0.01651c-0.2032,0.55722 -1.08449,1.03385 -1.36678,1.62928c-0.79306,1.67284 -1.6139,3.37255 -2.45456,5.04812c0,0 -0.68276,1.24181 0.65836,1.91369c1.34111,0.67188 1.99614,-0.66338 1.99614,-0.66338c1.08476,-2.16861 2.50063,-4.27354 3.35303,-6.52243c0.16652,-0.43934 0.4119,-0.8943 0.56221,-1.35782c0.26961,-0.19902 0.49782,-0.5238 0.54349,-1.06665c0.12574,-1.49472 -1.36169,-1.60991 -1.36169,-1.60991l-0.05268,0.01121c-0.58597,-0.52014 -1.31657,-0.81291 -2.06869,-1.10529c-3.09729,-2.92405 -5.16787,-8.4656 -3.33874,-12.27668c0.35571,-0.74114 3.32173,-5.01249 4.48486,-2.81533c0.50534,0.95459 0.35208,2.16759 0.83837,3.13203c0.40399,0.80124 0.79897,1.60838 1.1838,2.41603c-0.00351,0.03501 -0.0067,0.06974 -0.00974,0.10414c0,0 -0.0838,1.03938 0.75169,1.45827c0.48957,1.03859 0.98796,2.0847 1.49787,3.12422c1.26859,2.51497 2.55549,3.94202 4.99835,5.42837c1.17983,0.71786 3.36495,0.99215 4.07555,2.29218c1.88822,3.4545 0.40891,5.51046 -0.93669,8.63682c-2.14177,4.97617 -3.95292,8.74607 -7.55801,12.84434c-1.56672,0.96839 -2.91337,2.58385 -4.48159,3.45057c-1.57181,0.86871 -3.38893,0.87856 -5.06593,0.94464c-7.47541,0.29459 -14.91969,-1.03024 -20.75403,-6.16851l0.00205,-0.08385c-0.63466,-3.19859 3.38233,-4.00504 5.61952,-5.65393c1.71179,-1.26164 2.46789,-2.63931 3.15266,-4.52409c0.28022,-0.21162 0.43204,-0.46204 0.43204,-0.46204l1.42565,-2.35174c0.65611,-1.32879 2.05014,-2.31247 2.42103,-3.74725c0.3659,-1.4155 0.026,-2.23326 -0.53686,-2.90517c0.00013,-0.1391 -0.01398,-0.23004 -0.01398,-0.23004c-0.57699,-3.03956 -4.76034,-6.05643 -4.38564,-9.25173c0.23296,-1.98654 2.69337,-9.06859 5.953,-5.67266c0.74246,0.77351 0.01016,1.17929 -0.15781,2.04079c-0.28514,1.46228 0.20936,3.01899 0.75864,4.40386c0.27045,0.26266 0.53946,0.52597 0.80991,0.78863z" fill="#b7b7b7"></path>
      </g>
    </g>
  </g>
</svg>
