<?xml version="1.0" encoding="UTF-8"?>
<svg xmlns="http://www.w3.org/2000/svg" xmlns:xlink="http://www.w3.org/1999/xlink" version="1.1" width="375.24145" height="284.53976" viewBox="0,0,375.24145,284.53976">
  <g transform="translate(-40.70603,-103.2992)">
    <g stroke="none" stroke-miterlimit="10">
      <path d="M380.43192,319.2385c0,0 -2.23685,0.00387 -2.48332,2.11214c-0.59906,0.19768 -1.2597,0.26352 -1.82362,0.54784c-1.68886,0.8515 -2.98255,2.42423 -4.72343,3.16359c-2.58364,1.09729 -7.36941,2.22789 -10.0791,2.19086c-2.625,-0.03587 -5.14218,-1.14112 -7.73163,-1.57315c-4.89352,-0.81643 -11.1619,-0.92826 -15.26567,-3.76073c-1.11498,-0.3675 -2.30414,-0.56746 -3.34742,-1.10581c-0.72744,-0.37538 0.34334,-1.60436 0.58008,-2.38797c0.9943,-3.29104 2.5243,-5.34893 3.90513,-8.55097c2.08978,-4.84604 3.16631,-10.38204 5.53476,-15.0895c0.44635,-0.88713 1.25568,-1.57921 1.64291,-2.49369c2.51282,-5.93431 2.53684,-12.6719 3.95962,-18.80221c5.66071,1.52542 11.50776,2.29973 17.10718,4.16184c5.53568,1.35708 11.75789,1.6832 17.02321,-0.94314c0.86635,-0.43214 1.64298,-1.01954 2.41871,-1.60784c0.34035,0.55674 0.96148,1.06505 2.08625,1.06505c0.6039,0 1.06264,-0.14514 1.41001,-0.36642c0.38873,0.70468 0.49016,1.65531 1.14769,2.96872c2.41426,4.82244 4.15155,9.58337 2.2552,15.02297c-2.19894,8.78347 -5.43628,19.7375 -13.06281,25.6619l-0.55377,-0.2135z" fill="#53cbf0" stroke-width="0.5"></path>
      <path d="M391.61921,292.57625c0.05516,0.01912 0.10945,0.04012 0.16278,0.06293c0.1054,-0.89633 0.17327,-1.78846 0.20122,-2.68163c-0.08219,0.88103 -0.20378,1.75639 -0.364,2.6187zM383.90001,299.19954v-1.46058h0.17833c-0.04868,-0.13348 -0.09737,-0.26697 -0.14605,-0.40045l0.28124,-0.32836l-0.18524,-0.06174l0.78176,-2.3453c0.20944,-0.681 0.70195,-1.23802 1.34021,-1.53372c0.15201,-0.7788 0.21907,-1.57162 0.15603,-2.3532c-0.16874,-2.09223 -0.48416,-4.83402 -2.07404,-6.40945c-2.17321,-2.15346 -2.91913,-1.23749 -5.48549,-0.89194c-3.90167,0.52535 -8.79786,0.42419 -12.74674,0.42419c-3.91606,0 -7.66969,-1.25506 -11.42452,-1.61011c-0.88908,-0.08407 -4.10307,0.94523 -4.68871,1.1139c0,0 -2.40381,0.68679 -3.0906,-1.71702c-0.68679,-2.40381 1.71702,-3.0906 1.71702,-3.0906c0.47185,-0.13385 0.97422,-0.28572 1.49396,-0.43727l-1.49579,-5.19692c2.72744,0.05333 5.56528,0.26728 8.07343,1.34014l1.22153,0.27251c0,0 0.98952,0.24738 1.54646,1.05816c4.62681,0.57798 9.74361,0.81091 14.24723,0.86719c1.64638,0.02057 3.17214,-0.91749 4.79953,-1.1677c2.13152,-0.32773 3.24647,0.32484 5.25503,-0.31856c2.15963,-0.69178 2.9199,-2.26322 5.54541,-2.11372c1.42355,0.08106 2.69202,0.9409 4.03803,1.41135c5.37069,9.60159 4.48947,19.04787 1.13623,29.07157c-1.30772,3.90912 -2.98054,8.35486 -5.64089,11.60205c-1.30457,1.59233 -3.15511,2.64495 -4.74838,3.94837c-2.84663,2.32875 -6.89908,7.33553 -10.62893,8.16692c-1.23281,0.27479 -2.50401,-0.33352 -3.75602,-0.50028l0.23009,-1.11488c0.08889,-0.54181 0.16881,-1.08799 0.32916,-1.59489l0.15127,-0.73297c5.7007,-7.32781 9.82397,-14.76065 13.3032,-23.06592c0.07912,-0.28553 0.17086,-0.5643 0.28626,-0.83074z" fill="#3b8fa9" stroke-width="0.5"></path>
      <path d="M384.34797,246.78382c3.1069,-0.01475 5.60464,-0.51362 8.23772,-1.49316c-0.04097,0.127 -0.08227,0.25422 -0.12457,0.38111l0.9099,1.21895c-0.69684,1.2389 0.18859,2.56571 0.18859,2.56571c0.42105,0.63157 0.84592,1.26892 1.26698,1.9005c-0.16538,0.6968 -0.0067,1.32808 -0.0067,1.32808l0.00213,0.00847l-0.07657,0.18561c0,0 0.00198,0.88658 0.52549,1.60272l0.37753,1.50604c1.76496,4.28711 -2.67436,7.53039 -5.14099,10.55605c-4.93127,6.04889 -13.72434,8.37096 -21.44081,6.39401c-1.31396,-0.4391 -2.74442,-1.05122 -4.17064,-1.56291c0.01288,-0.00365 0.10514,-0.06826 0.11802,-0.07227c1.40591,-0.43752 2.08657,-1.94602 3.28436,-2.80235c0.52803,-0.37751 2.19162,-1.30865 3.72107,-2.22525c0.17903,0.08699 0.38065,0.15915 0.61145,0.21685c2.42536,0.60633 2.96055,-1.74891 2.96055,-1.74891l0.84402,-3.51757c0.00624,-1.16849 0.01258,-2.37727 0.01882,-3.54576c0,0 0.0054,-0.79705 -0.43676,-1.48815l0.31547,-0.11379c-0.75605,-2.26502 -1.5688,-4.24549 -2.53674,-6.17496l0.20114,-0.05059l-0.17471,-0.70281c0.16029,-0.32979 0.25284,-0.70171 0.25284,-1.09303c0,-0.39916 -0.09257,-0.77701 -0.25893,-1.11174c2.80022,1.06499 6.24606,2.30458 8.85438,0.73427c0.40076,-0.24126 0.67123,-0.60559 0.87174,-1.03117c0.44469,0.13523 0.80523,0.13603 0.80523,0.13603z" fill="#53cbf0" stroke-width="0.5"></path>
      <path d="M388.02629,222.93502c0,0 -0.40313,-0.36264 -0.92806,-0.53012c0.48622,-3.34592 0.94238,-6.69262 1.35079,-10.03761c0.14543,-1.19109 0.81507,-2.30213 0.81507,-3.50207c0,-1.19993 -0.64953,-2.31508 -0.82122,-3.50266c-0.19476,-1.3472 0.38539,-2.88207 -0.28081,-4.06911c-0.71854,-1.2803 -2.25246,-1.72439 -3.42107,-2.6131c-0.74666,-0.25531 -5.28926,-1.8495 -5.90163,-1.8495c-7.06155,0 -11.2005,6.24829 -12.1113,12.51855c-0.45682,3.14493 0.2119,6.36327 -0.10857,9.53581c-0.01679,0.16622 -0.03903,0.43213 -0.05436,0.59814c-1.47724,0.01086 -2.96239,0.06938 -4.43503,0.18777c-0.07015,-1.89451 -0.24568,-3.79534 -0.05456,-5.67628c0.62422,-6.1435 1.94149,-13.57605 -4.40199,-17.59249c-1.09699,-0.69457 -2.48107,-0.79078 -3.71916,-1.18191c-2.82317,0.85073 -4.28387,0.89826 -6.47664,3.09104c-2.23637,2.23637 -2.85374,5.30371 -3.80878,8.16887c-1.84079,5.52247 -2.87817,10.73481 -3.21384,16.32061c-0.2545,0.10818 -0.4738,0.28904 -0.4738,0.28904c-1.28737,0.85886 -2.4903,1.70239 -3.6445,2.60971c-0.2083,-0.65503 -0.60737,-1.28165 -0.70328,-1.96366c-0.14856,-1.05629 0.1535,-2.14639 -0.00171,-3.20172c-0.27785,-1.88935 -1.38578,-3.61073 -1.5903,-5.50942c-0.37979,-3.5257 0.01282,-7.35128 0.01282,-10.90446c0,-1.99988 -0.32698,-4.02838 -0.03487,-6.00681c0.12318,-0.83423 0.69684,-1.56597 0.79928,-2.403c0.50265,-4.10711 -0.05238,-7.81752 0.78329,-11.92774c0.4943,-2.48746 1.03419,-6.68872 2.2098,-9.02914c1.55694,-3.09957 4.626,-5.71315 6.84023,-8.24981c3.40895,-3.90537 6.81247,-6.45613 11.39178,-9.09249c2.73082,-1.57217 5.13312,-3.83861 8.33746,-4.42751c0.86692,0.63006 1.99626,0.42499 1.99626,0.42499c3.62718,-0.6919 7.95334,-0.44677 11.5995,0.25758c1.94713,0.37614 3.88358,1.33028 5.85388,1.10503c2.81273,-0.32155 4.02339,-1.52079 6.1186,-3.22079c0.14528,-0.11788 0.32263,-0.26694 0.51144,-0.43501c-0.16054,1.55951 -0.06808,3.3284 -0.06423,3.45013c0.04539,1.43321 -0.68175,3.19582 0.23623,4.2974c1.03346,1.24015 3.02576,1.18557 4.60686,1.51129c1.54749,0.31879 3.57301,0.5411 5.14654,0.00514c-1.52282,1.94677 -3.66191,3.88259 -4.28386,6.16561c-1.42067,5.21493 2.58015,9.898 4.03024,14.53288c1.2432,3.9736 1.73638,8.09783 1.77222,12.26265l-0.73474,2.61131c0,0 -0.65872,2.41544 1.75319,3.07324c0.06029,0.01645 0.11948,0.03096 0.17759,0.04365c-0.62359,2.38931 -1.61561,4.65775 -1.93822,7.14912c-0.51561,3.98182 -1.01343,7.6926 -2.32699,11.61748c-0.70021,2.80068 -1.87187,5.63341 -2.64332,8.48245l-0.10565,-0.05122c-3.05728,-1.01729 -5.56564,-1.30443 -8.06055,-3.33187z" fill="#53cbf0" stroke-width="0.5"></path>
      <path d="M383.35394,264.45311c0.3112,-0.52796 1.40707,-1.57598 2.58967,-2.63122l-0.01848,-0.12938l0.10197,-0.01457c-0.0478,-0.21919 -0.08378,-0.44125 -0.10551,-0.66678c-0.12849,-1.33356 0.43228,-2.57034 1.10157,-3.79323c-0.21043,-1.02537 -0.29007,-2.05591 -0.19707,-3.13649c-0.38048,-0.30867 -0.66849,-0.72687 -0.81603,-1.20661l-0.78176,-2.34532l0.44659,-0.14886l-0.56859,-0.81892c0.03134,-0.07183 0.06288,-0.14365 0.09461,-0.21547c-0.21215,-0.76805 -0.00471,-1.4941 -0.00471,-1.4941c1.40813,-4.92482 3.6173,-9.67928 4.85574,-14.64432c0.0379,-0.17162 0.07851,-0.33997 0.1222,-0.50425c0.22652,-0.96345 0.41446,-1.93526 0.55098,-2.9182l0.00001,-0.00001h-0.00001l0.39483,-2.76362c0.01966,-0.1553 0.05357,-0.30615 0.10038,-0.45121c-0.4801,-0.47465 -0.9893,-1.0922 -1.53001,-1.8749c-1.17657,-1.70314 1.40034,-5.04765 1.96499,-6.62406c1.30586,-3.64578 1.54099,-7.45832 2.29133,-11.21322c0.61283,-3.06676 1.53883,-5.96797 1.9785,-9.07297c0.89916,-6.18933 0.9562,-14.01399 -2.12118,-19.65174c-1.29748,-2.37698 -2.69263,-1.67772 -3.44202,-5.0417c-0.69653,-3.12668 1.40728,-7.59003 3.39534,-9.84248c0.18867,-0.21376 0.38122,-0.43547 0.58241,-0.64974c-0.03077,-0.00841 -0.06167,-0.01602 -0.09271,-0.02274c-2.85176,-0.61673 -5.62256,0.08904 -7.32925,-3.41764c-0.29948,-0.61533 -0.52999,-1.14719 -0.70023,-1.60637c-0.27039,0.07043 -0.54077,0.14086 -0.81116,0.2113c0,0 -2.42536,0.60634 -3.0317,-1.81902c-0.60634,-2.42536 1.81902,-3.0317 1.81902,-3.0317c0.8975,-0.21223 1.795,-0.42447 2.69249,-0.6367l2.09866,-1.3991c0.40239,-0.27681 0.88987,-0.43883 1.41519,-0.43883c1.38071,0 2.5,1.11929 2.5,2.5c0,0.29691 -0.05176,0.58172 -0.14674,0.84592l-0.72645,2.17937c-0.0098,0.05536 -0.02876,0.1092 -0.05397,0.16191l-0.00112,0.00335l-0.00043,-0.00014c-0.16555,0.34237 -0.59315,0.63728 -0.48904,0.98916c0.37017,1.25117 2.59442,0.31145 3.87077,0.58236c1.58963,0.33741 6.46191,2.18541 6.70815,3.59909c0.28218,1.61999 -1.82241,2.74855 -2.89942,3.99114c-0.66221,0.76402 -1.73518,1.69122 -2.60588,2.74926l0.48019,0.58053c1.18827,2.41109 3.09766,4.00816 4.35998,6.32334c3.24962,5.95998 3.90989,13.16013 3.89912,19.75005c-0.52206,4.22432 -0.85997,8.50309 -2.10685,12.58352c-1.32244,4.32771 -3.55397,8.41461 -4.78116,12.73614c-0.25755,0.90695 -0.02554,1.93475 -0.4,2.80001c-0.55237,1.27636 -1.20807,2.723 -2.03186,3.74307c0.08093,0.24599 0.12471,0.50884 0.12471,0.78192v3.60001h-0.06897c0.01849,0.10138 0.03528,0.2032 0.05024,0.30547c0.01903,0.13008 -1.55356,6.20295 -1.6279,6.57511c-0.57494,2.87805 -1.21839,5.56234 -2.29191,8.14571c1.331,0.62291 2.44101,2.13176 3.03267,3.45395c0.54187,1.2109 0.23819,2.59189 -0.04824,3.95192l0.49455,2.22553l-0.105,0.02333c0.06275,0.21294 0.11697,0.42871 0.16121,0.64778c0.12515,0.6197 -0.05525,1.23668 -0.31964,1.84129c0.2056,0.36314 0.32296,0.78282 0.32296,1.22991c0,0.38089 -0.08518,0.74188 -0.23753,1.06497l-1.57791,3.55037l-0.065,-0.02889c-0.04902,0.14406 -0.10181,0.28706 -0.15875,0.4289c-0.49017,1.22083 -1.80007,1.92173 -2.76218,2.81896c-3.94684,3.68071 -9.51142,6.57294 -15.08422,7.11278c-1.8263,0.37725 -3.66479,0.45229 -5.05723,-0.2072c-0.5774,-0.11075 -1.14933,-0.25351 -1.71386,-0.43018l-0.12356,-0.14918l-0.03777,0.07554l-2.35155,-1.17579c-0.84561,-0.40086 -1.4304,-1.26228 -1.4304,-2.26028c0,-1.38071 1.11929,-2.5 2.5,-2.5c0.32935,0 0.64382,0.06369 0.93177,0.17941l3.14603,1.17978l-0.06773,0.1806c2.65368,-0.00177 5.24072,-0.21087 7.8051,-1.33765l0.66673,-0.3382c0,0 0.41816,-0.20909 0.98324,-0.26559c0.067,-0.10966 0.14222,-0.21375 0.22479,-0.31142l1.9895,-2.38739l0.01679,0.01399c0.01901,-0.03323 0.03824,-0.06636 0.0577,-0.09938z" fill="#3b8fa9" stroke-width="0.5"></path>
      <path d="M104.97206,217.88126c-1.7677,-1.76783 -3.53312,-0.00039 -3.53312,-0.00039l-1.26743,1.44967c-2.02416,4.05436 -3.76826,8.47578 -4.96627,13.01681c-2.49198,0.00534 -2.48945,2.49922 -2.48945,2.49922l0.0011,3.99962c0,3.99857 -0.37503,8.26788 0.01661,12.2445c0.21383,2.17114 0.70904,4.46468 1.08945,6.74429c-0.0192,0.4408 -0.03661,0.88106 -0.05391,1.32178l-0.16931,0.6793l0.01255,0.00315c-0.00883,0.01822 -0.01754,0.03642 -0.02625,0.0547c-0.57922,1.21484 -0.46444,2.65054 -0.78697,3.95718c-1.59302,6.45367 -2.782,12.96474 -4.59162,19.36465l0.06172,0.29092l-0.09181,-0.00438l-0.14667,3.12708c-1.89069,4.85145 -3.91523,9.6389 -5.55587,14.56082c0,0 -0.24918,0.74283 -0.05,1.53687c-1.40742,2.56371 -2.8934,5.10493 -4.11452,7.72404c-0.12018,-0.21326 -0.3689,-0.3775 -0.58541,-0.59401c-1.76776,-1.76777 -3.44867,-0.0495 -3.44867,-0.0495l-1.26866,1.44905c-1.31494,2.69807 -3.39215,4.96907 -5.88352,6.64663c0.20917,-0.3424 0.32444,-0.60696 0.5137,-0.89084l0.41869,-2.98883c0,0 -0.00156,-2.50301 -2.50156,-2.50301c-2.5,0 -2.41017,2.45608 -2.41017,2.45608l0.41973,0.21295c-1.0116,1.51738 -2.65462,5.10209 -4.2019,6.71297c-0.83498,0.11808 -1.76364,0.22695 -2.60583,0.2215c0,0 -1.23415,-0.00015 -1.96821,0.86688c-0.04426,0.00246 -0.08856,0.00486 -0.13287,0.00726l0.18107,-0.18765c0.53333,-0.80001 1.47656,-1.44734 1.59949,-2.40094l1.58049,-2.37251c0.2768,-0.40239 0.43842,-0.89068 0.43842,-1.416c0,-1.38071 -1.12045,-2.50255 -2.50116,-2.50255c-0.88153,0 -1.56441,0.41725 -2.00955,1.1065l-1.36809,2.05054c-1.44916,0.92544 -2.887,1.86854 -4.31767,2.82231c-0.03762,0.0259 -1.14358,0.71645 -1.99147,1.3439c0.21381,-0.39041 0.4119,-0.79235 0.6497,-1.16704c0.91513,-1.44193 1.58718,-3.0913 2.80466,-4.28894c0.72145,-0.70969 1.86125,-0.93388 2.50626,-1.7137c2.52842,-3.05685 3.86895,-7.34466 6.45708,-10.47608c0.81033,-0.98044 2.01568,-1.64796 2.64169,-2.75522c2.24644,-3.97345 2.16198,-9.36198 2.69134,-13.64498c0.11568,-0.93591 0.82603,-1.7644 0.83077,-2.70743c0.00583,-1.16002 -0.79814,-2.23025 -0.79926,-3.39028c-0.00141,-1.45553 0.67124,-2.8481 0.79352,-4.29849c0.01163,-0.13793 0.01243,-8.40153 0.01243,-9.22296c0,-5.79154 -0.82655,-12.27051 -0.02491,-18.01038c0.22384,-1.6027 1.20789,-3.02106 1.56096,-4.60033c0.65078,-2.9109 1.41859,-5.80581 2.35671,-8.6372c1.7191,-5.18852 1.65265,-10.83876 3.22405,-16.06103c1.43451,-4.76735 4.00301,-8.90946 5.58109,-13.52453c0,0 0.12272,-0.36759 0.12661,-0.86149c4.06606,-2.40131 7.78004,-5.37923 12.027,-7.49524c0,0 0.43555,-0.21765 0.82592,-0.65272c0.42928,0.41447 0.85504,0.79917 1.27209,1.14981c3.90627,3.28418 8.4432,4.60862 13.1912,6.13343c2.13326,0.01913 4.29186,-0.30181 6.40377,-0.00012c0.96405,0.13772 1.8283,0.82625 2.80213,0.8323c0.84324,0.00523 1.55808,-0.79992 2.40134,-0.79992c0.84328,0 1.55839,0.81944 2.40145,0.8001c0.76902,-0.01765 4.48734,-1.40988 5.50196,-1.69933c2.73864,-0.78127 4.79088,-1.32472 7.04555,-2.53621c0.57012,0.29207 1.42264,0.50288 2.31855,-0.07809c1.49678,1.43711 3.03485,2.88553 4.63025,3.94246c0.78694,0.52134 1.8271,0.52257 2.6712,0.94515c3.34983,1.67703 6.40814,3.70148 10.24985,4.19888c1.97184,0.25531 4.33964,-0.00481 6.75584,-0.57927c-0.03454,0.1656 -0.0526,0.33727 -0.0526,0.51312c0,0.78754 0.36499,1.49053 0.9341,1.94877c-0.61983,5.11089 -0.3271,10.25649 -0.91725,15.40798c-0.27757,2.423 -1.29189,4.72188 -1.59176,7.14222c-0.02443,0.19718 -0.01634,6.33269 -0.01634,6.7075l0.00122,3.20118c0,0 0.00189,2.50198 2.50189,2.50198c1.79599,0 2.30182,-1.29016 2.44424,-2.01683c1.18341,1.28246 2.34721,2.62111 3.4646,4.00554c1.04302,2.32349 2.28654,5.25578 2.42131,5.56862c2.13629,4.95888 2.83923,5.65151 2.7788,10.95684l0.00121,4.60316c0,0 0.00074,2.50236 2.50074,2.50236c2.5,0 2.40422,-2.47128 2.40422,-2.47128l0.09516,-1.17829c0.49284,2.42506 0.71541,4.91533 0.60368,7.44789c-0.00899,0.20361 -0.12512,0.43414 -0.15155,0.6496c-0.30106,-0.60495 -1.09138,-1.93407 -2.94154,-1.31732c-2.3717,0.7906 -1.58063,3.16448 -1.58063,3.16448c0.13601,0.40698 1.47129,4.30626 1.47415,4.71741c0.00971,1.3948 -0.86409,2.65934 -1.41133,3.94234c-1.49608,3.50751 -4.06474,7.81756 -7.15252,10.13782c-1.98841,1.49416 -5.00935,2.08703 -7.32957,2.86048l-0.80938,-0.12824c0,0 -2.50086,0.00328 -2.50086,2.50328c0,2.5 2.40476,2.46957 2.40476,2.46957l2.3903,-0.12745c1.26286,-0.42098 2.71641,-0.77394 4.05016,-1.22618c0.29032,6.76228 1.90574,13.60706 2.72213,20.33068c1.55375,12.79642 2.87589,25.90474 6.10034,38.41917c0.45338,1.75959 1.99621,3.117 2.42306,4.88321c0.20421,0.845 0.26956,1.71823 0.31767,2.59383c-0.88722,1.14879 -0.1622,2.60067 -0.1622,2.60067l-0.00637,-0.08279l0.05573,0.08462c-6.18796,4.2031 -14.51763,4.47745 -21.62515,6.05936c-2.00042,0.44523 -4.07238,0.48954 -6.10562,0.74619c-0.85981,0.10853 -1.60699,0.90646 -2.46914,0.81847c-0.02097,-0.00214 -0.04165,-0.00504 -0.06198,-0.00868c-0.46123,-0.80961 -0.96299,-1.71089 -1.2886,-2.57889c-1.54178,-4.10995 -1.69084,-8.6926 -2.22976,-12.9483c-0.49688,-3.92373 -2.0966,-7.27626 -3.3171,-10.90565c-2.49994,-7.43405 -2.33377,-15.71787 -4.79719,-23.1774c0,0 -0.23496,-0.70551 -0.83348,-1.21866c0.8287,-4.16214 1.8545,-8.28903 3.22375,-12.39364c0,0 0.10395,-0.31315 0.12293,-0.7504c1.19823,0.04804 2.40259,0.2372 3.5749,0.01771c3.09783,-0.58001 5.76834,-1.87867 8.21044,-3.5788l0.10129,0.30325l2.34415,-0.77993c1.02154,-0.31419 1.76246,-1.2624 1.76246,-2.38699c0,-1.38071 -1.02948,-2.45604 -2.41019,-2.45604c-0.09357,0 -0.18602,0.00529 -0.27693,0.01531l-2.99193,0.29502l0.00546,0.05604l-0.13885,-0.03925c-9.74539,2.0216 -20.26943,6.14215 -30.2363,6.1011c0,0 -2.50533,0.00042 -2.50533,2.50042c0,2.5 2.49322,2.40032 2.49322,2.40032c3.71745,-0.01312 7.45266,-0.53554 11.20434,-1.30377c0.71249,0.5092 1.57635,0.51007 1.57635,0.51007l1.58866,-0.12716c0.03204,-0.01067 0.1175,0.06298 0.14946,0.05197c-3.24168,10.66133 -4.51208,21.50735 -5.78233,32.54151c-0.55921,4.85769 -1.91957,9.61007 -2.4162,14.52048c-0.53441,5.28398 -1.16147,10.70654 -2.7089,15.83719l-1.19345,0.39763c-6.46715,2.17035 -14.47109,2.05416 -21.25591,1.38746c-2.42716,-0.2385 -4.74887,-1.17753 -7.16827,-1.48488c-4.86531,-0.61807 -10.0223,0.14909 -14.41497,-2.13168c0.43542,-1.41769 0.84208,-2.84292 1.20738,-4.30416c1.6386,-4.91563 2.68385,-9.74282 3.27934,-14.79423c0.32704,-2.77421 1.47735,-3.98546 2.31457,-6.79334c0.76532,-2.56673 1.07334,-6.37817 1.63702,-8.94743c2.73516,-12.46693 7.11514,-24.62047 9.37649,-37.18148c2.55794,1.1573 5.34335,1.92975 8.2459,2.8997l1.26981,0.6629c0,0 2.23035,1.11565 3.34835,-1.12044c1.118,-2.23608 -1.15579,-3.26165 -1.15579,-3.26165l-1.93271,-0.93852c-3.99441,-1.32835 -7.79877,-2.30207 -11.09237,-4.62004c-0.3453,-0.05867 -0.69332,-0.12346 -1.04143,-0.18523c0.0128,-0.02811 0.02551,-0.05634 0.03822,-0.08447c1.22888,-2.71843 1.703,-5.73494 2.64678,-8.56501c0.30434,-0.91262 0.64644,-1.82251 0.9842,-2.72638l1.10004,-2.20502c0.13449,-0.20678 0.22934,-0.42474 0.29567,-0.6262c0.0004,-0.00067 0.0008,-0.00136 0.0012,-0.00203c0.60856,-1.02883 1.17582,-4.25559 1.5969,-6.87483c0.20435,-0.6527 0.40438,-1.31159 0.5927,-1.96905c1.12952,-0.24054 1.9825,-1.24951 1.9825,-2.45076l0.0045,-4.00332c0.2316,-0.95454 0.01767,-1.95805 -0.02565,-2.94698c-0.00176,-0.15261 -0.00319,-0.30546 -0.00499,-0.45815c0.003,-0.11713 0.01015,-0.23414 0.02184,-0.35054c0.00482,-0.04795 0.01037,-0.0959 0.01634,-0.14371c0.04295,-0.23441 0.08508,-0.47032 0.12472,-0.7072c0.24441,-1.11904 0.67452,-2.2164 0.67497,-3.35718c0.00024,-0.61246 -0.02707,-1.23322 -0.07659,-1.85895c0.02147,-0.11182 0.04365,-0.22372 0.06601,-0.3355l-0.08187,-0.22239c0.00048,-0.00798 0.00096,-0.01597 0.00144,-0.02396l0.09274,-0.00005l0.00084,-1.62638c0.26077,-4.73305 0.49178,-9.5514 1.58894,-14.07895l-0.09143,-0.29698l0.10921,-0.00002l0.00084,-4.00018c0,-0.90105 -0.47737,-1.69061 -1.19232,-2.13056c0.36371,-1.45478 0.72934,-2.91114 1.09365,-4.37066l0.77243,-2.30854c0,0 0.41824,-1.25441 -0.26593,-2.24277c0.95304,-2.7229 2.09634,-5.3595 3.33362,-7.83027l0.33192,-0.15019c0,0 1.77641,-1.66807 0.00871,-3.4359z" fill="#0024a3" stroke-width="0.25"></path>
      <path d="M148.36327,238.25883c3.40631,-2.24827 5.44478,-4.83924 7.83865,-8.13871l1.39954,-2.26005c0.43622,-0.73129 1.2352,-1.22111 2.14857,-1.22111c1.38071,0 2.5,1.11929 2.5,2.5c0,0.45693 -0.12259,0.88523 -0.33666,1.25381l-1.97794,3.56029l-0.22453,-0.12474c-0.21368,0.71023 -0.4659,1.40589 -0.77085,2.07997l-0.74954,3.37298c0,0 -0.39644,1.784 -2.03672,1.96245c0.31168,0.41701 0.49625,0.93457 0.49625,1.49523c0,1.38071 -1.11929,2.5 -2.5,2.5c-0.07984,0 -0.15881,-0.00374 -0.23674,-0.01106l-2.44857,-0.20405c-0.73304,0.61512 -1.71468,0.61512 -1.71468,0.61512l-0.84941,-0.00049c-1.18114,-0.02357 -2.34848,-0.19158 -3.50256,-0.45373l-0.02542,0.38128l-2.97561,-0.19838c-1.08932,0.12379 -2.17521,0.26584 -3.25531,0.42268c-1.61712,0.23483 -3.18756,0.88267 -4.82164,0.88532l-4.86012,0.91127c-0.16463,0.03412 -0.3352,0.05205 -0.50994,0.05205c-0.9891,0 -1.84403,-0.5744 -2.24944,-1.40782c-0.58168,0.24823 -1.16138,0.50215 -1.73988,0.76178c-0.00809,0.00556 -0.01619,0.01112 -0.02428,0.01668c-1.47905,1.43756 -3.25201,2.61357 -5.12294,3.70091c0.02404,0.13921 0.03657,0.28237 0.03657,0.42845c0,0.94658 -0.52608,1.77028 -1.3018,2.19469l-1.82321,1.04182c-0.28078,0.44966 -0.61328,0.71566 -0.61328,0.71566c-1.9879,1.58744 -4.08278,3.01057 -6.17255,4.45034l-1.62552,1.27827l-0.03398,-0.04321l-0.06581,0.11773c-0.04223,0.01094 -0.08447,0.02187 -0.1267,0.03281l0.02332,0.03665l-4.01197,2.55307l-0.58077,0.58993c0,0 -1.76777,1.76776 -3.53553,-0.00001c-1.76776,-1.76777 0.00001,-3.53553 0.00001,-3.53553l0.67907,-0.67022c0.08476,-0.09765 0.17698,-0.18867 0.27575,-0.27216l2.55118,-2.51795c0.13736,-0.02377 0.27471,-0.04754 0.41207,-0.0713l-0.06833,-0.13666l0.18872,-0.09436c0.01517,-0.09121 0.03593,-0.17952 0.06111,-0.26467c-0.27251,-0.4004 -0.43179,-0.88405 -0.43179,-1.4049c0,-0.59805 0.20999,-1.14704 0.56026,-1.57728l1.58755,-1.98445l0.04255,0.03404c0.08558,-0.12544 0.17733,-0.24722 0.27613,-0.36484c0.80682,-0.96055 8.01193,-4.45431 9.23452,-5.10195c1.74723,-0.92557 3.47877,-1.80058 5.21273,-2.62596c0.56345,-0.39653 1.15528,-0.72473 1.82134,-0.87424l1.17817,-0.78544v0l2.37158,-1.58105c0.40239,-0.2768 0.88986,-0.43883 1.41519,-0.43883c0.41299,0 0.80259,0.10014 1.14585,0.27747c2.51297,-0.95534 5.08515,-1.81489 7.76733,-2.58127l2.7445,-0.78414c0.23453,-0.07283 0.48384,-0.11205 0.74232,-0.11205c1.23167,0 2.25532,0.89069 2.46195,2.0631c0.15019,-0.01595 0.30042,-0.0315 0.45067,-0.04664l3.13815,-0.39228c0.11412,-0.01595 0.2307,-0.0242 0.34922,-0.0242c0.61404,0 1.17638,0.22138 1.61155,0.58867c0.29797,-0.36629 0.6017,-0.56879 0.6017,-0.56879z" fill="#001769" stroke-width="0.5"></path>
      <path d="M174.06696,252.35255c-1.50728,-2.34707 -3.29709,-4.65608 -5.16845,-6.85528c-0.60555,-1.25165 -1.18867,-2.32893 -1.62768,-2.90273c-1.28646,-1.68143 -3.39241,-2.59118 -4.89311,-4.08438c-0.01205,-0.01206 -0.02428,-0.02424 -0.03632,-0.03629c0,0 -0.39005,-0.38875 -0.98138,-0.61966c-0.03214,-0.97385 -0.03824,-1.95228 0.08358,-2.91673c0.31055,-2.45874 1.31527,-4.84313 1.59609,-7.30544c0.71704,-6.2872 -0.01262,-12.68246 1.57706,-18.87574c0,0 0.212,-0.84646 -0.11479,-1.66425c0.96117,-0.41763 1.8814,-0.86006 2.72105,-1.30976c1.55552,0.37934 3.38865,0.19415 4.66778,1.15433c0.82382,0.61839 1.38932,3.29567 1.44157,3.91988c0.34723,4.14796 0.37602,7.97708 0.83494,12.10741c0.09312,0.83811 0.69355,1.57648 0.80892,2.41182c0.29848,2.16111 -0.54791,4.37394 -0.81232,6.53948c-0.51539,4.22118 -0.04647,8.87466 -0.04647,13.13082c0,2.4305 -0.17314,4.8904 -0.05047,7.30652z" fill="#0024a3" stroke-width="0.25"></path>
      <path d="M159.98226,232.97118c0.42344,-0.42344 0.84687,-0.64402 1.24601,-0.73463c-0.25607,-1.31463 0.35469,-2.67756 0.42485,-4.02213c0.21051,-4.03406 0.45254,-8.00374 0.93085,-12.00402c0.02092,-0.2114 0.04442,-0.40562 0.0708,-0.57834c0.06867,-0.54815 0.14195,-1.09695 0.22038,-1.64665l0.3948,-2.76362c0.0838,-0.66187 0.42636,-1.24304 0.92312,-1.63896c-0.03213,-0.60845 -0.07601,-1.21445 -0.1328,-1.81754c0,0 -0.22634,-2.48973 2.2634,-2.71607c2.48973,-0.22634 2.71607,2.2634 2.71607,2.2634c0.70217,7.97889 -0.58551,16.32574 -1.6953,24.27918c0.07932,1.02615 0.1919,2.04414 0.34653,3.04785c0.01963,-0.00045 0.03931,-0.00069 0.05905,-0.00069c1.05134,0 1.95112,0.64898 2.32057,1.56817l1.05046,2.45111l2.58867,3.32826c0.33828,0.42644 0.5403,0.96585 0.5403,1.55245c0,0.50048 -0.14706,0.96662 -0.40034,1.35755c0.1957,0.47376 0.38144,0.9565 0.55743,1.45344c0.194,0.5478 0.37615,1.11286 0.54671,1.70221l0.09619,3.0868c0,0 0,2.5 -2.5,2.5c-2.5,0 -2.5,-2.5 -2.5,-2.5l0.09618,-1.71322c-0.05038,-0.17902 -0.10202,-0.35499 -0.15494,-0.52825c-0.81747,-0.55584 -1.06657,-1.55217 -1.06657,-1.55217l-0.21075,-1.08834c-0.38768,-0.77578 -0.99199,-1.49766 -1.42888,-2.2612c-0.65596,-0.12338 -1.22151,-0.50297 -1.58874,-1.03086l-1.23699,-1.73178c-1.99867,0.34345 -2.68103,-1.70364 -2.68103,-1.70364c-0.26666,-0.8 -0.53333,-1.59999 -0.79999,-2.39999l-0.99606,-0.6228c0,0 -1.76776,-1.76777 0,-3.53554z" fill="#001769" stroke-width="0.5"></path>
      <path d="M167.69442,309.84699c-0.36725,-2.67922 -0.65213,-5.40865 -0.64355,-8.05701c0,0 0.00161,-0.21558 -0.05893,-0.51301c2.43954,-1.87495 4.60726,-4.51504 6.29018,-7.3548c0.01629,1.89206 -0.1637,3.80138 0.08613,5.84269c0.20304,1.65902 0.98745,3.35613 0.78577,5.01532c-0.20094,1.65301 -0.62295,7.65961 -3.25313,5.86863z" fill="#0024a3" stroke-width="0.25"></path>
      <path d="M174.86806,293.70288c2.23607,1.11804 1.11803,3.35411 1.11803,3.35411l-0.55594,1.0687c-0.39401,0.57596 -0.57331,1.42237 -1.07749,1.85954l-1.04134,2.77689c-0.34031,0.9763 -1.269,1.67683 -2.36131,1.67683c-0.07448,0 -0.1482,-0.00326 -0.22102,-0.00964l-0.24619,0.29543c-0.4585,0.55817 -1.15405,0.91421 -1.93277,0.91421c-1.38071,0 -2.5,-1.11929 -2.5,-2.5c0,-0.46716 0.12814,-0.90439 0.35118,-1.27847c0.53333,-0.93333 2.64489,-4.62855 3.17823,-5.56189c0,0 0.65713,-1.14997 1.8518,-1.29755l0.08274,-0.18012c0,0 1.11803,-2.23607 3.35411,-1.11804z" fill="#001769" stroke-width="0.5"></path>
      <path d="M86.01197,298.27272c-0.02347,-0.2874 -0.02187,-0.58125 -0.01086,-0.87752c-0.5323,0.60451 -1.06789,1.20164 -1.60783,1.79122zM90.91164,294.72641c1.27236,-0.48007 2.43883,0.49198 2.43883,0.49198c1.52003,1.26873 2.94984,2.55845 4.35229,3.82099c0.01572,-0.00029 0.03147,-0.00043 0.04725,-0.00043c0.24774,0 0.48708,0.03603 0.71304,0.10315l4.24158,1.15679c0.40809,-0.28966 0.90685,-0.45995 1.44539,-0.45995c0.1348,0 0.26711,0.01067 0.39612,0.03121l2.75743,0.39391l-0.00957,0.067l0.17741,-0.03715c2.91078,0.82743 7.48959,1.59802 10.23986,3.50718c2.23888,0.3469 4.44395,0.68568 4.77142,0.73616c3.78032,0.58279 7.92448,1.51928 11.87515,1.47519c1.26918,-0.9029 2.7567,-1.46345 4.27029,-1.9886c1.82056,-0.89164 3.68462,-1.76701 5.52076,-2.32631c0.85039,-0.44023 1.69267,-0.88779 2.52623,-1.34548c0.22889,-0.16141 0.45894,-0.32121 0.68992,-0.47969c0.26711,-0.23196 0.56526,-0.42521 0.88137,-0.59646c1.87551,-1.25372 3.79205,-2.44964 5.63049,-3.75681c0.96811,-0.68835 1.62981,-1.81581 2.69544,-2.33395c1.69649,-1.67962 3.14937,-3.05283 4.75556,-4.34635l0.10258,-0.17951l-0.16057,-0.10705l1.57847,-2.36775c0.44513,-0.68926 1.2201,-1.14553 2.10164,-1.14553c0.80876,0 1.52783,0.38404 1.98478,0.9797l1.04747,-1.04748c0.45241,-0.45241 1.07741,-0.73223 1.76776,-0.73223c1.38071,0 2.5,1.11929 2.5,2.5c0,0.61476 -0.22189,1.17768 -0.58995,1.61306l-1.9895,2.38741l-0.02021,-0.01684c-0.01784,0.03418 -0.03594,0.06826 -0.05429,0.10223c-1.12957,2.09071 -3.48329,4.02466 -5.89234,5.76352l-0.8723,0.99691l-0.04168,-0.03647c-0.07629,0.10442 -0.15505,0.20727 -0.23651,0.30843c-0.25606,0.31799 -0.63014,0.65799 -1.08555,1.01109c-0.15392,0.24468 -0.34906,0.4608 -0.57569,0.63862l-1.99237,1.59125l-0.06337,-0.07934l-0.11288,0.20792c-0.74075,0.40562 -1.50063,0.77703 -2.27547,1.11769c0.62198,0.16607 1.4722,0.59364 1.72699,1.69455c0.30006,0.25687 0.53856,0.58357 0.6903,0.95495c0.26257,-0.1576 0.55647,-0.26837 0.87014,-0.32073l2.67122,-1.64296c0.38801,-0.24771 0.84896,-0.39127 1.34344,-0.39127c1.38071,0 2.5,1.11929 2.5,2.5c0,0.75529 -0.33494,1.43235 -0.86438,1.89076l-2.22432,1.94627c0.15297,0.17519 0.29627,0.38792 0.42479,0.64497c1.11801,2.23608 -1.11807,3.35409 -1.11807,3.35409c-3.76789,1.85689 -6.36028,4.76378 -9.58989,7.38632c-4.05052,3.28916 -8.23728,6.59337 -12.55497,9.5282c0.26622,0.51851 0.31443,1.00064 0.31443,1.00064c0.48171,4.90226 2.12515,9.43229 2.78784,14.29922c0.55089,4.04586 -0.04434,8.21931 0.76637,12.21322c0.80364,3.95906 1.85518,7.73742 2.43307,11.78276c0.09775,0.68427 0.88595,6.04456 0.82502,6.37547c-1.16377,6.31959 -2.43174,7.05558 -7.74833,1.8112c-2.19187,-2.1621 -2.5346,-8.22848 -2.81452,-11.00445c-2.40387,-9.55131 -5.20789,-18.87279 -6.43222,-28.67333l0.04005,-0.15535h-0.04488v-2.72404c-0.40947,-0.07235 -0.77264,-0.24165 -1.0717,-0.53178c-0.6675,-0.64759 -0.8389,-1.55209 -0.82185,-2.53638c-0.75378,1.54999 -1.78597,2.8716 -3.40212,3.66176c0.43089,0.44916 0.69568,1.05888 0.69568,1.73045v4.79999h-0.04248c0.01094,0.08195 0.02106,0.16406 0.03032,0.24635c0.04068,0.36152 0.05728,0.72234 0.05378,1.08252c0.96555,0.8677 0.72281,2.29134 0.72281,2.29134l-0.51159,2.82696c-1.23529,3.70505 -2.66375,7.35287 -3.94111,11.04649c-0.75066,3.11406 -1.48746,6.23129 -2.11924,9.38216l-0.23354,1.92174c0.04106,0.24093 0.04106,0.40245 0.04106,0.40245l-0.02923,0.8165c0.01925,0.12502 0.02923,0.25311 0.02923,0.38351c0,0.10573 -0.00657,0.20992 -0.01931,0.3122l-0.05139,0.46254l-0.02549,0.71206l-0.08776,0.30716l-0.23136,2.08211l-0.13129,-0.01459l0.07804,0.31991c-0.06543,0.08558 -0.13086,0.17117 -0.1963,0.25675l0.10567,0.03963l-1.17949,3.14536c-0.31251,0.89655 -1.12118,1.56056 -2.09712,1.66306l-0.65352,2.17837c-0.29105,1.05813 -1.2601,1.83542 -2.4107,1.83542c-1.38071,0 -2.5,-1.11929 -2.5,-2.5c0,-0.13481 0.01068,-0.26712 0.03122,-0.39615l0.35817,-2.50707c-0.35966,-2.73909 -0.52531,-5.483 -0.55287,-8.23018c-0.39583,-0.44229 -0.6365,-1.02633 -0.6365,-1.66658c0,-0.15625 0.01433,-0.30915 0.04176,-0.45745l0.77543,-4.65268c0.60587,-10.3163 2.50708,-20.66025 2.75598,-30.94906c-1.37506,-0.18964 -2.74904,-0.38249 -4.09361,-0.71904c-3.75751,-0.94052 -7.14996,-2.74196 -10.73848,-4.10917c-4.61589,-1.75863 -7.62272,-2.76997 -11.39329,-5.9512c-0.67783,0.28207 -1.64668,0.37521 -2.61553,-0.59364c-1.76778,-1.76776 -0.00002,-3.53553 -0.00002,-3.53553l0.59607,-0.22283c0.15898,-0.4686 0.27688,-1.01637 0.37118,-1.61169c-0.33567,-0.85319 -0.07773,-1.57633 0.2467,-2.07357c0.21994,-2.28677 0.38527,-4.73032 1.21825,-6.02389c2.43289,-3.77812 7.34886,-2.96863 10.881,-1.88657c1.75573,0.53787 3.24137,1.7863 4.99029,2.33696c-2.88759,-1.95126 -5.3795,-4.29481 -7.89806,-6.65565c-0.31915,0.34584 -0.7347,0.60137 -1.20399,0.72396l-2.74686,0.78482l-0.02672,-0.09352c-0.3103,0.09319 -0.62952,0.15379 -0.96041,0.1716c-3.55263,0.19134 -4.64852,-2.92496 -5.85126,-5.20549c-0.30948,0.33447 -0.62045,0.66646 -0.93313,0.99594c-0.40559,3.2362 -3.84089,8.4766 -5.19531,10.65265l-2.73886,1.15184c-0.40799,0.49306 -0.83797,0.95126 -1.29166,1.36591c-2.04257,1.86683 -4.71403,3.05962 -7.24628,4.28968c-0.19379,0.89346 -0.86522,1.60884 -1.73353,1.86542l-2.67359,0.85824l-0.00424,-0.01319c-0.03131,0.0147 -0.06293,0.0287 -0.09488,0.04195l-0.00129,0.00117c-0.00115,0.00027 -0.0023,0.00053 -0.00346,0.00079c-0.10507,0.04329 -0.21372,0.07841 -0.32682,0.10343c-0.07057,0.01561 -0.14125,0.03056 -0.21201,0.04488l0.02197,0.04943l-3.55035,1.57794c-0.3231,0.15236 -0.68409,0.23753 -1.06499,0.23753c-0.69064,0 -1.31587,-0.28006 -1.76832,-0.7328c-0.93298,0.12786 -1.86832,0.23613 -2.80534,0.3225c0,0 -2.48974,0.22634 -2.71607,-2.2634c-0.01273,-0.13996 -0.01687,-0.27277 -0.01335,-0.39879c-0.81654,0.08419 -1.62457,0.16849 -2.42084,0.25716c0,0 -2.48472,0.27608 -2.76079,-2.20863c-0.27607,-2.48471 2.20864,-2.76078 2.20864,-2.76078c3.38724,-0.37546 7.17444,-0.62223 10.89337,-1.21069l1.82099,-1.45677l0.02649,0.03312c0.04652,-0.05304 0.09398,-0.10539 0.14243,-0.15701c0.97026,-1.03362 2.49792,-1.34362 3.71408,-2.07215c0.56115,-0.33616 1.11388,-0.67492 1.6598,-1.01778c-1.6732,-2.36138 0.97679,-6.13216 2.03984,-7.56151c0.32228,-0.43333 0.65278,-0.85373 0.99088,-1.2625c-0.19868,-0.35854 -0.31181,-0.77106 -0.31181,-1.21c0,-0.74167 0.32295,-1.40789 0.83592,-1.86573l3.70814,-3.33733l0.02584,0.02871c0.04802,-0.05708 0.09663,-0.11374 0.14587,-0.16994c1.12278,-1.28184 2.93346,-1.73936 4.34114,-2.69967c1.04028,-0.70968 2.21451,-1.5986 3.39311,-2.52474c-0.23978,-0.34279 -0.39578,-0.74851 -0.43827,-1.18743c-0.49891,-0.45705 -0.81175,-1.11393 -0.81175,-1.84387c0,-0.47473 0.13233,-0.91855 0.3621,-1.2966l0.63267,-1.08459c-1.60421,-1.86998 0.25897,-3.50026 0.25897,-3.50026l3.46178,-3.00019c0.11656,-0.01117 0.2331,-0.02235 0.34966,-0.03352l-0.06384,-0.13049l2.20163,-1.07713c0.00369,-0.07643 0.01083,-0.15196 0.02124,-0.22643l0.39512,-3.16088l0.04816,0.00602c-0.00313,-0.08285 -0.005,-0.16583 -0.00554,-0.24895c-0.01478,-2.2991 1.41812,-4.37515 2.04975,-6.58583l0.03948,-0.04407l-0.02287,-0.00762l0.63932,-1.91801c0.11903,-0.98786 0.20084,-1.97625 0.23297,-2.9604l-1.78529,-0.20712c0.76063,-6.84365 1.05451,-13.65182 2.38914,-20.32733l-0.80444,-0.1966c0,0 0,-0.88196 0.52384,-1.59819c0.81123,-2.52089 1.54314,-5.06188 2.27616,-7.60326v-3.99855h0.04528c-0.01108,-0.09403 -0.02085,-0.18833 -0.02923,-0.28289c-0.06987,-0.78839 0.08011,-1.56188 0.30228,-2.33047c-0.11619,-1.31818 -0.37763,-2.61956 -0.95916,-4.10883c0,0 -0.87781,-2.34082 1.463,-3.21864c0.71773,-0.26915 1.29792,-0.23571 1.75744,-0.05993c0.45859,-0.54956 1.14865,-0.89924 1.92038,-0.89924c0.58939,0 1.13114,0.20396 1.55853,0.54514c0.26295,-0.09397 0.54624,-0.14515 0.84148,-0.14515c1.38071,0 2.5,1.11929 2.5,2.5c0,0.33108 -0.06436,0.64713 -0.18125,0.93632l-1.25662,3.33077l-0.01602,-0.00605l0.00067,0.04572c-0.00933,0.01147 -0.01866,0.02293 -0.028,0.0344l0.01198,0.00499l-0.24399,0.58555c0.10652,1.83259 -1.45367,3.55421 -1.98648,5.36727c-0.20973,0.71369 -0.41707,1.4279 -0.62366,2.14223l-0.09657,0.67596c-0.05075,0.40079 -0.19638,0.77199 -0.41367,1.09038c-0.03937,0.13617 -0.07875,0.27233 -0.11817,0.40848c0.32316,0.87553 0.02348,1.77454 0.02348,1.77454c-2.0823,6.23871 -2.68024,12.67595 -3.24872,19.15914c0.82066,0.6439 0.9577,1.74018 0.9577,1.74018c0.29557,2.49025 0.24869,5.00377 -0.01252,7.51011c0.02094,0.13024 0.03182,0.26384 0.03182,0.39998c0,0.07382 -0.0032,0.14688 -0.00947,0.21907l-0.38137,4.95794l-0.03578,-0.00275c0.00347,0.07566 0.00623,0.1514 0.00825,0.22722c0.04389,1.64608 -0.86918,3.1772 -1.25001,4.77923c-0.41068,1.72762 -0.7798,3.46463 -1.14081,5.20346c0.00608,0.07114 0.00919,0.14312 0.00919,0.21583c0,0.42966 -0.10839,0.834 -0.29931,1.18718c-0.10952,0.53048 -0.21912,1.06093 -0.32975,1.59115c0.18198,0.13263 0.34538,0.28924 0.48553,0.46519c0.57498,0.45803 0.94351,1.16422 0.94351,1.95648c0,0.46715 -0.12813,0.90439 -0.35117,1.27847l-1.57821,2.76188l-0.05875,-0.03357l-0.02152,0.16453c-0.4559,0.61101 -0.9102,1.22301 -1.36383,1.83532c0.3582,0.43261 0.57349,0.98785 0.57349,1.59338c0,0.41755 -0.10237,0.8112 -0.28337,1.15721c1.09454,0.21675 1.55298,1.00662 1.74498,1.63025zM100.96722,314.8985c0.27491,-0.09157 0.43847,-0.14604 0.44394,-0.14786l0.05759,0.00386l-0.00315,-0.01103c-0.21079,-0.05958 -0.41591,-0.12225 -0.61624,-0.18746c0.04722,0.11031 0.08673,0.2247 0.11786,0.3425z" fill="#001769" stroke-width="0.5"></path>
      <path d="M120.56462,122.54024c0.1073,-0.32188 0.15675,-0.61471 0.16138,-0.88032c0.28038,-0.11445 0.4547,-0.2303 0.4547,-0.2303c2.42732,-1.64872 5.35497,-2.14984 7.51294,-4.23759c1.21241,-1.17294 2.27668,-2.48872 3.34564,-3.79785c0.77257,1.37367 2.20784,2.38596 4.08843,2.80911c4.30757,0.96926 8.27798,-1.91634 12.16118,-3.62002c-1.5008,1.65954 -2.72525,3.57214 -2.94398,4.83952c-0.23566,1.36552 2.00514,7.92464 2.89872,9.05407c0.21247,0.26855 0.46228,0.49999 0.73221,0.70846l-0.1303,1.45571c5.97036,3.98032 13.65134,8.0264 16.71585,14.95431c0.62143,1.40486 0.71992,2.89257 0.68027,4.39374c-0.40836,-0.62883 -1.05421,-1.20506 -1.77251,-1.76412c-3.84998,-2.99649 -9.29033,-0.58412 -10.2981,4.03192c-0.53585,2.45439 2.16005,6.73561 3.48359,8.7576c-1.41542,-0.3543 -2.84959,-0.54536 -4.30073,-0.50969c-3.20306,0.07875 -7.66145,3.61167 -10.10269,5.23889c-3.35249,2.23462 -7.24773,4.16014 -10.48962,6.47158c-1.99591,1.42307 -3.60901,3.36425 -5.60097,4.79282c-1.98209,1.42148 -4.58641,1.84692 -6.54654,3.29854c-0.97177,0.71968 -1.40598,1.96904 -2.10764,2.9539c0,0 -1.1276,1.63228 0.24529,2.98854c-0.23308,0.12271 -0.49476,0.39333 -0.73212,0.6307c-1.76776,1.76778 0.02394,3.43844 0.02394,3.43844c3.31778,3.29565 7.31927,5.43172 10.99788,8.1879c-1.89411,1.0272 -3.51516,1.44789 -5.94319,2.14264c-1.39946,0.40044 -2.65068,1.54641 -4.10555,1.49985c-0.84284,-0.02697 -1.55954,-0.80048 -2.40282,-0.80048c-0.84326,0 -1.55908,0.79326 -2.40232,0.79944c-0.71394,0.00524 -1.29507,-0.66738 -2.00185,-0.76835c-0.60192,-0.08599 -5.46361,-0.01318 -6.40606,-0.00231c-2.07922,-0.7283 -4.54787,-1.19824 -6.50826,-2.18147c-4.35005,-2.18176 -6.81702,-5.63237 -9.42883,-9.55006c-1.75695,-2.6354 -3.96299,-5.36169 -4.41837,-8.62208c-0.2951,-2.11282 0.29028,-4.29271 -0.00281,-6.40581c-0.84966,-6.12579 -1.39719,-12.84251 0.70043,-18.83105c1.08081,-3.25006 1.53466,-7.03074 3.07677,-10.10543c1.53026,-3.05108 4.36413,-6.58953 6.72885,-8.94364c0.68139,-0.67834 1.72248,-0.92312 2.40235,-1.60299c1.97467,-1.97467 3.55313,-4.39299 5.95526,-6.04913c1.32201,-0.91145 3.15483,-0.76331 4.58961,-1.48434c2.52301,-1.2679 5.72949,-2.64432 8.52267,-1.47855c0,0 2.37667,0.7896 3.16725,-1.5821z" fill="#0024a3" stroke-width="0.25"></path>
      <path d="M151.17325,134.49767c-0.65169,-0.65215 -1.33223,-1.14435 -1.95154,-1.58684l-2.74949,-1.03106l0.06488,-0.17301c-0.14796,-0.00223 -0.29593,-0.00447 -0.44389,-0.0067l-0.23405,-0.37204l-0.10958,0.13149l-2.38536,-1.98777c-0.29501,-0.24233 -0.53356,-0.55088 -0.69292,-0.90293c-0.94637,-0.84133 -1.81144,-1.76798 -2.55562,-2.77676c0,0 -1.4531,-2.03433 0.58124,-3.48743c2.03433,-1.4531 3.48743,0.58124 3.48743,0.58124c0.65067,0.95294 1.47623,1.79216 2.39548,2.51872l1.85699,0.53056l-0.03036,0.10627c0.16385,0.01969 0.32729,0.0448 0.49029,0.07605c1.01781,0.19514 1.66182,1.24042 2.45767,1.90423c2.03592,1.69814 3.61139,3.89854 5.62593,5.62198c1.8049,1.54409 3.9107,3.15735 5.97045,4.59983c1.75689,-0.37947 2.63531,1.37743 2.63531,1.37743c0.07505,0.15158 0.14916,0.30371 0.22228,0.45638c0.43865,0.37661 0.97092,1.03736 0.88063,1.98224c0.59668,1.45621 1.09934,2.95209 1.48635,4.47306l0.07465,2.60635c0,0 0,0.28762 -0.09756,0.66775c0.10353,1.83123 0.10901,3.65965 0.10364,5.50186c1.72817,1.53952 0.24608,3.39213 0.24608,3.39213c-0.02291,0.02857 -0.04581,0.05716 -0.06871,0.08573c0.54863,1.07855 -0.04738,2.27057 -0.04738,2.27057l-1.84548,2.05366l-2.34464,0.78154c-0.2642,0.09499 -0.54903,0.14675 -0.84593,0.14675c-1.38071,0 -2.5,-1.11929 -2.5,-2.5c0,-0.52532 0.16203,-1.01279 0.43883,-1.41518l1.58102,-2.37156l0.03034,0.02023l0.03174,-0.10912c0.10611,-0.13288 0.21221,-0.26574 0.31832,-0.39862c0.00616,-3.42013 0.11799,-6.77788 -0.37512,-10.17221c0,0 -0.054,-0.37804 0.02795,-0.85972c-0.27971,-0.89524 -0.6084,-1.77671 -0.97827,-2.63957c-3.93616,-2.65122 -7.42919,-5.77079 -10.75159,-9.09553z" fill="#001769" stroke-width="0.5"></path>
      <path d="M105.07867,126.27797c1.43695,-1.24209 2.98105,-2.35314 4.63099,-3.30962c0,0 2.17061,-1.24034 3.41096,0.93027c1.24035,2.17061 -0.93026,3.41096 -0.93026,3.41096c-1.09361,0.61388 -2.03329,1.29064 -2.88493,2.02621c-0.30939,0.71799 -0.96432,1.10859 -1.35533,1.28608c-1.19058,1.23071 -2.2599,2.59525 -3.44791,4.07883c-7.56405,9.446 -10.55993,24.19062 -7.22222,35.93195c1.6401,3.24911 3.13638,6.51491 5.00162,9.59999c1.34945,2.23197 3.64973,3.74608 5.53575,5.4435c4.52898,4.07607 9.29689,7.38759 15.48623,8.18795v0l2.76363,0.39479c1.23096,0.15584 2.18284,1.20679 2.18284,2.48007c0,0.998 -0.58478,1.85942 -1.43039,2.26029l-2.35156,1.17579l-0.03279,-0.06558c-0.11737,0.07797 -0.23751,0.15221 -0.36079,0.22225c-1.35491,0.76983 -4.96062,0.39634 -6.56912,0.50243c-5.31587,0.35061 -10.32976,1.43267 -15.63035,-0.08802c-1.91269,-0.54873 -3.57757,-1.75389 -5.4313,-2.47721c-2.16312,-0.84403 -4.51947,-1.81751 -5.92181,-3.66817c-2.29137,-3.02391 -2.97094,-7.49517 -4.30183,-10.95548c-1.314,-3.41638 -2.65813,-6.66705 -3.67387,-10.21951c-0.55285,-1.94884 -1.40528,-4.39681 -1.29039,-6.45716c0.05404,-0.96918 0.7262,-1.83213 0.8,-2.8c0.1467,-1.92407 -0.63884,-3.86395 -0.38164,-5.77639c0.28579,-2.12497 0.69108,-4.24065 1.26285,-6.30711c0.56685,-2.04865 2.01703,-3.74307 2.96719,-5.64451c4.16979,-8.34449 8.70579,-15.33076 17.33949,-19.63155z" fill="#001769" stroke-width="0.5"></path>
      <path d="M347.6805,379.34607c0,-0.52061 -0.10983,-0.93344 -0.2815,-1.2598c0.26537,-0.48203 0.49245,-1.19635 0.18438,-1.97519c1.13855,-2.32112 2.21966,-4.65432 3.1407,-7.10695c0.83325,-2.21884 1.23046,-4.85048 2.29146,-6.96596c1.21148,-2.41553 2.05561,-2.19642 3.23233,-4.89481c0.44732,-1.02578 0.39755,-2.31229 0.85092,-3.33542c1.12057,-2.52885 3.01603,-4.69119 4.04847,-7.25729c1.70839,-4.24617 3.35301,-8.4685 4.80692,-12.81324c0,0 0.38253,-1.14078 -0.07852,-2.07524c0.63323,-0.11306 1.27831,-0.24173 1.91571,-0.38506c-0.22801,2.27051 -0.02839,4.44301 -0.2584,6.97312c-0.24978,2.74758 -1.33701,6.01924 -1.5868,8.76681c-0.24265,2.66904 0.28282,5.40492 0.01205,8.07126c-0.45821,4.51215 -0.9921,9.05699 -1.60215,13.45527c-0.40416,2.9139 -0.17851,5.55497 -0.71386,8.41392c-0.07164,0.38258 0.47613,1.03198 0.10948,1.16262c-0.68558,0.24428 -1.4183,-0.50572 -2.14299,-0.43862c-0.18214,0.01686 -4.81964,1.56938 -5.20178,1.69676c-2.09235,0.70222 -6.85814,2.28433 -8.81806,0.73673c0.05878,-0.22558 0.09163,-0.48072 0.09163,-0.76891z" fill="#d38133" stroke-width="0.5"></path>
      <path d="M320.78106,370.47873c-0.64157,0.24632 -3.06869,1.0045 -4.16404,0.24068l1.99324,-1.38338l1.60295,-2.47359c0,0 0.67928,-1.36644 -0.08833,-2.49662c1.62453,-3.17773 3.52008,-6.1127 5.17781,-9.37823c4.58395,-9.02983 9.42211,-18.04352 13.99501,-27.10469c0.78995,0.30001 1.60915,0.55707 2.44018,0.77754c-4.18738,8.66619 -6.66949,17.54125 -9.3143,26.78456c-0.99327,3.47135 -2.05191,6.88477 -3.19513,10.31448c-0.44803,1.34411 -0.44793,2.88375 -1.21804,4.07298c-0.96389,1.48849 -6.04522,0.63564 -7.22937,0.64626z" fill="#d38133" stroke-width="0.5"></path>
      <path d="M371.46142,258.68873c0.00224,0.34647 0.09641,0.65394 0.09865,1.00042c-0.11099,0.32999 -0.24811,0.62622 -0.41005,0.88793l-0.13775,-0.00812c0,0 -0.08035,0.16425 -0.15512,0.42266c-1.2747,1.56915 -3.55487,1.98013 -5.56254,3.57537c-0.62934,0.50005 -0.71528,1.66065 -1.46531,1.94975c-0.51367,0.198 -0.90161,-0.75771 -1.4463,-0.8376c-1.19098,-0.1747 -2.48283,0.42838 -3.63406,0.0768c-1.07585,-0.32856 -2.17696,-1.20292 -3.23111,-2.24582c1.19866,-0.15639 2.33549,-0.50356 3.45851,-0.9201c0.14895,-0.01336 0.29415,-0.04074 0.43442,-0.07908l3.15873,-0.81931l-0.00836,-0.03615l0.10332,0.00871c0.711,-0.23889 1.47499,-0.51182 2.16582,-0.80273l0.01168,0.06527l4.77502,-0.77255c0.87593,-0.13012 1.5123,-0.67399 1.84445,-1.46546z" fill="#d38133" stroke-width="0.5"></path>
      <path d="M352.48501,257.91676c0.17503,-0.16638 0.27028,-0.29441 0.27028,-0.29441c0.75709,-1.02408 1.58585,-2.01529 2.49102,-2.92004c0.84567,-0.32675 1.72472,-0.61315 2.35863,-1.23673c0.03769,-0.03707 0.07492,-0.07585 0.11183,-0.11358l0.02007,0.03047l2.38161,-1.61548c0.68925,-0.44513 1.17712,-1.2353 1.17712,-2.11683c0,-0.11139 -0.00718,-0.22108 -0.0213,-0.32862c0.71308,-0.57145 1.47558,-1.03317 2.26775,-1.27568c0.59088,-0.18089 1.62153,-0.0283 2.58351,0.17944c0.08371,0.20052 0.19614,0.39115 0.32657,0.5612l1.46722,1.95895l-0.10872,0.05446l1.57889,3.17459c0.23888,0.50394 0.64042,0.92096 1.13788,1.17107c0.07327,0.14607 0.1465,0.29408 0.21981,0.44026c-0.00841,0.03665 -0.01588,0.07366 -0.02216,0.10989c-0.01843,-0.01352 -0.13353,-0.05307 -0.15236,-0.06609c-0.65211,-1.24273 -2.12342,-1.22095 -2.12342,-1.22095l-2.09117,0.05268c-1.47041,0.30655 -3.20692,0.11777 -4.45303,0.95637c-0.1186,0.07982 -0.24284,0.16264 -0.35723,0.24744l-0.03616,-0.05898l-3.99115,2.36443c-0.03695,0.02131 -0.07353,0.04333 -0.10926,0.06644c-1.67451,0.47585 -3.33956,0.59134 -4.92624,-0.12033z" fill="#d38133" stroke-width="0.5"></path>
      <path d="M392.7778,239.88978c-2.71353,1.23983 -4.89134,1.90695 -7.82382,1.97653c0.34069,-2.29909 -0.10023,-4.49948 0.26378,-6.9649c0.34828,-2.35886 0.73301,-4.77449 1.0895,-7.15212c2.58042,1.58261 5.09595,2.14889 8.20634,3.18764l0.79174,0.41654c-0.33528,2.6155 -0.68516,5.27078 -1.17424,7.83916c-0.67234,0.1355 -1.19024,0.55206 -1.3533,0.69717z" fill="#00629e" stroke-width="0.5"></path>
      <path d="M336.44986,240.62582c-0.09514,-2.62404 -0.4001,-5.09936 -0.76645,-7.77257c0.32091,-0.19423 0.51999,-0.39304 0.51999,-0.39304l0.54266,-0.53919c1.10283,-1.10849 2.25142,-2.04309 3.42981,-2.92249c-0.22966,1.58261 -0.64238,3.1651 -0.63895,4.76173c0.00491,2.28743 1.13423,4.7681 1.28384,7.05734c-0.15143,0.0008 -0.24559,0.01308 -0.24559,0.01308l-1.38704,0.29071c-0.90508,-0.16456 -1.8332,-0.331 -2.73828,-0.49557z" fill="#00629e" stroke-width="0.5"></path>
      <path d="M361.80046,224.62064c1.49187,-0.14578 3.01376,-0.21782 4.5131,-0.23372c-0.11741,5.98933 0.40573,12.0101 0.40573,18.15927c0,0 -0.00091,0.37211 0.14244,0.8289c-1.53659,-0.3387 -3.11163,-0.48054 -4.79344,-0.01836c-0.81586,0.22421 -1.50851,0.75177 -2.19313,1.27482c2.44372,-4.27281 1.42878,-11.31216 1.40757,-15.77846c-0.00675,-1.4211 0.27787,-2.82635 0.51772,-4.23245z" fill="#00629e" stroke-width="0.5"></path>
      <path d="M387.07469,325.89824c-1.41665,-0.85119 -2.02489,-2.10748 -2.7035,-3.49484c7.99003,-6.69403 11.85512,-16.9216 14.43428,-27.25408c1.50423,-4.67941 1.1212,-8.96121 -0.26292,-13.15919c1.57534,2.36037 3.02384,4.72022 4.5104,7.31708c2.59921,4.54053 4.77407,9.70882 5.30845,15.03027c0.14416,1.43557 -0.25956,2.93962 0.0543,4.34786c0.47616,2.13649 2.09157,3.97332 2.34495,6.14752c0.50342,4.31973 -0.10101,8.47463 -1.12276,12.59319c-0.50386,0.29057 -1.07507,0.49259 -1.51475,0.87338c-0.20483,0.17739 -0.21222,0.9722 -0.34605,0.7366c-1.43063,-2.5186 0.67211,-6.04676 -5.77661,-4.85206c-1.40722,0.2607 -1.48554,2.45212 -2.24136,3.66743c-0.36309,0.58382 -0.82852,1.11042 -1.12477,1.73083c-0.13318,0.2789 -0.03682,1.20682 -0.1423,0.9163c-0.51328,-1.41372 -1.92138,-6.3849 -3.38127,-6.98513c-4.38795,-1.80408 -4.43262,1.69636 -7.13281,2.964c-0.32305,0.15166 -0.59739,-0.39534 -0.90329,-0.57915z" fill="#53cbf0" stroke-width="0.5"></path>
      <path d="M344.79623,278.51949c-0.53634,4.00731 -1.05702,8.07417 -2.64766,11.73327c-0.37071,0.85278 -1.14354,1.48244 -1.55742,2.31512c-2.39768,4.8238 -3.58841,10.46672 -5.6984,15.42534c-1.28251,3.014 -2.8088,5.08665 -3.80591,8.08067c-0.18084,-0.02471 -0.29677,-0.02486 -0.29677,-0.02486l-1.59453,0.1273c-0.80001,0.26666 -1.62362,0.48095 -2.40491,0.79829c-0.5596,0.22731 -1.90774,1.30421 -1.64737,0.75921c0.21445,-0.44889 0.94189,-0.6919 0.90371,-1.1879c-0.0103,-0.13381 -0.02331,-0.26749 -0.0379,-0.40065l0.06986,0.00007l-0.00461,-4.00244c0,-1.21739 -0.878,-2.23736 -2.03029,-2.46025c2.26034,-2.6549 4.43401,-5.39345 5.80018,-8.54429c0.40553,-0.9353 0.17886,-2.1205 0.68129,-3.00752c1.02218,-1.80462 3.00119,-3.02985 4.03818,-4.826c1.58434,-2.74419 2.51958,-6.0095 4.58638,-8.46699c1.7766,-2.11244 3.69638,-4.24858 5.64616,-6.31838z" fill="#53cbf0" stroke-width="0.5"></path>
      <path d="M340.85405,245.72427c0.25734,0.28104 0.62747,0.52687 1.14357,0.6989c2.21813,0.73936 3.06727,-1.28864 3.16613,-1.55422l0.2341,3.20657c2.9038,0.70998 6.27128,1.24657 9.21047,0.46721c-0.49277,0.44724 -0.95639,0.90294 -1.40256,1.37454c-0.22448,0.15473 -0.5236,0.38002 -0.74935,0.52929l-0.15082,-0.1886l-3.88436,3.11107c-0.5823,0.45772 -0.87955,1.10521 -0.87955,1.90332c0,0.80615 0.38993,1.55184 0.98231,2.00901c-0.19205,0.16202 -0.37973,0.37928 -0.55518,0.64247c-0.00636,0.00955 -0.01277,0.01954 -0.01899,0.02907c-0.15542,0.10481 -0.31446,0.24138 -0.47112,0.39803c-1.76779,1.76775 -0.07214,3.47396 -0.07214,3.47396c2.27312,2.27319 4.9167,5.80691 7.87576,7.70425c-1.27909,-0.5149 -2.55977,-1.09348 -3.8141,-1.40295c-3.44469,-0.84987 -8.29974,-2.23444 -10.92871,-4.95271c-0.66842,-0.69112 -0.93416,-1.73502 -1.61414,-2.41477c-2.42795,-2.42713 -5.42039,-3.23391 -4.88653,-7.60786c0.25156,-2.06108 1.88571,-5.14771 2.79604,-7.45969c0.47441,0.08625 0.95222,0.1704 1.42663,0.25665z" fill="#53cbf0" stroke-width="0.5"></path>
      <path d="M351.60002,193.80001c-2.5,0 -2.5,-2.5 -2.5,-2.5v-0.79999c0.20208,-2.38219 -0.21873,-4.6603 -3.74329,-3.29031c-0.59807,0.23247 -2.6934,3.59954 -2.8766,3.87708c0,0 -1.38676,2.08012 -3.46688,0.69336c-2.08012,-1.38676 -0.69335,-3.46688 -0.69335,-3.46688c1.12856,-1.67866 3.14656,-5.11075 5.1234,-5.72295c4.41658,-1.36774 8.34563,-0.5011 10.46643,3.75298c0.61884,1.24132 0.12686,2.77114 0.19029,4.15671v0.79999c0,0 0,2.5 -2.5,2.5z" fill="#000000" stroke-width="0.5"></path>
      <path d="M380.51326,193.70382c-2.40381,-0.68679 -1.71702,-3.09061 -1.71702,-3.09061l0.22638,-0.79235c0.48549,-1.5448 2.72558,-3.95928 1.27879,-4.68655c-1.25794,-0.63234 -4.27929,0.1872 -5.1146,1.2832c-1.10957,1.45585 -0.77857,3.57741 -1.13534,5.37278c0,0 -0.49028,2.45146 -2.94173,1.96117c-2.45146,-0.49029 -1.96117,-2.94173 -1.96117,-2.94173c0.26304,-1.30749 1.00201,-6.12454 2.06473,-7.42721c2.57888,-3.16116 9.09591,-4.86107 12.48537,-1.91681c3.1422,2.72948 0.88346,6.88913 0.13159,9.72875l-0.22638,0.79235c0,0 -0.6868,2.40381 -3.09061,1.71702z" fill="#000000" stroke-width="0.5"></path>
      <path d="M160.97994,155.21479c-0.19461,-0.27731 -0.38919,-0.56201 -0.5409,-0.8645c-0.54349,-1.08361 -1.36388,-2.24296 -1.39633,-3.4548c-0.02678,-0.99987 1.91046,-1.24027 2.45579,-0.75695c1.34431,1.19143 0.70198,3.12434 0.33817,4.58733l-0.85674,0.48894z" fill="#ffffff" stroke-width="0.5"></path>
      <path d="M134.18833,194.305c-3.13737,-2.68184 -6.73949,-4.62259 -9.95473,-7.11385c0.08757,-0.04736 0.16899,-0.09972 0.24444,-0.15536c7.49225,1.20066 15.15129,-0.57182 22.51356,1.8884c9.14702,3.04893 18.59403,5.65688 28.20712,5.76857l-1.53542,1.02564c-2.40002,1.59997 -4.80172,3.21362 -7.20172,4.81362c-2.37093,1.63223 -4.70162,2.02389 -7.41298,2.92659c-2.23246,0.74326 -4.40551,1.91639 -6.83467,1.52099c-3.43555,-0.55921 -5.95793,-2.29764 -9.00852,-3.82078c-0.66471,-0.33189 -1.51882,-0.249 -2.1355,-0.66334c-2.41362,-1.62168 -4.65712,-4.28898 -6.8816,-6.19047z" fill="#bd7614" stroke-width="0.5"></path>
      <path d="M129.99422,179.04508c2.00882,-1.43002 3.61294,-3.38903 5.61803,-4.82428c3.18884,-2.28258 7.03929,-4.17709 10.34921,-6.3841c0.76415,-0.50952 5.92929,-4.46329 7.53299,-4.38936c6.76662,0.31194 13.19277,5.75951 18.99743,8.64975c5.99499,1.95399 7.84728,5.62241 9.78505,11.30427c0.32985,0.96718 1.6641,4.55836 0.60137,5.4495c-1.32742,1.1131 -5.44038,0.87396 -7.03536,0.87396c-9.29348,0 -18.43792,-2.50873 -27.28092,-5.45632c-7.978,-2.65306 -16.10181,-0.53993 -24.0671,-2.26411c1.6191,-1.13299 3.62528,-1.62528 5.49929,-2.95932z" fill="#bd7614" stroke-width="0.5"></path>
      <path d="" fill="#000000" stroke-width="0.5"></path>
      <path d="M109.76397,257.5172c-1.11803,-2.23607 1.11803,-3.3541 1.11803,-3.3541l0.6557,-0.32785c0.24847,-0.12424 8.97315,-4.48921 9.119,-4.55127c5.70165,-2.42598 11.94036,-3.19445 17.85653,-4.88865c0,0 2.40381,-0.68681 3.09062,1.71699c0.68681,2.40381 -1.71699,3.09062 -1.71699,3.09062c-5.73324,1.63455 -11.8271,2.3545 -17.34354,4.71145c-3.00652,1.28456 -5.84527,2.93086 -8.76955,4.393l-0.6557,0.32785c0,0 -2.23607,1.11803 -3.3541,-1.11803z" fill="#000000" stroke-width="0.5"></path>
      <path d="M118.55001,169.36948c-0.56147,0 -1.07971,-0.18509 -1.49703,-0.49759c-0.97226,1.5227 -2.8435,0.89897 -2.8435,0.89897c-1.04232,-0.39498 -2.28403,-0.4556 -3.12695,-1.18493c-1.11425,-0.96409 -2.05467,-2.25017 -2.47523,-3.66231c-2.47137,-8.2983 10.06778,-15.47906 14.30241,-6.48117c0.64724,1.37527 0.30992,3.0448 0.15801,4.55716c-0.09762,0.97192 -0.59733,1.86006 -0.89599,2.7901l0.12829,0.00946c0,0 0,1.86998 -1.61728,2.37538c-0.43955,0.71678 -1.2303,1.19493 -2.13274,1.19493zM117.42831,164.2086c0.23466,-0.66996 0.54899,-1.31715 0.70398,-2.00988c1.47624,-6.59813 -8.19673,-0.29436 -4.01479,2.41368c0.48231,0.31232 1.11539,0.2767 1.67309,0.41504c0,0 0.34378,0.11459 0.72595,0.38741c0.22753,-0.31751 0.52758,-0.57952 0.87593,-0.76181z" fill="#000000" stroke-width="0.5"></path>
      <path d="M117.42239,164.69309c-0.34835,0.1823 -0.66505,0.45245 -0.89258,0.76996c-0.38217,-0.27282 -0.73703,-0.38566 -0.73703,-0.38566c-0.5577,-0.13834 -1.22131,-0.11148 -1.70362,-0.4238c-4.18194,-2.70804 5.56928,-9.05609 4.09304,-2.45796c-0.15499,0.69273 -0.48489,1.37936 -0.71955,2.04932z" fill="#ffffff" stroke-width="0.5"></path>
      <path d="M128.26568,178.32756l1.1663,-2.22467c5.48689,-2.7409 10.57702,-6.3548 15.82851,-9.5057c0.98353,-0.59012 1.70503,-1.65855 2.80001,-2c0.06326,-0.01973 0.1267,-0.03859 0.19032,-0.05663l-0.01884,-0.03768l2.35501,-1.1775c0.34741,-0.18291 0.74312,-0.28642 1.16302,-0.28642c0.2657,0 0.52172,0.04145 0.76194,0.11824c0.62638,-0.2608 1.46868,-0.31531 2.3998,0.4296c1.95217,1.56174 0.39043,3.51391 0.39043,3.51391c-3.563,4.40486 -9.02096,8.00426 -10.78046,13.62884l-1.42797,2.49567c0,0 -1.28624,2.14373 -3.42997,0.8575c-0.42549,-0.25529 -0.71585,-0.54436 -0.90797,-0.84375h-0.60579c-4.01478,0 -7.6221,0.7729 -11.60001,0.8c0,0 -2.5,0 -2.5,-2.5c0,-2.5 2.5,-2.5 2.5,-2.5c0.33909,0.00287 0.67649,-0.00075 1.01256,-0.00977c0.19798,-0.30424 0.45653,-0.53358 0.70312,-0.70163z" fill="#794c0d" stroke-width="0.5"></path>
      <path d="M138.51925,186.76896c0.36692,-0.30976 0.88871,-0.53002 1.63076,-0.53002c2.5,0 2.5,2.5 2.5,2.5c-0.08453,3.31885 1.33727,6.5118 2.84443,9.50972l1.5357,2.30355l-0.98286,0.65524l0.4877,2.66487c-0.82133,-0.35899 -1.6551,-0.69216 -2.48504,-1.03328l-0.86769,0.86769l-2.31102,-2.31102c-2.98227,-1.57948 -4.50918,-4.81477 -7.2686,-6.55092c-2.12452,-1.33669 -4.83265,-1.94483 -7.16695,-2.7792l-0.28478,-0.52753l-0.16866,0.16866l-2,-2c-0.45241,-0.45241 -0.73223,-1.07741 -0.73223,-1.76777c0,-1.38071 1.11929,-2.5 2.5,-2.5c0.20502,0 0.40427,0.02468 0.59495,0.07123l3.54737,0.78829l-0.07425,0.33413c0.77755,0.00701 1.55501,0.01246 2.33194,0.00634c0.94278,-0.00741 1.86338,-0.50782 2.8,-0.40001c1.15236,0.13265 2.49516,0.11457 3.56923,0.53002zM135.69573,190.71124c0.0617,0.03977 0.12322,0.0799 0.18459,0.1204c-0.00483,-0.01817 -0.01112,-0.0364 -0.01895,-0.05469c-0.03577,-0.08347 -0.09367,-0.09506 -0.16564,-0.06571z" fill="#794c0d" stroke-width="0.5"></path>
      <path d="M104.96789,217.83145c1.7677,1.76783 -0.00013,3.53553 -0.00013,3.53553l-0.33167,0.15017c-1.23728,2.47077 -2.37731,5.10696 -3.33035,7.82986c0.68417,0.98836 0.26601,2.24276 0.26601,2.24276l-0.77145,2.30837c-0.36431,1.45952 -0.72822,2.91553 -1.09193,4.37031c0.71495,0.43995 1.19163,1.22966 1.19163,2.13071v4h-0.1091l0.0914,0.29699c-1.09716,4.52755 -1.3215,9.34391 -1.58227,14.07696v1.62605h-0.09261c-0.00048,0.00799 -0.00095,0.01597 -0.00143,0.02395l0.08188,0.22239c-0.02236,0.11178 -0.04426,0.22357 -0.06573,0.33539c0.04952,0.62573 0.07781,1.24608 0.07757,1.85854c-0.00045,1.14078 -0.42727,2.23657 -0.67168,3.35561c-0.03964,0.23688 -0.08103,0.4724 -0.12398,0.70681c-0.00597,0.04781 -0.01138,0.09568 -0.0162,0.14363c-0.01169,0.1164 -0.01852,0.23323 -0.02152,0.35036c0.0018,0.15269 0.0036,0.30533 0.00536,0.45794c0.04332,0.98893 0.25992,1.99081 0.02832,2.94535v4c0,1.20125 -0.84723,2.20462 -1.97675,2.44516c-0.18832,0.65746 -0.38522,1.31238 -0.58957,1.96508c-0.42108,2.61924 -0.9804,5.82831 -1.58896,6.85714c-0.0004,0.00067 -0.0008,0.00135 -0.0012,0.00202c-0.06633,0.20146 -0.16078,0.41751 -0.29527,0.62429l-1.09924,2.19852c-0.33776,0.90387 -0.67998,1.8065 -0.98432,2.71912c-0.94378,2.83007 -1.42249,5.82968 -2.65137,8.54811c-0.01271,0.02813 -0.02547,0.05625 -0.03827,0.08436c0.34811,0.06177 0.69555,0.12538 1.04085,0.18405c3.2936,2.31797 7.08025,3.27216 11.07466,4.60051l1.92748,0.93561c0,0 2.23609,1.118 1.11809,3.35408c-1.118,2.23609 -3.35408,1.11809 -3.35408,1.11809l-1.2726,-0.66436c-2.90255,-0.96995 -5.62566,-1.81877 -8.1836,-2.97607c-2.26135,12.56101 -6.65554,24.70325 -9.3907,37.17018c-0.56368,2.56926 -0.87346,6.37981 -1.63878,8.94654c-0.83722,2.80788 -1.98804,4.01889 -2.31508,6.7931c-0.59549,5.05141 -1.64238,9.87786 -3.28098,14.79349c-0.3653,1.46124 -0.77223,2.88635 -1.20765,4.30404c4.39267,2.28077 9.5425,1.51123 14.40781,2.1293c2.4194,0.30735 4.73729,1.24558 7.16445,1.48408c6.78482,0.6667 14.77736,0.78228 21.24451,-1.38807l1.19278,-0.39758c1.54743,-5.13065 2.17193,-10.55295 2.70634,-15.83693c0.49663,-4.91041 1.8536,-9.66224 2.41281,-14.51993c1.27025,-11.03416 2.52352,-21.87334 5.7652,-32.53467c-0.03196,0.01101 -0.06395,0.02186 -0.09599,0.03253l-1.59054,0.12829c0,0 -0.86544,0 -1.57793,-0.5092c-3.75168,0.76823 -7.50461,1.29606 -11.22206,1.30918c0,0 -2.5,0 -2.5,-2.5c0,-2.5 2.5,-2.5 2.5,-2.5c9.96687,0.04105 20.45337,-4.05338 30.19876,-6.07498l0.13883,0.03929l-0.00549,-0.05599l2.99101,-0.29319c0.09091,-0.01002 0.18329,-0.01516 0.27686,-0.01516c1.38071,0 2.5,1.11929 2.5,2.5c0,1.12459 -0.74254,2.07574 -1.76408,2.38993l-2.34533,0.78182l-0.10116,-0.30345c-2.4421,1.70013 -5.11886,3.00659 -8.21669,3.5866c-1.17231,0.21949 -2.37925,0.03278 -3.57748,-0.01526c-0.01898,0.43725 -0.12355,0.75094 -0.12355,0.75094c-1.36925,4.10461 -2.40502,8.23814 -3.23372,12.40028c0.59852,0.51315 0.83367,1.21856 0.83367,1.21856c2.46342,7.45953 2.2931,15.74523 4.79304,23.17928c1.2205,3.62939 2.81966,6.98214 3.31654,10.90587c0.53892,4.2557 0.68668,8.83883 2.22846,12.94878c0.32561,0.868 0.7938,1.67508 1.25503,2.48469c0.02033,0.00364 0.04098,0.00655 0.06195,0.00869c0.86215,0.08799 1.60806,-0.70946 2.46787,-0.81799c2.03324,-0.25665 4.10239,-0.29977 6.10281,-0.745c7.10752,-1.58191 15.42797,-1.85072 21.61593,-6.05382l0.00466,-0.00492l-0.05401,0.00308c0,0 -0.72568,-1.45137 0.16154,-2.60016c-0.04811,-0.8756 -0.11399,-1.74841 -0.3182,-2.59341c-0.42685,-1.76621 -1.97016,-3.12322 -2.42354,-4.88281c-3.22445,-12.51443 -4.55697,-25.61098 -6.11072,-38.4074c-0.81639,-6.72362 -2.43785,-13.55467 -2.72817,-20.31695c-1.33375,0.45224 -2.6914,0.83344 -3.95426,1.25442l-2.39058,0.1283c0,0 -2.5,0 -2.5,-2.5c0,-2.5 2.5,-2.5 2.5,-2.5l0.80937,0.1283c2.32022,-0.77345 5.34042,-1.36226 7.32883,-2.85642c3.08778,-2.32026 5.656,-6.62111 7.15208,-10.12862c0.54724,-1.283 1.42128,-2.54442 1.41157,-3.93922c-0.00286,-0.41115 -1.33756,-4.3065 -1.47357,-4.71348c0,0 -0.79061,-2.3717 1.58109,-3.1623c1.85016,-0.61675 2.73814,0.69093 3.0392,1.29588c0.02643,-0.21546 0.04467,-0.42555 0.05366,-0.62916c0.11173,-2.53256 -0.1094,-5.01753 -0.60224,-7.44259v1.14757c0,0 0,2.5 -2.5,2.5c-2.5,0 -2.5,-2.5 -2.5,-2.5v-4.59998c0.06043,-5.30533 -0.63862,-5.9905 -2.77491,-10.94938c-0.13477,-0.31284 -1.37576,-3.2415 -2.41878,-5.56499c-1.11739,-1.38443 -2.2787,-2.72008 -3.46211,-4.00254c-0.14242,0.72667 -0.64818,2.01691 -2.44417,2.01691c-2.5,0 -2.5,-2.5 -2.5,-2.5v-3.20001c0,-0.37481 -0.0057,-6.50824 0.01873,-6.70542c0.29987,-2.42034 1.31584,-4.71793 1.59341,-7.14093c0.59015,-5.15149 0.30126,-10.29448 0.92109,-15.40537c-0.56911,-0.45824 -0.93326,-1.16073 -0.93326,-1.94827c0,-0.17585 0.01816,-0.34746 0.0527,-0.51306c-2.4162,0.57446 -4.78129,0.83606 -6.75313,0.58075c-3.84171,-0.4974 -6.89434,-2.51941 -10.24417,-4.19644c-0.8441,-0.42258 -1.88276,-0.4233 -2.6697,-0.94464c-1.5954,-1.05693 -3.13054,-2.5045 -4.62732,-3.94161c-0.89591,0.58097 -1.74725,0.37045 -2.31737,0.07838c-2.25467,1.21149 -4.30338,1.75562 -7.04202,2.53689c-1.01462,0.28945 -4.72993,1.68206 -5.49895,1.69971c-0.84306,0.01934 -1.55674,-0.79999 -2.40002,-0.79999c-0.84326,0 -1.55672,0.80522 -2.39996,0.79999c-0.97383,-0.00605 -1.83643,-0.69455 -2.80048,-0.83227c-2.11191,-0.30169 -4.26678,0.01913 -6.40004,0c-4.748,-1.52481 -9.2782,-2.85019 -13.18447,-6.13437c-0.41705,-0.35064 -0.84229,-0.73545 -1.27157,-1.14992c-0.39037,0.43507 -0.82543,0.65261 -0.82543,0.65261c-4.24696,2.11601 -7.9539,5.09175 -12.01996,7.49306c-0.00389,0.4939 -0.12639,0.8614 -0.12639,0.8614c-1.57808,4.61507 -4.14085,8.75446 -5.57536,13.52181c-1.5714,5.22227 -1.49851,10.86826 -3.21761,16.05678c-0.93812,2.83139 -1.7017,5.72261 -2.35248,8.63351c-0.35307,1.57927 -1.3347,2.9951 -1.55854,4.5978c-0.80164,5.73987 0.03228,12.20798 0.03228,17.99952c0,0.82143 0.00237,9.07705 -0.00926,9.21498c-0.12228,1.45039 -0.79382,2.83856 -0.79241,4.29409c0.00112,1.16003 0.80566,2.22691 0.79983,3.38693c-0.00474,0.94303 -0.71478,1.76857 -0.83046,2.70448c-0.52936,4.283 -0.44577,9.65781 -2.69221,13.63126c-0.62601,1.10726 -1.8318,1.77281 -2.64213,2.75325c-2.58813,3.13142 -3.93074,7.41272 -6.45916,10.46957c-0.64501,0.77982 -1.785,1.00354 -2.50645,1.71323c-1.21748,1.19764 -1.89035,2.84512 -2.80548,4.28705c-0.2378,0.37469 -0.43612,0.77613 -0.64993,1.16654c0.84789,-0.62745 1.86329,-1.27559 1.90091,-1.30149c1.43067,-0.95377 2.86827,-1.89739 4.31743,-2.82283l1.36767,-2.0515c0.44514,-0.68925 1.2201,-1.14551 2.10163,-1.14551c1.38071,0 2.5,1.11929 2.5,2.5c0,0.52532 -0.16203,1.0128 -0.43883,1.41519l-1.58101,2.37152c-0.12293,0.9536 -1.06667,1.60001 -1.6,2.40002l-0.1811,0.1876c0.04431,-0.0024 0.08859,-0.00484 0.13285,-0.0073c0.73406,-0.86703 1.96812,-0.86703 1.96812,-0.86703c0.84219,0.00545 1.68463,-0.05277 2.51961,-0.17085c1.54728,-1.61088 3.18866,-5.19854 4.20026,-6.71592l-0.41989,-0.21327c0,0 0,-2.5 2.5,-2.5c2.5,0 2.5,2.5 2.5,2.5l-0.41989,2.98681c-0.18926,0.28388 -0.38909,0.60181 -0.59826,0.94421c2.49137,-1.67756 4.56714,-3.95096 5.88208,-6.64903l1.26829,-1.44972c0,0 1.76777,-1.76777 3.53553,0c0.21651,0.21651 0.37999,0.43303 0.50017,0.64629c1.22112,-2.61911 2.70382,-5.16647 4.11124,-7.73018c-0.19918,-0.79404 0.04913,-1.53895 0.04913,-1.53895c1.64064,-4.92192 3.66218,-9.73481 5.55287,-14.58626l0.14803,-3.13352l0.09182,0.00434l-0.06157,-0.29145c1.80962,-6.39991 3.01792,-12.93787 4.61094,-19.39154c0.32253,-1.30664 0.21129,-2.7446 0.79051,-3.95944c0.00871,-0.01828 0.01748,-0.03652 0.02631,-0.05474l-0.01256,-0.00314l0.16991,-0.67964c0.0173,-0.44072 0.03555,-0.88144 0.05475,-1.32224c-0.38041,-2.27961 -0.8733,-4.57432 -1.08713,-6.74546c-0.39164,-3.97662 -0.01217,-8.24777 -0.01217,-12.24634v-4c0,0 0,-2.49465 2.49198,-2.49999c1.19801,-4.54103 2.94776,-8.96366 4.97192,-13.01802l1.26843,-1.44981c0,0 1.76783,-1.7677 3.53553,0.00013zM66.40003,324.49915c0,0 -0.38919,0 -0.86045,-0.15356c-1.29256,0.52867 -2.63421,0.94458 -4.00789,1.23845c-0.06624,0.04595 -0.1325,0.08938 -0.19877,0.13017c-4.02861,2.4797 -12.25375,1.62087 -16.49859,0.26466c-2.24234,0.25916 -4.05519,-0.81888 -4.12803,-4.95694c-0.03831,-2.17653 3.92146,-7.96248 5.52593,-9.59053c0.63953,-0.64893 1.70717,-0.78944 2.2936,-1.48672c1.70977,-2.03297 3.05846,-5.43893 4.59406,-7.73225c1.12541,-1.68072 2.89008,-2.89515 3.90462,-4.64503c1.94376,-3.35261 1.65165,-8.36312 2.10778,-11.96872c0.09339,-0.73821 0.77404,-1.35136 0.76958,-2.09544c-0.00623,-1.03916 -0.80118,-1.97391 -0.8002,-3.0131c0.00155,-1.65734 0.67155,-3.25424 0.80762,-4.90598c0.24043,-2.91846 -0.00926,-5.85668 -0.00926,-8.78502c0,-6.05153 -0.83936,-12.79974 0.03228,-18.80041c0.19871,-1.368 1.32898,-3.58736 1.64142,-5.00217c0.66809,-3.02532 1.46228,-6.02922 2.44757,-8.96659c1.72087,-5.13029 1.63163,-10.75985 3.18236,-15.94316c1.43328,-4.79076 4.12855,-9.03457 5.62465,-13.6782c0,0 0.10394,-0.31182 0.34951,-0.67165c-0.30852,-0.47223 -0.65589,-0.91679 -1.03757,-1.32912c0.33934,-0.15202 0.67788,-0.3111 1.01515,-0.47994c4.9361,-2.471 9.1552,-6.11897 14.07856,-8.63911c-3.2374,-4.11015 -6.09043,-9.28144 -6.70166,-13.48917c-0.30667,-2.11118 0.31161,-4.28955 0,-6.4c-1.0345,-7.00646 -1.30583,-14.33476 0.89603,-21.19102c1.16139,-3.47547 1.68086,-7.40976 3.3259,-10.7078c1.75929,-3.52707 4.93368,-7.5137 7.67803,-10.2694c0.67847,-0.68127 1.72013,-0.92014 2.4,-1.60001c2.20982,-2.20982 4.10693,-4.97263 6.85347,-6.75886c1.67437,-1.08893 3.31158,-0.87121 5.01594,-1.71916c0.97834,-0.48674 1.72425,-1.44326 2.77394,-1.74692c1.12864,-0.3265 2.36093,0.09185 3.52394,-0.07498c0.96398,-0.13829 1.82676,-0.8479 2.80049,-0.8323c0.52053,0.00834 1.02164,0.14556 1.51702,0.32079c0.25692,-0.94139 1.09625,-1.50093 1.09625,-1.50093c2.00635,-1.3177 5.238,-2.04526 6.89728,-3.76261c1.8276,-1.89154 3.32885,-4.0858 5.18839,-5.94531l1.4408,-2.88153c0.40087,-0.8456 1.26228,-1.43038 2.26028,-1.43038c1.38071,0 2.5,1.11929 2.5,2.5v3.19998c0.14176,0.66571 -0.406,1.34872 -0.29581,2.02038c0.19838,1.20921 2.46041,-0.1548 3.6473,-0.45947c2.87786,-0.73876 3.74323,-0.75645 6.58461,-2.17346c0.9997,-0.49855 1.75942,-1.49469 2.83944,-1.78018c1.36344,-0.36042 2.81992,-0.05902 4.22987,-0.08853l0.27786,0.14803l0.02303,-0.09212l3.14927,0.78733c1.11329,0.25265 1.94439,1.24829 1.94439,2.43804c0,0.88153 -0.45625,1.6565 -1.14551,2.10164l-2.3677,1.57846v0.00001c-1.17728,1.15274 -5.02571,2.7532 -5.30889,4.65172c-0.07149,0.47932 0.51144,0.82862 0.69382,1.27761c1.09468,2.695 0.45351,3.63413 3.01506,5.11044l1.64929,2.5621c0,0 0.02115,0.04229 0.05181,0.11817c5.75312,3.76589 11.7283,8.01957 14.39843,14.38848c1.58484,3.78021 0.50224,7.26218 0.99497,11.10591c0.1398,1.09058 0.67905,2.10719 0.79999,3.20001c0.38516,3.48015 -0.64989,5.91704 -1.70954,9.09601c0,0 -0.01567,0.04702 -0.04923,0.12562c1.44323,0.86027 2.8555,1.68157 4.2342,2.37412c7.24358,2.46202 10.31689,7.28632 12.61502,14.31913c1.02206,3.12776 2.07299,7.75688 -0.60394,10.55832c-1.47278,1.54129 -4.39852,2.06405 -7.03437,2.24132c0.04966,0.06402 0.09859,0.13199 0.1467,0.20415c1.38677,2.08012 -0.69334,3.46688 -0.69334,3.46688l-2.39999,1.60003c-1.1441,0.76272 -2.2882,1.52544 -3.4323,2.28817c0.88515,0.28081 1.63431,0.57496 1.96298,0.8449c3.92984,3.2276 2.87477,7.69047 3.35027,11.98632c0.51066,4.61354 2.08632,9.55299 1.61352,14.3059c-0.10883,1.0941 -0.66019,2.10944 -0.79999,3.20001c-0.64487,5.03062 0.01873,10.61511 0.01873,15.69455c0,3.06368 -0.2021,5.4901 0.76771,8.39953c0.02032,2.26676 0.03228,4.53363 0.03228,6.80048v1.59998c0,0 0,0.91155 -0.55042,1.63379c0.27908,1.56753 0.50403,3.1172 0.69987,4.5951c0.22409,1.69101 0.73543,3.37256 0.64839,5.07613c-0.18376,3.59692 -1.7829,7.05326 -3.03751,10.33947l-0.32589,0.85027c0,0 -0.04792,0.12502 -0.1505,0.3061c0.13036,0.23627 0.1878,0.40859 0.1878,0.40859l0.00001,-0.00001c1.19989,3.73648 0.41179,7.00612 0.89599,10.79012c0.10703,0.83644 0.69022,1.56388 0.79999,2.39996c0.61264,4.66654 -0.56631,12.95725 -5.89335,14.83358c-1.18419,0.41711 -2.44886,-0.55521 -3.67329,-0.83281l-0.94658,-0.23606c0.46781,2.77146 0.95034,5.53461 1.28209,8.26741c1.53122,12.61348 3.00009,25.35014 5.97966,37.72665c0.4121,1.71179 1.93877,3.01187 2.37651,4.71729c0.49958,1.94629 0.12295,4.07591 0.67241,5.998c0.86678,1.52995 -0.49736,2.89414 -0.49736,2.89414l-1.98105,1.91245c-6.87032,4.51216 -15.33977,5.00562 -23.18412,6.7461c-2.19706,0.48748 -4.4576,0.63299 -6.69712,0.85497c-1.32988,0.13182 -2.61353,0.9993 -3.93216,0.7821c-0.78292,-0.12896 -1.44432,-0.59269 -2.0954,-1.08482l-0.64961,0.2121c-0.10794,-0.335 -0.24359,-0.65843 -0.39632,-0.97477c-0.07232,-0.04693 -0.1452,-0.09231 -0.21879,-0.13574c0,0 -1.3307,-0.88714 -1.15388,-2.30663c-0.21482,-0.39479 -0.4118,-0.79729 -0.56905,-1.21674c-1.69874,-4.53143 -1.99307,-9.55537 -2.57159,-14.25129c-0.44207,-3.58828 -1.9868,-6.57765 -3.08336,-9.89406c-1.51177,-4.57216 -2.03256,-9.44987 -2.78422,-14.25503c-0.4241,3.23995 -0.79581,6.49661 -1.17251,9.76984c-0.54922,4.77221 -1.91057,9.45802 -2.38711,14.28c-0.51458,5.20683 -1.15126,10.53147 -2.54506,15.6238c0.69372,1.46526 -0.57861,2.73768 -0.57861,2.73768l-0.17576,-0.06256c-0.41471,1.07104 -1.60151,1.46663 -1.60151,1.46663l-2.40002,0.79998c-7.11697,2.3581 -15.78162,2.38486 -23.25595,1.6261c-2.54983,-0.25885 -4.99119,-1.21785 -7.53504,-1.53009c-5.60444,-0.68789 -10.72912,-0.14102 -15.91761,-2.63168c0,0 -0.76095,-0.38048 -1.17308,-1.14144l-2.48057,-1.0852c0.87982,-2.63945 1.69564,-5.20529 2.3714,-7.90841c1.55829,-4.6747 2.49245,-9.23552 3.11904,-14.00644c0.34735,-2.64479 1.71376,-5.05332 2.4849,-7.60692c0.4619,-1.52956 1.30798,-7.50633 1.56124,-8.65344c2.75939,-12.49828 7.18661,-24.68104 9.40469,-37.28529c-1.25374,3.47113 -2.97587,7.01022 -5.21031,10.07605c-0.06312,0.16753 -0.37174,0.90758 -1.0492,1.35679c-3.52675,4.29376 -8.18309,7.3792 -14.11005,7.51822zM120.57176,122.58976c-0.79058,2.3717 -3.16228,1.58112 -3.16228,1.58112c-2.79318,-1.16577 -5.98806,0.20616 -8.51107,1.47406c-1.43478,0.72103 -3.26203,0.56939 -4.58404,1.48084c-2.40213,1.65614 -3.97191,4.06646 -5.94658,6.04113c-0.67987,0.67987 -1.7186,0.92167 -2.39999,1.60001c-2.36472,2.35411 -5.19173,5.87953 -6.72199,8.93061c-1.54211,3.07469 -1.99326,6.84213 -3.07407,10.09219c-2.09762,5.98854 -1.55366,12.68318 -0.704,18.80897c0.29309,2.1131 -0.2951,4.28717 0,6.39999c0.45538,3.26039 2.65547,5.97831 4.41242,8.61371c2.61181,3.91769 5.06821,7.35921 9.41826,9.54097c1.96039,0.98323 4.42285,1.44979 6.50207,2.17809c0.94245,-0.01087 5.79808,-0.08599 6.4,0c0.70678,0.10097 1.28563,0.77295 1.99957,0.76771c0.84324,-0.00618 1.5567,-0.79999 2.39996,-0.79999c0.84328,0 1.55718,0.77302 2.40002,0.79999c1.45487,0.04656 2.70157,-1.09987 4.10103,-1.50031c2.42803,-0.69475 4.05074,-1.01572 5.94485,-2.04292c-3.67861,-2.75618 -7.69585,-4.89335 -11.01363,-8.189c0,0 -1.76778,-1.76775 -0.00002,-3.53553c0.23736,-0.23737 0.47473,-0.41099 0.70781,-0.5337c-1.37289,-1.35626 -0.22016,-3.08531 -0.22016,-3.08531c0.70166,-0.98486 1.1332,-2.23489 2.10497,-2.95457c1.96013,-1.45162 4.54912,-1.87803 6.53121,-3.29951c1.99196,-1.42857 3.58629,-3.36418 5.5822,-4.78725c3.24189,-2.31144 7.11427,-4.21189 10.46676,-6.44651c2.44124,-1.62722 6.89596,-5.14481 10.09902,-5.22356c1.45114,-0.03567 2.88533,0.15511 4.30075,0.50941c-1.32354,-2.02199 -4.01851,-6.28871 -3.48266,-8.7431c1.00777,-4.61604 6.54542,-7.05139 10.3954,-4.0549c0.7183,0.55906 1.26678,1.15792 1.67514,1.78675c0.03965,-1.50117 -0.05751,-2.98377 -0.67894,-4.38863c-3.06451,-6.92791 -10.73009,-10.95094 -16.70045,-14.93126l0.13116,-1.455c-0.26993,-0.20847 -0.51868,-0.43908 -0.73115,-0.70763c-0.89358,-1.12943 -3.12681,-7.68378 -2.89115,-9.0493c0.21873,-1.26738 1.4428,-3.18018 2.9436,-4.83972c-3.8832,1.70368 -7.84333,4.59327 -12.1509,3.62401c-1.88059,-0.42315 -3.31059,-1.43434 -4.08316,-2.80801c-1.06896,1.30913 -2.12978,2.62532 -3.34219,3.79826c-2.15797,2.08775 -5.07543,2.58867 -7.50275,4.23739c0,0 -0.17364,0.11576 -0.45402,0.23021c-0.00463,0.26561 -0.05368,0.55838 -0.16098,0.88026zM124.54411,181.99537c7.96529,1.72418 16.06847,-0.42097 24.04647,2.23209c8.843,2.94759 17.91597,5.47172 27.20945,5.47172c1.59498,0 5.7048,0.24533 7.03222,-0.86777c1.06273,-0.89114 -0.27409,-4.4745 -0.60394,-5.44168c-1.93777,-5.68186 -3.79002,-9.32686 -9.78501,-11.28085c-5.80466,-2.89024 -12.18072,-8.29962 -18.94734,-8.61156c-1.6037,-0.07393 -6.73682,3.86696 -7.50097,4.37648c-3.30992,2.20701 -7.14432,4.0709 -10.33316,6.35348c-2.00509,1.43525 -3.60905,3.38271 -5.61787,4.81273c-1.87401,1.33404 -3.88075,1.82237 -5.49985,2.95536zM134.238,194.31053c2.22448,1.90149 4.46271,4.54032 6.87633,6.162c0.61668,0.41434 1.46564,0.32345 2.13035,0.65534c3.05059,1.52314 5.52024,3.24435 8.95579,3.80356c2.42916,0.3954 4.57653,-0.7607 6.80899,-1.50396c2.71136,-0.9027 5.03289,-1.2762 7.40382,-2.90843c2.4,-1.6 4.79999,-3.20002 7.20001,-4.79999l1.53548,-1.02367c-9.61309,-0.11169 -18.99228,-2.67557 -28.1393,-5.7245c-7.36227,-2.46022 -14.9921,-0.71764 -22.48435,-1.9183c-0.07545,0.05564 -0.15673,0.1076 -0.2443,0.15496c3.21524,2.49126 6.81982,4.42115 9.95719,7.10299zM174.10002,244.99916c0,-4.25616 -0.49666,-8.88426 0.01873,-13.10544c0.26441,-2.16554 1.11202,-4.333 0.81354,-6.49411c-0.11537,-0.83534 -0.70687,-1.56188 -0.79999,-2.39999c-0.45892,-4.13033 -0.46631,-7.94704 -0.81354,-12.095c-0.05225,-0.62421 -0.61241,-3.30029 -1.43623,-3.91868c-1.27913,-0.96018 -3.10194,-0.77435 -4.65746,-1.15369c-0.83965,0.4497 -1.75368,0.89149 -2.71485,1.30912c0.32679,0.81779 0.11518,1.66418 0.11518,1.66418c-1.58968,6.19328 -0.82051,12.55274 -1.53755,18.83994c-0.28082,2.46231 -1.29599,4.80042 -1.60654,7.25916c-0.12182,0.96445 -0.12276,1.93623 -0.09062,2.91008c0.59133,0.23091 0.97709,0.61668 0.97709,0.61668c0.01204,0.01205 0.02408,0.02411 0.03613,0.03617c1.5007,1.4932 3.58383,2.39565 4.87029,4.07708c0.43901,0.5738 1.01659,1.65101 1.62214,2.90266c1.87136,2.1992 3.65109,4.50969 5.15837,6.85676c-0.12267,-2.41612 0.04531,-4.87442 0.04531,-7.30492zM170.89902,310.59885c2.63018,1.79098 3.01223,-4.19303 3.21317,-5.84604c0.20168,-1.65919 -0.57683,-3.29416 -0.77987,-4.95318c-0.24983,-2.04131 -0.04894,-3.93771 -0.06523,-5.82977c-1.68292,2.83976 -3.78806,5.44765 -6.2276,7.3226c0.06054,0.29743 0.06054,0.50668 0.06054,0.50668c-0.00858,2.64836 0.24538,5.32208 0.61263,8.0013zM166.91874,156.50462c-0.06123,-0.42855 -0.17759,-0.84651 -0.30433,-1.26241c-0.2416,0.83567 -0.53303,1.66563 -0.82761,2.47443l-3.00004,2.16266c0,0 -0.60752,0.40501 -1.3848,0.44896c1.46902,0.6375 2.91487,1.39574 4.33535,2.1988c0.7194,-1.97999 1.49667,-3.81605 1.18143,-6.02244zM160.97444,155.16511l0.83883,-0.48342c0.36381,-1.46299 1.0136,-3.30433 -0.33071,-4.49576c-0.54533,-0.48332 -2.43143,-0.25479 -2.40465,0.74508c0.03245,1.21184 0.82445,2.28614 1.36794,3.36975c0.15171,0.30249 0.33399,0.58703 0.5286,0.86434z" fill="#000000" stroke-width="0.5"></path>
      <path d="M333.62313,257.21941c-1.15006,-3.85602 -1.5138,-9.85102 5.08493,-8.39757c1.51807,0.33437 2.44864,2.03676 3.18643,3.40497c2.50246,4.64077 -0.23054,15.77951 -7.41826,9.38926c-0.97764,-0.86917 -0.85335,-2.4732 -1.28002,-3.7098z" fill="#ff5ebc" stroke-width="0.5"></path>
      <path d="M384.39823,261.08936c-0.24426,-5.64164 5.55904,-13.08395 11.33472,-9.9849c1.37426,0.73739 1.70188,2.71241 1.95314,4.25164c0.73615,4.50968 -3.02864,12.70175 -8.94248,11.52137c-3.6447,-0.72747 -4.67156,-3.23358 -4.34538,-5.7881z" fill="#ff5ebc" stroke-width="0.5"></path>
      <path d="M377.7408,218.44607c-0.67594,-2.71646 -2.05581,-6.45755 -6.07133,-5.9879c0.0265,-3.016 0.29859,-6.36644 1.90588,-8.48936c0.5686,-0.75101 2.95491,-1.3077 3.61326,-1.54706c0.54634,-0.19863 1.03201,-0.67172 1.61335,-0.67172c1.31289,0 2.46126,0.94442 3.71089,1.34703c0.43141,0.17796 1.14117,0.09509 1.29756,0.53477c0.26164,0.73561 -0.35102,1.54904 -0.27596,2.32618c0.09607,0.99474 0.78631,1.89713 0.78631,2.8965c0,0.99938 -0.65238,1.90416 -0.77945,2.89542c-0.01111,0.08666 -0.065,0.26256 -0.07116,0.34954c-0.10338,-0.12192 -0.20923,-0.23779 -0.32115,-0.34864c-0.03523,0.51893 -0.076,0.76621 -0.076,0.76621c-2.0019,7.55838 -1.59377,15.53473 -2.47799,23.34212c0.51283,1.34597 0.6086,3.2112 -1.25586,5.07552c-0.1213,0.12129 -0.24902,0.13447 -0.37017,0.23954c0.30686,-0.01536 0.60888,-0.02412 0.90362,-0.00713c-0.08275,0.43164 -0.15955,0.96201 -0.24011,1.39218c-0.07163,0.38256 0.44538,0.96498 0.10998,1.16242c-0.4015,0.23634 -2.49312,-0.59832 -3.98316,-1.21925c-2.01164,-0.0792 -3.50999,-1.57021 -3.50999,-1.57021l-0.21353,-0.54434c-0.0849,-0.04621 -0.20766,-0.10716 -0.3571,-0.16607c-0.00121,-0.25301 -0.00344,-0.50581 -0.00538,-0.7579l-0.00226,-0.19007c3.91236,1.66516 5.1322,-1.65949 6.06311,-4.60033c0.77556,-2.45006 0.29918,-3.5864 0.45919,-6.019c0.22961,-3.49071 0.41201,-6.7341 -0.45252,-10.20846z" fill="#ffffff" stroke-width="0.5"></path>
      <path d="M350.81108,214.20297c-1.60709,-0.9818 -2.91182,-1.23974 -4.00025,-1.00521c0.22765,-0.88161 0.44588,-1.85849 0.74451,-2.75437c1.44536,-4.33602 1.89103,-8.38165 6.44973,-10.29311c4.20506,1.65242 4.04316,6.07714 3.54698,9.99639c0.90454,1.86286 0.22055,3.94304 0.22055,3.94304c-2.44946,7.11713 -2.57332,15.07774 -2.57332,22.55354l0.36169,2.4475c0,0 0.25015,1.77439 -0.60825,3.34998l0.3188,0.00335c-0.02192,0.03014 -0.02702,0.1584 -0.04971,0.18773c-0.34285,0.44311 -0.76575,0.76981 -1.23714,1.00338c-0.62408,0.53055 -1.49184,0.94418 -2.67847,1.11371c-2.78576,0.39798 -4.23974,-0.99759 -4.96805,-2.29242c-0.27344,0.06492 -0.51864,0.17288 -0.71997,0.28625c0.07697,-0.59526 0.11349,-1.18059 0.1204,-1.76465c-0.07755,-0.29096 -0.10434,-0.47442 -0.10434,-0.47442l-0.12901,-1.26467l1.39865,0.83367c1.08247,-0.4277 2.3875,-0.4912 3.23904,-1.28465c2.9603,-2.75836 2.2254,-7.01885 2.44503,-10.53298c0.13147,-2.10367 0.5015,-4.13992 0.36067,-6.24299c-0.10888,-1.62601 -0.63286,-6.88982 -2.13755,-7.80906z" fill="#ffffff" stroke-width="0.5"></path>
      <path d="M359.91806,295.93607c-1.10303,0.55151 -1.93399,0.28686 -2.49291,-0.12295c-3.11931,4.30201 -5.0231,9.86185 -5.74383,14.99238c-0.37743,2.68678 1.2077,7.76262 4.81463,7.59635c2.92656,-0.13491 5.95661,-1.91454 8.54737,-3.01155c0.65488,-0.27729 1.45055,-0.22257 2.04237,-0.61692c2.30775,-1.53777 4.35828,-4.45227 6.38769,-6.3877c1.3576,-4.49439 4.39541,-8.92876 4.42733,-13.82617c0.01272,-1.95154 -1.56693,-6.67451 -3.82515,-7.26678c-1.44687,-0.37948 -2.79368,0.33858 -4.08492,0.77897c-3.94635,1.34594 -7.56991,1.74502 -9.91046,5.41505l0.95591,-0.90478c0,0 1.11803,2.23606 -1.11804,3.3541zM357.42452,288.84193c2.97037,-3.14133 6.58194,-4.0748 10.98494,-5.51363c2.51786,-0.8228 4.24167,-1.67175 7.11503,-0.82101c2.64467,0.78302 4.33756,3.00341 5.52132,5.29436c4.1522,8.03577 -0.64092,15.69988 -3.31917,23.21267c-2.39786,2.48012 -5.13297,6.09215 -8.01233,8.01234c-2.53008,1.68725 -6.5767,2.80072 -9.50797,3.49874c-1.29665,0.30877 -2.56979,0.90554 -3.90229,0.87278c-4.77648,-0.11741 -8.91334,-4.84451 -9.57172,-9.29772c-0.47283,-3.19817 0.09719,-4.4026 0.84235,-7.40674c1.61166,-6.49747 3.89631,-12.35181 8.65761,-17.16146c0,0 0.48106,-0.48105 1.19223,-0.69032z" fill="#000000" stroke-width="0.5"></path>
      <path d="M359.8892,295.89523c2.23607,-1.11804 1.16403,-3.26629 1.16403,-3.26629l-0.99553,0.81315c2.34055,-3.67003 6.00331,-4.07156 9.94966,-5.4175c1.29124,-0.44039 2.64707,-1.15419 4.09394,-0.77471c2.25822,0.59227 3.85449,5.33154 3.84177,7.28308c-0.03192,4.89741 -3.07001,9.38535 -4.42761,13.87974c-2.02941,1.93543 -4.1125,4.87201 -6.42025,6.40978c-0.59182,0.39435 -1.3959,0.34053 -2.05078,0.61782c-2.59076,1.09701 -5.64533,2.87083 -8.57189,3.00574c-3.60693,0.16627 -5.2113,-4.92764 -4.83387,-7.61442c0.72073,-5.13053 2.63094,-10.75094 5.75025,-15.05295c0.55892,0.40981 1.39725,0.66809 2.50028,0.11658z" fill="#ffffff" stroke-width="0.5"></path>
      <path d="M366.40001,348.23896c-1.20902,0 -1.83335,-0.58469 -2.15575,-1.18855c-0.08142,0.12951 -0.16283,0.25902 -0.24425,0.38853l-0.63043,-3.49543c-0.70677,0.22782 -1.47473,0.34634 -2.16959,0.59543v0l-1.00417,-3.57965c0.43059,-0.75353 0.83509,-1.49249 1.21984,-2.22784c0.13777,-0.18722 0.26847,-0.37668 0.38016,-0.57214l4.4792,-4.42751c0.13249,0.73596 0.26498,1.47192 0.39747,2.20789l0.23018,-0.24968c0.18501,0.68999 0.37002,1.37997 0.55503,2.06996c-0.10881,0.23744 -0.21868,0.47389 -0.32978,0.70961c0.17611,0.97829 0.35223,1.95659 0.52834,2.93488l-0.4596,0.13004l0.35332,0.2574c-1.10191,1.75284 -2.20382,3.50567 -3.30573,5.25851c-0.34425,-0.6448 -0.34425,-1.31145 -0.34425,-1.31145v-1.99678c-0.17125,0.07704 -0.34882,0.1428 -0.53043,0.20133l-0.03089,-0.17125l-2.1387,0.76668v0c-0.33472,-1.19322 -1.11941,-2.34574 -1.00417,-3.57965c0.07903,-0.84616 0.69978,-1.52109 1.21984,-2.22784c1.13922,-2.17731 2.10534,-4.32293 3.06314,-6.72099c0,0 0.92848,-2.32119 3.24967,-1.39271c2.32119,0.92848 1.39271,3.24967 1.39271,3.24967c-0.54059,1.34956 -1.08712,2.63483 -1.66348,3.89255c0.48077,1.793 0.96153,3.58599 1.4423,5.37899v2.60001c0,0 0,2.5 -2.5,2.5z" fill="#905823" stroke-width="0.5"></path>
      <path d="M368.50002,356.93894c0,2.5 -2.5,2.5 -2.5,2.5l-1.19055,-0.12829c-2.72348,-0.92642 -4.81003,-1.1264 -7.65592,-0.69683c0,0 -2.47487,0.35355 -2.82842,-2.12133c-0.35355,-2.47487 2.12133,-2.82842 2.12133,-2.82842c3.6109,-0.49252 6.4787,-0.23282 9.94412,0.90315l-0.39056,-0.12829c0,0 2.5,0 2.5,2.5z" fill="#905823" stroke-width="0.5"></path>
      <path d="M366.82537,367.54527c-0.60633,2.42536 -3.03169,1.81903 -3.03169,1.81903l-1.24243,-0.33776c-3.72543,-0.37257 -7.23277,-0.66464 -10.83806,-1.68379c0,0 -2.4038,-0.68682 -1.71698,-3.09063c0.68682,-2.4038 3.09063,-1.71698 3.09063,-1.71698c3.30544,0.95606 6.53757,1.17382 9.96193,1.51622l1.95758,0.46223c0,0 2.42536,0.60633 1.81903,3.03169z" fill="#905823" stroke-width="0.5"></path>
      <path d="M333.20724,334.22936c1.16536,-1.3256 2.30116,-2.79426 2.82106,-4.48097c0,0 0.79056,-2.37171 3.16227,-1.58115c0.01722,0.00574 0.03428,0.01156 0.05117,0.01747c0.45799,-0.57626 1.16497,-0.94575 1.95826,-0.94575c1.38071,0 2.5,1.11929 2.5,2.5c0,0.46716 -0.12813,0.90438 -0.35117,1.27846l-1.57819,2.76187l-0.0762,-0.04354l-0.02676,0.2085c-0.47085,0.5855 -0.70312,1.55812 -1.34415,1.86749l-1.32883,2.32544c-0.42441,0.77571 -1.24811,1.30178 -2.19468,1.30178c-0.31115,0 -0.60903,-0.05684 -0.88381,-0.16071l-0.40746,0.47537c-0.45858,0.54156 -1.1435,0.88536 -1.90872,0.88536c-1.38071,0 -2.5,-1.11929 -2.5,-2.5c0,-0.52532 0.16202,-1.01279 0.43883,-1.41518l1.58102,-2.37155l0.05694,0.03796z" fill="#905823" stroke-width="0.5"></path>
      <path d="M334.58672,353.8191c-2.08014,1.38673 -3.46687,-0.69342 -3.46687,-0.69342l0.59336,-0.18293c-1.77848,-0.50851 -3.54884,-1.04757 -5.30379,-1.63211c0,0 -2.37171,-0.79058 -1.58113,-3.16228c0.79058,-2.37171 3.16228,-1.58113 3.16228,-1.58113c1.68598,0.56245 3.38719,1.07999 5.09623,1.5679l2.19333,2.2171c0,0 1.38673,2.08014 -0.69342,3.46687z" fill="#905823" stroke-width="0.5"></path>
      <path d="M331.3,365.33897c0,2.5 -2.5,2.5 -2.5,2.5h-0.79999c-3.10817,-0.00657 -6.02806,-0.43417 -9.1101,-0.81932c0,0 -2.4807,-0.31008 -2.17061,-2.79078c0.31008,-2.4807 2.79078,-2.17061 2.79078,-2.17061c2.87521,0.35948 5.59323,0.78766 8.48994,0.78071h0.79999c0,0 2.5,0 2.5,2.5z" fill="#905823" stroke-width="0.5"></path>
      <path d="M377.73808,218.39615c0.86454,3.47436 0.6867,6.81764 0.45709,10.30835c-0.16001,2.4326 0.31352,3.56897 -0.46204,6.01903c-0.93091,2.94084 -2.16756,6.26221 -6.07992,4.59705l0.03774,0.09658c0.00194,0.25209 0.00348,0.50463 0.00469,0.75764c0.14944,0.05891 0.27121,0.11951 0.35611,0.16572l0.21259,0.54404c0,0 1.4889,1.48901 3.50054,1.56821c1.49004,0.62093 3.57189,1.45545 3.97339,1.21911c0.3354,-0.19744 -0.18158,-0.77986 -0.10995,-1.16242c0.08056,-0.43017 0.16665,-0.86098 0.2494,-1.29262c-0.29474,-0.017 -0.5992,-0.00804 -0.90606,0.00732c0.12115,-0.10507 0.24245,-0.21804 0.36375,-0.33933c1.86446,-1.86432 1.76263,-3.72872 1.2498,-5.07469c0.88422,-7.80739 0.46361,-15.68995 2.46551,-23.24833c0,0 0.08432,-0.33729 0.11955,-0.85622c0.11192,0.11085 0.21941,0.22752 0.32279,0.34944c0.00616,-0.08697 0.01458,-0.17381 0.02569,-0.26047c0.12707,-0.99126 0.78126,-1.89518 0.78126,-2.89456c0,-0.99937 -0.68519,-1.89978 -0.78126,-2.89452c-0.07506,-0.77714 0.53872,-1.59021 0.27708,-2.32582c-0.15639,-0.43968 -0.86281,-0.35591 -1.29422,-0.53387c-1.24963,-0.40261 -2.38872,-1.34579 -3.70161,-1.34579c-0.58134,0 -1.06311,0.47309 -1.60945,0.67172c-0.65835,0.23935 -3.03519,0.79476 -3.60379,1.54577c-1.60729,2.12292 -1.86467,5.46732 -1.89117,8.48332c4.01552,-0.46965 5.36654,3.17888 6.04248,5.89534zM347.79453,218.14503c0.03991,-0.43525 -0.22897,0.43162 -0.40646,1.10564c0.10888,0.00377 0.21599,0.0145 0.3209,0.03176c0.0228,-0.38106 0.05098,-0.7603 0.08556,-1.1374zM350.8055,214.15328c1.50469,0.91924 2.08082,6.21452 2.1897,7.84053c0.14083,2.10307 -0.26852,4.20701 -0.39999,6.31068c-0.21963,3.51413 0.50314,7.77491 -2.45716,10.53327c-0.85154,0.79345 -2.16495,0.8554 -3.24742,1.2831l-1.40283,-0.83502l0.1625,1.17046c0,0 0.02618,0.18326 0.10373,0.47422c-0.00691,0.58406 -0.0444,1.16908 -0.12137,1.76434c0.20133,-0.11337 0.44512,-0.22173 0.71856,-0.28665c0.72831,1.29483 2.17021,2.68867 4.95597,2.29069c1.18663,-0.16953 2.04814,-0.58289 2.67222,-1.11344c0.47139,-0.23357 0.89105,-0.55982 1.2339,-1.00293c0.02269,-0.02933 0.045,-0.05908 0.06692,-0.08922l-0.33544,-0.10195c0.8584,-1.57558 0.60499,-3.34934 0.60499,-3.34934l-0.36235,-2.44734c0,-7.4758 0.10655,-15.34723 2.55601,-22.46436c0,0 0.69186,-2.07555 -0.21268,-3.93841c0.49618,-3.91925 0.67434,-8.33946 -3.53072,-9.99188c-4.5587,1.91146 -4.98291,5.95457 -6.42827,10.29059c-0.29863,0.89588 -0.55674,1.78137 -0.78439,2.66298c1.08843,-0.23453 2.41103,0.01789 4.01812,0.99969zM378.96934,148.81688c1.80928,0.34027 2.46539,1.18956 4.28698,1.03101c2.50363,-0.21792 3.71934,-2.99189 5.71995,-4.05588c1.4206,-0.75553 3.10057,-2.3838 4.53472,-1.6543c3.13627,1.5953 2.43077,7.98548 1.8526,10.71931c-0.089,0.42082 -1.04214,0.70744 -0.76677,1.03787c0.28574,0.34287 0.81842,-0.42154 1.26434,-0.44081c0.82298,-0.03556 1.63891,0.38984 2.45532,0.28009c2.15682,-0.28994 4.05201,-1.597 6.12319,-2.26494c0.79693,1.61683 2.17243,3.06119 2.3908,4.85048c0.49928,4.09107 -5.00505,6.33658 -5.96065,9.63533c-1.01947,3.51922 2.97033,8.45 3.97938,11.62004c1.35933,4.27047 1.89577,8.66461 1.95725,13.12515c0.57162,0.13192 1.18858,0.22373 1.85448,0.26824c0.01475,1.4131 -0.01954,2.81601 -0.17302,4.1779c-0.38207,3.39016 -2.00744,6.3346 -2.40659,9.65912c-0.51072,4.25381 -1.09848,8.23008 -2.48093,12.39353c-0.8807,3.52259 -2.68749,7.20144 -3.11904,10.80648c-0.61802,5.1627 -1.25222,10.24347 -2.67673,15.2357c0.54665,0.38351 1.62285,1.38952 0.90619,3.01801c0.1898,0.28469 0.3796,0.5694 0.5694,0.8541l0.2266,2.04358c0.0845,0.20024 0.11864,0.33683 0.11864,0.33683l0.77493,3.10737c1.89374,6.52287 -2.06131,10.36561 -6.06697,15.08391c-0.40198,0.4735 -0.69542,1.04308 -1.0218,1.57997c0.77121,-0.17261 1.47909,0.06336 1.47909,0.06336c6.36144,2.4108 9.33857,9.84924 12.57166,15.51691c2.9465,5.16525 5.32488,10.97632 5.92553,17.00847c0.12129,1.2181 -0.31937,2.4768 -0.05471,3.67197c0.51198,2.31202 2.13952,4.32109 2.44817,6.66892c0.74372,5.65748 -0.10827,10.98141 -2.09452,16.22291c-1.71466,1.21408 -5.13281,4.31225 -7.74349,3.19225c-1.05021,-0.45055 -1.57,-1.59754 -2.03668,-2.72737c-0.40405,0.85316 -1.08489,1.74522 -1.63886,2.18545c-1.3538,1.07585 -2.94802,2.54099 -4.65799,2.28366c-1.37036,-0.20622 -4.58581,-4.3875 -4.73178,-6.65408c-0.00574,0.00629 -0.01164,0.01201 -0.0177,0.01711c-1.21613,1.02248 -2.40416,2.3303 -3.95984,2.65324c-4.42582,0.91873 -6.58599,-2.94001 -8.40825,-6.1598c-0.67361,0.40021 -1.37117,0.7799 -2.09378,1.13788c-2.50008,1.2385 -2.07903,2.02869 -4.88702,3.2405c-0.0781,0.03371 -0.15764,0.06733 -0.23854,0.10083c-0.00072,0.00226 -0.00111,0.00341 -0.00111,0.00341c-1.08866,3.10821 -0.38164,5.73121 -0.68023,9.01569c-0.27113,2.98251 -1.33252,5.85763 -1.60368,8.84015c-0.24023,2.64238 0.2638,5.31934 0.00365,7.95984c-0.45637,4.63209 -0.95615,9.27279 -1.62374,13.79423c-0.48053,3.25454 0.40602,5.97857 -0.896,9.19009c-0.50339,1.24164 -0.60344,2.88206 -1.70991,3.63756c-1.1793,0.80523 -2.85653,0.18345 -4.26135,0.43962c-1.52789,0.27862 -2.93646,1.01283 -4.40984,1.50396c-4.17086,1.38202 -10.80755,3.09835 -14.55836,-0.60393c-0.86763,-0.85641 -0.93598,-2.25141 -1.40397,-3.37711l2.01766,-2.09329l-2.68202,-0.61537c1.67903,-3.358 3.36913,-6.61798 4.68859,-10.14188c0.89623,-2.39359 1.36186,-5.15328 2.50169,-7.43848c0.8442,-1.6925 2.4274,-2.96909 3.15952,-4.713c0.41803,-0.99574 0.33693,-2.15895 0.77657,-3.14534c1.12527,-2.52466 2.99672,-4.68529 4.01774,-7.25388c1.63889,-4.12297 3.28884,-8.27894 4.69103,-12.49212c-0.04298,-0.00001 -0.08559,-0.00022 -0.12784,-0.00063c-2.8136,-0.02713 -5.50666,-1.16858 -8.2822,-1.63067c-1.93924,-0.32286 -3.98436,-0.56306 -6.0275,-0.86964c-0.06481,0.20031 -0.12549,0.32166 -0.12549,0.32166c-4.36139,8.68277 -6.78629,17.49335 -9.43574,26.78095c-1.0079,3.53314 -2.06543,7.00206 -3.22861,10.49163c-0.24973,0.74921 -1.69443,5.19119 -1.98492,5.52692c-2.95821,3.41891 -6.46875,2.59538 -10.3863,2.55021c-3.20702,0.95309 -7.8501,0.73445 -9.80464,-2.88805c-0.6948,-1.28773 -0.19721,-2.91977 -0.29582,-4.37966l1.6743,-1.26841l1.03866,-1.55799c1.82128,-4.51083 4.47149,-8.26889 6.65895,-12.58817c4.55686,-8.99776 9.33213,-17.88456 13.88887,-26.90742c-2.86981,-1.12492 -4.25964,-1.25095 -4.74764,-4.64382c-1.5941,0.53771 -4.71422,1.57147 -5.14494,1.44368c-2.98697,-0.88624 -4.41263,-2.42238 -4.47444,-4.12248c-0.38238,0.27448 -0.78711,0.50642 -1.2335,0.65904c-0.12691,0.04339 -0.25486,0.08158 -0.38374,0.11516l0.01403,0.0421l-2.34466,0.78153c-0.26419,0.09499 -0.54901,0.14674 -0.84591,0.14674c-1.38071,0 -2.5,-1.11929 -2.5,-2.5c0,-0.29691 0.05176,-0.58173 0.14675,-0.84593l0.78153,-2.3446l0.10496,0.03499l0.02096,-0.3428c3.34013,-5.04147 8.75407,-9.4297 11.1595,-15.113c0.45988,-1.08655 0.32227,-2.39779 0.91079,-3.4204c1.04323,-1.81269 2.98518,-3.00169 4.01322,-4.82304c1.70977,-3.02916 2.781,-6.41237 5.02898,-9.13016c2.87678,-3.47801 6.20176,-6.98336 9.3909,-10.20499c-2.53621,-1.15947 -5.9634,-3.22396 -7.62535,-4.84229c-0.68884,-0.67076 -0.92023,-1.71999 -1.59997,-2.39996c-0.6637,-0.66393 -1.70209,-0.87261 -2.3503,-1.55167c-2.9092,-3.04761 -4.28411,-5.59775 -3.96749,-10.08482c0.14794,-2.09663 1.99369,-5.8515 2.98975,-8.4297c-0.6042,-0.73158 -0.60421,-1.70158 -0.60421,-1.70158c0,-2.03153 0.27704,-4.07953 0.01873,-6.09457c-0.29907,-2.33304 -1.07673,-4.67511 -0.79998,-7.0109c0.11397,-0.96197 0.78042,-1.82992 0.7831,-2.79862c0.00206,-0.7441 -0.66253,-1.35911 -0.76954,-2.09549c-0.15339,-1.05558 0.14602,-2.14336 0,-3.19998c-0.2701,-1.9545 -1.3903,-3.73464 -1.61359,-5.69504c-0.62047,-5.44751 -0.74522,-12.83531 0.01355,-18.30587c0.11586,-0.83528 0.69295,-1.56357 0.79999,-2.40002c0.52612,-4.1116 -0.00361,-7.92961 0.81632,-12.08985c0.58458,-2.90571 1.24543,-7.47696 2.59407,-10.1841c1.77388,-3.56073 5.01115,-6.44724 7.56872,-9.3636c3.78795,-4.31934 7.57586,-7.21687 12.62633,-10.1199c3.44758,-1.98168 6.3502,-4.49523 10.46183,-5.1098c0.59016,-0.08821 1.1619,-0.15967 1.72045,-0.2163c0.03153,0.22808 0.06898,0.4498 0.11199,0.66535c4.21156,-0.68077 8.93297,-0.45516 13.13735,0.33554zM388.00153,222.89159c2.49491,2.02744 4.99845,2.31772 8.05573,3.33501l0.1056,0.05125c0.77145,-2.84904 1.93669,-5.67614 2.6369,-8.47682c1.31356,-3.92488 1.80338,-7.62465 2.31899,-11.60647c0.32261,-2.49137 1.3108,-4.75053 1.93439,-7.13984c-0.05811,-0.01269 -0.1173,-0.02721 -0.17759,-0.04366c-2.41191,-0.6578 -1.75411,-3.06971 -1.75411,-3.06971l0.73404,-2.60736c-0.03584,-4.16483 -0.5281,-8.27047 -1.7713,-12.24407c-1.45009,-4.63488 -5.44129,-9.29838 -4.02062,-14.51331c0.62195,-2.28302 2.76265,-4.21694 4.28547,-6.16371c-1.57353,0.53596 -3.59599,0.3168 -5.14348,-0.00199c-1.5811,-0.32572 -3.56887,-0.26734 -4.60233,-1.50749c-0.91798,-1.10158 -0.18805,-2.86226 -0.23344,-4.29547c-0.00385,-0.12173 -0.09454,-1.88954 0.066,-3.44905c-0.18881,0.16807 -0.36593,0.31726 -0.51121,0.43514c-2.09521,1.7 -3.30146,2.9015 -6.11419,3.22305c-1.9703,0.22525 -3.89923,-0.72619 -5.84636,-1.10233c-3.64616,-0.70435 -7.95627,-0.94783 -11.58345,-0.25593c0,0 -1.12662,0.20484 -1.99354,-0.42522c-3.20434,0.5889 -5.59388,2.85213 -8.3247,4.4243c-4.57931,2.63636 -7.96472,5.17474 -11.37367,9.08011c-2.21423,2.53666 -5.27436,5.13687 -6.8313,8.23644c-1.17561,2.34043 -1.71156,6.52839 -2.20586,9.01585c-0.83567,4.11022 -0.28113,7.80304 -0.78378,11.91015c-0.10244,0.83703 -0.67681,1.56579 -0.79999,2.40002c-0.29211,1.97843 0.03228,3.99967 0.03228,5.99955c0,3.55318 -0.39852,7.36883 -0.01873,10.89453c0.20452,1.89869 1.30863,3.61563 1.58648,5.50498c0.15521,1.05533 -0.14856,2.14375 0,3.20004c0.09592,0.68201 0.49358,1.30736 0.70188,1.96239c1.1542,-0.90732 2.35625,-1.7516 3.64362,-2.61046c0,0 0.15562,-0.10375 0.41012,-0.21193c0.33567,-5.5858 1.36415,-10.80766 3.20494,-16.33013c0.95504,-2.86516 1.56759,-5.94083 3.80396,-8.1772c2.19277,-2.19278 3.74459,-2.2815 6.56776,-3.13223c1.23809,0.39112 2.61728,0.47879 3.71427,1.17336c6.34348,4.01644 4.99775,11.42949 4.37353,17.57299c-0.19112,1.88093 -0.01783,3.78125 0.05232,5.67576c1.47264,-0.11839 2.95085,-0.17783 4.42809,-0.18869c0.01533,-0.16601 0.03137,-0.33211 0.04816,-0.49833c0.32047,-3.17254 -0.34092,-6.4906 0.1159,-9.63553c0.9108,-6.27026 5.00615,-12.49957 12.0677,-12.49957c0.61238,0 5.1517,1.5989 5.89836,1.85421c1.16861,0.88871 2.78729,1.38585 3.50583,2.66615c0.6662,1.18704 0.08232,2.72701 0.27708,4.07421c0.17169,1.18758 0.81872,2.30551 0.81872,3.50544c0,1.19994 -0.67329,2.31438 -0.81872,3.50547c-0.40841,3.34499 -0.87264,6.69725 -1.35886,10.04317c0.52493,0.16749 0.87908,0.44294 0.87908,0.44294zM380.40001,319.19999l0.55333,0.21388c7.62653,-5.9244 10.84744,-16.82934 13.04638,-25.61281c1.89635,-5.43959 0.16879,-10.18026 -2.24547,-15.0027c-0.65753,-1.31341 -0.75616,-2.26084 -1.14489,-2.96552c-0.34738,0.22128 -0.8054,0.36716 -1.4093,0.36716c-1.12477,0 -1.74351,-0.50605 -2.08386,-1.06279c-0.77573,0.5883 -1.55144,1.17649 -2.41779,1.60863c-5.26532,2.62634 -11.46168,2.31158 -16.99736,0.9545c-5.59942,-1.86211 -11.41676,-2.64179 -17.07747,-4.16721c-1.42278,6.13031 -1.42446,12.84401 -3.93728,18.77832c-0.38723,0.91448 -1.19412,1.5998 -1.64047,2.48693c-2.36845,4.70746 -3.44629,10.21232 -5.53607,15.05836c-1.38083,3.20204 -2.9151,5.25122 -3.9094,8.54226c-0.23674,0.78361 -1.30883,2.01059 -0.58139,2.38597c1.04328,0.53835 2.22997,0.73501 3.34495,1.10251c4.10377,2.83247 10.35361,2.93015 15.24713,3.74658c2.58945,0.43202 5.0928,1.53341 7.7178,1.56928c2.70969,0.03703 7.47613,-1.09228 10.05977,-2.18957c1.74088,-0.73936 3.02421,-2.30803 4.71307,-3.15953c0.56392,-0.28432 1.22129,-0.34828 1.82035,-0.54596c0.24647,-2.10827 2.47797,-2.10827 2.47797,-2.10827zM387.09841,325.85423c0.3059,0.18381 0.57811,0.72973 0.90116,0.57807c2.70019,-1.26764 2.73056,-4.77245 7.11851,-2.96837c1.45989,0.60023 2.85896,5.57091 3.37224,6.98463c0.10548,0.29052 0.00875,-0.63739 0.14193,-0.91629c0.29625,-0.62041 0.75893,-1.14682 1.12202,-1.73064c0.75582,-1.21531 0.8272,-3.40556 2.23442,-3.66626c6.44872,-1.1947 4.33745,2.33637 5.76808,4.85497c0.13383,0.2356 0.14008,-0.55869 0.34491,-0.73608c0.43968,-0.38078 1.00771,-0.58115 1.51157,-0.87172c1.02175,-4.11856 1.60897,-8.25729 1.10555,-12.57702c-0.25338,-2.1742 -1.87572,-3.99463 -2.35188,-6.13112c-0.31386,-1.40824 0.08945,-2.89246 -0.05471,-4.32803c-0.53438,-5.32145 -2.67521,-10.45099 -5.27442,-14.99152c-1.48656,-2.59686 -2.92172,-4.95439 -4.49706,-7.31476c1.38411,4.19798 1.76382,8.47955 0.25959,13.15896c-2.57916,10.33248 -6.40732,20.47172 -14.39735,27.16575c0.67861,1.38737 1.2788,2.63824 2.69545,3.48943zM384.33336,246.83163c0,0 -0.35758,0 -0.80227,-0.13523c-0.20051,0.42558 -0.4685,0.79044 -0.86926,1.0317c-2.60831,1.57031 -6.0215,0.32572 -8.82172,-0.73927c0.16636,0.33473 0.25991,0.71204 0.25991,1.1112c0,0.39132 -0.08991,0.76165 -0.2502,1.09144l0.17556,0.70225l-0.20045,0.05012c0.96794,1.92947 1.79077,3.90059 2.54682,6.16561l-0.31388,0.11173c0.44217,0.6911 0.44217,1.47882 0.44217,1.47882c-0.00624,1.16849 -0.01249,2.33697 -0.01873,3.50546l-0.8559,3.50089c0,0 -0.60633,2.42536 -3.03169,1.81903c-0.2308,-0.0577 -0.43413,-0.13186 -0.61316,-0.21885c-1.52945,0.9166 -3.11398,1.78653 -3.64201,2.16404c-1.19779,0.85632 -1.95827,2.42505 -3.36418,2.86257c-0.01288,0.00401 -0.02575,0.00783 -0.03863,0.01148c1.42622,0.51169 2.84927,1.11602 4.16323,1.55512c7.71647,1.97695 16.4364,-0.33578 21.36767,-6.38467c2.46663,-3.02566 6.89806,-6.22896 5.1331,-10.51607l-0.37618,-1.50125c-0.52351,-0.71614 -0.52351,-1.59773 -0.52351,-1.59773l0.07675,-0.18522l-0.00212,-0.00844c0,0 -0.15701,-0.62805 0.00837,-1.32485c-0.42106,-0.63157 -0.84211,-1.26314 -1.26316,-1.89471c0,0 -0.88152,-1.32228 -0.18468,-2.56118l-0.9069,-1.21611c0.0423,-0.12689 0.08392,-0.25384 0.12489,-0.38084c-2.63308,0.97954 -5.11295,1.48822 -8.21985,1.50297zM347.70006,379.30004c0,0.28819 -0.03323,0.54317 -0.09201,0.76875c1.95992,1.5476 6.70907,-0.03827 8.80142,-0.74049c0.38214,-0.12738 5.00799,-1.67913 5.19013,-1.69599c0.72469,-0.0671 1.4531,0.6839 2.13868,0.43962c0.36665,-0.13064 -0.18158,-0.77991 -0.10994,-1.16249c0.53535,-2.85895 0.29982,-5.49598 0.70398,-8.40988c0.61005,-4.39828 1.118,-8.89357 1.57621,-13.40572c0.27077,-2.66634 -0.239,-5.37112 0.00365,-8.04016c0.24979,-2.74757 1.34661,-6.01225 1.59639,-8.75983c0.23001,-2.53011 0.03575,-4.70002 0.26376,-6.97053c-0.6374,0.14333 -1.27953,0.27311 -1.91276,0.38617c0.46105,0.93446 0.11217,1.98109 0.11217,1.98109c-1.45391,4.34474 -3.13364,8.66071 -4.84203,12.90688c-1.03244,2.5661 -2.8994,4.73041 -4.01997,7.25926c-0.45337,1.02313 -0.37608,2.22891 -0.8234,3.25469c-1.17671,2.69839 -2.02902,2.47145 -3.2405,4.88698c-1.061,2.11548 -1.46511,4.74271 -2.29836,6.96155c-0.92104,2.45263 -2.00324,4.78527 -3.14179,7.10639c0.30807,0.77884 0.07966,1.49253 -0.18571,1.97456c0.17167,0.32636 0.28009,0.73856 0.28009,1.25917zM320.79961,370.4323c1.18415,-0.01062 6.24978,0.83874 7.21367,-0.64975c0.77011,-1.18923 0.767,-2.72895 1.21503,-4.07306c1.14322,-3.42972 2.17815,-6.83707 3.17142,-10.30842c2.64482,-9.24331 5.12495,-18.03163 9.31233,-26.69782c-0.83104,-0.22046 -1.64562,-0.47506 -2.43557,-0.77507c-4.5729,9.06117 -9.36111,17.98866 -13.94506,27.01849c-1.65773,3.26553 -3.55604,6.1987 -5.18057,9.37643c0.76761,1.13018 0.08527,2.4949 0.08527,2.4949l-1.64934,2.56218l-1.94432,1.29619c1.09535,0.76382 3.51558,0.00225 4.15715,-0.24407zM338.28614,245.99132c-0.4744,-0.08625 -0.94881,-0.17252 -1.42322,-0.25877c-0.91033,2.31198 -2.52582,5.37508 -2.77738,7.43616c-0.53386,4.37395 2.45434,5.13645 4.88229,7.56358c0.67998,0.67975 0.93156,1.70884 1.59998,2.39996c2.62897,2.71827 7.42921,4.10168 10.8739,4.95155c1.25433,0.30947 2.52884,0.8926 3.80793,1.4075c-2.95906,-1.89734 -5.54424,-5.35034 -7.81736,-7.62353c0,0 -1.76774,-1.76779 0.00005,-3.53554c0.15666,-0.15665 0.31331,-0.28553 0.46873,-0.39034c0.00622,-0.00952 0.01252,-0.01905 0.01888,-0.0286c0.17546,-0.26319 0.36202,-0.47089 0.55407,-0.63291c-0.59238,-0.45717 -0.97395,-1.17419 -0.97395,-1.98034c0,-0.79811 0.374,-1.50888 0.9563,-1.9666l3.8863,-3.10905l0.15159,0.18948c0.22575,-0.14927 0.44895,-0.30947 0.67343,-0.4642c0.44616,-0.4716 0.91013,-0.9269 1.4029,-1.37414c-2.93919,0.77936 -6.27308,0.2598 -9.17688,-0.45018l-0.23208,-3.20644c-0.09886,0.26558 -0.93398,2.29219 -3.15211,1.55283c-0.5161,-0.17203 -0.88247,-0.41894 -1.13981,-0.69998zM339.13341,284.885c-2.0668,2.45749 -2.98678,5.72564 -4.57112,8.46983c-1.03699,1.79615 -2.9646,2.97231 -3.98678,4.77693c-0.50243,0.88702 -0.28366,2.04432 -0.68919,2.97962c-1.36617,3.15084 -3.5484,5.87929 -5.80874,8.53419c1.15229,0.22289 2.02245,1.23705 2.02245,2.45444v4h-0.06972c0.01459,0.13316 0.02714,0.26663 0.03744,0.40044c0.03818,0.496 -0.68858,0.73933 -0.90303,1.18822c-0.26037,0.545 1.08515,-0.53305 1.64475,-0.76036c0.78129,-0.31735 1.60003,-0.53333 2.40004,-0.79999l1.59054,-0.12829c0,0 0.11513,0 0.29597,0.02471c0.99711,-2.99402 2.51184,-5.06746 3.79435,-8.08146c2.10998,-4.95862 3.26619,-10.51787 5.66387,-15.34167c0.41388,-0.83268 1.18878,-1.46021 1.55949,-2.31299c1.59064,-3.6591 2.12286,-7.71759 2.6592,-11.7249c-1.94978,2.06979 -3.86292,4.20884 -5.63952,6.32128zM392.75465,239.84548c0.16306,-0.14511 0.67037,-0.55425 1.34271,-0.68975c0.48908,-2.56838 0.83111,-5.15901 1.16639,-7.77451l-0.78764,-0.41121c-3.11039,-1.03875 -5.56465,-1.59412 -8.14507,-3.17673c-0.35649,2.37763 -0.71501,4.74834 -1.06329,7.1072c-0.36401,2.46542 0.05647,4.62641 -0.28422,6.9255c2.93248,-0.06958 5.05759,-0.74068 7.77112,-1.98051zM361.30003,228.90001c0.02121,4.4663 1.03517,11.41147 -1.40855,15.68428c0.68462,-0.52305 1.36822,-1.05281 2.18408,-1.27702c1.68181,-0.46218 3.23125,-0.31739 4.76784,0.02131c-0.14335,-0.45679 -0.14335,-0.82853 -0.14335,-0.82853c0,-6.14917 -0.51786,-12.07578 -0.40045,-18.06511c-1.49935,0.0159 -2.99944,0.08931 -4.49131,0.23509c-0.23985,1.4061 -0.51501,2.80888 -0.50826,4.22998zM357.44405,257.99936c0.03573,-0.02311 0.07208,-0.04533 0.10903,-0.06664l3.96071,-2.37645l0.03537,0.05895c0.11439,-0.0848 0.23078,-0.16721 0.34938,-0.24703c1.24611,-0.8386 2.9408,-0.61309 4.41121,-0.91964l2.09026,-0.04854c0,0 1.5688,0 2.22091,1.24273c0.01882,0.01302 0.03744,0.02628 0.05587,0.0398c0.00628,-0.03623 0.0136,-0.07267 0.02201,-0.10932c-0.07331,-0.14618 -0.14702,-0.29221 -0.22029,-0.43828c-0.49745,-0.25011 -0.8999,-0.66142 -1.13878,-1.16536l-1.57576,-3.15157l0.10875,-0.05438l-1.45756,-1.9434c-0.13043,-0.17005 -0.23951,-0.35734 -0.32322,-0.55786c-0.96198,-0.20774 -1.97656,-0.35054 -2.56744,-0.16965c-0.79217,0.24251 -1.53279,0.70721 -2.24587,1.27866c0.01412,0.10754 0.02141,0.21722 0.02141,0.32861c0,0.88153 -0.45625,1.6565 -1.1455,2.10163l-2.36776,1.57853l-0.02005,-0.03007c-0.03691,0.03773 -0.07421,0.07515 -0.1119,0.11222c-0.63391,0.62358 -1.51418,0.9018 -2.35985,1.22855c-0.90517,0.90475 -1.73786,1.8851 -2.49495,2.90918c0,0 -0.09556,0.12741 -0.27059,0.29379c1.58668,0.71167 3.2401,0.58139 4.91461,0.10554zM369.57053,260.17274l-4.75951,0.79329l-0.01076,-0.06457c-0.69083,0.29091 -1.39025,0.55999 -2.10125,0.79888l-0.10153,-0.01052l0.00889,0.03558l-3.14562,0.78639c-0.14027,0.03834 -0.28546,0.06477 -0.43441,0.07813c-1.12302,0.41654 -2.26018,0.75806 -3.45884,0.91445c1.05415,1.0429 2.14727,1.89539 3.22312,2.22395c1.15123,0.35159 2.4189,-0.27071 3.60988,-0.09601c0.54468,0.07989 0.91147,1.03258 1.42514,0.83458c0.75003,-0.2891 0.80653,-1.43731 1.43587,-1.93736c2.00768,-1.59524 4.27208,-1.95813 5.54678,-3.52728c0.07477,-0.25841 0.1557,-0.42028 0.1557,-0.42028l0.13768,0.00785c0.16194,-0.26172 0.30037,-0.55372 0.41136,-0.88371c-0.00224,-0.34648 -0.00449,-0.69295 -0.00673,-1.03942c-0.33215,0.79147 -1.05984,1.37593 -1.93577,1.50605zM339.18058,241.07197l1.37599,-0.2877c0,0 0.09245,-0.01156 0.24388,-0.01236c-0.14961,-2.28924 -1.29366,-4.68855 -1.29857,-6.97598c-0.00343,-1.59663 0.42927,-3.16711 0.65893,-4.74972c-1.17839,0.8794 -2.29018,1.81136 -3.39301,2.91985l-0.53337,0.53336c0,0 -0.19212,0.19212 -0.51303,0.38635c0.36635,2.67321 0.64879,5.06847 0.74393,7.69251c0.90508,0.16457 1.81017,0.32913 2.71525,0.49369z" fill="#000000" stroke-width="0.5"></path>
      <path d="M347.60002,236.56949c0,-1.38071 1.11929,-2.5 2.5,-2.5c1.38071,0 2.5,1.11929 2.5,2.5c0,1.38071 -1.11929,2.5 -2.5,2.5c-1.38071,0 -2.5,-1.11929 -2.5,-2.5z" fill="#e2e2e2" stroke-width="0.5"></path>
      <path d="M373.2,236.96948c0,-1.38071 1.11929,-2.5 2.5,-2.5c1.38071,0 2.5,1.11929 2.5,2.5c0,1.38071 -1.11929,2.5 -2.5,2.5c-1.38071,0 -2.5,-1.11929 -2.5,-2.5z" fill="#e2e2e2" stroke-width="0.5"></path>
    </g>
  </g>
</svg>
