<?xml version="1.0" encoding="UTF-8"?>
<svg xmlns="http://www.w3.org/2000/svg" xmlns:xlink="http://www.w3.org/1999/xlink" version="1.1" width="678.68471" height="470.76561" viewBox="0,0,678.68471,470.76561">
  <defs>
    <linearGradient x1="239.73924" y1="-42.01003" x2="239.73924" y2="398.98997" gradientUnits="userSpaceOnUse" id="color-1">
      <stop offset="0" stop-color="#949494"></stop>
      <stop offset="1" stop-color="#595959"></stop>
    </linearGradient>
    <radialGradient cx="311.60001" cy="156.57563" r="140.01563" gradientUnits="userSpaceOnUse" id="color-2">
      <stop offset="0" stop-color="#fff9d0"></stop>
      <stop offset="1" stop-color="#e0e3ff"></stop>
    </radialGradient>
    <radialGradient cx="151.60001" cy="280.57563" r="140.01563" gradientUnits="userSpaceOnUse" id="color-3">
      <stop offset="0" stop-color="#4e6721"></stop>
      <stop offset="1" stop-color="#666321"></stop>
    </radialGradient>
    <linearGradient x1="240.26076" y1="316.01003" x2="240.26076" y2="402.01003" gradientUnits="userSpaceOnUse" id="color-4">
      <stop offset="0" stop-color="#3e404e"></stop>
      <stop offset="1" stop-color="#353643"></stop>
    </linearGradient>
    <linearGradient x1="-30.39999" y1="-44.08998" x2="-30.39999" y2="392.91002" gradientUnits="userSpaceOnUse" id="color-5">
      <stop offset="0" stop-color="#777777"></stop>
      <stop offset="1" stop-color="#616161"></stop>
    </linearGradient>
    <linearGradient x1="507.60001" y1="-44.08998" x2="507.60001" y2="392.91002" gradientUnits="userSpaceOnUse" id="color-6">
      <stop offset="0" stop-color="#777777"></stop>
      <stop offset="1" stop-color="#616161"></stop>
    </linearGradient>
  </defs>
  <g transform="translate(95.74235,50.08998)">
    <g stroke="none" stroke-miterlimit="10">
      <path d="M-78.76076,398.98997v-441h637v441z" fill="url(#color-1)" stroke-width="0"></path>
      <path d="M99.72362,315.88996v-203h280.03125v203z" fill="url(#color-2)" stroke-width="0"></path>
      <path d="M304.60001,161.07563c0,-11.87412 9.62588,-21.5 21.5,-21.5c11.87412,0 21.5,9.62588 21.5,21.5c0,11.87412 -9.62588,21.5 -21.5,21.5c-11.87412,0 -21.5,-9.62588 -21.5,-21.5z" fill-opacity="0.67843" fill="#ffe53b" stroke-width="0"></path>
      <path d="M99.72362,315.88996v-61h280.03125v61z" fill="url(#color-3)" stroke-width="0"></path>
      <path d="M105.60001,261.57563v-9h268v9z" fill="#384917" stroke-width="0"></path>
      <path d="M-78.23924,402.01003v-86h637v86z" fill="url(#color-4)" stroke-width="0"></path>
      <path d="M-81.39999,392.91002v-437h102l-4,360z" fill="url(#color-5)" stroke-width="0"></path>
      <path d="M460.60001,315.91002l-4,-360h102v437z" fill="url(#color-6)" stroke-width="0"></path>
      <path d="M93.22362,315.91002v-211h13v211z" fill="#ababab" stroke-width="0"></path>
      <path d="M94.60001,119.88996v-14h292v14z" fill="#ababab" stroke-width="0"></path>
      <path d="M16.10001,320.91002v-368h9v368z" fill="#616161" stroke-width="0"></path>
      <path d="M452.10001,317.91003v-368h9v368z" fill="#616161" stroke-width="0"></path>
      <path d="M16.60001,324.91002v-10h450v10z" fill="#23242c" stroke-width="0"></path>
      <path d="M-88.03571,419.67564l-7.70664,-9.19825l114.97807,-96.33298l7.70664,9.19825z" fill="#23242c" stroke-width="0"></path>
      <path d="M460.25766,324.34266l7.70664,-9.19825l114.97807,96.33298l-7.70664,9.19824z" fill="#23242c" stroke-width="0"></path>
      <path d="M122.6631,264.79763c-1.222,0.2631 -1.4851,-0.9589 -1.4851,-0.9589l-0.37369,-1.74246c-0.21866,0.18768 -0.50294,0.30109 -0.81371,0.30109c-0.5623,0 -1.03789,-0.37128 -1.19497,-0.88207l-0.78144,-2.34437l0.05221,-0.0174l-0.10012,-0.17711c-0.0012,-0.16277 0.00115,-0.32801 0.00781,-0.49453c-0.16295,0.15245 -0.32991,0.29073 -0.50439,0.40241c0.64753,2.89739 1.36911,5.69822 1.38032,8.69134c0,0 0,1.25 -1.25,1.25c-1.25,0 -1.25,-1.25 -1.25,-1.25c0.01373,-3.23272 -0.94213,-6.30377 -1.59338,-9.47177l0.03555,-0.1282h-0.04214v-2.40002c0,-0.69036 0.55964,-1.25 1.25,-1.25c0.5623,0 1.03789,0.37128 1.19497,0.88207l0.13834,0.41504l0.66231,-1.98678c0.1571,-0.51077 0.63267,-0.88203 1.19496,-0.88203c0.68928,0 1.24825,0.55789 1.25,1.24676l0.00743,2.49952l-0.17717,0.00053c0.0707,0.45989 0.12182,0.92156 0.14652,1.38449c0.20059,-0.13709 0.44316,-0.21727 0.70447,-0.21727c0.56308,0 1.03921,0.37231 1.19562,0.88419l0.77722,2.34581l-0.01492,0.00494c0.01146,0.01987 0.02292,0.03973 0.03439,0.0596l0.50783,2.35004c0,0 0.2631,1.222 -0.9589,1.4851z" fill="#67872b" stroke-width="0.5"></path>
      <path d="M357.7259,259.02831c-1.05266,-0.6741 -0.37856,-1.72676 -0.37856,-1.72676l1.27464,-1.99045c0.45067,-0.70376 0.96051,-1.3682 1.50858,-2.00261l-0.16039,-0.10271l1.33697,-2.08778c0.22026,-0.35615 0.61436,-0.59344 1.06389,-0.59344c0.64589,0 1.17736,0.48987 1.24315,1.11833c0.22176,-0.34886 0.61169,-0.58034 1.05568,-0.58034c0.69036,0 1.25,0.55964 1.25,1.25c0,0.08256 -0.008,0.16326 -0.02328,0.24135l-0.43062,2.43797c-0.60175,3.40333 -1.83246,6.3742 -2.65327,9.68691c0,0 -0.30317,1.21268 -1.51585,0.90951c-1.21268,-0.30317 -0.90951,-1.51585 -0.90951,-1.51585c0.32622,-1.29436 0.71236,-2.53214 1.09642,-3.76345c-0.34574,-1.18551 -0.63349,-2.42028 -0.75099,-3.65822c-0.00182,0.00285 -0.00364,0.00569 -0.00546,0.00853l-1.27464,1.99045c0,0 -0.6741,1.05266 -1.72676,0.37856z" fill="#82872b" stroke-width="0.5"></path>
      <path d="M250.32087,262.55442c1.02121,0.72086 0.30035,1.74207 0.30035,1.74207l-1.32469,1.8502c-1.08103,0.60999 -2.04477,2.15361 -3.24308,1.82996c-1.3918,-0.37591 -1.87231,-2.11746 -1.90652,-3.84285c-0.83493,2.09363 -2.0023,4.89855 -2.93894,5.31845c-1.69577,0.76022 -2.62558,0.80958 -3.15797,0.46374c0,2.68656 0,5.37312 0,8.05967c0,0 0,1.25 -1.25,1.25c-1.25,0 -1.25,-1.25 -1.25,-1.25c0,-3.20001 0,-6.40002 0,-9.60004l0,-2.5c0,-0.69036 0.55964,-1.25 1.25,-1.25c0.44966,0 0.84386,0.23743 1.06408,0.59375l1.33638,2.08813l-0.08591,0.05498c0.31433,0.12859 0.62331,0.11671 0.91837,-0.11688c0.46354,-0.36696 0.31108,-1.14379 0.53425,-1.69126c0.62914,-1.54336 1.43361,-3.0093 2.15042,-4.51394l0.94197,-1.97729c0.1957,-0.43478 0.63272,-0.73748 1.14044,-0.73748c0.61444,0 1.12534,0.44333 1.23027,1.02757l0.48574,2.42875l-0.00778,0.00156c0.00623,0.01984 0.01237,0.03971 0.01844,0.05961c0.23297,0.76375 0.17796,1.58777 0.22492,2.38488c0.0264,0.44811 -0.44206,1.24401 -0.00506,1.34666c0.4522,0.10622 0.5046,-0.78004 0.75691,-1.17005l1.07535,-1.54982c0,0 0.72086,-1.02121 1.74207,-0.30035z" fill="#82872b" stroke-width="0.5"></path>
      <path d="M173.02189,300.29557c-0.71994,1.02186 -1.74179,0.30192 -1.74179,0.30192l-0.3126,-0.22024c-0.68124,-0.47996 -1.39039,-0.92256 -2.04371,-1.43987c-0.46544,-0.36855 -0.71314,-1.25588 -1.30519,-1.21187c-0.89713,0.06669 -1.38198,1.67769 -2.25888,1.47683c-0.99092,-0.22698 -1.48638,-0.75156 -1.73178,-1.39005c-0.26923,1.21152 -0.53846,2.42303 -0.80769,3.63455c0,0 -0.27117,1.22023 -1.4914,0.94906c-1.22023,-0.27117 -0.94906,-1.4914 -0.94906,-1.4914c0.36156,-1.62698 0.72312,-3.25395 1.08467,-4.88093l0.51002,-2.29505c0.11471,-0.57199 0.61982,-1.00287 1.22557,-1.00287c0.46331,0 0.86775,0.25206 1.08366,0.62653l1.27444,2.1241c0.25129,0.3545 -0.14907,1.32608 0.28216,1.27269c0.76527,-0.09475 0.97039,-1.54784 1.74111,-1.52318c0.54629,0.01747 4.17236,2.64727 4.82595,3.10775l0.3126,0.22024c0,0 1.02186,0.71994 0.30192,1.74179z" fill="#67872b" stroke-width="0.5"></path>
      <path d="M344.80002,300.82563c-1.25,0 -1.25,-1.25 -1.25,-1.25l0.01701,-0.59449c-0.21218,-1.27307 -0.55164,-3.24727 -0.72714,-4.54012c-0.0464,-0.34182 0.15554,-1.26037 -0.10112,-1.0299c-0.44664,0.40105 -0.21112,1.25737 -0.6305,1.68685c-2.49396,2.55397 -6.63164,3.22674 -7.11286,0.09207c-1.0261,2.0883 -2.24483,3.91319 -3.55535,5.87896c0,0 -0.69338,1.04006 -1.73344,0.34668c-1.04006,-0.69338 -0.34668,-1.73344 -0.34668,-1.73344c1.38725,-2.08086 2.67712,-3.97699 3.70652,-6.2599l1.01987,-2.25142c0.19056,-0.44684 0.63387,-0.76005 1.15033,-0.76005c0.56368,0 1.04022,0.3731 1.19612,0.88582l0.75376,2.28558c0.21147,0.50354 -0.34942,1.37869 0.13393,1.63293c0.45543,0.23955 0.81656,-0.62879 1.25111,-0.90443c0.60607,-0.38443 1.30774,-0.62287 1.86663,-1.07316c0.85868,-0.69182 1.25146,-2.38954 2.35233,-2.32598c2.90218,0.16758 2.94279,5.86017 3.2425,7.65849l0.01701,1.00548c0,0 0,1.25 -1.25,1.25z" fill="#82872b" stroke-width="0.5"></path>
      <path d="M316.08393,266.05955c-0.88388,0.88388 -1.76777,0 -1.76777,0l-1.1256,-1.36805c-0.39569,-1.51501 -1.04521,-2.98563 -1.18707,-4.54502c-0.04671,-0.51345 0.77326,-1.39681 0.27322,-1.52238c-0.50004,-0.12557 -0.19471,1.04038 -0.47846,1.47084c-0.49894,0.7569 -3.96599,4.1657 -4.56891,4.0411c-1.05681,-0.21841 -1.33174,-1.65881 -1.64498,-2.78168c-0.39169,1.38893 -0.78596,2.77713 -1.18241,4.16471c0,0 -0.34339,1.20191 -1.5453,0.85851c-1.20191,-0.34339 -0.85851,-1.5453 -0.85851,-1.5453c0.47164,-1.65078 0.94636,-3.30068 1.42366,-4.94983l0.09956,-0.11641l-0.03273,-0.01872l1.22942,-2.14894c0.2123,-0.38754 0.62397,-0.65031 1.09702,-0.65031c0.55439,0 1.02449,0.36091 1.18815,0.8606l0.82393,2.32951c0.1846,0.48339 -0.59858,1.44488 -0.09185,1.5496c0.50673,0.10472 0.2398,-1.03062 0.52994,-1.45906c0.52101,-0.76939 3.96667,-4.19349 4.62038,-4.02932c1.35792,0.34101 2.37665,6.53122 2.7238,7.86035l0.4745,0.23204c0,0 0.88388,0.88388 0,1.76777z" fill="#82872b" stroke-width="0.5"></path>
      <path d="M200.00585,270.42565c-1.24999,0.00582 -1.2558,-1.24417 -1.2558,-1.24417l-0.00724,-1.55667c0.00375,-1.73875 -0.09207,-4.44776 -0.62999,-6.03264c-0.12107,-0.35672 0.01499,0.84328 -0.26113,1.09954l-1.76775,1.76778c-0.22621,0.22621 -0.53871,0.36613 -0.88389,0.36613c-0.68616,0 -1.24319,-0.55286 -1.24994,-1.23743l-0.02606,-2.26422c0.20679,-0.47269 0.90119,-0.98523 0.62038,-1.41806c-0.25891,-0.39906 -0.44432,0.85066 -0.75454,1.21127c-0.49126,0.57105 -2.20007,2.17524 -3.46434,3.06486c0.20514,1.26076 0.61403,2.50122 1.19249,3.63454c0,0 0.55902,1.11803 -0.55902,1.67705c-1.11803,0.55902 -1.67705,-0.55902 -1.67705,-0.55902c-0.79258,-1.61315 -1.31408,-3.38561 -1.53269,-5.16961l0.00849,-0.03557l-0.01105,0.00066l-0.14731,-2.4846c-0.00189,-0.02809 -0.00284,-0.05643 -0.00284,-0.085c0,-0.69036 0.55964,-1.25 1.25,-1.25c0.60101,0 1.10295,0.42416 1.22281,0.98945l0.11999,0.51202c0.03516,-0.18105 0.08373,-0.34527 0.16437,-0.45086c0.74483,-0.97532 4.05269,-3.93888 5.39225,-3.24752c0.89288,0.46081 0.6181,1.79228 0.62403,2.91444c4.18245,-4.12719 4.8433,4.16899 4.87277,6.98514l0.00724,1.55667c0,0 0.00582,1.24999 -1.24417,1.2558z" fill="#67872b" stroke-width="0.5"></path>
      <path d="M142.65788,147.94204c2.78188,-1.52035 5.95562,-2.16964 9.0853,-3.04202c9.34682,-2.60539 23.8747,-5.95083 31.63347,1.93543c0.60431,0.62481 1.29244,1.17825 1.81294,1.87442c0.37334,0.49935 0.24644,1.47663 0.83853,1.67198c0.60302,0.19896 1.0996,-0.67262 1.71492,-0.8295c3.64607,-0.92964 7.66793,-0.56257 10.2779,2.4691c2.30841,2.68138 1.43988,4.98145 0.96925,8.1151c-1.61408,10.7472 -14.91002,10.87786 -23.53395,12.53238c-7.16651,1.37491 -13.22403,2.13161 -20.25682,-0.50166c-1.8727,-0.70119 -4.46278,-2.97374 -6.44538,-3.16407c-1.62068,-0.15559 -3.09923,1.21528 -4.72731,1.22878c-0.84159,0.00698 -1.6099,-0.57451 -2.4509,-0.60656c-3.13437,-0.11945 -6.70466,2.31464 -9.91111,1.53929c-1.88853,-0.45667 -4.94291,-2.83065 -6.7876,-3.753c-1.50662,-0.75399 -5.95913,-2.53095 -6.7648,-4.02019c-1.74307,-3.22199 2.04322,-8.14676 4.08855,-10.16324c3.82458,-3.77062 11.48731,-5.29239 16.79919,-5.30264c0.41137,-0.00079 2.20247,-0.01556 3.65784,0.0164z" fill-opacity="0.56471" fill="#ffffff" stroke-width="0.5"></path>
      <path d="M290.80648,127.99489c-0.0343,-0.11758 -0.05462,-0.2518 -0.05636,-0.40502c-0.01424,-1.24992 1.23568,-1.26416 1.23568,-1.26416l0.44726,0.05463c1.71688,-0.5546 3.5935,-0.92086 5.37517,-0.63638c2.50365,0.39977 4.21753,1.65369 6.79027,1.19717c0.4659,-0.08267 3.89236,-0.96311 4.3723,-1.24558c0.73005,-0.42965 1.1359,-1.32699 1.90504,-1.68196c3.05032,-1.40779 7.1416,-0.69498 10.37272,-0.96395c3.51611,-0.29269 6.56644,-0.81649 10.12856,-0.49583c3.51637,0.34312 6.05503,2.56238 9.48035,2.98178c3.85961,0.47258 8.08293,-0.01382 11.97511,0.0215c2.15791,0.01958 3.63259,-0.25262 5.57181,1.09797c2.91797,2.03226 5.84705,7.27009 7.07025,10.48545c0.34642,0.91062 0.9956,1.77137 1.00227,2.74563c0.02729,3.98475 -4.45593,6.4625 -7.4812,7.93892c-5.96809,2.78082 -13.50278,3.70299 -19.98031,1.84015c-2.30099,-0.66173 -4.31753,-2.74883 -6.65088,-3.25949c-2.72163,-0.59563 -6.64651,1.22717 -9.3507,1.61562c-2.41316,0.34664 -5.03299,-0.25407 -7.4397,0.21366c-2.41933,0.47019 -4.82321,1.2746 -7.29084,1.72326c-3.68293,0.65538 -9.46711,0.19526 -12.70973,-2.02718c-3.10485,-2.12802 -3.79751,-8.39064 -7.28811,-9.68013c-1.5898,-0.5873 -7.22733,0.37299 -8.11307,-1.34986c-0.54767,-1.06528 0.76337,-2.27598 1.26818,-3.36223c1.70124,-3.66072 5.10173,-5.53867 8.95943,-5.61321c0,0 0.18166,0 0.40648,0.06925z" fill-opacity="0.56471" fill="#ffffff" stroke-width="0.5"></path>
      <path d="M373.11951,162.35835l1.66225,-0.7968c2.95857,7.09787 0.7606,13.47134 -1.12502,20.45466c-2.08088,1.04583 -5.90616,3.35554 -8.41897,2.75579c-0.76997,-0.18378 -0.98759,-1.33184 -1.7161,-1.64152c-1.66329,-0.70704 -3.94113,1.79555 -5.40938,-0.53897c-0.58807,-0.93502 0.6692,-2.1112 1.12962,-3.11525c0.78518,-1.71228 2.25346,-3.9931 1.93002,-6.06745c-0.25706,-1.64863 -2.60272,-2.72822 -2.41254,-4.38589c0.17889,-1.55924 2.89636,-2.94101 4.05376,-3.6329c3.05299,-1.82506 6.26169,-2.17117 9.68369,-3.02705c0,0 0.29049,-0.07262 0.62267,-0.00461z" fill-opacity="0.56471" fill="#ffffff" stroke-width="0.5"></path>
      <path d="M118.7728,196.01971c3.46544,-1.74981 7.30297,-3.60271 10.92498,-3.29025c1.21763,0.10504 3.78821,1.38331 4.98524,1.7766c2.82682,0.92877 6.42091,1.99584 9.40719,2.08497c2.79855,0.08353 7.3238,-2.327 9.90427,-1.40151c0.44791,0.16064 3.30445,3.141 3.84908,3.69799c0.84832,2.08006 3.6773,5.33488 3.25448,7.69767c-0.18314,1.02344 -1.18883,1.70794 -1.83878,2.51945c-2.20875,2.75779 -5.13684,4.37017 -8.52958,5.27674c-5.29489,1.41484 -9.75883,0.09475 -15.00942,-0.51048c-1.50852,-0.17389 -3.03059,0.22291 -4.54894,0.24484c-4.15984,0.06007 -8.56251,-1.54019 -12.38664,-2.96112c-1.67978,-0.58191 -3.42012,-1.4104 -4.54902,-2.78367c-0.45431,-0.55265 -0.52299,-1.43159 -1.11427,-1.83434c-1.15134,-0.78423 -2.74414,-0.46207 -4.11592,-0.7239l-2.1969,0.54927c-0.10524,0.02877 -0.21602,0.04413 -0.33039,0.04413c-0.69036,0 -1.25,-0.55964 -1.25,-1.25c0,-0.25867 0.07857,-0.49898 0.21314,-0.69838l1.3572,-2.07829l0.25736,0.16806c2.23854,-3.72597 5.40516,-5.78922 10.15437,-7.35952z" fill-opacity="0.56471" fill="#ffffff" stroke-width="0.5"></path>
      <path d="M158.77281,161.0197c3.46544,-1.74981 7.30297,-3.60271 10.92498,-3.29025c1.21763,0.10504 3.78821,1.38331 4.98524,1.7766c2.82682,0.92877 6.42091,1.99584 9.40719,2.08498c2.79855,0.08353 7.3238,-2.327 9.90428,-1.40151c0.44791,0.16064 3.30444,3.14101 3.84908,3.69799c0.84832,2.08005 3.6773,5.33488 3.25448,7.69768c-0.18314,1.02344 -1.18883,1.70794 -1.83877,2.51944c-2.20875,2.75779 -5.13684,4.37017 -8.52958,5.27674c-5.29488,1.41484 -9.75883,0.09475 -15.00942,-0.51048c-1.50852,-0.17389 -3.03059,0.22291 -4.54894,0.24483c-4.15984,0.06007 -8.56251,-1.54019 -12.38664,-2.96112c-1.67978,-0.58191 -3.42013,-1.41041 -4.54902,-2.78368c-0.45431,-0.55265 -0.52299,-1.43158 -1.11427,-1.83433c-1.15135,-0.78422 -2.74414,-0.46207 -4.11592,-0.72391l-2.19691,0.54927c-0.10524,0.02877 -0.21602,0.04412 -0.33038,0.04412c-0.69036,0 -1.25,-0.55964 -1.25,-1.25c0,-0.25867 0.07857,-0.49898 0.21314,-0.69838l1.3572,-2.07828l0.25736,0.16806c2.23854,-3.72597 5.40516,-5.78922 10.15436,-7.35952z" fill-opacity="0.56471" fill="#ffffff" stroke-width="0.5"></path>
      <path d="M373.25487,316.91003v-211h13v211z" fill="#ababab" stroke-width="0"></path>
    </g>
  </g>
</svg>
