<?xml version="1.0" encoding="UTF-8"?>
<svg xmlns="http://www.w3.org/2000/svg" xmlns:xlink="http://www.w3.org/1999/xlink" version="1.1" width="135.53202" height="127.38729" viewBox="0,0,135.53202,127.38729">
  <g transform="translate(-172.23399,-116.30635)">
    <g stroke="none" stroke-miterlimit="10">
      <path d="M291.13002,226.33516l-2.27012,1.40554c-4.03495,5.49385 -10.20111,6.41702 -16.6166,7.01667c-2.51255,0.23484 -4.90055,1.27527 -7.39949,1.62647c-1.05628,0.14845 -2.14692,-0.15426 -3.20223,0.00093c-1.88935,0.27783 -3.6108,1.38339 -5.50948,1.58792c-4.76438,0.51322 -9.75335,-0.64396 -14.50703,0.01538c-1.65555,0.22962 -3.28606,0.79299 -4.95741,0.77982c-8.0493,-1.60983 -16.52576,-0.60822 -24.66506,-1.58485c-2.44976,-0.29395 -5.25503,-1.52029 -7.61513,-2.30698c-8.84793,-2.94927 -17.16881,-7.12231 -23.83673,-13.80955c0,0 -0.03087,-0.03089 -0.08845,-0.08033c-0.03523,-0.32514 -0.10791,-0.54287 -0.10791,-0.54287c-0.34835,-0.97457 -0.47802,-2.06044 -1.04621,-2.92548c-0.55162,-0.8398 -1.78839,-1.1358 -2.21792,-2.04413c-0.32081,-0.67843 0.16345,-1.49447 0.18967,-2.24447c0.13012,-3.72188 -0.003,-7.48286 -0.003,-11.20683c0,-4.4945 0.22573,-8.79981 0.76538,-13.20909c0.42197,-3.44776 1.972,-7.00322 2.41303,-10.50346c0.63461,-5.03657 0.67644,-9.8852 2.32101,-14.81897c1.05376,-4.20543 1.96814,-7.80986 3.8493,-11.61004c1.21885,-2.46224 1.31936,-5.35585 2.98579,-7.64223c5.92218,-8.12537 14.6139,-15.18513 23.80229,-19.19155c3.13737,-1.36799 6.61458,-0.79234 9.79662,-1.42148c1.63736,-0.32373 3.17115,-1.05591 4.75467,-1.58335c2.27829,0.00125 4.51698,-0.77296 6.79523,-0.78694c2.67096,-0.01638 5.19846,1.36723 7.86,1.59206c1.52982,0.12923 3.08251,-0.18044 4.60972,-0.02341c1.6777,0.17251 3.13163,1.38481 4.80429,1.60075c2.38025,0.30729 4.82885,-0.33035 7.20579,0.00162c2.63954,0.36864 5.13293,2.17942 7.53944,3.07968c1.78847,0.66905 3.7583,0.81808 5.51469,1.56731c2.24561,0.95792 4.08098,2.69819 6.20136,3.90829c0.75226,0.42932 1.68381,0.45509 2.46335,0.83261c3.1728,1.53656 5.93672,5.08751 7.82447,7.94755c1.11759,1.62338 1.32931,3.73774 2.30731,5.44884c1.07307,1.87743 3.10299,3.20478 3.83339,5.24016c1.40801,3.92364 2.42898,8.31283 4.06211,12.15381c0.36859,0.8669 1.24524,1.46583 1.57712,2.34744c0.74904,1.98979 1.90121,6.02138 2.24291,8.25044c0.29051,1.89517 -0.58103,3.79545 -0.8134,5.69862c-0.28704,2.35089 0.29473,4.75915 0.01315,7.11069c-0.20053,1.67458 -1.35115,3.13597 -1.60065,4.80396c-0.46996,3.14186 -0.76607,5.43399 -1.5596,8.60086c-0.52717,2.15628 -0.54737,4.41068 -0.84431,6.61052c-0.22561,1.67139 -1.35228,3.1354 -1.60178,4.80339c-0.66243,4.42868 -0.66371,8.15796 -4.10511,11.4398z" fill="#a2f9ff" stroke-width="0.25"></path>
      <path d="M236.73633,196.11699c-0.01482,0.01171 -0.0298,0.02328 -0.04493,0.03468c-1.65924,1.25062 -6.90373,1.74079 -8.76841,0.92231c-1.48808,-0.65318 -2.69055,-1.84916 -3.86226,-2.97527c-4.25033,-4.08497 -4.89418,-9.88961 -4.37031,-15.40744c0.07212,-0.75968 0.70805,-5.64556 1.65593,-6.69631c1.0211,-1.13193 2.48833,-1.76197 3.74515,-2.6247c2.28673,-1.5697 5.23675,-3.58094 7.93132,-4.35285c2.50723,-0.71825 5.15383,-0.81033 7.71515,-1.30198c0.98058,-0.22523 1.93565,-0.68108 2.94175,-0.67569c7.94624,0.04253 13.61143,8.77696 12.64137,16.12884c-0.57652,4.36933 -3.39354,7.87382 -6.12023,11.04407c-1.33008,1.54645 -2.58551,3.31923 -4.39815,4.25461c-2.09413,1.08064 -4.91081,1.56962 -7.15818,2.08821z" fill="#6ba3a7" stroke-width="0.5"></path>
      <path d="M228.95364,238.97623c-0.54266,2.4977 -2.98333,1.9341 -2.98333,1.9341l-4.08287,-0.94282c-4.16631,-0.96209 -8.25825,-2.0675 -12.2041,-3.51232c-1.3457,1.63995 -3.20527,0.41033 -3.20527,0.41033l-0.49436,-0.51901c-11.84004,-2.71436 -20.99586,-11.04686 -29.93682,-19.0747c0,0 -1.88294,-1.69064 -0.23799,-3.61363c0.18622,-0.21769 0.37549,-0.38907 0.56473,-0.52184l-0.82166,-1.77708c-1.17391,-6.5568 -1.99645,-11.79256 -0.04233,-18.17147c0,0 0.77022,-2.43348 3.14889,-1.63704c2.37867,0.79644 1.60846,3.22992 1.60846,3.22992c-1.70258,5.17073 -0.87769,9.64658 0.04328,15.01941l2.03097,4.29139c0,0 0.50852,1.08789 0.10042,2.12614c0.9897,0.88605 1.98776,1.77113 2.99758,2.64448c0.22367,0.02091 0.41862,0.0644 0.56356,0.10512c-0.33216,-0.70634 -0.55761,-1.84782 0.59224,-2.92383c0.07585,-0.07097 0.15143,-0.13582 0.22665,-0.19493c-1.25585,-1.65509 -2.25762,-3.52816 -3.50636,-5.19498c0,0 -1.52375,-2.03495 0.45854,-3.58901c1.9823,-1.55406 3.50605,0.48089 3.50605,0.48089c1.47558,1.9716 2.54463,4.27879 4.23716,6.05841c2.23637,2.35144 5.14954,3.9092 7.71257,5.87991c7.2227,5.55351 15.00421,8.69552 23.86089,10.4212l4.45383,1.05465c0,0 2.43761,0.57748 1.88139,3.072c-0.33656,1.50942 -1.36198,1.89407 -2.11938,1.96247c0.60822,0.22479 2.08109,0.98546 1.64726,2.98224z" fill="#75b3b7" stroke-width="0.5"></path>
      <path d="M272.22116,228.54578c-1.31028,-2.16508 0.95927,-3.41505 0.95927,-3.41505l0.36311,-0.19998c6.80742,-3.74921 15.50408,-7.76087 19.01222,-15.03839c0.6571,-1.36313 0.68274,-2.92916 1.02412,-4.39375c0,0 0.41317,-1.68348 2.01988,-1.92261c0.61283,-2.05655 1.1932,-4.12347 1.77755,-6.18374c0.07309,-1.48195 0.09515,-2.97058 0.38818,-4.42299c0,0 0.27379,-1.33678 1.45151,-1.84415c0.01888,-0.06075 0.03779,-0.12148 0.05674,-0.18219c0,0 0.74794,-2.39602 3.25957,-1.68251c2.51163,0.71351 1.76369,3.10953 1.76369,3.10953c-0.61698,1.97649 -1.19642,3.97363 -1.76961,5.97741c-0.04502,0.9773 -0.11459,1.95132 -0.30821,2.90853c-0.65496,3.23793 -1.82667,6.32776 -3.36953,9.26696c-1.02087,2.97558 -2.17206,5.90145 -3.5609,8.72951c-3.08265,6.2771 -7.33828,11.47562 -11.85894,16.82671l-2.13264,1.50407c0,0 -2.17398,1.39603 -3.63737,-0.67788c-1.46339,-2.07391 0.71059,-3.46994 0.71059,-3.46994l0.9785,-0.49376c0.46344,-0.54858 0.92422,-1.09501 1.38117,-1.64088l-0.74397,0.62883c0,0 -1.96147,1.65791 -3.69938,-0.21327c-0.74766,-0.805 -0.81065,-1.57053 -0.63968,-2.18156c-0.53198,0.2335 -2.32035,0.83782 -3.42586,-0.9889z" fill="#75b3b7" stroke-width="0.5"></path>
      <path d="M220.27848,138.5712c-2.69079,1.06597 -5.25018,2.48761 -7.65395,4.0996l-3.79248,2.79256c0,0 -0.73568,0.54155 -1.64498,0.52522c-0.88839,1.00603 -1.7684,2.0174 -2.66738,3.00104l-1.48953,2.24714c0,0 -1.38674,2.08013 -3.46687,0.6934c-0.47581,-0.3172 -0.77022,-0.67068 -0.94133,-1.02724c-0.42896,0.36707 -1.89879,1.40594 -3.41012,-0.05605c-1.79686,-1.73819 -0.05867,-3.53505 -0.05867,-3.53505l2.66794,-2.75774c1.61501,-1.7381 3.25563,-3.19974 4.96545,-4.54416c-0.3215,-0.21474 -0.62459,-0.54575 -0.87265,-1.04186c-1.11803,-2.23607 1.11803,-3.3541 1.11803,-3.3541l3.52786,-1.76393c8.70781,-4.32808 18.26771,-6.49031 27.99019,-6.5c0,0 2.5,0 2.5,2.5c0,2.5 -2.5,2.5 -2.5,2.5c-2.80317,-0.00298 -5.60114,0.18957 -8.36785,0.57967c-0.40986,0.50427 -0.91414,0.75641 -0.91414,0.75641c-1.1317,0.56585 -2.35166,1.10299 -3.59185,1.64795c0.91516,2.31202 -1.39769,3.23716 -1.39769,3.23716z" fill="#d3fcff" stroke-width="0.5"></path>
      <path d="M285.11774,147.61781c-1.7678,1.76773 -3.53553,-0.00007 -3.53553,-0.00007l-0.82195,-0.87271c-1.83909,-0.09808 -2.21414,-1.62118 -2.29062,-2.2383c-2.26263,-2.25075 -4.418,-4.31219 -7.0196,-6.25674c0,0 -1.99999,-1.50001 -0.49998,-3.5c1.50001,-1.99999 3.5,-0.49998 3.5,-0.49998c2.44433,1.83903 4.54585,3.76895 6.66899,5.8477c1.18685,0.07911 1.91113,1.16554 1.91113,1.16554c0.53333,0.8 1.06665,1.6 1.59998,2.39999l0.48765,0.41902c0,0 1.76773,1.7678 -0.00007,3.53553z" fill="#d3fcff" stroke-width="0.5"></path>
      <path d="M292.25629,224.23799c3.4414,-3.28184 3.43764,-7.00397 4.10007,-11.43265c0.2495,-1.66799 1.37437,-3.1286 1.59998,-4.79999c0.29694,-2.19984 0.31518,-4.44959 0.84235,-6.60587c0.79353,-3.16687 1.08772,-5.45228 1.55768,-8.59414c0.2495,-1.66799 1.39945,-3.12541 1.59998,-4.79999c0.28158,-2.35154 -0.30059,-4.75413 -0.01355,-7.10502c0.23237,-1.90317 1.10405,-3.79892 0.81354,-5.69409c-0.3417,-2.22906 -1.4929,-6.25394 -2.24194,-8.24373c-0.33188,-0.88161 -1.20803,-1.47845 -1.57662,-2.34535c-1.63313,-3.84098 -2.65042,-8.22039 -4.05843,-12.14403c-0.7304,-2.03538 -2.75771,-3.35815 -3.83078,-5.23558c-0.978,-1.7111 -1.187,-3.82162 -2.30459,-5.445c-1.88775,-2.86004 -4.6455,-6.40443 -7.8183,-7.94099c-0.77954,-0.37752 -1.70959,-0.40201 -2.46185,-0.83133c-2.12038,-1.2101 -3.95086,-2.94683 -6.19647,-3.90475c-1.75639,-0.74923 -3.72217,-0.89594 -5.51064,-1.56499c-2.40651,-0.90026 -4.89354,-2.70833 -7.53308,-3.07697c-2.37694,-0.33197 -4.81977,0.30729 -7.20002,0c-1.67266,-0.21594 -3.12228,-1.4275 -4.79998,-1.60001c-1.52721,-0.15703 -3.07592,0.15299 -4.60574,0.02376c-2.66154,-0.22483 -5.18231,-1.60858 -7.85327,-1.5922c-2.27825,0.01398 -4.51122,0.78735 -6.78951,0.7861c-1.58352,0.52744 -3.1132,1.25859 -4.75056,1.58232c-3.18204,0.62914 -6.65174,0.05059 -9.78911,1.41858c-9.18839,4.00642 -17.86108,11.05012 -23.78326,19.17549c-1.66643,2.28638 -1.76347,5.17435 -2.98232,7.63659c-1.88116,3.80018 -2.79173,7.39516 -3.84549,11.60059c-1.64457,4.93377 -1.68445,9.76994 -2.31906,14.80651c-0.44103,3.50024 -1.99154,7.04723 -2.41351,10.49499c-0.53965,4.40928 -0.76771,8.70506 -0.76771,13.19956c0,3.72397 0.13012,7.4781 0,11.19998c-0.02622,0.75 -0.51111,1.56489 -0.1903,2.24332c0.42953,0.90833 1.66527,1.2026 2.21689,2.0424c0.56819,0.86504 0.69671,1.94914 1.04506,2.92371c0,0 0.07248,0.21744 0.10771,0.54258c0.05758,0.04944 0.0884,0.08026 0.0884,0.08026c6.66792,6.68724 14.97485,10.84675 23.82278,13.79602c2.3601,0.78669 5.16013,2.01007 7.60989,2.30402c8.1393,0.97663 16.59658,-0.02997 24.64588,1.57986c1.67135,0.01317 3.29763,-0.55025 4.95318,-0.77987c4.75368,-0.65934 9.73065,0.49967 14.49503,-0.01355c1.89868,-0.20453 3.61562,-1.30859 5.50497,-1.58642c1.05531,-0.15519 2.14371,0.14845 3.19999,0c2.49894,-0.3512 4.88174,-1.38896 7.39429,-1.6238c6.41549,-0.59965 12.57128,-1.51467 16.60623,-7.00852l2.26884,-1.40417zM175.65233,221.99636c-0.52908,-1.78886 -2.4435,-2.90248 -3.13795,-4.63386c-0.51634,-1.28733 -0.15443,-2.77015 -0.1903,-4.15671c-0.09641,-3.72705 0,-7.47179 0,-11.19998c0,-4.74104 0.2406,-9.35801 0.83227,-14.00046c0.43349,-3.40135 1.95949,-6.861 2.38641,-10.305c0.65862,-5.31311 0.74546,-10.38685 2.48099,-15.59352c1.11174,-4.45792 2.1091,-8.3527 4.15451,-12.39941c1.41114,-2.79186 1.52067,-5.66362 3.4177,-8.36341c6.17891,-8.79362 15.95485,-16.65706 25.81672,-20.82451c5.0119,-2.11794 10.61845,-1.6505 15.74721,-3.36141c2.58998,-0.02993 5.13354,-0.86444 7.72366,-0.85159c2.76792,0.01373 5.38807,1.38114 8.14673,1.60782c1.65917,0.13634 3.34097,-0.17158 4.99424,0.02376c1.6749,0.1979 3.12541,1.39948 4.79999,1.60001c3.37774,0.40448 3.82202,-0.49068 7.20001,0c3.03911,0.44146 5.67727,2.27412 8.46692,3.32299c1.84696,0.69443 3.87671,0.85529 5.68931,1.63502c2.37931,1.02351 4.35549,2.80886 6.60358,4.09525c0.71206,0.40745 1.60817,0.39409 2.33808,0.76865c4.00711,2.05628 7.31994,5.99727 9.7818,9.65905c0.60205,0.92513 1.36705,1.7627 1.80614,2.77538c0.40554,0.9353 0.18352,2.09446 0.6892,2.97964c0.51717,0.90529 1.6553,1.31544 2.25263,2.16996c0.81183,1.16138 1.40357,2.47354 1.91659,3.7944c1.47665,3.80194 2.32595,8.11865 3.94157,11.85597c0.38926,0.90046 1.28003,1.53578 1.62345,2.4547c0.73804,1.97484 2.24526,7.05396 2.55799,9.35625c0.32076,2.36141 -0.48343,4.74215 -0.78644,7.1059c-0.30919,2.41194 0.29779,4.88335 -0.01355,7.29501c-0.21593,1.67266 -1.37414,3.12864 -1.59998,4.79999c-0.43404,3.2122 -0.84167,5.79509 -1.6424,9.0059c-2.18615,8.51778 -1.35305,18.43402 -7.85763,25.16143l-0.33165,0.95025c0,0 -0.29903,0.59809 -0.89711,1.02098c-0.42288,0.59805 -1.02093,0.89708 -1.02093,0.89708l-0.71801,0.06393c-0.894,1.17205 -1.62531,2.48836 -2.68199,3.51615c-4.21651,4.10122 -12.10255,4.99809 -17.51183,5.47532c-2.38436,0.21036 -4.63689,1.23272 -7.00574,1.57627c-1.05563,0.1531 -2.14339,-0.14601 -3.20003,0c-1.95448,0.27007 -3.73461,1.39024 -5.69498,1.61353c-4.68509,0.53363 -9.65332,-0.70037 -14.30502,-0.01355c-2.0776,0.30676 -4.14668,0.80912 -6.24677,0.8201c-8.15214,-1.6304 -16.70899,-0.55408 -24.95409,-1.62009c-5.35549,-0.69241 -13.01058,-3.27631 -17.65436,-5.90548c-1.62219,-0.91844 -2.97311,-2.28913 -4.64362,-3.11644c-4.66548,-2.31057 -8.08838,-4.70717 -11.86933,-8.47802c0,0 -0.64519,-0.64519 -0.76623,-1.5458c-0.45457,-0.48186 -0.63776,-1.03144 -0.63776,-1.03144z" fill="#293e40" stroke-width="0.5"></path>
    </g>
  </g>
</svg>
