<?xml version="1.0" encoding="UTF-8"?>
<svg xmlns="http://www.w3.org/2000/svg" xmlns:xlink="http://www.w3.org/1999/xlink" version="1.1" width="323.15469" height="336.77921" viewBox="0,0,323.15469,336.77921">
  <g transform="translate(-77.44528,-11.61041)">
    <g stroke="none" stroke-miterlimit="10">
      <path d="M88.31564,328.6104c0,0 16,-20.5985 16,-32.10001c0,-24.14805 -6.06414,4.50221 -10.04872,-44.1924c-0.59522,-7.27412 3.74438,-65.15844 3.01263,-73.75344c-0.23731,-2.78745 -17.45194,-68.53772 -17.64152,-71.24481c-1.94572,-27.78276 8.67761,-71.70934 8.67761,-71.70934c0,0 -12.60264,-21.46011 8.4239,-20.44654c5.86827,0.28288 21.73281,18.2132 32.25081,17.57214c19.88693,-1.21209 85.77117,-14.42446 107.91596,-15.43106c14.92427,-0.67839 40.54072,1.62046 54.14997,0.91386c29.89262,-1.55204 65.36001,-6.60839 73.85938,-6.60839c6.34357,0 25.39999,15 25.39999,15c0,0 -4.30426,16.55744 -1.677,49.84293c2.20947,27.99243 11.3705,71.03601 11.83896,94.14703c0.97157,47.9307 -4.16196,152.01005 -4.16196,152.01005c0,0 6.8751,16.10871 -32.52064,19.49727c-5.19656,0.44698 -28.0068,-7.08378 -34.50223,-6.59417c-5.41818,0.40841 -27.16192,3.80264 -33.24331,4.17608c-4.59181,0.28197 -30.28214,8.51628 -35.06363,8.69531c-8.42783,0.31554 -43.80911,-15.34526 -52.03061,-14.98105c-9.93324,0.44004 -39.34412,6.82986 -47.9634,7.15102c-2.72426,0.1015 -17.35563,-9.79234 -19.88468,-9.68134c-10.6975,0.46953 -30.35234,15.73688 -36.1915,15.73688c-17.79261,0 -16.6,-18 -16.6,-18z" fill="#d6d6d6" stroke-width="0"></path>
      <path d="M114.91564,303.51039l-11,-15c0,0 12.57555,13.59144 33.19615,18.10359c30.25914,6.62123 74.38191,5.22504 93.09351,7.37227c14.12883,1.62134 55.71035,9.52414 55.71035,9.52414l65,-5c0,0 -60.0161,13.57931 -88.76511,11.92299c-10.7767,-0.62088 -41.27907,-11.44 -57.09454,-13.84571c-8.9022,-1.35412 -54.71337,6.39113 -63.18379,5.2433c-39.11052,-5.29991 -26.95656,-18.32058 -26.95656,-18.32058z" fill="#9e9e9e" stroke-width="0"></path>
      <path d="M121.8722,32.25288c8.47042,-1.14784 54.2816,6.59742 63.18379,5.2433c15.81547,-2.4057 46.31783,-13.22483 57.09454,-13.84571c28.74901,-1.65632 88.76511,11.923 88.76511,11.923l-65,-5c0,0 -41.58152,7.9028 -55.71035,9.52414c-18.71159,2.14723 -62.83437,0.75104 -93.0935,7.37226c-20.6206,4.51215 -33.19615,18.10359 -33.19615,18.10359l11,-15c0,0 -12.15397,-13.02067 26.95656,-18.32058z" fill="#9e9e9e" stroke-width="0"></path>
      <path d="M111.95194,276.1986c-0.21501,0.6713 -0.74256,1.39691 -1.99839,1.57631c-2.47487,0.35354 -2.82842,-2.12133 -2.82842,-2.12133c-1.15283,-8.07151 -1.96788,-16.12926 -2.95874,-24.21911c-0.33807,-2.76012 -1.23282,-5.49878 -1.06247,-8.2743c0.07072,-1.15211 0.67235,-2.22015 0.8148,-3.3656c0.23666,-1.90295 0.37329,-3.82863 0.81361,-5.695c0.3685,-1.56196 -0.45152,-3.84112 0.88274,-4.73288c2.60805,-1.74311 6.28168,0.50055 9.40775,0.23963c8.04179,-0.67122 16.23336,-1.23367 24.23535,-2.1548c2.17947,-0.29483 11.28117,-2.44647 13.11234,-0.09004c1.40148,1.80349 -1.50257,8.49956 -1.93566,10.12473c-2.54522,9.55077 -3.13697,20.18319 -3.13483,30.01385c0.00016,0.70405 0.26366,8.75571 -0.73224,9.56775c-1.15794,0.94416 -8.1479,0.72136 -10.06795,0.70086l-2.05391,0.68462c-0.2642,0.09499 -0.54901,0.14674 -0.84591,0.14674c-1.38071,0 -2.5,-1.11929 -2.5,-2.5c0,-0.2969 0.05175,-0.58172 0.14674,-0.84591l0.78153,-2.34466l0.15068,0.05022c0.38601,-3.84085 0.97674,-7.63548 1.33324,-11.50601c0.29864,-3.24248 -0.27048,-6.52342 -0.0029,-9.76862c0.23069,-2.79791 0.78284,-5.57762 0.79073,-8.38501c0.00412,-1.46685 -0.14966,-2.94492 0.03228,-4.40045c0.02029,-0.16227 0.0496,-0.32477 0.08779,-0.48581c-1.32494,0.74454 -2.85621,-0.10548 -5.49525,0.16505c-2.36248,0.24218 -4.71449,0.58212 -7.07849,0.80901c-1.22022,0.11712 -2.38817,0.57721 -3.60465,0.7284c-0.33913,0.04215 -0.90294,-0.47779 -1.01353,-0.15444c-0.19428,0.56806 0.41477,1.14055 0.47188,1.7382c0.2283,2.38912 0,4.8 0,7.20001c0,6.13309 0.02912,12.26701 0,18.40003c-0.00443,0.93324 -0.10652,1.86927 -0.03229,2.79956c0.10498,1.31564 1.20327,2.7614 0.56834,3.91846c-0.69909,1.27398 -2.56369,1.36911 -3.84554,2.05366l-2.39053,0.12829c0,0 -0.01696,0 -0.04809,-0.0014zM111.55709,271.24821c0.26315,-0.04822 0.44294,-0.04821 0.44294,-0.04821l0.80943,0.12829c0.31817,0.15123 1.01702,0.80038 0.95451,0.45369c-0.08026,-0.44513 -0.92717,-0.44139 -1.03164,-0.88147c-0.58514,-2.46501 -0.03228,-5.06696 -0.03228,-7.60047c0,-4.80001 0,-9.60001 0,-14.40002c0,-2.47391 -0.90687,-9.78426 0.47187,-11.86172c0.76921,-1.15903 2.46189,-1.32941 3.78639,-1.75454c5.19298,-1.66681 10.80295,-0.82241 16.06732,-1.61686c0.58339,-0.08804 1.16187,-0.38911 1.73297,-0.70853c-6.44095,0.64468 -12.97108,1.15423 -19.38134,1.63537c-1.47038,0.11037 -2.97947,0.29211 -4.42356,-0.00588c-0.83472,-0.17225 -1.3405,-1.55583 -2.16868,-1.35446c-0.61101,0.14856 0.86995,1.03846 0.88273,1.66714c0.01714,0.8431 -0.68078,1.56518 -0.80004,2.39997c-0.14638,1.0246 0.14262,2.07805 0.01355,3.10498c-0.13029,1.03663 -0.70497,1.99272 -0.78517,3.03442c-0.29373,3.8151 1.19504,8.58458 1.59079,12.40392c0.53548,5.16794 1.1676,10.27559 1.8702,15.4044zM138.3607,232.5819c1.1027,0.96125 1.44198,2.84026 1.73931,4.31811c0.19208,0.95471 -0.71148,1.83415 -0.83227,2.80048c-0.32308,2.58474 0.26116,5.22058 0.02302,7.81453c-0.287,3.12627 -0.7898,6.24558 -0.79073,9.385c-0.00135,4.58103 -0.34163,9.36213 -0.81872,13.90552c-0.06803,0.64785 -0.12126,1.32614 -0.25602,1.97395c1.12716,-0.04439 2.25415,-0.08497 3.37473,0.02056c0.77964,0.07342 1.46435,0.88581 2.23223,0.73224c0.41366,-0.08273 -0.6814,-0.61344 -0.73223,-1.03222c-0.40585,-3.34343 -0.13259,-6.73863 0.00216,-10.1039c0.23595,-5.89272 0.80998,-12.02048 1.62551,-17.86722c0.39119,-2.80453 0.94829,-5.59145 1.67523,-8.32824c0.36367,-1.36915 0.54778,-3.4143 1.25133,-4.66457c-0.65001,0.13061 -1.33662,0.1137 -1.99662,0.20346c-1.65999,0.22574 -3.32031,0.44898 -4.98047,0.67347c-0.50462,0.05729 -1.01014,0.11355 -1.51647,0.16885z" fill="#696969" stroke-width="0.5"></path>
      <path d="M161.01093,230.66345c-0.52503,0.601 -1.16401,0.7601 -1.71099,0.75184c-0.01233,9.23979 -1.50181,18.27104 -1.57296,27.45493c-0.02668,3.44345 0.42104,7.77052 -0.05922,11.23026c-0.11595,0.83528 -0.42185,1.6463 -0.80005,2.40003c-0.18437,0.36746 -1.25231,0.98466 -0.85177,0.89199c1.06642,-0.24674 1.90846,-1.15067 2.97791,-1.38392c3.39402,-0.74028 7.93648,-0.00851 11.40615,-0.00851c2.47434,0 6.60247,-0.96891 8.40593,0.97844c-1.29912,-1.59289 -0.50591,-7.76504 -0.50591,-9.67845c0,-7.20001 0,-14.40002 0,-21.60003c0,-2.13332 -0.01012,-4.26667 0,-6.39997c0.0057,-1.19988 0.02022,-2.39972 0.03228,-3.59956c0.00311,-0.30877 0.29961,-0.81081 0.01322,-0.92628c-2.78167,-1.12142 -5.7154,-0.46537 -8.44006,-0.19291c-2.87931,0.28793 -5.91548,0.17009 -8.89453,0.08215zM157.89631,229.00296l-0.2963,-3.40293c3.81803,0 7.90702,0.39747 11.69455,0.01873c1.19398,-0.11939 2.30555,-0.82569 3.50546,-0.81872c1.282,0.00745 2.50513,0.54835 3.74847,0.86089c1.70862,0.4295 3.71665,0.28165 5.10605,1.3649c2.85986,2.22969 1.64548,8.4406 1.64548,11.47423c0,8.26666 0,16.53332 0,24.79998c0,0.65016 0.00917,9.8174 -0.03228,10.00043c-0.34966,1.54421 -1.43311,2.82376 -2.14966,4.23564c-7.09599,-1.02918 -14.54133,-0.69932 -21.71184,-0.54457c-2.20806,0.04766 -4.8197,1.49232 -6.62219,0.21606c-2.21712,-1.56984 -0.07412,-8.35399 -0.08401,-10.71195c-0.0496,-11.81895 1.59998,-23.38207 1.59998,-35.1956c0,0 0,-2.5 2.5,-2.5c0.43754,0 0.7985,0.07657 1.09629,0.20292z" fill="#696969" stroke-width="0.5"></path>
      <path d="M165.84453,236.63171c0.76713,4.92417 -0.86728,9.30644 -1.78548,14.31904c-0.77168,4.2127 -1.21953,9.05193 -1.23091,13.28749c-0.00047,0.17472 0.30106,-0.18429 0.46784,-0.23635c0.92469,-0.28861 1.83798,-0.65794 2.79854,-0.78316c1.02634,-0.1338 2.07167,-0.04495 3.10504,0.01355c0.26603,0.01506 0.73405,0.46963 0.77237,0.20595c0.35704,-2.45673 -1.26973,-4.85567 -1.27188,-7.33821c-0.00141,-1.62206 0.79852,-3.17792 0.79999,-4.79999c0.00141,-1.55382 -0.63686,-3.04768 -0.79147,-4.59379c-0.24564,-2.45648 -0.00852,-4.93747 -0.00852,-7.40621c0.0986,-0.67345 0.5869,-1.4051 0.29582,-2.02035c-0.24665,-0.52135 -1.05505,-0.46632 -1.58258,-0.69949l-0.21325,0.41986c0,0 -0.6974,0 -1.35551,-0.36835zM164.72704,234.06816c0.26993,-2.06811 2.47301,-2.0681 2.47301,-2.0681l2.9867,0.41985c1.0725,0.83348 2.59975,1.29076 3.21748,2.50046c0.66545,1.30315 0.19722,2.91978 0.29582,4.37967c0,2.33128 -0.24048,4.67411 -0.00852,6.99381c0.16819,1.68196 0.80703,3.31584 0.8085,5.00619c0.00141,1.62206 -0.79852,3.17792 -0.79999,4.79999c-0.00291,3.20893 2.27986,7.01368 0.32809,10.26177c-0.75783,1.26117 -2.59976,1.45113 -4.02768,1.80593c-1.06592,0.26485 -2.20452,-0.11777 -3.29497,0.01355c-2.79725,0.33686 -5.44162,2.35119 -7.93358,-1.01951c-0.57698,-0.78044 -0.47348,-6.47539 -0.47188,-7.86172c0.00529,-4.59814 0.74836,-8.79063 1.64853,-13.29029c0.71761,-3.5871 1.79801,-5.8282 0.82614,-9.30339c0,0 -0.60633,-2.42535 1.81903,-3.03169c0.98301,-0.24575 1.6672,0.00652 2.13332,0.39349z" fill="#696969" stroke-width="0.5"></path>
      <path d="M195.10001,225.7c0,-2.5 2.5,-2.5 2.5,-2.5h0.79999c4.94473,0.04434 9.94014,1.02607 14.80047,1.63231c2.69335,0.33595 6.56265,-0.92293 8.77007,1.72917c1.01675,1.22157 0.42372,3.15272 0.52949,4.73855c0.19787,2.9666 1.12775,10.00588 -2.18195,11.83604c-1.2717,0.70321 -2.88887,-0.35444 -4.30862,-0.66433c-1.51737,-0.33121 -2.87081,-1.29579 -4.40989,-1.50397c-2.34166,-0.31674 -4.72882,-0.31649 -7.04591,-0.77994c-0.3953,-0.24002 -0.99117,-1.13953 -1.18589,-0.72006c-0.26364,0.56795 0.72447,1.11163 0.7135,1.7377c-0.01925,1.09933 -0.67812,2.10728 -0.79998,3.20001c-0.52432,4.70156 -0.89139,9.02579 -1.82033,13.67424c-0.00146,0.00732 0.30916,2.93688 -0.42639,4.60154c0.31308,-0.11852 0.63668,-0.20553 0.96497,-0.24896c1.29074,-0.17075 2.61184,-0.15677 3.90592,-0.01355c1.09283,0.12095 2.11049,0.65218 3.20001,0.79999c2.13062,0.28906 4.26028,-0.60775 6.40428,-0.77017c2.11543,-0.16025 4.65081,-1.25367 6.36447,-0.00304c1.21098,0.88378 -0.15628,2.99438 -0.21284,4.4925c-0.11623,3.07854 0.40396,9.97054 -2.5996,11.9901c-1.29612,0.8715 -3.10786,0.31459 -4.66179,0.47189c-6.09343,0 -11.52722,-1.58847 -17.59997,-1.59997c-2.09829,-0.00398 -7.50043,0.64518 -9.22812,-1.83821c-1.36829,-1.96679 -0.48681,-9.49692 -0.47186,-11.87616c0.01803,-2.87135 0.58616,-5.71342 0.80723,-8.5763c0.33807,-4.3782 -0.02683,-8.90053 0.05848,-13.29878c0.09748,-5.02591 0.73964,-9.88476 0.73429,-14.91056c0,0 0,-2.5 2.5,-2.5c2.5,0 2.5,2.5 2.5,2.5c-0.00338,3.38781 -0.39614,6.76431 -0.64667,10.14284c-0.45428,6.1262 0.30253,12.3336 -0.16065,18.44774c-0.31992,4.22293 -0.79273,7.95521 -0.79271,12.2094c0.00001,1.65358 -0.7901,3.31556 -0.4719,4.93824c0.05128,0.26148 0.5062,-0.19369 0.77237,-0.20595c1.465,-0.06748 2.93299,-0.02942 4.39954,-0.03228c1.75297,-0.00342 3.51359,-0.15031 5.2589,0.01344c2.1721,0.2038 4.18223,1.30755 6.34156,1.61881c1.97941,0.28532 3.99965,-0.03228 5.99952,-0.03228c2.86239,0.77708 1.845,-1.2808 2.21642,-5.06488c0.06422,-0.65427 -0.05833,-1.34258 -0.07342,-2.00636c-1.58059,0.69021 -3.82122,0.80973 -4.29662,0.85906c-3.34753,0.34741 -6.20804,-1.32079 -9.44592,-0.8201c-0.96239,0.14882 -1.84224,1.00617 -2.80041,0.83227c-1.68051,-0.305 -3.70953,-0.74716 -4.6361,-2.18195c-0.74408,-1.1522 0.41482,-2.71175 0.59799,-4.07103c0.22203,-1.6477 0.29118,-3.31916 0.61752,-4.94941c1.09555,-5.47295 1.47791,-10.8894 2.53928,-16.40305c0.29719,-1.54386 -0.45045,-3.60544 0.71351,-4.66233c1.29895,-1.17946 3.47609,-0.48005 5.21413,-0.72007c3.49713,0.69947 6.77951,0.61668 10.14418,1.71616c0.08375,0.02737 1.46728,0.20803 2.29323,0.72848c-0.08522,-1.0456 0.02123,-2.10556 0.01624,-3.15675c-0.00507,-1.06666 -0.1155,-2.13962 0,-3.20002c0.06294,-0.57785 0.85036,-1.1768 0.52949,-1.66147c-0.28367,-0.42847 -1.02123,0.13096 -1.53495,0.14274c-1.36464,0.03132 -2.74057,0.1561 -4.09499,-0.01355c-4.56455,-0.57173 -9.36036,-1.62125 -13.99958,-1.56775h-0.79999c0,0 -2.5,0 -2.5,-2.5z" fill="#696969" stroke-width="0.5"></path>
      <path d="M231.9,224.10003c0,-2.5 2.5,-2.5 2.5,-2.5h3.20001c3.19313,0 6.74178,-0.38223 9.9055,0.01873c3.04872,0.38638 5.76687,2.03582 8.8,2.40002c1.09051,0.13094 2.20872,-0.14881 3.295,0.01355c1.53972,0.23014 2.84348,1.61749 4.39952,1.5677c0.84283,-0.02697 1.55671,-0.79999 2.39997,-0.79999c0.84328,0 1.55678,0.79381 2.40004,0.79999c0.71395,0.00524 1.29041,-0.68509 1.99957,-0.76771c2.09004,-0.24351 7.99332,-0.29546 9.57091,1.72918c3.11719,4.00052 -1.17803,6.17737 -1.07048,9.53853c0.02697,0.84285 0.92675,1.56633 0.79998,2.40003c-0.24024,1.57999 -0.53956,3.4966 -1.83821,4.42806c-2.13862,1.53393 -5.94893,0.20775 -8.16726,-0.34682c-1.365,-0.00451 -2.74078,0.15776 -4.095,-0.01355c-0.73822,-0.09339 -1.38038,-0.56378 -2.09546,-0.76955c-0.3667,-0.10552 -1.01742,-0.52311 -1.13356,-0.15963c-0.24582,0.76935 0.61522,1.60166 0.42222,2.38593c-0.22975,0.93361 -1.35542,1.47012 -1.59997,2.39997c-0.58303,2.21676 0.38991,4.60562 0.07498,6.87602c-0.51748,3.73066 -1.90078,7.51026 -2.40824,11.24771c-0.53562,3.94485 0.67005,10.74128 -2.22518,14.05044c-1.78472,2.03989 -7.03966,1.79377 -9.03431,1.60136c-1.76853,-0.17059 -3.97177,0.21811 -5.22812,-1.03823c-0.9135,-0.9135 0.42661,-2.57363 0.32809,-3.86175c-0.06054,-0.79147 -0.79661,-1.45089 -0.79516,-2.24467c0.00476,-2.59994 0.81185,-5.15591 0.82744,-7.75581c1.78169,-5.54805 2.28086,-11.06771 3.19883,-16.79261c0.17109,-1.06699 -0.0003,-2.17838 0.23329,-3.23345c0.33792,-1.52627 2.60759,-4.37908 1.05597,-4.56925c-1.99429,-0.24442 -4.01116,0.29582 -6.02037,0.29582c-2.79987,0 -5.61718,-0.34488 -8.39954,-0.03228c-3.01951,0.33925 -4.96293,3.32776 -8.14415,-1.18148c-0.96461,-1.36729 0.27513,-3.33667 0.49609,-4.99532c0.33748,-2.53325 0.87455,-5.05474 1.67588,-7.4815c0,0 0.79055,-2.37171 3.16227,-1.58116c2.37171,0.79055 1.58116,3.16227 1.58116,3.16227c-0.75409,2.23783 -0.82886,4.66171 -1.52407,6.91852c-0.17532,0.56913 -1.01864,0.81533 -1.10388,1.40471c-0.04986,0.34472 0.63542,-0.28633 0.96029,-0.41193c0.69404,-0.26834 1.35585,-0.68825 2.09551,-0.76954c1.72314,-0.18938 3.46694,-0.0262 5.20043,-0.03228c2.66665,-0.00935 5.33499,-0.09408 8,0c1.4623,0.05162 3.13661,-0.47607 4.37966,0.29581c1.44812,0.89921 2.63222,2.53364 2.89041,4.21856c0.29256,1.90921 -1.03508,3.72722 -1.38165,5.62738c-1.23204,6.75492 -1.13753,13.44022 -3.4207,19.95866c0.01472,2.22961 -0.77695,4.41457 -0.77254,6.64422c0.00169,0.85287 0.84213,1.60006 0.81465,2.43657c1.4089,-0.22718 2.86035,0.05067 4.28973,0.05104c0.32222,0.00009 0.80577,0.24856 0.96617,-0.0309c0.32662,-0.56905 0.10221,-1.30855 0.17679,-1.96042c0.36461,-3.18663 0.34649,-6.41363 0.79799,-9.58911c0.67444,-4.74347 2.3112,-9.10297 2.35952,-13.95185c0.0157,-1.57515 -0.25981,-3.19261 0.10727,-4.72446c0.22406,-0.93499 1.31087,-1.48299 1.59997,-2.39996c0.40454,-1.28315 -0.52204,-3.05571 0.42222,-4.01409c3.00617,-3.05109 8.32242,-0.93041 11.87593,-0.94273c1.552,0.38799 3.03673,1.14453 4.6328,1.25315c0.14687,0.01 -0.1866,-0.234 -0.23824,-0.37186c-0.29579,-0.7897 -0.81933,-1.55696 -0.79998,-2.40001c0.0143,-0.62306 1.27497,-4.22754 1.63225,-5.20045c0.15576,-0.42414 0.80455,-0.92982 0.49721,-1.26103c-0.34951,-0.37665 -1.02124,0.12901 -1.5349,0.14275c-2.04904,0.05482 -4.04483,0.806 -6.09456,0.81872c-0.84326,0.00523 -1.55674,-0.79999 -2.40001,-0.79999c-0.84326,0 -1.55693,0.81933 -2.39997,0.79999c-1.81639,-0.04168 -3.39992,-1.38922 -5.20046,-1.63226c-1.02572,-0.13845 -2.07858,0.14647 -3.10503,0.01355c-3.0477,-0.39468 -5.76745,-2.02751 -8.79997,-2.40002c-2.96982,-0.3648 -6.30031,0.01873 -9.29458,0.01873h-3.20001c0,0 -2.5,0 -2.5,-2.5z" fill="#696969" stroke-width="0.5"></path>
      <path d="M283.09999,280.50004l2.86028,2.18552c1.38422,0.51522 2.99484,0.20515 4.42844,-0.15023c0.63516,-0.15745 1.56568,0.02177 1.88466,-0.54962c0.36065,-0.64605 -0.42169,-1.45432 -0.35464,-2.19116c0.11176,-1.22824 0.54796,-2.40603 0.88102,-3.59352c0.48532,-1.73039 1.30079,-3.39907 1.51901,-5.20644c0.13455,-1.11438 -0.21559,-2.27124 0.02637,-3.36732c0.30955,-1.40228 1.28785,-2.59829 1.59998,-4c0.40452,-1.81667 0.44671,-3.69795 0.78723,-5.52769c0.26126,-1.40387 -0.40705,-3.1114 0.43961,-4.26131c2.56298,-3.48095 7.35253,-1.38962 10.42855,-1.00594c1.29167,0.16111 2.61183,-0.162 3.90501,-0.01355c1.19158,0.13679 2.80627,1.6724 3.52675,0.7135c0.7478,-0.99526 0.09133,-6.4612 0.10004,-7.43267c1.46949,-4.57644 2.08176,-9.15909 3.24237,-13.80591c0.27418,-1.09776 0.49986,-2.20891 0.82504,-3.29265c0.29263,-0.97524 1.74339,-2.42112 0.86176,-2.9305c-1.12101,-0.64768 -2.37859,1.11932 -3.66098,1.29719c-1.18883,0.16489 -2.40027,0.02659 -3.60046,0.03228c-3.45538,0.0164 -7.22046,0.33931 -10.64637,-0.01217c-1.22178,-0.12535 -2.37028,-0.77295 -3.59832,-0.79265c-0.66183,-0.01062 -1.22185,0.51657 -1.85634,0.70512c-2.52039,0.74901 -4.72787,1.20772 -7.00945,2.07817c0.04793,0.61496 -0.11781,1.11212 -0.11781,1.11212c-3.59318,10.66222 -3.11167,22.61821 -4.66717,33.67506c-0.75575,5.37205 -2.14671,10.54647 -3.37193,15.795c0.87527,0.02032 1.56735,0.53938 1.56735,0.53938zM284.16391,229.21804c-1.11802,-2.23607 1.11806,-3.3541 1.11806,-3.3541c3.37385,-1.67058 6.42262,-2.37178 10.01909,-3.36424c0.98858,-0.27281 1.91812,-0.88263 2.94358,-0.89485c1.4916,-0.01778 2.91703,0.66257 4.40169,0.80732c3.29168,0.32094 6.83984,-0.03 10.15368,-0.01217c2.58886,0.01393 8.21427,-2.04527 10.33852,-0.2705c1.42039,1.18671 1.56777,3.42556 1.75961,5.26647c0.21888,2.10036 -1.16014,4.06179 -1.67278,6.11035c-1.1287,4.51044 -1.61464,8.98143 -3.15765,13.39416c0.05568,4.82906 1.09186,11.07806 -5.5718,11.69769c-1.22566,0.11397 -2.3775,-0.68483 -3.60134,-0.81688c-2.16933,-0.23407 -4.34279,-0.45477 -6.49502,-0.81354c-0.78882,-0.13149 -1.60109,0.05182 -2.39911,0c-0.26587,-0.01727 -0.72711,-0.46853 -0.77231,-0.20596c-0.12347,0.71726 0.49722,1.41319 0.4396,2.13872c-0.26727,3.3654 -1.68379,6.41395 -2.41285,9.67226c-0.22075,0.98654 0.15569,2.03007 0.02638,3.03271c-0.33488,2.59665 -1.0016,3.66511 -1.68095,5.99351c-0.6626,2.271 0.2958,5.08641 -1.07372,7.01537c-2.84978,4.0139 -8.98962,3.73705 -12.88685,2.50011l-3.24779,-2.39877c-0.60506,0.28435 -1.19194,0.28435 -1.19194,0.28435l-3.24461,-3.02358c1.32871,-6.19509 3.1125,-12.21389 3.99788,-18.50736c1.56227,-11.10498 1.252,-22.87638 4.58803,-33.66193c-0.13523,-0.16405 -0.26227,-0.3588 -0.37744,-0.58915z" fill="#696969" stroke-width="0.5"></path>
      <path d="M300.77283,246.50696c-0.22658,0.05945 -0.48288,0.09307 -0.7728,0.09307c-2.5,0 -2.5,-2.5 -2.5,-2.5c0.0181,-2.01921 0.5467,-4.00144 0.83227,-6.00043c0.38165,-2.67158 -1.04924,-5.38335 2.14966,-7.43564c1.02511,-0.65767 2.39666,0.57559 3.61401,0.53789c2.38101,-0.07375 4.64184,-2.60596 7.20551,-1.43363c5.61262,2.5666 2.20007,10.37733 0.67023,14.32238c-0.45141,1.16405 -0.47847,2.68901 -1.47306,3.4437c-1.38207,1.04871 -3.32973,0.97594 -4.9946,1.46391l-3.09463,-0.92652c0,0 -1.25894,-0.41968 -1.63659,-1.56473zM302.52995,243.26091c0.76405,-0.16484 1.46071,0.0674 1.46071,0.0674l1.7053,0.67358c2.43488,-0.23594 2.43043,-4.68361 3.07873,-6.90824c0.25725,-0.88277 1.61984,-2.86824 0.72382,-2.66182c-2.55163,0.58784 -4.08069,2.57671 -6.50475,0.90708c0.13184,0.11747 0.25863,0.25642 0.27398,0.36157c0.15412,1.05548 0.15085,2.14407 0,3.20003c-0.20808,1.45655 -0.62237,2.89825 -0.73779,4.3604z" fill="#696969" stroke-width="0.5"></path>
      <path d="M335.10001,224.90001c0,-2.5 2.5,-2.5 2.5,-2.5l1.40632,0.07465c4.34296,1.11464 11.77758,-1.08094 14.39792,3.64574c1.63302,2.94571 -0.2508,5.16124 -0.52298,7.88508c-0.15713,1.57247 0.1531,3.16741 0.00657,4.74091c-0.32212,3.45888 -2.03743,6.6926 -2.42409,10.0727c-0.37833,3.30729 -0.01283,6.68174 -0.50715,9.97368c-0.71816,4.78251 -2.18486,9.47789 -2.66509,14.31345c-0.3713,3.73874 0.41315,9.31013 -3.71187,11.59803c-2.14024,1.18706 -8.25376,0.29581 -10.77961,0.29581c-2.83152,0 -5.67603,-0.2899 -8.49454,-0.01873c-1.2253,0.11789 -2.38049,0.97376 -3.6014,0.81687c-1.55565,-0.19991 -3.43994,-0.54644 -4.33218,-1.83637c-0.96355,-1.393 -0.53791,-3.37135 -0.43962,-5.06227c0.01601,-0.27537 1.52338,-4.59372 1.66745,-5.09847c0.7383,-2.58664 1.29049,-5.22377 2.01932,-7.81309c1.69826,-6.03346 2.04442,-12.10287 3.29877,-18.23748c1.49713,-7.32201 3.56569,-14.40878 5.03072,-21.74074c0,0 0.49028,-2.45146 2.94173,-1.96117c2.45146,0.49029 1.96117,2.94173 1.96117,2.94173c-0.82436,4.11818 -2.2719,7.95062 -3.19496,12.00831c-1.74604,7.67546 -2.19949,15.66208 -3.75818,23.36621c-0.85769,4.23926 -2.30347,8.65725 -3.49797,12.83416c-0.44442,1.55404 -2.01493,4.17467 -1.97224,5.83925c0.00448,0.17467 0.30107,-0.18433 0.46786,-0.23639c0.92471,-0.28861 1.83462,-0.68772 2.79862,-0.7831c0.23451,-0.0232 8.07619,-0.01873 9.10544,-0.01873c2.13334,0 4.2701,-0.12069 6.40002,0c0.67953,0.0385 1.37671,0.51722 2.02031,0.29581c0.39233,-0.13497 0.37095,-0.74964 0.46998,-1.15255c0.26636,-1.08371 0.51537,-2.17876 0.62185,-3.28963c0.26099,-2.72282 0.37422,-5.46623 0.82184,-8.16465c0.53593,-3.23081 1.38585,-6.40592 1.87873,-9.64358c0.50187,-3.29674 0.11185,-6.68026 0.50983,-9.99115c0.39727,-3.30498 2.09107,-6.42991 2.38958,-9.80059c0.14288,-1.61342 -0.15474,-3.24751 0.00657,-4.85919c0.16703,-1.66882 1.56792,-3.3111 1.07713,-4.91484c-0.41019,-1.34035 -2.79424,-0.29798 -4.19583,-0.27967c-2.35338,0.03073 -4.72011,-0.31569 -7.00636,-0.87463l-0.19366,0.07464c0,0 -2.5,0 -2.5,-2.5z" fill="#696969" stroke-width="0.5"></path>
      <path d="M340.15404,238.66689c0.31317,-0.32368 0.76885,-0.63952 0.47818,-0.7991c-0.47,-0.25803 -0.95479,0.48816 -1.43218,0.73224zM340.0783,238.74896c-0.35847,0.30746 -1.74208,1.32599 -3.18407,0.15575c-0.07702,3.31971 -0.87214,5.81577 -1.67796,9.03699c-0.93248,3.72755 -1.35858,7.55258 -2.41598,11.25734c-0.85746,3.00425 -2.71579,6.21726 -3.13253,9.30143c-0.14283,1.05707 0.215,2.15526 -0.00001,3.20005c-0.10028,0.48726 -0.72305,0.72442 -0.90307,1.18817c-0.05608,0.14447 0.31398,-0.00613 0.46202,-0.05197c0.73143,-0.22647 1.42902,-0.5578 2.16697,-0.76202c0.66645,-0.18444 3.59424,-0.29494 3.89662,-1.73137c0.29052,-1.38007 -0.27094,-2.81937 -0.18354,-4.22697c0.10929,-1.76031 0.51399,-3.48976 0.77099,-5.23464c1.24725,-5.26843 1.77031,-10.22751 2.441,-15.48718c0.0054,-0.04236 1.46038,-6.0144 1.59997,-6.39996c0.02893,-0.0799 0.08711,-0.16261 0.15957,-0.24562zM335.91166,236.43682c0.18838,-0.77242 0.72064,-1.30465 0.72064,-1.30465l2.56775,-1.53215c1.65591,0.24408 3.81744,-0.4837 4.96771,0.73223c1.93626,2.04676 0.4157,6.54173 -0.14239,8.77412c-1.54397,6.17595 -1.7419,12.43568 -3.23765,18.71993c-0.23149,1.55247 -0.5628,3.0933 -0.69446,4.6574c-0.1615,1.91853 0.51578,3.97922 -0.18355,5.77303c-2.00597,5.1454 -12.88977,7.88103 -15.8744,2.25456c-0.57458,-1.08317 0.57221,-2.39199 0.69703,-3.61176c0.20551,-2.00843 0.26889,-4.07106 0.89599,-5.99011c1.98361,-6.07029 3.21027,-12.06642 4.75545,-18.25106c0.73946,-2.95972 1.53639,-5.04298 1.51623,-8.15833c0,0 0,-2.5 2.5,-2.5c0.66517,0 1.15337,0.17699 1.51166,0.43677z" fill="#696969" stroke-width="0.5"></path>
      <path d="M362.46922,233.95674c-3.26643,8.71125 -3.11259,18.8993 -3.97924,27.96735c-0.38621,4.041 -0.65497,7.59187 -1.66463,11.58227c-0.46897,1.85345 -0.25979,3.83438 -0.70086,5.69332c0.85965,0.07058 3.47006,1.41613 4.51882,0.99067c0.57673,-0.23397 0.82006,-0.93643 1.2301,-1.40465c2.84523,-9.12739 12.12683,-15.5992 15.08086,-24.58406l4.94412,-3.54743c0.13712,1.86751 0.65715,3.7462 0.41136,5.60253c-0.15236,1.15069 -1.15499,2.02479 -1.56502,3.11068c-0.76462,2.02492 -0.88314,4.24781 -1.56595,6.30175c-1.73788,5.22767 -4.15329,10.61712 -4.62814,16.14243c2.01536,-0.78764 5.42985,-0.32133 7.04939,-0.21158c0.8586,0.05818 1.71047,0.70731 2.53822,0.4719c0.37438,-0.10647 -0.20358,-0.7847 -0.10994,-1.16249c0.76704,-3.09491 1.58943,-6.18385 2.11672,-9.3285c1.16325,-6.93735 3.40854,-13.78405 4.18729,-20.68135c0.3291,-2.91481 -0.37556,-5.89079 0,-8.79998c0.60503,-4.68667 3.37337,-7.6071 1.66739,-12.50061c1.84936,-4.14735 -0.02257,0.07397 -0.07517,0.09376c-1.85557,0.69832 -4.02576,-0.68634 -5.94486,-0.18854c-1.33527,0.34636 0.03206,2.80596 -0.3869,4.12026c-0.39042,1.22476 -1.26162,2.25258 -2.05942,3.26054c-1.60289,2.02513 -3.17597,2.85388 -4.79997,4.79997c-1.83601,2.20016 -2.96776,4.99159 -4.8,7.20002c-1.20781,1.4558 -2.63152,2.744 -3.68755,4.31337l-0.14729,0.06295c-0.70622,0.60208 -1.73286,0.76907 -2.62324,1.12108l-0.27525,0.11764l-1.44581,-3.49839c1.256,-1.89583 2.85246,-3.54299 4.31244,-5.2866c1.83934,-2.19665 2.96457,-4.99486 4.79998,-7.2c0.44441,-0.53394 1.15754,-1.14287 1.93962,-1.79874c-1.0639,3.01517 -2.19486,5.955 -3.2417,8.99549c-0.68224,1.98153 -2.02922,5.99122 -3.25484,7.34491c-0.06652,0.07347 -0.13709,0.14144 -0.21119,0.20461l-2.62324,1.12108c-0.09343,0.03693 -0.18535,0.07591 -0.27525,0.11764c-0.50324,-1.11891 -1.6241,-2.1352 -1.50972,-3.35672c0.15607,-1.66683 1.56306,-2.96376 2.24472,-4.49282c1.15454,-2.5898 2.32984,-5.5836 3.32025,-8.21782c0.66639,-1.77242 0.84033,-4.56663 1.65148,-6.59986c-0.36948,0.10207 -0.72792,0.18819 -1.00774,0.26748c-1.1866,0.33621 -2.36838,0.73929 -3.59352,0.88102c-1.89693,0.21945 -3.88432,0.04838 -5.70049,0.61923c-0.02794,0.07207 -0.05563,0.14425 -0.08308,0.21653l0.04586,0.05072c0,0 -0.03446,0.03446 -0.09857,0.08894zM363.76557,228.34512c1.30395,-0.14184 2.62874,-0.18831 3.92898,-0.32634c1.89901,-0.20159 3.59558,-1.61825 5.505,-1.58648c1.90566,0.0317 4.34267,-0.40082 5.62857,1.00593c0.9458,1.03469 -0.76699,5.58605 -1.25637,7.05236c-0.24969,0.74812 -0.50558,1.48917 -0.76548,2.22573c1.65927,-1.39152 3.62888,-2.99437 4.00105,-4.54077c0.24959,-1.03706 -0.39388,-2.20872 0,-3.20001c0.58986,-1.48451 1.43157,-3.07771 2.81306,-3.87969c2.89742,-1.68201 4.21967,0.39189 6.85518,-0.18854c1.40308,-0.30901 2.75166,-2.20271 4.02593,-1.53912c1.58222,0.82396 1.53253,3.2219 2.29881,4.83284c0.95751,2.97863 1.28919,3.07579 0.88102,6.6045c-0.32583,2.81683 -2.08585,5.35817 -2.41357,8.09497c-0.34876,2.91252 0.3193,5.8841 0,8.79999c-0.75597,6.90363 -3.02868,13.76893 -4.19224,20.71123c-0.56966,3.39886 -1.05272,6.86769 -2.3038,10.07885c-0.48638,1.2484 -0.54743,2.97144 -1.70991,3.63755c-1.58553,0.90852 -3.63667,0.38085 -5.46178,0.4719c-4.11639,0.20535 -8.02533,0.73725 -12.16773,0.86774l0.10003,-4.56819c0,-3.83032 1.00495,-7.57155 2.22811,-11.27327c-2.28904,3.07934 -4.38955,6.24692 -5.63376,9.78803c-1.18998,1.1318 -2.06522,2.73749 -3.56995,3.3954c-2.01116,0.87934 -4.36785,-0.44558 -6.55669,-0.60974c-1.28828,-0.09662 -2.94826,1.24167 -3.86178,0.32817c-1.25635,-1.25634 -0.83223,-3.46338 -1.03824,-5.22813c-0.41656,-3.56851 0.8953,-6.74248 1.66094,-10.14852c3.01817,-13.42668 0.28566,-27.88158 6.60298,-40.56953c0,0 1.11802,-2.23607 3.3541,-1.11806c0.50052,0.25025 0.83298,0.55652 1.04755,0.88119z" fill="#696969" stroke-width="0.5"></path>
      <path d="M371.94212,222.85875c-0.53109,0.40378 -1.92057,1.19846 -3.30996,-0.19103c-0.03627,-0.03627 -0.07106,-0.07254 -0.1044,-0.1088c-0.1622,0.02668 -0.33775,0.04112 -0.52774,0.04112c-2.5,0 -2.5,-2.5 -2.5,-2.5c0,-0.59535 -0.06097,-7.65269 0.1903,-8.15672c3.44216,-6.90457 11.5734,-3.12853 17.11013,-2.311c1.93235,0.28533 5.93614,-0.68795 7.46134,0.43962c2.92554,2.16283 1.90006,9.74484 -0.56315,11.86241c-1.11629,0.95965 -2.79378,0.92956 -4.19968,1.36598c-1.02729,0.31889 -2.02341,0.88739 -3.09899,0.89969c-0.97376,0.01112 -1.83637,-0.69455 -2.80041,-0.83227c-2.73303,-0.39043 -5.06143,-0.02257 -7.65746,-0.50898zM370.38186,218.40082l1.60876,-0.6725c3.42021,1.19798 8.84532,1.5533 12.11046,0.77139c0.7173,-0.17177 1.58247,0.16884 2.20034,-0.23398c0.3542,-0.23092 0.00821,-0.85154 0.09831,-1.26465c0.17798,-0.81599 0.44279,-1.61123 0.70213,-2.40511c0.05426,-0.16609 0.41111,-0.46831 0.23639,-0.46783c-1.78559,0.00483 -3.57005,0.68494 -5.33871,0.43962c-2.67908,-0.3716 -5.3327,-1.09329 -7.99998,-1.6c-0.92846,-0.17639 -3.25313,-0.78827 -3.68982,0.88898c-0.38275,1.47007 -0.1057,3.0101 0.07212,4.5441z" fill="#696969" stroke-width="0.5"></path>
      <path d="M308.89999,109.70002c0,0.60033 -0.14416,1.0565 -0.36324,1.40313c-0.51879,2.23737 -1.26675,3.99333 -1.23673,6.59687l0.06775,-0.96778c0,0 1.76777,1.76777 0,3.53553c-0.65447,0.65447 -1.30894,0.82434 -1.8737,0.77872c1.75772,0.52638 3.72663,1.76406 5.06263,2.34382c2.81521,1.22167 5.97108,1.45502 8.88794,2.43842c7.42533,4.44041 16.28859,8.35027 24.52457,11.09253c8.27099,2.75392 16.53511,4.15586 24.3292,8.13294c0.98715,0.50371 4.81954,1.29555 5.36896,1.50108c2.80013,1.0475 5.74958,2.44464 8.23102,4.09893c1.50002,0.4833 2.9971,0.97573 4.49218,1.47409l1.77719,1.40393c0,0 1.76777,1.76777 0,3.53553c-1.76777,1.76777 -3.53553,0 -3.53553,0l0.17721,-0.19605c-1.70495,-0.56832 -3.4073,-1.14444 -5.1078,-1.72593c-4.25638,-2.83757 -9.11913,-3.39853 -13.59997,-5.60001c-7.62001,-3.74378 -15.62279,-5.18155 -23.6708,-7.86706c-3.22531,-1.07624 -6.55524,-2.32154 -9.86209,-3.70516c-5.39866,3.80592 -11.94894,6.75953 -18.2698,8.52675c-1.47935,0.41361 -2.74954,1.37083 -4.11222,2.07982c-0.02082,0.01083 -0.04267,0.0205 -0.06541,0.02912c1.71681,0.59879 3.4654,1.12023 5.22769,1.60769c0.22136,-0.4229 0.4832,-0.68473 0.4832,-0.68473l2.62926,-2.60274c2.49118,-1.50602 5.01745,-2.96239 7.6205,-4.26555c0,0 2.23607,-1.11803 3.3541,1.11803c1.11803,2.23607 -1.11803,3.3541 -1.11803,3.3541c-2.30824,1.15259 -4.56194,2.41582 -6.77952,3.73445l-0.76966,0.77904c1.30359,0.34096 2.60462,0.68751 3.89586,1.05695c0.32217,-0.29506 0.61724,-0.44259 0.61724,-0.44259l0.95025,-0.33165c0.79999,-0.80001 1.59998,-1.60002 2.39996,-2.40002c0,0 1.76774,-1.76779 3.53553,-0.00004c1.76779,1.76774 0.00004,3.53553 0.00004,3.53553c-0.51539,0.51541 -1.03079,1.03081 -1.54618,1.54622c1.62295,0.55075 3.24296,1.10837 4.86069,1.67124l2.13277,-2.11854c0.86606,-0.58226 1.73211,-1.16451 2.59817,-1.74677c0,0 2.08011,-1.38677 3.46688,0.69334c1.38677,2.08011 -0.69334,3.46688 -0.69334,3.46688c-0.73392,0.48442 -1.46784,0.96883 -2.20176,1.45325l-0.08521,0.08587c1.1879,0.4213 2.37494,0.84449 3.56139,1.26892c0.9063,-1.10552 1.68001,-2.32838 2.30275,-3.60618c0,0 1.11802,-2.23608 3.35409,-1.11806c2.23608,1.11802 1.11806,3.35409 1.11806,3.35409c-0.55101,1.08003 -1.17941,2.12895 -1.87895,3.12792c1.49262,0.53723 2.98485,1.075 4.47723,1.61201c0.36184,-0.54823 0.72368,-1.09645 1.08552,-1.64468c0,0 1.38674,-2.08013 3.46687,-0.6934c2.08013,1.38674 0.6934,3.46687 0.6934,3.46687c-0.13609,0.20242 -0.27217,0.40484 -0.40826,0.60727c1.58567,0.56691 3.17213,1.13138 4.75999,1.69187l0.28801,-0.27266c0.53335,-0.8 1.06669,-1.6 1.60004,-2.39999c0,0 1.38677,-2.08011 3.46688,-0.69333c2.08011,1.38677 0.69333,3.46688 0.69333,3.46688c-0.36293,0.54438 -0.72586,1.08877 -1.0888,1.63315c0.70541,0.24401 1.41122,0.48692 2.1175,0.72859c0.11401,-1.58467 1.30466,-2.05253 1.99777,-2.19065c0.56447,-0.75262 1.12895,-1.50524 1.69342,-2.25786c0,0 1.50002,-1.99999 3.5,-0.49997c1.99999,1.50002 0.49997,3.5 0.49997,3.5c-0.80001,1.06666 -1.60002,2.13332 -2.40002,3.19998l-1.33519,0.47685c0.36531,0.28057 1.83815,1.57566 0.61534,3.40988c-1.38674,2.08013 -3.46687,0.69339 -3.46687,0.69339l-2.11166,-1.43435c-4.78769,-1.56052 -9.54596,-3.22162 -14.29469,-4.9201l-0.43915,0.44209c0,0 -1.76778,1.76776 -3.53553,-0.00002c-0.76001,-0.76002 -0.86652,-1.52004 -0.74095,-2.13958c-1.36613,-0.49418 -2.73202,-0.98973 -4.09814,-1.48513c-0.34539,0.21555 -0.79856,0.35696 -1.39313,0.35696c-1.57054,0 -2.15444,-0.98664 -2.37153,-1.72028c-5.32022,-1.92215 -10.65056,-3.82113 -16.01902,-5.608c-5.68905,-1.90116 -11.69008,-3.04545 -17.38451,-4.95695c-0.06988,0.19197 -0.12655,0.38651 -0.15725,0.58572c-0.35083,2.27619 0.83358,4.55591 0.83163,6.85898c-0.001,1.18059 -0.67352,2.2743 -0.81807,3.44601c-0.49689,4.02767 -0.77888,7.82251 -0.79342,11.94087c-0.65024,3.25126 -1.14579,6.54173 -1.62009,9.75411c-0.31161,2.11045 0.29309,4.28689 0,6.4c-0.02264,0.16322 -0.04743,0.32627 -0.07382,0.48921c0.40908,-0.46655 0.78823,-0.95661 1.12595,-1.47641c0,0 1.38674,-2.08013 3.46687,-0.6934c2.08013,1.38674 0.6934,3.46687 0.6934,3.46687c-0.82015,1.20642 -1.79524,2.30096 -2.84891,3.32253c-0.26819,0.76186 -0.8695,1.2429 -0.8695,1.2429l-2.54278,2.03423c1.34241,0.29984 2.6894,0.57426 4.02785,0.90895c-0.01518,-1.06246 0.78546,-1.8631 0.78546,-1.8631l2.84115,-2.74657c0.18497,-0.62541 0.36994,-1.25082 0.55491,-1.87623c0,0 0.79056,-2.37171 3.16227,-1.58115c2.37171,0.79056 1.58115,3.16227 1.58115,3.16227c-0.34836,0.97459 -0.69671,1.94917 -1.04507,2.92376l-3.20047,3.28553c0.84353,0.23966 1.70424,0.49762 2.56865,0.77012l2.97181,-2.95496c0.48442,-0.73393 0.96885,-1.46786 1.45327,-2.20179c0,0 1.38677,-2.08011 3.46688,-0.69333c2.08011,1.38677 0.69333,3.46688 0.69333,3.46688c-0.58227,0.86607 -1.16453,1.73214 -1.7468,2.5982l-1.60028,1.60846c0.67419,0.25902 1.33232,0.52261 1.96697,0.7887c0.01188,-2.48214 2.49996,-2.48214 2.49996,-2.48214l-0.58672,0.41989c1.31423,-0.83819 2.46846,-1.99243 3.30666,-3.30666c0,0 1.38677,-2.08011 3.46688,-0.69333c2.08011,1.38677 0.69333,3.46688 0.69333,3.46688c-1.25362,1.82302 -2.87031,3.43972 -4.69334,4.69334l-0.47639,0.09147c0.22252,0.09559 0.44881,0.18216 0.68016,0.25669l1.60941,-0.12829c0,0 0.91885,0 1.64245,0.55706l0.97081,-0.93718c1.91488,-1.26386 3.60127,-2.86067 5.21902,-4.48763c0,0 1.76778,-1.76776 3.53553,0.00002c1.76776,1.76778 -0.00002,3.53553 -0.00002,3.53553c-1.85929,1.84982 -3.80446,3.64904 -5.98105,5.11234l-1.21894,1.28763c0,0 -1.76775,1.76778 -3.53553,0.00003c-0.04298,-0.04298 -0.08388,-0.08596 -0.12275,-0.12892c-0.29893,0.06112 -0.50952,0.06112 -0.50952,0.06112l-3.19051,-0.12829c-5.61539,-1.92011 -10.85237,-4.9334 -16.70841,-6.37141c-3.16625,-1.05539 -6.44507,-1.43801 -9.61343,-2.40393c-2.38246,-0.72633 -4.41397,-2.31894 -6.69899,-3.31009c-1.93869,-0.84092 -4.15346,-0.83797 -6.1578,-1.50752c-2.52379,-0.84308 -4.80704,-2.29893 -7.2982,-3.23403c-2.65092,-0.99507 -5.65869,-1.21078 -8.23102,-2.49892c-2.96933,-1.48694 -5.2821,-4.03567 -8.15643,-5.68352c-2.4215,-1.38824 -4.91378,-2.11658 -7.53576,-2.99058c0,0 -1.72555,-0.57519 -1.74235,-2.21617l-1.56705,-0.95552c0.03135,-3.49622 1.20695,-5.75333 1.61871,-9.10544c0.29261,-2.3821 -0.26401,-4.81457 0,-7.20001c0.22653,-2.04671 0.94627,-4.01835 1.34826,-6.03628c-3.20546,-0.1228 -6.60533,-0.44656 -9.66654,0.00946c-1.67483,0.24949 -3.24109,0.98767 -4.8852,1.39339l-2.10007,1.40004c-0.40239,0.2768 -0.88986,0.43883 -1.41519,0.43883c-1.38071,0 -2.5,-1.11929 -2.5,-2.5c0,-0.15626 0.01434,-0.30917 0.04176,-0.45748l0.79231,-4.75353l0.42468,0.07078c0.23723,-3.41726 0.6932,-6.72366 1.16001,-10.36521c0.53708,-4.1897 -0.42528,-8.58965 0,-12.80002c0.3276,-3.24326 1.15834,-6.50875 1.61352,-9.695c0.58824,-4.11763 0.04912,-8.63056 0.7865,-12.70499c0.28587,-1.57957 0.40241,-3.37428 1.44695,-4.59318c0.65455,-0.76381 1.67146,-1.10357 2.69886,-1.33658c-0.77683,-1.62549 0.735,-2.88535 0.735,-2.88535c2.49553,-2.07843 4.7029,-4.50001 7.286,-6.46855c1.22871,-0.93638 2.73975,-1.45486 3.97589,-2.38141c2.46594,-1.84834 5.10545,-5.51219 8.4067,-6.10737c1.06136,-0.19135 2.05912,0.70374 3.13232,0.81018c2.64155,0.262 5.29287,0.44008 7.92437,0.7889c2.10842,0.27949 4.27011,-0.26592 6.38059,-0.00246c4.0911,0.51071 8.06138,2.71807 12.09502,3.21357c2.24963,0.27635 4.533,-0.03228 6.79954,-0.03228h2.40002c0,0 1.40297,0 2.10691,1.051c0.33021,-0.1608 0.70112,-0.25101 1.0931,-0.25101c1.38071,0 2.5,1.11929 2.5,2.5c0,0.29693 -0.05176,0.58176 -0.14676,0.84598l-0.61371,1.841c0.21939,4.02803 0.4285,8.17728 -0.05831,12.01847c-0.00269,0.02121 -0.00541,0.04237 -0.00816,0.06347c0.01755,0.13473 0.02689,0.27824 0.02689,0.4311zM300.4318,117.47549c-1.22131,0.73218 -2.7123,0.93767 -4.12631,1.10579c-0.73471,0.08736 -1.57662,-0.76671 -2.19114,-0.35464c-0.67736,0.4542 -0.38681,1.59898 -0.75203,2.32818c-0.45377,0.906 -1.12146,1.68798 -1.68219,2.53197c0,0 -1.38676,2.08012 -3.46688,0.69335c-2.08012,-1.38676 -0.69335,-3.46688 -0.69335,-3.46688c1.38638,-2.07158 1.89011,-4.95964 3.9658,-6.33987c1.81474,-1.20671 4.66841,0.35864 6.4826,-0.84889c2.01256,-1.33956 3.35446,-3.48276 5.06398,-5.19226l0.9695,-0.21079c0.15651,-2.26223 -0.10974,-4.54935 -0.10177,-6.82145c0.00161,-0.45974 -0.04858,-0.92996 -0.10135,-1.40081c-0.8351,0.62667 -1.62109,1.35622 -2.48428,1.92742c-0.77078,0.51004 -1.78858,0.50728 -2.61597,0.91918c-1.72144,0.85699 -3.08151,2.33712 -4.80001,3.19999c-0.68149,0.34218 -1.55599,0.24835 -2.18406,0.68085c-2.19631,1.5124 -2.4951,5.0589 -4.80001,6.4c-0.14585,0.08487 -0.2871,0.16294 -0.42406,0.23461c-0.0505,2.34878 -0.29392,4.7092 -0.85113,6.98723l-0.78769,3.94184c0,0 -0.49032,2.45145 -2.94177,1.96113c-0.10672,-0.02134 -0.20786,-0.04641 -0.30371,-0.07482c-0.1606,0.60824 -0.50752,1.00181 -0.88925,1.25648c3.54169,-0.90214 7.07694,-1.83129 10.58435,-2.8334c3.83444,-1.09554 8.789,-3.36255 12.79491,-3.29787c0.21992,0.00355 0.44852,0.02838 0.68352,0.07076c-0.57444,-0.232 -0.94726,-0.60483 -0.94726,-0.60483l-1.53222,-2.56775c0.00688,-0.76685 0.0688,-1.47409 0.16564,-2.14634c-1.02845,1.01116 -1.87959,1.82932 -2.03385,1.92181zM276.89998,126.89999c-0.58977,-0.63365 -0.96923,-1.57048 -1.76931,-1.90095c-0.33979,-0.14035 -0.39552,0.62042 -0.61262,0.91711c-0.78501,1.0728 -1.40242,2.3038 -2.39111,3.19199c0.28465,-0.08166 0.57326,-0.15996 0.86673,-0.23351c2.00889,-0.50347 4.0207,-1.00488 6.03154,-1.51265zM261.03777,126.95484c-0.2839,-0.61795 0.49888,-1.68076 -0.07941,-2.03858c-0.48046,-0.29728 -0.28053,1.27503 -0.8016,1.49345c-1.60046,0.67089 -3.37972,1.08835 -5.11205,0.98546c-1.42859,-0.08485 -2.9037,-0.62254 -4.01245,-1.52739c-0.68987,-0.56299 -0.28624,-3.37674 -0.68682,-2.5815c-0.93752,1.86117 -2.30666,3.50534 -3.77766,4.9815c0,0 -1.26019,1.26017 -2.71655,0.58856c-0.22028,1.44229 -0.41783,2.89 -0.56993,4.34911c-0.43926,4.2138 0.51412,8.58929 0,12.80002c-0.13326,1.09138 -0.66348,2.109 -0.79999,3.19998c-0.37004,2.95726 -0.17502,5.03153 -1.19073,7.243l0.23839,0.03973c1.47583,-0.48817 2.93832,-1.02986 4.47058,-1.25589c3.48434,-0.51399 7.31326,-0.15061 10.91122,-0.05402c0.11473,-2.25548 0.22992,-4.51101 0.63023,-6.72897c0.53875,-2.98497 0.97377,-5.99116 1.63273,-8.95192c0.08955,-0.40234 0.13507,-0.85217 0.24494,-1.26293c-0.57626,-0.96733 -0.19037,-2.12502 -0.19037,-2.12502l0.78176,-2.3453c0.16673,-0.54213 0.51285,-1.00568 0.96908,-1.32138c0.65212,-1.24273 2.22091,-1.24273 2.22091,-1.24273c0.64955,0.01074 1.27296,-0.0309 1.87906,-0.11142c-1.84225,-0.62831 -3.10177,-2.08867 -4.04133,-4.13376zM248.85458,118.51372c1.63312,-0.48855 3.496,0.47131 4.91322,1.41854c1.87938,1.25612 -0.35114,2.75842 1.58758,2.47257c0.97367,-0.14356 1.9553,-0.30016 2.88795,-0.61451c1.37319,-0.46285 2.64057,-2.21291 3.99833,-1.70656c0.59456,0.22173 3.37213,6.81245 5.33168,6.35293c3.51661,-0.82466 2.70174,-6.78468 7.69608,-6.43571c1.81664,0.12693 3.08706,1.93269 4.63059,2.89904l-0.69996,-0.50001c0,0 0.35817,0 0.80338,0.13557l0.75753,-3.78406c0.50067,-1.9536 0.70937,-3.98792 0.73646,-6.00859c-0.54814,-0.23854 -1.15169,-0.46502 -1.89784,-0.57519c-2.57402,-0.38005 -5.21302,0.24238 -7.80575,0.02376c-4.22227,-0.35602 -7.5704,-1.6129 -11.79379,-1.59149c-3.809,-0.00953 -7.1434,-1.02883 -10.80047,-1.63229c-1.10682,-0.18264 -2.78175,-0.92722 -3.36522,0.03089c-1.06974,1.75661 0.07925,6.30459 -0.15303,8.20686c-0.20657,1.69174 -0.46506,3.36904 -0.73984,5.04129c1.08263,-1.60791 2.15892,-3.20827 3.91311,-3.73304zM293.99952,96.16774c-3.98886,-0.50555 -7.87411,-2.68181 -11.90498,-3.18646c-2.1232,-0.26582 -4.29631,0.26473 -6.41934,-0.00246c-2.68425,-0.33782 -5.3891,-0.49198 -8.07563,-0.81108c-0.61081,-0.07255 -1.0583,-0.87328 -1.66773,-0.78986c-0.59579,0.08155 -0.86367,0.84185 -1.34505,1.20225c-1.61742,1.21094 -3.03222,2.67765 -4.64828,3.8904c-1.25174,0.93935 -2.77787,1.47195 -4.02411,2.41858c-2.03127,1.54294 -3.81719,3.38175 -5.7055,5.09943c3.2535,0.42903 6.61218,1.62052 9.79112,1.61148c4.37057,0.01901 7.88925,1.2535 12.20621,1.60852c2.72224,0.22388 5.48872,-0.3515 8.19425,0.02376c1.33697,0.18544 2.89443,2.05772 3.8852,1.14107c0.65711,-0.60795 0.34913,-1.819 0.88625,-2.53516c1.10007,-1.46677 2.43473,-2.78124 3.91372,-3.86482c0.74557,-0.54624 1.78859,-0.50729 2.61599,-0.91919c1.72143,-0.85696 3.08149,-2.33709 4.79996,-3.19997c0.68149,-0.34219 1.55116,-0.25548 2.18408,-0.68086c0.44967,-0.30222 0.88448,-0.63495 1.31695,-0.97275c-2.19919,0.00025 -5.76811,-0.0031 -6.00311,-0.03289zM299.83608,193.21804c-0.53333,1.06666 -1.06665,2.13332 -1.59998,3.19998l-0.99952,1.08719c0.96552,0.50981 1.89133,1.11155 2.84859,1.63359l0.64768,-1.94292c0.01862,-1.84974 0.52909,-3.66513 0.79946,-5.49632c0.31161,-2.11045 -0.29309,-4.28689 0,-6.39999c0.42963,-3.09751 0.95323,-6.3127 1.57986,-9.4459c-0.017,-4.12812 0.29599,-8.03364 0.80655,-12.05913c0.12816,-1.0105 0.78303,-1.93542 0.78202,-2.95401c-0.00124,-1.25913 -0.66094,-2.44152 -0.78859,-3.69417c-0.19092,-1.87348 0.63993,-3.71928 0.77345,-5.59777c-0.22307,-0.10858 -0.4512,-0.2049 -0.68783,-0.2808c-3.927,-1.25947 -5.39927,-0.41215 -9.54315,-1.58151c-1.18872,-0.33544 -2.16567,-1.20732 -3.32196,-1.64155c-2.20118,-0.82661 -3.80269,-0.55902 -5.89294,-1.73027c-1.11883,-0.62693 -1.88846,-1.81061 -3.06012,-2.33218c-1.17492,-0.52302 -2.57152,-0.30885 -3.79091,-0.7176c-2.26147,-0.75806 -4.14146,-2.43328 -6.40002,-3.19998c-2.57682,-0.87473 -3.80698,-0.67534 -6.38867,-0.6647c0,0 -0.43674,0 -0.94514,-0.18254c-0.21301,0.49044 -0.51529,0.97458 -0.62858,1.48518c-0.92158,4.15355 -1.99389,8.96015 -2.33476,13.20358c-0.13369,1.66424 0.1412,3.34524 -0.00074,5.00879c-0.22822,2.67459 -1.31176,5.22271 -1.60951,7.89045c-0.25768,2.30883 0.2932,4.88652 0,7.20001c-0.08097,0.63888 -0.1922,1.22688 -0.31847,1.7841c1.12793,-0.97779 2.21677,-2.0016 3.26944,-3.05733c0,0 1.76777,-1.76777 3.53553,0c1.76777,1.76777 0,3.53553 0,3.53553c-1.90988,1.90478 -3.92542,3.71493 -6.05851,5.36709c0.31969,0.10834 0.63751,0.21761 0.95368,0.32895l0.23707,-0.66381c2.13332,-1.60001 4.26665,-3.20001 6.39998,-4.8c0,0 2,-1.49999 3.5,0.50001c1.49999,2 -0.50001,3.5 -0.50001,3.5c-1.58216,1.18661 -3.16431,2.37323 -4.74646,3.55985c0.16721,0.09015 0.3343,0.18271 0.50128,0.27787c0.68795,0.39203 1.34271,0.84218 1.98189,1.31912c0.23252,-0.56156 0.59555,-0.9246 0.59555,-0.9246l2.39997,-2.40001c0.80001,-0.8 1.60002,-1.6 2.40004,-2.40001c0,0 1.76778,-1.76776 3.53553,0.00002c1.11399,1.11401 0.82396,2.22801 0.45707,2.89961c0.11399,0.08626 0.22845,0.1859 0.34292,0.30037c1.76776,1.76778 -0.00002,3.53553 -0.00002,3.53553c-0.74481,0.73906 -1.48961,1.47812 -2.23442,2.21718l-0.86679,1.3133c0.78305,0.31476 1.60758,0.54784 2.4435,0.75364l0.58997,-1.65191c1.87462,-1.40114 3.68054,-2.9096 5.33219,-4.56774c0,0 1.76776,-1.76778 3.53553,-0.00002c1.76778,1.76776 0.00002,3.53553 0.00002,3.53553c-0.18802,0.18736 -0.37773,0.37309 -0.56902,0.55722c0.7232,-0.15325 1.70968,-0.06934 2.48141,1.08827c1.38674,2.08013 -0.69339,3.46687 -0.69339,3.46687c-0.47591,0.31727 -0.95181,0.63454 -1.42772,0.95181c0.78737,0.37072 1.585,0.71498 2.41012,0.98935c0.01207,0.00401 0.02444,0.00807 0.03712,0.01217c0.22968,-0.60492 0.62595,-1.00119 0.62595,-1.00119l2.39997,-2.4c0.80001,-0.80001 1.60002,-1.60002 2.40003,-2.40003c0,0 1.76777,-1.76777 3.53553,0c0.1537,0.1537 0.28067,0.3074 0.3844,0.45994c1.92089,1.15185 0.88389,3.22587 0.88389,3.22587zM307.41327,144.41988c2.84876,-2.14564 5.32304,-2.26283 8.51938,-3.4646c3.72035,-1.39879 7.70279,-3.21974 11.22637,-5.38304c-3.4217,-1.61051 -6.7396,-3.35619 -9.80369,-5.20095c-2.8775,-0.94387 -5.90913,-1.17382 -8.71203,-2.36157c-1.60512,-0.68018 -2.99666,-2.2615 -4.73923,-2.21157c-3.53678,0.10133 -7.7956,2.12803 -11.20509,3.10216c-6.11678,1.74763 -12.31776,3.28524 -18.49265,4.82504c-1.12234,0.27987 -2.17051,0.59875 -3.19115,0.91238c0.74111,0.14093 1.56774,0.35974 2.59616,0.6976c2.266,0.74444 4.13598,2.44965 6.40003,3.19998c1.36075,0.45097 2.8988,0.30092 4.20909,0.88244c1.2652,0.56151 2.14441,1.76987 3.33978,2.4678c1.58521,0.92555 3.58808,0.82601 5.30713,1.46974c1.07699,0.4033 1.97181,1.24412 3.07806,1.5584c2.83647,0.80582 5.88871,0.67688 8.74743,1.36704c0.74558,-0.74413 1.86659,-1.2178 2.72038,-1.86087z" fill="#696969" stroke-width="0.5"></path>
      <path d="M190.37174,151.30946c0.79055,2.37171 -1.58116,3.16227 -1.58116,3.16227l-1.81017,0.60337c0.45242,4.20754 0.96333,8.40942 1.62579,12.61309c0.29379,0.61201 0.29379,1.21181 0.29379,1.21181l-0.09474,0.0231c0.02011,0.12197 0.04035,0.24395 0.06073,0.36592l-1.18167,-0.09257l-1.06171,0.25891c1.82653,0.07767 3.62977,0.14465 5.37743,0.14465c1.861,0.00994 3.67151,0.61381 5.49849,0.96818c0.18179,0.03526 0.08686,-0.37209 0.04905,-0.55336c-0.20235,-0.97009 -0.48207,-1.92304 -0.76376,-2.87313c-0.17798,-0.60028 -1.48172,-4.32616 -1.60004,-4.80002c-0.31518,-1.26217 -0.33789,-2.59588 -0.74842,-3.83033c-0.40188,-1.20843 -1.4276,-2.18644 -1.66841,-3.43697c-0.35138,-1.82473 -0.05664,-3.71614 -0.06688,-5.57437c-0.05679,-10.30605 -3.645,-19.78247 -4.78788,-29.95365c-0.54775,-4.87477 -0.81216,-9.70561 -0.81216,-14.64635c0,-3.1037 0,-6.2074 0,-9.3111c-1.23021,-1.00387 -0.6717,-2.67943 -0.6717,-2.67943l0.31435,-0.94309c-3.24105,0.63161 -6.44587,1.52224 -9.73644,1.82509c-5.32912,0.49048 -10.62114,0.94517 -15.90075,1.58979c-2.08618,0.25472 -4.22354,-0.30427 -6.30501,-0.01355c-1.58945,0.222 -3.00222,1.1578 -4.5588,1.54854c-2.49523,0.62637 -5.03723,1.05375 -7.53621,1.66502c-4.34686,-0.01897 -8.72133,1.3125 -13.02386,2.07137c0.01845,0.15261 0.01845,0.24735 0.01845,0.24735v2.39999c-0.04008,3.47614 0.46876,7.50271 1.56769,10.79956c0.05927,6.61061 0.89621,12.81446 1.61353,19.29501c0.46342,4.18674 0.09084,9.02648 1.48345,13.0941c1.43244,4.18396 3.60691,7.95688 4.11658,12.50587c0.07039,0.62824 0.12656,1.25274 0.17278,1.87424c0.31812,-0.06878 0.54596,-0.06878 0.54596,-0.06878c1.19985,0.01076 2.3997,0.02152 3.59954,0.03228l2.00985,-0.70398c0,0 2.37171,-0.79057 3.16228,1.58114c0.02888,0.08665 0.05355,0.17119 0.07426,0.25365c-0.1305,-3.07013 -0.23883,-6.14728 -0.76173,-9.13347c-0.73681,-4.20777 -1.80146,-8.44325 -2.70679,-12.68727l-2.33578,0.77391c-1.38379,0.2784 -2.76758,0.55679 -4.15137,0.83519c0,0 -2.45145,0.49028 -2.94174,-1.96117c-0.49028,-2.45145 1.96117,-2.94174 1.96117,-2.94174c1.28288,-0.25493 2.56575,-0.50986 3.84863,-0.76479l2.25113,-0.75545c0,0 0.16423,-0.05474 0.42067,-0.0922c-0.20569,-1.22998 -0.38229,-2.46006 -0.51798,-3.68977c-0.27222,-2.46714 -0.17193,-4.96936 -0.01217,-7.44632c0.10338,-1.60281 -0.51633,-3.59888 0.56665,-4.78499c1.24457,-1.3631 3.53013,-1.07995 5.29168,-1.63126c4.03256,-1.26206 8.00313,-0.57466 12.09321,-1.62285c4.40273,-0.88026 8.6318,-1.24402 13.07212,-1.64559c1.67671,-0.15164 3.40225,-1.23627 5.00079,-0.70804c5.86423,1.93781 5.07316,10.10189 5.74326,14.79224c0.11926,0.8348 0.68419,1.56471 0.80005,2.39999c0.5164,3.72283 -0.3592,7.6209 0.02012,11.35415c0.26211,2.57969 0.51088,5.15447 0.76744,7.72601l0.75416,-0.25138c0,0 2.37171,-0.79055 3.16227,1.58116zM146.39058,164.87172l-2.79008,0.896c-1.46682,0.01076 -2.93364,0.02152 -4.40046,0.03228c0,0 -0.1201,0 -0.30765,-0.02632c0.12464,3.22032 0.2893,6.41058 1.12203,9.67723c3.25273,-0.66469 6.50547,-1.03697 9.79974,-1.35531c-0.12898,-0.23443 -0.18585,-0.40503 -0.18585,-0.40503c-1.09595,-3.41276 -1.36676,-7.01343 -1.53446,-10.64008c-0.25809,1.3395 -1.70328,1.82123 -1.70328,1.82123zM154.39999,139.20002c2.5,0 2.5,2.5 2.5,2.5l-0.07464,1.40632c-0.26666,1.06667 -0.53333,2.13334 -0.79999,3.20001c0,0 -0.60633,2.42536 -3.03169,1.81903c-0.8094,-0.20235 -1.28115,-0.60728 -1.55048,-1.05705c0.65635,3.35879 1.20088,6.72957 1.45748,10.09565c0.3689,4.83913 -0.14035,10.3448 1.47106,14.94546c0,0 0.25173,0.75521 0.04494,1.55537c0.15916,-0.01522 0.31845,-0.03056 0.47789,-0.04606c2.18867,-0.21276 4.21508,-1.3515 6.39998,-1.60001c1.29334,-0.14711 2.61211,0.16446 3.90501,0.01355c2.44177,-0.28502 4.74872,-2.04393 7.20001,-2.39999c3.6324,-0.52763 7.53479,-0.45226 11.40719,-0.29693c-1.43225,-8.84681 -2.21876,-17.6965 -3.09455,-26.58902c-0.35558,-3.6104 0.54874,-7.46592 0.02012,-11.04587c-0.12318,-0.83423 -0.68078,-1.56519 -0.80005,-2.39999c-0.46436,-3.25027 -0.45239,-6.3966 -1.35518,-9.65651c-0.13009,-0.46973 -0.41523,-1.11889 -0.90156,-1.15122c-1.04071,-0.06918 -1.96675,0.74397 -2.99921,0.89194c-4.18093,0.5992 -8.32904,0.71439 -12.52786,1.55442c-3.93432,0.96233 -7.98115,0.99864 -11.90679,1.57716c-0.89319,0.13163 -1.98241,-0.56809 -2.70832,-0.03129c-0.45872,0.33922 0.50936,1.0474 0.56665,1.61504c0.38342,3.79939 -0.01348,6.91497 0.75144,10.70968c0.70927,3.51868 1.53634,7.07409 2.26857,10.64612c0.01953,-0.22171 0.05463,-0.36212 0.05463,-0.36212c0.26666,-1.06667 0.53333,-2.13334 0.79999,-3.20001l-0.07464,-0.19366c0,0 0,-2.5 2.5,-2.5zM208.80002,109.8c-2.5,0 -2.5,-2.5 -2.5,-2.5l0.03228,-2.79953c-0.46223,-1.36102 -1.20477,-2.6247 -2.01242,-3.81371c0,0 -1.38676,-2.08012 0.69335,-3.46688c2.08012,-1.38676 3.46688,0.69335 3.46688,0.69335c0.37831,0.576 0.73241,1.17005 1.06106,1.77866c-0.02384,-0.39271 -0.03812,-0.78968 -0.04114,-1.19189l0.79999,-0.15277v-1.44723c0.00272,-1.21126 0.12771,-2.46242 0.43159,-3.65527l-0.39758,0.06626l-0.08268,-0.49607c-2.17776,-0.84123 -1.42302,-3.10547 -1.42302,-3.10547l0.06498,-0.19495c-0.97016,0.05852 -1.9363,0.13389 -2.89284,0.25321c-0.83678,0.10438 -1.56189,0.70656 -2.39996,0.80002c-3.80293,0.4241 -7.67421,0.43989 -11.50065,0.70564c0.00009,0.00886 0.00014,0.01774 0.00014,0.02662c0,3.46666 0,10.13334 0,13.60001c0,4.78053 0.26968,9.43403 0.78782,14.15364c0.52943,4.82245 2.49079,9.5057 3.1799,14.24594c0.44692,3.07428 1.0526,6.45109 1.43568,9.63845c-0.00198,-0.14572 -0.00312,-0.29172 -0.00337,-0.43802c0,0 0,-2.5 2.5,-2.5c2.5,0 2.5,2.5 2.5,2.5c-0.00809,4.36334 0.78913,8.45713 0.79999,12.79999l0.53606,0.48199c0,0 1.11802,2.23608 -1.11806,3.35409c-1.77333,0.88665 -2.84348,-0.33621 -3.21045,-0.88032c0.17649,0.93161 0.27857,1.88316 0.50869,2.8026c0.72698,2.90465 3.17669,6.9285 2.43624,9.92683c-1.61025,6.52046 -6.03575,3.58625 -10.45247,3.61483c-6.05123,0 -12.81904,-0.86753 -18.79957,-0.03228c-2.45273,0.34255 -4.72718,2.07333 -7.20001,2.39999c-1.35325,0.17877 -2.73793,-0.13345 -4.09499,0.01355c-2.18618,0.23681 -4.21247,1.37545 -6.39995,1.6c-5.81764,0.59721 -11.4579,0.84519 -17.12533,2.3687c0.11985,0.42013 0.11985,0.75004 0.11985,0.75004c0,3.86094 -0.24636,7.30296 0.63044,11.00879c2.04093,-0.18097 4.08613,-0.34 6.14154,-0.50144c2.23712,-0.17571 4.43383,-0.5533 6.63068,-0.93826l0.03131,-0.35811c-0.43505,-2.61706 -0.91432,-5.2313 -1.55935,-7.80466c0,0 -0.60633,-2.42536 1.81903,-3.03169c2.42536,-0.60633 3.03169,1.81903 3.03169,1.81903c0.6741,2.70319 1.18149,5.44745 1.6406,8.19534l0.01072,0.38181c0.14042,-0.01809 0.28096,-0.03563 0.42164,-0.05256c4.29542,-0.51694 8.62815,-0.95575 12.9623,-1.36912l-0.66092,-2.65018c-0.64905,-2.01921 -0.88067,-4.17809 -0.89968,-6.29896c0,0 0,-2.5 2.5,-2.5c2.5,0 2.5,2.5 2.5,2.5c-0.01903,1.65017 0.15708,3.34274 0.70029,4.90105l0.82504,3.29261c0,0 0.02716,0.10864 0.04699,0.28568c2.03304,-0.18856 4.06334,-0.37599 6.0872,-0.56775c1.64099,-0.15548 3.28801,-0.27957 4.93886,-0.38398c-0.02354,-2.35954 -0.28001,-4.72627 -0.74985,-7.03732c0,0 -0.49028,-2.45145 1.96117,-2.94174c2.45145,-0.49028 2.94174,1.96117 2.94174,1.96117c0.50227,2.54866 0.78809,5.15159 0.84007,7.75054c3.445,-0.15944 6.89696,-0.28471 10.33603,-0.48118c-0.57312,-0.51018 -0.79923,-1.18848 -0.79923,-1.18848l-0.89607,-2.79013c-0.01076,-1.46683 -0.02152,-2.93365 -0.03229,-4.40048c0,0 0,-2.5 2.5,-2.5c2.5,0 2.5,2.5 2.5,2.5c-0.01076,1.19984 -0.02152,2.39968 -0.03229,3.59952l0.70403,2.00986c0,0 0.5116,1.53469 -0.52282,2.54655c3.15205,-0.2348 6.28765,-0.55937 9.39138,-1.05559c0.92298,0.36715 1.82594,1.41363 2.76894,1.10146c0.67841,-0.22458 0.34549,-1.40733 0.31127,-2.12112c-0.0697,-1.45405 -0.42177,-2.88076 -0.62019,-4.3229c-0.61699,-4.48441 -1.36433,-9.00291 -1.78804,-13.51037c-1.17667,-12.51722 -0.37774,-25.10505 -1.60218,-37.6233c-0.60194,-6.154 -1.35031,-12.33778 -2.14138,-18.47118c-0.09565,-0.74159 -0.21415,-1.4658 -0.34474,-2.17883c-0.29935,0.64925 -0.92333,1.32589 -2.22395,1.32589zM198.30002,155.3c0.00814,-2.86045 -0.33985,-5.61935 -0.57947,-8.42048c-0.1089,2.36103 -0.54423,4.74148 -0.08738,7.04611c0.10792,0.5444 0.40193,1.02087 0.71318,1.49273zM133.50003,181.70002c0,0 0,-0.1832 0.04959,-0.45041c-0.28986,-0.25822 -0.54492,-0.62994 -0.72129,-1.15905c-0.79057,-2.37171 1.58114,-3.16228 1.58114,-3.16228c0.25345,-0.08369 0.50675,-0.1648 0.75993,-0.24343c-1.40317,-5.75704 -1.0097,-11.253 -1.65064,-17.0794c-0.46307,-4.20952 -2.61902,-7.61456 -3.88342,-11.49413c-1.46612,-4.49851 -1.2033,-9.50291 -1.71662,-14.10585c-0.71599,-6.42029 -1.66206,-12.54573 -1.58643,-19.10501c-1.1896,-3.56885 -1.59851,-7.83631 -1.63226,-11.60046v-2.24303c-2.0472,-0.05438 -4.23434,-0.25028 -5.99459,-0.07569c-1.66669,0.16531 -3.32351,0.41287 -4.97412,0.71187c0.49905,3.15384 0.75844,6.35578 0.75526,9.54796l0.75981,3.54387c0,0 0.51502,2.44638 -1.93136,2.9614c-2.44638,0.51502 -2.9614,-1.93136 -2.9614,-1.93136l-0.84017,-4.05611c-0.00295,-3.02574 -0.21423,-6.0633 -0.68277,-9.0535c-1.83133,0.41351 -3.65943,0.85293 -5.48935,1.2755c1.86099,0.00499 2.29916,1.97678 2.29916,1.97678c2.12344,9.55827 3.55121,19.2525 5.60476,28.82197c2.09821,9.77762 5.199,19.24468 7.58508,28.93538c2.21718,9.00474 3.75335,18.2347 5.26114,27.37876c-0.19904,1.1916 -1.10102,2.4768 -0.59713,3.57481c0.29633,0.64571 1.41097,-0.16882 2.1144,-0.26859c1.53064,-0.2171 3.0576,-0.45939 4.58745,-0.68198c1.31279,-0.19101 2.62376,-0.35823 3.93451,-0.50816c-0.77692,-3.86792 -0.63068,-7.46564 -0.63068,-11.50986zM215.266,92.48901l-0.03102,0.00517c0.01933,0.06637 0.03817,0.13291 0.05651,0.19962c0.37166,1.35191 0.00568,2.80413 0.00852,4.2062v1.98698c0.06378,0.28821 0.07836,0.60815 0,0.94522v0.26781c0,0 0,0.91821 -0.55647,1.64168c0.40513,2.74491 1.20848,5.4049 1.58342,8.26652c0.8117,6.195 1.55651,12.45015 2.16299,18.66767c1.33181,13.65333 0.25054,27.41087 2.05529,41.02105c0.00105,0.00789 1.31393,9.92066 1.31416,9.92251c0.22549,1.86445 0.98428,3.75748 0.62014,5.59988c-0.42334,2.142 -1.06868,4.67283 -2.8888,5.87888c-1.46013,0.96751 -3.48737,-0.33234 -5.23106,-0.49852c-10.61697,1.84991 -21.75551,1.36931 -32.51924,2.38873c-13.75297,1.30253 -27.40744,3.51379 -41.15988,4.59656c-4.71069,0.37088 -10.43253,2.12126 -15.0893,1.81501c-2.01766,-0.13269 -4.60232,0.09401 -5.8856,-1.4686c-1.36512,-1.66225 -0.39809,-4.28346 -0.59713,-6.42519c-1.49708,-8.87948 -2.97892,-17.84657 -5.13317,-26.59574c-2.39863,-9.74167 -5.51171,-19.26071 -7.62058,-29.09012c-2.05,-9.55497 -3.4739,-19.23469 -5.5952,-28.77801c0,0 -0.43273,-1.94731 1.21437,-2.74954c-1.02662,0.23072 -2.05421,0.45279 -3.08366,0.65868c-6.22166,1.24432 -12.05043,1.71051 -17.77226,4.58461c0,0 -2.23608,1.11802 -3.35409,-1.11806c-1.11802,-2.23608 1.11806,-3.35409 1.11806,-3.35409c6.17912,-3.07657 12.36073,-3.68198 19.02773,-5.01536c6.72299,-1.34458 13.37696,-3.34421 20.18483,-4.02982c2.88708,-0.29075 5.82683,0.38185 8.70505,0.01355c5.02517,-0.64303 10.18169,-2.39252 15.29494,-2.41354c3.80787,-0.97591 8.04139,-2.62522 11.90499,-3.18646c2.14253,-0.31123 4.34759,0.26173 6.49504,-0.01355c5.34983,-0.68579 10.69757,-1.12561 16.09925,-1.61022c4.58717,-0.41153 9.01016,-1.97752 13.59997,-2.39999c4.17877,-0.38464 8.44087,-0.31521 12.60579,-0.77622c3.1772,-0.35168 6.46589,-1.25614 9.69499,-1.61356c2.10511,-0.23301 4.29575,-0.1167 6.30503,-0.78644c2.26674,-0.02032 4.53358,-0.03228 6.80041,-0.03228l2.56775,1.53222c0,0 1.76777,1.76777 0,3.53553c-1.76777,1.76777 -3.53553,0 -3.53553,0l0.96778,-0.06775c-1.99987,0 -3.99978,-0.00922 -5.99952,-0.03228c-1.59042,0.53013 -3.23022,0.8114 -4.89098,0.98223z" fill="#696969" stroke-width="0.5"></path>
      <path d="M204.95406,68.42504c-1.53633,0.59997 -3.12096,1.1732 -4.55357,1.34267c-2.84399,0.33643 -5.78041,0.05422 -8.55878,0.74855c-2.74981,0.68719 -5.15984,2.2514 -7.8511,3.15544c0,0 -2.37171,0.79057 -3.16228,-1.58114c-0.79057,-2.37171 1.58114,-3.16228 1.58114,-3.16228c2.80509,-0.9267 5.27063,-2.52474 8.1489,-3.24452c2.93664,-0.73438 6.02998,-0.54209 9.0412,-0.85149c2.01192,-0.20672 4.45785,-1.4612 6.44163,-2.17602c-0.62389,-3.38525 -1.67811,-6.77613 -2.11625,-10.20385c-0.21937,-1.71618 0.43313,-5.45202 -1.23926,-7.02579c-0.40749,-0.38346 -1.09128,0.24836 -1.63933,0.36121c-2.36515,0.48702 -4.78524,0.80002 -7.20002,0.80002c-3.81486,0.77088 -6.9216,2.2914 -10.68896,3.23008c-1.52206,0.37924 -3.16695,0.15266 -4.66511,0.61743c-1.8677,0.57942 -3.36146,2.21971 -5.29181,2.53236c-1.08421,0.17561 -2.20449,-0.11738 -3.29501,0.01355c-2.20511,0.26475 -3.17464,1.01209 -5.26375,1.53498c-6.30771,1.57879 -13.01619,4.02641 -19.44125,4.85146c-3.47261,0.44592 -7.02037,0.38967 -10.49501,0.81357c-2.18279,0.2663 -4.21466,1.35513 -6.39997,1.59998c-0.67328,0.07543 -5.83914,0.00105 -7.105,-0.01355c-1.81919,0.60641 -3.79157,0.58075 -5.69498,0.81357c-4.2481,0.5196 -8.32806,2.75758 -12.58066,3.19752c-0.11393,0.01179 -8.0142,-0.57631 -8.72065,1.10086c-0.59907,1.42225 0.56389,3.03987 0.99613,4.52138c1.00875,3.45749 3.1309,7.1277 0.16744,10.46675c-0.79302,0.89353 -2.2013,0.92935 -3.30786,1.37967c-3.9319,1.60014 -7.13814,2.3835 -10.77365,4.59628c0,0 -2.14373,1.28625 -3.42998,-0.85748c-1.28625,-2.14373 0.85748,-3.42998 0.85748,-3.42998c1.44318,-0.85533 2.79691,-1.88379 4.32954,-2.566c2.57267,-1.14514 6.43189,-1.22659 8.78896,-2.65806c0.9107,-0.55308 -0.31463,-2.1163 -0.63254,-3.13326c-0.93292,-2.98423 -3.0318,-7.5692 -1.40389,-10.67861c2.32805,-4.4467 8.72896,-3.33818 12.47936,-3.69918c4.24552,-0.40866 8.36768,-2.66028 12.61941,-3.20244c1.83873,-0.23447 3.74647,-0.20029 5.50497,-0.78647c2.43158,-0.0218 4.87792,0.25234 7.29502,-0.01355c2.18579,-0.24045 4.21871,-1.32136 6.39996,-1.59997c3.41328,-0.43598 6.89071,-0.37263 10.30504,-0.78647c9.44378,-1.14464 18.53573,-5.28859 28,-6.39999c1.61176,-0.18927 2.76125,-1.77706 4.30816,-2.26762c1.68233,-0.5335 3.52252,-0.36742 5.23438,-0.7968c4.00274,-1.00399 7.31672,-2.5437 11.41155,-3.35568c2.80821,0 9.64238,-2.25235 11.9607,-0.43881c1.7984,1.40683 2.61486,3.81454 3.34351,5.97845c0.48942,1.45345 0.02201,3.07462 0.21715,4.5958c0.76077,5.93026 3.65615,12.08741 1.95309,18.0906c-0.20323,0.71638 0.94808,-1.20579 1.608,-1.55077c1.37083,-0.71661 2.85714,-1.18784 4.304,-1.73492c2.84943,-1.07742 5.87052,-2.68497 8.8693,-3.22422c1.53364,-0.27579 3.45835,-1.45763 4.65237,-0.45642c1.36145,1.1416 0.8588,3.46047 1.03823,5.22812c0.2693,2.65303 0,5.33333 0,8v0.79999c0,0 0,2.5 -2.5,2.5c-2.5,0 -2.5,-2.5 -2.5,-2.5v-0.79999c0,-2.53241 -0.39895,-5.09814 -0.06026,-7.60226c-0.45692,0.11951 -0.94278,0.1857 -1.37984,0.34971c-3.25751,1.22247 -6.95528,2.35527 -10.09604,3.86509c-1.12108,0.53892 -1.98814,1.85768 -3.23201,1.86534c-1.69819,0.01046 -3.69295,-0.49498 -4.75997,-1.81613c-0.37586,-0.46538 -0.4822,-1.70152 -0.49173,-3.09833c-0.72096,-0.23826 -1.11297,-0.75112 -1.32612,-1.23839z" fill="#696969" stroke-width="0.5"></path>
      <path d="M125.02238,128.78141c-2.2814,1.02235 -3.30376,-1.25905 -3.30376,-1.25905l-1.0752,-2.40776c-1.90102,-5.83843 -2.34341,-10.94949 -2.34341,-17.01459c0,0 0,-2.5 2.5,-2.5c2.5,0 2.5,2.5 2.5,2.5c0,5.43616 0.28513,9.98086 2.00724,15.21217l0.97418,2.16547c0,0 1.02235,2.2814 -1.25905,3.30376z" fill="#696969" stroke-width="0.5"></path>
      <path d="M121.21101,148.96599c-2.46599,0.41099 -2.87698,-2.05499 -2.87698,-2.05499l-0.7996,-4.79766c-0.81583,-4.88581 -2.34681,-9.34476 -3.90612,-14.02279c0,0 -0.79055,-2.37171 1.58116,-3.16227c2.37171,-0.79055 3.16227,1.58116 3.16227,1.58116c1.64215,4.92657 3.21896,9.63389 4.09388,14.77726l0.80038,4.80232c0,0 0.41099,2.46599 -2.05499,2.87698z" fill="#696969" stroke-width="0.5"></path>
      <path d="M128.4433,164.9604c-2.46039,0.44327 -2.90366,-2.01712 -2.90366,-2.01712l-0.09329,-0.51783c-1.26424,-7.02447 -0.89254,-14.12296 -2.2978,-21.03516c0,0 -0.49028,-2.45145 1.96117,-2.94174c2.45145,-0.49028 2.94174,1.96117 2.94174,1.96117c1.37565,6.98041 1.04083,14.06051 2.31567,21.12919l0.09329,0.51783c0,0 0.44327,2.46039 -2.01712,2.90366z" fill="#696969" stroke-width="0.5"></path>
      <path d="M126.60915,184.99124c-2.49124,0.20916 -2.70039,-2.28208 -2.70039,-2.28208l-0.09149,-1.2324c-0.92779,-5.07233 -2.15338,-10.09204 -3.78896,-14.98614c0,0 -0.79061,-2.37169 1.58108,-3.16231c2.37169,-0.79061 3.16231,1.58108 3.16231,1.58108c1.703,5.12065 2.98686,10.36081 3.96344,15.66479l0.1561,1.71666c0,0 0.20916,2.49124 -2.28208,2.70039z" fill="#696969" stroke-width="0.5"></path>
      <path d="M210.39999,168.20002c-2.5,0 -2.5,-2.5 -2.5,-2.5l0.04855,-2.89034c0.45416,-2.25729 0.95559,-4.51455 1.67977,-6.70024c0,0 0.79056,-2.37171 3.16227,-1.58115c2.37171,0.79056 1.58115,3.16227 1.58115,3.16227c-0.66667,1.98657 -1.11186,4.04449 -1.5203,6.09975l0.04855,1.90971c0,0 0,2.5 -2.5,2.5z" fill="#696969" stroke-width="0.5"></path>
      <path d="M210.71804,141.53606c-2.23607,1.11803 -3.3541,-1.11803 -3.3541,-1.11803l-1.05092,-2.4634c-0.26341,-2.7766 -1.09636,-5.51312 -2.21088,-8.06982c0,0 -0.98481,-2.29786 1.31305,-3.28267c2.29786,-0.98481 3.28267,1.31305 3.28267,1.31305c1.28063,3.03258 2.23357,6.25759 2.58917,9.53022l0.54905,0.73655c0,0 1.11803,2.23607 -1.11803,3.3541z" fill="#696969" stroke-width="0.5"></path>
      <path d="M197.40635,125.72535c-2.42536,0.60633 -3.03169,-1.81902 -3.03169,-1.81902l-0.87463,-3.80631c0.63967,-2.78353 1.16564,-5.59358 1.63399,-8.411c0,0 0.41099,-2.46599 2.87698,-2.05499c2.46599,0.41099 2.05499,2.87698 2.05499,2.87698c-0.42565,2.54765 -0.87454,5.1003 -1.56596,7.589l0.72535,2.59365c0,0 0.60633,2.42536 -1.81902,3.03169z" fill="#696969" stroke-width="0.5"></path>
      <path d="M175.20004,125.30001l2.5,-1.2c-0.01866,1.6186 0.13661,3.28174 0.6717,4.80945c0,0 0.79055,2.37171 -1.58116,3.16227c-2.37171,0.79055 -3.16227,-1.58116 -3.16227,-1.58116c-0.29488,-0.91826 -0.50799,-1.86446 -0.65515,-2.82283c-0.27312,-0.59641 -0.27312,-1.16774 -0.27312,-1.16774l0.12021,-0.0577c-0.07593,-0.77996 -0.11322,-1.5635 -0.12021,-2.3423z" fill="#696969" stroke-width="0.5"></path>
      <path d="M152.19369,124.87464c2.42536,-0.60633 3.03169,1.81903 3.03169,1.81903l0.87279,3.90228c-0.30881,1.03154 -0.61762,2.06307 -0.92643,3.09461c0,0 -0.79056,2.37171 -3.16227,1.58115c-2.37171,-0.79056 -1.58115,-3.16227 -1.58115,-3.16227c0.22451,-0.56846 0.44903,-1.13692 0.67354,-1.70538l-0.72719,-2.49774c0,0 -0.60633,-2.42536 1.81903,-3.03169z" fill="#696969" stroke-width="0.5"></path>
      <path d="M161.60001,125.60001c2.5,0 2.5,2.5 2.5,2.5c0,1.33333 0,5.06666 0,6.39999c0,0 0,2.5 -2.5,2.5c-2.5,0 -2.5,-2.5 -2.5,-2.5c0,-1.33333 0,-2.66667 0,-4v-2.39999c0,0 0,-2.5 2.5,-2.5z" fill="#696969" stroke-width="0.5"></path>
      <path d="M167.20004,126.4c2.5,0 2.5,2.5 2.5,2.5c0,1.33333 0,3.46668 0,4.80002c0,0 0,2.5 -2.5,2.5c-2.5,0 -2.5,-2.5 -2.5,-2.5c0,-1.33333 0,-2.66667 0,-4v-0.80002c0,0 0,-2.5 2.5,-2.5z" fill="#696969" stroke-width="0.5"></path>
      <path d="M162.39999,140.00001c2.5,0 2.5,2.5 2.5,2.5c0,1.33333 0,3.46665 0,4.79999c0,0 0,2.5 -2.5,2.5c-2.5,0 -2.5,-2.5 -2.5,-2.5c0,-1.33333 0,-2.66667 0,-4v-0.79999c0,0 0,-2.5 2.5,-2.5z" fill="#696969" stroke-width="0.5"></path>
      <path d="M168.00003,140.8c2.5,0 2.5,2.5 2.5,2.5v4c0,0 0,2.5 -2.5,2.5c-2.5,0 -2.5,-2.5 -2.5,-2.5v-4c0,0 0,-2.5 2.5,-2.5z" fill="#696969" stroke-width="0.5"></path>
      <path d="M173.60938,137.72832c2.37169,-0.79061 3.16231,1.58108 3.16231,1.58108l0.89607,2.79013c0.01076,1.46683 0.02152,2.93365 0.03229,4.40048c0,0 0,2.5 -2.5,2.5c-2.5,0 -2.5,-2.5 -2.5,-2.5c0.01076,-1.19984 0.02152,-2.39968 0.03229,-3.59952l-0.70403,-2.00986c0,0 -0.79061,-2.37169 1.58108,-3.16231z" fill="#696969" stroke-width="0.5"></path>
      <path d="M156.02828,160.09055c-0.79055,-2.37171 1.58116,-3.16227 1.58116,-3.16227c0.14455,-0.04818 0.36747,-0.12249 0.64042,-0.21347c0.45095,-0.44216 1.06872,-0.71481 1.75017,-0.71481c0.11175,0 0.2218,0.00733 0.32967,0.02154c0.88689,-0.29562 1.72258,-0.57418 2.07979,-0.69325c0,0 2.37171,-0.79055 3.16227,1.58116c0.79055,2.37171 -1.58116,3.16227 -1.58116,3.16227c-0.80001,0.26666 -1.60002,0.53333 -2.40002,0.79999l-2.40002,0.79999c0,0 -2.37171,0.79055 -3.16227,-1.58116z" fill="#696969" stroke-width="0.5"></path>
      <path d="M167.89999,158.50001c0,-2.5 2.5,-2.5 2.5,-2.5l0.00948,0.12829c0.79999,-0.26666 1.59998,-0.53333 2.39996,-0.79999c0,0 2.37171,-0.79057 3.16228,1.58114c0.79057,2.37171 -1.58114,3.16228 -1.58114,3.16228c-0.79999,0.26666 -1.59998,0.53333 -2.39996,0.79999l-1.59062,0.12829c0,0 -2.5,0 -2.5,-2.5z" fill="#696969" stroke-width="0.5"></path>
      <path d="M144.16776,106.33225c1.76777,1.76777 0,3.53553 0,3.53553l-1.77716,1.40392c-2.23439,0.66894 -4.72079,0.56275 -6.99692,0.05365c0,0 -2.42535,-0.60635 -1.819,-3.0317c0.60635,-2.42535 3.0317,-1.819 3.0317,-1.819c1.34526,0.39168 2.89987,0.56837 4.20303,0.05365l-0.17718,-0.19606c0,0 1.76777,-1.76777 3.53553,0z" fill="#696969" stroke-width="0.5"></path>
      <path d="M147.10001,107.3c0,-1.38071 1.11929,-2.5 2.5,-2.5c1.38071,0 2.5,1.11929 2.5,2.5c0,1.38071 -1.11929,2.5 -2.5,2.5c-1.38071,0 -2.5,-1.11929 -2.5,-2.5z" fill="#696969" stroke-width="0.5"></path>
      <path d="M184.16773,101.53219c1.7678,1.76773 0.00007,3.53553 0.00007,3.53553l-2.56779,1.53229c-1.33333,0 -2.66667,0 -4,0c0,0 -1.21692,0 -1.9527,-0.84903c-0.2655,0.04901 -0.44727,0.04901 -0.44727,0.04901h-1.60004c-2.15245,-0.0193 -4.34109,-0.27012 -6.39055,-0.92828c0,0 -2.37171,-0.79057 -1.58114,-3.16228c0.79057,-2.37171 3.16228,-1.58114 3.16228,-1.58114c1.52769,0.5351 3.19082,0.69036 4.80941,0.6717h1.60004c0,0 1.21692,0 1.9527,0.84903c0.2655,-0.04901 0.44727,-0.04901 0.44727,-0.04901c1.33333,0 2.66667,0 4,0l-0.96781,-0.06775c0,0 1.76773,-1.7678 3.53553,-0.00007z" fill="#696969" stroke-width="0.5"></path>
      <path d="M124.96788,77.06769c-1.3832,1.3833 -2.76648,0.60186 -3.3028,0.19646c-7.09856,1.81188 -13.96633,3.84499 -21.17474,5.28731c0,0 -2.45145,0.4903 -2.94175,-1.96115c-0.4903,-2.45145 1.96115,-2.94175 1.96115,-2.94175c7.58114,-1.51564 14.77986,-3.69616 22.28393,-5.57391l3.17409,1.45751c0,0 1.76783,1.7677 0.00013,3.53553z" fill="#696969" stroke-width="0.5"></path>
      <path d="M172.96788,67.93232c1.7677,1.76783 -0.00013,3.53553 -0.00013,3.53553l-1.4497,1.26821c-1.78925,0.8909 -4.23911,2.31774 -6.31758,2.63165c-2.10941,0.31859 -4.28906,-0.30831 -6.4,0c-0.91413,0.13351 -1.72125,0.82483 -2.64508,0.82747c-2.38489,0.00681 -4.74058,-1.08718 -7.10902,-0.80735c-4.28726,0.50653 -7.16205,1.98449 -11.43693,0.6839c0,0 -2.37171,-0.79055 -1.58116,-3.16227c0.79055,-2.37171 3.16227,-1.58116 3.16227,-1.58116c3.20647,1.22919 6.02039,-0.56386 9.36312,-0.91614c2.43119,-0.25621 4.84637,0.78413 7.29101,0.79268c0.76305,0.00267 1.39915,-0.66689 2.15485,-0.77257c2.11279,-0.29546 4.28485,0.27773 6.40005,0c1.21071,-0.15897 4.22926,-1.84026 4.88237,-2.16833l0.1504,-0.33176c0,0 1.76783,-1.7677 3.53553,0.00013z" fill="#696969" stroke-width="0.5"></path>
      <path d="M123.03607,207.78193c1.11807,2.23605 -1.11798,3.35412 -1.11798,3.35412l-1.92749,0.93568c-3.78729,1.2624 -8.06172,3.74749 -11.10025,-1.415c-0.7673,-1.30365 0.34738,-3.03332 0.86389,-4.45511c0.11782,-0.32432 0.32722,-0.59718 0.56383,-0.85479c-0.65968,0.2389 -1.37444,0.32588 -1.61906,0.35345c-1.89935,0.21405 -4.29534,1.35759 -5.73329,0.09835c-1.22782,-1.07523 0.01914,-3.27536 0.26257,-4.88918c0.302,-2.00213 1.81069,-3.64372 2.39428,-5.58257c0.43182,-1.43461 0.4743,-2.95859 0.71146,-4.43789c0,0 0.41099,-2.46599 2.87698,-2.055c2.46599,0.41099 2.055,2.87698 2.055,2.87698c-0.50435,2.9302 -1.38578,5.81254 -2.55631,8.54572c-0.012,0.02802 -0.02336,0.05639 -0.03414,0.08506c0.45856,-0.12767 0.83604,-0.19317 0.93388,-0.21348c1.44817,-0.30061 3.24176,-1.54757 4.39362,-0.61979c1.60227,1.29057 2.00411,3.76154 2.06027,5.81817c0.03248,1.18926 -1.10526,2.11873 -1.8175,3.07168c-0.16222,0.21704 -0.90695,0.13463 -0.73609,0.34494c0.51948,0.63944 4.67865,-1.3413 4.89975,-1.415l1.27246,-0.66435c0,0 2.23605,-1.11807 3.35412,1.11798z" fill="#696969" stroke-width="0.5"></path>
      <path d="M245.66817,70.4905c-2.39049,-0.73182 -1.65867,-3.12231 -1.65867,-3.12231l1.13495,-3.70522c0.09159,-0.34891 0.76462,-3.24607 1.42633,-5.28837c-0.48039,0.34015 -1.01449,0.6115 -1.55936,0.81167c-3.1056,1.14092 -7.47351,2.24195 -9.06289,-2.59599c-0.34268,-1.04309 0.32651,-2.10615 1.06431,-3.07681c-0.93547,0.2431 -1.89646,0.3756 -2.84142,0.27604c-1.66464,-0.17538 -3.13327,-1.17887 -4.6999,-1.76831c0,0 -2.3212,-0.92846 -1.39273,-3.24966c0.92846,-2.3212 3.24966,-1.39273 3.24966,-1.39273c1.10003,0.47721 2.10614,1.32085 3.3001,1.43164c2.44672,0.22705 6.96283,-3.32286 9.09807,0.37521c1.25649,2.17614 0.15732,4.4993 -1.49058,5.71573c0.25953,-0.07615 0.5153,-0.1606 0.75258,-0.28768c1.53889,-0.82422 5.24647,-4.43367 7.27317,-2.14181c2.78203,3.146 0.52759,9.27317 -0.30496,12.54791l-1.16635,3.81201c0,0 -0.73182,2.39049 -3.12231,1.65867z" fill="#696969" stroke-width="0.5"></path>
      <path d="M373.79364,138.52537c-2.42535,-0.60636 -1.81899,-3.03171 -1.81899,-3.03171l1.18736,-4.74928c0.738,-2.95036 1.63885,-5.846 2.48543,-8.7579c-0.70775,0.6024 -1.43892,1.18187 -2.18564,1.74166c-0.88997,0.66719 -2.15194,0.735 -3.00727,1.44606c-0.82057,0.68216 -0.86218,2.2339 -1.86338,2.60305c-2.19141,0.80799 -4.94466,1.80871 -6.97608,0.65613c-1.51348,-0.85871 -1.46212,-3.88258 -0.92315,-6.43248c-2.05366,1.82858 -4.14153,3.46893 -6.12413,5.46691c0,0 -1.76777,1.76777 -3.53553,0c-1.76777,-1.76777 0,-3.53553 0,-3.53553c2.54115,-2.52422 5.24919,-4.4411 7.79069,-6.97358l1.47541,-2.21314c0.44513,-0.68926 1.22011,-1.14553 2.10164,-1.14553c1.22887,0 2.25065,0.88664 2.46053,2.0551l0.79097,3.95458l-0.03528,0.00706c0.02465,0.07869 0.04855,0.15765 0.07167,0.2369c0.32162,1.10285 0.22831,2.31807 0.01217,3.44634c-0.098,0.51156 -1.08151,0.77312 -0.91502,1.26666c0.14837,0.43984 0.74504,-0.57277 1.02392,-0.94385c0.515,-0.68526 0.67872,-1.64743 1.33657,-2.197c0.97702,-0.81621 2.37443,-0.98983 3.39275,-1.75389c2.88564,-2.16514 5.77176,-4.81515 7.29949,-8.02673l0.13846,-0.09438l-0.05632,-0.03754l1.57847,-2.36773c0.44513,-0.68926 1.22011,-1.14553 2.10164,-1.14553c1.38071,0 2.5,1.11929 2.5,2.5c0,0.34826 -0.07121,0.67988 -0.19986,0.9811l-1.57892,3.94736l-0.34863,-0.13945c-0.94684,5.60805 -2.51925,10.90206 -3.95989,16.66805l-1.18737,4.7493c0,0 -0.60636,2.42535 -3.03171,1.81899z" fill="#696969" stroke-width="0.5"></path>
    </g>
  </g>
</svg>
