<?xml version="1.0" encoding="UTF-8"?>
<svg xmlns="http://www.w3.org/2000/svg" xmlns:xlink="http://www.w3.org/1999/xlink" version="1.1" width="247.43644" height="125.78334" viewBox="0,0,247.43644,125.78334">
  <g transform="translate(-116.41661,-112.32627)">
    <g stroke-width="0" stroke-miterlimit="10">
      <path d="M121.21955,232.93482l-0.35562,-16.86825c0,0 21.69571,-21.88477 37.87681,-41.17183c10.26909,-12.24024 30.38058,-32.61511 44.3589,-45.16787c7.31334,-6.5675 14.4004,-10.99386 14.4004,-10.99386l1.9323,-4.5l139.34819,79.93068v38.77113z" fill="#ffffff" stroke="#000000"></path>
      <path d="M219.80003,163.95v-41.5h11v41.5z" fill="#b7b7b7" stroke="none"></path>
      <path d="M231.61886,209.39522l-101.98042,20.39595l-2.15726,-10.78639l101.98042,-20.39595z" fill="#b7b7b7" stroke="none"></path>
      <path d="M353.77864,209.68051l-122.23749,8.0154l-0.71975,-10.97643l122.23749,-8.0154z" fill="#b7b7b7" stroke="none"></path>
      <path d="M125.80003,227.95v-8h11v8z" fill="#b7b7b7" stroke="none"></path>
      <path d="M343.30003,227.95v-26.5h11v26.5z" fill="#b7b7b7" stroke="none"></path>
      <path d="M227.20806,196.27627v-71.32705h10.14499v71.32705z" fill="#000000" stroke="none"></path>
      <path d="M116.9026,227.86231h246.83038v10.14499h-246.83037z" fill="#000000" stroke="none"></path>
      <path d="M353.70807,238.10961v-45.66038h10.14499v45.66038z" fill="#000000" stroke="none"></path>
      <path d="M116.70807,238.10961v-18.16038h10.14499v18.16038z" fill="#000000" stroke="none"></path>
      <path d="M214.67888,122.84603v-10.51976h10.51976v10.51976z" fill="#000000" stroke="none"></path>
      <path d="M224.93875,128.48798v-10.51976h10.51976v10.51976z" fill="#000000" stroke="none"></path>
      <path d="M235.63699,134.161v-10.51976h10.51976v10.51976z" fill="#000000" stroke="none"></path>
      <path d="M246.41661,139.13417v-10.51977h10.51976v10.51977z" fill="#000000" stroke="none"></path>
      <path d="M256.67645,144.77612v-10.51976h10.51976v10.51976z" fill="#000000" stroke="none"></path>
      <path d="M267.37467,150.44914v-10.51976h10.51976v10.51976z" fill="#000000" stroke="none"></path>
      <path d="M278.15432,154.7622v-10.51977h10.51976v10.51977z" fill="#000000" stroke="none"></path>
      <path d="M288.41418,160.40415v-10.51976h10.51976v10.51976z" fill="#000000" stroke="none"></path>
      <path d="M299.55951,167.84603v-10.51976h10.51976v10.51976z" fill="#000000" stroke="none"></path>
      <path d="M309.8194,173.48798v-10.51976h10.51976v10.51976z" fill="#000000" stroke="none"></path>
      <path d="M320.51759,179.161v-10.51976h10.51976v10.51976z" fill="#000000" stroke="none"></path>
      <path d="M331.29722,184.13417v-10.51977h10.51976v10.51977z" fill="#000000" stroke="none"></path>
      <path d="M341.55713,189.77612v-10.51976h10.51976v10.51976z" fill="#000000" stroke="none"></path>
      <path d="M352.05713,195.77612v-10.51976h10.51976v10.51976z" fill="#000000" stroke="none"></path>
      <path d="M204.05714,128.84603v-10.51976h10.51976v10.51976z" fill="#000000" stroke="none"></path>
      <path d="M193.79728,138.98798v-10.51976h10.51976v10.51976z" fill="#000000" stroke="none"></path>
      <path d="M184.59904,147.161v-10.51976h10.51976v10.51976z" fill="#000000" stroke="none"></path>
      <path d="M174.31942,157.63417v-10.51977h10.51976v10.51977z" fill="#000000" stroke="none"></path>
      <path d="M164.55955,168.77612v-10.51976h10.51976v10.51976z" fill="#000000" stroke="none"></path>
      <path d="M154.36135,179.44914v-10.51976h10.51976v10.51976z" fill="#000000" stroke="none"></path>
      <path d="M145.08168,190.7622v-10.51977h10.51976v10.51977z" fill="#000000" stroke="none"></path>
      <path d="M135.82182,199.90415v-10.51976h10.51976v10.51976z" fill="#000000" stroke="none"></path>
      <path d="M126.17651,210.84603v-10.51976h10.51976v10.51976z" fill="#000000" stroke="none"></path>
      <path d="M116.41662,220.98798v-10.51976h10.51976v10.51976z" fill="#000000" stroke="none"></path>
      <path d="M124.08087,214.32082l119.4984,-23.72284l1.97544,9.9508l-119.4984,23.72284z" fill="#000000" stroke="none"></path>
      <path d="M230.20992,200.5546l129.05968,-8.36336l0.65604,10.12376l-129.05968,8.36336z" fill="#000000" stroke="none"></path>
      <path d="M228.74288,196.62712l-26.35187,-67.22714l9.42723,-3.8016l26.35187,67.22714z" fill="#000000" stroke="none"></path>
    </g>
  </g>
</svg>
