<?xml version="1.0" encoding="UTF-8"?>
<svg xmlns="http://www.w3.org/2000/svg" xmlns:xlink="http://www.w3.org/1999/xlink" version="1.1" width="115.22178" height="115.22177" viewBox="0,0,115.22178,115.22177">
  <g transform="translate(-182.38911,-122.38912)">
    <g stroke-miterlimit="10">
      <path d="M296.36088,223.24575c0,7.9788 -6.32551,13.11514 -12.47226,13.11514c-13.06451,0 -62.8835,0 -87.00577,0c-8.05426,0 -13.24374,-6.26142 -13.24374,-15.68675c0,-24.44785 0,-70.18266 0,-83.14837c0,-6.73371 5.74984,-13.88665 14.52954,-13.88665c24.30136,0 71.81534,0 84.86278,0c6.50435,0 13.32946,6.6496 13.32946,13.02945c0,13.23182 0,62.66727 0,86.57718z" fill-opacity="0.34118" fill="#909090" stroke-opacity="0.45882" stroke="#000000" stroke-width="2.5"></path>
      <path d="M228.14166,169.68704c-0.73597,0.03339 -1.47627,-0.02894 -2.20983,0.03927c-3.4695,0.32261 -1.96752,1.68988 -1.0959,3.89184c0.38939,0.9837 0.85978,2.63856 0.98282,4.11966c1.6879,-2.34731 3.37181,-4.7042 5.18184,-6.94659c-0.99861,-0.21968 -1.87683,-0.48947 -2.85894,-1.10418zM216.792,182.2824c0,0 -0.39551,-0.29663 -0.50251,-0.76554c-0.00935,-0.01139 -0.01415,-0.01779 -0.01415,-0.01779l-0.83732,-1.11918c-1.09018,-1.81277 -2.61452,-3.63684 -3.34502,-5.62515c-1.85021,-5.03595 0.03998,-10.96802 4.58083,-13.7681c3.75345,-1.87908 8.6724,-3.4156 12.97127,-3.08331c3.71587,0.28722 10.46091,0.94332 13.57519,-1.69024c-3.3092,-3.91475 -1.54891,-10.51596 2.34353,-13.50891c5.76617,-4.43369 13.31651,-5.10861 19.6424,-1.9025c6.60151,6.6015 2.784,18.44292 -6.38851,19.28347l-0.12515,0.21445c-1.48554,1.47901 -1.4816,1.66117 -1.5231,3.67974c0.42547,1.00831 0.72394,2.61537 1.3647,3.47603c0.48135,0.64655 1.35293,0.88599 1.96019,1.41604c0.21776,0.19007 1.36493,1.46298 1.82454,1.66986c3.49339,1.57244 5.73805,-4.91883 8.09223,-6.53959c2.48342,-1.70973 5.60215,-1.65897 8.27665,-0.60899c1.42284,1.0512 2.95605,1.85116 3.52556,3.68936c1.51551,4.89156 -3.82908,9.26605 -6.72077,12.15089c-1.37207,1.36882 -2.50758,3.14973 -4.37367,3.99057c-2.4974,1.1253 -5.41934,1.18065 -8.10006,1.16945c-2.94956,-0.58829 -5.90971,-2.32638 -8.18065,-4.31567c-0.32298,-0.28292 -1.951,-2.65879 -2.50282,-3.7141c-0.30134,0.70796 -1.59472,1.9061 -1.75603,2.15001c-1.18576,1.79279 -2.09287,3.75504 -3.24119,5.55855c5.5414,3.0288 11.34963,4.31005 12.78113,11.48745c0.01504,3.60097 0.66185,7.06546 -0.90826,10.51217c-3.08868,6.78027 -13.44594,8.39555 -20.04746,7.10341c-2.11285,-0.4226 -3.90295,-0.52066 -5.86693,-1.41876c-4.12861,-1.88795 -5.38544,-7.54776 -0.53147,-9.74811c2.22655,-1.00932 4.88588,-1.09994 7.18788,-2.12785c1.61909,-0.72297 3.81501,-2.18376 3.32414,-4.10817c-0.97675,-2.77294 -5.23777,-3.2806 -7.70327,-2.38316c-1.91586,0.69737 -2.49738,2.11513 -3.81467,3.44421c-3.5114,3.54283 -6.55614,7.62281 -10.13332,11.19999c-4.45471,4.4372 -9.07317,10.35655 -15.14488,12.56512c-5.28783,1.92344 -9.96568,-0.94571 -8.77158,-6.69976c5.05248,-8.58294 12.5676,-15.787 18.5286,-23.71341c1.44083,-2.37604 3.38957,-4.31154 5.11872,-6.47177c0.13967,-0.17449 0.27864,-0.34969 0.41696,-0.52555c-1.70992,0.39756 -3.60415,0.08715 -4.98171,-0.90519zM223.28947,179.02045c1.3204,-4.18053 -5.97189,-9.30431 0.82967,-11.46957c0.50731,-0.1615 1.03688,-0.25662 1.56635,-0.3124c0.47642,-0.0502 2.72974,0.02856 3.1235,0.03927c1.43409,0.8293 2.31822,0.99359 3.91148,1.31225l0.09949,0.04396c0.63673,-0.71955 1.29228,-1.4218 1.97149,-2.10212c0,0 0.88388,-0.88388 1.76777,0c0.88388,0.88388 0,1.76777 0,1.76777c-5.06263,5.05369 -8.78023,11.38446 -13.23196,16.95205c-1.68869,2.11197 -3.6299,3.99264 -5.01462,6.32822c-5.85329,7.82376 -13.12347,14.8753 -18.27141,23.21992c-0.69805,3.72158 2.48805,4.57506 5.62844,3.43358c5.62837,-2.04581 10.07447,-7.83596 14.18845,-11.9682c3.57568,-3.57568 6.58752,-7.69022 10.13333,-11.2c1.57706,-1.56104 2.43491,-3.19265 4.71866,-4.02247c4.10458,-1.49143 9.22001,-0.08016 10.96339,4.01682c1.22667,7.06315 -7.4387,7.31742 -11.88796,9.23066c-3.82877,1.64642 -0.61942,5.21662 1.91031,5.90897c1.15667,0.31656 2.72337,0.27725 3.95797,0.52418c5.37724,1.10297 14.73739,-0.07385 17.28588,-5.6966c1.36766,-3.01748 0.67589,-6.07443 0.69171,-9.22119c-1.27345,-6.34241 -7.66793,-7.2806 -12.6022,-10.1742c-0.07726,-0.0392 -0.15642,-0.08837 -0.23721,-0.14896c-1,-0.75 -0.24999,-1.75 -0.24999,-1.75c2.16339,-2.85977 3.1944,-6.38039 5.92236,-8.869c0.56616,-0.51648 0.97839,-1.52366 1.7443,-1.49767c1.33585,0.04532 1.94098,2.05308 2.58526,2.88074c1.95775,2.51496 5.29135,5.02018 8.47125,5.65868c2.26769,-0.0114 4.71615,-0.04161 6.83329,-0.96389c1.54798,-0.67434 2.50189,-2.34919 3.62633,-3.47608c2.1658,-2.17051 7.14674,-5.89635 6.07924,-9.71578c-0.27897,-0.99813 -1.59204,-1.60462 -2.3411,-2.1773c-7.83281,-3.23679 -8.7686,10.51544 -16.16449,7.25143c-1.0888,-0.48052 -1.59116,-1.31698 -2.4421,-2.06348c-0.42447,-0.37238 -2.04219,-1.43311 -2.30649,-1.78397c-0.84277,-1.1188 -1.33344,-3.21854 -1.83529,-4.52397c-0.03415,-2.37713 0.12448,-3.51818 1.40251,-5.04527c-0.05735,-0.14424 -0.09173,-0.31716 -0.09173,-0.52445c0,-1.25 1.25,-1.25 1.25,-1.25h0.52993c0.12387,-0.02754 0.2613,-0.03397 0.41231,-0.00872c7.02312,-0.32567 10.68063,-9.64011 5.52686,-14.79389c-5.31321,-2.61159 -11.82362,-1.86956 -16.62424,1.83084c-2.7654,2.13162 -4.91888,8.1132 -1.36153,10.5551c0,0 1,0.75 0.25001,1.75c-0.14362,0.19149 -0.2964,0.31881 -0.44957,0.39952c-0.09935,0.16716 -0.19988,0.2677 -0.19988,0.2677c-2.29589,2.23028 -4.68061,2.24543 -7.71412,2.4952c-6.78845,0.55894 -13.49471,-0.08261 -19.76825,3.05002c-6.68664,3.8529 -3.27678,10.94012 -0.36421,15.80676l0.76269,1.01414c0,0 0.12656,0.16874 0.20638,0.41958c1.45037,0.93863 4.18564,0.57151 4.80776,-1.39818z" fill-opacity="0.55686" fill="#000000" stroke="none" stroke-width="0.5"></path>
    </g>
  </g>
</svg>
