<?xml version="1.0" encoding="UTF-8"?>
<svg xmlns="http://www.w3.org/2000/svg" xmlns:xlink="http://www.w3.org/1999/xlink" version="1.1" width="321.19994" height="336.77921" viewBox="0,0,321.19994,336.77921">
  <g transform="translate(-79.40002,-11.61039)">
    <g stroke="none" stroke-miterlimit="10">
      <path d="M88.31564,328.61039c0,0 16,-20.5985 16,-32.10001c0,-24.14805 -6.06414,4.50221 -10.04872,-44.1924c-0.59522,-7.27412 3.74438,-65.15844 3.01263,-73.75344c-0.23731,-2.78745 -17.45194,-68.53772 -17.64152,-71.24481c-1.94572,-27.78276 8.67761,-71.70934 8.67761,-71.70934c0,0 -12.60264,-21.46011 8.4239,-20.44654c5.86827,0.28288 21.73281,18.2132 32.25081,17.57214c19.88693,-1.21209 85.77117,-14.42446 107.91596,-15.43106c14.92427,-0.67839 40.54072,1.62046 54.14997,0.91386c29.89262,-1.55204 65.36001,-6.60839 73.85938,-6.60839c6.34357,0 25.39999,15 25.39999,15c0,0 -4.30426,16.55744 -1.677,49.84293c2.20947,27.99243 11.3705,71.03601 11.83896,94.14703c0.97157,47.9307 -4.16196,152.01005 -4.16196,152.01005c0,0 6.8751,16.10871 -32.52064,19.49727c-5.19656,0.44698 -28.0068,-7.08378 -34.50223,-6.59417c-5.41818,0.40841 -27.16192,3.80264 -33.24331,4.17608c-4.59181,0.28197 -30.28214,8.51628 -35.06363,8.69531c-8.42783,0.31554 -43.80911,-15.34526 -52.03061,-14.98105c-9.93324,0.44004 -39.34412,6.82986 -47.9634,7.15102c-2.72426,0.1015 -17.35563,-9.79234 -19.88468,-9.68134c-10.6975,0.46953 -30.35234,15.73688 -36.1915,15.73688c-17.79261,0 -16.6,-18 -16.6,-18z" fill="#d6d6d6" stroke-width="0"></path>
      <path d="M114.91564,303.51038l-11,-15c0,0 12.57555,13.59144 33.19615,18.10359c30.25914,6.62123 74.38191,5.22504 93.09351,7.37227c14.12883,1.62134 55.71035,9.52414 55.71035,9.52414l65,-5c0,0 -60.0161,13.57931 -88.76511,11.92299c-10.7767,-0.62088 -41.27907,-11.44 -57.09454,-13.84571c-8.9022,-1.35412 -54.71337,6.39113 -63.18379,5.2433c-39.11052,-5.29991 -26.95656,-18.32058 -26.95656,-18.32058z" fill="#9e9e9e" stroke-width="0"></path>
      <path d="M121.8722,32.25287c8.47042,-1.14784 54.2816,6.59742 63.18379,5.2433c15.81547,-2.4057 46.31783,-13.22483 57.09454,-13.84571c28.74901,-1.65632 88.76511,11.923 88.76511,11.923l-65,-5c0,0 -41.58152,7.9028 -55.71035,9.52414c-18.71159,2.14723 -62.83437,0.75104 -93.0935,7.37226c-20.6206,4.51215 -33.19615,18.10359 -33.19615,18.10359l11,-15c0,0 -12.15397,-13.02067 26.95656,-18.32058z" fill="#9e9e9e" stroke-width="0"></path>
      <path d="M142.75365,149.77485c-2.47486,0.35366 -2.82852,-2.1212 -2.82852,-2.1212l-0.49111,-3.46343c-0.77333,-3.00822 -1.15627,-5.78053 -1.42092,-8.60358c-0.54895,1.93243 -0.89875,4.0925 -2.49508,5.14944c-1.42959,0.94654 -3.54869,-0.19539 -5.03547,-1.04929c-0.12848,-0.07379 -0.26578,-0.18842 -0.40935,-0.33597c0.52476,2.55679 0.95464,5.12703 1.21465,7.70283c0.23032,2.28163 0.16742,4.61879 0.73751,6.84002c0,0 0.60633,2.42536 -1.81903,3.03169c-2.42536,0.60633 -3.03169,-1.81903 -3.03169,-1.81903c-0.60235,-2.46378 -0.61254,-5.036 -0.86246,-7.56c-0.63988,-6.46227 -2.45359,-12.85971 -3.99344,-19.14087l0.09368,-0.30546h-0.11241l0,-3.20001c0,-1.38071 1.11929,-2.5 2.5,-2.5c0.92661,0 1.73547,0.50411 2.1673,1.25304l2.37645,3.96071l-0.31841,0.19105c0.76382,1.00151 1.44957,2.05368 2.01073,3.17719c0.50973,1.02056 0.99632,2.05292 1.52618,3.06318c0.22498,0.42896 0.54273,0.81433 0.76982,1.24018c0.30594,-3.95541 1.7836,-7.54975 1.8002,-11.58579l0.2468,-0.33984l-0.1508,-0.05026l0.78176,-2.3453c0.31417,-1.02157 1.26534,-1.76413 2.38994,-1.76413c1.12458,0 2.07574,0.74254 2.38992,1.76408l0.78182,2.3453l-0.02628,0.00876c0.0279,0.05918 0.05487,0.11891 0.08086,0.17921c1.34645,3.12423 0.66765,7.0145 0.86857,10.24235c0.25762,4.13867 0.8008,5.4268 1.84254,9.47245l0.53742,3.73418c0,0 0.35366,2.47486 -2.1212,2.82852z" fill="#696969" stroke-width="0.5"></path>
      <path d="M166.35295,95.2558c0.45542,0.1364 0.92104,0.44824 1.32718,1.05746c0.06323,0.09484 0.11925,0.18824 0.16859,0.28014c0.03695,-1.63245 0.56708,-3.32318 1.1284,-4.83736c0.50236,-1.35512 1.90229,-2.18721 2.98487,-3.14467c2.11702,-1.87233 7.3606,-5.84107 10.48202,-3.99478c0.03356,0.01985 0.06567,0.04053 0.09639,0.06201c-0.03323,-0.4405 -0.03809,-0.89467 -0.30816,-1.21083c-0.85528,-1.00124 -2.5834,-0.5512 -3.82279,-0.99606c-1.28964,-0.4629 -2.80271,-0.38025 -4.11049,0.02859c-1.92801,0.60275 -4.63521,1.07144 -6.13122,2.56745c-1.97103,1.97103 -2.5,5.63974 -2.5,8.23181zM166.98676,99.78014c-2.76198,1.7615 -2.95445,3.80245 -5.21896,6.08763c-0.6018,0.60729 -1.64,0.68772 -2.18103,1.34973c-0.43314,0.52999 -0.23602,1.36809 -0.54096,1.98088c-0.37026,0.74405 -1.21499,1.22982 -1.45304,2.02608c-0.23658,0.79135 0.09707,1.64966 0.10727,2.47556c0.01468,1.18948 -0.8637,5.14451 1.42442,5.60727c3.00999,0.60876 5.28816,-1.91282 7.95632,-2.73538l1.21757,-1.82637c0.44513,-0.68926 1.22011,-1.14553 2.10164,-1.14553c1.38071,0 2.5,1.11929 2.5,2.5v4c0.42923,2.26331 0.11755,4.85528 0.93435,7.10138c0.19434,0.5344 1.21144,-0.0677 1.65135,-0.42802c1.56102,-1.27858 5.36167,-3.71622 6.33884,-5.50511c1.23116,-2.25388 1.56089,-6.62736 2.15922,-9.00995c0.39088,-1.55653 1.33366,-2.96834 1.54856,-4.55875c0.39548,-2.92679 0.40509,-5.77952 0.78644,-8.70502c0.12521,-0.96057 0.78042,-1.8299 0.7831,-2.79859c0.00494,-1.7837 -0.76955,-3.51179 -0.76955,-5.29549c-0.42414,-1.21094 -0.28237,-2.71018 -1.11902,-3.68296c-0.52752,-0.61334 -1.44282,-0.79445 -2.0763,-1.28478c0.0448,1.2068 -0.6616,2.84554 -0.65567,4.07275c0.0051,1.055 0.1366,2.11838 0.00405,3.16504c-0.60771,4.79884 -1.28275,9.34126 -1.68614,14.17822c-0.17621,2.11293 -0.76634,4.37335 -0.02751,6.36072c0,0 0.79056,2.37171 -1.58115,3.16227c-2.37171,0.79056 -3.16227,-1.58115 -3.16227,-1.58115c-0.82224,-2.65614 -0.42448,-5.5663 -0.21329,-8.33877c0.05549,-0.72841 0.09619,-1.45867 0.13162,-2.18958c-2.6033,2.65729 -6.47186,5.38517 -7.96165,6.87115l-2.59819,1.74675c0,0 -2.08013,1.38675 -3.46688,-0.69338c-1.38675,-2.08013 0.69338,-3.46688 0.69338,-3.46688l2.20174,-1.45321c2.87074,-2.87832 5.37133,-4.51465 8.69718,-6.62032c0.3405,-0.21558 -0.79717,0.47604 -1.167,0.31593c-1.50851,-0.65309 -3.63411,-1.07484 -4.17299,-2.62782c-0.04883,-0.14073 -0.09162,-0.28289 -0.12872,-0.42631c-0.29371,0.86331 -1.05673,1.37199 -1.05673,1.37199zM161.77426,97.22081c-0.10088,-0.19506 -0.14594,-0.33025 -0.14594,-0.33025l-0.896,-2.7901c0,-4.28226 0.64721,-9.31554 3.8999,-12.56824c2.45115,-2.45116 8.82107,-4.74428 12.26373,-4.73039c0.29154,0.00118 4.90096,1.49998 5.49462,1.72646c1.13907,0.43455 2.48101,0.57746 3.37722,1.40396c0.69577,0.64165 0.42574,1.91279 1.01898,2.65027c0.60265,0.74918 1.81902,0.83392 2.40002,1.60001c0.40512,0.53417 1.83086,5.13831 2.08093,5.91702c0,1.98754 0.82616,3.91698 0.83043,5.90452c0.00265,1.23095 -0.66972,2.37925 -0.81688,3.60138c-0.36009,2.99041 -0.36902,5.92323 -0.81354,8.89501c-0.1267,0.84704 -1.40464,4.04914 -1.65151,5.04123c-0.69655,2.79924 -1.14773,7.64891 -2.64071,10.19007c-1.86207,3.16937 -2.99785,2.72294 -5.39051,4.7016c-2.22652,1.84127 -2.92696,3.95287 -6.38503,3.76666c-1.50681,-0.08114 -3.1862,-0.51577 -4.23427,-1.60141c-1.07708,-1.11569 -2.34141,-6.05806 -2.41677,-8.92697c-3.15897,1.63907 -6.32879,3.61673 -10.07342,2.4211c-5.12713,-1.63705 -5.01493,-6.01303 -4.97548,-10.39273c0.01179,-1.30859 -0.24185,-2.66325 0.10727,-3.92447c0.29151,-1.05311 1.25692,-1.79721 1.74691,-2.77391c0.45013,-0.89724 0.43787,-2.03054 1.05901,-2.81911c0.66141,-0.83969 1.85957,-1.09811 2.61902,-1.85029c1.36627,-1.3532 1.84027,-3.44028 3.20002,-4.80003c0.10936,-0.10936 0.2237,-0.21275 0.34198,-0.3114zM176.39467,98.08302c0.05617,-0.44212 0.12121,-0.88313 0.1973,-1.32277c0.24058,-1.39019 0.74661,-2.73094 0.92274,-4.13076c0.07574,-0.60198 -0.05555,-1.23226 -0.11562,-1.84758c-1.74327,1.2522 -5.7662,3.63401 -4.7713,5.78366c0.32192,0.69557 1.59843,0.13361 2.22703,0.57214c0.4512,0.31476 1.00341,0.6193 1.53986,0.94531z" fill="#696969" stroke-width="0.5"></path>
      <path d="M206.13981,116.00133c-0.63203,3.76476 -1.96285,7.36261 -2.92354,11.14033c-0.32197,1.26608 -0.41018,2.5727 -0.48588,3.88262c1.50696,-3.73756 2.66828,-7.61703 3.64427,-11.53061c0,0 0.60633,-2.42536 3.03169,-1.81902c2.42536,0.60633 1.81902,3.03169 1.81902,3.03169c-0.25496,1.01749 -0.52121,2.03342 -0.80158,3.04582c0.73176,-0.74282 1.46959,-1.48099 2.20843,-2.21993l0.00002,-0.00001l0,0l2.40002,-2.39999c0,0 0,0 0,0c0.45241,-0.4524 1.07741,-0.73222 1.76776,-0.73222c1.38071,0 2.5,1.11929 2.5,2.5v3.20001c0,0 0,2.5 -2.5,2.5c-0.73665,0 -1.25624,-0.21706 -1.62272,-0.52326c-0.79403,0.8233 -1.56841,1.65969 -2.33135,2.50308c-0.03483,0.1925 -0.07424,0.31075 -0.07424,0.31075c-1.62916,4.24977 0.98227,5.95876 4.85674,7.25068l-0.02844,-0.14125c0,0 2.5,0 2.5,2.5c0,2.5 -2.5,2.5 -2.5,2.5l-1.62841,-0.14125c-3.9912,-1.45377 -6.89751,-3.19631 -8.166,-6.58147c-0.60281,0.67612 -1.21004,1.34801 -1.82591,2.01254l0.25641,0.12821l-1.57582,3.15157c-0.40086,0.8456 -1.26228,1.43039 -2.26028,1.43039c-0.68195,0 -1.30012,-0.27305 -1.75116,-0.71578c-0.60096,1.84301 -1.05564,3.72286 -0.84464,5.83612c0.06118,0.61272 1.23473,-0.1603 1.80523,-0.39204c0.78129,-0.31736 1.59437,-0.55096 2.40003,-0.80002c3.76817,-1.1649 5.54351,-0.69554 8.71503,1.57898c5.13447,-0.15306 11.05167,-0.99774 12.90383,-6.39783c0.44986,-1.31159 0.95683,-4.3345 -0.19604,-5.44167c-1.37727,-1.32267 -4.48595,-0.50788 -5.26837,-2.24977c-1.44897,-3.22585 1.97809,-5.74061 3.22164,-7.87824c1.19754,-2.05854 1.31449,-4.56887 1.31449,-6.83975c0,-1.36419 0.64715,-3.08816 -0.28681,-4.08251c-1.51472,-1.61268 -3.88272,-3.13991 -5.63989,-4.65418c-2.98794,1.06155 -7.56309,1.34713 -8.4016,4.72724l-1.4039,1.77719c0,0 -1.32507,1.32512 -2.82803,0.53359zM206.06155,110.62697c0.16624,-0.59694 0.36622,-1.17436 0.7517,-1.64445c2.76036,-3.36625 8.90213,-4.16549 12.81349,-4.94583c2.14069,1.28142 4.05627,2.91533 5.95827,4.52996c0.8771,0.74459 2.11861,1.09009 2.80175,2.01587c1.90269,2.57849 1.7146,7.73314 1.281,10.71796c-0.03374,0.23223 -1.73799,5.35475 -1.8533,5.55979c-0.55432,0.98567 -1.23167,1.90828 -1.987,2.75351c1.05376,0.04387 2.44612,0.81513 3.14035,1.51845c3.11701,3.15783 2.66653,10.0422 0.35887,13.48209c-4.03795,6.01913 -11.50942,6.79356 -18.0511,6.67841c-1.31896,-0.83064 -2.51827,-2.36009 -4.07554,-2.29273c-4.43377,0.19179 -7.91996,5.66787 -11.80421,-0.52036c-0.77789,-1.2393 -0.24752,-2.91722 -0.29582,-4.37963c-0.11182,-3.38592 0.66015,-5.65863 1.72833,-8.79059c1.05805,-3.10224 0.75055,-6.18264 1.55543,-9.45108c1.12759,-4.57893 3.17086,-9.02359 3.11626,-13.75833c0,0 0,-2.5 2.5,-2.5c1.1006,0 1.71667,0.48452 2.06152,1.02696z" fill="#696969" stroke-width="0.5"></path>
      <path d="M254.35224,114.03556c0.18933,-4.03042 0.54061,-8.10465 1.03427,-12.1625l-1.79593,0.59865c-1.86428,0.55136 -3.78127,2.97129 -5.82485,4.19014c-0.20817,2.48305 -0.36025,4.96762 -0.43034,7.44397l-0.03552,2.82168c-0.01475,1.36804 -1.12832,2.47248 -2.49985,2.47248c-1.18976,0 -2.1854,-0.8311 -2.43804,-1.9444l-0.7873,-3.14925c0,0 -0.42233,-1.68932 0.84783,-2.60068c0.10985,-2.4208 0.27978,-4.85348 0.5011,-7.28163c-0.14303,-0.40685 -0.29691,-0.79944 -0.4953,-1.13347c0,0 -0.62495,-1.87487 0.90341,-2.84633c0.17797,-1.56524 0.37548,-3.12482 0.59016,-4.67429c0.11604,-0.83753 0.09424,-1.74047 0.21361,-2.58822c-0.23549,-0.56415 -0.23549,-1.08171 -0.23549,-1.08171v-3.20001c0,-1.38071 1.11929,-2.5 2.5,-2.5c1.12458,0 2.07574,0.74254 2.38992,1.76408l0.78182,2.3453l-0.08891,0.02964c0.0827,0.18187 0.15328,0.36996 0.20956,0.56541c0.49688,1.72574 -0.58726,3.54421 -0.81427,5.32565c-0.1156,0.90714 -0.22843,1.81632 -0.3372,2.72704c0.17723,-0.13475 0.35894,-0.2629 0.54475,-0.38375c0.86763,-0.56427 1.94919,-0.69671 2.92379,-1.04507l2.40001,-0.80001c0,0 0.81729,-0.27243 1.65225,-0.01768c0.43035,-2.8614 0.92829,-5.70219 1.48686,-8.50089c0,0 0.49028,-2.45145 2.94174,-1.96117c2.45145,0.49028 1.96117,2.94174 1.96117,2.94174c-1.69857,8.47458 -2.82281,17.36783 -3.15334,26.00655l-2.80077,-0.50255l-2.19548,0.30886c0.00912,-0.23237 0.01879,-0.46491 0.029,-0.6976l-0.03088,-0.00554c0,0 0,-0.18963 0.05223,-0.46444z" fill="#696969" stroke-width="0.5"></path>
      <path d="M299.20004,136.20001c-2.5,0 -2.5,-2.5 -2.5,-2.5v-2.60001c0,-1.64677 -0.10459,-3.21118 -0.13041,-4.72463c-2.03795,4.18902 -4.48882,7.93414 -8.281,11.36264c-1.52874,1.38212 -2.632,4.15546 -4.68905,4.02969c-1.77373,-0.10845 -2.37948,-2.78425 -2.87113,-4.49193c-0.4822,-1.67486 -0.06329,-3.49058 0.07267,-5.22816c0.39152,-5.00352 1.65047,-10.37951 3.22716,-15.13817c0,0 0.79056,-2.37171 3.16227,-1.58115c2.37171,0.79056 1.58115,3.16227 1.58115,3.16227c-1.47412,4.39261 -2.57395,9.34211 -2.98695,13.96128c-0.01765,0.19742 -0.02384,0.39638 -0.02281,0.59625c0.48427,-0.43643 0.96488,-0.81157 1.27032,-1.11587c4.28669,-4.27068 6.01341,-9.66651 8.29353,-15.18026l0.37405,-0.23477l-0.11961,-0.10623l1.74224,-1.96168c0.45815,-0.52071 1.1295,-0.84929 1.87759,-0.84929c1.38071,0 2.5,1.11929 2.5,2.5v5l-0.41314,0c0.334,3.20904 0.41314,6.34504 0.41314,10v2.60001c0,0 0,2.5 -2.5,2.5z" fill="#696969" stroke-width="0.5"></path>
      <path d="M307.97171,264.09059c-0.79057,2.37171 -3.16228,1.58114 -3.16228,1.58114l-1.03503,-0.73857c-2.75255,3.76443 -5.24184,5.33493 -9.35936,1.90019c-0.51305,-0.42798 -0.14702,-1.75238 -0.81022,-1.83332c-0.58557,-0.07146 -0.20897,1.23168 -0.6153,1.65935c-1.64886,1.73545 -3.04173,4.51718 -5.42846,4.70178c-1.62939,0.12603 -1.97087,-2.62474 -2.73274,-4.07054c-0.28143,-0.53407 -0.32962,-2.11338 -0.72683,-1.65879c-0.44559,0.50997 -0.22049,1.49059 -0.77631,1.87748c-1.90604,1.32673 -3.95675,2.87164 -6.27368,3.02978c-1.03002,0.0703 -1.04169,-1.84865 -1.86283,-2.47443c-0.2225,-0.16957 -0.27323,0.50466 -0.49029,0.68114c-0.66021,0.53678 -1.40774,0.95621 -2.11161,1.43432c0,0 -0.12462,0.08308 -0.3332,0.17807c-0.63177,1.84258 -1.30881,3.68136 -2.04065,5.35315c-1.22017,2.78732 -3.59623,5.24901 -5.38668,7.76696c0.00041,0.01421 0.00041,0.02172 0.00041,0.02172l-1.70945,3.1717c-4.07976,1.25404 -6.82755,-0.20746 -10.79103,-0.70398c-4.39628,-0.55074 -9.02475,0.41706 -13.44589,0.02011c-4.01379,-0.36037 -7.99233,-1.14598 -11.99998,-1.60003c-2.78859,-0.31594 -5.37806,-0.01435 -8.03777,-0.30992c-1.27748,0.85235 -2.70268,-0.09778 -2.70268,-0.09778c-5.29058,-3.55683 -9.92076,-9.81898 -10.71215,-16.40665c-0.11894,-0.99011 0.71148,-1.88389 0.83119,-2.87391c0.03977,-0.32891 0.04883,-0.65975 0.04271,-0.99152c-0.93318,0.75466 -1.8415,0.5937 -2.46292,0.3032c-0.69971,0.49208 -1.41412,0.93283 -2.23872,0.98879c-0.95927,0.0651 -1.43849,-1.60004 -2.39996,-1.60004c-0.96149,0 -1.43941,1.64144 -2.40001,1.60004c-1.31859,-0.05683 -2.34337,-1.21568 -3.49841,-1.85425c-0.31231,-0.17266 -0.57188,-0.71572 -0.90112,-0.57805c-1.31845,0.5513 -2.10675,2.31536 -3.53111,2.43134c-1.92817,0.15701 -3.38978,-1.97528 -5.2698,-2.43134c-1.17634,-0.28536 -2.54852,-0.13109 -3.698,-0.44587c-0.71126,0.71531 -1.42252,1.43063 -2.13378,2.14594c0,0 -1.76777,1.76777 -3.53553,0c-1.76777,-1.76777 0,-3.53553 0,-3.53553c1.1276,-1.12186 2.25519,-2.24372 3.38279,-3.36559l0.24663,-0.07411l-0.04843,-0.07265l2.37153,-1.58108c0.40239,-0.27682 0.88989,-0.43886 1.41522,-0.43886c1.38071,0 2.5,1.11929 2.5,2.5c0,0.01231 -0.00009,0.0246 -0.00027,0.03687c0.09909,-0.06495 0.19968,-0.10491 0.30075,-0.10456c1.08736,0.00372 2.14393,0.50008 3.09789,1.02192c0.53384,0.29202 0.64184,1.49391 1.23228,1.34678c1.20334,-0.29984 1.65263,-2.12666 2.86891,-2.3687c1.31767,-0.26222 2.67607,0.46521 3.89881,1.02192c0.568,0.25861 0.67901,1.38858 1.30164,1.34582c0.95924,-0.06588 1.43854,-1.60004 2.40004,-1.60004c0.96148,0 1.44568,1.48264 2.39996,1.60004c0.51461,0.06331 0.6755,-0.78677 1.01325,-1.18015l3.83541,1.07884c0.54873,-1.84096 2.03054,-5.16187 2.29925,-5.96791c1.35475,-4.06373 3.23166,-7.58757 4.89243,-11.44215c0.46686,-1.08356 0.32226,-2.39778 0.91077,-3.42038c0.63446,-1.10245 1.83182,-1.77281 2.64217,-2.75325c1.87267,-2.26574 3.39009,-5.08193 5.07883,-7.48923c0.63071,-0.33116 6.73025,-3.59084 7.48016,-3.75888c3.6227,-0.81177 7.13608,0.27416 10.57479,0.76539c1.05595,0.15085 2.14712,-0.17085 3.20002,0c3.14814,0.51083 4.98892,2.61802 8.10863,3.22011c5.74585,1.10893 12.05481,2.33543 15.86139,7.30905c2.94302,3.8453 6.27082,9.96456 6.91078,14.83312c0.5546,4.21912 -0.34846,8.31379 -0.69071,12.46037c0.98697,-0.39939 2.02655,-0.5856 3.09416,-0.31965c0.86769,0.21614 0.45726,2.16611 1.33712,2.32562c2.0547,0.37248 2.10151,-4.28792 4.15009,-4.69271c1.94355,-0.38403 4.14039,0.2156 5.80003,1.29748c0.46859,0.30546 0.79262,0.77867 1.0167,1.3199c0.99806,-1.86167 2.88266,-3.51549 4.47988,-3.58556c1.6557,-0.07263 2.71614,1.90627 3.98983,2.96661c0.33716,0.28068 0.3763,1.03339 0.815,1.03339c0.43871,0 0.49391,-0.7345 0.81504,-1.0334c1.0923,-1.01668 2.27375,-1.93315 3.41062,-2.89973l3.7649,0.86141c0,0 2.37171,0.79057 1.58114,3.16228zM260.24655,281.31323c1.64176,-2.46089 4.26048,-4.90855 5.39381,-7.62462c1.08576,-2.60208 2.0783,-5.48852 3.01858,-8.18906c-0.01834,-5.28524 2.12127,-11.15067 0.12301,-16.33216c-2.63817,-6.84076 -6.14652,-12.47014 -13.52893,-14.45983c-3.19272,-0.8605 -5.31936,-0.45242 -8.33776,-1.72129c-0.9155,-0.38486 -1.60938,-1.17567 -2.487,-1.64047c-1.45402,-0.77005 -3.27325,-0.34538 -4.90206,-0.57806c-2.77985,-0.39711 -5.67817,-1.48196 -8.62516,-0.83458c-1.93369,0.42478 -3.52457,1.8065 -5.31989,2.64102c-1.4028,2.28462 -2.79722,4.85999 -4.52114,6.91079c-0.63793,0.75889 -1.66927,1.18417 -2.15788,2.04679c-0.50243,0.88703 -0.28953,2.04182 -0.6892,2.97965c-1.58183,3.71178 -3.40554,7.0514 -4.70755,10.95775c-0.68077,2.0425 -2.06629,3.89228 -2.31103,6.03129c-0.15157,1.32469 0.17153,2.67775 0,4c-0.08894,0.68555 -0.85942,1.24081 -0.76879,1.92614c0.15405,1.16482 1.01199,2.12265 1.44851,3.21352c1.39915,3.49645 2.80774,5.89527 5.47511,8.04318c0.10649,0.02449 0.16799,0.04499 0.16799,0.04499c3.31302,1.1604 6.44213,0.31155 9.85581,0.68387c7.20506,0.78584 14.04182,1.56222 21.35364,1.58787c1.46685,0.00515 2.94488,-0.14933 4.40045,0.03228c2.26832,0.28301 4.00141,1.27709 6.0236,1.31835z" fill="#696969" stroke-width="0.5"></path>
      <path d="M241.45996,266.80002c-0.82608,2.23759 -3.12384,1.47169 -3.12384,1.47169c-4.33066,-1.54794 -9.69674,-6.19486 -8.87278,-11.59837c0.89697,-5.88229 9.06613,-8.33757 13.96879,-7.65457c8.23313,1.14698 12.02987,10.74644 5.15632,16.50937c-1.93271,1.62043 -4.83946,1.25196 -7.06181,1.27188zM238.55801,262.94899c0.67977,-1.14897 2.16863,-1.14897 2.16863,-1.14897h0.79999c0.26321,0.00303 3.38313,0.29199 4.13826,-0.32809c3.40237,-2.79389 0.84373,-7.11587 -2.84368,-7.49063c-2.18685,-0.22225 -8.07524,0.4472 -8.43124,3.54538c-0.25007,2.17634 2.15011,4.34235 4.16804,5.42231z" fill="#696969" stroke-width="0.5"></path>
      <path d="M93.43231,259.93215c1.38028,-1.38018 2.76048,-0.60506 3.29929,-0.19887c2.03391,-0.51427 5.47509,-1.3413 5.98644,-1.06934c1.26297,0.6717 1.76343,2.34331 2.05485,3.77567c4.53307,-3.03155 4.75224,-1.81596 8.61386,0.38026c0,0 0.05191,0.03461 0.13387,0.10109c0.41315,-3.80792 1.07142,-7.6574 0.78069,-11.38464c-0.61055,-7.82734 -1.6226,-15.58469 -1.60127,-23.43629c0.01455,-5.35378 -2.08813,-13.34328 3.45984,-17.24355c1.14622,-0.8058 2.68249,-0.81153 4.0338,-1.18181c3.14717,-0.86236 6.18807,-1.71271 9.39498,-2.33932c4.39067,-2.20657 6.93195,-2.08316 11.76501,-2.52317c3.47192,-0.31609 6.90171,-1.21825 10.34091,-1.59341c3.95546,-0.43147 8.05074,0.43205 11.99999,0c4.20065,-0.45955 8.27779,-1.42654 9.8982,4.15679c1.18833,4.09452 -1.17773,6.30053 -0.70494,10.07812c1.10084,8.79571 0.94114,17.66484 2.40367,26.44016c0,8.31237 -2.05095,16.75743 -4.06612,24.81253c-1.13949,4.55478 -1.63902,8.83816 -6.12695,11.23943c-4.37446,2.34056 -8.70665,1.51965 -13.30459,1.04575c-3.65797,-0.37702 -7.28509,0.76424 -10.95576,0.80822c-4.40747,0.05281 -8.42392,-0.81149 -12.83804,-0.7997h-2.40002c0,0 -2.5,0 -2.5,-2.5c0,-2.5 2.5,-2.5 2.5,-2.5h2.40002c4.39154,0.01059 8.40246,0.86365 12.76194,0.80028c3.84831,-0.05594 7.5869,-1.16616 11.44426,-0.79176c3.03463,0.29455 9.72598,1.85092 12.20701,-1.42604c1.06906,-1.41203 1.56117,-5.48661 1.96142,-7.08883c1.86915,-7.48233 3.93388,-15.46389 3.93388,-23.18747c-1.45183,-8.71108 -1.52605,-17.60362 -2.39637,-26.35983c-0.33134,-3.33354 1.41353,-5.9208 0.89515,-9.12189c-0.4119,-2.54359 -3.34832,-0.7734 -4.50182,-0.6432c-1.42611,0.16097 -2.8703,0.01549 -4.30546,0.01873c-6.27726,0.01416 -11.97163,1.02665 -18.15368,1.58781c-4.91482,0.44613 -6.24646,0.09344 -10.63502,2.27687c-3.35338,0.68485 -6.47432,1.72893 -9.80497,2.46067c-0.78231,0.17187 -1.67717,0.00982 -2.36623,0.41817c-0.56406,0.33427 -1.34254,3.13018 -1.43979,3.45546c-0.51522,1.72335 -0.11768,3.60783 0.08097,5.39554c0.02016,0.18143 0.02112,6.72822 0.01873,7.50549c-0.00629,2.04812 0.55916,4.05846 0.78126,6.09451c0.06275,0.57525 0.00845,4.93865 -0.00107,7.35112c0.44588,-1.23638 2.14427,-1.66968 3.13484,-2.57899c1.5343,-1.40844 3.19773,-2.66938 4.79999,-4c3.35406,-2.78542 5.49868,-5.87353 7.4227,-9.7215l0.13684,-0.09546l-0.05469,-0.03646l1.57847,-2.3677c0.44514,-0.68925 1.2201,-1.14551 2.10163,-1.14551c1.38071,0 2.5,1.11929 2.5,2.5c0,0.29691 -0.05176,0.58173 -0.14675,0.84593l-0.78153,2.3446l-0.42425,-0.14142c-0.06045,0.95545 -0.15242,1.90883 -0.26618,2.85631c-0.07076,0.58935 0.05076,1.20645 0.11267,1.81001c1.31701,-0.3533 2.75012,-0.29487 4.097,-0.56308c2.37421,-0.47279 4.81047,-1.11846 7.21448,-0.83364c0.96198,0.11398 1.82992,0.78653 2.79862,0.7831c0.87386,-0.00309 1.62212,-0.80685 2.49597,-0.80183c2.46452,0.01416 3.58639,0.79786 5.55914,0.53854c0.36742,-0.31424 0.89196,-0.53854 1.6408,-0.53854c2.5,0 2.5,2.5 2.5,2.5c-0.00101,0.18963 -0.0028,0.39968 -0.00605,0.62702l0.80609,0.97295c0,0 0,1.29347 -0.93039,2.01963c-0.22179,3.04817 -0.81904,6.67294 -2.4311,7.95088c-1.24547,0.98733 -3.15155,0.44315 -4.73854,0.52949c-2.28035,0.12406 -4.54778,-0.45676 -6.80042,-0.83227c-2.67954,-0.44667 -5.64136,0.81918 -8.39959,0.83227c-1.06664,0.00506 -2.13814,0.10147 -3.19995,0c-0.59766,-0.05711 -1.17597,-0.68243 -1.73823,-0.4719c-0.33708,0.12622 0.19183,0.71493 0.13853,1.0709c-0.143,0.95508 -0.60395,1.84768 -0.71908,2.80651c-0.54234,4.51676 -0.50083,13.29799 -7.99876,8.8813c-1.15723,-0.68167 -1.55219,-2.19229 -2.32829,-3.28843c-0.4645,-1.39354 -0.79197,-3.0447 -1.92199,-4.13058c-1.77443,-1.70511 -4.76995,-2.46219 -5.94534,-4.53854c0.39114,4.34842 0.7859,8.50099 0.4458,13.00136c-0.12486,1.65222 -0.53072,3.27624 -0.6378,4.92971c-0.10425,1.60987 0.45736,3.29115 0.00514,4.83971v0.51108c1.23021,1.00387 0.6717,2.67943 0.6717,2.67943l-0.78176,2.34533c-0.31417,1.02157 -1.26534,1.76414 -2.38994,1.76414c-1.38071,0 -2.5,-1.11929 -2.5,-2.5v-4.79999c-0.23049,-1.36772 -0.302,-2.75836 -0.2771,-4.16333c-1.25261,0.7481 -2.60962,-0.15655 -2.60962,-0.15655c-0.42407,-0.39785 -0.69072,-1.19467 -1.2722,-1.19356c-2.17055,0.00415 -5.08245,4.68274 -6.8655,3.90618c-1.91546,-0.83423 -1.88408,-3.75219 -2.49187,-5.75106c-0.01791,-0.05891 -0.00423,-0.13608 0.0283,-0.22008c-0.8487,0.74311 -2.2761,0.92071 -3.40568,1.20377l-3.17419,-1.4577c0,0 -1.7677,-1.76783 0.00013,-3.53553zM159.55303,239.55896c-0.60983,-0.00072 -1.34804,-0.06261 -2.35348,-0.19124c-0.70817,-0.0906 -1.28559,-0.77276 -1.99952,-0.76771c-0.81278,0.00575 -1.49128,0.80072 -2.30408,0.79815c-1.23095,-0.0039 -2.38102,-0.65584 -3.6014,-0.81688c-2.71366,-0.35809 -2.83568,0.2139 -5.58544,0.76634c-1.28499,0.25816 -9.25873,1.74834 -10.34335,0.85106c-0.40766,-0.33724 -0.51093,-0.8094 -0.47246,-1.34516c-2.78175,3.23265 -6.1166,6.00245 -9.72861,7.65783c-0.12971,0.05944 0.2944,0.00748 0.42208,0.07117c0.61968,0.30914 1.21777,0.66243 1.80002,1.03734c0.94589,0.60907 1.99544,1.10702 2.78097,1.91239c1.96728,2.01696 2.08563,3.09209 2.87806,5.4694c0.0799,0.13857 0.18641,0.33545 0.29691,0.55386c0.1932,-0.61687 0.55723,-1.21653 0.58955,-1.45594c0.36443,-2.6998 -0.20577,-8.58211 2.60597,-10.42769c1.30572,-0.85705 3.10273,-0.37832 4.6618,-0.4719c1.99627,-0.11983 4.0211,0.32439 5.99952,0.03228c2.12718,-0.31407 4.26729,-1.06665 6.40094,-0.79999c2.00058,0.25003 3.99231,0.57801 5.99951,0.76771c0.57869,0.05469 1.21411,0.90061 1.66148,0.52949c0.47149,-0.39114 -0.17107,-1.22898 -0.08684,-1.83577c0.10811,-0.77882 0.2493,-1.5563 0.37838,-2.33474z" fill="#696969" stroke-width="0.5"></path>
      <path d="M390.56779,278.66776c-1.76777,1.76777 -3.53553,0 -3.53553,0l-1.91233,-1.98098c-0.23319,-0.52753 -0.16512,-1.3657 -0.69956,-1.5826c-0.98838,-0.40112 -2.248,0.48108 -3.20002,0c-0.76037,-0.38424 -0.53561,-1.74825 -1.23168,-2.23947c-0.30912,-0.21815 -0.53208,0.53801 -0.79812,0.80702c0,0 -1.87437,0.62477 -2.84594,-0.90281c-0.86759,3.44492 -0.99055,6.66167 -4.76497,8.73528c-4.34315,2.38606 -10.54378,1.64676 -15.14467,1.26731c-5.6333,-0.46459 -11.38027,-0.16396 -17.02873,-0.18003c-9.44691,1.59167 -19.11395,1.64638 -28.21569,4.68022l-3.29055,-3.1717c0,0 0,-2.5 2.5,-2.5c0.52897,0 0.94602,0.11192 1.27482,0.28841c8.87656,-2.5506 18.1851,-2.77265 27.31903,-4.27989c5.91545,-0.01479 11.94951,-0.31713 17.84842,0.17961c3.99211,0.33617 8.48434,0.91715 12.37809,-0.6923c2.03409,-0.84078 1.57214,-3.19566 1.9634,-4.8375c0.01675,-0.0703 1.59128,-4.78919 1.64458,-4.9489c1.14194,-3.42153 1.55964,-6.68715 2.34539,-10.21207c0.40057,-1.797 1.32162,-3.47532 1.54505,-5.30283c0.14034,-1.14787 -0.23173,-2.34687 0.04814,-3.46891c0.31298,-1.25477 1.23369,-2.28235 1.68838,-3.493c0.40306,-1.07315 1.35384,-6.12525 1.49324,-6.8229c0.76359,-3.81774 2.01716,-7.88025 2.36364,-11.75604c0.14422,-1.61329 -0.15473,-3.24749 0.00656,-4.85916c0.16702,-1.66884 1.56783,-3.31112 1.07707,-4.91489c-0.09737,-0.31819 -0.58825,-0.36436 -0.92024,-0.38689c-3.65917,-0.24836 -6.24588,1.26044 -9.9219,0.89509c-14.70013,-1.46101 -29.34847,-3.94447 -44.24819,-4.00656c-4.18926,0.79228 -3.43881,3.042 -4.27919,6.92134c-0.74501,3.43909 -1.63283,6.95678 -2.39997,10.40002c-0.44528,1.9986 -0.49998,4.06457 -0.74441,6.09754c-0.55325,4.60155 -2.392,9.13051 -3.32621,13.65465c-2.00641,9.71652 -2.44092,19.74952 -5.58398,29.23577c0,0 -0.79055,2.37171 -3.16227,1.58116c-2.37171,-0.79055 -1.58116,-3.16227 -1.58116,-3.16227c3.11273,-9.2755 3.47356,-19.14769 5.43028,-28.66371c0.90013,-4.37755 2.73908,-8.79411 3.2595,-13.24592c0.26152,-2.23707 0.36824,-4.50359 0.85569,-6.70251c0.76956,-3.47159 1.61413,-6.94402 2.39996,-10.39997c0.98649,-4.33843 0.12504,-6.49813 4.24344,-9.48009c1.19934,-0.86839 2.85161,-0.79903 4.27742,-1.19854c15.20392,-0.05578 30.38221,2.12007 45.35178,3.99344c4.72212,0.59095 11.44588,-3.86607 14.75783,2.10818c1.63292,2.94554 -0.25076,5.16134 -0.52291,7.88509c-0.15712,1.57248 0.1519,3.16732 0.00656,4.74093c-0.37338,4.04285 -1.63949,8.25959 -2.43641,12.24396c-0.28521,1.42479 -1.14334,6.07234 -1.70671,7.57701c-0.38296,1.02283 -1.24601,1.84763 -1.51157,2.90703c-0.23759,0.94785 0.17188,1.96181 0.04814,2.93111c-0.25852,2.02522 -1.21352,3.90378 -1.65502,5.89713c-0.81243,3.66807 -1.50529,7.13991 -2.53178,10.67039c0.07215,-0.03043 0.11493,-0.04469 0.11493,-0.04469c1.33398,-0.26432 2.69796,-1.179 4.00193,-0.79295c1.03223,0.3056 1.00364,2.08256 1.96827,2.56046c0.9558,0.47352 2.27108,-0.5243 3.20001,0c1.18288,0.66764 1.66701,2.14497 2.50052,3.21745l1.28762,1.21897c0,0 1.76777,1.76777 0,3.53553z" fill="#696969" stroke-width="0.5"></path>
      <path d="M330.35456,236.12117c5.78314,0.37323 11.55537,1.47158 17.41986,1.54571c1.04368,0.57322 2.77556,2.55404 3.25783,1.46534c1.24145,-2.80249 0.73039,-5.5802 2.80549,-8.28703c1.06238,-1.3858 2.01634,-3.61426 3.76223,-3.64521c1.69571,-0.03006 2.56113,2.2389 3.68019,3.51328c1.19916,1.3656 1.43546,3.3622 2.44646,4.8724c1.8305,2.73435 4.8764,5.23916 7.00675,7.72937c0.57222,0.66888 0.87718,1.53577 1.43438,2.21722c0.97043,1.18682 3.21501,1.83689 3.13226,3.36772c-0.09155,1.6935 -2.24823,2.55058 -3.51327,3.68018c-2.22366,1.9856 -4.97079,2.73878 -7.42643,4.13432c-3.11963,1.77288 -5.12482,4.39564 -8.646,5.51216c-2.52951,2.47257 -4.71461,5.72072 -9.58849,2.7279c-1.26682,-0.77789 0.17432,-2.96874 0.20646,-4.45498c0.0121,-0.55975 -0.09489,-7.25904 -0.03228,-7.59955c0.09408,-0.51169 1.47104,-1.33449 0.96148,-1.22949c-0.61573,0.12688 -0.74962,1.14495 -1.35602,1.31079c-3.09279,0.84582 -6.55181,-0.33886 -9.50594,-0.8136c-1.89301,-0.30421 -3.78841,0.60265 -5.69408,0.8136c-1.29378,0.14322 -2.61335,-0.17466 -3.90502,-0.01355c-2.81057,0.35057 -4.72845,3.32632 -8.02853,-0.20595c-1.04241,-1.11575 0.19118,-3.05228 0.42778,-4.56076c0.33578,-2.14085 1.04938,-4.20508 1.575,-6.30739c0,0 0.60638,-2.42535 3.03173,-1.81896c2.42535,0.60638 1.81896,3.03173 1.81896,3.03173c-0.01251,0.05002 -0.85452,3.41906 -1.3214,5.28347c0.5951,-0.18263 1.23956,-0.30045 1.69555,-0.35757c1.35442,-0.16965 2.73839,0.13775 4.09498,-0.01355c2.36844,-0.26415 4.74244,-1.09144 7.10597,-0.7865c2.81797,0.36357 5.11877,0.8879 8.09404,0.7865c1.68312,-0.05737 3.73714,-1.35152 5.044,-0.28931c1.36038,1.10571 0.77869,3.42704 0.96148,5.17054c0.02158,0.20579 -0.00026,4.52631 -0.01743,6.88877c0.58554,-0.61943 1.20773,-1.20501 1.80307,-1.81539c4.16975,-1.44943 7.47996,-4.5693 11.41595,-6.51918c0.37825,-0.18738 2.6667,-1.84671 3.84393,-2.63086c-0.62991,-0.64059 -0.88246,-1.64379 -1.4789,-2.33839c-3.16737,-3.68867 -6.17036,-6.58363 -8.31243,-10.88656c-0.18188,-0.36535 -0.46632,-0.67754 -0.73849,-0.99392c-0.51788,1.55594 -1.29348,3.03596 -1.81543,4.59452c-1.08697,3.24572 -1.39526,5.06899 -5.77755,4.9947c-1.32044,-0.02238 -2.39807,-1.10704 -3.5971,-1.66056c-2.56907,0.03828 -5.11893,-0.45603 -7.67196,-0.74528c-2.17083,-0.24595 -4.39013,0.28003 -6.55413,-0.02011c-1.73535,-0.24069 -3.44768,-0.78791 -5.19953,-0.76771l1.19998,-2.5l-1.19998,-2.5c0.78848,0.00707 1.57641,0.03348 2.36406,0.07481l0.03591,-0.07481c0,0 0.33228,0 0.75456,0.12114z" fill="#696969" stroke-width="0.5"></path>
      <path d="M97.98897,76.03402c2.46598,-0.41102 2.877,2.05496 2.877,2.05496l0.77727,4.68112c2.45905,9.1421 5.27043,17.21755 12.75724,23.40936c0,0 1.92055,1.60046 0.32009,3.52101c-1.60046,1.92055 -3.52101,0.32009 -3.52101,0.32009c-8.3595,-7.01337 -11.69066,-15.89825 -14.44271,-26.19068l-0.82283,-4.91886c0,0 -0.41102,-2.46598 2.05496,-2.877z" fill="#696969" stroke-width="0.5"></path>
      <path d="M110.10848,60.81704c2.48295,-0.29151 2.77446,2.19144 2.77446,2.19144l0.25224,2.25411c2.07781,6.31277 3.6135,11.87792 7.34495,17.45068c0,0 1.38673,2.08014 -0.69341,3.46687c-2.08014,1.38673 -3.46687,-0.69341 -3.46687,-0.69341c-4.06384,-6.12048 -5.82631,-12.22894 -8.0683,-19.15165l-0.33451,-2.74359c0,0 -0.29151,-2.48295 2.19144,-2.77446z" fill="#696969" stroke-width="0.5"></path>
      <path d="M185.43231,43.13219c1.7678,-1.76773 3.53553,0.00007 3.53553,0.00007l1.53219,2.56775c0,6.93201 1.19965,14.96426 -0.92828,21.59055c0,0 -0.79056,2.37171 -3.16227,1.58115c-2.37171,-0.79056 -1.58115,-3.16227 -1.58115,-3.16227c2.06057,-5.88298 0.6717,-13.79513 0.6717,-20.00943l-0.06779,0.96771c0,0 -1.76773,-1.7678 0.00007,-3.53553z" fill="#696969" stroke-width="0.5"></path>
      <path d="M164.06421,52.11074c2.38926,-0.73581 3.12508,1.65345 3.12508,1.65345l1.24068,4.05394c1.36481,2.80434 2.98701,5.49417 4.80441,8.02876c0,0 1.4531,2.03433 -0.58123,3.48743c-2.03433,1.4531 -3.48743,-0.58123 -3.48743,-0.58123c-2.04385,-2.87153 -3.84249,-5.9306 -5.38649,-9.09904l-1.36846,-4.41823c0,0 -0.73581,-2.38926 1.65345,-3.12508z" fill="#696969" stroke-width="0.5"></path>
      <path d="M230.13619,52.38703c2.11297,1.33617 0.7768,3.44914 0.7768,3.44914l-0.75261,1.00128c-1.6142,5.63775 -3.8061,11.23676 -4.47251,17.1089c-0.32151,2.83303 0.01217,5.70243 0.01217,8.55365c0,0 0,2.5 -2.5,2.5c-2.5,0 -2.5,-2.5 -2.5,-2.5c0,-3.01545 -0.3233,-6.0496 0.01217,-9.04633c0.69259,-6.18696 2.94222,-12.05305 4.64117,-17.99197l1.33367,-2.29788c0,0 1.33617,-2.11297 3.44914,-0.7768z" fill="#696969" stroke-width="0.5"></path>
      <path d="M261.91804,46.66392c2.23608,1.11802 1.11806,3.35409 1.11806,3.35409l-0.53606,0.48199c0,2.93333 0,5.86666 0,8.79999c0,0 0,2.5 -2.5,2.5c-2.5,0 -2.5,-2.5 -2.5,-2.5c0,-2.93333 0,-5.86666 0,-8.79999l1.06391,-2.71802c0,0 1.11802,-2.23608 3.35409,-1.11806z" fill="#696969" stroke-width="0.5"></path>
      <path d="M300.00003,57.60001c2.5,0 2.5,2.5 2.5,2.5v4.60001c-0.00496,9.8788 -0.20728,21.17092 -3.3283,30.59055c0,0 -0.79056,2.37171 -3.16227,1.58115c-2.37171,-0.79056 -1.58115,-3.16227 -1.58115,-3.16227c2.97744,-8.87221 3.07662,-19.69751 3.07172,-29.00943v-4.60001c0,0 0,-2.5 2.5,-2.5z" fill="#696969" stroke-width="0.5"></path>
      <path d="M316.58345,51.20941c2.4906,-0.21657 2.70717,2.27403 2.70717,2.27403l0.36685,4.21878c0.75194,8.69379 0.23819,16.63082 -1.19145,25.20877c0,0 -0.41099,2.46599 -2.87698,2.05499c-2.46599,-0.41099 -2.05499,-2.87698 -2.05499,-2.87698c1.36119,-8.16726 1.86633,-15.67237 1.14222,-23.95365l-0.36685,-4.21878c0,0 -0.21657,-2.4906 2.27403,-2.70717z" fill="#696969" stroke-width="0.5"></path>
      <path d="M123.22655,146.48138c1.24556,0.39943 1.59879,1.81225 1.59879,1.81225c1.11029,4.5411 1.15239,8.31122 3.34242,12.43861c0.36591,0.68961 3.34485,-1.2168 3.44547,-1.34971c1.14751,-1.5157 1.10636,-4.78724 1.08681,-6.48253c0,0 0,-3.19998 0,-3.19998c0,-1.38071 1.11929,-2.5 2.5,-2.5c1.1246,0 2.07577,0.74256 2.38994,1.76413l0.78176,2.3453l-0.38906,0.12969c0.88184,1.25189 1.77138,2.47584 2.73485,3.4741c0.71014,0.73578 2.70371,-0.13534 3.07111,-0.29952c3.14365,-1.40479 3.31137,-4.34019 3.31137,-7.31372c0,-3.62198 -0.48014,-7.80006 -1.50028,-11.30104c-0.18382,-0.63085 -1.60354,-4.67125 -1.66745,-5.09847c-0.15781,-1.05494 0.146,-2.1434 0,-3.20004c-0.43335,-3.13607 -1.95352,-6.425 -2.85886,-9.48611c-0.52924,-0.52923 -0.98995,-1.1373 -1.58771,-1.58769c-3.80652,-2.86806 -5.11885,6.42026 -6.91128,6.70648c-2.46585,0.39375 -6.41027,-6.67732 -9.5343,-4.38958c-1.30611,0.95647 -1.76646,4.57957 -2.26843,5.94706c-0.41468,1.1297 -0.07417,2.41764 0.09602,3.60895c0.30617,2.14324 -0.25043,4.34613 0.01355,6.49497c0.50416,4.10397 1.99621,7.41239 2.34529,11.48686zM120.3058,151.36419c-2.00579,-0.3056 -2.00579,-2.46419 -2.00579,-2.46419v-0.79999c0.02353,-4.64115 -1.8121,-8.00368 -2.38129,-12.49454c-0.26426,-2.085 0.31076,-4.22446 0.01355,-6.30502c-0.13772,-0.96405 -0.84787,-1.82674 -0.83227,-2.80044c0.03027,-1.88882 1.71518,-6.59225 2.65423,-8.29838c1.87689,-3.41007 2.84052,-4.49289 7.14172,-4.59978c0.82113,-0.02041 4.23523,0.95821 5.89675,2.40572c0.19999,-0.51838 0.47688,-1.00597 0.82053,-1.42505c0.85163,-1.03855 2.08636,-1.72921 3.28842,-2.32831c4.73665,-2.36074 7.18195,0.08843 10.42501,3.33145c3.00243,8.39978 4.69675,17.00372 5.94107,25.7139c0.59986,4.19898 1.86317,8.55049 -0.22193,12.6988c-2.26979,4.51577 -8.52602,8.37348 -13.36325,4.8884c-0.16279,-0.11728 -0.31132,-0.24899 -0.44894,-0.39169c-0.30407,1.49269 -0.80825,2.89973 -1.64684,3.92239c-2.49012,3.03673 -7.65634,4.63724 -10.95455,1.8503c-0.84653,-0.71531 -0.76193,-2.08861 -1.27802,-3.0694c-0.94548,-1.7968 -2.29726,-3.49369 -2.62189,-5.49794c-0.23176,-1.43087 -0.25732,-2.89703 -0.42652,-4.33625z" fill="#696969" stroke-width="0.5"></path>
      <path d="M241.60001,89c-0.26924,0 -0.50949,-0.029 -0.72386,-0.08074c-0.30609,1.33004 -0.61962,2.68247 -0.78831,4.22708c-0.23718,2.1718 0.28003,4.39011 -0.02011,6.5541c-0.39902,2.87686 -1.2544,5.77495 -1.58643,8.70502c-0.36599,3.22984 0.01873,6.83476 0.01873,10.09454c0,3.14066 -0.56868,4.86196 1.1801,7.41324c0.69326,1.01139 1.04218,2.70749 2.25172,2.90887c1.31749,0.21935 2.25846,-1.42702 3.36977,-2.1679c0.72803,-0.22695 1.53278,-0.2842 2.18409,-0.68084c1.26205,-0.76857 1.99774,-2.6135 3.468,-2.76119c3.64332,-0.36599 4.81616,5.20811 8.38454,2.0597c0.8582,-0.7572 1.23648,-1.934 1.97316,-2.80988c6.08656,-7.23668 7.38863,-17.06268 7.38863,-26.36199c0,-2.26654 0.30864,-4.54991 0.03229,-6.79953c-0.33478,-2.72522 -1.65992,-5.80412 -2.33261,-8.50151c-1.01962,-4.17257 -6.24881,-2.81659 -9.08535,-0.97233c-1.15848,0.75322 -1.81571,2.31193 -3.14,2.7065c-1.76157,0.52486 -3.67191,-1.30672 -5.44988,-0.84041c-1.66979,0.43793 -2.10039,2.7483 -3.20696,3.59403c-0.88561,0.67685 -2.08463,0.78998 -3.12694,1.18496l1.70942,0.02829c0,0 0,2.5 -2.5,2.5zM241.12834,81.63873c2.87931,-0.90861 2.53402,-3.6617 6.14723,-4.73147c1.38254,-0.40933 2.8955,-0.26382 4.32494,-0.07499c0.54577,0.0721 0.91542,1.04259 1.42513,0.83461c0.82459,-0.33647 0.92521,-1.59033 1.66005,-2.09349c4.32413,-2.96081 11.66278,-3.87363 15.3011,0.60914c0.72254,0.89025 0.80902,2.14568 1.21352,3.21852c0.72025,2.87439 2.09776,6.18179 2.46744,9.09847c0.04011,0.31647 0.03229,6.67905 0.03229,7.60049c0,10.41449 -1.61708,21.60105 -8.61137,29.63801c-0.99992,1.14898 -1.639,2.63671 -2.82689,3.59008c-0.53957,0.43305 -6.08376,2.12954 -6.59359,2.04978c-1.31433,-0.20563 -2.39355,-1.19577 -3.45494,-1.99776c-0.37701,-0.28487 -0.32864,-1.36902 -0.76688,-1.19227c-0.75287,0.30364 -0.68237,1.55204 -1.33205,2.0388c-0.73967,0.55418 -1.74397,0.61276 -2.61596,0.91914c-1.68928,1.12621 -3.96207,3.0102 -6.23021,2.63208c-3.02935,-0.50502 -6.84423,-5.32866 -7.66087,-8.15342c-0.8204,-2.83778 -0.10727,-7.34443 -0.10727,-10.32446c0,-5.71914 0.81664,-10.8764 1.63226,-16.40045c0.3041,-2.05964 -0.25327,-4.17701 -0.02011,-6.24589c0.39579,-3.51196 1.62784,-5.88736 1.58787,-9.35367c0,0 0,-2.5 2.5,-2.5c0.9712,0 1.56511,0.37729 1.9283,0.83874z" fill="#696969" stroke-width="0.5"></path>
      <path d="M279.19344,119.27342c-0.56363,1.8591 -0.38066,3.60622 -0.72569,6.02703c-0.56129,3.93817 -1.57622,7.54436 -1.56776,11.59955c0.00364,1.74226 -0.32069,7.49255 2.22446,8.00726c2.31716,0.46861 2.1503,-0.55551 4.47513,-0.87498c0.95006,-0.13055 1.95279,0.33453 2.87599,0.07499c2.24982,-0.63247 4.46816,-3.10002 6.64251,-2.24333c1.74258,0.68658 1.80471,3.31733 3.03867,4.72635c13.33675,-1.14361 14.14036,-16.30391 11.81697,-26.68767c-1.07774,-4.81669 -3.72934,-10.64982 -9.57371,-10.90262c-0.7506,-0.03247 -3.32826,1.92239 -3.41324,1.98012c-1.15162,0.66592 -2.1497,1.74041 -3.45487,1.99776c-0.92893,0.18317 -1.78534,-0.75472 -2.73188,-0.77786c-1.90176,-0.04651 -4.00303,1.75898 -5.1719,2.96177l-1.39201,2.85624c0,0 -1.01422,2.02845 -3.04267,1.2554zM279.22488,112.91843l0.34702,-0.68019c2.51032,-2.47088 5.38058,-4.96055 9.22812,-5.03823c0.74171,-0.01497 1.33087,0.90423 2.06817,0.82211c0.59765,-0.06656 0.89671,-0.8015 1.34506,-1.20225c1.94239,-1.27571 3.66573,-2.77241 6.18673,-2.81987c4.07543,-0.07672 9.57939,3.58487 11.72667,6.78568c2.88271,4.29706 3.5678,11.65899 3.57339,16.51431c0.00063,0.54635 0.00909,8.08 -0.03228,8.40047c-1.30864,10.13623 -9.94571,15.83791 -19.42442,15.50923c-1.39547,-1.32723 -3.33866,-2.82726 -3.3631,-4.73163c-0.01548,0.22065 -0.06156,0.56373 -0.18185,0.66772c-0.82665,0.71462 -1.7242,1.44328 -2.77387,1.74695c-1.12866,0.32651 -2.3617,-0.09668 -3.52404,0.07499c-2.23044,0.32943 -4.57713,1.41077 -6.72494,0.725c-4.16357,-1.32938 -5.27122,-5.45601 -5.75681,-9.28723c-0.6976,-5.50397 0.86006,-10.64405 1.61358,-15.90594c0.58975,-4.11822 0.41009,-6.90867 2.78754,-10.58628c0,0 1.14078,-1.71121 2.90503,-0.99483z" fill="#696969" stroke-width="0.5"></path>
      <path d="M284.33054,232.27281l-4.01066,-2.35956c1.74573,-2.59664 1.87705,-3.14883 4.44211,-5.30186c0.83968,-0.7048 2.07367,-0.96104 2.723,-1.84432c2.48177,-3.37592 -2.33018,-7.27917 -5.22319,-4.63897c-1.67557,1.52914 -2.37028,4.14389 -3.14057,6.10036c0,0 -0.92846,2.3212 -3.24966,1.39274c-2.3212,-0.92846 -1.39274,-3.24966 -1.39274,-3.24966c1.29307,-3.18959 1.97883,-6.00407 4.85943,-8.29966c5.19773,-4.14215 12.8744,-0.49119 13.55128,5.79954c0.55396,5.14841 -3.28275,7.37135 -6.36344,10.39958c0.23537,1.64341 -1.40805,2.46509 -1.40805,2.46509l-0.47985,-0.28231c-0.05359,0.07689 -0.10629,0.15453 -0.15807,0.23297z" fill="#696969" stroke-width="0.5"></path>
      <path d="M281.83433,245.79863c-0.5003,0.97465 -1.69412,0.79701 -2.97536,0.47411c-0.60976,0.3965 -1.52757,0.65283 -2.64573,-0.09262c-2.08012,-1.38676 -0.69335,-3.46688 -0.69335,-3.46688l1.57853,-2.36776c0.44514,-0.68925 1.2201,-1.1455 2.10163,-1.1455c1.12461,0 2.07577,0.74257 2.38994,1.76414l0.78176,2.34533l-0.55462,0.18487c0.30761,0.78889 0.39783,1.56281 0.01721,2.30431z" fill="#696969" stroke-width="0.5"></path>
    </g>
  </g>
</svg>
