<?xml version="1.0" encoding="UTF-8"?>
<svg xmlns="http://www.w3.org/2000/svg" xmlns:xlink="http://www.w3.org/1999/xlink" version="1.1" width="240.93872" height="252.70198" viewBox="0,0,240.93872,252.70198">
  <g transform="translate(-119.53064,-8.17947)">
    <g stroke-miterlimit="10">
      <path d="M204.93429,247.07959c0.01089,-0.00531 -0.04863,0.06028 -0.03769,0.05481c2.23609,-1.118 1.11724,-3.35494 1.11724,-3.35494l-0.53645,-0.48244c-0.04295,-3.72502 0.93592,-6.28774 2.98345,-9.39178c1.0998,-4.39893 3.54543,-8.66037 5.55544,-12.71909c1.26729,-2.55897 3.51928,-4.64175 4.79764,-7.20467c1.50029,-3.00788 2.25816,-6.72723 3.32232,-9.91978c0.78992,-2.36982 2.13757,-5.1389 2.49546,-7.60275c0.9519,-6.55319 -0.75763,-13.11782 -0.75763,-19.6265c0,-3.46712 -0.47702,-7.3686 -0.02557,-10.80673c0.38054,-2.89814 3.00981,-6.34892 4.45244,-8.66912c2.63843,-4.24341 6.15607,-6.382 10.35418,-8.77967c6.84717,-3.91063 12.01615,-6.95623 20.23525,-6.86715c1.04108,0.01128 1.99297,0.65497 3.02597,0.78494c3.12581,0.39327 5.28378,0.73827 8.41376,1.52078c2.44331,0.81649 5.35678,1.30621 7.694,2.28853c2.92204,1.22812 5.08237,4.09169 7.4335,6.05122c2.37288,1.97766 4.82293,3.63726 6.85777,6.05676c1.48048,1.76035 1.79599,3.21218 2.97467,5.27374c3.2361,5.66009 5.92156,12.6241 5.28341,19.31494c-0.43139,4.52298 -2.50467,8.16504 -3.91008,12.35913c-2.36789,9.6426 -7.44296,18.80702 -11.84919,27.62215c-0.62297,1.24632 -0.86627,2.67184 -1.54295,3.88984c-1.58408,2.85131 -3.95686,5.41392 -5.65306,8.14367c-1.64455,2.64664 -2.13708,5.92687 -3.8702,8.51637c-0.77874,1.16354 -2.08085,1.88809 -3.00513,2.93974c-0.84141,0.95737 -1.38843,2.16235 -2.28204,3.07119c-3.03048,3.08215 -7.05851,3.67519 -10.94173,4.96956c-2.4588,0.62995 -5.06093,0.47506 -7.58768,0.71613c-1.1711,0.11173 -2.27181,0.68006 -3.4434,0.78652c-3.16338,0.28746 -6.33594,-0.56697 -9.504,-0.79727c-3.59752,-0.26152 -6.86085,-0.28956 -10.39108,-0.77737c-1.95447,-0.27007 -3.73911,-1.38903 -5.69909,-1.61577c-3.20251,-0.37048 -5.82817,-0.10825 -8.8993,-1.40855c-1.74168,-0.73742 -3.02744,-2.31069 -4.71625,-3.16224c-1.01769,-0.51315 -1.77688,-0.80637 -2.41444,-1.10321z" fill="#a2f9ff" stroke="none" stroke-width="0.25"></path>
      <path d="M270.28633,182.77119c-0.05335,0.05852 -0.10724,0.11655 -0.16168,0.17408c0.55993,-0.44522 1.12954,-0.95666 1.71713,-1.54426c0.08208,-0.16778 0.17259,-0.33421 0.26829,-0.49988c-0.10159,0.10911 -0.20105,0.21891 -0.29763,0.32973c-0.5129,0.58855 -1.01965,1.09972 -1.52612,1.54034zM268.08059,168.81841c0.43401,-0.16642 0.86658,-0.30434 1.29317,-0.38686c-4.84284,-2.47062 -12.33535,-0.51438 -16.25175,2.77261c0.92363,-0.37109 1.8735,-0.69123 2.78664,-1.08268c1.64527,-0.77112 3.13569,-2.06605 4.9358,-2.31337c2.31118,-0.31753 5.31034,-0.96557 6.96573,0.67822c0.10458,0.10385 0.19425,0.21483 0.2704,0.33207zM256.33409,190.94531c-0.35331,0.0557 -0.70769,0.0683 -1.06384,0.0095c-0.13095,-0.02162 -0.26074,-0.04501 -0.38934,-0.07014c-3.52054,-0.23044 -6.48929,-1.15974 -7.67286,-5.02989c-3.44874,-5.08656 -3.11783,-12.69248 1.64577,-17.51003c8.08593,-8.1775 26.09741,-8.86148 29.05521,4.36959c0.34769,1.5553 0.88214,3.11033 0.85606,4.7038c-0.03015,1.84173 -2.17058,5.53495 -2.86709,6.90641c-1.25542,1.25544 -2.34703,2.69957 -3.76627,3.76633c-4.24632,3.19172 -9.29597,2.89299 -14.26183,2.8719c-0.51715,-0.0022 -1.03018,-0.00603 -1.53581,-0.01748zM256.11696,185.96385c-0.44676,-0.13279 -0.90227,-0.30822 -1.33723,-0.52368c-0.18514,0.06891 -0.3704,0.13345 -0.55555,0.19338c0.44508,0.15873 0.9266,0.27326 1.44543,0.33723c0.15095,0.01861 0.29988,0.0142 0.44735,-0.00693z" fill="#6ba3a7" stroke="none" stroke-width="0.5"></path>
      <path d="M226.49075,248.01082c-1.148,2.22083 -3.36883,1.07283 -3.36883,1.07283l-2.10938,-1.14518c-1.30145,-1.04116 -2.60289,-2.08232 -3.90434,-3.12348c0,0 -0.06065,-0.04852 -0.15202,-0.13915c-0.10234,0.23063 -0.23856,0.44289 -0.40234,0.63047c0.7426,1.05189 1.47123,2.11108 2.19451,3.17981c1.62154,0.50344 1.62154,2.3767 1.62154,2.3767l-4.01417,1.9165c-0.20157,2.18348 -2.48583,2.18348 -2.48583,2.18348l-4.01268,-3.15486c0.23879,-0.87626 0.45153,-1.75559 0.6442,-2.63743c-1.66608,0.37324 -3.60867,-0.33715 -5.36999,-0.33715l-0.4774,-1.29169c-0.26956,-0.36685 -0.4414,-0.80996 -0.47713,-1.29097l-0.73235,-1.9815c0,0 -0.31857,-1.27421 0.42968,-2.20638c-0.74825,-0.93217 -0.42968,-2.20638 -0.42968,-2.20638c1.22317,-4.83755 3.50298,-9.20522 5.33677,-13.83163l0.93213,-0.27497l-0.16154,-0.32308l3.15497,-1.57748c0.34741,-0.18291 0.74312,-0.28642 1.16302,-0.28642c0.35266,0 0.68827,0.07302 0.99253,0.20477c1.88647,-7.88739 2.61878,-16.02521 4.58211,-23.91114c0,0 0.60633,-2.42536 3.03169,-1.81903c2.42536,0.60633 1.81903,3.03169 1.81903,3.03169c-0.74247,2.95677 -1.30958,5.94843 -1.82716,8.94942c0.16598,0.04948 0.33926,0.11789 0.51982,0.20817c2.23608,1.11802 1.11806,3.35409 1.11806,3.35409c-1.18417,2.30943 -1.60347,4.95112 -2.08757,7.50089c-0.81312,4.28279 -2.14608,8.48565 -3.29818,12.68614l-0.77755,4.66544c-0.05237,0.35256 -0.17835,0.68111 -0.36181,0.96952c-0.06142,0.42458 -0.12579,0.84884 -0.19294,1.27257c1.39834,-0.92106 2.84376,0.23527 2.84376,0.23527c1.30145,1.04116 2.60289,2.08232 3.90434,3.12348l1.2819,0.60786c0,0 2.22083,1.148 1.07283,3.36883z" fill-opacity="0.53333" fill="#76b3b8" stroke="none" stroke-width="0.5"></path>
      <path d="M251.64163,258.3963c-1.13351,-2.22826 1.09475,-3.36177 1.09475,-3.36177l0.36088,-0.18187c-0.0826,-0.24826 -0.12733,-0.51382 -0.12733,-0.78983c0,-0.69036 0.27982,-1.31536 0.73223,-1.76777l3.52548,-3.52548c-0.16499,-0.33363 -0.25772,-0.70937 -0.25772,-1.10677c0,-0.34826 0.07121,-0.67988 0.19986,-0.9811l1.57892,-3.94736l0.05234,0.02094c0.05533,-0.15771 0.11572,-0.314 0.18175,-0.46869c0.67276,-1.57633 2.34149,-2.50779 3.60127,-3.66985c1.25367,-1.15641 6.36635,-5.24258 7.76973,-6.37345l2.61555,-2.41298c0.03972,-0.03688 0.08065,-0.07249 0.12271,-0.10675c3.22667,-3.95461 6.29044,-8.03343 9.09773,-12.24749c0,0 1.38675,-2.08013 3.46688,-0.69338c2.08013,1.38675 0.69338,3.46688 0.69338,3.46688c-2.84021,4.25731 -5.92708,8.38724 -9.1801,12.39152v1.18869c0.49206,0.45657 0.79999,1.10884 0.79999,1.83303c0,0.4199 -0.10352,0.81562 -0.28643,1.16303l-1.57754,3.15503l-0.03621,-0.01811c-0.0298,0.0829 -0.0611,0.16538 -0.09401,0.24744c-0.73849,1.84143 -5.61093,6.48617 -6.98652,7.8663c-3.4304,3.44173 -6.66434,6.57782 -10.46897,9.61093l-3.51684,1.80361c0,0 -2.22826,1.13351 -3.36177,-1.09475z" fill-opacity="0.53333" fill="#76b3b8" stroke="none" stroke-width="0.5"></path>
      <path d="M290.1543,163.70569c-1.64289,1.88438 -3.52728,0.24149 -3.52728,0.24149l-0.28739,-0.25056c-4.82587,-4.21473 -9.72904,-8.27896 -15.74753,-10.49302c0,0 -1.52861,-0.57324 -1.65206,-2.02851c-3.00268,-0.70115 -6.02595,-1.01648 -8.67013,-1.01229c0,0 -2.5,0 -2.5,-2.5c0,-2.5 2.5,-2.5 2.5,-2.5c10.16061,0.01463 22.79425,3.93972 27.82028,13.35098l0.34744,0.18117c0,0 0.21315,0.21314 0.41742,0.5654c0.25689,0.22148 0.51363,0.44403 0.77036,0.66749l0.28739,0.25056c0,0 1.88438,1.64289 0.24149,3.52728z" fill="#d3fcff" stroke="none" stroke-width="0.5"></path>
      <path d="M200.51425,243.21674c0.04522,-4.34043 0.97407,-7.74761 3.41323,-11.36531c1.10942,-4.43744 3.58369,-8.80768 5.64052,-12.88695c1.29023,-2.55889 3.51887,-4.64569 4.79999,-7.20005c1.40333,-2.79803 2.08232,-6.31678 3.07409,-9.29216c0.70192,-2.10579 1.9974,-4.61491 2.30396,-6.80991c0.87331,-6.25304 -0.83227,-12.56087 -0.83227,-18.79956c0,-4.70465 -0.86218,-10.12487 0.99029,-14.55669c2.12732,-5.08937 5.30917,-10.08966 9.47174,-13.73194c3.64213,-3.18689 8.2205,-5.09921 12.38319,-7.47363c2.5405,-1.44912 5.02199,-3.05554 8.02458,-3.50045c7.72541,-1.14472 14.48785,-0.19796 21.92921,1.66242c2.60956,0.86782 5.83683,1.43737 8.31241,2.51401c3.38176,1.47074 5.82998,4.46688 8.57359,6.75292c2.61497,2.17886 5.32864,4.06477 7.54833,6.74838c2.06993,2.50254 1.79935,3.07692 3.42893,5.93015c3.77984,6.6181 6.60487,14.51504 5.9256,22.3012c-0.42551,4.87747 -2.59731,8.75235 -4.08753,13.25261c-2.52286,9.93179 -7.60974,19.31282 -12.16068,28.41196c-0.66149,1.32256 -0.9421,2.82124 -1.66025,4.11391c-1.65661,2.98189 -4.09287,5.67345 -5.88327,8.51945c-1.64225,2.61052 -2.10218,5.86318 -3.809,8.43194c-0.89491,1.34685 -2.33601,2.24279 -3.39849,3.46181c-0.91468,1.04944 -1.52965,2.35223 -2.52088,3.3297c-3.77322,3.72086 -8.29035,4.63979 -13.06881,6.23257c-10.63767,2.60788 -22.42212,1.63758 -33.09942,0.06742c-1.88936,-0.27784 -3.60598,-1.3849 -5.50499,-1.58649c-3.64889,-0.38735 -6.8074,-0.28148 -10.30587,-1.79495c-1.79393,-0.77607 -3.13549,-2.37306 -4.88706,-3.24052c-3.40606,-1.68684 -5.11773,-2.36661 -7.38172,-5.65905c0,0 -1.38672,-2.08014 0.69342,-3.46687c0.81656,-0.54436 1.52626,-0.55449 2.08718,-0.36593zM204.89905,247.11509c0.63756,0.29684 1.39541,0.58878 2.4131,1.10193c1.68881,0.85155 2.97135,2.42209 4.71303,3.15951c3.07113,1.3003 5.69157,1.03452 8.89408,1.405c1.95998,0.22674 3.74049,1.34351 5.69496,1.61358c3.53023,0.48781 6.78574,0.51294 10.38326,0.77446c3.16806,0.2303 6.33259,1.08318 9.49597,0.79572c1.17159,-0.10646 2.26935,-0.67503 3.44045,-0.78676c2.52675,-0.24107 5.12211,-0.08606 7.58091,-0.71601c3.88322,-1.29437 7.90071,-1.88535 10.93119,-4.9675c0.89361,-0.90884 1.43776,-2.11283 2.27917,-3.0702c0.92428,-1.05165 2.22279,-1.77468 3.00153,-2.93822c1.73312,-2.5895 2.21858,-5.86567 3.86313,-8.51231c1.6962,-2.72975 4.06047,-5.28496 5.64455,-8.13627c0.67668,-1.218 0.91686,-2.63977 1.53983,-3.88609c4.40623,-8.81513 9.47143,-17.9455 11.83932,-27.5881c1.40541,-4.19409 3.48108,-7.82439 3.91247,-12.34737c0.63815,-6.69084 -2.03838,-13.63874 -5.27448,-19.29883c-1.17868,-2.06156 -1.49062,-3.50951 -2.9711,-5.26986c-2.03484,-2.4195 -4.47869,-4.07395 -6.85157,-6.05161c-2.35113,-1.95953 -4.50437,-4.81894 -7.42641,-6.04706c-2.33722,-0.98232 -5.24428,-1.46949 -7.68759,-2.28598c-3.12998,-0.78251 -5.28072,-1.12577 -8.40653,-1.51904c-1.033,-0.12997 -1.98221,-0.7733 -3.02329,-0.78458c-8.2191,-0.08908 -13.36925,2.95495 -20.21642,6.86558c-4.19811,2.39767 -7.70387,4.5312 -10.3423,8.77461c-1.44263,2.3202 -4.06425,5.76544 -4.44479,8.66358c-0.45145,3.43813 0.03228,7.33241 0.03228,10.79953c0,6.50868 1.71961,13.04727 0.76771,19.60046c-0.35789,2.46385 -1.70605,5.2203 -2.49597,7.59012c-1.06416,3.19255 -1.82564,6.89991 -3.32593,9.90779c-1.27836,2.56292 -3.5327,4.64107 -4.79999,7.20004c-2.01001,4.05872 -4.45975,8.31409 -5.55955,12.71302c-2.04753,3.10404 -3.02918,5.66354 -2.98623,9.38856l0.53607,0.48204c0,0 1.118,2.23608 -1.11809,3.35408c-0.01094,0.00547 -0.02186,0.01086 -0.03275,0.01617z" fill="#293e40" stroke="none" stroke-width="0.5"></path>
      <path d="M119.53064,53.17947v-45h240.93872v45z" fill="#ffffff" stroke="none" stroke-width="0"></path>
      <text transform="translate(132.54956,38.98335) scale(0.69199,0.69199)" font-size="40" xml:space="preserve" fill="#000000" stroke="#000000" stroke-width="3" font-family="&quot;JetBrains Mono&quot;, Sans Serif" font-weight="normal" text-anchor="start">
        <tspan x="0" dy="0">Этап пройден!</tspan>
      </text>
    </g>
  </g>
</svg>
