<?xml version="1.0" encoding="UTF-8"?>
<svg xmlns="http://www.w3.org/2000/svg" xmlns:xlink="http://www.w3.org/1999/xlink" version="1.1" width="115.22178" height="115.22177" viewBox="0,0,115.22178,115.22177">
  <g transform="translate(-182.38911,-122.38911)">
    <g stroke-opacity="0.45882" stroke="#000000" stroke-miterlimit="10">
      <path d="M296.36088,223.24575c0,7.9788 -6.32551,13.11514 -12.47226,13.11514c-13.06451,0 -62.8835,0 -87.00577,0c-8.05426,0 -13.24374,-6.26142 -13.24374,-15.68675c0,-24.44785 0,-70.18266 0,-83.14837c0,-6.73371 5.74984,-13.88665 14.52954,-13.88665c24.30136,0 71.81534,0 84.86278,0c6.50435,0 13.32946,6.6496 13.32946,13.02945c0,13.23182 0,62.66727 0,86.57718z" fill-opacity="0.34118" fill="#909090" stroke-width="2.5"></path>
      <path d="M285.08866,181.32319c0.91586,0.6895 0.86716,1.74405 -0.09929,2.33768c-3.7311,2.2918 -27.50391,16.89403 -35.07072,21.54187c-1.45404,0.89314 -2.27527,-0.26547 -2.24522,-1.73707c0.06995,-3.42528 0.34916,-17.09689 0.34916,-17.09689c0,0 -45.24239,-0.24555 -51.34847,-0.27869c-1.3256,-0.00719 -2.42008,-1.18138 -2.42008,-2.12952c0,-1.06757 0,-3.64484 0,-5.75c0,-1.72537 1.34978,-3.11928 2.91786,-3.10264c6.5193,0.06919 50.43507,0.53529 50.43507,0.53529c0,0 0.37295,-16.23679 0.4519,-19.6738c0.02803,-1.2205 0.72276,-1.97964 1.87676,-1.11086c6.92823,5.21585 31.45382,23.67972 35.15304,26.46464z" fill-opacity="0.58824" fill="#ffffff" stroke-width="0"></path>
    </g>
  </g>
</svg>
