<?xml version="1.0" encoding="UTF-8"?>
<svg xmlns="http://www.w3.org/2000/svg" xmlns:xlink="http://www.w3.org/1999/xlink" version="1.1" width="321.19994" height="336.77921" viewBox="0,0,321.19994,336.77921">
  <g transform="translate(-79.40003,-11.6104)">
    <g stroke="none" stroke-miterlimit="10">
      <path d="M88.31565,328.6104c0,0 16,-20.5985 16,-32.10001c0,-24.14805 -6.06414,4.50221 -10.04872,-44.1924c-0.59522,-7.27412 3.74438,-65.15844 3.01263,-73.75344c-0.23731,-2.78745 -17.45194,-68.53772 -17.64152,-71.24481c-1.94572,-27.78276 8.67761,-71.70934 8.67761,-71.70934c0,0 -12.60264,-21.46011 8.4239,-20.44654c5.86827,0.28288 21.73281,18.2132 32.25081,17.57214c19.88693,-1.21209 85.77117,-14.42446 107.91596,-15.43106c14.92427,-0.67839 40.54072,1.62046 54.14997,0.91386c29.89262,-1.55204 65.36001,-6.60839 73.85938,-6.60839c6.34357,0 25.39999,15 25.39999,15c0,0 -4.30426,16.55744 -1.677,49.84293c2.20947,27.99243 11.3705,71.03601 11.83896,94.14703c0.97157,47.9307 -4.16196,152.01005 -4.16196,152.01005c0,0 6.8751,16.10871 -32.52064,19.49727c-5.19656,0.44698 -28.0068,-7.08378 -34.50223,-6.59417c-5.41818,0.40841 -27.16192,3.80264 -33.24331,4.17608c-4.59181,0.28197 -30.28214,8.51628 -35.06363,8.69531c-8.42783,0.31554 -43.80911,-15.34526 -52.03061,-14.98105c-9.93324,0.44004 -39.34412,6.82986 -47.9634,7.15102c-2.72426,0.1015 -17.35563,-9.79234 -19.88468,-9.68134c-10.6975,0.46953 -30.35234,15.73688 -36.1915,15.73688c-17.79261,0 -16.6,-18 -16.6,-18z" fill="#d6d6d6" stroke-width="0"></path>
      <path d="M114.91565,303.51039l-11,-15c0,0 12.57555,13.59144 33.19615,18.10359c30.25914,6.62123 74.38191,5.22504 93.09351,7.37227c14.12883,1.62134 55.71035,9.52414 55.71035,9.52414l65,-5c0,0 -60.0161,13.57931 -88.76511,11.92299c-10.7767,-0.62088 -41.27907,-11.44 -57.09454,-13.84571c-8.9022,-1.35412 -54.71337,6.39113 -63.18379,5.2433c-39.11052,-5.29991 -26.95656,-18.32058 -26.95656,-18.32058z" fill="#9e9e9e" stroke-width="0"></path>
      <path d="M121.87221,32.25288c8.47042,-1.14784 54.2816,6.59742 63.18379,5.2433c15.81547,-2.4057 46.31783,-13.22483 57.09454,-13.84571c28.74901,-1.65632 88.76511,11.923 88.76511,11.923l-65,-5c0,0 -41.58152,7.9028 -55.71035,9.52414c-18.71159,2.14723 -62.83437,0.75104 -93.0935,7.37226c-20.6206,4.51215 -33.19615,18.10359 -33.19615,18.10359l11,-15c0,0 -12.15397,-13.02067 26.95656,-18.32058z" fill="#9e9e9e" stroke-width="0"></path>
      <path d="M110.42757,162.02314c-0.68809,-0.10593 -2.14961,-0.5559 -2.14961,-2.46739c0,-0.61171 0.14968,-1.07375 0.37578,-1.42273c-1.61626,-5.41196 -4.18026,-10.52607 -5.96697,-15.89886c-1.48869,-4.47661 -2.66282,-9.37875 -3.85478,-13.95896c-1.02917,-3.95468 -2.06501,-9.66352 0.94478,-13.2097c1.18627,-1.39768 6.50952,-4.12004 7.8435,-4.88119c4.38769,-2.50356 9.09604,-3.68338 13.80317,-5.44935c2.79869,-0.838 5.43058,-2.21123 8.26739,-2.90938c4.39249,-1.08101 9.02026,-0.50359 13.47962,-1.46072c1.79409,-0.38507 6.66772,-1.95355 8.45215,-1.35459c4.44852,1.49318 4.79593,8.23808 5.48114,11.92373c1.02364,5.50599 2.6348,10.71152 3.80527,16.16478c0.43083,2.00726 0.39539,4.10594 0.92811,6.0886c1.3128,4.88594 3.36507,9.32782 3.41575,14.44752c-0.02203,2.87717 0.42858,5.70779 -1.50355,8.23998c-2.083,2.72991 -7.57703,3.85605 -10.55524,5.04716c-7.3055,2.92178 -14.65501,4.61667 -22.16697,6.75601c-3.97216,1.13124 -9.12233,2.56784 -13.30285,1.99853c-1.43475,-0.19539 -3.06177,-0.15492 -4.22234,-1.0208c-1.252,-0.9341 -2.30929,-4.31732 -3.07436,-6.63264zM113.74762,158.2997l0.78203,0.32757c0.63578,1.58945 1.40388,3.13216 1.90735,4.76834c0.13526,0.43956 -0.16549,1.08601 0.20002,1.36514c1.04612,0.79889 2.6371,0.04879 3.94826,-0.06714c2.98391,-0.26381 6.18094,-0.99536 9.04391,-1.81617c7.36096,-2.11038 14.54467,-3.73209 21.7018,-6.59533c1.88186,-0.75285 7.10769,-1.80391 8.51812,-3.53587c0.73717,-0.90521 0.40667,-4.80411 0.40376,-5.11135c0.06043,-4.60604 -2.09507,-8.81037 -3.2599,-13.20888c-0.54482,-2.05729 -0.53404,-4.22796 -0.9792,-6.30908c-1.17189,-5.47854 -2.79836,-10.72536 -3.82411,-16.25996c-0.45642,-2.4627 -0.88318,-4.94391 -1.6258,-7.33593c-0.09175,-0.29552 -0.21397,-0.74248 -0.5224,-0.76736c-2.57376,-0.20763 -6.17599,1.56517 -8.81196,2.0016c-3.36898,0.5578 -6.96395,0.06456 -10.26403,0.90508c-2.72245,0.6934 -5.25447,2.00399 -7.94495,2.81266c-4.38871,1.64501 -8.8204,2.70638 -12.89957,5.04099c-2.15438,1.23301 -4.73014,1.92308 -6.46152,3.70184c-2.59175,2.66266 -0.01926,8.68301 0.90721,11.46243c1.19979,3.59938 1.66044,7.37488 2.85847,10.95963c1.89651,5.67476 4.57564,11.06104 6.23347,16.80052c0,0 0.10573,0.37005 0.08902,0.86125z" fill="#696969" stroke-width="0.5"></path>
      <g fill="#696969" stroke-width="0.5">
        <path d="M228.61515,222.66757c1.83701,1.6957 0.14131,3.53271 0.14131,3.53271l-1.53437,1.59065c-3.72076,2.62131 -7.73405,4.55027 -11.69922,0.74154c-0.34235,-0.32885 -2.23079,-5.12144 -2.54623,-5.90438c0,0 -0.93427,-2.31887 1.3846,-3.25313c2.31887,-0.93427 3.25313,1.3846 3.25313,1.3846c1.09025,2.70603 1.1544,6.2388 4.89648,4.32876c0.66061,-0.33719 1.18247,-0.89566 1.7737,-1.34348l0.79788,-0.93596c0,0 1.6957,-1.83701 3.53271,-0.14131z"></path>
        <g>
          <path d="M154.00582,280.03335l-4.06872,-0.1561c1.95222,-12.17904 2.09183,-24.76632 2.51472,-37.10223c0.40161,-2.52377 2.08167,-9.0416 0.05854,-11.29348c-0.58219,-0.64802 -1.49428,1.00807 -1.92939,1.76275c-2.19066,3.79964 -3.41854,8.82632 -4.8664,12.92469c-4.05167,11.46883 -7.44061,23.17663 -11.66299,34.57991c0,0 -0.86856,2.34427 -3.21283,1.47572c-2.34427,-0.86855 -1.47572,-3.21283 -1.47572,-3.21283c3.62148,-9.76856 6.95884,-19.74143 10.15389,-29.66316c0.99855,-3.10083 2.1382,-6.1547 3.25353,-9.21546c1.14059,-3.13008 1.65204,-6.91154 3.6574,-9.67305c3.79377,-5.22428 9.25263,-5.28622 11.63078,1.39763c1.03937,2.92116 -0.16025,8.42944 -0.62948,11.39277c-0.3632,11.4354 -0.5822,23.05677 -2.11472,34.40251c0.68241,1.12766 0.00538,2.43075 0.00538,2.43075l-0.35294,-0.01354c-0.0301,0.19706 -0.06063,0.39403 -0.0916,0.5909z"></path>
          <path d="M175.58747,264.75365c-0.26514,-0.0413 -3.09142,-1.3434 -5.06361,-2.26115c-3.12916,7.04881 -5.77486,14.38329 -8.0219,21.66845c0,0 -0.73717,2.38884 -3.12602,1.65167c-2.38884,-0.73717 -1.65167,-3.12602 -1.65167,-3.12602c4.83954,-15.67542 11.67832,-30.19573 20.67218,-43.76752c2.54252,-3.83668 7.94247,-10.62629 12.57681,-4.4761c0.86991,1.15445 0.61579,2.82467 0.92369,4.237c-0.68661,15.67839 -5.20116,30.73709 -10.08378,45.54709c-0.03756,0.41217 -0.14448,0.70076 -0.14448,0.70076l-0.09019,0.01003c-0.24195,0.73187 -0.48467,1.46314 -0.72773,2.19387l-1.87064,-1.90464l-2.87148,0.31962c2.39727,-7.14098 4.76172,-14.36027 6.67341,-21.68099c-2.23826,0.51018 -4.9836,1.2323 -7.19458,0.88793zM176.4535,259.82924c1.1487,0.18753 4.19516,-0.60335 5.4351,-0.88777l2.05795,0.19495c1.5282,-6.62909 2.61659,-13.34436 2.95902,-20.16269c-0.0243,-0.66126 0.24737,-2.09868 -0.39629,-1.94516c-1.14615,0.27337 -1.80414,2.05669 -2.27104,2.67962c-2.86233,3.81886 -6.204,7.99925 -8.50996,12.2152c-1.10124,2.01339 -2.15445,4.06848 -3.16194,6.15606c1.24421,0.74869 2.47936,1.51996 3.88715,1.74979z"></path>
          <path d="M219.48204,287.14824l-4.13783,0.63083c-0.02394,-4.80605 1.09172,-8.88573 2.60255,-13.40386c0.57663,-1.98317 1.14166,-3.93655 1.72208,-5.86715c-1.28292,2.40462 -2.55487,4.81871 -3.81963,7.2528c-2.41833,4.04043 -5.48271,9.54247 -9.27181,12.43374c-6.16064,4.70088 -13.04676,0.34799 -12.88029,-7.03728c0.13116,-5.81868 2.91806,-11.78756 4.32639,-17.3678c2.04256,-8.09331 3.0812,-17.55746 7.35073,-24.81567c0,0 1.28089,-2.14694 3.42782,-0.86605c2.14693,1.28089 0.86605,3.42782 0.86605,3.42782c-2.49654,4.11106 -3.20028,9.16117 -4.36811,13.77879c-1.59999,6.32636 -3.06673,12.69689 -5.01582,18.92832c-0.73941,2.36398 -3.47276,8.85864 -0.34436,10.75038c1.45689,0.88098 2.54142,0.15011 3.59091,-0.76307c3.19728,-2.78199 5.8,-7.28428 7.95123,-10.90374c4.90984,-9.45101 9.60763,-19.05067 14.61468,-28.45704c0.95089,-1.78637 3.70746,-8.21258 7.84634,-3.96494c2.47058,2.53551 -0.27823,7.21871 -1.51358,9.48575c-2.68574,4.9287 -5.25008,10.04642 -7.15064,15.34631c-1.181,3.29333 -1.58777,6.7599 -2.55855,10.12685c-0.96931,2.90104 -1.80005,5.5659 -2.1709,8.43166c1.0201,1.09614 0.3651,2.63499 0.3651,2.63499l-0.56755,0.08653c-0.00447,0.23919 -0.00545,0.48047 -0.0028,0.72406z"></path>
          <path d="M251.27791,286.18278l-3.52696,-0.89227c3.48225,-5.83671 5.38168,-11.09602 3.79738,-17.7662c-0.17875,-0.75256 -0.01504,-3.05736 -1.12525,-3.7246c-0.28929,-0.17386 -0.6129,-0.26745 -0.94648,-0.33771c-0.11322,0.29345 -0.22887,0.58724 -0.34699,0.88141c-3.1596,7.86863 -6.6255,14.79788 -7.968,23.25523l-0.29902,1.88376c0,0 -0.39193,2.46909 -2.86102,2.07715c-2.46909,-0.39193 -2.07715,-2.86102 -2.07715,-2.86102l0.29902,-1.88376c2.04397,-12.87651 9.33178,-23.68856 12.0533,-36.3682c0.80178,-3.73552 0.67253,-7.22215 0.79723,-11.00681c0,0 0.08266,-2.49863 2.58129,-2.41598c2.49863,0.08266 2.41598,2.5813 2.41598,2.5813c-0.20194,6.07916 -0.93226,11.74821 -2.47115,17.39645c0.96188,-0.13608 1.86921,-0.29737 2.25151,-0.46219c0.337,-0.14528 0.66796,-0.30687 0.99278,-0.48332c2.23917,-2.49865 4.96655,-4.42852 7.04779,-7.06694c0.34964,-0.54111 0.68037,-1.08868 0.99184,-1.63619c0.30926,-0.79027 0.5365,-1.64207 1.13106,-2.15166c0.0999,-0.20606 0.19688,-0.41083 0.2909,-0.61397l0.11658,-0.07914l-0.05396,-0.03219l1.2858,-2.15517c0.49899,-0.88216 1.50886,-1.40645 2.5687,-1.23821c1.36364,0.21646 2.29361,1.49738 2.07715,2.86102c-0.04655,0.29323 -0.14231,0.56641 -0.27754,0.81245l-1.3635,2.62437l-0.00982,-0.00511c-0.00392,0.01534 -0.00788,0.03066 -0.0119,0.04598c-0.59449,2.27069 -1.99457,4.14428 -3.65679,5.85392c-1.95432,2.66108 -4.3168,5.05989 -7.04901,6.74103l-0.66695,0.5462c0,0 -0.54489,0.3956 -1.27441,0.4934c-0.09403,0.04304 -0.18843,0.0852 -0.28322,0.12649c-0.29002,0.12634 -0.65486,0.2396 -1.06577,0.34144c0.79703,1.14251 1.22851,2.63313 1.76923,4.83499c1.60739,6.54544 0.41684,12.17148 -2.35915,17.82215c0.47413,1.38623 -0.70163,2.52603 -0.70163,2.52603l-0.55838,-0.14126c-0.241,0.42784 -0.49004,0.85658 -0.7466,1.28661z"></path>
          <path d="M278.83119,289.83306c-2.46909,-0.39193 -2.07715,-2.86102 -2.07715,-2.86102l0.39705,-2.28434c1.81603,-5.40958 3.90849,-10.67443 5.76708,-16.03485c-0.80921,0.45711 -1.73965,0.30941 -1.73965,0.30941l-0.58875,-0.11889c-3.19675,-0.05531 -5.43023,-0.26462 -8.03641,-1.28926c-1.60557,6.06173 -2.65296,12.36537 -3.5765,18.18341l-0.14951,0.94186c0,0 -0.39193,2.46909 -2.86102,2.07715c-2.46909,-0.39193 -2.07715,-2.86102 -2.07715,-2.86102l0.14951,-0.94186c1.68197,-10.59598 3.82384,-22.53641 8.6192,-32.23901c1.40694,-2.84671 3.2528,-5.60682 4.72827,-8.4467c0,0 1.1526,-2.21845 3.37105,-1.06585c2.21845,1.1526 1.06585,3.37105 1.06585,3.37105c-1.47046,2.83025 -3.29541,5.56864 -4.70552,8.40239c-1.22123,2.45417 -2.2566,5.07236 -3.14866,7.78329c2.25003,1.01317 3.86395,1.04674 6.69853,1.08517l1.29498,0.18012c0,0 1.52975,0.24283 1.98992,1.55032c0.91431,-2.82286 1.73831,-5.68427 2.39932,-8.61845c0.83194,-3.69295 0.70528,-7.48887 1.29406,-11.22461c0,0 0.39193,-2.46909 2.86102,-2.07715c2.46909,0.39193 2.07715,2.86102 2.07715,2.86102c-0.61522,3.84605 -0.50604,7.71496 -1.35232,11.52994c-2.17226,9.7925 -6.20263,18.80064 -9.33834,28.22757l-0.20099,1.48318c0,0 -0.39193,2.46909 -2.86102,2.07715z"></path>
          <path d="M308.62835,298.7783c-2.46633,0.40895 -2.87528,-2.05737 -2.87528,-2.05737l-0.28026,-1.87723c0.0077,-3.02311 0.63628,-6.06571 1.61783,-9.08201c-0.93244,1.19947 -1.86176,2.40136 -2.86152,3.54445c-3.41053,3.89947 -11.26621,10.44573 -15.32215,2.95083c-0.66009,-1.21976 -0.29285,-2.76662 -0.25388,-4.15298c0.25958,-9.23414 4.47204,-18.079 7.22997,-26.8006c1.26455,-3.99899 2.6263,-6.89293 2.66072,-11.0701c0,0 0.03879,-2.4997 2.53849,-2.46091c2.4997,0.03879 2.46091,2.53849 2.46091,2.53849c-0.05648,2.62769 -0.43928,5.28339 -1.23983,7.7868c-2.0647,6.45651 -4.36879,12.80411 -6.43734,19.25946c-0.55414,1.72932 -1.47885,3.36262 -1.75468,5.15749c-0.16033,1.04333 0.05727,2.11433 -0.02606,3.16661c-0.12655,1.59797 -2.07668,6.44385 1.74535,4.5513c0.75857,-0.37562 1.38627,-0.97925 2.01218,-1.54912c0.92535,-0.84252 1.81217,-1.73186 2.6309,-2.67833c1.64313,-1.89947 3.10108,-3.95273 4.71598,-5.87626c2.34829,-3.28032 5.38328,-6.05063 7.69681,-9.29399c1.57177,-2.20349 2.78657,-4.53646 3.93471,-6.90927c0.55235,-1.79476 1.10884,-3.5847 2.34461,-4.87489c0.15108,-0.30237 0.30427,-0.60439 0.46015,-0.90589l0.06737,-0.0453l-0.03068,-0.01831l1.2858,-2.15517c0.49899,-0.88216 1.50887,-1.40645 2.56871,-1.23821c1.36364,0.21646 2.29361,1.49738 2.07715,2.86102c-0.04655,0.29323 -0.14231,0.56641 -0.27754,0.81245l-1.33336,2.56636c-0.09625,0.36515 -3.32015,7.28409 -3.68174,8.06213c-2.01911,4.34456 -3.92012,8.7328 -5.94149,13.07214c-1.86442,4.00242 -3.98332,8.26451 -3.88753,12.74319l0.21306,1.09793c0,0 0.40896,2.46633 -2.05737,2.87528z"></path>
        </g>
      </g>
      <path d="M171.73091,154.9631c0.02366,-0.14195 0.05412,-0.27436 0.09054,-0.39787c-1.76706,0.10173 -2.38044,-1.73842 -2.38044,-1.73842c-2.58156,-7.74483 -6.09135,-15.59445 -7.69943,-23.61914c-0.49625,-2.47642 -0.30688,-5.0717 -0.92705,-7.52003c-0.81514,-3.21803 -1.76236,-6.39626 -2.42234,-9.7017c-0.59112,-2.96054 -1.06529,-6.12903 -1.44313,-9.12946c-0.16884,-1.34071 -0.84188,-2.76087 -0.39158,-4.03493c1.17777,-3.33238 4.00899,-3.6261 6.74862,-4.56579c3.25822,-0.02534 5.27101,-0.61593 8.38082,-1.38906c4.83758,-1.20268 9.88648,-1.55567 14.71088,-2.84225c1.8318,-0.48851 3.36214,-1.80298 5.17338,-2.36292c1.14707,-0.35461 2.38825,-0.28229 3.56186,-0.53559c2.51138,-0.54202 7.6721,-2.74189 10.23553,-1.87516c2.71376,0.91755 5.00917,4.08273 6.31226,6.46726c2.70602,4.95178 4.1065,10.68869 4.1102,16.27225c1.02586,7.08327 2.1335,14.1641 3.3101,21.22377c0.70018,4.20113 1.90121,9.01248 0.35688,13.19562c-1.50258,4.07006 -6.1212,8.04159 -10.02273,9.57235c-6.27281,2.46114 -13.73947,2.35383 -20.33073,3.43419c-4.08705,1.37322 -7.76468,2.26637 -12.04666,2.93472l-3.27199,-0.51084c0,0 -2.46599,-0.41099 -2.05499,-2.87698zM174.20678,152.88243c0.24293,-0.00069 0.40111,0.02567 0.40111,0.02567l2.45001,0.44281c3.85066,-0.69506 7.12882,-1.55803 10.84139,-2.78728c4.50866,-0.76198 9.05238,-1.25945 13.5717,-1.95166c2.79233,-0.42769 6.07893,-0.65394 8.4572,-2.41851c1.48359,-1.10076 4.18169,-3.65971 4.83773,-5.51135c1.45437,-4.10483 -0.44752,-9.43707 -1.07821,-13.53579c-0.96424,-6.26639 -1.99819,-12.52341 -2.88411,-18.80162c0.00334,-4.95482 -1.18013,-9.81635 -3.51917,-14.24515c-0.30469,-0.57692 -2.27763,-3.71794 -3.22443,-4.02307c-1.46669,-0.47268 -3.01667,0.63205 -4.51794,0.97961c-3.23348,0.74858 -6.07265,1.35025 -9.06232,2.7028c-5.52467,2.49939 -11.78016,2.49989 -17.58757,3.96035c-3.1046,0.78075 -5.53387,1.50091 -8.78516,1.47194c-0.95973,0.30194 -2.66326,0.15791 -2.78806,1.15624c-0.07353,0.58817 0.43008,1.1092 0.56207,1.68706c0.67501,2.95506 0.82365,6.02412 1.4179,8.99026c0.64089,3.19891 1.57649,6.25704 2.346,9.37166c0.62365,2.52426 0.4714,5.18876 0.98025,7.73865c1.56544,7.84453 5.03607,15.54093 7.55925,23.11063c0,0 0.26906,0.8072 0.02234,1.63674z" fill="#696969" stroke-width="0.5"></path>
      <path d="M213.94793,86.11897c0.57088,0.55978 0.75492,1.29594 0.75492,1.29594c0.54281,2.17574 0.74601,4.43546 1.40431,6.57909c0.71071,2.3143 2.14676,4.36246 2.86099,6.67567c2.60723,8.44414 4.6291,17.33806 5.79912,26.10831c0.55251,4.14148 0.88514,8.12334 1.83861,12.06774c0.21858,0.90422 0.26766,2.18497 1.1208,2.55584c3.42211,-0.11685 6.73658,-0.7975 10.14453,-1.03954c1.82106,-0.12933 3.67706,0.33344 5.47688,0.02745c3.1895,-0.54225 6.29193,-1.88327 9.55484,-2.38705c3.02112,-0.46645 6.03801,-0.96948 9.05986,-1.43052c0.23237,-0.03545 4.27553,-0.48044 5.01683,-0.91c1.67396,-0.96999 -0.50143,-4.36764 -0.81441,-5.38691c-1.75315,-5.70954 -3.90228,-12.65871 -3.92103,-18.61608c-1.58656,-7.02837 -3.0814,-14.27532 -4.27243,-21.31932c-0.81691,-4.83142 -2.24131,-8.76288 -3.69613,-13.37929c-0.20543,-0.65186 -0.049,-1.43519 -0.42515,-2.00583c-0.83615,-1.26847 -5.76644,0.61963 -6.21428,0.72372c-4.98908,1.15951 -9.67405,2.83166 -14.59278,4.24104c-5.53107,1.84264 -11.05376,3.36616 -16.56816,5.20431l-2.31559,0.9274c0,0 -0.07824,0.0313 -0.21174,0.06803zM211.53731,85.63208c-0.2406,-0.23276 -0.4573,-0.54883 -0.62731,-0.97385c-0.92848,-2.32119 1.39271,-3.24967 1.39271,-3.24967l2.45275,-0.97994c5.59993,-1.86666 11.19843,-3.41447 16.81023,-5.28603c5.04267,-1.43648 9.84962,-3.16799 14.97093,-4.34199c2.8395,-0.65092 4.20002,-1.66873 7.22138,-0.96977c4.93814,1.14239 5.61322,6.00013 7.1199,10.17802c1.43313,3.97394 1.33759,8.08824 2.44424,12.10711c1.70956,6.20838 2.50401,12.65927 3.89219,18.99738c-0.01868,5.63428 2.0445,12.22726 3.70835,17.62331c0.7776,2.52184 2.16579,3.9277 1.50228,6.98604c-1.27163,5.8614 -7.96369,5.50161 -12.52987,6.26264c-2.97395,0.49566 -6.01355,0.7815 -8.96178,1.41213c-2.29893,0.49175 -4.46439,1.54686 -6.78431,1.92744c-0.85445,0.14017 -4.91909,-0.04787 -5.96711,0.02745c-4.03088,0.28972 -7.71929,0.9518 -11.78987,0.86777c-1.26111,-0.81093 -2.87353,-1.24105 -3.78333,-2.4328c-0.7456,-0.97667 -0.47091,-2.41561 -0.81787,-3.59435c-1.22139,-4.14951 -1.39525,-8.36921 -1.97607,-12.72766c-1.7938,-13.46052 -6.70212,-25.82487 -9.9626,-38.83771c0,0 -0.58373,-2.33485 1.68516,-2.99554z" fill="#696969" stroke-width="0.5"></path>
      <path d="M145.70819,145.69354c0.24783,0.02531 0.51656,0.09062 0.80712,0.20684c2.32119,0.92848 1.39271,3.24967 1.39271,3.24967c-0.73075,1.81169 -1.52038,4.2002 -2.93759,5.60763c-5.26991,5.23352 -12.52548,3.40304 -18.43178,1.03025c-1.83611,-0.73764 -4.16854,-1.51145 -5.60762,-2.93759c-3.82127,-3.78691 -6.39325,-12.63158 -6.40923,-17.86296l-0.79882,-1.99705c-0.12865,-0.30123 -0.19987,-0.63286 -0.19987,-0.98112c0,-1.38071 1.11929,-2.5 2.5,-2.5c0.998,0 1.85942,0.58479 2.26028,1.4304l1.4063,2.81256l-0.37228,0.18614l0.11426,-0.01769c0.00043,0.09911 0.00181,0.20004 0.00412,0.30269c0.11893,0.2211 0.22484,0.44957 0.3157,0.68636c0.05245,0.1367 0.18995,-0.23478 0.22587,-0.37671c0.15228,-0.60174 0.18358,-1.22967 0.33311,-1.8321c0.26305,-1.05975 0.65414,-2.08563 0.90319,-3.14876c0.65722,-2.80558 0.41563,-5.65496 0.41563,-8.51006v-2.86102c0,-1.38071 1.11929,-2.5 2.5,-2.5c0.88153,0 1.6565,0.45626 2.10164,1.14552l1.88584,2.82876l-0.04053,0.02702c0.05842,0.0645 0.1161,0.12978 0.17296,0.19586c1.85902,2.1603 0.64333,7.4373 3.00911,9.11089c0.40375,0.28563 0.99024,0.08496 1.48307,0.04351c3.79928,-0.31953 5.32751,-1.55305 7.24173,-4.76576l0.87675,-2.19186c0.35452,-0.94948 1.26971,-1.62559 2.34282,-1.62559c1.28702,0 2.3469,0.97254 2.48481,2.22281l0.47007,3.7605c2.02304,6.04587 1.26129,13.03419 -0.44935,19.26088zM138.75958,152.89872c-0.28589,-0.15357 -0.57244,-0.38813 -0.84692,-0.73124c-1.56174,-1.95217 0.39042,-3.51391 0.39042,-3.51391l1.89523,-1.38509c1.22316,-4.29418 2.26114,-8.71191 1.93969,-13.19659c-0.1046,-1.45941 -0.44678,-2.70254 -0.64146,-3.84361c-3.45703,3.44308 -8.43581,5.91116 -13.05221,2.89374c-1.09109,-0.71317 -1.80647,-1.80727 -2.31636,-3.04424c-0.22779,1.35546 -0.55907,2.71492 -1.04085,4.10079c-0.45931,1.32124 -0.46413,3.03886 -1.57423,3.88993c-1.03081,0.79028 -2.21667,1.3582 -3.36643,1.57708c0.80907,3.68833 2.28426,7.60062 4.3201,9.66924c0.62139,0.63139 3.26824,1.56766 3.92906,1.83075c3.0495,1.21408 7.01439,2.8522 10.36396,1.75317z" fill="#696969" stroke-width="0.5"></path>
      <path d="M134.11168,152.9036c-0.7554,-0.32375 -1.15605,-0.7894 -1.35353,-1.26866c-0.16079,0.02615 -0.33465,0.04029 -0.52265,0.04029c-0.45556,0 -0.82811,-0.08301 -1.13277,-0.21879c-0.53152,0.54599 -1.48028,1.11469 -2.84626,0.4317c-1.05593,-0.52796 -1.3639,-1.30525 -1.39486,-1.97865c-0.55729,0.37928 -1.36391,0.59927 -2.41984,0.07129c-2.23606,-1.11804 -1.11802,-3.35411 -1.11802,-3.35411l0.95367,-1.90731c0.15672,-0.31344 0.97679,-1.9549 1.8073,-3.61423c-0.17536,-0.48254 -0.1709,-0.96659 -0.1402,-1.27299c-1.0001,1.58236 -2.07015,3.1095 -3.17906,4.54618c-0.13303,0.7194 -0.62575,2.05173 -2.45081,2.05173c-2.5,0 -2.5,-2.5 -2.5,-2.5l0.54783,-2.03857c2.87613,-3.56808 5.57937,-7.98164 7.26031,-12.24125c0,0 0.92847,-2.3212 3.24966,-1.39273c2.32119,0.92846 1.39273,3.24966 1.39273,3.24966c-0.16039,0.39654 -0.3277,0.79332 -0.50152,1.18987c0.78916,-1.27111 1.43867,-2.60152 2.00748,-4.3394c0,0 0.79058,-2.37171 3.16228,-1.58114c2.3717,0.79058 1.58113,3.16228 1.58113,3.16228c-0.80763,2.3867 -1.7619,4.21656 -2.94811,6.03542l-0.46229,1.618c0.89706,-1.49226 1.80702,-2.98067 2.70963,-4.48506c0,0 1.28625,-2.14373 3.42998,-0.85749c0.33622,0.20173 0.58807,0.42455 0.77373,0.65689c0.18634,0.05861 0.38128,0.14214 0.58463,0.25511c2.18539,1.21411 0.97128,3.39951 0.97128,3.39951c-1.00081,1.80143 -1.99537,3.6059 -2.99147,5.40944c0.15799,0.04878 0.32253,0.11468 0.49361,0.20022c2.23607,1.11803 1.11804,3.3541 1.11804,3.3541c-0.46621,0.93162 -0.93242,1.86324 -1.39863,2.79486l-1.4006,3.27078c0,0 -0.9848,2.29786 -3.28267,1.31305z" fill="#696969" stroke-width="0.5"></path>
      <path d="M177.59773,105.28128l0.22312,-0.37669c-0.11344,0.03516 -0.22689,0.07015 -0.34038,0.10483c-0.25888,0.0791 -0.89413,-0.12896 -0.8023,0.12568c0.16505,0.45768 0.83061,0.55233 1.14155,0.92007c-0.05877,-0.27098 -0.12434,-0.53615 -0.22198,-0.77389zM181.75697,136.71249c0.02338,-0.08961 0.05216,-0.17819 0.08584,-0.26581c-0.06936,0.01289 -0.13942,0.02441 -0.21022,0.03454c0.00154,0.0184 0.00338,0.03682 0.00552,0.05528c0.00983,0.08472 0.05322,0.14054 0.11885,0.17599zM182.41892,143.45323c0,0 0,2.5 -2.5,2.5c-2.5,0 -2.5,-2.5 -2.5,-2.5c0.02476,-3.06474 -0.68987,-6.16027 -1.61649,-9.19403c-1.14911,-1.37187 -1.65003,-3.2181 -1.72101,-5.19137c-0.1158,-0.34104 -0.23034,-0.68052 -0.34278,-1.01829c-0.72162,-2.16774 -2.45858,-4.83682 -1.24365,-7.27989c0.59805,-1.2026 2.2379,-1.48382 3.50152,-1.99369c-0.00956,-0.42006 0.06654,-0.72445 0.06654,-0.72445c0.1347,-0.53868 0.26773,-1.07778 0.39923,-1.61727c-0.42091,-1.01369 -0.84129,-2.0276 -1.24871,-3.04676c-0.67496,-1.68842 -1.19267,-3.43657 -1.85744,-5.12902c-0.49705,-1.26546 -1.88758,-2.39733 -1.6405,-3.73427c0.82337,-4.45526 6.53268,-5.02835 9.82933,-5.52473c4.1278,1.40637 7.07662,3.01766 7.98137,7.74157c0.01073,0.056 0.25355,2.82632 -0.00913,4.88224c0.20773,-0.13866 0.4015,-0.26007 0.55948,-0.35435c0.88939,-0.53078 1.71321,-1.19679 2.67536,-1.58021c4.1901,-1.66974 8.41069,-1.78038 11.18836,2.34771c1.55696,2.31391 1.81032,4.77166 0.79089,7.35358c0.06435,0.22163 0.09883,0.45595 0.09883,0.69833c0,0.50055 -0.1471,0.96673 -0.40043,1.35769l-0.22232,0.35571c0.0272,0.01944 0.0523,0.04027 0.07492,0.06271c1.01928,1.01138 3.76641,4.73421 3.87073,6.05729c0.118,1.49647 -0.56968,2.98669 -1.24267,4.3285c-0.31457,0.62721 -1.52501,0.66061 -1.60904,1.35723c-0.0744,0.61678 0.8548,0.90175 1.28219,1.35262c0.19564,1.39705 0.85623,2.80641 0.58691,4.19115c-1.22211,6.2836 -8.13627,6.48596 -12.85657,4.74069c-0.6909,-0.25545 -1.06644,-1.17132 -1.79319,-1.29146c-0.0844,-0.01395 -0.16771,-0.0211 -0.25003,-0.02206c-0.12021,0.02088 -0.24336,0.03317 -0.36881,0.03623c-1.05336,0.21687 -1.95679,1.35054 -2.92634,1.93751l-2.24964,1.80692c0,0 -1.95218,1.56173 -3.51391,-0.39044c-1.56173,-1.95218 0.39044,-3.51391 0.39044,-3.51391l0.33578,-0.26765c-0.4019,0.02624 -0.86129,-0.0619 -1.37459,-0.33893c-0.06913,-0.00684 -0.13804,-0.0143 -0.20673,-0.02238c0.03723,0.54137 0.05855,1.08388 0.06211,1.62749zM183.39313,105.24123c-0.07708,-0.08026 -0.16003,-0.15856 -0.24925,-0.2348c-0.01005,0.0178 -0.02029,0.03538 -0.0307,0.05274z" fill="#696969" stroke-width="0.5"></path>
      <path d="M245.27035,103.33616c-0.26637,-0.10655 -0.48993,-0.23144 -0.67702,-0.36905l-0.21322,1.27932c-0.05524,0.37185 -0.19235,0.717 -0.39244,1.0165c-0.1678,1.85662 -0.71375,3.52429 -1.4529,5.2148c0.5001,-0.86383 0.99779,-1.72946 1.49346,-2.59691c0,0 1.23658,-2.16404 3.40109,-0.9359c1.34731,-3.07948 2.58131,-6.19106 3.51823,-9.47775c0,0 0.08487,-0.29703 0.29935,-0.65245c-1.38126,-1.83656 -3.1992,-3.01819 -5.07155,-1.83945c-0.58814,0.37027 -0.72105,1.08088 -0.76015,1.84809c0.50855,-0.53785 1.37026,-1.032 2.66584,-0.51376c2.32119,0.92849 1.39269,3.24968 1.39269,3.24968l-0.95369,2.38417c0,0 -0.9285,2.32118 -3.24968,1.39269zM242.3942,125.16497c0.95186,-1.96912 1.98684,-3.93294 2.97716,-5.91399c-0.21505,-0.04206 -0.44397,-0.11513 -0.68701,-0.22601c-0.42992,-0.19614 -0.7415,-0.43647 -0.96412,-0.69727c-0.80266,1.34385 -1.61316,2.68355 -2.43297,4.01929l-2.12074,0.08075c0.39065,0.36961 0.78175,0.74761 1.17076,1.138c0.52867,0.53055 1.05237,1.08846 1.56835,1.66741c0.15394,-0.03861 0.31758,-0.06368 0.48858,-0.06818zM241.4305,134.5092c-1.38071,0 -2.5,-1.11929 -2.5,-2.5c0,-0.11852 0.00824,-0.23511 0.02419,-0.34923l0.24085,-1.92663c-0.77832,-0.93473 -1.58115,-1.82271 -2.3938,-2.63206c-2.85229,-2.84074 -6.04232,-5.06699 -8.39098,-8.44673c-1.96363,-2.82568 -2.95659,-6.13466 -3.72409,-9.46045c-0.22008,-0.95367 -1.05987,-6.50031 -0.99708,-7.04618c1.02636,-8.9243 10.80071,-7.79569 16.45161,-4.98445c0.09732,0.11821 0.19462,0.23642 0.29193,0.35464c0.40068,-2.42305 0.54883,-5.06366 2.92825,-6.67581c3.62491,-2.45602 8.80459,-0.46196 11.39556,2.32869c7.34984,7.91629 1.91687,19.13119 -0.9473,27.72605c-1.3137,3.94217 -2.03262,7.97425 -3.33175,11.90275l0.1283,0.63991c0,0 0,2.09355 -1.91582,2.449c-0.09856,0.5511 -0.42432,1.1335 -1.20531,1.60208c-2.14374,1.28623 -3.42996,-0.85752 -3.42996,-0.85752c-0.46707,-0.78357 -0.97182,-1.58479 -1.50668,-2.38734c-0.3364,0.16846 -0.71608,0.26327 -1.11792,0.26327zM252.29996,108.26366c-0.05232,0.12151 -0.10482,0.24296 -0.15749,0.36436c0.0205,0.00593 0.04076,0.01198 0.06081,0.01815c0.03233,-0.12725 0.06456,-0.25475 0.09668,-0.38251zM234.34157,116.77241l0.13531,-0.36081l-0.63592,0.8176c0.1065,0.124 0.21434,0.24685 0.32342,0.36868c0.01216,-0.29075 0.07398,-0.56865 0.17719,-0.82547zM237.14137,109.36725c0.13027,0.13442 0.23548,0.27359 0.31952,0.41492c0.95996,-1.82389 1.7423,-3.64565 1.65796,-5.69458l-0.08495,-0.14156c-0.56354,1.86577 -1.18894,3.65468 -1.89254,5.42122zM230.46636,99.98683c-2.20272,0.76378 -2.0491,3.7572 -1.41191,6.53959c1.18871,-2.11008 2.44657,-4.17558 3.43027,-6.38303c-0.68293,-0.10147 -1.37968,-0.37802 -2.01836,-0.15656z" fill="#696969" stroke-width="0.5"></path>
      <path d="M392.91568,222.77206c-1.11804,2.23607 -3.35411,1.11803 -3.35411,1.11803l0.16438,-0.2129c-12.74393,0 -23.99207,-5.05335 -36.28395,-7.68431c-8.60598,-1.84203 -16.78578,-3.15981 -24.94902,-6.71356c-7.30707,-1.00097 -14.26345,-3.78712 -21.58941,-4.69737c-5.06959,-0.6299 -10.49352,-0.42055 -15.48165,-1.47056c-2.88776,-0.60788 -5.72808,-1.7242 -8.6044,-2.38912c-6.24502,-1.44368 -12.36491,-2.07729 -18.1865,-4.9654c0,0 -0.142,-0.071 -0.33654,-0.213c-1.36963,-0.01291 -2.47593,-1.12721 -2.47593,-2.49989c0,-0.22872 0.03071,-0.45027 0.08824,-0.66073l1.19909,-4.79632l0.0208,0.0052c0.00949,-0.06 0.01938,-0.11997 0.02969,-0.17989c0.03412,-0.19835 3.74554,-9.04692 3.87005,-9.36642c1.79201,-4.59838 3.34301,-9.17415 4.5598,-13.95296c2.35722,-9.25766 4.90927,-18.54306 6.98251,-27.86414c2.28509,-10.27355 3.88262,-20.69877 6.41939,-30.91795c2.70881,-11.91175 3.97402,-24.0779 6.94777,-35.90484c0.65849,-2.61889 0.49075,-8.82876 3.34572,-10.26603c0.65436,-0.32942 6.16782,1.55078 7.20676,1.75568c1.24397,0.24533 5.62823,0.54699 6.94887,1.02572c2.29447,0.83175 4.35993,2.43506 6.77736,2.77035c4.31786,0.59888 7.54733,-0.07421 11.87519,-0.50562c4.54793,-0.00359 9.26269,-0.33486 13.76082,0.51098c3.34789,0.62955 6.53539,2.52756 9.85436,3.3743c5.66287,1.44472 11.93898,0.86911 17.72328,1.36532c3.41258,0.29275 6.44668,1.44326 9.77711,1.79571c0.36232,-0.46681 0.95805,-0.85058 1.93755,-0.85058c2.5,0 2.5,2.5 2.5,2.5l-2.5,3.45368c-4.28343,-0.01189 -7.9469,-1.57994 -12.12705,-1.91585c-6.06721,-0.48754 -12.56178,-0.03199 -18.51614,-1.49572c-3.29066,-0.80893 -6.44796,-2.73262 -9.75041,-3.34966c-4.0318,-0.75332 -8.33312,-0.39096 -12.41044,-0.39439c-4.68021,0.46967 -8.16939,1.12379 -12.92018,0.44807c-3.66902,-0.52186 -6.32864,-2.82984 -9.97621,-3.33211c-1.37013,-0.18867 -5.96259,-0.09191 -7.61411,-1.56214c0.08661,0.76215 0.07757,1.54084 -0.03978,2.29603c-0.54471,3.5054 -1.66359,7.1593 -2.41239,10.65268c-2.04837,9.55637 -3.3475,19.21439 -5.52379,28.7854c-2.53413,10.19859 -4.12406,20.60524 -6.40567,30.85864c-2.08426,9.36652 -4.63999,18.70105 -7.0156,28.00206c-1.68844,6.61058 -4.07465,12.89833 -6.68679,19.19735c-0.59371,1.43169 -1.27423,2.88673 -2.14896,4.18353l0.36119,0.0903l-0.02837,0.11348c0.24575,0.15203 0.49067,0.36679 0.72667,0.66179c0.85093,1.06365 0.65868,2.01139 0.30741,2.65377c4.81681,1.93027 9.91523,2.45495 15.00401,3.62736c2.86714,0.66056 5.68895,1.75121 8.56166,2.37923c4.80522,1.0505 10.14207,0.77529 15.03571,1.39047c7.55624,0.94988 14.75378,3.72494 22.27932,4.83931c8.12176,3.43244 16.11024,4.80777 24.64177,6.63781c11.91697,2.55622 22.90229,7.57437 35.24118,7.57437l2.07169,0.74076c0,0 2.23607,1.11803 1.11804,3.3541z" fill="#696969" stroke-width="0.5"></path>
      <path d="M390.67961,181.96097c2.5,0 2.5,2.5 2.5,2.5l-0.15918,-0.40099c1.92838,5.14285 3.25456,9.41297 2.51919,15.05279c-0.27122,2.08011 -1.56249,3.59602 -0.99637,5.75453c0.25338,0.9661 1.07477,1.70967 1.37482,2.66231c1.02022,3.23911 0.54029,4.04179 0.09742,7.32547c0,0 -0.35355,2.47488 -2.82843,2.12133c-2.47487,-0.35355 -2.12132,-2.82843 -2.12132,-2.82843c0.31577,-2.06514 0.79179,-3.11922 0.09741,-5.07217c-0.37985,-1.06834 -1.25429,-1.94986 -1.48614,-3.05976c-0.52152,-2.49651 0.56583,-5.06983 0.91094,-7.59677c0.65838,-4.8207 -0.60248,-8.21305 -2.24915,-12.60365l-0.15918,-1.35465c0,0 0,-2.5 2.5,-2.5z" fill="#696969" stroke-width="0.5"></path>
      <path d="M385.30494,100.9738c2.42536,-0.60633 3.03169,1.81903 3.03169,1.81903l0.50394,2.02855c1.05884,5.35352 2.01677,10.28475 3.73391,15.43007c0,0 0.79059,2.3717 -1.58112,3.16228c-2.37171,0.79058 -3.16228,-1.58112 -3.16228,-1.58112c-1.77925,-5.34418 -2.7974,-10.4907 -3.89547,-16.04098l-0.4497,-1.78615c0,0 -0.60633,-2.42536 1.81903,-3.03169z" fill="#696969" stroke-width="0.5"></path>
      <path d="M362.18539,167.77177c0,0.78828 -0.24855,1.32801 -0.58892,1.69755c-1.01926,8.42108 -8.72218,12.3792 -16.11789,15.82909c-1.71587,0.8004 -5.97929,2.69402 -7.85525,2.61297c-3.86073,-0.1668 -3.6959,-1.8479 -5.93159,-4.06681c-5.5238,-5.48233 -8.09203,-11.28545 -8.34291,-18.99371c-0.88784,-0.43944 -1.27038,-1.39579 -1.27038,-1.39579c-1.91699,-4.79501 -3.98507,-9.5019 -6.14557,-14.18162c-0.70981,-1.53748 -1.01792,-3.56817 -2.66478,-4.53781c-2.51641,-1.48162 -6.72614,4.25766 -7.98634,5.63008c-6.19583,6.74757 -5.08333,17.49438 -3.74677,25.79228c1.07736,2.76172 2.83265,4.26472 5.07153,6.15566l2.03241,0.7798c0,0 2.32119,0.92848 1.39271,3.24967c-0.92848,2.32119 -3.24967,1.39271 -3.24967,1.39271l-2.73593,-1.12754c-3.41222,-2.81629 -5.65425,-4.98382 -7.32611,-9.10301c-1.54094,-9.00047 -2.45917,-19.64857 2.68586,-27.77008c1.32813,-2.09648 3.38397,-3.94714 5.10641,-5.66555c3.15245,-3.14507 6.09237,-6.09444 10.99198,-3.80614c3.23195,1.50944 3.64371,4.10254 4.96459,6.90622c1.77874,3.77552 3.45067,7.59283 5.04275,11.45186l1.32083,-1.50602c5.34945,-7.46469 6.74693,-14.6848 6.9835,-23.77356c0.11875,-4.56233 0.08516,-7.54082 -1.62403,-11.22618c-0.61102,0.00902 -1.0913,-0.18309 -1.0913,-0.18309c-5.3922,-2.23193 -9.83027,-7.35772 -10.18165,-13.1808c-0.32153,-0.25959 -0.60644,-0.64888 -0.79826,-1.22435c-0.614,-1.84201 0.67947,-2.73027 1.28788,-3.03516c0.04282,-0.1452 0.08843,-0.2905 0.13689,-0.43586c1.23608,-3.70782 2.81556,-4.88155 5.9739,-7.39378c2.16314,-1.72062 4.15734,-3.31933 6.90084,-3.42516c0.14135,-0.09808 0.2933,-0.18196 0.45378,-0.24957c0.38508,-0.9818 1.41552,-1.42342 1.41552,-1.42342c1.43072,-0.54415 2.76177,-1.66399 4.29214,-1.63245c4.57364,0.09426 5.55616,3.20992 5.86436,7.1277c0.02176,0.27662 0.03553,0.55589 0.0418,0.83749c0.60485,0.55889 1.11571,1.16121 1.49611,1.80331c3.62257,6.11474 -1.33494,16.30299 -7.01112,19.65333c-1.12453,0.66375 -2.46355,0.84783 -3.72938,1.19558c0.40221,0.68325 0.76009,1.38503 0.98953,2.14051c0.64112,2.11092 0.63776,8.51686 0.58138,10.77918c-0.25473,10.22162 -2.06537,18.34903 -8.0629,26.7514l-2.55898,2.92573c0.13782,0.4486 0.13782,0.81072 0.13782,0.81072c-0.05811,4.91983 1.11072,10.70148 4.58792,14.52289c0.66085,0.72627 1.61793,1.13165 2.30919,1.82904c0.1578,0.1592 1.52001,2.72477 2.65145,2.60888c0.88524,-0.09068 5.07464,-1.95859 5.49612,-2.15537c5.69928,-2.66092 13.46936,-5.80948 13.33372,-12.99076l2.97683,-2.5c0,0 2.5,0 2.5,2.5zM339.22027,101.064c0.03346,-0.01156 0.06695,-0.02299 0.10047,-0.0343l-0.00737,-0.01472l1.71457,-0.85728c-0.94754,-0.48328 -2.00509,-0.8837 -3.00741,-1.19655l-0.13978,1.53763l-0.03679,-0.00334c-0.00178,0.10247 -0.00506,0.20502 -0.00991,0.30765c-0.01859,0.39293 -0.07833,0.79739 -0.17141,1.20921c0.89983,-0.54863 1.55368,-0.94692 1.55763,-0.94829zM335.27615,113.28939l0.05657,-0.00808c-0.03461,-0.21152 -0.05665,-0.42571 -0.06392,-0.64303c-0.02866,-0.85676 0.6137,-2.45609 1.44491,-4.15937c-0.47153,0.27154 -0.96328,0.55667 -1.47528,0.86906l-1.06725,0.39261c0.41544,0.63634 0.75216,1.67194 -0.19,2.84965c-1.56173,1.95217 -3.51391,0.39044 -3.51391,0.39044c-1.04893,-0.97966 -2.66775,-1.58603 -3.1468,-2.93899c-0.2392,-0.67557 -0.34425,-1.38156 -0.3427,-2.10474c-0.38094,0.10865 -0.76938,0.22533 -1.17004,0.34997c0.25725,2.80336 2.14751,5.59864 4.42608,7.40932c0.87261,-2.04747 3.06265,-1.31742 3.06265,-1.31742l1.43045,0.47683c0.27323,0.10892 0.54645,0.21784 0.81968,0.32676zM328.67502,102.16622c-0.1246,0.10836 -0.24777,0.21817 -0.36906,0.32982c0.07501,-0.0151 0.15008,-0.02992 0.22522,-0.04449c0.0473,-0.09539 0.09527,-0.19051 0.14383,-0.28533z" fill="#696969" stroke-width="0.5"></path>
      <path d="M311.64097,105.3065c0,2.02035 -1.63273,2.40798 -2.25924,2.48234c-1.13078,1.36338 -1.96437,2.39999 -2.61637,4.44096c-0.93599,2.92992 -0.13597,2.94668 0.09875,5.74501c0.30622,3.65068 0.8498,9.71496 5.48461,10.12806c7.18466,0.64038 13.33987,-3.96882 19.70548,-6.52104c0,0 0.58835,-0.23534 1.29112,-0.17285c0.07215,-2.39014 2.49836,-2.39014 2.49836,-2.39014c4.62464,0.02378 8.83025,0.86079 12.98594,3.11258c8.78928,4.76255 15.195,19.6036 6.2321,27.55463c-0.85749,0.76068 -2.06919,0.99798 -3.15066,1.37792c-7.15737,2.51455 -14.79,1.32313 -20.21931,-3.93566c-0.63578,-0.63577 -1.27156,-1.27155 -1.90734,-1.90732l-1.66274,-2.17514c0,0 -1.49998,-2.00001 0.50003,-3.5c2.00001,-1.49998 3.5,0.50003 3.5,0.50003l1.19823,1.63955c0.63578,0.63578 1.27157,1.27155 1.90735,1.90733c3.211,3.36395 7.6278,4.1315 12.19051,3.58345c1.55502,-0.18678 3.32505,-0.32999 4.49356,-1.37285c1.62639,-1.45149 2.41549,-5.05419 2.41322,-7.08944c-0.00417,-3.73035 -1.7069,-5.29947 -3.81979,-8.10396c-1.15446,-1.53235 -2.35036,-3.20645 -4.05724,-4.08246c-3.48961,-1.79093 -6.76041,-2.53242 -10.60385,-2.50868c0,0 -0.12573,0 -0.32079,-0.02819c0.02128,1.58035 -1.61173,2.23356 -1.61173,2.23356c-6.98813,2.78816 -14.27986,8.22445 -22.25595,6.83033c-7.36542,-1.28739 -9.23749,-8.18936 -9.77407,-14.66734c-0.20931,-2.527 -0.64696,-5.1828 0.09875,-7.60633c1.02771,-3.33998 2.27864,-4.54401 4.2552,-7.0361l2.90587,-0.93828c0,0 2.5,0 2.5,2.5z" fill="#696969" stroke-width="0.5"></path>
      <path d="M327.20764,104.08182c0.00699,-1.05406 0.41066,-2.09577 0.71505,-3.14058c0.1175,-0.76632 0.18402,-1.53717 0.17582,-2.31043c0,0 0,-2.5 2.5,-2.5c1.61725,0 2.1883,1.0462 2.38994,1.78503c1.13065,1.17126 0.32296,2.78666 0.32296,2.78666l-0.26145,0.32596c-0.33373,1.65477 -0.19609,3.48058 -1.00118,4.96432c-0.03243,0.05977 -0.06552,0.11909 -0.09925,0.17797l0.03612,0.01354l-1.40999,3.76002c-0.34031,0.97631 -1.269,1.67685 -2.36132,1.67685c-1.38071,0 -2.5,-1.11929 -2.5,-2.5c0,-0.2969 0.05176,-0.58172 0.14674,-0.84592l0.92691,-2.7808c0.14315,-0.46754 0.28503,-0.93859 0.41965,-1.41263z" fill="#d6d6d6" stroke-width="0.5"></path>
      <path d="M340.30557,104.31907c-0.42629,2.18319 -0.66953,4.40665 -1.04225,6.64362c0,0 -0.41102,2.46598 -2.877,2.05496c-2.46598,-0.41102 -2.05496,-2.877 -2.05496,-2.877c0.59247,-3.55329 0.8704,-7.10708 2.0039,-10.50292l0.86258,-4.3128c0.20987,-1.16847 1.23166,-2.05511 2.46053,-2.05511c1.38071,0 2.5,1.11929 2.5,2.5c0,0.13481 -0.01067,0.26713 -0.03121,0.39615l-0.47078,3.29525l-0.13281,-0.01897l0.07314,0.31101c-0.14919,0.37436 -0.28569,0.75057 -0.41123,1.1285l-0.02934,0.14671l-0.47682,2.38415c0,0 -0.08757,0.43785 -0.37374,0.90646z" fill="#d6d6d6" stroke-width="0.5"></path>
      <path d="M218.10597,178.58412l1.94091,-0.91243c-0.21749,-0.11104 -0.4216,-0.23614 -0.59683,-0.37273c-3.28533,-2.5608 -6.00797,-5.6152 -9.39453,-7.99909c-0.84113,-0.5921 -1.5594,-1.34281 -2.30981,-2.04635c-0.43039,-0.40351 -0.88671,-0.79079 -1.25663,-1.24915c0.24943,1.58503 -0.24194,3.2921 -0.64545,4.85966c-0.95081,3.69366 -1.91601,7.76928 -3.23501,11.4603c0.48991,-0.29627 0.99816,-0.58323 1.53292,-0.86179c0.25557,-0.42224 0.69475,-0.80585 1.43034,-1.03285c2.38884,-0.73718 3.12602,1.65166 3.12602,1.65166c0.33315,1.07959 2.26569,7.33945 2.2868,7.42334c0.59484,2.36428 1.26335,4.72007 2.15431,6.9894c0.31255,0.79609 0.54711,1.62512 0.71939,2.46284c0.04915,0.23897 -0.29125,0.81521 -0.06294,0.72921c0.85306,-0.32132 2.87516,-2.10293 2.68163,-3.238c-0.89137,-5.22783 -3.56857,-10.03599 -4.30355,-15.37045l-0.33313,-0.96415c0,0 -0.73718,-2.38884 1.65166,-3.12602c2.38884,-0.73718 3.12602,1.65166 3.12602,1.65166l0.30031,1.04103c0.43107,-0.73882 1.18757,-1.09609 1.18757,-1.09609zM200.71156,189.86491l-1.72797,1.92678c-0.29581,0.34161 -0.68782,0.60723 -1.15143,0.75029c-1.31932,0.40713 -2.71889,-0.33234 -3.12602,-1.65166c-0.12381,-0.40122 -0.14159,-0.80986 -0.06926,-1.19575l0.51502,-3.10598l0.06185,0.01026c0.00795,-0.13334 0.01965,-0.26668 0.03551,-0.40004c0.16531,-1.39029 1.40365,-2.43165 1.94436,-3.7231c1.66487,-3.97639 2.73194,-8.69211 3.81074,-12.86926c0.29355,-1.13665 1.57993,-7.765 2.24317,-8.24958c1.36898,-1.00021 3.45126,-0.57081 5.08498,-0.11751c0.90833,0.25203 3.58095,3.26294 4.58147,3.95818c3.46929,2.41072 6.21423,5.5266 9.54984,8.11179c0.73762,0.57168 1.87631,0.60163 2.46657,1.32447c1.10608,1.35452 2.8476,2.96128 2.41719,4.65624c-0.40018,1.57591 -2.81368,1.63025 -4.22052,2.44538l-2.88588,1.36987c0,0 -1.55296,0.73342 -2.69246,-0.30268c0.70677,3.27266 1.88061,6.41245 2.83191,9.64615c0.37688,1.28112 1.09412,2.51844 1.09434,3.85385c0.00059,3.61825 -4.50242,9.18423 -8.73766,8.27028c-1.51056,-0.32597 -2.42314,-1.98644 -3.29157,-3.26468c-0.59134,-0.87039 -0.57972,-2.02671 -0.96788,-3.00477c-1.48975,-3.75371 -2.50156,-7.62804 -3.60707,-11.51882c-1.45927,0.90596 -2.71827,1.92333 -4.15923,3.0803z" fill="#696969" stroke-width="0.5"></path>
      <path d="M171.1963,77.51055c-1.76778,1.76776 -3.53553,-0.00002 -3.53553,-0.00002l-0.3495,-0.79444c-0.34583,-0.48264 -1.18715,-2.0225 -1.0375,-1.44792c0.66759,2.56326 4.87808,5.29674 -1.51599,7.67607c-0.32909,0.12246 -0.65045,0.11343 -0.96421,0.01427c0.53282,1.30681 0.94342,2.60676 1.19538,3.11025c0,0 1.11802,2.23607 -1.11805,3.3541c-2.23607,1.11802 -3.3541,-1.11805 -3.3541,-1.11805c-0.64084,-1.28274 -2.64971,-5.16068 -2.96173,-6.42841c-0.41831,-1.69961 -1.78497,-3.88307 -0.64495,-5.21123c1.50373,-1.75188 3.99792,-2.06298 5.48387,-1.12069c-0.23649,-1.55351 -0.38875,-3.14992 0.65267,-4.09544c1.39608,-1.26751 3.75881,0.30628 5.63822,0.45943l2.51146,2.06655c0,0 1.76776,1.76778 -0.00002,3.53553z" fill="#696969" stroke-width="0.5"></path>
      <path d="M262.95391,70.10258c-2.46599,-0.41099 -2.05499,-2.87698 -2.05499,-2.87698l0.44374,-2.51811c0.10669,-0.36398 0.43806,-0.82274 0.65135,-1.23169l-1.22465,0.3499c-0.23453,0.07283 -0.48384,0.11205 -0.74232,0.11205c-0.86926,0 -1.6349,-0.44364 -2.08285,-1.11686c-1.53149,0.43776 -3.01286,1.08613 -4.42845,1.8066c0,0 -2.23607,1.11803 -3.3541,-1.11803c-1.11803,-2.23607 1.11803,-3.3541 1.11803,-3.3541c2.24122,-1.10387 4.59082,-2.11129 7.05123,-2.54369l2.14554,-0.85822c0.30123,-0.12865 0.63286,-0.19987 0.98112,-0.19987c1.14836,0 2.11588,0.77427 2.409,1.82925c0.33469,-0.20586 0.64236,-0.25794 0.89116,0.02518c1.45829,1.65948 1.05539,4.29046 1.58308,6.43569l-0.50991,3.20388c0,0 -0.41099,2.46599 -2.87698,2.05499z" fill="#696969" stroke-width="0.5"></path>
      <path d="M114.80529,177.41396c1.32499,2.12 -0.795,3.44499 -0.795,3.44499l-4.03276,2.50576c-0.0839,0.01301 -0.16779,0.02603 -0.25169,0.03904l0.02257,0.06019l-3.76072,1.41027c-0.28795,0.11572 -0.60242,0.17941 -0.93176,0.17941c-1.38071,0 -2.5,-1.11929 -2.5,-2.5c0,-0.25848 0.03923,-0.5078 0.11205,-0.74233l0.78238,-2.73832l-0.51311,0.1466c-0.23453,0.07283 -0.48385,0.11205 -0.74233,0.11205c-1.38071,0 -2.5,-1.11929 -2.5,-2.5c0,-0.36938 0.08011,-0.72006 0.22391,-1.03559l1.39167,-3.24725c0.4682,-1.24916 0.9364,-2.49832 1.40459,-3.74748c0,0 0.87781,-2.34082 3.21863,-1.46302c2.34082,0.87781 1.46302,3.21863 1.46302,3.21863c-0.38486,1.0258 -0.76973,2.05161 -1.15459,3.07741c0.2346,-0.06852 0.45461,-0.04018 0.65083,0.14605c1.20328,1.14198 1.13497,3.05602 1.42256,4.75397l3.04474,-1.9154c0,0 2.12,-1.32499 3.44499,0.795z" fill="#696969" stroke-width="0.5"></path>
    </g>
  </g>
</svg>
