<?xml version="1.0" encoding="UTF-8"?>
<svg xmlns="http://www.w3.org/2000/svg" xmlns:xlink="http://www.w3.org/1999/xlink" version="1.1" width="138.43954" height="201.54529" viewBox="0,0,138.43954,201.54529">
  <g transform="translate(-153.05,-89.22737)">
    <g stroke="none" stroke-width="0.5" stroke-miterlimit="10">
      <path d="M277.53222,277.114c0.46554,0.30095 0.90192,0.61498 1.1644,1.00688l0.6568,0.21894l-0.07949,0.23846c0.04105,0.00986 0.08207,0.01983 0.12305,0.02991c0.72606,0.13248 1.43693,0.32192 2.11992,0.59538l0.02429,0.11404l0.04143,-0.08287l1.5661,0.78303c0.59194,0.2806 1.0013,0.8836 1.0013,1.58221c0,0.9665 -0.7835,1.75 -1.75,1.75c-0.29392,0 -0.57092,-0.07246 -0.8141,-0.20049l-0.70937,-0.35468c-0.03084,-0.01 -0.06168,-0.01994 -0.09254,-0.02983c-0.14691,0.07374 -0.30563,0.1274 -0.47257,0.15738l-1.96821,0.39364l-0.02921,-0.14604l-0.31399,0.18002c-0.91785,-0.16992 -2.7926,-0.50733 -4.53878,-1.05323c-0.51305,0.07335 -1.028,0.09048 -1.54808,0.06893l0.03007,0.15033l-1.96457,0.39291c-0.12192,0.02689 -0.24862,0.04107 -0.37863,0.04107c-0.55014,0 -1.04099,-0.25386 -1.3618,-0.65082c-0.27203,0.02156 -0.54518,0.03253 -0.81909,0.03477l0.02835,0.19847l-2.77019,0.39574c-0.09031,0.01438 -0.18293,0.02185 -0.27729,0.02185c-0.57246,0 -1.08071,-0.27487 -1.39999,-0.69982c-0.31928,0.42495 -0.82754,0.69982 -1.39999,0.69982c-0.84444,0 -1.54919,-0.59811 -1.71372,-1.3938c-0.27157,-0.30833 -0.4363,-0.71302 -0.4363,-1.15619v-0.10424c-0.0123,0.01141 -0.02462,0.02277 -0.03697,0.03408c0.08478,0.61726 0.19673,1.24084 -0.0656,1.7773c-0.00147,0.2659 -0.00285,0.54436 -0.00337,0.8372l-0.07995,0.13302l0.0621,0.01035l-0.39529,2.37162c-0.12531,0.84352 -0.85254,1.49066 -1.73092,1.49066c-0.9665,0 -1.75,-0.7835 -1.75,-1.75c0,-0.08296 0.00577,-0.16458 0.01694,-0.24446l0.10073,-0.80582c-0.7849,-0.01423 -1.44359,-0.54521 -1.65026,-1.26711c-0.7318,-0.2095 -1.2674,-0.88351 -1.2674,-1.68261c0,-0.13001 0.01418,-0.25671 0.04107,-0.37863l0.08908,-0.44543c-0.69939,-0.71792 -0.11102,-1.41387 0.72909,-1.95806c0.02073,-0.12688 0.04553,-0.25261 0.07483,-0.377c-0.28491,-0.28518 -0.54021,-0.58321 -0.74932,-0.85824c-0.61553,-0.80957 0.11478,-6.25618 0.17752,-6.88629l0.02148,-0.04444l-0.01489,-0.00231l0.44755,-2.89041c0.11733,-0.85256 0.84877,-1.5092 1.73357,-1.5092c0.03369,0 0.06716,0.00095 0.10038,0.00283c0.12949,-0.68822 0.28556,-1.35679 0.4743,-2.03098l-0.31117,-0.0389l0.39714,-3.17698c0.03536,-0.32056 0.15731,-0.61505 0.34194,-0.85955c-0.58451,-2.16078 -1.14876,-4.32503 -1.66614,-6.49222c-0.20004,-0.83791 -1.56308,-6.27019 -1.47937,-7.09702c0.00533,-0.05261 0.01164,-0.10499 0.01888,-0.15716h-0.02595v-2c0,-0.44265 0.16435,-0.84692 0.43535,-1.15511c-0.57432,-1.11977 -1.14379,-2.24082 -1.71461,-3.35686c-0.32059,0.40335 -0.81546,0.66196 -1.37073,0.66196c-0.6213,0 -1.16698,-0.32377 -1.47752,-0.8118l-1.65422,-2.51574l0.02942,-0.01935l-0.08358,-0.06856c-1.19239,-2.37976 -4.49272,-6.86764 -4.52837,-9.58269c-0.00155,-0.11792 0.00198,-0.23519 0.01,-0.35187h-0.04574v-2.39387c-1.80077,-2.44689 -2.80225,-5.91978 -3.83785,-8.46873l-0.76164,-1.52332c-0.12803,-0.24318 -0.20049,-0.52018 -0.20049,-0.8141c0,-0.94568 0.75011,-1.71616 1.68779,-1.74892c0.14799,-0.44838 0.47234,-0.81655 0.89092,-1.02239c0.28512,-0.57972 0.88161,-0.97867 1.57128,-0.97867c0.55788,0 1.05479,0.26105 1.37524,0.66766l1.49319,1.86199c-0.00117,-0.0053 -0.00233,-0.01061 -0.0035,-0.0159l-0.55732,-2.31672c-0.03759,-0.1427 -0.05761,-0.29253 -0.05761,-0.44703c0,-0.31229 0.0818,-0.60547 0.22514,-0.85929c-0.50975,0.0671 -0.99987,0.13086 -1.46133,0.19617c-1.84867,0.26164 -3.60075,1.02128 -5.42155,1.42393c-0.23788,0.12099 -0.50711,0.18919 -0.79227,0.18919c-0.06757,0 -0.13424,-0.00383 -0.19981,-0.01128c-3.91382,0.52403 -7.46284,0.13294 -11.24045,-0.57065c-0.41282,0.95353 -0.83328,1.89724 -1.25729,2.82918l-0.06787,0.07198l0.02075,0.01236l-1.77404,2.97945c-0.18361,0.32107 -0.466,0.57838 -0.80577,0.73052c-0.27089,0.57442 -0.6227,1.10657 -1.02744,1.60541l-0.03118,0.07276l-0.01948,0.0487l0.30318,0.18191l-1.18348,1.9725c-0.30228,0.52426 -0.86849,0.87715 -1.51712,0.87715c-0.0326,0 -0.06499,-0.00089 -0.09715,-0.00265l-0.03237,0.1079l-0.02458,-0.00737c-0.00879,0.05253 -0.01811,0.10502 -0.02799,0.15745c-0.22571,1.19855 -1.10634,2.17391 -1.66119,3.26001c-2.02972,3.97315 -4.4635,7.68974 -6.62781,11.58609c-3.77832,6.802 -7.31375,13.56219 -11.80257,19.94921l-0.14896,0.08178l0.03707,0.03802l-0.16584,0.16166l-0.50055,1.5555l-0.01209,-0.00389c-0.00416,0.02528 -0.00843,0.05056 -0.01279,0.07582c-0.08155,0.47185 -0.19513,0.95516 -0.33484,1.44667c-0.01192,0.084 -0.0298,0.16608 -0.0532,0.24579l-0.44538,1.65323l-0.01692,-0.00456c-0.00196,0.02826 -0.00421,0.05652 -0.00676,0.08479c-0.2618,2.90162 -2.62817,6.42931 -3.74324,9.1268l-0.19873,0.13084l0.07589,0.05692l-1.18776,1.58368c-0.31844,0.43431 -0.8324,0.71629 -1.41222,0.71629c-0.06764,0 -0.13437,-0.00384 -0.20001,-0.01131c-0.06564,0.00747 -0.13238,0.01131 -0.20001,0.01131c-0.49373,0 -0.9397,-0.20446 -1.25787,-0.53333c-0.89988,0.67587 -1.83696,1.23474 -2.73697,1.63389c-1.19422,0.52963 -2.6505,1.31829 -3.8408,0.77991c-0.6913,-0.31268 -1.08449,-0.97224 -1.41916,-1.69991c-0.22553,0.3604 -0.49676,0.69212 -0.77807,0.97342l-0.09561,0.0354l0.02172,0.02715l-1.98911,1.5913c-0.30117,0.24519 -0.68547,0.39219 -1.1041,0.39219c-0.34366,0 -0.66419,-0.09906 -0.93458,-0.27019c-1.85424,0.8619 -3.81518,1.45984 -5.65867,1.77337l-1.39265,0.69632c-0.24319,0.12803 -0.52018,0.20049 -0.81411,0.20049c-0.9665,0 -1.75,-0.7835 -1.75,-1.75c0,-0.53565 0.24066,-1.0151 0.61975,-1.3361l2.64876,-2.27036l0.01968,0.02296c0.04674,-0.04935 0.09419,-0.09811 0.14238,-0.14626c1.66334,-1.6618 4.19593,-2.1337 6.20181,-3.36037c0.15605,-0.09543 0.31103,-0.19105 0.46497,-0.28691c0.10404,-0.29798 0.28639,-0.55922 0.52239,-0.75905l1.78754,-1.53216c1.06853,-1.70619 2.50413,-3.77611 3.78455,-4.44366c0.10521,-0.05485 0.21147,-0.10715 0.31869,-0.15714l-0.02877,-0.05035l0.3405,-0.19457c1.3095,-2.95622 2.45639,-6.03065 3.7937,-8.72813c2.10422,-3.49201 3.53768,-7.36675 5.6454,-10.8779c1.21895,-2.03061 2.49711,-4.0337 3.75386,-6.05101c1.74216,-3.71818 3.38464,-7.48465 4.93888,-11.34699l0.05505,-0.0524l-0.02439,-0.01219l1.18303,-2.36608c0.2617,-0.55207 0.80383,-0.94532 1.44241,-0.99579c1.10987,-2.57015 2.2426,-5.13444 3.32302,-7.72521c0.60929,-1.46102 0.67757,-3.19483 1.6269,-4.46155c0.0385,-0.05137 0.07779,-0.10201 0.11781,-0.15199l-0.02854,-0.01712l1.18348,-1.9725c0.22898,-0.39713 0.6094,-0.69592 1.06238,-0.81748c0.00764,-0.07128 0.01529,-0.14241 0.02292,-0.21335c-0.70929,-0.18001 -1.2458,-0.7932 -1.31142,-1.54144l-0.34633,-3.46338l0.33358,-0.03336c-0.00228,-0.23755 -0.00518,-0.47506 -0.00864,-0.71254c-0.48245,-2.22206 -0.72903,-4.45965 -0.80208,-6.71369c-0.19638,0.07626 -0.40994,0.11809 -0.63327,0.11809c-0.20765,0 -0.40686,-0.03617 -0.59167,-0.10255l-0.11679,0.40267c-0.19863,0.74837 -0.88069,1.29986 -1.69156,1.29986c-0.9665,0 -1.75,-0.7835 -1.75,-1.75c0,-0.10938 0.01003,-0.21641 0.02923,-0.32023l0.56999,-3.41986l0.0087,0.00145c-0.00001,-0.01668 0.00003,-0.03336 0.00011,-0.05005c0.01839,-3.97449 2.36153,-8.673 3.51579,-12.45788l0.11173,-0.11067l-0.05079,-0.0254l0.78306,-1.5661c0.28061,-0.59192 0.8836,-1.00127 1.5822,-1.00127c0.49876,0 0.94878,0.20865 1.26755,0.54342l0.19038,-0.52353c0.03123,-0.30485 0.11723,-0.51983 0.11723,-0.51983l0.78488,-1.96215c0.1405,-0.37628 0.4068,-0.69122 0.74772,-0.89368c0.20375,-0.65139 0.45401,-1.36095 0.70615,-2.04173c0.19425,-4.99882 3.11482,-10.75167 4.72268,-15.57669c-0.37448,0.05073 -0.74836,0.10368 -1.11769,0.1733l0.10331,-0.52872c-0.10444,0.01944 -0.21214,0.0296 -0.32222,0.0296c-0.48553,0 -0.92487,-0.19773 -1.24191,-0.51705c-0.3823,-0.11287 -0.80415,-0.28949 -1.2691,-0.53878c-1.24637,-0.66825 -1.20049,-2.57272 -1.6005,-3.92919c-0.00312,-0.01057 -0.00659,-0.02436 -0.01039,-0.0412c-0.23311,-0.41361 -0.43385,-0.86744 -0.61429,-1.38805c-0.67322,-1.44138 -1.27211,-2.91128 -1.82346,-4.40209c-0.07857,0.01079 -0.15881,0.01637 -0.24034,0.01637c-0.61707,0 -1.15955,-0.31938 -1.47114,-0.80186l-1.58495,-2.37743l0.04206,-0.02804c-0.07716,-0.10303 -0.15088,-0.20894 -0.22072,-0.31811c-0.08175,-0.12779 -0.14714,-0.26181 -0.19961,-0.40074c-0.53074,0.01941 -1.04344,-0.07718 -1.47668,-0.32967c-0.91149,-0.53122 -1.41609,-1.95751 -1.66905,-3.61799c-0.12939,-0.1657 -0.2296,-0.3553 -0.29288,-0.56107l-0.52552,-1.57657c-0.06612,0.00758 -0.13336,0.01148 -0.20152,0.01148c-0.9665,0 -1.75,-0.7835 -1.75,-1.75c0,-0.10937 0.01003,-0.2164 0.02923,-0.32021l0.27543,-1.65263c-0.64711,-0.25687 -1.10465,-0.88858 -1.10465,-1.62716c0,-0.13001 0.01418,-0.25671 0.04107,-0.37863l0.10462,-0.52311c-1.23133,0.43839 -2.51456,0.13338 -3.56775,-1.52939c-0.88693,-1.40028 0.38727,-4.73293 2.22719,-6.82199c0.37452,-0.49281 0.70128,-0.89387 0.87416,-1.15015l0.22132,-0.10844l-0.04385,-0.05481l1.98911,-1.5913c0.30117,-0.24519 0.68547,-0.39219 1.1041,-0.39219c0.9665,0 1.75,0.7835 1.75,1.75v3.03112c0.14945,0.54423 0.26947,1.09451 0.39183,1.59973c0.09501,0.39227 0.11672,0.77776 0.08527,1.15599c0.24028,0.14253 0.49991,0.31358 0.78035,0.51599c0.86321,-1.10973 2.01961,-1.76209 3.59971,-1.14414c0.97397,0.3809 1.36772,1.50358 1.64128,2.63132c0.08588,-0.48577 0.35158,-0.84003 0.35158,-0.84003c0.49415,-0.6588 1.00378,-1.31216 1.52074,-1.96381l0.3524,-0.881c-0.5705,-0.73969 -0.94023,-1.68063 -1.02263,-2.5468c-0.02728,-0.28677 0.01625,-0.56 0.10859,-0.8233c-0.54181,-0.29744 -0.90907,-0.87337 -0.90907,-1.53508c0,-0.41863 0.14699,-0.80293 0.39219,-1.1041l2.17772,-2.72216l0.01394,0.01115c0.01945,-0.03229 0.03911,-0.06447 0.05899,-0.09655c1.96637,-3.17227 6.55249,-6.43829 9.32858,-8.88998l1.63859,-1.92401c0.32102,-0.38174 0.80217,-0.62435 1.33998,-0.62435c0.14047,0 0.27708,0.01655 0.40797,0.04781c0.38672,-0.23081 0.78311,-0.44879 1.18934,-0.65287c2.55072,-1.2814 5.45423,-1.12341 8.05083,-1.75921c2.08171,-0.50973 3.82427,-1.85551 5.81024,-2.62813l1.47047,-2.20573c0.31159,-0.48248 0.85407,-0.80187 1.47115,-0.80187c0.9665,0 1.75,0.7835 1.75,1.75c0,0.08561 -0.00615,0.16978 -0.01802,0.25209c1.6689,-0.55088 3.53362,-0.18199 5.26437,-1.28686l1.53952,-1.15463c0.29486,-0.22618 0.6638,-0.3606 1.06414,-0.3606c0.9665,0 1.75,0.7835 1.75,1.75c0,0.38669 -0.12542,0.74409 -0.3378,1.03374l-1.98816,2.78343l-0.23855,-0.17039c-0.15538,0.33577 -0.31239,0.67039 -0.47047,1.00436c0.38787,0.32099 0.63499,0.80606 0.63499,1.34886c0,0.31524 -0.08335,0.61101 -0.22922,0.86647l-1.66044,3.04415l-0.19684,-0.10737c-0.10265,0.13414 -0.20758,0.26661 -0.31463,0.39747c0.29267,-0.2202 0.65666,-0.35072 1.05112,-0.35072h0.66915c0.89461,-1.29938 1.7853,-2.60248 2.70893,-3.88576c1.26895,0.38265 4.9901,4.16569 5.16343,5.86332c0.08841,0.86588 0.12472,1.64173 0.11169,2.38089c1.94705,2.14583 3.51671,4.91179 3.85001,6.58946c0.48216,2.42702 -0.15276,3.07605 -0.35917,5.34643c-0.81878,9.00599 -4.91241,18.09861 -12.33326,23.68424c-1.24343,0.82873 -2.64543,1.70082 -4.1537,2.54716c-0.87019,0.94135 -1.98794,2.11942 -3.1599,2.90585c0.592,-0.04239 1.17765,-0.09842 1.75494,-0.16827c0.02552,-0.52329 0.28089,-0.98622 0.6673,-1.28995l1.98738,-1.58989l0.07616,0.0952l0.18075,-0.26592c0.77337,-0.26503 1.55748,-0.49743 2.34844,-0.70638c0.03958,-0.03087 0.07945,-0.06185 0.11956,-0.09297l-0.01433,-0.02866l0.14443,-0.07221c0.45363,-0.35185 0.93467,-0.7292 1.40075,-1.19998l0.29851,0.35036l0.52485,-0.26242c0.24318,-0.12803 0.52018,-0.20049 0.8141,-0.20049c0.21078,0 0.41285,0.03726 0.59999,0.10556c0.18714,-0.0683 0.38921,-0.10556 0.59999,-0.10556c0.01727,0 0.03449,0.00025 0.05164,0.00075c0.66071,-0.10417 1.24872,0.24864 1.24872,0.24864c0.51156,0.30697 1.02629,0.6077 1.54299,0.90448c1.97634,-1.53373 4.29887,-2.54092 5.85082,0.08508c0.37872,0.64082 0.27887,1.3873 0.05165,2.15212c0.91839,0.41345 1.63865,1.34214 2.10776,2.35023l0.81931,0.49159c0.42381,0.24436 0.73562,0.66121 0.83954,1.15465l1.52502,1.52502l-0.10133,0.10133l0.21764,0.26444l0.09625,-0.12834l1.58371,1.18779c0.43431,0.31844 0.71629,0.8324 0.71629,1.41222c0,0.43323 -0.15743,0.8297 -0.4182,1.13531c0.02404,0.60535 -0.04583,1.2686 -0.17394,1.94906c0.50503,-0.11492 0.9611,-0.07469 1.30433,0.19277c1.40128,1.09195 0.87092,3.48117 0.87196,5.25766c0.00019,0.32475 -0.02396,0.65694 -0.06898,0.9946c0.2216,0.74495 0.17983,1.53725 0.12578,2.3309c0.87666,0.09514 1.55903,0.83773 1.55903,1.7397v2c0.82802,3.542 -1.50285,9.15779 -2.38659,12.56135l-0.06241,0.07721l0.03144,0.01189l-0.88107,2.33026c-0.09392,0.2671 -0.25081,0.50454 -0.45286,0.69451c-0.87931,2.14316 -2.00498,4.17824 -3.52158,6.22274c0.04755,0.15903 0.07309,0.32757 0.07309,0.50207c0,0.48325 -0.19588,0.92075 -0.51256,1.23744l-2,2l-0.19388,-0.19388c-0.19722,0.21066 -0.39183,0.42517 -0.58491,0.64164c-0.82018,1.11019 -1.72453,2.18816 -2.84069,3.57143l-0.21828,0.07629l0.05032,0.0671l-1.58586,1.18939c-0.02628,0.02016 -0.05315,0.03959 -0.08057,0.05826c-0.19104,0.2612 -0.39017,0.53079 -0.59798,0.8105l-0.07473,0.03945l0.0233,0.02081l-1.82348,2.0412c-0.32062,0.36211 -0.78899,0.59038 -1.31067,0.59038c-0.93968,0 -1.70638,-0.74063 -1.7482,-1.66998c-0.38144,0.59797 -0.89056,1.16676 -1.60914,1.72544c-1.83106,1.4236 -4.47317,2.10645 -7.02552,2.53714c0.2006,0.19422 0.35487,0.43601 0.44461,0.70719l0.77652,2.17424c0.23028,-0.11151 0.48869,-0.17403 0.76171,-0.17403c0.43224,0 0.82789,0.15671 1.13321,0.41641l-0.08082,-1.77453c-0.00157,-0.03043 -0.00237,-0.06106 -0.00237,-0.09188c0,-0.9665 0.7835,-1.75 1.75,-1.75c0.86022,0 1.57547,0.62066 1.72237,1.43859l0.39364,1.96821l-0.01737,0.00347c0.01093,0.0268 0.02162,0.05371 0.03208,0.08075c0.42018,1.08632 0.17193,2.32547 0.3474,3.47692c0.07534,0.49439 0.19797,1.11765 0.34411,1.79463c0.64052,1.3964 1.10575,2.91393 1.83182,4.95206c0.56555,1.58755 1.15975,3.16782 1.7797,4.73954c0.55721,0.14209 1.00752,0.55158 1.20622,1.08375l1.08498,2.71248c0.77932,1.95457 2.25764,4.81483 2.56054,7.32046c0.38479,0.80703 0.77486,1.61082 1.16977,2.4112l-0.03985,0.24485l0.10059,-0.02012l0.31707,1.58537c0.42581,1.21589 0.82504,2.44138 1.18519,3.68125l0.73122,1.46245c0.12803,0.24319 0.2005,0.52019 0.2005,0.81411c0,0.46449 -0.18096,0.88671 -0.47623,1.20001c0.12497,0.1326 0.22947,0.28472 0.30843,0.45129l0.38857,0.77714c0.49067,0.2411 0.85195,0.70522 0.95162,1.26015l0.25325,1.26627c0.65955,0.94813 1.25706,2.00131 1.95089,3.38797l1.1593,1.93214c0.16744,0.26838 0.26419,0.58541 0.26419,0.92504c0,0.48544 -0.19766,0.92472 -0.51688,1.24174c0.10869,0.36308 0.21198,0.73002 0.30985,1.10129c0.09382,0.26045 0.15719,0.53486 0.20477,0.81655c0.09819,0.41239 0.18988,0.83036 0.27503,1.25451l-0.03719,0.12893l0.04842,-0.00254l0.05063,0.96639c0.06058,0.25225 0.1194,0.50161 0.17637,0.74857c0.04585,-0.0036 0.09221,-0.00544 0.13899,-0.00544c0.83283,0 1.52978,0.58177 1.70663,1.36108l0.79111,3.1645l-0.21628,0.05407c0.05152,0.37949 0.10194,0.75914 0.15181,1.13886c0.45437,1.40281 0.78092,2.89846 1.30363,5.01768l-0.06395,0.21382h0.07707v0.1465c0.15552,0.14439 0.33241,0.27921 0.51994,0.40927l0.11271,-0.12101c0,0 0.4528,0.22641 0.74955,0.67922zM243.0215,158.25165c0.16533,0 0.32531,0.02293 0.47693,0.06578c1.58124,-1.80331 2.78404,-3.15038 4.23169,-4.37229c0.10951,-0.17581 0.22321,-0.35073 0.34054,-0.52475l-0.18295,-0.18295l0.85334,-0.85334c-0.52006,0.07822 -1.04678,0.14672 -1.57898,0.20546c-0.0197,0.03153 -0.04037,0.06238 -0.06198,0.09252l-1.98915,2.85345l-0.00982,-0.00684l-0.01601,0.0429c-0.69237,0.89337 -1.38466,1.78679 -2.07709,2.68011c0.00448,-0.00003 0.00897,-0.00005 0.01346,-0.00005zM220.26361,141.20461c-0.10306,0.0853 -0.20963,0.1663 -0.32016,0.24249c0.14879,0.07305 0.29725,0.1466 0.44511,0.22111c-0.04318,-0.1539 -0.08477,-0.30845 -0.12494,-0.4636zM216.91267,138.97129c-0.40374,-0.32058 -0.66265,-0.81569 -0.66265,-1.37128c0,-0.22443 0.04225,-0.43898 0.11922,-0.63616l0.38619,-1.06203c-0.95089,-0.59049 -1.47411,-1.87651 -1.63462,-3.1076c-0.29205,-0.3127 -0.4708,-0.73259 -0.4708,-1.19422c0,-0.06763 0.00384,-0.13437 0.0113,-0.2c-0.00747,-0.06563 -0.0113,-0.13237 -0.0113,-0.2c0,-0.10937 0.01003,-0.2164 0.02923,-0.32022l0.39457,-2.36747l0.03286,0.00548c0.00984,-0.09629 0.02275,-0.19249 0.03904,-0.28857c0.04622,-0.27263 0.46464,-1.0641 1.00569,-2.00496l-1.4646,0.58584c-0.21086,0.09006 -0.443,0.13991 -0.68678,0.13991c-0.11616,0 -0.22967,-0.01132 -0.3395,-0.03291c-0.41016,0.13242 -0.93028,0.11809 -1.51052,-0.3171c-0.1834,-0.13755 -0.32476,-0.28112 -0.43194,-0.42675c0.00945,0.03973 0.01897,0.07908 0.02858,0.118c0.18514,0.74977 -0.35076,1.51081 -0.40513,2.28119c-0.02586,0.36644 -0.0503,0.7338 -0.07567,1.10147c0.26925,1.31251 0.41366,2.72643 0.54531,3.99696l1.23886,0.92914l-0.03718,0.04958c0.09748,0.05571 0.19314,0.11501 0.28673,0.17839c0.8731,0.59125 1.40819,1.72729 2.00502,2.82996c0.09147,0.10682 0.17579,0.22014 0.25148,0.34132c0.05507,0.08816 0.10375,0.21039 0.14684,0.3609c0.27102,0.44811 0.56839,0.86806 0.92219,1.21638c0.08265,-0.20173 0.17912,-0.40357 0.28758,-0.60523zM223.61336,120.25005c0.23134,0.00173 0.452,0.04834 0.6537,0.13156c0.45687,-0.47608 0.91035,-0.95623 1.36031,-1.44167l0.10689,-0.53441c-0.02449,0.02154 -0.04902,0.04307 -0.07357,0.06458l-0.07568,0.02405l0.01596,0.02176l-1.7428,1.27821c-0.08126,0.15224 -0.16287,0.3042 -0.24481,0.45591zM225.65076,144.94928c0.22162,0.3317 0.45929,0.64733 0.71383,0.94194c-0.00065,-0.01965 -0.00098,-0.03938 -0.00098,-0.05918c0,-0.13001 0.01418,-0.25671 0.04107,-0.37863l0.1584,-0.79199c-0.26307,0.17371 -0.5758,0.27829 -0.91232,0.28787zM257.42194,103.23577c0.03526,0.46722 -0.12976,0.91055 -0.36828,1.33449l0.88209,0.44105c-0.10262,-0.60212 -0.26596,-1.19546 -0.51381,-1.77553zM257.75208,109.79479c-0.00184,-0.00142 -0.00367,-0.00283 -0.00551,-0.00425l-0.00179,0.00894c0.00243,-0.00157 0.00486,-0.00313 0.0073,-0.00469zM234.07461,147.70671c0.00085,-0.00009 0.00171,-0.00019 0.00256,-0.00028l0.00238,-0.00604c-0.00165,0.00211 -0.0033,0.00422 -0.00494,0.00633zM246.95563,98.41159c-0.10823,0.00062 -0.21671,0.00051 -0.32542,-0.00026l0.0173,0.12108l-0.05476,0.00782c0.0327,0.0429 0.06345,0.08736 0.09215,0.13325c0.0895,-0.08801 0.17974,-0.17532 0.27074,-0.26189zM238.80654,163.49557c0.47855,-0.5145 0.9572,-1.02898 1.43385,-1.54527l0.15461,-0.34788c-0.51649,0.6421 -1.04265,1.27474 -1.58846,1.89316zM260.77731,149.65456c-0.25013,-0.13942 -0.50032,-0.27876 -0.75045,-0.41825c-0.37224,0.4016 -0.73289,0.81543 -1.14444,1.17289c0.08748,0.09416 0.16471,0.19797 0.22992,0.30965c0.1548,-0.04483 0.31844,-0.06886 0.4877,-0.06886c0.23475,0 0.4587,0.04622 0.66326,0.13006c0.16415,-0.38495 0.33508,-0.76101 0.51402,-1.1255zM269.85003,182.77429c-0.1619,0.36818 -0.34469,0.75839 -0.53622,1.15236c0.19553,0.05996 0.37648,0.15325 0.53622,0.27325zM263.36944,154.16335c0.076,-0.15403 0.15153,-0.30829 0.22645,-0.46286c0.26335,-0.54334 0.56045,-1.07451 0.80432,-1.62653c-0.08025,-0.0756 -0.15335,-0.1587 -0.21819,-0.24818c-0.24754,0.78266 -0.52138,1.56191 -0.81258,2.33758z" fill="#0024a3"></path>
      <path d="M226.71803,143.03609l-3.03605,0.39998l-2.35155,-1.17578c-0.7759,-0.36782 -1.33222,-1.12339 -1.41867,-2.01644c-0.34926,-0.31996 -0.60733,-0.73785 -0.73072,-1.21018l-0.60686,-2.12397l-1.54193,-1.54193c-0.45241,-0.45241 -0.73223,-1.07741 -0.73223,-1.76777c0,-0.50291 0.1485,-0.97114 0.40404,-1.36323c-0.49442,-0.45674 -0.80403,-1.1106 -0.80403,-1.83678c0,-0.52533 0.16203,-1.01281 0.43884,-1.4152l1.58105,-2.37155l0.0861,0.0574c0.28439,-0.78281 0.56879,-1.56563 0.85318,-2.34844c0,0 0.8778,-2.34083 3.21862,-1.46303c0.35149,0.13181 0.63041,0.2966 0.85062,0.4815c0.32478,-0.15431 0.6881,-0.24066 1.0716,-0.24066c0.94657,0 1.77027,0.52607 2.19468,1.30178l1.57593,2.75785l-0.23144,0.13225c1.85221,2.13303 2.82529,4.38015 2.67569,7.84672c0.65539,0.4507 1.08513,1.20586 1.08513,2.06138c0,0.41989 -0.10351,0.8156 -0.28642,1.163l-1.15327,2.30658c-0.37793,0.79726 -1.16526,1.36268 -2.09046,1.42475c-0.42398,0.62784 -1.05184,0.94176 -1.05184,0.94176z" fill="#bd7614"></path>
      <g fill="#324aa3">
        <path d="M237.85002,184.8c0,-0.21142 0.03749,-0.41408 0.10619,-0.6017c-0.10619,-0.32808 -0.10619,-0.5983 -0.10619,-0.5983l0.01727,-1.44526c0.29898,-2.1114 0.55805,-4.22857 0.79342,-6.348c0,0 0.07421,-0.66786 0.5445,-1.1299c0.32136,-1.73143 0.82869,-3.42656 1.62955,-5.05947c0,0 0.78261,-1.56525 2.34787,-0.78264c1.56525,0.78261 0.78264,2.34787 0.78264,2.34787c-1.746,3.40693 -1.82802,7.34085 -1.81975,11.12784c0.0045,0.0567 0.0045,0.08955 0.0045,0.08955l-0.00428,0.00196c0.00136,0.53638 0.00428,1.0697 0.00428,1.59805l-0.80097,-0.36616c-0.0037,0.0823 -0.02133,0.30534 -0.1052,0.56447c0.0687,0.18762 0.10619,0.39028 0.10619,0.6017c0,0.9665 -0.7835,1.75 -1.75,1.75c-0.9665,0 -1.75,-0.7835 -1.75,-1.75z"></path>
        <path d="M249.63745,157.56257c1.23744,1.23744 0,2.47487 0,2.47487l-0.13682,0.06293c-0.4,0.66667 -0.80001,1.33333 -1.20001,2c0,0 -0.90037,1.50061 -2.40098,0.60023c-1.50061,-0.90037 -0.60023,-2.40098 -0.60023,-2.40098c0.4,-0.66667 0.80001,-1.33333 1.20001,-2l0.66317,-0.73706c0,0 1.23744,-1.23744 2.47487,0z"></path>
        <path d="M239.7768,109.26445c-1.3598,0.73872 -2.70172,1.50375 -4.09417,2.20079c0,0 -1.56525,0.78262 -2.34787,-0.78262c-0.78262,-1.56525 0.78262,-2.34787 0.78262,-2.34787c2.03751,-1.0175 3.96624,-2.18135 6,-3.2l0.31739,2.19194l1.24785,0.93856c-0.3477,0.17352 -0.69231,0.35142 -1.03489,0.53221l0.02297,0.15863c0,0 -0.38646,0.25764 -0.89392,0.30836z"></path>
        <path d="M209.94324,197.71601c-1.71601,0.34322 -2.05924,-1.37279 -2.05924,-1.37279l-0.42549,-2.17077c-0.00966,-2.91848 -0.49864,-5.22098 0.78611,-7.24595l-0.37041,-0.04116l0.07738,-0.69641c-0.06576,-0.18404 -0.10157,-0.3823 -0.10157,-0.58894c0,-0.13001 0.01418,-0.25671 0.04107,-0.37863l0.38655,-1.93278c0.13038,-0.72593 0.70844,-1.29647 1.4382,-1.41563c0.71873,-1.07923 1.36304,-2.02628 2.04516,-2.90803l0.27378,-0.54756l0.11504,0.05752c0.135,-0.16572 0.27219,-0.32948 0.41238,-0.49175c0.12472,-0.28609 0.26636,-0.5632 0.42829,-0.82886l-0.09109,-0.05465l1.18351,-1.9725c0.26513,-0.45982 0.73329,-0.7878 1.28202,-0.86147c0.66904,-0.93596 1.33778,-1.87401 1.97898,-2.83638c0,0 0.97072,-1.45609 2.42681,-0.48537c1.45609,0.97072 0.48537,2.42681 0.48537,2.42681c-1.71209,2.56668 -3.61883,4.96282 -5.20384,7.60576l-0.08403,0.04968l0.03179,0.02384l-1.18779,1.58371c-0.21268,0.29006 -0.51256,0.51218 -0.86103,0.62772c-0.33444,0.53563 -0.67213,1.06915 -1.02253,1.59438l-0.39524,0.7905l-0.18061,1.62554l-0.43846,-0.04872c0.09917,2.09317 0.03663,4.12067 0.02713,6.60441l0.37455,1.82923c0,0 0.34322,1.71601 -1.37279,2.05924z"></path>
        <path d="M232.00002,197.75c-1.6105,0 -1.73888,-1.48212 -1.74911,-1.71841c-0.67036,-1.22644 -1.51114,-2.26861 -1.60929,-3.2481l-0.38598,-0.46317l0.13043,-0.10869c-0.1216,-0.08555 -0.2432,-0.17109 -0.3648,-0.25664l0.06952,-0.45313l-0.20677,0.04136l-0.37963,-1.89801c-0.74834,-0.807 -1.66702,-1.38659 -3.087,-2.07996c0,0 -1.56525,-0.78262 -0.78264,-2.34787c0.78262,-1.56525 2.34787,-0.78264 2.34787,-0.78264c3.2876,1.67523 4.74109,3.16015 6.41381,6.44836l0.00183,0.07758l0.02657,-0.01063l0.78528,1.96315c0.09006,0.21086 0.13991,0.44301 0.13991,0.68679c0,0.20536 -0.03537,0.40245 -0.10035,0.58552c0.10084,0.20213 0.2057,0.41238 0.31559,0.63185l0.18475,1.18262c0,0 0,1.75 -1.75,1.75z"></path>
        <path d="M254.77554,182.49775c-1.69774,-0.42446 -1.27328,-2.1222 -1.27328,-2.1222l0.38362,-1.48072c-0.16197,-0.6557 0.1489,-1.27744 0.1489,-1.27744c0.25358,-0.50605 0.50716,-1.01211 0.76074,-1.51816l0.76451,-1.91129c0.24816,-0.66464 0.8888,-1.13792 1.63998,-1.13792c0.9665,0 1.75,0.7835 1.75,1.75c0,0.20783 -0.03623,0.40721 -0.10272,0.59215l-0.78707,2.36124l-0.15586,-0.05195c-0.06546,0.13118 -0.13091,0.26236 -0.19637,0.39354c-0.10261,0.60115 -0.257,1.18908 -0.48312,1.75494l-0.32712,1.37454c0,0 -0.42446,1.69774 -2.1222,1.27328z"></path>
        <path d="M268.97331,164.46521l2.19195,0.31742c-0.26667,0.53334 -0.53335,1.06667 -0.80002,1.60001c0,0 -0.78264,1.56524 -2.34788,0.78261c-0.87026,-0.43514 -1.01473,-1.1122 -0.97146,-1.62766c-0.11052,-0.69554 0.29802,-1.30833 0.29802,-1.30833l0.17241,0.02497c0.17281,-0.34562 0.34563,-0.69124 0.51844,-1.03686z"></path>
        <path d="M261.46502,164.54784c-0.28264,0.45214 -0.89887,1.08553 -2.01839,0.71236c-1.6602,-0.55339 -1.10681,-2.21359 -1.10681,-2.21359l0.49495,-1.42926l1.18306,-2.36608c0.2806,-0.59193 0.8836,-1.00128 1.5822,-1.00128c0.9665,0 1.75,0.7835 1.75,1.75c0,0.09437 -0.00747,0.18699 -0.02185,0.2773l-0.39577,2.7702c0,0 -0.19676,1.37724 -1.46739,1.50034z"></path>
        <path d="M247.87107,193.51931c-0.90638,0.21238 -1.8152,0.41395 -2.72787,0.5967c0,0 -1.71602,0.3432 -2.05922,-1.37282c-0.3432,-1.71602 1.37282,-2.05922 1.37282,-2.05922c1.71722,-0.343 3.41999,-0.75676 5.11877,-1.18173l0.13566,2.74861l0.71321,0.64689c-0.22427,0.05603 -0.4486,0.11186 -0.67303,0.16737l0.0193,0.39098c0,0 -1.00344,0.66896 -1.89966,0.06322z"></path>
        <path d="M190.82892,242.21839c1.23744,-2.0223 2.34179,-4.0973 3.75846,-6.05134c0.85165,-1.17469 1.98715,-2.15346 2.68703,-3.42443c3.775,-6.85531 6.57412,-13.85737 11.3256,-20.19264c0,0 1.05,-1.4 2.45,-0.34999c1.4,1.05 0.34999,2.45 0.34999,2.45c-4.65449,6.20595 -7.3299,13.11551 -11.07442,19.80736c-0.45411,0.81154 -2.41516,3.09347 -2.91295,3.77558c-2.07528,2.84376 -3.48598,5.98155 -5.61264,8.81708c-2.28317,3.01994 -3.80242,6.45156 -5.77737,9.65425c-0.28869,0.55462 -0.57478,1.11359 -0.85736,1.67834c-0.64774,1.29457 -1.85394,4.73032 -3.00435,5.51758c-0.10412,0.07126 -0.21018,0.13896 -0.31794,0.20352l0.05024,0.0628l-1.98911,1.5913c-0.30117,0.24519 -0.68547,0.39219 -1.1041,0.39219c-0.9665,0 -1.75,-0.7835 -1.75,-1.75c0,-0.29393 0.07246,-0.57093 0.2005,-0.81412l0.78427,-1.56852c1.30927,-2.59496 3.35401,-4.49976 4.87659,-6.93738c0.02347,-0.03757 0.04688,-0.07517 0.07022,-0.1128c1.93438,-3.69991 3.98251,-7.19383 5.85317,-10.94981l0.39999,-0.79998c0,0 0.53139,-1.06278 1.59417,-0.999z"></path>
        <path d="M254.38268,124.76523c-0.19785,0.09893 -0.38319,0.16034 -0.55603,0.19215c-0.93302,1.63863 -2.1911,3.4039 -3.7195,3.91753c-1.21514,0.40835 -2.48993,-1.19431 -3.73827,-0.90286c-0.24195,0.05649 0.09485,0.50569 0.02755,0.74485c-0.19451,0.69117 -0.50808,1.344 -0.79999,2c-1.29126,2.90183 -3.30765,5.72535 -3.8804,8.8263c0,0 -0.3432,1.71602 -2.05922,1.37282c-1.71602,-0.3432 -1.37282,-2.05922 -1.37282,-2.05922c0.72386,-3.42343 2.69873,-6.37276 4.1196,-9.5737c0.46125,-1.03912 1.36513,-3.96221 2.42757,-4.45516c1.30575,-0.60585 2.89313,1.14322 4.26173,0.69715c0.94211,-0.30706 2.14165,-3.09853 2.54185,-3.90771l3.53051,0.79996c0,0 0.78266,1.56523 -0.78257,2.34789z"></path>
      </g>
      <path d="M226.25647,140.4787c0.13555,-0.08471 0.27159,-0.1687 0.40811,-0.25192c-0.00961,-0.07424 -0.01456,-0.14993 -0.01456,-0.22678c0,-0.18093 0.02746,-0.35545 0.07843,-0.51962l0.74592,-2.61076c-0.00193,-0.56769 -0.01919,-1.13523 -0.04736,-1.70249l-0.11047,-0.22095c-0.03852,0.00253 -0.07738,0.00382 -0.11653,0.00382c-0.69861,0 -1.3016,-0.40936 -1.58221,-1.00129l-0.73431,-1.46863l-0.53957,-0.80935c-0.29556,-0.44504 -0.56687,-0.87844 -0.81658,-1.30914c-0.88064,-1.33821 -1.63872,-2.58849 -2.04335,-4.41836c0,0 -0.10349,-0.5174 0.08729,-1.04081c0.0643,-0.51642 0.34679,-1.1608 1.30429,-1.40018c0.15254,-0.03814 0.29481,-0.05914 0.42741,-0.06578c0.3001,-0.24175 0.68167,-0.38646 1.09703,-0.38646c0.59548,0 1.12149,0.29742 1.43759,0.75181l1.98644,2.78102l-0.36387,0.25991c0.88105,1.08827 1.45258,2.27069 2.53626,4.44036l0.00112,0.07788l0.02729,-0.01092l0.78525,1.96315c0.09006,0.21086 0.1399,0.44299 0.1399,0.68677c0,0.13755 -0.01587,0.2714 -0.04588,0.3998c0.44711,0.89144 0.13658,1.96545 0.04588,2.98648v3.01371h-0.18881c0.01936,0.25944 0.02212,0.5202 0.00406,0.78261c-0.05206,0.75667 -1.11055,1.00331 -1.73494,1.46994l-0.64811,1.29618c-0.28061,0.59192 -0.8836,1.00127 -1.58219,1.00127c-0.87839,0 -1.60562,-0.64716 -1.73092,-1.49068l-0.05807,-0.3484c-0.36101,-0.49994 -0.36101,-1.11091 -0.36101,-1.11091l0.16415,-0.07025l-0.14034,-0.84205l1.33723,-0.22287l0.02373,-0.04746l0.06526,0.03263l0.40313,-0.06719z" fill="#794c0d"></path>
      <path d="M242.3642,212.22123c1.36415,-0.90238 2.99172,-0.06643 4.28089,0.76951c1.37821,-1.41744 2.57365,-3.72628 3.63286,-4.9374c2.66718,-3.0497 5.92774,-5.41551 8.59233,-8.40226c-0.01201,-0.02231 -0.02386,-0.04514 -0.03554,-0.06849c-0.78265,-1.56524 0.78259,-2.34788 0.78259,-2.34788l0.3452,-0.07222c1.67035,-1.66044 2.85624,-4.05056 4.6691,-5.33018c0.23859,-0.40229 0.50099,-0.83483 0.78897,-1.30933l0.20065,-0.10175l-0.05872,-0.05872l0.52056,-0.52056c0.36607,-0.63157 0.73381,-1.26224 1.10172,-1.89307c-0.55589,-0.29316 -0.93483,-0.8768 -0.93483,-1.54894c0,-0.40033 0.13443,-0.76927 0.3606,-1.06414l1.18938,-1.58585l0.16904,0.12678l0.01213,-0.01291c0.10366,-0.16602 0.20963,-0.33069 0.31729,-0.49437c0.80063,-1.72884 1.82158,-3.21713 3.12124,-4.97377c0.03439,-0.08785 0.06755,-0.17801 0.0997,-0.27016c-0.11812,0.11138 -0.23794,0.22132 -0.35982,0.33009c-0.16704,0.28373 -0.32487,0.57149 -0.47093,0.86435l-0.36839,-0.16028c-0.94231,0.74354 -2.02936,1.45511 -3.39196,2.22369l0.78307,-3.90347c1.38141,-2.756 3.84185,-5.03567 5.09107,-7.79427c1.71143,-3.7793 1.88118,-11.21479 -1.23986,-14.04827c0,0 -0.1172,-0.1172 -0.24339,-0.31553c-0.24505,-0.04334 -0.40851,-0.11339 -0.40851,-0.11339l-0.871,-0.37329c-0.31686,0.31799 -0.75528,0.51479 -1.23965,0.51479c-0.29393,0 -0.57093,-0.07246 -0.81411,-0.2005l-1.56852,-0.78426l0.03504,-0.07008l-0.17245,-0.00653c-0.0818,-0.06401 -0.16328,-0.12467 -0.2445,-0.18225c-0.25157,-0.05789 -0.41808,-0.14115 -0.41808,-0.14115l-0.35732,-0.17975c-1.36397,0.06789 -2.8085,-0.86636 -4.47223,-1.43538l-0.16352,-0.24916l-0.07429,0.09905l-1.58371,-1.18778c-0.24887,-0.18247 -0.44772,-0.42914 -0.57216,-0.71561c-0.40735,-0.29213 -0.81223,-0.56214 -1.24063,-0.78465l-0.55354,0.73804l-0.02345,-0.01758c-0.08689,0.11786 -0.18172,0.2303 -0.28604,0.33626c-1.06921,1.086 -4.4138,1.90206 -6.04512,2.36403l-0.03955,-0.01023l-0.71904,0.28762c-0.21086,0.09006 -0.443,0.13991 -0.68678,0.13991c-0.44316,0 -0.84784,-0.16472 -1.15617,-0.43628c-0.04225,-0.00874 -0.08394,-0.01899 -0.12501,-0.03071c-0.49261,0.24522 -1.04311,0.48858 -1.66889,0.74182l-1.96315,0.78526c-0.21086,0.09006 -0.443,0.13991 -0.68678,0.13991c-0.39866,0 -0.76618,-0.1333 -1.06043,-0.35776c-0.09572,0.87605 -0.83803,1.55776 -1.73956,1.55776c-0.25857,0 -0.50404,-0.05608 -0.72492,-0.15674l-1.80806,-0.77488c-0.20557,0.08482 -0.43084,0.13162 -0.66704,0.13162c-0.20784,0 -0.40721,-0.03623 -0.59215,-0.10272l-2.00885,-0.66962c-0.10735,-0.02768 -0.20925,-0.0607 -0.30521,-0.10036l-2.84743,-0.71185c-0.27209,-0.05786 -0.5361,-0.1195 -0.79233,-0.18996l-1.70151,-0.24308l0.04314,-0.302c-0.84634,0.01084 -1.68681,-0.05338 -2.50995,-0.23282l-0.22646,-0.34326l-0.10925,0.14567l-1.58368,-1.18778c-0.20167,-0.14787 -0.3705,-0.3379 -0.4935,-0.5571c-1.60825,-0.58893 -3.18608,-1.23356 -4.71948,-2.14552c-0.31412,0.38266 -0.78736,0.62972 -1.3186,0.64006l0.11061,1.72163c0.00309,0.0425 0.00466,0.08542 0.00466,0.12871c0,0.9665 -0.7835,1.75 -1.75,1.75c-0.75118,0 -1.39181,-0.47328 -1.63998,-1.13792l-0.78485,-1.96215l0.06593,-0.02637c-0.05635,-0.09543 -0.10965,-0.19288 -0.15952,-0.29262c-0.19073,-0.38146 -0.28783,-0.79112 -0.34072,-1.21461c-0.65434,-0.16053 -1.16412,-0.68906 -1.2974,-1.35368l-0.68964,-3.10329c-0.41462,-0.52714 -0.79419,-0.95378 -1.06235,-1.37932c-0.15592,0.04554 -0.32084,0.06996 -0.49147,0.06996c-0.75117,0 -1.3918,-0.47327 -1.63997,-1.1379l-0.77014,-1.9253c-0.09006,-0.21086 -0.13991,-0.44301 -0.13991,-0.68679c0,-0.48131 0.19431,-0.91724 0.50876,-1.23362c-0.20471,-0.9386 -0.41427,-1.88858 -0.58553,-2.83591c-2.15403,0.5422 -2.9461,-0.96282 -3.01696,-2.63721c-0.75162,-0.19643 -1.30627,-0.88007 -1.30627,-1.69325v-1.13818c-0.64304,-0.21272 -1.12089,-0.78825 -1.19107,-1.48411l-0.08231,0.10288c-0.3204,0.40761 -0.81794,0.6694 -1.37662,0.6694c-0.91796,0 -1.67084,-0.70678 -1.74415,-1.60584c-0.89907,-0.0733 -1.60586,-0.82618 -1.60586,-1.74415c0,-0.20784 0.03623,-0.40722 0.10273,-0.59216l0.7871,-2.36126l0.02587,0.00862c0.05853,-0.16361 0.12927,-0.32336 0.21465,-0.47846c0.06742,-0.12247 0.13664,-0.23858 0.20749,-0.34851l0.28599,-1.71593l0.25658,0.04276c-0.00858,-0.22137 -0.01717,-0.44275 -0.02575,-0.66412l0.59866,-0.28655l-0.1533,-0.20439l1.58586,-1.18941c0.29487,-0.22618 0.66381,-0.36061 1.06415,-0.36061c0.9665,0 1.75,0.7835 1.75,1.75v1.86951c1.28932,-0.21848 2.60909,0.28067 3.51021,1.97711c0.09653,0.18173 0.12925,0.3697 0.11772,0.562c0.8804,0.05734 1.76509,0.49699 2.5107,1.47136c0.60022,0.78436 0.61425,3.05563 0.26921,5.21207c0.22564,0.64911 0.18328,1.49435 0.35816,2.16477c0.52635,2.01784 0.7695,4.129 1.15145,6.18285l0.18327,0.10996c0.02667,-0.9432 0.79964,-1.69961 1.74929,-1.69961c0.59548,0 1.12149,0.29742 1.43759,0.75181l1.98644,2.78102l-0.40397,0.28855c0.79742,1.04025 1.48728,2.08763 2.74645,3.63539l0.67092,0.6558c0,0 0.18062,0.18063 0.33484,0.47287c0.12497,0.05946 0.19845,0.10846 0.19845,0.10846c0.05521,0.03728 0.11054,0.0741 0.16599,0.11047c0.22927,-0.69932 0.88729,-1.20438 1.66327,-1.20438h3.5v0.05429c0.03516,-0.01703 0.07032,-0.03407 0.10548,-0.0511l3.40508,0.40953c0,0 1.73728,0.21058 1.52671,1.94786c-0.01497,0.12352 -0.03766,0.2372 -0.0669,0.3418c1.32256,0.57891 2.6571,1.08143 4.01819,1.35007c0.39596,0.07815 0.79948,0.13168 1.20803,0.16957c1.8258,-2.74848 4.29663,-4.77527 6.05118,-7.44849c1.37283,-2.09163 2.42064,-5.3349 4.2148,-7.06096c1.12843,-1.0856 2.96258,-1.06613 4.3174,-1.8512c1.97232,-1.14289 3.24422,-3.82369 3.9744,-6.59811c-0.00053,-0.00407 -0.00106,-0.00814 -0.00159,-0.01221c-0.12505,-0.97455 0.19375,-1.93633 0.5803,-2.90449c0.15239,-1.10555 0.22089,-2.13898 0.21689,-2.99656c0.01423,-3.05428 -1.00878,-6.50378 -2.24641,-9.2831c-0.51207,-1.14994 -1.6842,-1.98436 -2.00117,-3.2026c-0.32121,-1.23455 -1.00539,-2.87225 -0.15576,-3.82378c0.03256,-0.03646 0.06521,-0.07192 0.09796,-0.10638c-0.22594,0.10639 -0.47833,0.16586 -0.74462,0.16586c-0.66667,0 -3.33333,0 -4,0c0,0 -1.75,0 -1.75,-1.75c0,-1.75 1.75,-1.75 1.75,-1.75c0.16976,0 0.33951,0 0.50927,0c0.32811,-1.34953 1.58106,-3.24905 2.0385,-4.02649l0.08402,-0.04968l-0.03179,-0.02384l0.26236,-0.3498c-0.21795,-1.01981 -0.01514,-1.90363 1.48362,-1.728c0.25261,-0.14151 0.54389,-0.22218 0.85402,-0.22218c0.6905,0 1.28759,0.39991 1.5723,0.98075c2.51566,1.16574 1.61375,3.44239 0.80903,5.08625l0.11641,0.05858c0,0 0.42443,1.69775 -1.27332,2.12218c-0.08537,0.02134 -0.16752,0.03732 -0.24656,0.04841l-0.36566,0.48754c-0.09787,0.13348 -0.21421,0.25257 -0.34525,0.35351c1.75358,-1.0826 3.68006,0.20103 5.20717,1.79734c0.47616,0.19894 0.84565,0.60226 0.99883,1.10033l0.02568,0.07705c0.58353,0.72966 1.05919,1.42292 1.37545,1.89489c4.5884,6.84751 5.08304,15.70247 2.47602,23.35536c-4.8365,6.58059 -10.04233,13.61174 -16.90131,18.18986l-0.85549,0.68439l0.09605,0.03202c0.89666,-0.62139 2.36977,-1.15088 3.53197,-1.5618c-0.12235,-0.99254 0.80795,-1.61275 0.80795,-1.61275c0.90034,-0.5869 1.80069,-1.17381 2.70103,-1.76071l0.35289,0.03276l-0.0264,-0.13199l1.96457,-0.39291c0.12192,-0.02689 0.24862,-0.04107 0.37863,-0.04107c0.35231,0 0.6803,0.10411 0.95489,0.28323l0.35834,-0.14333c0.21086,-0.09006 0.44299,-0.1399 0.68677,-0.1399c0.9665,0 1.75,0.7835 1.75,1.75c0,0.05868 -0.00289,0.11668 -0.00853,0.17388c1.41465,0.55286 2.63986,1.62685 3.85758,2.51448l2.27474,0.75824l-0.128,0.384c0.81443,0.20247 1.60314,0.47494 2.34573,0.84901c0.51468,0.18097 1.03089,0.39979 1.5516,0.71519l0.05725,-0.09542l0.06734,0.0404c0.75562,-0.56231 1.72165,-0.1483 1.72165,-0.1483l2.80002,1.20001c0,0 0.48396,0.20741 0.80718,0.66016c0.55559,0.12561 0.94087,0.5109 0.94087,0.5109c3.78846,4.02158 4.29974,11.51806 2.36464,16.93219c0.01349,0.0306 0.02613,0.06167 0.03789,0.09316l0.78488,1.96215l-0.11505,0.04602c0.09918,0.21708 0.18061,0.44183 0.23871,0.67665c0.19688,0.79571 -0.63913,1.50969 -0.96095,2.26357c-0.079,0.18507 -0.15795,0.36865 -0.23691,0.55085c0.24949,0.30246 0.39935,0.69015 0.39935,1.11285c0,0.23054 -0.04458,0.45066 -0.12558,0.65222l-1.18582,3.16223l-0.0155,-0.00581c-0.00619,0.03031 -0.01251,0.06059 -0.01896,0.09086c-0.15008,0.70368 -2.64761,4.95373 -2.88471,5.36874c-0.59943,1.04921 -1.20674,2.09235 -1.81476,3.1343c0.02966,0.12769 0.04533,0.26075 0.04533,0.39747c0,0.36773 -0.11342,0.70897 -0.30719,0.99064l-1.58673,2.38009l-0.03162,-0.02108c-0.03482,0.06868 -0.07105,0.13678 -0.10879,0.20425c-0.20244,0.36194 -0.49329,0.64994 -0.81983,0.90919c-0.72051,1.27609 -1.4256,2.56168 -2.10239,3.86557l-0.81171,1.62103c-0.2808,0.59141 -0.88352,1.00032 -1.58174,1.00032c-0.17137,0 -0.33699,-0.02463 -0.49351,-0.07055c-0.0769,0.13494 -0.13996,0.21376 -0.13996,0.21376c-2.88627,3.57107 -6.61045,6.18783 -9.64446,9.65339c-0.55728,0.63654 -1.10978,1.41724 -1.68417,2.22766l0.52784,1.16124c0.19725,0.10249 0.39705,0.20221 0.59691,0.30188l0.47481,-0.47481l2,2l-0.03144,0.03144c0.12234,0.12302 0.23749,0.25381 0.34411,0.39382c1.32643,1.74162 1.0979,4.19261 1.4056,6.40675c0.17961,0.72773 0.32609,1.48071 0.45789,2.23822c0.39378,1.85452 0.73192,3.71868 1.04125,5.58813c0.011,0.03964 0.02213,0.07909 0.03338,0.11835c0.84257,2.93939 1.8441,5.82652 2.84285,8.71558c0.69393,0.0514 1.27526,0.50746 1.50886,1.13306l0.78488,1.96215l-0.08893,0.03557l0.15365,0.15841c0.04154,0.27469 0.09227,0.55473 0.14948,0.8391l0.12795,0.38385l-0.00753,0.00251c0.00512,0.00695 0.01019,0.01396 0.01519,0.02104c0.95752,1.3529 1.23015,3.04078 1.58088,4.69518c0.17802,0.15664 0.32395,0.34887 0.42668,0.56558l1.18303,2.36611l-0.03066,0.01533c0.03643,0.05267 0.07202,0.10603 0.1067,0.16013c0.63316,0.98747 0.59657,2.26925 0.86341,3.41152c0.09602,0.41101 0.19078,0.82199 0.28403,1.23302c0.38087,0.19263 0.68177,0.52042 0.83962,0.9203l0.89789,2.13068l-0.05553,0.0234l0.11569,0.14219c0.03704,0.18292 0.07675,0.36713 0.11855,0.55248l0.50675,0.8868c0.12489,-0.02829 0.25484,-0.04323 0.38829,-0.04323c0.86022,0 1.57547,0.62066 1.72237,1.43859l0.39364,1.96821l-0.03881,0.00776l0.05363,0.07717c0.18835,1.88078 0.59538,3.81004 0.72197,5.69464c0.20298,0.63018 0.3689,1.3175 0.52042,2.10965c0.68498,0.23735 1.17679,0.88823 1.17679,1.65397c0,0.17342 -0.02523,0.34096 -0.07221,0.49913l-0.46789,1.71559l0.09047,0.54282l0.06756,-0.01279c0.52266,0.25752 1.0054,0.43859 1.44666,0.59232c1.45506,0.07394 3.0353,0.68367 4.30671,1.31937l0.13152,0.40396l0.14718,-0.11038l1.18937,1.58586c0.22617,0.29486 0.3606,0.6638 0.3606,1.06413c0,0.9665 -0.7835,1.75 -1.75,1.75c-0.36773,0 -0.70897,-0.11342 -0.99064,-0.30719l-1.96388,-1.30926l-0.9451,0.56707l-0.02262,-0.03769c-0.13138,0.08256 -0.26794,0.15755 -0.41062,0.22358c-1.10951,0.51347 -2.44465,0.05071 -3.66715,0.0635c-1.00877,0.01056 -1.89875,0.01094 -2.75447,0.04699c-0.20978,0.57809 -0.71552,1.01426 -1.33409,1.12537l-1.96821,0.39367l-0.0217,-0.10847l-0.05854,0.00836l-0.19909,0.13293c-0.06233,-0.02592 -0.12465,-0.05185 -0.18698,-0.07777l-0.08738,0.01248l-0.00662,0.05294l-0.1941,-0.02426l-0.14131,0.02019l-0.00551,-0.03854l-0.17336,-0.02167c-0.06792,0.03536 -0.14271,0.05969 -0.22579,0.07073c-0.58904,0.07831 -1.15697,-0.08041 -1.71826,-0.31375l-0.71865,-0.08984c-0.53253,-0.05874 -0.99309,-0.35643 -1.27209,-0.7835c-0.00255,-0.00082 -0.00509,-0.00164 -0.00764,-0.00245l-0.67675,-0.00989c0,0 -0.97133,-0.08386 -1.4014,-0.85139c-0.14301,0.03777 -0.29319,0.05789 -0.44808,0.05789c-0.56122,0 -1.06073,-0.26418 -1.38097,-0.67497c-0.09571,0.08207 -0.19289,0.16515 -0.29162,0.24935l0.00014,-0.00002l-0.20145,0.03356l0.03523,0.06658l-1.71303,0.90657c-0.25124,0.13947 -0.54042,0.2189 -0.84815,0.2189c-0.9665,0 -1.75,-0.7835 -1.75,-1.75c0,-0.35038 0.10297,-0.67671 0.2803,-0.95038l1.84069,-2.94512l0.44041,0.27526c0.22189,-0.36824 0.45965,-0.72413 0.71596,-1.06365c-0.05028,-0.16315 -0.07735,-0.33647 -0.07735,-0.51612v-0.73817c-0.69706,-0.23057 -1.20001,-0.88746 -1.20001,-1.66183c0,-0.17343 0.02523,-0.34096 0.07221,-0.49913l0.91037,-3.338l0.00302,0.00082c0.00056,-0.00592 0.00112,-0.01184 0.00169,-0.01776c0.17023,-1.77413 0.85639,-3.67538 1.55262,-5.60574c0.14932,-0.49087 0.31244,-0.9703 0.49236,-1.42871c0.08216,-2.60423 0.19995,-5.19539 0.54218,-7.77016c-0.72045,-0.07176 -1.31227,-0.58045 -1.50666,-1.25729l-1.0321,-3.30272c-1.50325,-2.79852 -1.89203,-6.71619 -2.91077,-9.73625l-0.00012,-0.00138l-0.00031,0.0001l-0.45779,-1.36588c-0.54851,-0.15661 -0.98696,-0.57412 -1.17256,-1.10976l-0.77226,-2.07087c-0.48494,-0.12194 -0.8895,-0.44626 -1.11864,-0.87794l-1.68277,-3.029l0.02599,-0.01444c-0.03641,-0.05029 -0.07223,-0.10109 -0.10742,-0.15241c-0.58151,-0.84812 -0.98086,-1.96575 -1.27127,-3.19187c-1.92143,-3.68116 -3.91475,-7.3185 -5.82783,-11.00163c-1.5214,-0.27027 -2.89965,-0.74797 -3.62738,-1.39255c-0.18734,-0.16593 -0.53439,-1.93883 -1.39484,-1.90293c-1.37205,0.05724 -2.81484,0.07135 -4.09866,-0.41609c-3.54265,0.05407 -5.94292,0.89699 -9.32585,1.59758l-0.80723,0.16145c0.00925,0.07288 0.01402,0.14717 0.01402,0.22256c0,0.9665 -0.7835,1.75 -1.75,1.75c-0.07576,0 -0.1504,-0.00481 -0.22362,-0.01415c0.0119,0.45824 0.02823,0.91696 0.03543,1.37468l0.50819,-0.2992c-0.19071,1.56836 -0.12263,3.19046 -0.57213,4.70507c-0.81918,2.76029 -3.21968,5.28566 -4.93561,7.6505c-1.48551,2.72261 -2.97613,5.44203 -4.49831,8.14477l-2.76762,2.2229c-0.87346,1.13991 -1.77944,2.25963 -2.73409,3.35179l-0.49525,0.566c0,0 -0.83627,0.95574 -1.89819,0.52648c-1.78941,3.56149 -3.63069,7.10669 -5.23182,10.70437c-0.1091,0.24515 -0.21264,0.4882 -0.31244,0.72867l0.07521,2.49552c-0.15192,0.21596 -0.30173,0.43269 -0.44967,0.65013c-0.00184,0.04213 -0.00571,0.08448 -0.01178,0.12708c-0.1693,1.1873 -1.11616,2.12311 -1.67956,3.18185c-0.30313,0.56965 -0.60614,1.13712 -0.90778,1.70388l1.09544,0.01274c-0.99767,1.34814 -2.01008,2.69636 -3.15066,3.92543c-0.6048,1.19673 -1.19097,2.40498 -1.74706,3.63803l-3.58693,4.03392c-0.22656,-1.56293 -0.74395,-3.11616 -0.82388,-4.68398c-2.01059,0.86919 -4.0301,1.71405 -6.02829,2.62911c-2.73104,1.25067 -5.12107,2.60985 -7.76439,2.7917c-0.14696,0.09628 -0.29295,0.19873 -0.43784,0.30827l-1.68165,-0.42704c-0.38383,-0.07034 -0.77523,-0.16877 -1.17572,-0.29856l1.14263,-2.32558c0.12588,-0.09369 0.26654,-0.19492 0.41974,-0.30176c-0.38782,-0.16965 -0.80764,-0.36448 -1.26903,-0.58558l2.44929,-3.11267c2.61413,-1.05496 5.66946,-2.27355 8.40544,-2.96507c1.92811,-0.48733 4.45093,-0.64028 6.22868,-1.72904c0.40947,-0.25078 1.42468,-2.52508 1.5346,-2.70033c2.87249,-4.5797 5.49893,-9.00372 7.92339,-13.8626c1.48561,-2.97117 3.09093,-5.86369 4.69558,-8.74642c0.36057,-1.70634 1.25808,-3.44604 1.95377,-4.84192c0.9343,-1.87465 1.95788,-3.69355 3.03455,-5.47994c0.00287,-0.01489 0.00576,-0.02978 0.00868,-0.04466c0.76599,-3.89806 3.4378,-7.84448 5.42209,-11.30475c0.15045,-0.96226 0.15165,-1.91946 -0.06543,-2.85648c0,0 -0.31491,-1.57455 1.16683,-2.00879c0.04317,-1.68441 1.74917,-1.68441 1.74917,-1.68441c1.54803,0.00502 3.1096,-0.08789 4.62758,-0.39148l0.17244,0.07032v-0.07884h1.82671l1.83008,-0.36604c3.79801,-0.72581 6.64997,-1.64893 10.67415,-1.6024c1.203,0.51023 2.61842,0.13562 3.90134,0.3839c1.20769,0.23373 2.10311,1.26603 2.90603,2.27095c0.12459,-0.32932 0.38474,-0.65453 0.87906,-0.90168c1.04165,-0.52082 1.73669,-0.00185 2.08514,0.40364c0.07755,-0.07992 0.16429,-0.15267 0.2617,-0.2171zM245.50718,218.88241l-0.03707,-1.33438c-0.19959,0.03325 -0.40893,0.06025 -0.62601,0.08115c0.22038,0.4181 0.44148,0.8358 0.66308,1.25323zM263.90674,279.26797c0,0 0,0 0,-0.00001h0.00001zM263.71459,279.35902l0.063,0.06028l-0.09742,0.10182c0.12538,0.04142 0.25092,0.08236 0.37661,0.12286l0.00885,-0.00177c-0.0657,-0.11944 -0.11786,-0.24739 -0.15441,-0.38176c-0.0015,0.0025 -0.003,0.00501 -0.00449,0.00751zM263.28632,271.95043c0.0445,-0.05018 0.08777,-0.1001 0.12967,-0.14976l0.07993,-0.09571l-0.09688,-0.19377c-0.03818,0.1452 -0.07586,0.29157 -0.11272,0.43924zM240.28192,148.26408c0.01679,0.00138 0.03357,0.00278 0.05035,0.0042c0.01276,-0.04006 0.02693,-0.0795 0.04243,-0.11825c-0.03101,0.03791 -0.06193,0.07592 -0.09278,0.11405zM256.45029,131.91746c0.80581,-1.04833 1.60281,-2.09603 2.39961,-3.12964c0.34818,-1.07668 0.59581,-2.05594 0.76069,-2.98096c-0.13853,0.32742 -0.28691,0.65277 -0.44532,0.97576l-0.00001,0.00001l-0.78306,1.5661c-0.14511,0.30609 -0.37642,0.56337 -0.66259,0.74046c-0.35261,0.99009 -0.7729,1.9378 -1.26933,2.82827z" fill="#001769"></path>
      <path d="M236.43478,115.61737c0.183,-0.36601 0.4088,-0.60364 0.64737,-0.75292c0.15651,-0.80598 0.86613,-1.41446 1.71786,-1.41446c0.28826,0 0.56023,0.06969 0.8,0.19315c0.23977,-0.12346 0.51175,-0.19315 0.8,-0.19315c0.9665,0 1.75,0.7835 1.75,1.75c0,0.24378 -0.04985,0.47592 -0.1399,0.68677l-0.77011,1.9253c-0.15966,0.42761 -0.48178,0.77601 -0.89126,0.97013l-1.53461,0.7673c-0.24319,0.12803 -0.52019,0.2005 -0.81411,0.2005c-0.9665,0 -1.75,-0.7835 -1.75,-1.75c0,-0.27796 0.0648,-0.54078 0.18012,-0.77418c-0.23013,-0.38545 -0.3388,-0.9216 0.00463,-1.60845z" fill="#ffffff"></path>
      <path d="M217.46071,149.40675c0,0 0.19325,-1.7393 1.93255,-1.54604c1.7393,0.19325 1.54604,1.93255 1.54604,1.93255c-0.49416,4.44522 -1.34359,8.79421 -1.95042,13.21934l-0.03918,1.82038c-0.00058,0.03159 -0.002,0.06297 -0.00424,0.09413c0.00562,0.15515 0.00017,0.65858 -0.26848,1.1034c0.81817,1.1375 -0.2395,2.19518 -0.2395,2.19518c-2.33024,2.31138 -3.87251,5.19091 -5.83746,7.81259l-0.7164,0.2786c-0.00458,0.0073 -0.00921,0.01456 -0.01389,0.02178l-1.8407,2.94511l-0.13659,-0.08537c-0.42598,1.03834 -0.9727,2.00459 -1.8285,3.17214c0.05094,0.16334 0.0736,0.32542 0.08018,0.4729c0.00391,0.04776 0.00591,0.09606 0.00591,0.14482c0,0.00889 -0.00007,0.01776 -0.0002,0.02661c0.14825,0.63595 -0.1763,1.18486 -0.37414,1.44689c-0.56469,1.75384 -1.3635,4.07949 -1.2271,5.65572c0.06937,0.80154 1.7672,5.12924 1.89001,5.45632l0.45917,1.79003c0,0 0.17556,0.70227 -0.15081,1.31639c0.14365,0.38228 0.28661,0.76482 0.42917,1.14749l1.12451,1.86019c0,0 0.069,0.11501 0.13697,0.30045l0.56243,0.7499c0,0 0.59524,0.79364 0.29183,1.634l0.56426,0.84529c0,0 0.97072,1.45609 -0.48538,2.42681c-0.33735,0.22489 -0.64864,0.31953 -0.92784,0.33219c-0.04133,0.12175 -0.07763,0.19435 -0.07763,0.19435c-7.32588,14.58685 -14.30189,29.37225 -21.60001,43.99999c-3.16904,6.28479 -8.06507,11.66166 -11.19998,18l-0.90918,1.38812c0,0 -0.83581,1.25369 -2.11963,0.65892c-0.20336,0.90399 -1.18305,1.23056 -1.18305,1.23056c-1.79367,0.58448 -3.32493,1.49784 -4.81675,2.51141c1.32761,-0.26406 2.66988,-0.46915 3.96468,-0.69595l-0.00001,-0.00001c5.62376,-0.98509 10.9488,-2.29813 16.55433,-3.21969l0.14434,0.03536v-0.04132h1.90855l-0.34654,-1.2129l-0.31151,-0.62302c-0.12803,-0.24318 -0.20049,-0.52018 -0.20049,-0.8141c0,-0.9665 0.7835,-1.75 1.75,-1.75c0.51427,0 0.97673,0.22183 1.29691,0.57502c0.04509,-0.19265 0.09153,-0.38471 0.13931,-0.57627c0.10832,-1.17238 0.26509,-2.32045 0.92156,-3.25339c0.01611,-0.02289 0.0324,-0.04561 0.04887,-0.06816c0.24102,-0.72342 0.4998,-1.445 0.77502,-2.16855c-0.2872,-0.66127 -0.02025,-1.37313 -0.02025,-1.37313c0.09695,-0.25747 0.19637,-0.51382 0.29809,-0.76914c0.03564,-0.34178 0.16965,-0.65431 0.37323,-0.90877c0.21792,-0.51551 0.44448,-1.02711 0.67821,-1.53549c-0.65769,-0.90685 0.03298,-1.94284 0.03298,-1.94284c1.17805,-1.76707 2.35469,-3.5348 3.53102,-5.30259c-0.56161,-0.85027 0.02446,-1.82706 0.02446,-1.82706c2.64561,-4.4093 5.51475,-8.59667 8.41568,-12.76731l0.1305,-0.24048c0.06991,-0.08545 0.14095,-0.16984 0.21307,-0.25322c2.2215,-3.19064 4.45719,-6.37623 6.62116,-9.64872c0.56777,-0.85861 1.09777,-1.73647 1.60847,-2.62409c-0.02509,-0.11798 -0.03829,-0.24035 -0.03829,-0.36581c0,-0.33963 0.09675,-0.65666 0.26419,-0.92504l1.18521,-1.97534l0.01862,0.01117c0.00974,-0.02914 0.01965,-0.05823 0.02975,-0.08727c0.41573,-1.19576 1.2371,-2.19365 2.17038,-3.13777c0.35304,-0.59075 0.71753,-1.17552 1.09908,-1.75142c-0.44845,0.10515 -0.89419,0.22077 -1.33646,0.34834c0,0 -1.68267,0.48077 -2.16343,-1.2019c-0.48077,-1.68267 1.2019,-2.16343 1.2019,-2.16343c0.04767,-0.0135 0.09537,-0.02689 0.14311,-0.04016c0.19342,-0.16163 0.35505,-0.24244 0.35505,-0.24244l0.96815,-0.47331c1.1674,-0.42778 2.25891,-1.28894 3.50221,-1.28334c0.10444,0.00047 0.20851,0.00388 0.31224,0.00996v-0.03804h3.20001c0.05419,0 0.1078,0.00246 0.16073,0.00728c-0.9133,-0.9982 -0.79131,-1.56436 -1.64937,-2.93726c-2.33796,-3.74075 -3.99483,-8.30258 -6.63343,-11.77343c-1.58374,-1.58377 -3.71954,-3.64977 -4.36445,-5.87946c-1.07776,-3.72623 1.13838,-8.02632 2.99788,-10.98717c1.12292,-1.788 1.86023,-5.7536 5.09067,-5.18315c0.00602,0.00106 0.01202,0.00216 0.018,0.0033c0.95727,0.01074 1.72997,0.79007 1.72997,1.74989v0.33209c0.10145,0.22727 0.20103,0.44873 0.30527,0.64995c0.46509,0.89771 0.0375,2.24664 0.78215,2.93052c0.84127,0.77261 2.22152,0.74486 3.08387,1.49387c0.38967,0.33845 0.709,0.70422 0.98583,1.0902c-0.26021,-1.62027 -0.39678,-3.22746 -0.24861,-4.71907c0.07201,-0.72493 0.1958,-1.4212 0.36241,-2.09439c-1.09028,-0.43611 -2.18056,-0.87222 -3.27085,-1.30833c0,0 -1.62484,-0.64993 -0.97491,-2.27476c0.43,-1.07503 1.28677,-1.15429 1.81736,-1.08485c-0.07648,-0.07646 -0.1532,-0.15238 -0.22997,-0.2278l-1.01864,-1.46672c0,0 -0.97072,-1.45609 0.48538,-2.42681c1.45609,-0.97072 2.42681,0.48538 2.42681,0.48538l0.58133,0.93328c0.77556,0.78692 1.53074,1.61779 2.17852,2.51776c0.94028,-1.69401 2.04226,-3.31702 3.09541,-5.00034c0.9545,-1.52565 1.39538,-3.45561 2.46899,-4.90322c1.81734,-2.45042 3.60407,-3.95068 4.83065,-6.84126c1.89565,-1.44428 2.48709,-2.42581 5.09775,-2.28212c1.4099,0.0776 2.64741,1.24841 4.05898,1.21211c0.66411,-0.01708 1.36712,-1.29565 1.54363,-1.58552c1.0913,-1.79223 1.04866,-3.0968 3.88867,-3.22996c3.18634,-0.1494 4.40682,3.5128 6.40742,4.98817l1.80463,0.72184c0.66464,0.24816 1.13792,0.8888 1.13792,1.63998c0,0.22598 -0.04283,0.44196 -0.12082,0.64025c0.15362,0.05861 0.29873,0.13232 0.4282,0.23417c0.28233,0.22209 0.02943,1.20193 0.34056,1.0224c0.44215,-0.25513 -0.03954,-1.27626 0.4332,-1.46887c0.80845,-0.3294 1.74194,0.33199 2.60887,0.22939c0.38502,-0.04557 0.87995,-0.22548 1.42559,-0.46071l-0.96595,-0.64601c-0.92767,-0.55682 -1.83882,-1.15942 -2.74174,-1.78401c-1.50844,0.36578 -2.0181,-1.16321 -2.0181,-1.16321l0.1529,-0.15703c-0.6764,-0.48616 -1.35137,-0.97548 -2.02851,-1.45771c-3.19363,-1.79257 -6.60811,-3.18302 -9.55262,-5.27623c-0.90701,0.89457 -1.86544,1.72624 -2.87179,2.47498c0.07126,0.19066 0.11022,0.39708 0.11022,0.61259c0,0.9665 -0.7835,1.75 -1.75,1.75c-0.48983,0 -0.93266,-0.20125 -1.25031,-0.52557c-0.96846,0.51435 -1.97211,0.94894 -3.0085,1.2898c-2.25224,0.74073 -5.08363,0.63253 -7.42837,0.4836c-6.44501,-0.40936 -12.2774,-1.66615 -17.58686,-5.26183l-1.77595,-0.33599c-2.56064,-1.99961 -4.72209,-4.68112 -6.52519,-7.54629c-0.35452,0.34283 -1.21423,0.95343 -2.27482,0.15801l-0.00001,0.00001c-1.40001,-1.04999 -0.35002,-2.45 -0.35002,-2.45l0.74188,-0.98919c-0.17336,-0.33025 -0.34238,-0.66046 -0.5071,-0.98991c-0.52065,-1.06154 -0.89782,-2.19534 -1.15563,-3.37519l-0.84173,0.84172c0,0 -1.23744,1.23743 -2.47487,-0.00002c-0.01959,-0.01959 -0.03856,-0.03918 -0.05693,-0.05877c2.96377,4.8361 5.99737,9.69726 8.03869,15.00454c1.15554,3.00433 2.05274,6.15306 2.85418,9.32349c0.24897,-1.62613 0.4797,-3.25661 0.6622,-4.89993zM156.80001,283.75002c-0.50456,0 -0.95924,-0.21353 -1.27862,-0.55515c-0.21996,0.09965 -0.46419,0.15513 -0.72138,0.15513c-0.9665,0 -1.75,-0.7835 -1.75,-1.75c0,-0.40034 0.13443,-0.76928 0.36061,-1.06415l1.18939,-1.58583c3.90853,-5.14377 10.62621,-9.15945 16.09966,-12.45061c0,0 0.34942,-0.20965 0.81221,-0.25801c2.02132,-4.63047 4.50071,-9.08389 6.95408,-13.48352c2.08498,-3.73898 3.38035,-7.87534 5.56633,-11.53549c4.94351,-12.29689 15.82086,-22.55248 18.88446,-35.67339c-1.10764,-1.69611 -1.50754,-3.77453 -1.67461,-5.86278c-1.65368,-4.01491 -2.95695,-8.67082 -2.58362,-12.65865c0.75279,-8.04113 5.06088,-15.75901 10.46189,-21.73452c-0.02827,-0.09647 -0.04846,-0.1964 -0.05978,-0.29901l-0.39711,-3.17696l0.03305,-0.00413c-0.01655,-0.06663 -0.03208,-0.13361 -0.04652,-0.20094c-0.06187,-0.28845 0.04633,-1.27808 0.20461,-2.40276c-0.08394,-0.99201 -0.14181,-1.92623 -0.03454,-2.85058c-0.13901,-0.57316 -0.29201,-1.14301 -0.45197,-1.70925l-1.09864,-2.19727l0.01311,-0.00656c-0.01717,-0.02481 -0.03423,-0.04971 -0.05117,-0.0747c-0.85133,-1.25619 -1.80735,-5.42216 -2.23031,-6.85059c-0.13268,-0.4481 -0.26182,-0.89645 -0.38806,-1.34498c-0.7311,-1.77048 -1.44594,-3.54305 -2.086,-5.34415c-0.23473,-0.55993 -0.47042,-1.10945 -0.71067,-1.64055l-0.13585,0.07763l-1.58473,-2.7733c-0.15613,-0.26185 -0.24582,-0.56791 -0.24582,-0.89492c0,-0.1162 0.01132,-0.22975 0.03293,-0.33962c-0.35449,-0.42629 -0.72718,-0.83487 -1.12037,-1.22295c0,0 -0.44342,-0.44342 -0.53395,-1.06481c-2.28762,0.19283 -4.43766,-0.95334 -5.48881,-3.83095c-0.27247,-0.74591 0.00364,-1.5914 -0.08129,-2.38097c-0.90211,-8.38639 5.02526,-14.3497 13.50944,-12.62772l0.17413,0.17116l0.04056,-0.08113l1.56607,0.78305c0.59192,0.28061 1.00127,0.8836 1.00127,1.5822c0,0.29074 -0.0709,0.56491 -0.19635,0.80619c0.42753,0.71469 0.6826,1.54642 0.83495,2.36052c0.32026,-1.56465 0.71542,-3.07177 1.13396,-4.46536c0.72333,-2.40841 1.45548,-5.26392 3.05776,-7.32459c2.45641,-3.15915 5.97144,-4.75944 9.56977,-6.20159c0,0 0.96073,-0.38429 1.70019,0.17688c0.25827,-0.1257 0.51484,-0.23857 0.77071,-0.3406c0.07861,-0.91779 0.99639,-1.37669 0.99639,-1.37669c2.22849,-1.11427 3.77041,-1.86565 5.54519,-3.67218l1.59997,-1.60001c0.31669,-0.3167 0.75419,-0.51258 1.23745,-0.51258c0.34664,0 0.66973,0.10078 0.94159,0.27464c0.1556,-0.0785 0.30945,-0.15918 0.46015,-0.2436l0.39828,-0.53104l0.13939,0.10455l0.1393,-0.39811c0.14343,-0.01283 0.28686,-0.02565 0.43028,-0.03848l-0.0916,-0.1832l1.56852,-0.78426c0.24319,-0.12803 0.52019,-0.2005 0.81411,-0.2005c0.38953,0 0.74933,0.12727 1.04009,0.34248c1.11985,-0.31229 2.3592,-0.4848 3.19196,-0.64776l1.38532,-0.70997c0,0 1.28184,-0.64092 2.10552,0.39725l0.66297,-0.33149c0.24319,-0.12804 0.52019,-0.20051 0.81412,-0.20051c0.9665,0 1.75,0.7835 1.75,1.75c0,0.12098 -0.01227,0.23908 -0.03564,0.35314c2.59834,-2.23265 6.40004,-3.39882 7.58883,0.44478c0.15675,0.5068 -2.03562,6.42358 -2.38716,7.54528c-0.10765,0.34349 -0.70569,0.64316 -0.51561,0.94883c0.25979,0.41777 0.98014,0.21255 1.39864,0.47116c1.08972,0.67337 3.72746,3.06876 4.42063,4.01358c4.06984,5.54734 4.72141,11.38652 4.72591,17.94729c-0.78215,5.26335 -2.317,9.41823 -5.54561,13.72594l-0.00314,0.00473c-0.97075,1.65729 -2.08211,3.28194 -3.32151,4.80219c0.42809,0.3007 0.8682,0.58662 1.31761,0.86134c0.69511,-0.23078 1.38966,0.11649 1.38966,0.11649c2.13509,1.08141 4.15067,2.4391 6.14796,3.84956c0.55543,0.30284 1.10355,0.61657 1.63984,0.94705c3.0294,0.79845 4.87712,2.57435 7.525,4.2212c0.18667,0.01003 0.36556,0.04932 0.53218,0.11335c0.48876,0.16606 1.08973,0.57005 1.12112,1.55287c3.55979,1.26331 4.67859,8.62951 3.51149,11.78461c-0.22636,0.61192 -0.59494,1.171 -1.05451,1.69611c0.16805,5.75406 -0.53783,11.84845 -2.12822,17.04917c-0.72308,2.36455 -2.22857,4.11204 -3.30973,6.27897c-2.13592,4.28098 -3.99062,8.11925 -7.4457,11.56896c-2.7527,3.67034 -6.09525,5.99654 -10.13939,8.01865l-1.42926,0.49495c0,0 -0.06323,0.02108 -0.16912,0.04266c1.24374,6.75527 4.31843,13.3728 6.75593,19.73726c3.75496,9.80442 6.95734,19.88149 12.39387,28.91776c0.72732,1.49167 0.95639,3.17966 1.35659,4.79021c0.83551,3.36238 2.4323,6.06529 2.45935,9.65191l0.30779,1.04052c0.46023,0.03995 0.81044,0.24007 0.81044,0.24007c2.46784,1.41087 6.13885,2.66273 8.34648,4.37064c1.24083,0.95995 2.92096,1.81437 3.32586,3.33003c0.12809,0.47948 -0.41437,0.69362 -1.02052,0.87409c0.11375,0.09485 0.21527,0.20386 0.30187,0.32433c0.5386,0.15216 1.03338,0.36883 1.2272,0.83921c0.5224,1.26787 0.68951,3.00094 -0.11383,4.11226c-1.03511,1.43194 -4.90671,0.88903 -6.36284,1.01032c-5.88381,0.49009 -12.04943,1.5791 -17.9449,0.40003c-4.44752,0.00576 -8.99314,-0.13784 -13.43969,0.76541c-0.11333,0.09247 -0.24733,0.17938 -0.40522,0.25833c-1.56524,0.78264 -2.34788,-0.78261 -2.34788,-0.78261c-0.10148,-0.21427 -0.19295,-0.42748 -0.27516,-0.63982c-0.05256,0.00475 -0.1058,0.00718 -0.1596,0.00718c-0.9665,0 -1.75,-0.7835 -1.75,-1.75c0,-0.65666 0.36167,-1.22884 0.89668,-1.52822c-0.73665,-0.67699 -0.42936,-1.75253 -0.42936,-1.75253c0.32476,-1.13452 0.63901,-2.2736 0.90702,-3.42295c-0.35281,-0.32016 -0.57436,-0.78236 -0.57436,-1.29631c0,-0.23054 0.04458,-0.45067 0.12559,-0.65224l0.98299,-2.62128c0.23619,-0.76248 0.46206,-1.51974 0.68819,-2.26984c0.18672,-1.18243 0.4039,-2.36762 0.64283,-3.60187c-0.10947,-0.52918 0.0502,-1.00817 0.0502,-1.00817l0.14966,-0.01202c0.06364,-0.32168 0.12853,-0.64736 0.19454,-0.97779l0.29463,0.20756c-0.32862,-0.49049 -0.32862,-1.06435 -0.32862,-1.06435l0.00046,-0.84031c0.01515,-0.64261 0.00856,-1.24687 0.00506,-1.81962c-0.00366,-0.0462 -0.00552,-0.09291 -0.00552,-0.14005v-2.79999h0.18281c0.03633,-0.18188 0.07984,-0.36107 0.13189,-0.53794c-0.0328,-0.57887 -0.00569,-1.1556 0.10461,-1.72557l0.08759,-0.70074c0.03301,-0.74413 0.06778,-1.48316 0.09295,-2.2229l-1.18037,-2.36073l0.03063,-0.01532c-0.03848,-0.05862 -0.07618,-0.11783 -0.11306,-0.17767c-0.43118,-0.6996 -0.43086,-1.56699 -0.54049,-2.3989c-1.36557,-2.35786 -2.45833,-4.84939 -3.49259,-7.41465c-1.40582,-2.82772 -2.84582,-5.63818 -4.37359,-8.3903l-0.81785,-0.81785l0.0493,-0.0493c-0.09273,-0.0724 -0.18375,-0.14723 -0.27284,-0.22478c-0.57239,-0.49822 -0.49557,-1.44291 -0.8646,-2.10599c-0.17308,-0.31099 -0.34598,-0.62151 -0.51864,-0.93172c-1.33612,-2.06603 -2.86705,-4.17244 -3.50753,-6.41393c-0.54643,-1.03233 -1.08508,-2.07342 -1.6135,-3.12908v-0.00002h-0.00001l-0.78424,-1.56852c-0.12803,-0.24318 -0.20049,-0.52018 -0.20049,-0.8141c0,-0.17374 0.02532,-0.34157 0.07247,-0.5c-0.5018,-0.98407 -1.03627,-1.94817 -1.72247,-2.85c0,0 -0.15878,-0.2117 -0.27052,-0.53221c-0.02684,0.0059 -0.04177,0.00839 -0.04177,0.00839l-2.43527,0.40552c-0.00934,-0.00789 -0.01868,-0.01578 -0.02802,-0.02366c-0.00348,0.00127 -0.00696,0.00253 -0.01043,0.0038l0.00308,0.02465l-0.10731,0.01341c-0.322,0.11791 -0.64783,0.24011 -0.97882,0.36852l-0.33094,-0.13064v0.16222h-0.60094c-2.5825,2.15966 -3.07998,5.41723 -4.67346,8.30736c-2.10329,3.81477 -4.81455,7.25547 -7.25151,10.8858c-2.78835,4.1538 -3.31692,8.91322 -6.95203,12.60343c-4.01755,5.3394 -7.3432,11.97755 -9.79646,18.11079l-0.2074,0.13129l0.0818,0.06135l-0.57018,0.76022c-1.03395,3.67391 -2.1335,7.37938 -3.62133,10.87912c0,0 -0.62665,1.46218 -2.0791,1.0009c-0.29679,0.44999 -0.74678,0.67498 -0.74678,0.67498l-1.0292,0.49494c-1.9355,0.64243 -3.61115,1.03639 -5.24696,1.21567l-1.15305,0.38435l-0.02195,-0.06584l-0.14434,0.11229c-1.80123,0.22974 -3.51392,0.46273 -5.18985,0.6516c-0.15337,0.07863 -0.31988,0.13528 -0.49535,0.1658l-2.26539,0.43928l-0.0024,-0.01239l-0.03196,0.0187c-2.56591,0.39214 -7.48831,2.19823 -10.02251,1.58024c-0.08738,-0.02131 -0.17384,-0.04501 -0.25948,-0.07091l-0.00787,0.04722l-2.37163,-0.39526c-0.02269,-0.00337 -0.04523,-0.00717 -0.06762,-0.01141c-1.96117,0.46298 -4.94466,1.05442 -6.0451,-0.95064c-0.0013,-0.00237 -0.00259,-0.00474 -0.00388,-0.00712zM202.7822,125.65127l0.00873,0.01745l0.95911,0.96957c0,0 0,0.04319 -0.00678,0.11599c0.36143,0.25704 0.55738,0.58362 0.55738,0.58362c0.3895,0.64948 0.78374,1.29803 1.18015,1.94667c-0.29893,-0.94131 0.48179,-1.72202 0.48179,-1.72202v0.00001l1.2,-1.19999c0.53334,-0.53334 1.06667,-1.06667 1.60001,-1.60001c0,0 0.02169,-0.02169 0.0622,-0.05646c-0.00021,-0.14466 0.00078,-0.2895 0.00293,-0.4345c-0.65244,-0.517 -1.27385,-1.05431 -1.73971,-1.56173c-0.05734,0.09239 -0.12305,0.17905 -0.19607,0.25891c-0.33523,0.39608 -0.93827,0.81433 -1.87448,0.47019c-0.04448,-0.0157 -0.08813,-0.03314 -0.13087,-0.05225c-0.91806,-0.3962 -1.06662,-1.11603 -1.03617,-1.63462c0.00238,-0.11735 0.01631,-0.23186 0.0407,-0.34244l0.24069,-1.20347c-0.63499,-0.26255 -1.08178,-0.88805 -1.08178,-1.6179v-0.48276c-0.24923,-0.28499 -0.3733,-0.56786 -0.41771,-0.83343c-1.60583,0.80747 -2.98585,2.42922 -3.31385,4.09712c-0.34395,1.74903 -0.01174,3.3844 1.52054,3.31805c0.10529,-0.02208 0.21406,-0.0347 0.32538,-0.03692c0.15385,-0.02742 0.31787,-0.06972 0.49244,-0.12809l0.29275,0.29594c0.36454,0.17305 0.65976,0.46842 0.83262,0.83307zM263.00972,196.95c-0.03848,0.18832 -0.08119,0.3687 -0.13227,0.53692c-0.54011,1.7785 -1.37376,3.50631 -2.35964,5.11448c1.21017,-1.01618 2.32325,-2.17718 3.36015,-3.55974c0.68534,-0.68637 1.30138,-1.38625 1.8658,-2.10122c-0.08944,0.00956 -0.14372,0.00956 -0.14372,0.00956c-0.60349,0 -1.86258,0 -2.59032,0zM265.60003,193.45c0,0 1.42917,0 1.70444,1.29153c0.93974,-1.4662 1.74895,-2.99664 2.56146,-4.60323l-0.55359,-0.01212c-0.80001,-0.13333 -1.60002,-0.26666 -2.40002,-0.39999c0,0 -0.01635,-0.00272 -0.04559,-0.00923c-0.87201,1.28778 -1.80034,2.52535 -2.65444,3.73304c0.19591,0 0.39182,0 0.58773,0zM269.88772,186.6738l0.5123,-0.02381c0,0 0.60787,0 1.10709,0.35825c0.50593,-0.82924 1.0553,-1.62867 1.52626,-2.47188c-0.15769,-0.01359 -0.25781,-0.03862 -0.25781,-0.03862l-1.42301,-0.36534c-0.50016,-0.07145 -1.00032,-0.1429 -1.50048,-0.21435c-0.27358,0.88518 -0.63432,1.74176 -1.05371,2.57419c0.36312,0.06052 0.72624,0.12104 1.08936,0.18156zM271.84751,180.66758l1.77695,0.43468c0,0 0.29383,0.07346 0.60646,0.2815c0.37904,-1.43105 0.69713,-2.91745 0.95179,-4.43493l-1.83262,-0.124c-0.66667,-0.26667 -1.33333,-0.53334 -2,-0.8c0,0 -0.08325,-0.0333 -0.20453,-0.10367c-0.36147,1.47323 -0.43319,2.95442 -0.62142,4.55738c0.44112,0.06302 0.88225,0.12603 1.32337,0.18905zM272.64995,172.77516c0.66667,0.26667 1.33333,0.53334 2,0.8l0.55005,-0.12517c0,0 0.19037,0 0.44553,0.06279c0.14081,-1.37548 0.23025,-2.76117 0.26658,-4.1401c-1.11294,0.83768 -2.18355,1.68941 -2.91209,2.66557c-0.17604,0.23285 -0.3375,0.46364 -0.48578,0.69276c0.08581,0.02418 0.13571,0.04414 0.13571,0.04414zM264.43477,175.18261c-0.78261,-1.56525 0.78264,-2.34787 0.78264,-2.34787c0.5071,-0.25354 1.0142,-0.50709 1.5213,-0.76063c0.09124,-0.24454 0.18722,-0.48607 0.28816,-0.72411c-0.20895,0 -0.4179,0 -0.62685,0c0,0 -1.75,0 -1.75,-1.75c0,-1.75 1.75,-1.75 1.75,-1.75c0.66667,0 1.33333,0 2,0l-0.34046,1.48952c0.42481,-0.68513 0.90775,-1.32031 1.45644,-1.89026c0.85688,-0.89008 2.13685,-1.34313 2.88644,-2.32528c0.32797,-1.86734 0.60746,-3.79498 0.85465,-5.65994c0.08926,-0.67344 -1.33731,0.25625 -1.98552,0.45951c-0.62532,0.19608 -1.20991,0.50442 -1.82161,0.73956c-0.95954,0.36886 -1.93553,0.85364 -2.91777,1.00273c-0.00764,0.07307 -0.01615,0.11562 -0.01615,0.11562c-0.57774,2.78973 -2.29095,4.8434 -2.79468,7.57229l-0.39513,2.37221c0,0 -0.13595,0.81573 -0.7817,1.23221c0.13678,0.05254 0.27902,0.12588 0.42623,0.22402c1.45609,0.97072 0.48537,2.42681 0.48537,2.42681c-1.09059,1.62082 -1.93811,3.4121 -2.61753,5.24373l-1.19998,3.20001c0,0 -0.61446,1.63858 -2.25304,1.02412c-1.63858,-0.61445 -1.02413,-2.25304 -1.02413,-2.25304l1.19999,-3.20002c0.78625,-2.07655 1.75772,-4.10418 2.98251,-5.95625c0,0 0.20475,-0.30711 0.56722,-0.54522c-1.50203,-0.38341 -1.23732,-1.97176 -1.23732,-1.97176l0.40486,-2.42778c0.59235,-2.80464 2.27089,-4.83131 2.8053,-7.62772c0,0 0.065,-0.32501 0.27988,-0.66386c-0.00665,-0.00736 -0.0133,-0.01477 -0.01995,-0.02221c-0.74147,-0.8297 0.71447,-2.6732 -0.18134,-3.33328c-0.76067,-0.5605 -1.65725,-0.92709 -2.58148,-1.2565c-0.02214,0.6419 -0.43671,1.13938 -0.43671,1.13938c-1.92023,2.29213 -3.23496,4.61107 -4.58352,7.27102c-0.14073,0.27759 -0.30394,0.54968 -0.47375,0.82038c0.43763,0 0.87525,0 1.31288,0l2.25608,1.97928c0,0 0.97072,1.45609 -0.48538,2.42681c-1.45609,0.97072 -2.42681,-0.48538 -2.42681,-0.48538l0.65611,-0.42071c-0.66667,0 -1.33333,0 -2,0c0,0 -0.31725,0 -0.68159,-0.13508c-0.09309,2.22598 0.36479,4.43327 -0.45416,6.76454c-0.77697,2.21177 -1.98828,4.25121 -2.81525,6.44478l-0.78878,2.36744c0,0 -0.07207,0.21621 -0.24221,0.46656l0.8286,-0.28016c0,0 1.38227,-0.46075 2.04469,0.71987c0.36098,0.00234 0.72196,0.00468 1.08294,0.00703c0.00068,-0.00008 0.00136,-0.00015 0.00204,-0.00023l0.00062,0.00025c0.0302,0.00019 0.06041,0.00039 0.09061,0.00059l-0.00002,-0.00379l2.11953,-0.01348c0.00433,-0.00003 0.00867,-0.00005 0.01301,-0.00005c0.6931,0 1.29209,0.40294 1.57551,0.98733c0.43234,0.22117 1.3089,0.84344 0.88467,2.1161c-0.21612,0.64837 -0.60106,0.95911 -0.98998,1.09706l0.78948,1.18422c-0.28113,-1.34921 1.09037,-1.89781 1.09037,-1.89781c0.66667,-0.26667 1.33333,-0.53334 2,-0.8l1.04993,-0.12517c0,0 0.34759,0 0.73294,0.15491c0.31492,-0.27062 0.61504,-0.5547 0.86945,-0.88092l0.2816,-1.62893c0,0 0.13088,-0.65436 0.63508,-1.0741l-0.63137,0.10523c0,0 -1.72619,0.28769 -2.01388,-1.4385c-0.28769,-1.72619 1.4385,-2.01388 1.4385,-2.01388l1.84265,-0.30711c0.08846,-1.37674 0.24269,-2.80842 0.49824,-4.22356c-0.42867,-0.06285 -0.89176,-0.30711 -1.21846,-0.96053zM255.25193,200.09063c-1.00147,0.14726 -2.00294,0.29452 -3.00442,0.44178c0,0 -1.73241,0.24749 -1.9799,-1.48492c-0.24749,-1.73241 1.48492,-1.9799 1.48492,-1.9799c0.86519,-0.11941 1.73037,-0.23883 2.59556,-0.35824l1.802,-0.73418c0,0 0.41107,-0.16442 0.90239,-0.12111c0.66642,-1.23369 1.42098,-2.73425 2.22639,-4.1155c-0.25976,-0.03304 -0.53718,-0.12727 -0.78533,-0.33549c0.15029,0.51253 0.1734,1.29385 -0.72278,1.89131l-0.00002,-0.00004c-1.45608,0.97073 -2.42682,-0.48535 -2.42682,-0.48535l-1.60001,-2.39999c0,0 -0.54184,-0.81276 -0.20866,-1.62865l-2.51529,0.00635c-1.8282,0.3428 -3.59513,0.78992 -5.47676,1.16756c0,0 -0.46833,0.09367 -0.96461,-0.06153c-0.03259,0.00943 -0.0652,0.01883 -0.09782,0.02819c0,0 -1.68267,0.48076 -2.16343,-1.20191c-0.48075,-1.68267 1.20192,-2.16343 1.20192,-2.16343c1.39497,-0.39667 2.77094,-0.86731 4.1206,-1.40126c-0.06268,-0.01526 -0.12707,-0.03381 -0.19323,-0.05586c-1.6602,-0.55339 -1.10681,-2.21359 -1.10681,-2.21359l0.8112,-2.43255c0.81832,-2.16326 2.00126,-4.17913 2.78478,-6.35523c0.81346,-2.25924 0.071,-4.27038 0.32154,-6.41882c0.07016,-0.60163 0.21084,-1.22747 0.40809,-1.86758c-0.46329,0.09181 -0.92659,0.18363 -1.38988,0.27544l-1.60638,0.53546c-0.07305,0.12613 -0.1461,0.25226 -0.21915,0.3784l-2.25002,0.35c0,0 -1.75,0 -1.75,-1.75c0,-1.75 1.75,-1.75 1.75,-1.75l0.02339,0.05457c0.127,-0.11542 0.27104,-0.21242 0.42791,-0.28679l1.53461,-0.7673c0.24319,-0.12803 0.52019,-0.2005 0.81411,-0.2005c0.1399,0 0.27596,0.01642 0.40637,0.04743c0.68347,-0.13781 1.36695,-0.27562 2.05042,-0.41344c0,0 0.90823,-0.18164 1.53535,0.3801c1.55224,-2.99089 3.8059,-5.94758 5.46346,-7.94614c0,0 0.0265,-0.03179 0.07623,-0.08154c-0.26839,-0.13934 -0.52751,-0.2924 -0.77395,-0.46408c-0.37558,-0.26164 -0.48739,-1.02823 -0.94406,-0.99718c-0.00188,0.00013 -0.00374,0.00027 -0.00559,0.00043c-0.10368,0.13139 -0.20996,0.25853 -0.3198,0.38072c-0.06849,0.24504 -0.1037,0.54832 -0.251,0.71941c-0.60263,0.69995 -1.2029,1.45946 -2.01169,1.90551c-2.39916,1.32314 -5.06557,0.19663 -7.00608,2.28029c-2.69192,5.57103 -7.06875,9.93644 -9.38742,15.6078c-0.82116,2.00852 -0.27834,3.78511 -0.28225,5.76897c-0.00253,1.2831 -0.54564,2.55181 -0.40851,3.82756c0.33124,3.08163 1.00174,6.17748 1.44827,9.2694c0.72856,0.13738 1.16633,0.79404 1.16633,0.79404c0.33333,0.5 0.66667,1 1,1.5l0.60916,1.1881c0,0 0.58483,1.16965 -0.26772,1.99231c-0.01959,0.09052 -0.03732,0.14371 -0.03732,0.14371c-0.25483,0.7603 -0.50966,1.5206 -0.7645,2.2809c-0.03406,0.1334 -0.08346,0.26067 -0.14619,0.37983l-0.76732,1.53461c-0.28061,0.59192 -0.8836,1.00127 -1.5822,1.00127c-0.9665,0 -1.75,-0.7835 -1.75,-1.75c0,-0.13213 0.01464,-0.26083 0.04239,-0.38458l-0.193,-0.1158l1.11124,-1.85204c0.24306,-0.73366 0.48612,-1.46731 0.72917,-2.20097c0,0 0.03518,-0.10553 0.1144,-0.25451l-0.01029,-0.02136c-0.26247,-0.3937 -0.52493,-0.7874 -0.7874,-1.1811c-1.58946,0.09387 -1.79298,-1.5343 -1.79298,-1.5343c-0.01531,-0.12254 -0.03115,-0.24513 -0.04746,-0.36777c-0.94119,-2.37893 -2.0234,-5.21103 -3.8535,-7.01185c-2.01188,-1.97969 -5.13092,-3.18256 -6.90614,-5.31614c-0.6548,-0.78698 -0.97256,-1.55517 -1.16838,-2.368c-1.0866,1.99879 -2.94522,4.26404 -2.93804,6.04672c0.0139,3.45084 2.02163,5.02255 3.96769,7.24839c4.40505,5.03835 4.68533,12.33368 11.53422,15.06097c2.72431,0.39522 4.70612,-0.20612 7.40374,-0.45339c1.48838,-0.13643 2.48498,0.23517 3.93968,-0.29821c1.37054,-0.50252 2.26842,-1.95035 3.65125,-2.41796c1.16302,-0.39328 2.88509,0.2741 3.9725,-0.42262c-2.29147,0.04715 -4.45037,0.39045 -6.7314,0.77073c0,0 -1.72619,0.28769 -2.01388,-1.4385c-0.28769,-1.72619 1.4385,-2.01388 1.4385,-2.01388c2.66314,-0.44372 5.18395,-0.8191 7.8877,-0.82381h0.39999c0,0 0.25029,0 0.56157,0.09466c0.06666,-0.25742 0.1313,-0.51591 0.19633,-0.77454zM267.82928,271.85609c-1.45608,-0.97073 -0.48535,-2.42682 -0.48535,-2.42682l1.35574,-1.7299c1.2242,-0.73057 2.37841,-1.57845 3.48906,-2.47547c-0.1011,-0.32225 -0.1953,-0.64957 -0.27933,-0.98373c-0.32315,-1.28506 -0.40142,-2.66672 -0.96875,-3.85951c-0.98548,0.34026 -1.91298,0.8878 -2.76993,1.47541l0.19454,0.12652c0,0 -0.78261,1.56525 -2.34787,0.78264c-1.56525,-0.78261 -0.78264,-2.34787 -0.78264,-2.34787l0.99453,-1.47349c0.94276,-0.61454 1.94277,-1.17946 2.98901,-1.61358c-0.66002,-1.22262 -1.28725,-2.46023 -1.88777,-3.71002c-1.01033,0.3115 -2.00742,0.66927 -2.94786,1.14494l0.38257,0.01742c0,0 -0.78266,1.56523 -2.34789,0.78257c-1.56523,-0.78266 -0.78257,-2.34789 -0.78257,-2.34789l1.18262,-1.58259c0.97797,-0.4843 2.00217,-0.87199 3.04234,-1.21163c-0.63227,-1.43294 -1.23703,-2.87843 -1.82306,-4.33246c-0.09178,0.02599 -0.14894,0.03551 -0.14894,0.03551c-1.07249,0.17378 -2.13986,0.42506 -3.17016,0.77563c-0.22313,0.42838 -0.66044,0.84818 -1.51756,0.84818c-1.75,0 -1.75,-1.75 -1.75,-1.75l1.10006,-2.02483c1.34887,-0.53279 2.75909,-0.92224 4.18524,-1.19667c-0.69268,-1.80294 -1.36703,-3.61423 -2.03943,-5.42639c-0.45861,0.44551 -0.91722,0.89101 -1.37583,1.33652l-2.76662,0.97156c0,0 -1.66019,0.5534 -2.2136,-1.10679c-0.5534,-1.66019 1.10679,-2.2136 1.10679,-2.2136l2.03336,-0.62845c0.56086,-0.58293 1.12173,-1.16587 1.68259,-1.7488c0,0 0.07611,-0.07611 0.20945,-0.1717c-0.36337,-0.97173 -0.72926,-1.94229 -1.10021,-2.91053c-0.21701,-0.56642 -0.43813,-1.13433 -0.66188,-1.70371c-0.33236,0.64218 -1.05651,0.88356 -1.05651,0.88356c-0.8,0.26667 -1.6,0.53334 -2.39999,0.8l-1.35342,0.08981c0,0 -1.75,0 -1.75,-1.75c0,-1.75 1.75,-1.75 1.75,-1.75l0.24662,0.08981c0.8,-0.26667 1.6,-0.53334 2.39999,-0.8c0,0 0.59929,-0.19976 1.19777,0.00081c-0.57537,-1.44568 -1.15417,-2.90065 -1.71282,-4.36479c-0.41737,0.426 -0.98833,0.54019 -0.98833,0.54019c-0.66667,0.13334 -1.33333,0.26667 -2,0.40001l-1.51879,0.38173c0,0 -1.69775,0.42443 -2.12218,-1.27332c-0.42443,-1.69775 1.27332,-2.12218 1.27332,-2.12218l1.68123,-0.41826c0.66667,-0.13334 1.33333,-0.26667 2,-0.40001c0,0 0.263,-0.0526 0.60368,-0.01366c-0.32864,-0.92964 -0.64313,-1.86288 -0.93756,-2.7997c-0.77192,0.19023 -1.54384,0.38045 -2.31575,0.57068l-2.22453,1.12395c0,0 -1.56525,0.78262 -2.34787,-0.78262c-0.78262,-1.56525 0.78262,-2.34787 0.78262,-2.34787l2.57546,-1.27605c0.8577,-0.21716 1.7154,-0.43432 2.5731,-0.65147c-0.18293,-0.72567 -0.3499,-1.45342 -0.49825,-2.18325c-3.07833,1.33263 -6.0535,1.83012 -9.22526,1.85786l1.11099,0.3462c0,0 1.66019,0.5534 1.10679,2.2136c-0.5534,1.66019 -2.2136,1.10679 -2.2136,1.10679l-1.95533,-0.71358c-0.28859,0.0663 -0.56515,0.12208 -0.8322,0.16795c1.53812,2.10917 2.67316,4.52499 4.15117,7.06987c1.31192,2.2589 2.61673,4.50736 3.89619,6.76456c0.57382,0.93849 1.12637,1.91318 1.70827,2.89348c2.18006,3.67257 4.09539,7.35438 5.6373,11.12414l1.46742,2.56514c0,0 0.49331,0.86329 0.08553,1.66027c1.29092,3.96947 2.14114,8.06367 2.43111,12.36918c0.31751,0.3168 0.51396,0.75487 0.51396,1.23883c0,0.10938 -0.01003,0.21642 -0.02923,0.32024l-0.39126,2.34739l-0.39348,2.75437c-0.07197,0.56846 -0.41664,1.0519 -0.8988,1.31508l-0.31486,1.57433c-0.14691,0.81793 -0.86216,1.43859 -1.72237,1.43859c-0.10485,0 -0.20754,-0.00922 -0.30732,-0.0269c-0.4275,1.35467 -0.84798,2.70999 -1.27596,4.06358c-0.01569,0.22571 -0.04645,0.44478 -0.11357,0.6486c0.47252,-0.74038 0.95374,-1.47525 1.44075,-2.20603c0,0 0.97073,-1.45609 2.42681,-0.48536c1.45609,0.97073 0.48536,2.42681 0.48536,2.42681c-0.94917,1.42321 -1.87564,2.86252 -2.75545,4.32962l-1.53127,-1.42621l-0.23378,-0.05956c0.01443,0.11399 0.01443,0.18542 0.01443,0.18542l-0.01759,1.0475c-0.06183,0.43279 -0.14312,0.87447 -0.23029,1.32129c1.21578,0.02596 2.44405,-0.11913 3.66217,-0.11843l-0.00004,0.00001c3.69726,0.00211 7.52656,0.79861 11.21536,0.79977c4.63052,0.00147 9.36162,-0.79386 14.02035,-0.80014h1.79206c-0.19162,-0.09187 -0.38117,-0.18796 -0.56969,-0.28227c-2.17845,-1.08978 -4.37921,-2.44236 -6.49059,-3.64828c0,0 -0.58663,-0.33522 -0.82259,-0.95358c-1.27075,0.0033 -1.60693,-1.34143 -1.60693,-1.34143l-0.45224,-2.02444c0.015,-1.55871 -0.3508,-2.94116 -0.81938,-4.29569c-0.94325,0.71831 -1.91655,1.39693 -2.93027,2.00806l-0.24429,0.67013c0,0 -0.97073,1.45608 -2.42682,0.48535zM247.44663,143.2602c0,0 -1.6602,-0.55339 -1.10681,-2.21359c0.55339,-1.6602 2.21359,-1.10681 2.21359,-1.10681c0.8,0.26666 1.6,0.53333 2.39999,0.79999l-0.1534,-0.0898c0,0 1.09337,0 1.55164,0.86424c0.38135,-0.36975 0.75278,-0.75241 1.11391,-1.14599l-0.95325,-0.24206c-0.8,-0.13333 -1.6,-0.26666 -2.39999,-0.39999c0,0 -1.72619,-0.28769 -1.4385,-2.01388c0.28769,-1.72619 2.01388,-1.4385 2.01388,-1.4385c0.8,0.13333 1.6,0.26666 2.39999,0.39999l1.73676,0.42845c0,0 0.49802,0.12451 0.88716,0.50838c0.35445,-0.48865 0.69472,-0.98572 1.02027,-1.48836c0.09229,-0.27513 0.21204,-0.45475 0.21204,-0.45475l0.75651,-1.1305c0.01566,-0.02719 0.03127,-0.05439 0.04684,-0.0816c-1.10186,-0.20579 -2.22734,-0.31065 -3.34726,-0.30543c0,0 -1.75,0 -1.75,-1.75c0,-1.75 1.75,-1.75 1.75,-1.75c1.45494,0.0057 2.91543,0.15414 4.34321,0.43399l0.45678,-0.03399c0,0 0.09958,0 0.25123,0.02375c0.04751,-0.10847 0.09427,-0.21677 0.14027,-0.32488c0,0 0.31809,-0.74223 1.02632,-1.00223c0.30456,-0.65634 0.57535,-1.32259 0.81508,-2.00463c-0.43406,0.03558 -0.7863,-0.08183 -0.7863,-0.08183l-0.09319,-0.39999c-0.8,0.26666 -1.6,0.53333 -2.39999,0.79999c0,0 -1.6602,0.55339 -2.21359,-1.10681c-0.1148,-0.34439 -0.13434,-0.64115 -0.09321,-0.89523c-0.22712,0.45425 -0.45424,0.90849 -0.68135,1.36273h-0.00001l0.00001,0.00001l-1.18305,2.36608c-0.17174,0.36227 -0.46422,0.65615 -0.82548,0.82966l0.00853,0.00427l-0.78306,1.56608c-0.28061,0.59192 -0.88359,1.00127 -1.58219,1.00127c-0.6986,0 -1.3016,-0.40936 -1.5822,-1.00129l-0.11187,-0.22373c-0.29644,0.42685 -0.72329,0.64028 -0.72329,0.64028c-1.24775,0.4244 -1.65027,1.90111 -2.23188,3.28005c-0.02487,0.37018 -0.14226,0.64407 -0.14226,0.64407c-0.80042,1.84293 -1.79575,3.62777 -3.04196,5.20385l-1.76656,0.6568c0,0 -1.75,0 -1.75,-1.75v-0.00002c0,-1.11392 0.70905,-1.5188 1.22448,-1.66596c0.42813,-0.58557 0.81465,-1.20376 1.16465,-1.84237c0.00163,-0.48626 0.19564,-0.87429 0.19564,-0.87429l0.56524,-1.06739c1.54227,-1.98397 1.49708,-3.50351 3.05185,-4.88878c-0.24469,-0.38777 -0.37117,-0.93572 -0.01711,-1.64385c0.78262,-1.56525 2.34787,-0.78262 2.34787,-0.78262l0.01739,0.21526c0.79067,0.07077 1.66373,-0.1209 2.4184,0.06455l0.7572,-1.76683c0.19486,-0.48481 0.60047,-0.86224 1.10342,-1.01887c0.31857,-0.63716 0.63715,-1.27432 0.95571,-1.91147c0,0 0.78261,-1.56525 2.34787,-0.78264c1.56526,0.78261 0.78264,2.34786 0.78264,2.34786c-0.04176,0.08353 -0.08353,0.16706 -0.12529,0.25058c0.35384,-0.38072 0.80667,-0.53166 0.80667,-0.53166c0.8,-0.26666 1.6,-0.53333 2.39999,-0.79999l2.30677,0.4c0,0 0.25978,0.08659 0.53956,0.29403c0.14292,-0.6842 0.26269,-1.3892 0.36145,-2.11965c0.00036,-0.39663 -0.00167,-0.78873 -0.00689,-1.17664c-0.16583,-0.01326 -0.27196,-0.0398 -0.27196,-0.0398l-1.17556,-0.34776c-0.93333,0 -1.86666,0 -2.79999,0c0,0 -1.75,0 -1.75,-1.75c0,-1.75 1.75,-1.75 1.75,-1.75c0.93333,0 1.86666,0 2.79999,0l1.27385,0.28458c-0.06269,-0.67796 -0.14518,-1.34517 -0.25259,-2.00383c-0.13465,0.01926 -0.22124,0.01926 -0.22124,0.01926c-1.6,0 -4.00001,0 -5.60001,0c0,0 -1.75,0 -1.75,-1.75c0,-1.75 1.75,-1.75 1.75,-1.75c1.6,0 3.19999,0 4.79999,0h0.17103c-0.22165,-0.65919 -0.48006,-1.31339 -0.78097,-1.96505c-0.58176,0.35724 -1.27774,0.24125 -1.27774,0.24125l-2.42781,-0.40487c-0.6759,-0.1351 -1.3518,-0.2702 -2.02771,-0.4053c0,0 -1.71602,-0.3432 -1.37282,-2.05922c0.3432,-1.71602 2.05922,-1.37282 2.05922,-1.37282c0.65743,0.13156 1.31486,0.26312 1.97229,0.39468l1.06039,0.17663c-0.73027,-1.00992 -2.31417,-1.9261 -3.71467,-2.85197c-0.02698,0.07074 -0.05883,0.14325 -0.09597,0.21752c-0.78262,1.56525 -2.34787,0.78262 -2.34787,0.78262l-0.91773,-0.46462c-0.66666,-0.4 -1.33334,-0.8 -2,-1.2c0,0 -1.50061,-0.90036 -0.60025,-2.40098c0.90036,-1.50061 2.40098,-0.60025 2.40098,-0.60025c0.2905,0.1743 0.58101,0.3486 0.87151,0.5229c-0.23936,-2.26422 1.33399,-6.02282 2.55366,-7.74703c-0.09123,0.10017 -0.18037,0.18921 -0.24715,0.23833c-0.69904,0.51415 -1.49347,0.89497 -2.16891,1.43974c-0.62024,0.50025 -1.28764,0.9402 -1.9858,1.33216l0.24706,0.3706l-2.38011,1.58673c-0.28167,0.19376 -0.62291,0.30718 -0.99063,0.30718c-0.9665,0 -1.75,-0.7835 -1.75,-1.75c0,-0.29393 0.07246,-0.57093 0.2005,-0.81412l0.46452,-0.92902c-0.35497,0.2283 -0.70393,0.465 -1.03803,0.7225c-0.67505,0.52026 -1.0446,1.48841 -1.85122,1.76358c-1.24327,0.42413 -2.73148,0.73629 -3.93524,0.21041c-0.04181,-0.01826 -0.07595,-0.04053 -0.10331,-0.06635c-0.41071,0.41673 -0.83685,0.85409 -1.28233,1.28231c0.40006,-0.03788 0.86631,0.07701 1.33257,0.54327l-0.00001,0.00002c1.23744,1.23744 0,2.47487 0,2.47487l-2,2c-0.31669,0.31669 -0.75419,0.51256 -1.23744,0.51256c-0.9665,0 -1.75,-0.7835 -1.75,-1.75c0,-0.40033 0.13442,-0.76927 0.3606,-1.06413l0.37935,-0.50581c-0.44346,0.22633 -0.90536,0.40627 -1.38789,0.52312c-3.39685,0.82261 -5.65198,0.30741 -8.62557,2.54905c-3.87307,2.32384 -6.38748,5.15803 -7.98272,8.80979c0.06763,-0.00794 0.13645,-0.01202 0.20622,-0.01202c0.48325,0 0.92075,0.19587 1.23744,0.51256l1.6,1.59999c0.08524,0.08524 0.16173,0.17924 0.22801,0.28052c0.23432,-0.00073 0.48421,0.03142 0.73634,0.09191l0.21961,-0.04392c0.12193,-0.02689 0.24862,-0.04107 0.37863,-0.04107c0.46624,0 0.88989,0.18233 1.20354,0.47957c-0.15356,-0.38401 -0.15355,-0.72957 -0.15355,-0.72957v-0.5c0,-2.27172 0.45584,-4.34455 -0.61524,-6.3174c0,0 -0.78262,-1.56525 0.78264,-2.34786c1.56526,-0.78261 2.34787,0.78264 2.34787,0.78264c0.53388,1.12736 0.79422,2.15476 0.91612,3.18766c1.35485,-0.91509 2.80561,-1.76033 3.62997,-2.92507l0.72341,-1.46261c0,0 0.78263,-1.56524 2.34787,-0.7826c1.56524,0.78263 0.78261,2.34788 0.78261,2.34788l-0.87662,1.7374c-1.4424,1.86225 -2.93711,2.89688 -4.72152,4.38395c-0.48846,0.40706 -1.27708,0.50048 -1.58983,1.05409c-0.39776,0.70409 -0.05202,1.54892 0.25292,2.37662c0.18275,-0.06413 0.36522,-0.12883 0.54745,-0.19404l1.30205,-1.08504l0.02874,0.03448c0.06873,-0.06923 0.13927,-0.1369 0.2118,-0.20287c0.73093,-0.66483 1.81169,-0.74054 2.76864,-1.04736c0.04092,-0.02711 0.08188,-0.05442 0.12289,-0.08192l0.08366,-0.02004l-0.01131,-0.02107l3.05432,-1.64054c0.16647,-0.0937 0.34982,-0.16094 0.54434,-0.19604c1.55709,-0.89324 3.10441,-1.82053 4.69645,-2.62625c0.0237,-0.01261 0.04772,-0.02468 0.07205,-0.03621l1.5346,-0.7673c0.1783,-0.09387 0.37479,-0.15788 0.58279,-0.18535c0.91553,-0.31719 2.5019,0.23903 3.97615,0.86852c0.77364,-0.30343 1.55554,0.16571 1.55554,0.16571c1.28749,0.77418 2.54677,1.60055 3.74964,2.50061l-1.84999,3.15c0,0 -1.50623,0 -1.72391,-1.39739c-0.00651,-0.00438 -0.01301,-0.00875 -0.01952,-0.01313l-0.00999,0.12071c-1.17248,-0.39299 -3.81298,-0.92092 -4.86071,-1.99657l-0.03857,0.01928c0.80269,0.47627 0.80269,1.51709 0.80269,1.51709c-0.00119,0.57592 -0.00239,1.15185 -0.00358,1.72777c0.48343,0.31142 0.80357,0.85445 0.80357,1.47225c0,0.24378 -0.04985,0.47591 -0.1399,0.68677l-0.78525,1.96315l-0.32708,1.3745c0,0 -0.36557,1.4623 -1.77528,1.33339c-0.31639,0.29203 -0.79248,0.52903 -1.4568,0.3687c-0.1474,0.51535 -0.55247,1.22349 -1.66568,1.22349c-1.75,0 -1.75,-1.75 -1.75,-1.75l0.01082,-0.08216c-0.04263,-0.05219 -0.07922,-0.10167 -0.10979,-0.14581c-0.61495,0.02192 -1.12175,-0.31594 -1.12175,-0.31594l-1.01193,-0.69085c-0.22329,-0.11165 -0.44657,-0.22329 -0.66986,-0.33494l-0.16487,0.33495c-0.53333,0.26667 -1.06667,0.53333 -1.60001,0.8c0,0 -0.51086,0.25544 -1.09481,0.18259c-0.02909,0.00144 -0.05836,0.00216 -0.08781,0.00216c-0.91518,0 -1.66627,-0.7025 -1.74346,-1.59767c-0.15392,-0.00459 -0.31875,-0.02788 -0.48342,-0.08234l-0.55901,0.27951c-0.20302,0.10689 -0.42961,0.17504 -0.66994,0.19464c-0.03936,0.48273 -0.27464,0.91003 -0.62619,1.20226c1.87319,1.76338 3.19836,4.02339 4.77067,6.13357c0.80528,1.59607 1.63183,3.18552 2.4,4.79999c0.47294,0.99399 1.76755,1.95624 1.39637,2.99254c-0.13868,0.38718 -0.46433,0.7267 -0.89746,1.02034c1.01049,0.82415 0.37769,2.08977 0.37769,2.08977l-0.72782,1.25483c-1.30154,1.27218 -2.49854,4.32123 -4.05482,5.1278c-0.02964,0.01536 -0.07498,0.02952 -0.13393,0.04254c2.86986,0.85284 5.89287,1.24455 9.03849,1.44438c1.89455,0.12035 4.34784,0.30237 6.17167,-0.31639c1.5461,-0.52453 3.01103,-1.29586 4.38257,-2.24889c-0.66493,-0.22164 -1.32987,-0.44328 -1.9948,-0.66492zM191.6886,276.87259c0.10297,-0.24197 0.20381,-0.48515 0.30268,-0.72943c-0.01156,-0.02831 -0.0222,-0.05667 -0.03199,-0.085l-0.65933,0.7692c0.12483,0.00014 0.256,0.01306 0.38863,0.04522zM237.42759,212.72974c-0.45181,-0.04518 -0.91365,-0.08477 -1.38045,-0.12732c0.61581,0.11704 1.16034,0.16858 1.73581,0.16191c-0.11805,-0.01117 -0.2365,-0.02271 -0.35536,-0.0346zM212.48712,126.79396c0.0088,-0.00647 0.01771,-0.01289 0.02674,-0.01924c-0.0095,-0.00209 -0.01893,-0.00424 -0.02831,-0.00646c0.00052,0.00857 0.00104,0.01714 0.00157,0.0257zM231.08156,211.64172l0.00053,0.0004c0.00016,0 0.00031,0 0.00047,0c-0.00033,-0.00013 -0.00067,-0.00026 -0.001,-0.0004zM229.69338,210.94493c0.00287,-0.00057 0.00574,-0.00115 0.00861,-0.00172c-0.00364,-0.00232 -0.00726,-0.00463 -0.0109,-0.00696c0.00077,0.00289 0.00154,0.00578 0.00229,0.00868zM287.05942,281.60704c0.27426,-0.14936 -0.19532,-0.02069 -0.69982,0.07054c0.00778,0.00689 0.0155,0.01385 0.02316,0.02087c0.25404,0.01407 0.49829,0.00573 0.67666,-0.09141zM239.57517,117.98834c0,0 0.11692,-0.29231 0.37556,-0.57937l0.30362,-2.1254c-0.00144,-0.6151 -0.00289,-1.23021 -0.00433,-1.84531c0,0 0,-0.03787 0.00557,-0.10247c-1.06825,0.62924 -2.18961,1.36283 -3.34095,2.05423c-0.02177,0.10669 -0.05325,0.20984 -0.09348,0.30851c0.52172,0.13296 0.86501,0.53184 1.02987,0.77064c0.96912,0.10737 1.37384,1.11917 1.37384,1.11917c0.08505,0.21263 0.1701,0.42526 0.25515,0.63789zM219.30083,121.04275l-1.01401,0.40561c-0.21086,0.09006 -0.443,0.13991 -0.68678,0.13991c-0.58533,0 -1.10355,-0.28737 -1.42125,-0.72872c-0.09305,-0.06698 -0.17925,-0.14287 -0.25737,-0.22642c-0.21734,0.09847 -0.45838,0.15381 -0.7122,0.15511c0.08187,1.26053 0.37008,2.51582 0.66265,3.76477c1.19346,-1.33348 2.53664,-2.56068 3.60995,-3.54645zM225.20001,141.68826c1.07415,-0.01258 2.23776,0.62553 3.21739,0.18475c0.45476,-0.20461 2.16559,-3.11635 2.89926,-4.15652c-0.597,0.1361 -1.14462,0.22311 -1.54418,0.26326c-4.02212,0.40419 -7.97777,-0.69352 -11.41341,-2.63598c0.03318,0.22491 0.06814,0.45568 0.10692,0.68577c1.21962,2.98399 3.58661,5.69557 6.73403,5.65872zM222.62702,122.8928c-1.81635,1.8566 -3.5305,3.78415 -5.30058,5.687c-0.15967,0.17165 -0.40474,0.37871 -0.62508,0.59275c0.12055,0.62003 0.27984,1.15531 0.45882,1.69138c2.3683,1.77227 5.46209,2.77019 8.32752,3.24815c1.57636,0.26294 2.40088,0.53755 3.93989,0.3847c0.45073,-0.04477 0.88397,-0.24112 1.32886,-0.31142c-0.9437,-1.13073 -1.6148,-3.35273 -2.24507,-4.62706c-1.50156,-1.98639 -2.77053,-4.5161 -4.76137,-5.92004l-1.12072,-0.74392c0,0 -0.00078,-0.00052 -0.00227,-0.00154z" fill="#000000"></path>
      <path d="M267.40002,277.85001c-1.05,-1.4 0.34999,-2.45 0.34999,-2.45l1.57827,-1.18345c0.65951,-0.52769 1.31902,-1.05538 1.97853,-1.58307c0,0 1.36653,-1.09321 2.45973,0.27332c1.09321,1.36653 -0.27332,2.45973 -0.27332,2.45973c-0.67382,0.53896 -1.34765,1.07792 -2.02147,1.61688l-1.62174,1.21658c0,0 -1.4,1.05 -2.45,-0.34999z" fill="#000000"></path>
    </g>
  </g>
</svg>
