<?xml version="1.0" encoding="UTF-8"?>
<svg xmlns="http://www.w3.org/2000/svg" xmlns:xlink="http://www.w3.org/1999/xlink" version="1.1" width="189.34576" height="143.50429" viewBox="0,0,189.34576,143.50429">
  <g transform="translate(-145.26082,-119.29156)">
    <g stroke="none" stroke-miterlimit="10">
      <g stroke-width="0.5">
        <path d="M180.11994,171.68166c0.05857,-0.62838 0.34668,-1.18083 0.7746,-1.58339c0.07146,-0.30344 0.14529,-0.60484 0.2214,-0.90405c-0.08637,-0.29342 -0.11952,-0.60758 -0.08945,-0.93042c0.05719,-0.61372 0.33337,-1.15502 0.74488,-1.55498c0.66448,-7.06328 3.23299,-13.0531 6.70506,-19.21269c0.84395,-1.49721 1.92995,-4.09641 3.11156,-5.4056c0.6753,-0.74821 4.37934,-3.53876 5.25226,-4.36313c2.40762,-2.27369 4.66381,-4.9285 7.21811,-7.02571c3.2419,-2.66176 7.35042,-4.65744 10.9336,-6.84364c0,0 1.48273,-0.90466 2.7412,0.01272c5.02787,-1.8991 10.18308,-1.92107 15.41274,-2.84097c7.30546,-1.28503 15.80509,-3.38586 22.84119,0.47082c0.951,0.52128 1.58524,1.48055 2.4511,2.13171c2.20692,1.65969 4.91297,2.57505 7.17164,4.10598c1.79877,1.21921 3.32848,2.79481 5.08532,4.07282c2.03442,1.82334 4.90611,3.54971 6.75894,5.44406c0.77273,0.79005 1.14109,1.89204 1.79525,2.78128c2.55996,3.47989 5.52842,6.44218 7.50937,10.35009c1.7818,3.51506 2.36145,7.43154 3.78877,11.05497c0.91976,2.33495 2.01891,4.64596 2.45609,7.11511c1.24442,7.0285 -0.09927,14.7616 -0.78531,21.82594c-2.90145,9.7974 -8.33688,18.54336 -15.24498,26.07966c-0.73726,0.80431 -4.32712,3.4915 -5.25231,4.36315c-0.89756,0.84563 -3.22178,3.73209 -4.06315,4.42562c-3.11455,2.56725 -6.84938,3.50297 -10.35679,5.24525c-0.9715,0.48259 -1.77499,1.30218 -2.80348,1.64959c-1.83712,0.62058 -3.85668,0.63117 -5.6665,1.32625c-5.41316,0.4309 -9.46328,0.34694 -14.40445,-0.87996l-0.85745,0.18148c-8.94863,-2.44094 -17.71229,-4.0958 -25.7334,-9.03967c-3.71967,-2.31104 -6.01999,-4.97512 -8.70786,-8.27128c-1.36023,-1.66806 -2.19498,-1.62544 -3.91696,-2.88071c-2.87635,-2.09672 -6.3333,-4.86177 -8.63136,-7.60663c-7.09274,-8.47174 -8.21713,-21.22034 -6.26585,-32.07571c-0.16134,-0.37137 -0.23398,-0.78695 -0.19381,-1.21798zM231.01528,226.93935l2.81987,0.30746c0.31034,0.09175 0.61471,0.17858 0.91389,0.26068l1.9288,-0.50329c0,0 2.19122,-0.50804 2.91594,1.49087c2.54771,0.31912 5.02854,0.29812 8.12679,0.09996c1.64117,-0.6385 3.48109,-0.62627 5.15251,-1.18222c0.82085,-0.27304 1.4123,-1.00567 2.18468,-1.39375c3.1389,-1.57713 6.58994,-2.31421 9.38013,-4.61408c1.45587,-1.20002 2.42457,-2.89562 3.79644,-4.18942c1.54632,-1.45832 3.51252,-2.4645 4.9397,-4.0379c6.26873,-6.91096 11.36931,-14.80793 14.09673,-23.74376c0.57312,-6.47332 1.90483,-13.6148 0.76417,-20.04426c-0.37976,-2.14056 -1.39585,-4.122 -2.18866,-6.1481c-1.36014,-3.47601 -1.89155,-7.26612 -3.59973,-10.62906c-1.85833,-3.6585 -4.72003,-6.38214 -7.09177,-9.66168c-0.49135,-0.6794 -0.6856,-1.56742 -1.27189,-2.16812c-1.74379,-1.78663 -4.43973,-3.35656 -6.37249,-5.09679c-1.64862,-1.19929 -3.07529,-2.68865 -4.76326,-3.83279c-2.31672,-1.5703 -5.07912,-2.50993 -7.3415,-4.22758c-0.68759,-0.52203 -1.13802,-1.3421 -1.89011,-1.76764c-5.75324,-3.25526 -13.54569,-0.9341 -19.46431,0.09059c-4.87803,0.84452 -9.83975,0.7323 -14.49264,2.5827c0,0 -1.27582,0.4931 -2.3128,-0.1809c-3.25729,1.94893 -7.00734,3.74586 -9.90725,6.1471c-2.47657,2.05069 -4.6632,4.63011 -7.01156,6.83991c-1.54795,1.45661 -3.4964,2.47902 -4.93964,4.03787c-0.57415,0.62014 -2.34437,4.26328 -2.52356,4.5805c-3.27399,5.796 -5.51842,11.26424 -6.16369,17.90906c-3.07905,10.3971 -3.79086,24.90191 3.75565,33.91565c2.77765,3.31767 6.59426,5.54429 9.95596,8.1386c3.81855,2.94685 5.80463,6.9556 10.08308,9.56773c3.33809,2.05746 6.17594,2.80116 9.77976,4.23728c2.70821,1.07922 5.14303,2.42465 8.07142,2.98267c0.59807,0.11397 1.20169,0.20788 1.80498,0.30338c0.48092,-0.10587 0.86434,-0.0707 0.86434,-0.0707z" fill="#c19e4b"></path>
        <path d="M230.14448,227.05963c-0.6033,-0.09551 -1.20866,-0.18967 -1.80675,-0.30363c-2.92838,-0.55802 -5.37134,-1.90548 -8.07954,-2.9847c-3.60382,-1.43612 -6.4512,-2.18419 -9.78928,-4.24166c-4.27845,-2.61213 -6.27532,-6.62946 -10.09385,-9.5763c-3.36173,-2.5943 -7.18559,-4.83066 -9.96322,-8.14833c-7.54655,-9.01375 -6.84063,-23.55101 -3.76159,-33.94811c0.64528,-6.64482 2.8961,-12.13069 6.17011,-17.92669c0.17919,-0.31723 1.95226,-3.96463 2.52641,-4.58477c1.44324,-1.55886 3.3957,-2.58599 4.94366,-4.04261c2.34835,-2.20979 4.54239,-4.79557 7.01894,-6.84625c2.89994,-2.40125 6.66001,-4.20365 9.9173,-6.15258c1.03698,0.67399 2.31472,0.18016 2.31472,0.18016c4.65287,-1.85041 9.62902,-1.7411 14.50703,-2.58562c5.91862,-1.02469 13.72972,-3.34337 19.48297,-0.0881c0.75209,0.42554 1.20466,1.24636 1.89226,1.76839c2.26237,1.71765 5.03223,2.66083 7.34896,4.23113c1.68797,1.14413 3.11962,2.63684 4.76825,3.83612c1.93277,1.74023 4.63474,3.31552 6.37851,5.10215c0.58629,0.6007 0.7822,1.49051 1.27355,2.16993c2.37173,3.27953 5.2401,6.01298 7.09843,9.67149c1.7082,3.36292 2.24357,7.16342 3.60371,10.63943c0.79281,2.02611 1.81009,4.0138 2.18985,6.15435c1.14068,6.42947 -0.19244,13.59034 -0.76557,20.06366c-2.72742,8.93585 -7.84161,16.85561 -14.11034,23.76658c-1.42716,1.57339 -3.39805,2.58353 -4.94438,4.04186c-1.37187,1.29379 -2.34493,2.9923 -3.80078,4.19232c-2.79019,2.29988 -6.25011,3.04114 -9.389,4.61826c-0.77239,0.38808 -1.36605,1.12146 -2.18692,1.39449c-1.6714,0.55595 -3.51607,0.54492 -5.15723,1.18343c-3.09827,0.19816 -5.58659,0.2201 -8.13428,-0.09902c-0.72472,-1.99891 -2.91869,-1.4908 -2.91869,-1.4908l-1.93066,0.50325c-0.29918,-0.0821 -0.60445,-0.16897 -0.91479,-0.26072l-2.82259,-0.30769c0,0 -0.38425,-0.03528 -0.86517,0.07061z" fill="#ffce66"></path>
      </g>
      <path d="M216.99928,195.71916c7.5562,5.94654 19.95182,10.81055 29.53622,7.45649c0.4318,-0.21729 0.8636,-0.43455 1.2954,-0.65184l1.1879,-0.99403c0,0 0.90449,-0.74775 1.78211,-0.13153l1.05336,-1.42309c0.4908,0.28086 0.98161,0.56173 1.47241,0.8426c3.94601,2.25814 9.04155,4.60281 11.705,8.39829c1.28427,1.8301 1.69987,5.09304 -0.81433,6.49434c-2.64786,1.47581 -8.31702,-2.00602 -10.82639,-3.66998c1.29707,3.37094 1.54423,7.28273 -3.205,7.67111c-2.38304,0.19489 -5.69976,-1.91211 -7.19722,-3.63182c-0.45529,-0.52287 -1.25738,-1.86783 -1.67116,-2.7269c-0.15497,0.34279 -0.34938,0.66442 -0.4466,0.91588c-1.77474,2.99051 -5.88654,6.13511 -9.25718,2.83152c-0.28024,-0.27467 -1.17842,-2.90024 -1.38445,-3.47994c-0.09732,-0.27382 -0.19015,-0.79111 -0.22971,-1.24095c-0.42947,0.36072 -1.21197,0.66662 -1.68414,0.83402c-2.24137,0.79468 -6.51966,1.63588 -8.0429,-1.13103c-0.44382,-0.80619 -0.45676,-1.64717 -0.2279,-2.47187c-3.45558,1.18744 -7.14106,1.99868 -10.39167,-0.0477c-1.81875,-1.14498 -2.34201,-2.79438 -1.95125,-4.32798c-2.3703,0.23796 -4.74686,0.11742 -6.84793,-0.92423c-2.24139,-1.11123 -3.57009,-2.0054 -1.75405,-4.79812c0.16954,-0.26073 3.14999,-1.34962 3.69064,-1.49421c3.70969,-0.99208 7.55898,-1.7971 11.35154,-2.39768c0,0 0.48092,-0.07573 0.94018,0.1296c0.89295,-0.82785 1.91704,-0.03098 1.91704,-0.03098z" fill="#292f33" stroke-width="0.5"></path>
      <path d="M286.48425,167.95872l-0.07583,-0.05081l-0.50917,0.55812c-0.5141,0.57593 -1.28831,0.90946 -2.11955,0.83319c-1.3856,-0.12712 -2.405,-1.34471 -2.27688,-2.71956c0.03897,-0.4181 0.17957,-0.8026 0.39534,-1.1317l0.1861,-0.29728l-0.26571,-0.31737l0.95953,-0.79091l0.47512,-0.75895c0,0 1.04724,-1.67283 2.77911,-1.12685c0.0584,0.00134 0.11715,0.00469 0.17618,0.01011c1.3856,0.12712 2.405,1.34471 2.27688,2.71955c-0.05307,0.56948 -0.29469,1.07661 -0.65802,1.46631l-0.05159,0.05656c-0.29539,1.015 -1.2915,1.54958 -1.2915,1.54958z" fill="#363636" stroke-width="0.5"></path>
      <path d="M211.899,162.62745c0.99387,0.09118 1.79933,0.7434 2.12805,1.61228c0.80058,0.47994 1.29909,1.3852 1.2072,2.37138c-0.09954,1.06809 -0.86234,1.91687 -1.84745,2.18285l2.21489,0.18486c-0.62024,5.80883 -4.07257,13.99495 -11.39921,13.13494c-1.51993,-0.17842 -3.19755,-0.48256 -4.33674,-1.49679c-4.37792,-3.89774 -0.3236,-10.25369 0.35778,-14.65627c-0.46955,0.01725 -2.43709,-0.04243 -2.66986,-2.22982c-0.26457,-2.48619 2.24107,-2.74869 2.24107,-2.74869c3.01235,-0.25583 5.25128,0.22996 7.62734,1.23279c1.08217,0.06672 2.28713,-0.22128 3.19801,0.34042c0.09412,0.05805 0.18659,0.11816 0.27752,0.18017c0.31376,-0.09998 0.65257,-0.14015 1.00144,-0.10814z" fill="#714c19" stroke-width="0.5"></path>
      <path d="M266.54317,174.99618c-0.27843,2.98793 -0.6882,7.16643 -2.29869,9.81385c-2.91248,4.78773 -11.20845,6.91038 -14.56991,1.31116c-0.66336,-1.10496 -0.40909,-2.54049 -0.573,-3.81633c-0.41776,-3.25207 -0.06584,-6.20631 0.24148,-9.43344c-0.24125,0.1171 -0.47278,0.25141 -0.69338,0.405c0,0 -2.14626,1.3095 -3.46601,-0.8201c-1.31974,-2.1296 0.82653,-3.43911 0.82653,-3.43911c1.08016,-0.60884 2.01934,-1.60009 3.24048,-1.82651c3.42056,-0.63425 7.92352,0.64906 11.5222,0.37892l2.89241,0.94353c0,0 1.05034,0.45786 1.42214,1.45892c0.63642,0.41286 1.06618,1.10085 1.13328,1.8776l0.3086,2.90023l-0.09039,0.00948z" fill="#714c19" stroke-width="0.5"></path>
      <path d="M279.55671,182.72564c-0.6201,1.06323 -1.24019,2.12647 -1.8603,3.1897c-1.10913,1.10012 -2.39458,2.10128 -3.80813,2.98543c-2.24263,2.2615 -4.2171,4.72929 -7.36281,5.82956c-7.54101,2.63759 -19.94687,1.59729 -24.76967,-5.87012c-1.98761,-3.07752 -2.73536,-8.5523 -2.94943,-12.10181c-0.1844,-3.05761 0.22854,-5.30974 -1.35625,-7.97419c0,0 -0.04398,-0.07942 -0.09993,-0.21632c-0.41913,-0.13077 -1.0866,-0.42973 -1.47881,-1.07058l0.00004,-0.00001c-1.02819,-0.48031 -2.29035,-0.75238 -2.83663,0.27888c-0.23122,0.4365 -0.34146,0.90692 -0.38913,1.39549c0.52085,0.87253 0.23911,1.78599 0.01071,2.27379c0.0068,0.41197 -0.00311,0.82025 -0.06093,1.21642c-2.28518,7.22552 -4.9923,12.76905 -12.3663,16.04206c-6.92401,3.07328 -13.12855,2.07438 -20.08217,-0.14186c-2.39305,-0.76271 -4.09549,-1.23874 -5.94633,-3.039c-2.61568,-2.54421 -4.06317,-5.61086 -4.74004,-8.95432l0.29816,-2.08287c0.09273,-0.68316 0.29794,-1.45653 0.54423,-2.28256c-1.0475,-0.8349 -0.83681,-2.30681 -0.83681,-2.30681l0.28262,-1.6291c0.68462,-1.92966 1.00743,-4.55733 2.46502,-6.12761c-0.37936,0.13183 -0.76928,0.23887 -1.15454,0.34912c-0.17375,0.04972 -0.34951,0.09247 -0.52639,0.13133l-1.12378,0.83769l-0.04514,-0.05963c-0.09609,0.09403 -0.19502,0.18558 -0.29707,0.27435c-1.05508,0.91775 -2.65163,0.90745 -3.9824,1.35267l-3.04233,1.2739c-0.41644,0.18291 -0.88794,0.25606 -1.37206,0.18784c-1.37768,-0.19416 -2.33589,-1.45972 -2.14022,-2.82671c0.11545,-0.80658 0.60683,-1.46825 1.27331,-1.83533l0.00279,-0.00402c-0.37961,-0.064 -0.75817,-0.13146 -1.13503,-0.197c0.11528,-0.39547 0.23054,-0.79095 0.34581,-1.18641l-0.00001,-0.00001c0,0 0.21388,-0.72981 0.81134,-1.26761c0.00262,-0.0068 0.00529,-0.01359 0.00796,-0.02036c-0.01786,-0.19083 -0.01374,-0.38675 0.01463,-0.5848c0.14144,-0.9881 0.84703,-1.75872 1.74761,-2.03669l2.43194,-0.80652l0.01436,0.04263c0.05184,-0.03161 0.1042,-0.06257 0.15704,-0.09284c0.02551,-0.01461 3.35282,-0.61504 5.60059,-1.01953c-0.79626,-0.99109 -1.47368,-2.13586 -1.68121,-3.36907c-1.04865,-6.23124 4.22175,-8.37446 9.1526,-8.97699c-2.34708,-3.68156 1.54885,-11.85751 6.69004,-12.05685c1.20782,-0.04683 2.07546,1.23838 3.17016,1.74696c1.02115,0.4744 2.28068,0.49561 3.16119,1.19447c1.15751,0.91873 1.9831,2.21234 2.73098,3.48218c0.43161,0.73286 0.777,1.54665 0.92768,2.38499c1.9825,-1.54265 4.82191,-2.26161 7.29726,-1.6653c5.34754,1.28822 5.44162,6.53163 7.8183,10.16616c1.53763,2.35139 3.68701,3.59916 5.67148,5.55302l1.96975,1.35076c0.23249,0.15239 0.4366,0.34137 0.60511,0.55752c1.3709,0.01917 2.74169,0.12049 4.09698,0.30619l1.24875,0.46811c1.27065,-0.74467 2.62318,-1.88105 3.77565,-3.1451l0.97095,-1.39398l0.08945,0.06134c0.08016,-0.16018 0.16843,-0.31685 0.2661,-0.46946c0.16913,-0.26427 0.36222,-0.50482 0.57466,-0.7263c0.1423,-0.24117 0.27184,-0.48093 0.38691,-0.71767c1.03131,-2.12177 0.93828,-4.66029 3.49224,-5.97675c2.50124,-1.28929 7.62478,-0.3963 9.30222,1.91699c0.57576,0.79401 -0.96383,1.78121 -1.00932,2.75835c-0.01455,0.31281 0.62059,-0.1515 0.89517,-0.30583c0.60215,-0.33842 1.09936,-0.84729 1.7149,-1.16112c1.0123,-0.51615 2.11779,-0.83255 3.14579,-1.31723c2.75286,-1.2979 4.38179,-3.76663 6.86757,-5.17765c1.48012,-0.84018 3.18395,-2.38858 4.78294,-1.80072c5.20672,1.91424 2.88158,5.86168 2.00502,8.78352c-0.52374,0.90428 -0.9299,1.88648 -1.57119,2.71284c-0.24623,0.31728 -1.23947,0.29494 -1.02737,0.63562c0.22194,0.35648 0.81904,-0.20481 1.22607,-0.31646c0.76194,-0.20898 1.52502,-0.41477 2.28062,-0.64534c3.78185,-1.15409 9.04746,-2.72682 10.69216,2.90915c0.43369,1.48616 -0.58906,3.06339 -1.20368,4.48534c-0.54801,1.26785 -1.27905,2.28173 -2.14385,3.094c0.56384,0.93745 1.26202,1.83812 1.36014,2.90299c0.11446,1.24229 -0.70825,2.39391 -1.05509,3.59296c-0.39981,1.38217 -0.06048,3.24336 -1.18484,4.15065c-1.25407,1.01198 -3.18497,0.63309 -4.80072,0.67944c-0.28232,0.00809 -0.82531,-0.75249 -0.66371,-0.52264c1.83621,2.6116 0.58857,4.93342 -0.45096,7.84917c-0.50991,1.4302 -1.08455,2.71597 -1.75836,3.89696zM244.08105,166.61484c0.07753,3.20912 0.47793,5.49414 1.03952,8.54501c0.45441,2.46865 0.34546,4.87089 1.58464,7.19553c2.42061,4.54097 7.95861,5.74448 12.62191,5.47405c4.17659,-0.24221 7.6127,-0.49533 10.82134,-2.25432c0.19197,-0.20246 0.38612,-0.40253 0.58403,-0.59843c1.86595,-1.36654 3.26291,-2.89053 4.34642,-4.62814l0.80248,-2.28985c0,0 0.25996,-0.73271 0.90167,-1.23751c0.28217,-0.76049 0.53389,-1.55599 0.7634,-2.38948c0.51953,-1.88664 -1.26277,-4.20008 -0.22544,-5.86314c0.84685,-1.35769 2.74355,-1.77893 4.3037,-2.17003c0.76823,-0.19257 1.63019,0.89453 2.32098,0.5094c0.48076,-0.26802 -0.44651,-1.06126 -0.36141,-1.60187c0.10688,-0.67891 0.86179,-1.19637 0.92482,-1.86168c-0.55968,-0.20926 -0.91231,-0.55473 -1.13296,-0.92855c-1.51418,0.40888 -3.12599,0.61283 -4.7261,0.72817c-0.51965,0.64906 -1.28388,0.90249 -1.28388,0.90249l-1.97992,0.54002c-10.07807,0.21783 -20.02385,-1.03731 -30.01843,-2.43618c-0.00425,0.05544 -0.01061,0.11004 -0.0188,0.16367l0.37274,0.71358c0,0 0.22936,2.18239 -1.80225,2.67123c0.15262,0.4492 0.1615,0.81603 0.1615,0.81603zM200.64758,158.51697c-0.6798,0.96859 -1.6629,1.72253 -2.45943,2.59998c-0.12638,0.7301 -0.62838,1.44459 -1.09341,2.16299c-0.00681,0.49124 0.07032,1.0069 -0.04164,1.47918c-0.20915,0.88225 -0.80948,1.65599 -0.94441,2.55238c-1.28177,8.51535 5.63533,13.34954 13.07116,14.57567c2.36217,0.38952 2.36264,-0.62433 4.7163,-0.97248c1.10113,-0.16287 2.25437,0.2097 3.33971,-0.03635c1.59318,-0.36119 2.83437,-1.61596 4.27434,-2.38277c2.57647,-2.61158 4.54586,-4.37534 5.75436,-7.87532l0.69872,-1.1064c0.26438,-1.84678 0.64107,-4.20302 0.92601,-4.58035c0.26716,-0.3538 0.54749,-0.66756 0.83888,-0.94415c-0.18255,-0.41186 -0.2553,-0.87767 -0.18686,-1.35589c0.06876,-0.48035 0.27085,-0.90932 0.56385,-1.25526l1.13729,-1.39119l0.54218,-0.93615c-1.09093,0.17132 -2.1955,0.21356 -3.51067,0.12695c-1.42719,1.86315 -3.4093,0.50393 -3.4093,0.50393c-2.33981,-1.72052 -4.54409,-1.54412 -7.45341,-1.95755c-5.44561,-0.77384 -10.87394,-0.47566 -16.35125,-0.1768c-0.13364,0.56938 -0.4124,0.9696 -0.4124,0.9696z" fill="#292f33" stroke-width="0.5"></path>
      <g stroke-width="0.5">
        <path d="M249.46396,193.54693c1.84017,3.117 0.80441,8.43167 -2.15738,10.67493c-1.68798,1.27849 -5.66525,2.53554 -8.04954,1.03732c-0.49698,0.40954 -1.00502,0.75455 -1.50194,0.98738c-5.68045,2.66151 -11.80011,-1.61665 -15.61056,-5.81319c-0.6154,0.10689 -1.22994,0.17063 -1.84139,0.07767c-4.58602,-0.69714 -7.12642,-4.78853 -6.10874,-9.27481c0.7869,-3.46891 4.12963,-5.1508 6.97371,-6.55638c0,0 1.30965,-0.63854 2.42535,0.04522c0.68166,-0.91612 1.34523,-1.78537 1.91028,-2.57923c2.53696,-3.56434 4.36832,-7.73721 6.62884,-11.48302l0.39261,-0.13545c-0.00338,-0.35148 0.05122,-0.59605 0.05122,-0.59605c0.35793,-1.23932 0.19038,-2.77256 1.07375,-3.71794c2.64126,-2.82668 6.54762,-3.43428 9.45648,-0.43989c0.90044,0.92692 0.51698,2.5232 0.77545,3.7848l0.05742,1.84017c0,0 0.01475,0.54299 -0.22457,1.1296c0.22722,0.62803 0.17205,1.21078 0.17205,1.21078c-0.51082,5.16868 0.92959,10.94694 1.22693,16.46612c1.51362,0.8831 3.64595,2.14944 4.34999,3.34202zM227.98156,196.04042c-0.09287,-0.08773 -0.18245,-0.17808 -0.26833,-0.27074c0.01325,0.07033 0.02261,0.13962 0.02839,0.20779c0.0675,0.08304 0.13966,0.16782 0.21731,0.25514c0.00159,-0.01699 0.00327,-0.03393 0.00509,-0.05083c0.00509,-0.04734 0.01094,-0.09448 0.01753,-0.14136z" fill="#ff924c"></path>
        <path d="M222.77767,184.87603c0.05241,-0.05291 0.10537,-0.10522 0.15891,-0.15692c0,0 0.00367,-0.00349 0.01078,-0.00982c0.18395,-0.18428 0.46344,-0.3702 0.83861,-0.36256c0.16753,-0.00935 0.34978,0.01893 0.53704,0.1119c0.17415,0.06557 0.34691,0.17814 0.48511,0.36596c0.12427,0.13985 0.19618,0.29077 0.2337,0.43936c0.06536,0.19414 0.0658,0.37828 0.03259,0.54279c-0.02427,0.2486 -0.12444,0.44143 -0.25152,0.5893c-0.62982,1.28242 -0.41891,2.27403 -0.74328,3.7912l0.13882,-0.4651c0,0 0.67703,1.05413 -0.38535,1.72592c-1.06238,0.67177 -1.73943,-0.38236 -1.73943,-0.38236l-0.31313,-0.93763c-0.45382,-0.17432 -0.76143,-0.59308 -0.79968,-1.06455l-0.12899,-1.22943l0.19926,-0.02058l-0.1762,-0.37922c0.2333,-0.41317 0.48872,-0.81723 0.76679,-1.20531c-0.00511,-0.23038 0.01739,-0.45758 0.06277,-0.66083z" fill="#863528"></path>
        <path d="M246.93265,194.79633l-1.36518,1.01972c0,0 -0.58539,0.37017 -1.16402,0.12977c-0.16896,-0.01911 -0.35407,-0.07927 -0.55404,-0.19814c-1.08067,-0.64242 -0.43322,-1.71471 -0.43322,-1.71471l0.50588,-0.71303c-0.10356,-0.68658 -0.044,-1.39109 0.07335,-2.08308c-0.00713,-0.15133 0.01874,-0.31818 0.09376,-0.49929c0.01618,-0.07956 0.03279,-0.15888 0.04967,-0.23789c0,0 0.27249,-1.22042 1.50245,-0.95003c0.75256,0.16544 0.94264,0.68653 0.97684,1.06613c1.40173,1.20336 1.37504,2.25966 0.31453,4.18052z" fill="#863528"></path>
      </g>
      <g>
        <g fill="#242424">
          <path d="M230.60985,241.09189c-2.6062,4.88501 1.46126,8.26283 -0.93054,13.03927c-1.61631,3.22777 -5.20123,3.67384 -7.39197,3.65862c-4.90152,-2.24641 -6.02688,-8.46744 -10.40859,-11.32344c-3.07823,-2.0064 -6.37644,-1.79209 -10.24785,-1.27504c-0.24294,0.18265 -0.83424,0.56656 -1.39797,0.46512c-5.49234,3.0824 -10.66621,4.62316 -16.31717,6.45584c-4.82156,-0.06197 -9.75231,-0.02953 -14.12462,-1.46705c-7.54707,-2.4813 -13.64725,-12.17973 -15.69091,-20.55539c-1.10475,-4.63348 -0.16648,-8.43748 1.43712,-13.45671c0.68243,-2.13595 -0.05146,-4.24977 0.75883,-6.36609c0.72875,-1.90328 4.32877,-6.06921 5.64763,-7.56532c3.46198,-3.9273 7.62415,-6.56903 11.76272,-9.27153c5.00116,-3.26575 9.44452,-6.46845 14.76388,-7.20172c2.47479,-0.78174 3.98298,-0.31705 6.29989,-0.25982c11.73307,0.28978 16.3784,9.5876 21.67837,18.73271c0.25883,0.02583 0.42538,0.10346 0.42538,0.10346c4.01819,2.0595 11.23095,-1.01676 16.02708,-0.79462c6.65875,0.30842 10.23121,7.95053 11.67328,14.30608c-0.00742,0.05697 -0.01479,0.11393 -0.02209,0.17082c-0.41644,0.45373 -0.56794,1.03361 -0.56794,1.03361c-0.34543,1.36676 -0.51229,2.75077 -0.49456,4.05942l0.211,1.33342c-0.4135,2.29249 -1.04834,4.51676 -2.26699,6.67729c-0.15491,0.0991 -0.25237,0.18517 -0.25237,0.18517c-1.46926,1.29774 -4.14059,3.65724 -5.60984,4.95497c0,0 -0.396,0.34977 -0.6249,0.86103c-1.67422,0.78246 -3.32054,1.59482 -4.33691,3.4999zM216.9027,245.4996c2.28963,2.84111 3.57843,6.93204 6.89377,8.51835c5.2393,0.338 2.09042,-5.59444 2.21741,-8.44039c0.05379,-1.20546 1.27129,-4.76737 1.86999,-5.8441c2.48189,-4.46348 6.14455,-3.85659 8.82871,-6.87263c3.90022,-4.38248 3.71345,-8.35414 4.46555,-13.33732c-1.2478,-4.63618 -4.08786,-11.70188 -9.27869,-11.67912c-5.4041,0.0237 -12.34307,2.60242 -17.00289,0.57248c0,0 -0.1521,-0.07089 -0.31932,-0.23155c-0.67092,-0.02523 -1.01885,-0.63144 -1.01885,-0.63144c-4.79707,-8.4792 -9.00817,-17.48477 -19.78976,-17.75104c-2.06418,-0.05097 -3.35557,-0.60118 -5.52679,0.17569c-4.9008,0.67556 -8.89572,3.63632 -13.5145,6.65277c-3.73672,2.44039 -7.61489,4.82153 -10.72247,8.36427c-1.01274,1.15459 -4.12872,4.57328 -4.67895,6.00492c-0.76478,1.98983 -0.0021,3.95831 -0.61475,5.96998c-1.29239,4.24364 -2.30725,7.24023 -1.31009,11.21547c1.0888,4.46238 3.17116,7.64138 5.69756,10.89116c2.40947,3.09936 4.51459,6.65121 8.41377,7.85492c4.04888,1.24993 8.47521,1.20441 12.87186,1.3827c5.39139,-1.86925 10.27691,-3.23814 15.54816,-6.27855l1.54169,-0.76084c0,0 0.91301,-0.44733 1.50345,0.01444c5.53049,-0.60295 10.4928,-0.04919 13.92516,4.20984z" stroke-width="0.5"></path>
          <path d="M216.93571,245.54404c-3.43236,-4.25903 -8.4175,-4.8077 -13.94801,-4.20475c-0.59042,-0.46177 -1.5071,-0.01414 -1.5071,-0.01414l-1.5456,0.76101c-5.27122,3.04041 -10.18438,4.4062 -15.57578,6.27545c-4.39663,-0.17829 -8.84071,-0.13945 -12.88959,-1.38938c-3.89919,-1.20371 -6.01994,-4.7666 -8.42941,-7.86596c-2.52641,-3.24977 -4.62024,-6.4462 -5.70904,-10.90858c-0.99715,-3.97524 0.01651,-6.9911 1.30889,-11.23474c0.61264,-2.01167 -0.14633,-3.99005 0.61844,-5.97988c0.55022,-1.43164 3.67384,-4.86072 4.68661,-6.01531c3.10757,-3.54274 7.00496,-5.93737 10.74168,-8.37776c4.61877,-3.01646 8.6377,-5.98457 13.5385,-6.66014c2.17121,-0.77687 3.47108,-0.22769 5.53527,-0.17672c10.78161,0.26627 15.0438,9.2815 19.84086,17.7607c0,0 0.35107,0.60793 1.02198,0.63316c0.16722,0.16066 0.32035,0.23215 0.32035,0.23215c4.65981,2.02994 11.6137,-0.53623 17.0178,-0.55993c5.19084,-0.02276 8.04056,7.06521 9.28834,11.70139c-0.75209,4.98318 -0.57135,8.97795 -4.47156,13.36042c-2.68417,3.01603 -6.35959,2.42272 -8.84149,6.8862c-0.59871,1.07673 -1.82514,4.64436 -1.87893,5.84982c-0.12699,2.84594 3.01145,8.78307 -2.22785,8.44507c-3.31535,-1.58631 -4.67076,-5.76585 -6.9604,-8.60696z" stroke-width="0.25"></path>
          <path d="M322.80398,253.59507l-0.1556,0.22565c0.04485,0.04374 0.08732,0.09868 0.12637,0.16671c0.34682,0.60428 -0.18217,1.18691 -0.32183,1.32491l-0.30669,0.77467c0,0 -0.22137,0.40433 -0.57494,0.57535c-0.30954,0.46381 -0.60323,0.86937 -0.73407,0.94774c-0.83794,0.50188 -4.56601,-0.31334 -5.18567,-0.81056c-0.5309,-0.42598 -0.616,-1.85928 -0.80427,-2.78684l-0.51186,1.13063c-4.00904,3.48281 -6.19924,0.12478 -8.28256,-1.97593c0,0 -0.21933,-0.22408 -0.20551,-0.59114c-0.20346,-0.1339 -0.31463,-0.28116 -0.31463,-0.28116l-1.00753,-1.33466c-0.90439,-1.21172 -1.52886,-2.55592 -2.34872,-3.80575c-0.61263,-0.07195 -0.92979,-0.62457 -0.92979,-0.62457l0.0155,-0.04962c-3.23157,-3.33773 -3.2491,-11.38778 2.63537,-15.47379c0.53438,-0.37106 1.24225,-0.64008 1.96405,-0.84994c0.41997,-0.25088 0.78972,-0.30185 0.78972,-0.30185c2.44757,-0.1492 4.97428,-3.91756 7.13221,-5.82693l1.42718,-1.01716c0,0 0.79442,-0.55524 1.46444,-0.33813c0.64665,-0.76114 1.11635,-1.69824 1.89432,-2.26973c2.4477,-1.79814 4.85098,0.46391 5.13779,2.6715l-0.1841,0.95761c0,0 -0.14253,0.54546 -0.56114,0.80483c0.76865,0.20725 1.53763,0.42055 2.30132,0.64442c0.03214,-0.05678 0.05513,-0.08999 0.05513,-0.08999l0.00002,0.00001c0.69117,-0.9965 1.66598,-2.593 2.74248,-3.1054c2.28384,-1.08707 5.62497,1.85772 4.93496,4.15395l-0.18309,0.73223c0,0 -0.17103,0.65463 -0.68874,0.8706c0.25209,0.12516 0.50098,0.25376 0.74637,0.38609l0.33389,0.06264c0,0 1.0373,0.28827 0.91524,1.46706c0.68597,0.46908 0.4465,1.63999 0.4465,1.63999c-1.36154,6.43261 -5.11181,13.59933 -9.0206,19.25067l-1.3961,1.34017c0,0 -0.19741,0.17438 -0.48698,0.33081c-0.27828,0.56758 -0.71054,0.94936 -0.71054,0.94936l-0.09409,0.04022c-0.01792,0.02843 -0.03584,0.05689 -0.05375,0.08532zM322.51095,255.18865c-0.00756,0.01201 -0.01573,0.025 -0.02445,0.03888l-0.00349,0.00884zM307.80792,233.38256c-4.84425,1.10626 -6.93201,6.55851 -4.11184,9.7375c0.55913,0.06062 0.88305,0.50022 0.88305,0.50022c1.04297,1.42896 1.7133,3.03172 2.77834,4.42344l0.89854,1.19031c4.70462,-0.24481 9.16432,0.50804 13.66124,1.00854c0.2755,-0.49611 0.64351,-0.82115 0.64351,-0.82115l0.52726,-0.35868c3.38271,-4.88419 6.91886,-11.34775 8.10165,-16.95174l-0.42033,-0.13235c-4.44498,-2.43372 -10.23917,-3.58334 -15.21063,-4.94152c0,0 -0.13437,-0.03733 -0.30068,-0.14009c-2.21769,1.97742 -3.94349,4.16059 -6.07533,5.52922c-0.54042,0.76336 -1.37484,0.95631 -1.37484,0.95631z" stroke-width="0.5"></path>
          <path d="M307.75656,233.34761c0,0 0.8439,-0.19861 1.38433,-0.96197c2.13183,-1.36864 3.89757,-3.56115 6.11525,-5.53856c0.16631,0.10276 0.30192,0.14007 0.30192,0.14007c4.97147,1.35819 10.82665,2.53058 15.27163,4.9643l0.42114,0.13325c-1.18282,5.60399 -4.74804,12.13863 -8.13076,17.02282l-0.52997,0.35957c0,0 -0.37206,0.32619 -0.64755,0.8223c-4.49692,-0.5005 -9.01386,-1.25537 -13.71847,-1.01056l-0.9048,-1.19274c-1.06506,-1.39171 -1.75813,-3.0103 -2.80107,-4.43926c0,0 -0.32677,-0.44306 -0.88589,-0.50368c-2.82018,-3.17899 -0.72,-8.68929 4.12423,-9.79555z" stroke-width="0.25"></path>
          <path d="M307.72427,230.15544c1.66002,2.52464 -1.53906,9.54627 -3.24855,12.41668c-0.58622,0.98434 -1.05423,2.23091 -1.94979,2.83234c-1.6816,1.12934 -4.80729,0.25643 -6.45133,0.21688l-1.71504,-0.04237c0,0 -1.14419,-0.02826 -1.21571,-1.1709c-4.43418,-0.7641 -8.9903,-1.29255 -13.41787,-2.00446c-12.40245,-0.3191 -23.88514,-3.46265 -36.0173,-4.63733c-0.64892,0.39196 -1.27365,0.24615 -1.27365,0.24615l-1.13427,-0.29282c-2.2275,-0.0765 -4.96553,-0.3146 -5.46782,-3.13016c-0.15197,-0.852 0.36873,-1.89865 0.58693,-2.84916c0.75608,-3.29364 2.62665,-9.88024 6.05907,-11.62983c1.57071,-0.80062 4.3343,0.3127 5.80793,0.80827c12.4375,1.97376 24.92197,3.77439 37.35414,5.78067c5.69925,0.92028 11.46837,1.51079 17.17519,2.36459c-0.01766,0.0531 -0.03499,0.10633 -0.052,0.15967c1.74545,-0.05834 4.23722,-0.16752 4.96004,0.93181z" stroke-width="0.25"></path>
        </g>
        <g stroke-width="0.5">
          <g>
            <path d="M194.62861,239.86289c-0.59042,-0.46177 -1.5084,-0.01212 -1.5084,-0.01212l-1.54725,0.76286c-5.27122,3.04041 -10.19476,4.40528 -15.58617,6.27454c-4.39662,-0.17828 -8.83706,-0.14966 -12.88593,-1.39958c-3.89916,-1.20372 -6.00878,-4.77418 -8.41826,-7.87353c-2.52641,-3.24977 -4.60766,-6.44628 -5.69647,-10.90866c-0.99715,-3.97524 0.02167,-6.98603 1.31404,-11.22966c0.61264,-2.01167 -0.14717,-3.98692 0.61759,-5.97673c0.55024,-1.43164 3.67042,-4.85828 4.6832,-6.01287c3.10757,-3.54274 6.99585,-5.93774 10.73256,-8.37813c4.61877,-3.01645 8.63026,-5.99176 13.53103,-6.66732c2.17121,-0.77687 3.47025,-0.23114 5.53443,-0.18017c10.7816,0.26627 15.0453,9.27543 19.84234,17.75464c0,0 0.35051,0.60885 1.02145,0.63408c0.1672,0.16067 0.32011,0.23246 0.32011,0.23246c4.65983,2.02995 11.6084,-0.52798 17.0125,-0.5517c5.19082,-0.02278 8.03126,7.06521 9.27906,11.7014c-0.75212,4.98317 -0.57028,8.97315 -4.47047,13.35563c-2.68415,3.01605 -6.35304,2.42187 -8.83491,6.88535c-0.59871,1.07673 -1.82125,4.64635 -1.87504,5.8518c-0.12698,2.84594 3.01494,8.78685 -2.22436,8.44884c-3.31535,-1.58631 -4.60405,-5.67732 -6.89371,-8.51843c-3.43236,-4.25903 -8.41683,-4.79564 -13.94733,-4.19269z" fill="#781616"></path>
            <g>
              <g>
                <path d="M231.72343,223.40908c-0.07935,0.02653 -0.15506,0.04782 -0.22733,0.06432c-5.09766,2.54013 -10.42464,2.03966 -13.921,-1.18127c-2.0305,-1.87055 -3.29769,-4.91143 -5.75095,-6.19182c-6.95929,-1.90635 -14.65935,3.35923 -21.89872,2.58785c-6.45479,-0.68778 -8.49123,-5.68004 -12.98955,-9.24048c-7.01178,-4.4748 -13.40057,6.73345 -20.3125,9.59875c-4.59031,1.90289 -8.94692,1.17769 -9.85756,-3.65141c0,0 -0.21586,-1.34366 0.87763,-2.22547c0.2049,-0.33799 0.41557,-0.55494 0.41557,-0.55494c2.04358,-2.00739 2.96721,-4.83882 5.0121,-7.08525c7.46655,-8.20244 16.95339,-15.89625 26.37611,-18.28197c4.18845,-0.49978 8.20826,-1.55632 11.76736,0.22616c7.61028,3.8114 9.00528,15.03745 16.17972,18.89666l0.61755,0.20045c0.26919,-0.02914 0.45194,0.00781 0.45194,0.00781c7.76965,1.59732 19.15575,-4.46103 23.41882,4.24858c1.28784,2.63111 1.28398,6.46463 1.48892,9.66303l0.01267,0.51942c0,0 0.01193,0.56836 -0.27129,1.17006l0.13117,0.29536c-0.19534,0.12631 -0.39141,0.24796 -0.58806,0.36497c-0.23039,0.23268 -0.53358,0.43576 -0.93262,0.56918zM228.80336,213.34315c-3.58827,-7.1068 -15.19319,-1.66548 -21.7906,-2.98035c0,0 -0.00185,-0.00037 -0.00537,-0.00117c-0.37311,0.03915 -0.63897,-0.05297 -0.63897,-0.05297l-1.07517,-0.38861c-7.21004,-3.94824 -8.62302,-15.02783 -16.12058,-18.86567c-3.00124,-1.53627 -6.57444,-0.43807 -10.1137,-0.02325c-8.50318,2.11105 -17.27896,9.50286 -23.98437,16.8565c-1.97405,2.16489 -2.86624,4.59051 -4.72514,6.75966c1.05508,2.4416 5.10215,1.71052 7.57793,-0.06306c2.32832,-1.66796 4.362,-4.14712 6.66346,-5.89564c4.94129,-3.75409 10.52278,-5.11323 14.65846,-2.65952c4.14195,3.28024 6.00258,8.22417 11.87775,8.83729c7.51015,0.78373 15.1928,-4.49849 22.56398,-2.42614c5.4653,3.04093 8.35892,11.60037 16.22649,8.11612c-0.10431,-2.47299 -0.16395,-5.33122 -1.11419,-7.2132z" fill="#783232"></path>
                <path d="M229.97014,220.56293c-7.86759,3.48425 -10.86972,-5.0741 -16.33502,-8.11503c-7.37119,-2.07235 -15.04137,3.25506 -22.55154,2.47131c-5.87514,-0.61312 -7.65361,-5.57694 -11.79556,-8.85719c-4.13568,-2.4537 -9.70582,-1.11414 -14.64711,2.63996c-2.30146,1.74852 -4.33113,4.21601 -6.65945,5.88398c-2.47576,1.77359 -6.63104,2.50162 -7.68611,0.06003c1.85889,-2.16914 2.75426,-4.60458 4.72833,-6.76947c6.70542,-7.35365 15.50925,-14.78349 24.01243,-16.89453c3.53928,-0.41482 7.13207,-1.52422 10.13331,0.01206c7.49756,3.83784 8.97035,14.95597 16.18039,18.90422l1.07527,0.39144c0,0 0.26584,0.09302 0.63897,0.05387c0.00354,0.00079 0.00536,0.00118 0.00536,0.00118c6.59742,1.31486 18.20087,-4.11171 21.78914,2.9951c0.95023,1.882 1.00726,4.75009 1.11158,7.22306z" fill="#a14343"></path>
              </g>
              <path d="M226.9343,213.4562c-0.50088,1.9171 -2.12504,1.87698 -2.12504,1.87698l0.22046,-0.0688c-2.65316,0.75636 -6.06979,1.71746 -8.14667,0.25391c-1.43466,-1.01096 -1.64965,-2.58729 -3.54636,-2.96321c-3.5918,-0.71191 -7.70944,1.85835 -11.3936,0.86871c-2.39403,-0.6431 -3.47654,-2.9829 -5.76274,-3.64964c0,0 -0.21721,-0.06946 -0.43617,-0.2606c-0.07341,0.00636 -0.11594,0.0053 -0.11594,0.0053l-1.8041,-0.04751c-2.6726,-0.46734 -4.28202,-0.98084 -5.18296,-3.89192c-0.95823,-3.09627 0.70616,-9.81786 -4.12526,-8.7064c-3.67877,2.41983 -6.20874,3.35482 -10.02603,3.94914c-2.51208,0.3911 -4.76217,-0.32209 -7.302,1.48586c-4.74453,3.37732 -6.61975,9.94431 -11.8057,12.05081c-1.93862,0.78746 -2.67584,0.4663 -4.47142,0.30993c0,0 -1.59194,-0.15264 -0.99658,-2.06406c0.5954,-1.91143 2.18734,-1.7588 2.18734,-1.7588c4.63331,0.49543 5.08303,-2.23879 8.12346,-6.2405c1.33766,-1.76055 4.03875,-4.18702 5.78725,-5.39313c4.23408,-2.92066 8.51487,-1.82477 12.78905,-2.78729c1.77978,-0.4008 3.72263,-2.09502 5.39705,-3.12497c0.91327,-0.16984 1.88647,-0.61576 2.73982,-0.50951c7.12556,0.8871 1.79353,11.96509 8.06585,12.85698l1.626,0.03722c0,0 0.46772,0.01156 0.82378,0.31853c0.26079,-0.0021 0.43307,0.05299 0.43307,0.05299c2.22496,0.75627 3.36851,3.04438 5.6542,3.61776c3.59083,0.90077 7.65186,-1.63977 11.26139,-0.90016c2.23316,0.45758 2.87331,2.01599 4.42218,3.34585c1.18871,1.02061 4.32592,-0.11498 5.87587,-0.56396l0.71048,-0.05669c0,0 1.62418,0.04011 1.1233,1.95721z" fill="#b17878"></path>
            </g>
            <g>
              <path d="M193.75626,223.13743c-0.07218,0.35748 -0.19483,0.62473 -0.19483,0.62473c-1.82674,3.96915 -5.09402,11.71856 -4.7226,15.63934c0.07122,0.75172 3.15229,-0.18327 3.49349,-0.24572c4.41669,-0.80848 9.1996,-1.33352 13.50304,-1.58227c3.70734,-0.43996 7.29209,-1.07462 11.02838,-1.87609c1.0557,-0.22647 2.11044,-0.10996 3.15975,-0.59649c0.46579,-0.21597 1.55607,-0.72061 1.27783,-1.04593c-0.53342,-0.62369 -1.51382,-0.61753 -2.15587,-1.10577c-4.12455,-3.13655 -8.82316,-5.44358 -13.79904,-7.16692c-3.5497,-1.23582 -7.58883,-2.30441 -11.59015,-2.64489zM191.23562,221.9473l1.55586,-2.75042c4.89663,0.13394 9.92859,1.37209 14.3146,2.88518c5.20123,1.8031 10.11093,4.22068 14.425,7.50107c0.83022,0.63129 3.09775,2.05719 3.1565,3.10025c0.12582,2.2337 -2.28037,4.82646 -3.9656,5.80998c-0.50474,0.29459 -3.5629,0.84297 -4.15376,0.96921c-3.8666,0.82606 -7.58518,1.48311 -11.42045,1.93531c-4.17636,0.19748 -8.90209,0.7511 -13.20478,1.54182c-2.30423,0.42346 -5.29209,1.2272 -6.32509,-1.36141c-0.30401,-0.76185 0.13744,-1.87125 0.20586,-2.80682c0.36049,-4.92807 2.5751,-11.09532 4.79774,-15.94966c0,0 0.21465,-0.46767 0.6141,-0.87453z" fill="#868686"></path>
              <path d="M205.36877,225.71891c4.97588,1.72332 9.70653,4.09402 13.83108,7.23057c0.64203,0.48825 1.6216,0.48527 2.155,1.10895c0.27822,0.32532 -0.81309,0.83333 -1.27891,1.0493c-1.04929,0.48653 -2.1053,0.37354 -3.16101,0.60001c-3.73627,0.80146 -7.34402,1.47028 -11.05136,1.91025c-4.30346,0.24874 -9.1694,0.76203 -13.58609,1.5705c-0.34119,0.06246 -3.42359,0.99085 -3.4948,0.23912c-0.37142,-3.92077 2.91547,-11.7321 4.74223,-15.70124c0,0 0.12412,-0.26898 0.1963,-0.62645c4.00131,0.34047 8.09781,1.38314 11.6475,2.61897z" fill="#a2a2a2"></path>
            </g>
            <path d="M194.59512,226.25883c1.94705,-2.92462 3.09841,-8.86782 3.58704,-11.95661c0.16201,-1.02417 1.029,-2.48838 0.44469,-3.06744c-0.47283,-0.46859 -1.80779,-0.76277 -3.02506,-0.98551c-0.97239,5.15607 -2.46911,9.78059 -5.28983,14.62222l-0.16201,0.29634c1.11563,0.58859 3.824,2.02406 4.44516,1.09102zM192.92886,207.58092c0.80967,-1.87199 2.30409,-1.45669 2.30409,-1.45669c1.40736,0.39148 5.25982,0.85142 6.16088,2.11112c2.2681,3.17087 -1.05422,11.08523 -2.47028,15.19103c-0.32595,0.94506 -1.51464,4.33012 -2.22585,5.07854c-3.28216,3.45387 -6.25207,1.16483 -8.8594,0.09857l-1.06448,-0.7337c0,0 -0.96431,-0.70102 -0.36787,-2.04071c0.10046,-0.34319 0.23535,-0.58954 0.23535,-0.58954l0.98088,-1.78947c2.54584,-4.35501 3.84436,-8.48962 4.69406,-13.14826c0,0 0.10845,-0.58979 0.48962,-1.13726c-0.15835,-0.34863 -0.19167,-0.85613 0.12297,-1.58362z" fill="#343434"></path>
            <path d="M190.11079,225.22434l0.16175,-0.29652c2.82072,-4.84163 4.36394,-9.58566 5.33633,-14.74174c1.21727,0.22274 2.57749,0.5196 3.05031,0.98819c0.58429,0.57907 -0.27194,2.05051 -0.43395,3.07467c-0.48863,3.08879 -1.68364,9.14687 -3.63066,12.07149c-0.62117,0.93305 -3.36815,-0.5075 -4.4838,-1.09609z" fill="#434343"></path>
            <path d="M208.92299,232.1598c-1.38244,-0.6443 -0.39364,-2.45033 -0.39364,-2.45033l0.38416,-0.68739c2.0182,-4.38889 3.67329,-8.5541 3.08333,-12.79039c0,0 -0.23297,-1.7542 1.45066,-2.52856c0.16653,-0.0766 0.31887,-0.12845 0.45818,-0.15971c0.93506,-1.57448 2.24084,-1.04047 2.24084,-1.04047c1.21103,0.49548 2.41047,1.01409 3.59227,1.56463l0.32971,0.15365c0,0 0.95693,0.44597 0.70908,1.63591c1.12166,3.64441 0.68086,8.55183 -1.31176,12.75817c-1.30513,2.7551 -3.58418,5.67414 -6.3524,5.78285c-0.91153,0.03581 -1.59858,-0.57579 -2.39789,-0.86369l-0.84551,-0.29115c0,0 -0.71762,-0.24867 -0.8396,-1.03802c-0.03551,-0.01356 -0.07133,-0.02869 -0.1074,-0.0455zM212.59311,229.8787c4.80984,2.37174 5.91183,-9.07685 4.78538,-12.37608c-0.62136,-0.28506 -1.24761,-0.56122 -1.87777,-0.82989c0.04828,4.31091 -1.47617,8.5147 -3.51287,12.9951z" fill="#343434"></path>
            <path d="M211.95905,229.72969c2.03668,-4.48038 3.59658,-8.80912 3.5483,-13.12004c0.63015,0.26866 1.27614,0.54535 1.89752,0.83041c1.12645,3.29923 -0.02423,14.8738 -4.83405,12.50205z" fill="#434343"></path>
            <g>
              <path d="M174.67979,238.57114c-0.75497,0.4552 -1.00848,-0.29298 -1.00848,-0.29298c-1.34103,-4.24482 4.04804,-8.51966 7.10493,-6.18384c1.36259,1.04116 1.03357,4.15723 -0.66801,5.71628c-1.91979,1.75901 -3.95031,1.64662 -5.42845,0.76053zM175.27931,235.48335c0.0581,0.11033 0.07796,0.20637 0.07796,0.20637l0.1923,1.10087c1.09782,0.85293 5.13955,0.15411 4.31818,-2.45409c-0.59286,-1.88257 -3.8343,-0.84901 -4.58844,1.14686z" fill="#868686"></path>
              <path d="M179.92374,234.30985c0.82135,2.6082 -3.33018,3.36957 -4.42799,2.51664l-0.19438,-1.12963c0,0 -0.01893,-0.1012 -0.07702,-0.21154c0.75415,-1.99586 4.10653,-3.05804 4.6994,-1.17548z" fill="#a2a2a2"></path>
            </g>
            <g>
              <path d="M161.24321,228.18303c-0.02671,-0.00265 -0.04167,-0.00566 -0.04167,-0.00566c-4.28868,-1.35494 1.92087,-7.83298 5.13951,-6.55684c2.2775,0.90299 2.75092,4.00881 0.0305,6.41167c-1.72735,1.52571 -3.19086,1.17894 -4.72579,0.79163zM161.54595,226.235c0.60959,-0.36706 0.92995,0.19113 0.92995,0.19113l0.34422,0.70096c0.92485,0.10576 1.74204,0.41778 2.75713,-0.47883c1.70112,-1.50254 0.92513,-3.67364 -0.80304,-3.4687c-0.94179,0.11169 -3.98915,2.65291 -3.22826,3.05542z" fill="#868686"></path>
              <path d="M164.79086,223.11568c1.72817,-0.20494 2.52717,2.06167 0.82605,3.56421c-1.0151,0.8966 -1.91585,0.60539 -2.84071,0.49963l-0.35577,-0.7237c0,0 -0.32151,-0.57247 -0.93109,-0.20541c-0.7609,-0.40252 2.35973,-3.02306 3.30152,-3.13476z" fill="#a2a2a2"></path>
            </g>
            <g>
              <path d="M163.20954,237.62041c-2.17927,-3.26834 5.66533,-8.43096 7.0948,-3.3153c1.23858,4.43242 -5.60252,7.66686 -7.04645,3.77376zM164.64302,235.79998c0.16082,0.18213 0.18744,0.44588 0.18744,0.44588l0.08854,0.92779c0.4104,1.46851 3.72276,0.89832 3.93335,-1.07081c0.45236,-4.22971 -3.4634,-1.31836 -4.20932,-0.30287z" fill="#868686"></path>
              <path d="M168.90645,236.10422c-0.21058,1.96913 -3.63234,2.56856 -4.04275,1.10007l-0.08879,-0.95338c0,0 -0.02391,-0.27465 -0.18473,-0.45677c0.74592,-1.01548 4.76863,-3.91961 4.31626,0.3101z" fill="#a2a2a2"></path>
            </g>
            <g>
              <path d="M171.68942,229.57189c-0.30875,0.04656 -0.5266,-0.1323 -0.5266,-0.1323c-3.69941,-3.34653 3.23939,-8.23889 5.98615,-5.59095c2.92764,2.8223 -2.05792,7.75198 -5.01445,6.46545zM172.11572,227.56189c0.53616,-0.23901 0.81703,0.25038 0.81703,0.25038l0.48172,0.89212c1.3283,0.7216 3.83348,-2.16371 2.45456,-3.24606c-1.30416,-1.02369 -5.36602,0.56838 -3.75332,2.10358z" fill="#868686"></path>
              <path d="M175.92183,225.41965c1.37892,1.08235 -1.20201,4.06964 -2.5303,3.34804l-0.50851,-0.91056c0,0 -0.28755,-0.511 -0.82371,-0.27201c-1.6127,-1.5352 2.55836,-3.18916 3.86252,-2.16547z" fill="#a2a2a2"></path>
            </g>
            <path d="M222.25027,239.60794c-2.60622,4.885 1.46126,8.26283 -0.93053,13.03927c-1.61631,3.22777 -5.20123,3.67385 -7.39197,3.65862c-4.90152,-2.24641 -6.02688,-8.46744 -10.40859,-11.32344c-3.0782,-2.00639 -6.37644,-1.79209 -10.24783,-1.27504c-0.24294,0.18265 -0.83426,0.56656 -1.39797,0.46512c-5.49234,3.0824 -10.66621,4.62316 -16.31717,6.45584c-4.82156,-0.06197 -9.75231,-0.02953 -14.12462,-1.46705c-7.54707,-2.4813 -13.64725,-12.17973 -15.69091,-20.55539c-1.10475,-4.63348 -0.16648,-8.43748 1.43712,-13.45671c0.68242,-2.13595 -0.05148,-4.24977 0.75883,-6.36609c0.72872,-1.90328 4.32877,-6.06921 5.64763,-7.56532c3.46198,-3.9273 7.62415,-6.56903 11.76272,-9.27153c5.00116,-3.26575 9.44452,-6.46845 14.76388,-7.20172c2.47479,-0.78174 3.98298,-0.31705 6.29989,-0.25982c11.73307,0.28978 16.3784,9.5876 21.67837,18.73271c0.25883,0.02583 0.42538,0.10346 0.42538,0.10346c4.01819,2.0595 11.23095,-1.01676 16.02708,-0.79462c6.65875,0.30842 10.23121,7.95053 11.67328,14.30608c-0.00742,0.05697 -0.01479,0.11393 -0.02209,0.17082c-0.41644,0.45373 -0.56794,1.03361 -0.56794,1.03361c-0.34543,1.36676 -0.51229,2.75077 -0.49456,4.05942l0.211,1.33342c-0.4135,2.29249 -1.04834,4.51676 -2.26699,6.67729c-0.15491,0.0991 -0.25237,0.18517 -0.25237,0.18517c-1.46926,1.29774 -4.14059,3.65724 -5.60984,4.95497c0,0 -0.396,0.34977 -0.6249,0.86103c-1.67422,0.78246 -3.32054,1.59482 -4.33691,3.4999zM208.54312,244.01566c2.28963,2.84111 3.57843,6.93204 6.89378,8.51835c5.2393,0.338 2.09039,-5.59445 2.21741,-8.44039c0.05379,-1.20546 1.27129,-4.76737 1.86999,-5.8441c2.48189,-4.46348 6.14455,-3.85659 8.82871,-6.87263c3.90022,-4.38248 3.71345,-8.35414 4.46555,-13.33732c-1.2478,-4.63618 -4.08786,-11.70188 -9.27869,-11.67912c-5.4041,0.0237 -12.34307,2.60242 -17.00289,0.57248c0,0 -0.1521,-0.07089 -0.31932,-0.23155c-0.67092,-0.02523 -1.01885,-0.63144 -1.01885,-0.63144c-4.79707,-8.4792 -9.00817,-17.48477 -19.78976,-17.75104c-2.06418,-0.05097 -3.35556,-0.60117 -5.52679,0.17569c-4.9008,0.67556 -8.89572,3.63632 -13.5145,6.65277c-3.73672,2.44039 -7.61489,4.82153 -10.72247,8.36427c-1.01274,1.15459 -4.12872,4.57328 -4.67895,6.00492c-0.76478,1.98983 -0.0021,3.95831 -0.61475,5.96998c-1.29239,4.24364 -2.30725,7.24023 -1.31009,11.21547c1.08882,4.46238 3.17116,7.64138 5.69756,10.89116c2.40947,3.09936 4.5146,6.65121 8.41377,7.85492c4.04888,1.24993 8.47521,1.20441 12.87186,1.3827c5.3914,-1.86925 10.27691,-3.23814 15.54816,-6.27855l1.54169,-0.76084c0,0 0.91301,-0.44733 1.50343,0.01444c5.53049,-0.60295 10.4928,-0.04919 13.92516,4.20984z" fill="#4e0e0e"></path>
          </g>
          <g>
            <path d="M304.86109,252.32602l0.10605,-0.60037c-1.56079,-0.13613 -3.13642,-0.21616 -4.73848,-0.18481c1.17391,1.37563 2.60504,2.63905 4.68579,0.96286c-0.04069,-0.09884 -0.05338,-0.17768 -0.05338,-0.17768zM314.4444,252.11113l-0.1556,0.22565c0.04485,0.04374 0.08732,0.09868 0.12637,0.16671c0.34682,0.60428 -0.18217,1.18691 -0.32183,1.32491l-0.30669,0.77467c0,0 -0.22136,0.40433 -0.57494,0.57535c-0.30954,0.46381 -0.60323,0.86937 -0.73408,0.94774c-0.83792,0.50188 -4.56601,-0.31334 -5.18567,-0.81056c-0.5309,-0.42598 -0.61601,-1.85929 -0.80428,-2.78685l-0.51186,1.13063c-4.00904,3.48281 -6.19924,0.12478 -8.28256,-1.97593c0,0 -0.21932,-0.22407 -0.20551,-0.59114c-0.20346,-0.1339 -0.31463,-0.28116 -0.31463,-0.28116l-1.00753,-1.33466c-0.9044,-1.21172 -1.52886,-2.55592 -2.34872,-3.80575c-0.61263,-0.07195 -0.92979,-0.62457 -0.92979,-0.62457l0.0155,-0.04962c-3.23157,-3.33773 -3.2491,-11.38778 2.63538,-15.47379c0.53438,-0.37106 1.24225,-0.64008 1.96405,-0.84994c0.41995,-0.25088 0.78972,-0.30185 0.78972,-0.30185c2.44757,-0.1492 4.97428,-3.91756 7.13221,-5.82693l1.42718,-1.01716c0,0 0.79442,-0.55524 1.46443,-0.33813c0.64665,-0.76114 1.11637,-1.69823 1.89432,-2.26973c2.4477,-1.79814 4.85098,0.46391 5.13781,2.67151l-0.18411,0.9576c0,0 -0.14253,0.54546 -0.56113,0.80483c0.76865,0.20725 1.53763,0.42055 2.30132,0.64442c0.03214,-0.05678 0.05513,-0.08999 0.05513,-0.08999l0.00002,0.00001c0.69117,-0.9965 1.66597,-2.593 2.74248,-3.1054c2.28384,-1.08707 5.62497,1.85772 4.93496,4.15395l-0.18309,0.73223c0,0 -0.17103,0.65463 -0.68873,0.87061c0.25209,0.12516 0.50098,0.25376 0.74637,0.38609l0.33389,0.06264c0,0 1.0373,0.28827 0.91523,1.46706c0.68597,0.46908 0.4465,1.63999 0.4465,1.63999c-1.36154,6.43261 -5.1118,13.59933 -9.0206,19.25067l-1.3961,1.34017c0,0 -0.19741,0.17438 -0.48698,0.33081c-0.27828,0.56758 -0.71054,0.94936 -0.71054,0.94936l-0.09409,0.04022c-0.01792,0.02843 -0.03584,0.05689 -0.05375,0.08532zM308.49994,253.64429c1.53038,0.82789 2.89033,1.15774 4.05079,-0.29924c0.00726,-0.16459 0.01784,-0.33013 0.03125,-0.49635c-0.03284,-0.0809 -0.04725,-0.16533 -0.04878,-0.24943c-1.453,-0.16204 -2.90234,-0.35425 -4.35775,-0.53047c0.12103,0.71929 0.26435,1.54296 0.32451,1.5755zM314.15136,253.7047c-0.00756,0.01201 -0.01571,0.025 -0.02445,0.03888l-0.00349,0.00884zM322.82911,225.64809l0.27025,-1.00294c0.29255,-0.45101 -1.85039,-2.06076 -2.54553,-2.32305c-0.58341,-0.22012 -1.63711,1.35924 -2.14135,2.13534c1.51486,0.48181 2.99318,1.01838 4.38914,1.64643c-0.03071,-0.23301 0.0275,-0.45578 0.0275,-0.45578zM313.53942,222.50801l0.11812,-0.19917c-0.1907,-3.51574 -2.2907,-1.81589 -3.95554,-0.25479c1.25008,0.3411 2.53577,0.6717 3.82993,1.01351c-0.06931,-0.26572 0.00748,-0.55957 0.00748,-0.55957zM299.44835,231.89862c-4.84425,1.10626 -6.93201,6.55851 -4.11184,9.7375c0.55914,0.06062 0.88305,0.50023 0.88305,0.50023c1.04294,1.42896 1.71328,3.03172 2.77834,4.42344l0.89855,1.19031c4.70463,-0.24481 9.16432,0.50804 13.66124,1.00854c0.2755,-0.49611 0.64351,-0.82115 0.64351,-0.82115l0.52726,-0.35868c3.38272,-4.88419 6.91886,-11.34775 8.10165,-16.95174l-0.42033,-0.13235c-4.44498,-2.43372 -10.23917,-3.58334 -15.21063,-4.94152c0,0 -0.13437,-0.03733 -0.30068,-0.14009c-2.21769,1.97742 -3.94349,4.16059 -6.07531,5.52923c-0.54042,0.76336 -1.37484,0.95631 -1.37484,0.95631z" fill="#343434"></path>
            <g>
              <path d="M293.04569,240.78634c0.77901,-0.46971 0.65057,-1.8101 1.07508,-2.68609c0.43066,-0.88865 2.89232,-5.90579 2.35388,-6.59183c-0.14511,-0.18492 -1.79311,-0.07527 -2.97382,0.01045c-0.03287,0.14654 -0.06647,0.2925 -0.1011,0.43769c-0.04803,-0.13732 -0.07062,-0.28113 -0.07527,-0.42484c-0.47401,0.03465 -0.84779,0.06221 -0.9752,0.05906c0,0 -0.60101,-0.01485 -0.95909,-0.45801c-5.14599,-0.72693 -10.333,-1.28804 -15.46303,-2.11547c-12.32983,-1.98975 -24.70298,-3.80121 -37.04408,-5.74006c-0.26698,0.00379 -0.44414,-0.05286 -0.44414,-0.05286c-0.02729,-0.00877 -0.05763,-0.01924 -0.09074,-0.03125c-0.08311,-0.01308 -0.16622,-0.02617 -0.24932,-0.03927c0.00501,-0.01732 0.00975,-0.03452 0.01421,-0.0516c-0.91575,-0.36838 -2.84812,-1.25388 -3.485,-0.98732c-0.64381,0.26944 -1.95804,3.70079 -2.192,4.31112c-1.55825,4.06493 -2.29666,5.92891 1.5069,5.9754l0.32927,0.07128c0.04732,-0.05066 0.10439,-0.1155 0.16487,-0.19235c12.90556,1.01035 24.98885,4.50499 38.10916,4.8154c5.54057,0.89695 11.24371,1.51798 16.71933,2.61235l0.85185,0.36837c-0.06085,0.13784 -0.12129,0.27587 -0.18128,0.4141c1.17753,0.21365 2.75868,0.50729 3.10954,0.29575zM299.36471,228.67149c1.66002,2.52464 -1.53907,9.54626 -3.24855,12.41668c-0.58622,0.98434 -1.05423,2.23091 -1.94979,2.83234c-1.6816,1.12934 -4.80729,0.25643 -6.45133,0.21688l-1.71504,-0.04237c0,0 -1.14419,-0.02826 -1.21571,-1.1709c-4.4342,-0.7641 -8.9903,-1.29255 -13.41787,-2.00446c-12.40245,-0.3191 -23.88517,-3.46265 -36.0173,-4.63733c-0.64893,0.39196 -1.27365,0.24615 -1.27365,0.24615l-1.13427,-0.29282c-2.22753,-0.0765 -4.96554,-0.31461 -5.46782,-3.13016c-0.152,-0.852 0.36873,-1.89865 0.58693,-2.84917c0.75608,-3.29364 2.62665,-9.88024 6.05908,-11.62983c1.57073,-0.80062 4.3343,0.3127 5.80792,0.80827c12.4375,1.97376 24.92196,3.77439 37.35414,5.78067c5.69925,0.92028 11.46837,1.51079 17.17519,2.36459c-0.01766,0.0531 -0.03498,0.10634 -0.052,0.15967c1.74545,-0.05834 4.23722,-0.16752 4.96004,0.93181z" fill="#343434"></path>
              <path d="M289.98461,240.50744c0.06001,-0.13824 0.02321,-0.3092 0.08404,-0.44704l-0.75417,-0.33634c-5.47562,-1.09436 -11.18527,-1.70364 -16.72585,-2.60059c-13.1203,-0.31041 -25.30079,-3.83113 -38.20638,-4.84149c-0.06048,0.07684 -0.00778,0.13813 -0.05508,0.1888l-0.43908,-0.06753c-3.80354,-0.04649 -3.06225,-1.92054 -1.50399,-5.98547c0.23395,-0.61031 1.55117,-4.04902 2.19496,-4.31846c0.6369,-0.26655 2.66725,0.65036 3.58298,1.01874c-0.00449,0.01708 -0.00919,0.03419 -0.01419,0.0515c0.08311,0.01309 0.06829,-0.00532 0.15139,0.00777c0.03313,0.01201 0.06345,0.02248 0.09074,0.03125c0,0 0.1772,0.05649 0.44418,0.05271c12.34111,1.93885 24.81948,3.755 37.14932,5.74476c5.13004,0.82743 10.3153,1.39921 15.46129,2.12615c0.35807,0.44317 0.95887,0.45891 0.95887,0.45891c0.1274,0.00315 0.50123,-0.02455 0.97523,-0.05919c0.00467,0.1437 -0.0814,0.28634 -0.03338,0.42365c0.03465,-0.14521 0.06802,-0.29035 0.10091,-0.4369c1.18069,-0.08571 2.93759,-0.19503 3.08269,-0.0101c0.53842,0.68604 -1.92676,5.71427 -2.35743,6.60292c-0.42452,0.87599 -0.298,2.22086 -1.077,2.69057c-0.35083,0.21155 -1.93254,-0.08096 -3.11006,-0.29461z" fill="#434343"></path>
            </g>
            <path d="M322.84235,226.13394c-1.39597,-0.62805 -2.968,-1.20014 -4.48285,-1.68195c0.50424,-0.77609 1.60204,-2.40799 2.18546,-2.18787c0.69515,0.26228 2.90182,1.92826 2.60925,2.37927l-0.27951,1.02698c0,0 -0.06307,0.23055 -0.03239,0.46356z" fill="#888888"></path>
            <path d="M313.57653,223.09171c-1.29417,-0.34182 -2.6778,-0.70064 -3.92787,-1.04175c1.66484,-1.56111 3.872,-3.25431 4.06269,0.26145l-0.12028,0.20587c0,0 -0.08385,0.30873 -0.01455,0.57443z" fill="#888888"></path>
            <path d="M299.40316,231.87558c0,0 0.83816,-0.19892 1.37858,-0.96228c2.13182,-1.36864 3.88634,-3.57874 6.10404,-5.55615c0.16631,0.10276 0.30184,0.13944 0.30184,0.13944c4.97147,1.35819 10.83291,2.53599 15.27792,4.96972l0.42054,0.13369c-1.1828,5.60399 -4.75107,12.14298 -8.1338,17.02717l-0.52963,0.36052c0,0 -0.37143,0.32748 -0.64694,0.82359c-4.49691,-0.5005 -9.02028,-1.25544 -13.72489,-1.01062l-0.90267,-1.19605c-1.06506,-1.39171 -1.74219,-3.01774 -2.78513,-4.4467c0,0 -0.32405,-0.44288 -0.88318,-0.50351c-2.82018,-3.17899 -0.72095,-8.67258 4.12329,-9.77884z" fill="#434343"></path>
            <path d="M300.65394,243.12504c-2.57136,-3.36189 7.7657,-8.51912 6.76896,-1.83021c-0.6577,4.41382 -6.20533,5.49047 -6.76896,1.83021zM302.61891,243.12372c0.81807,0.9072 2.93069,0.08393 3.12819,-1.6173c0.27915,-2.40445 -2.40404,-1.58839 -3.36376,-0.60153c0.14148,0.28824 0.0381,0.68394 0.0381,0.68394l-0.11462,0.34531c-0.00028,0.00359 -0.00058,0.00719 -0.00086,0.01078c0.03748,0.02372 0.07941,0.04615 0.12599,0.06721c0,0 0.56961,0.34824 0.18698,1.11159z" fill="#343434"></path>
            <path d="M304.91214,252.33682c0,0 0.01122,0.08233 0.05191,0.18117c-2.08075,1.67619 -3.61394,0.39146 -4.78786,-0.98416c1.60206,-0.03135 3.28542,0.05197 4.84622,0.18809l-0.11029,0.61491z" fill="#888888"></path>
            <path d="M308.44393,253.67084c-0.06015,-0.03254 -0.19622,-0.89897 -0.31724,-1.61827c1.45542,0.17623 3.00898,0.38007 4.46195,0.54211c0.00151,0.08409 0.01455,0.1747 0.04739,0.25559c-0.01338,0.16623 -0.02776,0.34286 -0.03501,0.50745c-1.16046,1.45699 -2.62674,1.14099 -4.15711,0.3131z" fill="#888888"></path>
            <path d="M322.79662,225.06139c0.24209,0.80868 -0.57251,1.3237 -0.57251,1.3237l-0.48909,0.16111c0.4627,3.89106 -2.12893,11.96297 -6.98255,11.15799c-5.11613,-1.10644 -9.90019,-3.3579 -15.17627,-4.25591c-1.44811,0.22519 -2.93474,0.26026 -4.48399,0.47384c0,0 -0.68434,0.09434 -0.7192,-0.58802c-1.75924,-0.02881 -3.51221,0.0127 -5.26886,0.00114c-0.49115,0.82278 -1.14871,0.51631 -1.14871,0.51631l-0.29813,-0.25861c-6.52869,0.79221 -13.23031,-1.59176 -19.2257,-2.80336c-5.95587,-1.22447 -12.38512,-1.13995 -18.37564,-2.24372c-0.41229,0.31825 -0.81837,0.12899 -0.81837,0.12899l-0.91363,-0.43211c-0.33521,-0.05235 -0.67042,-0.10471 -1.00562,-0.15707c-5.46316,-1.27693 -10.84523,-2.93269 -16.33151,-4.04217c0,0 -0.00234,-0.00048 -0.00677,-0.00154c-0.08577,0.01272 -0.16917,0.01057 -0.24718,-0.00631l-0.81082,-0.16396l0.00904,-0.02361l-0.04817,0.01433c-0.3975,-0.13714 -0.79414,-0.27464 -1.19039,-0.41184c-0.92604,0.00077 -1.70953,-0.51272 -2.71052,-0.85956c-1.61179,-0.55848 -3.27886,-0.97248 -4.94381,-1.41266c-0.02599,0.03579 -0.05318,0.07191 -0.08154,0.10832l0.00001,-0.00001c-1.26511,1.62326 -2.40015,0.60252 -2.40015,0.60252l-0.40841,-0.37541c-1.87778,-1.39818 -4.23126,-1.58187 -6.52176,-2.17303c-6.05748,-1.56336 -11.68696,-3.87133 -18.55676,-2.91905c0,0 -1.67867,0.23142 -1.41254,-1.67209c0.26613,-1.90351 1.94482,-2.13491 1.94482,-2.13491c7.27218,-0.99729 13.19377,1.31791 19.60466,2.97154c2.59776,0.67007 5.12866,0.99207 7.29024,2.53403l0.58996,0.52241c0,0 0.1624,0.14605 0.29587,0.41551c1.74965,0.4285 3.45392,0.94653 5.14454,1.50391c0.18796,0.06033 0.37491,0.12238 0.56073,0.1864c0.97522,0.32671 1.94706,0.6647 2.9216,1.00434l0.00551,-0.01275l1.46742,0.40782c0.13674,-0.01536 0.22991,0.00347 0.22991,0.00347c5.48615,1.10945 10.8617,2.76733 16.32539,4.04094c0.3746,0.06219 0.74927,0.1244 1.12388,0.18658l0.49839,0.22933c0.27306,-0.11962 0.51033,-0.07165 0.51033,-0.07165c6.1536,1.26505 12.80813,1.12941 18.98684,2.36086c5.599,1.13318 12.30168,3.7134 18.45867,2.83867c0.32852,-0.34691 0.74556,-0.3366 0.74556,-0.3366c2.34438,0.0579 4.67316,-0.0301 7.02045,0.02788l0.98002,0.0242c0,0 0.15484,0.00383 0.30843,0.08793c0.33501,-0.4138 0.80303,-0.40224 0.80303,-0.40224l0.89878,0.02689c1.28777,-0.26069 2.74072,-0.31009 4.03834,-0.84117c0.87015,-0.35614 1.72085,-0.94247 2.54908,-1.65957l0.14611,-0.18786c0.07392,-0.44614 0.45779,-0.7852 0.45779,-0.7852c0.7585,-0.66995 1.53513,-1.29533 2.2591,-1.98284c0.54733,-0.63069 1.08152,-1.26753 1.6014,-1.87478l-0.08115,-0.03782l0.69757,-1.27413c0.07535,-0.14284 0.17782,-0.27653 0.30402,-0.38798c0.41494,-0.3665 0.92913,-0.3538 1.14847,0.02837c0.13159,0.22927 0.12716,0.53943 0.01297,0.83005l-0.38272,0.99814l-0.04805,-0.00972l-0.00615,0.13241c-0.42918,0.68351 -0.89155,1.28293 -1.38135,1.8348c-0.4599,0.64037 -1.06386,1.26671 -1.57012,1.79063c-0.30721,0.31793 -0.61163,0.61645 -0.91417,0.89706c-0.02615,0.49468 -0.46883,0.88568 -0.46883,0.88568c-0.55407,0.48676 -1.13193,0.93642 -1.72353,1.34368c-0.59244,0.56301 -1.18625,1.00539 -1.78333,1.35571c4.1373,1.11522 8.08589,2.82837 12.25051,3.59245c1.04888,0.27845 1.55087,-0.38437 2.40912,-1.41248c2.60704,-3.12296 1.77324,-5.08694 2.56962,-8.67247l1.28317,-0.95935c0,0 0.81462,-0.51503 1.0567,0.29367z" fill="#1f1f1f"></path>
            <path d="M312.85922,251.05583c-0.81209,-0.02007 -0.56164,-0.97861 -0.56164,-0.97861l0.31543,-0.95435c2.1867,-3.45412 1.72862,-5.541 1.29629,-8.71173c-1.68682,-1.81032 -4.26429,-1.10328 -6.70511,-0.99427c-2.32241,0.10374 -4.58328,0.36078 -6.83396,0.51004c0.15125,0.18841 0.29705,0.38404 0.4372,0.58613c0.03359,0.02904 0.06706,0.05826 0.10042,0.08765c0,0 0.15583,0.14014 0.21316,0.39034c1.50602,2.42672 2.24486,5.62441 1.87828,8.42902l0.25088,0.04258c0,0 0.39715,0.69198 -0.35417,1.35559l-0.00001,0.00001c-0.75132,0.66361 -1.14847,-0.02837 -1.14847,-0.02837l-0.42692,-1.1384c0.15152,-0.99599 0.11436,-2.08527 -0.08242,-3.17427c-0.08332,0.04195 -0.1772,0.07516 -0.28293,0.09621l-0.00002,0.00004c-0.84543,0.16833 -0.75912,-0.77555 -0.75912,-0.77555l0.06674,-0.53518c-0.14131,-1.45688 -0.54511,-2.59233 -1.14102,-3.4888c-1.3525,-1.10548 -2.92328,-1.93495 -4.55209,-2.70658c-0.28023,0.01636 -0.56546,0.06074 -0.85494,0.13551c0,0 -0.84858,0.21302 -0.80258,-0.72178c0.00137,-0.02818 0.00351,-0.05571 0.0063,-0.08259c-0.92559,-0.19813 -1.87386,-0.35994 -2.80346,-0.53387c-0.30965,0.19234 -0.6116,0.14362 -0.6116,0.14362l-1.02113,-0.16632c-3.76152,-0.09292 -7.75038,0.87222 -11.32888,0.14854c-5.83994,-1.20063 -12.58491,-4.2037 -18.97756,-3.36965c-5.55398,-1.06215 -11.4037,-0.94249 -16.66474,-2.7463c-0.21542,0.01966 -0.37015,-0.05246 -0.37015,-0.05246l-0.9062,-0.4299c-1.56656,-0.20826 -2.95354,-0.48794 -4.58211,-0.53403c-5.08637,-1.44717 -10.76909,-1.76299 -16.07399,-2.77476c-0.82862,1.17821 -1.97476,0.85968 -1.97476,0.85968l-1.06533,-0.2993c-8.88137,-1.79613 -18.8554,-3.39871 -26.60259,-7.60619c0,0 -1.33613,-0.72565 -0.28559,-2.50056c1.05054,-1.77492 2.38665,-1.04928 2.38665,-1.04928c7.5452,4.09778 17.30474,5.62281 25.95258,7.37171l1.2336,0.3396c0,0 0.72471,0.20141 0.89135,0.95589c5.34311,1.04217 11.03309,1.39603 16.19658,2.79937c1.6868,0.03476 3.12904,0.34548 4.74643,0.56957l0.97381,0.44697c0.17034,-0.01192 0.2889,0.02916 0.2889,0.02916c5.17755,1.794 10.93452,1.52864 16.35649,2.70367c6.44574,-0.94266 13.31489,2.22122 19.20223,3.39458c3.51555,0.71094 7.49058,-0.25979 11.1933,-0.16834l0.29324,0.04691c0.33297,-0.22857 0.66986,-0.16043 0.66986,-0.16043c0.75464,0.15261 1.5175,0.29474 2.27345,0.4459l0.81861,-0.12575c0.42292,0.19709 0.84578,0.39212 1.26672,0.5881c0.57374,0.14535 1.13451,0.30748 1.67498,0.49586c0.8199,0.12484 1.58846,0.42993 2.2943,0.87593c5.52788,-0.27432 13.59712,-2.87776 17.10597,1.09981c0.67584,3.76221 1.03228,6.58496 -1.5609,10.71866l0.01319,0.20242c0,0 -0.25045,0.95855 -1.06254,0.93848z" fill="#1f1f1f"></path>
            <path d="M302.95268,234.02471c-4.02729,-2.0112 2.8507,-8.04426 5.5931,-5.80856c1.69286,1.38007 0.38011,5.46213 -1.97746,6.62493c-1.15266,0.56852 -2.28824,0.01704 -3.19859,-0.29699zM303.77647,232.19638c0.17414,0.00022 0.30647,0.07887 0.39542,0.15765c0.09806,0.07797 0.20703,0.20606 0.24121,0.40327c0.48836,0.20134 1.33295,0.61291 1.87686,0.35114c0.91481,-0.44028 1.85221,-2.63143 1.08147,-3.19553c-1.28505,-0.9405 -5.06709,1.76134 -3.59496,2.28347z" fill="#343434"></path>
            <g>
              <path d="M308.84901,240.42609c-0.01935,-0.02596 -0.03804,-0.05453 -0.05602,-0.08585c-0.39715,-0.69198 0.35417,-1.35559 0.35417,-1.35559l1.01905,-0.79001c1.32092,-0.43772 2.20335,-0.64079 3.23314,-0.59684c-0.84174,-0.9406 -1.27997,-2.20683 -0.89991,-3.38279c-0.17375,-0.29004 -0.06021,-0.72465 -0.06021,-0.72465l0.38822,-0.8603c1.80976,-1.96113 3.141,-2.58111 5.29176,-2.87229c3.77318,0.16558 4.03699,6.74066 -0.31165,8.94844c-0.84027,0.42661 -1.74761,0.42222 -2.57623,0.13306c0.07939,0.20808 0.14048,0.42621 0.18442,0.65193c1.62174,1.34383 -0.14846,5.01005 -2.2082,6.19379c-0.03105,0.01785 -0.06199,0.0348 -0.09277,0.05088c-1.10857,0.97345 -2.48961,1.38198 -3.89032,0.65522c-2.50821,-1.3014 -2.322,-4.2082 -0.37543,-5.96501zM310.44741,242.20992c0.35494,0.05781 0.47484,0.4583 0.47484,0.4583l0.16061,0.6706c0.28118,0.14703 1.01518,0.7932 1.4913,0.76582c0.76342,-0.75491 1.31909,-1.96755 1.38231,-3.02063c-0.86483,-0.09001 -2.96174,0.41467 -3.50901,1.12589zM314.75788,234.20285c0.00058,-0.00011 0.00114,-0.00023 0.00172,-0.00035c0.84543,-0.16833 0.75912,0.77554 0.75912,0.77554l-0.327,0.01915c0.00219,0.00908 0.00427,0.01831 0.00622,0.02771c0.52887,0.33852 1.36031,1.12115 2.11301,0.86873c0.9346,-0.31344 2.335,-2.16378 1.53559,-2.90145c-0.90603,-0.83606 -4.00228,0.29334 -4.08868,1.21065z" fill="#343434"></path>
              <path d="M310.39313,242.20914c0.54727,-0.71121 2.74988,-1.25692 3.6147,-1.16692c-0.0632,1.05309 -0.66901,2.36857 -1.43242,3.12347c-0.47613,0.02737 -1.26374,-0.64021 -1.54494,-0.78724l-0.16482,-0.69519c0,0 -0.11759,-0.41631 -0.47252,-0.47412z" fill="#888888"></path>
              <path d="M314.70281,234.20548c0.08641,-0.91731 3.29211,-2.08336 4.19817,-1.2473c0.7994,0.73767 -0.64816,2.68073 -1.58277,2.99416c-0.75269,0.25242 -1.64724,-0.56131 -2.17611,-0.89983c-0.00195,-0.0094 0.1078,-0.07299 0.10561,-0.08206l0.21587,0.03876c0,0 0.08637,-0.97239 -0.75905,-0.80407c-0.00058,0.00012 0.10902,-0.00506 0.10844,-0.00494z" fill="#888888"></path>
              <path d="M301.25565,243.90304c-0.23167,0.04857 -0.40814,-0.01258 -0.40814,-0.01258c-3.7421,-1.61247 1.32131,-7.72624 4.46698,-6.8714c4.78205,1.29951 1.98334,9.59999 -3.1389,7.92291l-0.6918,-0.56235c0,0 -0.19188,-0.17258 -0.22814,-0.47659zM302.15364,242.61577c0.34896,-0.0809 0.59527,0.14059 0.59527,0.14059l0.30653,0.33547c3.12567,1.16609 4.27959,-3.384 1.5045,-4.18687c-1.34563,-0.38931 -4.73323,2.76912 -2.8326,3.13536c0,0 0.39273,0.13609 0.4263,0.57544z" fill="#343434"></path>
              <path d="M301.67071,242.05976c-1.90065,-0.36624 1.563,-3.60786 2.90863,-3.21855c2.77511,0.80287 1.57467,5.47909 -1.551,4.313l-0.32062,-0.34288c0,0 -0.25721,-0.23611 -0.60614,-0.15521c-0.03357,-0.43936 -0.43085,-0.59636 -0.43085,-0.59636z" fill="#888888"></path>
              <path d="M303.4191,231.22241c0.34652,0.43192 -0.08278,1.11336 -0.08278,1.11336c-1.51912,1.82846 1.96136,2.20556 3.07943,1.5167c3.28993,-2.02704 1.33509,-5.80685 -1.91502,-3.80534c-0.21486,0.26224 -0.42971,0.52448 -0.64457,0.78672zM301.94139,231.72933c-0.03782,-0.04026 -0.07378,-0.08893 -0.10724,-0.14722c-0.39715,-0.69198 0.35417,-1.35559 0.35417,-1.35559l0.72929,-0.63909c0.26293,-0.30808 0.52587,-0.61617 0.78878,-0.92425c1.481,-0.94938 3.39693,-1.86514 4.73796,-1.1207c2.42443,1.34589 1.2935,6.10967 -1.53282,7.91996c-2.96773,1.90088 -6.91801,0.0538 -4.97013,-3.73313z" fill="#343434"></path>
              <path d="M303.81468,230.80482c0.21486,-0.26224 0.44674,-0.54332 0.66159,-0.80556c3.25012,-2.00151 5.25333,1.87446 1.96341,3.90149c-1.11807,0.68887 -4.67868,0.27294 -3.15956,-1.55552c0,0 0.43738,-0.70841 0.09083,-1.14033z" fill="#888888"></path>
              <path d="M307.35884,233.48065c-0.56751,-0.51037 0.06506,-1.322 0.06506,-1.322l0.20669,-0.19306c0.23918,-0.52855 0.38817,-1.0988 0.42646,-1.63231c0,0 0.08632,-0.94387 0.93173,-1.11218c0.84542,-0.16832 0.75912,0.77555 0.75912,0.77555c-0.08232,0.78463 -0.29684,1.60565 -0.62293,2.38426l-0.56608,0.79848c0,0 -0.63257,0.81162 -1.20009,0.30126z" fill="#343434"></path>
            </g>
          </g>
        </g>
      </g>
      <g>
        <path d="M153.55716,209.28329z" fill="#ff9500" stroke-width="0"></path>
        <path d="M176.63464,204.43888c0.22732,0.20794 0.37814,0.42101 0.47257,0.63068c0.30685,-0.24153 0.85844,-0.54624 1.50238,-0.31217c0.2244,-0.47722 0.61311,-0.75666 0.61311,-0.75666c0.67955,-0.48854 1.3591,-0.97708 2.03865,-1.46562l1.56956,-0.70879c0,0 1.56594,-0.66205 2.20224,0.9673c0.30618,0.78402 0.10244,1.34409 -0.19137,1.71419c0.1189,0.2159 0.2015,0.48916 0.22287,0.8349c0.10845,1.7551 -1.57835,1.86793 -1.57835,1.86793l-0.23847,0.00518c-0.50269,0.09241 -1.00538,0.1848 -1.50808,0.27721c-0.15516,0.21889 -0.30091,0.44437 -0.43559,0.67638c0,0 -0.89219,1.49376 -2.32784,0.56545c-0.10679,-0.06905 -0.20067,-0.14122 -0.28301,-0.21567c-0.55873,0.76839 -1.22956,1.81377 -1.67837,2.83432c0.12023,0.39886 0.24045,0.79774 0.36069,1.1966c0,0 0.21932,0.76193 -0.12947,1.41446l0.59721,0.70095c0.38707,-0.0705 0.72746,0.03958 0.99079,0.18928c0.37585,-0.03305 0.73646,-0.15021 1.09164,-0.29881l0.40906,-1.05985c0.32947,-0.38991 2.47913,-2.95973 2.72493,-3.1282c1.65034,-1.13122 3.24076,-0.56368 4.59587,-2.22084c1.49859,-1.83262 2.612,-6.33396 0.68831,-8.30358c-1.68049,-1.72059 -4.30562,-1.73833 -6.46533,-1.84087c0,0 -0.58902,-0.0285 -1.05508,-0.41379c-1.81665,1.29707 -4.01579,1.41293 -6.03657,2.52212c-3.72015,2.04194 -9.07988,5.72681 -10.69432,9.85974c0,0 -0.50718,1.25009 -1.68588,1.09066c-0.02515,0.30504 -0.10384,0.52095 -0.10384,0.52095l-0.91025,2.49786c0,0 -0.31222,0.85676 -1.08029,1.09899c-0.1366,0.25572 -0.27243,0.51187 -0.40778,0.76825c0,0 -0.47787,0.90471 -1.36755,0.94691c-0.07716,0.14906 -0.15251,0.29896 -0.22611,0.44951c0,0 -0.4499,0.90753 -1.32868,0.98285c-0.18364,0.42563 -0.32617,0.86801 -0.44383,1.34177l0.0275,-0.01305c0.00193,0.03434 0.00396,0.06869 0.00604,0.10305l0.12605,-0.00458c0,0 0.29066,0.74429 -0.00437,1.43119c0.0916,0.85237 0.2138,1.70895 0.3472,2.56566c0.20807,0.07211 0.406,0.18781 0.58104,0.34795c0.18179,0.16629 0.32104,0.36417 0.41687,0.57881c0.46895,-0.48959 1.15609,-0.53556 1.15609,-0.53556l1.6317,-0.10786c2.28513,-0.32634 3.82793,-0.38555 5.32708,-2.27841c0,0 1.11607,-1.32083 2.3855,-0.15957c1.26943,1.16126 0.15336,2.48209 0.15336,2.48209c-2.22393,2.52494 -4.32077,2.96974 -7.51975,3.45486l-1.761,0.1191c0,0 -0.94613,0.0633 -1.46677,-0.64221c0.00468,0.12097 0.00657,0.2421 0.00532,0.36289c0.11028,0.062 0.21564,0.13782 0.31379,0.2276c0.24636,0.22537 0.41463,0.50877 0.50251,0.81322l0.52469,1.70913c0.87609,3.07111 2.3154,3.16733 5.14107,2.97357c0,0 0.08587,-0.00575 0.22014,0.00552c0.16926,-0.11664 0.29862,-0.17133 0.29862,-0.17133l0.74448,-0.30916c1.56618,-0.50895 3.56653,-1.3878 5.07808,-1.15242c0.12286,-0.10866 0.2577,-0.19636 0.39986,-0.26278l1.99702,-0.9902c0.13328,-0.07 0.27396,-0.12067 0.41801,-0.15172c1.97681,-1.15382 4.19588,-1.74713 6.03644,-2.8174c-0.05211,-0.03777 -0.10271,-0.07898 -0.15153,-0.12364c-0.57104,-0.52238 -0.72252,-1.35652 -0.42599,-2.04217l0.72395,-1.78441l0.05132,0.02255c0.00161,-0.04907 0.00326,-0.09812 0.00487,-0.14718l0.66911,-1.12689c0.02387,-0.07164 0.05548,-0.15505 0.09656,-0.24397c-0.18718,0.12293 -0.42307,0.21751 -0.71999,0.26573c-1.67006,0.27127 -1.93077,-1.46641 -1.93077,-1.46641l-0.23556,-1.96743c-0.14055,-0.16442 -0.28109,-0.32883 -0.42164,-0.49325c-0.02577,-0.00756 -0.05149,-0.01529 -0.07718,-0.02313c-1.09893,0.69689 -2.04642,-0.36149 -2.04642,-0.36149c-1.34835,-1.50618 -2.69619,-3.01282 -4.04352,-4.51998l-1.30647,-1.19514c-0.70109,-0.64135 -0.76975,-1.75262 -0.15336,-2.48209c0.53113,-0.62858 1.39763,-0.76857 2.07571,-0.38491l0.58446,0.31368c0.39891,-1.26815 0.79782,-2.53628 1.19671,-3.80442l0.73383,-1.08382c0,0 1.11607,-1.32083 2.3855,-0.15957zM194.05191,199.90578c0.93795,2.90061 0.63413,7.78549 -0.91193,10.35805c-0.55245,0.91924 -3.14085,2.85264 -3.3163,4.06641c-0.24539,1.69757 0.79562,3.90654 0.59982,5.80904c-0.33137,3.2199 -1.87066,4.99008 -3.00564,7.78758c-1.39622,1.6803 -2.25112,3.43791 -4.04027,4.73737c-4.96009,3.60255 -10.47767,3.31129 -16.14967,4.42121c-3.41488,0.66822 -6.94051,3.41045 -9.93037,-0.31459c-0.36055,-0.44921 -0.48195,-1.04247 -0.62303,-1.62386l-0.96233,-0.64148c-3.43254,-4.2275 -7.29358,-12.42136 -5.61221,-18.13064c0.82736,-2.80942 3.04185,-4.79118 4.85697,-6.9388c-1.87998,-1.64934 -3.73815,-3.62281 -3.84131,-5.95853c-0.12521,-2.83465 1.9229,-4.56061 3.50422,-6.42774c1.4816,-1.74939 3.1668,-2.76314 4.81235,-4.24893c3.6783,-3.32117 6.7575,-6.98696 10.84425,-9.92775c1.51349,-1.0121 3.30711,-2.52677 5.18259,-2.95861c0.63284,-0.83152 1.73349,-0.52987 1.73349,-0.52987l0.87658,0.25852c0.30442,0.13748 0.63215,0.31848 0.97383,0.53659c2.41219,0.84706 4.11314,2.9784 5.12632,5.48574c0.64448,1.18517 1.02609,2.39991 0.94911,3.51053c0.15171,1.00373 0.20714,2.00314 0.16752,2.94952l-0.06894,0.10687l0.05229,0.00994l-0.01354,0.0771c2.99634,2.44463 7.46109,3.45738 8.79622,7.58628zM181.28264,220.0579c0,0 0.07405,0.49362 -0.10963,0.99576c0.37873,-0.36732 1.08133,-0.78436 2.01262,-0.18216c0.7188,0.46479 0.85405,1.07133 0.80991,1.56117l0.30949,-0.34013c0.29527,-0.49438 0.59056,-0.98875 0.88583,-1.48314c-0.02814,-0.18238 -0.05758,-0.528 0.03792,-0.88866c-0.17292,-2.03938 -0.19778,-4.08401 -0.7793,-6.017c-0.20602,0.21043 -0.3898,0.44672 -0.56499,0.6932c0.16458,0.23394 0.28305,0.54907 0.30926,0.97337c0.10847,1.7551 -1.57833,1.86797 -1.57833,1.86797l-0.01825,-0.05139c-0.20798,0.06913 -0.93951,0.31612 -1.70821,0.56753zM173.23,196.98875c1.6341,-0.88492 3.57558,-1.02888 5.17852,-1.88402c3.52155,-1.87872 2.31856,-5.99089 -0.42746,-7.71715c-2.52886,-1.26798 -5.16663,0.86446 -7.20931,2.44497c-4.67413,3.6166 -8.1709,7.36092 -11.97879,11.86743l-1.25563,0.73128c0,0 -0.1154,0.04879 -0.29628,0.08729l-0.19721,0.81299c1.05079,2.1108 2.5507,2.86919 4.62369,3.77229c0,0 0.01605,0.00705 0.04418,0.0214c2.46007,-4.27743 7.46615,-7.94215 11.51825,-10.13647z" fill="#6b6b6b" stroke-width="0.5"></path>
        <path d="M173.28618,196.98453c-4.0521,2.19432 -9.14975,5.90892 -11.60982,10.18635c-0.02814,-0.01436 -0.04435,-0.02154 -0.04435,-0.02154c-2.07299,-0.90311 -3.58829,-1.68193 -4.63908,-3.79273l0.19612,-0.81553c0.18089,-0.0385 0.29635,-0.08713 0.29635,-0.08713l1.25533,-0.73206c3.80789,-4.50651 7.36796,-8.33021 12.04209,-11.94681c2.04268,-1.58051 4.70729,-3.69885 7.23616,-2.43087c2.746,1.72625 3.96601,5.86862 0.44446,7.74736c-1.60294,0.85515 -3.54313,1.00806 -5.17722,1.89297z" fill="#b7b7b7" stroke-width="0.5"></path>
        <path d="M180.8337,217.743c0.7687,-0.25141 1.51313,-0.52561 1.72111,-0.59474l0.01772,0.05205c0,0 1.73535,-0.13322 1.62689,-1.88832c-0.02623,-0.42429 -0.1506,-0.73971 -0.31518,-0.97365c0.1752,-0.24648 0.36606,-0.48234 0.57208,-0.69277c0.5815,1.93298 0.63994,4.07671 0.81285,6.11609c-0.09551,0.36066 -0.07743,0.71565 -0.04929,0.89802c-0.29527,0.49438 -0.61326,0.99675 -0.90854,1.49113l-0.31445,0.34049c0.04414,-0.48983 -0.1086,-1.09883 -0.8274,-1.56362c-0.93129,-0.60221 -1.65875,-0.20113 -2.03747,0.1662c0.18367,-0.50213 0.10266,-1.00519 0.10266,-1.00519z" fill="#b7b7b7" stroke-width="0.5"></path>
        <path d="M175.36553,205.86133c-1.68168,-0.17724 -1.84066,1.57311 -1.84066,1.57311l-0.22438,2.63387l-1.5476,-0.84001c-0.67808,-0.38366 -1.53019,-0.25155 -2.06133,0.37703c-0.61639,0.72948 -0.53791,1.83125 0.16317,2.4726v0l1.30678,1.19477c1.34733,1.50716 2.62248,2.92627 3.97083,4.43244c0,0 0.93107,1.07426 2.03001,0.37737c0.02568,0.00785 0.14326,0.08349 0.16903,0.09105c0.14055,0.16442 0.28007,0.33029 0.42062,0.4947l0.22694,1.97692c0,0 0.18514,1.65078 1.85519,1.37952c0.29692,-0.04822 0.52975,-0.13947 0.71693,-0.26241c-0.04107,0.08892 0.01074,0.25113 -0.01314,0.32278l-0.67464,1.13229c-0.00161,0.04906 -0.00368,0.09849 -0.00531,0.14755l-0.05144,-0.02244l-0.73134,1.7896c-0.29653,0.68566 -0.19808,1.41638 0.37296,1.93876c0.04882,0.04466 0.1504,0.19044 0.2025,0.22821c-1.84056,1.07028 -4.08672,1.66999 -6.06354,2.82381c-0.14406,0.03105 -0.28639,0.08165 -0.41968,0.15165l-2.00419,0.9893c-0.14217,0.06642 -0.27823,0.15386 -0.4011,0.26252c-1.51154,-0.23538 -3.52583,0.63837 -5.09202,1.14732l-0.74588,0.30838c0,0 -0.12984,0.05441 -0.2991,0.17105c-0.13425,-0.01127 -0.22064,-0.00582 -0.22064,-0.00582c-2.82567,0.19376 -4.27804,0.08688 -5.15414,-2.98422l-0.52765,-1.71264c-0.08789,-0.30445 -0.25778,-0.59006 -0.50415,-0.81543c-0.09815,-0.08979 -0.20412,-0.16649 -0.3144,-0.22848c0.00125,-0.12079 0.09205,-0.30857 0.08737,-0.42954c0.52065,0.70551 1.46437,0.63881 1.46437,0.63881l1.75887,-0.12173c3.19898,-0.48512 5.28451,-0.94003 7.50844,-3.46496c0,0 1.04648,-1.22925 -0.22296,-2.3905c-1.26943,-1.16126 -2.39176,0.15224 -2.39176,0.15224c-1.49916,1.89287 -3.04491,1.94752 -5.33004,2.27387l-1.63299,0.10556c0,0 -1.30629,0.03614 -1.46986,1.3858l-0.36934,0.17104c-0.24477,-1.5025 -0.50551,-3.02625 -0.66656,-4.52482c0.29503,-0.6869 0.00331,-1.43541 0.00331,-1.43541l-0.12607,0.0045c-0.00209,-0.03436 -0.00417,-0.06902 -0.00611,-0.10336l-0.0275,0.01306c0.11767,-0.47377 0.25949,-0.92006 0.44314,-1.34569c0.87879,-0.07533 1.32834,-0.98559 1.32834,-0.98559c0.07361,-0.15054 0.14883,-0.30199 0.22599,-0.45105c0.88967,-0.04219 1.36739,-0.95025 1.36739,-0.95025c0.13536,-0.25638 0.27121,-0.51567 0.40781,-0.7714c0.76806,-0.24223 1.08066,-1.10404 1.08066,-1.10404l0.91281,-2.50951c0,0 0.07948,-0.21818 0.10462,-0.52322c1.17869,0.15943 1.68924,-1.09813 1.68924,-1.09813c1.61444,-4.13293 7.02654,-7.84777 10.7467,-9.88972c2.02078,-1.10919 4.23747,-1.22102 6.05412,-2.5181c0.46607,0.3853 1.05819,0.41519 1.05819,0.41519c2.15969,0.10254 4.79973,0.13081 6.4802,1.8514c1.92369,1.96961 0.82139,6.48615 -0.6772,8.31878c-1.35511,1.65716 -2.94621,1.08834 -4.59654,2.21956c-0.2458,0.16848 -2.39108,2.74861 -2.72054,3.13853l-0.40713,1.06771c-0.35518,0.14861 -0.82683,0.28571 -1.20267,0.31876c-0.26334,-0.1497 -0.60276,-0.25493 -0.98982,-0.18442l-0.59293,-0.68899c0.34879,-0.65253 0.1375,-1.40205 0.1375,-1.40205c-0.12023,-0.39886 -0.23156,-0.78924 -0.3518,-1.18811c0.44881,-1.02055 1.18506,-2.1614 1.74378,-2.92979c0.08235,0.07445 0.17816,0.14807 0.28493,0.21711c1.43564,0.92831 2.33414,-0.55969 2.33414,-0.55969c0.13469,-0.23201 0.27987,-0.45808 0.43503,-0.67698c0.50269,-0.09241 1.00814,-0.18175 1.51084,-0.27414l0.23894,-0.00463c0,0 1.60195,-0.03569 1.49351,-1.79079c-0.02136,-0.34573 -0.10208,-0.6169 -0.22097,-0.8328c0.29381,-0.37009 0.50009,-0.92764 0.19393,-1.71166c-0.63629,-1.62935 -2.19594,-0.96222 -2.19594,-0.96222l-1.56652,0.71075c-0.67955,0.48854 -1.35484,0.9794 -2.03439,1.46793c0,0 -0.3876,0.27995 -0.612,0.75717c-0.98979,-0.35978 -1.75428,0.55609 -1.75428,0.55609c-0.20537,0.24761 -0.41343,0.5131 -0.62444,0.79236c-0.2104,-0.15036 -0.48113,-0.26001 -0.84252,-0.29809z" fill="#b7b7b7" stroke-width="0.5"></path>
      </g>
      <g stroke-width="0.5">
        <path d="M282.11494,229.14431c-0.08385,-0.26107 -0.17033,-0.50252 -0.26233,-0.72956c-0.00803,0.39921 -0.02861,0.78268 -0.06252,1.15207zM269.50904,223.98633c0.5638,-1.76719 1.27944,-3.52963 2.56347,-4.47837c4.80533,-3.55057 10.18205,2.17572 12.456,7.21225c1.09786,-0.88775 2.6951,-1.52129 3.79663,-1.69684c3.61524,-0.57616 6.82506,2.41205 7.38772,6.1315c0.45246,2.99098 -1.65449,6.82692 -3.81004,8.6063c-0.19668,0.16236 -1.05086,0.885 -1.93317,1.42583c0.14037,0.02287 0.26828,0.04396 0.37582,0.05994l1.71974,1.65563c0,0 1.11258,1.15763 0.19177,2.38176l-0.17486,1.38347c-2.87435,5.94799 -3.65021,14.56702 -10.85358,15.7554c-1.34383,-0.43278 -3.89358,-1.80572 -5.39042,-1.63804c-2.73501,0.30638 -5.17287,1.21784 -7.76519,1.49487c-0.99438,0.96647 -1.97556,0.33022 -2.31599,0.04995c-0.5795,-0.04213 -1.17198,-0.12943 -1.78179,-0.27386c-2.84388,-0.6736 -6.10919,-1.81806 -8.51757,-3.57881c-2.69396,-1.96955 -3.86103,-5.38918 -6.55891,-7.16904c0,0 -1.47363,-1.02221 -0.4912,-2.55551c0.40837,-0.63737 0.90163,-0.83316 1.33864,-0.84436c0.30017,-3.02448 2.13347,-5.06258 3.55554,-8.05781c1.51508,-3.19112 -1.01852,-5.58249 -1.6808,-8.32591c-1.43845,-5.95855 3.94047,-11.34751 8.36913,-14.12511c0,0 1.39889,-0.87331 2.31706,0.45332c3.64513,0.4384 6.20312,2.96304 7.202,6.13343zM279.91083,239.6191c0,-1.8428 1.77109,-1.8428 1.77109,-1.8428c0.62971,0 2.51889,0 3.1486,0c0,0 0.23263,0 0.52927,0.08772c2.56268,-1.08723 5.12215,-2.5137 3.84401,-5.33751c-0.34208,-0.75577 -0.45315,-1.78032 -1.14443,-2.20521c-0.19276,-0.11848 0.0925,0.49714 -0.02001,0.69854c-0.3541,0.6338 -0.82573,1.19668 -1.32678,1.71209c-0.55244,0.56829 -1.18085,1.05434 -1.81557,1.52038c-2.58432,1.89752 -5.07265,2.30267 -7.97512,3.17205c-0.01482,0.00444 -0.02954,0.00901 -0.04416,0.01371c-0.34364,0.22768 -0.67178,0.42235 -0.98201,0.60945c-0.89376,0.87663 -1.3289,2.33706 -2.15019,3.19265l-1.21404,2.21061c-0.30067,0.5718 -0.88421,0.95958 -1.5548,0.95958c-0.97814,0 -1.77109,-0.82505 -1.77109,-1.8428c0,-0.21886 0.03667,-0.42881 0.10396,-0.62355l0.61666,-1.92486v0c0.40437,-1.18375 1.13266,-2.14581 1.99789,-3.00442c0.29936,-0.40338 0.66859,-0.79837 1.08087,-1.19353c-0.09458,-0.14765 -0.17787,-0.32381 -0.24505,-0.53351c-0.56005,-1.74824 1.12015,-2.33097 1.12015,-2.33097l0.71258,-0.22761c0.62971,-0.32761 1.25944,-0.65523 1.88915,-0.98284c0,0 0.55161,-0.28698 1.16658,-0.18355c0.45654,-0.80156 0.72779,-1.70895 0.71101,-2.78715c-0.50239,-1.52677 -0.60644,-2.6269 -2.24332,-3.12273c-0.6898,-0.20895 -1.91293,-1.06702 -2.12832,-0.35387c-0.40073,1.32683 0.18649,3.8288 -0.40447,5.45617c-1.80501,4.97059 -6.59161,4.45125 -9.45939,7.78334c-1.6874,1.96061 -2.19285,5.40126 -3.63823,7.67212c0,0 -0.98241,1.53331 -2.45605,0.51112c-1.47364,-1.02219 -0.49122,-2.5555 -0.49122,-2.5555c1.42245,-2.20327 1.92497,-5.10679 3.34319,-7.27922c-0.26562,-0.59402 -0.1428,-1.23301 -0.1428,-1.23301l0.30456,-1.57959l0.12867,-0.8033c-0.9578,-0.02431 -1.72706,-0.8398 -1.72706,-1.84224c0,-0.85295 0.55694,-1.57056 1.31307,-1.78058c0.32389,-0.43639 0.83169,-0.71744 1.4026,-0.71744c0.24781,0 0.48373,0.05296 0.69789,0.14858l0.25377,-0.26405c1.64468,-1.5972 1.70938,-2.58427 0.24752,-4.34772c-0.16855,-0.18809 -1.08671,-1.44375 -1.63566,-1.36286c-1.03279,0.15218 -4.90068,4.09875 -5.05391,5.32202c-0.22052,1.76048 1.15699,3.30336 1.52972,4.8034c1.46223,5.88468 -1.26514,10.75677 -3.99986,15.47964c0.31234,0.31442 0.45748,0.6668 0.45748,0.6668c4.39011,11.13175 19.33372,10.81521 25.94658,2.20814c1.38776,-1.9962 2.97203,-3.75801 2.4897,-6.36664l-0.71256,-0.24713c0,0 -0.42135,-0.14614 -0.77172,-0.5116c-0.48057,0.61338 -0.86835,1.29513 -1.27047,2.0923c-0.0449,0.72107 -0.55344,1.2502 -0.55344,1.2502l-3.15131,-1.79957c1.0674,-2.21795 2.01242,-3.8621 3.57693,-5.282c-0.17914,-0.26288 -0.30045,-0.61895 -0.30045,-1.10126zM283.35509,253.8647l0.02468,0.00993c-0.04641,0.0602 -0.09311,0.12006 -0.1401,0.17957c-0.01541,0.02546 -0.0308,0.051 -0.04619,0.07661l0.07255,0.07196c0,0 -0.18123,0.37717 -0.54372,0.68044c-0.14281,0.17505 -0.37645,0.4111 -0.69002,0.561c-0.48746,0.51056 -0.99773,0.98959 -1.52772,1.43687c1.12576,0.10407 2.20696,0.20212 2.74843,0.01819c0.88259,-0.29979 0.84222,-1.72524 1.34039,-2.54043c0.48637,-0.79587 0.89632,-1.51667 1.23576,-2.21441c0.21789,-0.52187 0.43488,-1.04517 0.6526,-1.56863c0.43001,-1.26206 0.64077,-2.57839 0.66798,-4.2636c-0.15731,-0.02728 -0.31463,-0.05457 -0.47194,-0.08184c-0.07811,3.07453 -1.69548,4.98079 -3.3227,7.63433z" fill="#6b6b6b"></path>
        <path d="M286.6493,246.28418c0.15731,0.02728 0.37534,-0.05071 0.53265,-0.02343c-0.02721,1.68521 -0.21497,3.03135 -0.64497,4.29341c-0.21771,0.52346 -0.43274,1.0835 -0.65062,1.60537c-0.33945,0.69774 -0.79014,1.46244 -1.2765,2.25831c-0.49817,0.81519 -0.48092,2.24268 -1.3635,2.54248c-0.54148,0.18392 -1.64844,0.07618 -2.7742,-0.02789c0.52999,-0.44728 1.09855,-1.03286 1.58601,-1.54342c0.31357,-0.1499 0.54093,-0.38869 0.68374,-0.56374c0.36249,-0.30328 0.53713,-0.68242 0.53713,-0.68242l-0.10053,0.04738c0.01539,-0.02561 0.06013,-0.17015 0.07552,-0.19561c0.04698,-0.05951 0.09124,-0.11995 0.13766,-0.18015l-0.02399,-0.00978c1.62721,-2.65354 3.20351,-4.44598 3.28162,-7.52051z" fill="#b7b7b7"></path>
        <path d="M280.27031,240.72193c-1.56452,1.41989 -2.52904,3.10812 -3.59644,5.32608l3.06763,1.71317c0,0 0.50404,-0.52315 0.54895,-1.24423c0.40212,-0.79717 0.78357,-1.46649 1.26414,-2.07987c0.35036,0.36546 0.77206,0.51071 0.77206,0.51071l0.82194,0.29339c0.48234,2.60864 -1.11924,4.39494 -2.50701,6.39114c-6.61285,8.60707 -21.64679,8.90338 -26.03691,-2.22837c0,0 -0.14615,-0.3546 -0.4585,-0.66903c2.73472,-4.72287 5.46344,-9.64796 4.0012,-15.53263c-0.37273,-1.50004 -1.7446,-3.05224 -1.52408,-4.81272c0.15323,-1.22327 4.0374,-5.18507 5.0702,-5.33725c0.54895,-0.08089 1.5263,1.28105 1.69485,1.46913c1.46187,1.76345 1.40492,2.74519 -0.23976,4.34239l-0.25261,0.26309c-0.21415,-0.09563 -0.44871,-0.14979 -0.69652,-0.14979c-0.57089,0 -1.07449,0.27683 -1.39838,0.71321c-0.75614,0.21003 -1.3078,0.92088 -1.3078,1.77383c0,1.00244 0.77044,1.8161 1.72825,1.84041l-0.1269,0.80028l-0.30138,1.57286c0,0 -0.12099,0.6338 0.14464,1.22782c-1.41824,2.17243 -1.91971,5.04277 -3.34216,7.24604c0,0 -0.98555,1.52361 0.48809,2.5458c1.47364,1.02219 2.34868,-0.46009 2.34868,-0.46009c1.44539,-2.27086 1.94665,-5.75271 3.63405,-7.71332c2.86777,-3.3321 7.72234,-2.85865 9.52735,-7.82924c0.59096,-1.62737 0.00159,-4.1297 0.40233,-5.45654c0.21539,-0.71315 1.44689,0.14683 2.13669,0.35578c1.63686,0.49583 1.75356,1.6016 2.25595,3.12837c0.01678,1.0782 -0.31686,2.0898 -0.77341,2.89136c-0.61497,-0.10342 -1.162,0.18645 -1.162,0.18645c-0.62971,0.32761 -1.25128,0.65907 -1.881,0.98668l-0.70814,0.22909c0,0 -1.65413,0.46305 -1.09408,2.21128c0.06718,0.2097 0.12574,0.50591 0.22032,0.65356c-0.41228,0.39516 -0.768,0.792 -1.06737,1.19539c-0.86524,0.85861 -1.53517,1.77346 -1.93954,2.95721v0l-0.62218,1.8814c-0.0673,0.19475 -0.10854,0.39724 -0.10854,0.6161c0,1.01775 0.75929,1.81975 1.73742,1.81975c0.67059,0 1.22708,-0.38785 1.52774,-0.95965l1.17223,-2.17258c0.82129,-0.85559 1.26068,-2.26318 2.15445,-3.13981c0.31023,-0.1871 0.63842,-0.38169 0.98205,-0.60937c0.01463,-0.0047 0.13119,-0.07143 0.14601,-0.07587c2.90248,-0.86938 5.28625,-1.21778 7.87057,-3.1153c0.63472,-0.46604 1.26399,-0.95021 1.81644,-1.5185c0.50105,-0.51542 0.97399,-1.07574 1.32809,-1.70954c0.11251,-0.20139 -0.07079,-0.87895 0.12197,-0.76047c0.69128,0.42489 0.80582,1.45637 1.1479,2.21214c1.27814,2.82381 -1.27731,4.26378 -3.83999,5.35101c-0.29665,-0.08772 -0.64516,-0.06422 -0.64516,-0.06422c-0.62971,0 -2.51806,0.00367 -3.14778,0.00367c0,0 -1.65533,-0.02227 -1.65533,1.82052c0,0.48231 0.12163,0.84638 0.30076,1.10926z" fill="#b7b7b7"></path>
      </g>
    </g>
  </g>
</svg>
