<?xml version="1.0" encoding="UTF-8"?>
<svg xmlns="http://www.w3.org/2000/svg" xmlns:xlink="http://www.w3.org/1999/xlink" version="1.1" width="103.09133" height="129.60312" viewBox="0,0,103.09133,129.60312">
  <defs>
    <linearGradient x1="239.21927" y1="141.29108" x2="239.21927" y2="224.74042" gradientUnits="userSpaceOnUse" id="color-1">
      <stop offset="0" stop-color="#e0e0e0"></stop>
      <stop offset="1" stop-color="#c7c7c7"></stop>
    </linearGradient>
  </defs>
  <g transform="translate(-187.78766,-102.19844)">
    <g stroke="none" stroke-miterlimit="10">
      <path d="M265.67618,142.5672l0.46398,-0.6875c0.61225,-0.75948 1.10809,-1.57663 1.58141,-2.41311c-2.02235,-1.16845 -4.03196,-2.36067 -5.97865,-3.65809c0,0 -0.50481,-0.33654 -0.57658,-0.89239c-2.40806,-1.30666 -4.81998,-2.77976 -7.54254,-3.21818c0,0 -1.01865,-0.16977 -1.04987,-1.12659c-0.3192,0.07432 -0.6457,0.13409 -0.98043,0.1776c0,0 -1.24035,0.15504 -1.39539,-1.08531c-0.15504,-1.24035 1.08531,-1.39539 1.08531,-1.39539c2.51101,-0.29911 4.63857,-1.77596 6.72584,-3.3829c-0.29097,-0.13725 -0.57027,-0.41287 -0.63863,-0.9597c-0.15505,-1.24035 1.0853,-1.39539 1.0853,-1.39539c1.08171,-0.13522 2.16407,-0.2523 3.2418,-0.3876c0.53103,-0.34482 1.07177,-0.66041 1.62735,-0.93114l1.74116,-0.12542c0,0 0.52033,0 0.88957,0.33571c0.65219,-0.15306 1.29994,-0.33148 1.94201,-0.54382l1.0013,-0.12818c0.3527,-1.13256 1.51677,-0.81508 1.51677,-0.81508c1.4766,0.40556 2.96761,0.88639 4.40566,1.48727c0.74947,-0.39039 1.40917,0.2693 1.40917,0.2693c0.25699,0.26103 0.51837,0.51839 0.78347,0.77268c0.06618,0.03579 0.13216,0.07191 0.19792,0.10838c0.05009,-0.88152 0.33772,-1.78685 0.08796,-2.62691l-0.00003,-0.00001c-0.40691,-1.36861 -3.77184,-3.15172 -4.83587,-4.24597c-1.99011,-0.96751 -4.45129,-2.65566 -6.53621,-3.15658c-1.00322,-0.24104 -2.1035,-0.12586 -3.0474,-0.54251c-1.27891,-0.56452 -3.53037,-2.10131 -5.02571,-1.81911c-0.49738,0.09387 -0.85061,0.6037 -1.34754,0.69995c-2.71522,0.5259 -5.11638,-0.45154 -7.73223,-0.68426c-1.71571,-0.15264 -2.99316,1.61473 -4.55364,1.83547c-0.04541,0.00642 -0.09084,0.01212 -0.13631,0.01714l0.0058,0.02318l-0.93922,0.23481l-0.15365,0.15365l-0.02146,-0.02146l-0.02877,0.06899c-0.17382,0.1389 -0.34709,0.27257 -0.51962,0.40287c-0.05857,0.65278 -0.71135,0.97917 -0.71135,0.97917l-0.63288,0.24543c-0.57232,0.57008 -1.16045,1.12425 -1.75781,1.66839c0.35679,0.26829 0.77038,0.63451 1.17925,1.01891c0.61995,-0.22641 1.19422,0.233 1.19422,0.233c2.16452,1.74522 3.69996,3.91441 5.07769,6.31843l0.70166,1.16942c0.1196,0.1917 0.18871,0.41815 0.18871,0.66074c0,0.08553 -0.00859,0.16906 -0.02496,0.24976l0.32498,0.54163l-0.02443,0.01466c0.03014,0.03462 0.05956,0.06999 0.08821,0.10614c2.03625,2.56975 -1.12056,5.30293 -3.35768,6.00741c-2.73434,0.86105 -6.16962,1.23586 -9.46782,1.21956c-0.02285,0.11645 -0.05024,0.1895 -0.05024,0.1895c-0.46267,1.22996 -0.81896,2.46565 -1.11447,3.7147c0.00543,-0.00557 0.01094,-0.01115 0.01651,-0.01672c0.88388,-0.88388 1.76777,0 1.76777,0c0.16656,0.16671 0.33302,0.33376 0.49936,0.50116c0.6465,-0.0904 1.29959,-0.14663 1.96393,-0.15003l1.41062,0.68811c0,0 1.04006,0.69339 0.34667,1.73344c-0.28698,0.43047 -0.63336,0.56399 -0.9408,0.57263c1.64544,1.71238 3.26582,3.45417 4.83751,5.21654l0.74882,0.78288c0,0 0.62998,0.65955 0.25029,1.39001c1.9425,-0.35092 3.81853,-0.78032 5.7094,-1.29183c0.01168,-0.12742 0.04454,-0.26601 0.10465,-0.41627c0.46424,-1.1606 1.62483,-0.69635 1.62483,-0.69635c0.28351,0.11396 0.56921,0.21895 0.85661,0.3171l0.86999,-0.32685c0,0 0.92917,-0.34859 1.44228,0.40335c0.21215,0.00556 0.50383,0.05436 0.74892,0.24446c0.05257,-0.00674 0.10615,-0.01022 0.16055,-0.01022c0.05926,0 0.11755,0.00412 0.17461,0.0121l1.89312,0.23665l-0.05243,0.4194c1.34917,0.11723 2.51428,0.49639 3.7124,1.0735c0.27947,-0.11662 0.56223,-0.08919 0.77519,-0.03255c0.95715,-1.34884 1.84363,-2.64497 2.65538,-3.99542c-0.40894,-0.63484 0.05872,-1.33634 0.05872,-1.33634zM240.43235,161.97669c2.14586,-2.02752 8.95563,-1.34986 11.02299,1.45269c0.29275,-0.45201 0.5895,-0.9023 0.88982,-1.35089c0.06827,-0.33343 0.2507,-0.5729 0.2507,-0.5729l0.86166,-1.13062c0.10168,-0.12163 0.20321,-0.24336 0.30461,-0.36517c1.92853,-2.75576 3.96838,-5.44683 6.01391,-8.07752c0,0 0.42494,-0.54635 1.04895,-0.50974c0.21479,-0.25494 0.4303,-0.50937 0.64666,-0.7632c-0.38506,-0.17842 -0.77084,-0.36272 -1.14247,-0.55482c-0.21091,0.16238 -0.47512,0.25893 -0.76187,0.25893c-0.17413,0 -0.33995,-0.03561 -0.49056,-0.09993l-1.14364,-0.45746c-1.2026,-0.40168 -2.42857,-0.69265 -3.64587,-1.01889c-2.78533,1.10139 -5.45779,2.64923 -8.33624,3.35328c0.10978,0.36589 0.13207,0.92986 -0.51352,1.36025c-1.04006,0.69338 -1.73343,-0.34669 -1.73343,-0.34669l-0.04775,-0.07163c-0.12679,-0.19019 -0.25438,-0.3803 -0.38263,-0.57036c-0.06756,0.00169 -0.13526,0.00275 -0.20313,0.0032c0,0 -1.25,0 -1.25,-1.25c0,-0.27344 0.05981,-0.48705 0.15327,-0.65395c-2.13727,-3.09869 -4.33178,-6.22163 -5.9984,-9.54579c0,0 -0.03974,-0.07947 -0.07683,-0.20664c-0.15278,-0.15607 -0.30573,-0.31187 -0.45883,-0.46736c-0.70893,0.14064 -1.4148,0.31481 -2.12063,0.49084c-0.06633,0.38482 -0.13112,0.7715 -0.19561,1.16026l-0.00003,-0.00003l-0.05677,0.34212c0,0 -0.09668,0.58256 -0.55754,0.88041c-0.06208,0.23177 -0.12569,0.46275 -0.19093,0.69284l0.04809,-0.10432c0,0 0,0.60933 -0.42543,0.97714c0.35621,2.27841 0.69974,4.55651 1.17489,6.78341l0.16168,1.92861c0.218,0.0937 0.43778,0.06886 0.66033,-0.03477c-0.03335,-0.379 0.04462,-1.00921 0.84766,-1.27689c0.23631,-0.07877 0.44124,-0.09476 0.61789,-0.06985c0.10832,-0.11756 0.21762,-0.23394 0.32801,-0.34543l1.12299,-0.36612c0,0 1.25,0 1.25,1.25c0,0.83813 -0.56197,1.11429 -0.9323,1.20528c-0.13869,0.13476 -0.27479,0.26478 -0.40874,0.3895c0.94439,3.20353 1.53967,6.52671 2.18563,9.84342c0.39655,-0.86647 0.92812,-1.63654 1.48342,-2.16121zM246.96676,163.86072c-1.10969,-0.31583 -2.91095,-0.88319 -4.08828,-0.60379c-0.80685,0.19148 -3.08825,4.18043 -1.82074,4.47702c0.71575,0.16748 1.46791,-0.08126 2.20186,-0.12209c0.70937,-0.03946 1.4159,-0.1204 2.12253,-0.19408c0.94362,-0.09838 1.87922,-0.296 2.79073,-0.55911c0,0 0.2512,-0.07177 0.55674,-0.03485c0.25325,-0.3049 0.51136,-0.60253 0.77298,-0.8952c0.07846,-1.43545 -1.26558,-1.70637 -2.53581,-2.0679zM238.99349,186.51138l-1.18387,0.78925l-0.03747,-0.0562l-0.10672,0.13903c-1.43766,0.4916 -2.95597,0.85903 -4.5188,1.10976l-0.71258,0.3054c-0.15777,0.0719 -0.33311,0.11196 -0.5178,0.11196c-0.23293,0 -0.45098,-0.06371 -0.63767,-0.17466c-4.10031,0.41155 -8.40134,0.06887 -12.28624,-0.90033c-0.08435,0.77338 -0.15284,1.55484 -0.23229,2.34937l0.07423,-0.2834c0,0 0.55902,1.11803 -0.55902,1.67705c-0.25724,0.12862 -0.48489,0.16846 -0.68294,0.15357c-0.47616,0.00911 -0.85694,-0.29551 -0.85694,-0.29551c-1.83644,-1.47343 -3.52678,-3.67461 -5.81443,-4.39023l-1.17265,-0.39089c-0.51078,-0.15709 -0.88206,-0.63267 -0.88206,-1.19497c0,-0.44077 0.22813,-0.82825 0.57276,-1.05082l1.18387,-0.78924l0.01528,0.02291c0.05002,-0.04039 0.10113,-0.07957 0.15343,-0.11741c1.84542,-1.33493 4.62764,-0.13313 6.3438,-1.64153l0.9856,-0.40977c0,0 0.89057,-0.29685 1.38542,0.39571c0.69257,0.49487 0.3957,1.38544 0.3957,1.38544c-0.1159,0.34609 -0.21743,0.69179 -0.30712,1.03757c4.99173,2.20818 14.5896,-0.13584 17.72126,-4.38286c0,0 0.27661,-0.36882 0.71785,-0.4905c0.10381,-0.11252 0.21287,-0.22857 0.32721,-0.34872c0,0 0.10413,-0.10414 0.27666,-0.20517c-1.18362,-6.65533 -2.30694,-13.3209 -3.72313,-19.92747c0,0 -0.13311,-0.62117 0.23328,-1.07274c-0.16656,-0.69106 -0.3442,-1.37783 -0.53682,-2.05897c-0.88908,0.3406 -1.79949,0.25414 -2.89686,-0.45652c-0.33716,-0.08048 -0.54736,-0.28628 -0.6779,-0.49936c-0.02882,-0.02364 -0.05777,-0.04767 -0.08685,-0.07211c0,0 -0.72722,-0.72722 -0.20276,-1.52202l-0.10423,-1.27705c-0.74774,-3.4738 -1.14294,-7.09866 -1.79849,-10.64035c-2.24042,0.58369 -4.15634,2.15481 -6.02062,3.71434c0.03007,0.04722 0.05898,0.09825 0.08653,0.15335c0.55901,1.11803 -0.55902,1.67705 -0.55902,1.67705c-0.87753,0.43359 -1.73258,0.9456 -2.54553,1.52568c0.54605,0.24601 1.05971,0.5334 1.55507,0.85186c0.11271,-0.03339 0.23207,-0.05131 0.35562,-0.05131c0.34518,0 0.65768,0.13991 0.88388,0.36612l1,1l-0.03265,0.03265l0.10254,0.04326c0.14202,0.19883 0.26846,0.42092 0.37232,0.65631c0.18445,0.15437 0.3701,0.3105 0.55778,0.46778l0.03712,0.11638l0.03927,-0.03273l0.96373,1.15647l0.35988,0.35988c0.2262,0.22621 0.36611,0.5387 0.36611,0.88388c0,0.69036 -0.55964,1.25 -1.25,1.25c-0.34518,0 -0.65768,-0.13991 -0.88389,-0.36612l-0.88832,-0.88833c-0.2622,-0.09466 -0.43608,-0.24206 -0.43608,-0.24206l-0.63235,-0.58368c-0.43556,-0.32827 -0.80408,-0.64656 -1.13635,-0.97838c-0.18044,-0.13124 -0.36426,-0.26999 -0.55336,-0.41765l-0.01966,0.02621l-1.58835,-1.19127c-0.08756,-0.0642 -0.16646,-0.13953 -0.2346,-0.22391c-0.35835,-0.15312 -0.73335,-0.27944 -1.13021,-0.37215c0,0 -0.00796,-0.00199 -0.02242,-0.00629c-0.25326,0.24902 -0.49884,0.50535 -0.73587,0.76854c-0.00414,0.59707 -0.5289,0.99063 -0.5289,0.99063c-0.23588,0.17681 -0.46534,0.35384 -0.68886,0.53148c-0.22608,0.3203 -0.43947,0.64808 -0.63897,0.98271l-0.69498,1.39201c0,0 -0.55902,1.11803 -1.67705,0.55901c-0.02659,-0.01329 -0.05224,-0.02692 -0.07697,-0.04082c-1.14987,1.28274 -2.15187,2.68122 -3.14417,4.30774c-0.03108,0.25516 -0.16496,0.82947 -0.74164,1.04294c-0.44622,0.78082 -0.89248,1.56162 -1.33877,2.34241l-0.0204,0.01632l0.00754,0.00472l-1.18395,1.89431c-0.05953,0.09881 -0.13234,0.18872 -0.21597,0.26725c-0.53507,1.25312 -1.13899,2.44474 -1.58231,3.7874l-0.92544,0.5551c-1.02372,1.72957 -1.77323,3.50776 -2.37328,5.41839c0.05523,0.18699 0.05146,0.36468 0.01756,0.52346c1.3573,-0.00001 2.71461,-0.00003 4.07191,0.00009l1.07697,-0.16568l0.02551,0.16582c0.17692,0.00003 0.35385,0.00006 0.53077,0.00009c0.92232,-0.21703 1.89015,-0.37426 3.16033,-0.58378l1.2864,0.5496c0,0 0.07363,0.07363 0.15713,0.19963l0.45102,0.03758c0.64739,0.04711 1.15798,0.58726 1.15798,1.24666c0,0.69036 -0.55964,1.25 -1.25,1.25h-2.2v-0.17015c-1.23815,0.26222 -2.45269,0.3684 -4.07767,0.36774l-0.07354,-0.03793l-0.00384,0.03069l-1.58355,-0.19795c-0.19747,-0.02178 -0.38108,-0.08956 -0.53988,-0.19238c-1.04051,0.00001 -2.08102,-0.00002 -3.12153,-0.00002c0,0 -0.0511,0 -0.13263,-0.01033c-0.15766,0.74202 -0.27401,1.49565 -0.38431,2.27088l-0.51078,0.15768c-0.73638,2.94329 -0.57134,5.07157 0.0209,8.02741l-0.57571,0.07267c0.6223,3.13394 1.62243,6.32618 2.87191,9.20371c0.58682,1.35143 1.84045,2.26006 2.56214,3.46121c1.00997,1.68094 2.03307,3.78688 2.83039,5.62196l0.30254,0.25212c0.07253,-0.30231 0.2549,-0.56188 0.50256,-0.73416l1.38645,-0.99032l0.03982,0.05575c4.18842,-2.43031 8.12528,-6.12506 12.75782,-7.44453c0,0 1.20595,-0.3289 1.53485,0.87705c0.3289,1.20595 -0.87705,1.53485 -0.87705,1.53485c-0.72788,0.18747 -1.44275,0.4499 -2.14696,0.76761c-0.06148,0.07794 -0.13205,0.14838 -0.21009,0.20973l-0.99098,0.79279l-0.01233,-0.01541l-0.18461,0.14304l-0.14566,-0.18799l0.09917,0.22232c-0.27594,0.1758 -0.60091,0.40527 -0.96249,0.66827c-1.95468,2.02942 -4.45975,3.64935 -6.73242,5.32552l-0.20023,0.19176c0,0 -0.92361,0.84229 -1.7659,-0.08132c-0.02406,-0.02639 -0.04669,-0.05271 -0.06793,-0.07895l-0.10087,0.06725c-0.19036,0.13095 -0.41882,0.21053 -0.66535,0.21871c0.35365,0.30414 0.67846,0.63634 0.96327,1.00013c0.04886,0.05289 0.09322,0.11001 0.13244,0.17075l0.94558,1.41836l-0.16415,0.10944c2.16342,1.89101 4.10478,3.99108 6.56112,5.63643l2.1664,0.98252c0,0 0.81234,0.37011 0.75128,1.17128c0.78826,0.87633 1.52251,1.45194 2.4541,1.94818c0.37133,-0.16636 0.75665,-0.11131 0.75665,-0.11131c0.83589,0.12409 1.66001,0.16257 2.47699,0.13229c0.32942,-0.32462 0.79444,-0.37629 0.79444,-0.37629c1.49435,-0.16593 4.08921,-0.94245 5.58374,-0.71099c1.75923,0.27246 4.0072,1.35286 5.73583,1.97243l0.41948,0.62714c0.05122,0.00685 0.10244,0.01372 0.15366,0.02061c-0.00749,-0.03847 -0.01322,-0.07758 -0.01709,-0.11722l-0.19833,-1.78501l0.49868,-0.05541c-0.46808,-3.1556 0.2379,-6.32687 0.29191,-9.77777l0.00177,-1.30634c0,-0.00007 0,-0.00014 0,-0.00022c0.00042,-0.31737 0.11911,-0.60702 0.31437,-0.82724c0.02915,-0.42031 0.05882,-0.84037 0.0888,-1.26012c0,0 0.08906,-1.24682 1.33588,-1.15777c1.24682,0.08906 1.15777,1.33588 1.15777,1.33588c-0.13085,1.83173 -0.24982,3.6667 -0.3475,5.50301c0.03628,1.20211 0.05982,2.57793 -0.05378,3.85529c0.00686,0.75286 0.00447,1.53188 0.00447,2.35265v2.2c0,0 0,0.80129 -0.64154,1.12077c-0.02266,0.08561 -0.05418,0.16761 -0.09352,0.24498c0.35142,0.05015 0.70284,0.10076 1.05433,0.15168l1.82406,-0.00314c0,0 1.25,0 1.25,1.25c0,0.09582 -0.00734,0.1843 -0.02091,0.266c0.24199,-0.0815 0.44448,-0.0815 0.44448,-0.0815c2.36084,0.00813 4.90749,-0.3075 7.36593,-0.96973c0.14437,-0.61666 0.8022,-0.86334 0.8022,-0.86334c5.50748,-2.05428 9.78442,-5.9139 14.15276,-9.67079c0.50658,-0.63472 0.97002,-1.30828 1.39917,-2.0088c-0.06099,0.00915 -0.12341,0.01389 -0.18695,0.01389c-0.30361,0 -0.58195,-0.10825 -0.79851,-0.28825l-1.92793,-1.57739l0.03215,-0.03929c-0.18786,-0.08639 -0.30595,-0.18479 -0.30595,-0.18479l-1.27749,-1.07028c-0.15968,-0.1856 -0.3437,-0.37176 -0.53488,-0.55964c-0.66663,-0.51026 -1.34802,-1.06318 -2.09502,-1.67088l-0.0577,-0.16996l-0.05184,0.03703l-0.99155,-1.38817c-0.1517,-0.20689 -0.24129,-0.46217 -0.24129,-0.73838c0,-0.02604 0.0008,-0.05189 0.00237,-0.07753c-1.17824,-1.47645 -2.11649,-3.10909 -2.57261,-5.05131c0,0 -0.27116,-1.22023 0.94908,-1.49139c1.22023,-0.27116 1.49139,0.94908 1.49139,0.94908c0.39349,1.91248 1.46915,3.52316 2.79429,4.98088l0.3445,0.17225l-0.06475,0.1295c0.23442,0.24814 0.47539,0.49203 0.72067,0.73244c0.14817,0.125 0.28998,0.26345 0.43411,0.41817c1.15064,1.09085 2.36532,2.11712 3.42573,3.15391l0.00247,0.00497l0.00126,-0.00127l1.60269,1.59376c0.11479,0.1141 0.20754,0.25033 0.27132,0.40177c1.00372,-1.94332 1.8176,-4.00845 2.60475,-5.97636l0.21382,-0.6483c0,0 0.15263,-0.45792 0.55276,-0.7098c0.97667,-2.98226 1.89376,-6.00655 3.05875,-8.92251l0.21385,-0.64832c0,0 0.11374,-0.3412 0.40223,-0.59655c0.63865,-1.94606 1.03597,-3.99281 1.47604,-5.97365l0.23359,-1.1694c0,0 0.14739,-0.73696 0.78503,-0.95372c-0.09205,-0.25512 -0.09205,-0.47473 -0.09205,-0.47473c0,-2.71908 -0.0417,-5.49747 0.25146,-8.21313c-0.02088,-0.20724 0.00463,-0.36029 0.00463,-0.36029c0.08209,-0.48317 0.15833,-0.98746 0.22601,-1.50647l-0.00394,-2.11337c0,0 0,-0.45117 0.27105,-0.8114c0.10985,-2.18215 0.00841,-4.41345 -0.47281,-6.29701l-0.23909,-0.95635c0,0 -0.10153,-0.40615 0.04796,-0.80711c-0.75924,-3.48278 -2.27868,-7.56822 -4.00761,-10.25709l-0.00453,0.00621c-0.67909,0.5651 -1.30521,1.20339 -1.9178,1.85602c0.02274,0.28232 -0.06225,0.60945 -0.38939,0.93659l0.00003,-0.00005c-0.29449,0.29449 -0.58898,0.39275 -0.85077,0.39284c-0.64067,0.67479 -1.29579,1.32157 -2.01052,1.87291c0.13723,0.14026 0.25247,0.3371 0.3211,0.61163c0.30316,1.21268 -0.90951,1.51585 -0.90951,1.51585l-1.08272,0.26384c-1.60387,0.21635 -2.8408,0.08504 -4.32378,-0.12317c-0.27166,0.25254 -0.55023,0.49793 -0.83445,0.7368c-0.93962,2.70982 -2.22763,5.33939 -3.65938,7.90007c0.19928,0.47326 0.00509,0.97819 0.00509,0.97819l-0.29797,0.77472c-1.99543,5.18796 -3.65766,10.59694 -5.9953,15.64292c-1.19214,2.57333 -2.62064,4.99906 -4.13017,7.37684c-0.00288,0.13555 -0.02899,0.27926 -0.0935,0.42145c-0.08762,0.20331 -0.25117,0.40199 -0.53644,0.56168c-1.20368,1.86301 -2.44426,3.70486 -3.64595,5.57415c0,0 -0.67595,1.05147 -1.72742,0.37553c-1.05148,-0.67595 -0.37552,-1.72742 -0.37552,-1.72742c1.17498,-1.82774 2.39016,-3.62787 3.56976,-5.44848l-0.24299,-0.40496c-0.23908,-0.39847 -0.47816,-0.79695 -0.71724,-1.19543c0,0 -0.58644,-0.97742 0.29404,-1.62554c-0.07481,-0.40407 -0.1469,-0.80868 -0.22182,-1.21336c-0.60698,0.71149 -1.31924,1.309 -2.17371,1.72962c0.03354,0.1632 0.06723,0.32636 0.10108,0.4895l0.24528,1.71255c0,0 0.17677,1.23744 -1.06067,1.41421c-1.23744,0.17677 -1.41421,-1.06066 -1.41421,-1.06066l-0.23289,-1.63461c-0.32807,-1.57396 -0.64087,-3.15082 -0.94317,-4.72964c-0.02093,-0.05103 -0.03717,-0.10229 -0.04944,-0.15324c-0.13028,0.07866 -0.27608,0.13421 -0.43172,0.16099c-0.09932,0.22293 -0.26198,0.41142 -0.46512,0.54261zM250.25964,184.65866c0.18235,0.0521 0.32913,0.12396 0.44694,0.20839c0.09142,-0.18996 0.18154,-0.38072 0.2703,-0.57233c1.08133,-2.33414 2.01576,-4.74787 2.90602,-7.18116c-0.29022,0.24531 -0.78356,0.47626 -1.42602,0.0809c-1.06457,-0.65512 -0.40944,-1.7197 -0.40944,-1.7197c1.91252,-3.10742 4.02711,-6.32559 5.83292,-9.66574c-1.96206,2.59654 -4.0492,5.12454 -6.30585,7.47668c-2.07751,2.42276 -4.33665,4.73781 -6.59741,7.00727c-0.02959,0.36104 -0.20628,0.6387 -0.20628,0.6387c-0.05127,0.0803 -0.10175,0.15975 -0.15147,0.23844c0.22223,0.20319 0.31459,0.44321 0.34209,0.6665c0.12809,-0.36993 0.24614,-0.74322 0.35291,-1.11946c0,0 0.34341,-1.2019 1.54531,-0.85849c1.2019,0.34341 0.85849,1.54531 0.85849,1.54531c-0.24158,0.84032 -0.52873,1.66898 -0.8579,2.47947c0.07555,0.09039 0.13348,0.18301 0.17632,0.26328c0.29794,-0.89381 0.59587,-1.78763 0.89381,-2.68144c0,0 0.39528,-1.18586 1.58113,-0.79058c1.18586,0.39528 0.79058,1.58113 0.79058,1.58113c-0.26604,0.79814 -0.53208,1.59627 -0.79813,2.39441c0.20251,-0.06644 0.45162,-0.07846 0.75567,0.00841zM248.00281,188.44188c0.06241,0.34088 0.12679,0.68115 0.19657,1.02035c0.2242,-0.37252 0.44531,-0.74692 0.6627,-1.12359c-0.15576,-0.08356 -0.27228,-0.18606 -0.35881,-0.29741c-0.11253,0.15945 -0.27328,0.31297 -0.50045,0.40065zM243.13975,186.92851c0.33745,-0.31842 0.64385,-0.71722 0.91843,-1.14948c-0.2542,-0.37439 -0.196,-0.82247 -0.1533,-1.0164c-0.28685,0.70311 -0.54836,1.41514 -0.76514,2.16588zM243.22392,172.11831c0.16723,0.07433 0.2991,0.16225 0.40237,0.2582c0.07121,-0.07358 0.16029,-0.15162 0.26636,-0.21856c0.46108,-0.74847 0.93456,-1.48897 1.43887,-2.21177c-0.58198,0.06717 -1.17017,0.11614 -1.76959,0.15219c-0.00811,0.18073 -0.04378,0.3056 -0.04378,0.3056c-0.15686,0.54903 -0.31374,1.09805 -0.47065,1.64707c0.05704,0.01806 0.11584,0.04035 0.17643,0.06727zM269.63157,141.67517c-0.41091,0.88509 -0.848,1.72766 -1.31021,2.54591c-0.31214,0.6213 -0.62992,1.24133 -0.94171,1.86514l-0.23908,0.47816c0,0 -0.21854,0.43709 -0.65562,0.62804c-0.42881,0.64452 -0.87363,1.28789 -1.33383,1.94019c0.40465,0.23893 0.80989,0.47687 1.21576,0.71373c1.02342,-1.99518 2.44918,-3.78233 3.68187,-5.66809c-0.11051,-0.48639 0.14512,-0.93918 0.14512,-0.93918l0.7815,-1.37953c0.20973,-0.02666 0.4167,-0.08709 0.62282,-0.16248c-0.57064,-0.33119 -1.14283,-0.66012 -1.71542,-0.98864c-0.17007,0.2976 -0.34235,0.59299 -0.52012,0.88511c0.08881,0.02906 0.17845,0.05629 0.26892,0.08164zM237.64403,113.56243c0.96724,-0.95746 1.96168,-1.63587 2.99617,-2.41914c0.05955,-0.38028 0.29054,-0.70371 0.61142,-0.88872l1.15816,-0.69489c0.1917,-0.1196 0.41815,-0.1887 0.66074,-0.1887c0.22064,0 0.42793,0.05717 0.60787,0.1575c1.85157,-2.38035 6.26868,-1.30169 8.8195,-1.10958c1.94107,0.14619 3.22581,-0.48064 4.95651,-0.70537c2.18499,-0.28372 4.56258,1.11756 6.45031,2.00623c0.82099,0.38649 1.81192,0.18726 2.69059,0.41383c2.38527,0.61506 5.10021,2.39982 7.33065,3.53777c1.4988,1.46795 4.98243,3.32698 5.6838,5.31738c0.11416,0.32397 0.09515,3.11895 0.09515,3.82551l-0.37104,1.03718c0,0 -0.0113,0.02261 -0.03391,0.05979c0.13965,0.10375 0.27768,0.20966 0.414,0.31778l0.58119,0.57038c0,0 0.38696,0.38696 0.39276,0.90485c0.21439,0.17946 0.42927,0.35868 0.64435,0.53791l0.03546,-0.08859c0.57209,-1.28536 1.57933,-3.02523 1.57521,-4.53471c-0.00318,-1.16441 -1.13182,-2.66377 -1.33282,-3.72604l-1.14873,-0.68923c-0.37447,-0.21591 -0.62653,-0.62035 -0.62653,-1.08365c0,-0.06409 0.00482,-0.12706 0.01413,-0.18856c-1.55439,-1.5595 -3.1345,-3.16442 -4.80217,-4.57123c-0.1882,-0.15876 -0.40087,-0.31221 -0.60942,-0.4715c-0.22785,0.306 -0.59239,0.5042 -1.00323,0.5042c-0.25027,0 -0.48337,-0.07355 -0.67884,-0.20022l-1.85832,-1.16146c-1.12219,-0.55653 -2.78239,-0.83807 -3.6065,-1.63485c-0.16614,0.08166 -0.35305,0.12752 -0.55067,0.12752c-0.24259,0 -0.46904,-0.06911 -0.66074,-0.1887l-1.1778,-0.70668c-1.34814,-0.84393 -3.13373,-1.31311 -4.89758,-1.5447c-0.01102,0.02488 -0.02288,0.05005 -0.03561,0.07551c-0.55902,1.11803 -1.67705,0.55902 -1.67705,0.55902l-0.31443,-0.17126c-2.4792,-0.82754 -4.89572,-1.2846 -7.4243,-1.63941c-3.01368,0.58186 -5.96285,0.87614 -8.92742,1.85467c-2.82803,2.59412 -4.90957,5.48845 -7.39651,8.48429c0,0 -0.42404,0.50884 -1.02517,0.47705c-0.06481,0.0699 -0.12977,0.13966 -0.19486,0.20929c1.04666,-0.27003 2.14636,-0.52056 3.15284,-0.64015c0.06294,-0.07314 0.10912,-0.11355 0.10912,-0.11355c0.3338,-0.29192 0.66635,-0.58551 0.99641,-0.88188c0.0728,-0.43033 0.37734,-0.73487 0.37734,-0.73487zM256.93735,103.39389c2.77584,0.00785 5.98786,0.46077 8.53979,1.71139c0.09802,-0.02469 0.20063,-0.0378 0.30631,-0.0378c0.20995,0 0.4078,0.05176 0.58151,0.14321l1.41201,0.706l-0.09233,0.18467c1.4996,0.38998 2.85847,0.96052 4.44827,1.75579l0.01487,0.08258c0.00121,-0.00009 0.00242,-0.00017 0.00364,-0.00026l0.03255,-0.05208l0.07852,0.04908h1.64981v0.03364c0.11437,-0.00281 0.22921,0.00167 0.3446,0.0148c2.66468,0.30326 6.11345,4.93413 7.99839,6.82317l0.0236,0.06965l0.02108,-0.01686l0.87208,1.0901c3.68909,2.73522 1.94417,7.91827 0.49888,11.17467l-0.32259,0.80687c0.43994,0.37437 0.8771,0.7522 1.30908,1.1357c0.19344,0.08325 0.31632,0.18155 0.31632,0.18155c0.63082,0.51529 1.19475,1.08843 1.70156,1.70603c0.06173,0.06142 0.12325,0.12305 0.18456,0.18489l0.10317,0.17835c1.14884,1.50226 1.9879,3.23944 2.64706,5.03383c0.00289,0.00542 0.00434,0.00831 0.00434,0.00831l0.32295,0.69378l0.47023,1.64582c0.03641,0.11726 0.05603,0.24192 0.05603,0.37116c0,0.30645 -0.11028,0.58714 -0.29331,0.80456c0.03323,0.95422 -0.04398,1.93365 -0.21362,3.04835l-0.04845,0.06842l0.02913,0.00832l-0.47057,1.64702c-0.09492,0.36335 -0.34923,0.66227 -0.68376,0.81757c-0.01458,0.06454 -0.03086,0.12838 -0.04883,0.19137l-0.01705,0.02294l0.00875,0.00292l-0.46905,1.40715c-0.15709,0.51078 -0.63267,0.88206 -1.19497,0.88206c-0.42687,0 -0.80376,-0.21397 -1.02928,-0.54051c-0.48165,0.36002 -1.05385,0.7056 -1.57479,1.0767c-0.04907,0.14408 -0.13265,0.295 -0.26225,0.45002c-0.80171,0.95904 -1.76075,0.15733 -1.76075,0.15733l-0.86359,-0.72192c-1.10986,-0.92812 -2.25965,-1.79262 -3.43768,-2.61244c-0.18433,-0.05816 -0.32844,-0.1442 -0.40252,-0.19389l0.80817,1.61634l-0.21929,0.10965c1.71285,2.9114 2.76536,5.90985 3.89622,9.36637l0.24595,0.52347c0,0 0.21492,0.4734 0.06225,0.94819c0.0841,0.23669 0.16664,0.47022 0.24787,0.69962l2.05821,1.20063l-0.03367,0.05773c0.51974,0.29836 0.95643,0.55516 1.34051,0.80295c0.35908,0.17602 0.72355,0.36798 1.10476,0.57974c0.01954,-0.00091 0.0392,-0.00137 0.05897,-0.00137c0.48492,0 0.90534,0.27613 1.11262,0.67972c0.06851,0.04098 0.13776,0.08257 0.20776,0.12479l0.09672,0.25298l0.07822,-0.05586l1.18696,1.66175c0.1517,0.20689 0.24129,0.46218 0.24129,0.73839c0,0.34186 -0.13724,0.65166 -0.35962,0.87733l0.04107,0.1176c0.05137,0.13674 0.07947,0.28487 0.07947,0.43956c0,0.10579 -0.01314,0.20851 -0.03788,0.30661c1.15536,2.771 1.01295,6.68377 0.74334,9.18897l-0.24431,1.46869c0,0 -0.17536,1.0521 -1.17397,1.05059c0.00491,2.49701 -0.03173,4.93636 -0.47931,7.43747l-0.0318,0.04948l0.01814,0.00498l-0.50528,1.8377c-0.07281,0.29026 -0.24711,0.54024 -0.48299,0.71005c-0.16705,0.69511 -0.35884,1.37691 -0.61633,2.01154c-0.14149,0.55512 -0.28572,1.10937 -0.43325,1.66273c-0.76078,4.28518 -1.44791,9.28378 -4.53404,12.45213c0,0 -0.229,0.229 -0.57044,0.33731c-1.68579,3.0973 -3.53931,6.10837 -5.48955,9.03552c0,0 -0.60388,0.90582 -1.52987,0.46321c-1.332,1.4933 -2.72325,2.92319 -4.2034,4.29347c0.0539,-0.00454 0.11046,-0.00649 0.16978,-0.00558c0.50063,0.00768 0.79764,0.21281 0.97386,0.45597c0.49605,0.35795 0.49605,1.03298 0.49605,1.03298v1.67357c0,1.94163 0.95848,5.41415 0.71708,7.19334c-0.03646,0.26874 -0.06733,0.57978 -0.11232,0.8947c0.07223,0.15807 0.11249,0.33382 0.11249,0.51898c0,0.51138 -0.30709,0.95104 -0.74692,1.14463c-0.11961,0.10626 -0.26151,0.18182 -0.43082,0.21672c-0.33398,0.06886 -0.63997,-0.01028 -0.93016,-0.17298l-0.08452,0.2113l-1.16838,-0.46735c-0.1517,-0.05665 -0.28946,-0.14192 -0.40668,-0.24925c-0.88883,-0.01396 -1.79436,0.0803 -2.62643,-0.20396c-0.9556,-0.32646 -1.62981,-0.92264 -2.19255,-1.63062c-0.27961,-0.03663 -0.53015,-0.16567 -0.71994,-0.35546l-0.63682,-0.63682c-0.37037,-0.09289 -0.92471,-0.37098 -0.92471,-1.2034c0,-0.25748 0.05304,-0.46193 0.13726,-0.62426c-0.16321,-0.31469 -0.3364,-0.62605 -0.52668,-0.92474c-0.04865,-0.05641 -0.1354,-0.16689 -0.21091,-0.315c-0.18226,-0.25847 -0.38028,-0.50408 -0.59918,-0.73015c-0.10688,-0.01978 -0.21652,-0.05516 -0.32277,-0.11304c-5.14424,3.6321 -10.50988,7.05772 -17.07167,7.06529c-1.57622,0.00182 -5.26327,0.6048 -6.63477,-0.31126c-0.07507,-0.05014 -0.14807,-0.10268 -0.21919,-0.15737l-0.02472,0.03955l-1.74106,-1.08817c-1.89284,-0.42296 -3.73784,-0.96855 -5.64069,-1.21739c-1.86114,0.18357 -3.6924,0.51785 -5.53792,0.7623c0.08158,0.31968 0.04706,0.72389 -0.35717,1.1281c-0.88392,0.88385 -1.76777,-0.00007 -1.76777,-0.00007l-0.31212,-0.31875c-0.14986,-0.18445 -0.30899,-0.36207 -0.47609,-0.53387c-0.31812,0.0144 -0.6373,0.02257 -0.95779,0.02335c0,0 -1.25,0 -1.25,-1.25c0,-0.19565 0.03062,-0.36068 0.08228,-0.49988c-0.69055,-0.47299 -1.41436,-0.92293 -2.12269,-1.38657c-0.20439,0.24969 -0.45407,0.37454 -0.45407,0.37454l-1.05113,0.52075c-3.49848,1.39915 -7.27618,2.42918 -10.97786,3.1732c0,0 -1.22573,0.24514 -1.47087,-0.98058c-0.08984,-0.44922 0.01788,-0.76673 0.19042,-0.98874c-0.01122,-0.65859 0.58368,-1.01919 0.69691,-1.08181c0.9117,-3.36059 1.53638,-7.17085 3.24726,-10.15013c-0.53202,-0.48937 -1.03483,-1.01077 -1.49012,-1.58364c-2.20096,-2.76937 -3.18695,-6.57324 -5.30181,-9.37921c-1.0466,-1.38862 -2.24712,-2.38844 -3.1659,-3.91312c-3.85876,-6.43129 -8.76957,-12.55327 -8.78506,-20.50159c-0.00348,-1.78456 0.48919,-3.60349 1.05993,-5.38409c-0.34969,-0.2216 -0.58185,-0.612 -0.58185,-1.05663c0,-0.26493 0.08242,-0.5106 0.22302,-0.71279c-0.63584,-0.82665 0.1431,-1.60559 0.1431,-1.60559l0.29019,-0.23741c2.5656,-4.27566 5.53112,-8.90856 9.03406,-12.43402c0,0 0.12921,-0.12921 0.33823,-0.23943c0.00636,-0.06581 0.01277,-0.13168 0.01923,-0.1976c0.10191,-1.04041 -0.05822,-2.29536 0.33474,-3.08083c-0.21143,-0.22388 -0.34106,-0.52586 -0.34106,-0.8581c0,-0.20995 0.05176,-0.4078 0.14321,-0.58151l0.68464,-1.36927c0.14457,-0.37381 0.33737,-0.7269 0.56685,-1.05945l0.12921,-0.32302l0.02881,0.01153l0.01006,-0.02349c-0.00131,-0.02244 -0.00262,-0.04487 -0.00393,-0.06731l0.03379,-0.00235l0.02687,-0.0627l-0.02031,-0.01161l0.10114,-0.177l0.07431,-0.17338l0.01989,0.00852l0.05906,-0.10335l-0.01938,-0.0258c0.0101,-0.01422 0.02032,-0.02845 0.03064,-0.04269l-0.15645,-0.12516l0.94913,-1.1864c0.10362,-0.13182 0.23318,-0.2423 0.38099,-0.32373l-0.00483,-0.00276l0.1298,-0.22714c0.02283,-0.07395 0.05233,-0.14497 0.08781,-0.21236l0.94508,-1.89017l0.01583,0.00791l0.00645,-0.05041c0.70421,-1.17354 2.53229,-4.27769 4.3007,-5.82923c-0.62237,-0.18274 -0.82059,-0.87654 -0.82059,-0.87654c-1.09078,-3.91108 -0.34005,-7.84812 1.64507,-11.16318c0.35398,-3.83311 4.62314,-6.93445 8.26693,-8.67598c0.08111,-0.14538 0.19041,-0.2729 0.3205,-0.37515l1.1864,-0.94912l0.01954,0.02443c0.02858,-0.03421 0.05777,-0.06797 0.08763,-0.10126c1.64105,-1.82912 6.29511,-2.23347 8.54666,-2.80054l0.05397,0.01208l-0.00359,-0.02154l1.15558,-0.19259l0.47018,-0.2015l0.01561,0.03642c0.04578,-0.03119 0.09219,-0.06156 0.13929,-0.09107c0.29229,-0.18312 0.64417,-0.1979 1.00131,-0.20341c0.08966,-0.39699 0.36499,-0.67232 0.36499,-0.67232c2.37802,-2.37802 4.67176,-4.89311 6.53817,-7.69926l0.7573,-1.01295c0,0 0.53143,-0.70858 1.29606,-0.48548c0.98307,-1.06398 2.03129,-2.09197 3.20722,-3.07198l0.15543,-0.16269c0,0 0.88388,-0.88388 1.76777,0c0.00559,0.00559 0.01111,0.01118 0.01656,0.01677c1.63509,-0.39184 3.26987,-0.65153 4.91791,-0.93226c0.35741,-0.75048 1.27011,-0.6364 1.27011,-0.6364c0.43029,0.0538 0.85681,0.10901 1.28026,0.1667c0.22773,-0.04687 0.45585,-0.0956 0.68437,-0.14659l0.51024,-0.02977c0,0 0.69174,0 1.04604,0.51458c1.25122,0.2107 2.48553,0.46087 3.72175,0.77925c0.26242,-0.09842 0.49204,-0.09842 0.49204,-0.09842zM228.24127,130.67369l0.54495,-0.08156c0.27647,-0.53417 0.92919,-0.64296 0.92919,-0.64296c0.92413,-0.15134 1.75054,-0.38244 2.56796,-0.66434c0.38218,-0.16093 0.76447,-0.32089 1.14688,-0.47974l0.03934,-0.9365c0,0 0.2055,-1.23299 1.43849,-1.0275c1.23299,0.2055 1.0275,1.43849 1.0275,1.43849l-0.03861,0.17004c0.172,0.11986 0.32951,0.30755 0.44437,0.59472c0.46424,1.1606 -0.69636,1.62484 -0.69636,1.62484l-0.06965,0.02786c-0.12463,0.04982 -0.24813,0.09917 -0.37068,0.14797c3.01787,0.00639 6.16177,-0.34193 8.6534,-1.0835c1.13054,-0.33648 1.54,-0.83153 1.77261,-1.3552l-0.41013,-1.64054c-0.76317,-1.89149 -1.59528,-3.47342 -2.88703,-5.08333c0,0 -0.2957,-0.36962 -0.29572,-0.83592c-0.25812,-0.30007 -0.52775,-0.59089 -0.811,-0.87118l-0.71376,0.37562c-0.85628,-0.85709 -1.43802,-2.16329 -2.58419,-2.55585c-2.62797,-0.90008 -6.57014,2.36192 -9.14232,1.44206c-0.02542,0.03554 -0.05265,0.06969 -0.08157,0.10231l0.03476,0.08111l-0.2343,0.10041c-0.09112,0.06652 -0.19159,0.12102 -0.29906,0.16115l-1.14206,0.45683c-0.15062,0.06433 -0.31643,0.09993 -0.49056,0.09993c-0.18357,0 -0.35789,-0.03957 -0.51491,-0.11064c-1.43694,0.46078 -3.63962,1.426 -5.43571,1.78487c-0.08562,0.10879 -0.18892,0.20301 -0.30556,0.27834l-1.41837,0.94558l-0.03032,-0.04548l-0.08693,0.11473c-1.37812,0.53693 -3.72792,1.65313 -5.63184,3.06538c0.01833,0.0208 0.03657,0.04252 0.0547,0.06519c0.78087,0.97608 -0.19521,1.75696 -0.19521,1.75696l-1.14264,0.91166c-2.67257,2.66234 -4.27291,6.44411 -3.80204,10.21609c1.69649,-0.57031 3.38073,-1.18366 5.05562,-1.82753c0.10448,-0.14755 0.24013,-0.27145 0.39737,-0.36211l1.17577,-0.70546l0.01961,0.03267l0.05444,-0.07376c0.7152,-0.30729 1.44721,-0.58163 2.18893,-0.83624c0.23307,-0.11836 0.48622,-0.23547 0.75847,-0.36853l-0.11638,-0.20948l2.1319,-1.18439c0.18429,-0.10704 0.39844,-0.16833 0.6269,-0.16833c0.40593,0 0.76667,0.1935 0.99501,0.49329c1.98714,-0.85478 3.96766,-1.72386 5.94663,-2.58545c0.23025,-0.6102 0.94208,-0.75257 0.94208,-0.75257zM229.91367,132.96154c-0.23022,0.09559 -0.46024,0.1911 -0.68961,0.28707c0.71695,1.82938 1.23949,3.72377 1.65947,5.65079c0.0289,-0.006 0.05778,-0.01204 0.08665,-0.01811c0.38298,-1.88928 0.70003,-3.80054 1.013,-5.68031c-0.7152,-0.06123 -1.40843,-0.14143 -2.06951,-0.23944zM285.21973,144.43618l0.39358,-1.37756c0.14026,-0.53694 0.62861,-0.93317 1.2095,-0.93317c0.07324,0 0.14502,0.0063 0.21481,0.01839l0.22852,-1.14259c0.05318,-0.29606 0.2106,-0.55594 0.43292,-0.74027c-0.00138,-1.11598 -0.1922,-2.1507 -0.62759,-3.42368c0,0 -0.03849,-0.11548 -0.05542,-0.28639c-0.25529,-0.65072 -0.54068,-1.29586 -0.86678,-1.91602c-0.2688,-0.1915 -0.41177,-0.44171 -0.41177,-0.44171l-0.8644,-1.53501c-2.95187,-2.92231 -6.31092,-5.37612 -9.31826,-8.15704c-1.43601,-0.74913 -2.98504,-1.32343 -4.52353,-1.7901c-0.32495,0.32919 -0.78932,0.38724 -0.78932,0.38724l-1.79119,0.21777c-1.94689,0.65438 -3.95623,0.99267 -5.98168,1.25295c-2.45362,1.5901 -4.61501,3.63933 -7.12975,4.95262c2.64033,0.71697 5.01759,2.13449 7.44458,3.42585c5.54722,2.95157 10.83987,6.22844 15.77435,10.10974c1.55856,1.037 3.07675,2.13895 4.52996,3.34695c0.89333,-0.69124 1.52436,-1.2922 2.13146,-1.96796zM268.44004,151.26471l0.11642,0.09271c0.94482,0.39055 1.91102,0.7075 2.85321,0.93797c0.55585,-0.62386 1.10799,-1.24132 1.67213,-1.77564c-0.44401,-0.62579 0.00959,-1.35155 0.00959,-1.35155c0.49747,-0.79591 0.99336,-1.59289 1.48131,-2.39467c0.00194,-0.29084 0.09168,-0.51517 0.09168,-0.51517l0.46737,-1.16838c0.13675,-0.36622 0.44031,-0.6511 0.81825,-0.76221c-0.76993,-0.49225 -1.54844,-0.97106 -2.3325,-1.44133c-1.50583,2.92675 -3.80835,5.39209 -5.17746,8.37827zM243.30959,225.6748l-2.00129,-0.00315c-1.22573,-0.1729 -2.45043,-0.34615 -3.67678,-0.51002c-0.41565,0.11285 -0.72812,0.02656 -0.95644,-0.12568c-0.23093,-0.02979 -0.46193,-0.05917 -0.69304,-0.08804c0,0 -1.13563,-0.14194 -1.0978,-1.24082c-1.10718,-0.44566 -2.25611,-0.8977 -3.27904,-1.11513c-0.34274,0.21384 -0.72796,0.21385 -0.72796,0.21385l-0.13478,-0.04809c-1.63539,0.46427 -3.25241,0.78361 -4.89438,0.87847c-0.2991,1.00843 -1.39252,0.8262 -1.39252,0.8262l-1.56581,-0.26831c-2.31211,-0.91637 -3.75753,-1.85932 -5.39393,-3.73745c0,0 -0.16121,-0.18808 -0.25638,-0.46856l-1.65992,-0.75946c-1.62854,-1.08803 -5.97145,-3.67231 -6.70646,-6.01066c-0.39111,-0.07858 -0.71618,-0.3397 -0.88257,-0.69069l-0.67267,-1.34534c-0.22468,-0.31966 -0.43813,-0.68688 -0.58677,-1.07064c-0.07778,0.01514 -0.15814,0.02308 -0.24034,0.02308c-0.4633,0 -0.86774,-0.25205 -1.08365,-0.62652l-0.6949,-1.15815c-0.04728,-0.07579 -0.08668,-0.15702 -0.11703,-0.24253c-1.46962,-3.34255 -4.01165,-5.94028 -5.45168,-9.21037c-1.65221,-3.75191 -2.87765,-8.03938 -3.45352,-12.07042c0,0 -0.11245,-0.78713 0.4698,-1.19551c-0.13501,-1.79719 -0.0173,-3.51814 0.45609,-5.51237c-0.02354,-0.20707 0.01264,-0.44782 0.14985,-0.72225c0.15178,-0.30356 0.34477,-0.4835 0.54541,-0.58455c0.23694,-1.40135 0.54977,-2.75118 1.08562,-4.10235c0,0 0.08163,-0.20407 0.262,-0.40684c0.72779,-2.2949 1.6546,-4.40875 2.94669,-6.48576c0,0 0.27637,-0.44219 0.75771,-0.57686c0.57532,-1.40989 1.26413,-2.70862 1.74635,-4.17669c0,0 0.22374,-0.67124 0.83958,-0.83536l0.2328,-0.37248c0.63232,-1.1069 1.26471,-2.21374 1.89717,-3.32055c0,0 0.14556,-0.25473 0.41905,-0.44685c1.8098,-2.89944 3.71894,-5.1647 6.35177,-7.30066c1.03646,-1.38786 2.25926,-2.63627 3.6142,-3.71955c-0.26908,-0.79096 0.47007,-1.3452 0.47007,-1.3452l0.97895,-0.73386c3.09081,-2.24187 5.7474,-5.0876 9.42684,-6.09076c-0.33288,-1.43668 -0.73389,-2.85009 -1.24573,-4.22391c-1.56441,0.68095 -3.2053,1.20347 -4.85991,1.70539c-1.85712,0.81189 -3.73286,1.59933 -5.61949,2.35221c-1.46955,1.00399 -3.27198,1.77506 -4.83472,2.48064c0.01647,0.08094 0.0251,0.1647 0.0251,0.2505c0,0.499 -0.29239,0.92971 -0.71519,1.13014l-1.34185,0.67093c-1.85038,1.91869 -3.61452,3.8545 -5.02446,6.20177l-0.09235,0.18471c-0.00977,0.21149 -0.0721,0.40925 -0.17423,0.58053l-0.94545,1.65452l-0.12958,-0.07404c-0.0614,0.04304 -0.12684,0.08069 -0.19564,0.11228c-0.00061,0.00156 -0.00122,0.00313 -0.00183,0.00469c-0.02432,0.16398 -0.08048,0.31758 -0.162,0.45431l-0.2118,0.37065c-0.07994,0.15251 -0.1651,0.302 -0.25599,0.44798l-0.30557,0.53474l-0.53432,1.24674c0.03175,0.11014 0.04877,0.22654 0.04877,0.3469c0,0.14846 -0.02588,0.29087 -0.07337,0.42297l-0.46894,1.40682l-0.05711,-0.01904c-0.11543,3.63861 -0.61368,7.34622 -1.25196,10.87431l-0.34507,1.274c0,0 -0.33129,1.20529 -1.53659,0.874c-0.54164,-0.14888 -0.77297,-0.47424 -0.86351,-0.78742c-0.84987,1.33894 -1.60375,2.73372 -2.19886,4.13895l-0.86617,1.21393c0,0 -0.75,1 -1.75,0.25001c-0.09517,-0.07137 -0.17449,-0.145 -0.2401,-0.21983c-0.76126,2.36936 -1.81791,4.93079 -1.82441,7.3632c-0.01982,7.42045 4.83817,13.20162 8.42896,19.18629c0.88461,1.48155 2.02995,2.37141 3.05029,3.73759c2.07641,2.78021 3.03491,6.56309 5.21786,9.26928c2.78396,3.45126 7.06455,5.07328 9.42405,8.98883l-0.14109,0.20375c1.6558,1.34623 3.55638,2.35179 5.17949,3.66286c1.52314,-0.11433 3.02859,-0.35282 4.53846,-0.58104c0.3474,-0.54528 1.06637,-0.54528 1.06637,-0.54528c0.69618,0.00193 1.38043,0.051 2.05718,0.13324c0.82163,-0.08113 1.64896,-0.13253 2.48541,-0.13324h0.23908c0,0 1.00131,0 1.21156,0.89617c0.76741,0.18322 1.53637,0.37404 2.3137,0.55091c0.10935,0.0156 0.21415,0.04535 0.31247,0.08734l1.14206,0.45682c0.32265,0.12047 0.58217,0.37043 0.71533,0.68666l0.21638,0.13523c2.57915,-0.45865 5.56602,0.40897 8.17898,-0.15703c2.6107,-0.56551 4.93866,-1.50686 7.1443,-2.68272c-2.68025,0.72963 -5.46039,1.0841 -8.08518,1.09209c0,0 -1.25,0 -1.25,-1.25c0,-0.09582 0.00735,-0.18431 0.02091,-0.266c-0.24199,0.0815 -0.44449,0.08151 -0.44449,0.08151zM282.08607,164.25976c0,0 0.02025,0.16194 -0.01241,0.37611c0.46254,2.75749 0.36342,5.90786 0.0182,8.73853l-0.00039,0.22868c-0.52763,3.18058 -0.4739,6.47799 -0.4739,9.69932c0,0 0,0.92861 -0.80038,1.18508c0.13148,0.3705 0.05885,0.73365 0.05885,0.73365l-0.24457,1.22143c-0.68903,3.09997 -1.31563,6.27876 -2.73212,9.13397c0,0 -0.04956,0.09913 -0.14869,0.2236c-0.9615,2.63264 -1.77162,5.33141 -2.65248,7.98059c0,0 -0.15794,0.47384 -0.57368,0.72263c-1.03062,2.57378 -2.12322,5.22888 -3.56045,7.63796c0.53449,0.97022 -0.42277,1.60842 -0.42277,1.60842l-0.60184,0.39121c-0.2957,0.25067 -0.59049,0.50204 -0.88474,0.75365c-0.37552,0.46123 -0.7719,0.90526 -1.19192,1.32891c0,0 -0.3425,0.3425 -0.81431,0.38789c-1.3974,1.19021 -2.80176,2.36104 -4.25288,3.46103c0.35608,0.03397 0.66858,0.21733 0.87412,0.48669c2.40916,-1.37963 4.5259,-3.14235 6.41572,-5.2761l1.43641,-1.70512c0,0 0.34123,-0.40501 0.84309,-0.46569c1.69732,-1.86986 3.29121,-3.84425 4.84909,-5.9318l0.35699,-0.37535c0,0 0.05843,-0.05843 0.16026,-0.13022c1.57452,-2.67008 3.03502,-5.4084 4.32679,-8.21405l0.46849,-1.44063c0,0 0.09367,-0.2867 0.32981,-0.53243l0.19299,-0.62284c0.13891,-0.44816 0.26628,-0.90702 0.38627,-1.37339c-0.00957,-0.06235 -0.01453,-0.12622 -0.01453,-0.19124c0,-0.11435 0.01535,-0.22513 0.04412,-0.33036l0.59953,-2.39817l0.04519,0.0113c0.01387,-0.06272 0.02776,-0.12546 0.04167,-0.18821c0.38432,-2.23272 0.64701,-5.04016 1.47784,-7.1833c-0.00754,-0.60373 0.05679,-1.2875 0.18248,-2.17109v-1.36795c0,-0.474 0.26383,-0.88638 0.65265,-1.0983c-0.12806,-2.824 -0.26932,-5.76828 0.52119,-7.94515c-0.00952,-0.00815 -0.01884,-0.01641 -0.02796,-0.02479l-0.20035,0.03642l-0.0743,-0.40863c-0.11314,-0.22628 -0.14143,-0.42428 -0.14143,-0.42428l-0.23604,-1.6523c-0.01027,-0.06451 -0.0156,-0.13066 -0.0156,-0.19806c0,-0.69036 0.55964,-1.25 1.25,-1.25c0.01511,0 0.03016,0.00027 0.04514,0.0008c-0.09133,-0.50356 -0.18222,-1.00759 -0.26655,-1.51341l-0.32387,-0.75571l-0.17384,0.05215l-0.09795,-0.32652l-0.2201,-0.11005l0.00639,-0.01279c-0.0163,-0.00316 -0.03258,-0.00633 -0.04888,-0.00949l-1.23702,-0.74114c0,0 -0.85891,-0.51534 -0.57768,-1.39226c-0.11143,-0.06588 -0.22899,-0.13354 -0.35396,-0.20458c-0.22184,0.34842 -0.61152,0.57955 -1.05517,0.57955c-0.34519,0 -0.65769,-0.13992 -0.88389,-0.36613l-0.59249,-0.59249c0.13635,0.67414 0.24601,1.32617 0.32589,1.94441zM205.84745,227.68331c2.74561,-0.64787 5.48588,-1.47312 8.06879,-2.50644l0.28484,-0.14402c-0.0602,-0.05186 -0.11977,-0.10421 -0.17865,-0.1571c0,0 -0.60173,-0.54155 -0.40088,-1.23727c-1.39703,-1.84088 -3.30579,-3.14995 -5.13585,-4.55326c-1.36341,2.50646 -1.92037,5.74248 -2.63826,8.59808zM267.28156,221.33647c0,0 -0.24663,0.19731 -0.59114,0.26959c-1.09475,0.74872 -2.24741,1.41823 -3.46529,2.0074c0.06144,0.08483 0.12169,0.17063 0.18081,0.25726c1.09354,1.20675 2.12309,4.22495 3.69608,4.61757c1.01716,0.25388 2.0977,0.07893 3.13893,0.20149c-0.35233,-1.04234 -0.52489,-2.10661 -0.60896,-3.19537c-0.61856,-0.37024 -0.55163,-1.17341 -0.55163,-1.17341c0.06827,-0.81636 0.13654,-1.63272 0.20481,-2.44908l0.0301,-2.00888c0,0 0.0017,-0.1107 0.03703,-0.2657c-0.67082,0.59098 -1.36023,1.17059 -2.07074,1.73914zM264.69994,152.19356c-0.01464,-0.00874 -0.02926,-0.0175 -0.04387,-0.02627l-0.05188,0.10872c0,0 -0.54948,0.0071 -0.92449,-0.35245c-2.5894,3.01849 -5.04961,6.12796 -7.58442,9.18881c0.51243,0.72547 -0.1103,1.47275 -0.1103,1.47275c-1.06101,1.26747 -2.18644,2.39151 -3.28398,3.54035c-0.13459,0.21463 -0.26823,0.42966 -0.40086,0.64506l-1.54787,1.99702c0,0 -0.29954,0.38588 -0.76534,0.48793c-0.21077,0.28277 -0.41657,0.57336 -0.61651,0.87346l-0.32073,0.34858l-0.51714,0.93354l-0.06025,-0.03338l-0.03441,0.17929c-1.0416,1.0528 -2.01494,2.12376 -2.95312,3.22344c-0.11584,0.1619 -0.23218,0.32875 -0.3478,0.50211l-0.98297,1.70985c0,0 -0.21963,0.38174 -0.62476,0.56167c-0.13313,0.20953 -0.26792,0.41819 -0.40482,0.62572l-0.20595,0.31214c0,0 -0.6884,1.04336 -1.73176,0.35496c-0.00359,-0.00237 -0.00716,-0.00475 -0.01071,-0.00712c0.08678,0.48646 0.17392,0.97286 0.26153,1.45917c1.71375,-1.7112 3.45691,-3.44062 5.1428,-5.21688c0.05295,-0.48965 0.43104,-0.83337 0.43104,-0.83337c0.92761,-0.84191 1.82572,-1.71893 2.69728,-2.62393c0.3049,-0.35701 0.60561,-0.71646 0.90149,-1.07854l1.27658,-1.63952c0,0 0.07408,-0.09513 0.20578,-0.20331c-0.09004,-0.54973 0.29118,-1.01567 0.29118,-1.01567c2.29576,-2.8059 4.56996,-5.54549 6.63406,-8.52697l0.46583,-0.69911c0,0 0.37751,-0.56625 0.99324,-0.58458c0.34684,-0.43581 0.69073,-0.87354 1.03177,-1.31339c0.07607,-0.21539 0.22312,-0.48592 0.50378,-0.65399c0.39231,-0.51263 0.78086,-1.02826 1.16582,-1.54724c0.50307,-0.73309 1.01725,-1.44585 1.52179,-2.16885zM264.91084,156.26208c0,0 -0.07139,0.10709 -0.20273,0.22964c-0.0462,0.06149 -0.09244,0.12294 -0.13873,0.18434c0.06156,0.04546 0.12342,0.09865 0.18529,0.16052c0.02378,0.02378 0.04626,0.04755 0.06753,0.0713c0.72499,0.1036 1.3933,0.17625 2.1289,0.15171c-0.27816,-0.94234 0.66418,-1.41351 0.66418,-1.41351c0.65252,-0.30006 1.26661,-0.76279 1.85857,-1.30853c-0.58531,-0.18658 -1.16922,-0.39889 -1.74573,-0.63503c-0.21562,-0.04829 -0.39115,-0.14435 -0.48901,-0.20681c-0.08796,-0.03839 -0.17572,-0.07733 -0.26323,-0.1168c-0.58313,0.82568 -1.17417,1.64225 -1.77375,2.45089c-0.0976,0.14321 -0.19474,0.28723 -0.29129,0.43228zM194.68403,168.65811c-0.33975,0.49708 -0.673,0.99854 -1.00004,1.50162c0.02856,0.03985 0.05341,0.08034 0.07492,0.12118c0.29218,-0.54672 0.60143,-1.08836 0.92513,-1.62281zM276.49196,148.42748c-0.03082,0.05033 -0.06167,0.10065 -0.09254,0.15096c0.04348,0.00563 0.08541,0.01315 0.12539,0.02195c-0.01146,-0.05779 -0.02242,-0.11543 -0.03285,-0.17291z" fill="#000000" stroke-width="0.5"></path>
      <path d="M265.15471,155.84565c0.59958,-0.80864 1.2368,-1.69104 1.81993,-2.51672c0.08751,0.03947 0.18276,0.07879 0.27072,0.11718c0.09786,0.06246 0.28822,0.16279 0.50384,0.21108c0.57651,0.23614 1.18637,0.47683 1.77168,0.66341c-0.59196,0.54574 -1.21241,1.05451 -1.86493,1.35457c0,0 -0.98493,0.49205 -0.70677,1.43439c-0.7356,0.02454 -1.44167,-0.06765 -2.16666,-0.17125c-0.02127,-0.02375 -0.04479,-0.04893 -0.06857,-0.07271c-0.06187,-0.06187 -0.12601,-0.11856 -0.18757,-0.16402c0.04629,-0.0614 0.09171,-0.12429 0.13791,-0.18578c0.13134,-0.12255 0.20171,-0.2316 0.20171,-0.2316c0.09655,-0.14505 0.19112,-0.29533 0.28872,-0.43854z" fill="#2d1212" stroke-width="0.5"></path>
      <path d="M247.96227,188.41263c0.22717,-0.08768 0.43343,-0.26171 0.54596,-0.42116c0.08653,0.11135 0.23413,0.22895 0.38989,0.31251c-0.21739,0.37667 -0.49013,0.83323 -0.71433,1.20575c-0.06978,-0.3392 -0.15913,-0.75623 -0.22154,-1.09711z" fill="#2d1212" stroke-width="0.5"></path>
      <path d="M243.12022,186.97454c0.21678,-0.75074 0.5114,-1.55692 0.79825,-2.26003c-0.0427,0.19393 -0.06501,0.68296 0.18919,1.05735c-0.27458,0.43226 -0.64998,0.88426 -0.98743,1.20268z" fill="#2d1212" stroke-width="0.5"></path>
      <path d="M250.25435,184.70837c-0.30405,-0.08687 -0.55709,-0.07543 -0.7596,-0.00899c0.26605,-0.79814 0.54809,-1.69495 0.81413,-2.49309c0,0 0.37301,-1.08877 -0.81285,-1.48405c-1.18585,-0.39528 -1.54183,0.69908 -1.54183,0.69908c-0.29794,0.89381 -0.59811,1.78649 -0.89605,2.6803c-0.04284,-0.08027 -0.14519,-0.08331 -0.22074,-0.1737c0.32917,-0.81049 0.61401,-1.64042 0.85559,-2.48074c0,0 0.33373,-1.20924 -0.86817,-1.55265c-1.2019,-0.34341 -1.47343,0.78904 -1.47343,0.78904c-0.10677,0.37624 -0.29664,0.81904 -0.42473,1.18897c-0.0275,-0.22329 -0.12263,-0.46622 -0.34486,-0.66941c0.04972,-0.07869 0.0999,-0.15849 0.15117,-0.23879c0,0 0.1753,-0.27934 0.20489,-0.64038c2.26076,-2.26946 4.56695,-4.66489 6.64446,-7.08765c2.25665,-2.35214 4.36454,-4.8718 6.3266,-7.46834c-1.80581,3.34015 -3.89968,6.60781 -5.8122,9.71523c0,0 -0.73167,1.01421 0.3329,1.66933c0.64246,0.39536 1.20451,0.23428 1.49473,-0.01103c-0.89026,2.43329 -1.86767,4.86904 -2.949,7.20318c-0.08876,0.19161 -0.1802,0.38231 -0.27162,0.57227c-0.11781,-0.08443 -0.26703,-0.15649 -0.44938,-0.20859z" fill="#2d1212" stroke-width="0.5"></path>
      <path d="M240.40523,162.01869c-0.5553,0.52467 -1.08709,1.2946 -1.48364,2.16107c-0.64596,-3.31671 -1.26288,-6.67175 -2.20727,-9.87528c0.13395,-0.12472 0.26976,-0.25626 0.40845,-0.39102c0.37033,-0.09099 0.93164,-0.3731 0.93164,-1.21123c0,-1.25 -1.15023,-1.2484 -1.15023,-1.2484l-1.12286,0.36404c-0.11039,0.11149 -0.21965,0.22628 -0.32797,0.34384c-0.17665,-0.02491 -0.38158,-0.00924 -0.61789,0.06953c-0.80304,0.26768 -0.88125,0.8929 -0.8479,1.2719c-0.22255,0.10363 -0.54187,0.13805 -0.75987,0.04435l-0.16185,-1.93574c-0.47515,-2.2269 -0.8134,-4.52509 -1.16961,-6.8035c0.42543,-0.36781 0.42696,-0.97995 0.42696,-0.97995l-0.04826,0.10462c0.06524,-0.23009 0.12992,-0.46284 0.192,-0.69461c0.46086,-0.29785 0.55928,-0.88297 0.55928,-0.88297l0.05731,-0.34285l0.00003,0.00003c0.06449,-0.38876 0.13114,-0.77776 0.19747,-1.16258c0.70583,-0.17603 1.41538,-0.35408 2.12431,-0.49472c0.1531,0.15549 0.37486,0.38385 0.52764,0.53992c0.03709,0.12717 0.07703,0.20645 0.07703,0.20645c1.66662,3.32416 3.87374,6.42749 6.01101,9.52618c-0.09346,0.1669 -0.15149,0.37404 -0.15149,0.64748c0,1.25 1.2509,1.23654 1.2509,1.23654c0.06787,-0.00045 0.13556,-0.00167 0.20312,-0.00336c0.12825,0.19006 0.25426,0.37082 0.38105,0.56101l0.0474,0.07038c0,0 0.68124,1.01938 1.7213,0.326c0.64559,-0.43039 0.53815,-0.96759 0.42837,-1.33348c2.87845,-0.70405 5.64569,-2.26462 8.43102,-3.36601c1.2173,0.32624 2.44667,0.62736 3.64927,1.02904l1.14416,0.46017c0.15061,0.06432 0.31653,0.1006 0.49066,0.1006c0.28675,0 0.55088,-0.09707 0.76179,-0.25945c0.37163,0.1921 0.75773,0.37883 1.14279,0.55725c-0.21636,0.25383 -0.43167,0.51069 -0.64646,0.76563c-0.62401,-0.03661 -1.04888,0.51145 -1.04888,0.51145c-2.04553,2.63069 -4.10169,5.35999 -6.03022,8.11575c-0.1014,0.12181 -0.20461,0.24501 -0.30629,0.36664l-0.86678,1.13436c0,0 -0.18439,0.24066 -0.25266,0.57409c-0.30032,0.44859 -0.60241,0.90154 -0.89516,1.35355c-2.06736,-2.80255 -8.92383,-3.48422 -11.06969,-1.4567z" fill="#2d1212" stroke-width="0.5"></path>
      <path d="M267.29115,221.28741c0.71051,-0.56855 1.41529,-1.14241 2.08611,-1.73339c-0.03533,0.155 -0.03616,0.26621 -0.03616,0.26621l-0.01858,2.01845c-0.06827,0.81636 -0.12403,1.66973 -0.1923,2.48609c0,0 -0.07147,0.82052 0.54709,1.19076c0.08407,1.08876 0.24185,2.1715 0.59418,3.21384c-1.04123,-0.12256 -2.14808,0.06263 -3.16524,-0.19125c-1.57299,-0.39262 -2.6566,-3.46473 -3.75014,-4.67148c-0.05912,-0.08663 -0.11898,-0.17581 -0.18042,-0.26064c1.21788,-0.58917 2.41914,-1.3012 3.51389,-2.04992c0.34451,-0.07228 0.60157,-0.26867 0.60157,-0.26867z" fill="#565656" stroke-width="0.5"></path>
      <path d="M205.8126,227.71916c0.71789,-2.8556 1.29284,-6.17456 2.65625,-8.68102c1.83006,1.40331 3.80554,2.76298 5.20257,4.60386c-0.20085,0.69572 0.39785,1.25122 0.39785,1.25122c0.05888,0.05289 0.11811,0.10612 0.17831,0.15798l-0.28593,0.14658c-2.58291,1.03332 -5.40344,1.87351 -8.14905,2.52138z" fill="#565656" stroke-width="0.5"></path>
      <path d="M243.18842,172.15351c-0.06059,-0.02692 -0.12332,-0.05368 -0.18036,-0.07174c0.15691,-0.54902 0.32007,-1.16618 0.47693,-1.71521c0,0 0.04342,-0.13051 0.05153,-0.31124c0.59942,-0.03605 1.24727,-0.0784 1.82925,-0.14557c-0.50431,0.7228 -1.02631,1.54765 -1.48739,2.29612c-0.10607,0.06694 -0.2019,0.14242 -0.27311,0.216c-0.10327,-0.09595 -0.24963,-0.19404 -0.41686,-0.26837z" fill="#565656" stroke-width="0.5"></path>
      <path d="M247.00453,163.82794c1.27023,0.36153 2.62626,0.67022 2.5478,2.10567c-0.26162,0.29267 -0.52255,0.60257 -0.7758,0.90747c-0.30554,-0.03692 -0.558,0.03794 -0.558,0.03794c-0.91151,0.26311 -1.8854,0.48983 -2.82902,0.58821c-0.70663,0.07368 -1.45321,0.14302 -2.16258,0.18248c-0.73395,0.04083 -1.49712,0.27604 -2.21287,0.10856c-1.26751,-0.29659 1.02233,-4.34533 1.82918,-4.53681c1.17733,-0.2794 3.05159,0.29065 4.16128,0.60648z" fill="#565656" stroke-width="0.5"></path>
      <path d="M264.73225,152.15537c-0.50454,0.723 -1.01814,1.43626 -1.52121,2.16935c-0.38496,0.51898 -0.77313,1.03494 -1.16544,1.54757c-0.28066,0.16807 -0.42754,0.43875 -0.50361,0.65414c-0.34104,0.43985 -0.75209,0.95167 -1.09893,1.38748c-0.61573,0.01833 -0.92697,0.50971 -0.92697,0.50971l-0.46542,0.69947c-2.0641,2.98148 -4.3878,5.80587 -6.68356,8.61177c0,0 -0.34913,0.37124 -0.25909,0.92097c-0.1317,0.10818 -0.23888,0.29765 -0.23888,0.29765l-1.28222,1.63699c-0.29588,0.36208 -0.59862,0.7204 -0.90352,1.07741c-0.87156,0.905 -1.77384,1.77929 -2.70145,2.6212c0,0 -0.37756,0.3441 -0.43051,0.83375c-1.68589,1.77626 -3.43162,3.50373 -5.14537,5.21493c-0.08761,-0.48631 -0.1772,-0.97483 -0.26398,-1.46129c0.00355,0.00237 0.07496,-0.06872 0.07855,-0.06635c1.04336,0.6884 1.72931,-0.35708 1.72931,-0.35708l0.14295,-0.23448c0.1369,-0.20753 0.33499,-0.4936 0.46812,-0.70313c0.40513,-0.17993 0.5616,-0.48414 0.5616,-0.48414l0.98198,-1.71067c0.11562,-0.17336 0.29695,-0.41621 0.41279,-0.57811c0.93818,-1.09968 1.91077,-2.17127 2.95237,-3.22407l-0.02978,-0.10261l0.06063,0.0337l0.51585,-0.93465l0.32078,-0.34853c0.19994,-0.3001 0.47316,-0.66454 0.68393,-0.94731c0.4658,-0.10205 0.76289,-0.49008 0.76289,-0.49008l1.48133,-1.92248c0.13263,-0.2154 0.25113,-0.46337 0.38572,-0.678c1.09754,-1.14884 2.24019,-2.23805 3.3012,-3.50552c0,0 0.68212,-0.82739 0.16969,-1.55286c2.53481,-3.06085 4.9985,-6.16791 7.5879,-9.1864c0.37501,0.35955 0.92654,0.35409 0.92654,0.35409l0.05182,-0.10877c0.01461,0.00877 0.02934,0.01762 0.04398,0.02636z" fill="#565656" stroke-width="0.5"></path>
      <path d="M269.3497,141.64183c0.17777,-0.29213 0.37868,-0.68328 0.54874,-0.98088c0.57259,0.32852 1.16256,0.66777 1.7332,0.99896c-0.20612,0.07539 -0.47682,0.21277 -0.68655,0.23943l-0.71793,1.30244c0,0 -0.24713,0.46265 -0.13662,0.94904c-1.23269,1.88576 -2.72036,3.74613 -3.74378,5.74131c-0.40587,-0.23686 -0.82307,-0.48222 -1.22772,-0.72115c0.4602,-0.6523 0.90197,-1.29844 1.33078,-1.94296c0.43708,-0.19095 0.65613,-0.62754 0.65613,-0.62754l0.23489,-0.48271c0.31179,-0.62381 0.66585,-1.32532 0.97799,-1.94662c0.46221,-0.81825 0.91829,-1.65809 1.3292,-2.54318c-0.09046,-0.02534 -0.20953,0.04293 -0.29834,0.01386z" fill="#565656" stroke-width="0.5"></path>
      <path d="M232.00574,133.15636c-0.31297,1.87977 -0.64641,3.88527 -1.02939,5.77455c-0.02887,0.00607 -0.05922,0.01227 -0.08812,0.01827c-0.41998,-1.92702 -0.97008,-3.91565 -1.68703,-5.74503c0.22937,-0.09597 0.47094,-0.19572 0.70116,-0.29131c0.66108,0.09801 1.38818,0.18229 2.10338,0.24352z" fill="#565656" stroke-width="0.25"></path>
      <path d="M237.69382,113.56737c0,0 -0.30439,0.30269 -0.37719,0.73302c-0.33006,0.29637 -0.66252,0.58779 -0.99632,0.87971c0,0 -0.04618,0.04015 -0.10912,0.11329c-1.00648,0.11959 -2.10618,0.36876 -3.15284,0.63879c0.06509,-0.06963 0.03006,-0.13837 0.09487,-0.20827c0.60113,0.03179 1.02517,-0.47804 1.02517,-0.47804c2.48694,-2.99584 4.57446,-5.9132 7.40249,-8.50732c2.96457,-0.97853 5.92919,-1.29013 8.94287,-1.87199c2.52858,0.35481 4.97367,0.80291 7.45287,1.63045l0.3162,0.17129c0,0 1.1266,0.56006 1.68562,-0.55797c0.01273,-0.02546 0.02469,-0.05061 0.03571,-0.07549c1.76385,0.23159 3.57184,0.71197 4.91998,1.5559l1.18224,0.71106c0.1917,0.11959 0.41982,0.19067 0.66241,0.19067c0.19762,0 0.38518,-0.04504 0.55132,-0.1267c0.82411,0.79678 2.49066,1.08913 3.61285,1.64566l1.86031,1.16696c0.19547,0.12667 0.4289,0.20138 0.67917,0.20138c0.41084,0 0.7752,-0.19883 1.00305,-0.50483c0.20855,0.15929 0.42167,0.31445 0.60987,0.47321c1.66767,1.40681 3.24923,3.02453 4.80362,4.58403c-0.00931,0.0615 -0.01414,0.1249 -0.01414,0.18899c0,0.4633 0.25194,0.87011 0.62641,1.08602l1.14862,0.6905c0.201,1.06227 1.32848,2.56851 1.33166,3.73292c0.00412,1.50948 -1.00616,3.25819 -1.57825,4.54355l-0.1265,0.04722c-0.21508,-0.17923 -0.43014,-0.35804 -0.64453,-0.5375c-0.0058,-0.51789 -0.3933,-0.90358 -0.3933,-0.90358l-0.58144,-0.56978c-0.13632,-0.10812 -0.27446,-0.21374 -0.41411,-0.31749c0.02261,-0.03718 0.03386,-0.05965 0.03386,-0.05965l0.37023,-1.03492c0,-0.70656 0.01706,-3.49353 -0.0971,-3.8175c-0.70137,-1.9904 -4.18526,-3.83571 -5.68406,-5.30366c-2.23044,-1.13795 -4.93801,-2.90194 -7.32328,-3.517c-0.87867,-0.22657 -1.8629,-0.0189 -2.68389,-0.40539c-1.88773,-0.88867 -4.22644,-2.27519 -6.41143,-1.99147c-1.7307,0.22473 -2.98836,0.84137 -4.92943,0.69518c-2.55082,-0.19211 -6.95227,-1.291 -8.80384,1.08935c-0.17994,-0.10033 -0.38712,-0.15776 -0.60776,-0.15776c-0.24259,0 -0.46856,0.06791 -0.66026,0.18751l-1.15715,0.69202c-0.32088,0.18501 -0.55107,0.50567 -0.61062,0.88595c-1.03449,0.78327 -2.02762,1.45422 -2.99486,2.41168z" fill="#565656" stroke-width="0.25"></path>
      <path d="M285.26028,144.46543c-0.6071,0.67576 -1.24375,1.28325 -2.13708,1.97449c-1.45321,-1.208 -2.97444,-2.30721 -4.533,-3.34421c-4.93448,-3.8813 -10.30819,-7.20574 -15.85541,-10.15731c-2.42699,-1.29136 -4.80282,-2.71468 -7.44315,-3.43165c2.51474,-1.31329 4.6903,-3.38471 7.14392,-4.97481c2.02545,-0.26028 4.0552,-0.60975 6.00209,-1.26413l1.79882,-0.21923c0,0 0.46785,-0.05832 0.7928,-0.38751c1.53849,0.46667 3.1082,1.04452 4.54421,1.79365c3.00734,2.78092 6.39727,5.27409 9.34914,8.1964l0.86488,1.54077c0,0 0.14299,0.25176 0.41179,0.44326c0.3261,0.62016 0.61108,1.27141 0.86637,1.92213c0.01693,0.17091 0.0553,0.28726 0.0553,0.28726c0.43539,1.27298 0.62389,2.31707 0.62527,3.43305c-0.22232,0.18433 -0.38062,0.44652 -0.4338,0.74258l-0.22988,1.14561c-0.06979,-0.01209 -0.14167,-0.01819 -0.21491,-0.01819c-0.58089,0 -1.07124,0.39989 -1.2115,0.93683l-0.39584,1.38098z" fill="#491d1d" stroke-width="0.25"></path>
      <path d="M228.26817,130.71583c0,0 -0.73065,0.14958 -0.9609,0.75978c-1.97897,0.86159 -4.00254,1.7171 -5.98968,2.57188c-0.22834,-0.29979 -0.59339,-0.49808 -0.99932,-0.49808c-0.22846,0 -0.44349,0.06014 -0.62778,0.16718l-2.13273,1.18323l0.1977,0.15129c-0.27225,0.13306 -0.60647,0.30871 -0.83954,0.42707c-0.74172,0.25461 -1.47489,0.52726 -2.19009,0.83455l-0.05438,0.07385l-0.01968,-0.03278l-1.17586,0.70532c-0.15724,0.09066 -0.29274,0.21479 -0.39722,0.36234c-1.67489,0.64387 -3.36063,1.25477 -5.05712,1.82508c-0.47087,-3.77198 1.12284,-7.57677 3.79541,-10.23911l1.14262,-0.9148c0,0 0.97665,-0.78727 0.19578,-1.76335c-0.01813,-0.02267 -0.03634,-0.04459 -0.05467,-0.06539c1.90392,-1.41225 4.2612,-2.54792 5.63932,-3.08485l0.08734,-0.11536l0.03026,0.04557l1.42388,-0.95242c0.11664,-0.07533 0.22157,-0.17117 0.30719,-0.27996c1.79609,-0.35887 4.0287,-1.33762 5.46564,-1.7984c0.15702,0.07107 0.33441,0.11046 0.51798,0.11046c0.17413,0 0.34291,-0.0356 0.49353,-0.09993l1.14841,-0.45623c0.10747,-0.04013 0.20941,-0.09437 0.30053,-0.16089l0.23542,-0.10018l-0.03503,-0.08117c0.02892,-0.03262 0.05646,-0.0667 0.08188,-0.10224c2.57218,0.91986 6.53996,-2.32781 9.16793,-1.42773c1.14617,0.39256 1.73485,1.70793 2.59113,2.56502l0.71382,-0.37552c0.28325,0.28029 0.55451,0.57411 0.81263,0.87418c0.00002,0.4663 0.29682,0.83828 0.29682,0.83828c1.29175,1.60991 2.1278,3.20727 2.89097,5.09876l0.41033,1.64498c-0.23261,0.52367 -0.64222,1.02268 -1.77276,1.35916c-2.49163,0.74157 -5.63733,1.09982 -8.6552,1.09343c0.12255,-0.0488 0.14959,-0.1245 0.27422,-0.17432l0.06959,-0.02762c0,0 1.15917,-0.45518 0.69493,-1.61578c-0.11486,-0.28717 -0.27247,-0.47175 -0.44447,-0.59161l0.03862,-0.16911c0,0 0.20642,-1.22419 -1.02657,-1.42969c-1.23299,-0.20549 -1.3396,1.01369 -1.3396,1.01369l-0.03924,0.94353c-0.38241,0.15885 -0.76522,0.3237 -1.1474,0.48463c-0.81742,0.2819 -1.64892,0.52844 -2.57305,0.67978c0,0 -0.66328,0.12252 -0.93975,0.65669l-0.55178,0.0868z" fill="#491d1d" stroke-width="0.25"></path>
      <path d="M282.07381,164.30818c-0.07988,-0.61824 -0.18825,-1.26996 -0.3246,-1.9441l0.61567,0.49522c0.2262,0.22621 0.54026,0.36655 0.88545,0.36655c0.44365,0 0.83469,-0.23072 1.05653,-0.57914c0.12497,0.07104 0.24316,0.1389 0.35459,0.20478c-0.28123,0.87692 0.57929,1.39282 0.57929,1.39282l1.23931,0.74205c0.0163,0.00316 0.03266,0.00636 0.04896,0.00952l-0.00639,0.01279l0.22049,0.11022l0.09831,0.32668l0.17406,-0.05205l0.32485,0.75617c0.08433,0.50582 0.17672,1.0106 0.26805,1.51416c-0.01498,-0.00053 -0.07626,0.08787 -0.09137,0.08787c-0.69036,0 -1.20478,0.47045 -1.20478,1.16081c0,0.0674 0.00551,0.13364 0.01578,0.19815l0.23782,1.65324c0,0 0.02891,0.19834 0.14205,0.42462l0.0748,0.40892l0.20064,-0.03625c0.00912,0.00838 0.01851,0.01668 0.02803,0.02483c-0.79051,2.17687 -0.64039,5.12787 -0.51233,7.95187c-0.38882,0.21192 -0.65198,0.62495 -0.65198,1.09895l0.00233,1.37041c-0.12569,0.88359 -0.18636,1.57203 -0.17882,2.17576c-0.83083,2.14314 -1.08463,4.9788 -1.46895,7.21152c-0.01391,0.06275 -0.02781,0.12654 -0.04168,0.18926l-0.04519,-0.01136l-0.60171,2.41205c-0.02877,0.10523 -0.04471,0.2178 -0.04471,0.33215c0,0.06502 0.00462,0.12983 0.01419,0.19218c-0.11999,0.46637 -0.25068,0.9324 -0.38959,1.38056l-0.1948,0.62581c-0.23614,0.24573 -0.33177,0.5352 -0.33177,0.5352l-0.47332,1.4461c-1.29177,2.80565 -2.779,5.55754 -4.35352,8.22762c-0.10183,0.07179 -0.16083,0.13031 -0.16083,0.13031l-0.35827,0.37553c-1.55788,2.08755 -3.16461,4.06193 -4.86193,5.93179c-0.50186,0.06068 -0.8448,0.46544 -0.8448,0.46544l-1.4387,1.70468c-1.88982,2.13375 -4.01449,3.89407 -6.42365,5.2737c-0.20554,-0.26936 -0.47979,-0.5451 -0.83587,-0.57907c1.45112,-1.09999 2.851,-2.27251 4.2484,-3.46272c0.47181,-0.04539 0.8131,-0.38826 0.8131,-0.38826c0.42002,-0.42365 0.81488,-0.8681 1.1904,-1.32933c0.29425,-0.25161 0.58765,-0.50332 0.88335,-0.75399l0.60077,-0.39144c0,0 0.95706,-0.63824 0.42257,-1.60846c1.43723,-2.40908 2.52237,-5.06513 3.55299,-7.63891c0.41574,-0.24879 0.57151,-0.72269 0.57151,-0.72269c0.88086,-2.64918 1.6653,-5.34107 2.6268,-7.97371c0.09913,-0.12447 0.14662,-0.22231 0.14662,-0.22231c1.41649,-2.85521 2.03364,-5.95835 2.72267,-9.05832l0.24766,-1.21835c0,0 0.07491,-0.36118 -0.05657,-0.73168c0.80038,-0.25647 0.80085,-1.18471 0.80085,-1.18471c0,-3.22133 -0.04078,-6.51134 0.48685,-9.69192l0.00059,-0.2286c0.34522,-2.83067 0.44975,-5.97932 -0.01279,-8.73681c0.03266,-0.21417 0.01255,-0.37607 0.01255,-0.37607z" fill="#672929" stroke-width="0.25"></path>
      <path d="M243.28753,225.62991c0,0 0.2021,0.00019 0.44409,-0.08131c-0.01356,0.08169 -0.02078,0.17012 -0.02078,0.26594c0,1.25 1.24951,1.25025 1.24951,1.25025c2.62479,-0.00799 5.39886,-0.35877 8.07911,-1.0884c-2.20564,1.17586 -4.48171,2.2024 -7.09241,2.76791c-2.61296,0.566 -5.60663,-0.29872 -8.18578,0.15993l-0.21653,-0.13518c-0.13316,-0.31623 -0.39313,-0.56604 -0.71578,-0.68651l-1.143,-0.45652c-0.09832,-0.04199 -0.20339,-0.07166 -0.31274,-0.08726c-0.77733,-0.17687 -1.54842,-0.3671 -2.31583,-0.55032c-0.21025,-0.89617 -1.21258,-0.89592 -1.21258,-0.89592l-0.23933,0.00006c-0.83645,0.00071 -1.66646,0.05263 -2.48809,0.13376c-0.67675,-0.08224 -1.36323,-0.13099 -2.05941,-0.13292c0,0 -0.72021,0.00014 -1.06761,0.54542c-1.50987,0.22822 -3.02036,0.46694 -4.5435,0.58127c-1.62311,-1.31107 -3.52987,-2.31704 -5.18567,-3.66327l0.14122,-0.20373c-2.3595,-3.91555 -6.65438,-5.54161 -9.43834,-8.99287c-2.18295,-2.70619 -3.15338,-6.49665 -5.22979,-9.27686c-1.02034,-1.36618 -2.17126,-2.26164 -3.05587,-3.74319c-3.59079,-5.98467 -8.46068,-11.79769 -8.44086,-19.21814c0.0065,-2.43241 1.0645,-5.00594 1.82576,-7.3753c0.06561,0.07483 0.14487,0.14872 0.24004,0.22009c1,0.74999 1.75027,-0.2511 1.75027,-0.2511l0.86685,-1.21632c0.59511,-1.40523 1.35214,-2.8078 2.20201,-4.14674c0.09054,0.31318 0.32161,0.63907 0.86325,0.78795c1.2053,0.33129 1.53793,-0.87655 1.53793,-0.87655l0.34635,-1.27613c0.63828,-3.52809 1.1468,-7.2474 1.26223,-10.88601l0.05715,0.01901l0.47044,-1.40802c0.04749,-0.1321 0.07375,-0.2748 0.07375,-0.42326c0,-0.12036 -0.01682,-0.23691 -0.04857,-0.34705l0.53572,-1.24774l0.30624,-0.53519c0.09089,-0.14598 0.17661,-0.29584 0.25655,-0.44835l0.21226,-0.37094c0.08152,-0.13673 0.13814,-0.29062 0.16246,-0.4546c0.00061,-0.00156 0.00122,-0.00313 0.00183,-0.00469c0.0688,-0.03159 0.13451,-0.06941 0.19591,-0.11245l0.12967,0.07399l0.94746,-1.65568c0.10213,-0.17128 0.16498,-0.36932 0.17475,-0.58081l0.09255,-0.18482c1.40994,-2.34727 3.18252,-4.28656 5.0329,-6.20525l1.3436,-0.67144c0.4228,-0.20043 0.71634,-0.63144 0.71634,-1.13044c0,-0.0858 -0.00859,-0.16957 -0.02506,-0.25051c1.56274,-0.70558 3.37118,-1.47773 4.84073,-2.48172c1.88663,-0.75288 3.76882,-1.54066 5.62594,-2.35255c1.65461,-0.50192 3.3006,-1.02412 4.86501,-1.70507c0.51184,1.37382 0.89946,2.88631 1.23234,4.32299c-3.67944,1.00316 -6.32461,3.84934 -9.41542,6.09121l-0.97753,0.73373c0,0 -0.73829,0.55414 -0.46921,1.3451c-1.35494,1.08328 -2.57152,2.33053 -3.60798,3.71839c-2.63283,2.13596 -4.52854,4.39565 -6.33834,7.29509c-0.27349,0.19212 -0.41814,0.44629 -0.41814,0.44629c-0.63246,1.10681 -1.25956,2.20982 -1.89188,3.31672l-0.23218,0.37196c-0.61584,0.16412 -0.83787,0.83382 -0.83787,0.83382c-0.48222,1.46807 -1.1653,2.76042 -1.74062,4.17031c-0.48134,0.13467 -0.75661,0.57534 -0.75661,0.57534c-1.29209,2.07701 -2.21239,4.17776 -2.94018,6.47266c-0.18037,0.20277 -0.26171,0.40592 -0.26171,0.40592c-0.53585,1.35117 -0.84689,2.69252 -1.08383,4.09387c-0.20064,0.10105 -0.39349,0.27971 -0.54527,0.58327c-0.13721,0.27443 -0.17327,0.51372 -0.14973,0.72079c-0.47339,1.99423 -0.59155,3.70441 -0.45654,5.5016c-0.58225,0.40838 -0.47016,1.19344 -0.47016,1.19344c0.57587,4.03104 1.79205,8.29779 3.44426,12.0497c1.44003,3.27009 3.96946,5.85612 5.43908,9.19867c0.03035,0.08551 0.06944,0.16654 0.11672,0.24233l0.6933,1.15717c0.21591,0.37447 0.61865,0.62557 1.08195,0.62557c0.0822,0 0.16228,-0.00809 0.24006,-0.02323c0.14864,0.38376 0.3607,0.75027 0.58538,1.06993l0.67106,1.34459c0.16639,0.35099 0.48999,0.61148 0.8811,0.69006c0.73501,2.33835 5.06709,4.91959 6.69563,6.00762l1.65765,0.75914c0.09517,0.28048 0.25599,0.46852 0.25599,0.46852c1.6364,1.87813 3.07502,2.82081 5.38713,3.73718l1.56399,0.2684c0,0 1.09171,0.18237 1.39081,-0.82606c1.64197,-0.09486 3.25315,-0.41327 4.88854,-0.87754l0.13464,0.04812c0,0 0.38434,0.0002 0.72708,-0.21364c1.02293,0.21743 2.16866,0.67036 3.27584,1.11602c-0.03783,1.09888 1.09709,1.24105 1.09709,1.24105c0.23111,0.02887 0.46146,0.05847 0.69239,0.08826c0.22832,0.15224 0.53991,0.23884 0.95556,0.12599c1.22635,0.16387 2.44789,0.3384 3.67362,0.5113l1.9996,0.00394z" fill="#672929" stroke-width="0.25"></path>
      <path d="M238.99672,186.46148c0.20314,-0.13119 0.35854,-0.31962 0.45786,-0.54255c0.15564,-0.02678 0.2938,-0.08111 0.42408,-0.15977c0.01227,0.05095 0.05204,0.1994 0.07297,0.25043c0.3023,1.57882 0.61382,3.15597 0.94189,4.72993l0.21233,1.53675c0,0 0.17154,1.23879 1.40898,1.06202c1.23744,-0.17677 1.05394,-1.41151 1.05394,-1.41151l-0.2481,-1.71106c-0.03385,-0.16314 -0.06839,-0.32581 -0.10193,-0.48901c0.85447,-0.42062 1.55348,-1.00666 2.16046,-1.71815c0.07492,0.40468 0.22171,0.87562 0.29652,1.27969c-0.88048,0.64812 -0.29917,1.63014 -0.29917,1.63014c0.23908,0.39848 0.47757,0.79741 0.71665,1.19588l0.24282,0.40509c-1.1796,1.82061 -2.41327,3.62938 -3.58825,5.45712c0,0 -0.69882,0.95412 0.35266,1.63007c1.05147,0.67594 1.72248,-0.3741 1.72248,-0.3741c1.20169,-1.86929 2.42585,-3.70167 3.62953,-5.56468c0.28527,-0.15969 0.4468,-0.35652 0.53442,-0.55983c0.06451,-0.14219 0.0897,-0.28498 0.09258,-0.42053c1.50953,-2.37778 2.9244,-4.77669 4.11654,-7.35002c2.33764,-5.04598 4.00756,-10.41908 6.00299,-15.60704l0.29852,-0.77392c0,0 0.19512,-0.50363 -0.00416,-0.97689c1.43175,-2.56068 2.72381,-5.18545 3.66343,-7.89527c0.28422,-0.23887 0.63505,-0.55339 0.90671,-0.80593c1.48298,0.20821 2.72262,0.3426 4.32649,0.12625l1.08311,-0.26336c0,0 1.13466,-0.24061 0.8315,-1.45329c-0.06863,-0.27453 -0.18333,-0.47072 -0.32056,-0.61098c0.71473,-0.55134 1.4462,-1.2627 2.08687,-1.93749c0.26179,-0.00009 0.55646,-0.09813 0.85095,-0.39262l-0.07665,0.06431c0.32714,-0.32714 0.41247,-0.65387 0.38973,-0.93619c0.61259,-0.65263 1.23882,-1.29079 1.91791,-1.85589l0.08025,-0.07153c1.72893,2.68887 3.25488,6.78391 4.01412,10.26669c-0.14949,0.40096 -0.04761,0.8078 -0.04761,0.8078l0.23956,0.95732c0.48122,1.88356 0.58519,4.12132 0.47534,6.30347c-0.27105,0.36023 -0.27081,0.81219 -0.27081,0.81219l0.00457,2.11573c-0.06768,0.51901 -0.14354,1.02498 -0.22563,1.50815c0,0 -0.02542,0.15347 -0.00454,0.36071c-0.29316,2.71566 -0.25051,5.50409 -0.25051,8.22317c0,0 -0.00001,0.2202 0.09204,0.47532c-0.63764,0.21676 -0.78507,0.95495 -0.78507,0.95495l-0.23368,1.17091c-0.44007,1.98084 -0.83859,4.0354 -1.47724,5.98146c-0.28849,0.25535 -0.40244,0.5974 -0.40244,0.5974l-0.21408,0.64918c-1.16499,2.91596 -2.08673,5.95155 -3.0634,8.93381c-0.40013,0.25188 -0.55334,0.7108 -0.55334,0.7108l-0.21426,0.64903c-0.78715,1.96791 -1.60579,4.03952 -2.60951,5.98284c-0.06378,-0.15144 -0.23224,-0.353 -0.34703,-0.4671l-1.60283,-1.5936l-0.00126,0.00127l-0.00247,-0.00497c-1.06041,-1.03679 -2.27526,-2.06285 -3.4259,-3.1537c-0.14413,-0.15472 -0.28598,-0.29312 -0.43415,-0.41812c-0.24528,-0.24041 -0.48635,-0.48418 -0.72077,-0.73232l0.06461,-0.12933l-0.34441,-0.17236c-1.32514,-1.45772 -2.40323,-3.06524 -2.79672,-4.97772c0,0 -0.18958,-1.1624 -1.40981,-0.89124c-1.22024,0.27116 -0.95132,1.49431 -0.95132,1.49431c0.45612,1.94222 1.39181,3.57772 2.57005,5.05417c-0.00157,0.02564 -0.00244,0.05156 -0.00244,0.0776c0,0.27621 0.08917,0.53192 0.24087,0.73881l0.99123,1.38849l0.05191,-0.0371l-0.0126,0.09884c0.747,0.6077 1.42806,1.16095 2.09469,1.67121c0.19118,0.18788 0.37522,0.37402 0.5349,0.55962l1.27735,1.07042c0,0 0.11801,0.09848 0.30587,0.18487l-0.0321,0.03924l1.92773,1.5776c0.21656,0.18 0.4946,0.28856 0.79821,0.28856c0.06354,0 0.19825,0.06435 0.25924,0.0552c-0.42915,0.70052 -0.89468,1.37615 -1.40126,2.01087c-4.36834,3.75689 -8.66286,7.62714 -14.17034,9.68142c0,0 -0.65899,0.24707 -0.80336,0.86373c-2.45844,0.66223 -5.0136,0.97981 -7.37444,0.97168c0,0 -0.20302,0.00007 -0.44501,0.08157c0.01357,-0.0817 0.02097,-0.17019 0.02097,-0.26601c0,-1.25 -1.25133,-1.24985 -1.25133,-1.24985l-1.82631,0.00332c-0.35149,-0.05092 -0.70421,-0.10147 -1.05563,-0.15162c0.03934,-0.07737 0.06771,-0.25932 0.09037,-0.34493c0.64154,-0.31948 0.64066,-1.12073 0.64066,-1.12073l-0.00015,-2.19999c0,-0.82077 0.00221,-1.59978 -0.00465,-2.35264c0.1136,-1.27736 0.08961,-2.65315 0.05333,-3.85526c0.09768,-1.83631 0.21523,-3.67117 0.34608,-5.5029c0,0 0.09629,-1.14711 -1.15053,-1.23617c-1.24682,-0.08905 -1.33872,1.15783 -1.33872,1.15783c-0.02998,0.41975 -0.05981,0.83981 -0.08896,1.26012c-0.19526,0.22022 -0.31453,0.50986 -0.31495,0.82723c0,0.00008 0.00208,-0.09983 0.00208,-0.09976l-0.0038,1.40632c-0.05401,3.4509 -0.76012,6.62217 -0.29204,9.77777l-0.49934,0.05539l0.20156,1.68506c0.00387,0.03964 0.00673,0.17871 0.01422,0.21718c-0.05122,-0.00689 -0.10263,-0.01377 -0.15385,-0.02062l-0.42004,-0.62716c-1.72863,-0.61957 -3.98426,-1.7009 -5.74349,-1.97336c-1.49453,-0.23146 -4.09585,0.54331 -5.5902,0.70924c0,0 -0.46575,0.05141 -0.79517,0.37603c-0.81698,0.03028 -1.64377,-0.00925 -2.47966,-0.13334c0,0 -0.38603,-0.05536 -0.75736,0.111c-0.93159,-0.49624 -1.66915,-1.07348 -2.45741,-1.94981c0.06106,-0.80117 -0.75259,-1.17201 -0.75259,-1.17201l-2.16887,-0.98405c-2.45634,-1.64535 -4.40591,-3.75218 -6.56933,-5.64319l0.16418,-0.10941l-0.94701,-1.41988c-0.03922,-0.06074 -0.08376,-0.11806 -0.13262,-0.17095c-0.28481,-0.36379 -0.61075,-0.6973 -0.9644,-1.00144c0.24653,-0.00818 0.55163,-0.15199 0.74199,-0.28294l0.10086,-0.06726c0.02124,0.02624 0.04378,0.05246 0.06784,0.07885c0.84229,0.92361 1.76486,0.08013 1.76486,0.08013l0.20024,-0.19175c2.27267,-1.67617 4.77708,-3.29681 6.73176,-5.32623c0.36158,-0.263 0.6139,-0.42375 0.88984,-0.59955l-0.02645,-0.29096l0.14537,0.18768l0.18458,-0.14307l0.01231,0.01538l0.99084,-0.79294c0.07804,-0.06135 0.14862,-0.13178 0.2101,-0.20972c0.70421,-0.31771 1.41771,-0.58151 2.14559,-0.76898c0,0 1.13596,-0.25748 0.80706,-1.46343c-0.3289,-1.20595 -1.53737,-0.87977 -1.53737,-0.87977c-4.63254,1.31947 -8.57164,5.01142 -12.76006,7.44173l-0.03987,-0.05582l-1.30612,0.93077c-0.24766,0.17228 -0.43025,0.43156 -0.50278,0.73387l-0.38275,-0.1924c-0.79732,-1.83508 -1.82456,-3.94767 -2.83453,-5.62861c-0.72169,-1.20115 -1.97749,-2.11455 -2.56431,-3.46598c-1.24948,-2.87753 -2.25259,-6.08118 -2.87489,-9.21512l0.57571,-0.07266c-0.59224,-2.95584 -0.75765,-5.09405 -0.02127,-8.03734l0.5108,-0.15792c0.1103,-0.77523 0.22693,-1.53175 0.38459,-2.27377c0.08153,0.01033 0.13263,0.01032 0.13263,0.01032c1.04051,0 2.08109,-0.0005 3.1216,-0.00051c0.1588,0.10282 0.44152,0.18394 0.63899,0.20572l1.48442,0.18475l0.00385,-0.03073l0.07353,0.03797c1.62498,0.00066 2.83974,-0.10701 4.07789,-0.36923l-0.00004,0.17043l2.2001,-0.00061c0.69036,0 1.25052,-0.56227 1.25052,-1.25263c0,-0.6594 -0.51019,-1.20119 -1.15758,-1.2483l-0.45105,-0.03745c-0.0835,-0.126 -0.15706,-0.19989 -0.15706,-0.19989l-1.18983,-0.52362c-1.27018,0.20952 -2.2375,0.36472 -3.15982,0.58175c-0.17692,-0.00003 -0.45139,-0.02212 -0.62831,-0.02215l0.07201,-0.1437l-1.07684,0.16512c-1.3573,-0.00012 -2.71439,-0.00119 -4.07169,-0.00118c0.0339,-0.15878 -0.06037,-0.35615 -0.1156,-0.54314c0.60005,-1.91063 1.35166,-3.69612 2.37538,-5.42569l0.92584,-0.55615c0.44332,-1.34266 1.04953,-2.53922 1.5846,-3.79234c0.08363,-0.07853 0.15665,-0.16883 0.21618,-0.26764l1.18544,-1.89688l-0.00754,-0.00472l0.02042,-0.01635c0.44629,-0.78079 0.89455,-1.56455 1.34077,-2.34537c0.57668,-0.21347 0.71158,-0.78913 0.74266,-1.04429c0.9923,-1.62652 1.99896,-3.03018 3.14883,-4.31292c0.02473,0.0139 0.05041,0.02751 0.077,0.0408c1.11803,0.55902 1.67861,-0.56045 1.67861,-0.56045l0.69642,-1.39324c0.1995,-0.33463 0.41402,-0.66331 0.6401,-0.98361c0.22352,-0.17764 0.45388,-0.35535 0.68976,-0.53216c0,0 0.52582,-0.39432 0.52996,-0.99139c0.23703,-0.26319 0.48371,-0.52027 0.73697,-0.76929c0.01446,0.0043 0.02244,0.00628 0.02244,0.00628c0.39686,0.09271 0.77267,0.21851 1.13102,0.37163c0.06814,0.08438 0.14713,0.15965 0.23469,0.22385l1.58919,1.19076l0.0197,-0.02623c0.1891,0.14766 0.37323,0.28622 0.55367,0.41746c0.33227,0.33182 0.7014,0.64976 1.13696,0.97803l0.63269,0.58349c0,0 0.17423,0.14721 0.43643,0.24187l0.8888,0.88807c0.22621,0.22621 0.53958,0.36566 0.88476,0.36566c0.69036,0 1.25241,-0.5608 1.25241,-1.25116c0,-0.34518 -0.09914,-0.56636 -0.32534,-0.79257v0l-0.35963,-0.35999l-0.9632,-1.15671l-0.0392,0.0327l-0.03714,-0.11637c-0.18768,-0.15728 -0.37294,-0.3136 -0.55739,-0.46797c-0.10386,-0.23539 -0.23023,-0.45751 -0.37225,-0.65634l-0.10245,-0.0433l0.0326,-0.03262l-0.99944,-1.00027c-0.2262,-0.22621 -0.53796,-0.36649 -0.88314,-0.36649c-0.12355,0 -0.24252,0.01771 -0.35523,0.0511c-0.49536,-0.31846 -1.05687,-0.69365 -1.60292,-0.93966c0.81295,-0.58008 1.67131,-1.09379 2.54884,-1.52738c0,0 1.11938,-0.55962 0.56037,-1.67765c-0.02755,-0.0551 -0.05648,-0.10612 -0.08655,-0.15334c1.86428,-1.55953 3.78795,-3.13327 6.02837,-3.71696c0.65555,3.54169 1.07615,7.26326 1.82389,10.73706l0.1046,1.27695c-0.52446,0.7948 0.17501,1.42595 0.17501,1.42595c0.02908,0.02444 0.05813,0.04844 0.08695,0.07208c0.13054,0.21308 0.3416,0.41864 0.67876,0.49912c1.09737,0.71066 2.01252,0.79608 2.9016,0.45548c0.19262,0.68114 0.3866,1.46656 0.55316,2.15762c-0.36639,0.45157 -0.25007,0.97416 -0.25007,0.97416c1.41619,6.60657 2.54136,13.27184 3.72498,19.92717c-0.17253,0.10103 -0.25907,0.30354 -0.25907,0.30354c-0.11434,0.12015 -0.21837,0.23483 -0.32218,0.34735c-0.44124,0.12168 -0.70738,0.48564 -0.70738,0.48564c-3.13166,4.24702 -12.80557,6.55167 -17.7973,4.34349c0.08969,-0.34578 0.19112,-0.69411 0.30702,-1.0402c0,0 0.29695,-0.89409 -0.39562,-1.38896c-0.49485,-0.69256 -1.28564,-0.38917 -1.28564,-0.38917l-0.98553,0.40869c-1.71616,1.5084 -4.49832,0.30315 -6.34374,1.63808c-0.0523,0.03784 -0.10341,0.07682 -0.15343,0.11721l-0.01528,-0.02287l-1.18391,0.78796c-0.34463,0.22257 -0.57287,0.60837 -0.57287,1.04914c0,0.5623 0.37106,1.03577 0.88184,1.19286l1.17253,0.38997v0v0c2.28765,0.71562 3.97531,2.90631 5.81175,4.37974c0,0 0.38033,0.30347 0.85649,0.29436c0.19805,0.01489 0.33304,0.01266 0.59028,-0.11596c1.11804,-0.55902 0.55793,-1.67997 0.55793,-1.67997l-0.07405,0.28393c0.07945,-0.79453 0.24376,-1.60412 0.32811,-2.3775c3.8849,0.9692 8.17786,1.29425 12.27817,0.8827c0.18669,0.11095 0.40308,0.17248 0.63601,0.17248c0.18469,0 0.35918,-0.04109 0.51695,-0.11299l0.71165,-0.30646c1.56283,-0.25073 3.06078,-0.63178 4.49844,-1.12338l0.10615,-0.13923l0.03691,0.05601l1.17147,-0.79165z" fill="url(#color-1)" stroke-width="0.25"></path>
      <path d="M275.31437,181.69477c-2.2052,0.22249 -3.40622,0.30668 -4.74245,-0.02918l-0.07308,0.34106l-1.61166,-0.34536c-1.74622,0.11634 -3.48601,0.28303 -5.25775,0.44415c0,0 -1.24487,0.11317 -1.35803,-1.1317c-0.11317,-1.24487 1.1317,-1.35803 1.1317,-1.35803c1.40449,-0.12764 2.78941,-0.25666 4.17273,-0.36235c0.17937,-0.13208 0.3953,-0.21739 0.62979,-0.23796l1.98625,-0.19863l0.00501,0.05013l0.13294,-0.05626c0.33414,0.0394 0.67102,0.11799 0.9984,0.23184c0.26319,-0.0082 0.5269,-0.01478 0.79125,-0.01957l0.00003,-0.00039l0.00411,0.00032c0.35913,-0.00648 0.71945,-0.00966 1.08125,-0.00911l0.08223,0.05097l0.00594,-0.04156l1.3112,0.18731l2.06416,-0.3753c0.08012,-0.01612 0.16301,-0.02457 0.24787,-0.02457c0.69036,0 1.25,0.55964 1.25,1.25c0,0.60575 -0.43088,1.11087 -1.00287,1.22557l-1.77597,0.39466l-0.00671,-0.03018z" fill="#000000" stroke-width="0.5"></path>
    </g>
  </g>
</svg>
