<?xml version="1.0" encoding="UTF-8"?>
<svg xmlns="http://www.w3.org/2000/svg" xmlns:xlink="http://www.w3.org/1999/xlink" version="1.1" width="132.18891" height="130.02024" viewBox="0,0,132.18891,130.02024">
  <g transform="translate(-173.90555,-114.98988)">
    <g stroke="none" stroke-miterlimit="10">
      <g>
        <path d="M204.43247,220.9217c-0.27969,-0.0095 -0.56528,-0.0261 -0.8499,-0.0531c0.02339,0.00723 0.0468,0.01438 0.07023,0.02145c0.21914,0.06612 0.43912,0.12968 0.65983,0.1907c0.04003,-0.05293 0.07997,-0.10596 0.11984,-0.15906zM217.17587,227.13076c-0.09678,0.0847 0.00725,0.0218 0.16914,-0.07479c-0.00555,-0.01979 -0.01101,-0.03974 -0.01637,-0.05986c-0.05043,0.04477 -0.10135,0.08966 -0.15276,0.13465zM268.92023,204.23146c1.44783,-0.72262 4.67751,-3.85855 5.88314,-4.33652c0.42597,-0.16887 0.88237,-0.37981 1.35142,-0.58692c-0.10926,0.01487 -0.21696,0.02981 -0.3229,0.04493c-2.91177,0.00615 -5.91724,-0.18235 -8.82187,0.00146c-2.41477,0.15281 -5.14083,0.40032 -7.87307,0.38909c0.46378,0.38553 0.84903,0.80962 0.95951,1.37941c0.26108,1.34647 -0.88612,2.59603 -1.33211,3.89305c-0.28381,0.82538 -0.59302,1.56728 -0.93458,2.23165c3.77494,-0.54665 7.7973,-1.37253 11.09045,-3.01615zM280.37541,198.87496c1.45386,1.02206 0.62023,3.53109 0.52428,5.30567c-0.26011,4.81025 -4.3237,8.50615 -8.67458,9.71946c0.91019,4.07819 -4.61283,7.68825 -7.76999,8.22686c-3.55456,0.60641 -6.92398,-0.76004 -9.89882,-2.22193c-0.13468,-0.06619 -0.29413,-0.12964 -0.46879,-0.19194c0.07607,0.09394 0.14751,0.18168 0.21321,0.2603c0.86497,1.03497 1.72471,2.0743 2.58706,3.11146c-0.41545,1.4973 -0.33683,3.23202 -1.24634,4.4919c-3.78233,5.23941 -10.99288,1.38287 -15.16642,-0.9133c-1.15448,-0.63516 -2.44208,-1.1192 -3.38811,-2.03642c-0.75583,-0.73282 -1.00867,-1.84887 -1.55028,-2.75162c-0.11582,-0.19306 -0.21253,-0.62077 -0.41858,-0.53006c-1.22558,0.53954 -1.61893,2.16397 -2.64744,3.02147c-3.26011,2.71804 -6.31032,5.45266 -10.5486,6.50173c-1.48356,0.36722 -3.00123,1.18008 -4.49979,0.87987c-1.83499,-0.3676 -4.10063,-1.06325 -4.88873,-2.76066c-0.34976,-0.75332 -0.11422,-1.86515 0.38597,-3.05691c-0.96349,0.47513 -1.91883,0.83272 -2.82584,0.98957c-1.65297,0.28585 -6.32272,-0.68388 -8.03706,-1.292c-2.75453,-0.9771 -6.01989,-2.26451 -6.09956,-6.07758c-0.00846,-0.40513 0.25615,-0.9982 0.69221,-1.67073c-0.57963,0.00404 -1.17598,-0.04268 -1.795,-0.15315c-5.43523,-0.96993 -7.52916,-7.84527 -6.08082,-12.77317c0.02881,-0.09802 0.05945,-0.1953 0.09179,-0.29191l-0.03588,-0.00897l0.7873,-3.14925c0.25264,-1.11331 1.24829,-1.9444 2.43804,-1.9444c0.79811,0 1.50888,0.374 1.9666,0.95629l1.40417,1.7552c6.20345,4.11253 14.6081,3.58646 21.74365,5.29193c-0.04257,-0.59534 -0.00467,-1.1917 0.12712,-1.75928c-0.6668,-1.45441 0.59071,-2.71192 0.59071,-2.71192l0.5215,-0.51367c0.13791,-0.12059 0.27559,-0.24148 0.41301,-0.36265c0.20722,-0.27884 0.40832,-0.45511 0.45923,-0.49793c-3.50233,0.47198 -8.64419,0.7411 -12.12863,-0.00905c-9.93744,-2.13937 -17.27461,-12.49407 -19.89764,-21.74999c-0.69119,-2.439 -0.79438,-4.82145 -0.90192,-7.22974c-0.31538,0.10514 -0.64431,0.21359 -0.96631,0.31767l-2.98531,1.24388l-0.03965,-0.09517c-0.07971,0.06415 -0.15941,0.12829 -0.23912,0.19244l-0.30958,-0.0695l0.02129,0.13322l-2.93921,0.46966c-0.14281,0.02535 -0.2898,0.03857 -0.43989,0.03857c-0.2516,0 -0.49451,-0.03717 -0.72356,-0.10631c-0.59085,4.68026 0.50405,9.25051 1.60484,13.75087c0,4.02954 1.23165,7.00611 2.31906,10.80648c0.96169,3.36099 1.72746,6.91145 3.1094,10.14222c2.86524,6.6985 7.95418,12.50251 13.05464,17.58559c1.97636,1.96963 4.21648,3.65575 6.30297,5.50832c0.71446,0.63437 1.13134,1.6195 1.96441,2.08734c0.88886,0.49918 2.0416,0.29005 2.97965,0.6892c0.8668,0.36883 1.46374,1.24475 2.34535,1.57663c2.83376,1.06675 6.77799,1.67247 9.74696,2.43312c4.93883,0.64111 8.21963,-0.56669 13.04998,-1.01129c11.98189,-1.10285 24.14572,-3.091 35.08246,-8.5247c2.68287,-1.33293 4.53589,-3.45625 6.77886,-5.32084c0.21515,-0.17885 1.44785,-0.98153 2.66071,-1.78687c0.29208,-0.4306 0.62427,-0.67973 0.62427,-0.67973l2.25896,-1.68843c0.43306,-0.87817 0.57637,-1.91336 0.91985,-2.84008c0,0 0.92847,-2.32119 3.24966,-1.39273c0.1154,0.04616 0.22277,0.09576 0.32262,0.14835c0.25484,-0.28382 0.49679,-0.57866 0.7208,-0.8889c1.10705,-1.53313 1.33774,-3.54462 2.18234,-5.23657c1.78062,-3.56705 2.57826,-7.05206 3.87408,-10.89223c0.59074,-1.75065 1.80988,-3.23741 2.46198,-4.96615c1.14245,-3.02867 1.51323,-6.9648 2.30942,-10.14224c0.61286,-1.79744 1.73433,-3.38085 2.51405,-5.11245c1.15956,-2.57517 1.08034,-7.22857 0.74388,-10.36712c-0.4412,0.39107 -1.02168,0.62852 -1.65762,0.62852c-0.69036,0 -1.31536,-0.27982 -1.76777,-0.73223l-1.60681,-1.60681c-0.21106,0.4955 -0.03621,2.9369 -0.1923,3.61343c-0.60038,2.60232 -1.25858,5.20414 -2.0448,7.76448c-1.5902,5.17854 -3.78487,9.96881 -6.66168,14.57544c-1.34494,2.15365 -2.2186,3.68992 -4.57992,4.90717c-0.69384,0.35767 -1.50184,0.61305 -2.34775,0.80774c0.1103,0.05149 0.21768,0.11332 0.32176,0.18649zM257.50046,177.95763c-0.6765,1.31394 -0.85317,3.28468 -0.95063,4.65695c-0.10955,1.54256 -0.19554,4.81377 1.60594,5.70992c1.46675,0.72964 3.19899,0.96769 4.9989,0.86478c0,-1.14004 0,-2.40325 0,-3.53756c-1.22628,-0.43626 -1.54048,-1.85015 -1.54048,-1.85015c-0.65433,-3.04076 -0.6915,-6.21695 -0.46868,-9.31932l0.41079,-2.25739c-1.53214,1.67529 -2.91919,3.52511 -4.05584,5.73279zM273.55396,185.42687c1.24755,-1.5016 3.00111,-3.5063 3.21082,-5.59215c0.16307,-1.62193 -0.83104,-2.78043 -1.63673,-4.06115c-1.1164,-1.77462 -2.53522,-3.69358 -4.17339,-5.381v4.46668c0,0 0,0.79914 -0.45182,1.49378c0.00109,0.00531 0.00218,0.01063 0.00327,0.01594l0.04855,0.89028c0,0 0,2.5 -2.5,2.5c-1.08389,0 -1.69785,-0.46992 -2.04562,-1.0023c0.0129,0.40846 0.03541,0.81625 0.06898,1.2226c0.11878,-0.01329 0.2442,-0.0203 0.37663,-0.0203c2.5,0 2.5,2.5 2.5,2.5c0,1.66667 0,3.33333 0,5v0.40063c1.75568,-0.67757 3.35936,-1.5423 4.59931,-2.433zM270.72103,163.71411c3.52415,2.43843 6.55348,5.94727 8.66027,9.43079c1.5805,2.61332 2.57372,3.9161 2.36327,7.13886c-0.22177,3.39628 -2.75678,6.37394 -4.78918,8.80784c-2.52796,1.79888 -6.1783,3.47018 -9.93313,4.32636c-0.3421,0.2067 -0.78756,0.34127 -1.36758,0.34127c-0.1112,0 -0.21746,-0.00495 -0.31899,-0.0144c-6.3555,1.00865 -12.57531,-0.60043 -13.75685,-8.13884c-0.25786,-1.64519 0.09612,-5.35749 0.43776,-6.89979c1.35141,-6.10067 5.79374,-10.26183 10.31915,-14.20539c-0.22831,-1.22987 0.75117,-2.20935 0.75117,-2.20935l1.28113,-0.43476c0.00947,-0.08935 0.02564,-0.20364 0.05326,-0.33337c-0.52564,-0.00742 -1.05045,-0.00792 -1.57455,-0.00144c-0.38141,0.06199 -0.76302,0.12754 -1.14487,0.19701c0,0 -0.6703,0.12187 -1.37469,-0.11154c-2.22641,0.1239 -4.44294,0.37646 -6.65814,0.76218c-0.22565,0.6365 -0.64662,1.05747 -0.64662,1.05747l-0.21559,0.19396c-1.55908,1.92746 -3.4367,3.44925 -5.47061,4.49875c1.28239,3.64715 1.61193,8.20039 1.61836,11.95664c0.00567,3.31061 -1.43819,7.97326 0.45475,11.11506c1.48406,2.46317 5.40241,3.41323 8.02254,3.5741c5.97818,0.36704 12.04244,-0.41439 18.04555,-0.39999c1.13277,-0.16204 3.52958,-0.40736 4.63051,-0.92779c2.00789,-0.94917 3.18268,-4.08205 4.17609,-5.81884c2.29248,-4.00796 4.29937,-8.4088 5.33749,-12.93403c0.58738,-2.56045 0.79186,-5.45159 1.5881,-7.94701c0.38516,-1.20707 0.47882,-2.7698 1.20014,-3.75419c-0.0361,-0.16911 -0.0551,-0.34455 -0.0551,-0.52443c0,-0.71014 0.29609,-1.35113 0.77155,-1.80624c-1.03265,-0.3938 -2.07807,-0.73747 -3.15471,-0.94089c-2.08863,-0.39461 -4.29579,0.36882 -6.39737,0.20473c-0.58166,0.32993 -1.40039,0.49909 -2.38058,-0.09734c-3.04849,0.31157 -6.0747,0.48808 -9.096,0.70753c0.46233,1.36251 -0.67514,2.49997 -0.67514,2.49997c-0.23275,0.23234 -0.46664,0.46122 -0.70141,0.68711zM202.01639,176.41141c-0.96463,0.77183 -4.19329,2.72218 -4.26801,4.22505c-0.11653,2.34374 3.14868,5.79873 4.70675,7.10222c1.36597,1.14277 3.10703,1.79134 4.79764,2.3514c1.73948,0.57624 3.19662,1.89942 4.97628,2.33605c0.11445,0.02808 0.26982,0.04251 0.45435,0.04627c0.25389,-1.91152 0.50771,-3.75396 0.58785,-5.6464c-0.31311,0.42674 -0.8265,0.78861 -1.66304,0.90812c-2.47487,0.35355 -2.82842,-2.12133 -2.82842,-2.12133c-0.13333,-0.93333 -0.26666,-1.86667 -0.39999,-2.8l-0.29684,-0.76293c0,0 -0.42268,-1.26796 0.27718,-2.25873l-0.00546,-2.93188c0,0 0,-1.13524 0.765,-1.87572c0.0181,-0.14479 0.0362,-0.28958 0.05429,-0.43437l0.7532,-1.25725c-0.06876,-1.02449 0.51324,-1.6649 1.02185,-2.0247c0.05596,-0.73215 0.10407,-1.46493 0.13967,-2.19809c-2.29757,3.00025 -5.62146,4.58116 -9.07229,7.34228zM225.85863,188.32022c4.12883,-4.07351 0.94991,-9.66843 -2.05002,-12.97513c-1.20538,-1.32865 -2.10209,-3.03866 -3.88372,-3.76519c-0.63668,-0.25963 -1.30226,-0.41683 -1.98116,-0.52814c0.25621,0.55885 0.30177,1.04548 0.22845,1.4599c0.28767,2.91494 0.52353,5.83511 0.73237,8.75675l0.04963,2.3414c0,0 0.02153,1.08856 -0.6822,1.84314c-0.00273,2.11607 -0.21304,4.14441 -0.46578,6.22751c2.78198,-0.78718 5.98806,-1.32351 8.05244,-3.36023zM216.57749,165.88808c1.77371,0.23544 3.58534,0.33411 5.20699,1.05049c3.28574,1.4515 3.55104,2.65744 5.71625,5.03483c1.70166,1.86841 3.03654,2.58574 4.05334,5.10462c0.57917,1.43477 0.95233,3.03321 1.08237,4.66703c0.22608,-3.86797 0.00103,-7.78545 0.54335,-11.63936l1.20905,-1.98258c-1.39824,-0.79648 -2.71215,-1.88961 -3.88636,-3.30213c0,0 -0.20094,-0.25117 -0.36857,-0.6454c-4.72788,0.07751 -9.33462,0.40649 -13.98938,0.45707c0.0067,0.07463 0.01013,0.15021 0.01013,0.22659c0,0.14542 -0.01242,0.28794 -0.03625,0.42656c0.00203,0.01258 0.00394,0.02492 0.00575,0.037c0.19212,0.17057 0.3398,0.36585 0.45331,0.56528zM205.65654,194.82843c-2.15653,-0.72317 -4.03393,-1.55184 -5.66438,-2.66669c2.34553,2.28043 5.09386,3.99491 8.16517,4.64855c0.69073,0.147 1.47528,0.24853 2.30849,0.31182c-1.67201,-0.5524 -3.12903,-1.73023 -4.80928,-2.29368zM194.42655,176.59747c3.41681,-5.16426 11.03588,-6.3964 13.5328,-11.84883c-1.45768,0.16115 -2.90932,0.31171 -4.29286,-0.00502c-0.45533,0.6161 -1.18692,1.01561 -2.01182,1.01561h-2.79999c-2.7139,-0.00878 -5.47057,0.25472 -8.14986,0.82091c0.03108,0.06963 0.05815,0.13706 0.08167,0.20093c1.22385,0.16231 2.16817,1.20996 2.16817,2.47817c0,1.10573 -0.71785,2.04379 -1.71293,2.37359c0.08339,2.32885 0.15252,4.63834 0.81325,6.92746c0.27043,0.93692 0.60037,1.90122 0.98685,2.87447c-0.19789,-1.463 0.14013,-2.95617 1.38472,-4.83728zM261.25468,142.35924c0.60002,0 1.15067,0.21138 1.58154,0.56374c0.63402,0.2627 1.23956,0.60288 1.78624,0.9685c0.27802,0.18595 0.28134,0.5263 0.23392,0.89986c0.06494,0.01049 0.12905,0.02348 0.19222,0.03887c0.78297,-0.82635 1.71253,-1.50884 2.56945,-2.2608c2.34934,-2.06158 2.92994,-2.34397 4.9738,-4.57748c0.66605,-0.72785 1.04778,-1.76485 1.89113,-2.27686c1.39817,-0.84885 3.06921,-2.21159 4.61335,-1.6721c4.39786,1.5365 3.87506,6.81243 1.59865,10.27917c1.82526,-0.90263 3.74893,-1.54656 5.08914,-1.54823c1.35789,-0.00169 3.07158,-0.05372 4.22435,0.60636c-3.42378,-5.53535 -8.70197,-10.66534 -13.74056,-13.99092c-1.38821,-0.94297 -3.01313,-1.47876 -4.51161,-2.23432c-1.66037,-0.83719 -2.85222,-2.55479 -4.62314,-3.12185c-1.4591,-0.46722 -3.05307,-0.34773 -4.53995,-0.71709c-3.68725,-0.91597 -6.9618,-2.73649 -10.78486,-3.11903c-5.43358,-0.54369 -10.94029,0.14535 -16.24818,0.79345c-3.15556,0.3853 -6.45156,-0.38675 -9.60004,0c-3.08791,0.3793 -6.35913,1.7617 -9.41514,2.37018c-3.06002,0.60928 -6.24145,0.4512 -9.13356,1.45826c-2.91359,1.46106 -4.11854,2.17636 -7.38755,3.26901c-2.95013,0.98607 -3.6654,0.25517 -6.24397,2.6306c-0.76133,0.70136 -1.1037,1.75169 -1.67157,2.61717c-2.5517,3.88905 -4.58983,7.03762 -6.64109,11.13738c-1.45548,2.90901 -3.39543,5.5632 -4.70284,8.59283c-1.76324,4.08589 -1.8156,8.55913 -1.92423,12.97934l2.37414,-1.35666l0.01523,0.02666c0.01516,-0.02008 0.03032,-0.04015 0.04548,-0.06024l0.0759,-0.00331l-0.01429,-0.02857l0.75484,-0.37741c0.03089,-0.01627 0.06217,-0.03192 0.09382,-0.04691l1.50638,-0.75318c0.30582,-0.16101 0.64907,-0.2605 1.0133,-0.28201c0.09052,-0.05639 0.17586,-0.10339 0.25132,-0.14168c-0.02003,-0.04663 -0.03742,-0.09007 -0.05234,-0.12944c-0.38991,-0.2901 -0.72618,-0.75484 -0.88976,-1.49096c-0.16246,-0.73108 -0.05725,-1.29182 0.16984,-1.71868l-0.22139,-1.02333c0.66642,-1.48001 0.90129,-3.24461 1.99925,-4.44003c0.80288,-0.87415 2.18541,-0.93007 3.30219,-1.332c2.20245,-0.79268 4.89048,-1.21641 7.08806,-0.55743c-0.07495,-0.16324 -0.14278,-0.32967 -0.20139,-0.50025c-0.4998,-1.45482 -1.32679,-3.05929 -0.87778,-4.53058c0.642,-2.10369 5.03685,-4.37558 7.11352,-4.1179c2.77205,0.34397 5.46484,3.87846 7.96656,5.03208c0.70275,0.32406 1.52069,0.40417 2.2752,0.60282c-0.10348,-4.12825 1.23521,-8.02242 6.94389,-4.7438c1.75315,1.00687 1.80978,3.67907 3.18316,5.1627c0.71501,0.7724 1.82238,1.08247 2.60008,1.79171c2.16773,1.97692 4.40073,4.37844 6.25145,6.67062c0,0 0.5045,0.63062 0.5816,1.46175h0.26622c0,0 2.5,0 2.5,2.5c0,0.23173 -0.02147,0.44198 -0.06045,0.63275c3.73686,4.18721 9.63561,2.83218 13.2301,-0.90245c-0.04231,-0.12012 -0.07928,-0.24924 -0.11012,-0.388c-0.19607,-0.88234 -0.00225,-1.51656 0.32517,-1.96674c-0.00985,-0.71539 0.27926,-1.2936 0.27926,-1.2936c2.31388,-4.62066 4.692,-8.88164 8.37324,-12.54926c0.91588,-0.91249 1.48025,-2.51313 2.75473,-2.73034c0.33092,-0.0564 0.6669,-0.07126 1.0039,-0.0515c0.16285,-0.03335 0.33148,-0.05086 0.50419,-0.05086zM217.58985,155.34273c-0.05458,-0.10695 -0.10797,-0.21459 -0.16052,-0.32265c-0.14012,0.14121 -0.29697,0.26579 -0.46734,0.37051c0.20475,-0.00578 0.41472,-0.02238 0.62786,-0.04786zM290.78956,150.15268l-2.30057,3.35966c0,0 -0.24387,0.34142 -0.67167,0.64462c-0.01122,0.01976 -0.02246,0.03951 -0.03373,0.05924c2.67804,0.28098 5.3359,1.22567 7.89278,2.1782c-1.20661,-2.97458 -2.30361,-6.01943 -3.50795,-8.87376c-0.25676,-0.60854 -0.54102,-1.21637 -0.85014,-1.82175c0.07303,1.40896 -0.51885,3.01967 -0.52872,4.45378zM218.3333,196.81421c0.77242,-0.21649 1.57519,-0.47678 2.38832,-0.78149c-0.96002,0.27135 -1.91989,0.54037 -2.85824,0.84837c0.16077,-0.02149 0.31757,-0.04381 0.46992,-0.06688zM213.69018,178.5971c-0.0503,0.20598 -0.15088,0.52553 -0.34088,0.84774l-0.00091,0.43717c0.07354,0.50621 0.14708,1.01242 0.22062,1.51863c0.08371,-0.13183 0.18425,-0.25939 0.3049,-0.37747c-0.05882,-0.80886 -0.11987,-1.61758 -0.18373,-2.42609zM241.4186,199.97728c-0.3278,-0.6556 -0.36727,-1.21509 -0.25931,-1.67847c-0.67423,0.3597 -1.77331,0.6273 -2.87239,-0.47179c-1.76777,-1.76777 0,-3.53553 0,-3.53553l1.11469,-1.06658c0.93333,-0.66667 1.86666,-1.33333 2.79999,-2c0,0 0.71509,-0.51078 1.60016,-0.50271c-1.81404,-6.59731 1.54604,-14.78436 -1.16308,-21.07673c-1.14285,0.16563 -2.29575,0.18745 -3.43521,0.05581c-0.15533,0.40006 -0.34877,0.65798 -0.34877,0.65798l-0.72513,0.45352c-0.69333,4.77251 -0.0865,9.69401 -0.80715,14.44693c-0.38762,2.55646 -1.37382,4.80726 -2.76864,6.77172c0.09659,0.82661 -0.26303,1.54584 -0.26303,1.54584c-0.72595,1.44286 -1.35769,2.93889 -1.86437,4.47255l-1.00393,1.37717c0,0 -1.46285,1.46285 -3.05784,0.39638c-0.23072,0.49218 -0.54217,0.80363 -0.54217,0.80363c-0.931,0.93036 -1.87816,1.84491 -2.83942,2.74448c-0.02156,0.0349 -0.04396,0.06923 -0.06716,0.10296l-1.58105,2.37155l-0.40793,-0.27196c-0.24109,0.56994 -0.50705,1.12821 -0.80211,1.67079c-0.41759,0.76789 3.56387,1.48095 3.8756,1.51499c0.77409,0.08453 1.41871,-0.64585 1.89189,-1.32889c-0.21126,-0.42497 -0.40434,-0.85717 -0.5784,-1.29388c0,0 -0.87781,-2.34082 1.46301,-3.21863c2.34082,-0.87781 3.21863,1.46301 3.21863,1.46301c0.45896,1.34497 1.23622,2.6476 2.26692,3.64233c0.59013,0.17945 0.99272,0.51494 0.99272,0.51494c0.11664,0.11809 0.2344,0.22677 0.35323,0.32652l0.36434,0.15794c0,0 0.32008,0.16003 0.65748,0.48011c1.38055,0.59318 2.87662,0.2507 4.42464,-0.37912c0.06744,-0.06994 0.13892,-0.13596 0.21406,-0.19768l2.38533,-1.98778l0.00679,0.00815l0.01249,-0.02405c0.00883,-0.0023 0.01766,-0.0046 0.02649,-0.0069l-0.00705,-0.00881l1.98445,-1.58757c0.13052,-0.10626 0.27197,-0.19961 0.4224,-0.27811l0.58429,-1.02251l-0.86547,0.75839c0,0 -1.11805,-2.23606 1.11801,-3.35411c2.23606,-1.11805 3.35411,1.11801 3.35411,1.11801l0.23326,1.25699c0.50993,0.45769 0.8307,1.12192 0.8307,1.86106c0,0.51294 -0.15448,0.98981 -0.41946,1.3866c1.85041,-0.36884 1.86714,-1.59449 3.20973,-3.94328c0.23177,-0.40547 1.17291,-0.45192 1.06792,-0.907c-0.10757,-0.46624 -1.02994,-0.08426 -1.37347,-0.41734c-0.90419,-0.87668 -1.47742,-2.03994 -2.21529,-3.06065c-1.06413,-0.35193 -2.07587,-0.81388 -3.01084,-1.41408c-0.12787,0.224 -0.23807,0.35624 -0.23807,0.35624c-0.66667,0.8 -1.33333,1.6 -2,2.39999l-1.60251,1.0356c0,0 -2.23607,1.11803 -3.3541,-1.11803zM176.14501,151.15251c1.35287,-3.17557 3.37728,-5.96542 4.89713,-9.00715c2.10751,-4.21783 4.2321,-7.62885 6.90594,-11.58312c0.78462,-1.16036 1.33499,-2.53111 2.38139,-3.4623c4.03779,-3.59322 10.37616,-4.51101 15.16852,-6.90038c3.37502,-1.09376 6.57299,-1.03964 10.0664,-1.74176c3.20325,-0.6438 6.55404,-2.02035 9.78481,-2.42981c3.15183,-0.39945 6.45588,0.40306 9.60003,0c5.64273,-0.72337 11.58321,-1.41051 17.3518,-0.80659c4.16507,0.43605 7.50066,2.23677 11.50201,3.24328c1.69857,0.42727 3.51691,0.351 5.17318,0.9206c1.44392,0.49657 3.52664,2.56 4.97683,3.27819c1.70222,0.84301 3.50065,1.52287 5.08837,2.56566c7.10958,4.7797 14.23067,12.28468 17.69958,20.26874c1.88821,4.3459 3.39018,9.2277 5.55949,13.513c1.3125,2.59274 2.98356,4.87997 3.42194,7.89792c0.59821,4.11829 0.60953,10.35266 -0.98143,14.21183c-0.63984,1.55205 -1.77053,2.88993 -2.28601,4.48759c-0.83997,3.36817 -1.29321,7.44878 -2.49063,10.65775c-0.90847,2.43462 -2.36174,4.32398 -3.10935,6.94227c-1.44338,5.05503 -2.86443,10.77603 -5.97223,15.16279c-0.1745,0.24632 -4.88923,4.92706 -5.1901,5.22686l-0.31143,0.23431c-0.04579,0.06686 -0.09317,0.13279 -0.14225,0.19775c-1.74793,2.31294 -3.96335,2.71158 -5.99937,4.41264c-2.49807,2.08712 -4.63651,4.3785 -7.62104,5.87923c-11.46443,5.76477 -24.32023,7.94506 -36.91754,9.07528c-3.03403,0.27221 -5.94961,1.56109 -8.99541,1.61162c-1.83892,0.03051 -3.65165,-0.4422 -5.47748,-0.6633c-3.24625,-0.82589 -7.62367,-1.56547 -10.73017,-2.72643c-0.91892,-0.34342 -1.55393,-1.2349 -2.45469,-1.62345c-1.08336,-0.46731 -2.39943,-0.31943 -3.42039,-0.91078c-1.13189,-0.65561 -1.84666,-1.85646 -2.83551,-2.7127c-2.17658,-1.8847 -4.45783,-3.65912 -6.49708,-5.69162c-5.58197,-5.56349 -11.00396,-11.89703 -14.1453,-19.21446c-1.45778,-3.39575 -2.28196,-7.12193 -3.29063,-10.65777c-1.14364,-4.00897 -2.48099,-7.33777 -2.48099,-11.59348c-0.08551,-0.33368 -0.16967,-0.66773 -0.25206,-1.00216c0,-1.11111 0,-3.32552 0,-4.43663c0,-4.26999 0,-8.53999 0,-12.80998c-0.33094,-0.78803 -0.24101,-1.42785 0,-1.91949c0,-1.97906 0,-3.95813 0,-5.9372c0,0 0,-0.19687 -0.08734,-0.4159c0.17351,-3.92959 0.52989,-7.82944 2.11103,-11.54084z" fill="#000000" stroke-width="0.5"></path>
        <path d="M273.57016,185.47418c-1.23995,0.8907 -2.87329,1.75628 -4.62897,2.43385l-0.0006,-0.4008c0,-1.66667 -0.01549,-3.34098 -0.01549,-5.00765c0,0 -0.01976,-2.53203 -2.51976,-2.53203c-0.13243,0 -0.25791,0.00662 -0.37669,0.01991c-0.03357,-0.40635 -0.05659,-0.82548 -0.06949,-1.23394c0.34777,0.53238 0.96249,1.01503 2.04638,1.01503c2.5,0 2.52859,-2.55489 2.52859,-2.55489l-0.04337,-0.89228c-0.00109,-0.00531 -0.00215,-0.01064 -0.00324,-0.01595c0.45182,-0.69464 0.462,-1.49592 0.462,-1.49592l0.00262,-4.46688c1.63817,1.68742 3.09671,3.6229 4.21311,5.39752c0.80569,1.28072 1.81217,2.47917 1.6491,4.1011c-0.20971,2.08585 -1.99664,4.13131 -3.24419,5.63291z" fill="#ffcabf" stroke-width="0.5"></path>
        <path d="M257.46823,177.91942c1.13665,-2.20768 2.5659,-4.06827 4.09804,-5.74356l-0.41042,2.25747c-0.22282,3.10237 -0.17092,6.37074 0.48341,9.4115c0,0 0.31709,1.41208 1.54337,1.84834c0,1.13431 -0.00968,2.40261 -0.00968,3.54265c-1.79991,0.10291 -3.56116,-0.13284 -5.02791,-0.86248c-1.80148,-0.89615 -1.74804,-4.19116 -1.63849,-5.73372c0.09746,-1.37227 0.28519,-3.40628 0.96169,-4.72022z" fill="#ffcabf" stroke-width="0.5"></path>
        <path d="M201.98514,176.37238c3.45083,-2.76112 6.8275,-4.34814 9.12507,-7.34839c-0.0356,0.73316 -0.08039,1.46768 -0.13635,2.19983c-0.50861,0.3598 -1.09002,1.00055 -1.02126,2.02504l-0.75325,1.25722c-0.01809,0.14479 -0.0351,0.29024 -0.0532,0.43503c-0.765,0.74048 -0.76205,1.87771 -0.76205,1.87771l0.02333,2.95606c-0.69986,0.99077 -0.27969,2.29722 -0.27969,2.29722l0.29281,0.76966c0.13333,0.93333 0.2539,1.87912 0.38723,2.81245c0,0 0.29261,2.39584 2.76748,2.04229c0.83654,-0.11951 1.4223,-0.41302 1.73541,-0.83976c-0.08014,1.89244 -0.34725,3.74675 -0.60114,5.65827c-0.18453,-0.00376 -0.34106,-0.0175 -0.45551,-0.04558c-1.77966,-0.43663 -3.25258,-1.75398 -4.99206,-2.33022c-1.69061,-0.56006 -3.46094,-1.21198 -4.82691,-2.35475c-1.55807,-1.30349 -4.85321,-4.80514 -4.73668,-7.14888c0.07472,-1.50287 3.32211,-3.49138 4.28674,-4.26321z" fill="#ffcabf" stroke-width="0.5"></path>
        <path d="M225.87867,188.36604c-2.06438,2.03672 -5.31234,2.57221 -8.09432,3.35939c0.25274,-2.0831 0.44772,-4.12298 0.45045,-6.23905c0.70373,-0.75458 0.67614,-1.85146 0.67614,-1.85146l-0.05638,-2.36776c-0.20884,-2.92164 -0.41795,-5.88484 -0.70562,-8.79978c0.07332,-0.41442 0.02963,-0.90198 -0.22658,-1.46083c0.6789,0.11131 1.35167,0.26577 1.98835,0.5254c1.78163,0.72653 2.70063,2.43515 3.90601,3.7638c2.99993,3.3067 6.19076,8.99677 2.06193,13.07028z" fill="#ffcabf" stroke-width="0.5"></path>
        <path d="M241.40557,199.929c1.11803,2.23606 3.34342,1.12228 3.34342,1.12228l1.59627,-1.03163c0.66667,-0.79999 1.32451,-1.59155 1.99119,-2.39155c0,0 0.10915,-0.1309 0.23702,-0.3549c0.93497,0.6002 2.02759,1.12091 3.09172,1.47284c0.73787,1.02071 1.30917,2.18657 2.21336,3.06325c0.34353,0.33308 1.26668,-0.04991 1.37425,0.41633c0.10499,0.45508 -0.83825,0.50413 -1.07002,0.9096c-1.34259,2.34879 -1.36824,3.58255 -3.21865,3.95139c0.26498,-0.39679 0.35938,-0.95355 0.35938,-1.46649c0,-0.73914 -0.32184,-1.40249 -0.83177,-1.86018l-0.23463,-1.25579c0,0 -1.05555,-2.15823 -3.29162,-1.04018c-2.23606,1.11805 -1.16838,3.26815 -1.16838,3.26815l0.86246,-0.75683l-0.53794,1.11107c-0.15043,0.0785 -0.29321,0.17247 -0.42373,0.27873l-1.99092,1.58996l0.00707,0.0088c-0.00883,0.0023 -0.01774,0.00462 -0.02657,0.00692l-0.01254,0.02407l-0.0068,-0.00814l-2.39254,1.98931c-0.07514,0.06172 -0.14722,0.12782 -0.21466,0.19776c-1.54802,0.62982 -3.05532,0.97241 -4.43587,0.37923c-0.3374,-0.32008 -0.65928,-0.48032 -0.65928,-0.48032l-0.36532,-0.15808c-0.11883,-0.09975 -0.23762,-0.20861 -0.35426,-0.3267c0,0 -0.40537,-0.33607 -0.9955,-0.51552c-1.0307,-0.99473 -1.81697,-2.30046 -2.27593,-3.64543c0,0 -0.8871,-2.34632 -3.22792,-1.46851c-2.34082,0.87781 -1.4046,3.13748 -1.4046,3.13748c0.17406,0.43671 0.36468,0.86732 0.57594,1.29229c-0.47318,0.68304 -1.17146,1.49777 -1.94555,1.41324c-0.31173,-0.03404 -4.29982,-0.75237 -3.88223,-1.52026c0.29506,-0.54258 0.56011,-1.10173 0.8012,-1.67167l0.4087,0.27271l1.58015,-2.37242c0.0232,-0.03373 0.11635,-0.13874 0.13791,-0.17364c0.96126,-0.89957 1.83777,-1.74334 2.76877,-2.6737c0,0 0.3824,-0.38192 0.61312,-0.8741c1.59499,1.06647 3.05204,-0.40144 3.05204,-0.40144l0.94407,-1.29707c0.50668,-1.53366 1.13088,-3.03665 1.85683,-4.47951c0,0 0.35352,-0.72782 0.25693,-1.55443c1.39482,-1.96446 2.4103,-4.28764 2.79792,-6.8441c0.72065,-4.75292 0.12674,-9.67649 0.82007,-14.449l0.72704,-0.45353c0,0 0.1943,-0.25791 0.34963,-0.65797c1.13946,0.13164 2.30072,0.11076 3.44357,-0.05487c2.70912,6.29237 -0.61159,14.53796 1.20245,21.13527c-0.88507,-0.00807 -1.60319,0.51268 -1.60319,0.51268c-0.93333,0.66667 -1.90231,1.36278 -2.83564,2.02945l-1.12914,1.06751c0,0 -1.76144,1.66798 0.00633,3.43575c1.09908,1.09909 2.18186,0.83344 2.85609,0.47374c-0.10796,0.46338 -0.06749,1.02259 0.26031,1.67819z" fill="#ffac33" stroke-width="0.5"></path>
        <path d="M270.72282,163.66414c0.23477,-0.22589 0.47103,-0.45463 0.70378,-0.68697c0,0 1.13884,-1.13733 0.67651,-2.49984c3.0213,-0.21945 6.0686,-0.38858 9.11709,-0.70015c0.98019,0.59643 1.8028,0.42998 2.38446,0.10005c2.10158,0.16409 4.31562,-0.59292 6.40425,-0.19831c1.07664,0.20342 2.12516,0.55095 3.15781,0.94475c-0.47546,0.45511 -0.77047,1.09766 -0.77047,1.8078c0,0.17988 0.01949,0.35606 0.05559,0.52517c-0.72132,0.98439 -0.81233,2.55178 -1.19749,3.75885c-0.79624,2.49542 -0.99586,5.40242 -1.58324,7.96287c-1.03812,4.52523 -3.05438,8.9623 -5.34686,12.97026c-0.99341,1.73679 -2.18239,4.88264 -4.19028,5.83181c-1.10093,0.52043 -3.50912,0.77086 -4.64189,0.9329c-6.00311,-0.0144 -12.11149,0.75961 -18.08967,0.39257c-2.62013,-0.16087 -6.55053,-1.12347 -8.03459,-3.58664c-1.89294,-3.1418 -0.45711,-7.82567 -0.46278,-11.13628c-0.00643,-3.75625 -0.33287,-8.33461 -1.61526,-11.98176c2.03391,-1.0495 3.91858,-2.58358 5.47766,-4.51104l0.21599,-0.19447c0,0 0.42276,-0.42308 0.64841,-1.05958c2.2152,-0.38572 4.44217,-0.64712 6.66858,-0.77102c0.70439,0.23341 1.37737,0.10996 1.37737,0.10996c0.38185,-0.06947 0.76628,-0.13646 1.14769,-0.19845c0.5241,-0.00648 1.05284,-0.00763 1.57848,-0.00021c-0.02762,0.12973 -0.00863,0.33763 -0.0181,0.42698l-1.27738,0.43315c0,0 -0.9747,0.97686 -0.74639,2.20673c-4.52541,3.94356 -8.94426,8.05819 -10.29567,14.15886c-0.34164,1.5423 -0.69984,5.23816 -0.44198,6.88335c1.18154,7.53841 7.36995,9.12003 13.72545,8.11138c0.10153,0.00945 0.20692,0.01415 0.31812,0.01415c0.58002,0 1.02186,-0.13543 1.36396,-0.34213c3.75483,-0.85618 7.37079,-2.52193 9.89875,-4.32081c2.0324,-2.4339 4.54374,-5.38088 4.76551,-8.77716c0.21045,-3.22276 -0.7801,-4.49234 -2.3606,-7.10566c-2.10679,-3.48352 -5.09228,-6.96278 -8.61643,-9.40121z" fill="#ffcc4d" stroke-width="0.25"></path>
        <path d="M210.51101,197.14351c-0.83321,-0.06329 -1.62277,-0.15647 -2.3135,-0.30347c-3.07131,-0.65364 -5.90501,-2.41928 -8.25054,-4.69971c1.63045,1.11485 3.59887,1.98491 5.7554,2.70808c1.68025,0.56345 3.13663,1.74269 4.80864,2.29509z" fill="#ffcc4d" stroke-width="0.25"></path>
        <path d="M194.46722,176.56839c-1.24459,1.88111 -1.65337,3.44329 -1.45548,4.90629c-0.38648,-0.97325 -0.72629,-1.94743 -0.99672,-2.88435c-0.66073,-2.28912 -0.7391,-4.63751 -0.82249,-6.96636c0.99508,-0.3298 1.71927,-1.28474 1.71927,-2.39047c0,-1.26821 -0.86123,-2.26042 -2.08508,-2.42273c-0.02352,-0.06387 -0.13073,-0.19111 -0.16181,-0.26074c2.67929,-0.56619 5.47262,-0.84947 8.18652,-0.84069l2.81834,0.00223c0.8249,0 1.56443,-0.39622 2.01976,-1.01232c1.38354,0.31673 2.84808,0.17579 4.30576,0.01464c-2.49692,5.45243 -10.11127,6.69024 -13.52808,11.8545z" fill="#ffcc4d" stroke-width="0.25"></path>
        <path d="M216.53871,165.85649c-0.11351,-0.19943 -0.26078,-0.3952 -0.4529,-0.56577c-0.00181,-0.01208 -0.00365,-0.0245 -0.00568,-0.03708c0.02383,-0.13862 0.03719,-0.28223 0.03719,-0.42765c0,-0.07638 -0.00299,-0.15245 -0.00969,-0.22708c4.65476,-0.05058 9.32268,-0.38953 14.05056,-0.46704c0.16763,0.39423 0.37139,0.64709 0.37139,0.64709c1.17421,1.41252 2.50521,2.52427 3.90345,3.32075l-1.2062,1.98904c-0.54232,3.85391 -0.33214,7.82661 -0.55822,11.69458c-0.13004,-1.63382 -0.57722,-3.29789 -1.15639,-4.73266c-1.0168,-2.51888 -2.35561,-3.18875 -4.05727,-5.05716c-2.16521,-2.37739 -2.35977,-3.56011 -5.64551,-5.01161c-1.62165,-0.71638 -3.41948,-0.82678 -5.19319,-1.06222z" fill="#ffcc4d" stroke-width="0.25"></path>
        <path d="M290.75332,150.11822c0.00987,-1.43411 0.63415,-3.06022 0.56112,-4.46918c0.30912,0.60538 0.60339,1.21344 0.86015,1.82198c1.20434,2.85433 2.32486,5.98903 3.53147,8.96361c-2.55688,-0.95253 -5.28341,-1.90614 -7.96145,-2.18712c0.01127,-0.01973 0.02235,-0.03968 0.03357,-0.05944c0.4278,-0.3032 0.67102,-0.64546 0.67102,-0.64546l2.30412,-3.42438z" fill="#ffcc4d" stroke-width="0.25"></path>
        <path d="M268.96488,204.25395c-3.29315,1.64362 -7.40602,2.46696 -11.18096,3.01361c0.34156,-0.66437 0.64772,-1.41579 0.93153,-2.24117c0.44599,-1.29702 1.59433,-2.57182 1.33325,-3.91829c-0.11048,-0.56979 -0.49361,-0.99951 -0.95739,-1.38504c2.73224,0.01123 5.50416,-0.26585 7.91893,-0.41866c2.90463,-0.18381 5.9556,0.03447 8.86737,0.02832c0.10594,-0.01512 0.21382,-0.02965 0.32308,-0.04452c-0.46905,0.20711 -0.92544,0.41807 -1.35141,0.58694c-1.20563,0.47797 -4.43657,3.65617 -5.8844,4.37879z" fill="#ffcc4d" stroke-width="0.25"></path>
        <path d="M280.3257,198.8803c-0.10408,-0.07317 -0.21143,-0.13473 -0.32173,-0.18622c0.84591,-0.19469 1.65398,-0.44946 2.34782,-0.80713c2.36132,-1.21725 3.23572,-2.74917 4.58066,-4.90282c2.87681,-4.60663 5.0749,-9.38665 6.6651,-14.56519c0.78622,-2.56034 1.44661,-5.15793 2.04699,-7.76025c0.15609,-0.67653 -0.01758,-3.11601 0.19348,-3.61151l1.69182,1.55417c0.45241,0.45241 1.07797,0.73319 1.76833,0.73319c0.63594,0 1.21651,-0.23728 1.65771,-0.62835c0.33646,3.13855 0.41854,7.79794 -0.74102,10.37311c-0.77972,1.7316 -1.90013,3.31794 -2.51299,5.11538c-0.79619,3.17744 -1.16511,7.12124 -2.30756,10.14991c-0.6521,1.72874 -1.87075,3.21968 -2.46149,4.97033c-1.29582,3.84017 -2.0938,7.33578 -3.87442,10.90283c-0.8446,1.69195 -1.07637,3.70894 -2.18342,5.24207c-0.22401,0.31024 -0.46624,0.60611 -0.72108,0.88993c-0.09985,-0.05259 -0.2072,-0.10225 -0.3226,-0.14841c-2.32119,-0.92846 -3.25037,1.39506 -3.25037,1.39506c-0.34348,0.92672 -0.48792,1.96498 -0.92098,2.84315l-2.26005,1.69093c0,0 -0.33263,0.25003 -0.62471,0.68063c-1.21286,0.80534 -2.44711,1.61091 -2.66226,1.78976c-2.24297,1.86459 -4.10187,3.99605 -6.78474,5.32898c-10.93674,5.4337 -23.14521,7.43813 -35.1271,8.54098c-4.83035,0.4446 -8.1264,1.64758 -13.06523,1.00647c-2.96897,-0.76065 -6.92263,-1.37254 -9.75639,-2.43929c-0.88161,-0.33188 -1.48094,-1.20991 -2.34774,-1.57874c-0.93805,-0.39915 -2.09283,-0.19206 -2.98169,-0.69124c-0.83307,-0.46784 -1.25203,-1.45531 -1.96649,-2.08968c-2.08649,-1.85257 -4.33156,-3.5458 -6.30792,-5.51543c-5.10046,-5.08308 -10.1957,-10.90629 -13.06094,-17.60479c-1.38194,-3.23077 -2.14792,-6.79028 -3.10961,-10.15127c-1.08741,-3.80037 -2.31774,-6.78547 -2.31774,-10.81501c-1.10079,-4.50036 -2.19252,-9.07967 -1.60167,-13.75993c0.22905,0.06914 0.47202,0.10617 0.72362,0.10617c0.15009,0 0.29715,-0.01337 0.43996,-0.03872l2.93978,-0.47083l-0.02125,-0.1333l0.30961,0.06945c0.07971,-0.06415 0.15951,-0.12848 0.23922,-0.19263l0.03963,0.09522l2.98625,-1.24564c0.322,-0.10408 0.73784,-0.16307 1.05322,-0.26821c0.10754,2.40829 0.21305,4.7862 0.90424,7.2252c2.62303,9.25592 9.96451,19.59266 19.90195,21.73203c3.48444,0.75015 8.52652,0.47456 12.02885,0.00258c-0.05091,0.04282 -0.15224,0.22575 -0.35946,0.50459c-0.13742,0.12117 -0.27506,0.24114 -0.41297,0.36173l-0.52147,0.51243c0,0 -1.25782,1.25138 -0.59102,2.70579c-0.13179,0.56758 -0.26848,1.17894 -0.22591,1.77428c-7.13555,-1.70547 -15.54108,-1.18999 -21.74453,-5.30252l-1.40409,-1.75709c-0.45772,-0.58229 -1.06874,-0.94924 -1.86685,-0.94924c-1.18975,0 -2.18528,0.82895 -2.43792,1.94226l-0.78728,3.14611l0.03588,0.00896c-0.03234,0.09661 -0.06299,0.1936 -0.0918,0.29162c-1.44834,4.9279 0.64318,11.78945 6.07841,12.75938c0.61902,0.11047 1.21513,0.15646 1.79476,0.15242c-0.43606,0.67253 -0.70116,1.26422 -0.6927,1.66935c0.07967,3.81307 3.34111,5.09233 6.09564,6.06943c1.71434,0.60812 6.3801,1.57212 8.03307,1.28627c0.90701,-0.15685 1.86143,-0.51555 2.82492,-0.99068c-0.50019,1.19176 -0.7376,2.30152 -0.38784,3.05484c0.7881,1.69741 3.04816,2.38804 4.88315,2.75564c1.49856,0.30021 3.01242,-0.51531 4.49598,-0.88253c4.23828,-1.04907 7.27729,-3.78896 10.5374,-6.507c1.02851,-0.8575 1.41775,-2.48308 2.64333,-3.02262c0.20605,-0.09071 0.3014,0.3367 0.41722,0.52976c0.54161,0.90275 0.78967,2.01806 1.5455,2.75088c0.94603,0.91722 2.22594,1.40104 3.38042,2.0362c4.17354,2.29617 11.35862,6.16115 15.14095,0.92174c0.90951,-1.25988 0.82558,-2.99049 1.24103,-4.48779c-0.86235,-1.03716 -1.72231,-2.0763 -2.58728,-3.11127c-0.0657,-0.07862 -0.13717,-0.16634 -0.21324,-0.26028c0.17466,0.0623 0.33375,0.12608 0.46843,0.19227c2.97484,1.46189 6.33803,2.83522 9.89259,2.22881c3.15716,-0.53861 8.6726,-4.13401 7.76241,-8.2122c4.35088,-1.21331 8.41208,-4.89493 8.67219,-9.70518c0.09595,-1.77458 0.92986,-4.27719 -0.524,-5.29925z" fill="#ffcc4d" stroke-width="0.25"></path>
        <path d="M261.30466,142.35801c-0.17271,0 -0.34134,0.01758 -0.50419,0.05093c-0.337,-0.01976 -0.67298,-0.00484 -1.0039,0.05156c-1.27448,0.21721 -1.83907,1.82374 -2.75495,2.73623c-3.68124,3.66762 -6.07442,7.95981 -8.3883,12.58047c0,0 -0.29102,0.57996 -0.28117,1.29535c-0.32742,0.45018 -0.52389,1.08655 -0.32782,1.96889c0.03084,0.13876 0.06756,0.26807 0.10987,0.38819c-3.59449,3.73463 -9.52192,5.09957 -13.25878,0.91236c0.03898,-0.19077 0.06065,-0.40103 0.06065,-0.63276c0,-2.5 -2.50748,-2.50035 -2.50748,-2.50035l-0.26702,-0.0001c-0.0771,-0.83113 -0.58417,-1.46217 -0.58417,-1.46217c-1.85072,-2.29218 -4.11178,-4.70972 -6.27951,-6.68664c-0.7777,-0.70924 -1.89172,-1.0289 -2.60673,-1.8013c-1.37338,-1.48363 -1.43575,-4.1758 -3.1889,-5.18267c-5.70868,-3.27862 -6.94917,0.59918 -6.84569,4.72743c-0.75451,-0.19865 -1.66965,-0.25538 -2.3724,-0.57944c-2.50172,-1.15362 -5.19563,-4.6984 -7.96768,-5.04237c-2.07667,-0.25768 -6.37182,2.00853 -7.01382,4.11222c-0.44901,1.47129 0.377,3.06998 0.8768,4.5248c0.05861,0.17058 0.02914,0.3601 0.10409,0.52334c-2.19758,-0.65898 -4.78819,-0.25779 -6.99064,0.53489c-1.11678,0.40193 -2.49944,0.45726 -3.30232,1.33141c-1.09796,1.19542 -1.33379,2.95648 -2.00021,4.43649l0.22109,1.02239c-0.22709,0.42686 -0.33278,0.98621 -0.17032,1.71729c0.16358,0.73612 0.49928,1.19937 0.88919,1.48947c0.01492,0.03937 0.03226,0.08269 0.05229,0.12932c-0.07546,0.03829 -0.2535,0.1228 -0.34402,0.17919c-0.36423,0.02151 -0.61476,0.08356 -0.92058,0.24457l-1.50643,0.75307c-0.03165,0.01499 -0.06293,0.03063 -0.09382,0.0469l-0.75486,0.37736l0.01428,0.02854l-0.07589,0.00333c-0.01516,0.02009 -0.03033,0.04013 -0.04549,0.06021l-0.01522,-0.02664l-2.46664,1.39465c0.10863,-4.42021 0.15804,-8.90338 1.92128,-12.98927c1.30741,-3.02963 3.24653,-5.69154 4.70201,-8.60055c2.05126,-4.09976 4.09063,-7.26097 6.64233,-11.15002c0.56787,-0.86548 0.91112,-1.91914 1.67245,-2.6205c2.57857,-2.37543 3.29583,-1.64995 6.24596,-2.63602c3.26901,-1.09265 4.47836,-1.81598 7.39195,-3.27704c2.89211,-1.00706 6.08137,-0.85803 9.14139,-1.46731c3.05601,-0.60848 6.34294,-2.00056 9.43085,-2.37986c3.14848,-0.38675 6.46499,0.38204 9.62055,-0.00326c5.30789,-0.6481 10.84232,-1.32698 16.2759,-0.78329c3.82306,0.38254 7.10829,2.21418 10.79554,3.13015c1.48688,0.36936 3.08312,0.25343 4.54222,0.72065c1.77092,0.56706 2.96554,2.29021 4.62591,3.1274c1.49848,0.75556 3.12492,1.29542 4.51313,2.23839c5.03859,3.32558 10.31924,8.47138 13.74302,14.00673c-1.15277,-0.66008 -2.86646,-0.60861 -4.22435,-0.60692c-1.34021,0.00167 -3.36386,0.64444 -5.18912,1.54707c2.27641,-3.46674 2.80017,-8.73141 -1.59769,-10.26791c-1.54414,-0.53949 -3.11697,0.80442 -4.51514,1.65327c-0.84335,0.51201 -1.2247,1.55145 -1.89075,2.2793c-2.04386,2.23351 -2.62404,2.52175 -4.97338,4.58333c-0.85692,0.75196 -1.78656,1.43808 -2.56953,2.26443c-0.06317,-0.01539 -0.22711,-0.03423 -0.29205,-0.04472c0.04742,-0.37356 0.04404,-0.71245 -0.23398,-0.8984c-0.54668,-0.36562 -1.15224,-0.70419 -1.78626,-0.96689c-0.43087,-0.35236 -0.98151,-0.56268 -1.58153,-0.56268z" fill="#ffcc4d" stroke-width="0.25"></path>
      </g>
    </g>
  </g>
</svg>
