<?xml version="1.0" encoding="UTF-8"?>
<svg xmlns="http://www.w3.org/2000/svg" xmlns:xlink="http://www.w3.org/1999/xlink" version="1.1" width="295.50294" height="351.28681" viewBox="0,0,295.50294,351.28681">
  <g transform="translate(-92.24853,-4.3566)">
    <g stroke="none" stroke-width="0.5" stroke-miterlimit="10">
      <g>
        <path d="M236.19209,326.07512c-0.10516,0.0533 -0.21841,0.10686 -0.34027,0.16073c0,0 -0.80696,0.54289 -1.11516,1.36802c-0.68547,0.07105 -1.37209,0.1377 -2.05632,0.21368l-0.00947,0.01262c-0.52893,0.31981 -1.07246,0.63629 -1.62862,0.94778c-1.39069,0.39735 -2.78208,0.79365 -4.17276,1.19099c0,0 -1.42318,0.407 -1.7664,1.68978c-1.29654,0.53404 -2.62255,1.01707 -3.96061,1.43295c-0.12241,-0.29001 -0.32059,-0.58928 -0.61912,-0.88781c-1.76776,-1.76777 -3.44997,-0.05173 -3.44997,-0.05173l-1.94688,2.04067c-0.35015,0.10326 -0.79075,0.26303 -1.14909,0.37401c-0.21414,0.01921 -0.42795,0.03568 -0.64115,0.04969c-0.45344,-0.46045 -1.0846,-0.74687 -1.7819,-0.74687c-0.29691,0 -0.58183,0.05159 -0.84603,0.14657l-2.34475,0.78127l0.02757,0.08268c-0.1119,0.01177 -0.22372,0.02604 -0.33538,0.04321c-0.91371,0.14053 -1.6762,0.71227 -2.45437,1.25619c-0.53803,-0.06596 -1.06675,-0.09547 -1.55301,0.10791c-0.09545,0.03992 -0.19001,0.08151 -0.28372,0.12468l-0.01722,-0.06881l-3.14944,0.78694c-0.04057,0.00921 -0.08077,0.01938 -0.12056,0.03054c-0.17712,-0.0125 -0.3518,-0.03246 -0.52343,-0.0604c-2.2956,-0.37369 -4.22334,-1.02538 -6.3643,-1.38212l0.05306,-0.20386c-2.58199,-0.5091 -5.12194,-1.28862 -7.5629,-2.27226c0,0 -0.59083,-0.2366 -1.29546,-0.17277c-2.79204,-0.97424 -5.22466,-2.32525 -7.90969,-3.38765c-1.01556,-0.73923 -1.97545,-1.56138 -2.8843,-2.43011l-0.01941,-0.36104l0.07877,-0.13208c-0.01076,-1.20013 0.42012,-2.49056 -0.03271,-3.60204c-0.05078,-0.12465 -0.10573,-0.24721 -0.16429,-0.36755l0.06824,-0.02275l-0.78202,-2.34651c-0.23939,-0.77841 -0.84881,-1.39575 -1.62281,-1.6451l0.0044,-0.01054c-0.88489,-2.58771 -1.74875,-4.08345 -2.98685,-5.35118l0.21466,-0.16107l-1.62351,-2.16554l-0.32527,-1.62661l-0.05769,0.01154l0.02249,-0.16298c-0.2652,-0.79866 -0.60486,-1.56833 -0.99401,-2.31496l0.20304,-0.05078l-0.72543,-2.9028l-0.00002,-1.29288c0,-1.07384 -0.11469,-2.14234 -0.3045,-3.20143l0.30448,0l0.00002,-3.60988c0.13897,-0.44342 0.26698,-0.89081 0.38592,-1.34016c0.22914,-0.51966 0.45039,-1.04391 0.66449,-1.57077c0.95486,-0.50536 1.2608,-1.62221 1.2608,-1.62221l0.00071,-0.00258c2.42677,-8.85846 6.14469,-17.51519 6.46836,-26.7213c0.00293,-0.02694 0.0056,-0.05399 0.00797,-0.08106c0.02719,-0.31027 0.02981,-0.62019 0.01383,-0.92914c0.00036,-0.04662 0.00064,-0.09332 0.00081,-0.13997c0,0 0.00007,-0.2009 -0.05679,-0.48856c-0.06934,-0.56032 -0.18542,-1.11987 -0.31117,-1.67847c3.17943,0.51047 6.33613,0.50873 9.49103,0.67324c1.17163,0.3872 2.28163,0.74841 2.37738,0.75926c1.35465,0.15353 2.67394,0.20361 3.97754,0.22169l0.34735,0.71694c0,0 1.12362,1.17641 2.54681,0.58349c0.02724,0.00906 0.04222,0.01333 0.04222,0.01333c2.97118,0.83958 6.05423,1.23708 9.11173,1.66663c1.19237,0.16752 2.31226,0.82911 3.51634,0.82722c3.06904,-0.00481 6.01382,-1.30423 9.06746,-1.61125c3.97079,-0.39924 8.06609,0.35825 12.04293,-0.00798c3.27238,-0.30136 5.96952,-1.38389 9.14923,-1.56665c0.45524,0.47682 1.09761,0.7734 1.80891,0.7734c0.22872,0 0.45062,-0.03109 0.66109,-0.08862l3.09685,-0.77567c0.10767,-0.02444 0.21293,-0.05603 0.31482,-0.09386c1.66321,-0.19367 2.94378,-1.62667 4.49876,-2.24855c7.69973,-3.07932 15.76541,-5.0929 23.49142,-8.16313c0.16679,-0.05849 0.26476,-0.09459 0.26721,-0.09964c0.00139,-0.00287 0.00277,-0.00573 0.00413,-0.00859c0.02046,-0.00821 0.04098,-0.01642 0.06143,-0.02464l0.16004,-0.227l0.06309,0.09455l2.37035,-1.57864c0.56556,-0.36525 0.97541,-0.95259 1.10388,-1.63864c1.61461,-0.42812 3.28698,-0.88652 4.42639,-1.98518c0.10606,0.28888 0.21154,0.57677 0.31625,0.86383c-0.09521,0.37554 -0.09524,0.65852 -0.09524,0.65852c0.01522,5.31143 0.89874,8.70283 3.05182,13.58523l0.40246,1.05029c-1.48814,0.47249 -2.92784,1.00201 -4.29236,1.54282c0,0 -2.3124,0.82888 -1.38392,3.15007c0.92848,2.32119 3.25524,1.39342 3.25524,1.39342c2.69019,-1.08728 5.81918,-2.13952 8.88889,-2.66784c2.68298,0.24545 5.33574,0.25113 7.98758,0.15689c0.69147,0.14223 1.38351,0.30283 2.07376,0.4603c0.47624,0.4137 1.06758,0.5608 1.42448,0.61227c0.36392,0.45658 0.95798,0.8297 1.92169,0.8297c1.16625,0 1.78911,-0.54342 2.12105,-1.12392c1.24081,-0.17417 2.48215,-0.3737 3.72773,-0.4858c0.8239,-0.07415 1.65472,-0.12715 2.48876,-0.16543l0.85545,0.14533c0,0 0.81187,0.13588 1.58135,-0.21416c4.67105,-0.06182 9.43614,0.25494 14.03454,0.25494l0.80016,0.00029c0,0 1.81628,-0.00009 2.35257,-1.54828c1.17626,0.15503 2.33799,0.37531 3.47713,0.68358c2.97029,0.80381 4.15237,1.49539 6.04977,2.71583c0.14148,1.49499 1.73315,2.02694 1.73315,2.02694c6.05943,1.97538 10.98915,5.80668 16.19909,9.31184l0.42637,0.49286c0,0 1.66989,1.78822 3.43765,0.02046c0.42822,-0.42822 0.74682,-0.87707 0.8355,-1.28016c0.72711,0.5821 1.44226,1.18424 2.14158,1.79954c-0.01418,1.06149 0.78567,1.8622 0.78567,1.8622c4.74997,4.75003 9.70784,8.90576 11.34313,15.64705l-0.07465,0.19381c0,0 -0.00002,2.50119 2.49998,2.50119c0.2628,0 0.49799,-0.02767 0.70845,-0.07712c0.01754,1.50559 0.06673,2.94292 0.18677,4.35643c-1.57731,1.0493 -0.81665,2.95261 -0.81665,2.95261c0.82587,2.0631 1.47629,4.08268 2.05238,6.11527c-0.59269,-0.18154 -1.37981,-0.22452 -1.93199,-0.50184c-0.26581,-0.1335 -0.42568,-0.24842 -0.67888,-0.37447c0.07938,0.63711 0.07931,1.03551 0.07931,1.03551l-2.48183,3.07875c0.40895,0.26169 0.78806,0.51052 1.17129,0.71876c-0.13152,0.98691 0.32762,1.64115 0.80446,2.04291c0.02533,0.1739 0.06888,0.35826 0.13381,0.55306c0.79055,2.37171 3.06468,1.55931 3.06468,1.55931l0.58228,-0.37392c0.04,0.02762 0.17684,0.07758 0.21534,0.1063c-0.05498,0.77948 0.27318,1.43663 0.27318,1.43663c0.21113,0.36798 0.39371,0.69711 0.54759,0.99459c-0.00765,0.09201 -0.01167,0.18797 -0.01167,0.28779c0,0.29765 0.03536,0.56019 0.0978,0.79119c-0.80611,0.31459 -1.27813,1.02296 -1.27813,1.02296c-1.47408,2.25149 -3.01915,3.86033 -4.74175,5.32491c-0.14636,0.02482 -0.28843,0.06247 -0.42496,0.11155l-2.34483,0.7822l0.0573,0.17203l-0.42703,-0.01465c-1.15146,0.85064 -2.21565,1.82328 -3.2028,2.87254l-0.22431,-0.33663l-2.36819,1.57959c-0.1963,0.12677 -0.37382,0.28059 -0.52717,0.45572c-0.16725,-0.03527 -0.34069,-0.05375 -0.51844,-0.05375c-0.22871,0 -0.45032,0.03087 -0.66078,0.0884l-3.14603,0.78731l0.04099,0.16412l-0.39142,-0.04834c-0.42237,0.25077 -0.86487,0.47611 -1.30997,0.69716l-0.06756,0.02254l0.00314,0.00944c-0.01505,0.00746 -0.03011,0.01493 -0.04516,0.02239c-0.01827,0.00065 -0.03658,0.00157 -0.05495,0.00276c-1.65629,0.10682 -3.02241,1.38365 -4.57871,1.96039c-2.89751,1.07377 -5.89058,1.96937 -8.86807,2.87755c-0.28614,-0.11404 -0.5984,-0.17658 -0.92521,-0.17658c-0.22871,0 -0.45038,0.03093 -0.66085,0.08845l-3.14641,0.78757l0.01569,0.06284l-0.17857,-0.01615c-0.04557,0.03801 -0.09119,0.07611 -0.13676,0.11412l-0.02258,-0.05651l-3.94721,1.58013c-0.53427,0.19949 -0.98261,0.57731 -1.27202,1.06009c-2.28972,0.45975 -5.71203,0.99386 -7.00827,1.10148c-6.35479,0.52758 -12.93834,-0.65592 -19.25631,0.12394c-0.73851,0.09116 -1.35289,0.75939 -2.09692,0.77054c-2.16838,0.03248 -5.14081,-1.70829 -7.20861,-2.29998c-0.50698,-0.14508 -1.01405,-0.28839 -1.51925,-0.4323c-2.98966,-0.24246 -5.61179,-1.79792 -7.27887,-4.09123c-0.33281,-0.07207 -0.66646,-0.14371 -0.99932,-0.21561c0.25896,-0.0307 0.48168,-0.1559 0.74328,-0.18776c-0.56381,-0.84076 -0.96491,-1.67953 -1.25407,-2.6746c-0.88477,-1.17926 -1.51515,-2.56039 -1.80933,-4.06198c-0.61966,0.15067 -1.24734,0.29024 -1.87932,0.41583c0,0 -1.373,0.27495 -1.85963,1.4379c-1.19372,0.07278 -2.38669,0.13 -3.5622,0.13415c-0.93288,0.26103 -1.83372,0.76014 -2.80214,0.7837c-1.58673,0.03859 -2.93023,-1.34095 -4.50094,-1.56911c-2.11118,-0.30667 -4.29303,0.27725 -6.40821,-0.00048c-1.36244,-0.1789 -4.34921,-1.98268 -5.14003,-2.27852c-4.82735,-1.80588 -8.72729,-3.04431 -13.04021,-6.10466c-1.17743,-0.83548 -2.23065,-1.86745 -3.48782,-2.57729c-0.8506,-0.48029 -1.82726,-0.71139 -2.77203,-0.95964c-0.37804,-0.09933 -0.9284,0.16023 -1.2312,-0.00871c0.16696,-1.65089 -0.38264,-3.21874 -0.91313,-4.7792c0.85368,-2.46931 1.65677,-4.89192 2.19749,-7.56161c0,0 0.4883,-2.45622 -1.96315,-2.94654c-2.45145,-0.49032 -2.84817,1.92592 -2.84817,1.92592c-0.39849,2.0209 -0.97987,3.88217 -1.61507,5.7438c-0.83592,0.73688 -0.83667,1.93989 -0.83667,1.93989l0.02968,0.37011c-0.23509,0.67024 -0.47163,1.34631 -0.7024,2.03765l-0.12905,1.58936c0,0 -0.00113,1.02048 0.65241,1.7576z" fill="#b98800"></path>
        <path d="M269.15174,69.65639c-2.05928,14.67855 1.19781,28.91959 3.15784,43.43395c0.43078,3.19 0.63599,6.44852 0.96747,9.67305c-0.12906,0.4351 -0.12907,0.78218 -0.12907,0.78218c0,7.86836 0.88104,15.50667 1.52291,23.33984c0.31778,3.87803 0.26866,7.89436 0.72957,11.7742c-0.17215,0.02546 -0.35436,0.06896 -0.54692,0.13315c-2.37171,0.79056 -1.58192,3.16401 -1.58192,3.16401c2.11053,6.31574 2.93911,12.97073 3.90047,19.57455c-0.07533,0.5779 0.04193,1.04819 0.04193,1.04819c0.07028,0.28047 0.15043,0.55892 0.23681,0.83575c0.38308,2.52861 0.80343,5.04735 1.34331,7.53102c-0.12991,1.58609 -0.3748,3.05976 -0.02508,5.03091c0.05703,0.32144 0.122,0.64124 0.19365,0.95936c-0.14517,0.31678 -0.22635,0.66945 -0.22635,1.0407c0,0.18572 0.02015,0.36684 0.05857,0.54102l0.78918,3.95017l0.28763,-0.05758c-0.11551,2.84491 0.04092,5.59447 0.49449,8.76952c0.17714,1.23996 0.32356,2.48542 0.50048,3.72541c-0.97118,0.5182 -1.2593,1.66899 -1.2593,1.66899c-0.31063,1.2691 -0.72177,2.51951 -1.21753,3.73269c-0.11694,-0.01677 -0.23656,-0.02539 -0.35814,-0.02539c-0.82831,0 -1.56314,0.40338 -2.01806,1.02381l-2.38368,3.17767l0.0284,0.0213c-0.05217,0.05426 -0.10393,0.10911 -0.15511,0.16444c-0.60601,0.65517 -1.05219,1.42602 -1.45277,2.22983c-0.075,-0.09406 -0.15927,-0.18838 -0.2536,-0.2827c-1.7678,-1.76774 -3.53637,0.00072 -3.53637,0.00072l0.9069,-0.01155c-0.09069,0.00033 -0.11993,0.08022 -0.2099,0.08131c-0.33659,-0.06125 -0.66129,-0.03547 -0.94452,0.02602c-1.59378,0.06815 -3.08597,0.25849 -4.5498,0.54319c-0.04624,-0.08443 -0.09811,-0.17012 -0.15604,-0.25702c-1.38675,-2.08013 -3.46767,-0.69283 -3.46767,-0.69283l-2.11251,1.43491c-0.98547,0.3643 -2.05237,0.36399 -3.12435,0.23215c-0.2021,-0.34515 -0.41044,-0.55347 -0.41044,-0.55347l-3.35913,-1.40353c-2.10629,0.70216 -4.21402,1.36768 -6.33102,2.00577c-0.23199,-2.13274 -2.48119,-2.1325 -2.48119,-2.1325l-1.46271,0.18076l-0.14373,-0.84702c-7.11356,2.46166 -13.22012,7.49234 -20.18788,10.47214c0,0 -0.07533,0.03227 -0.19274,0.0987c-0.67647,0.18457 -1.35498,0.36315 -2.03535,0.53496l-0.29789,0.01306c-4.18013,-0.82382 -8.15094,-0.51569 -12.1655,-0.47295l-0.81851,-0.35507c-3.04414,-0.38251 -6.04128,-0.72453 -9.02994,-0.99487c-0.13062,-1.35683 -0.97684,-1.88755 -1.67736,-2.09328c0.0985,-0.32705 0.12765,-0.81728 0.06148,-1.28271c-0.00561,-0.03945 -0.01175,-0.07819 -0.01842,-0.11622c0.46352,-0.36286 0.84842,-0.85761 0.84842,-1.83202c0,-2.5 -2.50113,-2.49995 -2.50113,-2.49995l-2.21067,0.07549c-5.34436,1.34672 -10.56146,2.89079 -15.18402,5.94401c0,0 -0.55238,0.36799 -0.8981,1.00925c-0.44718,0.08125 -0.89491,0.16269 -1.34198,0.24483c-0.73332,-0.87409 -1.97498,-0.87423 -1.97498,-0.87423l-4.00173,-0.00032c0,0 -0.39879,-0.00007 -0.87753,0.15899c-0.49157,-0.04744 -0.9906,-0.08557 -1.49887,-0.11254l-0.10345,-0.07517c-1.09473,-2.71358 -2.30312,-5.4474 -3.7025,-8.04804c0.07716,0.01995 0.18106,-0.0566 0.2584,-0.03688c1.06415,0.90234 1.93172,2.02391 2.91325,3.01932l1.26377,1.26429c0,0 1.76621,1.76744 3.53398,-0.00032c1.76776,-1.76776 -0.01915,-3.43738 -0.01915,-3.43738l-0.32429,-0.32416c0.0268,-0.05761 0.0527,-0.11747 0.07757,-0.17966c0.92846,-2.32119 -1.3937,-3.24986 -1.3937,-3.24986l-3.68918,-1.46988c-2.96123,-2.13569 -4.93327,-1.71058 -7.47741,-4.37837c0,0 -0.97709,-0.9764 -2.20387,-0.7528c-2.75224,-8.49232 -2.55119,-18.10443 -4.32433,-26.78769c-2.29765,-11.25185 -7.06462,-22.44886 -10.39086,-33.45235c-4.48748,-12.55097 -9.81075,-24.84974 -14.01721,-37.50009c-1.57621,-4.74023 -2.76331,-9.61882 -4.32474,-14.36406c-3.20003,-9.72501 -6.85432,-19.35001 -8.55757,-29.47123c1.19138,-1.33588 0.10622,-2.96586 0.10622,-2.96586c-4.11298,-6.1457 -4.98287,-12.38044 -6.86924,-19.29126c-0.87858,-3.21871 -1.9683,-3.79521 -2.32524,-6.83303c-0.26647,-2.26785 -0.2621,-4.59646 -0.8797,-6.79481c-0.91697,-3.26396 -2.15504,-6.4761 -3.22734,-9.69291c-0.26667,-0.79999 -0.43125,-1.64173 -0.79968,-2.40025c-0.17005,-0.3501 -1.0003,-0.5395 -0.78541,-0.86401c0.33981,-0.51318 3.50253,-1.41555 4.00537,-1.57474c2.66108,-0.88924 5.92027,-1.18379 8.37208,-2.55923c4.0833,-2.29069 7.738,-5.04335 11.94254,-7.17174c5.74539,-2.90838 12.21242,-3.15077 18.35432,-3.76128c9.6747,-0.96167 18.63828,-1.38444 27.89053,2.31643c5.03384,0.84983 9.86709,2.55955 14.93936,3.15363c4.06942,0.47662 7.84255,-0.06692 11.74671,-0.69428c3.11687,-0.50085 5.88527,1.27122 8.89823,1.61392c2.10439,0.23936 4.2064,0.5237 6.30794,0.78693c2.91223,0.36478 4.04882,-0.52592 6.59204,0.61924c0.84788,0.38178 1.48257,1.14374 2.31415,1.55982c3.10098,1.55155 6.34304,2.90445 8.48907,5.29512c-0.30456,0.48709 -0.45592,1.15677 -0.15776,2.05124c0.46323,1.38965 1.47049,1.69414 2.22421,1.70763c0.05454,0.19548 0.10423,0.3959 0.14853,0.60132l0.82938,2.49195c0,0 0.79216,2.37246 3.16387,1.5819c2.37171,-0.79056 1.53695,-3.07257 1.53695,-3.07257l-0.77066,-2.30804c-0.04832,-0.17599 -0.048,-0.44497 -0.08682,-0.62492c6.09555,-1.74406 11.88561,-2.64718 18.53497,-2.66336c1.02889,-0.0025 4.66021,-0.29178 5.97009,0.47674c0.83769,0.49148 3.66747,4.35339 3.9071,4.74033c2.23899,3.61522 2.99681,7.02672 4.62044,10.84537c1.4558,3.42393 2.25431,4.16873 2.21191,7.84554c0,7.11288 -0.01412,14.23248 0.01714,21.34531z" fill="#b98800"></path>
        <path d="M238.5937,311.27463c0.93164,-0.22031 1.90567,-0.30636 2.79492,-0.66092c1.19627,-0.47698 2.12787,-1.91919 3.41139,-1.81368c5.30124,0.43578 5.97172,7.50972 10.11431,9.97335c5.81092,3.45578 12.89432,4.50008 19.38463,6.12635l0.07737,0.07128l0.01423,-0.04269l2.34533,0.78176c0.90469,0.27822 1.59057,1.05602 1.73567,2.01144c0.4226,-0.32696 0.95281,-0.52152 1.52847,-0.52152c0.24818,0 0.48791,0.03616 0.71421,0.10351l2.56719,0.70147c1.40709,-0.26866 2.88916,0.59019 4.3296,0.82907c1.60021,0.26538 3.2002,0.53209 4.79999,0.79999c4.3314,0.72533 9.29832,1.56855 13.34726,3.35695c3.5338,1.56087 6.64845,4.18996 10.30911,5.56431c1.78443,0.66994 3.62682,1.41356 5.53261,1.44475c1.6263,0.02662 4.23805,-1.69317 5.44332,-2.20973c2.77603,-1.18975 5.23992,-2.95091 8.08935,-4.03502c4.91582,-1.8703 9.96344,-3.51425 14.90437,-5.46827c1.49213,-0.98855 3.24657,-1.51711 4.80272,-2.40146c4.1994,-2.38649 7.72346,-6.15897 11.84594,-8.71216c0.8959,-0.55486 2.05201,-0.67088 2.85982,-1.3476c0.69841,-0.58506 0.8378,-1.65402 1.48672,-2.29354c0.47971,-0.47276 5.71131,-3.85664 6.14107,-3.89557c8.57355,-0.77669 11.08083,10.9962 10.09442,17.2638c-0.95307,6.05576 -6.57042,8.56427 -11.85634,9.88582c-3.8652,2.66096 -7.75418,5.1028 -11.91301,7.15945c-2.99506,1.48114 -6.62819,1.69561 -9.59999,3.20002c-2.59924,1.31581 -4.87646,2.97032 -7.89794,3.42194c-1.08628,0.16237 -2.20449,-0.11738 -3.295,0.01355c-1.89605,0.22765 -3.6145,1.31641 -5.50499,1.58643c-6.3121,0.90156 -13.08956,-1.23687 -19.19998,0.80004c-6.62094,0.05937 -13.77873,0.82976 -20.20684,-0.84241c-1.27967,-0.33288 -2.67684,-0.39459 -3.82533,-1.04983c-4.76807,-2.7203 -7.19234,-8.39161 -10.68578,-12.18874c-0.34178,-0.37149 -6.35296,0.51262 -6.48251,0.51324c-3.51774,0.0167 -6.47804,-0.37212 -9.90543,-0.81872c-1.19658,-0.15592 -2.45916,0.24446 -3.619,-0.08853c-1.74136,-0.49996 -3.14172,-1.86542 -4.86613,-2.42106c-0.97458,-0.34835 -2.05483,-0.48278 -2.92374,-1.04505c-0.94986,-0.61465 -1.46104,-1.76889 -2.40006,-2.39998c-1.76506,-1.18626 -4.60529,-2.27538 -6.67617,-2.95492c-1.35272,-0.44388 -2.5863,-1.50961 -4.00948,-1.47175c-0.71369,0.01899 -1.29272,0.66679 -1.99949,0.76776c-1.18815,0.16975 -2.40033,0.02152 -3.6005,0.03229h-0.79999c0,0 -1.68816,0 -2.29001,-1.38723c-2.59306,2.73896 -5.93671,4.80861 -9.30951,5.35494c-3.12917,0.50687 -6.46063,0.36643 -9.60006,0.79999c-3.52239,0.48645 -6.8878,2.68981 -10.39994,3.20001c-3.06003,0.44453 -3.65128,-0.2937 -6.55417,0.02012c-1.48306,0.16033 -2.91017,0.83061 -4.40169,0.80732c-2.82294,-0.04408 -6.19558,-2.14664 -8.4314,-3.61505c-0.54189,-0.37263 -1.03937,-0.79961 -1.51257,-1.25603c-0.45853,0.53611 -1.13992,0.87591 -1.90068,0.87591c-0.29691,0 -0.58173,-0.05176 -0.84593,-0.14675l-2.3446,-0.78153l0,-0.00001l-0.00002,0c-2.0563,-0.70317 -4.63583,-1.30027 -5.99622,-3.25424c-1.16236,-1.66952 -1.67587,-3.95185 -0.98344,-5.82613c-0.29217,-0.19181 -0.54173,-0.4432 -0.7314,-0.73689l-1.57847,-2.3677l0,0c-2.16387,-3.29464 -3.80922,-7.44197 -4.38759,-11.38633c-0.33847,-2.30829 -0.17646,-4.69704 -0.74857,-6.95877c-0.68763,-2.7184 -1.98436,-4.21763 -0.85146,-7.44209c0.04454,-0.12677 0.09407,-0.25093 0.14805,-0.37276l-0.05205,-0.01735l0.78176,-2.34533c0.04994,-0.16238 0.11597,-0.3177 0.19623,-0.46412c-0.19526,-0.35619 -0.30628,-0.76512 -0.30628,-1.19998c0,-0.29692 0.05176,-0.58176 0.14676,-0.84597l0.78159,-2.34466l0.07396,0.02466l-0.01196,-0.19077c1.03287,-2.05303 1.51318,-4.34442 2.42338,-6.45471c0.61598,-1.42815 1.29543,-2.79942 1.97627,-4.16998c1.04139,-3.896 2.24555,-7.73093 3.53834,-11.60921c0.31758,-0.95272 1.7311,-5.38574 2.20391,-5.77717c1.21867,-1.00889 2.92051,-1.6069 4.49963,-1.5101c2.44268,0.14974 5.78133,3.87904 7.96648,5.03207c1.42692,0.75294 3.20616,0.3648 4.80714,0.56451c1.90254,0.23733 3.77676,0.80318 5.69401,0.8136l2.00989,-0.70403c0,0 1.86299,-0.62103 2.83708,0.88888c0.39636,-0.1979 0.90751,-0.29263 1.56453,-0.18312c2.46599,0.41099 2.05499,2.87698 2.05499,2.87698c-0.76217,4.44089 -0.13695,7.85388 0.03091,12.26446c0.11089,2.91366 -0.23924,5.8411 -0.00319,8.7473c0.49988,6.1544 1.70868,12.38015 2.71048,18.49053c0.08207,0.37936 0.16593,0.75874 0.25167,1.13816c0.00344,0.01523 0.00687,0.03047 0.01028,0.04571l0.67668,0.81505c0,0 0.88593,1.4742 -0.03462,2.7119c0.24537,1.41098 0.53083,2.80963 1.04743,4.13866c0.39134,1.00679 0.84587,1.98548 1.33158,2.95031c4.57328,-1.65894 9.25051,-2.6116 14.14482,-3.58499l-0.03837,-0.15347l3.14556,-0.78639c0.21047,-0.05753 0.43201,-0.08824 0.66073,-0.08824c0.73028,0 1.38743,0.31313 1.84451,0.81244l1.74275,-0.0101l1.96685,-0.6556c0.22769,-0.08186 0.4707,-0.13161 0.72357,-0.1438c-0.02804,-1.8423 1.91603,-2.32832 1.91603,-2.32832z" fill="#6f5200"></path>
        <path d="M164.53797,224.02365c-0.59201,-0.28386 -1.26155,-0.50786 -2.03689,-0.72336c-1.22162,-0.33954 -5.39431,-1.18223 -6.41857,-2.01355c-1.8411,-1.49429 -2.63644,-3.68166 -3.224,-5.90565l-0.03018,-0.09053l0.00587,-0.00196c-0.03353,-0.1282 -0.06642,-0.2565 -0.09881,-0.38475l-0.00306,-0.0034c0,-0.00292 0,-0.00584 0,-0.00875c-0.06409,-0.254 -0.12627,-0.50785 -0.18779,-0.76057c-0.3114,-0.46153 -0.31039,-1.1507 -0.43773,-1.74592c-0.03159,-0.11716 -0.0637,-0.23353 -0.09649,-0.34899c-0.08183,-0.24824 -0.15992,-0.49763 -0.23463,-0.74804c-0.51185,-1.53668 -1.43103,-3.98128 -1.41475,-5.03971c0.00031,-0.02029 0.00067,-0.04058 0.00107,-0.06087l-0.01343,0.00269l-0.78986,-3.94938c-0.03842,-0.17418 -0.05867,-0.35518 -0.05867,-0.5409c0,-0.84715 0.42136,-1.59589 1.06594,-2.04806c-0.26596,-0.59067 -0.26596,-1.15195 -0.26596,-1.15195l0.03123,-1.25776c-0.47589,-1.48622 -1.05197,-2.97285 -1.50291,-4.35164c-0.39095,-1.19538 -1.17462,-3.18537 -1.25751,-4.87589c-1.10296,-1.32347 -0.05093,-2.90148 -0.05093,-2.90148l0.46816,-0.70223c-0.27194,-0.22962 -0.4942,-0.51624 -0.64835,-0.84142l-1.57575,-3.15157l0.01938,-0.00969c-0.02144,-0.02794 -0.04274,-0.056 -0.06391,-0.08419c-0.81743,-1.08871 -0.83708,-2.60955 -1.49885,-3.79932c-0.67519,-1.21391 -1.87842,-2.09736 -2.4779,-3.35038c-0.98998,-2.06922 -0.94916,-4.10023 -1.14284,-6.14964c-0.58007,-1.00364 -0.92422,-2.06459 -0.6252,-3.11845c0,-0.00001 0,-0.00001 0.00001,-0.00002l-0.00001,0l-0.78639,-3.14559c-0.05753,-0.21047 -0.08824,-0.43201 -0.08824,-0.66072c0,-0.25455 0.03804,-0.50022 0.10876,-0.73162c-0.774,-1.52586 -1.51043,-3.06535 -2.2545,-4.56998c-0.74763,-1.51181 -0.83831,-3.29529 -1.60005,-4.80004c-1.31584,-2.59933 -2.96995,-4.87642 -3.42193,-7.89787c-0.15781,-1.05494 0.14283,-2.14297 0,-3.20004c-0.29662,-2.19519 -1.61212,-4.70152 -2.30396,-6.80991c-0.77699,-2.3679 -1.97829,-4.66611 -3.07409,-6.89217c-0.4826,-0.98037 -1.4554,-1.72079 -1.74691,-2.77391c-0.34704,-1.25372 -0.07479,-2.6002 -0.10666,-3.90112c-2.13116,-4.45941 -2.31587,-9.61896 -5.18077,-13.83661c-3.38861,-5.15951 -2.60859,-10.8296 -5.02957,-16.43006c-1.6261,-3.76167 -2.61242,-7.47278 -4.03776,-11.29679c-0.8495,-2.27909 -2.55758,-4.20238 -3.24527,-6.5354c-0.30159,-1.02315 0.28573,-2.17234 -0.00001,-3.20003c-0.48674,-1.75063 -1.97614,-3.12165 -2.42348,-4.88276c-0.61464,-2.41976 -0.51687,-4.96717 -0.85152,-7.44124c-0.22607,-1.67132 -1.35754,-3.13096 -1.59998,-4.79999c-0.1783,-1.22746 0.01115,-4.60284 0.07499,-6.07602c-2.08758,-2.91085 -2.29468,-6.11886 -3.85306,-9.22607c-0.52754,-1.05184 -2.86871,-3.8532 -3.2,-4.79999c-0.51561,-1.47359 -1.3946,-3.17695 -0.79027,-4.61643c0.51985,-1.23825 2.38316,-1.24178 3.53771,-1.92773c0.82658,-0.4911 1.53999,-1.17001 2.39995,-1.6c3.1072,-1.55362 6.45415,-2.52198 9.60005,-4.00001c1.56235,-0.73404 2.2094,-2.69277 3.5809,-3.74098c0.88559,-0.67684 2.07538,-0.81516 3.12687,-1.18496c1.90156,-0.66876 5.0107,-1.87441 7.211,-0.7971c0.32432,-1.00455 1.26708,-1.73119 2.37956,-1.73119h3.20001v0.12975l0.30546,-0.11102c0.06064,0.01487 0.12114,0.03043 0.18151,0.04664c0.87105,-0.75382 2.15306,-0.81378 3.8272,-0.84149c0.27858,-0.08401 0.5549,-0.10621 0.82685,-0.0134c0.15029,-0.00285 0.30329,-0.00621 0.45901,-0.01047l3.19995,0c0,0 0,0 0,0c0.29933,0 0.58637,0.0526 0.85238,0.14907c0.79553,-0.63927 1.52071,-1.23289 2.04924,-1.49487c1.21242,-0.60097 5.82299,-1.83751 6.79437,-1.85238c0.84317,-0.0129 1.5567,0.80002 2.39996,0.80002c1.0995,0 2.10131,-0.84202 3.2,-0.80002c3.49517,0.1336 8.10321,3.40899 8.78196,6.96633c0.22722,1.19088 -0.6041,2.34827 -0.90615,3.5224c0,0 -0.39686,1.19058 -1.47175,1.60348c0,0.00198 0.00001,0.00397 0.00001,0.00596c0,0.52533 -0.16203,1.01281 -0.43884,1.4152l-2.75455,4.1318l-0.01194,-0.00796c-0.01384,0.0285 -0.02778,0.05697 -0.04182,0.08539c-0.35879,0.72656 -1.07957,1.67416 -1.92464,2.66312c0.23575,0.38147 0.3718,0.83107 0.3718,1.31245c0,0.15625 -0.01433,0.30914 -0.04176,0.45745l-0.79224,4.75353l-0.04764,-0.00794c-0.02215,0.161 -0.04875,0.32169 -0.08026,0.48201c-0.35283,1.79528 -1.90762,3.12267 -2.86809,4.67992c-1.64572,2.66828 -3.32136,5.22132 -4.86739,7.90553c0.25512,-0.10744 0.50681,-0.21991 0.7515,-0.34265l3.48288,-1.74144c0.34741,-0.18291 0.74312,-0.28642 1.16302,-0.28642c1.38071,0 2.5,1.11929 2.5,2.5c0,0.29692 -0.05176,0.58174 -0.14675,0.84595l-1.56272,4.68804l-0.35592,-0.11864c-0.41674,1.70877 -0.96086,3.37661 -1.70572,4.95985c-0.4173,0.88699 -0.8863,1.74856 -1.3603,2.60713c0.71412,-0.54514 1.48905,-1.02053 2.20659,-1.56174l0.33017,-0.05717l-0.03384,-0.08461l3.94736,-1.57895c0.30123,-0.12865 0.63286,-0.19987 0.98112,-0.19987c1.38071,0 2.5,1.11929 2.5,2.5c0,0.32934 -0.06368,0.64381 -0.17941,0.93177l-1.7354,4.62769l-0.15759,-0.0591c-0.38671,1.64797 -0.86217,3.26934 -1.48975,4.83717c-1.55145,3.8759 -2.39447,4.03344 -2.84196,7.91971c-0.09263,0.80442 0.63205,1.66142 1.42856,1.75002c3.64177,0.4051 5.97211,-1.05445 9.47708,1.12257c6.22097,3.864 2.33731,12.47063 5.5251,17.55582c0.75194,1.1995 2.33432,1.63437 3.63008,2.20466c1.21301,0.53387 6.79274,3.19652 8.04051,4.57187c2.85819,3.15045 4.9822,8.11052 6.88335,11.91367c0.93946,2.35392 1.41056,4.88186 2.40572,7.21278c0.90344,2.1161 2.81719,3.7979 3.34684,6.03699c0.50791,2.14716 -0.49234,4.3854 -0.76545,6.57485c-0.31863,2.55428 -0.03594,5.25047 -0.92298,7.66688c-0.37637,1.02528 -1.22595,1.85286 -1.51157,2.90703c-1.33567,4.92982 2.29292,10.66177 1.63457,15.82608c-0.53388,4.18793 -3.85245,9.16022 -5.87618,12.80257c-2.15342,3.87576 -5.4019,7.08398 -2.42927,11.14214c0.62363,1.29348 1.59286,2.47164 1.87088,3.88044c1.0773,5.45881 -1.97551,9.35641 -1.55189,14.66893c0.31178,3.90999 3.08955,3.25595 5.10553,5.98798c2.16215,2.93011 0.83965,3.62798 1.28094,6.71704c0.31885,2.23197 1.28548,4.54107 0.725,6.72492c-0.27164,1.05841 -1.22347,1.81472 -1.74693,2.7739c-0.5888,1.0789 -0.53415,2.69069 -1.58407,3.32975c-1.70619,1.03851 -5.5188,0.19197 -7.55627,0.45315c-0.39419,0.05053 -0.78839,0.10109 -1.1826,0.15152c-0.22154,0.56979 -0.62135,0.9183 -1.02755,1.13147c-0.19231,0.29476 -0.44514,0.54644 -0.74085,0.73742l-2.33932,1.55951c-0.40238,0.2768 -0.88985,0.43882 -1.41517,0.43882c-0.72419,0 -1.37647,-0.30792 -1.83303,-0.79999h-1.36698c-0.05887,0 -0.11726,-0.00203 -0.17511,-0.00604c-0.63999,0.3919 -1.43357,0.54848 -2.40175,0.36238c-0.34317,0.15934 -0.68428,0.29973 -1.02269,0.41136c-1.68739,-0.14653 -3.67813,0.53672 -5.06216,-0.4396c-0.95231,-0.67179 -1.37906,-1.87636 -1.62362,-3.09356c-0.31497,-0.29976 -0.61546,-0.63262 -0.8996,-1.00119c-0.0507,-0.06577 -0.10044,-0.13216 -0.14927,-0.19913l-0.03353,0.03353l-2.40002,-2.40002c-0.45241,-0.45241 -0.73223,-1.07741 -0.73223,-1.76777c0,-1.38071 1.11929,-2.5 2.5,-2.5c0.29692,0 0.58176,0.05176 0.84597,0.14676l2.34466,0.78159l0,0c0.72444,0.38687 1.62125,0.59334 2.39818,0.92528l0.03947,-0.14419c0,0 0.14845,-0.44536 0.50969,-0.88578z" fill="#6f5200"></path>
        <path d="M200.24436,260.80605l-0.20026,-2.08895c-3.53304,-0.69629 -6.97229,-0.71013 -10.38569,-0.9574c-1.39151,-0.24647 -2.77917,-0.39152 -4.1639,-0.48695c-1.18272,-0.20753 -2.3669,-0.49188 -3.55458,-0.88777c0,0 -1.5997,-0.53326 -2.60944,0.58992c-1.0074,-0.05727 -2.01563,-0.13465 -3.02513,-0.25194l0.1437,-0.36763c0,-1.06666 -0.00057,-2.13664 -0.00057,-3.2033c0,0 -0.00016,-0.5934 -0.28832,-1.2013c0.28815,-0.6079 0.28803,-1.20125 0.28803,-1.20125l-0.07781,-0.96482c0.00973,-0.04864 0.01945,-0.09745 0.02918,-0.14609c0,0 0.11525,-0.57792 -0.04561,-1.22777c0.45917,-1.21263 -0.40734,-2.36826 -0.40734,-2.36826l-1.80036,-2.39806c-0.05639,-0.23658 -0.11391,-0.47358 -0.17276,-0.70956c0,0 -0.17501,-0.7017 -0.71349,-1.25565c-0.0288,-0.11518 -0.05756,-0.2307 -0.08635,-0.34588c0,0 -0.46537,-1.86388 -2.21245,-1.91677c-0.01492,-0.0154 -0.02988,-0.03085 -0.0449,-0.04626c0,0 -0.00954,-0.00956 -0.02792,-0.02654c0.23902,-0.04624 0.47814,-0.09231 0.71727,-0.13782c0.55336,0.11506 1.21745,0.24671 1.80016,0.36263l2.25113,0.755c0,0 1.60061,0.5518 2.60188,-0.71295c0.16181,-0.02298 0.30076,-0.0553 0.4057,-0.08414c0.90644,0.29419 1.81267,-0.0687 1.81267,-0.0687c0.63667,-0.2634 1.25134,-0.48295 1.85197,-0.66643c0.25048,0.04405 0.41979,0.04401 0.41979,0.04401c4.78459,0 9.40964,0.29281 14.06845,0.75433c0.63861,0.68259 1.57865,0.81762 1.57865,0.81762c2.065,0.28451 4.07705,0.32487 6.06887,0.30079l0.36748,0.25764c0,0 1.62026,0.8061 2.79184,-0.33016c0.21467,-0.00509 0.42965,-0.01064 0.64435,-0.01493c0.0051,0.03809 0.10302,0.1156 0.10954,0.15472c0.41099,2.46598 2.78357,2.01943 2.78357,2.01943c2.59276,-0.4323 5.10497,-0.98269 7.56299,-1.59155l0.04464,0.00088c0,0 0.68006,-0.00492 1.32692,-0.35274c3.19902,-0.83572 6.40818,-1.80298 9.66595,-2.89231l3.97257,-0.79697c0,0 1.49326,-0.25409 1.86425,-1.63726c0.33501,-0.12494 0.6238,-0.33203 0.6238,-0.33203c1.24048,-0.8426 2.36659,-1.33836 3.48476,-1.62847c0.95625,0.71414 2.21887,0.35686 2.21887,0.35686c0.84434,-0.2413 1.68662,-0.48417 2.52588,-0.73189c0.74315,0.011 1.53354,0.03139 2.38931,0.03139l2.40095,0.00173c0,0 1.1212,0.04514 1.85756,-0.79711c0.02727,0.00573 0.1315,-0.0367 0.1315,-0.0367c1.25135,0.19126 2.54185,0.34327 3.8275,0.37826c0.92262,1.81436 2.97643,1.13285 2.97643,1.13285c0.34589,-0.11567 0.68562,-0.22864 1.02038,-0.33856c0.92052,1.82495 2.98043,1.14099 2.98043,1.14099c1.70494,-0.56832 3.31171,-1.11503 5.01222,-1.6965l2.04952,-1.3453c0.01143,0.00002 0.11797,-0.03082 0.12941,-0.03078c-0.23334,0.66683 -0.24953,1.56983 0.65097,2.47032c0.87868,0.87868 1.75767,0.88506 2.41926,0.668c0.00434,0.39035 0.02616,0.7805 0.08136,1.16701c0.32055,2.24425 2.64945,5.6751 1.86457,8.02785c-0.14767,0.44267 -0.85461,0.37754 -1.29413,0.53432c-0.85953,0.3066 -4.18573,1.29775 -4.79994,1.6015c-2.3836,1.17873 -3.72238,1.95764 -4.90872,3.0402l-0.29302,-0.39119l-2.40254,1.80431c-1.12833,0.30751 -2.25268,0.64113 -3.36519,1.05544c-5.72672,2.13269 -11.37377,4.27178 -16.75534,7.06561l-3.98904,0.00486c-3.80557,0.02034 -6.93722,1.29357 -10.67292,1.62819c-3.95089,0.35389 -8.04869,-0.40361 -11.99846,-0.01056c-2.87963,0.28656 -5.65081,1.58885 -8.54466,1.58313c-0.99517,-0.00196 -1.90212,-0.6333 -2.88697,-0.77625c-0.69426,-0.10077 -1.39216,-0.1983 -2.08842,-0.29633z" fill="#6f5200"></path>
        <path d="M194.01645,253.11985l-2.14783,-0.7069c-3.96058,-0.05853 -7.81841,-0.22479 -11.82418,-0.79293c0,0 -2.47487,-0.35354 -2.12133,-2.82842c0.1894,-1.32583 0.9876,-1.83993 1.68796,-2.03151c0.54708,-1.96439 2.69703,-1.69565 2.69703,-1.69565c3.45097,0.4392 6.87539,1.20911 10.18225,2.28929l0.21705,0.07144c0.875,0.00913 1.75627,0.0141 2.64687,0.01868l2.64496,0.00128c0,0 2.5,0.00122 2.49878,2.50122c-0.00122,2.5 -2.50122,2.49878 -2.50122,2.49878l-1.30877,-0.00064c-0.99982,1.22556 -2.67158,0.67535 -2.67158,0.67535z" fill="#000000"></path>
        <path d="M261.03408,241.62714c1.11802,2.23607 -1.11806,3.3541 -1.11806,3.3541l-3.2939,1.6445c-2.08867,0.82889 -4.17402,1.74347 -6.03733,2.99953c0,0 -1.85707,1.23807 -3.23165,-0.38011h-0.35513c-5.69271,-0.00828 -11.10994,0.94532 -16.60339,2.04167c-2.40299,0.76162 -4.80299,1.49879 -7.19617,1.92605c-0.09024,0.01611 -1.19646,0.02449 -2.54327,0.02874c-1.04183,0.20112 -2.06496,0.39256 -2.87599,0.53181c-0.86853,0.21592 -1.73706,0.43185 -2.60559,0.64777l-0.18948,-0.04834l0.00716,0.07302l-3.91628,0.38407c-0.09095,0.01003 -0.18337,0.01517 -0.27699,0.01517c-1.38071,0 -2.5,-1.11929 -2.5,-2.5c0,-1.25483 0.92451,-2.29375 2.12955,-2.47275l3.01653,-0.50275c0.68628,-1.12448 2.15391,-1.12449 2.15391,-1.12449c0.75448,0 1.51307,0.04892 2.27166,0.09911c2.28011,-0.45986 4.65595,-0.57408 6.94094,-1.03114c1.52635,-0.30531 3.03947,-0.61399 4.54629,-0.91191c2.43417,-0.77323 4.87248,-1.57397 7.31543,-2.10016l2.1257,-0.0559c0,0 0.72713,0 1.3971,0.39215c2.23775,-0.24318 4.49797,-0.38904 6.80291,-0.39215h2.20002c0,0 0.22117,0.00001 0.53194,0.06579c1.55921,-0.85678 3.19577,-1.58232 4.84389,-2.24641l3.10612,-1.55545c0,0 2.23608,-1.11801 3.3541,1.11806z" fill="#000000"></path>
        <path d="M269.09799,48.34513c0.0424,-3.67681 -0.75386,-4.41934 -2.20966,-7.84327c-1.62363,-3.81865 -2.37799,-7.22717 -4.61698,-10.84239c-0.23964,-0.38693 -3.06741,-4.24735 -3.9051,-4.73883c-1.30988,-0.76852 -4.93938,-0.47801 -5.96827,-0.47551c-6.64935,0.01619 -12.43356,0.92254 -18.52911,2.66661c0.03882,0.17995 0.08111,0.35845 0.12942,0.53444l0.7714,2.30839c0,0 0.79056,2.37171 -1.58115,3.16227c-2.37171,0.79056 -3.16227,-1.58115 -3.16227,-1.58115l-0.82858,-2.4916c-0.0443,-0.20543 -0.09383,-0.40577 -0.14837,-0.60125c-0.75373,-0.01349 -1.75977,-0.31749 -2.223,-1.70714c-0.29816,-0.89447 -0.14653,-1.56405 0.15803,-2.05114c-2.14604,-2.39066 -5.38376,-3.74211 -8.48474,-5.29366c-0.83158,-0.41608 -1.46509,-1.17771 -2.31297,-1.55949c-2.54322,-1.14516 -3.67684,-0.25379 -6.58908,-0.61857c-2.10154,-0.26323 -4.20064,-0.54709 -6.30503,-0.78645c-3.01296,-0.3427 -5.7772,-2.11439 -8.89407,-1.61354c-3.90416,0.62736 -7.67184,1.17088 -11.74127,0.69425c-5.07226,-0.59408 -9.89901,-2.30462 -14.93285,-3.15445c-9.25225,-3.70088 -18.20531,-3.28137 -27.88001,-2.31969c-6.1419,0.61051 -12.60259,0.84957 -18.34798,3.75795c-4.20454,2.12839 -7.85481,4.87796 -11.93811,7.16866c-2.45181,1.37544 -5.70862,1.66801 -8.3697,2.55726c-0.50284,0.15919 -3.66445,1.06055 -4.00426,1.57373c-0.21489,0.32452 0.61536,0.51391 0.78542,0.86401c0.36843,0.75852 0.53331,1.59998 0.79998,2.39997c1.07229,3.21681 2.31164,6.42769 3.22861,9.69165c0.6176,2.19835 0.61448,4.52563 0.88095,6.79348c0.35694,3.03781 1.44771,3.61312 2.32629,6.83183c1.88638,6.91082 2.75961,13.14115 6.87259,19.28685c0,0 1.08591,1.62883 -0.10546,2.96471c1.70325,10.12122 5.36342,19.73308 8.56345,29.45809c1.56143,4.74524 2.75027,9.61412 4.32648,14.35435c4.20646,12.65035 9.52189,24.91804 14.00937,37.469c3.32625,11.00349 8.07706,22.18482 10.37471,33.43668c1.77313,8.68326 1.56411,18.29147 4.31635,26.7838c1.22679,-0.2236 2.20277,0.75239 2.20277,0.75239c2.54414,2.66779 4.51215,2.24144 7.47339,4.37713l3.6873,1.46942c0,0 2.32119,0.92847 1.39273,3.24966c-0.02488,0.06219 -0.05075,0.12205 -0.07755,0.17966l0.32411,0.32412c0,0 1.76776,1.76776 0,3.53553c-1.76776,1.76776 -3.53553,0 -3.53553,0l-1.26445,-1.26445c-0.98154,-0.99541 -1.85072,-2.1174 -2.91487,-3.01974c-0.07735,-0.01971 -0.1546,-0.03955 -0.23175,-0.0595c1.39938,2.60064 2.60531,5.33384 3.70004,8.04743l0.1034,0.07516c0.50827,0.02697 1.00666,0.06496 1.49823,0.1124c0.47874,-0.15906 0.87717,-0.15906 0.87717,-0.15906h4c0,0 1.24074,0 1.97406,0.87408c0.44707,-0.08213 0.89423,-0.16366 1.34141,-0.24491c0.34572,-0.64126 0.89776,-1.0093 0.89776,-1.0093c4.62256,-3.05321 9.83278,-4.59768 15.17713,-5.9444l2.20961,-0.07547c0,0 2.5,0 2.5,2.5c0,0.9744 -0.37978,1.56902 -0.8433,1.93188c0.00667,0.03803 0.01282,0.07677 0.01843,0.11622c0.06617,0.46542 0.03238,0.85576 -0.06612,1.18282c0.70052,0.20573 1.54604,0.73648 1.67666,2.09332c2.98866,0.27034 5.98188,0.61275 9.02603,0.99526l0.81818,0.35512c4.01456,-0.04274 7.98035,-0.34987 12.16048,0.47395l0.29777,-0.01303c0.68036,-0.17181 1.35801,-0.35015 2.03448,-0.53472c0.11741,-0.06644 0.19265,-0.09868 0.19265,-0.09868c6.96776,-2.9798 13.06522,-8.00697 20.17878,-10.46863l0.14382,0.84698l1.46218,-0.18049c0,0 2.24874,0 2.48073,2.13274c2.11699,-0.6381 4.22236,-1.30228 6.32865,-2.00444l3.35838,1.40398c0,0 0.20832,0.20833 0.41042,0.55348c1.07198,0.13184 2.13795,0.13274 3.12342,-0.23155l2.11166,-1.43435c0,0 2.08013,-1.38675 3.46687,0.69338c0.05794,0.0869 0.10982,0.17259 0.15605,0.25702c1.46383,-0.2847 2.95479,-0.47413 4.54856,-0.54228c0.28323,-0.06149 0.6077,-0.08709 0.94429,-0.02585c0.08997,-0.00109 0.18029,-0.0018 0.27097,-0.00213l-0.96781,-0.06775c0,0 1.76773,-1.7678 3.53553,-0.00007c0.09433,0.09433 0.17859,0.18866 0.25359,0.28271c0.40058,-0.80381 0.84601,-1.57406 1.45202,-2.22923c0.05118,-0.05533 0.10287,-0.11012 0.15504,-0.16439l-0.0284,-0.0213l2.38256,-3.17671c0.45492,-0.62043 1.18914,-1.02326 2.01745,-1.02326c0.12158,0 0.24113,0.00868 0.35807,0.02545c0.49577,-1.21318 0.90595,-2.46269 1.21658,-3.73179c0,0 0.28755,-1.15023 1.25873,-1.66843c-0.17692,-1.24 -0.32397,-2.48482 -0.50111,-3.72478c-0.45357,-3.17505 -0.61167,-5.92279 -0.49616,-8.7677l-0.28756,0.05751l-0.78986,-3.94938c-0.03842,-0.17418 -0.05867,-0.35518 -0.05867,-0.5409c0,-0.37126 0.08092,-0.72361 0.22609,-1.04039c-0.07164,-0.31812 -0.13679,-0.63772 -0.19381,-0.95916c-0.34972,-1.97115 -0.1059,-3.44345 0.02401,-5.02954c-0.53989,-2.48367 -0.96165,-5.00045 -1.34473,-7.52906c-0.08638,-0.27683 -0.16668,-0.55505 -0.23696,-0.83553c0,0 -0.11749,-0.46996 -0.04215,-1.04785c-0.96136,-6.60382 -1.79367,-13.25216 -3.9042,-19.5679c0,0 -0.79056,-2.37171 1.58115,-3.16227c0.19257,-0.06419 0.37471,-0.10753 0.54686,-0.13299c-0.46091,-3.87984 -0.41374,-7.89053 -0.73153,-11.76856c-0.64188,-7.83318 -1.52477,-15.45839 -1.52477,-23.32675c0,0 0,-0.34661 0.12906,-0.78172c-0.33148,-3.22454 -0.53635,-6.47729 -0.96713,-9.66728c-1.96003,-14.51435 -5.20912,-28.73356 -3.14985,-43.41211c-0.03126,-7.11283 -0.01209,-14.22602 -0.01209,-21.3389zM252.39798,19.44514c2.78549,0.00628 5.84014,-0.33426 8.43175,1.1245c1.69191,0.95234 4.72566,4.92283 5.69487,6.46118c1.20686,1.91554 2.4679,3.82195 3.35968,5.90295c0.77243,1.80249 0.8453,3.85462 1.62344,5.65466c1.62924,3.76886 2.55276,5.57365 2.59027,9.75671c0,7.14117 0.0272,14.28298 -0.0146,21.42405c0.01325,0.20432 0.00476,0.36722 -0.00276,0.45591c-0.00045,0.07154 -0.0009,0.14307 -0.00137,0.21461l0.74408,2.8991c0,0 0.51814,2.07257 -1.31945,2.86486c-0.45195,8.79475 0.76033,17.53524 2.14332,26.29038c1.28715,8.14839 1.74367,16.51019 3.21109,24.60742c1.09249,6.02837 3.04782,11.75106 3.92166,17.83987l0.09289,0.65026c0,0 0.35355,2.47487 -2.12133,2.82842c-0.38836,0.05548 -0.72447,0.04131 -1.01518,-0.02201c0.19843,3.59912 0.20287,7.28224 0.73961,10.81574c0.98374,6.47617 3.16402,12.59683 4.7474,18.92509l0.1424,-0.36145c0,0 1.76776,1.76776 0,3.53553c-1.37306,1.37306 -2.74613,0.61315 -3.29083,0.20535c0.00246,0.01638 0.00492,0.03276 0.00738,0.04915c0.49734,1.86852 1.34044,3.66003 1.58344,5.57725c0.13009,1.02643 0.08628,2.06592 0.01225,3.10698c0.41787,1.79092 0.90487,3.56142 1.49172,5.30293l0.12829,2.39057c0,0 0,0.81534 -0.46563,1.51477c0.2699,0.85383 0.54152,1.70735 0.77822,2.56909c0.1786,0.42954 0.30632,0.86919 0.33078,1.3293c0.02228,0.10152 0.04383,0.20322 0.06461,0.3051l0.74526,2.23584c0.09498,0.2642 0.14674,0.54901 0.14674,0.84591c0,1.12887 -0.7482,2.08299 -1.77576,2.39349c0.34141,2.25292 0.67542,4.50324 0.94349,6.80604c0.13338,1.14578 1.11151,2.27448 0.76539,3.37485c-0.71039,2.25846 -3.04881,3.63644 -4.35301,5.61238l-1.11233,1.18098c0,0 -0.33145,0.33144 -0.85082,0.56378l-0.41528,0.62293c-0.44513,0.68926 -1.2201,1.14553 -2.10164,1.14553c-0.28639,0 -0.56153,-0.04816 -0.81777,-0.13682c-0.14342,0.48831 -0.34785,0.95319 -0.59547,1.413c0.71323,0.74039 0.71323,1.82382 0.71323,1.82382v0.79999c-0.03115,2.70139 1.22505,5.72782 1.73379,8.66259c1.47459,0.07689 2.0874,1.60895 2.0874,1.60895c0.46349,1.16307 0.87934,2.29854 1.28402,3.41899c0.34407,0.50854 0.4462,1.01916 0.4462,1.01916c0.03211,0.16565 0.06567,0.33119 0.10068,0.49654c0.79257,2.18686 1.60607,4.33743 2.72003,6.54791l1.76395,3.52784c0,0 1.11805,2.23606 -1.11802,3.35411c-0.20159,0.1008 -0.39408,0.17433 -0.57749,0.2247l0.33242,0.74796c0.52984,0.08215 1.05827,0.15192 1.58556,0.21067c1.32901,-0.20343 2.65103,-0.31941 3.94142,-0.31941c0.10847,0 1.66263,0.24991 3.51662,0.55446c3.6489,-0.10918 7.30255,-0.445 11.05017,-0.5489l2.19006,0.35969c0.47163,-2.32831 2.85416,-1.93122 2.85416,-1.93122c7.36726,1.24171 15.33058,-0.34819 22.56017,1.63207c4.86023,1.33128 5.50898,2.1281 9.67773,4.69539l0.82831,0.13199c0,0 1.42878,0.40208 1.77471,1.68752c1.9338,0.91503 3.77853,1.96473 5.58424,3.0876c0.03651,-0.09341 0.07895,-0.18896 0.12779,-0.28665c1.11804,-2.23607 3.3541,-1.11803 3.3541,-1.11803c6.96922,3.52225 13.86516,9.41846 18.83772,15.3975l1.84105,1.90033c0,0 0.14406,0.14891 0.30637,0.40247c0.44108,0.29478 0.69682,0.63577 0.69682,0.63577c2.35829,3.16008 4.52084,6.45106 6.07453,9.96804c0.8255,0.73766 0.8255,1.93199 0.8255,1.93199c0,0.04068 0,0.08128 0.00002,0.1218c0.99006,2.73812 1.5836,5.61699 1.59996,8.67819v0.79999c0,0 0,0.77049 -0.42774,1.45599c0.09238,0.31435 0.19201,0.63193 0.29946,0.95347l0.79998,2.40002c0,0 0.40917,1.22753 -0.24434,2.21073c0.36899,1.43223 0.72535,2.8843 1.09798,4.37346l0.14238,-0.36152c0,0 1.47157,1.47146 0.38698,3.07197c0.07436,0.4376 0.15126,0.87396 0.27067,1.28951l-0.16234,0.15635c0.11364,0.31534 0.19353,0.63954 0.22206,0.97722c0.3523,4.16872 -1.48598,5.09812 -3.91729,7.64058l-0.33171,0.95027c0,0 -1.11803,2.23606 -3.3541,1.11803c-0.02724,-0.01362 -0.054,-0.02741 -0.08025,-0.04136c-1.88923,1.7056 -3.94834,3.19372 -6.30687,4.92206c-1.23403,1.05286 -2.89024,1.54671 -4.32966,2.31769c-2.05891,1.1028 -7.13548,3.62576 -9.18567,4.65215l-0.24779,-0.00641l0.02324,0.08185l-3.61653,1.02708c-0.2334,0.07206 -0.48141,0.11086 -0.73847,0.11086c-0.67756,0 -1.29218,-0.26955 -1.74244,-0.70727c-2.82502,0.8695 -5.72984,1.59228 -8.44497,2.40353l-0.42586,0.28391l-0.02847,-0.0427c-0.08424,0.07182 -0.1708,0.14135 -0.2599,0.20835c-1.46116,1.09898 -3.43568,1.26403 -5.19795,1.75099c-4.65806,1.28716 -9.47369,1.64283 -14.27541,1.7031c-4.56475,0.0573 -9.51148,-0.60354 -14.02454,-0.03215c-0.93558,0.11845 -1.76153,0.83992 -2.70454,0.83042c-2.94469,-0.02963 -5.99927,-1.70034 -8.79492,-2.49789c-5.10459,-1.45625 -9.82593,-2.85618 -14.5555,-5.32609l-0.19649,-0.64019l-0.22912,0.15275l-1.58102,-2.37153c-0.26211,-0.38103 -0.42131,-0.83835 -0.43747,-1.33186c-0.24626,-0.00126 -0.38975,-0.00206 -0.39592,-0.00209c-1.20047,0.27229 -2.37061,0.83702 -3.6014,0.81687c-2.95114,-0.04829 -2.62131,-1.2836 -5.1045,-1.63041c-2.11284,-0.29508 -4.29061,0.3186 -6.40003,0c-2.9727,-0.44898 -3.24971,-1.4638 -6.06689,-2.52303c-3.25824,-1.22506 -6.057,-1.60201 -9.18744,-3.38245c-2.79448,-1.58936 -5.15323,-3.95145 -7.90545,-5.5478c-1.48822,-0.8632 -3.24834,-0.52281 -4.6904,-1.43982c-0.26736,0.15788 -0.52671,0.32221 -0.76254,0.50549c0,0 -0.92303,0.61538 -1.94929,0.41141c-0.04326,0.04975 -0.06976,0.07625 -0.06976,0.07625l-1.10145,1.01072c-0.50777,0.91909 -1.57948,1.2253 -1.57948,1.2253c-0.29147,0.08328 -0.60915,0.17404 -0.9435,0.26957c-5.47448,2.9554 -11.82414,5.34506 -18.01629,6.02945c-2.30196,0.77778 -4.69754,1.48159 -7.02161,1.77844c-0.35786,0.04571 -0.72929,0.11243 -1.10151,0.16316c-0.88421,0.29762 -1.67435,0.51477 -2.00348,0.62334l-0.40048,-0.14238v0.17467h-2.32478c-0.94593,0.08925 -1.90238,0.09375 -2.87569,-0.03229c-3.03236,-0.39265 -5.21491,-1.58835 -8.3995,-1.56775c0,0 -1.40032,0 -2.10491,-1.04802c-0.58909,-0.17386 -1.17501,-0.35872 -1.75724,-0.55406c-0.52729,0.00752 -0.9284,-0.12617 -0.9284,-0.12617l-2.40006,-0.8c-1.6889,-0.56301 -3.25899,-1.29539 -4.82109,-2.02058c-0.13718,0.10086 -0.29317,0.19637 -0.47018,0.28488c-2.23603,1.1181 -3.35413,-1.11793 -3.35413,-1.11793l0.04919,-0.63798c-0.16377,-0.1101 -0.32644,-0.22192 -0.48802,-0.33536c-0.17087,-0.05954 -0.34273,-0.11728 -0.51572,-0.17301c0,0 -1.17033,-0.3901 -1.59274,-1.44436c-0.75495,-0.62846 -1.48412,-1.28869 -2.1887,-1.9713c-0.36388,-0.22108 -0.61037,-0.52388 -0.77735,-0.83267c-0.13887,-0.09817 -0.27861,-0.21581 -0.41835,-0.35555c-1.2972,-1.2971 -0.69076,-2.59427 -0.27593,-3.19302c-0.05704,-0.17111 -0.11407,-0.34223 -0.17111,-0.51335c-0.50917,-0.35011 -0.88216,-0.88396 -1.02329,-1.50588l-0.38738,-1.54953c-0.17954,-0.11269 -0.361,-0.2569 -0.54245,-0.43837c-1.05025,-1.05033 -0.85247,-2.10062 -0.51893,-2.78015c-0.39948,-0.83569 -0.87512,-1.63789 -1.39333,-2.4008c0,0 -0.1588,-0.23819 -0.28832,-0.60711c-0.77343,-0.24958 -1.38217,-0.86575 -1.62145,-1.64374l-0.76336,-2.28991c-0.095,-0.26421 -0.14677,-0.54905 -0.14677,-0.84598c0,-0.26561 0.04142,-0.52156 0.11816,-0.76171l-0.04618,-0.23088c-0.0984,-0.27877 -0.25736,-0.55656 -0.40904,-0.83445c-0.75437,-0.43039 -1.26292,-1.24229 -1.26292,-2.17296v-4.80005c0,-0.55183 -0.11578,-1.12819 -0.16764,-1.69101c-1.43233,-0.58443 -1.43233,-2.30899 -1.43233,-2.30899l0.33955,-2.05795c0.69852,-1.19253 1.3286,-2.42376 1.90449,-3.684c0.42787,-1.66546 0.71006,-3.37264 0.98993,-5.06903c0,0 0.27108,-1.62658 1.69397,-2.01748c0.68502,-2.14374 1.29678,-4.31703 1.89445,-6.47958c-0.67694,-0.95128 -0.32623,-2.17876 -0.32623,-2.17876l0.2264,-0.79239c0.83441,-2.91577 1.29568,-5.93246 2.18106,-8.83315c0.36078,-1.18198 1.30784,-2.18941 1.49171,-3.4017c0.00401,-0.2284 0.00558,-0.45704 0.00462,-0.68592c0,0 0,-0.08564 0.01585,-0.22521c-0.09356,-1.12899 -0.56902,-2.24032 -0.78182,-3.3638c0,0 -0.35744,-2.14466 1.59441,-2.7672l0.0201,-0.5341c0.25326,-1.26621 0.50651,-2.53243 0.75976,-3.79865l0.02575,-0.90001c-0.17065,-1.02648 -0.3481,-2.05252 -0.53968,-3.07583c-1.09437,-0.69387 -1.09437,-2.13518 -1.09437,-2.13518l0.07464,-0.99367c-0.05291,-0.21162 -0.1058,-0.42324 -0.15871,-0.63486c-0.85603,-1.06991 -1.71208,-2.13983 -2.56811,-3.20974c0,0 -1.56174,-1.95217 0.39043,-3.51391c0.02604,-0.02083 0.05201,-0.04104 0.0779,-0.06063c-0.74733,-0.10406 -1.50492,-0.18517 -2.28857,-0.23433c-0.18676,0.17495 -0.42004,0.33844 -0.70954,0.48319c-2.23607,1.11804 -3.3541,-1.11803 -3.3541,-1.11803l-0.64404,-1.33125c-1.10348,-1.68012 -2.04126,-3.49426 -2.69162,-5.39622c0,0 -0.25648,-0.76944 -0.039,-1.57789c-0.85943,-1.75691 -1.80761,-3.46274 -2.86941,-5.02588c0,0 -0.33866,-0.50797 -0.43024,-1.18921c-0.22635,-0.07484 -0.45305,-0.15016 -0.68021,-0.22589c0,0 -0.56443,-0.18814 -1.0508,-0.65622l-1.19465,0.20259c-4.97628,-9.99419 -4.43137,-21.80768 -6.61265,-32.6141c-2.23175,-11.05644 -6.96169,-22.06838 -10.22594,-32.87903c-4.49004,-12.54568 -9.8001,-24.81014 -14.00537,-37.45691c-1.57789,-4.7453 -2.76834,-9.619 -4.33139,-14.36918c-3.49811,-10.63087 -7.46267,-21.11197 -9.06348,-32.2453c0,0 -0.05363,-0.37544 0.02711,-0.85475c-3.44894,-6.00498 -4.5279,-12.10204 -6.35979,-18.82517c-0.69773,-2.5607 -2.12772,-4.93673 -2.47376,-7.56813c-0.40085,-3.04826 -0.49608,-5.33553 -1.49042,-8.31492c-1.0575,-3.16863 -2.37544,-6.36414 -3.20001,-9.6c-0.33084,-1.2983 -1.37719,-2.72004 -0.81456,-3.93598c1.50257,-3.24731 4.39785,-3.85929 7.19569,-4.8263c2.36236,-0.78559 5.49281,-0.99214 7.6303,-2.24273c4.09035,-2.39316 7.7842,-5.11523 12.06189,-7.23134c6.33619,-3.13441 13.28047,-3.56098 20.05205,-4.24205c10.23649,-1.02956 19.93115,-1.43521 29.71997,2.48029c4.76605,0.78351 9.32319,2.44032 14.1182,2.99796c3.6698,0.42679 6.9151,-0.20755 10.40776,-0.65814c3.87498,-0.49992 6.63285,1.18856 10.30588,1.58644c3.53368,0.38279 6.88304,0.3581 10.40002,0.8c2.28696,0.28735 4.33102,1.60523 6.3929,2.63548c3.89678,1.94708 8.46539,3.91437 11.29225,7.5499c6.72252,-1.9714 13.12231,-3.02055 20.40936,-3.00411zM235.49802,324.34516l0.12829,-1.59054c0.23076,-0.69135 0.46649,-1.36877 0.70158,-2.03901l-0.02988,-0.37045c0,0 0,-1.20437 0.83592,-1.94125c0.63521,-1.86163 1.21416,-3.72819 1.61265,-5.74909c0,0 0.49032,-2.45145 2.94177,-1.96113c2.45145,0.49032 1.96113,2.94177 1.96113,2.94177c-0.54072,2.6697 -1.3476,5.08581 -2.20128,7.55511c0.5305,1.56046 1.07679,3.12402 0.90982,4.77491c0.3028,0.16894 0.8525,-0.09138 1.23053,0.00795c0.94476,0.24824 1.91914,0.47697 2.76974,0.95725c1.25716,0.70985 2.30619,1.73814 3.48361,2.57362c4.31291,3.06035 8.19612,4.29023 13.02347,6.09611c0.79082,0.29584 3.77062,2.09812 5.13306,2.27701c2.11518,0.27774 4.28884,-0.30667 6.40003,0c1.57071,0.22816 2.90875,1.60813 4.49547,1.56954c0.96842,-0.02355 1.86575,-0.52206 2.79862,-0.7831c1.17552,-0.00415 2.36434,-0.06032 3.55806,-0.1331c0.48663,-1.16295 1.85704,-1.43705 1.85704,-1.43705c0.63198,-0.12559 1.25747,-0.26432 1.87713,-0.41499c0.29418,1.50158 0.92443,2.88277 1.8092,4.06203c0.28916,0.99507 0.72878,1.92612 1.29259,2.76689c-0.2616,0.03186 -0.52223,0.06453 -0.78119,0.09523c0.33285,0.07189 0.6657,0.14387 0.99851,0.21594c1.66708,2.29331 4.28503,3.85077 7.2747,4.09322c0.5052,0.14391 1.01138,0.28771 1.51836,0.43278c2.06781,0.5917 5.0367,2.33464 7.20508,2.30216c0.74403,-0.01114 1.357,-0.67839 2.09551,-0.76955c6.31797,-0.77986 12.89379,0.4106 19.24858,-0.11698c1.29624,-0.10762 4.71635,-0.63909 7.00607,-1.09885c0.2894,-0.48278 0.73713,-0.8598 1.27141,-1.0593l3.94593,-1.57835l0.0226,0.05649c0.04557,-0.03801 0.09113,-0.07602 0.1367,-0.11403l0.17854,0.01619l-0.0157,-0.06282l3.14562,-0.78639c0.21046,-0.05752 0.43201,-0.08824 0.66071,-0.08824c0.3268,0 0.63896,0.06271 0.9251,0.17675c2.97749,-0.90818 5.96864,-1.80044 8.86615,-2.87421c1.55631,-0.57674 2.92152,-1.85177 4.57781,-1.9586c0.01837,-0.00119 0.03668,-0.0021 0.05494,-0.00275c0.01506,-0.00745 0.03011,-0.01491 0.04516,-0.02237l-0.00315,-0.00943l0.06755,-0.02251c0.4451,-0.22105 0.88734,-0.44583 1.30971,-0.6966l0.3914,0.04839l-0.04102,-0.16406l3.14562,-0.78639c0.21046,-0.05752 0.43201,-0.08824 0.66071,-0.08824c0.17775,0 0.35116,0.01855 0.51842,0.05382c0.15334,-0.17512 0.33075,-0.32866 0.52705,-0.45543l2.36776,-1.57853l0.22435,0.33652c0.98716,-1.04926 2.05071,-2.02019 3.20217,-2.87083l0.42701,0.01471l-0.05732,-0.17197l2.34461,-0.78154c0.13653,-0.04908 0.27856,-0.08663 0.42493,-0.11145c1.72259,-1.46458 3.26682,-3.0706 4.7409,-5.32208c0,0 0.47187,-0.7078 1.27798,-1.02239c-0.06244,-0.231 -0.09788,-0.49321 -0.09788,-0.79086c0,-0.09982 0.00399,-0.19566 0.01164,-0.28767c-0.15389,-0.29748 -0.33655,-0.62624 -0.54768,-0.99422c0,0 -0.3283,-0.65657 -0.27332,-1.43604c-0.0385,-0.02872 -0.07774,-0.05686 -0.11775,-0.08447l-0.58233,0.37414c0,0 -2.37171,0.79055 -3.16227,-1.58116c-0.06493,-0.19479 -0.10853,-0.37892 -0.13386,-0.55282c-0.47685,-0.40177 -0.93615,-1.05515 -0.80464,-2.04206c-0.38324,-0.20824 -0.76238,-0.45684 -1.17133,-0.71853l2.48155,-3.07711c0,0 0,-0.39793 -0.07938,-1.03503c0.2532,0.12605 0.51197,0.25572 0.77778,0.38921c0.55218,0.27732 1.24043,0.30532 1.83312,0.48687c-0.5761,-2.03259 -1.22685,-4.04946 -2.05272,-6.11256c0,0 -0.76077,-1.90189 0.81653,-2.95118c-0.12004,-1.41351 -0.16932,-2.84878 -0.18687,-4.35437c-0.21046,0.04944 -0.44564,0.07707 -0.70844,0.07707c-2.5,0 -2.5,-2.5 -2.5,-2.5l0.07465,-0.19371c-1.63529,-6.74129 -6.59245,-10.88853 -11.34243,-15.63857c0,0 -0.79965,-0.79966 -0.78548,-1.86115c-0.69931,-0.61531 -1.41423,-1.21625 -2.14134,-1.79836c-0.08868,0.40309 -0.30944,0.8313 -0.73765,1.25952c-1.76777,1.76776 -3.53554,0 -3.53554,0l-0.4263,-0.49253c-5.20993,-3.50516 -10.13704,-7.32814 -16.19647,-9.30352c0,0 -1.59096,-0.53032 -1.73245,-2.02531c-1.89741,-1.22044 -3.07783,-1.90871 -6.04812,-2.71252c-1.13914,-0.30827 -2.3,-0.52703 -3.47626,-0.68206c-0.53629,1.54819 -2.35262,1.54819 -2.35262,1.54819h-0.79999c-4.59839,0 -9.35918,-0.31065 -14.03023,-0.24884c-0.76948,0.35004 -1.58079,0.21482 -1.58079,0.21482l-0.85499,-0.14481c-0.83405,0.03828 -1.66376,0.09251 -2.48766,0.16665c-1.24558,0.1121 -2.48512,0.31345 -3.72594,0.48762c-0.33194,0.58051 -0.95413,1.12455 -2.12038,1.12455c-0.96371,0 -1.55593,-0.37149 -1.91985,-0.82807c-0.3569,-0.05148 -0.94679,-0.19741 -1.42303,-0.6111c-0.69025,-0.15747 -1.3803,-0.3166 -2.07177,-0.45883c-2.65184,0.09425 -5.29633,0.09326 -7.97931,-0.1522c-3.0697,0.52832 -6.18738,1.58409 -8.87757,2.67138c0,0 -2.32119,0.92848 -3.24967,-1.39271c-0.92848,-2.32119 1.39271,-3.24967 1.39271,-3.24967c1.36452,-0.54081 2.80981,-1.06941 4.29796,-1.5419l-0.42332,-0.95249c-2.15308,-4.8824 -3.03097,-8.27297 -3.04619,-13.58441c0,0 0,-0.28298 0.09521,-0.65852c-0.10471,-0.28706 -0.20981,-0.57492 -0.31587,-0.8638c-1.13941,1.09866 -2.8075,1.55722 -4.4221,1.98534c-0.12847,0.68605 -0.53717,1.27337 -1.10273,1.63862l-2.36776,1.57849l-0.06304,-0.09455l-0.15985,0.22699c-0.02045,0.00822 -0.0409,0.01643 -0.06136,0.02463c-0.00136,0.00286 -0.00273,0.00572 -0.00412,0.00859c-0.00245,0.00505 -0.10013,0.04112 -0.26692,0.09961c-7.72601,3.07022 -15.76677,5.07437 -23.4665,8.15369c-1.55498,0.62188 -2.83155,2.05162 -4.49476,2.24529c-0.1019,0.03783 -0.20693,0.06922 -0.31459,0.09366l-3.09483,0.77371c-0.21047,0.05753 -0.43201,0.08824 -0.66073,0.08824c-0.7113,0 -1.35321,-0.29706 -1.80846,-0.77388c-3.17971,0.18276 -5.87283,1.26037 -9.14521,1.56173c-3.97684,0.36624 -8.06936,-0.39558 -12.04015,0.00365c-3.05364,0.30702 -5.99662,1.60298 -9.06566,1.60779c-1.20407,0.00189 -2.32376,-0.66014 -3.51613,-0.82766c-3.0575,-0.42955 -6.14002,-0.82824 -9.1112,-1.66782c0,0 -0.01497,-0.00427 -0.04221,-0.01333c-1.42319,0.59292 -2.6388,-0.62272 -2.6388,-0.62272l-0.25538,-0.67768c-1.3036,-0.01808 -2.62261,-0.06882 -3.97726,-0.22235c-0.09575,-0.01085 -1.20571,-0.37215 -2.37733,-0.75936c-3.1549,-0.16451 -6.31109,-0.16407 -9.49052,-0.67454c0.12575,0.55861 0.24206,1.1175 0.31141,1.67783c0.05686,0.28767 0.05687,0.48836 0.05687,0.48836c-0.00017,0.04665 -0.00043,0.09329 -0.00079,0.13991c0.01598,0.30895 0.01349,0.61847 -0.0137,0.92875c-0.00238,0.02708 -0.00503,0.05409 -0.00796,0.08103c-0.32367,9.20611 -4.03896,17.85011 -6.46573,26.70857l-0.00071,0.00258c0,0 -0.30589,1.11605 -1.26075,1.62142c-0.2141,0.52686 -0.43531,1.05036 -0.66446,1.57002c-0.11894,0.44935 -0.24694,0.89611 -0.3859,1.33954v3.60821h-0.30447c0.18981,1.05909 0.30447,2.12612 0.30447,3.19995v1.29228l0.72535,2.90144l-0.20305,0.05076c0.38915,0.74662 0.72872,1.5152 0.99392,2.31385l-0.02249,0.1629l0.05769,-0.01154l0.32519,1.62584l1.62337,2.16444l-0.21467,0.161c1.2381,1.26773 2.10152,2.76076 2.98641,5.34847l-0.0044,0.01054c0.774,0.24935 1.38324,0.86577 1.62262,1.64418l0.78176,2.34533l-0.06824,0.02274c0.05856,0.12034 0.11346,0.24271 0.16424,0.36736c0.45282,1.11148 0.02152,2.40027 0.03228,3.60039l-0.07878,0.13203l0.01937,0.36088c0.90885,0.86873 1.8683,1.68941 2.88385,2.42863c2.68503,1.0624 5.11667,2.41061 7.90872,3.38486c0.70463,-0.06383 1.29534,0.17246 1.29534,0.17246c2.44096,0.98365 4.97983,1.76061 7.56182,2.2697l-0.0531,0.20378c2.14095,0.35674 4.06767,1.0063 6.36327,1.38c0.17164,0.02794 0.34623,0.04775 0.52335,0.06024c0.03979,-0.01115 0.07998,-0.02135 0.12055,-0.03055l3.14921,-0.78737l0.01719,0.06877c0.09371,-0.04316 0.18826,-0.08477 0.28371,-0.12469c0.48626,-0.20338 1.01478,-0.17422 1.55281,-0.10827c0.77817,-0.54392 1.54064,-1.11571 2.45435,-1.25624c0.11166,-0.01717 0.22344,-0.03152 0.33534,-0.04329l-0.02754,-0.08263l2.3446,-0.78153c0.2642,-0.09499 0.54902,-0.14675 0.84593,-0.14675c0.69729,0 1.32791,0.28548 1.78135,0.74592c0.2132,-0.01401 0.42691,-0.03066 0.64104,-0.04987c0.35834,-0.11099 0.71311,-0.21943 1.06326,-0.32269l1.94658,-2.04116c0,0 1.76777,-1.76776 3.53554,0c0.29853,0.29853 0.49624,0.59706 0.61865,0.88708c1.33806,-0.41588 2.66361,-0.89959 3.96015,-1.43363c0.34322,-1.28278 1.7666,-1.68946 1.7666,-1.68946c1.39069,-0.39734 2.78136,-0.79469 4.17205,-1.19204c0.55616,-0.31149 1.0996,-0.6281 1.62853,-0.94791l0.00947,-0.01262c0.68423,-0.07598 1.37024,-0.14348 2.05571,-0.21453c0.30821,-0.82513 1.03429,-1.3092 1.03429,-1.3092c0.12187,-0.05387 0.23516,-0.10736 0.34032,-0.16067c-0.65354,-0.73713 -0.65354,-1.75923 -0.65354,-1.75923zM202.37361,261.07352c0.98485,0.14295 1.88872,0.77035 2.88389,0.77232c2.89385,0.00572 5.65469,-1.3056 8.53432,-1.59216c3.94977,-0.39305 8.00896,0.35754 11.95985,0.00365c3.7357,-0.33462 6.84075,-1.59184 10.64632,-1.61217h3.98532c5.38157,-2.79383 11.02063,-4.91204 16.74735,-7.04473c1.11251,-0.41431 2.23663,-0.74596 3.36496,-1.05347l2.40235,-1.80179l0.29305,0.39072c1.18634,-1.08256 2.52504,-1.85781 4.90864,-3.03654c0.61422,-0.30374 3.94045,-1.29337 4.79998,-1.59997c0.43952,-0.15678 1.14648,-0.09119 1.29415,-0.53386c0.78488,-2.35275 -1.54296,-5.77567 -1.8635,-8.01992c-0.05521,-0.3865 -0.07677,-0.77555 -0.08111,-1.16591c-0.66159,0.21706 -1.54027,0.21189 -2.41895,-0.66679c-0.90049,-0.90049 -0.88357,-1.80099 -0.65023,-2.46782c-0.01144,-0.00004 -0.02287,-0.00007 -0.0343,-0.00009l-2.04931,1.34596c-1.70051,0.58147 -3.40286,1.15758 -5.1078,1.7259c0,0 -2.05911,0.68637 -2.97963,-1.13859c-0.33476,0.10992 -0.67448,0.22293 -1.02036,0.33859c0,0 -2.05273,0.68425 -2.97535,-1.13011c-1.28566,-0.03499 -2.57492,-0.18435 -3.82627,-0.37562c0,0 -0.01489,-0.00248 -0.04216,-0.00822c-0.73636,0.84225 -1.94679,0.84225 -1.94679,0.84225h-2.40003c-0.85577,0 -1.64498,-0.01838 -2.38812,-0.02938c-0.83926,0.24772 -1.68071,0.49189 -2.52505,0.73318c0,0 -1.26056,0.36016 -2.21681,-0.35398c-1.11817,0.29011 -2.24279,0.78771 -3.48327,1.63031c0,0 -0.21292,0.14194 -0.54793,0.26689c-0.37099,1.38317 -1.93987,1.7027 -1.93987,1.7027l-3.96621,0.80313c-3.25777,1.08932 -6.41561,2.06361 -9.61463,2.89934c-0.64686,0.34783 -1.31811,0.34782 -1.31811,0.34782l-0.04442,-0.00103c-2.45802,0.60886 -4.95183,1.1347 -7.54459,1.56699c0,0 -2.46598,0.41099 -2.87697,-2.05499c-0.00652,-0.03912 -0.01232,-0.07773 -0.01741,-0.11582c-0.2147,0.00429 -0.42935,0.00909 -0.64403,0.01417c-1.17158,1.13626 -2.7906,0.32675 -2.7906,0.32675l-0.36759,-0.25732c-1.99182,0.02408 -4.00295,-0.01939 -6.06795,-0.3039c0,0 -0.94023,-0.13432 -1.57884,-0.81691c-4.65882,-0.46152 -9.283,-0.75796 -14.06759,-0.75796c0,0 -0.1693,0 -0.41978,-0.04406c-0.60064,0.18347 -1.21508,0.40187 -1.85175,0.66527c0,0 -0.90616,0.36247 -1.8126,0.06828c-0.10494,0.02884 -0.24386,0.061 -0.40567,0.08398c-1.00127,1.26476 -2.70079,0.69825 -2.70079,0.69825l-2.25107,-0.75545c-0.58271,-0.11592 -1.14786,-0.23305 -1.70122,-0.34812c-0.23913,0.0455 -0.47821,0.09135 -0.71724,0.13759c0.01838,0.01698 0.02792,0.02652 0.02792,0.02652c0.01502,0.01541 0.02999,0.03082 0.0449,0.04622c1.74708,0.05289 2.21265,1.91519 2.21265,1.91519c0.0288,0.11518 0.05759,0.23037 0.08639,0.34555c0.53848,0.55396 0.7136,1.25446 0.7136,1.25446c0.05884,0.23598 0.11642,0.47227 0.17281,0.70885l1.80046,2.39562c0,0 0.86648,1.15308 0.40731,2.3657c0.16085,0.64985 0.04554,1.22645 0.04554,1.22645c-0.00973,0.04865 -0.01946,0.0973 -0.02919,0.14594l0.07774,0.96378c0,0 0,0.59211 -0.28816,1.2c0.28815,0.60789 0.28816,1.2 0.28816,1.2c0,1.06666 0,2.13332 0,3.19998l-0.14377,0.36729c1.0095,0.11728 2.01752,0.1937 3.02492,0.25097c1.00975,-1.12318 2.60943,-0.58995 2.60943,-0.58995c1.18768,0.39589 2.37131,0.67813 3.55403,0.88566c1.38473,0.09544 2.77171,0.23828 4.16322,0.48475c3.4134,0.24728 6.84941,0.25354 10.38244,0.94984l0.19842,2.08577c0.69626,0.09803 1.39264,0.19328 2.0869,0.29405z" fill="#000000"></path>
        <path d="M259.20004,121c-2.5,0 -2.5,-2.5 -2.5,-2.5l0.0031,-3.32454c0.47547,-4.80234 0.61617,-9.47116 0.79307,-14.24968c-0.20732,0.04766 -0.43847,0.07423 -0.69619,0.07423c-2.5,0 -2.5,-2.5 -2.5,-2.5v-3c0.00771,-3.98583 0.44296,-7.9744 0.98927,-11.95706c-0.44491,0.40804 -1.03802,0.65707 -1.68929,0.65707c-1.38071,0 -2.5,-1.11929 -2.5,-2.5v-5l0.3633,0c-0.313,-2.31389 -0.20982,-4.49196 0.19726,-8.17435l0.243,-4.55927c0,0 0.0672,-1.25557 0.99672,-1.93818c0.04615,-0.46897 0.09687,-0.93777 0.14801,-1.40649c-0.13812,-0.09785 -0.2771,-0.21498 -0.41608,-0.35396c-1.76776,-1.76778 0.00002,-3.53553 0.00002,-3.53553l0.78769,-0.78768c0.00691,-0.40096 0.00407,-0.80211 -0.01112,-1.20353c-0.05015,-1.32613 -1.32836,-6.78729 -0.69003,-8.54647c0.00347,-0.00956 0.00695,-0.01911 0.01046,-0.02865c0.01967,-0.16907 0.04545,-0.27222 0.04545,-0.27222l0.61606,-2.46428c-0.36163,-1.07582 -0.73085,-2.14888 -1.11126,-3.21795c-1.0049,1.21532 -2.67006,0.66027 -2.67006,0.66027l-2.46364,-0.82217c-0.0192,-0.01257 -0.0384,-0.02514 -0.0576,-0.03771l-0.00545,0.01382l-4.4179,-1.74254c-0.95543,-0.35145 -1.63694,-1.26965 -1.63694,-2.34702c0,-0.99801 0.58479,-1.85943 1.43041,-2.26029l1.35158,-0.67579h-3.80985c-1.38071,0 -2.5,-1.11929 -2.5,-2.5c0,-1.38071 1.11929,-2.5 2.5,-2.5l3.8147,0c2.7052,-0.53739 4.72002,-0.69369 6.813,-0.58917l-0.03404,-0.13617l3.14556,-0.78642c0.21048,-0.05753 0.43203,-0.08825 0.66075,-0.08825c1.34359,0 2.43963,1.05991 2.49759,2.38922l0.73509,0.01098c1.36565,0.01749 2.46733,1.12999 2.46733,2.49979c0,1.1246 -0.74256,2.07576 -1.76412,2.38994l-2.80542,0.93514c0.86898,2.30085 1.59113,4.62504 2.28626,6.95747c0.42357,0.44789 0.6833,1.05234 0.6833,1.71745c0,0.15491 -0.01409,0.30652 -0.04105,0.45363c0.58644,1.98583 1.1802,3.97423 1.85485,5.95593c3.28881,9.66043 9.46189,18.93683 6.91155,29.39678l-1.45758,1.96143c0,0 -1.42545,1.42545 -2.99634,0.4363c0.54692,6.01825 0.0346,11.67741 -0.21028,17.81891c-0.21638,5.42663 -0.31654,10.68274 -0.86424,16.10156l0.0031,3.07548c0,0 0,2.5 -2.5,2.5zM250.50101,35.89872l0.18975,0.06317c-0.00995,-0.02524 -0.01991,-0.05047 -0.02988,-0.0757c-0.05327,0.00424 -0.10656,0.0084 -0.15987,0.01253z" fill="#dda200"></path>
        <path d="M273.53738,200.54342c0.71333,1.97425 1.76263,4.0197 1.76263,5.95658c0,0.29742 -0.00992,0.59888 -0.02939,0.90339c0.6846,0.44599 1.13719,1.21826 1.13719,2.09624c0,0.11242 -0.00742,0.2231 -0.0218,0.33159l-0.30334,2.56266l-0.04959,-0.00587c-0.00024,0.10927 -0.00357,0.21875 -0.01028,0.32847c-0.08217,1.34433 -2.75916,6.43805 -3.46054,7.83833l-0.13198,0.09869l0.04984,0.03323l-1.57847,2.36773c-0.44513,0.68926 -1.22011,1.14553 -2.10164,1.14553c-1.38049,0 -2.49963,-1.11892 -2.5,-2.49932c-0.22212,0.06466 -0.45702,0.09933 -0.70001,0.09933c-1.38071,0 -2.5,-1.11929 -2.5,-2.5c0,-0.52533 0.16203,-1.01282 0.43885,-1.41521l1.58108,-2.37156l0.04244,0.0283c0.03308,-0.07606 0.06782,-0.15157 0.10432,-0.2265c0.25607,-0.52568 0.61941,-0.97503 1.03493,-1.38725c0.2974,-0.58063 0.61032,-1.15894 0.94513,-1.72415c-0.17365,0.11734 -0.34815,0.23354 -0.52341,0.34865l0.17997,0.17997l-3.53553,3.53553c-0.45241,0.45241 -1.07741,0.73223 -1.76777,0.73223c-1.38071,0 -2.5,-1.11929 -2.5,-2.5c0,-0.52533 0.16203,-1.01282 0.43885,-1.41521l1.39958,-2.09932c0.57345,-2.43046 0.51745,-4.60812 0.25332,-6.85426l-0.47151,0.35364c-0.42124,0.32312 -0.9483,0.51516 -1.52021,0.51516c-1.38071,0 -2.5,-1.11929 -2.5,-2.5c0,-0.29691 0.05176,-0.58172 0.14674,-0.84592l0.78153,-2.34463l0.8044,0.26813c0.37972,-1.8615 1.08652,-3.1532 2.87748,-2.43858c1.76875,-3.47982 1.80017,-7.55752 1.7898,-11.43898c0,0 0,-1.85666 1.60004,-2.36992v-2.39403c-0.11721,-3.12271 0.54388,-11.4153 -2.67794,-13.57196c-0.02672,-0.01789 -0.04636,-0.02695 -0.06002,-0.02838c-0.00503,0.02974 -0.01006,0.05948 -0.01509,0.08922c0.05866,0.21333 0.34594,0.75297 0.28358,1.00406c-0.28685,1.15496 -0.54232,2.36796 -1.07904,3.42552c-0.09781,0.51225 -0.19777,1.02417 -0.30009,1.53575l-0.79091,3.95459c-0.20986,1.16847 -1.23166,2.05513 -2.46054,2.05513c-1.38071,0 -2.5,-1.11929 -2.5,-2.5c0,-0.1348 0.01067,-0.2671 0.03121,-0.39612l0.70101,-4.90718l0.04153,0.00593c0.00167,-0.08661 0.00442,-0.17329 0.00831,-0.26003c0.01867,-0.41649 0.30703,-1.4376 0.76922,-2.64633c1.58293,-8.82859 2.60551,-17.74435 4.08277,-26.6073c0,0 0.41102,-2.46598 2.877,-2.05496c2.46598,0.41102 2.05496,2.877 2.05496,2.877c-1.09649,6.57855 -1.94535,13.18518 -2.95535,19.76459c1.55672,0.54138 2.95128,1.89365 4.07364,3.10366c1.28401,1.38428 1.98362,3.31662 2.36964,5.41904c0.29837,-0.03839 0.63853,-0.02244 1.02563,0.06981c0.82541,0.19672 1.3039,0.60681 1.57588,1.06279c0.98815,0.62325 1.12924,1.893 1.12924,1.893c0.42922,3.9475 1.05599,6.57909 0.10496,10.55028c-0.18422,0.76923 -0.28812,1.63173 -0.41445,2.49003l1.05795,1.06138c0.0079,0.64749 -0.01852,1.29368 -0.06555,1.93913c0.65513,1.49046 0.49753,3.26711 0.79327,4.88413l0.13712,3.25056c0,0 0.05627,1.39748 -0.96062,2.14401zM265.20023,200.19641c1.35867,1.41208 1.65002,3.77392 1.49779,6.19259c0.34556,-0.23357 0.68427,-0.47331 1.00195,-0.73198l0.3551,-0.05917l-0.0438,-0.10167l2.00255,-0.86265c-0.62965,-2.25317 -2.08141,-4.53769 -2.10616,-6.73794c-0.02404,-2.1371 0.45198,-4.24958 0.70654,-6.37461c-0.24402,-0.15183 -0.48913,-0.33614 -0.73475,-0.53552c-0.316,3.2338 -1.05042,6.24356 -2.67922,9.21096z" fill="#dda200"></path>
        <path d="M332.53086,290.34239l-0.43551,-1.71126l-2.14199,0.89632c-0.31057,0.13839 -0.65457,0.21532 -1.01654,0.21532c-1.38071,0 -2.5,-1.11929 -2.5,-2.5c0,-0.99533 0.58166,-1.8548 1.4236,-2.25705l3.01505,-1.51854l0.03052,0.06059c0.10339,-0.07102 0.20914,-0.13915 0.31746,-0.20412c0.15488,-0.09289 0.72529,-0.217 1.52403,-0.35453l0.01385,-0.02903c1.30012,-0.32647 2.60161,-0.65307 3.89503,-1.00708c-0.35636,-0.05273 -0.71216,-0.10842 -1.06732,-0.167c0,0 -0.90295,-0.15049 -1.52502,-0.81573c-0.74856,0.15819 -1.96556,0.13679 -2.70007,-1.33217c-0.04537,-0.09075 -0.08522,-0.17965 -0.11992,-0.26671c-0.47783,0.06972 -0.9568,0.09508 -1.43783,0.04009c-0.06895,-0.00788 -0.13768,-0.01675 -0.2062,-0.02656v0.03508h-3.20001c-1.37545,0 -2.49146,-1.11077 -2.49995,-2.48422c-0.45782,0.03215 -0.91631,0.05932 -1.37551,0.08116c-1.74137,0.08281 -3.57929,0.54506 -5.23,-0.01563c-0.09724,-0.03303 -0.19336,-0.06835 -0.28843,-0.10578l-0.01247,0.04986l-3.14928,-0.78736c-0.81147,-0.18416 -1.47301,-0.76306 -1.77205,-1.52414c-1.34226,-0.01375 -2.69554,-0.01387 -4.07227,-0.01387c0,0 -2.5,0 -2.5,-2.5c0,-2.5 2.5,-2.5 2.5,-2.5c5.01458,0 9.75807,0.00727 14.73822,0.62514l4.5469,0.17627c0.73564,0.02461 1.39074,0.36704 1.83238,0.89435c1.53958,-0.22879 3.07319,-0.49987 4.60282,-0.80445l2.23376,-0.74457c0.2642,-0.09498 0.54901,-0.14674 0.84591,-0.14674c1.38071,0 2.5,1.11929 2.5,2.5c0,0.5628 -0.18597,1.08217 -0.49982,1.5h0.39984c1.38071,0 2.5,1.11929 2.5,2.5c0,0.49115 -0.14163,0.94922 -0.38629,1.3356c1.52825,0.12016 3.06135,0.17994 4.5917,0.18313l0.2733,0.16623l0.02758,-0.11032l3.14928,0.7873c1.11331,0.25264 1.94441,1.24829 1.94441,2.43804c0,1.18976 -0.8311,2.1854 -1.94441,2.43804l-2.99072,0.74767c0.01353,0.0415 0.02652,0.08398 0.03895,0.12748c0.68681,2.40381 -1.71699,3.09062 -1.71699,3.09062c-3.58356,1.01738 -6.82,2.6323 -10.33435,3.60493c-0.70747,0.49127 -1.55248,0.49127 -1.55248,0.49127l-0.02695,-0.1059c-0.10352,0.02166 -0.20734,0.04265 -0.31148,0.06293z" fill="#dda200"></path>
        <path d="M366.22214,298.04552c-1.14552,2.22211 -3.36763,1.07659 -3.36763,1.07659l-3.59054,-1.86231c-0.12531,-0.09603 -0.25053,-0.19216 -0.37568,-0.28841c-0.68928,0.0969 -1.27892,-0.09967 -1.27892,-0.09967l-2.25103,-0.7555c-1.13477,-0.2293 -2.2525,-0.53527 -3.35552,-0.89383l-0.00279,0.00016v0.17744h-3.20001c-1.34726,0 -2.4456,-1.0657 -2.49804,-2.4001c-0.23399,0.00009 -0.46798,0.00014 -0.70197,0.00014c0,0 -2.5,0 -2.5,-2.5c0,-2.5 2.5,-2.5 2.5,-2.5c1.61071,0 3.22141,0.00214 4.83211,0.00581c0.10071,-0.22869 0.24623,-0.46497 0.44735,-0.70631c1.60046,-1.92055 3.52101,-0.32009 3.52101,-0.32009c0.54344,0.45295 1.08861,0.90387 1.63556,1.35265l2.11956,0.52988c1.11331,0.25264 1.94441,1.24829 1.94441,2.43804c0,0.09717 -0.00554,0.19304 -0.01633,0.28732c0.61802,0.48686 1.2383,0.97082 1.86089,1.45175l3.20099,1.6388c0,0 2.22211,1.14552 1.07659,3.36763z" fill="#dda200"></path>
      </g>
    </g>
  </g>
</svg>
