<?xml version="1.0" encoding="UTF-8"?>
<svg xmlns="http://www.w3.org/2000/svg" xmlns:xlink="http://www.w3.org/1999/xlink" version="1.1" width="128.31761" height="41.78967" viewBox="0,0,128.31761,41.78967">
  <g transform="translate(-212.70004,-86.3787)">
    <g fill="#d6d6d6" stroke="none" stroke-width="0.5" stroke-miterlimit="10">
      <path d="M215.20004,109.60001c0.70986,0 1.21816,0.20156 1.58213,0.49022c1.46971,-0.25641 2.72517,-0.5697 4.15604,-1.61833c1.78368,-1.30719 2.97718,-3.29054 4.67685,-4.70524c3.19442,-2.65884 7.17847,-4.85255 10.86691,-6.70274c5.70455,-2.85222 11.90314,-6.76477 18.41261,-7.44518c1.55983,-0.16304 3.14381,0.16337 4.70497,0.01355c1.10737,-0.10627 5.30486,-2.33805 5.42607,-2.3654c1.38816,-0.31322 2.85437,0.10733 4.26891,-0.04814c1.2236,-0.13449 2.37045,-0.81344 3.60142,-0.81691c0.84328,-0.00237 1.55674,0.79728 2.40002,0.80002c2.24949,0.00731 4.47546,-1.07236 6.70449,-0.76958c3.49397,0.47461 7.30564,2.27753 10.69853,3.26743c2.92993,0.85483 5.61598,0.57074 8.50148,1.53259c1.88561,0 3.73459,0.52456 5.59997,0.79999c2.11046,0.31161 4.28883,-0.30667 6.40002,0c3.14606,0.45699 8.11918,2.1422 11.01097,3.38145c1.95801,0.83909 3.58517,2.34244 5.5453,3.17657c3.33632,1.41976 5.09376,2.77765 7.82827,5.17636c0.9593,0.84149 2.45554,1.20884 3.01918,2.35369c0.6463,1.31274 0.29581,2.91645 0.29581,4.37966c0,1.46321 0.4081,3.09689 -0.29581,4.37966c-1.16814,2.12874 -5.58045,3.74885 -7.80416,3.72035c-4.56242,-0.05848 -6.51627,-3.03942 -9.31431,-5.97337c-2.7731,-0.82015 -5.84283,-2.4888 -8.68613,-2.85893c-2.83011,-0.36842 -3.55861,0.09137 -6.1932,0.75766c-4.23389,1.07074 -9.21367,2.03738 -12.81962,4.45475c-0.89052,0.59699 -1.71896,1.30771 -2.68834,1.76567c-0.53055,0.25065 -1.31572,-0.09295 -1.73064,0.32197c-0.41491,0.41491 -0.07443,1.19862 -0.32196,1.73062c-0.39228,0.84309 -1.17547,1.46615 -1.55949,2.31303c-0.56218,1.23978 -0.35502,2.86325 -1.25203,3.88721c-0.82269,0.93913 -2.27662,1.02956 -3.44369,1.4731c-3.91973,1.48965 -9.02466,1.71047 -13.19103,1.69602c-4.20202,-1.40069 -8.7702,-1.14776 -13.11189,-2.47138c-2.41306,-0.73566 -4.53528,-2.21119 -6.78604,-3.35055c-2.98024,-1.50863 -6.74097,-1.58867 -9.66187,-3.23136c-1.16215,-0.65358 -2.05165,-1.72243 -3.19999,-2.39998c-0.9656,-0.56973 -5.80592,-1.37922 -5.88144,-1.39821c-4.4342,-1.11492 -10.06281,-1.49462 -13.97158,1.26389c0,0 -2.08013,1.38674 -3.46687,-0.69339c-0.29574,-0.44361 -0.4338,-0.85568 -0.46799,-1.2295l-2.35184,-2.55724c0,0 0,-2.5 2.5,-2.5z"></path>
    </g>
  </g>
</svg>
