<?xml version="1.0" encoding="UTF-8"?>
<svg xmlns="http://www.w3.org/2000/svg" xmlns:xlink="http://www.w3.org/1999/xlink" version="1.1" width="70.85749" height="70.85748" viewBox="0,0,70.85749,70.85748">
  <g transform="translate(-204.57125,-144.57126)">
    <g stroke-miterlimit="10">
      <path d="M204.57125,197.29975c0,-13.18522 0,-29.94079 0,-37.17113c0,-6.77705 9.24868,-15.55736 16.26237,-15.55736c7.79138,0 26.20389,0 39.49433,0c8.6303,0 15.10079,11.13866 15.10079,19.04217c0,7.7889 0,24.76514 0,37.17113c0,8.35965 -5.31082,14.64418 -12.77759,14.64418c-14.11219,0 -35.92558,0 -44.14071,0c-6.21645,0 -13.93918,-8.01385 -13.93918,-18.12896z" fill="#833ae0" stroke="none" stroke-width="0"></path>
      <path d="M219.63741,174.30068l2.51132,29.04282c0.16103,1.8654 -1.30917,3.47311 -3.18542,3.47311c-1.76692,-0.00052 -3.19551,-1.43427 -3.19551,-3.19809v-29.15137c0,-1.0381 0.81807,-1.89373 1.85532,-1.9385c0,0 1.92485,0.73772 2.01429,1.77203zM240.12838,153.5243c0.79765,-0.38396 1.72117,-0.44587 2.56715,-0.17416l0.37349,0.11864c1.40015,0.44977 2.46635,1.55828 2.82459,2.93811c0.43191,1.66542 0.50997,3.40331 0.23211,5.1013l-1.71394,10.45503c-0.21479,1.31123 0.79817,2.50391 2.12543,2.50391h13.39072c2.66951,0 4.69517,2.40741 4.24051,5.04074l-1.82508,10.54597c-1.4795,8.55391 -9.15796,14.82421 -18.15619,14.82421h-12.01487c-2.23269,0 -4.09345,-1.71083 -4.28601,-3.93758l-2.10009,-24.27735c-0.11915,-1.37947 0.43062,-2.73361 1.47899,-3.63723l3.71813,-3.20313c1.72557,-1.48682 3.38677,-3.09661 4.46021,-5.10637c0.73458,-1.3752 1.30503,-2.83124 1.69636,-4.33902l1.22904,-4.74037c0.23831,-0.9175 0.88165,-1.68972 1.75943,-2.11271z" fill="#ffffff" stroke="#ffffff" stroke-width="5"></path>
      <path d="M231.66047,194.62617l-3.58416,-17.57143c0,0 2.56901,-1.59071 5.60739,-0.98891c3.6389,0.72075 8.06637,3.65558 11.11869,3.65558c3.08301,0 7.20706,-2.50757 10.92286,-3.22879c3.09695,-0.60111 6.11296,0.56212 6.11296,0.56212l-1.9912,18.57143c0,0 -9.99479,5.65953 -14.73193,5.49147c-4.65701,-0.16522 -13.45461,-6.49147 -13.45461,-6.49147z" fill="#384150" stroke="none" stroke-width="0"></path>
      <path d="M217.62299,172.52864c1.03699,-0.04456 1.92485,0.73773 2.01429,1.77204l2.51132,29.04282c0.16102,1.8654 -1.30917,3.47311 -3.18542,3.47311c-1.76692,-0.00052 -3.1955,-1.43427 -3.1955,-3.19809v-29.15137c0,-1.03811 0.81807,-1.89373 1.85532,-1.9385zM240.12826,153.5243c0.79764,-0.38396 1.72118,-0.44586 2.56716,-0.17416l0.37349,0.11864c1.40015,0.44977 2.46635,1.55828 2.82459,2.93812c0.43191,1.66542 0.50997,3.40331 0.23211,5.1013l-1.71394,10.45504c-0.2148,1.31124 0.79817,2.50391 2.12543,2.50391h13.39072c2.66951,0 4.69517,2.40741 4.24051,5.04074l-1.82508,10.54597c-1.4795,8.55391 -9.15796,14.82421 -18.15619,14.82421h-12.01487c-2.2327,0 -4.09345,-1.71084 -4.286,-3.93758l-2.1001,-24.27735c-0.11916,-1.37948 0.43062,-2.73361 1.47899,-3.63723l3.71813,-3.20313c1.72556,-1.48682 3.38678,-3.09661 4.46022,-5.10637c0.73458,-1.3752 1.30504,-2.83124 1.69636,-4.33902l1.22904,-4.74037c0.23832,-0.91751 0.88165,-1.68972 1.75942,-2.11271zM254.57898,191.8965c-0.59398,-0.89044 -1.79742,-1.13108 -2.68812,-0.53762c-4.04459,2.69613 -9.31331,2.69613 -13.3579,0c-0.8907,-0.59346 -2.09414,-0.35282 -2.68812,0.53762c-0.59398,0.8907 -0.35307,2.09414 0.53763,2.68812c5.34678,3.5646 12.31211,3.5646 17.65889,0c0.8907,-0.59398 1.1316,-1.79742 0.53762,-2.68812zM232.28826,181.34045c-1.42729,0 -2.58447,1.73616 -2.58473,3.8771c0,2.1412 1.15719,3.8771 2.58473,3.8771c1.42755,0 2.58473,-1.73591 2.58473,-3.8771c-0.00026,-2.14094 -1.15744,-3.8771 -2.58473,-3.8771zM258.13557,181.34045c-1.42728,0 -2.58447,1.73616 -2.58473,3.8771c0,2.1412 1.15718,3.8771 2.58473,3.8771c1.42754,0 2.58473,-1.73591 2.58473,-3.8771c-0.00026,-2.14094 -1.15745,-3.8771 -2.58473,-3.8771z" fill="#86ff67" stroke="none" stroke-width="1"></path>
    </g>
  </g>
</svg>
