<?xml version="1.0" encoding="UTF-8"?>
<svg xmlns="http://www.w3.org/2000/svg" xmlns:xlink="http://www.w3.org/1999/xlink" version="1.1" width="235.73679" height="307.68563" viewBox="0,0,235.73679,307.68563">
  <g transform="translate(-117.27453,-59.9149)">
    <g fill-opacity="0.50196" fill="#000000" stroke="none" stroke-width="0.5" stroke-miterlimit="10">
      <g>
        <path d="M166.88363,218.66028v-0.49936c-0.52199,-1.8571 -1.11397,-3.69345 -1.82291,-5.49581c-0.82154,-2.08864 -0.69147,-3.70836 -1.89677,-5.6948c-0.97171,-3.75411 -1.86996,-7.26552 -2.55365,-10.87753c-0.26839,-0.35551 -0.26364,-0.70115 -0.17835,-0.97271c-0.02388,-0.13464 -0.04744,-0.26946 -0.07068,-0.40448c-0.13505,-0.01722 -0.28192,-0.06109 -0.44064,-0.14044c-1.06511,-0.53254 -0.53257,-1.59765 -0.53257,-1.59765l0.54193,-1.07672c-0.10617,-0.79428 -0.20021,-1.59901 -0.28079,-2.41748c-0.15961,-1.62122 -0.44462,-3.3275 -0.67923,-5.04831c-0.26685,0.0191 -0.57497,-0.06352 -0.88308,-0.37163c-0.84205,-0.84202 -0.00003,-1.68409 -0.00003,-1.68409l0.50861,-0.4917c0.02083,-0.01561 0.04165,-0.03124 0.06248,-0.04685c-0.02631,-0.12524 -0.05274,-0.25044 -0.07931,-0.3756c-0.19082,-0.45104 -0.34076,-0.91604 -0.43637,-1.39221l-0.01567,-0.67436c-0.23274,-1.03087 -0.47636,-2.05817 -0.73403,-3.08103c0,0 -0.28881,-1.15527 0.86647,-1.44409c0.17491,-0.04372 0.32995,-0.05435 0.46713,-0.0409c-0.1377,-1.45753 -0.21544,-2.92942 -0.19446,-4.38058c-0.25268,-0.21837 -0.41257,-0.54118 -0.41257,-0.90135c0,-0.01976 0.00048,-0.0394 0.00144,-0.05892l0.07107,-1.65769l0.0208,0.00089l-0.01715,-0.05614c0.38025,-2.77344 -0.22602,-7.08799 1.11109,-9.59987c0.02024,-0.03801 0.04103,-0.07563 0.06237,-0.11289l-0.02124,-0.0085l0.75182,-1.87956c0.09159,-0.24527 0.26172,-0.45226 0.47979,-0.59034c0.33236,-0.76839 0.71203,-1.51188 1.12278,-2.24003c0.01633,-0.03102 0.02988,-0.05396 0.03813,-0.0674c0.81474,-1.43584 1.74857,-2.81306 2.67616,-4.20546c0,0 0.48407,-0.7261 1.24501,-0.52076c0.21042,-0.21088 0.44672,-0.30541 0.44672,-0.30541l1.93799,-0.77464c2.81462,-0.93947 4.86548,-2.18144 7.41821,-3.71359c0,0 0.02574,-0.01544 0.07151,-0.03734c0.04452,-0.02426 0.07209,-0.03608 0.07209,-0.03608l0.47838,-0.20501c8.28806,-3.55184 12.2093,-3.73625 19.07594,-9.62146c0.1775,-0.57532 8.71715,8.15563 12.13516,14.03754c0.88587,1.52445 -0.24889,4.68991 2.95279,4.98812c11.84056,1.10284 14.35669,2.90717 17.16492,2.7477c5.76892,-0.3276 23.43039,-27.31802 23.43039,-27.31802c2.25989,2.2774 5.58285,2.75668 8.62181,3.6405c3.07025,0.89292 6.13726,1.68002 9.18027,2.67703c4.2612,1.39615 8.19606,3.15829 12.68224,1.89453l1.894,-0.51654c0,0 1.14887,-0.31332 1.46219,0.83554c0.01199,0.04399 0.02185,0.08676 0.02971,0.12833c0.80191,-0.6618 1.5688,0.10507 1.5688,0.10507c0.09487,0.09512 0.18862,0.1907 0.28127,0.28672c0.07006,0.06139 0.12872,0.1256 0.17597,0.18429c4.21988,4.46574 6.14132,9.88184 8.09548,15.65552l0.5317,2.36516c0,0 0.08887,0.39658 -0.06892,0.77829c2.25336,6.72803 3.67525,13.78374 3.36847,20.83707c-0.10748,2.40143 -0.21472,4.78782 -0.42631,7.18263l-0.1816,2.05246c0,0 -0.09111,1.02987 -1.06318,1.08548c-1.47094,5.97296 -1.94839,12.44285 -3.50356,18.3434c-1.67949,6.37225 -5.1126,11.53688 -7.73865,17.45815l-0.31394,1.07093c0,0 -0.24972,0.84481 -1.0462,0.86641c-2.21715,5.5804 -4.55506,11.11487 -6.60454,16.74967c-0.51035,1.2761 -1.02071,2.55219 -1.53114,3.82825l-0.4216,0.85241c0,0 -0.30196,0.60391 -0.90586,0.67487c-0.71524,2.77585 -1.5253,5.52443 -2.4379,8.24376c-0.60981,3.04911 -2.03957,5.70358 -3.09925,8.5335c-0.18433,0.49227 -1.97651,8.02999 -3.2698,8.60078c-2.19488,0.96871 1.4922,6.41338 -11.0794,7.70368c-9.53434,0.97857 -24.25798,2.02423 -36.89283,1.32688c-18.94632,-1.0457 -34.86059,-4.34594 -34.86059,-4.34594c-0.91633,-5.08423 -1.63007,-10.19774 -2.96193,-15.20168c-0.04047,-0.15202 -0.08164,-0.30376 -0.12351,-0.45519c-0.45423,-0.19234 -0.65541,-0.67311 -0.65541,-0.67311l-0.02728,-0.06516c-1.16845,-2.80318 -2.00249,-5.77115 -2.79193,-8.73826c-0.32162,-0.35188 -0.32162,-0.84943 -0.32162,-0.84943l0.00921,-0.17167c-1.05062,-2.58314 -2.1043,-5.15752 -2.99662,-7.78751c0,0 -0.14458,-0.43375 0.01418,-0.85331c-0.52437,-0.85052 -1.13311,-1.55962 -1.83139,-1.96204c0,0 -0.99085,-0.66053 -0.3303,-1.65137c0.21568,-0.32351 0.46655,-0.47099 0.70666,-0.52288l-0.09686,-0.38844c-2.02586,-6.04955 -3.00763,-12.38099 -4.61884,-18.52363c-0.38265,-0.35202 -0.38265,-0.91069 -0.38265,-0.91069zM173.03928,233.15171c0.05847,-0.17899 0.15819,-0.33931 0.28794,-0.46974c-0.25561,-0.46558 -0.53959,-0.91207 -0.87771,-1.35404c0.15174,0.62461 0.30849,1.24789 0.47201,1.86934c0.03822,-0.01719 0.07752,-0.03243 0.11776,-0.04556zM162.20699,172.62959c0,0 0.34199,-0.17101 0.73531,-0.12541c0.21274,-0.79213 0.48665,-1.58484 0.83125,-2.38637c-0.65802,0.43868 -1.31603,0.87736 -1.97404,1.31605l-0.56457,0.19832c0.03861,0.47773 0.07196,0.95512 0.10235,1.43227c0.2899,-0.14495 0.5798,-0.28989 0.8697,-0.43485zM162.86708,161.92804c-0.25136,0.11088 -0.51008,0.20392 -0.77714,0.27526l-0.69311,0.47514c-0.0026,0.02466 -0.00527,0.04934 -0.00794,0.07404c0.51568,-0.25801 1.02674,-0.52784 1.5263,-0.8168c-0.01596,-0.00215 -0.032,-0.00469 -0.0481,-0.00764zM263.03936,135.88941l0.0087,0.03227h0.80449c-0.46979,-0.16591 -0.93624,-0.33031 -1.39874,-0.4912c0.18284,0.17044 0.37874,0.32486 0.58555,0.45893zM264.10264,136.11497c0.08546,-0.00803 0.16929,-0.01344 0.25179,-0.01602c-0.08402,-0.02967 -0.16796,-0.05933 -0.25179,-0.08893zM291.55257,203.37567c-0.42338,1.55266 -0.81525,3.10886 -1.23115,4.66178c0.3244,-0.90806 0.61718,-1.83684 0.86923,-2.79316c0.21268,-0.80692 0.4062,-1.62296 0.58546,-2.44581c-0.08848,0.19002 -0.17017,0.38145 -0.22354,0.57719z"></path>
        <path d="M259.15055,67.95121c0.07889,-0.01099 0.16327,-0.01687 0.25352,-0.01687c1.38578,0 1.38578,1.38577 1.38578,1.38577l-1.13495,0.84099c0.06102,-0.00624 0.12518,-0.00952 0.19261,-0.00952c1.38578,0 1.38577,1.38578 1.38577,1.38578v0.44344c0,1.9213 0.00119,3.8426 0.00186,5.76391c0.12258,-0.03549 0.25216,-0.05452 0.38617,-0.05452c0.76535,0 1.38577,0.62043 1.38577,1.38578c0,0.16457 -0.02868,0.32245 -0.08133,0.4689l-0.43322,1.29967v0.00001c-0.37496,1.12208 -0.64142,2.26919 -0.83012,3.43205l0.01435,0.56422c0,0 0.00001,0.37274 -0.19331,0.73159c-0.3609,3.12704 -0.25018,6.34154 -0.25018,9.46773c0,0 0.00001,0.17659 -0.06303,0.40368c0.14414,0.46475 -0.00807,0.92143 -0.00807,0.92143c-0.00051,0.00155 -0.00104,0.0031 -0.00155,0.00465c0.04712,0.13939 0.07266,0.28872 0.07266,0.44402c0,0.12678 -0.01702,0.24957 -0.0489,0.36623l-0.43591,1.74366c-0.04667,0.1867 -0.09342,0.37337 -0.14022,0.56004c0.04674,0.66794 -0.24117,1.48306 -0.57861,2.29911c-0.75923,3.01102 -1.51919,6.02251 -2.22211,9.04668c-0.32205,1.38556 -0.22884,2.97362 -0.76968,3.99778c-0.0938,0.47386 -0.18917,0.94561 -0.28665,1.41484l-0.06169,0.06546l0.03818,0.01272l-0.43333,1.30003c-0.10566,0.34357 -0.3413,0.63021 -0.64953,0.80252c-0.38329,1.78978 -0.7517,3.5771 -1.10969,5.35353l-0.46812,1.41289c0,0 -0.16669,0.50007 -0.60287,0.78058l-0.55219,1.01999c-0.62121,0.71561 -1.2371,1.41045 -1.84299,2.10012c0.2523,0.25097 0.40849,0.59848 0.40849,0.98248c0,0.48864 -0.25292,0.91823 -0.63498,1.16497l-1.2265,0.81766c-0.90774,0.91282 -1.8161,1.82064 -2.70941,2.7385c0.08742,0.18161 0.13639,0.38521 0.13639,0.60026c0,0.29663 -0.0932,0.5715 -0.25191,0.79691l-0.94824,1.38701l-0.04633,-0.03167l-0.03113,0.13438c-0.47515,0.47711 -1.00851,0.98716 -1.57508,1.52448l-0.04073,0.06171c0,0 -0.19522,0.29284 -0.53647,0.48498c-1.23602,1.17057 -2.58266,2.45421 -3.80518,3.79799c-0.01925,0.03189 -0.03843,0.06384 -0.05757,0.09583c0,0 -0.1533,0.2555 -0.43622,0.45849c-0.23962,0.27505 -0.47287,0.55227 -0.69775,0.83121c0.20442,0.96938 -0.76494,1.45405 -0.76494,1.45405l-0.29719,-0.02296c-0.79375,1.17818 -1.38654,2.37334 -1.63884,3.55406c0,0 -0.24008,0.96033 -1.12604,1.0548c-0.66594,1.10512 -1.39814,2.167 -2.34258,3.13655c0,0 -0.84835,0.84837 -1.7557,0.17701c-1.50786,1.03759 -2.52285,1.74825 -4.68216,1.55251c-1.46071,-0.1324 -4.59871,-1.95668 -5.63353,-1.39472c0,0 -0.33426,0.11141 -0.72187,0.05334c-3.63817,0.01484 -7.38407,1.31652 -10.45209,-1.71844c-0.91111,-0.9013 -1.23415,-2.25027 -1.94694,-3.31535c0,0 -0.34037,-0.51054 -0.22841,-1.07866c-0.20099,-0.19964 -0.30149,-0.40064 -0.30149,-0.40064l-0.90734,-1.81653c-0.08546,-0.20746 -0.1752,-0.4104 -0.26882,-0.60932c-0.07629,-0.09477 -0.11568,-0.16317 -0.11568,-0.16317l-1.13631,-1.99336c-1.78895,-1.86774 -3.30235,-3.91702 -5.03152,-5.74409c-0.20234,0.24883 -0.52908,0.44973 -1.05672,0.44973c-1.38578,0 -1.38577,-1.38578 -1.38577,-1.38578l0.2312,-0.1205c-0.44828,-0.67537 -0.90337,-1.33739 -1.36781,-1.98734c-0.13395,-0.08562 -0.26986,-0.16947 -0.40784,-0.25146c0,0 -0.76277,-0.45766 -0.69939,-1.25077c-1.26092,-1.6576 -2.59988,-3.23874 -4.06286,-4.76601c-1.23195,-0.09856 -1.23196,-1.37977 -1.23196,-1.37977l0.03423,-0.08881c-0.0284,-0.08789 -0.04963,-0.18259 -0.05884,-0.28249c-0.12582,-0.50328 -0.25163,-1.00657 -0.37745,-1.50985c0,0 -0.23591,-0.94364 0.47814,-1.44741c-0.34336,-0.30011 -0.46505,-0.72126 -0.46505,-0.72126l-0.07931,-0.2745c-0.12545,-0.43418 -0.25077,-0.86885 -0.37575,-1.30403c-0.37832,-0.60454 -0.70746,-1.25838 -0.99607,-1.97498c-0.44414,-0.19865 -0.76459,-0.62419 -0.81394,-1.12923l-0.30421,-2.73799l0.01061,-0.00118c-0.00459,-0.01019 -0.00919,-0.02038 -0.01377,-0.03056l-0.09733,-1.50033c-0.06879,-0.49934 -0.14176,-0.99791 -0.2183,-1.49582c-0.96918,-3.78905 -1.8287,-7.60544 -2.4689,-11.43721c0,0 -0.0845,-0.50701 0.1582,-0.95493c-0.32773,-1.7241 -0.63754,-3.45136 -0.90379,-5.18642c-0.60363,-0.38534 -0.60363,-1.18165 -0.60363,-1.18165c0,-1.73502 0.14082,-3.30925 0.3353,-4.96219c-0.46109,-0.22504 -0.77875,-0.69847 -0.77875,-1.24609c0,-0.10804 0.01237,-0.21319 0.03576,-0.31411l0.41527,-1.97258c0.00529,-0.86868 0.16569,-1.7386 0.43586,-2.58181v-0.24501l-0.40206,-0.10052l0.43641,-1.74568c0.07534,-0.33206 0.26996,-0.61885 0.53641,-0.81292c-0.31661,-0.60152 0.01901,-1.27268 0.01901,-1.27268l0.29716,-0.26711c0,-1.86577 0.00988,-3.03132 0.2746,-4.1762c0.02522,-0.15382 0.05372,-0.30823 0.08597,-0.46334l-0.33366,-0.06672l0.4384,-2.19208c0.02669,-0.14863 0.0771,-0.28906 0.14715,-0.41719c-0.63723,-1.09609 0.44806,-1.81961 0.44806,-1.81961c4.72096,-3.07232 10.22347,-3.90406 15.52756,-5.07359c6.00507,-1.32409 11.03242,-3.19664 17.3909,-3.12333c3.67034,-1.2234 7.89925,-0.90479 11.75166,-0.90479c8.97161,0 17.7407,0.77161 25.44196,5.90575c1.69391,0.54575 3.03762,1.21192 4.459,2.0932zM249.1139,126.34871c0.10514,0.21029 0.15677,0.40273 0.17001,0.57734c0.50653,-0.57684 1.01904,-1.15852 1.53507,-1.75296l0.11665,-0.27863c-0.7365,0.40881 -1.56396,0.68534 -2.44846,0.78866c-0.00382,0.00044 -0.00763,0.00088 -0.01144,0.00133c0.23438,0.10858 0.46146,0.31085 0.63817,0.66425z"></path>
        <path d="M181.71403,279.40576c0.1761,-0.16429 0.35787,-0.31747 0.54488,-0.46012c0.10244,-0.18721 0.21724,-0.30202 0.21724,-0.30202l0.33033,-0.16965l0.81803,-1.52361c0.19718,-0.38535 0.59816,-0.64913 1.06077,-0.64913c0.61189,0 1.11597,0.46148 1.18321,1.05539c0.01334,0.02259 0.02597,0.04566 0.03783,0.06918c3.88852,-0.67699 8.57501,0.66835 12.14328,1.42046c1.45884,0.30749 2.98793,0.03447 4.46728,0.21963c6.94662,0.86941 13.39184,2.27749 20.43201,2.27749c5.41717,0 10.6284,-0.71394 15.99387,-0.76207c4.31959,-0.03875 9.28615,0.72117 13.53835,0.01533c1.56485,-0.25976 2.95015,-1.24194 4.51435,-1.50556c0.71859,-0.12111 1.48887,0.23021 2.18611,0.01833c1.60434,-0.48755 3.95469,-2.43582 5.37903,-3.3867l0.29963,-0.28299c-0.11243,-0.28246 -0.22503,-0.56468 -0.33781,-0.84665c0,0 -0.44226,-1.10566 0.66341,-1.54791c1.10566,-0.44225 1.54791,0.6634 1.54791,0.6634c0.01808,0.04521 0.03616,0.09043 0.05424,0.13566c0.08578,-0.01963 0.1751,-0.03001 0.26683,-0.03001c0.65768,0 1.19083,0.53315 1.19083,1.19083c0,0.32831 -0.13286,0.62559 -0.34774,0.841c-0.00003,0.00003 -0.00005,0.00005 -0.00007,0.00007l-0.22524,0.22579c0.64714,1.64032 1.28795,3.28805 1.92191,4.94148c0.02989,0.03611 0.05768,0.07402 0.0832,0.11353l1.31086,1.96629l-0.3264,0.2176c2.31694,3.30167 3.14681,6.943 4.94324,10.95452c0.66258,1.47956 1.69514,2.68242 2.33206,4.17861c1.85727,4.36294 2.81164,9.18844 4.43556,13.64168c1.65755,4.54544 4.18256,8.80082 4.25147,13.73769c0.59013,2.34296 0.37669,4.50897 0.75651,6.82065c0.25729,1.56585 1.24807,2.95033 1.50587,4.51611c0.25059,1.52206 -0.24401,3.10749 0.01813,4.62761c0.32998,1.91354 0.63118,3.1108 0.56083,4.50285c0.16676,-0.08889 0.35717,-0.13927 0.55933,-0.13927c0.53568,0 0.98874,0.3537 1.1384,0.84031l0.74446,2.23338l-0.05424,0.01808l0.10033,0.17003c-0.01603,4.44133 -1.39033,6.00414 -4.54635,8.88923c-4.74812,0.96429 -9.11856,2.77636 -13.89104,3.89159c-2.26442,0.52915 -4.73511,0.33512 -6.95049,0.79516c-3.69669,0.76765 -7.44991,2.39594 -11.21081,3.02782c-0.54062,0.09082 -4.20058,-0.0398 -4.86964,0.01384c-3.83592,0.30751 -7.48919,0.73479 -11.3701,0.80494c-7.78606,0.45837 -15.54197,1.01866 -23.428,0.63992c-6.1472,-0.29523 -12.2911,-0.48977 -18.48528,-0.71079c-2.45174,-0.08749 -4.577,-0.74024 -7.02507,-0.72984c-4.5344,-0.00226 -9.70588,-0.74121 -14.11049,-1.89802c-2.27587,-0.59772 -4.30913,-1.69026 -6.68997,-2.01108c-3.73467,-0.50324 -8.63691,-0.06261 -12.07635,-1.78697c-3.2554,-1.63209 -4.19851,-5.0235 -3.63524,-8.2464c-0.16761,-0.12728 -0.26288,-0.25516 -0.26288,-0.25516l-0.77043,-1.76648c0.4255,-1.69442 0.80657,-2.92325 1.36235,-4.09875c-0.00369,-0.03818 -0.00558,-0.07689 -0.00558,-0.11604c0,-0.03935 0.0019,-0.07825 0.00564,-0.11661l0.02724,-0.31567l-0.03154,-0.01055l0.04372,-0.13072l0.16406,-1.90163l0.04915,0.00424l-0.02837,-0.1455c0.43369,-1.29726 0.94926,-2.56851 1.36165,-3.87205c-0.02612,-0.09805 -0.04005,-0.2011 -0.04005,-0.30739c0,-0.06207 0.00476,-0.12304 0.0139,-0.18254l0.32265,-2.33947l0.02392,0.0033l-0.01002,-0.08362c0.80421,-2.87023 1.69497,-5.66367 2.87217,-8.31175c-0.14486,-0.19723 -0.23042,-0.44072 -0.23042,-0.70419c0,-0.21155 0.05515,-0.41021 0.15188,-0.58239l1.11452,-2.0793l0.01124,0.00602l0.00759,-0.03981c1.36637,-2.18 2.00417,-5.52367 3.62655,-7.64859c-0.14208,-0.1961 -0.22584,-0.43722 -0.22584,-0.69791c0,-0.14218 0.02492,-0.27856 0.07063,-0.40498l0.74841,-2.23171l0.00166,0.00055l0.00032,-0.00638c0.78871,-2.27132 1.84923,-4.40176 2.6772,-6.65095c0.44986,-1.22206 0.93203,-3.73386 1.91934,-4.69391c0.04657,-0.04529 0.09419,-0.08922 0.14275,-0.13189l-0.01581,-0.016l1.51489,-1.49696c0.03789,-0.03748 0.07829,-0.07243 0.12091,-0.10458c0.11407,-0.47629 0.23629,-0.94754 0.52339,-1.31685c0.01862,-0.05155 0.0407,-0.10145 0.06596,-0.14941l1.05439,-2.10878c1.00503,-2.00986 1.73806,-3.52282 2.78543,-4.80874l0.56603,-1.13209l0.08653,0.04326c0.00344,-0.05674 0.00687,-0.11348 0.01031,-0.17022l0.00084,-0.03488c0.00045,-0.00045 0.0009,-0.00092 0.00135,-0.00137c0.00001,-0.00018 0.00002,-0.00038 0.00004,-0.00056l0.00048,0.00003c0.04435,-0.04503 0.08928,-0.08991 0.13479,-0.13454l-0.01125,-0.01125l1.03722,-1.03718c0.02834,-0.17422 0.09448,-0.33576 0.18974,-0.47591l1.29483,-1.96766c0.30981,-0.49147 0.57404,-0.93485 0.81237,-1.34376l0.21963,-0.56523c0.35226,-0.89484 0.71697,-1.64921 1.11558,-2.32659l-0.04223,-0.02815l0.54249,-0.81374c0.21977,-0.5508 0.42943,-1.05947 0.67766,-1.51834c-0.38631,-0.71929 0.24974,-1.35535 0.24974,-1.35535zM271.91922,294.15402c-0.41201,-1.15359 -0.82795,-2.30651 -1.24761,-3.45815c0.29923,1.17021 0.70382,2.32158 1.24761,3.45815z"></path>
        <path d="M280.23393,194.71622c0.35713,-0.66046 0.73853,-1.2916 1.18115,-1.83504c0.26374,-0.43485 0.52134,-0.87325 0.77337,-1.31424l0.04557,-0.03443l-0.01546,-0.01081l1.35568,-1.93784c0.21427,-0.315 0.57564,-0.52189 0.98532,-0.52189c0.65755,0 1.19062,0.53294 1.19083,1.19043c0.30358,0.21581 0.50162,0.5704 0.50162,0.97124c0,0.2311 -0.06583,0.44682 -0.17977,0.62945l-1.1331,1.88853l-0.33723,-0.20234c-1.02547,2.14064 -2.43265,3.94415 -4.11847,6.00188c-0.07619,0.093 -0.35265,0.42068 -0.72572,0.83182l-0.17354,0.26031c-0.11406,0.1766 -0.27357,0.32109 -0.46199,0.41692c-0.85547,0.87867 -1.87189,1.77938 -2.31226,1.62669c-0.04357,-0.01511 -0.08597,-0.03067 -0.12724,-0.04669c-0.49905,0.4616 -1.0145,0.90757 -1.54739,1.33631c0,0 -0.92988,0.74391 -1.67378,-0.18597c-0.7439,-0.92989 0.18597,-1.67378 0.18597,-1.67378c0.62473,-0.49663 1.22294,-1.02081 1.79683,-1.56882c0.32134,-1.74171 2.34765,-3.90865 2.88284,-4.75633l0.39234,-0.62114c0,0 0.5822,-0.92173 1.51442,-0.44426z"></path>
        <path d="M295.04877,175.13901c0.84205,0.84202 0.00003,1.68408 0.00003,1.68408l-0.78086,0.64471c-0.63511,0.25403 -1.27021,0.50807 -1.90532,0.76211c0,0 -1.10566,0.44227 -1.54791,-0.66339c-0.44225,-1.10566 0.6634,-1.54792 0.6634,-1.54792c0.63511,-0.25403 1.27022,-0.50807 1.90533,-0.7621l-0.01874,-0.11745c0,0 0.84203,-0.84206 1.68409,-0.00003z"></path>
        <path d="M276.29672,226.71026c-1.19083,0 -1.19083,-1.19083 -1.19083,-1.19083l0.08518,0.06122c-0.44939,-1.13102 -0.84327,-4.92605 -1.93839,-5.02851c0,0 -1.12973,-0.37656 -0.75315,-1.50628c0.06885,-0.20657 0.16288,-0.36278 0.27059,-0.48013l-0.49899,-0.74849c-0.37293,-0.49698 -0.74586,-0.99398 -1.11879,-1.49096c0,0 -0.66785,-0.89048 0.14873,-1.59527c0.05954,-0.60198 0.56736,-1.07218 1.18499,-1.07218c0.39456,0 0.74429,0.1919 0.96098,0.48743l1.13485,1.51317l-0.08982,0.06737l0.22427,0.16105c-0.00651,0.09085 -0.01302,0.18169 -0.01954,0.27254l0.10013,-0.02002l0.11658,0.58285c0.43655,0.52498 0.81198,1.21617 1.4631,1.85718l-0.44635,1.43266c0.71761,1.31348 0.80252,3.02159 1.47209,4.68308l0.08518,0.82332c0,0 0,1.19083 -1.19083,1.19083z"></path>
        <path d="M248.42121,125.67444c0.00382,-0.00044 0.00765,-0.00103 0.01147,-0.00148c0.8845,-0.10333 1.8092,-0.40499 2.5457,-0.81381l-0.11317,0.28333c-0.51603,0.59444 -1.09602,1.2579 -1.60255,1.83476c-0.01324,-0.17461 -0.08815,-0.38525 -0.1933,-0.59555c-0.17671,-0.35341 -0.41377,-0.59869 -0.64814,-0.70726z"></path>
        <path d="M151.68419,210.16812c-3.81802,1.26721 -6.0749,2.72856 -10.28424,2.72856c-6.27561,0 -8.96308,2.60624 -12.7974,7.18544c-1.29858,1.55085 -1.82215,4.2604 -3.72443,5.21183c-2.85611,1.42851 -2.68542,-0.4648 -3.90328,-2.25775c0,0 -0.00691,-0.01036 -0.01824,-0.02965c-0.33789,-0.21013 -0.56282,-0.58478 -0.56282,-1.01196c0,-0.49167 0.29797,-0.91374 0.72317,-1.09549c-3.17792,-9.91255 -5.56853,-21.40885 -2.22903,-31.5036c0.09649,-4.29539 1.90754,-8.04473 2.72029,-12.16623c0.64958,-3.29413 1.19589,-6.82373 2.72024,-9.87498c1.19611,-2.39425 2.92367,-4.5299 3.74772,-7.08763c0,0 0.12416,-0.37247 0.44376,-0.61838c-0.07924,-0.15945 -0.12381,-0.33918 -0.12381,-0.52931c0,-0.25023 0.07719,-0.48243 0.20904,-0.6741l0.7531,-1.12964l0.20902,0.13935l0.27684,-0.27684c0.32154,-0.42111 0.65892,-0.81158 1.00917,-1.17805c1.25508,-1.47729 2.92131,-2.64599 4.68347,-3.7061c0.94792,-0.65571 1.90104,-1.32686 2.82182,-2.09787c5.86634,-4.91207 12.24712,-7.52151 19.57467,-9.01127c2.25636,-0.45084 4.65199,-1.64691 6.90192,-1.91308c4.68853,-0.55465 9.42218,-1.14503 14.08153,-1.90229c2.74032,-0.44537 5.6236,-0.05724 8.30321,-0.74498c0,0 1.15528,-0.28882 1.4441,0.86646c0.28882,1.15527 -0.86647,1.44408 -0.86647,1.44408c-0.52229,0.12769 -1.05079,0.24139 -1.58446,0.34327c0.5483,0.10661 0.96221,0.58942 0.96221,1.1689c0,0.14142 -0.02465,0.27708 -0.06989,0.40294l-0.37226,1.11683c-0.31513,0.92159 -0.71732,1.82281 -1.16986,2.7089c-0.44949,1.11105 -1.1996,2.30306 -1.93613,3.38518c-0.66777,1.096 -1.33996,2.17841 -1.93944,3.2583c-2.40023,4.32375 -4.98617,9.01946 -8.4442,12.6823l0.15236,0.4571c0.44371,0.29723 0.48092,1.78341 0.46471,2.70121c0.16091,2.65368 1.12024,5.28541 1.12064,7.95808c0.00058,3.75316 -0.6895,8.53055 -2.40745,11.96115c-1.19464,2.38558 -3.20383,4.41099 -4.6517,6.61545c-1.71561,2.57162 -3.28091,5.24914 -4.86623,7.89974c-0.51335,0.99072 -1.07099,1.94119 -1.7209,2.83476c-0.01621,0.02612 -0.03241,0.05222 -0.04862,0.07833c0.00063,0.55748 -0.45464,0.88726 -0.62142,0.98934c-0.16197,0.25486 -0.32496,0.50883 -0.48911,0.76177l0.08683,0.06512l-1.13486,1.51315c-0.21669,0.29555 -0.56642,0.48742 -0.96097,0.48742c-0.24744,0 -0.47727,-0.07547 -0.66769,-0.20466c-1.69758,0.95606 -3.65903,1.33333 -5.8149,2.04887zM174.92517,157.99468c0.00531,0.01667 0.01029,0.0335 0.01488,0.05049c0.03394,-0.05 0.0678,-0.10009 0.10156,-0.15025c-0.03838,0.03267 -0.07719,0.06595 -0.11643,0.09976z"></path>
        <path d="M294.76634,166.92791c-0.12887,-0.0985 -0.25775,-0.19701 -0.38663,-0.29551c0.0412,0.16523 0.08102,0.33057 0.11941,0.49592zM289.35449,160.10981c0,0 -0.99082,-0.66054 -0.33028,-1.65138c0.01342,-0.02012 0.02696,-0.03956 0.04063,-0.05833c-1.2756,-3.34995 -2.72045,-6.5995 -4.31125,-9.80881c-1.40508,-2.83463 -1.58997,-5.90869 -5.02281,-7.01476c0,0 -0.08151,-0.02717 -0.19344,-0.08881c-0.25616,0.13325 -1.0215,0.43344 -1.56402,-0.38037c-0.66053,-0.99084 0.33029,-1.65138 0.33029,-1.65138c7.89953,-5.14076 21.40629,0.78456 28.11527,5.80719c2.17419,2.18189 4.90112,3.7128 7.24023,5.71597c3.86372,3.30882 7.95895,7.30775 12.63168,9.32604c1.88062,0.8123 4.34744,0.81088 6.39893,1.49472c1.26444,0.45196 2.33414,1.30619 3.38442,2.21144c3.18172,0.4873 6.23513,1.5941 8.70754,3.25903c3.18544,2.14508 4.65743,5.93181 5.80909,9.38206c0.80649,2.42519 0.94502,4.58445 1.19538,7.09023c0.22054,2.20727 0.941,4.29714 1.14805,6.52537c0.32148,3.45972 -0.41961,7.27675 -1.16061,10.61216c-0.72528,3.26466 -2.47699,6.22296 -3.48076,9.32992c-1.93966,4.812 -6.23284,8.30006 -10.32955,11.22626c-2.2078,1.57699 -4.16351,3.4334 -6.6512,4.67646c-3.21941,1.60869 -6.80318,2.85954 -9.77031,4.87492c-1.19869,0.79914 -2.38745,1.59791 -3.55693,2.43965l-0.54472,1.15294c0.02767,0.08967 0.32603,1.13979 -0.75509,1.50016c-1.12972,0.37657 -1.50628,-0.75315 -1.50628,-0.75315l-0.38106,-1.14319c-1.78157,-5.34438 -0.4422,-11.23538 -0.4422,-16.76235c0.01306,-2.57568 -0.44677,-5.90819 -1.74446,-8.16677c-0.36864,-0.64162 -0.49734,-1.55915 -1.1569,-1.89465c-1.53393,-0.78026 -2.98107,-0.66266 -4.37114,-2.05272c-2.19393,-2.19393 -2.65745,-5.44424 -1.3808,-7.95512c-0.01786,-0.04142 -0.03459,-0.08525 -0.05004,-0.13163c-0.13777,-0.4133 -0.07394,-0.7258 0.06242,-0.95593l-0.06242,-0.1873c-0.6864,-2.32084 -3.51899,-4.23403 -5.72497,-4.96281c-2.55379,-0.85786 -5.18367,-1.96064 -6.73343,-4.31431c-1.75549,-2.66616 -0.54372,-5.80619 -0.5589,-8.6284c-0.03034,-5.63863 -0.07784,-10.65346 -2.21373,-15.97618c-0.20029,-0.60007 -0.40603,-1.19639 -0.61708,-1.78928c-0.14986,-0.09898 -0.29971,-0.19796 -0.44956,-0.29693zM294.94322,185.05703c-0.01505,-1.61713 -0.02335,-3.22661 0.00752,-4.83388c-0.24185,1.51758 -0.68908,3.34452 -0.00752,4.83388z"></path>
        <path d="M285.1115,214.99808c0.02266,0.08846 0.03636,0.18051 0.04008,0.27512c0.16159,0 0.3232,0 0.48479,0c-0.17019,-0.09237 -0.34612,-0.18482 -0.52487,-0.27512zM282.99462,214.31312c0.05104,-0.04244 0.10532,-0.0811 0.16245,-0.11554c-0.1714,-0.04677 -0.33379,-0.08163 -0.48366,-0.10177c0.1057,0.05143 0.21327,0.12241 0.32122,0.2173zM273.52186,198.68905c0.75828,-0.52231 4.12565,-0.79602 5.19812,-1.12796c3.91817,-1.21275 6.75013,-3.12095 10.96866,-2.69779l0.1766,-0.55962c6.29281,-3.52321 12.87165,-5.54851 18.67453,0.23021c2.1735,2.3475 2.0377,4.42811 3.44088,7.17566c1.54083,3.01709 4.80717,5.10107 5.88777,8.23939c0.79396,2.30589 0.43945,3.84249 -0.00345,5.70679c0.92908,2.52343 0.88369,5.24195 0.34979,7.9923c-0.23203,6.29011 -1.89583,12.5711 -5.24532,17.47552c-0.86588,1.26783 -0.87193,3.03821 -1.85921,4.21398c-0.96382,1.14784 -2.47821,1.7104 -3.55602,2.75193c-5.17547,2.14787 -14.15827,6.43243 -19.79911,4.24941c-3.65587,-1.41483 -5.24574,-3.76382 -7.48984,-6.7028c-4.11817,-5.39335 -8.94478,-9.94923 -10.62415,-16.62773l-0.61641,-0.05817c0.02339,-2.60443 -0.28535,-4.41545 0.64114,-6.23452c-0.00432,-0.00253 -0.00863,-0.00509 -0.01294,-0.00766l-0.39992,-0.03595l0.02337,-0.26004c-0.2498,-0.25419 -0.4298,-0.58247 -0.50165,-0.95881c-0.06804,-0.35639 -0.03003,-0.70845 0.09192,-1.02362l1.19142,-3.246l0.21609,0.07932l0.03402,-0.54433c1.67043,-1.30272 3.26438,-1.91837 4.88936,-2.5614c-4.5477,-3.63066 -7.98032,-11.12539 -1.67567,-15.46813z"></path>
        <path d="M181.93717,229.46718c-1.74078,3.45942 -2.22647,7.19165 -3.64066,10.61587c-0.00035,0.05698 -0.00072,0.11401 -0.00114,0.17111c-0.84051,2.61712 -1.72462,5.65653 -3.81793,7.61316c-2.18543,2.04273 -4.9606,2.50378 -7.49572,1.84724c-0.13841,0.23354 -0.27896,0.3741 -0.27896,0.3741c-1.05841,1.05592 -1.98174,2.08254 -2.80468,3.19259c0.02444,0.3632 -0.06895,0.65688 -0.21322,0.89058c0.12405,0.23901 0.19415,0.51051 0.19415,0.79838c0,0.20611 -0.03592,0.40382 -0.10186,0.58722l-0.54252,1.62759c-0.87053,2.61163 -2.77455,7.33921 -5.99305,8.353c-1.4643,1.57615 -3.21419,2.59082 -5.42992,2.50252c-3.16556,2.08684 -6.55334,2.84314 -9.88827,2.61539c-0.42639,0.16039 -0.8528,0.32078 -1.27919,0.48117c-6.22521,-1.11622 -14.06267,-3.51516 -17.73966,-9.14583c-1.07215,-1.6418 -0.48463,-2.39103 -1.22152,-4.09764c-0.15396,-0.35654 -0.33086,-0.728 -0.52158,-1.11135c-0.25854,-0.39414 -0.47947,-0.81241 -0.64838,-1.26326c-0.00195,-0.00519 -0.00389,-0.01038 -0.00582,-0.01558c-1.09853,-2.12259 -2.30459,-4.48135 -2.30459,-6.64193c0,-2.58385 1.60133,-7.12057 2.23435,-9.65275c-0.0189,-2.91968 -0.96652,-6.10642 -0.54592,-8.95131c0.9211,-6.23026 7.49128,-8.99924 10.15008,-14.36788c1.63755,-3.30652 2.22744,-6.63273 5.94001,-8.07708c0.04305,-0.01781 0.06818,-0.02618 0.06818,-0.02618c0,0 0.00139,-0.00048 0.00411,-0.00134c2.93919,-0.94812 4.58508,-2.68829 7.9761,-2.29607c3.50923,0.4059 7.13069,3.27563 10.68264,2.77667c0.06109,-0.00859 0.12222,-0.01747 0.18339,-0.02665c4.71014,-1.48377 9.44605,-5.26113 14.19001,-3.85129c8.24152,0 16.18379,8.5442 15.89618,16.70708c-0.07618,2.16199 -1.50533,4.03407 -2.92359,5.84397l1.25757,0.82007c0,0 0,1.48854 -1.3786,1.70843zM163.73165,248.1606c0.00096,-0.00099 0.00189,-0.00197 0.00285,-0.00296c-0.00206,-0.00153 -0.00414,-0.00306 -0.0062,-0.00458c0.00113,0.0025 0.00225,0.00503 0.00335,0.00754zM161.24731,245.43748c-0.0085,0.01092 -0.01699,0.02185 -0.02548,0.03277c0.01638,0.00177 0.03269,0.00377 0.04894,0.006c-0.00785,-0.01291 -0.01568,-0.02583 -0.02346,-0.03877z"></path>
      </g>
    </g>
  </g>
</svg>
