<?xml version="1.0" encoding="UTF-8"?>
<svg xmlns="http://www.w3.org/2000/svg" xmlns:xlink="http://www.w3.org/1999/xlink" version="1.1" width="42.25001" height="49.3014" viewBox="0,0,42.25001,49.3014">
  <g transform="translate(-280.30001,-177.41778)">
    <g stroke-miterlimit="10">
      <path d="M281.55001,218.56346c0,-8.19671 0,-21.33449 0,-25.93856c0,-3.15646 3.96246,-6.90572 7.24258,-6.90572c4.56484,0 17.15947,0 25.26484,0c4.2337,0 7.24259,4.17767 7.24259,7.57945c0,4.78143 0,18.01273 0,25.93856c0,3.69143 -2.46733,6.23199 -7.57945,6.23199c-8.4341,0 -21.74693,0 -25.93856,0c-2.90293,0 -6.23199,-2.84716 -6.23199,-6.90572z" fill="#888888" stroke="#d1d1d1" stroke-width="2.5"></path>
      <g stroke="none" stroke-width="0">
        <path d="M292.47221,222.04383c-0.8146,-4.13565 -3.59169,-20.08667 -4.52635,-24.83188c-0.0624,-0.3168 -5.82881,-0.69356 -5.82881,-0.69356l10.67409,-6.27048l2.48278,21.99039l18.16539,-29.03726l3.28704,-3.38133l-5.3115,11.27382c0,0 -15.28546,28.72175 -15.25893,28.95671c0.14142,1.25262 -0.94643,3.14501 -1.53595,3.49872c-0.56405,0.33844 -1.8915,-0.20414 -2.14776,-1.50512z" fill-opacity="0.23529" fill="#000000"></path>
        <path d="M294.57358,220.68112c-0.8146,-4.13566 -3.59168,-20.08667 -4.52634,-24.83188c-0.0624,-0.3168 -5.82881,-0.69356 -5.82881,-0.69356l10.67408,-6.27048l2.48279,21.99039l18.16539,-29.03725l3.28704,-3.38134l-5.31151,11.27382c0,0 -15.28546,28.72175 -15.25894,28.95671c0.14143,1.25262 -0.94643,3.14501 -1.53595,3.49872c-0.56405,0.33844 -1.8915,-0.20415 -2.14776,-1.50513z" fill="#6aff1a"></path>
        <path d="M296.47883,219.64189c-0.8146,-4.13566 -3.59168,-20.08667 -4.52635,-24.83188c-0.0624,-0.3168 -5.82881,-0.69356 -5.82881,-0.69356l10.67408,-6.27048l2.48279,21.99039l18.16539,-29.03725l3.28704,-3.38133l-5.3115,11.27381c0,0 -15.28546,28.72175 -15.25893,28.95671c0.14143,1.25262 -0.94643,3.14501 -1.53594,3.49872c-0.56406,0.33844 -1.89151,-0.20415 -2.14776,-1.50513z" fill-opacity="0.23529" fill="#ffffff"></path>
      </g>
    </g>
  </g>
</svg>
