<?xml version="1.0" encoding="UTF-8"?>
<svg xmlns="http://www.w3.org/2000/svg" xmlns:xlink="http://www.w3.org/1999/xlink" version="1.1" width="96.53422" height="74.48401" viewBox="0,0,96.53422,74.48401">
  <g transform="translate(-257.29799,-213.71078)">
    <g stroke="none" stroke-width="0.5" stroke-miterlimit="10">
      <g>
        <path d="M265.21036,219.56022l-0.57277,0.01547c-0.00243,-0.01093 -0.09657,-0.09262 -0.09902,-0.10356c3.07424,0.06799 4.89504,0.76864 7.88183,1.80964c1.54978,0.54015 3.48772,0.5429 4.78261,1.55131c1.58668,1.23566 2.02159,5.26859 2.62597,6.98714c0.22341,0.63527 0.76289,1.20008 0.75372,1.87343c-0.01647,1.20924 -0.6639,2.28706 -1.22406,3.39289l-1.66875,-0.62035c0,0 -1.37626,1.33711 -0.79246,2.95722c-0.86597,2.29439 -1.75787,4.7437 -1.99978,6.91253c-0.19518,1.74986 -0.50039,3.62069 0.11242,5.27132c0.55214,1.48718 2.17738,2.30517 3.16792,3.54426c0.83221,1.04103 1.21073,2.48694 2.28967,3.26938c4.01094,2.90875 4.46523,1.12036 8.58782,0.68209c5.81207,-0.61788 10.70521,-1.86341 16.31618,-3.64916c0,0 2.42205,-0.70726 1.93346,-3.13888l0.81854,-0.42571c1.35591,-4.02002 4.01554,-7.68611 6.322,-11.24944c0.4359,-0.67344 0.65627,-1.68022 1.29678,-2.16319c0.63309,-0.47736 1.58969,-0.25391 2.30661,-0.59258c2.78653,-1.3164 7.57258,-4.31571 10.84076,-4.1842c0.82637,0.03325 1.48992,0.79208 2.30637,0.92394c1.55881,0.25176 4.80899,-0.33244 6.44577,0.68176c1.8686,1.15785 6.09931,5.43807 7.15312,7.35841c1.05448,1.9216 0.7355,4.39069 1.68728,6.36518c0.41803,0.86723 1.41035,1.44106 1.65132,2.37314c0.28717,1.11083 -0.09962,2.29721 -0.14942,3.44348c-0.91974,3.4769 -0.50715,7.139 -1.84008,10.45989c-0.93234,2.32284 -1.89594,4.71489 -3.43523,6.68858c-1.07464,1.37791 -2.6977,2.27521 -3.7606,3.6622c-0.749,0.97739 -0.71795,2.4763 -1.60045,3.33507c-0.88251,0.85878 -2.36161,0.81224 -3.37645,1.50968c-1.0248,0.70429 -1.61723,1.94051 -2.64938,2.63398c-2.32057,1.55913 -6.20421,1.34823 -8.69986,1.3096c-3.20694,-0.04964 -7.4325,0.15176 -10.11604,-2.1875c-1.75167,-1.52695 -3.25535,-4.94124 -4.5642,-7.18275c0.15972,-0.48607 0.18325,-1.08592 -0.04981,-1.81819c-0.87827,-2.75959 -3.64868,-1.88106 -3.64868,-1.88106l-2.34591,0.78281c-2.73669,-0.05536 -5.46552,0.54542 -8.19226,0.78501c-3.66156,0.32172 -7.62284,-0.13507 -11.31173,-0.14279c-4.72839,-1.72881 -11.71179,-4.61485 -14.57087,-9.07874c-1.35751,-2.11948 -1.71813,-6.27425 -2.34845,-8.59983c-0.53425,-1.97114 -1.4536,-4.01286 -1.67713,-6.06304c-0.27183,-2.49317 0.40092,-5.04483 0.08862,-7.53324c-0.11194,-0.89191 -0.87367,-1.65864 -0.86264,-2.55749c0.01061,-0.86684 1.9053,-8.85033 1.98493,-9.66691c0.23615,-2.4215 0.12037,-4.92109 -0.36226,-7.32229c0.35302,-0.21248 0.56456,-0.41849 0.56456,-0.41849z" fill="#e36f00"></path>
        <path d="M304.37649,253.94326c0.29703,-3.91692 1.14386,-7.69743 2.71076,-10.68425c3.15402,-6.01215 9.49417,-9.74783 15.85041,-11.48712c0.20631,-0.05645 7.83152,-1.849 7.89533,-1.83987c0.11827,0.01693 0.23595,0.03621 0.35309,0.05763l0.00101,-0.07451l3.70652,0.05049c1.59925,0.02178 2.87806,1.3359 2.85627,2.93516c-0.01774,1.30261 -0.89285,2.39261 -2.08108,2.74039l-2.23373,0.7109c-4.70236,4.82232 -7.30315,8.97422 -10.05992,15.07042c-0.50612,1.11921 -1.47667,2.04392 -1.75477,3.24036c-0.32619,1.40338 0.17178,2.89226 -0.00309,4.3224c-0.48262,3.94686 -2.35663,9.60141 -1.2149,13.61908c0.26316,0.92606 1.23305,1.50246 1.65108,2.36969c0.79194,1.64292 1.57433,5.42944 1.96515,7.08441c0,0 0.66404,2.81882 -2.15479,3.48286c-0.70986,0.16721 -1.28308,0.11357 -1.74345,-0.06031c-0.46076,0.11676 -0.8133,0.11196 -0.8133,0.11196l-1.84031,-0.1737c-1.04059,-0.37174 -2.08119,-0.74347 -3.12178,-1.11521c-4.45669,-3.10659 -6.10346,-6.61496 -7.39144,-10.96024c-2.60976,0.44655 -3.2345,-2.20536 -3.2345,-2.20536c-0.61511,-3.77997 -2.07864,-3.61237 -5.20568,-5.77793c-3.22395,-2.23268 -7.16971,-3.66825 -11.11506,-4.82088c-1.74795,0.19833 -3.40377,0.144 -4.55308,-0.54438c-0.1922,-0.11512 -0.37831,-0.23788 -0.55908,-0.36736l-0.0675,0.13054l-3.62555,-1.87493c-0.97314,-0.47765 -1.6369,-1.48464 -1.62115,-2.64061c0.02179,-1.59925 1.33589,-2.87805 2.93516,-2.85627c0.3439,0.00468 0.67298,0.06912 0.97751,0.18331l2.62467,0.91478c1.13734,0.30088 2.29231,0.60793 3.45303,0.93106c0.96572,0.06597 2.08315,0.20615 3.57472,0.00663c4.52038,-0.60466 8.99691,-2.54353 13.4368,-0.63256c0.12754,0.05489 0.26242,0.10562 0.40266,0.15342zM323.75216,238.91246c0.41015,-0.56813 0.83471,-1.12851 1.27589,-1.68395c-0.18494,0.03632 -0.36748,0.0778 -0.5469,0.1259c-0.31389,0.08416 -0.62898,0.17419 -0.94435,0.27028l-0.08165,0.23424c0.16186,0.32175 0.26541,0.67762 0.29699,1.05352zM312.39641,261.49926c-0.16884,0.16132 -0.3571,0.30239 -0.56083,0.41936c0.1553,0.06783 0.31028,0.13667 0.46443,0.20703c0.02999,-0.20786 0.06223,-0.41672 0.09642,-0.6264z" fill="#9f4d00"></path>
        <path d="M264.69188,220.0138c0.48264,2.40121 0.60227,4.89506 0.36612,7.31656c-0.07964,0.81658 -1.96929,8.78902 -1.97992,9.65585c-0.01101,0.89884 0.75155,1.66284 0.8635,2.55474c0.3123,2.48842 -0.35861,5.03014 -0.08678,7.5233c0.22352,2.05018 1.14307,4.0834 1.67733,6.05454c0.63033,2.32557 0.98886,6.46757 2.34637,8.58704c2.85908,4.46389 9.83084,7.32808 14.55923,9.05689c3.6889,0.00772 7.63573,0.4523 11.29729,0.13058c2.72674,-0.23958 5.43676,-0.8475 8.17345,-0.79214l2.33913,-0.78369c0,0 2.75958,-0.87828 3.63785,1.88131c0.23306,0.73227 0.20996,1.33206 0.05024,1.81814c1.30885,2.24151 2.80538,5.65704 4.55704,7.18399c2.68354,2.33927 6.89485,2.14335 10.10178,2.19299c2.49565,0.03863 6.3693,0.25645 8.68986,-1.30268c1.03215,-0.69347 1.6206,-1.92593 2.64541,-2.63022c1.01484,-0.69744 2.49072,-0.64728 3.37324,-1.50606c0.8825,-0.85877 0.84835,-2.35353 1.59736,-3.33091c1.0629,-1.38699 2.68234,-2.27813 3.75698,-3.65604c1.53929,-1.97369 2.49905,-4.35617 3.43139,-6.67901c1.33294,-3.32088 0.91796,-6.96868 1.83769,-10.44559c0.0498,-1.14627 0.43658,-2.32797 0.14941,-3.43879c-0.24097,-0.93209 -1.23306,-1.50249 -1.65108,-2.36972c-0.95177,-1.97449 -0.63113,-4.43443 -1.6856,-6.35603c-1.05379,-1.92034 -5.2792,-6.18736 -7.1478,-7.3452c-1.63678,-1.01421 -4.88331,-0.42424 -6.44212,-0.67601c-0.81646,-0.13186 -1.47756,-0.88751 -2.30392,-0.92076c-3.26818,-0.13151 -8.04646,2.87552 -10.83299,4.19192c-0.71692,0.33867 -1.66988,0.11799 -2.30298,0.59534c-0.64053,0.48296 -0.79406,1.39513 -1.22996,2.06856c-2.30647,3.56331 -4.94741,7.25178 -6.30332,11.27179l-0.81811,0.42665c0.48858,2.43162 -1.99012,3.22049 -1.99012,3.22049c-5.61097,1.78574 -10.55469,2.99327 -16.36676,3.61114c-4.12259,0.43827 -4.57912,2.21887 -8.59006,-0.68988c-1.07894,-0.78245 -1.45856,-2.23605 -2.29077,-3.27708c-0.99054,-1.23909 -2.61587,-2.06424 -3.168,-3.55142c-0.61282,-1.65063 -0.30631,-3.53112 -0.11113,-5.28098c0.24191,-2.16881 1.13812,-4.6306 2.00409,-6.92499c-0.5838,-1.6201 0.795,-2.96197 0.795,-2.96197l1.66907,0.61984c0.56016,-1.10583 1.21128,-2.18897 1.22775,-3.39821c0.00917,-0.67335 -0.52921,-1.23953 -0.75262,-1.8748c-0.60438,-1.71856 -1.03568,-5.75546 -2.62236,-6.99112c-1.29487,-1.00841 -3.14881,-0.93146 -4.6986,-1.47161c-2.98678,-1.041 -4.80476,-1.74503 -7.879,-1.81302c0.00244,0.01092 0.00489,0.02186 0.00732,0.0328l0.66424,0.0556c0,0 -0.21108,0.2054 -0.5641,0.41787zM282.2385,240.10085c-0.26678,0.9364 -0.52873,1.87439 -0.81173,2.80561c-0.1963,0.6459 -1.56924,3.60174 -1.09379,4.55456c0.46373,0.92928 1.65382,1.28405 2.31601,2.08412c0.57184,0.69091 0.73272,1.67318 1.34003,2.33315c0.93739,1.01868 4.34675,-0.50897 4.38273,-0.51317c4.73921,-0.55316 8.79515,-1.43066 13.25866,-2.76151c0.11077,-1.45165 0.98521,-2.09314 1.74919,-2.37654c1.60804,-3.8355 3.93151,-7.56723 6.32477,-10.91253c0.83089,-1.16141 1.43303,-2.55391 2.55229,-3.44077c0.91138,-0.72215 2.23854,-0.66904 3.28202,-1.18214c3.63991,-1.78987 9.08377,-4.73583 13.3855,-4.74617c1.12808,-0.00271 2.1154,0.83807 3.23057,1.00818c2.7916,0.42585 5.9075,-0.02307 8.35864,1.37919c2.35017,1.34448 7.98766,7.19624 9.30431,9.56128c0.54746,0.98337 1.11475,5.16054 1.84421,6.66717c0.55162,1.13931 1.70669,2.00456 1.9797,3.24058c0.41895,1.89678 0.01545,3.88498 0.02319,5.82747c-1.05129,3.97425 -0.68933,7.86511 -2.17175,11.74296c-0.10964,0.28679 -4.05117,7.87268 -4.1836,8.04602c-1.06081,1.38858 -2.68552,2.27564 -3.75698,3.65603c-0.93969,1.21064 -1.1118,2.96276 -2.21013,4.03157c-1.09834,1.06881 -2.83453,1.22098 -4.09029,2.09949c-1.12894,0.78978 -1.82356,2.12062 -2.99007,2.8538c-3.40008,2.13702 -7.97638,2.17164 -11.74639,2.12615c-4.876,-0.05883 -9.93685,-0.32272 -13.91483,-3.69492c-2.22049,-1.88235 -4.12254,-6.08864 -5.74338,-8.69032l-0.09915,0.03035c-2.85717,-0.02179 -5.68405,0.5926 -8.53109,0.83389c-4.13405,0.35037 -8.64105,-0.10375 -12.79498,-0.19759c-6.41588,-2.15719 -14.64241,-5.827 -18.52162,-11.78325c-1.6891,-2.5935 -2.16966,-7.10178 -2.96094,-10.02122c-0.75394,-2.78168 -1.50005,-3.84752 -1.85249,-6.96872c-0.27317,-2.41918 0.4355,-4.88938 0.11517,-7.30277c-0.13881,-1.04585 -0.92957,-1.97529 -0.91406,-3.03019c0.09299,-6.32596 3.42445,-11.51609 1.30942,-17.82881c0,0 -0.87829,-2.75959 1.88129,-3.63787c0.15403,-0.04903 0.30221,-0.08671 0.4447,-0.11418c0.15839,-0.21354 0.28294,-0.33474 0.28294,-0.33474l2.99836,-1.73423c4.72235,0.10668 8.52512,1.45798 12.92194,3.105c1.20914,0.45293 2.61599,0.58958 3.60316,1.42182c2.61196,2.20201 5.63599,10.00274 5.58835,13.49942c-0.00802,0.58904 -1.77159,5.53449 -2.09003,6.44815c0,0 -0.54667,1.56852 -1.99989,1.91571z" fill="#000000"></path>
      </g>
    </g>
  </g>
</svg>
