<?xml version="1.0" encoding="UTF-8"?>
<svg xmlns="http://www.w3.org/2000/svg" xmlns:xlink="http://www.w3.org/1999/xlink" version="1.1" width="115.22178" height="115.22177" viewBox="0,0,115.22178,115.22177">
  <g transform="translate(-182.38911,-122.38918)">
    <g stroke-miterlimit="10">
      <path d="M296.36088,223.24582c0,7.9788 -6.32551,13.11514 -12.47226,13.11514c-13.06451,0 -62.8835,0 -87.00577,0c-8.05426,0 -13.24374,-6.26142 -13.24374,-15.68675c0,-24.44785 0,-70.18266 0,-83.14837c0,-6.73371 5.74984,-13.88665 14.52954,-13.88665c24.30136,0 71.81534,0 84.86278,0c6.50435,0 13.32946,6.6496 13.32946,13.02945c0,13.23182 0,62.66727 0,86.57718z" fill-opacity="0.34118" fill="#909090" stroke-opacity="0.45882" stroke="#000000" stroke-width="2.5"></path>
      <path d="M208.85868,170.99297c-0.29315,-0.22876 -0.48164,-0.58538 -0.48164,-0.98603c0,-0.24259 0.06911,-0.46904 0.18871,-0.66074l0.20596,-0.34326c-0.68944,0.44843 -1.37435,0.86779 -2.0817,1.26695l0.0876,0.0876l-0.46273,0.46273c0.74959,0.10782 1.49854,0.21708 2.2461,0.333c0.0968,-0.07073 0.19954,-0.12244 0.29771,-0.16024zM204.6527,163.85811c0.13865,0.10549 0.26124,0.21625 0.369,0.33162c0.09985,-0.04483 0.19881,-0.08826 0.29715,-0.13033c-0.20864,-0.15569 -0.41821,-0.29096 -0.62914,-0.39909c-0.06645,0.03335 -0.133,0.06653 -0.19965,0.09957c0.05611,0.02599 0.11042,0.05849 0.16264,0.09822zM212.73736,166.60428c0.14685,-0.08419 0.29305,-0.16502 0.43559,-0.24236c-0.11523,-0.04366 -0.22162,-0.0987 -0.3195,-0.16396zM217.27461,168.59486c0.0127,-0.01239 0.02542,-0.02474 0.03817,-0.03704c-0.01363,0.00077 -0.02725,0.00135 -0.04086,0.00175c0.00106,0.01172 0.00196,0.02348 0.00269,0.03528zM218.46696,167.68118c0.18562,-0.14238 0.41234,-0.23386 0.65929,-0.25357c-0.1408,-0.32617 -0.25757,-0.65689 -0.32308,-0.98629c-0.00509,0.01047 -0.01027,0.02043 -0.01553,0.02986c-0.22715,0.40662 -0.37274,0.97905 -0.60221,1.42115zM222.87704,168.94026c0,0.14845 -0.02588,0.29086 -0.07337,0.42296l-0.03372,0.10118c0.44184,1.77894 0.54754,3.60162 0.059,5.41927c0,0 -0.04216,0.14755 -0.14863,0.32449c0.72653,0.20696 1.34738,0.47535 1.71143,0.86259c0.85288,0.9072 0.56972,2.69006 1.76958,3.64317c2.99665,2.3804 6.61353,0.85729 8.62298,-1.68785l2.22608,1.04753c0,0 0,0.99321 -0.88533,1.20896c-3.00825,3.14328 -7.69827,4.32004 -11.56561,1.35073c-1.42409,-1.0934 -1.23515,-2.73737 -1.96374,-3.82351c-0.14105,-0.21026 -0.50766,0.12048 -0.75615,0.07194c-0.59717,-0.11664 -1.21297,-0.26317 -1.82842,-0.43247l0.15824,0.11337c1.10767,0.09109 1.10767,1.2443 1.10767,1.2443l-0.00608,1.4565c-1.01218,5.06099 -2.51996,12.75253 -7.56484,15.6332c-2.771,1.58227 -5.69135,1.76429 -8.73558,1.48754c-1.69434,-0.15403 -2.8701,-0.19342 -4.48032,-0.84016c-5.88483,-1.03253 -5.81283,-6.38666 -6.7573,-11.10072c-0.47699,-2.38078 -1.56071,-4.58715 -1.06665,-7.13943c0.3576,-1.84735 1.56643,-3.30376 1.86838,-5.07542c0,0 0.24514,-1.22573 1.47087,-0.98058c0.20494,0.04099 0.36876,0.10939 0.49948,0.19488c0.468,-0.1416 0.91419,-0.2242 1.34542,-0.25982c-0.14189,-0.0739 -0.26782,-0.17422 -0.37126,-0.29445c-0.27869,0.19014 -0.68239,0.30083 -1.21112,0.03648c-0.23578,-0.11789 -0.39698,-0.26064 -0.50456,-0.41253c-0.36082,-0.04639 -0.72382,-0.0811 -1.09051,-0.1001c-0.1002,0.04174 -0.35121,0.13089 -0.6407,0.11772c-3.0201,7.0582 -3.05064,18.86813 2.54711,24.46588c4.56728,3.40854 13.29858,4.42388 18.14507,0.49239c2.6015,-2.11034 4.37685,-5.59242 6.07351,-8.41626c0.53036,-1.04389 0.77672,-1.89513 0.99571,-2.89995c-0.36126,-0.73836 0.28284,-1.38243 0.28284,-1.38243l0.03215,0.01167c0.08109,-0.13459 0.19991,-0.26807 0.36841,-0.39445c1.00001,-0.74999 1.75,0.25002 1.75,0.25002c1.87502,2.55749 5.52899,3.4293 8.56801,2.76844c0.06087,-0.18785 0.12083,-0.37038 0.17946,-0.54707c0,0 0.39529,-1.18585 1.58114,-0.79056c0.58079,0.1936 0.78231,0.57683 0.83675,0.91751c0.1277,0.08896 0.24914,0.21547 0.35501,0.39192c0.31208,-1.90296 0.77344,-3.78853 1.51901,-5.65448c0,0 0.46423,-1.1606 1.62483,-0.69637c0.09189,0.03675 0.17359,0.07787 0.24614,0.12243c0.89158,-0.1558 1.74054,-0.23275 2.56985,-0.25519c-1.96846,-0.57614 -3.93402,-1.14892 -5.88573,-1.47365c0,0 -1.23299,-0.2055 -1.02749,-1.4385c0.07765,-0.46588 0.30199,-0.7264 0.55109,-0.87022c0.04111,-0.17109 0.09721,-0.28329 0.09721,-0.28329c0.58218,-1.14113 1.3633,-2.30584 2.26321,-3.39848c0.1035,-0.47485 0.50481,-0.77584 0.50481,-0.77584c0.18136,-0.13602 0.36272,-0.27204 0.54408,-0.40806c0.92576,-0.97185 1.9314,-1.84709 2.94877,-2.54438c2.88348,-1.97629 4.5406,-0.71057 4.77892,1.974c0.11066,0.10382 0.20241,0.22756 0.26953,0.36549c0.04067,-0.04842 0.08029,-0.09215 0.11316,-0.11675c0.43745,-0.32741 0.86554,-0.67157 1.33482,-0.95144c1.0597,-0.632 2.09272,-1.31311 3.07953,-2.05379c2.51096,-1.88467 4.38746,-3.75176 7.57571,-4.17291c2.04155,2.23116 2.79006,3.72113 1.85227,6.05627c1.43361,-0.37158 3.55609,-0.16991 4.53005,-0.25901c4.61915,-0.42258 7.82397,2.60851 6.33437,6.92926c1.59826,-1.80758 3.05038,-3.74103 4.53689,-5.65462c1.45265,-1.87 3.0582,-4.69932 5.02491,-6.08955c3.10434,-2.1944 6.02214,-0.10847 7.89368,2.37548c2.08985,2.91702 1.94142,9.82395 -0.54118,12.71036c-1.69775,1.97389 -4.30146,1.50868 -5.56092,-0.70387c-0.79387,-1.39463 -0.38091,-3.43593 -0.0889,-5.26027c-1.85329,2.29172 -3.70486,4.58196 -5.52667,6.92229l-1.43664,1.53595c0,0 -0.70169,0.74926 -1.5123,0.25392c-0.33059,2.23692 -2.90095,4.98156 -4.25006,6.02498l-1.37492,-0.11094l-0.01601,0.68942c-0.86215,4.06388 -3.09168,9.39194 -5.89748,12.59203c-4.26625,4.86578 -11.65968,6.00674 -17.58476,6.00674c-4.63855,-0.92514 -11.3107,-3.01416 -13.54318,-7.64927c-1.42171,-2.95178 -0.68055,-7.42529 0.31306,-11.08021c-2.85641,0.28048 -5.82537,-0.4302 -8.07621,-2.18103c-0.22878,0.78296 -0.51658,1.54093 -0.9414,2.40143c-1.86383,3.11041 -3.83538,6.89462 -6.72649,9.18375c-5.86458,4.64347 -15.79274,3.59077 -21.3216,-0.57426c-6.21779,-6.21779 -6.65995,-18.52218 -3.48947,-26.64886c-0.18745,-0.15937 -0.34143,-0.40586 -0.39565,-0.78537c-0.12722,-0.89056 0.47804,-1.23176 0.82737,-1.35307c0.41821,-0.5442 0.85136,-1.07467 1.31118,-1.54689c-0.12239,-0.79059 -0.0451,-1.79104 0.2613,-2.63986c0.03635,-0.49241 0.13201,-0.97705 0.32191,-1.44263c1.4128,-3.46373 3.9138,-3.71546 5.54295,-0.5919c0,0 0.04633,0.11582 0.07313,0.28891c0.015,0.03079 0.02934,0.06228 0.04303,0.09445c0.3287,-0.20288 0.66049,-0.40231 0.99472,-0.59911c0.46318,-0.67181 0.69256,-1.26851 1.86657,-1.57253c0.06981,-0.01808 0.13883,-0.03452 0.20709,-0.04937c2.51041,-1.51053 4.8832,-2.94347 7.46523,-4.00751c0.0806,-0.41598 0.37243,-0.70782 0.37243,-0.70782c1.3832,-1.37055 2.8603,-2.29664 4.35031,-3.54306l0.77454,-0.42442c0,0 0.78904,-0.39452 1.37283,0.14216c0.57759,-0.03203 1.18643,-0.12637 1.55545,0.25728c1.99017,2.06913 0.92108,4.82684 0.13826,7.23567c-0.08217,1.01487 -0.24969,2.09792 -0.58617,3.08031c0.47017,-0.39786 1.02296,-0.60682 1.60147,-0.40499c0.98479,0.34357 1.19999,1.71699 1.65496,2.65553c0.40453,0.8345 0.77678,1.6894 1.08501,2.55873c0.35268,0.22099 0.5872,0.61311 0.5872,1.06001zM216.60859,172.6143l-0.25967,0.23082c0.24897,0.07752 0.49746,0.15796 0.74545,0.24152c-0.17236,-0.14749 -0.33387,-0.30549 -0.48577,-0.47234zM213.37625,158.7507c0.09332,0.03681 0.19896,0.11833 0.3135,0.23542c0.35058,-0.14974 0.96699,-0.2674 1.47065,0.40415c0.24718,0.32957 0.30428,0.63199 0.26973,0.88936c0.16326,-0.169 0.34562,-0.25881 0.52386,-0.30039c0.05743,-0.19755 0.11859,-0.40983 0.18107,-0.6315c-0.00473,-0.34874 -0.02194,-0.76359 -0.02467,-1.34081c0,0 0,-0.78816 0.62585,-1.11279c0.23642,-1.2623 0.23826,-2.2234 -0.44252,-1.90388c0,0 -0.129,0 -0.30413,-0.04144c-0.55609,0.446 -1.11264,0.85374 -1.66046,1.26648c0.00961,0.06247 0.0146,0.12647 0.0146,0.19163c0,0.41416 -0.20142,0.78127 -0.51164,1.00873l-1.05503,0.79127c0,0 0,0 0,0c-0.125,0.09375 -0.24985,0.18778 -0.37461,0.28202c0.29413,0.03646 0.61786,0.12136 0.97382,0.26175zM218.42691,174.29844c0.25087,0.07811 0.53555,0.14732 0.84193,0.21224c-0.25606,-0.15393 -0.51016,-0.32712 -0.75774,-0.48991zM263.22706,179.79026c-0.69036,0 -1.25,-0.55964 -1.25,-1.25c0,-0.20994 0.05176,-0.4078 0.14321,-0.5815l0.08837,-0.17673c-1.04421,0.82372 -2.04808,1.44693 -3.54609,1.92075c1.79028,0.12246 3.57641,0.27404 5.32685,0.49033c-0.08994,-0.16909 -0.14219,-0.3613 -0.14551,-0.56539c-0.182,0.10346 -0.39251,0.16254 -0.61683,0.16254zM258.69804,177.30245c-0.29287,0.24775 -0.58596,0.48259 -0.89433,0.70994c-0.04224,0.05172 -0.08255,0.10131 -0.12076,0.14865l0.22425,0.26163l-1.33933,1.148c0.46121,0.02712 0.92295,0.05525 1.3847,0.085zM253.97706,179.0736c0,-0.32205 0.12179,-0.61565 0.32182,-0.83726l1.19884,-1.33987c0.21041,-0.28152 0.42113,-0.5628 0.63175,-0.84416c-0.68919,0.63661 -1.42713,1.27571 -2.16277,1.76105c-0.32953,0.41311 -0.63281,0.79709 -0.89064,1.14048l-0.07644,0.03918l0.02141,0.02093l-0.33011,0.33778c0.44382,0.02568 0.88961,0.05068 1.33688,0.07557c-0.03302,-0.11215 -0.05074,-0.23085 -0.05074,-0.3537zM247.84402,178.03442l-0.4841,0.53788c-0.07351,0.08236 -0.15777,0.15493 -0.25058,0.2155c0.41128,0.08289 0.82181,0.156 1.23134,0.21693c-0.29508,-0.22305 -0.48811,-0.57396 -0.49666,-0.97032zM245.17705,177.74026c0,-0.24767 0.07203,-0.47852 0.19629,-0.67274l0.33429,-0.54226c-0.56007,0.36216 -1.11553,0.6816 -1.72468,0.96373l0.15389,0.25648l-0.35082,0.21049c0.52322,0.14919 1.04626,0.29311 1.56863,0.42689c-0.11276,-0.18778 -0.17759,-0.40761 -0.17759,-0.64258zM241.05666,176.88633l0.16844,-0.33235l-0.45967,0.32833c-0.06669,0.0489 -0.13841,0.09135 -0.21424,0.12642c0.13592,0.0391 0.27189,0.07852 0.40791,0.11818c0.02425,-0.08418 0.05711,-0.16471 0.09756,-0.24058zM203.82739,173.60229c1.60045,0.49399 3.66306,0.30214 5.35585,0.80646c2.64348,0.78756 5.20447,1.46581 7.84286,2.02347c-0.22091,-0.12621 -0.63505,-0.43229 -0.66727,-0.96617c-4.91912,-1.70594 -10.08691,-2.04268 -15.17183,-2.88786c-0.72506,-0.12051 -1.43038,-0.27233 -2.1267,-0.42663c-0.0245,0.01442 -0.04954,0.02804 -0.07507,0.0408c1.61142,0.15462 3.08685,0.86814 4.84216,1.40994zM258.16332,167.22636l0.29124,-0.14621c-0.10824,-0.28324 -0.26129,-0.59638 -0.45535,-0.96538c-0.27905,0.16469 -0.55338,0.33557 -0.82387,0.51145c0.41919,0.02702 0.78211,0.26067 0.98798,0.60014zM263.41039,172.40693c0,0.14846 -0.02588,0.29087 -0.07337,0.42297l-0.31632,0.94896l0.92248,-0.92248c0.22621,-0.22621 0.53871,-0.36612 0.88388,-0.36612c0.66288,0 1.20524,0.51598 1.24737,1.16821l0.26875,-0.26875c0.22621,-0.22621 0.53871,-0.36612 0.88388,-0.36612c0.42404,0 0.79876,0.21114 1.02477,0.53402c0.0139,-0.00046 0.02787,-0.00069 0.04188,-0.00069c0.57553,0 1.06022,0.38896 1.20553,0.91835c0.08495,-2.54724 -3.50755,-2.89679 -6.18264,-2.54427c0.06045,0.14669 0.09379,0.30741 0.09379,0.47591zM265.47956,185.0689c-0.05823,0.17469 -0.13362,0.31507 -0.21985,0.42746l-0.00693,0.22238c-0.35555,1.77778 -0.7111,3.55557 -1.06667,5.33334c-0.49392,2.46965 -0.89081,4.97234 -2.31549,7.10963c-1.89884,2.8486 -4.21779,4.51032 -7.47383,5.07266c-1.09367,0.18888 -1.9601,1.06329 -2.98127,1.57958c3.60967,-0.63429 7.1864,-2.00197 9.54997,-4.71085c2.43186,-2.78715 4.65105,-7.85602 5.30251,-11.40797l-0.02427,-0.55487c0,0 0,-1.25 1.25,-1.25c0.05658,0 0.1106,0.00256 0.16218,0.00745c0.0157,-0.03814 0.03337,-0.07697 0.05314,-0.11651c0.0959,-0.19179 0.20826,-0.33423 0.3286,-0.43861c-0.01202,-0.00568 -0.0241,-0.01156 -0.03625,-0.01763c-1.11804,-0.55901 -0.55903,-1.67705 -0.55903,-1.67705l0.6691,-1.09293c-0.05455,-0.10017 -0.1091,-0.20035 -0.16366,-0.30052l-0.69923,-0.0218c-1.91636,-0.39309 -3.91758,-0.64821 -5.95085,-0.83201c0.79425,0.31589 1.59732,0.61345 2.44114,0.78056l0.95014,0.30655c0,0 1.18585,0.3953 0.79055,1.58115zM257.65734,183.76771c-2.86252,-0.55391 -6.03451,-0.48782 -8.95346,-0.78353c-3.4113,-0.34558 -6.10348,-0.96385 -9.49836,-0.28485c0,0 -0.00119,0.00024 -0.00349,0.00066c-1.35421,3.86437 -1.91622,8.35181 -1.92499,12.37361c-0.00297,1.36085 -0.60339,3.51026 -0.13197,4.77432c0.2633,0.706 3.78499,1.28306 4.41288,1.53176c2.57111,1.04026 5.71769,2.12477 8.51291,1.29575c1.47297,-0.43686 2.29085,-1.55137 3.85313,-1.89595c2.60322,-0.57416 4.25712,-1.59075 5.8595,-3.99399c1.23594,-1.85365 1.52165,-4.07616 1.95115,-6.22371c0.3365,-1.68239 0.67297,-3.36479 1.00944,-5.04719c-1.74076,-0.4608 -3.36892,-1.41448 -5.08675,-1.74688zM240.62948,203.70087c-0.57571,-0.23294 -1.2701,-0.40125 -1.98129,-0.58781c2.25399,1.09994 4.81414,1.77747 6.83537,2.1833c0.1591,0 0.3197,-0.00092 0.48167,-0.00284c-1.84589,-0.29453 -3.66499,-0.93089 -5.33574,-1.59265zM234.78313,196.28376c0.27875,-2.78755 0.39286,-5.54757 0.733,-8.27356c-0.14245,0.12095 -0.2634,0.18143 -0.2634,0.18143l-0.44083,0.21153c-0.63604,2.27413 -1.00151,4.53635 -1.00151,6.9371c0,0.91957 -0.32264,2.84815 0.14969,3.73871c0.19317,0.36422 0.4225,0.70941 0.68264,1.03651c-0.1984,-1.21412 0.04717,-2.89924 0.14041,-3.83172zM218.20197,179.15615c-3.33966,-0.46908 -6.48158,-1.36885 -9.73109,-2.35103c-1.70006,-0.51385 -3.6737,-0.31347 -5.31082,-0.79353c-2.01946,-0.59217 -3.97618,-2.09697 -6.13542,-1.11072c0,0 -0.18289,0.07316 -0.4325,0.08879c-0.4917,1.26018 -1.17793,2.38092 -1.47096,3.787c-0.45241,2.17088 0.6629,4.1721 1.06665,6.1939c0.73904,3.70078 0.30451,8.43362 4.97606,9.16595c1.5824,0.63045 2.38104,0.60786 4.05301,0.75986c2.5923,0.23566 4.86622,0.10044 7.26442,-1.17912c1.85486,-0.98966 2.58594,-3.43463 3.5227,-5.12269c1.64128,-2.95763 2.12725,-5.31804 2.77912,-8.57744l-0.00198,-0.3947zM200.81193,169.89606c-0.01356,0.0237 -0.02721,0.04708 -0.04097,0.07015c0.00367,0.00069 0.00735,0.00139 0.01102,0.00208c0.01156,-0.02242 0.02377,-0.04444 0.03662,-0.06604c-0.00222,-0.00205 -0.00444,-0.00411 -0.00666,-0.00619zM208.67724,162.48057c0.34723,-0.23271 0.69344,-0.46678 1.03877,-0.7027c0.04473,-0.5129 0.1299,-1.01346 0.26957,-1.46366c-0.97886,0.7256 -1.97287,1.42976 -3.0069,2.07197c0.2213,0.16405 0.44359,0.33416 0.66961,0.50596zM215.04345,161.01935c-0.00683,0.00701 -0.0135,0.01374 -0.01999,0.02017c0.004,0.00747 0.008,0.01495 0.01199,0.02243c0.00239,-0.01408 0.00505,-0.02829 0.008,-0.04261zM275.87463,177.99737l0.08088,-0.09515c1.3332,-1.56773 2.69086,-2.962 3.4443,-4.89287c0,0 0.43534,-1.08832 1.51678,-0.73561c0.89139,-1.10199 1.78214,-2.20471 2.66773,-3.31435c0,0 0.78087,-0.97608 1.75696,-0.19521c0.97608,0.78087 0.19521,1.75696 0.19521,1.75696c-0.1114,0.13894 -0.22284,0.27778 -0.33431,0.41654l0.34155,0.93592c-0.0039,0.93437 -0.17977,1.86009 -0.27275,2.78984c-0.0543,0.54296 -0.83943,4.39375 0.87958,3.99113c0.53615,-0.12558 1.10415,-2.20976 1.20609,-2.58445c0.58767,-2.16019 1.15052,-5.60794 -0.32958,-7.44651c-0.87897,-1.17816 -2.6352,-3.34386 -4.37296,-1.89118c-4.31294,3.60538 -6.92862,8.85115 -10.76821,13.00557c0.20987,-0.02578 0.36195,-0.03452 0.41768,-0.01675c0.78137,0.24917 1.31191,0.6026 1.6432,1.02735c0.05731,-0.08252 0.10125,-0.12943 0.10125,-0.12943l1.36033,-1.45063c0.05056,-0.06506 0.10115,-0.13008 0.15176,-0.19507c-0.05947,-0.53608 0.31453,-0.97608 0.31453,-0.97608zM271.30555,183.37474c0.27358,-0.33362 0.87291,-1.27049 0.44499,-1.21544c-0.51733,0.06655 -1.01436,0.23683 -1.51688,0.38197c0.12521,0.37254 0.25043,0.74507 0.37564,1.11761l-0.75378,1.7062c0.48637,-0.63037 0.90128,-1.32119 1.45002,-1.99034zM244.05503,170.13711c0.14969,0.13245 0.26739,0.30023 0.34004,0.49028c-0.02103,-0.35082 -0.09846,-0.56949 -0.34004,-0.49028zM258.51141,167.23862c0.00822,0.40312 0.04294,0.8095 0.0739,1.21541c0.10055,-0.41145 0.07082,-0.78188 -0.0739,-1.21541z" fill-opacity="0.55686" fill="#000000" stroke="none" stroke-width="0.5"></path>
    </g>
  </g>
</svg>
