<?xml version="1.0" encoding="UTF-8"?>
<svg xmlns="http://www.w3.org/2000/svg" xmlns:xlink="http://www.w3.org/1999/xlink" version="1.1" width="187.8637" height="187.8637" viewBox="0,0,187.8637,187.8637">
  <g transform="translate(-146.28536,-86.06815)">
    <g stroke="none" stroke-miterlimit="10">
      <path d="M146.28536,180c0,-51.87715 42.05473,-93.93185 93.93185,-93.93185c51.87715,0 93.93185,42.0547 93.93185,93.93185c0,51.87715 -42.0547,93.93185 -93.93185,93.93185c-51.87715,0 -93.93185,-42.05473 -93.93185,-93.93185z" fill="#ffbf66" stroke-width="1"></path>
      <path d="M217.3658,156.59198c0,8.63759 -4.46511,15.63969 -9.97311,15.63969c-5.50803,0 -9.97311,-7.00214 -9.97311,-15.63969c0,-8.63759 4.46511,-15.63969 9.97311,-15.63969c5.50803,0 9.97311,7.00214 9.97311,15.63969z" fill="#664500" stroke-width="0"></path>
      <path d="M283.6626,156.59198c0,8.63756 -4.46511,15.63972 -9.97311,15.63972c-5.50803,0 -9.97314,-7.00214 -9.97314,-15.63972c0,-8.63756 4.46511,-15.63969 9.97314,-15.63969c5.508,0 9.97311,7.00214 9.97311,15.63969z" fill="#664500" stroke-width="0"></path>
      <path d="M279.66859,212.24994c3.13107,-2.19175 5.63592,1.56553 3.75728,5.0097c-7.82766,12.83735 -23.16986,24.10917 -43.20865,24.10917c-20.03879,0 -35.381,-11.58492 -43.20866,-24.10917c-1.87864,-3.44417 0.62622,-7.20145 3.75728,-5.0097c25.3616,17.53395 53.54116,17.84706 78.90275,0" fill="#664500" stroke-width="1"></path>
    </g>
  </g>
</svg>
