<?xml version="1.0" encoding="UTF-8"?>
<svg xmlns="http://www.w3.org/2000/svg" xmlns:xlink="http://www.w3.org/1999/xlink" version="1.1" width="321.19994" height="336.77921" viewBox="0,0,321.19994,336.77921">
  <g transform="translate(-79.40002,-11.61039)">
    <g stroke="none" stroke-miterlimit="10">
      <path d="M88.31564,328.61039c0,0 16,-20.5985 16,-32.10001c0,-24.14805 -6.06414,4.50221 -10.04872,-44.1924c-0.59522,-7.27412 3.74438,-65.15844 3.01263,-73.75344c-0.23731,-2.78745 -17.45194,-68.53772 -17.64152,-71.24481c-1.94572,-27.78276 8.67761,-71.70934 8.67761,-71.70934c0,0 -12.60264,-21.46011 8.4239,-20.44654c5.86827,0.28288 21.73281,18.2132 32.25081,17.57214c19.88693,-1.21209 85.77117,-14.42446 107.91596,-15.43106c14.92427,-0.67839 40.54072,1.62046 54.14997,0.91386c29.89262,-1.55204 65.36001,-6.60839 73.85938,-6.60839c6.34357,0 25.39999,15 25.39999,15c0,0 -4.30426,16.55744 -1.677,49.84293c2.20947,27.99243 11.3705,71.03601 11.83896,94.14703c0.97157,47.9307 -4.16196,152.01005 -4.16196,152.01005c0,0 6.8751,16.10871 -32.52064,19.49727c-5.19656,0.44698 -28.0068,-7.08378 -34.50223,-6.59417c-5.41818,0.40841 -27.16192,3.80264 -33.24331,4.17608c-4.59181,0.28197 -30.28214,8.51628 -35.06363,8.69531c-8.42783,0.31554 -43.80911,-15.34526 -52.03061,-14.98105c-9.93324,0.44004 -39.34412,6.82986 -47.9634,7.15102c-2.72426,0.1015 -17.35563,-9.79234 -19.88468,-9.68134c-10.6975,0.46953 -30.35234,15.73688 -36.1915,15.73688c-17.79261,0 -16.6,-18 -16.6,-18z" fill="#d6d6d6" stroke-width="0"></path>
      <path d="M114.91564,303.51038l-11,-15c0,0 12.57555,13.59144 33.19615,18.10359c30.25914,6.62123 74.38191,5.22504 93.09351,7.37227c14.12883,1.62134 55.71035,9.52414 55.71035,9.52414l65,-5c0,0 -60.0161,13.57931 -88.76511,11.92299c-10.7767,-0.62088 -41.27907,-11.44 -57.09454,-13.84571c-8.9022,-1.35412 -54.71337,6.39113 -63.18379,5.2433c-39.11052,-5.29991 -26.95656,-18.32058 -26.95656,-18.32058z" fill="#9e9e9e" stroke-width="0"></path>
      <path d="M121.8722,32.25287c8.47042,-1.14784 54.2816,6.59742 63.18379,5.2433c15.81547,-2.4057 46.31783,-13.22483 57.09454,-13.84571c28.74901,-1.65632 88.76511,11.923 88.76511,11.923l-65,-5c0,0 -41.58152,7.9028 -55.71035,9.52414c-18.71159,2.14723 -62.83437,0.75104 -93.0935,7.37226c-20.6206,4.51215 -33.19615,18.10359 -33.19615,18.10359l11,-15c0,0 -12.15397,-13.02067 26.95656,-18.32058z" fill="#9e9e9e" stroke-width="0"></path>
      <path d="M125.50003,277.69999c0,-2.5 2.5,-2.5 2.5,-2.5h3.20001c4.51759,0.05209 8.26712,-1.75068 12.01501,-4.23335c2.30286,-2.3028 2.74871,-3.58415 4.13917,-6.36504c0.86341,-1.72679 1.95705,-2.21977 2.17808,-4.10205c0.12071,-1.02796 -0.14492,-2.07838 -0.01355,-3.10503c0.12685,-0.99127 0.76627,-1.89524 0.78126,-2.89449c0.00778,-0.51854 -1.29442,-4.26984 -1.47168,-4.80945c-0.64765,-1.97164 -1.67437,-4.71854 -3.66009,-5.8151c-1.75842,-0.97104 -3.93582,-0.82303 -5.86717,-1.37517c-2.90467,-0.8304 -4.62335,-1.89994 -7.79558,-1.51901c-1.76322,0.21173 -3.34036,1.42212 -5.11493,1.49041l-2.34459,0.78153c-0.2642,0.09499 -0.54902,0.14675 -0.84593,0.14675c-1.38071,0 -2.5,-1.11929 -2.5,-2.5c0,-0.88153 0.45625,-1.6565 1.14551,-2.10164l2.32734,-1.55156c3.34258,-2.46108 4.97053,-5.37324 7.26484,-8.80164c2.67691,-5.36439 4.99233,-10.39587 2.99057,-16.35462c-0.66502,-1.97961 -1.66349,-4.70388 -3.66003,-5.81504c-4.84519,-2.69657 -15.41587,-0.21973 -17.17549,5.74894c-0.39974,1.35594 0.35935,2.88699 0.77896,4.08499c0,0 0.59222,1.7767 -0.78625,2.76715c1.2144,6.98845 3.05716,13.8675 4.35689,20.84646c2.31165,12.41257 3.42412,25.01766 5.78151,37.40768c0.37612,0.66213 0.37612,1.36931 0.37612,1.36931l-0.1048,0.02731c0.01868,0.09415 0.03743,0.18828 0.05626,0.2824l-0.9193,-0.0575l-3.98361,1.03806c-2.58937,-12.95232 -3.69927,-26.15584 -6.12159,-39.15145c-1.60931,-8.63382 -4.01248,-17.11009 -5.10766,-25.82874c0,0 -0.14256,-1.14039 0.53884,-1.97142c0.00597,-0.67586 0.10938,-1.41095 0.34917,-2.26316c2.52537,-8.97517 16.96178,-12.98249 24.42448,-8.65102c5.96196,3.46042 7.75383,12.35086 6.83594,18.57594c-0.53143,3.60412 -2.70106,7.25128 -4.30544,10.45435c-1.19834,1.80376 -2.26442,3.44853 -3.42121,4.98259c4.0285,-0.03511 7.54257,1.50474 11.46531,2.53725c1.27872,0.33658 2.68319,0.38363 3.82537,1.04984c3.14281,1.83315 4.84386,5.33663 5.94,8.58493c0.54047,1.60163 1.71223,4.9238 1.72827,6.39063c0.01312,1.19985 -0.67295,2.31437 -0.81872,3.5054c-0.13342,1.09021 0.16206,2.21079 -0.01355,3.295c-0.32463,2.00426 -1.71394,3.68191 -2.62196,5.49793c-1.66468,3.32933 -2.71114,5.28538 -5.4608,8.03498c-4.78272,3.20396 -9.40207,5.31478 -15.18494,5.36663h-3.20001c0,0 -2.5,0 -2.5,-2.5z" fill="#696969" stroke-width="0.5"></path>
      <path d="M168.86267,276.25293c2.78941,0.35663 5.51048,0.92468 8.43189,0.56583c6.72249,-0.82576 11.4324,-6.27352 14.94317,-11.57354c2.48996,-4.94016 3.64298,-10.82793 3.66227,-16.34521c0.00938,-2.68354 -0.33585,-6.58361 -2.46773,-8.6322c-3.53409,-3.39602 -8.77852,-4.05352 -13.43224,-4.06781c-2.80007,-0.0086 -7.33138,-0.32375 -8.02831,3.0906c0,0 -0.79055,2.37171 -3.16226,1.58116c-0.07025,-0.02341 -0.13773,-0.04821 -0.20253,-0.0743c0.10317,0.75043 0.19866,1.50213 0.2809,2.25624c0.83054,7.61575 0.01216,15.7909 0.01216,23.44636c0,2.13332 0,4.26664 0,6.39996v2.40003c0,0 0,0.30623 -0.10717,0.70434c0.02888,0.08299 0.0519,0.16604 0.06984,0.24857zM168.51136,234.46201c3.00315,-3.06091 7.62524,-3.25211 11.48867,-3.26202c5.8648,-0.01504 12.64795,1.10335 16.96778,5.53228c7.46255,7.651 3.68688,22.78604 -0.40555,31.02259c-4.46442,6.66435 -10.2398,12.9597 -18.6568,14.02643c-4.2919,0.54393 -8.14353,-0.82925 -12.30545,-0.78125l-1.10278,-4.00692c-0.59724,-0.73057 -0.59724,-1.69309 -0.59724,-1.69309c0,-2.13332 0,-6.66666 0,-8.79998c0,-7.47548 0.85437,-15.52235 0.01217,-22.95368c-0.4571,-4.03324 -1.25734,-7.99961 -1.60585,-12.06912c-0.17838,-2.08298 0.27826,-4.19816 0.01244,-6.27179c-1.07497,-8.38584 -2.41876,-16.58407 -2.41876,-25.10544c0,0 0,-2.5 2.5,-2.5c2.5,0 2.5,2.5 2.5,2.5c0,8.31413 1.38149,16.30594 2.3813,24.49453c0.23166,1.89733 -0.1578,4.59249 0.01244,6.52826c0.13295,1.51165 0.32974,3.00918 0.5467,4.50146c0.15134,-0.43438 0.35172,-0.83691 0.67093,-1.16226z" fill="#696969" stroke-width="0.5"></path>
      <path d="M204.03005,275.68063c0.2201,-2.67401 0.6908,-5.1902 0.70228,-7.98106c1.18537,-3.5562 0.38414,-6.61714 0.78643,-10.30504c0.11923,-1.09299 0.66019,-2.10939 0.79999,-3.19995c0.73937,-5.76777 -0.63153,-11.81064 0,-17.60003c0.52267,-4.79155 0.78126,-9.17483 0.78126,-14.09451c0,-6.56369 -0.68677,-13.41977 0.87463,-19.80638c0,0 0.60632,-2.42536 3.03168,-1.81903c2.42536,0.60633 1.81904,3.03169 1.81904,3.03169c-1.51495,5.90267 -0.72535,12.50334 -0.72535,18.59372c0,5.10253 -0.25374,9.71953 -0.81871,14.70541c-0.65576,5.78703 0.70661,11.81275 -0.00001,17.60004c-0.13325,1.09137 -0.67619,2.10747 -0.79998,3.19995c-0.41538,3.66564 0.38165,6.90937 -0.81354,10.49501c0.0156,3.57628 -0.7865,6.69502 -0.7865,10.30504l-0.18005,0.26985l0.12413,0.03103l-0.7873,3.14922c-0.25265,1.1133 -1.24829,1.94439 -2.43804,1.94439c-1.38071,0 -2.5,-1.11929 -2.5,-2.5v-4c0,0 0,-1.29314 0.93004,-2.01936z" fill="#696969" stroke-width="0.5"></path>
      <path d="M249.69756,280.66388c0.02341,0.02218 0.04683,0.04498 0.07024,0.0684c1.76776,1.76776 0,3.53553 0,3.53553l-5.06775,-0.96778c0,-5.64206 0.6531,-11.69682 0.01873,-17.29456c-0.44353,-3.9138 -0.82784,-7.48672 -0.81878,-11.50543c0.01073,-4.75437 0.78939,-9.21116 0.83233,-14.00049c1.54358,-4.63073 0.49626,-9.0205 -0.01355,-13.69405c-0.31466,-2.88456 0.33912,-5.82165 0.01355,-8.705c-0.52305,-4.63233 -1.34707,-8.67871 -3.042,-13.04378c-0.19422,-0.5002 0.01619,-1.12773 -0.25806,-1.58893c-0.54459,-0.91582 -2.09553,0.391 -3.13329,0.63254c-0.43559,0.10138 -1.03745,-0.16977 -1.33119,0.16747c-0.38539,0.44246 -0.07138,1.20006 -0.32202,1.7306c-1.20648,2.55378 -2.97922,4.1735 -3.87408,6.89221c-1.02581,3.11659 -1.5742,6.32411 -2.37136,9.50834c-1.70799,5.10351 -2.79407,10.59312 -3.96121,15.8495c-0.68066,3.06544 -1.97698,6.24317 -2.35785,9.35703c-0.33756,2.7598 -0.258,5.58165 -0.85497,8.29718c-2.05398,9.34314 -4.07646,18.70629 -6.40096,28.00375c0,0 -0.60637,2.42534 -3.03172,1.81897c-2.42535,-0.60637 -1.81897,-3.03172 -1.81897,-3.03172c2.32487,-9.29895 4.29896,-18.66035 6.39909,-27.99625c0.56614,-2.5167 0.41908,-5.14391 0.745,-7.70282c0.41904,-3.29 1.72174,-6.60342 2.4422,-9.84304c1.19123,-5.35644 2.31037,-10.94509 4.03879,-16.1505c1.01435,-4.06367 1.45995,-8.60107 3.35453,-12.39939c0.85832,-1.72078 2.30806,-3.09641 3.19995,-4.80002c0.51404,-0.98186 0.47394,-2.30673 1.27808,-3.06939c2.53504,-2.40423 8.80957,-3.1874 11.53552,-0.79996c0.87268,0.76431 0.85966,2.15599 1.34192,3.21105c1.15292,2.52228 2.28205,5.1529 2.5781,7.91034c0.53813,5.01217 0.2221,10.0986 0.79348,15.14093c0.57585,5.08183 1.66514,10.06979 -0.01355,15.10587c0.08041,6.97403 -1.58144,13.87941 -0.7865,20.89411c0.697,6.15044 0.80119,12.25244 0.81629,18.46931z" fill="#696969" stroke-width="0.5"></path>
      <path d="M268.00003,210.60002c-0.04611,0 -0.09138,-0.00085 -0.13581,-0.00252c-2.86043,3.03743 -3.55526,8.76012 -4.6639,12.60151c-0.57027,1.97594 -1.82112,3.70754 -2.42287,5.67413c-0.73777,2.41113 -0.38426,5.03022 -0.69617,7.53233c-1.13725,9.12279 -1.58125,18.44039 -1.58125,27.69455c-0.01408,3.41812 0.68065,6.39371 1.50028,9.70106c0.13054,0.52672 0.03867,1.16488 0.38646,1.58145c0.44383,0.53159 1.21557,0.66588 1.8,1.03739c1.32891,0.84474 2.37891,2.02103 4.1173,1.98193c2.55502,-0.05746 6.23646,-2.25702 8.30921,-3.58196c0.60267,-0.38524 1.44174,-0.50455 1.84539,-1.09505c2.05293,-3.00324 2.81288,-7.51254 3.49371,-10.93389c0.56201,-2.82429 1.741,-5.36667 2.4314,-8.13258c1.04825,-4.19957 1.54656,-8.55622 2.40002,-12.79999c1.61059,-4.83189 1.83846,-9.09887 2.33494,-14.06381c0.68301,-6.8302 2.32709,-13.74371 0.11658,-20.48322c-0.5206,-1.58721 -1.0437,-3.38701 -2.3528,-4.42456c-2.96979,-2.35375 -8.56661,-1.84075 -11.56817,0.13986c-1.14625,0.75637 -2.11925,2.32008 -2.89773,3.5395c0.19552,0.53773 0.16669,1.01524 0.03512,1.41733l0.04829,0.11655c0,0 0,2.5 -2.5,2.5zM265.74397,205.89998l0.17593,-1.58668c1.49093,-2.21772 2.39917,-3.95225 4.76582,-5.53993c1.42977,-0.95917 6.82971,-2.77336 8.51434,-2.77336c0.4339,0 4.85501,1.46413 5.59056,1.7283c1.04901,0.37674 2.25803,0.48671 3.12686,1.18492c1.22289,0.98276 3.58607,5.40963 4.04723,6.77545c2.53978,7.52218 0.87718,15.11062 0.11658,22.71678c-0.51583,5.15831 -0.79217,9.71768 -2.46499,14.73625c-0.84449,4.2478 -1.348,8.59774 -2.40002,12.79997c-0.67028,2.67737 -1.82046,5.14001 -2.36866,7.86743c-0.83529,4.15575 -1.89128,9.50952 -4.50628,13.0661c-0.7163,0.97422 -1.95736,1.42092 -2.95454,2.1049c-5.67537,3.89285 -11.97821,5.71996 -17.97351,1.60005c-1.01601,-0.69819 -2.24003,-1.19207 -3.00005,-2.16269c-2.63705,-3.36779 -2.89908,-10.3192 -2.9132,-14.31747c0,-4.77665 0.21811,-9.22013 0.81872,-13.90543c0.97151,-7.5786 -0.5056,-15.3794 1.70379,-22.86768c0.56743,-1.92319 1.832,-3.5962 2.37718,-5.52582c1.64842,-5.83443 2.70828,-11.96885 7.34425,-15.90109z" fill="#696969" stroke-width="0.5"></path>
      <path d="M306.23227,278.66777c-1.76776,-1.76776 0,-3.53554 0,-3.53554l0.06776,0.96778c0.01959,-3.66681 0.78915,-6.66447 1.67462,-10.20633c0.96289,-3.75137 0.36183,-7.02488 0.73757,-10.84c0.47839,-4.85737 0.96189,-9.78852 1.62009,-14.55413c0.20008,-1.44861 -0.19746,-2.89402 -0.50922,-4.34598c-2.11761,3.70938 -4.27557,7.5105 -5.93679,11.35786c-1.31404,3.0433 -1.484,6.88878 -2.26771,10.02158c-0.7631,3.05038 -2.18593,5.18379 -3.24937,8.1651c-1.5916,4.462 -3.0055,9.46562 -3.91773,14.0922c0,0 -0.49028,2.45146 -2.94174,1.96117c-2.45146,-0.49028 -1.96117,-2.94173 -1.96117,-2.94173c0.97971,-4.83742 2.42728,-10.03197 4.08227,-14.70785c0.55036,-1.55495 2.65677,-5.81562 3.15066,-7.8349c0.85154,-3.48151 1.10206,-7.4196 2.53221,-10.77835c2.0044,-4.70738 4.75192,-9.376 7.32401,-13.84345c0.61273,-1.06425 1.16934,-2.16786 1.69693,-3.29185c-0.46386,-1.62948 -1.01238,-3.23055 -1.78044,-4.75495c-3.03498,-6.02364 -6.7391,-12.31256 -8.9259,-18.70783c0,0 -0.79056,-2.37171 1.58115,-3.16227c2.37171,-0.79056 3.16227,1.58115 3.16227,1.58115c1.23836,3.84366 3.6907,7.28706 5.47406,10.89217c1.17028,2.36575 2.02553,4.83457 3.20002,7.20005c0.0388,0.07815 0.07709,0.15645 0.11487,0.23492c0.14266,-2.50488 -0.3335,-5.04408 -0.0284,-7.53704c0.47231,-3.85925 1.2422,-7.81974 2.49603,-11.59011c0,0 0.79055,-2.37171 3.16226,-1.58116c2.37171,0.79055 1.58116,3.16226 1.58116,3.16226c-1.17829,3.52608 -1.84216,7.20052 -2.30402,10.80992c-0.01207,0.0943 -0.02289,0.18867 -0.03256,0.28311c4.60688,-5.98206 8.36907,-12.89407 14.57812,-17.16369l3.88674,2.88012c0,0 0,2.5 -2.5,2.5c-0.03111,0 -0.06184,-0.00038 -0.09219,-0.00115c-0.70691,0.71169 -1.33603,1.51737 -1.97446,2.28614c-2.0555,2.47512 -4.33426,4.7329 -6.40002,7.19998c-2.59425,3.09823 -4.18318,6.59082 -7.10527,9.47681c-0.12878,0.26424 -0.25554,0.5299 -0.38065,0.79674c-0.24873,2.54968 -0.47777,5.10151 -0.76617,7.64698c-0.07866,0.69427 -0.42922,1.34411 -0.63303,2.01381c0.16598,0.57419 0.34112,1.14526 0.5305,1.71156c2.14911,6.42647 4.29945,12.8749 6.43753,19.32749c0.86753,4.33772 2.26584,8.53584 3.20999,12.83904c0.68716,3.13189 0.43981,6.28971 1.0752,9.30789c0.59855,0.73077 0.59855,1.6947 0.59855,1.6947l-4.87171,1.5906c-1.22033,-3.80012 -0.77084,-7.46726 -1.6546,-11.38793c-0.96347,-4.27429 -2.32724,-8.4475 -3.18992,-12.76094c-0.76677,-2.28468 -1.53163,-4.57036 -2.29476,-6.85566c0.06257,1.08992 0.10531,2.17911 -0.00118,3.2603c-0.13327,1.35319 -0.66254,2.64722 -0.79999,4c-0.40929,4.0282 0.11686,7.55433 -0.86253,11.56003c-0.78598,3.14391 -1.54633,5.74786 -1.52533,8.99362l-1.53223,2.56776c0,0 -1.76776,1.76776 -3.53553,0z" fill="#696969" stroke-width="0.5"></path>
      <path d="M369.7077,268.61744c1.22024,1.00457 0.66404,2.67318 0.66404,2.67318l-0.78176,2.34527c-0.31417,1.02156 -1.26534,1.76412 -2.38994,1.76412c-1.38071,0 -2.5,-1.11929 -2.5,-2.5v-3.20001c0.04694,-5.23548 1.50631,-10.33062 0.81871,-15.69454c-0.66595,-5.19505 -1.381,-10.48452 -0.79998,-15.81087c0.32369,-2.9674 1.28406,-5.97699 1.61352,-8.89504c0.2556,-2.26382 -0.17968,-4.56704 -0.0958,-6.83972c-0.24029,0.52932 -0.47553,1.06069 -0.65772,1.60938c-0.7237,2.17956 -1.01587,4.90086 -1.56252,7.0725c-0.98386,3.90844 -2.65132,7.65947 -4.06878,11.41818c-0.78798,2.08949 -0.8413,4.40982 -1.63748,6.4962c-0.97186,2.54673 -2.9686,4.5785 -4.27903,6.96871c-1.26427,2.30601 -1.95809,4.882 -2.88623,7.3426c-1.14648,3.03945 -3.81593,9.13471 -6.13536,11.25781c-1.28936,1.18022 -2.97848,2.63115 -4.69965,2.32628c-1.6524,-0.29269 -2.45193,-2.33898 -3.35547,-3.75309c-0.58547,-0.91631 -0.68131,-2.06529 -1.02197,-3.09793c-0.09339,-12.72904 1.38487,-25.08615 3.20001,-37.60091c0.3281,-2.26214 -0.13906,-4.58078 0.06922,-6.85708c0.70322,-7.68527 2.00775,-15.29184 4.87729,-22.47092c0,0 0.92847,-2.3212 3.24966,-1.39273c2.32119,0.92846 1.39273,3.24966 1.39273,3.24966c-2.6889,6.71739 -3.88722,13.82986 -4.53689,21.02856c-0.21705,2.40501 0.22071,4.8523 -0.11657,7.24341c-0.34064,2.41495 -1.24823,4.73705 -1.48408,7.16448c-0.9345,9.61801 -1.62928,19.17333 -1.71594,28.83458c0.29188,0.85938 0.54751,1.24964 0.5826,1.75462c0.57988,-1.15778 1.34092,-2.21828 1.95818,-3.35715c0.55303,-1.02037 1.03445,-2.07797 1.55549,-3.11503c1.84667,-3.67557 2.67738,-7.26571 4.67725,-10.95094c1.21578,-2.24034 3.16689,-4.09555 4.04884,-6.48707c0.74905,-2.03115 0.80585,-4.27551 1.56248,-6.30384c1.35028,-3.61975 2.99209,-7.21999 3.93121,-10.98172c0.71898,-2.87991 0.70789,-4.54959 1.63755,-7.32753c0.42366,-1.26594 1.23291,-2.40075 1.52382,-3.70361c0.83788,-3.75263 0.26557,-6.65635 2.56864,-10.13861c0.2203,-0.93165 0.44061,-1.8633 0.66091,-2.79495l0.7873,-3.14928c0.25264,-1.11331 1.24829,-1.94441 2.43805,-1.94441c1.38071,0 2.5,1.11929 2.5,2.5v3.20002c0.24567,0.97719 -0.09456,2.01906 -0.00629,3.02279c0.34822,3.95955 1.16138,5.34766 0.79105,9.25272c-0.10474,1.1045 -0.66249,2.12947 -0.80349,3.22993c-0.34294,2.67645 0.28017,5.41269 -0.01355,8.09499c-0.31292,2.85768 -1.25714,5.79909 -1.58643,8.70505c-0.55879,4.93127 0.2141,9.79057 0.79999,14.58904c0.6346,5.19747 -0.64957,10.19131 -0.7736,15.2229z" fill="#696969" stroke-width="0.5"></path>
      <path d="M103.20005,97.00001c-2.5,0 -2.5,-2.5 -2.5,-2.5l0.41988,0.58678c-0.94843,-1.42772 -2.08881,-3.11945 -3.04849,-4.89962c-0.14529,0.58661 -0.2971,1.1715 -0.45517,1.75449c-0.42603,1.5713 -0.06506,3.52588 -1.13902,4.74944c-1.29328,1.47344 -3.35353,2.88842 -5.2886,2.57358c-1.46336,-0.23808 -1.58114,-2.51038 -2.29834,-3.80797c-1.63742,-2.96249 -2.34941,-6.17147 -3.23088,-9.38765c-0.58409,-0.45763 -0.95942,-1.16951 -0.95942,-1.96904c0,-0.28017 0.04609,-0.54958 0.13109,-0.80106c-0.00093,-0.0028 -0.00186,-0.00558 -0.0028,-0.00838c0,0 -0.79057,-2.37171 1.58114,-3.16228c2.37171,-0.79058 3.16228,1.58114 3.16228,1.58114c0.95632,2.87768 1.43394,5.90009 2.39225,8.77711c0.12356,0.37095 0.35113,0.82443 0.58375,1.29308c0.0713,-0.37579 0.15322,-0.74975 0.23604,-1.12129c0.49918,-2.23928 1.13482,-4.45153 1.51626,-6.71374v-4.6446v0c0,-1.38071 1.11929,-2.5 2.5,-2.5c1.07311,0 1.9883,0.67612 2.34282,1.62561l1.57835,3.94593l-0.01128,0.00451c0.01257,0.02131 0.02509,0.04266 0.03755,0.06405c1.85797,3.19103 2.40666,6.69681 4.5327,9.87315l0.41989,2.18676c0,0 0,2.5 -2.5,2.5z" fill="#696969" stroke-width="0.5"></path>
      <path d="M140.31813,72.26397c2.23604,1.11808 1.11795,3.35413 1.11795,3.35413l-1.40994,2.38078c-1.56244,1.20973 -2.73732,3.30957 -4.68733,3.62918c-4.32924,0.70957 -8.31782,-2.31858 -10.31706,-6.27096c-0.57772,-0.10211 -1.20936,-0.42041 -1.61582,-1.23395c0.61538,1.95544 1.33319,3.89141 2.14192,5.9179l0.82389,2.46839c0,0 0.79056,2.37171 -1.58115,3.16227c-2.37171,0.79056 -3.16227,-1.58115 -3.16227,-1.58115l-0.77609,-2.33159c-0.51572,-1.29227 -0.99492,-2.55545 -1.43625,-3.81173l-1.3257,0.60423c-0.79846,0.15969 -1.59692,0.31939 -2.39539,0.47908c0.46248,1.3244 0.95198,2.65151 1.4653,3.99748l1.1135,2.43255c0,0 1.03944,2.27366 -1.23422,3.31311c-2.27366,1.03945 -3.31311,-1.23422 -3.31311,-1.23422l-1.17797,-2.57977c-1.87206,-4.90426 -3.44603,-9.59075 -4.58886,-14.71731c0,0 -0.54234,-2.44047 1.89812,-2.9828c2.44047,-0.54234 2.9828,1.89812 2.9828,1.89812c0.38544,1.74018 0.82412,3.42423 1.31,5.08272c0.98642,-0.19728 1.97285,-0.39456 2.95927,-0.59184l0.8137,-0.48928c-0.47294,-1.75654 -0.8706,-3.5533 -1.18937,-5.4483c0,0 -0.41098,-2.46598 2.055,-2.87697c2.46599,-0.41099 2.87698,2.05499 2.87698,2.05499c0.35897,2.17585 0.83608,4.19893 1.41953,6.18215c-0.1046,-0.86607 0.24774,-1.47206 0.66063,-1.87461c-0.23683,-2.065 0.12421,-4.12658 1.27145,-5.86332c1.44569,-2.18854 3.19948,-5.21702 5.82126,-5.29438c1.92948,-0.05694 2.63496,3.12061 2.85485,5.03837c0.16838,1.46856 -1.20657,2.69895 -1.81315,4.04695c-0.69336,1.54085 -0.97649,3.34929 -2.04102,4.64922c0.95701,1.88184 2.55989,3.54088 4.40956,2.97486c1.14311,-0.34981 1.68314,-1.69805 2.52471,-2.54707l0.19015,-0.81924c0,0 1.11809,-2.23604 3.35413,-1.11795z" fill="#696969" stroke-width="0.5"></path>
      <path d="M155.17465,73.50633c-0.60633,-2.42536 1.81904,-3.03169 1.81904,-3.03169l2.16232,-0.25804c0.12131,-0.36987 1.18063,-4.00374 0.20137,-5.00018l-2.19432,1.09717c-0.34741,0.18291 -0.74312,0.28642 -1.16302,0.28642c-1.38071,0 -2.5,-1.11929 -2.5,-2.5c0,-0.52532 0.16202,-1.01279 0.43882,-1.41518l1.45818,-2.18729c0.18149,-0.40753 0.44605,-0.79554 0.48417,-1.23676c0.07267,-0.84105 -0.04665,-1.69443 -0.19923,-2.52472c-0.04746,-0.25829 0.06505,0.59375 -0.12171,0.77837c-1.03805,1.02616 -2.41596,1.96491 -2.78858,3.37619c0,0 -0.79061,2.37169 -3.16231,1.58107c-2.37169,-0.79062 -1.58108,-3.16231 -1.58108,-3.16231c1.29101,-3.46692 0.98891,-4.30512 5.21142,-6.22385c1.44147,-0.65501 3.44415,-1.81339 4.67835,-0.8216c1.96601,1.57987 2.50664,4.48163 2.96301,6.96214c0.07745,0.42095 0.01876,0.83512 -0.10525,1.24605c2.54475,1.37991 4.44956,5.23183 4.11842,7.79716c-0.26531,2.05539 -1.63348,3.80942 -2.45022,5.71412l-4.2377,1.34194c0,0 -2.42536,0.60633 -3.03169,-1.81903z" fill="#696969" stroke-width="0.5"></path>
      <path d="M183.36778,69.06776c-1.76776,1.76776 -3.53553,0 -3.53553,0l-1.40195,-1.77125c-0.69794,-2.11868 -1.81932,-4.09333 -2.95863,-6.06176c-1.38082,0.73558 -2.87502,1.27659 -4.39579,1.68904c-0.35258,2.50815 -0.58877,5.02671 -0.57584,7.57623c0,0 0,2.5 -2.5,2.5c-2.5,0 -2.5,-2.5 -2.5,-2.5c0.01371,-3.15143 0.35094,-6.23104 0.81572,-9.30003c-0.09275,-0.64346 0.02459,-1.14266 0.24112,-1.52783c0.41947,-2.5643 0.90535,-5.12828 1.34312,-7.72772v-3.04443c0,-1.38071 1.11929,-2.5 2.5,-2.5c0.5719,0 1.09896,0.19204 1.5202,0.51515l3.17981,2.38484l-0.03465,0.04621c0.17946,0.13495 0.3528,0.2788 0.51895,0.43306c1.19212,1.1068 1.21648,3.01878 1.89635,4.49659c1.80325,3.91962 4.29509,7.34666 5.68909,11.42765l0.19804,-0.17128c0,0 1.76776,1.76777 0,3.53553zM172.39248,55.17466c-0.13428,0.74608 -0.27037,1.49121 -0.40478,2.23593c0.38177,-0.16077 0.75376,-0.34069 1.11202,-0.54317c-0.2594,-0.55622 -0.49791,-1.11953 -0.70725,-1.69275z" fill="#696969" stroke-width="0.5"></path>
      <path d="M188.48197,62.66394l2.19142,-0.67827c-0.60506,-2.58863 -1.40003,-4.11006 -3.47542,-2.9194c0.45168,1.1964 0.88335,2.40053 1.23105,3.62635c0.03383,-0.01913 0.05294,-0.02868 0.05294,-0.02868zM186.71488,53.64754c8.06176,-0.61228 8.57554,4.92713 8.21177,10.96678l-4.20861,2.52175c0,0 -1.54922,0.77461 -2.71338,-0.25521c-0.27853,0.20867 -0.64179,0.37608 -1.11438,0.47059c-2.45146,0.49029 -2.94173,-1.96117 -2.94173,-1.96117c-0.45665,-2.35547 -1.45793,-4.57368 -2.29323,-6.82291c-0.84491,-2.27513 -0.83965,-4.79463 -1.56501,-7.11065c-0.43311,-1.38287 -2.21969,-2.64318 -1.70653,-3.99839c0.64001,-1.69022 2.90258,-2.15769 4.41324,-3.14984c2.11884,-1.3916 4.41182,-2.56574 6.81239,-3.3802l3.50867,0.93565c0,0 2.23607,1.11803 1.11803,3.3541c-1.11803,2.23607 -3.35411,1.11803 -3.35411,1.11803l0.30859,-0.66439c-2.12524,0.69286 -3.91691,2.17771 -5.98754,3.01983c-0.61366,0.24958 -1.65474,-0.52309 -1.98678,0.05016c-0.28318,0.48889 1.25518,0.2893 1.49343,0.8016c0.63745,1.37068 0.77833,2.90531 0.98802,4.42065c0.31846,-0.17039 0.65342,-0.28877 1.01717,-0.31639z" fill="#696969" stroke-width="0.5"></path>
      <path d="M200.6322,61.86775l-1.4039,-1.77719c-0.48383,-1.45152 -2.43675,-7.29403 -2.49597,-7.59009c-0.1881,-0.94036 0.31872,-1.94849 0.07499,-2.87599c-0.18322,-0.69721 -0.85828,-1.15846 -1.28742,-1.73769c0,0 -1.38677,-2.08011 0.69334,-3.46689c2.08011,-1.38677 3.46688,0.69334 3.46688,0.69334c0.63755,1.02076 1.56494,1.9101 1.91266,3.06229c0.33946,1.12484 -0.15328,2.37148 0.07499,3.52404c0.34573,1.74569 1.03067,3.40043 1.67069,5.06764c0.62823,-4.15803 0.665,-8.57674 1.41015,-12.35752c0,0 0.49032,-2.45144 2.94177,-1.96113c2.45145,0.49032 1.96113,2.94177 1.96113,2.94177c-1.60999,7.91865 -0.94037,16.22325 -5.73403,23.09646l-3.12686,1.18492c0,0 -2.37171,0.79057 -3.16228,-1.58114c-0.79057,-2.37171 1.58114,-3.16228 1.58114,-3.16228l1.67306,-0.41506c0.36716,-0.62266 0.68534,-1.2742 0.9625,-1.94915c-0.72247,-0.20594 -1.21283,-0.69633 -1.21283,-0.69633z" fill="#696969" stroke-width="0.5"></path>
      <path d="M226.08016,47.88675c-1.38674,2.08013 -3.46688,0.69338 -3.46688,0.69338l-2.03517,-1.36823c-0.3461,1.27193 -1.0316,2.66462 -1.63031,3.82437c0.71812,-0.2099 1.36216,-0.3807 1.86163,-0.50798c1.29832,-0.33084 2.72651,-1.39088 3.93604,-0.81456c4.14015,1.97271 4.13496,5.49206 4.90602,9.09594l0.04855,1.29034c0,0 0,2.5 -2.5,2.5c-2.5,0 -2.5,-2.5 -2.5,-2.5l0.04855,-0.3097c-0.01577,-0.08673 -0.5533,-4.73284 -1.494,-5.30402c-0.33269,-0.20201 -0.51391,0.61536 -0.86401,0.78542c-0.75851,0.36844 -1.59963,0.53438 -2.39997,0.80002c-0.74429,0.24703 -1.47714,0.53228 -2.23389,0.73799c-0.62725,0.1705 -1.75325,-0.24192 -1.91092,0.38868c-0.26134,1.04518 1.0271,1.97984 1.04937,3.05696c0.02185,1.0573 -0.61563,2.02348 -0.92345,3.03522c0,0 -0.79056,2.37171 -3.16227,1.58115c-2.37171,-0.79056 -1.58115,-3.16227 -1.58115,-3.16227c0.8005,-2.08816 -0.88679,-4.71393 0.12592,-6.70782c0.39716,-0.78196 1.4067,-1.49701 2.65161,-2.12149c-1.00976,-1.16239 -0.24187,-2.69817 -0.24187,-2.69817c0.96042,-1.89937 1.32986,-4.05497 2.23574,-5.98096c0.69484,-1.4773 1.01701,-3.85773 2.62599,-4.13414c1.7751,-0.30495 3.03952,1.93318 4.55929,2.89977l2.2018,1.45323c0,0 2.08013,1.38674 0.69339,3.46687z" fill="#696969" stroke-width="0.5"></path>
      <path d="M237.6381,56.05031c-0.47062,0.182 -1.13648,0.31045 -1.81046,0.01105c0.07719,0.30972 0.13956,0.62206 0.17268,0.9397c0.03451,0.331 -0.67053,0.86523 -0.3455,0.93668c1.20715,0.26535 1.6196,-0.77079 1.98328,-1.88743zM234.86113,52.13371c0.23128,-0.27797 0.43888,-0.43368 0.43888,-0.43368l5.44545,-2.78631c0.85091,1.56345 2.25226,2.9359 2.55272,4.69037c0.9095,5.31097 -4.93685,10.46641 -10.153,8.65821c-1.3623,-0.47225 -1.42631,-2.51818 -1.94547,-3.86331c-1.47578,-3.82364 -1.24406,-7.66153 -1.68095,-11.59352c-0.24866,-2.23797 -0.80668,-4.45373 -0.81871,-6.70544c0,0 0,-2.5 2.5,-2.5c2.5,0 2.5,2.5 2.5,2.5c-0.02503,3.86807 0.40913,8.12247 1.16109,12.03369z" fill="#696969" stroke-width="0.5"></path>
      <path d="M110.28783,102.86392c-0.03285,0.03727 -0.06653,0.076 -0.10106,0.11621zM111.26379,102.07336c-0.11237,0.69707 -0.57327,2.12666 -2.46377,2.12666c-0.16623,0 -0.32142,-0.01105 -0.46628,-0.03169c-0.11403,0.37113 -0.20705,0.74742 -0.26602,1.13212c-0.11413,0.74452 0.11358,1.75657 -0.00404,2.65739c0.44544,-0.28681 0.99366,-0.45068 1.36859,-0.82561c0.58344,-0.58344 2.53754,-5.01921 1.83151,-5.05888zM108.59426,97.99888c0.82119,-0.64409 1.63959,-1.30257 2.6058,-1.19888c9.32514,1.00075 4.27633,13.9189 -1.30167,15.94581c-1.49133,0.54191 -3.36508,1.60123 -4.70143,0.74571c-1.54241,-0.98745 -1.66837,-3.30107 -2.07823,-5.08604c-0.29137,-1.26896 -0.1617,-2.61578 0.01355,-3.90592c0.0302,-0.22231 1.55713,-4.77337 1.69607,-5.19015c0,0 0.79061,-2.3717 3.16231,-1.58108c0.22965,0.07655 0.42967,0.16793 0.60361,0.27056z" fill="#696969" stroke-width="0.5"></path>
      <path d="M124.80002,112.20002c-2.5,0 -2.5,-2.5 -2.5,-2.5v-1.6c0.05576,-1.70265 -0.15487,-3.60433 -1.15668,-4.98134c-0.50011,0.24103 -2.19988,0.87951 -3.28705,-0.93244c-1.28624,-2.14374 0.8575,-3.42997 0.8575,-3.42997c2.47034,-1.46408 5.09931,-2.76449 7.87992,-3.48161l2.2063,-0.07464c0,0 2.5,0 2.5,2.5c0,2.5 -2.5,2.5 -2.5,2.5l-0.99365,-0.07464c-0.74138,0.17804 -1.46794,0.41435 -2.17994,0.69401c0.60027,0.81845 1.31508,1.58765 1.56632,2.55617c0.39552,1.52476 0.07152,3.14964 0.10727,4.72446v1.6c0,0 0,2.5 -2.5,2.5z" fill="#696969" stroke-width="0.5"></path>
      <path d="M143.41216,99.63092c0.61409,-0.41321 1.88486,-0.96943 3.15562,0.30134c1.76776,1.76776 0,3.53553 0,3.53553l-3.3583,1.40393c-1.73594,-0.58312 -3.42063,-1.31812 -5.07123,-2.11542c0.36178,0.65462 0.36178,1.34372 0.36178,1.34372l-0.10543,0.02747c0.01906,0.0939 0.03802,0.18797 0.05689,0.28223l-0.91929,-0.0575l-3.98362,1.03807c-0.81407,-4.07436 -1.80159,-7.7484 -3.12027,-11.69973c0,0 -0.79056,-2.37171 1.58115,-3.16227c2.37171,-0.79055 3.16227,1.58115 3.16227,1.58115c0.42094,1.26431 0.81097,2.50545 1.17404,3.74125c1.30883,-1.66903 2.7092,-3.22097 3.9741,-5.13742l4.58013,2.98674c0,0 0,2.49619 -2.49428,2.49999c-0.61166,0.73552 -1.22581,1.45093 -1.81403,2.19236c0.92579,0.44506 1.86435,0.86577 2.82048,1.23854z" fill="#696969" stroke-width="0.5"></path>
      <path d="M159.51801,103.9361c-2.23607,1.11801 -3.3541,-1.11806 -3.3541,-1.11806l-0.93562,-1.92746c-0.34454,-1.0429 -0.72509,-1.94187 -1.06949,-2.809c-0.21596,1.98924 -0.46459,3.97069 -0.45876,6.01844c0,0 0,2.5 -2.5,2.5c-2.5,0 -2.5,-2.5 -2.5,-2.5c0.00985,-3.93892 0.8047,-7.66229 0.83227,-11.60046l0.23057,-0.34525l-0.13456,-0.04485l0.78176,-2.34531c0.31417,-1.02156 1.26534,-1.76412 2.38994,-1.76412c0.92661,0 1.73548,0.50411 2.1673,1.25304l2.37645,3.96071l-0.25768,0.15461c1.1487,1.64932 2.038,3.41774 2.88562,5.94109l0.66436,1.27255c0,0 1.11802,2.23607 -1.11806,3.35409z" fill="#696969" stroke-width="0.5"></path>
      <path d="M173.84664,87.96112c-0.17499,0.08213 -0.39222,0.16536 -0.63645,0.21924c-0.15191,0.36428 -0.28931,0.73204 -0.34249,1.12012c-0.05227,0.38139 -0.05702,0.76698 -0.04588,1.15384c0.33585,-0.61713 0.67349,-1.17064 0.81352,-1.56564c0.10564,-0.29798 0.16563,-0.61065 0.21129,-0.92755zM171.00899,83.96772c0.16503,-0.17319 0.29102,-0.26769 0.29102,-0.26769l5.44545,-2.78631c0.84991,1.54366 2.25657,2.89335 2.54973,4.63097c0.33923,2.01068 -1.42795,6.98447 -2.76857,8.66965c-1.31817,1.65697 -2.47923,4.3325 -4.59593,4.38472c-1.8941,0.04672 -3.19992,-2.36087 -3.9068,-4.13274l-0.66718,-0.0566c-0.48469,0.56679 -0.96937,1.13358 -1.45406,1.70037l0.54883,2.69962c0,0 0.49029,2.45146 -1.96117,2.94174c-2.45146,0.49029 -2.94174,-1.96117 -2.94174,-1.96117l-0.83637,-4.24394c-0.00782,-2.21543 -0.01217,-4.43088 -0.01217,-6.64633c0,0 0,-2.5 2.5,-2.5c2.5,0 2.5,2.5 2.5,2.5c0,0.29286 -0.00008,0.58572 -0.00023,0.87857l1.94299,-0.08895c0.26397,-1.33667 0.75423,-2.63724 1.18554,-3.98023c0,0 0.5669,-1.70058 2.18063,-1.74168z" fill="#696969" stroke-width="0.5"></path>
      <path d="M191.51801,99.13608c-2.23607,1.11801 -3.3541,-1.11806 -3.3541,-1.11806l-1.06391,-2.71803c0.00164,-0.26452 -0.01286,-0.53251 -0.03611,-0.80239c-1.50875,0.54775 -3.32715,1.35875 -4.52564,0.4305c-1.40469,-1.08795 -0.82952,-3.46366 -1.03822,-5.22809c-0.35485,-3.00001 0.25708,-4.68912 0.84853,-7.69029c0,0 0.49028,-2.45146 2.94173,-1.96117c2.45146,0.49029 1.96117,2.94174 1.96117,2.94174c-0.39708,1.95314 -0.25419,3.99633 -0.59357,5.9552c0.09358,-0.04828 0.18571,-0.0981 0.27468,-0.15127l1.36577,-2.04867c0.44513,-0.68926 1.2201,-1.14553 2.10164,-1.14553c1.38071,0 2.5,1.11929 2.5,2.5c0,0.2969 -0.05176,0.58172 -0.14674,0.84592l-0.78154,2.34463l-0.00429,-0.00144c0.07674,1.33602 0.12278,2.67352 0.13259,4.01086l0.53606,0.48199c0,0 1.11802,2.23608 -1.11806,3.3541z" fill="#696969" stroke-width="0.5"></path>
      <path d="M208.16776,97.06776c-1.76776,1.76776 -3.53553,0 -3.53553,0l-1.53222,-2.56775c0,-1.03017 -0.0379,-1.97883 -0.05711,-2.87718c-0.34754,0.94824 -0.27227,2.17978 -1.05609,2.79465c-1.57827,1.23808 -3.7194,3.06918 -5.56644,2.2867c-1.64792,-0.69811 -1.09069,-3.42929 -1.32035,-5.20418c-0.38497,-2.97519 0,-6 0,-9c0,0 0,-2.5 2.5,-2.5c2.5,0 2.5,2.5 2.5,2.5c0,0.55473 0.16735,1.80021 0.29366,3.22347c0.7295,-1.45548 1.39994,-2.79028 1.44409,-2.87829l0.12828,-0.10116l-0.04614,-0.03076l1.57847,-2.36773c0.44513,-0.68926 1.2201,-1.14553 2.10164,-1.14553c1.38071,0 2.5,1.11929 2.5,2.5v5h-0.40015c0.29215,2.45306 0.40015,4.88503 0.40015,7.79999l0.06775,-0.96778c0,0 1.76776,1.76777 0,3.53553z" fill="#696969" stroke-width="0.5"></path>
      <path d="M214.4,93.00001c-2.5,0 -2.5,-2.5 -2.5,-2.5v-1.60001c0,-2.51345 0.23077,-4.80894 -0.2225,-7.14221c-0.7289,0.17509 -1.75839,0.12775 -2.55758,-1.07104c-1.38675,-2.08012 0.69338,-3.46688 0.69338,-3.46688c1.6801,-1.10345 3.49422,-2.04121 5.39616,-2.69157l-0.1772,-0.19605c0,0 1.76777,-1.76776 3.53553,0c1.76776,1.76776 0,3.53553 0,3.53553l-1.77717,1.40393c-0.18205,0.05866 -0.36296,0.12128 -0.54264,0.18762c0.82534,3.16302 0.65202,6.06059 0.65202,9.44068v1.60001c0,0 0,2.5 -2.5,2.5z" fill="#696969" stroke-width="0.5"></path>
      <path d="M226.43315,90.27442c-0.12475,0.15169 -0.24951,0.30337 -0.37427,0.45506l0.1772,0.08861l-1.57582,3.15154c-0.40087,0.8456 -1.26228,1.43038 -2.26028,1.43038c-1.1246,0 -2.07577,-0.74257 -2.38994,-1.76413l-0.78176,-2.3453l0.16415,-0.05472l-0.26915,-0.39539c0.00594,-0.1446 0.01197,-0.28951 0.01814,-0.43467c-0.15137,-0.52504 -0.0694,-1.02981 0.0646,-1.42367c0.26168,-5.37022 0.76703,-11.02314 2.42228,-16.07265c0,0 0.79056,-2.37171 3.16227,-1.58115c2.37171,0.79056 1.58115,3.16227 1.58115,3.16227c-1.01216,2.97549 -1.53388,6.27591 -1.85496,9.5629c1.13277,0.23807 1.98325,1.24298 1.98325,2.44653v3.20001h-0.22039z" fill="#696969" stroke-width="0.5"></path>
      <path d="M238.30002,76.10002c0,0 0,-2.5 2.5,-2.5c2.5,0 2.5,2.5 2.5,2.5c0,4.26667 0,8.53332 0,12.79999l-2.5,-0.39999l-2.5,0.39999c0,-0.26667 0,-0.53332 0,-0.79999c0,0 0,-2.5 2.5,-2.5c2.5,0 2.5,2.5 2.5,2.5l-2.5,0.4l-2.5,-0.4c0,-4 0,-8 0,-12z" fill="#696969" stroke-width="0.5"></path>
      <path d="M279.00632,74.52538c-2.42536,0.60633 -3.03169,-1.81903 -3.03169,-1.81903l-0.8559,-3.50088c-0.00205,-0.38506 -0.0401,-0.82055 -0.08763,-1.28017c-0.81649,0.52234 -1.9819,0.66848 -3.77648,0.16103c-0.01469,-0.00415 -0.02912,-0.00858 -0.0433,-0.01329c-0.22683,3.41094 -0.9611,6.52371 -1.5453,10.03799c0,0 -0.41099,2.46599 -2.87697,2.055c-1.13072,-0.18845 -1.65656,-0.80894 -1.89451,-1.42566c-0.77936,0.85928 -1.56028,1.71685 -2.45653,2.44829c-1.42134,1.15999 -2.78169,2.89991 -4.6135,3.00129c-5.01577,0.2776 -6.99562,-4.18682 -7.22182,-8.4825c-0.06739,-0.11244 -0.12403,-0.22304 -0.17097,-0.33163c-1.16711,2.20406 -3.19335,3.92846 -5.63171,4.02421c-1.4295,0.05613 -2.52451,-1.34659 -3.78677,-2.01987l0.58676,0.41987c0,0 -1.94027,0 -2.40217,-1.70932c-0.18791,-0.07431 -0.38297,-0.17614 -0.58453,-0.31051c-2.08014,-1.38672 -0.69341,-3.46686 -0.69341,-3.46686c0.4796,-0.71943 3.42426,-5.21349 3.84005,-5.45684c1.49925,-0.87749 3.35704,-1.52749 5.06673,-1.21976c2.78936,0.50207 4.19632,2.25623 4.57496,4.35233c0.44454,-1.36063 0.89997,-2.84131 2.03065,-3.65678c1.77902,-1.28308 4.39639,-3.07939 6.28204,-1.95887c1.82299,1.08328 1.44297,4.21056 0.99538,6.28335c-0.2611,1.20913 -3.1478,3.44464 -5.03251,4.83439c0.05845,0.48389 0.15741,0.96046 0.29453,1.41835c0.05536,0.18488 0.17287,2.75074 1.40377,2.30066c0.79368,-0.29021 1.18408,-1.20615 1.78652,-1.79876c0.89692,-0.88227 1.80759,-1.75045 2.71139,-2.62568l0.5549,-1.87623c0,0 0.79056,-2.37171 3.16227,-1.58115c0.06615,0.02205 0.12984,0.04533 0.19115,0.06975c0.31233,-1.93702 0.53702,-3.87757 0.53702,-6.0035l0.1452,-0.27855l-0.08929,-0.02233l0.78731,-3.14927c0.25264,-1.11331 1.24829,-1.9444 2.43804,-1.9444c0.82831,0 1.56253,0.40282 2.01745,1.02326l1.37384,1.83179c-0.0158,-0.46247 -0.10025,-1.11378 -0.03704,-1.45345l0.25378,-0.22959l-0.08813,-0.05875l1.57846,-2.36773c0.44513,-0.68926 1.22011,-1.14552 2.10165,-1.14552c1.1246,0 2.07577,0.74256 2.38994,1.76413l0.78176,2.3453l-0.05468,0.01823c0.05403,0.12205 0.10441,0.24593 0.15069,0.37188c0.06925,0.18847 0.01728,5.91888 0.01355,6.49499l0.74408,2.89914c0,0 0.60633,2.42536 -1.81903,3.03169zM243.16002,73.09953l0.62672,0.12033c0.33776,0.39338 0.50389,1.08344 1.01328,1.18014c0.59202,0.11238 1.9678,-2.88139 1.79582,-3.52033c-0.16953,-0.62982 -1.4771,-0.37927 -1.95568,0.06388c-0.64372,0.59606 -1.07634,1.36339 -1.48013,2.15598z" fill="#696969" stroke-width="0.5"></path>
      <path d="M293.11805,75.13608c-2.23608,1.11801 -3.35409,-1.11806 -3.35409,-1.11806l-0.67088,-1.71393l-1.23279,2.46554c-0.40087,0.84561 -1.26228,1.43039 -2.26028,1.43039c-1.18975,0 -2.1854,-0.83109 -2.43804,-1.9444l-0.78731,-3.14928c-0.8678,-3.54958 -0.69679,-6.88095 -1.59998,-10.39999c0,0 -0.60634,-2.42535 1.81903,-3.03169c2.42536,-0.60634 3.03169,1.81902 3.03169,1.81902c0.50723,2.0747 0.65956,4.07485 0.87893,6.0815c0.55893,-1.14081 1.21807,-2.28491 1.68311,-3.43907l0.21221,-0.16972l-0.07976,-0.05317l1.57853,-2.36773c0.44514,-0.68924 1.22009,-1.14549 2.10161,-1.14549c1.38071,0 2.5,1.11929 2.5,2.5v3.20002h-0.05641c0.01433,0.10147 0.02693,0.20327 0.03768,0.30545c0.115,1.09346 -0.6762,2.10749 -0.79999,3.19998c-0.13867,1.2237 0.01249,2.46303 0.01873,3.69454l0.53606,0.48199c0,0 1.11802,2.23608 -1.11806,3.3541z" fill="#696969" stroke-width="0.5"></path>
      <path d="M324.33309,60.02467c1.09143,0.72324 2.45284,1.26704 2.8316,2.46396c0.70625,2.23185 -0.11645,3.75941 -1.45716,4.91892l0.06025,0.06025l-2.40002,2.39999h-0.00001c-0.45241,0.4524 -1.0774,0.73222 -1.76775,0.73222c-1.38071,0 -2.5,-1.11929 -2.5,-2.5v-0.67115l-0.27188,0.53292c-1.59199,1.56696 -4.56774,5.59203 -7.75432,4.06033c-0.91532,-0.43997 -1.64015,-1.11831 -2.19272,-1.95821c-0.22998,2.13612 -2.48109,2.13612 -2.48109,2.13612l-3.36775,-0.73223c-0.62432,-0.68143 -1.44008,-1.24556 -2.08165,-1.91643c-1.25961,0.88484 -2.67514,1.50896 -3.73025,0.75284c-1.56734,-1.12319 -1.32035,-8.6641 -1.32035,-11.0042c0,0 0,-2.5 2.5,-2.5c2.5,0 2.5,2.5 2.5,2.5c0,0.4307 0.0273,0.86409 0.05546,1.29758c0.79507,-1.596 1.5499,-3.08839 1.68228,-3.35237l0.13475,-0.09687l-0.05261,-0.03507l1.57847,-2.36773c0.44513,-0.68926 1.2201,-1.14552 2.10164,-1.14552c1.38071,0 2.5,1.11929 2.5,2.5c0,0.22872 -0.03071,0.45025 -0.08824,0.66072l-0.78639,3.1456l-0.08964,-0.02241c-0.01265,0.14261 -0.02899,0.2851 -0.04942,0.42744c-0.20914,1.45687 -4.23298,4.18243 -3.1766,6.03192c0.40419,0.70766 1.23872,1.05931 1.85809,1.58897l-0.16779,-0.73224c0,0 0.7532,0 1.43275,0.41342c-1.14588,-4.4574 0.48264,-10.61667 3.52715,-12.75697c1.14623,-0.8058 2.68921,-0.78787 4.03381,-1.18181c0,0 2.42536,-0.60633 3.03169,1.81903c0.60633,2.42536 -1.81903,3.03169 -1.81903,3.03169c-0.78874,0.13939 -1.67717,0.00982 -2.36622,0.41817c-2.00979,1.19105 -1.91417,6.867 -1.31389,8.43439c0.07454,0.19462 0.03034,-0.44092 0.15941,-0.60455c0.4995,-0.63321 1.12416,-1.15677 1.68625,-1.73515l1.392,-2.85625c0,0 1.02686,-2.05376 3.08062,-1.24066c0.3037,-3.60303 1.01724,-7.07763 1.47482,-10.75142c0,0 0.31011,-2.48069 2.7908,-2.17059c2.48069,0.31011 2.17059,2.7908 2.17059,2.7908c-0.394,3.14089 -1.01308,6.14624 -1.34764,9.21455z" fill="#696969" stroke-width="0.5"></path>
      <path d="M333.76779,69.06776c-1.76776,1.76776 -3.53553,0 -3.53553,0l-1.53222,-2.56775c0,-0.72345 -0.00305,-7.29798 0.01217,-7.44636c0.1825,-1.77878 0.75618,-3.69346 0.11612,-5.3631c0,0 -0.79056,-2.37171 1.58115,-3.16227c2.37171,-0.79056 3.16228,1.58115 3.16228,1.58115c1.37398,4.51604 0.12829,9.58241 0.12829,14.39057l0.06775,-0.96778c0,0 1.76776,1.76777 0,3.53553z" fill="#696969" stroke-width="0.5"></path>
      <path d="M342.47884,38.82484c-1.32997,4.98749 -0.1267,9.94465 -1.70716,14.86578c0,0 -0.79061,2.3717 -3.16231,1.58108c-2.37169,-0.79062 -1.58108,-3.16231 -1.58108,-3.16231c0.5029,-1.4357 0.70919,-2.90523 0.79832,-4.39268c-0.92663,-0.72671 -0.92663,-2.01668 -0.92663,-2.01668l0.03402,-1.21104c0.26779,-1.60659 0.69628,-3.18241 1.23115,-4.7281l-0.43111,-0.07185l0.79323,-4.75948c0.17899,-1.20504 1.2179,-2.12955 2.47274,-2.12955c1.38071,0 2.5,1.11929 2.5,2.5v3.20002h-0.14389z" fill="#696969" stroke-width="0.5"></path>
      <path d="M342.4,69.00001c-0.73739,0 -1.25727,-0.2175 -1.62382,-0.52419c-0.49849,0.44552 -1.26066,0.76457 -2.3667,0.39589c-2.37171,-0.79056 -1.58115,-3.16227 -1.58115,-3.16227c0.78679,-1.3247 0.88472,-3.531 2.36037,-3.97412c1.58645,-0.47639 3.06538,1.25638 4.59807,1.88458l1.11323,2.88011c0,0 0,2.5 -2.5,2.5z" fill="#696969" stroke-width="0.5"></path>
      <path d="M373.70005,190.50001c0,2.5 -2.5,2.5 -2.5,2.5l-0.00948,-0.1283c-2.7295,0.90438 -3.73554,1.35451 -6.94419,1.71613c-3.35649,0.37828 -6.91573,-0.51181 -10.24592,-0.02011c-3.1537,0.46564 -6.78846,1.63229 -10.00043,1.63229c-1.19994,0 -2.31266,-0.68813 -3.50547,-0.81875c-3.53727,-0.38736 -6.81129,-0.42874 -10.34091,-0.79343c-4.19657,-0.43359 -7.56729,-2.43609 -11.75365,-2.38782c-4.11127,-0.01333 -7.87719,0.7939 -12,0.79999c-3.4203,0.00504 -7.3047,0.40635 -10.70542,-0.01873c-0.99167,-0.12395 -1.89518,-0.78398 -2.89456,-0.78126c-1.1304,0.00308 -2.16557,0.80423 -3.29596,0.79815c-0.94302,-0.00508 -1.77121,-0.69509 -2.70448,-0.83042c-3.25381,-0.47184 -7.31501,-0.30916 -10.59335,0.02376c-3.74349,0.38016 -7.40645,1.18678 -11.10076,1.58977c-4.73476,0.51648 -9.68351,-0.60464 -14.40001,0c-2.23346,0.28632 -4.45372,0.80672 -6.70543,0.81875c-3.14366,-0.03625 -5.60518,0.78642 -8.79999,0.79998c-0.54246,0.00231 -8.08424,0.00724 -8.40045,-0.03228c-0.70845,-0.08856 -1.28566,-0.75991 -1.99958,-0.7677c-2.49073,-0.02719 -4.80889,1.59453 -7.29977,1.59801c-2.50699,0.00351 -4.85493,-1.33333 -7.34659,-1.61019c-4.47593,-0.49734 -9.11868,0.48878 -13.59998,0c-8.55812,-0.93345 -17.10029,-0.74254 -25.75407,-0.82013c-0.66653,-0.25591 -1.28563,-0.77232 -1.99958,-0.76771c-0.79377,0.00513 -1.4509,0.79661 -2.24469,0.79515c-1.4917,-0.00273 -2.91702,-0.66257 -4.40168,-0.80732c-2.30694,-0.22493 -4.63574,0.01217 -6.95361,0.01217c-6.36065,0 -12.60925,0.11756 -18.89455,0.78125c-1.89914,0.20054 -3.61568,1.30861 -5.50505,1.58646c-3.25427,0.47856 -6.40547,0.45724 -9.69497,0.81357c-3.4776,0.3767 -6.30711,1.59948 -9.90542,1.61871c0,0 -2.5,0 -2.5,-2.5c0,-2.5 2.5,-2.5 2.5,-2.5c3.40952,0.02206 5.96032,-1.20201 9.29452,-1.58124c3.22372,-0.36667 6.30222,-0.34391 9.50499,-0.78647c1.95449,-0.27007 3.73509,-1.38625 5.69502,-1.61355c8.58373,-0.99554 18.25528,-1.69876 26.95177,-0.80655c1.22179,0.12535 2.37013,0.79508 3.59832,0.79265c0.89303,-0.00177 1.66234,-0.80939 2.55536,-0.80481c0.97383,0.00499 1.86698,0.55484 2.80047,0.83227c8.54538,-0.09853 16.99935,-0.17709 25.44588,0.7799c4.47376,0.50688 9.12063,-0.49768 13.59996,0c2.39539,0.26614 4.64331,1.58532 7.05344,1.58983c2.42624,0.00454 4.67406,-1.58467 7.10025,-1.60199c0.97382,-0.00696 1.83415,0.71147 2.80047,0.83226c5.59434,0.69928 10.94109,-0.78332 16.39954,-0.83226c2.04808,0.01325 4.06147,-0.53305 6.09449,-0.78129c4.73483,-0.57814 9.66657,0.53637 14.40004,0c3.7599,-0.42605 7.48857,-1.23474 11.29926,-1.61019c3.6528,-0.35989 8.17476,-0.48752 11.80667,0.02376c0.73683,0.10372 1.35137,0.77417 2.09546,0.76955c1.06863,-0.00663 2.03542,-0.80456 3.10406,-0.80183c1.19993,0.00306 2.31479,0.66989 3.50546,0.81872c7.34649,0.9183 14.81144,-0.79786 22.09451,-0.81872c4.46151,0.04 7.87151,1.99008 12.24635,2.41216c3.58378,0.34575 6.89369,0.40398 10.45914,0.80656c0.99307,0.11212 1.89517,0.78128 2.89455,0.78128c2.94194,0 6.29074,-1.16428 9.19952,-1.56772c5.71722,-0.79299 10.77157,0.38819 16.40988,-1.504l1.59062,-0.12829c0,0 2.5,0 2.5,2.5z" fill="#696969" stroke-width="0.5"></path>
      <path d="M311.03225,182.66777c-0.02258,-0.02258 -0.04459,-0.04517 -0.06603,-0.06775c-6.85541,0 -13.71081,0 -20.56622,0c-6.51971,0 -13.96299,-0.98264 -20.39954,-0.03229c-2.90227,0.42852 -5.89456,1.28185 -8.79998,1.60001c-7.91205,0.86642 -16.43146,0.03228 -24.40046,0.03228c-7.28134,0 -14.28307,0.79999 -21.59997,0.79999c-6.09393,0 -11.92635,-0.05226 -17.90549,-0.81872c-4.22359,-0.54142 -8.66764,0.57281 -12.89499,-0.01355c-0.83528,-0.11586 -1.56356,-0.69298 -2.40002,-0.80002c-5.28128,-0.67582 -10.78398,0.42748 -15.98454,0.82304c-1.86644,0.14196 -3.75331,0.16733 -5.61543,-0.02302c-0.77199,-0.07891 -1.41911,-0.7782 -2.19512,-0.7754c-2.61536,0.00942 -5.18908,0.80114 -7.80445,0.80768c0,0 -2.5,0 -2.5,-2.5c0,-2.5 2.5,-2.5 2.5,-2.5c2.74458,0.00781 5.45098,-0.80071 8.19555,-0.79236c0.91078,0.00277 1.70009,0.72087 2.60494,0.82464c1.45202,0.16653 2.92911,0.11031 4.38456,-0.02302c5.6189,-0.51472 11.51422,-1.47475 17.21542,-0.77699c0.83704,0.10244 1.56579,0.67684 2.40002,0.80002c4.13351,0.61033 8.54488,-0.52149 12.70498,-0.01355c5.77418,0.70501 11.40135,0.78126 17.29458,0.78126c8.6282,0 16.95344,-0.79999 25.59998,-0.79999c6.38503,0 13.27136,0.7468 19.59954,0.03228c2.90461,-0.32796 5.89725,-1.19739 8.79999,-1.60001c6.76464,-0.93827 14.36506,-0.03228 21.20045,-0.03228c7.73334,0 15.46668,0 23.20001,0l0.96778,5.06775c0,0 -1.76777,1.76776 -3.53554,0z" fill="#696969" stroke-width="0.5"></path>
      <path d="M278.50003,295.30003c0,2.5 -2.5,2.5 -2.5,2.5c-10.66667,0 -22.93337,0 -33.60003,0c-19.52598,0 -38.8998,0.82808 -58.39996,0.79999c-4.85317,-0.00699 -9.49912,-0.79999 -14.40002,-0.79999c0,0 -2.5,0 -2.5,-2.5c0,-2.5 2.5,-2.5 2.5,-2.5c4.05209,0 7.46162,0.3607 11.44635,0.81216c9.19008,1.0412 19.32738,0.11541 28.49613,-0.71066c10.79781,-0.97284 22.02179,-0.1015 32.85751,-0.1015c10.66666,0 21.33333,0 32,0h1.60003c0,0 2.5,0 2.5,2.5z" fill="#696969" stroke-width="0.5"></path>
      <path d="M256.82833,155.30946c1.3557,-4.05691 1.75265,-8.1199 2.29041,-12.31491c0.07999,-0.62399 -0.06802,-1.27128 -0.10526,-1.90279c-0.79662,0.47306 -1.74831,0.7071 -2.55861,1.17053c-3.3371,1.90854 -6.90775,3.22173 -10.21611,5.21258c-1.3915,0.83736 -2.69513,1.81287 -4.05199,2.70528c-0.29016,0.19084 -0.68825,0.48473 -1.10076,0.75922c0.48994,0.12224 0.97121,0.27783 1.3046,0.38896c0,0 0.91816,0.30607 1.42149,1.10862c2.04344,1.38667 0.66804,3.44981 0.66804,3.44981c-1.64876,2.42733 -2.1496,5.34474 -4.23739,7.50275c-0.77242,0.79839 -1.66111,1.46966 -2.55537,2.13484c0.71589,0.39862 1.40487,0.74109 1.99462,0.33962c0.76202,-0.51874 0.96685,-1.56983 1.44343,-2.35891c1.13191,-1.87413 4.53725,-8.93575 6.86324,-9.7697c1.94788,-0.69838 5.67661,1.30663 8.37324,2.46746zM234.43534,152.91137c-0.85952,-3.54954 2.87925,-5.47616 4.97793,-6.89148c4.03857,-2.72356 7.92883,-4.38827 12.22288,-6.53243c1.93881,-0.96812 3.60217,-2.50251 5.64579,-3.22351c1.83145,-0.64615 3.9398,-2.44288 5.63238,-1.49057c2.95297,1.66144 0.63081,9.65736 0.36696,12.03209c-0.40996,3.68975 -0.51803,6.50217 -1.70954,10.08512l-0.6324,1.30271c0.13705,1.16584 -0.77159,2.07449 -0.77159,2.07449l-3.17408,1.45758c-1.15368,-0.29354 -2.34555,-0.46492 -3.46105,-0.88064c-1.14733,-0.42757 -2.24259,-0.99972 -3.28929,-1.63502c-0.27838,-0.16896 -0.36555,-0.93229 -0.63196,-0.74501c-0.39818,0.2799 -0.11237,0.98734 -0.33121,1.42208c-1.43046,2.84172 -4.57341,8.97374 -7.36212,10.44932c-1.87432,0.99175 -4.93019,0.32739 -7.66772,-0.53609h-2.2503c-1.38071,0 -2.5,-1.11929 -2.5,-2.5c0,-0.69411 0.28287,-1.32215 0.73962,-1.77513l2.49503,-2.47593l0.02686,0.02707l0.07038,-0.11854c1.24178,-0.9823 2.58666,-1.84675 3.72534,-2.94692c1.1249,-1.08685 1.82511,-2.8483 2.54467,-4.49814c-1.90911,-0.64646 -4.43042,-1.62577 -4.66658,-2.60103z" fill="#696969" stroke-width="0.5"></path>
      <path d="M246.10453,137.86403c2.3122,-0.37296 3.08483,-0.77991 2.91052,-1.41054l-2.45645,-1.02352c-0.05772,-0.02251 -0.1144,-0.04711 -0.16995,-0.07369c-0.15916,0.8163 -0.32619,1.63222 -0.51278,2.4462zM247.46667,130.60001h1.79879c0.90806,-1.31033 1.61071,-2.95439 1.91208,-4.50077c0.02552,-0.13092 -0.24162,0.11322 -0.36474,0.16453c-0.76148,0.31732 -1.52591,0.62753 -2.28887,0.94129c0,0 -0.15061,0.0502 -0.38857,0.08735c-0.32178,1.0965 -0.58584,2.20191 -0.8221,3.31224c0.05075,-0.00307 0.10189,-0.00463 0.15341,-0.00463zM251.05389,121.26958c5.83395,0.75485 5.851,6.61725 3.41098,10.62119c-0.22169,0.36378 -0.4813,0.69854 -0.76372,1.01586c0.5523,0.50594 0.78745,1.77863 0.51876,4.45228c-0.46644,4.64159 -3.7712,4.49921 -6.99108,5.37707l-1.36216,0.06402c0,0 -1.40515,0.00001 -2.10855,-1.05345c-0.67532,0.35612 -1.76726,0.61317 -2.85921,-0.47878c-1.36491,-1.36491 -0.6221,-2.72982 -0.21266,-3.28104c1.29256,-4.75248 1.67391,-9.59446 3.36428,-14.27442c0,0 0.85437,-2.34948 3.20385,-1.49512c0.06597,0.02399 0.12941,0.04916 0.19042,0.07542c1.1946,-0.45054 2.36747,-1.18369 3.60909,-1.02303z" fill="#696969" stroke-width="0.5"></path>
      <path d="M267.56561,137.99887c1.37594,-1.37589 2.75183,-0.60994 3.29421,-0.20276c1.07871,0.32482 1.56519,0.51462 2.83642,-0.29327c0.6984,-0.44386 1.45698,-0.99917 1.02992,-1.6256l-2.26488,-0.6177c-1.0882,-0.27065 -1.8946,-1.25425 -1.8946,-2.4262c0,-0.90946 0.48562,-1.70548 1.2117,-2.14293l0.72816,-0.4551c-0.64342,-0.10916 -1.34325,-0.49565 -1.76105,-1.54017c-0.92847,-2.3212 1.39273,-3.24967 1.39273,-3.24967c3.60924,-0.91572 7.48873,-3.38785 7.6764,4.22667c0.01961,0.79541 -0.47071,1.41757 -1.09571,1.99398c0.93827,0.23326 1.44571,1.4872 1.10168,5.15284c-0.54515,5.80846 -6.65967,6.36168 -10.71087,5.66583l-1.54417,-0.95039c0,0 -1.76774,-1.7678 0.00007,-3.53553z" fill="#696969" stroke-width="0.5"></path>
      <path d="M287.51294,138.73189c-0.64423,-0.03598 -1.28847,-0.07195 -1.9327,-0.10793c-0.77739,1.39858 -1.5515,2.79971 -2.31882,4.20651c0,0 -1.19713,2.19474 -3.39187,0.99761c-2.19474,-1.19713 -0.99761,-3.39187 -0.99761,-3.39187c0.87977,-1.61285 1.76851,-3.21833 2.66095,-4.82102c0.11435,-0.78351 0.4667,-1.2733 0.88047,-1.57865c1.05567,-1.89031 2.11408,-3.77885 3.16658,-5.67317l0.05067,-0.04423l-0.01726,-0.01079l1.31039,-2.09663c0.43745,-0.72608 1.23348,-1.2117 2.14294,-1.2117c1.15521,0 2.1274,0.78352 2.41416,1.84813l1.31759,4.47979l-0.05267,0.01549c0.04967,0.1418 0.09662,0.28469 0.14058,0.4288c0.37271,1.22182 -0.21305,2.54701 -0.25485,3.82373c-0.07167,2.18906 0.00184,4.38048 0.00184,6.57072l-4.53443,1.5011c0,0 -1.38762,-1.38762 -0.47466,-2.93346c-0.00733,-0.68944 -0.01679,-1.37419 -0.01914,-2.0551z" fill="#696969" stroke-width="0.5"></path>
      <path d="M305.29028,147.81813c-2.45146,0.49029 -2.94173,-1.96117 -2.94173,-1.96117l-0.30784,-2.01535c0.21621,-2.79091 0.24421,-5.55 0.2517,-8.32871c-1.80216,3.45091 -3.35506,7.01386 -5.57764,10.22077c0,0 -1.43365,2.04809 -3.48174,0.61444c-2.04809,-1.43365 -0.61443,-3.48174 -0.61443,-3.48174c3.13374,-4.42409 4.86453,-9.68461 7.89945,-14.24662l1.27232,-2.29018c0.41982,-0.7909 1.25182,-1.32954 2.20964,-1.32954c1.1246,0 2.07577,0.74256 2.38994,1.76413l0.78176,2.34531l-0.06637,0.02213c0.05753,0.12084 0.1118,0.24343 0.16238,0.36798c0.38472,0.94729 0.02778,2.0447 0.03228,3.06712c0.01721,3.90983 0.0238,7.76031 -0.27403,11.6584l0.22548,0.65132c0,0 0.49029,2.45145 -1.96117,2.94173z" fill="#696969" stroke-width="0.5"></path>
      <path d="M342.61536,141.78454c0,0 -0.18398,0.08177 -0.47073,0.14669c-0.59582,1.02177 -1.24605,2.03887 -2.0113,3.06878c0,0 -1.5,1.99999 -3.5,0.49999c-0.47494,-0.35621 -0.75252,-0.74061 -0.89967,-1.11974c-1.63203,-0.26354 -1.93298,-2.06927 -1.93298,-2.06927l-0.30068,-2.011c0.00061,-0.71555 -0.09068,-1.58309 -0.19579,-2.51168c-0.42305,0.74847 -0.85864,1.48962 -1.3084,2.22194c0,0 -1.31025,2.12915 -3.43939,0.8189c-0.16548,-0.10184 -0.31019,-0.20862 -0.43635,-0.31897l-3.01292,2.67764c-1.74248,-0.26906 -3.94844,0.40638 -5.22746,-0.80719c-3.31785,-3.14804 -0.74831,-11.23449 2.75529,-13.12642c1.18486,-0.63982 2.6878,-0.16948 4.0317,-0.25421c0,0 2.5,0 2.5,2.5c0,2.5 -2.5,2.5 -2.5,2.5c-0.90436,-0.12529 -2.23884,0.13665 -2.55217,0.99419c-0.26178,0.71646 -0.39279,1.47486 -0.55049,2.22117c-0.08758,0.4145 -0.29057,1.65863 -0.1378,1.26347l1.20604,-1.54661c0,0 1.70475,-1.70475 3.44016,-0.09198c1.39238,-2.31175 2.63592,-4.71532 3.78953,-7.15474l1.02576,-2.33761c0.37446,-0.90846 1.26871,-1.5479 2.31231,-1.5479c1.12459,0 2.07577,0.74256 2.38994,1.76412l0.78177,2.34531l-0.06946,0.02316c0.06591,0.14846 0.12562,0.30002 0.17818,0.45518c0.43189,1.27495 -0.25042,2.68466 -0.24713,4.03078c0.00323,1.32405 0.12281,2.64537 0.20074,3.96764c0.83517,-1.52645 1.57716,-3.08227 2.48889,-4.72496l1.00092,-2.5023c0.35453,-0.94948 1.26972,-1.62559 2.34282,-1.62559c1.15521,0 2.1274,0.78352 2.41416,1.84813l1.31759,4.47979l-0.03669,0.01079c0.0326,0.07827 0.06454,0.15685 0.0958,0.23575c0.05804,0.14652 0.55748,6.79132 0.56844,6.9338l0.27676,0.14034c0,0 1.11806,2.23605 -1.118,3.35411c-2.23606,1.11806 -3.35412,-1.11799 -3.35412,-1.11799l-0.78992,-1.99298c-0.05512,-0.71653 -0.12132,-1.38227 -0.17982,-2.01633z" fill="#696969" stroke-width="0.5"></path>
      <path d="M351.3918,144.3869c-0.26166,-1.83156 1.02579,-2.50129 1.71279,-2.72572l-0.78076,-0.4395l-2.52314,0.53401c0.10007,-0.59885 0.19259,-1.19794 0.27895,-1.79731l-0.02117,-0.01191c0,0 0.01531,-0.1072 0.06188,-0.2738c0.41769,-2.96501 0.6905,-5.93732 0.98905,-8.92452c-0.28963,-1.20053 0.60917,-2.22773 0.60917,-2.22773c1.05474,-0.97264 1.73786,-2.76303 3.16422,-2.91793c4.81952,-0.52341 6.81154,2.9634 5.94674,7.02034c-0.13788,0.64679 -0.44547,1.22467 -0.82189,1.77462c0.55303,0.39622 1.07604,1.33698 1.53378,3.15965c1.39785,5.56605 -1.23653,6.15001 -4.52182,8.35331l-2.79935,0.59781c0,0 -2.47487,0.35356 -2.82844,-2.12132zM356.37728,139.23663l-1.1157,-0.30428c-0.10381,0.81856 -0.21603,1.63653 -0.33987,2.45413c1.61806,-0.85033 1.9016,-1.51734 1.45557,-2.14986z" fill="#696969" stroke-width="0.5"></path>
      <path d="M370.61532,147.33608c-2.23607,-1.11802 -1.11804,-3.3541 -1.11804,-3.3541l0.35187,-0.58547c0.07268,-0.27552 0.14396,-0.55125 0.21398,-0.82717l-0.74313,1.18899l-0.47512,-0.29695l-0.43295,1.15856c-1.91074,-0.16969 -4.29022,0.75597 -5.73222,-0.5091c-0.65703,-0.57641 -0.74184,-1.47477 -0.65902,-2.43202c-0.09364,-0.5229 0.0025,-0.96532 0.18045,-1.32727c0.05791,-0.36542 0.11323,-0.72183 0.14337,-1.05455c0.26934,-2.97324 2.0149,-6.63348 3.03936,-9.45136c0,0 0.85437,-2.34948 3.20385,-1.49512c2.34948,0.85436 1.49512,3.20384 1.49512,3.20384c-0.69725,1.91699 -1.22278,4.19295 -1.89905,6.26988c0.11422,-0.01598 0.23093,-0.02425 0.34955,-0.02425c1.03258,0 1.91893,0.62601 2.30027,1.5192c0.59416,-2.66951 1.11037,-5.35326 1.64829,-8.04283c0,0 0.49029,-2.45145 2.94174,-1.96115c2.45145,0.4903 1.96116,2.94174 1.96116,2.94174c-0.83234,4.16163 -1.62052,8.30776 -2.70059,12.41321l-0.71478,1.54785c0,0 -1.11803,2.23607 -3.3541,1.11804z" fill="#696969" stroke-width="0.5"></path>
      <path d="M362.92393,120.91805l-2.61422,-0.29992c-6.44837,-1.28968 -11.95601,-0.7421 -18.44304,-0.75145c-2.94876,-0.00425 -5.89723,-0.53704 -8.86516,-0.55545c-4.90122,-1.3367 -10.26726,-0.87192 -15.35181,-1.32064c-2.09657,-0.18502 -4.1322,-0.82419 -6.22181,-1.07597c-6.75873,-0.8144 -13.78552,0.04612 -20.60783,-0.2505c-3.98201,-0.17313 -7.89295,-0.80107 -11.88672,-0.79743c0,0 -0.99816,0 -1.73306,-0.63071c-0.16397,-0.04219 -0.26209,-0.08143 -0.26209,-0.08143l-0.63119,-0.36479c-7.7071,-0.70064 -16.0336,-1.97113 -23.69869,-1.34652c-4.4761,0.88263 -10.07027,0.48751 -12.90157,5.00276c-1.9854,3.16623 -1.85066,6.62197 -2.29264,10.16358c-0.42175,3.37957 -0.92598,6.74421 -1.33236,10.12544c-0.13504,1.12362 -0.15587,2.2582 -0.25813,3.38527c-0.07045,0.77641 -0.13158,1.55534 -0.25993,2.32429c-0.05372,0.32188 -0.57539,0.78913 -0.28437,0.93677c0.44901,0.22779 0.97324,-0.3936 1.47315,-0.33368c1.00066,0.11995 1.93282,0.57185 2.89924,0.85778c0,0 2.39457,0.71837 1.6762,3.11293c-0.71837,2.39457 -3.11293,1.6762 -3.11293,1.6762c-2.07142,-0.63163 -4.77065,-0.07029 -6.29427,-1.60922c-2.33195,-2.35537 -1.14149,-8.12378 -0.80242,-10.95368c0.93968,-7.84249 0.26439,-19.35709 6.72777,-25.06857c4.20328,-3.7143 9.00817,-3.54348 14.07899,-4.57297c8.10374,-0.59489 16.70182,0.58081 24.83464,1.32014l2.03548,0.70188c0,0 0.28167,0.11267 0.60953,0.35763c3.90801,0.04775 7.74061,0.62984 11.64195,0.79946c6.95754,0.3025 14.09114,-0.54218 20.99219,0.28283c2.03107,0.24281 4.00674,0.88298 6.04483,1.05737c5.15587,0.44116 10.61086,-0.00962 15.58153,1.34602c2.75514,-0.01985 5.47059,0.51573 8.2015,0.51122c6.7946,-0.01122 12.65736,-0.50471 19.42362,0.84855l1.42383,0.15204c0.95885,-0.73691 2.23934,-0.37107 2.23934,-0.37107l1.83766,0.52523c1.7649,0.48714 3.57527,0.83813 5.39707,1.02031c3.86242,1.05164 9.06799,2.81386 11.47429,6.37875c1.7801,2.63718 1.37558,6.80044 1.23496,9.79281c-0.35328,7.5174 -2.07954,17.70849 -8.07085,22.85185c-4.8935,4.20093 -12.12856,3.53824 -18.04663,3.53229c-9.92469,0.87377 -20.13915,-0.6378 -30.0759,-1.06593c-8.90634,-0.38374 -17.94109,0.57587 -26.8195,-0.27723c0,0 -0.49765,-0.04977 -1.02552,-0.32737c-0.46994,0.09782 -0.84113,0.0607 -0.84113,0.0607l-2.43857,-0.25434c-11.68631,1.0054 -24.1227,-1.14889 -35.62656,-3.24024c0,0 -2.45968,-0.44721 -2.01246,-2.90689c0.44722,-2.45968 2.90689,-2.01246 2.90689,-2.01246c11.27046,2.04945 23.32324,4.08533 34.77344,3.15976l2.89477,0.27899c0,0 0.49766,0.04976 1.02553,0.32736c0.46994,-0.09783 0.84114,-0.0607 0.84114,-0.0607c8.7588,0.9169 17.71433,-0.09925 26.51385,0.25611c9.78731,0.39524 19.88814,1.98606 29.65745,1.06738c4.45262,-0.00412 11.30723,1.01227 15.02002,-2.33436c4.80606,-4.33209 6.06028,-13.13083 6.32918,-19.2815c0.06174,-1.41224 0.63976,-5.43764 -0.36506,-6.74051c-1.81894,-2.35847 -5.55178,-3.54798 -8.25903,-4.28792c-1.95981,-0.19598 -3.90141,-0.59987 -5.80296,-1.11303l-0.9203,-0.26285c-0.76605,0.43179 -1.6313,0.33565 -1.6313,0.33565z" fill="#696969" stroke-width="0.5"></path>
      <path d="M111.08396,175.41488c-2.0901,-4.16484 -4.16383,-8.34787 -5.75931,-12.73364c-0.76551,-2.10429 -1.06173,-4.38087 -2.00691,-6.41081c-1.38729,-2.97946 -2.72809,-5.50651 -3.70607,-8.68156c-0.84104,-2.73046 -1.75355,-5.11626 -2.08655,-7.98531c-0.14565,-1.25489 -0.75083,-2.57702 -0.34691,-3.77401c2.09434,-6.20642 9.00473,-6.72731 13.4744,-10.28539c7.65824,-3.87439 15.64138,-6.97616 23.70992,-9.8497c3.50885,-1.24965 7.0581,-2.97341 10.64682,-0.50934c3.26161,2.23948 3.86189,6.0614 5.56423,9.22973c0.44597,0.83001 1.36064,1.37184 1.7209,2.24249c0.8262,1.99671 0.62111,4.34388 1.55132,6.29429c1.35107,2.83283 2.79287,5.57721 4.05208,8.51358c2.03694,4.75764 3.55621,9.64235 5.59373,14.3855c1.25691,2.92597 3.39927,6.1381 2.01811,9.556c-1.66883,4.12979 -7.39679,5.59506 -11.0034,6.97323c-7.81435,2.98604 -14.53932,6.96797 -22.96089,8.05635c-4.80195,2.45582 -11.37074,9.3131 -17.14201,5.13748c-1.27388,-0.92167 -2.26049,-4.40119 -2.77511,-5.93319l-0.74948,-1.86211c0,0 -0.52674,-1.31687 0.20515,-2.3636zM116.37067,178.05681l0.00104,0.00262c0.40424,1.22361 0.37632,2.69697 1.22489,3.66679c0.80606,0.92124 2.33637,-0.65964 2.69711,-0.80616c3.56579,-1.44832 6.27546,-3.53748 9.76087,-5.25634c2.00162,-0.30621 4.07504,-0.24643 6.02097,-0.80645c5.74619,-1.65372 11.05612,-4.98517 16.61815,-7.1372c2.11489,-0.81828 7.08462,-1.77221 8.19661,-4.22678c0.64932,-1.43329 -1.52597,-4.57778 -1.98189,-5.64398c-2.03711,-4.76388 -3.56013,-9.6447 -5.60628,-14.41451c-1.222,-2.85303 -2.68092,-5.52105 -3.94792,-8.28641c-0.93184,-2.03382 -0.78158,-4.44348 -1.6487,-6.50572c-0.29678,-0.70583 -1.11545,-1.08368 -1.47908,-1.75752c-1.30713,-2.42218 -1.74669,-5.68268 -4.03578,-7.57026c-1.6981,-1.40026 -4.67338,0.56065 -6.15317,1.09068c-7.71242,2.76241 -15.32818,5.72209 -22.6901,9.35027c-1.96368,1.57917 -2.62943,2.28543 -5.17677,3.39807c-2.10355,0.9188 -5.25315,1.15689 -6.14883,3.91655c-0.1936,0.59649 0.33949,1.20925 0.45309,1.826c0.47283,2.56723 1.14552,4.71621 1.91345,7.21471c0.92827,3.02018 2.18888,5.26884 3.49395,8.11842c0.44279,0.96682 2.02092,6.41171 2.14694,6.75842c1.8009,4.95464 4.25517,9.64058 6.60686,14.34398c0,0 0.77971,1.55942 -0.26541,2.72484z" fill="#696969" stroke-width="0.5"></path>
      <path d="M104.34856,156.35971l0.4603,-2.23935c0.54855,-1.79334 1.1585,-3.56872 1.8168,-5.32599c-0.26044,-0.12396 -0.52693,-0.31011 -0.79342,-0.57661c-0.43625,-0.43625 -0.65719,-0.8725 -0.74251,-1.28218c-0.53788,1.2236 -1.06714,2.45098 -1.5851,3.68329l-0.46857,0.94918c0,0 -1.11805,2.23606 -3.35411,1.11801c-2.23606,-1.11805 -1.118,-3.35411 -1.118,-3.35411l0.33145,-0.65083c2.39526,-5.69625 5.02624,-11.28917 7.63915,-16.88833c0,0 1.05722,-2.26546 3.32268,-1.20825c1.55531,0.72581 1.54456,2.0211 1.38499,2.76184c0.57331,-1.10923 1.16277,-2.21276 1.77241,-3.3105c0,0 0.86639,-1.55951 2.4528,-1.31185c0.17377,-0.67482 0.33955,-1.35336 0.49661,-2.03619c0,0 0.56215,-2.43598 2.99813,-1.87383c2.43598,0.56215 1.87383,2.99813 1.87383,2.99813c-0.44985,1.94333 -0.96503,3.85366 -1.53118,5.74317c1.288,-3.08783 2.38108,-6.2399 3.04375,-9.59562c0,0 0.4903,-2.45145 2.94174,-1.96116c2.45145,0.49029 1.96116,2.94174 1.96116,2.94174c-0.24657,1.21898 -0.54214,2.41231 -0.87816,3.58607c0.90114,-2.16869 1.56055,-4.36111 1.52671,-6.87636c0,0 0,-2.5 2.5,-2.5c0.82198,0 1.37369,0.27026 1.74401,0.63306c0.13863,-0.28435 0.27857,-0.56806 0.41991,-0.85108c0,0 1.11803,-2.23607 3.3541,-1.11804c0.73508,0.36754 1.10769,0.8559 1.2767,1.34593c0.19542,0.04163 0.40222,0.10854 0.62061,0.2056c1.17563,0.5225 1.47739,1.38111 1.49335,2.09153c0.56268,0.31543 0.8596,0.82212 1.01627,1.26904c0.15482,-0.68731 0.28627,-1.41972 0.40017,-2.22959c0,0 0.35356,-2.47488 2.82843,-2.12131c2.47487,0.35357 2.12131,2.82843 2.12131,2.82843c-0.04873,0.33647 -0.10068,0.66366 -0.15604,0.98295c0.38358,0.91821 0.03864,1.89553 0.03864,1.89553c-0.02812,0.07967 -0.05624,0.15932 -0.0844,0.23897c0.25522,0.00087 0.5363,0.04173 0.84528,0.13442c2.39457,0.71837 1.6762,3.11293 1.6762,3.11293c-0.04686,0.1562 -0.09372,0.3124 -0.14058,0.4686c0.01091,0.00301 0.02185,0.00608 0.03282,0.00922c2.40381,0.6868 1.71701,3.09061 1.71701,3.09061c-0.15247,0.52714 -0.30492,1.05427 -0.45739,1.58141c0.25598,0.00827 0.53679,0.05763 0.84416,0.16008c2.3717,0.79057 1.58113,3.16228 1.58113,3.16228c-0.19065,0.57148 -0.37536,1.14388 -0.55483,1.71713c1.99395,0.79405 1.39191,2.96141 1.39191,2.96141c-1.83906,6.62013 -3.01914,13.51219 -5.29835,19.9887c0.02657,0.07013 0.05722,0.15906 0.08658,0.26278c1.84682,-4.4096 3.65111,-8.8338 5.2455,-13.35264c0,0 0.83205,-2.35747 3.18953,-1.52542c2.35747,0.83205 1.52543,3.18953 1.52543,3.18953c-0.31025,0.87878 -0.62826,1.75404 -0.95284,2.62636c0.34658,-0.01336 0.73919,0.05474 1.18017,0.24373c2.29786,0.9848 1.31306,3.28266 1.31306,3.28266c-0.04496,0.10477 -0.08954,0.20964 -0.13375,0.31462c0.13091,-0.27287 0.26409,-0.54536 0.39982,-0.81745c0,0 1.11804,-2.23607 3.35411,-1.11803c2.23606,1.11804 1.11803,3.35411 1.11803,3.35411c-1.68715,3.3659 -2.95482,6.80907 -4.35548,10.30609l-1.24453,2.4939c0,0 -1.11802,2.23607 -3.3541,1.11804c-0.32706,-0.16352 -0.58236,-0.35097 -0.7799,-0.55184l-0.30804,-0.0148c-0.22239,0.57468 -0.45365,1.14669 -0.69616,1.71536l-1.37753,-1.81498l-2.6181,-0.12578c-0.05087,0.1221 -0.10171,0.24422 -0.15251,0.36637c0.06638,1.10901 -0.78198,1.95738 -0.78198,1.95738l-2.87865,-1.49069c-0.93455,1.79893 -1.79357,3.6392 -2.59126,5.50772l-0.46177,0.93321c0,0 -1.11802,2.23608 -3.3541,1.11806c-1.31647,-0.65822 -1.47036,-1.70399 -1.37427,-2.45282c-0.33404,0.54136 -0.67909,1.07532 -1.0276,1.6035l-0.64403,1.33127c0,0 -1.11802,2.23607 -3.3541,1.11805c-0.60128,-0.30063 -0.96004,-0.68211 -1.16322,-1.07922c-0.15649,0.22604 -0.31349,0.45159 -0.47069,0.67679l-1.24807,1.66635c0,0 -1.49999,2.00001 -3.5,0.50001c-0.24859,-0.18644 -0.44311,-0.38061 -0.59315,-0.5777c-0.46009,1.0175 -0.91432,2.03869 -1.36331,3.06424l-1.79138,2.27519c0,0 -1.56174,1.95217 -3.51391,0.39043c-0.19109,-0.15287 -0.34851,-0.30949 -0.47702,-0.46764l-2.36124,1.01548c0,0 -2.5,0 -2.5,-2.5c0,-1.37466 0.75588,-1.99345 1.43637,-2.27199c0.64615,-0.95783 1.23551,-1.94018 1.77379,-2.94519c-0.59828,0.46887 -1.74489,1.03096 -3.07191,-0.03065c-0.51738,-0.4139 -0.78794,-0.85524 -0.90617,-1.28038c-1.66649,-1.37711 -0.41221,-3.25853 -0.41221,-3.25853l1.40473,-2.0489c0.32733,-1.23798 0.65466,-2.47594 0.98199,-3.71392c-0.55046,1.06569 -1.12709,2.12364 -1.73597,3.18991l-4.94232,-1.64976c0,0 -0.79059,-2.3717 1.58111,-3.16229c0.12313,-0.04104 0.242,-0.07357 0.35671,-0.09834c0.79486,-1.5062 1.52938,-3.02033 2.22665,-4.60255c-0.06814,-0.07127 -0.13211,-0.14656 -0.19151,-0.22548c-0.00985,0.02955 -0.0197,0.0591 -0.02955,0.08865l-2.18497,2.08956c0,0 -2.08013,1.38674 -3.46688,-0.69339c-0.85311,-1.27967 -0.39416,-2.29692 0.08539,-2.89033c-0.22647,-0.04848 -0.46757,-0.13247 -0.72328,-0.26033c-2.23607,-1.11803 -1.11804,-3.3541 -1.11804,-3.3541l0.24475,-0.48949c-0.18219,-0.67248 -0.06013,-1.28278 -0.06013,-1.28278zM115.03936,168.24542c0.454,-0.49538 1.18541,-0.90634 2.31397,-0.63417c0.05485,-0.12778 0.1097,-0.25558 0.16452,-0.38337c-0.5004,-0.36603 -0.97822,-0.75614 -1.4406,-1.18432c-0.33656,0.74407 -0.6819,1.47638 -1.03789,2.20186zM129.75198,171.72651c-0.03189,-0.01648 -0.06333,-0.03272 -0.0943,-0.0487c-0.03433,0.17227 -0.07886,0.32146 -0.11897,0.43661c0.07207,-0.12877 0.14318,-0.25807 0.21327,-0.38791zM139.38674,138.13013c0,0 -0.15561,0.10375 -0.41009,0.21192c-1.04675,3.56448 -1.69202,6.99899 -2.54353,10.68233c-0.75688,3.274 -1.81085,6.24131 -2.55508,9.41984c0.58153,0.43239 1.58311,1.47366 0.75803,3.12382c-1.11803,2.23607 -3.3541,1.11804 -3.3541,1.11804l-1.6,-0.80001c-0.6633,-0.33276 -1.3156,-0.63491 -1.95803,-0.92761l-0.92439,1.01211c-0.61652,-0.51377 -4.01143,-4.45888 -5.31657,-3.66729c-0.54394,0.3299 -0.90578,0.85014 -1.22468,1.41832c0.09835,0.20391 0.20756,0.40466 0.3251,0.60085c3.78517,2.02338 7.08663,4.77493 10.93465,6.6915c0.74774,0.37242 1.55652,0.64419 2.23867,1.12637c0.25487,0.18016 0.23575,0.98574 0.48659,0.8c0.28347,-0.20988 -0.21806,-0.70035 -0.153,-1.04701c0.32619,-1.7378 1.30122,-3.4165 2.07363,-4.96132c3.21643,-6.43288 3.39525,-13.14351 5.29227,-19.79993c0.0593,-2.04139 -0.14098,-4.13607 -1.0043,-5.81488c-0.09212,0.00795 -0.18187,0.01665 -0.27096,0.02615zM125.3877,145.24277l-1.49966,0.07379c-0.79991,1.55542 -1.60977,3.10631 -2.42275,4.65568c0.7514,-0.21457 1.49517,-0.35128 2.18576,-0.40359c0.60298,-1.42855 1.17884,-2.87219 1.73665,-4.32588z" fill="#696969" stroke-width="0.5"></path>
      <path d="M214.72635,129.61317c-0.06479,-0.43893 -0.0809,-0.87787 -0.01419,-1.31682c0.01253,-0.08248 0.02646,-0.16459 0.04169,-0.24635h-0.05386v-3.2c0,-1.38071 1.11929,-2.5 2.5,-2.5c1.27326,0 2.32421,0.95186 2.48007,2.18281l0.38138,2.66946c0.21448,0.87756 0.3763,1.66786 0.4896,2.40079c0.4259,1.36125 0.50703,2.93192 0.26496,4.44694h0.084l0,3.59999c0,1.38071 -1.11929,2.5 -2.5,2.5c-0.13683,0 -0.2711,-0.01099 -0.40196,-0.03214c-0.36785,0.91215 -1.27999,1.36822 -1.27999,1.36822l-3.02813,1.04463c-1.12753,-0.14152 -2.22932,-0.4187 -3.30952,-0.78267l-0.07068,0.35342l-3.95459,-0.79091c-1.16847,-0.20986 -2.05513,-1.23166 -2.05513,-2.46054c0,-1.1246 0.74256,-2.07576 1.76412,-2.38994l2.3453,-0.78177l0.03155,0.09464l0.206,-0.16099c0.33207,-0.04219 3.15479,-0.03966 5.12487,-0.27907c-1.8963,-2.29166 -3.69305,-2.5568 -6.98572,-3.71906c-10.12822,-3.57511 -21.74753,-3.70567 -31.94188,-0.01066c-3.95387,1.43311 -7.6418,2.59231 -9.96412,6.23361c0,0 -1.38676,2.08012 -3.46688,0.69337c-2.08012,-1.38676 -0.69337,-3.46688 -0.69337,-3.46688c3.13777,-4.56303 7.32037,-6.31393 12.43591,-8.16638c11.23636,-4.06895 24.08137,-3.95497 35.25813,-0.01066c2.59494,0.91576 4.57223,1.5991 6.31243,2.72698z" fill="#696969" stroke-width="0.5"></path>
    </g>
  </g>
</svg>
