<?xml version="1.0" encoding="UTF-8"?>
<svg xmlns="http://www.w3.org/2000/svg" xmlns:xlink="http://www.w3.org/1999/xlink" version="1.1" width="236.81133" height="256.14207" viewBox="0,0,236.81133,256.14207">
  <g transform="translate(-78.47468,-56.21436)">
    <g stroke="none" stroke-miterlimit="10">
      <g stroke-width="0.5">
        <path d="M183.70213,181.09973c0,-0.63106 0.23381,-1.2075 0.61954,-1.64743c0.04267,-0.30868 0.08786,-0.61554 0.13552,-0.92043c-0.11233,-0.28428 -0.17404,-0.59408 -0.17404,-0.91829c0,-0.61634 0.22304,-1.18058 0.5928,-1.61643c0.00622,-7.09398 1.99246,-13.29301 4.85584,-19.74363c0.696,-1.56795 1.52969,-4.25532 2.57662,-5.6669c0.59833,-0.80673 4.00107,-3.92381 4.78764,-4.82442c2.16945,-2.48398 4.15418,-5.33363 6.48481,-7.65528c2.95801,-2.94662 6.83359,-5.30916 10.17258,-7.81341c0,0 1.38168,-1.03627 2.70954,-0.23776c4.79281,-2.35035 9.88425,-2.84319 14.96661,-4.23694c7.09966,-1.94697 15.30409,-4.81535 22.611,-1.61783c0.9876,0.43218 1.70257,1.32944 2.61801,1.89873c2.33331,1.45103 5.09122,2.11529 7.46381,3.43337c1.88949,1.0497 3.54594,2.47886 5.39941,3.59094c2.17793,1.62974 5.17419,3.08644 7.17924,4.80348c0.83622,0.7161 1.30162,1.77976 2.02982,2.60546c2.84971,3.23125 6.05536,5.90977 8.37237,9.62011c2.08409,3.33736 3.0174,7.18425 4.76122,10.66189c1.12372,2.24101 2.4225,4.44178 3.08176,6.86051c1.87662,6.88496 1.26102,14.70797 1.23362,21.80498c-1.96465,10.02085 -6.52976,19.22621 -12.66127,27.3616c-0.65438,0.86825 -3.95384,3.87198 -4.78769,4.82445c-0.80896,0.92403 -2.83958,4.01056 -3.60703,4.77801c-2.84089,2.84087 -6.44484,4.11382 -9.74984,6.16912c-0.91544,0.56929 -1.63385,1.4588 -2.61803,1.8987c-1.75799,0.78577 -3.75238,0.98082 -5.47654,1.83828c-5.30866,0.92359 -9.318,1.20999 -14.31296,0.4397l-0.83048,0.25904c-9.0662,-1.61307 -17.87728,-2.46028 -26.2575,-6.65039c-3.88791,-1.96141 -6.40596,-4.40403 -9.36512,-7.44064c-1.49752,-1.53671 -2.31834,-1.41801 -4.13528,-2.51063c-3.03494,-1.82505 -6.70509,-4.26254 -9.22834,-6.78579c-7.78779,-7.7878 -10.07247,-20.37954 -9.14401,-31.36705c-0.1936,-0.35505 -0.30362,-0.76223 -0.30362,-1.19511zM239.07553,231.47315l2.8144,0.04855c0.31507,0.06301 0.62379,0.12166 0.92695,0.17608l1.85937,-0.67736c0,0 2.11821,-0.70606 3.01828,1.21815c2.54657,0.08502 4.99577,-0.16252 8.03868,-0.64288c1.56273,-0.78572 3.38174,-0.94163 4.98195,-1.64791c0.78589,-0.34687 1.3028,-1.13042 2.0302,-1.58741c2.9561,-1.85718 6.29795,-2.90641 8.84298,-5.45141c1.32794,-1.32792 2.12894,-3.10482 3.36526,-4.51845c1.39354,-1.59339 3.24355,-2.77492 4.50877,-4.47201c5.55736,-7.45428 9.86979,-15.78368 11.74182,-24.93073c-0.02974,-6.49818 0.62851,-13.73099 -1.09045,-20.02894c-0.57229,-2.09677 -1.75865,-3.97698 -2.7285,-5.92205c-1.66389,-3.33699 -2.53788,-7.06246 -4.53524,-10.25505c-2.17292,-3.4732 -5.25112,-5.92383 -7.89639,-8.97277c-0.54801,-0.63163 -0.8217,-1.49813 -1.45628,-2.04272c-1.8874,-1.61974 -4.6956,-2.93672 -6.76544,-4.49298c-1.7393,-1.04358 -3.28599,-2.39629 -5.05909,-3.38136c-2.43356,-1.35199 -5.24939,-2.03526 -7.64282,-3.53894c-0.72742,-0.457 -1.24796,-1.23243 -2.03022,-1.58746c-5.98406,-2.71585 -13.46947,0.30734 -19.22288,1.86837c-4.74185,1.28656 -9.6545,1.6281 -14.08128,3.89571c0,0 -1.21514,0.60756 -2.30176,0.03115c-3.03885,2.23822 -6.57853,4.3701 -9.22264,7.02607c-2.25811,2.26823 -4.18107,5.03645 -6.29784,7.4514c-1.3953,1.59184 -3.22629,2.7879 -4.50872,4.47199c-0.51018,0.66996 -1.92377,4.45935 -2.07161,4.79159c-2.70115,6.07047 -4.41523,11.72053 -4.441,18.39607c-2.08491,10.63422 -1.45276,25.14245 6.83329,33.4285c3.04984,3.04983 7.02575,4.91832 10.58607,7.1945c4.04413,2.58549 6.37552,6.39578 10.84322,8.60596c3.48754,1.74376 6.35989,2.22506 10.05277,3.32585c2.77514,0.82722 5.30469,1.94451 8.24938,2.23264c0.6014,0.05884 1.20643,0.09721 1.8113,0.1372c0.46542,-0.14936 0.84749,-0.14936 0.84749,-0.14936z" fill="#c19e4b"></path>
        <path d="M238.22623,231.67248c-0.60487,-0.03999 -1.21165,-0.07845 -1.81306,-0.13729c-2.94469,-0.28813 -5.48245,-1.40669 -8.25758,-2.23391c-3.69288,-1.10079 -6.57504,-1.58557 -10.06258,-3.32934c-4.4677,-2.21018 -6.81054,-6.02801 -10.85466,-8.6135c-3.56032,-2.27618 -7.5443,-4.1537 -10.59413,-7.20353c-8.28606,-8.28605 -8.92704,-22.82606 -6.84213,-33.46028c0.02577,-6.67555 1.74455,-12.34374 4.4457,-18.41422c0.14784,-0.33225 1.56385,-4.12613 2.07403,-4.79609c1.28243,-1.68409 3.11695,-2.88523 4.51225,-4.47707c2.11677,-2.41494 4.04645,-5.19016 6.30456,-7.45839c2.64412,-2.65598 6.19322,-4.79423 9.23207,-7.03245c1.08662,0.5764 2.30359,-0.03206 2.30359,-0.03206c4.42678,-2.26761 9.35341,-2.61336 14.09525,-3.89993c5.7534,-1.56103 13.25747,-4.58345 19.24154,-1.8676c0.78226,0.35503 1.305,1.13102 2.03241,1.58802c2.39343,1.50367 5.21695,2.1898 7.65051,3.54179c1.7731,0.98506 3.32504,2.34064 5.06434,3.38422c2.06985,1.55626 4.88449,2.87803 6.77189,4.49777c0.63458,0.54459 0.91006,1.41272 1.45807,2.04436c2.64527,3.04893 5.73096,5.50873 7.90388,8.98193c1.99736,3.19259 2.87623,6.92803 4.54012,10.26502c0.96985,1.94508 2.15797,3.83139 2.73026,5.92815c1.71897,6.29796 1.06112,13.5502 1.09086,20.04837c-1.87203,9.14705 -6.19582,17.5004 -11.75318,24.95469c-1.26522,1.69708 -3.1195,2.88299 -4.51304,4.47639c-1.23632,1.41362 -2.04134,3.19381 -3.36928,4.52173c-2.54503,2.54501 -5.89526,3.5992 -8.85136,5.45638c-0.7274,0.45699 -1.24643,1.24148 -2.03233,1.58835c-1.60021,0.70628 -3.42379,0.86382 -4.98652,1.64954c-3.04291,0.48036 -5.49941,0.72953 -8.04598,0.64451c-0.90007,-1.92422 -3.021,-1.21783 -3.021,-1.21783l-1.86121,0.67749c-0.30316,-0.05442 -0.61277,-0.11303 -0.92784,-0.17604l-2.81713,-0.04853c0,0 -0.38289,-0.00002 -0.8483,0.14934z" fill="#ffce66"></path>
      </g>
      <path d="M224.80413,205.15833c8.53552,4.3266 21.55932,6.63201 30.20621,1.44343c0.37633,-0.2986 0.75266,-0.59718 1.12899,-0.89578l0.95603,-1.20972c0,0 0.72975,-0.91217 1.70624,-0.48259l0.7394,-1.60339c0.53333,0.17777 1.06667,0.35555 1.6,0.53332c4.28795,1.4293 9.71078,2.71521 13.05937,5.90534c1.61462,1.53822 2.67136,4.65272 0.50741,6.52472c-2.279,1.97153 -8.48696,-0.31472 -11.25937,-1.447c1.93528,3.04538 2.95806,6.82904 -1.58137,8.15221c-2.27777,0.66394 -5.9237,-0.74219 -7.7235,-2.12992c-0.54722,-0.42194 -1.59604,-1.58052 -2.17015,-2.3401c-0.08208,0.36661 -0.20676,0.72034 -0.25097,0.98601c-1.12718,3.28232 -4.49558,7.17947 -8.4333,4.61166c-0.32739,-0.21349 -1.72579,-2.60773 -2.04205,-3.13482c-0.14939,-0.24898 -0.34311,-0.73737 -0.47155,-1.17027c-0.34535,0.43868 -1.04491,0.8937 -1.47046,1.15144c-2.02007,1.22348 -6.01109,2.89684 -8.04544,0.48819c-0.59275,-0.70181 -0.77355,-1.52322 -0.71601,-2.37669c-3.12194,1.8493 -6.54263,3.37565 -10.11216,2.01581c-1.9972,-0.76085 -2.83584,-2.27305 -2.76271,-3.85322c-2.25677,0.70361 -4.59134,1.0572 -6.84234,0.45363c-2.40134,-0.64389 -3.87193,-1.25627 -2.66505,-4.353c0.11268,-0.28912 2.79239,-1.94754 3.28909,-2.19652c3.40807,-1.70833 6.98924,-3.26109 10.55619,-4.60227c0,0 0.4524,-0.16965 0.93996,-0.05963c0.70251,-0.98835 1.85753,-0.41085 1.85753,-0.41085z" fill="#292f33" stroke-width="0.5"></path>
      <path d="M288.44987,167.67566l-0.0796,-0.04366l-0.45169,0.60226c-0.45492,0.62045 -1.18915,1.02329 -2.01746,1.02329c-1.38071,0 -2.5,-1.11929 -2.5,-2.5c0,-0.41989 0.10352,-0.8156 0.28642,-1.16301l0.15651,-0.31302l-0.29175,-0.29175l0.87522,-0.87521l0.39956,-0.79913c0,0 0.88069,-1.76139 2.64208,-1.37594c0.05782,-0.004 0.11618,-0.00603 0.17501,-0.00603c1.38071,0 2.5,1.11929 2.5,2.5c0,0.57191 -0.19204,1.09896 -0.51515,1.52019l-0.04577,0.06103c-0.1984,1.03768 -1.13337,1.66098 -1.13337,1.66098z" fill="#363636" stroke-width="0.5"></path>
      <path d="M225.58529,171.46164c1.37133,0 2.5564,0.42987 3.11687,1.05329c1.15644,0.30214 1.95387,0.94103 1.95387,1.68031c0,0.80069 -0.93538,1.4836 -2.24919,1.74849l3.0537,-0.01364c-0.108,4.35998 -3.78743,10.68011 -13.92048,10.5405c-2.10214,-0.02896 -4.43603,-0.14063 -6.12382,-0.81682c-6.48625,-2.59862 -1.74991,-7.59945 -1.379,-10.91834c-0.6402,0.04484 -3.33954,0.13466 -3.93684,-1.47535c-0.6789,-1.82993 2.71553,-2.19592 2.71553,-2.19592c4.08853,-0.39559 7.21348,-0.18718 10.59194,0.39619c1.48902,-0.0242 3.10078,-0.32044 4.41853,0.03495c0.13617,0.03673 0.27034,0.0751 0.40265,0.115c0.41651,-0.09571 0.87491,-0.14867 1.35626,-0.14867z" fill="#714c19" stroke-width="0.5"></path>
      <path d="M278.54404,176.09881c0,2.36631 -0.02828,5.67695 -1.9196,7.87183c-3.42035,3.96934 -14.651,6.2338 -20.03633,2.07922c-1.06274,-0.81987 -0.89565,-1.96543 -1.28783,-2.95545c-0.99963,-2.52357 -0.89336,-4.8687 -0.88423,-7.42491c-0.31942,0.10932 -0.62318,0.23147 -0.90924,0.36798c0,0 -2.80723,1.18289 -4.91268,-0.39428c-2.10545,-1.57717 0.70178,-2.76006 0.70178,-2.76006c1.4193,-0.5559 2.59367,-1.40193 4.25791,-1.6677c4.66172,-0.74446 11.07233,-0.06116 16.02811,-0.53253l4.13317,0.53253c0,0 1.51579,0.28386 2.16078,1.04315c0.93595,0.27835 1.62086,0.78762 1.81431,1.39273l0.80277,2.25515l-0.12414,0.01395z" fill="#714c19" stroke-width="0.5"></path>
      <path d="M286.55438,183.15764c-0.45966,1.13919 -0.91932,2.27839 -1.37898,3.41758c-0.93489,1.24395 -2.0569,2.41452 -3.32121,3.48711c-1.88509,2.55194 -3.47775,5.27071 -6.41332,6.79897c-7.03724,3.66359 -19.37078,4.3646 -25.15868,-2.35568c-2.38535,-2.76961 -3.88979,-8.08566 -4.59923,-11.57003c-0.61112,-3.0015 -0.52216,-5.28887 -2.4537,-7.70572c0,0 -0.05437,-0.07249 -0.1286,-0.20023c-0.43012,-0.07099 -1.12788,-0.27385 -1.60329,-0.85361l0.00004,-0.00002c-1.07761,-0.33207 -2.3558,-0.42533 -2.74744,0.67191c-0.16577,0.46442 -0.20791,0.94555 -0.18603,1.43592c0.63437,0.79118 0.48604,1.73489 0.33025,2.2497c0.0646,0.40692 0.11229,0.81253 0.1112,1.21283c-1.22886,7.47257 -3.10874,13.33875 -9.89255,17.60813c-6.36984,4.00885 -12.60552,3.88559 -19.74827,2.66161c-2.45814,-0.42123 -4.19753,-0.65499 -6.2689,-2.17911c-2.92736,-2.15397 -4.78058,-4.98818 -5.9157,-8.20397v-2.10377c-0.00497,-0.68931 0.08787,-1.48364 0.21366,-2.33582c-1.14645,-0.68045 -1.14645,-2.16713 -1.14645,-2.16713l0.04855,-1.65234c0.4012,-2.00601 0.34882,-4.65262 1.55992,-6.41067c-0.35414,0.18346 -0.72214,0.34383 -1.08511,0.50674c-0.16369,0.07347 -0.33035,0.14032 -0.49865,0.20347l-0.98618,0.98618l-0.05273,-0.05273c-0.08117,0.10651 -0.16549,0.21094 -0.25326,0.31307c-0.90744,1.05584 -2.4773,1.26841 -3.72201,1.8949l-2.80958,1.68574c-0.38339,0.2392 -0.83629,0.37741 -1.32147,0.37741c-1.38071,0 -2.5,-1.11929 -2.5,-2.5c0,-0.81467 0.38967,-1.53833 0.9928,-1.99475l0.00218,-0.00437c-0.38192,-0.0104 -0.76329,-0.02436 -1.14273,-0.03668c0.05763,-0.40763 0.11525,-0.81525 0.17288,-1.22287l-0.00001,-0.00001c0,0 0.10749,-0.7524 0.6188,-1.36822c0.00162,-0.0071 0.00328,-0.01419 0.00496,-0.02127c-0.04438,-0.18645 -0.06787,-0.38099 -0.06787,-0.58103c0,-0.99801 0.58479,-1.85943 1.43041,-2.26029l2.27567,-1.13783l0.0201,0.0402c0.04649,-0.03853 0.09356,-0.07649 0.14122,-0.11383c0.02301,-0.01802 3.20725,-1.07675 5.35853,-1.79085c-0.92159,-0.87014 -1.74806,-1.90901 -2.12536,-3.10101c-1.90642,-6.023 2.96973,-8.8803 7.72898,-10.16485c-2.82343,-3.31749 -0.14586,-11.95581 4.87671,-12.87051c1.17996,-0.21489 2.21303,0.93649 3.35996,1.28727c1.06987,0.32721 2.31019,0.17246 3.27345,0.74152c1.2663,0.74809 2.25926,1.91365 3.17252,3.06652c0.52707,0.66536 0.9808,1.42287 1.24671,2.23185c1.73064,-1.80394 4.41892,-2.91194 6.9345,-2.66694c5.43447,0.52928 6.26422,5.70746 9.11012,8.97426c1.84118,2.11348 4.12817,3.04895 6.35242,4.7065l2.12499,1.0625c0.24983,0.11843 0.4769,0.27707 0.67284,0.46755c1.34944,-0.1723 2.71032,-0.26326 4.06786,-0.2685l1.29257,0.28922c1.14355,-0.91456 2.31245,-2.22837 3.26686,-3.64066l0.75781,-1.51561l0.0965,0.04825c0.05622,-0.16977 0.12091,-0.3372 0.1954,-0.50192c0.12899,-0.28524 0.28485,-0.55034 0.4624,-0.79926c0.10588,-0.25863 0.19942,-0.51408 0.27917,-0.76452c0.71477,-2.24459 0.26641,-4.7449 2.59024,-6.40464c2.27586,-1.62548 7.4347,-1.45624 9.40788,0.60001c0.67727,0.70578 -0.69638,1.898 -0.60365,2.87177c0.02969,0.31173 0.58835,-0.23659 0.8364,-0.4277c0.54395,-0.41908 0.96085,-0.99226 1.5214,-1.38886c0.92189,-0.65227 1.9634,-1.11978 2.90513,-1.74307c2.52185,-1.66911 3.77491,-4.34059 6.01848,-6.08444c1.3359,-1.03835 2.79196,-2.8091 4.44544,-2.45019c5.38417,1.16872 3.65508,5.40137 3.20484,8.41649c-0.38734,0.96837 -0.64824,1.99748 -1.16203,2.90511c-0.19727,0.34848 -1.17616,0.46496 -0.91989,0.77266c0.26816,0.32197 0.77582,-0.31707 1.15997,-0.48439c0.71913,-0.31322 1.43983,-0.62343 2.14968,-0.95714c3.55292,-1.6703 8.5046,-3.96212 10.91285,1.38836c0.63504,1.41088 -0.14791,3.11514 -0.55174,4.60872c-0.36007,1.33172 -0.93566,2.43752 -1.67099,3.36239c0.68572,0.84946 1.49827,1.64377 1.7444,2.68437c0.28713,1.21397 -0.35914,2.46895 -0.53125,3.70448c-0.1984,1.42423 0.39666,3.21957 -0.58029,4.27473c-1.08966,1.1769 -3.03982,1.07119 -4.62059,1.34254c-0.27621,0.04741 -0.91659,-0.62986 -0.72551,-0.42484c2.1711,2.32944 1.27196,4.80228 0.66075,7.8341c-0.2998,1.48714 -0.68353,2.84031 -1.17937,4.10358zM249.43833,172.15684c0.52742,3.16642 1.2421,5.37286 2.22281,8.31505c0.79356,2.38072 1.02432,4.77428 2.56855,6.90292c3.01652,4.1581 8.62617,4.57694 13.16929,3.65853c4.06894,-0.82256 7.40891,-1.55261 10.31366,-3.74182c0.16012,-0.22724 0.32271,-0.45241 0.48959,-0.67397c1.64091,-1.61332 2.79895,-3.31708 3.61902,-5.18861l0.46634,-2.37907c0,0 0.15234,-0.7617 0.71177,-1.35102c0.17024,-0.7923 0.30567,-1.61502 0.41394,-2.47225c0.24508,-1.94038 -1.83115,-3.98215 -1.04596,-5.77342c0.64101,-1.46236 2.44505,-2.14407 3.92272,-2.74896c0.72761,-0.29785 1.72725,0.65818 2.35171,0.1805c0.4346,-0.33244 -0.58787,-0.98841 -0.58029,-1.53553c0.00953,-0.68708 0.67838,-1.30473 0.64673,-1.97222c-0.57925,-0.12909 -0.97424,-0.42192 -1.24357,-0.76124c-1.43,0.61609 -2.98474,1.04292 -4.54043,1.38036c-0.41922,0.71511 -1.13434,1.07266 -1.13434,1.07266l-1.86909,0.81092c-9.86985,1.62186 -19.81688,1.76692 -29.83208,1.7765c0.00362,0.05549 0.00505,0.11042 0.00454,0.16467l0.46651,0.65448c0,0 0.53221,2.1287 -1.39485,2.89615c0.21309,0.42344 0.27341,0.78538 0.27341,0.78538zM205.63141,170.1997c-0.53162,1.05382 -1.39138,1.93745 -2.05049,2.91732c-0.02148,0.74048 -0.41417,1.51791 -0.76998,2.29406c0.0624,0.48731 0.21068,0.98708 0.1671,1.47029c-0.08141,0.90266 -0.56235,1.75249 -0.56885,2.65879c-0.06174,8.60958 7.41327,12.43059 14.89048,12.60702c2.37532,0.05605 2.23322,-0.94778 4.49645,-1.62088c1.05883,-0.3149 2.24415,-0.10693 3.27577,-0.50198c1.51432,-0.5799 2.55718,-1.99538 3.86395,-2.95549c2.16382,-2.94513 3.85049,-4.96614 4.54552,-8.59997l0.53083,-1.1929c0.00003,-1.86532 0.03874,-4.2507 0.2656,-4.66404c0.2127,-0.38756 0.44396,-0.73731 0.69133,-1.05181c-0.23724,-0.3823 -0.37422,-0.83333 -0.37422,-1.31635c0,-0.48517 0.13821,-0.93807 0.3774,-1.32146l0.92161,-1.53605l0.40099,-1.0025c-1.04761,0.32184 -2.12679,0.51778 -3.43097,0.61553c-1.14005,2.04377 -3.27836,0.97462 -3.27836,0.97462c-2.54052,-1.37695 -4.68116,-0.89474 -7.59736,-0.89813c-5.45848,-0.00633 -10.74923,1.04631 -16.08799,2.10644c-0.05122,0.58236 -0.26879,1.01751 -0.26879,1.01751z" fill="#292f33" stroke-width="0.5"></path>
      <g stroke-width="0.5">
        <path d="M258.56775,197.0822c2.45685,2.64828 2.60301,8.05943 0.21899,10.88524c-1.3587,1.61049 -4.93979,3.69138 -7.57362,2.74033c-0.39287,0.5065 -0.81041,0.95238 -1.24144,1.28635c-4.92727,3.81763 -11.78104,0.95413 -16.3801,-2.32528c-0.57304,0.23643 -1.1546,0.43054 -1.76705,0.47102c-4.5935,0.30361 -7.93946,-3.14573 -7.92395,-7.74422c0.012,-3.55567 2.88648,-5.91515 5.33766,-7.89785c0,0 1.13062,-0.9045 2.35934,-0.47638c0.4622,-1.04073 0.91702,-2.03182 1.2927,-2.92816c1.68673,-4.02444 2.55829,-8.49157 3.93798,-12.63386l0.35104,-0.2165c-0.0793,-0.34243 -0.07931,-0.59294 -0.07931,-0.59294c0.07868,-1.28679 -0.41526,-2.74779 0.23602,-3.86038c1.94734,-3.32662 5.60019,-4.75822 9.06582,-2.459c1.07279,0.71173 1.04658,2.35252 1.56986,3.52879l0.45365,1.78427c0,0 0.13174,0.52697 0.02677,1.15105c0.35596,0.5644 0.42856,1.1452 0.42856,1.1452c0.62311,5.15595 3.26831,10.4883 4.75015,15.81301c1.65735,0.53734 3.99693,1.31608 4.93692,2.32932zM238.296,204.12715c-0.10894,-0.06572 -0.21526,-0.1347 -0.31851,-0.20674c0.02805,0.06582 0.05209,0.13146 0.07245,0.19678c0.08336,0.06659 0.17158,0.13388 0.2657,0.20247c-0.00214,-0.01693 -0.00416,-0.03384 -0.00606,-0.05072c-0.00531,-0.04731 -0.00984,-0.09458 -0.01359,-0.14178z" fill="#ff924c"></path>
        <path d="M230.83995,194.34389c0.03932,-0.06291 0.07932,-0.12535 0.12001,-0.18731c0,0 0.0028,-0.0042 0.00832,-0.0119c0.13834,-0.21939 0.36888,-0.4609 0.73398,-0.53395c0.16027,-0.04509 0.34295,-0.05658 0.54447,-0.00601c0.18288,0.02665 0.37459,0.09948 0.54911,0.25318c0.15064,0.10986 0.25294,0.24178 0.32143,0.3788c0.1053,0.17552 0.14557,0.35521 0.14898,0.52295c0.03027,0.24793 -0.02508,0.4577 -0.11621,0.62933c-0.33275,1.38722 0.08607,2.3101 0.09998,3.86098l0.03388,-0.48389c0,0 0.88388,0.88388 0,1.76776c-0.88388,0.88388 -1.76777,0 -1.76777,0l-0.50615,-0.84823c-0.47735,-0.0728 -0.86591,-0.41562 -1.00495,-0.86772l-0.39088,-1.17265l0.18857,-0.06286l-0.25271,-0.33243c0.13664,-0.45346 0.29669,-0.90277 0.48212,-1.34134c-0.05479,-0.22383 -0.08213,-0.45049 -0.08213,-0.65866z" fill="#863528"></path>
        <path d="M256.38579,198.84527l-1.10195,1.28857c0,0 -0.48703,0.48704 -1.09958,0.37652c-0.1678,0.0176 -0.36015,-0.00141 -0.57958,-0.07455c-1.18586,-0.39528 -0.79058,-1.58113 -0.79058,-1.58113l0.33585,-0.80472c-0.24883,-0.6481 -0.34351,-1.34872 -0.37951,-2.04951c-0.03964,-0.14622 -0.05066,-0.31467 -0.01717,-0.50759c-0.00153,-0.08116 -0.00259,-0.16216 -0.00332,-0.24291c0,0 0,-1.25 1.25,-1.25c0.76483,0 1.06169,0.46797 1.17691,0.83125c1.61821,0.87403 1.82082,1.91106 1.20892,4.01406z" fill="#863528"></path>
      </g>
      <path d="M78.47468,56.21436z" fill="#ff9500" stroke-width="0"></path>
      <g stroke-width="0.5">
        <g>
          <path d="M170.3114,236.25644c-0.56805,-0.78048 -1.64025,-0.7682 -1.64025,-0.7682l-1.80796,0.02594c-6.23086,0.55185 -11.81203,-0.48118 -17.98419,-1.21903c-4.75776,-2.38916 -9.59671,-4.58307 -13.80244,-7.92309c-4.05023,-3.21655 -5.76913,-8.02146 -7.89073,-12.48199c-2.22456,-4.67701 -3.9731,-9.07514 -4.4363,-14.30515c-0.44225,-4.6727 1.15423,-7.32321 3.24803,-11.13099c0.99256,-1.80505 0.48502,-4.25925 1.63965,-5.96519c0.83074,-1.22738 4.78227,-3.26204 6.07173,-3.9669c3.95657,-2.16285 8.57737,-2.72977 13.04049,-3.42024c5.51665,-0.85346 10.36549,-1.9679 15.81033,-0.22261c2.48953,0.27185 3.81549,1.49538 6.05452,2.58272c11.69485,5.67938 14.87871,17.27281 18.72898,28.577c0,0 0.28306,0.81473 1.00943,1.17725c0.15604,0.25242 0.31089,0.40437 0.31089,0.40437c4.74463,4.4649 12.72353,5.25965 18.61083,7.94133c5.65496,2.57587 7.60022,11.43958 8.20836,16.93167c-1.62529,4.85475 -2.07308,9.13458 -7.02853,11.78201c-3.41037,1.82197 -7.30853,-0.63932 -10.73291,2.8035c-0.82607,0.83052 -2.73476,3.96568 -2.98843,5.20425c-0.59885,2.92412 1.8603,10.73461 -3.78903,7.75572c-3.3527,-3.3258 -4.09362,-8.26605 -6.12656,-12.39545c-3.04752,-6.19027 -8.3873,-9.25004 -14.50594,-11.38694z" fill="#781616"></path>
          <g>
            <g>
              <path d="M213.35952,237.56143c-0.09067,-0.01189 -0.17655,-0.02745 -0.2579,-0.04633c-5.96094,0.11357 -11.67944,-3.07979 -14.96466,-8.2123c-1.90788,-2.98069 -2.79533,-6.80773 -5.25898,-9.3806c-7.26806,-5.48681 -16.50332,-3.81538 -24.26,-8.25095c-6.91605,-3.95486 -8.32516,-10.21576 -12.64628,-16.20653c-6.90953,-8.20951 -15.67896,0.35738 -23.66775,-0.09634c-5.30544,-0.30131 -9.93113,-3.2446 -10.14101,-8.77037c0,0 -0.01756,-1.51872 1.31567,-1.89679c0.27778,-0.2522 0.54225,-0.37445 0.54225,-0.37445c2.54974,-1.08389 4.01353,-3.59379 6.60338,-4.92798c9.45634,-4.87155 21.02988,-8.19728 31.67451,-5.98259c4.64087,1.57306 9.18822,2.47715 12.77456,6.13098c7.66848,7.81281 7.37041,20.29681 14.55666,27.94153l0.63988,0.51973c0.2978,0.10423 0.49077,0.23455 0.49077,0.23455c8.20033,5.56824 21.57689,4.91067 24.80852,16.18929c0.97625,3.4072 0.35165,7.42978 0.05711,10.89014l-0.07027,0.55164c0,0 -0.07901,0.60265 -0.48472,1.09248l0.095,0.37577c-0.23312,0.03477 -0.46626,0.06428 -0.69929,0.08863c-0.28848,0.12889 -0.65144,0.19023 -1.10747,0.13045zM211.80953,225.53154c-2.7564,-9.25801 -16.27131,-9.3578 -23.24114,-14.04241c0,0 -0.00195,-0.00131 -0.00567,-0.00393c-0.41256,-0.14577 -0.68706,-0.37561 -0.68706,-0.37561l-1.10764,-0.94645c-7.2106,-7.75601 -6.95579,-20.09526 -14.49728,-27.87937c-3.01882,-3.11594 -7.08669,-3.75262 -11.00705,-5.08974c-9.59908,-2.0425 -20.3496,1.32231 -28.83991,5.68399c-2.49952,1.28406 -3.86341,3.3837 -6.23824,4.7299c0.75352,3.09167 5.2779,4.35109 8.26031,3.72912c2.80479,-0.58494 5.4201,-2.16906 8.2087,-2.85203c5.98714,-1.46634 12.28371,-0.09774 16.38912,4.54951c3.97847,5.51811 5.20402,11.64023 11.50109,15.2264c8.0495,4.58416 17.26848,2.88654 24.95811,8.75392c5.45794,5.92967 7.22294,16.36477 16.35229,16.64733c0.28667,-2.64844 0.68431,-5.67893 -0.04564,-8.1306z" fill="#783232"></path>
              <path d="M211.91134,233.69539c-9.12937,-0.28256 -11.01269,-10.77087 -16.47064,-16.70054c-7.68963,-5.86737 -16.90237,-4.11608 -24.95187,-8.70026c-6.29706,-3.58617 -7.42994,-9.68801 -11.40841,-15.20614c-4.10541,-4.64726 -10.38644,-6.03071 -16.37361,-4.56437c-2.7886,0.68296 -5.39763,2.25685 -8.20243,2.8418c-2.98242,0.62199 -7.62408,-0.69482 -8.3776,-3.78649c2.37484,-1.3462 3.74379,-3.45454 6.24332,-4.7386c8.49032,-4.36167 19.27754,-7.75236 28.87663,-5.70984c3.92036,1.33712 8.01138,1.97186 11.03021,5.08781c7.54148,7.7841 7.34555,20.19379 14.55614,27.94979l1.10731,0.94948c0,0 0.27437,0.2308 0.68692,0.37657c0.00373,0.0026 0.00565,0.00393 0.00565,0.00393c6.96982,4.6846 20.48077,4.79915 23.23717,14.05718c0.72993,2.45167 0.32785,5.49121 0.04119,8.13963z" fill="#a14343"></path>
            </g>
            <path d="M209.75635,224.71412c-0.85556,1.76176 -2.61731,0.90618 -2.61731,0.90618l0.25115,0.0382c-3.01091,-0.53477 -6.88614,-1.23696 -8.9104,-3.81361c-1.39831,-1.77985 -1.37726,-3.54241 -3.38136,-4.88698c-3.79519,-2.5463 -8.69405,-1.91026 -12.54481,-4.79436c-2.50232,-1.87417 -3.30217,-4.87269 -5.68327,-6.71767c0,0 -0.22524,-0.18171 -0.43268,-0.49203c-0.08095,-0.03009 -0.12707,-0.05249 -0.12707,-0.05249l-1.95643,-0.95344c-2.83402,-1.82916 -4.50311,-3.17431 -5.01282,-6.68164c-0.54212,-3.73045 2.35773,-9.9533 -3.08212,-11.20624c-4.39672,0.69791 -7.30241,0.41239 -11.55451,-0.87555c-2.79821,-0.84756 -5.13246,-2.72321 -8.19018,-2.09724c-5.71197,1.16933 -8.81634,7.12429 -14.80322,6.73842c-2.23804,-0.14425 -2.98868,-0.85064 -4.91822,-1.91409c0,0 -1.70847,-0.95755 -0.75092,-2.66601c0.95755,-1.70847 2.66601,-0.75092 2.66601,-0.75092c4.96413,2.84066 5.89621,0.19545 9.854,-2.48286c1.74123,-1.17831 5.07462,-2.37285 7.17342,-2.76334c5.08234,-0.94557 9.56548,2.3489 14.37456,3.4791c2.00251,0.47061 4.39189,-0.33496 6.38153,-0.57761c1.02178,0.2791 2.15346,0.29839 3.06531,0.83732c7.61404,4.50006 0.01617,13.45946 6.7005,17.5372l1.76419,0.85343c0,0 0.50734,0.24638 0.84529,0.74697c0.28429,0.12842 0.46291,0.27253 0.46291,0.27253c2.29993,1.90829 3.17459,4.88313 5.57025,6.62985c3.76355,2.74407 8.59597,2.11088 12.40598,4.69514c2.35717,1.59882 2.8019,3.55549 4.27296,5.72735c1.12897,1.6668 4.72824,2.04589 6.48835,2.35081l0.78268,0.29632c0,0 1.76176,0.85556 0.90618,2.61731z" fill="#b17878"></path>
          </g>
          <g>
            <path d="M172.06854,218.26082c-0.13645,0.33913 -0.31323,0.55826 -0.31323,0.55826c-2.63115,3.25199 -7.44243,9.7511 -7.67261,14.05323c-0.04413,0.82484 3.46158,1.38639 3.84313,1.49171c4.93929,1.36329 10.23144,3.20755 14.95687,5.10175c4.10739,1.3949 8.11283,2.524 12.31026,3.55389c1.18601,0.29099 2.31545,0.94156 3.53656,0.95633c0.54206,0.00655 1.81073,0.02283 1.56046,-0.45804c-0.47978,-0.92191 -1.54816,-1.40648 -2.16814,-2.2406c-3.98279,-5.35855 -8.72481,-10.13377 -13.86315,-14.43507c-3.66456,-3.07521 -7.88902,-6.21999 -12.19016,-8.58145zM169.51692,215.74895l2.13901,-2.10821c5.3093,2.59304 10.58721,6.41307 15.11739,10.19823c5.37077,4.49791 10.32471,9.4949 14.49056,15.09938c0.8017,1.07855 3.0396,3.71117 2.93475,4.83562c-0.22452,2.408 -3.26378,3.92481 -5.25765,4.1133c-0.59719,0.05647 -4.01537,-0.89948 -4.67907,-1.06288c-4.34327,-1.06933 -8.49804,-2.24196 -12.74669,-3.68809c-4.57878,-1.88436 -9.81328,-3.66999 -14.62562,-4.99484c-2.57715,-0.70949 -5.96013,-1.36216 -6.6658,-4.59708c-0.20768,-0.95206 0.45248,-1.89564 0.67839,-2.84355c1.19002,-4.99304 4.59921,-10.35838 7.80463,-14.34137c0,0 0.30938,-0.38346 0.81012,-0.61054z" fill="#868686"></path>
            <path d="M184.29331,226.78689c5.13834,4.30128 9.90495,9.1594 13.88772,14.51794c0.61997,0.83412 1.68689,1.32161 2.16669,2.24351c0.25026,0.48088 -1.02008,0.46761 -1.56215,0.46106c-1.2211,-0.01476 -2.35249,-0.66225 -3.53851,-0.95326c-4.1974,-1.02989 -8.23339,-2.13464 -12.34078,-3.52953c-4.72544,-1.8942 -10.10607,-3.79239 -15.04537,-5.15569c-0.38156,-0.10531 -3.88762,-0.67445 -3.8435,-1.4993c0.23017,-4.30213 5.07283,-10.85641 7.70399,-14.10838c0,0 0.17866,-0.22022 0.3151,-0.55934c4.30113,2.36145 8.59226,5.50775 12.2568,8.58296z" fill="#a2a2a2"></path>
          </g>
          <path d="M172.47664,221.95787c2.59307,-2.09517 4.80844,-7.7578 5.84029,-10.75576c0.34214,-0.99405 1.52299,-2.09698 0.98058,-2.99754c-0.43893,-0.72875 -1.8447,-1.70618 -3.1339,-2.54967c-1.8931,4.92594 -4.27103,9.03123 -8.12553,12.70134l-0.22434,0.22996c1.11934,1.17667 3.83564,4.04012 4.6629,3.3717zM173.68543,201.51488c1.18445,-1.55975 2.74421,-0.37529 2.74421,-0.37529c1.46883,1.11584 5.58859,3.52816 6.3657,5.3019c1.95612,4.4648 -2.94179,11.1095 -5.14794,14.71062c-0.50781,0.82889 -2.34976,3.78726 -3.2452,4.21677c-4.13228,1.9821 -6.99515,-1.90842 -9.66122,-4.33366l-1.04014,-1.30338c0,0 -0.9364,-1.21891 -0.07025,-2.32662c0.16492,-0.30997 0.35164,-0.50104 0.35164,-0.50104l1.35751,-1.38735c3.47648,-3.29693 5.55932,-6.98718 7.23836,-11.45234c0,0 0.21353,-0.56485 0.71713,-0.94869c-0.11597,-0.4453 -0.07012,-0.99478 0.39018,-1.60093z" fill="#343434"></path>
          <path d="M167.76195,218.62589l0.22409,-0.23028c3.8545,-3.67011 6.30239,-7.8776 8.1955,-12.80353c1.28919,0.84349 2.72203,1.8364 3.16096,2.56514c0.54241,0.90055 -0.62791,2.01648 -0.97003,3.01053c-1.03185,2.99795 -3.31331,8.75934 -5.90638,10.85451c-0.82727,0.66843 -3.5848,-2.21969 -4.70413,-3.39636z" fill="#434343"></path>
          <path d="M187.12038,235.32876c-1.40079,-1.36877 -0.032,-2.76956 -0.032,-2.76956l0.52948,-0.52924c2.90751,-3.59675 5.38352,-7.14054 5.42682,-11.88336c0,0 0.03027,-1.95827 1.98855,-1.92799c0.1937,0.00299 0.36793,0.02485 0.52467,0.06181c1.27282,-1.18462 2.60799,0.02999 2.60799,0.02999c1.23825,1.12669 2.46016,2.27187 3.6577,3.44173l0.33409,0.32644c0,0 0.96963,0.94745 0.5072,2.07254c0.63134,4.38774 -0.6428,9.31888 -3.49291,12.7368c-1.86678,2.2387 -4.8204,4.16173 -7.85178,2.88942c-0.99819,-0.41894 -1.64719,-1.40511 -2.47079,-2.10766l-0.87338,-0.72911c0,0 -0.74104,-0.62048 -0.7461,-1.51025c-0.03648,-0.03203 -0.07301,-0.06584 -0.10956,-0.10156zM191.48525,234.77216c4.85262,4.89885 7.90523,-6.56818 7.21281,-10.59595c-0.63035,-0.61046 -1.26745,-1.21403 -1.91002,-1.81169c-0.64512,4.54986 -2.98513,8.19958 -5.92761,11.88313z" fill="#343434"></path>
          <path d="M190.81907,234.29816c2.94245,-3.68355 5.3413,-7.44668 5.98641,-11.99655c0.64258,0.59766 1.30108,1.21166 1.93144,1.82213c0.69241,4.02776 -2.43357,15.60268 -7.28618,10.70383z" fill="#434343"></path>
          <g>
            <path d="M148.80213,224.90918c-0.89562,0.09975 -1.0505,-0.81266 -1.0505,-0.81266c-0.773,-5.12794 5.78594,-6.91669 8.73596,-2.93349c1.31494,1.77546 0.45244,4.88199 -1.65239,5.6665c-2.37475,0.88514 -4.56719,-0.24981 -6.03306,-1.92036zM149.95454,221.96783c0.04538,0.14491 0.05149,0.2557 0.05149,0.2557l0.03121,1.25204c1.05715,1.44525 5.57049,2.73586 5.09838,-0.41365c-0.34076,-2.27328 -4.037,-2.81168 -5.18106,-1.09408z" fill="#868686"></path>
            <path d="M155.20087,223.06197c0.47211,3.14952 -4.17091,1.86956 -5.22805,0.42432l-0.0288,-1.28325c0,0 -0.00424,-0.11573 -0.04962,-0.26065c1.14406,-1.71759 4.9657,-1.15368 5.30648,1.1196z" fill="#a2a2a2"></path>
          </g>
          <g>
            <path d="M135.85491,207.27397c-0.02865,-0.01615 -0.04445,-0.02682 -0.04445,-0.02682c-4.44981,-3.57037 3.35898,-7.26115 6.65657,-4.30943c2.33338,2.08864 2.34615,5.58629 -1.00447,6.74637c-2.12749,0.7366 -3.6647,-0.36044 -5.2731,-1.53579zM136.49978,205.38052c0.72306,-0.08004 0.98149,0.6664 0.98149,0.6664l0.26129,0.90828c0.98976,0.57422 1.82895,1.31107 3.07921,0.8782c2.09518,-0.7254 1.60174,-3.39331 -0.31289,-4.0437c-1.04341,-0.35443 -4.77234,0.78715 -4.0091,1.59081z" fill="#868686"></path>
            <path d="M140.53734,203.73097c1.91463,0.65038 2.41767,3.43009 0.32249,4.1555c-1.25025,0.43287 -2.18376,-0.32398 -3.17354,-0.89821l-0.2702,-0.93793c0,0 -0.25738,-0.76202 -0.98044,-0.68198c-0.76324,-0.80366 3.05831,-1.99183 4.10171,-1.63739z" fill="#a2a2a2"></path>
          </g>
          <g>
            <path d="M136.46828,218.16634c-1.84363,-4.52263 7.53233,-6.01357 8.26069,0.07288c0.63109,5.27356 -7.3403,5.24285 -8.28224,0.43264zM138.32356,216.97316c0.14561,0.27175 0.1319,0.56197 0.1319,0.56197l-0.05377,1.01835c0.20914,1.74722 3.9076,2.80758 4.45555,0.84581c1.17703,-4.21387 -3.55723,-3.11864 -4.53367,-2.42615z" fill="#868686"></path>
            <path d="M142.91591,219.42785c-0.54796,1.96177 -4.37023,0.87731 -4.57938,-0.86989l0.05763,-1.04535c0,0 0.01842,-0.30031 -0.1272,-0.57205c0.97642,-0.69249 5.82598,-1.72656 4.64895,2.48731z" fill="#a2a2a2"></path>
          </g>
          <g>
            <path d="M147.00296,213.96391c-0.34367,-0.10575 -0.55189,-0.40263 -0.55189,-0.40263c-3.48594,-5.36606 4.86013,-7.02694 7.42198,-2.87139c2.73055,4.42917 -3.49506,7.10748 -6.50562,4.27612zM147.79236,212.06727c0.6224,0.01762 0.84898,0.67205 0.84898,0.67205l0.38008,1.17784c1.32932,1.42281 4.5237,-0.35155 3.19763,-2.17844c-1.25417,-1.72787 -5.93399,-2.09081 -4.4267,0.32858z" fill="#868686"></path>
            <path d="M152.2828,211.72456c1.32607,1.82689 -1.96727,3.67037 -3.2966,2.24756l-0.40625,-1.21061c0,0 -0.23035,-0.68047 -0.85275,-0.6981c-1.50729,-2.41939 3.30143,-2.06672 4.5556,-0.33885z" fill="#a2a2a2"></path>
          </g>
          <path d="M200.42444,249.82281c-3.62799,3.82308 0.2536,9.40634 -3.12337,13.22284c-2.28206,2.57907 -6.25717,1.25189 -8.63978,0.1387c-4.97272,-4.81319 -5.19111,-11.90779 -9.49927,-17.10061c-3.02654,-3.64804 -6.65202,-5.07495 -10.9505,-6.47108c-0.29405,0.07007 -0.99995,0.17696 -1.59725,-0.21187c-6.47838,0.4852 -12.36055,-0.48857 -18.80937,-1.39481c-5.23923,-2.47989 -10.61258,-4.91533 -15.14008,-8.6143c-7.81494,-6.38479 -12.8866,-19.62159 -13.75601,-29.43807c-0.45285,-5.41762 1.1843,-8.94121 3.74244,-13.40736c1.08863,-1.90059 0.63175,-4.48727 1.85644,-6.3032c1.1014,-1.63312 5.69499,-4.20355 7.37296,-5.11368c4.40467,-2.38906 9.36356,-3.07783 14.30662,-3.84221c5.97331,-0.92367 11.32913,-2.06052 17.23901,-0.16617c2.82081,0.41878 4.38758,1.66198 6.90076,2.88247c12.72692,6.18059 16.27954,18.26819 20.56957,30.52335c0.27761,0.15675 0.44636,0.32166 0.44636,0.32166c4.0413,4.17457 12.39172,4.55749 17.57732,7.19278c7.19948,3.65875 9.85202,13.47081 10.3934,20.86523c-0.0173,0.05609 -0.03454,0.11219 -0.0517,0.16826c-0.5268,0.26777 -0.78559,0.80066 -0.78559,0.80066c-0.59727,1.26184 -1.00292,2.63124 -1.19539,4.01398l0.01391,1.50553c-0.82119,2.19961 -1.87232,4.21674 -3.54873,5.87456c-0.18469,0.02645 -0.30473,0.068 -0.30473,0.068c-1.80959,0.62654 -5.09977,1.76568 -6.90936,2.3922c0,0 -0.48773,0.16886 -0.81968,0.59095c-1.94936,-0.01707 -3.87318,0.01121 -5.28803,1.50216zM184.78808,247.58503c2.03293,4.1294 2.77395,9.06961 6.12665,12.39541c5.64934,2.97888 3.18124,-4.82621 3.78009,-7.75033c0.25366,-1.23857 2.15561,-4.36817 2.98168,-5.19868c3.42441,-3.44284 7.31375,-0.9713 10.72412,-2.79326c4.95544,-2.64743 5.39488,-6.9105 7.02018,-11.76527c-0.60814,-5.4921 -2.55661,-14.33223 -8.21157,-16.90811c-5.88729,-2.6817 -13.8591,-3.44982 -18.60374,-7.91472c0,0 -0.15413,-0.1506 -0.31017,-0.40301c-0.72637,-0.36252 -1.00704,-1.17318 -1.00704,-1.17318c-3.85029,-11.30419 -6.97745,-22.8675 -18.67231,-28.54688c-2.23903,-1.08734 -3.55592,-2.31172 -6.04546,-2.58359c-5.44484,-1.74529 -10.27331,-0.63785 -15.78996,0.21563c-4.46312,0.69048 -9.07068,1.24791 -13.02726,3.41076c-1.28945,0.70488 -5.2351,2.7333 -6.06582,3.96068c-1.15465,1.70593 -0.6429,4.15446 -1.63547,5.95952c-2.09382,3.80777 -3.68367,6.44538 -3.24142,11.11807c0.46319,5.23001 2.21576,9.61032 4.44031,14.28731c2.12161,4.46053 3.83861,9.24366 7.88884,12.4602c4.20573,3.34003 9.03206,5.50913 13.78984,7.89832c6.17215,0.73784 11.71258,1.74762 17.94344,1.19578l1.80158,-0.02661c0,0 1.06641,-0.01233 1.63446,0.76814c6.11864,2.1369 11.4315,5.20357 14.47902,11.39384z" fill="#4e0e0e"></path>
        </g>
        <g>
          <path d="M288.30472,304.54921l0.21262,-0.57717c-1.67721,-0.92461 -3.37965,-1.79777 -5.12888,-2.56723c1.0554,2.0321 2.40903,4.07524 4.94561,3.35765c-0.02832,-0.12415 -0.02935,-0.21326 -0.02935,-0.21326zM298.77288,309.12332l-0.20592,0.15896c0.04175,0.06839 0.0791,0.14733 0.11059,0.23831c0.27978,0.80808 -0.39042,1.15481 -0.56481,1.22972l-0.45927,0.65966c0,0 -0.30643,0.3136 -0.71907,0.31606c-0.41207,0.33188 -0.79745,0.61056 -0.95257,0.6273c-0.99348,0.10721 -4.92031,-2.61578 -5.51447,-3.44812c-0.50904,-0.71309 -0.36974,-2.26044 -0.4246,-3.3285l-0.74024,0.93059c-4.92832,1.64843 -6.76933,-2.97383 -8.69746,-6.2226c0,0 -0.20251,-0.34508 -0.12806,-0.72352c-0.19986,-0.24247 -0.29704,-0.45275 -0.29704,-0.45275l-0.8809,-1.90577c-0.78851,-1.72505 -1.25081,-3.44896 -1.94113,-5.17169c-0.65534,-0.38237 -0.9112,-1.12137 -0.9112,-1.12137l0.0249,-0.04432c-2.97805,-5.12253 -1.69429,-13.58239 5.37344,-14.9248c0.64183,-0.12191 1.45603,-0.04981 2.27582,0.09139c0.49781,-0.05305 0.90862,0.07864 0.90862,0.07864c2.68882,1.0692 6.04954,-1.62142 8.7079,-2.54513l1.71839,-0.35304c0,0 0.95475,-0.18503 1.64905,0.37847c0.82718,-0.47521 1.49024,-1.22371 2.42968,-1.43406c2.95582,-0.66183 5.2062,2.91658 5.16117,5.37781l-0.35541,0.91311c0,0 -0.24343,0.50127 -0.74116,0.56389c0.80328,0.60253 1.60595,1.2116 2.40115,1.82912c0.04418,-0.04351 0.07458,-0.06687 0.07458,-0.06687l0.00003,0.00003c0.91375,-0.69998 2.23342,-1.88779 3.48834,-1.88656c2.66236,0.00261 5.82326,4.76747 4.70043,6.83252l-0.31784,0.677c0,0 -0.29214,0.60159 -0.89073,0.56904c0.25421,0.25766 0.50435,0.51731 0.75006,0.77912l0.35336,0.23299c0,0 1.08266,0.82215 0.75898,1.99853c0.67088,0.836 0.22069,1.94531 0.22069,1.94531c-2.52337,6.07116 -7.76617,11.71666 -12.9363,15.69188l-1.73683,0.70771c0,0 -0.24316,0.0842 -0.58371,0.10339c-0.39482,0.45649 -0.92721,0.64079 -0.92721,0.64079l-0.10894,-0.0049c-0.0241,0.02088 -0.04823,0.04178 -0.07233,0.06265zM292.053,307.75564c1.53213,1.63561 2.95934,2.66302 4.45853,1.71464c0.03455,-0.16915 0.07287,-0.33763 0.11436,-0.50543c-0.02266,-0.10138 -0.02467,-0.19723 -0.01273,-0.28628c-1.55565,-0.89782 -3.10246,-1.8255 -4.65846,-2.73945c0.01535,0.81574 0.03808,1.75223 0.09832,1.81652zM298.19595,310.64952c-0.01019,0.00882 -0.02116,0.01837 -0.0329,0.02858l-0.00524,0.00754zM312.18413,285.54127l0.45654,-0.91755c0.39149,-0.32696 -1.681,-3.09017 -2.39537,-3.71369c-0.59954,-0.52328 -2.00231,0.60703 -2.67688,1.16924c1.57124,1.26452 3.09386,2.56822 4.51201,3.92671c0.00428,-0.26 0.1037,-0.46472 0.1037,-0.46472zM302.57861,277.59213l0.16083,-0.14993c0.36137,-3.78641 -2.2,-3.05363 -4.26516,-2.24856c1.30575,0.98418 2.65199,1.97517 4.00564,2.98219c-0.03245,-0.31367 0.09869,-0.58371 0.09869,-0.58371zM285.71786,280.39321c-5.45297,-1.26481 -8.60834,3.41343 -6.0525,8.16326c0.59891,0.34367 0.88044,0.96742 0.88044,0.96742c0.9042,2.0225 1.3746,4.04084 2.30889,6.03532l0.78561,1.69964c5.16157,2.09925 9.89499,5.1232 14.7098,7.90087c0.38022,-0.38284 0.83349,-0.53976 0.83349,-0.53976l0.63209,-0.11248c4.47324,-3.43332 9.36912,-8.44786 11.56379,-13.73865l-0.43619,-0.34945c-4.44539,-4.7812 -10.56747,-8.89003 -15.7601,-12.80578c0,0 -0.14023,-0.10648 -0.30466,-0.29765c-2.73444,0.96523 -4.96665,2.39281 -7.50907,2.76194c-0.71191,0.53073 -1.65157,0.31537 -1.65157,0.31537z" fill="#343434"></path>
          <g>
            <path d="M277.30886,286.51701c0.92414,-0.10295 1.00122,-1.57445 1.60518,-2.28147c0.61269,-0.71723 4.10468,-4.75142 3.62952,-5.74131c-0.12806,-0.2668 -1.93999,-0.97709 -3.2393,-1.47843c-0.0595,0.13738 -0.1197,0.27378 -0.1809,0.40885c-0.03005,-0.16821 -0.03138,-0.3305 -0.01321,-0.48371c-0.52166,-0.20103 -0.93308,-0.3593 -1.07127,-0.42642c0,0 -0.65193,-0.3166 -0.97003,-0.96118c-5.48481,-3.34046 -11.04111,-6.52738 -16.49228,-9.96536c-13.1015,-8.26414 -26.279,-16.3628 -39.40101,-24.57916c-0.29128,-0.12975 -0.47498,-0.27794 -0.47498,-0.27794c-0.02829,-0.02287 -0.05961,-0.04905 -0.09374,-0.07825c-0.08837,-0.05536 -0.17672,-0.11073 -0.26508,-0.1661c0.00826,-0.01567 0.0162,-0.03135 0.02383,-0.04704c-0.93734,-0.84537 -2.89781,-2.74279 -3.63434,-2.78194c-0.74451,-0.03958 -2.73066,2.90451 -3.08415,3.42806c-2.35433,3.48701 -3.45992,5.07403 0.67348,7.0278l0.34695,0.23975c0.05972,-0.02948 0.13235,-0.06897 0.21063,-0.11935c13.8868,7.52429 26.47634,17.24483 40.7102,24.14186c5.88687,3.71657 11.99538,7.2249 17.77959,11.11619l0.86779,0.81336c-0.08854,0.11424 -0.17669,0.22887 -0.26439,0.34394c1.2474,0.81405 2.92129,1.91423 3.33749,1.86786zM286.14907,276.96343c1.39866,3.48182 -3.22058,9.25103 -5.54623,11.40828c-0.79752,0.73979 -1.50881,1.81405 -2.58113,1.99692c-2.01355,0.34339 -5.27522,-2.13847 -7.05869,-3.0034l-1.86031,-0.90345c0,0 -1.24111,-0.60272 -1.13404,-1.8381c-4.70385,-3.02299 -9.57859,-5.85965 -14.28365,-8.8245c-13.45092,-6.54662 -25.44343,-15.59778 -38.46161,-22.90723c-0.76994,0.08648 -1.42646,-0.37948 -1.42646,-0.37948l-1.18751,-0.87551c-2.41271,-1.19593 -5.35508,-2.81721 -5.44624,-6.0246c-0.02758,-0.97057 0.70871,-1.80858 1.1001,-2.69715c1.3562,-3.07905 4.45867,-9.05694 8.47872,-9.1746c1.83962,-0.05383 4.66815,2.49907 6.19228,3.75737c13.2213,8.30128 26.52175,16.44432 39.732,24.77708c6.05584,3.82053 12.24115,7.32988 18.31598,11.08439c-0.02781,0.0469 -0.0553,0.09412 -0.08245,0.14158c1.90971,0.81295 4.64017,1.94629 5.24921,3.46242z" fill="#343434"></path>
            <path d="M274.02138,284.6911c0.0877,-0.11508 0.07531,-0.31298 0.16383,-0.42723l-0.76662,-0.73081c-5.78422,-3.89129 -11.90172,-7.39054 -17.78859,-11.10711c-14.23386,-6.89703 -26.92501,-16.69363 -40.81181,-24.21794c-0.07829,0.05038 -0.03083,0.14112 -0.09054,0.17061l-0.46712,-0.29081c-4.13341,-1.95377 -3.02305,-3.54991 -0.66871,-7.03693c0.35348,-0.52355 2.34407,-3.47385 3.08857,-3.43428c0.73654,0.03915 2.79859,2.01862 3.73593,2.864c-0.00765,0.01568 -0.01553,0.0313 -0.02378,0.04696c0.08836,0.05537 0.07522,0.02862 0.16357,0.08398c0.03412,0.02919 0.06544,0.05538 0.09374,0.07825c0,0 0.18378,0.14806 0.47506,0.27781c13.122,8.21635 26.41333,16.37264 39.51481,24.6368c5.45118,3.43798 11.00385,6.63522 16.48865,9.97569c0.31811,0.64458 0.96965,0.96202 0.96965,0.96202c0.13819,0.06712 0.54968,0.22527 1.07133,0.4263c-0.01817,0.15319 -0.13495,0.25984 -0.1049,0.42804c0.06122,-0.1351 0.12104,-0.27075 0.18057,-0.40813c1.29931,0.50136 3.22972,1.26651 3.35777,1.53332c0.47514,0.98988 -3.02249,5.03395 -3.63518,5.75118c-0.60395,0.707 -0.68386,2.18225 -1.60798,2.28521c-0.4162,0.04637 -2.09085,-1.05288 -3.33825,-1.86693z" fill="#434343"></path>
          </g>
          <path d="M312.11991,286.05797c-1.41816,-1.35849 -3.03703,-2.74642 -4.60828,-4.01092c0.67458,-0.56221 2.13386,-1.72558 2.73341,-1.20231c0.71437,0.62351 2.84715,3.47767 2.45566,3.80463l-0.47051,0.93816c0,0 -0.10599,0.21045 -0.11028,0.47044z" fill="#888888"></path>
          <path d="M302.52455,278.22349c-1.35364,-1.00702 -2.80195,-2.07669 -4.10769,-3.06088c2.06516,-0.80506 4.74214,-1.47718 4.38076,2.30923l-0.16427,0.15588c0,0 -0.14126,0.28211 -0.1088,0.59577z" fill="#888888"></path>
          <path d="M285.6724,280.3464c0,0 0.94469,0.21095 1.65659,-0.31978c2.54241,-0.36913 4.81027,-1.81059 7.54471,-2.77581c0.16443,0.19117 0.30604,0.29755 0.30604,0.29755c5.19263,3.91575 11.38339,8.08788 15.82878,12.86908l0.43621,0.35097c-2.19468,5.29078 -7.13775,10.36842 -11.61099,13.80174l-0.63494,0.11322c0,0 -0.45738,0.15777 -0.83762,0.54061c-4.81481,-2.77766 -9.6172,-5.83568 -14.77876,-7.93493l-0.78918,-1.70774c-0.93428,-1.99446 -1.40833,-4.04064 -2.31253,-6.06314c0,0 -0.28111,-0.62724 -0.88003,-0.97093c-2.55584,-4.74982 0.61868,-9.46572 6.07165,-8.20092z" fill="#434343"></path>
          <path d="M285.21348,292.78274c-2.25536,-4.81721 9.83329,-5.05417 7.6656,1.46878c-1.43039,4.30431 -7.64434,2.65613 -7.6656,-1.46878zM287.35295,293.76548c0.74381,1.36212 3.17705,1.55592 3.66742,-0.13115c0.69305,-2.38443 -2.36021,-2.87156 -3.56478,-2.3162c0.10737,0.37345 -0.06921,0.73709 -0.06921,0.73709l-0.18067,0.30512c-0.00089,0.00362 -0.0018,0.00726 -0.00269,0.01088c0.03696,0.04367 0.079,0.08823 0.12629,0.13366c0,0 0.56378,0.65087 0.02365,1.26061z" fill="#343434"></path>
          <path d="M288.35855,304.58612c0,0 -0.00111,0.09205 0.02721,0.2162c-2.53659,0.71758 -3.99786,-1.39905 -5.05327,-3.43113c1.74924,0.76946 3.56844,1.70002 5.24564,2.62463l-0.21959,0.59031z" fill="#888888"></path>
          <path d="M291.98772,307.75547c-0.06023,-0.06429 -0.06814,-1.04203 -0.08347,-1.85777c1.556,0.91394 3.21437,1.90602 4.77002,2.80384c-0.01195,0.08905 -0.01244,0.19069 0.01024,0.29207c-0.04148,0.1678 -0.08569,0.34604 -0.12025,0.5152c-1.49919,0.94838 -3.04439,-0.11773 -4.57652,-1.75335z" fill="#888888"></path>
          <path d="M312.24373,284.90908c0.1327,0.97023 -0.83753,1.10291 -0.83753,1.10291l-0.55854,-0.07581c-0.12599,4.31664 -4.25387,11.49271 -9.40775,8.21674c-5.39086,-3.72391 -10.23491,-8.48359 -15.83365,-12.0688c-1.613,-0.48885 -3.23716,-1.19659 -4.95842,-1.74831c0,0 -0.76031,-0.2437 -0.68783,-0.97752c-1.91063,-0.91134 -3.82581,-1.74572 -5.73641,-2.63765c-0.66788,0.61778 -1.33416,-0.03329 -1.33416,-0.03329l-0.28272,-0.42081c-7.23602,-2.43814 -14.14625,-8.29731 -20.47737,-12.572c-6.286,-4.2684 -13.29922,-7.39969 -19.64248,-11.55874c-0.50037,0.12762 -0.91185,-0.27447 -0.91185,-0.27447l-0.92472,-0.9112c-0.35648,-0.22285 -0.71294,-0.4457 -1.0694,-0.66854c-5.7411,-4.07672 -11.33259,-8.51052 -17.12597,-12.42302c0,0 -0.00249,-0.00168 -0.00712,-0.00501c-0.09541,-0.0296 -0.18589,-0.07364 -0.26809,-0.13042l-0.8562,-0.57821l0.01367,-0.02025l-0.05475,-0.00908c-0.41057,-0.34306 -0.82014,-0.68606 -1.22933,-1.02855c-1.0083,-0.463 -1.77819,-1.39445 -2.81184,-2.25993c-1.66436,-1.39353 -3.41233,-2.66312 -5.15371,-3.9591c-0.0341,0.02456 -0.06953,0.04885 -0.10631,0.07288l0.00001,-0.00001c-1.64005,1.07051 -2.71056,-0.56954 -2.71056,-0.56954l-0.38388,-0.59866c-1.81806,-2.40831 -4.35058,-3.77986 -6.74857,-5.54764c-6.34178,-4.67507 -12.09708,-9.91749 -19.73038,-12.35843c0,0 -1.86503,-0.5978 -1.26723,-2.46286c0.59781,-1.86505 2.46286,-1.26723 2.46286,-1.26723c8.07864,2.59522 14.15079,7.99151 20.86274,12.93837c2.71974,2.00451 5.42303,3.61014 7.5268,6.31152l0.55775,0.84391c0,0 0.15316,0.23466 0.25487,0.58439c1.8355,1.32614 3.6071,2.72355 5.35747,4.15541c0.19487,0.15747 0.38837,0.31625 0.5803,0.47651c1.00886,0.83141 2.01219,1.67298 3.01822,2.51762l0.00807,-0.01062l1.53159,1.16308c0.15137,0.05237 0.24974,0.11879 0.24974,0.11879c5.79323,3.9124 11.37728,8.34516 17.11949,12.41865c0.39779,0.25291 0.79559,0.50586 1.19338,0.75877l0.50548,0.49036c0.31665,0.01118 0.56718,0.18036 0.56718,0.18036c6.49472,4.41005 13.76144,7.60047 20.28893,11.98784c5.91224,3.99383 12.79188,10.05955 19.63658,12.22492c0.41381,-0.19966 0.86617,0.02003 0.86617,0.02003c2.54297,1.23494 5.09256,2.30891 7.63868,3.54539l1.06304,0.51625c0,0 0.16795,0.08156 0.32155,0.24678c0.4317,-0.26663 0.93937,-0.0201 0.93937,-0.0201l0.97415,0.47838c1.44419,0.37129 3.034,1.04711 4.53268,1.13947c1.00497,0.06193 2.02603,-0.12756 3.04379,-0.46556l0.18948,-0.12404c0.15268,-0.43134 0.62549,-0.59503 0.62549,-0.59503c0.9342,-0.32344 1.88095,-0.591 2.78039,-0.95018c0.69795,-0.388 1.38257,-0.78902 2.04686,-1.16615l-0.08223,-0.08035l0.96566,-0.98823c0.10515,-0.11222 0.23834,-0.20124 0.39377,-0.25505c0.51106,-0.17694 1.06881,0.09392 1.24574,0.60497c0.10616,0.3066 0.05114,0.62999 -0.12023,0.87789l-0.57822,0.85618l-0.05073,-0.03427l-0.02813,0.13593c-0.57786,0.50261 -1.17825,0.90033 -1.80084,1.23437c-0.60433,0.44194 -1.36324,0.79698 -1.9992,1.09346c-0.38591,0.1799 -0.76563,0.34084 -1.14043,0.48391c-0.10853,0.50623 -0.65375,0.69499 -0.65375,0.69499c-0.68199,0.23352 -1.38387,0.41617 -2.09389,0.5474c-0.73611,0.29435 -1.45419,0.46135 -2.16093,0.53009c4.32379,3.24289 8.34536,7.019 12.75575,9.90696c1.09686,0.81765 1.75064,0.37322 2.85142,-0.27626c3.34372,-1.97284 2.75383,-4.45225 4.20111,-7.81756l1.55226,-0.36447c0,0 0.97023,-0.1327 1.10291,0.83753z" fill="#1f1f1f"></path>
          <path d="M297.21788,307.22153c-0.88087,-0.4278 -0.45308,-1.30866 -0.45308,-1.30866l0.49786,-0.84392c2.93969,-2.53101 2.77871,-4.95129 2.82119,-8.49651c-1.54346,-2.74534 -4.46401,-3.29398 -7.13895,-4.40198c-2.54521,-1.05425 -5.04824,-1.91673 -7.5227,-2.88727c0.13416,0.27354 0.26125,0.55195 0.38113,0.8343c0.03187,0.04731 0.06359,0.09475 0.09516,0.14231c0,0 0.14697,0.22516 0.1689,0.51655c1.24687,3.30189 1.53371,7.02893 0.68073,9.78967l0.26623,0.17035c0,0 0.32039,0.92536 -0.60497,1.24574l-0.00001,0.00001c-0.92536,0.32039 -1.24574,-0.60497 -1.24574,-0.60497l-0.28055,-1.40893c0.32613,-0.96973 0.46199,-2.13188 0.42401,-3.37369c-0.09749,0.00232 -0.20508,-0.00985 -0.32361,-0.0407l-0.00003,0.00003c-0.94767,-0.24672 -0.70094,-1.19439 -0.70094,-1.19439l0.15928,-0.52841c0.08193,-1.60023 -0.17391,-2.99449 -0.67759,-4.23407c-1.29354,-1.83793 -2.86942,-3.49543 -4.51784,-5.12129c-0.30775,-0.12319 -0.62544,-0.21944 -0.9527,-0.28592c0,0 -0.95832,-0.20136 -0.75695,-1.1597c0.00607,-0.0289 0.01283,-0.05672 0.02024,-0.08355c-0.97563,-0.67157 -1.98183,-1.31637 -2.96573,-1.96454c-0.36826,0.04684 -0.68908,-0.15554 -0.68908,-0.15554l-1.08479,-0.68602c-4.08013,-1.98146 -8.57901,-2.96602 -12.35783,-5.51801c-6.16364,-4.18531 -13.02088,-10.71613 -20.11558,-13.04223c-5.87472,-3.89671 -12.2627,-6.70086 -17.69848,-11.22948c-0.2377,-0.08725 -0.3945,-0.24046 -0.3945,-0.24046l-0.91701,-0.90518c-1.67182,-1.00323 -3.13658,-1.9915 -4.90212,-2.85553c-5.30334,-4.06672 -11.439,-7.2444 -17.05073,-10.96348c-1.09281,0.8219 -2.28906,-0.08653 -2.28906,-0.08653l-1.1114,-0.84777c-9.37848,-6.33375 -19.97785,-13.01155 -27.7313,-21.30874c0,0 -1.3372,-1.43098 0.09378,-2.76816c1.43098,-1.3372 2.76816,0.09378 2.76816,0.09378c7.55128,8.08085 17.92971,14.56983 27.06159,20.73703l1.28808,0.97435c0,0 0.75639,0.5744 0.81571,1.44994c5.64838,3.77013 11.78582,6.99138 17.1802,11.05071c1.83079,0.8813 3.35069,1.92984 5.07527,2.97514l0.98786,0.95697c0.18739,0.0728 0.3098,0.1753 0.3098,0.1753c5.34648,4.4765 11.65706,7.08124 17.36978,11.03033c7.17004,2.23865 14.13648,9.00051 20.35612,13.18093c3.71234,2.50709 8.19707,3.47884 12.21341,5.42931l0.31165,0.19611c0.39949,-0.0732 0.75525,0.16708 0.75525,0.16708c0.79688,0.53816 1.60439,1.06944 2.40293,1.60674l0.91158,0.27799c0.42854,0.41873 0.85735,0.83526 1.28389,1.25182c0.60112,0.43994 1.1854,0.89101 1.74331,1.35946c0.87241,0.54169 1.65979,1.24692 2.35605,2.06865c6.06261,2.48059 15.26895,3.78884 18.44532,9.72194c0.12691,4.28812 0.05812,7.43002 -3.43408,10.4709l-0.01839,0.21911c0,0 -0.4278,0.88087 -1.30866,0.45308z" fill="#1f1f1f"></path>
          <path d="M289.18895,284.38034c-4.05904,-4.12842 4.40546,-7.01728 7.02929,-3.29671c1.61965,2.29667 -0.47018,5.92463 -3.22505,5.96459c-1.34692,0.01955 -2.49398,-1.12815 -3.43427,-1.91378zM290.38169,282.8735c0.18954,0.08744 0.32091,0.2363 0.40498,0.36355c0.09415,0.13097 0.19204,0.32001 0.19735,0.54417c0.49909,0.45597 1.352,1.31104 1.98651,1.30863c1.0672,-0.00405 2.44239,-1.83486 1.69458,-2.81309c-1.24682,-1.63095 -5.8016,-0.6887 -4.2834,0.59673z" fill="#343434"></path>
          <g>
            <path d="M294.57226,294.05373c-0.01685,-0.03694 -0.03259,-0.0763 -0.04709,-0.11819c-0.32039,-0.92536 0.60497,-1.24574 0.60497,-1.24574l1.2373,-0.31899c1.50892,0.20203 2.50249,0.4308 3.61652,0.9927c-0.76417,-1.40904 -1.03637,-2.95783 -0.43226,-4.00203c-0.14221,-0.39151 0.05174,-0.79089 0.05174,-0.79089l0.5619,-0.70872c2.28768,-1.15243 3.83736,-1.13656 6.226,-0.36507c4.08107,2.06358 3.30415,9.09836 -1.78752,9.23816c-0.98385,0.02702 -1.97096,-0.43202 -2.82628,-1.15058c0.05276,0.25821 0.08398,0.5178 0.09528,0.77679c1.54808,2.22301 -0.97246,5.1853 -3.4065,5.39641c-0.0367,0.00319 -0.07312,0.00549 -0.10924,0.00695c-1.36446,0.46673 -2.9341,0.20394 -4.34144,-1.26056c-2.52008,-2.62246 -1.84691,-5.5808 0.55665,-6.45022zM296.02375,296.72698c0.37708,0.23845 0.44279,0.71895 0.44279,0.71895l0.06632,0.78443c0.28233,0.29518 0.97684,1.34116 1.49964,1.55088c0.95329,-0.41017 1.75453,-1.40492 1.99377,-2.47881c-0.92698,-0.52763 -3.29156,-1.04802 -4.0025,-0.57548zM302.01244,290.47984c0.00064,0.00017 0.00128,0.00033 0.00192,0.0005c0.94767,0.24672 0.70094,1.19438 0.70094,1.19438l-0.35911,-0.14367c0.00091,0.01063 0.00168,0.02137 0.0023,0.03222c0.52099,0.62027 1.29954,1.85831 2.15985,1.97029c1.06823,0.13904 2.89232,-1.10211 2.1414,-2.2769c-0.85109,-1.33149 -4.40476,-1.69653 -4.64729,-0.77681z" fill="#343434"></path>
            <path d="M295.96479,296.69897c0.71093,-0.47254 3.19721,0.0577 4.12419,0.58533c-0.23924,1.0739 -1.11169,2.1515 -2.06499,2.56166c-0.52279,-0.20973 -1.27224,-1.30505 -1.55458,-1.60022l-0.06694,-0.81237c0,0 -0.06063,-0.49594 -0.4377,-0.7344z" fill="#888888"></path>
            <path d="M301.95208,290.45504c0.24253,-0.91972 3.92131,-0.53833 4.77241,0.79316c0.75093,1.17479 -1.13952,2.48965 -2.20775,2.35061c-0.86031,-0.11198 -1.70251,-1.41428 -2.22351,-2.03455c-0.0006,-0.01085 0.12917,-0.02263 0.12826,-0.03326l0.22874,0.14881c0,0 0.25141,-0.97758 -0.69624,-1.22429c-0.00065,-0.00016 0.11949,0.04929 0.11884,0.04911z" fill="#888888"></path>
            <path d="M285.74264,293.90086c-0.26008,-0.06504 -0.4423,-0.21762 -0.4423,-0.21762c-3.81307,-3.56699 2.68893,-7.4494 5.97531,-4.97649c4.99593,3.7593 0.6056,11.0716 -4.69959,6.74555l-0.66216,-0.93686c0,0 -0.18098,-0.27728 -0.17124,-0.61459zM286.92864,292.99921c0.393,0.08983 0.6253,0.44573 0.6253,0.44573l0.27943,0.50572c3.2142,2.78964 5.20687,-1.40921 2.31556,-3.64195c-1.40198,-1.08265 -5.60125,0.53649 -3.59128,1.8729c0,0 0.40553,0.33956 0.37099,0.81762z" fill="#343434"></path>
            <path d="M286.49285,292.17363c-2.00997,-1.33641 2.28555,-3.0048 3.68752,-1.92214c2.89132,2.23274 0.82761,6.54072 -2.38659,3.75107l-0.29358,-0.52055c0,0 -0.2418,-0.37669 -0.63479,-0.46652c0.03455,-0.47806 -0.37256,-0.84187 -0.37256,-0.84187z" fill="#888888"></path>
            <path d="M290.15025,281.67203c0.30736,0.627 -0.27031,1.12736 -0.27031,1.12736c-1.9498,1.15872 1.77839,3.29777 3.10712,3.13456c3.90982,-0.4803 2.39331,-5.42748 -1.46903,-4.95404c-0.27636,0.16769 -0.55271,0.3354 -0.82906,0.50308zM288.45943,281.46411c-0.03466,-0.06121 -0.06594,-0.13032 -0.09293,-0.20827c-0.32039,-0.92536 0.60497,-1.24574 0.60497,-1.24574l0.89741,-0.30567c0.33611,-0.19174 0.67222,-0.3835 1.00833,-0.57525c1.76602,-0.25493 4.00009,-0.25676 5.3396,1.19642c2.42168,2.6272 0.41943,7.06188 -2.95057,7.54684c-3.5386,0.50923 -7.54036,-3.40834 -4.80683,-6.40836z" fill="#343434"></path>
            <path d="M290.64851,281.43175c0.27636,-0.16769 0.5743,-0.34665 0.85065,-0.51435c3.86234,-0.47344 5.41595,4.59891 1.50614,5.07921c-1.32873,0.16322 -5.13787,-2.05673 -3.18807,-3.21544c0,0 0.59081,-0.52465 0.28345,-1.15165z" fill="#888888"></path>
            <path d="M294.07398,286.01594c-0.53525,-0.82002 0.28478,-1.35528 0.28478,-1.35528l0.25628,-0.09915c0.34594,-0.43509 0.60043,-0.95913 0.72848,-1.50004c0,0 0.24673,-0.94766 1.19439,-0.70094c0.94766,0.24673 0.70094,1.19439 0.70094,1.19439c-0.2166,0.78249 -0.58302,1.53698 -1.06405,2.19106l-0.74552,0.55474c0,0 -0.82002,0.53525 -1.35528,-0.28478z" fill="#343434"></path>
          </g>
        </g>
      </g>
      <g stroke-width="0.5">
        <path d="M171.69812,228.9459l0.33113,-0.27631c1.67661,-1.41876 3.26316,-3.07555 4.15137,-5.08428c0.0719,-0.1626 0.22051,-0.26899 0.28248,-0.43311c0.07559,0.22179 0.44214,1.11758 1.42369,1.0704c2.46428,3.21107 3.59031,7.43445 0.11673,10.14297c-5.56604,4.34011 -14.29436,4.4669 -20.99933,4.9518c-7.66742,-1.41497 -10.81358,-6.09142 -12.11429,-13.28573c-0.24714,-1.367 -0.79478,-2.82807 -0.39202,-4.15757c0.99557,-3.28636 5.15287,-4.46449 6.30601,-7.75263c0.67052,-1.91198 -0.05571,-5.0007 -0.6948,-7.16787c2.46583,-1.12815 4.99298,-3.26089 7.20469,-4.02196c4.94708,-1.70233 11.23203,-3.48588 16.42363,-4.38943c2.00064,-0.34819 3.1444,0.22047 4.96287,-0.92565c1.58455,0.29102 3.04853,1.12305 4.63414,1.41174c0.80045,0.14574 3.01215,-0.40771 4.00432,0.09598c5.8049,2.94698 3.04376,11.97004 -1.82802,14.58386c-0.44612,-1.28359 -1.8972,-0.8963 -1.8972,-0.8963l-0.44818,0.12684c-1.17427,0.32225 -2.42845,0.55129 -3.60164,0.72711c2.38564,-1.40757 4.1324,-2.3544 5.55188,-4.75652c0,0 0.7467,-1.29757 -0.55551,-2.04204c-1.30221,-0.74448 -1.95952,0.50875 -1.95952,0.50875c-1.01333,1.86019 -2.55266,2.5612 -4.3573,3.60082c-0.01032,-0.30775 -0.07617,-0.59353 -0.25523,-0.845c-0.00104,-0.00146 -0.00208,-0.00292 -0.00313,-0.00438c-0.01542,-0.05686 -0.03072,-0.1137 -0.04653,-0.17173l-0.10616,-0.06947l0.06765,-0.02928l-0.78325,-1.81606c-0.1232,-0.29375 -0.33821,-0.54806 -0.6361,-0.71838c-0.71919,-0.41117 -1.5659,-0.23311 -1.97706,0.48607c-0.24666,0.43145 -0.25264,0.93661 -0.06493,1.35834l0.68536,1.58041c-0.28352,0.51708 0.03941,1.20374 0.04817,1.79974l-0.40043,1.37639c0,0 -0.21943,0.79432 0.24496,1.36976c-0.04341,0.31058 -0.00958,0.70084 0.26981,1.04542c-1.63149,3.69583 -1.54389,7.18142 -5.13954,10.11836l-0.33438,0.27755c0,0 -1.17955,0.86362 -0.21967,2.01629c0.95989,1.15266 2.10539,0.19511 2.10539,0.19511z" fill="#b7b7b7"></path>
        <path d="M177.26679,191.88632c0.60784,3.24129 -7.14222,3.28372 -9.52545,4.04515c-3.87543,1.23817 -8.14739,1.79282 -11.96385,3.09879c-4.90036,1.67687 -9.31341,7.63326 -12.12243,0.43152c-0.26637,-0.68292 -0.44458,-1.40344 -0.66613,-2.10219c0,0 -0.02179,-0.06843 -0.06968,-0.17546c7.49447,-8.21567 19.31862,-10.27145 29.72654,-13.01636c0.56396,0.68881 1.26389,0.77578 1.80363,0.69626c1.21126,2.25286 2.09409,4.3609 2.81737,7.02229z" fill="#b7b7b7"></path>
        <path d="M159.65498,222.54538c-0.06682,1.49851 -1.56533,1.43168 -1.56533,1.43168l-1.05144,-0.04837c-2.66215,-0.00474 -5.17621,0.38492 -7.83034,0.44454c0,0 -1.49967,0.0316 -1.53127,-1.46808c-0.0316,-1.49967 1.46808,-1.53127 1.46808,-1.53127c2.67359,-0.05227 5.20699,-0.44184 7.89416,-0.44521l1.18446,0.05134c0,0 1.49851,0.06682 1.43168,1.56534z" fill="#6b6b6b"></path>
        <path d="M167.24463,224.59784c-0.08353,1.49767 -1.5812,1.41413 -1.5812,1.41413l-0.41515,-0.10024c-3.23543,0.86089 -6.92126,1.21703 -10.2858,1.29071c0,0 -1.49967,0.0316 -1.53127,-1.46807c-0.0316,-1.49967 1.46808,-1.53127 1.46808,-1.53127c3.09828,-0.06255 6.59888,-0.35521 9.56028,-1.18584l1.37092,-0.00064c0,0 1.49768,0.08353 1.41414,1.58121z" fill="#6b6b6b"></path>
        <path d="M169.60463,228.79936c-0.95989,-1.15266 0.19277,-2.11254 0.19277,-2.11254l0.33255,-0.27694c3.59565,-2.93693 3.47493,-6.37374 5.10641,-10.06958c-0.2794,-0.34459 -0.31261,-0.72866 -0.26921,-1.03924c-0.4644,-0.57544 -0.24303,-1.36186 -0.24303,-1.36186l0.40277,-1.37061c-0.00875,-0.596 -0.32768,-1.27575 -0.04416,-1.79284l-0.68041,-1.57435c-0.1877,-0.42172 -0.17888,-0.92413 0.06779,-1.35559c0.41117,-0.71919 1.3275,-0.96889 2.04669,-0.55773c0.2979,0.17031 0.51525,0.42729 0.63845,0.72104l0.78744,1.82198l-0.06768,0.02925l0.10639,0.06986c0.01581,0.05803 0.03145,0.11545 0.04687,0.1723c0.00104,0.00146 0.00208,0.00293 0.00314,0.00439c0.17906,0.25147 0.24646,0.54018 0.25681,0.84793c1.80463,-1.03962 3.25577,-1.69365 4.26908,-3.55385c0,0 0.74448,-1.30221 2.04669,-0.55773c1.30221,0.74448 0.55773,2.04669 0.55773,2.04669c-1.41949,2.40213 -3.16364,3.35704 -5.54928,4.76462c1.17321,-0.17583 2.32985,-0.38279 3.50412,-0.70504l0.54576,-0.14872c0,0 1.35289,-0.36867 1.79901,0.91493c4.87176,-2.61383 7.64414,-11.61227 1.83923,-14.55924c-0.99218,-0.5037 -3.2001,0.05374 -4.00055,-0.092c-1.58561,-0.28869 -3.04197,-1.11478 -4.62651,-1.40579c-1.81847,1.14612 -2.95372,0.58178 -4.95436,0.92998c-5.19159,0.90354 -11.43015,2.6819 -16.37722,4.38424c-2.21169,0.76107 -4.72383,2.87774 -7.18965,4.00589c0.63909,2.16717 1.37157,5.23845 0.70105,7.15042c-1.15314,3.28814 -5.31116,4.44691 -6.30674,7.73328c-0.40276,1.32949 0.14212,2.78225 0.38926,4.14925c1.30069,7.19432 4.4205,11.84459 12.08792,13.25955c6.70498,-0.4849 15.38676,-0.60775 20.95281,-4.94787c3.47358,-2.70852 2.33309,-6.91776 -0.13119,-10.12883c-0.98156,0.04719 -1.34831,-0.84829 -1.4239,-1.07008c-0.06198,0.16413 -0.12849,0.32756 -0.20038,0.49017c-0.8882,2.00872 -2.49473,3.68172 -4.17133,5.10046l-0.33255,0.27694c0,0 -1.15266,0.95989 -2.11254,-0.19278zM184.01089,194.86166c1.69425,0.31092 3.59429,-0.2869 5.14726,0.45837c9.16143,4.39662 5.87507,16.65717 -0.8315,21.38396c-2.60805,1.83815 -5.86355,2.06518 -8.93836,2.85504c4.96517,4.90745 7.44523,12.88652 1.29755,18.05529c-6.15961,5.17879 -16.28357,5.4699 -23.91024,5.91242c-9.61023,-1.74468 -14.4376,-7.53287 -16.04596,-16.82337c-0.34489,-1.9923 -0.85496,-4.12514 -0.26768,-6.05991c1.11379,-3.66934 5.21665,-4.74697 6.35654,-7.88915c0.42208,-1.1635 -0.51935,-3.9344 -0.94667,-5.21814c-4.03667,-0.9323 -5.76341,-5.37326 -6.89419,-8.88867c0,0 -0.2159,-0.67577 -0.00871,-1.37212c-0.69785,-1.21751 0.32871,-2.38523 0.32871,-2.38523c6.67163,-7.47178 18.53825,-11.83033 28.06769,-14.34877c2.83773,-0.74995 5.59152,-0.75234 8.34416,-1.65507l0.64532,2.13908l0.78311,0.02487c1.98978,3.41242 3.27172,6.31811 4.2854,10.15083c0.02354,1.28893 0.14994,2.16831 0.10605,2.89804c0.81654,0.29797 1.63049,0.60637 2.48154,0.76255zM174.40773,184.89161c-0.53974,0.07953 -1.23665,-0.00336 -1.80062,-0.69217c-10.40792,2.74492 -22.14417,4.76018 -29.63864,12.97584c0.04789,0.10702 0.06958,0.17496 0.06958,0.17496c0.22153,0.69875 0.39823,1.41332 0.6646,2.09623c2.80902,7.20173 7.20921,1.22469 12.10958,-0.45217c3.81645,-1.30597 8.00544,-1.83779 11.88088,-3.07596c2.38323,-0.76143 10.13193,-0.78442 9.52408,-4.02571c-0.72327,-2.66139 -1.5982,-4.74814 -2.80947,-7.001z" fill="#6b6b6b"></path>
      </g>
      <g stroke-width="0.5">
        <path d="M229.02492,273.196c-0.0752,-1.91912 -0.76982,-3.46571 -0.34446,-5.44761c0.14124,-0.65811 0.37609,-1.29076 0.6092,-1.92416c-0.37928,-0.01059 -0.82923,-0.06034 -1.45244,-0.15873l0,-0.00001c-0.73787,-0.1165 -1.50308,-0.21559 -2.174,-0.54406c-0.25276,-0.12376 -0.22422,-0.92505 -0.42602,-0.7289c-0.21342,0.20744 0.29078,0.53819 0.31725,0.83464c0.10913,1.22202 -0.08445,2.45332 -0.06455,3.68004c0.0752,4.63481 1.07933,8.1499 2.3141,12.50464c0.58342,2.05759 0.73898,3.0637 2.33773,4.61068c1.23628,0.02165 2.38766,0.26978 3.57487,0.45026c-2.49365,-4.04345 -4.51045,-8.65265 -4.69166,-13.2768zM228.17188,289.81492l-0.68204,-0.8021c-6.02894,-5.18089 -7.32071,-12.3813 -7.15304,-20.08172c0.05863,-2.69243 -0.74065,-6.57285 2.44117,-8.0574c0.20093,-0.09375 0.4131,-0.13664 0.63195,-0.14929c0.23697,-0.21527 0.47463,-0.31498 0.47463,-0.31498l1.51689,-0.15997c0.97309,0.39789 1.94419,0.8008 2.91192,1.2116c2.05527,0.17228 1.80144,-0.67462 3.66267,-1.40998c1.69337,-0.66902 4.25836,-0.40198 6.01383,-0.11129c2.93599,0.48617 5.85179,2.57515 8.79756,2.73057c0.58349,0.03078 1.15632,-0.31314 1.7362,-0.24141c1.49677,0.18515 1.5106,1.02727 2.9322,0.77105c4.10937,-0.74064 5.19181,-5.53779 8.28236,-7.84402c3.60572,-1.53959 6.71231,-2.35444 10.49505,-1.50572c1.3236,0.29697 2.84408,0.2303 3.93546,1.03592c2.10972,1.55733 3.28622,4.56234 2.98178,7.20392c3.34397,0.45164 6.96563,2.60688 7.51802,6.04965c0.25506,1.5897 -0.19281,3.17771 -0.79946,4.66547c2.52692,0.71821 4.19565,2.26089 4.76682,5.83659l-0.04529,1.21948c0,0 -0.06544,0.98441 -0.88855,1.30345c-0.17469,0.56266 -0.47486,1.08547 -0.92267,1.53319c-1.10528,1.10503 -2.74891,1.1086 -4.34982,1.21895c-0.11973,0.78009 -0.93039,1.1202 -0.93039,1.1202c-4.23379,1.61927 -0.69284,4.39748 -1.67137,7.46668c-0.43132,1.3529 -1.96627,2.33809 -3.03016,3.13289c-4.73272,3.53557 -11.45398,4.41434 -17.20416,4.0585c-5.6259,-0.37406 -10.81496,-0.81106 -16.15913,-2.55578c-2.18922,-0.71471 -3.21192,-1.88197 -4.81591,-3.28081c-2.27262,-1.98195 -4.85309,-2.33498 -7.69175,-2.52373l-1.51542,-0.53648c0,0 -0.45349,-0.18542 -0.73614,-0.60351c-0.31129,-0.16065 -0.5032,-0.37991 -0.5032,-0.37991zM281.52587,276.65698c-0.02851,-0.02157 -0.05684,-0.0433 -0.08503,-0.06523l-0.00863,0.01473l-0.2028,-0.11884c-1.27773,-0.11274 -2.91069,0.14431 -3.97359,0.42702c-0.85106,1.11474 -1.71344,2.22208 -2.55367,3.36809c-2.78977,3.69419 -0.36556,7.79053 -2.4861,11.37853c-0.21528,0.36425 -0.44087,0.69742 -0.67613,1.00235c0.11918,-0.07522 0.23529,-0.15507 0.34811,-0.23977c0.66258,-0.77966 1.56819,-1.39162 2.02417,-2.30758c1.14722,-2.30452 0.41951,-5.08108 1.78833,-7.32775c0.59287,-0.97308 2.1182,-2.48215 3.18578,-2.945c0.70729,-0.30665 3.40409,-0.0136 3.91273,-0.93631c0.34215,-0.62069 0.41629,-1.09708 0.29766,-1.45721c-0.6109,-0.27431 -1.20919,-0.51956 -1.57082,-0.79303zM265.74672,265.43407c0.05917,-0.88976 0.61212,-1.21539 1.05083,-1.33318c0.86249,-0.92863 1.86071,-1.78869 3.04904,-2.14147c0.84144,-0.2498 1.47256,0.2853 1.81462,-0.73086c1.50171,-4.46122 -5.89688,-3.35346 -7.76565,-2.64055c-3.0059,1.1467 -3.7263,6.25409 -6.15367,8.17234c0,0 -0.07294,0.05456 -0.1963,0.11881c-0.33511,0.80993 -0.88659,1.48622 -2.3107,1.81698c-1.44353,0.33528 -2.94415,-0.45601 -4.42572,-0.42263l-2.73966,-0.1809c0,0 -0.29172,-0.01939 -0.609,-0.16985c-1.9877,0.26531 -3.555,0.22643 -5.46565,-0.70707c-2.49708,-1.22002 -5.06989,-4.41012 -7.61156,-2.36715l-0.07523,0.03689c-1.85457,7.54997 0.4148,14.7178 4.13571,21.20805c0.83473,1.45601 1.67778,3.0527 3.17531,4.04398c1.49411,0.98901 3.5397,1.4267 5.12324,2.36732c5.30143,1.29898 9.4439,1.15239 14.84629,0.74789c3.39414,-0.25413 5.88,0.11566 8.06834,-3.15697c0.82353,-1.23158 0.04831,-3.28863 0.1386,-4.66673c0.18697,-2.85338 0.84579,-4.63272 2.48805,-6.92124c0.68549,-0.93312 1.38112,-1.84955 2.07519,-2.76421c-0.01536,-0.93449 0.9449,-1.33737 0.9449,-1.33737c0.0319,-0.01323 0.06418,-0.02639 0.09684,-0.03948c0.53784,-0.71492 1.07116,-1.43333 1.59444,-2.16228c0.62986,-0.87743 1.77689,-1.29913 2.38922,-2.1889c1.40935,-2.04795 -3.74628,-2.69094 -4.5679,-2.66324c-4.22489,0.14241 -8.08401,4.52361 -9.24256,8.62251c0.08891,0.80204 0.16455,1.59961 -0.02534,2.35979l0.03426,0.04168c0,0 0.58032,1.3832 -0.80286,1.96352c-0.50234,0.21075 -0.89878,0.16254 -1.2,0.01566c-0.48046,0.08128 -1.00317,0.08013 -1.46971,0.13585c-2.38804,0.28522 -4.96861,0.00791 -7.39303,0.05c0,0 -1.49978,0.0251 -1.52488,-1.47469c-0.0251,-1.49978 1.47469,-1.52488 1.47469,-1.52488c1.87439,-0.03028 3.67961,-0.09514 5.52953,-0.16636c0.65848,-0.02535 1.48339,0.54346 2.0714,0.4657l-0.02929,-0.09054c0.06207,-0.81581 0.21521,-1.65027 0.44974,-2.48418c-0.07584,-0.96661 -0.17121,-1.90433 -0.13802,-2.11212c0.39149,-2.45192 1.29648,-5.17301 2.73812,-7.43582c0.15367,0.00658 0.30732,0.01383 0.46092,0.02179c-0.00855,-0.0949 -0.0098,-0.19676 -0.00253,-0.30607z" fill="#6b6b6b"></path>
        <path d="M271.5145,292.70666c0.23525,-0.30495 0.46118,-0.63791 0.67646,-1.00215c2.12054,-3.588 -0.30415,-7.77055 2.48563,-11.46474c0.84022,-1.14602 1.73158,-2.26028 2.58264,-3.375c2.2952,-0.6105 7.28411,-1.08289 5.57863,2.01094c-0.50865,0.92272 -3.26775,0.70531 -3.97504,1.01195c-1.06757,0.46285 -2.53258,1.96161 -3.12545,2.93469c-1.36882,2.24666 -0.65726,4.94386 -1.80447,7.24838c-0.45597,0.91598 -1.40693,1.61693 -2.06952,2.3966c-0.11283,0.08471 -0.22969,0.1641 -0.34889,0.23932z" fill="#b7b7b7"></path>
        <path d="M231.10109,265.53964c-1.35559,7.43806 0.68134,14.68598 4.25663,21.19487l-0.15412,-0.04974c-1.73595,-0.10906 -3.32571,-0.58181 -5.06212,-0.61223c-1.59875,-1.54698 -1.77301,-2.55681 -2.35643,-4.61439c-1.23477,-4.35474 -2.24878,-7.95698 -2.32399,-12.59179c-0.01991,-1.22672 0.18204,-2.4628 0.07292,-3.68481c-0.02647,-0.29645 -0.53049,-0.62727 -0.31707,-0.83472c0.20181,-0.19615 0.17365,0.60499 0.42641,0.72874c0.67091,0.32846 1.44445,0.42478 2.18231,0.54128c1.67362,0.26424 2.11368,0.17648 3.27542,-0.07721z" fill="#b7b7b7"></path>
        <path d="M265.93674,265.79068c-0.22657,-0.01274 -0.39175,-0.10274 -0.61851,-0.11243c-1.44164,2.26279 -2.33216,5.0009 -2.72366,7.4528c-0.03317,0.20779 0.06776,1.16568 0.14361,2.13228c-0.23452,0.83392 -0.39317,1.69426 -0.45523,2.51007l0.02896,0.09115c-0.588,0.07777 -1.41838,-0.48286 -2.07686,-0.45752c-1.84993,0.07121 -3.73656,0.13024 -5.61094,0.16053c0,0 -1.41679,-0.0305 -1.39169,1.46931c0.0251,1.49978 1.51191,1.46246 1.51191,1.46246c2.42443,-0.04209 4.94563,0.2388 7.33367,-0.04641c0.46652,-0.05572 0.98339,-0.04877 1.46384,-0.13005c0.3012,0.14689 0.69473,0.19887 1.19707,-0.0119c1.3832,-0.58032 0.79689,-1.95218 0.79689,-1.95218l-0.03432,-0.04151c0.18988,-0.76016 0.11126,-1.54331 0.02235,-2.34535c1.15855,-4.0989 5.11255,-8.49912 9.33744,-8.64153c0.82161,-0.0277 5.98069,0.62467 4.57134,2.67262c-0.61231,0.88977 -1.75852,1.3153 -2.38837,2.19274c-0.52329,0.72895 -1.05598,1.45264 -1.59381,2.16758c-0.03266,0.01309 -0.06493,0.02634 -0.09682,0.03956c0,0 -0.96014,0.40676 -0.94479,1.34125c-0.69408,0.91466 -1.39073,1.84063 -2.07623,2.77374c-1.64228,2.28852 -2.31168,4.08977 -2.49866,6.94316c-0.09029,1.3781 0.67787,3.44206 -0.14565,4.67365c-2.18834,3.27263 -4.69551,2.91284 -8.08965,3.16697c-5.40239,0.4045 -9.58246,0.54379 -14.8839,-0.75519c-1.58354,-0.94063 -3.63882,-1.38671 -5.13294,-2.37572c-1.49753,-0.99128 -2.34726,-2.59751 -3.182,-4.05351c-3.72092,-6.49025 -5.99188,-13.7024 -4.13731,-21.25237l0.07528,-0.03699c2.54166,-2.04296 5.11568,1.14465 7.61276,2.36468c1.91064,0.93351 3.4818,0.96614 5.46951,0.70083c0.31728,0.15047 0.60954,0.16914 0.60954,0.16914l2.74453,0.17533c1.48156,-0.03338 2.99873,0.74709 4.44226,0.41182c1.42412,-0.33077 1.99172,-1.01055 2.32682,-1.82048c0.12337,-0.06426 0.19744,-0.11885 0.19744,-0.11885c2.42738,-1.91825 3.16555,-7.02285 6.17145,-8.16955c1.86878,-0.7129 9.28541,-1.80959 7.78371,2.65162c-0.34206,1.01616 -1.04068,0.55481 -1.88211,0.80463c-1.42821,0.42401 -2.57929,1.58283 -3.5527,2.7107c-0.10766,0.36131 -0.21657,0.72164 -0.32424,1.08295z" fill="#b7b7b7"></path>
      </g>
    </g>
  </g>
</svg>
