<?xml version="1.0" encoding="UTF-8"?>
<svg xmlns="http://www.w3.org/2000/svg" xmlns:xlink="http://www.w3.org/1999/xlink" version="1.1" width="321.19994" height="336.77921" viewBox="0,0,321.19994,336.77921">
  <g transform="translate(-79.40002,-11.61039)">
    <g stroke="none" stroke-miterlimit="10">
      <path d="M88.31564,328.61039c0,0 16,-20.5985 16,-32.10001c0,-24.14805 -6.06414,4.50221 -10.04872,-44.1924c-0.59522,-7.27412 3.74438,-65.15844 3.01263,-73.75344c-0.23731,-2.78745 -17.45194,-68.53772 -17.64152,-71.24481c-1.94572,-27.78276 8.67761,-71.70934 8.67761,-71.70934c0,0 -12.60264,-21.46011 8.4239,-20.44654c5.86827,0.28288 21.73281,18.2132 32.25081,17.57214c19.88693,-1.21209 85.77117,-14.42446 107.91596,-15.43106c14.92427,-0.67839 40.54072,1.62046 54.14997,0.91386c29.89262,-1.55204 65.36001,-6.60839 73.85938,-6.60839c6.34357,0 25.39999,15 25.39999,15c0,0 -4.30426,16.55744 -1.677,49.84293c2.20947,27.99243 11.3705,71.03601 11.83896,94.14703c0.97157,47.9307 -4.16196,152.01005 -4.16196,152.01005c0,0 6.8751,16.10871 -32.52064,19.49727c-5.19656,0.44698 -28.0068,-7.08378 -34.50223,-6.59417c-5.41818,0.40841 -27.16192,3.80264 -33.24331,4.17608c-4.59181,0.28197 -30.28214,8.51628 -35.06363,8.69531c-8.42783,0.31554 -43.80911,-15.34526 -52.03061,-14.98105c-9.93324,0.44004 -39.34412,6.82986 -47.9634,7.15102c-2.72426,0.1015 -17.35563,-9.79234 -19.88468,-9.68134c-10.6975,0.46953 -30.35234,15.73688 -36.1915,15.73688c-17.79261,0 -16.6,-18 -16.6,-18z" fill="#d6d6d6" stroke-width="0"></path>
      <path d="M114.91564,303.51038l-11,-15c0,0 12.57555,13.59144 33.19615,18.10359c30.25914,6.62123 74.38191,5.22504 93.09351,7.37227c14.12883,1.62134 55.71035,9.52414 55.71035,9.52414l65,-5c0,0 -60.0161,13.57931 -88.76511,11.92299c-10.7767,-0.62088 -41.27907,-11.44 -57.09454,-13.84571c-8.9022,-1.35412 -54.71337,6.39113 -63.18379,5.2433c-39.11052,-5.29991 -26.95656,-18.32058 -26.95656,-18.32058z" fill="#9e9e9e" stroke-width="0"></path>
      <path d="M121.8722,32.25287c8.47042,-1.14784 54.2816,6.59742 63.18379,5.2433c15.81547,-2.4057 46.31783,-13.22483 57.09454,-13.84571c28.74901,-1.65632 88.76511,11.923 88.76511,11.923l-65,-5c0,0 -41.58152,7.9028 -55.71035,9.52414c-18.71159,2.14723 -62.83437,0.75104 -93.0935,7.37226c-20.6206,4.51215 -33.19615,18.10359 -33.19615,18.10359l11,-15c0,0 -12.15397,-13.02067 26.95656,-18.32058z" fill="#9e9e9e" stroke-width="0"></path>
      <path d="M339.20004,235.19998c2.5,0 2.5,2.5 2.5,2.5v0.80005c-0.01247,3.84636 0.79999,7.36151 0.79999,11.19995c0,3.96757 -0.81298,7.61682 -0.83227,11.60049c-1.42984,4.45221 -1.55607,8.24152 -2.41437,12.88009c-0.89871,4.85696 -2.26871,9.38482 -3.30287,14.20161c-0.94426,4.39806 -0.83202,9.13103 -2.40577,13.38519c-1.08357,2.92913 -2.72355,5.49252 -4.09893,8.23103c-0.41482,0.82594 -0.40344,1.84901 -0.91921,2.61597c-0.24953,0.37106 -4.64168,4.73626 -5.15884,5.25341c0,0 -1.76777,1.76777 -3.53553,0c-1.76777,-1.76777 0,-3.53553 0,-3.53553c1.4647,-1.4647 3.30135,-2.61694 4.44114,-4.34656c0.41961,-0.63676 0.34118,-1.50134 0.68089,-2.18408c1.29938,-2.61148 2.84209,-4.98869 3.90107,-7.76897c1.51771,-3.98466 1.32949,-8.64614 2.22509,-12.78278c1.02961,-4.75563 2.37798,-9.22395 3.26622,-14.03044c0.832,-4.5022 0.86965,-8.39183 2.38568,-12.71989c-0.0242,-4.62536 1.30597,-9.10961 0.77987,-13.75315c-0.31095,-2.74452 -0.80424,-5.48427 -0.81215,-8.24634v-0.80005c0,0 0,-2.5 2.5,-2.5z" fill="#696969" stroke-width="0.5"></path>
      <path d="M384.80002,312.19998c-2.5,0 -2.5,-2.5 -2.5,-2.5l0.12829,-0.80942c-0.26666,-0.80001 -0.53332,-1.60001 -0.79998,-2.40002c-0.8597,-2.57909 -1.432,-5.39943 -2.37303,-7.9232c-0.4518,-1.2117 -1.37541,-2.23818 -1.68838,-3.49293c-0.75468,-3.02558 -0.45951,-6.76018 -0.84813,-9.86894c-0.60002,-4.79989 -1.96295,-9.62035 -2.40659,-14.4591c-0.41854,-4.56495 0.38836,-8.72624 0.79411,-13.22361c0.4969,-5.5076 -0.06092,-10.41429 1.72206,-15.81336c0,0 0.79062,-2.37169 3.16231,-1.58107c2.37169,0.79062 1.58107,3.16231 1.58107,3.16231c-1.67249,4.96272 -1.03256,9.50934 -1.47802,14.58655c-0.36929,4.20908 -1.18984,8.11101 -0.80586,12.37649c0.43151,4.79353 1.7986,9.58227 2.39346,14.34083c0.36598,2.92765 0.04157,6.49761 0.75184,9.33113c0.26555,1.05938 1.1261,1.8851 1.51157,2.90697c0.96535,2.55917 1.55333,5.45571 2.42702,8.0768c0.26666,0.80001 0.53333,1.60002 0.79999,2.40003l0.12829,2.39053c0,0 0,2.5 -2.5,2.5z" fill="#696969" stroke-width="0.5"></path>
      <path d="M149.60001,196.79999c1.38071,0 2.5,1.11929 2.5,2.5c0,1.38071 -1.11929,2.5 -2.5,2.5c-0.92833,0 -1.73847,-0.50599 -2.1697,-1.25721c-0.50519,0.66016 -1.04982,1.28822 -1.59324,1.87412c0.20111,0.22089 0.3067,0.39688 0.3067,0.39688c0.88851,1.53964 2.1164,2.92822 2.66551,4.6189c0.24046,0.74036 0.21885,1.52634 0.16685,2.31671c0.76306,3.53501 0.71592,6.92489 1.44015,10.50894l0.75545,2.25113c0,0 0.01587,0.04763 0.03637,0.13164c0.18043,-0.38994 0.35628,-0.78243 0.5358,-1.17288c1.77581,-6.81338 2.23359,-14.03998 3.39011,-20.97922c0,0 0.02812,-0.16872 0.11378,-0.41053c-5.28187,-1.47204 -5.15129,-6.23417 -3.12203,-10.48413c-1.27361,0.42654 -2.54065,0.8013 -3.72526,0.97338c-0.01451,0.00211 -0.0515,0.0041 -0.10827,0.00599c0.61845,0.79747 1.0877,1.67717 1.35626,2.62118c0.34465,1.21148 0.24529,2.42713 -0.13491,3.60656c0.02869,-0.00098 0.0575,-0.00146 0.08643,-0.00146zM127.03227,194.66777c-0.6021,-0.60209 -1.2042,-1.20418 -1.8063,-1.80627c-0.10568,0.13681 -0.22359,0.25366 -0.34793,0.35349c-0.07622,0.47153 -0.24196,0.80302 -0.24196,0.80302l-0.71487,1.41045c-1.47827,3.66442 -2.96298,7.08896 -5.28324,10.10274c0.66205,0.73782 0.66206,1.76878 0.66206,1.76878v1.16448l1.32917,-1.32915c0.00202,-0.00206 0.00306,-0.00311 0.00306,-0.00311l0.94191,-0.94188c0.26491,-0.45512 0.65616,-0.7989 1.09806,-1.09804l0.02453,-0.02453c1.17851,-1.17851 2.35701,-2.35702 3.53551,-3.53553c0,0 0.39994,-0.39995 1.0096,-0.62914c0.4623,-0.48056 0.91358,-0.98326 1.35081,-1.52057c-0.206,-1.07788 -0.24697,-2.18968 -0.13653,-3.29085zM133.21328,185.61749c-0.32784,-0.41992 -0.71589,-0.78073 -1.13393,-1.11227c0.00384,0.05821 0.00745,0.11609 0.01086,0.17361c0.07594,1.28073 0.27978,2.70337 -0.05318,3.92745c0.50301,-0.47865 1.05274,-0.90751 1.64574,-1.27528c-0.13786,-0.57829 -0.11025,-1.25338 -0.46949,-1.71351zM122.71988,172.31329c1.38672,-2.08014 3.46687,-0.69342 3.46687,-0.69342c3.03121,2.08435 3.89715,4.1653 6.1466,6.89517c1.34234,1.62903 3.51928,2.43177 4.85346,4.06749c0.99433,1.21906 0.06098,2.80404 1.93765,3.12475c5.5438,0.94741 10.62135,-1.04808 15.86418,-2.29355l2.02459,-1.39383c0,0 1.34306,-0.89539 2.59027,-0.16802c1.12279,-0.53359 2.30473,-0.93829 3.52312,-1.05081c4.98048,-0.45995 8.55378,5.15963 7.28269,9.56628c-1.28763,4.46406 -3.84416,5.72258 -7.15193,8.40831l-3.37987,0.5291c-0.04543,0.01416 -0.07111,0.02059 -0.07111,0.02059c-0.05582,0.01105 -0.11167,0.02307 -0.16753,0.03594c0.60997,0.85261 0.42712,1.94969 0.42712,1.94969c-1.10697,6.64194 -1.6305,13.48843 -3.15794,20.05316c0.06133,0.78725 -0.27196,1.45386 -0.27196,1.45386c-0.06031,0.11928 -0.1198,0.23904 -0.17864,0.35916c-0.14605,0.55054 -0.30033,1.09875 -0.46381,1.64433l0.10637,0.07851c0,0 0,1.93164 -1.69792,2.39906c-0.05824,0.09714 -0.11756,0.19366 -0.17806,0.28951c-0.3663,0.58027 -1.27871,0.76501 -1.49366,1.41669c-0.28179,0.8543 0.25589,1.80349 0.13737,2.69522c-0.31536,2.37276 -1.34233,4.62358 -1.57621,7.00575c-0.20975,2.13643 0.2309,4.30626 -0.00365,6.44011c-0.44527,4.0509 -1.89667,8.04143 -2.40659,12.05913c-0.30617,2.41231 0.28185,4.88133 -0.01355,7.29498c-0.10244,0.83704 -0.70805,1.56177 -0.79999,2.40002c-0.45784,4.17438 0.36496,8.05679 0.81354,12.09409c0.26666,2.4 0.21435,4.85733 0.80005,7.19999c-0.01601,3.66925 1.13651,6.4532 2.2904,9.91487l0.34633,-0.64553c0,0 2.23609,1.118 1.11809,3.35408l-0.00002,0.00001c-1.118,2.23609 -3.35408,1.11809 -3.35408,1.11809l-2.85374,-2.2455c-1.2468,-3.7404 -2.49316,-6.90482 -2.50952,-10.88506c-0.5857,-2.34268 -0.53339,-4.80002 -0.80005,-7.20003c-0.50176,-4.51588 -1.28378,-8.84451 -0.78644,-13.50589c0.08947,-0.83852 0.69295,-1.56356 0.79999,-2.40002c0.3006,-2.3492 -0.30355,-4.75451 -0.01355,-7.10504c0.49142,-3.98306 1.94263,-7.93212 2.39346,-11.94087c0.23691,-2.10666 -0.21785,-4.25073 -0.00365,-6.35982c0.14763,-1.45359 0.54168,-2.86634 0.92082,-4.28251c-0.4997,0.38321 -1.02302,0.51404 -1.02302,0.51404l-4.74927,1.18731c-4.89513,1.202 -8.42675,1.50086 -13.47961,1.10075c-2.97128,-0.23528 -6.39687,-0.40287 -8.95177,-2.27819c-0.07388,1.91376 -0.16739,3.8262 -0.28569,5.73529c1.16045,-1.81542 3.17806,-0.8066 3.17806,-0.8066c0.23942,0.1209 0.47195,0.23743 0.69835,0.34963c5.17694,-0.61794 10.97923,0.41981 15.4656,-1.94961l3.19994,-1.59997c0,0 2.23606,-1.11804 3.3541,1.11803c1.11803,2.23607 -1.11803,3.35411 -1.11803,3.35411l-1.94563,0.97281c0.78754,2.25641 -1.47679,3.12521 -1.47679,3.12521l-4.92695,1.87083c-5.67047,0.6902 -8.73613,0.28987 -13.28029,-1.72679c-0.50745,0.04662 -1.84071,0.03868 -2.47699,-1.20822c-0.24188,-0.16755 -0.59625,-0.46186 -0.84968,-0.88294c-0.36191,4.85527 -0.90006,9.68252 -1.69976,14.44751c-0.50989,3.03817 -1.72668,5.91774 -2.42384,8.91848c-1.25892,5.41868 -0.90335,12.30175 -3.38074,17.32147c-0.66313,1.34365 -1.77159,2.41703 -2.65738,3.62554c0,0 -1.50002,1.99998 -3.50001,0.49996c-1.99998,-1.50002 -0.49996,-3.50001 -0.49996,-3.50001c4.15324,-5.3777 3.65692,-12.56776 5.16195,-19.05299c0.67825,-2.92259 1.88214,-5.72217 2.37608,-8.68149c2.51419,-15.06314 2.36197,-30.75875 2.36197,-45.96544v-2.42188c-0.28393,-0.12297 -0.57582,-0.31847 -0.86771,-0.61035c-1.76779,-1.76774 -0.00005,-3.53553 -0.00005,-3.53553c2.80325,-2.67343 4.35519,-6.59534 5.79596,-10.233c-0.18912,-0.06737 -0.3706,-0.15639 -0.5425,-0.27265c-4.36895,-2.95509 -4.12978,-11.39065 -1.66117,-15.35839c1.04808,-1.68455 3.01829,-3.48587 5.21943,-4.27904c-0.01203,-0.43641 0.11363,-0.93249 0.4759,-1.4759zM120.63606,227.78195c0.37725,0.8501 0.49734,1.87019 1.13173,2.55028c1.20548,1.2923 5.70485,1.43574 6.5776,1.49475c4.63853,0.3136 7.43681,0.17336 11.89901,-0.96501l4.74928,-1.18731c0,0 2.14946,-0.53737 2.90723,1.42318c0.01087,-0.06601 0.02135,-0.13211 0.03139,-0.19827c0.18545,-1.22179 -0.27447,-2.53966 0.13737,-3.7048c0.20125,-0.56935 0.65347,-0.98988 1.10829,-1.41317c-0.64046,0.12575 -1.14899,0.00822 -1.54557,-0.21297c-0.40338,0.61903 -1.16008,1.25535 -2.52266,0.98284c-2.45146,-0.49029 -1.96117,-2.94173 -1.96117,-2.94173l0.77356,-3.17789c-4.07603,-7.68055 -16.53524,-5.26895 -23.56852,-4.25695c0,0 -0.48291,0.06898 -1.05256,-0.0673c-0.0018,3.44697 -0.01361,6.91154 -0.0662,10.38138c0.93415,0.35883 1.40122,1.29298 1.40122,1.29298zM143.77014,213.20889c0.12142,0.08031 0.24596,0.15757 0.37236,0.23306c0.067,-0.54877 0.13056,-1.09674 0.1644,-1.63984c-0.09471,-0.49738 -0.20391,-0.99574 -0.33225,-1.49572c0,0 -0.17745,-0.70974 0.04358,-1.45734c-0.00895,-0.02728 -0.01812,-0.05452 -0.02752,-0.08173c-0.43534,-1.25971 -1.42294,-2.25406 -2.13441,-3.3811c0,0 -0.01152,-0.01919 -0.03054,-0.05502l-2.22556,0.43654c0,0 -1.57395,0.25522 -2.41168,-0.89899c-0.98804,1.39991 -2.77902,0.80293 -2.77902,0.80293c-1.08249,-0.42769 -2.43567,-0.44899 -3.24748,-1.28306c-0.02505,-0.02573 -0.04991,-0.05157 -0.07459,-0.07751c-0.22792,0.46492 -0.51964,0.75663 -0.51964,0.75663l-2.52978,2.52088c-1.06396,0.79798 -1.8706,2.24643 -3.18993,2.39887l-0.62098,0.62098c6.68383,-0.7997 14.04799,-1.03385 19.54305,2.6004zM158.85749,194.43018c0.16319,-0.02586 0.26593,-0.029 0.26593,-0.029l0.01673,0.00778c0.35064,-0.01122 0.8224,0.02964 1.26904,0.24793c2.71957,-2.0998 3.79536,-2.39319 5.18156,-5.62421c1.58497,-3.6943 -3.57528,-3.02385 -5.01448,-2.04558c-1.52176,1.03439 -3.91591,4.10333 -4.58354,5.83738c-0.29354,0.76242 -0.37277,2.54112 0.43397,2.41221c0.49353,-0.07886 0.95828,-0.27122 1.42243,-0.46596c0.22767,-0.12717 0.45827,-0.21072 0.65957,-0.26556c0.02829,-0.01037 0.05661,-0.02056 0.08499,-0.03054c0,0 0.09973,-0.02493 0.2638,-0.04447zM130.48103,190.45459c-0.13927,0.05828 -0.28399,0.11044 -0.43205,0.15884c0.06661,0.06661 0.1332,0.1332 0.19981,0.19981c0.07529,-0.12101 0.15272,-0.24059 0.23225,-0.35864zM137.18679,201.73617c0.62429,-0.74361 1.6131,-0.90394 1.6131,-0.90394l2.12552,-0.22213c1.05851,-1.09027 4.24154,-4.2474 3.8262,-6.40497c-0.49158,-2.5536 -6.0298,-3.60485 -7.99771,-2.87736c-3.56984,1.31966 -4.98803,8.73817 -0.76329,9.60052c0,0 0.68515,0.22838 1.19619,0.80789zM122.31014,189.12948c0.26856,-1.32425 1.6993,-1.80118 1.6993,-1.80118l2.40003,-0.80002c0.38747,0.03665 0.98901,0.45838 1.16243,0.10994c0.23554,-0.47325 -0.35798,-0.9988 -0.46209,-1.51707c-0.31526,-1.56952 -0.28929,-5.57772 -2.36547,-6.67215c-0.9451,-0.4982 -3.07854,1.48227 -3.3688,2.08274c-1.05369,2.17981 -1.27164,4.49981 -0.63084,6.70089c0.18846,0.64732 0.00136,1.57796 0.56964,1.94072c0.29381,0.18756 0.63998,0.09739 0.99579,-0.04387z" fill="#696969" stroke-width="0.5"></path>
      <path d="M143.89999,189.70001c0,-1.76726 1.24928,-2.28523 1.9816,-2.43705c0.87684,-1.21113 1.49923,-2.25395 1.27408,-4.23833c-0.18237,-1.60724 -1.93851,-2.59197 -2.83579,-3.93785c0,0 -0.39286,-0.58927 -0.44674,-1.34964c-1.3622,0.20533 -2.74227,0.27967 -4.05834,0.02878c-2.13233,-0.03986 -2.47755,0.30508 -3.72973,2.60688l0.74027,2.32085c0,0 0.60634,2.42535 -1.81902,3.03169c-2.42536,0.60634 -3.03169,-1.81903 -3.03169,-1.81903l-0.8597,-4.07912c1.36256,-2.82366 1.65759,-4.72463 3.80076,-6.04555c-0.06359,-0.10001 -0.12865,-0.19852 -0.19581,-0.2949c-0.76157,-1.09299 -1.47507,-2.18302 -2.19454,-3.25482c0.61989,1.70434 0.45973,3.50305 -0.55363,6.65864l-0.67169,-0.21931c0,0.07625 0,0.15249 0,0.22874c0,0 0,2.5 -2.5,2.5c-2.5,0 -2.5,-2.5 -2.5,-2.5c0,-2.39999 0,-4.79999 0,-7.19998v-3.20001v0c0,-1.01874 0.60934,-1.89516 1.48344,-2.28467c-0.27272,-0.30524 -1.54014,-1.89415 0.04877,-3.48308c1.76776,-1.76778 3.53553,-0.00002 3.53553,-0.00002c2.38796,2.40394 4.04329,4.77736 5.91241,7.58104c0.91699,1.37547 1.41662,3.08519 2.6373,4.19997c0.12281,0.11216 0.26462,0.20691 0.42307,0.28591c0.15383,0.00415 0.30709,0.00502 0.45947,0.00086c0,0 0.6465,0 1.28198,0.32877c2.85928,0.0163 7.16102,-1.59608 8.62775,-1.8802c2.02686,-0.39263 4.08481,-1.03321 5.79187,-2.19436l0.34282,-0.02096l-0.03499,-0.10496l2.34466,-0.78154c0.2642,-0.09499 0.549,-0.14674 0.84591,-0.14674c1.38071,0 2.5,1.11929 2.5,2.5c0,0.29692 -0.05176,0.58174 -0.14675,0.84595l-1.56272,4.68804l-0.30662,-0.10221c-0.35514,1.43878 -0.78818,2.85413 -1.33611,4.22715l-0.77608,2.33164c0,0 -0.79055,2.37171 -3.16226,1.58116c-2.37171,-0.79055 -1.58117,-3.16226 -1.58117,-3.16226l0.82389,-2.46841c0.48758,-1.22182 1.05471,-2.44451 1.74908,-3.57755c-2.36859,0.98261 -4.79435,1.32653 -7.44406,1.86288c0.89404,1.3312 3.24136,4.83263 3.28712,5.24899c0.5333,4.85268 -0.65558,5.83371 -2.76416,9.11137l-2.88019,1.11327c0,0 -2.5,0 -2.5,-2.5z" fill="#696969" stroke-width="0.5"></path>
      <path d="M363.20864,204.92609c-0.12016,0.30707 -0.32355,0.62438 -0.64085,0.94168c-0.31402,0.31402 -0.62804,0.51648 -0.93214,0.6371c2.38,0.65641 5.67528,-0.80834 7.66597,-1.45066l0.70395,-0.47815c0.8305,-3.47535 3.06051,-6.58627 6.42763,-8.25843c0.88085,-0.43744 1.77899,-0.73467 2.67705,-0.90398c-0.01148,-0.35504 0.0383,-0.60394 0.0383,-0.60394c0.01754,-0.08717 0.03517,-0.17417 0.0529,-0.26101c-0.26549,-0.87516 0.06132,-1.73601 0.06132,-1.73601l0.30744,-0.80981c0.6641,-1.74848 0.99748,-3.66936 1.50835,-5.49204c-2.31709,1.19788 -4.03743,1.23216 -7.07811,1.65689c-1.71478,0.23952 -3.49151,0.8156 -5.28612,1.41617c1.79768,1.4837 3.09208,3.35899 3.37074,5.44329c0.4352,3.25508 -1.61461,5.38453 -3.23052,7.74699l-3.73649,1.96189c0,0 -0.94235,0.47117 -1.90942,0.19001zM361.6552,201.51103c0.3954,-0.83139 1.2268,-1.2471 1.2268,-1.2471l2.66353,-1.23812c0.51599,-0.81922 1.68098,-2.37893 1.56941,-3.45302c-0.21007,-2.02229 -3.37877,-3.62468 -6.03076,-4.17562c-0.09485,0.00218 -0.18957,0.00315 -0.28415,0.00284c-0.6923,-0.00225 -1.3673,-0.0676 -2.02709,-0.18427c-0.16155,0.01686 -0.3117,0.04241 -0.44845,0.077c-1.92071,0.48582 -3.84636,3.32465 -2.54897,5.17554c1.34948,1.92521 3.93659,3.43 5.87969,5.04276zM348.61256,186.41368c0.03616,0.33398 0.08964,0.66182 0.18379,0.97396c0.41469,1.37487 1.06669,2.66666 1.60003,4l0.34336,1.69538c0.36381,-1.52562 1.12751,-2.95597 2.20677,-4.11789c-1.48936,-0.82207 -2.92253,-1.73736 -4.33396,-2.55145zM343.03224,179.13224c1.76776,-1.76778 3.53553,-0.00002 3.53553,-0.00002c1.15388,1.20992 2.7409,1.9238 4.19251,2.75335c2.42709,1.38701 5.13696,3.57614 8.12032,4.28491c0.89522,-0.04903 1.83758,0.01789 2.79002,0.18755c3.77687,-0.3363 7.8422,-2.58832 11.52893,-3.12573c1.05552,-0.15386 2.14068,0.12492 3.20001,0c1.55701,-0.18361 2.89718,-1.37483 4.10206,-2.17809l2.70785,-0.92592c0,0 0.60072,-0.20024 1.29828,-0.09683l1.39063,-2.08595c0.44513,-0.68926 1.2201,-1.14551 2.10163,-1.14551c1.38071,0 2.5,1.11929 2.5,2.5c0,0.4199 -0.10352,0.81561 -0.28643,1.16303l-1.57754,3.15503l-0.05651,-0.02826l-0.01727,0.16502c-0.71923,1.07165 -1.32309,2.14969 -1.83915,3.245c-0.40497,1.71242 -1.11393,3.37011 -1.85104,5.18805c-0.30473,1.14637 -0.56599,2.32515 -0.80949,3.54651c3.13907,1.00756 5.81732,3.49103 7.11739,6.80024c0.73787,1.87816 -0.44515,8.9855 -1.04372,10.06401c-0.79795,1.43777 -2.55749,2.06758 -3.83624,3.10137l-2.3,0.5c0,0 -0.80157,0 -1.49695,-0.45388c-0.20209,1.55555 -1.8967,1.97921 -1.8967,1.97921c-0.80031,0.15843 -1.60031,0.49503 -2.40053,0.70663c-1.43536,6.5843 -0.25684,13.33989 1.32368,19.82592l1.26997,4.34044c0,0 0.70169,2.3995 -1.69782,3.10119c-1.18032,0.34516 -1.94981,-0.06005 -2.42707,-0.56095c-0.01238,0.02633 -0.02523,0.05282 -0.03856,0.07946c-0.84288,1.68576 -2.3212,1.46519 -2.99779,1.25453c-0.13943,0.44914 -0.451,0.90722 -1.05143,1.30752c-2.0801,1.38679 -3.46689,-0.69332 -3.46689,-0.69332l-1.2877,-2.01899c-2.41674,-1.54395 -5.46688,-3.55118 -8.30497,-4.11286c-5.61642,-1.11154 -11.12172,1.03395 -16.19881,3.06625c0,0 -2.3212,0.92846 -3.24966,-1.39273c-0.28211,-0.7053 -0.2642,-1.28202 -0.10254,-1.74317l-0.41661,0.08876c0,0 -2.474,0.3596 -2.8336,-2.1144c-0.09576,-0.65887 0.00944,-1.16778 0.21536,-1.55986c-0.59098,-1.09066 0.02256,-2.31778 0.02256,-2.31778c0.05259,-0.10518 0.64069,-1.28267 1.30701,-2.61454c-0.0528,-0.90159 0.44891,-1.65417 0.44891,-1.65417l1.4755,-2.19214c1.37025,-3.33134 2.43604,-7.9597 4.27387,-11.18708c-1.11987,0.30773 -2.2398,0.6215 -3.35441,0.41841c-3.1705,-0.57769 -5.22059,-3.923 -5.94796,-6.67807c-1.47087,-5.57128 2.29359,-12.43602 6.71883,-15.501c0.63387,-0.43903 1.30877,-0.78024 2.00597,-1.02867c-0.08191,-3.13957 -0.74327,-5.94621 -1.51702,-9.03839l-0.78639,-3.14559c-0.05752,-0.21047 -0.08824,-0.43201 -0.08824,-0.66073c0,-0.88009 0.45477,-1.65395 1.14213,-2.09944c0.10476,-0.15529 0.23356,-0.31181 0.39008,-0.46833zM350.23225,202.66775c0,0 -1.23558,-1.2356 -0.60776,-2.67378c-1.23154,-1.21559 -3.64747,-1.26977 -5.11011,-0.16734c-2.74093,2.06591 -5.28862,6.48881 -4.48126,10.09897c0.0322,0.14401 1.07923,2.92117 2.05205,2.9219c0.90118,0.00068 1.7507,-0.39763 2.61553,-0.67771c-0.00043,-0.02304 -0.00065,-0.04631 -0.00065,-0.06979c0,-2.5 2.5,-2.5 2.5,-2.5l-0.24448,0.81241c2.16836,-2.32012 3.56052,-4.46582 3.52789,-7.49002c-0.08412,-0.08638 -0.16785,-0.1713 -0.25119,-0.25464zM351.99755,212.18932c0.06667,0.22527 0.10246,0.4638 0.10246,0.71068c0,0.29691 -0.05176,0.58172 -0.14674,0.84592l-0.8004,2.40123c-0.97672,2.9205 -1.33585,6.03605 -2.44317,8.90957c-0.59361,1.54044 -3.38288,4.68014 -4.18308,5.9576c-0.69638,1.11172 -1.26524,2.29486 -1.81601,3.48818c2.46657,-1.07903 5.06775,-2.22003 7.03156,-3.63341c0.88029,-0.63356 1.2896,-1.89217 2.28978,-2.31161c0.04327,-0.01815 0.08686,-0.03485 0.13072,-0.05021l-0.02875,-0.03594l0.53426,-0.4274c-0.01592,-0.50838 0.13018,-0.91869 0.34378,-1.24445c-4.11306,-5.8382 -1.71396,-13.78285 4.22276,-17.01851c-0.84571,-0.62163 -1.67713,-1.39303 -2.4892,-2.22385c-0.63225,1.63911 -1.5914,3.1665 -2.74798,4.6322zM370.37174,222.49056c-1.48204,4.22411 -3.75594,4.69176 -7.16622,6.21547c2.30948,5.25172 6.35491,9.05144 11.09451,12.594l1.05336,0.48768l-0.65379,-2.23689c-1.80289,-7.42388 -2.94679,-14.95213 -1.30773,-22.46661c-1.41219,-1.26888 -2.26023,-3.11649 -2.93656,-4.91687c-0.25438,-0.67714 -0.44763,-1.36973 -0.58174,-2.06963c-0.6051,0.20167 -1.224,0.40038 -1.85166,0.58321c2.76127,2.96578 3.74088,7.84486 2.34983,11.80963zM360.4728,236.04514c0.54117,0.1091 1.08097,0.25182 1.61796,0.42262c-1.37369,-1.82001 -2.55667,-3.78646 -3.51599,-5.9559c-0.30025,-0.07953 -0.49274,-0.17577 -0.49274,-0.17577c-0.05505,-0.02957 -0.1106,-0.0585 -0.16657,-0.08685l-2.56744,2.05396c-0.86924,1.04357 -1.77934,1.97886 -2.69009,2.62771c-0.75205,0.5358 -1.5795,1.0359 -2.45056,1.51014c3.35019,-0.79408 6.78755,-1.09709 10.26544,-0.3959zM381.52944,213.25013c0.28032,-2.05012 2.4706,-2.05012 2.4706,-2.05012l-0.70002,0.50001c0.8546,-0.56623 2.06529,-0.80289 2.56378,-1.69868c2.63926,-4.74266 -1.59951,-12.04557 -7.2883,-9.1659c-1.69733,0.85918 -2.82622,2.24662 -3.45738,3.89532c0.62323,1.31709 -0.11685,2.30697 -0.5922,2.76614c-0.01397,0.19973 -0.02257,0.40088 -0.02588,0.60311c-0.01692,1.03365 1.24061,5.5228 2.72666,5.53668c0.76566,0.00715 1.44466,-0.50803 2.16699,-0.76205c0,0 1.21122,-0.30281 2.13575,0.3755zM357.91285,224.28239c0.96185,-1.5928 2.87781,-0.9541 2.87781,-0.9541l1.43213,0.67803c1.34189,-0.77527 2.88785,-1.37561 3.40554,-3.09691c0.28468,-0.94656 -0.00027,-1.98143 -0.11613,-2.96305c-0.01961,-0.16612 -0.39145,-3.93726 -1.3523,-4.60282c-1.30647,-0.90497 -2.16843,-0.08373 -3.36929,0.32816c-2.81652,0.96606 -4.78095,2.2457 -4.6906,5.6283c0.02899,1.08535 0.34602,2.15076 0.66467,3.18868c0.20793,0.67727 0.62297,1.27728 1.14817,1.79371z" fill="#696969" stroke-width="0.5"></path>
      <path d="M371.51803,256.26397c2.23607,1.11804 1.11803,3.3541 1.11803,3.3541l-1.66206,2.57052c-1.44133,0.93672 -2.75432,2.1094 -4.32398,2.81015c-5.61966,2.50883 -12.55036,2.04377 -18.39846,0.74038c-2.63675,-0.58766 -5.33243,-1.1726 -7.50608,-2.96493c-0.90708,-0.74795 -1.35039,-1.92494 -2.02558,-2.88741c0,0 -1.38675,-2.08012 0.69338,-3.46687c2.08013,-1.38675 3.46688,0.69337 3.46688,0.69337c2.71328,4.41875 9.19202,4.47907 13.91987,4.48673c3.38798,0.00549 4.46002,0.39034 7.76524,-1.14592c1.33029,-0.61831 2.4405,-1.62844 3.66075,-2.44266l-0.06209,-0.62944c0,0 1.11804,-2.23607 3.35411,-1.11803z" fill="#696969" stroke-width="0.5"></path>
      <path d="M370.4,317.80002c-2.5,0 -2.5,-2.5 -2.5,-2.5l0.04854,-1.10976c-0.77817,-3.94865 -0.33724,-7.3902 -0.81625,-11.28979c-0.24055,-1.95835 -1.36546,-3.73762 -1.61353,-5.69503c-0.88042,-6.94698 0.21458,-13.64723 -1.54411,-20.49906c0,0 -0.16237,-0.64945 0.017,-1.36023l-1.59165,0.05384c0,0 -2.18199,0 -2.46898,-2.03849c-3.48843,0.20481 -6.92295,-0.09364 -10.30607,-0.77384c1.66048,1.29584 0.51882,3.19861 0.51882,3.19861c-2.41837,3.97329 -2.61304,6.11592 -3.72747,10.55536c-0.8437,3.36097 -2.71864,6.59602 -3.135,10.06382c-0.95659,7.96737 -3.36788,16.26669 -7.9844,22.89893l0.00313,-0.00437c0,0 0,2.5 -2.5,2.5c-2.5,0 -2.5,-2.5 -2.5,-2.5l0.5,-2.3c1.34276,-1.73868 2.04796,-3.89235 2.91371,-5.91138c1.64655,-3.83999 4.03753,-7.88461 4.61856,-12.18908c0.13846,-1.02571 -0.14646,-2.07856 -0.01355,-3.10501c0.48462,-3.74246 2.36365,-7.11451 3.26503,-10.73623c1.18219,-4.75004 1.7108,-7.52221 4.27253,-11.84455c0,0 0.51068,-0.85113 1.42479,-1.159c-2.49758,-0.63239 -4.96707,-1.46022 -7.40954,-2.43356c0,0 -2.3212,-0.92847 -1.39274,-3.24966c0.92847,-2.32119 3.24966,-1.39274 3.24966,-1.39274c6.62662,2.66127 13.51511,4.17521 20.60611,3.12338l1.65452,-0.0524c0.4096,-1.22643 1.80455,-1.57517 1.80455,-1.57517c1.08596,-0.27124 2.17192,-0.54248 3.25788,-0.81372l0.0611,0.00228l-0.00292,-0.01464l3.94938,-0.78986c0.17418,-0.03842 0.35518,-0.05867 0.5409,-0.05867c1.38071,0 2.5,1.11929 2.5,2.5c0,0.52533 -0.16203,1.0128 -0.43883,1.41519l-1.58102,2.37152l-0.06068,-0.04046c-0.07831,0.14322 -0.16194,0.28384 -0.25167,0.42147c-1.01715,1.56018 -3.27298,2.41497 -5.46341,2.99393c0.38854,0.50237 0.52094,1.03196 0.52094,1.03196c0.78675,3.2178 1.24874,6.58918 1.64241,9.80589c0.45454,3.71405 -0.44152,7.59031 0.01355,11.29501c0.23282,1.89544 1.34633,3.61051 1.58643,5.50504c0.4941,3.89875 -0.00912,7.21026 0.78372,11.11012l0.04855,2.09032c0,0 0,2.5 -2.5,2.5z" fill="#696969" stroke-width="0.5"></path>
      <path d="M359.10001,196.9c0,-1.38071 1.11929,-2.5 2.5,-2.5c1.38071,0 2.5,1.11929 2.5,2.5c0,1.38071 -1.11929,2.5 -2.5,2.5c-1.38071,0 -2.5,-1.11929 -2.5,-2.5z" fill="#696969" stroke-width="0.5"></path>
      <path d="M139.85265,180.63634c0.05855,-0.17563 0.11709,-0.35127 0.17563,-0.5269c0,0 0.79056,-2.37171 3.16227,-1.58115c2.37171,0.79056 1.58115,3.16227 1.58115,3.16227c-0.26666,0.8 -0.53333,1.6 -0.79999,2.4l-4.87171,-1.59055c0,0 0,-1.12298 0.75265,-1.86366z" fill="#696969" stroke-width="0.5"></path>
      <path d="M153.59057,309.67174c-2.37171,0.79055 -3.16227,-1.58116 -3.16227,-1.58116l-0.79998,-2.40001c-0.48074,-1.4921 -1.22759,-2.90703 -2.10843,-4.20379c0,0 -1.38676,-2.08011 0.69335,-3.46688c2.08012,-1.38677 3.46688,0.69335 3.46688,0.69335c1.10347,1.68011 2.04125,3.49424 2.69161,5.39619l0.8,2.40003c0,0 0.79055,2.37172 -1.58116,3.16227z" fill="#696969" stroke-width="0.5"></path>
      <path d="M144.13919,305.42837c0.76081,0.74056 0.76081,1.87166 0.76081,1.87166l-4.87171,1.59053c-0.57554,-1.72666 -1.13948,-3.45719 -1.69598,-5.19008c-0.06157,-9.05385 -1.42323,-18.34717 -2.41358,-27.29499c-0.14323,-1.2941 -0.16171,-2.61582 0.01355,-3.90597c0.20956,-1.54266 1.61803,-2.84348 1.56775,-4.3995c-0.02625,-0.81238 -0.79842,-1.49129 -0.79815,-2.30409c0.00037,-1.09948 0.79367,-2.10049 0.79998,-3.19995c0.01178,-2.04823 -1.02356,-4.06396 -0.76954,-6.09642c0.10458,-0.83675 0.69295,-1.56353 0.79998,-2.39997c0.40443,-3.16056 -0.03228,-6.8014 -0.03228,-9.99957c0,0 0,-2.5 2.5,-2.5c2.5,0 2.5,2.5 2.5,2.5c0,3.48417 0.38916,7.35692 -0.03228,10.80048c-0.19701,1.60976 -1.06044,3.19836 -0.79998,4.79908c0.15145,0.93081 0.82556,1.7615 0.83042,2.70454c0.00567,1.09947 -0.80034,2.10047 -0.79999,3.19995c0.00028,0.87387 0.82126,1.62231 0.80183,2.49596c-0.06572,2.95522 -2.05792,4.62112 -1.61877,7.69452c0.92402,6.46684 1.06516,12.96062 1.60951,19.49053c0.21195,2.54253 0.79645,5.06324 0.77696,7.61451c0.29473,0.84145 0.58486,1.68453 0.87145,2.5288z" fill="#696969" stroke-width="0.5"></path>
      <path d="M114.4,305.00003c-2.5,0 -2.5,-2.5 -2.5,-2.5l0.17882,-2.52853c2.28853,-5.7131 5.44765,-11.45267 7.12089,-17.37045c1.01136,-3.57691 1.09767,-6.3742 1.51907,-10.00651c0.35386,-3.05016 2.07791,-5.76596 2.39996,-8.79998c0.61171,-5.76286 0.78126,-11.41728 0.78126,-17.29452c0,0 0,-2.5 2.5,-2.5c2.5,0 2.5,2.5 2.5,2.5c0,6.05499 -0.13298,11.97736 -0.81872,17.90543c-0.35283,3.05014 -2.07946,5.76597 -2.39997,8.79998c-0.40586,3.84197 -0.59063,7.01179 -1.681,10.79354c-1.75548,6.08857 -4.92815,11.94343 -7.27913,17.82951l0.17882,0.67154c0,0 0,2.5 -2.5,2.5z" fill="#696969" stroke-width="0.5"></path>
      <path d="M181.10057,237.67582c1.6242,1.90052 -0.27632,3.52472 -0.27632,3.52472l-1.63406,1.29946c-2.72604,1.34893 -6.74846,3.91836 -10.11744,3.24379c-4.15097,-0.83115 -5.42624,-5.25127 -5.88702,-8.6941c-0.89944,-6.7204 2.40962,-15.424 6.53161,-20.58211c2.26998,-2.84056 8.39937,-10.1686 13.1375,-7.32987c7.2808,4.36211 -0.17735,6.72632 -2.06422,7.734c0,0 -2.36487,0.78829 -3.15885,-1.5709c-3.7156,3.37303 -6.59644,7.49699 -8.07453,12.34095c-0.64249,2.10557 -1.59536,6.55661 -1.40344,8.84368c0.13368,1.59296 0.37511,4.34677 1.97349,4.37081c1.87848,0.02827 5.70962,-2.26314 6.82681,-2.82837l0.62176,-0.62839c0,0 1.90052,-1.6242 3.52472,0.27632z" fill="#696969" stroke-width="0.5"></path>
      <path d="M201.09602,236.1824c-2.48242,0.29601 -2.77842,-2.18641 -2.77842,-2.18641l-0.56971,-4.91653c0.17667,-1.62634 0.31977,-3.25823 0.41599,-4.8925c-1.21624,3.74775 -2.46117,7.486 -3.81639,11.17297c-0.95593,2.60065 -2.85594,8.42437 -6.4168,8.83909c-1.6678,0.19424 -2.4072,-2.34148 -3.61079,-3.51221c0,0 -1.38679,-2.08011 0.69331,-3.46689c1.37201,-0.91471 2.4424,-0.32112 3.01215,0.189c0.48582,-2.76982 2.7209,-7.05262 3.18409,-8.44287c1.89079,-5.67518 3.77636,-11.35218 5.68091,-17.02276l0.12841,-0.13393l-0.05479,-0.02739l1.57576,-3.15154c0.40086,-0.84562 1.26228,-1.43042 2.26029,-1.43042c1.38071,0 2.5,1.11929 2.5,2.5v5h-0.47455c0.589,4.67808 0.51075,9.18635 -0.07762,14.35939l0.53458,4.34458c0,0 0.296,2.48241 -2.18641,2.77842z" fill="#696969" stroke-width="0.5"></path>
      <path d="M223.87153,236.17885c1.20434,-0.46826 2.51361,-0.72581 3.61303,-1.40478c3.80064,-2.34715 6.11744,-6.29187 9.64405,-8.67971c-1.58112,-0.71371 -3.40092,-1.19281 -4.23825,-2.63761c-0.74539,-1.28616 0.29349,-2.99526 0.82949,-4.38181c0.79836,-2.06525 4.52013,-7.73871 6.32799,-8.93472c1.6969,-1.1226 3.94348,-2.751 5.79683,-1.9115c4.38607,1.98672 1.59963,7.75537 0.84324,10.2089c-2.55626,8.29191 -5.15184,16.1416 -8.36668,24.19082c0,0 -0.92847,2.3212 -3.24966,1.39273c-2.32119,-0.92846 -1.39273,-3.24966 -1.39273,-3.24966c0.8931,-2.22961 1.75768,-4.41718 2.5841,-6.60276c-3.20179,2.84169 -7.01447,5.21197 -10.53442,6.65246l-1.41044,0.71487c0,0 -1.23362,0.61681 -2.32644,0.01786c-0.31519,0.15186 -0.7063,0.24607 -1.19162,0.24607c-2.5,0 -2.5,-2.5 -2.5,-2.5v-4.60004c0.00296,-1.27639 -0.02401,-2.89293 0.02851,-4.59123c-0.76209,1.30719 -1.54264,2.60297 -2.35849,3.87626c-1.02106,1.59357 -1.52166,3.70246 -3.08811,4.76465c-0.18891,0.1281 -0.38435,0.24184 -0.58532,0.34344l0.02148,0.04296l-3.15503,1.57755c-0.34742,0.18291 -0.74313,0.28643 -1.16303,0.28643c-1.38071,0 -2.5,-1.11929 -2.5,-2.5c0,-0.22871 0.03071,-0.45025 0.08824,-0.66072l0.76819,-3.07284c0.74054,-4.45979 1.25186,-9.00587 2.10119,-13.44345c0.44011,-2.29954 0.94045,-4.75992 0.31704,-7.01668c0,0 -0.60634,-2.42535 1.81902,-3.03169c2.42536,-0.60634 3.03169,1.81903 3.03169,1.81903c1.22912,5.3041 -0.07142,11.46525 -1.2974,17.24935c1.93521,-3.2281 3.79443,-6.49619 5.66278,-9.7658l1.41454,-2.47545c0.42441,-0.77572 1.24811,-1.30179 2.19469,-1.30179c1.1246,0 2.07577,0.74256 2.38994,1.76412l0.78176,2.34531l-0.05147,0.01716c0.07373,0.1998 0.13305,0.40541 0.17493,0.61806c0.36338,1.84533 -0.67089,3.70127 -1.02428,5.54853c-0.47778,2.49744 -0.57737,5.06409 -0.57086,7.60681v1.76153zM241.92458,216.91755c0.23502,-0.71141 0.45817,-1.42869 0.71242,-2.13363c-1.47727,2.09608 -2.8796,4.24483 -4.35679,6.34115c-0.16833,0.23888 -0.96698,0.20196 -0.77048,0.41825c0.10495,0.11551 0.24874,0.15037 0.40909,0.15085l-0.00912,-0.04561l2.68628,-0.53725c0.41209,-1.40718 0.86864,-2.80144 1.32859,-4.19375z" fill="#696969" stroke-width="0.5"></path>
      <path d="M256.19368,248.12534c-2.42535,-0.60634 -1.81902,-3.03169 -1.81902,-3.03169l0.82504,-3.29259c0.71281,-2.14332 1.45446,-4.28381 2.20171,-6.4255c-1.85263,0.50573 -3.77211,0.17302 -5.56401,-0.54006c-0.98782,2.27567 -2.0138,4.52694 -3.05011,6.74791l-1.735,3.60161c0,0 -1.08501,2.25227 -3.33729,1.16726c-2.25227,-1.08501 -1.16726,-3.33729 -1.16726,-3.33729l1.72206,-3.57456c1.22144,-2.61265 2.43174,-5.27203 3.57829,-7.96573c-0.03172,-0.45673 0.08561,-0.98219 0.47175,-1.56142c0.1209,-0.18135 0.24707,-0.33635 0.37668,-0.46822c1.56924,-3.82672 2.98514,-7.71566 4.09971,-11.63188c0,0 0.68682,-2.40381 3.09063,-1.71699c2.4038,0.68681 1.71699,3.09062 1.71699,3.09062c-1.07452,3.74695 -2.40411,7.46591 -3.87662,11.13302c2.0779,0.73438 3.4034,-0.52407 5.0728,-2.91984l1.03222,-1.06775c0,0 0.34305,-0.34305 0.87802,-0.57579c1.21005,-3.66019 2.33614,-7.34122 3.26437,-11.0628c0,0 0.60633,-2.42536 3.03169,-1.81903c2.42536,0.60633 1.81903,3.03169 1.81903,3.03169c-2.31658,9.24599 -5.80255,18.24755 -8.82504,27.29269l-0.77493,3.10732c0,0 -0.60634,2.42536 -3.0317,1.81902z" fill="#696969" stroke-width="0.5"></path>
      <path d="M284.96781,252.2678c-1.76776,1.76776 -3.53553,0 -3.53553,0l-1.53228,-2.56781c0,-2.32867 -0.16653,-4.91853 -0.15807,-7.50888c-0.0156,0.03802 -0.02481,0.06014 -0.02697,0.06473c-0.83576,1.78132 -1.19025,4.02804 -2.75555,5.22028c-1.97609,1.50513 -4.97905,3.58455 -7.0941,2.2819c-2.0957,-1.29074 -1.00008,-4.84629 -1.06447,-7.30674c-0.05072,-1.93779 1.23106,-7.52608 1.66468,-9.57445c1.45718,-6.88347 3.3539,-13.18913 6.49847,-19.49486c0,0 1.11805,-2.23606 3.35411,-1.11802c2.23606,1.11804 1.11802,3.35411 1.11802,3.35411c-4.80856,9.58986 -5.69174,19.94465 -8.88595,29.92195c-0.18754,0.5858 0.62068,-1.06341 0.89052,-1.61615c0.59966,-1.2283 1.17729,-2.46802 1.71655,-3.72401c1.18115,-2.75102 2.24127,-5.55245 3.36393,-8.32785l0.06701,-0.07792l-0.02422,-0.01211l2.21187,-4.42369c0.40087,-0.84561 1.26229,-1.43039 2.26029,-1.43039c1.36325,0 2.47165,1.09116 2.49946,2.44776l0.11906,4.9912l-0.01967,0.00047c0.00657,0.04766 0.01289,0.09537 0.01897,0.14313c0.08168,0.6419 -0.70444,6.8564 -0.75653,8.30333c-0.09457,2.62705 0.00259,5.25749 0.00259,7.88623l0.06781,-0.96771c0,0 1.76776,1.76776 0,3.53553z" fill="#696969" stroke-width="0.5"></path>
      <path d="M308.58681,211.78013c-2.08012,1.38676 -3.46688,-0.69336 -3.46688,-0.69336l-0.16158,-1.37053c-2.16062,2.27588 -4.80788,4.00575 -7.31842,5.87912c0.06013,0.29635 0.06012,0.50464 0.06012,0.50464c-0.00662,3.7302 -0.3456,7.44378 -0.62032,11.16331c0.30462,-0.06333 0.52028,-0.06334 0.52028,-0.06334c1.61861,0.01866 3.28176,-0.13661 4.80948,-0.6717l1.59054,-0.12829c0,0 2.5,0 2.5,2.5c0,2.5 -2.5,2.5 -2.5,2.5l-0.00943,-0.12828c-2.04947,0.65814 -4.23812,0.90897 -6.39059,0.92827c0,0 -0.3603,0 -0.80735,-0.13679c-0.09161,2.33555 -0.09116,4.67724 0.09882,7.03061c0.18439,2.2842 1.20805,4.43546 1.50886,6.70727c0.07975,0.60232 -0.82008,1.66527 -0.22956,1.80821c1.01761,0.24633 1.92333,-0.83672 2.92016,-1.15691c0.07331,-0.02355 6.13795,-1.53466 6.21013,-1.55266l2.30836,-0.77139c0,0 2.37171,-0.79057 3.16228,1.58114c0.79057,2.37171 -1.58114,3.16228 -1.58114,3.16228l-2.49157,0.82858c-3.18708,0.79859 -10.39689,3.49098 -13.26974,2.09036c-0.13223,-0.06447 -2.3875,-5.86904 -2.65549,-7.08804c-2.09717,-9.53931 -0.05523,-19.04959 -0.07372,-28.60263c0,0 0,-1.17128 0.80171,-1.9104c-0.3558,-1.47403 0.99827,-2.48959 0.99827,-2.48959c4.06946,-3.05212 6.88578,-5.03664 11.74165,-6.81628l3.03849,3.42952c0,0 1.38677,2.08012 -0.69335,3.46688z" fill="#696969" stroke-width="0.5"></path>
      <path d="M178.6836,199.97318c0.3544,0.37014 0.61642,0.91747 0.61642,1.72683c0,2.5 -2.5,2.5 -2.5,2.5c-2.34732,-0.00668 -4.7134,0.14495 -7.01651,0.59842c-0.58784,0.11574 -1.69352,-0.07492 -1.71939,0.52364c-0.03402,0.78719 1.68641,0.93368 1.62248,1.71901c-0.17205,2.11357 -0.948,4.27549 -2.24689,5.95169c-1.04435,1.34772 -6.89848,2.08527 -7.53001,4.06395c-0.27567,0.86371 0.33994,1.83055 0.1452,2.71602c-0.49986,2.27282 -2.2566,7.13227 -3.40912,9.42565c-0.37319,0.74259 -1.21498,1.22982 -1.45302,2.02609c-0.54197,1.8129 0.11255,3.78335 0.10726,5.67552c-0.00942,3.37267 -0.5258,6.02645 -1.63226,9.20044c0.04972,4.31246 -0.54418,7.35092 -1.6515,11.44122c-0.35216,1.30082 -1.44819,2.90587 -0.64848,3.99059c0.79452,1.07768 2.52767,-0.88624 3.77234,-1.37967c3.01862,-1.19669 3.98084,-1.10755 7.64894,-1.71857c5.98635,-0.99719 12.19568,-1.35977 18.27054,-1.58909l2.09453,-0.69815c0.2642,-0.09499 0.549,-0.14674 0.84591,-0.14674c1.38071,0 2.5,1.11929 2.5,2.5c0,1.06126 -0.66128,1.96808 -1.59426,2.33088c10.87912,-1.7409 21.79005,-4.02853 32.55664,-6.29809c2.60404,-0.54892 5.23706,-1.42606 7.89126,-1.72063c4.11026,-0.45618 8.51297,-0.01165 12.64678,0.02012l0.34339,0.23618l0.04672,-0.14017l2.34534,0.78176c1.02157,0.31417 1.76414,1.26534 1.76414,2.38995c0,0.99802 -0.5848,1.85944 -1.43043,2.2603l-0.91407,0.45703c1.03349,0.13714 2.08946,0.36942 3.09184,0.3831c7.85084,0.10715 16.03799,2.53349 23.79285,4.08292l0.12376,0.11434l0.00324,0.00072l0.02338,-0.07013l0.62158,0.2072c4.56349,0.09454 9.60228,2.27237 13.84028,3.81432c0.05669,0.02062 8.13039,3.2502 8.1717,3.26959c0.69867,0.32801 1.40251,0.67611 2.02563,1.13099c-0.37311,-0.82207 -0.83205,-1.70911 -0.19395,-2.02206c2.12241,-1.04091 4.71867,-0.32027 7.08205,-0.37047c5.65015,-0.12002 11.19429,0.60445 16.7938,0.91066c-0.46186,-0.85378 0.11091,-2.14968 3.00655,-4.1966c1.51916,-1.07389 5.05358,-0.96907 8.15739,-0.54367c-2.42233,-2.41652 -3.5574,-3.01922 -3.59379,-7.12414c-0.03075,-3.46917 1.45229,-3.06175 2.6119,-5.71551c0.84645,-1.93711 1.37917,-4.07459 1.38626,-6.18856c0.00624,-1.86017 -0.99632,-3.93014 -1.50028,-5.70107c-1.22976,-4.32145 -1.99339,-8.9733 -2.39822,-13.44142c-0.1146,-1.26478 -0.14925,-8.53451 -0.06922,-9.25799c0.03666,-0.33139 0.18722,-0.7155 0.37028,-1.06517l-1.85664,0.61887c-0.26419,0.09499 -0.54901,0.14674 -0.84591,0.14674c-1.38071,0 -2.5,-1.11929 -2.5,-2.5c0,-0.48519 0.13821,-0.93809 0.37741,-1.32148l2.3657,-3.94279c1.59628,-3.81716 4.78068,-7.04611 6.25298,-10.90632c1.27127,-3.33311 2.05898,-6.97591 2.85939,-10.53495c-2.71659,1.43293 -6.26671,2.48014 -7.85408,1.33988c-0.89299,-0.64147 1.64926,-2.50171 0.79998,-3.20002c-0.77229,-0.635 -1.30172,1.56663 -2.15729,2.084c-1.36462,0.82519 -2.96306,1.187 -4.39904,1.88062c-4.71183,2.27596 -8.3835,4.51865 -13.46585,5.97848c-6.22322,1.78752 -11.63364,2.88017 -18.03287,3.51044c-5.6238,0.5539 -10.75242,2.3302 -16.55179,1.59341c-2.7234,-0.346 -5.36874,-1.16037 -8.07685,-1.61064c-3.75489,-0.53937 -7.05505,-0.77079 -10.81771,-0.77062c-0.65677,0.00003 -6.61804,0.01886 -6.97434,-0.06688c-1.23817,-0.29795 -2.22894,-1.26532 -3.43697,-1.66844c-3.13924,-1.04757 -6.50198,-1.24083 -9.6486,-2.41721c-2.3829,-0.89087 -5.69405,-2.72213 -8.34054,-3.07972c-3.26229,-0.44081 -5.94142,-0.61405 -9.16871,-1.68899c-2.92801,-0.97526 -6.12525,-2.6672 -9.23127,-3.11103c-2.84137,-0.40601 -5.50953,-0.09013 -8.30105,-0.42331c2.10116,1.46284 3.82365,3.61212 3.0662,5.96694c-1.20234,3.73791 -6.05088,2.92969 -9.40468,1.79484c-0.34385,0.62757 -0.86363,1.40179 -1.59225,2.36157c-0.73717,0.97102 -2.233,0.98318 -3.37722,1.40396c-1.48619,0.54655 -3.00352,1.00418 -4.50697,1.50147zM246.85328,264.17582c-2.13203,-0.33715 -6.717,0.57687 -8.60146,-0.21796c-2.39004,-1.00808 -5.55319,-2.03298 -6.347,-4.50248c-0.22837,-0.71046 -0.36066,-1.31198 -0.41313,-1.81908c-1.90355,-0.05032 -3.80309,-0.05341 -5.64534,0.15155c-1.95988,0.21805 -5.40923,1.22872 -7.33458,1.63362c-11.23395,2.36248 -22.61665,4.74964 -33.96348,6.52826c-4.34759,0.68149 -8.53152,1.36483 -12.85795,2.20171c-1.51462,0.29298 -3.04673,1.1954 -4.54978,0.84789c-0.17923,-0.04143 -0.35518,-0.09129 -0.52826,-0.14848l-0.01863,0.07454l-3.14928,-0.78737c-1.11328,-0.25266 -1.94436,-1.2483 -1.94436,-2.43804c0,-1.08695 0.69367,-2.01188 1.66248,-2.35626c-1.39559,0.22237 -2.78327,0.48044 -4.15986,0.78253c-3.80808,0.83567 -7.3728,4.59099 -11.1704,0.94153c-4.05297,-3.89488 0.32486,-9.24992 0.90008,-13.36826c0.29511,-2.11282 -0.01913,-4.26676 0,-6.40001c0.37699,-1.17281 1.43624,-4.28233 1.58642,-5.50497c0.39046,-3.17874 -0.77023,-6.91662 0.08854,-10.01897c0.29152,-1.05313 1.26018,-1.79563 1.74693,-2.77396c1.03654,-2.08339 2.51446,-6.05165 2.9909,-8.1744c0.26914,-1.1991 -0.39386,-2.57954 0.1452,-3.68394c2.44968,-5.01882 5.34245,-2.63694 8.46999,-5.53609c0.55229,-0.51196 1.04418,-1.30075 0.95318,-2.0483c-0.13943,-1.14534 -2.02597,-2.01787 -1.57759,-3.08098c1.46822,-3.48115 4.61695,-4.66635 7.93489,-5.06965c-0.16685,-1.72409 1.60262,-2.43022 1.60262,-2.43022l4.12422,-1.6447c1.60393,-0.53501 3.18741,-1.13578 4.81179,-1.60505c0.23077,-0.06667 0.64023,-0.00272 0.99343,0.04883l-1.67957,-1.25967c-0.62044,-0.45491 -1.02328,-1.18914 -1.02328,-2.01746c0,-1.38071 1.11929,-2.5 2.5,-2.5c0.18572,0 0.36672,0.02025 0.5409,0.05867l3.94938,0.78986l-0.02263,0.11314l0.34368,-0.02637c0.98768,0.51053 1.89481,1.22334 2.96306,1.53157c0.14794,0.04269 0.2998,0.05673 0.45391,0.05414c-0.46601,-0.48477 -0.89549,-1.04382 -1.19603,-1.45326l-3.2,-3.19997c-0.45242,-0.45241 -0.73224,-1.07742 -0.73224,-1.76778c0,-1.38071 1.11929,-2.5 2.5,-2.5h4.79999v0.08154l0.30545,-0.06281c3.6435,0.91085 6.85419,0.2935 10.49504,0.81355c3.37598,0.48221 6.78152,2.22579 9.96868,3.28899c3.07648,1.02628 5.33707,1.04819 8.43126,1.51102c3.03156,0.45345 6.46119,2.26753 9.25945,3.32025c3.11221,1.17084 6.43227,1.34419 9.55148,2.38277c1.05489,0.35124 1.88755,1.2497 2.96305,1.53157c1.87855,0.49233 3.88359,-0.06696 5.82558,-0.06688c4.00943,0.00018 7.58418,0.26117 11.58231,0.82942c5.27136,0.88053 9.96847,2.05983 15.37136,1.58274c2.70893,-0.23921 5.2944,-1.32563 8,-1.59998c7.38169,-0.74851 14.67485,-1.82989 21.70425,-4.62788c4.45173,-1.77197 8.18199,-5.21974 12.91117,-6.44032c4.97981,-1.28527 8.27651,-2.91765 7.22105,0.4365c0.42361,-0.07546 0.8892,-0.08589 1.24962,-0.29493c1.05793,-0.61362 1.80446,-1.71698 2.91633,-2.22639c0.0213,-0.00976 0.04263,-0.01943 0.06399,-0.02903l-0.00682,-0.01023l2.37152,-1.58105c0.40239,-0.27681 0.88988,-0.43884 1.41521,-0.43884c1.38071,0 2.5,1.11929 2.5,2.5c0,0.28224 -0.04677,0.55355 -0.13298,0.80661l-0.94145,2.98928c-1.21994,4.85608 -2.11579,10.09686 -3.92167,14.77472c-0.98438,2.54989 -2.69644,4.75533 -4.05256,7.12849c-0.56759,0.99326 -0.99349,2.09024 -1.56794,3.07849c0.14934,0.0399 0.29452,0.1006 0.43466,0.18635c4.35911,2.66745 1.66359,4.62372 1.34968,7.43651c-0.63577,5.69677 0.47379,11.9347 1.57993,17.49047c0.66318,3.33092 2.44379,6.66628 2.45235,10.10912c0.00191,0.76926 -1.36966,7.15836 -1.81369,8.21134c-0.15446,0.36629 -2.16572,2.84121 -2.18815,3.88459c-0.04498,2.09253 1.0618,2.36562 2.46962,3.73628c0.69386,0.67555 1.3636,1.37498 2.01804,2.08911l0.00097,-0.00145l2.3677,1.57846c0.68926,0.44513 1.14551,1.2201 1.14551,2.10163c0,1.1246 -0.74256,2.07576 -1.76412,2.38994l-2.34528,0.78176l-0.08409,-0.25227l-0.61053,0.37872c-2.65004,-0.60109 -5.29611,-0.50593 -7.91424,-0.88684l0.49497,0.37123c0.62045,0.45492 1.02328,1.18914 1.02328,2.01746c0,1.38071 -1.11929,2.5 -2.5,2.5c-0.00367,0 -0.00733,-0.00001 -0.011,-0.00002l-3.88006,-0.01459l0.00002,-0.00612l-0.02208,0.00594c-3.38366,-0.07511 -6.74863,-0.5247 -10.12199,-0.799c-0.30907,-0.02513 -9.80957,-0.20869 -9.96393,-0.23972c-1.05064,-0.21121 -1.82144,-1.75138 -2.85679,-1.47477c-0.71868,0.192 1.59039,1.39412 1.0919,1.94628c-1.17987,1.30692 -3.054,2.10375 -4.81325,2.17575c-1.47695,0.06045 -2.68612,-1.23595 -4.04695,-1.81315c-1.29016,-0.54722 -2.60311,-1.03904 -3.90434,-1.55938c-3.9792,-1.59123 -8.12954,-3.24825 -12.29005,-4.30523c-0.86306,-0.21926 -1.79306,-0.22655 -2.69153,-0.31754c-0.02985,0.00106 -0.05983,0.00158 -0.08994,0.00158c-0.18574,0 -0.36675,-0.02025 -0.54094,-0.05868l-3.94938,-0.78992l0.01154,-0.05769c-0.0543,0.0075 -0.10859,0.01499 -0.16289,0.02249l-0.12492,-0.1164l-0.02396,0.07187l-2.34533,-0.78175c-0.08212,-0.02526 -0.16243,-0.05463 -0.24071,-0.08787c-4.85556,-1.0726 -9.75382,-2.26461 -14.57014,-3.02625z" fill="#696969" stroke-width="0.5"></path>
      <path d="M172.16773,129.53219c1.7678,1.76773 0.00007,3.53554 0.00007,3.53554l-1.0678,1.03229c-1.08844,0.81495 -2.20043,1.59915 -3.33057,2.35674c0.21031,0.36619 0.33057,0.79068 0.33057,1.24326c0,0.69036 -0.27983,1.31537 -0.73224,1.76778l-3.20001,3.19998l-0.037,-0.037l-0.07626,0.14342c-9.19612,7.16927 -17.76294,15.32811 -27.46769,21.80593c0,0 -2.08011,1.38677 -3.46688,-0.69334c-1.38677,-2.08012 0.69334,-3.46689 0.69334,-3.46689c3.81565,-2.54053 7.44659,-5.35422 11.00935,-8.26517c-0.70314,-1.66701 0.87556,-2.85333 0.87556,-2.85333l2.59406,-1.94932c2.64443,-1.98692 5.25771,-4.01583 7.84168,-6.08076c1.34569,-1.07539 2.46612,-2.52119 4.03887,-3.22388c0.00115,-0.00051 0.00229,-0.00102 0.00343,-0.00153c-1.11285,-2.05941 0.93752,-3.28963 0.93752,-3.28963c2.40082,-1.4381 4.74883,-2.9752 6.98626,-4.65626l0.53218,-0.56775c0,0 1.76773,-1.7678 3.53553,-0.00007z" fill="#696969" stroke-width="0.5"></path>
      <path d="M227.6625,117.05332c3.04311,-1.03264 6.79724,-2.60787 7.54478,-5.67776c0.21944,-0.90114 -0.20311,-1.86065 -0.08854,-2.78102c0.13457,-1.08101 1.49092,-4.40919 -0.29835,-5.49036c-0.89554,-0.54113 -2.78444,1.30514 -3.03363,1.47594c-3.43708,2.35598 -5.28822,5.94033 -5.3536,10.1455zM223.89269,120.32564c-0.35251,-0.35511 -0.52875,-0.70762 -0.52875,-0.70762l-1.79703,-3.74366c-0.05235,-6.31678 1.97639,-11.8739 7.44633,-15.45448c2.6566,-1.73898 4.47637,-3.47852 8.16644,-1.72407c1.95984,0.9318 2.82221,2.50749 3.14087,4.26263c0.63709,-1.97223 1.39593,-3.86272 2.23368,-5.5568c1.66271,-3.3623 3.7447,-6.20466 4.62043,-9.90796c0,0 0.57885,-2.31543 2.86774,-1.856l0.67748,-1.32438c0.28181,-0.40982 0.57956,-0.7972 0.89187,-1.1639l-2.11172,-3.04938c0.03576,-1.09184 0.07151,-2.18368 0.10727,-3.27553c-2.7181,-3.66847 -5.96306,-4.50741 -9.90565,-6.47868c-2.57715,-1.28856 -4.39823,-2.94071 -7.54628,-2.95063c-1.79053,-0.00565 -3.41197,1.09593 -5.14905,1.53019c-2.70103,0.67525 -7.14584,1.24971 -9.23853,3.34241c-1.37524,1.37524 -1.11337,2.25128 -1.85809,3.98892c-1.2369,2.88603 -3.09002,6.20559 -3.87658,9.2177c-0.52429,2.00776 0.05321,4.15016 0.0346,6.22517c0.74986,2.4284 2.97733,4.05375 4.4124,6.21368c3.04241,4.57916 5.58758,11.42386 3.40617,16.79815c-1.73905,4.28445 -5.86171,7.86709 -10.16693,9.31345c-1.53761,0.51657 -3.25375,0.30985 -4.79999,0.79999c-0.728,0.23077 -1.25343,0.87292 -1.87544,1.31603c-0.91135,0.64924 -1.96609,1.13831 -2.72455,1.96101c-2.17962,2.36421 -0.70038,6.86603 0.3669,9.38674c0.66229,1.56421 1.91139,2.80872 2.84709,4.22641c2.81637,2.93872 4.93937,2.62562 8.77213,3.1037c1.09105,0.1361 2.11086,0.6495 3.20001,0.80002c3.04992,0.42148 5.22814,-1.16953 8.09408,-1.58646c0.99824,-0.14523 2.04669,0.27627 3.02607,0.0346c1.02948,-0.25403 1.84434,-1.0558 2.81763,-1.47658c3.49982,-1.51307 6.8964,-1.31876 9.32862,-4.75208c1.61253,-2.27624 2.37406,-5.4412 3.1929,-8.23326c-0.07142,-0.13303 -0.14168,-0.26845 -0.21058,-0.40658c-0.75278,-1.50923 -0.84876,-3.29001 -1.60002,-4.8c-0.48675,-0.97833 -1.45541,-1.72081 -1.74693,-2.77393c-0.09769,-0.35291 -0.11111,-3.55528 -0.11035,-5.57606c-2.64722,3.39811 -7.22803,5.13054 -11.10636,6.42333c0,0 -2.3717,0.79058 -3.16228,-1.58112c-0.06644,-0.19933 -0.11055,-0.38749 -0.1356,-0.56495zM239.98497,143.63337c-2.74805,2.2793 -5.51914,2.25501 -8.62826,3.57632c-1.21954,0.51827 -2.29756,1.39874 -3.58226,1.72342c-1.09043,0.27558 -2.26013,-0.12146 -3.37396,0.0346c-3.39962,0.47632 -5.83345,2.03262 -9.5059,1.61355c-1.09241,-0.12465 -2.10904,-0.66337 -3.20001,-0.80002c-2.9917,-0.37474 -6.29568,-0.13446 -9.00886,-1.95461c-1.16683,-0.78278 -2.01271,-1.96113 -3.01906,-2.94169c-3.73585,-5.55694 -8.36271,-13.66798 -3.18603,-19.98682c0.98107,-1.19752 2.41652,-1.93809 3.67547,-2.83898c0.94305,-0.67484 1.82922,-1.50338 2.92461,-1.88398c1.53221,-0.53238 3.2599,-0.29087 4.79999,-0.79999c3.23414,-1.06912 5.97674,-3.56803 7.43303,-6.68654c1.06734,-2.28562 0.49399,-2.37673 -0.13906,-4.78232c-0.14038,-0.53342 -0.97497,-4.22721 -1.42041,-5.10792c-1.97164,-3.8983 -5.17942,-6.10858 -6.62196,-10.29794c-0.0012,-0.16429 -0.09284,-7.64721 0.0346,-8.17486c0.7794,-3.22687 2.80774,-6.91225 4.12341,-9.98231c1.16894,-2.72765 0.49009,-3.15918 2.94197,-5.61106c2.87619,-2.87619 7.78442,-3.71335 11.56139,-4.65759c2.02992,-0.50747 3.95864,-1.66551 6.05103,-1.66981c4.21046,-0.00867 6.62024,1.73268 10.05369,3.44938c2.27039,1.13518 5.33638,1.8943 7.41598,3.31916c2.67083,1.82994 3.42949,3.5916 5.07839,6.20216c0.03576,1.57483 0.07152,3.14965 0.10728,4.72447l0.86776,-0.16774c0,0 0.01049,0.01049 0.02904,0.03065c3.92684,-2.4025 8.80153,-3.41219 13.30725,-4.76106c5.39648,1.20699 11.36651,2.19047 15.46368,6.33036c2.61566,2.64293 3.79102,6.4874 4.65759,9.96144c0.8741,3.5042 -0.22676,8.38627 1.42048,11.50798c1.43873,2.72657 3.83403,4.5054 5.48081,6.98404c0.51146,0.76982 0.50475,1.78982 0.91914,2.61595c0.44527,0.88769 1.2533,1.57247 1.64053,2.48698c1.9275,4.55203 1.82457,9.39838 1.78141,14.21183c-0.79812,2.41949 -2.07128,6.04042 -3.54111,8.1139c-2.34233,3.30431 -4.89054,3.51494 -7.93982,5.56577c-3.90099,2.62366 -7.3572,4.24277 -11.71941,5.8646c-1.21215,0.45067 -2.22933,1.41347 -3.49299,1.68841c-4.66848,1.01576 -8.92128,-0.39132 -13.27333,-1.63282c-1.27029,-0.36237 -5.0412,-1.10691 -6.21536,-1.87368c-3.80379,-2.48402 -6.82062,-6.73421 -8.25739,-10.93608c-0.08945,-0.27764 -0.18767,-0.54382 -0.29328,-0.80067c-1.1355,3.13531 -2.60014,6.06264 -5.35008,8.3435zM251.71264,89.81694c-2.52105,8.34314 -8.44099,15.45224 -8.41262,24.68306c0.00582,1.89217 -0.64924,3.86263 -0.10727,5.67554c0.23804,0.79626 1.07985,1.28348 1.45302,2.02606c0.71785,1.42843 0.83309,3.10709 1.48709,4.56212c0.98514,0.54709 1.17734,1.44314 1.1648,2.09989c1.12183,1.81801 2.31865,3.43655 3.07408,5.64583c1.01955,3.16454 3.36117,6.34999 6.14263,8.26394c1.41641,0.97465 3.33159,0.85334 4.9846,1.32632c3.46394,0.99115 6.99422,2.41871 10.72666,1.56719c1.06482,-0.24293 1.88558,-1.12497 2.90704,-1.5116c1.99781,-0.75619 4.16289,-1.14889 6.0125,-2.21755c2.52513,-1.45896 4.7492,-3.5744 7.35645,-4.88353c1.31113,-0.65833 3.01556,-1.01129 3.77175,-2.26854c1.07716,-1.79092 2.1725,-4.265 2.85891,-6.28612c-0.04375,-3.79469 0.13887,-7.80549 -1.41854,-11.38815c-0.37072,-0.8528 -1.1449,-1.48069 -1.55954,-2.31301c-0.34004,-0.68257 -0.25662,-1.55039 -0.68084,-2.18409c-1.73178,-2.58696 -4.29645,-4.46278 -5.71913,-7.41593c-1.59004,-3.30054 -0.60771,-6.17658 -1.03546,-9.59291c-0.70936,-5.66556 -3.0256,-10.63393 -8.21715,-13.25968c-2.26844,-1.14732 -5.17046,-1.43864 -7.60566,-2.14762c-4.79519,1.89383 -11.10915,2.33089 -14.0158,6.88857l-0.64406,1.33128c0,0 -0.84115,1.68231 -2.52346,1.39892z" fill="#696969" stroke-width="0.5"></path>
      <path d="M261.06072,115.38129c-1.37608,1.64641 -3.24742,0.39885 -3.24742,0.39885c-0.92701,-0.63746 -2.01282,-1.09047 -2.78105,-1.91237c-3.17535,-3.39717 -2.36885,-7.10796 -2.33221,-11.36777c0.02695,-3.13218 -0.43688,-6.00038 2.58248,-8.38675c1.31502,-1.03933 3.26043,-0.78231 4.87582,-1.22951c2.72332,-0.75391 4.84192,-2.12575 7.99841,-0.69344c5.26065,2.38711 7.96491,11.83638 4.27133,16.57147c-1.67973,2.15338 -7.86829,6.26454 -10.65087,6.63193c-0.24129,0.03186 -0.47984,0.02352 -0.71651,-0.01242zM257.72476,108.07992c1.94082,-0.63881 2.91128,1.302 2.91128,1.302l-0.64542,0.34638c2.37921,1.12631 6.6303,-2.03119 8.38128,-3.8901c1.0618,-1.12723 0.48754,-3.09057 0.34688,-4.63273c-0.15386,-1.68688 -0.64621,-3.6188 -2.47545,-4.39578c-1.54762,-0.65735 -3.41034,0.61183 -4.80164,0.90654c-1.02592,0.21731 -2.21179,-0.14648 -3.12417,0.37053c-1.05419,0.59737 -0.6226,3.90489 -0.61747,4.41324c0.02436,2.41397 -0.28052,4.12604 0.02471,5.57992z" fill="#696969" stroke-width="0.5"></path>
      <path d="M304.00003,105.79999c-2.5,0 -2.5,-2.5 -2.5,-2.5l0.04943,-2.89466c1.65767,-8.16609 4.92772,-14.10989 10.19416,-20.54346c1.64408,-2.00844 6.57384,-6.0304 6.71789,-8.99136c0.02276,-0.46788 -0.40845,0.8837 -0.78001,1.16895c-0.69572,0.53409 -1.55245,0.81675 -2.33148,1.21973c-1.43579,0.74272 -2.72501,1.91535 -4.31199,2.22008l-1.65125,1.10084l0.00001,0.00001l-2.37158,1.58105c-0.40238,0.2768 -0.88986,0.43883 -1.41519,0.43883c-1.38071,0 -2.5,-1.11929 -2.5,-2.5c0,-0.88153 0.45625,-1.6565 1.14551,-2.10163l2.32513,-1.55009c2.42287,-1.81531 4.90749,-3.55089 7.26936,-5.44489c2.67609,-2.14597 5.20266,-4.74231 8.0676,-6.65896c-2.32259,0.37987 -4.7859,0.73299 -5.56539,0.65153c-0.04743,-0.00496 -0.09481,-0.01016 -0.14216,-0.01561v0.01965h-5v0c-1.38071,0 -2.5,-1.11929 -2.5,-2.5c0,-0.998 0.58479,-1.85941 1.43039,-2.26028l3.47941,-1.73973l0,0l0.00001,-0.00001c1.12502,-0.5625 2.20955,-1.23472 3.30617,-1.87435c-0.95173,0.06603 -1.90089,0.14865 -2.83086,0.32684c-2.99172,0.57327 -5.8269,1.82052 -8.8168,2.40326c-3.3195,0.64699 -6.46776,0.86046 -9.6511,0.82287l0.02822,0.25396l-4.93332,0.54814c-0.10227,0.01274 -0.20646,0.0193 -0.31218,0.0193c-1.38071,0 -2.5,-1.11929 -2.5,-2.5c0,-0.57191 0.19204,-1.09897 0.51515,-1.52021l2.38488,-3.17981l0.03791,0.02844l0.07345,-0.16645c1.06667,-1.06665 2.17775,-2.09068 3.2,-3.19997c0.6855,-0.74386 1.27233,-1.57297 1.91689,-2.35257c0.09074,-0.10975 0.23418,-0.28141 0.38556,-0.46164c-2.00899,2.16575 -4.43375,3.23411 -7.04122,4.9417c-2.5482,1.66877 -5.18705,3.23127 -7.52749,5.18074c-1.25797,1.04783 -2.10077,2.5813 -3.4753,3.47073c-0.03823,0.02473 -0.07657,0.04929 -0.115,0.07366l0.01126,0.01406l-3.88879,3.11104c-0.43024,0.35028 -0.97924,0.56027 -1.57729,0.56027c-1.38071,0 -2.5,-1.11929 -2.5,-2.5c0,-0.29831 0.05224,-0.58442 0.14809,-0.84967l0.79342,-2.36767l0.07144,0.02394l-0.00218,-0.20659c0.02171,-0.04189 0.04343,-0.08377 0.06516,-0.12565c-1.62321,1.56179 -3.22072,3.14267 -4.76127,4.76495c-2.83286,2.98315 -5.2189,6.31345 -8.04652,9.30415l0.54073,1.29779c0,0 0.95874,2.30885 -1.35011,3.2676c-2.30885,0.95874 -3.2676,-1.3501 -3.2676,-1.3501l-1.4546,-3.51582c-3.59756,-6.29886 -6.01322,-12.98906 -8.21993,-19.88836c-0.8579,-2.68221 -1.74189,-5.36062 -2.42722,-8.09202c-0.2588,-1.03146 0.02624,-3.4733 -0.94771,-3.0463c-0.30411,0.13333 0.09728,0.66731 0.04462,0.99517c-0.13566,0.84464 -0.52584,1.64227 -0.60506,2.49407c-0.23754,2.554 -0.49222,5.08725 -0.74466,7.62996l0.70473,3.52367c0.03842,0.17418 0.05867,0.35518 0.05867,0.5409c0,1.38071 -1.11929,2.5 -2.5,2.5c-0.73367,0 -1.39353,-0.31603 -1.85086,-0.8194l-1.75751,-1.92088l0.10345,-0.09466l-0.31904,-0.17652c-2.34329,-4.65489 -4.50679,-6.70508 -7.66465,-10.65053c-0.58831,-0.73504 -0.71291,-1.78693 -1.34783,-2.4821c-0.33561,-0.36745 -0.68221,0.81732 -0.70818,1.31428c-0.06864,1.31316 0.16,2.67907 -0.21676,3.93888c-0.70345,2.35221 -0.87438,5.4683 -2.97608,6.7374c-1.49776,0.90442 -3.35912,-1.09341 -4.84752,-2.01315c-2.72997,-1.68696 -4.85662,-4.70412 -6.41457,-7.58326c0.02728,0.22261 0.05293,0.4331 0.08741,0.60359c0.05728,0.28319 1.55307,7.61739 1.56359,7.75605c0.16096,2.11979 1.43071,4.81627 -0.01202,6.37767c-1.21668,1.31676 -3.68659,0.09786 -5.34733,-0.57749c-0.43397,-0.17648 -3.95978,-2.50853 -5.83912,-4.38535c0.43721,0.87338 0.82283,1.77392 1.30931,2.62062c0.87464,1.52228 4.02143,5.29098 3.40242,6.86617c-1.14067,2.90266 -4.07345,2.74558 -6.471,2.19263c0.13271,0.30519 0.20629,0.64202 0.20629,0.99603c0,1.12461 -0.74257,2.07577 -1.76414,2.38994l-2.34534,0.78176v0c-2.29153,0.75672 -4.67284,1.2852 -7.07116,1.55312c-0.29969,0.03348 -0.88134,-0.39825 -0.89942,-0.09724c-0.00572,0.09513 0.02902,0.1731 0.08888,0.24012l4.62708,1.54235c1.02157,0.31418 1.76412,1.26534 1.76412,2.38994c0,1.38071 -1.11929,2.5 -2.5,2.5h-2.93019c-2.75136,0.81848 -5.08783,1.38298 -7.66824,2.77018c-0.78005,0.41935 -2.89777,2.23633 -1.85706,3.55858c0.40791,0.51825 1.30836,-0.18797 1.97607,-0.12424l4.8293,0.01436c1.37773,0.0035 2.49351,1.12144 2.49351,2.49999c0,1.12459 -0.74256,2.07576 -1.76412,2.38993l-4.63737,1.54581c-1.22585,0.48642 -2.43477,1.01803 -3.67806,1.45795c-4.63119,1.63867 9.25297,-2.8881 6.79495,4.59845c-0.45851,1.39649 -3.12334,2.7639 -5.9562,3.65541c0.48474,0.05599 0.96006,0.15393 1.41905,0.32462c0.09347,0.03476 0.18634,0.07074 0.27867,0.10787l0.01014,-0.03041l4.68849,1.56361c1.02138,0.31428 1.76377,1.26536 1.76377,2.38983c0,1.0954 -0.7045,2.02626 -1.68513,2.36419l-4.63309,1.71886l-0.00592,-0.01595l-0.06121,0.03977c-1.57358,0.48289 -3.17102,0.89396 -4.72073,1.44868c-0.77896,0.27884 -1.52023,0.66218 -2.2729,1.01109c0.26364,0.06786 0.52946,0.11267 0.79932,0.11147c2.8149,-0.01259 5.43252,-1.84594 8.24728,-1.81564c0.0421,0.00046 0.08419,0.0011 0.12626,0.00194l-0.0021,-0.01889l4.93332,-0.54816c0.10227,-0.01274 0.20646,-0.0193 0.31218,-0.0193c1.38071,0 2.5,1.11929 2.5,2.5c0,0.99801 -0.5848,1.85943 -1.43041,2.26029l-2.34049,1.17024c0.50412,0.45737 0.82071,1.11774 0.82071,1.85205c0,0.17715 -0.01843,0.34999 -0.05347,0.51673l0.45771,-0.15257c0.2642,-0.09499 0.54903,-0.14674 0.84593,-0.14674c1.38071,0 2.5,1.11929 2.5,2.5c0,0.82677 -0.40134,1.55981 -1.01983,2.01492l-3.3119,2.49219c-3.2391,3.07714 -6.87845,5.31437 -10.00047,8.46066c0,0 -1.76775,1.76778 -3.53553,0.00002c-1.17967,-1.17965 -0.78492,-2.35932 -0.3917,-3.01367c-0.32789,0.12989 -0.65254,0.2598 -0.9729,0.39049l-0.08798,-0.00564l0.01091,0.03273l-2.34466,0.78157c-0.26421,0.09499 -0.54903,0.14674 -0.84594,0.14674c-1.38071,0 -2.5,-1.11929 -2.5,-2.5c0,-0.79811 0.374,-1.50888 0.95629,-1.9666l3.8863,-3.10905l0.01002,0.01253c0.02465,-0.02578 0.04941,-0.05147 0.07426,-0.07707c0.59568,-0.61356 1.5949,-1.3025 2.73077,-1.9852c-0.11681,0.01673 -0.23622,0.02539 -0.35766,0.02539c-1.38071,0 -2.5,-1.11929 -2.5,-2.5c0,-0.94657 0.52607,-1.77027 1.30179,-2.19468l0.40535,-0.23163c-1.07326,-0.13144 -2.10364,-0.38091 -3.04882,-0.75744c-1.53425,-0.61119 -4.02893,-0.99835 -4.19142,-2.64184c-0.20009,-2.02382 1.8827,-3.72659 3.4315,-5.04458c0.96662,-0.82258 3.68825,-1.79332 6.13145,-2.5689c-0.23258,-0.01576 -0.46447,-0.03308 -0.69545,-0.05141l-0.09224,-0.03445l-0.00337,0.02093l-4.89667,-0.7892c-1.21104,-0.17373 -2.14184,-1.21543 -2.14184,-2.47454c0,-0.79175 0.36806,-1.49753 0.9424,-1.95559l2.9828,-2.41855l0.24401,0.30094c0.70465,-0.65976 1.45728,-1.26284 2.24599,-1.73562c-0.11457,-0.08091 -0.22476,-0.1692 -0.33008,-0.26556c-1.33078,-1.21766 -1.80085,-3.50847 -1.3218,-5.24749c0.28187,-1.0232 1.63946,-1.95725 3.17544,-2.72879c-1.63694,-1.50802 -1.70212,-4.22626 -0.74874,-7.73832c0.8216,-3.02659 4.47542,-4.65787 7.9746,-5.7232c-0.34928,-0.87648 -0.42144,-2.25032 -0.08486,-4.34766c0.42414,-2.64293 3.65948,-3.54184 6.69734,-4.08282c0.01087,-0.67227 0.14168,-1.53947 0.42746,-2.64497c0.56557,-2.18784 3.38259,-3.19899 5.51797,-3.93836c1.06963,-0.37036 2.18639,0.58738 3.27615,0.89344c0.04535,0.01273 0.094,0.0267 0.14544,0.04179c-0.35597,-0.60263 -0.5831,-1.14525 -0.60667,-1.1867c-1.83931,-3.23396 -5.49221,-9.64414 0.87202,-11.70627c0.9329,-0.30228 5.67245,2.80981 6.76589,3.63342c0.39708,0.29909 0.81145,0.58309 1.22325,0.87071c-0.13222,-0.78272 -0.19636,-1.58658 -0.35035,-2.36237c-0.45002,-2.2672 -1.95224,-7.9032 -0.37664,-9.95206c1.11947,-1.45573 3.49294,-1.13526 5.23941,-1.70289c2.1122,2.67811 4.22723,5.36778 6.58829,7.8293c0.62046,0.64686 1.39261,1.1696 1.94664,1.86693c-0.44404,-4.88683 0.415,-12.48693 7.49016,-10.4875c1.67503,0.47336 2.26372,2.64622 3.45222,3.91793c2.08088,2.22655 3.73205,4.1298 5.21253,6.28986c0.00409,-0.03272 0.00776,-0.06546 0.01099,-0.0982c0.50352,-5.10795 1.43514,-17.31264 10.03798,-9.31797c1.04778,0.97371 0.84512,2.73306 1.26049,4.10179c0.47836,1.57632 0.94728,3.15548 1.4207,4.73328c2.06776,6.89126 4.30986,13.65174 7.61067,20.01336c2.29193,-2.59608 4.35407,-5.36796 6.74698,-7.88783c4.95111,-5.21379 10.48354,-10.00433 15.5788,-15.09959l0,-0.00001v0l2.86449,-2.86446v0c0.45241,-0.4524 1.07741,-0.73222 1.76776,-0.73222c1.38071,0 2.5,1.11929 2.5,2.5c0,0.57191 -0.19204,1.09898 -0.51516,1.52022l-2.38488,3.17978l-0.36111,-0.27083c-0.5457,1.20674 -1.12434,2.38686 -1.72531,3.55799c3.26977,-2.45809 7.12662,-4.44046 10.20142,-6.35716c2.082,-1.29783 6.68656,-4.4894 8.88655,-2.90017c5.03233,3.63526 -0.50482,9.59796 -3.72267,12.75375c2.57893,-0.71857 5.19943,-0.54312 8.25277,-1.13932c4.82447,-0.94204 9.02966,-2.84669 14.03318,-3.05668c3.55555,-0.14922 10.11537,-1.47633 8.75254,5.65043c-0.21395,1.11884 -1.63249,1.39332 -2.84697,1.79652c0.51004,-0.06669 1.02577,-0.14118 1.54705,-0.23004l0.14631,0.0308l-0.0023,-0.04275l3.48363,-0.18782c0.05123,-0.00313 0.10288,-0.00472 0.1549,-0.00472c1.38071,0 2.5,1.11929 2.5,2.5c0,0.69035 -0.27982,1.31535 -0.73223,1.76776v0l-3.53553,3.53554l-0.01301,-0.01301c-0.03529,0.04187 -0.07083,0.08357 -0.10663,0.12506c-0.15447,0.17907 -4.2391,3.24598 -6.11311,4.68351c1.63376,1.90314 1.30586,5.0721 0.7596,7.52867c-0.15993,0.71922 -6.05638,7.6607 -6.74851,8.50397c-4.76312,5.80309 -7.68365,11.00469 -9.15998,18.36316l0.04942,1.90533c0,0 0,2.5 -2.5,2.5z" fill="#696969" stroke-width="0.5"></path>
      <path d="M144.03839,172.45227c-1.95227,-1.56161 -0.39065,-3.51388 -0.39065,-3.51388l2.72579,-3.3874c4.52038,-3.78409 9.40787,-8.52172 14.87039,-11.03038c0.06279,-0.06279 0.12558,-0.12558 0.18837,-0.18837c0,0 1.06282,-1.06281 2.36436,-0.71617c0.17656,-0.0167 0.38171,-0.02165 0.59937,0.00126c1.42,-1.05105 2.85159,-2.08643 4.30413,-3.0947c-0.00007,-0.00753 -0.0001,-0.01507 -0.0001,-0.02262c0,-0.88153 0.45625,-1.65649 1.14549,-2.10162l2.21536,-1.47693c3.98128,-3.96115 8.62619,-7.02855 12.57132,-10.98919c0,0 1.76776,-1.76778 3.53554,-0.00002c1.76778,1.76775 0.00002,3.53554 0.00002,3.53554c-0.89362,0.89049 -1.81912,1.73904 -2.76289,2.564c0.66102,0.44987 1.09515,1.20836 1.09515,2.06824c0,0.48519 -0.13822,0.93809 -0.37742,1.32148l-2.37888,3.96477l-0.03843,-0.02306c-0.06582,0.12239 -0.13458,0.24345 -0.20652,0.36306c-0.93724,1.55808 -2.75865,2.37 -4.16805,3.51874c-1.84751,1.50583 -3.72336,2.97918 -5.60393,4.44687c2.21277,-0.59447 4.48464,-1.0249 6.37036,-1.59103l0.01697,-0.00144l-0.00091,-0.0032l4.75209,-1.35775c0.23453,-0.07282 0.48385,-0.11205 0.74233,-0.11205c1.38071,0 2.5,1.11929 2.5,2.5c0,0.36751 -0.0793,0.71651 -0.22173,1.0308l-1.58589,3.72263l-0.06028,-0.02568c-0.10349,0.23516 -0.22077,0.46479 -0.35452,0.68783c-0.41312,0.68891 -1.08812,1.11996 -1.83402,1.4812c0.38736,0.04904 0.77395,0.08735 1.14835,0.00911c5.28197,-1.1037 10.67544,-3.71198 15.72621,-5.53964l0.19331,0.0026l-0.00934,-0.0467l3.94938,-0.78987c0.17418,-0.03842 0.35518,-0.05867 0.5409,-0.05867c1.38071,0 2.5,1.11929 2.5,2.5c0,0.41989 -0.10352,0.8156 -0.28642,1.16301l-0.88534,1.7707c0.61763,-0.23212 1.2353,-0.46414 1.85299,-0.69608c-0.01168,-0.04789 -0.02257,-0.09698 -0.03265,-0.14731c-0.4903,-2.45145 1.96115,-2.94175 1.96115,-2.94175c6.71746,-1.28232 13.01495,-5.6133 19.51926,-8.0543l4.14366,-1.45338c0,0 2.35912,-0.82737 3.1865,1.53175c0.82737,2.35912 -1.53175,3.18649 -1.53175,3.18649l-4.09313,1.43536c-1.90536,0.71393 -3.77298,1.55807 -5.6292,2.43605c0.01217,0.02998 0.0241,0.06051 0.03576,0.09161c0.87783,2.34081 -1.46299,3.21865 -1.46299,3.21865l-3.62479,1.35934c-4.68118,1.75549 -9.36166,3.51288 -14.04255,5.26916c-1.60504,0.60222 -3.11472,1.59247 -4.81582,1.80475c-0.04766,0.00595 -0.09534,0.01163 -0.14302,0.01706l0.00539,0.02156l-4.79632,1.19908c-0.21047,0.05753 -0.43201,0.08824 -0.66073,0.08824c-1.38071,0 -2.5,-1.11929 -2.5,-2.5c0,-0.92661 0.50412,-1.73548 1.25305,-2.16731l3.7639,-2.25833c0.01967,-0.01955 0.03937,-0.03916 0.05911,-0.05881c-4.35873,1.71878 -8.91217,3.65811 -13.37561,4.55218c-0.94755,0.18981 -2.14176,0.1663 -3.40045,0.03228h-5c-1.38071,0 -2.5,-1.11929 -2.5,-2.5c0,-0.57191 0.19204,-1.09897 0.51515,-1.52021l2.25081,-3.00106c-1.45867,0.43213 -2.91626,0.86782 -4.36772,1.32345c-1.70559,0.5354 -3.31023,1.64564 -5.09777,1.66554c-0.13386,0.00149 -0.26734,-0.00067 -0.40046,-0.00615v0.03843h-4c-1.38071,0 -2.5,-1.11929 -2.5,-2.5c0,-0.15911 0.01486,-0.31475 0.04328,-0.4656c-1.03349,0.78827 -2.06781,1.57615 -3.10688,2.35871c-0.10505,0.10486 -0.2101,0.20973 -0.31515,0.31459l-3.78161,2.96195c0,0 -1.52185,1.18962 -2.9358,0.13977c-0.49438,0.42868 -0.98102,0.84475 -1.45953,1.24146l-2.39207,3.01073c0,0 -1.56162,1.95227 -3.51389,0.39066z" fill="#696969" stroke-width="0.5"></path>
      <path d="M345.26677,183.0553c-2.15531,1.26674 -3.42205,-0.88857 -3.42205,-0.88857l0.04274,-0.45451c-5.60176,-3.62094 -10.50296,-8.05132 -15.90259,-11.96004c-2.42586,-1.75605 -4.87201,-3.46027 -7.31148,-5.17024c-0.98655,-0.68007 -1.96552,-1.36735 -2.92719,-2.06179c-2.02135,-1.43405 -4.03061,-2.88806 -6.01228,-4.39519c-0.86173,-0.65538 -1.79827,-1.20321 -2.74444,-1.73696c0.29166,0.45421 0.44629,1.07677 0.23589,1.91835c-0.60635,2.42535 -3.0317,1.819 -3.0317,1.819l-1.96456,-0.49228c-0.4132,0.81125 -1.25625,1.36692 -2.22908,1.36692c-0.18573,0 -0.36672,-0.02025 -0.5409,-0.05867l-0.85382,-0.17076c0.43031,0.44906 0.69471,1.05837 0.69471,1.72943c0,1.38071 -1.11929,2.5 -2.5,2.5c-0.2969,0 -0.58172,-0.05176 -0.84591,-0.14674l-2.34466,-0.78153l0.02536,-0.07608l-0.19152,0.01406c-1.39355,-0.69482 -2.84619,-1.26581 -4.28471,-1.86569c0.13811,0.19475 0.2745,0.38079 0.40976,0.55291c1.95899,2.49274 3.86625,5.00895 5.71829,7.56886l0.07274,-0.08729l3.82644,3.1887c0.55817,0.4585 0.9142,1.15406 0.9142,1.93277c0,1.38071 -1.11929,2.5 -2.5,2.5c-0.3944,0 -0.76746,-0.09133 -1.0992,-0.25399l-3.94976,-1.83017c-2.03552,-0.67182 -4.16589,-1.11997 -6.20428,-1.78378l-0.45003,-0.06429l0.00898,-0.06288c-0.11379,-0.00091 -0.22767,-0.00355 -0.34167,-0.00802c-1.04897,-0.04114 -1.97208,-0.63195 -2.90652,-1.17332c-3.19383,-0.86854 -6.39133,-1.6798 -9.61315,-2.4855c-0.53384,-0.1335 -1.08195,-0.23093 -1.63672,-0.31107c-0.4552,0.47633 -1.09678,0.77304 -1.80766,0.77304c-0.29692,0 -0.58175,-0.05176 -0.84596,-0.14676l-2.3446,-0.78156l0.00461,-0.01383l-0.86036,-0.29233l0.01738,-0.05114l-0.0367,0.04449c-0.15875,-0.05696 -0.31866,-0.11251 -0.47966,-0.16674c-0.64844,-0.07402 -1.29044,-0.18699 -1.92205,-0.34742l-0.20249,-0.20502l-0.04819,0.09637l-0.77898,-0.38949c-5.05021,-1.25053 -10.65033,-1.89524 -14.84284,-4.6156l-0.10729,0.32188l-0.97471,-0.3249c-0.42904,0.75939 -1.24372,1.27204 -2.17815,1.27204c-0.69035,0 -1.31535,-0.27982 -1.76776,-0.73222l0,0l-2.18377,-2.18374c-2.79793,-1.37866 -5.24118,-2.97455 -7.83524,-4.70392c0,0 -2.08013,-1.38674 -0.69339,-3.46687c1.38674,-2.08013 3.46687,-0.69339 3.46687,-0.69339c2.47473,1.64981 4.80423,3.13737 7.41479,4.51038c0.25075,-0.08446 0.51928,-0.13024 0.79851,-0.13024c0.29691,0 0.58173,0.05176 0.84594,0.14675l4.68805,1.56269l-0.07595,0.22784c3.94486,0.77789 7.8883,1.74967 11.75285,2.8928c0.12679,-0.01981 0.25674,-0.0301 0.38909,-0.0301c0.18573,0 0.36674,0.02025 0.54092,0.05867l3.94937,0.78989c1.12407,-0.00286 8.32827,1.87919 8.96676,2.03876c1.51602,0.37889 3.02693,0.75901 4.53465,1.14585c0.13287,-0.02183 0.26927,-0.03318 0.40832,-0.03318c0.22872,0 0.45027,0.03072 0.66075,0.08825l3.14556,0.78642l-0.02306,0.09223l0.22588,-0.0323c0.36027,0.1599 0.73499,0.29574 1.11159,0.42844l0.37369,0.10677l-0.00413,0.01446c0.01625,-0.00061 0.03256,-0.00101 0.04892,-0.00121c0.0416,-0.0005 1.1255,0.35228 2.55432,0.82359l0.42658,0.09136c-0.82764,-1.22186 -1.56634,-2.354 -2.08311,-3.01159c-1.03374,-1.31543 -2.44631,-2.33262 -3.33779,-3.74833c-0.99896,-1.58638 -2.9179,-3.39102 -2.26438,-5.14813c0.53421,-1.43633 2.31944,-2.07726 3.97974,-2.34048c0.31873,-1.01401 1.26617,-1.74948 2.38539,-1.74948c0.29691,0 0.58173,0.05176 0.84593,0.14674l4.68806,1.56268l-0.03771,0.11314c1.28574,0.13922 2.56819,0.30409 3.84522,0.50381l-1.06809,-1.1407c0.85725,-0.04149 1.72812,-0.08833 2.59852,-0.10133l0.31869,-0.95605l2.40002,0.80002l-0.08723,0.26169c0.81604,0.09153 1.61866,0.25008 2.39559,0.50971l2.49053,0.62112c-0.5333,-0.32906 -1.0528,-0.67781 -1.54586,-1.06436c-1.87994,-1.47383 -3.43669,-3.36045 -5.43037,-4.67635c0,0 -2.08011,-1.38677 -0.69334,-3.46688c1.38677,-2.08011 3.46688,-0.69334 3.46688,-0.69334c0.53487,0.3596 1.04298,0.75407 1.53609,1.16821c0.76139,-0.04102 1.39511,0.27584 1.39511,0.27584c1.59723,0.80893 3.32553,1.39921 4.79168,2.42678c2.73031,1.91356 4.54057,4.92346 7.16743,6.97673c0.89283,0.69787 1.81284,1.38888 2.75096,2.07295c1.25027,0.88992 2.50515,1.77205 3.76126,2.65366c2.20252,1.51175 4.43708,2.98728 6.59742,4.42582l-0.58674,-0.41986c0,0 2.19075,0 2.47069,2.05077c4.72483,3.56008 9.14099,7.44992 14.12725,10.6599l1.55738,2.12259c0,0 1.26674,2.15531 -0.88857,3.42205z" fill="#696969" stroke-width="0.5"></path>
      <path d="M367.20004,186.60001c-2.36372,0 -2.49257,-2.23487 -2.4996,-2.47852c-3.44256,-4.55481 -7.86299,-7.89425 -12.01774,-11.80464c-5.94561,-5.59591 -11.66952,-11.59616 -16.98085,-17.78988c0,0 -1.62698,-1.89814 0.27117,-3.52512c0.4492,-0.38503 0.88321,-0.57263 1.28406,-0.63469c-2.64362,-2.31081 -5.35679,-4.54596 -7.786,-6.86139c-5.84625,-5.57242 -11.29502,-11.22054 -18.0578,-15.72561c0,0 -2.08014,-1.38673 -0.69342,-3.46687c1.38673,-2.08014 3.46687,-0.69342 3.46687,-0.69342c7.00884,4.67574 12.68004,10.49676 18.74225,16.27439c5.2744,5.02681 11.73597,9.67123 16.2275,15.44935c2.60463,3.35072 4.44401,6.96094 7.11918,10.29902l0.61525,2.2446c0,0 0.05539,0.64851 -0.22125,1.31201c4.41931,4.10061 8.98291,7.70054 12.5585,12.63901l0.47187,2.26176c0,0 0,2.5 -2.5,2.5z" fill="#696969" stroke-width="0.5"></path>
      <path d="M99.03225,112.26777c-1.76777,-1.76777 0,-3.53553 0,-3.53553l1.30266,-1.1885c4.12377,-2.41942 7.61635,-5.03003 11.47001,-7.74358c0.7968,-0.56107 2.25585,-0.34637 2.64832,-1.23836c0.32289,-0.73385 -1.31997,0.66766 -2.2532,0.81893v0.01927h-5c-1.38071,0 -2.5,-1.11929 -2.5,-2.5c0,-0.8866 0.46152,-1.66541 1.15743,-2.10928l2.42344,-1.59706l0.06734,0.10219l0.21592,-0.26342c0.83384,-0.27587 1.68566,-0.58027 2.5471,-0.83082c-3.29285,-0.70165 -7.99969,-1.85044 -8.58254,-3.05695c-0.95848,-1.98407 0.87689,-4.5184 2.30693,-6.19476c0.91368,-1.07106 2.70073,-0.79809 4.03684,-1.2417c1.14398,-0.37982 2.26731,-0.81924 3.40132,-1.22786c5.78947,-2.08611 12.0003,-5.19585 18.12616,-5.28032c0,0 2.5,0 2.5,2.5c0,2.5 -2.5,2.5 -2.5,2.5c-2.38915,-0.04522 -4.6936,0.98757 -6.93473,1.81666c-3.13009,1.15795 -6.35736,2.0385 -9.4978,3.16809c-1.21309,0.43634 -2.39771,0.96244 -3.63997,1.30706c-0.76774,0.21298 -1.57812,0.22241 -2.36318,0.35828c-0.30096,0.05209 -1.19843,0.20157 -0.89302,0.20526c2.7153,0.03283 5.44322,0.31481 8.0984,0.88402l0.09673,0.05795l0.00863,-0.02805l3.00586,0.92456c1.04979,0.29648 1.81909,1.26148 1.81909,2.40615c0,0.82831 -0.40283,1.56253 -1.02327,2.01745l-1.36726,1.02546c0.55687,0.53194 1.04826,1.33624 1.43732,2.49534c0.791,2.35657 -2.22588,4.48287 -3.75353,6.44384c-3.06899,3.93952 -8.33951,6.11673 -12.52816,8.57421l-0.29731,0.41147c0,0 -1.76777,1.76777 -3.53553,0z" fill="#696969" stroke-width="0.5"></path>
      <path d="M380.80002,120.20001c-2.5,0 -2.5,-2.5 -2.5,-2.5l0.10267,-0.89093c-0.68868,-2.32838 -0.58859,-5.00719 -1.94823,-7.0189c-2.13381,-3.15717 -8.52703,-5.21176 -11.81116,-6.58049c-2.63514,-1.09825 -8.5998,-2.71176 -8.71102,-6.71016c-0.04707,-1.69209 2.67643,-2.13463 4.22608,-2.81578c1.97982,-0.87023 4.91729,-0.92869 7.07697,-1.5951c0.1323,-0.04082 -0.28715,0.00379 -0.4114,-0.05731c-0.68406,-0.33638 -1.31598,-0.77092 -1.99143,-1.12428c-1.3555,-0.70912 -2.67713,-1.50011 -4.09984,-2.06236c-3.37532,-1.33391 -6.16817,-1.41386 -9.31937,-3.4646c0,0 -2.08013,-1.38674 -0.69339,-3.46687c1.38674,-2.08013 3.46687,-0.69339 3.46687,-0.69339c3.93867,2.71152 8.85567,2.87191 13.12503,5.3452c2.42103,1.40254 5.88516,3.27835 4.6529,7.14627c-0.6834,2.1451 -4.54634,3.49452 -6.52301,4.00491c-0.14303,0.03693 -0.28621,0.07673 -0.42956,0.11819c0.54252,0.27938 1.06901,0.5591 1.54458,0.75587c4.36804,1.80723 11.18436,4.28979 14.01877,8.36843c0.26177,0.37669 2.16327,6.88173 2.62187,8.4322l0.10267,2.30908c0,0 0,2.5 -2.5,2.5z" fill="#696969" stroke-width="0.5"></path>
    </g>
  </g>
</svg>
