<?xml version="1.0" encoding="UTF-8"?>
<svg xmlns="http://www.w3.org/2000/svg" xmlns:xlink="http://www.w3.org/1999/xlink" version="1.1" width="259.98992" height="167.94511" viewBox="0,0,259.98992,167.94511">
  <g transform="translate(-95.64464,-96.54127)">
    <g stroke="none" stroke-miterlimit="10">
      <path d="" fill="#000000" stroke-width="0.5"></path>
      <g>
        <path d="M344.10006,176.41601c0,0 0.14053,-0.10005 0.22699,-0.18506c0.41711,-0.17054 0.60158,-0.33037 0.60158,-0.33037l0.88364,-0.70644c0.51837,-0.41446 1.03681,-0.82882 1.55518,-1.24328c0.04492,0.04263 0.17627,0.0295 0.22696,0.07019c-0.4106,0.71687 -0.36708,1.51196 -0.36708,1.51196c0.37591,6.73836 1.88609,13.46287 1.65599,20.25238c-0.34543,10.1921 -2.75623,19.47887 -6.2805,28.95638c-1.33067,3.57845 -2.44419,7.87137 -4.32889,11.19499c-1.00423,1.77094 -2.50661,3.22217 -3.6105,4.93276c-4.95058,5.23961 -10.69894,10.35082 -17.42138,13.26952c-3.94074,1.71097 -8.51216,2.64954 -12.72628,3.21671c-5.29483,0.71262 -10.52471,2.25166 -15.92019,2.18117c-3.21071,-0.04194 -6.43737,-1.10751 -9.65142,-1.06434c-0.99927,0.01342 -1.97295,0.56609 -2.96617,0.45546c-0.99323,-0.11063 -1.81555,-0.89124 -2.79334,-1.09781c-1.73031,-0.36552 -3.519,-0.40589 -5.27593,-0.60787c-4.38206,-0.45729 -8.34958,-2.40142 -12.49954,-3.74519c-1.57481,-0.50992 -3.2586,-0.67029 -4.81212,-1.24177c-5.90066,-2.17063 -10.87658,-6.61642 -15.69886,-10.40782c-0.84597,-0.66512 -2.00136,-0.92744 -2.74146,-1.70866c-2.07671,-2.19205 -2.25943,-5.12327 -3.36264,-7.66628c-0.51043,-1.17659 -1.58255,-2.08304 -1.97994,-3.30245c-2.44696,-7.50847 1.19384,-15.94824 1.97622,-23.32258c1.42216,-2.96048 1.82729,-5.99253 3.03223,-8.88048c4.02159,1.6997 8.37883,2.85482 12.7486,3.58528c1.97942,0.94254 4.14701,1.54145 6.30708,1.81409l0.71062,0.09853c-0.07909,0.65973 -0.07696,1.30329 0.16707,1.90749c0.05375,0.13307 0.14214,0.28475 0.26036,0.45146c0.09964,0.56279 0.23845,1.10704 0.53685,1.58466c1.25451,2.00807 7.71326,7.23538 10.28937,5.98242c0.59745,-0.29058 1.19182,-0.713 1.72011,-1.22482c0.35712,1.44744 1.98444,2.24674 3.13431,3.20041c2.8442,2.35889 3.41544,2.06413 6.61871,3.37835c4.14605,1.70102 7.08229,3.82084 11.43744,4.54003c1.06737,0.88263 2.0621,1.69266 2.26571,1.77972c1.08035,0.46189 2.34242,0.17353 3.47981,0.4682c3.73349,0.96728 5.92039,2.84239 10.14232,2.75374c2.02994,-0.04262 3.84346,-1.28313 5.74759,-1.98791c0.86677,-0.32082 1.87741,-0.19911 2.69989,-0.62068c1.00682,-0.51606 1.64409,-1.59425 2.64881,-2.11437c0.81925,-0.4241 1.9171,-0.14044 2.69039,-0.6435c1.01397,-0.65964 1.61448,-1.79576 2.43495,-2.68462c2.41309,-2.61425 4.36164,-5.08786 6.04052,-7.91196c0.01063,0.00128 0.02132,0.00251 0.03207,0.0037c2.48463,0.27675 2.76162,-2.20536 2.76162,-2.20536l0.00932,-0.38992c1.45208,-5.25431 1.26581,-9.11207 0.80027,-14.48688c0,0 -0.17154,-1.99316 -1.99471,-2.25654c-0.11836,-1.33762 -0.23849,-2.6356 -0.60766,-4.00214c0.01305,-1.47166 -0.1506,-2.78992 -0.4152,-4.22016c2.39796,-1.35702 4.86989,-2.52304 7.2568,-3.7922c0.03375,0.499 0.03632,1.02696 0.00215,1.58358c1.99222,-0.36295 3.98909,-0.71014 5.99315,-1.02392l2.15582,-0.74138c0,0 0.09351,-0.03439 0.2363,-0.10815c2.21287,0.1807 2.52042,-1.82795 2.56556,-2.12793c0.46711,-0.37349 0.93429,-0.74684 1.4014,-1.12033z" fill="#a2f9ff" stroke-width="0.5"></path>
        <path d="M324.23086,249.63775c-1.02662,0.57741 -2.20973,0.96605 -3.21944,1.56911c-1.67347,0.9995 -3.31291,1.99755 -4.95762,2.98185c-1.19726,0.94856 -2.40434,1.88032 -3.61637,2.79711l-0.07072,0.02088l0.01286,0.01916l-3.37247,2.26403c-0.47596,0.32403 -1.0656,0.48613 -1.68273,0.41739c-0.4322,-0.04814 -0.82632,-0.20376 -1.15872,-0.43725c-0.37563,0.15463 -0.79433,0.21971 -1.22653,0.17157c-0.66573,-0.07415 -1.24115,-0.40333 -1.63974,-0.87931c-1.09009,0.27562 -2.19082,0.49289 -3.30238,0.63757c-0.50635,0.0659 -1.2864,0.16574 -2.20524,0.23612c-1.98944,0.50973 -3.88991,0.93324 -4.58625,1.07483c-8.29629,1.68696 -17.6336,1.8598 -26.01154,0.35628c-4.60136,-0.82576 -9.06087,-2.8357 -13.47112,-4.34853l-2.63299,-0.68024c-1.20614,-0.29116 -2.03583,-1.44103 -1.89488,-2.70647c0.07916,-0.71071 0.44897,-1.31849 0.97775,-1.71808c-6.82579,-1.93653 -13.41633,-3.85852 -19.46127,-7.7502c0,0 -2.09856,-1.35869 -0.73985,-3.45725c1.35869,-2.09856 3.45725,-0.73985 3.45725,-0.73985c5.9932,3.9048 12.69993,5.60005 19.5221,7.53811c4.64366,1.31918 8.57462,2.58064 13.38379,3.10611l2.18649,0.24354c0,0 0.7501,0.08355 1.3801,0.57098c5.90937,-0.04186 11.75288,-1.13347 17.54107,-2.74988c-0.19358,-0.4479 -0.25235,-1.02099 -0.02228,-1.74337c0.75866,-2.38211 3.14076,-1.62345 3.14076,-1.62345c1.02423,0.37354 1.98334,1.16392 3.07271,1.12061c0.68547,-0.02725 1.35265,-0.15487 2.00585,-0.35097c0.31295,-0.10886 0.62576,-0.21855 0.93843,-0.32897c1.64772,-0.65548 3.217,-1.6619 4.78164,-2.47695c5.1175,-2.6658 10.00261,-6.16177 14.62334,-9.87796c0.64063,-0.74513 1.29613,-1.47742 1.95937,-2.20035l1.65217,-1.79611c0,0 0.87603,-0.95237 2.05276,-0.85649c2.96158,-3.15679 5.67915,-6.52845 8.23806,-10.02183c-1.26109,-1.43667 -0.01044,-3.07723 -0.01044,-3.07723c5.94754,-7.7873 10.07548,-16.82855 13.47809,-25.98777l0.58016,-1.83098c0,0 0.11115,-0.34901 0.38196,-0.7373c-0.03653,-2.63118 -0.14082,-5.18525 -0.27279,-7.6006c0,0 -0.13547,-2.49633 2.36085,-2.63181c2.49633,-0.13547 2.63181,2.36085 2.63181,2.36085c0.58055,10.767 0.50004,23.55825 -2.92109,34.55119l-0.00074,2.68917l-0.04598,-0.00001c0.01014,0.1141 0.0176,0.22864 0.02215,0.34366c0.06924,1.75105 -2.69924,8.43773 -3.37725,9.9834c-3.08486,7.03267 -6.97538,13.61383 -10.81265,20.2504l-0.31335,0.15896l0.09296,0.093l-1.79524,1.79426c-0.51937,0.52805 -1.26716,0.82106 -2.06038,0.73271c-0.49982,-0.05567 -0.94872,-0.25508 -1.3101,-0.55246c-0.32173,0.27882 -0.71365,0.47542 -1.14088,0.56193c-0.37229,0.18412 -0.75397,0.35468 -1.14149,0.51686zM323.84628,232.9678c-0.36889,0.37557 -0.74137,0.74799 -1.11757,1.11707c0.09129,-0.06456 0.18261,-0.129 0.27398,-0.19333c0.28204,-0.30714 0.56332,-0.61498 0.84359,-0.92374zM320.85524,235.3678c-0.28732,0.23704 -0.57565,0.47354 -0.865,0.70933c0.33581,-0.25259 0.6736,-0.50304 1.01287,-0.75154c-0.04817,0.01531 -0.09749,0.02947 -0.14787,0.04222zM325.72824,238.65909c-0.02466,-0.04105 -0.04754,-0.08241 -0.06875,-0.12397c-0.63379,0.74604 -1.27498,1.50384 -1.92495,2.25678c0.67981,-0.67797 1.34875,-1.36533 2.00544,-2.06253c-0.00433,-0.02348 -0.00824,-0.04691 -0.01174,-0.07027zM329.42078,226.76135c-0.21874,0.26468 -0.43869,0.52834 -0.65991,0.79094c-0.00202,0.04879 -0.00574,0.09692 -0.01101,0.14436l0.45881,-0.36685c0.07092,-0.1894 0.14162,-0.37889 0.2121,-0.56845z" fill="#75b3b7" stroke-width="0.5"></path>
        <path d="M342.74061,177.50912c-0.04515,0.29998 -0.43676,2.36278 -2.64963,2.18208c-0.14278,0.07376 -0.23629,0.10818 -0.23629,0.10818l-2.15558,0.74176c-2.00406,0.3138 -3.99969,0.66279 -5.99191,1.02574c0.03417,-0.55662 0.03228,-1.08366 -0.00147,-1.58266c-2.38691,1.26916 -4.77982,2.37391 -7.17779,3.73093c0.26461,1.43024 0.43056,2.75163 0.41751,4.22329c0.36917,1.36654 0.49147,2.66804 0.60984,4.00566c1.82317,0.26338 1.99622,2.25944 1.99622,2.25944c0.46554,5.37481 0.65634,9.24803 -0.79573,14.50234l-0.00927,0.3904c0,0 -0.27675,2.48463 -2.76139,2.20788c-0.01074,-0.0012 -0.02143,-0.00244 -0.03207,-0.00371c-1.67888,2.82409 -3.62812,5.30976 -6.04121,7.92401c-0.82047,0.88886 -1.42217,2.03005 -2.43614,2.68969c-0.77329,0.50307 -1.8719,0.22179 -2.69115,0.64589c-1.00472,0.52012 -1.64413,1.6035 -2.65094,2.11955c-0.82248,0.42157 -1.83482,0.30313 -2.7016,0.62394c-1.90413,0.70479 -3.72448,1.95458 -5.75441,1.9972c-4.22193,0.08865 -6.42636,-1.77431 -10.15985,-2.74159c-1.13739,-0.29467 -2.41373,-0.00276 -3.49408,-0.46465c-0.20361,-0.08704 -1.2104,-0.89737 -2.27777,-1.78c-4.35516,-0.71919 -7.33176,-2.87321 -11.47781,-4.57423c-3.20327,-1.31422 -3.77688,-1.03294 -6.62107,-3.39182c-1.14987,-0.95367 -2.77691,-1.76032 -3.13403,-3.20776c-0.5283,0.51182 -1.1229,0.93714 -1.72035,1.22772c-2.57611,1.25296 -9.03385,-3.98202 -10.28836,-5.99009c-0.29839,-0.47762 -0.43676,-1.02381 -0.5364,-1.5866c-0.11822,-0.16671 -0.20649,-0.31889 -0.26024,-0.45196c-0.24403,-0.6042 -0.24548,-1.25009 -0.16639,-1.90982l-0.61524,-0.06853c-2.16008,-0.27263 -4.32761,-0.87171 -6.30702,-1.81425c-4.36977,-0.73046 -8.72693,-1.88586 -12.74852,-3.58556c-1.20494,2.88795 -1.60837,5.91218 -3.03053,8.87266c-0.78238,7.37433 -4.42431,15.79498 -1.97735,23.30345c0.39739,1.21941 1.46868,2.12296 1.97911,3.29955c1.10321,2.54301 1.28338,5.46787 3.36009,7.65992c0.7401,0.78121 1.89444,1.04148 2.74041,1.7066c4.82228,3.7914 9.78853,8.22461 15.68919,10.39524c1.55352,0.57148 3.23407,0.72905 4.80888,1.23897c4.14997,1.34377 8.10648,3.28128 12.48854,3.73857c1.75693,0.20198 3.54048,0.24041 5.27079,0.60594c0.97779,0.20656 1.79702,0.98632 2.79025,1.09695c0.99322,0.11063 1.96391,-0.44266 2.96318,-0.45608c3.21404,-0.04318 6.43012,1.02163 9.64084,1.06357c5.39548,0.07048 10.60849,-1.465 15.90332,-2.17762c4.21413,-0.56717 8.77422,-1.49939 12.71496,-3.21036c6.72243,-2.9187 12.45729,-8.01465 17.40787,-13.25425c1.10389,-1.71059 2.60383,-3.15697 3.60805,-4.9279c1.8847,-3.32362 2.99504,-7.60639 4.32571,-11.18483c3.52427,-9.47751 5.93607,-18.74063 6.2815,-28.93274c0.2301,-6.78951 -1.27428,-13.50114 -1.6502,-20.2395c0,0 -0.04312,-0.79446 0.36749,-1.51133c-0.05069,-0.04068 -0.09842,-0.0824 -0.14334,-0.12504c-0.51837,0.41446 -1.03675,0.82893 -1.55511,1.24339l-0.88359,0.70651c0,0 -0.26822,0.21447 -0.68533,0.38501c-0.08646,0.085 -0.14325,0.1304 -0.14325,0.1304c-0.46711,0.37349 -0.93422,0.74696 -1.40133,1.12044zM338.81042,174.2498c0.73637,-0.58876 1.47274,-1.17754 2.20911,-1.7663c0,0 0.26821,-0.21445 0.6853,-0.38498c0.08644,-0.08498 0.1432,-0.13037 0.1432,-0.13037l0.88368,-0.70658c1.17819,-0.94202 2.35639,-1.88404 3.53458,-2.82607c0,0 0.84876,-0.67863 1.87453,-0.58144c1.99379,-5.94187 3.23719,-12.87704 2.1053,-18.94751c-0.46756,-2.50757 -1.2835,-4.9138 -2.31215,-7.23123c-0.06219,0.43481 -0.12374,0.83503 -0.17152,1.18237c-0.01257,0.35663 -0.08728,0.8188 -0.3354,1.24311c-1.97622,5.78894 -2.59076,11.85537 -6.00768,17.08522c-2.1008,3.21543 -2.69843,2.60497 -5.71457,5.4218c-1.00975,0.94303 -2.05306,1.85503 -3.04446,2.81729c0.44201,1.48597 -0.90764,2.56508 -0.90764,2.56508v-0.00003c-1.76729,1.41302 -3.53455,2.82606 -5.30181,4.23912l-0.88367,0.70652c-0.5891,0.47102 -1.1782,0.94203 -1.7673,1.41305l-0.32347,0.25864c2.93228,-1.5407 5.84848,-2.83872 8.73452,-4.6746c0,0 2.11306,-1.33603 3.44909,0.77703c0.23135,0.3659 0.35928,0.7085 0.41267,1.02489c0.28423,-0.04447 0.56852,-0.08894 0.85289,-0.13347l1.20182,-0.49413c0,0 0.15063,-0.05546 0.38962,-0.10008zM321.56117,173.7371l0.88362,-0.70647c0.5891,-0.47102 1.1782,-0.94203 1.7673,-1.41305c0,0 0.00045,-0.00036 0.00137,-0.00108c1.21054,-0.96791 2.42108,-1.93581 3.63163,-2.9037c-0.12544,-0.33445 -0.27122,-0.67086 -0.44051,-1.00438c0.06074,-0.08277 0.12497,-0.16281 0.19359,-0.23947c1.42349,-1.59051 3.05461,-2.98273 4.61459,-4.43962c2.20737,-2.0615 3.58681,-2.33419 5.06639,-4.64662c3.08441,-4.82065 3.48901,-10.50772 5.41095,-15.81836l-0.10118,-0.50897c-0.24636,-1.25755 -0.54171,-2.51459 -0.87774,-3.76887c-0.81095,0.30948 -1.64293,0.76313 -2.45565,0.65939c-0.74335,-0.09488 -4.31456,-1.90368 -5.277,-2.29798c-2.24816,-0.92103 -3.55544,-1.15742 -5.63461,-2.32868c-10.10521,-5.69256 -19.15312,-13.25759 -29.9671,-17.73704c-3.01066,-1.2471 -6.38466,-1.44547 -9.40445,-2.6703c-1.05146,-0.42648 -1.7646,-1.5124 -2.83842,-1.87894c-2.07495,-0.70825 -4.39205,-0.65208 -6.39226,-1.54997c-1.62353,-0.60567 -3.88493,-2.22315 -5.97153,-3.00872c-0.11826,0.21743 -0.23147,0.44587 -0.33948,0.68606c0,0 -1.04824,2.26962 -3.31787,1.22137c-0.84257,-0.38915 -1.22787,-0.94663 -1.37931,-1.49381c-4.28693,2.05146 -6.46439,6.81419 -7.78683,11.1998c-1.93283,6.40991 -2.60036,13.49397 -2.5599,20.27989c1.20227,-0.03805 2.02866,0.99551 2.02866,0.99551c0.25491,0.31998 0.50455,0.6419 0.74996,0.96541c0.49298,0.12634 0.83137,0.34544 0.83137,0.34544l3.32176,2.18914c1.59626,1.96727 3.46658,3.69537 5.19396,5.54858c2.80536,3.00973 4.9253,6.65659 7.72396,9.66975c0.03307,0.0356 0.06633,0.071 0.09978,0.1062c1.19005,0.50631 2.39623,0.97586 3.60844,1.42569l0.20073,-0.05274c0,0 0.70207,0.0782 1.31824,0.52466c0.3038,-0.41701 0.60952,-0.83194 1.00845,-1.14958c0.74819,-0.59577 1.80103,-0.72037 2.55022,-1.31487c0.83731,-0.66441 1.14964,-1.96954 2.12887,-2.39806c1.48817,-0.65123 3.2929,-1.17237 4.8301,-0.64722c1.10952,0.37905 1.02071,2.1916 1.91391,2.95115c2.49121,2.11844 6.23148,0.90036 8.03797,4.51469c0.28284,-0.02241 0.47453,-0.00105 0.47453,-0.00105c2.52946,0.28175 10.03725,-0.01723 11.35317,3.11421c0.81092,1.92971 -0.14947,4.18368 -0.2242,6.27551l-0.1843,1.65464c0.61505,0.28461 2.23079,1.03213 3.657,1.69291l1.66818,-1.33382c0.29376,-0.23487 0.5875,-0.46974 0.88126,-0.70461c0.00159,-0.00131 0.00242,-0.00196 0.00242,-0.00196zM274.63678,163.01614c0,0 -1.51308,-0.69883 -1.4978,-2.19072c-1.05729,-1.30039 -2.0418,-2.66868 -3.04595,-4.01835c-0.08046,0.07942 -0.169,0.15816 -0.26626,0.23593c-1.95261,1.5612 -3.5138,-0.39141 -3.5138,-0.39141l-2.52971,-3.16395c-1.89352,-2.37413 -3.49104,-4.85163 -5.21947,-7.27227c0.02908,0.92795 0.06644,1.92689 0.11526,2.82621c0.47206,0.09251 0.97122,0.36239 1.43574,0.94334c1.56124,1.95256 -0.39132,3.51381 -0.39132,3.51381l-0.2162,0.16567c0.42209,1.26238 0.90508,2.50897 1.18619,3.80787c0,0 0.52314,2.44465 -1.92151,2.9678c-2.44465,0.52314 -2.9678,-1.92151 -2.9678,-1.92151c-0.06548,-0.31005 -0.14339,-0.61692 -0.22981,-0.9216c-2.08097,2.09086 -4.26085,4.03466 -6.982,5.45648c-6.94432,3.62844 -14.92202,5.30132 -22.85235,6.19262c1.04951,1.11984 1.97502,2.40436 3.2135,3.47018c3.23064,2.78027 8.49972,3.70378 12.41267,4.8171c3.34786,0.95254 6.05193,2.638 9.2621,3.73524c1.59047,0.54362 3.30078,0.73236 4.84596,1.39383c0.49354,0.21128 0.90558,0.41624 1.25961,0.61587c-0.10928,0.08322 -0.21476,0.17103 -0.31711,0.26258c0.36696,-0.04694 0.63234,-0.01738 0.63234,-0.01738l0.86138,0.09595c1.06872,-2.13245 3.2676,-1.11685 3.2676,-1.11685c0.42552,0.19653 0.85105,0.39308 1.27657,0.58961c0.39943,-0.70652 0.85802,-1.4045 1.15012,-2.12648c1.06462,-0.29232 2.29408,-0.53607 3.59218,-0.67542c-1.48456,-2.2413 -2.06393,-4.86978 -0.71641,-7.29042c1.90252,-3.41761 6.80663,-0.18952 8.33719,-4.26632c-0.5256,-1.83886 1.30759,-2.78644 1.30759,-2.78644c0.7695,-0.39693 1.61107,-0.81883 2.45382,-1.26558c-1.32921,-0.5191 -2.64693,-1.06818 -3.94232,-1.66537zM257.16366,203.166c1.31894,0.73972 3.81489,1.60097 4.33789,1.81453c1.44458,0.58987 3.9931,0.22378 4.68001,1.41139c0.24076,-0.51324 0.42252,-1.0357 0.46925,-1.57465c0.07022,-0.80975 -0.63071,-1.57074 -0.53818,-2.37825c0.06328,-0.55225 0.25885,-1.07282 0.48025,-1.58805l-0.50847,-0.06976c-2.86834,0.24862 -5.72079,0.47318 -8.58085,0.64283c0.16479,0.70475 -0.06579,1.3105 -0.3399,1.74195zM257.49503,195.72244c2.45621,-0.33071 4.92279,-0.58632 7.3919,-0.80036l3.20982,-0.43358c0,0 0.18312,-0.02469 0.4565,-0.01087c0.0642,-0.11501 0.10798,-0.23693 0.11775,-0.37072c0.10132,-1.38666 -2.11757,-1.82659 -2.98582,-2.91251c-0.24492,-0.30632 -0.41527,-0.66047 -0.56994,-1.02492c-0.22638,0.03129 -0.47793,0.0351 -0.75743,0.00397c-1.35516,-0.15095 -1.88886,-0.95868 -2.09405,-1.66187c-0.00334,-0.00154 -0.00667,-0.00308 -0.01001,-0.00463c-0.79854,0.53822 -1.78279,0.42859 -1.78279,0.42859l-3.97541,-0.44281c0,0 -2.3139,-0.25774 -2.22701,-2.50874c-0.20456,0.21685 -0.41939,0.42196 -0.65126,0.60736c-0.20354,0.16274 -0.42071,0.30769 -0.64643,0.4413c-8.05093,-3.33568 -16.59447,-5.03637 -24.37683,-9.04977c-0.89811,-0.46316 -1.9447,-0.68717 -2.72392,-1.33055c-1.21588,-1.00392 -3.19803,-4.92219 -5.35946,-5.05099c-0.61208,-0.03647 -1.15612,0.46897 -1.76807,0.50771c-0.64187,0.04063 -1.32134,-0.53447 -1.90979,-0.27489c-0.31344,0.13827 0.16587,0.67002 0.3159,0.978c0.36397,0.74713 0.8132,1.44963 1.2198,2.17445c2.61061,12.19789 13.31822,17.90849 24.69015,20.23193c1.21841,-0.67296 2.5242,0.17245 2.5242,0.17245c1.42271,0.96672 3.11738,1.57532 4.83254,1.8633c0.70161,-0.55522 1.59365,-0.58285 1.59365,-0.58285c1.31122,-0.04042 2.61763,-0.09685 3.92159,-0.16609c0.64322,-0.65869 1.56444,-0.78292 1.56444,-0.78292zM284.95764,214.80525c1.8149,0.20215 2.15644,1.58234 2.20871,2.31171c0.14055,0.15203 0.27979,0.30604 0.41942,0.45926c0.52952,0.1728 1.32128,0.57914 1.61025,1.50064c0.24889,0.16841 0.51275,0.31224 0.79745,0.42198c0.89482,0.34491 1.93794,0.0046 2.86661,0.24385c3.14258,0.80958 5.10405,2.5698 8.56784,2.56428c1.87895,-0.003 2.5323,-1.0572 4.31805,-1.7106c0.71613,-0.26202 1.56986,-0.08221 2.24596,-0.43489c1.0031,-0.52326 1.64557,-1.60072 2.65097,-2.11956c0.67947,-0.35065 1.60239,-0.01675 2.25639,-0.41288c0.61203,-0.37073 0.80749,-1.18539 1.27563,-1.72655c3.03935,-3.51342 5.34884,-6.4067 7.28789,-10.60503c0,0 0.39187,-0.84846 1.2152,-1.26826c0.05987,-0.40696 0.10747,-0.80783 0.14428,-1.20526c-0.80308,-0.63873 -0.94751,-1.70971 -0.94751,-1.70971l-0.41252,-3.10191c-0.39674,-1.48518 -1.05653,-2.92411 -1.19021,-4.45554c-0.02676,-0.30649 -0.00321,-0.61216 0.04546,-0.91737l-0.49103,-2.42479c0.01129,-0.10135 0.02183,-0.20114 0.03163,-0.29947c-2.41058,-0.31463 -2.13897,-2.75306 -2.13897,-2.75306l0.27274,-1.77437c-0.14694,-1.08962 -0.36715,-2.17186 -0.44083,-3.26887c-0.04524,-0.67359 0.50752,-1.50135 0.0955,-2.02768c-0.00371,-0.00474 -0.00749,-0.00945 -0.01136,-0.01413c-0.45334,-0.54979 -1.42387,-0.17607 -2.09957,-0.40235c-0.10604,-0.03551 -0.21093,-0.07392 -0.3149,-0.11465c0.03532,0.36353 0.07808,0.72795 0.12972,1.09354l-0.17006,2.201c0,0 -0.00957,0.08596 -0.04115,0.22411l-0.04741,0.57099c0,0 -0.27675,2.48463 -2.76139,2.20788c-2.48463,-0.27675 -2.20788,-2.76139 -2.20788,-2.76139l0.07687,-0.38287c-0.14266,-2.64914 -0.32959,-5.30036 -0.68578,-7.92931c0,0 -0.16439,-1.21909 0.59259,-2.0623c-0.00554,-0.95616 -0.02474,-1.92227 -0.07998,-2.90682c0,0 -0.01792,-0.33011 0.07932,-0.75676c-0.99386,0.57149 -2.16385,0.13656 -2.16385,0.13656l-1.61518,-0.90697c-0.09594,-0.01073 -0.19188,-0.02148 -0.28782,-0.03225c-0.46914,0.50625 -0.93828,1.01249 -1.40742,1.51874c0,0 -0.46625,0.3728 -1.12526,0.52622c-0.44919,1.34454 -0.90417,2.64098 -1.03622,3.79737c-0.08442,0.7393 0.5121,1.42398 0.53285,2.1678c0.02673,0.95862 -0.53246,1.90124 -0.39291,2.85003c0.34067,2.31613 2.53607,4.69821 3.07372,7.21065c0.39725,0.75247 0.79449,1.50495 1.19174,2.25742l-0.00191,3.80997c0,0 -0.27675,2.48463 -2.76139,2.20788c-2.48463,-0.27675 -2.20788,-2.76139 -2.20788,-2.76139l0.52946,-0.96058c-0.48573,-0.95577 -0.97145,-1.91153 -1.45718,-2.8673c-0.61228,-2.8612 -2.77339,-5.21968 -3.28301,-7.98642c-0.21284,-1.1555 0.35485,-2.33638 0.31558,-3.51065c-0.03152,-0.94251 -0.62831,-1.84234 -0.52593,-2.77981c0.23684,-2.1687 1.14919,-4.2165 1.51236,-6.36766c0.1133,-0.67114 0.69375,-1.31774 0.51766,-1.97519c-0.30179,-1.12678 -2.07204,-1.07675 -3.14397,-1.53683c-1.25814,-0.54001 -2.73588,-0.7109 -3.78887,-1.58595c-0.58824,-0.48884 -0.40199,-1.48511 -0.73514,-2.17359c-0.06215,-0.12844 -0.03564,0.29472 -0.11746,0.41162c-0.49019,0.70048 -0.91735,1.48151 -1.5829,2.01817c-0.7524,0.6067 -1.81793,0.73255 -2.57444,1.33411c-0.75522,0.60053 -1.12006,1.60472 -1.87581,2.20457c-2.02075,1.60391 -3.96511,2.62412 -6.09149,3.71624c-0.03313,0.58374 -0.23717,1.02551 -0.23717,1.02551c-1.07162,2.09325 -2.87145,4.0405 -5.04977,4.92649c-0.88362,0.3594 -1.84046,0.58395 -2.79368,0.62045c-0.35469,0.01359 -0.85454,-0.8183 -0.95207,-0.47701c-0.12192,0.42665 0.55446,0.69656 0.78015,1.07859c2.44179,4.13313 5.05215,4.38713 9.22841,2.20074l2.79369,-0.62049c0,0 0.74501,-0.15944 1.50049,0.109c0.13299,-1.49489 0.32654,-3.04665 0.51544,-4.74259c0,0 0.27675,-2.48463 2.76139,-2.20788c2.48463,0.27675 2.20788,2.76139 2.20788,2.76139c-0.01085,0.09739 -0.0218,0.19422 -0.03285,0.29053c-0.34634,3.35881 0.51991,6.20811 1.22679,9.51133l0.52939,2.4738c0,0 0.50753,2.37167 -1.81321,2.94291l-0.00262,0.06512c0,0 -0.27675,2.48463 -2.76139,2.20788c-2.48463,-0.27675 -2.20788,-2.76139 -2.20788,-2.76139l0.25204,-0.64762c-0.49611,-1.86388 -0.7373,-3.55961 -0.81533,-5.2101c-0.18818,0.07005 -0.31378,0.09693 -0.31378,0.09693l-2.15398,0.43834c-1.37013,0.69976 -2.33055,1.29945 -3.43149,1.64869c0.05759,0.37014 0.12638,0.73629 0.25814,1.07256c0.88351,2.25466 2.97039,5.62255 3.28302,7.98644c0.07181,0.543 -0.63625,6.68111 -0.77064,7.88764l0.17447,-0.95433c0,0 1.56121,1.9526 -0.39139,3.5138c-1.9526,1.56121 -3.5138,-0.39139 -3.5138,-0.39139l-1.23855,-2.72159c0.23898,-2.14555 1.11971,-4.28549 0.82347,-6.42388c-0.11405,-0.82323 -0.92711,-1.39665 -1.21982,-2.17448c-0.63003,-1.67423 -1.28342,-3.34071 -1.85389,-5.03615c-0.18713,-0.55613 0.20562,-1.27321 -0.12842,-1.75563c-0.2546,-0.36769 -0.88025,-0.17228 -1.3045,-0.31382c-2.09967,-0.70045 -3.60477,-1.21664 -5.72144,-1.31462c0.38286,0.15983 0.85269,0.41893 1.03593,0.62361c0.6413,0.71636 0.72403,1.81142 1.32446,2.56236c1.49723,1.87259 3.83743,3.53862 4.07939,5.92394c0.10883,1.07295 -0.89771,1.9753 -1.15192,3.02337c-0.24397,1.00584 -0.08369,2.08219 -0.33026,3.08741c-0.23078,0.94082 -0.98427,1.7316 -1.0881,2.69473c-0.09367,0.86882 0.63251,1.70269 0.5206,2.56936c-0.13775,1.06679 -0.74925,2.02174 -1.23722,2.98033c-0.27525,0.54068 -1.1125,0.89117 -1.04027,1.49357c0.0542,0.45203 0.88059,0.26028 1.27734,0.48358c0.91492,0.51492 1.70008,1.24917 2.63836,1.72018c2.83379,1.42259 5.9554,3.15229 9.12037,4.28186c0.27837,-0.7132 0.95992,-1.7054 2.57898,-1.52506zM352.17773,175.28877c0.3628,6.89418 1.88381,13.72544 1.65476,20.67735c-0.35308,10.71657 -2.88747,20.53907 -6.59205,30.50802c-1.43092,3.85057 -2.66236,8.37978 -4.69182,11.95916c-1.11667,1.96948 -2.75928,3.59605 -3.99248,5.49472c-5.54696,5.92895 -11.9522,11.56357 -19.52804,14.82949c-4.2785,1.84445 -9.22487,2.87968 -13.79039,3.49664c-5.60444,0.75736 -11.06992,2.28627 -16.78561,2.23076c-3.14123,-0.03052 -6.3055,-1.10403 -9.44122,-1.06191c-1.19982,0.01612 -2.38197,0.55852 -3.57452,0.42569c-2.72944,-0.30402 -5.33042,-1.40976 -8.06105,-1.70289c-4.79599,-0.56174 -9.0654,-2.52506 -13.61543,-3.99867c-1.5964,-0.51702 -3.30219,-0.67281 -4.87322,-1.26242c-6.38065,-2.39467 -11.80976,-6.98967 -17.02781,-11.14485c-1.02425,-0.81562 -2.37758,-1.22043 -3.26604,-2.18218c-2.58675,-2.80014 -3.02209,-6.08683 -4.40966,-9.30448c-0.54814,-1.27107 -1.67278,-2.27045 -2.08294,-3.59252c-2.68425,-8.65203 0.93726,-17.68958 1.92331,-26.16879c1.4781,-3.29521 2.04087,-6.50866 3.37164,-9.74123c-6.71672,-3.86196 -11.93063,-9.65287 -13.73379,-18.07803c-1.16363,-2.40222 -2.82817,-4.62236 -1.09588,-7.40401c-0.29337,-0.34598 -0.5092,-0.83347 -0.54647,-1.52003c-0.1355,-2.49632 2.36084,-2.63182 2.36084,-2.63182c10.62128,-0.57649 22.28671,-1.56136 31.96773,-6.53118c3.02629,-1.55356 5.30139,-4.02619 7.59325,-6.46159c-0.35655,-2.40938 -0.38554,-7.0351 -0.46231,-8.91847c-0.34302,-8.41573 0.24967,-17.47144 2.68834,-25.58536c1.95341,-6.49935 4.47644,-10.74469 10.75445,-13.87835c1.07682,-0.53749 2.06485,-1.38455 3.25523,-1.56186c0.26787,-0.0399 0.53252,-0.06576 0.79424,-0.07886c0.46844,-0.6214 1.02747,-1.16906 1.73077,-1.58107c0.70617,-0.41369 9.40877,-2.94396 10.45748,-3.16293c10.63275,-2.22013 22.34561,0.48668 32.59214,3.38597l0.39037,0.00926c0,0 2.48463,0.27675 2.20788,2.76139c-0.01333,0.11967 -0.03178,0.23293 -0.05483,0.34013c1.14279,-0.69781 2.45966,0.00702 2.45966,0.00702c5.45579,2.92013 11.2692,4.91541 15.62741,9.30045l2.11411,1.7727c0,0 1.12896,0.94884 0.92393,2.25611c2.29049,3.2826 4.0378,7.05252 5.65283,10.5371l0.69469,1.86394c0,0 0.0227,0.06164 0.05072,0.16863c1.21004,0.0851 1.92432,1.21479 1.92432,1.21479c3.25717,5.16335 6.30128,10.7959 7.3966,16.90173c1.38985,7.74765 -0.31271,16.36287 -2.99855,23.6532l-0.55647,1.49692c0,0 -0.07425,0.19973 -0.2377,0.46089c0.77181,0.69991 0.83159,1.8014 0.83159,1.8014zM334.43718,119.47907c0,0 -0.18484,-0.40358 -0.22868,-0.94852c-0.78313,-0.94346 -1.63553,-1.80377 -2.57264,-2.54264c-2.75675,-2.17361 -6.44977,-3.24636 -9.53134,-4.89062c0,0 -1.03965,-0.55645 -1.30874,-1.61903c-0.81261,-0.39015 -1.61644,-0.78912 -2.40099,-1.20906c0,0 -1.84191,-0.98586 -1.25697,-2.83893c-0.74467,0.38105 -1.54978,0.29137 -1.54978,0.29137l-1.19977,-0.16786c-9.39856,-2.66619 -20.4287,-5.39704 -30.1953,-3.3047c-2.47481,0.53019 -4.72505,0.87136 -6.60462,1.71473c1.35323,0.6729 2.69266,1.39117 4.07413,1.90283c1.9009,0.90971 4.15836,0.77386 6.15187,1.45714c1.18304,0.40549 2.01053,1.53637 3.16802,2.0099c2.98907,1.22284 6.33676,1.40638 9.32325,2.63551c10.98884,4.52257 20.23151,12.13344 30.45133,17.97085c1.55672,0.88918 3.5277,1.42852 5.14237,2.09153c1.34651,0.5529 2.45929,1.82243 3.90972,1.94504c0.19735,0.01668 0.39849,0.02322 0.60248,0.02207c-1.67035,-4.97285 -3.83823,-9.86055 -5.97433,-14.5196z" fill="#000000" stroke-width="0.5"></path>
        <path d="M334.48692,119.48422c2.1361,4.65905 4.29806,9.56569 5.96841,14.53853c-0.20399,0.00114 -0.40532,-0.00505 -0.60267,-0.02173c-1.45043,-0.12261 -2.56339,-1.39184 -3.9099,-1.94473c-1.61467,-0.66301 -3.58638,-1.20112 -5.1431,-2.0903c-10.21982,-5.83741 -19.46139,-13.45017 -30.45023,-17.97274c-2.98649,-1.22912 -6.33179,-1.41764 -9.32086,-2.64048c-1.15749,-0.47353 -1.98552,-1.60314 -3.16857,-2.00863c-1.99351,-0.68327 -4.25021,-0.54925 -6.15111,-1.45897c-1.38147,-0.51166 -2.81365,-1.26734 -4.16687,-1.94025c1.87956,-0.84336 4.13292,-1.19087 6.60774,-1.72106c9.7666,-2.09234 20.86064,0.61822 30.2592,3.28441l1.20381,0.16992c0,0 0.80878,0.09198 1.55345,-0.28907c-0.58494,1.85307 1.26501,2.84584 1.26501,2.84584c0.78455,0.41993 1.59406,0.8262 2.40667,1.21635c0.26909,1.06258 1.31224,1.6255 1.31224,1.6255c3.08157,1.64426 6.77893,2.73551 9.53568,4.90912c0.93711,0.73887 1.78943,1.60446 2.57256,2.54793c0.04384,0.54493 0.22853,0.95035 0.22853,0.95035z" fill="#a86a00" stroke-width="0.5"></path>
        <path d="M321.58919,173.77853c0,0 -0.00083,0.00065 -0.00242,0.00196c-0.29376,0.23487 -0.58873,0.47054 -0.88248,0.70541l-1.67054,1.33523c-1.42621,-0.66078 -3.0449,-1.40677 -3.65996,-1.69138l0.14021,-1.74438c0.07473,-2.09183 1.08496,-4.25927 0.27404,-6.18898c-1.31592,-3.13143 -8.84092,-2.82542 -11.37038,-3.10717c0,0 -0.19276,-0.02115 -0.4756,0.00126c-1.80649,-3.61433 -5.56811,-2.397 -8.05932,-4.51544c-0.8932,-0.75955 -0.81263,-2.57501 -1.92215,-2.95405c-1.53719,-0.52515 -3.35186,-0.01 -4.84003,0.64123c-0.97924,0.42852 -1.29197,1.73333 -2.12928,2.39774c-0.7492,0.5945 -1.80396,0.71751 -2.55215,1.31327c-0.39893,0.31764 -0.70465,0.73257 -1.00845,1.14958c-0.61617,-0.44646 -1.32015,-0.52641 -1.32015,-0.52641l-0.20088,0.0526c-1.21221,-0.44983 -2.4227,-0.92419 -3.61276,-1.4305c-0.03345,-0.0352 -0.06686,-0.07081 -0.09993,-0.10641c-2.79866,-3.01316 -4.92767,-6.67866 -7.73303,-9.68839c-1.72737,-1.85321 -3.59911,-3.59078 -5.19537,-5.55805l-3.32182,-2.19224c0,0 -0.33838,-0.21953 -0.83136,-0.34587c-0.24541,-0.32351 -0.49501,-0.64662 -0.74993,-0.9666c0,0 -0.82633,-1.03465 -2.0286,-0.9966c-0.04046,-6.78592 0.63383,-13.89207 2.56666,-20.30198c1.32243,-4.38561 3.5092,-9.15988 7.79613,-11.21134c0.15144,0.54719 0.53674,1.10467 1.37931,1.49381c2.26963,1.04824 3.32076,-1.22383 3.32076,-1.22383c0.10801,-0.24019 0.22186,-0.46911 0.34011,-0.68654c2.0866,0.78557 4.35119,2.40081 5.97472,3.00648c2.00022,0.8979 4.32332,0.8384 6.39827,1.54666c1.07382,0.36654 1.78967,1.45129 2.84113,1.87777c3.01979,1.22483 6.4088,1.4198 9.41945,2.6669c10.81397,4.47945 19.91352,12.08116 30.01873,17.77373c2.07917,1.17127 3.3876,1.41299 5.63576,2.33401c0.96245,0.3943 4.53413,2.20702 5.27747,2.3019c0.81272,0.10374 1.64464,-0.35046 2.4556,-0.65994c0.33603,1.25428 0.63159,2.51583 0.87795,3.77338l0.10117,0.50956c-1.92194,5.31064 -2.33076,11.01723 -5.41517,15.83788c-1.47957,2.31243 -2.86295,2.59236 -5.07031,4.65386c-1.55998,1.45689 -3.19625,2.8557 -4.61974,4.44622c-0.06862,0.07667 -0.13313,0.15701 -0.19386,0.23977c0.16929,0.33352 0.31469,0.67033 0.44012,1.00478c-1.21055,0.96789 -2.42554,1.93989 -3.63608,2.9078c-0.00091,0.00071 -0.00137,0.00108 -0.00137,0.00108c-0.5891,0.47102 -1.18055,0.94383 -1.76965,1.41485l-0.88483,0.70732z" fill="#c77e00" stroke-width="0.5"></path>
        <path d="M274.68669,163.01321c1.29539,0.59718 2.61319,1.14989 3.9424,1.66899c-0.84275,0.44674 -1.68444,0.87138 -2.45394,1.26831c0,0 -1.83401,0.95384 -1.30842,2.7927c-1.53057,4.0768 -6.44121,0.86534 -8.34373,4.28295c-1.34752,2.42064 -0.77674,5.05954 0.70782,7.30084c-1.2981,0.13936 -2.53364,0.38791 -3.59827,0.68023c-0.2921,0.72198 -0.75502,1.42255 -1.15445,2.12907c-0.42552,-0.19653 -0.85292,-0.39213 -1.27844,-0.58866c0,0 -2.2069,-1.01257 -3.27563,1.11988l-0.86335,-0.09543c0,0 -0.26692,-0.02922 -0.63388,0.01772c0.10234,-0.09155 0.20874,-0.17956 0.31802,-0.26278c-0.35404,-0.19963 -0.76896,-0.40402 -1.2625,-0.6153c-1.54517,-0.66147 -3.26896,-0.84983 -4.85943,-1.39345c-3.21017,-1.09724 -5.94102,-2.7941 -9.28888,-3.74664c-3.91295,-1.11332 -9.19698,-2.05831 -12.42762,-4.83858c-1.23847,-1.06582 -2.16607,-2.3581 -3.21558,-3.47794c7.93033,-0.8913 15.90968,-2.58879 22.854,-6.21724c2.72115,-1.42181 4.96961,-3.39541 7.05059,-5.48628c0.08642,0.30468 0.16829,0.61361 0.23377,0.92367c0,0 0.54075,2.46179 2.9854,1.93865c2.44465,-0.52315 1.84044,-2.90969 1.84044,-2.90969c-0.28112,-1.29889 -0.75325,-2.53574 -1.17534,-3.79813l0.21592,-0.16587c0,0 1.95688,-1.55865 0.39564,-3.51121c-0.46451,-0.58094 -0.95897,-0.84863 -1.43103,-0.94113c-0.04882,-0.89932 -0.05132,-1.99193 -0.08041,-2.91989c1.72842,2.42064 3.3461,4.91096 5.23962,7.28509l2.53733,3.1743c0,0 1.56355,1.9575 3.51616,0.3963c0.09727,-0.07777 0.18569,-0.15679 0.26614,-0.23621c1.00415,1.34967 1.99196,2.72923 3.04926,4.02962c-0.01528,1.4919 1.49842,2.19612 1.49842,2.19612z" fill="#805100" stroke-width="0.5"></path>
        <path d="M338.5194,175.05707c-0.23898,0.04463 -0.39096,0.10013 -0.39096,0.10013l-1.20579,0.49405c-0.28437,0.04453 -0.57138,0.08877 -0.85561,0.13324c-0.05339,-0.3164 -0.18313,-0.65923 -0.41447,-1.02513c-1.33603,-2.11306 -3.46075,-0.78028 -3.46075,-0.78028c-2.88604,1.83587 -5.81403,3.12699 -8.74631,4.66769l0.38517,-0.33733c0.5891,-0.47102 1.17718,-0.9428 1.76629,-1.41382l0.88308,-0.70696c1.76726,-1.41306 3.52856,-2.82978 5.29584,-4.2428v0.00003c0,0 1.35127,-1.07822 0.90926,-2.56419c0.9914,-0.96226 2.02605,-1.87817 3.0358,-2.8212c3.01614,-2.81683 3.54884,-2.17004 5.64963,-5.38547c3.41692,-5.22986 4.05485,-11.24223 6.03107,-17.03117c0.24812,-0.42431 0.32357,-0.88606 0.33613,-1.24269c0.04778,-0.34734 0.15776,-0.83505 0.21995,-1.26986c1.02865,2.31744 1.85755,4.73372 2.32511,7.24129c1.13189,6.07046 -0.10775,13.06892 -2.10154,19.01079c-1.02577,-0.09719 -1.87885,0.58662 -1.87885,0.58662c-1.17819,0.94202 -2.37202,1.8951 -3.55022,2.83712l-0.88784,0.70823c0,0 -0.05744,0.04562 -0.14388,0.1306c-0.41709,0.17054 -0.68826,0.38586 -0.68826,0.38586c-0.73637,0.58876 -1.48195,1.17906 -2.21833,1.76783z" fill="#503300" stroke-width="0.5"></path>
        <path d="M257.53602,195.75108c0,0 -0.92388,0.1277 -1.5671,0.78639c-1.30396,0.06925 -2.61667,0.13196 -3.9279,0.17238c0,0 -0.89648,0.03094 -1.59809,0.58616c-1.71516,-0.28798 -3.42273,-0.8905 -4.84543,-1.85722c0,0 -1.31747,-0.8433 -2.53588,-0.17034c-11.37194,-2.32344 -22.12856,-8.10348 -24.73917,-20.30137c-0.4066,-0.72482 -0.85471,-1.42978 -1.21868,-2.17691c-0.15003,-0.30798 -0.62876,-0.84087 -0.31532,-0.97914c0.58844,-0.25958 1.26847,0.31447 1.91035,0.27384c0.61195,-0.03874 1.15726,-0.54636 1.76934,-0.50989c2.16143,0.1288 4.23052,4.09632 5.4464,5.10024c0.77922,0.64338 1.73703,0.82138 2.63514,1.28454c7.78236,4.0134 16.41951,5.74574 24.47043,9.08143c0.22572,-0.13361 0.34401,-0.29329 0.54755,-0.45603c0.23187,-0.1854 0.54621,-0.38107 0.75077,-0.59791c-0.08689,2.25101 2.2258,2.51686 2.2258,2.51686l3.87777,0.42126c0,0 0.9839,0.11154 1.78244,-0.42667c0.00334,0.00155 0.1053,0.01955 0.10864,0.02109c0.20519,0.70319 0.73833,1.51375 2.09349,1.66469c0.2795,0.03113 0.53114,0.02696 0.75752,-0.00433c0.15468,0.36445 0.3246,0.72039 0.56951,1.02671c0.86825,1.08592 3.08607,1.52944 2.98475,2.9161c-0.00977,0.13379 -0.05379,0.25637 -0.11799,0.37138c-0.27338,-0.01382 -0.4566,0.01115 -0.4566,0.01115l-3.21095,0.43644c-2.46911,0.21404 -4.9406,0.47844 -7.39681,0.80914z" fill="#503300" stroke-width="0.5"></path>
        <path d="M257.4568,201.40635c2.86006,-0.16965 5.80262,-0.40144 8.67097,-0.65006l0.50991,0.07246c-0.2214,0.51523 -0.41245,1.04976 -0.47573,1.602c-0.09253,0.80751 0.60608,1.59384 0.53586,2.40359c-0.04673,0.53895 -0.23609,1.07511 -0.47684,1.58836c-0.68691,-1.18761 -3.28791,-0.80405 -4.73249,-1.39392c-0.523,-0.21356 -3.05587,-1.12267 -4.37481,-1.86239c0.27411,-0.43145 0.50792,-1.0553 0.34313,-1.76005z" fill="#6ba3a7" stroke-width="0.25"></path>
        <path d="M284.93757,214.85107c-1.61906,-0.18034 -2.30338,0.81053 -2.58176,1.52373c-3.16497,-1.12957 -6.29999,-2.86932 -9.13379,-4.2919c-0.93827,-0.47101 -1.72664,-1.20897 -2.64156,-1.72389c-0.39675,-0.22329 -1.22423,-0.033 -1.27843,-0.48503c-0.07223,-0.6024 0.76446,-0.95371 1.03971,-1.49439c0.48798,-0.95858 1.09776,-1.91618 1.2355,-2.98297c0.11191,-0.86667 -0.61645,-1.70458 -0.52278,-2.5734c0.10383,-0.96313 0.85575,-1.75752 1.08653,-2.69833c0.24657,-1.00521 0.08449,-2.08714 0.32846,-3.09298c0.25422,-1.04807 1.25959,-1.95635 1.15075,-3.0293c-0.24196,-2.38532 -2.58227,-4.06382 -4.0795,-5.9364c-0.60043,-0.75094 -0.68248,-1.85027 -1.32378,-2.56663c-0.18324,-0.20468 -0.65293,-0.46448 -1.0358,-0.6243c2.11667,0.09798 3.71945,0.63557 5.81913,1.33602c0.42425,0.14154 1.04991,-0.05394 1.30451,0.31376c0.33404,0.48241 -0.05802,1.19556 0.12911,1.75169c0.57048,1.69544 1.22397,3.34949 1.854,5.02372c0.29271,0.77783 1.10466,1.34509 1.2187,2.16832c0.29625,2.1384 -0.58976,4.26524 -0.82875,6.41079l1.23478,2.71598c0,0 1.55706,1.9479 3.50966,0.38669c1.9526,-1.5612 0.31639,-3.44798 0.31639,-3.44798l-0.17333,0.95576c0.13439,-1.20653 0.83267,-7.36353 0.76086,-7.90653c-0.31262,-2.3639 -2.39942,-5.75812 -3.28293,-8.01278c-0.13176,-0.33627 -0.19975,-0.70507 -0.25732,-1.0752c1.10095,-0.34924 2.06498,-0.95712 3.4351,-1.65687l2.15682,-0.44288c0,0 0.20691,0.03132 0.39509,-0.03873c0.07804,1.65049 0.32725,3.32928 0.82336,5.19316l-0.25131,0.64432c0,0 -0.27619,2.46986 2.20844,2.74661c2.48463,0.27675 2.66335,-2.21512 2.66335,-2.21512l0.00279,-0.0657c2.32074,-0.57124 1.83142,-2.96959 1.83142,-2.96959l-0.52368,-2.4775c-0.70688,-3.30322 -1.56353,-6.1566 -1.2172,-9.51541c0.01105,-0.09631 0.02233,-0.19324 0.03318,-0.29062c0,0 0.30849,-2.38986 -2.17615,-2.66661c-2.48463,-0.27675 -2.75371,2.20427 -2.75371,2.20427c-0.1889,1.69594 -0.37531,3.24269 -0.50831,4.73757c-0.75548,-0.26843 -1.49817,-0.11107 -1.49817,-0.11107l-2.78931,0.61573c-4.17626,2.18639 -6.86859,1.87561 -9.31038,-2.25753c-0.2257,-0.38203 -0.9016,-0.65273 -0.77968,-1.07939c0.09753,-0.34129 0.59746,0.49046 0.95215,0.47688c0.95322,-0.0365 1.9122,-0.26424 2.79581,-0.62363c2.17832,-0.88599 3.98759,-2.84304 5.05921,-4.93629c0,0 0.20527,-0.44271 0.2384,-1.02645c2.12639,-1.09212 4.08247,-2.11878 6.10322,-3.72268c0.75575,-0.59985 1.12485,-1.60547 1.88007,-2.206c0.75651,-0.60156 1.82682,-0.72854 2.57922,-1.33523c0.66555,-0.53666 1.09581,-1.31815 1.58599,-2.01863c0.08181,-0.1169 0.05556,-0.54008 0.11771,-0.41165c0.33315,0.68848 0.14774,1.68466 0.73598,2.1735c1.05299,0.87506 2.53739,1.04575 3.79552,1.58576c1.07194,0.46008 2.84832,0.41066 3.1501,1.53744c0.17609,0.65745 -0.42001,1.40282 -0.53331,2.07396c-0.36317,2.15116 -1.26174,4.09991 -1.49859,6.26861c-0.10238,0.93747 0.49731,1.83774 0.52882,2.78025c0.03927,1.17427 -0.52703,2.35542 -0.31419,3.51094c0.50962,2.76674 2.70423,5.15024 3.31651,8.01144c0.48573,0.95577 0.9775,1.93402 1.46323,2.88978l-0.52978,0.96774c0,0 -0.37282,2.46023 2.11181,2.73698c2.48463,0.27675 2.75811,-2.19491 2.75811,-2.19491l0.00272,-3.79374c-0.39725,-0.75247 -0.79106,-1.49465 -1.18831,-2.24712c-0.53765,-2.51244 -2.71359,-4.87267 -3.05426,-7.1888c-0.13956,-0.94879 0.42264,-1.88973 0.39591,-2.84835c-0.02075,-0.74382 -0.61365,-1.42681 -0.52923,-2.16611c0.13206,-1.15639 0.6247,-2.54546 1.07389,-3.89c0.659,-0.15342 1.12695,-0.52551 1.12695,-0.52551c0.46914,-0.50625 0.93952,-1.01193 1.40865,-1.51818c0.09594,0.01077 0.19236,0.02176 0.28831,0.03249l1.61843,0.90868c0,0 1.17288,0.43673 2.16675,-0.13476c-0.09724,0.42665 -0.07875,0.75715 -0.07875,0.75715c0.05524,0.98455 0.07736,1.95285 0.0829,2.90901c-0.75699,0.84321 -0.59111,2.06355 -0.59111,2.06355c0.35619,2.62895 0.55387,5.29337 0.69653,7.9425l-0.07644,0.38365c0,0 -0.27295,2.4937 2.21168,2.77045c2.48463,0.27675 2.66679,-2.1756 2.66679,-2.1756l0.04785,-0.56987c0.03158,-0.13815 0.04132,-0.2237 0.04132,-0.2237l0.1719,-2.19704c-0.05164,-0.36559 -0.09332,-0.72804 -0.12864,-1.09158c0.10397,0.04074 0.29567,0.02951 0.40171,0.06502c0.6757,0.22628 1.64753,-0.14498 2.10087,0.40481c0.00386,0.00469 0.00765,0.00943 0.01136,0.01416c0.41202,0.52633 -0.13922,1.35748 -0.09398,2.03107c0.07368,1.09701 0.29601,2.18577 0.44295,3.2754l-0.27198,1.77793c0,0 -0.27092,2.44467 2.13965,2.7593c-0.0098,0.09833 -0.0203,0.19872 -0.03159,0.30008l0.49096,2.42967c-0.04868,0.30521 -0.07237,0.6127 -0.04562,0.91919c0.13368,1.53143 0.79204,2.97825 1.18878,4.46342l0.41096,3.10678c0,0 0.14364,1.07294 0.94671,1.71166c-0.03681,0.39743 -0.0852,0.80005 -0.14507,1.20701c-0.82332,0.4198 -1.21647,1.27076 -1.21647,1.27076c-1.93905,4.19833 -4.26222,7.10754 -7.30158,10.62096c-0.46814,0.54116 -0.66623,1.35769 -1.27827,1.72842c-0.65399,0.39614 -1.57982,0.06402 -2.25929,0.41466c-1.00541,0.51884 -1.6526,1.59867 -2.6557,2.12193c-0.6761,0.35268 -1.53316,0.17418 -2.24928,0.43619c-1.78575,0.6534 -2.44615,1.70952 -4.3251,1.71252c-3.46379,0.00553 -5.43912,-1.75396 -8.58171,-2.56354c-0.92867,-0.23925 -1.97673,0.10038 -2.87155,-0.24453c-0.2847,-0.10974 -0.55004,-0.25388 -0.79892,-0.42228c-0.28897,-0.9215 -1.08407,-1.32868 -1.61358,-1.50149c-0.13963,-0.15322 -0.2798,-0.3075 -0.42035,-0.45954c-0.05227,-0.72937 -0.39888,-2.11145 -2.21378,-2.31361z" fill="#a2f9ff" stroke-width="0.25"></path>
      </g>
      <g>
        <path d="M147.64625,239.11546c0,0 -1.15439,1.73369 0.22545,3.08917c-1.53293,2.05838 -4.33086,2.82976 -7.02708,3.91704c-1.78223,0.71871 -3.25472,2.10097 -5.04022,2.81151c-0.86398,0.34383 -1.862,0.23268 -2.7413,0.53522c-0.64725,0.2227 -1.10537,0.93321 -1.78438,1.01968c-1.63989,0.20882 -3.2192,-0.78543 -4.84183,-1.10151c-2.97473,-0.57944 -6.23126,-1.63215 -8.15114,-4.17459c-1.32514,-1.75486 -2.05906,-3.91961 -3.40608,-5.65773c-1.26668,-1.63445 -2.77381,-3.11316 -3.8289,-4.89155c-2.72652,-4.05844 -6.6358,-7.72789 -8.25609,-12.49558c-1.08131,-3.18175 -0.19727,-6.94589 -0.45494,-10.19692c-0.23813,-3.00458 -1.62394,-5.96005 -1.72466,-8.98071c-0.02988,-0.89612 0.97608,-1.28355 1.63369,-1.40086c1.46827,-0.26194 6.33567,-1.13393 7.87225,0.58839c0.6449,0.72284 0.83481,1.76216 1.42861,2.52754c2.76661,3.56599 6.62687,6.61671 9.82818,9.81197c2.05012,2.00988 2.70197,3.15685 5.54114,3.98787c1.38562,0.40557 2.83503,0.47909 4.27098,0.62897c0.52919,0.05522 1.15284,-0.33317 1.58937,-0.02896c1.43062,0.99695 -2.13963,5.86553 -3.30512,5.93548c-1.65428,0.09929 -3.05609,-1.38995 -4.37526,-2.39307c-1.60486,-1.22037 -3.38501,-2.27131 -4.79918,-3.70834l-2.26809,-2.26796c0,0 -0.8489,-0.84949 -1.95667,-0.78342c-0.13302,-0.10501 -0.22392,-0.15984 -0.22392,-0.15984c-0.70927,-0.38851 -1.41933,-0.7806 -2.12858,-1.16912l-0.85932,-1.71739c-0.11989,-0.25387 -0.28506,-0.49328 -0.49521,-0.70304c-0.97723,-0.97539 -2.46037,-0.9806 -3.43576,-0.00336c-0.62274,0.62392 -0.84768,1.49077 -0.67431,2.29275l0.55975,2.78493c0,0 0.49115,2.44617 2.94215,1.95358c0.08084,-0.01624 0.15844,-0.03466 0.23299,-0.05502c0.46179,0.29236 0.92263,0.5823 1.38443,0.87465c0,0 0.62774,0.37457 1.40799,0.37955l2.06896,2.0626c3.53483,3.47676 8.05517,8.0165 13.46099,7.4539c3.939,-0.40994 6.95034,-4.68561 7.3748,-8.82153c0.01656,0.06523 0.04624,0.2297 0.06091,0.29544c0.40281,1.80501 -0.11876,3.71865 0.62388,5.41238c0.64964,1.48161 2.21192,2.35648 3.32125,3.53403c0,0 1.76209,1.76875 3.52819,-0.00068c1.76609,-1.76944 0.04151,-3.44624 0.04151,-3.44624c-0.77808,-0.70629 -1.99132,-1.23143 -2.37969,-2.20786c-0.54888,-1.37994 0.02187,-2.98982 -0.28333,-4.44321c-0.33766,-1.60796 -1.33167,-3.0316 -1.63978,-4.64548c-0.67747,-3.54865 -0.27807,-7.14655 0.86593,-10.47579l-0.03909,0.4102c0,0 0.85884,-0.85323 0.78272,-1.96959c1.04092,-1.15561 2.3517,-2.16488 3.81432,-3.04396c0.24994,0.03546 0.53194,0.03746 0.8469,-0.00784c0.53344,-0.07673 0.9363,-0.25078 1.23859,-0.4784l0.59624,-0.11069c0,0 2.37531,-0.42731 1.88267,-2.8783c-0.30323,-1.50863 -1.34317,-1.89704 -2.10205,-1.97653c-0.82699,-4.75072 -1.77373,-9.18792 -0.84287,-14.1523l1.43552,-2.36099c0.43825,-0.34911 0.67448,-0.74275 0.67448,-0.74275c0.30931,-0.62686 1.37316,-4.00858 3.24175,-2.89222c0.14473,0.08647 0.27429,0.18889 0.3907,0.30359c-0.05418,0.09759 -0.10563,0.20258 -0.15389,0.31551c-0.98264,2.29879 1.31929,3.28315 1.31929,3.28315c0.44794,0.17359 0.92486,0.2996 1.3941,0.43534l1.16915,1.24256c0,0 0.62043,0.65758 1.50868,0.81022c0.09526,0.24652 0.18458,0.49894 0.2895,0.73624c-1.51416,1.29404 -0.41529,3.12005 -0.41529,3.12005c1.64222,2.52949 1.70122,4.54566 0.79059,6.77132c-0.63896,0.46229 -0.93102,1.14681 -0.93102,1.14681c-0.23605,0.55257 -0.47183,1.10633 -0.71131,1.65762l-0.45266,0.39028c0,0 -1.00769,1.01361 -0.73585,2.27015c-0.26411,0.56767 -0.53355,1.13412 -0.81283,1.69444l-1.64485,2.75028c0,0 -0.31082,0.523 -0.37052,1.205c-0.69141,1.13958 -1.37199,2.29339 -1.97674,3.50029l1.58915,0.80786c-0.84643,2.07654 1.23106,3.12128 1.23106,3.12128c0.89336,0.41367 1.85473,0.71418 2.74158,1.13893c0.56897,1.04993 0.98717,2.13153 1.28779,3.22937c-0.00141,0.00029 -0.00283,0.00056 -0.00424,0.00085c-2.45099,0.49261 -1.96034,2.95081 -1.96034,2.95081c0.18536,0.92223 0.34049,1.84673 0.46004,2.76223c-1.10419,0.39959 -1.51174,1.62364 -1.51174,1.62364l-1.11377,3.34747c-1.9442,5.06577 -4.08753,9.11081 -7.08831,13.62119z" fill="#a2f9ff" stroke-width="0.25"></path>
        <path d="M159.90371,187.84983c2.4752,0.35122 2.12398,2.82643 2.12398,2.82643c-0.57339,4.00737 -1.53317,7.59775 -2.644,11.48851l-1.173,2.94933c0,0 -0.83562,2.09475 -2.90909,1.51144c-0.42544,0.6528 -0.89943,1.30898 -1.4337,1.97569c0,0 -1.58126,1.93639 -3.51766,0.35512c-1.93639,-1.58126 -0.35512,-3.51766 -0.35512,-3.51766c2.95921,-3.53938 3.59107,-6.82252 4.88961,-11.254l0.84239,-3.09982c0,0 0.3616,-1.33041 1.53573,-1.74675c0.28922,-0.7071 0.99613,-1.72169 2.64086,-1.4883z" fill="#75b3b7" stroke-width="0.5"></path>
        <path d="M147.26096,243.51797c-4.05397,2.34259 -6.82528,4.00044 -11.46925,4.47362c0,0 -0.39,0.03583 -0.87546,-0.07525c-1.5912,0.51505 -3.16509,0.83492 -4.7584,0.93086c-0.92033,1.19087 -2.55116,0.7848 -2.55116,0.7848l-5.04225,-1.3178c-0.61687,-0.4903 -1.25544,-0.99775 -1.90722,-1.52213c-0.11738,-0.05577 -0.23514,-0.11273 -0.35329,-0.17089c0,0 -0.67353,-0.33597 -1.09713,-1.00879c-6.37113,-5.24813 -13.37971,-12.02956 -13.59849,-20.16387c0,0 -0.00237,-2.5 2.49763,-2.50236c2.5,-0.00237 2.50236,2.49763 2.50236,2.49763c-0.11634,2.83561 1.27787,4.71446 2.94548,7.04403c2.77058,3.87039 6.08594,6.93633 9.6221,9.97061c0.41055,0.19126 0.81389,0.36249 1.21097,0.51442c-0.30477,-0.42951 -0.48601,-1.0274 -0.34092,-1.85419c0.43213,-2.46238 2.8945,-2.03024 2.8945,-2.03024c3.53648,0.62809 7.51369,1.22322 11.38925,1.13026c2.77675,-1.96939 5.15944,-4.72146 7.54263,-7.38475l0.54607,-0.60918c0,0 1.6687,-1.86157 3.53027,-0.19288c0.89754,0.80455 0.97443,1.65394 0.81337,2.3179c0.56383,-0.25112 1.30696,-0.3101 2.19894,0.22394c2.14495,1.28422 0.86073,3.42916 0.86073,3.42916l-2.0699,3.31192c-1.43027,0.87716 -2.90232,1.57468 -4.40663,2.11962z" fill="#75b3b7" stroke-width="0.5"></path>
        <path d="M133.54,183.73834c0,0 -0.19708,-0.2529 -0.35953,-0.64814c-0.58755,0.43271 -1.20912,0.81642 -1.86171,1.14349l-1.10649,1.13445c1.81862,0.54655 3.57465,0.67645 5.35127,0.76582c-0.70396,-0.77503 -1.37903,-1.57517 -2.02354,-2.39563zM137.48386,180.6649c1.55744,2.01683 3.33726,3.89095 5.30656,5.51553c-0.08329,-2.29893 0.05241,-4.64472 0.56904,-7.15044l1.88212,-3.21496c0,0 0.24088,-0.4023 0.68819,-0.75413c2.13317,-3.28762 3.29094,-6.57426 9.07489,-4.85028c1.99886,0.59579 2.72093,3.16199 4.0814,4.74298l0.18575,0.19651c0.79122,0.30319 1.55352,0.65289 2.20309,1.18377c3.06227,2.50276 4.61274,8.24175 5.82822,11.82985l0.13303,3.05866c0,0 0.00237,2.5 -2.49763,2.50236c-0.23766,0.00023 -0.45275,-0.02216 -0.6474,-0.06287c-0.4877,1.16205 -1.09309,2.2868 -1.73124,3.37687l-0.27724,0.29721c-0.34106,0.77326 -0.68856,1.54365 -1.04648,2.30904c-0.01721,0.66514 -0.27741,1.18679 -0.27741,1.18679c-0.88431,1.76492 -1.93596,3.40086 -2.93661,5.0745c0.18739,0.08067 0.36692,0.18535 0.53393,0.31403c1.38734,-0.1378 2.25289,1.15786 2.25289,1.15786c0.12935,0.19933 0.25449,0.39871 0.37556,0.59817c0.33013,0.20328 0.64695,0.42631 0.94467,0.67773c1.44435,1.21972 3.02393,6.93036 3.38974,8.01903l0.23853,2.07421c0,0 0.14256,1.79734 -1.34081,2.46036c-0.0274,1.68489 -0.15845,3.4189 -0.34312,5.21811l-0.60606,3.1742c0,0 -0.35332,1.84355 -2.04512,2.02959c-0.52721,1.69334 -1.25661,3.36347 -2.21918,5.01032l-1.69429,2.83001c0,0 -1.28418,2.14497 -3.42914,0.8608c-0.06976,-0.04177 -0.1359,-0.08444 -0.19856,-0.12793c-0.01098,0.10835 -0.02358,0.1717 -0.02358,0.1717c-0.26986,1.17286 -0.21819,2.47041 -0.8096,3.51858c-2.16669,3.8402 -6.5416,5.30071 -10.29203,6.79662c-2.83974,1.13268 -5.15313,2.50667 -8.06173,3.45672c-0.95421,0.31168 -1.74254,1.14432 -2.74108,1.24718c-0.56105,0.0578 -5.59242,-0.97167 -6.48003,-1.15166c-4.25777,-0.86342 -8.30054,-2.47926 -11.10258,-5.9936c-1.37087,-1.71937 -2.04262,-3.92314 -3.39942,-5.65362c-1.37722,-1.75653 -2.94691,-3.38193 -4.10684,-5.28896c-2.93841,-4.42769 -7.02595,-8.31319 -8.75023,-13.52805c-1.2389,-3.74684 -0.40705,-7.47914 -0.69952,-11.31237c-0.254,-3.32894 -2.19034,-6.88272 -1.68666,-10.26185c0.28193,-1.89143 1.32193,-3.33164 2.78431,-4.35331c-0.06358,-0.78904 0.27027,-1.45834 0.27027,-1.45834c0.92103,-1.79659 2.36307,-3.27503 3.59748,-4.87262c0.86369,-1.1178 1.64377,-4.50889 2.04005,-5.29538c0.55309,-1.09772 1.71793,-1.85821 2.11294,-3.02221c0.85056,-2.50647 -2.29609,-5.94212 1.93966,-7.78619c1.37385,-0.59812 5.29656,2.09937 7.06193,2.79831c0.59037,0.23374 1.1729,0.4863 1.74947,0.75295c1.21379,-3.41989 3.32057,-6.91897 3.27095,-10.39672c-0.04374,-3.06602 -1.25946,-8.26347 1.06751,-11.0658c4.56794,-5.5011 12.39283,0.58505 15.33288,4.56668c3.86247,5.23082 3.07035,12.67195 -0.58112,17.75726c0.68678,0.29413 1.10968,0.8368 1.10968,0.8368zM147.62772,239.06904c3.00078,-4.51037 5.12384,-8.54052 7.06804,-13.60629l1.10963,-3.34153c0,0 0.40537,-1.21996 1.50955,-1.61956c-0.11954,-0.9155 -0.27668,-1.83517 -0.46204,-2.7574c0,0 -0.49261,-2.45099 1.95837,-2.9436c0.00141,-0.00029 0.00283,-0.00056 0.00424,-0.00085c-0.30062,-1.09783 -0.71965,-2.17265 -1.28863,-3.22257c-0.88685,-0.42475 -1.84829,-0.72261 -2.74165,-1.13628c0,0 -2.07673,-1.03593 -1.23028,-3.11247l-1.58846,-0.80463c0.60475,-1.2069 1.28772,-2.35349 1.97913,-3.49308c0.0597,-0.68199 0.3715,-1.20279 0.3715,-1.20279l1.64666,-2.74683c0.27928,-0.56032 0.54983,-1.12491 0.81395,-1.69258c-0.27184,-1.25654 0.73746,-2.26776 0.73746,-2.26776l0.45273,-0.3902c0.23948,-0.55129 0.47624,-1.10375 0.71229,-1.65632c0,0 0.29241,-0.68406 0.93137,-1.14636c0.91064,-2.22566 0.8575,-4.2356 -0.78472,-6.76508c0,0 -1.09702,-1.82443 0.41713,-3.11847c-0.10492,-0.2373 -0.19353,-0.48914 -0.28878,-0.73567c-0.88824,-0.15264 -1.50684,-0.80885 -1.50684,-0.80885l-1.16729,-1.24129c-0.46924,-0.13574 -0.94453,-0.26075 -1.39247,-0.43434c0,0 -2.29879,-0.98264 -1.31614,-3.28143c0.04827,-0.11292 0.09971,-0.21792 0.1539,-0.31551c-0.11642,-0.11469 -0.24542,-0.21683 -0.39016,-0.30331c-1.86858,-1.11635 -2.9303,2.26634 -3.23961,2.89319c0,0 -0.23579,0.39382 -0.67404,0.74294l-1.3978,2.26838c-0.93086,4.96438 0.02907,9.40939 0.85607,14.1601c0.75888,0.07949 1.80406,0.47288 2.10728,1.98151c0.49263,2.45099 -1.95834,2.94363 -1.95834,2.94363l-0.59567,0.11138c-0.3023,0.22761 -0.70419,0.40278 -1.23762,0.4795c-0.31496,0.0453 -0.5956,0.04474 -0.84555,0.00927c-1.46262,0.87908 -2.70368,1.81671 -3.7446,2.97232c0.07613,1.11634 -0.77915,1.97324 -0.77915,1.97324l0.03788,-0.41154c-1.14399,3.32924 -1.54564,6.99816 -0.86817,10.54682c0.30812,1.61388 1.29551,3.04271 1.63317,4.65067c0.3052,1.45339 -0.27167,3.0667 0.27721,4.44664c0.38837,0.97642 1.55616,1.41256 2.33423,2.11884c0,0 1.76944,1.76609 0.00334,3.53553c-1.76609,1.76944 -3.53553,0.00334 -3.53553,0.00334c-1.10933,-1.17755 -2.67833,-2.05104 -3.32798,-3.53266c-0.74265,-1.69374 -0.23476,-3.70643 -0.63757,-5.51144c-0.01466,-0.06574 -0.03032,-0.13121 -0.04688,-0.19643c-0.42445,4.13591 -3.45722,8.40993 -7.39623,8.81988c-5.40582,0.5626 -9.95418,-3.99865 -13.489,-7.47541l-2.07182,-2.06791c-0.78026,-0.00498 -1.40876,-0.38128 -1.40876,-0.38128c-0.46179,-0.29236 -0.92357,-0.58471 -1.38537,-0.87707c-0.07455,0.02035 -0.15218,0.03872 -0.23301,0.05496c-2.45099,0.4926 -2.94359,-1.95838 -2.94359,-1.95838l-0.56071,-2.78988c-0.17337,-0.80197 0.05116,-1.67278 0.67391,-2.29671c0.97539,-0.97723 2.5583,-0.97873 3.53553,-0.00334c0.21015,0.20976 0.37517,0.4476 0.49508,0.70147l0.85876,1.71349c0.70927,0.38851 1.41853,0.77703 2.12779,1.16555c0,0 0.09077,0.05434 0.22379,0.15935c1.10777,-0.06607 1.9557,0.78026 1.9557,0.78026l2.26489,2.26061c1.41416,1.43704 3.18383,2.47455 4.7887,3.69493c1.31918,1.00312 2.70826,2.48397 4.36254,2.38468c1.16549,-0.06995 4.69655,-4.84657 3.26593,-5.84352c-0.43652,-0.3042 -1.06678,0.08102 -1.59597,0.02579c-1.43595,-0.14988 -2.89816,-0.23392 -4.28378,-0.63948c-2.83917,-0.83103 -3.5015,-1.99752 -5.55162,-4.00741c-3.20131,-3.19526 -7.06207,-6.27059 -9.82869,-9.83658c-0.5938,-0.76537 -0.78268,-1.80846 -1.42759,-2.53131c-1.53659,-1.72231 -6.30793,-0.82263 -7.77619,-0.5607c-0.65761,0.11731 -1.66303,0.50237 -1.63314,1.3985c0.10072,3.02067 1.48754,5.96362 1.72567,8.9682c0.25767,3.25103 -0.62915,7.00087 0.45215,10.18262c1.62029,4.76769 5.5184,8.41901 8.24492,12.47745c1.05509,1.77839 2.55575,3.25146 3.82243,4.8859c1.34702,1.73811 2.07429,3.89876 3.39943,5.65363c1.91987,2.54244 5.16566,3.5911 8.14039,4.17055c1.62263,0.31607 3.19588,1.30919 4.83577,1.10038c0.679,-0.08646 1.13504,-0.79718 1.78228,-1.01989c0.87929,-0.30255 1.87381,-0.19154 2.7378,-0.53537c1.78549,-0.71055 3.25103,-2.09239 5.03326,-2.81109c2.69622,-1.08728 5.48337,-1.85602 7.0163,-3.9144c-1.37984,-1.35547 -0.22673,-3.08867 -0.22673,-3.08867zM120.75059,200.38821l-1.85694,-1.85343c-0.62994,0.16545 -1.25207,0.36445 -1.85777,0.60154c-0.13486,0.65988 -0.56685,1.74698 -1.95069,1.955c0.10843,0.18101 0.22467,0.35606 0.35387,0.52112c2.65612,3.39364 6.36384,6.32536 9.42276,9.37849c1.09169,1.11505 1.9079,2.38513 3.50578,2.77232c1.27827,0.30974 6.17106,0.52417 7.51556,1.47765c-0.3686,-2.85794 -0.21045,-5.67531 0.35437,-8.4343c-0.42077,-0.59175 -0.43372,-1.25351 -0.34954,-1.75184c-6.22943,1.5772 -10.71988,-0.30423 -15.13741,-4.66656zM113.47592,195.25987c1.8039,-0.88669 3.74918,-1.50819 5.71704,-1.91783c0,0 1.79772,-0.36134 2.62337,1.07453c0.12954,0.10027 0.20159,0.17219 0.20159,0.17219l2.26487,2.26059c3.1258,3.16053 5.9021,4.59438 10.50073,3.3314c3.62898,-0.99668 10.49864,-6.19414 4.45123,-8.82974c-1.63114,-0.34639 -3.34048,0.29071 -5.00074,0.13521c-2.39378,-0.22419 -4.73736,-0.96295 -6.97048,-1.85383c-3.58566,-1.43046 -6.81403,-4.11668 -10.33088,-5.70759c-0.60164,-0.27216 -3.65411,-0.83248 -5.3604,-1.90668c0.06777,0.89157 0.02015,1.79353 -0.25252,2.62791c-0.46311,1.41714 -1.74567,2.43369 -2.40611,3.77032c-0.96146,1.94584 -1.19593,4.26895 -2.47475,6.0226c-0.37424,0.5132 -0.79562,0.99659 -1.2169,1.47958c2.66964,-0.05204 5.3542,0.57405 7.24769,1.79979zM125.82503,182.70577l2.56635,-2.52552c5.12068,-2.56637 7.1104,-7.93953 5.30681,-13.57042c-0.81468,-2.54347 -3.87913,-4.63769 -5.98863,-5.86566c-0.61104,-0.3557 -1.87225,-0.87437 -2.11076,-0.2088c-0.96044,2.68032 -0.01818,5.49528 -0.04571,8.16858c-0.04553,4.42146 -2.73932,8.36971 -3.80232,12.57622c1.21796,0.67168 2.43117,1.35082 3.65928,1.98812c0.20334,-0.35052 0.41496,-0.56253 0.41496,-0.56253z" fill="#293e40" stroke-width="0.5"></path>
        <path d="M133.55291,183.69002c0.64452,0.82046 1.35547,1.6797 2.05944,2.45473c-1.77662,-0.08937 -3.63133,-0.23375 -5.44996,-0.7803l1.11688,-1.16146c0.6526,-0.32707 1.31631,-0.73001 1.90385,-1.16274c0.16244,0.39523 0.36979,0.64977 0.36979,0.64977z" fill="#a2f9ff" stroke-width="0.25"></path>
        <path d="M125.82421,182.75573c0,0 -0.21337,0.21196 -0.41671,0.56248c-1.2281,-0.6373 -2.45913,-1.3207 -3.67708,-1.99238c1.06301,-4.20651 3.76984,-8.2499 3.81538,-12.67136c0.02754,-2.67331 -0.90923,-5.48876 0.05121,-8.16908c0.23849,-0.66557 1.50918,-0.14634 2.12021,0.20936c2.1095,1.22798 5.20787,3.34386 6.02256,5.88732c1.80359,5.63089 -0.21409,11.07991 -5.33478,13.64628l-2.58078,2.52741z" fill="#a2f9ff" stroke-width="0.25"></path>
        <path d="M112.42433,197.73942c-1.89349,-1.22575 -4.5821,-1.86508 -7.25175,-1.81303c0.42128,-0.48299 0.84218,-0.97038 1.21643,-1.48359c1.27883,-1.75366 1.51616,-4.09774 2.47761,-6.04358c0.66044,-1.33663 1.95084,-2.36718 2.41394,-3.7843c0.27267,-0.83438 0.32518,-1.74164 0.25741,-2.63322c1.70629,1.07419 4.76868,1.62727 5.37032,1.89943c3.51685,1.59091 6.81057,4.29217 10.39623,5.72263c2.23312,0.89088 4.58519,1.65115 6.97897,1.87535c1.66026,0.1555 3.36979,-0.47994 5.00095,-0.13355c6.04742,2.6356 -0.82813,7.86258 -4.45711,8.85925c-4.59863,1.26299 -7.39311,-0.15201 -10.51891,-3.31254l-2.29414,-2.25364c0,0 -0.08066,-0.07331 -0.21021,-0.17358c-0.82565,-1.43585 -2.56117,-1.12499 -2.56117,-1.12499c-1.96786,0.40963 -3.91442,1.02167 -5.71833,1.90836z" fill="#a2f9ff" stroke-width="0.25"></path>
        <path d="M120.71051,200.35829c4.41754,4.36233 8.99787,6.26943 15.2273,4.69222c-0.08418,0.49834 -0.07146,1.17072 0.34931,1.76246c-0.56481,2.75898 -0.7404,5.60829 -0.37181,8.46623c-1.3445,-0.95349 -6.26659,-1.1563 -7.54486,-1.46604c-1.59788,-0.38719 -2.44203,-1.66394 -3.53372,-2.77898c-3.05892,-3.05314 -6.78903,-6.04381 -9.44515,-9.43744c-0.1292,-0.16507 -0.24498,-0.34144 -0.35341,-0.52244c1.38383,-0.20802 1.8201,-1.30403 1.95496,-1.96391c0.6057,-0.23709 1.23151,-0.44135 1.86145,-0.6068l1.93606,1.91457z" fill="#a2f9ff" stroke-width="0.25"></path>
      </g>
    </g>
  </g>
</svg>
