<?xml version="1.0" encoding="UTF-8"?>
<svg xmlns="http://www.w3.org/2000/svg" xmlns:xlink="http://www.w3.org/1999/xlink" version="1.1" width="115.22178" height="115.22177" viewBox="0,0,115.22178,115.22177">
  <g transform="translate(-182.38911,-122.38917)">
    <g stroke-miterlimit="10">
      <path d="M296.36088,223.24581c0,7.9788 -6.32551,13.11514 -12.47226,13.11514c-13.06451,0 -62.8835,0 -87.00577,0c-8.05426,0 -13.24374,-6.26142 -13.24374,-15.68675c0,-24.44785 0,-70.18266 0,-83.14837c0,-6.73371 5.74984,-13.88665 14.52954,-13.88665c24.30136,0 71.81534,0 84.86278,0c6.50435,0 13.32946,6.6496 13.32946,13.02945c0,13.23182 0,62.66727 0,86.57718z" fill-opacity="0.34118" fill="#909090" stroke-opacity="0.45882" stroke="#000000" stroke-width="2.5"></path>
      <path d="M203.33333,180.00002c0,-20.25044 16.41623,-36.66667 36.66667,-36.66667c20.25044,0 36.66667,16.41623 36.66667,36.66667c0,20.25044 -16.41623,36.66667 -36.66667,36.66667c-20.25044,0 -36.66667,-16.41623 -36.66667,-36.66667z" fill="none" stroke-opacity="0.54902" stroke="#000000" stroke-width="5"></path>
      <path d="M210.98336,180.50001c-0.33106,-0.24829 -0.47032,-0.52398 -0.50849,-0.78171c-0.31771,-0.22665 -0.52486,-0.59828 -0.52486,-1.01829c0,-0.01403 0.00023,-0.028 0.00069,-0.04192c-1.00732,-0.69327 -0.32408,-1.71813 -0.32408,-1.71813c2.40563,-3.58528 7.51372,-7.41024 12.00807,-7.48947c1.1637,-0.02051 2.32108,0.1147 3.46594,0.33807c0.74138,0.02242 1.50018,0.09117 2.27616,0.20735c0.92921,0.13913 2.35089,0.62656 3.7236,1.34606c0.55767,0.07648 0.98389,0.1314 1.85441,0.71448c1.39562,0.9348 2.10055,2.59026 3.06826,3.89782l0.00147,0.17594l0.06942,-0.02777l0.5228,1.30701c0.06433,0.15061 0.09993,0.31642 0.09993,0.49055c0,0.69036 -0.55964,1.25 -1.25,1.25c-0.19797,0 -0.38519,-0.04602 -0.55155,-0.12795l0.10162,0.25406c0.06433,0.15061 0.09993,0.31642 0.09993,0.49055c0,0.69036 -0.55964,1.25 -1.25,1.25c-0.52567,0 -0.97556,-0.32448 -1.16028,-0.78408l-0.56614,-1.32102c-1.4538,-1.86364 -3.55228,-3.60621 -5.89004,-4.73172c-4.44676,-1.11663 -10.27895,1.73582 -12.71687,5.00349l-0.79998,1.06666c0,0 -0.74999,1.00001 -1.75,0.25002z" fill-opacity="0.55686" fill="#000000" stroke="none" stroke-width="0.5"></path>
      <path d="M239.85825,173.06222c0.22358,-2.27699 0.44047,-4.43561 1.71872,-6.70797c2.92462,-5.19912 11.07433,-6.4992 16.41287,-5.43151c8.8017,0.10022 12.17203,12.53147 9.01796,19.62079c-1.16643,2.62176 -3.54255,3.66331 -6.01023,4.65039c-6.61785,2.60421 -12.32507,1.39045 -17.76683,-2.842c-3.28622,-2.55593 -4.50458,-4.45647 -3.65648,-8.69707c0,0 0.06284,-0.31421 0.28398,-0.59264zM242.5476,176.38947c1.10242,0.0943 1.10242,1.24386 1.10242,1.24386l-0.17813,-0.10978c2.11868,3.53118 3.71384,4.56215 7.55097,6.1116c3.44639,0.69197 8.06763,0.02358 10.87455,-2.18708c5.09949,-4.01622 4.29869,-12.39243 -0.27372,-16.27335c-5.43037,-0.77076 -13.36716,-3.58274 -17.09371,2.71578c-0.8004,1.35282 -1.07534,2.67922 -1.4485,4.17067c-0.39642,1.5844 -1.01587,2.95753 -0.53388,4.32829z" fill-opacity="0.55686" fill="#000000" stroke="none" stroke-width="0.5"></path>
      <path d="M253.19207,177.38185c-0.11472,0.06174 -0.25126,0.11141 -0.4136,0.14387c-1.22573,0.24514 -1.47087,-0.98058 -1.47087,-0.98058c-0.35056,-1.87871 -0.40272,-4.22291 1.17935,-5.69833c0.98736,-0.9208 3.43842,-1.36343 4.47973,-0.13929c0.46384,0.54528 0.55612,1.38233 0.38564,2.26974c0.0279,0.06342 0.0536,0.12909 0.077,0.19703c0.58923,1.711 -1.3593,5.13686 -3.61684,4.60051c-0.2562,-0.06087 -0.45593,-0.2019 -0.62042,-0.39294z" fill-opacity="0.55686" fill="#000000" stroke="none" stroke-width="0.5"></path>
      <path d="M251.19348,190.54498c0.20871,-0.17644 0.47605,-0.2857 0.76864,-0.29441c0.633,-0.42425 1.2411,-0.91896 1.82068,-1.50112l0.53332,-0.53333c0,0 0.88388,-0.88389 1.76777,-0.00002c0.41232,0.41231 0.43996,0.82463 0.3521,1.14723c0.65816,0.7167 0.0307,1.55332 0.0307,1.55332c-4.25695,5.56826 -5.18868,12.89458 -12.60472,15.3692l-0.3696,0.19884c0,0 -0.04823,0.02412 -0.12967,0.05231c-1.12172,1.66533 -1.97222,3.51653 -3.74124,4.67322c-1.56308,1.02202 -3.18272,1.02927 -4.91346,0.71929c-5.13448,-0.91959 -6.72847,-4.62074 -7.21546,-8.88283l-0.53767,-0.18764c-4.49586,-1.11427 -5.00903,-6.0567 -6.97789,-9.67998c-0.82156,-1.51192 -2.32503,-2.99699 -3.37696,-4.39573c0,0 -0.60531,-0.80707 -0.0033,-1.5149c0.00315,-0.14964 0.03593,-0.31578 0.10936,-0.49934c0.46423,-1.1606 1.62483,-0.69637 1.62483,-0.69637c2.60774,1.1231 4.58986,3.64086 7.24599,4.81946c2.89311,1.28376 6.64844,1.85796 10.29909,2.10907c1.35466,-0.15232 2.72454,-0.09987 4.06726,0.16757c0.91297,0.01629 1.79249,0.02011 2.62034,0.01875c2.85674,-0.48415 5.59163,-0.92115 8.02768,-2.14077zM234.92949,200.37209c0.2314,-1.55459 0.50367,-3.04445 1.28582,-4.63112c0,0 0.04927,-0.09855 0.14782,-0.22249c-0.12192,-0.0072 -0.24399,-0.01471 -0.36619,-0.02255c-1.99166,0.25573 -3.93896,1.05643 -5.64693,2.33741c0,0 -0.23949,0.17962 -0.57196,0.24585c0.00529,0.0548 0.00529,0.08749 0.00529,0.08749c0,4.75124 -0.2076,10.26899 5.37535,11.30381c1.07107,0.19853 2.09723,0.33199 3.08654,-0.34736c1.58583,-1.08898 2.22102,-2.90164 3.33174,-4.36886c0.6088,-1.54345 1.41289,-3.24701 1.71245,-4.8441l-0.00608,-1.21016c0,0 0,-0.69817 0.52178,-1.05095l-0.02177,-0.08239c-1.29372,-0.97291 -2.70487,-1.60434 -4.15599,-1.91999c-0.40138,-0.00885 -0.80772,-0.02 -1.21781,-0.03397c0.38256,0.56488 0.04184,1.24631 0.04184,1.24631c-1.09996,2.16292 -1.01013,4.1559 -1.46803,6.46692l0,1.24072c0,0.69036 -0.55964,1.25 -1.25,1.25c-0.69036,0 -1.25,-0.55964 -1.25,-1.25v-3.19999c0,0 0,-0.62895 0.44614,-0.99458z" fill-opacity="0.55686" fill="#000000" stroke="none" stroke-width="0.5"></path>
    </g>
  </g>
</svg>
