<?xml version="1.0" encoding="UTF-8"?>
<svg xmlns="http://www.w3.org/2000/svg" xmlns:xlink="http://www.w3.org/1999/xlink" version="1.1" width="222.65276" height="271.44521" viewBox="0,0,222.65276,271.44521">
  <g transform="translate(-78.47468,-56.21436)">
    <g stroke="none" stroke-miterlimit="10">
      <g stroke-width="0.5">
        <g>
          <path d="M189.7271,155.03912c0.2952,-0.56503 0.7715,-0.97035 1.31822,-1.18145c0.18211,-0.25617 0.3656,-0.5095 0.55034,-0.7599c0.0337,-0.30777 0.12408,-0.6144 0.27573,-0.90468c0.28832,-0.55185 0.74939,-0.95135 1.28008,-1.16637c3.32395,-6.34875 7.97929,-10.9579 13.52756,-15.37665c1.34861,-1.07407 3.34258,-3.08517 4.92821,-3.85292c0.90621,-0.43878 5.37181,-1.61721 6.48831,-2.05084c3.07942,-1.196 6.16663,-2.80695 9.31257,-3.78123c3.9928,-1.23655 8.52336,-1.51531 12.64595,-2.17524c0,0 1.70594,-0.27308 2.50603,1.07112c5.33554,0.16681 10.06612,2.13829 15.2101,3.29881c7.18574,1.62115 15.77895,2.94084 20.74136,9.26641c0.67071,0.85496 0.88292,1.99715 1.42572,2.94068c1.38351,2.40492 3.51033,4.3066 4.99075,6.61108c1.17898,1.83526 1.97448,3.89984 3.09244,5.77389c1.16258,2.4913 3.12938,5.21544 4.09832,7.70297c0.40411,1.03744 0.31788,2.21035 0.57525,3.29474c1.00716,4.24357 2.58749,8.16092 2.89972,12.58102c0.28084,3.97577 -0.69377,7.86242 -0.7793,11.80254c-0.05512,2.53903 0.06331,5.12499 -0.48545,7.60305c-1.56204,7.05385 -5.76561,13.76657 -9.1097,20.10798c-6.42404,8.0413 -14.76501,14.12012 -23.98991,18.49865c-0.98453,0.4673 -5.30582,1.59317 -6.48836,2.05083c-1.14724,0.44399 -4.38582,2.24529 -5.42312,2.56876c-3.83981,1.19737 -7.62061,0.62927 -11.50314,0.90333c-1.07541,0.07592 -2.12647,0.5319 -3.20211,0.45939c-1.92136,-0.12954 -3.77533,-0.89999 -5.70032,-0.94931c-5.12406,-1.68873 -8.80165,-3.33226 -12.85608,-6.38898l-0.85519,-0.16162c-7.25852,-5.7406 -14.64982,-10.67458 -20.09655,-18.39749c-2.51879,-3.59859 -3.60172,-6.97888 -4.79668,-11.10005c-0.60473,-2.08557 -1.38572,-2.36826 -2.4805,-4.20756c-1.82868,-3.0723 -3.93229,-6.99395 -4.98211,-10.44891c-3.24017,-10.66342 0.63075,-23.02028 6.59115,-32.41813c-0.00502,-0.40964 0.08821,-0.82635 0.2907,-1.21394zM215.10456,226.38217l2.46478,1.37716c0.249,0.20573 0.49442,0.40454 0.73691,0.59692l1.96025,0.27463c0,0 2.20245,0.3716 2.09786,2.521c2.21099,1.2829 4.49149,2.22189 7.40565,3.23377c1.74875,0.03705 3.42941,0.75944 5.17413,0.88538c0.85686,0.06185 1.68026,-0.39477 2.53695,-0.45924c3.48148,-0.262 6.92597,0.38219 10.36588,-0.69047c1.79487,-0.55968 3.33404,-1.77107 5.08802,-2.45092c1.97704,-0.76629 4.16485,-0.9475 6.07698,-1.86745c8.39883,-4.04077 16.1067,-9.45503 22.04012,-16.75784c3.01346,-5.83233 6.97864,-11.9964 8.40544,-18.44994c0.47502,-2.14857 0.306,-4.39424 0.35868,-6.59538c0.09037,-3.7763 1.06063,-7.52614 0.78872,-11.33118c-0.29581,-4.13949 -1.87009,-7.7924 -2.78185,-11.77585c-0.18889,-0.82523 -0.02545,-1.73076 -0.33157,-2.51909c-0.91048,-2.34466 -2.77641,-4.85459 -3.87784,-7.22887c-1.0491,-1.75861 -1.78335,-3.70273 -2.88969,-5.42496c-1.51844,-2.36375 -3.68757,-4.3099 -5.09959,-6.79044c-0.42915,-0.75389 -0.5265,-1.69486 -1.05181,-2.38344c-4.01853,-5.26742 -12.04865,-6.10777 -17.86399,-7.43652c-4.79288,-1.09513 -9.29466,-3.11735 -14.26799,-3.18479c0,0 -1.3582,-0.03184 -2.04896,-1.06287c-3.73287,0.56396 -7.85865,0.79539 -11.43805,1.92045c-3.05686,0.96081 -6.05137,2.52812 -9.05194,3.68728c-1.97787,0.76406 -4.15567,0.96731 -6.07693,1.86745c-0.76432,0.3581 -3.78632,3.0811 -4.07241,3.30851c-5.22707,4.15526 -9.38505,8.40185 -12.53054,14.36667c-6.81725,8.5335 -13.04526,21.82322 -9.59778,33.16887c1.26891,4.17597 3.90895,7.73307 5.99095,11.45825c2.36492,4.23139 2.64311,8.7478 5.55796,12.84388c2.26674,3.21399 4.5803,5.00609 7.32928,7.74168c2.06582,2.05575 3.7789,4.25485 6.24676,5.90826c0.50402,0.33768 1.02082,0.65874 1.53672,0.98119c0.48122,0.08682 0.81892,0.26788 0.81892,0.26788z" fill="#c19e4b"></path>
          <path d="M214.2607,226.15819c-0.51591,-0.32245 -1.03421,-0.64441 -1.53824,-0.9821c-2.46786,-1.65342 -4.1876,-3.85754 -6.25341,-5.91329c-2.74899,-2.73559 -5.06959,-4.53545 -7.33632,-7.74945c-2.91485,-4.09608 -3.19964,-8.62466 -5.56455,-12.85606c-2.082,-3.72518 -4.72494,-7.29418 -5.99384,-11.47015c-3.44749,-11.34566 2.78758,-24.668 9.60483,-33.20151c3.1455,-5.96484 7.31612,-10.22543 12.54319,-14.3807c0.28609,-0.22743 3.31233,-2.9533 4.07665,-3.3114c1.92126,-0.90015 4.10456,-1.10627 6.08243,-1.87033c3.00056,-1.15916 6.0043,-2.72953 9.06115,-3.69036c3.57941,-1.12507 7.7165,-1.35773 11.44937,-1.92169c0.69077,1.03102 2.05101,1.06293 2.05101,1.06293c4.97333,0.06744 9.48943,2.09251 14.28231,3.18763c5.81532,1.32874 13.86158,2.17863 17.88013,7.44605c0.52531,0.68858 0.62434,1.6311 1.05348,2.38498c1.41202,2.48053 3.58661,4.43288 5.10505,6.79663c1.10634,1.72222 1.84389,3.67139 2.89299,5.43c1.10143,2.37428 2.97082,4.89157 3.8813,7.23623c0.30612,0.78832 0.1435,1.69617 0.33238,2.52141c0.91176,3.98345 2.48837,7.64812 2.78418,11.78761c0.27191,3.80504 -0.69869,7.56611 -0.78907,11.34242c-0.05268,2.20114 0.11504,4.45311 -0.35998,6.60168c-1.42679,6.45357 -5.40071,12.63521 -8.41417,18.46754c-5.93343,7.30281 -13.66255,12.73314 -22.06137,16.77391c-1.91213,0.91994 -4.10577,1.10304 -6.08281,1.86935c-1.75398,0.67984 -3.29824,1.89227 -5.09311,2.45195c-3.43992,1.07266 -6.89413,0.42894 -10.37561,0.69094c-0.85668,0.06447 -1.6824,0.52092 -2.53927,0.45907c-1.74472,-0.12593 -3.43018,-0.84904 -5.17893,-0.88608c-2.91416,-1.01188 -5.20188,-1.95288 -7.41287,-3.23578c0.1046,-2.14941 -2.1004,-2.522 -2.1004,-2.522l-1.96194,-0.27539c-0.24249,-0.19239 -0.48872,-0.39158 -0.73772,-0.59731l-2.4672,-1.37844c0,0 -0.33841,-0.18146 -0.81963,-0.26828z" fill="#ffce66"></path>
        </g>
        <path d="M214.80057,196.05787c5.52014,7.91871 15.9527,16.15465 26.02232,15.60659c0.4723,-0.08902 0.94459,-0.17802 1.41688,-0.26705l1.41087,-0.6301c0,0 1.07168,-0.47091 1.7338,0.37646l1.40355,-1.08522c0.38822,0.41191 0.77645,0.82382 1.16467,1.23573c3.12127,3.31173 7.31267,7.03287 8.78,11.47604c0.70752,2.14241 0.1846,5.43179 -2.60369,6.08245c-2.93653,0.68526 -7.35391,-4.30361 -9.27462,-6.63121c0.2859,3.64382 -0.58006,7.51625 -5.21116,6.54981c-2.32377,-0.48493 -4.88844,-3.47167 -5.83002,-5.56709c-0.28628,-0.63711 -0.6713,-2.17147 -0.82341,-3.12364c-0.24404,0.28935 -0.5197,0.54699 -0.68305,0.76391c-2.53167,2.40471 -7.33183,4.29787 -9.61097,0.13273c-0.18949,-0.3463 -0.30547,-3.15269 -0.33843,-3.7745c-0.01557,-0.29372 0.04167,-0.82281 0.13066,-1.27128c-0.51045,0.22913 -1.3416,0.30503 -1.83828,0.33413c-2.35775,0.13818 -6.66796,-0.25482 -7.33927,-3.37549c-0.1956,-0.90927 0.02884,-1.73041 0.47894,-2.46731c-3.62437,0.17636 -7.36173,-0.078 -9.88052,-2.9871c-1.40929,-1.62768 -1.44314,-3.37906 -0.63932,-4.75923c-2.32377,-0.43946 -4.55257,-1.22918 -6.25976,-2.8363c-1.8212,-1.71447 -2.83452,-2.95967 -0.31922,-5.16045c0.23484,-0.20546 3.37906,-0.42049 3.93454,-0.40804c3.81133,0.08545 7.70288,0.39221 11.48288,0.88168c0,0 0.47921,0.06249 0.85867,0.39204c1.08325,-0.55203 1.83395,0.51239 1.83395,0.51239z" fill="#292f33"></path>
        <path d="M288.58721,192.65782l-0.04993,-0.07681l-0.68095,0.32519c-0.69232,0.33995 -1.5297,0.3527 -2.2618,-0.03982c-1.22033,-0.65429 -1.68602,-2.18688 -1.04014,-3.42311c0.19642,-0.37596 0.47302,-0.68121 0.79719,-0.90558l0.28475,-0.2061l-0.12138,-0.39948l1.18297,-0.36889l0.72697,-0.52617c0,0 1.60234,-1.15974 2.97883,0.02007c0.05298,0.02382 0.10551,0.04965 0.1575,0.07754c1.22033,0.65429 1.68602,2.18688 1.04014,3.42312c-0.26753,0.51207 -0.68381,0.89296 -1.16643,1.117l-0.06901,0.03295c-0.66077,0.83508 -1.7787,0.9501 -1.7787,0.9501z" fill="#363636"></path>
        <path d="M230.38802,166.32557c-0.21259,-1.17293 -0.42517,-2.34858 -0.65887,-3.52914c0,0 -0.29419,-1.49004 1.17668,-1.78807c1.47087,-0.29803 1.76506,1.19202 1.76506,1.19202c0.03847,0.19535 0.07637,0.39055 0.11379,0.58561c0.71536,0.40573 0.71536,1.33329 0.71536,1.33329v0.4052c-0.00281,0.45201 -0.06929,0.89989 -0.14734,1.347c0.38603,2.1337 0.77669,4.25788 1.30253,6.38871l0.26411,1.07013c0.59858,0.45514 0.99505,0.98956 0.97692,1.62199c-0.0819,2.85726 -4.38098,4.61612 -7.50288,5.66142c-1.39213,0.85451 -3.01898,1.4843 -4.50745,2.28112l-0.01784,0.00214l0.00277,0.0056l-1.57299,0.79676c-0.20845,0.11118 -0.44588,0.1741 -0.69782,0.1741c-0.82843,0 -1.5,-0.68032 -1.5,-1.51955c0,-0.3635 0.12599,-0.69719 0.33615,-0.95871l0.91671,-1.16084l-2.03168,0.70836c-0.16234,0.06094 -0.33794,0.09424 -0.52121,0.09424c-0.82843,0 -1.5,-0.68032 -1.5,-1.51955c0,-0.48511 0.2244,-0.91713 0.57378,-1.19534l0.33203,-0.26909c-0.06826,-0.17375 -0.10579,-0.36325 -0.10579,-0.56165c0,-0.09028 0.00777,-0.17872 0.02267,-0.26468c-0.39192,-0.20126 -0.68483,-0.57175 -0.78508,-1.01655l-0.83005,0.28029c-0.15852,0.05773 -0.32941,0.0892 -0.50755,0.0892c-0.82843,0 -1.5,-0.68032 -1.5,-1.51955c0,-0.29125 0.08088,-0.56335 0.22113,-0.79453c-0.37632,-0.27608 -0.62113,-0.72486 -0.62113,-1.23154c0,-0.04399 0.00184,-0.08754 0.00546,-0.13058c-0.52183,-0.10524 -0.94608,-0.48474 -1.12018,-0.98391l-0.58886,0.14913c-0.12628,0.03497 -0.2592,0.05363 -0.39643,0.05363c-0.56266,0 -1.05296,-0.31384 -1.30964,-0.77813l-0.39253,0.19883c-0.20845,0.11118 -0.44588,0.1741 -0.69782,0.1741c-0.82843,0 -1.5,-0.68032 -1.5,-1.51955c0,-0.41961 0.16789,-0.79949 0.43933,-1.07448v0l0.44428,-0.45007c-0.05417,-0.15701 -0.08362,-0.32578 -0.08362,-0.50152c0,-0.34762 0.11522,-0.66798 0.30909,-0.92401l0.26505,-0.35801c-0.5148,0.06979 -1.12208,0.26196 -1.2459,-0.1293c-0.03249,-0.10265 -0.03888,-0.20151 -0.02473,-0.29737l-0.89596,0.30254c-0.15852,0.05773 -0.32941,0.0892 -0.50756,0.0892c-0.78466,0 -1.42861,-0.61034 -1.49445,-1.38796c-0.4788,-0.25381 -0.80553,-0.76186 -0.80553,-1.34724c0,-0.65225 0.40567,-1.20853 0.97535,-1.42401l1.96756,-0.79729l0.01182,0.02994l0.06005,-0.05692c0.02645,-0.0004 0.0529,-0.0008 0.07935,-0.0012l-0.00621,-0.02203l0.69802,-0.20204c-0.21807,-0.33778 -0.33723,-0.82037 -0.02757,-1.44775c0.67083,-1.35913 2.01247,-0.67955 2.01247,-0.67955c6.26102,3.17733 11.77339,7.63085 18.04846,10.81486c0.24228,0.0532 0.46273,0.16571 0.64583,0.32177c0.41285,0.20185 0.82917,0.39793 1.24937,0.58752c0.04323,0.01951 0.08934,0.0394 0.1381,0.05969c-0.37745,-1.53082 -0.12911,-3.34923 0.03539,-4.97668zM224.34728,171.93679c-0.11097,-0.06474 -0.22088,-0.12996 -0.32964,-0.19565c0.0591,0.08306 0.11013,0.1724 0.15191,0.26685c0.05938,-0.02352 0.11864,-0.04724 0.17773,-0.07121z" fill="#714c19"></path>
        <path d="M262.98202,185.38555c-0.44621,0.03732 -0.89358,0.07034 -1.34153,0.10163c0.96865,0.50342 1.89134,1.11446 2.90044,1.52764c5.11513,2.09438 10.74106,3.23314 15.72993,5.73118l-0.80002,3.12348c0,0 -0.1392,0.07051 -0.35034,0.12068c-0.00552,0.03815 -0.01244,0.07642 -0.02068,0.11477c0.00015,0.00874 0.00022,0.0175 0.00022,0.02628c0,0.50347 -0.2417,0.94975 -0.61397,1.22626l-1.50076,1.14023l-1.12463,1.13929c-0.27145,0.27499 -0.64645,0.44507 -1.06066,0.44507c-0.57456,0 -1.07368,-0.32725 -1.32562,-0.80781c-0.14409,0.03163 -0.28928,0.05669 -0.43891,0.07569l0.05871,0.29738l-1.96963,0.39907c-0.10451,0.02335 -0.21311,0.03566 -0.32455,0.03566c-0.82843,0 -1.5,-0.68032 -1.5,-1.51955c0,-0.13012 0.01615,-0.25643 0.04652,-0.37697c-1.2608,0.31743 -2.54548,0.55416 -3.8225,0.77062l1.02272,-1.653l-1.55807,0.63135c-0.18074,0.0782 -0.37972,0.12148 -0.58867,0.12148c-0.13341,0 -0.26275,-0.01765 -0.38587,-0.05075l-1.82545,0.73969c-0.18074,0.0782 -0.37971,0.12148 -0.58866,0.12148c-0.47178,0 -0.8927,-0.22065 -1.16767,-0.56563l-1.021,0.43411c-0.18672,0.08453 -0.39362,0.13152 -0.61135,0.13152c-0.73454,0 -1.34576,-0.53486 -1.47487,-1.2411c-0.15889,-0.02981 -0.30899,-0.08499 -0.44605,-0.16123l-0.36692,0.27879c-0.25274,0.1964 -0.56898,0.31313 -0.91214,0.31313c-0.82751,0 -1.49852,-0.67883 -1.5,-1.51677l-0.05092,0.03439c-0.24143,0.16825 -0.53392,0.26672 -0.84911,0.26672c-0.82843,0 -1.5,-0.68032 -1.5,-1.51955c0,-0.41696 0.16577,-0.79469 0.43419,-1.06925c-0.20793,-0.1045 -0.38851,-0.25644 -0.52798,-0.44184l-0.11727,0.12487c-0.27337,0.29222 -0.66014,0.47449 -1.08893,0.47449c-0.82843,0 -1.5,-0.68032 -1.5,-1.51955c0,-0.044 0.00185,-0.08755 0.00546,-0.13059c-0.18262,-0.03683 -0.35328,-0.10725 -0.50546,-0.20463c-0.23154,0.14817 -0.50588,0.23391 -0.79999,0.23391c-0.06782,0 -0.13458,-0.00456 -0.20001,-0.01339c-0.06543,0.00883 -0.1322,0.01339 -0.20001,0.01339c-0.82843,0 -1.5,-0.68032 -1.5,-1.51955c0,-0.25522 0.06211,-0.49576 0.17186,-0.70693l0.78652,-1.59351l0.02046,0.01036l0.00627,-0.06201c1.16489,-1.96683 1.86866,-2.69526 1.81491,-4.94178c0,0 0,-0.82632 0.60151,-1.26027c-0.24295,-0.38258 -0.41791,-0.98003 0.09848,-1.67753c0.9,-1.21564 2.1,-0.30392 2.1,-0.30392c1.16837,0.92035 2.57236,1.65534 4.04506,2.29091c3.73484,-0.50644 7.64579,-0.36841 11.26836,-1.1827l-0.02555,-0.18121l2.77447,-0.40151c0.07741,-0.01248 0.15679,-0.01896 0.23767,-0.01896c0.82843,0 1.5,0.68032 1.5,1.51955c0,0.74694 -0.53199,1.368 -1.23308,1.49557l-1.94783,0.39464c-0.98946,0.24367 -1.997,0.41322 -3.0153,0.5402c-0.21784,0.06977 -0.43563,0.13153 -0.65043,0.18608l-0.28956,0.07333c0,0 -0.4964,0.12572 -0.98183,-0.0634zM251.45432,184.90826c0.06651,0.01151 0.13152,0.02744 0.19473,0.04751l0.26483,-0.18215c-0.14474,-0.08712 -0.28881,-0.17533 -0.43218,-0.26467c-0.00724,0.13679 -0.01637,0.26976 -0.02739,0.39931zM258.43671,188.48188l-0.0998,0.15165c0.03855,0.00385 0.07711,0.00769 0.11566,0.01154l-0.01635,-0.06627l1.01545,-0.25717c-0.26818,-0.10136 -0.5355,-0.20417 -0.80187,-0.30858c-0.04454,0.16978 -0.11738,0.32789 -0.21308,0.46882z" fill="#714c19"></path>
        <path d="M279.66965,205.6216c-0.93916,0.80216 -1.87833,1.60435 -2.81749,2.40651c-1.40819,0.67076 -2.94745,1.18715 -4.56664,1.54837c-2.85988,1.3916 -5.53933,3.07116 -8.84882,3.0484c-7.93358,-0.05458 -19.16241,-5.27157 -21.13436,-14.03145c-0.81269,-3.61019 0.34438,-9.08292 1.34728,-12.53888c0.86392,-2.97704 2.01254,-4.98291 1.43594,-8.0622c0,0 -0.01415,-0.09067 -0.02,-0.24022c-0.34695,-0.26739 -0.86876,-0.77968 -1.01775,-1.52406h0.00005c-0.7971,-0.80798 -1.8832,-1.4972 -2.74262,-0.70035c-0.36377,0.33727 -0.62607,0.74809 -0.83612,1.19752c0.19058,1.00901 -0.38197,1.78368 -0.76048,2.1708c-0.13325,0.39495 -0.28084,0.78073 -0.46906,1.13862c-4.58167,6.10833 -8.9873,10.46987 -16.98027,11.07779c-7.50521,0.57083 -12.95891,-2.49451 -18.69942,-6.97525c-1.97556,-1.54202 -3.40356,-2.57559 -4.52137,-4.92183c-1.57973,-3.31581 -1.89189,-6.73167 -1.39086,-10.14889l0.98411,-1.88364c0.31805,-0.61954 0.77169,-1.28677 1.2815,-1.99016c-0.69497,-1.15253 0.00046,-2.48365 0.00046,-2.48365l0.81585,-1.45644c1.29298,-1.60599 2.48472,-4.00049 4.37753,-5.00067c-0.39882,-0.00356 -0.79909,-0.03436 -1.19611,-0.0605c-0.17905,-0.01179 -0.35762,-0.03091 -0.53591,-0.05413l-1.33294,0.41566l-0.02194,-0.07221c-0.12157,0.0569 -0.24494,0.11045 -0.37029,0.16029c-1.29594,0.51534 -2.78288,-0.03826 -4.17607,-0.06716l-3.27179,0.17794c-0.45075,0.03249 -0.91569,-0.05838 -1.34452,-0.2883c-1.22033,-0.65429 -1.68602,-2.18688 -1.04015,-3.42312c0.38109,-0.72943 1.06402,-1.1927 1.8106,-1.31555l0.00397,-0.00289c-0.33269,-0.1903 -0.66324,-0.38352 -0.99284,-0.57436c0.24162,-0.33767 0.48322,-0.67533 0.72484,-1.01299v-0.00001c0,0 0.44696,-0.62273 1.18695,-0.93182c0.00475,-0.00559 0.00954,-0.01115 0.01433,-0.01669c0.04799,-0.18797 0.11824,-0.37328 0.21181,-0.5524c0.46686,-0.89358 1.38667,-1.38774 2.32158,-1.34593l2.5436,0.05963l-0.00104,0.04552c0.05911,-0.01246 0.11848,-0.02415 0.17807,-0.035c0.02876,-0.00524 3.33839,0.55577 5.57383,0.93584c-0.4075,-1.21582 -0.65201,-2.53763 -0.42788,-3.7837c1.13249,-6.2962 6.77884,-6.54381 11.58616,-5.43862c-0.94359,-4.30833 5.46382,-10.77392 10.33086,-9.2128c1.14342,0.36676 1.5179,1.88722 2.36751,2.7448c0.79253,0.79996 1.96117,1.24916 2.54634,2.21517c0.76926,1.26989 1.10165,2.78404 1.36954,4.24906c0.1546,0.84551 0.20128,1.73878 0.05787,2.58912c2.37347,-0.79506 5.26779,-0.5132 7.37656,0.89825c4.55562,3.0492 2.86672,8.07876 3.85389,12.35236c0.63866,2.76484 2.22241,4.68619 3.41291,7.22433l1.38114,1.95832c0.16541,0.22443 0.29189,0.47407 0.37597,0.73747c1.27329,0.4852 2.51864,1.04866 3.72095,1.68728l1.00714,0.87148c1.43854,-0.27695 3.08624,-0.89937 4.59043,-1.71162l1.37877,-0.99791l0.06272,0.08892c0.1291,-0.12536 0.2646,-0.24462 0.40749,-0.3568c0.24744,-0.19427 0.50921,-0.35777 0.78257,-0.49651c0.21456,-0.18139 0.41674,-0.36578 0.60438,-0.55223c1.68173,-1.67101 2.45505,-4.12218 5.28535,-4.50702c2.77188,-0.3769 7.25231,2.21931 8.03441,4.99545c0.26844,0.95288 -1.50335,1.3694 -1.8769,2.28523c-0.11958,0.29318 0.63068,0.06697 0.93932,0.0134c0.67681,-0.11746 1.3134,-0.4331 1.99437,-0.52256c1.11993,-0.14715 2.25916,-0.07219 3.38306,-0.18399c3.0097,-0.2994 5.36688,-2.09755 8.16559,-2.59574c1.66645,-0.29664 3.7817,-1.1921 5.07523,-0.08719c4.21205,3.59789 0.70384,6.56827 -1.10453,9.05455c-0.79534,0.6835 -1.50733,1.48128 -2.38601,2.05047c-0.33737,0.21853 -1.25705,-0.14105 -1.17448,0.25589c0.0864,0.41535 0.83402,0.08376 1.25182,0.11599c0.78211,0.06034 1.56421,0.12411 2.34771,0.1617c3.92156,0.18814 9.37014,0.48264 8.99579,6.41449c-0.09871,1.56419 -1.58794,2.7191 -2.64354,3.86503c-0.94121,1.02175 -1.96721,1.73907 -3.04976,2.21871c0.20871,1.08553 0.5553,2.18179 0.28607,3.23014c-0.3141,1.22302 -1.47236,2.04042 -2.20244,3.06511c-0.84159,1.18119 -1.15548,3.07066 -2.51254,3.55245c-1.51362,0.53739 -3.18781,-0.48141 -4.71189,-0.98756c-0.2663,-0.08844 -0.51549,-0.99831 -0.44251,-0.72419c0.82923,3.11455 -1.12222,4.90256 -3.08067,7.32749c-0.96064,1.18947 -1.93278,2.2192 -2.96197,3.11531zM252.01089,178.18321c-1.01504,3.08503 -1.41552,5.39928 -1.92504,8.49835c-0.41228,2.50766 -1.32799,4.76012 -0.95888,7.39782c0.72104,5.15249 5.48316,8.18583 9.92818,9.51642c3.98109,1.19172 7.2746,2.1208 10.86602,1.53717c0.24782,-0.12759 0.49685,-0.25214 0.74799,-0.37144c2.20499,-0.66691 4.02551,-1.64363 5.62579,-2.93071l1.52506,-1.90914c0,0 0.49095,-0.60981 1.26108,-0.87237c0.52109,-0.62872 1.02564,-1.30118 1.52233,-2.0174c1.12429,-1.62121 0.24434,-4.43323 1.77625,-5.66498c1.25062,-1.00558 3.164,-0.76106 4.75299,-0.60241c0.78242,0.07812 1.21873,1.40782 1.99411,1.27604c0.53963,-0.09171 -0.05722,-1.16357 0.20541,-1.64984c0.32983,-0.61067 1.20991,-0.84674 1.49418,-1.45938c-0.45158,-0.39008 -0.66371,-0.83944 -0.74302,-1.27089c-1.55209,-0.12602 -3.1259,-0.48062 -4.65873,-0.9157c-0.70504,0.44162 -1.50435,0.42288 -1.50435,0.42288l-2.03132,-0.15966c-9.48208,-3.22499 -18.34154,-7.80884 -27.19788,-12.54629c-0.02276,0.0514 -0.04718,0.10125 -0.07301,0.14958l0.10617,0.80708c0,0 -0.52538,2.15816 -2.5876,1.93211c-0.00974,0.48012 -0.12574,0.83277 -0.12574,0.83277zM214.20802,155.67154c-0.96283,0.69163 -2.13607,1.07538 -3.17699,1.64038c-0.36537,0.65282 -1.07611,1.16281 -1.75366,1.68915c-0.17281,0.46589 -0.27554,0.98363 -0.54009,1.39563c-0.4942,0.76963 -1.31681,1.30263 -1.74651,2.11102c-4.082,7.67945 0.73732,14.64293 7.26347,18.34422c2.07319,1.1758 2.41718,0.20967 4.73238,0.6795c1.08315,0.21981 2.03349,0.96772 3.13008,1.10287c1.60969,0.19838 3.19356,-0.5748 4.79766,-0.81519c3.29016,-1.61157 5.72631,-2.62183 8.04046,-5.54606l1.02719,-0.81653c0.87259,-1.67013 2.02265,-3.78757 2.41652,-4.05015c0.36929,-0.24621 0.73729,-0.44978 1.10305,-0.61414c-0.03085,-0.45472 0.05906,-0.92347 0.28501,-1.35595c0.22696,-0.4344 0.56098,-0.77442 0.95173,-1.00434l1.5331,-0.9386l0.82336,-0.70759c-1.07647,-0.20828 -2.12195,-0.54424 -3.32037,-1.07475c-1.96367,1.28968 -3.35346,-0.68092 -3.35346,-0.68092c-1.6013,-2.43679 -3.71887,-3.01943 -6.29474,-4.40441c-4.82147,-2.59235 -9.99007,-4.15704 -15.20461,-5.73779c-0.31769,0.49716 -0.71355,0.78366 -0.71355,0.78366z" fill="#292f33"></path>
        <g>
          <path d="M248.42019,204.82677c0.93265,3.53543 -1.46943,8.44964 -4.8984,9.85003c-1.95424,0.79811 -6.09276,0.96425 -7.97577,-1.13541c-0.58417,0.26733 -1.16178,0.46869 -1.69897,0.56346c-6.14076,1.08323 -10.85891,-4.72854 -13.3897,-9.84422c-0.61707,-0.05986 -1.22188,-0.16165 -1.78213,-0.41564c-4.20195,-1.90494 -5.54571,-6.57894 -3.3809,-10.68892c1.67389,-3.17793 5.31821,-3.92836 8.41214,-4.54204c0,0 1.4224,-0.27408 2.30813,0.69152c0.89535,-0.7128 1.76095,-1.38466 2.51229,-2.00918c3.37338,-2.80402 6.23335,-6.39072 9.39048,-9.44577l0.41154,-0.02749c0.09009,-0.34418 0.20727,-0.56849 0.20727,-0.56849c0.67148,-1.11487 0.91835,-2.65706 2.01443,-3.3446c3.27729,-2.05573 7.17551,-1.6065 9.16304,2.09443c0.61524,1.14563 -0.17546,2.60232 -0.2632,3.90348l-0.4337,1.81254c0,0 -0.13007,0.53427 -0.51478,1.0433c0.05059,0.67403 -0.15693,1.22846 -0.15693,1.22846c-1.86114,4.91174 -2.01759,10.93965 -3.1987,16.40942c1.21347,1.2665 2.91702,3.07245 3.27384,4.4251zM227.20765,201.52815c-0.06554,-0.11047 -0.12725,-0.22261 -0.18481,-0.33604c-0.006,0.07222 -0.01545,0.14239 -0.02801,0.21053c0.04253,0.09913 0.08902,0.20118 0.14012,0.30719c0.00603,-0.01617 0.01216,-0.03228 0.01837,-0.04828c0.01744,-0.04488 0.03554,-0.08934 0.05431,-0.13338z" fill="#ff924c"></path>
          <path d="M225.1941,189.23526c0.06418,-0.0377 0.12874,-0.07465 0.19369,-0.11085c0,0 0.00444,-0.00243 0.01292,-0.00671c0.2249,-0.13088 0.54163,-0.23787 0.89849,-0.13027c0.16275,0.03558 0.32958,0.11186 0.48404,0.25264c0.14917,0.11052 0.28455,0.26658 0.36689,0.4869c0.08175,0.16974 0.11046,0.33635 0.1069,0.49148c0.01096,0.20705 -0.03751,0.38703 -0.11295,0.53882c-0.08922,0.23633 -0.23627,0.39793 -0.3971,0.50841c-0.94302,1.08438 -1.00455,2.10916 -1.71774,3.50435l0.2563,-0.4172c0,0 0.36774,1.21025 -0.82693,1.58279c-1.19467,0.37254 -1.56243,-0.83771 -1.56243,-0.83771l-0.05057,-0.99934c-0.38785,-0.29139 -0.5709,-0.78247 -0.48231,-1.25315l0.20307,-1.23518l0.19607,0.03308l-0.06785,-0.4174c0.33289,-0.34126 0.68454,-0.66771 1.05358,-0.97251c0.05628,-0.22637 0.13814,-0.44227 0.23552,-0.62866z" fill="#863528"></path>
          <path d="M245.66695,205.37138l-1.57672,0.63155c0,0 -0.65829,0.20528 -1.14799,-0.18395c-0.15654,-0.06376 -0.31766,-0.17192 -0.47738,-0.3414c-0.86321,-0.91588 0.04088,-1.79033 0.04088,-1.79033l0.67327,-0.56136c0.08325,-0.69819 0.3273,-1.37037 0.6233,-2.0149c0.03337,-0.14971 0.10242,-0.30575 0.22227,-0.46261c0.03662,-0.07339 0.07357,-0.14642 0.11069,-0.21907c0,0 0.58473,-1.1192 1.68954,-0.52685c0.67599,0.36244 0.71946,0.92213 0.65136,1.30199c1.02139,1.54942 0.71536,2.57394 -0.80922,4.16693z" fill="#863528"></path>
        </g>
      </g>
      <path d="M78.47468,56.21436z" fill="#ff9500" stroke-width="0"></path>
      <g stroke-width="0.5">
        <g>
          <path d="M147.47982,205.55594c-0.18486,-0.94745 -1.16173,-1.38958 -1.16173,-1.38958l-1.64944,-0.7408c-5.88,-2.13395 -10.5012,-5.42956 -15.78279,-8.70749c-3.30171,-4.1765 -6.75954,-8.21036 -9.15899,-13.01521c-2.31072,-4.6272 -1.83721,-9.70831 -1.87425,-14.64755c-0.03882,-5.17894 0.23587,-9.90393 2.02705,-14.83944c1.57458,-4.42158 4.14187,-6.14871 7.6491,-8.71435c1.66258,-1.21624 2.24012,-3.6549 4.00769,-4.71277c1.27172,-0.76113 5.71294,-0.93453 7.17949,-1.0282c4.49998,-0.28745 8.92723,1.1522 13.26382,2.41323c5.36025,1.55868 10.22563,2.59856 14.42219,6.48202c2.1412,1.2988 2.82561,2.96817 4.39505,4.90011c8.1975,10.09088 6.1818,21.94336 4.89229,33.81546c0,0 -0.0879,0.85801 0.41712,1.49362c0.0347,0.29473 0.1108,0.49789 0.1108,0.49789c2.41229,6.05209 9.30718,10.14537 13.50886,15.06447c4.03587,4.72499 2.05165,13.58005 0.28101,18.81436c-3.52525,3.71253 -5.74033,7.40181 -11.35039,7.70614c-3.86087,0.20944 -6.35307,-3.66903 -10.91186,-1.99663c-1.09973,0.40344 -4.15484,2.43778 -4.90832,3.453c-1.77887,2.39682 -2.85212,10.51466 -6.7125,5.42681c-1.63242,-4.43133 -0.21539,-9.22167 -0.31206,-13.82334c-0.1449,-6.89825 -3.69056,-11.92853 -8.3322,-16.45172z" fill="#781616"></path>
          <g>
            <g>
              <path d="M185.94041,224.937c-0.07714,-0.0491 -0.14839,-0.09952 -0.21413,-0.15101c-5.45009,-2.41704 -9.2825,-7.72849 -10.08998,-13.76863c-0.46894,-3.50779 0.34468,-7.35121 -0.80033,-10.72436c-4.26714,-8.04495 -13.34317,-10.4344 -18.49753,-17.73324c-4.59576,-6.50782 -3.22598,-12.77744 -4.60942,-20.0333c-2.79121,-10.36083 -14.36013,-6.30434 -21.40814,-10.09274c-4.68066,-2.51592 -7.62842,-7.13877 -5.48262,-12.23521c0,0 0.62612,-1.38376 1.99419,-1.16276c0.35836,-0.11112 0.64971,-0.11011 0.64971,-0.11011c2.76891,0.09563 5.15651,-1.56016 8.06759,-1.67442c10.62922,-0.4172 22.52365,1.46153 31.23407,7.96856c3.54077,3.3875 7.2796,6.12919 8.98508,10.95659c3.64672,10.32216 -1.90098,21.50977 1.37977,31.47575l0.36017,0.74151c0.22581,0.22035 0.34561,0.42003 0.34561,0.42003c5.07759,8.51288 17.47805,13.57182 15.63871,25.15922c-0.55565,3.50047 -2.82223,6.88188 -4.55201,9.89332l-0.29689,0.47021c0,0 -0.32636,0.51274 -0.90112,0.78514l-0.07276,0.38069c-0.22596,-0.06703 -0.44973,-0.13886 -0.6712,-0.2153c-0.31592,-0.00515 -0.67078,-0.103 -1.05879,-0.34996zM189.62131,213.37968c1.41581,-9.55532 -10.78988,-15.35912 -15.12587,-22.551c0,0 -0.00121,-0.00201 -0.00347,-0.00595c-0.31226,-0.30651 -0.46385,-0.63085 -0.46385,-0.63085l-0.60369,-1.32597c-3.25577,-10.07712 2.19153,-21.15182 -1.35224,-31.39429c-1.41855,-4.10001 -4.8359,-6.39669 -7.82345,-9.26577c-7.83569,-5.90899 -19.00079,-7.40436 -28.539,-7.04085c-2.80802,0.10701 -4.93165,1.43323 -7.65295,1.64927c-0.62411,3.12036 2.94368,6.1744 5.90942,6.87152c2.78912,0.65561 5.82891,0.32562 8.6448,0.88556c6.04573,1.20217 11.17342,5.10432 12.92932,11.05142c1.27272,6.68267 -0.20473,12.74892 3.98594,18.66094c5.3569,7.55728 14.42926,9.9161 18.91756,18.48416c2.4395,7.68108 -0.37237,17.88401 7.78165,21.99948c1.37941,-2.27895 3.0209,-4.85724 3.39582,-7.38763z" fill="#783232"></path>
              <path d="M186.26236,220.82119c-8.15401,-4.11548 -5.4269,-14.41665 -7.8664,-22.09773c-4.4883,-8.56805 -13.57769,-10.87561 -18.93459,-18.43291c-4.19065,-5.91202 -2.63779,-11.92072 -3.91051,-18.60339c-1.75591,-5.94711 -6.86324,-9.85615 -12.90899,-11.05833c-2.81589,-0.55993 -5.84565,-0.23656 -8.63479,-0.89216c-2.96575,-0.69713 -6.61558,-3.85274 -5.99146,-6.97309c2.72129,-0.21605 4.85319,-1.548 7.66122,-1.655c9.53822,-0.36351 20.74752,1.12395 28.58321,7.03295c2.98756,2.86908 6.42671,5.17378 7.84524,9.27379c3.54376,10.24246 -1.87996,21.40587 1.37581,31.48299l0.6021,1.32858c0,0 0.15108,0.32516 0.46333,0.63166c0.00227,0.00393 0.00346,0.00594 0.00346,0.00594c4.33598,7.19188 16.53184,13.00739 15.11603,22.56272c-0.37494,2.53039 -2.02428,5.115 -3.40367,7.39395z" fill="#a14343"></path>
            </g>
            <path d="M188.10621,211.77093c-1.52013,1.2349 -2.75502,-0.28524 -2.75502,-0.28524l0.21146,0.14079c-2.50256,-1.75749 -5.71763,-4.03209 -6.46285,-7.22291c-0.51478,-2.20412 0.2494,-3.79252 -0.99839,-5.85828c-2.36295,-3.91198 -7.07141,-5.40655 -9.34191,-9.64816c-1.47542,-2.75631 -0.93268,-5.81184 -2.31058,-8.49045c0,0 -0.1273,-0.25988 -0.1841,-0.62881c-0.06064,-0.06148 -0.09297,-0.1013 -0.09297,-0.1013l-1.36995,-1.69113c-1.79506,-2.85573 -2.73901,-4.78039 -1.71823,-8.17437c1.08573,-3.60989 6.34441,-8.02344 1.94423,-11.45859c-4.27955,-1.22621 -6.79213,-2.71334 -10.10112,-5.67808c-2.17756,-1.95103 -3.50006,-4.63764 -6.53575,-5.36299c-5.67078,-1.355 -11.00156,2.72931 -16.26402,-0.15131c-1.96724,-1.07685 -2.34888,-2.03434 -3.64794,-3.81379c0,0 -1.14349,-1.59004 0.44652,-2.73351c1.59003,-1.1435 2.73351,0.44653 2.73351,0.44653c3.29785,4.6729 5.2608,2.66973 9.97978,1.91565c2.07612,-0.33175 5.60199,-0.00512 7.66908,0.52826c5.00559,1.29162 7.67571,6.17245 11.55615,9.22972c1.61582,1.27305 4.12174,1.5531 6.02742,2.17431c0.80799,0.68488 1.82543,1.18077 2.42396,2.05466c4.99783,7.29697 -5.67528,12.20444 -1.34147,18.72567l1.23802,1.51923c0,0 0.35561,0.43776 0.45026,1.03429c0.20334,0.23656 0.3043,0.44267 0.3043,0.44267c1.27758,2.70167 0.81265,5.76737 2.24528,8.36308c2.25066,4.07784 6.89771,5.5469 9.25804,9.49954c1.46029,2.44541 1.03615,4.40664 1.45115,6.99677c0.31849,1.9878 3.42008,3.85294 4.88626,4.87334l0.58404,0.59941c0,0 1.2349,1.52013 -0.28524,2.75502z" fill="#b17878"></path>
          </g>
          <g>
            <path d="M156.6798,189.99025c-0.26703,0.24966 -0.51988,0.3735 -0.51988,0.3735c-3.75924,1.8348 -10.86691,5.69066 -12.89423,9.49215c-0.38869,0.72885 2.55095,2.71978 2.85221,2.97652c3.8999,3.32355 7.91624,7.23215 11.39788,10.94642c3.13263,3.00051 6.28523,5.71704 9.65376,8.42482c0.95179,0.76508 1.70033,1.83214 2.80072,2.36174c0.48847,0.23509 1.63131,0.78616 1.6078,0.24458c-0.04507,-1.03831 -0.80843,-1.9291 -1.01767,-2.94711c-1.34408,-6.53988 -3.62283,-12.87209 -6.46108,-18.94235c-2.02096,-4.33608 -4.51994,-8.9719 -7.41953,-12.93027zM155.42927,186.6352l2.82971,-1.0063c3.71534,4.59443 6.88354,10.28754 9.38885,15.63294c2.96579,6.34669 5.34281,12.96946 6.74884,19.80961c0.27058,1.31634 1.18575,4.6482 0.61539,5.62293c-1.22144,2.08733 -4.61699,2.17711 -6.50362,1.50502c-0.56508,-0.20128 -3.25868,-2.51262 -3.79108,-2.94128c-3.48403,-2.80518 -6.75354,-5.62429 -9.99254,-8.73093c-3.3529,-3.64337 -7.3418,-7.47445 -11.14289,-10.70949c-2.03561,-1.73246 -4.8255,-3.75407 -4.09746,-6.98404c0.21428,-0.95059 1.21143,-1.52664 1.81689,-2.29017c3.18924,-4.02185 8.54698,-7.44296 13.13569,-9.69747c0,0 0.44249,-0.21672 0.99227,-0.21082z" fill="#868686"></path>
            <path d="M164.1541,202.88497c2.83826,6.07024 5.10425,12.48796 6.44832,19.02784c0.20922,1.01802 0.97005,1.91083 1.01512,2.94914c0.02351,0.5416 -1.12213,-0.00746 -1.61061,-0.24256c-1.10038,-0.52959 -1.85197,-1.59467 -2.80378,-2.35978c-3.36851,-2.70777 -6.55909,-5.41515 -9.69171,-8.41566c-3.48165,-3.71428 -7.55538,-7.70915 -11.45529,-11.0327c-0.30127,-0.25674 -3.23803,-2.2547 -2.84934,-2.98357c2.0273,-3.8015 9.18675,-7.69408 12.94599,-9.52886c0,0 0.25501,-0.12405 0.52202,-0.37369c2.89961,3.95835 5.45834,8.62373 7.47929,12.95981z" fill="#a2a2a2"></path>
          </g>
          <path d="M155.48673,193.51323c3.23569,-0.80253 7.63721,-4.99775 9.83971,-7.27843c0.73029,-0.75621 2.26671,-1.25655 2.15585,-2.30197c-0.0897,-0.84599 -0.95048,-2.32607 -1.76223,-3.63548c-3.79804,3.66382 -7.68853,6.37897 -12.73319,8.07553l-0.30053,0.11356c0.51697,1.53956 1.7681,5.28285 2.80037,5.02682zM165.22437,175.49782c1.73279,-0.91279 2.64559,0.81999 2.64559,0.81999c0.85941,1.63218 3.57313,5.55994 3.52755,7.49592c-0.11475,4.87317 -7.36248,8.82434 -10.88417,11.15521c-0.81061,0.53651 -3.73052,2.43884 -4.72358,2.44954c-4.5828,0.04936 -5.53257,-4.68667 -6.92343,-8.01161l-0.39162,-1.62089c0,0 -0.33333,-1.5005 0.9199,-2.13819c0.2805,-0.21119 0.53048,-0.30541 0.53048,-0.30541l1.81674,-0.6834c4.54431,-1.51817 7.99193,-3.98194 11.40118,-7.31868c0,0 0.4323,-0.42163 1.05096,-0.55659c0.08315,-0.45258 0.35699,-0.93115 1.03038,-1.28588z" fill="#343434"></path>
          <path d="M152.62263,188.50052l0.30043,-0.11396c5.04467,-1.69656 9.04174,-4.47475 12.83979,-8.13856c0.81175,1.30941 1.69052,2.81496 1.78021,3.66094c0.11085,1.04543 -1.4215,1.56199 -2.15178,2.31821c-2.20249,2.28067 -6.70566,6.53745 -9.94136,7.33998c-1.03229,0.25604 -2.31035,-3.52706 -2.82731,-5.06661z" fill="#434343"></path>
          <path d="M163.1051,211.82116c-0.69082,-1.83263 1.14181,-2.52345 1.14181,-2.52345l0.70358,-0.25578c4.15544,-2.0304 7.89743,-4.19525 9.94168,-8.47512c0,0 0.85528,-1.76188 2.61717,-0.90658c0.17427,0.0846 0.32294,0.17807 0.44936,0.27782c1.65428,-0.53548 2.35081,1.12969 2.35081,1.12969c0.64586,1.54453 1.26908,3.0989 1.85981,4.66535l0.16476,0.43707c0,0 0.4782,1.26853 -0.41651,2.09266c-1.28274,4.24328 -4.52205,8.17348 -8.54987,10.0661c-2.63818,1.23964 -6.12785,1.73375 -8.33715,-0.70079c-0.7275,-0.80164 -0.89876,-1.96971 -1.34814,-2.95458l-0.48327,-1.02998c0,0 -0.40926,-0.87557 -0.0377,-1.68406c-0.01952,-0.04444 -0.03833,-0.09053 -0.05636,-0.13835zM167.29605,213.16197c2.32671,6.491 9.94077,-2.6105 11.01599,-6.55337c-0.31318,-0.81972 -0.63539,-1.63602 -0.96506,-2.4493c-2.50807,3.85058 -6.17161,6.1689 -10.39544,8.26319z" fill="#343434"></path>
          <path d="M166.8927,212.45079c4.2238,-2.0943 7.9886,-4.49054 10.49666,-8.34111c0.32968,0.81328 0.66688,1.64809 0.98006,2.46782c-1.07522,3.94287 -8.80138,13.11112 -11.12808,6.62013z" fill="#434343"></path>
          <g>
            <path d="M132.78409,186.17955c-0.85382,-0.28822 -0.60848,-1.18057 -0.60848,-1.18057c1.46729,-4.97397 8.1675,-3.82226 9.15707,1.03463c0.44109,2.16489 -1.65382,4.61556 -3.89296,4.43672c-2.52631,-0.20176 -4.03339,-2.15715 -4.65563,-4.29078zM135.0719,184.00112c-0.02014,0.15052 -0.06144,0.25349 -0.06144,0.25349l-0.50101,1.14785c0.34707,1.75666 3.89167,4.83428 4.79525,1.78046c0.65221,-2.20421 -2.46991,-4.2547 -4.23282,-3.18178z" fill="#868686"></path>
            <path d="M139.36384,187.21056c-0.90359,3.05384 -4.57023,-0.06895 -4.91729,-1.82561l0.51639,-1.17512c0,0 0.04509,-0.10666 0.06523,-0.25719c1.76291,-1.07292 4.98788,1.05371 4.33568,3.25793z" fill="#a2a2a2"></path>
          </g>
          <g>
            <path d="M128.50591,164.72428c-0.01914,-0.02675 -0.02895,-0.0431 -0.02895,-0.0431c-2.52328,-5.11678 6.11369,-5.16042 7.8543,-1.09137c1.23166,2.87925 -0.23539,6.05439 -3.7623,5.68925c-2.23942,-0.23185 -3.16877,-1.87589 -4.12949,-3.621zM129.89076,163.28096c0.68911,0.23313 0.60776,1.01884 0.60776,1.01884l-0.14717,0.93359c0.65422,0.93881 1.10322,1.96134 2.41927,2.09759c2.20542,0.22833 2.88609,-2.39805 1.4259,-3.79686c-0.79576,-0.7623 -4.65769,-1.30413 -4.30576,-0.25316z" fill="#868686"></path>
            <path d="M134.24714,163.49293c1.46019,1.39881 0.74096,4.13057 -1.46447,3.90224c-1.31602,-0.13626 -1.84207,-1.21679 -2.4963,-2.1556l0.15164,-0.96422c0,0 0.08889,-0.79939 -0.60022,-1.03252c-0.35194,-1.05097 3.61362,-0.5122 4.40938,0.2501z" fill="#a2a2a2"></path>
          </g>
          <g>
            <path d="M124.45708,174.85477c0.24114,-4.87802 9.36837,-2.26553 7.45543,3.55823c-1.65745,5.04595 -8.86853,1.64825 -7.68866,-3.10921zM126.64282,174.55775c0.01708,0.30782 -0.11803,0.56504 -0.11803,0.56504l-0.47923,0.90014c-0.5491,1.67183 2.35436,4.19629 3.68027,2.65009c2.84808,-3.32123 -1.90535,-4.33007 -3.08299,-4.11528z" fill="#868686"></path>
            <path d="M129.76692,178.72373c-1.32591,1.5462 -4.33139,-1.05244 -3.78232,-2.72426l0.49414,-0.92299c0,0 0.14364,-0.26437 0.12656,-0.57219c1.17764,-0.21478 6.00968,0.89822 3.1616,4.21944z" fill="#a2a2a2"></path>
          </g>
          <g>
            <path d="M135.78067,175.49981c-0.26674,-0.24112 -0.32994,-0.5982 -0.32994,-0.5982c-0.89065,-6.33666 7.37509,-4.31355 7.94003,0.53542c0.60214,5.16826 -6.17206,4.96363 -7.70342,1.125zM137.29785,174.11471c0.55659,0.27909 0.48529,0.96795 0.48529,0.96795l-0.15349,1.2281c0.60321,1.85138 4.24822,1.59379 3.81878,-0.62242c-0.40614,-2.09607 -4.49378,-4.40335 -4.15059,-1.5736z" fill="#868686"></path>
            <path d="M141.51218,175.70244c0.42943,2.21621 -3.33447,2.49461 -3.93768,0.64323l0.14361,-1.26886c0,0 0.07891,-0.71406 -0.47768,-0.99316c-0.3432,-2.82976 3.86561,-0.4773 4.27175,1.61878z" fill="#a2a2a2"></path>
          </g>
          <path d="M169.03457,230.5806c-4.90405,1.93094 -3.74666,8.63168 -8.42045,10.66279c-3.1584,1.37255 -6.19978,-1.51067 -7.88841,-3.52675c-2.47177,-6.46414 0.32955,-12.98593 -1.37948,-19.51317c-1.2006,-4.58549 -3.88297,-7.41128 -7.18825,-10.49369c-0.29611,-0.06081 -0.98102,-0.26236 -1.35794,-0.86724c-6.07613,-2.299 -10.99518,-5.66814 -16.4563,-9.21564c-3.69967,-4.46225 -7.53969,-8.94093 -10.07901,-14.2071c-4.38313,-9.08994 -3.3835,-23.2298 -0.02153,-32.4935c1.87988,-5.10115 4.85312,-7.6023 9.05948,-10.56829c1.79004,-1.26219 2.4695,-3.79952 4.34704,-4.92746c1.68854,-1.0144 6.93811,-1.40192 8.84353,-1.51736c5.00169,-0.30302 9.78684,1.16912 14.58962,2.56608c5.80378,1.68812 11.13809,2.92199 15.69307,7.13713c2.37933,1.57201 3.27364,3.361 5.03525,5.5295c8.92093,10.98142 7.03049,23.43762 5.73751,36.35743c0.18531,0.25941 0.26855,0.4802 0.26855,0.4802c1.89764,5.49163 9.30331,9.36877 12.88869,13.94919c4.97779,6.35929 3.23364,16.3728 0.5983,23.30285c-0.0394,0.04351 -0.07873,0.08707 -0.11798,0.13063c-0.59061,0.01996 -1.05042,0.39348 -1.05042,0.39348c-1.07472,0.89105 -2.02124,1.96059 -2.78021,3.13232l-0.62385,1.37026c-1.67409,1.64624 -3.4794,3.02988 -5.69948,3.82359c-0.17855,-0.05411 -0.30491,-0.0672 -0.30491,-0.0672c-1.90482,-0.1972 -5.36808,-0.55577 -7.27288,-0.75297c0,0 -0.5134,-0.05316 -0.99266,0.18903c-1.75939,-0.83955 -3.5148,-1.62722 -5.4273,-0.87417zM155.81016,221.94241c0.09665,4.60167 -1.32025,9.392 0.31216,13.82333c3.86039,5.08784 4.92326,-3.02888 6.70213,-5.4257c0.75348,-1.01522 3.80014,-3.04736 4.89987,-3.45081c4.5588,-1.67241 7.03868,2.21163 10.89955,2.00219c5.61005,-0.30434 7.81049,-3.98196 11.33575,-7.6945c1.77063,-5.23429 3.74196,-14.06936 -0.2939,-18.79435c-4.20167,-4.91912 -11.10138,-8.98527 -13.51368,-15.03735c0,0 -0.07602,-0.20164 -0.11073,-0.49636c-0.505,-0.63559 -0.41667,-1.48892 -0.41667,-1.48892c1.28948,-11.87209 3.34385,-23.67331 -4.85366,-33.76421c-1.56945,-1.93194 -2.24527,-3.59825 -4.38649,-4.89706c-4.19656,-3.88346 -9.04052,-4.92105 -14.40078,-6.47974c-4.33659,-1.26102 -8.74783,-2.70368 -13.24781,-2.41623c-1.46655,0.09369 -5.89978,0.26393 -7.17151,1.02505c-1.76758,1.05787 -2.33891,3.49319 -4.00151,4.70941c-3.50724,2.56564 -6.06308,4.28385 -7.63765,8.70544c-1.7912,4.9355 -2.0547,9.64603 -2.01588,14.82498c0.03703,4.93925 -0.42898,9.99981 1.88175,14.62701c2.39944,4.80486 5.85632,8.81091 9.15804,12.98744c5.28158,3.27793 9.87571,6.53522 15.75571,8.66919l1.64392,0.7375c0,0 0.97164,0.43964 1.1565,1.38709c4.64165,4.52319 8.15999,9.54834 8.30489,16.44659z" fill="#4e0e0e"></path>
        </g>
        <g>
          <path d="M225.54054,317.32735l0.43668,-0.43318c-1.12909,-1.54696 -2.3028,-3.05796 -3.56276,-4.49477c0.09739,2.28776 0.46039,4.71158 3.06252,5.1336c0.02682,-0.12448 0.06355,-0.20568 0.06355,-0.20568zM233.09361,325.898l-0.25382,0.057c0.00893,0.07962 0.00941,0.16696 -0.00051,0.26272c-0.08806,0.85059 -0.842,0.88149 -1.03172,0.87567l-0.69509,0.40365c0,0 -0.41029,0.15465 -0.78527,-0.01755c-0.51374,0.12657 -0.9808,0.2162 -1.12846,0.16581c-0.94567,-0.32284 -3.35321,-4.45058 -3.53979,-5.45607c-0.15986,-0.86143 0.62051,-2.20482 1.02231,-3.19594l-1.06424,0.53041c-5.16315,-0.58954 -4.87752,-5.55674 -5.25148,-9.31604c0,0 -0.03764,-0.39834 0.1898,-0.70984c-0.0786,-0.30423 -0.0778,-0.53587 -0.0778,-0.53587l0.00734,-2.09949c0.01467,-1.89666 0.3245,-3.6544 0.42716,-5.50744c-0.43226,-0.62356 -0.35172,-1.40145 -0.35172,-1.40145l0.0413,-0.02965c-0.53333,-5.90123 4.20645,-13.02527 11.17906,-11.25396c0.63319,0.16085 1.34058,0.57039 2.02383,1.04492c0.47357,0.16238 0.79019,0.45538 0.79019,0.45538c1.98473,2.10565 6.16783,1.08801 8.96747,1.37471l1.70655,0.4065c0,0 0.94346,0.23594 1.33446,1.04012c0.95052,-0.08096 1.86785,-0.479 2.80814,-0.27247c2.95849,0.64979 3.48514,4.84404 2.40386,7.05549l-0.70811,0.67726c0,0 -0.43251,0.35135 -0.91005,0.1977c0.47325,0.88563 0.94319,1.77692 1.40278,2.67271c0.05843,-0.02075 0.09586,-0.02908 0.09586,-0.02908l0.00001,0.00004c1.124,-0.24807 2.82209,-0.76663 3.95884,-0.23501c2.41166,1.12787 3.26189,6.78227 1.37132,8.17904l-0.57424,0.47917c0,0 -0.51907,0.42169 -1.04778,0.13914c0.12146,0.34097 0.23838,0.68202 0.35038,1.02316l0.22174,0.36053c0,0 0.6336,1.20276 -0.15704,2.13202c0.25457,1.04123 -0.62238,1.85624 -0.62238,1.85624c-4.85336,4.43524 -11.99125,7.33508 -18.35717,8.75196l-1.87319,-0.09288c0,0 -0.25595,-0.02649 -0.57269,-0.15306c-0.55078,0.24677 -1.11118,0.18873 -1.11118,0.18873l-0.09666,-0.05051c-0.03067,0.00872 -0.06137,0.01748 -0.09204,0.0262zM227.5819,321.81774c0.69704,2.12997 1.55611,3.6644 3.31568,3.43872c0.10283,-0.13868 0.20877,-0.27518 0.31731,-0.40971c0.02233,-0.10146 0.06101,-0.18917 0.10948,-0.26482c-1.03025,-1.47129 -2.03988,-2.96591 -3.06363,-4.45195c-0.33094,0.74575 -0.70623,1.60406 -0.67883,1.68779zM231.92556,327.03722c-0.01296,0.00369 -0.02696,0.0077 -0.04189,0.012l-0.00794,0.00462zM255.21674,310.19636l0.80163,-0.63853c0.49302,-0.1308 -0.21705,-3.5111 -0.60085,-4.37815c-0.32212,-0.72767 -2.07121,-0.29636 -2.92022,-0.07201c0.88936,1.8102 1.7181,3.63536 2.429,5.46601c0.11379,-0.23381 0.29043,-0.37731 0.29043,-0.37731zM249.87224,298.93178l0.20914,-0.06789c1.92818,-3.27866 -0.70283,-3.69739 -2.91472,-3.84084c0.76728,1.44391 1.56835,2.91112 2.36939,4.39598c0.1032,-0.29798 0.3362,-0.48726 0.3362,-0.48726zM233.40807,294.34244c-4.40706,-3.45145 -9.24431,-0.54572 -8.93605,4.83926c0.39748,0.56464 0.38892,1.24892 0.38892,1.24892c-0.03557,2.21514 -0.46252,4.24312 -0.45898,6.44556l-0.00656,1.8724c3.79021,4.08448 6.8015,8.82596 9.99067,13.37866c0.50643,-0.18621 0.98353,-0.1368 0.98353,-0.1368l0.62038,0.16528c5.50529,-1.2204 12.06204,-3.6951 16.28762,-7.56208l-0.24756,-0.50109c-2.0074,-6.21221 -5.81853,-12.52393 -8.86897,-18.26775c0,0 -0.08207,-0.15577 -0.15028,-0.39854c-2.88612,-0.28124 -5.51257,0.06885 -7.97268,-0.67144c-0.86953,0.18002 -1.63005,-0.41238 -1.63005,-0.41238z" fill="#343434"></path>
          <g>
            <path d="M223.1986,296.33724c0.88101,0.29738 1.57295,-1.00359 2.41917,-1.38899c0.85846,-0.39097 5.7285,-2.57073 5.71636,-3.66869c-0.00327,-0.29593 -1.34505,-1.70561 -2.31061,-2.70923c-0.112,0.09934 -0.22421,0.19751 -0.33678,0.29405c0.04387,-0.16514 0.11128,-0.31278 0.19252,-0.44395c-0.38776,-0.40271 -0.69371,-0.72007 -0.79057,-0.83932c0,0 -0.45697,-0.56252 -0.47275,-1.28115c-3.55842,-5.34597 -7.24655,-10.58301 -10.73327,-16.00312c-8.37958,-13.02797 -16.89798,-25.93812 -25.31635,-38.93144c-0.20913,-0.24072 -0.31294,-0.45267 -0.31294,-0.45267c-0.01597,-0.03269 -0.03329,-0.06965 -0.05186,-0.11054c-0.05668,-0.08752 -0.11335,-0.17505 -0.17001,-0.2626c0.0141,-0.01071 0.02794,-0.02157 0.04149,-0.03256c-0.49209,-1.16237 -1.46663,-3.71069 -2.11756,-4.05753c-0.65798,-0.35061 -3.70252,1.47782 -4.24421,1.80286c-3.60773,2.16481 -5.28056,3.13567 -2.36063,6.65365l0.21307,0.36394c0.06659,-0.00148 0.14911,-0.00655 0.24133,-0.01912c9.40402,12.68947 16.70395,26.82086 26.68767,39.08859c3.76379,5.85679 7.81649,11.61854 11.4134,17.59027l0.44258,1.10397c-0.12853,0.0661 -0.25688,0.13271 -0.385,0.19992c0.78633,1.26506 1.83818,2.96973 2.23497,3.10366zM235.24878,291.41649c-0.20438,3.74667 -6.82947,7.02224 -9.84907,7.99409c-1.03549,0.33329 -2.13423,1.00613 -3.18334,0.71853c-1.96993,-0.54003 -3.87662,-4.16806 -5.12724,-5.70586l-1.30398,-1.60518c0,0 -0.86996,-1.07089 -0.25068,-2.14519c-2.98491,-4.7281 -6.20344,-9.35961 -9.214,-14.03554c-9.42232,-11.61919 -16.46416,-24.89157 -25.17181,-37.01913c-0.73431,-0.24712 -1.1323,-0.94694 -1.1323,-0.94694l-0.70606,-1.29543c-1.68094,-2.10377 -3.66207,-4.81694 -2.38877,-7.76216c0.38531,-0.89124 1.40684,-1.33941 2.13718,-1.97924c2.5307,-2.21706 7.86945,-6.32295 11.56235,-4.73012c1.68991,0.7289 3.17404,4.23822 4.02333,6.02286c8.47244,13.11229 17.08351,26.1146 25.53265,39.25073c3.87299,6.02243 7.99485,11.8176 11.91294,17.78823c-0.04504,0.03076 -0.0899,0.06192 -0.13458,0.09346c1.38701,1.54405 3.38235,3.72545 3.29336,5.3569z" fill="#343434"></path>
            <path d="M220.99124,293.29276c0.12813,-0.06721 0.20056,-0.25181 0.32908,-0.31792l-0.38581,-0.98637c-3.59691,-5.97173 -7.66159,-11.72907 -11.42539,-17.58586c-9.98371,-12.26773 -17.34358,-26.51102 -26.74759,-39.20049c-0.09224,0.01256 -0.08759,0.11485 -0.15418,0.11634l-0.30037,-0.46102c-2.91995,-3.51799 -1.23892,-4.49508 2.36881,-6.6599c0.54167,-0.32502 3.59287,-2.15723 4.25085,-1.80663c0.65094,0.34685 1.68284,3.01247 2.17494,4.17484c-0.01356,0.01098 -0.0273,0.0218 -0.0414,0.0325c0.05668,0.08754 0.05606,0.05773 0.11273,0.14525c0.01857,0.04088 0.0359,0.07786 0.05187,0.11055c0,0 0.10396,0.21187 0.31309,0.45259c8.41836,12.99332 17.01555,26.0038 25.39512,39.03178c3.48673,5.42013 7.1672,10.665 10.72563,16.01096c0.01579,0.71863 0.47206,1.28175 0.47206,1.28175c0.09687,0.11925 0.40291,0.43653 0.79068,0.83923c-0.08123,0.13115 -0.23214,0.17842 -0.27603,0.34356c0.11259,-0.09655 0.22416,-0.1942 0.33617,-0.29353c0.96554,1.00364 2.3915,2.51313 2.39476,2.80907c0.01214,1.09794 -4.8672,3.28427 -5.72566,3.67524c-0.84622,0.38541 -1.54229,1.68855 -2.4233,1.3912c-0.39679,-0.13392 -1.44972,-1.83807 -2.23605,-3.10314z" fill="#434343"></path>
          </g>
          <path d="M254.94012,310.63747c-0.7109,-1.83065 -1.59127,-3.77284 -2.48063,-5.58303c0.849,-0.22432 2.66329,-0.66173 2.98541,0.06595c0.3838,0.86705 1.11006,4.35526 0.61704,4.48605l-0.823,0.6513c0,0 -0.18502,0.14591 -0.29881,0.37971z" fill="#888888"></path>
          <path d="M249.55634,299.48109c-0.80103,-1.48486 -1.66133,-3.06651 -2.42861,-4.51043c2.21189,0.14344 4.92203,0.66603 2.99384,3.94469l-0.21477,0.07181c0,0 -0.24728,0.19594 -0.35046,0.49391z" fill="#888888"></path>
          <path d="M233.38665,294.28079c0,0 0.76694,0.59054 1.63646,0.41052c2.4601,0.74028 5.12471,0.39267 8.01083,0.67392c0.0682,0.24276 0.15156,0.39904 0.15156,0.39904c3.05045,5.74381 6.89705,12.14191 8.90445,18.35414l0.24694,0.50247c-4.22558,3.86698 -10.85178,6.37891 -16.35707,7.5993l-0.62327,-0.1658c0,0 -0.48118,-0.05038 -0.98763,0.13583c-3.18916,-4.55269 -6.24857,-9.35422 -10.03877,-13.43869l0.00675,-1.88125c-0.00354,-2.20245 0.43187,-4.25719 0.46744,-6.47231c0,0 0.01041,-0.68729 -0.38707,-1.25193c-0.30825,-5.38499 4.56227,-8.31675 8.96933,-4.8653z" fill="#434343"></path>
          <path d="M227.71335,305.3572c-0.00745,-5.31903 11.04804,-0.42334 6.32602,4.57168c-3.11592,3.29608 -8.05054,-0.8245 -6.32602,-4.57168zM229.23679,307.15226c0.09825,1.54887 2.22145,2.75313 3.37902,1.43152c1.63607,-1.86791 -0.925,-3.60013 -2.25141,-3.60606c-0.06057,0.38383 -0.37432,0.63873 -0.37432,0.63873l-0.29272,0.20013c-0.00234,0.00291 -0.0047,0.00582 -0.00704,0.00872c0.01503,0.0552 0.03429,0.11336 0.05795,0.17452c0,0 0.23576,0.82819 -0.51148,1.15242z" fill="#343434"></path>
          <path d="M225.57373,317.38355c0,0 -0.03992,0.08295 -0.06674,0.20743c-2.60213,-0.42202 -3.03161,-2.95795 -3.12901,-5.24571c1.25996,1.4368 2.51521,3.04919 3.6443,4.59615l-0.44855,0.44214z" fill="#888888"></path>
          <path d="M227.52283,321.78999c-0.0274,-0.08373 0.37876,-0.97314 0.70971,-1.71889c1.02376,1.48604 2.10726,3.08619 3.13751,4.55748c-0.04848,0.07564 -0.09188,0.16755 -0.11419,0.26901c-0.10853,0.13453 -0.22395,0.27737 -0.32678,0.41605c-1.75956,0.22569 -2.70921,-1.3937 -3.40625,-3.52367z" fill="#888888"></path>
          <path d="M255.53802,309.64864c-0.28991,0.93536 -1.22527,0.64545 -1.22527,0.64545l-0.47413,-0.30483c-1.93902,3.85868 -8.71356,8.61694 -11.99935,3.46931c-3.31119,-5.65376 -5.68896,-12.015 -9.24718,-17.63094c-1.25511,-1.12491 -2.42782,-2.45291 -3.75447,-3.68056c0,0 -0.58601,-0.54227 -0.2101,-1.17664c-1.34624,-1.63362 -2.72913,-3.1994 -4.08355,-4.8154c-0.86643,0.27752 -1.19502,-0.59418 -1.19502,-0.59418l-0.07832,-0.50088c-5.52691,-5.26857 -9.31236,-13.4997 -13.24282,-20.05007c-3.89223,-6.52561 -8.9242,-12.32815 -12.91455,-18.77886c-0.50741,-0.09588 -0.71033,-0.63422 -0.71033,-0.63422l-0.45282,-1.2167c-0.22885,-0.35266 -0.45768,-0.70531 -0.68652,-1.05796c-3.47944,-6.12154 -6.67236,-12.50345 -10.2686,-18.49828c0,0 -0.00154,-0.00258 -0.00433,-0.00756c-0.07396,-0.06716 -0.13734,-0.14531 -0.18782,-0.23153l-0.53148,-0.88596l0.02095,-0.01257l-0.04578,-0.03137c-0.22704,-0.48446 -0.45321,-0.96846 -0.67926,-1.45181c-0.71804,-0.84584 -1.02198,-2.01544 -1.59285,-3.23674c-0.9192,-1.9665 -1.96659,-3.85599 -2.99685,-5.76663c-0.04128,0.00784 -0.08366,0.01488 -0.12715,0.02109l0.00002,0.00001c-1.93885,0.27683 -2.21567,-1.66203 -2.21567,-1.66203l-0.09482,-0.70482c-0.62951,-2.9511 -2.34478,-5.26469 -3.77063,-7.88048c-3.77086,-6.91774 -6.77037,-14.10169 -12.65614,-19.54075c0,0 -1.43747,-1.3302 -0.10725,-2.76767c1.33021,-1.43748 2.76766,-0.10725 2.76766,-0.10725c6.22414,5.76713 9.44575,13.22449 13.43717,20.54502c1.61735,2.96635 3.38845,5.56424 4.15297,8.90173l0.14869,1.00058c0,0 0.0396,0.27741 -0.01608,0.63735c1.1028,1.97776 2.11757,3.9931 3.0985,6.03068c0.11003,0.22508 0.21826,0.45078 0.32444,0.67715c0.5628,1.17995 1.11631,2.36678 1.67094,3.55754l0.01179,-0.00622l0.89632,1.70151c0.11504,0.11144 0.1761,0.21323 0.1761,0.21323c3.59615,5.99467 6.78275,12.37249 10.26457,18.49157c0.25358,0.39736 0.50715,0.79476 0.76074,1.19212l0.25079,0.65808c0.28223,0.14399 0.43776,0.40322 0.43776,0.40322c4.0215,6.74222 9.25819,12.7055 13.31899,19.44102c3.66958,6.11877 7.33998,14.52417 12.62758,19.38009c0.45942,-0.006 0.77649,0.38433 0.77649,0.38433c1.78249,2.19419 3.63905,4.2453 5.42374,6.44222l0.74514,0.91725c0,0 0.11772,0.14492 0.18708,0.35958c0.50395,-0.05913 0.85979,0.3789 0.85979,0.3789l0.68059,0.84534c1.15183,0.94701 2.30689,2.23156 3.62602,2.94883c0.88458,0.48097 1.89001,0.7409 2.95523,0.86483l0.22415,-0.03231c0.32071,-0.32636 0.8184,-0.27483 0.8184,-0.27483c0.98335,0.10181 1.95445,0.25957 2.92141,0.31429c0.79654,-0.05656 1.58651,-0.13057 2.34794,-0.19152l-0.04056,-0.10758l1.29291,-0.48736c0.14273,-0.05724 0.30107,-0.08161 0.46467,-0.06467c0.53795,0.0557 0.9289,0.53693 0.8732,1.07489c-0.03341,0.32273 -0.21998,0.59255 -0.48008,0.74477l-0.88596,0.53148l-0.0315,-0.0525l-0.08296,0.1113c-0.73616,0.2112 -1.4484,0.31782 -2.15383,0.35735c-0.7345,0.14503 -1.57236,0.14595 -2.27403,0.14578c-0.42579,-0.00011 -0.83794,-0.01478 -1.23808,-0.04357c-0.31237,0.41288 -0.88627,0.35347 -0.88627,0.35347c-0.71677,-0.07668 -1.43006,-0.20788 -2.12899,-0.3891c-0.79153,-0.04444 -1.5129,-0.19665 -2.18245,-0.43313c2.5475,4.76673 4.59572,9.88892 7.37175,14.37061c0.64837,1.20469 1.42874,1.07831 2.70089,0.95506c3.86425,-0.37434 4.37781,-2.87068 7.11209,-5.30865l1.56082,0.3259c0,0 0.93536,0.28991 0.64545,1.22527z" fill="#1f1f1f"></path>
          <path d="M232.48837,323.51714c-0.61745,-0.76007 0.14263,-1.37752 0.14263,-1.37752l0.80794,-0.55433c3.73407,-1.05097 4.61134,-3.31241 6.14857,-6.5073c-0.23818,-3.14045 -2.65297,-4.8723 -4.60875,-7.00725c-1.86091,-2.03139 -3.76466,-3.87117 -5.59685,-5.79677c0.00595,0.30461 0.00342,0.61065 -0.0073,0.9172c0.00888,0.05635 0.01757,0.11274 0.02607,0.16919c0,0 0.03801,0.26619 -0.0653,0.53952c-0.26589,3.51943 -1.58153,7.01832 -3.52163,9.15965l0.16925,0.26692c0,0 -0.10084,0.97404 -1.07489,0.8732h-0.00001c-0.97404,-0.10084 -0.8732,-1.07489 -0.8732,-1.07489l0.34138,-1.39544c0.70551,-0.74095 1.31992,-1.73672 1.81047,-2.87816c-0.08933,-0.03911 -0.18169,-0.09561 -0.27606,-0.1737l-0.00003,0.00002c-0.75452,-0.62421 -0.13031,-1.37873 -0.13031,-1.37873l0.36772,-0.41154c0.75074,-1.41557 1.10829,-2.78727 1.17588,-4.12357c-0.39529,-2.21246 -1.12272,-4.38077 -1.92928,-6.55105c-0.22683,-0.24174 -0.47404,-0.46328 -0.74251,-0.66187c0,0 -0.78335,-0.58761 -0.19573,-1.37097c0.01771,-0.02363 0.03562,-0.04597 0.05366,-0.06716c-0.60026,-1.02105 -1.23953,-2.03077 -1.85717,-3.03412c-0.35353,-0.11323 -0.55874,-0.43226 -0.55874,-0.43226l-0.69308,-1.0803c-2.85995,-3.52055 -6.52083,-6.31469 -8.86654,-10.22492c-3.81647,-6.39858 -7.26995,-15.21599 -12.71616,-20.32328c-3.67663,-6.0149 -8.28029,-11.25666 -11.292,-17.65866c-0.17854,-0.17955 -0.25586,-0.38469 -0.25586,-0.38469l-0.44838,-1.20798c-1.09097,-1.61592 -2.00061,-3.13077 -3.23536,-4.66018c-3.08695,-5.92743 -7.30403,-11.40101 -10.81743,-17.14376c-1.3378,0.28287 -2.03788,-1.04611 -2.03788,-1.04611l-0.64881,-1.23813c-5.82165,-9.70466 -12.6043,-20.23724 -16.12325,-31.0343c0,0 -0.6069,-1.86212 1.25521,-2.469c1.86212,-0.6069 2.46899,1.25522 2.46899,1.25522c3.42718,10.51553 10.08942,20.78359 15.75801,30.23308l0.75541,1.42753c0,0 0.44265,0.84032 0.12628,1.65884c3.52503,5.8045 7.7253,11.31833 10.89788,17.27755c1.28658,1.57265 2.22072,3.16541 3.34172,4.84176l0.49069,1.28487c0.13904,0.14518 0.20665,0.28982 0.20665,0.28982c2.95281,6.31702 7.57061,11.34534 11.0783,17.33923c5.55145,5.05987 9.00623,14.13283 12.87551,20.55065c2.30444,3.84141 5.9579,6.61797 8.77316,10.08348l0.19954,0.30948c0.39298,0.10255 0.61381,0.47069 0.61381,0.47069c0.49467,0.82459 1.00187,1.64743 1.49841,2.47193l0.7086,0.63729c0.21134,0.56063 0.42387,1.11939 0.63433,1.67721c0.35878,0.65283 0.69758,1.3086 1.00516,1.96899c0.56163,0.85972 0.97706,1.83168 1.26066,2.87072c4.44557,4.81097 12.23574,9.88852 12.60613,16.60819c-1.69778,3.93976 -3.08834,6.75801 -7.53866,8.03749l-0.1093,0.19079c0,0 -0.76007,0.61744 -1.37751,-0.14263z" fill="#1f1f1f"></path>
          <path d="M234.86818,299.42314c-1.93322,-5.45731 6.95896,-4.497 7.76394,-0.01603c0.49691,2.76606 -2.93071,5.17041 -5.4442,4.04202c-1.22891,-0.55169 -1.78324,-2.07671 -2.30326,-3.18618zM236.58612,298.56181c0.13481,0.15936 0.19091,0.3498 0.21332,0.50066c0.02995,0.15849 0.03876,0.3712 -0.05119,0.57658c0.25954,0.6242 0.671,1.75969 1.24705,2.02574c0.96886,0.44749 2.98909,-0.63033 2.72493,-1.83299c-0.44045,-2.00513 -4.96654,-3.07673 -4.13409,-1.26999z" fill="#343434"></path>
          <g>
            <path d="M235.65742,310.46542c0.00035,-0.0406 0.00272,-0.08293 0.00728,-0.12702c0.10084,-0.97404 1.0749,-0.8732 1.0749,-0.8732l1.25615,0.23399c1.28204,0.82098 2.08576,1.44834 2.85779,2.42849c-0.09687,-1.59999 0.31121,-3.11865 1.3001,-3.80957c0.03663,-0.41492 0.38124,-0.69487 0.38124,-0.69487l0.80884,-0.40473c2.5604,-0.07728 3.95807,0.59221 5.79663,2.30118c2.8261,3.59538 -0.85191,9.64219 -5.52534,7.6164c-0.90303,-0.39143 -1.60354,-1.22473 -2.0749,-2.23751c-0.06135,0.2563 -0.14279,0.50476 -0.24204,0.74423c0.46318,2.66903 -3.07336,4.28807 -5.36845,3.45039c-0.0346,-0.01263 -0.06858,-0.02593 -0.10193,-0.03987c-1.43383,-0.15384 -2.74525,-1.05555 -3.40153,-2.9777c-1.1752,-3.44196 0.68551,-5.83835 3.23127,-5.61017zM235.84272,313.50166c0.24091,0.37551 0.09735,0.83874 0.09735,0.83874l-0.27152,0.73893c0.13108,0.38686 0.3183,1.62837 0.70341,2.03945c1.03733,0.03129 2.18396,-0.53148 2.85475,-1.40356c-0.61703,-0.87005 -2.53992,-2.34126 -3.38397,-2.21356zM243.91091,310.37189c0.00052,0.00043 0.00101,0.00084 0.00153,0.00125c0.75452,0.62421 0.13032,1.37872 0.13032,1.37872l-0.2647,-0.28201c-0.00366,0.01002 -0.0075,0.02008 -0.01153,0.03017c0.20993,0.78237 0.39211,2.23345 1.12442,2.69863c0.90931,0.57758 3.08708,0.22392 2.90318,-1.15817c-0.20842,-1.56646 -3.27461,-3.39958 -3.88321,-2.66861z" fill="#343434"></path>
            <path d="M235.80112,313.45135c0.84405,-0.12769 2.87307,1.40389 3.4901,2.27394c-0.6708,0.87208 -1.91699,1.47983 -2.95432,1.44854c-0.38512,-0.41108 -0.60127,-1.72053 -0.73235,-2.10739l0.28277,-0.76451c0,0 0.1547,-0.47507 -0.0862,-0.85058z" fill="#888888"></path>
            <path d="M243.86669,310.32389c0.60861,-0.73097 3.78127,1.16985 3.98968,2.73631c0.18388,1.38211 -2.08518,1.77451 -2.99448,1.19692c-0.73231,-0.46518 -0.94502,-2.00142 -1.15495,-2.78378c0.00403,-0.01009 0.12664,0.03409 0.1303,0.02407l0.14439,0.23156c0,0 0.64111,-0.77965 -0.11341,-1.40385c-0.00053,-0.00042 0.08745,0.09517 0.08693,0.09475z" fill="#888888"></path>
            <path d="M227.72022,306.59419c-0.20821,-0.16889 -0.30883,-0.3842 -0.30883,-0.3842c-1.94766,-4.84453 5.58604,-5.61428 7.5189,-1.9839c2.93832,5.51888 -4.13165,10.28963 -7.11065,4.12641l-0.20403,-1.12895c0,0 -0.04679,-0.32778 0.10462,-0.62936zM229.17619,306.27845c0.31818,0.24755 0.37825,0.66829 0.37825,0.66829l0.03944,0.57643c1.73355,3.8869 5.31446,0.92409 3.6381,-2.32162c-0.81285,-1.57383 -5.30292,-1.88172 -4.04635,0.1791c0,0 0.22397,0.47916 -0.00944,0.8978z" fill="#343434"></path>
            <path d="M229.13027,305.34604c-1.25656,-2.06082 3.34154,-1.75689 4.1544,-0.18305c1.67637,3.24572 -2.01505,6.27738 -3.7486,2.39049l-0.046,-0.59586c0,0 -0.05989,-0.44359 -0.37806,-0.69113c0.23341,-0.41863 0.01826,-0.92043 0.01826,-0.92043z" fill="#888888"></path>
            <path d="M236.8843,297.37512c0.01349,0.69815 -0.72157,0.9074 -0.72157,0.9074c-2.25684,0.22581 0.21754,3.74041 1.49069,4.15422c3.7463,1.21759 4.46338,-3.90689 0.76299,-5.11061c-0.32134,0.03515 -0.64269,0.0703 -0.96401,0.10544zM235.4399,296.47192c-0.00553,-0.07012 -0.00467,-0.14598 0.00382,-0.22803c0.10084,-0.97404 1.0749,-0.8732 1.0749,-0.8732l0.9425,0.10236c0.38565,-0.03167 0.77132,-0.06336 1.15698,-0.09505c1.70823,0.51554 3.73361,1.45833 4.33322,3.34155c1.08401,3.40466 -2.60528,6.57713 -5.86434,5.59195c-3.42213,-1.03445 -5.39257,-6.27646 -1.64706,-7.83962z" fill="#343434"></path>
            <path d="M237.43741,297.36802c0.32134,-0.03515 0.667,-0.07136 0.98833,-0.10651c3.70038,1.20374 2.96401,6.45734 -0.78228,5.23975c-1.27316,-0.41379 -3.78671,-4.03592 -1.52987,-4.26173c0,0 0.75722,-0.2257 0.74373,-0.92385z" fill="#888888"></path>
            <path d="M238.60378,302.97053c-0.13841,-0.96942 0.83102,-1.10784 0.83102,-1.10784l0.27416,0.01848c0.49744,-0.24805 0.94962,-0.61539 1.29431,-1.05145c0,0 0.62421,-0.75452 1.37872,-0.13031c0.75452,0.62422 0.13031,1.37873 0.13031,1.37873c-0.52709,0.61756 -1.17811,1.14642 -1.89055,1.53582l-0.91014,0.18757c0,0 -0.96942,0.1384 -1.10784,-0.83102z" fill="#343434"></path>
          </g>
        </g>
      </g>
      <g stroke-width="0.5">
        <path d="M133.20066,167.72119l0.36306,0.23275c1.85711,1.17261 3.91419,2.18777 6.09701,2.43109c0.17669,0.0197 0.32283,0.12945 0.498,0.13923c-0.18881,0.13877 -0.933,0.75762 -0.59296,1.6796c-2.32183,3.31553 -6.01142,5.659 -9.6388,3.16021c-5.81249,-4.00403 -8.55707,-12.29059 -11.035,-18.53972c-0.95522,-7.73815 2.55926,-12.14452 9.02988,-15.54761c1.22949,-0.64661 2.45838,-1.60811 3.84746,-1.62362c3.43364,-0.03832 5.80692,3.57259 9.28962,3.68401c2.0251,0.06479 4.75268,-1.5563 6.62752,-2.81726c1.81718,2.01269 4.61093,3.78188 6.00161,5.66253c3.11065,4.20658 6.70091,9.66476 9.12321,14.34467c0.93347,1.80345 0.73491,3.06526 2.37464,4.45512c0.19874,1.59874 -0.15475,3.24512 0.04653,4.84418c0.10162,0.80724 1.29429,2.75029 1.11212,3.84799c-1.06579,6.42228 -10.50155,6.50107 -14.4589,2.64029c1.09013,-0.81133 0.28457,-2.07888 0.28457,-2.07888l-0.2557,-0.38933c-0.66033,-1.0231 -1.25576,-2.15043 -1.77611,-3.21651c2.05957,1.8522 3.48767,3.23358 6.20539,3.86536c0,0 1.46201,0.32213 1.78062,-1.14364c0.31862,-1.46577 -1.07423,-1.71597 -1.07423,-1.71597c-2.07876,-0.40731 -3.21006,-1.66474 -4.74406,-3.07342c0.29042,-0.10235 0.54318,-0.25106 0.7292,-0.49743c0.00107,-0.00143 0.00216,-0.00286 0.00324,-0.0043c0.04959,-0.0318 0.09921,-0.06347 0.1498,-0.096l0.03435,-0.12213l0.04826,0.05572l1.49663,-1.29292c0.24313,-0.2058 0.42106,-0.48731 0.49395,-0.82262c0.17597,-0.80953 -0.24836,-1.56355 -1.05787,-1.73952c-0.48564,-0.10556 -0.96923,0.04058 -1.31504,0.34638l-1.30131,1.12871c-0.57839,-0.11498 -1.13622,0.39942 -1.70203,0.58693l-1.4331,0.03181c0,0 -0.82354,0.02948 -1.23278,0.64537c-0.30926,0.05195 -0.67131,0.20152 -0.91597,0.57157c-4.01532,-0.44511 -7.31338,0.68617 -11.19531,-1.86038l-0.36523,-0.23548c0,0 -1.17824,-0.8654 -1.98907,0.39656c-0.81082,1.26197 0.44678,2.06667 0.44678,2.06667z" fill="#b7b7b7"></path>
        <path d="M170.22025,161.89258c-2.90868,1.55403 -5.27874,-5.82486 -6.72133,-7.86899c-2.34583,-3.32403 -4.15894,-7.2317 -6.55169,-10.47911c-3.07232,-4.16969 -10.07977,-6.58822 -4.05545,-11.4321c0.57127,-0.45933 1.2049,-0.84588 1.80473,-1.26722c0,0 0.05872,-0.04135 0.1464,-0.1192c10.08848,4.67833 15.60342,15.3377 21.34991,24.4392c-0.48744,0.74493 -0.35998,1.43863 -0.1219,1.9295c-1.78458,1.83244 -3.52976,3.30809 -5.85066,4.7979z" fill="#b7b7b7"></path>
        <path d="M135.68514,154.31107c-1.44929,0.38671 -1.83599,-1.06258 -1.83599,-1.06258l-0.26993,-1.01736c-0.79569,-2.54047 -1.92303,-4.82112 -2.7777,-7.33459c0,0 -0.48093,-1.42082 0.9399,-1.90174c1.42082,-0.48093 1.90174,0.9399 1.90174,0.9399c0.85351,2.53423 1.98658,4.83337 2.79752,7.39526l0.30707,1.14512c0,0 0.38671,1.44929 -1.06259,1.83599z" fill="#6b6b6b"></path>
        <path d="M136.00895,162.16668c-1.45352,0.37052 -1.82403,-1.083 -1.82403,-1.083l-0.02919,-0.42609c-1.79362,-2.82702 -3.24121,-6.23534 -4.32283,-9.42214c0,0 -0.48093,-1.42082 0.93989,-1.90174c1.42082,-0.48093 1.90174,0.9399 1.90174,0.9399c0.99097,2.93619 2.32234,6.18693 4.00473,8.7617l0.4127,1.30733c0,0 0.37052,1.45353 -1.08301,1.82404z" fill="#6b6b6b"></path>
        <path d="M132.71113,165.68046c0.81082,-1.26197 2.0728,-0.45115 2.0728,-0.45115l0.36409,0.23392c3.88192,2.54655 7.12351,1.39833 11.13884,1.84344c0.24467,-0.37006 0.60099,-0.51718 0.91025,-0.56914c0.40923,-0.61589 1.22583,-0.64115 1.22583,-0.64115l1.42829,-0.02785c0.56581,-0.1875 1.11825,-0.696 1.69665,-0.58103l1.29702,-1.12217c0.3458,-0.30579 0.82762,-0.4484 1.31327,-0.34283c0.80953,0.17597 1.32312,0.97487 1.14715,1.7844c-0.07289,0.33532 -0.25265,0.61986 -0.49579,0.82566l-1.50102,1.29869l-0.04825,-0.05576l-0.03465,0.12247c-0.0506,0.03252 -0.10065,0.0647 -0.15024,0.09649c-0.00107,0.00143 -0.00217,0.00287 -0.00324,0.00431c-0.18602,0.24636 -0.44112,0.39744 -0.73153,0.49981c1.53399,1.40867 2.59398,2.59611 4.67274,3.0034c0,0 1.46577,0.31862 1.14715,1.78439c-0.31862,1.46577 -1.7844,1.14714 -1.7844,1.14714c-2.71772,-0.63179 -4.15275,-2.00824 -6.21233,-3.86044c0.52035,1.06609 1.06541,2.10704 1.72573,3.13014l0.30589,0.47581c0,0 0.75829,1.17951 -0.33185,1.99083c3.95735,3.86076 13.373,3.80009 14.43877,-2.6222c0.18216,-1.09769 -1.01317,-3.03596 -1.11478,-3.8432c-0.20128,-1.59905 0.14883,-3.23639 -0.0499,-4.83512c-1.63972,-1.38986 -1.44273,-2.64225 -2.3762,-4.4457c-2.42229,-4.6799 -5.99366,-10.09539 -9.10431,-14.30197c-1.39068,-1.88064 -4.16459,-3.64035 -5.98177,-5.65303c-1.87484,1.26096 -4.58391,2.88276 -6.60901,2.81798c-3.4827,-0.11142 -5.83774,-3.72884 -9.27138,-3.69053c-1.38907,0.01549 -2.61086,0.97187 -3.84035,1.61848c-6.47063,3.40308 -9.96806,7.77644 -9.01283,15.51459c2.47793,6.24913 5.20475,14.49249 11.01725,18.49653c3.62739,2.49879 7.29914,0.14578 9.62098,-3.16975c-0.34005,-0.92198 0.40377,-1.54094 0.59258,-1.67971c-0.17516,-0.00977 -0.35103,-0.02408 -0.52773,-0.04377c-2.18281,-0.24332 -4.26135,-1.27266 -6.11845,-2.44527l-0.36409,-0.23393c0,0 -1.26198,-0.81082 -0.45114,-2.07279zM169.40972,169.21916c0.21274,1.70935 1.35404,3.34183 1.11005,5.047c-1.43946,10.05933 -14.12085,10.61035 -20.64497,5.63476c-2.5371,-1.9349 -3.7322,-4.9716 -5.40979,-7.66679c-3.18802,6.21069 -10.0526,10.97448 -16.83027,6.66478c-6.79081,-4.31805 -10.11162,-13.88631 -12.82618,-21.02725c-1.22474,-9.69022 2.8447,-16.03422 11.22209,-20.36083c1.79649,-0.92781 3.67737,-2.0554 5.6992,-2.07686c3.83444,-0.04068 6.09551,3.54851 9.43501,3.69117c1.23657,0.05283 3.59634,-1.67797 4.69226,-2.47141c-0.3242,-4.13023 3.39234,-7.11202 6.40527,-9.2472c0,0 0.57961,-0.40904 1.30604,-0.42075c0.95144,-1.03154 2.37373,-0.40348 2.37373,-0.40348c9.13166,4.11715 16.85564,14.12483 22.12206,22.45656c1.56826,2.48107 2.39831,5.10678 4.0867,7.46077l-1.84618,1.25847l0.21168,0.75437c-2.65651,2.9235 -5.04247,5.01957 -8.39324,7.13845c-1.22225,0.40989 -2.02296,0.79479 -2.73215,0.97227c-0.03875,0.86835 -0.08822,1.73736 0.01864,2.59599zM176.03208,157.06319c-0.23809,-0.49087 -0.36853,-1.18048 0.11891,-1.92541c-5.7465,-9.1015 -11.19636,-19.6892 -21.28484,-24.36754c-0.08767,0.07784 -0.14595,0.11895 -0.14595,0.11895c-0.59984,0.42132 -1.22825,0.80464 -1.79952,1.26397c-6.02431,4.84389 0.99896,7.24393 4.07128,11.41364c2.39275,3.2474 4.15915,7.0828 6.50499,10.40682c1.44259,2.04413 3.7937,9.42757 6.70238,7.87354c2.3209,-1.4898 4.04816,-2.95153 5.83273,-4.78397z" fill="#6b6b6b"></path>
      </g>
      <g stroke-width="0.5">
        <path d="M172.27783,263.54812c0.08902,-1.91853 -0.47095,-3.51881 0.12217,-5.45712c0.19694,-0.64363 0.48498,-1.2539 0.77135,-1.86508c-0.37699,-0.04295 -0.82104,-0.13096 -1.43358,-0.28224l0.00001,-0.00001c-0.72522,-0.17911 -1.47917,-0.3432 -2.11957,-0.72779c-0.24127,-0.14489 -0.14437,-0.94083 -0.3622,-0.76264c-0.23036,0.18845 0.24375,0.56106 0.24479,0.85869c0.00433,1.22686 -0.29373,2.43714 -0.37869,3.66107c-0.321,4.62428 0.37917,8.21231 1.23741,12.65661c0.40552,2.09991 0.47457,3.11564 1.93531,4.79353c1.22991,0.12719 2.35587,0.47275 3.52334,0.75401c-2.13912,-4.2417 -3.7548,-9.00634 -3.54031,-13.62906zM170.0082,280.03341l-0.61103,-0.85743c-5.56431,-5.67699 -6.23625,-12.96143 -5.41138,-20.61937c0.28842,-2.67757 -0.17644,-6.6121 3.12056,-7.81942c0.20821,-0.07625 0.42326,-0.10085 0.64239,-0.09475c0.25449,-0.19423 0.49981,-0.27328 0.49981,-0.27328l1.52501,-0.02981c0.93554,0.47956 1.86867,0.96395 2.79776,1.45593c2.03305,0.34723 1.85248,-0.51826 3.76973,-1.09193c1.74433,-0.52192 4.27714,-0.03674 6.00136,0.40286c2.88373,0.7352 5.61041,3.06563 8.53214,3.47214c0.57873,0.08052 1.17885,-0.21321 1.75048,-0.09221c1.47548,0.31234 1.41732,1.15256 2.85561,1.01872c4.15762,-0.38689 5.64591,-5.07402 8.92218,-7.10782c3.72406,-1.22594 6.88891,-1.77242 10.58532,-0.60365c1.29339,0.40896 2.81401,0.47242 3.83257,1.36832c1.96897,1.73186 2.88446,4.82639 2.35548,7.43231c3.29316,0.73565 6.71747,3.1924 6.97374,6.66977c0.11832,1.60568 -0.46357,3.14962 -1.19509,4.58013c2.45633,0.93146 3.98718,2.61105 4.2508,6.22247l-0.14929,1.21115c0,0 -0.1493,0.97523 -0.99665,1.22278c-0.22213,0.54569 -0.56586,1.04094 -1.05028,1.44876c-1.19564,1.00656 -2.83356,0.8697 -4.43805,0.84291c-0.18593,0.76701 -1.02268,1.03662 -1.02268,1.03662c-4.35665,1.25167 -1.06596,4.32221 -2.30312,7.2966c-0.54532,1.31111 -2.1588,2.16158 -3.28671,2.86258c-5.01744,3.11834 -11.78921,3.41973 -17.48798,2.57397c-5.57338,-0.8533 -10.70614,-1.73199 -15.88173,-3.92685c-2.12016,-0.89912 -3.03941,-2.14947 -4.51803,-3.68021c-2.095,-2.16884 -4.63588,-2.74103 -7.44804,-3.17158l-1.46405,-0.66397c0,0 -0.43599,-0.22348 -0.6819,-0.66419c-0.29642,-0.18665 -0.4689,-0.4215 -0.4689,-0.4215zM224.29121,271.48144c-0.02655,-0.02392 -0.05294,-0.048 -0.07915,-0.07226l-0.00986,0.01393l-0.19191,-0.13572c-1.26344,-0.22147 -2.91238,-0.10487 -3.99554,0.08601c-0.94317,1.03796 -1.897,2.06757 -2.83206,3.13763c-3.09516,3.44236 -1.02975,7.73083 -3.44905,11.12455c-0.24562,0.34453 -0.49883,0.6572 -0.75928,0.94092c0.12517,-0.06476 0.24768,-0.1344 0.36732,-0.20916c0.72677,-0.72021 1.68134,-1.25257 2.2139,-2.12622c1.33989,-2.19809 0.85204,-5.02666 2.40778,-7.14819c0.67383,-0.91887 2.3225,-2.29213 3.42571,-2.66209c0.7309,-0.24511 3.39281,0.27725 3.97841,-0.59864c0.39392,-0.58919 0.50849,-1.05751 0.42105,-1.42646c-0.58522,-0.32549 -1.16037,-0.62096 -1.49733,-0.92431zM209.52847,258.95159c0.13497,-0.88145 0.7137,-1.15867 1.16087,-1.23854c0.93867,-0.85155 2.00671,-1.62321 3.22083,-1.87319c0.8597,-0.17701 1.44281,0.41005 1.87042,-0.57317c1.87733,-4.31662 -5.58885,-3.84495 -7.5117,-3.2943c-3.09287,0.88572 -4.24695,5.9129 -6.82932,7.61678c0,0 -0.07732,0.04813 -0.20572,0.10161c-0.40307,0.77833 -1.01031,1.40505 -2.45748,1.61294c-1.46689,0.21074 -2.89444,-0.70585 -4.37343,-0.79916l-2.71419,-0.41428c0,0 -0.28899,-0.04424 -0.59225,-0.22125c-2.0031,0.09453 -3.56135,-0.07808 -5.38528,-1.1714c-2.38374,-1.42889 -4.67463,-4.8271 -7.38152,-3.00872l-0.07811,0.03032c-2.49276,7.36394 -0.84401,14.69943 2.30886,21.48382c0.7073,1.522 1.41087,3.18486 2.81824,4.30045c1.40416,1.11303 3.40488,1.72387 4.90227,2.79633c5.17109,1.74712 9.31092,1.95494 14.72813,2.01343c3.40344,0.03675 5.84863,0.61755 8.30854,-2.45617c0.92573,-1.15673 0.32907,-3.27248 0.53677,-4.63783c0.43003,-2.82698 1.23846,-4.54354 3.07021,-6.6834c0.7627,-0.87114 1.53408,-1.7248 2.30374,-2.57683c0.06454,-0.93238 1.05569,-1.25177 1.05569,-1.25177c0.03291,-0.01045 0.0662,-0.0208 0.09986,-0.03107c0.59694,-0.66637 1.18968,-1.33658 1.77333,-2.01817c0.70252,-0.82042 1.88138,-1.14259 2.56747,-1.9768c1.57915,-1.92006 -3.50271,-3.00112 -4.32369,-3.04372c-4.22161,-0.21903 -8.44089,3.81647 -9.94536,7.80142c0.02007,0.8067 0.02729,1.60783 -0.22683,2.349l0.03058,0.04445c0,0 0.46004,1.42771 -0.96766,1.88776c-0.51851,0.16707 -0.90939,0.08517 -1.19695,-0.08691c-0.48564,0.03995 -1.00634,-0.00586 -1.47594,0.00981c-2.40367,0.08018 -4.95113,-0.41657 -7.37028,-0.58175c0,0 -1.49645,-0.10311 -1.39334,-1.59957c0.10311,-1.49645 1.59957,-1.39334 1.59957,-1.39334c1.87013,0.12996 3.67429,0.21955 5.52353,0.30662c0.65824,0.03099 1.43154,0.6682 2.02403,0.64094l-0.02145,-0.09271c0.13153,-0.80752 0.35541,-1.62585 0.66031,-2.43667c0.00701,-0.96956 -0.00791,-1.912 0.04291,-2.1162c0.59952,-2.4095 1.73365,-5.04335 3.36333,-7.17473c0.15254,0.01969 0.30501,0.04004 0.45737,0.06109c-0.00042,-0.09529 0.00704,-0.19688 0.02363,-0.30516z" fill="#6b6b6b"></path>
        <path d="M212.94536,286.61721c0.26044,-0.28373 0.51399,-0.59617 0.7596,-0.9407c2.4193,-3.39373 0.36078,-7.76812 3.45594,-11.21049c0.93504,-1.07005 1.91833,-2.10409 2.8615,-3.14204c2.33897,-0.4122 7.35,-0.45668 5.38645,2.48014c-0.58561,0.87589 -3.31606,0.42358 -4.04696,0.66869c-1.10321,0.36995 -2.6909,1.7381 -3.36472,2.65697c-1.55574,2.12151 -1.0772,4.86965 -2.41707,7.06774c-0.53256,0.87368 -1.53991,1.49083 -2.26669,2.21105c-0.11965,0.07476 -0.24288,0.14387 -0.36806,0.20865z" fill="#b7b7b7"></path>
        <path d="M175.00046,256.0971c-1.98603,7.29507 -0.57572,14.6905 2.43046,21.48102l-0.14931,-0.06272c-1.72029,-0.25696 -3.26385,-0.8638 -4.99132,-1.04244c-1.46075,-1.6779 -1.54811,-2.69892 -1.95363,-4.79882c-0.85825,-4.4443 -1.56082,-8.12 -1.23982,-12.74429c0.08496,-1.22393 0.39176,-2.43825 0.38743,-3.66511c-0.00105,-0.29763 -0.47496,-0.67029 -0.2446,-0.85876c0.21783,-0.17819 0.12133,0.61761 0.3626,0.7625c0.6404,0.38458 1.40288,0.54663 2.12809,0.72573c1.64493,0.40624 2.09089,0.35641 3.27005,0.20288z" fill="#b7b7b7"></path>
        <path d="M209.68734,259.32313c-0.22465,-0.03204 -0.38155,-0.13582 -0.60665,-0.16486c-1.62968,2.13136 -2.75085,4.78339 -3.35037,7.19288c-0.05081,0.20419 -0.03207,1.16722 -0.03907,2.13676c-0.30491,0.81084 -0.53647,1.65448 -0.668,2.46199l0.02107,0.0933c-0.59249,0.02724 -1.37196,-0.60226 -2.03018,-0.63327c-1.84925,-0.08708 -3.73402,-0.18943 -5.60413,-0.31938c0,0 -1.40902,-0.15142 -1.51213,1.34504c-0.10311,1.49645 1.38146,1.58627 1.38146,1.58627c2.41916,0.16517 4.90715,0.66042 7.31082,0.58024c0.46957,-0.01567 0.98396,0.03542 1.46961,-0.00453c0.28755,0.17208 0.6752,0.25749 1.19371,0.09041c1.42771,-0.46004 0.96074,-1.87696 0.96074,-1.87696l-0.03065,-0.04429c0.25412,-0.74117 0.2427,-1.52817 0.22263,-2.33486c1.50447,-3.98495 5.81991,-8.03131 10.04152,-7.81228c0.82098,0.0426 5.90547,1.1333 4.32632,3.05337c-0.68609,0.83421 -1.86445,1.16027 -2.56697,1.98069c-0.58365,0.68159 -1.17621,1.35712 -1.77315,2.02349c-0.03366,0.01025 -0.06694,0.0207 -0.09985,0.03115c0,0 -0.99138,0.32325 -1.05592,1.25564c-0.76968,0.85202 -1.54289,1.71509 -2.30559,2.58623c-1.83177,2.13987 -2.6526,3.87734 -3.08265,6.70433c-0.2077,1.36534 0.38136,3.48738 -0.54438,4.64412c-2.4599,3.07373 -4.92717,2.50107 -8.33062,2.46432c-5.4172,-0.05849 -9.59389,-0.27679 -14.76498,-2.02391c-1.49739,-1.07247 -3.50707,-1.69249 -4.91123,-2.80553c-1.40737,-1.11559 -2.11678,-2.78853 -2.82409,-4.31052c-3.15287,-6.78439 -4.79943,-14.16417 -2.30667,-21.52811l0.07816,-0.03043c2.7069,-1.81837 4.99921,1.57748 7.38294,3.00637c1.82391,1.09332 3.38654,1.26005 5.38964,1.16551c0.30326,0.17701 0.59286,0.2206 0.59286,0.2206l2.71951,0.40915c1.479,0.09331 2.92396,1.00054 4.39084,0.7898c1.44718,-0.2079 2.07076,-0.83671 2.47384,-1.61504c0.12841,-0.05348 0.20687,-0.10155 0.20687,-0.10155c2.58238,-1.70387 3.75391,-6.72676 6.84679,-7.61247c1.92286,-0.55066 9.40606,-1.00975 7.52874,3.30686c-0.42761,0.98323 -1.08427,0.46388 -1.94396,0.6409c-1.45921,0.30045 -2.70508,1.35671 -3.77127,2.39729c-0.13814,0.3508 -0.27743,0.7005 -0.41557,1.05129z" fill="#b7b7b7"></path>
      </g>
    </g>
  </g>
</svg>
