<?xml version="1.0" encoding="UTF-8"?>
<svg xmlns="http://www.w3.org/2000/svg" xmlns:xlink="http://www.w3.org/1999/xlink" version="1.1" width="99.85128" height="137.4235" viewBox="0,0,99.85128,137.4235">
  <defs>
    <linearGradient x1="239.58163" y1="138.50634" x2="239.58163" y2="223.31425" gradientUnits="userSpaceOnUse" id="color-1">
      <stop offset="0" stop-color="#e0e0e0"></stop>
      <stop offset="1" stop-color="#c7c7c7"></stop>
    </linearGradient>
  </defs>
  <g transform="translate(-190.07436,-94.45492)">
    <g stroke="none" stroke-miterlimit="10">
      <path d="M238.86282,225.19305c-1.93198,0.37798 -3.76605,1.47104 -5.81487,1.06839c-2.36777,-0.46533 -4.48899,-2.42137 -6.65536,-3.27822c-3.75528,-1.48531 -7.34253,-3.06714 -10.87242,-5.17858c-2.54812,-1.90638 -5.4069,-3.77391 -7.65307,-6.02008c-4.86238,-4.86238 -6.91861,-12.03823 -10.36925,-17.66176c-1.21582,-3.05669 -0.86775,-5.81258 -1.19078,-8.96563c-0.62199,-6.07119 -0.3768,-10.92701 0.8182,-16.90167c0,0 0.00095,-0.00476 0.00304,-0.01364c-0.05002,-0.28473 -0.00304,-0.51967 -0.00304,-0.51967c1.71884,-8.59437 7.07251,-16.03582 14.07572,-21.28819c1.62684,-1.22012 3.20705,-1.78994 4.93758,-2.75637c3.34989,-1.87078 6.69191,-4.48785 10.35046,-5.69615c2.0289,-0.67008 4.58583,-0.44373 6.70577,-1.07899c1.81401,-0.54359 3.65541,-1.09065 5.56635,-1.11241c5.22507,-1.045 10.14371,-0.04183 14.90412,2.13248l0.3538,-0.08996c0.01809,-0.03563 0.03806,-0.07176 0.06004,-0.1084c0.64312,-1.07187 1.71499,-0.42874 1.71499,-0.42874c0.07524,0.04521 0.15079,0.08997 0.22663,0.13432c0.19952,0.05562 0.37893,0.1595 0.52484,0.29826c2.58715,1.43034 5.44871,2.46459 7.86964,4.15857c4.48573,3.13877 8.72968,8.2297 11.54096,12.90426c2.17881,3.64049 4.48762,7.0884 5.72631,11.22028c1.6721,5.57757 1.66989,12.56402 1.64574,18.34603c-1.51375,7.7337 -2.4292,15.52262 -7.15096,22.19043c-1.46852,2.07378 -3.73071,3.76125 -5.54063,5.56405c-1.94952,1.46516 -3.70501,3.28215 -5.72151,4.62632c-2.17665,1.45093 -4.74263,2.15181 -6.97365,3.49268c-4.45815,2.67939 -9.8479,5.63245 -15.32383,4.45334c-1.27114,0.27371 -2.48146,0.24786 -3.75483,0.50904zM199.57672,168.74583c-1.15114,5.75533 -1.35364,10.31598 -0.78181,16.16501c0.2752,2.81497 -0.15236,5.38511 0.94256,8.10106c3.1823,5.40879 5.27598,12.38349 9.8974,17.0049c2.12942,2.12942 4.86611,3.89766 7.28028,5.71323c3.39922,2.04732 6.85559,3.49859 10.46092,4.95477c1.99175,0.80446 3.98866,2.67797 6.14464,3.12176c1.43426,0.29523 3.07404,-0.59569 4.48433,-0.97709l-0.0046,-0.01268c0,0 0.50267,-0.50267 1.12894,-0.37078c0.17427,-0.01178 0.37246,0.00748 0.56513,0.09701c0.97131,-0.11222 1.93078,-0.17318 2.92314,-0.35901c5.1651,0.96722 9.78735,-1.55026 14.0095,-4.07997c2.20432,-1.32073 4.75063,-2.01221 6.89301,-3.44067c1.92993,-1.2868 3.60616,-3.0398 5.47848,-4.44034c1.64638,-1.65369 3.81117,-3.19741 5.12605,-5.10262c4.42928,-6.41786 5.20419,-13.64059 6.7157,-21.00956c-0.02756,-5.48194 0.0335,-12.09901 -1.55426,-17.38733c-1.17987,-3.92976 -3.39454,-7.18922 -5.47368,-10.64639c-2.63156,-4.39698 -6.65211,-9.21619 -10.85902,-12.16241c-2.2849,-1.60018 -4.99805,-2.59464 -7.4667,-3.92129c-0.19481,0.10047 -0.35727,0.13297 -0.35727,0.13297l-1.69276,0.2857c-4.90059,-1.79772 -9.11742,-3.19652 -14.42921,-2.13417c-2.23609,-0.03018 -4.34662,0.8713 -6.54469,1.31514c-1.55864,0.31473 -3.76481,0.28075 -5.1832,0.76013c-3.49384,1.18084 -6.68392,3.71587 -9.91622,5.50386c-1.67503,0.92656 -3.10178,1.40651 -4.6624,2.57697c-6.5206,4.89042 -11.52444,11.77925 -13.12426,19.77847c0,0 -0.00095,0.00477 -0.00304,0.01365c0.05003,0.28475 0.00304,0.5197 0.00304,0.5197z" fill="#000000" stroke-width="0.5"></path>
      <path d="M265.06903,116.25968l-0.01344,0.00614c0.18893,0.07346 0.39423,0.16042 0.60375,0.25148c0.04709,-0.23195 0.15841,-0.44057 0.31458,-0.6065c-1.71229,-2.83048 -0.71974,-7.14148 -1.32217,-10.42605c-4.33421,-7.00493 -13.89616,-7.12622 -21.21257,-8.55835c0,0 -0.00506,-0.00101 -0.01446,-0.00323c-0.20958,0.16263 -0.41179,0.23003 -0.41179,0.23003l-0.98979,0.3138c-5.66564,0.94426 -11.18939,0.43131 -16.57554,2.60741c-3.20565,1.06483 -7.33531,1.96882 -8.88883,5.46981c-0.47687,1.07466 -0.31589,2.49057 -0.43054,3.61296c-0.23561,2.30656 -0.99817,5.63117 -2.13115,8.1066c0.05388,-0.02667 0.10779,-0.05322 0.16174,-0.07965c0.05705,-0.38222 0.28274,-0.66432 0.28274,-0.66432c2.2167,-2.63264 1.16704,-6.68332 2.81973,-9.6982c2.95432,-5.38934 9.85589,-5.78168 15.22303,-6.77093c4.49302,0.84137 9.57483,-0.28844 14.13334,-0.26667c5.30383,0.02533 10.77582,2.50267 14.88332,5.58333c3.12101,2.38157 3.59976,5.39835 3.07869,8.89099c0.15018,0.13857 0.27456,0.33344 0.32738,0.60751c0.56606,0.58567 0.16198,1.39384 0.16198,1.39384zM272.5634,119.41096c5.2606,2.07503 13.24084,5.26116 15.48683,11.03896c0.35462,0.91227 0.15824,1.95443 0.33462,2.91718c0.57485,3.13772 0.64251,5.17643 -1.19425,7.98217l-0.38983,0.98932c0.00015,0.00951 0.00022,0.01909 0.00022,0.02875c0,1.25 -1.25,1.25 -1.25,1.25l-0.7309,-0.0894c-3.75054,-1.52965 -7.4979,-4.31029 -11.45318,-5.06136c-1.49288,-0.87481 -3.00101,-1.7369 -4.5197,-2.58535c-0.10222,0.30066 -0.20444,0.60131 -0.30666,0.90197l-1.14948,1.74418c0,0 -0.03304,0.04956 -0.09552,0.11983c4.11323,2.27835 7.71972,4.25997 10.60601,8.16957c2.17217,1.62915 2.97566,3.90798 3.99057,6.24034c3.22345,7.40783 7.83612,13.44701 7.83612,21.98704c0.47672,2.38366 -0.02985,4.54653 -0.26666,6.91302c-0.38252,3.82258 -0.25591,7.6865 -1.37907,11.433c-0.97841,3.26366 -2.47072,6.46187 -3.73097,9.60813c0.16624,0.49721 -0.08252,0.99471 -0.08252,0.99471v0.00001l-0.31283,0.61744c-3.47712,5.75922 -6.58177,10.09814 -11.81176,14.22075c0.58108,2.96992 1.23633,6.37404 1.31547,9.42676c0.20065,0.26178 0.60737,0.96085 -0.0917,1.65991c-0.24518,0.24518 -0.49036,0.35434 -0.71668,0.38407c-0.09627,0.59465 -0.61205,1.04871 -1.23388,1.04871c-0.37365,0 -0.70901,-0.16394 -0.93807,-0.42382c-0.55969,0.35582 -1.22094,0.02519 -1.22094,0.02519l-0.97431,-0.63469c-1.60908,-2.14542 -3.02037,-4.04626 -4.09497,-6.43645c-0.2328,0.12348 -0.46391,0.24857 -0.69263,0.37615c-5.58668,3.11621 -10.36744,6.30154 -16.87746,6.54535c-0.34667,0.54827 -1.06828,0.54827 -1.06828,0.54827l-0.32783,-0.017c-1.00759,0.16782 -2.01325,0.34798 -3.01568,0.54425c-4.99249,0.02085 -9.32763,-0.60443 -13.90725,-2.478c-2.5638,-1.04888 -5.67978,-0.86236 -8.16166,-2.20954c-1.65797,-0.89996 -3.15772,-2.13591 -4.84268,-2.99726c0.00037,0.00146 0.00074,0.00292 0.0011,0.00438c0.30317,1.21268 -0.90951,1.51585 -0.90951,1.51585l-0.48593,-0.06213c-2.0409,2.0409 -4.42417,5.54644 -7.57209,5.67518c-0.84745,0.03465 -2.00957,0.50256 -2.53948,-0.1597c-0.55553,-0.69428 0.53082,-3.09053 0.86707,-3.93027c1.1149,-2.78427 2.20556,-5.39314 2.81903,-8.33888c-2.1181,-1.74753 -4.11446,-3.6474 -5.80274,-5.57787c-2.28388,-2.6115 -3.31694,-5.83953 -5.38903,-8.60236c0,0 -0.51255,-0.68341 -0.12525,-1.34402l-0.54923,-0.76242c-0.50607,-2.53035 -2.02689,-5.42544 -2.9581,-7.79281c-1.57433,-4.00235 -1.65554,-8.65894 -2.478,-12.8609c-0.02549,-6.10199 -0.77734,-12.95584 2.28754,-18.60225c1.79695,-3.31052 4.24192,-6.17875 6.18573,-9.41841c1.3922,-1.86091 2.24245,-4.12737 3.88675,-5.78641c1.50073,-1.51419 3.66402,-2.71604 4.9653,-4.41872c2.04237,-2.67238 4.06628,-4.97615 6.79989,-6.5768l-0.48648,-0.81079c0,0 -0.09381,-0.15635 -0.15006,-0.38545c-3.5545,1.64976 -7.20908,3.09237 -10.74234,4.85528c-1.81513,0.90565 -3.80242,1.31776 -5.41908,2.55372c0,0 -1,0.74999 -1.75,-0.25001c-0.0062,-0.00826 -0.01228,-0.01651 -0.01824,-0.02474c-0.66412,-0.0988 -0.94234,-0.79434 -0.94234,-0.79434c-2.04808,-5.12007 -2.95498,-11.46892 1.67493,-15.54189c2.724,-2.39633 5.81366,-3.18556 8.79687,-4.97549c1.67921,-0.66205 3.56588,-1.73298 5.55639,-2.83188c-0.37377,-0.65674 0.1324,-1.33165 0.1324,-1.33165c2.82527,-3.54576 1.57501,-9.15901 3.32553,-13.09355c1.86587,-4.19381 6.4125,-5.49212 10.3112,-6.79685c5.58826,-2.21522 11.19105,-1.75371 17.02444,-2.72593l0.61023,-0.21953c0,0 0.28885,-0.09628 0.62895,-0.05125c0.44708,-0.38151 1.07815,-0.25529 1.07815,-0.25529c8.35163,1.71314 18.25983,1.92663 23.05408,10.10832c0.54263,2.55776 -0.40553,8.27724 1.16744,10.10075l0.41721,0.39943c0,0 0.88389,0.88388 0.00002,1.76777c-0.17051,0.17051 -0.34101,0.27523 -0.50518,0.33321c-0.02467,0.06972 -0.05535,0.13659 -0.09142,0.2c1.64761,0.48355 3.14675,0.94278 4.59177,2.02653zM261.61765,114.68401c0.13649,-0.18199 0.28127,-0.30602 0.42679,-0.38716c0.48814,-2.71738 0.46876,-5.08764 -2.04347,-6.92951c-3.65974,-2.74484 -8.63701,-5.11281 -13.38332,-5.08333c-4.45496,0.02767 -9.76364,1.20758 -14.13334,0.26667c-3.59053,0.79977 -8.87297,0.80364 -11.64944,3.63389c-2.55901,2.60856 -2.13682,6.34871 -3.21785,9.54663c3.58675,-1.2004 7.14415,-1.25475 10.15118,1.75226c1.28169,1.28168 2.17853,3.47306 3.12132,5.04077l0.50154,0.74974c0,0 0.4855,0.72824 0.03463,1.37222c0.04158,0.07664 0.07899,0.16269 0.11117,0.25922c0.39527,1.18586 -0.79058,1.58113 -0.79058,1.58113l-0.73104,0.2414c-2.53504,1.00524 -5.26685,2.46608 -7.44757,4.10607c-1.04281,0.78212 -2.11647,1.49406 -3.21339,2.15385c0.19544,0.32591 0.39088,0.6518 0.58632,0.97771l0.27519,0.41262c4.57363,-2.36719 9.30983,-3.98768 14.56544,-4.45662c0.54544,-0.04867 1.08727,-0.05844 1.62669,-0.04259c1.15401,-1.65348 1.62346,-2.95404 2.05071,-5.09014l-0.15898,0.27087c0,0 -0.14728,-0.29453 -0.13947,-0.65685c-1.41157,-1.23838 -1.83307,-3.56253 -0.6,-5.36866c1.63584,-2.39608 4.05441,-1.0812 6.24735,-0.84411c2.21744,0.23973 4.98082,-1.24249 5.89585,2.03406c0.17815,0.6379 -0.19168,1.31069 -0.28752,1.96603l-0.21236,0.53613c3.65683,-2.81499 7.54133,-6.37667 12.2481,-6.81239c-0.14888,-0.31103 -0.20096,-0.74054 0.16607,-1.22991zM220.64437,137.27406c-0.35553,0.23702 -0.67055,0.27149 -0.93121,0.21419c-0.50718,0.28547 -1.01332,0.58043 -1.51906,0.8843c0,0 -0.52244,0.31347 -1.05669,0.13797c-3.37452,1.34622 -5.4096,3.89896 -7.66786,6.75943c-1.4067,1.78183 -3.57004,3.06616 -5.16804,4.64794c-1.51837,1.50296 -2.2916,3.70052 -3.57989,5.41361c-1.90856,3.18089 -4.24881,6.04158 -6.08095,9.24826c-2.88899,5.0564 -1.95155,11.64758 -1.97912,17.13109c0.81045,3.95116 0.79389,8.4532 2.32198,12.20575c0.93288,2.29089 2.41996,5.23083 2.90856,7.67387l0.65888,0.82688c0,0 0.51305,0.68407 0.1247,1.34498c1.78382,2.59065 2.80386,5.54085 4.88629,7.91935c3.25555,3.71842 7.72416,7.32485 11.8778,9.83252c2.12699,0.86202 3.94571,2.36668 5.92361,3.49678c2.28736,1.30691 5.40871,1.10424 7.83834,2.05714c4.26618,1.67318 8.11001,2.2986 12.75942,2.32197c0.92283,-0.18909 1.85044,-0.35498 2.77953,-0.51046c0.34313,-0.56227 1.07698,-0.56227 1.07698,-0.56227l0.00001,-0.00001c6.45718,0 11.02313,-3.2336 16.45427,-6.23971c2.42991,-1.34494 5.31883,-2.38105 7.26007,-4.38796c5.51756,-4.15726 8.64398,-8.30606 12.10993,-14.0805c0.0089,-0.12838 0.02972,-0.21167 0.02972,-0.21167l0.31875,-1.22776c1.24601,-3.10843 2.72691,-6.26503 3.69575,-9.49193c1.0774,-3.58847 0.92157,-7.30416 1.2876,-10.96698c0.2209,-2.21053 0.71014,-4.20293 0.26666,-6.42033c0,-8.2278 -4.40901,-14.092 -7.63056,-21.21295c-0.93747,-2.0722 -1.51989,-4.02585 -3.47607,-5.493c-3.78304,-4.97496 -8.99408,-7.10077 -14.17329,-10.22056c-1.9522,-1.17595 -3.42567,-2.29174 -5.3728,-3.02022c-0.06431,0.0069 -0.10337,0.0069 -0.10337,0.0069l-0.02152,-0.02427c-0.44444,0.08889 -0.88889,0.17777 -1.33334,0.26666c0,0 -1.22573,0.24514 -1.47087,-0.98058c-0.04551,-0.22754 -0.04033,-0.42129 -0.00171,-0.58596c-0.33148,-0.05962 -0.58653,-0.25529 -0.68214,-0.33794c-3.34136,-0.41374 -6.43053,-0.7379 -9.82376,-0.7379c-1.955,-0.00816 -3.8918,-0.41124 -5.84172,-0.54551c-0.19776,0.05641 -0.42909,0.06353 -0.68377,-0.03499c-0.54449,-0.0174 -1.09029,-0.0079 -1.63807,0.04289c-5.01875,0.46533 -9.49662,2.0179 -13.85175,4.30157c-0.08166,0.19369 -0.23303,0.38724 -0.49129,0.55941zM217.82806,135.30245c-0.21684,-0.36121 -0.43367,-0.72242 -0.65051,-1.08363c-0.44146,0.2354 -0.88575,0.46457 -1.3324,0.68861c0.07299,0.08671 0.11103,0.15011 0.11103,0.15011l0.6045,1.00748c0.19484,-0.07535 0.39312,-0.14768 0.59501,-0.2169c0,0 0.21986,-0.07329 0.50181,-0.06208c0.11855,-0.06898 0.23717,-0.1375 0.35585,-0.20555zM201.78193,138.58772c6.47291,-3.24364 13.39971,-5.33918 19.28572,-9.75371c2.35813,-1.76421 5.28697,-3.32616 8.01909,-4.42726l0.04527,-0.0152l-0.38623,-0.58109c-0.82239,-1.37413 -1.6345,-3.4484 -2.74534,-4.55922c-2.45576,-2.45574 -5.35007,-1.57662 -8.09327,-0.75236c-4.09009,1.22895 -7.58924,3.92291 -11.53407,5.52163c-1.35477,0.81286 -2.67794,1.01972 -4.04524,1.62132c-4.4456,1.95601 -7.22159,5.85403 -6.73295,10.73569c0.15633,1.56174 0.70842,2.98148 1.28413,4.41367c1.55793,-0.90947 3.24778,-1.37406 4.90288,-2.20344zM265.31093,137.14063l0.98383,-1.45582c0.11157,-0.34299 0.22314,-0.68599 0.3347,-1.02898c-0.0958,-0.05236 -0.19164,-0.10466 -0.28751,-0.15691c-0.01096,0.01853 -0.01756,0.02844 -0.01756,0.02844c-0.3621,0.54287 -0.7242,1.08573 -1.08631,1.6286l-0.64271,0.85756c0.19606,0.12626 0.39301,0.25218 0.59116,0.37738c0.06007,-0.1538 0.1244,-0.25028 0.1244,-0.25028zM263.19723,134.71204c0.31191,-0.46812 0.62382,-0.93624 0.93573,-1.40436c-2.2025,-1.17538 -4.41673,-2.32067 -6.62878,-3.43311c-2.68802,-1.35181 -5.44895,-2.29402 -7.90319,-4.10723c0,0 -0.13003,-0.09753 -0.26116,-0.26914c-0.32586,0.03241 -0.71627,-0.06187 -1.05552,-0.5142c-0.11951,-0.15935 -0.19458,-0.31234 -0.23635,-0.45696c-0.05398,0.02739 -0.11252,0.05241 -0.176,0.07462c0.00953,0.1229 0.0017,0.25938 -0.02859,0.41083c-0.24515,1.22573 -1.47088,0.98058 -1.47088,0.98058c-0.54369,-0.10874 -1.08915,-0.18739 -1.63506,-0.25029c-0.33677,1.15446 -0.21206,1.91152 0.37414,3.36031l0.52329,0.38037c0,0 0.45569,0.4557 0.38548,1.03988c2.56713,0.12727 5.05465,0.40842 7.68569,0.73696l0.99553,0.62315c0,0 0.17271,0.17272 0.28909,0.44179c0.08596,0.00577 0.13882,0.01635 0.13882,0.01635c2.82035,0.56899 5.10904,1.87003 7.36289,3.30954zM258.66445,127.66012c5.23832,2.60592 10.61874,5.39004 15.60395,8.47466c3.63844,0.76131 7.01461,3.11196 10.46767,4.64811l0.24196,-0.59748c1.61903,-2.37968 1.41782,-3.76574 0.9391,-6.41784c-0.19392,-1.07426 0.20824,-1.43965 -0.19871,-2.41615c-2.14682,-5.15147 -9.6626,-7.85639 -14.37983,-9.76105c-1.52839,-1.14629 -3.02179,-1.48492 -4.81045,-2.02485c-0.87757,-0.2649 -1.64826,-0.85627 -2.54686,-1.0374c-4.85402,-0.97837 -8.90868,2.64602 -12.47016,5.54075c2.21877,1.56937 4.73138,2.38638 7.15334,3.59124zM245.63719,121.21604c0.09883,-0.27311 0.19766,-0.54622 0.29649,-0.81933c-0.80892,0.05648 -1.82962,0.33217 -2.37252,0.28122c-1.05982,-0.09948 -2.39789,-0.78918 -3.48155,-0.5914c-0.60234,0.10994 -0.80643,2.5019 -0.57806,2.73027c0.44977,0.44978 1.27303,-0.15666 1.90595,-0.09337c0.451,0.0451 0.88234,0.22156 1.33333,0.26666c0.23841,0.02384 0.47363,0.04732 0.70672,0.07123c0.24491,-0.11432 0.56422,-0.14929 0.96769,0.0121c0.09169,0.03668 0.17323,0.07769 0.24566,0.12214c0.48766,0.05945 0.97412,0.12723 1.46962,0.21108zM242.7904,130.03158c-0.69948,-1.76592 -0.88461,-3.02203 -0.55541,-4.51807c-0.44932,-0.03983 -0.89755,-0.08387 -1.34392,-0.14017c-0.38153,1.87774 -0.85257,3.30183 -1.68163,4.7513c1.31017,0.15883 2.6182,0.33266 3.94155,0.32601c0.00313,0 0.00625,0 0.00937,0zM270.96766,228.76734c0.0129,-2.56581 -0.48881,-5.51022 -1.0125,-8.15537c-1.09407,0.82064 -2.30838,1.48725 -3.53959,2.1232c1.00287,2.28038 2.3396,4.04333 3.86875,6.08218l0.09234,-0.10137c0,0 0.20779,0.10389 0.39942,0.31168c0.08366,-0.05013 0.17367,-0.09076 0.26854,-0.12037zM207.4913,226.87941c-0.05855,0.12873 -0.25653,0.89278 -0.53702,1.59592c0.47277,-0.18631 0.9158,-0.33664 1.02744,-0.42658c1.49135,-1.20155 2.79638,-2.80961 4.15206,-4.16529l1.51044,-0.54596c-1.32466,-0.82044 -2.66928,-1.73938 -3.99218,-2.7296c-0.52472,2.15987 -1.23354,4.23272 -2.16074,6.27151z" fill="#000000" stroke-width="0.5"></path>
      <path d="M258.61531,127.65091c-2.42196,-1.20486 -4.93309,-2.02777 -7.15186,-3.59714c3.56148,-2.89473 7.64352,-6.54972 12.49754,-5.57135c0.8986,0.18113 1.67812,0.76953 2.55569,1.03443c1.78866,0.53993 3.30821,0.87943 4.8366,2.02572c4.71723,1.90466 12.26805,4.66262 14.41487,9.81409c0.40695,0.9765 0.00362,1.34859 0.19754,2.42285c0.47872,2.6521 0.67312,4.05373 -0.94591,6.43341l-0.24288,0.59882c-3.45306,-1.53615 -6.83834,-3.87701 -10.47678,-4.63832c-4.98521,-3.08462 -10.44649,-5.9166 -15.68481,-8.52252z" fill="#491d1d" stroke-width="0.5"></path>
      <path d="M201.74453,138.62095c-1.6551,0.82938 -3.34758,1.29074 -4.90551,2.20021c-0.57571,-1.43219 -1.13375,-2.86224 -1.29008,-4.42398c-0.48864,-4.88166 2.28624,-8.81617 6.73184,-10.77218c1.3673,-0.6016 2.69986,-0.82449 4.05463,-1.63735c3.94483,-1.59872 7.50473,-4.30419 11.59482,-5.53314c2.7432,-0.82426 5.65485,-1.68848 8.11061,0.76726c1.11084,1.11082 1.93004,3.19891 2.75243,4.57304l0.3868,0.58293l-0.04527,0.01521c-2.73212,1.1011 -5.65907,2.67466 -8.0172,4.43887c-5.88601,4.41453 -12.90015,6.54546 -19.37306,9.7891z" fill="#491d1d" stroke-width="0.5"></path>
      <path d="M265.2987,137.1891c0,0 -0.06623,0.09596 -0.1263,0.24976c-0.19815,-0.1252 -0.41544,-0.26286 -0.6115,-0.38912l0.63363,-0.86922c0.36211,-0.54287 0.79021,-1.15497 1.15231,-1.69784c0,0 0.00668,-0.00987 0.01764,-0.0284c0.09587,0.05225 0.20016,0.10994 0.29596,0.1623c-0.11156,0.34299 -0.20738,0.70743 -0.31895,1.05042l-1.04278,1.52211z" fill="#565656" stroke-width="0.5"></path>
      <path d="M246.17525,123.42898c-0.4955,-0.08385 -0.98719,-0.14332 -1.47485,-0.20277c-0.07243,-0.04445 -0.15476,-0.08446 -0.24645,-0.12114c-0.40347,-0.16139 -0.73884,-0.11349 -0.98375,0.00083c-0.23309,-0.02391 -0.49214,-0.04198 -0.73055,-0.06582c-0.45099,-0.0451 -0.92154,-0.24207 -1.37254,-0.28717c-0.63292,-0.06329 -1.46323,0.52947 -1.913,0.07969c-0.22837,-0.22837 -0.01952,-2.66217 0.58282,-2.77211c1.08366,-0.19778 2.49447,0.47801 3.55429,0.57749c0.5429,0.05095 1.57962,-0.20419 2.38854,-0.26067c-0.09883,0.27311 -0.19452,0.55682 -0.29335,0.82993z" fill="#565656" stroke-width="0.5"></path>
      <path d="M243.12965,130.41119c-0.00312,0 0.05508,0.07899 0.05195,0.07899c-1.32335,0.00665 -2.6953,-0.16941 -4.00547,-0.32824c0.82906,-1.44947 1.32765,-2.96053 1.70918,-4.83827c0.44637,0.0563 0.9204,0.10421 1.36972,0.14404c-0.3292,1.49604 -0.13393,2.83781 0.56555,4.60373z" fill="#565656" stroke-width="0.5"></path>
      <path d="M264.85931,114.85095c-0.05282,-0.27407 -0.17747,-0.46804 -0.32765,-0.60661c0.52107,-3.49264 0.04048,-6.49144 -3.08053,-8.87301c-4.1075,-3.08066 -9.56325,-5.52497 -14.86708,-5.5503c-4.55851,-0.02177 -9.57027,1.10523 -14.06329,0.26386c-5.36714,0.98925 -12.25517,1.34796 -15.20949,6.7373c-1.65269,3.01488 -0.60612,7.04765 -2.82282,9.68029c0,0 -0.22603,0.28121 -0.28308,0.66343c-0.05395,0.02643 -0.20099,0.0894 -0.25487,0.11607c1.13298,-2.47543 1.89229,-5.81395 2.1279,-8.12051c0.11465,-1.12239 -0.04641,-2.54591 0.43046,-3.62057c1.55352,-3.50099 5.68804,-4.42342 8.89369,-5.48825c5.38615,-2.1761 10.96528,-1.69033 16.63092,-2.63459l0.994,-0.31271c0,0 0.20366,-0.06693 0.41324,-0.22956c0.0094,0.00222 0.01452,0.00325 0.01452,0.00325c7.31641,1.43213 16.91217,1.59751 21.24638,8.60244c0.60243,3.28457 -0.39266,7.61489 1.31963,10.44537c-0.15617,0.16593 -0.2679,0.37571 -0.31499,0.60766c-0.20952,-0.09106 -0.50871,-0.21243 -0.69764,-0.28589l0.01343,-0.00612c0,0 0.40331,-0.8059 -0.16275,-1.39157z" fill="#565656" stroke-width="0.5"></path>
      <path d="M218.0597,135.59924c-0.11868,0.06805 -0.2462,0.15094 -0.36475,0.21992c-0.28195,-0.01121 -0.524,0.07657 -0.524,0.07657c-0.20189,0.06922 -0.43398,0.14037 -0.62882,0.21572l-0.63577,-1.05823c0,0 -0.0371,-0.06965 -0.11009,-0.15636c0.44665,-0.22404 0.9528,-0.49092 1.39426,-0.72632c0.21684,0.36121 0.4699,0.77949 0.68674,1.1407z" fill="#565656" stroke-width="0.5"></path>
      <path d="M271.06925,228.9508c-0.09487,0.02961 -0.18765,0.0717 -0.27131,0.12183c-0.19163,-0.20779 -0.40182,-0.31059 -0.40182,-0.31059l-0.09369,0.10192c-1.52915,-2.03885 -2.92115,-3.88186 -3.92402,-6.16224c1.23121,-0.63595 2.49665,-1.3171 3.59072,-2.13774c0.52369,2.64515 1.03608,5.68106 1.02318,8.24687z" fill="#565656" stroke-width="0.5"></path>
      <path d="M209.64392,220.55856c1.3229,0.99022 2.72268,1.94156 4.04734,2.762l-1.51042,0.54601c-1.35568,1.35568 -2.73534,3.02234 -4.22669,4.22389c-0.11164,0.08994 -0.55949,0.23665 -1.03226,0.42296c0.28049,-0.70314 0.47243,-1.47329 0.53098,-1.60202c0.9272,-2.03879 1.66633,-4.19297 2.19105,-6.35284z" fill="#565656" stroke-width="0.5"></path>
      <path d="M221.11604,136.66866c4.35513,-2.28367 8.8475,-3.83999 13.86625,-4.30532c0.54778,-0.05079 1.09525,-0.06043 1.63974,-0.04303c0.25468,0.09852 0.48671,0.09136 0.68447,0.03495c1.94992,0.13427 3.89277,0.53738 5.84777,0.54554c3.39323,0 6.49237,0.32585 9.83373,0.73959c0.09561,0.08265 0.3514,0.27853 0.68288,0.33815c-0.03862,0.16467 -0.04364,0.35847 0.00187,0.58601c0.24514,1.22572 1.47256,0.98111 1.47256,0.98111c0.44445,-0.08889 0.89005,-0.17737 1.33449,-0.26626l0.02155,0.02428c0,0 0.03915,0.00003 0.10346,-0.00687c1.94713,0.72848 3.42643,1.84683 5.37863,3.02278c5.17921,3.11979 10.40458,5.25671 14.18762,10.23167c1.95618,1.46715 2.54273,3.4261 3.4802,5.4983c3.22155,7.12095 7.6388,13.00729 7.6388,21.23509c0.44348,2.2174 -0.04542,4.21656 -0.26632,6.42709c-0.36603,3.66282 -0.21178,7.39012 -1.28918,10.97859c-0.96884,3.2269 -2.45355,6.3936 -3.69956,9.50203l-0.31936,1.22892c0,0 -0.02092,0.08348 -0.02982,0.21186c-3.46595,5.77444 -6.60496,9.93828 -12.12252,14.09554c-1.94124,2.00691 -4.83767,3.048 -7.26758,4.39294c-5.43114,3.00611 -10.01478,6.24536 -16.47196,6.24536l-0.00001,0.00001c0,0 -0.73502,0.00013 -1.07815,0.5624c-0.92909,0.15548 -1.85959,0.32157 -2.78242,0.51066c-4.64941,-0.02337 -8.50664,-0.65006 -12.77282,-2.32324c-2.42963,-0.9529 -5.55905,-0.75285 -7.84641,-2.05976c-1.9779,-1.1301 -3.80303,-2.63803 -5.93002,-3.50005c-4.15364,-2.50767 -8.63458,-6.12461 -11.89013,-9.84303c-2.08243,-2.3785 -3.10803,-5.33676 -4.89185,-7.92741c0.38835,-0.66091 -0.12533,-1.34615 -0.12533,-1.34615l-0.65938,-0.82787c-0.4886,-2.44304 -1.97884,-5.39114 -2.91172,-7.68203c-1.52809,-3.75255 -1.5135,-8.26763 -2.32395,-12.21879c0.02757,-5.48351 -0.90693,-12.09248 1.98206,-17.14888c1.83214,-3.20668 4.17753,-6.07773 6.08609,-9.25862c1.28829,-1.71309 2.06566,-3.91615 3.58403,-5.41911c1.598,-1.58178 3.76657,-2.87131 5.17327,-4.65314c2.25826,-2.86047 4.30214,-5.41925 7.67666,-6.76547c0.53425,0.1755 1.05761,-0.13846 1.05761,-0.13846c0.50574,-0.30387 1.01353,-0.59964 1.52071,-0.88511c0.26066,0.0573 0.57657,0.02242 0.9321,-0.2146c0.25826,-0.17217 0.41028,-0.366 0.49194,-0.55969z" fill="#672929" stroke-width="0.25"></path>
      <g>
        <path d="M277.28199,162.92571l-0.30926,-0.62815c-1.84289,-4.6122 -5.08091,-7.54083 -7.61003,-11.76675c-2.16348,-2.87677 -5.18532,-6.89698 -8.3751,-8.67445c-3.83827,-2.13883 -8.32926,-1.72742 -12.43275,-2.53065c0,0 -0.27527,-0.05506 -0.53882,-0.24343l-1.20586,-0.00504c-6.26131,-1.25224 -13.07923,0.01279 -19.30885,1.03589c-6.10304,2.04008 -10.05596,5.68247 -14.9987,9.63877c-1.86596,1.49357 -5.10609,3.24644 -5.71675,5.54336c0,0 -0.28984,0.86953 -1.11771,0.87124c-1.67493,2.12494 -3.51669,3.95862 -4.48579,6.60581c-1.82209,4.97717 -2.33235,11.12574 -2.33235,16.39434c0,4.73623 -0.02754,10.32034 1.78256,14.74925c1.92219,4.70316 5.34761,8.79977 7.63075,13.39358c1.86095,2.45999 3.83311,4.70951 6.32531,6.57007l0.81576,0.54354c0.63702,-0.04011 1.06228,0.52689 1.06228,0.52689c1.81747,2.47892 5.4288,3.89475 8.22995,4.9096c1.94295,0.70393 3.598,1.87342 5.4136,2.69927c2.49423,1.13453 6.37846,0.6815 8.96661,0.16388c0.53333,0 1.06666,0 1.6,0l1.21136,-0.24847c0,0 0.10543,-0.02109 0.26064,-0.01997c0.41847,-0.68892 1.29631,-0.51336 1.29631,-0.51336c3.50314,0.76663 7.15034,-1.17623 10.07578,-2.79733c4.52015,-2.50478 8.57617,-4.89951 12.26187,-8.59417c4.96645,-4.94693 10.14038,-10.94899 12.21903,-17.8723c0.82651,-2.75285 1.09766,-5.5765 1.56866,-8.4025c1.40694,-7.03856 0.73131,-13.89866 -1.29144,-20.63617c-0.66469,-0.0481 -0.99704,-0.71277 -0.99704,-0.71277zM262.21241,139.67696c3.52398,1.95375 6.85394,6.28977 9.22491,9.45889c2.37031,3.94141 5.302,6.8287 7.26336,10.88954c0.49007,0.03091 0.84989,0.39074 0.84989,0.39074l0.56862,0.75526c2.55253,7.66603 3.51681,15.5271 1.91032,23.55398c-0.48516,2.91098 -0.78012,5.82477 -1.63133,8.66415c-2.20282,7.3479 -7.59235,13.64911 -12.84762,18.92771c-3.86782,3.85755 -8.08513,6.37616 -12.80482,9.00581c-3.4703,1.93353 -7.45771,3.7841 -11.56786,3.1085c-0.2972,0.39376 -0.79941,0.49419 -0.79941,0.49419l-1.4553,0.28485c-0.53333,0 -1.06666,0 -1.6,0c-3.07335,0.61466 -7.27931,0.92172 -10.23338,-0.36945c-1.7791,-0.77761 -3.36505,-1.94511 -5.25306,-2.63407c-3.05611,-1.11522 -6.5395,-2.60201 -8.79374,-5.06849c-0.16505,-0.06208 -0.26971,-0.13185 -0.26971,-0.13185l-1.62858,-1.08631c-2.75594,-2.0748 -4.96039,-4.54647 -7.00802,-7.29659c-2.36565,-4.70511 -5.92395,-8.9406 -7.83593,-13.80641c-1.87743,-4.7779 -1.95076,-10.57059 -1.95076,-15.65074c0,-5.5513 0.56867,-11.9547 2.46766,-17.20567c1.1352,-3.13897 3.32281,-5.22921 5.24902,-7.81101c0,0 0.28087,-0.37449 0.72803,-0.49325c1.31722,-2.50406 3.92536,-4.08112 6.16937,-5.87534c5.24441,-4.19324 9.44585,-7.93763 15.93461,-10.09454c6.4807,-1.09452 13.63659,-2.40167 20.15782,-1.09745l1.21016,-0.00608c0,0 0.49,0 0.85642,0.30679c4.34691,0.87608 9.01178,0.52619 13.08932,2.78684z" fill="#000000" stroke-width="0.5"></path>
        <path d="M277.32714,162.90416c0,0 0.33288,0.66582 0.99757,0.71392c2.02275,6.73751 2.70255,13.62218 1.29561,20.66074c-0.471,2.826 -0.74417,5.6601 -1.57068,8.41295c-2.07865,6.92331 -7.26727,12.94819 -12.23372,17.89512c-3.6857,3.69466 -7.75771,6.0989 -12.27786,8.60368c-2.92544,1.6211 -6.58508,3.56676 -10.08822,2.80013c0,0 -0.87944,-0.17544 -1.29791,0.51348c-0.15521,-0.00112 -0.26095,0.01999 -0.26095,0.01999l-1.21282,0.24853c-0.53334,0 -1.06858,0.00001 -1.60191,0.00001c-2.58815,0.51762 -6.48286,0.96941 -8.97709,-0.16512c-1.8156,-0.82585 -3.47741,-1.99739 -5.42036,-2.70132c-2.80115,-1.01485 -6.42272,-2.43602 -8.24019,-4.91494c0,0 -0.42642,-0.56782 -1.06344,-0.52771l-0.81671,-0.54424c-2.4922,-1.86056 -4.47238,-4.1177 -6.33333,-6.57769c-2.28314,-4.59381 -5.71776,-8.70681 -7.63995,-13.40997c-1.8101,-4.42891 -1.78509,-10.03099 -1.78509,-14.76722c0,-5.2686 0.515,-11.43639 2.33709,-16.41356c0.9691,-2.64719 2.81568,-4.48899 4.49061,-6.61393c0.82787,-0.00171 1.1187,-0.87255 1.1187,-0.87255c0.61066,-2.29692 3.8574,-4.05675 5.72336,-5.55032c4.94274,-3.9563 8.91426,-7.60889 15.0173,-9.64897c6.22962,-1.0231 13.07025,-2.28946 19.33156,-1.03722l1.20723,0.0053c0.26355,0.18837 0.53948,0.24357 0.53948,0.24357c4.10349,0.80323 8.60797,0.39685 12.44624,2.53568c3.18978,1.77747 6.22259,5.80582 8.38607,8.68259c2.52912,4.22592 5.7769,7.16797 7.61979,11.78017l0.30963,0.6289z" fill="url(#color-1)" stroke-width="0.25"></path>
        <path d="M240.8122,137.66906c0.16736,-0.28651 0.47798,-0.55238 1.05447,-0.55238c1.25,0 1.25,1.25 1.25,1.25l-0.02427,1.3118c-0.70066,3.41589 1.11264,8.32478 -0.54591,11.52285c-0.01523,0.02937 -0.03077,0.05855 -0.0466,0.08754l0.01931,0.00644l-0.52423,1.57265c-0.15709,0.51078 -0.63267,0.88205 -1.19497,0.88205c-0.69036,0 -1.25,-0.55964 -1.25,-1.25v-1.33333c0,-4.10593 0.28715,-8.19623 0.26668,-12.26666c0,0 0,-1.07399 0.99552,-1.23095z" fill="#2f2f2f" stroke-width="0.5"></path>
        <path d="M262.7141,160.0189c0.74199,-0.83746 1.55727,-1.6249 2.39598,-2.39765c1.73282,-1.73313 3.46294,-3.46203 5.20605,-5.20513c0,0 0.88388,-0.88388 1.76777,0c0.88388,0.88388 0,1.76777 0,1.76777c-0.32775,0.32775 -0.65503,0.65507 -0.98196,0.98205c-0.10096,0.36754 -0.35138,0.61795 -0.35138,0.61795l-0.26666,0.26666c-1.63103,1.63103 -3.08731,3.13266 -4.84175,4.57538c-0.29181,0.29163 -0.58385,0.58343 -0.8762,0.87547c-0.39498,0.459 -0.72877,0.89209 -1.11686,1.11534c-0.13838,0.13815 -0.27685,0.27637 -0.41542,0.41467l-0.07081,0.02214l0.01803,0.02253l-1.32556,1.06045c-0.21512,0.17514 -0.48962,0.28014 -0.78865,0.28014c-0.69036,0 -1.25,-0.55964 -1.25,-1.25c0,-0.34517 0.13991,-0.65767 0.36611,-0.88388l1.06665,-1.06667l0.11309,0.11308l0.21596,-0.17276c0.37911,-0.37991 0.7576,-0.75903 1.13562,-1.13755z" fill="#2f2f2f" stroke-width="0.5"></path>
        <path d="M278.2565,182.01059c-0.36058,0 -0.72114,0.0045 -1.08169,0.01267c-0.67699,0.27521 -1.58617,0.24928 -2.51346,0.10619c-2.75097,0.15883 -5.50291,0.42055 -8.26134,0.42055c0,0 -1.25,0 -1.25,-1.25c0,-1.25 1.25,-1.25 1.25,-1.25c1.41648,0 2.83155,-0.07038 4.24574,-0.15971c0.10056,-0.17101 0.20367,-0.27413 0.20367,-0.27413l1.45376,-0.59551c1.17501,0.29948 2.32614,0.43925 3.47615,0.5531c0.64722,-0.02741 1.2944,-0.04574 1.94158,-0.05003l1.51702,-0.25283c0.07415,-0.01371 0.1506,-0.02088 0.22873,-0.02088c0.69036,0 1.25,0.55964 1.25,1.25c0,0.61444 -0.44333,1.12534 -1.02757,1.23027l-1.31063,0.26212l-0.00847,-0.04237l-0.03706,0.00618z" fill="#2f2f2f" stroke-width="0.5"></path>
        <path d="M267.55056,208.85055c-0.88388,0.88388 -1.76777,0 -1.76777,0l-0.26666,-0.26666c-2.64596,-2.6564 -4.56155,-5.88414 -7.59944,-8.15054c0,0 -1.00001,-0.74999 -0.25002,-1.75c0.74999,-1.00001 1.75,-0.25002 1.75,-0.25002c3.13628,2.36302 5.12101,5.6487 7.86723,8.38279l0.26666,0.26666c0,0 0.88388,0.88388 0,1.76777z" fill="#2f2f2f" stroke-width="0.5"></path>
        <path d="M239.87849,209.12079c0.07442,-0.46067 0.14881,-0.91453 0.22186,-1.35962c0,0 0.2055,-1.23299 1.43849,-1.0275c1.23299,0.2055 1.0275,1.43849 1.0275,1.43849c-0.63408,3.73986 -1.32241,8.12334 -1.32241,11.91767l-0.0738,0.11085l0.05561,0.01112l-0.26212,1.31063c-0.10493,0.58424 -0.61583,1.02757 -1.23027,1.02757c-0.69036,0 -1.25,-0.55964 -1.25,-1.25v-1.6h0.27308c0.0007,-0.15222 0.0025,-0.30533 0.00536,-0.45925c-0.37732,-2.80411 -0.01178,-5.60003 -0.01178,-8.60742v-0.26666c0,0 0,-1.16761 1.12848,-1.24588z" fill="#2f2f2f" stroke-width="0.5"></path>
        <path d="M212.85085,208.44009c-0.53938,0.47672 -1.06385,0.96701 -1.56695,1.47712c0,0 -0.88388,0.88389 -1.76777,0.00002c-0.88389,-0.88388 -0.00002,-1.76777 -0.00002,-1.76777c1.36085,-1.34561 2.85063,-2.56318 4.36476,-3.76131c1.54304,-1.43083 3.14394,-2.78461 4.82025,-4.07632c0.44273,-0.34115 0.75779,-0.95994 1.30694,-1.0528c0.08028,-0.07845 0.16016,-0.15734 0.23961,-0.23669l0.08916,-0.01927l0.00447,-0.00357l-0.02463,-0.03284l1.05655,-0.79241c0.21062,-0.16156 0.47415,-0.25758 0.7601,-0.25758c0.69036,0 1.25,0.55964 1.25,1.25c0,0.39906 -0.187,0.75445 -0.47816,0.98331l-1.31151,1.04919c-1.52039,1.4793 -3.2012,2.79523 -4.88074,4.10464c-0.99295,0.84466 -1.98845,1.70467 -2.93014,2.64784l-0.09891,0.09891c0,0 -0.35159,0.35159 -0.83303,0.38953z" fill="#2f2f2f" stroke-width="0.5"></path>
        <path d="M199.17154,178.7424c0,0 -1.22573,-0.24514 -0.98058,-1.47087c0.24514,-1.22573 1.47087,-0.98058 1.47087,-0.98058c1.76788,0.39379 3.76594,0.23704 5.76516,-0.00917c0.24972,-0.81512 1.18969,-0.81512 1.18969,-0.81512h0.53335c1.34728,0.00291 2.48695,-0.28801 3.18709,0.27842c0.0937,-0.00359 0.18689,-0.00641 0.27957,-0.0084v-0.00336h1.6c0.69036,0 1.25,0.55964 1.25,1.25c0,0.69036 -0.55964,1.25 -1.25,1.25h-1.43752c-3.74992,0.01101 -7.85613,1.20053 -11.60761,0.50907z" fill="#2f2f2f" stroke-width="0.5"></path>
        <path d="M216.46694,148.19519c-0.35715,-0.26865 -0.71842,-0.53864 -1.0836,-0.81185c0,0 -1,-0.75 -0.25001,-1.75c0.75,-1 1.75,-0.25001 1.75,-0.25001c3.45141,2.5956 6.6208,4.91635 9.24786,8.4301l1.01936,1.01935c0.22621,0.22621 0.36612,0.53871 0.36612,0.88389c0,0.69036 -0.55964,1.25 -1.25,1.25c-0.29902,0 -0.57352,-0.105 -0.78864,-0.28013l-1.32556,-1.06044l0.14291,-0.17864l-0.0397,0.02155c-0.02946,-0.0391 -0.05898,-0.07805 -0.08856,-0.11685c-2.62391,-1.30604 -4.85297,-3.17286 -6.84952,-5.48867l-0.62432,-0.92012c0,0 -0.22215,-0.33322 -0.22634,-0.74818z" fill="#2f2f2f" stroke-width="0.5"></path>
        <path d="M236.36326,180.47785c-0.08908,-0.33683 -0.07635,-0.68336 0.0122,-1.0199c0.11783,-1.91835 2.28805,-4.10394 3.92716,-3.34116c0.81621,-0.01461 1.25526,0.44573 1.40379,1.11258c0.30906,0.21517 0.60177,0.50748 0.86735,0.88685c1.37693,1.96693 0.21788,3.87344 -1.35095,5.04327c-0.25181,1.20945 -1.46794,0.96623 -1.46794,0.96623c-0.00142,-0.00038 -0.00284,-0.00077 -0.00426,-0.00115c-0.50842,0.3615 -1.03247,0.70739 -1.57169,0.53906c-1.99606,-0.62314 -2.32833,-2.5113 -1.81565,-4.18578z" fill="#2f2f2f" stroke-width="0.5"></path>
      </g>
    </g>
  </g>
</svg>
