<?xml version="1.0" encoding="UTF-8"?>
<svg xmlns="http://www.w3.org/2000/svg" xmlns:xlink="http://www.w3.org/1999/xlink" version="1.1" width="321.19994" height="336.77921" viewBox="0,0,321.19994,336.77921">
  <g transform="translate(-79.40003,-11.61041)">
    <g stroke="none" stroke-miterlimit="10">
      <path d="M88.31564,328.6104c0,0 16,-20.5985 16,-32.10001c0,-24.14805 -6.06414,4.50221 -10.04872,-44.1924c-0.59522,-7.27412 3.74438,-65.15844 3.01263,-73.75344c-0.23731,-2.78745 -17.45194,-68.53772 -17.64152,-71.24481c-1.94572,-27.78276 8.67761,-71.70934 8.67761,-71.70934c0,0 -12.60264,-21.46011 8.4239,-20.44654c5.86827,0.28288 21.73281,18.2132 32.25081,17.57214c19.88693,-1.21209 85.77117,-14.42446 107.91596,-15.43106c14.92427,-0.67839 40.54072,1.62046 54.14997,0.91386c29.89262,-1.55204 65.36001,-6.60839 73.85938,-6.60839c6.34357,0 25.39999,15 25.39999,15c0,0 -4.30426,16.55744 -1.677,49.84293c2.20947,27.99243 11.3705,71.03601 11.83896,94.14703c0.97157,47.9307 -4.16196,152.01005 -4.16196,152.01005c0,0 6.8751,16.10871 -32.52064,19.49727c-5.19656,0.44698 -28.0068,-7.08378 -34.50223,-6.59417c-5.41818,0.40841 -27.16192,3.80264 -33.24331,4.17608c-4.59181,0.28197 -30.28214,8.51628 -35.06363,8.69531c-8.42783,0.31554 -43.80911,-15.34526 -52.03061,-14.98105c-9.93324,0.44004 -39.34412,6.82986 -47.9634,7.15102c-2.72426,0.1015 -17.35563,-9.79234 -19.88468,-9.68134c-10.6975,0.46953 -30.35234,15.73688 -36.1915,15.73688c-17.79261,0 -16.6,-18 -16.6,-18z" fill="#d6d6d6" stroke-width="0"></path>
      <path d="M114.91564,303.51039l-11,-15c0,0 12.57555,13.59144 33.19615,18.10359c30.25914,6.62123 74.38191,5.22504 93.09351,7.37227c14.12883,1.62134 55.71035,9.52414 55.71035,9.52414l65,-5c0,0 -60.0161,13.57931 -88.76511,11.92299c-10.7767,-0.62088 -41.27907,-11.44 -57.09454,-13.84571c-8.9022,-1.35412 -54.71337,6.39113 -63.18379,5.2433c-39.11052,-5.29991 -26.95656,-18.32058 -26.95656,-18.32058z" fill="#9e9e9e" stroke-width="0"></path>
      <path d="M121.8722,32.25288c8.47042,-1.14784 54.2816,6.59742 63.18379,5.2433c15.81547,-2.4057 46.31783,-13.22483 57.09454,-13.84571c28.74901,-1.65632 88.76511,11.923 88.76511,11.923l-65,-5c0,0 -41.58152,7.9028 -55.71035,9.52414c-18.71159,2.14723 -62.83437,0.75104 -93.0935,7.37226c-20.6206,4.51215 -33.19615,18.10359 -33.19615,18.10359l11,-15c0,0 -12.15397,-13.02067 26.95656,-18.32058z" fill="#9e9e9e" stroke-width="0"></path>
      <g fill="#696969" stroke-width="0.5">
        <path d="M139.4361,243.61811c-1.11807,2.23605 -3.35412,1.11798 -3.35412,1.11798l0.30865,-0.66441c-3.45316,1.10902 -7.36469,1.35787 -10.98439,1.71983c-1.00079,0.10008 -5.66029,-0.17182 -6.58214,0.20914c-0.36925,0.15259 0.04905,0.80554 -0.02381,1.19837c-0.68006,3.66642 -0.53706,6.86885 -0.70297,10.61686c-0.37957,8.57474 -0.64669,17.50304 -1.94619,26.08411h0.3489v5c0,1.38071 -1.11929,2.5 -2.5,2.5c-0.88151,0 -1.65647,-0.45624 -2.10161,-1.14547l-1.57852,-2.3677c0,0 -1.38679,-2.08011 0.69331,-3.46689c0.16685,-0.11124 0.32925,-0.20018 0.48682,-0.26967v-0.25027h0.46255c-1.08413,-3.21742 -0.32752,-6.41406 0.0746,-10.23424c0.68824,-6.53839 1.04991,-13.3782 1.06282,-19.96577c0.00754,-3.85276 -0.30876,-4.3604 0.8997,-7.89894c0.42354,-1.24017 0.47276,-2.89482 1.57628,-3.60168c3.62189,-2.32 5.9206,-1.04111 9.41786,-1.39083c3.048,-0.3048 6.9006,-0.45916 9.81554,-1.48024l3.50873,0.93569c0,0 2.23605,1.11807 1.11799,3.35412z"></path>
        <path d="M117.9,286.50004c0,-2.5 2.5,-2.5 2.5,-2.5l1.38314,0.06895c5.79218,1.61305 9.38395,-2.15924 10.56198,-7.64175c0.30966,-1.44117 0.60604,-3.27253 -0.33186,-4.40972c-2.20711,-2.67608 -8.78739,-1.41751 -11.61326,-1.41751c0,0 -2.5,0 -2.5,-2.5c0,-2.5 2.5,-2.5 2.5,-2.5c4.93259,0 12.00898,-1.13999 15.5868,3.38254c1.544,1.95168 1.6655,6.29451 1.26811,8.3902c-1.262,6.65544 -5.7218,11.69685 -12.69038,12.40606c-1.33894,0.13627 -2.63172,-0.56516 -3.94759,-0.84773l-0.21695,0.06895c0,0 -2.5,0 -2.5,-2.5z"></path>
        <path d="M157.30002,284.10002c0,2.5 -2.5,2.5 -2.5,2.5h-2.40002c-0.90906,-0.01504 -1.83789,-0.23426 -2.72719,-0.04511c-1.63186,0.3471 -3.06502,1.70726 -4.73166,1.63164c-1.35144,-0.06131 -2.35191,-1.33759 -3.52786,-2.00639c0,0 -2.08014,-1.38673 -0.69341,-3.46687c0.48889,-0.73335 1.06396,-1.0358 1.60368,-1.12003c-0.25256,-0.35656 -0.42356,-0.8394 -0.42356,-1.49324c0,-0.99606 0.39685,-1.59527 0.87434,-1.95574c0.5722,-10.99144 3.59657,-21.71217 5.19076,-32.54373c-0.12974,-0.19746 -0.24411,-0.43199 -0.33677,-0.70996c-0.53605,-1.60815 0.38179,-2.48935 1.02833,-2.89007c0.3541,-0.65162 1.06261,-1.35504 2.45345,-1.18118c0.25415,0.03177 0.47902,0.08632 0.67792,0.15866c4.57548,-1.17243 9.51322,-1.65217 14.14929,-1.77721l2.7808,1.06322c0,0 2.23603,1.11811 1.11793,3.35414c-1.1181,2.23603 -3.35413,1.11793 -3.35413,1.11793l-0.41916,-0.53687c-4.23982,0.09759 -8.88092,0.51023 -13.08427,1.61694c-0.63804,4.34035 -1.51574,8.66767 -2.3732,13.00257c3.20073,1.64859 5.38445,0.21401 8.98534,1.30963l0.00938,-0.12831c0,0 2.5,0 2.5,2.5c0,2.5 -2.5,2.5 -2.5,2.5l-1.59059,-0.1283c-1.84948,-0.70905 -3.97699,0.36105 -5.94126,0.10618c-0.88206,-0.11444 -1.67342,-0.54323 -2.45674,-0.99982c-0.98729,5.35726 -1.78714,10.73845 -1.9121,16.18221l-3.14439,2.32515c0.25539,0.37439 0.5066,0.76078 0.90402,0.72798c1.20428,-0.0994 2.09134,-1.29472 3.26834,-1.56831c1.19253,-0.2772 2.44847,-0.03007 3.67271,-0.04511h2.40002c0,0 2.5,0 2.5,2.5z"></path>
        <path d="M165.89999,283.30003c0,-2.5 2.5,-2.5 2.5,-2.5h1.60004c7.7235,0.15079 16.05513,-7.43807 12.8553,-15.83265c-1.35759,-3.56156 -6.54499,-6.11374 -5.56503,-10.62407c0.29037,-1.33642 2.40544,-1.30837 3.54946,-2.05773c1.83759,-1.20367 3.33597,-2.40064 4.56386,-4.24045c0.47357,-0.70957 1.43772,-1.52044 1.10773,-2.30712c-0.24712,-0.58911 -1.12891,0.60614 -1.72643,0.83219c-3.43317,1.29878 -5.85004,2.0947 -7.90478,5.31656c0,0 -1.38673,2.08015 -3.46687,0.69342c-2.08014,-1.38673 -0.69341,-3.46687 -0.69341,-3.46687c2.5395,-3.69312 6.48702,-7.2114 11.29518,-7.48349c2.10614,-0.11918 5.05428,-0.88926 6.27358,0.83218c2.85744,4.03422 -0.82133,8.96567 -3.35804,11.44222c-1.12159,1.095 -2.35091,2.14521 -3.77031,2.81026c-0.40197,0.18835 -1.34163,-0.89222 -1.25059,-0.45775c0.10479,0.50002 0.93025,0.44939 1.31844,0.78152c2.38107,2.03726 3.1685,3.09938 4.31661,6.19439c3.4357,9.26175 -3.5188,20.35384 -12.97034,22.5005c-1.48709,0.33775 -3.04959,0.04459 -4.57439,0.06688h-1.60004c0,0 -2.5,0 -2.5,-2.5z"></path>
        <path d="M203.06509,279.34209c-1.13736,-0.24912 -1.629,-0.91193 -1.82967,-1.54905c-2.28587,0.00792 -5.3178,0.01452 -6.71769,0.00687c-0.36941,0.06514 -0.80294,0.04026 -1.30825,-0.12818c-0.47744,-0.15915 -0.82674,-0.38237 -1.08013,-0.63742c-0.28002,-0.15907 -0.56624,-0.29998 -0.8745,-0.37201c-0.24671,-0.05765 0.38581,0.38624 0.41291,0.63815c0.11409,1.06056 0.15781,2.14509 0,3.20003c-0.03563,0.23817 -1.55252,4.75952 -1.69604,5.19009c0,0 -0.79057,2.37171 -3.16228,1.58114c-2.37171,-0.79057 -1.58114,-3.16228 -1.58114,-3.16228c0.49114,-1.47341 1.29604,-2.87078 1.50403,-4.4099c0.14284,-1.05705 -0.28133,-2.17109 0,-3.19999c0.40643,-1.48644 0.62948,-3.48291 2.01288,-4.16179c1.07696,-0.5285 2.306,-0.2024 3.54045,0.11217c1.89435,-6.22632 3.09275,-12.66231 5.49296,-18.77657c0.54981,-1.40059 1.25965,-2.73296 1.89775,-4.09559c0.54845,-1.17121 0.58553,-2.7889 1.66187,-3.50586c0.0542,-0.0361 8.45524,-0.86829 8.52354,-0.79999c2.90512,2.90516 0.76068,5.54692 0.16451,8.23071c-1.33612,6.01488 -1.99285,12.25507 -2.84251,18.36441c1.54617,-0.40603 3.22779,-1.07256 4.35478,-0.13756c1.44892,1.20209 1.05818,3.69277 0.9292,5.571c-0.1221,1.77808 -1.1341,3.37965 -1.66073,5.08233c-0.82776,2.67629 -1.35464,5.4701 -1.51149,8.26708l-2.72961,-0.95615l-2.2614,0.65649c0.02983,-0.46975 0.06773,-0.9395 0.11369,-1.40881l-0.11818,-0.0414c0,0 0,-0.53448 0.24713,-1.10917c0.29466,-2.33323 0.78932,-4.64677 1.48355,-6.88681c0.40732,-1.31426 0.75942,-2.65563 1.28983,-3.9238c-0.39189,0.2147 -0.84126,0.37068 -1.28591,0.48546c-0.07203,0.28068 -0.68972,2.37579 -2.96953,1.87642zM202.12563,271.95498c0.04003,-0.28091 1.37188,-9.63072 1.40381,-9.83724c0.0371,-0.24004 1.61424,-9.68519 1.64429,-9.82037c0.1355,-0.60954 0.28806,-1.23107 0.5493,-1.79804c-0.49618,-0.18794 -1.00098,-0.5606 -1.46122,-0.37122c-0.3994,0.16435 0.20114,0.88537 0.06189,1.2942c-0.48487,1.42358 -1.34622,2.69406 -1.89691,4.09349c-2.22057,5.64291 -3.40112,11.56006 -5.05975,17.33704c1.56067,-0.02949 3.09016,-0.13011 4.62246,-0.27746z"></path>
        <path d="M229.30002,286.50004c0,2.5 -2.5,2.5 -2.5,2.5l-0.80942,-0.12829c-3.90528,1.2541 -7.27586,1.2541 -11.18114,0c0,0 -2.37172,-0.79055 -1.58117,-3.16226c0.21924,-0.65773 0.56009,-1.07226 0.93822,-1.32789c0.61422,-5.15106 1.87283,-10.10516 2.98952,-15.20789c1.71079,-7.81748 3.15424,-15.86504 5.67233,-23.4643c0,0 0.18204,-0.54609 0.63347,-1.02684c0.06635,-1.48642 1.60975,-2.10377 1.60975,-2.10377c4.7555,-1.85032 7.03332,-2.10247 11.93477,-0.90414l1.79368,-0.07465c0,0 2.5,0 2.5,2.5c0,2.5 -2.5,2.5 -2.5,2.5l-3.00636,-0.07465c-3.70708,-0.95146 -4.83326,-0.92126 -8.13823,0.39968c-0.03671,0.22466 -0.0837,0.36562 -0.0837,0.36562c-1.7184,5.12005 -2.90432,10.47261 -4.02417,15.81007c1.46507,-0.12523 2.92388,-0.35978 4.36214,-0.65218l3.20832,1.01535c0,0 2.23609,1.118 1.11809,3.35408c-1.118,2.23609 -3.35409,1.11809 -3.35409,1.11809l0.00825,-0.58462c-2.10948,0.41573 -4.25418,0.72172 -6.40357,0.81727c-0.14586,0.6876 -0.29309,1.37363 -0.44272,2.05755c-1.06944,4.88822 -2.30142,9.63369 -2.89589,14.567c1.73069,0.20878 3.39969,-0.01288 5.2614,-0.66495l2.39053,-0.12829c0,0 2.5,0 2.5,2.5z"></path>
        <path d="M258.00003,284.19998c-2.5,0 -2.5,-2.5 -2.5,-2.5l0.07938,-1.42496c1.01334,-3.92444 2.07324,-7.78904 2.94549,-11.7302c-3.44461,5.75369 -6.97653,11.46414 -11.46204,16.42251c-2.37724,2.62785 -5.65886,6.08855 -10.13702,3.18723c-0.64208,-0.41599 1.0221,-9.33522 1.06731,-9.51605c2.71073,-10.84278 4.87253,-22.10735 10.66315,-31.82475c0,0 1.28625,-2.14372 3.42997,-0.85747c2.14372,1.28625 0.85748,3.42998 0.85748,3.42998c-5.56619,9.20582 -7.522,20.1535 -10.09918,30.46211c-0.20352,0.81407 -0.24205,1.67134 -0.31842,2.51605c0.30931,-0.23704 0.59763,-0.47766 0.81108,-0.73171c2.06685,-2.45989 3.90425,-5.10925 5.68856,-7.78117c4.48618,-6.71783 8.40938,-13.88049 13.0914,-20.40875l0.69293,-2.0787c0.31419,-1.02155 1.26534,-1.76408 2.38993,-1.76408c1.38071,0 2.5,1.11929 2.5,2.5c0,0.25849 -0.03923,0.50781 -0.11206,0.74234l-1.35778,4.75208c-0.13639,1.62633 -0.96436,3.12061 -1.34711,4.70713c-1.54543,6.40591 -2.81232,12.83173 -4.46245,19.22342l0.07938,0.175c0,0 0,2.5 -2.5,2.5z"></path>
        <path d="M266.60587,236.5235c1.17649,2.20587 -1.02938,3.38236 -1.02938,3.38236l-3.57014,1.81951c-4.80057,-0.01229 -8.35418,1.1132 -11.78186,-3.59364c-0.87196,-1.19735 -0.21633,-2.9545 -0.3245,-4.43175c0,0 0,-2.5 2.5,-2.5c2.5,0 2.5,2.5 2.5,2.5c-0.10817,0.65609 -0.69813,1.41822 -0.3245,1.96827c1.20901,1.77991 4.78608,1.21259 6.21815,1.20641l2.42985,-1.38055c0,0 2.20587,-1.17649 3.38236,1.02938z"></path>
        <path d="M278.96788,285.53233c1.7677,1.76783 -0.00014,3.53553 -0.00014,3.53553l-0.4876,0.41888c-2.76534,3.94198 -5.14895,5.67337 -9.97906,4.21359c-1.40913,-0.42588 -3.10624,-0.38038 -4.19968,-1.36598c-1.96064,-1.76729 -1.79525,-6.44988 -1.58263,-8.53978c0.60633,-5.95956 2.79091,-12.06351 5.00921,-17.55151c1.26329,-3.12534 1.90575,-6.48097 3.20294,-9.5924c1.00999,-2.42255 2.75187,-4.47036 4.15659,-6.68749c2.34185,-3.69625 7.09816,-9.08283 11.92185,-4.38835c1.2971,1.26236 0.96142,3.48995 1.44212,5.23493c0,0 0.49029,2.45145 -1.96117,2.94174c-2.45146,0.49029 -2.94174,-1.96117 -2.94174,-1.96117c-0.05262,-0.92169 0.1633,-1.89954 -0.15785,-2.76507c-0.37098,-0.99981 -2.0777,0.78557 -2.77457,1.5928c-1.88491,2.18344 -4.06647,5.47975 -5.147,8.13129c-2.9765,7.30417 -5.30173,15.01418 -7.03087,22.70286c-0.46038,2.04711 -0.77907,4.14916 -0.77052,6.24739c0.00131,0.32222 -0.25288,0.81353 0.03089,0.96617c0.64958,0.3494 1.48522,0.05337 2.20035,0.23399c2.63837,0.66634 2.87235,0.33547 4.42084,-2.18644l1.1125,-1.18109c0,0 1.76783,-1.7677 3.53553,0.00014z"></path>
        <path d="M303.62832,290.49055c-0.61237,-1.83713 0.67264,-2.72556 1.28303,-3.03273l-1.0221,-0.59664l-1.9407,0.7485c0.11247,-0.56225 0.22042,-1.12624 0.32532,-1.69146l-0.37387,-0.21825c0,0 0,-1.11775 0.74739,-1.85847c0.53569,-3.05223 1.03422,-6.1212 1.72173,-9.12518c1.78495,-7.79908 4.94548,-15.4649 5.45975,-23.45118c-1.02128,-0.43673 -1.40056,-1.57458 -1.40056,-1.57458c-0.08022,-0.31184 -0.19949,-0.62283 -0.32668,-0.93365c-0.70566,1.04311 -2.1016,1.04311 -2.1016,1.04311l-0.00943,-0.12828c-2.48663,0.82886 -4.83435,1.26381 -7.22742,1.6208c0.13682,0.4471 0.13682,0.80747 0.13682,0.80747c-0.01438,9.55115 -2.66733,19.12806 -3.86381,28.62653l-1.01384,3.99179c0,0 -0.61831,2.42233 -3.04064,1.80402c-2.42233,-0.61831 -1.80402,-3.04064 -1.80402,-3.04064l0.9458,-3.68542c1.13839,-9.18079 3.79169,-18.47193 3.77652,-27.69627c0,0 0,-0.04024 0.00511,-0.11053c-0.36113,0.05587 -0.72566,0.1144 -1.09412,0.17649c0,0 -2.46599,0.41099 -2.87697,-2.055c-0.41098,-2.46598 2.055,-2.87698 2.055,-2.87698c4.45725,-0.73516 8.18359,-0.89343 12.42048,-2.30569l1.59054,-0.12829c0,0 0.99264,0 1.72695,0.62548c1.58805,-4.65445 8.32412,-7.17042 12.4232,-4.22954c1.78744,1.2824 3.21015,3.15184 4.12263,5.15355c1.95412,4.28677 -0.96747,9.88841 -3.58416,12.98849c-1.03349,1.22441 -1.61746,2.32145 -2.59314,2.66069c1.00493,0.1372 2.0859,0.17478 2.85466,0.79725c1.7097,1.38434 3.21014,3.15184 4.12262,5.15355c1.8956,4.15837 -1.22687,10.40525 -3.11398,13.81954c-0.91892,1.66256 -1.6325,3.51398 -2.96791,4.86498c-1.30705,1.32231 -3.16182,1.95713 -4.74273,2.93569c-1.667,0.56104 -3.334,1.12209 -5.00099,1.68313l-2.45658,0.81886c0,0 -2.37171,0.79057 -3.16228,-1.58114zM307.66605,286.50942c1.49529,-0.49302 2.99057,-0.98604 4.48586,-1.47907c1.09605,-0.63883 2.41058,-1.00038 3.28816,-1.91651c0.99204,-1.03562 1.45138,-2.47468 2.129,-3.73859c1.7861,-3.33149 5.18056,-9.44649 0.68077,-12.37119c-2.27438,-1.47827 -4.85196,0.20757 -6.06217,-2.14042c-1.00754,3.65927 -2.11016,7.30845 -2.95675,11.02008c-0.80883,3.54607 -1.35083,7.18333 -2.01008,10.7741zM314.81502,258.16666c2.31784,-2.3146 6.38927,-6.24637 4.75917,-10.10745c-0.52715,-1.24862 -2.0189,-3.33116 -3.80491,-3.06491c-1.65229,0.24632 -2.69577,0.65078 -2.94561,1.43164c2.07632,0.26516 2.07632,2.47406 2.07632,2.47406c-0.01668,3.45279 -0.51687,6.8134 -1.24461,10.13474c0.42791,-0.27308 0.84256,-0.55145 1.15963,-0.86808z"></path>
        <path d="M331.50003,269.69998v-2.79998c0,-8.6024 0.96305,-17.87643 -0.75144,-26.3097c0,0 -0.49028,-2.45145 1.96117,-2.94174c2.45146,-0.49029 2.94173,1.96117 2.94173,1.96117c1.68385,8.54431 0.89999,17.73818 0.85089,26.47218c3.10604,-6.01711 6.40197,-11.91823 10.77711,-17.18234c0,0 1.60046,-1.92055 3.52101,-0.32009c1.92055,1.60047 0.32009,3.52102 0.32009,3.52102c-5.76824,6.90212 -8.8632,14.57618 -12.85625,22.51755c-3.70329,7.36511 -8.18353,14.49976 -13.57608,20.7204l-4.38824,-3.23843c0,0 0,-2.5 2.5,-2.5c0.04411,0 0.08744,0.00078 0.13,0.00231c4.19986,-5.40918 7.39495,-11.40223 10.48149,-17.45413c-1.91148,-0.35782 -1.91148,-2.4482 -1.91148,-2.4482z"></path>
        <path d="M363.60001,292.19998c-2.5,0 -2.5,-2.5 -2.5,-2.5l0.26394,-1.91803c3.06034,-6.07575 4.5908,-13.03081 6.45866,-19.56112c0.09943,-0.34762 0.1936,-0.68938 0.28457,-1.02544c-0.1388,0.09642 -0.27018,0.2019 -0.38995,0.32153c-2.10143,2.09893 -3.48003,4.82664 -5.45198,7.04766c-2.06514,2.32599 -4.43568,4.40972 -6.21264,6.96265c-1.59747,2.29505 -2.78196,5.28009 -4.85256,7.27279c0,0 0,0.00001 -0.00001,0.00002v0l-2.38257,3.17674c-0.45492,0.62044 -1.18914,1.02327 -2.01745,1.02327c-1.38071,0 -2.5,-1.11929 -2.5,-2.5v-3.20001h0.1339l-0.10577,-0.37403c1.29672,-4.30139 1.72267,-8.57317 2.65322,-12.93959c1.9935,-9.35407 4.34148,-18.71872 7.89748,-27.61488c0,0 0.92849,-2.32118 3.24968,-1.39269c2.32119,0.92849 1.39269,3.24968 1.39269,3.24968c-3.4542,8.62892 -5.71499,17.72659 -7.64972,26.80031c-0.35652,1.67206 -0.62764,3.33436 -0.90623,4.98991c0.33763,-0.45299 0.67031,-0.90127 0.98218,-1.34593c1.90161,-2.71133 4.38565,-4.96348 6.58729,-7.43739c2.06813,-2.32387 3.55768,-5.14338 5.7481,-7.35236c2.50059,-2.52177 4.63009,-3.6675 5.88023,-7.29941l0.2631,-0.19959l-0.10628,-0.07085l1.57853,-2.36771c0.44514,-0.68923 1.2201,-1.14547 2.10161,-1.14547c1.38071,0 2.5,1.11929 2.5,2.5c0,0.15625 -0.01433,0.30915 -0.04175,0.45745l-0.79225,4.75353l-0.04,-0.00667c-0.00515,0.08977 -0.01128,0.17954 -0.01846,0.26932c-0.24724,3.09337 -2.1257,5.8367 -2.97735,8.82079c-1.95421,6.84737 -3.62201,14.03795 -6.79416,20.42361l0.26394,-0.31806c0,0 0,2.5 -2.5,2.5z"></path>
        <path d="M375.43612,238.18201c1.11802,2.23607 -1.11806,3.3541 -1.11806,3.3541l-3.74365,1.79703c-5.16332,0.02227 -8.06139,-0.71296 -12.36116,-3.55302c0,0 -2.08012,-1.38676 -0.69335,-3.46688c1.38677,-2.08012 3.46688,-0.69335 3.46688,-0.69335c2.88527,1.94495 4.93913,2.8212 8.43889,2.847l2.65637,-1.40293c0,0 2.23608,-1.11802 3.3541,1.11806z"></path>
      </g>
      <path d="M286.44592,149.65326c-0.26419,0.09499 -0.54901,0.14674 -0.84591,0.14674c-0.54811,0 -1.05503,-0.17639 -1.46708,-0.4755c-0.74683,0.31336 -1.47008,0.77501 -2.23453,1.02131c-0.24554,0.16369 -0.49621,0.32471 -0.75155,0.48308c-0.13531,1.3028 -0.33617,2.60407 -0.57367,3.87877l3.33454,-0.95273l3.47091,-1.67646c4.30138,-0.21265 5.56797,-0.14954 9.76234,-0.83594c3.66832,-0.60031 6.20306,-2.49538 9.16877,2.30076c0.22132,0.35792 -0.183,2.19121 -0.66566,3.89497c0.38436,-0.31707 0.75668,-0.64415 1.02932,-1.05257c0.51221,-0.76729 0.35204,-1.89215 0.93986,-2.60318c1.29356,-1.56472 3.59698,-2.00129 5.01898,-3.45027c0.67345,-0.68623 0.91876,-1.72152 1.60003,-2.39999c2.08231,-2.07375 4.15587,-3.11634 5.88145,-5.64364l0.3073,-1.29942c-6.6712,5.81823 -16.17629,7.57955 -24.82051,8.77852c-0.52954,0.07345 -7.94617,0.00685 -8.00092,0c-0.25314,-0.03164 -0.48954,-0.13626 -0.72142,-0.25854zM284.46664,132.11505c2.29075,-2.74469 1.41937,-3.68375 5.57314,-5.42949c1.49739,-0.62932 3.56142,-1.78059 4.81504,-0.74781c5.04257,4.15422 0.76818,11.13643 -2.57943,15.44796c2.77506,-1.60846 5.66577,-3.22553 8.66091,-4.28916c3.11896,-2.71621 7.80943,-5.08705 10.48508,-6.96995l0.68617,0.09355l-0.01984,-0.24175l4.47901,-0.36764c0.07681,-0.00711 0.15463,-0.01074 0.23329,-0.01074c1.38071,0 2.5,1.11929 2.5,2.5c0,0.79812 -0.374,1.50888 -0.95631,1.9666l-3.88631,3.10904l-0.25848,-0.32309c-1.99048,1.92829 -4.1116,3.46729 -7.26204,5.35997l-0.726,0.48428c5.2602,-1.42766 10.19353,-3.74572 13.38912,-8.09679l1.83229,-1.8678c0,0 1.18874,-1.18871 2.59139,-0.64179c0.20036,-0.67195 0.60596,-1.29548 0.70864,-1.9909c0.79968,-5.41568 -0.24701,-11.55627 -0.8136,-16.89407c-0.43333,-4.08238 -2.59815,-8.4353 -3.89043,-12.31485c-1.76743,-5.30599 -3.53269,-10.11821 -6.90287,-14.59564c-2.11061,-3.51766 -4.34123,-7.02353 -7.01403,-10.15696c-3.55838,-4.17164 -8.48859,-6.99967 -12.04472,-11.25304c-2.0716,-2.47777 -3.57375,-3.98011 -6.05164,-6.05162c-1.65217,-1.38121 -2.73118,-3.42178 -4.52934,-4.60671c-0.63676,-0.4196 -1.50167,-0.3405 -2.18409,-0.68086c-3.01797,-1.50523 -5.4058,-2.70793 -8.56896,-3.90107c-2.21324,-0.83483 -4.10405,-2.41963 -6.34396,-3.18001c-3.21803,-1.09242 -6.5935,-0.65828 -9.89412,-1.48342c-3.44879,-0.01418 -4.84,1.10004 -8.09407,1.58645c-1.08629,0.16237 -2.20451,-0.11738 -3.29503,0.01355c-3.46769,0.41634 -6.70299,2.291 -10.06381,3.13497c-5.60556,1.40765 -11.95955,2.41095 -17.28493,4.69347c-6.05345,2.59458 -11.47164,6.39339 -16.97172,10.02365c-1.43095,1.43093 -3.2305,2.45739 -4.66697,3.88277c-2.06701,2.05106 -1.9608,3.25241 -3.78469,5.36885c-0.91344,1.05997 -2.18252,1.79856 -3.00668,2.92934c-1.18269,1.62269 -1.37205,3.79484 -2.36436,5.54048c-2.51358,4.42179 -4.06742,8.03522 -5.34601,12.98689c-0.86282,3.34147 -3.47866,5.88149 -3.94853,9.35877c-0.64852,4.79938 -1.59931,9.92345 -1.56775,14.79953c0,8.78856 -2.11112,16.70892 -3.49583,25.22037l0.05901,0.02608c0.89427,-0.49932 1.77845,-1.02632 2.76247,-1.27955c0.66227,-0.17042 1.35499,-0.08691 2.0465,-0.03142c-2.40561,-2.61461 -2.94567,-7.43742 0.02927,-9.7698c1.40894,-1.10461 3.38217,-1.51488 5.17135,-1.45074c1.42257,0.051 2.56718,1.23453 3.88392,1.77537c1.73237,0.71156 3.80021,1.39292 5.38228,2.49184c0.38993,-3.67571 3.57321,-7.82871 7.59289,-7.46003c1.32474,0.12151 2.30326,1.33184 3.45488,1.99776c2.29279,1.54142 3.70102,2.24018 5.44134,4.61835c0.25225,0.34471 0.44081,0.72805 0.61053,1.12289c0.88526,0.76146 1.68702,1.64395 2.54964,2.43821c0.6816,-2.15896 0.99998,-4.47218 2.16671,-6.3992c1.41136,-2.33106 4.93718,-7.55006 8.40732,-1.75492c1.81081,3.02407 -1.87923,8.27708 -2.89326,10.69468c-0.45559,1.08621 -0.89927,2.17923 -1.334,3.27732c0.69982,0.5492 1.33308,1.19046 2.05556,1.71109c0.2593,0.18686 0.72752,0.68685 0.87087,0.40118c0.3351,-0.66779 -0.20729,-1.54023 0.05228,-2.24085c0.26636,-0.71894 3.93531,-5.83539 4.30659,-5.99282c4.1553,-1.76192 6.50027,0.12639 8.80779,3.1424c0.26275,0.34342 0.48961,0.70715 0.68967,1.08601c0.72373,0.5639 1.42077,1.01124 2.07278,1.20407l0.80943,-0.12829c0,0 2.5,0 2.5,2.5c0,2.5 -2.5,2.5 -2.5,2.5l-0.80863,-0.0434c1.01653,2.68777 2.26108,5.19497 3.18035,7.95286c0,0 0.37282,1.11847 -0.16168,2.07528c0.73007,1.59471 1.62188,3.41791 2.86275,3.43019c2.88884,0.02859 5.32952,-1.48563 7.63465,-3.30908c0.0123,-0.16023 0.03972,-0.31623 0.08082,-0.46658l0.78639,-3.14559l0.08539,0.02135c0.01405,-0.14231 0.0318,-0.28445 0.05369,-0.42641c0.17166,-1.11374 1.1933,-1.91353 1.84547,-2.83253c2.99496,-4.22028 7.00392,-7.60774 10.85584,-10.88944c1.16334,-0.99113 2.85123,-3.32001 4.85986,-4.29039c0.01565,-0.24786 0.0581,-0.4459 0.13363,-0.57925c1.6454,-2.9048 6.59887,-2.4696 8.62951,-0.68562c0.83117,0.73021 1.29489,1.77107 1.72393,2.82228c0.77938,-2.54878 3.68269,-4.81486 5.10467,-6.51863zM291.70028,131.80834c-0.06847,0.06983 -0.13722,0.13941 -0.20618,0.20879c0.04642,0.00544 0.09244,0.01215 0.13804,0.02009c0.02225,-0.07652 0.04491,-0.15284 0.06814,-0.22888zM269.49684,144.04171c0.1485,-0.35429 0.29819,-0.70811 0.44498,-1.06308c-0.05813,-0.22725 -0.11882,-0.46594 -0.18048,-0.71232c-0.60881,0.59649 -1.20316,1.21412 -1.78964,1.84095c0.00176,0.00527 0.0035,0.01054 0.00522,0.01582c0.00545,0.00178 0.01089,0.00358 0.01632,0.00539c0.41476,-0.16251 0.9425,-0.25951 1.5036,-0.08676zM229.60001,149.00001c-0.82832,0 -1.56256,-0.40284 -2.01747,-1.02329l-1.47867,-1.97159c-0.16697,0.15178 -0.33393,0.30357 -0.5009,0.45535c-0.0487,0.10513 -0.08799,0.1907 -0.11665,0.25094c-0.35399,0.74415 -0.40803,1.70125 -0.60143,2.54163c1.09374,0.06221 2.15936,0.17135 3.10572,0.47527c1.67372,0.55791 3.13179,1.14888 4.46191,1.86089c-0.13533,-0.33747 -0.26812,-0.6777 -0.39724,-1.02181c-0.2695,-0.7182 -0.46712,-1.51018 -0.67459,-2.31264c-0.4534,0.46006 -1.08373,0.74525 -1.78069,0.74525zM200.32368,143.56816c-0.73367,0.17321 -1.4894,0.31742 -2.11434,0.55607c0.46566,0.00044 0.92952,-0.02392 1.39024,-0.09195c0.42222,-0.06234 0.84381,-0.13593 1.26524,-0.21314c-0.18545,-0.07144 -0.36534,-0.15625 -0.54113,-0.25099zM182.7996,147.36773l-0.23423,-0.17838c-0.04733,0.01305 -0.09467,0.02665 -0.142,0.04075l-0.01388,0.04163l-0.0588,-0.0196c-0.98194,0.30272 -1.95558,0.80353 -2.75018,0.91562c-0.66236,0.09343 -1.33667,0.17675 -2.00637,0.28271c0.21983,0.25343 0.41795,0.52286 0.58139,0.8178c0.78031,1.40814 1.08006,2.73302 1.12458,4.03567c0.37546,-0.26435 0.70936,-0.37564 0.70936,-0.37564c8.78259,-2.92061 17.98484,-2.52828 27.19058,-2.52828l0.18404,0.12745c0.23427,-0.81044 0.48455,-1.61497 0.7497,-2.41751c-2.57121,-0.6276 -5.31053,0.52175 -7.73329,0.85779c-2.11311,0.29309 -4.28957,-0.31161 -6.40002,0c-0.83422,0.12317 -1.56026,0.7225 -2.39996,0.79998c-1.51354,0.13966 -3.13058,0.36651 -4.55717,-0.15802c-0.98834,-0.36339 -1.32043,-1.73127 -2.19525,-2.28957c-0.68283,0.0159 -1.36668,0.04985 -2.04848,0.0476zM180.35832,138.58831c0.40028,-0.59454 1.10328,-1.13752 1.85611,-1.57751c-0.5055,-0.15708 -0.98435,-0.17001 -1.31577,0.12351c-0.37861,0.3353 -0.54314,0.89251 -0.54034,1.45399zM253.53405,195.68903c0.21564,-1.29388 0.99703,-1.79573 1.69111,-1.98048c-0.1088,-0.05448 -0.21665,-0.10875 -0.3235,-0.16276c-0.90075,-0.45529 -2.39223,-0.70261 -3.62285,-1.08867c-0.02408,0.1246 -0.05295,0.24849 -0.08733,0.37158c-0.6813,2.439 -2.54126,5.01496 -4.90359,7.00915c2.02588,0.41063 3.84237,0.65922 6.11262,0.99444c0.70629,0.10429 1.28717,0.71985 1.9995,0.76774c2.61772,0.17598 2.53471,-2.87512 4.25825,-3.41049l-3.06922,0.37647c0,0 -2.46599,-0.41099 -2.055,-2.87697zM216.72217,198.96817c0.04092,-0.5258 0.37742,-1.22236 0.86747,-1.96896c-4.26353,0.05593 -8.66111,-0.68355 -13.00103,-1.81292c-4.45106,-2.93612 -9.95231,-3.84581 -14.54882,-6.47182c-0.70571,-0.40318 -1.43479,-0.85244 -2.17468,-1.34187c0.74089,1.48959 1.56202,2.85217 2.4524,3.54066c0.54149,0.4187 1.36723,0.23783 1.98092,0.54099c1.74585,0.86246 3.12158,2.3668 4.86548,3.23321c2.33673,1.16094 4.81974,2.011 7.15418,3.17651c2.04802,1.02877 4.90654,2.68383 7.28241,2.96833c1.69394,0.20284 3.42554,0.12626 5.16231,0.01843c-0.0789,-0.55347 -0.09542,-1.17844 -0.04063,-1.88254zM227.43432,195.39864c-0.64989,0.8322 -2.03729,0.64851 -2.91995,1.228c-0.71723,0.47089 -1.19207,1.23438 -1.78099,1.85833c-2.51628,2.66599 1.25059,1.21892 3.11814,0.77596c1.01942,-0.24179 2.03302,-0.50749 3.04952,-0.76123l2.13012,-0.71181c-0.16458,-1.05145 0.09083,-2.20867 0.06884,-3.28788c-0.00791,-0.38843 -0.00292,-0.80208 0.01456,-1.23494c-1.11633,0.70148 -2.26397,1.2908 -3.43773,1.77885c-0.07313,0.12233 -0.15356,0.24079 -0.24253,0.35471zM252.02537,185.50633l-0.08764,0.34146c-0.0128,0.72901 0.1316,1.4457 0.7798,1.86546c1.28187,0.83011 3.01223,0.66344 4.38089,1.34096c0.20177,0.09989 0.40699,0.20105 0.61537,0.30312l0.09349,-0.05808c0.10409,-0.1897 0.2092,-0.37828 0.31525,-0.56584c-0.62804,-0.40687 -1.20496,-0.90185 -1.70929,-1.51591c-0.73658,-0.89684 -2.10302,-6.38377 -2.11137,-7.21344c-0.00949,-0.94299 0.71197,-1.76893 0.83042,-2.7045c0.18166,-1.43482 -0.31119,-6.18823 0.075,-7.52404c0.33426,-1.15616 1.27511,-2.04153 1.91266,-3.06229c0,0 0.94356,-1.4153 2.44149,-1.13274c-0.10372,-0.15959 -0.19883,-0.34257 -0.2826,-0.55201c-0.92848,-2.32119 1.39271,-3.24967 1.39271,-3.24967c3.30537,-1.31331 6.39805,-2.07881 9.70246,-2.70802c-0.07631,-0.34404 -0.07384,-0.59535 -0.07384,-0.59535l0.02895,-2.93841c-1.66938,0.52767 -3.32155,0.98601 -4.88742,1.37922c-0.95506,0.23982 -4.5656,0.7283 -5.94329,1.42953c-4.85265,2.46994 -7.65411,6.71299 -13.19941,8.15452c-1.3758,0.35764 -2.77127,1.12821 -4.17179,0.88476c-6.09257,-1.05907 -4.31016,-3.83988 -7.26052,-7.30009c-2.70381,-3.17105 -4.64496,-4.34251 -8.4572,-5.61326c-3.34512,-1.17169 -6.61488,-0.16282 -9.98911,-1.76753c-0.45251,-0.2152 -0.7871,-0.59437 -1.10294,-1.00147c-0.28823,0.78037 -0.5751,1.56144 -0.86166,2.34259c6.00144,1.23081 12.36283,2.78573 17.331,6.37457c1.10106,0.79537 2.59974,1.29078 3.21746,2.50048c0.36065,0.70627 0.30095,6.37013 0.29581,7.57964c-0.02569,6.04718 -2.86679,13.08475 -7.40821,17.94705c0.33562,0.21861 0.563,0.48902 0.71499,0.77289c0.38111,-0.23277 0.75837,-0.48185 1.13146,-0.74803c0.84941,-0.60601 1.67862,-1.36538 2.47223,-2.20068c0.42793,-1.58075 0.97082,-3.05367 1.61404,-4.20297c0.57938,-1.03523 1.85241,-1.54302 2.48837,-2.54449c1.48862,-2.34418 2.1957,-6.15929 2.86175,-8.83011c0,0 0.60633,-2.42536 3.03169,-1.81903c0.8263,0.20657 1.30071,0.62429 1.56709,1.08529c2.37673,-0.70303 5.57213,-0.7632 6.79435,0.37232c1.22626,1.13926 0.58201,3.30069 0.73224,4.96775c0.27344,3.03431 0.77227,5.70808 0.79999,8.80002c-0.00491,0.11336 -0.01638,0.23738 -0.03109,0.36932c0.07247,0.57291 -0.04355,1.037 -0.04355,1.037zM239.88213,203.1642c0.15722,0.02262 0.31476,0.04309 0.47267,0.06113c0.28794,0.03289 0.58564,0.06326 0.89159,0.0911c-0.115,-0.12486 -0.22101,-0.26704 -0.30956,-0.4284c-0.35142,0.11033 -0.70346,0.2029 -1.05471,0.27617zM275.30106,198.49971c2.13806,-0.71346 4.19157,-1.6654 6.32977,-2.37843c2.01116,-0.67067 4.78126,-0.87108 6.59295,-2.10836c1.19146,-0.8137 1.89923,-2.19712 3.03771,-3.08342c3.13443,-2.44014 7.33577,-4.14601 10.16767,-6.99411c0.67894,-0.68283 0.9222,-1.72226 1.60309,-2.40315c0.67987,-0.67987 1.7138,-0.92652 2.40003,-1.59998c2.26198,-2.21986 4.43919,-6.09743 5.92194,-8.93061c0.78204,-1.49429 0.85181,-3.28853 1.60004,-4.80003c1.35267,-2.73251 2.61074,-5.2728 4,-8c1.39125,-2.73111 1.73426,-5.83814 3.13605,-8.65832c0.03719,-0.11183 0.07329,-0.22384 0.10835,-0.33601c-0.79019,0.70647 -1.60221,1.42812 -2.43086,2.2605c-0.67834,0.6814 -0.91481,1.72552 -1.60003,2.39999c-1.29433,1.27404 -3.48145,1.5042 -4.58099,2.9497c-0.46292,0.60858 -0.2364,1.56037 -0.66012,2.19687c-0.62694,0.94178 -1.75685,1.46922 -2.40003,2.39999c-1.25891,1.82182 -1.28168,4.98097 -2.2808,6.98404c-0.10244,0.20539 -3.13591,4.74374 -3.36567,5.08838c-1.14613,1.70482 -2.81736,3.01609 -3.95351,4.72758c-0.46639,0.70256 -0.32279,1.70472 -0.79998,2.39998c-1.48541,2.16423 -4.05481,3.34721 -5.91053,5.20373c-0.73155,0.73186 -0.96835,1.89167 -1.7616,2.55615c-0.91421,0.7658 -2.28385,0.83653 -3.20001,1.60001c-0.73863,0.61552 -0.85555,1.79152 -1.59998,2.39999c-1.08919,0.89028 -2.48509,1.31929 -3.73649,1.96188c-3.17793,1.63187 -6.94401,4.22253 -10.65853,4.26323c-2.67563,0.02931 -5.61584,-0.65333 -8.46053,-1.63305c-0.14495,1.43808 -0.36151,3.35348 -0.86442,4.80343c4.43961,-0.94909 8.81984,-2.13609 13.36648,-3.26999zM235.9097,196.74331c0.95899,2.90173 5.07353,1.27914 6.40088,-0.08604c3.20084,-3.29207 4.11687,-4.53401 4.00817,-8.8627l0.7902,-3.23215c-0.00176,-0.1498 -0.0046,-0.30383 -0.00894,-0.4624c0.03593,-3.11596 -1.23857,-5.64662 -0.79999,-8.80002c0.07386,-0.53107 0.93524,-0.93596 0.73223,-1.43222c-0.15736,-0.38466 -0.64427,0.54978 -1.03179,0.69995c-0.32247,0.12496 -0.81549,-0.16909 -1.03267,0.10005c-0.89594,1.11037 -0.48517,2.85385 -1.12199,4.13059c-1.58485,3.17741 -3.92336,6.21546 -6.39002,8.90125c-0.82331,2.71465 -2.46008,6.27809 -1.54608,9.04367zM272.40049,191.36772c-0.96463,0.13374 -1.82671,0.84343 -2.8005,0.8323c-1.07556,-0.01229 -2.06044,-0.61951 -3.09893,-0.89972c-0.97464,-0.26298 -2.01152,-0.46395 -3.0531,-0.68592c-0.17028,0.35941 -0.34099,0.71861 -0.51227,1.07757c2.70779,1.05474 5.56449,1.86569 8.20487,1.90878c2.14289,0.03496 4.65176,-1.52385 6.77228,-2.76452c-1.78528,0.36976 -3.69549,0.27962 -5.51236,0.53151zM261.28015,169.48679c-2.14571,2.89617 -0.76427,4.98298 -1.21242,8.61369c-0.09116,0.7385 -0.7584,1.35145 -0.76955,2.09548c-0.03116,2.07986 0.56129,3.2747 1.60722,4.05585c0.00515,-0.00774 0.01029,-0.01548 0.01544,-0.02322c1.3745,-2.93793 2.75284,-5.87382 4.20703,-8.77447c0.81214,-1.61998 2.54917,-5.7462 4.27213,-7.25409l1.8464,-2.46187c-0.14639,-0.46118 -0.14639,-0.83816 -0.14639,-0.83816c0,-0.00108 0,-0.00216 0,-0.00325l-0.1599,-0.02045l0.01118,0.0554l-4.00581,0.80861c-0.17559,0.03907 -0.35812,0.05969 -0.54548,0.05969c-0.45049,0 -0.87315,-0.11916 -1.23818,-0.32766c-0.86605,0.27634 -1.74022,0.58895 -2.63333,0.94887c0,0 -0.58889,0.23556 -1.29209,0.17276c1.09121,1.32169 0.04375,2.89283 0.04375,2.89283zM269.60002,187.20002c0.71384,-0.013 1.29325,-0.66351 1.99956,-0.76773c2.97995,-0.43974 3.13928,0.57457 5.78904,-0.61856c4.7541,-2.14067 7.84529,-4.57769 11.01137,-8.81372c3.91744,-5.22055 7.00539,-10.90874 10.23775,-16.55479c0.80451,-1.40526 1.39983,-2.92277 2.19061,-4.3358c0.17601,-0.3145 1.00034,-0.31989 0.86199,-0.65269c-0.4732,-1.13832 -2.41923,0.47576 -3.63128,0.70079c-4.1189,0.76472 -5.46796,0.6609 -9.43762,0.76404l-2.60396,1.36251c-0.12542,0.07006 -0.2575,0.12963 -0.39504,0.17753l-4.36746,1.63623c-0.05782,0.02451 -0.1818,0.07739 -0.35947,0.15314c-0.03985,0.66924 -0.34298,1.26759 -0.80725,1.69291c-0.02026,0.20932 -0.06633,0.41108 -0.135,0.60207l-0.78153,2.34463l-0.11402,-0.038l0.02457,0.26787c-0.26315,0.46468 -0.53114,0.92834 -0.80232,1.39148c-1.41268,4.26361 -4.01572,8.24803 -6.03651,12.27745l-0.14695,0.11274l0.05183,0.03583l-0.2233,0.32305c-0.89418,2.12748 -1.74287,4.27053 -2.56334,6.45878l-0.04874,0.04935l0.02369,0.01031l-0.58694,1.34846c0.2795,0.05047 0.56248,0.0774 0.8503,0.07215zM181.53231,160.49956c0.13745,-0.96218 0.20716,-1.94073 0.31136,-2.91136c-0.08442,0.0275 -0.16878,0.05533 -0.2531,0.08351c0,0 -1.65777,0.55258 -2.66334,-0.65219c-0.15722,0.87193 -0.33224,1.75964 -0.45949,2.68093c-0.29848,2.16111 0.54295,4.32933 0.81354,6.49411c0.36682,2.93458 -0.54565,3.06234 0.60499,5.69405c0.25832,0.59081 0.5741,1.18515 0.93764,1.77796c-0.44513,-4.50444 0.15316,-9.28037 0.70839,-13.16701zM185.70005,166.50001c0.0196,4.12826 -0.36314,9.3682 2.02659,13.08567c1.25118,1.94635 2.7749,2.0396 4.72824,3.15206c6.19957,3.53077 13.55727,3.9364 20.33574,6.19055c6.67956,2.3397 10.60486,-2.83761 13.92928,-7.81502c1.34502,-2.0138 3.33191,-4.50932 3.61241,-7.01371c0.13356,-1.19244 -0.02659,-2.39966 -0.03228,-3.59955c-0.00507,-1.06666 -0.06035,-2.13505 0,-3.20001c0.0385,-0.67953 0.58689,-1.40509 0.29582,-2.02034c-0.24666,-0.52137 -1.08316,-0.41105 -1.5826,-0.69953c-0.73681,-0.4256 -1.33267,-1.09188 -2.1116,-1.43435c-4.67645,-2.05609 -9.26194,-3.31792 -14.195,-4.34962c-0.64143,1.72562 -1.29163,3.44557 -1.96183,5.15323l-0.41761,1.06401c0,0 -0.91338,2.32717 -3.24056,1.41379c-2.32718,-0.91338 -1.41379,-3.24056 -1.41379,-3.24056l0.41761,-1.064c0.02962,-0.07546 0.05925,-0.15092 0.0889,-0.22638c-0.80259,-0.82533 -0.66404,-2.07232 -0.66404,-2.07232c0.17206,-1.52636 0.40155,-2.99541 0.68296,-4.42587c-6.40769,-0.02344 -12.84974,-0.23226 -19.09254,0.88443c-1.04325,3.09142 -1.42111,6.97205 -1.4057,10.21751zM173.82453,151.73176c-0.03737,-0.06218 -0.07723,-0.12235 -0.11928,-0.18076c0.01452,1.84119 0.06227,3.67341 0.21245,5.49685c0.45449,-1.74821 0.97598,-3.53696 -0.09317,-5.31609zM301.75425,166.20162c0.21128,-0.42127 0.38317,-0.86818 0.53191,-1.33043c-0.88678,1.58865 -1.82157,3.17352 -2.79111,4.74084c0.80705,-1.10543 1.64757,-2.19094 2.25919,-3.4104zM275.99511,144.44799c-0.04577,0.86121 -0.10313,1.72028 -0.16504,2.57883c0.03966,0.31788 0.07583,0.63631 0.10876,0.95523c0.04914,-0.02384 0.09819,-0.04776 0.14714,-0.07177c0.0226,-1.14515 -0.00525,-2.29823 -0.09086,-3.4623zM168.81648,147.36203l-0.62066,-0.48235c-0.19799,-3.59133 0.01156,-6.87063 0.53651,-10.38012c0.24949,-1.66798 1.37437,-3.12861 1.59998,-4.79999c0.55555,-4.11571 0.76771,-8.2054 0.76771,-12.39957c0.02749,-5.14522 0.87778,-10.55603 1.63232,-15.60043c0.55596,-3.7168 3.21314,-6.35595 4.05148,-9.84125c1.29312,-5.37601 3.12758,-9.46789 5.85393,-14.21313c1.02315,-1.78081 1.25491,-3.97909 2.43569,-5.65953c0.93018,-1.3238 2.34343,-2.23952 3.39322,-3.47063c1.55621,-1.82498 2.52479,-4.12983 4.21531,-5.83115c1.50968,-1.51932 3.41861,-2.60272 4.93312,-4.11722c5.86989,-3.94637 11.73227,-7.99255 18.22823,-10.77634c5.52458,-2.36751 12.09933,-3.45945 17.91503,-4.90657c7.83423,-1.94939 15.22461,-4.84163 23.34714,-4.86501c3.67594,0.91897 7.26216,0.51951 10.90593,1.7166c2.41017,0.79181 4.10587,2.34426 6.45597,3.21995c3.25392,1.21246 5.93735,2.54834 9.031,4.09893c0.82628,0.41414 1.849,0.40341 2.61597,0.91917c1.34193,0.90241 3.71857,3.87043 5.07063,4.99327c2.64636,2.1977 4.55082,4.10184 6.7484,6.74838c3.51276,4.23039 8.39474,7.01057 11.95529,11.14698c2.81613,3.2716 5.17392,6.95628 7.386,10.64303c3.62248,4.84676 5.59004,10.08758 7.49703,15.8044c1.4114,4.23112 3.59528,8.83921 4.10957,13.28512c0.80642,6.97136 0.99235,13.74729 -0.01355,20.70594c-0.16091,1.11312 0.23774,2.28268 -0.03459,3.37391c-0.30514,1.22267 -1.29196,2.19215 -1.65564,3.39871c-1.12096,3.71899 -1.21984,7.64632 -2.4678,11.38363c-1.47922,2.94024 -1.83635,6.03875 -3.26385,8.94165c-1.34359,2.73227 -2.62131,5.27238 -4,8c-0.76081,1.50519 -0.82596,3.30158 -1.60003,4.8c-1.69421,3.27966 -4.28409,7.6342 -6.87799,10.26941c-0.67448,0.68522 -1.72015,0.92011 -2.40002,1.59998c-0.67885,0.67885 -0.91334,1.72274 -1.59686,2.3969c-3.03767,2.99607 -7.30836,4.82286 -10.63238,7.40586c-1.24308,0.96596 -2.04451,2.45537 -3.36232,3.3166c-3.81437,2.49282 -9.94043,3.66895 -14.27723,5.11319c-7.65098,1.91719 -14.93626,4.01742 -22.69854,4.86744c-4.17654,0.45736 -10.17812,0.48033 -14.3552,0.00698c-2.64329,-0.29954 -5.17188,-1.35476 -7.82245,-1.581c-3.12189,-0.26646 -5.97558,-0.358 -9.02323,-0.82601c-3.89545,-0.5982 -8.07492,0.50671 -11.99998,0c-2.91112,-0.37581 -6.16447,-2.16039 -8.7176,-3.43164c-2.36369,-1.18368 -4.88409,-2.03596 -7.24584,-3.22352c-1.69628,-0.85295 -3.04016,-2.30996 -4.7345,-3.16675c-0.89581,-0.45299 -2.04143,-0.42433 -2.81914,-1.05904c-2.88243,-2.35244 -4.39165,-7.26027 -6.20911,-10.27244c-3.8161,-6.32461 -8.47844,-11.71561 -10.66976,-19.00197c-1.72982,-5.75181 -1.70361,-11.59076 -1.70361,-17.51234c0,0 0,-0.32362 0.11643,-0.73799z" fill="#696969" stroke-width="0.5"></path>
      <path d="M218.23228,135.46781c-0.21803,-0.21803 -0.38228,-0.43605 -0.5027,-0.65077c-0.31929,0.95786 -0.63859,1.91572 -0.9579,2.87358c0,0 -0.79061,2.37169 -3.16231,1.58107c-2.37169,-0.79062 -1.58108,-3.16231 -1.58108,-3.16231c1.3334,-3.99997 2.66663,-7.99999 3.99999,-11.99997c0.22609,-0.67825 1.72579,-5.28484 1.98496,-5.52687c4.04726,-3.7795 6.08563,-3.52341 8.3795,1.59299c1.98828,4.4348 -1.17362,8.84326 -2.42104,12.71505l-2.2039,2.57719c0,0 -1.76775,1.76779 -3.53554,0.00003zM218.81199,131.56976l0.4163,-0.26031c0.57139,-1.67103 1.87315,-3.0419 2.37901,-4.73393c0.0614,-0.20537 -0.09329,-1.57024 -0.1531,-2.90385c-0.21507,0.6769 -0.45789,1.34503 -0.68251,2.01891c-0.65326,1.95972 -1.30647,3.91944 -1.9597,5.87917z" fill="#696969" stroke-width="0.5"></path>
      <path d="M275.52808,141.76156c-0.3632,0.46132 -0.95707,0.83845 -1.92807,0.83845c-2.5,0 -2.5,-2.5 -2.5,-2.5c0.05515,-4.78299 -2.39996,-8.73807 -2.39996,-13.60001c0,-2.18402 -0.33326,-5.24217 1.31321,-7.11748c2.19726,-2.50265 6.06032,-4.15485 8.81487,-0.74429c0.98134,1.21506 0.3784,3.10269 0.4719,4.66175c0.1306,2.1777 0.80283,4.31436 0.79814,6.49596c-0.00203,0.94304 -0.7267,1.76718 -0.83042,2.7045c-0.17597,1.59029 0,3.2 0,4.79999l-0.896,2.79011c0,0 -0.71921,2.15767 -2.84366,1.671zM274.29324,132.12103c0.0105,-0.14062 0.0234,-0.28112 0.03906,-0.42146c0.08253,-0.73952 0.77161,-1.35138 0.76955,-2.09548c-0.00268,-0.9687 -0.66087,-1.83765 -0.7831,-2.79862c-0.34627,-2.72246 -0.15824,-3.08855 0.45316,-5.24367c0.10564,-0.3724 -0.59765,0.517 -0.7851,0.85569c-0.21339,0.38557 -0.28816,0.84337 -0.31905,1.28297c-0.13078,1.86178 -0.25815,3.75069 0,5.59912c0.13946,0.99855 0.36571,1.92536 0.62548,2.82145z" fill="#696969" stroke-width="0.5"></path>
      <path d="M235.20005,109.8c-2.5,0 -2.5,-2.5 -2.5,-2.5v-3.79999c0.00481,-2.86827 -0.1557,-5.75137 -0.61288,-8.58298c-0.25251,-1.56397 -0.35963,-3.15753 -0.74773,-4.69348c-0.3449,-1.36498 -0.77668,-2.72897 -1.44134,-3.97008c-2.93123,-5.47347 -8.74668,1.0286 -10.99479,3.27877c-1.15303,1.15408 -2.34789,2.26762 -3.46227,3.45907c-6.55011,7.0032 -13.90017,15.85473 -16.21567,25.31503c0,0 -0.60632,2.42536 -3.03169,1.81903c-2.42536,-0.60633 -1.81903,-3.03169 -1.81903,-3.03169c1.61771,-6.35788 5.02342,-11.68688 8.89359,-16.92075c4.47347,-6.04976 9.33321,-12.25666 15.09378,-17.16157c1.18581,-1.00968 2.35634,-2.10143 3.76359,-2.7687c1.32514,-0.62834 2.80787,-1.05643 4.27437,-1.04264c8.22078,0.07728 9.60197,8.63196 10.62286,14.91763c0.50269,3.09503 0.67234,6.24678 0.67719,9.38236v3.79999c0,0 0,2.5 -2.5,2.5z" fill="#696969" stroke-width="0.5"></path>
      <path d="M287.20005,109.00001c-2.5,0 -2.5,-2.5 -2.5,-2.5v-4.6c0.00005,-4.77697 -0.05928,-9.55005 -0.11999,-14.32658c-0.04165,-3.27698 -0.20668,-6.55313 -0.44659,-9.82158c-0.08392,-1.14333 0.01227,-6.24162 -1.42785,-7.51301c-0.49302,-0.43526 -1.37861,-0.03365 -1.95172,0.28895c-3.07927,1.73328 -4.89234,5.54066 -6.58465,8.41502c-4.69221,7.96967 -7.53185,16.25844 -10.35263,25.01171c-0.48736,1.51234 -0.63006,3.18486 -1.46154,4.53787l-0.11205,0.78431c0.48581,0.94258 0.12871,2.01387 0.12871,2.01387l-0.78175,2.3453c-0.31417,1.02156 -1.26534,1.76413 -2.38994,1.76413c-1.38071,0 -2.5,-1.11929 -2.5,-2.5c0,-0.1348 0.01067,-0.26711 0.0312,-0.39612l0.70101,-4.90718l0.03354,0.0048c0.00106,-0.07075 0.00275,-0.14153 0.00511,-0.21234c0.00133,-0.03991 3.06673,-9.57801 3.1185,-9.73638c2.97833,-9.1121 6.82197,-17.40349 11.94061,-25.51775c2.34417,-3.71608 7.48291,-9.52115 12.76443,-6.17382c3.78337,2.39784 3.52691,7.80139 3.8238,11.40084c0.67231,8.15095 0.58171,16.36178 0.58179,24.53795v4.6c0,0 0,2.5 -2.5,2.5z" fill="#696969" stroke-width="0.5"></path>
      <path d="M258.50775,215.90225l1.41933,-3.2587c0.57738,-1.54046 1.15475,-3.08091 1.73213,-4.62136c0,0 0.87782,-2.34081 3.21864,-1.463c2.34082,0.87781 1.463,3.21863 1.463,3.21863c-0.59305,1.58064 -1.18609,3.16128 -1.77913,4.74192l-1.13324,2.60516c1.17673,-0.54411 2.35189,-1.11078 3.5269,-1.69616c5.43822,-2.70924 11.12176,-8.53412 13.07291,-14.51928l0.93572,-1.92753c0,0 1.11809,-2.23604 3.35413,-1.11795c2.23604,1.11809 1.11795,3.35412 1.11795,3.35412l-0.66438,1.27249c-2.48355,7.32054 -8.9826,14.09696 -15.72702,17.48072c-13.29707,6.67131 -26.61268,10.65837 -41.64729,8.15497c-1.82196,-0.62882 -3.86853,-0.30429 -5.72186,-0.83354c-1.00139,-0.28596 -1.65714,-1.31722 -2.63221,-1.683c-1.19308,-0.44757 -2.53551,-0.34594 -3.75567,-0.71334c-0.18324,-0.05517 -0.36718,-0.11161 -0.55175,-0.16928c-0.00594,0.00301 -0.01191,0.00602 -0.0179,0.00901c-2.23609,1.118 -3.35408,-1.11809 -3.35408,-1.11809l-0.02679,-0.06843c-5.50125,-2.09051 -11.18356,-5.14284 -15.37876,-8.76413c-3.04717,-2.6303 -2.98199,-3.37341 -5.82116,-6.61816c-2.28925,-2.61629 -5.36633,-4.55935 -6.8235,-7.85593c-1.51711,-3.43221 -2.42468,-7.95609 -3.33907,-11.60499c0,0 -0.60638,-2.42535 1.81897,-3.03173c2.42534,-0.60638 3.03173,1.81897 3.03173,1.81897c0.86206,3.45645 1.71402,7.51035 3.06095,10.79497c1.08055,2.63503 4.16922,4.48387 5.97655,6.54409c0.32162,0.36662 0.60742,0.70566 0.8671,1.02307c0.13148,-1.01215 0.32801,-1.99057 0.72432,-2.82671c-1.68355,-0.94683 -1.02596,-2.91962 -1.02596,-2.91962l0.78176,-2.3453c0.31417,-1.02157 1.26534,-1.76413 2.38994,-1.76413c1.18975,0 2.1854,0.83109 2.43804,1.9444l0.78731,3.14928l-0.10023,0.02506c0.06681,0.19037 0.12554,0.38395 0.17487,0.58128c0.30766,1.23071 -0.61044,2.46375 -0.85236,3.70905c-0.18546,0.95469 -0.33912,1.9151 -0.49017,2.87598c0.29426,0.16333 2.10793,1.27433 1.0786,3.33299c-0.06662,0.13323 -0.13719,0.25455 -0.21104,0.36491c2.90941,2.26597 6.46805,4.25924 10.06574,5.83022c0.3463,-3.48197 0.8518,-6.79283 -1.37085,-9.92642c0,0 -1.38674,-2.08014 0.6934,-3.46688c2.08014,-1.38674 3.46687,0.6934 3.46687,0.6934c3.16889,4.95847 2.18023,9.25714 2.03589,14.55066c0.47016,0.1555 0.93609,0.3022 1.39633,0.43976c1.38479,0.41389 2.89097,0.37933 4.24433,0.88664c0.82581,0.30956 1.31977,1.27452 2.16772,1.51694c1.27935,0.36576 2.65147,0.30732 3.97555,0.45965v-2.06692c0.01203,-2.25171 0.59355,-4.46499 0.81872,-6.70545c0.25795,-2.56668 0.12085,-5.22911 0.90962,-7.68517c0,0 0.79061,-2.37169 3.1623,-1.58109c2.37169,0.7906 1.58109,3.16231 1.58109,3.16231c-0.74385,2.12358 -0.46773,4.47582 -0.69047,6.71486c-0.20276,2.03807 -0.79451,4.04645 -0.78126,6.09454v2.40002c0,0 0,0.17104 -0.04474,0.42366c5.59619,0.52492 10.94005,0.03297 16.1436,-1.17326c-0.6971,-0.21312 -1.16665,-0.68268 -1.16665,-0.68268l-1.4039,-3.35832c0.99643,-2.98182 1.61098,-4.31132 0.74634,-7.40309c0,0 -0.60633,-2.42536 1.81903,-3.03169c2.42536,-0.60633 3.03169,1.81903 3.03169,1.81903c0.81995,3.5684 0.55275,5.68381 -0.39298,8.76504c0.41493,0.59133 1.04426,1.90024 -0.26465,3.2091c-0.04042,0.04042 -0.08085,0.079 -0.12126,0.11579c2.98872,-0.81374 5.93588,-1.85197 8.86319,-3.05607c-1.64526,-1.08779 -0.80193,-3.02529 -0.80193,-3.02529z" fill="#696969" stroke-width="0.5"></path>
      <path d="M123.63948,105.69964l-2.05593,0.9131c-0.00745,0.01293 -0.01482,0.02591 -0.02213,0.03896c-1.34838,2.40862 -2.11547,5.11263 -3.45778,7.52463c0,0 -0.43432,0.77767 -1.24867,1.14538c-0.48656,6.12533 -2.14124,12.47842 -5.40664,17.65444c-0.22123,0.35068 -3.1386,4.96334 -3.28423,5.1413c-1.09254,1.33509 -4.17763,3.51535 -4.04811,5.63947c0.05373,0.8812 0.96391,1.50643 1.21751,2.35204c0.80304,2.67769 1.28279,4.98646 2.5157,7.63523c0.14594,0.31355 0.17646,0.81397 0.5106,0.90321c1.27222,0.33977 2.58729,-0.51486 3.898,-0.64137c1.11292,-0.06209 2.26414,-0.48235 3.33875,-0.18626c3.63562,1.00174 3.84313,3.80797 6.4663,5.51975c1.1739,0.76604 3.45007,-0.26306 3.67987,-1.63435c0.08969,-0.53522 -0.20684,-1.06577 -0.28868,-1.60224c-0.12594,-0.8256 -0.0546,-1.69618 -0.33453,-2.48302c-0.39541,-1.11139 -2.66927,-1.60976 -3.29247,-1.77935c-3.28575,-0.89417 -4.3272,0.03302 -6.16916,-3.75232c-2.17697,-4.47378 1.47851,-8.98414 2.96001,-12.87776l2.0495,-1.71143c0,0 2.2848,-1.01474 3.29954,1.27005c0.86127,1.93924 -0.65441,2.96355 -1.13258,3.22902c-1.19899,2.38757 -3.37016,5.51481 -2.61565,8.0318c1.30783,-1.22117 2.9609,-0.17359 2.9609,-0.17359c2.69243,1.70624 5.18401,3.11806 6.95074,5.35931c-1.16841,-3.71907 0.12121,-8.39752 1.56422,-12.18403l-0.00004,0.00001c0,0 0.46962,-1.22003 1.6119,-1.55601c0.72375,-1.34089 1.52248,-2.65184 2.4286,-4.08167l4.72119,1.05459c0,0 1.01474,2.2848 -1.27005,3.29954c-0.13123,0.05828 -0.25827,0.10568 -0.38117,0.14325c-1.04842,1.67478 -2.01099,3.32085 -2.78845,5.21921c0.05189,0.39327 0.56553,4.2993 0.57791,4.3277c0.97091,2.22776 3.14105,3.42348 4.74328,5.11709c3.47145,1.12803 7.52251,3.63227 6.22372,7.29516c0.94694,-0.6253 2.37796,-1.53491 2.54967,-2.46379c0.12442,-0.67308 -0.33962,-1.34614 -0.30964,-2.02996c0.03638,-0.8303 0.58346,-1.61404 0.50562,-2.44148c-0.18451,-1.96165 -3.17072,-4.31416 -4.32142,-5.60337c-0.56231,-1.32769 -1.4805,-2.55607 -1.68694,-3.98308c-0.41435,-2.86412 1.83769,-8.55132 3.34308,-10.89712c1.32773,-2.06894 4.30828,-3.08918 5.60606,-5.11589c2.47967,-3.87245 2.13918,-9.57872 1.39284,-13.83611l-0.50766,0.36164c0,0 -1.55766,-1.28341 -0.7207,-2.94349l-0.54206,-1.22049c-0.91788,-2.10823 -1.44402,-6.35975 -3.29078,-7.93605c-7.13959,-6.09395 -17.27829,-3.07586 -24.15527,1.79537c-0.0866,0.06134 -0.17466,0.12169 -0.26385,0.18131c-0.12512,1.36176 -1.52094,1.98169 -1.52094,1.98169zM114.29111,108.63691c-0.57611,0.06923 -1.15327,-0.06651 -1.63358,-0.36954c-0.67409,0.41577 -1.39006,0.82775 -2.18033,1.06915c-3.12736,0.9553 -5.73673,1.81974 -8.81154,3.05862c-0.69607,0.28046 -1.60608,0.19684 -2.12744,0.73663c-0.4572,0.47336 -0.99453,4.36109 -1.05528,4.71091c-0.74589,4.29463 0.85737,8.31634 0.51833,12.58452c-0.03392,0.42698 -0.01344,1.23716 -0.10873,2.0432c2.35753,-1.76038 5.76272,-3.98476 6.47049,-6.85551c0.47875,-1.94182 -0.38909,-4.18081 0.48352,-5.98037c0.80359,-1.65721 2.5219,-2.71591 3.49423,-4.28009l2.55041,-0.68482c0.02922,-0.38954 0.05261,-0.78185 0.07012,-1.17705c0,0 0.09827,-2.14899 2.10596,-2.36889c0.42853,-0.83727 0.79909,-1.70483 1.16013,-2.57712zM110.23308,122.03414c-0.15574,0.26635 -0.19535,0.93211 -0.18399,1.68349c0.28064,-0.82552 0.53225,-1.66054 0.75401,-2.50668c-0.20799,0.26166 -0.40091,0.53397 -0.57003,0.82319zM100.79341,137.27187c-3.46726,1.30069 -6.84456,4.00583 -9.1377,-2.17048c-0.44098,-1.18774 1.61441,-1.98277 2.16586,-3.12342c0.25316,-0.52366 0.19051,-1.1537 0.18309,-1.73529c-0.07939,-6.2148 -2.94352,-15.2224 1.90983,-20.55601c0.93351,-1.02588 2.46901,-1.26555 3.72167,-1.86113c3.1847,-1.5142 6.07669,-2.28341 9.38507,-3.27235c1.95377,-0.58403 4.41764,-2.42497 6.51334,-2.90752c0.49308,-0.19098 1.14179,-0.28647 1.8169,0.04923c0.44854,0.16916 0.86864,0.449 1.28308,0.75085c0.07939,-0.03061 0.15746,-0.06303 0.23368,-0.09802l0.06808,-0.03024c1.32389,-1.1518 3.07671,-2.493 3.57048,-2.84145c8.38278,-5.9155 21.99576,-9.65393 30.43064,-1.43944c3.07129,2.99105 2.83236,5.93992 4.50247,9.61121l0.97415,2.1934c0,0 0.34822,0.78404 0.17739,1.63753l0.97465,1.1404c0.97379,5.59154 0.98878,12.46919 -2.18945,17.51679c-1.30453,2.07183 -4.34164,3.0823 -5.60606,5.11589c-1.67456,2.69323 -2.99016,6.47549 -1.5994,9.32481c2.18708,2.32487 4.52458,4.31573 5.09756,7.72042c0.18134,1.07757 -0.41929,2.15271 -0.47067,3.24422c-0.0472,1.0027 0.46646,2.04526 0.17642,3.00626c-1.00529,3.33081 -7.55664,9.92572 -11.54726,6.2656c-1.0841,-0.99431 -0.6984,-2.77658 -0.69099,-4.3807c-0.19526,0.61754 -0.43588,1.22006 -0.70658,1.79694c-0.47762,1.01787 -1.55727,1.62787 -2.41479,2.35507c-1.01728,0.86268 -1.95762,1.91483 -3.19816,2.40486c-3.29609,1.30203 -6.52585,1.29337 -8.8303,-1.95199c-0.34611,-0.48742 -0.55379,-0.98096 -0.66559,-1.47884c-2.23786,1.26314 -4.82878,1.30971 -7.25759,0.1676c-3.1483,-1.48045 -2.98569,-5.43884 -6.92514,-4.74317c-1.05731,0.10205 -5.54133,0.59598 -6.17446,0.33074c-4.26992,-1.78872 -5.06844,-8.23747 -6.06582,-11.93336c-0.32651,-1.20991 -1.39698,-2.24397 -1.38024,-3.49706c0.05214,-3.90258 3.03528,-6.59165 5.31014,-9.41921c-1.21945,0.99554 -2.47924,1.91558 -3.63431,2.80785zM134.99413,156.3157c-1.37358,-0.58264 -2.43016,-1.33477 -3.22573,-2.2114c0.13546,0.35211 0.25834,0.72126 0.36781,1.10924c0.58887,2.08719 -1.0203,5.54635 -0.29006,7.20568c0.38132,0.86646 2.41177,0.07138 2.54106,0.0005c0.75914,-0.4162 1.33054,-1.10807 2.00149,-1.6552c1.75774,-1.43338 2.0522,-2.73551 1.60207,-3.97193c-1.11989,-0.08356 -2.21296,-0.14447 -2.99665,-0.4769z" fill="#696969" stroke-width="0.5"></path>
      <path d="M363.57455,104.71796c-0.08919,-0.05961 -0.17726,-0.11997 -0.26385,-0.18131c-6.87697,-4.87123 -17.01567,-7.88932 -24.15526,-1.79537c-1.84675,1.5763 -2.3729,5.82782 -3.29078,7.93604l-0.54206,1.22049c0.83695,1.66008 -0.72071,2.94349 -0.72071,2.94349l-0.50766,-0.36164c-0.74635,4.25739 -1.08684,9.96367 1.39283,13.83612c1.29778,2.02671 4.27834,3.04695 5.60606,5.11589c1.50539,2.3458 3.75743,8.033 3.34308,10.89712c-0.20644,1.42701 -1.12463,2.65538 -1.68694,3.98307c-1.1507,1.28921 -4.13691,3.64172 -4.32142,5.60337c-0.07783,0.82744 0.46924,1.61118 0.50563,2.44148c0.02998,0.68383 -0.43406,1.35688 -0.30964,2.02996c0.17171,0.92889 1.60273,1.8385 2.54967,2.4638c-1.2988,-3.66288 2.75226,-6.16713 6.22371,-7.29515c1.60222,-1.69361 3.77237,-2.88933 4.74328,-5.11709c0.01238,-0.0284 0.52603,-3.93443 0.57791,-4.3277c-0.77746,-1.89836 -1.74003,-3.54443 -2.78845,-5.21921c-0.1229,-0.03757 -0.24994,-0.08496 -0.38117,-0.14325c-2.2848,-1.01475 -1.27005,-3.29954 -1.27005,-3.29954l4.72119,-1.05459c0.90611,1.42983 1.70485,2.74077 2.4286,4.08166c1.14229,0.33598 1.6119,1.55602 1.6119,1.55602l-0.00004,-0.00001c1.44301,3.78652 2.73263,8.46497 1.56422,12.18403c1.76673,-2.24125 4.25831,-3.65307 6.95074,-5.35931c0,0 1.65307,-1.04758 2.9609,0.17359c0.7545,-2.51699 -1.41666,-5.64422 -2.61565,-8.0318c-0.47817,-0.26547 -1.99385,-1.28978 -1.13258,-3.22902c1.01474,-2.2848 3.29954,-1.27005 3.29954,-1.27005l2.0495,1.71143c1.4815,3.89362 5.13697,8.40398 2.96001,12.87776c-1.84196,3.78534 -2.88341,2.85814 -6.16916,3.75231c-0.6232,0.16959 -2.89706,0.66797 -3.29246,1.77936c-0.27993,0.78684 -0.20859,1.65741 -0.33453,2.48301c-0.08184,0.53647 -0.37836,1.06703 -0.28868,1.60225c0.2298,1.37129 2.50597,2.40038 3.67987,1.63434c2.62317,-1.71178 2.83068,-4.51801 6.4663,-5.51975c1.07461,-0.2961 2.22583,0.12418 3.33875,0.18626c1.31071,0.12651 2.62578,0.98113 3.898,0.64137c0.33414,-0.08924 0.36466,-0.58965 0.5106,-0.90321c1.23291,-2.64876 1.71266,-4.95753 2.5157,-7.63522c0.2536,-0.84562 1.16378,-1.47084 1.21751,-2.35204c0.12953,-2.12412 -2.95557,-4.30439 -4.04811,-5.63948c-0.14563,-0.17796 -3.063,-4.79062 -3.28422,-5.1413c-3.2654,-5.17602 -4.92008,-11.52911 -5.40665,-17.65444c-0.81435,-0.36771 -1.24867,-1.14538 -1.24867,-1.14538c-1.34231,-2.412 -2.10941,-5.11601 -3.45778,-7.52462c-0.0073,-0.01305 -0.01468,-0.02603 -0.02213,-0.03896l-2.05593,-0.9131c0,0 -1.39582,-0.61992 -1.52094,-1.98168zM373.50756,109.54655c0.36104,0.87229 0.7316,1.73986 1.16013,2.57712c2.00769,0.21989 2.10595,2.36889 2.10595,2.36889c0.01751,0.39521 0.04091,0.78751 0.07013,1.17705l2.55041,0.68482c0.97234,1.56418 2.69065,2.62288 3.49423,4.28009c0.87261,1.79956 0.00477,4.03855 0.48352,5.98037c0.70777,2.87076 4.11296,5.09512 6.4705,6.85551c-0.09529,-0.80605 -0.07481,-1.61622 -0.10873,-2.04321c-0.33904,-4.26818 1.26422,-8.28988 0.51833,-12.58451c-0.06075,-0.34982 -0.59808,-4.23755 -1.05529,-4.71091c-0.52136,-0.53979 -1.43136,-0.45618 -2.12743,-0.73663c-3.07482,-1.23887 -5.68418,-2.10332 -8.81154,-3.05862c-0.79027,-0.2414 -1.50624,-0.65339 -2.18032,-1.06915c-0.48031,0.30303 -1.05747,0.43877 -1.63358,0.36954zM377.93187,122.21095c0.22177,0.84614 0.47337,1.68116 0.75401,2.50668c0.01136,-0.75138 -0.02825,-1.41713 -0.18399,-1.68348c-0.16911,-0.28921 -0.36203,-0.56153 -0.57002,-0.82319zM384.30726,135.46403c2.27486,2.82756 5.258,5.51663 5.31014,9.41921c0.01674,1.25308 -1.05374,2.28714 -1.38024,3.49705c-0.99738,3.6959 -1.7959,10.14463 -6.06582,11.93336c-0.63313,0.26523 -5.11715,-0.22869 -6.17446,-0.33074c-3.93945,-0.69567 -3.77684,3.26272 -6.92514,4.74317c-2.42881,1.14211 -5.01972,1.09554 -7.25759,-0.1676c-0.1118,0.49788 -0.31948,0.99141 -0.66559,1.47884c-2.30445,3.24536 -5.5342,3.25402 -8.83029,1.95199c-1.24054,-0.49004 -2.18088,-1.54217 -3.19815,-2.40485c-0.85752,-0.72719 -1.93717,-1.3372 -2.4148,-2.35507c-0.2707,-0.57689 -0.51132,-1.17939 -0.70658,-1.79694c0.00741,1.60412 0.39311,3.38638 -0.69098,4.3807c-3.99063,3.66012 -10.54197,-2.9348 -11.54726,-6.2656c-0.29004,-0.961 0.22362,-2.00356 0.17642,-3.00626c-0.05138,-1.09151 -0.65202,-2.16665 -0.47067,-3.24422c0.57298,-3.40469 2.91048,-5.39555 5.09756,-7.72042c1.39076,-2.84931 0.07516,-6.63157 -1.5994,-9.3248c-1.26442,-2.03359 -4.30152,-3.04406 -5.60606,-5.1159c-3.17824,-5.0476 -3.16324,-11.92524 -2.18945,-17.51678l0.97465,-1.1404c-0.17083,-0.85349 0.17739,-1.63753 0.17739,-1.63753l0.97415,-2.19339c1.67011,-3.67129 1.43118,-6.62015 4.50247,-9.61121c8.43488,-8.21448 22.04786,-4.47605 30.43064,1.43945c0.49377,0.34844 2.24659,1.68964 3.57048,2.84144l0.06808,0.03024c0.07621,0.03499 0.15429,0.06742 0.23368,0.09802c0.41444,-0.30186 0.83453,-0.58169 1.28308,-0.75086c0.67511,-0.33571 1.32381,-0.24021 1.8169,-0.04923c2.09571,0.48256 4.55957,2.32349 6.51335,2.90752c3.30838,0.98895 6.20036,1.75815 9.38507,3.27235c1.25266,0.59558 2.78817,0.83525 3.72167,1.86113c4.85335,5.33361 1.98922,14.34122 1.90983,20.55601c-0.00742,0.58159 -0.07007,1.21164 0.18309,1.73529c0.55145,1.14065 2.60684,1.93568 2.16586,3.12342c-2.29314,6.17631 -5.67043,3.47116 -9.1377,2.17047c-1.15506,-0.89228 -2.41485,-1.81231 -3.63431,-2.80785zM353.74084,157.3157c-0.78369,0.33243 -1.87676,0.39334 -2.99665,0.4769c-0.45012,1.23641 -0.15567,2.53854 1.60208,3.97192c0.67095,0.54713 1.24234,1.239 2.00149,1.6552c0.12929,0.07088 2.15975,0.86596 2.54107,-0.0005c0.73023,-1.65932 -0.87892,-5.1185 -0.29006,-7.20569c0.10947,-0.38798 0.23235,-0.75714 0.36781,-1.10924c-0.79557,0.87663 -1.85215,1.62877 -3.22573,2.21141z" fill="#696969" stroke-width="0.5"></path>
      <path d="M126.30002,48.5c2,1.50001 0.49999,3.5 0.49999,3.5l-2.24943,2.97475c-5.09599,11.31132 -7.89824,21.88907 -9.26585,34.20131c0,0 -0.27608,2.48471 -2.76079,2.20863c-2.48471,-0.27608 -2.20863,-2.76079 -2.20863,-2.76079c1.44739,-13.02297 4.46716,-24.26575 9.9341,-36.19865l2.55062,-3.42527c0,0 1.50001,-2 3.5,-0.49999z" fill="#696969" stroke-width="0.5"></path>
      <path d="M140.86133,52.95304c2.34695,0.8613 1.48565,3.20825 1.48565,3.20825l-1.43121,3.89401c-1.83986,6.6298 -4.02772,13.18397 -5.69039,19.85103c0,0 -0.60633,2.42536 -3.03169,1.81902c-2.42536,-0.60633 -1.81902,-3.03169 -1.81902,-3.03169c1.69721,-6.77329 3.90716,-13.43516 5.78158,-20.17033l1.49684,-4.08463c0,0 0.8613,-2.34695 3.20825,-1.48565z" fill="#696969" stroke-width="0.5"></path>
      <path d="M156.77464,46.52302c2.37697,0.77461 1.60236,3.15158 1.60236,3.15158l-0.91941,2.82005c-2.75507,9.59556 -4.85446,19.21205 -7.01709,28.94766c0,0 -0.54232,2.44047 -2.98279,1.89815c-2.44047,-0.54232 -1.89815,-2.98279 -1.89815,-2.98279c2.19263,-9.86318 4.32459,-19.60652 7.11745,-29.32797l0.94605,-2.90432c0,0 0.77461,-2.37697 3.15158,-1.60236z" fill="#696969" stroke-width="0.5"></path>
      <path d="M323.38716,46.47628c2.42372,-0.61287 3.03658,1.81085 3.03658,1.81085l0.55407,2.19118c1.56571,6.21605 2.12881,12.41348 2.88448,18.76437c0.64211,5.39652 1.46511,9.04249 0.60373,14.4683c0,0 -0.41099,2.46599 -2.87698,2.05499c-2.46599,-0.41099 -2.05499,-2.87698 -2.05499,-2.87698c0.86019,-4.88152 -0.04802,-8.12613 -0.6366,-13.05446c-0.7326,-6.13419 -1.24362,-12.13046 -2.76706,-18.1305l-0.55407,-2.19118c0,0 -0.61287,-2.42372 1.81085,-3.03658z" fill="#696969" stroke-width="0.5"></path>
      <path d="M333.28191,37.06395c2.23604,-1.11809 3.35413,1.11796 3.35413,1.11796l1.01546,2.22781c1.41816,7.1046 3.85675,13.98152 4.84347,21.18146c0.69125,5.04397 0.80315,10.22921 0.80505,15.30882c0,0 0,2.5 -2.5,2.5c-2.5,0 -2.5,-2.5 -2.5,-2.5c0.00189,-4.85181 -0.09847,-9.81195 -0.75875,-14.62995c-0.97206,-7.09298 -3.39,-13.8792 -4.79268,-20.87977l-0.58464,-0.9722c0,0 -1.11809,-2.23604 1.11796,-3.35413z" fill="#696969" stroke-width="0.5"></path>
      <path d="M354.882,43.46394c2.23607,-1.11803 3.3541,1.11803 3.3541,1.11803l1.04784,2.43492c1.22066,10.71044 3.99774,21.52105 4.01608,32.28309c0,0 0,2.5 -2.5,2.5c-2.5,0 -2.5,-2.5 -2.5,-2.5c0.01955,-10.54802 -2.78709,-21.21558 -3.98392,-31.71691l-0.55214,-0.76503c0,0 -1.11803,-2.23607 1.11803,-3.3541z" fill="#696969" stroke-width="0.5"></path>
    </g>
  </g>
</svg>
