<?xml version="1.0" encoding="UTF-8"?>
<svg xmlns="http://www.w3.org/2000/svg" xmlns:xlink="http://www.w3.org/1999/xlink" version="1.1" width="61.67519" height="61.6752" viewBox="0,0,61.67519,61.6752">
  <g transform="translate(-209.1624,-149.1624)">
    <g stroke="none" stroke-miterlimit="10">
      <path d="M219.03043,210.8376c-5.44996,0 -9.86803,-4.41807 -9.86803,-9.86803v-41.93913c0,-5.44996 4.41807,-9.86804 9.86803,-9.86804h41.93913c5.44996,0 9.86803,4.41808 9.86803,9.86804v41.93913c0,5.44996 -4.41807,9.86803 -9.86803,9.86803z" fill="#393a41" fill-rule="nonzero" stroke-width="1"></path>
      <path d="M226.23636,191.74945v-23.4989h27.52729v23.4989z" fill="#ffffff" fill-rule="nonzero" stroke-width="0"></path>
      <path d="M240,198.28048c-8.61721,0 -12.92613,0 -15.60299,-2.67749c-2.67749,-2.67685 -2.67749,-6.98578 -2.67749,-15.60299c0,-8.61721 0,-12.92613 2.67749,-15.60299c2.67685,-2.67749 6.98578,-2.67749 15.60299,-2.67749c8.61721,0 12.92613,0 15.60299,2.67749c2.67749,2.67685 2.67749,6.98578 2.67749,15.60299c0,8.61721 0,12.92613 -2.67749,15.60299c-2.67685,2.67749 -6.98578,2.67749 -15.60299,2.67749zM234.46076,174.46078c0.53525,-0.53588 1.4033,-0.53588 1.93854,0l3.60069,3.60069l3.60069,-3.60069c0.53525,-0.53588 1.4033,-0.53588 1.93854,0c0.53588,0.53525 0.53588,1.4033 0,1.93855l-3.60069,3.60069l3.60069,3.60069c0.53588,0.53525 0.53588,1.40329 0,1.93917c-0.53525,0.53525 -1.4033,0.53525 -1.93854,0l-3.60069,-3.60069l-3.60069,3.60069c-0.53525,0.53525 -1.4033,0.53525 -1.93854,0c-0.53588,-0.53588 -0.53588,-1.40392 0,-1.93917l3.60006,-3.60069l-3.60006,-3.60069c-0.53588,-0.53525 -0.53588,-1.4033 0,-1.93855z" fill="#ff373a" fill-rule="evenodd" stroke-width="1"></path>
    </g>
  </g>
</svg>
