<?xml version="1.0" encoding="UTF-8"?>
<svg xmlns="http://www.w3.org/2000/svg" xmlns:xlink="http://www.w3.org/1999/xlink" version="1.1" width="480.66085" height="129.37505" viewBox="0,0,480.66085,129.37505">
  <g transform="translate(0,-38.78124)">
    <g stroke-miterlimit="10">
      <path d="M16.1719,103.4688c-8.93149,0 -16.1719,-7.24041 -16.1719,-16.1719v0c0,-8.93149 7.24041,-16.1719 16.1719,-16.1719h137.8122c8.9315,0 16.1719,7.2404 16.1719,16.1719v0c0,8.93149 -7.2404,16.1719 -16.1719,16.1719z" fill="#3fd5ff" stroke="none" stroke-width="1" stroke-linejoin="miter" stroke-dasharray=""></path>
      <path d="M16.17188,103.2344c-8.80204,0 -15.9375,-7.13546 -15.9375,-15.9375v0c0,-8.80204 7.13546,-15.9375 15.9375,-15.9375h137.813c8.80204,0 15.9375,7.13546 15.9375,15.9375v0c0,8.80204 -7.13546,15.9375 -15.9375,15.9375z" fill="none" stroke-opacity="0.43" stroke="#000000" stroke-width="0.46875" stroke-linejoin="miter" stroke-dasharray=""></path>
      <path d="M186.3281,101.125c-7.63705,0 -13.8281,-6.19105 -13.8281,-13.8281v0c0,-7.63705 6.19105,-13.8281 13.8281,-13.8281h80.6248c7.63705,0 13.8281,6.19105 13.8281,13.8281v0c0,7.63705 -6.19105,13.8281 -13.8281,13.8281z" fill="none" stroke-opacity="0.73" stroke="#00c8ff" stroke-width="4.6875" stroke-linejoin="round" stroke-dasharray="5.62,5.62"></path>
      <path d="M397.7345,103.2344c-8.80204,0 -15.9375,-7.13546 -15.9375,-15.9375v0c0,-8.80204 7.13546,-15.9375 15.9375,-15.9375h66.0938c8.80204,0 15.9375,7.13546 15.9375,15.9375v0c0,8.80204 -7.13546,15.9375 -15.9375,15.9375z" fill="none" stroke-opacity="0.43" stroke="#000000" stroke-width="0.46875" stroke-linejoin="miter" stroke-dasharray=""></path>
      <path d="M299.2969,103.4688c-8.93149,0 -16.1719,-7.24041 -16.1719,-16.1719v0c0,-8.93149 7.24041,-16.1719 16.1719,-16.1719h66.0937c8.93149,0 16.1719,7.2404 16.1719,16.1719v0c0,8.93149 -7.24041,16.1719 -16.1719,16.1719z" fill="#3fd5ff" stroke="none" stroke-width="1" stroke-linejoin="miter" stroke-dasharray=""></path>
      <path d="M299.2965,103.2344c-8.80204,0 -15.9375,-7.13546 -15.9375,-15.9375v0c0,-8.80204 7.13546,-15.9375 15.9375,-15.9375h66.0938c8.80204,0 15.9375,7.13546 15.9375,15.9375v0c0,8.80204 -7.13546,15.9375 -15.9375,15.9375z" fill="none" stroke-opacity="0.43" stroke="#000000" stroke-width="0.46875" stroke-linejoin="miter" stroke-dasharray=""></path>
      <path d="M417.4219,71.12505c-8.93149,0 -16.1719,-7.24041 -16.1719,-16.1719v0c0,-8.93149 7.24041,-16.1719 16.1719,-16.1719h46.4062c8.93149,0 16.1719,7.24041 16.1719,16.1719v0c0,8.93149 -7.24041,16.1719 -16.1719,16.1719z" fill="#ff3f42" stroke="none" stroke-width="1" stroke-linejoin="miter" stroke-dasharray=""></path>
      <path d="M417.4215,70.89062c-8.80204,0 -15.9375,-7.13546 -15.9375,-15.9375v0c0,-8.80204 7.13546,-15.9375 15.9375,-15.9375h46.4062c8.80204,0 15.9375,7.13546 15.9375,15.9375v0c0,8.80204 -7.13546,15.9375 -15.9375,15.9375z" fill="none" stroke-opacity="0.43" stroke="#000000" stroke-width="0.46875" stroke-linejoin="miter" stroke-dasharray=""></path>
      <path d="M248.6719,71.12505c-8.9315,0 -16.1719,-7.24041 -16.1719,-16.1719v0c0,-8.93149 7.2404,-16.1719 16.1719,-16.1719h58.125c8.93149,0 16.1719,7.24041 16.1719,16.1719v0c0,8.93149 -7.24041,16.1719 -16.1719,16.1719z" fill="#ff3f42" stroke="none" stroke-width="1" stroke-linejoin="miter" stroke-dasharray=""></path>
      <path d="M248.6715,70.89062c-8.80204,0 -15.9375,-7.13546 -15.9375,-15.9375v0c0,-8.80204 7.13546,-15.9375 15.9375,-15.9375h58.125c8.80204,0 15.9375,7.13546 15.9375,15.9375v0c0,8.80204 -7.13546,15.9375 -15.9375,15.9375z" fill="none" stroke-opacity="0.43" stroke="#000000" stroke-width="0.46875" stroke-linejoin="miter" stroke-dasharray=""></path>
      <path d="M16.1719,135.8126c-8.93149,0 -16.1719,-7.24041 -16.1719,-16.1719v0c0,-8.93149 7.24041,-16.1719 16.1719,-16.1719h93.7502c8.93149,0 16.1719,7.2404 16.1719,16.1719v0c0,8.93149 -7.2404,16.1719 -16.1719,16.1719z" fill="#98ff3f" stroke="none" stroke-width="1" stroke-linejoin="miter" stroke-dasharray=""></path>
      <path d="M16.17188,135.5781c-8.80204,0 -15.9375,-7.13546 -15.9375,-15.9375v0c0,-8.80204 7.13546,-15.9375 15.9375,-15.9375h93.75c8.80204,0 15.9375,7.13546 15.9375,15.9375v0c0,8.80204 -7.13546,15.9375 -15.9375,15.9375z" fill="none" stroke-opacity="0.43" stroke="#000000" stroke-width="0.46875" stroke-linejoin="miter" stroke-dasharray=""></path>
      <path d="M142.2659,135.8126c-8.9315,0 -16.1719,-7.24041 -16.1719,-16.1719v0c0,-8.93149 7.2404,-16.1719 16.1719,-16.1719h124.6872c8.93149,0 16.1719,7.2404 16.1719,16.1719v0c0,8.93149 -7.24041,16.1719 -16.1719,16.1719z" fill="#98ff3f" stroke="none" stroke-width="1" stroke-linejoin="miter" stroke-dasharray=""></path>
      <path d="M142.2655,135.5781c-8.80204,0 -15.9375,-7.13546 -15.9375,-15.9375v0c0,-8.80204 7.13546,-15.9375 15.9375,-15.9375h124.687c8.80204,0 15.9375,7.13546 15.9375,15.9375v0c0,8.80204 -7.13546,15.9375 -15.9375,15.9375z" fill="none" stroke-opacity="0.43" stroke="#000000" stroke-width="0.46875" stroke-linejoin="miter" stroke-dasharray=""></path>
      <path d="M397.7339,168.1563c-8.93149,0 -16.1719,-7.2404 -16.1719,-16.1719v0c0,-8.9315 7.24041,-16.1719 16.1719,-16.1719h66.0937c8.93149,0 16.1719,7.2404 16.1719,16.1719v0c0,8.9315 -7.24041,16.1719 -16.1719,16.1719z" fill="#ac3fff" stroke="none" stroke-width="1" stroke-linejoin="miter" stroke-dasharray=""></path>
      <path d="M397.7345,167.9219c-8.80204,0 -15.9375,-7.13546 -15.9375,-15.9375v0c0,-8.80204 7.13546,-15.9375 15.9375,-15.9375h66.0938c8.80204,0 15.9375,7.13546 15.9375,15.9375v0c0,8.80204 -7.13546,15.9375 -15.9375,15.9375z" fill="none" stroke-opacity="0.43" stroke="#000000" stroke-width="0.46875" stroke-linejoin="miter" stroke-dasharray=""></path>
      <path d="M287.1095,167.9219c-8.80204,0 -15.9375,-7.13546 -15.9375,-15.9375v0c0,-8.80204 7.13546,-15.9375 15.9375,-15.9375h78.281c8.80204,0 15.9375,7.13546 15.9375,15.9375v0c0,8.80204 -7.13546,15.9375 -15.9375,15.9375z" fill="none" stroke-opacity="0.43" stroke="#000000" stroke-width="0.46875" stroke-linejoin="miter" stroke-dasharray=""></path>
      <path d="M178.8279,168.1563c-8.9315,0 -16.1719,-7.2404 -16.1719,-16.1719v0c0,-8.9315 7.2404,-16.1719 16.1719,-16.1719h75.9372c8.9315,0 16.1719,7.2404 16.1719,16.1719v0c0,8.9315 -7.24041,16.1719 -16.1719,16.1719z" fill="#ac3fff" stroke="none" stroke-width="1" stroke-linejoin="miter" stroke-dasharray=""></path>
      <path d="M178.8285,167.9219c-8.80204,0 -15.9375,-7.13546 -15.9375,-15.9375v0c0,-8.80204 7.13546,-15.9375 15.9375,-15.9375h75.937c8.80204,0 15.9375,7.13546 15.9375,15.9375v0c0,8.80204 -7.13546,15.9375 -15.9375,15.9375z" fill="none" stroke-opacity="0.43" stroke="#000000" stroke-width="0.46875" stroke-linejoin="miter" stroke-dasharray=""></path>
      <path d="M396.969,101.125c-7.63705,0 -13.8281,-6.19105 -13.8281,-13.8281v0c0,-7.63705 6.19105,-13.8281 13.8281,-13.8281h66.6248c7.63705,0 13.8281,6.19105 13.8281,13.8281v0c0,7.63705 -6.19105,13.8281 -13.8281,13.8281z" fill="none" stroke-opacity="0.73" stroke="#00c8ff" stroke-width="4.6875" stroke-linejoin="round" stroke-dasharray="5.62,5.62"></path>
      <path d="M16.3281,165.8125c-7.63705,0 -13.8281,-6.19105 -13.8281,-13.8281v0c0,-7.63705 6.19105,-13.8281 13.8281,-13.8281h131.1248c7.63705,0 13.8281,6.19105 13.8281,13.8281v0c0,7.63705 -6.19105,13.8281 -13.8281,13.8281z" fill="none" stroke="#ac3fff" stroke-width="4.6875" stroke-linejoin="round" stroke-dasharray="5.62,5.62"></path>
      <path d="M338.77938,68.78125c-7.334,0 -13.27938,-6.19105 -13.27938,-13.8281v0c0,-7.63705 5.94538,-13.8281 13.27938,-13.8281h47.17544c7.334,0 13.27938,6.19105 13.27938,13.8281v0c0,7.63705 -5.94538,13.8281 -13.27938,13.8281z" fill="none" stroke="#ff3f42" stroke-width="4.6875" stroke-linejoin="round" stroke-dasharray="5.62,5.62"></path>
      <path d="M15.77938,68.78125c-7.334,0 -13.27938,-6.19105 -13.27938,-13.8281v0c0,-7.63705 5.94538,-13.8281 13.27938,-13.8281h202.17544c7.334,0 13.27938,6.19105 13.27938,13.8281v0c0,7.63705 -5.94538,13.8281 -13.27938,13.8281z" fill="none" stroke="#ff3f42" stroke-width="4.6875" stroke-linejoin="round" stroke-dasharray="5.62,5.62"></path>
      <path d="M285.9376,165.8125c-7.63705,0 -13.8281,-6.19105 -13.8281,-13.8281v0c0,-7.63705 6.19105,-13.8281 13.8281,-13.8281h80.6248c7.63705,0 13.8281,6.19105 13.8281,13.8281v0c0,7.63705 -6.19105,13.8281 -13.8281,13.8281z" fill="none" stroke="#ac3fff" stroke-width="4.6875" stroke-linejoin="round" stroke-dasharray="5.62,5.62"></path>
      <path d="M299.06228,133.68125c-7.334,0 -13.27938,-6.19105 -13.27938,-13.8281v0c0,-7.63705 5.94538,-13.8281 13.27938,-13.8281h52.97544c7.334,0 13.27938,6.19105 13.27938,13.8281v0c0,7.63705 -5.94538,13.8281 -13.27938,13.8281z" fill="none" stroke="#98ff3f" stroke-width="4.6875" stroke-linejoin="round" stroke-dasharray="5.62,5.62"></path>
      <path d="M383.39562,133.68125c-7.334,0 -13.27938,-6.19105 -13.27938,-13.8281v0c0,-7.63705 5.94538,-13.8281 13.27938,-13.8281h81.6421c7.334,0 13.27938,6.19105 13.27938,13.8281v0c0,7.63705 -5.94538,13.8281 -13.27938,13.8281z" fill="none" stroke="#98ff3f" stroke-width="4.6875" stroke-linejoin="round" stroke-dasharray="5.62,5.62"></path>
    </g>
  </g>
</svg>
