<?xml version="1.0" encoding="UTF-8"?>
<svg xmlns="http://www.w3.org/2000/svg" xmlns:xlink="http://www.w3.org/1999/xlink" version="1.1" width="70.85749" height="70.85748" viewBox="0,0,70.85749,70.85748">
  <g transform="translate(-204.57125,-144.57126)">
    <g stroke-miterlimit="10">
      <path d="M204.57127,197.29975c0,-13.18522 0,-29.94079 0,-37.17113c0,-6.77704 9.24868,-15.55736 16.26237,-15.55736c7.79138,0 26.20389,0 39.49432,0c8.63031,0 15.10079,11.13866 15.10079,19.04217c0,7.7889 0,24.76514 0,37.17113c0,8.35965 -5.31082,14.64418 -12.7776,14.64418c-14.11219,0 -35.92558,0 -44.14071,0c-6.21645,0 -13.93918,-8.01385 -13.93918,-18.12896z" fill="#dad5e0" stroke="none" stroke-width="0"></path>
      <path d="M231.92524,153.70381c1.06218,-0.86976 2.45173,0.17573 2.07364,1.47796c-4.20771,14.46856 1.00509,17.38583 4.41755,16.92908c5.51383,-0.00025 9.8291,-6.74415 11.89969,-11.42861c0.40775,-0.92201 1.60631,-1.23823 2.32783,-0.52245c3.89006,3.86331 9.53111,11.96938 9.53111,22.34029c0,11.47531 -9.92805,20.7783 -22.17505,20.7783c-12.24701,0 -22.17505,-9.30299 -22.17505,-20.7783c0,-13.83892 8.05259,-23.83747 14.10028,-28.79628z" fill="#ff913e" stroke="#ffffff" stroke-width="5"></path>
      <path d="M220.93334,193.48332v-22c0,0 11.97248,2.66667 18,2.66667c6.08308,0 18.33333,-2.66667 18.33333,-2.66667v22z" fill="#384150" stroke="none" stroke-width="0"></path>
      <path d="M231.92524,153.70381c1.06218,-0.86976 2.45173,0.17574 2.07364,1.47797c-4.20772,14.46856 1.00509,17.38583 4.41755,16.92908c5.51383,-0.00025 9.82909,-6.74416 11.89969,-11.42861c0.40775,-0.92201 1.6063,-1.23823 2.32782,-0.52245c3.89006,3.86331 9.53112,11.96938 9.53112,22.34029c0,11.47531 -9.92805,20.7783 -22.17505,20.7783c-12.24701,0 -22.17506,-9.30299 -22.17506,-20.7783c0,-13.83892 8.0526,-23.83747 14.10029,-28.79628zM249.05187,183.81285c-0.63698,-0.95463 -1.92785,-1.21298 -2.88276,-0.57655c-4.33744,2.89135 -9.98765,2.89135 -14.32509,0c-0.95491,-0.63643 -2.24578,-0.37808 -2.88276,0.57655c-0.6367,0.95519 -0.37836,2.24578 0.57656,2.88276c5.73391,3.82271 13.20358,3.82271 18.93749,0c0.95491,-0.63698 1.21326,-1.92757 0.57656,-2.88276zM225.14716,172.49252c-1.53063,0 -2.77161,1.86212 -2.77188,4.15779c0,2.29622 1.24097,4.15782 2.77188,4.15782c1.53091,0 2.77188,-1.8616 2.77188,-4.15782c-0.00027,-2.29567 -1.24125,-4.15779 -2.77188,-4.15779zM252.86598,172.49252c-1.53063,0 -2.77161,1.86212 -2.77188,4.15779c0,2.29622 1.24097,4.15782 2.77188,4.15782c1.53091,0 2.77188,-1.8616 2.77188,-4.15782c-0.00027,-2.29567 -1.24124,-4.15779 -2.77188,-4.15779z" fill="#ff913e" stroke="#ffffff" stroke-width="0"></path>
    </g>
  </g>
</svg>
