<?xml version="1.0" encoding="UTF-8"?>
<svg xmlns="http://www.w3.org/2000/svg" xmlns:xlink="http://www.w3.org/1999/xlink" version="1.1" width="480.00018" height="360" viewBox="0,0,480.00018,360">
  <g stroke-miterlimit="10">
    <path d="M0,360v-360h480v360z" fill="#696969" stroke="none" stroke-width="1" stroke-linejoin="miter" stroke-dasharray=""></path>
    <path d="M0,360v-330h480v330z" fill="#323339" stroke="none" stroke-width="1" stroke-linejoin="miter" stroke-dasharray=""></path>
    <path d="M0,30v-30h480v30z" fill="#1f2023" stroke="none" stroke-width="1" stroke-linejoin="miter" stroke-dasharray=""></path>
    <path d="M39.1883,8.60958v0.99057h-6.7631v4.44045h6.1483v0.9906h-6.1483v5.875h-1.1614v-12.29662zM40.7709,12.0595h1.0247v1.6566h0.0342c0.2903,-0.7002 0.649,-1.1955 1.1101,-1.4858c0.4441,-0.2733 1.0418,-0.4099 1.7762,-0.4099v1.1101c-0.5807,-0.0171 -1.0589,0.0854 -1.4346,0.2733c-0.3757,0.1878 -0.6661,0.4611 -0.8881,0.7856c-0.222,0.3245 -0.3757,0.7173 -0.4611,1.1613c-0.0854,0.4612 -0.1367,0.9223 -0.1367,1.4176v4.3379h-1.0247zM53.4264,20.9062h-1.0247v-1.2296c-0.1367,0.1537 -0.2904,0.3245 -0.4612,0.4953c-0.1708,0.1708 -0.3586,0.3245 -0.5806,0.4611c-0.2221,0.1537 -0.4953,0.2732 -0.7857,0.3757c-0.2903,0.0854 -0.6319,0.1367 -1.0247,0.1367c-0.5977,0 -1.093,-0.0854 -1.4858,-0.2562c-0.3928,-0.1537 -0.7173,-0.3928 -0.9564,-0.6832c-0.2562,-0.2903 -0.427,-0.649 -0.5295,-1.0418c-0.1195,-0.3928 -0.1708,-0.8198 -0.1708,-1.2809v-5.8238h1.0248v5.8067c0,0.7686 0.1707,1.3493 0.5294,1.7421c0.3586,0.4099 0.9393,0.6148 1.742,0.6148c0.427,0 0.8027,-0.0854 1.1443,-0.2562c0.3245,-0.1537 0.6148,-0.3928 0.8369,-0.6831c0.222,-0.2904 0.4098,-0.649 0.5294,-1.0589c0.1195,-0.4099 0.1879,-0.8539 0.1879,-1.3492v-4.8162h1.0247zM56.0166,12.0595h1.0247v1.5541h0.0342c0.1537,-0.2903 0.3416,-0.5465 0.5807,-0.7685c0.222,-0.222 0.4782,-0.4099 0.7685,-0.5636c0.2733,-0.1537 0.5636,-0.2562 0.8539,-0.3416c0.2904,-0.0854 0.5807,-0.1195 0.8711,-0.1195c0.7173,0 1.3321,0.1195 1.8274,0.3586c0.4953,0.2391 0.9222,0.5636 1.2467,0.9735c0.3245,0.427 0.5465,0.9223 0.7002,1.4859c0.1538,0.5636 0.2221,1.1784 0.2221,1.8274c0,0.6148 -0.0854,1.2126 -0.2391,1.7762c-0.1537,0.5636 -0.3928,1.0589 -0.7173,1.4858c-0.3245,0.427 -0.7344,0.7686 -1.2297,1.0247c-0.4953,0.2733 -1.093,0.3929 -1.7591,0.3929c-0.6319,0 -1.2297,-0.1367 -1.7933,-0.427c-0.5807,-0.2733 -1.0418,-0.6832 -1.3663,-1.2297v4.9016h-1.0247zM57.0413,16.517c0,0.4953 0.0683,0.9735 0.205,1.4176c0.1366,0.4611 0.3415,0.8539 0.5977,1.1784c0.2562,0.3416 0.5636,0.6148 0.9394,0.8027c0.3586,0.2049 0.7856,0.3074 1.2467,0.3074c0.5294,0 0.9906,-0.1025 1.3834,-0.3245c0.3928,-0.2049 0.7002,-0.4953 0.9564,-0.8539c0.2562,-0.3587 0.427,-0.7856 0.5465,-1.2809c0.1196,-0.4782 0.1537,-0.9906 0.1366,-1.5542c0,-0.5636 -0.0683,-1.0589 -0.222,-1.4858c-0.1537,-0.427 -0.3757,-0.7857 -0.649,-1.076c-0.2732,-0.2903 -0.5977,-0.5294 -0.9564,-0.6831c-0.3586,-0.1538 -0.7685,-0.2221 -1.1955,-0.2221c-0.4782,0 -0.9052,0.1025 -1.2809,0.2904c-0.3757,0.1878 -0.6831,0.4611 -0.9393,0.7856c-0.2562,0.3416 -0.4441,0.7344 -0.5636,1.1955c-0.1367,0.4611 -0.205,0.9735 -0.205,1.5029zM66.2694,23.3143c0.1367,0.0171 0.2733,0.0513 0.427,0.0684c0.1366,0.017 0.2733,0.0341 0.427,0.0341c0.2903,0 0.5123,-0.0854 0.7002,-0.2732c0.1879,-0.1879 0.3416,-0.3928 0.4611,-0.649c0.1196,-0.2562 0.205,-0.5295 0.2904,-0.8027c0.0854,-0.2904 0.1708,-0.5295 0.2732,-0.7173l-3.4328,-8.9151h1.1443l2.835,7.6l2.8351,-7.6h1.1101l-3.2962,8.7272c-0.2049,0.5636 -0.3928,1.0589 -0.5806,1.5029c-0.1879,0.4441 -0.3929,0.8198 -0.5978,1.1443c-0.222,0.3074 -0.444,0.5465 -0.7002,0.7173c-0.2562,0.1537 -0.5636,0.2391 -0.9223,0.2391c-0.1878,0 -0.3586,-0.0171 -0.5123,-0.0342c-0.1708,-0.017 -0.3245,-0.0512 -0.4612,-0.0853zM84.2246,8.60958c0.8027,0 1.4517,0.08539 1.9812,0.27326c0.5123,0.18787 0.9222,0.42697 1.2296,0.75146c0.2904,0.3245 0.5124,0.6832 0.6319,1.093c0.1196,0.427 0.1708,0.854 0.1708,1.3151c0,0.6831 -0.1366,1.2467 -0.4099,1.6908c-0.2903,0.444 -0.649,0.7856 -1.093,1.0418c-0.444,0.2562 -0.9393,0.444 -1.5029,0.5465c-0.5636,0.1025 -1.1443,0.1537 -1.7079,0.1537h-2.6301v5.431h-1.1614v-12.29662zM83.5586,14.4847c0.5465,0 1.0418,-0.0342 1.4687,-0.1025c0.427,-0.0683 0.8027,-0.205 1.1101,-0.3928c0.2904,-0.1879 0.5295,-0.4441 0.7003,-0.7686c0.1537,-0.3245 0.2391,-0.7344 0.2391,-1.2638c0,-0.7685 -0.2562,-1.3663 -0.7515,-1.7591c-0.5124,-0.39281 -1.3151,-0.59775 -2.4252,-0.59775h-3.0058v4.88455zM93.5894,21.1454c-0.5636,-0.0171 -1.0931,-0.1196 -1.5884,-0.3075c-0.4952,-0.1878 -0.9393,-0.4782 -1.2979,-0.871c-0.3758,-0.3928 -0.6661,-0.871 -0.8881,-1.4517c-0.2221,-0.5806 -0.3245,-1.2638 -0.3245,-2.0323c0,-0.649 0.0854,-1.2639 0.2562,-1.8275c0.1707,-0.5636 0.4269,-1.0418 0.7685,-1.4687c0.3416,-0.427 0.7685,-0.7515 1.2809,-1.0077c0.5124,-0.2391 1.1101,-0.3586 1.7933,-0.3586c0.7002,0 1.2979,0.1195 1.8103,0.3586c0.5124,0.2562 0.9393,0.5807 1.2809,0.9906c0.3416,0.427 0.5978,0.9222 0.7686,1.4858c0.1537,0.5636 0.2391,1.1785 0.2391,1.8275c0,0.7002 -0.1025,1.3492 -0.2904,1.9128c-0.1878,0.5636 -0.4611,1.0589 -0.8198,1.4687c-0.3586,0.4099 -0.8027,0.7174 -1.2979,0.9394c-0.5124,0.2391 -1.076,0.3416 -1.6908,0.3416zM96.5952,16.4829c0,-0.5295 -0.0512,-1.0077 -0.1708,-1.4688c-0.1195,-0.4611 -0.2903,-0.8539 -0.5294,-1.1955c-0.2391,-0.3245 -0.5465,-0.5978 -0.9223,-0.7856c-0.3757,-0.1879 -0.8368,-0.2904 -1.3833,-0.2904c-0.5295,0 -0.9906,0.1025 -1.3663,0.3074c-0.3928,0.2221 -0.7003,0.4953 -0.9394,0.8369c-0.2391,0.3587 -0.4098,0.7515 -0.5294,1.1955c-0.1196,0.4611 -0.1708,0.9223 -0.1708,1.4005c0,0.5465 0.0683,1.0418 0.205,1.5029c0.1195,0.4611 0.3074,0.871 0.5636,1.1955c0.2561,0.3245 0.5636,0.5807 0.9393,0.7685c0.3757,0.1879 0.8027,0.2733 1.298,0.2733c0.5294,0 0.9905,-0.1025 1.3833,-0.3245c0.3758,-0.2049 0.6832,-0.4782 0.9223,-0.8369c0.2391,-0.3586 0.4099,-0.7514 0.5294,-1.1955c0.1196,-0.444 0.1708,-0.9051 0.1708,-1.3833zM103.079,21.1454c-0.563,-0.0171 -1.093,-0.1196 -1.588,-0.3075c-0.495,-0.1878 -0.939,-0.4782 -1.298,-0.871c-0.3756,-0.3928 -0.666,-0.871 -0.888,-1.4517c-0.222,-0.5806 -0.3245,-1.2638 -0.3245,-2.0323c0,-0.649 0.0854,-1.2639 0.2562,-1.8275c0.1708,-0.5636 0.4269,-1.0418 0.7683,-1.4687c0.342,-0.427 0.769,-0.7515 1.281,-1.0077c0.512,-0.2391 1.11,-0.3586 1.793,-0.3586c0.701,0 1.298,0.1195 1.811,0.3586c0.512,0.2562 0.939,0.5807 1.281,0.9906c0.341,0.427 0.597,0.9222 0.768,1.4858c0.154,0.5636 0.239,1.1785 0.239,1.8275c0,0.7002 -0.102,1.3492 -0.29,1.9128c-0.188,0.5636 -0.461,1.0589 -0.82,1.4687c-0.358,0.4099 -0.803,0.7174 -1.298,0.9394c-0.512,0.2391 -1.076,0.3416 -1.691,0.3416zM106.085,16.4829c0,-0.5295 -0.051,-1.0077 -0.171,-1.4688c-0.119,-0.4611 -0.29,-0.8539 -0.529,-1.1955c-0.239,-0.3245 -0.547,-0.5978 -0.922,-0.7856c-0.376,-0.1879 -0.837,-0.2904 -1.384,-0.2904c-0.529,0 -0.99,0.1025 -1.366,0.3074c-0.393,0.2221 -0.7,0.4953 -0.939,0.8369c-0.239,0.3587 -0.41,0.7515 -0.53,1.1955c-0.119,0.4611 -0.17,0.9223 -0.17,1.4005c0,0.5465 0.068,1.0418 0.204,1.5029c0.12,0.4611 0.308,0.871 0.564,1.1955c0.256,0.3245 0.564,0.5807 0.939,0.7685c0.376,0.1879 0.803,0.2733 1.298,0.2733c0.53,0 0.991,-0.1025 1.384,-0.3245c0.375,-0.2049 0.683,-0.4782 0.922,-0.8369c0.239,-0.3586 0.41,-0.7514 0.529,-1.1955c0.12,-0.444 0.171,-0.9051 0.171,-1.3833zM109.171,12.0595h1.024v1.5541h0.035c0.153,-0.2903 0.341,-0.5465 0.58,-0.7685c0.222,-0.222 0.479,-0.4099 0.769,-0.5636c0.273,-0.1537 0.563,-0.2562 0.854,-0.3416c0.29,-0.0854 0.58,-0.1195 0.871,-0.1195c0.717,0 1.332,0.1195 1.827,0.3586c0.496,0.2391 0.922,0.5636 1.247,0.9735c0.324,0.427 0.546,0.9223 0.7,1.4859c0.154,0.5636 0.222,1.1784 0.222,1.8274c0,0.6148 -0.085,1.2126 -0.239,1.7762c-0.154,0.5636 -0.393,1.0589 -0.717,1.4858c-0.325,0.427 -0.735,0.7686 -1.23,1.0247c-0.495,0.2733 -1.093,0.3929 -1.759,0.3929c-0.632,0 -1.23,-0.1367 -1.793,-0.427c-0.581,-0.2733 -1.042,-0.6832 -1.367,-1.2297v4.9016h-1.024zM110.195,16.517c0,0.4953 0.069,0.9735 0.205,1.4176c0.137,0.4611 0.342,0.8539 0.598,1.1784c0.256,0.3416 0.564,0.6148 0.94,0.8027c0.358,0.2049 0.785,0.3074 1.246,0.3074c0.53,0 0.991,-0.1025 1.384,-0.3245c0.392,-0.2049 0.7,-0.4953 0.956,-0.8539c0.256,-0.3587 0.427,-0.7856 0.547,-1.2809c0.119,-0.4782 0.153,-0.9906 0.136,-1.5542c0,-0.5636 -0.068,-1.0589 -0.222,-1.4858c-0.154,-0.427 -0.376,-0.7857 -0.649,-1.076c-0.273,-0.2903 -0.598,-0.5294 -0.956,-0.6831c-0.359,-0.1538 -0.769,-0.2221 -1.196,-0.2221c-0.478,0 -0.905,0.1025 -1.281,0.2904c-0.375,0.1878 -0.683,0.4611 -0.939,0.7856c-0.256,0.3416 -0.444,0.7344 -0.564,1.1955c-0.136,0.4611 -0.205,0.9735 -0.205,1.5029zM120.09,18.1395c0.153,0.7685 0.444,1.298 0.871,1.6054c0.41,0.3245 1.007,0.4782 1.776,0.4782c0.376,0 0.7,-0.0512 0.973,-0.1366c0.274,-0.0854 0.496,-0.2221 0.683,-0.3758c0.171,-0.1537 0.308,-0.3245 0.393,-0.5123c0.086,-0.1879 0.137,-0.3928 0.137,-0.6149c0,-0.4269 -0.137,-0.7514 -0.41,-0.9734c-0.29,-0.205 -0.632,-0.3758 -1.059,-0.4953c-0.427,-0.1196 -0.871,-0.222 -1.366,-0.3074c-0.495,-0.0854 -0.939,-0.205 -1.366,-0.3758c-0.427,-0.1708 -0.769,-0.4099 -1.042,-0.7344c-0.291,-0.3245 -0.427,-0.7685 -0.427,-1.3492c0,-0.7344 0.273,-1.3492 0.82,-1.8274c0.529,-0.4611 1.298,-0.7002 2.288,-0.7002c0.957,0 1.742,0.2049 2.34,0.6319c0.598,0.427 0.956,1.1443 1.076,2.1519h-1.042c-0.085,-0.6831 -0.342,-1.1613 -0.768,-1.4517c-0.427,-0.2732 -0.974,-0.4099 -1.623,-0.4099c-0.649,0 -1.144,0.1367 -1.486,0.4099c-0.341,0.2904 -0.512,0.649 -0.512,1.1101c0,0.3928 0.136,0.7003 0.427,0.9052c0.273,0.222 0.615,0.3928 1.042,0.5124c0.427,0.1366 0.871,0.2561 1.366,0.3586c0.495,0.1025 0.939,0.2391 1.366,0.427c0.427,0.1879 0.769,0.444 1.059,0.7685c0.273,0.3245 0.41,0.7686 0.41,1.3322c0,0.4269 -0.085,0.7856 -0.273,1.1101c-0.188,0.3245 -0.427,0.5977 -0.752,0.8198c-0.324,0.222 -0.7,0.3757 -1.127,0.4952c-0.444,0.1025 -0.922,0.1538 -1.452,0.1538c-0.529,0 -0.99,-0.0684 -1.383,-0.2221c-0.41,-0.1708 -0.751,-0.3757 -1.042,-0.649c-0.29,-0.2732 -0.512,-0.5977 -0.666,-0.9564c-0.154,-0.3586 -0.256,-0.7514 -0.273,-1.1784zM132.733,12.8109c0,-0.5977 0.086,-1.1272 0.274,-1.6224c0.187,-0.4782 0.444,-0.8881 0.785,-1.24678c0.342,-0.34157 0.752,-0.61483 1.247,-0.8027c0.478,-0.18787 1.008,-0.27326 1.605,-0.27326c0.598,0 1.145,0.08539 1.606,0.25618c0.461,0.18787 0.837,0.42697 1.161,0.71731c0.308,0.29035 0.547,0.64895 0.7,1.05885c0.154,0.4099 0.239,0.8369 0.239,1.298c0,0.5294 -0.085,1.0077 -0.256,1.4175c-0.188,0.4099 -0.41,0.7686 -0.7,1.0931c-0.29,0.3245 -0.632,0.5977 -0.991,0.8539c-0.375,0.2562 -0.751,0.4782 -1.144,0.7002c-0.393,0.2221 -0.768,0.4441 -1.144,0.649c-0.376,0.205 -0.717,0.427 -1.008,0.649l-0.563,0.4611c-0.188,0.1708 -0.342,0.3587 -0.496,0.5466c-0.153,0.1878 -0.273,0.4099 -0.358,0.6319c-0.086,0.2391 -0.137,0.4953 -0.154,0.7856h6.712v0.9222h-7.873c0.017,-0.5806 0.068,-1.1101 0.188,-1.5712c0.119,-0.4611 0.358,-0.9222 0.751,-1.3663c0.427,-0.4782 0.854,-0.8881 1.315,-1.2297c0.444,-0.3415 0.888,-0.6489 1.315,-0.9222c0.427,-0.2562 0.837,-0.5124 1.23,-0.7344c0.393,-0.222 0.734,-0.4611 1.025,-0.7173c0.29,-0.2562 0.529,-0.5636 0.7,-0.8881c0.171,-0.3245 0.256,-0.7344 0.256,-1.2126c0,-0.3928 -0.068,-0.7344 -0.205,-1.0418c-0.137,-0.3074 -0.324,-0.5636 -0.564,-0.7856c-0.239,-0.222 -0.512,-0.3757 -0.836,-0.49528c-0.325,-0.10247 -0.667,-0.15371 -1.042,-0.15371c-0.393,0 -0.752,0.08539 -1.076,0.23909c-0.325,0.1708 -0.615,0.3928 -0.837,0.6661c-0.239,0.2732 -0.427,0.5977 -0.547,0.9564c-0.119,0.3586 -0.17,0.7515 -0.153,1.1613zM148.508,11.8204c-0.119,-0.6149 -0.375,-1.1101 -0.751,-1.4859c-0.376,-0.35862 -0.888,-0.54649 -1.537,-0.54649c-0.735,0 -1.315,0.17079 -1.742,0.52949c-0.427,0.3586 -0.769,0.8027 -0.991,1.3321c-0.222,0.5465 -0.376,1.1443 -0.461,1.7762c-0.085,0.6319 -0.137,1.2467 -0.188,1.8103c0.171,-0.222 0.359,-0.4611 0.547,-0.6831c0.188,-0.2221 0.393,-0.427 0.632,-0.6149c0.239,-0.1707 0.512,-0.3074 0.837,-0.4269c0.324,-0.1025 0.7,-0.1537 1.144,-0.1537c1.212,0 2.169,0.3415 2.835,1.0247c0.666,0.7002 0.99,1.6395 0.99,2.8521c0,1.2126 -0.341,2.169 -1.007,2.8693c-0.666,0.7002 -1.623,1.0418 -2.852,1.0418c-0.598,0 -1.162,-0.1025 -1.674,-0.3075c-0.512,-0.1878 -0.957,-0.5123 -1.332,-0.9735c-0.376,-0.4611 -0.666,-1.0588 -0.888,-1.7932c-0.222,-0.7344 -0.325,-1.6225 -0.325,-2.6814c0,-0.7173 0.068,-1.4687 0.188,-2.2373c0.12,-0.7685 0.359,-1.4688 0.683,-2.1007c0.325,-0.6319 0.769,-1.16132 1.332,-1.57121c0.564,-0.40988 1.281,-0.61483 2.169,-0.61483c0.957,0 1.759,0.25618 2.391,0.75146c0.632,0.49528 1.008,1.22968 1.128,2.20318zM145.964,14.2797c-0.427,0 -0.803,0.0854 -1.128,0.2391c-0.341,0.1537 -0.631,0.3757 -0.854,0.649c-0.239,0.2733 -0.426,0.5807 -0.546,0.9393c-0.12,0.3587 -0.188,0.7515 -0.188,1.1614c0,0.3416 0.051,0.6831 0.154,1.0247c0.085,0.3587 0.256,0.6661 0.478,0.9564c0.222,0.2904 0.495,0.5124 0.837,0.7002c0.341,0.1879 0.768,0.2733 1.264,0.2733c0.512,0 0.939,-0.0854 1.298,-0.2733c0.341,-0.1707 0.615,-0.4098 0.837,-0.7002c0.222,-0.2903 0.375,-0.6148 0.478,-0.9735c0.085,-0.3586 0.136,-0.7173 0.136,-1.0759c0,-0.9394 -0.222,-1.6567 -0.666,-2.169c-0.461,-0.4953 -1.161,-0.7515 -2.1,-0.7515zM155.971,16.9952v-1.0589h4.321v1.0589zM167.813,15.8339h5.004v-3.7403h1.076v8.8126h-1.076v-4.1672h-5.004v4.1672h-1.076v-8.8126h1.076zM179.65,21.1454c-0.666,0 -1.264,-0.1196 -1.776,-0.3758c-0.53,-0.2391 -0.957,-0.5636 -1.315,-0.9905c-0.359,-0.427 -0.615,-0.9223 -0.803,-1.4859c-0.188,-0.5636 -0.273,-1.1613 -0.273,-1.7933c0,-0.6319 0.085,-1.2296 0.273,-1.7932c0.188,-0.5636 0.444,-1.0589 0.803,-1.4859c0.358,-0.4269 0.785,-0.7514 1.315,-1.0076c0.512,-0.2562 1.11,-0.3757 1.776,-0.3757c0.666,0 1.264,0.1195 1.793,0.3757c0.513,0.2562 0.94,0.5807 1.298,1.0076c0.359,0.427 0.615,0.9223 0.803,1.4859c0.188,0.5636 0.273,1.1613 0.273,1.7932c0,0.632 -0.085,1.2297 -0.273,1.7933c-0.188,0.5636 -0.444,1.0589 -0.803,1.4859c-0.358,0.4269 -0.785,0.7514 -1.298,0.9905c-0.529,0.2562 -1.127,0.3758 -1.793,0.3758zM179.65,20.2573c0.512,0 0.956,-0.1025 1.349,-0.3245c0.393,-0.2221 0.718,-0.4953 0.974,-0.854c0.256,-0.3586 0.444,-0.7514 0.58,-1.2126c0.12,-0.444 0.188,-0.9051 0.188,-1.3663c0,-0.4611 -0.068,-0.9222 -0.188,-1.3833c-0.136,-0.4441 -0.324,-0.8369 -0.58,-1.1955c-0.256,-0.3587 -0.581,-0.632 -0.974,-0.854c-0.393,-0.222 -0.837,-0.3245 -1.349,-0.3245c-0.512,0 -0.956,0.1025 -1.349,0.3245c-0.393,0.222 -0.7,0.4953 -0.957,0.854c-0.256,0.3586 -0.461,0.7514 -0.58,1.1955c-0.137,0.4611 -0.205,0.9222 -0.205,1.3833c0,0.4612 0.068,0.9223 0.205,1.3663c0.119,0.4612 0.324,0.854 0.58,1.2126c0.257,0.3587 0.564,0.6319 0.957,0.854c0.393,0.222 0.837,0.3245 1.349,0.3245zM189.43,12.0936c0.906,0 1.589,0.1708 2.084,0.5295c0.495,0.3586 0.734,0.871 0.734,1.5541c0,0.5295 -0.136,0.9564 -0.392,1.3151c-0.274,0.3587 -0.649,0.5978 -1.128,0.7344v0.0341c0.581,0.1025 1.042,0.3245 1.367,0.6832c0.324,0.3586 0.495,0.8539 0.495,1.5029c0,0.8027 -0.273,1.4005 -0.803,1.8274c-0.529,0.427 -1.315,0.6319 -2.357,0.6319h-4.03v-8.8126zM189.311,15.9022c0.615,0 1.076,-0.1366 1.4,-0.3928c0.308,-0.2562 0.461,-0.6149 0.461,-1.0589c0,-0.9735 -0.614,-1.4517 -1.861,-1.4517h-2.835v2.9034zM189.311,20.0011c0.751,0 1.315,-0.1367 1.674,-0.427c0.358,-0.2732 0.529,-0.6831 0.529,-1.2467c0,-0.5124 -0.171,-0.9052 -0.529,-1.1785c-0.359,-0.2732 -0.923,-0.4099 -1.674,-0.4099h-2.835v3.2621zM195.299,15.6289h2.852c0.854,0 1.537,0.2221 2.032,0.6832c0.495,0.4611 0.752,1.093 0.752,1.9299c0,0.8368 -0.257,1.4858 -0.752,1.9469c-0.495,0.4782 -1.178,0.7173 -2.032,0.7173h-3.928v-8.8126h1.076zM203.667,20.9062h-1.076v-8.8126h1.076zM197.895,20.0011c0.614,0 1.093,-0.1537 1.451,-0.4441c0.342,-0.2903 0.513,-0.7344 0.513,-1.315c0,-0.5807 -0.171,-1.0077 -0.513,-1.298c-0.358,-0.2733 -0.837,-0.4099 -1.451,-0.4099h-2.596v3.467zM209.284,10.7957c-0.717,0 -1.281,-0.1879 -1.673,-0.5807c-0.393,-0.37575 -0.649,-0.92227 -0.735,-1.63958h0.666c0.052,0.42697 0.239,0.76854 0.547,1.02473c0.29,0.25618 0.7,0.37573 1.212,0.37573c0.496,0 0.889,-0.11955 1.213,-0.37573c0.307,-0.23911 0.512,-0.58068 0.598,-1.02473h0.666c-0.12,0.71731 -0.393,1.26383 -0.803,1.63958c-0.41,0.3928 -0.973,0.5807 -1.691,0.5807zM206.757,19.6424l4.867,-7.5488h1.332v8.8126h-1.076v-7.5487l-4.867,7.5487h-1.332v-8.8126h1.076zM226.76,20.9062h-1.076v-7.9074h-4.884v7.9074h-1.076v-8.8126h7.036zM229.788,13.7674h0.034c0.256,-0.6149 0.666,-1.0931 1.23,-1.4347c0.563,-0.3245 1.195,-0.4952 1.913,-0.4952c0.666,0 1.264,0.1195 1.759,0.3757c0.495,0.2562 0.905,0.5807 1.229,1.0076c0.325,0.427 0.581,0.9223 0.735,1.4859c0.154,0.5636 0.239,1.1613 0.239,1.7932c0,0.632 -0.085,1.2297 -0.239,1.7933c-0.154,0.5636 -0.41,1.0418 -0.735,1.4688c-0.324,0.4269 -0.734,0.7685 -1.229,1.0076c-0.495,0.2562 -1.093,0.3758 -1.759,0.3758c-0.325,0 -0.649,-0.0342 -0.957,-0.1196c-0.324,-0.0854 -0.615,-0.2049 -0.888,-0.3587c-0.273,-0.1537 -0.512,-0.3586 -0.717,-0.5977c-0.222,-0.2391 -0.376,-0.5124 -0.495,-0.8369h-0.035v4.9187h-1.076v-12.0576h0.991zM232.965,20.2573c0.512,0 0.956,-0.1196 1.315,-0.3416c0.358,-0.222 0.666,-0.4953 0.905,-0.854c0.222,-0.3586 0.393,-0.7514 0.512,-1.2125c0.103,-0.4441 0.154,-0.8881 0.154,-1.3493c0,-0.4611 -0.051,-0.9051 -0.154,-1.3663c-0.119,-0.444 -0.29,-0.8368 -0.512,-1.1955c-0.239,-0.3586 -0.547,-0.649 -0.905,-0.871c-0.359,-0.222 -0.803,-0.3245 -1.315,-0.3245c-0.598,0 -1.093,0.1025 -1.486,0.3074c-0.393,0.205 -0.717,0.4782 -0.957,0.8198c-0.239,0.3416 -0.409,0.7344 -0.495,1.1955c-0.102,0.4612 -0.154,0.9394 -0.154,1.4346c0,0.4612 0.052,0.9052 0.171,1.3493c0.103,0.4611 0.273,0.8539 0.53,1.2125c0.239,0.3587 0.563,0.632 0.956,0.854c0.393,0.222 0.871,0.3416 1.435,0.3416zM242.328,21.1454c-0.667,0 -1.264,-0.1196 -1.777,-0.3758c-0.529,-0.2391 -0.956,-0.5636 -1.315,-0.9905c-0.358,-0.427 -0.615,-0.9223 -0.802,-1.4859c-0.188,-0.5636 -0.274,-1.1613 -0.274,-1.7933c0,-0.6319 0.086,-1.2296 0.274,-1.7932c0.187,-0.5636 0.444,-1.0589 0.802,-1.4859c0.359,-0.4269 0.786,-0.7514 1.315,-1.0076c0.513,-0.2562 1.11,-0.3757 1.777,-0.3757c0.666,0 1.263,0.1195 1.793,0.3757c0.512,0.2562 0.939,0.5807 1.298,1.0076c0.358,0.427 0.615,0.9223 0.802,1.4859c0.188,0.5636 0.274,1.1613 0.274,1.7932c0,0.632 -0.086,1.2297 -0.274,1.7933c-0.187,0.5636 -0.444,1.0589 -0.802,1.4859c-0.359,0.4269 -0.786,0.7514 -1.298,0.9905c-0.53,0.2562 -1.127,0.3758 -1.793,0.3758zM242.328,20.2573c0.512,0 0.956,-0.1025 1.349,-0.3245c0.393,-0.2221 0.717,-0.4953 0.973,-0.854c0.256,-0.3586 0.444,-0.7514 0.581,-1.2126c0.119,-0.444 0.188,-0.9051 0.188,-1.3663c0,-0.4611 -0.069,-0.9222 -0.188,-1.3833c-0.137,-0.4441 -0.325,-0.8369 -0.581,-1.1955c-0.256,-0.3587 -0.58,-0.632 -0.973,-0.854c-0.393,-0.222 -0.837,-0.3245 -1.349,-0.3245c-0.513,0 -0.957,0.1025 -1.35,0.3245c-0.392,0.222 -0.7,0.4953 -0.956,0.854c-0.256,0.3586 -0.461,0.7514 -0.581,1.1955c-0.136,0.4611 -0.205,0.9222 -0.205,1.3833c0,0.4612 0.069,0.9223 0.205,1.3663c0.12,0.4612 0.325,0.854 0.581,1.2126c0.256,0.3587 0.564,0.6319 0.956,0.854c0.393,0.222 0.837,0.3245 1.35,0.3245zM251.63,21.1454c-0.701,0 -1.315,-0.1196 -1.811,-0.3758c-0.495,-0.2391 -0.905,-0.5807 -1.229,-1.0076c-0.325,-0.427 -0.547,-0.9052 -0.701,-1.4688c-0.153,-0.5636 -0.239,-1.1613 -0.239,-1.7933c0,-0.5806 0.086,-1.1442 0.239,-1.7078c0.154,-0.5636 0.376,-1.0589 0.701,-1.503c0.324,-0.4269 0.734,-0.7856 1.229,-1.0588c0.496,-0.2562 1.11,-0.3928 1.811,-0.3928c0.7,0 1.315,0.1366 1.81,0.4269c0.495,0.2904 0.905,0.649 1.23,1.1101c0.307,0.4612 0.529,0.9906 0.666,1.5884c0.136,0.5977 0.188,1.2125 0.171,1.8274h-6.781c0,0.3928 0.052,0.8027 0.171,1.2126c0.103,0.4099 0.273,0.7856 0.512,1.1101c0.24,0.3245 0.547,0.5977 0.906,0.8198c0.358,0.222 0.802,0.3245 1.315,0.3245c0.785,0 1.4,-0.205 1.844,-0.6149c0.444,-0.4099 0.752,-0.9564 0.922,-1.6395h1.076c-0.222,1.0076 -0.649,1.7762 -1.246,2.3227c-0.615,0.5465 -1.486,0.8198 -2.596,0.8198zM254.431,15.8851c-0.017,-0.4099 -0.086,-0.8027 -0.205,-1.1784c-0.137,-0.3758 -0.325,-0.7173 -0.564,-1.0077c-0.239,-0.2903 -0.529,-0.5123 -0.871,-0.7002c-0.342,-0.1708 -0.734,-0.2562 -1.161,-0.2562c-0.444,0 -0.837,0.0854 -1.179,0.2562c-0.341,0.1879 -0.632,0.4099 -0.871,0.7002c-0.239,0.2904 -0.427,0.6319 -0.563,1.0077c-0.154,0.3928 -0.239,0.7856 -0.291,1.1784zM258.027,16.6195l4.884,-4.5259h1.435l-3.741,3.4499l3.963,5.3627h-1.349l-3.399,-4.6283l-1.793,1.6567v2.9716h-1.076v-8.8126h1.076zM264.415,12.0936h7.6v0.9052h-3.262v7.9074h-1.076v-7.9074h-3.262zM283.025,19.9669c-0.188,0.3416 -0.495,0.6149 -0.888,0.8369c-0.393,0.2391 -0.837,0.3416 -1.315,0.3416c-0.461,0 -0.905,-0.1025 -1.315,-0.3075c-0.41,-0.2049 -0.769,-0.5123 -1.076,-0.9051c-0.324,-0.3928 -0.564,-0.8711 -0.751,-1.4346c-0.188,-0.5636 -0.274,-1.2297 -0.274,-1.9641c0,-1.5542 0.308,-2.7326 0.923,-3.5182c0.597,-0.7856 1.434,-1.1784 2.51,-1.1784c0.478,0 0.905,0.1024 1.281,0.3074c0.376,0.222 0.683,0.5123 0.905,0.8881h0.034v-4.32095h1.076v4.32095h0.034c0.222,-0.3758 0.53,-0.6661 0.906,-0.8881c0.375,-0.205 0.802,-0.3074 1.281,-0.3074c1.075,0 1.912,0.3928 2.527,1.1784c0.598,0.7856 0.905,1.964 0.905,3.5182c0,0.7344 -0.085,1.4005 -0.273,1.9641c-0.188,0.5635 -0.427,1.0418 -0.734,1.4346c-0.325,0.3928 -0.683,0.7002 -1.093,0.9051c-0.427,0.205 -0.854,0.3075 -1.315,0.3075c-0.479,0 -0.923,-0.1025 -1.315,-0.3416c-0.393,-0.222 -0.701,-0.4953 -0.889,-0.8369c-0.017,0.0171 -0.017,0.0171 -0.034,0v4.1843h-1.076v-4.1843zM281.095,20.2402c0.564,0 1.025,-0.1708 1.401,-0.5295c0.375,-0.3415 0.563,-0.8027 0.563,-1.3833v-3.7061c0,-0.2733 -0.051,-0.5295 -0.153,-0.7515c-0.103,-0.222 -0.239,-0.4269 -0.41,-0.5977c-0.171,-0.1708 -0.376,-0.3074 -0.615,-0.3928c-0.239,-0.0854 -0.495,-0.1367 -0.769,-0.1367c-0.358,0 -0.7,0.0683 -1.024,0.205c-0.325,0.1537 -0.598,0.3757 -0.837,0.6831c-0.239,0.3074 -0.427,0.7002 -0.564,1.1785c-0.136,0.4782 -0.205,1.0588 -0.205,1.7249c0,0.649 0.069,1.2126 0.188,1.6737c0.12,0.4782 0.308,0.871 0.547,1.1614c0.222,0.2903 0.495,0.5123 0.819,0.649c0.325,0.1537 0.666,0.222 1.059,0.222zM286.099,20.2402c0.393,0 0.735,-0.0683 1.059,-0.222c0.325,-0.1367 0.598,-0.3587 0.82,-0.649c0.222,-0.2904 0.41,-0.6832 0.547,-1.1614c0.119,-0.4611 0.187,-1.0247 0.187,-1.6737c0,-0.6661 -0.068,-1.2467 -0.205,-1.7249c-0.136,-0.4783 -0.324,-0.8711 -0.563,-1.1785c-0.239,-0.3074 -0.513,-0.5294 -0.837,-0.6831c-0.325,-0.1367 -0.666,-0.205 -1.025,-0.205c-0.273,0 -0.529,0.0513 -0.768,0.1367c-0.239,0.0854 -0.444,0.222 -0.615,0.3928c-0.171,0.1708 -0.308,0.3757 -0.41,0.5977c-0.102,0.222 -0.154,0.4782 -0.154,0.7515v3.7061c0,0.5806 0.188,1.0418 0.564,1.3833c0.376,0.3587 0.837,0.5295 1.4,0.5295zM291.339,20.9916c-0.051,0 -0.119,0 -0.205,-0.017l-0.239,-0.0342c-0.085,-0.0171 -0.171,-0.0171 -0.239,-0.0512c-0.085,-0.0171 -0.137,-0.0171 -0.171,-0.0342v-0.9393c0.086,0.0341 0.222,0.0683 0.41,0.0854c0.188,0.0171 0.342,0.0341 0.461,0.0341c0.12,0 0.239,-0.017 0.376,-0.0512c0.137,-0.0342 0.273,-0.1366 0.41,-0.2903c0.137,-0.1537 0.273,-0.3928 0.393,-0.7173c0.119,-0.3245 0.239,-0.7857 0.324,-1.3834c0.086,-0.5807 0.171,-1.3151 0.222,-2.2203c0.051,-0.888 0.086,-1.9811 0.086,-3.2791h5.892v8.8126h-1.076v-7.9074h-3.775c0,1.2809 -0.034,2.3569 -0.102,3.245c-0.085,0.8881 -0.188,1.6224 -0.325,2.2202c-0.136,0.5977 -0.29,1.0589 -0.478,1.4004c-0.188,0.3416 -0.375,0.5978 -0.58,0.7515c-0.222,0.1708 -0.444,0.2733 -0.667,0.3245c-0.239,0.0342 -0.478,0.0512 -0.717,0.0512zM304.634,21.1454c-0.7,0 -1.315,-0.1196 -1.811,-0.3758c-0.495,-0.2391 -0.905,-0.5807 -1.229,-1.0076c-0.325,-0.427 -0.547,-0.9052 -0.7,-1.4688c-0.154,-0.5636 -0.24,-1.1613 -0.24,-1.7933c0,-0.5806 0.086,-1.1442 0.24,-1.7078c0.153,-0.5636 0.375,-1.0589 0.7,-1.503c0.324,-0.4269 0.734,-0.7856 1.229,-1.0588c0.496,-0.2562 1.111,-0.3928 1.811,-0.3928c0.7,0 1.315,0.1366 1.81,0.4269c0.495,0.2904 0.905,0.649 1.23,1.1101c0.307,0.4612 0.529,0.9906 0.666,1.5884c0.136,0.5977 0.188,1.2125 0.171,1.8274h-6.781c0,0.3928 0.052,0.8027 0.171,1.2126c0.103,0.4099 0.273,0.7856 0.513,1.1101c0.239,0.3245 0.546,0.5977 0.905,0.8198c0.358,0.222 0.802,0.3245 1.315,0.3245c0.785,0 1.4,-0.205 1.844,-0.6149c0.444,-0.4099 0.752,-0.9564 0.922,-1.6395h1.076c-0.222,1.0076 -0.649,1.7762 -1.246,2.3227c-0.615,0.5465 -1.486,0.8198 -2.596,0.8198zM307.435,15.8851c-0.017,-0.4099 -0.086,-0.8027 -0.205,-1.1784c-0.137,-0.3758 -0.325,-0.7173 -0.564,-1.0077c-0.239,-0.2903 -0.529,-0.5123 -0.871,-0.7002c-0.341,-0.1708 -0.734,-0.2562 -1.161,-0.2562c-0.444,0 -0.837,0.0854 -1.179,0.2562c-0.341,0.1879 -0.632,0.4099 -0.871,0.7002c-0.239,0.2904 -0.427,0.6319 -0.563,1.0077c-0.154,0.3928 -0.239,0.7856 -0.291,1.1784zM311.031,16.6195l4.884,-4.5259h1.435l-3.74,3.4499l3.962,5.3627h-1.349l-3.399,-4.6283l-1.793,1.6567v2.9716h-1.076v-8.8126h1.076z" fill="#ffffff" stroke="none" stroke-width="1" stroke-linejoin="miter" stroke-dasharray=""></path>
    <path d="M12.1875,22.50005c-2.58883,0 -4.6875,-2.09867 -4.6875,-4.6875v-6.0938c0,-2.58883 2.09867,-4.6875 4.6875,-4.6875h6.0938c2.58883,0 4.6875,2.09867 4.6875,4.6875v6.0938c0,2.58883 -2.09867,4.6875 -4.6875,4.6875z" fill="#fe8019" stroke="none" stroke-width="1" stroke-linejoin="miter" stroke-dasharray=""></path>
    <path d="M461.7185,22.50005c-2.58884,0 -4.6875,-2.09867 -4.6875,-4.6875v-6.0938c0,-2.58883 2.09866,-4.6875 4.6875,-4.6875h6.0938c2.58884,0 4.6875,2.09867 4.6875,4.6875v6.0938c0,2.58883 -2.09866,4.6875 -4.6875,4.6875z" fill="#e92424" stroke="none" stroke-width="1" stroke-linejoin="miter" stroke-dasharray=""></path>
    <path d="M441.5625,22.50005c-2.58884,0 -4.6875,-2.09867 -4.6875,-4.6875v-6.0938c0,-2.58883 2.09866,-4.6875 4.6875,-4.6875h6.0938c2.58884,0 4.6875,2.09867 4.6875,4.6875v6.0938c0,2.58883 -2.09866,4.6875 -4.6875,4.6875z" fill="#e9e924" stroke="none" stroke-width="1" stroke-linejoin="miter" stroke-dasharray=""></path>
    <path d="M421.4065,22.50005c-2.58884,0 -4.6875,-2.09867 -4.6875,-4.6875v-6.0938c0,-2.58883 2.09866,-4.6875 4.6875,-4.6875h6.0938c2.58884,0 4.6875,2.09867 4.6875,4.6875v6.0938c0,2.58883 -2.09866,4.6875 -4.6875,4.6875z" fill="#3be924" stroke="none" stroke-width="1" stroke-linejoin="miter" stroke-dasharray=""></path>
    <path d="M16.1719,103.4688c-8.93149,0 -16.1719,-7.24041 -16.1719,-16.1719v0c0,-8.93149 7.24041,-16.1719 16.1719,-16.1719h137.8122c8.9315,0 16.1719,7.2404 16.1719,16.1719v0c0,8.93149 -7.2404,16.1719 -16.1719,16.1719z" fill="#3fd5ff" stroke="none" stroke-width="1" stroke-linejoin="miter" stroke-dasharray=""></path>
    <path d="M16.17188,103.2344c-8.80204,0 -15.9375,-7.13546 -15.9375,-15.9375v0c0,-8.80204 7.13546,-15.9375 15.9375,-15.9375h137.813c8.80204,0 15.9375,7.13546 15.9375,15.9375v0c0,8.80204 -7.13546,15.9375 -15.9375,15.9375z" fill="none" stroke-opacity="0.43" stroke="#000000" stroke-width="0.46875" stroke-linejoin="miter" stroke-dasharray=""></path>
    <path d="M186.3281,101.125c-7.63705,0 -13.8281,-6.19105 -13.8281,-13.8281v0c0,-7.63705 6.19105,-13.8281 13.8281,-13.8281h80.6248c7.63705,0 13.8281,6.19105 13.8281,13.8281v0c0,7.63705 -6.19105,13.8281 -13.8281,13.8281z" fill="none" stroke-opacity="0.73" stroke="#00c8ff" stroke-width="4.6875" stroke-linejoin="round" stroke-dasharray="5.62,5.62"></path>
    <path d="M397.7345,103.2344c-8.80204,0 -15.9375,-7.13546 -15.9375,-15.9375v0c0,-8.80204 7.13546,-15.9375 15.9375,-15.9375h66.0938c8.80204,0 15.9375,7.13546 15.9375,15.9375v0c0,8.80204 -7.13546,15.9375 -15.9375,15.9375z" fill="none" stroke-opacity="0.43" stroke="#000000" stroke-width="0.46875" stroke-linejoin="miter" stroke-dasharray=""></path>
    <path d="M299.2969,103.4688c-8.93149,0 -16.1719,-7.24041 -16.1719,-16.1719v0c0,-8.93149 7.24041,-16.1719 16.1719,-16.1719h66.0937c8.93149,0 16.1719,7.2404 16.1719,16.1719v0c0,8.93149 -7.24041,16.1719 -16.1719,16.1719z" fill="#3fd5ff" stroke="none" stroke-width="1" stroke-linejoin="miter" stroke-dasharray=""></path>
    <path d="M299.2965,103.2344c-8.80204,0 -15.9375,-7.13546 -15.9375,-15.9375v0c0,-8.80204 7.13546,-15.9375 15.9375,-15.9375h66.0938c8.80204,0 15.9375,7.13546 15.9375,15.9375v0c0,8.80204 -7.13546,15.9375 -15.9375,15.9375z" fill="none" stroke-opacity="0.43" stroke="#000000" stroke-width="0.46875" stroke-linejoin="miter" stroke-dasharray=""></path>
    <path d="M417.4219,71.12505c-8.93149,0 -16.1719,-7.24041 -16.1719,-16.1719v0c0,-8.93149 7.24041,-16.1719 16.1719,-16.1719h46.4062c8.93149,0 16.1719,7.24041 16.1719,16.1719v0c0,8.93149 -7.24041,16.1719 -16.1719,16.1719z" fill="#ff3f42" stroke="none" stroke-width="1" stroke-linejoin="miter" stroke-dasharray=""></path>
    <path d="M417.4215,70.89062c-8.80204,0 -15.9375,-7.13546 -15.9375,-15.9375v0c0,-8.80204 7.13546,-15.9375 15.9375,-15.9375h46.4062c8.80204,0 15.9375,7.13546 15.9375,15.9375v0c0,8.80204 -7.13546,15.9375 -15.9375,15.9375z" fill="none" stroke-opacity="0.43" stroke="#000000" stroke-width="0.46875" stroke-linejoin="miter" stroke-dasharray=""></path>
    <path d="M248.6719,71.12505c-8.9315,0 -16.1719,-7.24041 -16.1719,-16.1719v0c0,-8.93149 7.2404,-16.1719 16.1719,-16.1719h58.125c8.93149,0 16.1719,7.24041 16.1719,16.1719v0c0,8.93149 -7.24041,16.1719 -16.1719,16.1719z" fill="#ff3f42" stroke="none" stroke-width="1" stroke-linejoin="miter" stroke-dasharray=""></path>
    <path d="M248.6715,70.89062c-8.80204,0 -15.9375,-7.13546 -15.9375,-15.9375v0c0,-8.80204 7.13546,-15.9375 15.9375,-15.9375h58.125c8.80204,0 15.9375,7.13546 15.9375,15.9375v0c0,8.80204 -7.13546,15.9375 -15.9375,15.9375z" fill="none" stroke-opacity="0.43" stroke="#000000" stroke-width="0.46875" stroke-linejoin="miter" stroke-dasharray=""></path>
    <path d="M16.1719,135.8126c-8.93149,0 -16.1719,-7.24041 -16.1719,-16.1719v0c0,-8.93149 7.24041,-16.1719 16.1719,-16.1719h93.7502c8.93149,0 16.1719,7.2404 16.1719,16.1719v0c0,8.93149 -7.2404,16.1719 -16.1719,16.1719z" fill="#98ff3f" stroke="none" stroke-width="1" stroke-linejoin="miter" stroke-dasharray=""></path>
    <path d="M16.17188,135.5781c-8.80204,0 -15.9375,-7.13546 -15.9375,-15.9375v0c0,-8.80204 7.13546,-15.9375 15.9375,-15.9375h93.75c8.80204,0 15.9375,7.13546 15.9375,15.9375v0c0,8.80204 -7.13546,15.9375 -15.9375,15.9375z" fill="none" stroke-opacity="0.43" stroke="#000000" stroke-width="0.46875" stroke-linejoin="miter" stroke-dasharray=""></path>
    <path d="M142.2659,135.8126c-8.9315,0 -16.1719,-7.24041 -16.1719,-16.1719v0c0,-8.93149 7.2404,-16.1719 16.1719,-16.1719h124.6872c8.93149,0 16.1719,7.2404 16.1719,16.1719v0c0,8.93149 -7.24041,16.1719 -16.1719,16.1719z" fill="#98ff3f" stroke="none" stroke-width="1" stroke-linejoin="miter" stroke-dasharray=""></path>
    <path d="M142.2655,135.5781c-8.80204,0 -15.9375,-7.13546 -15.9375,-15.9375v0c0,-8.80204 7.13546,-15.9375 15.9375,-15.9375h124.687c8.80204,0 15.9375,7.13546 15.9375,15.9375v0c0,8.80204 -7.13546,15.9375 -15.9375,15.9375z" fill="none" stroke-opacity="0.43" stroke="#000000" stroke-width="0.46875" stroke-linejoin="miter" stroke-dasharray=""></path>
    <path d="M397.7339,168.1563c-8.93149,0 -16.1719,-7.2404 -16.1719,-16.1719v0c0,-8.9315 7.24041,-16.1719 16.1719,-16.1719h66.0937c8.93149,0 16.1719,7.2404 16.1719,16.1719v0c0,8.9315 -7.24041,16.1719 -16.1719,16.1719z" fill="#ac3fff" stroke="none" stroke-width="1" stroke-linejoin="miter" stroke-dasharray=""></path>
    <path d="M397.7345,167.9219c-8.80204,0 -15.9375,-7.13546 -15.9375,-15.9375v0c0,-8.80204 7.13546,-15.9375 15.9375,-15.9375h66.0938c8.80204,0 15.9375,7.13546 15.9375,15.9375v0c0,8.80204 -7.13546,15.9375 -15.9375,15.9375z" fill="none" stroke-opacity="0.43" stroke="#000000" stroke-width="0.46875" stroke-linejoin="miter" stroke-dasharray=""></path>
    <path d="M287.1095,167.9219c-8.80204,0 -15.9375,-7.13546 -15.9375,-15.9375v0c0,-8.80204 7.13546,-15.9375 15.9375,-15.9375h78.281c8.80204,0 15.9375,7.13546 15.9375,15.9375v0c0,8.80204 -7.13546,15.9375 -15.9375,15.9375z" fill="none" stroke-opacity="0.43" stroke="#000000" stroke-width="0.46875" stroke-linejoin="miter" stroke-dasharray=""></path>
    <path d="M178.8279,168.1563c-8.9315,0 -16.1719,-7.2404 -16.1719,-16.1719v0c0,-8.9315 7.2404,-16.1719 16.1719,-16.1719h75.9372c8.9315,0 16.1719,7.2404 16.1719,16.1719v0c0,8.9315 -7.24041,16.1719 -16.1719,16.1719z" fill="#ac3fff" stroke="none" stroke-width="1" stroke-linejoin="miter" stroke-dasharray=""></path>
    <path d="M178.8285,167.9219c-8.80204,0 -15.9375,-7.13546 -15.9375,-15.9375v0c0,-8.80204 7.13546,-15.9375 15.9375,-15.9375h75.937c8.80204,0 15.9375,7.13546 15.9375,15.9375v0c0,8.80204 -7.13546,15.9375 -15.9375,15.9375z" fill="none" stroke-opacity="0.43" stroke="#000000" stroke-width="0.46875" stroke-linejoin="miter" stroke-dasharray=""></path>
    <path d="M16.3281,165.8125c-7.63705,0 -13.8281,-6.19105 -13.8281,-13.8281v0c0,-7.63705 6.19105,-13.8281 13.8281,-13.8281h131.1248c7.63705,0 13.8281,6.19105 13.8281,13.8281v0c0,7.63705 -6.19105,13.8281 -13.8281,13.8281z" fill="none" stroke="#ac3fff" stroke-width="4.6875" stroke-linejoin="round" stroke-dasharray="5.62,5.62"></path>
    <path d="M338.77938,68.78125c-7.334,0 -13.27938,-6.19105 -13.27938,-13.8281v0c0,-7.63705 5.94538,-13.8281 13.27938,-13.8281h47.17544c7.334,0 13.27938,6.19105 13.27938,13.8281v0c0,7.63705 -5.94538,13.8281 -13.27938,13.8281z" fill="none" stroke="#ff3f42" stroke-width="4.6875" stroke-linejoin="round" stroke-dasharray="5.62,5.62"></path>
    <path d="M299.06228,133.68125c-7.334,0 -13.27938,-6.19105 -13.27938,-13.8281v0c0,-7.63705 5.94538,-13.8281 13.27938,-13.8281h52.97544c7.334,0 13.27938,6.19105 13.27938,13.8281v0c0,7.63705 -5.94538,13.8281 -13.27938,13.8281z" fill="none" stroke="#98ff3f" stroke-width="4.6875" stroke-linejoin="round" stroke-dasharray="5.62,5.62"></path>
    <path d="M16.1719,71.12506c-8.93149,0 -16.1719,-7.24041 -16.1719,-16.1719v0c0,-8.93149 7.24041,-16.1719 16.1719,-16.1719h200.1562c8.93149,0 16.1719,7.24041 16.1719,16.1719v0c0,8.93149 -7.24041,16.1719 -16.1719,16.1719z" fill="#ff3f42" stroke="none" stroke-width="1" stroke-linejoin="miter" stroke-dasharray=""></path>
    <path d="M16.17188,70.89063c-8.80204,0 -15.9375,-7.13546 -15.9375,-15.9375v0c0,-8.80204 7.13546,-15.9375 15.9375,-15.9375h200.156c8.80204,0 15.9375,7.13546 15.9375,15.9375v0c0,8.80204 -7.13546,15.9375 -15.9375,15.9375z" fill="none" stroke-opacity="0.43" stroke="#000000" stroke-width="0.46875" stroke-linejoin="miter" stroke-dasharray=""></path>
    <path d="M383.6719,135.81261c-8.93149,0 -16.1719,-7.24041 -16.1719,-16.1719v0c0,-8.93149 7.24041,-16.1719 16.1719,-16.1719h80.1562c8.93149,0 16.1719,7.24041 16.1719,16.1719v0c0,8.93149 -7.24041,16.1719 -16.1719,16.1719z" fill="#98ff3f" stroke="none" stroke-width="1" stroke-linejoin="miter" stroke-dasharray=""></path>
    <path d="M383.6715,135.57811c-8.80204,0 -15.9375,-7.13546 -15.9375,-15.9375v0c0,-8.80204 7.13546,-15.9375 15.9375,-15.9375h80.156c8.80204,0 15.9375,7.13546 15.9375,15.9375v0c0,8.80204 -7.13546,15.9375 -15.9375,15.9375z" fill="none" stroke-opacity="0.43" stroke="#000000" stroke-width="0.46875" stroke-linejoin="miter" stroke-dasharray=""></path>
    <path d="M287.1099,168.15631c-8.93149,0 -16.1719,-7.24041 -16.1719,-16.1719v0c0,-8.93149 7.24041,-16.1719 16.1719,-16.1719h78.2812c8.93149,0 16.1719,7.24041 16.1719,16.1719v0c0,8.93149 -7.24041,16.1719 -16.1719,16.1719z" fill="#ac3fff" stroke="none" stroke-width="1" stroke-linejoin="miter" stroke-dasharray=""></path>
    <path d="M287.1095,167.92191c-8.80204,0 -15.9375,-7.13546 -15.9375,-15.9375v0c0,-8.80204 7.13546,-15.9375 15.9375,-15.9375h78.281c8.80204,0 15.9375,7.13546 15.9375,15.9375v0c0,8.80204 -7.13546,15.9375 -15.9375,15.9375z" fill="none" stroke-opacity="0.43" stroke="#000000" stroke-width="0.46875" stroke-linejoin="miter" stroke-dasharray=""></path>
    <path d="M397.7339,103.46881c-8.93149,0 -16.1719,-7.24041 -16.1719,-16.1719v0c0,-8.93149 7.24041,-16.1719 16.1719,-16.1719h66.0937c8.93149,0 16.1719,7.24041 16.1719,16.1719v0c0,8.93149 -7.24041,16.1719 -16.1719,16.1719z" fill="#3fd5ff" stroke="none" stroke-width="1" stroke-linejoin="miter" stroke-dasharray=""></path>
    <path d="M397.7345,103.23441c-8.80204,0 -15.9375,-7.13546 -15.9375,-15.9375v0c0,-8.80204 7.13546,-15.9375 15.9375,-15.9375h66.0938c8.80204,0 15.9375,7.13546 15.9375,15.9375v0c0,8.80204 -7.13546,15.9375 -15.9375,15.9375z" fill="none" stroke-opacity="0.43" stroke="#000000" stroke-width="0.46875" stroke-linejoin="miter" stroke-dasharray=""></path>
  </g>
</svg>
