<?xml version="1.0" encoding="UTF-8"?>
<svg xmlns="http://www.w3.org/2000/svg" xmlns:xlink="http://www.w3.org/1999/xlink" version="1.1" width="52.67248" height="62.63706" viewBox="0,0,52.67248,62.63706">
  <g transform="translate(-213.66376,-148.68147)">
    <g stroke="none" stroke-width="0.5" stroke-miterlimit="10">
      <g>
        <path d="M261.25124,173.82936l0.01882,0.40332c-0.19243,1.20319 -0.38248,2.40958 -0.57149,3.61331c0,0 -0.10839,0.69388 0.37303,1.09893c-0.08534,0.51445 -0.19423,1.02826 -0.335,1.53089c-0.22129,0.28193 -0.27257,0.60984 -0.27257,0.60984l-0.06567,0.45844c-0.01154,0.05506 -0.02251,0.12275 -0.02841,0.19833l-0.03507,0.2448c-0.55094,1.79615 -1.11152,3.55359 -1.40632,5.41141c0,0 -0.00812,0.05174 -0.01012,0.13497c-0.02361,0.07983 -0.03173,0.13157 -0.03173,0.13157l-0.16745,1.06617c-0.2508,1.59725 -0.50353,3.20005 -0.75434,4.79731c0,0 -0.04999,0.31703 0.06647,0.64722c-0.21427,0.75399 -0.48199,1.4812 -0.77703,2.28162c0,0 -0.22351,0.60565 0.10431,1.08881c-0.215,0.19651 -0.31914,0.42087 -0.31914,0.42087l-0.80534,1.73841c-0.94062,1.66234 -1.90373,3.28695 -2.91921,4.90419c0,0 -0.09481,0.15075 -0.15255,0.37201c-1.67502,1.54816 -2.95257,2.61427 -5.55324,1.59584c-0.38941,-0.1525 -0.62359,-0.55793 -0.93507,-0.837c0,0 -0.35967,-0.29977 -0.81542,-0.29829c-0.23064,-0.03377 -0.41093,-0.00353 -0.41093,-0.00353l-0.52261,0.11906c-0.55912,-0.19381 -1.08953,0.19201 -1.08953,0.19201l-0.92511,0.67339c-0.92403,0.67323 -1.85108,1.34663 -2.77511,2.01986c0,0 -0.14086,0.10243 -0.27531,0.2827l-0.42219,0.1388c-0.93461,0.031 -2.11881,0.24042 -3.15091,0.15261l-0.53587,-0.50033c-2.10746,-0.77508 -3.03538,-1.35507 -4.28955,-2.99428c0.22843,-0.92747 -0.71087,-1.32544 -0.71087,-1.32544l-1.71514,-0.71998c-0.22086,-0.31337 -0.55779,-0.45625 -0.55779,-0.45625l-0.38813,-0.16205c-0.04754,-0.03437 -0.09524,-0.06885 -0.14277,-0.10322c0,0 -0.29222,-0.20835 -0.66948,-0.23593l-0.70221,-0.29323c-0.244,-0.1975 -0.48879,-0.39563 -0.73279,-0.59313c-0.47752,-0.95984 -0.70919,-2.0397 -1.12458,-3.03186c-0.37736,-0.90131 -0.93083,-1.72497 -1.36876,-2.59792c-0.20974,-2.04307 -0.47787,-4.08561 -0.67367,-6.12996c-0.39029,-4.0751 -0.40167,-8.36263 -2.29403,-12.02682c0.32103,-0.42372 0.20549,-0.98798 0.20549,-0.98798c-0.48249,-2.34343 -0.9639,-4.65148 -1.68782,-6.93231l-0.3964,-0.64811c0,0 -0.02435,-0.03346 -0.07023,-0.08332c-0.00672,-0.33188 -0.02779,-0.66073 -0.06094,-0.98721l0.56692,0.6135c0.12825,0.29392 0.24298,0.59289 0.33809,0.89846l0.62116,0.95554c0,0 0.29484,0.43105 0.81792,0.48413c0.00551,0.00604 0.04753,0.0364 0.04753,0.0364c0.63898,0.43974 1.13084,1.5005 1.87795,1.29196c1.01912,-0.28446 1.50537,-1.52105 2.04953,-2.42847c0.90294,-1.5057 0.92607,-3.65427 0.86243,-5.33884l0.10425,-0.37423c-0.04866,1.18603 -0.01638,2.37243 0.12772,3.57062l0.30891,0.98322c-0.02713,0.24779 0.01755,0.44199 0.01755,0.44199c0.14601,0.57259 0.14614,1.20369 0.43877,1.71706c0.31883,0.55934 0.85716,0.89617 1.30254,1.36109l1.52656,0.59314c0,0 0.28253,0.10355 0.61528,0.06511c0.40503,0.20737 0.86074,0.10275 0.86074,0.10275c1.09879,-0.26787 2.1633,-0.76873 3.08647,-1.42206l0.83435,-0.87175c0,0 0.27707,-0.30059 0.33001,-0.71117c0.20001,-0.10203 0.32498,-0.22324 0.32498,-0.22324c1.37527,-1.3832 1.83287,-2.8938 2.57934,-4.66677l0.05308,-0.26411c0.18148,0.45698 0.40086,0.91673 0.66401,1.38472l1.91535,0.75201c0,0 0.24901,0.03902 0.53521,-0.03301c0.34959,0.23089 0.76535,0.21369 0.76535,0.21369c0.62992,-0.06659 1.35063,0.12915 1.8922,-0.19939c0.23896,-0.14497 0.43171,-0.34292 0.60228,-0.56548c0.43097,1.5025 1.40653,4.31487 3.27003,4.12443c0.45866,-0.04687 0.82632,-0.31179 1.16191,-0.65137c0.86868,0.45175 1.47235,-0.39252 1.47235,-0.39252l0.69965,-0.98121c0.23321,-0.32708 0.43983,-0.61472 0.67304,-0.9418c0,0 0.26571,-0.37217 0.23649,-0.81967c0.39266,-0.18413 0.59291,-0.57157 0.59291,-0.57157c0.59174,-1.15255 0.99144,-2.28654 1.29207,-3.45112c0.003,-0.00399 0.02965,-0.0465 0.02965,-0.0465c0.34175,-0.48478 0.62282,-0.93518 0.86313,-1.37651l-0.0078,0.57982c-0.01331,0.44634 0.22679,0.85595 0.60321,1.0693c0.17439,1.06305 0.39803,2.09211 0.62538,2.22952c2.25991,1.36586 4.40994,-2.07452 5.40945,-3.46552l0.57719,-0.80938l0.01614,0.05147c0,0 -0.18356,1.1755 0.99108,1.35994c0.06204,0.00974 0.1214,0.01577 0.17803,0.0183c-0.10078,0.5091 -0.18489,1.02208 -0.26583,1.54071c-0.22532,0.22291 -0.32135,0.4837 -0.32135,0.4837l-0.48137,1.30769c-0.49909,1.51274 -0.75172,2.94915 -0.99821,4.50714c-0.26273,0.33447 -0.27427,0.75884 -0.27427,0.75884l-0.04608,1.68471c0,0 -0.01908,0.7074 0.51648,1.04618z" fill="#ffae00"></path>
        <path d="M242.25667,202.78416c-0.01885,0.12005 -0.04805,0.22591 -0.08527,0.31922c0.44633,-0.21338 0.9037,-0.40625 1.35388,-0.613c0.37523,-0.6517 1.20192,-0.52189 1.20192,-0.52189l0.17041,0.60455c0.25052,-0.00958 0.44266,0.04937 0.44266,0.04937c1.24298,0.39496 1.4767,0.67691 2.63905,0.46744c0.47049,-0.08478 0.90525,-0.41703 1.3821,-0.38303c0.33963,0.02422 0.53329,0.61994 0.86503,0.54326c0.25632,-0.05925 0.01225,-0.54777 0.14273,-0.77621c0.42167,-0.73822 0.93303,-1.42698 1.48503,-2.07356c0.59085,-0.6921 1.77272,-0.93423 2.05236,-1.80019c0.13037,-0.40372 -0.13682,-0.84556 -0.10374,-1.26852c0.06731,-0.86052 0.19788,-1.71947 0.40302,-2.55789c0.14265,-0.58301 0.32178,-1.17295 0.63509,-1.68489c0.68286,-1.11579 1.8956,-1.18108 1.24988,-2.59661l-0.35357,-0.74444c0,0 -0.20663,-0.44787 -0.06527,-0.89978c-0.9347,-0.45037 -0.56034,-1.46601 -0.56034,-1.46601l0.47521,-1.28924c0.16048,-0.42928 1.05393,-2.47562 0.72166,-2.97253c-0.42926,-0.64196 -1.43762,-0.56697 -2.13818,-0.89191c-0.8188,-0.37979 -3.19626,-2.07853 -4.29577,-2.14173c-1.29899,-0.07467 -2.88439,0.91277 -4.03646,1.37917c0,0 -0.03067,0.01241 -0.08384,0.02799c-0.03085,0.04103 -0.0652,0.0823 -0.10331,0.12373c-0.80504,0.87505 -1.68009,0.07001 -1.68009,0.07001l-0.76233,-0.70383c-0.34329,-0.35677 -0.68658,-0.71354 -1.02987,-1.07031c-0.34722,-0.58622 -0.68155,-1.18027 -1.04166,-1.75866c-0.12916,-0.20744 -0.18211,-0.57173 -0.42514,-0.59721c-0.23643,-0.02479 -0.31092,0.36826 -0.50933,0.49922c-0.59361,0.3918 -2.38502,1.21908 -2.97113,1.3367c-1.2478,0.25042 -3.25076,-0.38272 -4.43115,0.02151c-0.2867,0.09818 -0.38019,0.47295 -0.58935,0.69224c-0.69844,0.73227 -1.29197,1.55789 -1.94208,2.33338c-0.83687,0.99827 -1.75164,1.94329 -2.76562,2.76105c-0.45125,0.36393 -1.01084,0.56813 -1.50924,0.8642c-0.18857,0.11202 -0.52351,0.14208 -0.55101,0.35969c-0.05634,0.44589 0.31808,0.85568 0.34071,1.30454c0.02181,0.43238 -0.24731,0.8503 -0.21028,1.28164c0.05169,0.60223 0.31373,1.16746 0.47059,1.75119c0,0 0.07727,0.30372 -0.00345,0.63898c0.41576,0.1052 0.73184,0.42333 0.84789,0.81665l0.3574,1.12389c0,0 0.21362,0.67176 -0.20533,1.1453c0.044,0.39387 -0.11961,0.83659 -0.07773,1.24056c0.04405,0.4249 0.22762,3.58126 0.68937,4.21772c0.51652,0.71195 1.35823,0.81526 2.12667,1.05264c-0.00707,-0.36378 0.11587,-0.89425 0.82696,-1.12038c1.13312,-0.36033 1.49345,0.77279 1.49345,0.77279c0.25654,0.81784 0.51106,1.63808 0.70266,2.47352l0.35596,-0.39061c0,0 1.09753,-0.34902 1.47577,0.72008c0.47584,0.16202 0.95167,0.32403 1.42751,0.48605l1.07881,0.75376c0.65637,-0.56885 1.42689,-0.01947 1.42689,-0.01947c0.89296,0.92629 1.41015,-0.1293 2.41858,-0.89171c-0.05521,-0.0031 -0.08782,-0.00822 -0.08782,-0.00822l-1.05623,-0.19805c-3.0907,0.84077 -5.95798,-2.11171 -7.97854,-4.18906c0,0 -0.82904,-0.85234 0.0233,-1.68138c0.85234,-0.82904 1.68138,0.0233 1.68138,0.0233c1.45729,1.49824 3.89243,4.31742 6.09312,3.47596l1.60586,0.21996c0,0 1.17464,0.18444 0.99019,1.35908zM244.94575,179.26143c1.59206,-0.64452 3.36648,-1.66658 5.15103,-1.54255c1.1661,0.08105 2.01761,0.84623 2.98699,1.35231c1.15351,0.6022 2.41429,0.99184 3.54215,1.64081c0.60529,0.34828 1.36476,0.59096 1.72463,1.18943c0.83111,1.38217 -0.05032,3.69015 -0.53236,5.01374l-0.46184,1.25298c0.36593,0.20551 0.54025,0.58336 0.54025,0.58336l0.46048,1.02001c0.13895,0.5365 0.50431,1.06224 0.41685,1.60949c-0.32091,2.00802 -1.89398,2.23991 -2.26462,3.98376c-0.28899,1.3597 0.10088,2.85655 -0.4077,4.15025c-0.23903,0.60803 -2.03721,1.96011 -2.4643,2.45873c-0.15685,0.18312 -2.34529,3.40132 -2.61623,3.51768c-0.53941,0.23168 -1.12655,-0.39383 -1.71345,-0.40718c-0.32609,-0.00742 -0.59251,0.29711 -0.91479,0.34741c-1.79959,0.28087 -1.94786,0.00111 -3.74999,-0.53578c0,0 -0.15199,-0.04662 -0.32776,-0.16135c-0.60789,0.2693 -1.22032,0.5294 -1.78975,0.87017c-1.15267,0.68983 -2.25844,2.11468 -3.85202,1.91197c-0.55382,-0.07045 -0.95938,-0.56417 -1.43058,-0.87053c-0.65691,0.57239 -1.42937,0.02161 -1.42937,0.02161l-0.82957,-0.60774c-0.46395,-0.14957 -0.9279,-0.29913 -1.39185,-0.4487c0,0 -0.37909,-0.126 -0.62477,-0.45168l-1.02957,0.18026c-0.35542,-0.50011 -0.69594,-1.01735 -1.00565,-1.55177c-0.33841,0.04276 -0.6279,-0.06395 -0.6279,-0.06395l-1.2712,-0.46873c-1.50952,-0.52067 -2.31547,-0.55987 -3.35508,-1.984c-0.61668,-0.84477 -0.54709,-1.97692 -0.68507,-2.93619c-0.13143,-0.91371 -0.64751,-3.05182 -0.41879,-4.13084c0,0 0,0 0,0l0,0l-0.01519,-1.61666c-0.00194,-0.07171 0.0026,-0.1446 0.01413,-0.21802c0.00729,-0.04645 0.01718,-0.09184 0.0295,-0.13606c-0.67344,-0.13945 -0.86302,-0.88457 -0.86302,-0.88457c-0.18047,-0.74218 -0.47106,-1.46598 -0.54142,-2.22654c-0.04287,-0.46335 0.20973,-0.91512 0.20772,-1.38045c-0.00297,-0.68972 -0.43503,-1.40099 -0.22254,-2.05717c0.48357,-1.49328 1.85416,-1.55411 2.86792,-2.36663c0.89018,-0.71348 1.68313,-1.55023 2.41332,-2.42675c0.87194,-1.04667 2.05283,-3.15308 3.43076,-3.6758c1.43238,-0.54337 3.38256,0.12577 4.87078,-0.1545c1.21603,-0.22901 2.99197,-2.07286 4.19337,-1.86903c0.80201,0.13607 1.42618,0.82798 1.98614,1.41804c0.49684,0.52355 0.74588,1.23591 1.11882,1.85387c0.27206,0.27601 0.54412,0.55202 0.81617,0.82803c0.0406,-0.02075 0.06536,-0.03078 0.06536,-0.03078z" fill="#712c00"></path>
        <path d="M241.26837,201.44878l-1.60969,-0.21996c-2.20069,0.84146 -4.65139,-1.98531 -6.10867,-3.48355c0,0 -0.79242,-0.88258 -1.64476,-0.05354c-0.85234,0.82904 -0.02503,1.6793 -0.02503,1.6793c2.02056,2.07735 4.87165,5.02229 7.96235,4.18152l1.05419,0.19803c0,0 0.03445,0.05265 0.08966,0.05575c-1.00843,0.7624 -1.52998,1.81778 -2.42294,0.89149c0,0 -0.77292,-0.54986 -1.42929,0.019l-1.08092,-0.75439c-0.47584,-0.16202 -0.95415,-0.32506 -1.42998,-0.48707c-0.37825,-1.0691 -1.4783,-0.7215 -1.4783,-0.7215l-0.35609,0.39053c-0.1916,-0.83544 -0.44906,-1.65794 -0.7056,-2.47578c0,0 -0.36242,-1.13525 -1.49553,-0.77491c-0.7111,0.22613 -0.83369,0.75698 -0.82663,1.12076c-0.76844,-0.23738 -1.61225,-0.34338 -2.12876,-1.05533c-0.46175,-0.63646 -0.64819,-3.79875 -0.69224,-4.22365c-0.04188,-0.40396 0.1212,-0.84861 0.0772,-1.24248c0.41895,-0.47354 0.20498,-1.14718 0.20498,-1.14718l-0.35761,-1.12592c-0.11605,-0.39332 -0.43218,-0.71289 -0.84794,-0.81809c0.08073,-0.33526 0.00348,-0.64004 0.00348,-0.64004c-0.15686,-0.58373 -0.41863,-1.15168 -0.47032,-1.75391c-0.03702,-0.43134 0.2325,-0.85127 0.21069,-1.28365c-0.02264,-0.44886 -0.39656,-0.86036 -0.34022,-1.30625c0.0275,-0.21761 0.36269,-0.24841 0.55127,-0.36044c0.49841,-0.29608 1.05885,-0.50231 1.5101,-0.86624c1.01398,-0.81776 1.93234,-1.76822 2.7692,-2.76649c0.65011,-0.7755 1.24747,-1.60462 1.94592,-2.3369c0.20916,-0.21929 0.30387,-0.59489 0.59057,-0.69307c1.18039,-0.40423 3.18999,0.22597 4.43779,-0.02445c0.58611,-0.11763 2.38325,-0.94572 2.97686,-1.33752c0.19841,-0.13095 0.27379,-0.52401 0.51022,-0.49922c0.24303,0.02549 0.29677,0.3898 0.42592,0.59724c0.36011,0.57839 0.69675,1.17267 1.04397,1.75889c0.34329,0.35677 0.68913,0.71407 1.03242,1.07084l0.76435,0.70446c0,0 0.87812,0.8064 1.68315,-0.06865c0.03811,-0.04143 0.07252,-0.08266 0.10337,-0.1237c0.05317,-0.01557 0.08395,-0.02793 0.08395,-0.02793c1.15207,-0.4664 2.74136,-1.4512 4.04035,-1.37653c1.09951,0.0632 3.48152,1.76701 4.30032,2.1468c0.70056,0.32494 1.71023,0.25217 2.13949,0.89412c0.33227,0.49691 -0.55982,2.5464 -0.7203,2.97568l-0.47472,1.29083c0,0 -0.37384,1.018 0.56085,1.46837c-0.14136,0.45191 0.06545,0.90115 0.06545,0.90115l0.35367,0.74562c0.64572,1.41553 -0.56715,1.48498 -1.25001,2.60077c-0.31331,0.51194 -0.49297,1.10478 -0.63562,1.68778c-0.20514,0.83842 -0.33709,1.70136 -0.40439,2.56188c-0.03308,0.42296 0.23335,0.86636 0.10298,1.27008c-0.27965,0.86597 -1.46382,1.11161 -2.05467,1.8037c-0.552,0.64659 -1.06617,1.33831 -1.48784,2.07654c-0.13048,0.22844 0.11286,0.71759 -0.14346,0.77684c-0.33174,0.07669 -0.52582,-0.51871 -0.86545,-0.54292c-0.47685,-0.034 -0.91346,0.29955 -1.38394,0.38434c-1.16235,0.20946 -1.39945,-0.07068 -2.64243,-0.46564c0,0 -0.19284,-0.05865 -0.44337,-0.04907l-0.17029,-0.6046c0,0 -0.82925,-0.12894 -1.20448,0.52276c-0.45018,0.20675 -0.91044,0.40023 -1.35677,0.6136c0.03723,-0.09331 0.06669,-0.19921 0.08554,-0.31926c0.18444,-1.17464 -0.99199,-1.35887 -0.99199,-1.35887z" fill="#b14400"></path>
        <path d="M254.43157,190.49717c-1.13312,0.36033 -1.49345,-0.77279 -1.49345,-0.77279l0.08511,-0.11916c-1.46409,-1.56603 -2.95811,-5.3873 -5.78382,-5.0639c-1.07102,0.12257 -1.35279,0.99021 -2.06857,1.68064c-1.54976,1.49486 -1.47508,1.68154 -3.60428,1.55838c-1.61094,-0.09318 -3.16955,-0.5244 -4.69419,-1.01369c-0.52514,-0.16853 -1.0011,-0.58766 -1.55241,-0.57238c-0.30602,0.00848 -0.42349,0.44523 -0.66464,0.63383c-0.83014,0.64922 -1.75492,1.24361 -2.35367,2.11085c0,0 -0.69028,0.96815 -1.65843,0.27787c-0.96815,-0.69028 -0.27787,-1.65843 -0.27787,-1.65843c0.77069,-1.05615 1.81523,-1.90729 2.88962,-2.65233c0.53659,-0.3721 1.0017,-0.98906 1.65149,-1.05363c0.89481,-0.08892 1.75329,0.4017 2.62335,0.62884c1.38081,0.36049 2.76381,0.74998 4.18008,0.92533c0.29739,0.03682 0.6289,0.16754 0.89824,0.0362c1.82991,-0.8923 1.94037,-2.90792 4.35968,-3.26398c3.96142,-0.58303 5.64927,3.54834 7.78623,5.79562l0.45032,1.02928c0,0 0.36033,1.13312 -0.77279,1.49345z" fill="#712c00"></path>
        <path d="M243.21478,198.48061l-0.78059,0.35404c-0.62842,0.36703 -1.28639,0.68019 -1.96191,0.95602l0.08727,0.13825l-2.00605,1.26633c-0.23594,0.15066 -0.52572,0.21909 -0.82402,0.17225c-0.64874,-0.10187 -1.09206,-0.71035 -0.99019,-1.35908c0.04076,-0.25956 0.16261,-0.48623 0.33569,-0.65826l0.21837,-0.22252l-0.63664,0.21683c-0.18257,0.06632 -0.384,0.08874 -0.58946,0.05648c-0.64874,-0.10187 -1.09206,-0.71035 -0.99019,-1.35908c0.03323,-0.2116 0.12035,-0.40134 0.24518,-0.55744l1.22408,-1.59328c-0.049,-0.39505 -0.0941,-0.79025 -0.13617,-1.18559c-0.19749,0.08372 -0.42004,0.11504 -0.64754,0.07932c-0.64874,-0.10187 -1.09206,-0.71035 -0.99019,-1.35908l0.29785,-1.89688c-1.34805,1.03465 -2.78674,1.97307 -4.11807,2.93395l-0.17134,0.00944l0.02133,0.05792l-1.2883,0.47439c-0.18937,0.07386 -0.40022,0.10009 -0.6155,0.06629c-0.64874,-0.10187 -1.09206,-0.71035 -0.99019,-1.35908c0.03098,-0.19729 0.10881,-0.37558 0.22038,-0.52532l0.68573,-0.96175l0.0077,0.00549c0.00952,-0.01823 0.01924,-0.03638 0.02915,-0.05445c0.78757,-1.43506 2.22833,-2.74753 3.71602,-3.94492c0.70803,-0.82219 1.47118,-1.57941 2.30463,-1.98856l0.75213,-0.611c-0.06173,-0.17815 -0.08188,-0.37361 -0.05059,-0.57287c0.02843,-0.18108 0.09634,-0.34615 0.19357,-0.48783l-1.59216,0.9522c-0.23172,0.14081 -0.51259,0.20354 -0.80144,0.15818c-0.15845,-0.02488 -0.30465,-0.07999 -0.43365,-0.15852l-0.42204,0.26714c-0.23614,0.15117 -0.52638,0.2199 -0.82516,0.17298c-0.00739,-0.00116 -0.01476,-0.00239 -0.0221,-0.00368c-0.45652,0.28349 -0.9158,0.53741 -1.37528,0.7454l-1.90475,1.38775c-0.24595,0.17919 -0.56025,0.26455 -0.88462,0.21362c-0.64874,-0.10187 -1.09206,-0.71035 -0.99019,-1.35908c0.0454,-0.28911 0.19141,-0.53742 0.39676,-0.71486l0.09073,-0.07952c-0.08562,0.02712 -0.17098,0.05489 -0.25599,0.08347l0.62173,-1.09133l-0.47964,-0.54487l1.59097,-1.4005c0.62797,-0.63629 1.23759,-1.45405 1.93171,-2.06887c0.04504,-0.454 0.38085,-0.78063 0.38085,-0.78063c0.32194,-0.31314 0.64389,-0.62628 0.96583,-0.93942l0.95589,-0.92979c0.25952,-0.25796 0.63423,-0.39307 1.02342,-0.33196c0.52426,0.08232 0.91438,0.4955 0.99102,0.99341c0.07061,-0.00171 0.14237,0.00287 0.21462,0.01422c0.48332,0.07589 0.85262,0.43298 0.96741,0.87841l0.92826,-0.56427c0.23301,-0.14373 0.51655,-0.20814 0.80822,-0.16234c0.29768,0.04674 0.55212,0.20016 0.73047,0.41519c0.05924,-0.02244 0.1173,-0.04447 0.17406,-0.06609l1.13069,-0.59983c0.22176,-0.12074 0.48357,-0.17208 0.75228,-0.12989c0.64874,0.10187 1.09206,0.71035 0.99019,1.35908c-0.05095,0.32445 -0.22861,0.59751 -0.47464,0.7767c0.00901,0.00739 0.01803,0.01496 0.02706,0.02271l1.2583,-0.57547c0.20871,-0.0992 0.44846,-0.13874 0.69398,-0.10019c0.60017,0.09424 1.02453,0.62208 1.00405,1.21425c0.01041,-0.0061 0.02078,-0.01224 0.03112,-0.01842l0.10656,-0.01309l-0.01074,-0.02825l2.01114,-0.7648c0.19222,-0.0772 0.40711,-0.10514 0.6266,-0.07068c0.61139,0.096 1.04034,0.64197 1.00243,1.24753c0.2383,-0.08201 0.47213,-0.17013 0.69535,-0.2728l0.07747,-0.00019l-0.00776,-0.02439l1.12565,-0.35797c0.17673,-0.06031 0.37029,-0.07975 0.56758,-0.04877c0.63948,0.10041 1.07937,0.69309 0.99422,1.33134c0.32631,-0.11409 0.67478,-0.22103 1.03947,-0.33938l0,0l1.12563,-0.35797c0.17673,-0.06031 0.3703,-0.07976 0.56759,-0.04878c0.64874,0.10187 1.09206,0.71035 0.99019,1.35908c-0.01319,0.084 -0.03487,0.16455 -0.06404,0.24093c0.14707,-0.03537 0.30339,-0.04308 0.46211,-0.01816c0.64874,0.10187 1.09206,0.71035 0.99019,1.35908c-0.0243,0.15474 -0.07742,0.2978 -0.15304,0.42456l-1.11956,1.98041l-0.014,-0.00791c-0.01609,0.03623 -0.03259,0.07232 -0.04953,0.10824c-0.02577,0.05468 -0.05257,0.1087 -0.08032,0.1621c0.02176,0.00221 0.04358,0.00502 0.06545,0.00846c0.64874,0.10187 1.09206,0.71035 0.99019,1.35908c-0.03447,0.2195 -0.12693,0.41548 -0.25933,0.57479l-1.3444,1.67996l-0.17786,-0.14233c-0.36573,0.53569 -0.75354,1.022 -1.23313,1.58768c0.12269,0.22281 0.17513,0.48653 0.13262,0.75726c-0.02569,0.16363 -0.08362,0.31419 -0.16629,0.44623l-0.72764,1.22426l-0.02342,-0.01392c-0.01422,0.03905 -0.0292,0.07789 -0.04499,0.11651c-0.35055,0.85721 -1.04954,1.49356 -1.7667,2.11819c-0.31465,0.43792 -0.63131,0.8738 -1.04891,1.20697c-0.00492,0.00392 -0.00984,0.00784 -0.01477,0.01175l0.00259,0.00228l-1.55926,1.76893c-0.25943,0.30392 -0.66596,0.46994 -1.08965,0.40341c-0.12771,-0.02005 -0.24746,-0.05974 -0.35665,-0.1155l-0.34504,0.3338c-0.25943,0.25638 -0.633,0.39045 -1.02096,0.32953c-0.64874,-0.10187 -1.09206,-0.71035 -0.99019,-1.35908c0.00589,-0.03751 0.01348,-0.07434 0.02266,-0.11042l0.55942,-2.29702l0.01437,0.0035c0.00661,-0.04081 0.01368,-0.08157 0.02122,-0.12229c0.00432,-0.02332 0.25929,-0.55863 0.57852,-1.22325c-0.25779,0.21452 -0.50384,0.42554 -0.72192,0.63633l-0.46131,0.48408c0.25649,0.91904 -0.6679,1.3455 -0.6679,1.3455zM241.98525,187.79589c0.04021,-0.01445 0.08056,-0.02839 0.12103,-0.04185l-0.00621,-0.01457l2.17083,-0.92512c0.20238,-0.09019 0.43228,-0.12491 0.66746,-0.08798c0.64874,0.10187 1.09206,0.71035 0.99019,1.35908c-0.03447,0.21949 -0.12693,0.41547 -0.25932,0.57478l-0.09442,0.11798l0.79041,-0.3552c0.20714,-0.09689 0.4444,-0.13519 0.68731,-0.09704c0.64874,0.10187 1.09206,0.71035 0.99019,1.35908c-0.03136,0.19972 -0.11074,0.37997 -0.22452,0.53084l-0.84776,1.17392l1.37554,-0.42109c0.17355,-0.05721 0.36292,-0.07513 0.55586,-0.04484c0.05863,0.00921 0.11559,0.02255 0.17062,0.03969c0.03688,-0.17015 0.10909,-0.32461 0.20759,-0.45682l0.68573,-0.96176l0.01159,0.00826l0.00893,-0.03618c0.27484,-0.34159 0.53123,-0.68336 0.78304,-1.01675l-0.67333,0.21412c-0.17672,0.06031 -0.37029,0.07975 -0.56757,0.04877c-0.64874,-0.10187 -1.09206,-0.71035 -0.99019,-1.35908c0.03876,-0.24683 0.15085,-0.46392 0.3106,-0.63256l0.43697,-0.47497l-0.93894,0.43318c-0.20949,0.10037 -0.45048,0.14053 -0.69731,0.10178c-0.64874,-0.10187 -1.09206,-0.71035 -0.99019,-1.35908c0.02404,-0.15311 0.0763,-0.29477 0.15065,-0.42053c-0.6188,0.28506 -1.11507,0.51216 -1.12908,0.51379c-0.04118,0.00479 -0.08237,0.0088 -0.12355,0.01207l0.00494,0.02161l-1.38836,0.31741c-0.15103,0.03823 -0.3121,0.04722 -0.47573,0.02152c-0.50053,-0.07859 -0.87878,-0.45877 -0.9787,-0.92633l-1.63099,0.62025c-0.19222,0.0772 -0.40711,0.10515 -0.62661,0.07068c-0.59122,-0.09284 -1.01184,-0.60644 -1.00467,-1.18782c-0.02419,0.02509 -0.04838,0.05017 -0.07257,0.07526l-0.08919,-0.00549l0.04041,0.04847l-0.00603,0.00503l0.01002,0.01218l-0.75159,0.61817c0.06408,0.18045 0.08539,0.37899 0.0536,0.58145c-0.04146,0.26404 -0.16684,0.49405 -0.34471,0.66713l-0.42984,0.42814l1.17037,-0.24093c0.14383,-0.03313 0.29629,-0.03985 0.45103,-0.01555c0.64874,0.10187 1.09206,0.71035 0.99019,1.35908c-0.03447,0.21949 -0.12693,0.41547 -0.25932,0.57478l-0.3782,0.4726c0.70576,-0.56222 1.42858,-1.04256 2.14379,-1.29956zM248.32698,194.71038c0.06573,-0.05604 0.13269,-0.11067 0.20104,-0.16372c0.03398,-0.09635 0.07975,-0.18636 0.13535,-0.26861l0.3685,-0.5724l-0.68203,0.95656c-0.00764,0.01608 -0.01526,0.03214 -0.02284,0.04817zM249.86921,192.45137l0.02718,-0.08308c0.00268,-0.0031 0.00536,-0.00619 0.00803,-0.00928c-0.00843,-0.00242 -0.01681,-0.00493 -0.02515,-0.00753c-0.0067,0.03093 -0.01458,0.06134 -0.02356,0.0912z" fill="#953900"></path>
        <path d="M260.71423,172.79517l0.04681,-1.68354c0,0 0.01179,-0.42399 0.27452,-0.75847c0.24648,-1.55799 0.5007,-2.99236 0.99979,-4.5051l0.48172,-1.30729c0,0 0.0961,-0.26071 0.32143,-0.48362c0.08094,-0.51863 0.16553,-1.03109 0.26631,-1.54019c-0.05664,-0.00253 -0.11592,-0.00848 -0.17796,-0.01823c-1.17464,-0.18444 -0.99019,-1.35908 -0.99019,-1.35908l0.01602,-0.08651l-0.57713,0.80944c-0.9995,1.391 -3.18064,4.86732 -5.44055,3.50147c-0.22735,-0.13741 -0.44963,-1.16544 -0.62402,-2.22849c-0.37642,-0.21334 -0.6157,-0.62241 -0.6024,-1.06876l0.00803,-0.57968c-0.24031,0.44133 -0.52137,0.89173 -0.86313,1.37651c0,0 -0.00152,0.00213 -0.00452,0.00612c-0.30063,1.16458 -0.69968,2.29899 -1.29141,3.45154c0,0 -0.20042,0.38733 -0.59308,0.57146c0.02922,0.44749 -0.23625,0.81983 -0.23625,0.81983c-0.23321,0.32708 -0.46641,0.65416 -0.69962,0.98124l-0.69961,0.98123c0,0 -0.60249,0.84501 -1.47117,0.39327c-0.3356,0.33957 -0.70237,0.60498 -1.16104,0.65186c-1.8635,0.19044 -2.83327,-2.61975 -3.26424,-4.12225c-0.17058,0.22256 -0.36273,0.42064 -0.60169,0.56561c-0.54157,0.32854 -1.25984,0.13318 -1.88976,0.19976c0,0 -0.41472,0.01728 -0.7643,-0.21361c-0.2862,0.07203 -0.53449,0.03304 -0.53449,0.03304l-1.91286,-0.75208c-0.26315,-0.46799 -0.48188,-0.9278 -0.66336,-1.38478l-0.05298,0.2641c-0.74646,1.77297 -1.19944,3.28257 -2.57471,4.66577c0,0 -0.12442,0.12102 -0.32443,0.22305c-0.05294,0.41059 -0.3292,0.71087 -0.3292,0.71087l-0.8327,0.87103c-0.92318,0.65333 -1.98307,1.15128 -3.08186,1.41915c0,0 -0.45499,0.10402 -0.86002,-0.10335c-0.33275,0.03844 -0.61481,-0.06552 -0.61481,-0.06552l-1.52585,-0.59382c-0.44538,-0.46492 -1.0173,-0.83543 -1.33613,-1.39477c-0.29262,-0.51337 -0.29202,-1.14518 -0.43803,-1.71777c0,0 -0.04445,-0.19441 -0.01732,-0.4422l-0.30857,-0.98352c-0.1441,-1.19819 -0.17471,-2.38589 -0.12605,-3.57192l-0.07643,0.41281c0.06364,1.68458 0.04373,3.83031 -0.8592,5.33601c-0.54416,0.90742 -1.02819,2.14127 -2.0473,2.42574c-0.74711,0.20854 -1.27795,-0.87947 -1.91693,-1.31921c0,0 -0.00303,-0.00312 -0.00855,-0.00916c-0.52307,-0.05308 -0.85694,-0.51132 -0.85694,-0.51132l-0.62093,-0.95587c-0.09512,-0.30558 -0.20956,-0.60492 -0.33781,-0.89885l-0.52896,-0.58485c0.03315,0.32648 0.05462,0.6548 0.06133,0.98668c0.04588,0.04986 0.07025,0.0833 0.07025,0.0833l0.39655,0.64788c0.72392,2.28084 1.20787,4.58419 1.69036,6.92762c0,0 0.11594,0.56321 -0.20509,0.98692c1.89236,3.6642 1.90413,7.93724 2.29442,12.01234c0.19579,2.04435 0.46089,4.08035 0.67063,6.12342c0.43793,0.87294 0.98936,1.69395 1.36671,2.59526c0.41539,0.99216 0.64475,2.06975 1.12227,3.02959c0.244,0.1975 0.48801,0.39499 0.73201,0.59249l0.70158,0.29275c0.37725,0.02757 0.66887,0.2355 0.66887,0.2355c0.04754,0.03437 0.09508,0.06874 0.14261,0.10311l0.38775,0.1618c0,0 0.33627,0.14246 0.55713,0.45583l1.71335,0.71901c0,0 0.93812,0.39743 0.7097,1.32491c1.25416,1.63921 2.17723,2.21774 4.28469,2.99282l0.53527,0.50022c1.0321,0.08781 2.21327,-0.12191 3.14787,-0.1529l0.42178,-0.13881c0.13445,-0.18028 0.27504,-0.2827 0.27504,-0.2827c0.92403,-0.67323 1.84806,-1.34645 2.77209,-2.01968l0.92401,-0.67323c0,0 0.52921,-0.38558 1.08832,-0.19176l0.52203,-0.11892c0,0 0.17986,-0.03013 0.4105,0.00364c0.45576,-0.00148 0.81469,0.2985 0.81469,0.2985c0.31148,0.27907 0.54502,0.68471 0.93444,0.8372c2.60067,1.01843 3.87303,-0.04518 5.54805,-1.59334c0.05774,-0.22126 0.15228,-0.37183 0.15228,-0.37183c1.01548,-1.61724 1.9743,-3.23822 2.91492,-4.90056l0.80403,-1.73687c0,0 0.10378,-0.22389 0.31878,-0.4204c-0.32782,-0.48316 -0.10485,-1.08805 -0.10485,-1.08805c0.29504,-0.80041 0.56134,-1.52527 0.77561,-2.27927c-0.11645,-0.33019 -0.06676,-0.64664 -0.06676,-0.64664c0.2508,-1.59725 0.50161,-3.19451 0.75241,-4.79176l0.1672,-1.06484c0,0 0.0081,-0.05157 0.03171,-0.13141c0.002,-0.08323 0.01009,-0.1348 0.01009,-0.1348c0.2948,-1.85782 0.85538,-3.60869 1.40632,-5.40484l0.03511,-0.24453c0.0059,-0.07558 0.0169,-0.14304 0.02845,-0.19811l0.06576,-0.45794c0,0 0.05139,-0.32729 0.27269,-0.60923c0.14077,-0.50263 0.25003,-1.01491 0.33537,-1.52936c-0.48142,-0.40504 -0.37265,-1.09771 -0.37265,-1.09771c0.18901,-1.20373 0.38033,-2.4071 0.57275,-3.61029l-0.01865,-0.40299c-0.53556,-0.33878 -0.51592,-1.04516 -0.51592,-1.04516zM249.79193,166.33203c0,0 0.19146,-0.26854 0.51415,-0.42192c-0.0212,-0.37129 0.1394,-0.68167 0.1394,-0.68167c1.04868,-2.00872 1.37772,-3.956 1.72503,-6.16784l0.0418,-0.2662c0,0 0.18444,-1.17464 1.35908,-0.99019c0.02069,0.00325 0.04097,0.00681 0.06083,0.01066c0.07868,-0.26794 0.15989,-0.55285 0.24846,-0.8607l0.4895,-1.33026c0,0 0.13479,-0.36567 0.45938,-0.60114c0.02694,-0.18306 0.04931,-0.36288 0.06797,-0.54174c0.01544,-0.21869 0.03308,-0.43698 0.05331,-0.65477c0.04241,-0.70116 0.04433,-1.42959 0.05658,-2.3193l-0.01537,-1.62522c0,0 -0.01119,-1.18898 1.17779,-1.20017c1.18898,-0.01119 1.20017,1.17779 1.20017,1.17779l0.01547,1.65288c-0.00275,0.19711 -0.00545,0.38805 -0.00848,0.57387c0.14982,0.3533 0.09309,0.71458 0.09309,0.71458c-0.03001,0.18715 -0.05705,0.37504 -0.08144,0.56356c0.20602,0.38022 0.13864,0.80929 0.13864,0.80929l-0.209,1.33104c0,0 -0.02664,0.16967 -0.12416,0.36991c-0.04911,1.3136 -0.039,2.63665 -0.07036,3.93773c0.16585,0.26275 0.20239,0.53042 0.20239,0.53042c0.12049,0.88293 0.41738,1.54381 0.35213,2.19496c0.04983,-0.07601 0.10331,-0.1494 0.16141,-0.21907c0.51999,-0.62341 1.13115,-1.17346 1.59955,-1.83651l0.34956,-0.49027c0.00016,-0.00023 0.00024,-0.00034 0.00024,-0.00034c0.00004,-0.00005 0.00007,-0.0001 0.00011,-0.00015l0.07223,-0.1013c0.89787,-1.28175 1.32219,-2.74007 1.86424,-4.20396l0.6647,0.17141c0.07355,-0.19177 0.14592,-0.38399 0.21691,-0.57672l0.46759,-1.26858c0.18481,-0.53353 0.73032,-0.87475 1.30772,-0.78408c0.64874,0.10187 1.09206,0.71035 0.99019,1.35908c-0.00995,0.06334 -0.02472,0.12471 -0.04389,0.18382l-0.5309,1.73068c0.00482,1.12156 -0.30662,2.15231 -0.33549,3.27364l0.86392,-0.39802c0,0 1.17464,0.18444 0.99019,1.35908c-0.07297,0.46469 -0.3009,0.71668 -0.54977,0.85154c-0.4071,1.34666 -0.55472,2.70815 -0.77685,4.12284c0,0 -0.11183,0.7122 -0.71589,0.94039c-0.47585,1.42507 -0.68619,2.77725 -0.91876,4.25838c0,0 -0.04382,0.27909 -0.22478,0.54383l-0.0144,0.51774c0.42615,0.33172 0.45057,0.91776 0.45057,0.91776l0.0563,1.49015c-0.15949,1.03283 -0.31949,2.06559 -0.48089,3.09813c0.11543,0.21509 0.14747,0.40633 0.14747,0.40633l0.14275,1.22134c-0.16494,1.02801 -0.40527,2.05054 -0.7554,3.0312l-0.0921,0.55197c-0.51758,1.68711 -1.05959,3.33026 -1.33054,5.07632c0,0 -0.0081,0.05157 -0.03171,0.13141c-0.002,0.08323 -0.01009,0.1348 -0.01009,0.1348c-0.12623,0.80392 -0.29482,1.87758 -0.46313,2.94945c0.21268,0.38265 0.14412,0.81928 0.14412,0.81928l-0.1672,1.06484c-0.25568,1.5936 -0.70511,2.89656 -1.26023,4.40253c0,0 -0.10528,0.28561 -0.35381,0.51454c0.36617,0.5242 0.06613,1.17151 0.06613,1.17151l-0.84601,1.82286c-0.72191,1.27814 -1.4537,2.5326 -2.21282,3.7791c0.07509,0.48613 -0.22648,0.9091 -0.22648,0.9091l-0.51594,0.67816c-0.17869,0.16326 -2.60867,2.39095 -2.7156,2.4557c-2.31427,1.40151 -5.20001,0.65023 -7.2326,-0.83585l-0.04117,0.00005c-0.48036,0.27439 -0.96071,0.54878 -1.44107,0.82317c-0.66772,0.48649 -1.33545,0.97297 -2.00317,1.45946c-0.18636,0.5436 -0.78933,0.73534 -0.78933,0.73534l-1.30202,0.40301c-2.33531,0.11238 -4.54381,0.48347 -6.52922,-0.81436c0,0 -0.27833,-0.19845 -0.43012,-0.53177c-1.44092,-0.76549 -2.45554,-1.71253 -3.64015,-3.33334c0,0 -0.143,-0.19627 -0.21105,-0.47603l-1.37094,-0.58569c-0.2473,-0.17435 -0.49461,-0.34871 -0.74191,-0.52306l-1.55713,-0.66829c-0.08478,-0.06719 -0.16956,-0.13437 -0.25434,-0.20156c-0.52161,-0.05431 -0.85439,-0.51106 -0.85439,-0.51106l-0.26696,-0.37756c-0.15146,-0.12003 -0.30293,-0.24006 -0.45439,-0.36008c0,0 -0.78435,-0.62768 -0.3342,-1.4501c-0.2169,-0.61927 -0.41572,-1.24736 -0.6676,-1.85103c-0.16348,-0.39181 -0.35914,-0.76877 -0.56428,-1.14133c-0.78656,-0.16946 -0.86826,-1.05388 -0.86826,-1.05388l-0.01122,-0.12145c-0.01697,-0.18383 -0.03437,-0.3676 -0.05213,-0.55132c-0.0628,-0.13346 -0.12252,-0.26833 -0.17821,-0.40506c0,0 -0.22165,-0.54753 0.03341,-1.02698c-0.26025,-2.48268 -0.55825,-4.95987 -0.74538,-7.45053c-0.23543,-3.13351 -0.46896,-6.57777 -2.1215,-9.27358c0,0 -0.50828,-0.84989 0.17849,-1.4623c-0.35321,-1.7128 -0.7108,-3.40517 -1.17951,-5.08176c-0.01524,-0.00197 -0.03065,-0.00418 -0.04624,-0.00663c-1.17464,-0.18444 -0.99019,-1.35908 -0.99019,-1.35908c0.32868,-1.9682 -0.2245,-3.74373 -0.66212,-5.65797l-0.32755,-0.64912c0,0 -0.39275,-0.85131 0.2752,-1.39081c0.00388,-0.06684 0.0137,-0.1356 0.03146,-0.20487c-0.09219,-0.0958 -0.18463,-0.19136 -0.27734,-0.28665c0,0 -0.82905,-0.85234 0.02329,-1.68138c0.85234,-0.82905 1.68138,0.02329 1.68138,0.02329c0.72264,0.7431 1.42955,1.50153 2.12876,2.2667l0.64225,0.58479c0,0 0.87505,0.80504 0.07001,1.68009c-0.06025,0.06549 -0.12089,0.12157 -0.18153,0.16928c0.02152,0.03395 0.04297,0.06796 0.06434,0.10204c0.47814,0.1326 0.73881,0.58895 0.73881,0.58895c0.25302,0.44665 0.49584,0.90187 0.71588,1.36722l0.20972,0.22678c0,0 0.43181,0.47262 0.31495,1.04113c0.028,0.08001 0.05506,0.16033 0.08115,0.24098l0.1601,0.15979c0.44572,0.05114 0.76476,0.37914 0.76476,0.37914c-0.01268,0.20415 -0.08234,0.81214 -0.03805,0.61245c0.30107,-1.35747 0.64592,-2.65101 0.75555,-4.00488c-0.4976,-0.46942 -0.2733,-1.2006 -0.2733,-1.2006c0.14929,-0.48527 0.31348,-0.96261 0.48783,-1.4347c0.01595,-0.0709 0.05646,-0.21961 0.1427,-0.37957c0.68557,-1.79329 1.50077,-3.52033 2.18089,-5.32953l0.1334,-0.09871l-0.05035,-0.0359l0.68466,-0.96027c0.25073,-0.36775 0.69863,-0.57897 1.16755,-0.50533c0.58959,0.09258 1.00952,0.60361 1.00472,1.18301l0.01522,1.61952l-0.01831,0.00017c0.00536,0.03258 0.01042,0.06522 0.01518,0.09793c0.16812,1.15554 -0.44586,2.29709 -0.54341,3.46071c-0.13647,1.62787 -0.22543,3.22372 -0.01983,4.84251l0.33672,1.04204c0,0 0.09077,0.28545 0.03793,0.61538c0.1219,0.51416 0.32937,1.03008 0.69785,1.3946l1.05264,0.3566c0,0 0.06406,0.02361 0.15582,0.07487c0.78336,-0.16838 1.53985,-0.53216 2.17809,-1.01587l0.48293,-0.55904c0,0 0.1403,-0.15251 0.36743,-0.27161c0.05405,-0.44162 0.37821,-0.75692 0.37821,-0.75692c0.81783,-0.75761 1.19616,-1.66018 1.55814,-2.6273c0.00003,-0.22277 0.05042,-0.38701 0.05042,-0.38701c1.22001,-3.95392 1.53839,-7.70994 1.39635,-11.7954c-0.15831,-0.18742 -0.22055,-0.40126 -0.23684,-0.59444c-0.04493,-0.23071 -0.03319,-0.50907 0.14408,-0.77875l0.3929,-1.06594c0.18481,-0.53353 0.73032,-0.87475 1.30772,-0.78408c0.60471,0.09495 1.03095,0.6301 1.00351,1.22772l-0.06769,2.15571l-0.12876,-0.00404c0.4663,2.52033 0.71214,5.05758 0.82135,7.66368l-0.05516,0.50016c0,0 -0.04222,0.26888 -0.21491,0.52916c0.15857,0.99 0.46493,1.94782 1.04297,2.94057l0.21682,-0.41767c0,0 0.2649,0.0416 0.52336,0.21108c0.17484,-0.05171 0.30753,-0.05724 0.30753,-0.05724c0.28531,0.02845 0.61948,0.24752 0.85593,0.08534c0.30173,-0.20696 0.40253,-0.6002 0.55867,-0.94214c-0.11409,-0.51243 0.21443,-0.97319 0.21443,-0.97319l0.68468,-0.96026c0.25074,-0.36774 0.69862,-0.57895 1.16754,-0.50532c0.5774,0.09066 0.99208,0.58265 1.00447,1.14715l0.05628,1.35084l-0.14341,0.00598c0.1263,0.46743 0.24979,0.93571 0.38126,1.40112c0.13476,0.47706 0.39917,0.90857 0.56384,1.37615c0.10181,0.28909 0.14938,0.59462 0.23394,0.88922c0.04677,0.16295 0.0289,0.59049 0.15985,0.48282c0.39755,-0.32689 0.55575,-0.86647 0.83362,-1.2997l-0.2842,0.38218c0,0 0.18444,-1.17464 1.35908,-0.99019c0.07072,0.0111 0.13651,0.0258 0.19771,0.04361c0.03538,-0.04962 0.07076,-0.09925 0.10614,-0.14887z" fill="#e29a00"></path>
        <path d="M250.48399,184.74138c-0.22107,0.20911 -0.52191,0.33389 -0.85013,0.32476c-0.65643,-0.01825 -1.17378,-0.56519 -1.15553,-1.22162c0.00555,-0.19963 0.05999,-0.38639 0.15154,-0.54914l0.5574,-1.0414l0.03034,0.01624l0.00899,-0.08423c0.20387,-0.28399 0.40961,-0.56665 0.61698,-0.84811c-0.05858,-0.04551 -0.11275,-0.09636 -0.16181,-0.15179c-0.22954,0.20458 -0.4732,0.39161 -0.73764,0.55297c-0.02856,0.01743 -0.05727,0.03452 -0.08614,0.05131l0.0106,0.01346l-1.64751,1.29707c-0.21186,0.16923 -0.48243,0.26728 -0.7747,0.25916c-0.65643,-0.01825 -1.17378,-0.56519 -1.15553,-1.22162c0.0009,-0.03246 0.0031,-0.06459 0.00654,-0.09632c-0.11377,0.10719 -0.22827,0.21523 -0.34371,0.32416c-0.60516,0.57103 -1.07102,1.34337 -1.81744,1.71101c-0.03559,0.01753 -0.07139,0.0345 -0.10738,0.05093l0.0104,0.01663l-1.62178,1.01385c-0.19468,0.12571 -0.42806,0.19595 -0.67722,0.18902c-0.51973,-0.01445 -0.95228,-0.36032 -1.10083,-0.82956c-0.63956,-0.03649 -1.13812,-0.57551 -1.1202,-1.22012c0.00447,-0.1606 0.04057,-0.31287 0.10219,-0.45101c-0.08041,0.01473 -0.16357,0.02135 -0.24856,0.01899c-0.62057,-0.01725 -1.11684,-0.50701 -1.15379,-1.11509c-0.20428,-0.02386 -0.39219,-0.09925 -0.55083,-0.21253l-0.67922,0.31633c-0.16759,0.08237 -0.35709,0.12635 -0.55672,0.1208c-0.48713,-0.01354 -0.89766,-0.31823 -1.06956,-0.74275c-0.59948,0.42242 -1.09832,1.0229 -1.78585,1.26969c-0.01954,0.00701 -0.03912,0.01385 -0.05874,0.02052l0.00613,0.0109l-1.35227,0.76107c-0.18544,0.10865 -0.40259,0.16838 -0.63326,0.16196c-0.50595,-0.01407 -0.92928,-0.34221 -1.08842,-0.79249c-0.04734,0.04656 -0.09799,0.09515 -0.15151,0.14543c-1.07022,1.28014 -2.3265,2.231 -3.75005,2.99811l-0.01034,0.01222l0.11136,0.11773l-1.10743,1.04751c-0.22107,0.20911 -0.52191,0.33388 -0.85013,0.32476c-0.34008,-0.00946 -0.64283,-0.16081 -0.85311,-0.39578c-0.14951,0.06172 -0.31411,0.09376 -0.48623,0.08897c-0.65643,-0.01825 -1.17378,-0.56519 -1.15553,-1.22162c0.00913,-0.32822 0.15042,-0.62166 0.37149,-0.83077l1.10743,-1.04751l0,0l0.62021,-0.58665l0.0162,0.01712c0.01244,-0.02295 0.02601,-0.04551 0.04079,-0.06767c0.07793,-0.11678 0.20492,-0.24617 0.36674,-0.38305c-0.20801,-0.81672 0.59671,-1.26963 0.59671,-1.26963l1.58848,-0.29734c0.29306,-0.16623 0.59327,-0.32599 0.86181,-0.51726c0.0235,-0.01674 0.04677,-0.03372 0.06976,-0.05097c0.09526,-0.07146 0.19044,-0.14304 0.28556,-0.21469c-0.07131,-0.15844 -0.10885,-0.33505 -0.1037,-0.52039c0.00828,-0.29778 0.12536,-0.56694 0.3121,-0.77047l1.59275,-1.75694l0.01326,0.01202c0.02776,-0.03647 0.05602,-0.0726 0.08482,-0.10838c0.48175,-0.59857 2.76709,-1.83316 3.60231,-2.30603l0.04824,-0.0079l-0.00597,-0.01282l1.07077,-0.49868c0.16759,-0.08237 0.35709,-0.12635 0.55672,-0.1208c0.65643,0.01825 1.17378,0.56519 1.15553,1.22162c-0.00207,0.07428 -0.0109,0.14679 -0.0259,0.21693l-0.12059,0.61723l0.02596,-0.00114l-0.00626,-0.01344l1.07077,-0.49868c0.16759,-0.08237 0.35709,-0.12635 0.55672,-0.1208c0.35871,0.00997 0.67588,0.17782 0.88682,0.43513l0.88024,-0.46001c0.30988,-0.27273 0.61666,-0.54802 0.87551,-0.85332l0.06601,-0.02589l-0.01949,-0.02061l1.10741,-1.04751c0.22107,-0.20911 0.52192,-0.33389 0.85014,-0.32477c0.51842,0.01441 0.95009,0.35858 1.0997,0.82601l0.15844,-0.08478c0.18079,-0.10109 0.39036,-0.15623 0.61246,-0.15006c0.65643,0.01825 1.17378,0.56519 1.15553,1.22162c-0.00302,0.10874 -0.02055,0.21366 -0.05069,0.31297l-0.40578,1.45047c0.00886,0.00005 0.01774,0.0002 0.02664,0.00045c0.28655,0.00797 0.54659,0.11668 0.74715,0.29126l0.64749,-0.51046c0.21194,-0.16951 0.48274,-0.26775 0.77527,-0.25962c0.38091,0.01059 0.71499,0.1992 0.92476,0.48392c0.37112,-0.28813 0.75391,-0.57273 1.15336,-0.85532l0.08733,-0.01519l-0.01335,-0.02608l1.3314,-0.68164c0.17664,-0.0948 0.37969,-0.14616 0.59445,-0.14019c0.42688,0.01187 0.79494,0.24732 0.99514,0.59106l0.42759,-0.3044c0.205,-0.14924 0.45913,-0.23434 0.73222,-0.22675c0.49721,0.01382 0.91463,0.33097 1.07994,0.76928l0.68109,-0.80446c0.22531,-0.27079 0.56817,-0.4392 0.94762,-0.42865c0.65643,0.01825 1.17378,0.56519 1.15553,1.22162c-0.0074,0.26605 -0.10164,0.50924 -0.25481,0.7032l-1.03967,1.34906c0.10177,-0.0251 0.20858,-0.03705 0.31845,-0.03399c0.65643,0.01825 1.17378,0.56519 1.15553,1.22162c-0.00312,0.11221 -0.02169,0.22035 -0.05361,0.32245c0.29943,0.18895 0.5077,0.50748 0.54817,0.87454l0.69474,-0.65714c0,0 0,0 0,0c0.22107,-0.20911 0.52191,-0.33388 0.85012,-0.32475c0.65643,0.01825 1.17378,0.56519 1.15553,1.22162c-0.00555,0.19963 -0.06,0.38639 -0.15155,0.54914l-0.57257,1.06975l0,0l0,0c-0.49772,0.92488 -0.84836,1.93447 -1.21268,2.93001c0.22457,-0.23957 0.54678,-0.38555 0.90084,-0.3757c0.65643,0.01825 1.17378,0.56519 1.15553,1.22162c-0.00246,0.0883 -0.01448,0.17408 -0.03504,0.25639l-0.30133,1.31541l-0.08325,-0.01907l0.02093,0.21299c-0.45179,0.71847 -0.97387,1.39144 -1.54122,2.02799l0.18978,0.12117l-1.25514,1.96588l-0.53498,0.99951c-0.20176,0.39674 -0.61904,0.66338 -1.09352,0.65019c-0.54078,-0.01504 -0.98717,-0.38888 -1.11747,-0.88716c-0.49027,-0.15778 -0.83873,-0.62425 -0.8237,-1.16504c0.00479,-0.17212 0.04592,-0.33468 0.11585,-0.48053c-0.22292,-0.22301 -0.35722,-0.53371 -0.34776,-0.87379c0.00203,-0.07311 0.01062,-0.1445 0.0252,-0.21362c-0.47555,-0.16623 -0.81059,-0.6252 -0.79584,-1.15569c0.00576,-0.20722 0.06421,-0.40059 0.16216,-0.56762l0.05482,-0.09797c-0.24609,-0.19907 -0.41055,-0.494 -0.43787,-0.82612l-0.20793,-2.14672l0.03022,-0.00293c-0.00951,-0.12485 -0.01186,-0.25053 -0.00574,-0.37721c0.00398,-0.08225 0.01497,-0.16244 0.032,-0.24085c-0.36949,-0.11855 -0.65859,-0.41237 -0.77251,-0.78128z" fill-opacity="0.41961" fill="#ff0000"></path>
        <path d="M234.88891,205.35241c-1.13803,0.3445 -1.48253,-0.79353 -1.48253,-0.79353l-0.10184,-1.11522c-0.09169,0.05155 -0.18714,0.09603 -0.28758,0.13115c-0.05047,0.01765 -0.10116,0.03444 -0.15206,0.05044l0.00733,0.0185l-1.88359,0.74598c-0.15192,0.06419 -0.31969,0.09764 -0.49531,0.09276c-0.65643,-0.01825 -1.17378,-0.56519 -1.15553,-1.22162c0.0046,-0.16557 0.04284,-0.32229 0.10799,-0.4638l0.47609,-1.10051l-0.42063,0.19589c-0.16759,0.08237 -0.35709,0.12635 -0.55671,0.1208c-0.65643,-0.01825 -1.17378,-0.56519 -1.15553,-1.22162c0.00618,-0.2221 0.07287,-0.42828 0.18386,-0.60317l0.76797,-1.26125l-0.57335,0.07925c-0.07087,0.01108 -0.14375,0.01587 -0.21804,0.01381c-0.58923,-0.01638 -1.06639,-0.45875 -1.14472,-1.02391l-0.23795,0.17975c-0.20918,0.16084 -0.47297,0.25343 -0.7573,0.24552c-0.65643,-0.01825 -1.17378,-0.56519 -1.15553,-1.22162c0.00756,-0.2719 0.10583,-0.51994 0.26502,-0.71594l0.23206,-0.29213c-0.11384,0.03242 -0.2345,0.04825 -0.3591,0.04479c-0.65643,-0.01825 -1.17378,-0.56519 -1.15553,-1.22162c0.00791,-0.28433 0.115,-0.54257 0.28722,-0.74248l1.1088,-1.30965c0.05659,-0.06675 0.11037,-0.13678 0.16266,-0.20855c-0.10388,-0.10035 -0.19973,-0.23302 -0.28062,-0.40671c-0.502,-1.07787 0.57587,-1.57986 0.57587,-1.57986c0.36415,-0.1696 0.72831,-0.33919 1.09246,-0.50879l0.00001,0l0,0l1.07077,-0.49867c0.16758,-0.08236 0.35708,-0.12635 0.55671,-0.1208c0.65643,0.01825 1.17378,0.56519 1.15553,1.22162c-0.00694,0.24976 -0.09042,0.47938 -0.22734,0.66702l-0.21938,0.31004c0.54307,0.12255 0.94159,0.61532 0.92554,1.19285c-0.00618,0.2221 -0.07287,0.42828 -0.18386,0.60318l-0.05956,0.09782c0.58024,0.09289 1.01588,0.60371 0.99911,1.20703c-0.00488,0.17562 -0.04761,0.34128 -0.12014,0.4894l-0.00609,0.01318c0.81855,-0.20261 1.68923,0.28782 1.88801,1.8622l0.0344,-0.02434c0.20454,-0.14805 0.45766,-0.23239 0.72956,-0.22483c0.65643,0.01825 1.17378,0.56519 1.15553,1.22162c-0.00392,0.14116 -0.0323,0.27589 -0.08095,0.40024l-0.45429,1.24627l0.35523,-0.33601c0.22107,-0.20911 0.52191,-0.33388 0.85013,-0.32476c0.65643,0.01825 1.17378,0.56519 1.15553,1.22162l-0.05243,1.88556l-0.0444,-0.00123c0.00438,0.09091 0.00617,0.18204 0.00501,0.27342c-0.00624,0.49284 -0.44637,0.8789 -0.66955,1.31835l0.33661,-0.09c0,0 0.3445,1.13803 -0.79353,1.48253z" fill-opacity="0.41961" fill="#ff0000"></path>
        <path d="M247.4784,204.41561c-1.06091,-0.0295 -1.14853,-0.97962 -1.15512,-1.18339l-0.54571,0.36733c-0.20073,0.13878 -0.44584,0.21721 -0.70848,0.20991c-0.65643,-0.01825 -1.17378,-0.56519 -1.15553,-1.22162c0.00564,-0.2028 0.06174,-0.39233 0.15594,-0.55689l0.88396,-1.62097c-0.17854,0.09763 -0.38453,0.15068 -0.60261,0.14461c-0.65643,-0.01825 -1.17378,-0.56519 -1.15553,-1.22162c0.00555,-0.19963 0.05999,-0.38639 0.15154,-0.54914l0.5574,-1.0414l0.00812,0.00435l0.00348,-0.02552c0.2461,-0.41608 0.51052,-0.83377 0.80392,-1.22766c-0.0829,0.01578 -0.16877,0.02293 -0.2566,0.02049c-0.65643,-0.01825 -1.17378,-0.56519 -1.15553,-1.22162c0.00397,-0.14296 0.03302,-0.27932 0.08282,-0.40498c-0.28035,-0.00439 -0.59564,-0.1209 -0.87554,-0.49143c-0.71669,-0.94876 0.23207,-1.66546 0.23207,-1.66546c0.45893,-0.34667 0.91786,-0.69335 1.37679,-1.04002l1.36923,-1.03431c0.20918,-0.16084 0.47297,-0.25343 0.7573,-0.24552c0.65643,0.01825 1.17378,0.56519 1.15553,1.22162c-0.00435,0.15658 -0.03879,0.30524 -0.09761,0.44061l-0.31932,0.78449c0.0007,0.00002 0.0014,0.00004 0.00211,0.00006c0.65643,0.01825 1.17378,0.56519 1.15553,1.22162c-0.00392,0.14116 -0.0323,0.27589 -0.08095,0.40024l-0.35722,0.97998c0.1583,-0.07114 0.3347,-0.10859 0.51981,-0.10344c0.65643,0.01825 1.17378,0.56519 1.15553,1.22162c-0.00422,0.15191 -0.03676,0.29637 -0.09242,0.42847l-0.81565,2.07016l-0.01196,-0.00471c-0.0085,0.03055 -0.01727,0.06105 -0.0263,0.09149c-0.00571,0.01924 -0.01164,0.03838 -0.01778,0.05743c0.38676,0.20511 0.64515,0.61689 0.63216,1.08416c-0.00246,0.08831 -0.01448,0.1741 -0.03505,0.2564l-0.28152,1.22885l-0.0352,1.47029c0,0 -0.03305,1.18857 -1.22162,1.15553z" fill-opacity="0.41961" fill="#ff0000"></path>
        <path d="M218.90111,181.50378c-1.18117,0.13648 -1.31765,-1.0447 -1.31765,-1.0447l-0.01456,-0.12603c-0.2632,-2.28326 -0.55849,-4.50063 -0.9225,-6.70228c-1.07741,0.10943 -1.26159,-0.99092 -1.26159,-0.99092l-0.24419,-1.46503c-0.18793,-2.25605 -0.07752,-3.3014 -1.28123,-5.15542c0,0 -0.63181,-1.00728 0.37547,-1.63909c0.74133,-0.46499 1.27928,-0.04217 1.51167,0.21352c0.05132,-0.01916 0.10615,-0.03636 0.16472,-0.05135c1.15192,-0.29476 1.44668,0.85716 1.44668,0.85716c1.25655,4.91359 1.99126,9.63523 2.57331,14.66045l0.01456,0.12603c0,0 0.13648,1.18117 -1.0447,1.31765z" fill-opacity="0.41961" fill="#ff6300"></path>
        <path d="M225.58141,181.37101c-1.13803,0.3445 -1.48254,-0.79353 -1.48254,-0.79353l-0.21435,-0.72227c-1.42876,-3.63477 -4.07842,-6.40012 -4.64382,-10.3764c0,0 -0.01643,-0.11886 -0.00109,-0.28628c-0.5814,-1.73601 -1.19506,-3.44949 -2.30623,-4.89143c0,0 -0.71668,-0.94877 0.23209,-1.66545c0.94877,-0.71668 1.66545,0.23209 1.66545,0.23209c2.10812,2.83619 2.50061,6.36219 4.15532,9.4349l0.13222,0.8625c0,0 -0.00256,0.09212 -0.0319,0.22436c0.98664,1.85196 2.21783,3.60586 3.00896,5.59008l0.27943,0.9089c0,0 0.3445,1.13803 -0.79353,1.48254z" fill-opacity="0.41961" fill="#ff6300"></path>
        <path d="M236.48465,159.51887c0,0 0.03305,-1.18857 1.22162,-1.15553c0.49212,0.01368 0.77481,0.22546 0.93714,0.46894c0.03684,-0.91819 0.068,-1.83663 0.09354,-2.75526c0,0 0.03305,-1.18857 1.22162,-1.15553c1.18857,0.03305 1.15553,1.22162 1.15553,1.22162c-0.17594,6.32784 -0.61577,12.64793 -1.33971,18.93615l-0.35593,1.07182c0,0 -0.40721,1.11713 -1.52434,0.70992c-1.11713,-0.40721 -0.70992,-1.52434 -0.70992,-1.52434l0.22773,-0.52939c0.19743,-1.71491 0.37349,-3.43213 0.52859,-5.15121c-0.29102,1.64757 -0.66703,3.30108 -1.15245,4.99384l-1.61406,1.05717c0,0 -0.67349,0.20388 -1.1411,-0.22016l-0.34785,0.39474c-0.54852,0.19786 -1.07347,0.70646 -1.64556,0.59359c-1.76231,-0.34767 -2.6522,-1.03854 -3.20725,-2.01994c0.03317,0.27197 0.06562,0.54391 0.09703,0.8158l0.49784,1.75986c0,0 0.32136,1.14478 -0.82342,1.46615c-1.14478,0.32136 -1.46615,-0.82342 -1.46615,-0.82342l-0.53344,-1.9136c-0.71473,-0.21744 -0.77918,-1.04675 -0.77918,-1.04675l-0.07539,-0.98078c-0.27735,-2.40696 -0.74003,-4.77707 -0.78086,-7.20593c-0.01191,-0.70848 -0.16943,-1.45462 0.05871,-2.12518l-0.01159,-0.11967c-0.24559,-0.34904 -0.23375,-0.77511 -0.23375,-0.77511l0.03745,-1.34683c0,0 0,0 0,0c0.01358,-0.48826 0.31965,-0.89958 0.74572,-1.07077c-0.01079,-0.85601 -0.03751,-1.71177 -0.09954,-2.56695c0,0 -0.08538,-1.18596 1.10058,-1.27135c1.18596,-0.08538 1.27135,1.10058 1.27135,1.10058c0.23733,3.31995 -0.05547,6.65035 0.26047,9.96696c0.05933,0.62279 0.12744,1.24549 0.20052,1.86807c0.10866,-0.06836 0.24044,-0.12562 0.39996,-0.16643c1.15192,-0.29475 1.44667,0.85717 1.44667,0.85717c0.28836,1.14004 0.68504,4.08052 2.58134,2.82817l0.06984,-0.39175c0,0 0.68681,-0.97061 1.65742,-0.2838c0.10207,0.07223 0.18582,0.14759 0.25396,0.22464c1.2387,-4.60334 1.64301,-8.92194 1.77685,-13.73552z" fill-opacity="0.41961" fill="#ff6300"></path>
        <path d="M243.09433,176.75842c-1.14161,-0.33246 -0.80914,-1.47407 -0.80914,-1.47407l0.37203,-1.27514c0.77452,-2.11013 1.04332,-3.70519 1.13755,-5.93027c0.02175,-0.51373 0.23186,-1.04439 0.09385,-1.53971c-0.1431,-0.51358 -0.59511,-0.88477 -0.89267,-1.32716c0,0 -0.63181,-1.00728 0.37548,-1.63909c1.00728,-0.63181 1.63909,0.37548 1.63909,0.37548c0.3908,0.65506 0.96895,1.23003 1.1724,1.96517c0.19839,0.71687 0.00103,1.48769 -0.011,2.23141c-0.03919,2.42299 -0.42936,4.32521 -1.25472,6.60426l-0.34879,1.19998c0,0 -0.33246,1.14161 -1.47407,0.80914z" fill-opacity="0.41961" fill="#ff6300"></path>
        <path d="M256.24008,179.29355c-1.1698,0.21298 -1.38278,-0.95683 -1.38278,-0.95683l-0.3266,-1.80294c-0.22125,-2.89477 -0.5347,-5.81362 -0.69455,-8.7154c-0.2838,2.47085 -0.4845,4.94208 -0.86123,7.4027l-0.00919,0.66094c0,0 -0.03305,1.18857 -1.22162,1.15553c-1.18857,-0.03305 -1.15553,-1.22162 -1.15553,-1.22162l0.03575,-0.95528c0.52536,-3.42092 0.64598,-6.89488 1.21079,-10.3097c0.13051,-0.78908 0.04974,-1.68307 0.48604,-2.35126c-0.0044,-0.18478 0.02577,-0.31648 0.02577,-0.31648l0.30189,-1.31787c0.11522,-0.55275 0.61273,-0.96079 1.19698,-0.94454c0.11445,0.00318 0.22467,0.02243 0.32855,0.05554c0.2352,-2.22027 0.49603,-4.43522 0.5526,-6.65921c0,0 0.03305,-1.18857 1.22162,-1.15553c1.18857,0.03305 1.15553,1.22162 1.15553,1.22162c-0.1387,4.63951 -1.14718,9.23173 -0.9283,13.92247c0.14321,3.06915 0.48326,6.15898 0.71354,9.22485l0.30755,1.68023c0,0 0.21298,1.1698 -0.95683,1.38278z" fill-opacity="0.41961" fill="#ff6300"></path>
        <path d="M259.92691,178.60578c-1.17779,-0.16316 -1.01463,-1.34094 -1.01463,-1.34094l0.06232,-0.44991c0.10722,-0.77397 0.20578,-1.54841 0.29803,-2.32316c-0.18099,0.06198 -0.40315,0.07935 -0.67476,0.01905c-1.16077,-0.2577 -0.90308,-1.41847 -0.90308,-1.41847l0.47363,-2.13343c0.80292,-3.599 2.15203,-6.90112 2.55858,-10.59523c0,0 0.13164,-1.18172 1.31336,-1.05009c1.18172,0.13164 1.05009,1.31336 1.05009,1.31336c-0.00818,0.07265 -0.01671,0.14514 -0.02557,0.21749c0.02689,0.1953 0.00825,0.34076 0.00825,0.34076c-0.68257,5.30529 -1.00702,10.64337 -1.74297,15.95603l-0.06232,0.44991c0,0 -0.16316,1.17779 -1.34094,1.01463z" fill-opacity="0.41961" fill="#ff6300"></path>
        <path d="M231.1712,207.92698c-0.60004,1.02652 -1.62656,0.42648 -1.62656,0.42648l-1.35084,-0.79467c-1.50637,-1.27324 -2.7279,-2.04274 -3.62912,-3.89546c-0.06449,-0.13259 -1.18914,-4.55567 -1.25834,-4.82613c0,0 -0.12177,-0.47589 0.09711,-0.89418c-0.06659,-0.15698 -0.0872,-0.27735 -0.0872,-0.27735l-0.06245,-0.3647c-0.37431,-2.19139 -0.94383,-4.30096 -1.37922,-6.47929c-0.22719,-1.13669 -0.55734,-2.32522 -1.27542,-3.23519c0,0 -0.71669,-0.94876 0.23207,-1.66546c0.94876,-0.71669 1.66546,0.23207 1.66546,0.23207c2.10518,2.87816 2.49778,7.23197 3.10106,10.74648l0.06245,0.3647c0,0 0.07136,0.41675 -0.11954,0.79578c0.04964,0.10991 0.06952,0.18764 0.06952,0.18764c0.37389,1.46122 0.46002,3.02328 1.09966,4.38923c0.60627,1.2947 1.81199,2.10228 2.85543,2.97912l1.17945,0.68438c0,0 1.02652,0.60004 0.42648,1.62656z" fill-opacity="0.41961" fill="#ff6300"></path>
        <path d="M260.11565,194.59341c1.15901,0.2655 0.89351,1.42451 0.89351,1.42451l-0.30681,1.33934c-0.61977,2.67318 -1.78093,5.28473 -3.0016,7.73904c-0.34348,0.69061 -1.23097,2.31193 -1.69169,2.74422c-0.9313,0.87383 -3.91859,1.83259 -5.01167,1.78975c-0.54564,-0.02138 -0.98714,-0.46721 -1.4807,-0.70081c0,0 -0.05398,-0.02889 -0.13089,-0.08582l-0.72607,0.25016c-1.33094,0.35779 -2.68333,0.65741 -4.04991,0.83758c-0.23312,0.35559 -0.63099,0.50205 -0.63099,0.50205l-1.50212,0.54333c-3.29053,0.35098 -5.58934,-0.27987 -8.54321,-1.64244c0,0 -1.07946,-0.49857 -0.58088,-1.57803c0.49857,-1.07946 1.57803,-0.58088 1.57803,-0.58088c2.43257,1.12506 4.28618,1.77525 7.00517,1.48562l1.09986,-0.41353c0.26786,-0.5567 0.95073,-0.63495 0.95073,-0.63495c1.34264,-0.15137 2.67125,-0.4384 3.97529,-0.79206l1.74334,-0.6021c0,0 1.12404,-0.38774 1.51177,0.7363c0.01944,0.05636 0.03508,0.11087 0.04726,0.16358c0.80189,0.18567 1.48113,-0.35165 2.36722,-0.74137c1.12985,-0.49693 1.40035,-1.25265 1.9479,-2.35491c1.12967,-2.27412 2.24481,-4.71519 2.80515,-7.19573l0.30681,-1.33934c0,0 0.2655,-1.15901 1.42451,-0.89351z" fill-opacity="0.41961" fill="#ff6300"></path>
      </g>
    </g>
  </g>
</svg>
