<?xml version="1.0" encoding="UTF-8"?>
<svg xmlns="http://www.w3.org/2000/svg" xmlns:xlink="http://www.w3.org/1999/xlink" version="1.1" width="321.19994" height="336.77921" viewBox="0,0,321.19994,336.77921">
  <g transform="translate(-79.40003,-11.6104)">
    <g stroke="none" stroke-miterlimit="10">
      <path d="M88.31565,328.6104c0,0 16,-20.5985 16,-32.10001c0,-24.14805 -6.06414,4.50221 -10.04872,-44.1924c-0.59522,-7.27412 3.74438,-65.15844 3.01263,-73.75344c-0.23731,-2.78745 -17.45194,-68.53772 -17.64152,-71.24481c-1.94572,-27.78276 8.67761,-71.70934 8.67761,-71.70934c0,0 -12.60264,-21.46011 8.4239,-20.44654c5.86827,0.28288 21.73281,18.2132 32.25081,17.57214c19.88693,-1.21209 85.77117,-14.42446 107.91596,-15.43106c14.92427,-0.67839 40.54072,1.62046 54.14997,0.91386c29.89262,-1.55204 65.36001,-6.60839 73.85938,-6.60839c6.34357,0 25.39999,15 25.39999,15c0,0 -4.30426,16.55744 -1.677,49.84293c2.20947,27.99243 11.3705,71.03601 11.83896,94.14703c0.97157,47.9307 -4.16196,152.01005 -4.16196,152.01005c0,0 6.8751,16.10871 -32.52064,19.49727c-5.19656,0.44698 -28.0068,-7.08378 -34.50223,-6.59417c-5.41818,0.40841 -27.16192,3.80264 -33.24331,4.17608c-4.59181,0.28197 -30.28214,8.51628 -35.06363,8.69531c-8.42783,0.31554 -43.80911,-15.34526 -52.03061,-14.98105c-9.93324,0.44004 -39.34412,6.82986 -47.9634,7.15102c-2.72426,0.1015 -17.35563,-9.79234 -19.88468,-9.68134c-10.6975,0.46953 -30.35234,15.73688 -36.1915,15.73688c-17.79261,0 -16.6,-18 -16.6,-18z" fill="#d6d6d6" stroke-width="0"></path>
      <path d="M114.91565,303.51039l-11,-15c0,0 12.57555,13.59144 33.19615,18.10359c30.25914,6.62123 74.38191,5.22504 93.09351,7.37227c14.12883,1.62134 55.71035,9.52414 55.71035,9.52414l65,-5c0,0 -60.0161,13.57931 -88.76511,11.92299c-10.7767,-0.62088 -41.27907,-11.44 -57.09454,-13.84571c-8.9022,-1.35412 -54.71337,6.39113 -63.18379,5.2433c-39.11052,-5.29991 -26.95656,-18.32058 -26.95656,-18.32058z" fill="#9e9e9e" stroke-width="0"></path>
      <path d="M121.87221,32.25288c8.47042,-1.14784 54.2816,6.59742 63.18379,5.2433c15.81547,-2.4057 46.31783,-13.22483 57.09454,-13.84571c28.74901,-1.65632 88.76511,11.923 88.76511,11.923l-65,-5c0,0 -41.58152,7.9028 -55.71035,9.52414c-18.71159,2.14723 -62.83437,0.75104 -93.0935,7.37226c-20.6206,4.51215 -33.19615,18.10359 -33.19615,18.10359l11,-15c0,0 -12.15397,-13.02067 26.95656,-18.32058z" fill="#9e9e9e" stroke-width="0"></path>
      <path d="M127.20006,98.60002c-2.5,0 -2.5,-2.5 -2.5,-2.5v-0.80002c0,-5.51812 -0.12845,-10.75879 0.93305,-16.20456c0.61519,-3.15608 0.93681,-6.36282 1.47074,-9.53366c0.08919,-0.52967 0.63009,-0.99635 0.52567,-1.52323c-0.05265,-0.26565 -0.57055,-0.01446 -0.80282,0.1248c-0.58295,0.34951 -0.99081,0.94623 -1.57183,1.29894c-1.03637,0.62913 -2.19203,1.04041 -3.25181,1.62924c-2.31091,1.28399 -4.68977,2.45102 -6.94125,3.83658c-0.57998,0.35693 -1.3265,0.68602 -1.55205,1.3286c-0.53997,1.53834 0.48884,3.35238 0.88825,4.73637c0.87705,3.03911 1.99522,6.03409 2.47783,9.16018c0.48073,3.11384 0.92516,6.43869 0.00544,9.45219c-0.02988,0.09789 -0.06193,0.19481 -0.09599,0.29085l0.04008,0.01002l-0.78731,3.14928c-0.25264,1.11331 -1.24829,1.94441 -2.43805,1.94441c-1.1246,0 -2.07577,-0.74256 -2.38994,-1.76413l-0.78176,-2.34531c0,0 -0.74592,-2.2378 1.38506,-3.09054c-0.54318,-2.02134 0.49025,-4.54818 0.11079,-6.95327c-0.77012,-4.88108 -5.00011,-11.40658 -3.03382,-16.50347c1.17913,-3.05646 4.24771,-3.86225 6.70666,-5.23481c3.93221,-2.19492 11.43115,-9.04451 15.97352,-4.14701c1.24951,1.34719 0.13227,8.88006 -0.05151,10.08668c-0.4754,3.12131 -1.53871,6.14956 -1.83065,9.29334c-0.32764,3.5284 0.01169,7.39542 0.01169,10.9585v0.80002c0,0 0,2.5 -2.5,2.5z" fill="#696969" stroke-width="0.5"></path>
      <path d="M141.22815,92.23825c0.00816,0.19201 0.34002,-0.18987 0.52721,-0.23341c0.88089,-0.20486 1.89419,-0.03596 2.66501,-0.50901c2.94153,-1.80521 4.41117,-5.25722 4.32479,-8.52304c-0.01908,-0.72157 0.60576,-2.02054 -0.10185,-2.16308c-0.90724,-0.18274 -1.46314,1.13366 -2.19472,1.70048l-2.20887,2.48256c0,0 -0.70388,0.76499 -1.69715,0.85449l-0.61427,1.4333l-0.30149,-0.12921c-0.2677,1.88969 -0.45701,3.71441 -0.39865,5.08691zM143.55999,78.42903c2.33224,-0.74624 4.69015,-3.06087 6.99672,-2.23872c2.07488,0.73956 2.45166,3.73121 3.09823,5.83692c1.51204,4.92436 -2.7561,11.59349 -6.87528,13.87698c-2.1737,1.205 -7.66261,1.97446 -9.60772,-0.74241c-0.93375,-1.30424 -0.47512,-3.18522 -0.46864,-4.78925c0.00637,-1.57695 -0.2764,-3.33504 0.507,-4.70366c0.06563,-0.11465 0.14208,-0.21832 0.22761,-0.31278l-0.10534,-0.04514l0.21239,-0.49559c-0.30274,-1.08557 0.37494,-2.1021 0.37494,-2.1021l1.57847,-2.36773c0.44513,-0.68926 1.2201,-1.14553 2.10164,-1.14553c0.36539,0 0.71246,0.07838 1.02533,0.21926z" fill="#696969" stroke-width="0.5"></path>
      <path d="M173.48832,88.68026c0.31386,-0.27921 1.8967,-1.53084 3.47951,0.052c1.76775,1.76779 -0.00003,3.53554 -0.00003,3.53554l-5.13556,1.59998c-0.98063,-1.07035 -2.42211,-1.85564 -2.94189,-3.21104c-0.16587,-0.43255 -0.25135,-0.88205 -0.28911,-1.3414c-0.69579,0.9907 -1.43882,1.93013 -2.47215,2.50215c-5.41503,2.99763 -6.17679,1.15724 -7.72937,-3.0185c-1.7872,-4.80679 0.38406,-10.1375 1.57492,-14.90529c0,0 0.60632,-2.42536 3.03168,-1.81903c2.42536,0.60633 1.81904,3.03169 1.81904,3.03169c-0.73874,2.9523 -2.30266,6.78364 -2.32532,9.79367c-0.00652,0.86572 0.62363,1.6387 0.70029,2.50105c0.02924,0.32891 -0.67151,0.72352 -0.39728,0.90745c0.27309,0.18315 0.46105,-0.47034 0.66792,-0.72593c0.86667,-1.07084 1.72516,-2.14893 2.55114,-3.25146c0.79625,-1.06285 1.5431,-2.16183 2.31446,-3.24289l1.56186,-2.34272c0.44514,-0.68924 1.2201,-1.14549 2.10162,-1.14549c1.38071,0 2.5,1.11929 2.5,2.5c0,0.2969 -0.05176,0.58173 -0.14674,0.84593l-0.68025,2.04077c0.04538,0.76497 0.05714,1.59914 0.02701,2.71331c-0.02687,0.99376 -0.5126,2.04004 -0.21173,2.98023zM175.30135,90.27733l-1.76002,-1.45498c0.30032,0.68278 1.16293,0.97718 1.76002,1.45498z" fill="#696969" stroke-width="0.5"></path>
      <path d="M173.65151,65.20973c0.49029,2.45145 -1.96117,2.94174 -1.96117,2.94174l-4.97545,0.80101c-1.92538,-1.1502 -3.83552,-2.32829 -5.70163,-3.57235c0,0 -2.08013,-1.38675 -0.69339,-3.46688c1.38674,-2.08013 3.46688,-0.69339 3.46688,-0.69339c1.33572,0.89048 2.65668,1.81029 3.89846,2.82767l3.02455,-0.79897c0,0 2.45145,-0.49029 2.94174,1.96117z" fill="#696969" stroke-width="0.5"></path>
      <path d="M206.40001,83.4c-2.5,0 -2.5,-2.5 -2.5,-2.5l0.03402,-2.01103c0.5223,-3.09863 0.4448,-6.27016 0.77455,-9.39515c0.13773,-1.3053 0.65401,-2.54367 0.91073,-3.83087c0.04324,-0.21677 0.10362,-0.8498 -0.01447,-0.66295c-0.31517,0.49868 -0.28787,1.16866 -0.61529,1.65937c-1.65775,2.48453 -6.79967,11.25499 -11.48531,7.27755c-0.45416,-0.38551 -0.63082,-0.89906 -0.65391,-1.48212c-0.3628,0.42852 -0.75029,0.84263 -0.9255,1.36455c-1.39139,4.1449 -1.63302,9.51144 -2.24991,13.83419c0,0 -0.35354,2.47487 -2.82842,2.12132c-2.47487,-0.35355 -2.12133,-2.82842 -2.12133,-2.82842c0.67728,-4.73621 1.04438,-10.42159 2.55002,-14.9658c0.31268,-0.9437 1.24707,-1.5782 1.63858,-2.49203c0.83584,-1.951 0.68258,-7.18414 4.43989,-7.07645c4.93115,0.14134 5.51208,2.33894 4.91755,4.61871c1.3257,-1.78436 5.51435,-7.19056 7.32398,-7.03086c2.10047,0.18536 3.97982,2.18843 4.78558,4.13703c0.74008,1.78975 -0.56321,3.83655 -0.68924,5.76917c-0.21344,3.27288 -0.29175,6.5687 -0.82555,9.8048l0.03402,1.18899c0,0 0,2.5 -2.5,2.5z" fill="#696969" stroke-width="0.5"></path>
      <path d="M232.86034,81.25645c0.44358,2.46034 -2.01675,2.90391 -2.01675,2.90391l-4.32681,0.65032c-1.925,-1.10474 -4.50276,-1.52199 -5.96294,-3.11629c-2.70271,2.65715 -5.93827,4.96914 -9.67183,3.84167c-1.59766,-0.48246 -1.9969,-2.84888 -2.17866,-4.50786c-0.44484,-4.06039 2.73398,-9.95579 5.36335,-12.91315c1.01896,-1.14606 1.92759,-2.62263 3.3766,-3.12474c3.84507,-1.33241 7.76301,0.10865 8.25677,4.70972c0.11259,1.04923 -0.6736,1.92414 -1.36413,2.81761l1.92587,-0.84572c-0.10292,0.87496 -0.17028,1.75583 -0.24802,2.63498l1.02232,0.51116l-1.59998,3.19998l-0.01597,-0.00799c-0.3075,0.39033 -1.01982,0.70815 -0.74886,1.04534c0.55965,0.69644 1.70416,0.53737 2.55624,0.80607l2.7289,-0.62176c0,0 2.46033,-0.44358 2.9039,2.01675zM220.57373,74.39037c-0.11766,-0.05879 -0.23787,-0.12849 -0.36049,-0.21024c-2.08011,-1.38677 -0.69334,-3.46689 -0.69334,-3.46689c2.68986,-2.30941 -0.72895,-0.57755 -1.58651,0.57176c-1.26877,1.70042 -2.714,4.31306 -3.41371,6.12417c-1.3726,3.5528 -2.18227,4.71659 0.9177,2.17802c0.74111,-0.60689 1.32809,-1.38079 2.00176,-2.06177c1.03929,-1.05057 2.08861,-2.09115 3.1346,-3.13505z" fill="#696969" stroke-width="0.5"></path>
      <path d="M257.28019,78.71327c1.38675,2.08013 -0.69339,3.46688 -0.69339,3.46688l-3.45494,1.99776c-1.52205,-0.52643 -3.44233,-0.42569 -4.56616,-1.57929c-0.57526,-0.5905 -1.0072,-1.62516 -1.29128,-2.86113c-0.77821,0.83647 -1.60213,1.61351 -2.48939,2.29588c-1.09579,0.84274 -2.17732,2.06886 -3.55833,2.12998c-11.40661,0.50478 -4.32853,-13.04248 -1.86276,-17.98136c0,0 1.11802,-2.23607 3.3541,-1.11806c2.23607,1.11801 1.11806,3.35409 1.11806,3.35409c-0.51848,1.03538 -1.08357,2.04871 -1.55545,3.10614c-0.5481,1.22825 -1.0697,2.47137 -1.5019,3.74504c-0.45704,1.34687 -1.53649,2.70839 -1.2082,4.09229c0.1822,0.76804 1.47296,-0.6504 2.04454,-1.19481c2.28108,-2.17268 4.19127,-4.63972 6.07561,-7.1425c0.11988,-0.25849 0.25305,-0.48742 0.39962,-0.68087c0.07479,-0.0987 0.15126,-0.19585 0.22931,-0.29154l-0.06333,-0.038l2.37645,-3.96071c0.43183,-0.74893 1.24069,-1.25304 2.1673,-1.25304c1.38071,0 2.5,1.11929 2.5,2.5c0,0.41988 -0.10351,0.8156 -0.28641,1.163l-1.57749,3.15502l-0.08581,-0.04291l-0.02425,0.2402c-0.3444,0.46048 -0.68732,0.93259 -1.03125,1.41136c-0.04369,1.20349 -0.27528,2.39426 -0.21354,4.16789c0.02167,0.62232 -0.23333,1.77253 0.38692,1.82758l1.3451,-1.20226c0,0 2.08013,-1.38674 3.46687,0.69339z" fill="#696969" stroke-width="0.5"></path>
      <path d="M255.68014,49.11326c1.38676,2.08012 -0.69336,3.46688 -0.69336,3.46688l-0.63975,0.4265c-3.14265,2.05601 -10.35086,7.11656 -13.97512,2.15517c-0.9213,-1.2612 -0.3146,-3.10786 -0.4719,-4.66179c0,0 0,-2.5 2.5,-2.5c2.5,0 2.5,2.5 2.5,2.5c-0.1573,0.57941 -0.49397,1.13826 -0.4719,1.73823c0.00707,0.19208 0.34072,-0.18709 0.52726,-0.2334c0.95521,-0.23716 1.99972,-0.19061 2.88796,-0.61451c1.35827,-0.64822 2.4868,-1.69596 3.7302,-2.54394l0.63974,-0.4265c0,0 2.08013,-1.38676 3.46688,0.69337z" fill="#696969" stroke-width="0.5"></path>
      <path d="M164.1285,230.42122l-3.90432,1.55938c-0.18782,0.08313 -0.38564,0.15178 -0.58658,0.21593c-1.31588,1.01484 -2.59627,2.13608 -2.91279,3.22287c-0.08852,0.30393 -0.15932,0.6118 -0.21823,0.92229c0.6056,0.32163 1.19346,0.94606 1.19346,2.15836c0,1.97073 -1.55351,2.38795 -2.21129,2.47628c-0.42016,0.53066 -1.12794,0.98499 -2.29973,0.78969c-0.78838,-0.13139 -1.28271,-0.47283 -1.59042,-0.87658c-4.0596,-0.30557 -8.19954,-1.26461 -11.76453,-3.15384c-0.66226,0.1343 -1.24034,-0.01022 -1.24034,-0.01022l-3.5504,-0.91565c-4.74995,-2.82016 -9.4271,-5.85024 -12.52062,-10.25602c-0.88199,-0.28578 -1.40277,-1.06694 -1.40277,-1.06694l-1.63558,-2.45489c-3.48396,-5.89115 -5.25637,-11.15687 -5.97214,-17.88555c-0.19467,-1.82999 -1.76294,-5.59274 -0.00719,-7.60542c0.0512,-0.81518 0.49306,-1.52437 1.14052,-1.94252l2.33926,-1.55954c0.40239,-0.27681 0.88988,-0.43884 1.41521,-0.43884c0.71662,0 1.36282,0.30152 1.81865,0.78462c6.19914,-0.30721 12.5219,-2.70154 16.18133,-7.78461c0,0 1.27501,-1.70003 3.04137,-0.78986c0.39808,-0.18977 0.81039,-0.36998 1.24079,-0.54031c-0.28951,-1.50285 1.13114,-2.44996 1.13114,-2.44996c1.78298,-1.1515 2.96547,-3.03759 4.46872,-4.53601c3.00598,-2.99632 7.42101,-4.96684 10.35024,-7.95164c0.67345,-0.68623 0.91482,-1.7255 1.60004,-2.39999c2.31311,-2.27686 5.75533,-3.62155 8.51294,-5.19452c2.45663,-1.40129 4.88948,-2.03464 7.35646,-3.2835c2.6886,-1.36105 5.38363,-3.24554 8.32527,-4.13167c2.39767,-0.72227 4.95669,-0.84423 7.33139,-1.63879c2.72591,-0.54056 6.49501,-1.608 9.30902,-0.79306c2.07048,0.59962 3.90392,1.68955 5.56518,3.03218c5.47409,-1.78847 11.19007,-3.21644 16.96749,-3.12289c1.33071,0.02155 2.74952,-0.35236 3.99058,0.12829c3.78871,1.46731 7.01722,6.03883 9.50812,10.43893c0.48942,-0.16719 0.90132,-0.1672 0.90132,-0.1672c2.14983,0.01928 4.25003,-0.80002 6.39995,-0.80002c0.97385,0 1.83417,0.71151 2.8005,0.8323c2.11656,0.26458 4.28796,0.30497 6.39908,0c4.04486,-0.58431 9.96492,-1.96338 13.70206,-3.77808c1.07022,-0.51968 1.88519,-1.73038 3.07171,-1.81753c4.70022,-0.34522 5.19961,1.17152 7.3068,4.27655c4.08555,6.02027 1.75512,13.10433 -3.89338,17.06688c-1.83386,1.21839 -3.7984,2.22909 -5.73192,3.28217c-1.09668,0.5973 -1.99436,1.70824 -3.22817,1.90105c-1.32034,0.20634 -2.60368,-0.63641 -3.93209,-0.78207c-2.41494,-0.26481 -4.50856,-0.4781 -6.71406,-0.98718c-0.11658,0.05319 -0.18992,0.07764 -0.18992,0.07764c-0.51975,0.17325 -1.03949,0.34648 -1.55924,0.51973c0.18122,4.71353 0.60976,9.60298 -3.06359,13.27632c-4.73311,4.73311 -10.5257,3.03693 -16.06672,1.43251c-0.61177,-0.17714 -1.2399,-0.31833 -1.86393,-0.46693c-0.89465,1.94937 -3.02765,1.23836 -3.02765,1.23836c-2.53209,-0.94137 -4.81441,-0.45326 -7.13608,0.36338c0.92085,1.72753 1.18091,3.58731 -0.4866,5.98238c-0.7674,1.10224 -2.09906,1.70437 -3.28841,2.32831c-0.96291,0.50514 -2.06526,0.68131 -3.09788,1.02196c-2.60672,0 -5.29353,-0.37638 -7.85349,-1.17046c-0.30865,0.19185 -0.55639,0.27443 -0.55639,0.27443c-1.95686,0.65134 -3.88939,1.37515 -5.81438,2.11539l-1.95555,2.00582c3.39438,1.00584 8.51677,3.42672 8.67446,7.75172c0.03257,0.89326 -0.35068,1.71141 -0.80448,2.51681l0.68103,1.62916c-1.40949,4.12201 -2.97862,5.74506 -6.4717,8.40939c0,0 -0.95528,0.71644 -2.04057,0.49884c-2.15265,0.59103 -4.42511,0.78462 -6.65591,0.80116c-0.00117,0.00001 -0.00235,0.00002 -0.00352,0.00003c0,0 -0.14877,0 -0.37373,-0.03629l-2.34429,-0.22765c-1.06667,-0.53334 -2.13335,-1.06669 -3.20002,-1.60003c0,0 -1.62071,-0.81037 -1.41261,-2.43108l-0.58679,-1.01823c-2.00698,-0.48712 -4.05582,-0.78457 -6.09351,-1.12076c0,0 -1.35883,-0.22646 -1.89103,-1.35186c-1.62921,-0.14493 -3.26503,-0.21712 -4.89777,-0.2141c-0.00015,0 -0.00023,0 -0.00023,0c-0.73769,0 -1.53415,0 -2.36337,0c0.43676,1.26603 -0.41952,2.23047 -0.78365,2.56871c0.53035,2.03053 -1.52449,2.85246 -1.52449,2.85246zM154.23227,229.53226c0.83253,-0.82569 1.98118,-1.22375 3.07312,-1.69852c0.65462,-0.52342 1.28986,-1.05359 1.85662,-1.62236l1.61006,-1.21134c-1.11996,0 -2.19732,0 -3.17207,0c0,0 -1.20343,0 -1.94038,-0.83495c-0.58613,0.0802 -1.06591,-0.03975 -1.06591,-0.03975l-3.60506,-0.93905c-1.99539,-1.31048 -3.86273,-2.83613 -5.55639,-4.51853c0,0 -1.51125,-1.51127 -0.3418,-3.13646l-0.31577,-0.42492c-0.17201,-0.68801 -0.34403,-1.376 -0.51604,-2.06401c-0.39862,0.03206 -0.8575,-0.04672 -1.37664,-0.30629c-2.23607,-1.11802 -1.11806,-3.35409 -1.11806,-3.35409l1.64453,-3.28501c1.41472,-2.34013 2.99212,-4.55448 4.70102,-6.66815l1.0104,-1.51559c2.77113,-4.12196 6.18864,-6.75497 10.29336,-9.49336c0,0 2.08013,-1.38674 3.46687,0.69339c1.38674,2.08013 -0.69338,3.46687 -0.69338,3.46687c-1.62396,1.08184 -3.13603,2.12503 -4.52487,3.28252c-0.20721,0.71823 -0.69409,1.20511 -0.69409,1.20511c-1.63135,1.62499 -3.20753,3.32476 -4.67897,5.10596l-0.60871,0.91305c0,0 -0.23265,0.34898 -0.65031,0.66576c-1.17176,1.52433 -2.26075,3.10654 -3.23829,4.75047l-0.25333,0.50734c0.99398,0.51068 1.28715,1.68327 1.28715,1.68327c0.26668,1.06667 0.53337,2.13335 0.80005,3.20002l0.1424,-0.36141c0,0 1.35011,1.35012 0.51066,2.87045c0.86207,0.79771 1.76565,1.55058 2.73295,2.21104l2.79496,0.66092c0,0 0.75722,0.1893 1.31968,0.77946c0.27993,-0.05405 0.47396,-0.05405 0.47396,-0.05405c3.33334,0 6.66666,0 10,0h1.20001c0,0 0.00006,0 0.00019,0c3.34848,0.00571 6.70693,0.28907 10.01077,0.834l1.18905,-0.03402c0,0 2.27705,0 2.48486,2.17316c0.75309,0.2206 1.49833,0.46547 2.23264,0.74005l2.16263,3.00006c0,0 0.14793,0.2219 0.27468,0.56905c0.5608,0.28041 1.12159,0.5608 1.68239,0.84121c0.42618,-0.12351 0.76278,-0.12351 0.76278,-0.12351c0.00171,0.00001 0.00343,0.00003 0.00514,0.00005c1.77489,0.01591 3.61593,0.02491 5.29648,-0.54588l2.11161,-1.43432c0,0 0.33944,-0.22629 0.83549,-0.35894c0.44158,-0.43478 0.79851,-0.88014 1.11495,-1.41628c-1.24304,-1.176 -0.39974,-2.86264 -0.39974,-2.86264c0.26033,-0.37406 0.64469,-0.70199 0.93636,-1.06439c0.02813,-0.03862 0.05779,-0.07729 0.08902,-0.11602c0.16487,-0.22655 0.28654,-0.46918 0.3155,-0.74627c0.04923,-0.47112 -0.70585,-0.63281 -1.03816,-0.97038c-0.69711,-0.70813 -1.54302,-1.3046 -2.45841,-1.73911c-0.31802,0.15659 -0.71433,0.25415 -1.20821,0.25415c-0.08267,0 -0.16262,-0.00273 -0.23992,-0.00802c-1.02529,0.20255 -1.9469,-0.41187 -1.9469,-0.41187c-1.89337,-1.28611 -3.57616,-1.85476 -5.63257,-2.70509l-1.73469,0.57824c-0.26421,0.09499 -0.54903,0.14675 -0.84594,0.14675c-0.73923,0 -1.40353,-0.32084 -1.86122,-0.83087c-0.01459,0.0043 -0.02931,0.00833 -0.04421,0.01212c-1.0656,0.27093 -2.10943,-0.66018 -3.20001,-0.79998c-2.55297,-0.32727 -4.78055,0.11156 -7.18661,-0.38414c-1.15659,0.22505 -2.35665,0.39076 -3.70795,0.40287c0,0 -0.15598,0 -0.39001,-0.03896c-0.58948,0.08342 -2.33407,0.15044 -2.83534,-1.85471c-0.60633,-2.42536 1.81903,-3.03169 1.81903,-3.03169l3.90229,-0.87278c0.47661,0.14634 0.93569,0.25861 1.38262,0.34492c1.73331,-0.38477 3.40572,-0.90885 5.47504,-1.13461c0.41886,-0.0457 0.85,-0.08709 1.28069,-0.14191c0.44336,-0.29682 0.98228,-0.65664 1.55354,-1.03321c0.50332,-0.80265 1.4216,-1.10875 1.4216,-1.10875c0.19992,-0.06605 0.39983,-0.13208 0.59974,-0.19813c0.73908,-0.46513 1.40689,-0.86615 1.85892,-1.09733c1.48935,-1.07547 2.84504,-2.20803 3.35637,-3.16459c0.37151,-0.695 0.65545,-1.43467 0.92611,-2.18045c-0.6252,-0.3124 -1.25061,-0.93739 -1.25061,-2.1878c0,-2.5 2.5,-2.5 2.5,-2.5l0.98368,0.85337c-0.48627,-0.87558 -0.89748,-1.77509 -1.05137,-2.75292c-0.49196,-3.12593 -0.03228,-6.82934 -0.03228,-10.00046l1.06391,-2.71802c0,0 1.11802,-2.23608 3.3541,-1.11806c2.23607,1.11802 1.11806,3.3541 1.11806,3.3541l-0.53607,0.48199c0,2.96158 -0.38837,6.26243 -0.03228,9.19956c0.23049,1.90112 1.29956,2.34501 2.17809,4.10206c0.9905,1.98099 0.36547,2.61567 1.97031,4.18036c3.07629,2.99931 7.95959,4.85032 12.18341,4.85032c0.31904,-0.10835 3.96207,-1.08692 3.52257,-2.00047c-0.08866,-0.1843 -0.18643,-0.36876 -0.29173,-0.55347l-0.11239,0.05773c0,0 -2.23609,1.118 -3.35408,-1.11809c-0.7526,-1.50527 0.01473,-2.50387 0.59669,-2.99582c-0.67792,-0.97503 -1.26305,-1.97085 -1.55333,-2.99773c-0.35598,-1.25929 -0.08757,-2.61595 -0.10727,-3.92444c-0.09697,-6.44097 0.66923,-13.20094 0.03228,-19.59955c-0.20916,-2.10114 -1.17279,-1.83925 -2.66565,-3.6155c-2.70531,-3.21885 -5.59456,-7.40644 -9.934,-8.77569c-1.47134,-0.46426 -5.46105,0.55844 -6.69098,0.80698c-2.28997,0.76053 -4.75647,0.87073 -7.06852,1.56122c-2.72048,0.81246 -5.18231,2.63578 -7.67472,3.86833c-2.45831,1.21569 -4.64072,1.7408 -7.04357,3.11647c-2.27758,1.30394 -5.58789,2.47031 -7.48706,4.40552c-0.67345,0.68623 -0.91482,1.72552 -1.60004,2.39999c-3.05544,3.00756 -7.40336,4.9917 -10.44969,8.04837c-1.61957,1.62507 -3.01459,3.52824 -4.86493,4.87609c0.51931,2.15214 -1.66255,2.87946 -1.66255,2.87946c-1.53107,0.49331 -2.75765,1.15444 -3.91024,1.94347c-0.15496,1.23193 -1.20637,2.18484 -2.48033,2.18484c-0.10772,0 -0.21386,-0.00682 -0.31799,-0.02004c-0.39289,0.32191 -0.7983,0.65429 -1.22464,0.9957l-0.70875,0.71107c0,0 -0.91697,0.89741 -2.07998,0.74954c-3.90159,2.06683 -8.35157,3.14239 -12.88614,3.14505l-1.2377,0.30943l-0.57699,0.577l-0.05006,-0.05005c-0.03437,0.2751 -0.04371,0.55404 -0.02254,0.83764c0.46349,6.20987 2.01269,11.87132 4.89478,17.31234c1.61455,0.04038 2.1817,1.74171 2.1817,1.74171c1.30851,4.13309 4.52427,7.04243 8.04762,9.45695c0.16045,-0.39658 0.46519,-0.79391 0.99398,-1.14643c2.08013,-1.38675 3.46688,0.69338 3.46688,0.69338c2.88421,4.52235 8.87109,6.34311 14.25625,6.77867c0.11467,-0.78779 0.26857,-1.56509 0.53876,-2.31127c0.14429,-0.39852 0.32243,-0.77366 0.52826,-1.12937c0.44834,-1.04364 0.83592,-2.13265 1.62884,-2.91906zM191.83225,208.73225l3.59155,-3.51935c0.98299,-0.40491 1.96713,-0.80883 2.95606,-1.20019c-0.92468,-0.64981 -1.79519,-1.38033 -2.59598,-2.19465c-0.85908,-0.87359 -1.37852,-1.99683 -1.85425,-3.14989c-0.41478,1.17168 -0.7204,2.40372 -1.35413,3.46361c-0.34153,0.57119 -0.78323,1.12615 -1.29367,1.66507c0.01201,0.09939 0.0182,0.20056 0.0182,0.30319c0,0.99801 -0.58479,1.85943 -1.43041,2.26029l-2.94321,1.4716c-0.02096,0.02194 -0.04212,0.04367 -0.0635,0.06519c-0.15895,0.23452 -0.29511,0.37068 -0.29511,0.37068l-0.56507,0.53223h1.19733c0.50234,0 0.97007,0.14815 1.36189,0.40316c0.89629,0.27201 1.73394,0.54398 2.54623,0.84828c0.18517,-0.78027 0.72408,-1.31919 0.72408,-1.31919zM223.96688,190.2744c-0.77268,-2.97985 -2.76546,-5.78407 -3.23454,-8.97394c-0.3942,-2.68064 0.8111,-3.76298 -1.45676,-5.20771l-2.47555,0.10727c0,0 -0.48055,0.00001 -1.02028,-0.21068c0.03499,4.60835 -0.39881,9.4295 -0.47972,13.71068c-0.01561,0.82581 -0.33768,1.68237 -0.10727,2.47553c0.2543,0.87539 0.68101,1.68141 1.17829,2.45045c2.59761,-0.90622 4.98405,-1.59194 7.55421,-1.55796c-0.04111,-0.90416 0.27003,-1.91282 0.04163,-2.79365zM249.60002,176.8l1.59056,0.12829c2.97264,0.99339 5.28862,1.05369 8.31494,1.49044c0.85773,0.12378 1.60728,0.92043 2.46782,0.81797c0.67494,-0.08037 0.99096,-0.94605 1.57188,-1.29896c1.79319,-1.08938 3.72433,-1.9509 5.46803,-3.11786c2.53526,-1.55674 4.64008,-5.17675 3.79408,-8.39539c-0.21672,-0.82453 -2.28989,-4.2837 -3.58062,-3.86115c-0.70112,0.22953 -1.07276,1.04411 -1.72833,1.38247c-1.49802,0.7732 -4.45487,1.31332 -5.99939,1.75449c-2.93523,0.83841 -6.09111,2.04162 -9.09849,2.46744c-0.52382,0.07417 -7.95318,0.00597 -8.00094,0c-0.70845,-0.08856 -1.2856,-0.76774 -1.99956,-0.76774c-0.71394,0 -1.29108,0.67918 -1.9995,0.76774c-0.90706,0.11338 -1.82288,0.09381 -2.73927,0.06556c0.20437,0.40773 0.39931,0.79855 0.58459,1.16832c0.71558,1.42809 1.05861,3.09162 2.08754,4.31341c0.76471,0.90804 2.63115,2.77528 3.87807,3.29868c1.03488,0.43439 2.31698,0.3125 3.28943,0.82578c0.70643,-1.03949 2.09915,-1.03949 2.09915,-1.03949zM216.80003,171.20002l3.92447,0.10727c1.22075,0.82507 2.72464,1.33862 3.66226,2.47521c2.09066,2.53431 0.90091,3.96636 1.28101,6.71706c0.42076,3.04493 2.47805,5.75916 3.16536,8.62609c0.20242,0.84434 -0.49115,1.76699 -0.22894,2.59471c0.13128,0.41441 0.78948,0.37305 1.20721,0.49336c1.79002,0.51554 3.61579,0.91422 5.37918,1.51459c0.67199,0.22879 1.30642,0.60891 2.0099,0.70398c1.05676,0.14282 2.14007,0.12491 3.19911,0c5.82492,-0.687 5.07165,-7.05258 5.20773,-11.2078c-0.6493,-1.08405 -2.26073,-1.13226 -3.41864,-1.6382c-2.01291,-0.87954 -4.3679,-3.06416 -5.72203,-4.70132c-1.26234,-1.52619 -1.82825,-3.51426 -2.71239,-5.28656c-1.7477,-3.50335 -4.07803,-6.82964 -6.23436,-10.11163c-0.925,-1.40788 -1.73257,-3.1875 -3.51044,-3.81507c-0.75842,-0.26772 -1.60536,0.11047 -2.40944,0.1283c-4.42775,0.09815 -8.70266,0.89442 -12.92271,2.10951c1.00248,1.1421 1.94669,2.30588 2.85606,3.40552c1.49849,1.81203 3.34098,3.66632 3.73438,5.98454c0.12215,0.7198 0.21846,1.45692 0.29305,2.20759c0.62139,-0.30714 1.23923,-0.30715 1.23923,-0.30715z" fill="#696969" stroke-width="0.5"></path>
      <path d="M229.62207,253.88048c0.61956,2.42201 -1.80245,3.04158 -1.80245,3.04158l-3.86566,0.98864c-4.86427,1.37445 -9.67784,2.73236 -14.6131,3.83013c-11.79651,2.60623 -23.43956,4.85919 -35.54083,4.85919c-0.55878,0 -9.84765,0.01646 -10.26179,-0.05192c-1.25483,-0.20718 -5.89521,-2.16092 -7.84367,-2.36684c-3.05289,-0.32265 -6.20779,-0.06098 -9.16814,-0.87372c-4.81924,-1.32308 -8.82535,-4.39401 -12.29417,-7.8398c0,0 -1.76774,-1.76779 0.00005,-3.53554c1.76779,-1.76774 3.53554,0.00005 3.53554,0.00005c2.81345,2.83536 6.15619,5.492 10.10585,6.56023c2.72317,0.73651 5.62956,0.4016 8.43183,0.72625c2.77886,0.32194 5.28462,1.93079 8.0432,2.3955c3.10667,0.52335 6.30087,-0.01421 9.45131,-0.01421c11.73306,0 23.01996,-2.2135 34.45917,-4.74079c4.86265,-1.07958 9.60282,-2.42295 14.39541,-3.77675l3.92589,-1.00445c0,0 2.42201,-0.61956 3.04157,1.80245z" fill="#696969" stroke-width="0.5"></path>
      <path d="M226.50004,274.50004c0,2.5 -2.5,2.5 -2.5,2.5l-1.5906,-0.1283c-1.11056,-0.46353 -2.4153,-0.05681 -3.60897,0.09602c-5.39222,0.69039 -10.78686,0.72253 -16.19428,1.62375c-7.79015,-0.00597 -15.41587,2.22766 -23.00569,3.17624c-1.32334,0.16539 -2.67806,0.16925 -4.00092,0c-0.70818,-0.0906 -1.28561,-0.76771 -1.99957,-0.76771c-0.71394,0 -1.29319,0.66369 -1.99952,0.76771c-2.37054,0.34909 -4.75529,0.60186 -7.14156,0.81883c-9.63621,0.87615 -19.14488,0.75968 -28.65257,3.13881c0,0 -2.42535,0.60634 -3.03169,-1.81902c-0.60634,-2.42536 1.81902,-3.0317 1.81902,-3.0317c9.75063,-2.43547 19.47195,-2.3636 29.34743,-3.26121c2.29148,-0.20828 4.57938,-0.46473 6.85845,-0.78115c0.96457,-0.13392 1.82659,-0.83227 2.80041,-0.83227c1.75526,0 3.46822,1.12088 5.19959,0.83227c7.61362,-1.26916 15.55604,-3.21787 23.39422,-3.22377c5.2825,-0.8804 10.53962,-0.93267 15.80572,-1.57621c0.96667,-0.11813 1.82677,-0.84794 2.8005,-0.83234c1.10751,0.01775 2.12708,0.6189 3.19063,0.92836l0.00938,-0.12831c0,0 2.5,0 2.5,2.5z" fill="#696969" stroke-width="0.5"></path>
      <path d="M221.43614,293.21801c-1.118,2.23609 -3.35408,1.11809 -3.35408,1.11809l0.00825,-0.58462c-6.66899,1.31428 -13.50478,0.84854 -20.29027,0.84854c-3.34626,-0.00547 -6.67873,-0.45421 -10.00619,-0.80851c-2.25204,-0.23979 -4.49606,0.55079 -6.74747,0.79634c-3.16284,0.34497 -6.44275,-0.35771 -9.59998,0c-7.03625,0.79719 -13.56845,1.65466 -20.27722,3.8909c-2.8007,0.93356 -6.57076,1.32315 -9.05483,2.94792c-1.30902,0.8562 -2.41572,2.82 -3.23417,4.06007c0,0 -1.38673,2.08015 -3.46687,0.69342c-2.08014,-1.38673 -0.69341,-3.46687 -0.69341,-3.46687c1.49913,-2.22992 2.38812,-3.93582 4.76584,-5.5399c2.79984,-1.88885 6.98448,-2.39857 10.14511,-3.45211c7.04312,-2.34769 13.94534,-3.30444 21.32288,-4.1091c3.16284,-0.34497 6.44275,0.3577 9.59998,0c2.54857,-0.28875 5.09898,-1.04422 7.65255,-0.80363c3.19465,0.30097 6.385,0.79717 9.59379,0.79147c6.42605,0 13.00484,0.53034 19.30971,-0.75144l3.20832,1.01535c0,0 2.23608,1.118 1.11808,3.35408z" fill="#696969" stroke-width="0.5"></path>
      <path d="M309.61508,297.36668c2.5771,-2.14759 4.59842,-4.96965 7.14691,-7.15528c4.52371,-3.87961 9.78412,-6.32733 14.59412,-9.75221c3.32038,-2.36422 5.55075,-5.15259 8.60591,-7.84778c3.68556,-3.25133 5.9016,-5.01962 8.1283,-9.46811c0.94797,-2.78885 2.92029,-4.6493 4.02341,-7.25468c1.01315,-2.39288 2.62288,-7.41355 3.01857,-9.78903c0.98507,-5.91359 -0.34015,-12.42511 -2.96836,-17.68153c-0.83893,-1.67786 -0.97831,-3.73612 -2.15066,-5.20058c-1.26603,-1.58149 -3.32675,-2.313 -5.00824,-3.44284c-3.30313,-2.21946 -5.23904,-2.61658 -8.90397,-3.67432c-3.49941,-1.00996 -5.19293,-2.37183 -8.95859,-2.40183c-6.71408,-1.00493 -12.06128,0.28284 -18.37326,2.38026c-2.02396,0.67255 -4.26769,0.65544 -6.21249,1.53094c-8.115,3.65317 -14.33105,9.05898 -20.93671,14.79447c-2.02931,1.76199 -4.33808,3.24572 -6.08943,5.28422c-4.04219,4.70494 -6.12124,9.95794 -9.45042,14.9984c-2.59832,3.85442 -4.16442,8.39209 -6.23435,12.51159c-2.77162,5.51599 -6.47988,10.22094 -9.71914,15.41598c-3.53909,5.6759 -6.79018,11.66505 -11.55887,16.45344c-0.67847,0.68127 -1.72016,0.9201 -2.40002,1.59997c-0.57345,0.57345 -1.11474,1.18661 -1.66418,1.79018c5.11077,1.94002 9.65893,5.21292 15.00881,6.84569c2.68554,0.81961 5.60059,0.42193 8.39307,0.71513c4.41692,0.46377 8.62456,2.37028 13.13923,2.38607c0.76304,0.00267 1.39776,-0.67742 2.15485,-0.77254c7.24214,-0.9099 14.64909,-1.49327 21.70211,-3.77807c1.7385,-1.14677 3.83549,-1.62482 5.74163,-2.46393c1.14114,-0.50234 4.63361,-2.87901 5.96998,-3.77042l0.57655,-0.1107c0.77292,-0.75266 1.60075,-1.45542 2.42525,-2.14249zM228.31986,302.28673c-1.38673,-2.08014 0.69342,-3.46687 0.69342,-3.46687c2.9545,-1.88423 5.24321,-4.84394 7.45337,-7.50483c3.6387,-4.38076 6.3979,-8.52559 9.40676,-13.32933c1.38441,-2.21026 3.42189,-3.97946 4.71217,-6.24596c4.01218,-7.0478 6.84742,-15.03356 11.33434,-21.82647c1.28499,-1.90632 2.03001,-4.12563 3.06758,-6.17714c1.61757,-3.19831 4.34174,-6.53009 6.68195,-9.22448c1.95539,-2.25133 4.45855,-3.96119 6.71062,-5.91573c2.73996,-2.37798 5.24891,-4.91776 8.035,-7.22924c4.01196,-3.32853 9.46714,-6.28401 14.22825,-8.37638c0.74693,-0.32826 5.61874,-1.34502 6.58756,-1.66901c6.94304,-2.32189 12.9597,-3.61299 20.32617,-2.60558c1.41557,0.05275 2.86939,-0.17276 4.24671,0.15827c2.0063,0.4822 3.70954,1.8647 5.69525,2.42574c4.06916,1.1497 6.62052,1.89266 10.29598,4.32568c2.13691,1.41455 4.5913,2.55569 6.19182,4.5571c1.36535,1.70733 1.6716,4.04416 2.64927,5.99949c3.09084,6.18168 4.57659,13.77608 3.43167,20.71849c-0.39418,2.39021 -2.30032,8.51184 -3.38144,11.0109c-1.15332,2.66591 -3.05902,4.33039 -3.97659,7.14534c-2.56476,5.1344 -5.23325,7.6011 -9.47168,11.33194c-1.98154,1.74423 -3.58635,3.89289 -5.59998,5.59997c-3.58551,3.03966 -7.5974,4.98985 -11.52369,7.43801c-4.05761,2.53004 -7.38892,5.89506 -10.74657,9.24111c-1.39267,1.38786 -2.84178,2.42947 -4.1296,3.6717c-0.20795,1.00468 -0.90229,1.46684 -1.49707,1.67943c-0.15893,0.21347 -0.31278,0.43556 -0.46092,0.66785l-1.91244,1.98105c0,0 -1.46021,1.46015 -3.05347,0.39925c-0.65873,0.39026 -1.26512,0.72187 -1.75756,0.94263c-1.8059,0.8096 -3.81738,1.22975 -5.45832,2.33612c-7.49468,2.54598 -15.36193,3.25975 -23.09794,4.22192c-0.91676,0.11403 -1.72125,0.82481 -2.64507,0.82744c-1.4917,0.00426 -2.91691,-0.66373 -4.40169,-0.80732c-1.37829,-0.13329 -2.78086,0.15774 -4.15411,-0.02012c-1.89387,-0.24529 -3.6038,-1.40695 -5.50504,-1.58643c-3.06947,-0.28975 -6.25028,-0.0109 -9.20691,-0.88496c-5.71822,-1.69046 -10.55317,-5.44455 -16.07818,-7.2246c0,0 -1.16975,-0.3899 -1.59242,-1.44356c-0.66414,0.04165 -1.45502,-0.17817 -2.0972,-1.14146z" fill="#696969" stroke-width="0.5"></path>
      <path d="M309.85632,269.38626c-1.28625,-2.14373 0.85747,-3.42998 0.85747,-3.42998l3.9309,-2.35701c8.25073,-5.71833 15.89614,-11.01624 22.53474,-18.57134c0.67043,-1.06508 1.52893,-2.03281 2.0113,-3.19522c0.50911,-1.22685 -0.22258,-2.95784 -1.30392,-3.60541c-2.63392,-1.57736 -8.53049,0.95479 -10.85818,1.95154c-8.44278,3.61533 -17.499,8.85944 -24.64253,14.65363c-0.52408,0.42508 -5.47215,5.51066 -5.80108,6.14794c-1.62718,3.15247 -0.53073,4.81201 2.61505,4.61961c1.19419,-0.07304 2.33981,-0.50096 3.50972,-0.75144c0,0 2.45145,-0.49029 2.94173,1.96117c0.49028,2.45146 -1.96117,2.94173 -1.96117,2.94173c-4.25306,0.8037 -11.44536,2.06502 -12.52838,-4.29845c-0.36857,-2.16561 0.02618,-4.50357 0.86728,-6.53292c0.73952,-1.78428 2.39669,-3.0331 3.6915,-4.46628c3.49223,-3.86544 7.72008,-6.31995 12.01306,-9.18095c6.71949,-4.47813 14.50761,-9.5153 22.43873,-11.45257c5.50002,-1.34345 11.35917,-1.72827 13.79922,4.68917c0.55182,1.45131 0.47104,3.16694 0.03758,4.65789c-0.51697,1.77818 -1.85908,3.20319 -2.78863,4.80478c-1.96359,2.25271 -3.69901,4.7297 -5.9047,6.74596c-5.42762,4.96147 -11.9321,8.91338 -17.96058,13.08261l-4.06911,2.44304c0,0 -2.14372,1.28625 -3.42997,-0.85748z" fill="#696969" stroke-width="0.5"></path>
      <path d="M284.00004,252.00004c2.5,0 2.5,2.5 2.5,2.5l-0.41988,2.98674c-2.15643,2.99136 -1.7491,3.61126 -5.67966,4.28097c-5.35581,0.91255 -13.42128,-2.19164 -10.60464,-9.2474c1.04546,-2.61891 6.04896,-2.79543 7.0945,-5.37704c0.2817,-0.69557 -0.12687,-1.49554 -0.1903,-2.2433c0,0 0,-2.5 2.5,-2.5c2.5,0 2.5,2.5 2.5,2.5c-0.06343,1.38557 0.36836,2.88718 -0.1903,4.15672c-0.61768,1.40366 -1.98218,2.3538 -3.12476,3.37668c-0.00737,0.0066 -4.95054,2.46933 -4.18075,3.28697c2.26912,2.41018 6.34058,1.37886 7.71569,-1.00713l-0.41988,-0.21321c0,0 0,-2.5 2.5,-2.5z" fill="#696969" stroke-width="0.5"></path>
      <path d="M325.57177,228.89057c-0.79055,2.37171 -3.16227,1.58116 -3.16227,1.58116l-3.37724,-1.40394c-0.34993,-0.95183 -0.8995,-1.86215 -1.23837,-2.81628c-0.19335,0.51277 -0.46229,0.96797 -0.89521,1.28277c-1.48646,1.08091 -3.55021,0.95272 -5.32532,1.42908l-3.36012,-1.98324c0,0 -2.08012,-1.38676 -0.69335,-3.46688c1.38676,-2.08012 3.46688,-0.69335 3.46688,-0.69335l1.43993,1.21683c2.17779,-0.34656 1.93818,-3.47667 0.69321,-4.94996c0,0 -1.38674,-2.08013 0.6934,-3.46687c2.08013,-1.38674 3.46687,0.6934 3.46687,0.6934c0.66105,1.12002 1.79559,2.0731 1.98316,3.36005c0.02853,0.19577 0.04143,0.39168 0.04135,0.58758c0.65136,-0.90232 1.35732,-1.73248 1.89535,-2.46092c0,0 1.5,-2 3.5,-0.50001c2,1.5 0.50001,3.5 0.50001,3.5c-0.98596,1.29035 -2.83262,2.86258 -2.63226,4.73227l1.42281,0.19604c0,0 2.37171,0.79055 1.58116,3.16227z" fill="#696969" stroke-width="0.5"></path>
      <path d="M318.23609,235.61811c-1.11807,2.23605 -3.35412,1.11798 -3.35412,1.11798l-0.97225,-0.58465c-1.33333,-0.26666 -2.66667,-0.53333 -4,-0.79999c0,0 -2.45145,-0.49028 -1.96117,-2.94174c0.49028,-2.45145 2.94174,-1.96117 2.94174,-1.96117c1.33333,0.26666 2.66667,0.53333 4,0.79999l2.22782,1.01545c0,0 2.23605,1.11807 1.11798,3.35412z" fill="#696969" stroke-width="0.5"></path>
      <path d="M358.5678,278.66776c-1.76777,1.76777 -3.53553,0 -3.53553,0l-0.53223,-0.56776c-2.31087,-1.82127 -5.85125,-3.41152 -4.93312,-7.37435c0.19599,-0.84592 4.54157,-5.07306 5.46536,-5.9934c0.3233,-0.3221 0.59609,-0.73301 0.88463,-1.11649c0.19279,-0.76099 0.71533,-1.28353 0.71533,-1.28353l2.40002,-2.40002v0v0c0.45241,-0.45241 1.07741,-0.73223 1.76777,-0.73223c1.38071,0 2.5,1.11929 2.5,2.5c0,0.52531 -0.16202,1.01278 -0.43882,1.41517l-1.58101,2.37158l-0.04811,-0.03207c-0.03154,0.07721 -0.0644,0.15399 -0.09867,0.2303c-1.17007,2.60584 -4.93689,4.12224 -6.70025,6.18942c-0.11617,0.13618 0.2501,0.25869 0.39497,0.36382c0.87857,0.63757 1.78127,1.2412 2.67191,1.8618l1.06775,1.03222c0,0 1.76777,1.76777 0,3.53553z" fill="#696969" stroke-width="0.5"></path>
      <path d="M337.43229,289.0678c-1.76777,-1.76777 0,-3.53553 0,-3.53553l0.56774,-0.5322c2.27048,-3.02583 4.43963,-8.56053 9.51799,-7.13612c1.03149,0.28932 0.71712,2.08673 1.44979,2.86832c0.32741,0.34928 0.94852,0.13071 1.42278,0.19606c0,0 2.37171,0.79057 1.58114,3.16228c-0.79057,2.37171 -3.16228,1.58114 -3.16228,1.58114c-1.12572,-0.46797 -2.49136,-0.56629 -3.37715,-1.40392c-0.17483,-0.16532 -0.24577,-0.3861 -0.26392,-0.6314c-0.21836,0.38262 -0.47852,0.74556 -0.72753,1.10754c-0.76878,1.11755 -1.6272,2.17071 -2.4408,3.25607l-1.03223,1.06777c0,0 -1.76777,1.76777 -3.53553,0z" fill="#696969" stroke-width="0.5"></path>
      <path d="M300.82834,204.09057c-0.79057,-2.37171 1.58114,-3.16228 1.58114,-3.16228l2.79008,-0.896c0.6109,0.23332 1.45123,1.2311 1.8327,0.69995c0.4568,-0.63605 -0.64086,-1.4545 -0.73223,-2.23223c-0.15558,-1.32422 0,-2.66667 0,-4c0,0 0,-2.5 2.5,-2.5c2.5,0 2.5,2.5 2.5,2.5c0,1.81566 0.16792,8.66919 -0.73223,9.76777c-0.97618,1.19136 -3.04488,0.46663 -4.56732,0.69995l-2.00985,0.70398c0,0 -2.37171,0.79057 -3.16228,-1.58114z" fill="#696969" stroke-width="0.5"></path>
      <path d="M324.96789,202.6677c-1.7677,1.76783 -3.53553,0.00013 -3.53553,0.00013l0.96765,-0.06782c-1.53333,0 -8.23709,0.24376 -9.17046,-0.96147c-0.72209,-0.93241 0.84843,-7.87454 1.11903,-9.22883c0,0 0.49028,-2.45145 2.94174,-1.96117c2.45145,0.49028 1.96117,2.94174 1.96117,2.94174c-0.27078,1.35273 -0.29734,2.77835 -0.81234,4.05818c-0.02527,0.06281 -0.0608,0.11873 -0.10399,0.16946c0.02213,-0.00799 0.04378,-0.01403 0.06486,-0.01791c1.31135,-0.2411 2.66667,0 4,0l2.56775,1.53215c0,0 1.76783,1.7677 0.00013,3.53553zM317.89342,197.9355c-0.31013,0.16699 -0.6427,0.31559 -0.72285,0.62598c-0.09172,0.3552 0.30282,-0.22184 0.72285,-0.62598z" fill="#696969" stroke-width="0.5"></path>
      <path d="M119.9,152.89999c0,-2.5 2.5,-2.5 2.5,-2.5h1.60004c4.17619,0.03745 8.53566,0.67945 12.60633,1.67465c0,0 2.42536,0.60633 1.81903,3.03169c-0.60633,2.42536 -3.03169,1.81903 -3.03169,1.81903c-3.60162,-0.92437 -7.69283,-1.56804 -11.39367,-1.52537h-1.60004c0,0 -2.5,0 -2.5,-2.5z" fill="#696969" stroke-width="0.5"></path>
      <path d="M115.9,163.3c0,-2.5 2.5,-2.5 2.5,-2.5l0.99371,0.07464c2.80106,-0.6848 5.7228,-0.86405 8.60633,-0.87463c0,0 2.5,0 2.5,2.5c0,2.5 -2.5,2.5 -2.5,2.5c-2.47637,-0.01032 -4.99502,0.10972 -7.39367,0.72535l-2.20636,0.07464c0,0 -2.5,0 -2.5,-2.5z" fill="#696969" stroke-width="0.5"></path>
      <path d="M284.02536,80.70636c-0.60635,2.42535 -3.0317,1.81901 -3.0317,1.81901l-2.89912,-0.74411c-0.95767,-0.03907 -1.95998,0.16872 -2.85133,0.57774c-0.03731,0.98291 -0.09237,1.96688 0.02454,2.94057c0.42946,3.5769 3.44239,6.65291 0.10004,10.16821c-0.93135,0.97955 -2.44396,1.22474 -3.76728,1.49995c-1.7749,0.36911 -4.64357,-0.22379 -6.49503,0.01355c-2.23348,0.28631 -4.45372,0.81872 -6.70548,0.81872c-3.99048,0 -7.73588,1.03183 -11.59955,1.56773c-3.40489,0.47226 -7.01128,-0.48422 -10.39995,-0.00001c-5.9188,0.84574 -11.59674,3.58631 -17.45202,4.77139c-4.65203,1.13791 -9.87696,1.85417 -14.64297,2.44217c-2.35053,0.28999 -4.75583,-0.31416 -7.10503,-0.01355c-2.64497,0.33845 -5.35441,1.27622 -7.99999,1.60001c-4.7883,0.58603 -9.76799,-0.52214 -14.55415,0.02011c-9.40111,1.06511 -18.40539,4.00292 -27.79564,5.57118c-2.1734,0.43207 -4.25617,1.29804 -6.45021,1.60869c-2.16314,0.30627 -4.38278,-0.22117 -6.55413,0.02011c-7.18288,0.79815 -14.33836,3.16616 -21.44587,3.97989c-2.63112,0.30124 -5.27116,-0.51892 -7.90592,-0.78644c-3.63138,-0.36871 -10.44568,1.50311 -13.46231,-1.51352c-2.35296,-2.35296 -1.18052,-5.19827 -1.51352,-7.86231c-0.65327,-5.22621 -0.81872,-10.1609 -0.81872,-15.50544c0,-4.80001 0,-9.60001 0,-14.40002c0,-0.42537 -0.03632,-9.05814 0.10727,-9.52445c1.37278,-4.45813 7.37756,-6.1447 11.29377,-7.27585c6.11415,-1.766 12.33512,-5.62678 18.69854,-6.46741c2.32479,-0.30711 4.72269,-0.17465 6.99406,-0.75762c0,0 1.2866,-0.32165 2.21991,0.44067c0.71409,-0.51532 1.58644,-0.51532 1.58644,-0.51532c1.75187,0.0202 3.4642,-0.52703 5.19957,-0.76774c4.73188,-0.65635 9.65852,-0.23238 14.39997,-0.79998c1.95908,-0.23452 3.73763,-1.36548 5.69504,-1.61356c0.95748,-0.12134 6.40507,0.08021 7.25906,-0.00656c4.55307,-0.46262 9.063,-1.14164 13.6314,-1.60291c2.11212,-0.21326 4.25828,0.23337 6.3686,0.0029c3.48752,-0.38088 6.00322,-1.57889 9.54093,-1.59344c3.49346,-0.89529 6.80956,-1.1136 10.30496,-1.58642c1.67135,-0.22608 3.13193,-1.35129 4.80006,-1.60001c2.33881,-0.34872 4.74453,-0.25417 7.05193,-0.77139c4.08329,-0.9153 8.07861,-2.71113 12.24301,-3.24216c1.0267,-0.13092 2.07973,0.15515 3.10501,0.01355c1.95452,-0.26993 3.73266,-1.40844 5.69504,-1.61356c5.60585,-0.58595 11.18501,-0.97847 16.79998,-1.6c2.10509,-0.23302 4.29572,-0.11669 6.30498,-0.78644c2.92338,0 5.91996,-0.40054 8.80004,-0.80002c2.84217,-0.39422 3.97952,-2.47505 6.96821,0.69995c1.08439,1.15199 1.54807,2.91799 1.51011,4.49962c-0.02609,1.0869 -1.37318,1.75111 -1.68512,2.79262c-0.23698,0.79122 0.09166,1.64972 0.10727,2.47553c0.05542,2.93217 0.00917,5.87181 0.00114,8.8057c0.39541,-0.10569 0.69881,-0.10569 0.69881,-0.10569c2.40001,0 4.8,0 7.20001,0h3.20002c0,0 2.5,0 2.5,2.5c0,2.5 -2.5,2.5 -2.5,2.5c-2.40001,0 -8.00002,0 -10.40003,0c0,0 -0.60378,0 -1.2179,-0.29673c-0.02103,0.01103 -0.04239,0.02197 -0.06405,0.0328c-2.23608,1.11801 -3.35409,-1.11806 -3.35409,-1.11806l-1.06391,-2.71802c0,-3.19839 -0.04815,-6.40201 0,-9.6c0.0197,-1.30848 -0.23792,-2.66215 0.10726,-3.92444c0.23847,-0.87207 2.2304,-1.89714 1.42496,-2.3078c-0.75459,-0.38473 -2.41341,0.66771 -2.63176,0.69995c-2.84986,0.42078 -5.90241,0.80002 -8.80005,0.80002c-2.06993,0.68998 -4.32649,0.5717 -6.49496,0.81353c-5.63826,0.6288 -11.16175,1.0637 -16.8,1.60001c-1.90111,0.18084 -3.61565,1.30873 -5.50503,1.58646c-1.08667,0.15973 -2.20479,-0.1198 -3.29501,0.01355c-3.97997,0.4868 -7.84833,2.29588 -11.75699,3.15781c-2.40702,0.53079 -4.90537,0.49825 -7.34797,0.82865c-1.67134,0.22608 -3.13192,1.35127 -4.80004,1.6c-3.57229,0.53265 -6.90832,0.73624 -10.49497,1.61353c-3.62285,-0.01581 -6.00547,1.19481 -9.65915,1.60657c-2.13029,0.24008 -4.29911,-0.21939 -6.43133,0.0029c-4.54629,0.47396 -9.0359,1.15068 -13.56867,1.5971c-2.36882,0.23329 -4.77831,-0.29677 -7.14084,-0.00656c-1.89544,0.23283 -3.6112,1.34087 -5.50503,1.58646c-4.7256,0.61281 -9.70378,0.10657 -14.39996,0.79998c-1.99766,0.29496 -3.98126,0.81419 -6.0005,0.8323c0,0 -0.90659,0 -1.62789,-0.54594c-0.48161,0.35025 -0.96578,0.4713 -0.96578,0.4713c-2.41345,0.59005 -4.93807,0.5543 -7.40585,0.84235c-6.11606,0.7139 -12.21259,4.66946 -18.1015,6.33258c-1.81714,0.51319 -3.50444,1.41576 -5.20059,2.24548c-1.09982,0.53801 -2.47686,0.04349 -2.70565,1.67869c-0.37304,2.66611 0.10727,5.38344 0.10727,8.07552c0,4.80001 0,9.60001 0,14.40002c0,5.15446 0.15277,9.86652 0.78126,14.89453c0.20418,1.63344 -1.07748,3.77368 0.08652,4.93768c0.41008,0.41008 1.15778,0.07929 1.73768,0.08652c1.44124,0.01798 7.9285,-0.08591 8.8,-0.00001c2.1711,0.21402 4.333,1.11202 6.49411,0.81354c7.16408,-0.98947 14.48753,-3.21274 21.75408,-4.02012c2.06925,-0.22991 4.18532,0.31777 6.24592,0.02012c2.15962,-0.31196 4.21052,-1.16113 6.34972,-1.59132c9.52449,-1.58398 18.65531,-4.58728 28.20436,-5.62877c4.68381,-0.51085 9.58197,0.61694 14.24591,0.02011c2.64497,-0.33846 5.35442,-1.27623 8.00001,-1.60001c2.41366,-0.29539 4.88268,0.29261 7.295,-0.01354c4.59789,-0.58353 9.67935,-1.21028 14.15695,-2.35782c5.9596,-1.17648 11.71679,-3.96717 17.74805,-4.82864c3.40088,-0.48577 7.01614,0.49962 10.39998,0c2.94387,-0.43466 5.89835,-1.24766 8.89503,-1.61356c2.1176,-0.25857 4.28396,0.27125 6.39998,0c2.23348,-0.28631 4.45372,-0.82356 6.70547,-0.81872c1.2776,0.00275 2.81081,0.69973 3.8322,-0.06775c0.85183,-0.64006 -0.31932,-2.11486 -0.63252,-3.13328c-0.66182,-2.15201 -0.86741,-4.44703 -0.86741,-6.69851c-0.01067,-0.03047 -0.02134,-0.06093 -0.03202,-0.09139c-0.80025,-0.7392 -0.80025,-1.90906 -0.80025,-1.90906l1.05713,-0.34514c0.34659,-0.59531 0.85611,-0.935 0.85611,-0.935c1.02077,-0.63753 1.90172,-1.59411 3.06231,-1.91261c1.35998,-0.37321 2.81992,-0.05903 4.22987,-0.08854l3.50089,0.85594c0,0 2.42536,0.60635 1.81901,3.0317z" fill="#696969" stroke-width="0.5"></path>
      <path d="M328.49032,106.55146c-2.45146,0.49029 -2.94174,-1.96117 -2.94174,-1.96117l-0.84783,-4.54975c0.29131,-1.24895 0.58261,-2.49792 0.87392,-3.74687c0,0 0.60633,-2.42536 3.03169,-1.81903c0.98524,0.24631 1.47019,0.79278 1.69874,1.35491c0.84924,-7.86886 1.5949,-15.808 1.5949,-23.72954c0,-3.16712 0,-6.33424 0,-9.50136c-2.22018,-0.06085 -2.3865,-2.14742 -2.39896,-2.4597c-1.0546,-1.35656 -2.25429,-2.63305 -3.68777,-3.55883c0,0 -2.08011,-1.38677 -0.69334,-3.46688c1.38677,-2.08011 3.46688,-0.69335 3.46688,-0.69335c1.20652,0.82342 2.3035,1.80812 3.31103,2.88032c-0.00072,-0.5334 -0.00071,-1.06681 0.00216,-1.60019c0.00502,-0.93324 -0.02982,-1.86838 0.03228,-2.79956c0.01773,-0.26586 0.46837,-0.72621 0.20595,-0.77234c-0.66879,-0.11754 -1.30663,0.49828 -1.98458,0.45973c-1.35755,-0.07719 -2.64891,-0.64694 -4,-0.80002c-3.56187,-0.40357 -7.36309,0.01217 -10.9536,0.01217c-0.02161,0 -0.04322,0.00003 -0.06483,0.0001l-1.5446,4.63388l-0.06986,-0.02328c-0.01639,0.1085 -0.03408,0.21688 -0.05314,0.32512c-0.18932,1.07479 -1.18919,1.83026 -1.78379,2.7454l-0.00583,0.0041l0.00215,0.00144l-1.18046,1.77072c0.00023,0.01414 0.00035,0.02832 0.00035,0.04252c0,1.38071 -1.11929,2.5 -2.5,2.5c-0.12757,0 -0.25289,-0.00956 -0.37532,-0.02799c-0.91877,0.19546 -1.57044,-0.10672 -2.01216,-0.50642c-0.71873,0.53441 -1.61252,0.53441 -1.61252,0.53441h-0.79998c-4.25054,0 -8.99703,0.5682 -13.2005,-0.03229c-1.19133,-0.17018 -2.4984,-0.5595 -3.60899,-0.096c0,0 -2.37171,0.79055 -3.16226,-1.58116c-0.79055,-2.37172 1.58116,-3.16226 1.58116,-3.16226c1.06353,-0.30942 2.0831,-0.91053 3.19058,-0.92827c0.9737,-0.01561 1.83637,0.69455 2.80041,0.83227c3.92579,0.56082 8.42562,-0.03228 12.39959,-0.03228h0.79998c0,0 0.01759,0 0.04982,0.00147c-0.31988,-2.05766 -0.3438,-4.13802 -0.14985,-6.30146c0.14945,-1.66713 -0.58705,-3.93766 0.73223,-4.96778c1.73625,-1.35569 4.37025,-0.57997 6.56782,-0.73223c6.4569,-0.44739 13.09639,-0.13837 19.4463,0.81218c1.46346,0.21907 3.21528,-0.40592 4.41544,0.45973c2.25414,1.62588 1.82767,5.4089 1.83821,7.6281c0.02911,6.13297 0,12.26695 0,18.39999c0,10.53194 -1.24113,21.11351 -2.4187,31.50544c-0.64457,5.68825 0.33479,10.50627 -1.61359,16.09502l0.00825,0.71532c5.30764,-0.61276 10.86764,-1.54369 15.83643,0.48785c2.01855,0.82531 4.69493,1.3068 5.67514,3.25485c0.18374,0.36516 -3.20974,7.40669 -3.66813,7.94339c-0.95201,1.11464 -2.379,1.72059 -3.48139,2.68677c-3.84409,3.36909 -7.21134,7.87681 -10.41144,11.86038c-0.13822,0.11565 -0.44167,0.36134 -0.84404,0.68976c-1.16857,2.04172 -2.32231,4.09252 -3.49319,6.13405l-2.48931,3.32715c0,0 -1.30249,1.73667 -3.09834,0.75968c-1.28649,1.26646 -2.98615,2.88875 -3.41305,3.37833c-0.74975,0.85984 -1.51216,1.72951 -2.07416,2.72229c-0.4832,0.85357 -0.26884,2.13582 -1.02773,2.75721c-1.49928,1.22762 -3.42311,2.93996 -5.28821,2.41432c-1.61082,-0.45398 -1.38102,-3.0525 -2.18478,-4.52042c-1.1382,-2.07871 -2.47381,-4.04448 -3.78834,-6.01642c-1.18567,-1.77862 -3.17747,-3.92801 -4.17116,-5.89659c-0.91897,-1.82055 -1.52615,-3.86972 -2.26565,-5.81927c-1.44539,-2.30294 -2.7857,-4.65414 -3.92924,-7.08173c-2.19875,-3.071 -4.82988,-5.97095 -7.28599,-8.48304c-0.23382,-1.72538 -1.7266,-3.76877 -0.70145,-5.17613c1.0461,-1.43613 3.46518,-0.81713 5.22811,-1.03822c3.27033,-0.41012 6.61904,-1.16486 9.89089,-1.54759c1.12622,-0.13174 2.40913,0.58011 3.40157,0.03166c0.49341,-0.27267 -0.52316,-1.02458 -0.59244,-1.58405c-0.32773,-2.64645 0,-5.33334 0,-8c0,-4.06436 -0.35149,-7.75283 -0.78789,-11.75364c-0.51921,-4.76013 0.45688,-9.67669 -0.00365,-14.44018c-0.15695,-1.62345 -0.3699,-3.2986 -0.34535,-4.94078c-0.21901,0.03459 -0.36311,0.03459 -0.36311,0.03459h-3.20002c-2.18156,-0.01412 -4.31437,0.80284 -6.49597,0.79815c-0.94303,-0.00203 -1.77369,-0.67897 -2.70448,-0.83043c-1.60073,-0.26046 -3.19273,0.57718 -4.79913,0.79999c-3.17198,0.43995 -6.79325,0.03228 -10.00042,0.03228c0,0 -2.5,0 -2.5,-2.5c0,-2.5 2.5,-2.5 2.5,-2.5c2.917,0 6.31725,0.45784 9.19953,0.03228c0.83423,-0.12318 1.56325,-0.69541 2.40002,-0.79999c2.03244,-0.25401 4.04813,0.77522 6.09637,0.76955c2.11828,-0.00587 4.18581,-0.79051 6.30407,-0.80183h3.20002c0,0 0.89375,0.00001 1.61248,0.53439c0.49824,-0.45082 1.26358,-0.77757 2.37804,-0.40609c2.37171,0.79056 1.58115,3.16227 1.58115,3.16227c-1.15751,3.07536 0.12486,6.30884 0.12829,9.60944c0.00813,7.82708 0.80005,15.39854 0.80005,23.20001c0,2.66666 0.19655,5.34059 0,8c-0.11921,1.61301 0.5805,3.70227 -0.59245,4.81592c-1.54944,1.4711 -4.13016,1.09618 -6.19853,1.6317c-0.61584,0.15945 -1.38474,0.35724 -2.20883,0.56056c0.19975,0.52804 0.19975,0.99182 0.19975,0.99182c-0.04711,1.8495 0.61955,3.68955 1.38063,5.37586c3.03833,6.73198 7.11433,12.86829 9.71921,19.79377l1.34708,2.34863c0.22424,0.3748 0.35313,0.81321 0.35313,1.28173c0,0.17737 -0.01847,0.35043 -0.0536,0.51735l0.12133,0.11486c0,0 0.17978,0.17979 0.36735,0.48202c0.26244,-0.35119 0.53486,-0.69553 0.8123,-1.03553c-0.40231,-0.44371 -0.64741,-1.03258 -0.64741,-1.6787c0,-0.59805 0.20999,-1.14705 0.56027,-1.57729l3.11104,-3.88878l0.00358,0.00286c0.00394,-0.00732 0.00788,-0.01462 0.01183,-0.02193c1.57106,-2.90718 4.17491,-5.125 6.17708,-7.75394c3.48945,-4.5818 7.19715,-8.86882 10.88596,-13.21184c0.05445,-0.98884 0.78247,-1.71685 0.78247,-1.71685l2.40003,-2.39999v0c0.1959,-0.1959 0.42417,-0.35945 0.6761,-0.48192c0.03944,-0.04787 0.07887,-0.09575 0.11829,-0.14365l0.29061,-0.49469c-3.3637,-0.40748 -6.83272,-0.72913 -10.1168,-0.24424c-1.52549,0.22523 -3.0428,0.58126 -4.57403,0.74503c-0.35944,0.08724 -0.62641,0.08724 -0.62641,0.08724l-0.00504,-0.0315c-0.26444,0.01807 -0.52938,0.02912 -0.79494,0.0315l0.39999,-2.5l-0.39999,-2.5c0.23717,0.00274 0.47561,0.00207 0.71521,-0.00164l0.01703,-1.89883c0.37707,-1.17296 1.43627,-4.28212 1.58648,-5.50496c0.28942,-2.35619 0.00039,-4.79091 -0.08236,-7.19931c-0.25237,0.15534 -0.56338,0.27968 -0.94608,0.35622zM329.69934,100.15948l0.08704,0.39929c0.04422,-0.4006 0.08849,-0.80143 0.13275,-1.20248c-0.07326,0.26773 -0.14653,0.53545 -0.2198,0.80318zM309.70233,50.1627l0.26697,-0.7555c-0.60678,-0.26082 -1.20569,-0.52079 -1.80154,-0.33945c-0.51296,0.15611 0.64852,0.90263 0.73224,1.43225c0.01398,0.08845 0.02681,0.17633 0.03857,0.26369zM349.61253,125.64151c-0.25675,-0.09427 -0.52584,-0.10448 -0.80044,-0.082c-0.02565,0.09403 -0.05665,0.18586 -0.09266,0.27512c0.52825,-0.1068 1.21406,-0.07527 0.8931,-0.19312zM299.44639,129.78782c-0.12471,0.01386 -1.12086,0.19247 -2.15854,0.17329c1.0249,1.07074 2.04274,2.20799 3.02428,3.39181c-0.24268,-1.18804 -0.38792,-2.39468 -0.41161,-3.62406c-0.16014,0.02336 -0.31199,0.04317 -0.45414,0.05897z" fill="#696969" stroke-width="0.5"></path>
      <path d="M322.4,109c-2.5,0 -2.5,-2.5 -2.5,-2.5l0.12829,-0.80944c-0.65815,-2.04946 -0.90898,-4.23811 -0.92828,-6.39057c0,0 0,-2.5 2.5,-2.5c2.5,0 2.5,2.5 2.5,2.5c-0.01866,1.6186 0.1366,3.28174 0.6717,4.80945l0.12829,2.39056c0,0 0,2.5 -2.5,2.5z" fill="#696969" stroke-width="0.5"></path>
      <path d="M308.79058,72.07173c-2.37171,0.79055 -3.16226,-1.58116 -3.16226,-1.58116l-0.92827,-3.19058c0.30942,-1.06351 0.61885,-2.12704 0.92827,-3.19055c0,0 0.79056,-2.37171 3.16227,-1.58115c2.37171,0.79056 1.58115,3.16227 1.58115,3.16227c-0.2239,0.53648 -0.44779,1.07296 -0.67169,1.60944l0.6717,1.60947c0,0 0.79055,2.37172 -1.58116,3.16227z" fill="#696969" stroke-width="0.5"></path>
      <path d="M315.51801,74.33609c-2.23608,1.11801 -3.3541,-1.11806 -3.3541,-1.11806l-1.06391,-2.71802c0,-1.06667 0,-2.13334 0,-3.20001c0,0 0,-2.5 2.5,-2.5c2.5,0 2.5,2.5 2.5,2.5c0,1.06667 0,2.13334 0,3.20001l0.53607,0.48199c0,0 1.11802,2.23608 -1.11806,3.3541z" fill="#696969" stroke-width="0.5"></path>
      <path d="M315.12115,310.88407c-0.00705,0.00532 -0.0141,0.01063 -0.02116,0.01594c0,0 -2.00001,1.49998 -3.5,-0.50003c-1.49998,-2.00001 0.50003,-3.5 0.50003,-3.5c4.75285,-3.55236 9.13613,-10.48277 15.32561,-11.63312c4.10831,-0.76355 6.69596,-0.02324 7.85226,4.50132c0.30019,1.17462 -0.53312,2.36886 -0.90616,3.52241c-0.35812,1.10743 -0.48029,2.40466 -1.28306,3.2474c-1.0077,1.05788 -2.57875,1.37644 -3.83384,2.12432c-3.26627,1.94628 -6.45316,3.00566 -10.06424,4.20942l-1.59059,0.1283c0,0 -2.23693,0 -2.47886,-2.11596zM318.66587,307.7714c2.86171,-0.98145 5.37668,-1.97705 8.07935,-3.43365c0.81648,-0.44004 1.88074,-0.45089 2.56618,-1.07576c0.06516,-0.0594 1.27494,-3.2611 0.70898,-3.35784c-1.22863,-0.21001 -3.26224,1.14433 -3.96555,1.55813c-2.76018,1.62398 -5.03211,4.03086 -7.38896,6.3091z" fill="#696969" stroke-width="0.5"></path>
      <path d="M342.42654,308.25141c-0.54627,0.02382 -1.17031,-0.15964 -1.79433,-0.78368c-1.76774,-1.76779 0.00004,-3.53553 0.00004,-3.53553c0.83349,-0.83167 1.61451,-1.71947 2.50048,-2.495c2.61395,-2.28812 8.77929,-8.07961 12.77137,-7.83534c1.77737,0.10875 3.92566,0.23899 5.10527,1.57293c1.33931,1.51455 1.41792,3.85991 1.48584,5.88055c0.26115,7.76891 -10.24402,8.39268 -15.39109,9.54283l-3.09464,-0.92643c0,0 -1.15253,-0.38417 -1.58293,-1.42032zM346.4572,305.27058l0.83877,0.33127c0.85185,-0.24697 1.69213,-0.5381 2.55555,-0.74092c1.81134,-0.4255 10.50728,-1.71375 7.5392,-6.23572c-0.37483,-0.57107 -2.53888,0.43392 -2.69233,0.52057c-2.97101,1.67771 -5.71401,3.8107 -8.24119,6.1248z" fill="#696969" stroke-width="0.5"></path>
      <path d="M236.668,273.76819c0.02232,-0.81057 0.45192,-1.45496 0.45192,-1.45496c0.4781,-0.70386 0.89754,-1.45137 1.43431,-2.11158c0.17647,-0.21705 0.86846,-0.28257 0.6811,-0.4903c-0.32597,-0.36142 -0.98887,-0.10931 -1.42204,-0.3312c-1.89848,-0.97252 -3.84675,-2.31117 -6.09895,-0.75349c-1.44885,1.00206 -5.32164,6.38677 -4.28003,8.17476c0.39814,0.68343 1.51022,-0.47074 2.2667,-0.70167c2.03567,-0.62144 4.0816,-1.27538 5.98099,-2.23581zM240.8572,275.56222c0.02775,0.165 0.04279,0.34387 0.04279,0.53778c0,2.5 -2.5,2.5 -2.5,2.5l-0.48196,-0.26392c-3.23211,1.6004 -10.9067,5.72917 -14.15233,1.86257c-3.85868,-4.59694 1.24711,-13.16016 5.31995,-15.82524c3.66314,-2.397 8.2224,-1.58776 11.50115,0.84648c1.18608,0.88058 2.89917,1.47124 3.37789,2.86875c0.81471,2.37836 -1.54101,5.25699 -2.68452,6.99809c0,0 -0.14914,0.22371 -0.42296,0.47549z" fill="#696969" stroke-width="0.5"></path>
      <path d="M223.68013,301.91327c1.38675,2.08013 -0.69338,3.46688 -0.69338,3.46688l-2.20174,1.45321c-1.41517,1.41517 -2.38664,3.23479 -3.8172,4.63439c-4.45599,4.35957 -9.4663,4.31726 -15.11629,3.07136c-1.38343,-0.30507 -6.60981,-1.43791 -7.24302,-2.83603c-0.73945,-1.63272 1.00485,-7.12483 2.19338,-8.68028c4.55249,-5.95784 11.97056,-6.9855 18.89268,-7.80408c1.24586,-0.14733 2.42827,-0.95488 3.67476,-0.81298c1.68206,0.19149 3.1728,1.18208 4.7592,1.77311c0,0 2.32118,0.9285 1.39269,3.24968c-0.9285,2.32118 -3.24968,1.39269 -3.24968,1.39269c-1.08027,-0.47565 -2.06718,-1.30107 -3.2408,-1.42696c-0.94015,-0.10085 -1.78795,0.6625 -2.72526,0.787c-1.05738,0.14044 -2.14061,-0.12448 -3.19999,0c-2.54078,0.29854 -4.28367,1.49781 -6.73633,2.29749c-0.8879,0.2895 -1.9434,0.10513 -2.73743,0.59675c-1.76538,1.09304 -2.6507,3.22473 -3.6669,5.03543c-0.2503,0.446 -0.93077,0.67641 -0.97331,1.18607c-0.02747,0.32907 0.57866,-0.42752 0.90748,-0.39728c1.04327,0.09595 2.02715,0.53204 3.04946,0.7612c0.91017,0.20402 4.68897,1.16709 6.07717,0.80596c3.90752,-1.01652 5.95435,-4.86514 8.58944,-7.50023l2.59819,-1.74675c0,0 2.08013,-1.38675 3.46688,0.69338z" fill="#696969" stroke-width="0.5"></path>
      <path d="M258.02259,302.37056c-1.38595,1.95844 -3.40929,0.60958 -3.40929,0.60958c-1.52499,-1.01735 -4.98562,-3.25154 -6.02945,-4.36211c-0.92037,-0.97922 -1.84695,-2.09073 -2.17657,-3.39354c-2.69378,-10.64716 16.15445,-15.39029 18.48642,-4.10169c0.20838,1.00873 -0.68948,1.95669 -0.82598,2.97763c-0.26756,2.00112 -0.2787,4.06789 -0.89599,5.99013l-2.85366,2.2455c0,0 -1.21046,0.60523 -2.29548,0.03449zM257.13778,298.65806c0.41482,-0.52941 0.94423,-0.79412 0.94423,-0.79412l0.3463,0.64553c0.57929,-1.65391 0.43706,-3.47796 0.70398,-5.20994c0.25142,-1.63139 1.69072,-1.82171 0.02973,-3.31089c-1.94795,-1.74644 -9.17887,0.58888 -7.96927,3.78693c0.85071,2.24918 3.97204,3.62898 5.94503,4.88248z" fill="#696969" stroke-width="0.5"></path>
    </g>
  </g>
</svg>
