<?xml version="1.0" encoding="UTF-8"?>
<svg xmlns="http://www.w3.org/2000/svg" xmlns:xlink="http://www.w3.org/1999/xlink" version="1.1" width="315.17529" height="337.80314" viewBox="0,0,315.17529,337.80314">
  <g transform="translate(-79.63326,-3.08518)">
    <g stroke-miterlimit="10">
      <path d="M79.63326,55.17949v-45h312.73352v45z" fill="#ffffff" stroke="none" stroke-width="0"></path>
      <text transform="translate(87.63326,44.40001) scale(0.97671,0.97671)" font-size="40" xml:space="preserve" fill="#000000" stroke="#000000" stroke-width="3" font-family="&quot;JetBrains Mono&quot;, Sans Serif" font-weight="normal" text-anchor="start">
        <tspan x="0" dy="0">Попробуй ещё!</tspan>
      </text>
      <g stroke="none" stroke-width="0.5">
        <path d="M258.89498,217.37012c-4.25922,8.0525 -3.83074,16.32865 -2.69242,25.43532c0.56397,4.51181 0.57304,10.09212 3.20476,14.15896c0.71202,1.10029 2.05209,1.69841 2.78314,2.78615c1.97239,2.93474 3.19341,7.04456 4.33125,10.46389c-0.01005,0.02421 -0.01965,0.04848 -0.02881,0.07258l-0.09694,0.00708c0,0 0.00003,0.09263 0.01648,0.24415c-0.39499,1.50399 0.83183,2.73531 0.83183,2.73531c3.52386,3.29699 2.21515,4.07891 2.89434,8.62257c0.28883,1.9322 1.58987,3.6306 1.85148,5.56667c0.98625,7.29895 1.48166,14.80369 0.01152,22.13338c-0.36224,1.80602 -0.50897,3.65627 -0.90525,5.45513c-0.90284,4.09829 -4.63189,8.4145 1.37012,11.50288c3.18445,1.63858 8.79592,-0.16946 12.49253,1.12533c1.32138,0.42572 3.21178,0.20722 3.92176,1.4002c0.324,0.54442 0.40551,1.4385 0.08151,1.98292c-0.27645,0.46452 -0.99077,0.43752 -1.49991,0.61912c-2.1814,0.77809 -5.58377,2.4754 -7.88787,2.49143c-2.90788,0.02023 -7.50159,-2.63648 -10.32007,-3.55749c-2.54898,-0.83294 -5.31375,-0.76775 -7.98039,-1.05083c-3.72359,-0.39528 -6.33272,-1.83434 -10.20137,-1.85025l-3.36116,-0.86103c0,0 -0.13115,-0.03262 -0.34342,-0.05569c-1.15987,-1.46499 -3.13137,-0.80804 -3.13137,-0.80804l-0.59428,0.97074c0.83722,-1.76156 -0.29118,-4.13414 -0.29118,-6.21272c0.58865,-1.73314 1.84851,-3.16729 2.56557,-4.85136c2.48448,-5.835 3.97283,-12.76622 5.67383,-18.88623c0.58305,-2.09773 2.56614,-3.70805 2.84478,-5.86739c0.75658,-5.86317 -5.07184,-14.38781 -9.51375,-17.63835c-1.11484,-0.81582 -2.57571,-1.05041 -3.70674,-1.84363c-1.24983,-0.87653 -1.95125,-2.48087 -3.35555,-3.0795c-1.33542,-0.56927 -2.8883,0.05556 -4.32371,-0.16124c-1.11545,-0.16848 -2.07779,-0.98124 -3.20575,-0.96316c-1.19657,0.01918 -6.22119,2.00811 -7.28039,2.40949c-0.69109,0.95868 -3.93035,5.31371 -4.55033,6.55668c-1.729,3.46634 -1.99835,7.64045 -3.71885,11.09852c-0.56385,1.13329 -1.68754,1.9916 -2.02523,3.21153c-1.57622,5.69421 0.93658,12.46471 1.74966,17.97156c0.97432,6.59889 -0.61971,12.84213 -2.67421,19.00581c0,0 -0.10386,0.30142 -0.14726,0.6016c-6.98428,3.39413 -16.01564,5.58389 -23.57031,6.82454c-1.8538,0.30444 -3.70243,-0.66326 -5.56219,-0.92893c-1.88681,-0.26954 -3.94379,0.11188 -5.68115,-0.67189c-0.81314,-0.36683 -2.33078,-0.7846 -2.11019,-1.64895c0.2484,-0.97329 5.06025,-2.88568 5.79429,-3.38061c3.66269,-0.93045 6.89311,-1.08142 8.92993,-5.40479c0.95074,-2.01806 -1.52649,-4.87148 -1.7631,-6.89131c-0.1797,-1.53402 0.18936,-3.10332 -0.00221,-4.63591c-0.40137,-3.21103 -1.35422,-5.96393 -0.91598,-9.38263c0.85039,-6.63385 2.34034,-11.68553 5.28043,-17.63079c0.82457,-1.66738 0.65642,-3.78655 1.71386,-5.31687c1.30537,-1.88912 2.94649,-3.63936 3.82543,-5.75038c5.44329,-8.39887 8.22658,-17.97609 12.16032,-27.153c1.14182,-2.66371 2.64731,-5.29646 2.9881,-8.17447c0.35466,-2.99509 0.38403,-6.05838 0.00483,-9.05046c-0.28737,-2.26745 -1.54343,-4.33509 -1.86823,-6.59748c-0.19341,-1.34721 0.30774,-2.77973 -0.08547,-4.08272c-0.00894,-0.02964 -0.01821,-0.05913 -0.02781,-0.08847c0.00231,-0.00652 0.00345,-0.00993 0.00345,-0.00993c0.51904,-1.55702 0.37168,-3.44837 1.41024,-4.71924c2.57069,-3.14571 7.07641,-3.51493 10.6826,-3.49781c3.40381,0.01616 7.29955,-0.5082 10.66645,-0.03798c3.19447,0.44614 6.09143,2.41564 9.38617,2.79676c5.0563,0.5849 9.83141,0.10673 14.26179,2.52559c0.1693,0.66821 0.6008,1.59063 1.69038,1.96563z" fill="#e36f00"></path>
        <path d="M210.73544,226.58886c-0.45872,0.12281 -0.81089,0.12281 -0.81089,0.12281l-3.67407,-3.81175c1.86099,-4.71194 -2.29889,-6.20798 2.84293,-10.6528c2.93347,-2.53583 8.46668,-1.53997 11.95166,-1.52122c2.12463,0.01143 4.18243,-0.91507 6.30708,-0.92114c6.34608,-0.01811 12.71324,2.0846 18.99955,2.78863c2.20769,0.24725 4.44997,0.19999 6.66442,0.0233c1.52404,-0.12161 3.30067,-1.55479 4.53917,-0.65835c4.99285,3.61387 2.38512,5.9483 0.54989,8.98969c0.1176,3.25428 0.66693,6.6785 1.02926,9.92752c0.14116,1.2658 0.99829,2.43523 0.9267,3.70686c-0.12711,2.25764 0.47149,5.52053 -1.50777,6.61396c-1.93397,1.06841 -4.34142,-1.15558 -6.19443,-2.35893c-2.24056,-1.45502 -3.08818,-5.93076 -6.20511,-6.68978c-1.04387,-0.2542 -2.15463,0.22947 -3.22148,0.10257c-1.26473,-0.15044 -2.44355,-0.76476 -3.70686,-0.9267c-2.45116,-0.31421 -4.96205,0.31071 -7.41366,0c-2.15214,-0.27275 -4.07543,-1.87821 -6.24433,-1.83387c-1.21538,0.02485 -2.3112,0.92975 -3.52683,0.92805c-2.82002,-0.00396 -5.58925,-0.93753 -8.40925,-0.92591c0,0 -2.89598,0 -2.89598,-2.89598c0,-0.00232 0,-0.00464 0.00001,-0.00696z" fill="#9f4d00"></path>
        <path d="M214.63848,297.39612l-0.11317,0.71408c2.32903,6.98717 2.96378,13.92959 2.92877,21.30345c-0.0066,1.38993 -0.16497,2.7856 -0.03739,4.16968c0.13036,1.41434 1.35031,2.87136 0.80735,4.18382c-1.25141,3.02495 -7.2894,5.46978 -10.16384,6.44108c-11.12799,3.76022 -22.21624,2.44118 -33.79054,1.65941c-1.07537,-2.09111 -3.68863,-3.96786 -3.22611,-6.27334c0.38037,-1.89597 3.20976,-2.26869 5.05551,-2.84541c3.56635,-1.11434 7.7341,1.16967 11.26648,-0.683c2.221,-1.16488 6.61958,-4.07552 8.46396,-5.91991c3.39664,-3.39664 4.77625,-8.99263 6.85999,-13.12526c2.34387,-4.64856 5.65254,-8.53064 7.26779,-13.54408c0,0 0.91578,-2.74737 3.66314,-1.83159c2.74737,0.91578 1.83159,3.66314 1.83159,3.66314c-0.24483,0.716 -0.51805,1.4103 -0.81352,2.08793z" fill="#9f4d00"></path>
        <path d="M248.84644,302.61699c0.218,0 0.41959,0.01641 0.606,0.04676c-0.09941,-3.61485 0.35171,-7.28359 1.21805,-10.82714c0,0 0.70237,-2.80951 3.51188,-2.10714c2.80951,0.70237 2.10714,3.51188 2.10714,3.51188c-1.79049,6.9762 -1.69601,14.76992 2.38026,20.85904c0.943,1.40865 2.23505,3.73853 3.74645,4.70318c0.90081,0.57494 2.18061,0.42158 3.01544,1.08872c0.96729,0.77299 1.29697,2.13012 2.14339,3.03385c1.03973,1.11014 3.15565,1.47347 3.47156,2.96131c1.01122,4.76259 -2.59262,7.67445 -6.83039,7.51708c-1.37475,-0.05105 -2.29681,-1.54781 -3.56735,-2.07533c-2.90665,-1.20682 -6.77784,-1.88459 -9.83193,-2.6481c-2.38322,-0.83077 -10.48204,-0.34566 -11.66678,-1.92496c-1.26284,-1.68343 0.09468,-4.22101 0.42883,-6.29876c0.8033,-4.99491 4.97823,-9.22112 6.52007,-14.00678l-0.1486,-0.93763c0,0 0,-2.89598 2.89598,-2.89598zM244.42398,322.58684c-0.30998,0.15057 -0.61089,0.30239 -0.70858,0.60485c-0.11972,0.37067 0.26306,-0.15555 0.70858,-0.60485z" fill="#9f4d00"></path>
        <path d="M257.1812,215.45747c-4.43038,-2.41886 -9.19256,-1.93671 -14.24886,-2.52161c-3.29474,-0.38113 -6.18269,-2.34968 -9.37716,-2.79583c-3.3669,-0.47023 -7.25283,0.05355 -10.65665,0.03739c-3.60619,-0.01712 -8.10183,0.3497 -10.67252,3.49541c-1.03856,1.27087 -0.88854,3.16126 -1.40758,4.71828c0,0 -0.00113,0.0034 -0.00344,0.00993c0.00959,0.02934 0.01887,0.05883 0.02781,0.08847c0.39321,1.30299 -0.10655,2.73494 0.08686,4.08215c0.3248,2.26239 1.5818,4.32962 1.86917,6.59707c0.3792,2.99209 0.35466,6.05296 0,9.04806c-0.34079,2.87801 -1.8371,5.50439 -2.97891,8.1681c-3.93374,9.17691 -6.69657,18.70832 -12.13985,27.1072c-0.87895,2.11103 -2.52091,3.85285 -3.82628,5.74197c-1.05744,1.53032 -0.89088,3.64279 -1.71545,5.31018c-2.94009,5.94526 -4.43709,10.98186 -5.28747,17.61571c-0.43824,3.4187 0.50963,6.16508 0.911,9.3761c0.19157,1.53259 -0.17971,3.09952 0,4.63354c0.23661,2.01982 2.70988,4.86959 1.75914,6.88765c-2.03682,4.32337 -5.34369,4.56134 -9.00638,5.49178c-0.73404,0.49493 -5.4665,2.32297 -5.7149,3.29626c-0.2206,0.86435 1.29567,1.28084 2.10881,1.64767c1.73736,0.78377 3.79173,0.40014 5.67854,0.66968c1.85976,0.26568 3.7054,1.23114 5.5592,0.9267c7.55467,-1.24066 16.5726,-3.43741 23.55687,-6.83154c0.04341,-0.30018 0.1076,-0.49277 0.1076,-0.49277c2.05451,-6.16368 3.64321,-12.40917 2.66888,-19.00806c-0.81308,-5.50684 -3.34276,-12.28968 -1.76653,-17.9839c0.33769,-1.21993 1.45978,-2.08001 2.02362,-3.2133c1.7205,-3.45806 1.97786,-7.6542 3.70686,-11.12054c0.61999,-1.24296 3.85944,-5.63067 4.55052,-6.58936c1.0592,-0.40138 6.12151,-2.42878 7.31809,-2.44795c1.12796,-0.01808 2.12862,0.79565 3.24407,0.96413c1.43541,0.2168 3.01581,-0.38622 4.35122,0.18305c1.40429,0.59863 2.11533,2.22979 3.36516,3.10633c1.13103,0.79322 2.59201,1.0376 3.70685,1.85342c4.44191,3.25054 10.25719,11.80785 9.50061,17.67101c-0.27864,2.15934 -2.27011,3.77791 -2.85316,5.87564c-1.70101,6.12002 -3.20785,13.06119 -5.69233,18.89618c-0.71706,1.68408 -1.98135,3.11945 -2.57,4.85259c0,2.07858 1.12724,4.45142 0.29002,6.21298l0.56918,-1.08383c0,0 1.96864,-0.65621 3.12851,0.80877c0.21227,0.02307 0.34311,0.05578 0.34311,0.05578l3.35833,0.86193c3.86865,0.01591 6.47025,1.45819 10.19385,1.85347c2.66664,0.28308 5.42659,0.22067 7.97557,1.05361c2.81848,0.921 7.40807,3.58062 10.31595,3.56039c2.30409,-0.01603 5.70224,-1.70973 7.88364,-2.48783c0.50913,-0.18161 1.22268,-0.15387 1.49913,-0.61838c0.324,-0.54442 0.32399,-1.35619 -0.00001,-1.90061c-0.70998,-1.19299 -2.60133,-0.97354 -3.92272,-1.39926c-3.69661,-1.29479 -9.31347,0.51783 -12.49792,-1.12075c-6.00201,-3.08838 -2.34693,-7.49355 -1.44409,-11.59184c0.39628,-1.79886 0.53973,-3.64584 0.90197,-5.45186c1.47015,-7.32969 0.96297,-14.81531 -0.02328,-22.11427c-0.26161,-1.93608 -1.56463,-3.62802 -1.85346,-5.56023c-0.67919,-4.54366 0.62787,-5.31299 -2.89599,-8.60998c0,0 -1.22673,-1.22675 -0.83174,-2.73074c-0.01646,-0.15152 -0.01646,-0.24374 -0.01646,-0.24374l0.09694,-0.00708c0.00916,-0.0241 0.01876,-0.04825 0.02882,-0.07246c-1.13784,-3.41932 -2.35442,-7.51046 -4.3268,-10.4452c-0.73105,-1.08774 -2.06815,-1.67984 -2.78017,-2.78013c-2.63172,-4.06683 -2.62701,-9.63085 -3.19098,-14.14266c-1.13832,-9.10668 -1.55562,-17.37567 2.70361,-25.42817c-1.08958,-0.375 -1.51908,-1.29649 -1.68838,-1.9647zM207.62308,210.15718c4.69866,-5.93891 12.30335,-5.77171 18.98224,-5.77171c0.5889,0 7.54391,-0.01108 7.8776,0.03739c3.14127,0.45629 5.95654,2.42471 9.15708,2.76443c6.56753,0.69712 12.17706,0.39093 17.93341,4.17154l0.86707,2.2432c0.55283,-0.06297 1.19752,0.05993 1.91302,0.53693c2.40961,1.60638 0.80322,4.01599 0.80322,4.01599c-5.10878,7.52123 -4.30971,15.44745 -3.24219,23.98772c0.44477,3.55817 0.16195,8.61088 2.36935,11.80531c0.74505,1.0782 2.05693,1.68718 2.78017,2.78013c2.22546,3.36311 3.63185,7.87069 4.91745,11.72722l0.12136,1.50452c0.90019,0.80666 1.85318,1.57445 2.43147,2.61805c1.36871,2.47 0.88741,5.57812 1.26519,8.37661c0.26137,1.93613 1.56445,3.6281 1.85347,5.56029c0.95961,6.41534 1.7528,13.70969 0.94239,20.27869c-0.4,3.24233 -1.20297,6.42349 -1.9171,9.61139c-0.23004,1.02692 -0.59866,2.02097 -0.98999,2.99787c-0.26524,0.66214 -1.16616,2.04904 -0.45411,2.09114c4.30138,0.25428 7.35687,-0.62887 11.59651,0.73264c5.47126,1.87083 10.06846,4.13726 7.19779,11.52758c-1.12117,2.88637 -7.39553,4.40521 -10.08396,5.12078c-1.52786,0.40666 -3.04666,1.04651 -4.6277,1.04013c-4.81904,-0.01944 -9.50647,-4.11472 -14.25343,-4.66882c-1.49769,-0.17482 -3.02567,0.18897 -4.52354,0.01569c-3.93916,-0.4557 -6.19818,-1.8709 -10.19379,-1.85346l-4.05539,-0.99146c0,0 -0.79231,-0.19807 -1.43024,-0.8046l-3.79609,0.58532c-2.59129,-4.85225 -3.41691,-6.84615 -3.41692,-12.32126c0.72522,-2.19837 2.0727,-4.14266 2.99033,-6.26793c2.4157,-5.59487 3.71204,-12.30409 5.42819,-18.17238c0.32056,-1.09614 0.58188,-2.22799 1.10569,-3.24282c0.39197,-0.7594 1.45845,-1.15952 1.60148,-2.00205c0.3261,-1.92096 -2.31719,-5.7536 -3.26299,-7.16645c-2.47973,-3.70424 -4.12459,-4.11668 -7.62413,-6.67074c-0.88648,-0.64698 -1.18753,-2.01876 -2.19503,-2.45393c-0.93882,-0.40551 -2.04855,0.31619 -3.0625,0.18305c-0.82,-0.10767 -1.48951,-0.86734 -2.31626,-0.88934c-1.33467,-0.03551 -2.50657,0.93744 -3.80243,1.25891c-0.89211,1.54799 -2.0622,2.93412 -2.8632,4.53116c-1.73075,3.4508 -1.96821,7.66088 -3.70687,11.12057c-0.43229,0.86019 -1.40743,1.42459 -1.68317,2.34696c-1.35039,4.5171 1.33076,10.98343 1.94026,15.37773c1.04508,7.53475 -0.52463,14.65644 -2.87558,21.72014c0.0844,0.28399 0.13288,0.61019 0.13288,0.98485c0,2.89598 -2.89598,2.89598 -2.89598,2.89598l0.36844,-0.30575c-7.19908,3.56478 -15.04671,4.76908 -22.79294,6.69576c-2.50928,0.62412 -5.12846,1.30699 -7.69422,0.98632c-0.96928,-0.12114 -1.81309,-0.78856 -2.78009,-0.9267c-4.66453,-0.66635 -13.77386,-1.12526 -12.60029,-8.80331c0.27978,-1.83046 1.62384,-3.42133 2.96592,-4.69715c1.66607,-1.58381 4.22763,-1.86132 6.14649,-3.12711c0.14103,-0.03466 5.26664,-1.04105 5.82107,-1.92194c0.24015,-0.38156 -0.72134,-0.59124 -0.90981,-1.0008c-0.47302,-1.02794 -0.88995,-2.11024 -1.03799,-3.23207c-0.20207,-1.53125 0.19157,-3.10098 0,-4.63358c-0.46373,-3.70988 -1.42184,-7.08478 -0.9424,-11.01154c0.87857,-7.19571 2.57373,-13.01444 5.83305,-19.45278c1.07705,-2.12756 0.59628,-3.65434 1.99148,-5.81041c1.08045,-1.66968 2.82159,-3.00442 3.40712,-4.90109l-0.13275,-0.06338c0,0 0,-2.1156 1.80823,-2.73035c4.04361,-6.60367 6.77102,-14.18983 9.48898,-21.43353c1.16306,-3.0997 3.21237,-6.21683 3.55187,-9.55161c0.53818,-5.28631 -1.13017,-9.03222 -1.83777,-14.00964c-0.25925,-1.82365 -0.30792,-3.86445 -1.40443,-5.34452c0,0 -1.60638,-2.40961 0.80322,-4.01599c0.62732,-0.41821 1.20019,-0.56422 1.70446,-0.55142c0.53372,-1.56526 1.11189,-3.18333 1.30733,-3.43036z" fill="#3e1e00"></path>
      </g>
      <g stroke="none" stroke-width="0.5">
        <path d="M194.17036,211.20591c0.39943,-0.10114 0.66156,-0.23706 0.66156,-0.23706l-0.55271,-0.15106c0.00084,-0.01117 -0.06561,-0.11663 -0.06478,-0.12779c2.92281,0.95535 4.4627,2.15327 7.02004,4.01461c1.32696,0.96581 3.18106,1.52966 4.12842,2.86984c1.16086,1.64218 0.40923,5.62826 0.49002,7.44821c0.02987,0.67275 0.38268,1.36959 0.17891,2.01142c-0.36595,1.15266 -1.29777,1.9968 -2.15416,2.89302l-1.4176,-1.07703c0,0 -1.70451,0.88128 -1.61489,2.60101c-1.4933,1.9453 -3.05627,4.03137 -3.91589,6.0372c-0.69356,1.61837 -1.52747,3.32064 -1.41893,5.07802c0.0978,1.58335 1.41652,2.83695 2.00578,4.3098c0.49508,1.23741 0.43866,2.73099 1.24478,3.79235c2.99673,3.94565 3.94946,2.36545 8.02232,3.13982c5.74194,1.09171 10.78611,1.31657 16.6738,1.23223c0,0 2.52307,0.02445 2.7596,-2.44446l0.90676,-0.17043c2.46198,-3.4551 6.06932,-6.19391 9.30886,-8.9366c0.61225,-0.51835 1.1147,-1.41817 1.86765,-1.69495c0.74421,-0.27356 1.59511,0.21734 2.37939,0.10078c3.04835,-0.45304 8.49788,-1.93783 11.58794,-0.86552c0.78133,0.27114 1.19669,1.1896 1.93997,1.55226c1.41911,0.69239 4.69921,1.07444 5.97215,2.51919c1.45323,1.64936 4.26316,6.97135 4.71569,9.11457c0.45282,2.14463 -0.56752,4.41554 -0.22832,6.58105c0.14898,0.95113 0.93261,1.78773 0.89332,2.74966c-0.04682,1.14639 -0.76059,2.16993 -1.14021,3.25266c-1.8872,3.06157 -2.55282,6.68623 -4.79033,9.47881c-1.56507,1.95332 -3.1801,3.96382 -5.22499,5.40717c-1.42762,1.00766 -3.24098,1.39649 -4.66,2.41624c-0.99995,0.7186 -1.4043,2.16228 -2.49768,2.72868c-1.09339,0.56642 -2.49562,0.09353 -3.66895,0.4672c-1.18484,0.37735 -2.10989,1.38903 -3.29864,1.75388c-2.67264,0.8203 -6.32879,-0.50623 -8.70632,-1.26593c-3.05514,-0.97622 -7.15798,-2.00714 -9.0491,-5.02329c-1.23442,-1.96878 -1.68492,-5.67224 -2.28856,-8.19672c0.29364,-0.41898 0.48986,-0.98632 0.47886,-1.75471c-0.04149,-2.89568 -2.9476,-2.85709 -2.9476,-2.85709l-2.47207,0.06992c-2.6034,-0.8455 -5.38928,-1.06071 -8.06856,-1.62104c-3.59781,-0.75243 -7.25709,-2.33681 -10.78568,-3.41247c-4.02513,-3.02403 -9.87352,-7.80873 -11.31739,-12.90932c-0.68555,-2.42179 0.17246,-6.50297 0.24261,-8.91142c0.05947,-2.04139 -0.22921,-4.26187 0.15054,-6.28894c0.4618,-2.46505 1.84468,-4.71254 2.26638,-7.18476c0.15116,-0.8861 -0.35589,-1.84058 -0.08506,-2.69771c0.2612,-0.82661 4.38662,-7.91935 4.69933,-8.67788c0.92727,-2.24934 1.54034,-4.67536 1.77374,-7.11345z" fill="#e36f00"></path>
        <path d="M222.02178,254.95731c0.10618,0.08948 0.22059,0.17707 0.34097,0.26345c1.41861,-3.66306 3.32394,-7.03635 5.68867,-9.44142c4.75993,-4.84114 11.91023,-6.58072 18.49781,-6.40476c0.21381,0.0057 8.03139,0.49816 8.08983,0.52539c0.10829,0.05045 0.21535,0.10297 0.32126,0.15741l0.02255,-0.07103l3.53307,1.1217c1.52443,0.48399 2.36786,2.11212 1.88388,3.63654c-0.3942,1.24166 -1.54747,2.03153 -2.7855,2.02031l-2.34388,0.03358c-5.89736,3.25394 -9.58907,6.47475 -13.99313,11.51139c-0.80855,0.92469 -2.00529,1.52872 -2.61795,2.59336c-0.71864,1.24879 -0.67316,2.81806 -1.25469,4.13628c-1.60492,3.63797 -5.03615,8.50755 -5.10681,12.68368c-0.01629,0.96259 0.74512,1.79516 0.89411,2.74628c0.28224,1.80185 -0.06546,5.6527 -0.17065,7.34994c0,0 -0.18074,2.89034 -3.07106,2.70961c-0.72787,-0.0455 -1.26098,-0.26285 -1.65126,-0.56261c-0.47482,-0.02167 -0.81088,-0.12836 -0.81088,-0.12836l-1.71115,-0.69921c-0.88834,-0.65716 -1.77671,-1.31431 -2.66506,-1.97146c-3.36608,-4.26409 -3.92628,-8.09903 -3.90073,-12.6311c-2.62724,-0.32835 -2.45725,-3.04754 -2.45725,-3.04754c0.50591,-3.79612 -0.94347,-4.05953 -3.30938,-7.03787c-2.43924,-3.07063 -5.80019,-5.58735 -9.24271,-7.83314c-1.73047,-0.31636 -3.29962,-0.84787 -4.20033,-1.83958c-0.15063,-0.16585 -0.29321,-0.33726 -0.42874,-0.51353l-0.10242,0.1054l-2.92724,-2.84451c-0.79312,-0.739 -1.13681,-1.89507 -0.78699,-2.99695c0.48399,-1.52443 2.11211,-2.36786 3.63654,-1.88388c0.32782,0.10408 0.62414,0.26105 0.88253,0.45853l2.2473,1.63566c1.00146,0.61735 2.01803,1.24571 3.03544,1.89114c0.90524,0.3428 1.93418,0.80058 3.41962,1.04155c4.50177,0.7303 9.34799,0.17088 13.04423,3.28572zM245.2818,245.35064c0.06174,0.35484 0.0578,0.72544 -0.02082,1.09437c0.5571,-0.42501 1.12575,-0.83843 1.70886,-1.2423c-0.18754,-0.0188 -0.37426,-0.03195 -0.55992,-0.03787c-0.3248,-0.01037 -0.65248,-0.01541 -0.98216,-0.01477l-0.14599,0.20058zM227.85087,264.77548c-0.20832,0.10552 -0.42936,0.18601 -0.65825,0.23898c0.129,0.1099 0.2574,0.22066 0.38456,0.33265c0.0889,-0.19027 0.18025,-0.38084 0.27369,-0.57164z" fill="#9f4d00"></path>
        <path d="M194.86522,211.0162c0,0 -0.26151,0.13547 -0.66093,0.23662c-0.23341,2.4381 -0.84111,4.85971 -1.76839,7.10907c-0.31269,0.75853 -4.43013,7.84213 -4.69132,8.66874c-0.27083,0.85713 0.23782,1.80921 0.08667,2.69532c-0.4217,2.47223 -1.79993,4.71076 -2.26175,7.17581c-0.37976,2.02707 -0.08842,4.23946 -0.14788,6.28085c-0.07016,2.40845 -0.92646,6.4768 -0.24092,8.89858c1.44386,5.10058 7.28745,9.861 11.31257,12.88504c3.52861,1.07565 7.17756,2.64416 10.77538,3.39658c2.67928,0.56032 5.44922,0.76325 8.05262,1.60875l2.46585,-0.07273c0,0 2.89567,-0.04149 2.93717,2.85419c0.01101,0.76838 -0.18481,1.3358 -0.47845,1.75478c0.60364,2.52449 1.04694,6.22706 2.28136,8.19585c1.89113,3.01616 5.97871,4.04819 9.03386,5.02441c2.37753,0.7597 6.0221,2.08996 8.69474,1.26966c1.18875,-0.36486 2.1089,-1.3741 3.29375,-1.75143c1.17333,-0.37367 2.57145,0.10176 3.66484,-0.46466c1.09337,-0.56643 1.49357,-2.007 2.49352,-2.72561c1.41902,-1.01974 3.22712,-1.40372 4.65474,-2.41138c2.0449,-1.44335 3.65348,-3.44582 5.21854,-5.39912c2.23751,-2.79258 2.8967,-6.40426 4.7839,-9.46583c0.37962,-1.08273 1.09204,-2.10179 1.13885,-3.24818c0.03927,-0.96193 -0.74511,-1.79518 -0.89409,-2.74631c-0.33919,-2.16552 0.6801,-4.42719 0.22727,-6.57183c-0.45252,-2.14322 -3.26119,-7.45106 -4.71441,-9.10041c-1.27294,-1.44475 -4.55121,-1.82023 -5.97032,-2.51262c-0.74329,-0.36264 -1.15722,-1.27738 -1.93855,-1.54851c-3.09006,-1.07232 -8.5344,0.42212 -11.58274,0.87517c-0.78428,0.11656 -1.63249,-0.37065 -2.3767,-0.09709c-0.75295,0.27678 -1.16405,1.1054 -1.77629,1.62374c-3.23954,2.7427 -6.83548,5.50831 -9.29745,8.96341l-0.9066,0.17146c-0.23654,2.46891 -2.83747,2.50617 -2.83747,2.50617c-5.88768,0.08434 -10.96925,-0.19152 -16.71121,-1.28325c-4.07286,-0.77438 -5.02547,0.79772 -8.02219,-3.14793c-0.80612,-1.06136 -0.74852,-2.56261 -1.24359,-3.80004c-0.58927,-1.47285 -1.90599,-2.73332 -2.00379,-4.31667c-0.10856,-1.75737 0.72939,-3.46852 1.42295,-5.08689c0.85961,-2.00583 2.43031,-4.10258 3.92361,-6.04788c-0.08961,-1.71974 1.61871,-2.60481 1.61871,-2.60481l1.41805,1.07662c0.85639,-0.89622 1.79328,-1.7444 2.15924,-2.89705c0.20378,-0.64183 -0.14758,-1.33968 -0.17744,-2.01242c-0.08079,-1.81994 0.67543,-5.80877 -0.48542,-7.45096c-0.94737,-1.3402 -2.74414,-1.80342 -4.0711,-2.76923c-2.55733,-1.86134 -4.09354,-3.06167 -7.01636,-4.01702c-0.00083,0.01118 -0.00167,0.02234 -0.0025,0.0335l0.61969,0.24558zM207.65097,234.30602c0,0 -0.97748,1.34299 -2.46896,1.25447c-0.52651,0.81902 -1.04888,1.64094 -1.58942,2.45032c-0.37492,0.56139 -2.54503,2.99298 -2.36587,4.04265c0.17473,1.02377 1.2111,1.70796 1.61323,2.66552c0.34726,0.82691 0.21679,1.81369 0.60694,2.62124c0.60224,1.2465 4.30789,0.77162 4.34354,0.77802c4.69632,0.84298 8.83259,1.17764 13.49024,1.1964c0.5264,-1.35736 1.54915,-1.71815 2.36247,-1.76816c2.64985,-3.20548 5.95446,-6.10445 9.21394,-8.61333c1.13161,-0.87102 2.11123,-2.02949 3.43934,-2.55422c1.08146,-0.42728 2.33637,0.0079 3.48372,-0.18105c4.00228,-0.65909 10.06598,-1.90232 14.18638,-0.66647c1.08053,0.32409 1.78206,1.41476 2.80019,1.90053c2.54865,1.21603 5.66106,1.68868 7.60109,3.74067c1.86012,1.96746 5.56143,9.20104 6.13676,11.84603c0.23922,1.09978 -0.42747,5.26223 -0.16557,6.91555c0.19804,1.25022 1.05306,2.41291 0.95642,3.67503c-0.14828,1.93683 -1.11026,3.72298 -1.66538,5.58448c-2.15715,3.49951 -2.93746,7.32847 -5.47935,10.61086c-0.18799,0.24275 -6.15745,6.36214 -6.33439,6.48972c-1.41749,1.02188 -3.22945,1.40044 -4.65474,2.41138c-1.25002,0.88665 -1.92214,2.51383 -3.28293,3.21878c-1.3608,0.70495 -3.06666,0.3478 -4.52302,0.825c-1.30929,0.42902 -2.35952,1.50167 -3.68838,1.8656c-3.87325,1.06082 -8.26349,-0.2313 -11.85876,-1.3666c-4.65003,-1.46835 -9.4176,-3.18651 -12.24856,-7.5662c-1.58023,-2.44472 -2.18269,-7.0216 -2.98064,-9.98118l-0.10368,0.00034c-2.72842,-0.84826 -5.6121,-1.07886 -8.40702,-1.67238c-4.05838,-0.86184 -8.24073,-2.60168 -12.1895,-3.89444c-5.51626,-3.92273 -12.32754,-9.81763 -14.31565,-16.64204c-0.86567,-2.9715 -0.02008,-7.42577 0.06799,-10.44926c0.08391,-2.88081 -0.32156,-4.11706 0.24497,-7.20658c0.43912,-2.39463 1.83274,-4.55375 2.22505,-6.95649c0.16999,-1.04124 -0.31771,-2.15984 0.00262,-3.16506c1.92094,-6.02796 6.61268,-10.03095 6.41637,-16.68566c0,0 -0.04149,-2.89567 2.85419,-2.93717c0.16163,-0.00232 0.31437,0.00452 0.45871,0.01949c0.21343,-0.15853 0.36775,-0.23846 0.36775,-0.23846l3.37209,-0.79162c4.48912,1.46966 7.73761,3.8643 11.46906,6.71402c1.02615,0.78368 2.33315,1.32188 3.03702,2.40434c1.86236,2.86406 2.49778,11.20626 1.43958,14.5393c-0.17827,0.56148 -3.29841,4.78431 -3.86779,5.5666z" fill="#000000"></path>
      </g>
      <g stroke="none" stroke-width="0.5">
        <path d="M270.83052,215.24171c0,0 0.24967,0.15766 0.63907,0.29231c0.02584,2.44909 0.43094,4.91835 1.16414,7.23824c0.24724,0.78232 3.75636,8.19932 3.94651,9.04511c0.19718,0.87702 -0.38898,1.78505 -0.31352,2.68078c0.21053,2.49909 1.39784,4.85576 1.64895,7.35109c0.2065,2.05197 -0.26944,4.23996 -0.3833,6.27904c-0.13434,2.40575 0.3745,6.54498 -0.51395,8.8999c-1.8712,4.95976 -8.10426,9.23129 -12.37134,11.90311c-3.6071,0.77255 -7.38752,2.04092 -11.0362,2.48553c-2.71715,0.3311 -5.51125,0.30929 -8.17696,0.93099l-2.45725,-0.2793c0,0 -2.89237,-0.28489 -3.17925,2.59684c-0.07613,0.76469 0.07129,1.34662 0.32834,1.78899c-0.81555,2.46421 -1.57849,6.11612 -2.97541,7.97313c-2.14007,2.84493 -6.31553,3.5242 -9.44246,4.23783c-2.43339,0.55534 -6.18885,1.56706 -8.78232,0.52307c-1.15353,-0.46434 -1.98945,-1.55083 -3.13803,-2.02729c-1.13741,-0.47183 -2.57471,-0.11957 -3.61612,-0.77665c-1.04141,-0.65709 -1.32188,-2.12984 -2.25729,-2.93066c-1.32742,-1.13642 -3.1013,-1.67761 -4.43833,-2.8027c-1.91512,-1.61156 -3.35385,-3.75177 -4.74763,-5.83077c-1.99265,-2.97226 -2.34848,-6.64031 -3.96928,-9.8509c-0.28642,-1.11101 -0.91085,-2.1914 -0.86028,-3.33763c0.04243,-0.96178 0.89417,-1.72892 1.12327,-2.664c0.5216,-2.12895 -0.30248,-4.47821 0.33057,-6.57672c0.63265,-2.09714 3.88375,-7.16167 5.47161,-8.68186c1.39087,-1.33159 4.69155,-1.43414 6.16426,-2.00368c0.77135,-0.29831 1.26311,-1.17825 2.06461,-1.38215c3.16985,-0.80642 8.47386,1.13515 11.47281,1.84505c0.77157,0.18264 1.66104,-0.23435 2.37936,0.10134c0.72675,0.33964 1.15111,1.27884 1.71719,1.84723c2.99529,3.00755 6.35739,6.04238 8.5175,9.69381l0.88903,0.24671c0.02631,2.48008 2.54237,2.66968 2.54237,2.66968c5.85932,0.5833 10.90437,0.78702 16.71823,0.18615c4.12385,-0.4262 4.93915,1.22909 8.25968,-2.44822c0.89321,-0.98918 0.96365,-2.48216 1.56187,-3.67314c0.71204,-1.41758 2.13232,-2.55483 2.36404,-4.12418c0.25718,-1.74184 -0.42936,-3.5087 -0.98319,-5.18003c-0.68644,-2.07151 -2.06688,-4.28261 -3.38984,-6.34753c0.23513,-1.70596 -1.3885,-2.72858 -1.3885,-2.72858l-1.50382,0.95293c-0.7773,-0.96561 -1.63418,-1.88575 -1.90107,-3.06528c-0.14861,-0.65681 0.26201,-1.32122 0.34882,-1.98902c0.23484,-1.80653 -0.17605,-5.84197 1.11988,-7.37982c1.05761,-1.25502 2.95284,-1.65961 4.35691,-2.50941c2.70597,-1.63777 4.34189,-2.70079 7.3352,-3.40484c-0.00013,0.0112 -0.07528,0.11065 -0.07539,0.12184l-0.56353,0.10365z" fill="#e36f00"></path>
        <path d="M239.64627,256.9996c0.12727,-0.07585 0.24871,-0.15344 0.36209,-0.2336c3.94706,-2.79018 8.72837,-1.82181 13.27586,-2.16774c1.50051,-0.11414 2.56458,-0.48301 3.49562,-0.74782c1.06848,-0.55682 2.13466,-1.09671 3.18488,-1.62691l2.3779,-1.43921c0.27423,-0.17486 0.58279,-0.30614 0.91823,-0.38204c1.55998,-0.35297 3.11071,0.62551 3.46368,2.18547c0.25513,1.12757 -0.18537,2.25033 -1.03829,2.91941l-3.1579,2.58604l-0.09311,-0.1137c-0.15,0.16415 -0.3066,0.32285 -0.47075,0.47533c-0.98156,0.91176 -2.59012,1.30829 -4.34121,1.47676c-3.62055,1.94576 -7.18282,4.16841 -9.87366,7.02113c-2.60996,2.76698 -4.07643,2.90653 -3.89427,6.73188c0,0 -0.06121,2.72382 -2.70683,2.82819c-0.35884,4.51792 -1.24223,8.29152 -4.95779,12.25481c-0.94087,0.57946 -1.88176,1.15891 -2.82264,1.73837l-1.76429,0.55157c0,0 -0.34388,0.0778 -0.81883,0.05913c-0.41429,0.26558 -0.96392,0.43692 -1.69303,0.42056c-2.89525,-0.06502 -2.83021,-2.96027 -2.83021,-2.96027c0.03911,-1.70004 0.01922,-5.5665 0.45324,-7.33793c0.22909,-0.93506 1.05836,-1.70007 1.12376,-2.66058c0.28371,-4.16709 -2.7222,-9.31009 -4.01284,-13.07106c-0.46765,-1.36278 -0.28928,-2.92255 -0.89942,-4.22778c-0.52018,-1.11275 -1.66138,-1.81609 -2.3886,-2.80601c-3.96108,-5.39196 -7.36636,-8.91424 -12.96655,-12.65654l-2.3326,-0.23222c-1.23452,-0.09381 -2.31665,-0.97862 -2.60415,-2.24923c-0.35297,-1.55998 0.62551,-3.11071 2.18547,-3.46369l3.61547,-0.81805l0.01645,0.07268c0.11015,-0.04526 0.22127,-0.08852 0.33346,-0.1296c0.06053,-0.02217 7.8917,0.15008 8.10524,0.16252c6.57876,0.38331 13.5558,2.72295 17.88805,7.95031c2.15226,2.59694 3.76467,6.11965 4.86754,9.88981zM217.57472,246.31371c-0.04706,-0.37428 -0.01955,-0.74388 0.07206,-1.09221l-0.12845,-0.21221c-0.32844,-0.02859 -0.65536,-0.05135 -0.97987,-0.06857c-0.1855,-0.00985 -0.37266,-0.01258 -0.56111,-0.00975c0.54677,0.45187 1.0783,0.91203 1.59736,1.38275zM233.36768,266.05452c0.07692,0.19802 0.15179,0.39566 0.22423,0.59278c0.1362,-0.10081 0.27354,-0.20028 0.4114,-0.29885c-0.22357,-0.07218 -0.437,-0.17113 -0.63561,-0.29394z" fill="#9f4d00"></path>
        <path d="M271.43177,215.5779c-0.38941,-0.13464 -0.63849,-0.2918 -0.63849,-0.2918l0.63827,-0.19215c0.00011,-0.01119 0.00024,-0.0224 0.00036,-0.0336c-2.9933,0.70405 -4.62577,1.76979 -7.33173,3.40757c-1.40408,0.8498 -3.23367,1.159 -4.29127,2.41402c-1.29592,1.53784 -0.88067,5.57642 -1.1155,7.38296c-0.08681,0.66779 -0.49608,1.33331 -0.34747,1.99012c0.26689,1.17953 1.12848,2.10411 1.90578,3.06973l1.50424,-0.9525c0,0 1.62711,1.02676 1.39198,2.7327c1.32296,2.06491 2.7102,4.28733 3.39662,6.35883c0.55383,1.67134 1.24365,3.44739 0.98647,5.18922c-0.23171,1.56935 -1.65058,2.71362 -2.36262,4.1312c-0.59822,1.19098 -0.66816,2.69171 -1.56136,3.6809c-3.32053,3.67731 -4.13639,2.03009 -8.26025,2.45631c-5.81385,0.60088 -10.90051,0.44483 -16.75983,-0.13847c0,0 -2.58841,-0.25768 -2.61472,-2.73776l-0.8888,-0.24772c-2.16011,-3.65143 -5.50856,-6.71202 -8.50386,-9.71955c-0.56607,-0.5684 -0.90544,-1.42889 -1.63221,-1.76852c-0.71833,-0.33568 -1.60481,0.07784 -2.37638,-0.1048c-2.99895,-0.7099 -8.29695,-2.66064 -11.4668,-1.85423c-0.80151,0.2039 -1.29153,1.08022 -2.06289,1.37854c-1.47271,0.56956 -4.77101,0.66569 -6.16187,1.99729c-1.58786,1.52018 -4.83651,6.57071 -5.46915,8.66785c-0.63305,2.0985 0.19078,4.43847 -0.33084,6.56742c-0.22909,0.93507 -1.08131,1.6988 -1.12375,2.6606c-0.05057,1.14623 0.57288,2.22204 0.8593,3.33305c1.62079,3.21058 1.97132,6.86514 3.96397,9.8374c1.39378,2.07899 2.82677,4.21064 4.7419,5.8222c1.33702,1.12509 3.10607,1.66102 4.43349,2.79743c0.93541,0.8008 1.212,2.27014 2.25341,2.92723c1.04142,0.65709 2.47481,0.30194 3.61223,0.77376c1.14858,0.47644 1.97983,1.56009 3.13336,2.02443c2.59345,1.044 6.33771,0.02759 8.77109,-0.52776c3.12692,-0.71362 7.28731,-1.39531 9.42738,-4.24024c1.39692,-1.85701 2.15259,-5.50866 2.96814,-7.97287c-0.25705,-0.44239 -0.40403,-1.02434 -0.3279,-1.78903c0.28689,-2.88173 3.16862,-2.59484 3.16862,-2.59484l2.45079,0.28157c2.66571,-0.6217 5.44288,-0.58901 8.16003,-0.9201c3.64868,-0.44462 7.4175,-1.69804 11.02461,-2.4706c4.26707,-2.67181 10.49327,-6.91954 12.36447,-11.87931c0.88845,-2.35491 0.38023,-6.48123 0.51457,-8.88696c0.11386,-2.03909 0.59177,-4.2188 0.38527,-6.27078c-0.25112,-2.49534 -1.43455,-4.84267 -1.64509,-7.34175c-0.07546,-0.89573 0.51209,-1.80125 0.31492,-2.67828c-0.19016,-0.84578 -3.69206,-8.25302 -3.93932,-9.03533c-0.73319,-2.31989 -1.13335,-4.78433 -1.15916,-7.23341zM256.07862,237.40778c-0.50099,-0.82775 -3.25182,-5.29996 -3.38183,-5.87454c-0.77174,-3.41078 0.56881,-11.66904 2.66732,-14.36486c0.79313,-1.01886 2.14106,-1.4443 3.22998,-2.13814c3.95967,-2.52303 7.39953,-4.63358 11.9971,-5.71727l3.29282,1.07472c0,0 0.14699,0.09274 0.34621,0.26878c0.14509,-0.00267 0.29786,0.00346 0.4587,0.01948c2.88172,0.2869 2.59482,3.16863 2.59482,3.16863c-0.75991,6.61409 3.57547,11.00052 4.97832,17.16966c0.23394,1.02876 -0.34689,2.10197 -0.26579,3.15387c0.18713,2.42736 1.39267,4.69688 1.62713,7.12012c0.3025,3.12643 -0.20634,4.32383 -0.36703,7.2014c-0.16864,3.02006 0.29619,7.52999 -0.81835,10.41739c-2.55965,6.63124 -9.8463,11.92731 -15.67532,15.36814c-4.04417,0.95325 -8.35901,2.33216 -12.47584,2.84674c-2.83518,0.35438 -5.72803,0.3396 -8.51856,0.95344l-0.10329,-0.00913c-1.04607,2.88126 -2.03445,7.39056 -3.8163,9.69246c-3.19217,4.12385 -8.08826,5.43153 -12.84606,6.50028c-3.67862,0.82633 -8.1626,1.74151 -11.93195,0.35607c-1.29319,-0.47533 -2.2487,-1.63318 -3.51688,-2.17167c-1.41065,-0.59899 -3.14066,-0.38779 -4.43677,-1.20558c-1.2961,-0.8178 -1.82781,-2.49612 -2.99815,-3.48558c-1.33444,-1.12818 -3.10778,-1.65903 -4.4335,-2.79743c-0.16549,-0.14211 -5.59452,-6.74568 -5.76125,-7.0035c-2.25439,-3.48612 -2.70718,-7.36745 -4.55982,-11.03728c-0.39527,-1.90185 -1.20231,-3.76316 -1.18582,-5.70559c0.01075,-1.26577 0.96129,-2.35175 1.26464,-3.58068c0.40115,-1.62515 0.08984,-5.82916 0.42146,-6.90468c0.79756,-2.58668 5.09894,-9.48034 7.11919,-11.28297c2.10704,-1.88009 5.24831,-2.08711 7.8909,-3.08263c1.05566,-0.39768 1.84714,-1.42494 2.95126,-1.65623c4.21036,-0.88199 10.1468,0.87098 14.07877,1.86708c1.12719,0.28555 2.41449,-0.04162 3.45582,0.47581c1.27883,0.63547 2.15668,1.87281 3.21035,2.83667c3.03499,2.77625 6.08185,5.94501 8.45034,9.36364c0.80614,0.11881 1.7946,0.565 2.20402,1.96211c4.64246,0.37627 8.79222,0.39356 13.5431,-0.04813c0.03607,-0.00335 3.68811,0.78406 4.39387,-0.40688c0.45724,-0.77156 0.41091,-1.76584 0.82704,-2.56032c0.48188,-0.92 1.57253,-1.51386 1.83345,-2.51911c0.26753,-1.03071 -1.68856,-3.63757 -2.01454,-4.22872c-0.46997,-0.85229 -0.92073,-1.71556 -1.37591,-2.57627c-1.49362,-0.03827 -2.35369,-1.45932 -2.35369,-1.45932z" fill="#000000"></path>
      </g>
    </g>
  </g>
</svg>
