<?xml version="1.0" encoding="UTF-8"?>
<svg xmlns="http://www.w3.org/2000/svg" xmlns:xlink="http://www.w3.org/1999/xlink" version="1.1" width="486" height="365.46547" viewBox="0,0,486,365.46547">
  <g transform="translate(4.02302,2.23271)">
    <g stroke="none" stroke-miterlimit="10">
      <path d="M-4.02302,363.23276v-365.46547h486v365.46547z" fill="#323339" fill-rule="nonzero" stroke-width="1"></path>
      <path d="M58.4335,100.18545c-16.49792,0 -29.87212,-13.37421 -29.87212,-29.87212v0c0,-16.49792 13.3742,-29.87212 29.87212,-29.87212v0c16.49792,0 29.87212,13.3742 29.87212,29.87212v0c0,16.49792 -13.3742,29.87212 -29.87212,29.87212z" fill="#dc6d00" fill-rule="nonzero" stroke-width="1"></path>
      <path d="M44.43094,86.18289c-3.09336,0 -5.60102,-2.50766 -5.60102,-5.60102v-12.13555c0,-3.09336 2.50766,-5.60103 5.60102,-5.60103h27.53836c3.09336,0 5.60102,2.50767 5.60102,5.60103v12.13555c0,3.09336 -2.50766,5.60102 -5.60102,5.60102z" fill="#ffffff" fill-rule="nonzero" stroke-width="1"></path>
      <path d="M61.70076,74.28069c0,-2.44891 1.98524,-4.43415 4.43415,-4.43415c2.44891,0 4.43414,1.98524 4.43414,4.43415c0,2.44891 -1.98523,4.43414 -4.43414,4.43414c-2.44891,0 -4.43415,-1.98523 -4.43415,-4.43414z" fill="#dc6d00" fill-rule="nonzero" stroke-width="1"></path>
      <path d="M45.8312,74.28069c0,-2.44891 1.98524,-4.43415 4.43415,-4.43415c2.44891,0 4.43414,1.98524 4.43414,4.43415c0,2.44891 -1.98523,4.43414 -4.43414,4.43414c-2.44891,0 -4.43415,-1.98523 -4.43415,-4.43414z" fill="#dc6d00" fill-rule="nonzero" stroke-width="1"></path>
      <path d="M77.57033,91.5636c0,0.87049 -1.08566,1.26723 -1.64717,0.60211l-9.65943,-11.44849c-0.51202,-0.60725 -0.08075,-1.53561 0.71319,-1.53561h9.6599c0.51576,0 0.9335,0.41774 0.9335,0.9335z" fill="#ffffff" fill-rule="nonzero" stroke-width="1"></path>
      <path d="M66.83503,81.51537l10.26854,12.13555h-10.26854z" fill="#dc6d00" fill-rule="nonzero" stroke-width="1"></path>
      <path d="M55.63299,62.84529v-13.06905h5.60103v13.06905z" fill="#ffffff" fill-rule="nonzero" stroke-width="1"></path>
      <path d="M52.83248,51.64325c0,-3.09336 2.50767,-5.60102 5.60103,-5.60102c3.09336,0 5.60102,2.50767 5.60102,5.60103c0,3.09336 -2.50766,5.60103 -5.60102,5.60103c-3.09336,0 -5.60102,-2.50767 -5.60102,-5.60102z" fill="#ffffff" fill-rule="nonzero" stroke-width="1"></path>
      <path d="M106.59297,69.37981v-18.56646h-5.82179v-4.40544h16.36386v4.40544h-5.8218v18.56646zM127.82177,69.69441c-1.53141,0 -2.86352,-0.28332 -3.99633,-0.84949c-1.13281,-0.58764 -2.01404,-1.39512 -2.64369,-2.42291c-0.60818,-1.04926 -0.9125,-2.26608 -0.9125,-3.65046v-9.75511c0,-1.38486 0.30432,-2.59094 0.9125,-3.61919c0.62965,-1.04879 1.51088,-1.85627 2.64369,-2.42286c1.13281,-0.5874 2.46492,-0.88114 3.99633,-0.88114c1.55242,0 2.88452,0.29373 3.99633,0.88114c1.1328,0.56659 2.00377,1.37407 2.61195,2.42286c0.62965,1.02826 0.94424,2.23434 0.94424,3.61919v9.75511c0,1.38438 -0.31459,2.6012 -0.94424,3.65046c-0.60818,1.02779 -1.47914,1.83527 -2.61195,2.42291c-1.11181,0.56617 -2.44391,0.84949 -3.99633,0.84949zM127.82177,65.6038c0.94424,0 1.6467,-0.24131 2.10832,-0.72393c0.48262,-0.50362 0.72393,-1.20609 0.72393,-2.10832v-9.75511c0,-0.92323 -0.23104,-1.62617 -0.69219,-2.10832c-0.46162,-0.48262 -1.17481,-0.72393 -2.14006,-0.72393c-0.96524,0 -1.67844,0.24131 -2.14006,0.72393c-0.46115,0.48215 -0.69219,1.18509 -0.69219,2.10832v9.75511c0,0.90223 0.23104,1.6047 0.69219,2.10832c0.48262,0.48262 1.19582,0.72393 2.14006,0.72393zM138.03666,69.37981l5.63276,-22.9719h5.9791l5.69577,22.9719h-4.81455l-1.10154,-5.19215h-5.47547l-1.10153,5.19215zM144.73966,60.41118h3.87031l-1.10107,-5.53848c-0.14703,-0.79721 -0.30433,-1.58369 -0.47235,-2.3599c-0.14656,-0.79721 -0.26231,-1.41613 -0.34586,-1.85674c-0.08401,0.44062 -0.1993,1.04926 -0.34633,1.82547c-0.12602,0.77621 -0.27259,1.56269 -0.44062,2.3599zM177.06412,69.37981v-22.9719h7.39522c2.32862,0 4.18536,0.53495 5.56975,1.60493c1.38485,1.04879 2.07704,2.47565 2.07704,4.27965c0,1.00679 -0.24131,1.88802 -0.72347,2.64322c-0.46162,0.7552 -1.09127,1.34284 -1.88848,1.76245c-0.77621,0.41961 -1.6257,0.62918 -2.54893,0.62918v0.09428c1.02826,-0.02054 1.96175,0.16803 2.80097,0.56663c0.86023,0.39861 1.55242,0.99652 2.07658,1.79373c0.52463,0.79721 0.78695,1.78299 0.78695,2.95781c0,1.34284 -0.32533,2.51766 -0.97551,3.52445c-0.62965,0.98624 -1.53141,1.75172 -2.70623,2.29735c-1.17481,0.54564 -2.56994,0.81822 -4.18537,0.81822zM181.62709,65.57206h2.92653c1.02826,0 1.83574,-0.27258 2.42338,-0.81821c0.58718,-0.54516 0.88123,-1.30037 0.88123,-2.26562c0,-0.96478 -0.29405,-1.72045 -0.88123,-2.26562c-0.58764,-0.56663 -1.39513,-0.84995 -2.42338,-0.84995h-2.92653zM181.62709,55.65965h2.76924c0.92324,0 1.64717,-0.24131 2.17133,-0.72393c0.52463,-0.50316 0.78694,-1.17482 0.78694,-2.01403c0,-0.85975 -0.26231,-1.52067 -0.78694,-1.9823c-0.52416,-0.48262 -1.2481,-0.72394 -2.17133,-0.72394h-2.76924zM203.29651,69.69441c-1.53142,0 -2.86353,-0.28332 -3.99633,-0.84949c-1.1328,-0.58764 -2.01404,-1.39512 -2.64321,-2.42291c-0.60864,-1.04926 -0.9125,-2.26608 -0.9125,-3.65046v-4.09108c0,-1.38439 0.30385,-2.59094 0.9125,-3.61873c0.62918,-1.04879 1.51041,-1.85674 2.64321,-2.42291c1.1328,-0.58764 2.46491,-0.88123 3.99633,-0.88123c1.55241,0 2.88453,0.29359 3.9968,0.88123c1.1328,0.56617 2.0033,1.37412 2.61148,2.42291c0.62965,1.02779 0.94424,2.23434 0.94424,3.61873v4.09108c0,1.38438 -0.31459,2.6012 -0.94424,3.65046c-0.60818,1.02779 -1.47867,1.83527 -2.61148,2.42291c-1.11227,0.56617 -2.44439,0.84949 -3.9968,0.84949zM203.29651,65.6038c0.92324,0 1.62617,-0.24131 2.10832,-0.72393c0.48262,-0.50362 0.72393,-1.20609 0.72393,-2.10832v-4.09108c0,-0.92277 -0.24131,-1.6257 -0.72393,-2.10832c-0.48216,-0.48262 -1.18509,-0.72393 -2.10832,-0.72393c-0.90177,0 -1.60469,0.24131 -2.10832,0.72393c-0.48262,0.48262 -0.72346,1.18555 -0.72346,2.10832v4.09108c0,0.90223 0.24084,1.6047 0.72346,2.10832c0.50362,0.48262 1.20655,0.72393 2.10832,0.72393zM224.05342,69.37981c-1.76199,0 -3.14684,-0.50363 -4.15362,-1.51041c-1.00725,-1.00725 -1.51041,-2.39164 -1.51041,-4.15409v-7.39475h-4.56296v-4.24838h4.56296v-4.87756h4.7198v4.87756h6.45144v4.24838h-6.45144v7.39475c0,0.94424 0.47235,1.41613 1.41612,1.41613h4.72026v4.24838z" fill="#dc6d00" fill-rule="nonzero" stroke-width="1"></path>
      <path d="M249.33503,71.71358c-4.12448,0 -7.46803,-3.34355 -7.46803,-7.46803v-12.6023c0,-4.12448 3.34355,-7.46803 7.46803,-7.46803h33.60613c4.12448,0 7.46803,3.34355 7.46803,7.46803v12.6023c0,4.12448 -3.34355,7.46803 -7.46803,7.46803z" fill="#683fff" fill-rule="nonzero" stroke-width="1"></path>
      <path d="M250.57801,64.71228v-13.62916h8.62557v2.61381h-5.91842v2.72583h1.82967c0.9461,0 1.76759,0.1741 2.46445,0.52276c0.69732,0.33606 1.23877,0.81542 1.6243,1.4376c0.3986,0.61004 0.59744,1.33164 0.59744,2.16573c0,0.83409 -0.19884,1.56222 -0.59744,2.1844c-0.38554,0.62218 -0.92698,1.1076 -1.6243,1.45627c-0.69686,0.34866 -1.51227,0.52277 -2.44578,0.52277zM253.28515,62.37854h1.84834c0.57271,0 1.02686,-0.16197 1.36292,-0.48542c0.33606,-0.32346 0.50409,-0.75941 0.50409,-1.30691c0,-0.5601 -0.16803,-1.00212 -0.50409,-1.32558c-0.33606,-0.33606 -0.79021,-0.50409 -1.36292,-0.50409h-1.84834zM266.14185,64.899c-0.90877,0 -1.69898,-0.16803 -2.3711,-0.50409c-0.67212,-0.34866 -1.19488,-0.82755 -1.56829,-1.4376c-0.36127,-0.62218 -0.54143,-1.34424 -0.54143,-2.16573v-5.78773c0,-0.82149 0.18016,-1.53701 0.54143,-2.14706c0.3734,-0.62218 0.89616,-1.10153 1.56829,-1.4376c0.67212,-0.34866 1.46233,-0.52276 2.3711,-0.52276c0.9209,0 1.71112,0.1741 2.3711,0.52276c0.67212,0.33606 1.18835,0.81542 1.54961,1.4376c0.3734,0.61004 0.56011,1.32557 0.56011,2.14706v5.78773c0,0.82149 -0.18671,1.54355 -0.56011,2.16573c-0.36127,0.61004 -0.87749,1.08893 -1.54961,1.4376c-0.65999,0.33606 -1.4502,0.50409 -2.3711,0.50409zM266.14185,62.47189c0.5601,0 0.97691,-0.14329 1.2509,-0.42941c0.28612,-0.29872 0.42942,-0.71553 0.42942,-1.25089v-5.78773c0,-0.5475 -0.13723,-0.96478 -0.41075,-1.25089c-0.27398,-0.28612 -0.69732,-0.42941 -1.26956,-0.42941c-0.5727,0 -0.99605,0.1433 -1.26956,0.42941c-0.27398,0.28612 -0.41074,0.7034 -0.41074,1.25089v5.78773c0,0.53536 0.13675,0.95217 0.41074,1.25089c0.28612,0.28612 0.70947,0.42941 1.26957,0.42941zM275.93616,64.71228v-11.01535h-3.45397v-2.61381h9.70844v2.61381h-3.45396v11.01535z" fill="#ffffff" fill-rule="nonzero" stroke-width="1"></path>
      <path d="M101.61366,102.05245v-12.32225h9.23049v12.32225h-2.01636v-10.48512h-5.19775v10.48512zM119.66248,102.23169c-0.98578,0 -1.83714,-0.18671 -2.55407,-0.56011c-0.71693,-0.3734 -1.27703,-0.9111 -1.68031,-1.6131c-0.38834,-0.71693 -0.58251,-1.56082 -0.58251,-2.53166v-3.271c0,-0.98578 0.19417,-1.82967 0.58251,-2.53166c0.40327,-0.70199 0.96338,-1.23969 1.68031,-1.61309c0.71693,-0.3734 1.56829,-0.5601 2.55407,-0.5601c0.98578,0 1.83713,0.1867 2.55406,0.5601c0.71693,0.3734 1.26957,0.9111 1.6579,1.61309c0.40327,0.70199 0.60491,1.53842 0.60491,2.50926v3.2934c0,0.97084 -0.20164,1.81473 -0.60491,2.53166c-0.38834,0.70199 -0.94097,1.23969 -1.6579,1.6131c-0.71693,0.3734 -1.56828,0.56011 -2.55406,0.56011zM119.66248,100.43936c0.88123,0 1.56828,-0.24644 2.06117,-0.73933c0.49289,-0.49289 0.73933,-1.21729 0.73933,-2.1732v-3.271c0,-0.95591 -0.24644,-1.6803 -0.73933,-2.17319c-0.49289,-0.49289 -1.17994,-0.73933 -2.06117,-0.73933c-0.86629,0 -1.55335,0.24644 -2.06118,0.73933c-0.49289,0.49289 -0.73933,1.21728 -0.73933,2.17319v3.271c0,0.95591 0.24644,1.68031 0.73933,2.1732c0.50782,0.49289 1.19488,0.73933 2.06118,0.73933zM133.14135,102.27649c-0.98578,0 -1.85207,-0.1867 -2.59887,-0.5601c-0.73186,-0.3734 -1.29943,-0.9111 -1.70271,-1.6131c-0.40328,-0.71693 -0.60491,-1.56082 -0.60491,-2.53166v-3.36061c0,-0.98578 0.20163,-1.82967 0.60491,-2.53167c0.40328,-0.70199 0.97084,-1.23969 1.70271,-1.6131c0.7468,-0.3734 1.61309,-0.5601 2.59887,-0.5601c1.41893,0 2.56154,0.38087 3.42783,1.14261c0.86629,0.76174 1.32184,1.79979 1.36665,3.11417h-2.01637c-0.04481,-0.79161 -0.31366,-1.39652 -0.80655,-1.81473c-0.47796,-0.43314 -1.13514,-0.64972 -1.97156,-0.64972c-0.88123,0 -1.58322,0.25392 -2.10598,0.76174c-0.52276,0.49289 -0.78414,1.20236 -0.78414,2.12839v3.38302c0,0.92603 0.26138,1.64297 0.78414,2.15079c0.52276,0.50782 1.22475,0.76174 2.10598,0.76174c0.83642,0 1.49361,-0.21658 1.97156,-0.64972c0.49289,-0.43314 0.76174,-1.03805 0.80655,-1.81473h2.01637c-0.04481,1.31437 -0.50036,2.35243 -1.36665,3.11417c-0.86629,0.76174 -2.0089,1.14261 -3.42783,1.14261zM145.52193,102.05245v-10.55232h-4.48082v-1.76993h10.978v1.76993h-4.48081v10.55232zM158.88831,102.27649c-1.29943,0 -2.32255,-0.3286 -3.06936,-0.98578c-0.7468,-0.67212 -1.1202,-1.57575 -1.1202,-2.71089c0,-1.15008 0.3734,-2.05371 1.1202,-2.7109c0.7468,-0.65718 1.75499,-0.98578 3.02455,-0.98578h3.8087v-1.23222c0,-0.76174 -0.23151,-1.34424 -0.69453,-1.74752c-0.44808,-0.41821 -1.09033,-0.62731 -1.92675,-0.62731c-0.73186,0 -1.34425,0.15683 -1.83714,0.47048c-0.49289,0.29872 -0.77667,0.70946 -0.85135,1.23222h-2.01637c0.13442,-1.06046 0.63479,-1.90435 1.50108,-2.53167c0.86629,-0.62731 1.94916,-0.94097 3.24859,-0.94097c1.41893,0 2.53913,0.36593 3.36061,1.0978c0.82148,0.73186 1.23222,1.72512 1.23222,2.97975v8.46874h-1.97156v-2.35243h-0.33606l0.33606,-0.33606c0,0.89616 -0.35099,1.60563 -1.05299,2.12839c-0.68706,0.52276 -1.60563,0.78414 -2.75571,0.78414zM159.38122,100.6858c0.95591,0 1.74005,-0.23897 2.35243,-0.71693c0.61238,-0.47795 0.91857,-1.09033 0.91857,-1.83714v-1.74752h-3.76389c-0.67212,0 -1.20235,0.1867 -1.59069,0.5601c-0.38834,0.3734 -0.5825,0.88123 -0.5825,1.52348c0,0.68706 0.2315,1.23222 0.69452,1.6355c0.47796,0.38834 1.13514,0.5825 1.97156,0.5825zM168.78207,102.05245v-12.32225h5.33218c1.2845,0 2.27775,0.29125 2.97974,0.87376c0.702,0.56757 1.05299,1.36665 1.05299,2.39724c0,0.85135 -0.29126,1.53841 -0.87376,2.06117c-0.5825,0.50782 -1.35171,0.76174 -2.30762,0.76174v-0.17924c1.04552,0 1.88195,0.26139 2.50926,0.78415c0.64225,0.52276 0.96337,1.22475 0.96337,2.10598c0,1.10527 -0.3734,1.97156 -1.1202,2.59888c-0.7468,0.61238 -1.79233,0.91857 -3.13657,0.91857zM170.75363,100.28253h3.42782c0.71693,0 1.26957,-0.15684 1.6579,-0.47049c0.40328,-0.31365 0.60491,-0.75427 0.60491,-1.32184c0,-0.5825 -0.20164,-1.03059 -0.60491,-1.34425c-0.38834,-0.31365 -0.94098,-0.47048 -1.6579,-0.47048h-3.42782zM170.75363,94.92795h3.36061c0.62732,0 1.1202,-0.14936 1.47867,-0.44808c0.3734,-0.29872 0.5601,-0.71693 0.5601,-1.25463c0,-0.5377 -0.17923,-0.95591 -0.5377,-1.25463c-0.35846,-0.31365 -0.85882,-0.47048 -1.50107,-0.47048h-3.36061zM182.30574,102.05245v-12.32225h2.01637v4.52562h3.62946c1.38906,0 2.47939,0.351 3.271,1.053c0.80654,0.68706 1.20982,1.6355 1.20982,2.84532c0,1.19488 -0.40328,2.14333 -1.20982,2.84532c-0.80654,0.70199 -1.89688,1.05299 -3.271,1.05299zM184.32211,100.21532h3.62946c0.77668,0 1.36665,-0.17176 1.76993,-0.51529c0.41821,-0.35846 0.62732,-0.87376 0.62732,-1.54588c0,-0.67212 -0.20911,-1.17995 -0.62732,-1.52348c-0.40328,-0.35846 -0.99325,-0.53769 -1.76993,-0.53769h-3.62946zM209.0833,102.05245v-12.32225h2.01637v5.13054h5.19775v-5.13054h2.01637v12.32225h-2.01637v-5.35457h-5.19775v5.35457zM226.05673,102.27649c-1.29943,0 -2.32256,-0.3286 -3.06936,-0.98578c-0.7468,-0.67212 -1.1202,-1.57575 -1.1202,-2.71089c0,-1.15008 0.3734,-2.05371 1.1202,-2.7109c0.7468,-0.65718 1.75499,-0.98578 3.02455,-0.98578h3.8087v-1.23222c0,-0.76174 -0.23151,-1.34424 -0.69453,-1.74752c-0.44808,-0.41821 -1.09033,-0.62731 -1.92675,-0.62731c-0.73186,0 -1.34425,0.15683 -1.83713,0.47048c-0.49289,0.29872 -0.77668,0.70946 -0.85136,1.23222h-2.01637c0.13442,-1.06046 0.63478,-1.90435 1.50107,-2.53167c0.86629,-0.62731 1.94916,-0.94097 3.24859,-0.94097c1.41893,0 2.53913,0.36593 3.36061,1.0978c0.82148,0.73186 1.23222,1.72512 1.23222,2.97975v8.46874h-1.97156v-2.35243h-0.33606l0.33606,-0.33606c0,0.89616 -0.351,1.60563 -1.05299,2.12839c-0.68706,0.52276 -1.60563,0.78414 -2.7557,0.78414zM226.54962,100.6858c0.95591,0 1.74005,-0.23897 2.35243,-0.71693c0.61238,-0.47795 0.91857,-1.09033 0.91857,-1.83714v-1.74752h-3.76389c-0.67212,0 -1.20235,0.1867 -1.59069,0.5601c-0.38834,0.3734 -0.5825,0.88123 -0.5825,1.52348c0,0.68706 0.2315,1.23222 0.69452,1.6355c0.47796,0.38834 1.13514,0.5825 1.97156,0.5825zM253.91015,102.27649c-1.41893,0 -2.55407,-0.38086 -3.40542,-1.14261c-0.85136,-0.76174 -1.29943,-1.7998 -1.34425,-3.11417h2.01637c0.04481,0.77667 0.30619,1.38159 0.78414,1.81473c0.47796,0.43314 1.12767,0.64972 1.94916,0.64972c0.88123,0 1.56082,-0.25392 2.03877,-0.76174c0.49289,-0.50782 0.73933,-1.22476 0.73933,-2.15079v-0.89616h-4.3688v-1.79233h4.3688v-0.69452c0,-0.92603 -0.24644,-1.6355 -0.73933,-2.12839c-0.47796,-0.50782 -1.15754,-0.76174 -2.03877,-0.76174c-0.82148,0 -1.4712,0.21658 -1.94916,0.64972c-0.47796,0.41821 -0.73933,1.02312 -0.78414,1.81473h-2.01637c0.04481,-1.31437 0.49289,-2.35242 1.34425,-3.11416c0.85136,-0.76174 1.9865,-1.14261 3.40542,-1.14261c1.00072,0 1.85207,0.1867 2.55406,0.5601c0.71693,0.3734 1.26957,0.9111 1.65791,1.6131c0.38834,0.70199 0.5825,1.54588 0.5825,2.53167v3.36061c0,0.97084 -0.19416,1.81473 -0.5825,2.53166c-0.38834,0.70199 -0.94098,1.23969 -1.65791,1.6131c-0.702,0.3734 -1.55335,0.5601 -2.55406,0.5601zM266.42517,102.05245v-10.55232h-4.48082v-1.76993h10.978v1.76993h-4.48082v10.55232zM280.86692,102.23169c-0.98578,0 -1.83714,-0.18671 -2.55407,-0.56011c-0.71693,-0.3734 -1.27703,-0.9111 -1.68031,-1.6131c-0.38834,-0.71693 -0.58251,-1.56082 -0.58251,-2.53166v-3.271c0,-0.98578 0.19416,-1.82967 0.58251,-2.53166c0.40328,-0.70199 0.96338,-1.23969 1.68031,-1.61309c0.71693,-0.3734 1.56829,-0.5601 2.55407,-0.5601c0.98578,0 1.83713,0.1867 2.55406,0.5601c0.71693,0.3734 1.26956,0.9111 1.6579,1.61309c0.40328,0.70199 0.60491,1.53842 0.60491,2.50926v3.2934c0,0.97084 -0.20164,1.81473 -0.60491,2.53166c-0.38834,0.70199 -0.94097,1.23969 -1.6579,1.6131c-0.71693,0.3734 -1.56829,0.56011 -2.55406,0.56011zM280.86692,100.43936c0.88123,0 1.56829,-0.24644 2.06117,-0.73933c0.49289,-0.49289 0.73933,-1.21729 0.73933,-2.1732v-3.271c0,-0.95591 -0.24644,-1.6803 -0.73933,-2.17319c-0.49289,-0.49289 -1.17994,-0.73933 -2.06117,-0.73933c-0.86629,0 -1.55335,0.24644 -2.06118,0.73933c-0.49289,0.49289 -0.73933,1.21728 -0.73933,2.17319v3.271c0,0.95591 0.24644,1.68031 0.73933,2.1732c0.50783,0.49289 1.19489,0.73933 2.06118,0.73933zM307.77937,102.27649c-0.98578,0 -1.85207,-0.1867 -2.59888,-0.5601c-0.73187,-0.3734 -1.29943,-0.9111 -1.70271,-1.6131c-0.40328,-0.71693 -0.60492,-1.56082 -0.60492,-2.53166v-3.36061c0,-0.98578 0.20164,-1.82967 0.60492,-2.53167c0.40328,-0.70199 0.97084,-1.23969 1.70271,-1.6131c0.7468,-0.3734 1.6131,-0.5601 2.59888,-0.5601c1.41893,0 2.56153,0.38087 3.42782,1.14261c0.86629,0.76174 1.32184,1.79979 1.36665,3.11417h-2.01637c-0.04481,-0.79161 -0.31365,-1.39652 -0.80654,-1.81473c-0.47796,-0.43314 -1.13514,-0.64972 -1.97156,-0.64972c-0.88123,0 -1.58322,0.25392 -2.10598,0.76174c-0.52276,0.49289 -0.78415,1.20236 -0.78415,2.12839v3.38302c0,0.92603 0.26139,1.64297 0.78415,2.15079c0.52276,0.50782 1.22475,0.76174 2.10598,0.76174c0.83642,0 1.49361,-0.21658 1.97156,-0.64972c0.49289,-0.43314 0.76173,-1.03805 0.80654,-1.81473h2.01637c-0.04481,1.31437 -0.50036,2.35243 -1.36665,3.11417c-0.86629,0.76174 -2.0089,1.14261 -3.42782,1.14261zM321.16816,102.23169c-0.98578,0 -1.83714,-0.18671 -2.55407,-0.56011c-0.71693,-0.3734 -1.27703,-0.9111 -1.6803,-1.6131c-0.38834,-0.71693 -0.58251,-1.56082 -0.58251,-2.53166v-3.271c0,-0.98578 0.19417,-1.82967 0.58251,-2.53166c0.40328,-0.70199 0.96337,-1.23969 1.6803,-1.61309c0.71693,-0.3734 1.56829,-0.5601 2.55407,-0.5601c0.98578,0 1.83714,0.1867 2.55407,0.5601c0.71693,0.3734 1.26956,0.9111 1.6579,1.61309c0.40328,0.70199 0.60491,1.53842 0.60491,2.50926v3.2934c0,0.97084 -0.20163,1.81473 -0.60491,2.53166c-0.38834,0.70199 -0.94097,1.23969 -1.6579,1.6131c-0.71693,0.3734 -1.56829,0.56011 -2.55407,0.56011zM321.16816,100.43936c0.88123,0 1.56829,-0.24644 2.06118,-0.73933c0.49289,-0.49289 0.73933,-1.21729 0.73933,-2.1732v-3.271c0,-0.95591 -0.24644,-1.6803 -0.73933,-2.17319c-0.49289,-0.49289 -1.17995,-0.73933 -2.06118,-0.73933c-0.86629,0 -1.55335,0.24644 -2.06117,0.73933c-0.49289,0.49289 -0.73934,1.21728 -0.73934,2.17319v3.271c0,0.95591 0.24645,1.68031 0.73934,2.1732c0.50783,0.49289 1.19488,0.73933 2.06117,0.73933zM334.60175,102.23169c-0.98578,0 -1.83714,-0.18671 -2.55407,-0.56011c-0.71693,-0.3734 -1.27703,-0.9111 -1.68031,-1.6131c-0.38834,-0.71693 -0.5825,-1.56082 -0.5825,-2.53166v-3.271c0,-0.98578 0.19416,-1.82967 0.5825,-2.53166c0.40328,-0.70199 0.96338,-1.23969 1.68031,-1.61309c0.71693,-0.3734 1.56829,-0.5601 2.55407,-0.5601c0.98578,0 1.83713,0.1867 2.55406,0.5601c0.71693,0.3734 1.26957,0.9111 1.65791,1.61309c0.40328,0.70199 0.60491,1.53842 0.60491,2.50926v3.2934c0,0.97084 -0.20164,1.81473 -0.60491,2.53166c-0.38834,0.70199 -0.94098,1.23969 -1.65791,1.6131c-0.71693,0.3734 -1.56829,0.56011 -2.55406,0.56011zM334.60175,100.43936c0.88123,0 1.56829,-0.24644 2.06117,-0.73933c0.49289,-0.49289 0.73934,-1.21729 0.73934,-2.1732v-3.271c0,-0.95591 -0.24645,-1.6803 -0.73934,-2.17319c-0.49289,-0.49289 -1.17994,-0.73933 -2.06117,-0.73933c-0.86629,0 -1.55335,0.24644 -2.06118,0.73933c-0.49289,0.49289 -0.73934,1.21728 -0.73934,2.17319v3.271c0,0.95591 0.24645,1.68031 0.73934,2.1732c0.50783,0.49289 1.19489,0.73933 2.06118,0.73933zM348.03581,102.27649c-1.4488,0 -2.59888,-0.42567 -3.45023,-1.27703c-0.83642,-0.86629 -1.25462,-2.04624 -1.25462,-3.53985v-5.60102c0,-1.97156 0.49289,-3.48757 1.47867,-4.54803c0.98578,-1.0754 2.39723,-1.6131 4.23437,-1.6131h3.13658v2.01637h-3.13658c-1.20982,0 -2.12838,0.35846 -2.7557,1.0754c-0.62732,0.70199 -0.94097,1.72512 -0.94097,3.06936v1.45627h0.31366l-0.31366,0.44808c0.01493,-0.88123 0.31366,-1.56829 0.89616,-2.06118c0.58251,-0.49289 1.37412,-0.73933 2.37484,-0.73933c1.29944,0 2.30762,0.41821 3.02455,1.25463c0.73187,0.83642 1.0978,1.9865 1.0978,3.45023v1.79233c0,1.00071 -0.1867,1.85954 -0.5601,2.57647c-0.3734,0.71693 -0.9111,1.26956 -1.6131,1.6579c-0.702,0.38834 -1.54588,0.5825 -2.53166,0.5825zM348.03581,100.48417c0.86629,0 1.53095,-0.26138 1.99397,-0.78414c0.46302,-0.52276 0.69453,-1.26956 0.69453,-2.24041v-1.79233c0,-0.97084 -0.23151,-1.71765 -0.69453,-2.24041c-0.46302,-0.52276 -1.12768,-0.78414 -1.99397,-0.78414c-0.86629,0 -1.53094,0.26138 -1.99396,0.78414c-0.46302,0.50782 -0.69453,1.25463 -0.69453,2.24041v1.79233c0,0.97084 0.23151,1.71765 0.69453,2.24041c0.46302,0.52276 1.12767,0.78414 1.99396,0.78414zM365.83819,105.18903v-3.13657h-9.65616v-12.32225h1.81473v10.61954h2.59887v-10.61954h1.56829v10.61954h2.59888v-10.61954h1.81473v10.61954h1.053v4.83928zM374.90298,102.27649c-0.97084,0 -1.8222,-0.19416 -2.55406,-0.5825c-0.71693,-0.38834 -1.27704,-0.93351 -1.68031,-1.6355c-0.38834,-0.71693 -0.5825,-1.54588 -0.5825,-2.48685v-3.36061c0,-0.95591 0.19416,-1.78486 0.5825,-2.48686c0.40328,-0.70199 0.96338,-1.24716 1.68031,-1.6355c0.73187,-0.38834 1.58322,-0.5825 2.55406,-0.5825c0.97084,0 1.81474,0.19416 2.53167,0.5825c0.73187,0.38834 1.29196,0.9335 1.6803,1.6355c0.40328,0.70199 0.60491,1.53095 0.60491,2.48686v2.1732h-7.6622v1.18742c0,0.97084 0.24644,1.71765 0.73933,2.24041c0.49289,0.50782 1.19488,0.76174 2.10598,0.76174c0.77668,0 1.40399,-0.13442 1.88195,-0.40327c0.47796,-0.28378 0.76921,-0.702 0.87376,-1.25463h2.01637c-0.13443,1.03059 -0.64225,1.85207 -1.52348,2.46445c-0.86629,0.59744 -1.94916,0.89616 -3.2486,0.89616zM377.7483,95.03997v-0.82895c0,-0.97084 -0.24644,-1.71765 -0.73933,-2.24041c-0.47796,-0.52276 -1.17995,-0.78414 -2.10599,-0.78414c-0.9111,0 -1.61309,0.26138 -2.10598,0.78414c-0.49289,0.52276 -0.73933,1.26957 -0.73933,2.24041v0.64972h5.84747zM383.72133,102.05245v-12.32225h2.01637v5.13054h5.19775v-5.13054h2.01637v12.32225h-2.01637v-5.35457h-5.19775v5.35457zM397.15536,102.05245v-12.32225h1.92675v6.72123c0,0.43314 -0.01494,0.8887 -0.04481,1.36665c-0.01493,0.47795 -0.0448,0.9335 -0.08961,1.36665c-0.02987,0.41821 -0.06721,0.77667 -0.11202,1.0754l4.97371,-10.52992h2.57647v12.32225h-1.92676v-6.72123c0,-0.43314 0.00747,-0.88869 0.02241,-1.36665c0.02987,-0.47795 0.06721,-0.93351 0.11202,-1.36665c0.04481,-0.44808 0.08215,-0.81401 0.11202,-1.0978l-4.9737,10.55232zM415.20421,102.27649c-0.97084,0 -1.8222,-0.19416 -2.55407,-0.5825c-0.71693,-0.38834 -1.27703,-0.93351 -1.6803,-1.6355c-0.38834,-0.71693 -0.58251,-1.54588 -0.58251,-2.48685v-3.36061c0,-0.95591 0.19417,-1.78486 0.58251,-2.48686c0.40328,-0.70199 0.96337,-1.24716 1.6803,-1.6355c0.73187,-0.38834 1.58322,-0.5825 2.55407,-0.5825c0.97084,0 1.81473,0.19416 2.53166,0.5825c0.73187,0.38834 1.29196,0.9335 1.6803,1.6355c0.40328,0.70199 0.60491,1.53095 0.60491,2.48686v2.1732h-7.6622v1.18742c0,0.97084 0.24644,1.71765 0.73933,2.24041c0.49289,0.50782 1.19489,0.76174 2.10599,0.76174c0.77668,0 1.40399,-0.13442 1.88194,-0.40327c0.47796,-0.28378 0.76921,-0.702 0.87376,-1.25463h2.01637c-0.13443,1.03059 -0.64225,1.85207 -1.52348,2.46445c-0.86629,0.59744 -1.94916,0.89616 -3.24859,0.89616zM418.04952,95.03997v-0.82895c0,-0.97084 -0.24644,-1.71765 -0.73933,-2.24041c-0.47796,-0.52276 -1.17995,-0.78414 -2.10598,-0.78414c-0.9111,0 -1.6131,0.26138 -2.10599,0.78414c-0.49289,0.52276 -0.73933,1.26957 -0.73933,2.24041v0.64972h5.84747zM100.98634,135.49056v-16.35499h3.24859v2.35243h0.78414l-0.78414,0.78415c0,-1.06046 0.29126,-1.88195 0.87376,-2.46445c0.5825,-0.59744 1.38159,-0.89616 2.39723,-0.89616c1.23969,0 2.23294,0.44061 2.97975,1.32184c0.7468,0.86629 1.1202,2.03131 1.1202,3.49504v3.13657c0,0.97084 -0.17176,1.8222 -0.51529,2.55406c-0.3286,0.71693 -0.79908,1.27703 -1.41146,1.68031c-0.61238,0.38834 -1.33678,0.5825 -2.1732,0.5825c-1.01565,0 -1.81473,-0.29125 -2.39723,-0.87375c-0.5825,-0.59744 -0.87376,-1.42639 -0.87376,-2.48685l0.78414,0.78414h-0.78414l0.11202,3.02455v3.36062zM106.29611,128.76933c0.62731,0 1.10526,-0.17176 1.43386,-0.51529c0.34353,-0.35846 0.5153,-0.85883 0.5153,-1.50108v-2.91253c0,-0.65718 -0.17177,-1.15754 -0.5153,-1.50108c-0.3286,-0.34353 -0.80654,-0.5153 -1.43386,-0.5153c-0.61238,0 -1.09033,0.17924 -1.43386,0.5377c-0.34353,0.34353 -0.5153,0.83642 -0.5153,1.47867v2.91253c0,0.64225 0.17177,1.14261 0.5153,1.50108c0.34353,0.34353 0.82148,0.51529 1.43386,0.51529zM119.68489,131.68186c-1.09033,0 -2.04624,-0.20163 -2.86772,-0.60491c-0.80654,-0.41821 -1.43386,-0.99325 -1.88195,-1.72512c-0.43314,-0.7468 -0.64972,-1.61309 -0.64972,-2.59887v-2.91253c0,-0.98578 0.21657,-1.84461 0.64972,-2.57647c0.44808,-0.7468 1.0754,-1.32184 1.88195,-1.72512c0.82148,-0.41821 1.77739,-0.62731 2.86772,-0.62731c1.09033,0 2.03131,0.2091 2.82292,0.62731c0.80654,0.40327 1.42639,0.97831 1.85954,1.72512c0.44808,0.73186 0.67212,1.59069 0.67212,2.57647v2.24041h-7.55017v0.67212c0,0.77667 0.1867,1.36665 0.5601,1.76993c0.3734,0.38834 0.9335,0.5825 1.6803,0.5825c0.52276,0 0.94098,-0.08961 1.25463,-0.26884c0.3286,-0.17924 0.54517,-0.42568 0.64972,-0.73933h3.2934c-0.26885,1.07539 -0.88122,1.94168 -1.83713,2.59887c-0.94097,0.65718 -2.07611,0.98578 -3.40542,0.98578zM121.83568,124.35573v-0.56011c0,-0.76174 -0.17923,-1.34424 -0.53769,-1.74751c-0.34353,-0.40327 -0.88123,-0.60491 -1.6131,-0.60491c-0.73186,0 -1.2845,0.2091 -1.6579,0.62731c-0.35846,0.41821 -0.53769,1.00818 -0.53769,1.76993v0.33606l4.57044,-0.0448zM131.50587,131.68186c-1.2397,0 -2.22547,-0.33605 -2.95734,-1.00818c-0.71693,-0.67212 -1.0754,-1.58323 -1.0754,-2.7333c0,-1.23969 0.42568,-2.18814 1.27703,-2.84532c0.86629,-0.67212 2.10599,-1.00818 3.71908,-1.00818h2.55406v-0.91857c0,-0.47795 -0.17176,-0.85883 -0.51529,-1.14261c-0.3286,-0.28378 -0.77668,-0.42568 -1.34425,-0.42568c-0.52276,0 -0.95591,0.11949 -1.29944,0.35847c-0.34353,0.23897 -0.55263,0.56757 -0.62731,0.98578h-3.2486c0.13443,-1.23969 0.67213,-2.218 1.6131,-2.93493c0.95591,-0.73186 2.18067,-1.0978 3.67427,-1.0978c1.56829,0 2.80798,0.38834 3.71908,1.16501c0.92604,0.76174 1.38905,1.79233 1.38905,3.09176v8.28951h-3.24859v-2.01636h-0.5377l0.56011,-0.78415c0,0.92604 -0.33606,1.66537 -1.00819,2.21801c-0.65718,0.5377 -1.53841,0.80654 -2.64368,0.80654zM132.76047,129.21741c0.65718,0 1.19488,-0.17176 1.61309,-0.51529c0.43314,-0.35846 0.64972,-0.82148 0.64972,-1.38905v-1.32184h-2.48685c-0.50782,0 -0.91857,0.14936 -1.23222,0.44808c-0.31366,0.28378 -0.47048,0.66466 -0.47048,1.14261c0,0.50782 0.17177,0.9111 0.5153,1.20982c0.34353,0.28378 0.81401,0.42567 1.41145,0.42567zM141.3548,131.45782v-12.32225h3.36061v4.66005h1.6579l2.57647,-4.66005h3.74149l-3.42783,6.0267l3.49504,6.29555h-3.80869l-2.59887,-4.83928h-1.6355v4.83928zM163.05548,134.59438v-3.13658h-8.33432v-12.32225h3.36061v9.18568h3.06936v-9.18568h3.36061v9.18568h1.68031v6.27315zM168.15476,131.45782v-12.32225h2.95734v5.60103c0,0.3734 -0.0224,0.84389 -0.06721,1.41146c-0.04481,0.55263 -0.10455,1.11274 -0.17923,1.68031c-0.05974,0.56757 -0.12696,1.06793 -0.20164,1.50108l3.89831,-10.19387h4.07754v12.32225h-2.95734v-5.60102c0,-0.38834 0.0224,-0.82895 0.06721,-1.32184c0.04481,-0.50782 0.09708,-1.01565 0.15683,-1.52348c0.05974,-0.50782 0.11949,-0.94098 0.17923,-1.29944l-3.8535,9.74578zM188.89253,131.68186c-1.17995,0 -2.09105,-0.33605 -2.7333,-1.00818c-0.62732,-0.68706 -0.94098,-1.59069 -0.94098,-2.7109v-1.6579h-1.6803v5.15294h-2.75571v-12.32225h2.75571v5.04092h1.6803v-1.56828c0,-1.10527 0.31366,-1.99396 0.94098,-2.66609c0.64225,-0.68706 1.55335,-1.03059 2.7333,-1.03059c1.19488,0 2.15826,0.33606 2.89012,1.00818c0.73186,0.67212 1.0978,1.56829 1.0978,2.68849v5.35458c0,1.12021 -0.3734,2.02384 -1.1202,2.7109c-0.73186,0.67212 -1.68777,1.00818 -2.86772,1.00818zM188.89253,129.21741c0.35846,0 0.64972,-0.11202 0.87376,-0.33606c0.23898,-0.23898 0.35846,-0.54516 0.35846,-0.91856v-5.35458c0,-0.35846 -0.11949,-0.64972 -0.35846,-0.87376c-0.22404,-0.23897 -0.5153,-0.35846 -0.87376,-0.35846c-0.35846,0 -0.65719,0.11949 -0.89616,0.35846c-0.22404,0.22404 -0.33606,0.5153 -0.33606,0.87376v5.35458c0,0.3734 0.11202,0.67959 0.33606,0.91856c0.23898,0.22404 0.5377,0.33606 0.89616,0.33606zM108.69335,160.86318v-4.48082c-0.23897,0.05974 -0.60491,0.11949 -1.0978,0.17923c-0.47795,0.04481 -0.98578,0.06722 -1.52348,0.06722c-1.52348,0.01494 -2.71089,-0.351 -3.56225,-1.0978c-0.83642,-0.76174 -1.25463,-1.8222 -1.25463,-3.18139v-3.80869h2.01637v3.8087c0,0.76174 0.25391,1.36666 0.76174,1.81474c0.52276,0.43314 1.23969,0.64971 2.1508,0.64971c0.62731,0 1.15754,-0.0224 1.59069,-0.06721c0.44808,-0.05974 0.75428,-0.11202 0.91857,-0.15683v-6.0491h2.01637v12.32225zM118.65431,160.86318v-10.55232h-4.48082v-1.76993h10.978v1.76993h-4.48081v10.55232zM133.09656,161.04243c-0.98578,0 -1.83714,-0.1867 -2.55407,-0.5601c-0.71693,-0.3734 -1.27703,-0.91109 -1.68031,-1.61309c-0.38834,-0.71693 -0.5825,-1.56082 -0.5825,-2.53167v-3.27099c0,-0.98578 0.19416,-1.82967 0.5825,-2.53167c0.40328,-0.702 0.96338,-1.2397 1.68031,-1.6131c0.71693,-0.3734 1.56829,-0.5601 2.55407,-0.5601c0.98578,0 1.83714,0.1867 2.55407,0.5601c0.71693,0.3734 1.26956,0.9111 1.6579,1.6131c0.40328,0.702 0.60491,1.53841 0.60491,2.50926v3.2934c0,0.97084 -0.20164,1.81474 -0.60491,2.53167c-0.38834,0.702 -0.94097,1.23969 -1.6579,1.61309c-0.71693,0.3734 -1.56829,0.5601 -2.55407,0.5601zM133.09656,159.25009c0.88123,0 1.56829,-0.24645 2.06118,-0.73934c0.49289,-0.49289 0.73933,-1.21729 0.73933,-2.17319v-3.27099c0,-0.95591 -0.24644,-1.68031 -0.73933,-2.1732c-0.49289,-0.49289 -1.17995,-0.73934 -2.06118,-0.73934c-0.86629,0 -1.55335,0.24645 -2.06118,0.73934c-0.49289,0.49289 -0.73934,1.21729 -0.73934,2.1732v3.27099c0,0.95591 0.24645,1.68031 0.73934,2.17319c0.50782,0.49289 1.19489,0.73934 2.06118,0.73934zM146.53014,161.08721c-1.4488,0 -2.59887,-0.42568 -3.45023,-1.27703c-0.83642,-0.86629 -1.25463,-2.04624 -1.25463,-3.53985v-5.60102c0,-1.97156 0.49289,-3.48757 1.47867,-4.54803c0.98578,-1.07539 2.39724,-1.6131 4.23438,-1.6131h3.13657v2.01637h-3.13657c-1.20982,0 -2.12839,0.35847 -2.75571,1.0754c-0.62732,0.702 -0.94097,1.72511 -0.94097,3.06936v1.45627h0.31365l-0.31365,0.44808c0.01494,-0.88123 0.31366,-1.56829 0.89616,-2.06118c0.5825,-0.49289 1.37411,-0.73934 2.37483,-0.73934c1.29943,0 2.30763,0.41821 3.02455,1.25463c0.73186,0.83642 1.0978,1.98649 1.0978,3.45023v1.79233c0,1.00072 -0.18671,1.85954 -0.56011,2.57647c-0.3734,0.71693 -0.9111,1.26956 -1.61309,1.6579c-0.702,0.38834 -1.54588,0.58251 -2.53166,0.58251zM146.53014,159.29491c0.86629,0 1.53094,-0.26138 1.99396,-0.78414c0.46302,-0.52276 0.69452,-1.26956 0.69452,-2.24041v-1.79233c0,-0.97084 -0.2315,-1.71765 -0.69452,-2.24041c-0.46302,-0.52276 -1.12767,-0.78414 -1.99396,-0.78414c-0.86629,0 -1.53095,0.26138 -1.99397,0.78414c-0.46302,0.50782 -0.69452,1.25463 -0.69452,2.24041v1.79233c0,0.97084 0.2315,1.71765 0.69452,2.24041c0.46302,0.52276 1.12768,0.78414 1.99397,0.78414zM154.69875,160.86318v-12.32225h1.88195v4.52563h1.00818c1.32931,0 2.37483,0.35099 3.13657,1.05299c0.77668,0.68706 1.16501,1.6355 1.16501,2.84532c0,1.20982 -0.38834,2.16573 -1.16501,2.86773c-0.76174,0.68706 -1.80726,1.03059 -3.13657,1.03059zM156.58071,159.25009h1.00818c0.79161,0 1.40399,-0.20164 1.83713,-0.60491c0.44808,-0.40328 0.67212,-0.96338 0.67212,-1.68031c0,-0.71693 -0.22404,-1.27703 -0.67212,-1.6803c-0.43314,-0.40328 -1.04552,-0.60492 -1.83713,-0.60492h-1.00818zM163.34675,160.86318v-12.32225h1.88195v12.32225zM185.75596,161.08721c-1.29943,0 -2.32255,-0.32859 -3.06936,-0.98578c-0.7468,-0.67212 -1.1202,-1.57576 -1.1202,-2.7109c0,-1.15007 0.3734,-2.05371 1.1202,-2.7109c0.7468,-0.65718 1.75499,-0.98578 3.02455,-0.98578h3.8087v-1.23222c0,-0.76174 -0.23151,-1.34424 -0.69453,-1.74751c-0.44808,-0.41821 -1.09033,-0.62732 -1.92675,-0.62732c-0.73186,0 -1.34425,0.15683 -1.83714,0.47048c-0.49289,0.29872 -0.77667,0.70946 -0.85135,1.23222h-2.01637c0.13442,-1.06046 0.63478,-1.90435 1.50107,-2.53167c0.86629,-0.62732 1.94916,-0.94097 3.24859,-0.94097c1.41893,0 2.53913,0.36594 3.36061,1.0978c0.82148,0.73186 1.23222,1.72512 1.23222,2.97975v8.46874h-1.97156v-2.35243h-0.33606l0.33606,-0.33606c0,0.89616 -0.35099,1.60563 -1.05299,2.12839c-0.68706,0.52276 -1.60563,0.78414 -2.75571,0.78414zM186.24886,159.49654c0.95591,0 1.74005,-0.23897 2.35243,-0.71693c0.61238,-0.47796 0.91857,-1.09033 0.91857,-1.83714v-1.74752h-3.76389c-0.67212,0 -1.20235,0.18671 -1.59069,0.56011c-0.38834,0.3734 -0.5825,0.88123 -0.5825,1.52347c0,0.68706 0.2315,1.23222 0.69452,1.6355c0.47796,0.38834 1.13514,0.5825 1.97156,0.5825zM195.64969,160.86318v-12.32225h5.33218c1.2845,0 2.27775,0.29126 2.97975,0.87376c0.702,0.56757 1.05299,1.36665 1.05299,2.39724c0,0.85136 -0.29126,1.53842 -0.87376,2.06118c-0.5825,0.50782 -1.35171,0.76174 -2.30762,0.76174v-0.17924c1.04552,0 1.88195,0.26138 2.50926,0.78414c0.64225,0.52276 0.96338,1.22476 0.96338,2.10599c0,1.10527 -0.3734,1.97156 -1.1202,2.59887c-0.7468,0.61238 -1.79233,0.91857 -3.13658,0.91857zM197.62127,159.09327h3.42782c0.71693,0 1.26957,-0.15683 1.6579,-0.47049c0.40328,-0.31366 0.60491,-0.75428 0.60491,-1.32184c0,-0.5825 -0.20164,-1.03059 -0.60491,-1.34425c-0.38834,-0.31366 -0.94098,-0.47048 -1.6579,-0.47048h-3.42782zM197.62127,153.73869h3.36061c0.62732,0 1.1202,-0.14936 1.47867,-0.44808c0.3734,-0.29872 0.5601,-0.71693 0.5601,-1.25463c0,-0.5377 -0.17923,-0.95591 -0.5377,-1.25463c-0.35846,-0.31366 -0.85882,-0.47048 -1.50107,-0.47048h-3.36061zM212.69034,160.86318v-10.55232h-4.48082v-1.76993h10.978v1.76993h-4.48082v10.55232zM227.13212,161.04243c-0.98578,0 -1.83714,-0.1867 -2.55407,-0.5601c-0.71693,-0.3734 -1.27703,-0.91109 -1.68031,-1.61309c-0.38834,-0.71693 -0.58251,-1.56082 -0.58251,-2.53167v-3.27099c0,-0.98578 0.19417,-1.82967 0.58251,-2.53167c0.40328,-0.702 0.96338,-1.2397 1.68031,-1.6131c0.71693,-0.3734 1.56829,-0.5601 2.55407,-0.5601c0.98578,0 1.83714,0.1867 2.55407,0.5601c0.71693,0.3734 1.26956,0.9111 1.6579,1.6131c0.40328,0.702 0.60491,1.53841 0.60491,2.50926v3.2934c0,0.97084 -0.20163,1.81474 -0.60491,2.53167c-0.38834,0.702 -0.94097,1.23969 -1.6579,1.61309c-0.71693,0.3734 -1.56829,0.5601 -2.55407,0.5601zM227.13212,159.25009c0.88123,0 1.56829,-0.24645 2.06118,-0.73934c0.49289,-0.49289 0.73933,-1.21729 0.73933,-2.17319v-3.27099c0,-0.95591 -0.24644,-1.68031 -0.73933,-2.1732c-0.49289,-0.49289 -1.17995,-0.73934 -2.06118,-0.73934c-0.86629,0 -1.55335,0.24645 -2.06117,0.73934c-0.49289,0.49289 -0.73934,1.21729 -0.73934,2.1732v3.27099c0,0.95591 0.24645,1.68031 0.73934,2.17319c0.50782,0.49289 1.19488,0.73934 2.06117,0.73934zM235.90612,164.89593v-16.35499h2.01637v2.35243h0.40328l-0.40328,0.47048c0,-0.94097 0.30619,-1.68031 0.91857,-2.21801c0.62732,-0.55264 1.4488,-0.82895 2.46445,-0.82895c1.2397,0 2.22547,0.41074 2.95734,1.23222c0.7468,0.80654 1.1202,1.91929 1.1202,3.33821v3.60706c0,0.94097 -0.17177,1.75499 -0.5153,2.44205c-0.3286,0.68706 -0.79907,1.21729 -1.41145,1.59069c-0.59744,0.3734 -1.31437,0.5601 -2.15079,0.5601c-1.00072,0 -1.81473,-0.27632 -2.44205,-0.82895c-0.62732,-0.55264 -0.94098,-1.29197 -0.94098,-2.21801l0.40328,0.47048h-0.44808l0.0448,2.80051v3.58465zM240.63338,159.33972c0.85136,0 1.51601,-0.25392 1.99397,-0.76174c0.49289,-0.50782 0.73934,-1.23969 0.73934,-2.1956v-3.36061c0,-0.95591 -0.24645,-1.68777 -0.73934,-2.1956c-0.47796,-0.50782 -1.14261,-0.76174 -1.99397,-0.76174c-0.82148,0 -1.47867,0.26138 -1.97156,0.78414c-0.49289,0.52276 -0.73934,1.24716 -0.73934,2.17319v3.36061c0,0.92604 0.24645,1.65044 0.73934,2.1732c0.49289,0.52276 1.15007,0.78414 1.97156,0.78414zM249.38453,160.86318v-12.32225h1.92675v6.72123c0,0.43314 -0.01494,0.8887 -0.0448,1.36665c-0.01494,0.47796 -0.04481,0.9335 -0.08962,1.36665c-0.02987,0.41821 -0.06721,0.77667 -0.11202,1.07539l4.97371,-10.52992h2.57647v12.32225h-1.92675v-6.72123c0,-0.43314 0.00747,-0.88869 0.0224,-1.36665c0.02987,-0.47796 0.06721,-0.9335 0.11202,-1.36665c0.04481,-0.44808 0.08215,-0.81402 0.11202,-1.0978l-4.97371,10.55232zM266.85083,161.02002c-1.29944,0 -2.36737,-0.27632 -3.20379,-0.82895c-0.82148,-0.55264 -1.31437,-1.29944 -1.47867,-2.24041h2.12839c0.10455,0.3734 0.38087,0.6796 0.82895,0.91857c0.46302,0.23898 1.03806,0.35846 1.72512,0.35846h1.053c0.73187,0 1.29943,-0.17177 1.70271,-0.5153c0.41821,-0.34353 0.62732,-0.79161 0.62732,-1.34425c0,-0.59744 -0.20164,-1.06793 -0.60491,-1.41146c-0.38834,-0.34353 -0.96337,-0.51529 -1.72511,-0.51529h-2.7109v-1.74752h2.64368c0.68706,0 1.20982,-0.16429 1.56829,-0.49289c0.35847,-0.3286 0.5377,-0.76174 0.5377,-1.29944c0,-0.3734 -0.08215,-0.68705 -0.24645,-0.94097c-0.14936,-0.25392 -0.38087,-0.44809 -0.69452,-0.58251c-0.31365,-0.13442 -0.69453,-0.20163 -1.14261,-0.20163h-1.1202c-0.59744,0 -1.11273,0.13442 -1.54588,0.40327c-0.43315,0.26885 -0.69453,0.59744 -0.78414,0.98578h-2.12839c0.14936,-0.92604 0.63479,-1.68778 1.45627,-2.28522c0.82148,-0.59744 1.82219,-0.89616 3.00214,-0.89616h1.1202c0.88123,0 1.6355,0.14189 2.26281,0.42567c0.62732,0.26885 1.10527,0.65719 1.43386,1.16502c0.34353,0.50782 0.51529,1.11273 0.51529,1.81473c0,0.73186 -0.23897,1.33677 -0.71693,1.81473c-0.47796,0.46302 -1.15008,0.7244 -2.01637,0.78414v0.08962c1.06046,0.07468 1.82967,0.35847 2.30762,0.85136c0.47796,0.49289 0.71693,1.20235 0.71693,2.12839c0,1.09033 -0.40327,1.95663 -1.20982,2.59887c-0.80655,0.64225 -1.88941,0.96338 -3.24859,0.96338zM280.86692,161.04243c-0.98578,0 -1.83714,-0.1867 -2.55407,-0.5601c-0.71693,-0.3734 -1.27703,-0.91109 -1.68031,-1.61309c-0.38834,-0.71693 -0.58251,-1.56082 -0.58251,-2.53167v-3.27099c0,-0.98578 0.19416,-1.82967 0.58251,-2.53167c0.40328,-0.702 0.96338,-1.2397 1.68031,-1.6131c0.71693,-0.3734 1.56829,-0.5601 2.55407,-0.5601c0.98578,0 1.83713,0.1867 2.55406,0.5601c0.71693,0.3734 1.26956,0.9111 1.6579,1.6131c0.40328,0.702 0.60491,1.53841 0.60491,2.50926v3.2934c0,0.97084 -0.20164,1.81474 -0.60491,2.53167c-0.38834,0.702 -0.94097,1.23969 -1.6579,1.61309c-0.71693,0.3734 -1.56829,0.5601 -2.55406,0.5601zM280.86692,159.25009c0.88123,0 1.56829,-0.24645 2.06117,-0.73934c0.49289,-0.49289 0.73933,-1.21729 0.73933,-2.17319v-3.27099c0,-0.95591 -0.24644,-1.68031 -0.73933,-2.1732c-0.49289,-0.49289 -1.17994,-0.73934 -2.06117,-0.73934c-0.86629,0 -1.55335,0.24645 -2.06118,0.73934c-0.49289,0.49289 -0.73933,1.21729 -0.73933,2.1732v3.27099c0,0.95591 0.24644,1.68031 0.73933,2.17319c0.50783,0.49289 1.19489,0.73934 2.06118,0.73934zM289.68575,160.86318v-12.32225h5.33218c1.2845,0 2.27775,0.29126 2.97974,0.87376c0.702,0.56757 1.05299,1.36665 1.05299,2.39724c0,0.85136 -0.29125,1.53842 -0.87376,2.06118c-0.58251,0.50782 -1.35171,0.76174 -2.30762,0.76174v-0.17924c1.04552,0 1.88195,0.26138 2.50926,0.78414c0.64225,0.52276 0.96337,1.22476 0.96337,2.10599c0,1.10527 -0.3734,1.97156 -1.1202,2.59887c-0.7468,0.61238 -1.79233,0.91857 -3.13657,0.91857zM291.65729,159.09327h3.42782c0.71693,0 1.26956,-0.15683 1.6579,-0.47049c0.40328,-0.31366 0.60491,-0.75428 0.60491,-1.32184c0,-0.5825 -0.20164,-1.03059 -0.60491,-1.34425c-0.38834,-0.31366 -0.94097,-0.47048 -1.6579,-0.47048h-3.42782zM291.65729,153.73869h3.36061c0.62732,0 1.1202,-0.14936 1.47867,-0.44808c0.3734,-0.29872 0.5601,-0.71693 0.5601,-1.25463c0,-0.5377 -0.17923,-0.95591 -0.5377,-1.25463c-0.35847,-0.31366 -0.85882,-0.47048 -1.50107,-0.47048h-3.36061zM306.65918,161.08721c-1.29944,0 -2.32256,-0.32859 -3.06936,-0.98578c-0.7468,-0.67212 -1.1202,-1.57576 -1.1202,-2.7109c0,-1.15007 0.3734,-2.05371 1.1202,-2.7109c0.7468,-0.65718 1.75499,-0.98578 3.02455,-0.98578h3.8087v-1.23222c0,-0.76174 -0.23151,-1.34424 -0.69452,-1.74751c-0.44808,-0.41821 -1.09034,-0.62732 -1.92676,-0.62732c-0.73187,0 -1.34425,0.15683 -1.83713,0.47048c-0.49289,0.29872 -0.77668,0.70946 -0.85136,1.23222h-2.01637c0.13443,-1.06046 0.63478,-1.90435 1.50107,-2.53167c0.86629,-0.62732 1.94916,-0.94097 3.24859,-0.94097c1.41893,0 2.53913,0.36594 3.36061,1.0978c0.82148,0.73186 1.23223,1.72512 1.23223,2.97975v8.46874h-1.97156v-2.35243h-0.33606l0.33606,-0.33606c0,0.89616 -0.351,1.60563 -1.053,2.12839c-0.68706,0.52276 -1.60562,0.78414 -2.7557,0.78414zM307.15207,159.49654c0.95591,0 1.74005,-0.23897 2.35243,-0.71693c0.61238,-0.47796 0.91857,-1.09033 0.91857,-1.83714v-1.74752h-3.76389c-0.67212,0 -1.20235,0.18671 -1.59069,0.56011c-0.38834,0.3734 -0.58251,0.88123 -0.58251,1.52347c0,0.68706 0.23151,1.23222 0.69453,1.6355c0.47796,0.38834 1.13514,0.5825 1.97156,0.5825zM320.15997,160.86318v-10.55232h-4.48082v-1.76993h10.978v1.76993h-4.48082v10.55232zM330.07612,160.86318v-12.32225h2.01637v4.52563h3.62946c1.38905,0 2.47939,0.35099 3.271,1.05299c0.80655,0.68706 1.20982,1.6355 1.20982,2.84532c0,1.19488 -0.40327,2.14333 -1.20982,2.84532c-0.80655,0.702 -1.89688,1.05299 -3.271,1.05299zM332.0925,159.02606h3.62946c0.77668,0 1.36665,-0.17177 1.76992,-0.5153c0.41821,-0.35846 0.62732,-0.87376 0.62732,-1.54588c0,-0.67212 -0.20911,-1.17995 -0.62732,-1.52348c-0.40328,-0.35846 -0.99325,-0.5377 -1.76992,-0.5377h-3.62946zM348.08062,161.08721c-0.98578,0 -1.85207,-0.1867 -2.59887,-0.5601c-0.73187,-0.3734 -1.29944,-0.9111 -1.70271,-1.61309c-0.40328,-0.71693 -0.60491,-1.56082 -0.60491,-2.53166v-3.36061c0,-0.98578 0.20164,-1.82967 0.60491,-2.53167c0.40328,-0.702 0.97084,-1.23969 1.70271,-1.61309c0.7468,-0.3734 1.61309,-0.5601 2.59887,-0.5601c1.41893,0 2.56153,0.38087 3.42782,1.14261c0.86629,0.76174 1.32184,1.79979 1.36665,3.11417h-2.01637c-0.04481,-0.79161 -0.31365,-1.39652 -0.80654,-1.81473c-0.47796,-0.43314 -1.13514,-0.64972 -1.97156,-0.64972c-0.88123,0 -1.58322,0.25391 -2.10598,0.76174c-0.52276,0.49289 -0.78415,1.20235 -0.78415,2.12839v3.38302c0,0.92604 0.26139,1.64297 0.78415,2.15079c0.52276,0.50782 1.22475,0.76174 2.10598,0.76174c0.83642,0 1.49361,-0.21658 1.97156,-0.64972c0.49289,-0.43314 0.76173,-1.03805 0.80654,-1.81473h2.01637c-0.04481,1.31438 -0.50036,2.35243 -1.36665,3.11417c-0.86629,0.76174 -2.0089,1.14261 -3.42782,1.14261zM356.09241,160.86318l3.15898,-4.74966c-0.94097,-0.22404 -1.67284,-0.65719 -2.1956,-1.29944c-0.50783,-0.64225 -0.76174,-1.44133 -0.76174,-2.39723c0,-1.20982 0.3958,-2.15826 1.18741,-2.84532c0.80655,-0.68706 1.90435,-1.03059 3.2934,-1.03059h5.30977v12.32225h-2.01637v-4.59284h-2.71089l-2.91253,4.59284zM360.77487,154.47803h3.29341v-4.14476h-3.29341c-0.7468,0 -1.33677,0.1867 -1.76992,0.5601c-0.43315,0.35846 -0.64972,0.8663 -0.64972,1.52348c0,0.64225 0.21657,1.15007 0.64972,1.52347c0.43315,0.35846 1.02312,0.5377 1.76992,0.5377zM374.18604,156.04629l-0.47048,-8.84961v-2.68849h2.37483v2.68849l-0.47049,8.84962zM374.56692,160.9752c-0.38834,0 -0.70946,-0.12695 -0.96337,-0.38086c-0.25392,-0.25392 -0.38087,-0.57504 -0.38087,-0.96338c0,-0.38834 0.12696,-0.70946 0.38087,-0.96337c0.25392,-0.25392 0.57503,-0.38087 0.96337,-0.38087h0.67212c0.43315,0 0.76174,0.12696 0.98578,0.38087c0.23897,0.23898 0.35847,0.55263 0.35847,0.94097c0,0.38834 -0.12695,0.71693 -0.38087,0.98578c-0.25392,0.25392 -0.57504,0.38087 -0.96338,0.38087z" fill="#ffffff" fill-rule="nonzero" stroke-width="1"></path>
      <path d="M214.32,133.18v-18.8h18.8v18.8z" fill="#ffffff" fill-rule="nonzero" stroke-width="0"></path>
      <path d="M237.27745,123.52304c0,6.41737 0,9.62629 -1.99397,11.61979c-1.99349,1.99397 -5.20242,1.99396 -11.61979,1.99396c-6.41737,0 -9.62629,0 -11.61979,-1.99396c-1.99397,-1.99349 -1.99397,-5.20242 -1.99397,-11.61979c0,-6.41737 0,-9.6263 1.99397,-11.61979c1.99349,-1.99397 5.20242,-1.99396 11.61979,-1.99396c6.41737,0 9.62629,0 11.61979,1.99396c1.99397,1.99349 1.99397,5.20242 1.99397,11.61979zM231.08923,116.58477c0.44855,0.34166 0.53537,0.98252 0.19324,1.43107l-9.33504,12.25223c-0.18577,0.24364 -0.47142,0.39161 -0.77808,0.40141c-0.30666,0.01027 -0.60118,-0.11762 -0.80328,-0.34866l-4.27824,-4.9009c-0.37107,-0.42475 -0.3272,-1.06979 0.09755,-1.44087c0.42475,-0.3706 1.06979,-0.32719 1.44086,0.09802l3.45537,3.95806l8.57657,-11.25713c0.34213,-0.44855 0.98251,-0.5349 1.43106,-0.19324z" fill="#66ff37" fill-rule="evenodd" stroke-width="1"></path>
    </g>
  </g>
</svg>
