<?xml version="1.0" encoding="UTF-8"?>
<svg xmlns="http://www.w3.org/2000/svg" xmlns:xlink="http://www.w3.org/1999/xlink" version="1.1" width="172.31816" height="167.41767" viewBox="0,0,172.31816,167.41767">
  <defs>
    <linearGradient x1="192.96269" y1="235.11737" x2="192.96269" y2="246.9591" gradientUnits="userSpaceOnUse" id="color-1">
      <stop offset="0" stop-color="#d98534"></stop>
      <stop offset="1" stop-color="#c4772f"></stop>
    </linearGradient>
  </defs>
  <g transform="translate(-153.84092,-96.29116)">
    <g stroke-miterlimit="10">
      <g stroke="none" stroke-width="1">
        <path d="M194,176.60933c-22.17925,0 -40.15908,-17.97985 -40.15908,-40.15908v0c0,-22.17925 17.97982,-40.15908 40.15908,-40.15908v0c22.17925,0 40.15908,17.97982 40.15908,40.15908v0c0,22.17925 -17.97982,40.15908 -40.15908,40.15908z" fill="#dc6d00"></path>
        <path d="M175.17539,157.78476c-4.15861,0 -7.52981,-3.3712 -7.52981,-7.52981v-16.31463c0,-4.15861 3.3712,-7.52984 7.52981,-7.52984h37.02166c4.15861,0 7.52981,3.37123 7.52981,7.52984v16.31463c0,4.15861 -3.3712,7.52981 -7.52981,7.52981z" fill="#ffffff"></path>
        <path d="M198.3924,141.78383c0,-3.29224 2.66889,-5.96113 5.96113,-5.96113c3.29224,0 5.96111,2.66889 5.96111,5.96113c0,3.29224 -2.66889,5.96111 -5.96111,5.96111c-3.29224,0 -5.96113,-2.66889 -5.96113,-5.96111z" fill="#dc6d00"></path>
        <path d="M177.05786,141.78383c0,-3.29224 2.66889,-5.96113 5.96113,-5.96113c3.29224,0 5.96111,2.66889 5.96111,5.96113c0,3.29224 -2.66889,5.96111 -5.96111,5.96111c-3.29224,0 -5.96113,-2.66889 -5.96113,-5.96111z" fill="#dc6d00"></path>
        <path d="M219.72691,165.01839c0,1.17026 -1.45953,1.70363 -2.21441,0.80945l-12.98582,-15.39098c-0.68834,-0.81637 -0.10856,-2.06443 0.95879,-2.06443h12.98644c0.69336,0 1.25498,0.56159 1.25498,1.25498z" fill="#ffffff"></path>
        <path d="M205.2947,151.5099l13.80468,16.31463h-13.80468z" fill="#dc6d00"></path>
        <path d="M190.23509,126.41044v-17.56958h7.52984v17.56958z" fill="#ffffff"></path>
        <path d="M186.47014,111.3508c0,-4.15861 3.37123,-7.52981 7.52984,-7.52981c4.15861,0 7.52981,3.37123 7.52981,7.52984c0,4.15861 -3.3712,7.52984 -7.52981,7.52984c-4.15861,0 -7.52981,-3.37123 -7.52981,-7.52981z" fill="#ffffff"></path>
      </g>
      <g>
        <path d="M286,176.60933c-22.17926,0 -40.15908,-17.97985 -40.15908,-40.15908v0c0,-22.17926 17.97982,-40.15908 40.15908,-40.15908v0c22.17926,0 40.15908,17.97982 40.15908,40.15908v0c0,22.17926 -17.97982,40.15908 -40.15908,40.15908z" fill="#ffffff" stroke="none" stroke-width="1"></path>
        <g stroke="#000000">
          <path d="M314.91279,136.44893c0,14.60751 5.33544,26.65684 -28.91264,26.44924c-34.25068,-0.20763 -28.91261,-11.8417 -28.91261,-26.44924c0,-14.60751 12.94461,-26.44924 28.91261,-26.44924c15.968,0 28.91264,11.8417 28.91264,26.44924z" fill="#a2f9ff" stroke-width="5"></path>
          <path d="M293.39038,136.44893c0,3.80196 -3.3087,6.88402 -7.39022,6.88402c-4.08152,0 -7.39022,-3.0821 -7.39022,-6.88402c0,-3.80196 3.30873,-6.88404 7.39022,-6.88404c4.08152,0 7.39022,3.0821 7.39022,6.88404z" fill="#66ebff" stroke-width="0"></path>
          <path d="M293.39038,136.44893c0,3.80196 -3.3087,6.88402 -7.39022,6.88402c-4.08152,0 -7.39022,-3.0821 -7.39022,-6.88402c0,-3.80196 3.30873,-6.88404 7.39022,-6.88404c4.08152,0 7.39022,3.0821 7.39022,6.88404z" fill="#6ba3a7" stroke-width="0"></path>
        </g>
      </g>
      <g>
        <path d="M194,261.60933c-22.17925,0 -40.15908,-17.97985 -40.15908,-40.15908v0c0,-22.17925 17.97982,-40.15908 40.15908,-40.15908v0c22.17925,0 40.15908,17.97982 40.15908,40.15908v0c0,22.17925 -17.97982,40.15908 -40.15908,40.15908z" fill="#19274a" stroke="none" stroke-width="1"></path>
        <path d="M167.4351,217.46736c-3.28915,-8.95753 -2.16711,-30.30321 25.7653,-30.23697c3.34371,0.00793 6.31929,0.33001 8.96197,0.90225c0.95553,0.20691 7.7335,-1.6613 6.90437,-1.28417c-0.52428,0.23847 -1.64329,2.87745 -0.51804,3.40664c0.28783,0.13536 2.68333,-1.38955 3.3218,-1.39498c0.47982,-0.00408 -0.75805,1.43032 -0.60583,1.85432c0.38525,1.07308 2.5282,2.86689 3.18889,3.47747c7.66892,7.08726 7.86706,17.60701 5.98156,21.77544c-1.35962,3.00583 0.99552,12.64689 2.89283,16.30399c6.20684,11.96381 -16.03617,22.19601 -30.22616,22.19601c-13.36819,0 -32.68124,-7.81795 -29.44745,-19.99785c1.40123,-5.27766 5.20119,-13.13386 3.78078,-17.00215z" fill="#53cbf0" stroke="none" stroke-width="0"></path>
        <path d="M219.8578,220.80728c0,1.27201 2.0438,3.10982 -0.01338,4.04153c-1.2083,0.54724 -6.29205,2.34522 -9.05302,2.69917c-3.76363,0.48249 -13.17232,-1.57403 -17.85817,-1.57403c-3.47864,0 -12.11294,2.18078 -15.1298,1.90477c-3.95032,-0.36141 -8.42949,-2.10115 -9.78175,-2.82055c-1.7641,-0.9385 0.00057,-2.95938 0.00057,-4.25088c0,-2.0459 -0.5745,-1.49756 7.05163,-2.44499c1.79532,-0.22304 9.63286,-3.17031 17.62154,-3.3542c8.4595,-0.19473 17.08848,2.38566 18.8917,2.59103c8.07044,0.91914 8.27068,1.09056 8.27068,3.20816z" fill="#00629e" stroke="none" stroke-width="0"></path>
        <path d="M203.12936,243.78403c0,3.4978 -4.55177,3.16667 -10.16667,3.16667c-5.61489,0 -10.16667,0.33114 -10.16667,-3.16667c0,-3.4978 8.71844,-8.66667 10.16667,-8.66667c1.44823,0 10.16667,5.16886 10.16667,8.66667z" fill="url(#color-1)" stroke="none" stroke-width="0"></path>
        <path d="M199.86843,242.2007c0,0.73864 -0.23746,2.35787 -2.46911,3.16838c-0.96653,0.35103 -7.65663,0.50796 -8.65996,0.14452c-2.24872,-0.81457 -3.03759,-2.58094 -3.03759,-3.3129c0,-0.67387 1.70825,0.57558 3.68118,0.72474c0.54631,0.0413 1.92487,1.73294 3.31864,1.73847c1.47958,0.00587 2.97631,-1.67685 3.51273,-1.71855c2.06306,-0.16038 3.65413,-1.44804 3.65413,-0.74466z" fill="#853320" stroke="none" stroke-width="0"></path>
        <path d="M176.53785,245.25068c-1.58623,2.26038 -5.55965,2.2068 -8.87488,-0.11967c-3.31523,-2.32647 -4.71685,-6.04486 -3.13062,-8.30524c1.58623,-2.26038 5.55965,-2.2068 8.87488,0.11967c3.31523,2.32647 4.71685,6.04486 3.13062,8.30524z" fill="#ff5ebc" stroke="none" stroke-width="0"></path>
        <path d="M213.66297,236.94545c3.31522,-2.32647 7.28865,-2.38005 8.87488,-0.11967c1.58623,2.26038 0.1846,5.97876 -3.13062,8.30524c-3.31522,2.32647 -7.28865,2.38005 -8.87488,0.11968c-1.58623,-2.26038 -0.1846,-5.97877 3.13062,-8.30524z" fill="#ff5ebc" stroke="none" stroke-width="0"></path>
        <g stroke-width="0">
          <path d="M180.80177,235.25422c-3.95804,0 -7.16667,-1.44694 -7.16667,-12.87556c0,-11.42861 3.87529,-14.65778 7.83333,-14.65778c3.95804,0 6.5,3.22917 6.5,14.65778c0,11.42861 -3.20863,12.87556 -7.16667,12.87556z" fill="#ffffff" stroke="#000000"></path>
          <g>
            <path d="M185.18751,225.23163c0,4.62593 -1.57923,5.93299 -4.03823,5.93299c-2.459,0 -4.86658,-1.30706 -4.86658,-5.93299c0,-4.62593 1.99341,-7.15449 4.45241,-7.15449c2.459,0 4.4524,2.52856 4.4524,7.15449z" fill="#4e4e4e" stroke="#000000"></path>
            <path d="M183.98878,225.14941c0,4.00321 -1.15405,5.13432 -2.95101,5.13432c-1.79696,0 -3.55635,-1.13111 -3.55635,-5.13432c0,-4.00321 1.45672,-6.19138 3.25368,-6.19138c1.79696,0 3.25368,2.18818 3.25368,6.19138z" fill="#000000" stroke="#000000"></path>
            <path d="M177.54879,225.06165c0.40358,0.01039 0.70058,0.76462 0.66337,1.68461c-0.03721,0.92 -0.39453,1.65738 -0.79811,1.64699c-0.40358,-0.01039 -0.70058,-0.76462 -0.66337,-1.68461c0.03721,-0.92 0.39453,-1.65738 0.79811,-1.64699z" fill="#ffffff" stroke="none"></path>
          </g>
        </g>
        <g stroke-width="0">
          <path d="M206.20177,235.25421c-3.95804,0 -7.16667,-1.44695 -7.16667,-12.87556c0,-11.42861 3.8753,-14.65777 7.83334,-14.65777c3.95804,0 6.5,3.22916 6.5,14.65777c0,11.42861 -3.20863,12.87556 -7.16667,12.87556z" fill="#ffffff" stroke="#000000"></path>
          <g>
            <path d="M210.58751,225.23163c0,4.62593 -1.57923,5.933 -4.03823,5.933c-2.459,0 -4.86658,-1.30706 -4.86658,-5.933c0,-4.62593 1.99341,-7.15448 4.45241,-7.15448c2.459,0 4.4524,2.52855 4.4524,7.15448z" fill="#4e4e4e" stroke="#000000"></path>
            <path d="M209.38879,225.14941c0,4.00321 -1.15405,5.13432 -2.95101,5.13432c-1.79696,0 -3.55635,-1.13111 -3.55635,-5.13432c0,-4.00321 1.45672,-6.19138 3.25368,-6.19138c1.79696,0 3.25368,2.18818 3.25368,6.19138z" fill="#000000" stroke="#000000"></path>
            <path d="M202.94879,225.06165c0.40357,0.01039 0.70057,0.76461 0.66337,1.68461c-0.0372,0.92 -0.39454,1.65738 -0.79811,1.64699c-0.40357,-0.01039 -0.70057,-0.76462 -0.66337,-1.68462c0.0372,-0.92 0.39454,-1.65738 0.79811,-1.64699z" fill="#ffffff" stroke="none"></path>
          </g>
        </g>
      </g>
      <g stroke="none">
        <path d="M286,263.70884c-22.17925,0 -40.15908,-17.97985 -40.15908,-40.15908v0c0,-22.17925 17.97982,-40.15908 40.15908,-40.15908v0c22.17925,0 40.15908,17.97982 40.15908,40.15908v0c0,22.17925 -17.97982,40.15908 -40.15908,40.15908z" fill="#634f1e" stroke-width="1"></path>
        <path d="M253.76693,223.54976c0,-17.80184 14.43124,-32.23307 32.23307,-32.23307c17.80184,0 32.23307,14.43123 32.23307,32.23307c0,17.80184 -14.43123,32.23307 -32.23307,32.23307c-17.80184,0 -32.23307,-14.43124 -32.23307,-32.23307z" fill="#ffcc4d" stroke-width="1"></path>
        <path d="M278.15845,215.51721c0,2.96402 -1.53222,5.36682 -3.42231,5.36682c-1.8901,0 -3.42231,-2.40281 -3.42231,-5.36682c0,-2.96402 1.53222,-5.36682 3.42231,-5.36682c1.8901,0 3.42231,2.40281 3.42231,5.36682z" fill="#65471b" stroke-width="0"></path>
        <path d="M308.41795,239.48698c-0.3236,1.24311 -1.43829,2.1165 -2.72272,2.13331c-0.26048,0 -0.52097,-0.03802 -0.78145,-0.11218l-5.47206,-1.62185c0.64109,0.8899 0.74883,2.05757 0.2814,3.04975c-0.49815,1.03053 -1.49826,1.62564 -2.53829,1.62564c-0.4259,0 -0.8575,-0.10076 -1.26439,-0.30991l-4.46816,-2.31774c-0.10268,0.95827 -0.60652,2.03824 -1.50015,2.50027c-0.40688,0.20915 -0.83849,0.30992 -1.26439,0.30992c-1.04003,0 -2.04204,-0.77765 -2.53829,-1.80818l-0.29851,-0.61984l-0.30041,0.61984c-0.49625,1.03053 -1.49826,1.80818 -2.53829,1.80818c-0.424,0 -0.85751,-0.10077 -1.26439,-0.30992c-0.89363,-0.46203 -1.39558,-1.54009 -1.49825,-2.50027l-4.46816,2.31774c-0.40688,0.20915 -0.84039,0.30991 -1.26439,0.30991c-1.04003,0 -2.04204,-0.59512 -2.53829,-1.62564c-0.46897,-0.99215 -0.3604,-2.16096 0.2833,-3.04975l-5.47206,1.62185c-0.26048,0.07415 -0.52477,0.11218 -0.78146,0.11218c-1.28443,-0.0168 -2.39912,-0.89019 -2.72272,-2.13331c-0.43161,-1.5591 0.44111,-3.18664 1.94507,-3.63536l9.33748,-2.76835c-0.00951,-0.09697 22.57272,-0.09697 22.56512,0l9.33558,2.76835c1.50586,0.44872 2.37857,2.07626 1.94887,3.63536z" fill="#292f33" stroke-width="1"></path>
        <path d="M300.90845,215.51721c0,2.96401 -1.53222,5.36683 -3.42231,5.36683c-1.8901,0 -3.42232,-2.40281 -3.42232,-5.36683c0,-2.96401 1.53222,-5.36682 3.42232,-5.36682c1.89009,0 3.42231,2.40281 3.42231,5.36682z" fill="#65471b" stroke-width="0"></path>
        <g stroke-width="1">
          <path d="M289.70502,235.66939c-0.88104,0.58199 -2.09156,0.7736 -3.70501,0.7736c-1.90354,0 -3.24301,-0.19878 -4.14732,-0.98311c-2.83114,-1.26246 -6.59704,-2.0074 -6.59704,-3.67278c0,-1.77998 2.24557,-4.65589 5.01404,-4.65589l0.06267,0.00358c0.43157,-6.67045 3.04782,-16.47826 5.66765,-16.47826c2.66639,0 5.33099,9.84899 5.68914,16.47647l0.04118,-0.00179c2.76846,0 5.01404,2.87591 5.01404,4.65589c0,1.75491 -4.17597,2.48732 -7.03934,3.88229z" fill="#ffac33"></path>
          <path d="M291.73032,232.14525c-0.39038,0.06984 0.09849,-0.71629 0.09849,-2.66639c0,-0.91506 -0.09849,-1.63135 -0.09849,-2.34764c0.71629,0 1.50779,0 1.50779,2.09336c0,1.18725 -1.11741,2.85084 -1.50779,2.92068zM280.19268,232.14525c0.39038,0.06984 -0.09849,-0.71629 -0.09849,-2.66639c0,-0.91506 0.09849,-1.63135 0.09849,-2.34764c-0.71629,0 -1.50779,0 -1.50779,2.09336c0.00179,1.18725 1.1192,2.85084 1.50779,2.92068z" fill="#c1694f"></path>
          <path d="M281.62167,235.3596l-0.00358,0.00358c-1.59733,-0.68585 -3.42029,-1.23202 -4.7114,-1.86773c0.49782,-0.50857 1.53823,-0.68764 2.65207,-0.36351c1.38065,0.40112 2.30287,1.40035 2.06292,2.22766zM295.09689,233.49904c-1.29111,0.63571 -3.11408,1.18367 -4.70961,1.86952l-0.00716,-0.00896c-0.24175,-0.82732 0.68048,-1.82475 2.06113,-2.22766c1.11562,-0.32591 2.15783,-0.14505 2.65565,0.3671z" fill="#662113"></path>
        </g>
        <g fill="#292f33" stroke-width="1">
          <path d="M317.72941,210.11109c-0.46773,0.45252 -2.80829,0.97919 -3.27411,2.34245c-0.46773,1.36516 -0.47153,9.42875 -4.20766,12.21421c-3.49466,2.60674 -11.65142,3.39199 -16.82117,0.45252c-4.51188,-2.56491 -4.35217,-7.96662 -5.17925,-11.18178c-0.29471,-1.14651 -1.12559,-1.72452 -2.39569,-1.72452c-1.2701,0 -2.10098,0.578 -2.39569,1.72452c-0.82708,3.21707 -0.66928,8.61687 -5.17926,11.18178c-5.16975,2.94138 -13.3265,2.15612 -16.82306,-0.45252c-3.73423,-2.78736 -3.73804,-10.84905 -4.20767,-12.21421c-0.46583,-1.36326 -2.80638,-1.88803 -3.27411,-2.34245c-0.47153,-0.45632 -0.47153,-2.2759 -0.0019,-2.73033c0.32513,-0.31562 2.409,0.52097 4.51759,-0.55329c4.35027,-2.21696 15.34382,-4.35597 22.49856,0.7149c0.76624,0.54378 3.9681,0.63505 4.86363,0.59512c0.89553,0.03802 4.09739,-0.05324 4.86363,-0.59512c7.15665,-5.07088 18.1502,-2.93187 22.50047,-0.7149c2.10859,1.07426 4.19246,0.23766 4.51758,0.55329c0.47153,0.45442 0.46963,2.274 -0.0019,2.73033zM277.75943,209.64527c-2.15612,-1.32713 -6.58244,-1.4089 -7.90007,-1.4089c-2.87673,0 -5.68881,0.53618 -7.70423,1.22256c-1.2701,0.43351 -0.88223,3.25319 -0.73772,4.40731c0.22626,1.81198 0.82709,6.65659 2.4052,7.83352c1.26249,0.94117 4.49097,1.60093 6.82011,1.60093h0.0019c2.10288,0 4.1126,-0.53428 5.65459,-1.4127c2.51547,-1.43171 2.89004,-5.46636 3.03644,-7.56734c0.08176,-1.15601 0.33464,-3.50227 -1.57621,-4.67539zM309.54604,209.44944c-2.01732,-0.68638 -4.8275,-1.21306 -7.70423,-1.21306c-1.31763,0 -5.74205,0.09127 -7.90007,1.4184c-1.91085,1.17313 -1.65607,3.5365 -1.57621,4.69251c0.1464,2.10098 0.52097,6.11091 3.03644,7.54072c1.54389,0.87842 3.55171,1.4127 5.65649,1.4127h0.00191c2.32914,0 5.55762,-0.65976 6.82011,-1.60093c1.57811,-1.17693 2.17893,-6.04627 2.40519,-7.86014c0.1445,-1.15411 0.53048,-3.95669 -0.73962,-4.3902z"></path>
          <path d="M278.80897,208.45124c0,0 -0.11408,-6.11091 -2.49076,-8.03507c-2.50217,-2.02493 -4.52709,1.1313 -4.52709,1.1313c0,0 -0.47914,-4.07457 -3.19425,-3.73423c-2.71511,0.34034 -2.60294,2.94328 -2.60294,2.94328c0,0 -1.5591,-3.50797 -4.52709,-2.26259c-2.88623,1.21116 -1.44502,3.84831 -1.44502,3.84831c0,0 -2.17703,-0.77955 -3.16763,0.79096c-1.35946,2.15042 1.89754,3.84831 1.89754,3.84831c0,0 6.78969,-1.58382 10.18548,-1.47164c3.39579,0.11218 9.87176,2.94138 9.87176,2.94138zM292.73819,208.45124c0,0 0.11408,-6.11091 2.49076,-8.03507c2.50217,-2.02493 4.52709,1.1313 4.52709,1.1313c0,0 0.47914,-4.07457 3.19425,-3.73423c2.71701,0.34034 2.60294,2.94328 2.60294,2.94328c0,0 1.5591,-3.50797 4.52709,-2.26259c2.88623,1.21116 1.44502,3.84831 1.44502,3.84831c0,0 2.17703,-0.77765 3.16953,0.79286c1.35756,2.15042 -1.89753,3.84832 -1.89753,3.84832c0,0 -6.78969,-1.58382 -10.18549,-1.47164c-3.3977,0.11028 -9.87366,2.93947 -9.87366,2.93947z"></path>
        </g>
      </g>
    </g>
  </g>
</svg>
