<?xml version="1.0" encoding="UTF-8"?>
<svg xmlns="http://www.w3.org/2000/svg" xmlns:xlink="http://www.w3.org/1999/xlink" version="1.1" width="33" height="65.5" viewBox="0,0,33,65.5">
  <g transform="translate(-223.5,-147.25)">
    <g fill="none" stroke-width="4.5" stroke-linecap="round" stroke-miterlimit="10">
      <path d="M249.75,173.5c0,0 -0.22368,17.35705 -0.31229,29.50502c-0.02189,3.00053 -3.60817,7.49498 -7.68771,7.49498c-3.95449,0 -8.38527,0 -10.5,0c-2.36491,0 -5.5,-2.74483 -5.5,-7c0,-12.61386 0,-38.49972 0,-45.5c0,-3.41843 3.65335,-7 6,-7c1.70974,0 4.8492,0 7.5,0c2.51308,0 4.58696,4.71733 4.58696,8c0,3.42041 0,11.07354 0,16c0,2.64214 -4.59459,4.5 -6.58696,4.5c-1.65471,0 -4.54348,-3.04416 -4.54348,-4.5c0,-1.37258 0,-4 0,-4" stroke="#000000"></path>
      <path d="M252.75,172c0,0 -0.22369,17.35705 -0.3123,29.50501c-0.02188,3.00053 -3.60816,7.49499 -7.6877,7.49499c-3.95449,0 -8.38528,0 -10.5,0c-2.3649,0 -5.5,-2.74483 -5.5,-7c0,-12.61386 0,-38.49972 0,-45.5c0,-3.41843 3.65335,-7 6,-7c1.70974,0 4.84921,0 7.5,0c2.51308,0 4.58695,4.71733 4.58695,8c0,3.42041 0,11.07353 0,16c0,2.64214 -4.59458,4.5 -6.58695,4.5c-1.65471,0 -4.54348,-3.04415 -4.54348,-4.5c0,-1.37258 0,-4 0,-4" stroke="#909090"></path>
      <path d="M254.25,173c0,0 -0.22369,17.35705 -0.3123,29.50501c-0.02188,3.00053 -3.60816,7.49499 -7.6877,7.49499c-3.95449,0 -8.38528,0 -10.5,0c-2.3649,0 -5.5,-2.74483 -5.5,-7c0,-12.61386 0,-38.49972 0,-45.5c0,-3.41843 3.65335,-7 6,-7c1.70974,0 4.84921,0 7.5,0c2.51308,0 4.58695,4.71733 4.58695,8c0,3.42041 0,11.07353 0,16c0,2.64214 -4.59458,4.5 -6.58695,4.5c-1.65471,0 -4.54348,-3.04415 -4.54348,-4.5c0,-1.37258 0,-4 0,-4" stroke="#d2d2d2"></path>
    </g>
  </g>
</svg>
