<?xml version="1.0" encoding="UTF-8"?>
<svg xmlns="http://www.w3.org/2000/svg" xmlns:xlink="http://www.w3.org/1999/xlink" version="1.1" width="321.19994" height="336.77921" viewBox="0,0,321.19994,336.77921">
  <g transform="translate(-79.40003,-11.61041)">
    <g stroke="none" stroke-miterlimit="10">
      <path d="M88.31564,328.6104c0,0 16,-20.5985 16,-32.10001c0,-24.14805 -6.06414,4.50221 -10.04872,-44.1924c-0.59522,-7.27412 3.74438,-65.15844 3.01263,-73.75344c-0.23731,-2.78745 -17.45194,-68.53772 -17.64152,-71.24481c-1.94572,-27.78276 8.67761,-71.70934 8.67761,-71.70934c0,0 -12.60264,-21.46011 8.4239,-20.44654c5.86827,0.28288 21.73281,18.2132 32.25081,17.57214c19.88693,-1.21209 85.77117,-14.42446 107.91596,-15.43106c14.92427,-0.67839 40.54072,1.62046 54.14997,0.91386c29.89262,-1.55204 65.36001,-6.60839 73.85938,-6.60839c6.34357,0 25.39999,15 25.39999,15c0,0 -4.30426,16.55744 -1.677,49.84293c2.20947,27.99243 11.3705,71.03601 11.83896,94.14703c0.97157,47.9307 -4.16196,152.01005 -4.16196,152.01005c0,0 6.8751,16.10871 -32.52064,19.49727c-5.19656,0.44698 -28.0068,-7.08378 -34.50223,-6.59417c-5.41818,0.40841 -27.16192,3.80264 -33.24331,4.17608c-4.59181,0.28197 -30.28214,8.51628 -35.06363,8.69531c-8.42783,0.31554 -43.80911,-15.34526 -52.03061,-14.98105c-9.93324,0.44004 -39.34412,6.82986 -47.9634,7.15102c-2.72426,0.1015 -17.35563,-9.79234 -19.88468,-9.68134c-10.6975,0.46953 -30.35234,15.73688 -36.1915,15.73688c-17.79261,0 -16.6,-18 -16.6,-18z" fill="#d6d6d6" stroke-width="0"></path>
      <path d="M114.91564,303.51039l-11,-15c0,0 12.57555,13.59144 33.19615,18.10359c30.25914,6.62123 74.38191,5.22504 93.09351,7.37227c14.12883,1.62134 55.71035,9.52414 55.71035,9.52414l65,-5c0,0 -60.0161,13.57931 -88.76511,11.92299c-10.7767,-0.62088 -41.27907,-11.44 -57.09454,-13.84571c-8.9022,-1.35412 -54.71337,6.39113 -63.18379,5.2433c-39.11052,-5.29991 -26.95656,-18.32058 -26.95656,-18.32058z" fill="#9e9e9e" stroke-width="0"></path>
      <path d="M121.8722,32.25288c8.47042,-1.14784 54.2816,6.59742 63.18379,5.2433c15.81547,-2.4057 46.31783,-13.22483 57.09454,-13.84571c28.74901,-1.65632 88.76511,11.923 88.76511,11.923l-65,-5c0,0 -41.58152,7.9028 -55.71035,9.52414c-18.71159,2.14723 -62.83437,0.75104 -93.0935,7.37226c-20.6206,4.51215 -33.19615,18.10359 -33.19615,18.10359l11,-15c0,0 -12.15397,-13.02067 26.95656,-18.32058z" fill="#9e9e9e" stroke-width="0"></path>
      <path d="M106.88201,111.9361c-2.23608,-1.11802 -1.11806,-3.35409 -1.11806,-3.35409l0.95593,-1.86873c7.01675,-10.48501 14.86053,-20.85995 18.90843,-33.00383c0,0 0.79056,-2.37171 3.16227,-1.58115c2.37171,0.79056 1.58115,3.16227 1.58115,3.16227c-4.20079,12.60253 -12.253,23.3007 -19.49159,34.19618l-0.64405,1.33128c0,0 -1.11802,2.23608 -3.35409,1.11806z" fill="#696969" stroke-width="0.5"></path>
      <path d="M154.39057,99.32831c2.37171,0.79056 1.58115,3.16227 1.58115,3.16227l-1.70992,3.63754c-1.94715,0.05869 -4.05051,0.9425 -5.84144,0.17608c-1.46859,-0.62847 -2.25322,-2.38363 -2.81306,-3.87972c-0.24815,-0.66315 -0.25341,-1.37451 -0.20908,-2.09504c-0.75722,1.13116 -1.69219,2.21129 -3.01323,3.30395c-2.66843,2.2071 -7.49699,4.76959 -10.61928,1.36523c-1.08499,-1.18301 -1.19766,-3.0074 -1.44695,-4.59314c-0.94979,-6.04165 2.41194,-11.86195 2.38129,-17.90546c0,0 0,-2.5 2.5,-2.5c2.5,0 2.5,2.5 2.5,2.5c-0.01756,4.03587 -0.69267,7.12735 -1.67468,11.00632c-0.59511,2.3507 -1.55159,5.68217 -0.59105,8.09504c0.23989,0.60261 1.30386,-0.22587 1.8673,-0.54717c1.62549,-0.92693 2.74154,-1.87689 3.96507,-3.33918c1.96996,-2.35439 1.29428,-2.72546 2.92076,-5.97891c1.11881,-2.23795 1.81782,-3.61673 2.46867,-5.58895c0.05421,-0.30101 0.13406,-0.58761 0.26503,-0.84536c0.12974,-0.43504 0.25959,-0.90217 0.39258,-1.41321l0.37782,-0.26095l-0.17165,-0.11443l1.57853,-2.36773c0.44514,-0.68924 1.2201,-1.14549 2.10162,-1.14549c1.38071,0 2.5,1.11929 2.5,2.5c0,0.4199 -0.10352,0.81562 -0.28643,1.16303l-1.57754,3.15503l-0.13306,-0.06653c-0.54122,3.88309 -1.12627,7.69005 -1.20297,11.74847c-0.02301,1.21748 -0.67618,3.09453 0.83821,3.5719l-0.10994,-1.16245c0,0 0.79056,-2.37171 3.16227,-1.58115z" fill="#696969" stroke-width="0.5"></path>
      <path d="M171.56912,104.20931c-1.33143,0.86845 -2.79689,1.6456 -4.36907,1.59069c-1.37642,-0.04808 -2.85706,-0.43443 -3.91752,-1.31322c-5.20639,-4.31448 -0.84837,-8.98022 1.83739,-12.97353c0.87487,-1.30079 1.39346,-2.80867 2.10837,-4.20379c0.17254,-0.3367 0.92847,-0.43979 0.80701,-0.7981c-0.1226,-0.36168 -0.76409,-0.06936 -1.13367,-0.16556c-1.17318,-0.30536 -2.1621,-1.47354 -3.36977,-1.36791c-1.22151,0.10685 -1.59237,1.87503 -2.2517,2.90886c0,0 -1.38674,2.08013 -3.46687,0.6934c-2.08013,-1.38674 -0.6934,-3.46687 -0.6934,-3.46687c1.58002,-2.29775 2.51156,-4.47357 5.7483,-5.09114c2.38833,-0.45569 9.03617,2.7598 9.89647,4.86656c0.5141,1.25898 -0.45548,2.68453 -0.79296,4.00189c-0.76996,3.00559 -2.59119,5.26794 -4.29159,7.79617c-0.68361,1.01643 -2.05336,1.85758 -2.00221,3.08144c0.116,2.77534 4.8027,-0.8582 4.93536,-0.94831l1.68098,3.31824l1.09251,0.84202c-0.16292,0.107 -0.32856,0.21888 -0.49687,0.33378l0.07793,0.15384c0,0 -0.57577,0.57579 -1.39873,0.74156z" fill="#696969" stroke-width="0.5"></path>
      <path d="M187.20004,84.8c2.17976,0 2.45898,1.90053 2.49475,2.38744c1.16198,0.43875 1.66283,0.39233 2.62508,-1.27419c0.47858,-0.82886 3.77934,-4.4177 3.60225,-5.4814c-0.20137,-1.20954 -1.88501,-1.577 -2.90888,-2.25171c-2.66036,-1.75313 -5.61037,-3.04611 -6.6415,1.11043c0,0 -0.39687,1.19062 -1.47181,1.6035c0.00006,0.00392 0.00006,0.00594 0.00006,0.00594c0,1.8769 -0.00369,3.71627 -0.04382,5.53169c0.23739,-0.72191 0.83574,-1.6317 2.34387,-1.6317zM181.62832,77.70945c0.39498,-1.04231 0.47816,-2.26501 1.18493,-3.12692c3.8423,-4.68567 8.73963,-3.40982 12.9735,-0.56264c2.225,1.49627 4.57006,2.62269 5.09112,5.74829c0.48614,2.91611 -2.82309,6.76136 -4.39775,8.91856c-0.80082,1.09709 -1.27503,2.63156 -2.50044,3.21745c-2.70957,1.2955 -5.12521,0.15272 -7.57023,-0.6325l-1.58426,-3.68095c-0.1678,5.30017 -0.70966,10.41898 -2.45344,15.69981l-4.87171,-1.59055c0,0 0,-1.05518 0.68552,-1.7945c1.77192,-6.29656 1.71444,-12.38774 1.71444,-19.00552c0,0 0,-1.8586 1.60254,-2.37072c0.01011,-0.47281 0.12578,-0.81983 0.12578,-0.81983z" fill="#696969" stroke-width="0.5"></path>
      <path d="M227.97171,96.90945c0.79057,2.37171 -1.58114,3.16228 -1.58114,3.16228l-2.39997,0.79999c-3.20253,0.95873 -7.15889,1.08886 -10.10489,-1.04507c-0.70522,-0.51083 -1.38732,-1.07155 -1.98522,-1.68728c-2.61802,1.90751 -6.38227,2.71515 -8.86825,0.52839c-4.07359,-3.58328 -0.74723,-11.16315 1.12197,-14.86615c1.37668,-2.72728 4.9794,-8.73034 8.64581,-8.60159c5.52418,0.19398 6.52446,7.38667 5.59274,11.22447c-0.28393,1.16954 -1.2751,2.04153 -1.91265,3.06229c0,0 -0.4338,0.65069 -1.18009,0.98158v0.83163c0.2596,0.9827 -0.46813,2.06559 -0.1903,3.04329c0.67212,2.36526 5.76485,2.39122 7.29977,1.78501l2.39995,-0.79998c0,0 2.37171,-0.79057 3.16228,1.58114zM213.53231,82.10047c-0.06405,-0.67586 -0.07732,-2.07904 -0.73229,-1.90045c-1.20599,0.32884 -3.52936,4.53382 -4.15424,5.79837c-1.30232,2.63545 -3.16295,6.09238 -2.07799,9.13385c0.00808,0.02266 2.6557,-1.57671 3.26542,-1.98274c0.05153,-0.5696 0.19406,-1.16663 0.44378,-1.79246c0.00558,-0.08046 0.01287,-0.16022 0.02303,-0.23879v-3.01824c0,-1.38071 1.11929,-2.5 2.5,-2.5c0.05437,0 0.10832,0.00174 0.16183,0.00515c0.48571,-1.0897 0.68055,-2.34297 0.57047,-3.5047z" fill="#696969" stroke-width="0.5"></path>
      <path d="M225.60001,264.19998l-0.9936,-0.07465c-1.51882,0.37973 -7.16853,1.94191 -8.20943,1.3662c-1.44673,-0.80018 -1.83731,-2.86254 -2.09511,-4.49559c-0.19195,-1.2159 0.66971,-2.37927 0.81688,-3.6014c0.24141,-2.00482 0.32178,-4.05317 0.88096,-5.9935c1.17452,-4.07556 0.91297,-8.35587 1.53261,-12.50146c0.4329,-2.89623 1.83707,-5.98639 2.41623,-8.88984c0.34869,-1.74807 0.71142,-3.49196 1.09741,-5.22947c-0.57572,0.34094 -1.21226,0.61814 -1.67818,1.08751c-1.76588,1.77897 -2.47114,6.43817 -6.94742,4.43641c-1.57224,-0.70309 -0.8175,-3.34698 -1.28806,-5.00374c-0.26194,-0.92223 -0.78051,-2.18505 -1.29292,-3.56148c-0.06021,0.34927 -0.11374,0.70419 -0.15805,1.06651c-0.62038,5.07201 -0.8543,10.21514 -1.61359,15.29495c-0.24932,1.66803 -1.40376,3.12494 -1.59998,4.80005c-0.25013,2.13533 -0.48596,4.27311 -0.79999,6.39997c-0.24967,1.69094 0.4743,5.25616 -0.07499,6.72405c-2.01697,5.38992 -5.91117,4.67697 -10.30231,3.27315c-0.4407,0.16679 -0.99468,0.20285 -1.68108,-0.02597c-2.37169,-0.79062 -1.58107,-3.16231 -1.58107,-3.16231c1.80123,-5.34472 2.54036,-11.14661 3.69048,-16.66341c1.53664,-7.37085 4.25728,-14.52769 4.8082,-22.09127c0.39989,-5.4902 -0.57496,-11.37683 0.19723,-16.80144c0.42694,-2.99922 2.01822,-5.7611 2.39556,-8.76696c0.16968,-1.35165 -0.23138,-2.7465 0.01252,-4.08675c0.49291,-2.70853 1.69986,-5.24072 2.38668,-7.90668c0.00754,-2.31439 0.2017,-4.67983 0.90933,-6.8834v0l0.78176,-2.34533c0.31417,-1.02157 1.26534,-1.76414 2.38994,-1.76414c1.12461,0 2.07577,0.74257 2.38994,1.76414l0.78176,2.34533l-0.00852,0.00284c0.00844,0.01625 0.01681,0.03253 0.02513,0.04885c2.23892,4.39255 2.7502,9.87324 3.92211,14.55659c0.41868,1.67321 1.39638,3.18492 1.72676,4.87778c0.26764,1.37138 -0.10812,2.80251 0.04319,4.19154c0.20708,1.90091 1.31699,3.61953 1.58736,5.51248c0.03648,0.25544 0.03897,1.90103 0.03275,3.4848c0.91122,-2.15693 2.13541,-4.05945 3.21893,-6.50849c3.88848,-8.78895 6.96305,-17.92434 12.80537,-25.6559l0.68534,-2.05588c0.31419,-1.02154 1.26534,-1.76408 2.38992,-1.76408c1.38071,0 2.5,1.11929 2.5,2.5c0,0.18574 -0.02026,0.36675 -0.05868,0.54094l-0.74964,3.74797c0.1148,1.26444 0.13712,2.55531 -0.0039,3.95743c-0.46542,4.62758 -1.76317,9.2368 -2.19449,13.88586c-1.26721,13.65893 -2.88075,27.07039 -5.02252,40.64894c-1.34249,8.51124 -3.97785,16.89537 -3.98951,25.52434c-0.28532,1.16697 -0.57065,2.33394 -0.85597,3.50091l-1.41722,-0.40467c-0.73991,0.69826 -1.80812,0.69826 -1.80812,0.69826zM200.42038,255.49579c1.07943,-0.35323 0.29368,-2.26011 0.27966,-3.39578c-0.02492,-2.01914 0.58181,-3.99673 0.83227,-6.00043c0.16538,-1.32303 -0.17443,-2.67812 0,-3.99999c0.22064,-1.67207 1.37436,-3.12865 1.59998,-4.80005c0.54172,-4.01319 0.82281,-8.05397 1.23857,-12.06578c-1.10198,5.10548 -2.69182,10.10927 -3.75707,15.23146c-0.9885,4.75312 -1.71975,9.66121 -2.9906,14.37152c0.93602,0.33856 2.35,0.80538 2.79719,0.65905zM206.3323,212.49955l0.22714,-0.3464l-0.13113,-0.04371l0.78176,-2.3453c0.31417,-1.02157 1.26534,-1.76413 2.38994,-1.76413c0.88152,0 1.65648,0.45625 2.10162,1.14549l1.57853,2.36773l-0.0845,0.05633c0.14433,0.19272 0.27752,0.39406 0.39711,0.60597c0.60278,1.06811 -0.0427,2.45945 0.09511,3.67815c0.18224,1.61162 1.47978,4.34778 2.08396,6.53891c0.02009,-0.02022 0.04023,-0.04033 0.0604,-0.06033c0.60705,-0.60203 1.64649,-0.68245 2.18103,-1.3497c0.47806,-0.59676 0.23641,-1.56037 0.66012,-2.19686c0.62695,-0.94178 1.77187,-1.45902 2.40002,-2.39999c0.51221,-0.76729 0.36592,-1.88089 0.93984,-2.60317c0.55379,-0.69694 1.45361,-1.01769 2.21891,-1.48469l0.57794,-1.73375c0.31419,-1.02154 1.26534,-1.76408 2.38993,-1.76408c1.38071,0 2.5,1.11929 2.5,2.5c0,0.29692 -0.05176,0.58176 -0.14676,0.84597l-0.75224,2.25662c0.22428,1.07466 -0.49894,2.1404 -0.80073,3.19638c-0.59002,2.06453 -1.096,4.15333 -1.56118,6.24952c-0.83048,3.74231 -1.49154,7.57823 -2.42287,11.29322c-0.39025,1.55669 -1.33382,2.96833 -1.54851,4.55877c-0.42292,3.13312 -0.37942,6.36646 -0.78644,9.505c-0.25375,1.95668 -1.34366,3.7405 -1.61358,5.69501c-0.14159,1.02527 0.14733,2.07864 0.01355,3.10496c-0.12177,0.93418 -0.39838,1.85112 -0.75286,2.72466c1.20109,-0.76582 2.67685,-1.10835 4.06524,-1.45546l1.32837,-0.04495c0.08926,-6.95465 1.97522,-13.54241 3.21893,-20.38038c1.35064,-7.42587 1.8569,-14.99914 3.2027,-22.41443c1.06443,-5.86496 2.04752,-11.60114 2.41736,-17.59033c0.31062,-5.03014 1.18897,-9.9256 1.85924,-14.8719c-2.24352,4.21484 -4.13143,8.63688 -5.89902,13.05583c-1.40757,3.51891 -3.20688,6.46835 -4.88432,9.78785c-0.41379,0.81885 -0.32238,1.90155 -0.92702,2.59158c-0.09233,0.10537 -0.18605,0.20935 -0.28106,0.31204l0.04681,0.03745l-3.10906,3.8863c-0.45772,0.5823 -1.16848,0.95629 -1.9666,0.95629c-1.18976,0 -2.1854,-0.8311 -2.43804,-1.94441l-0.7873,-3.14928l0.08772,-0.02193l-0.14363,-0.27894c-0.01123,-2.10164 0.31083,-4.22446 0.01355,-6.305c-0.27874,-1.95076 -1.38239,-3.73045 -1.6126,-5.68754c-0.15361,-1.30595 0.24671,-2.65438 -0.00579,-3.94486c-0.30889,-1.57863 -1.26083,-2.97371 -1.6532,-4.53369c-0.40459,-1.60856 -0.30711,-3.31776 -0.72536,-4.92283c-0.15216,-0.58393 -0.49766,-1.46589 -0.90579,-2.47188c-0.69674,2.39531 -1.72112,4.70683 -2.16183,7.16081c-0.23057,1.28388 0.18211,2.6199 0.01252,3.91325c-0.39673,3.02557 -1.97039,5.81257 -2.40437,8.83302c-0.76085,5.29556 0.23812,11.11065 -0.16245,16.47586c-0.01606,0.21505 -0.03375,0.42976 -0.05301,0.64413c0.43483,-1.87518 0.86295,-3.69455 0.87189,-5.86719z" fill="#696969" stroke-width="0.5"></path>
      <path d="M235.61246,261.57642c-0.43496,0.62993 -1.30257,1.39543 -2.803,0.8953c-2.37171,-0.79055 -1.58116,-3.16227 -1.58116,-3.16227c0.78821,-2.35874 2.01017,-5.16096 2.30402,-7.60989c0.35527,-2.96085 0.2377,-5.98394 0.82009,-8.90861c0.56238,-2.8242 1.74098,-5.36672 2.4314,-8.13263c2.9252,-11.71874 4.99773,-23.75831 8.81593,-35.25728c0.57544,-2.26553 1.62943,-4.3818 2.45556,-6.56841c1.46187,-3.86931 1.63113,-8.32223 3.25844,-12.14401c0.38907,-0.91374 1.18975,-1.6021 1.64053,-2.48702c0.51964,-1.0201 1.32761,-5.00308 1.55947,-5.51296c0.97876,-2.1524 4.09024,-6.32663 7.1878,-5.32043c1.59168,0.51704 1.38056,3.05272 2.18476,4.52039c1.25954,2.29867 2.39669,2.57316 2.59708,5.5232c0.02962,0.43604 -0.83403,9.75911 -0.89898,10.47348c-0.57527,6.32781 -0.67413,12.50798 -0.69656,18.86105c-1.19585,5.97935 -1.49307,13.31513 -0.80655,19.44823c0.13133,1.17324 0.81701,2.26537 0.81801,3.44593c0.00124,1.46054 -0.66731,2.85241 -0.81145,4.30582c-0.66278,6.68308 0.12895,13.50953 -0.8201,20.15411c-0.27002,1.8905 -1.27801,3.62042 -1.58643,5.50504c-0.23578,1.44078 0.45044,3.20963 -0.45317,4.35634c-1.88856,2.39666 -6.96769,2.50522 -8.85625,0c-1.35506,-1.79752 -0.4719,-8.71982 -0.4719,-11.06182c0.01892,-2.92358 -0.82815,-5.52071 -0.85407,-8.36911c-0.52788,1.80669 -1.11046,3.58844 -1.37816,5.56955c-0.58336,4.31719 -0.90965,7.32941 -3.42193,11.09793c-0.64259,1.17925 -0.73039,2.92959 -1.92776,3.53774c-1.17676,0.59768 -2.60286,-0.46341 -3.91852,-0.56841c-0.93028,-0.07424 -1.86636,0.02152 -2.79954,0.03228zM236.80655,258.49857c0.23162,-0.06288 0.49469,-0.09858 0.79345,-0.09858c0.88327,0 1.45447,0.31206 1.82386,0.71568c0.60026,-0.02733 1.19644,-0.02114 1.77662,0.11659c0.44011,0.10448 0.46395,1.2056 0.88152,1.03169c0.40131,-0.16714 -0.21852,-0.84154 -0.32779,-1.26231c2.34837,-3.52265 2.37836,-5.69267 2.97809,-9.70212c0.40555,-2.71123 2.04779,-5.1483 2.38641,-7.905c0.24768,-2.01636 -0.02837,-4.06302 -0.01873,-6.09451c0.00972,-2.04815 0.16108,-8.39796 2.33229,-9.76779c1.61494,-1.01888 4.01029,-2.07241 5.62949,-1.06031c1.73172,1.08244 0.77517,6.21667 1.01949,8.12262c0.29661,2.31388 1.04408,4.63113 0.80655,6.95182c-0.33555,3.27838 -1.21051,3.67069 -0.80655,6.64821c0.30272,2.2313 0.80669,4.45371 0.81872,6.70542c0,2.77673 -0.29241,5.44526 -0.4719,8.13825c-0.01649,0.2474 0.755,0.2477 0.74385,0c-0.08472,-1.88256 -0.08591,-3.82409 0.42778,-5.6372c1.04194,-3.67758 1.0292,-7.7855 1.51901,-11.6065c1.60015,-12.48273 -1.70258,-25.06071 0.79342,-37.54089c-0.01516,-3.67956 -0.14423,-7.39051 -0.0096,-11.06696c0.20887,-5.70381 1.71134,-11.50388 1.61414,-17.19848c-0.02364,-1.38471 -1.5879,-2.5541 -2.12426,-3.78706c-0.12382,0.15912 -0.23398,0.32523 -0.30613,0.51022c-0.71696,1.83808 -0.76985,3.91652 -1.64048,5.68699c-0.41034,0.83446 -1.19092,1.45932 -1.55954,2.31303c-1.5949,3.69379 -1.7381,8.08738 -3.14159,11.85599c-0.77454,2.07978 -1.81514,4.07628 -2.34437,6.23158c-3.8323,11.45086 -5.86091,23.46691 -8.78405,35.14275c-0.6703,2.67737 -1.82049,5.13993 -2.36865,7.86737c-0.57314,2.85174 -0.40692,5.80662 -0.77989,8.69137c-0.2476,1.91509 -0.95928,4.01288 -1.6612,5.99812z" fill="#696969" stroke-width="0.5"></path>
      <path d="M255.78451,213.45067c-0.06907,1.10821 -0.22612,2.23587 -0.61278,3.43991c0,0 -0.79056,2.37171 -3.16227,1.58115c-2.37171,-0.79056 -1.58115,-3.16227 -1.58115,-3.16227c1.02966,-2.9397 0.28039,-5.35596 0.70398,-8.40991c0.25906,-1.86774 0.79999,-3.71438 0.79999,-5.6l0.25271,-0.3379l-0.15669,-0.05223l0.78182,-2.34533c0.31419,-1.02154 1.26534,-1.76408 2.38993,-1.76408c1.18976,0 2.1854,0.8311 2.43804,1.94441l0.7873,3.14928l-0.14201,0.0355c0.08157,0.21823 0.15376,0.44025 0.2148,0.66677c0.26069,0.96736 -0.66743,1.89625 -0.86502,2.87844c-0.31395,1.56057 -0.4436,3.15262 -0.6654,4.72893l-0.07288,1.2565c0,0 -0.08565,1.33707 -1.11037,1.99085z" fill="#696969" stroke-width="0.5"></path>
      <path d="M356.43964,257.92224c0.76401,-5.43264 -0.33718,-10.98056 0.27257,-16.4686c0.27366,-2.46308 1.29599,-4.80036 1.60654,-7.25907c0.46361,-3.67054 -0.45608,-7.52065 0,-11.20001c0.1253,-1.01086 0.78397,-1.93544 0.78196,-2.95403c-0.00274,-1.39082 -0.80238,-2.70506 -0.79586,-4.09587c0.00433,-0.92382 0.72382,-1.7271 0.82744,-2.6451c0.06345,-0.56214 -0.13098,-7.05567 0,-8c0.49341,-3.55734 0.77264,-6.67123 0.79999,-10.40006c1.048,-3.1438 0.34168,-5.56262 0.80004,-8.79996c0.30106,-2.12632 1.32073,-4.11404 1.57986,-6.24588c0.20168,-1.6592 -0.55025,-3.29765 -0.77987,-4.95321c-0.29534,-2.1293 0.79537,-5.66956 -0.31904,-7.68296c-0.67297,-1.21586 -5.43152,0.98493 -6.51489,1.52829c-3.62725,1.81924 -4.37153,3.49765 -6.05261,6.85261c-1.52294,3.03935 -3.01195,5.00627 -3.84548,8.40057c-2.22866,6.70181 -2.47453,14.81614 0.64553,21.40264c1.18358,2.49856 6.0276,3.58767 6.57043,6.05674c0.47195,2.14666 -3.25167,8.13777 -4.07154,10.30903c-2.41302,6.39033 -3.40049,13.40573 -5.57297,19.92319c-1.90457,5.71385 -4.01279,11.26056 -5.94365,16.94767c-0.16009,0.47151 0.69808,-0.71322 1.00418,-1.10597c0.59105,-0.75836 0.91729,-1.72298 1.59998,-2.40002c0.60705,-0.60203 1.64226,-0.68586 2.18103,-1.3497c0.44562,-0.54907 0.22354,-1.42762 0.57229,-2.04278c0.65758,-1.15991 1.72951,-2.04754 2.39998,-3.20005c0.78098,-1.34245 0.95164,-2.95687 1.44277,-4.43027c1.05323,-3.15974 1.97296,-6.35597 2.96337,-9.52875c0.13342,-0.85006 0.34012,-1.61395 0.68891,-2.15977c0.15501,-0.47399 0.31266,-0.94714 0.47363,-1.41926l0.29634,-0.20125l-0.13068,-0.08712l1.57847,-2.36776c0.44513,-0.68927 1.22011,-1.14554 2.10165,-1.14554c1.38071,0 2.5,1.11929 2.5,2.5c0,0.41989 -0.10351,0.8156 -0.28642,1.163l-1.54186,3.08378c-0.17244,1.68131 -0.36821,3.35067 -0.60397,4.95375c-0.55881,3.79973 -2.38876,6.89272 -2.36774,10.79947c0.01581,2.93935 -0.43834,6.29214 -0.03228,9.19958c0.07825,0.56029 0.44096,1.0548 0.61527,1.59056l1.31704,-1.89012c0,0 1.3712,-1.82826 3.23959,-0.67776zM356.44867,262.55337l-2.18689,2.77477c-1.65995,0.33598 -3.40924,1.64158 -4.97984,1.00793c-0.78393,-0.31627 -2.77211,-5.41342 -2.94964,-6.63559c-0.23831,-1.64062 -0.3607,-3.32169 -0.3811,-5.01762c-0.2294,0.73026 -0.29532,1.54198 -0.7644,2.13465c-0.66336,0.83814 -1.866,1.09165 -2.61902,1.85025c-1.96574,1.98032 -1.4938,4.48356 -5.43594,4.71011c-5.48916,0.31546 -5.4126,-2.79205 -5.21312,-6.78336c0.16872,-3.37584 2.08708,-6.46577 3.37157,-9.4512c0.96061,-2.23266 1.5692,-4.72737 2.33802,-7.03388c2.19268,-6.57803 3.21677,-13.60946 5.62698,-20.07681c0.72037,-1.93297 1.40929,-3.89958 2.43503,-5.68933c0.36297,-0.63332 1.44265,-0.87343 1.49343,-1.60162c0.032,-0.45887 -0.95897,0.04402 -1.37047,-0.16155c-2.51429,-1.25603 -3.56135,-2.47039 -4.85902,-4.98173c-1.65741,-3.20751 -2.53686,-6.88526 -2.79551,-10.64367c-0.41083,3.09389 -0.63731,6.22339 -1.33248,9.34792c-0.63061,2.83437 -1.95925,5.73934 -2.35852,8.5978c-0.70149,5.02213 -0.81876,9.75247 -2.46744,14.69851c-1.1664,4.55271 -1.65197,9.49209 -2.33255,14.10151c-0.74284,5.03118 0.35068,8.41942 -2.78761,12.98629c-1.59857,2.32625 -5.34918,5.97614 -8.81202,5.09114c-3.17221,-0.81073 -4.40568,-2.74184 -4.63441,-5.0892c-0.95312,1.89375 -2.11039,3.66186 -3.66592,5.17908c-1.29043,1.25864 -6.09655,4.2953 -8.02951,2.66038c-3.44384,-2.91285 -0.59566,-5.38933 -0.20598,-8.02861c0.73994,-5.01151 0.10296,-10.17464 0.79999,-15.20002c0.58406,-4.21089 1.57763,-8.34019 1.58643,-12.70501c2.16931,-8.87247 2.50045,-17.86605 3.28235,-26.94689c0.36235,-4.20828 1.58503,-8.25514 2.33991,-12.39831c0.98053,-5.38168 0.684,-12.53555 3.08593,-17.81672c-0.62116,-0.01059 -1.32514,-0.27301 -1.90704,-1.14586c-0.03837,-0.05756 -0.07409,-0.11458 -0.10727,-0.17106c0.4841,3.42872 -0.51782,6.98184 -0.93131,10.28978c-1.09133,8.73079 -2.51235,17.43929 -7.51901,24.94937c-1.27974,2.55652 -1.86773,5.31831 -3.11649,7.84354c-1.64109,3.31858 -3.92807,6.29433 -5.59999,9.6c-1.35242,2.67398 -0.95956,5.30196 -1.3781,8.10212c-0.24932,1.66801 -1.37391,3.12866 -1.59997,4.79998c-0.31674,2.34165 -0.51893,4.69738 -0.77987,7.04591c-0.59893,5.39041 -0.83154,10.83067 -1.62015,16.15411c-0.2338,1.57826 0.45712,3.35574 -0.26353,4.7792c-0.66313,1.30984 -2.33719,1.77742 -3.50578,2.66612c-1.65339,0.1941 -3.60378,1.54748 -4.96018,0.5823c-1.33931,-0.95303 -0.60746,-3.2329 -1.00594,-4.82766c-0.20442,-0.81811 -0.68414,-1.5647 -0.79999,-2.39996c-0.43996,-3.172 -0.03228,-6.79329 -0.03228,-10.00049c0,-0.07344 -0.01195,-7.28149 0.03228,-7.6004c0.37572,-2.70881 1.22526,-5.11885 0.79999,-7.99915c-0.45415,-3.07587 -1.50504,-6.26387 -0.81354,-9.5059c0.13991,-0.65597 1.18917,-1.02821 1.08975,-1.69152c-0.06568,-0.43819 -0.89287,0.40058 -1.3069,0.24276c-0.24982,-0.09523 -5.35058,-3.5592 -5.46937,-3.678c-2.89911,-2.89911 -3.82519,-5.85142 -3.93225,-9.76777c0,-5.03787 0.24989,-9.68348 0.81222,-14.64638c0.24596,-2.17082 -0.28885,-4.39134 0.02011,-6.55409c0.10097,-0.70678 0.76771,-1.28559 0.76771,-1.99954c0,-0.71395 -0.6771,-1.29136 -0.76771,-1.99954c-0.27288,-2.13285 0.4959,-4.27228 0.79999,-6.40091c0.15085,-1.05595 -0.17085,-2.14711 0,-3.20001c0.17416,-1.07333 0.53358,-2.12636 1.02191,-3.09791c1.12739,-2.24294 3.17886,-4.92355 5.91397,-5.37951c3.4434,-0.57404 7.49593,2.94291 9.92134,5.81384c0.43333,-1.4184 0.91857,-2.8555 1.22371,-3.25344c0.66433,-0.86635 1.85843,-1.16702 2.66875,-1.89866c3.3435,-3.01883 3.81824,-6.92817 8.56156,-1.224c0.26291,0.31617 0.49657,0.67991 0.69499,1.07172c2.34865,-2.77826 5.32402,-4.54688 9.36012,-1.4659c0.86882,0.66322 1.16314,1.83288 1.39231,2.96117c0.21971,-1.00527 1.1223,-1.60699 1.1223,-1.60699c3.80383,-1.55901 5.39392,-3.56714 6.58392,0.56348c0.14933,-0.16831 0.30985,-0.3262 0.48537,-0.47012c0.86189,-0.70676 2.08458,-0.78995 3.12687,-1.18492c0,0 2.37171,-0.79057 3.16228,1.58114c0.0225,0.0675 0.04244,0.13372 0.05994,0.19868l0.28643,-0.04416c0.7267,1.51337 1.90286,2.88436 2.1801,4.54012c0.20328,1.21405 -0.67009,2.37921 -0.81688,3.60138c-0.18458,1.53679 -0.21282,3.10954 -0.42259,4.64264c0.59459,-0.36711 1.27662,-0.6282 1.77353,-1.11586c2.52907,-2.48198 3.39107,-6.36196 5.24118,-9.14657c0.42997,-0.64715 1.44432,-1.6379 2.5568,-2.63791l1.46821,-2.20226c0.44514,-0.68924 1.2201,-1.14549 2.10162,-1.14549c1.1246,0 2.07577,0.74256 2.38994,1.76413l0.78176,2.3453l-0.29328,0.09776l0.42156,0.6928c-1.06953,3.68113 -1.39281,7.37494 -1.64557,11.08469c0.9151,-2.28628 2.11714,-4.21248 3.29975,-6.58308c0.91964,-1.84347 1.43958,-3.99458 2.87804,-5.46936c2.09901,-2.15202 5.39323,-3.66324 8.17721,-4.60394c3.93259,-1.32882 6.51749,-3.08646 9.97735,0.85422c2.44485,2.78461 0.81294,6.7473 1.28094,9.91702c0.30676,2.07761 1.03591,4.15778 0.8201,6.2468c-0.23125,2.23854 -1.29835,4.32677 -1.62009,6.5541c-0.44702,3.09461 0.22364,5.72913 -0.80005,8.80002c0.03284,3.66151 -0.28047,6.88141 -0.79998,10.39999c-0.38951,2.63807 0.29005,5.34916 0,8c-0.083,0.75853 -0.77651,1.39184 -0.77254,2.15489c0.00692,1.32867 0.80662,2.57544 0.80411,3.90413c-0.00223,1.18058 -0.67036,2.27468 -0.81801,3.44599c-0.46273,3.67076 0.45588,7.52055 0,11.20002c-0.29987,2.42031 -1.32408,4.71693 -1.59341,7.14083c-0.73109,6.5796 0.72909,13.05028 -0.86253,19.56004c0,0 -0.60637,2.42535 -3.03172,1.81898c-0.6336,-0.15841 -1.0603,-0.44096 -1.34495,-0.77198zM313.62832,240.10943l0.9259,-2.70776c2.21881,-3.3283 1.70437,-4.82853 3.13611,-8.65839c0.30882,-0.82609 1.27237,-1.32038 1.51695,-2.16772c0.25721,-0.89109 -0.20295,-1.86062 -0.08854,-2.781c0.25352,-2.03942 1.16709,-3.94237 1.66506,-5.93624c1.46639,-5.87143 2.27529,-11.81389 4.98018,-17.27636c0,0 1.11806,-2.23606 3.35411,-1.118c2.23606,1.11806 1.118,3.35411 1.118,3.35411c-1.73005,3.42128 -2.09173,6.21017 -3.01982,9.9236c-0.94682,3.78841 -2.64667,7.77831 -3.13499,11.66379c-0.15047,1.19728 0.24047,2.45804 -0.08854,3.61902c-0.28395,1.00196 -1.31632,1.65748 -1.68301,2.63221c-0.91263,2.42601 -1.11704,4.32494 -1.90698,6.34678c0.16977,0.22683 0.30192,0.48346 0.38717,0.76063l0.78182,2.34527l-0.06166,0.02055c0.0567,0.12095 0.10943,0.24405 0.15768,0.36959c1.14232,2.97148 -0.88351,6.3514 -1.66745,9.09945c-0.50463,1.76896 -1.05692,3.52454 -1.53256,5.30152c-0.16718,0.62459 -0.36774,2.05888 0.26411,1.92167c6.8093,-1.47875 5.2833,-8.75195 6.00046,-13.92257c0.66885,-4.8223 1.29502,-9.91634 2.46738,-14.69854c1.57849,-4.73549 1.63075,-9.28654 2.33261,-14.10148c0.43794,-3.00439 1.78187,-6.03073 2.4414,-9.00217c0.81828,-3.68667 0.92995,-7.31922 1.55048,-10.94412c0.28517,-1.66585 1.08181,-3.21482 1.3844,-4.8776c0.76959,-4.22896 0.56328,-8.70026 0.96289,-13.02933c-1.24532,2.21165 -3.0324,4.9267 -4.50371,6.42144c-0.67447,0.68521 -1.71374,0.92656 -2.39996,1.60001c-1.34059,1.31563 -2.60629,6.17798 -5.1231,5.52739c-7.13358,-1.84402 -2.75492,-8.01706 -2.32595,-11.60061c0.15058,-1.25793 -0.34495,-3.71842 0.34693,-5.2171c-0.36318,0.04133 -0.86665,0.0376 -1.35175,-0.16986l-0.54222,1.68298c0,0 -0.77532,2.32603 -3.09385,1.60323c-0.66184,2.18198 -1.34018,4.35857 -1.59002,6.65254c-0.70216,6.44718 -2.58509,12.85845 -3.10314,19.30552c-0.73225,9.11289 -1.02377,18.27203 -3.30345,27.15361c0.01725,8.24893 -2.38123,16.3099 -2.38123,24.49451c0,0.14031 0.15412,2.61796 -0.18154,4.54141c1.09915,-1.17228 1.92249,-2.59952 2.63577,-4.03977c1.87191,-3.77975 3.01601,-8.05838 4.93302,-11.85976c-0.6742,-0.98674 -0.25896,-2.23244 -0.25896,-2.23244zM298.07044,188.43228c-0.52231,1.853 -0.95878,3.74924 -1.18918,5.57322c-0.26735,2.11651 0.25856,4.28238 0,6.39997c-0.24823,2.03304 -0.79451,4.04645 -0.78126,6.09454c0,0 0,0.06331 -0.01007,0.16977c0.54646,-1.28482 1.11786,-2.5635 1.74783,-3.82459c4.63487,-6.95239 5.87108,-14.97102 6.88101,-23.05063c0.13637,-1.09101 0.67619,-2.10751 0.79999,-3.20001c0.09035,-0.79736 1.07928,-10.75116 -2.15099,-6.72677c-0.49965,0.62249 -0.84841,1.35248 -1.28762,2.01899c-0.45329,0.68786 -0.92516,1.36329 -1.38863,2.04434l-0.70158,2.10476c-0.31417,1.02157 -1.26534,1.76413 -2.38994,1.76413c-1.1246,0 -2.07577,-0.74256 -2.38994,-1.76413l-0.78176,-2.3453l0.175,-0.05833c-0.11592,-0.23674 -0.21818,-0.48025 -0.30329,-0.73223c-0.27964,-0.8279 0.70651,-1.62729 0.80183,-2.49594c0.06179,-0.56309 -0.27516,-1.10184 -0.34536,-1.66394c-0.02395,-0.19175 0.15551,-0.74705 0.06561,-0.576c-0.43116,0.82047 -0.50804,1.84217 -1.10403,2.55201c-0.53525,0.63749 -1.58997,0.66902 -2.1313,1.30136c-0.74955,0.87556 -0.64283,2.21885 -1.08674,3.28251l0.6717,1.60947c0,0 0.79055,2.37171 -1.58116,3.16227c-2.37171,0.79055 -3.16227,-1.58116 -3.16227,-1.58116l-0.21355,-0.73399c-1.64416,0.50626 -2.69488,-1.06985 -2.69488,-1.06985c-0.83816,-1.31423 -2.00505,-2.44891 -3.30661,-3.30661c-1.02282,-0.67401 -1.87312,-2.20341 -3.08142,-2.00224c-2.88893,0.48097 -2.44098,5.96079 -2.66409,7.52258c-0.11925,0.8348 -0.66133,1.5682 -0.79999,2.39999c-0.28861,1.73136 0.83227,3.44431 0.83227,5.19956c0,0.97383 -0.69455,1.8364 -0.83227,2.80044c-0.29443,2.06105 0.24587,4.1762 0.02011,6.2459c-0.5242,4.80579 -0.78788,9.2694 -0.78788,14.15367c-0.19073,4.40142 2.98909,6.84385 6.59838,8.95419c1.13646,0.66449 2.94762,0.64462 3.49315,1.84274c0.65419,1.43676 -0.40838,3.1331 -0.51023,4.7085c-0.33744,5.21997 1.51292,10.0572 0.78644,15.29501c-0.11585,0.83528 -0.67681,1.56579 -0.79999,2.40002c-0.6181,4.18624 0.05515,8.94902 0.03228,13.19953c-0.00943,1.75194 0.85842,3.44991 0.76771,5.19952c-0.00423,0.0815 -0.01498,0.16408 -0.03175,0.24664c0.07631,-0.05491 0.13281,-0.12732 0.15983,-0.22578c0.28513,-1.03877 -0.36588,-2.14849 -0.26353,-3.2208c0.08012,-0.83947 0.69295,-1.56356 0.79999,-2.40002c0.3006,-2.3492 -0.3006,-4.75415 -0.01355,-7.10504c0.13327,-1.0914 0.66352,-2.10902 0.80005,-3.20001c0.43009,-3.43692 0.30283,-7.06967 0.81353,-10.49493c0.24871,-1.6681 1.37437,-3.12861 1.59998,-4.8c0.30119,-2.23126 0.24607,-4.53449 0.86741,-6.69855c0.87748,-3.05621 2.79613,-4.85657 4.15452,-7.59942c1.21211,-2.44748 2.21221,-4.97611 3.25342,-7.49974c-0.36983,0.39508 -0.9372,0.69814 -1.80763,0.69814c-2.5,0 -2.5,-2.5 -2.5,-2.5c0.01203,-2.25172 0.53241,-4.47198 0.81872,-6.70545c0.27125,-2.11602 -0.26232,-4.28287 0,-6.40001c0.17067,-1.37744 0.44799,-2.79439 0.78935,-4.20736c-0.03932,-0.599 0.12025,-1.07774 0.12025,-1.07774l0.01885,-0.05657c0.19864,-0.59518 0.41408,-1.1851 0.64471,-1.76954c0.29024,-0.983 0.5979,-1.94892 0.90782,-2.88228l0.36773,-0.00012c0.84329,-1.72259 1.8026,-3.39142 2.83256,-5.00093l1.5225,6.08783c0.04973,0.09293 0.07799,0.1956 0.07781,0.31114c-0.00192,1.27213 -0.60285,2.4467 -1.12988,3.6333z" fill="#696969" stroke-width="0.5"></path>
      <path d="M279.83224,184.73224c0.31265,-0.31265 0.62531,-0.51471 0.92818,-0.63552c-0.16509,-0.4105 -0.36202,-0.83473 -0.59648,-1.27864c0,0 -1.11806,-2.23606 1.118,-3.35411c2.23606,-1.11806 3.35411,1.118 3.35411,1.118c2.91382,6.06995 1.86398,12.85763 1.86398,19.51805c0,4.13524 0.48623,8.35093 -0.79999,12.30245v2.89753c0,1.38071 -1.11929,2.5 -2.5,2.5c-1.12458,0 -2.07574,-0.74254 -2.38992,-1.76408l-0.78182,-2.3453l0.06369,-0.02123c-0.0581,-0.12014 -0.11152,-0.243 -0.15971,-0.36891c-1.2514,-3.26931 0.35289,-7.96361 0.80005,-11.20095c0.2985,-2.16109 -0.57701,-4.32532 -0.8136,-6.49406c-0.02453,-0.2249 -0.01873,-7.90003 -0.01873,-8.30547l-0.06775,0.96778c0,0 -1.76777,-1.76777 0,-3.53553z" fill="#696969" stroke-width="0.5"></path>
      <path d="M353.88229,196.19174c0.27458,2.10731 0.60475,4.21455 0.61774,6.30827c0,0 0,2.5 -2.5,2.5c-2.5,0 -2.5,-2.5 -2.5,-2.5c0.03456,-4.7109 -1.45926,-9.23957 -0.76771,-14.00046c0.62462,-4.30011 2.60242,-9.79761 4.97457,-13.42583l0.70318,-2.10957c0.31417,-1.02157 1.26534,-1.76413 2.38994,-1.76413c1.38071,0 2.5,1.11929 2.5,2.5c0,0.18573 -0.02025,0.36672 -0.05867,0.5409l-0.78986,3.94938l-0.0387,-0.00774c0.00144,0.05302 0.00261,0.10606 0.0035,0.15912c0.03133,1.8788 -1.23772,3.56595 -1.5588,5.41738c-0.71552,4.12581 -0.60756,5.38021 -0.74425,9.58221l-0.01459,0.44136c0,0 -0.07438,2.24947 -2.21636,2.40911z" fill="#696969" stroke-width="0.5"></path>
      <path d="M234.50003,111.3c0,2.5 -2.5,2.5 -2.5,2.5h-3.20001c-5.35829,-0.04806 -10.41262,1.89886 -15.79379,2.39151c-5.03642,0.46109 -10.11083,0.30488 -15.15988,0.79634c-2.13742,0.20805 -4.11503,1.31246 -6.24583,1.57989c-6.36309,0.79861 -12.10431,-0.4358 -18.40003,1.60001c-4.76435,0.01959 -9.41863,1.61876 -14.15577,1.62743c-0.79379,0.00145 -1.45092,-0.79002 -2.24469,-0.79516c-0.71395,-0.00462 -1.29139,0.67709 -1.99958,0.76771c-1.32254,0.16923 -2.67695,-0.16539 -3.99998,0c-0.83675,0.1046 -1.56294,0.69758 -2.39996,0.80002c-2.43323,0.2978 -4.91798,-0.25271 -7.35414,0.02012c-3.11876,0.34928 -4.81633,1.30833 -7.99999,1.60001c-2.88453,0.26427 -5.8048,-0.1682 -8.68929,0.09645c-5.35127,0.49096 -10.33131,1.46255 -15.54762,-0.21257c0,0 -2.37171,-0.79055 -1.58116,-3.16227c0.79055,-2.37171 3.16227,-1.58116 3.16227,-1.58116c5.56167,1.94799 11.83406,-0.0685 17.57932,-0.1281c4.518,-0.04687 8.14883,-1.09867 12.5838,-1.58802c2.33447,-0.25758 4.71624,0.31823 7.04588,0.02012c2.13254,-0.27289 4.26598,-0.53885 6.39999,-0.80002c0.96663,-0.1183 1.82664,-0.82728 2.80047,-0.83227c0.89302,-0.00458 1.66233,0.80305 2.55536,0.80482c4.33448,0.00857 8.64634,-1.59172 13.04418,-1.57252c6.28965,-2.17085 12.06483,-0.81198 18.40002,-1.6c2.23324,-0.27779 4.31531,-1.39117 6.55409,-1.62012c5.07122,-0.51861 10.17471,-0.34644 15.24015,-0.80364c5.56385,-0.50218 10.64079,-2.36771 16.20621,-2.40854h3.20001c0,0 2.5,0 2.5,2.5z" fill="#696969" stroke-width="0.5"></path>
      <path d="M159.82834,275.50944c3.12292,-9.36899 5.72209,-19.10052 10.60939,-27.66424c0.0517,-0.09059 0.10708,-0.19322 0.16589,-0.30614c-1.53573,0.99328 -3.04112,2.0695 -4.90523,3.00675c-4.93892,2.48323 -9.46722,4.94229 -14.18402,7.88084c-1.97466,1.2302 -4.36479,1.74175 -6.25259,3.1015c-1.80888,1.30291 -3.05683,2.51914 -4.60417,3.5424c1.46795,2.03843 3.09992,2.86316 5.32918,4.34939c0,0 0.41171,0.27449 0.74669,0.76239c0.05509,0.03657 0.1106,0.07576 0.1665,0.11768c2.00001,1.49998 0.50003,3.5 0.50003,3.5c-3.23343,4.30913 -6.29876,8.00419 -10.16776,11.80333c-0.55801,0.54794 -1.28932,0.94896 -1.70563,1.611c-0.17071,0.27147 -0.2489,1.28248 -0.59141,2.01161c1.52231,0.36041 3.62543,1.52892 4.94731,0.28732c0.56434,-0.53007 0.69505,-1.39802 1.18415,-1.99822c3.47263,-4.26143 7.01104,-8.28304 10.33331,-12.715l2.80006,-1.00002c0,0 2.26083,0 2.48256,2.14997c0.85665,0.43858 1.7055,0.89425 2.54161,1.37169zM134.22829,265.09058c-0.79055,-2.37171 1.58116,-3.16227 1.58116,-3.16227c3.18163,-1.02505 3.8378,-2.54792 6.52879,-4.45638c1.4641,-1.03834 4.94793,-2.2954 6.54746,-3.29853c4.85101,-3.04226 9.50895,-5.58265 14.61591,-8.11916c3.68144,-1.82849 5.99952,-4.48473 10.09825,-5.48963l2.03236,-2.03236c0.45241,-0.45241 1.07741,-0.73223 1.76777,-0.73223c1.38071,0 2.5,1.11929 2.5,2.5c0,0.29691 -0.05176,0.58173 -0.14675,0.84593l-0.78153,2.3446l-0.06915,-0.02305c-0.02451,0.1315 -0.05369,0.26243 -0.0881,0.39274c-0.35543,1.34586 -1.75094,2.1731 -2.48779,3.35408c-1.09455,1.75428 -2.1556,3.5349 -3.08085,5.38408c-3.81832,7.63121 -5.97306,16.38895 -8.67408,24.49221l-0.80006,2.4c0,0 -0.49947,1.49831 -1.89532,1.71614l-2.66311,1.97338c-1.70068,-1.13814 -3.49966,-2.13148 -5.33128,-3.04408c0,0 -0.07211,-0.03605 -0.18395,-0.10816c-2.83879,3.65301 -5.75695,7.11406 -8.76464,10.65708c-1.48334,1.74736 -3.2734,3.69778 -5.53291,4.08277c-2.21302,0.37707 -9.80343,-0.41201 -10.76515,-3.25644c-0.49536,-1.46512 1.16835,-2.86435 1.71888,-4.30965c1.79998,-4.72548 5.93233,-7.06723 9.11243,-10.88663c0.92971,-1.11661 1.73081,-2.33168 2.54472,-3.53754c-2.3585,-1.58782 -4.12043,-2.91521 -5.89146,-5.49076l-0.48761,-0.41888c0,0 -0.12098,-0.12097 -0.26799,-0.33126c-0.45521,-0.23848 -0.8791,-0.67527 -1.13601,-1.44601z" fill="#696969" stroke-width="0.5"></path>
      <path d="M330.45176,138.86372c-1.29091,1.55671 -2.47983,3.20581 -3.91181,4.63147c-0.02699,0.02687 -0.05438,0.05327 -0.08216,0.07925c-0.06681,0.06427 -0.13941,0.1281 -0.21781,0.1894c-0.86274,0.70043 -1.99273,1.09677 -2.72061,1.93805c-0.68868,0.79597 -0.61408,2.10539 -1.35594,2.85178c-0.03207,0.05522 -0.06619,0.1091 -0.10226,0.16153l-1.55957,2.33932c-0.44514,0.68925 -1.2201,1.1455 -2.10163,1.1455c-1.38071,0 -2.5,-1.11929 -2.5,-2.5c0,-0.29692 0.05176,-0.58176 0.14676,-0.84597l0.68603,-2.058c0.00528,-0.59627 0.05564,-1.17396 0.1292,-1.74049l-0.0873,-0.34922l0.06085,-0.01521c-0.04076,-0.09427 -0.07973,-0.18947 -0.11676,-0.28567c-0.46768,-1.21475 0.16448,-2.61209 0.01355,-3.90498c-0.45542,-3.90124 -2.3892,-7.08039 -2.41335,-11.21689l-0.73071,-2.92286c-0.05753,-0.21047 -0.08824,-0.43201 -0.08824,-0.66072c0,-1.38071 1.11929,-2.5 2.5,-2.5c0.99801,0 1.85943,0.5848 2.26029,1.43042l1.57575,3.15154l-0.03963,0.01981c0.03808,0.04687 0.07584,0.09404 0.11326,0.14151c0.55858,0.70866 0.57686,1.71001 0.86199,2.56611c0.28872,0.86688 0.56424,1.74981 0.81002,2.64434c3.53085,-6.06224 8.41608,-11.36553 13.33042,-16.29263c2.3401,-3.12374 4.83098,-6.10883 7.00776,-9.34788c0.75341,-1.12107 1.87723,-2.35247 2.01237,-3.81368c0.26337,-2.84783 0.45753,-5.74965 0.04575,-8.57984c-0.32235,-2.21553 -2.41869,-3.76851 -3.65816,-5.63297c-1.50143,-2.25851 -1.85707,-3.1558 -4.25569,-5.01413c-7.52399,-5.82924 -15.67925,-3.56509 -22.56415,1.62739c0,0 -2,1.49999 -3.5,-0.50001c-1.49999,-2 0.50001,-3.5 0.50001,-3.5c8.71611,-6.50454 19.26644,-8.8242 28.6358,-1.57262c2.9432,2.27794 3.51122,3.44335 5.34429,6.18588c0.26466,0.39597 4.08807,5.80312 4.34184,7.16702c0.3427,1.84181 0.06996,3.74632 0.07803,5.61972c0.00718,1.66684 0.18288,3.34755 -0.03228,5.00046c-0.74413,5.71641 -6.92214,11.31578 -10.17982,15.63843c-5.05048,5.03698 -10.05648,10.47306 -13.4792,16.78475c0.70646,-0.70501 1.56531,-1.52126 2.3242,-2.10854c0.49878,-0.56306 1.01082,-1.11344 1.54868,-1.6392l0.61821,0.0234l-0.09034,-0.27102l2.34466,-0.78153c0.2642,-0.09498 0.54901,-0.14674 0.84591,-0.14674c1.38071,0 2.5,1.11929 2.5,2.5c0,0.88153 -0.45626,1.6565 -1.14552,2.10164l-2.36776,1.5785l-0.26217,-0.39325c-0.35113,0.36528 -0.70583,0.71864 -1.07281,1.07682z" fill="#696969" stroke-width="0.5"></path>
      <path d="M197.60001,165.8c-2.5,0 -2.5,-2.5 -2.5,-2.5l0.04855,-2.89028c0.20475,-1.00711 1.71594,-8.74698 2.07178,-8.91387c4.73306,-2.21976 6.16227,5.65145 9.9797,6.10417c1.63014,0.19332 2.1145,-3.27624 3.75368,-3.18785c3.10286,0.16733 6.35638,5.87823 8.41406,7.92009c0,0 1.76775,1.76778 -0.00002,3.53554c-1.76778,1.76775 -3.53553,-0.00002 -3.53553,-0.00002c-1.62193,-1.63282 -3.17698,-2.8663 -4.16558,-4.9828c-0.21347,-0.45702 0.1868,-1.79498 -0.22029,-1.49713c-0.51845,0.37932 0.18345,1.51137 -0.32887,1.89892c-1.09837,0.83087 -2.54104,1.26517 -3.91744,1.31325c-1.95704,0.06835 -5.25366,-1.87192 -6.56782,-3.13223c-0.01692,-0.01623 -0.03382,-0.03256 -0.05067,-0.04896c-0.18259,0.65683 -0.40009,1.31176 -0.5301,1.97145l0.04855,1.90972c0,0 0,2.5 -2.5,2.5z" fill="#696969" stroke-width="0.5"></path>
      <path d="M374.40948,171.27172c-2.37171,-0.79056 -1.58115,-3.16227 -1.58115,-3.16227l1.18493,-3.1269c1,-0.72089 1.98412,-1.46431 2.99998,-2.16266c0.21087,-0.14497 0.41621,-0.30337 0.62284,-0.46002c-0.64456,-0.19601 -1.27449,-0.50522 -1.94151,-0.5786c-1.63222,-0.17956 -7.55407,0.47936 -8.66232,-0.7135c-1.22826,-1.32203 -0.79559,-3.56619 -0.69995,-5.3682c0.00073,-0.01377 0.00198,-0.02738 0.00373,-0.04084c-0.087,0.06315 -0.16344,0.12053 -0.22168,0.16793c-0.72921,0.59346 -1.29773,1.36076 -1.9466,2.04115c0,0 -1.76778,1.76775 -3.53554,-0.00002c-1.76776,-1.76778 0.00003,-3.53553 0.00003,-3.53553c2.60156,-2.5153 7.76243,-6.91145 11.20384,-1.75025c0.73219,1.0981 -0.24077,2.63994 -0.56834,3.91847c-0.10314,0.40259 -1.08461,0.87443 -0.69995,1.03177c0.49628,0.20299 0.90015,-0.66606 1.43224,-0.73223c2.54543,-0.31653 5.39022,-0.0371 7.80635,0.87466c1.69846,0.64094 4.29021,0.62323 4.92541,2.32384c0.64286,1.72114 -1.10206,3.56996 -2.164,5.06925c-0.44655,0.63045 -3.59447,2.38117 -4.58098,2.94972l-0.41505,1.67308c0,0 -0.79057,2.37171 -3.16228,1.58115z" fill="#696969" stroke-width="0.5"></path>
      <path d="M353.43228,275.13224c1.76776,-1.76776 3.53553,0 3.53553,0l-0.17715,0.19606c0.85535,0.28735 1.74532,0.48711 2.56606,0.86205c0.95309,0.4354 2.44369,2.39313 2.80901,1.41105c0.95614,-2.57036 -2.83821,-4.74511 -1.20175,-7.4194c0.89146,-1.45683 2.9601,-1.85279 4.63602,-2.18196c0.54257,-0.10657 1.08085,0.10915 1.60006,0.37617c-1.44144,-1.66815 -1.89492,-4.03346 -2.42537,-6.06989c0,0 -0.60633,-2.42535 1.81903,-3.03168c2.42536,-0.60633 3.03169,1.81903 3.03169,1.81903c0.66513,2.81276 4.46937,7.70388 2.9661,10.6094c-0.77317,1.49439 -2.93714,1.79007 -4.59146,2.09696c-0.36636,0.06797 -0.73262,-0.00221 -1.09136,-0.13623c0.30486,0.74552 0.43383,1.67298 0.3895,2.34028c-0.115,1.73107 -0.30928,3.69965 -1.46384,4.99457c-3.3402,3.74626 -7.29566,0.17299 -10.62493,-0.92698l-1.77713,-1.40391c0,0 -1.76776,-1.76777 0,-3.53553z" fill="#696969" stroke-width="0.5"></path>
      <path d="M200.10001,276.10002c0,2.5 -2.5,2.5 -2.5,2.5l-0.00943,-0.12829c-2.0691,0.68807 -6.49986,2.43751 -8.22484,0.92688c-0.56883,-0.49815 -0.01919,-4.51033 0.6984,-6.33829c-1.75801,0.216 -3.66702,0.37208 -5.12592,-0.53218c-3.16167,-1.95968 -1.4945,-5.86067 -0.96357,-8.23446c0,0 0.60632,-2.42536 3.03168,-1.81903c2.42536,0.60633 1.81904,3.03169 1.81904,3.03169c-0.24239,0.83258 -0.45923,1.67304 -0.72719,2.49775c-0.05399,0.16618 -0.4111,0.46526 -0.23639,0.46786c1.52405,0.02264 5.35286,-1.84719 6.4,-0.80006c0.82558,0.82557 1.2986,3.91935 0.92821,6.2516c0.40867,-0.10718 0.73377,-0.16654 0.81948,-0.19518l1.59054,-0.12829c0,0 2.5,0 2.5,2.5z" fill="#696969" stroke-width="0.5"></path>
      <path d="M136.89999,168.10002c0,2.5 -2.5,2.5 -2.5,2.5l-0.80942,-0.12829c-0.80584,0.26861 -1.63676,0.44393 -2.48086,0.55733l0.08088,0.24264l-2.3446,0.78156c-0.26421,0.09499 -0.54904,0.14676 -0.84596,0.14676c-0.84716,0 -1.5959,-0.42137 -2.04808,-1.06597c-0.59066,0.26595 -1.15194,0.26595 -1.15194,0.26595c-0.34203,0 -0.68405,0 -1.02608,0c-0.46807,0.07401 -0.98633,0.0778 -1.56014,0c-0.2046,0 -0.4092,0 -0.61379,0l-0.34762,-0.27158c-0.81342,-0.38514 -1.49067,-1.10821 -2.21009,-1.72663l-0.6423,-0.50179c0.00362,-0.0032 0.00974,-0.00796 0.01823,-0.01424l3.18179,-2.48576c0.09545,0 0.19089,0 0.28634,0c0.71432,-0.57874 1.26806,-1.11508 1.32093,-1.42444c0.31873,-1.86516 -0.10727,-3.78338 -0.10727,-5.67557l1.06392,-2.71801c0,0 1.11803,-2.23607 3.3541,-1.11803c2.23607,1.11803 1.11803,3.3541 1.11803,3.3541l-0.53606,0.48194c0,1.2587 0.06545,3.2154 -0.12119,5.19387c0.80152,-2.00329 1.7637,-3.90854 2.44949,-5.98442c0,0 0.79055,-2.37171 3.16227,-1.58116c2.37171,0.79055 1.58116,3.16227 1.58116,3.16227c-0.64918,1.93262 -1.49518,3.74005 -2.2753,5.59015l1.50356,-0.08069c0,0 2.5,0 2.5,2.5z" fill="#696969" stroke-width="0.5"></path>
      <path d="M124.63216,182.6677c-0.33446,-0.33448 -0.54235,-0.66896 -0.65959,-0.99147c-0.21626,0.73399 -0.79952,1.72377 -2.37256,1.72377c-2.5,0 -2.5,-2.5 -2.5,-2.5l0.41989,-2.98678c0.20758,-0.30559 0.37979,-0.64398 0.56269,-0.97245c-0.90277,-0.12877 -1.865,-0.67374 -2.47315,-0.86904c0,0 -2.37171,-0.79055 -1.58116,-3.16227c0.79055,-2.37171 3.16227,-1.58116 3.16227,-1.58116c2.21731,0.77662 5.47547,-0.2043 6.83759,1.70992c0.35125,0.49363 0.50412,1.03777 0.51571,1.60564c0.37009,-0.76782 0.76016,-1.37252 1.13814,-1.57993c1.15708,-0.63494 2.60286,0.46338 3.91852,0.56837c0.93027,0.07423 1.86633,-0.02152 2.79949,-0.03228c0,0 2.5,0 2.5,2.5c0,2.5 -2.5,2.5 -2.5,2.5c-1.20014,-0.01076 -2.43268,0.24492 -3.60041,-0.03228c-0.4401,-0.10447 -0.43638,-0.95139 -0.88153,-1.03167c-0.34669,-0.06252 0.48986,0.60409 0.45369,0.95451c-0.08659,0.83881 -0.53333,1.6 -0.79999,2.4l-1.40406,1.77726c0,0 -1.76783,1.7677 -3.53553,-0.00013zM124.82833,179.30946c0.05854,-0.17562 0.12763,-0.38925 0.20583,-0.63037c-0.11142,0.17587 -0.22367,0.34747 -0.33468,0.51384zM123.68012,180.68677l0.17495,0.08885c0.01568,-0.17552 0.05204,-0.34222 0.1009,-0.49738c-0.09978,0.14516 -0.19257,0.28173 -0.27586,0.40854z" fill="#696969" stroke-width="0.5"></path>
      <path d="M314.37174,63.29056c-0.79055,2.37171 -3.16227,1.58116 -3.16227,1.58116l-2.70785,-0.92591c-0.98453,-0.88025 -2.50205,-1.44243 -3.29419,-2.43749c-0.61048,0.29168 -1.2074,0.29168 -1.2074,0.29168l-2.98679,-0.41987l-2.3677,-1.57847c-0.68925,-0.44514 -1.14551,-1.2201 -1.14551,-2.10163c0,-1.38071 1.11929,-2.5 2.5,-2.5h2.62538c2.09507,-1.55603 3.4021,-4.89284 4.97459,-6.99999c0,0 1.49999,-2.00001 3.5,-0.50002c0.50072,0.37553 0.78206,0.78241 0.92248,1.18139c0.5724,-0.21583 1.30983,-0.23116 2.16426,0.33845c2.08014,1.38673 0.69342,3.46687 0.69342,3.46687c-1.38498,2.0764 -2.4077,4.40177 -3.96761,6.35017c-0.28855,0.36041 -1.05027,0.16207 -1.26105,0.57284c-0.16107,0.31388 0.69793,-0.10366 1.04689,-0.15549l2.0922,0.67406c0,0 2.37171,0.79055 1.58116,3.16227z" fill="#696969" stroke-width="0.5"></path>
      <path d="M299.68198,77.53607c-2.23607,-1.11803 -1.11803,-3.3541 -1.11803,-3.3541l1.03606,-1.98195c0.71423,-0.92481 1.56893,-1.75649 2.14268,-2.77443c0.10477,-0.18589 0.1904,-0.38645 0.26355,-0.59627l-1.83849,1.83847l-0.00657,-0.00657c-0.00817,0.01342 -0.01634,0.02684 -0.02451,0.04026c-0.11389,0.9113 -0.76889,1.56631 -0.76889,1.56631l-0.16103,-0.08157c-0.108,0.16739 -0.21685,0.33425 -0.32659,0.50053l-0.84209,-1.09256l-3.31818,-1.68092c0.30634,-0.45567 0.53181,-0.99338 0.80405,-1.48363c-0.37149,-0.1193 -0.74298,-0.2386 -1.11447,-0.3579c0,0 -2.37171,-0.79057 -1.58114,-3.16228c0.79057,-2.37171 3.16228,-1.58114 3.16228,-1.58114c0.63923,0.2239 1.27846,0.4478 1.91769,0.6717h2.89172c1.03767,0 1.92768,0.6322 2.30588,1.53244c0.13543,-0.16531 0.29647,-0.30879 0.4911,-0.42396c1.27287,-0.75323 2.92908,0.41322 4.39363,0.61983c0,0 2.37171,0.79058 1.58113,3.16228c-0.79058,2.37171 -3.16228,1.58113 -3.16228,1.58113c-0.13547,-0.32674 -0.3581,-1.3306 -0.40642,-0.98021c-0.09557,0.69291 0.52571,1.43825 0.25433,2.08293c-0.58135,1.38102 -1.77158,2.41706 -2.65737,3.62559l-0.56392,1.218c0,0 -1.11803,2.23607 -3.3541,1.11803z" fill="#696969" stroke-width="0.5"></path>
      <path d="M264.80002,301.80003c-2.5,0 -2.5,-2.5 -2.5,-2.5l0.12829,-0.00944c-0.97299,-3.02991 -0.56318,-5.83993 -1.59998,-8.80005c0,0 -0.79055,-2.37171 1.58116,-3.16227c2.37171,-0.79055 3.16227,1.58116 3.16227,1.58116c0.97299,3.02991 0.56318,5.83993 1.59998,8.80005l0.12829,1.59054c0,0 0,2.5 -2.5,2.5z" fill="#696969" stroke-width="0.5"></path>
      <path d="M270.39999,300.19998c-2.5,0 -2.5,-2.5 -2.5,-2.5l0.07464,-0.99365c-0.55894,-2.28624 -0.86205,-4.65281 -0.87463,-7.00635c0,0 0,-2.5 2.5,-2.5c2.5,0 2.5,2.5 2.5,2.5c-0.01259,1.94627 0.2415,3.90849 0.72535,5.7937l0.07464,2.2063c0,0 0,2.5 -2.5,2.5z" fill="#696969" stroke-width="0.5"></path>
      <path d="M274.23226,299.46776c-1.42245,-1.42245 -0.55573,-2.8449 -0.16283,-3.34635c-0.36363,-1.85032 -0.55935,-3.74001 -0.5694,-5.62137c0,0 0,-2.5 2.5,-2.5c2.5,0 2.5,2.5 2.5,2.5c-0.01259,1.94625 0.2415,3.90845 0.72535,5.79364l-1.45758,3.17408c0,0 -1.76777,1.76777 -3.53553,0z" fill="#696969" stroke-width="0.5"></path>
      <path d="M255.20004,52.20002c-2.5,0 -2.5,-2.5 -2.5,-2.5l0.07464,-1.40635c0.26666,-1.06666 0.53333,-2.13332 0.79999,-3.19998c0,0 0.60633,-2.42536 3.03169,-1.81902c2.42536,0.60633 1.81902,3.03169 1.81902,3.03169c-0.26666,1.06666 -0.53333,2.13332 -0.79999,3.19998l0.07464,0.19368c0,0 0,2.5 -2.5,2.5z" fill="#696969" stroke-width="0.5"></path>
      <path d="M260.00003,56.20002c-2.5,0 -2.5,-2.5 -2.5,-2.5l0.12829,-2.39057c0.6843,-2.03715 1.57777,-4.00372 2.5356,-5.92746c0,0 1.11802,-2.23608 3.35409,-1.11806c2.23608,1.11802 1.11806,3.35409 1.11806,3.35409c-0.85855,1.70922 -1.66433,3.45636 -2.26433,5.27255l0.12829,0.80945c0,0 0,2.5 -2.5,2.5z" fill="#696969" stroke-width="0.5"></path>
    </g>
  </g>
</svg>
