<?xml version="1.0" encoding="UTF-8"?>
<svg xmlns="http://www.w3.org/2000/svg" xmlns:xlink="http://www.w3.org/1999/xlink" version="1.1" width="141.89477" height="151.77965" viewBox="0,0,141.89477,151.77965">
  <g transform="translate(-169.05262,-118.63214)">
    <g stroke="none" stroke-miterlimit="10">
      <path d="M294.84519,182.43959c-0.3261,-0.524 -0.64198,-1.00004 -0.90614,-1.40118c-1.36593,-2.74147 -3.05585,-6.1741 -3.48526,-9.24875c-0.24672,-1.76655 -0.15859,-3.44604 -0.15225,-5.12079l0.93701,-0.31312c1.6453,-0.68668 4.70668,0.90278 6.15161,1.85496c0.18909,0.12461 0.47819,0.21564 0.74516,0.31063c0.19241,0.37854 0.5814,0.56821 0.71589,0.62367c-0.00178,0.01066 -0.00394,0.02158 -0.00667,0.0326c-0.1843,0.74561 -0.88722,1.28003 -1.13238,2.0079c-1.06363,3.15781 -2.56592,7.41369 -2.86698,11.25408z" fill="#0024a3" stroke-width="0.5"></path>
      <path d="M270.83184,188.82982c0.81046,-3.49531 1.21997,-7.10457 1.23301,-10.79884l0.00059,-1.59824c0,0 0.0007,-1.24815 -1.2493,-1.24815c-1.25,0 -1.15682,1.21372 -1.15682,1.21372l0.00065,1.60184c0.04634,11.24974 -3.96775,21.88814 -12.04096,29.96156c-2.93482,2.95451 -4.90904,6.51033 -7.37632,9.80521c-1.83141,2.44574 -3.9396,4.20467 -5.2871,6.94731c-1.0509,2.13896 -1.49001,4.79511 -2.16613,7.17202c-0.14814,-0.32718 -0.46097,-0.6712 -1.11695,-0.6712c-0.68037,0 -0.99187,0.37059 -1.13316,0.7081c-2.08732,0.68159 -4.30638,1.30693 -6.47595,1.29289c-10.36556,0.07604 -20.26417,-0.75606 -29.38844,-6.2324c0,0 -0.07407,-0.04448 -0.19469,-0.09046c0.00141,-0.02427 0.00139,-0.03783 0.00139,-0.03783l-0.00064,-1.20052c-0.01615,-1.80207 -1.10323,-3.66106 -0.8197,-5.40295c0.82162,-5.0476 2.30845,-10.05525 3.55804,-15.06141c2.92213,-8.83103 3.05168,-19.29191 3.83391,-28.50331c0.32037,-3.77256 1.35577,-8.20541 -0.3061,-11.66734c0,0 -0.4913,-1.04447 -1.60933,-0.48543c-1.11803,0.55903 -0.55739,1.67547 -0.55739,1.67547c1.06039,2.0077 0.76526,4.87617 0.41636,7.48295c-0.26275,-0.09872 -0.49266,-0.09899 -0.49266,-0.09899l-0.79486,0.06347c-1.28917,0.44082 -2.53889,1.01555 -3.77574,1.6609c-0.11978,-0.1856 -0.34673,-0.35686 -0.49004,-0.43989c-0.22593,-0.32344 -0.51196,-0.48946 -0.93643,-0.48946c-0.14845,0 -0.29069,0.02555 -0.42279,0.07304l-1.10805,0.29545c0.37957,-0.34963 0.75557,-0.71093 1.12599,-1.08073c0,0 0.88494,-0.88577 0.00106,-1.76966c-0.88388,-0.88389 -1.68085,0.04944 -1.68085,0.04944c-6.55237,6.56375 -14.68792,9.64817 -23.27018,12.53248c-1.99709,-0.74039 -3.10711,-2.80809 -4.01609,-4.63044c-1.67907,-3.36623 -2.31399,-4.63768 -1.08754,-8.45678c-0.07574,-2.90491 2.39412,-4.93118 4.13505,-7.01365c5.01957,-6.00433 10.79229,-9.83922 17.77434,-13.39314c2.94645,-2.91318 7.85943,-5.09042 11.92815,-3.09783c0.89901,0.44028 1.45362,1.39418 2.2928,1.93994c1.17599,0.76481 3.61406,0.85675 4.57616,1.81888c0.14856,0.14856 0.30724,0.41043 0.39876,0.59798l-0.66241,0.22015c0,0 -1.18435,0.39444 -0.78905,1.58029c0.3953,1.18585 1.53077,0.70418 1.53077,0.70418l1.15546,-0.38642c0.00765,-0.0021 0.01531,-0.00422 0.02293,-0.00633c0.29136,0.12206 0.67538,0.1435 1.1222,-0.15438c0.21338,-0.14226 0.35446,-0.29943 0.44287,-0.45889c1.84983,-1.01066 2.27579,-2.62227 2.9224,-4.73877c4.02692,2.04026 8.63836,3.30075 12.20777,4.19315c7.29134,0.03172 15.43473,-1.54926 21.33967,-5.86628c0.00523,0.04754 0.01076,0.07503 0.01076,0.07503c0.72545,3.24839 2.25486,4.24927 4.94769,6.0983l0.61935,0.14808c0.00549,0.3104 0.13779,0.66272 0.57388,0.95344c1.04007,0.69337 1.73452,-0.3459 1.73452,-0.3459c3.92043,-5.93998 12.53775,-7.26655 18.8616,-4.74344c1.83851,0.73353 2.60118,3.49701 3.94218,4.85334c1.43755,2.13623 2.30205,4.6719 3.44716,6.96208c0.43167,0.86334 0.97941,1.11164 1.08993,2.05273c0.13353,1.1371 0.16059,2.24787 0.16592,3.35191c-0.56603,0.1252 -0.84893,0.69146 -0.84893,0.69146c-2.18114,4.36876 -4.20891,8.83352 -6.39701,13.20961l2.03084,0.88294l0.2055,0.23662c0.02015,-0.0403 -0.05829,-0.06376 -0.03816,-0.10407l0.10543,0.04572c0,0 0.45411,-0.45302 0.38604,-1.0356c0.05428,-0.11013 0.20665,-0.23925 0.26076,-0.34946l-0.23804,0.95365c-0.02877,0.10523 -0.04406,0.21631 -0.04406,0.33067c0,0.43553 0.22293,0.82012 0.56071,1.0439l-0.14682,0.77389c0,0 -0.18384,1.23787 1.05254,1.42189c1.23638,0.18402 1.32103,-1.04121 1.32103,-1.04121l0.0112,-0.32891c0.83267,-2.00886 1.39359,-3.28925 1.72068,-4.80287l0.34753,0.09915l0.67929,-2.37419c0.03641,-0.11726 0.0561,-0.24162 0.0561,-0.37086c0,-0.40923 -0.19641,-0.7716 -0.50037,-0.99963c0.0494,-0.13739 0.19371,-0.30227 0.24004,-0.44107c0.7646,2.6521 2.06837,5.33889 3.22721,7.64905c0.96472,1.42727 3.48897,5.25434 3.43159,6.97853c-0.04138,1.24327 -0.79742,2.81331 -1.15022,4.05384c-0.36539,1.28481 -0.73492,2.97045 -1.46347,4.0958c-2.30354,3.55816 -8.25845,4.20333 -11.98496,4.22222c-2.15193,-0.5523 -4.50306,-1.22517 -6.20594,-2.67575c-0.13612,-0.54918 -0.68546,-0.82299 -0.68546,-0.82299l-0.1158,0.03016c-0.20631,-0.23854 -0.40032,-0.49359 -0.58005,-0.76855c-0.45589,-0.69744 -0.84202,-1.4521 -1.34467,-2.11372c-0.02677,-0.05256 -0.05319,-0.10506 -0.07917,-0.15784c-0.0231,-0.18357 -0.09883,-0.52241 -0.3464,-0.77954c-0.49424,-1.26553 -0.63504,-2.5357 0.14621,-3.59018c0,0 0.69341,-1.03777 -0.34665,-1.73116c-0.09431,-0.06288 -0.18578,-0.11129 -0.27414,-0.14773z" fill="#0024a3" stroke-width="0.5"></path>
      <path d="M204.43678,220.08278c0.04648,-0.45134 0.13297,-0.89663 0.24874,-1.337c-0.17083,-0.21377 -0.27297,-0.48484 -0.27297,-0.77976c0,-0.01762 0.00036,-0.03515 0.00109,-0.05259l0.05184,-1.42536l0.04303,0.00156l-0.03356,-0.11618c0.73235,-3.29496 1.66751,-6.52816 2.4146,-9.80721c0.19824,-0.8701 -0.07228,-1.89252 0.40535,-2.64634c0.0498,-0.07859 0.10389,-0.15325 0.16172,-0.2245l-0.03411,-0.02274l0.78923,-1.18388c0.06413,-0.0993 0.14194,-0.18892 0.23078,-0.26621c-0.26428,-4.51709 0.56371,-9.27284 1.18261,-13.63333c0,0 0.17677,-1.23744 1.41421,-1.06066c1.23744,0.17677 1.06066,1.41421 1.06066,1.41421c-0.55661,3.86983 -1.33655,8.16856 -1.21869,12.24509c0.37028,0.13161 0.66018,0.43284 0.77623,0.8102l0.39088,1.17265l-0.0754,0.02513l0.1234,0.16992c0.00234,0.81106 -0.15044,1.62183 -0.40628,2.40712l0.3851,0.09627l-0.39365,1.57462c-0.10583,0.46634 -0.47238,0.83364 -0.93831,0.94056c-0.01142,0.04392 -0.02289,0.08781 -0.03441,0.13165c-0.13892,1.55321 -0.38268,3.14398 -0.51246,4.61907c0.19666,0.22086 0.31614,0.51194 0.31614,0.83093v1.60001h-0.17867l0.12504,0.36222c-0.08064,0.06515 -0.16127,0.1303 -0.24191,0.19544l-0.01025,0.07179l0.09587,0.06391l-0.13363,0.20046l-0.02255,0.15782l-0.07548,-0.01078l-0.18968,0.28453c0.12611,0.8959 -0.17646,1.68152 -0.16872,3.07461v2.39999c0,0.52726 -0.32645,0.97827 -0.78825,1.16195c-0.0379,0.27759 -0.11303,0.54162 -0.23251,0.77625c-0.0038,0.10764 -0.01353,0.21086 -0.02955,0.30877c0.06431,0.20111 0.12675,0.38814 0.18616,0.55776l0.39077,1.17233c0.04749,0.1321 0.07337,0.27451 0.07337,0.42296c0,0.69036 -0.55964,1.25 -1.25,1.25c-0.14333,0 -0.28103,-0.02412 -0.40926,-0.06853c-0.16127,0.50379 -0.6334,0.86852 -1.19072,0.86852c-0.59487,0 -1.09269,-0.41554 -1.21902,-0.97218l-0.09849,-0.39393l-0.08403,0.01185c-0.34637,-0.84767 -1.04616,-1.62733 -1.03911,-2.543c0.00039,-0.05106 0.00185,-0.10197 0.0043,-0.15273h-0.01367v-0.10493l-0.26803,-0.53607l0.04927,-0.02464c-0.03453,-0.03357 -0.06906,-0.06713 -0.1036,-0.1007l0.01526,-0.14441l-0.05558,0.01389l-0.3932,-1.57281c-0.02876,-0.10523 -0.04412,-0.216 -0.04412,-0.33036c0,-0.52609 0.325,-0.97627 0.78518,-1.16072c0.13953,-0.29116 0.28657,-0.53027 0.43903,-0.72252z" fill="#001769" stroke-width="0.5"></path>
      <path d="M205.67685,175.73822c-0.39222,-0.31698 -0.49831,-0.66433 -0.48532,-0.96593c-0.07188,0.01955 -0.14633,0.03286 -0.22273,0.03929c-0.70181,0.19386 -1.39326,0.1637 -1.98978,-0.19898c-0.64174,-0.39019 -1.02066,-0.9135 -1.19458,-1.51039c-0.15883,0.07307 -0.3356,0.11382 -0.52189,0.11382c-0.15008,0 -0.294,-0.02645 -0.42732,-0.07495l-0.80689,0.61298c-0.21156,0.16421 -0.47725,0.26197 -0.76579,0.26197c-0.47089,0 -0.88096,-0.26038 -1.0941,-0.645c-0.48419,0.36368 -1.01197,0.60543 -1.50565,0.62886c-0.45732,0.0217 -0.87123,-0.16799 -1.27272,-0.41806c-0.0143,0.0232 -0.02885,0.04591 -0.04363,0.06808l-0.24848,0.06922l0.05797,0.08696l-0.33105,0.2207c-0.06343,0.15987 -0.1589,0.30355 -0.27847,0.42312l-1.6,1.59999l-0.1572,-0.1572l-0.52377,0.60009c-0.12724,0.16562 -0.25613,0.32996 -0.38696,0.49407c-0.4232,0.65548 -0.73231,1.43605 -1.38717,1.83755c-0.04409,0.02704 -0.08948,0.04944 -0.136,0.06782l0.028,0.03361l-0.36956,0.30797c-0.152,0.18142 -0.30706,0.36721 -0.46544,0.55838l-0.19643,0.03555l0.05179,0.07742l-1.032,0.69039c-0.20149,0.13906 -0.4458,0.22048 -0.70914,0.22048c-0.69036,0 -1.25,-0.55964 -1.25,-1.25c0,-0.00575 0.00004,-0.01149 0.00011,-0.01722l-0.35012,0.06723c0,0 -1.25,0 -1.25,-1.25c0,-1.25 1.25,-1.25 1.25,-1.25l-0.29336,0.20994c0.63148,-0.41681 1.22106,-0.8996 1.77353,-1.41911c-0.3433,-0.13689 -0.73017,-0.44543 -0.73017,-1.14084c0,-0.14932 0.01784,-0.28081 0.04925,-0.39658c-0.30326,-0.08363 -0.61629,-0.30168 -0.7851,-0.80815c-0.24549,-0.73648 0.11889,-1.16803 0.43029,-1.38934c-0.33568,-0.10126 -0.69644,0.15641 -1.0442,0.22792l-1.00496,0.352c0,0 -1.18585,0.39529 -1.58114,-0.79056c-0.02075,-0.06224 -0.03714,-0.12231 -0.04958,-0.18025c-0.23308,0.19399 -0.57549,0.32071 -1.06776,0.19763c-1.21267,-0.30319 -0.90948,-1.51586 -0.90948,-1.51586l0.44034,-1.73051c0.64417,-1.29911 1.35493,-2.56573 2.1005,-3.80943c0,0 0.64312,-1.07187 1.71498,-0.42874c1.07187,0.64312 0.42874,1.71499 0.42874,1.71499c-0.0833,0.1387 -0.16631,0.2776 -0.24894,0.41675c-0.05687,0.26896 -0.20022,0.50601 -0.3996,0.68068c-0.17196,0.29668 -0.34157,0.59472 -0.50799,0.8945c0.08612,0.16968 0.13465,0.36164 0.13465,0.56494c0,0.59479 -0.41542,1.09255 -0.97195,1.21896l-0.1266,0.5172c0.14251,-0.0851 0.25324,-0.12201 0.25324,-0.12201l1.39507,-0.44801c0.97704,0.07327 2.06844,-0.2447 2.93112,0.21981c0.45066,0.24266 0.61967,0.79619 0.74471,1.33428c0.25401,-0.05367 0.5089,-0.1033 0.76445,-0.15022c0.31391,-0.22966 0.64097,-0.36371 1.00217,-0.4434l-0.03749,-0.11246l1.1723,-0.39077c0.1321,-0.04749 0.27451,-0.07337 0.42297,-0.07337c0.30246,0 0.57984,0.10743 0.79604,0.2862l1.52009,-1.52009l0.48546,0.48546c0.37851,-0.20539 0.75807,-0.40733 1.12932,-0.61563l-0.09446,0.69801c0.16934,-0.08569 0.36083,-0.13395 0.56358,-0.13395c0.43839,0 0.82406,0.22567 1.0472,0.56718c0.39139,-0.22544 0.84896,-0.42056 1.31785,-0.58705l-0.12408,-0.24817l1.57752,-0.78875c0.17371,-0.09145 0.37156,-0.14321 0.58151,-0.14321c0.3322,0 0.63413,0.12958 0.858,0.34096c0.06276,-0.14058 0.15071,-0.26744 0.25811,-0.37485v0l0.31742,-0.31743c-0.71615,-0.80212 0.03955,-1.63735 0.03955,-1.63735l0.05394,-0.05933c0.05412,-0.51343 0.47274,-0.86229 0.47274,-0.86229c0.26203,-0.21836 0.52406,-0.43671 0.78609,-0.65507c1.49034,-2.14711 3.08813,-3.99097 3.58844,-6.62981c0,0 0.24515,-1.22572 1.47088,-0.98056c1.22573,0.24516 0.98057,1.47088 0.98057,1.47088c-0.15804,0.75798 -0.381,1.45665 -0.65303,2.11666c0.60862,0.08411 1.07729,0.6064 1.07729,1.23817c0,0.28596 -0.09602,0.54949 -0.25758,0.76011l-1.19243,1.5899l-0.2663,-0.19972c-0.40494,0.6828 -0.86025,1.25668 -1.43457,1.88091c0.15106,0.01317 0.29507,0.04776 0.4301,0.10574c0.61115,-0.52544 1.10247,-1.50433 1.87077,-1.38694c3.67486,0.56148 2.24794,3.44834 1.56465,5.29916c-0.63685,1.72502 -1.60053,3.01783 -2.5925,4.53674l-0.79995,0.99981c0,0 -0.78571,0.97219 -1.7579,0.18648zM209.283,167.29465c0.07503,-0.19849 0.08721,-0.26717 -0.02023,-0.079c0.00758,0.02599 0.01432,0.05234 0.02023,0.079z" fill="#001769" stroke-width="0.5"></path>
      <path d="M176.46256,177.61603c-0.53062,0 -0.83599,-0.22525 -1.01173,-0.48451c-0.12543,0.1617 -0.28967,0.29179 -0.47874,0.37628c0.00284,0.16936 0.00576,0.33944 0.00827,0.51053c0.04764,0.17637 0.09406,0.35492 0.13827,0.53645l0.16963,-0.03393l0.39496,1.97469c0.01921,0.0871 0.02934,0.1776 0.02934,0.27047c0,0.69036 -0.55964,1.25 -1.25,1.25c-0.56229,0 -1.03787,-0.37127 -1.19496,-0.88204l-0.39091,-1.17265l0.03724,-0.01241l-0.06041,-0.06543c-0.21337,-1.10487 -0.51043,-2.08297 -0.76046,-3.06782c-0.01014,0.00025 -0.02032,0.00036 -0.03053,0.00036c-0.69036,0 -1.25,-0.55964 -1.25,-1.25c0,-0.06741 0.00534,-0.13356 0.01561,-0.19807l0.35053,-2.45359l0.23687,0.03384c0.03377,-0.77789 0.13071,-1.51732 0.30268,-2.31233c0.09213,-0.7396 0.25409,-1.34492 0.52205,-1.93329c0.03151,-0.10064 0.064,-0.20276 0.09749,-0.30647l-0.23583,-0.09432l0.78918,-1.97297c0.17726,-0.47474 0.63486,-0.8128 1.17141,-0.8128c0.69036,0 1.25,0.55964 1.25,1.25c0,0.11497 -0.01552,0.22631 -0.04458,0.33204l-0.40258,1.60106l-0.01877,-0.00472l0.00277,0.02168c0.00439,-0.00005 0.00878,-0.00007 0.01317,-0.00007c0.69036,0 1.25,0.55964 1.25,1.25c0,0.14846 -0.02588,0.29086 -0.07337,0.42297l-0.39077,1.17231l-0.00001,-0.00001l0.00001,0.00002c-0.02318,0.06954 -0.0456,0.13872 -0.0673,0.20755l0.06729,0.20186l-0.1432,0.04774c-0.02882,0.09829 -0.05616,0.19589 -0.0821,0.29286c0.87612,0.06433 1.06516,1.00956 1.06516,1.00956c-0.03021,0.09482 -0.06042,0.18964 -0.09063,0.28446c0.14371,-0.05761 0.30061,-0.08931 0.46491,-0.08931c0.69036,0 1.25,0.55964 1.25,1.25c0,0.14846 -0.02588,0.29086 -0.07337,0.42296l-0.39077,1.17231l0.06414,0.00473c0,0 0,1.25 -1.25,1.25z" fill="#001769" stroke-width="0.5"></path>
      <path d="M230.07429,149.91819c0,0.69036 -0.55964,1.25 -1.25,1.25c-0.10392,0 -0.20487,-0.01268 -0.3014,-0.03658l-1.5353,-0.3462l0.0087,-0.03859c-0.07552,-0.00842 -0.1509,-0.01895 -0.22613,-0.03186c-0.71537,-0.12279 -1.32592,-0.73327 -1.93736,-1.30791l-0.76552,-0.25519l0.09466,-0.28395l-0.11988,-0.07991c-0.4727,-0.11144 -0.86776,-0.28548 -1.23837,-0.535c-1.10407,-0.2048 -2.27703,-0.21145 -3.25321,-0.74667c-0.47694,-0.2615 -1.13053,-0.45265 -1.62015,-0.74864c0.44439,-0.31039 0.86878,-0.60722 1.39431,-0.59083c1.23236,0.03843 6.17658,3.07701 9.07537,3.17151c0.52922,0.01725 1.046,0.02997 1.55115,0.03816c0.07892,0.16387 0.12314,0.3476 0.12314,0.54166z" fill="#001769" stroke-width="0.5"></path>
      <path d="M245.57869,149.64992c-0.07825,-0.07825 -0.14264,-0.15649 -0.19502,-0.23412c-0.34372,-0.22274 -0.57113,-0.60969 -0.57113,-1.04977c0,-0.28596 0.09602,-0.54949 0.25758,-0.76011l0.06287,-0.08383c2.26112,-0.70505 4.46251,-1.61042 6.84076,-2.71694c-0.60596,1.49304 -2.75593,2.94296 -3.81498,4.03224l-0.81233,0.81252c0,0 -0.88388,0.88389 -1.76777,0.00002z" fill="#001769" stroke-width="0.5"></path>
      <path d="" fill="#001769" stroke-width="0.5"></path>
      <path d="M293.66255,176.41602c-0.69036,0 -1.25,-0.55964 -1.25,-1.25c0,-0.14846 0.02588,-0.29086 0.07337,-0.42296l0.39076,-1.17232l0.03895,0.01299l-0.00794,-0.09606c0.36187,-0.72371 1.21576,-1.35277 1.11592,-2.15573c-0.00846,-0.06805 -0.02121,-0.13093 -0.03787,-0.18912c-0.26731,-0.0407 -0.49654,-0.18459 -0.71177,-0.36799c-0.66006,0.0459 -1.32502,0.29789 -1.99221,0.36917c-0.13104,0.04664 -0.27216,0.07202 -0.4192,0.07202c-0.52763,0 -0.97892,-0.32691 -1.16234,-0.78923l-0.31492,-0.20995c-0.34463,-0.22257 -0.57276,-0.61006 -0.57276,-1.05082c0,-0.56231 0.37129,-1.03789 0.88207,-1.19497l1.12313,-0.37436c0.31946,-0.51691 0.78449,-1.00674 1.05501,-1.53276l0.27256,0.07823c0.09661,-0.0678 0.20325,-0.12229 0.31726,-0.16076v-0.06537h2c0.56011,0 1.03418,0.36839 1.19312,0.87609c2.17239,0.27428 4.73537,3.60114 2.23428,5.05505c-0.17039,0.09905 -0.34617,0.15351 -0.52627,0.17337c0.44086,0.19315 0.74886,0.63335 0.74886,1.14549c0,0.11435 -0.01535,0.22512 -0.04412,0.33035l-0.38836,1.55347c-0.1096,0.51441 -0.30737,1.00859 -0.56821,1.47604l-0.20196,0.80505l0.1927,0.12846l-0.78924,1.18387c-0.22256,0.34463 -0.61005,0.57276 -1.05082,0.57276c-0.69036,0 -1.25,-0.55964 -1.25,-1.25c0,-0.09286 0.01013,-0.18336 0.02934,-0.27045l0.29542,-1.47714c-0.19464,0.12506 -0.42622,0.19759 -0.67476,0.19759z" fill="#001769" stroke-width="0.5"></path>
      <path d="M279.31254,197.16602c0,1.25 -1.25,1.25 -1.25,1.25h-0.00225c0.02148,0.19858 0.01475,0.39395 -0.01346,0.58686l0.04146,0.00829l-0.39545,1.9773c-0.10493,0.58423 -0.61583,1.02756 -1.23027,1.02756c-0.36954,0 -0.70162,-0.16036 -0.93047,-0.41528l-1.0097,-1.11593l0.0197,-0.01784l-0.07896,-0.05272c-1.92556,-2.88067 -3.15656,-6.21809 -5.04064,-8.95486c0,0 -0.69337,-1.04006 0.3467,-1.73343c0.1077,-0.0718 0.21169,-0.12502 0.31157,-0.16272c0.04291,-0.28462 0.09778,-0.56939 0.15048,-0.85446c-0.22904,-1.59271 -0.19314,-3.12385 0.15121,-4.35962c0.01946,-0.10466 0.04376,-0.20854 0.07373,-0.31152l0.38734,-1.54941c0.12632,-0.55666 0.62414,-0.97221 1.21902,-0.97221c0.69036,0 1.25,0.55964 1.25,1.25c0,0.11435 -0.01535,0.22513 -0.04411,0.33036l-0.3932,1.57281l-0.02572,-0.00643l0.01319,0.05275c-0.05672,0.14516 -0.0899,0.29437 -0.10649,0.44649c0.11099,0.52269 0.11526,1.11418 0.15296,1.61219c0.20665,2.72962 1.13189,9.29876 4.75338,9.14183h0.39999c0,0 1.25,0 1.25,1.25z" fill="#001769" stroke-width="0.5"></path>
      <path d="M288.47669,179.96131c0,0 -0.39528,-1.18586 0.79058,-1.58114c1.18586,-0.39528 1.58114,0.79058 1.58114,0.79058c0.44389,1.34426 0.70617,2.61433 0.81953,3.83927c0.09496,0.08007 0.17782,0.17405 0.24545,0.27876l0.49234,0.73852c0.14113,-0.05525 0.29476,-0.08557 0.45547,-0.08557c0.68999,0 1.2494,0.55905 1.24999,1.2489c0,0.00005 0,0.0001 0,0.00014l0.00029,0.32619c0.66768,0.0257 1.20107,0.57509 1.20107,1.24906c0,0.09286 -0.01013,0.18336 -0.02934,0.27045l-0.39493,1.97469l-0.12704,-0.02541l0.01626,0.01666c-0.06528,0.216 -0.13137,0.43176 -0.1982,0.64729c-0.01966,0.49211 -0.05738,0.98808 -0.11564,1.48096c0.17017,0.50474 -0.09068,1.00935 -0.09068,1.00935l-0.09024,0.16622c-0.05004,0.26083 -0.10663,0.51915 -0.17017,0.77387v0.48592c0,0.39009 -0.17869,0.73845 -0.45868,0.96768c-0.93655,2.39648 -2.6654,4.20235 -5.59134,4.28232h-1.59998c-0.69036,0 -1.25,-0.55964 -1.25,-1.25c0,-0.50907 0.30432,-0.94707 0.74097,-1.142c-0.21138,-0.22387 -0.34097,-0.5258 -0.34097,-0.858c0,-0.26266 0.08101,-0.50639 0.21941,-0.70759l0.7905,-1.18578l0.06506,0.04337l0.30217,-0.4029c1.85458,-4.60773 3.1769,-8.3369 1.48699,-13.35183zM289.37592,194.37356c0.43214,-0.41542 0.85688,-0.85535 1.29093,-1.34007l0.04993,-0.5233l0.09731,0.00929c-0.00142,-0.14335 -0.00897,-0.30823 -0.02087,-0.49056c-0.25353,0.46685 -0.55417,0.94865 -0.91024,1.45908c-0.18751,0.2688 -0.33431,0.59264 -0.50706,0.88556z" fill="#001769" stroke-width="0.5"></path>
      <path d="M273.5806,176.92505c-0.55901,1.11803 -1.67705,0.55901 -1.67705,0.55901l-1.28107,-0.82467c-0.42732,-0.64097 -0.87725,-1.27225 -1.32409,-1.90546c-0.80174,0.34418 -1.40607,-0.39977 -1.40607,-0.39977l-0.97084,-1.1961c-0.95644,-1.34787 -1.79974,-2.79566 -2.41953,-4.32779c0,0 -0.46425,-1.16059 0.69635,-1.62484c0.32533,-0.13013 0.59594,-0.1326 0.81695,-0.06874c-0.00031,-0.0977 0.00837,-0.20759 0.03424,-0.32074c-0.68435,-0.007 -1.23695,-0.56393 -1.23695,-1.24993c0,-0.14846 0.02588,-0.29089 0.07338,-0.42299l0.3908,-1.17231l0.03706,0.01235l-0.00074,-0.10806c0.09997,-0.18993 0.2069,-0.38007 0.32107,-0.56758l-0.61,0.10432c-0.07588,0.01439 -0.1542,0.02192 -0.23426,0.02192c-0.48417,0 -0.90404,-0.27527 -1.11166,-0.67785c-0.5023,-0.16214 -0.86566,-0.63353 -0.86566,-1.1898c0,-0.01113 0.00014,-0.02223 0.00043,-0.03329c-0.44564,-0.17183 -0.76805,-0.59164 -0.79812,-1.09029c-0.19503,-0.01205 -0.41158,-0.08029 -0.64569,-0.23637c-1.04005,-0.69339 -0.34667,-1.73345 -0.34667,-1.73345l0.64077,-0.95308c-0.03299,-0.1121 -0.05069,-0.23075 -0.05069,-0.35353c0,-0.26266 0.08101,-0.50639 0.21941,-0.70759l0.1952,-0.2928l0.0449,-0.1782c0.26821,-0.80557 0.53641,-1.61112 0.80461,-2.41669c0,0 0.28206,-0.84619 1.08445,-0.87071c0.22745,-0.2367 0.54724,-0.38401 0.90143,-0.38401c0.36497,0 0.6934,0.15642 0.92193,0.40587c0.63313,0.0613 1.12806,0.59491 1.12806,1.24412c0,0.14846 -0.02589,0.29086 -0.07337,0.42297l-0.39076,1.17231l-0.01537,-0.00512l0.00325,0.03978c-0.1948,0.48327 -0.34354,0.91253 -0.48698,1.2925c0.56324,0.34288 0.56324,1.07756 0.56324,1.07756c-0.0069,0.29418 -0.01381,0.58838 -0.02071,0.88256c0.29858,0.12341 0.53893,0.35916 0.66835,0.65456l1.372,-0.343c0.10523,-0.02876 0.21601,-0.04412 0.33036,-0.04412c0.69036,0 1.25,0.55964 1.25,1.25c0,0.26266 -0.08102,0.5064 -0.21942,0.7076l-0.89605,1.34407c0.11509,0.06122 0.23223,0.14731 0.34937,0.26445c0.88387,0.88389 -0.00002,1.76776 -0.00002,1.76776l-0.9339,0.91611l-0.77208,0.57906c0.62505,0.1812 0.824,0.87753 0.824,0.87753c0.67007,2.40171 1.79328,3.97303 3.06997,6.10028l0.21202,0.15923c0,0 0.58693,0.58693 0.32594,1.28252c0.21696,0.30325 0.42863,0.60559 0.63022,0.90799l0.31898,-0.02465c0,0 1.11803,0.55902 0.55901,1.67706z" fill="#001769" stroke-width="0.5"></path>
      <path d="M233.64854,233.11338l-0.46059,0.27533c-0.19135,0.11897 -0.4172,0.18768 -0.65909,0.18768c-0.25664,0 -0.49521,-0.07734 -0.69368,-0.20998l-0.61578,0.12326c-0.08716,0.01924 -0.17773,0.02938 -0.27067,0.02938c-0.69036,0 -1.25,-0.55964 -1.25,-1.25c0,-0.09503 0.0106,-0.18758 0.03069,-0.27653c-0.35397,0.48294 -0.69693,0.97171 -1.02682,1.46691c0,0 -0.69338,1.04006 -1.73344,0.34668c-1.04006,-0.69338 -0.34668,-1.73344 -0.34668,-1.73344c1.02184,-1.53166 2.16161,-3.00334 3.36418,-4.4321c-0.02188,-0.54454 0.392,-0.95842 0.392,-0.95842c1.15089,-1.14504 2.31081,-2.24334 3.46229,-3.33702c0.59345,-0.63304 1.18821,-1.26056 1.7787,-1.88431c0.0327,-0.30111 0.21596,-1.14478 1.2429,-1.14478c0.03696,0 0.07283,0.00109 0.10763,0.00321c0.36812,-0.36787 0.73361,-0.73939 1.09584,-1.11607c0.06035,-0.19928 0.16913,-0.37752 0.31264,-0.52103l1.1532,-1.1532c0.38798,-0.51522 0.82993,-0.98511 1.30611,-1.42287c0.01293,-0.01569 0.02584,-0.0314 0.03876,-0.04712l-0.15201,-0.12161l1.55453,-1.94315c0.22886,-0.29115 0.58424,-0.47815 0.9833,-0.47815c0.10494,0 0.20685,0.01293 0.30424,0.03728c1.55678,-1.46588 3.31175,-2.87702 4.48886,-4.31391c0.03723,-0.13789 0.09745,-0.26634 0.17631,-0.38097l0.79051,-1.18579h0.00001v-0.00002l0.00001,-0.00001h-0.00001l0.78926,-1.18387c0.11477,-0.17771 0.2734,-0.32445 0.46058,-0.42489c0.02859,-0.04584 0.0572,-0.09167 0.08583,-0.13749c0.59918,-1.49782 1.7395,-2.99867 2.87685,-4.38126c0.04678,-0.06689 0.09367,-0.1337 0.14068,-0.20044l0.75671,-1.51344c0.12242,-0.25825 0.33075,-0.46784 0.58807,-0.59187l0.1562,-0.46862l0.19192,0.06397l0.00055,-0.42744c0.13539,-0.0407 0.27078,-0.0814 0.40616,-0.12211l-0.10615,-0.15922l1.00347,-0.66896c0.41908,-2.51271 1.79723,-5.06486 2.49692,-7.46421l0.01748,-0.01859l-0.01036,-0.00345l0.39091,-1.17267c0.15708,-0.51074 0.63261,-0.88199 1.19485,-0.88204c0.2491,-0.66594 0.63115,-1.33691 0.80193,-1.90617c0.59177,-1.97255 1.07823,-3.96734 1.59003,-5.96466c0.52303,-2.04115 1.61118,-2.82394 1.56749,-5.0319l0.0822,-0.13688l-0.05425,-0.01356l0.39365,-1.57462c0.12632,-0.55665 0.62414,-0.9722 1.21902,-0.9722c0.51619,0 0.9593,0.31288 1.15002,0.75934v-1.50934c0,-0.69036 0.55964,-1.25 1.25,-1.25c0.44077,0 0.82825,0.22813 1.05082,0.57276l0.78923,1.18387l-0.04227,0.02818c0.07319,0.09532 0.13985,0.19593 0.19857,0.30296c0.37887,0.6905 0.04532,1.57466 0.05363,2.36223c0.00509,0.4821 -0.00256,0.96241 -0.01892,1.4415c0.0048,0.01533 0.00943,0.03074 0.01387,0.04625c0.03514,0.12264 0.00573,0.48168 -0.05975,0.95955c-0.11425,2.05063 -0.3373,4.08632 -0.35133,6.15292l-0.13606,0.1657l0.08806,0.02935l-0.39088,1.17267c-0.11754,0.38221 -0.41342,0.6863 -0.79051,0.81518c-0.70774,3.48502 -1.5222,6.93267 -2.84472,10.25743l-0.08849,0.08881l0.027,0.01745l-1.2373,1.91446c-0.15131,0.24225 -0.38328,0.42894 -0.65832,0.52246c-1.83997,4.77492 -4.23051,9.36363 -7.03315,13.60532l-0.10735,0.0731l0.02174,0.02174l-1.76777,1.76777c-0.22621,0.22621 -0.53871,0.36612 -0.88388,0.36612c-0.40623,0 -0.7672,-0.19378 -0.99551,-0.49394c-0.72644,0.87409 -1.48618,1.71144 -2.28328,2.49955c-1.01232,1.51986 -2.03296,3.04599 -3.08506,4.5478c0.01583,0.07944 0.02414,0.1616 0.02414,0.2457c0,0.06428 -0.00485,0.12743 -0.01421,0.1891l-0.23969,1.76248l-0.04709,-0.0064c-0.00655,0.10423 -0.01798,0.20837 -0.03506,0.31243c-0.1201,0.73173 -0.91124,1.17324 -1.30505,1.80154c-0.86428,1.37894 -1.55597,2.85879 -2.33517,4.28754l-1.09884,2.19677c-0.20047,0.4227 -0.63113,0.71501 -1.13005,0.71501c-0.26704,0 -0.51452,-0.08374 -0.71762,-0.22639c-0.31388,0.10123 -0.62661,0.19455 -0.93846,0.28031c-0.45206,0.15536 -0.9845,0.29646 -1.67014,0.46795l-1.13816,0.37939c-0.1321,0.04749 -0.27451,0.07337 -0.42297,0.07337c-0.25693,0 -0.49576,-0.07752 -0.69437,-0.21044c-0.83511,0.07706 -1.67306,0.11059 -2.51964,0.1078zM231.31242,229.9781c-0.00253,-0.00592 -0.00502,-0.01186 -0.00747,-0.01782c-0.08009,0.09823 -0.15982,0.19667 -0.23917,0.29534zM242.60859,218.0692c-0.12663,0.08666 -0.25382,0.17213 -0.38157,0.25639c-0.06989,0.08151 -0.13995,0.1627 -0.2102,0.24357c0.05526,0.04188 0.10694,0.08825 0.15448,0.13856c0.14348,-0.21262 0.28932,-0.42507 0.43729,-0.63853zM258.46912,198.93687c0.01011,-0.0338 0.02028,-0.0676 0.03052,-0.1014c-0.06615,0.08283 -0.13389,0.16079 -0.20328,0.23345c-0.00107,0.00157 -0.00214,0.00314 -0.00322,0.0047l-0.197,0.2955c-0.0134,0.08203 -0.03479,0.16137 -0.06334,0.2372c0.14464,-0.22458 0.29006,-0.44766 0.43632,-0.66945zM253.43395,207.78472c-0.03107,0.05146 -0.06218,0.1029 -0.09332,0.1543c0.0094,0.00291 0.01876,0.00593 0.02806,0.00906c0.02129,-0.05431 0.04305,-0.10877 0.06526,-0.16336z" fill="#001769" stroke-width="0.5"></path>
      <path d="M241.61099,156.63652c0.10706,0.02556 0.21619,0.05777 0.32896,0.09729l0.11787,-0.35363l1.17267,0.39088c0.29793,0.09162 0.5484,0.29161 0.70542,0.55396l0.41439,0.02514c-0.08381,0.13488 -0.16893,0.26994 -0.25549,0.40481c0.01167,0.06861 0.01774,0.13913 0.01774,0.21106c0,0.24274 -0.06919,0.46931 -0.18892,0.66108l0.2228,0.2228l-1.76777,1.76777l-0.26787,-0.26787c-0.59272,0.61813 -1.24869,1.16212 -1.98575,1.57751l-0.17569,-0.01401l0.01635,0.0654l-1.57281,0.3932c-0.10523,0.02876 -0.216,0.04412 -0.33036,0.04412c-0.35372,0 -0.67313,-0.14692 -0.90052,-0.38307c-0.45578,0.18478 -0.90686,0.31953 -1.34854,0.37293c0.05831,1.0719 0.0125,2.17196 -0.10092,3.27239v1.58776h-0.20695c-0.05355,0.34453 -0.11207,0.68778 -0.1744,1.02887c0.04569,1.94223 -0.18061,3.90112 -0.58047,5.85561c0.103,0.1817 0.1618,0.39174 0.1618,0.61552c0,0.11436 -0.01536,0.22513 -0.04412,0.33036l-0.59953,2.39816l-0.33168,-0.08292c-0.03738,0.12907 -0.07529,0.25807 -0.11369,0.38699c-0.52494,3.25071 -1.70578,6.43409 -3.0186,9.54159c-0.28109,0.78383 -0.56946,1.57422 -0.91759,2.29822c-1.12389,3.33323 -2.21696,6.66302 -3.42996,9.95914c0.03587,0.11647 0.05519,0.2402 0.05519,0.36845c0,0.14845 -0.02588,0.29086 -0.07337,0.42296l-0.38005,1.14017c-0.16256,0.61513 -0.47941,1.17609 -0.88256,1.68726l-0.00615,0.02152l0.3322,0.22147l-0.78926,1.18387c-0.18215,0.28204 -0.47475,0.48605 -0.81662,0.55084c-0.00293,0.0077 -0.00586,0.01543 -0.00878,0.02318c-0.19069,1.09477 -0.39167,2.18377 -0.63774,3.26417c-0.08491,0.58096 -0.16468,1.14048 -0.22078,1.53595l0.18354,0.02294l-0.30803,2.46424c-0.06895,0.62514 -0.59889,1.11141 -1.2424,1.11141c-0.69036,0 -1.25,-0.55964 -1.25,-1.25c0,-0.01172 0.00016,-0.0234 0.00048,-0.03504l0.04633,-1.92023l0.029,0.0007l-0.02506,-0.07419c0.13263,-0.93381 0.26331,-1.79207 0.41203,-2.59266c0.05104,-2.13929 0.81462,-4.51944 1.15771,-6.40392c1.04835,-5.75832 3.61579,-10.82423 5.65717,-16.20834c1.42926,-3.76965 1.56142,-8.2836 2.3528,-12.24055c0.12288,-0.49153 0.24576,-0.98306 0.36864,-1.47459c0.00029,-0.00322 0.00058,-0.00644 0.00086,-0.00967c-0.00114,-2.75518 -0.02776,-4.93861 0.38737,-7.19894c0.00282,-0.17148 0.00517,-0.34316 0.00705,-0.51507c-1.25614,-0.68027 -2.35241,-3.35102 -2.88838,-4.97587c-0.01856,-0.01628 -0.03716,-0.03267 -0.05581,-0.04918l-0.07744,-0.05163c-0.13864,-0.08954 -0.25842,-0.20576 -0.35208,-0.3414c-0.29679,-0.27936 -0.60753,-0.58606 -0.94144,-0.92093l-1.10649,-0.73766c-0.34463,-0.22257 -0.57276,-0.61005 -0.57276,-1.05082c0,-0.69036 0.55964,-1.25 1.25,-1.25c0.20995,0 0.4078,0.05176 0.58151,0.14321l1.30567,0.65283c0.2281,-0.24373 0.55268,-0.39605 0.91284,-0.39605c0.41416,0 0.78128,0.20142 1.00874,0.51165l0.51978,0.69306c0.8981,-0.00875 2.16741,-0.01101 2.71087,0.0454c0.22929,-0.27506 0.5745,-0.4501 0.9606,-0.4501c0.69036,0 1.25,0.55964 1.25,1.25v0.92922c0.03654,0.0758 0.06797,0.15218 0.09436,0.22901c0.03886,0.00447 0.07719,0.01072 0.11488,0.01867c0.07667,-0.08757 0.16538,-0.16433 0.26353,-0.22772l2.06399,-1.376l0.25975,0.38962c0.89074,-0.62847 1.8512,-1.14781 2.86333,-1.50411z" fill="#001769" stroke-width="0.5"></path>
      <path d="" fill="#000000" stroke-width="0.5"></path>
      <path d="" fill="#000000" stroke-width="0.5"></path>
      <path d="M247.45048,238.79575c0.46464,1.07844 0.91504,2.16688 1.37218,3.22911l-0.20358,0.10436l-0.88521,0.59137h-0.02153v0.01439l-0.04917,0.03285l-0.10356,-0.03782c-5.7041,1.39454 -12.05844,2.43853 -17.9344,2.41798c-3.18874,-0.01115 -7.55927,-0.65451 -10.80507,0.47284c-0.1397,-0.43437 -0.51713,-0.77185 -0.9743,-0.85396l-1.98238,-0.40326l-0.00803,0.04077l-0.11415,-0.05934c-2.1512,-0.00603 -6.30113,1.11791 -8.68265,0.48671l-0.04668,-0.32454l0.2426,-1.38232c-0.91232,-0.02983 -1.8867,-0.09503 -2.86242,-0.2297c-0.26533,-0.25516 -0.53692,-0.50482 -0.8294,-0.72485c0,0 -0.95214,-0.71401 -1.69506,0.18047c-1.68204,-0.51999 -3.19825,-1.38549 -4.19518,-2.80554c0.67389,-1.39956 1.35417,-2.79986 2.04258,-4.19174c0.13566,0.22656 0.39623,0.38284 0.39623,0.38284c4.47663,3.70402 9.85829,5.0068 15.49886,5.81368l0.24622,0.27146c0,0 0.96591,0.67251 1.62127,-0.39191c0.26705,-0.43374 0.24788,-0.80891 0.13219,-1.09014c2.45212,0.03323 4.89523,0.34538 7.29841,0.28197c0.3958,0.2385 0.85975,0.17854 0.85975,0.17854c4.31518,-0.54107 8.47379,-0.76498 12.72226,-0.78483c1.40689,-0.00657 2.92561,-0.49913 4.36328,-0.70865c0.50589,0.49185 1.15433,0.24761 1.15433,0.24761c0.99328,-0.33333 2.02232,-0.5546 3.04995,-0.75881z" fill="#bdbdbd" stroke-width="0.5"></path>
      <path d="M246.37675,236.4065c-0.52752,0.10835 -1.05459,0.22486 -1.57711,0.3558c-0.16676,-0.03767 -0.28782,-0.03764 -0.28782,-0.03764l-0.40005,0.00017c-1.90878,0.01711 -3.85196,0.818 -5.67905,0.8082c-2.66866,-0.01432 -5.3212,0.10627 -7.988,0.31888c-0.05728,-0.10525 -0.13472,-0.21312 -0.23777,-0.3209c-0.86381,-0.90352 -1.7724,-0.0336 -1.7724,-0.0336l0.0399,0.12747c-4.12571,1.43356 -8.97253,-0.04228 -13.35887,0.31937c-1.93455,0.1595 -2.91162,0.68093 -4.7048,0.05286c0,0 -0.22691,-0.07628 -0.51506,-0.06224c-2.98833,-0.81007 -5.81443,-2.05389 -8.2829,-4.12758c0,0 -0.03361,-0.02817 -0.0935,-0.06742c0.0767,-0.15226 0.10594,-0.2699 0.10594,-0.2699l0.40007,-1.60365c0.32855,-1.31496 0.49549,-2.61918 0.64144,-3.91316c0.02294,0.00971 0.14382,0.04241 0.16828,0.05089c-0.0342,0.69534 0.63344,1.0935 0.63344,1.0935c9.60414,5.76039 19.66151,6.45868 30.54556,6.55629c2.71619,-0.01452 5.41801,-0.79778 7.99385,-1.65438l0.45744,-0.66031c0.01884,0.3705 0.18621,0.84416 0.85182,1.06603c1.18586,0.39529 1.48126,-0.79505 1.48126,-0.79505c0.00618,-0.01855 0.01233,-0.03699 0.01846,-0.05561c0.00067,0.00065 0.10131,0.00338 0.10199,0.00403c0.52202,0.91787 1.00225,1.87727 1.45789,2.84794z" fill="#750000" stroke-width="0.5"></path>
      <path d="M255.93877,259.32126l-0.82716,1.10435v0v0.00001c-1.30807,1.7694 -3.12916,3.28508 -5.12452,4.42287l-0.83781,0.41968c0,0 -0.09072,0.04564 -0.20741,0.13621c-0.79805,0.393 -1.61602,0.73065 -2.43073,0.9998c0,0 -0.29587,0.09943 -0.54263,0.34542c-7.55036,0.06376 -17.1341,1.20044 -23.66374,-2.89569c-0.16799,-0.10539 -0.34087,-0.2124 -0.51188,-0.31982c-0.69327,-0.62202 -1.34199,-1.35215 -1.90535,-2.19942c-0.05647,-0.08493 -0.05146,-0.25162 -0.1037,-0.33885c-0.2648,0.5607 -0.54453,1.13021 -0.84916,1.68017c-0.01433,-0.00049 -0.08675,0.08071 -0.1012,0.08071c-0.14845,0 -0.29202,0.02503 -0.42412,0.07252l-1.1747,0.38885l0.00792,0.02361l-0.04265,-0.01153c-1.03223,0.41609 -1.75407,0.70993 -2.30442,1.03067l-0.43688,0.14495c-0.01853,0.0057 -0.03693,0.01175 -0.05508,0.01828l-1.1735,0.3895v0v0c-0.81403,0.272 -1.63455,0.51304 -2.45392,0.75475c-2.15849,0.05266 -4.32107,0.18529 -6.46814,0.27961c-1.96866,-0.53328 -3.97099,-0.87298 -6.05029,-1.14914c-1.1225,-0.14909 -4.05031,-0.45311 -5.30315,-1.19855c0.33752,-1.05991 0.64436,-2.17604 0.89282,-3.3039c0.05379,0.18183 0.20879,0.34471 0.26891,0.52676l-0.05477,0.44658c0,0 0.00617,0.57269 0.39962,0.9383c-0.0729,0.47075 0.17769,0.88763 0.17769,0.88763c0.04573,0.0731 -0.00423,0.17251 0.04239,0.24316c0.05197,-1.5283 0.49908,-3.49786 1.13451,-5.44874c-0.54457,-2.68417 -0.54453,-5.40589 -0.88104,-8.16993l0.63968,-1.60061l-0.08106,-0.03244c0.04931,-0.06514 0.09869,-0.13065 0.148,-0.1958l-0.06755,-0.23674l0.0902,-0.00004l0.00084,-2.00309c0,-0.15642 -0.02854,-0.30676 -0.08101,-0.44477c0.27096,-1.0432 0.58913,-2.06201 1.05851,-3.0442c1.76256,1.73255 4.19339,2.699 6.68201,3.16663c0.5506,0.53872 1.00637,1.03999 1.67593,1.40629c2.67956,1.46594 6.77595,0.32635 9.86139,0.16289c0.16198,0.4061 0.53075,0.70734 0.97622,0.77352l2.3839,0.39195l0.0024,-0.01419c0.03325,0.00925 0.0668,0.01803 0.10025,0.0267c2.35083,0.60982 5.1245,-0.59183 7.44822,-0.8139c1.32557,-0.12667 2.66538,0.41469 3.99699,0.41089c5.89576,-0.01683 12.34971,-0.91449 18.05552,-2.37581l1.88428,0.00124c0.20767,0 0.40356,-0.05052 0.5759,-0.14013c0.19242,0.27101 0.68116,0.78525 1.46514,0.46382c0.92385,2.2042 1.68946,4.50866 2.32136,6.99311l-0.00926,1.44974c0,0 0,1.25208 1.25,1.25208c0.48073,0 0.7766,-0.18557 0.95867,-0.41313c0.08354,0.24372 0.16554,0.48805 0.24604,0.7306l0.01181,0.03549c-0.06653,0.22068 -0.06656,0.39819 -0.06656,0.39819c0.01213,1.35222 -0.18872,2.27679 -0.52372,3.35291z" fill="#750000" stroke-width="0.5"></path>
      <path d="M302.79025,166.65998c-0.19643,0.2578 -0.42273,0.54979 -0.65137,0.7983c-0.27298,0.29671 -1.23229,-0.05035 -1.87018,-0.32611c-0.06203,-0.0672 -0.12867,-0.1428 -0.1954,-0.20824c0.08619,-0.0836 0.2427,-0.16331 0.26657,-0.19601c0.17157,0.08859 0.3651,0.12722 0.5715,0.12722c0.3466,0 0.57168,-0.09988 0.7981,-0.32773l0.63192,-0.62265z" fill="#750000" stroke-width="0.5"></path>
      <path d="M298.1374,165.559c-2.57221,-1.35451 -6.04836,-1.95739 -7.6852,-1.48116l-0.23393,0.07749c-0.03334,-0.36047 -0.07996,-0.72482 -0.13956,-1.09278c-0.38623,-2.38457 -2.14669,-5.5602 -3.71925,-8.08542c0.41056,-0.75688 -0.26211,-1.43547 -0.26211,-1.43547l-0.03428,0.43791c-0.00691,-0.17606 -0.01409,-0.35366 -0.02039,-0.52691c0.01358,-0.07383 0.02047,-0.15124 0.02047,-0.229l-0.00055,-1.60968l-0.07237,0.00001l0.0563,-0.20145c-0.03162,-0.09485 -0.0607,-0.19027 -0.08756,-0.28298c-0.03539,-0.8683 -0.07664,-1.73067 -0.14902,-2.58035c0.03598,-0.18654 0.08342,-0.37303 0.13904,-0.55462l0.11852,-0.00026l0.00076,-0.34851c0.36581,-0.9735 1.00447,-1.91402 1.76097,-2.91707c0,0 0.81325,-0.92266 -0.18675,-1.67267c-1,-0.75 -1.74511,0.24582 -1.74511,0.24582c-0.27774,0.37216 -0.53977,0.73973 -0.78846,1.11303c-0.06756,-0.0113 -0.13664,-0.01756 -0.2074,-0.01756c-0.44076,0 -0.82564,0.22459 -1.04821,0.56921l-0.78641,1.17903l0.05238,0.03489l-0.13492,0.10872c-0.20265,0.61433 -0.4821,1.66582 -0.64136,2.74101c-0.39724,-0.50838 -0.94173,-0.99841 -1.49651,-1.37036c-0.1545,-0.51806 -0.57787,-0.74498 -0.57787,-0.74498l-0.05627,0.37221c-0.01574,-0.00706 -0.12642,-0.04556 -0.14219,-0.05256c0.08353,-2.45641 1.17825,-4.99493 3.24112,-6.37017c1.2739,-2.05851 5.54345,-2.73418 7.73944,-2.46312c1.339,0.16528 2.72107,-0.14203 4.06215,0.0055c6.06519,0.66724 10.4135,4.82211 12.2246,10.42761c0.54614,1.36536 1.34435,2.71295 1.13429,4.23286c-0.21153,1.53053 -0.8347,2.30157 -1.48526,3.61708c-0.27664,0.5594 -0.5166,1.13249 -0.73042,1.70278c-0.12775,-0.13356 -0.30642,-0.25075 -0.55415,-0.33333c-1.18586,-0.39528 -1.5843,0.79573 -1.5843,0.79573c-0.04525,0.15299 -0.0916,0.3075 -0.13685,0.46049c-0.13558,0.06233 -0.25916,0.1496 -0.36336,0.25379l-1.43813,1.43832c-1.4268,1.4268 -2.81938,2.69766 -3.9427,4.36855c0,0 -0.04782,0.07114 -0.0992,0.18838z" fill="#750000" stroke-width="0.5"></path>
      <path d="M236.03757,169.66577c-1.24975,-0.02497 -1.22478,-1.27471 -1.22478,-1.27471l0.0503,-2.40122c0.29399,-2.05294 0.34948,-3.91227 0.34948,-5.97381c0,0 0,-1.25 1.25,-1.25c1.25,0 1.25,1.25 1.25,1.25c0,2.12292 -0.05667,4.06419 -0.35766,6.17594l-0.04261,2.24902c0,0 -0.02497,1.24975 -1.27472,1.22478z" fill="#000000" stroke-width="0.5"></path>
      <path d="M220.79832,215.97663c-1.1606,-0.46423 -0.69637,-1.62483 -0.69637,-1.62483l0.40706,-1.01766c-0.13948,-0.36345 -0.07945,-0.72361 -0.07945,-0.72361l0.41985,-2.49582c1.50617,-4.56099 2.15786,-9.40405 4.06649,-13.79636c0.74586,-1.71645 1.64459,-3.50254 2.40354,-5.20801c0.64924,-1.45894 1.91421,-1.9915 2.35728,-3.48959c0,0 0.27555,-0.82668 1.05676,-0.86952c-1.0213,-0.43686 -0.65676,-1.53047 -0.65676,-1.53047l0.00943,-0.0283c1.15225,-3.45029 2.95437,-6.57752 3.54343,-10.18193c0,0 0.2055,-1.23299 1.43849,-1.02749c1.23299,0.2055 1.0275,1.43848 1.0275,1.43848c-0.63688,3.756 -2.44318,6.97069 -3.63772,10.5615l-0.00943,0.02829c0,0 -0.27556,0.82668 -1.05676,0.86952c1.0213,0.43686 0.65677,1.53048 0.65677,1.53048c-1.0853,3.0363 -3.51203,5.81765 -4.83922,8.9024c-1.8387,4.27366 -2.44191,8.97753 -3.93351,13.40364l-0.21505,1.30347c0.45296,0.53329 0.1625,1.25943 0.1625,1.25943l-0.79999,2c0,0 -0.46423,1.1606 -1.62483,0.69637z" fill="#000000" stroke-width="0.5"></path>
      <path d="M286.46728,152.75189c-1.18586,-0.39528 -0.79057,-1.58113 -0.79057,-1.58113l0.0014,-0.00421c-0.0425,-0.12573 -0.06554,-0.26044 -0.06554,-0.40052v-0.28348c-0.24603,-0.22828 -0.4,-0.55442 -0.4,-0.91652c0,-0.20995 0.05176,-0.4078 0.14321,-0.5815l0.75897,-1.51797c0.0634,-0.18861 0.13808,-0.37203 0.22229,-0.55094c0.0294,-0.16488 0.06924,-0.32751 0.1214,-0.48706l0.38508,-1.54033c0.07478,-0.32953 0.27975,-0.60961 0.55798,-0.78331c0.10668,-0.17085 0.25348,-0.31408 0.42721,-0.41649c-0.07819,-0.69207 -0.99028,-1.02929 -1.71623,-0.90823c-0.00453,0.40836 -0.20487,0.76971 -0.51156,0.99457l-1.25524,0.94142c-0.49424,0.7091 -0.8766,1.51503 -1.07047,2.35304c0,0 -0.30318,1.21267 -1.51586,0.90949c-0.21652,-0.05414 -0.38473,-0.13726 -0.51495,-0.23731c-0.21409,0.17183 -0.48596,0.27463 -0.78184,0.27463c-0.69036,0 -1.25,-0.55964 -1.25,-1.25c0,-0.26266 0.08102,-0.50639 0.21942,-0.70759l0.7905,-1.18577l0.2194,0.14626l0.21968,-0.21968c0.76786,-1.56057 1.91001,-2.91834 3.54384,-3.89653c3.35737,-2.01012 6.84503,0.87836 5.78005,4.41251l-0.14407,0.10337l0.06124,0.04082l-0.2851,0.42764c0.06124,0.14751 0.09505,0.3093 0.09505,0.47898c0,0.14846 -0.02588,0.29089 -0.07338,0.42299l-0.37968,1.13896c-0.02493,0.09708 -0.05277,0.19317 -0.08335,0.28829c0.26179,0.67875 -0.43057,1.6514 -0.72774,2.54504l-0.39999,1.2c0,0 -0.39528,1.18586 -1.58114,0.79057z" fill="#797979" stroke-width="0.5"></path>
      <path d="M287.15595,138.52598c1.04005,0.69339 0.34667,1.73344 0.34667,1.73344l-0.80001,1.19999c-1.08925,1.63275 -1.92003,3.31188 -2.86004,4.94049l-0.16732,0.6693l-0.05933,-0.01484c0.00633,0.04845 0.01267,0.0969 0.019,0.14535l-0.26037,-0.01104c-0.00521,0.00851 -0.01043,0.01702 -0.01565,0.02553l0.2217,0.11085l-0.78791,1.57578c-0.20043,0.4228 -0.63114,0.7152 -1.13014,0.7152c-0.69036,0 -1.25,-0.55964 -1.25,-1.25c0,-0.08889 0.00928,-0.1756 0.02691,-0.25924c-0.04178,-0.03659 -0.0811,-0.07591 -0.11769,-0.11768c-0.08364,0.01764 -0.17035,0.02692 -0.25923,0.02692c-0.69036,0 -1.25,-0.55964 -1.25,-1.25c0,-0.24259 0.06911,-0.46904 0.18871,-0.66074l2.37766,-3.96274c0.21591,-0.37446 0.62034,-0.62652 1.08365,-0.62652c0.33963,0 0.64764,0.13546 0.87293,0.35529c0.46836,-0.66078 0.93681,-1.273 1.28699,-1.79867l0.80003,-1.20001c0,0 0.69339,-1.04005 1.73345,-0.34667z" fill="#bdbdbd" stroke-width="0.5"></path>
      <path d="M233.2141,245.1998l-1.02859,0.34285c-0.09548,0.03433 -0.19634,0.05736 -0.30098,0.0675c-0.22852,0.24947 -0.55698,0.4059 -0.92197,0.4059c-0.69036,0 -1.25,-0.55964 -1.25,-1.25v-1.52217c-0.12767,-0.75744 -0.25535,-1.51488 -0.38302,-2.27232c0,0 -0.20551,-1.23299 1.02748,-1.4385c0.22606,-0.03768 0.41759,-0.027 0.57963,0.01557c0.55052,-0.27441 1.26001,-0.30821 1.87317,-0.42324c1.86728,-0.3503 4.01016,-0.02215 5.75271,-0.00937c2.43278,0.01785 4.97957,-1.55418 7.44728,-1.59061c0.88679,-0.01309 2.01517,-0.27599 2.63662,0.35675c0.79762,0.8121 0.43169,3.98192 -0.55299,4.69792c-0.408,0.29667 -0.94838,0.23456 -1.48101,0.20723c-0.0141,1.22873 -1.24988,1.22873 -1.24988,1.22873l-0.40358,-0.35012l-0.9533,0.57198l-0.01575,-0.02626c-0.03468,0.03036 -0.06969,0.06038 -0.10505,0.09004c-1.40322,1.17704 -4.6067,0.5738 -6.40678,0.46858c-0.02936,0.00437 -0.05872,0.00874 -0.08808,0.01311l-0.91988,0.61324c-0.20119,0.1384 -0.44493,0.21941 -0.70758,0.21941c-0.40617,0 -0.7671,-0.19372 -0.99542,-0.49382c-0.51538,0.04656 -1.03258,0.07579 -1.55304,0.0776zM246.87867,239.64993c-0.25231,-0.18811 -0.5379,-0.10323 -0.83819,0.06574c0.07101,0.04592 0.13706,0.09885 0.19718,0.1578l0.29283,0.09761c0.15493,0.04765 0.29702,0.1246 0.41982,0.22438c0.07002,-0.20695 0.06291,-0.44521 -0.07164,-0.54552z" fill="#747474" stroke-width="0.5"></path>
      <path d="M304.01255,147.16602c0,0 0,-1.25 1.25,-1.25c1.25,0 1.25,1.25 1.25,1.25c-0.00524,1.48447 -0.25257,2.7875 -0.68482,3.97736c0.27502,-0.33263 0.54004,-0.68867 0.79474,-1.07073l0.00001,-0.00001v0l0.78927,-1.18387c0.22257,-0.34462 0.61004,-0.57274 1.0508,-0.57274c0.69036,0 1.25,0.55964 1.25,1.25c0,0.14846 -0.02588,0.29088 -0.07338,0.42299l-0.39079,1.17231l-0.14524,-0.04841c-0.04175,1.33785 -0.22357,2.56862 -0.5315,3.74606l0.3338,-0.09121c0.11315,-0.03367 0.23302,-0.05175 0.3571,-0.05175c0.69036,0 1.25,0.55964 1.25,1.25c0,0.5623 -0.37128,1.03788 -0.88206,1.19497l-1.17267,0.3909l-0.02143,-0.06431l-0.36897,0.10082c-0.21959,0.15455 -0.44235,0.3057 -0.66785,0.45391c-0.70808,1.50254 -1.61815,2.99887 -2.69697,4.61709c-0.573,0.8595 -1.94103,3.64577 -2.85023,4.00872c-0.86052,0.34351 -1.9038,0.30227 -2.77966,0c-0.49867,-0.1721 -0.49714,-0.97913 -0.93023,-1.28033c-2.11478,-1.47074 -7.04233,-0.60402 -9.494,-1.09088c0.04533,-0.25051 0.06122,-0.51402 0.07146,-0.78001c-0.7074,-0.29565 -0.7074,-1.15087 -0.7074,-1.15087l0.05363,-1.23778c-1.43026,-1.99431 -0.89751,-4.08697 -2.2437,-6.06885c0,0 -0.69337,-1.04006 0.3467,-1.73343c1.04007,-0.69337 1.73343,0.34669 1.73343,0.34669c0.8458,1.28781 1.09861,2.56918 1.42322,3.84924c0.14425,0.00753 0.23987,0.03144 0.23987,0.03144c2.18809,0.61192 4.39925,-0.57424 6.54736,-1.18747c1.52627,-0.43571 2.96388,-0.86794 4.29811,-1.41386c2.03821,-2.23252 3.61507,-4.45866 3.60136,-7.786zM291.61386,160.30841c0.00279,-0.06137 0.01,-0.1216 0.02132,-0.18035c-0.43196,0.04609 -0.86996,0.06258 -1.31849,0.03993c0.04536,0.0786 0.09272,0.1572 0.14222,0.23581l0.00829,0.3031c0.35629,-0.14283 0.74996,-0.27569 1.14666,-0.39849zM303.81234,160.13402c-0.02053,0.01109 -0.04107,0.02217 -0.06162,0.03324c-0.41186,0.71833 -0.93282,1.41915 -1.61333,2.20078c-0.13465,0.15804 -0.27799,0.32106 -0.43058,0.49024c-0.02884,0.28902 -0.20218,1.15775 -1.24425,1.15775c-0.07193,0 -0.13973,-0.00414 -0.20363,-0.01194l-0.13552,0.09035c0.18444,0.31904 0.35635,0.56778 0.54931,0.36951c1.19792,-1.23086 2.26011,-2.72068 3.13961,-4.32992zM294.35082,162.15091c0.42773,0.03469 0.85472,0.09002 1.26304,0.15753c0.01461,-0.32226 0.15125,-0.61273 0.3648,-0.82628l0.35988,-0.35989l0.01272,-0.01526c-0.02866,-0.01286 -0.05674,-0.02677 -0.0842,-0.04168l-1.11111,0.74075l-0.03491,-0.05236l-0.10928,0.1352c-0.1683,0.05755 -0.3964,0.15144 -0.66093,0.26199zM306.0045,154.51272c-0.22347,0.18985 -0.45117,0.37133 -0.68304,0.54511c0.17692,0.16737 0.30497,0.38589 0.36047,0.63189c0.11954,-0.39309 0.22725,-0.78599 0.32257,-1.177z" fill="#520000" stroke-width="0.5"></path>
      <path d="M238.66233,234.33217c0.79724,-0.00478 3.16323,-0.25927 4.91606,-0.01335c0.02781,-0.00185 0.05588,-0.00279 0.08416,-0.00279c0.14238,0 0.2792,0.0238 0.4067,0.06765c0.33228,-0.10636 1.08468,-0.23005 1.51136,0.62335c0.30263,0.60527 0.11374,1.0467 -0.12317,1.32429c-0.18203,0.40422 -0.52414,0.88283 -1.06401,1.44878c-0.47349,0.49636 -4.91249,0.63332 -5.53088,0.63594c-1.8711,0.00795 -3.89797,0.20189 -5.75273,-0.00937c-0.91502,-0.10422 -1.72636,-0.7827 -2.64727,-0.79066c-2.70128,-0.02333 -3.34641,1.54769 -5.44008,-1.35661c0,0 -0.69339,-1.04006 0.34668,-1.73344c1.04006,-0.69338 1.73344,0.34668 1.73344,0.34668c1.11739,1.93881 1.44394,0.25208 3.35997,0.24337c1.02053,-0.00464 1.93804,0.70009 2.95271,0.80939c0.9722,0.10472 1.98573,0.08873 2.99734,0.05461c-0.00005,-0.00466 -0.00008,-0.00932 -0.00008,-0.01399c0,-0.5623 0.37128,-1.03789 0.88207,-1.19497l1.17267,-0.39088l0.02935,0.08805z" fill="#520000" stroke-width="0.5"></path>
      <path d="M229.26255,245.91604c1.75361,0.01572 2.8708,0.5769 4.55272,0.80935c1.47358,0.20366 2.25035,-0.6129 3.64704,-0.79321c1.83196,-0.2365 3.77949,0.2688 5.60001,0c2.04431,-0.30184 5.89431,-2.00221 7.8786,-1.121c2.45018,1.0881 2.75549,4.32248 2.75549,6.55463c0.44293,1.26458 0.79813,2.3474 0.9724,3.44182c0.22841,-0.29883 0.58855,-0.4916 0.99372,-0.4916c0.5623,0 1.03789,0.37128 1.19497,0.88207l0.39088,1.17267l-0.04241,0.01414c0.04289,0.10787 0.07865,0.2187 0.10563,0.33317c0.36642,1.5548 -1.42488,4.3684 -2.36519,5.33184c-2.41639,2.47583 -7.51948,7.03688 -11.08366,7.54996c-2.06512,0.29728 -4.26469,-0.6059 -6.1955,-1.24798l-0.40471,0.06414c0,0 -1.25,0 -1.25,-1.25c0,-0.12965 0.01344,-0.24586 0.03755,-0.35001h-1.58754c-0.69036,0 -1.25,-0.55964 -1.25,-1.25c0,-0.10307 0.01247,-0.20324 0.036,-0.29906c-0.13826,-0.04474 -0.2784,-0.09042 -0.42079,-0.13695l0.08169,1.14824c0,0 0.08775,1.24691 -1.15916,1.33467c-1.24692,0.08776 -1.33467,-1.15915 -1.33467,-1.15915l-0.09713,-1.39635c-0.17097,-1.08576 -0.34141,-2.17109 -0.51006,-3.25638c-1.34626,-4.68779 -2.18746,-9.89018 -2.19588,-14.635c0,0 0,-1.25 1.25,-1.25c0.08207,0 0.15874,0.00538 0.23039,0.01545c0.10277,-0.01545 0.16961,-0.01545 0.16961,-0.01545zM243.46232,267.13216c1.12805,-0.159 2.20227,-1.20337 3.10685,-1.8062c0.14106,-0.09401 0.2826,-0.1885 0.42445,-0.28352c-1.5385,0.44295 -3.14615,0.73849 -4.73086,0.95747c-0.08107,0.01121 -0.16132,0.02298 -0.24076,0.03527c-0.25519,0.66706 -0.77622,0.78745 -1.14463,0.77961c0.87888,0.26099 1.77325,0.43178 2.58494,0.31737z" fill="#520000" stroke-width="0.5"></path>
      <path d="M257.8484,261.36131l-0.56782,1.16373c0,0 -0.12542,0.25085 -0.37627,0.4555c-1.00591,1.49539 -2.75707,2.41304 -5.05859,3.69112l-0.94625,0.47331c-0.25773,0.14284 -0.51811,0.28038 -0.78074,0.41249c0.05374,1.02136 -1.01103,1.23431 -1.01103,1.23431l-2.12197,0.41818c-3.64498,0.00915 -7.68272,0.2539 -11.68683,0.14135c-0.00183,0.0115 -0.00378,0.02309 -0.00588,0.03477c-0.22003,1.23048 -1.45051,1.01046 -1.45051,1.01046l-0.65309,-0.11678c-2.42078,-0.43311 -5.24873,-0.71452 -7.5591,-1.57119c-1.77922,-0.65972 -3.43767,-1.67468 -4.89538,-2.94328c-0.39692,-0.24837 -0.79041,-0.50085 -1.17628,-0.76086c-0.10009,0.06723 -0.21044,0.12037 -0.32819,0.15659l-0.96005,0.32001l-0.92398,0.96889c0,0 -0.64342,0.64344 -1.38131,0.28337l-0.38035,0.25357l-1.56215,1.17161c-0.21062,0.16156 -0.47415,0.25758 -0.7601,0.25758c-0.14203,0 -0.27854,-0.02369 -0.40578,-0.06734l0.00106,0.00319l-1.17233,0.39077c-0.1321,0.04749 -0.27451,0.07337 -0.42296,0.07337c-0.41221,0 -0.77782,-0.19953 -1.00551,-0.50727c-0.18299,0.05552 -0.36592,0.1117 -0.54873,0.16886c0.05638,0.23329 0.03813,0.51576 -0.12771,0.84744c-0.55902,1.11803 -1.67705,0.55901 -1.67705,0.55901l-1.55305,-0.77775c-0.80624,-0.32396 -1.63081,-0.57282 -2.46598,-0.77605c-1.14251,0.04722 -2.28313,0.08174 -3.42194,0.08576c0,0 -1.02096,0 -1.21749,-0.9227c-2.0738,-0.32961 -4.1269,-0.70834 -6.04676,-1.5667c-0.87121,-0.38951 -1.99604,-0.49806 -2.57085,-1.25983c-0.00494,-0.00655 -0.00984,-0.01314 -0.01469,-0.01975c-0.30402,-0.16027 -0.60021,-0.47255 -0.60021,-1.08102c0,-0.29026 0.0674,-0.51312 0.1709,-0.68423c0.06406,-1.79541 1.07871,-4.0674 1.49325,-5.31106c0,0 0.0645,-0.19349 0.21955,-0.39811c0.07847,-0.68029 0.12054,-1.35307 0.11631,-2.0066c0,0 0,-0.4423 0.26309,-0.8007c-0.29516,-2.37637 -0.87238,-5.13479 0.18872,-7.1555c0.01784,-0.03398 0.03606,-0.06773 0.05461,-0.10125l-0.01702,-0.0068l0.17291,-0.43225c-0.3941,-0.21033 -0.66231,-0.62559 -0.66231,-1.1035c0,-0.26011 0.07945,-0.50168 0.21541,-0.70174l0.77707,-1.18102c0.62993,-1.36158 1.26481,-2.70569 1.90454,-4.04022c-0.09931,-0.25874 -0.32544,-1.06893 0.50167,-1.54552c0.08764,-0.13558 0.16741,-0.21534 0.16741,-0.21534l0.12331,0.01959c1.31268,-3.27711 3.09086,-6.32221 4.39999,-9.59998c0,0 0.03158,-0.07895 0.09886,-0.18743c0.19413,-1.58907 0.31651,-3.1723 0.636,-4.7935c0,0 0.12094,-0.6047 0.61765,-0.87969c-0.19957,-0.83245 -0.34817,-1.6799 -0.22576,-2.62538c0.66465,-5.1334 2.36659,-10.28788 3.63369,-15.34928c2.90238,-8.63771 2.97329,-18.94573 3.74265,-27.96551c0.01263,-0.148 0.02727,-0.29912 0.04355,-0.45301c-0.11202,0.01801 -0.18604,0.01801 -0.18604,0.01801l-0.00474,-0.06415c-1.77945,0.57332 -2.99641,1.90526 -4.64608,2.73705c-2.36372,1.19182 -5.1378,2.65266 -7.98491,3.74036c-0.60341,0.5371 -1.2676,1.04727 -1.94179,1.62359l-1.00504,0.85882c-0.21916,0.18961 -0.50491,0.30432 -0.81745,0.30432c-0.69036,0 -1.25,-0.55964 -1.25,-1.25c0,-0.04701 0.0026,-0.09342 0.00765,-0.13908c-0.72942,0.11158 -1.45051,0.17295 -2.1574,0.17295c-3.35164,1.13827 -6.09195,3.27668 -9.8482,3.21522c-0.55316,-0.00905 -1.08582,-0.07199 -1.59722,-0.18324c-0.11975,0.04004 -0.2396,0.08004 -0.35952,0.12001l0.08854,0.09805c0,0 -0.88392,0.88385 -1.76776,-0.00006c-0.41681,-0.41684 -0.44048,-0.83366 -0.34912,-1.15779c-4.80059,-2.82215 -6.88322,-10.32294 -5.20081,-15.12628c0.07267,-3.41507 2.61463,-5.72066 4.66718,-8.19225c5.09204,-6.1316 11.07385,-10.31404 18.23579,-13.82158c3.51365,-3.55751 9.7164,-5.72575 14.4801,-3.30883c0.96469,0.48944 1.61735,1.44555 2.50795,2.05957c1.36149,0.93867 3.79659,0.9493 5.02672,2.17944c0.36563,0.36564 0.57087,0.84551 0.76477,1.33587c0.86949,-0.79017 0.98891,-2.02552 1.38577,-3.45464c-0.20386,-0.12764 -0.40515,-0.25779 -0.60359,-0.39053c1.25927,0.13104 1.92448,-0.97588 2.8479,-1.21262c3.74026,2.47073 8.16071,3.48679 12.47402,4.56518c6.79385,-0.03445 14.50816,-1.49619 19.92556,-5.67869c1.90731,-0.86946 3.91733,-1.87153 6.15678,-3.00665c-0.96164,1.47781 -2.10289,2.78319 -3.3839,3.93073c0.62874,0.22125 0.7745,0.95007 0.7745,0.95007c0.39547,2.36876 1.58263,2.93974 3.49858,4.29756l0.9567,0.20251c4.33685,-4.92137 11.95584,-6.78844 18.33877,-5.07834c0.30011,-2.78481 1.57058,-5.70996 3.89636,-7.26047c1.84399,-2.61013 6.9422,-3.52245 9.8841,-3.14998c3.09512,0.39186 6.10526,-0.00015 9.10546,1.29071c4.60368,1.98077 7.50861,6.15018 9.06806,10.71319c0.74226,1.85567 1.50437,3.32954 1.26689,5.38268c-0.20479,1.77058 -0.9565,2.89272 -1.71775,4.39647c-1.82581,3.60662 -1.89576,9.04184 -5.56413,11.64418c-0.89929,0.63796 -1.71029,0.69886 -2.52106,0.53249c-0.40832,0.98621 -1.27494,2.57546 -1.42984,3.19606c-0.95607,3.83044 -3.39005,9.37724 -2.02199,13.28278c0,0 0.23879,0.71633 -0.21155,1.22109c0.16685,0.56268 0.26773,1.09572 0.2757,1.57421c0.02398,1.44023 -0.84845,3.35048 -1.24986,4.74949c-0.41852,1.45866 -0.87368,3.43722 -1.73684,4.70769c-3.01022,4.43067 -9.57925,5.40451 -14.41602,5.38347c-3.19106,-0.78015 -6.26051,-1.82175 -8.46245,-4.29316l-0.45669,-0.30435c-0.52384,-0.87633 -1.07335,-1.7684 -1.55003,-2.67424c-0.0813,-0.1 -0.16809,-0.19545 -0.26201,-0.28502l-0.16439,-0.5765c-0.15229,-0.33078 -0.29098,-0.66329 -0.41141,-0.99742c-2.11454,5.43256 -5.32024,10.43766 -9.65642,14.77394c-2.866,2.84393 -4.71857,6.31362 -7.11444,9.50355c-1.76558,2.35075 -3.72877,3.97925 -5.04657,6.56176c-0.67583,1.32442 -1.07676,2.91951 -1.45467,4.50738c0.11161,0.1097 0.17185,0.20006 0.17185,0.20006c0.37442,0.56471 0.72879,1.14651 1.06701,1.74137c0.54704,0.63926 0.97991,1.33808 1.42847,2.08483c4.54453,5.91501 8.08864,13.41529 10.44088,20.44361l0.40942,1.22826c0,0 0.30112,0.90337 -0.41073,1.396c-0.07128,0.67888 -0.19167,1.29613 -0.35502,1.92626c0.01958,0.08789 0.02991,0.17925 0.02991,0.27304c0,0.14845 -0.02588,0.29086 -0.07337,0.42296l-0.39077,1.17233l-0.12027,-0.04009c-0.02613,0.079 -0.05272,0.159 -0.07975,0.24008zM271.15595,188.97597c1.04005,0.69339 0.34667,1.73344 0.34667,1.73344c-0.78125,1.05448 -0.64074,2.32934 -0.1465,3.59488c0.24757,0.25713 0.32319,0.59691 0.34628,0.78048c0.02598,0.05279 0.05237,0.10547 0.07915,0.15803c0.50265,0.66162 0.88841,1.41863 1.3443,2.11607c0.17973,0.27496 0.3736,0.53079 0.5799,0.76933l0.11581,-0.03021c0,0 0.54918,0.27459 0.6853,0.82378c1.70287,1.45058 3.95649,2.10133 6.10843,2.65363c3.72652,-0.01889 9.68039,-0.65836 11.98394,-4.21652c0.72855,-1.12535 1.09778,-2.80752 1.46317,-4.09233c0.3528,-1.24053 1.10879,-2.80727 1.15016,-4.05053c0.05738,-1.72419 -2.46642,-5.54531 -3.43114,-6.97258c-1.15884,-2.31017 -2.46119,-4.9901 -3.22579,-7.6422c-0.04633,0.1388 -0.09429,0.27684 -0.1437,0.41423c0.30396,0.22803 0.50061,0.59132 0.50061,1.00055c0,0.12924 -0.01961,0.2539 -0.05602,0.37115l-0.67887,2.37606l-0.34756,-0.0993c-0.32709,1.51362 -0.88733,2.79805 -1.72,4.80691l-0.01116,0.32922c0,0 -0.18402,1.23638 -1.4204,1.05236c-1.23638,-0.18402 -1.05236,-1.4204 -1.05236,-1.4204l0.14692,-0.77316c-0.33778,-0.22378 -0.56054,-0.60728 -0.56054,-1.04282c0,-0.11435 0.01535,-0.22512 0.04412,-0.33035l0.2382,-0.95279c-0.05411,0.11021 -0.1083,0.22037 -0.16258,0.3305c0.06807,0.58258 -0.38588,1.03653 -0.38588,1.03653l-0.10544,-0.04578c-0.02013,0.04031 -0.04026,0.08062 -0.06041,0.12092l-0.20545,-0.23636l-2.0306,-0.88169c2.1881,-4.37609 4.21884,-8.83122 6.39998,-13.19998c0,0 0.28301,-0.56602 0.84903,-0.69123c-0.00533,-1.10404 -0.0313,-2.21245 -0.16483,-3.34955c-0.11052,-0.94109 -0.65737,-1.18769 -1.08904,-2.05102c-1.14511,-2.29018 -2.00624,-4.82047 -3.44379,-6.9567c-1.341,-1.35633 -2.10049,-4.11582 -3.93901,-4.84935c-6.32385,-2.52311 -14.93381,-1.18974 -18.85423,4.75023c0,0 -0.69337,1.04007 -1.73344,0.3467c-0.43608,-0.29072 -0.56743,-0.64238 -0.57292,-0.95278l-0.61879,-0.14771c-2.69283,-1.84903 -4.21521,-2.84606 -4.94066,-6.09445c0,0 -0.00549,-0.02748 -0.01072,-0.07502c-5.90494,4.31701 -14.02494,5.90225 -21.31628,5.87052c-3.56941,-0.8924 -8.16731,-2.15562 -12.19423,-4.19588c-0.64661,2.11649 -1.06761,3.72606 -2.91744,4.73672c-0.08841,0.15946 -0.22882,0.3163 -0.4422,0.45856c-0.44681,0.29789 -0.82966,0.27585 -1.12101,0.15378c-0.00762,0.00211 -0.01525,0.00421 -0.02291,0.00632l-1.15417,0.38571c0,0 -1.18585,0.3953 -1.58115,-0.79055c-0.3953,-1.18585 0.79055,-1.58115 0.79055,-1.58115l0.66311,-0.22052c-0.09152,-0.18756 -0.20315,-0.36119 -0.35171,-0.50975c-0.9621,-0.96213 -3.39727,-1.05575 -4.57326,-1.82056c-0.83918,-0.54576 -1.39301,-1.50014 -2.29203,-1.94042c-4.06871,-1.99258 -8.97348,0.17798 -11.91993,3.09116c-6.98204,3.55391 -12.74464,7.3741 -17.76421,13.37843c-1.74093,2.08247 -4.20855,4.10282 -4.13281,7.00773c-1.22645,3.81911 -0.59006,5.08435 1.08901,8.45058c0.90898,1.82235 1.91997,3.87658 3.91707,4.61697c8.58226,-2.88431 16.7238,-5.98791 23.27617,-12.55166c0,0 0.88388,-0.88388 1.76776,0.00001c0.88388,0.88389 0,1.76776 0,1.76776c-0.37042,0.36981 -0.7455,0.72926 -1.12506,1.07889l1.01824,-0.3394c0.1321,-0.04749 0.27451,-0.07337 0.42296,-0.07337c0.42447,0 0.79953,0.21157 1.02546,0.53501c0.1433,0.08302 0.28111,0.20898 0.40089,0.39457c1.23685,-0.64535 2.48917,-1.22462 3.77834,-1.66544l0.79531,-0.06414c0,0 0.23009,0 0.49284,0.09872c0.34889,-2.60678 0.6495,-5.482 -0.41089,-7.48969c0,0 -0.55903,-1.11802 0.559,-1.67705c1.11803,-0.55903 1.67705,0.559 1.67705,0.559c1.66187,3.46193 0.63584,7.88346 0.31547,11.65603c-0.78223,9.2114 -0.91122,19.62146 -3.83335,28.4525c-1.24959,5.00616 -2.74465,10.00315 -3.56627,15.05075c-0.28354,1.74189 0.79998,3.59768 0.81613,5.39975v1.20002c0,0 0,0.01355 -0.00141,0.03782c0.12062,0.04598 0.19451,0.09032 0.19451,0.09032c9.12428,5.47634 18.99133,6.29791 29.35689,6.22187c2.16958,0.01404 4.38098,-0.61057 6.4683,-1.29217c0.14129,-0.33751 0.45134,-0.70783 1.13171,-0.70783c0.65598,0 0.96771,0.34426 1.11586,0.67144c0.67613,-2.37691 1.11034,-5.03169 2.16124,-7.17065c1.3475,-2.74264 3.4455,-4.49681 5.27692,-6.94255c2.46727,-3.29488 4.42729,-6.83761 7.36211,-9.79212c8.07322,-8.07342 12.08022,-18.66639 12.03388,-29.91613v-1.60001c0,0 0,-1.25 1.25,-1.25c1.25,0 1.25,1.25 1.25,1.25v1.60001c-0.01304,3.69427 -0.42029,7.3167 -1.23075,10.81201c0.08835,0.03644 0.17982,0.08506 0.27414,0.14794zM256.41255,255.96602c0,0 0,-0.17687 0.06653,-0.39756l-0.01181,-0.03544c-0.0805,-0.24255 -0.16252,-0.48573 -0.24606,-0.72945c-0.18207,0.22756 -0.47792,0.41244 -0.95865,0.41244c-1.25,0 -1.25,-1.25 -1.25,-1.25l0.00937,-1.44727c-0.63191,-2.48445 -1.39508,-4.77651 -2.31893,-6.98071c-0.78398,0.32142 -1.27217,-0.19125 -1.46459,-0.46227c-0.17234,0.08961 -0.36818,0.14025 -0.57585,0.14025h-1.8838c-5.70582,1.46131 -12.14277,2.38075 -18.03853,2.39758c-1.3316,0.0038 -2.649,-0.52851 -3.97457,-0.40184c-2.32372,0.22206 -5.05535,1.40983 -7.40618,0.80001c-0.03345,-0.00867 -0.06679,-0.01764 -0.10004,-0.0269l-0.00236,0.01415l-2.37975,-0.39664c-0.44547,-0.06617 -0.81427,-0.36738 -0.97625,-0.77348c-3.08544,0.16346 -7.17482,1.2908 -9.85438,-0.17513c-0.66956,-0.3663 -1.21766,-0.90592 -1.76826,-1.44464c-2.48862,-0.46762 -4.82784,-1.39398 -6.5904,-3.12653c-0.46938,0.98219 -0.78567,1.99609 -1.05664,3.03929c0.05247,0.13801 0.0812,0.28772 0.0812,0.44414v2h-0.09019l0.06763,0.23638c-0.04931,0.06514 -0.09861,0.13029 -0.14791,0.19544l0.08106,0.03242l-0.63915,1.59784c0.33651,2.76404 0.3368,5.47202 0.88137,8.1562c-0.63544,1.95088 -1.08421,3.91214 -1.13618,5.44043c-0.04662,-0.07065 -0.09279,-0.14251 -0.13852,-0.21561c0,0 -0.25096,-0.41827 -0.17806,-0.88902c-0.39345,-0.36561 -0.39999,-0.93986 -0.39999,-0.93986l0.05463,-0.44725c-0.06012,-0.18205 -0.11695,-0.36397 -0.17074,-0.5458c-0.24846,1.12786 -0.55635,2.23944 -0.89388,3.29935c1.25284,0.74544 4.17919,1.04512 5.30169,1.1942c2.0793,0.27616 4.07868,0.60955 6.04733,1.14283c2.14708,-0.09431 4.30514,-0.23371 6.46362,-0.28638c0.81938,-0.24171 1.63795,-0.48506 2.45198,-0.75706l1.17233,-0.39076c0.01815,-0.00653 0.03649,-0.01264 0.05501,-0.01834l0.43639,-0.14546c0.55035,-0.32074 1.26937,-0.61722 2.3016,-1.03331l0.04252,0.01142l-0.00785,-0.02355l1.17233,-0.39077c0.1321,-0.04749 0.27451,-0.07337 0.42296,-0.07337c0.01445,0 0.02885,0.00025 0.04318,0.00074c0.30463,-0.54996 0.58298,-1.12049 0.84778,-1.68119c0.05224,0.08724 0.10649,0.17339 0.16296,0.25832c0.56336,0.84726 1.19864,1.57064 1.89192,2.19266c0.17101,0.10742 0.34098,0.21358 0.50897,0.31897c6.52964,4.09613 16.05748,2.98284 23.60784,2.91908c0.24676,-0.24599 0.54206,-0.34443 0.54206,-0.34443c0.81471,-0.26915 1.63097,-0.60336 2.42901,-0.99635c0.11669,-0.09057 0.20726,-0.13584 0.20726,-0.13584l0.83729,-0.41847c1.99536,-1.13779 3.81364,-2.64408 5.12171,-4.41348l0.82682,-1.10242c0.335,-1.07612 0.53531,-1.99537 0.52319,-3.34759zM298.22248,165.32266c1.12332,-1.67089 2.49715,-2.93148 3.92395,-4.35828l1.43225,-1.43224c0.1042,-0.1042 0.2267,-0.19008 0.36227,-0.25241c0.04525,-0.15299 0.09049,-0.30599 0.13574,-0.45898c0,0 0.39528,-1.18586 1.58114,-0.79057c0.24773,0.08257 0.42646,0.19966 0.5542,0.33322c0.21382,-0.57029 0.45097,-1.13715 0.72761,-1.69656c0.65055,-1.31551 1.27074,-2.073 1.48226,-3.60353c0.21006,-1.5199 -0.58694,-2.85196 -1.13308,-4.21732c-1.8111,-5.6055 -6.11383,-9.72208 -12.17902,-10.38932c-1.34107,-0.14754 -2.70848,0.1585 -4.04749,-0.00678c-2.19599,-0.27106 -6.44198,0.39151 -7.71588,2.45003c-2.06287,1.37524 -3.14531,3.89397 -3.22884,6.35038c0.01577,0.007 0.03153,0.01403 0.04728,0.02108l0.05668,-0.37338c0,0 0.51806,0.25903 0.67255,0.77709c0.55478,0.37195 1.00306,0.8349 1.40031,1.34328c0.15925,-1.07519 0.44258,-2.13719 0.64523,-2.75152l0.1352,-0.10928l-0.05237,-0.03491l0.78927,-1.18386c0.22257,-0.34462 0.61005,-0.57274 1.05081,-0.57274c0.07076,0 0.14015,0.00588 0.20771,0.01718c0.24869,-0.3733 0.51456,-0.74502 0.7923,-1.11719c0,0 0.75,-1 1.75,-0.25c1,0.75 0.25,1.75 0.25,1.75c-0.7565,1.00305 -1.38419,1.92951 -1.75,2.903v0.34699h-0.1184c-0.05562,0.18159 -0.10183,0.36527 -0.13781,0.55181c0.07238,0.84968 0.11698,1.69834 0.15238,2.56664c0.02686,0.09271 0.05608,0.18648 0.08769,0.28134l-0.05623,0.20022h0.07237v1.59999c0,0.07776 -0.0071,0.15386 -0.02069,0.22769c0.0063,0.17325 0.01283,0.34784 0.01975,0.5239l0.03482,-0.43547c0,0 0.6703,0.67029 0.25974,1.42717c1.57256,2.52522 3.30401,5.67192 3.69025,8.05649c0.0596,0.36796 0.10432,0.73164 0.13766,1.0921l0.23319,-0.07773c1.63685,-0.47624 5.0843,0.12621 7.65651,1.48072c0.05138,-0.11724 0.0987,-0.18823 0.0987,-0.18823zM247.1077,238.79176c-1.02763,0.20421 -2.05659,0.42678 -3.04988,0.76012c0,0 -0.74831,0.24943 -1.2542,-0.24242c-1.43767,0.20952 -2.85649,0.6976 -4.26338,0.70417c-4.24847,0.01985 -8.40747,0.25169 -12.72265,0.79275c0,0 -0.46373,0.05797 -0.85953,-0.18053c-2.40318,0.06341 -4.8461,-0.252 -7.29822,-0.28522c0.11569,0.28123 0.13421,0.64704 -0.13285,1.08078c-0.65536,1.06442 -1.71979,0.40906 -1.71979,0.40906l-0.24654,-0.27345c-5.64057,-0.80688 -11.02169,-2.12668 -15.49833,-5.83069c0,0 -0.16273,-0.13561 -0.29839,-0.36217c-0.68841,1.39188 -1.36758,2.78336 -2.04147,4.18293c0.99693,1.42005 2.51297,2.27936 4.19502,2.79935c0.74293,-0.89448 1.69507,-0.18039 1.69507,-0.18039c0.29247,0.22003 0.56384,0.46762 0.82917,0.72278c0.97573,0.13468 1.94984,0.19807 2.86216,0.2279l-0.2434,1.37844l0.04644,0.32359c2.38152,0.6312 6.52761,-0.50266 8.6788,-0.49663l0.11385,0.05879l0.00812,-0.04059l1.97729,0.39546c0.45717,0.08211 0.82806,0.4128 0.96777,0.84716c3.2458,-1.12735 7.54339,-0.47564 10.73213,-0.46449c5.87597,0.02055 12.22084,-0.9985 17.92494,-2.39304l0.10357,0.03776l0.04916,-0.03277v-0.01436h0.02153l0.88511,-0.59006l0.20356,-0.10413c-0.45714,-1.06223 -0.90751,-2.14419 -1.37215,-3.22263zM244.86887,233.55752c-0.00067,-0.00065 -0.00133,-0.00131 -0.002,-0.00196c-0.00613,0.01862 -0.01229,0.0372 -0.01847,0.05575c0,0 -0.39528,1.18586 -1.58113,0.79057c-0.66561,-0.22187 -0.83308,-0.69281 -0.85192,-1.06331l-0.35751,0.66332c-2.57584,0.85661 -5.2791,1.64964 -7.99529,1.66415c-10.88405,-0.09761 -21.03897,-0.81774 -30.64311,-6.57812c0,0 -0.66717,-0.4003 -0.63297,-1.09564c-0.02446,-0.00848 -0.04816,-0.0176 -0.07111,-0.02731c-0.14595,1.29399 -0.31156,2.58926 -0.64011,3.90422l-0.39999,1.60001c0,0 -0.02926,0.11703 -0.10595,0.2693c0.05989,0.03925 0.0935,0.06727 0.0935,0.06727c2.46847,2.07369 5.2919,3.30284 8.28023,4.11291c0.28815,-0.01405 0.5148,0.0615 0.5148,0.0615c1.79317,0.62806 2.76708,0.09962 4.70164,-0.05988c4.38634,-0.36165 9.15383,1.10288 13.27954,-0.33069l-0.04024,-0.12711c0,0 0.90351,-0.86381 1.76732,0.03971c0.10305,0.10778 0.18095,0.21501 0.23822,0.32027c2.6668,-0.21262 5.31194,-0.31833 7.98059,-0.30402c1.82709,0.0098 3.76887,-0.78532 5.67765,-0.80244h0.40002c0,0 0.12106,0 0.28782,0.03767c0.52252,-0.13094 1.04937,-0.24609 1.57689,-0.35444c-0.45563,-0.97068 -0.93639,-1.92387 -1.4584,-2.84174zM297.6767,171.22076c0.24516,-0.72787 0.95153,-1.25913 1.13583,-2.00474c0.00272,-0.01102 0.00498,-0.02187 0.00676,-0.03253c-0.13448,-0.05546 -0.51779,-0.24105 -0.7102,-0.61959c-0.26697,-0.09499 -0.55084,-0.18321 -0.73994,-0.30782c-1.44493,-0.95218 -4.46602,-2.54089 -6.11132,-1.85421l-0.93194,0.31065c-0.00635,1.67475 -0.07621,3.33673 0.17051,5.10328c0.42941,3.07465 2.08135,6.43135 3.44728,9.17282c0.26416,0.40114 0.57367,0.877 0.89978,1.40099c0.30106,-3.84038 1.76961,-8.01105 2.83324,-11.16886zM302.30453,165.93857l-0.5553,0.55854c-0.22642,0.22785 -0.54007,0.36892 -0.88667,0.36892c-0.2064,0 -0.40112,-0.05003 -0.57269,-0.13862c-0.02387,0.03269 -0.08084,0.1062 -0.16703,0.18979c0.06673,0.06544 0.13119,0.13176 0.19323,0.19896c0.6379,0.27576 1.51477,0.60318 1.78775,0.30647c0.22864,-0.24851 0.44009,-0.50195 0.63652,-0.75975zM193.64897,180.26631c0.16085,-0.1274 0.32196,-0.25284 0.48338,-0.37644c-0.70553,0.42207 -1.42074,0.82512 -2.14481,1.21149c0.23247,-0.05905 0.46342,-0.12289 0.69294,-0.19115c0.33095,-0.20947 0.67278,-0.40969 0.96849,-0.6439zM287.96571,172.00334c0.01166,0.00292 0.02318,0.00591 0.03456,0.00899c-0.03813,-0.28528 -0.06916,-0.56848 -0.09442,-0.84999c-0.12857,0.26462 -0.25679,0.52946 -0.38473,0.79448c0.13249,-0.00782 0.28018,0.00541 0.44459,0.04651z" fill="#000000" stroke-width="0.5"></path>
      <g>
        <path d="M203.93918,148.57248c0,0 -0.27683,-0.3264 -0.69701,-0.43502c-0.01964,-0.07462 -0.03899,-0.15014 -0.05796,-0.22577c-1.87205,-7.46575 3.53108,-16.76477 9.26655,-20.9872c6.81766,-5.82184 14.57241,-6.49258 23.06786,-5.34789c3.01003,0.40557 6.03224,2.0209 9.0142,2.69832c6.22386,1.40423 10.8968,7.38393 13.29618,13.01575c0.53323,1.2516 1.67463,2.81876 1.88346,4.16372c0.50701,3.26537 -0.44419,6.4046 -0.97539,9.66176c-2.44683,6.77573 -7.67411,11.04314 -13.74067,14.42187c-1.21381,0.67602 -4.92338,1.72813 -6.67673,2.98709c-0.08509,-0.20653 -0.24925,-0.4114 -0.53737,-0.58585l0,-0.00001c-1.06928,-0.64741 -1.72031,0.42279 -1.72031,0.42279l-0.82439,2.61282c-1.34823,-0.16923 -2.70117,-0.9614 -4.03116,-1.3413c-0.78738,-0.22491 -1.5893,-0.46129 -2.39174,-0.71028c-0.09238,0.23721 -0.19378,0.46618 -0.30306,0.68693c-1.93808,-0.43681 -3.66713,-1.81974 -5.07809,-3.1741c-0.40208,-0.38597 -2.34801,-2.45753 -2.75354,-2.48258c-1.09124,-0.06741 -1.5621,1.63074 -2.58229,2.02391c-0.44136,0.1701 -1.29536,-0.12163 -1.97183,-0.26209c-0.91475,-2.76049 -2.29972,-3.26772 -4.09039,-5.65266c-0.55358,-0.73731 -1.44961,-3.88696 -3.15467,-3.49455c-0.86729,0.19961 -0.83744,1.47285 -1.2876,2.24057c-0.02251,0.03838 -0.97094,2.12296 -1.44196,0.97423c-1.43155,-3.49124 -0.02092,-8.41108 -2.21211,-11.21043z" fill="#0024a3" stroke-width="0.25"></path>
        <path d="M247.06321,139.67592c-3.35372,-3.95293 -6.86681,-8.00216 -11.76983,-10.07613c-0.72282,-0.30575 -1.3692,-0.39706 -2.11538,-0.46726c-0.00304,-0.01118 -0.10131,-0.05303 -0.10452,-0.06394c2.57652,-0.68512 5.35059,-0.23504 8.03013,-0.361c1.00724,-0.04735 3.60995,-0.08562 4.32301,0.90751c1.57582,2.19474 2.31854,6.14145 2.54573,9.03496c-0.28237,0.19423 -0.58019,0.54646 -0.49448,1.13757c-0.14704,-0.06712 -0.28626,-0.10104 -0.41465,-0.11174z" fill="#bd7614" stroke-width="0.5"></path>
        <path d="M231.04196,135.48838c1.91828,1.16144 5.36105,3.20423 6.85462,4.99264c1.38419,1.65742 7.63586,8.03658 2.20238,8.16845c-3.44873,0.3511 -6.51579,-0.2067 -9.84489,-0.96048c-0.58995,-0.13358 -3.71436,-0.23089 -4.00182,-1.27117c-0.27992,-1.01295 0.41849,-3.02964 0.44534,-4.0053c0.08216,-2.98503 0.54814,-5.58327 1.34797,-8.38842c0.59953,0.9069 2.05138,0.89212 2.99641,1.46429z" fill="#bd7614" stroke-width="0.5"></path>
        <path d="M210.86818,141.22655c-0.65558,-0.14811 -1.36827,-0.23788 -1.62511,-0.79325c-4.2178,-9.12019 14.91823,-7.58511 10.18911,-0.27776c-0.55973,0.86488 -1.36596,1.59372 -2.25615,2.11229c-0.90805,0.52898 -2.00352,0.63514 -3.00528,0.95272l-2.42754,-0.71234c0,0 -0.99449,-0.31801 -0.87504,-1.28165zM213.10471,140.34199l1.0565,0.37857c0.5818,-0.20215 1.21745,-0.28924 1.74541,-0.60646c3.83506,-2.30435 -0.27086,-3.84225 -2.71303,-3.59987c-1.07948,0.10713 -3.13412,2.52675 -0.97093,2.51028c0,0 1.02835,0.31749 0.88204,1.31746z" fill="#000000" stroke-width="0.5"></path>
        <path d="M213.07743,140.38389c0.1463,-0.99998 -0.90297,-1.34611 -0.90297,-1.34611c-2.16319,0.01647 -0.08593,-2.45936 0.99355,-2.56649c2.44217,-0.24238 6.60784,1.37499 2.77278,3.67933c-0.52796,0.31722 -1.20171,0.41764 -1.78351,0.61979l-1.07983,-0.38651z" fill="#ffffff" stroke-width="0.25"></path>
        <path d="M236.7993,161.76061c0.02212,0.1182 0.02937,0.25103 0.01728,0.4003c-0.10086,1.24592 -1.34679,1.14506 -1.34679,1.14506c-0.73635,-0.08557 -1.54483,0.07245 -2.20904,-0.25672c-4.40763,-2.18439 -2.12422,-8.75942 1.90459,-9.7495c3.96916,-0.97542 8.37095,4.41033 4.48937,7.42518c-0.80006,0.62141 -1.87448,0.74348 -2.85543,1.03569zM233.48866,159.20962c0.48767,-0.68536 1.3729,-0.40269 1.3729,-0.40269l1.56445,0.56633c2.64547,-0.83116 2.31991,-4.37905 -0.66402,-3.64574c-1.68284,0.41356 -2.5611,2.15142 -2.27333,3.4821z" fill="#000000" stroke-width="0.5"></path>
        <path d="M235.75962,155.67757c2.98393,-0.73331 3.32846,2.91169 0.683,3.74285l-1.61558,-0.57731c0,0 -0.89338,-0.29278 -1.38105,0.39258c-0.28777,-1.33069 0.63079,-3.14456 2.31363,-3.55812z" fill="#ffffff" stroke-width="0.25"></path>
        <path d="M235.64227,131.32562c0,0 -1.24999,-0.00501 -1.24498,-1.255c0.00501,-1.24999 1.255,-1.24498 1.255,-1.24498c1.21608,0.00576 2.40986,-0.06095 3.60746,-0.13023c0.16919,-0.18305 0.38587,-0.30704 0.61894,-0.36432l0,0l1.648,-0.40501l0.02574,0.10473c0.07338,-0.03956 0.14677,-0.07913 0.22015,-0.11869l0.00428,-0.02122c0.00613,0.003 0.01226,0.006 0.01838,0.009c0.00611,-0.00329 0.01222,-0.00659 0.01833,-0.00988l0.20054,0.10668l0.01488,-0.08998l2.09723,0.34688c0.16216,0.02298 0.32244,0.0784 0.4714,0.16859c0.59055,0.35755 0.77943,1.12614 0.42188,1.71669c-0.22828,0.37704 -0.62411,0.59035 -1.03418,0.60225l-0.27285,0.0119c-0.25871,0.42555 -0.73117,0.64181 -1.19594,0.59436l-0.15202,-0.01231l-0.15192,0.09583l-1.65647,-0.19515c0,0 -0.00621,-0.00376 -0.01741,-0.01119l-1.04665,0.04565c-0.15859,0.00923 -0.32,-0.01163 -0.4753,-0.0648c-1.1181,0.06737 -2.23308,0.12398 -3.37447,0.1202z" fill="#794c0d" stroke-width="0.5"></path>
        <path d="M231.30213,146.61655c-0.64741,1.06928 -1.71669,0.42188 -1.71669,0.42188l-0.16512,-0.62129c-0.08166,-0.02278 -0.16202,-0.05423 -0.23982,-0.09464c-0.19828,0.05379 -0.39507,0.10203 -0.58644,0.13002c-0.23567,0.34938 -0.62111,0.54411 -1.01785,0.55016l-0.80089,0.87393c-0.39235,0.44542 -1.059,0.56005 -1.5846,0.24182c-0.58343,-0.35324 -0.77482,-1.10767 -0.43457,-1.69526l0.89151,-1.55101c0.07335,-0.18506 0.14081,-0.38086 0.20531,-0.58309c-0.35569,-0.31043 -0.50263,-0.79496 -0.3896,-1.24509l0.27954,-1.23467l0.00001,0l0,-0.00002c0.54699,-2.41563 1.03289,-4.51372 1.08966,-6.99355c0,0 0.03159,-1.2496 1.28119,-1.21801c1.2496,0.03159 1.21801,1.28119 1.21801,1.28119c-0.02986,1.08761 -0.13122,2.11098 -0.28075,3.118c0.25616,-0.02308 0.52169,0.03242 0.75857,0.17585c0.50887,0.3081 0.7195,0.92141 0.53925,1.46301l-0.2145,0.69477l0.09737,0.39621c0.02687,0.10935 0.03906,0.22232 0.03578,0.33567c0.03414,0.14505 0.01232,0.34244 -0.0445,0.56707l-0.10358,1.27944l-0.31065,-0.02515c-0.01456,0.02737 -0.0288,0.05495 -0.04273,0.08273c0.00582,0.2076 0.00336,0.41441 -0.00877,0.61976l0.96332,-0.45158c0.36888,-0.17952 0.81849,-0.17398 1.19553,0.0543c0.59055,0.35755 0.77943,1.12614 0.42188,1.71669c-0.03526,0.05823 -0.07451,0.11256 -0.1172,0.16285c-0.02477,0.06113 -0.05472,0.1211 -0.08997,0.17933c-0.05923,0.09782 -0.12974,0.18463 -0.20884,0.25975l-0.41197,0.40869c0.00517,0.20646 -0.05087,0.44095 -0.20786,0.70024z" fill="#794c0d" stroke-width="0.5"></path>
        <path d="M236.08922,132.86342c0.04274,0.03187 0.08294,0.0661 0.1205,0.10237c0.03762,-0.02038 0.0756,-0.03955 0.11392,-0.05751c-0.08621,-0.05068 -0.17294,-0.10069 -0.26018,-0.15003c0.01009,0.03467 0.01869,0.06977 0.02577,0.10518zM248.38582,141.7629c-0.69057,1.14057 -1.38113,2.28113 -2.0717,3.4217l-0.20718,0.34218c0,0 -0.45098,0.74486 -1.22183,0.61482c0.00218,0.00997 0.00435,0.01995 0.00649,0.02993c0.68374,3.19183 -2.04215,4.79119 -4.65542,4.94287c-3.6989,0.35948 -6.95364,-0.22262 -10.5249,-1.03125c-2.02957,-0.45955 -4.79753,-0.41021 -5.73908,-2.76866c-0.59803,-1.498 0.23959,-3.40988 0.27462,-4.9376c0.08193,-3.5733 0.68077,-6.64654 1.74079,-10.07996c0,0 0.36875,-1.19437 1.56311,-0.82563c0.0926,0.02858 0.17579,0.06214 0.25051,0.09971c0.15768,-0.43567 0.40596,-0.84893 0.69987,-1.23406c-0.04018,-0.17137 -0.04344,-0.37387 0.01059,-0.61251c0.22107,-0.97635 1.04701,-0.99375 1.36721,-0.96195c-0.2554,-0.94993 0.69938,-1.39751 0.69938,-1.39751c1.31423,-0.60334 2.75677,-0.96541 4.19663,-1.09972c3.04351,-0.2839 10.20992,-1.02136 12.51413,1.75723c2.17443,2.6221 3.06016,8.1083 3.20366,11.39987l-1.49983,1.40334c0,0 -0.18519,0.0455 -0.42868,0.02865c0.08156,0.47926 -0.17837,0.90856 -0.17837,0.90856zM247.03518,139.63451c0.12839,0.0107 0.26644,0.04546 0.41347,0.11257c-0.08572,-0.59112 0.20757,-0.93965 0.48994,-1.13389c-0.22719,-2.89352 -0.97839,-6.77659 -2.55421,-8.97133c-0.71307,-0.99313 -3.26288,-0.93275 -4.27013,-0.8854c-2.67953,0.12595 -5.41671,-0.3575 -7.99323,0.32762c0.0032,0.01091 0.00635,0.02194 0.00938,0.03312c0.74618,0.0702 1.48727,0.19357 2.21009,0.49932c4.90302,2.07397 8.34095,6.06508 11.69467,10.01801zM244.08997,144.03115c0.05083,-0.08396 0.1026,-0.16945 0.15514,-0.25623c-0.09668,0.00361 -0.1934,0.00734 -0.28926,0.00942c0.04596,0.08208 0.09068,0.16436 0.13412,0.24682zM228.06906,134.06821c-0.79982,2.80515 -1.24052,5.37015 -1.32268,8.35517c-0.02685,0.97566 -0.727,2.96455 -0.44709,3.97751c0.28746,1.04028 3.39606,1.11547 3.98601,1.24905c3.3291,0.75378 6.32398,1.32192 9.77271,0.97082c5.43348,-0.13187 -0.81743,-6.45259 -2.20162,-8.11c-1.49357,-1.78841 -4.88316,-3.81265 -6.80144,-4.97409c-0.94502,-0.57217 -2.38635,-0.56156 -2.98588,-1.46845z" fill="#000000" stroke-width="0.5"></path>
        <path d="M258.81446,152.42596c-1.22177,2.67843 -3.2359,4.75717 -5.35993,7.26504l-0.08587,0.04029l0.01984,0.02246l-1.37159,1.21161c-0.39875,0.36906 -1.00828,0.44671 -1.49626,0.15126c-0.50887,-0.3081 -0.7195,-0.92141 -0.53925,-1.46301l0.03342,-0.10825c-0.30883,-0.3971 -0.35852,-0.95922 -0.08245,-1.41519l0.43747,-0.72255c-0.18864,-0.59272 0.23065,-1.1385 0.23065,-1.1385l0.68364,-0.88987c0.39248,-0.51088 0.78318,-1.02426 1.17362,-1.53848c0.21879,-0.33566 0.44984,-0.67035 0.68936,-1.00372c0.54468,-0.92272 1.0649,-1.85723 1.51686,-2.80403c0.01914,-0.04009 0.03786,-0.08006 0.05618,-0.11991c-0.10087,-0.178 -0.15658,-0.37837 -0.1625,-0.58226l-0.062,-1.42149l0.30389,-0.01326c-0.11981,-1.19838 0.26547,-2.09449 1.28189,-3.75296l0.23916,-1.05623c0.02779,-0.1376 0.07941,-0.27282 0.1563,-0.39981c0.16973,-0.28033 0.43208,-0.47015 0.72404,-0.55398c0.0698,-2.43873 -1.16886,-5.03801 -1.28058,-7.38926c0,0 -0.05447,-1.24881 1.19434,-1.30328c1.24881,-0.05447 1.30328,1.19434 1.30328,1.19434c0.09774,2.50628 1.18396,4.79058 1.20682,7.31946c0.00843,0.93273 -0.15675,1.80633 -0.40842,2.65551c0.38586,-0.23578 0.88668,-0.25334 1.3002,-0.00297c0.481,0.29122 0.69553,0.85513 0.56537,1.37342l-0.27295,1.20558l-0.0455,-0.0103c-0.01178,0.09919 -0.03036,0.19791 -0.05699,0.29606c-0.14658,0.54029 -0.56137,0.93943 -0.99041,1.3323c0.03295,0.01619 0.06547,0.03396 0.09747,0.05333c0.59055,0.35755 0.77943,1.12614 0.42188,1.71669l-0.82868,1.36867l-0.10577,-0.06404c-0.16111,0.18369 -0.32336,0.36606 -0.48656,0.54732z" fill="#001769" stroke-width="0.5"></path>
        <path d="M207.87994,133.82793c0.03516,0.23533 -0.00705,0.51264 -0.19692,0.82624c-0.64741,1.06928 -1.71669,0.42188 -1.71669,0.42188l-0.7038,-2.54088c0.69883,-0.44078 1.34426,-0.94386 1.98541,-1.38691c-0.05203,-0.28902 -0.00302,-0.59746 0.16104,-0.86842c0.04603,-0.07603 0.09888,-0.14541 0.15729,-0.20782c-0.10517,-0.33152 -0.07222,-0.70498 0.12206,-1.02587c0.10874,-0.17959 0.25549,-0.32204 0.42368,-0.42326l1.64677,-1.03871l0,0l0,0c0.11317,-0.07129 0.22786,-0.14437 0.34396,-0.21883c-0.08978,-0.32094 -0.05178,-0.67681 0.13444,-0.98438c0.07689,-0.12699 0.17279,-0.23541 0.28184,-0.32382l0.94146,-0.80043l0.05624,0.06614l0.10676,-0.18354c1.02349,-0.4204 2.01517,-0.89105 3.00283,-1.36555c0.17871,-0.24707 0.43446,-0.41149 0.71375,-0.48013l0.59217,-0.14553c1.16988,-0.55434 2.35127,-1.08547 3.59013,-1.51671c0.87079,-0.30312 1.7052,-0.95419 2.62388,-0.87557c0.08565,0.00733 0.1703,0.01862 0.25406,0.03343l0.00317,-0.03917l1.24105,0.10047c1.4755,-0.28016 2.96995,-0.49025 4.46623,-0.68744c0,0 1.2394,-0.16244 1.40184,1.07696c0.16244,1.2394 -1.07696,1.40184 -1.07696,1.40184c-1.23512,0.16093 -2.46206,0.33381 -3.67508,0.55091c-0.1708,0.10935 -0.36544,0.17511 -0.56574,0.19284l-0.85473,0.08496c-0.5176,0.11063 -1.0322,0.23183 -1.54333,0.36617c-1.17051,0.56342 -2.04133,1.03424 -3.05184,0.99648c-0.09396,0.03756 -0.18777,0.07579 -0.28141,0.11469c0.00891,0.23572 -0.0487,0.47661 -0.18001,0.69348c-0.13604,0.22469 -0.33158,0.39123 -0.55417,0.49165l-1.29036,0.60492l-0.00001,-0.00002l0,0.00002c-0.16532,0.07672 -0.32461,0.14796 -0.47882,0.21404c-0.63775,0.3464 -1.27709,0.68799 -1.91375,1.03517c-0.19673,0.29495 -0.38854,0.56404 -0.58638,0.81622c0.35944,0.3989 0.43255,1.00102 0.1401,1.48403c-0.12564,0.20752 -0.30204,0.36544 -0.50363,0.46748l-2.04419,1.07975l-0.10881,-0.20601c-0.96728,0.78398 -1.95937,1.47837 -3.06353,2.19925z" fill="#001769" stroke-width="0.5"></path>
        <path d="M207.36313,156.41301c0.27398,0.25046 0.68978,0.79961 0.2265,1.56478c-0.64741,1.06928 -1.71669,0.42188 -1.71669,0.42188l-0.93863,-1.1528c-0.15085,-1.63956 -0.35455,-2.4653 0.19527,-3.35206l-0.11989,-0.00048l0.00126,-0.31555c-0.24078,-0.30294 -0.32888,-0.70472 -0.23405,-1.08228l0.1765,-0.77947c-0.33565,0.11168 -0.71632,0.08095 -1.04264,-0.11662c-0.37704,-0.22828 -0.59035,-0.62412 -0.60225,-1.03419l-0.06199,-1.42148l0.05523,-0.00241l-0.05141,-0.16384c0.13328,-0.58863 0.08567,-1.16669 0.1423,-1.66651l-0.46503,0.218c-0.36888,0.17953 -0.8185,0.17399 -1.19554,-0.0543c-0.481,-0.29123 -0.69553,-0.85514 -0.56537,-1.37343l0.26687,-1.17867c0.1145,-0.69335 0.22901,-1.38669 0.34351,-2.08004c0,0 0.20399,-1.23324 1.43723,-1.02926c1.23324,0.20399 1.02926,1.43723 1.02926,1.43723c-0.03193,0.19271 -0.06385,0.38543 -0.09578,0.57814c0.35962,-0.15702 0.78742,-0.14274 1.14861,0.07595c0.37704,0.22828 0.59035,0.62412 0.60225,1.03419l0.06199,1.42148l-0.10079,0.0044c0.09716,0.55809 0.12642,1.10725 0.06445,1.73532c0.04641,0.00201 0.09404,0.0224 0.14317,0.06531c0.72908,0.63686 0.90997,1.67234 1.19037,2.63546c0.17597,0.2275 0.26714,0.50878 0.26105,0.79311l-0.00925,2.30945l-0.32736,-0.00131c0.06792,0.71919 0.07931,1.40911 0.18081,2.50997z" fill="#001769" stroke-width="0.5"></path>
        <path d="M220.80109,160.7747c1.06928,0.64741 0.42188,1.71669 0.42188,1.71669l-0.82868,1.36869c-0.3575,0.59045 -1.1259,0.77937 -1.71641,0.42205c-0.02987,0.11174 -0.07587,0.22118 -0.13879,0.32511c-0.35755,0.59055 -1.12614,0.77943 -1.71669,0.42188c-0.24461,-0.1481 -0.42031,-0.36673 -0.5168,-0.61401l-0.74246,-1.84348l0.02481,-0.00999l-0.03828,-0.05107c-0.28166,0.0448 -0.58006,-0.00605 -0.84314,-0.16533c-0.36435,-0.2206 -0.5758,-0.59766 -0.60037,-0.99283c-0.19246,-0.01315 -0.38474,-0.0712 -0.56113,-0.178c-0.37199,-0.22522 -0.5846,-0.61354 -0.60166,-1.01771l-0.07501,-1.33901c-0.19759,-0.50958 -0.57845,-1.16915 -0.86783,-1.82765c-0.23792,-0.10683 -0.39359,-0.28104 -0.49535,-0.45916l-0.71375,-0.8395l0.13568,-0.11536c-0.11564,-0.07917 -0.23127,-0.15835 -0.34691,-0.23752l0.0862,-0.40981l-0.17147,0.00748l-0.06209,-1.42378c-0.01419,-0.24379 0.04275,-0.49425 0.17879,-0.71894c0.35755,-0.59055 1.12614,-0.77943 1.71669,-0.42188c0.12699,0.07689 0.23541,0.17279 0.32382,0.28184l0.78176,0.9195c0.19774,0.22185 0.30756,0.50561 0.316,0.79653l0.00695,0.15928c0.16701,0.25039 0.31114,0.51157 0.44427,0.79212c0.30566,-0.07028 0.63792,-0.02632 0.92741,0.14895c0.29528,0.17878 0.49014,0.46032 0.56648,0.77099l0.40498,1.64802l-0.1983,0.04873c0.21025,0.43945 0.39077,0.89038 0.52822,1.35436c0.08609,-0.07621 0.17581,-0.09913 0.27216,-0.02467c0.30799,0.23801 0.50005,0.57084 0.6504,0.93778l0.43106,-0.72135c0.00144,-0.00242 0.0029,-0.00484 0.00436,-0.00725c0.35755,-0.59055 1.12614,-0.77943 1.71669,-0.42188c0.24462,0.1481 0.42031,0.36673 0.51681,0.61402l0.37546,0.93228c0.12691,0.03191 0.26183,0.08768 0.40424,0.1739z" fill="#001769" stroke-width="0.5"></path>
        <path d="M230.04138,170.22704c-0.30701,-0.18588 -0.4725,-0.40654 -0.55243,-0.62669c-3.28666,-0.50418 -5.06634,-1.97525 -5.89573,-4.51504l-0.30835,-0.36267l-0.18464,0.07436l-0.74174,-1.8417c-0.14757,-0.35525 -0.12973,-0.7736 0.08478,-1.12789c0.35755,-0.59055 1.12614,-0.77943 1.71669,-0.42188c0.22277,0.13488 0.38838,0.32824 0.48906,0.54847l0.11049,0.23246l0.32986,-0.82759c0.02668,-0.07053 0.06014,-0.13964 0.1006,-0.20647c0.35755,-0.59055 1.12614,-0.77943 1.71669,-0.42188c0.05354,0.03241 0.10377,0.06821 0.1506,0.10694c0.06224,0.0274 0.12611,0.0606 0.19157,0.10023c1.06928,0.64741 0.42188,1.71669 0.42188,1.71669c-0.23758,0.38237 -0.47516,0.76474 -0.71274,1.14712l-0.18025,0.79611l0.19958,0.8121c0.06464,0.26304 0.04432,0.54696 -0.07194,0.80706c0.16695,0.17272 0.36441,0.33851 0.60639,0.49146c0.43843,0.27711 1.0142,0.30275 1.46441,0.54777l0.65269,-1.07801c0,0 0,0 0,0c0.35755,-0.59055 1.12614,-0.77943 1.71669,-0.42188c0.35428,0.2145 0.564,0.57693 0.5979,0.9601l0.19641,1.97571l-0.38176,1.11324c0,0 -0.64741,1.06928 -1.71669,0.42188z" fill="#001769" stroke-width="0.5"></path>
        <path d="M230.08337,172.20242l-1.87108,-0.15464c-2.60904,-0.61372 -7.04888,-2.92344 -7.70969,-5.64613c-0.03885,-0.16011 0.0911,0.3698 -0.01718,0.49395c-0.4838,0.55469 -0.97904,1.19386 -1.6718,1.4425c-0.60243,0.21622 -1.35692,-0.60667 -1.92925,-0.57151l-0.14373,0.63475c-0.02779,0.1376 -0.07941,0.27281 -0.1563,0.39981c-0.35755,0.59055 -1.12614,0.77943 -1.71669,0.42188c-0.29528,-0.17878 -0.49014,-0.46033 -0.56647,-0.77099l-0.34837,-1.41761v0c-0.66809,-2.98704 -2.11042,-3.16579 -3.85672,-5.47474c-0.16832,-0.22254 -0.37615,-0.5989 -0.55672,-0.99756c-0.32806,0.56102 -0.80114,1.0485 -0.84192,1.08166c-1.62453,1.32113 -3.07928,1.28133 -4.51765,-0.40585c-1.22635,-1.43849 -1.82433,-6.42627 -1.78813,-8.30094c0.02188,-1.13322 0.50382,-1.52188 0.13872,-2.18934c-0.24599,0.29237 -0.47779,0.58065 -0.69581,0.85103c-0.41696,-0.98216 -0.76918,-2.02534 -1.04397,-3.16279c-2.05435,-8.50347 3.6952,-18.48036 10.13316,-23.4278c7.30755,-6.18821 15.78125,-7.1886 24.90466,-5.86193c3.11479,0.45293 6.1476,2.03715 9.2295,2.73255c6.23525,1.41636 10.12074,6.30521 13.35412,11.43218c1.33,2.1089 3.27791,5.22026 3.72241,7.77378c0.62229,3.57493 -0.43185,7.09885 -1.02737,10.65276c-2.82832,7.81145 -8.96559,13.14765 -16.31424,16.59993c-2.20329,1.03508 -3.99441,2.12912 -6.01902,2.57633c0.05518,0.07564 0.10685,0.1628 0.15381,0.26297c0.53059,1.13181 -0.60122,1.66239 -0.60122,1.66239c-2.89178,1.24778 -4.8074,0.04733 -7.53711,-0.77278c-0.3478,0.16512 -0.70594,0.13612 -0.70594,0.13612zM203.9888,148.56633c2.19119,2.79934 0.77411,7.70012 2.20566,11.19135c0.47102,1.14873 1.33301,-0.88557 1.35552,-0.92395c0.45016,-0.76772 0.5081,-2.08878 1.37539,-2.28838c1.70506,-0.39241 2.59601,2.74927 3.14959,3.48658c1.79066,2.38494 3.16568,2.88253 4.08043,5.64302c0.67647,0.14046 1.52752,0.4302 1.96888,0.2601c1.02019,-0.39317 1.4888,-2.09264 2.58005,-2.02523c0.40552,0.02505 2.34416,2.09329 2.74623,2.47926c1.41096,1.35437 3.1283,2.7346 5.06638,3.17141c0.10928,-0.22075 0.2102,-0.44976 0.30259,-0.68697c0.80244,0.24899 1.59935,0.48514 2.38673,0.71005c1.32999,0.37991 2.67521,1.1727 4.02345,1.34193l0.82185,-2.61234c0,0 0.64741,-1.06928 1.71669,-0.42188l0,0.00001c0.28812,0.17445 0.4516,0.37953 0.53669,0.58605c1.75335,-1.25896 5.44949,-2.30459 6.6633,-2.98061c6.06657,-3.37873 11.27316,-7.61531 13.71999,-14.39104c0.53119,-3.25716 1.48172,-6.37943 0.9747,-9.6448c-0.20884,-1.34496 -1.34861,-2.90442 -1.88184,-4.15602c-2.39938,-5.63181 -7.05138,-11.58363 -13.27525,-12.98786c-2.98196,-0.67742 -5.98636,-2.28568 -8.99639,-2.69125c-8.49545,-1.14469 -16.2053,-0.4881 -23.02296,5.33374c-5.73548,4.22244 -11.12456,13.48163 -9.2525,20.94737c0.01896,0.07563 0.03827,0.15074 0.05792,0.22536c0.42018,0.10862 0.6969,0.4341 0.6969,0.4341z" fill="#000000" stroke-width="0.5"></path>
      </g>
    </g>
  </g>
</svg>
