<?xml version="1.0" encoding="UTF-8"?>
<svg xmlns="http://www.w3.org/2000/svg" xmlns:xlink="http://www.w3.org/1999/xlink" version="1.1" width="251.92253" height="159.85817" viewBox="0,0,251.92253,159.85817">
  <g transform="translate(-97.60001,-92.39393)">
    <g stroke="none" stroke-miterlimit="10">
      <g>
        <g>
          <path d="M106.64352,153.65201v-52.69339h52.69336v52.69339z" fill="#6b3e00" stroke-width="0"></path>
          <path d="M97.65002,162.53812v-9.1124h9.11237v9.1124z" fill="#000000" stroke-width="NaN"></path>
          <path d="M97.65002,153.90681v-9.1124h9.11237v9.1124z" fill="#3a2200" stroke-width="NaN"></path>
          <path d="M97.65002,145.21891v-9.11237h9.11237v9.11237z" fill="#3a2200" stroke-width="NaN"></path>
          <path d="M97.65002,136.58764v-9.11237h9.11237v9.11237z" fill="#3a2200" stroke-width="NaN"></path>
          <path d="M97.65002,127.56013v-9.1124h9.11237v9.1124z" fill="#153c00" stroke-width="NaN"></path>
          <path d="M97.65002,118.92883v-9.11237h9.11237v9.11237z" fill="#153c00" stroke-width="NaN"></path>
          <path d="M97.65002,110.24093v-9.1124h9.11237v9.1124z" fill="#153c00" stroke-width="NaN"></path>
          <path d="M97.65002,101.60959v-9.11237h9.11237v9.11237z" fill="#153c00" stroke-width="NaN"></path>
          <path d="M168.32761,101.60959h-9.11237v-9.11237h9.11237z" fill="#000000" stroke-width="NaN"></path>
          <path d="M159.63974,101.60959h-9.1124v-9.11237h9.1124z" fill="#153c00" stroke-width="NaN"></path>
          <path d="M151.00844,101.60959h-9.1124v-9.11237h9.1124z" fill="#153c00" stroke-width="NaN"></path>
          <path d="M141.98096,101.60959h-9.1124v-9.11237h9.1124z" fill="#153c00" stroke-width="NaN"></path>
          <path d="M133.34966,101.60959h-9.1124v-9.11237h9.1124z" fill="#153c00" stroke-width="NaN"></path>
          <path d="M124.66173,101.60959h-9.11237v-9.11237h9.11237z" fill="#153c00" stroke-width="NaN"></path>
          <path d="M116.03045,101.60959h-9.1124v-9.11237h9.1124z" fill="#153c00" stroke-width="NaN"></path>
          <path d="M159.21524,162.53814v-9.1124h9.11237v9.1124z" fill="#000000" stroke-width="NaN"></path>
          <path d="M159.21524,153.90684v-9.1124h9.11237v9.1124z" fill="#3a2200" stroke-width="NaN"></path>
          <path d="M159.21524,145.21891v-9.11237h9.11237v9.11237z" fill="#3a2200" stroke-width="NaN"></path>
          <path d="M159.21524,136.58764v-9.11237h9.11237v9.11237z" fill="#3a2200" stroke-width="NaN"></path>
          <path d="M159.21524,127.56013v-9.1124h9.11237v9.1124z" fill="#3a2200" stroke-width="NaN"></path>
          <path d="M159.21524,118.92883v-9.11237h9.11237v9.11237z" fill="#153c00" stroke-width="NaN"></path>
          <path d="M159.21524,110.24093v-9.1124h9.11237v9.1124z" fill="#153c00" stroke-width="NaN"></path>
          <path d="M159.21524,101.60962v-9.11237h9.11237v9.11237z" fill="#153c00" stroke-width="NaN"></path>
          <path d="M167.78995,162.53814h-9.1124v-9.1124h9.1124z" fill="#3a2200" stroke-width="NaN"></path>
          <path d="M159.15865,162.53814h-9.11237v-9.1124h9.11237z" fill="#3a2200" stroke-width="NaN"></path>
          <path d="M150.47075,162.53814h-9.1124v-9.1124h9.1124z" fill="#3a2200" stroke-width="NaN"></path>
          <path d="M141.83944,162.53814h-9.1124v-9.1124h9.1124z" fill="#3a2200" stroke-width="NaN"></path>
          <path d="M132.81194,162.53812h-9.1124v-9.1124h9.1124z" fill="#3a2200" stroke-width="NaN"></path>
          <path d="M124.18066,162.53814h-9.1124v-9.1124h9.1124z" fill="#3a2200" stroke-width="NaN"></path>
          <path d="M115.49276,162.53814h-9.1124v-9.1124h9.1124z" fill="#3a2200" stroke-width="NaN"></path>
          <path d="M106.86146,162.53814h-9.1124v-9.1124h9.1124z" fill="#3a2200" stroke-width="NaN"></path>
          <path d="M106.64352,118.78725v-17.03623h52.69336v17.03623z" fill="#236500" stroke-width="0"></path>
          <path d="M106.91805,127.75822v-9.1124h9.1124v9.1124z" fill="#236500" stroke-width="NaN"></path>
          <path d="M128.43402,127.36205v-9.1124h9.11237v9.1124z" fill="#236500" stroke-width="NaN"></path>
          <path d="M137.02855,127.75822v-9.1124h9.11237v9.1124z" fill="#236500" stroke-width="NaN"></path>
        </g>
        <path d="M97.60001,162.39393v-70h71v70z" fill-opacity="0.20392" fill="#000000" stroke-width="0"></path>
      </g>
      <g stroke-width="0">
        <g fill="#5f1b1b">
          <path d="M214.62226,217.37321v-85.60117h13.89338v85.60117z"></path>
          <path d="M202.52157,207.96156v-64.08883h52.88449v64.08883z"></path>
          <path d="M190.42088,209.30608v-29.57946h159.10165v29.57946z"></path>
          <path d="M228.06747,228.12937v-72.27908h73.05231v72.27908z"></path>
          <path d="M263.92136,240.67824v-33.16485h85.60117v33.16485z"></path>
        </g>
        <g>
          <path d="M202.96974,156.42159v-12.54886h49.2991v12.54886z" fill="#802424"></path>
          <path d="M214.62226,145.66542v-15.68608h13.89338v15.68608z" fill="#802424"></path>
          <path d="M240.16816,168.97045v-12.99704h36.75024v12.99704z" fill="#802424"></path>
          <path d="M263.92136,180.62297v-12.99704h36.75024v12.99704z" fill="#802424"></path>
          <path d="M288.12274,192.27548v-12.99704h36.75024v12.99704z" fill="#802424"></path>
          <path d="M312.32411,204.37617v-12.99704h36.75024v12.99704z" fill="#802424"></path>
          <path d="M190.86905,204.37617v-12.54886h36.75024v12.54886z" fill="#3d1111"></path>
          <path d="M215.07043,216.92503v-12.54886h36.75024v12.54886z" fill="#3d1111"></path>
          <path d="M239.27181,229.47389v-12.54886h36.75024v12.54886z" fill="#3d1111"></path>
          <path d="M264.36953,241.57458v-12.54886h36.75024v12.54886z" fill="#3d1111"></path>
        </g>
      </g>
      <path d="M142.01812,180.62297v-60.99847h48.85093c0,0 15.68608,-2.36393 15.68608,2.28772c0,3.34995 2.02358,15.69763 -1.72354,21.11202c-2.48472,3.59028 -13.96254,0.61644 -13.96254,2.64119c0,10.79624 0,34.95755 0,34.95755c0,0 -6.37138,0 -11.20434,0c-0.86922,0 0.75874,12.99704 -0.44817,12.99704c-1.62506,0 -9.47712,2.10467 -12.14265,-0.91135c-3.0516,-3.45286 -0.97615,-12.08568 -3.54343,-12.08568c-10.49896,0 -21.51234,0 -21.51234,0z" fill="#e6d3a9" stroke-width="0"></path>
      <path d="M142.01813,181.07114v-24.64955h12.99704v24.64955z" fill="#b1a281" stroke-width="0"></path>
      <path d="M154.56699,192.27548v-22.40868h36.30207v22.40868z" fill="#b1a281" stroke-width="0"></path>
      <path d="M166.2195,143.87272v-24.20138h37.19841v24.20138z" fill="#ffe9ba" stroke-width="0"></path>
      <path d="M142.57816,119.70475v-11.95685h11.95685v11.95685z" fill="#000000" stroke-width="NaN"></path>
      <path d="M154.67885,119.70475v-11.95685h11.95685v11.95685z" fill="#000000" stroke-width="NaN"></path>
      <path d="M166.77954,119.70475v-11.95685h11.95685v11.95685z" fill="#000000" stroke-width="NaN"></path>
      <path d="M178.88023,119.70475v-11.95685h11.95685v11.95685z" fill="#000000" stroke-width="NaN"></path>
      <path d="M190.98092,119.70475v-11.95685h11.95685v11.95685z" fill="#000000" stroke-width="NaN"></path>
      <path d="M142.43433,143.68204h-11.95685v-11.95685h11.95685z" fill="#000000" stroke-width="NaN"></path>
      <path d="M142.43433,131.58135h-11.95685v-11.95685h11.95685z" fill="#000000" stroke-width="NaN"></path>
      <path d="M142.43433,167.88341h-11.95685v-11.95685h11.95685z" fill="#000000" stroke-width="NaN"></path>
      <path d="M142.43433,155.78273h-11.95685v-11.95685h11.95685z" fill="#000000" stroke-width="NaN"></path>
      <path d="M142.43433,167.80316v11.95685h-11.95685v-11.95685z" fill="#000000" stroke-width="NaN"></path>
      <path d="M215.48663,119.84858v11.95685h-11.95685v-11.95685z" fill="#000000" stroke-width="NaN"></path>
      <path d="M227.58732,119.84858v11.95685h-11.95685v-11.95685z" fill="#000000" stroke-width="NaN"></path>
      <path d="M240.13618,131.72519v11.95685h-11.95685v-11.95685z" fill="#000000" stroke-width="NaN"></path>
      <path d="M252.23687,131.72519v11.95685h-11.95685v-11.95685z" fill="#000000" stroke-width="NaN"></path>
      <path d="M264.33756,143.82587v11.95685h-11.95685v-11.95685z" fill="#000000" stroke-width="NaN"></path>
      <path d="M276.43825,143.82587v11.95685h-11.95685v-11.95685z" fill="#000000" stroke-width="NaN"></path>
      <path d="M288.53894,155.81452v11.95685h-11.95685v-11.95685z" fill="#000000" stroke-width="NaN"></path>
      <path d="M300.63963,155.81452v11.95685h-11.95685v-11.95685z" fill="#000000" stroke-width="NaN"></path>
      <path d="M313.18849,167.69112v11.95685h-11.95685v-11.95685z" fill="#000000" stroke-width="NaN"></path>
      <path d="M325.28918,167.69112v11.95685h-11.95685v-11.95685z" fill="#000000" stroke-width="NaN"></path>
      <path d="M337.38987,179.79181v11.95685h-11.95685v-11.95685z" fill="#000000" stroke-width="NaN"></path>
      <path d="M349.49055,179.79181v11.95685h-11.95685v-11.95685z" fill="#000000" stroke-width="NaN"></path>
      <path d="M154.08684,180.35203v11.95685h-11.95685v-11.95685z" fill="#000000" stroke-width="NaN"></path>
      <path d="M166.18753,180.35203v11.95685h-11.95685v-11.95685z" fill="#000000" stroke-width="NaN"></path>
      <path d="M178.73639,192.22863v11.95685h-11.95685v-11.95685z" fill="#000000" stroke-width="NaN"></path>
      <path d="M190.83708,192.22863v11.95685h-11.95685v-11.95685z" fill="#000000" stroke-width="NaN"></path>
      <path d="M202.93777,204.32932v11.95685h-11.95685v-11.95685z" fill="#000000" stroke-width="NaN"></path>
      <path d="M215.03846,204.32932v11.95685h-11.95685v-11.95685z" fill="#000000" stroke-width="NaN"></path>
      <path d="M227.13915,216.31796v11.95685h-11.95685v-11.95685z" fill="#000000" stroke-width="NaN"></path>
      <path d="M239.23983,216.31796v11.95685h-11.95685v-11.95685z" fill="#000000" stroke-width="NaN"></path>
      <path d="M251.7887,228.19456v11.95685h-11.95685v-11.95685z" fill="#000000" stroke-width="NaN"></path>
      <path d="M263.88939,228.19456v11.95685h-11.95685v-11.95685z" fill="#000000" stroke-width="NaN"></path>
      <path d="M275.99007,240.29525v11.95685h-11.95685v-11.95685z" fill="#000000" stroke-width="NaN"></path>
      <path d="M288.09076,240.29525v11.95685h-11.95685v-11.95685z" fill="#000000" stroke-width="NaN"></path>
      <path d="M215.48663,131.05292v13.30137h-11.95685v-13.30137z" fill="#000000" stroke-width="NaN"></path>
      <path d="M202.93777,143.75118v11.95685h-11.95685v-11.95685z" fill="#000000" stroke-width="NaN"></path>
      <path d="M202.93777,167.69859v11.95685h-11.95685v-11.95685z" fill="#000000" stroke-width="NaN"></path>
      <path d="M202.93777,155.41863v11.95685h-11.95685v-11.95685z" fill="#000000" stroke-width="NaN"></path>
      <path d="M190.83708,179.95614v11.95685h-11.95685v-11.95685z" fill="#000000" stroke-width="NaN"></path>
      <path d="M178.73639,131.91192v11.95685h-11.95685v-11.95685z" fill="#000000" stroke-width="NaN"></path>
      <path d="M166.18753,119.85605v11.95685h-11.95685v-11.95685z" fill="#000000" stroke-width="NaN"></path>
      <path d="M190.83708,132.629v11.95685h-11.95685v-11.95685z" fill="#000000" stroke-width="NaN"></path>
    </g>
  </g>
</svg>
