<?xml version="1.0" encoding="UTF-8"?>
<svg xmlns="http://www.w3.org/2000/svg" xmlns:xlink="http://www.w3.org/1999/xlink" version="1.1" width="115.92382" height="262.83307" viewBox="0,0,115.92382,262.83307">
  <g transform="translate(-182.03808,-48.58347)">
    <g stroke="none" stroke-width="0.5" stroke-miterlimit="10">
      <path d="M277.16721,305.58933c-0.2631,-0.02798 -0.49539,-0.08084 -0.70045,-0.15301c-3.35309,1.72294 -6.88034,3.15331 -10.46755,4.10174c-5.89981,1.55986 -12.482,0.65539 -18.49702,0.89631c-6.62348,0.2653 -13.42908,1.49947 -20.07109,0.73668c-2.62295,-0.30123 -4.99914,-1.70301 -7.52396,-2.47495c-5.34762,-1.63499 -11.15991,-2.07253 -15.86234,-5.11268c0,0 -1.67528,-1.11689 -1.01661,-2.84946c-0.42474,0.13758 -0.94865,0.15395 -1.58718,-0.05888c-2.37171,-0.79055 -1.58116,-3.16227 -1.58116,-3.16227c3.38223,-10.07855 4.4767,-20.76388 7.14603,-31.01446c1.71392,-6.58164 4.45081,-13.2103 5.57863,-19.90687c1.15335,-6.84814 0.20155,-14.18805 2.40236,-20.811c1.0743,-11.10885 1.93758,-22.25243 3.15915,-33.34542c0.52098,-4.73091 1.35624,-9.50279 1.58889,-14.26094c0.31077,-6.35603 -0.20989,-12.37305 0.83066,-18.68177l-0.03402,-1.18899c0,0 0,-0.05859 0.00897,-0.15784c-5.1362,-1.20704 -10.41157,-1.44744 -15.69705,-2.14778c-4.71828,-0.62518 -9.41998,-2.94593 -13.66138,-4.82942c-2.49969,-1.11005 -4.17867,-0.92781 -6.13729,-3.3475c-2.49189,-3.07848 -1.78375,-8.18596 -2.10104,-11.67114c-0.12329,-1.35414 -0.65705,-2.6478 -0.79998,-4c-0.50662,-4.79265 0.9067,-9.49189 2.1411,-14.04428c1.43268,-3.27506 3.77271,-7.55893 6.95965,-10.43391c-1.45339,-1.51129 -2.89202,-3.20415 -3.38465,-4.57758c-0.57328,-1.59828 -0.33185,-3.43835 0.08133,-5.1832c-0.61269,-0.45564 -1.00961,-1.18515 -1.00961,-2.00737c0,-0.18572 0.02025,-0.36672 0.05867,-0.5409l0.78987,-3.94938l0.04498,0.00899c0.0168,-0.12727 0.0367,-0.25435 0.05996,-0.38123c0.32379,-1.76578 1.72292,-3.15007 2.58932,-4.72238c0.81977,-1.48768 4.05289,-7.34899 4.56791,-7.81675c1.37513,-1.24897 3.43301,-1.439 5.05985,-2.33582c1.43165,-0.78923 2.72608,-1.80516 4.08912,-2.70774l0.12287,-0.02312l-0.01878,-0.03537l3.92185,-2.08206c0.3213,-0.17889 0.68615,-0.28899 1.07465,-0.31039c0.28773,-0.30294 0.56992,-0.61199 0.8544,-0.91852c0.06667,-0.60586 0.43626,-2.28533 2.48533,-2.28533c0.00988,0 0.01971,0.00003 0.02951,0.00011c3.47685,-4.56557 6.77485,-9.31923 11.12205,-12.97966c1.31184,-1.1046 2.89673,-1.84236 4.27247,-2.86628c0.93637,-0.69691 1.57988,-1.82479 2.65166,-2.28711c4.37946,-1.88911 6.07119,-0.92318 10.51745,-0.03794c1.17942,0.23482 2.42899,0.26244 3.52946,0.74736c3.44057,1.51608 6.94297,4.2902 9.96304,6.70977c2.0277,-0.86898 4.0554,-1.73792 6.08312,-2.60684l3.5376,-1.62816c0.33034,-0.16096 0.70143,-0.25126 1.09362,-0.25126c1.38071,0 2.5,1.11929 2.5,2.5c0,0.0216 -0.00027,0.04313 -0.00082,0.0646c0.04941,0.02071 0.0979,0.04209 0.14544,0.06414c1.84278,0.85516 2.80865,2.93837 4.13688,4.47555c0.14351,0.16609 0.28674,0.33259 0.42967,0.49948c1.31568,0.91369 2.54454,1.93625 3.72044,3.02622c0.55894,-0.22997 1.06839,-0.22997 1.06839,-0.22997c1.40853,0.02229 2.8458,0.3508 4.2256,0.06688c1.24567,-0.25632 2.17172,-1.69315 3.44256,-1.64477c2.26567,0.08625 4.85646,0.45498 6.4941,2.02304c0.90992,0.87127 -0.56662,2.49515 -0.4641,3.75076c0.06606,0.80908 0.22001,1.62015 0.43421,2.42938c0.14004,-0.058 0.29341,-0.10868 0.4613,-0.15066c2.42536,-0.60634 3.03169,1.81902 3.03169,1.81902c1.96236,7.86909 2.4746,15.33224 2.4746,23.40632v3.25616c0.67223,2.54708 0.417,5.30561 0.16931,7.93424c-0.7183,7.62311 -2.71287,15.14493 -3.33761,22.76405c-0.86615,10.56344 -0.42521,21.43691 -2.44535,31.86846c0.02044,0.36525 -0.02666,0.62431 -0.02666,0.62431c-1.55773,8.5673 -2.89041,17.34257 -3.16225,26.06608c-0.33989,10.90727 0.59048,21.89739 0.00032,32.7928c-0.45186,8.34211 -1.41827,16.69111 -2.12676,25.01585c-1.48397,17.43662 -4.0236,34.74727 -6.00378,52.132l3.35074,-2.46729c0,0 2.01334,-1.48205 3.49539,0.53128c1.48206,2.01333 -0.53128,3.49538 -0.53128,3.49538l-3.88701,2.86048c-1.01991,0.67688 -2.06773,1.3356 -3.13925,1.96916c-0.11695,0.56501 -0.64321,2.26392 -2.72018,2.04303zM281.62057,244.60129c0.70252,-8.25463 1.6598,-16.53257 2.11325,-24.80404c0.59747,-10.89854 -0.34859,-21.89599 0.00032,-32.80718c0.23929,-7.48338 1.22527,-15.00131 2.4763,-22.40247c-0.1468,-0.65289 -0.01931,-1.22657 -0.01931,-1.22657l0.51534,-2.31907c2.78076,-12.36407 1.49753,-25.43306 3.48662,-37.92199c0.93915,-5.89663 1.89714,-11.75701 2.5288,-17.68425c0.21954,-2.06006 0.65122,-4.26793 -0.01956,-6.22239c-0.11026,-0.282 -0.17078,-0.58893 -0.17078,-0.90999v-3.60001c0,-3.82588 -0.1124,-7.49774 -0.45772,-11.14525c-0.05223,-0.0845 -0.07834,-0.13673 -0.07834,-0.13673l-1.64896,-3.30389c-0.44526,-1.13888 -0.95932,-2.31316 -1.4721,-3.51141l-2.69846,2.11316l-0.00182,1.45977c-0.30408,-0.24412 -0.60425,-0.49533 -0.90098,-0.75279l-0.59044,0.46237c0,0 -2.07097,-0.6502 -1.74758,-2.66861c-0.27273,-0.2762 -0.54344,-0.55617 -0.81256,-0.83917l-0.99278,0.52101l-0.93555,1.25046c-0.13118,-0.18453 -0.2628,-0.36862 -0.39486,-0.55229l-0.13558,0.07116c0,0 -0.49239,-0.49238 -0.69756,-1.21729c-2.42268,-3.29766 -4.97091,-6.47575 -7.52405,-9.685c-0.63986,-0.80428 -1.19462,-1.69962 -1.75022,-2.59328c-0.70101,-0.45451 -1.42562,-0.86924 -2.17845,-1.23615c0,0 -1.99477,-0.99741 -1.27411,-2.99218c-0.08262,-0.05921 -0.16677,-0.11677 -0.25252,-0.17258c-0.67186,-0.43734 -1.11937,-0.57551 -1.44325,-0.53716l-0.84136,0.74788c-0.26058,0.43691 -0.53063,0.92172 -1.15868,1.02994l-2.64315,2.34946c-0.44256,0.39706 -1.02753,0.63859 -1.66891,0.63859c-0.20188,0 -0.39818,-0.02393 -0.58619,-0.0691c2.30607,3.0694 4.38453,6.26686 6.3267,8.98467l-0.11796,0.15836c1.12185,1.52052 2.25383,3.02822 3.37744,4.52607l1.8,2.40001c0,0 1.5,2 -0.50001,3.5c-2,1.5 -3.5,-0.50001 -3.5,-0.50001l-1.8,-2.40001c-1.03695,-1.38288 -2.0901,-2.77527 -3.13859,-4.17974c-0.47676,-0.26978 -0.97515,-0.73279 -1.12492,-1.51535c-1.31656,-1.78514 -2.6137,-3.59101 -3.84928,-5.42274c-1.28175,-1.62742 -2.58329,-3.24192 -3.89373,-4.86771c-1.34611,-1.67003 -2.53675,-3.31683 -3.97888,-4.65472c-0.18116,-0.06932 -0.35937,-0.14289 -0.53262,-0.22363c0,0 -0.72627,-0.36313 -1.14405,-1.0894c-0.75078,-0.48283 -1.58143,-0.88305 -2.52851,-1.17499c0,0 -2.12366,-0.70791 -1.68203,-2.79354c-0.37409,-0.03963 -0.75042,-0.07285 -1.11478,-0.14614c-1.47381,-0.29644 -2.91153,-0.84985 -4.41261,-0.93203c-1.74246,-0.09541 -3.31197,1.24577 -4.7035,2.29883c-2.11539,1.60085 -4.38091,3.08348 -6.12253,5.08456c-6.07935,6.985 -11.48727,15.33101 -18.87391,20.91661c0,0 -1.86947,1.40211 -3.34912,-0.31226c-0.52802,-0.05222 -1.00775,-0.26873 -1.38737,-0.5977c-1.06221,0.325 -2.19772,0.50894 -3.01288,1.22918c-0.54717,0.48345 -0.99517,1.02665 -1.37756,1.60844c1.20375,0.18012 2.12691,1.21843 2.12691,2.47235c0,0.57191 -0.19205,1.09897 -0.51516,1.52021l-2.089,2.78531c-0.36907,1.01324 -0.66946,2.07937 -1.39704,2.81651c0.00079,0.02589 0.00119,0.05188 0.00119,0.07797c0,0.29692 -0.05177,0.58176 -0.14677,0.84598l-0.76336,2.28994c-0.19547,0.63554 -0.63747,1.16308 -1.21439,1.47102c-0.10975,0.43798 -0.2271,0.93902 -0.31877,1.42612c0.42498,-0.33391 0.96087,-0.53306 1.54327,-0.53306c0.99801,0 1.85943,0.5848 2.26029,1.43042l1.44048,2.88099c0.54237,0.57384 0.97479,1.2925 1.66189,1.67573c0.41708,0.23263 0.85236,0.44293 1.30029,0.62226c0.56191,0.16696 1.10751,0.32745 1.63547,0.49241c0.21785,0.04348 0.437,0.07809 0.65692,0.103c3.86437,0.43763 4.47365,-3.42883 6.90983,-5.27897l3.16097,-3.84755c0.0254,-0.03141 0.05156,-0.06219 0.07843,-0.09231c0.22997,-0.92498 1.01724,-1.50217 1.01724,-1.50217l2.16526,-1.56451c0.53938,-0.63861 1.11152,-1.30248 1.71175,-1.94779c0.02684,-0.06644 0.05352,-0.13311 0.08002,-0.20002c0,0 0.50628,-1.26566 1.70574,-1.55396c3.21409,-2.82233 7.00637,-4.16769 10.80691,1.27934c1.01609,1.45628 0.29331,3.55042 0.19699,5.32353c-0.21159,3.89526 -0.73048,5.36598 -1.72694,8.2437c0.08207,0.06342 0.16452,0.1336 0.24721,0.21103c1.82485,1.70878 0.11607,3.53363 0.11607,3.53363l-0.48727,0.3956c-1.37408,2.57231 -2.68367,5.14879 -3.98593,7.71533c0.71828,1.07854 0.1329,2.39566 0.1329,2.39566l-1.16932,2.63096c-1.48025,3.32622 -3.96882,10.14861 -6.66281,12.62973c-0.83981,0.77346 -1.95634,1.12126 -3.07339,1.46825c-0.41322,0.4212 -1.22994,1.02873 -2.31426,0.73528c-0.00128,0.00017 -0.00256,0.00033 -0.00384,0.00049c-1.38756,1.6572 -3.26075,0.39126 -3.26075,0.39126l-0.73385,-0.49595c-2.92743,-2.00102 -5.58872,-4.45644 -7.81847,-7.21363c0,0 -0.42635,-0.53293 -0.55507,-1.26466c-0.2663,-0.25536 -0.49972,-0.61228 -0.66446,-1.10652c-0.79057,-2.37171 1.58114,-3.16228 1.58114,-3.16228l2.03027,-0.64272c0.74104,-0.49425 1.8115,-0.69281 2.22314,-1.48274c0.55681,-1.0685 0.33992,-2.38792 0.42039,-3.59011c0.22282,-3.32898 0.08739,-5.31646 -2.41827,-6.57243c0.1508,0.32174 0.23505,0.68089 0.23505,1.05971c0,1.38071 -1.11929,2.5 -2.5,2.5c-0.52532,0 -1.0128,-0.16202 -1.41519,-0.43883l-2.37158,-1.58104l0.03373,-0.05061c-0.07774,-0.03068 -0.15507,-0.0627 -0.23195,-0.09616c-0.71767,-0.3124 -1.22683,-0.93242 -1.72832,-1.56337c-0.55729,0.56692 -1.03408,1.11297 -1.31664,1.39543c-1.95052,1.94985 -3.52878,4.33718 -4.59484,6.88079c-1.13615,4.20023 -1.48859,4.7779 -1.88151,9.13101c-0.20445,2.26506 0.58851,4.51149 0.79411,6.77645c0.19126,2.10711 -0.5304,7.03666 1.09891,9.12885c0.59728,0.76697 3.64898,1.57154 4.11848,1.78039c2.42296,1.07781 4.84299,2.21135 7.39371,2.9368c3.68221,1.04725 6.24155,1.13955 10.09017,1.75838c1.62903,0.26193 3.12428,1.13254 4.75761,1.36607c1.60161,0.22899 3.247,-0.18193 4.8537,0.00812c0.20357,0.02408 4.78949,1.56246 5.19014,1.69601c0,0 2.37171,0.79055 1.58116,3.16226c-0.32184,0.96554 -0.90573,1.40698 -1.48497,1.59103l-0.0208,1.22943c-1.02821,6.10055 -0.46733,11.9612 -0.76932,18.11827c-0.23797,4.85194 -1.07934,9.71473 -1.61106,14.53898c-1.24164,11.26504 -2.08018,22.57995 -3.24087,33.85467c-2.19982,6.57871 -1.23244,13.97154 -2.39769,20.78897c-1.1567,6.76736 -3.88534,13.44346 -5.62133,20.09313c-2.70806,10.37315 -3.86751,21.15891 -7.25001,31.37356c1.12552,-0.38245 2.21111,0.3413 2.21111,0.3413c4.0154,2.79348 9.84185,3.05213 14.53768,4.48742c2.3138,0.70722 4.46936,2.07567 6.87595,2.32497c6.3064,0.6533 12.78215,-0.54538 19.07008,-0.79724c5.66512,-0.22691 12.01122,0.72091 17.56189,-0.76973c3.54162,-0.95111 7.04446,-2.42351 10.33485,-4.19542c2.02452,-18.64378 4.83142,-37.18557 6.42176,-55.87193zM286.13345,67.00738c-0.01471,-0.51523 1.3981,-0.60548 1.13587,-1.04923c-0.26526,-0.44888 -1.02922,0.21179 -1.5059,0.42307c-1.01828,0.45134 -1.86417,1.3424 -2.95746,1.55525c-0.56644,0.11028 -1.1397,0.15414 -1.71649,0.16368c2.35949,2.58254 4.69363,5.20824 7.34233,7.46113c-1.16532,-2.78828 -2.21648,-5.68609 -2.29836,-8.5539zM216.16494,105.48831l-0.21743,0.13096l0.05184,0.05184l-3.53554,3.53553c-0.45241,0.45241 -1.07741,0.73224 -1.76776,0.73224c-0.58826,0 -1.12906,-0.20317 -1.55606,-0.54318c-0.1682,0.14603 -0.33755,0.28445 -0.50979,0.41489c0.56227,0.74564 1.05754,1.64749 1.47956,2.75726c0.71491,1.87999 0.34985,4.02599 0.19039,6.03099c-0.1562,1.96411 -0.1402,4.09884 -1.13144,5.80165c-0.85056,1.46115 -2.60139,2.14318 -3.96838,3.1574c1.55248,1.75729 3.32689,3.33782 5.24858,4.67274c0.25671,-0.16949 0.45417,-0.24848 0.45417,-0.24848c0.10787,-0.03803 0.21816,-0.07207 0.33016,-0.10331c4.99421,-7.71289 8.69382,-15.87292 12.98239,-24.00334c-0.80883,-1.00349 -0.35576,-2.36272 -0.35576,-2.36272c0.99383,-2.96107 1.71555,-6.02457 2.17825,-9.11352c0.12468,-0.83239 0.72637,-1.71615 0.40203,-2.49282c-0.89303,-2.13846 -2.62542,-0.90535 -3.45637,-0.04332c-0.07529,0.07811 -0.14971,0.15699 -0.22334,0.23658c-1.75301,4.18518 -4.05526,7.60389 -6.59549,11.38861z" fill="#000000"></path>
      <path d="M288.46187,75.60123c-2.64869,-2.25289 -5.0538,-4.94731 -7.41328,-7.52985c0.57678,-0.00953 1.16195,-0.06537 1.72839,-0.17565c1.0933,-0.21285 1.97953,-1.11187 2.99781,-1.56321c0.47668,-0.21128 1.25274,-0.86741 1.51799,-0.41853c0.26223,0.44375 -1.15654,0.53132 -1.14183,1.04655c0.08188,2.86781 1.14561,5.85241 2.31093,8.64069z" fill="#0035c4"></path>
      <path d="M275.21281,300.52122c-3.29039,1.77191 -6.79747,3.24535 -10.33909,4.19646c-5.55067,1.49064 -11.90365,0.5437 -17.56877,0.77061c-6.28792,0.25185 -12.77123,1.4504 -19.07762,0.7971c-2.40658,-0.24931 -4.56495,-1.6181 -6.87874,-2.32532c-4.69583,-1.43529 -10.52823,-1.69521 -14.54363,-4.48869c0,0 -1.08644,-0.724 -2.21197,-0.34155c3.3825,-10.21465 4.54091,-21.00073 7.24897,-31.37388c1.73599,-6.64967 4.46409,-13.32596 5.62079,-20.09331c1.16525,-6.81743 0.19392,-14.21178 2.39374,-20.79048c1.16069,-11.27471 1.97931,-22.60518 3.22095,-33.87022c0.53173,-4.82425 1.36309,-9.72252 1.60106,-14.57446c0.30199,-6.15707 -0.2389,-12.05279 0.78931,-18.15334l0.02199,-1.23029c0.57924,-0.18404 1.16658,-0.62768 1.48842,-1.59322c0.79055,-2.37171 -1.53128,-3.0756 -1.53128,-3.0756c-0.40065,-0.13355 -4.98201,-1.67487 -5.18558,-1.69895c-1.6067,-0.19004 -3.24794,0.21752 -4.84956,-0.01147c-1.63334,-0.23353 -3.1263,-1.10634 -4.75532,-1.36828c-3.84863,-0.61882 -6.40416,-0.71551 -10.08637,-1.76276c-2.55072,-0.72545 -4.96962,-1.86051 -7.39258,-2.93833c-0.4695,-0.20885 -3.60307,-1.07083 -4.20036,-1.8378c-1.62931,-2.09219 -0.90458,-7.02573 -1.09584,-9.13285c-0.2056,-2.26496 -0.99643,-4.51373 -0.79199,-6.77879c0.39292,-4.35312 0.74899,-4.93419 1.88515,-9.13443c1.06606,-2.54361 2.64819,-4.93391 4.59871,-6.88375c0.28256,-0.28247 0.7603,-0.82915 1.31759,-1.39607c0.50148,0.63094 1.01095,1.25078 1.72862,1.56317c0.07688,0.03347 0.15429,0.06544 0.23203,0.09612l-0.03376,0.05062l2.37221,1.58065c0.40238,0.2768 0.89041,0.4385 1.41573,0.4385c1.38071,0 2.50194,-1.12041 2.50194,-2.50112c0,-0.37882 -0.08409,-0.73806 -0.23488,-1.0598c2.50565,1.25597 2.68949,3.33095 2.46667,6.65993c-0.08047,1.20219 0.13777,2.52082 -0.41904,3.58933c-0.41164,0.78993 -1.48043,0.98745 -2.22148,1.48169l-2.02903,0.64188c0,0 -2.36984,0.78919 -1.57927,3.1609c0.16474,0.49424 0.39825,0.85108 0.66455,1.10644c0.12872,0.73173 0.49342,1.18593 0.49342,1.18593c2.22975,2.75719 4.89229,5.21166 7.81972,7.21268l0.73407,0.49578c0,0 1.87548,1.26436 3.26304,-0.39284c0.00128,-0.00016 0.00256,-0.00033 0.00384,-0.00049c1.08432,0.29345 1.903,-0.31529 2.31622,-0.73649c1.11705,-0.34699 2.23652,-0.69638 3.07634,-1.46984c2.69399,-2.48112 5.1916,-9.30696 6.67185,-12.63318l1.17073,-2.63132c0,0 0.58571,-1.31719 -0.13257,-2.39573c1.30226,-2.56654 2.61573,-5.14377 3.98981,-7.71608l0.48764,-0.39566c0,0 1.723,-1.72586 -0.10185,-3.43464c-0.08269,-0.07743 -0.17925,-0.24661 -0.26132,-0.31003c0.99646,-2.87772 1.51705,-4.34866 1.72864,-8.24392c0.09632,-1.77311 0.82971,-3.76781 -0.18638,-5.22409c-3.80054,-5.44702 -7.58711,-4.1026 -10.80121,-1.28027c-1.19946,0.2883 -1.70466,1.55371 -1.70466,1.55371c-0.0265,0.0669 -0.05311,0.13356 -0.07996,0.2c-0.60023,0.64531 -1.17123,1.30888 -1.7106,1.94749l-2.16389,1.56412c0,0 -0.7865,0.57695 -1.01647,1.50193c-0.02687,0.03012 -0.05297,0.06089 -0.07837,0.0923l-3.15863,3.84672c-2.43618,1.85014 -3.04083,5.71458 -6.9052,5.27695c-0.21991,-0.0249 -0.43877,-0.05967 -0.65662,-0.10315c-0.52796,-0.16496 -1.07291,-0.3258 -1.63482,-0.49275c-0.44793,-0.17933 -0.88276,-0.38987 -1.29984,-0.6225c-0.6871,-0.38324 -1.11919,-1.10207 -1.66156,-1.67591l-1.44054,-2.88096c-0.40086,-0.84562 -1.26167,-1.43076 -2.25968,-1.43076c-0.5824,0 -1.11754,0.19872 -1.54252,0.53263c0.09167,-0.4871 0.15874,-1.07457 0.26849,-1.51255c0.57693,-0.30794 1.01975,-0.83594 1.21521,-1.47148l0.76417,-2.29037c0.09499,-0.26422 0.147,-0.54918 0.147,-0.8461c0,-0.02609 -0.00038,-0.05209 -0.00118,-0.07798c0.72758,-0.73714 1.0291,-1.80385 1.39817,-2.81708l2.09039,-2.78596c0.32311,-0.42124 0.51565,-0.94852 0.51565,-1.52043c0,-1.25392 -0.88271,-2.20078 -2.08646,-2.3809c0.38239,-0.58179 0.79034,-1.21661 1.33751,-1.70007c0.81516,-0.72024 1.95208,-0.90476 3.01429,-1.22976c0.37962,0.32897 0.85983,0.5453 1.38785,0.59752c1.47965,1.71437 3.35049,0.31176 3.35049,0.31176c7.38664,-5.5856 12.80463,-13.93396 18.88398,-20.91896c1.74162,-2.00108 4.00983,-3.48398 6.12522,-5.08483c1.39153,-1.05306 2.96296,-2.39434 4.70542,-2.29893c1.50108,0.08219 2.94054,0.63557 4.41435,0.93201c0.36436,0.07328 0.74113,0.10651 1.11522,0.14614c-0.44163,2.08563 1.68273,2.79355 1.68273,2.79355c0.94708,0.29193 1.77878,0.69219 2.52956,1.17503c0.41777,0.72627 1.14454,1.08942 1.14454,1.08942c0.17325,0.08074 0.35169,0.15433 0.53285,0.22365c1.44213,1.33789 2.6346,2.98483 3.98071,4.65486c1.31045,1.6258 2.61391,3.24051 3.89567,4.86793c1.23559,1.83174 2.53482,3.63793 3.85138,5.42308c0.14977,0.78257 0.64881,1.24569 1.12557,1.51547c1.04849,1.40447 2.1035,2.79726 3.14045,4.18014l1.80111,2.40029c0,0 1.50168,2.00047 3.50168,0.50047c2,-1.5 0.47197,-3.40401 0.47197,-3.40401l-1.79891,-2.39971c-1.12361,-1.49785 -2.25363,-3.00508 -3.37548,-4.5256l0.11792,-0.15836c-1.94218,-2.7178 -4.01723,-5.91463 -6.3233,-8.98403c0.18802,0.04518 0.39953,-0.02973 0.60141,-0.02973c0.64138,0 1.22699,-0.24142 1.66956,-0.63848l2.64404,-2.3493c0.62806,-0.10823 0.89848,-0.59296 1.15907,-1.02987l0.84163,-0.74782c0.32388,-0.03835 0.772,0.09995 1.44385,0.53729c0.08575,0.05581 0.17001,0.1134 0.25263,0.17261c-0.72065,1.99477 1.27487,2.99235 1.27487,2.99235c0.75283,0.36691 1.47842,0.78188 2.17943,1.23639c0.5556,0.89365 1.11132,1.78925 1.75118,2.59354c2.55313,3.20925 5.1056,6.38872 7.52828,9.68638c0.20518,0.72491 0.69803,1.21747 0.69803,1.21747l0.13563,-0.07114c0.13205,0.18367 0.26392,0.36785 0.3951,0.55238l0.93572,-1.2504l0.99308,-0.52088c0.26912,0.28299 0.54027,0.56315 0.813,0.83935c-0.32338,2.01842 1.74869,2.66909 1.74869,2.66909l0.59058,-0.4623c0.29673,0.25746 0.59737,0.50888 0.90145,0.753l0.00157,-1.45988l2.69909,-2.11287c0.51278,1.19825 1.02798,2.37309 1.47324,3.51197l1.65016,3.30451c0,0 0.02617,0.05226 0.07839,0.13676c0.34533,3.64751 0.46019,7.32079 0.46019,11.14667l0.00082,3.60052c0,0.32106 0.0608,0.62816 0.17105,0.91017c0.67078,1.95446 0.24064,4.16337 0.0211,6.22344c-0.63166,5.92724 -1.58544,11.79095 -2.52459,17.68758c-1.98909,12.48894 -0.6926,25.5766 -3.47336,37.94067l-0.51463,2.32093c0,0 -0.12709,0.57481 0.01971,1.2277c-1.25103,7.40116 -2.23506,14.94284 -2.47435,22.42622c-0.3489,10.91118 0.58474,21.93442 -0.01273,32.83296c-0.45345,8.27148 -1.42064,16.55779 -2.12316,24.81242c-1.59034,18.68636 -4.41029,37.2341 -6.43481,55.87788z" fill="#0035c4"></path>
    </g>
  </g>
</svg>
