<?xml version="1.0" encoding="UTF-8"?>
<svg xmlns="http://www.w3.org/2000/svg" xmlns:xlink="http://www.w3.org/1999/xlink" version="1.1" width="121" height="362" viewBox="0,0,121,362">
  <g transform="translate(-358.60001,1)">
    <g stroke-miterlimit="10">
      <path d="M358.60001,361v-362h121v362z" fill="#ff6666" stroke="none" stroke-width="0"></path>
      <path d="M378.72501,248.78704v-137.57407h80.75v137.57407z" fill="none" stroke="#ffffff" stroke-width="1"></path>
      <g fill="#ffffff" stroke="none" stroke-width="0">
        <path d="M401.78035,180.7799c0,-0.37097 0,-1.0185 0,-1.6144c0,-0.71464 0.97301,-1.35501 2.01706,-1.35501c3.62577,0 14.65914,0 14.65914,0v4.42892c0,0 -11.03337,0 -14.65914,0c-1.04405,0 -2.01706,-0.88753 -2.01706,-1.45952z"></path>
        <path d="M418.28429,186.04117c0,-2.92961 0,-10.19749 0,-11.89304c0,-0.69052 0.45495,-1.19978 0.98818,-0.99968c1.84768,0.69335 12.5449,4.70746 16.4228,6.16266c0.87551,0.32854 0.96539,0.69974 0.22616,0.99185c-3.61554,1.42867 -14.43603,5.7044 -16.4477,6.49932c-0.62945,0.24873 -1.18944,0.00137 -1.18944,-0.76111z"></path>
      </g>
    </g>
  </g>
</svg>
