<?xml version="1.0" encoding="UTF-8"?>
<svg xmlns="http://www.w3.org/2000/svg" xmlns:xlink="http://www.w3.org/1999/xlink" version="1.1" width="57.16663" height="49.66668" viewBox="0,0,57.16663,49.66668">
  <g transform="translate(-211.41668,-155.16666)">
    <g stroke="none" stroke-miterlimit="10">
      <g>
        <path d="M223.18333,201.16668l0.3177,-40.42715c0,0 2.56287,0.75443 5.92001,-1.08503c2.93613,-1.60879 7.93601,-1.75097 10.51821,-1.77567c2.47943,-0.02372 6.60036,-0.9409 10.49481,1.69507c3.34969,2.26725 6.28054,0.84793 6.28054,0.84793l0.63539,40.74484z" fill="#a2f9ff" stroke-width="0"></path>
        <path d="M215.18333,193.33334v-19.33333h49.83333v19.33333z" fill="#a2f9ff" stroke-width="0"></path>
        <path d="M219.01666,197.50002v-31h42v31z" fill="#a2f9ff" stroke-width="0"></path>
        <path d="M238.08334,204.83334v-3.83334h3.83333v3.83334z" fill="#000000" stroke-width="NaN"></path>
        <path d="M241.91668,204.83334v-3.83334h3.83333v3.83334z" fill="#000000" stroke-width="NaN"></path>
        <path d="M245.75,204.83334v-3.83334h3.83333v3.83334z" fill="#000000" stroke-width="NaN"></path>
        <path d="M249.58334,204.83334v-3.83334h3.83333v3.83334z" fill="#000000" stroke-width="NaN"></path>
        <path d="M230.58334,204.83334v-3.83334h3.83333v3.83334z" fill="#000000" stroke-width="NaN"></path>
        <path d="M234.41668,204.83334v-3.83334h3.83333v3.83334z" fill="#000000" stroke-width="NaN"></path>
        <path d="M253.25,204.83334v-3.83334h3.83333v3.83334z" fill="#000000" stroke-width="NaN"></path>
        <path d="M257.08335,201.00002v-3.83334h3.83333v3.83334z" fill="#000000" stroke-width="NaN"></path>
        <path d="M226.75,204.83334v-3.83334h3.83333v3.83334z" fill="#000000" stroke-width="NaN"></path>
        <path d="M219.41668,201.00002v-3.83334h3.83333v3.83334z" fill="#000000" stroke-width="NaN"></path>
        <path d="M223.08334,204.83334v-3.83334h3.83333v3.83334z" fill="#000000" stroke-width="NaN"></path>
        <path d="M215.41668,197.16669v-3.83334h3.83333v3.83334z" fill="#000000" stroke-width="NaN"></path>
        <path d="M260.91667,197.16669v-3.83334h3.83333v3.83334z" fill="#000000" stroke-width="NaN"></path>
        <path d="M211.41668,193.16669v-3.83334h3.83333v3.83334z" fill="#000000" stroke-width="NaN"></path>
        <path d="M264.74998,185.50002v-3.83334h3.83333v3.83334z" fill="#000000" stroke-width="NaN"></path>
        <path d="M211.41668,181.83334v-3.83334h3.83333v3.83334z" fill="#000000" stroke-width="NaN"></path>
        <path d="M211.41668,185.66669v-3.83334h3.83333v3.83334z" fill="#000000" stroke-width="NaN"></path>
        <path d="M264.74998,193.16669v-3.83334h3.83333v3.83334z" fill="#000000" stroke-width="NaN"></path>
        <path d="M211.41668,189.50002v-3.83334h3.83333v3.83334z" fill="#000000" stroke-width="NaN"></path>
        <path d="M264.74998,189.33334v-3.83334h3.83333v3.83334z" fill="#000000" stroke-width="NaN"></path>
        <path d="M264.74998,181.66669v-3.83334h3.83333v3.83334z" fill="#000000" stroke-width="NaN"></path>
        <path d="M211.41668,178.00002v-3.83334h3.83333v3.83334z" fill="#000000" stroke-width="NaN"></path>
        <path d="M264.74998,177.83334v-3.83334h3.83333v3.83334z" fill="#000000" stroke-width="NaN"></path>
        <path d="M215.41668,174.16669v-3.83334h3.83333v3.83334z" fill="#000000" stroke-width="NaN"></path>
        <path d="M215.41668,170.50002v-3.83334h3.83333v3.83334z" fill="#000000" stroke-width="NaN"></path>
        <path d="M260.91667,174.00002v-3.83334h3.83333v3.83334z" fill="#000000" stroke-width="NaN"></path>
        <path d="M260.91667,170.33334v-3.83334h3.83333v3.83334z" fill="#000000" stroke-width="NaN"></path>
        <path d="M257.08335,166.5v-3.83334h3.83333v3.83334z" fill="#000000" stroke-width="NaN"></path>
        <path d="M219.41668,166.5v-3.83334h3.83333v3.83334z" fill="#000000" stroke-width="NaN"></path>
        <path d="M223.08334,162.66669v-3.83333h3.83333v3.83333z" fill="#000000" stroke-width="NaN"></path>
        <path d="M226.75,162.66669v-3.83333h3.83333v3.83333z" fill="#000000" stroke-width="NaN"></path>
        <path d="M253.33334,162.66669v-3.83334h3.83333v3.83334z" fill="#000000" stroke-width="NaN"></path>
        <path d="M249.49998,162.66669v-3.83334h3.83333v3.83334z" fill="#000000" stroke-width="NaN"></path>
        <path d="M234.29167,159v-3.83334h3.83333v3.83334z" fill="#000000" stroke-width="NaN"></path>
        <path d="M238.125,159v-3.83334h3.83333v3.83334z" fill="#000000" stroke-width="NaN"></path>
        <path d="M241.875,159v-3.83334h3.83333v3.83334z" fill="#000000" stroke-width="NaN"></path>
        <path d="M245.75,159v-3.83334h3.83333v3.83334z" fill="#000000" stroke-width="NaN"></path>
        <path d="M230.58334,159v-3.83334h3.83333v3.83334z" fill="#000000" stroke-width="NaN"></path>
        <g fill="#6ba3a7">
          <path d="M236.20833,179.90835v-3.83334h3.83333v3.83334z" stroke-width="NaN"></path>
          <path d="M232.54167,179.90835v-3.83334h3.83333v3.83334z" stroke-width="NaN"></path>
          <path d="M236.125,183.74168v-3.83334h3.83333v3.83334z" stroke-width="NaN"></path>
          <path d="M232.45833,183.74168v-3.83334h3.83333v3.83334z" stroke-width="NaN"></path>
          <path d="M236.20833,187.67501v-3.83334h3.83333v3.83334z" stroke-width="NaN"></path>
          <path d="M236.08331,176.15835v-3.83334h3.83333v3.83334z" stroke-width="NaN"></path>
          <path d="M239.95833,179.90835v-3.83334h3.83333v3.83334z" stroke-width="NaN"></path>
          <path d="M243.625,179.90835v-3.83334h3.83333v3.83334z" stroke-width="NaN"></path>
          <path d="M240.04167,183.74168v-3.83334h3.83333v3.83334z" stroke-width="NaN"></path>
          <path d="M243.70833,183.74168v-3.83334h3.83333v3.83334z" stroke-width="NaN"></path>
          <path d="M239.95833,187.67501v-3.83334h3.83333v3.83334z" stroke-width="NaN"></path>
          <path d="M240.08336,176.15835v-3.83334h3.83333v3.83334z" stroke-width="NaN"></path>
        </g>
      </g>
    </g>
  </g>
</svg>
