<?xml version="1.0" encoding="UTF-8"?>
<svg xmlns="http://www.w3.org/2000/svg" xmlns:xlink="http://www.w3.org/1999/xlink" version="1.1" width="184.34014" height="223.12886" viewBox="0,0,184.34014,223.12886">
  <g transform="translate(-131.85002,-79.03904)">
    <g stroke="none" stroke-width="0.5" stroke-miterlimit="10">
      <path d="M252.7,295.59999c-2,1.5 -3.5,-0.5 -3.5,-0.5l-0.58674,-1.01985c-3.23625,-2.2001 -5.13519,-4.86932 -6.51081,-8.05468c-1.80244,-0.41534 -1.80244,-2.42546 -1.80244,-2.42546l0.06968,-0.75316c-0.11069,-0.24886 -0.21268,-0.50044 -0.30503,-0.75458c-0.98813,-2.71922 -0.47736,-4.47448 -0.14534,-7.20234c0.4588,-3.76954 0.61962,-7.55238 1.18071,-11.28992c-0.71206,-4.64662 -0.04504,-9.44925 -0.76774,-13.99954c-0.58666,-3.6938 -1.1933,-7.7465 -1.97035,-11.44745c-0.77804,-3.70568 -2.8509,-7.33548 -4.27162,-10.79628c-1.72843,-4.21035 -3.84354,-8.53818 -6.26056,-12.55746c-0.64246,1.80892 -1.18953,3.33325 -1.26007,3.51645c-2.83428,7.36135 -6.13969,14.41867 -9.66835,21.46389l-0.10381,0.09131l0.03507,0.02248l-2.67576,4.17446c-0.0512,0.08271 -0.1071,0.16221 -0.16731,0.23813c-0.09056,0.3001 -0.19476,0.49114 -0.19476,0.49114c-2.05079,3.75906 -3.98874,7.5731 -5.90393,11.40019c0.13453,0.30694 0.20919,0.64609 0.20919,1.00268c0,0.18574 -0.02025,0.36674 -0.05867,0.54093l-0.78989,3.94938l-0.36034,-0.07207c-0.01737,0.42181 -0.04719,0.84208 -0.09192,1.26009c0.21056,0.17541 0.39184,0.38478 0.53543,0.61969c0.14184,0.12157 0.28587,0.23441 0.43316,0.33422l1.08368,3.27749c0,0 0.302,1.51001 -0.75315,2.39683c0.00114,0.03101 0.00171,0.06216 0.00171,0.09345c0,0.46716 -0.12813,0.90439 -0.35117,1.27846l-1.57823,2.7619l-0.11866,-0.06781l-0.90248,2.4818l-0.09811,-0.03567c-0.04298,0.17564 -0.09037,0.35042 -0.1427,0.52425c-0.33472,1.11192 -1.61522,1.66875 -2.42283,2.50311l-0.11033,0.04456l0.02495,0.02994l-2.38738,1.9895c-0.43538,0.36806 -0.99831,0.58995 -1.61307,0.58995c-0.33996,0 -0.66407,-0.06786 -0.95953,-0.19076l-0.78018,1.56037c-0.0716,0.15103 -0.15788,0.29374 -0.25701,0.42628l-0.01333,0.03999c-0.31417,1.02157 -1.26534,1.76413 -2.38994,1.76413c-1.38071,0 -2.5,-1.11929 -2.5,-2.5c0,-0.27015 0.04286,-0.5303 0.12213,-0.77402l0.86721,-2.89074c0.04431,-0.95096 0.51804,-1.813 1.06263,-2.66727l0.44421,-1.55477l0.12197,0.03485c0.00424,-0.13247 0.00848,-0.26493 0.01272,-0.39739l0.3304,-0.24316l-0.1414,-0.09427l1.00496,-1.50743c0.125,-0.6197 0.22301,-1.23584 0.30266,-1.85014c-0.71189,-0.7696 -1.04064,-2.08889 -1.24461,-3.37845c-0.09334,-0.12724 -0.17493,-0.26364 -0.24317,-0.4076l-1.17579,-2.35158l0.05801,-0.029c-0.09439,-0.1657 -0.17994,-0.33692 -0.25506,-0.51465c-0.37754,-0.89319 -0.30635,-1.8804 -0.20038,-2.87489c-0.25221,-0.27197 -0.44464,-0.60013 -0.55643,-0.96363l-0.76331,-2.28994c-0.09499,-0.2642 -0.14675,-0.54902 -0.14675,-0.84593c0,-1.38071 1.11929,-2.5 2.5,-2.5c0.05448,0 0.10856,0.00174 0.16218,0.00518c0.03919,-0.04248 0.07984,-0.08359 0.12186,-0.12327l0.02066,-0.33555l0.04421,0.00272c-0.00048,-0.12333 0.00148,-0.24684 0.00606,-0.37055c0.05209,-1.40479 0.79466,-2.67208 1.40525,-3.96668c-0.16656,-0.33489 -0.26023,-0.71243 -0.26023,-1.11185c0,-0.22871 0.03071,-0.45026 0.08824,-0.66073l1.19908,-4.79632l0.38918,0.0973c0.26226,-2.46296 0.87512,-4.69568 2.05681,-8.24262l0.04223,-0.06114l-0.01636,-0.00653l1.03633,-2.59684c-0.71712,-0.43947 -1.19554,-1.23042 -1.19554,-2.13311c0,-0.18573 0.02025,-0.36674 0.05867,-0.54092l0.7899,-3.94938l0.03516,0.00703l-0.01272,-0.10825c0.45589,-1.58762 0.90384,-3.17844 1.35487,-4.76856c-0.14504,-0.31665 -0.22588,-0.66884 -0.22588,-1.03991c0,-0.29691 0.05176,-0.58173 0.14675,-0.84593l0.7866,-2.35978c1.25621,-3.77659 1.66334,-9.07707 4.10579,-12.26126c0.01173,-0.0153 0.02351,-0.03057 0.0353,-0.04583l-0.01049,-0.00525l1.97578,-3.95155c0.20648,-0.43559 0.53518,-0.80196 0.9418,-1.05486c-1.28322,-2.02269 -2.51051,-4.059 -3.91585,-6.02247c0,0 -1.45309,-2.03433 0.58124,-3.48743c0.08751,-0.0625 0.17394,-0.11856 0.25923,-0.1686c-0.7781,-0.42371 -1.30614,-1.24872 -1.30614,-2.19706c0,-0.1348 0.01066,-0.2671 0.0312,-0.39612l0.39391,-2.75743l0.02379,0.0034l-0.01597,-0.05436c0.00976,-0.05271 0.0223,-0.12133 0.03737,-0.20428c-0.04596,-0.18955 -0.07032,-0.38753 -0.07032,-0.59121v-4.8h0.15261l-0.12033,-0.40046c0.09071,-0.11047 0.18142,-0.22095 0.27213,-0.33141l-0.17612,-0.05871l0.47413,-1.42237c-0.13026,-0.30281 -0.2024,-0.6365 -0.2024,-0.98704c0,-0.20502 0.02468,-0.40428 0.07123,-0.59495l0.78829,-3.54737l0.08967,0.01993c0.02952,-0.19943 0.06735,-0.39802 0.11473,-0.59564c0.32107,-1.33898 1.78953,-2.09151 2.6352,-3.18106c0.01019,-0.01357 0.02051,-0.02704 0.03096,-0.04039c0.03134,-0.04128 0.06258,-0.08263 0.09374,-0.12406c0.49044,-1.10018 1.00335,-2.19059 1.52526,-3.27471c0.07344,-0.15256 0.14191,-0.30863 0.20676,-0.46723l0.01913,-0.62107c0.01909,-0.71989 0.3425,-1.36394 0.84629,-1.8082c0.29326,-0.74837 0.65591,-1.44668 1.22804,-1.99517c0.10652,-0.10212 0.21696,-0.19854 0.33088,-0.28989l-0.04796,-0.04796l0.37288,-0.37287l0.10836,-0.92031c0.13048,-1.25808 1.19395,-2.23906 2.48654,-2.23906c0.27645,0 0.54243,0.04487 0.79103,0.12773l0.14866,-0.29733c0.13444,-0.2836 0.32069,-0.53787 0.54651,-0.75057c-0.14246,-1.14783 -0.28495,-2.49294 -0.40782,-3.72368c-0.14855,-0.37892 -0.29783,-0.75782 -0.44776,-1.13686l-2.82431,0.70607l-0.00648,-0.02592c-0.02427,0.01479 -0.04853,0.02958 -0.0728,0.04438l-0.08478,-0.01131l0.00494,0.02717l-4.35147,0.79118c-0.01251,0.00251 -0.02505,0.00493 -0.03763,0.00726c-0.16758,0.90489 -0.82251,1.63877 -1.68232,1.91917l-2.62638,0.92517c-8.41858,3.98505 -16.91446,5.57894 -25.88745,7.77419c-3.37737,0.82628 -7.30698,2.53537 -10.99914,3.14366c-2.29556,0.99177 -4.50268,2.14947 -6.52797,3.75307c0,0 -1.97338,1.53485 -3.50823,-0.43853c-0.08716,-0.11207 -0.16301,-0.22271 -0.22854,-0.33175l-1.28637,1.02909c-0.1912,0.57806 -4.30762,4.68283 -5.23735,5.62429l-0.14954,0.04954l0.03692,0.04615l-0.57122,0.45697l-1.53023,3.06044c-0.40086,0.84561 -1.26228,1.4304 -2.26029,1.4304c-1.12459,0 -2.07576,-0.74256 -2.38994,-1.76412l-0.78177,-2.3453l0.0168,-0.0056l-0.03342,-0.04611c-0.47702,-1.66961 -1.06659,-3.30634 -1.52137,-4.98215c-0.10887,-0.40115 0.17789,-1.06744 -0.20463,-1.2301c-0.58796,-0.25 -1.28367,0.55381 -1.88613,0.34109c-1.59922,-0.56467 -3.89789,-0.93884 -4.39719,-2.55966c-1.37508,-4.46377 2.60208,-3.76718 3.97377,-5.77568c0.75895,-1.11128 0.62325,-2.82045 1.65779,-3.68106c1.01164,-0.84157 2.5679,-0.57777 3.84468,-0.89634c2.09873,-0.52365 4.3289,-0.70057 6.47496,-0.42984c0,0 0.62284,0.08898 1.19897,0.49012c0.29629,0.09341 0.56876,0.24052 0.80599,0.4299c0.26295,-0.09397 0.54623,-0.14514 0.84147,-0.14514c0.57468,0 1.10407,0.19391 1.52632,0.51986c0.02489,-0.00475 0.04983,-0.00941 0.07485,-0.01398l-0.09147,-0.45734l3.94938,-0.78988c0.17418,-0.03842 0.35519,-0.05867 0.54092,-0.05867c0.6107,0 1.17025,0.21897 1.60443,0.58268c0.20402,-0.68233 0.6916,-1.24224 1.32597,-1.54297l2.35155,-1.17579l0.01564,0.03128l0.05053,-0.06316c0.80754,-0.34621 1.63433,-0.64827 2.46089,-0.95032c0.9035,-0.68378 2.06349,-0.93888 3.18006,-1.27515c0.04843,-0.023 0.09676,-0.04621 0.14499,-0.06965c0.59931,-0.40635 1.18702,-0.75768 1.77486,-1.07613c1.68037,-1.20021 3.24024,-2.67095 5.2286,-3.02378c0.06704,-0.0119 0.13415,-0.02304 0.20132,-0.03347l-0.01664,-0.04437l3.14604,-1.17977c0.28795,-0.11572 0.60242,-0.17941 0.93176,-0.17941c0.15065,0 0.29819,0.01333 0.4415,0.03886c3.36485,-1.83201 6.61353,-3.93123 9.92336,-5.71243c2.71715,-1.46225 5.86478,-2.13192 8.66455,-3.33032c2.99516,-1.28204 6.25889,-4.04484 9.67005,-4.19408c3.96274,-0.17337 3.46627,1.29499 6.34988,2.62885c0.42754,0.19777 0.8654,0.37153 1.30808,0.53402c0.20749,-0.95155 0.95687,-1.70065 1.90857,-1.90774c-0.4043,-2.44071 -0.37288,-4.93858 0.63955,-7.34983c0.72678,-1.73093 2.50644,-3.68387 3.76642,-5.46308c0.01231,-0.1569 0.02276,-0.31319 0.03116,-0.4688c0.07029,-1.30247 0.08312,-2.55656 0.08041,-3.78504c-1.36845,-0.92051 -3.2048,-1.69066 -3.47214,-2.05241c-0.86676,-1.17284 -1.40014,-2.68358 -1.40923,-4.14191c-0.00797,-1.27806 0.92323,-2.3838 1.36105,-3.58456c1.19894,-3.28821 0.44009,-6.87306 3.80385,-9.22656c1.01772,-0.71206 2.44029,-0.46698 3.65237,-0.73835c1.45346,-0.32542 2.88692,-0.74 4.30596,-1.19564c0.81352,-1.84107 2.46986,-3.41041 4.00024,-3.98411c1.02504,-0.38426 2.10849,0.64635 3.19889,0.74323c3.29233,0.29253 4.67961,-2.35019 5.37167,-4.9969c0,0 0.68679,-2.40381 3.09061,-1.71702c2.40382,0.68679 1.71702,3.0906 1.71702,3.0906c-0.61003,2.01448 -1.49919,3.85739 -2.72173,5.31814c0.04724,-0.01439 0.09506,-0.02714 0.14354,-0.03806c0.56364,-0.12694 2.57411,-0.10341 4.44663,-0.00918l1.27406,-1.78368c0.45157,-0.64914 1.20302,-1.07402 2.0537,-1.07402c1.38071,0 2.5,1.11929 2.5,2.5c0,0.2969 -0.05176,0.58172 -0.14674,0.84591l-0.78153,2.34465l-0.0431,-0.01436l0.00819,0.11226c-0.39387,0.91987 -0.92464,1.77058 -1.54279,2.56632c-0.0022,0.02813 -0.0041,0.05616 -0.0057,0.0841l-0.04891,-0.01421c-0.01146,0.01458 -0.02296,0.02914 -0.03448,0.04368l0.06678,0.02226l-0.05579,0.16738l0.32015,0.16008l-0.74263,1.48525c0.05077,0.11666 0.0929,0.23794 0.12558,0.36304l0.73158,2.56059c0.61449,0.99058 1.16071,2.03154 1.59413,3.2057c0.56144,1.52097 0.86323,2.96032 1.0065,4.39295c0.17041,0.28704 0.28501,0.6111 0.32884,0.95723l0.39482,2.76362l-0.07474,0.01067l0.09358,0.16567c0.01306,6.18037 -0.27148,11.63737 -2.56379,17.48353c-0.31188,0.7954 -1.40752,3.04864 -2.46743,4.43006c0.2635,0.12389 0.50183,0.29243 0.70528,0.49587l2.4,2.4l-0.03754,0.03754c0.10159,0.08641 0.20096,0.17579 0.29788,0.26845c0.81349,0.77773 1.17844,1.88786 1.58769,2.96515l1.57477,0.52493l-0.02461,0.07382c0.15641,0.03387 0.31171,0.07434 0.46578,0.12239c1.26691,0.39508 1.97766,1.77679 3.04843,2.56076c1.07746,0.78887 2.25468,1.43156 3.38202,2.14735l0.131,0.43283l0.15897,-0.12718l1.58757,1.98445c0.35028,0.43024 0.56027,0.97924 0.56027,1.57729c0,1.00454 -0.59247,1.8707 -1.44704,2.2681l0.22283,1.78269c0.01595,0.11411 0.0242,0.23069 0.0242,0.3492c0,0.45455 -0.12131,0.88077 -0.33333,1.24805c0.31173,2.84046 0.5321,5.65132 0.71756,8.51586c0.49447,3.58391 1.03502,7.15864 1.59782,10.73713l-0.01839,0.09365l0.02769,-0.00231l0.3976,4.77088c0.00732,0.07793 0.01106,0.1569 0.01106,0.23675c0,0.39823 -0.09312,0.77473 -0.25876,1.10888c0.09595,0.10441 0.18314,0.21701 0.26039,0.33663l1.5785,2.36773l-0.05572,0.03715l0.13788,0.0948c0.00578,0.05501 0.01155,0.11001 0.01734,0.16502l0.05647,-0.02823l0.94693,1.89391c0.07459,0.0456 0.14965,0.08979 0.2253,0.13222l3.01484,1.13058c0.18307,0.06382 0.35645,0.14832 0.51734,0.25071l0.23317,-0.51296c0.09066,-0.32366 0.17083,-0.65414 0.24877,-0.98614c0.04237,-0.56158 0.22368,-1.12788 0.42264,-1.69477c0.09166,-0.31216 0.19448,-0.61712 0.316,-0.90999c0.01837,-0.05683 0.03628,-0.11364 0.05358,-0.17044c-0.20044,-0.35972 -0.31464,-0.77408 -0.31464,-1.2151v-4.8c0.04978,-1.75035 -0.36468,-3.57713 0.14932,-5.25106c0.38923,-1.26758 1.62008,-2.0996 2.43012,-3.14941c0,0 1.60046,-1.92055 3.52102,-0.32009c1.92055,1.60046 0.32009,3.52101 0.32009,3.52101c-0.06962,0.0732 -0.14496,0.14318 -0.22374,0.21122c0.33362,0.56787 0.39079,1.13958 0.39079,1.13958c0.15938,1.63435 0.21157,3.22102 0.19161,4.79305c0.32797,0.1572 0.61634,0.38383 0.84607,0.66084l1.17309,-1.75963c0.23206,-0.35932 0.55375,-0.65532 0.93346,-0.85636c-0.03737,-0.07996 -0.07329,-0.16073 -0.10765,-0.24239c-0.47467,-1.12797 -0.08243,-2.44905 -0.02106,-3.67129c0.19486,-3.88109 0.7985,-7.08529 2.13571,-10.6976l0.77123,-2.31373c0.31417,-1.02157 1.26534,-1.76413 2.38994,-1.76413c0.72674,0 1.38104,0.3101 1.83783,0.80518c0.05361,-0.00343 0.10769,-0.00518 0.16217,-0.00518c1.38071,0 2.5,1.11929 2.5,2.5v2.65359c1.00929,-1.33919 2.00191,-2.75231 3.38885,-3.67622c0.05523,-0.03679 0.11099,-0.07251 0.16725,-0.10724l-0.01784,-0.02231l1.98445,-1.58756c0.43024,-0.35028 0.97924,-0.56027 1.57729,-0.56027c0.72994,0 1.38682,0.31284 1.84387,0.81175c1.26627,0.12258 2.25613,1.18982 2.25613,2.48826c0,0.29692 -0.05175,0.58174 -0.14674,0.84594l-1.18156,3.54462l-0.08747,-0.02916l-0.00197,0.25901c-1.01437,1.7888 -1.40954,4.03892 -2.91997,5.43439c-0.03924,0.03625 -0.07876,0.07214 -0.11856,0.10768l0.03641,0.02427l-1.5785,2.36773c-0.13491,0.2089 -0.30013,0.39641 -0.48943,0.55629c-0.69628,1.63011 -1.44008,3.34214 -2.34122,4.87128c-0.01733,0.11299 -0.04222,0.22349 -0.07415,0.33096l-1.18491,4.34476l-0.1012,-0.0276c-0.00034,0.10884 -0.00068,0.21769 -0.00102,0.32653l-0.24604,0.22253l0.10695,0.06112l-1.57593,2.75786c-0.42441,0.77571 -1.24811,1.30179 -2.19468,1.30179c-0.22489,0 -0.44285,-0.0297 -0.65016,-0.08537l-0.58326,0.72907c-0.45772,0.58229 -1.16848,0.95629 -1.96659,0.95629c-0.15593,0 -0.30852,-0.01428 -0.45655,-0.04159c-0.23716,0.33252 -0.49124,0.68688 -0.76462,1.06943l-0.0892,0.04685l0.03093,0.02578l-1.98778,2.38534c-0.4585,0.55817 -1.15406,0.91421 -1.93278,0.91421c-0.43487,0 -0.84381,-0.11104 -1.20001,-0.3063c-0.3562,0.19527 -0.76515,0.3063 -1.20002,0.3063c-1.05277,0 -1.95356,-0.65074 -2.32207,-1.57193c-0.26592,1.68131 -2.12437,1.9468 -2.12437,1.9468l-2.26129,0.26048c-1.36788,0.54311 -2.6865,2.02658 -4.10362,1.62933c-1.26261,-0.35395 -1.21996,-2.3431 -2.05353,-3.35533c-1.4705,-1.78568 -3.14854,-1.48542 -4.49054,-3.62933c-0.03747,-0.05986 -0.07432,-0.12005 -0.11059,-0.18053l-0.03211,0.02752l-0.79899,-0.93214l-0.87336,-0.4852c-0.7909,-0.41981 -1.32954,-1.25182 -1.32954,-2.20964c0,-0.13615 0.01089,-0.26976 0.03183,-0.4c-0.02094,-0.13025 -0.03183,-0.26385 -0.03183,-0.4c0,-0.39643 0.09227,-0.77132 0.25651,-1.10434c-0.45033,-0.54436 -0.66262,-1.25914 -0.81393,-2.01757l-2.31032,-2.31032c-0.45241,-0.45241 -0.73224,-1.07741 -0.73224,-1.76777c0,-0.85187 0.42606,-1.60422 1.07673,-2.05558c-0.06703,-0.12996 -0.12301,-0.26656 -0.16667,-0.40855l-1.18178,-3.5453l0.0448,-0.01493c-0.04404,-0.09665 -0.08613,-0.19439 -0.12612,-0.29329c-0.67323,-1.66526 -0.30382,-3.58068 -0.37772,-5.37536c-0.01999,-0.48557 -0.03342,-1.66157 -0.04257,-3.05175c-0.84245,-0.16144 -1.53466,-0.74571 -1.84724,-1.52343l-1.17728,-2.74703c-0.074,-0.17298 -0.14857,-0.34616 -0.22355,-0.51955c-0.11473,-0.01761 -0.23016,-0.03966 -0.34611,-0.06609c-0.28185,0.58225 -0.55705,1.16766 -0.82279,1.75756c-0.42824,0.95062 -0.25966,2.30966 -1.09874,2.92854c-0.20869,0.15392 -0.42471,0.29469 -0.64682,0.42455l0.04343,0.0608c0.18991,-0.04615 0.38831,-0.07061 0.59241,-0.07061c1.20481,0 2.21057,0.85227 2.44727,1.98681l1.11301,4.82299l-0.02717,0.00627c0.01958,0.04948 0.03886,0.09909 0.05784,0.14886c0.95708,2.51014 1.07685,6.00194 1.02965,9.30974l0.20475,0.819l-0.09827,0.02457c0.06041,0.14157 0.11669,0.28518 0.16836,0.43107c0.37288,1.0528 -0.26594,2.2083 -0.38579,3.32778c-0.00615,0.35338 -0.00979,0.69509 -0.00966,1.02291v3c0,0.45419 -0.12112,0.88009 -0.33282,1.24716c-0.37167,3.64821 -1.24061,6.95271 -4.02181,9.57724c0.27772,0.97786 0.11391,2.10222 0.31213,3.11653c0.61403,3.14206 1.56418,6.12298 2.01738,9.3055c0.26946,1.89224 0.9758,3.70878 1.20097,5.60679c0.67309,5.67347 0.04289,11.57625 0.80542,17.24131c1.14222,8.48582 1.47027,16.45053 0.3966,25.0373c-0.64147,4.48504 -1.09188,8.99442 -2.03981,13.4212c-0.66945,3.1263 -1.54258,6.13425 -1.53823,9.41612c0.00332,2.50601 1.85061,7.00147 -0.78549,8.95748c-0.6698,0.497 -1.44628,0.57318 -2.26706,0.37494c-0.10186,0.10113 -0.21717,0.20083 -0.34728,0.29842zM227.30002,173.10197c0.03887,0.00153 0.07752,0.00394 0.11592,0.00723l-0.11592,-0.31877zM244.35006,173.03444c0.00195,-0.00113 0.0039,-0.00225 0.00585,-0.00337l0.22131,-1.5492c-0.34599,-0.15533 -0.65025,-0.38702 -0.89132,-0.67364l0.31117,1.94866c0.01147,0.06467 0.02047,0.13021 0.02686,0.19651c0.11144,0.0198 0.22032,0.04699 0.32613,0.08104zM173.90957,156.62002c-0.00632,-0.0725 -0.00955,-0.14588 -0.00955,-0.22002c0,-0.00403 0.00001,-0.00807 0.00003,-0.0121c-0.11506,0.0538 -0.22974,0.10707 -0.34384,0.15967c-0.08345,0.06528 -0.16602,0.13121 -0.24777,0.19772c0.20087,-0.04579 0.40131,-0.08768 0.60113,-0.12527zM144.6686,165.18212c0.04225,-0.05651 0.08443,-0.11261 0.12642,-0.16828c-0.0029,-0.00848 -0.00575,-0.017 -0.00856,-0.02554l-0.65603,-0.32801c-0.1943,-0.09211 -0.37483,-0.20854 -0.53766,-0.34535c-0.07364,0.11042 -0.15241,0.21814 -0.2358,0.32282c0.41619,0.07074 0.80989,0.20562 1.15739,0.43562c0.05215,0.03451 0.10356,0.07079 0.15424,0.10875z" fill="#0024a3"></path>
      <g fill="#324aa3">
        <path d="M151.21736,164.36524c-1.56524,-0.78264 -0.78261,-2.34788 -0.78261,-2.34788l1.62205,-1.73338c1.26139,-0.24716 2.50159,-0.62705 3.69326,-1.10881c0,0 1.62483,-0.64994 2.27477,0.9749c0.64994,1.62483 -0.9749,2.27477 -0.9749,2.27477c-1.39327,0.5522 -2.83812,0.99237 -4.30674,1.29118l0.82203,-0.13338c0,0 -0.78264,1.56524 -2.34788,0.78261z"></path>
        <path d="M170.43478,162.38265c-0.78265,-1.56524 0.78259,-2.34788 0.78259,-2.34788l0.9327,-0.45961c6.26504,-2.50075 12.11013,-6.69971 18.48199,-8.83045c4.4557,-1.48998 9.91807,-2.07649 14.56794,-2.09472c0,0 1.75,0 1.75,1.75c0,1.75 -1.75,1.75 -1.75,1.75c-4.2422,-0.01977 -9.36407,0.5548 -13.43206,1.90528c-6.30326,2.09253 -12.12157,6.2861 -18.318,8.76956l-0.66728,0.34041c0,0 -1.56524,0.78265 -2.34788,-0.78259z"></path>
        <path d="M222.55343,159.66019c-0.17827,0.05942 -0.34378,0.09333 -0.49721,0.1065c-0.23548,0.68837 -0.88804,1.18331 -1.65621,1.18331c-0.69861,0 -1.3016,-0.40936 -1.58221,-1.00129l-0.78303,-1.56608l0.02877,-0.01439l-0.05994,-0.05133c-0.4769,-1.20469 -0.80289,-2.36857 -1.05493,-3.54693c-0.30817,-1.08098 -0.47263,-2.2829 -0.66468,-3.22678l-0.39999,-2l0.6284,-0.12568c0.01556,-0.02587 0.03203,-0.05152 0.04947,-0.0769l0.2124,-1.68355c0.5569,0.33053 1.04842,0.6208 1.48463,0.88405l0.57856,-0.57856l2,2l-0.22087,0.22087c1.0883,1.0138 1.46343,2.15233 2.25524,4.89937l0.78838,2.36379c0,0 0.55341,1.66019 -1.10678,2.2136z"></path>
        <path d="M250.76905,161.76558c1.30156,-2.62035 2.7621,-5.13607 4.06571,-7.74819c0,0 0.78262,-1.56525 2.34787,-0.78263c1.56525,0.78262 0.78263,2.34787 0.78263,2.34787c-0.07129,0.14234 -0.14307,0.28439 -0.21527,0.42619c-0.00119,0.24057 -0.05091,0.46966 -0.13989,0.67799l-0.78528,1.96315l-0.30158,-0.12063l-0.15486,0.2581c-0.22457,1.07625 -0.54882,2.12724 -0.99068,3.12167l-0.60094,1.25005c0,0 -0.28596,0.59396 -0.87141,0.87728l-0.65241,1.73979c-0.23821,0.68342 -0.8883,1.1738 -1.65292,1.1738c-0.9665,0 -1.75,-0.7835 -1.75,-1.75c0,-0.18093 0.02746,-0.35545 0.07843,-0.51962l0.78888,-2.76114l0.06121,0.01749z"></path>
        <path d="M214.74196,193.39013c-2.20161,-4.27701 -3.81886,-8.93058 -4.47364,-13.5377c-0.5613,-3.94938 -1.063,-6.07015 1.69423,-9.08986c0,0 1.23743,-1.23745 2.47487,-0.00002c1.23745,1.23743 0.00002,2.47487 0.00002,2.47487c-1.98919,1.68223 -1.06608,3.60151 -0.70573,6.11015c0.94611,6.58661 4.05658,13.54757 8.06829,18.80241l0,0l0,0l1.18941,1.58586c0.22618,0.29487 0.36061,0.66381 0.36061,1.06415c0,0.9665 -0.7835,1.75 -1.75,1.75c-0.13001,0 -0.25672,-0.01418 -0.37864,-0.04107l-1.96457,-0.39292l0.01444,-0.07219c-0.19658,-0.03128 -0.39049,-0.07944 -0.58104,-0.14892c-1.42997,-0.52139 -2.96688,-4.16439 -3.54548,-5.32696l-0.46073,-2.22474c0,0 -0.09222,-0.4611 0.05797,-0.95306z"></path>
        <path d="M247.00001,203.05c-1.05,-1.4 0.35001,-2.45 0.35001,-2.45l1.60001,-1.2c3.85718,-2.77633 3.69409,-8.38704 3.69999,-12.7c0.0044,-3.21611 0.17767,-6.34418 -2.28743,-8.66256c0,0 -1.23743,-1.23744 0.00001,-2.47487c1.23744,-1.23743 2.47487,0.00001 2.47487,0.00001c3.12269,3.25479 3.30691,6.78827 3.31255,11.13742c0.00733,5.65784 -0.28879,11.78549 -5.1,15.50001l-1.60001,1.2c0,0 -1.4,1.05 -2.45,-0.35001z"></path>
        <path d="M246.05681,137.31602c-1.71602,-0.3432 -1.37282,-2.05922 -1.37282,-2.05922l0.39999,-2c0.60832,-2.93737 1.58698,-7.63777 3.57247,-9.97813c0.35048,-0.41313 1.15301,-0.36861 1.37832,-0.86131c0.59772,-1.30705 0.00605,-2.88685 0.23905,-4.30507c0,0 0.28769,-1.72619 2.01388,-1.4385c1.72619,0.28769 1.4385,2.01388 1.4385,2.01388c-0.29634,1.74994 0.14988,3.66864 -0.56094,5.29494c-0.31833,0.72832 -1.30123,0.93793 -1.82169,1.53869c-1.57598,1.81909 -2.38675,6.11524 -2.82755,8.4219l-0.39999,2c0,0 -0.3432,1.71602 -2.05922,1.37282z"></path>
        <path d="M246.38771,93.55714c-1.43478,1.18216 -2.69501,2.91687 -4.37396,3.34325c-0.92879,0.23587 -2.27953,0.20181 -3.03932,-0.42439l-0.53445,1.3361c-0.24817,0.66463 -0.8888,1.1379 -1.63997,1.1379c-0.44315,0 -0.84782,-0.16472 -1.15614,-0.43626c-0.79572,-0.16451 -1.39384,-0.86927 -1.39384,-1.71373c0,-0.29392 0.07246,-0.57092 0.20049,-0.8141l0.78424,-1.56852c0,0 0.13518,-0.27036 0.40553,-0.53017c0.20606,-0.89003 0.76342,-1.63243 1.95767,-1.99039c1.25485,-0.37613 2.38393,2.11806 3.58834,1.60279c1.04871,-0.44866 1.92837,-1.42564 2.864,-2.33519c0.24168,-0.39562 0.57898,-0.62049 0.57898,-0.62049l0.43215,-0.28305c0.30416,-0.23965 0.62071,-0.4539 0.95595,-0.62613l1.56852,-0.78426c0.24319,-0.12803 0.52019,-0.2005 0.81411,-0.2005c0.9665,0 1.75,0.7835 1.75,1.75c0,0.6986 -0.40936,1.3016 -1.00129,1.5822l-1.5661,0.78305l-1.01187,0.69083c0,0 -0.06747,0.04498 -0.18305,0.10106z"></path>
        <path d="M205.75002,232.8c0,0.32701 -0.0897,0.63308 -0.24583,0.89493l-0.19587,0.34277c0.27478,0.30908 0.4417,0.71619 0.4417,1.16229c0,0.29393 -0.07246,0.57093 -0.2005,0.81411l-1.5495,3.09901l-0.36442,-0.18221c-0.33777,0.85035 -0.76608,1.65132 -1.33167,2.36392l-1.0954,2.59452c0,0 -0.33007,0.77016 -1.06634,1.01626c-0.04316,0.15446 -0.08745,0.30839 -0.13283,0.4619l0.15716,0.12573l-0.31553,0.39442c-0.67303,2.14857 -1.55508,4.23051 -2.55367,6.48439c0.03443,0.13696 0.05271,0.28033 0.05271,0.42797c0,0.24379 -0.04985,0.47593 -0.13991,0.68679l-0.77014,1.9253c-0.15987,0.42815 -0.48261,0.77689 -0.89284,0.97086c-0.06144,1.14782 -0.70513,2.40525 -1.40599,3.60846c0.23538,0.90698 -0.50371,1.64605 -0.50371,1.64605l-0.41984,-0.08602c-0.16517,0.28624 -0.31886,0.56421 -0.45236,0.8312l-0.51204,-1.0288l-2.61844,-0.5365c0.91698,-1.8339 1.87786,-5.33148 3.19752,-6.79497c0.03189,-0.03537 0.06413,-0.07036 0.0967,-0.10499l-0.02958,-0.01775l0.53034,-0.8839l0.24744,-1.02722l0.06412,0.01544l-0.01988,-0.16823c0.67952,-1.53236 1.12183,-3.40163 1.76465,-5.08051c-0.02365,-0.1147 -0.03607,-0.23351 -0.03607,-0.35522c0,-0.25857 0.05608,-0.50404 0.15674,-0.72492l1.16318,-2.71408c0.41714,-1.25732 0.72509,-2.54954 1.12693,-3.75715c-0.03062,-0.12964 -0.04683,-0.26485 -0.04683,-0.40385c0,-0.18093 0.02746,-0.35545 0.07844,-0.51962l0.78888,-2.76112c0.84612,-2.95617 1.5763,-5.55005 2.73492,-8.00912c0.00396,-0.07826 0.01306,-0.15517 0.02697,-0.23039l0.16633,-0.99791l-0.10575,-0.03525l0.22327,-0.66979l0.11076,-0.66452l0.03596,0.00599l-0.01948,-0.09167c0.42169,-1.55176 0.57226,-3.35393 0.84208,-5.09443c-0.05351,-0.16782 -0.08239,-0.34662 -0.08239,-0.53218c0,-0.09436 0.00747,-0.18697 0.02185,-0.27729l0.39574,-2.77019l0.27041,0.03863c-0.02028,-0.89407 0.02697,-1.7847 0.17673,-2.66269l0.13479,-0.14865l-0.07435,-0.02974l0.78488,-1.96217c0.19811,-0.53056 0.64631,-0.93917 1.20119,-1.08244c0.47601,-1.73356 0.87621,-3.48888 1.10229,-5.32252c0,0 0.21706,-1.73649 1.95354,-1.51943c1.73649,0.21706 1.51943,1.95354 1.51943,1.95354c-0.10223,0.80775 -0.23435,1.60143 -0.38965,2.38519c0.29302,-0.22113 0.65778,-0.35225 1.05316,-0.35225c0.9665,0 1.75,0.7835 1.75,1.75c0,0.20783 -0.03623,0.4072 -0.10272,0.59214l-0.78707,2.36126c0,0 -0.30947,0.92842 -1.15984,1.16527c-0.21757,0.26919 -0.45128,0.53341 -0.6216,0.81715l-0.07232,0.00182l0.04964,0.03309l-0.25832,0.38748l0.16875,0.135l-0.58601,0.73251c-0.0215,0.32359 -0.05302,0.64491 -0.09841,0.9622c0.11247,0.04765 0.21892,0.10672 0.31791,0.17576c0.28346,-0.19772 0.62819,-0.31367 1,-0.31367c0.9665,0 1.75,0.7835 1.75,1.75c0,0.33963 -0.09675,0.65666 -0.26419,0.92504l-1.18521,1.97534l-0.0234,-0.01404l-0.01372,0.0732c-1.78044,2.49451 -3.92094,4.83123 -5.03863,7.69039c0,0 -0.09762,0.24404 -0.31176,0.50514c-0.12978,0.28501 -0.25793,0.57066 -0.38503,0.85654l-0.64553,1.06107c0.83217,0.13506 1.46749,0.857 1.46749,1.72732z"></path>
      </g>
      <path d="M258.11603,95.1432c-0.11369,0.56846 -0.23659,1.13508 -0.36654,1.70014c-0.00279,0.11485 -0.01665,0.22696 -0.04054,0.33529l-0.38655,1.93278c-0.0677,0.37692 -0.25608,0.71195 -0.52373,0.96365c-0.78344,1.1166 -1.32218,1.96408 -1.98051,2.66849c0.11652,0.11299 0.21738,0.24205 0.29899,0.38359l1.18348,1.9725l-0.20846,0.12508c0.01733,0.11519 0.03512,0.22977 0.05331,0.34376c0.96089,1.24351 1.48998,2.61051 2.26158,4.93249l0.74247,1.48491c0.12804,0.24319 0.2005,0.52019 0.2005,0.81412c0,0.50422 -0.21325,0.95864 -0.55447,1.27798l0.76971,1.53937l-0.15553,0.07777l0.29347,0.3028c0.07143,4.90399 1.09337,11.65851 -1.64299,16.15548v0v0l-0.78723,2.36171c-0.21992,0.7151 -0.88574,1.23489 -1.67296,1.23489c-0.02636,0 -0.05259,-0.00058 -0.07867,-0.00174c-0.08256,0.26214 -0.16952,0.53014 -0.26113,0.80514l-0.00001,0.00001v0l-0.78726,2.36171c-0.16271,0.52905 -0.56948,0.95119 -1.0889,1.13504c-0.60338,1.16882 -1.222,2.33848 -1.81774,3.53037c-0.0499,0.09984 -0.09639,0.20165 -0.14034,0.30491c0.15808,-0.08365 0.3163,-0.15891 0.47464,-0.22392c0.0045,-0.01621 0.00901,-0.03242 0.01351,-0.04863l0.34863,-0.12502l-0.07996,-0.11194l2.78345,-1.98816c0.28964,-0.21238 0.64704,-0.3378 1.03373,-0.3378c0.9665,0 1.75,0.7835 1.75,1.75c0,0.24782 -0.05151,0.48361 -0.14441,0.69724c0.77092,0.18295 1.34439,0.87588 1.34439,1.70276c0,0.17564 -0.02588,0.34524 -0.07402,0.50519l0.98337,0.1639c0.80587,0.11971 1.43251,0.78881 1.48685,1.61424c0.16953,0.11514 0.34092,0.22541 0.51605,0.32593l0.1103,0.2182l0.0649,-0.0649l1.60001,1.60001c0.18548,0.18548 0.32951,0.4124 0.41703,0.66568c0.12372,-0.00782 0.24396,0.01124 0.35927,0.07137c1.3665,0.71259 2.83138,1.74661 3.3336,3.20363c0.26342,0.76423 -1.46041,1.02491 -1.60173,1.82082c-0.08432,0.47486 1.00115,0.45379 1.11461,0.92255c0.09568,0.3953 0.09238,4.34033 0.09033,6.02105c0.08149,-0.01163 0.16478,-0.01765 0.24948,-0.01765c0.9665,0 1.75,0.7835 1.75,1.75v2h-0.43685c0.00407,0.01655 0.00811,0.03311 0.01214,0.04967l0.41875,0.09468c-0.06018,0.36108 -0.11441,0.72385 -0.16381,1.08803c0.4853,2.56697 0.5606,5.2004 0.56976,7.96762v0.8c0,0 0,0.15969 -0.04824,0.3826c0.17373,0.9036 0.33621,1.77269 0.38961,1.96824c0.70567,2.5841 1.47691,5.64082 2.65873,8.03697c1.25689,2.54838 3.03122,4.5444 4.31957,7.05507l0.77185,1.02915c0.00077,-0.11236 0.01103,-0.23212 0.0323,-0.35974c0.28771,-1.72619 2.01389,-1.43848 2.01389,-1.43848c5.8576,1.0829 10.53127,-3.16463 14.76742,-6.54679l0.20218,-0.01238l-0.03993,-0.07987l1.56849,-0.78426c0.24319,-0.12804 0.52019,-0.2005 0.81412,-0.2005c0.9665,0 1.75,0.7835 1.75,1.75c0,0.57981 -0.28198,1.09377 -0.71628,1.41221l-0.7076,0.5307c0.14257,0.25331 0.2239,0.5457 0.2239,0.85709c0,0.5451 -0.24922,1.03199 -0.63994,1.35294l-2.314,1.92834c0.09889,0.21927 0.15393,0.46257 0.15393,0.71872c0,0.78722 -0.51979,1.45304 -1.23489,1.67296l-2.33868,0.77955c-0.28994,0.10868 -0.62047,0.23073 -0.97628,0.36235c-2.05736,1.51732 -4.36521,2.73381 -6.98479,3.6238l-1.92858,0.77143c-0.21086,0.09006 -0.443,0.13991 -0.68678,0.13991c-0.9665,0 -1.75,-0.7835 -1.75,-1.75c0,-0.64863 0.35288,-1.21484 0.87714,-1.51712l0.70349,-0.4221c-0.03586,-0.40465 0.07721,-0.72711 0.24528,-0.97772c-0.51173,-0.02401 -1.0327,-0.07556 -1.5636,-0.15689c0,0 -0.39329,-0.06555 -0.77312,-0.3218c0.00714,0.06422 0.01081,0.12949 0.01081,0.19561c0,0.9665 -0.7835,1.75 -1.75,1.75c-0.10937,0 -0.2164,-0.01003 -0.32022,-0.02923l-2.36747,-0.39457l0.00982,-0.05889c-0.1457,-0.01624 -0.29093,-0.03899 -0.43561,-0.06935c-0.91943,-0.19293 -1.43784,-1.21833 -2.22968,-1.72386c-1.4534,-0.9279 -3.30931,-1.08007 -4.77685,-1.98545c-1.39416,-0.8601 -2.54417,-2.68875 -3.47757,-3.97433l0.02521,-0.39983l-0.14365,0.02873l-0.39291,-1.96457c-0.02689,-0.12192 -0.04107,-0.24862 -0.04107,-0.37863c0,-0.89195 0.66729,-1.62804 1.52989,-1.73629l-0.61847,-1.64924l0.07075,-0.02653c-0.06275,-0.13713 -0.12095,-0.27662 -0.17398,-0.41879c-0.45979,-1.23266 0.23896,-3.52935 0.88339,-5.4438c-0.42352,-0.23886 -0.7376,-0.64901 -0.84821,-1.13643l-0.79111,-3.16448l0.14401,-0.036c-0.06525,-0.1156 -0.13051,-0.2312 -0.19576,-0.3468l0.1752,-0.35649l-0.14171,-0.02834l0.39364,-1.96821c0.07815,-0.4351 0.31712,-0.81438 0.65319,-1.0741c0.06645,-0.8628 0.11859,-1.72965 0.11921,-2.61449c0.00068,-0.98194 -0.56279,-2.02367 -0.52362,-2.972l-0.15123,-0.37805l0.13074,-0.0523c-0.07478,-0.0889 -0.14956,-0.1778 -0.22434,-0.2667l0.12563,-0.33094h-0.15721v-2c0,-0.71583 0.42979,-1.33128 1.0454,-1.60237c0.0163,-0.62175 -0.0169,-1.23831 -0.15558,-1.84423c-0.19448,-0.84975 -1.35973,-1.40891 -1.28541,-2.27746c0.05999,-0.70113 1.2036,-0.79658 1.59828,-1.37916c0.12459,-0.18391 -0.44713,-0.03191 -0.6664,0.00362c-0.0322,0.00522 -0.0644,0.0114 -0.09659,0.01842c-0.11974,0.19373 -0.27621,0.36235 -0.4597,0.49614c-2.57725,3.90491 -5.10987,8.01559 -6.57471,12.35298c-0.35177,1.0416 -2.28586,3.27064 -2.30679,4.3048c-0.02293,1.13348 2.17159,3.34961 2.64792,4.41037c0.79468,1.7697 2.4917,4.52154 2.90678,6.31483c0.06735,0.29096 0.04303,4.56247 0.04085,5.34641c-0.21912,1.32439 -0.47113,2.66533 -0.77416,3.99878c0.47031,0.31372 0.78012,0.84912 0.78012,1.45687c0,0.29393 -0.07246,0.57093 -0.2005,0.81411l-0.74311,1.48622c-1.05597,3.10985 -2.69233,5.75988 -4.90426,8.02404c-1.50541,1.92062 -3.38275,3.55323 -5.74629,4.74624l-1.49169,1.11878c-0.29487,0.22618 -0.66381,0.36061 -1.06415,0.36061c-0.9665,0 -1.75,-0.7835 -1.75,-1.75c0,-0.55868 0.2618,-1.05622 0.66941,-1.37662l1.98738,-1.58989l0.00368,0.0046c0.00591,-0.00718 0.01184,-0.01435 0.01779,-0.02151c0.03796,-0.0457 0.07663,-0.09064 0.11598,-0.13488c0.14643,-0.66222 0.70576,-1.08171 0.70576,-1.08171l1.60001,-1.2c0.203,-0.15222 2.03203,-1.51496 2.8873,-2.18203c2.53622,-3.69464 3.65757,-8.43602 4.41866,-12.9623c-0.00456,-1.41792 0.35846,-2.87169 0.04085,-4.25359c-0.38554,-1.67746 -1.98168,-4.06537 -2.69325,-5.68517c-0.88791,-2.02121 -2.93387,-3.5869 -2.95206,-5.98962c-0.01289,-1.70339 1.96619,-3.69112 2.4932,-5.29521c1.34736,-4.10098 3.63002,-8.00736 6.0365,-11.72701l-0.1346,-0.04487l0.01665,-0.04996l-0.13295,0.00656c-0.29437,-0.14661 -0.58872,-0.29327 -0.88304,-0.43998c-0.00261,-0.00023 -0.00522,-0.00047 -0.00783,-0.00072c-0.42286,-0.0399 -0.98687,-0.34607 -1.58309,-0.79283c-0.81556,-0.40704 -1.63097,-0.81437 -2.44631,-1.22185l-0.15339,0.066c-0.33561,0.16759 -0.67601,0.33723 -1.02076,0.50776c-0.62851,0.44246 -1.39768,0.76831 -2.2053,1.06587c-4.58359,2.14836 -9.72189,4.04979 -14.5183,3.32513c0,0 -0.81432,-0.13572 -1.23113,-0.78003c-0.05155,0.00386 -0.08117,0.00386 -0.08117,0.00386l-0.9534,-0.08981c-1.59489,-0.53215 -3.15035,-0.92486 -4.49221,-1.5582c-1.25016,-0.20914 -2.52767,-0.77954 -4.33086,-1.84977l-0.04968,-0.08402l-0.02384,0.03178l-1.58371,-1.18778c-0.30304,-0.22219 -0.53192,-0.53957 -0.64259,-0.90809c-0.15467,-0.0121 -0.31373,-0.02676 -0.47711,-0.04393c-1.20779,-0.12692 -2.05738,-1.25759 -3.10028,-1.91018c-1.45011,0.52005 -3.26941,0.11166 -4.72442,-0.81771c1.63753,3.35 2.15171,6.87948 2.51957,10.49525c0.20431,2.00821 1.00775,4.71693 0.31874,6.72586c-0.52197,1.52188 -1.92374,2.84549 -3.30315,3.93717l-1.12807,1.80491l-0.38572,-0.24107c-0.91087,1.79439 -1.95694,3.41053 -3.149,5.08445l0.02175,0.00435l-0.35207,1.76026c0.16687,0.2073 0.28745,0.45344 0.34605,0.72272l0.4051,1.68649l-0.05168,0.01241l0.0739,0.09473c0.1271,1.13612 0.30792,2.26006 0.52037,3.37565c0.48174,1.37006 0.67205,2.92703 1.24482,4.57114c1.37553,3.94846 3.22439,7.96511 5.51984,11.55906l0.63731,0.6595c0,0 0.42337,0.439 0.51108,1.04862c0.29757,0.4202 0.60172,0.83294 0.9124,1.23731l0.01023,0.18222l0.07189,-0.03595l0.78424,1.56852c0.12803,0.24318 0.20049,0.52018 0.20049,0.8141c0,0.46057 -0.17792,0.87958 -0.46878,1.19206l0.83515,-0.11931c0.6468,-0.12959 1.29361,-0.25918 1.94041,-0.38877c0,0 1.26871,-0.25375 1.84252,0.76602h1.7007c0.21955,0 0.42966,0.04043 0.62329,0.11426c1.07557,-0.03704 2.21022,0.01698 3.141,-0.09835l2.7584,-0.39405c0.09031,-0.01438 0.18293,-0.02185 0.27729,-0.02185c0.89338,0 1.6304,0.66944 1.73681,1.53404c0.52646,0.0376 1.02149,0.06595 1.46321,0.06595h2c0.9665,0 1.75,0.7835 1.75,1.75c0,0.86021 -0.62065,1.57546 -1.43858,1.72237l-0.02738,0.00548c-0.05105,0.08147 -0.10862,0.15844 -0.17198,0.23018c-0.86589,3.27543 2.4694,4.8239 3.75251,7.48413c0.51759,1.07309 1.59624,2.57064 0.82404,3.4779c-0.11148,0.13098 -0.22206,0.25229 -0.33172,0.36432c0.15466,0.30943 0.31255,0.60666 0.47612,0.8866l0.483,2.28581c0,0 0.23788,1.18935 -0.67259,1.78578c0.04037,0.2074 0.08095,0.42027 0.12135,0.63546c0.35033,0.15191 0.64122,0.41508 0.82809,0.74493l1.11415,1.8875l-0.03157,0.01864c0.04981,0.06736 0.09777,0.13633 0.14371,0.20705c0.24419,0.37585 1.57486,6.55522 1.69505,7.09823c0.04091,0.18485 0.08143,0.36983 0.12156,0.55495c0.31262,0.22992 0.54604,0.56126 0.65173,0.94551l0.99441,3.31474l-0.01592,0.00477c0.01389,0.02955 0.02763,0.05919 0.04121,0.08891c1.00281,2.19493 1.14681,6.61047 1.58875,8.9895c0.47867,2.57677 0.91298,5.11991 1.30882,7.67353l0.11836,0.54141l-0.02803,0.00613l0.04522,0.08372c0.19026,1.70294 0.49757,2.87559 0.53132,3.94688c0.07521,0.55139 0.14882,1.10446 0.22089,1.65963l-0.00075,0.00382l0.00121,-0.00015l0.4322,3.44533c0.01124,0.08014 0.01705,0.16203 0.01705,0.24527c0,0.40961 -0.14073,0.78635 -0.37647,1.08451c0.67053,3.62454 1.36861,7.23731 1.5835,10.92724l-0.017,0.04995h0.01771v2.39999c0,0.62528 -0.32793,1.17396 -0.82119,1.48345c0.0686,0.12243 0.13263,0.24617 0.19131,0.37195c0.10951,0.09132 0.20768,0.19577 0.29211,0.31092l1.18776,1.58371l-0.06784,0.05088c0.06447,0.04725 0.12895,0.09449 0.19342,0.14174l0.00196,0.24633l0.09728,-0.03891l0.78528,1.96315c0.09006,0.21086 0.13991,0.44301 0.13991,0.68679c0,0.9665 -0.7835,1.75 -1.75,1.75c-0.08657,0 -0.17167,-0.00629 -0.25487,-0.01843c-0.06728,0.90503 -0.8229,1.6184 -1.74513,1.6184c-0.40033,0 -0.76927,-0.13442 -1.06413,-0.3606l-1.58586,-1.18937l0.19537,-0.2605l-0.71063,-0.35687c-0.03718,-0.56 -0.07052,-1.1066 -0.09805,-1.6426l-0.1867,-0.14002l0.05813,-0.0775l-0.24556,-0.08506c-1.26108,-1.69724 -2.49156,-4.02447 -2.94764,-6.30053c-0.07044,0.00863 -0.14218,0.01307 -0.21495,0.01307c-0.86022,0 -1.57547,-0.62066 -1.72237,-1.43859l-0.39364,-1.96821l0.06965,-0.01393l-0.09512,-0.15683c-0.00095,-0.34327 -0.01218,-0.70653 -0.03031,-1.08574c-0.03594,-0.04531 -0.06968,-0.09244 -0.10107,-0.14123c-0.04199,0.00301 -0.08438,0.00455 -0.12714,0.00455c-0.81325,0 -1.49693,-0.55473 -1.6933,-1.30645l-0.78936,-2.76282l0.03834,-0.01095c-0.03619,-0.10315 -0.0692,-0.20767 -0.0987,-0.31371c-0.14854,-0.53395 0.71914,-6.52683 0.81717,-7.24588l0.02526,-0.05031l-0.01544,-0.00309l0.39364,-1.96821c0.07499,-0.41755 0.2981,-0.78369 0.613,-1.04209c-0.49458,-4.04018 -0.93577,-8.07071 -0.2406,-11.94649v-3.5c0,-0.64713 0.35125,-1.21222 0.87351,-1.51502c-0.67525,-3.90125 -1.3174,-7.81386 -2.39523,-11.56617l-0.38841,-1.16547l0.04698,-0.01566l-0.05921,-0.02248c-0.85818,-3.02828 -1.61525,-6.1107 -2.67567,-9.0767c-0.65333,-1.82736 -1.65973,-3.08218 -1.67534,-4.49939c-0.7612,-0.19531 -1.14181,-0.95651 -1.14181,-0.95651l-0.78427,-1.56852c-0.12804,-0.24319 -0.2005,-0.52019 -0.2005,-0.81412c0,-0.76246 0.48761,-1.41103 1.16801,-1.65089l-0.16749,-0.33498c-0.12803,-0.24319 -0.2005,-0.52019 -0.2005,-0.81411c0,-0.4439 0.16528,-0.8492 0.43765,-1.15772c-0.10527,-0.53099 -0.15494,-1.08421 -0.14488,-1.67687c-0.17899,0.05604 -0.35777,0.11571 -0.53658,0.17474c-3.37195,1.26087 -6.9575,1.74378 -10.6175,2.25821l-0.56381,0.75173c0.32406,0.31762 0.52512,0.76026 0.52512,1.24987c0,0.14693 -0.01811,0.28964 -0.05222,0.426c0.28103,0.31047 0.45221,0.72225 0.45221,1.174c0,0.35038 -0.10297,0.67671 -0.2803,0.95038l-0.49675,0.79481c0.46859,0.314 0.77706,0.84839 0.77706,1.45483c0,0.40034 -0.13443,0.76928 -0.36061,1.06415l-1.14735,1.52979c0.42957,0.31889 0.70794,0.82996 0.70794,1.40606c0,0.36772 -0.11342,0.70896 -0.30718,0.99063l-1.5867,2.38009l-0.34454,-0.22969c-0.35582,0.70256 -0.74406,1.36049 -1.17763,1.99978c0.76037,1.22526 -0.41361,2.20358 -0.41361,2.20358l-2.23251,1.8582c-0.50754,1.48228 -1.0923,2.88255 -1.74106,4.24078l0.21545,-0.10511c-0.21196,1.57258 -0.14471,3.20888 -0.63588,4.71775c-0.21014,0.64554 -0.59785,1.20736 -1.00503,1.76075c-0.21154,0.84442 -0.47213,1.67438 -0.77241,2.4925l0.1088,0.25908c-0.16596,0.2507 -0.33292,0.50044 -0.50074,0.74934c-1.61467,3.9398 -4.07893,7.62445 -6.30885,11.35727c0.13529,0.96444 0.30106,1.92852 0.24809,2.8952l0.07198,-0.11208c0.67801,2.18702 1.38735,4.30545 1.72467,6.3806c0.30038,1.06673 0.25699,2.21713 0.25118,4.30566l-0.42137,0.82476c-0.35438,1.26273 -0.98583,2.51681 -1.9928,3.76843c-0.60371,0.75038 -1.4911,1.21932 -2.23665,1.82897l-4.15295,1.62613c0.02348,-0.15618 0.04405,-0.3131 0.06251,-0.47057c-1.21148,1.0485 -2.49588,2.02035 -3.59355,2.96999l-3.90199,0.88745c0.77186,-1.68552 1.28792,-3.51362 2.31558,-5.05655c1.33098,-1.99833 5.11903,-4.60605 6.93575,-6.16272l2.14347,-0.57217c0.04177,-0.02814 0.08366,-0.05623 0.12567,-0.08427c-0.06455,-0.28661 -0.08435,-0.72909 -0.07499,-1.25372c-0.11657,-0.2394 -0.21807,-0.48572 -0.29935,-0.74133c-0.25148,-0.7908 0.28709,-1.63463 0.43063,-2.45195l0.00107,-0.00185c-0.53171,-1.04088 -1.10798,-2.19442 -1.43477,-3.24143c-0.98406,0.77461 -2.04588,1.47192 -3.05477,2.1978l1.53845,-5.18091c0.02588,-0.05192 0.05179,-0.10381 0.07775,-0.15567c0.05358,-0.18035 0.14209,-0.34445 0.25143,-0.49885c0.23902,-0.47101 0.48133,-0.93944 0.72668,-1.40563l0.68275,-2.77744c-0.08965,-0.1094 -0.13734,-0.23367 -0.11587,-0.38246c0.11191,-0.77555 0.60916,-1.41618 1.12589,-2.04343c0.74376,-1.32521 1.50339,-2.6442 2.27215,-3.95847c-0.03044,0.02319 -0.06099,0.0464 -0.09165,0.06964l1.0378,-5.18097c1.14343,-1.80426 2.1811,-4.17719 3.44493,-6.27506c-0.02492,-0.02659 -0.04977,-0.0543 -0.07452,-0.08319c-1.13889,-1.3287 0.18981,-2.46758 0.18981,-2.46758c0.49759,-0.42531 0.99517,-0.85062 1.49276,-1.27593c-0.06723,-0.18584 -0.10388,-0.38632 -0.10388,-0.59535c0,-0.29392 0.07246,-0.57092 0.20049,-0.8141l0.78424,-1.56852l0.11578,0.05789l0.0298,-0.29851c0.5632,-0.57279 1.09362,-1.24779 1.62549,-1.9364c-0.45664,-0.31579 -0.7558,-0.84314 -0.7558,-1.44036c0,-0.36772 0.11342,-0.70896 0.30718,-0.99063l0.31446,-0.4717c-0.38018,-0.32101 -0.62164,-0.80116 -0.62164,-1.3377c0,-0.40034 0.13443,-0.76928 0.36061,-1.06414l0.8019,-1.0692c-0.22734,-0.29528 -0.36252,-0.66517 -0.36252,-1.06663c0,-0.29393 0.07246,-0.57093 0.2005,-0.81412l1.18427,-2.36851l0.09554,0.04777l0.04702,-0.2842c0.50144,-0.51532 1.07877,-0.98865 1.70593,-1.37567c-0.73033,-0.1721 -1.34898,-0.44687 -1.55817,-1.09814c-0.16763,-0.5219 -0.09013,-1.07092 0.14743,-1.58773c-0.80998,-0.15333 -1.42253,-0.86484 -1.42253,-1.71941c0,-0.81325 0.55473,-1.49693 1.30644,-1.6933l2.76282,-0.78937l0.01058,0.03703l0.08534,-0.06152c1.44049,-0.24171 2.88794,-0.45369 4.33536,-0.66754c-0.1456,-0.14845 -0.26495,-0.32274 -0.35054,-0.51535v0.24006h-2c-0.44315,0 -0.84782,-0.16472 -1.15614,-0.43626c-0.1116,-0.02307 -0.21931,-0.05677 -0.32203,-0.1l-1.94383,-0.2777c-0.86167,-0.1091 -1.52798,-0.84476 -1.52798,-1.73605c0,-0.80159 0.53894,-1.4773 1.27424,-1.68455c-0.2185,-0.12654 -0.40711,-0.29898 -0.55262,-0.50414l-2.04552,-2.81257l0.23272,-0.16925c-0.13593,-0.19223 -0.27053,-0.38601 -0.40379,-0.58126c-0.57237,-0.59861 -1.12304,-1.21343 -1.65418,-1.84421c-0.21459,0.09389 -0.45164,0.14599 -0.70085,0.14599c-0.69861,0 -1.30161,-0.40936 -1.58221,-1.0013l-0.78303,-1.5661l0.0687,-0.03435l-0.1344,-0.11385c-0.19981,-0.694 -0.41529,-1.59923 -0.66094,-2.60189c-0.07171,-0.13658 -0.14043,-0.27401 -0.20591,-0.41233c-0.28496,-0.46432 -0.56426,-0.93504 -0.8385,-1.41209l-0.32141,-0.08389l-2.09507,0.74766c-0.32373,-2.91841 -0.9938,-5.91345 -1.18631,-8.88561c-0.05003,-0.18565 -0.06867,-0.39191 -0.03274,-0.61456c-0.03153,-0.76267 -0.02778,-1.52337 0.02521,-2.28043c0.02901,-0.4145 0.03583,-0.88275 0.04857,-1.36723c-0.09809,0.01706 -0.19898,0.02595 -0.30195,0.02595c-0.9665,0 -1.75,-0.7835 -1.75,-1.75c0,-0.36773 0.11342,-0.70897 0.30719,-0.99064l1.58673,-2.38009l0.05762,0.03842c0.01504,-0.05906 0.03008,-0.11811 0.04511,-0.17717l0.15855,-0.08531l-0.04264,-0.04264l0.46245,-0.46245c0.96825,-1.42642 1.94957,-2.969 3.07678,-4.27577c-0.03384,-0.13586 -0.0518,-0.278 -0.0518,-0.42434c0,-0.24378 0.04985,-0.47592 0.1399,-0.68677l0.78525,-1.96315l0.23076,0.0923c0.01171,-0.18167 0.02343,-0.36334 0.03514,-0.545l0.50524,-0.17791l-0.11704,-0.17555l2.38009,-1.58673c0.26915,-0.18515 0.59269,-0.29695 0.94176,-0.30652c0.37371,-0.39636 0.66266,-0.80352 0.7887,-1.20407c0.46433,-1.47554 -0.33875,-3.82135 -0.48131,-5.27414c-0.24681,-2.5151 -0.55525,-5.03018 -1.39425,-7.4272c-0.06874,0.07699 -0.14043,0.15559 -0.21514,0.23585c-0.2511,0.26974 -0.55538,0.4331 -0.89446,0.52687c-0.32093,0.39191 -0.80858,0.64202 -1.35465,0.64202c-0.38669,0 -0.74409,-0.12542 -1.03373,-0.3378l-0.45815,-0.32725c-0.35513,-0.0236 -0.70216,-0.031 -1.02815,0.0037l-0.24295,-0.90715l-0.40227,0.20113l-0.3834,-0.76679l-0.26853,-0.19181l0.10155,-0.14216l-0.10632,-0.21264c-1.37937,-0.84024 -2.47199,-1.94916 -3.95072,-3.98372c-0.28303,-0.38942 -0.65836,-0.76265 -0.97111,-1.15706l-1.6041,0.80204l-0.02931,-0.05863l-0.25747,0.14044l-0.12461,-0.22844c-0.7385,0.51601 -1.49001,1.0079 -2.25346,1.47865c-1.83962,1.22582 -3.80592,2.30181 -6.063,3.43057l-2.00271,1.1949c-0.26764,0.16611 -0.58339,0.26202 -0.92156,0.26202c-0.2064,0 -0.40445,-0.03573 -0.58831,-0.10135c-1.25397,0.52123 -2.52502,1.0216 -3.80963,1.51094l-1.87705,1.12622c-0.26838,0.16744 -0.5854,0.26418 -0.92503,0.26418c-0.10435,0 -0.20657,-0.00913 -0.3059,-0.02665c-0.44001,0.2205 -0.88878,0.44075 -1.34719,0.6621l-0.18247,-0.02335l0.01956,0.07465l-1.30209,0.34122c-0.69546,0.41121 -1.38228,0.83412 -2.05739,1.27238l-0.86195,0.86194l-0.15694,-0.15694c-0.54971,0.45632 -1.025,1.03702 -1.60281,1.42948c-0.35576,0.3418 -0.72754,0.66566 -1.11712,0.968l-1.5169,1.34963c-0.30986,0.27824 -0.71956,0.44752 -1.1688,0.44752c-0.29682,0 -0.57639,-0.0739 -0.8213,-0.2043c-0.03425,0.0106 -0.06854,0.02099 -0.10289,0.03118l0.01355,0.03162l-2.76444,1.18476c-0.04752,0.02165 -0.09618,0.04125 -0.14586,0.05866c-0.73238,0.83195 -1.55106,1.61477 -2.42908,2.33998c0.00001,0.0027 0.00002,0.00539 0.00002,0.00809c0,0.6986 -0.40935,1.30159 -1.00128,1.5822l-1.53717,0.76859c-1.0528,0.58528 -1.95917,1.73053 -3.16238,1.74059c-0.15277,0.00128 -0.30231,-0.01238 -0.44917,-0.03841v0.09704h-3.2c-0.9665,0 -1.75,-0.7835 -1.75,-1.75c0,-0.9665 0.7835,-1.75 1.75,-1.75h1.74562c2.91115,-1.20937 6.1816,-3.56179 8.05437,-6.1c0,0 0.16609,-0.22146 0.45423,-0.42215l1.00822,-1.76439c0.25743,-0.51536 0.51486,-1.03073 0.7723,-1.54609c0,0 0.78262,-1.56525 2.34787,-0.78262c0.71143,0.35571 0.93782,0.8731 0.97313,1.33172c1.12226,-0.88775 2.38127,-1.66276 3.51221,-2.43188c-0.37806,-0.321 -0.61797,-0.79978 -0.61797,-1.33459c0,-0.72375 0.43935,-1.34488 1.06589,-1.61123l1.91898,-0.86672c0.07614,-0.0476 0.15255,-0.096 0.22923,-0.14515c0.07048,-0.5539 0.39988,-1.02696 0.86305,-1.29401l2.97372,-1.78424l0.20234,0.33722c1.36484,-1.06786 2.80801,-1.90621 4.9018,-2.99488l0.01458,-0.00187l-0.00219,-0.00438l2.36851,-1.18425c0.24319,-0.12803 0.52019,-0.2005 0.81411,-0.2005c0.50797,0 0.96538,0.21642 1.28507,0.56209c1.76342,-0.56252 3.55284,-1.02133 5.381,-1.34589l-0.13986,-0.41959l3.28164,-1.09388c0.18494,-0.06649 0.38431,-0.10272 0.59215,-0.10272c0.13302,0 0.26257,0.01484 0.38709,0.04296c1.43959,-0.84077 2.87337,-1.35042 4.52104,-1.25434l0.62362,-0.53095l0.26827,-0.35768l0.04592,0.03444c0.07106,-0.11301 0.14831,-0.22254 0.23277,-0.328c0.69137,-0.86318 1.9689,-1.0078 2.95335,-1.5117l0.2454,0.04262l-0.02067,-0.10336l0.80474,-0.16095l-0.04414,-0.08829l1.56852,-0.78426c0.24319,-0.12803 0.52019,-0.2005 0.81411,-0.2005c0.44557,0 0.85224,0.16652 1.16118,0.44072l1.78886,-0.71555l0.12358,0.30895c0.54798,-0.24215 1.09093,-0.31603 1.62364,-0.04737c1.19207,0.60119 1.19802,2.05711 0.58159,3.5289c0.40249,0.63725 0.7191,1.37008 0.88776,2.12195c1.60321,0.4161 3.22111,1.07742 4.18873,1.87487c2.25762,0.57457 4.30867,1.50673 5.32867,3.0485c0.15282,0.231 0.29087,0.45214 0.4144,0.66366c0.78084,0.33849 1.54665,0.72927 2.29658,1.17539c0.00167,0 0.00333,-0.00001 0.005,-0.00001c0.29393,0 0.57093,0.07246 0.81411,0.2005l1.42649,0.71324c0.21206,0.04786 0.4251,0.08574 0.639,0.11509c0.09782,-0.06498 0.19957,-0.12489 0.30582,-0.17902c0.63707,-0.32453 1.37787,0.02464 2.11142,0.22731c1.29628,-0.08312 2.60616,-0.27635 3.90314,-0.27712c0.66667,-0.0004 1.44369,-0.36737 2,0h0.12923l0.77249,-1.28747c-0.39746,-0.3208 -0.65168,-0.81196 -0.65168,-1.3625c0,-0.55868 0.2618,-1.05622 0.66941,-1.37662l1.98738,-1.58989l0.19129,0.23911c0.49309,-0.59594 1.01429,-1.16656 1.56738,-1.70222c1.13588,-1.33285 2.37861,-2.6361 3.50497,-3.86739c0.00619,-0.13806 0.02838,-0.27196 0.06476,-0.39989l0.87138,-3.34434l0.01064,0.00277c0.00163,-0.01971 0.00332,-0.03942 0.00505,-0.05913c0.20375,-2.31459 2.03886,-4.50109 2.88134,-6.61932l0.06273,-0.04996l-0.03155,-0.01578l0.78306,-1.56608c0.28061,-0.59192 0.8836,-1.00127 1.58219,-1.00127c0.0442,0 0.08803,0.00164 0.13141,0.00486c-0.50192,-2.97775 1.21364,-6.26851 0.9271,-9.28243c-0.05505,-0.57903 -0.14817,-1.14646 -0.26524,-1.70671c-0.46667,-0.64099 -0.3657,-1.70891 -0.7434,-2.45353c-0.03873,-0.07635 -0.07911,-0.15231 -0.12106,-0.22784c-0.996,-0.00571 -1.49402,-1.00169 -1.49402,-1.00169l0.07198,-0.21614c-0.71317,-0.57172 -1.32995,-1.25333 -1.87563,-1.99769l-0.2686,0.26859l-1.59997,-1.60001v0c-0.31668,-0.31669 -0.51255,-0.75418 -0.51255,-1.23743c0,-0.78286 0.51406,-1.44566 1.22304,-1.66927c0.22254,-0.87392 1.17354,-1.19093 1.17354,-1.19093c2.36229,-0.64179 2.293,-1.56964 3.69643,-3.37815l0.33461,-1.67306c0.00286,-0.01592 0.00593,-0.03176 0.00922,-0.04752c-0.10396,-0.52371 0.05296,-0.99447 0.05296,-0.99447l0.15812,-0.0127c0.05819,-0.32658 0.1211,-0.65229 0.18606,-0.9771l0.90946,0.64067c0.13047,-0.03104 0.26659,-0.04747 0.40656,-0.04747c0.29213,0 0.56755,0.07158 0.80966,0.19816zM212.56629,145.14113c-0.07741,0.00687 -0.15516,0.01176 -0.23302,0.01463c0.11508,0.20856 0.18885,0.44312 0.21026,0.69263c0.20557,-0.04155 0.39375,-0.04128 0.56452,-0.01214c-0.20145,-0.22022 -0.38343,-0.4527 -0.54176,-0.69512zM206.31136,144.13295l-0.08209,0.12313l-1.04035,-0.69357c-0.01315,0.00665 -0.02639,0.01314 -0.03972,0.01947c0.44761,0.54593 0.87214,1.11208 1.34305,1.63792c0.06833,0.0763 0.13557,0.15409 0.20158,0.23326c0.01462,-0.00088 0.02929,-0.00157 0.04401,-0.00208c0.07296,-0.22105 0.18878,-0.4226 0.33762,-0.59482c-0.26502,-0.22948 -0.51899,-0.47152 -0.76409,-0.72331z" fill="#001769"></path>
      <path d="M229.07999,130.51136c0.79323,-0.4551 2.09731,-0.63959 3.10387,-0.39327l0.0748,-0.05343c-0.39438,-0.12816 -0.72731,-0.39257 -0.94326,-0.73768c-0.42019,-0.06873 -0.79006,-0.2871 -1.05309,-0.59862l-1.67166,1.11445c-0.28167,0.19377 -0.62291,0.30719 -0.99064,0.30719c-0.45176,0 -0.86353,-0.17118 -1.174,-0.45221c-0.13636,0.03411 -0.27907,0.05222 -0.426,0.05222c-0.9665,0 -1.75,-0.7835 -1.75,-1.75c0,-0.61707 0.31938,-1.15955 0.80185,-1.47114l0.00268,-0.00178c-0.00301,-0.04197 -0.00454,-0.08435 -0.00454,-0.12708c0,-0.64863 0.35288,-1.21484 0.87714,-1.51712l1.83378,-1.10027c0.1286,-0.12842 0.2618,-0.25494 0.39922,-0.37868c-0.04361,-0.06796 -0.08551,-0.14159 -0.12537,-0.22131c-0.78262,-1.56525 0.78262,-2.34787 0.78262,-2.34787c0.8,-0.4 1.6,-0.8 2.39999,-1.2l1.56852,-0.78426c0.24319,-0.12803 0.52019,-0.2005 0.81411,-0.2005c0.9665,0 1.75,0.7835 1.75,1.75c0,0.48325 -0.19588,0.92075 -0.51257,1.23744l-0.43367,0.43367c0.09077,0.15141 0.1593,0.31768 0.20107,0.4943l1.53297,-0.58578c0.20426,-0.08356 0.42785,-0.12962 0.66219,-0.12962c0.84446,0 1.54922,0.59813 1.71373,1.39384c0.07467,0.08478 0.14126,0.17685 0.19857,0.275c0.1548,-0.04483 0.31844,-0.06886 0.48769,-0.06886c0.9665,0 1.75,0.7835 1.75,1.75c0,0.28826 -0.06969,0.56023 -0.19315,0.8c0.12346,0.23977 0.19315,0.51175 0.19315,0.8c0,0.82687 -0.57348,1.5198 -1.34439,1.70276c0.0929,0.21363 0.14441,0.44942 0.14441,0.69724c0,0.35038 -0.10297,0.67671 -0.2803,0.95038l-1.8407,2.94511l-0.05527,-0.03455c-0.08132,0.13991 -0.16815,0.27696 -0.26129,0.41074c-0.34974,0.50232 -1.31787,0.99454 -2.51584,1.36972c0.56601,0.28987 0.9534,0.87899 0.9534,1.5586c0,0.9665 -0.7835,1.75 -1.75,1.75c-0.10937,0 -0.2164,-0.01003 -0.32022,-0.02923l-2.36747,-0.39457l-1.814,-1.80206l-1.7104,-0.68415c-0.66464,-0.24816 -1.13792,-0.8888 -1.13792,-1.63998c0,-0.6986 0.40936,-1.3016 1.00129,-1.5822l0.19703,-0.09851c0.29159,-0.59852 0.72786,-1.11888 1.23167,-1.40793z" fill="#bd7614"></path>
      <path d="M232.76259,136.43744c-1.23744,-1.23743 -0.00002,-2.47487 -0.00002,-2.47487l1.31711,-1.30696c1.27446,-1.05682 2.4702,-2.21795 3.56568,-3.46187c-1.07796,-0.44391 -1.01035,-1.56924 -0.97247,-1.86488c-0.08892,0.01392 -0.18006,0.02115 -0.27289,0.02115c-0.77807,0 -1.43754,-0.50778 -1.66511,-1.21003l-0.29747,0.29747c0,0 -1.23744,1.23743 -2.47487,-0.00001c-0.60737,-0.60738 -0.6185,-1.21475 -0.47238,-1.6758c-0.01897,-0.02208 -0.03787,-0.04488 -0.05669,-0.0684c-0.52807,-0.66008 -0.48221,-1.25639 -0.29368,-1.69653c-0.5322,0.10644 -1.0644,0.21288 -1.5966,0.31932c0,0 -1.71601,0.34321 -2.05923,-1.3728c-0.34321,-1.71601 1.3728,-2.05923 1.3728,-2.05923c1.33334,-0.26667 2.66667,-0.53334 4.00001,-0.80001l1.92582,0.55075c0,0 0.51121,0.2556 0.80326,0.7668c0.19607,0.10758 0.39241,0.26995 0.58064,0.50524c0.26169,0.32712 0.38244,0.63857 0.41472,0.92312c0.61688,0.09334 1.0562,0.53266 1.0562,0.53266c0.3577,0.36411 0.71539,0.72821 1.07309,1.09232c0.54807,0.12883 0.92692,0.50768 0.92692,0.50768c0.05843,0.05843 0.11685,0.11685 0.17528,0.17528c0.21554,0.13426 0.36939,0.30099 0.47846,0.47846c0.31542,0.31542 0.63085,0.63085 0.94627,0.94627l1.01864,1.46672c0,0 0.97072,1.45609 -0.48538,2.42681c-0.13604,0.09069 -0.26783,0.1602 -0.395,0.21169c-0.05367,0.59938 -0.43131,1.05255 -0.43131,1.05255c-1.39915,1.67152 -2.95257,3.22493 -4.62409,4.62406l-1.08285,1.09303c0,0 -1.23743,1.23744 -2.47487,0.00002z" fill="#794c0d"></path>
      <path d="M241.35003,204.4c0,1.75 -1.75,1.75 -1.75,1.75l-1.30161,-0.02563c-0.52421,0.09069 -1.04806,0.18345 -1.57158,0.27809c0.48084,0.19145 1.02318,0.62333 1.02318,1.59754c0,1.75 -1.75,1.75 -1.75,1.75l-0.64748,-0.01759c-2.39615,-0.34628 -4.38451,-0.32921 -6.30898,-0.78242h-0.24356c0,0 -0.52658,0 -1.00204,-0.28886c-1.3061,-0.00486 -2.62634,-0.24065 -3.87872,-0.57849c0,0 -1.68267,-0.48077 -1.2019,-2.16343c0.33995,-1.18982 1.28085,-1.29793 1.80285,-1.25919c0.03441,-0.05066 0.0721,-0.10176 0.11329,-0.15324c1.09321,-1.36652 2.45974,-0.27331 2.45974,-0.27331c0.45828,0.38708 0.92494,0.68641 1.40084,0.91946c0.12173,-0.01829 0.2427,-0.04116 0.36273,-0.06896l-0.05222,0.21127c0.13095,0.05603 0.2626,0.10747 0.39498,0.15475h0.63998c0.04049,-1.29065 1.41728,-1.56601 1.41728,-1.56601c2.14327,-0.42856 4.29112,-0.83557 6.4448,-1.20837l1.89841,-0.02563c0,0 1.75,0 1.75,1.75z" fill="#000000"></path>
      <path d="M180.95002,290.99999c-1.4,-1.05 -0.35,-2.45 -0.35,-2.45c2.4494,-3.26352 4.39154,-6.82234 6.21863,-10.44756c0.33687,-1.17531 1.25355,-2.91887 1.50392,-3.80109c0.32505,-1.14535 0.49682,-2.43129 0.55591,-3.75792c-0.32141,-0.26861 -0.54496,-0.6504 -0.60938,-1.08411l-0.39526,-2.37162l0.06209,-0.01035l-0.07994,-0.13301c0.00328,-0.52468 0.00867,-1.04935 0.01578,-1.574c-0.35243,-0.76601 -0.47565,-1.5957 -0.48222,-2.46776l-0.23681,-0.71044c-0.06649,-0.18494 -0.10272,-0.38432 -0.10272,-0.59216c0,-0.4961 0.20643,-0.94398 0.53808,-1.26244c0.12491,-1.0283 0.26245,-2.08365 0.26194,-3.13756c-0.00052,-1.08675 -0.40347,-2.14893 -0.39966,-3.23567c0.02104,-5.99787 2.66457,-12.41391 4.93287,-17.83402c2.65803,-6.35136 4.78832,-13.82294 5.93151,-20.60183c2.02576,-5.04867 2.04899,-10.70956 4.08886,-15.84538l0.06065,-0.05098l-0.02948,-0.01474l0.50711,-1.01424c-0.70776,-0.72084 -1.57916,-1.37166 -1.86926,-2.32283c-0.18411,-0.60366 0.83204,-1.09384 0.78449,-1.72316c-0.00125,-0.01652 -0.00345,-0.03253 -0.00655,-0.04807c-0.06587,-0.09569 -0.13404,-0.19288 -0.20378,-0.29135c-0.23971,-0.18576 -0.6172,-0.30421 -0.77234,-0.56037c-0.96499,-1.5933 -1.36599,-3.20579 -1.60744,-4.90421l-0.58299,-0.80995c-0.43795,-2.23446 -1.01567,-4.83248 -0.03188,-6.68196c0.01043,-0.15562 0.02418,-0.30969 0.04163,-0.46189c-0.11633,-0.58909 -0.23267,-1.17818 -0.349,-1.76727l0.59551,-0.54058l-0.19615,-0.25757c0.06176,-0.15473 0.12522,-0.33988 0.19106,-0.54844l-0.08174,0.03655c0.45686,-1.91708 0.93066,-3.94513 2.11079,-5.52317c0.11919,-0.16161 0.24408,-0.30228 0.37512,-0.41718c0.98928,-1.72212 2.06484,-3.49041 3.4345,-4.75338c0.04232,-0.37699 0.08463,-0.75398 0.12695,-1.13098l0.42785,-0.3225c1.72703,-2.96674 3.31748,-6.32048 4.44888,-9.65601l-1.79755,0.19973c-3.19349,1.18332 -7.03493,0.82445 -10.34291,1.57599c-1.80892,0.41097 -3.64143,0.95935 -5.47299,1.60007c-1.64802,0.91751 -3.24747,1.93093 -4.80072,2.96636c-3.02536,2.01677 -6.6644,3.20491 -9.47015,5.50554c0,0 -1.36652,1.09321 -2.45974,-0.27331c-0.04491,-0.05614 -0.08567,-0.11181 -0.12254,-0.16697c-0.11607,-0.01929 -0.22827,-0.05001 -0.33542,-0.09095c-1.4844,0.84379 -2.9888,1.6287 -4.52226,2.30177c-1.24834,2.92596 -4.87214,4.02402 -7.38354,5.27973l-0.13059,0.00055l0.01428,0.04285l-2.36126,0.78709c-0.18494,0.06649 -0.38431,0.10272 -0.59215,0.10272c-0.29501,0 -0.57297,-0.073 -0.8168,-0.20192c-0.71378,0.33237 -1.35942,0.60189 -1.5832,0.60189c-0.68356,0 -1.23695,-0.569 -1.81144,-1.02913l-0.26823,0.22353l-0.12896,-0.15475c-0.05362,0.0348 -0.10733,0.06951 -0.16106,0.1042c-0.42746,0.48425 -0.89119,0.93093 -1.40517,1.32167c-0.12607,0.26784 -0.21401,0.4678 -0.22872,0.50139c-0.848,1.93718 -0.76391,5.83246 -2.61532,7.13223c-0.86402,0.60658 -2.0985,0.32922 -3.15354,0.29236c-4.14034,-0.14464 -7.07013,-3.46369 -8.28282,-7.17354c-0.36901,-1.12889 -1.02103,-3.02828 -0.60116,-4.17065c-2.95408,-0.74611 -3.93321,-1.88128 -5.62801,-4.67029c-0.83122,-0.13587 -1.46556,-0.85736 -1.46556,-1.727c0,-0.48325 0.19588,-0.92075 0.51256,-1.23744l1.60001,-1.60001l0.28709,0.28709c0.00514,-0.00625 0.01029,-0.0125 0.01543,-0.01874c-0.00996,-0.07556 -0.0151,-0.15264 -0.0151,-0.23091c0,-0.29393 0.07246,-0.57093 0.2005,-0.81411l0.78426,-1.56852l0.06298,0.03149c0.02447,-0.09133 0.05189,-0.18205 0.0826,-0.27211c0.15184,-0.44523 0.53287,-0.74343 0.9239,-1.03956c0.58098,-1.0579 1.09878,-1.78949 1.75207,-2.45215l-0.22281,-0.17824l1.58989,-1.98738c0.3204,-0.40761 0.81794,-0.66941 1.37662,-0.66941c0.0445,0 0.08862,0.00166 0.13228,0.00492c1.82188,-1.84335 3.86479,-3.08441 7.44039,-3.60472l0.21303,0.07855l0.00756,-0.06806l3.45761,0.38419c0.45895,0.04484 0.86592,0.26698 1.15154,0.59702c0.23918,-0.12268 0.5103,-0.19191 0.79759,-0.19191h2.40001c0.52598,0 0.99776,0.23205 1.31856,0.59936c0.41356,-0.1256 0.84134,-0.19167 1.25388,-0.19085l0.15683,0.09512l0.01393,-0.06965l1.08107,0.21622c0.24184,-0.15107 0.55922,-0.2502 0.97572,-0.2502c0.29543,0 0.54098,0.04987 0.74508,0.13278c2.36843,-2.33608 4.83146,-4.48444 7.38243,-6.62951l1.45306,-1.40845c0.31516,-0.30624 0.74527,-0.49481 1.21943,-0.49481c0.07398,0 0.14689,0.00459 0.21845,0.0135c0.9909,-0.65276 2.28496,-1.1974 3.63843,-1.68551c2.54831,-1.68815 5.54573,-2.77535 8.57264,-3.78766l1.32047,-0.99034l0.04258,0.05678l0.08739,-0.14541c2.03439,-1.01666 3.58998,-1.64237 5.16772,-1.93943c0.50495,-0.13834 1.0235,-0.28635 1.53788,-0.47289l-0.03306,-0.23144l1.0575,-0.15107c3.55961,-1.3272 7.12552,-2.60742 10.74082,-3.80789l0.11532,0.02215l-0.00936,-0.04679l0.33632,-0.06727c1.67071,-0.87168 3.40329,-1.61871 5.27425,-2.24551c-0.12656,-0.31639 -0.25311,-0.63278 -0.37967,-0.94917c0.08162,0.00019 0.16534,0.00674 0.25033,0.02129c-0.01574,-0.1004 -0.0336,-0.20045 -0.054,-0.3001c0,0 -0.19073,-0.95365 0.4231,-1.58128c0.09991,-2.4591 0.33752,-5.00728 0.76389,-7.53352c-0.12643,-0.63065 0.16376,-1.21102 0.16376,-1.21102l0.09161,-0.18322c1.89553,-9.57628 6.66554,-18.53744 17.13044,-20.75016c0.09628,-0.0184 0.19257,-0.0368 0.28885,-0.0552c0.12918,-0.33221 0.30996,-0.54914 0.30996,-0.54914c1.75483,-2.1058 5.30589,-8.35173 8.38725,-8.62261c0.47962,-0.04216 2.16683,0.32456 2.82918,1.1356c0.16469,-0.37332 0.404,-0.72122 0.61437,-1.07104c0.52253,-0.8689 1.10041,-1.70396 1.685,-2.53237c1.35861,-1.92523 4.48033,-5.2011 7.02653,-5.49245c6.8177,-0.78013 4.10028,6.53557 3.31806,10.4464c-0.17623,0.79771 -1.16238,1.92322 -0.49869,2.39957c0.04262,0.03059 0.10399,0.0512 0.18149,0.06303c1.58342,-0.48457 2.78869,-1.39426 4.43328,-1.66105c1.24065,-0.20126 2.96296,-0.97905 3.77057,-0.016c0.68876,0.82133 0.57257,2.00393 0.35256,3.15731c0.79618,0.16416 1.39478,0.86914 1.39478,1.71393c0,0.23054 -0.04458,0.45066 -0.12558,0.65222l-1.17475,3.13272c-0.02573,1.07784 -0.62391,2.0556 -1.01715,3.06919c1.4218,-0.05704 1.94667,1.95208 2.30733,3.76251c0.37111,0.57375 0.46319,1.33005 0.70339,1.98143c1.25592,3.40585 2.09921,6.55276 2.10678,10.20193v1.07112c0.25087,0.66188 0,1.41962 0,2.12888c0,2.02532 -0.20287,4.02012 -0.46501,6.012c0.28863,0.31204 0.46501,0.72942 0.46501,1.188v2h-0.0483c0.01215,0.09268 0.02084,0.18609 0.02571,0.28032c0.12162,2.35535 -1.43609,4.49358 -2.09772,6.75736l-0.12802,0.11318l0.06357,0.03179l-0.78306,1.56608c-0.21164,0.44644 -0.60666,0.78902 -1.08778,0.93045c-0.06388,0.14606 -0.13102,0.29082 -0.20165,0.43418l-0.15018,0.09358l0.05743,0.04307l-0.10755,0.1434c2.59521,2.09078 4.59222,3.99631 6.59619,6.68655l0.00365,0.06323c0.02414,0.02477 0.04829,0.04959 0.07244,0.07445l0.00053,-0.00026l0.00083,0.00166c0.47649,0.49048 0.95559,0.99692 1.45965,1.48712c0.26756,0.14059 0.51003,0.30745 0.69456,0.535c0.09197,0.09475 0.18062,0.20515 0.25512,0.33184c0.02054,0.01737 0.04114,0.03468 0.06179,0.05194c1.552,-0.75958 2.32802,0.79242 2.32802,0.79242c3.11693,6.26517 6.98934,12.2507 7.95749,19.19197c0.59194,-0.51282 1.36156,-0.94596 2.37016,-1.28425c0.21378,-0.0717 2.29187,-0.18179 3.91497,0.14006c-0.01886,-0.55169 0.045,-1.11234 0.04217,-1.66514c-0.02011,-3.92655 0.98933,-6.16414 4.42998,-8.28864c2.77222,-1.71177 6.62607,-2.22189 9.4834,-0.37232c1.21994,0.78967 1.92737,2.97849 3.23383,2.97518c0.67385,-0.39719 1.34669,-0.81456 2.09401,-0.86089c0.2496,-0.01547 0.48905,-0.01808 0.71898,-0.00858c4.37025,-0.7926 10.26873,0.67016 9.51413,6.05393c-0.35581,2.53857 -2.65995,4.1996 -4.55849,5.84979c-0.92309,1.4026 -2.04146,2.71561 -2.8006,4.23416c-0.8122,1.62468 -0.98586,3.60711 -2.13573,5.01318c-0.03983,0.0487 -0.08017,0.09692 -0.12098,0.14466l0.03046,0.01904l-1.83894,2.9423c-0.30621,0.50826 -0.86344,0.84819 -1.50005,0.84819c-0.30326,0 -0.5885,-0.07714 -0.83718,-0.21286c-0.56693,1.36712 0.11415,2.27895 -0.25966,4.06487c-0.60545,2.89253 -3.66173,5.35142 -5.85619,7.00017c-3.2451,2.43813 -6.94814,4.33366 -10.6454,4.29143c0.09542,0.21604 0.14841,0.45502 0.14841,0.70637c0,0.9665 -0.7835,1.75 -1.75,1.75c-0.0127,0 -0.02538,-0.00014 -0.03801,-0.0004l-2.17799,-0.04064l0.00134,-0.07185l-0.17586,0.05985c-1.31358,-0.30235 -2.84115,-0.12742 -3.94073,-0.90705c-0.10128,-0.07181 -0.19706,-0.14899 -0.28804,-0.23084l-0.03071,0.04095l-0.06668,-0.05001h-0.08333v-0.0625l-0.11224,-0.08418l-0.28983,0.09986c-1.9127,-0.90543 -5.70065,-1.63366 -7.19203,-2.94372c-0.06571,-0.05772 -0.13034,-0.11646 -0.19396,-0.17616l-0.0291,0.04074l-2.78101,-1.98644c-0.38655,-0.2689 -0.6595,-0.68972 -0.73239,-1.17598c-0.20417,-0.1769 -0.40352,-0.35765 -0.59815,-0.54244c-0.55586,-0.10565 -1.01858,-0.4742 -1.25392,-0.9714c-0.10704,0.05664 -0.22066,0.10251 -0.33941,0.13615c-0.08022,0.25508 -0.30307,0.79414 -0.814,1.08376c-0.58515,3.78634 -1.62218,7.27411 -3.97206,10.8128l-2.19865,1.78603c0,0 -0.36799,0.29439 -0.87482,0.38668c0.26482,0.40366 0.31808,0.82975 0.31808,0.82975l-0.00001,-0.00001l0.39999,3.2c0,0 0.04475,0.35802 -0.06895,0.76925c0.25869,0.70845 -0.10229,1.43042 -0.10229,1.43042l-0.24923,-0.32581c0.51071,2.60643 1.82676,5.0145 2.38716,7.54112c0.9442,4.25705 0.39826,8.72711 0.83832,13.02963c0.38624,3.77636 1.16071,7.34124 0.39999,11.14488c0.00411,3.8165 -0.88529,7.40172 -1.19746,11.1719c-0.36339,4.38873 -0.00121,8.84166 -0.40255,13.22811c-0.24713,2.701 -1.60699,5.52621 -1.59149,8.22756c0.02227,3.87937 0.80149,7.83405 1.56602,11.6568c0.47711,2.49663 2.45075,4.59871 2.76924,7.07166c0.17582,1.36517 0.83345,3.08851 -0.06791,4.12876c-1.2696,1.46523 -6.24957,-0.62037 -7.59995,-1.29197c-7.34786,-3.65441 -11.00712,-10.10299 -15.8174,-16.51525c0,0 -0.66038,-0.8805 -0.23542,-1.76866l-0.38941,-1.13128c0.05348,-0.13345 0.10593,-0.26719 0.15735,-0.40124c-1.53378,0.16814 -1.84853,-1.40563 -1.84853,-1.40563l0.00004,0.00002l-0.43398,-2.3432c1.22713,-6.36972 4.43128,-12.4857 4.39999,-19.20001c0.02349,-5.04183 -1.88337,-10.01721 -2.39148,-15.02754c-0.26945,-2.657 -0.04704,-5.3894 -1.07532,-7.90274c-1.14619,-2.80155 -2.70787,-5.52735 -3.95729,-8.35375l-0.16983,0.25474l-0.34061,-0.22707c-2.15694,4.9394 -5.32029,9.30327 -7.98989,14.11372c-1.69878,3.06111 -3.30652,6.37856 -5.27825,9.32635c-0.8684,1.29828 -1.97868,2.73054 -3.14997,4.11008c0.10895,0.17963 0.18648,0.38043 0.22498,0.59478l0.39367,1.96821l-0.02207,0.00441l0.03164,0.04751c0.43419,3.17295 0.48905,5.69102 0.04235,8.18657c0.05656,1.13493 0.06532,2.27488 -0.02234,3.42881c-0.13037,1.71622 0.07108,3.50558 -0.45912,5.14305c-0.90803,2.80435 -3.67172,4.40012 -5.64905,6.37031c-4.96529,4.94738 -11.41832,8.00961 -17.65483,11.1278c-0.53333,0.26667 -1.06666,0.53334 -1.59999,0.80001l-1.42922,0.49495c0,0 -1.6602,0.5534 -2.21359,-1.1068c-0.03897,-0.11692 -0.06697,-0.22835 -0.08534,-0.33448c-0.31609,0.08073 -0.63557,0.15431 -0.95872,0.22047l0.15416,0.3854l-1.96315,0.78528c-0.21086,0.09006 -0.44301,0.13991 -0.68679,0.13991c-0.68472,0 -1.27759,-0.39324 -1.56509,-0.9662c-0.09314,-0.05042 -0.18817,-0.11126 -0.28488,-0.18379zM211.4467,272.54338c-0.0587,-0.0051 -0.11658,-0.01309 -0.17348,-0.02384c0.01526,0.10682 0.02912,0.21337 0.04118,0.31972c0.0512,-0.09879 0.09556,-0.19746 0.13231,-0.29588zM255.96257,98.83747c-1.23743,-1.23745 0.00002,-2.47487 0.00002,-2.47487l0.47219,-0.34516c0.01343,-0.02625 0.35696,-0.80947 0.78042,-1.58975c-0.40761,0.09462 -0.81989,0.19556 -1.2314,0.2927c-1.35389,0.53612 -2.8193,0.8112 -4.25971,1.02525c-1.31458,-0.24079 -3.16271,0.36212 -3.94376,-0.72235c-0.62683,-0.87035 0.95758,-5.18964 1.35949,-6.37664c0.12379,-0.36559 0.20033,-0.74352 0.25557,-1.12696c-1.35445,1.35703 -3.12668,2.68761 -4.15794,3.7178c-2.51792,2.51532 -4.28717,5.21877 -7.67489,2c-0.26468,-0.25147 0.116,-0.78813 -0.0866,-1.09185c-0.16268,-0.24387 0.03599,0.59941 -0.05627,0.87766c-0.17476,0.52704 -0.43468,1.02724 -0.73105,1.49679c-0.62176,0.98507 -1.08399,1.54269 -1.64401,2.12074c0.58337,0.11232 0.99282,0.52177 0.99282,0.52177c0.53333,0.53333 1.06667,1.06668 1.60001,1.60001l0.51596,-0.02277c0,0 1.6602,0.55338 1.10682,2.21358c-0.55338,1.6602 -2.21358,1.10681 -2.21358,1.10681l-1.88407,-0.82276c-0.53333,-0.53333 -1.06667,-1.06667 -1.6,-1.60001c0,0 -0.50394,-0.50393 -0.54704,-1.19022l-1.64758,0.80808c-0.74158,0.15358 -1.48316,0.30715 -2.22474,0.46073c-0.06691,0.01236 -0.13355,0.02508 -0.1999,0.03816c-0.02695,0.30878 -0.13409,0.59458 -0.30048,0.83646l-0.15189,0.22783c0.2851,0.31133 0.45907,0.72611 0.45907,1.18153c0,0.40033 -0.13442,0.76927 -0.36059,1.06413l-1.0085,1.34468c-0.11711,0.45109 -0.41871,0.81933 -0.76196,1.16963c-1.06502,1.6653 -2.06537,3.09944 -3.22318,4.37584c-0.40494,0.59844 -0.82953,1.18755 -1.24869,1.7685c0.55284,0.25935 1.15382,0.59721 1.82082,1.00612l1.74355,0.34871c0.79154,0.14217 1.39832,0.8166 1.43666,1.63958l2.1396,0.35661l-0.05959,0.35756l0.287,0.09567c0.00512,0.00158 0.01022,0.00317 0.01532,0.00479c0.19073,0.01929 0.37956,0.04627 0.56594,0.08202c-0.07534,-0.38477 -0.02255,-0.70155 -0.02255,-0.70155l0.29262,-0.07106c-0.11672,-0.32325 -0.23344,-0.6465 -0.35016,-0.96975c-0.22959,-0.29608 -0.36627,-0.66782 -0.36627,-1.07148c0,-0.17298 0.0251,-0.34011 0.07185,-0.49793l-0.26013,-0.28942c-0.31841,0.33122 -0.766,0.53735 -1.26173,0.53735c-0.6986,0 -1.30159,-0.40935 -1.5822,-1.00128l-1.16732,-2.33461c-0.12804,-0.24318 -0.2005,-0.52019 -0.2005,-0.81412c0,-0.9665 0.7835,-1.75 1.75,-1.75c0.40034,0 0.76929,0.13443 1.06415,0.36061l0.05682,0.04261c0.12208,0.016 0.23399,0.04456 0.33651,0.08282l0.17728,-1.51866l0.78303,-1.56608c0.2806,-0.59194 0.8836,-1.00129 1.5822,-1.00129c0.89129,0 1.62695,0.6663 1.73605,1.52796l0.39638,2.77454c0,0 0.05971,0.41791 -0.08479,0.87255c0.32823,-0.2914 0.69556,-0.63342 1.11495,-1.06248l1.59998,-1.59999c0.06497,-0.06497 0.13502,-0.12486 0.20952,-0.17901l0.06143,-0.07679l0.02348,0.01878c0.0206,-0.0132 0.04151,-0.02599 0.06269,-0.03835c-0.00788,-0.01811 -0.01575,-0.03622 -0.02362,-0.05433l0.08938,-0.04747l-0.02285,-0.02285l0.59555,-0.59556c0.11109,-0.17423 0.26223,-0.3398 0.46786,-0.46786l1.33658,-1.33658c0.31669,-0.31669 0.75418,-0.51256 1.23743,-0.51256c0.9665,0 1.75,0.7835 1.75,1.75c0,0.3867 -0.12542,0.74409 -0.3378,1.03373l-1.98817,2.78344l-0.01243,-0.00888c-0.00527,0.01577 -0.01054,0.03153 -0.01581,0.0473l-0.04432,0.0256l0.01504,0.01203l-1.58991,1.98738c-0.3204,0.40761 -0.81793,0.6694 -1.37661,0.6694c-0.19928,0 -0.39078,-0.03331 -0.56924,-0.09466c-0.70496,0.51731 -1.49858,1.05992 -2.02001,1.64639l-0.03099,0.09295c-0.02013,0.19472 -0.08158,0.39997 -0.20317,0.60951l-0.24943,0.74828l0.33892,1.64373c0.71779,-0.40194 1.45729,-0.76507 2.20922,-1.0902l1.46054,-1.09541c0.2086,-0.16 0.45426,-0.27409 0.72188,-0.32716c0.73182,-0.4617 1.47331,-0.91601 2.22222,-1.37208c2.05686,-1.2526 2.231,-2.36853 5.18973,-1.32815c1.35398,0.47611 2.23735,1.88544 3.58025,2.39195l-0.24994,-0.12516c0,0 1.75,0 1.75,1.75c0,1.75 -1.75,1.75 -1.75,1.75l-1.04993,-0.12516c-0.14756,-0.06148 -0.43672,-0.23808 -0.80008,-0.46922v0.84438l-0.58474,1.58262c0,0 -0.78261,1.56525 -2.34786,0.78264c-0.00571,-0.00285 -0.01138,-0.00571 -0.01703,-0.00859c-0.10382,0.05349 -0.21369,0.09689 -0.3283,0.12892c-0.0055,0.02747 -0.01109,0.05492 -0.01677,0.08235l-0.06391,-0.01901c-0.0538,0.05554 -0.10821,0.11059 -0.16324,0.16514l0.13711,0.06856l-0.0332,0.06641l0.26795,0.20096l-1.18779,1.58371c-0.31844,0.43431 -0.8324,0.71628 -1.41222,0.71628c-0.10994,0 -0.2175,-0.01013 -0.32182,-0.02952l0.29314,0.24428c0.43729,0.22464 0.85543,0.48136 1.24665,0.77864l0.07994,0.21828l0.06862,-0.0549l1.5913,1.98912c0.13479,0.16557 0.23991,0.35626 0.30724,0.56397c0.40687,0.36622 0.59256,1.03556 0.93496,1.49013l0.35,1.45c0,0 0,1.75 -1.75,1.75c-0.2462,0 -0.45776,-0.03464 -0.63957,-0.09417c0.01126,0.49717 -0.17264,1.10682 -0.97777,1.5094c-0.00623,0.00312 -0.01245,0.0062 -0.01865,0.00924c0.35455,0.59189 0.22556,1.15144 0.03483,1.53805c-0.05612,0.12573 -0.12663,0.24364 -0.20945,0.35161l-1.18937,1.58586l-0.08282,-0.06211c-0.02019,0.0767 -0.04038,0.15338 -0.06058,0.23008l-0.22195,0.07539l0.05854,0.07318l-2,1.59999l-0.4299,-0.53737c-0.78991,0.26391 -1.54685,0.5549 -1.94049,1.23308c-0.4164,0.71739 0.34268,2.04608 -0.37624,2.45981c-1.14022,0.65619 -2.63272,-0.03879 -3.94659,0.02796c-0.79431,0.04036 -1.76278,0.27327 -2.70478,0.32894c-0.15703,0.04624 -0.32323,0.07106 -0.49523,0.07106c-0.22132,0 -0.43305,-0.04108 -0.62797,-0.11604c-0.93463,-0.15778 -1.74929,-0.67921 -2.20948,-1.99652c-0.00562,-0.01609 -0.01075,-0.03214 -0.0154,-0.04816c-0.01704,-0.00738 -0.03409,-0.01477 -0.05114,-0.02215l-0.04242,-0.09001l-0.02013,0.01611l-0.26062,-0.32577l-0.39062,0.78127c-0.2806,0.59194 -0.8836,1.00129 -1.58221,1.00129c-0.35082,0 -0.67752,-0.10323 -0.9514,-0.28097c-0.15013,0.22395 -0.33879,0.33836 -0.60048,0.24523c-0.27234,-0.09692 -0.49455,-0.25601 -0.68236,-0.45775c-0.17747,0.0606 -0.36778,0.09348 -0.56578,0.09348c-0.18016,0 -0.35396,-0.02722 -0.5175,-0.07778c1.88662,1.57452 3.98856,2.77148 6.47324,3.84674c0.51687,-0.46896 1.24427,-0.46896 1.24427,-0.46896c0.84682,0.00119 1.68152,-0.03286 2.51044,-0.09721l-0.26296,-1.0852c0.93333,0.13333 1.86666,0.26667 2.79999,0.4c0,0 0.37038,0.05291 0.74417,0.28106c0.4898,-0.08075 0.98054,-0.16988 1.47356,-0.26633l0.7348,-0.03232c0,0 1.75,0 1.75,1.75c0,1.75 -1.75,1.75 -1.75,1.75l-0.06519,-0.03233c-0.18321,0.03558 -0.36617,0.07023 -0.54892,0.10387c0.75938,0.22278 1.50192,0.50071 2.21616,0.87528c2.98473,-0.08744 7.33833,0.49792 10.15595,-1.06125c-0.31355,-0.15678 -0.62709,-0.31355 -0.94064,-0.47033c0,0 -1.56524,-0.78264 -0.78261,-2.34788c0.78264,-1.56524 2.34788,-0.78261 2.34788,-0.78261c0.53333,0.26667 1.06665,0.53334 1.59998,0.8l0.81737,-0.18476c0,0 0.25828,0 0.57638,0.09922c0.29307,-0.28749 0.57642,-0.58067 0.85033,-0.87931c-0.46978,-0.23489 -0.93955,-0.46978 -1.40933,-0.70468c0,0 -1.56524,-0.78264 -0.78261,-2.34788c0.78264,-1.56524 2.34788,-0.78261 2.34788,-0.78261c0.53333,0.26667 1.06665,0.53334 1.59998,0.8l0.38206,0.32528c0.35693,-0.52793 0.69136,-1.06809 1.00438,-1.61942l-1.219,-0.31579c-0.66667,-0.26667 -1.33333,-0.53334 -2,-0.8c0,0 -1.62483,-0.64994 -0.9749,-2.27477c0.64994,-1.62483 2.27477,-0.9749 2.27477,-0.9749c0.66667,0.26667 1.33333,0.53334 2,0.8l1.3745,0.32708c0,0 0.03236,0.00809 0.08702,0.0265c0.3977,-0.99047 0.74086,-2.00685 1.03474,-3.04413l-0.7288,0.68064c-0.98789,-0.50629 -2.07026,-0.84087 -3.16059,-1.04925c0,0 -1.71601,-0.34321 -1.3728,-2.05923c0.34321,-1.71601 2.05923,-1.3728 2.05923,-1.3728c0.76771,0.159 1.53061,0.36365 2.27455,0.62033c0.24265,-0.15338 0.56199,-0.2543 0.98225,-0.2543c0.27967,0 0.51465,0.0447 0.71208,0.1198c0.25457,-1.39245 0.43574,-2.81113 0.55492,-4.24513c-0.93344,0.28378 -1.70446,-0.48725 -1.70446,-0.48725l0.14977,-0.31124c-0.52729,-0.08788 -1.05458,-0.17576 -1.58187,-0.26364c-0.00783,0.05205 -0.01795,0.10335 -0.03027,0.1538c0.36007,0.3909 0.27702,1.11781 -0.53493,2.76628c-0.43378,0.88068 -1.42299,1.36965 -2.24523,1.90601c-0.29511,0.1925 -0.87685,-0.08525 -1.0314,0.23139c-0.20901,0.42821 0.31525,0.94214 0.22979,1.41091c-0.35702,1.9583 -1.50716,4.09112 -2.46553,6.07326l-0.32047,2.24329l-0.1707,-0.02438l0.05508,0.4466c-0.12624,0.08629 -0.25249,0.17257 -0.37873,0.25886l0.16193,0.12145l-1.18779,1.58371c-0.31844,0.43431 -0.8324,0.71629 -1.41222,0.71629c-0.06188,0 -0.12302,-0.00321 -0.18325,-0.00948c-0.06909,0.00623 -0.14129,0.00948 -0.21675,0.00948c-1.75,0 -1.75,-1.75 -1.75,-1.75l0.12516,-1.04992c0.2997,-0.74398 0.72509,-1.42567 1.22557,-2.06081c0.00097,-0.00236 0.00193,-0.00473 0.0029,-0.00709l-0.30425,-0.18255l1.18351,-1.9725c0.0863,-0.14967 0.19411,-0.28537 0.3192,-0.40288c0.76698,-1.54644 1.55226,-3.14011 1.87948,-4.65519c0.18291,-0.8469 -0.21926,-1.84812 0.22978,-2.5891c0.62824,-1.0367 2.73226,-0.71523 3.1234,-1.86259c0.19343,-0.56742 -0.39836,-1.23298 -0.17624,-1.78981c0.02175,-0.05453 0.04435,-0.10863 0.06773,-0.16231l-0.04227,-0.00845l0.13136,-0.65681l-0.13136,-0.6568l0.07546,-0.01509l-0.10092,-0.15567c-0.00161,-0.48479 -0.00321,-0.96958 -0.00482,-1.45436c-0.25209,-0.30321 -0.40369,-0.69295 -0.40369,-1.11809c0,-0.9665 0.7835,-1.75 1.75,-1.75c0.06188,0 0.12302,0.00321 0.18325,0.00948c0.06909,-0.00623 0.14129,-0.00948 0.21675,-0.00948c1.75,0 1.75,1.75 1.75,1.75c-0.00135,0.35324 -0.0027,0.70647 -0.00405,1.05971c0.08884,0.00529 0.14175,0.0141 0.14175,0.0141c0.8,0.13333 1.6,0.26666 2.39999,0.39999l1.15098,0.84775c0.01006,-0.50652 0.01367,-1.01386 0.0113,-1.52156c0,-1.04959 -0.0303,-2.06652 -0.10972,-3.05256c-0.39046,0.01383 -0.69368,-0.08724 -0.69368,-0.08724l-0.64658,-0.31019c-0.66667,0 -1.33333,0 -2,0c0,0 -1.75,0 -1.75,-1.75c0,-1.75 1.75,-1.75 1.75,-1.75c0.66667,0 1.33333,0 2,0l0.74084,0.20695c-0.17349,-0.66037 -0.38582,-1.30567 -0.6442,-1.9366c-0.07652,-0.01145 -0.12109,-0.0226 -0.12109,-0.0226l0.00001,-0.00001l-1.17556,-0.34776c-0.66667,0 -1.33333,0 -2,0c0,0 -1.75,0 -1.75,-1.75c0,-1.75 1.75,-1.75 1.75,-1.75c0.30848,0 0.61695,0 0.92543,0c-0.25095,-0.29358 -0.51809,-0.58376 -0.80239,-0.87064l-1.8234,-1.07874c0,0 -1.50061,-0.90036 -0.60025,-2.40098c0.90036,-1.50061 2.40098,-0.60025 2.40098,-0.60025l1.12609,0.68357l0.53852,-1.92036c-0.19718,-0.08621 -0.39978,-0.22247 -0.60239,-0.42509zM209.23476,143.58262l-0.7688,-1.5405c-0.6907,-1.16634 -1.53877,-2.25233 -2.50339,-3.20466c0,0 -0.98802,-0.98801 -0.31553,-2.08119c-1.16416,0.48107 -2.31984,0.97902 -3.47106,1.48649c0.50315,0.07909 0.87404,0.35725 0.87404,0.35725c1.18094,0.90022 2.24979,1.96908 3.15,3.15002l0.56524,1.06738c0,0 0.78261,1.56525 -0.78264,2.34787c-1.56525,0.78261 -2.34787,-0.78264 -2.34787,-0.78264l-0.23475,-0.53263c-0.68364,-0.93086 -1.51912,-1.76634 -2.44997,-2.44999c0,0 -1.4,-1.05 -0.35001,-2.45c0.00237,-0.00316 0.00474,-0.0063 0.00711,-0.00944c-0.92633,0.41523 -1.85096,0.83446 -2.77598,1.25383c0.01651,0.0222 0.02496,0.03487 0.02496,0.03487c0.47174,0.7227 0.94347,1.4454 1.41521,2.16811l1.37871,1.00262c0,0 1.4,1.05 0.35001,2.45c-1.05,1.4 -2.45,0.35001 -2.45,0.35001l-1.8213,-1.39737c-0.59493,-0.8773 -1.18987,-1.75461 -1.7848,-2.63191c0,0 -0.15187,-0.2278 -0.24536,-0.56327c-0.5256,0.23474 -1.05208,0.46812 -1.57984,0.69944c0.77764,1.0397 1.44394,2.19954 1.87547,3.42721c0.39437,0.23669 0.75583,0.67056 0.75583,1.46589c0,1.75 -1.75,1.75 -1.75,1.75l-2.11601,-1.40678c-0.20186,-1.19815 -0.86979,-2.31901 -1.65052,-3.25002c0,0 -0.19933,-0.24916 -0.32136,-0.61981c-0.28023,0.11545 -0.56103,0.22994 -0.84245,0.34337c-0.59496,0.23982 -1.18605,0.47302 -1.77311,0.70313c0.35783,0.12253 0.59664,0.31359 0.59664,0.31359c0.66667,0.53334 1.33333,1.06667 2,1.60001l1.16288,1.59577c0,0 0.97074,1.45608 -0.48533,2.42682c-1.45608,0.97074 -2.42682,-0.48533 -2.42682,-0.48533l-0.43716,-0.80422c-0.66667,-0.53334 -1.33333,-1.06667 -2,-1.60001c0,0 -1.23565,-0.98852 -0.41697,-2.26056c-0.97771,0.38538 -1.9434,0.77355 -2.89639,1.18164c0.41435,0.11752 0.69981,0.34588 0.69981,0.34588c1.08074,0.87351 2.11237,1.82965 3.00821,2.89383c0.51712,0.14137 1.24858,0.54131 1.24858,1.6727c0,1.75 -1.75,1.75 -1.75,1.75l-1.80003,-0.70001c-0.80838,-1.09563 -1.82494,-2.03925 -2.89319,-2.88348c0,0 -1.20226,-0.96181 -0.44925,-2.20881c-1.09126,0.51727 -2.16456,1.07762 -3.2188,1.70828c0.03986,0.02035 0.06162,0.03341 0.06162,0.03341c1.39723,0.86175 2.69643,1.95122 3.69964,3.25061l0.18261,-0.11525c0,0 1.56525,0.78262 0.78262,2.34787c-0.78262,1.56525 -2.34787,0.78262 -2.34787,0.78262l-1.41736,-0.91524c-0.69701,-0.96835 -1.66739,-1.75235 -2.70038,-2.34939c0,0 -0.77311,-0.46387 -0.87655,-1.28061c-0.29699,0.22053 -0.59558,0.43079 -0.89522,0.63299c0.50319,0.50319 1.00638,1.00637 1.50957,1.50956l1.01866,1.46675c0,0 0.97071,1.4561 -0.48539,2.42681c-1.4561,0.97071 -2.42681,-0.48539 -2.42681,-0.48539l-0.58132,-0.93328c-0.53334,-0.53333 -1.06667,-1.06666 -1.60001,-1.59999c0,0 -0.22632,-0.22632 -0.3886,-0.58217c-0.63808,0.36744 -1.27309,0.73129 -1.89997,1.11272c0.57741,0.43306 1.15482,0.86611 1.73222,1.29917c0.46278,0.06302 1.54377,0.35743 1.54377,1.73284c0,1.75 -1.75,1.75 -1.75,1.75l-1.45,-0.35c-1.02739,-0.77055 -2.05477,-1.54108 -3.08217,-2.31163c-0.33552,0.28419 -0.66563,0.58555 -0.9894,0.90804c0.27233,0.1705 0.54643,0.33806 0.82193,0.50298l1.27034,0.8445c0,0 1.45609,0.97072 0.48538,2.42681c-0.97072,1.45609 -2.42681,0.48538 -2.42681,0.48538l-1.12965,-0.75547c-0.85738,-0.51555 -1.70224,-1.05425 -2.52627,-1.62244c-0.46769,0.27181 -0.97335,0.27181 -0.97335,0.27181c-1.98194,-0.00354 -4.6754,0.17408 -7.29144,0.76526c-1.71108,0.81941 -3.24016,1.93343 -4.68859,3.22258c0.65974,1.58907 -0.93061,2.27066 -0.93061,2.27066l-2.5552,1.0951c-0.00038,0.65269 0.02554,1.25383 0.01144,1.42046c-0.08783,1.0379 -0.86851,3.3594 -1.11686,5.30697c1.73511,-2.26762 3.62868,-4.16332 5.73382,-6.26846c0,0 1.23744,-1.23744 2.47487,0c0.75205,0.75205 0.58998,1.50411 0.34713,1.97838c0.3148,-0.30396 0.74328,-0.49094 1.21543,-0.49094c0.4642,0 0.88619,0.18074 1.19943,0.47569l1.56313,-1.56313l0.08254,0.08254l0.13166,-0.26477c0.0995,-0.00993 0.199,-0.01987 0.29851,-0.0298l-0.05789,-0.11578l0.16995,-0.08498l-0.03733,-0.04977l2.78586,-2.08939c0.29487,-0.22618 0.6638,-0.36061 1.06414,-0.36061c0.9665,0 1.75,0.7835 1.75,1.75c0,0.16418 -0.02261,0.32307 -0.06488,0.47374c0.38897,-0.32227 0.7772,-0.65457 1.16828,-0.99579c0.6076,-0.53013 0.97,-1.41013 1.72336,-1.69763c0.08838,-0.03373 0.17754,-0.06429 0.2674,-0.09201l-0.02678,-0.05356l1.5685,-0.78426c0.24319,-0.12804 0.52019,-0.2005 0.81412,-0.2005c0.36187,0 0.69809,0.10984 0.97714,0.29799l0.98542,-0.98542c0.31669,-0.31669 0.75419,-0.51256 1.23744,-0.51256c0.84241,0 1.54579,0.59523 1.71252,1.38805c4.09415,-2.97129 8.60631,-5.51916 13.36214,-7.57014c0.50116,-0.34887 0.99408,-0.70407 1.47534,-1.06791l1.45,-0.35c0,0 0.19034,0 0.44547,0.06277c7.47696,-2.79194 15.4342,-4.36728 23.2369,-4.45858c0.06553,-0.09962 0.14688,-0.19679 0.247,-0.28929c-0.5439,-1.53405 -1.0753,-3.07167 -1.58958,-4.6115c0,0 -0.14583,-0.43747 -0.0632,-0.93814c-1.49457,0.66193 -2.24184,-0.83264 -2.24184,-0.83264zM208.43744,136.36256c1.18513,1.19773 2.22321,2.55442 3.09665,3.99532l0.83118,1.65951c0,0 0.27509,0.5502 0.17288,1.16129c0.03505,-0.0135 0.07118,-0.02647 0.10842,-0.03889c1.66019,-0.55341 2.2136,1.10678 2.2136,1.10678c1.24164,3.73247 2.59307,7.45411 3.9781,11.13817l0.39916,0.17779c0,0 1.17265,1.17263 0.09337,2.37639c0.28035,0.71793 0.54887,1.43864 0.80369,2.16095c0.41679,0.2282 0.8155,0.6648 0.8155,1.50011c0,1.75 -1.75,1.75 -1.75,1.75l-2.06019,-1.19661c-0.34544,-1.04271 -0.72508,-2.08414 -1.13163,-3.1196c-0.15596,1.94406 -0.57127,3.90276 -1.06863,5.99257l-1.3201,3.23693c0,0 -0.66329,1.61943 -2.28272,0.95613c-1.61943,-0.66329 -0.95613,-2.28272 -0.95613,-2.28272l1.21079,-2.94242c-1.24406,2.39002 -2.63541,4.69763 -4.22485,6.69893l-0.24112,0.08965c-0.01775,0.02292 -0.03552,0.04582 -0.05331,0.06872c0.13225,1.27794 0.36018,2.56183 0.14471,3.81813c-0.09781,0.57032 -0.37789,1.07824 -0.6878,1.57767c-1.78997,6.03167 -0.78321,12.06585 2.5846,17.67427c1.22013,2.03187 2.61183,4.53295 4.07693,6.36816c0.22227,0.16021 0.44758,0.32799 0.67778,0.50461c0.3028,0.12138 0.60778,0.22983 0.65104,0.51231c0.00794,0.00639 0.01588,0.0128 0.02383,0.01921l1.89424,1.03665c-0.69238,0.35491 -1.33823,0.87939 -2.01471,1.29222l0.55449,0.27725l0.62279,-0.08205c0,0 1.75,0 1.75,1.75c0,1.75 -1.75,1.75 -1.75,1.75l-0.80494,-0.04478c-0.12696,0.0293 -0.25921,0.04478 -0.39507,0.04478c-0.20407,0 -0.39999,-0.03493 -0.58209,-0.09914l-0.46784,-0.02603c-0.77114,-0.32129 -1.77902,-0.32176 -2.31342,-0.96387c-0.0758,-0.09108 -0.14855,-0.18417 -0.21855,-0.27907l-0.05553,0.05553l-1.18389,-1.18389c-0.65291,-0.47064 -1.29253,-0.98197 -1.91549,-1.51916c-0.0215,0.07342 -0.03835,0.11556 -0.03835,0.11556c-1.27228,3.12259 -2.12155,6.53972 -2.80827,10.03625c0.08267,1.8865 0.44355,3.69271 0.10186,5.64477c-0.39751,2.27095 -1.35225,4.5403 -2.29718,6.78888c-0.14045,0.71099 -0.2874,1.41419 -0.44325,2.10761l-0.02846,1.61252c0,0 -0.02808,1.22905 -1.0673,1.60336c-0.61463,3.90207 -1.30969,7.78415 -2.49575,11.61337l-0.51494,1.66139c0,0 -0.20151,0.65015 -0.75866,1.01383c-0.02455,0.13708 -0.05268,0.22147 -0.05268,0.22147c-1.10835,3.31108 -2.0652,6.76356 -2.7442,10.1898l0.03398,0.0568c0,0 0,1.3531 -1.18981,1.67969c-0.14726,0.35042 -0.29452,0.70083 -0.44178,1.05125l0.02722,1.78349c0.09689,0.06859 0.19438,0.15072 0.29187,0.24821c1.23741,1.23746 -0.00005,2.47487 -0.00005,2.47487l-0.23615,-0.55023c0.36392,2.23692 1.7603,4.51103 2.58841,6.57899l0.75982,1.51964c0.12803,0.24319 0.2005,0.52019 0.2005,0.81411c0,0.43318 -0.15739,0.82961 -0.41811,1.1352c-0.13176,1.64627 -1.10051,3.13837 -1.69613,4.68671c-0.83317,2.16583 -1.69135,4.4009 -2.78591,6.45908c0.08551,-0.07463 0.17835,-0.14108 0.27729,-0.19812l1.83393,-1.10034c0.51651,-0.51348 1.10721,-0.93862 1.74181,-1.30392l-0.1961,-0.24512l1.98911,-1.5913c0.30117,-0.24519 0.68547,-0.39219 1.1041,-0.39219c0.14696,0 0.28968,0.01811 0.42606,0.05223c0.93182,-0.83896 1.82152,-1.74173 2.70228,-2.65145c0.35846,-0.66097 0.71401,-1.32486 1.31416,-1.74442c0.06189,-0.04326 0.12435,-0.0855 0.18735,-0.12677l-0.02614,-0.0305l2.64997,-2.27144c0.24463,-0.21225 0.54874,-0.35774 0.88399,-0.40813c0.34793,-0.43552 0.66326,-0.85644 0.92918,-1.28146c0.03038,-0.30812 0.13379,-0.70315 0.43185,-1.01791c-0.27896,-0.31002 -0.44872,-0.72026 -0.44872,-1.17014v-3.24822c-0.51534,-0.90835 -0.67048,-2.07928 -1.11018,-3.3984l-0.0898,-1.75339c0,0 0,-0.35593 0.16052,-0.74675c-0.05444,-0.18584 -0.09716,-0.35904 -0.12546,-0.51586c-0.23966,-0.14916 -0.46657,-0.38725 -0.65033,-0.75477c-0.78262,-1.56525 0.78262,-2.34787 0.78262,-2.34787c0.599,-0.27823 1.13864,-0.65347 1.63215,-1.09589l1.38803,-2.22085l0.29198,-0.97327l0.01008,0.00303c0.00259,-0.01985 0.00522,-0.03969 0.00792,-0.05953c0.35258,-2.59786 1.30421,-2.71054 2.26258,-4.81949c0.96667,-2.1272 2.16381,-4.06812 3.308,-6.05657c-0.62772,-0.26583 -1.06811,-0.88758 -1.06811,-1.61217c0,-0.26663 0.05963,-0.51932 0.16627,-0.74549l1.40604,-3.16359l0.01619,0.0072c0.01032,-0.03548 0.02086,-0.07091 0.03163,-0.10628c0.68976,-2.2655 2.44533,-4.0563 3.66474,-6.0864c1.18163,-1.9672 2.4148,-3.88806 3.68854,-5.77904c0.18224,-0.34033 0.36578,-0.67422 0.54508,-0.98718c-0.83033,0.5272 -1.68025,1.07224 -2.53104,1.69821l-1.03745,1.41257c0,0 -1.05,1.4 -2.45,0.34999c-1.4,-1.05 -0.34999,-2.45 -0.34999,-2.45l1.36258,-1.78744c2.0565,-1.56345 4.47509,-2.62089 6.33496,-4.28577c-0.21031,-0.06293 -0.40399,-0.16435 -0.57288,-0.29607c-1.62455,0.19028 -3.24728,0.36527 -4.92464,0.36928c0,0 -1.75,0 -1.75,-1.75c0,-1.75 1.75,-1.75 1.75,-1.75c2.41384,0.00646 4.72531,-0.36781 7.09192,-0.62191l1.01871,-0.43659l0.08015,0.18702l0.39993,-0.31596c0.15292,0.08015 0.30585,0.16031 0.45877,0.24046l0.0382,-0.22921l2.12678,0.35446c1.32579,-0.34062 2.77929,-0.37197 4.38552,-0.37827l-0.00234,0.50159c1.30667,0.09656 2.61766,0.35552 4.08312,0.76574l1.15669,0.84526c0,0 1.23741,1.23746 -0.00005,2.47487c-1.23746,1.23741 -2.47487,-0.00005 -2.47487,-0.00005l0.3567,0.04524c-1.77907,-0.52053 -3.21252,-0.75579 -4.78536,-0.68267c3.52809,3.52432 4.31886,8.54293 5.42836,13.40965c2.52062,11.05641 3.98776,21.87082 3.98776,33.19036c0,5.20558 -0.29228,10.42536 -1.59571,15.3915l1.21222,1.51531l-0.01122,0.00897c0.01919,0.01699 0.0383,0.03409 0.05732,0.05129c2.02615,1.83216 3.02072,4.96656 4.99271,6.96422c1.39572,1.41389 3.51245,1.88756 5.07166,3.08935c0.80231,0.6184 1.42211,1.11071 2.0583,1.56056c-0.01756,-0.0784 -0.03466,-0.15771 -0.05129,-0.23801c-0.80559,-4.02799 -1.65239,-8.24654 -1.63399,-12.3432c0.00203,-0.45288 0.03733,-0.90605 0.09632,-1.35933c-1.30708,0.18842 -2.62729,0.3057 -3.94634,0.30937c0,0 -1.75,0 -1.75,-1.75c0,-1.75 1.75,-1.75 1.75,-1.75c1.37649,0.00442 2.75514,-0.14637 4.11231,-0.37621l0.62031,-0.02148c0.28617,-1.10345 0.56311,-2.20502 0.69232,-3.30232c-0.86785,0 -3.20661,0 -3.82494,0c0,0 -1.75,0 -1.75,-1.75c0,-1.75 1.75,-1.75 1.75,-1.75c0.66667,0 1.33333,0 2,0h2c0,0 0.01148,0 0.03258,0.00093c0.0365,-1.39435 0.03291,-2.79224 0.03678,-4.18954c-0.62668,0.65181 -1.61255,0.45463 -1.61255,0.45463l-1.82923,-0.37454c-0.74253,0.00284 -1.48505,0.00568 -2.22758,0.00852c0,0 -1.75,0 -1.75,-1.75c0,-1.75 1.75,-1.75 1.75,-1.75c0.85749,0.00284 1.71498,0.00568 2.57247,0.00852l2.17077,0.42548c0,0 0.53743,0.10749 0.95061,0.50292c0.02336,-1.11306 0.06936,-2.22419 0.16213,-3.33128c0.01424,-0.1699 0.0296,-0.33939 0.04597,-0.50852c-0.31065,0.07131 -0.67497,0.06176 -1.05516,-0.14206c-0.98453,0.18388 -1.97122,0.3564 -2.95909,0.52114c0,0 -1.72619,0.28769 -2.01388,-1.4385c-0.28769,-1.72619 1.4385,-2.01388 1.4385,-2.01388c1.45189,-0.24184 2.9012,-0.501 4.34448,-0.78983l0.52834,1.50063c0.17443,-1.26936 0.37163,-2.52862 0.53446,-3.7956c-0.21444,0.09463 -0.37639,0.12702 -0.37639,0.12702l-2.02771,0.4053c-0.80926,0.13496 -1.61852,0.26991 -2.42778,0.40487c0,0 -1.72619,0.28771 -2.01389,-1.43848c-0.28771,-1.72619 1.43848,-2.01389 1.43848,-2.01389c0.79074,-0.13172 1.58147,-0.26343 2.37221,-0.39515l1.97229,-0.39468c0,0 0.75047,-0.15009 1.35808,0.24454c0.02749,-0.49674 0.04313,-0.99673 0.04366,-1.50099c0.12725,-0.63628 0.20764,-1.26425 0.25183,-1.88675c-0.67217,0.38326 -1.46375,0.11941 -1.46375,0.11941l-0.64663,-0.31019c-0.8,0 -1.6,0 -2.39999,0c0,0 -1.75,0 -1.75,-1.75c0,-1.75 1.75,-1.75 1.75,-1.75c0.8,0 1.6,0 2.39999,0l1.7534,0.48979c0,0 0.1417,0.04723 0.32851,0.1555c-0.07046,-0.93688 -0.18443,-1.87193 -0.30362,-2.81535c-0.57571,0.16557 -1.13166,-0.01974 -1.13166,-0.01974l-0.35893,-0.334c-1.53737,0.25254 -3.05736,0.63801 -4.53428,1.134c0,0 -1.66019,0.5534 -2.2136,-1.10679c-0.5534,-1.66019 1.10679,-2.2136 1.10679,-2.2136c1.65228,-0.54708 3.34948,-0.97628 5.06569,-1.26599l1.6855,0.3848c-0.09415,-1.28988 -0.10949,-2.59388 -0.1179,-3.90012c-0.77315,0.45144 -1.66254,0.00675 -1.66254,0.00675l-0.01736,-0.21524c-1.50932,-0.00399 -3.02419,0.12418 -4.51233,0.37618c0,0 -1.72619,0.28769 -2.01388,-1.4385c-0.28769,-1.72619 1.4385,-2.01388 1.4385,-2.01388c1.67927,-0.27588 3.38594,-0.41982 5.08771,-0.4238l1.58261,0.58475c0,0 0.02021,0.01011 0.05489,0.03032c-0.04504,-1.38612 -0.14654,-2.76416 -0.39117,-4.1198c-0.42774,0.20473 -0.84634,0.20473 -0.84634,0.20473l-1.82756,-0.00852c-1.27579,0.26121 -2.55226,0.51913 -3.82923,0.77453c0,0 -1.71601,0.34321 -2.05923,-1.3728c-0.34321,-1.71601 1.3728,-2.05923 1.3728,-2.05923c1.3897,-0.27795 2.78001,-0.55289 4.17077,-0.82547l2.10356,-0.00825c-0.43068,-1.2154 -0.91541,-2.43306 -1.2851,-3.67732c-0.29381,0.03703 -0.63669,-0.01172 -1.02864,-0.20769c-0.46742,-0.23371 -0.72547,-0.53721 -0.85751,-0.84798c-1.5655,-0.0157 -2.89081,0.45252 -4.6791,0.96539c0,0 -1.68267,0.48077 -2.16343,-1.2019c-0.48077,-1.68267 1.2019,-2.16343 1.2019,-2.16343c2.63817,-0.75111 4.57626,-1.28061 7.12683,-0.97222c-0.17517,-0.93626 -0.29384,-1.88577 -0.35284,-2.8378c-1.00277,0.52423 -2.06144,1.01122 -3.20385,1.50115l-1.48935,0.1415c0,0 -1.75,0 -1.75,-1.75c0,-1.75 1.75,-1.75 1.75,-1.75l0.11063,0.1415c0.27828,-0.11918 0.55042,-0.23734 0.81701,-0.35536l-0.09292,-0.05352c0,0 -0.78261,-1.56525 0.78264,-2.34787c0.77661,-0.3883 1.36055,-0.19862 1.75184,0.09109c2.21055,-1.22446 3.95516,-2.57164 5.6111,-4.74907c2.48817,-3.27175 1.76047,-6.53753 2.07407,-10.30081c0.43549,-5.22598 -0.35068,-9.6054 -2.27923,-14.42602c0,0 -0.41631,-1.0408 0.25045,-1.78959c-0.17865,0.05677 -0.38568,0.08966 -0.6256,0.08966c-0.90776,0 -1.34465,-0.47087 -1.55491,-0.92412c-0.36456,0.39257 -1.04047,0.833 -2.02773,0.33937c-1.56525,-0.78262 -0.78262,-2.34787 -0.78262,-2.34787l0.03476,-0.06952c0.80901,-1.60739 1.70386,-3.18764 2.76055,-4.64538c-0.02248,-0.02088 -0.04497,-0.04255 -0.06746,-0.06503c-1.23745,-1.23743 -0.00002,-2.47487 -0.00002,-2.47487l0.56913,-0.51472c1.86189,-2.86643 3.37322,-5.87453 5.18432,-8.77536c0,0 0.49267,-0.78827 1.33438,-0.85673c0.21212,-0.36612 0.42476,-0.73199 0.63801,-1.09755c0,0 0.88178,-1.51161 2.39339,-0.62983c1.51161,0.88178 0.62983,2.39339 0.62983,2.39339c-1.59525,2.73468 -3.15642,5.48596 -4.71799,8.23851c0.34231,0.31943 0.55633,0.77458 0.55633,1.27972v2.79999h-0.43973c0.01392,0.16004 0.02478,0.31886 0.03317,0.47847c0.14718,0.17611 0.26038,0.38161 0.32952,0.6064l0.78726,2.36171l-0.05721,0.01907c0.04327,0.08361 0.0848,0.16825 0.12442,0.25402c0.62967,1.36317 0.29165,2.94203 0.11178,4.48445c0.04936,0.0712 0.09358,0.14624 0.1321,0.22458c0.28697,0.14113 0.52965,0.35857 0.70157,0.62584c0.04198,-0.00301 0.08438,-0.00455 0.12713,-0.00455c0.9665,0 1.75,0.7835 1.75,1.75v2.53005c0.48145,0.31178 0.80002,0.85367 0.80002,1.46995v3.5h-0.27819c0.06354,0.45035 0.11104,0.89762 0.14166,1.35018c0.44619,0.23468 0.77866,0.6564 0.89315,1.16092l0.77547,3.10192c0.6901,0.29845 1.3695,0.73471 2.06455,0.96937l-0.05411,0.1901c1.06665,-0.45505 3.35979,2.75646 4.36408,4.10956l1.8366,1.45143c0,0 0.2823,0.22584 0.48763,0.60052c0.20852,0.10267 0.41771,0.20907 0.62807,0.31835c0.18464,-0.06624 0.38364,-0.10233 0.59107,-0.10233c0.20783,0 0.40721,0.03623 0.59215,0.10272l2.02122,0.67373c-0.70132,-1.18221 -1.30709,-2.44688 -1.69668,-3.7662c-0.0481,0.10699 -0.0985,0.21441 -0.15143,0.32233c0,0 -0.78262,1.56525 -2.34787,0.78263c-1.56525,-0.78262 -0.78263,-2.34787 -0.78263,-2.34787c0.15014,-0.29296 0.27563,-0.5819 0.38307,-0.86865l-0.80475,-1.61107c-0.25764,-0.59805 -0.50955,-1.19347 -0.7538,-1.7876c-0.88285,0 -1.93187,0 -2.4593,0l0.00005,-0.00003c0,0 -1.75,0 -1.75,-1.75c0,-1.75 1.75,-1.75 1.75,-1.75c0.37398,0 0.74795,0 1.12193,0c-0.151,-0.43413 -0.29591,-0.869 -0.43397,-1.30515l-0.86041,-0.00337c-0.72359,-0.14183 -1.44718,-0.28365 -2.17077,-0.42548c0,0 -1.71601,-0.34321 -1.3728,-2.05923c0.34321,-1.71601 2.05923,-1.3728 2.05923,-1.3728c0.46326,0.09485 0.92652,0.18971 1.38977,0.28456c-0.2067,-0.96657 -0.37191,-1.94577 -0.48805,-2.94296c-1.28858,0.26559 -2.64376,0.28601 -3.93263,0.1006c0,0 -1.72619,-0.28771 -1.43848,-2.01389c0.28771,-1.72619 2.01389,-1.43848 2.01389,-1.43848c0.94468,0.18967 1.98114,0.18323 2.91209,-0.09548c-0.27599,-1.33946 -0.5347,-2.68325 -0.77783,-4.03004c-0.33173,-0.00687 -0.57538,-0.08809 -0.57538,-0.08809l-0.64656,-0.3102c-0.66667,0 -1.33333,0 -2,0c0,0 -1.75,0 -1.75,-1.75c0,-1.75 1.75,-1.75 1.75,-1.75c0.66667,0 1.33333,0 2,0l0.58748,0.16412c-0.24447,-1.53055 -0.47095,-3.06339 -0.6819,-4.5966l-0.30561,-0.06752c-0.55226,0.12201 -1.10453,0.24402 -1.65679,0.36602c0,0 -1.71601,0.34321 -2.05923,-1.3728c-0.34321,-1.71601 1.3728,-2.05923 1.3728,-2.05923c0.72945,-0.1351 1.45889,-0.27021 2.18834,-0.40531c-0.1348,-1.09595 -0.26264,-2.19134 -0.3844,-3.28546c0,0 -0.11873,-1.06861 0.66755,-1.62368c-0.03118,-0.06229 -0.06236,-0.1246 -0.09352,-0.18691c0,0 -0.19873,-0.39745 -0.19562,-0.89193c-0.13107,-0.31388 -0.28741,-0.58082 -0.47517,-0.77975l-1.85515,-0.80491c-3.4839,-2.69598 -6.21061,-5.31835 -8.91829,-8.65929c-1.55173,1.8846 -3.4107,3.57648 -5.62719,5.01419c-3.74693,2.43043 -9.14405,1.9245 -13.36543,1.84222c-3.25129,-1.56118 -6.90532,-1.5471 -10.26763,-2.8864c-5.32495,-2.12107 -9.29972,-4.79267 -12.7303,-9.36679c-0.61488,-0.81984 -1.37477,-1.6796 -2.04041,-2.59194c-0.00405,0.00143 -0.00617,0.00214 -0.00617,0.00214c-1.36009,0.45262 -2.70059,0.94292 -4.02726,1.46029c0.42933,0.16014 0.7113,0.4421 0.7113,0.4421zM294.49941,191.30037c-0.90037,-1.50061 0.60025,-2.40098 0.60025,-2.40098c0.66667,-0.4 1.33333,-0.8 2,-1.2l1.67228,0.45987c0.1655,-1.73911 0.0789,-3.58664 0.9394,-5.0793c0.69599,-1.20729 2.08982,-1.91723 2.76307,-3.13734c0.74767,-1.35498 0.96407,-3.20244 1.49464,-4.57705c1.30546,-3.38221 3.75372,-6.04463 4.69643,-9.5333c-0.84477,-1.46836 -1.73605,-1.68894 -2.68626,-1.46196c-0.37779,0.15656 -0.76823,0.33652 -1.17714,0.53286l0.00001,0.00001c-0.0637,-0.00276 -0.12773,-0.00415 -0.19201,-0.00442c-0.11306,0.05277 -0.22693,0.10647 -0.34163,0.15998c0.12069,0.02485 0.2478,0.06293 0.38151,0.11641c1.62483,0.64995 0.97488,2.27478 0.97488,2.27478c-1.57422,3.93383 -3.50195,7.69015 -5.14998,11.59043l-0.863,2.04112c0,0 -0.6815,1.61185 -2.29335,0.93035c-1.10283,-0.46629 -1.13207,-1.3681 -1.04055,-1.89118l-1.10772,2.25193c0,0 -0.05906,0.12004 -0.17772,0.27741h1.40749c0.81765,0 1.50433,0.56076 1.69644,1.31868c0.25811,0.25819 0.45194,0.65206 0.45354,1.23132c0,-0.00116 0.00001,-0.00058 0.00001,0.00002l-0.00001,0.00001c0.00001,0.0024 0.00001,0.0048 0.00001,0.00721c-0.00482,1.74276 -1.74999,1.74276 -1.74999,1.74276h-3.19998c-0.52452,0 -0.99515,-0.23076 -1.31589,-0.5963c-0.41221,0.05957 -0.82443,0.11915 -1.23664,0.17872c0,0 -1.73241,0.24749 -1.9799,-1.48492c-0.24749,-1.73241 1.48492,-1.9799 1.48492,-1.9799c0.58628,-0.08286 1.17256,-0.16573 1.75884,-0.24859c-0.85938,-0.81723 -0.28156,-1.99161 -0.28156,-1.99161l1.36372,-2.77088c1.95805,-4.39571 3.19249,-9.03302 4.98167,-13.50648c0,0 0.1487,-0.37175 0.48167,-0.68849c-0.38733,-0.41425 -0.78533,-0.81287 -1.23947,-1.09631c-1.06085,-0.6621 -4.34697,1.18579 -5.07382,1.95606c-1.32563,1.40483 0.15467,4.9484 -0.00208,6.65113c-0.25542,2.77446 -0.10554,9.47065 -2.50405,11.46502c-0.71045,0.59074 -1.65384,0.77246 -2.57594,0.99157c0.20909,0.34954 0.26471,0.68329 0.26471,0.68329c0.30127,1.9106 0.20944,3.89669 -0.12824,5.80119l-1.83143,2.37973c0,0 -0.37614,0.47017 -0.96295,0.63831c-0.08642,0.13855 -0.17414,0.27626 -0.26323,0.41305c-0.0129,0.12022 -0.04304,0.30355 -0.11347,0.50389c0.5929,-0.49912 1.42063,-0.38088 1.42063,-0.38088c0.93333,0.13333 1.86666,0.26666 2.79999,0.39999l1.77695,0.43465c0,0 0.77201,0.193 1.1447,0.8393c0.39245,-0.23323 0.77321,-0.47519 1.13886,-0.71923c-0.39625,-0.11322 -0.79251,-0.22643 -1.18876,-0.33965c0,0 -1.68267,-0.48077 -1.2019,-2.16343c0.48077,-1.68267 2.16343,-1.2019 2.16343,-1.2019c0.81584,0.2331 1.63168,0.4662 2.44752,0.6993c-0.15148,-0.12727 -0.29666,-0.29588 -0.4289,-0.51628zM285.35254,197.33243c0,0 -1.73241,-0.24748 -1.48493,-1.9799c0.02022,-0.14151 0.05034,-0.26981 0.08862,-0.38611c-0.25755,0.22342 -0.62681,0.38359 -1.15623,0.38359c-1.75,0 -1.75,-1.75 -1.75,-1.75l0.30873,-1.3926c1.06058,-1.52918 1.89011,-3.21588 2.64212,-4.91815c0,0 0.1511,-0.33998 0.47073,-0.63676c-0.03673,-0.52577 -0.106,-1.0496 -0.19776,-1.5648c0,0 -0.25427,-1.52563 1.14954,-1.9474c-1.15767,-1.18666 -2.16606,-2.58759 -2.36485,-4.16786c-0.04921,-0.39116 0.60381,-4.82245 -0.65851,-4.82245c-0.91487,0 -1.4541,4.09114 -1.45001,4.65001c0.01014,1.38764 0.52302,2.76267 0.39406,4.14435c-0.13824,1.48107 -0.56386,2.57276 -1.03478,3.67869l0.19966,0.99833c0.02689,0.12192 0.04107,0.24862 0.04107,0.37863c0,0.84334 -0.59655,1.54735 -1.39069,1.71308c-0.12711,0.46579 -0.23297,0.91961 -0.3336,1.36651c0.11489,-0.01919 0.23938,-0.02959 0.37427,-0.02959c1.75,0 1.75,1.75 1.75,1.75l-0.03399,0.45678c0.20495,1.10951 0.60703,2.20131 1.18354,3.17118c1.33661,1.02009 2.85993,1.2736 4.41012,1.06977c-0.3857,-0.0551 -0.7714,-0.1102 -1.15711,-0.1653zM276.56321,186.5425c-0.05373,0.00497 -0.10816,0.00751 -0.16319,0.00751c-0.02547,0 -0.05082,-0.00054 -0.07603,-0.00162l0.12508,0.3333c0.04324,-0.10085 0.08691,-0.20058 0.13075,-0.29949zM256.62932,296.65611l-0.70165,-0.47901c0.04807,0.07162 0.0951,0.14413 0.14107,0.21757c0.03621,0.05785 0.07091,0.11641 0.10423,0.17561l0.02704,-0.02028l1.02411,1.36547c-0.14169,-0.41081 -0.26609,-0.84006 -0.40043,-1.15286c-0.12248,-0.05858 -0.19436,-0.1065 -0.19436,-0.1065zM205.28913,194.55105l0.03264,0.09371l0.02825,-0.04476c-0.02037,-0.01619 -0.04066,-0.03251 -0.06089,-0.04896zM205.5047,195.16996l0.24742,0.71037c0.32475,0.19854 0.6249,0.42753 0.92318,0.65843c-0.18048,-0.29173 -0.35609,-0.58462 -0.52673,-0.87866c-0.2781,-0.12246 -0.49272,-0.31597 -0.64387,-0.49014zM145.51465,177.48292l-0.09023,0.13534c0.97381,0.67822 2.10166,1.1416 2.68248,0.80247l0.26825,-0.67065l0.03309,0.01323c0.01694,-0.06791 0.03566,-0.13554 0.0563,-0.20288c0.01026,-0.03347 0.02083,-0.06677 0.03173,-0.0999c-0.00861,-0.2889 -0.07053,-0.64393 -0.19667,-1.07424c0.75257,-0.99725 1.50515,-1.99449 2.25772,-2.99174l0.14854,-0.00819l0.23805,-0.35708l0.04596,0.03064c0.28317,-0.50414 0.64993,-0.93866 1.16112,-1.27836c-0.18997,-0.27991 -0.30097,-0.61776 -0.30097,-0.98154c0,-0.26361 0.05828,-0.5136 0.16267,-0.7378c-2.44115,2.44081 -4.58588,4.5365 -6.49804,7.42071zM137.35002,166.80001c0,0.01658 -0.00016,0.033 -0.00047,0.04927c0.26416,0.25226 0.90438,0.45377 1.20386,0.69052l1.4466,-0.0898c0,0 0.75452,0 1.27268,0.49543c0.05595,-1.5841 0.15763,-3.22398 0.78439,-4.37119c1.84459,-3.37629 5.73205,-5.29175 9.80769,-6.30987c0.05882,-0.02716 0.11781,-0.05404 0.17698,-0.08065c-1.7227,0.0794 -3.43099,0.31492 -4.96143,0.54368h0.00001c-0.88174,0.1318 -2.07405,-0.06774 -2.59251,0.65753c-0.36553,0.51134 -0.2667,1.26327 -0.62683,1.77842c-1.23453,1.76596 -3.74719,4.63884 -5.51436,5.95869c-0.28294,0.21132 -0.79379,0.06082 -1.0258,0.30607c0.01894,0.11423 0.02919,0.23794 0.02919,0.37189zM302.37519,166.15007c0,0 0.09244,-0.23108 0.29474,-0.4841c-0.33164,0.07837 -0.66996,0.11813 -1.01529,0.0969c-0.01724,0.05574 -0.02978,0.08709 -0.02978,0.08709c-1.31823,3.29504 -2.3468,6.66963 -3.56945,9.98017c1.44004,-3.22827 3.00496,-6.39165 4.3198,-9.68005zM223.83278,128.10758c0.32069,-0.40083 0.81397,-0.65757 1.36722,-0.65757c0.36773,0 0.70896,0.11342 0.99063,0.30719l1.90341,1.26893c0.99046,0.18372 1.98574,0.33746 2.98629,0.44649l0.05752,0.03822l0.00537,-0.02684l0.40751,0.0815l1.56853,-0.44815l0.00621,0.02175c0.03638,-0.01713 0.0729,-0.034 0.10957,-0.0506c2.10163,-0.95135 5.04206,-1.00122 7.31501,-1.91331l1.72482,1.08308c-0.00484,-0.03027 -0.00874,-0.05854 -0.01188,-0.08444c-0.22129,-0.32945 -0.42668,-0.66939 -0.61977,-1.01705l-0.08067,0.08067l-1.60001,-1.60001c-0.23525,-0.23525 -0.40384,-0.53717 -0.47499,-0.87499l-0.26887,-0.26887l-0.03078,-0.02564c-0.03527,-0.0283 -0.07116,-0.05717 -0.10767,-0.08658c-0.1677,-0.09298 -0.31622,-0.19863 -0.41651,-0.33615c-1.67284,-1.3492 -4.24871,-3.37755 -6.19102,-3.49671c-0.33522,-0.02057 -0.63922,0.0297 -0.92063,0.13093l-0.85887,0.6871l-0.03858,-0.04822c-0.80795,1.1422 -1.74026,2.16414 -3.08226,3.18418l-1.53496,1.53496c-0.26899,0.26899 -0.62514,0.45082 -1.02246,0.49949c-0.53268,0.4338 -1.02954,0.91656 -1.47783,1.43793c0.09839,0.04456 0.19692,0.08879 0.29561,0.1327zM228.98601,135.73156l0.00591,0.02454l0.00812,-0.00609l0.72967,0.9729c0.7567,0.0997 1.50216,-0.54337 2.27032,-0.47291c0.61379,0.0563 1.11507,1.12815 1.65339,0.82795c0.46157,-0.25741 -0.66885,-1.10008 -0.37625,-1.54018c0.37742,-0.56767 3.46303,-2.33764 4.4006,-2.89039l0.91711,-0.91711c-1.41326,0.49418 -2.84381,0.80756 -4.17319,0.52876c-0.2603,0.63986 -0.8883,1.09098 -1.62167,1.09098h-2c-0.2572,0 -0.50144,-0.05548 -0.72141,-0.15514c-0.31938,0.34161 -0.77405,0.55513 -1.27859,0.55513c-0.24379,0 -0.47592,-0.04985 -0.68678,-0.1399l-1.54465,-0.61786c0.81572,0.88772 1.64926,1.77183 2.41742,2.73933zM214.21802,123.25091c-0.08172,-0.02881 -0.16065,-0.06351 -0.2363,-0.1036c-0.01938,0.22894 -0.03739,0.45709 -0.05407,0.68432zM219.13783,137.74893c-0.03535,-0.00124 -0.07043,-0.00352 -0.10521,-0.00682c0.05415,0.05297 0.10846,0.10554 0.16294,0.15772c-0.02148,-0.04916 -0.04076,-0.09951 -0.05773,-0.15091zM221.33161,114.65488c0.03373,0.00251 0.06719,0.00597 0.10037,0.01037c-0.03051,-0.02618 -0.06116,-0.05178 -0.09198,-0.0767c-0.00238,0.02223 -0.00519,0.04435 -0.00839,0.06633z" fill="#000000"></path>
      <path d="M227.84994,176.42485c0,0 -1.41491,0.56597 -2.13217,-0.67873c-0.03891,0.00258 -0.07817,0.0039 -0.11774,0.0039c-0.90512,0 -1.64975,-0.68715 -1.74068,-1.56824c-1.083,-0.41909 -2.18979,-0.87846 -3.3487,-1.37325c0,0 -1.60851,-0.68935 -0.91915,-2.29786c0.68935,-1.60851 2.29786,-0.91915 2.29786,-0.91915c2.55504,1.09885 4.78563,2.00474 7.09489,2.66371c0.71913,-0.25778 1.44181,-0.50576 2.16661,-0.74658l1.38321,-0.2789c1.44663,-0.46415 2.8847,-0.95538 4.31271,-1.47318l1.69575,-0.2875c0,0 0.9761,-0.14519 1.57135,0.51548c0.61786,-0.16548 1.2382,-0.32635 1.86169,-0.48227l1.07106,-0.36244c0,0 1.6602,-0.55339 2.21359,1.10681c0.55339,1.6602 -1.10681,2.21359 -1.10681,2.21359l-1.32896,0.43754c-1.56339,0.39072 -3.10596,0.81357 -4.63903,1.26289c0.40346,0.28223 1.16888,1.0108 0.58839,2.20462c-0.76525,1.57381 -2.33907,0.80856 -2.33907,0.80856l-0.17369,-0.2454c-2.61327,-0.11416 -4.89729,-0.46691 -7.08672,-1.0178c-0.44323,0.16692 -0.88479,0.33818 -1.3244,0.51421z" fill="#000000"></path>
    </g>
  </g>
</svg>
