<?xml version="1.0" encoding="UTF-8"?>
<svg xmlns="http://www.w3.org/2000/svg" xmlns:xlink="http://www.w3.org/1999/xlink" version="1.1" width="321.19994" height="336.77921" viewBox="0,0,321.19994,336.77921">
  <g transform="translate(-79.40003,-11.61041)">
    <g stroke="none" stroke-miterlimit="10">
      <path d="M88.31564,328.6104c0,0 16,-20.5985 16,-32.10001c0,-24.14805 -6.06414,4.50221 -10.04872,-44.1924c-0.59522,-7.27412 3.74438,-65.15844 3.01263,-73.75344c-0.23731,-2.78745 -17.45194,-68.53772 -17.64152,-71.24481c-1.94572,-27.78276 8.67761,-71.70934 8.67761,-71.70934c0,0 -12.60264,-21.46011 8.4239,-20.44654c5.86827,0.28288 21.73281,18.2132 32.25081,17.57214c19.88693,-1.21209 85.77117,-14.42446 107.91596,-15.43106c14.92427,-0.67839 40.54072,1.62046 54.14997,0.91386c29.89262,-1.55204 65.36001,-6.60839 73.85938,-6.60839c6.34357,0 25.39999,15 25.39999,15c0,0 -4.30426,16.55744 -1.677,49.84293c2.20947,27.99243 11.3705,71.03601 11.83896,94.14703c0.97157,47.9307 -4.16196,152.01005 -4.16196,152.01005c0,0 6.8751,16.10871 -32.52064,19.49727c-5.19656,0.44698 -28.0068,-7.08378 -34.50223,-6.59417c-5.41818,0.40841 -27.16192,3.80264 -33.24331,4.17608c-4.59181,0.28197 -30.28214,8.51628 -35.06363,8.69531c-8.42783,0.31554 -43.80911,-15.34526 -52.03061,-14.98105c-9.93324,0.44004 -39.34412,6.82986 -47.9634,7.15102c-2.72426,0.1015 -17.35563,-9.79234 -19.88468,-9.68134c-10.6975,0.46953 -30.35234,15.73688 -36.1915,15.73688c-17.79261,0 -16.6,-18 -16.6,-18z" fill="#d6d6d6" stroke-width="0"></path>
      <path d="M114.91564,303.51039l-11,-15c0,0 12.57555,13.59144 33.19615,18.10359c30.25914,6.62123 74.38191,5.22504 93.09351,7.37227c14.12883,1.62134 55.71035,9.52414 55.71035,9.52414l65,-5c0,0 -60.0161,13.57931 -88.76511,11.92299c-10.7767,-0.62088 -41.27907,-11.44 -57.09454,-13.84571c-8.9022,-1.35412 -54.71337,6.39113 -63.18379,5.2433c-39.11052,-5.29991 -26.95656,-18.32058 -26.95656,-18.32058z" fill="#9e9e9e" stroke-width="0"></path>
      <path d="M121.8722,32.25288c8.47042,-1.14784 54.2816,6.59742 63.18379,5.2433c15.81547,-2.4057 46.31783,-13.22483 57.09454,-13.84571c28.74901,-1.65632 88.76511,11.923 88.76511,11.923l-65,-5c0,0 -41.58152,7.9028 -55.71035,9.52414c-18.71159,2.14723 -62.83437,0.75104 -93.0935,7.37226c-20.6206,4.51215 -33.19615,18.10359 -33.19615,18.10359l11,-15c0,0 -12.15397,-13.02067 26.95656,-18.32058z" fill="#9e9e9e" stroke-width="0"></path>
      <path d="M245.9445,46.37597c-0.10635,0.04814 -0.22104,0.08982 -0.34473,0.12375c-0.46627,1.7003 -2.39972,1.7003 -2.39972,1.7003l-1.10975,-0.04854c-9.74173,1.91983 -19.22756,0.75708 -29.04392,1.63636c-3.27722,0.29355 -6.26154,1.92507 -9.44586,2.37991c-3.4393,0.49126 -7.05694,-0.41689 -10.49504,0.01355c-4.04228,0.50608 -7.91105,2.59978 -11.905,3.18643c-4.02078,0.59059 -8.14438,1.04644 -12.22323,1.626c-8.24666,-0.04026 -16.48879,2.15414 -24.57674,3.17402c-5.78799,0.72986 -11.8075,-0.60535 -17.60005,0c-4.01549,0.41964 -8.02729,2.69396 -12.095,3.21354c-3.05421,0.39012 -5.33409,0.49437 -8.31489,1.49045c0,0 -0.79756,0.26585 -1.62184,0.02671c0.08513,0.25163 0.13128,0.52121 0.13128,0.80159v5c0.00743,0.04411 -0.00657,9.78782 -0.00208,9.89821c0.22134,5.43165 0.93004,10.81305 1.76948,16.1747c0.51772,0.0293 1.08532,0.23911 1.58315,0.83115c2.2466,0.0637 4.46646,1.0503 6.70315,0.80809c3.72836,-0.40373 7.43958,-1.22857 11.14083,-1.59344c3.72033,-0.36675 8.84529,-0.47898 12.61093,0c0.96096,0.12224 1.8299,0.78524 2.79861,0.78313c0.81122,-0.00176 1.4892,-0.79403 2.30042,-0.7942c1.67274,-0.00035 3.28249,0.79182 4.95523,0.79268c3.25723,0.00168 6.85902,-1.12686 10.03988,-1.56805c3.23944,-0.44931 5.65678,0.24772 8.79999,-0.79999c13.35804,-0.09799 26.1725,-0.98239 39.35411,-2.42014c4.22965,-0.46134 8.7885,-0.01217 13.04634,-0.01217c7.09799,0 14.19667,-0.0272 21.29452,0.01873c1.06667,-0.26667 2.10291,-0.72742 3.20001,-0.79999c0.69626,-0.04605 1.38859,0.69345 2.04369,0.45316c0.36541,-0.13403 -0.18158,-0.77989 -0.10995,-1.16245c0.29793,-1.59105 0.68041,-3.19076 0.6717,-4.80944c-0.02427,-4.51019 -0.58782,-9.52967 0.03228,-14.00046c0.40829,-2.94362 0.76771,-5.30616 0.76771,-8.39954c0,-4.13784 0.82173,-7.97102 0.80005,-12c-0.00574,-1.06665 -0.02015,-2.13353 0,-3.20001c0.01561,-0.8258 0.08465,-1.64988 0.10727,-2.47551c0.00694,-0.25325 0.23322,-0.78731 -0.01863,-0.7598c-0.61087,0.06672 -0.97412,0.93443 -1.58863,0.93533c-0.42919,0.00063 -0.84515,-0.09215 -1.25556,-0.22405zM245.5906,40.9283c0.53648,0.22391 1.02811,0.67088 1.60944,0.67172c1.09312,0.00159 2.24465,-1.17512 3.21129,-0.66471c1.51583,0.8004 2.52722,2.45584 3.18144,4.04024c0.49945,1.20958 0.08757,2.61596 0.10727,3.92445c0.04959,3.2935 -0.36763,6.05332 -0.83234,9.20049c-0.6153,4.16696 0.58076,8.6129 0.00001,12.79997c-0.11586,0.83527 -0.67682,1.56577 -0.79999,2.39999c-0.45836,3.10436 0.03228,6.87672 0.03228,9.99954c0,3.33564 0.35267,6.43106 -0.92828,9.59058c-0.50339,1.24164 -0.59909,2.88846 -1.70992,3.63754c-1.21045,0.81625 -2.91607,0.21431 -4.35634,0.45316c-1.08469,0.17988 -2.13334,0.53332 -3.20001,0.79999c-7.30163,0.03902 -14.6037,0.01873 -21.90543,0.01873c-4.08525,0 -8.49841,-0.47163 -12.55364,-0.01217c-13.03073,1.47639 -25.82737,2.49845 -39.04592,2.37991c-3.07056,1.02349 -5.70902,0.34361 -8.79998,0.79999c-3.40351,0.50253 -7.27047,1.63019 -10.76016,1.63196c-1.57146,0.0008 -3.07328,-0.80701 -4.64474,-0.80735c-0.87544,-0.00019 -1.6242,0.80742 -2.49964,0.80583c-1.23096,-0.00223 -2.37964,-0.66678 -3.60142,-0.81691c-3.41755,-0.41993 -8.00368,-0.34374 -11.38906,0c-3.73509,0.37926 -7.49272,1.25713 -11.25908,1.60657c-3.24929,0.30146 -6.18506,-1.24992 -9.05583,-0.11612c0,0 -2.37172,0.79055 -3.16227,-1.58116c-0.09802,-0.29407 -0.14742,-0.56382 -0.15876,-0.81078l-0.82116,-0.09162c-1.08495,-6.62372 -2.07253,-13.26806 -2.34631,-19.98634c-0.13711,-3.36447 -0.90619,-6.85818 -0.00207,-10.10179v-0.71113c-1.23022,-1.00387 -0.6717,-2.67944 -0.6717,-2.67944l0.78176,-2.3453c0.31417,-1.02157 1.26534,-1.76413 2.38994,-1.76413c0.2976,0 0.58305,0.052 0.84776,0.14741c-0.00659,-0.01875 -0.01309,-0.03771 -0.01947,-0.05687c-0.79055,-2.37172 1.58116,-3.16227 1.58116,-3.16227c3.23814,-1.07683 5.97431,-1.30565 9.28508,-1.70956c4.0206,-0.4905 7.9244,-2.74424 11.905,-3.18643c5.78364,-0.64249 11.84512,0.76183 17.60002,0c8.2414,-1.09099 16.61916,-3.18859 25.02324,-3.22601c3.94285,-0.56665 7.88813,-1.03669 11.77677,-1.57402c4.04269,-0.55862 7.99085,-2.70119 12.09499,-3.21353c3.37678,-0.42153 6.94812,0.49323 10.30501,0.01355c3.27428,-0.46787 6.3678,-2.10829 9.7541,-2.42014c9.65017,-0.88871 18.99455,0.38026 28.55605,-1.56359l2.09032,-0.04855c0,0 0.01148,0 0.03289,0.00078z" fill="#696969" stroke-width="0.5"></path>
      <path d="M146.37174,84.10943c0.79058,2.37171 -1.58113,3.16228 -1.58113,3.16228l-2.79014,0.89603c-2.37532,0.00824 -6.63888,0.42934 -8.56818,-1.49997c-1.15536,-1.15537 -1.2364,-3.05202 -1.51355,-4.66228c-0.10529,-0.61173 -0.15554,-1.2169 -0.15669,-1.8143c-1.38086,1.87984 -3.04417,3.56147 -4.39425,4.87656c-0.98374,0.95825 -1.71746,2.31536 -2.98808,2.83644c-1.91299,0.78452 -4.15584,1.49926 -6.13635,0.90551c-3.77491,-1.1317 -4.4917,-8.95043 -3.87645,-11.68406c0.76387,-3.39404 2.43989,-4.52977 4.66537,-6.79341c0,0 0.96863,-0.96862 2.18887,-0.75485l0.59214,-1.95748c3.48703,-2.29024 7.78548,-4.92214 11.37354,-0.23739c1.02784,1.34199 1.19277,3.17936 1.27486,4.91219c0.62312,-0.92755 1.31927,-1.80776 2.04969,-2.63271c1.68116,-1.89875 5.08804,-6.09837 8.60671,-4.59807c1.33675,0.56996 1.36911,2.56369 2.05367,3.84554c0,0 0.79055,2.37172 -1.58116,3.16227c-1.92773,0.64256 -2.81088,-0.80402 -3.07397,-1.36813c-0.70254,0.77864 -1.54232,1.43821 -2.22797,2.23439c-1.62401,1.88581 -2.86436,3.54803 -3.43375,6.03479c-0.30956,1.35201 -0.86783,3.17869 0.11292,4.15944c0.99771,0.99771 2.82079,0.09241 4.23174,0.10007l2.00991,-0.704c0,0 2.3717,-0.79058 3.16228,1.58113zM123.20005,73.8c-0.19233,0 -0.36987,-0.0148 -0.53374,-0.04211c-0.06,0.07138 -0.09853,0.10991 -0.09853,0.10991c-1.36084,1.33179 -2.89795,2.39782 -3.33463,4.4066c-0.38586,1.77499 -0.21459,7.39234 2.78724,5.22145c2.11685,-1.53088 4.88359,-4.71433 6.16517,-6.9561c0.80338,-1.4053 2.84118,-6.6547 -0.36274,-6.74603c-1.26517,-0.03606 -2.18902,1.27524 -3.23601,1.98642l1.11324,-0.48014c0,0 0,2.5 -2.5,2.5z" fill="#696969" stroke-width="0.5"></path>
      <path d="M159.99066,87.2717c-2.37169,0.79062 -3.16231,-1.58107 -3.16231,-1.58107l-0.92137,-3.00383c0.53454,-3.33235 0.48383,-6.73327 0.81179,-10.09225c0.13199,-1.35187 0.43835,-2.69034 0.62589,-4.03601c-1.25892,0.33998 -2.51328,0.69853 -3.75409,1.11317c0,0 -2.37172,0.79055 -3.16227,-1.58116c-0.79055,-2.37171 1.58116,-3.16227 1.58116,-3.16227c3.69515,-1.22881 7.50762,-1.96611 11.20002,-3.19998l3.3583,1.40393c0,0 1.76776,1.76777 0,3.53554c-1.31519,1.3152 -2.63039,0.67342 -3.2176,0.25861c-0.2852,0.08568 -0.57091,0.16923 -0.85702,0.25109c-0.0743,4.99192 -0.67088,10.24555 -1.60016,15.13576l0.67873,1.79617c0,0 0.79062,2.37169 -1.58108,3.16231z" fill="#696969" stroke-width="0.5"></path>
      <path d="M174.882,66.66394c0.80981,-0.33398 1.72249,-0.48466 2.42941,-1.00194c0.81718,-0.59798 0.63496,-2.19024 0.07932,-3.03677c-0.34984,-0.53299 -3.46967,0.54106 -3.93389,0.98483c1.25292,0.79961 1.01807,2.44353 1.01807,2.44353c-0.04192,0.29162 -0.08375,0.58384 -0.12537,0.87659zM168.70005,65.70002c0.0986,-1.45988 -0.39899,-3.09192 0.29581,-4.37965c1.80832,-3.35153 9.21303,-5.31248 12.01351,-2.14559c1.33931,1.51455 1.46942,3.85883 1.48584,5.88056c0.01119,1.37647 -0.49466,2.85148 -1.40652,3.88266c-1.00214,1.13327 -2.64708,1.46538 -3.97062,2.19807l-1.60003,0.80002c0,0 -0.91078,0.45539 -1.86043,0.20363c-0.44633,3.72134 -0.76588,7.477 -0.75761,11.16027l-2.5,-0.79999l-2.5,0.79999c0.00107,-0.53013 0.00819,-1.06131 0.02084,-1.59331l-0.02084,-0.00667c0,0 0,-0.12984 0.02959,-0.33035c0.13137,-4.67013 0.68148,-9.40016 1.31816,-14.03943c-0.54771,-0.72167 -0.54771,-1.63022 -0.54771,-1.63022z" fill="#696969" stroke-width="0.5"></path>
      <path d="M190.31918,73.64404c-0.39643,1.8864 -0.48781,3.78192 0.02557,5.58862c0.18428,0.64852 0.08507,1.47192 0.5696,1.94071c0.44673,0.43223 2.37383,-1.07497 2.41151,-1.12786c2.36658,-3.32289 2.90426,-7.87762 3.30638,-11.77774c0.02464,-0.23905 -0.3152,0.36288 -0.47548,0.54194c-0.79454,0.88762 -1.59263,1.77205 -2.38895,2.65808l-0.33168,0.95024c0,0 -1.03898,2.07796 -3.11694,1.22601zM192.84605,65.02419c0.41388,-0.36627 0.86832,-0.66351 1.39729,-0.83388c7.56358,-2.43607 6.32065,2.10201 6.65666,7.10969c0.30814,4.59244 -2.02163,13.13044 -7.37553,14.39273c-5.26779,1.242 -6.02289,-0.33495 -7.86915,-4.72536c-2.15123,-5.11562 0.51628,-11.39563 2.42348,-16.19581c0,0 0.92847,-2.3212 3.24966,-1.39274c0.9822,0.39287 1.38255,1.03512 1.51759,1.64536z" fill="#696969" stroke-width="0.5"></path>
      <path d="M208.31987,83.08677c-0.15025,-0.22537 -0.2598,-0.44261 -0.33571,-0.65082c-0.20669,0.73749 -0.78212,1.76408 -2.38415,1.76408c-2.5,0 -2.5,-2.5 -2.5,-2.5v-0.80002c0.00101,-5.89607 0.76014,-11.17715 2.30127,-16.65133c-1.54093,-1.46236 -0.20124,-3.24865 -0.20124,-3.24865c1.02235,-1.27168 1.61264,-3.07538 3.06704,-3.81504c5.69805,-2.89784 8.45046,-1.0343 10.20573,4.94705c0.12363,0.42128 -1.30544,6.68348 -2.02213,7.39792c-0.88852,0.88573 -2.37941,0.84068 -3.4651,1.46937c-0.47738,0.27644 1.07729,-0.54617 1.60744,-0.39365c1.30228,0.37465 3.10757,0.62829 3.59853,1.89132c1.48851,3.82927 -1.80424,6.91244 -3.6735,9.41916l-2.73131,1.864c0,0 -2.08013,1.38674 -3.46688,-0.69339zM209.01325,79.61989l2.06874,-1.33601c0.62024,-0.81943 1.21556,-1.65833 1.86071,-2.4583c0.26475,-0.32828 1.06383,-0.55018 0.86581,-0.92253c-0.1935,-0.36386 -0.84743,0.50214 -1.20151,0.29129c-1.21159,-0.72147 -3.00395,-1.3137 -3.95482,-2.31068c-0.35978,2.50965 -0.54197,5.06678 -0.55176,7.77389c0.34448,-0.65877 0.91283,-1.03767 0.91283,-1.03767zM212.34932,66.67007c0.79174,-1.06467 1.24432,-2.47696 1.17794,-3.80209c-0.13664,-2.7277 -1.19381,-2.46925 -2.23881,-1.50268c0.05137,0.62101 -0.11673,1.12529 -0.11673,1.12529c-0.76181,2.2797 -1.37865,4.48563 -1.85415,6.68901c0.99325,-0.8223 2.30613,-1.53378 3.03174,-2.50952z" fill="#696969" stroke-width="0.5"></path>
      <path d="M395.83607,230.98197c1.11803,2.23607 -1.11803,3.3541 -1.11803,3.3541l-0.63789,-0.04932c-2.79692,4.16022 -5.4653,5.90085 -9.78174,8.05904c-2.60122,1.30059 -4.87463,2.98278 -7.89792,3.42194c-0.28807,0.04184 -6.29208,0.03228 -6.80048,0.03228c-0.78312,0 -7.31615,0.00464 -7.50547,-0.01873c-2.25587,-0.27849 -4.21669,-1.69963 -6.3059,-2.59501c-1.0106,-0.43311 -2.19219,-0.36043 -3.20001,-0.79998c-0.24643,-0.10748 -4.76188,-3.13042 -5.17535,-3.40617c-1.68089,-1.12099 -4.74847,-3.09388 -6.02936,-4.36209c-2.28457,-2.26194 -2.05371,-3.64122 -5.68934,-4.03676c-1.95068,-0.21223 -6.28215,-0.60938 -8.06283,0.49421c-0.91323,0.56598 -1.37195,1.69759 -2.25263,2.30775c-0.06026,5.37297 -0.66293,10.86919 -1.29785,15.82224c-0.40044,3.1238 0.35994,6.40534 0.00657,9.54093c-0.25972,2.3046 -1.15902,4.49216 -1.66153,6.75625c-0.54976,2.47692 -1.52874,4.91965 -1.52702,7.45685c0.00101,1.49644 1.08406,2.96627 0.75323,4.42568c-0.35357,1.55973 -1.77428,2.6614 -2.66142,3.9921c-9.27373,2.22498 -18.86037,4.0486 -28.19065,5.19048c-1.79219,0.21934 -3.63784,0.09807 -5.48189,-0.02157c-0.16729,0.03528 -0.34074,0.05385 -0.51853,0.05385c-0.28469,0 -0.55827,-0.04759 -0.81322,-0.13524c-1.48133,-0.07968 -2.953,-0.10489 -4.38631,0.10296c-0.93329,0.13533 -1.76148,0.8284 -2.70453,0.83042c-1.23096,0.00264 -2.37963,-0.66676 -3.6014,-0.81687c-4.29836,-0.52813 -8.76394,0.21358 -12.89407,0.78644c-3.87117,0.53694 -7.42415,-0.15416 -11.29502,0.81354c-7.42255,0.03966 -14.28005,1.60154 -21.59997,2.40003c-4.6827,0.51081 -9.65658,-0.69988 -14.30504,-0.01355c-0.83424,0.12318 -1.56222,0.70407 -2.40002,0.79999c-2.6311,0.30122 -5.2707,-0.52293 -7.90586,-0.78644c-4.70067,-0.47006 -9.34571,-0.78125 -14.09457,-0.78125c0,0 -2.28008,0 -2.48527,-2.17748l-2.86837,0.56528c-3.27584,0.01157 -7.00464,-0.4253 -10.24589,-0.02012c-0.96634,0.1208 -1.82665,0.83234 -2.80051,0.83234c-1.78581,0 -3.52562,-1.06418 -5.29449,-0.81878c-1.18857,0.1649 -2.30554,0.81878 -3.50549,0.81878c-0.39145,0 -0.77934,-0.01833 -1.16488,-0.04972c-0.84374,0.11757 -1.66769,0.0911 -2.42582,-0.25207l0.00002,-0.00005c-0.06456,-0.02922 -0.12336,-0.06326 -0.17694,-0.10166c-1.67222,-0.27846 -3.35065,-0.57743 -5.13535,-0.45001l-2.73397,1.36701c-0.34742,0.18291 -0.74313,0.28644 -1.16303,0.28644c-0.61477,0 -1.17771,-0.2219 -1.6131,-0.58999c-2.10033,0.38297 -4.15944,0.56195 -4.99621,-0.1848c-1.37645,-1.22839 0.12264,-3.6877 0.18395,-5.53155c1.3216,-5.2865 2.57399,-10.43008 3.53481,-15.65213c-0.72483,-0.43773 -1.20943,-1.23306 -1.20943,-2.14157c0,-0.69036 0.27982,-1.31536 0.73223,-1.76776l1.33023,-1.33023c0.13042,-0.93072 0.24956,-1.86613 0.35623,-2.80743c0.42076,-3.71317 -0.46598,-7.58053 0.01355,-11.29502c0.08221,-0.6368 0.23892,-1.28081 0.43815,-1.92714c-0.29059,0.19127 -0.58128,0.38239 -0.87206,0.57337c-4.07277,1.39266 -8.2808,3.27513 -12.69883,2.62195c-2.00854,-0.29695 -3.68644,-1.70492 -5.49792,-2.62196c-1.50471,-0.76174 -3.29077,-0.84719 -4.79998,-1.59997c-3.31466,-1.65333 -6.59406,-6.11098 -10.02609,-7.05307c-0.79648,-0.21863 -1.64966,0.09426 -2.4755,0.10727c-3.70734,0.05839 -10.89971,-0.65882 -12.02832,3.89055c0,0 -0.79057,2.37171 -3.16228,1.58114c-2.37171,-0.79057 -1.58114,-3.16228 -1.58114,-3.16228c0.39497,-1.04229 0.47816,-2.26498 1.18492,-3.12687c3.47751,-4.24081 10.74119,-4.24139 15.58681,-4.18253c1.30852,0.01589 2.66834,-0.25991 3.9244,0.10727c3.98609,1.16524 7.05384,5.48114 10.77395,7.34696c1.50756,0.75611 3.28821,0.85236 4.8,1.59998c1.89627,0.93775 2.1142,1.91067 4.10206,2.17809c3.30931,0.4452 6.62779,-1.18788 9.70119,-2.1781c1.49921,-1.01832 3.00362,-2.02898 4.51157,-3.03432l0.96054,-0.13504c0.57785,-2.65331 0.95248,-5.66891 2.31635,-7.89275c0.59578,-0.97144 1.33071,-1.84581 2.07312,-2.71495c-0.34692,-1.10844 0.35666,-2.16385 0.35666,-2.16385c1.99238,-2.97722 3.02772,-7.4669 7.19493,-8.26575c2.6897,-0.51561 5.45937,1.08727 8.17973,0.77118c2.1843,-0.2538 4.21875,-1.32137 6.40002,-1.59998c3.49557,-0.44648 6.97843,-0.49635 10.49928,-0.81023c5.07394,-0.45233 10.08194,-1.77698 15.10068,-2.38978c4.75206,-0.58024 9.91431,-0.01873 14.70549,-0.01873c5.30107,0.01718 10.48163,-1.06739 15.69454,-1.58127c3.60554,-0.35543 7.51739,0.52606 11.10502,0.01355c0.96403,-0.13772 1.82661,-0.82667 2.80041,-0.83227c0.87385,-0.00502 1.62211,0.79874 2.49597,0.80183c0.9687,0.00342 1.83665,-0.66912 2.79863,-0.7831c2.31729,-0.27455 4.63668,0.52236 6.95535,0.79359c0.02531,0.00251 0.05051,0.0054 0.0756,0.00867c7.2862,0.82258 15.41029,0.0718 22.56903,-0.80226c3.63513,-0.44384 6.77779,0.10556 10.40002,-0.79998c6.53531,-0.00883 13.45008,-0.68972 19.90498,-1.58646c0.96456,-0.134 1.82659,-0.8323 2.80043,-0.8323c1.88563,0 3.71453,0.82175 5.60004,0.80002h1.59998c0,0 2.29044,0 2.48663,2.19234l3.08509,1.09822c-0.53823,1.61472 -1.00473,3.23244 -1.47206,4.85276c-0.00781,0.45972 -0.13971,0.88923 -0.36365,1.25645c-0.17468,0.5994 -0.35204,1.19914 -0.53573,1.79921c-0.17949,0.58632 -0.71146,1.08796 -0.70029,1.70104c0.01301,0.71383 0.66674,1.29275 0.76771,1.99952c0.10546,0.7382 0.19294,1.48723 0.26407,2.24496c0.01208,-0.00677 0.02424,-0.01345 0.03646,-0.02002c2.87871,-1.54835 7.95834,-1.54056 11.13725,-1.10576c5.77251,0.78954 7.26748,4.63548 11.53844,7.64043c2.01451,1.41737 4.49998,3.60244 6.76746,4.55455c1.01376,0.42567 2.18942,0.36688 3.20002,0.79999c1.64461,0.70484 3.11274,2.03629 4.89405,2.20504c2.28795,0.21675 4.59636,-0.01873 6.89455,-0.01873c1.99989,0 4.01891,0.30891 5.99957,0.03228c2.50372,-0.34968 4.35527,-1.90469 6.5021,-2.97809c3.5693,-1.78463 5.50261,-2.83265 7.81824,-6.34098l2.56206,-1.64929c0,0 2.23607,-1.11803 3.3541,1.11803zM302.76967,229.63965l-2.96194,3.78165c-1.21332,1.2155 -2.42665,2.431 -3.63998,3.6465c0,0 -1.76778,1.76776 -3.53554,-0.00002c-1.76776,-1.76778 0.00003,-3.53554 0.00003,-3.53554c1.14371,-1.1415 2.28742,-2.28302 3.43113,-3.42452l2.65958,-3.40964c-0.47752,-0.03074 -0.95393,-0.07003 -1.4284,-0.1168c-1.93863,-0.1911 -3.85937,-1.06665 -5.78906,-0.79998c-5.33339,0.73702 -10.61376,1.73884 -15.90499,2.38641c-0.49284,0.06032 -0.98799,0.09848 -1.48486,0.12015c0.46845,0.77755 0.36964,1.68328 0.36964,1.68328l-1.01916,2.55759c-1.30145,1.04115 -2.60291,2.0823 -3.90436,3.12345c0,0 -1.95218,1.56172 -3.51391,-0.39046c-1.56173,-1.95218 0.39046,-3.5139 0.39046,-3.5139c1.03474,-0.82778 2.06948,-1.65556 3.10422,-2.48334c0.04616,-0.22561 0.16129,-0.64957 0.42561,-1.05537c-1.918,-0.1003 -3.83654,-0.21284 -5.72175,-0.02128c-7.72201,0.78466 -15.47943,1.1968 -23.21888,2.19152c-0.41681,0.20747 -0.97646,0.36617 -1.59127,0.21308c-0.17766,0.02478 -0.35531,0.04989 -0.53294,0.07537c-4.26568,0.6064 -8.40757,1.92289 -12.74965,1.52004c-1.51035,-0.14013 -3.05358,-0.30366 -4.61555,-0.46178l-0.37508,0.18753c-0.34741,0.1829 -0.74311,0.28642 -1.163,0.28642c-0.72102,0 -1.37076,-0.30523 -1.82703,-0.79353c-4.11908,-0.35358 -8.29669,-0.53108 -12.28262,-0.02338c-6.59888,0.84052 -12.75133,2.41261 -19.49039,2.41695c-0.66595,0.00043 -1.3319,0.00071 -1.99785,0.00089c0.02622,0.03627 0.05222,0.07372 0.07798,0.11236c1.38675,2.08013 -0.69338,3.46687 -0.69338,3.46687l-2.01896,1.28762c-1.20488,1.70544 -3.02456,3.064 -4.97719,3.80395c0,0 -2.37171,0.79057 -3.16228,-1.58114c-0.79057,-2.37171 1.58114,-3.16228 1.58114,-3.16228c1.28912,-0.31981 2.32386,-1.46667 3.02281,-2.59608l1.93599,-1.33127c-1.92275,-0.00033 -3.84551,-0.00093 -5.76827,-0.00093c-3.21108,0 -6.07019,-0.77151 -8.70275,0.96296c-0.07633,4.83811 -1.50188,8.69535 -2.66076,13.3154l2.65197,-1.9698c0.4198,-0.31914 0.94357,-0.50857 1.51159,-0.50857c1.38071,0 2.5,1.11929 2.5,2.5c0,0.34826 -0.07121,0.6799 -0.19987,0.98113l-1.34854,3.37128c0.03605,-0.0187 0.05759,-0.02979 0.06162,-0.03251c1.53423,-1.03812 5.72702,-4.08045 7.36639,-3.32408c1.23484,0.56973 -0.88856,3.18179 0.13468,4.07756c0.74738,0.65427 1.16896,-1.62827 1.91816,-2.28045c1.52499,-1.32751 6.2301,-3.74896 7.80922,-3.60921c1.00394,0.08885 0.97628,1.83004 1.76967,2.45159c0.22021,0.17252 0.27069,-0.5078 0.49028,-0.6811c0.75475,-0.59567 1.54004,-1.17004 2.40002,-1.60003c0.75424,-0.37713 1.60798,-0.51045 2.39998,-0.79999c1.47513,-0.5393 2.93139,-2.24304 4.3999,-1.68598c1.41157,0.53546 1.27091,2.73932 1.94201,4.09168c0.09589,0.19323 0.16926,0.64725 0.35648,0.54011c2.1877,-1.25201 3.88602,-3.2132 5.88652,-4.74669c1.6472,0.59497 3.81639,0.44284 4.94159,1.78491c0.74528,0.88894 -1.29414,2.53039 -0.56632,3.43368c0.543,0.67391 1.34498,-1.09193 1.97555,-1.68471c1.43598,-1.34991 4.44705,-5.2763 6.90417,-4.27465c1.8704,0.76247 2.12288,3.44017 3.07107,5.22361c0.20747,0.39023 -0.05876,1.22843 0.38125,1.26987c2.80053,0.26372 7.48771,-3.06216 9.70095,-3.84313c1.49115,-0.52617 3.21553,-1.66499 4.64124,-0.98105c1.66476,0.79861 2.23022,2.97657 3.0087,4.65083c0.3247,0.69833 -0.12743,1.61384 0.22304,2.2996c0.37103,0.72601 1.59426,-0.47748 2.24729,-0.96564c1.70605,-1.27531 3.08019,-4.05875 5.18537,-3.73432c3.1146,0.47999 4.01451,3.25472 3.5601,5.56019c0.63326,-0.52802 1.33399,-0.97718 2.0792,-1.30691c1.36371,-0.60341 2.91442,-0.63352 4.37163,-0.95029c0.58179,0.81834 0.81385,2.08028 1.74536,2.45502c0.73913,0.29735 1.50583,-0.5271 2.23193,-0.85498c1.9866,-0.89707 3.59698,-2.60889 5.68694,-3.22807c0.94885,-0.28111 2.03735,0.42039 2.96769,0.08303c2.14763,-0.77876 2.44252,-4.70297 4.71035,-4.97812c1.38775,-0.16837 2.04915,2.03967 3.37083,2.49507c2.51391,0.86619 5.89113,-5.37197 7.82916,-5.69508c1.7409,-0.29023 3.02699,2.92684 4.71455,2.40998c0.91933,-0.28157 1.43851,-1.59717 2.39999,-1.60004c1.61052,-0.00481 3.38045,0.48936 4.56617,1.57924c0.64479,0.59268 -0.81727,2.34087 0.01034,2.62736c0.92727,0.321 1.33017,-1.78608 2.31071,-1.82387c1.04266,-0.04019 1.66287,1.36382 2.67129,1.63183c0.52332,0.13908 1.02773,-0.34144 1.54159,-0.51217l1.864,-1.99229c0,0 1.76777,-1.76776 3.53553,0c1.76776,1.76776 0,3.53553 0,3.53553l-2.93605,2.80776c-1.61948,0.3626 -3.20277,1.20163 -4.85844,1.08781c-0.87921,-0.06044 -1.24776,-1.54092 -2.12863,-1.56813c-1.43752,-0.0444 -2.76426,1.93527 -4.08931,1.37608c-1.25726,-0.53057 -0.99841,-2.54275 -1.58963,-3.77266c-0.44352,-0.92264 -1.61446,1.48638 -2.63394,1.57931c-1.31681,0.12003 -2.64242,-0.45108 -3.83017,-1.03215c-0.51493,-0.25191 -0.48979,-1.45209 -1.05526,-1.35793c-0.62336,0.1038 -0.46758,1.19992 -0.87857,1.67996c-2.42905,2.83713 -4.5489,4.60456 -8.89224,3.82492c-0.88979,-0.15972 -0.65466,-1.83872 -1.42921,-2.30487c-0.42829,-0.25776 0.37689,1.08985 0.08702,1.49711c-0.88927,1.24939 -1.98938,2.47117 -3.37668,3.12475c-1.03527,0.48773 -2.32848,-0.21936 -3.43221,0.08303c-0.74507,0.20413 -1.20005,0.98426 -1.86966,1.36952c-2.64908,1.52414 -6.2086,3.25699 -9.41155,2.54744c-0.89807,-0.19895 -0.96973,-1.56336 -1.45459,-2.34503c-1.14731,1.74021 -6.21816,5.62767 -8.65044,3.66342c-1.43656,-1.16013 -0.82467,-3.61303 -0.97134,-5.4537c-0.03644,-0.45735 0.66145,-1.70431 0.43264,-1.30663c-2.12332,3.6904 -5.22941,7.38078 -10.16731,3.30004c-1.1114,-0.91848 -1.0036,-2.70778 -1.37694,-4.10042c-0.15188,-0.56653 0.26726,-1.38341 -0.19125,-1.7492c-0.32544,-0.25963 -0.45775,0.73225 -0.81453,0.94679c-1.43469,0.86274 -2.95831,1.57537 -4.49278,2.24475c-2.27953,0.9944 -7.35003,2.14351 -9.15054,1.58424c-3.51859,-1.09294 -2.6684,-3.88603 -2.93624,-6.21249c0.02657,0.28657 0.05507,0.8604 -0.09243,1.05801c-0.75295,1.0087 -1.559,2.14432 -2.72798,2.6111c-2.3698,0.94628 -5.12786,2.38893 -7.51129,1.47753c-0.85015,-0.32509 -1.15218,-2.38111 -1.04612,-3.61742c-3.01298,3.56412 -6.89617,6.08023 -10.73565,1.42947c-0.17924,-0.21712 -0.17649,-0.47784 -0.10269,-0.75895c-0.65031,0.49684 -1.61818,0.39596 -2.35537,0.76456c-0.85998,0.43 -1.49988,1.26211 -2.40004,1.60004c-1.37517,0.51625 -2.88443,1.27386 -4.30976,0.91887c-0.88941,-0.22151 -0.5683,-2.03687 -1.43028,-2.34845c-0.59267,-0.21423 -0.81952,0.97009 -1.31868,1.35479c-2.2464,1.73132 -7.45265,4.53359 -9.754,3.95562c-0.76815,-0.19292 -1.35568,-0.40763 -1.79333,-0.63441c-2.81414,1.82029 -7.27066,3.30731 -9.12662,1.80638c-0.23073,-0.1866 -0.11495,-2.85146 0.2755,-4.95962c-0.27303,0.09277 -0.54605,0.18555 -0.81909,0.27832c-1.36988,5.67123 -2.72608,11.35625 -3.94215,17.06446c0.01324,0.10422 0.02006,0.21044 0.02006,0.31824c0,0.42504 -0.10607,0.8253 -0.29318,1.17576c0.45137,0.71997 0.39611,1.40913 0.20411,1.94418c6.34271,0.07847 12.79644,0.38732 19.1909,0.91013c0.25064,-0.08438 0.51905,-0.13011 0.79813,-0.13011c0.4298,0 0.83426,0.10846 1.18752,0.2995c4.01596,0.35687 8.00145,0.79784 11.91403,1.3188c3.89764,0.51897 7.64204,-1.26707 11.45208,-1.60613c1.74191,-0.15501 3.49757,-0.01001 5.24636,-0.01217c1.24743,-0.00154 2.54596,0.0448 3.8742,0.107c0.22971,-0.06959 0.47341,-0.107 0.72584,-0.107c0.34051,0 0.66512,0.06808 0.96096,0.19137c1.37269,0.0711 2.76685,0.14473 4.15999,0.18721c2.04362,-1.37786 4.46149,-2.42041 6.20424,-0.48789c0.09484,0.10517 0.17721,0.2149 0.24829,0.32878c1.6812,-0.1735 3.30487,-0.48012 4.82607,-0.98717c10.67692,-0.09573 20.83511,-1.3841 31.35412,-2.42008c6.87352,-0.67695 14.14406,-0.01217 21.04633,-0.01217c2.5332,0 5.09568,0.41679 7.59952,0.03229c0.83351,-0.128 1.56175,-0.70825 2.40003,-0.80005c2.28935,-0.25071 4.60645,0.01341 6.91282,0.06876c0.28699,-0.07425 0.90017,-0.18597 1.52407,-0.00161c0.42008,-0.01314 0.83953,-0.03857 1.2581,-0.08071c1.17465,-0.11824 2.26541,-0.81578 3.44599,-0.81801c1.39936,-0.00264 2.74372,0.64588 4.13146,0.77756l0.4798,-1.43933c-0.17752,0.03999 -0.36219,0.0611 -0.55178,0.0611c-1.38071,0 -2.5,-1.11929 -2.5,-2.5c0,-0.52531 0.16203,-1.01279 0.43882,-1.41517l1.51641,-2.27467c0.27638,-0.55287 0.64853,-1.345 1.07984,-2.19615c0.00611,-0.65986 0.02719,-1.3177 0.07133,-1.97246c-0.43723,-0.45019 -0.70643,-1.06446 -0.70643,-1.74159c0,-0.4199 0.10353,-0.81563 0.28644,-1.16305l1.03966,-2.07925c0.87344,-5.94278 2.02683,-11.89292 2.69263,-17.86313c0.15129,-1.35661 -0.15611,-2.7406 0.01355,-4.09503c0.41738,-3.33194 2.10131,-5.14817 -1.319,-7.11936l0.58677,0.41987c0,0 -0.59212,0 -1.20002,-0.28816c-0.6079,0.28816 -1.20001,0.28816 -1.20001,0.28816l-0.00944,-0.12828c-1.89118,0.60731 -3.86773,0.93124 -5.86789,1.05016c1.02648,1.40881 -0.15302,2.91774 -0.15302,2.91774zM195.02496,250.15438c0.05337,-0.17824 0.08589,-0.3541 0.07356,-0.52255c-0.02037,-0.27845 -0.01832,0.07895 -0.07356,0.52255zM265.76777,277.06782l-2.95678,2.29816c-3.45112,0.56936 -6.52559,1.5898 -9.63453,2.69472l0.10982,0.18304l-0.77044,0.46227c2.3572,-0.08374 4.68667,0.0802 7.08374,-0.27373c0.72255,-0.10669 1.45687,-0.21513 2.19992,-0.31971c0.20079,-0.37131 0.49282,-0.68606 0.84604,-0.91418l4.12798,-2.752l0.03045,0.04567c0.08948,-0.07403 0.18014,-0.14679 0.27207,-0.2182c1.14842,-0.89211 2.76557,-0.90032 4.14836,-1.35047l0.33946,0.0168c-1.84983,-0.10116 -3.69673,-0.18207 -5.53413,-0.19504c-0.14428,0.205 -0.26196,0.32268 -0.26196,0.32268zM240.21512,283.71601c-0.06588,0.02042 -0.1311,0.04046 -0.1957,0.06016c0.07165,-0.0088 0.14331,-0.01754 0.21499,-0.0262c-0.00652,-0.01127 -0.01295,-0.02259 -0.01929,-0.03397zM221.56112,285.14824l-1.39191,0.46397c0.44384,0.02666 0.88757,0.05275 1.33085,0.07557c0.00089,-0.18531 0.02193,-0.36584 0.06106,-0.53954zM216.70005,283.30003c0,-0.52531 0.16202,-1.01279 0.43882,-1.41517l0.46456,-0.69686c-0.56052,0.55383 -1.02342,0.99742 -1.08905,1.03864c-0.94675,0.59468 -2.03167,1.11544 -3.16243,1.58441l-3.03172,2.27381c-0.22043,0.16908 -0.46982,0.30227 -0.73946,0.39083c0.1396,-0.00982 0.27919,-0.02413 0.41878,-0.04341c0.83535,-0.11537 1.56474,-0.68413 2.40002,-0.79999c1.83759,-0.25488 3.71022,-0.23397 5.59117,-0.14368c-0.76964,-0.42617 -1.2907,-1.24653 -1.2907,-2.18858zM206.30002,284.10001c0,-0.06284 0.00232,-0.12514 0.00688,-0.18682c-0.64473,0.66512 -1.31243,1.30793 -2.12967,1.79235c1.21541,0.18885 2.42837,0.52992 3.64019,0.69397c-0.89223,-0.38175 -1.5174,-1.26761 -1.5174,-2.29949zM196.70005,284.9c0,-0.12497 0.00917,-0.24779 0.02687,-0.36784c-1.7484,0.32621 -3.5381,0.47878 -5.24122,0.09451c-0.77024,-0.17379 -0.13248,-1.65702 -0.60371,-2.29059c-0.1998,-0.26864 -0.1321,0.74405 -0.42208,0.91139c-0.32754,0.18902 -0.67245,0.34148 -1.02573,0.47653c0.09105,0.19813 0.16525,0.42533 0.21733,0.68572c0.02748,0.1374 0.04572,0.26863 0.05566,0.39396c2.34652,0.01884 4.6748,0.10965 6.9978,0.25431c-0.00326,-0.05225 -0.00491,-0.10492 -0.00491,-0.15799zM148.31985,283.51328l0.00001,0.00001l0.00001,-0.00004c0.36795,-0.55162 0.81281,-1.06489 1.31267,-1.52355c-0.55263,-0.15204 -1.10939,-0.30022 -1.60742,-0.5034c-0.20505,0.83364 -0.41264,1.66928 -0.62182,2.50766c0.25951,-0.13673 0.54066,-0.25786 0.83932,-0.36485zM156.5226,279.8215l-0.60412,1.00688c1.3043,-0.44897 2.38475,-0.72557 2.56997,-0.66514c1.15238,0.37599 0.91611,2.19189 1.38166,3.38603c0.54489,0.20657 1.08511,0.4312 1.65532,0.44957c0.31999,-0.25622 0.64743,-0.56056 0.96224,-0.6952c2.19331,-0.93802 4.13521,-2.00378 6.0138,-3.18786c-3.91569,-0.32646 -7.82399,-0.60763 -11.77815,-0.69082c-0.05527,0.13873 -0.12262,0.27134 -0.20073,0.39655zM231.64032,279.48479l0.2372,-0.11861c-0.06612,0.00081 -0.13226,0.00158 -0.19842,0.00228zM237.70832,279.16034c-0.48059,0.02708 -0.96178,0.05194 -1.44367,0.07437c0.09835,0.11005 0.18709,0.22885 0.26494,0.3551c0.3541,-0.17904 0.74889,-0.31001 1.17873,-0.42947zM151.99933,253.7374c0.06394,1.27555 0.15956,2.5557 0.1852,3.82723c0.7762,-0.70049 1.51496,-1.41703 2.18147,-2.20997zM156.09808,248.66136c-1.36307,-0.39799 -2.92085,-0.89064 -3.26273,-2.15005c-0.0005,-0.00182 -0.00099,-0.00364 -0.00148,-0.00546c-0.35881,0.94514 -0.65754,1.8877 -0.76614,2.79462c-0.15774,1.31729 -0.14736,2.65694 -0.08877,4.00339c1.61311,-2.147 2.25902,-3.57933 4.11912,-4.64249zM156.15319,236.39641c-0.12886,-0.26195 -0.21164,-0.50846 -0.25742,-0.73952c-0.15518,0.44844 -0.28675,0.92073 -0.40294,1.40499zM296.62415,277.00059c-1.12764,0.61558 -2.15596,1.5029 -3.31064,2.04451c0.62775,0.00157 1.3628,0.06208 2.28701,0.18717c0.60953,0.0825 1.05834,0.87388 1.66767,0.78988c1.67453,-0.23084 2.45586,-2.58096 4.09606,-2.98972c0.10568,-0.02634 0.21156,-0.05146 0.31765,-0.07545l-0.01585,-0.04755l3.7932,-1.26441c-0.46199,-0.1368 -0.92683,-0.2448 -1.39975,-0.24573c-1.01859,-0.00201 -1.94043,0.68126 -2.95403,0.78196c-0.80846,0.08032 -1.62028,0.09518 -2.43366,0.07887zM317.22751,236.07385c0.15338,-0.25601 0.28759,-0.52387 0.41123,-0.79812l-0.58996,0.29498c-0.04748,0.34115 -0.09538,0.68233 -0.14368,1.02356c0.1055,-0.16467 0.21299,-0.33778 0.32241,-0.52042zM320.15345,228.08033l0.07889,-0.0263c-0.0068,-0.08762 -0.01385,-0.17513 -0.02113,-0.26253zM319.06538,241.95743c-0.77614,1.40451 0.18567,3.17954 0.27349,4.81524c0.24473,-2.05593 0.48279,-4.18944 0.67059,-6.35205c-0.33443,0.50247 -0.65422,1.01229 -0.94407,1.53681zM318.50003,255.30003c0,0.57191 -0.19204,1.09896 -0.51515,1.52021l-2.25628,3.00835l0.07112,0.07112l2.31462,-1.12633c0.0247,0.87646 0.16244,1.76538 0.25317,2.64912l0.01819,0.00606c0.31633,-1.0449 0.60838,-2.09366 0.72647,-3.17485c0.3471,-3.17829 -0.38151,-6.48078 0.00657,-9.65915c0.02341,-0.19169 0.04686,-0.38421 0.07035,-0.57754c-0.52652,1.79314 -1.70246,3.29802 -2.89493,4.80013c1.24211,0.14557 2.20587,1.20167 2.20587,2.48288zM314.82872,274.36609l-0.01457,-0.01166c-0.02395,0.03827 -0.04807,0.07644 -0.07236,0.11451c-0.81318,1.27463 -1.90739,2.33876 -2.96309,3.43299c1.4712,-0.2442 2.94736,-0.47337 4.43022,-0.67912c0.7794,-1.16906 -0.2215,-2.781 -0.30301,-4.20319zM157.37345,233.02498c-0.00751,0.00955 -0.015,0.01911 -0.02248,0.02868l0.04199,-0.00627c-0.00652,-0.00741 -0.01301,-0.01487 -0.0195,-0.0224zM304.14238,220.30731c-1.02493,0.33193 -2.23275,0.1176 -3.24405,0.52575c-0.38386,0.15492 -0.73854,0.37447 -1.08132,0.61897c1.17971,0.13442 2.35994,0.22037 3.54501,0.17578c0.10719,-0.39425 0.42553,-0.85071 0.78037,-1.32049zM276.75521,222.7753l-3.48886,0.58146c0.5145,-0.0204 1.02595,-0.05957 1.53324,-0.12449c0.64083,-0.082 1.28149,-0.17014 1.92212,-0.26283c0.00866,-0.06555 0.01986,-0.1303 0.0335,-0.19414zM270.32198,221.23282c-0.70017,0.21581 -1.49235,0.48684 -2.46531,0.84467c-0.76238,0.28038 -1.48447,0.67695 -2.21526,1.04385c2.25156,-0.01178 4.54879,0.26331 6.79969,0.25309c-1.10214,-0.15846 -1.97202,-1.03583 -2.11912,-2.14161zM256.95625,223.13564c0,-0.18863 0.02089,-0.37239 0.06048,-0.54907c-0.84939,0.31702 -1.7171,0.56358 -2.61862,0.68261c-0.06662,0.00879 -0.13326,0.01665 -0.19992,0.02361l0.00814,0.03257l-3.14562,0.78639c-0.21046,0.05752 -0.43201,0.08823 -0.66072,0.08823c-1.32414,0 -2.40785,-1.02946 -2.49442,-2.33168c-0.09291,0.22095 -0.21664,0.42574 -0.36584,0.60898l-1.87488,2.34359c3.79538,-0.38625 7.59265,-0.68866 11.38441,-1.00727c-0.06061,-0.2156 -0.09302,-0.443 -0.09302,-0.67797zM244.00944,217.72831c0.29738,-0.09898 0.59398,-0.19991 0.88989,-0.30257c-1.0702,0.01292 -2.14432,0.01468 -3.22343,0.01912c0.44128,0.39889 0.73956,0.953 0.80874,1.57624c0.46737,-0.94031 1.52479,-1.29279 1.52479,-1.29279zM288.89623,216.76156c0.08106,-0.03194 0.16156,-0.06456 0.24143,-0.09796c-0.08247,0.00588 -0.16488,0.01136 -0.24721,0.01646c0.00236,0.02704 0.00429,0.05421 0.00578,0.0815zM297.32891,217.05059c0,0.00384 -0.00002,0.00768 -0.00003,0.01151c0.77643,-0.47975 1.6242,-0.85324 2.55038,-1.13811c-0.91832,0.0604 -1.83511,0.11106 -2.74785,0.15104c0.12716,0.29975 0.1975,0.62944 0.1975,0.97556zM309.08346,215.256c1.02984,1.0237 -1.84836,2.65841 -1.53593,4.07647c0.1886,0.85605 1.33497,-1.147 2.07936,-1.60991c0.90753,-0.56436 1.90339,-0.97242 2.85508,-1.45862l3.15503,-1.57751c0.14977,-0.07886 0.30852,-0.14295 0.47432,-0.19036c-0.5822,-0.20191 -1.09667,-0.69607 -1.71131,-0.69607c-0.71395,0 -1.29317,0.66378 -1.9995,0.76773c-1.16915,0.17206 -2.35598,0.33478 -3.55457,0.4859c0.08252,0.05985 0.16181,0.1271 0.23753,0.20237zM319.30002,216.90001c0,0.12522 -0.00921,0.24829 -0.02698,0.36857c0.08054,-0.03733 0.15992,-0.07522 0.23789,-0.1138l0.97765,-0.65175c0.23149,-0.64123 0.47478,-1.27868 0.71547,-1.903h-1.20402c-0.70207,-0.00629 -1.40825,0.04181 -2.11132,0.04885c0.83531,0.40472 1.41132,1.26066 1.41132,2.25114zM232.70005,225.69999c0,-0.27039 0.04292,-0.53075 0.12233,-0.77464c-1.76336,0.73538 -3.51894,1.50019 -5.01776,2.35846c1.67397,0.03123 3.40163,-0.2278 5.11565,-0.55638c-0.14148,-0.31342 -0.22021,-0.66124 -0.22021,-1.02745zM220.78398,226.17274l-1.44624,0.28924c0.29774,0.02598 0.59504,0.05282 0.8918,0.08038zM215.9,224.10002c0,-0.42663 0.10686,-0.8283 0.29529,-1.1797c-0.80077,0.27189 -1.59758,0.55111 -2.38175,0.85044l-1.75613,1.40491l-0.02302,-0.02878c-0.06078,0.05977 -0.12211,0.11903 -0.18403,0.17775c-0.32498,0.30823 -0.69988,0.54601 -1.09929,0.74919c2.13544,-0.02282 4.29633,0.06714 6.44654,0.21857c-0.77343,-0.42508 -1.2976,-1.24752 -1.2976,-2.19239zM187.9,228.10002c0,-0.09574 0.00538,-0.19022 0.01586,-0.28316c-0.20445,0.06713 -0.40774,0.13784 -0.60954,0.21307c-0.59257,0.22088 -1.12549,0.60884 -1.67063,0.95165c0.80605,-0.00054 1.61061,-0.00971 2.41266,-0.03119c-0.096,-0.26545 -0.14835,-0.5518 -0.14835,-0.85037zM179.58487,222.42019l-0.84711,1.12951c0.90463,-0.19766 1.80347,-0.40965 2.67226,-0.69048l2.36305,-1.09636c-1.36044,0.16803 -2.71999,0.3353 -4.078,0.50176c-0.03479,0.0533 -0.07156,0.1052 -0.1102,0.15557zM188.71627,222.3576c0.64257,-0.14055 1.26675,-0.27988 1.83666,-0.44394l0.03441,-0.00002l-0.00219,-0.0085l3.93771,-1.01232c0.21536,-0.06046 0.4425,-0.0928 0.67718,-0.0928c0.82384,0 1.55461,0.39849 2.01006,1.01324c1.88988,-0.86743 3.94636,-1.48885 5.8027,-2.40774l0.18263,0.0059l-0.02212,-0.06593l0.08764,-0.0294c-0.18589,0.01985 -0.37107,0.04153 -0.55548,0.06517c-4.9365,0.63284 -9.90112,1.25949 -14.86249,1.87698c0.38667,0.27377 0.69217,0.65462 0.8733,1.09934zM234.45531,218.8268c0.63881,-0.28558 1.25581,-0.57264 1.83946,-0.86388l0.16178,-0.00701l-0.01735,-0.04912l1.14607,-0.40499c-1.21177,0.03666 -2.43135,0.09802 -3.66026,0.20296c0.26331,0.31739 0.44963,0.70094 0.5303,1.12204zM166.4213,223.80857c-0.00337,0.01075 -0.00673,0.02151 -0.0101,0.03227l0.11782,0.07854c0.03976,-0.02282 0.07954,-0.04562 0.11933,-0.0684c-0.07567,-0.01407 -0.15136,-0.02823 -0.22705,-0.04241z" fill="#696969" stroke-width="0.5"></path>
      <path d="M199.03608,236.58194c1.11805,2.23606 -1.11801,3.35411 -1.11801,3.35411l-3.20002,1.60004c0,0 -2.23606,1.11805 -3.35411,-1.11801c-1.11805,-2.23606 1.11801,-3.35411 1.11801,-3.35411l3.20001,-1.60004c0,0 2.23606,-1.11805 3.35412,1.11801z" fill="#696969" stroke-width="0.5"></path>
      <path d="M233.91805,233.06396c2.23607,1.11803 1.11804,3.3541 1.11804,3.3541l-1.26829,2.24971c-1.06667,1.06667 -2.13334,2.13335 -3.20001,3.20002c0,0 -1.76777,1.76776 -3.53553,0c-1.76776,-1.76776 0,-3.53553 0,-3.53553c1.06667,-1.06667 2.13335,-2.13335 3.20002,-3.20002l0.33168,-0.95024c0,0 1.11803,-2.23607 3.3541,-1.11803z" fill="#696969" stroke-width="0.5"></path>
      <path d="M255.30002,234.50004c0,1.74656 -1.22019,2.27293 -1.95566,2.43157c-1.08085,1.46797 -2.29312,2.84411 -3.57654,4.13617c0,0 -1.76775,1.76779 -3.53554,0.00005c-1.76779,-1.76774 -0.00005,-3.53554 -0.00005,-3.53554c1.36182,-1.35137 2.63083,-2.81785 3.68769,-4.41903l2.88009,-1.11321c0,0 2.5,0 2.5,2.5z" fill="#696969" stroke-width="0.5"></path>
      <path d="M280.70005,232.10002c0,-1.38071 1.11929,-2.5 2.5,-2.5c1.38071,0 2.5,1.11929 2.5,2.5c0,1.38071 -1.11929,2.5 -2.5,2.5c-1.38071,0 -2.5,-1.11929 -2.5,-2.5z" fill="#696969" stroke-width="0.5"></path>
      <path d="M175.43221,191.01776c-0.07657,-0.07657 -0.1465,-0.15314 -0.21023,-0.22956c0.54513,1.28303 0.97271,2.61248 1.26021,3.98215c3.72374,-0.50318 6.65408,-2.09217 9.60985,-4.31433c4.81627,-3.62089 8.45597,-7.77877 11.63695,-12.32947c-2.50332,0.67913 -5.00177,1.56273 -7.03059,2.56925c-4.06993,2.01913 -7.75913,6.34449 -10.93062,9.52198l-0.80004,0.80002c0,0 -1.76778,1.76775 -3.53553,-0.00003zM175.43225,187.48223l0.8,-0.79999c3.60651,-3.60022 7.66881,-8.16441 12.2694,-10.47802c3.7277,-1.87464 8.79789,-3.27291 13.05173,-4.01859c0.29963,-0.49791 0.59762,-0.99932 0.89473,-1.50406c-1.14515,-0.00739 -2.30674,-0.14067 -3.44809,-0.13156c-7.52968,0.06006 -17.03138,-3.79554 -21.4281,-10.23822c-5.51631,-8.08326 -3.36944,-21.03818 3.03293,-28.00172c2.57405,-2.79967 6.21707,-4.1062 9.74581,-5.11936c2.28925,-0.19511 6.77773,-0.73701 9.24979,-0.40843c6.22033,0.82679 14.39354,4.99269 17.42734,10.53327c1.64863,3.01087 2.0859,7.28968 2.26911,10.60992c0.17172,3.11197 0.04047,6.82577 -1.46909,9.65897c-1.74562,3.27625 -4.42739,5.65076 -7.40164,7.66159c0.32106,1.03527 -0.25555,2.04432 -0.25555,2.04432c-0.31709,0.55491 -0.63648,1.11619 -0.95867,1.68251c0.25292,0.36607 0.35975,0.68655 0.35975,0.68655c0.78917,2.36745 2.58333,5.92222 2.52832,8.39059c-0.08766,3.93296 -2.55476,5.24684 -4.39416,8.14738c-1.06664,1.68198 -1.73342,3.60074 -2.83822,5.25791c-2.15356,3.2303 -4.96879,6.07565 -7.23329,9.2478l-1.23436,1.64691c0,0 -1.50002,1.99999 -3.5,0.49997c-1.99999,-1.50002 -0.49997,-3.5 -0.49997,-3.5l1.16567,-1.55307c2.24135,-3.13614 5.03798,-5.95913 7.16667,-9.1522c1.07922,-1.61885 1.71511,-3.50202 2.76182,-5.14208c0.94586,-1.48204 3.69748,-3.41233 3.60584,-5.45262c-0.04861,-1.08234 -0.50013,-2.38132 -1.01052,-3.65222c-0.14765,0.25065 -0.29609,0.50146 -0.44536,0.75232c-0.11507,0.48768 -0.36974,0.84486 -0.66314,1.10517c-6.38447,10.54729 -14.34378,20.91531 -26.75091,23.28587c0.79953,3.31186 2.40011,7.5749 5.67947,9.06857c1.60517,0.73111 3.88507,0.6465 5.53512,0.54514c6.1874,-0.38007 12.81638,-3.30241 17.20313,-7.68803c2.13189,-2.13134 4.26656,-5.24699 5.34505,-8.09181c0.53245,-1.40449 0.13856,-3.60195 1.49282,-4.25163c4.4709,-2.14481 5.88576,1.93043 7.38197,4.32134c0.0425,0.05278 0.085,0.10556 0.12751,0.15834c1.90486,0.36139 1.90486,2.44695 1.90486,2.44695l-4.45217,2.36174c-0.57183,-0.71882 -1.14365,-1.43763 -1.71548,-2.15645c-0.03725,-0.07574 -0.07645,-0.1508 -0.11702,-0.22539c-0.7434,2.01929 -2.87303,4.39816 -3.41107,5.11436c-3.39102,4.51389 -7.76055,8.40965 -13.11583,10.44254c-8.42103,3.19668 -17.96114,4.74126 -23.74062,-3.70904c-2.36214,-3.45373 -2.27383,-3.87354 -2.96963,-7.10066c-1.47819,-0.56595 -1.47819,-2.32712 -1.47819,-2.32712c0.14064,-5.52129 -3.64113,-10.52443 -7.56731,-14.13718c-0.8692,-0.79981 -1.62508,-2.18169 -2.80613,-2.1639c-0.46356,0.00698 -2.71621,1.79893 -2.9113,2.02004c-2.1396,2.42499 -4.32231,5.97914 -4.52155,9.25827c-0.28184,4.6386 2.33927,6.81369 3.70234,11.02807c1.33067,1.70561 3.21036,2.3671 4.91254,3.72901l2.0273,0.67578c1.02155,0.31418 1.7641,1.26534 1.7641,2.38993c0,0.88154 -0.45627,1.65651 -1.14553,2.10164l-2.36773,1.57847l-0.11988,-0.17982c-1.62317,1.4428 -3.36201,2.47003 -6.06639,3.36742l-3.20047,0.03228c0,0 -2.5,0 -2.5,-2.5c0,-2.5 2.5,-2.5 2.5,-2.5l2.39954,0.03228c1.21984,-0.41009 2.04126,-1.2046 2.88066,-1.6715c-2.00036,-1.4254 -3.6957,-2.46519 -5.47626,-4.66607c-2.09668,-6.12664 -5.94465,-10.06825 -3.79024,-17.14015c1.43001,-4.69402 6.35569,-12.58166 12.05973,-12.5535c1.85015,0.00913 4.64862,2.22546 5.99386,3.4361c2.84196,2.5576 5.32218,5.59229 6.99475,8.98128c-0.14457,-1.17149 0.7702,-2.08624 0.7702,-2.08624zM212.48014,156.26326c0.05533,0.083 0.10515,0.1649 0.1498,0.24565c0.26682,-0.38073 0.51509,-0.77793 0.7423,-1.19334c0.22602,-0.41325 0.40362,-0.86612 0.54209,-1.3438c-0.56841,0.62752 -1.17408,1.23627 -1.78908,1.84568c0.12197,0.12693 0.24078,0.27463 0.3549,0.44581zM202.30198,163.75028c-0.86858,0.68339 -1.76499,1.33473 -2.6665,1.97659c0.29982,0.00602 0.59879,0.00175 0.89694,-0.01389c0.41686,-0.73269 1.14955,-1.09903 1.14955,-1.09903l0.67771,-0.33455c0.00588,-0.00336 0.01176,-0.00671 0.01763,-0.01007c-0.04255,-0.16694 -0.06829,-0.34059 -0.07533,-0.51904zM197.81094,164.33718c-0.30911,0.13683 -0.65115,0.21283 -1.01094,0.21283c-1.38071,0 -2.5,-1.11929 -2.5,-2.5c0,-0.24658 0.0357,-0.48482 0.10221,-0.70984c-0.24843,0.16287 -0.50265,0.32284 -0.76186,0.48044l-2.71731,0.27622c-0.6584,0.37651 -1.33105,0.70552 -2.07057,0.81189c-0.00166,0.00024 -0.00332,0.00048 -0.00497,0.00071c1.13433,0.48361 2.31841,0.89828 3.53368,1.28849c1.91486,0.61484 3.79161,1.16405 5.63541,1.40385zM185.99211,143.13967c-0.02897,0.0991 -0.05855,0.19802 -0.08877,0.29673c0.08806,-0.02955 0.17627,-0.05803 0.26447,-0.08549c-0.06231,-0.06709 -0.12098,-0.13761 -0.1757,-0.21124zM180.40001,151.75001c-0.21175,0 -0.41734,-0.02632 -0.6137,-0.07588c0.04697,0.46458 0.10031,0.9135 0.16862,1.35049c0.15061,-0.4315 0.31364,-0.85773 0.48062,-1.27486c-0.01183,0.00016 -0.02367,0.00025 -0.03553,0.00025zM192.47155,133.67152c0.4226,-0.32695 0.95281,-0.52152 1.52847,-0.52152c0.70675,0 1.34501,0.29327 1.79971,0.76476l0.03253,-0.03253v0c0.45241,-0.45241 1.07741,-0.73223 1.76776,-0.73223c0.56241,0 1.08144,0.18571 1.49912,0.49915l0.9236,-0.73888c0.23936,-0.19487 0.51548,-0.34632 0.81635,-0.44235c-3.22806,-0.55719 -6.54401,-0.58485 -9.29183,-0.38173c0.48654,0.38386 0.827,0.94466 0.9243,1.58533zM204.10002,134.85002c0,0.02709 -0.00043,0.05407 -0.00129,0.08095c1.22309,-0.26701 2.45314,-0.3097 3.64446,-0.15277c-1.36579,-0.76973 -2.87935,-1.34855 -4.45744,-1.77436c0.50038,0.45715 0.81427,1.11501 0.81427,1.84618zM193.61524,143.9703l-0.23537,0.23537c0.62094,0.32869 1.21775,0.71367 1.778,1.14497c0.02244,-0.14171 0.04731,-0.28428 0.07454,-0.42747c-0.65698,-0.09681 -1.23078,-0.44918 -1.61717,-0.95287zM192.04646,156.12488c-2.47487,-0.35355 -2.12132,-2.82842 -2.12132,-2.82842l0.19876,-1.39132l-1.29561,-1.44568c0,0 0.63119,-1.8936 2.45759,-1.7328c-0.06569,-0.05032 -0.13243,-0.10033 -0.2002,-0.15002c-0.67862,-0.49761 -3.79466,-1.09128 -4.36189,-0.13003c-0.35132,0.59535 -0.15517,1.38325 -0.36821,2.04088c-0.88019,2.71701 -4.71966,8.80776 1.59198,7.50381c0.31386,-0.06484 0.60621,-0.18848 0.88781,-0.3415c0.11063,-0.07788 0.22478,-0.14363 0.33866,-0.19913c0.4377,-0.27424 0.85918,-0.59281 1.30799,-0.83671c0,0 1.10246,-0.55123 2.14622,-0.10546c0.1528,-0.13134 0.2939,-0.26594 0.42348,-0.40347c-0.28843,0.06149 -0.62131,0.07471 -1.00524,0.01987zM210.71807,149.48607c-2.23606,1.11805 -3.35411,-1.11802 -3.35411,-1.11802c-0.46858,-1.35145 -0.93717,-2.70289 -1.40575,-4.05434l1.35969,-0.81633l-0.47963,-0.59954l1.98445,-1.58757c0.29394,-0.23931 0.64332,-0.41314 1.0259,-0.49926c-2.06437,-1.60588 -5.08389,-1.70827 -7.70702,0.63255c-1.28489,1.1466 -2.30871,4.59149 -2.06851,6.24043c0.1602,1.09973 2.24408,4.77016 4.04464,3.96092c0.64441,-0.28962 0.98787,-1.0103 1.48181,-1.51545c0,0 1.92055,-1.60046 3.52101,0.32009c0.24937,0.29924 0.41326,0.59071 0.51225,0.86957c0.79624,-0.81129 1.60769,-1.69343 2.12586,-2.70381c-0.21477,0.3208 -0.54545,0.62319 -1.04059,0.87077zM212.05715,147.92192c-0.00012,0.00052 -0.00024,0.00104 -0.00036,0.00156c0.00021,-0.0006 0.00042,-0.0012 0.00063,-0.0018c-0.00009,0.00008 -0.00018,0.00016 -0.00027,0.00024z" fill="#696969" stroke-width="0.5"></path>
      <path d="M316.72055,151.64955c1.60046,1.92055 -0.32009,3.52101 -0.32009,3.52101l-2.50472,2.08264c-1.11424,0.67829 -2.08128,1.70262 -3.34271,2.03488c-0.97682,0.2573 -2.0135,-0.53484 -3.00873,-0.3619c-3.89505,0.67684 -5.37044,3.79126 -9.89381,3.19927c-1.33428,-0.17462 -2.56363,-0.86936 -3.73544,-1.53093c-0.53806,-0.30377 -0.69109,-1.25571 -1.30609,-1.31537c-1.13233,-0.10984 -2.16515,0.7975 -3.30058,0.86851c-1.33266,0.08334 -2.65629,-0.27529 -3.98444,-0.41293c0,0 -2.48471,-0.27608 -2.20863,-2.76079c0.27608,-2.48471 2.76079,-2.20863 2.76079,-2.20863c2.09393,0.25205 4.22735,-0.37774 6.33075,-0.43429c-2.64918,-0.69789 -5.06959,-2.25489 -7.43496,-5.21924c-0.64116,-0.80351 -0.93863,-1.82916 -1.40795,-2.74374c0,0 -0.0422,-0.08439 -0.0938,-0.22858c-2.95068,-0.01324 -3.82723,0.04248 -7.63042,-1.87499c-7.63326,-3.8485 -8.77616,-12.62423 -7.7146,-20.168c0,0 0.21639,-1.51479 1.49568,-2.00489c1.20013,-3.98469 2.77147,-7.92737 4.95126,-11.43996c0.02811,-0.11442 0.06409,-0.22574 0.10734,-0.33337l1.17978,-3.14605l0.06441,0.02415c0.05005,-0.16845 0.10786,-0.33513 0.17448,-0.4998c0.07086,-0.17514 7.0561,-7.13623 7.40523,-7.48537c0.24936,-0.24936 0.49705,-0.4982 0.74312,-0.74674c3.71229,-4.89856 7.28453,-9.91532 10.67344,-15.00118c0,0 1.37163,-2.05744 3.43282,-0.71581l0.32611,-0.8259c0,0 0.92846,-2.3212 3.24966,-1.39273c2.3212,0.92846 1.39273,3.24966 1.39273,3.24966l-0.88512,2.18958c-0.03845,0.07689 -0.07689,0.15378 -0.11534,0.23068c2.1598,-2.07994 4.18254,-4.28616 5.79916,-6.73548c0,0 1.38676,-2.08012 3.46688,-0.69337c0.0043,0.00287 0.00858,0.00573 0.01285,0.00861c0.29791,-0.23474 0.59998,-0.46652 0.90668,-0.69509c0.16863,-0.54267 0.34217,-1.08409 0.52199,-1.62396l0.85055,-2.13793c0,0 0.9285,-2.32118 3.24968,-1.39269c2.32118,0.9285 1.39269,3.24968 1.39269,3.24968l-0.74949,1.86207c-0.23358,0.70019 -0.45631,1.40315 -0.67129,2.10813c-0.02109,0.08844 -0.04734,0.17373 -0.07761,0.25569c-0.3146,1.04119 -0.61312,2.08658 -0.90552,3.13372c0.44506,-0.08514 0.97506,-0.03348 1.59054,0.27075c2.24115,1.10781 1.13335,3.34896 1.13335,3.34896l-0.6883,1.33934c-0.86765,2.59715 -1.76161,5.22339 -2.79485,7.78605c0.64977,-0.40124 1.72398,-0.73339 2.88825,0.28535c0.62039,0.54284 0.85722,1.11126 0.89598,1.62936c3.55782,-4.18171 7.27206,-8.21593 10.70561,-12.50965c0,0 1.56174,-1.95217 3.51391,-0.39043c0.69945,0.55956 0.9478,1.16924 0.97852,1.7213c1.38133,1.17784 0.4958,2.94891 0.4958,2.94891l-0.56392,1.12785c-2.18036,4.35593 -4.25514,8.52566 -6.59893,12.71472c4.51795,-4.37326 8.51024,-9.3986 12.09246,-14.4137c0,0 1.4531,-2.03433 3.48743,-0.58123c2.03433,1.4531 0.58123,3.48743 0.58123,3.48743c-0.53742,0.75238 -1.08361,1.50376 -1.63887,2.25242c0.10454,0.39329 0.10454,0.69447 0.10454,0.69447l-0.0265,3.16304c-2.184,7.39849 -6.10701,14.22667 -10.40503,20.79677c-0.07024,0.4118 -0.20154,0.6942 -0.20154,0.6942l-1.38704,2.97266c-1.88251,3.04229 -3.75049,6.16463 -5.71145,9.22372c1.42455,1.69211 -0.20067,3.31736 -0.20067,3.31736l-0.44778,0.35725c-3.79743,6.03373 -9.98811,13.39717 -16.93348,15.84806c-0.06359,0.02244 -0.12749,0.04357 -0.19167,0.06347c-0.37503,0.58706 -0.90862,0.90721 -0.90862,0.90721l-2.87524,1.52225c-2.99873,0.49462 -5.66606,0.82638 -8.11811,0.62884c1.25952,0.70267 2.22046,2.23115 3.65663,2.42973c2.77984,0.38437 6.03,-2.7075 8.50615,-3.20073c0.85915,-0.17113 1.72907,0.59295 2.59131,0.43812c0.61214,-0.10992 0.97152,-0.77675 1.45727,-1.16513l2.29527,-1.91736c0,0 1.92055,-1.60046 3.52101,0.32009zM290.56777,130.28225c1.76777,1.76777 0,3.53553 0,3.53553l-1.781,1.74972c-0.47206,0.84096 -0.94411,1.68191 -1.41617,2.52287c0,0 -0.29951,0.52413 -0.86172,0.91011c-0.71404,1.19243 -1.78314,1.24665 -2.49251,1.11568c-1.53366,0.28412 -2.28544,-0.63647 -2.62059,-1.30079c-2.24056,-1.43171 -3.45144,-2.94553 -4.51095,-5.36278c-0.09003,0.12134 -0.19513,0.24327 -0.31706,0.36519c-1.18582,1.18582 -2.37164,0.78074 -3.02387,0.38553c0.45098,1.23469 1.07254,2.35513 1.88122,3.31834c1.37584,-0.99593 2.87489,0.12836 2.87489,0.12836c2.56273,1.9694 4.44634,2.59532 7.12744,3.45569c0.67793,-1.15569 2.17258,-1.15569 2.17258,-1.15569l1.9,0.50001c2.32578,1.75988 3.76283,3.50956 6.29415,3.09727c0.34968,-0.20661 0.71588,-0.30577 0.98684,-0.35336c3.33372,-2.22831 7.75734,-5.6237 6.04728,-9.95333c0,0 -0.79058,-2.3717 1.58112,-3.16229c0.23588,-0.07863 0.45612,-0.12598 0.66149,-0.14749c-0.09019,-0.56446 -0.20319,-1.17075 -0.33058,-1.83359c0,0 -0.14484,-0.79661 0.18368,-1.56556l-0.0271,-0.30915c-0.98176,-1.10493 -2.01801,-2.16107 -3.06465,-3.20474c0,0 -1.11069,-1.11069 -0.69089,-2.45168c-1.15971,-0.82122 -2.3045,-1.66386 -3.44136,-2.51608c0,0 -0.60399,-0.45299 -0.8992,-1.19301c-0.97947,-0.33964 -1.94865,-0.7096 -2.90548,-1.107c-0.70933,0 -1.44188,0 -2.09736,0c-1.38101,0.71451 -2.7194,1.51561 -4.0112,2.38012c0,0 -0.3379,0.22527 -0.83211,0.35803c0.0112,1.33781 -1.26841,2.10558 -1.26841,2.10558l-0.98838,0.04107c-0.4,0.93333 -0.80001,1.86667 -1.20001,2.8c0,0 -0.7409,1.72875 -2.4369,1.54468l-0.56095,1.47051c0.2239,0.53648 0.4478,1.07297 0.6717,1.60945c0,0 0.14431,0.43295 0.12464,0.99055c0.01967,0.5576 -0.12464,0.99056 -0.12464,0.99056l-0.07751,-0.07385c-0.03983,0.08925 -0.0867,0.17777 -0.14159,0.26455c0.07388,0.22831 0.14601,0.44386 0.21763,0.64792c0.36686,-0.30932 0.88839,-0.52917 1.62976,-0.52917c1.62613,0 2.19454,1.05772 2.39323,1.79716l1.83901,-1.86493c0,0 1.76777,-1.76777 3.53553,0zM298.28682,148.05381c-1.22053,0.29669 -2.41528,1.04643 -3.66158,0.89008c-2.00341,-0.25134 -3.71908,-1.2303 -5.3167,-2.37089c2.585,3.36558 5.92782,3.56846 10.18641,2.99793c-0.0087,-2.18202 2.2563,-2.40852 2.2563,-2.40852c4.36942,-0.36025 8.26349,-2.8445 11.52309,-6.07511c-0.67052,-1.34699 0.40511,-2.63775 0.40511,-2.63775c2.01921,-2.4172 3.86353,-5.02099 5.61736,-7.69655c-0.62493,-1.21775 0.22306,-2.48974 0.22306,-2.48974c5.34519,-8.01703 11.70626,-16.27884 15.62603,-25.26233c-0.46429,0.51761 -0.93414,1.03014 -1.40968,1.53689c0.19019,1.31163 -0.95315,2.24708 -0.95315,2.24708c-3.89932,3.19031 -7.80995,6.33062 -11.60383,9.64655l-0.179,0.04864l0.03459,0.05302l-2.43895,1.59119c-0.39863,0.26879 -0.87894,0.4257 -1.3959,0.4257c-1.38071,0 -2.5,-1.11929 -2.5,-2.5c0,-0.38089 0.08518,-0.74189 0.23753,-1.06499l1.57794,-3.55037l0.03453,0.01535c0.01934,-0.0686 0.03926,-0.13706 0.05979,-0.20539c0.49964,-1.66288 3.21124,-4.08547 4.1075,-5.37747c1.44397,-2.08156 2.68933,-4.28422 3.84367,-6.53967c-1.34871,1.55479 -2.68525,3.12114 -3.98678,4.72039l-0.6354,0.7805c0,0 -1.57834,1.93877 -3.51711,0.36043c-0.75204,-0.61223 -0.97489,-1.2787 -0.96593,-1.8652l-0.03011,0.03439c-1.61897,1.62025 -3.23825,3.2402 -4.85787,4.85981c0,0 -0.15278,0.15278 -0.41343,0.3236c-0.05941,1.08382 -0.95387,1.8292 -0.95387,1.8292c-1.72842,1.43876 -3.51801,2.80573 -5.34736,4.11377l-4.27845,-3.02799c0,0 -0.60633,-2.42536 1.81902,-3.03169c0.84649,-0.21162 1.4714,-0.05394 1.92629,0.24103c0.48624,-0.37109 0.96848,-0.7474 1.44621,-1.12925c-1.21453,-1.49353 0.11326,-3.08688 0.11326,-3.08688c2.98125,-3.5535 4.9252,-7.88399 6.53185,-12.29116c-0.16667,-0.02078 -0.34306,-0.05785 -0.52963,-0.11382c-2.39457,-0.71836 -1.67621,-3.11293 -1.67621,-3.11293c0.20344,-0.67773 0.40046,-1.35686 0.59372,-2.03677c-1.75515,1.73067 -3.44751,3.53393 -5.2314,5.3229l-2.24974,1.2683c0,0 -0.46831,0.23416 -1.08345,0.27383c-0.63691,0.56769 -1.27318,1.132 -1.90433,1.69541l-2.36249,2.36247v0c-0.45241,0.45241 -1.07741,0.73223 -1.76776,0.73223c-1.22408,0 -2.24268,-0.87974 -2.45804,-2.04144c-0.44465,0.50361 -0.89381,1.00247 -1.34712,1.49753c-2.65093,3.41673 -5.344,6.7973 -7.98627,10.2277l-1.6813,2.72952c0,0 -0.87928,1.42421 -2.36427,1.22249l-0.15834,0.16585c-0.16814,0.24486 -0.33244,0.49314 -0.49303,0.74456c0.1214,0.29391 0.18838,0.61602 0.18838,0.95378c0,1.23536 -0.89603,2.26144 -2.07364,2.46379c-1.56675,3.27902 -2.67732,6.84512 -3.5451,10.24167l0.0061,0.81224c0.75929,0.19342 1.2804,0.71454 1.2804,0.71454l1.64886,1.64886l0.09798,-0.68125c-0.27153,-0.93328 -0.54307,-1.86657 -0.8146,-2.79985l1.32827,-4.39055c0,0 0.65408,-1.96227 2.55722,-1.72211c0.23888,-0.55738 0.47776,-1.11476 0.71664,-1.67214l1.3418,-1.051c0.03415,-1.09525 0.92908,-1.86234 0.92908,-1.86234c0.93333,-0.8 1.86666,-1.6 2.79999,-2.39999l1.51565,-0.45004c0.48359,-0.29529 0.97224,-0.58244 1.4658,-0.86068c0.63626,-1.29115 2.24553,-1.29115 2.24553,-1.29115c1.22263,0 2.44526,0 3.66789,0c0.14343,-0.01093 0.28213,-0.00942 0.41227,0c0.10661,0 0.21323,0 0.31984,0h1.60001c0,0 1.76895,0 2.33085,1.48801c0.64715,0.21877 1.2994,0.42189 1.95596,0.60818l1.48096,1.03604c0,0 0.78533,0.78533 0.78567,1.83254c1.06413,0.77132 2.13977,1.52662 3.23331,2.25511l1.18101,1.11234c0,0 1.44914,1.44912 0.41128,3.03534c0.59434,0.7044 1.16838,1.42601 1.72403,2.15993l0.57762,3.8624c0,0 0.06536,0.52283 -0.10396,1.11845c0.57145,4.39375 0.11067,7.31979 -2.74242,11.44475l-1.06654,1.11466c0,0 -0.39187,0.39188 -0.99111,0.62212c-1.66545,1.99876 -3.87806,3.73049 -6.18991,5.29025l-0.0126,0.00296c-0.37065,0.23024 -0.68736,0.32073 -0.68736,0.32073zM297.98328,89.97288c0.09714,-0.08587 0.19434,-0.17185 0.29158,-0.25793c-0.02303,-0.00618 -0.0462,-0.01272 -0.06952,-0.01964z" fill="#696969" stroke-width="0.5"></path>
      <path d="M299.7,131.65c0,2.5 -2.5,2.5 -2.5,2.5l0.28681,-0.09619c-0.93333,0.26667 -1.86666,0.53334 -2.79999,0.8c0,0 -2.40381,0.68681 -3.09062,-1.717c-0.68681,-2.40381 1.717,-3.09062 1.717,-3.09062c0.93333,-0.26667 1.86666,-0.53334 2.79999,-0.8l1.0868,-0.09619c0,0 2.5,0 2.5,2.5z" fill="#696969" stroke-width="0.5"></path>
      <path d="M297.83366,118.80193c2.04808,1.43365 0.61443,3.48173 0.61443,3.48173l-2.79999,4c0,0 -1.43365,2.04808 -3.48173,0.61443c-2.04808,-1.43365 -0.61443,-3.48173 -0.61443,-3.48173l2.79999,-4c0,0 1.43365,-2.04808 3.48173,-0.61443z" fill="#696969" stroke-width="0.5"></path>
      <path d="M276.50002,148.45001c0,1.38071 -1.11929,2.5 -2.5,2.5c-1.26246,0 -2.30635,-0.93577 -2.47591,-2.15153l-1.04627,0.39236c0,0 -2.34082,0.87782 -3.21864,-1.463c-0.35838,-0.95568 -0.18028,-1.6675 0.15598,-2.17529l-0.60988,-0.50648c-1.0778,-0.51143 -2.56048,-0.5492 -3.23339,-1.53429c-0.61784,-0.90448 0.52954,-2.36173 -0.059,-3.28554c-0.56406,-0.88539 -2.46746,-0.33447 -2.86598,-1.30569c-0.75031,-1.82855 -0.53894,-3.70912 0.06547,-5.51933v0l0.38795,-3.87929c0.01401,-3.61736 0.40629,-7.06498 0.39966,-10.67193c0,0 0,-2.5 2.5,-2.5c2.5,0 2.5,2.5 2.5,2.5c-0.00608,3.65274 -0.40492,7.13435 -0.4,10.79275c0.00001,0.00241 0.00001,0.00482 0.00001,0.00724v2.8c0,0.50279 -0.14842,0.97091 -0.40385,1.36294l-0.00858,0.08582c0.28424,0.81419 -1.15548,1.72803 -0.73452,2.48068c0.47918,0.85674 2.20749,0.26587 2.73406,1.09434c0.55697,0.87631 -0.50378,2.1762 -0.059,3.11445c0.22389,0.47228 1.0444,0.04381 1.5666,0.06572l2.36702,1.84387c0,0 0.34222,0.27377 0.62546,0.73535c0.63777,-0.14912 2.25672,-0.31934 2.95361,1.539c0.22586,0.60228 0.23864,1.10771 0.13304,1.52625c0.73408,0.43555 1.22615,1.2361 1.22615,2.15157z" fill="#696969" stroke-width="0.5"></path>
      <path d="M345.52119,78.97849c-0.92848,2.32119 -3.24967,1.39271 -3.24967,1.39271l-2.89516,-2.76576c-3.41517,0.15715 -4.75801,1.08447 -4.74963,-1.05538c-0.44475,0.61759 -0.98208,1.18233 -1.42674,1.79997c0,0 -1.50001,2 -3.5,0.49999c-2,-1.50001 -0.49999,-3.5 -0.49999,-3.5c1.76191,-2.27901 3.84779,-6.45321 7.97966,-5.10419c2.32623,0.7595 -0.17009,5.15903 1.12808,2.66883l4.59202,-1.40022c0.26165,2.00389 0.52329,4.00778 0.78494,6.01167l0.44377,-1.79728c0,0 2.32119,0.92848 1.39271,3.24967z" fill="#696969" stroke-width="0.5"></path>
      <path d="M364.55558,84.74945c2.10057,1.35558 0.74499,3.45615 0.74499,3.45615l-2.24959,3.48482c-5.42646,7.66273 -10.82981,15.31146 -16.2029,22.99326c0,0 -1.43366,2.04808 -3.48174,0.61441c-2.04808,-1.43366 -0.61441,-3.48174 -0.61441,-3.48174c5.36401,-7.65707 10.74406,-15.28672 16.15746,-22.92722l2.19004,-3.3947c0,0 1.35558,-2.10057 3.45615,-0.74499z" fill="#696969" stroke-width="0.5"></path>
      <path d="M332.29814,39.18342c1.62699,1.89813 -0.27115,3.52512 -0.27115,3.52512l-2.72835,2.33618c-4.00178,3.99616 -6.99017,8.30834 -9.97865,13.09069c0,0 -1.325,2.12 -3.44499,0.795c-2.12,-1.325 -0.795,-3.44499 -0.795,-3.44499c3.22945,-5.16631 6.50356,-9.78608 10.82139,-14.1093l2.87163,-2.46384c0,0 1.89813,-1.62699 3.52512,0.27115z" fill="#696969" stroke-width="0.5"></path>
      <path d="M335.3678,43.84265c1.76776,1.76778 -0.00002,3.53553 -0.00002,3.53553l-1.06962,1.05919c-0.8,0.93333 -1.6,1.86667 -2.39999,2.8c0,0 -1.62698,1.89814 -3.52512,0.27117c-1.89814,-1.62698 -0.27117,-3.52512 -0.27117,-3.52512c0.8,-0.93333 1.6,-1.86667 2.39999,-2.8l1.3304,-1.3408c0,0 1.76778,-1.76776 3.53553,0.00002z" fill="#696969" stroke-width="0.5"></path>
      <path d="M136.96781,279.93221c1.76777,1.76777 0,3.53553 0,3.53553l-2.24979,2.06835c-1.38027,0.6192 -2.63607,1.70173 -4.14082,1.85761c-2.46962,0.25583 -7.75134,-3.11956 -9.639,-4.46561c-0.20479,-0.14603 -2.09373,-2.79023 -3.33819,-2.72811c-0.86153,0.04301 -3.12759,1.78612 -3.41327,1.98017c0,0 -2.08014,1.38673 -3.46687,-0.69342c-1.38673,-2.08014 0.69342,-3.46687 0.69342,-3.46687c3.27269,-2.14938 6.00492,-3.93116 9.90108,-1.64645c1.02599,0.60164 1.58013,1.80637 2.5474,2.49848c0.90345,0.64644 2.02771,0.91609 2.99304,1.46586c1.14484,0.652 2.085,2.36818 3.36796,2.06853c0.85301,-0.19923 1.50614,-0.89489 2.25921,-1.34234l0.95029,-1.13173c0,0 1.76777,-1.76777 3.53553,0z" fill="#696969" stroke-width="0.5"></path>
      <path d="M373.76773,287.93214c1.76783,1.7677 0.00013,3.53553 0.00013,3.53553l-1.44981,1.26843c-0.88785,0.4127 -1.91789,0.6036 -2.66354,1.23811c-0.69388,0.59046 -0.82934,1.66279 -1.48677,2.29359c-1.48651,1.42631 -3.60695,1.99734 -5.46936,2.87797c-1.10242,0.52128 -1.96281,1.63684 -3.16652,1.83213c-1.06456,0.17271 -2.06257,-0.67341 -3.13233,-0.81021c-2.53411,-0.32407 -5.18374,-0.10565 -7.61087,-0.90302c-4.20715,-1.38214 -8.01975,-5.37466 -12.63331,-5.46949c-2.6601,-0.05468 -6.29568,3.63243 -8.25539,5.10482c0,0 -2.00001,1.49998 -3.5,-0.50003c-1.49998,-2.00001 0.50003,-3.5 0.50003,-3.5c2.9609,-2.21692 6.96251,-6.05008 10.94468,-6.09513c5.70191,-0.06451 9.5205,4.01751 14.56664,5.73046c2.15421,0.73126 4.54324,0.3347 6.78916,0.69696c0.60726,0.09795 1.06183,0.89598 1.66771,0.78989c0.69954,-0.1225 1.00786,-1.03171 1.63341,-1.36794c1.91118,-1.02724 2.62269,-0.33323 4.13062,-1.92195c0.6967,-0.73403 0.9307,-1.8648 1.7133,-2.50646c1.08784,-0.89192 2.49099,-1.3079 3.73649,-1.96185l0.15017,-0.33167c0,0 1.7677,-1.76783 3.53553,-0.00013z" fill="#696969" stroke-width="0.5"></path>
      <path d="M264.63606,302.98197c1.11803,2.23607 -1.11803,3.3541 -1.11803,3.3541l-3.7436,1.79703c-3.10419,0.055 -7.72662,0.76502 -10.74879,0c-2.26146,-0.57245 -4.0378,-2.34343 -6.124,-3.3873c-1.82273,-0.91204 -3.81815,-1.45648 -5.61967,-2.40973c-0.79984,-0.42323 -1.4607,-1.21097 -2.35472,-1.35098c-2.09903,-0.32872 -5.69865,2.402 -7.7367,3.08659c0,0 -2.37171,0.79055 -3.16227,-1.58116c-0.79055,-2.37171 1.58116,-3.16227 1.58116,-3.16227c3.06298,-1.01188 6.4933,-3.67849 9.8634,-3.31331c5.28045,0.57219 9.71674,6.029 14.70154,7.2519c2.43187,0.5966 5.90879,-0.06476 8.45128,0l2.6563,-1.40292c0,0 2.23607,-1.11803 3.3541,1.11803z" fill="#696969" stroke-width="0.5"></path>
      <path d="M108.31813,123.93605c-2.23604,1.11809 -3.35413,-1.11796 -3.35413,-1.11796l-0.64412,-4.10487c3.25116,-4.83581 7.25523,-7.65686 13.43546,-7.50839c2.96118,0.07114 6.18241,2.73225 8.43141,4.41503c0.48149,0.36027 0.76513,1.0433 1.34511,1.20223c1.0241,0.28063 1.80941,-1.11224 2.7004,-1.68988c0.61675,-0.873 0.9671,-2.01689 1.85026,-2.619c3.65673,-2.49299 5.82919,-0.523 9.35916,0.37051c3.72769,0.94355 4.65841,0.28674 7.4764,3.00014c0.41312,0.39779 3.80331,4.92933 4.36209,6.02936c0.22043,0.43394 -0.10753,1.21135 0.3312,1.4221c0.36675,0.17617 0.50284,-0.70963 0.8897,-0.83564c1.398,-0.45533 2.88474,-1.15565 4.3256,-0.86301c9.12836,1.85398 4.19882,13.37637 -0.71234,16.58996c-3.24135,2.12096 -6.99612,0.74704 -10.51383,1.14107c-1.11443,0.12483 -5.29053,2.30017 -5.42612,2.3654c-1.39161,0.01153 -2.79328,0.20199 -4.17484,0.03459c-3.74199,-0.4534 -7.27531,-3.00151 -11.19907,-2.4c-4.15534,0.63702 -7.68292,2.65035 -12.1748,1.56541c-1.91045,-0.46144 -3.47614,-2.77662 -5.39896,-2.3698c-0.84781,0.17937 -1.26265,1.31489 -2.10225,1.52942c-1.97562,0.5048 -6.87642,0.06573 -8.56453,-1.14921c-5.76655,-4.15019 -1.90636,-11.11592 0.95996,-15.43028c0,0 1.38674,-2.08013 3.46687,-0.6934c2.08013,1.38674 0.6934,3.46687 0.6934,3.46687c-0.9424,1.40821 -5.26927,6.95813 -2.24,8.56972c0.44025,0.23422 3.78871,0.59601 4.23539,0.45083c1.00593,-0.32693 1.64581,-1.5606 2.6978,-1.67059c2.58254,-0.27004 4.88871,1.77414 7.40109,2.43019c3.72381,0.97239 6.76565,-1.16467 10.2251,-1.6346c5.30103,-0.72009 9.89191,2.35477 15.02611,2.43459c1.76058,-0.9226 3.73797,-2.16052 5.77395,-2.43459c3.66737,-0.49368 7.90683,1.4412 10.37235,-2.19404c0.56133,-0.82764 0.89603,-1.78845 1.31838,-2.69493c0.22057,-0.4734 0.53787,-0.926 0.60969,-1.4433c0.43622,-3.14167 -6.42655,0.22869 -7.11134,-0.03531c-1.10676,-0.42669 -3.5548,-4.47754 -4.42951,-5.72076c-0.89057,-1.26578 -1.99641,-3.35289 -3.71585,-3.93423c-1.18404,-0.40032 -2.47146,-0.39408 -3.68496,-0.69347c-3.77839,-0.93219 -4.09595,-2.75638 -6.39055,0.95152c-1.83349,1.2413 -4.37081,3.4453 -6.89958,3.11011c-3.26629,-0.43295 -6.08777,-5.71835 -9.42356,-5.58269c-1.12544,0.04577 -2.1962,0.50164 -3.2962,0.74391c-0.83767,0.1845 -1.76723,0.11926 -2.51672,0.53639c-1.07896,0.60049 -2.5409,3.08599 -3.15165,4.0113l0.95598,-0.90485c0,0 1.11809,2.23604 -1.11796,3.35413z" fill="#696969" stroke-width="0.5"></path>
      <path d="M333.28191,182.33605c-0.19729,-0.09865 -0.36847,-0.206 -0.51661,-0.31976c-1.06031,0.23636 -2.34673,0.61343 -2.77849,1.20119c-0.34018,0.46309 -0.09491,1.19596 -0.41506,1.67311c-0.19708,0.29372 -1.33347,0.42459 -0.98023,0.4064c1.99255,-0.10261 4.1147,-0.25262 5.9652,0.49331c3.29253,1.32722 3.92147,5.40261 7.03387,6.33798c2.17413,0.6534 4.56329,-0.42235 6.8099,-0.09601c1.57071,0.22816 2.90831,1.58061 4.49547,1.56957c1.91075,-0.01329 3.59342,-1.62866 5.50403,-1.60185c2.21611,0.0311 4.02266,1.93583 6.17443,2.46687c0.97908,0.24163 2.01677,-0.02306 3.02516,-0.0346c0.90149,-0.27681 1.76145,-0.82557 2.70447,-0.83043c0.51255,-0.00264 3.19455,1.44931 4.26607,0.44746c1.45493,-1.36032 2.19561,-3.58044 2.15857,-5.57189c-0.00585,-0.31444 0.25075,-0.79616 -0.02732,-0.94309c-2.45404,-1.29677 -6.63179,-0.61565 -9.081,-2.03015c-1.46519,-0.84619 -2.77565,-2.13298 -3.53008,-3.64747c-0.09866,-0.19805 0.13256,-6.24464 -1.26992,-6.75253c-2.88196,-1.04367 -6.31766,2.63821 -9.22038,2.69581c-1.88909,0.03748 -2.94651,-1.55543 -4.87551,-0.90726c-0.78781,0.26472 -1.27774,1.09159 -2.02611,1.45306c-2.8075,1.35607 -3.28908,1.02192 -6.29789,1.02192c-1.46578,0.51342 -2.93648,1.01286 -4.40988,1.504l0.64542,0.34638c0,0 -1.11809,2.23604 -3.35413,1.11796zM333.86899,176.81515l0.54049,-0.68686c1.72666,-0.57555 3.4572,-1.13951 5.1901,-1.69602c2.12786,0 3.12883,0.34303 4.90206,-0.57806c0.96971,-0.50371 1.71551,-1.4753 2.77394,-1.74695c2.05418,-0.52721 4.20491,0.62071 6.32444,0.69272c4.47615,0.15207 6.18294,-4.54125 11.57967,-2.10418c1.69355,0.76478 3.41405,4.78277 3.68803,6.60376c0.13135,0.87298 -0.40618,1.7965 -0.15802,2.64371c0.49255,1.68159 4.07311,1.58421 4.73199,1.74048c2.2721,0.53887 4.92538,0.61523 6.65692,2.18194c4.44691,4.02361 0.8151,11.4398 -2.66867,14.285c-3.13299,2.55872 -5.74542,0.01096 -9.02945,1.21701c-1.65828,-0.01153 -3.35044,0.29913 -4.97484,-0.0346c-1.80915,-0.37168 -3.17948,-2.38631 -5.02564,-2.33312c-1.97114,0.05679 -3.72398,1.60612 -5.69593,1.59816c-2.68269,-0.01082 -2.79829,-1.30835 -5.1045,-1.63045c-2.40045,-0.33525 -5.2839,0.7179 -7.59012,-0.09601c-1.63877,-0.57835 -2.95644,-1.86652 -4.22558,-3.05367c-1.80305,-1.68656 -0.83745,-2.63983 -3.14057,-3.40834c-2.12367,-0.70862 -7.0551,-0.60611 -8.43483,-2.7067c-0.81198,-1.23621 0.27473,-2.95539 0.61987,-4.39359c1.08129,-4.5057 4.10423,-5.3769 8.16532,-6.43478c0,0 0.37926,-0.09482 0.87533,-0.05949z" fill="#696969" stroke-width="0.5"></path>
    </g>
  </g>
</svg>
