<?xml version="1.0" encoding="UTF-8"?>
<svg xmlns="http://www.w3.org/2000/svg" xmlns:xlink="http://www.w3.org/1999/xlink" version="1.1" width="200.40267" height="168.48003" viewBox="0,0,200.40267,168.48003">
  <g transform="translate(-156.94082,-95.23678)">
    <g stroke="none" stroke-miterlimit="10">
      <path d="" fill="#000000" stroke-width="0.5"></path>
      <g>
        <path d="M341.97508,162.43253c0,0 0.10857,-0.12979 0.16993,-0.23245c0.35157,-0.26232 0.48747,-0.4604 0.48747,-0.4604l0.66473,-0.89131c0.38994,-0.52291 0.77999,-1.04574 1.16992,-1.56865c0.05201,0.03106 0.17213,-0.01209 0.22908,0.01574c-0.21876,0.79201 0.00643,1.55501 0.00643,1.55501c1.91519,6.46479 4.89075,12.6537 6.24955,19.30843c2.03977,9.98978 1.93294,19.57713 0.82628,29.60754c-0.41785,3.78721 -0.46638,8.21887 -1.46283,11.88649c-0.53094,1.95423 -1.60312,3.71286 -2.24151,5.63147c-3.4269,6.23985 -7.63164,12.53943 -13.25821,16.93258c-3.29833,2.5753 -7.36717,4.54549 -11.18711,6.07192c-4.79956,1.91787 -9.34657,4.62424 -14.42211,5.80398c-3.02032,0.70204 -6.293,0.41247 -9.29672,1.19803c-0.93387,0.24423 -1.7187,1.00687 -2.67568,1.12908c-0.95698,0.12222 -1.90908,-0.44653 -2.87384,-0.42116c-1.70724,0.04491 -3.3938,0.41948 -5.08807,0.62957c-4.21499,0.56918 -8.38611,-0.40321 -12.58905,-0.74965c-1.59492,-0.13146 -3.21096,0.10216 -4.80018,-0.09408c-6.0363,-0.74538 -11.73313,-3.91685 -17.13412,-6.4876c-0.94749,-0.45098 -2.09171,-0.43874 -2.96686,-1.02709c-2.45564,-1.65089 -3.30676,-4.45867 -4.93097,-6.67602c-0.75148,-1.02591 -1.967,-1.65923 -2.62243,-2.75293c-4.03575,-6.73443 -2.57916,-15.7828 -3.55573,-23.13393c0.64696,-3.20752 0.32367,-6.24933 0.78375,-9.33608c4.16512,0.72222 8.51868,0.83728 12.7855,0.53655c2.07464,0.45849 4.24603,0.53934 6.3347,0.30469l0.68918,-0.0686c0.07884,0.65976 0.23008,1.28501 0.59903,1.81601c0.08125,0.11695 0.19932,0.24397 0.34883,0.37872c0.22395,0.52415 0.48033,1.02122 0.87089,1.41658c1.64202,1.66222 8.91049,5.25052 11.03548,3.43626c0.49282,-0.42075 0.95218,-0.96898 1.32886,-1.58886c0.67054,1.32474 2.38181,1.72541 3.68118,2.38665c3.21398,1.63555 3.68127,1.21679 6.98968,1.75352c4.28213,0.69471 7.52698,2.07651 11.77749,1.7682c1.20554,0.61125 2.32613,1.16871 2.53724,1.20625c1.12013,0.19915 2.23667,-0.37321 3.37151,-0.34984c3.72512,0.07673 6.21059,1.39396 10.14883,0.33101c1.89353,-0.51108 3.30634,-2.1368 4.92835,-3.26259c0.73835,-0.51247 1.71422,-0.62795 2.38768,-1.22813c0.82439,-0.7347 1.1719,-1.93047 1.99338,-2.66863c0.66984,-0.6019 1.76504,-0.58008 2.37347,-1.24812c0.79779,-0.87596 1.0974,-2.11955 1.66059,-3.17361c1.65642,-3.10014 2.90986,-5.95605 3.82916,-9.09037c0.01027,-0.00122 0.02058,-0.0025 0.03093,-0.00382c2.39396,-0.30574 2.07805,-2.7832 2.07805,-2.7832l-0.08168,-0.38128c0.14303,-5.44475 -0.92629,-9.15259 -2.60929,-14.27085c0,0 -0.62308,-1.89828 -2.3937,-1.73256c-0.42119,-1.2732 -0.83485,-2.50744 -1.49793,-3.75072c-0.32906,-1.43393 -0.78822,-2.67782 -1.36803,-4.00724c1.9338,-1.87422 3.98125,-3.57985 5.92505,-5.36608c0.14737,0.47738 0.27222,0.99012 0.36927,1.53923c1.78388,-0.81381 3.57578,-1.61337 5.38216,-2.38211l1.84953,-1.21961c0,0 0.07971,-0.05507 0.19649,-0.15982c2.11686,-0.33626 1.9394,-2.36044 1.91218,-2.66256c0.35137,-0.47121 0.70286,-0.94231 1.05424,-1.41352z" fill="#a2f9ff" stroke-width="0.5"></path>
        <path d="M340.32526,238.22343c-0.82872,0.79893 -1.84797,1.45053 -2.65489,2.27049c-1.33738,1.35898 -2.64318,2.70869 -3.9571,4.04624c-0.90265,1.19928 -1.81842,2.38451 -2.7423,3.55632l-0.06147,0.03666l0.0165,0.01566l-2.63722,2.98157c-0.37115,0.42517 -0.88644,0.7192 -1.48105,0.79514c-0.41643,0.05318 -0.82207,-0.00694 -1.1879,-0.15707c-0.31636,0.23725 -0.69387,0.39739 -1.1103,0.45058c-0.64143,0.08192 -1.25733,-0.10501 -1.74146,-0.4756c-0.95823,0.52018 -1.93997,0.9861 -2.94869,1.38393c-0.4595,0.18122 -1.16779,0.45877 -2.01305,0.73977c-1.74723,0.95588 -3.43104,1.80734 -4.05114,2.10612c-7.38799,3.55963 -16.10326,5.88792 -24.30772,6.3643c-4.50608,0.26165 -9.15378,-0.6609 -13.64,-1.11151l-2.62664,-0.05225c-1.19849,-0.00405 -2.24314,-0.93012 -2.40444,-2.19313c-0.09059,-0.70935 0.11521,-1.38585 0.51837,-1.89671c-6.84947,-0.30372 -13.47498,-0.64773 -20.04569,-3.03313c0,0 -2.28286,-0.83556 -1.49552,-3.19034c0.78734,-2.35479 3.0702,-1.51922 3.0702,-1.51922c6.52524,2.41011 13.20712,2.50679 20.05355,2.81283c4.66017,0.20832 8.63868,0.52539 13.26998,-0.07631l2.10669,-0.26905c0,0 0.72273,-0.0923 1.4265,0.23587c5.53136,-1.40786 10.75752,-3.82117 15.81008,-6.73193c-0.28538,-0.39071 -0.4734,-0.93433 -0.42521,-1.68994c0.15893,-2.49166 2.56851,-2.30512 2.56851,-2.30512c1.04703,0.12623 2.12965,0.67284 3.14109,0.37869c0.63643,-0.18509 1.23243,-0.46352 1.79945,-0.80531c0.26821,-0.17825 0.53607,-0.35727 0.80364,-0.53697c1.39301,-1.01854 2.63109,-2.36014 3.90918,-3.51461c4.18032,-3.77593 7.9502,-8.30528 11.42111,-12.98759c0.4279,-0.87271 0.87272,-1.73637 1.32696,-2.59273l1.13266,-2.12861c0,0 0.60057,-1.12867 1.72619,-1.30769c2.0449,-3.75455 3.81116,-7.66157 5.40043,-11.65022c-1.51568,-1.10513 -0.72344,-2.9896 -0.72344,-2.9896c3.77089,-8.94765 5.54477,-18.69354 6.61118,-28.38633l0.11938,-1.9145c0,0 0.02328,-0.36506 0.18717,-0.80525c-0.64446,-2.54986 -1.33457,-5.00908 -2.01846,-7.32702c0,0 -0.70596,-2.39586 1.60336,-3.10512c2.30933,-0.70926 3.01528,1.68659 3.01528,1.68659c3.04137,10.33452 5.93232,22.79019 5.27381,34.2702l0.62295,2.61487l-0.04312,0.01063c0.03597,0.1086 0.06952,0.21824 0.10047,0.32902c0.47101,1.68654 -0.5742,8.82855 -0.85149,10.48828c-1.26163,7.55161 -3.38342,14.85062 -5.44243,22.19118l-0.25695,0.22705l0.10873,0.06892l-1.26724,2.15991c-0.36454,0.63359 -0.99777,1.09149 -1.76203,1.18909c-0.48158,0.0615 -0.94875,-0.02853 -1.35657,-0.23406c-0.23702,0.34553 -0.55891,0.62736 -0.93945,0.81031c-0.30639,0.26515 -0.62472,0.5193 -0.95049,0.76664zM336.09869,222.10408c-0.2588,0.45052 -0.52169,0.89879 -0.78886,1.34469c0.07062,-0.08389 0.14132,-0.16767 0.21206,-0.25136c0.19323,-0.36389 0.38559,-0.72828 0.57679,-1.09333zM333.85065,225.12962c-0.21443,0.29695 -0.42996,0.5936 -0.64658,0.88981c0.2563,-0.32328 0.51496,-0.64495 0.77545,-0.96506c-0.04162,0.02603 -0.08458,0.05121 -0.12886,0.07526zM339.18323,227.20237c-0.03265,-0.03421 -0.06368,-0.06913 -0.09322,-0.10463c-0.42127,0.87201 -0.84676,1.75717 -1.2816,2.63963c0.48021,-0.81647 0.94805,-1.63956 1.40212,-2.46938c-0.00951,-0.02183 -0.01861,-0.04371 -0.0273,-0.06561zM339.8864,214.77982c-0.14372,0.30796 -0.28883,0.61521 -0.43536,0.92171c0.00942,0.0479 0.01709,0.09557 0.02316,0.14291l0.34514,-0.46284c0.02257,-0.20057 0.04493,-0.40116 0.06705,-0.60178z" fill="#75b3b7" stroke-width="0.5"></path>
        <path d="M340.95387,163.80989c0.02724,0.30211 0.13842,2.3984 -1.97844,2.73466c-0.11678,0.10475 -0.19647,0.15985 -0.19647,0.15985l-1.84921,1.21993c-1.80638,0.76875 -3.59669,1.56978 -5.38058,2.38359c-0.09705,-0.54911 -0.22104,-1.06112 -0.36841,-1.53849c-1.94381,1.78623 -3.93138,3.414 -5.86517,5.28822c0.57981,1.32942 1.04185,2.57582 1.37092,4.00974c0.66308,1.24329 1.07959,2.48045 1.50079,3.75365c1.77062,-0.16572 2.39579,1.73504 2.39579,1.73504c1.68301,5.11827 2.76017,8.84008 2.61713,14.28483l0.08185,0.38174c0,0 0.31671,2.47986 -2.07725,2.7856c-0.01035,0.00132 -0.02066,0.00259 -0.03093,0.00381c-0.9193,3.1343 -2.1706,6.0021 -3.82702,9.10224c-0.5632,1.05406 -0.86274,2.30286 -1.66053,3.17882c-0.60843,0.66804 -1.70379,0.64872 -2.37363,1.25062c-0.82149,0.73817 -1.16978,1.93947 -1.99416,2.67417c-0.67346,0.60018 -1.65017,0.71923 -2.38852,1.23169c-1.62201,1.1258 -3.03906,2.76213 -4.93259,3.27321c-3.93824,1.06296 -6.43731,-0.23841 -10.16243,-0.31514c-1.13484,-0.02337 -2.26393,0.55574 -3.38406,0.35659c-0.21111,-0.03753 -1.34307,-0.59249 -2.54861,-1.20374c-4.25052,0.30831 -7.54114,-1.0974 -11.82327,-1.79211c-3.30841,-0.53673 -3.78103,-0.13053 -6.99502,-1.76608c-1.29938,-0.66124 -3.01207,-1.06912 -3.68262,-2.39386c-0.37667,0.61987 -0.83558,1.17098 -1.32841,1.59173c-2.12497,1.81426 -9.39429,-1.78172 -11.03631,-3.44395c-0.39056,-0.39536 -0.64697,-0.89442 -0.87092,-1.41857c-0.14952,-0.13474 -0.26758,-0.26229 -0.34883,-0.37923c-0.36895,-0.53101 -0.52009,-1.15868 -0.59894,-1.81844l-0.59278,0.07571c-2.08868,0.23466 -4.26005,0.15364 -6.33469,-0.30485c-4.26683,0.30074 -8.62037,0.18538 -12.7855,-0.53684c-0.46008,3.08675 -0.13702,6.12056 -0.78398,9.32808c0.97658,7.35113 -0.48552,16.38117 3.55024,23.1156c0.65542,1.0937 1.86949,1.72439 2.62096,2.7503c1.6242,2.21735 2.47146,5.01954 4.9271,6.67043c0.87514,0.58835 2.0179,0.57435 2.96539,1.02533c5.40099,2.57075 11.08583,5.73223 17.12213,6.47761c1.58924,0.19624 3.20158,-0.03936 4.7965,0.0921c4.20295,0.34644 8.3622,1.31494 12.57721,0.74576c1.69426,-0.21009 3.37557,-0.58535 5.08281,-0.63026c0.96475,-0.02537 1.91375,0.54325 2.87073,0.42103c0.95697,-0.12222 1.73885,-0.88476 2.67273,-1.129c3.00371,-0.78556 6.26629,-0.4943 9.28662,-1.19633c5.07555,-1.17974 9.60756,-3.87875 14.40712,-5.79662c3.81995,-1.52643 7.87964,-3.48783 11.17797,-6.06313c5.62657,-4.39315 9.82218,-10.67476 13.24909,-16.91461c0.63838,-1.91861 1.7094,-3.67195 2.24034,-5.62618c0.99645,-3.66761 1.04436,-8.08866 1.4622,-11.87587c1.10666,-10.03041 1.21993,-19.595 -0.81986,-29.58478c-1.35881,-6.65473 -4.32594,-12.83245 -6.24113,-19.29724c0,0 -0.22468,-0.76248 -0.00591,-1.5545c-0.05697,-0.02783 -0.1114,-0.05735 -0.16341,-0.08841c-0.38994,0.52291 -0.77989,1.04583 -1.16983,1.56874l-0.66467,0.89137c0,0 -0.20176,0.27058 -0.55333,0.5329c-0.06136,0.10265 -0.10408,0.15993 -0.10408,0.15993c-0.35137,0.47121 -0.70277,0.94241 -1.05414,1.41361zM336.51275,161.55009c0.55394,-0.74282 1.10786,-1.48566 1.6618,-2.22848c0,0 0.20175,-0.27056 0.5533,-0.53287c0.06134,-0.10263 0.10404,-0.15989 0.10404,-0.15989l0.66474,-0.89145c0.8863,-1.18852 1.77259,-2.37703 2.65889,-3.56555c0,0 0.63848,-0.8562 1.62286,-0.99902c0.49153,-6.2386 0.04909,-13.26939 -2.42007,-18.90988c-1.01995,-2.32996 -2.34308,-4.48078 -3.84505,-6.49606c0.04253,0.43715 0.07763,0.84054 0.11337,1.18931c0.07093,0.34966 0.10805,0.81632 -0.0262,1.28628c-0.51053,6.08584 0.32012,12.12645 -1.67098,18.002c-1.22416,3.61242 -1.92613,3.15713 -4.10102,6.59375c-0.72811,1.15053 -1.4949,2.27865 -2.20135,3.44362c0.75908,1.34256 -0.2562,2.70403 -0.2562,2.70403v-0.00003c-1.32944,1.78276 -2.65886,3.56553 -3.98827,5.34832l-0.66475,0.8914c-0.44315,0.59427 -0.8863,1.18853 -1.32945,1.78279l-0.24333,0.32632c2.39221,-2.17643 4.82563,-4.11318 7.10604,-6.56592c0,0 1.67151,-1.7879 3.41432,-0.04245c0.30179,0.30224 0.5012,0.60576 0.62463,0.90104c0.25621,-0.109 0.51246,-0.21801 0.76877,-0.3271l1.01232,-0.7585c0,0 0.12838,-0.08877 0.34213,-0.18745zM320.21967,165.04228l0.66471,-0.89134c0.44315,-0.59427 0.8863,-1.18853 1.32945,-1.78279c0,0 0.00034,-0.00046 0.00104,-0.00136c0.91062,-1.22117 1.82124,-2.44233 2.73188,-3.66348c-0.19518,-0.29617 -0.4099,-0.58953 -0.64598,-0.87465c0.03775,-0.09452 0.07942,-0.18721 0.12599,-0.27763c0.96591,-1.8758 2.1725,-3.60683 3.29738,-5.38429c1.59171,-2.5151 2.82194,-3.09938 3.67302,-5.69008c1.77421,-5.40075 0.83468,-11.02394 1.40523,-16.63217l-0.21291,-0.47147c-0.52265,-1.16573 -1.09111,-2.31963 -1.69709,-3.46143c-0.68864,0.48853 -1.36355,1.12209 -2.14968,1.20925c-0.71902,0.07972 -4.48714,-0.85277 -5.48105,-1.01348c-2.32164,-0.3754 -3.60227,-0.3028 -5.82349,-0.9606c-10.79558,-3.19703 -21.03399,-8.45929 -32.21281,-10.31283c-3.11223,-0.51604 -6.32195,0.07168 -9.43758,-0.42059c-1.08483,-0.17141 -2.00536,-1.06227 -3.09727,-1.17022c-2.10988,-0.20859 -4.26954,0.3821 -6.35332,-0.02817c-1.6628,-0.21329 -4.15838,-1.26279 -6.29711,-1.54386c-0.06046,0.23876 -0.11364,0.48707 -0.15923,0.7456c0,0 -0.45656,2.44928 -2.82783,1.95516c-0.88031,-0.18344 -1.37088,-0.63634 -1.63977,-1.13334c-3.54398,2.98645 -4.4812,8.12106 -4.70414,12.69117c-0.32583,6.67957 0.69113,13.7219 2.3028,20.31054c1.11852,-0.31515 2.1331,0.4986 2.1331,0.4986c0.31323,0.25214 0.62197,0.50739 0.9271,0.76517c0.49156,0.00879 0.85966,0.14353 0.85966,0.14353l3.62241,1.36001c1.953,1.54349 4.10752,2.79103 6.15702,4.19328c3.3285,2.27735 6.16207,5.33277 9.48509,7.615c0.03927,0.02696 0.07866,0.05369 0.11819,0.08017c1.23331,0.21697 2.47319,0.39446 3.71418,0.55138l0.17599,-0.09772c0,0 0.67645,-0.08639 1.35776,0.20515c0.18816,-0.47575 0.3786,-0.94992 0.67899,-1.35105c0.5634,-0.75237 1.52171,-1.1171 2.08634,-1.86846c0.63104,-0.83973 0.62122,-2.18097 1.44005,-2.82418c1.24439,-0.97749 2.81578,-1.90173 4.37896,-1.74676c1.12827,0.11186 1.46535,1.89477 2.47902,2.42664c2.82723,1.48342 6.0519,-0.56626 8.58401,2.53004c0.26002,-0.08722 0.44471,-0.11081 0.44471,-0.11081c2.43714,-0.31126 9.40768,-2.33891 11.3678,0.40136c1.2079,1.68866 0.8301,4.1024 1.24514,6.1536l0.21091,1.65146c0.64272,0.13443 2.33112,0.48744 3.82168,0.79997l1.25488,-1.68282c0.22098,-0.29633 0.44194,-0.59265 0.66292,-0.88898c0.00119,-0.00164 0.00182,-0.00247 0.00182,-0.00247zM273.73355,165.47439c0,0 -1.58084,-0.32942 -1.9125,-1.78354c-1.29297,-1.01977 -2.53345,-2.1224 -3.78801,-3.20238c-0.05702,0.09584 -0.12178,0.19288 -0.19495,0.291c-1.46885,1.96971 -3.38557,0.43236 -3.38557,0.43236l-3.10581,-2.49107c-2.32609,-1.87031 -4.39861,-3.90961 -6.58069,-5.86334c0.24248,0.89553 0.50917,1.85816 0.76351,2.72128c0.4641,-0.01927 0.99473,0.12766 1.56503,0.58505c1.91676,1.53729 0.44796,3.50704 0.44796,3.50704l-0.1643,0.21111c0.68854,1.12977 1.43052,2.2301 1.99535,3.42799c0,0 1.05748,2.25592 -1.11349,3.33016c-2.17096,1.07423 -3.22845,-1.18169 -3.22845,-1.18169c-0.13331,-0.28632 -0.27753,-0.56667 -0.42922,-0.84292c-1.46638,2.51441 -3.05961,4.9087 -5.28142,6.9207c-5.67003,5.13456 -12.76256,8.6068 -19.99191,11.30813c1.2438,0.84602 2.40953,1.88084 3.818,2.63062c3.67406,1.95585 8.82892,1.63476 12.75619,1.81198c3.3601,0.15162 6.28652,1.16481 9.55108,1.48897c1.61741,0.1606 3.26491,-0.05157 4.86718,0.2341c0.51178,0.09125 0.94567,0.1952 1.32393,0.30739c-0.08318,0.1062 -0.16171,0.21598 -0.23645,0.32867c0.3332,-0.13053 0.5889,-0.16319 0.5889,-0.16319l0.82995,-0.106c0.50758,-2.32065 2.80494,-1.84189 2.80494,-1.84189c0.44457,0.09265 0.88917,0.1853 1.33374,0.27795c0.21068,-0.77936 0.47883,-1.56411 0.58529,-2.33368c0.93048,-0.53053 2.02679,-1.05197 3.21166,-1.48778c-1.91182,-1.83577 -3.06466,-4.25743 -2.3625,-6.92278c0.99135,-3.76313 6.33845,-1.75902 6.82816,-6.07703c-0.91929,-1.66634 0.57988,-3.0118 0.57988,-3.0118c0.62949,-0.56397 1.32076,-1.16889 2.00738,-1.79823c-1.36675,-0.1972 -2.72968,-0.42623 -4.08283,-0.70717zM266.66071,208.5549c1.40828,0.41409 3.94841,0.67405 4.48834,0.7607c1.49134,0.23933 3.79612,-0.70624 4.71565,0.28956c0.10672,-0.55473 0.15599,-1.10477 0.07482,-1.63961c-0.12195,-0.80358 -0.95568,-1.38132 -1.05618,-2.18788c-0.06874,-0.5516 -0.00608,-1.103 0.08204,-1.65518l-0.49296,0.04981c-2.63191,0.90534 -5.2545,1.78361 -7.89696,2.61025c0.31796,0.64711 0.24224,1.28943 0.08527,1.77235zM265.24516,201.24081c2.22643,-0.8898 4.48,-1.709 6.74558,-2.48835l2.9092,-1.16418c0,0 0.16598,-0.06637 0.42552,-0.11618c0.03352,-0.12668 0.04631,-0.25535 0.02444,-0.3877c-0.22658,-1.3717 -2.4092,-1.28609 -3.47518,-2.14107c-0.30069,-0.24117 -0.54255,-0.54611 -0.77211,-0.86468c-0.205,0.0828 -0.44001,0.1447 -0.70931,0.17909c-1.30571,0.16676 -1.99347,-0.49514 -2.34895,-1.13138c-0.00349,-0.00072 -0.00697,-0.00145 -0.01046,-0.00218c-0.62395,0.70806 -1.57229,0.82918 -1.57229,0.82918l-3.83034,0.48919c0,0 -2.22945,0.28473 -2.67002,-1.92404c-0.14152,0.25817 -0.29539,0.5073 -0.46981,0.74121c-0.15311,0.20532 -0.32313,0.3965 -0.50379,0.57863c-8.32273,-1.38069 -16.7282,-1.05769 -24.95628,-3.15947c-0.94955,-0.24255 -1.98285,-0.21822 -2.86271,-0.66351c-1.37292,-0.69482 -4.14023,-4.046 -6.19681,-3.67118c-0.58239,0.10615 -0.97531,0.72346 -1.54013,0.9027c-0.59244,0.18801 -1.36294,-0.21397 -1.85451,0.17456c-0.26185,0.20696 0.31092,0.61309 0.52302,0.87783c0.51455,0.64224 1.0987,1.22135 1.64806,1.83203c5.27674,11.25613 16.64135,14.33133 27.84336,13.95948c0.9864,-0.93621 2.40687,-0.41631 2.40687,-0.41631c1.55823,0.6108 3.28842,0.81048 4.96348,0.69367c0.52911,-0.70217 1.35916,-0.93541 1.35916,-0.93541c1.22013,-0.34266 2.43202,-0.69977 3.63866,-1.06877c0.45038,-0.78926 1.28536,-1.12318 1.28536,-1.12318zM295.42169,213.44156c1.74866,-0.22333 2.389,1.03962 2.60716,1.7367c0.16705,0.11531 0.33333,0.23284 0.49978,0.34951c0.53659,0.04551 1.37324,0.25742 1.85791,1.08655c0.27243,0.10616 0.5532,0.18497 0.84561,0.2258c0.91904,0.12834 1.81822,-0.44388 2.74451,-0.42611c3.13447,0.0601 5.3819,1.31779 8.62853,0.51106c1.76115,-0.43762 2.12929,-1.61378 3.65221,-2.66223c0.61072,-0.42045 1.45295,-0.44313 2.00512,-0.94246c0.81923,-0.74084 1.17177,-1.9371 1.99419,-2.67418c0.55581,-0.49814 1.49863,-0.387 2.02001,-0.92347c0.48792,-0.50206 0.48225,-1.33938 0.79572,-1.97386c2.03512,-4.1193 3.52968,-7.46677 4.37423,-11.99744c0,0 0.17068,-0.91563 0.84533,-1.51428c-0.03824,-0.40955 -0.08657,-0.81032 -0.14423,-1.20526c-0.90115,-0.43524 -1.28495,-1.44315 -1.28495,-1.44315l-1.10618,-2.92058c-0.71644,-1.35226 -1.66882,-2.5987 -2.14932,-4.0568c-0.09617,-0.29181 -0.14498,-0.59446 -0.17011,-0.90248l-1.02277,-2.24404c-0.01292,-0.10116 -0.02617,-0.20062 -0.0398,-0.29849c-2.3333,0.25178 -2.64412,-2.18196 -2.64412,-2.18196l-0.15575,-1.78834c-0.39048,-1.02545 -0.84795,-2.02678 -1.17145,-3.07636c-0.19863,-0.64447 0.12771,-1.5772 -0.38069,-1.99362c-0.00458,-0.00375 -0.00921,-0.00745 -0.01392,-0.01112c-0.5526,-0.42968 -1.37596,0.15823 -2.06203,0.09454c-0.10766,-0.00999 -0.21493,-0.02307 -0.32187,-0.03863c0.11743,0.34529 0.24204,0.68972 0.37524,1.03325l0.35098,2.1794c0,0 0.01096,0.08579 0.01339,0.22743l0.08796,0.56615c0,0 0.31671,2.47986 -2.07725,2.7856c-2.39396,0.30574 -2.71067,-2.17412 -2.71067,-2.17412l-0.01672,-0.39005c-0.74813,-2.54277 -1.53826,-5.07733 -2.48194,-7.55107c0,0 -0.43687,-1.1473 0.07739,-2.14229c-0.22693,-0.9284 -0.469,-1.86332 -0.74912,-2.80782c0,0 -0.09335,-0.31683 -0.10112,-0.75416c-0.79939,0.7856 -1.99731,0.63339 -1.99731,0.63339l-1.72486,-0.50817c-0.09245,0.01177 -0.18491,0.0235 -0.27736,0.03523c-0.32249,0.60077 -0.645,1.20153 -0.96749,1.8023c0,0 -0.35074,0.47034 -0.93309,0.77198c-0.10938,1.41123 -0.23534,2.77703 -0.09098,3.93195c0.09229,0.73836 0.81043,1.26607 1.00238,1.98449c0.24738,0.92589 -0.05835,1.97178 0.29253,2.86201c0.85658,2.17317 3.46758,3.98138 4.55439,6.29986c0.547,0.63973 1.09399,1.27947 1.64099,1.91919l0.88179,3.7049c0,0 0.31671,2.47986 -2.07725,2.7856c-2.39396,0.30574 -2.71067,-2.17412 -2.71067,-2.17412l0.2737,-1.05648c-0.67711,-0.81692 -1.35422,-1.63385 -2.03132,-2.45077c-1.23767,-2.64031 -3.81105,-4.4335 -4.93054,-7.00572c-0.46755,-1.07426 -0.2091,-2.35377 -0.51825,-3.48645c-0.24813,-0.90912 -1.01641,-1.64596 -1.13783,-2.58115c-0.28087,-2.16344 0.09971,-4.3656 -0.05864,-6.54121c-0.0494,-0.67877 0.34491,-1.44175 0.02733,-2.04026c-0.5443,-1.02576 -2.19261,-0.56755 -3.30443,-0.7669c-1.30496,-0.23398 -2.73023,-0.05825 -3.92053,-0.66546c-0.66495,-0.33921 -0.72135,-1.35098 -1.1934,-1.94332c-0.08806,-0.1105 0.03492,0.2948 -0.01468,0.42739c-0.29719,0.79449 -0.5166,1.65272 -1.01621,2.3285c-0.5648,0.76397 -1.53473,1.13285 -2.10459,1.89278c-0.56888,0.75862 -0.6781,1.81941 -1.24763,2.5775c-1.52284,2.027 -3.10941,3.4688 -4.85,5.02263c0.10431,0.57524 0.01544,1.05198 0.01544,1.05198c-0.51939,2.2832 -1.75544,4.59293 -3.59252,5.95835c-0.74519,0.55388 -1.59033,0.99358 -2.47567,1.2496c-0.32944,0.09527 -0.99105,-0.59794 -1.00335,-0.24353c-0.01537,0.44304 0.68144,0.549 0.98167,0.86823c3.24813,3.45376 5.7547,3.0968 9.16361,0.00476l2.47568,-1.24964c0,0 0.6616,-0.32738 1.43225,-0.24117c-0.22198,-1.48426 -0.40037,-3.03782 -0.61655,-4.73051c0,0 -0.31671,-2.47986 2.07725,-2.7856c2.39396,-0.30574 2.71067,2.17412 2.71067,2.17412c0.01241,0.0972 0.02459,0.19389 0.03657,0.29008c0.4542,3.34593 1.92724,5.91591 3.35612,8.96411l1.0701,2.28282c0,0 1.02592,2.18858 -1.01771,3.28091l0.01264,0.06392c0,0 0.31671,2.47986 -2.07725,2.7856c-2.39396,0.30574 -2.71067,-2.17412 -2.71067,-2.17412l0.08615,-0.688c-0.89744,-1.69748 -1.51687,-3.29046 -1.9728,-4.87719c-0.16021,0.11165 -0.27175,0.16684 -0.27175,0.16684l-1.91808,0.92454c-1.12245,0.99736 -1.88394,1.80265 -2.83527,2.39693c0.13984,0.34657 0.28925,0.68666 0.49079,0.98314c1.35133,1.98782 4.08919,4.77963 4.93055,7.00574c0.19326,0.51135 0.95283,6.6433 1.10663,7.8475l-0.05772,-0.96827c0,0 1.91673,1.53734 0.4479,3.50704c-1.46884,1.96972 -3.38557,0.43238 -3.38557,0.43238l-1.79252,-2.35968c-0.27349,-2.14143 0.05607,-4.42586 -0.71764,-6.43651c-0.29786,-0.77404 -1.19322,-1.14348 -1.64808,-1.83205c-0.97904,-1.4821 -1.97818,-2.95127 -2.90629,-4.46778c-0.30443,-0.49744 -0.10247,-1.28553 -0.52756,-1.6773c-0.324,-0.29861 -0.86534,0.03614 -1.29597,-0.00333c-2.13126,-0.19529 -3.66226,-0.34897 -5.66972,0.04546c0.39607,0.06682 0.8967,0.21005 1.11599,0.36668c0.76746,0.54815 1.099,1.59374 1.83616,2.18498c1.8382,1.47434 4.41892,2.55282 5.19897,4.8161c0.35087,1.01806 -0.38366,2.12829 -0.37897,3.20615c0.0045,1.03443 0.40441,2.04389 0.40633,3.07832c0.00179,0.96815 -0.52134,1.91137 -0.39534,2.87184c0.11366,0.86643 0.98796,1.50921 1.08401,2.37777c0.11823,1.06912 -0.23368,2.1391 -0.46894,3.18403c-0.1327,0.58939 -0.83649,1.12388 -0.62906,1.69288c0.15565,0.42697 0.88607,0.04935 1.30988,0.17467c0.97731,0.28899 1.88382,0.82126 2.87286,1.06215c2.98709,0.72758 6.31528,1.68718 9.54495,2.05324c0.09562,-0.75785 0.50459,-1.88025 2.06456,-2.07948zM349.28788,159.4677c1.93904,6.61933 4.9495,12.90953 6.34696,19.72192c2.15423,10.50149 2.05576,20.63833 0.89399,31.18829c-0.44874,4.07499 -0.55305,8.76367 -1.62592,12.71346c-0.59033,2.17329 -1.75334,4.13484 -2.46936,6.26624c-3.82624,7.04808 -8.52553,14.00854 -14.8718,18.93673c-3.58409,2.78322 -7.98209,4.93415 -12.11998,6.59028c-5.0795,2.033 -9.84977,4.78404 -15.22209,6.05241c-2.95253,0.69707 -6.16854,0.38534 -9.09906,1.15177c-1.1213,0.29325 -2.10398,1.09414 -3.25302,1.24089c-2.62984,0.33587 -5.32514,-0.1375 -7.95356,0.20923c-4.62735,0.56339 -9.08599,-0.35782 -13.69417,-0.73794c-1.61681,-0.13337 -3.25242,0.1098 -4.86227,-0.10002c-6.53833,-0.85216 -12.6947,-4.06387 -18.55117,-6.89676c-1.14957,-0.55607 -2.51243,-0.63657 -3.56856,-1.36613c-3.07491,-2.12414 -4.24535,-5.2191 -6.29265,-8.02662c-0.80876,-1.10906 -2.09507,-1.82058 -2.78628,-3.01113c-4.52346,-7.79142 -3.22358,-17.41656 -4.26542,-25.88908c0.62177,-3.54592 0.40424,-6.80058 0.90239,-10.25152c-7.19373,-2.20107 -13.42567,-6.62535 -17.07034,-14.40003c-1.64821,-2.06649 -3.72389,-3.84005 -2.74466,-6.94544c-0.35533,-0.26853 -0.67076,-0.69259 -0.86492,-1.35151c-0.70598,-2.39585 1.60335,-3.10513 1.60335,-3.10513c9.8256,-3.01781 20.53558,-6.67426 28.46066,-13.7462c2.47738,-2.21069 4.03725,-5.1412 5.62147,-8.03939c-0.89309,-2.26017 -1.99303,-6.75109 -2.5018,-8.56454c-2.27335,-8.10332 -3.81773,-17.04538 -3.41277,-25.49881c0.32438,-6.7713 1.70562,-11.48279 6.8656,-15.98211c0.88506,-0.77173 1.61506,-1.82392 2.69013,-2.27172c0.24193,-0.10077 0.48408,-0.18714 0.72646,-0.26043c0.29514,-0.71257 0.69232,-1.3744 1.25623,-1.93771c0.56621,-0.56561 8.13962,-5.0392 9.07219,-5.49473c9.45518,-4.61859 21.06577,-4.69656 31.34606,-4.24814l0.36819,-0.08131c0,0 2.39396,-0.30574 2.71067,2.17412c0.01525,0.11944 0.02422,0.23384 0.02747,0.3434c0.90973,-0.94288 2.30799,-0.56223 2.30799,-0.56223c5.79297,1.57705 11.70678,2.17211 16.8103,5.42743l2.39346,1.2345c0,0 1.27864,0.66137 1.38957,1.97988c2.90901,2.66178 5.4217,5.92305 7.74419,8.9375l1.08366,1.6516c0,0 0.03558,0.05468 0.08667,0.15223c1.15435,-0.19721 2.08611,0.73595 2.08611,0.73595c4.25161,4.2668 8.41225,9.0391 10.85532,14.72244c3.10001,7.21155 3.50153,15.9821 2.67381,23.69191l-0.17464,1.58421c0,0 -0.0233,0.21137 -0.116,0.50312c0.88603,0.50197 1.19753,1.55912 1.19753,1.55912zM319.71008,109.30785c0,0 -0.26691,-0.34964 -0.43441,-0.86934c-0.95313,-0.73615 -1.95191,-1.37543 -3.00197,-1.87704c-3.08902,-1.47563 -6.80066,-1.66428 -10.07149,-2.55007c0,0 -1.1039,-0.30051 -1.60265,-1.27141c-0.85245,-0.19134 -1.6987,-0.3933 -2.53174,-0.62009c0,0 -1.95575,-0.53243 -1.83701,-2.46951c-0.60989,0.54278 -1.38562,0.64185 -1.38562,0.64185l-1.16392,0.11436c-9.43111,-0.41796 -20.40711,-0.52131 -29.07977,3.77264c-2.19761,1.08807 -4.22848,1.9404 -5.79532,3.19525c1.42494,0.34119 2.84747,0.72969 4.2615,0.90757c1.9934,0.44474 4.07865,-0.20962 6.10638,-0.00648c1.20335,0.12056 2.24152,1.02868 3.43669,1.2213c3.08637,0.49744 6.26797,-0.0986 9.35338,0.40555c11.3528,1.85501 21.78446,7.11678 32.72109,10.42814c1.66591,0.5044 3.63912,0.57281 5.30692,0.8439c1.39081,0.22607 2.72865,1.20299 4.11713,0.98664c0.18891,-0.02944 0.37903,-0.06962 0.57005,-0.11793c-2.71951,-4.44869 -5.88579,-8.6995 -8.96925,-12.73533z" fill="#000000" stroke-width="0.5"></path>
        <path d="M319.75791,109.30135c3.08345,4.03583 6.24858,8.30642 8.96809,12.75511c-0.19101,0.04831 -0.38124,0.08886 -0.57015,0.1183c-1.38847,0.21635 -2.7264,-0.76024 -4.11722,-0.98631c-1.66779,-0.27109 -3.64141,-0.33813 -5.30732,-0.84253c-10.93664,-3.31135 -21.36771,-8.57522 -32.7205,-10.43023c-3.0854,-0.50415 -6.26593,0.0865 -9.3523,-0.41094c-1.19517,-0.19262 -2.23356,-1.09939 -3.43691,-1.21994c-2.02773,-0.20314 -4.11269,0.44926 -6.10609,0.00452c-1.41402,-0.17788 -2.93219,-0.5813 -4.35714,-0.92249c1.56683,-1.25485 3.59916,-2.11406 5.79677,-3.20213c8.67266,-4.29395 19.70386,-4.22511 29.13497,-3.80715l1.16819,-0.11329c0,0 0.7797,-0.09768 1.38959,-0.64046c-0.11874,1.93708 1.84615,2.47437 1.84615,2.47437c0.83305,0.22679 1.68632,0.43453 2.53876,0.62587c0.49875,0.9709 1.60742,1.27689 1.60742,1.27689c3.27083,0.88579 6.99083,1.09142 10.07985,2.56705c1.05006,0.50161 2.05,1.14604 3.00312,1.88219c0.16749,0.5197 0.43468,0.87116 0.43468,0.87116z" fill="#a86a00" stroke-width="0.5"></path>
        <path d="M320.25555,165.07608c0,0 -0.00063,0.00083 -0.00182,0.00247c-0.22098,0.29633 -0.44291,0.59371 -0.66389,0.89005l-1.25677,1.68474c-1.49057,-0.31253 -3.18137,-0.66336 -3.8241,-0.79779l-0.27307,-1.72851c-0.41505,-2.0512 0.02956,-4.39233 -1.17835,-6.081c-1.96012,-2.74027 -8.94515,-0.70179 -11.3823,-0.39053c0,0 -0.18566,0.02403 -0.44567,0.11126c-2.53211,-3.0963 -5.77697,-1.04242 -8.6042,-2.52584c-1.01367,-0.53187 -1.35915,-2.31569 -2.48743,-2.42755c-1.56317,-0.15497 -3.14528,0.76575 -4.38967,1.74324c-0.81883,0.64321 -0.80947,1.98423 -1.4405,2.82396c-0.56463,0.75136 -1.52513,1.11499 -2.08852,1.86736c-0.30039,0.40114 -0.49083,0.8753 -0.67899,1.35105c-0.68131,-0.29154 -1.35995,-0.20641 -1.35995,-0.20641l-0.17616,0.09761c-1.24099,-0.15692 -2.48603,-0.33809 -3.71934,-0.55506c-0.03952,-0.02649 -0.07911,-0.05338 -0.11838,-0.08034c-3.32301,-2.28223 -6.16941,-5.35367 -9.49792,-7.63102c-2.0495,-1.40226 -4.20754,-2.65867 -6.16054,-4.20216l-3.6232,-1.36301c0,0 -0.3682,-0.13516 -0.85976,-0.14395c-0.30514,-0.25777 -0.61412,-0.51419 -0.92736,-0.76633c0,0 -1.01478,-0.81482 -2.13329,-0.49967c-1.61167,-6.58864 -2.62741,-13.65401 -2.30158,-20.33358c0.22293,-4.57011 1.16621,-9.7181 4.71019,-12.70455c0.26889,0.497 0.75948,0.9499 1.63977,1.13334c2.37128,0.49413 2.82997,-1.95821 2.82997,-1.95821c0.04558,-0.25853 0.09924,-0.50745 0.1597,-0.74621c2.13874,0.28107 4.63678,1.32766 6.29958,1.54094c2.08378,0.41027 4.2483,-0.18504 6.35818,0.02356c1.0919,0.10795 2.0147,0.99705 3.09953,1.16846c3.11563,0.49227 6.33863,-0.10222 9.45087,0.41381c11.17882,1.85354 21.47416,7.13952 32.26974,10.33656c2.22121,0.65781 3.50415,0.59012 5.82579,0.96552c0.9939,0.16071 4.76337,1.09691 5.48239,1.01719c0.78613,-0.08716 1.46086,-0.72125 2.1495,-1.20978c0.60597,1.1418 1.17568,2.30004 1.69832,3.46577l0.21304,0.47204c-0.57055,5.60823 0.36954,11.25137 -1.40467,16.65212c-0.85108,2.5907 -2.08331,3.18293 -3.67502,5.69803c-1.12488,1.77746 -2.33477,3.51609 -3.30067,5.39189c-0.04657,0.09042 -0.08842,0.18346 -0.12618,0.27798c0.23608,0.28512 0.45053,0.57896 0.64571,0.87513c-0.91063,1.22115 -1.82448,2.44733 -2.7351,3.6685c-0.00069,0.0009 -0.00104,0.00136 -0.00104,0.00136c-0.44315,0.59427 -0.88809,1.19082 -1.33124,1.78509l-0.66564,0.89244z" fill="#c77e00" stroke-width="0.5"></path>
        <path d="M273.77968,165.46c1.35315,0.28095 2.717,0.51348 4.08375,0.71068c-0.68662,0.62935 -1.37737,1.23695 -2.00686,1.80092c0,0 -1.4985,1.35174 -0.57921,3.01807c-0.48971,4.31801 -5.83908,2.33158 -6.83043,6.09471c-0.70216,2.66536 0.44503,5.09913 2.35685,6.93491c-1.18487,0.43582 -2.28577,0.96333 -3.21625,1.49387c-0.10646,0.76957 -0.37805,1.55784 -0.58874,2.33719c-0.44457,-0.09265 -0.8907,-0.18394 -1.33528,-0.27659c0,0 -2.30419,-0.47395 -2.81175,1.84669l-0.83167,0.10695c0,0 -0.25706,0.03334 -0.59026,0.16388c0.07474,-0.1127 0.15409,-0.22288 0.23726,-0.32908c-0.37827,-0.11219 -0.81473,-0.21493 -1.32652,-0.30618c-1.60227,-0.28567 -3.26231,-0.07001 -4.87972,-0.23061c-3.26456,-0.32416 -6.21873,-1.34225 -9.57884,-1.49386c-3.92727,-0.17721 -9.10112,0.12645 -12.77518,-1.8294c-1.40846,-0.74978 -2.57794,-1.79167 -3.82174,-2.63769c7.22937,-2.70133 14.31772,-6.19788 19.98775,-11.33245c2.22182,-2.01199 3.87244,-4.45113 5.33882,-6.96554c0.1517,0.27625 0.3001,0.55768 0.43341,0.844c0,0 1.07797,2.26852 3.24892,1.19428c2.17096,-1.07424 1.05094,-3.25491 1.05094,-3.25491c-0.56483,-1.19789 -1.29437,-2.29125 -1.98291,-3.42103l0.164,-0.21123c0,0 1.47345,-1.96822 -0.44331,-3.50551c-0.5703,-0.45739 -1.09601,-0.60326 -1.5601,-0.58399c-0.25434,-0.86312 -0.51008,-1.9249 -0.75256,-2.82043c2.18207,1.95373 4.27647,4.00083 6.60256,5.87114l3.11534,2.49937c0,0 1.92007,1.54156 3.38892,-0.42815c0.07317,-0.09812 0.13775,-0.19541 0.19477,-0.29124c1.25458,1.07998 2.50076,2.1928 3.79373,3.21257c0.33166,1.45412 1.91433,1.78863 1.91433,1.78863z" fill="#805100" stroke-width="0.5"></path>
        <path d="M336.42708,162.40233c-0.21374,0.09868 -0.34337,0.1878 -0.34337,0.1878l-1.01606,0.75934c-0.25632,0.10909 -0.51518,0.21851 -0.77139,0.3275c-0.12344,-0.29528 -0.32459,-0.59861 -0.62638,-0.90086c-1.74281,-1.74545 -3.42601,0.04199 -3.42601,0.04199c-2.28041,2.45273 -4.72648,4.3855 -7.11869,6.56193l0.28293,-0.4171c0.44315,-0.59427 0.88517,-1.18904 1.32832,-1.78331l0.66409,-0.89168c1.32941,-1.78279 2.65238,-3.56776 3.98182,-5.35052v0.00003c0,0 1.01699,-1.36098 0.25792,-2.70355c0.70645,-1.16497 1.4642,-2.29489 2.19232,-3.44542c2.1749,-3.43662 2.82439,-2.93098 4.04856,-6.5434c1.99108,-5.87555 1.19492,-11.86902 1.70545,-17.95486c0.13425,-0.46996 0.09791,-0.93638 0.02698,-1.28604c-0.03574,-0.34877 -0.04573,-0.84842 -0.08826,-1.28558c1.50198,2.01528 2.83959,4.17288 3.85954,6.50284c2.46916,5.64049 2.9298,12.73194 2.43827,18.97054c-0.98438,0.14282 -1.6257,1.00506 -1.6257,1.00506c-0.8863,1.18852 -1.78468,2.3914 -2.67098,3.57992l-0.66825,0.89402c0,0 -0.04328,0.05765 -0.10462,0.16028c-0.35155,0.26231 -0.55588,0.53441 -0.55588,0.53441c-0.55394,0.74282 -1.11615,1.48927 -1.67009,2.2321z" fill="#503300" stroke-width="0.5"></path>
        <path d="M265.29024,201.25917c0,0 -0.83667,0.33791 -1.28705,1.12717c-1.20663,0.369 -2.42298,0.73369 -3.64311,1.07635c0,0 -0.83344,0.23749 -1.36255,0.93966c-1.67505,0.1168 -3.41592,-0.07398 -4.97415,-0.68478c0,0 -1.43093,-0.51514 -2.41734,0.42106c-11.20201,0.37185 -22.62868,-2.75953 -27.90542,-14.01565c-0.54936,-0.61068 -1.13303,-1.19244 -1.64758,-1.83468c-0.2121,-0.26474 -0.78458,-0.67212 -0.52274,-0.87908c0.49157,-0.38853 1.26234,0.0123 1.85479,-0.17571c0.56483,-0.17925 0.95843,-0.79897 1.54082,-0.90511c2.05659,-0.37483 4.91684,3.00414 6.28976,3.69896c0.87986,0.44529 1.81926,0.39676 2.7688,0.63932c8.22808,2.10177 16.72866,1.7879 25.05139,3.16859c0.18066,-0.18213 0.25456,-0.36476 0.40767,-0.57008c0.17442,-0.23391 0.4238,-0.49688 0.56532,-0.75505c0.44055,2.20877 2.67076,1.93221 2.67076,1.93221l3.73378,-0.48754c0,0 0.94844,-0.11917 1.5724,-0.82723c0.00349,0.00073 0.10327,-0.00536 0.10676,-0.00463c0.35548,0.63624 1.04338,1.30101 2.34908,1.13426c0.2693,-0.03439 0.50429,-0.09666 0.70929,-0.17946c0.22956,0.31858 0.47143,0.62535 0.77212,0.86652c1.06598,0.85498 3.24842,0.77311 3.475,2.14481c0.02187,0.13235 0.00901,0.26172 -0.02451,0.38839c-0.25955,0.04981 -0.42556,0.11648 -0.42556,0.11648l-2.90961,1.16722c-2.26558,0.77935 -4.52172,1.60822 -6.74814,2.49802z" fill="#503300" stroke-width="0.5"></path>
        <path d="M266.52748,206.77616c2.64246,-0.82664 5.34787,-1.73278 7.97979,-2.63812l0.49493,-0.04751c-0.08811,0.55218 -0.14328,1.11611 -0.07456,1.6677c0.1005,0.80656 0.93794,1.40948 1.05989,2.21306c0.08117,0.53484 0.02796,1.09996 -0.07877,1.65469c-0.91952,-0.9958 -3.26945,-0.02111 -4.7608,-0.26044c-0.53993,-0.08665 -3.12577,-0.38459 -4.53405,-0.79868c0.15696,-0.48292 0.23152,-1.14358 -0.08643,-1.7907z" fill="#6ba3a7" stroke-width="0.25"></path>
        <path d="M295.41351,213.49075c-1.55997,0.19923 -1.97185,1.32099 -2.06748,2.07884c-3.22967,-0.36606 -6.57277,-1.33232 -9.55987,-2.05991c-0.98902,-0.2409 -1.8994,-0.77603 -2.87671,-1.06502c-0.42381,-0.12532 -1.15558,0.25115 -1.31124,-0.17582c-0.20743,-0.56901 0.49564,-1.10416 0.62834,-1.69355c0.23525,-1.04493 0.58496,-2.11709 0.46671,-3.18621c-0.09606,-0.86856 -0.97334,-1.51476 -1.08701,-2.38119c-0.126,-0.96048 0.39482,-1.90683 0.39303,-2.87498c-0.00191,-1.03442 -0.40481,-2.04889 -0.40931,-3.08332c-0.00469,-1.07786 0.72739,-2.19358 0.3765,-3.21164c-0.78006,-2.26328 -3.36377,-3.35386 -5.20197,-4.8282c-0.73716,-0.59124 -1.06905,-1.64114 -1.8365,-2.18929c-0.21929,-0.15662 -0.71996,-0.30055 -1.11602,-0.36738c2.00747,-0.39443 3.63503,-0.24255 5.76629,-0.04726c0.43064,0.03946 0.97197,-0.29535 1.29597,0.00327c0.4251,0.39177 0.22286,1.17587 0.5273,1.67331c0.92811,1.51651 1.92447,2.97357 2.90351,4.45567c0.45486,0.68857 1.34775,1.05228 1.64561,1.82632c0.7737,2.01064 0.43615,4.28357 0.70964,6.425l1.78769,2.3551c0,0 1.91176,1.53373 3.3806,-0.43599c1.46884,-1.96971 -0.50296,-3.42569 -0.50296,-3.42569l0.05912,0.96939c-0.15379,-1.20421 -0.92692,-7.35226 -1.12018,-7.86361c-0.84136,-2.22611 -3.58526,-5.04355 -4.93658,-7.03137c-0.20154,-0.29648 -0.35081,-0.63933 -0.49063,-0.9859c0.95133,-0.59428 1.71431,-1.40835 2.83676,-2.40572l1.91969,-0.92961c0,0 0.20129,-0.01742 0.36148,-0.12906c0.45594,1.58673 1.07896,3.16137 1.9764,4.85886l-0.08623,0.68462c0,0 0.31381,2.46536 2.70777,2.15962c2.39396,-0.30574 1.98364,-2.76995 1.98364,-2.76995l-0.01263,-0.06453c2.04362,-1.09234 1.02859,-3.31106 1.02859,-3.31106l-1.0656,-2.28774c-1.42888,-3.0482 -2.89387,-5.62438 -3.34808,-8.9703c-0.01198,-0.0962 -0.02388,-0.19305 -0.03629,-0.29025c0,0 -0.26497,-2.39505 -2.65894,-2.08931c-2.39396,0.30574 -2.07088,2.78031 -2.07088,2.78031c0.21618,1.69268 0.40011,3.23972 0.62207,4.72397c-0.77064,-0.08622 -1.43056,0.23861 -1.43056,0.23861l-2.47266,1.244c-3.40892,3.09204 -6.00553,3.41275 -9.25366,-0.04101c-0.30023,-0.31924 -0.99678,-0.42607 -0.98141,-0.86911c0.0123,-0.3544 0.67396,0.33866 1.0034,0.24339c0.88534,-0.25602 1.73175,-0.69932 2.47693,-1.25319c1.83708,-1.36542 3.07972,-3.68686 3.5991,-5.97006c0,0 0.0898,-0.47794 -0.0145,-1.05318c1.74059,-1.55382 3.33666,-3.0046 4.8595,-5.0316c0.56953,-0.75809 0.68242,-1.82126 1.2513,-2.57988c0.56985,-0.75992 1.544,-1.131 2.1088,-1.89497c0.49961,-0.67578 0.72181,-1.53517 1.019,-2.32966c0.04961,-0.13259 -0.07315,-0.53798 0.01491,-0.42748c0.47206,0.59234 0.52923,1.60383 1.19417,1.94304c1.1903,0.60721 2.62177,0.42975 3.92672,0.66373c1.11182,0.19935 2.76603,-0.25969 3.31032,0.76607c0.31759,0.59851 -0.0685,1.46114 -0.01909,2.13991c0.15835,2.17561 -0.23229,4.27829 0.04859,6.44173c0.12141,0.93519 0.8925,1.67179 1.14063,2.58091c0.30915,1.13267 0.05207,2.41213 0.51963,3.4864c1.11949,2.57222 3.73009,4.38198 4.96776,7.0223c0.67711,0.81692 1.3651,1.65431 2.04221,2.47123l-0.27233,1.06351c0,0 0.22097,2.47835 2.61493,2.17261c2.39396,-0.30574 2.07718,-2.77223 2.07718,-2.77223l-0.87726,-3.68931c-0.547,-0.63973 -1.08839,-1.27024 -1.63538,-1.90997c-1.08681,-2.31848 -3.67449,-4.10993 -4.53107,-6.28311c-0.35089,-0.89023 -0.04195,-1.93518 -0.28933,-2.86107c-0.19195,-0.71842 -0.9063,-1.24533 -0.99859,-1.98369c-0.14436,-1.15492 -0.00456,-2.6195 0.10482,-4.03072c0.58235,-0.30163 0.93484,-0.77169 0.93484,-0.77169c0.32249,-0.60077 0.64628,-1.20127 0.96877,-1.80204c0.09245,-0.01173 0.18542,-0.02335 0.27787,-0.03511l1.72829,0.50908c0,0 1.20107,0.15329 2.00045,-0.63231c0.00777,0.43733 0.10175,0.7544 0.10175,0.7544c0.28013,0.9445 0.52543,1.88087 0.75237,2.80927c-0.51426,0.995 -0.07571,2.14316 -0.07571,2.14316c0.94368,2.47374 1.74695,5.01864 2.49509,7.56141l0.01729,0.39071c0,0 0.32237,2.48779 2.71633,2.18205c2.39396,-0.30574 1.99603,-2.73233 1.99603,-2.73233l-0.08729,-0.56515c-0.00243,-0.14163 -0.01314,-0.22706 -0.01314,-0.22706l-0.34833,-2.17597c-0.1332,-0.34352 -0.25634,-0.68628 -0.37378,-1.03159c0.10694,0.01556 0.28409,-0.03971 0.39175,-0.02972c0.68607,0.06369 1.51123,-0.52213 2.06381,-0.09245c0.00471,0.00366 0.00936,0.00739 0.01394,0.01114c0.5084,0.41643 0.18427,1.3521 0.3829,1.99657c0.3235,1.04958 0.78447,2.05676 1.17495,3.08222l0.15729,1.79162c0,0 0.31291,2.43965 2.64621,2.18787c0.01361,0.09787 0.02705,0.19792 0.03997,0.29908l1.02383,2.2488c0.02514,0.30802 0.07423,0.61248 0.1704,0.90429c0.4805,1.4581 1.43336,2.71253 2.14981,4.06479l1.10585,2.92567c0,0 0.38351,1.00999 1.28467,1.44524c0.05765,0.39494 0.10565,0.7976 0.14389,1.20715c-0.67465,0.59865 -0.84595,1.51701 -0.84595,1.51701c-0.84455,4.53068 -2.34825,7.8968 -4.38336,12.0161c-0.31346,0.63448 -0.30984,1.47423 -0.79776,1.97629c-0.52136,0.53647 -1.4665,0.42774 -2.02231,0.92588c-0.82242,0.73708 -1.17885,1.93674 -1.99808,2.67758c-0.55217,0.49933 -1.3972,0.52406 -2.00794,0.94449c-1.52291,1.04845 -1.89723,2.22811 -3.65838,2.66573c-3.24662,0.80674 -5.50689,-0.44702 -8.64137,-0.50713c-0.92628,-0.01777 -1.83026,0.55493 -2.74929,0.42659c-0.29241,-0.04084 -0.57463,-0.1196 -0.84706,-0.22575c-0.48467,-0.82913 -1.32464,-1.04109 -1.86123,-1.08661c-0.16645,-0.11667 -0.33367,-0.23426 -0.50072,-0.34956c-0.21816,-0.69708 -0.86369,-1.9607 -2.61236,-1.73737z" fill="#a2f9ff" stroke-width="0.25"></path>
      </g>
      <g>
        <path d="M182.01717,238.60167c0,0 -2.07486,-0.18241 -2.60333,1.67823c-2.54123,-0.35906 -4.55907,-2.44516 -6.80543,-4.2906c-1.48487,-1.21986 -3.40371,-1.84987 -4.88298,-3.07651c-0.71581,-0.59355 -1.09651,-1.52278 -1.78342,-2.14956c-0.50563,-0.46137 -1.34878,-0.52298 -1.75006,-1.07751c-0.96913,-1.33926 -0.85329,-3.20188 -1.35345,-4.77753c-0.91694,-2.8886 -1.55353,-6.25133 -0.24205,-9.15476c0.90523,-2.00402 2.45353,-3.68555 3.33358,-5.70075c0.82755,-1.89501 1.40319,-3.92643 2.45848,-5.7047c2.25553,-4.33791 3.60285,-9.52752 7.011,-13.23437c2.27445,-2.47379 6.00188,-3.50167 8.73184,-5.28575c2.52301,-1.64883 4.45294,-4.28144 7.05591,-5.81737c0.77221,-0.45565 1.59432,0.24162 2.01242,0.76259c0.93351,1.16318 4.03136,5.01743 3.25602,7.19144c-0.3254,0.91242 -1.1466,1.57716 -1.53382,2.46511c-1.80409,4.13711 -2.63184,8.98719 -3.90223,13.32818c-0.78164,2.76255 -1.47597,3.88431 -0.8448,6.77449c0.30803,1.41051 0.93807,2.71789 1.49464,4.05005c0.20512,0.49093 0.84487,0.85219 0.78706,1.38111c-0.18946,1.7334 -6.17351,0.93285 -6.79342,-0.05658c-0.87989,-1.40438 -0.24454,-3.34841 0.00374,-4.98695c0.30206,-1.9934 0.3714,-4.05946 0.95501,-5.98931l0.9037,-3.07753c0,0 0.3388,-1.15216 -0.25004,-2.09279c0.02842,-0.16707 0.03299,-0.27313 0.03299,-0.27313c0.00111,-0.8087 0.00498,-1.61982 0.0061,-2.42851l1.09556,-1.57721c0.16537,-0.22689 0.29635,-0.48658 0.37975,-0.77155c0.3878,-1.32513 -0.31836,-2.62938 -1.64349,-3.01718c-0.84604,-0.24759 -1.71467,-0.02962 -2.33548,0.50686l-2.1761,1.82586c0,0 -1.91164,1.60331 -0.30476,3.5185c0.05299,0.06317 0.10635,0.12245 0.15994,0.17813c-0.03531,0.54542 -0.06895,1.08884 -0.10425,1.63426c0,0 -0.02794,0.73046 0.34159,1.41768l-0.81888,2.80434c-1.35764,4.76862 -3.17599,10.91161 -0.09168,15.3867c2.24741,3.26082 7.44323,3.85494 11.27673,2.24552c-0.04932,0.04579 -0.17945,0.15066 -0.23012,0.19504c-1.39123,1.21852 -3.32077,1.67777 -4.45148,3.14124c-0.9891,1.28019 -1.00831,3.07065 -1.51025,4.6086c0,0 -0.70803,2.39419 1.69134,3.09637c2.39936,0.70217 3.04466,-1.61503 3.04466,-1.61503c0.24705,-1.02138 0.12657,-2.3379 0.79747,-3.14668c0.94815,-1.14303 2.63465,-1.41355 3.76404,-2.3779c1.2495,-1.06691 2.02269,-2.62158 3.29155,-3.66539c2.79,-2.29516 6.13928,-3.66875 9.60957,-4.26006l-0.37877,0.16226c0,0 1.16045,0.34493 2.1038,-0.25685c1.5131,0.35984 3.02707,1.02666 4.49954,1.88914c0.08865,0.23637 0.22203,0.48484 0.41272,0.73957c0.32297,0.43143 0.66879,0.70162 1.01343,0.85786l0.38288,0.47028c0,0 1.51332,1.88004 3.42848,0.27312c1.17882,-0.98909 1.02137,-2.08798 0.72748,-2.79214c3.77341,-3.00243 7.21426,-5.95973 12.01758,-7.52169l2.76016,0.12855c0.51643,0.21736 0.97513,0.23606 0.97513,0.23606c0.69842,-0.02891 4.17637,-0.71572 4.09198,1.45931c-0.00654,0.16847 -0.03435,0.33126 -0.07923,0.4884c-0.11162,-0.00079 -0.22842,0.00437 -0.35067,0.01613c-2.48854,0.23913 -2.24941,2.73126 -2.24941,2.73126c0.0623,0.47634 0.18024,0.95532 0.28596,1.43222l-0.53033,1.62161c0,0 -0.27984,0.85967 0.01184,1.71243c-0.17072,0.20174 -0.34947,0.4011 -0.50747,0.60691c-1.86138,-0.70886 -2.93748,1.13065 -2.93748,1.13065c-1.43317,2.65353 -3.17449,3.67148 -5.56434,3.93878c-0.71195,-0.33928 -1.45271,-0.2676 -1.45271,-0.2676c-0.59811,0.05762 -1.19713,0.11604 -1.79576,0.17003l-0.55947,-0.21027c0,0 -1.37254,-0.39872 -2.34514,0.44202c-0.62481,0.04022 -1.2511,0.07518 -1.87673,0.09857l-3.20215,-0.12573c0,0 -0.60799,-0.02218 -1.23519,0.25224c-1.33154,-0.06075 -2.67038,-0.10519 -4.01948,-0.05762l0.05247,1.78193c-2.2282,0.25218 -2.14962,2.57625 -2.14962,2.57625c0.06503,0.98234 0.26197,1.97014 0.31415,2.95207c-0.64887,1.00252 -1.39779,1.88789 -2.2173,2.67783c-0.00093,-0.0011 -0.00185,-0.00221 -0.00278,-0.00331c-1.6069,-1.91517 -3.52934,-0.30654 -3.52934,-0.30654c-0.72062,0.60463 -1.45771,1.18382 -2.20396,1.72746c-0.87986,-0.77766 -2.14951,-0.54879 -2.14951,-0.54879l-3.4718,0.62658c-5.37791,0.72113 -9.95535,0.77835 -15.35211,0.30597z" fill="#a2f9ff" stroke-width="0.25"></path>
        <path d="M232.88695,224.79314c0.87787,2.34079 -1.46293,3.21867 -1.46293,3.21867c-3.79205,1.4171 -7.40326,2.29524 -11.35051,3.18475l-3.15074,0.3838c0,0 -2.239,0.2704 -2.72065,-1.82902c-0.77684,-0.06058 -1.57991,-0.16216 -2.42111,-0.31159c0,0 -2.45732,-0.45994 -1.99738,-2.91728c0.45994,-2.45732 2.91728,-1.99738 2.91728,-1.99738c4.52459,0.9012 7.70901,-0.11752 12.22079,-1.10139l3.1244,-0.74609c0,0 1.34098,-0.32017 2.26906,0.51085c0.75922,-0.085 1.98848,0.04926 2.5718,1.60468z" fill="#75b3b7" stroke-width="0.5"></path>
        <path d="M177.96844,240.37322c-3.99879,-2.43558 -6.78192,-4.07351 -9.42266,-7.92278c0,0 -0.21834,-0.32513 -0.35348,-0.80445c-1.21458,-1.14978 -2.24955,-2.3779 -3.09728,-3.73038c-1.48626,-0.2371 -1.91136,-1.86307 -1.91136,-1.86307l-1.25965,-5.05709c0.13473,-0.77638 0.27411,-1.58003 0.42202,-2.40339c-0.0073,-0.12975 -0.01374,-0.2604 -0.01931,-0.39197c0,0 -0.02788,-0.75216 0.35966,-1.44637c1.55319,-8.10689 4.14669,-17.50805 11.18134,-21.5981c0,0 2.19312,-1.2001 3.39321,0.99302c1.2001,2.19312 -0.99302,3.39321 -0.99302,3.39321c-2.54457,1.25674 -3.52552,3.3808 -4.77106,5.96081c-2.06936,4.28646 -3.17159,8.66558 -4.14022,13.22333c0.02887,0.45199 0.07186,0.88806 0.1288,1.30938c0.23093,-0.47332 0.66885,-0.91891 1.46405,-1.18777c2.36831,-0.80071 3.16901,1.5676 3.16901,1.5676c1.14344,3.40496 2.527,7.18095 4.46579,10.53799c3.05918,1.49341 6.61648,2.26588 10.0961,3.08134l0.79636,0.18736c0,0 2.43356,0.57254 1.86102,3.00609c-0.27604,1.17332 -0.98471,1.64784 -1.64465,1.82465c0.4906,0.37453 0.89848,0.99852 0.8572,2.03733c-0.09928,2.49803 -2.59731,2.39875 -2.59731,2.39875l-3.89879,-0.22965c-1.45528,-0.83501 -2.77292,-1.79277 -3.97209,-2.85196z" fill="#75b3b7" stroke-width="0.5"></path>
        <path d="M223.8619,199.68342c0,0 0.12753,-0.29417 0.39658,-0.62615c-0.66135,-0.30833 -1.29599,-0.67001 -1.89579,-1.08606l-1.52595,-0.42753c0.39179,1.85812 1.11928,3.46164 1.89221,5.0638c0.3429,-0.98927 0.72169,-1.96521 1.13295,-2.92407zM228.44939,201.67213c-1.02383,2.33345 -1.81585,4.79369 -2.29804,7.30066c1.97786,-1.17477 4.10179,-2.17979 6.54864,-2.9271l3.7237,0.1113c0,0 0.46853,0.01863 0.99169,0.24264c3.90778,0.29683 7.34728,-0.26198 8.60586,5.64075c0.43495,2.03991 -1.47139,3.90342 -2.20708,5.85513l-0.08347,0.2572c0.11305,0.83975 0.17142,1.6764 0.01674,2.50093c-0.72921,3.8871 -5.02333,7.99812 -7.59014,10.7844l-2.62084,1.5825c0,0 -2.19312,1.2001 -3.39321,-0.99302c-0.11409,-0.20849 -0.19751,-0.408 -0.25506,-0.59835c-1.25364,0.12881 -2.53094,0.13645 -3.79351,0.09871l-0.39372,-0.10091c-0.84213,0.0712 -1.68483,0.13538 -2.52813,0.18801c-0.59204,0.30364 -1.17458,0.32524 -1.17458,0.32524c-1.97284,0.0696 -3.91267,-0.06947 -5.86114,-0.14572c0.01899,0.20313 0.01315,0.41087 -0.01976,0.61912c0.78577,1.15164 0.06335,2.53222 0.06335,2.53222c-0.11297,0.20905 -0.228,0.41443 -0.34504,0.61628c-0.02022,0.38717 -0.06415,0.77212 -0.14215,1.15391c-0.3784,1.85221 -4.63369,5.97519 -5.41392,6.81796l-1.70623,1.20334c0,0 -1.50921,0.98642 -2.80199,0.0022c-1.49196,0.78336 -3.0767,1.49929 -4.74437,2.19941l-3.07643,0.98917c0,0 -1.7874,0.57334 -2.76141,-0.82241c-1.73889,0.34873 -3.5543,0.50887 -5.46101,0.45321l-3.29582,-0.13092c0,0 -2.49803,-0.09924 -2.3988,-2.59726c0.00323,-0.08124 0.00899,-0.15974 0.01713,-0.23558c-0.10036,0.04229 -0.162,0.06158 -0.162,0.06158c-1.15874,0.32519 -2.27284,0.99233 -3.47623,0.97555c-4.40884,-0.06145 -7.78723,-3.20143 -10.89743,-5.77633c-2.35498,-1.94965 -4.66953,-3.32169 -6.89722,-5.4193c-0.73083,-0.68815 -1.83941,-0.98106 -2.4082,-1.80819c-0.31959,-0.46474 -1.8271,-5.3741 -2.09447,-6.23942c-1.28254,-4.15081 -1.80164,-8.47348 -0.05986,-12.61693c0.85216,-2.02715 2.4645,-3.67281 3.33316,-5.69294c0.88173,-2.05053 1.55614,-4.20716 2.67409,-6.13909c2.47808,-4.70083 3.9296,-10.15043 7.6804,-14.16284c2.69492,-2.8829 6.36939,-3.94134 9.59366,-6.03495c2.8001,-1.81819 4.99134,-5.22072 8.19858,-6.39795c1.79521,-0.65894 3.55766,-0.43629 5.15517,0.35765c0.66207,-0.43392 1.4095,-0.46163 1.4095,-0.46163c2.01823,-0.05255 4.0069,0.50465 6.00065,0.82251c1.39498,0.2224 4.74517,-0.71796 5.62537,-0.74704c1.22852,-0.04059 2.4542,0.61736 3.66513,0.40626c2.60753,-0.45458 4.1151,-4.8628 7.76345,-2.02877c1.18333,0.91921 0.69554,5.65483 0.92806,7.53924c0.07776,0.63018 0.13524,1.26249 0.17749,1.89633c3.5833,-0.57349 7.66403,-0.40116 10.69268,-2.11128c2.67009,-1.50765 6.64931,-5.06535 10.22402,-4.36587c7.01732,1.37311 5.42525,11.15756 3.33947,15.64608c-2.74017,5.89675 -9.65085,8.76735 -15.86404,7.99938c0.07095,0.74374 -0.20269,1.37497 -0.20269,1.37497zM182.04903,238.56317c5.39676,0.47238 9.95141,0.40451 15.32932,-0.31662l3.46461,-0.62737c0,0 1.26502,-0.22882 2.14488,0.54883c0.74625,-0.54364 1.47814,-1.12227 2.19876,-1.7269c0,0 1.91517,-1.6069 3.52207,0.30827c0.00093,0.0011 0.00185,0.00221 0.00278,0.00331c0.81951,-0.78994 1.56207,-1.67279 2.21093,-2.67531c-0.05218,-0.98193 -0.25148,-1.96853 -0.31651,-2.95086c0,0 -0.08595,-2.31917 2.14226,-2.57134l-0.05498,-1.77978c1.3491,-0.04757 2.68275,0.00242 4.01429,0.06317c0.62719,-0.27442 1.23372,-0.25032 1.23372,-0.25032l3.19999,0.12897c0.62563,-0.02339 1.25082,-0.05648 1.87563,-0.09669c0.9726,-0.84074 2.34381,-0.43946 2.34381,-0.43946l0.55943,0.21037c0.59863,-0.05399 1.19698,-0.11093 1.79509,-0.16855c0,0 0.74053,-0.07116 1.45248,0.26812c2.38985,-0.26729 4.12851,-1.2771 5.56167,-3.93063c0,0 1.0756,-1.83714 2.93698,-1.12828c0.158,-0.20581 0.33658,-0.40426 0.50731,-0.606c-0.29168,-0.85276 -0.01216,-1.71016 -0.01216,-1.71016l0.53011,-1.61937c-0.10573,-0.4769 -0.22377,-0.95397 -0.28606,-1.43031c0,0 -0.23913,-2.48854 2.24941,-2.72767c0.12224,-0.01175 0.23905,-0.01691 0.35067,-0.01612c0.04487,-0.15714 0.07271,-0.31931 0.07925,-0.48779c0.08438,-2.17502 -3.39339,-1.48588 -4.09181,-1.45697c0,0 -0.45865,-0.01823 -0.97508,-0.23558l-2.6608,-0.13982c-4.80332,1.56196 -8.2447,4.53457 -12.0181,7.53701c0.29389,0.70416 0.44947,1.81003 -0.72935,2.79912c-1.91516,1.60692 -3.52208,-0.30823 -3.52208,-0.30823l-0.38321,-0.46944c-0.34464,-0.15625 -0.69097,-0.42505 -1.01394,-0.85648c-0.19069,-0.25473 -0.32468,-0.50132 -0.41333,-0.7377c-1.47247,-0.86248 -2.89015,-1.50244 -4.40325,-1.86228c-0.94333,0.60178 -2.10529,0.26173 -2.10529,0.26173l0.37936,-0.16397c-3.47029,0.59132 -6.88298,1.99697 -9.67299,4.29213c-1.26885,1.04382 -2.04977,2.59516 -3.29927,3.66207c-1.12939,0.96435 -2.82183,1.23114 -3.76998,2.37417c-0.6709,0.80878 -0.49408,2.04275 -0.74113,3.06412c0,0 -0.70217,2.39936 -3.10154,1.69719c-2.39936,-0.70217 -1.69719,-3.10154 -1.69719,-3.10154c0.50194,-1.53795 0.51672,-3.33365 1.50582,-4.61385c1.13071,-1.46348 3.14064,-1.9822 4.53187,-3.20072c0.05067,-0.04437 0.10063,-0.08949 0.14994,-0.13528c-3.83349,1.60942 -9.03813,0.9957 -11.28555,-2.26512c-3.08431,-4.47509 -1.26051,-10.65298 0.09713,-15.42159l0.82217,-2.8094c-0.36953,-0.68722 -0.34044,-1.41918 -0.34044,-1.41918c0.03531,-0.54542 0.07062,-1.09082 0.10593,-1.63624c-0.05359,-0.05568 -0.10691,-0.11501 -0.1599,-0.17817c-1.60689,-1.91518 0.30828,-3.52207 0.30828,-3.52207l2.17998,-1.82907c0.62081,-0.53648 1.49272,-0.75671 2.33877,-0.50911c1.32513,0.3878 2.08499,1.77641 1.69719,3.10154c-0.0834,0.28497 -0.21307,0.54378 -0.37844,0.77068l-1.09241,1.57485c-0.00111,0.8087 -0.00223,1.61741 -0.00335,2.42611c0,0 -0.0042,0.10571 -0.03262,0.27278c0.58884,0.94063 0.25235,2.09043 0.25235,2.09043l-0.89879,3.0712c-0.58361,1.92985 -0.6462,3.98028 -0.94826,5.97369c-0.24828,1.63855 -0.88236,3.56738 -0.00247,4.97176c0.61991,0.98943 6.50447,1.79965 6.69393,0.06625c0.05781,-0.52891 -0.58232,-0.89749 -0.78744,-1.38843c-0.55657,-1.33216 -1.18351,-2.65581 -1.49155,-4.06632c-0.63116,-2.89018 0.07528,-4.0305 0.85693,-6.79305c1.27039,-4.34099 2.1195,-9.20331 3.92359,-13.34042c0.38721,-0.88795 1.21222,-1.55359 1.53762,-2.46602c0.77533,-2.17401 -2.30079,-5.93069 -3.23429,-7.09386c-0.4181,-0.52097 -1.23787,-1.2189 -2.01008,-0.76324c-2.60298,1.53593 -4.52144,4.16343 -7.04444,5.81226c-2.72995,1.78408 -6.44617,2.80267 -8.72062,5.27645c-3.40815,3.70685 -4.74491,8.87797 -7.00044,13.21588c-1.05529,1.77827 -1.62907,3.80131 -2.45662,5.69632c-0.88004,2.0152 -2.42793,3.68893 -3.33316,5.69295c-1.31149,2.90343 -0.67649,6.25479 0.24045,9.14339c0.50016,1.57565 0.38241,3.4324 1.35154,4.77167c0.40127,0.55453 1.24361,0.61421 1.74924,1.07557c0.68691,0.62677 1.06606,1.55286 1.78187,2.14642c1.47927,1.22663 3.39441,1.85074 4.87928,3.0706c2.24636,1.84544 4.25671,3.92334 6.79794,4.2824c0.52847,-1.86064 2.60228,-1.67912 2.60228,-1.67912zM203.11949,196.4369l0.7369,-2.51802c-0.44709,-0.47361 -0.91988,-0.9243 -1.41823,-1.34231c-0.6438,0.19785 -1.80497,0.33964 -2.65069,-0.77527c-0.10691,0.18191 -0.20485,0.36782 -0.28781,0.56032c-1.70577,3.95754 -2.50217,8.61672 -3.71605,12.76462c-0.45553,1.49252 -1.17915,2.81754 -0.75327,4.40555c0.3407,1.27037 2.49716,5.66753 2.30458,7.30452c2.33178,-1.69307 4.88038,-2.90437 7.57261,-3.73076c0.31774,-0.65288 0.89236,-0.98137 1.37009,-1.14629c-4.36951,-4.71177 -4.87003,-9.55464 -3.15813,-15.52238zM204.13456,187.59437c1.64269,1.15838 3.12038,2.56792 4.42293,4.09881c0,0 1.17863,1.40471 0.31403,2.81746c-0.02593,0.16175 -0.05453,0.25945 -0.05453,0.25945l-0.89878,3.07117c-1.27609,4.25807 -1.20416,7.38195 2.10807,10.81294c2.61382,2.70754 10.46764,6.24639 9.88294,-0.32443c-0.47763,-1.59765 -1.85594,-2.79263 -2.51507,-4.32436c-0.95035,-2.20846 -1.425,-4.61944 -1.7132,-7.00637c-0.46276,-3.83263 0.34787,-7.95343 0.05891,-11.80255c-0.04943,-0.65848 -1.02041,-3.60615 -0.89525,-5.61853c-0.75006,0.48673 -1.56453,0.87716 -2.42753,1.03768c-1.46575,0.27263 -2.97259,-0.36593 -4.46224,-0.30508c-2.1686,0.08859 -4.31996,0.99605 -6.47196,0.71399c-0.62978,-0.08254 -1.25598,-0.22074 -1.88178,-0.35905c1.32499,2.31821 2.06193,4.97448 1.89347,7.22378zM221.07111,192.41717l3.44647,1.04224c4.70638,3.2646 10.3759,2.43612 14.45384,-1.84526c1.842,-1.9339 2.21159,-5.62714 2.27849,-8.0671c0.01938,-0.70676 -0.12976,-2.06228 -0.82823,-1.95267c-2.81277,0.44145 -4.83192,2.61743 -7.19148,3.87433c-3.90254,2.07884 -8.65881,1.60653 -12.86027,2.68933c-0.00588,1.39088 -0.02058,2.78117 0.00858,4.16448c0.40509,0.0105 0.69259,0.09464 0.69259,0.09464z" fill="#293e40" stroke-width="0.5"></path>
        <path d="M223.91049,199.6716c-0.41126,0.95887 -0.82472,1.99462 -1.16762,2.9839c-0.77293,-1.60217 -1.535,-3.29924 -1.9268,-5.15736l1.55463,0.42371c0.5998,0.41605 1.27152,0.8055 1.93288,1.11382c-0.26905,0.33197 -0.3931,0.63594 -0.3931,0.63594z" fill="#a2f9ff" stroke-width="0.25"></path>
        <path d="M221.02686,192.44039c0,0 -0.28829,-0.0857 -0.69338,-0.0962c-0.02916,-1.3833 -0.01925,-2.79127 -0.01337,-4.18214c4.20146,-1.08279 9.04748,-0.64463 12.95003,-2.72346c2.35956,-1.2569 4.38178,-3.42829 7.19455,-3.86974c0.69846,-0.10962 0.85165,1.25448 0.83227,1.96124c-0.06691,2.43997 -0.43925,6.17336 -2.28125,8.10726c-4.07794,4.28138 -9.82744,5.12168 -14.53383,1.85707l-3.45504,-1.054z" fill="#a2f9ff" stroke-width="0.25"></path>
        <path d="M201.45433,187.85961c0.16846,-2.24931 -0.5588,-4.91548 -1.8838,-7.23369c0.6258,0.13831 1.25529,0.27417 1.88507,0.35671c2.15201,0.28206 4.32315,-0.63294 6.49175,-0.72153c1.48965,-0.06085 3.01253,0.57788 4.47827,0.30525c0.863,-0.16052 1.68447,-0.5492 2.43453,-1.03593c-0.12515,2.01237 0.85694,4.96528 0.90637,5.62376c0.28896,3.84912 -0.50356,8.03449 -0.0408,11.86712c0.2882,2.38693 0.74804,4.81567 1.69838,7.02413c0.65913,1.53173 2.03608,2.72768 2.51371,4.32534c0.5847,6.57083 -7.29784,3.04096 -9.91166,0.33342c-3.31223,-3.43099 -3.40942,-6.56179 -2.13333,-10.81986l0.87865,-3.09353c0,0 0.02569,-0.10593 0.05162,-0.26768c0.86459,-1.41275 -0.23993,-2.78705 -0.23993,-2.78705c-1.30255,-1.53089 -2.77255,-2.9461 -4.41524,-4.10448z" fill="#a2f9ff" stroke-width="0.25"></path>
        <path d="M203.12655,196.38738c-1.7119,5.96775 -1.19083,10.9018 3.17868,15.61357c-0.47773,0.16492 -1.06179,0.4983 -1.37952,1.15118c-2.69222,0.82639 -5.27721,2.03769 -7.609,3.73075c0.19258,-1.63699 -1.98811,-6.0543 -2.32881,-7.32467c-0.42588,-1.58801 0.2902,-2.94075 0.74573,-4.43326c1.21388,-4.14791 2.0513,-8.85498 3.75706,-12.81252c0.08297,-0.1925 0.18229,-0.37864 0.28919,-0.56055c0.84572,1.11491 2.01676,0.9726 2.66056,0.77475c0.49835,0.41801 0.97752,0.8694 1.42461,1.34301l-0.75264,2.61676z" fill="#a2f9ff" stroke-width="0.25"></path>
      </g>
    </g>
  </g>
</svg>
