<?xml version="1.0" encoding="UTF-8"?>
<svg xmlns="http://www.w3.org/2000/svg" xmlns:xlink="http://www.w3.org/1999/xlink" version="1.1" width="40.62408" height="40.53036" viewBox="0,0,40.62408,40.53036">
  <g transform="translate(-39.68796,-40.06815)">
    <g stroke="none" stroke-miterlimit="10">
      <path d="M39.78169,60.33333c0,-11.19215 9.07303,-20.26518 20.26518,-20.26518c11.19216,0 20.26518,9.07302 20.26518,20.26518c0,11.19216 -9.07303,20.26518 -20.26518,20.26518c-11.19215,0 -20.26517,-9.07304 -20.26517,-20.26518z" fill="#ffcc4d" stroke-width="1"></path>
      <path d="M55.11682,55.28321c0,1.8635 -0.96331,3.37416 -2.15163,3.37416c-1.18832,0 -2.15163,-1.51066 -2.15163,-3.37416c0,-1.8635 0.96331,-3.37416 2.15163,-3.37416c1.18832,0 2.15163,1.51067 2.15163,3.37416z" fill="#65471b" stroke-width="0"></path>
      <path d="M74.14121,70.35319c-0.20345,0.78155 -0.90426,1.33066 -1.71179,1.34123c-0.16376,0 -0.32754,-0.0239 -0.49131,-0.07053l-3.44032,-1.01967c0.40306,0.55948 0.47079,1.29361 0.17691,1.9174c-0.31319,0.6479 -0.94196,1.02205 -1.59584,1.02205c-0.26776,0 -0.53912,-0.06334 -0.79493,-0.19484l-2.80917,-1.45718c-0.06455,0.60247 -0.38133,1.28146 -0.94316,1.57194c-0.25581,0.1315 -0.52717,0.19485 -0.79493,0.19485c-0.65387,0 -1.28385,-0.48891 -1.59584,-1.13681l-0.18767,-0.3897l-0.18887,0.3897c-0.312,0.6479 -0.94197,1.13681 -1.59584,1.13681c-0.26657,0 -0.53912,-0.06335 -0.79493,-0.19485c-0.56183,-0.29049 -0.87741,-0.96827 -0.94196,-1.57194l-2.80917,1.45718c-0.25581,0.1315 -0.52836,0.19484 -0.79493,0.19484c-0.65387,0 -1.28384,-0.37416 -1.59584,-1.02205c-0.29485,-0.62377 -0.22659,-1.35861 0.17811,-1.9174l-3.44033,1.01967c-0.16376,0.04662 -0.32992,0.07053 -0.49131,0.07053c-0.80753,-0.01056 -1.50835,-0.55967 -1.7118,-1.34123c-0.27135,-0.98022 0.27733,-2.00346 1.22288,-2.28558l5.87055,-1.74049c-0.00598,-0.06096 14.19165,-0.06096 14.18687,0l5.86935,1.74049c0.94674,0.28212 1.49542,1.30536 1.22527,2.28558z" fill="#292f33" stroke-width="1"></path>
      <path d="M69.41992,55.28321c0,1.8635 -0.96332,3.37416 -2.15163,3.37416c-1.18832,0 -2.15164,-1.51066 -2.15164,-3.37416c0,-1.8635 0.96332,-3.37416 2.15164,-3.37416c1.18832,0 2.15163,1.51067 2.15163,3.37416z" fill="#65471b" stroke-width="0"></path>
      <g stroke-width="1">
        <path d="M62.37624,67.95304c-0.55392,0.3659 -1.31498,0.48637 -2.32937,0.48637c-1.19677,0 -2.0389,-0.12497 -2.60745,-0.61809c-1.77996,-0.79372 -4.14761,-1.26207 -4.14761,-2.30911c0,-1.11909 1.41181,-2.92719 3.15237,-2.92719l0.0394,0.00225c0.27133,-4.19376 1.91619,-10.36001 3.56329,-10.36001c1.67638,0 3.35164,6.19214 3.57681,10.35889l0.02589,-0.00113c1.74055,0 3.15236,1.80811 3.15236,2.92719c0,1.10332 -2.62547,1.56379 -4.42569,2.44083z" fill="#ffac33"></path>
        <path d="M63.64956,65.73738c-0.24544,0.04391 0.06193,-0.45034 0.06193,-1.67638c0,-0.57531 -0.06193,-1.02564 -0.06193,-1.47598c0.45034,0 0.94796,0 0.94796,1.31611c0,0.74643 -0.70253,1.79235 -0.94796,1.83626zM56.39576,65.73738c0.24544,0.04391 -0.06192,-0.45034 -0.06192,-1.67638c0,-0.57531 0.06192,-1.02564 0.06192,-1.47598c-0.45034,0 -0.94796,0 -0.94796,1.31611c0.00113,0.74643 0.70365,1.79235 0.94796,1.83626z" fill="#c1694f"></path>
        <path d="M57.29418,67.75827l-0.00225,0.00225c-1.00426,-0.4312 -2.15037,-0.77458 -2.96209,-1.17426c0.31298,-0.31974 0.9671,-0.43232 1.66738,-0.22854c0.86803,0.25218 1.44783,0.88041 1.29697,1.40055zM65.76615,66.58852c-0.81173,0.39968 -1.95785,0.74418 -2.96097,1.17538l-0.0045,-0.00563c-0.15199,-0.52014 0.42782,-1.14723 1.29585,-1.40055c0.7014,-0.2049 1.35664,-0.09119 1.66962,0.2308z" fill="#662113"></path>
      </g>
      <g fill="#292f33" stroke-width="1">
        <path d="M79.99539,51.88434c-0.29407,0.2845 -1.76559,0.61563 -2.05846,1.47272c-0.29407,0.85829 -0.29646,5.92793 -2.64539,7.67917c-2.19712,1.63887 -7.32534,2.13256 -10.5756,0.2845c-2.83666,-1.61258 -2.73625,-5.00867 -3.25624,-7.03007c-0.18529,-0.72082 -0.70767,-1.08422 -1.50619,-1.08422c-0.79852,0 -1.3209,0.3634 -1.50618,1.08422c-0.51999,2.0226 -0.42078,5.41749 -3.25624,7.03007c-3.25026,1.84927 -8.37847,1.35558 -10.57678,-0.2845c-2.34774,-1.75243 -2.35014,-6.82089 -2.6454,-7.67917c-0.29287,-0.85709 -1.7644,-1.18702 -2.05846,-1.47271c-0.29646,-0.2869 -0.29645,-1.43088 -0.00119,-1.71658c0.20441,-0.19844 1.51456,0.32753 2.84024,-0.34786c2.73505,-1.39382 9.64677,-2.73863 14.14502,0.44947c0.48174,0.34188 2.49478,0.39926 3.05781,0.37416c0.56303,0.0239 2.57606,-0.03347 3.0578,-0.37416c4.49944,-3.1881 11.41117,-1.84329 14.14622,-0.44947c1.32569,0.6754 2.63583,0.14942 2.84023,0.34786c0.29645,0.28569 0.29526,1.42968 -0.00119,1.71658zM54.86595,51.59148c-1.35557,-0.83438 -4.13843,-0.88579 -4.96683,-0.88579c-1.80862,0 -3.57659,0.3371 -4.8437,0.76864c-0.79852,0.27255 -0.55466,2.0453 -0.46381,2.77091c0.14225,1.1392 0.52,4.18505 1.51217,4.92499c0.79373,0.59172 2.8235,1.00652 4.28786,1.00652h0.0012c1.32209,0 2.58562,-0.3359 3.55508,-0.88817c1.58149,-0.90013 1.81699,-3.43674 1.90904,-4.75764c0.05141,-0.7268 0.21039,-2.20191 -0.99097,-2.93946zM74.85044,51.46835c-1.2683,-0.43153 -3.03508,-0.76266 -4.84371,-0.76266c-0.82841,0 -3.61007,0.05739 -4.96684,0.89176c-1.20137,0.73756 -1.04118,2.22342 -0.99097,2.95022c0.09204,1.32091 0.32753,3.84198 1.90903,4.74091c0.97065,0.55227 2.23298,0.88817 3.55628,0.88817h0.0012c1.46435,0 3.49412,-0.4148 4.28786,-1.00652c0.99217,-0.73994 1.3699,-3.80134 1.51216,-4.94173c0.09085,-0.72559 0.33351,-2.4876 -0.46501,-2.76015z"></path>
        <path d="M55.52581,50.84078c0,0 -0.07172,-3.84197 -1.56596,-5.05171c-1.57314,-1.27309 -2.84622,0.71126 -2.84622,0.71126c0,0 -0.30124,-2.56171 -2.00825,-2.34774c-1.70701,0.21397 -1.63648,1.85046 -1.63648,1.85046c0,0 -0.98022,-2.20549 -2.84622,-1.42251c-1.81459,0.76147 -0.9085,2.41947 -0.9085,2.41947c0,0 -1.36871,-0.49011 -1.99151,0.49728c-0.85471,1.35198 1.19299,2.41946 1.19299,2.41946c0,0 4.26873,-0.99576 6.40369,-0.92523c2.13496,0.07053 6.20645,1.84927 6.20645,1.84927zM64.28322,50.84078c0,0 0.07173,-3.84197 1.56596,-5.05171c1.57313,-1.27309 2.84622,0.71126 2.84622,0.71126c0,0 0.30123,-2.56171 2.00825,-2.34774c1.70821,0.21397 1.63649,1.85046 1.63649,1.85046c0,0 0.98022,-2.20549 2.84622,-1.42251c1.81459,0.76147 0.90849,2.41947 0.90849,2.41947c0,0 1.36871,-0.48891 1.99271,0.49847c0.85351,1.35198 -1.19299,2.41947 -1.19299,2.41947c0,0 -4.26874,-0.99576 -6.4037,-0.92523c-2.13616,0.06934 -6.20764,1.84807 -6.20764,1.84807z"></path>
      </g>
    </g>
  </g>
</svg>
