<?xml version="1.0" encoding="UTF-8"?>
<svg xmlns="http://www.w3.org/2000/svg" xmlns:xlink="http://www.w3.org/1999/xlink" version="1.1" width="321.19994" height="336.77921" viewBox="0,0,321.19994,336.77921">
  <g transform="translate(-79.40002,-11.61039)">
    <g stroke="none" stroke-miterlimit="10">
      <path d="M88.31564,328.61039c0,0 16,-20.5985 16,-32.10001c0,-24.14805 -6.06414,4.50221 -10.04872,-44.1924c-0.59522,-7.27412 3.74438,-65.15844 3.01263,-73.75344c-0.23731,-2.78745 -17.45194,-68.53772 -17.64152,-71.24481c-1.94572,-27.78276 8.67761,-71.70934 8.67761,-71.70934c0,0 -12.60264,-21.46011 8.4239,-20.44654c5.86827,0.28288 21.73281,18.2132 32.25081,17.57214c19.88693,-1.21209 85.77117,-14.42446 107.91596,-15.43106c14.92427,-0.67839 40.54072,1.62046 54.14997,0.91386c29.89262,-1.55204 65.36001,-6.60839 73.85938,-6.60839c6.34357,0 25.39999,15 25.39999,15c0,0 -4.30426,16.55744 -1.677,49.84293c2.20947,27.99243 11.3705,71.03601 11.83896,94.14703c0.97157,47.9307 -4.16196,152.01005 -4.16196,152.01005c0,0 6.8751,16.10871 -32.52064,19.49727c-5.19656,0.44698 -28.0068,-7.08378 -34.50223,-6.59417c-5.41818,0.40841 -27.16192,3.80264 -33.24331,4.17608c-4.59181,0.28197 -30.28214,8.51628 -35.06363,8.69531c-8.42783,0.31554 -43.80911,-15.34526 -52.03061,-14.98105c-9.93324,0.44004 -39.34412,6.82986 -47.9634,7.15102c-2.72426,0.1015 -17.35563,-9.79234 -19.88468,-9.68134c-10.6975,0.46953 -30.35234,15.73688 -36.1915,15.73688c-17.79261,0 -16.6,-18 -16.6,-18z" fill="#d6d6d6" stroke-width="0"></path>
      <path d="M114.91564,303.51038l-11,-15c0,0 12.57555,13.59144 33.19615,18.10359c30.25914,6.62123 74.38191,5.22504 93.09351,7.37227c14.12883,1.62134 55.71035,9.52414 55.71035,9.52414l65,-5c0,0 -60.0161,13.57931 -88.76511,11.92299c-10.7767,-0.62088 -41.27907,-11.44 -57.09454,-13.84571c-8.9022,-1.35412 -54.71337,6.39113 -63.18379,5.2433c-39.11052,-5.29991 -26.95656,-18.32058 -26.95656,-18.32058z" fill="#9e9e9e" stroke-width="0"></path>
      <path d="M121.8722,32.25287c8.47042,-1.14784 54.2816,6.59742 63.18379,5.2433c15.81547,-2.4057 46.31783,-13.22483 57.09454,-13.84571c28.74901,-1.65632 88.76511,11.923 88.76511,11.923l-65,-5c0,0 -41.58152,7.9028 -55.71035,9.52414c-18.71159,2.14723 -62.83437,0.75104 -93.0935,7.37226c-20.6206,4.51215 -33.19615,18.10359 -33.19615,18.10359l11,-15c0,0 -12.15397,-13.02067 26.95656,-18.32058z" fill="#9e9e9e" stroke-width="0"></path>
      <path d="M119.51803,264.26397c1.46246,0.73124 1.49017,1.94072 1.33431,2.69007c0.83432,0.00178 1.64623,-0.63845 2.71957,-1.91578c1.04504,-1.24366 0.81833,-3.14433 1.19769,-4.72385c0.68328,-2.84488 1.08022,-5.75136 1.56631,-8.63648c0.22974,-1.36364 0.54177,-2.71213 0.81265,-4.0682c0,0 0.49028,-2.45146 2.94174,-1.96117c2.45146,0.49029 1.96117,2.94174 1.96117,2.94174c-0.26245,1.3106 -0.56548,2.61371 -0.78733,3.93179c-1.10551,6.56838 -1.05678,15.07165 -7.70388,18.59236c-1.18848,0.6295 -2.55788,1.23308 -3.89204,1.06342c-1.31968,-0.16782 -2.30329,-1.33181 -3.45493,-1.99771l-0.04935,-4.79816c0,0 1.11803,-2.23607 3.3541,-1.11803z" fill="#696969" stroke-width="0.5"></path>
      <path d="M132.00003,274.60001c-2.5,0 -2.5,-2.5 -2.5,-2.5v-1.59998c0.024,-4.4914 1.83867,-8.10235 2.43224,-12.40045c0.44831,-3.24622 0.63266,-5.99247 1.69604,-9.19015c0,0 0.79055,-2.37171 3.16227,-1.58116c2.37171,0.79055 1.58116,3.16227 1.58116,3.16227c-1.00474,3.00672 -1.05367,5.34599 -1.50403,8.40995c-0.59391,4.0406 -2.39485,7.4025 -2.36768,11.59954v1.59998c0,0 0,2.5 -2.5,2.5z" fill="#696969" stroke-width="0.5"></path>
      <path d="M146.50003,241.69998c0,2.5 -2.5,2.5 -2.5,2.5h-1.60004c-3.20718,0 -6.82844,0.40767 -10.00042,-0.03228c-1.86773,-0.25905 -3.73332,-0.53332 -5.59998,-0.79998c-2.28812,-0.32687 -2.1881,-1.33751 -4.47513,-0.87498c-1.51172,0.30573 -2.02946,3.21585 -2.25674,4.40774c-0.18804,0.98608 -0.65973,2.74327 0.31195,2.99534c0.65881,0.17091 1.34688,-0.1972 2.02032,-0.29581c0,0 2.5,0 2.5,2.5c0,2.5 -2.5,2.5 -2.5,2.5c-1.45986,-0.0986 -3.11418,0.43879 -4.37959,-0.29581c-5.89301,-3.42104 -2.75297,-14.80632 2.85514,-16.59692c2.14781,-0.68577 4.49297,0.40615 6.72494,0.725c4.91341,0.70191 9.75543,0.76771 14.7995,0.76771h1.60004c0,0 2.5,0 2.5,2.5z" fill="#696969" stroke-width="0.5"></path>
      <path d="M163.17174,273.70948c0.79055,2.37171 -1.58116,3.16226 -1.58116,3.16226l-3.19059,0.92828c-1.38924,-0.51074 -3.11243,-0.49435 -4.16773,-1.53223c-0.54904,-0.53998 -0.92872,-1.12549 -1.17593,-1.7412c-2.28001,2.23994 -5.05026,3.51238 -8.1808,2.36617c-5.55481,-2.03384 -4.33029,-5.82854 -2.32131,-9.89111c0.72998,-1.47618 1.50726,-2.92857 2.24553,-4.40062c0.24565,-0.48982 1.00305,-0.75005 1.00878,-1.29798c0.0037,-0.35496 -0.66604,0.2458 -0.99907,0.3687c0,0 -2.37172,-0.79056 -1.58117,-3.16227c0.79055,-2.37171 3.16227,-1.58116 3.16227,-1.58116c1.267,0.65622 3.21119,0.66942 3.80098,1.96866c1.4798,3.2598 -2.38349,9.59067 -3.8198,12.39362c-0.17254,0.3367 -0.78515,0.42039 -0.807,0.79809c-0.01463,0.2529 0.50643,0.01675 0.75975,0.01863c0.58367,0.00433 1.19414,0.17473 1.75106,0c1.37181,-0.43041 1.9646,-1.9538 2.64434,-2.99401c0.52595,-0.80488 1.06339,-1.6022 1.59998,-2.40003c0.87486,-1.30081 1.6277,-2.71169 2.10844,-4.2038v0l0.78176,-2.34533c0.31417,-1.02157 1.26534,-1.76414 2.38995,-1.76414c1.38071,0 2.5,1.11929 2.5,2.5v3.20001h-0.09506c0.024,0.13276 0.04503,0.26622 0.06278,0.40044c0.12804,0.96839 -0.59237,1.86171 -0.89599,2.79014c-0.33968,1.03866 -2.6825,5.30467 -0.77173,5.50943l1.60946,-0.67171c0,0 2.37172,-0.79055 3.16227,1.58116z" fill="#696969" stroke-width="0.5"></path>
      <path d="M177.18757,276.97848c-0.44218,0.48145 -0.90982,0.92885 -1.47325,1.24815c-4.74545,2.68935 -7.82319,-0.16296 -9.28601,-4.53608c-0.35136,-1.05039 -0.92827,-2.08291 -0.92827,-3.19052c0,-6.67503 8.39699,-17.36142 14.88672,-10.31756c0.75527,0.81975 0.79,2.08461 1.18499,3.12692c0,0 0.7906,2.37169 -1.58109,3.1623c-2.37169,0.79061 -3.1623,-1.58109 -3.1623,-1.58109c-0.77932,-3.14112 -1.76078,-2.38302 -3.69495,-0.00561c-1.7556,2.15792 -2.79512,4.70698 -1.96167,7.22444c0.14243,0.43021 0.17922,2.18778 1.16012,2.31267c1.21456,0.15465 1.85541,-1.60385 2.7004,-2.48989l4.26777,2.56781c0,0 0,2.23445 -2.11245,2.47845z" fill="#696969" stroke-width="0.5"></path>
      <path d="M188.10173,274.48405c-0.02961,0.25478 0.03857,0.53489 0.28504,0.89846c0.8657,1.27706 4.23207,-0.83291 4.3354,-2.01435c0.04222,-0.48277 -0.54219,-0.8173 -0.69387,-1.27756c-0.14985,-0.45471 0.03648,-1.00435 -0.19606,-1.42285c-0.15461,-0.27825 -1.33735,0.1068 -1.39421,0.12087l-1.0019,2.42939c0,0 -0.44479,0.8896 -1.33439,1.26603zM189.95098,265.80749c0.40628,-0.13129 0.82047,-0.2138 1.24907,-0.20749c4.21304,0.06206 4.5047,1.72286 5.57164,4.90942c0.38492,1.14963 1.13344,2.33149 0.90623,3.52236c-0.49869,2.61376 -3.10121,4.88698 -5.37949,5.91397c-1.20548,0.5434 -2.53211,1.28375 -3.83024,1.03215c-3.36773,-0.65272 -5.14224,-3.32184 -5.36819,-6.47787c-0.06954,-0.97136 0.69854,-1.83586 0.83227,-2.80048c0.8409,-6.06553 1.72589,-11.71556 5.18765,-16.98632c0,0 1.38676,-2.08012 3.46688,-0.69335c2.08012,1.38676 0.69335,3.46688 0.69335,3.46688c-1.78253,2.6242 -2.71331,5.41994 -3.32918,8.32072z" fill="#696969" stroke-width="0.5"></path>
      <path d="M226.88014,271.51323c1.38676,2.08012 -0.69335,3.46688 -0.69335,3.46688l-2.6884,1.7657c-2.5374,0.76463 -5.55661,2.4658 -7.86328,-0.69591c-0.0838,0.07788 -0.17261,0.15081 -0.26733,0.2179c-1.49927,1.06193 -3.36993,2.86259 -5.0692,2.16401c-0.9209,-0.37859 -1.39049,-1.27795 -1.70046,-2.31366c-0.59165,0.96829 -1.17813,1.96705 -2.18677,2.34653c-1.27279,0.47887 -2.66791,-0.52864 -4.00187,-0.79296c0,0 -2.37171,-0.79057 -1.58114,-3.16228c0.79057,-2.37171 3.16228,-1.58114 3.16228,-1.58114c1.2086,1.22215 1.76803,-1.14039 2.56361,-2.72666c0.40533,-0.80816 0.75022,-1.67644 1.05968,-2.5744c0.2348,-1.56667 0.71505,-3.0929 1.35637,-4.55637c0.21108,-0.73944 0.426,-1.46532 0.65804,-2.16146l0.36589,0.10274c0.83147,-1.49745 1.80129,-2.91064 2.80581,-4.21214l1.56467,5.665c0.00253,0.00835 0.00489,0.01686 0.00705,0.02552c-0.18461,0.55384 -0.36123,1.11723 -0.53494,1.68622c-0.41792,1.13522 -0.93298,2.46522 -0.96909,2.72374c-0.01513,0.10829 -0.01457,0.27584 -0.00413,0.48832c-0.86116,2.74855 -1.87168,5.45734 -3.58341,7.69792c-0.24259,0.31753 -0.46268,0.67238 -0.68206,1.03142c-0.28596,-0.95546 -0.43608,-2.02696 -0.67938,-2.91269c-0.51933,-1.89058 -0.57708,-3.76159 -0.30482,-5.57822c0.51129,-1.4836 0.92585,-3.04818 1.35637,-4.55637c0.3074,-0.70148 0.65181,-1.38854 1.02393,-2.05872l2.80581,0.78786c0.51573,0.22658 1.40481,0.13821 1.56467,0.665l0.00705,0.02552c0.02908,0.11646 -0.22646,0.84828 -0.53494,1.68622c-0.32354,1.05975 -0.637,2.13893 -0.97323,3.21206c0.03755,0.76412 0.20299,2.10926 0.22719,3.36859c0.00979,-0.01468 0.01951,-0.02939 0.02915,-0.04415c0.52595,-0.80487 1.06339,-1.60219 1.59997,-2.40002c0.87487,-1.30082 1.62769,-2.71172 2.10846,-4.20384l3.81336,-4.02563c0.25778,1.86685 0.69988,3.71978 0.88753,5.59193l0.04252,0.01488c-0.01062,0.03104 -0.02128,0.062 -0.03201,0.09288c0.04284,0.45144 0.0704,0.90404 0.07655,1.35826c0.02698,1.99399 -1.8657,3.90738 -1.98818,5.89652c-0.03786,0.61485 1.10541,-0.54579 1.6735,-0.784l2.11165,-1.43437c0,0 2.08012,-1.38676 3.46688,0.69335z" fill="#696969" stroke-width="0.5"></path>
      <path d="M236.60081,269.59286c0.00452,0.54918 0.28161,1.14626 0.29918,1.70716c0.02923,0.93278 0.02981,1.86836 -0.03229,2.79953c-0.01773,0.26584 -0.46153,0.69718 -0.20591,0.77233c0.45032,0.13238 0.89047,-0.29728 1.33775,-0.4396c3.41973,-1.08807 3.92357,-3.7685 5.35468,-6.63067c0.71649,-1.43296 3.21091,-3.201 2.07805,-4.33386c-0.69196,-0.69196 -3.45031,1.37716 -3.66448,1.60004c-0.55308,0.57556 -0.85847,1.34599 -1.2877,2.01898l-0.644,1.33125c0,0 -1.0784,2.15688 -3.23528,1.17484zM238.70047,261.04808c0.56605,-0.51652 1.32047,-0.98311 2.60114,-1.59388c4.22999,-2.01734 8.86189,-0.7514 9.19843,4.64581c0.17725,2.84271 -1.56975,3.72942 -2.65424,5.89838c-1.95153,3.90302 -3.7803,8.92839 -9.04535,9.36933c-1.68783,0.14135 -3.64232,0.48389 -5.06215,-0.4396c-2.39186,-1.55571 -2.54527,-9.54783 -1.648,-11.78482c0.69447,-1.73138 2.60893,-2.84498 3.138,-4.63385c0,0 0.79057,-2.37171 3.16228,-1.58114c0.10996,0.03665 0.21313,0.07671 0.30989,0.11977z" fill="#696969" stroke-width="0.5"></path>
      <path d="M261.70004,279.30002c0,0.97975 -0.38397,1.57554 -0.85095,1.93784c0.11899,0.67912 0.16755,2.22514 -1.65853,2.83383c-2.37171,0.79057 -3.16228,-1.58114 -3.16228,-1.58114c-0.26666,-0.79999 -0.53333,-1.59998 -0.79999,-2.39996l3.97174,-3.29057c0,0 2.5,0 2.5,2.5z" fill="#696969" stroke-width="0.5"></path>
      <path d="M186.28493,182.64323c-0.12643,0.91687 -0.655,1.67939 -1.38312,2.13406c0.43586,0.27703 0.87386,0.55511 1.35797,0.68543c3.05089,0.82129 6.32723,0.51019 9.39185,1.27863c1.27876,0.32065 2.38806,1.16656 3.66997,1.47438c13.31322,3.19692 27.27055,2.7693 40.6319,4.61169c9.57084,1.31972 18.89046,0.78974 28.41953,1.05288c3.98106,0.10994 8.5709,-2.45593 12.64269,-3.01668c1.46497,-0.20175 2.93396,-0.47004 4.4127,-0.45784c1.28651,0.01061 8.19209,1.59824 8.24368,-1.78601c0.0149,-0.9777 -0.14858,-1.94712 -0.29199,-2.91747l-0.28306,0.04937c0.41733,-3.02653 0.78277,-6.03509 1.1197,-9.03332c-0.44551,0.54192 -0.9562,0.82522 -0.9562,0.82522c-0.76093,0.42212 -1.52187,0.84424 -2.2828,1.26636l1.83205,4.3973l0.46718,0.24546c-0.10144,0.04827 -0.20317,0.09606 -0.30518,0.14336l0.25932,0.62242c0,0 -1.64456,2.40041 -4.05809,0.85104c-0.90374,0.28115 -1.82073,0.51604 -2.74649,0.69644c0,0 -2.94662,0.55059 -3.49721,-2.39603c-0.43326,-2.31867 1.29895,-3.15372 2.05692,-3.40433c-0.63951,-0.97886 -0.47445,-2.17593 -0.47445,-2.17593l0.91845,-1.76395c-1.10051,-1.56619 0.10227,-3.32178 0.10227,-3.32178l2.21173,-2.13219c-0.41076,-0.18567 -0.82404,-0.50447 -1.21088,-1.01504c-1.14083,-1.50571 -0.61382,-2.78148 -0.06802,-3.51913c-0.12127,-0.12113 -0.24091,-0.25823 -0.35813,-0.41294c-1.81023,-2.3893 0.57907,-4.19954 0.57907,-4.19954l1.51365,-1.07705c-0.83699,-1.98856 1.04196,-3.41213 1.04196,-3.41213l1.585,-1.12783c1.03761,-0.50247 2.07522,-1.00494 3.11283,-1.50741c0,0 1.37885,-0.66772 2.64243,-0.06272c0.10373,-0.91111 0.21025,-1.82305 0.32021,-2.73602c-1.45976,0.62277 -2.91951,1.24553 -4.37927,1.8683l-3.04829,1.47707c0,0 -1.77047,0.85735 -3.13749,-0.25123c-0.60214,0.61253 -1.18827,1.21511 -1.74739,1.80677l-1.55003,1.63976c0,0 -2.0592,2.1784 -4.2376,0.1192c-0.43816,-0.41418 -0.70488,-0.83319 -0.8514,-1.23832c-0.14578,0.41814 -0.3132,0.82078 -0.61114,1.1335c-5.60161,5.87953 -13.95279,10.012 -21.15542,13.50283c0,0 -1.77255,0.85837 -3.1399,-0.25316c-0.75117,0.22484 -1.42682,0.13167 -1.42682,0.13167l-0.95023,-0.13103c-2.97781,-0.42133 -5.10093,-0.81653 -7.02238,-1.75964c-2.72038,0.20793 -5.47831,0.02395 -8.18155,-0.33682c-7.14796,-1.05101 -12.58558,-5.63917 -18.40052,-9.62313c-2.53798,-1.73883 -5.96793,-3.13586 -8.26511,-5.15714c-1.01844,-0.89612 -1.44564,-2.34042 -2.45762,-3.24382c-1.62561,-1.45119 -3.75347,-2.26149 -5.38677,-3.70402c-1.84621,-1.63058 -3.12114,-3.84047 -4.96799,-5.47032c-0.18788,-0.16581 -0.40351,-0.29041 -0.63303,-0.39434l-2.85609,2.24774c0.0293,0.26985 0.02555,0.56839 -0.01998,0.89859c-0.15686,1.1376 -0.68944,1.7793 -1.28684,2.1381c0.22696,0.05504 0.45393,0.11008 0.68089,0.16512l1.43528,4.60076c0,0 0.31693,1.69615 -0.81699,2.75517l1.0046,1.71592c0,0 0.18828,0.55583 0.1523,1.25892c0.55866,0.11761 2.79457,0.75393 2.43575,3.35612c-0.40946,2.96952 -3.37899,2.56006 -3.37899,2.56006l-1.16801,-0.25141c-1.31068,0.14205 -2.62135,0.2841 -3.93203,0.42615c0,0 -2.98017,0.32299 -3.30316,-2.65718c-0.32299,-2.98017 2.65718,-3.30316 2.65718,-3.30316c0.32796,-0.03554 0.65592,-0.07109 0.98388,-0.10663c-0.98521,-0.37762 -2.12819,-0.45564 -3.12515,-0.1922c0,0 -0.57472,0.10739 -1.26395,-0.02651c-0.32476,3.62309 -0.66832,7.24531 -1.11079,10.86963c0.97693,-0.74015 1.95385,-1.4803 2.93078,-2.22045l4.12015,-0.31815c0,0 2.96952,0.40946 2.56006,3.37899c-0.13337,0.9672 -0.53832,1.57594 -1.0238,1.95712c0.75806,0.44485 1.54263,1.30306 1.31896,2.92515c-0.2545,1.84568 -1.49799,2.38601 -2.40275,2.53064l1.7476,2.22059c0,0 -0.40946,2.96952 -3.37899,2.56006c-0.59251,-0.0817 -1.05049,-0.26532 -1.40404,-0.50694c-0.32343,0.06043 -0.64687,0.12087 -0.9703,0.1813c0.30361,0.5473 0.43902,1.19394 0.34695,1.86167zM181.28669,184.63606c0.04677,-0.02455 0.09356,-0.04917 0.14038,-0.07367c-0.01837,-0.01492 -0.03655,-0.03006 -0.05454,-0.0454c-0.02864,0.03983 -0.05728,0.07951 -0.08584,0.11907zM182.33865,175.3551c0.14935,-0.02791 0.29869,-0.05581 0.44804,-0.08372c-0.0989,-0.20586 -0.18199,-0.43878 -0.24473,-0.70221c-0.04475,0.2406 -0.11951,0.51687 -0.24379,0.79451c0.02627,-0.00593 0.04048,-0.00859 0.04048,-0.00859zM184.0977,151.06442c-0.00679,0.07477 -0.01356,0.14954 -0.02033,0.2243c0.10591,-0.0125 0.21213,-0.02371 0.31861,-0.03364c-0.09939,-0.05628 -0.1996,-0.11957 -0.29829,-0.19067zM184.62125,145.62347c-0.01393,0.13462 -0.02777,0.26923 -0.04153,0.40384c0.16645,-0.0769 0.33438,-0.13499 0.49748,-0.17863c-0.15198,-0.07507 -0.30397,-0.15014 -0.45595,-0.22521zM190.51438,141.36969l-0.09305,0.14122c0.02175,0.00708 0.04399,0.01453 0.06665,0.02235c0.03557,-0.06935 0.04851,-0.12617 0.0264,-0.16357zM186.31577,133.26238l-0.0329,0.23862c0.00047,0.00774 -0.13765,1.01115 -0.33355,2.42935c1.1169,0.02026 2.28144,-0.12809 3.41976,-0.21165c-0.76962,-0.95968 -1.68122,-1.8149 -3.0533,-2.45632zM295.70883,162.39433c-0.23397,0.21038 -0.47267,0.41593 -0.71575,0.6164c0.20714,0.17583 0.40433,0.39814 0.58385,0.67696c0.04383,-0.4311 0.08778,-0.86221 0.13191,-1.29336zM295.24876,145.68936c0,0 1.23858,-0.52863 2.40972,-0.04709c0.19145,-1.45147 0.32514,-2.91438 0.47134,-4.3748l-2.02426,2.14144c-0.57192,0.9224 -1.22527,1.83664 -1.93435,2.74054c0.35918,-0.15337 0.71837,-0.30673 1.07755,-0.4601zM272.71823,154.23802c0.69116,-0.73801 0.66719,-1.96789 1.34331,-2.7197c2.81873,-3.13425 6.90833,-4.48368 10.10099,-6.90257c2.96635,-2.24743 5.72579,-5.18906 8.78119,-7.50398l0.00002,-0.00001l0,-0.00001l3.24385,-2.45764c0,0 0,0 0,0c0.61147,-0.46327 1.39968,-0.69328 2.21968,-0.58021c0.28866,0.0398 0.56202,0.11947 0.8153,0.23267c0.16239,-0.6219 1.49224,-1.0683 1.10414,-1.58053c-0.38826,-0.51244 -1.17837,0.62247 -1.82116,0.63517c-1.27874,0.02526 -2.534,-0.34941 -3.801,-0.52412c-7.73133,-1.06607 -15.47011,-2.08701 -23.18722,-3.25186c-12.27501,3.04925 -25.50888,-0.17821 -37.96738,-1.3133c-12.30367,-1.12099 -24.54896,1.39501 -36.83449,0.72637c-2.7297,-0.14856 -5.08383,-0.77804 -7.51207,-0.99271c1.0158,0.47846 2.12612,0.81871 2.96603,1.55435c2.04097,1.78759 2.86833,4.70688 4.91528,6.48762c0.76285,0.66364 1.96406,0.67147 2.71968,1.34332c2.66449,2.3691 4.34101,5.56743 7.39806,7.65409c0.91532,0.62478 2.12472,0.78819 2.95672,1.52027c1.01843,0.89612 1.44561,2.34041 2.4576,3.2438c2.1149,1.88795 5.4213,3.17968 7.79113,4.80331c4.92102,3.37151 9.83,7.89687 15.87447,8.65943c0.22492,0.03218 0.45032,0.06244 0.6761,0.09072c0.6226,-0.50828 1.4467,-0.76631 2.30569,-0.64786l3.52898,0.48661c1.40658,-0.16022 2.92562,-0.97733 4.20398,-0.38865c0.22232,0.10238 0.43818,0.21491 0.64845,0.3362l0.05955,-0.14822l3.61178,1.45101c0.58402,0.21995 1.07307,0.61372 1.41389,1.11102c0.26905,0.07107 0.68569,0.21321 1.09111,0.48021c6.29877,-3.04304 14.06601,-6.64711 18.89632,-11.8048zM300.22859,183.81864l-1.07806,1.91308c-0.00029,0.00212 -0.00057,0.00423 -0.00086,0.00635c0.14275,1.30936 0.69987,2.63982 0.42568,3.92795c-1.93462,9.08876 -11.33512,6.19164 -17.68542,7.12876c-4.42991,0.65373 -8.94834,3.07979 -13.37392,3.07905c-1.59873,-0.00027 -3.15284,-0.6225 -4.75124,-0.65514c-2.02184,-0.04129 -3.94137,1.0997 -5.96358,1.11432c-2.55789,0.01849 -5.0441,-1.07269 -7.60195,-1.04822c-3.81363,0.03647 -7.16233,0.01976 -11.06466,-0.51833c-2.69222,-0.37123 -5.35371,-1.17802 -8.07128,-1.15201c-1.01109,0.00968 -1.97106,0.58544 -2.9818,0.55718c-11.10778,-0.31058 -23.35418,-2.92711 -33.96832,-5.6358c-3.13496,-0.80003 -6.48626,-0.51067 -9.61308,-1.34194c-0.86226,-0.22923 -1.48519,-1.09743 -2.36296,-1.25728c-1.70469,-0.31045 -3.87859,1.00512 -5.19681,-0.11945c-5.25907,-4.48651 -0.89684,-5.21388 -0.36426,-8.70071c0.22712,-1.48695 -0.55037,-5.0787 -0.86058,-6.72019c0,0 -0.30959,-1.65667 0.77771,-2.71774l-0.15135,-2.95604c0.98313,-8.02291 1.512,-16.0364 2.3523,-24.06491c0.41946,-4.00764 -0.13481,-8.36265 1.64967,-11.9755l0.81893,-5.93904c0.04589,-0.33279 0.14476,-0.64525 0.28692,-0.93003c-0.00066,-0.00347 -0.00131,-0.00695 -0.00196,-0.01044c-0.55057,-2.94662 2.39605,-3.49719 2.39605,-3.49719c4.77048,-0.83708 8.39755,0.45022 13.19797,0.70659c3.84788,0.2055 7.70894,0.12167 11.5601,-0.00872c8.47943,-0.28709 16.86098,-1.47671 25.39642,-0.70975c12.24014,1.09985 25.15166,4.29797 37.20011,1.30501c8.1169,1.03593 16.2191,2.18184 24.32511,3.29957c1.90202,0.26227 8.67273,1.00761 9.58184,2.20752c1.212,1.59969 0.18086,4.01757 0.05611,6.02066c-0.24348,3.90932 -1.07007,7.76036 -1.6051,11.64054c-1.56036,11.31603 -2.39591,22.42185 -3.73963,33.70387c1.37484,1.39839 0.41191,3.34798 0.41191,3.34798z" fill="#696969" stroke-width="0.5"></path>
      <path d="M255.06154,154.36251c-0.40946,2.96952 -3.37899,2.56006 -3.37899,2.56006l-0.3599,-0.10839c-1.62742,0.09838 -3.25484,0.19675 -4.88226,0.29513c0,0 -0.99949,0.06042 -1.87806,-0.46625c-0.69719,0.75507 -1.69031,0.88234 -2.23966,0.88861c-1.01179,0.8657 -2.43613,0.6693 -2.43613,0.6693l-6.17191,-0.89011c-0.5484,-0.2634 -1.09681,-0.52679 -1.64521,-0.79019c-0.56285,0.03516 -1.12213,0.10395 -1.67561,0.21608c0,0 -2.94662,0.55057 -3.49719,-2.39605c-0.55057,-2.94662 2.39605,-3.49719 2.39605,-3.49719c0.21656,-0.038 0.43368,-0.07178 0.65128,-0.10161c1.39053,-1.25015 3.25835,-0.32759 3.25835,-0.32759c0.09621,0.04935 0.19242,0.0987 0.28863,0.14804c1.8995,0.04326 3.80805,0.27297 5.68261,0.52004l3.56342,0.49136c0,0 0.63157,0.08709 1.27202,0.4722c0.83517,-0.84633 2.06967,-0.92095 2.06967,-0.92095c1.62742,-0.09838 3.25484,-0.19675 4.88226,-0.29513l1.54057,0.15366c0,0 2.96952,0.40946 2.56006,3.37899z" fill="#696969" stroke-width="0.5"></path>
    </g>
  </g>
</svg>
