<?xml version="1.0" encoding="UTF-8"?>
<svg xmlns="http://www.w3.org/2000/svg" xmlns:xlink="http://www.w3.org/1999/xlink" version="1.1" width="99.44524" height="137.00436" viewBox="0,0,99.44524,137.00436">
  <defs>
    <linearGradient x1="239.58163" y1="138.50634" x2="239.58163" y2="223.31425" gradientUnits="userSpaceOnUse" id="color-1">
      <stop offset="0" stop-color="#e0e0e0"></stop>
      <stop offset="1" stop-color="#c7c7c7"></stop>
    </linearGradient>
  </defs>
  <g transform="translate(-190.46406,-95.35002)">
    <g stroke="none" stroke-miterlimit="10">
      <path d="M272.46511,218.69101c0.09738,3.4148 0.63189,6.84387 0.61145,10.22702l0.14917,-0.02983l0.2616,1.30802c0.01921,0.08709 0.02934,0.17759 0.02934,0.27045c0,0.69036 -0.55964,1.25 -1.25,1.25c-0.28595,0 -0.54948,-0.09602 -0.76009,-0.25757l-1.05657,-0.79241v0h-0.00001c-2.78259,-2.08696 -4.80083,-4.14649 -6.61502,-7.114c-6.30066,3.56158 -13.188,5.62394 -19.90409,8.34125c0,0 -0.76743,0.30697 -1.30381,-0.20238c-4.04732,1.55043 -7.34271,0.04287 -11.48126,-1.08343c-5.44434,-1.48167 -10.43412,-3.96846 -15.58158,-6.20085c-2.06961,2.12931 -4.1612,4.96058 -6.71564,6.36569c-0.8485,0.46673 -3.41959,1.42368 -4.20959,0.49308c-0.74261,-0.87477 0.56769,-2.85859 0.8239,-3.80286c0.83888,-3.09173 0.94904,-6.36329 1.57803,-9.50831c0,0 0.00998,-0.04991 0.03599,-0.12757c-1.71822,-1.48739 -3.42135,-2.99351 -5.02747,-4.61006c-2.37771,-2.39315 -3.34659,-5.79301 -5.28185,-8.44289c-0.4949,-0.13473 -0.7728,-0.59789 -0.7728,-0.59789l-0.84795,-1.421c-1.04748,-2.59912 -3.03299,-5.33088 -3.57431,-8.0524c-0.48705,-2.44868 -0.29362,-5.63182 -0.28496,-8.13329c-1.16603,-7.09037 -1.26989,-13.7112 0.84757,-20.72594c0.88888,-2.94471 2.68728,-5.38828 3.81171,-8.19928c1.99767,-3.3295 3.27956,-7.10543 6.10259,-9.92844c0.93477,-0.93476 2.269,-1.46899 3.19999,-2.39999c2.31564,-2.31566 3.8043,-4.75834 6.81737,-5.84878c0.00022,-0.82951 0.87124,-1.11985 0.87124,-1.11985c0.37923,-0.12438 0.75732,-0.25659 1.13439,-0.3955c-0.12245,-0.28635 -0.12245,-0.55198 -0.12245,-0.55198c0,-0.284 0,-0.67688 0,-1.0395c-0.21241,0.11197 -0.42565,0.21701 -0.6398,0.31396c-5.23511,2.37008 -11.33774,2.76171 -15.996,6.50162c0,0 -0.97608,0.78087 -1.75696,-0.19521c-0.31801,-0.39751 -0.34462,-0.76265 -0.26444,-1.05585c-2.07977,-5.44709 -1.52725,-11.25837 2.75665,-15.54225c2.37951,-2.3795 6.42956,-4.08511 9.42461,-5.58342c0.93056,-0.39752 1.83444,-0.86556 2.72859,-1.36004c-0.11913,-0.69781 0.514,-1.17265 0.514,-1.17265c4.11611,-2.79737 1.99734,-9.17753 3.28516,-13.22284c1.11406,-3.4995 5.54939,-5.66124 8.73394,-6.93775c7.35029,-2.91132 16.21394,-2.71728 23.93091,-2.75607h0.26666c0,0 0.24339,0 0.51537,0.1074c0.39111,-0.16419 0.79645,-0.08312 0.79645,-0.08312c4.89266,1.00361 9.16321,1.88281 13.64364,4.10592c1.93119,0.95822 5.17033,2.49025 5.96373,4.72452c0.3879,1.09234 0.06401,3.08952 0.05806,4.27212c0.41979,2.099 0.15264,4.35702 0.98335,6.32559l0.22411,0.43857c0,0 0.36222,0.72446 -0.07965,1.29862c1.08532,0.43415 2.16924,0.97112 3.25041,1.60724c3.79699,1.5188 7.10118,3.51305 9.92842,6.36926c1.78602,1.80432 4.29172,2.44157 5.34869,4.96646c1.60454,3.83293 0.93556,8.15896 -0.53866,11.84833l-0.26251,0.14452c0.44489,1.0506 -0.60571,1.57592 -0.60571,1.57592l-1.73548,0.22051c-0.88126,-0.53535 -1.59952,-1.30475 -2.445,-1.89498c-1.43361,-1.00081 -3.53634,-1.10861 -5.06667,-2.13333c-1.34305,-0.89931 -1.70067,-1.68123 -3.2428,-2.28296c-1.44466,-0.57787 -2.88668,-1.19412 -4.31827,-1.84284c-0.36826,0.88672 -0.80385,1.74801 -1.29767,2.57104l-0.34064,0.85906c2.1289,1.55449 3.88166,3.35188 5.9065,5.10784c1.6814,1.45812 3.94806,3.18337 5.07071,5.13192c1.09971,1.90874 1.92345,3.86458 2.72886,5.86568c0.15519,0.16583 0.23279,0.32103 0.23279,0.32103l0.41532,0.8757c0.04452,0.05967 0.08913,0.11888 0.13384,0.17765c0.26107,0.12389 0.52784,0.35413 0.61774,0.782c2.03275,2.48903 4.09774,4.32779 4.80747,7.81186c1.24123,6.20624 2.74039,12.86821 2.15151,19.30165c-0.35728,3.90332 -2.20813,7.52197 -2.95152,11.32198c-0.95347,4.76741 -3.46305,8.18976 -5.72996,12.35637c-1.16792,2.14664 -2.464,4.65643 -4.21187,6.41569c-1.29622,1.30467 -2.74257,2.43425 -4.2275,3.51447c0.12189,0.30768 0.1612,0.72848 -0.19129,1.15933zM270.46298,227.48801c0.0251,-0.39294 0.05913,-0.79818 0.02645,-1.16483c-0.20865,-2.34143 -0.42811,-4.56784 -0.50801,-6.88433c-0.50398,0.36028 -1.00477,0.72349 -1.49806,1.09448c-0.8211,0.61431 -1.657,1.18979 -2.50569,1.73208c1.30774,2.1462 2.70144,3.71684 4.48531,5.2226zM207.87044,228.13682c-0.01487,0.05429 -0.03283,0.11326 -0.05354,0.17548c0.57297,-0.31154 1.1237,-0.55961 1.19075,-0.62036c1.45507,-1.31828 2.80202,-2.94016 4.18806,-4.42324c-1.27303,-1.22536 -2.59654,-2.39533 -3.93194,-3.55309c-0.45629,2.80894 -0.64297,5.68187 -1.39333,8.42122zM266.98334,218.53334c2.73843,-2.0488 5.69038,-3.86076 8.13278,-6.28389c1.58568,-1.57317 2.73377,-3.92272 3.78813,-5.85095c2.14864,-3.92946 4.57076,-7.14723 5.47003,-11.64363c0.75486,-3.70585 2.57224,-7.27516 2.91514,-11.07804c0.55842,-6.19304 -0.92173,-12.59792 -2.11513,-18.56501c-0.63158,-3.22818 -2.79397,-4.8772 -4.71349,-7.25693l-0.55471,-0.25731c-3.05858,-7.72181 -7.96922,-13.71301 -15.27023,-18.0936c-4.02318,-3.00991 -9.75322,-6.00493 -14.73891,-7.00987c-3.72434,-0.75069 -8.01822,0.54025 -11.76361,0.55589c-8.85541,-0.04452 -15.33441,4.3829 -23.27723,7.27332c0.05482,1.02259 -1.01096,1.23574 -1.01096,1.23574c-3.27667,0.64101 -4.62554,3.32242 -6.82793,5.52482c-0.93477,0.93477 -2.269,1.469 -3.2,2.4c-2.61931,2.6193 -3.77637,6.18093 -5.63073,9.27157c-1.07175,2.67932 -2.81844,4.99335 -3.65497,7.80072c-2.00821,6.7395 -1.89642,13.01066 -0.75245,19.80738c0.00722,2.43464 -0.22864,5.50025 0.24837,7.86671c0.50173,2.48913 2.40786,5.01552 3.35904,7.41427l0.56551,0.93666c0.40039,0.13862 0.64802,0.46878 0.64802,0.46878c1.92086,2.59996 2.87276,6.07356 5.21721,8.39946c3.54404,3.51599 7.54389,6.3962 11.00424,9.97366c0.27414,0.1062 0.54742,0.21408 0.81996,0.32342c0.1968,0.01645 0.40823,0.08257 0.60036,0.24361c5.17842,2.12407 10.11321,4.71735 15.54572,6.20172c3.67214,1.00337 6.91168,2.83114 10.58682,0.8901l0.66567,-0.45537c0,0 0.99264,-0.66174 1.68491,0.27746c7.67138,-2.92482 15.51835,-5.30183 22.25844,-10.37073zM226.74925,132.2341c2.7096,-1.0784 6.14876,-1.50513 9.26424,-1.63615c0.0313,-0.05211 0.05318,-0.08129 0.05318,-0.08129c0.80728,-1.05594 1.20409,-3.28775 1.85002,-4.93853c-0.76714,0.0038 -1.53477,-0.08481 -2.08337,-0.71898c-1.60744,-1.85818 0.25623,-5.87991 2.05648,-6.73363c1.83278,-0.86915 8.79615,-1.08646 10.51001,0.08363c0.59871,0.40875 0.87958,1.1526 1.31938,1.7289c0.01842,0.49643 0.03216,0.94578 0.02951,1.35901c0.74328,-1.05772 1.54467,-2.07373 2.62987,-2.80728c3.16767,-2.14122 6.3838,-3.20462 9.61309,-3.28706c0.6724,-3.33332 0.42234,-5.44886 -2.49426,-7.21746c-4.93934,-4.90042 -12.42798,-5.06859 -18.96407,-5.06859c-2.63882,0 -5.43502,-0.28815 -8.02152,0.24239c-3.62067,0.71706 -10.74931,1.88034 -12.43735,5.68449c-1.08229,2.43905 -0.89315,4.56878 -1.75197,6.65343c0.77234,-0.20803 1.56956,-0.35218 2.39982,-0.41122c1.50224,-0.10682 3.19582,0.87632 4.54191,1.42032c1.39994,0.56576 2.80857,1.30891 3.88632,2.41004c0.80285,0.82028 1.24436,1.80935 1.63992,2.83539c0.35512,-0.05978 0.81724,0.00659 1.18293,0.55512c0.53572,0.80358 0.03666,1.4002 -0.21798,1.62997c0.04566,0.22831 0.09132,0.45662 0.13698,0.68493l-0.37435,1.33749c0,0 -0.5028,1.00561 -1.50841,0.63257l-0.47873,0.23568c-3.13219,1.25005 -6.14921,2.93467 -8.83342,4.94339c-0.50686,0.30411 -1.01347,0.64509 -1.52104,1.00475c0.12805,0.32012 0.2561,0.64024 0.38415,0.96036l0.53333,1.33334c0,0 0.03112,0.07781 0.05711,0.20119c2.2074,-1.06925 4.39911,-2.16097 6.59821,-3.0362zM250.36972,130.03922c3.9544,0.78653 8.36047,2.73269 12.11294,5.00249l0.17882,-0.15149c0.47661,-0.78457 1.02933,-1.52936 1.64726,-2.21056c-1.21244,-0.62319 -2.41007,-1.26558 -3.58779,-1.92329c-3.55156,-1.9834 -7.88952,-2.61833 -10.91726,-5.51909c-0.31024,0.14536 -0.73596,0.19266 -1.22033,-0.17061c-0.04738,-0.03553 -0.09083,-0.07163 -0.13062,-0.10815c-0.28254,0.29464 -0.62406,0.59376 -1.03606,0.90815l-0.92708,-0.20385c-0.2905,0.72051 -1.15625,0.72051 -1.15625,0.72051c-0.26747,-0.00067 -0.53107,-0.0111 -0.79171,-0.02919c0.17595,0.95168 0.16561,2.1064 0.41744,3.33403l0.19149,-0.10538c0,0 0.1193,0.1193 0.22641,0.31407c1.69698,-0.14714 3.38067,-0.17828 4.99274,0.14236zM265.81353,136.57788c0.4837,-0.80616 0.9196,-1.6461 1.26987,-2.51862c-0.15236,-0.07321 -0.30455,-0.14675 -0.45656,-0.22062c-0.07748,0.11312 -0.14295,0.17858 -0.14295,0.17858c-0.64908,0.64018 -1.21486,1.37437 -1.67867,2.15923l-0.20917,0.22447c0.34334,0.23492 0.67809,0.47143 1.00318,0.7087zM242.50762,130.17849c-0.48104,-2.45743 0.62659,-3.33929 -1.56411,-3.80124c-0.24129,-0.05088 -0.38048,-0.48836 -0.61479,-0.41148c-0.61248,0.20097 -0.01093,1.30664 -0.19721,1.92374c-0.2847,0.94314 -0.64978,1.81538 -1.10915,2.64406c1.14699,-0.04593 2.32347,-0.1805 3.5094,-0.32276zM217.77274,135.99757l-0.53332,-1.33333c-0.04823,-0.12057 -0.09646,-0.24114 -0.14469,-0.36172c-0.30839,0.22677 -0.61773,0.45135 -0.92829,0.66977c0.28356,0.36277 0.28356,0.82771 0.28356,0.82771c0,0.39738 0,0.79476 0,1.19215c0.50457,-0.21936 1.00768,-0.44666 1.50959,-0.67914c-0.12806,-0.16844 -0.18686,-0.31543 -0.18686,-0.31543zM244.69553,123.87493c0.02586,-0.05761 0.05691,-0.1165 0.09373,-0.17659c-0.09728,-1.19561 0.09581,-2.16658 0.35279,-3.44918c-0.02518,0.00049 -0.05031,0.00078 -0.07537,0.00084c-1.81352,0.00434 -4.4376,-0.49685 -6.15645,0.1578c-0.7124,0.27133 -1.41135,2.40462 -1.14355,2.86639c0.30644,0.5284 1.21549,-0.24684 1.82316,-0.18477c0.12112,0.01237 2.5717,0.51148 2.76885,0.54773c0.76962,0.14153 1.55326,0.21447 2.33685,0.23778zM217.79221,107.82312c2.12297,-4.77171 9.64377,-6.19037 14.22932,-7.11552c2.77055,-0.54229 5.69157,-0.29094 8.51181,-0.29094c7.00606,0 15.2408,0.29075 20.5026,5.59808c3.20183,1.89828 3.99095,4.61774 3.66827,7.91152c0.53063,0.5726 0.2063,1.26018 0.09953,1.44988c0.5899,0.08726 1.1799,0.20623 1.76978,0.35631l-0.00076,-0.00154c-0.87504,-2.27609 -0.67519,-4.63369 -1.15,-7.00774c-0.00416,-0.99666 0.33102,-2.77411 0.05806,-3.72788c-0.40436,-1.41294 -3.55175,-2.69576 -4.70293,-3.27548c-4.24093,-2.13565 -8.35016,-2.97941 -13.02303,-3.89408c0,0 -0.12018,-0.02404 -0.27775,-0.09469c-0.2832,0.11897 -0.54377,0.11897 -0.54377,0.11897h-0.26666c-5.75517,-0.02404 -10.82818,0.17621 -16.55486,1.30906c-2.21993,0.43915 -4.30758,0.40237 -6.44758,1.2682c-2.3657,0.94414 -5.31751,2.34776 -6.93874,4.39977c-1.17281,1.48444 -0.37857,4.3314 -0.54824,6.02948c-0.16583,1.65965 -0.48242,3.47835 -1.09508,5.14966c2.22827,-2.44889 1.39323,-5.22332 2.71003,-8.18305zM251.55056,123.44945c2.6399,2.78853 7.12369,3.31784 10.39519,5.12751c4.06335,2.2477 8.33299,4.3349 12.65182,6.06244c1.61737,0.65964 2.32095,1.60876 3.69055,2.51705c1.57604,1.04519 3.50098,1.1243 5.06667,2.13333c0.41203,0.26554 0.7813,0.59232 1.15232,0.91614c0.11208,-0.1967 0.27111,-0.32773 0.43325,-0.41503c1.11462,-3.04909 1.46848,-6.23834 0.29374,-9.40682c-0.52909,-1.42705 -2.43333,-2.31302 -3.5841,-3.18408c-1.43862,-1.08893 -2.44553,-2.67995 -3.93812,-3.68979c-1.77647,-1.2019 -4.5167,-2.31682 -6.534,-3.12374c-5.90428,-3.62296 -11.57074,-3.64285 -17.4231,0.19042c-0.99706,0.65307 -1.71766,1.691 -2.39364,2.72226c0.11975,0.08065 0.18941,0.1503 0.18941,0.1503zM228.97273,123.99757c-0.42958,-1.07396 -0.72699,-2.4778 -1.58994,-3.31368c-6.39066,-6.1902 -12.58228,-0.31402 -18.85684,2.38342c-2.73542,1.36696 -6.53986,2.91439 -8.70873,5.08325c-3.3298,3.32977 -3.90389,7.72475 -2.51868,11.97226c4.58654,-2.91556 10.06529,-3.59815 14.99125,-5.73061c2.38847,-1.03397 4.73452,-3.32925 7.01273,-4.69617c2.80474,-2.10886 6.02584,-3.87756 9.29992,-5.18996l0.43855,-0.2241c0,0 0.08422,-0.04211 0.21798,-0.0801c-0.01336,-0.06679 -0.02671,-0.13358 -0.04007,-0.20036z" fill="#000000" stroke-width="0.5"></path>
      <path d="M251.50295,123.43415c0,0 -0.06959,-0.06987 -0.18934,-0.15052c0.67598,-1.03126 1.40051,-2.07815 2.39757,-2.73122c5.85236,-3.83327 11.57652,-3.83687 17.4808,-0.21391c2.0173,0.80692 4.78629,1.94407 6.56276,3.14597c1.49259,1.00984 2.50619,2.61994 3.94481,3.70887c1.15077,0.87106 3.05527,1.76801 3.58436,3.19506c1.17474,3.16848 0.81268,6.38113 -0.30194,9.43022c-0.16214,0.0873 -0.32202,0.21957 -0.4341,0.41627c-0.37102,-0.32382 -0.74016,-0.65078 -1.15219,-0.91632c-1.56569,-1.00903 -3.49347,-1.08448 -5.06951,-2.12967c-1.3696,-0.90829 -2.07514,-1.85525 -3.69251,-2.51489c-4.31883,-1.72754 -8.67448,-3.85209 -12.73783,-6.09979c-3.2715,-1.80967 -7.75297,-2.35153 -10.39287,-5.14006z" fill="#491d1d" stroke-width="0.5"></path>
      <path d="M229.26667,123.98675c0.01336,0.06678 0.02688,0.13414 0.04024,0.20093c-0.13376,0.03799 -0.21797,0.08014 -0.21797,0.08014l-0.43847,0.22437c-3.27408,1.3124 -6.49348,3.10013 -9.29822,5.20899c-2.27821,1.36692 -4.6799,3.7067 -7.06837,4.74067c-4.92596,2.13246 -10.43958,2.79433 -15.02612,5.70989c-1.38521,-4.24751 -0.82023,-8.67479 2.50957,-12.00456c2.16887,-2.16886 5.99352,-3.75316 8.72894,-5.12012c6.27456,-2.69744 12.53915,-8.55839 18.92981,-2.36819c0.86295,0.83588 1.16477,2.24975 1.59435,3.32371z" fill="#491d1d" stroke-width="0.5"></path>
      <path d="M265.59195,137.15908c-0.32509,-0.23727 -0.69266,-0.49337 -1.036,-0.72829l0.20789,-0.22626c0.46381,-0.78486 1.09118,-1.59286 1.74026,-2.23304c0,0 0.06693,-0.06478 0.14441,-0.1779c0.15201,0.07387 0.31553,0.15491 0.46789,0.22812c-0.35027,0.87252 -0.82037,1.8 -1.30407,2.60616z" fill="#565656" stroke-width="0.5"></path>
      <path d="M244.73876,123.90006c-0.78359,-0.02331 -1.58599,-0.07778 -2.35561,-0.21931c-0.19715,-0.03625 -2.71491,-0.55298 -2.83603,-0.56535c-0.60767,-0.06207 -1.52111,0.70394 -1.82755,0.17554c-0.2678,-0.46177 0.43581,-2.63823 1.14821,-2.90956c1.71885,-0.65465 4.43058,-0.14843 6.2441,-0.15277c0.02506,-0.00006 0.05035,0 0.07553,-0.00049c-0.25698,1.2826 -0.45094,2.29742 -0.35366,3.49303c-0.03682,0.06009 -0.06914,0.1213 -0.095,0.17891z" fill="#565656" stroke-width="0.5"></path>
      <path d="M242.56505,130.24811c-1.18593,0.14226 -2.42613,0.27921 -3.57312,0.32514c0.45937,-0.82868 0.81108,-1.76472 1.09578,-2.70786c0.18628,-0.6171 -0.38113,-1.7477 0.23135,-1.94867c0.23431,-0.07688 0.38759,0.35986 0.62888,0.41074c2.1907,0.46195 1.11198,1.43087 1.59302,3.8883z" fill="#565656" stroke-width="0.5"></path>
      <path d="M217.81756,136.0197c0,0 0.05411,0.15467 0.18217,0.32311c-0.50191,0.23248 -1.0659,0.47547 -1.57047,0.69483c0,-0.39739 -0.02778,-0.82818 -0.02778,-1.22556c0,0 0.00857,-0.5071 -0.27499,-0.86987c0.31056,-0.21842 0.66102,-0.46291 0.96941,-0.68968c0.04823,0.12058 0.10411,0.24192 0.15234,0.36249l0.56933,1.40467z" fill="#565656" stroke-width="0.5"></path>
      <path d="M217.84216,107.82106c-1.3168,2.95973 -0.4846,5.71951 -2.71287,8.1684c0.61266,-1.67131 0.83277,-3.4653 0.9986,-5.12495c0.16967,-1.69808 -0.62503,-4.55725 0.54778,-6.04169c1.62123,-2.05201 4.57605,-3.46898 6.94175,-4.41312c2.14,-0.86583 4.23387,-0.84068 6.4538,-1.27983c5.72668,-1.13285 10.86745,-1.34587 16.62262,-1.32183l0.26752,0.00057c0,0 0.26196,0.00098 0.54516,-0.11799c0.15757,0.07065 0.27874,0.09543 0.27874,0.09543c4.67287,0.91467 8.80011,1.78563 13.04104,3.92128c1.15118,0.57972 4.30001,1.87125 4.70437,3.28419c0.27296,0.95377 -0.06222,2.73877 -0.05806,3.73543c0.47481,2.37405 0.27238,4.74416 1.14742,7.02025l0.00076,0.00154c-0.58988,-0.15008 -1.27428,-0.30205 -1.86418,-0.38931c0.10677,-0.1897 0.43027,-0.87473 -0.10036,-1.44733c0.32268,-3.29378 -0.46845,-5.99696 -3.67028,-7.89524c-5.2618,-5.30733 -13.4443,-5.55024 -20.45036,-5.55024c-2.82024,0 -5.70257,-0.27264 -8.47312,0.26965c-4.58555,0.92515 -12.09736,2.31308 -14.22033,7.08479z" fill="#565656" stroke-width="0.5"></path>
      <path d="M265.93348,222.24201c0.84869,-0.54229 1.73291,-1.1442 2.55401,-1.75851c0.49329,-0.37099 1.0098,-0.73026 1.51378,-1.09054c0.0799,2.31649 0.31042,4.62809 0.51907,6.96952c0.03268,0.36665 -0.00809,0.77636 -0.03319,1.1693c-1.78387,-1.50576 -3.24593,-3.14357 -4.55367,-5.28977z" fill="#565656" stroke-width="0.5"></path>
      <path d="M207.84351,228.17895c0.75036,-2.73935 0.95009,-5.70244 1.40638,-8.51138c1.3354,1.15776 2.72098,2.36241 3.99401,3.58777c-1.38604,1.48308 -2.80004,3.16462 -4.25511,4.4829c-0.06705,0.06075 -0.62543,0.3049 -1.1984,0.61644c0.02071,-0.06222 0.03826,-0.12145 0.05313,-0.17574z" fill="#565656" stroke-width="0.5"></path>
      <path d="M267.01244,218.57395c-6.74009,5.0689 -14.61144,7.45503 -22.28282,10.37985c-0.69227,-0.9392 -1.68664,-0.27733 -1.68664,-0.27733l-0.66639,0.45541c-3.67514,1.94104 -6.92574,0.11255 -10.59788,-0.89082c-5.43251,-1.48437 -10.38379,-4.08373 -15.56221,-6.2078c-0.19213,-0.16104 -0.40414,-0.22751 -0.60094,-0.24396c-0.27254,-0.10934 -0.5466,-0.2177 -0.82074,-0.3239c-3.46035,-3.57746 -7.47197,-6.46796 -11.01601,-9.98395c-2.34445,-2.3259 -3.30218,-5.8082 -5.22304,-8.40816c0,0 -0.24798,-0.33083 -0.64837,-0.46945l-0.56602,-0.93769c-0.95118,-2.39875 -2.86033,-4.9331 -3.36206,-7.42223c-0.47701,-2.36646 -0.24274,-5.44012 -0.24996,-7.87476c-1.14397,-6.79672 -1.25372,-13.08869 0.75449,-19.82819c0.83653,-2.80737 2.58672,-5.12971 3.65847,-7.80903c1.85436,-3.09064 3.01783,-6.66159 5.63714,-9.28089c0.931,-0.931 2.26806,-1.46822 3.20283,-2.40299c2.20239,-2.2024 3.55845,-4.88962 6.83512,-5.53063c0,0 1.06712,-0.21401 1.0123,-1.2366c7.94282,-2.89042 14.44607,-7.32532 23.30148,-7.2808c3.74539,-0.01564 8.0512,-1.30566 11.77554,-0.55497c4.98569,1.00494 10.73127,4.00589 14.75445,7.0158c7.30101,4.38059 12.22934,10.38943 15.28792,18.11124l0.55498,0.25778c1.91952,2.37973 4.08572,4.037 4.7173,7.26518c1.1934,5.96709 2.67636,12.39144 2.11794,18.58448c-0.3429,3.80288 -2.16243,7.38422 -2.91729,11.09007c-0.89927,4.4964 -3.3273,7.72676 -5.47594,11.65622c-1.05436,1.92823 -2.20699,4.28371 -3.79267,5.85688c-2.4424,2.42313 -5.40256,4.24247 -8.14099,6.29127z" fill="#672929" stroke-width="0.25"></path>
      <g>
        <path d="M277.28199,162.92571l-0.30926,-0.62815c-1.84289,-4.6122 -5.08091,-7.54083 -7.61003,-11.76675c-2.16348,-2.87677 -5.18532,-6.89698 -8.3751,-8.67445c-3.83827,-2.13883 -8.32926,-1.72742 -12.43275,-2.53065c0,0 -0.27527,-0.05506 -0.53882,-0.24343l-1.20586,-0.00504c-6.26131,-1.25224 -13.07923,0.01279 -19.30885,1.03589c-6.10304,2.04008 -10.05596,5.68247 -14.9987,9.63877c-1.86596,1.49357 -5.10609,3.24644 -5.71675,5.54336c0,0 -0.28984,0.86953 -1.11771,0.87124c-1.67493,2.12494 -3.51669,3.95862 -4.48579,6.60581c-1.82209,4.97717 -2.33235,11.12574 -2.33235,16.39434c0,4.73623 -0.02754,10.32034 1.78256,14.74925c1.92219,4.70316 5.34761,8.79977 7.63075,13.39358c1.86095,2.45999 3.83311,4.70951 6.32531,6.57007l0.81576,0.54354c0.63702,-0.04011 1.06228,0.52689 1.06228,0.52689c1.81747,2.47892 5.4288,3.89475 8.22995,4.9096c1.94295,0.70393 3.598,1.87342 5.4136,2.69927c2.49423,1.13453 6.37846,0.6815 8.96661,0.16388c0.53333,0 1.06666,0 1.6,0l1.21136,-0.24847c0,0 0.10543,-0.02109 0.26064,-0.01997c0.41847,-0.68892 1.29631,-0.51336 1.29631,-0.51336c3.50314,0.76663 7.15034,-1.17623 10.07578,-2.79733c4.52015,-2.50478 8.57617,-4.89951 12.26187,-8.59417c4.96645,-4.94693 10.14038,-10.94899 12.21903,-17.8723c0.82651,-2.75285 1.09766,-5.5765 1.56866,-8.4025c1.40694,-7.03856 0.73131,-13.89866 -1.29144,-20.63617c-0.66469,-0.0481 -0.99704,-0.71277 -0.99704,-0.71277zM262.21241,139.67696c3.52398,1.95375 6.85394,6.28977 9.22491,9.45889c2.37031,3.94141 5.302,6.8287 7.26336,10.88954c0.49007,0.03091 0.84989,0.39074 0.84989,0.39074l0.56862,0.75526c2.55253,7.66603 3.51681,15.5271 1.91032,23.55398c-0.48516,2.91098 -0.78012,5.82477 -1.63133,8.66415c-2.20282,7.3479 -7.59235,13.64911 -12.84762,18.92771c-3.86782,3.85755 -8.08513,6.37616 -12.80482,9.00581c-3.4703,1.93353 -7.45771,3.7841 -11.56786,3.1085c-0.2972,0.39376 -0.79941,0.49419 -0.79941,0.49419l-1.4553,0.28485c-0.53333,0 -1.06666,0 -1.6,0c-3.07335,0.61466 -7.27931,0.92172 -10.23338,-0.36945c-1.7791,-0.77761 -3.36505,-1.94511 -5.25306,-2.63407c-3.05611,-1.11522 -6.5395,-2.60201 -8.79374,-5.06849c-0.16505,-0.06208 -0.26971,-0.13185 -0.26971,-0.13185l-1.62858,-1.08631c-2.75594,-2.0748 -4.96039,-4.54647 -7.00802,-7.29659c-2.36565,-4.70511 -5.92395,-8.9406 -7.83593,-13.80641c-1.87743,-4.7779 -1.95076,-10.57059 -1.95076,-15.65074c0,-5.5513 0.56867,-11.9547 2.46766,-17.20567c1.1352,-3.13897 3.32281,-5.22921 5.24902,-7.81101c0,0 0.28087,-0.37449 0.72803,-0.49325c1.31722,-2.50406 3.92536,-4.08112 6.16937,-5.87534c5.24441,-4.19324 9.44585,-7.93763 15.93461,-10.09454c6.4807,-1.09452 13.63659,-2.40167 20.15782,-1.09745l1.21016,-0.00608c0,0 0.49,0 0.85642,0.30679c4.34691,0.87608 9.01178,0.52619 13.08932,2.78684z" fill="#000000" stroke-width="0.5"></path>
        <path d="M277.32714,162.90416c0,0 0.33288,0.66582 0.99757,0.71392c2.02275,6.73751 2.70255,13.62218 1.29561,20.66074c-0.471,2.826 -0.74417,5.6601 -1.57068,8.41295c-2.07865,6.92331 -7.26727,12.94819 -12.23372,17.89512c-3.6857,3.69466 -7.75771,6.0989 -12.27786,8.60368c-2.92544,1.6211 -6.58508,3.56676 -10.08822,2.80013c0,0 -0.87944,-0.17544 -1.29791,0.51348c-0.15521,-0.00112 -0.26095,0.01999 -0.26095,0.01999l-1.21282,0.24853c-0.53334,0 -1.06858,0.00001 -1.60191,0.00001c-2.58815,0.51762 -6.48286,0.96941 -8.97709,-0.16512c-1.8156,-0.82585 -3.47741,-1.99739 -5.42036,-2.70132c-2.80115,-1.01485 -6.42272,-2.43602 -8.24019,-4.91494c0,0 -0.42642,-0.56782 -1.06344,-0.52771l-0.81671,-0.54424c-2.4922,-1.86056 -4.47238,-4.1177 -6.33333,-6.57769c-2.28314,-4.59381 -5.71776,-8.70681 -7.63995,-13.40997c-1.8101,-4.42891 -1.78509,-10.03099 -1.78509,-14.76722c0,-5.2686 0.515,-11.43639 2.33709,-16.41356c0.9691,-2.64719 2.81568,-4.48899 4.49061,-6.61393c0.82787,-0.00171 1.1187,-0.87255 1.1187,-0.87255c0.61066,-2.29692 3.8574,-4.05675 5.72336,-5.55032c4.94274,-3.9563 8.91426,-7.60889 15.0173,-9.64897c6.22962,-1.0231 13.07025,-2.28946 19.33156,-1.03722l1.20723,0.0053c0.26355,0.18837 0.53948,0.24357 0.53948,0.24357c4.10349,0.80323 8.60797,0.39685 12.44624,2.53568c3.18978,1.77747 6.22259,5.80582 8.38607,8.68259c2.52912,4.22592 5.7769,7.16797 7.61979,11.78017l0.30963,0.6289z" fill="url(#color-1)" stroke-width="0.25"></path>
        <path d="M240.8122,137.66906c0.16736,-0.28651 0.47798,-0.55238 1.05447,-0.55238c1.25,0 1.25,1.25 1.25,1.25l-0.02427,1.3118c-0.70066,3.41589 1.11264,8.32478 -0.54591,11.52285c-0.01523,0.02937 -0.03077,0.05855 -0.0466,0.08754l0.01931,0.00644l-0.52423,1.57265c-0.15709,0.51078 -0.63267,0.88205 -1.19497,0.88205c-0.69036,0 -1.25,-0.55964 -1.25,-1.25v-1.33333c0,-4.10593 0.28715,-8.19623 0.26668,-12.26666c0,0 0,-1.07399 0.99552,-1.23095z" fill="#2f2f2f" stroke-width="0.5"></path>
        <path d="M262.7141,160.0189c0.74199,-0.83746 1.55727,-1.6249 2.39598,-2.39765c1.73282,-1.73313 3.46294,-3.46203 5.20605,-5.20513c0,0 0.88388,-0.88388 1.76777,0c0.88388,0.88388 0,1.76777 0,1.76777c-0.32775,0.32775 -0.65503,0.65507 -0.98196,0.98205c-0.10096,0.36754 -0.35138,0.61795 -0.35138,0.61795l-0.26666,0.26666c-1.63103,1.63103 -3.08731,3.13266 -4.84175,4.57538c-0.29181,0.29163 -0.58385,0.58343 -0.8762,0.87547c-0.39498,0.459 -0.72877,0.89209 -1.11686,1.11534c-0.13838,0.13815 -0.27685,0.27637 -0.41542,0.41467l-0.07081,0.02214l0.01803,0.02253l-1.32556,1.06045c-0.21512,0.17514 -0.48962,0.28014 -0.78865,0.28014c-0.69036,0 -1.25,-0.55964 -1.25,-1.25c0,-0.34517 0.13991,-0.65767 0.36611,-0.88388l1.06665,-1.06667l0.11309,0.11308l0.21596,-0.17276c0.37911,-0.37991 0.7576,-0.75903 1.13562,-1.13755z" fill="#2f2f2f" stroke-width="0.5"></path>
        <path d="M278.2565,182.01059c-0.36058,0 -0.72114,0.0045 -1.08169,0.01267c-0.67699,0.27521 -1.58617,0.24928 -2.51346,0.10619c-2.75097,0.15883 -5.50291,0.42055 -8.26134,0.42055c0,0 -1.25,0 -1.25,-1.25c0,-1.25 1.25,-1.25 1.25,-1.25c1.41648,0 2.83155,-0.07038 4.24574,-0.15971c0.10056,-0.17101 0.20367,-0.27413 0.20367,-0.27413l1.45376,-0.59551c1.17501,0.29948 2.32614,0.43925 3.47615,0.5531c0.64722,-0.02741 1.2944,-0.04574 1.94158,-0.05003l1.51702,-0.25283c0.07415,-0.01371 0.1506,-0.02088 0.22873,-0.02088c0.69036,0 1.25,0.55964 1.25,1.25c0,0.61444 -0.44333,1.12534 -1.02757,1.23027l-1.31063,0.26212l-0.00847,-0.04237l-0.03706,0.00618z" fill="#2f2f2f" stroke-width="0.5"></path>
        <path d="M267.55056,208.85055c-0.88388,0.88388 -1.76777,0 -1.76777,0l-0.26666,-0.26666c-2.64596,-2.6564 -4.56155,-5.88414 -7.59944,-8.15054c0,0 -1.00001,-0.74999 -0.25002,-1.75c0.74999,-1.00001 1.75,-0.25002 1.75,-0.25002c3.13628,2.36302 5.12101,5.6487 7.86723,8.38279l0.26666,0.26666c0,0 0.88388,0.88388 0,1.76777z" fill="#2f2f2f" stroke-width="0.5"></path>
        <path d="M239.87849,209.12079c0.07442,-0.46067 0.14881,-0.91453 0.22186,-1.35962c0,0 0.2055,-1.23299 1.43849,-1.0275c1.23299,0.2055 1.0275,1.43849 1.0275,1.43849c-0.63408,3.73986 -1.32241,8.12334 -1.32241,11.91767l-0.0738,0.11085l0.05561,0.01112l-0.26212,1.31063c-0.10493,0.58424 -0.61583,1.02757 -1.23027,1.02757c-0.69036,0 -1.25,-0.55964 -1.25,-1.25v-1.6h0.27308c0.0007,-0.15222 0.0025,-0.30533 0.00536,-0.45925c-0.37732,-2.80411 -0.01178,-5.60003 -0.01178,-8.60742v-0.26666c0,0 0,-1.16761 1.12848,-1.24588z" fill="#2f2f2f" stroke-width="0.5"></path>
        <path d="M212.85085,208.44009c-0.53938,0.47672 -1.06385,0.96701 -1.56695,1.47712c0,0 -0.88388,0.88389 -1.76777,0.00002c-0.88389,-0.88388 -0.00002,-1.76777 -0.00002,-1.76777c1.36085,-1.34561 2.85063,-2.56318 4.36476,-3.76131c1.54304,-1.43083 3.14394,-2.78461 4.82025,-4.07632c0.44273,-0.34115 0.75779,-0.95994 1.30694,-1.0528c0.08028,-0.07845 0.16016,-0.15734 0.23961,-0.23669l0.08916,-0.01927l0.00447,-0.00357l-0.02463,-0.03284l1.05655,-0.79241c0.21062,-0.16156 0.47415,-0.25758 0.7601,-0.25758c0.69036,0 1.25,0.55964 1.25,1.25c0,0.39906 -0.187,0.75445 -0.47816,0.98331l-1.31151,1.04919c-1.52039,1.4793 -3.2012,2.79523 -4.88074,4.10464c-0.99295,0.84466 -1.98845,1.70467 -2.93014,2.64784l-0.09891,0.09891c0,0 -0.35159,0.35159 -0.83303,0.38953z" fill="#2f2f2f" stroke-width="0.5"></path>
        <path d="M199.17154,178.7424c0,0 -1.22573,-0.24514 -0.98058,-1.47087c0.24514,-1.22573 1.47087,-0.98058 1.47087,-0.98058c1.76788,0.39379 3.76594,0.23704 5.76516,-0.00917c0.24972,-0.81512 1.18969,-0.81512 1.18969,-0.81512h0.53335c1.34728,0.00291 2.48695,-0.28801 3.18709,0.27842c0.0937,-0.00359 0.18689,-0.00641 0.27957,-0.0084v-0.00336h1.6c0.69036,0 1.25,0.55964 1.25,1.25c0,0.69036 -0.55964,1.25 -1.25,1.25h-1.43752c-3.74992,0.01101 -7.85613,1.20053 -11.60761,0.50907z" fill="#2f2f2f" stroke-width="0.5"></path>
        <path d="M216.46694,148.19519c-0.35715,-0.26865 -0.71842,-0.53864 -1.0836,-0.81185c0,0 -1,-0.75 -0.25001,-1.75c0.75,-1 1.75,-0.25001 1.75,-0.25001c3.45141,2.5956 6.6208,4.91635 9.24786,8.4301l1.01936,1.01935c0.22621,0.22621 0.36612,0.53871 0.36612,0.88389c0,0.69036 -0.55964,1.25 -1.25,1.25c-0.29902,0 -0.57352,-0.105 -0.78864,-0.28013l-1.32556,-1.06044l0.14291,-0.17864l-0.0397,0.02155c-0.02946,-0.0391 -0.05898,-0.07805 -0.08856,-0.11685c-2.62391,-1.30604 -4.85297,-3.17286 -6.84952,-5.48867l-0.62432,-0.92012c0,0 -0.22215,-0.33322 -0.22634,-0.74818z" fill="#2f2f2f" stroke-width="0.5"></path>
        <path d="M236.36326,180.47785c-0.08908,-0.33683 -0.07635,-0.68336 0.0122,-1.0199c0.11783,-1.91835 2.28805,-4.10394 3.92716,-3.34116c0.81621,-0.01461 1.25526,0.44573 1.40379,1.11258c0.30906,0.21517 0.60177,0.50748 0.86735,0.88685c1.37693,1.96693 0.21788,3.87344 -1.35095,5.04327c-0.25181,1.20945 -1.46794,0.96623 -1.46794,0.96623c-0.00142,-0.00038 -0.00284,-0.00077 -0.00426,-0.00115c-0.50842,0.3615 -1.03247,0.70739 -1.57169,0.53906c-1.99606,-0.62314 -2.32833,-2.5113 -1.81565,-4.18578z" fill="#2f2f2f" stroke-width="0.5"></path>
      </g>
    </g>
  </g>
</svg>
