<?xml version="1.0" encoding="UTF-8"?>
<svg xmlns="http://www.w3.org/2000/svg" xmlns:xlink="http://www.w3.org/1999/xlink" version="1.1" width="68.42078" height="47.6941" viewBox="0,0,68.42078,47.6941">
  <defs>
    <linearGradient x1="239.57872" y1="174.79291" x2="239.57872" y2="192.28298" gradientUnits="userSpaceOnUse" id="color-1">
      <stop offset="0" stop-color="#b52a2a"></stop>
      <stop offset="1" stop-color="#881f1f"></stop>
    </linearGradient>
  </defs>
  <g transform="translate(-205.78961,-156.15295)">
    <g stroke="#000000" stroke-miterlimit="10">
      <path d="M207.78961,201.84704v-43.69409h64.42078v43.6941z" fill="#d4d4d4" stroke-width="4"></path>
      <path d="M242.74753,184.09224l27.61696,-14.48129c0,0 0.04295,7.3569 0.00217,7.37828c-4.2602,2.23388 -24.58413,12.89099 -24.58413,12.89099z" fill="#989898" stroke-width="0"></path>
      <path d="M234.49371,190.36354c0,0 -20.439,-10.43473 -24.72331,-12.622c-0.04101,-0.02094 -0.07833,-7.37787 -0.07833,-7.37787l27.77331,14.17912z" fill="#989898" stroke-width="0"></path>
      <path d="M208.15823,167.09716l-0.17553,-8.58943h63.19205v8.21598l-31.24198,19.80188z" fill="#d4d4d4" stroke-width="4"></path>
      <path d="M232.19034,187.04009c-0.68922,-0.90842 -1.975,-2.70126 -2.49625,-4.07827c-0.14284,-0.37735 -0.14582,-1.56154 -0.0059,-1.94843c0.51051,-1.41164 1.78611,-3.6621 2.61336,-5.05949c0.44266,-0.74774 1.2418,-1.22643 1.92028,-1.15371c1.26361,0.13543 3.19886,0.43708 3.92459,1.05436c0.89892,0.76459 1.6482,3.95147 1.90038,5.0634c0.08571,0.37792 0.73962,-3.51899 2.01549,-4.55897c0.72797,-0.59337 2.88552,-1.0924 4.14592,-1.34358c0.56126,-0.11185 1.21936,0.40687 1.58622,1.23832c0.57931,1.31294 1.38831,3.24932 1.70792,4.50422c0.08698,0.3415 0.09332,1.38719 0.01674,1.71246c-0.34022,1.44512 -1.31577,3.49617 -1.85633,4.57047c-0.22285,0.44289 -0.68094,0.91549 -1.00488,1.12055c-0.84278,0.5335 -4.64236,2.93874 -6.21397,3.93361c-0.42228,0.26732 -0.95199,0.24787 -1.38129,-0.04805c-1.52902,-1.05399 -5.10062,-3.51596 -5.86807,-4.04498c-0.28464,-0.19621 -0.73031,-0.60089 -1.00423,-0.96194z" fill="url(#color-1)" stroke-width="2"></path>
    </g>
  </g>
</svg>
