<?xml version="1.0" encoding="UTF-8"?>
<svg xmlns="http://www.w3.org/2000/svg" xmlns:xlink="http://www.w3.org/1999/xlink" version="1.1" width="286.59107" height="222.08173" viewBox="0,0,286.59107,222.08173">
  <g transform="translate(-78.47468,-56.21436)">
    <g stroke="none" stroke-miterlimit="10">
      <path d="M288.44987,167.67566l-0.0796,-0.04366l-0.45169,0.60226c-0.45492,0.62045 -1.18915,1.02329 -2.01746,1.02329c-1.38071,0 -2.5,-1.11929 -2.5,-2.5c0,-0.41989 0.10352,-0.8156 0.28642,-1.16301l0.15651,-0.31302l-0.29175,-0.29175l0.87522,-0.87521l0.39956,-0.79913c0,0 0.88069,-1.76139 2.64208,-1.37594c0.05782,-0.004 0.11618,-0.00603 0.17501,-0.00603c1.38071,0 2.5,1.11929 2.5,2.5c0,0.57191 -0.19204,1.09896 -0.51515,1.52019l-0.04577,0.06103c-0.1984,1.03768 -1.13337,1.66098 -1.13337,1.66098z" fill="#363636" stroke-width="0.5"></path>
      <path d="M78.47468,56.21436z" fill="#ff9500" stroke-width="0"></path>
      <g stroke-width="0.5">
        <path d="M183.70212,180.44587c0,-0.63841 0.23381,-1.22156 0.61954,-1.66662c0.04267,-0.31228 0.08786,-0.62271 0.13552,-0.93115c-0.11233,-0.28759 -0.17404,-0.601 -0.17404,-0.92899c0,-0.62352 0.22304,-1.19433 0.5928,-1.63526c0.00622,-7.17661 1.99246,-13.44785 4.85584,-19.9736c0.696,-1.58621 1.52969,-4.30489 2.57662,-5.73291c0.59833,-0.81613 4.00107,-3.96951 4.78764,-4.88061c2.16945,-2.51291 4.15418,-5.39576 6.48481,-7.74445c2.95801,-2.98094 6.83359,-5.371 10.17258,-7.90442c0,0 1.38168,-1.04834 2.70954,-0.24053c4.79281,-2.37773 9.88425,-2.87631 14.96661,-4.28629c7.09966,-1.96965 15.30409,-4.87144 22.611,-1.63667c0.9876,0.43721 1.70257,1.34493 2.61801,1.92085c2.33331,1.46793 5.09122,2.13993 7.46381,3.47336c1.88949,1.06193 3.54594,2.50773 5.39941,3.63277c2.17793,1.64872 5.17419,3.12239 7.17924,4.85943c0.83622,0.72444 1.30162,1.80049 2.02982,2.63581c2.84971,3.26889 6.05536,5.97861 8.37237,9.73217c2.08409,3.37623 3.0174,7.26793 4.76122,10.78608c1.12372,2.26711 2.4225,4.49352 3.08176,6.94042c1.87662,6.96516 1.26102,14.87929 1.23362,22.05896c-1.96465,10.13757 -6.52976,19.45016 -12.66127,27.68031c-0.65438,0.87836 -3.95384,3.91708 -4.78769,4.88065c-0.80896,0.93479 -2.83958,4.05728 -3.60703,4.83366c-2.84089,2.87396 -6.44484,4.16174 -9.74984,6.24098c-0.91544,0.57592 -1.63385,1.47579 -2.61803,1.92082c-1.75799,0.79492 -3.75238,0.99224 -5.47654,1.85969c-5.30866,0.93435 -9.318,1.22408 -14.31296,0.44482l-0.83048,0.26206c-9.0662,-1.63186 -17.87728,-2.48894 -26.2575,-6.72785c-3.88791,-1.98426 -6.40596,-4.45533 -9.36512,-7.52731c-1.49752,-1.55461 -2.31834,-1.43453 -4.13528,-2.53987c-3.03494,-1.84631 -6.70509,-4.31219 -9.22834,-6.86483c-7.78779,-7.87851 -10.07247,-20.61692 -9.14401,-31.73241c-0.1936,-0.35919 -0.30362,-0.77111 -0.30362,-1.20903zM239.07552,231.40604l2.8144,0.04912c0.31507,0.06374 0.62379,0.12308 0.92695,0.17813l1.85937,-0.68525c0,0 2.11821,-0.71428 3.01828,1.23234c2.54657,0.08601 4.99577,-0.16441 8.03868,-0.65037c1.56273,-0.79487 3.38174,-0.9526 4.98195,-1.6671c0.78589,-0.35091 1.3028,-1.14359 2.0302,-1.6059c2.9561,-1.87881 6.29795,-2.94026 8.84298,-5.51491c1.32794,-1.34339 2.12894,-3.14098 3.36526,-4.57108c1.39354,-1.61195 3.24355,-2.80724 4.50877,-4.5241c5.55736,-7.54111 9.86979,-15.96753 11.74182,-25.22112c-0.02974,-6.57387 0.62851,-13.89093 -1.09045,-20.26224c-0.57229,-2.12119 -1.75865,-4.0233 -2.7285,-5.99103c-1.66389,-3.37586 -2.53788,-7.14472 -4.53524,-10.3745c-2.17292,-3.51366 -5.25112,-5.99283 -7.89639,-9.07728c-0.54801,-0.63899 -0.8217,-1.51558 -1.45628,-2.06651c-1.8874,-1.63861 -4.6956,-2.97093 -6.76544,-4.54531c-1.7393,-1.05574 -3.28599,-2.4242 -5.05909,-3.42075c-2.43356,-1.36774 -5.24939,-2.05897 -7.64282,-3.58016c-0.72742,-0.46232 -1.24796,-1.24679 -2.03022,-1.60595c-5.98406,-2.74748 -13.46947,0.31092 -19.22288,1.89013c-4.74185,1.30155 -9.6545,1.64706 -14.08128,3.94109c0,0 -1.21514,0.61464 -2.30176,0.03151c-3.03885,2.26429 -6.57853,4.421 -9.22264,7.10791c-2.25811,2.29465 -4.18107,5.09511 -6.29784,7.53819c-1.3953,1.61038 -3.22629,2.82037 -4.50872,4.52408c-0.51018,0.67776 -1.92377,4.51129 -2.07161,4.8474c-2.70115,6.14118 -4.41523,11.85705 -4.441,18.61035c-2.08491,10.75809 -1.45276,25.43531 6.83329,33.81788c3.04984,3.08535 7.02575,4.97561 10.58607,7.2783c4.04413,2.61561 6.37552,6.47028 10.84322,8.7062c3.48754,1.76407 6.35989,2.25098 10.05277,3.36459c2.77514,0.83686 5.30469,1.96716 8.24938,2.25865c0.6014,0.05953 1.20643,0.09834 1.8113,0.1388c0.46542,-0.1511 0.84749,-0.1511 0.84749,-0.1511z" fill="#c19e4b"></path>
        <path d="M238.22623,231.6077c-0.60487,-0.04046 -1.21165,-0.07936 -1.81306,-0.13889c-2.94469,-0.29149 -5.48245,-1.42308 -8.25758,-2.25993c-3.69288,-1.11361 -6.57504,-1.60404 -10.06258,-3.36812c-4.4677,-2.23592 -6.81054,-6.09822 -10.85466,-8.71383c-3.56032,-2.30269 -7.5443,-4.20208 -10.59413,-7.28744c-8.28606,-8.38257 -8.92704,-23.09194 -6.84213,-33.85003c0.02577,-6.75331 1.74455,-12.48752 4.4457,-18.62871c0.14784,-0.33612 1.56385,-4.17419 2.07403,-4.85195c1.28243,-1.70371 3.11695,-2.91884 4.51225,-4.52922c2.11677,-2.44307 4.04645,-5.25062 6.30456,-7.54527c2.64412,-2.68692 6.19322,-4.85007 9.23207,-7.11436c1.08662,0.58311 2.30359,-0.03243 2.30359,-0.03243c4.42678,-2.29402 9.35341,-2.6438 14.09525,-3.94536c5.7534,-1.57921 13.25747,-4.63684 19.24154,-1.88935c0.78226,0.35917 1.305,1.14419 2.03241,1.60652c2.39343,1.52118 5.21695,2.21531 7.65051,3.58304c1.7731,0.99653 3.32504,2.3679 5.06434,3.42364c2.06985,1.57439 4.88449,2.91155 6.77189,4.55016c0.63458,0.55093 0.91006,1.42918 1.45807,2.06817c2.64527,3.08444 5.73096,5.5729 7.90388,9.08655c1.99736,3.22978 2.87623,7.00873 4.54012,10.38459c0.96985,1.96774 2.15797,3.87602 2.73026,5.9972c1.71897,6.37132 1.06112,13.70803 1.09086,20.28189c-1.87203,9.2536 -6.19582,17.70424 -11.75318,25.24536c-1.26522,1.71685 -3.1195,2.91657 -4.51304,4.52853c-1.23632,1.43009 -2.04134,3.23101 -3.36928,4.5744c-2.54503,2.57465 -5.89526,3.64112 -8.85136,5.51994c-0.7274,0.46231 -1.24643,1.25594 -2.03233,1.60685c-1.60021,0.71451 -3.42379,0.87388 -4.98652,1.66875c-3.04291,0.48596 -5.49941,0.73803 -8.04598,0.65202c-0.90007,-1.94663 -3.021,-1.23202 -3.021,-1.23202l-1.86121,0.68538c-0.30316,-0.05505 -0.61277,-0.11435 -0.92784,-0.17809l-2.81713,-0.0491c0,0 -0.38289,-0.00002 -0.8483,0.15108z" fill="#ffce66"></path>
      </g>
      <path d="M224.80413,204.78471c8.53552,4.377 21.55932,6.70926 30.20621,1.46024c0.37633,-0.30208 0.75266,-0.60414 1.12899,-0.90621l0.95603,-1.22381c0,0 0.72975,-0.92279 1.70624,-0.48821l0.7394,-1.62207c0.53333,0.17984 1.06667,0.35969 1.6,0.53953c4.28795,1.44595 9.71078,2.74684 13.05937,5.97413c1.61462,1.55614 2.67136,4.70691 0.50741,6.60072c-2.279,1.99449 -8.48696,-0.31839 -11.25937,-1.46385c1.93528,3.08085 2.95806,6.90858 -1.58137,8.24717c-2.27777,0.67167 -5.9237,-0.75084 -7.7235,-2.15473c-0.54722,-0.42685 -1.59604,-1.59893 -2.17015,-2.36736c-0.08208,0.37088 -0.20676,0.72873 -0.25097,0.9975c-1.12718,3.32055 -4.49558,7.2631 -8.4333,4.66538c-0.32739,-0.21598 -1.72579,-2.6381 -2.04205,-3.17133c-0.14939,-0.25188 -0.34311,-0.74596 -0.47155,-1.1839c-0.34535,0.44379 -1.04491,0.90411 -1.47046,1.16485c-2.02007,1.23773 -6.01109,2.93058 -8.04544,0.49388c-0.59275,-0.70998 -0.77355,-1.54096 -0.71601,-2.40437c-3.12194,1.87084 -6.54263,3.41497 -10.11216,2.03929c-1.9972,-0.76971 -2.83584,-2.29953 -2.76271,-3.8981c-2.25677,0.71181 -4.59134,1.06951 -6.84234,0.45891c-2.40134,-0.65139 -3.87193,-1.2709 -2.66505,-4.4037c0.11268,-0.29249 2.79239,-1.97022 3.28909,-2.22211c3.40807,-1.72823 6.98924,-3.29908 10.55619,-4.65588c0,0 0.4524,-0.17163 0.93996,-0.06032c0.70251,-0.99986 1.85753,-0.41564 1.85753,-0.41564z" fill="#292f33" stroke-width="0.5"></path>
      <path d="M286.55438,182.52775c-0.45966,1.15246 -0.91932,2.30493 -1.37898,3.45739c-0.93489,1.25844 -2.0569,2.44264 -3.32121,3.52773c-1.88509,2.58167 -3.47775,5.3321 -6.41332,6.87816c-7.03724,3.70626 -19.37078,4.41544 -25.15868,-2.38312c-2.38535,-2.80187 -3.88979,-8.17984 -4.59923,-11.7048c-0.61112,-3.03646 -0.52216,-5.35047 -2.4537,-7.79548c0,0 -0.05437,-0.07333 -0.1286,-0.20256c-0.43012,-0.07182 -1.12788,-0.27704 -1.60329,-0.86355l0.00004,-0.00002c-1.07761,-0.33594 -2.3558,-0.43028 -2.74744,0.67974c-0.16577,0.46983 -0.20791,0.95656 -0.18603,1.45265c0.63437,0.8004 0.48604,1.7551 0.33025,2.2759c0.0646,0.41166 0.11229,0.82199 0.1112,1.22696c-1.22886,7.55961 -3.10874,13.49412 -9.89255,17.81323c-6.36984,4.05555 -12.60552,3.93085 -19.74827,2.69261c-2.45814,-0.42614 -4.19753,-0.66262 -6.2689,-2.20449c-2.92736,-2.17906 -4.78058,-5.04628 -5.9157,-8.29953v-2.12827c-0.00497,-0.69734 0.08787,-1.50092 0.21366,-2.36303c-1.14645,-0.68838 -1.14645,-2.19237 -1.14645,-2.19237l0.04855,-1.67159c0.4012,-2.02938 0.34882,-4.70681 1.55992,-6.48534c-0.35414,0.1856 -0.72214,0.34783 -1.08511,0.51264c-0.16369,0.07433 -0.33035,0.14195 -0.49865,0.20584l-0.98618,0.99767l-0.05273,-0.05334c-0.08117,0.10775 -0.16549,0.2134 -0.25326,0.31672c-0.90744,1.06814 -2.4773,1.28318 -3.72201,1.91697l-2.80958,1.70538c-0.38339,0.24199 -0.83629,0.38181 -1.32147,0.38181c-1.38071,0 -2.5,-1.13233 -2.5,-2.52912c0,-0.82416 0.38967,-1.55625 0.9928,-2.01798l0.00218,-0.00442c-0.38192,-0.01052 -0.76329,-0.02464 -1.14273,-0.03711c0.05763,-0.41238 0.11525,-0.82475 0.17288,-1.23711l-0.00001,-0.00001c0,0 0.10749,-0.76116 0.6188,-1.38416c0.00162,-0.00718 0.00328,-0.01436 0.00496,-0.02152c-0.04438,-0.18862 -0.06787,-0.38543 -0.06787,-0.5878c0,-1.00963 0.58479,-1.88109 1.43041,-2.28662l2.27567,-1.15108l0.0201,0.04067c0.04649,-0.03898 0.09356,-0.07738 0.14122,-0.11516c0.02301,-0.01823 3.20725,-1.08929 5.35853,-1.81171c-0.92159,-0.88028 -1.74806,-1.93125 -2.12536,-3.13713c-1.90642,-6.09316 2.96973,-8.98374 7.72898,-10.28325c-2.82343,-3.35613 -0.14586,-12.09507 4.87671,-13.02043c1.17996,-0.21739 2.21303,0.9474 3.35996,1.30226c1.06987,0.33102 2.31019,0.17447 3.27345,0.75016c1.2663,0.7568 2.25926,1.93594 3.17252,3.10224c0.52707,0.67311 0.9808,1.43944 1.24671,2.25785c1.73064,-1.82495 4.41892,-2.94586 6.9345,-2.698c5.43447,0.53545 6.26422,5.77394 9.11012,9.07879c1.84118,2.1381 4.12817,3.08446 6.35242,4.76132l2.12499,1.07488c0.24983,0.11981 0.4769,0.2803 0.67284,0.473c1.34944,-0.17431 2.71032,-0.26633 4.06786,-0.27163l1.29257,0.29259c1.14355,-0.92521 2.31245,-2.25433 3.26686,-3.68307l0.75781,-1.53326l0.0965,0.04881c0.05622,-0.17175 0.12091,-0.34113 0.1954,-0.50777c0.12899,-0.28856 0.28485,-0.55675 0.4624,-0.80857c0.10588,-0.26164 0.19942,-0.52007 0.27917,-0.77343c0.71477,-2.27074 0.26641,-4.80017 2.59024,-6.47924c2.27586,-1.64441 7.4347,-1.4732 9.40788,0.607c0.67727,0.714 -0.69638,1.92011 -0.60365,2.90522c0.02969,0.31536 0.58835,-0.23935 0.8364,-0.43268c0.54395,-0.42396 0.96085,-1.00382 1.5214,-1.40504c0.92189,-0.65987 1.9634,-1.13282 2.90513,-1.76337c2.52185,-1.68855 3.77491,-4.39115 6.01848,-6.15531c1.3359,-1.05044 2.79196,-2.84182 4.44544,-2.47873c5.38417,1.18233 3.65508,5.46429 3.20484,8.51453c-0.38734,0.97965 -0.64824,2.02075 -1.16203,2.93895c-0.19727,0.35254 -1.17616,0.47038 -0.91989,0.78166c0.26816,0.32572 0.77582,-0.32076 1.15997,-0.49003c0.71913,-0.31687 1.43983,-0.63069 2.14968,-0.96829c3.55292,-1.68976 8.5046,-4.00827 10.91285,1.40453c0.63504,1.42731 -0.14791,3.15143 -0.55174,4.6624c-0.36007,1.34723 -0.93566,2.46591 -1.67099,3.40156c0.68572,0.85935 1.49827,1.66292 1.7444,2.71564c0.28713,1.22811 -0.35914,2.49771 -0.53125,3.74763c-0.1984,1.44082 0.39666,3.25707 -0.58029,4.32452c-1.08966,1.19061 -3.03982,1.08367 -4.62059,1.35818c-0.27621,0.04796 -0.91659,-0.6372 -0.72551,-0.42979c2.1711,2.35657 1.27196,4.85822 0.66075,7.92535c-0.2998,1.50446 -0.68353,2.87339 -1.17937,4.15138zM249.43832,171.39882c0.52742,3.2033 1.2421,5.43544 2.22281,8.4119c0.79356,2.40845 1.02432,4.82989 2.56855,6.98333c3.01652,4.20653 8.62617,4.63025 13.16929,3.70114c4.06894,-0.83214 7.40891,-1.57069 10.31366,-3.7854c0.16012,-0.22989 0.32271,-0.45768 0.48959,-0.68182c1.64091,-1.63211 2.79895,-3.35572 3.61902,-5.24905l0.46634,-2.40678c0,0 0.15234,-0.77057 0.71177,-1.36676c0.17024,-0.80153 0.30567,-1.63383 0.41394,-2.50105c0.24508,-1.96298 -1.83115,-4.02853 -1.04596,-5.84067c0.64101,-1.47939 2.44505,-2.16904 3.92272,-2.78098c0.72761,-0.30132 1.72725,0.66585 2.35171,0.1826c0.4346,-0.33631 -0.58787,-0.99992 -0.58029,-1.55342c0.00953,-0.69508 0.67838,-1.31993 0.64673,-1.99519c-0.57925,-0.13059 -0.97424,-0.42683 -1.24357,-0.77011c-1.43,0.62327 -2.98474,1.05507 -4.54043,1.39644c-0.41922,0.72344 -1.13434,1.08515 -1.13434,1.08515l-1.86909,0.82037c-9.86985,1.64075 -19.81688,1.7875 -29.83208,1.79719c0.00362,0.05614 0.00505,0.11171 0.00454,0.16659l0.46651,0.6621c0,0 0.53221,2.1535 -1.39485,2.92988c0.21309,0.42837 0.27341,0.79453 0.27341,0.79453zM205.63141,169.41888c-0.53162,1.06609 -1.39138,1.96002 -2.05049,2.9513c-0.02148,0.74911 -0.41417,1.53559 -0.76998,2.32078c0.0624,0.49299 0.21068,0.99858 0.1671,1.48742c-0.08141,0.91317 -0.56235,1.7729 -0.56885,2.68976c-0.06174,8.70986 7.41327,12.57538 14.89048,12.75387c2.37532,0.0567 2.23322,-0.95882 4.49645,-1.63976c1.05883,-0.31857 2.24415,-0.10818 3.27577,-0.50783c1.51432,-0.58665 2.55718,-2.01862 3.86395,-2.98992c2.16382,-2.97943 3.85049,-5.02399 4.54552,-8.70014l0.53083,-1.20679c0.00003,-1.88705 0.03874,-4.30021 0.2656,-4.71837c0.2127,-0.39207 0.44396,-0.7459 0.69133,-1.06406c-0.23724,-0.38675 -0.37422,-0.84304 -0.37422,-1.33168c0,-0.49082 0.13821,-0.949 0.3774,-1.33685l0.92161,-1.55394l0.40099,-1.01418c-1.04761,0.32559 -2.12679,0.52381 -3.43097,0.6227c-1.14005,2.06758 -3.27836,0.98597 -3.27836,0.98597c-2.54052,-1.39299 -4.68116,-0.90516 -7.59736,-0.90859c-5.45848,-0.0064 -10.74923,1.0585 -16.08799,2.13098c-0.05122,0.58914 -0.26879,1.02936 -0.26879,1.02936z" fill="#292f33" stroke-width="0.5"></path>
      <g stroke-width="0.5">
        <path d="M258.56773,196.61451c2.45685,2.67913 2.60301,8.15331 0.21899,11.01203c-1.3587,1.62925 -4.93979,3.73438 -7.57362,2.77225c-0.39287,0.5124 -0.81041,0.96347 -1.24144,1.30133c-4.92727,3.8621 -11.78104,0.96524 -16.3801,-2.35236c-0.57304,0.23918 -1.1546,0.43555 -1.76705,0.47651c-4.5935,0.30715 -7.93946,-3.18237 -7.92395,-7.83442c0.012,-3.59709 2.88648,-5.98405 5.33766,-7.98984c0,0 1.13062,-0.91504 2.35934,-0.48193c0.4622,-1.05285 0.91702,-2.05549 1.2927,-2.96227c1.68673,-4.07132 2.55829,-8.59048 3.93798,-12.78102l0.35104,-0.21902c-0.0793,-0.34642 -0.07931,-0.59985 -0.07931,-0.59985c0.07868,-1.30178 -0.41526,-2.7798 0.23602,-3.90535c1.94734,-3.36537 5.60019,-4.81364 9.06582,-2.48764c1.07279,0.72002 1.04658,2.37992 1.56986,3.56989l0.45365,1.80505c0,0 0.13174,0.53311 0.02677,1.16446c0.35596,0.57097 0.42856,1.15854 0.42856,1.15854c0.62311,5.21601 3.26831,10.61047 4.75015,15.9972c1.65735,0.5436 3.99693,1.33141 4.93692,2.35645zM238.29599,203.74152c-0.10894,-0.06649 -0.21526,-0.13627 -0.31851,-0.20915c0.02805,0.06659 0.05209,0.13299 0.07245,0.19907c0.08336,0.06737 0.17158,0.13544 0.2657,0.20483c-0.00214,-0.01713 -0.00416,-0.03423 -0.00606,-0.05131c-0.00531,-0.04786 -0.00984,-0.09568 -0.01359,-0.14343z" fill="#ff924c"></path>
        <path d="M230.83994,193.8443c0.03932,-0.06364 0.07932,-0.12681 0.12001,-0.18949c0,0 0.0028,-0.00425 0.00832,-0.01204c0.13834,-0.22195 0.36888,-0.46627 0.73398,-0.54017c0.16027,-0.04562 0.34295,-0.05724 0.54447,-0.00608c0.18288,0.02696 0.37459,0.10064 0.54911,0.25613c0.15064,0.11114 0.25294,0.2446 0.32143,0.38321c0.1053,0.17756 0.14557,0.35935 0.14898,0.52904c0.03027,0.25082 -0.02508,0.46303 -0.11621,0.63666c-0.33275,1.40338 0.08607,2.33701 0.09998,3.90595l0.03388,-0.48953c0,0 0.88388,0.89418 0,1.78835c-0.88388,0.89418 -1.76777,0 -1.76777,0l-0.50615,-0.85811c-0.47735,-0.07365 -0.86591,-0.42046 -1.00495,-0.87783l-0.39088,-1.18631l0.18857,-0.06359l-0.25271,-0.3363c0.13664,-0.45874 0.29669,-0.91329 0.48212,-1.35696c-0.05479,-0.22644 -0.08213,-0.45574 -0.08213,-0.66633z" fill="#863528"></path>
        <path d="M256.38579,198.39811l-1.10195,1.30358c0,0 -0.48703,0.49271 -1.09958,0.38091c-0.1678,0.01781 -0.36015,-0.00143 -0.57958,-0.07542c-1.18586,-0.39988 -0.79058,-1.59955 -0.79058,-1.59955l0.33585,-0.81409c-0.24883,-0.65565 -0.34351,-1.36443 -0.37951,-2.07338c-0.03964,-0.14792 -0.05066,-0.31834 -0.01717,-0.5135c-0.00153,-0.08211 -0.00259,-0.16405 -0.00332,-0.24574c0,0 0,-1.26456 1.25,-1.26456c0.76483,0 1.06169,0.47342 1.17691,0.84093c1.61821,0.88421 1.82082,1.93332 1.20892,4.06082z" fill="#863528"></path>
      </g>
      <path d="M226.33333,185.74043c-4.98548,-0.01746 -12.48433,3.79586 -17.2197,1.18068c-2.4646,-1.36111 -3.58051,-6.19283 -1.44096,-8.35731c2.14343,-2.16841 6.05293,-0.64221 8.35557,0.13984c0.29489,0.04878 0.58589,0.09724 0.87406,0.14697c-0.3934,-0.50203 -0.77351,-1.01388 -1.14071,-1.51324c-0.998,-0.49155 -2.30896,-1.19 -2.50323,-2.14759c-0.03205,-0.15801 -0.05219,-0.31661 -0.06261,-0.47569l-0.08067,0.01166l-0.08911,-0.63104c-0.11129,-0.07924 -0.2264,-0.15818 -0.34268,-0.23793c-0.44189,0.08528 -1.05789,0.02715 -1.50286,-0.7231c-0.28626,-0.48265 -0.28937,-0.89369 -0.18,-1.21985c-0.00631,-0.04163 -0.01113,-0.084 -0.01439,-0.12713c-0.07852,-1.04011 0.53082,-2.08235 1.18005,-2.89275c1.70751,-2.13139 4.7768,-1.28297 6.57693,0.12073c2.92426,2.28026 5.60108,6.4321 7.20718,9.73486c0.3225,0.31811 0.645,0.63623 0.9675,0.95435l0.02738,0.0853l0.02623,-0.02122l1.0592,1.33942c0.21016,0.26115 0.33616,0.59438 0.33616,0.95739c0,0.19003 -0.03453,0.3719 -0.09758,0.53954c0.06305,0.16764 0.09758,0.34951 0.09758,0.53954c0,0.46621 -0.20782,0.88331 -0.53485,1.16168c-0.05341,1.43489 -1.49848,1.43489 -1.49848,1.43489zM209.55655,181.32525c0.02721,-0.04923 0.05706,-0.09677 0.08934,-0.14242c-0.00824,-0.06426 -0.01251,-0.12977 -0.01254,-0.19629c-0.03502,0.09925 -0.06038,0.21358 -0.0768,0.33872z" fill="#714c19" stroke-width="0.5"></path>
      <path d="M257.22486,185.57539c-0.3825,-0.1929 -0.68132,-0.54897 -0.78953,-1.00214c-0.04411,-0.18472 -0.05276,-0.36971 -0.03038,-0.54765c-0.1002,-0.14797 -0.17598,-0.31656 -0.22009,-0.50127c-0.08426,-0.35285 -0.03913,-0.70671 0.10454,-1.01047l0.71869,-1.55358l0.03042,0.0144l0.00682,-0.08942c0.23965,-0.38582 0.47929,-0.77165 0.71894,-1.15749c0.79459,-3.59193 2.4329,-8.26356 4.74614,-11.17471c1.424,-1.79206 4.21055,-3.34586 6.36503,-1.67968c0.81918,0.63352 1.65339,1.50188 1.81848,2.53156c0.00685,0.04271 0.012,0.08504 0.01553,0.12699c0.18201,0.29105 0.27439,0.69134 0.10816,1.22849c-0.25839,0.83497 -0.84368,1.03781 -1.29301,1.05987c-0.09452,0.10514 -0.18809,0.20922 -0.27787,0.31268l0.05985,0.63457l-0.08112,0.00783c0.0268,0.15711 0.04404,0.31606 0.04955,0.47726c0.03343,0.97696 -1.07876,1.96731 -1.93477,2.68218c-0.24103,0.57262 -0.49172,1.16046 -0.75759,1.74191c0.26857,-0.11679 0.5402,-0.23302 0.81551,-0.3505c2.05674,-1.30717 5.5027,-3.71937 8.0895,-2.12076c2.58212,1.59572 2.61889,6.55742 0.53912,8.46594c-3.99597,3.66693 -12.17027,1.74155 -17.0123,2.9428c0,0 -1.40467,0.34327 -1.78963,-1.03881zM274.14417,178.0262c0.01541,0.06466 0.02646,0.12937 0.03337,0.19379c0.04198,0.0367 0.08202,0.07582 0.1199,0.11722c-0.04501,-0.11774 -0.09619,-0.22284 -0.15327,-0.311z" fill="#714c19" stroke-width="0.5"></path>
      <g stroke-width="0.5">
        <g>
          <path d="M301.19579,223.36383c-0.72319,0.63938 -0.60946,1.70561 -0.60946,1.70561l0.19699,1.79738c1.13925,6.15063 0.63923,11.80452 0.48903,18.01882c-1.92801,4.96258 -3.65395,9.98749 -6.58081,14.49054c-2.81866,4.33655 -7.43927,6.50261 -11.6789,9.03697c-4.4454,2.65734 -8.65824,4.8144 -13.82092,5.77066c-4.60985,0.88263 -7.39959,-0.45574 -11.38849,-2.17967c-1.89092,-0.81721 -4.28605,-0.07961 -6.09362,-1.06756c-1.30052,-0.7108 -3.70012,-4.45197 -4.5239,-5.66891c-2.52771,-3.73405 -3.52954,-8.28042 -4.63943,-12.65812c-1.3719,-5.41107 -2.94037,-10.13263 -1.71839,-15.71824c0.03495,-2.50409 1.12746,-3.93991 1.99793,-6.27183c4.54671,-12.18 15.78665,-16.44711 26.67556,-21.35028c0,0 0.78427,-0.35891 1.0764,-1.11635c0.23652,-0.17924 0.37312,-0.34777 0.37312,-0.34777c3.99567,-5.14602 4.03148,-13.16432 6.14376,-19.27905c2.02893,-5.87342 10.66868,-8.64908 16.07854,-9.77442c4.98682,1.15839 9.28981,1.19899 12.39448,5.88155c2.13665,3.22256 0.05545,7.33623 3.80701,10.4193c0.90499,0.74374 4.20677,2.34704 5.46379,2.48231c2.96768,0.31933 10.51028,-2.86821 8.0796,3.03777c-2.99346,3.6525 -7.84138,4.85779 -11.75978,7.27253c-5.87396,3.61988 -8.41446,9.22534 -9.9625,15.5188z" fill="#781616"></path>
          <g>
            <g>
              <path d="M298.41951,180.38551c-0.00325,0.09138 -0.01062,0.17836 -0.02171,0.26112c0.67739,5.92341 -1.96025,11.91854 -6.7587,15.6749c-2.78669,2.1815 -6.51251,3.42728 -8.84059,6.12343c-4.77408,7.75486 -2.23586,16.7904 -5.91718,24.93217c-3.28235,7.2594 -9.38173,9.2549 -14.9365,14.12377c-7.51851,7.6557 1.84013,15.57471 2.14474,23.57057c0.20231,5.31014 -2.28984,10.19369 -7.77092,10.92576c0,0 -1.51024,0.16126 -2.01283,-1.13018c-0.27736,-0.25266 -0.4241,-0.50437 -0.4241,-0.50437c-1.3204,-2.43567 -3.95761,-3.65528 -5.53099,-6.10719c-5.74491,-8.95268 -10.15137,-20.15938 -8.95437,-30.96587c1.12664,-4.76895 1.59617,-9.38147 4.89407,-13.29761c7.05173,-8.37368 19.5079,-9.25882 26.43795,-17.13653l0.45682,-0.6862c0.07557,-0.30632 0.18704,-0.51078 0.18704,-0.51078c4.76691,-8.69065 2.8459,-21.94488 13.76794,-26.22975c3.29946,-1.29443 7.36312,-1.05345 10.83583,-1.08783l0.55581,0.01774c0,0 0.60741,0.0216 1.13346,0.37912l0.36508,-0.13015c0.05668,0.22878 0.10813,0.45808 0.15444,0.68776c0.15562,0.27498 0.25104,0.63051 0.23471,1.09014zM286.59039,183.06743c-8.95548,3.62049 -7.77535,17.08415 -11.77908,24.46616c0,0 -0.00112,0.00207 -0.00337,0.00601c-0.10607,0.4245 -0.30889,0.71954 -0.30889,0.71954l-0.83735,1.19226c-7.03854,7.91248 -19.3465,8.82699 -26.38168,17.07153c-2.81615,3.30025 -3.06487,7.41013 -4.02484,11.43947c-1.12457,9.74933 3.24289,20.13302 8.38875,28.17227c1.51492,2.36674 3.73425,3.52571 5.29924,5.76244c3.00644,-1.04282 3.8319,-5.66612 2.93036,-8.57625c-0.84785,-2.73681 -2.67245,-5.19041 -3.61634,-7.90182c-2.02656,-5.82144 -1.26021,-12.21929 2.9775,-16.74621c5.11668,-4.48301 11.09528,-6.28263 14.06919,-12.89093c3.80152,-8.44733 1.23876,-17.46419 6.35179,-25.67475c5.38632,-5.99479 15.60746,-8.73977 15.02447,-17.85486c-2.66368,-0.03466 -5.71821,-0.14361 -8.08976,0.81516z" fill="#783232"></path>
              <path d="M294.70793,182.19318c0.583,9.11511 -9.67991,11.98292 -15.06624,17.97772c-5.11304,8.21056 -2.49743,17.21614 -6.29897,25.66346c-2.97391,6.60828 -8.94111,8.31374 -14.0578,12.79675c-4.23772,4.52693 -5.02032,10.91073 -2.99377,16.73218c0.94389,2.71141 2.75772,5.15973 3.60557,7.89656c0.90155,2.91013 0.03008,7.65562 -2.97636,8.69844c-1.56498,-2.23672 -3.79344,-3.39993 -5.30837,-5.76667c-5.14587,-8.03927 -9.54255,-18.45704 -8.41797,-28.20638c0.95997,-4.02934 1.20456,-8.16208 4.02072,-11.46232c7.03518,-8.24453 19.40767,-9.22431 26.44621,-17.13679l0.84038,-1.19222c0,0 0.2038,-0.29499 0.30985,-0.71948c0.00224,-0.00396 0.00338,-0.006 0.00338,-0.006c4.00373,-7.38201 2.83867,-20.84312 11.79416,-24.46361c2.37156,-0.95876 5.43552,-0.84623 8.09918,-0.8116z" fill="#a14343"></path>
            </g>
            <path d="M285.97101,185.18876c1.83484,0.68494 1.14989,2.51977 1.14989,2.51977l0.01425,-0.25365c-0.24732,3.04802 -0.57949,6.97232 -2.95293,9.23142c-1.63948,1.56052 -3.39611,1.70643 -4.54492,3.82883c-2.17557,4.0192 -1.0786,8.83585 -3.5852,12.94236c-1.62886,2.66851 -4.53819,3.74864 -6.14947,6.29371c0,0 -0.15957,0.24143 -0.44886,0.47732c-0.02229,0.08344 -0.04023,0.13147 -0.04023,0.13147l-0.76394,2.03791c-1.55265,2.99445 -2.73374,4.7834 -6.17706,5.62287c-3.66237,0.89286 -10.13181,-1.40486 -10.86411,4.12918c1.11102,4.31089 1.10186,7.23057 0.22227,11.58551c-0.57885,2.86587 -2.22509,5.36721 -1.31245,8.35195c1.70483,5.57561 7.92695,8.10229 8.10959,14.0988c0.06828,2.24164 -0.56388,3.05579 -1.43988,5.07733c0,0 -0.79151,1.79144 -2.58295,0.99993c-1.79144,-0.79151 -0.99993,-2.58295 -0.99993,-2.58295c2.35794,-5.21075 -0.36363,-5.88824 -3.40459,-9.57469c-1.33787,-1.62186 -2.84262,-4.82719 -3.43004,-6.87959c-1.42247,-4.96999 1.43277,-9.74489 2.10262,-14.63937c0.27893,-2.03808 -0.74923,-4.34045 -1.17916,-6.29818c0.18111,-1.04361 0.09317,-2.17203 0.54336,-3.13081c3.75902,-8.00587 13.39747,-1.29032 16.82409,-8.33067l0.68258,-1.83707c0,0 0.19725,-0.52838 0.6636,-0.91221c0.10094,-0.29516 0.22748,-0.48663 0.22748,-0.48663c1.68198,-2.47025 4.56066,-3.62262 6.07273,-6.17288c2.37545,-4.00642 1.28761,-8.7572 3.49956,-12.79475c1.36848,-2.49795 3.27426,-3.12592 5.2971,-4.79598c1.55243,-1.2817 1.58907,-4.9007 1.72599,-6.68177l0.22089,-0.80721c0,0 0.68494,-1.83484 2.51977,-1.14989z" fill="#b17878"></path>
          </g>
          <g>
            <path d="M283.11464,223.31824c0.35052,0.10373 0.58541,0.25898 0.58541,0.25898c3.48647,2.31146 10.41188,6.48585 14.71648,6.30771c0.82531,-0.03416 1.05246,-3.57728 1.12118,-3.96709c0.88955,-5.04617 2.22453,-10.48915 3.66286,-15.37268c0.99978,-4.22099 1.74462,-8.31534 2.37251,-12.59142c0.1774,-1.20823 0.71813,-2.39419 0.61722,-3.61121c-0.0448,-0.54024 -0.1487,-1.80476 -0.60372,-1.51009c-0.87236,0.56491 -1.25359,1.67436 -2.02528,2.37053c-4.95742,4.4722 -9.26226,9.64499 -13.0578,15.16746c-2.71447,3.93923 -5.44519,8.44244 -7.38886,12.94782zM280.85562,226.0962l-2.30124,-1.92981c2.07876,-5.53095 5.38197,-11.14679 8.72124,-16.01497c3.96925,-5.77247 8.47481,-11.17723 13.65973,-15.85496c0.99781,-0.90021 3.40673,-3.37728 4.53606,-3.37936c2.41844,-0.00446 4.21617,2.87755 4.59257,4.84462c0.11275,0.58916 -0.51529,4.08248 -0.61513,4.75868c-0.65335,4.425 -1.42738,8.67212 -2.46477,13.03859c-1.44243,4.73661 -2.72448,10.11665 -3.58779,15.03279c-0.46232,2.63275 -0.79179,6.06231 -3.94537,7.07107c-0.92813,0.29688 -1.92997,-0.27098 -2.895,-0.40615c-5.08327,-0.71199 -10.74727,-3.59791 -15.01583,-6.41186c0,0 -0.41102,-0.27169 -0.68449,-0.74868z" fill="#868686"></path>
            <path d="M290.44509,210.34121c3.79551,-5.52247 8.18055,-10.72759 13.13797,-15.19978c0.77169,-0.69615 1.15597,-1.80444 2.02832,-2.36935c0.45502,-0.29467 0.56209,0.97124 0.60688,1.51149c0.10091,1.21701 -0.43656,2.40462 -0.61399,3.61286c-0.62788,4.27606 -1.34559,8.39851 -2.34536,12.61951c-1.43833,4.88354 -2.81861,10.4197 -3.70818,15.46589c-0.06872,0.38982 -0.30338,3.93401 -1.1287,3.96818c-4.3046,0.17815 -11.28789,-4.02226 -14.77435,-6.33373c0,0 -0.23614,-0.15701 -0.58666,-0.26073c1.94365,-4.50537 4.66958,-9.07509 7.38405,-13.0143z" fill="#a2a2a2"></path>
          </g>
          <path d="M286.75645,222.56196c-2.33125,-2.38308 -8.17818,-4.0524 -11.26035,-4.7958c-1.02198,-0.2465 -2.23175,-1.31764 -3.0769,-0.69239c-0.68393,0.50595 -1.52388,1.99794 -2.24153,3.36121c5.08304,1.41826 9.395,3.39685 13.41355,6.8866l0.25017,0.20157c1.06542,-1.22571 3.65884,-4.20089 2.91511,-4.96116zM266.29085,223.29397c-1.66488,-1.03147 -0.63341,-2.69636 -0.63341,-2.69636c0.97177,-1.56788 2.98324,-5.8975 4.67545,-6.83905c4.25957,-2.37002 11.33811,1.87682 15.13191,3.73215c0.87325,0.42705 3.99271,1.98066 4.50505,2.83142c2.36441,3.92608 -1.23761,7.1444 -3.39956,10.02809l-1.19906,1.15886c0,0 -1.12479,1.04759 -2.30952,0.29019c-0.3242,-0.13484 -0.53207,-0.30262 -0.53207,-0.30262l-1.50964,-1.22007c-3.61125,-3.14874 -7.4821,-4.87287 -12.08616,-6.12165c0,0 -0.58253,-0.15909 -1.01232,-0.62409c-0.43232,0.15761 -0.98367,0.16398 -1.63067,-0.23686z" fill="#343434"></path>
          <path d="M283.88578,227.57092l-0.25046,-0.20128c-4.01853,-3.48974 -8.43887,-5.5283 -13.5219,-6.94656c0.71765,-1.36325 1.57046,-2.88366 2.25437,-3.3896c0.84516,-0.62522 2.06686,0.43418 3.08884,0.68067c3.08218,0.7434 9.03367,2.46918 11.36492,4.85226c0.74374,0.76027 -1.87035,3.77883 -2.93577,5.00454z" fill="#434343"></path>
          <path d="M298.68095,206.71816c-1.23001,1.52408 -2.7541,0.29405 -2.7541,0.29405l-0.57698,-0.477c-3.85586,-2.55395 -7.61813,-4.68334 -12.34376,-4.27744c0,0 -1.95234,0.15526 -2.10759,-1.79709c-0.01536,-0.19312 -0.01009,-0.36863 0.01185,-0.52817c-1.2998,-1.15495 -0.21705,-2.59911 -0.21705,-2.59911c1.0044,-1.33936 2.02876,-2.66419 3.07999,-3.96711l0.29334,-0.36349c0,0 0.8514,-1.05497 2.01522,-0.70114c4.30826,-1.04389 9.33788,-0.24232 13.01027,2.27142c2.40537,1.64646 4.5994,4.40477 3.61977,7.54298c-0.32256,1.03337 -1.24286,1.77281 -1.86428,2.65923l-0.64315,0.93848c0,0 -0.54753,0.79645 -1.43283,0.88572c-0.02843,0.03935 -0.05863,0.07892 -0.09073,0.11869zM297.71363,202.42559c4.41745,-5.29461 -7.28708,-7.2479 -11.2312,-6.17729c-0.54805,0.68531 -1.08859,1.37669 -1.62273,2.07296c4.5905,0.21148 8.44536,2.19547 12.39093,4.77601z" fill="#343434"></path>
          <path d="M297.30482,203.13366c-3.94556,-2.58052 -7.9189,-4.61232 -12.5094,-4.82381c0.53414,-0.69627 1.08305,-1.40995 1.6311,-2.09527c3.94412,-1.07062 15.76298,0.94552 11.34554,6.24011z" fill="#434343"></path>
          <g>
            <path d="M291.93579,245.85075c0.18409,0.88215 -0.70956,1.12272 -0.70956,1.12272c-5.03172,1.25499 -7.43339,-5.10514 -3.74735,-8.419c1.643,-1.47711 4.81723,-0.91258 5.79749,1.10851c1.10599,2.28029 0.18369,4.57032 -1.34058,6.18777zM288.89855,244.98197c0.13996,-0.05889 0.24968,-0.07546 0.24968,-0.07546l1.24346,-0.1496c1.33868,-1.18922 2.19622,-5.80448 -0.89445,-5.03632c-2.23081,0.55444 -2.41686,4.28505 -0.59866,5.26137z" fill="#868686"></path>
            <path d="M289.4911,239.65562c3.09068,-0.76816 2.25603,3.97518 0.91735,5.16441l-1.27477,0.15016c0,0 -0.11481,0.01517 -0.25479,0.07408c-1.81818,-0.97632 -1.61861,-4.83419 0.6122,-5.38864z" fill="#a2a2a2"></path>
          </g>
          <g>
            <path d="M275.60552,260.40936c-0.01337,0.03005 -0.02249,0.0468 -0.02249,0.0468c-3.13307,4.76783 -7.54654,-2.65647 -4.92025,-6.2187c1.85836,-2.52063 5.3391,-2.86447 6.81116,0.36127c0.93469,2.0482 -0.01188,3.68237 -1.02969,5.39481zM273.65951,259.94663c-0.14814,-0.71223 0.57049,-1.04018 0.57049,-1.04018l0.87946,-0.34611c0.47795,-1.03967 1.13204,-1.94486 0.58275,-3.14852c-0.9205,-2.0171 -3.52971,-1.2733 -3.99592,0.69431c-0.25406,1.07228 1.23542,4.67639 1.96321,3.84049z" fill="#868686"></path>
            <path d="M271.63514,256.08336c0.4662,-1.9676 3.1858,-2.73154 4.1063,-0.71444c0.54929,1.20365 -0.11579,2.20463 -0.59373,3.24432l-0.90814,0.35778c0,0 -0.73424,0.32836 -0.58609,1.04061c-0.72779,0.8359 -2.27241,-2.856 -2.01835,-3.92828z" fill="#a2a2a2"></path>
          </g>
          <g>
            <path d="M286.39088,258.76754c-4.32778,2.26352 -6.69966,-6.92919 -0.70949,-8.23049c5.19014,-1.1275 5.91422,6.81098 1.21478,8.20408zM285.02742,257.03357c0.25674,-0.17068 0.54696,-0.18451 0.54696,-0.18451l1.01887,-0.04288c1.71957,-0.37361 2.42503,-4.15585 0.42021,-4.51561c-4.30638,-0.77282 -2.76787,3.8365 -1.98604,4.74299z" fill="#868686"></path>
            <path d="M287.03634,252.22944c2.00483,0.35977 1.2871,4.26754 -0.43246,4.64117l-1.04611,0.04159c0,0 -0.3007,0.0101 -0.55744,0.18078c-0.78182,-0.90648 -2.27037,-5.63635 2.03601,-4.86355z" fill="#a2a2a2"></path>
          </g>
          <g>
            <path d="M281.20999,248.67803c-0.07274,0.35214 -0.34858,0.58753 -0.34858,0.58753c-5.01195,3.9783 -7.45549,-4.17305 -3.56114,-7.11681c4.15078,-3.13759 7.40645,2.8065 4.87281,6.07158zM279.24716,248.07172c-0.04138,-0.62127 0.58866,-0.90879 0.58866,-0.90879l1.13657,-0.48988c1.29057,-1.45805 -0.77824,-4.4701 -2.47138,-2.97704c-1.60137,1.41212 -1.51964,6.10527 0.74617,4.37571z" fill="#868686"></path>
            <path d="M278.48087,243.63391c1.69314,-1.49306 3.84012,1.61096 2.54957,3.06901l-1.16672,0.51904c0,0 -0.65561,0.29374 -0.61424,0.91501c-2.26582,1.72957 -2.36999,-3.09094 -0.76861,-4.50306z" fill="#a2a2a2"></path>
          </g>
          <path d="M311.85039,192.1017c4.14938,3.24976 9.34008,-1.14297 13.45914,1.85752c2.78353,2.02765 1.83865,6.11055 0.95601,8.58785c-4.3208,5.40606 -11.36286,6.29511 -16.1245,11.07554c-3.34513,3.35831 -4.4224,7.10259 -5.40532,11.51394c0.09759,0.2861 0.27083,0.9787 -0.0597,1.61013c1.09632,6.40334 0.68381,12.35129 0.39215,18.85694c-1.97275,5.45046 -3.88855,11.03025 -7.14228,15.8876c-5.61626,8.3843 -18.31347,14.68632 -28.00356,16.48115c-5.35042,0.96371 -9.01317,-0.33251 -13.70144,-2.45635c-1.99512,-0.90381 -4.52693,-0.20409 -6.45064,-1.25136c-1.73005,-0.94185 -4.72383,-5.27146 -5.78871,-6.85573c-2.79532,-4.15871 -3.95047,-9.03012 -5.17936,-13.87862c-1.48502,-5.85904 -3.12381,-11.08317 -1.79746,-17.14585c0.14985,-2.84779 1.23914,-4.52522 2.21622,-7.14264c4.94797,-13.25488 16.64495,-17.93589 28.43892,-23.36686c0.12976,-0.2912 0.27796,-0.47481 0.27796,-0.47481c3.77323,-4.41836 3.36389,-12.76752 5.49641,-18.17932c2.96073,-7.51352 12.47761,-11.08307 19.78757,-12.32206c0.05747,0.01192 0.11496,0.02376 0.1724,0.03554c0.31644,0.49909 0.87143,0.70626 0.87143,0.70626c1.31271,0.47514 2.71437,0.74932 4.10912,0.81002l1.49745,-0.15637c2.26747,0.60927 4.37505,1.46471 6.18413,2.97665c0.04381,0.18135 0.09655,0.29692 0.09655,0.29692c0.79504,1.74215 2.24054,4.9097 3.03557,6.65185c0,0 0.21427,0.46955 0.6659,0.76005c0.16755,1.94222 0.37785,3.85472 1.99604,5.12207zM311.10298,207.87968c3.91839,-2.41473 8.76626,-3.62012 11.75971,-7.27262c2.43068,-5.90597 -5.1057,-2.71005 -8.07338,-3.02938c-1.25702,-0.13526 -4.55262,-1.73239 -5.45762,-2.47612c-3.75156,-3.08309 -1.65932,-7.18895 -3.79597,-10.41151c-3.10467,-4.68255 -7.3902,-4.71642 -12.37703,-5.87481c-5.40986,1.12536 -14.02582,3.90197 -16.05477,9.7754c-2.1123,6.11473 -2.12227,14.12346 -6.11793,19.26947c0,0 -0.13533,0.16769 -0.37184,0.34694c-0.29212,0.75742 -1.07258,1.11358 -1.07258,1.11358c-10.8889,4.90317 -22.10423,9.111 -26.65095,21.291c-0.87048,2.33191 -1.9647,3.7588 -1.99965,6.26289c-1.22199,5.58562 0.3376,10.28755 1.7095,15.69863c1.1099,4.37771 2.10103,8.91179 4.62873,12.64584c0.82379,1.21692 3.21663,4.95281 4.51715,5.66363c1.80758,0.98796 4.19667,0.24671 6.08758,1.06393c3.9889,1.72393 6.76517,3.05693 11.37501,2.17431c5.16267,-0.95624 9.35738,-3.11562 13.80277,-5.77296c4.23965,-2.53436 8.83874,-4.69648 11.6574,-9.03303c2.92687,-4.50304 4.62931,-9.51305 6.55735,-14.47565c0.15021,-6.21428 0.63093,-11.82542 -0.50831,-17.97606l-0.19704,-1.79097c0,0 -0.11324,-1.06045 0.60996,-1.69984c1.54804,-6.29347 4.09796,-11.87278 9.97192,-15.49265z" fill="#4e0e0e"></path>
        </g>
        <g>
          <path d="M358.0113,99.43513l-0.59471,-0.15702c-0.76168,1.75721 -1.46974,3.53466 -2.07014,5.3489c1.92305,-1.24304 3.82887,-2.78401 2.87437,-5.24126c-0.12092,0.03995 -0.20953,0.04941 -0.20953,0.04941zM361.57383,88.58094l0.17774,0.18994c0.06412,-0.04803 0.13918,-0.09269 0.22677,-0.13267c0.77796,-0.35502 1.18658,0.27934 1.27768,0.44585l0.70018,0.39476c0,0 0.3412,0.27537 0.38271,0.68591c0.3694,0.37879 0.68331,0.73606 0.71467,0.88891c0.20079,0.97887 -2.13822,5.14585 -2.91058,5.81614c-0.6617,0.57426 -2.21528,0.58207 -3.27335,0.7378l0.9965,0.64881c2.10759,4.75013 -2.31961,7.02047 -5.37126,9.24749c0,0 -0.32435,0.23426 -0.70815,0.19599c-0.22247,0.22192 -0.4226,0.33858 -0.4226,0.33858l-1.81381,1.05737c-1.64265,0.94829 -3.31506,1.57172 -4.96469,2.42202c-0.31861,0.6886 -1.03006,1.01327 -1.03006,1.01327l-0.04649,-0.02059c-4.81758,3.44963 -13.36099,2.97253 -15.36647,-3.93637c-0.18212,-0.6274 -0.18742,-1.44477 -0.12447,-2.27425c-0.09994,-0.49056 -0.00773,-0.912 -0.00773,-0.912c0.80985,-2.77797 -2.18685,-5.86886 -3.35808,-8.42783l-0.51414,-1.67725c0,0 -0.27458,-0.93294 0.22065,-1.67748c-0.55138,-0.77848 -1.3593,-1.36769 -1.65764,-2.28301c-0.93868,-2.87989 2.41061,-5.45893 4.86504,-5.64711l0.94265,0.26738c0,0 0.52205,0.19489 0.63152,0.68444c0.52379,-0.85671 1.05412,-1.71344 1.59359,-2.56353c-0.0475,-0.03986 -0.07363,-0.06791 -0.07363,-0.06791l0.00003,-0.00003c-0.78334,-0.84338 -2.09075,-2.04467 -2.20834,-3.29406c-0.24945,-2.65065 4.19477,-6.24844 6.35684,-5.32615l0.70405,0.25232c0,0 0.62655,0.23387 0.65081,0.83286c0.23244,-0.27746 0.46724,-0.55106 0.70461,-0.82045l0.19849,-0.37383c0,0 0.71597,-1.15563 1.9177,-0.94478c0.76873,-0.74701 1.91569,-0.40387 1.91569,-0.40387c6.28279,1.93728 12.39926,6.62207 16.84609,11.39263l0.86896,1.66204c0,0 0.10683,0.23409 0.15819,0.5713c0.49181,0.34984 0.7257,0.86239 0.7257,0.86239l0.00543,0.10892c0.02306,0.02203 0.04615,0.04406 0.06922,0.06607zM360.84848,95.40012c1.48321,-1.68009 2.37089,-3.19816 1.28485,-4.60083c-0.17166,-0.01839 -0.34301,-0.04057 -0.51399,-0.06599c-0.09878,0.03216 -0.19401,0.04323 -0.28379,0.03978c-0.74652,1.63366 -1.52359,3.26134 -2.28611,4.89688c0.81062,-0.09251 1.74076,-0.2038 1.79905,-0.26984zM363.1478,89.0108c0.00974,0.0093 0.02029,0.01933 0.03157,0.03004l0.00799,0.00451zM336.82805,77.46246l-0.95665,-0.36762c-0.36255,-0.35878 -2.91715,1.96601 -3.47024,2.73619c-0.46417,0.64639 0.79386,1.93585 1.41741,2.55417c1.11008,-1.6839 2.26379,-3.3231 3.48192,-4.86349c-0.25924,0.02035 -0.47245,-0.05924 -0.47245,-0.05924zM329.82397,87.77739l-0.16449,-0.14592c-3.80361,-0.00129 -2.83164,2.47921 -1.83467,4.45887c0.85614,-1.39306 1.71523,-2.82707 2.58958,-4.26997c-0.30919,0.062 -0.59043,-0.04299 -0.59043,-0.04299zM334.2087,104.29723c-0.74289,5.54821 4.21306,8.24652 8.69959,5.25249c0.28543,-0.62876 0.87972,-0.96806 0.87972,-0.96806c1.92782,-1.0916 3.89256,-1.75098 5.78962,-2.86989l1.61763,-0.94299c1.60117,-5.33712 4.16342,-10.33556 6.47279,-15.39171c-0.41712,-0.34228 -0.61624,-0.77865 -0.61624,-0.77865l-0.17182,-0.6186c-3.84139,-4.12811 -9.2969,-8.52727 -14.7717,-10.21121l-0.30659,0.46731c-4.33888,4.87807 -7.84967,11.36163 -11.25625,16.90165c0,0 -0.09272,0.14968 -0.26747,0.33148c1.21976,2.63078 2.85226,4.71781 3.46042,7.21387c0.59574,0.65846 0.47032,1.6143 0.47032,1.6143z" fill="#343434"></path>
          <g>
            <path d="M341.10107,112.08872c-0.18997,-0.91024 -1.66217,-0.84767 -2.42318,-1.38198c-0.77202,-0.54204 -5.11868,-3.63642 -6.05913,-3.06968c-0.25348,0.15275 -0.78903,2.02378 -1.16513,3.36471c0.14239,0.04624 0.28389,0.09323 0.42415,0.14139c-0.16461,0.04584 -0.32604,0.06253 -0.48029,0.05894c-0.15074,0.53835 -0.26935,0.9629 -0.32309,1.10683c0,0 -0.25346,0.67897 -0.86503,1.05667c-2.80621,5.77641 -5.45279,11.60947 -8.35925,17.36163c-6.9867,13.82503 -13.80146,27.71005 -20.73864,41.55097c-0.10159,0.30226 -0.23173,0.49915 -0.23173,0.49915c-0.02009,0.03033 -0.04319,0.06398 -0.06903,0.10072c-0.04675,0.0932 -0.09349,0.18641 -0.14026,0.27963c-0.01639,-0.00674 -0.03274,-0.01316 -0.04909,-0.01928c-0.75283,1.01317 -2.45613,3.14447 -2.42537,3.88139c0.03108,0.74491 3.14997,2.44342 3.70464,2.74576c3.69424,2.01364 5.3788,2.96401 6.93248,-1.33579l0.20582,-0.36809c-0.03501,-0.05666 -0.08119,-0.12523 -0.13876,-0.19839c6.17582,-14.53676 14.66084,-27.99001 20.17936,-42.81289c3.14256,-6.21228 6.05683,-12.62549 9.38305,-18.75211l0.72756,-0.9409c0.12211,0.07732 0.24456,0.15424 0.36742,0.23064c0.6923,-1.31886 1.62906,-3.08939 1.5435,-3.49934zM330.75348,104.19265c3.33376,-1.72201 9.51438,2.33031 11.88211,4.44129c0.81196,0.7239 1.94874,1.33029 2.23231,2.38049c0.53246,1.972 -1.62946,5.45398 -2.32165,7.31132l-0.72327,1.93749c0,0 -0.48252,1.2926 -1.72249,1.30296c-2.56409,4.96892 -4.92652,10.09031 -7.43263,15.05491c-5.24381,14.01029 -13.11898,26.80581 -19.16315,40.45751c0.15898,0.75829 -0.24273,1.45597 -0.24273,1.45597l-0.75915,1.26505c-0.96214,2.51509 -2.2976,5.59774 -5.48195,5.99214c-0.9636,0.11935 -1.86755,-0.53431 -2.78918,-0.83981c-3.19361,-1.0586 -9.43837,-3.58122 -9.93607,-7.57208c-0.22775,-1.82626 2.0459,-4.88377 3.15426,-6.52018c7.01233,-13.94781 13.85962,-27.95943 20.90433,-41.89922c3.23006,-6.39034 6.13807,-12.88011 9.30062,-19.28309c0.04933,0.02325 0.09893,0.04613 0.14875,0.06868c0.6285,-1.9781 1.49827,-4.80359 2.94992,-5.55343z" fill="#343434"></path>
            <path d="M339.5946,115.53429c-0.12287,-0.07641 -0.31871,-0.04534 -0.44083,-0.12265l-0.65494,0.83237c-3.32622,6.12663 -6.2306,12.54793 -9.37316,18.76021c-5.51852,14.82288 -14.06964,28.38449 -20.24547,42.92125c0.05757,0.07316 0.1434,0.01733 0.17842,0.07398l-0.24528,0.49254c-1.55369,4.2998 -3.24777,3.34554 -6.94202,1.3319c-0.55465,-0.30233 -3.68017,-2.00466 -3.71125,-2.74958c-0.03075,-0.73693 1.74461,-2.97712 2.49744,-3.99028c0.01633,0.00614 0.03263,0.0125 0.049,0.01923c0.04676,-0.09322 0.02138,-0.07758 0.06812,-0.17079c0.02583,-0.03672 0.04894,-0.07039 0.06903,-0.10072c0,0 0.13,-0.19698 0.23158,-0.49923c6.93718,-13.84092 13.79854,-27.8447 20.78524,-41.66973c2.90647,-5.75218 5.56368,-11.58259 8.36989,-17.359c0.61157,-0.3777 0.8659,-1.05638 0.8659,-1.05638c0.05373,-0.14393 0.17222,-0.56853 0.32297,-1.10687c0.15422,0.00359 0.27145,0.10975 0.43605,0.06391c-0.14028,-0.04816 -0.281,-0.09486 -0.42338,-0.14112c0.3761,-1.34093 0.95507,-3.33512 1.20856,-3.48785c0.94046,-0.56673 5.29749,2.53234 6.06948,3.07438c0.761,0.53431 2.23719,0.47419 2.42718,1.38442c0.08556,0.40993 -0.85021,2.18114 -1.54251,3.50001z" fill="#434343"></path>
          </g>
          <path d="M337.3485,77.47747c-1.21814,1.5404 -2.44657,3.2834 -3.55664,4.96729c-0.62355,-0.61832 -1.91985,-1.96092 -1.45569,-2.60731c0.55308,-0.77018 3.19251,-3.1636 3.55506,-2.80481l0.97848,0.37959c0,0 0.21954,0.08559 0.47877,0.06524z" fill="#888888"></path>
          <path d="M330.45761,87.77143c-0.87434,1.4429 -1.80211,2.98596 -2.65826,4.37902c-0.99696,-1.97967 -1.91949,-4.581 1.88413,-4.5797l0.17074,0.14878c0,0 0.29422,0.11391 0.60339,0.05192z" fill="#888888"></path>
          <path d="M334.1664,104.34691c0,0 0.12057,-0.96041 -0.47518,-1.61887c-0.60816,-2.49605 -2.25785,-4.61725 -3.47761,-7.24803c0.17474,-0.18179 0.26725,-0.33284 0.26725,-0.33284c3.40658,-5.54002 6.97388,-12.09795 11.31276,-16.97602l0.3081,-0.46748c5.4748,1.68393 10.99759,6.1241 14.83898,10.25222l0.17283,0.62137c0,0 0.20035,0.44039 0.61748,0.78268c-2.30937,5.05614 -4.899,10.12648 -6.50018,15.46358l-1.62535,0.94731c-1.89706,1.1189 -3.88916,1.78454 -5.81697,2.87615c0,0 -0.59782,0.33923 -0.88325,0.96799c-4.48653,2.99403 -9.48178,0.28022 -8.73889,-5.26799z" fill="#434343"></path>
          <path d="M346.59032,103.62642c-4.58206,2.70128 -5.96239,-9.31065 0.73647,-7.77023c4.4204,1.01647 3.3679,7.35855 -0.73647,7.77023zM347.36611,101.40351c1.28558,-0.86942 1.24816,-3.31008 -0.47776,-3.63852c-2.43933,-0.4642 -2.63522,2.62146 -1.96832,3.76805c0.36161,-0.14225 0.74033,-0.00088 0.74033,-0.00088l0.32084,0.15098c0.0037,0.00055 0.0074,0.0011 0.01108,0.00165c0.03997,-0.04093 0.08035,-0.08699 0.1211,-0.13837c0,0 0.59458,-0.62286 1.25271,-0.14289z" fill="#343434"></path>
          <path d="M358.04295,99.37804c0,0 0.09173,-0.00761 0.21265,-0.04755c0.9545,2.45726 -1.01428,4.11235 -2.93733,5.3554c0.60041,-1.81422 1.35456,-3.71336 2.11624,-5.47056l0.60845,0.16272z" fill="#888888"></path>
          <path d="M360.85447,95.46512c-0.05829,0.06605 -1.0309,0.16648 -1.84153,0.25897c0.76253,-1.63554 1.59315,-3.38037 2.33967,-5.01403c0.08978,0.00347 0.19101,-0.00568 0.28979,-0.03784c0.17098,0.02541 0.3526,0.05255 0.52426,0.07094c1.08604,1.40267 0.171,3.04186 -1.31221,4.72196z" fill="#888888"></path>
          <path d="M336.19305,77.46298c0.95331,-0.22395 1.17725,0.72936 1.17725,0.72936l-0.0226,0.56321c4.30919,-0.28323 11.84381,3.14675 9.07048,8.58761c-3.19683,5.71919 -7.47653,10.99209 -10.51561,16.9051c-0.33396,1.65203 -0.88476,3.33591 -1.27105,5.10166c0,0 -0.17063,0.77996 -0.908,0.77728c-0.72637,1.98832 -1.37569,3.97389 -2.08273,5.96035c0.67824,0.6064 0.09317,1.33132 0.09317,1.33132l-0.39216,0.32129c-1.74216,7.43434 -6.92081,14.86824 -10.57693,21.5756c-3.65413,6.66186 -6.10741,13.94002 -9.64725,20.64853c0.17442,0.48604 -0.18691,0.93374 -0.18691,0.93374l-0.81957,1.00683c-0.1881,0.37597 -0.37621,0.75194 -0.56431,1.1279c-3.51489,6.10126 -7.39943,12.0874 -10.74589,18.22515c0,0 -0.00144,0.00264 -0.00431,0.00756c-0.02043,0.09778 -0.0557,0.19204 -0.10446,0.27923l-0.49456,0.90709l-0.02145,-0.0117l-0.00385,0.05536c-0.30265,0.4412 -0.60534,0.8814 -0.90755,1.32118c-0.36545,1.04761 -1.21985,1.90221 -1.98358,3.01316c-1.22971,1.78881 -2.3281,3.64912 -3.45341,5.50538c0.02767,0.03161 0.05522,0.06459 0.08261,0.09894l0,-0.00001c1.22097,1.53134 -0.31038,2.7523 -0.31038,2.7523l-0.55962,0.43884c-2.22537,2.03789 -3.35101,4.68888 -4.88384,7.24346c-4.05369,6.75588 -8.7277,12.98164 -10.43503,20.81175c0,0 -0.41856,1.91325 -2.33183,1.4947c-1.91327,-0.41856 -1.4947,-2.33183 -1.4947,-2.33183c1.81875,-8.28804 6.61596,-14.8438 10.90517,-21.99393c1.73803,-2.8973 3.08051,-5.74045 5.5706,-8.09051l0.78732,-0.63513c0,0 0.21911,-0.17469 0.55764,-0.30904c1.14642,-1.9528 2.36982,-3.84874 3.62956,-5.7268c0.13832,-0.2089 0.27806,-0.41656 0.41944,-0.6228c0.73217,-1.08303 1.47497,-2.16153 2.22058,-3.24301l-0.01133,-0.00703l1.01285,-1.63482c0.03781,-0.15564 0.09461,-0.25986 0.09461,-0.25986c3.34638,-6.1376 7.23058,-12.11622 10.74215,-18.21829c0.21412,-0.41994 0.42826,-0.8399 0.64238,-1.25984l0.4403,-0.54963c-0.01884,-0.31628 0.12586,-0.58171 0.12586,-0.58171c3.77538,-6.88306 6.26353,-14.41917 10.01322,-21.3327c3.41617,-6.26378 8.80336,-13.68678 10.311,-20.70573c-0.23793,-0.39305 -0.06206,-0.86418 -0.06206,-0.86418c0.98866,-2.64846 1.81641,-5.28827 2.80631,-7.94002l0.41329,-1.10714c0,0 0.0653,-0.17491 0.21524,-0.34347c-0.3063,-0.40452 -0.10894,-0.93325 -0.10894,-0.93325l0.384,-1.01506c0.23289,-1.47285 0.75518,-3.11951 0.70524,-4.6202c-0.03349,-1.00633 -0.31879,-2.00486 -0.75163,-2.98603l-0.14142,-0.17688c-0.44386,-0.11116 -0.65158,-0.56634 -0.65158,-0.56634c-0.41044,-0.89939 -0.76642,-1.81655 -1.20913,-2.67794c-0.45232,-0.65809 -0.91637,-1.30167 -1.35468,-1.92727l-0.0722,0.08947l-1.07522,-0.86776c-0.12167,-0.09405 -0.2229,-0.21822 -0.29119,-0.36785c-0.22452,-0.49202 -0.00769,-1.0729 0.48432,-1.29742c0.29517,-0.1347 0.62232,-0.11056 0.88533,0.03657l0.90708,0.49457l-0.02931,0.05375l0.13798,0.01514c0.55506,0.52768 1.00783,1.08773 1.39931,1.67589c0.49717,0.55978 0.92246,1.28167 1.27781,1.8867c0.21563,0.36715 0.41179,0.72993 0.5897,1.0895c0.51423,0.06013 0.75377,0.58501 0.75377,0.58501c0.29704,0.65681 0.54531,1.33826 0.74318,2.03266c0.36272,0.70493 0.59695,1.40398 0.73229,2.10104c2.81899,-4.61137 6.19741,-8.97238 8.65487,-13.63636c0.71014,-1.16934 0.2058,-1.77811 -0.54497,-2.81247c-2.28053,-3.14192 -4.69297,-2.31996 -8.18018,-3.44214l-0.50979,-1.51078c0,0 -0.22395,-0.95331 0.72936,-1.17725z" fill="#1f1f1f"></path>
          <path d="M359.82779,90.30901c-0.34248,0.91742 -1.25989,0.57494 -1.25989,0.57494l-0.88725,-0.41572c-2.79795,-2.68688 -5.19212,-2.29749 -8.72543,-2.00415c-2.5869,1.79644 -2.85657,4.7558 -3.70635,7.52363c-0.80855,2.63358 -1.43021,5.20702 -2.16212,7.76225c0.25961,-0.15946 0.52474,-0.31233 0.79448,-0.45841c0.04408,-0.03621 0.0883,-0.07227 0.13266,-0.1082c0,0 0.21024,-0.16763 0.49824,-0.21704c3.16902,-1.55385 6.85216,-2.19227 9.68126,-1.60447l0.14438,-0.28117c0,0 0.89087,-0.40655 1.29742,0.48432l0,0.00001c0.40655,0.89087 -0.48432,1.29742 -0.48432,1.29742l-1.37605,0.41268c-0.99626,-0.23286 -2.16605,-0.25808 -3.39868,-0.10271c0.01154,0.09684 0.00962,0.20509 -0.00988,0.32601l0.00003,0.00003c-0.15589,0.96676 -1.12266,0.81087 -1.12266,0.81087l-0.54112,-0.10854c-1.6008,0.06993 -2.96457,0.45662 -4.15091,1.07539c-1.70722,1.46172 -3.20808,3.18744 -4.67059,4.98239c-0.09349,0.31803 -0.15924,0.64341 -0.19445,0.97549c0,0 -0.10974,0.97308 -1.08283,0.86334c-0.02934,-0.0033 -0.05768,-0.0074 -0.08509,-0.01224c-0.57619,1.03483 -1.12284,2.09755 -1.67495,3.13839c0.08149,0.36217 -0.0896,0.70072 -0.0896,0.70072l-0.58025,1.14486c-1.58628,4.24939 -2.14051,8.82127 -4.3233,12.82473c-3.58299,6.53218 -9.4353,13.9769 -11.0793,21.25995c-3.32305,6.21724 -5.50985,12.842 -9.50351,18.6821c-0.06436,0.24489 -0.20204,0.4155 -0.20204,0.4155l-0.8143,0.99858c-0.84045,1.75928 -1.68562,3.31102 -2.37862,5.15044c-3.54639,5.66452 -6.12892,12.07346 -9.30004,18.01207c0.92167,1.01009 0.13057,2.28698 0.13057,2.28698l-0.73874,1.18667c-5.41744,9.93597 -11.06178,21.11994 -18.58769,29.62406c0,0 -1.29796,1.46666 -2.76461,0.16871c-1.46666,-1.29796 -0.16871,-2.76461 -0.16871,-2.76461c7.32967,-8.28238 12.80697,-19.22851 18.08195,-28.90324l0.84804,-1.37453c0,0 0.50022,-0.80737 1.36619,-0.94932c3.21845,-5.97993 5.84421,-12.39477 9.37462,-18.14922c0.70402,-1.906 1.60396,-3.51834 2.4813,-5.33413l0.85915,-1.07402c0.05473,-0.19343 0.14518,-0.325 0.14518,-0.325c3.95024,-5.74626 5.94586,-12.27509 9.33638,-18.33602c1.54979,-7.34977 7.62177,-14.92507 11.19459,-21.51255c2.14437,-3.93301 2.6872,-8.48959 4.24868,-12.67255l0.16573,-0.32882c-0.11069,-0.39077 0.09482,-0.76768 0.09482,-0.76768c0.46031,-0.84425 0.91275,-1.69843 1.37204,-2.54425l0.19044,-0.9338c0.37628,-0.46624 0.75034,-0.93258 1.12464,-1.39664c0.38107,-0.64007 0.77479,-1.26443 1.18831,-1.86417c0.45666,-0.91977 1.08419,-1.77039 1.83631,-2.54131c1.8955,-6.27022 2.3263,-15.55906 7.93205,-19.28286c4.25685,-0.53229 7.39114,-0.76127 10.74898,2.42738l0.21987,-0.00243c0,0 0.91742,0.34248 0.57494,1.25989z" fill="#1f1f1f"></path>
          <path d="M337.84931,100.46427c-3.72561,4.43164 -7.40283,-3.72134 -3.94737,-6.68562c2.13302,-1.82981 5.94252,-0.09282 6.24312,2.64589c0.14697,1.33902 -0.88698,2.58959 -1.58006,3.60002zM336.23631,99.41954c0.0691,-0.19697 0.20486,-0.34183 0.32357,-0.43757c0.12147,-0.10613 0.30039,-0.22147 0.52304,-0.24798c0.40667,-0.54002 1.17716,-1.47004 1.11469,-2.10148c-0.10506,-1.06203 -2.05785,-2.25772 -2.96088,-1.42065c-1.50559,1.39562 -0.13637,5.84075 0.99957,4.20766z" fill="#343434"></path>
          <g>
            <path d="M346.96959,94.18935c-0.03518,0.02028 -0.07287,0.03966 -0.1132,0.05807c-0.89087,0.40655 -1.29742,-0.48432 -1.29742,-0.48432l-0.43468,-1.20155c0.05828,-1.52126 0.19196,-2.53204 0.64586,-3.69425c-1.33036,0.89414 -2.84644,1.31173 -3.94313,0.8092c-0.37629,0.17864 -0.79224,0.02336 -0.79224,0.02336l-0.75873,-0.49228c-1.36384,-2.16831 -1.49475,-3.71253 -0.95284,-6.16348c1.66796,-4.2581 8.74469,-4.15067 9.3659,0.90491c0.12004,0.97688 -0.24349,2.00301 -0.87785,2.92251c0.25206,-0.07696 0.50753,-0.13263 0.76427,-0.16839c2.06646,-1.75158 5.25408,0.47719 5.69466,2.88031c0.00665,0.03624 0.01238,0.07227 0.01726,0.10809c0.5938,1.31414 0.4808,2.90162 -0.84389,4.44128c-2.3721,2.75704 -5.38089,2.36695 -6.47395,0.05649zM349.49344,92.49129c0.20169,-0.39796 0.6738,-0.50886 0.6738,-0.50886l0.77463,-0.14027c0.26713,-0.30901 1.24265,-1.09943 1.40194,-1.63972c-0.49858,-0.91018 -1.56471,-1.61364 -2.65643,-1.75015c-0.43751,0.97277 -0.7317,3.37599 -0.19398,4.03901zM342.70741,87.12093c0.0001,-0.00066 0.00021,-0.0013 0.00031,-0.00196c0.15589,-0.96676 1.12265,-0.81087 1.12265,-0.81087l-0.10902,0.37109c0.0105,-0.00192 0.02111,-0.00371 0.03185,-0.00534c0.56816,-0.57737 1.72693,-1.46964 1.75696,-2.33668c0.03728,-1.07659 -1.37099,-2.77499 -2.4694,-1.91622c-1.24494,0.97333 -1.27192,4.54559 -0.33336,4.69996z" fill="#343434"></path>
            <path d="M349.47114,92.55264c-0.53772,-0.66301 -0.24524,-3.18831 0.19227,-4.16108c1.09172,0.1365 2.24708,0.90301 2.74566,1.8132c-0.1593,0.5403 -1.17874,1.39007 -1.44587,1.69909l-0.80239,0.14354c0,0 -0.48797,0.1073 -0.68967,0.50526z" fill="#888888"></path>
            <path d="M342.68842,87.18337c-0.93856,-0.15437 -0.90714,-3.85274 0.33779,-4.82607c1.09844,-0.85878 2.58635,0.8987 2.54907,1.9753c-0.03004,0.86704 -1.24675,1.82876 -1.81491,2.40613c-0.01074,0.00163 -0.03476,-0.12645 -0.04526,-0.12453l0.12649,-0.24181c0,0 -0.99699,-0.15774 -1.15287,0.80903c-0.00009,0.00066 0.03775,-0.12362 0.03764,-0.12296z" fill="#888888"></path>
            <path d="M347.65333,102.99378c-0.04012,0.26507 -0.17477,0.46091 -0.17477,0.46091c-3.18998,4.13364 -7.6705,-1.97161 -5.51982,-5.47734c3.26945,-5.32939 10.96454,-1.65104 7.16016,4.03987l-0.86996,0.74788c0,0 -0.25889,0.20641 -0.59562,0.22865zM346.64345,101.89847c0.05223,-0.39974 0.38452,-0.66469 0.38452,-0.66469l0.47699,-0.32605c2.47282,-3.46386 -1.89582,-5.05008 -3.84481,-1.96037c-0.94506,1.49818 1.06435,5.5253 2.20447,3.39784c0,0 0.29964,-0.43586 0.77883,-0.44673z" fill="#343434"></path>
            <path d="M345.86283,102.41045c-1.14012,2.12746 -3.20767,-1.99081 -2.26261,-3.489c1.94899,-3.0897 6.43299,-1.4431 3.96017,2.02076l-0.49042,0.34154c0,0 -0.35211,0.27637 -0.40433,0.6761c-0.47918,0.01087 -0.80281,0.45059 -0.80281,0.45059z" fill="#888888"></path>
            <path d="M335.06214,99.76369c0.59508,-0.36534 1.14789,0.16237 1.14789,0.16237c1.3381,1.83134 3.11461,-2.0826 2.82633,-3.38991c-0.84829,-3.84678 -5.62967,-1.86874 -4.79271,1.93144c0.19311,0.25924 0.38621,0.51847 0.57931,0.77771zM335.01523,101.46659c-0.05765,0.04031 -0.12349,0.07798 -0.19853,0.11223c-0.89087,0.40655 -1.29742,-0.48432 -1.29742,-0.48432l-0.38925,-0.86445c-0.2227,-0.31645 -0.44543,-0.6329 -0.66812,-0.94935c-0.42098,-1.73396 -0.6343,-3.95782 0.68555,-5.42889c2.38614,-2.65952 6.99046,-1.0861 7.79227,2.22286c0.84195,3.4745 -2.67918,7.82917 -5.9245,5.39192z" fill="#343434"></path>
            <path d="M334.77578,99.29041c-0.19311,-0.25924 -0.39946,-0.53889 -0.59256,-0.79814c-0.83696,-3.80017 4.06553,-5.82701 4.91382,-1.98023c0.28829,1.30731 -1.56108,5.3095 -2.89919,3.47815c0,0 -0.57823,-0.53849 -1.17331,-0.17315z" fill="#888888"></path>
            <path d="M339.01509,95.44635c-0.76567,0.61048 -1.37616,-0.1552 -1.37616,-0.1552l-0.12296,-0.24574c-0.46588,-0.3032 -1.01167,-0.50693 -1.56227,-0.58319c0,0 -0.96676,-0.1559 -0.81087,-1.12266c0.1559,-0.96676 1.12266,-0.81087 1.12266,-0.81087c0.79948,0.14155 1.58528,0.43489 2.28195,0.85184l0.62283,0.68966c0,0 0.61048,0.76567 -0.1552,1.37616z" fill="#343434"></path>
          </g>
        </g>
      </g>
      <g stroke-width="0.5">
        <path d="M273.84301,220.19069l-0.43118,-0.00886c-2.19613,-0.03002 -4.48055,0.17864 -6.46908,1.11119c-0.16096,0.07548 -0.34291,0.05821 -0.49739,0.14136c0.08854,-0.21695 0.39994,-1.13337 -0.37157,-1.74201c0.24836,-4.04005 2.17078,-7.9655 6.56919,-7.72912c7.04797,0.37876 13.71638,6.01187 19.09331,10.04679c4.85609,6.09999 4.1604,11.69317 0.41981,17.97472c-0.71076,1.19356 -1.25655,2.65532 -2.43302,3.39404c-2.9081,1.826 -6.81788,-0.01375 -9.84603,1.71018c-1.76079,1.00243 -3.24013,3.80941 -4.18037,5.86392c-2.60083,-0.76728 -5.90728,-0.81688 -8.07545,-1.69432c-4.8497,-1.96262 -10.76209,-4.74208 -15.27199,-7.46785c-1.73794,-1.0504 -2.22764,-2.23014 -4.35185,-2.55897c-1.00448,-1.25956 -1.5629,-2.84818 -2.5697,-4.10668c-0.50826,-0.63532 -2.54015,-1.66939 -2.95812,-2.70062c-2.44536,-6.03339 5.56004,-11.02871 10.95117,-9.80319c-0.50589,1.26123 0.84309,1.92144 0.84309,1.92144l0.42139,0.19846c1.09745,0.5276 2.19401,1.17796 3.19454,1.81533c-2.72372,-0.50384 -4.66303,-0.93595 -7.31059,-0.05531c0,0 -1.41501,0.48888 -0.92117,1.90525c0.49383,1.41638 1.8123,0.90228 1.8123,0.90228c1.98544,-0.73836 3.60691,-0.25691 5.6508,0.14319c-0.1942,0.23897 -0.33209,0.49779 -0.36205,0.80504c-0.00017,0.00178 -0.00035,0.00356 -0.00051,0.00536c-0.02568,0.05302 -0.05145,0.10594 -0.07761,0.1601l0.0345,0.12209l-0.07026,-0.02231l-0.60102,1.88423c-0.09985,0.30248 -0.10455,0.63547 0.00842,0.95949c0.27274,0.78225 1.02841,1.20364 1.81065,0.93091c0.46927,-0.16362 0.80534,-0.54082 0.94052,-0.98221l0.52022,-1.64219c0.55329,-0.20403 0.76033,-0.93405 1.1449,-1.38946l1.20549,-0.77561c0,0 0.6869,-0.45526 0.71422,-1.19421c0.2366,-0.20582 0.46722,-0.52247 0.48259,-0.96581c3.65663,-1.71756 5.87828,-4.4048 10.5187,-4.26063l0.43445,0.01007c0,0 1.45675,0.12262 1.48911,-1.37703c0.03234,-1.49965 -1.46038,-1.52906 -1.46038,-1.52906z" fill="#b7b7b7"></path>
        <path d="M245.31789,244.49585c1.6688,-2.84439 7.54379,2.2103 9.8416,3.20004c3.73654,1.60945 7.32362,3.99485 11.06016,5.51446c4.79775,1.95118 12.03666,0.35377 9.42916,7.6309c-0.24726,0.69006 -0.58572,1.35064 -0.87718,2.02323c0,0 -0.02847,0.06593 -0.06259,0.17811c-11.04659,1.27949 -21.31678,-4.93019 -30.97078,-9.6904c0.02661,-0.88984 -0.44439,-1.41484 -0.90379,-1.7091c0.5648,-2.49471 1.28233,-4.66458 2.48342,-7.14722z" fill="#b7b7b7"></path>
        <path d="M278.72818,232.92407c1.03395,-1.08671 2.12066,-0.05276 2.12066,-0.05276l0.76153,0.7266c2.00538,1.75086 4.1579,3.10696 6.19948,4.80399c0,0 1.15219,0.96045 0.19173,2.11265c-0.96045,1.15219 -2.11265,0.19173 -2.11265,0.19173c-2.05144,-1.71535 -4.21848,-3.08421 -6.24807,-4.84538l-0.85994,-0.81614c0,0 -1.08671,-1.03395 -0.05276,-2.12066z" fill="#6b6b6b"></path>
        <path d="M274.34918,226.39415c1.046,-1.07512 2.12111,-0.02911 2.12111,-0.02911l0.24742,0.34811c3.00605,1.47403 6.02062,3.62451 8.60742,5.77721c0,0 1.15219,0.96045 0.19174,2.11264c-0.96045,1.15219 -2.11265,0.19173 -2.11265,0.19173c-2.37859,-1.98634 -5.21176,-4.06313 -7.9912,-5.38014l-1.03473,-0.89931c0,0 -1.07512,-1.04601 -0.0291,-2.12112z" fill="#6b6b6b"></path>
        <path d="M275.3263,221.6753c-0.03234,1.49965 -1.53199,1.46731 -1.53199,1.46731l-0.43266,-0.00932c-4.64041,-0.14417 -6.80506,2.52802 -10.46169,4.24558c-0.01537,0.44336 -0.2424,0.75493 -0.47899,0.96076c-0.02731,0.73895 -0.71049,1.18699 -0.71049,1.18699l-1.20346,0.76972c-0.38458,0.4554 -0.5901,1.17757 -1.14339,1.38162l-0.51997,1.63437c-0.13518,0.44137 -0.47159,0.81463 -0.94087,0.97825c-0.78225,0.27274 -1.63748,-0.1403 -1.91021,-0.92255c-0.11297,-0.32402 -0.10829,-0.66055 -0.00843,-0.96304l0.60175,-1.89145l0.07026,0.02235l-0.03442,-0.12253c0.02616,-0.05416 0.05205,-0.10774 0.07773,-0.16076c0.00017,-0.00178 0.00035,-0.00358 0.00052,-0.00537c0.02996,-0.30725 0.1686,-0.56931 0.36278,-0.80829c-2.04387,-0.4001 -3.56797,-0.8591 -5.5534,-0.12073c0,0 -1.41638,0.49383 -1.91021,-0.92255c-0.49383,-1.41638 0.92255,-1.91021 0.92255,-1.91021c2.64757,-0.88065 4.59022,-0.45634 7.31395,0.04749c-1.00054,-0.63737 -2.00902,-1.24038 -3.10648,-1.76798l-0.50936,-0.246c0,0 -1.26268,-0.60981 -0.75678,-1.87105c-5.39113,-1.2255 -13.38884,3.74387 -10.94347,9.77726c0.41796,1.03123 2.44963,2.05981 2.95789,2.69514c1.00681,1.2585 1.56338,2.83763 2.56785,4.09719c2.12421,0.32883 2.61033,1.49972 4.34827,2.55012c4.50989,2.72577 10.38388,5.47869 15.23358,7.44131c2.16816,0.87743 5.45273,0.9293 8.05356,1.69657c0.94023,-2.05451 2.40341,-4.85243 4.16421,-5.85486c3.02814,-1.72393 6.92577,0.1309 9.83387,-1.6951c1.17647,-0.7387 1.71888,-2.19239 2.42964,-3.38595c3.74061,-6.28155 4.439,-11.83767 -0.4171,-17.93766c-5.37692,-4.03491 -12.00765,-9.64045 -19.05562,-10.01922c-4.39841,-0.23638 -6.30065,3.68789 -6.549,7.72794c0.77152,0.60864 0.46048,1.52496 0.37194,1.74191c0.15448,-0.08315 0.31193,-0.1628 0.4729,-0.2383c1.98852,-0.93254 4.29865,-1.14033 6.49476,-1.11029l0.43266,0.00932c0,0 1.49965,0.03234 1.4673,1.532zM242.18253,237.82462c-1.07418,-1.34658 -2.90006,-2.14263 -3.58257,-3.72419c-4.02628,-9.33012 6.50027,-16.42329 14.66252,-15.58767c3.17413,0.32495 5.7793,2.29039 8.61755,3.71259c-0.52508,-6.96135 2.84081,-14.60903 10.87149,-14.4737c8.04626,0.1356 15.87549,6.56074 21.91997,11.23258c6.10546,7.62389 5.94851,15.15928 1.06421,23.22426c-1.04742,1.72949 -2.06246,3.67342 -3.77542,4.74768c-3.24866,2.03735 -7.05141,0.15751 -9.97375,1.78001c-1.0821,0.60079 -2.19048,3.30923 -2.71065,4.55824c2.43361,3.35283 0.82158,7.83669 -0.63259,11.23112c0,0 -0.28064,0.65155 -0.89401,1.04093c-0.2726,1.37659 -1.81352,1.58383 -1.81352,1.58383c-9.93755,1.25831 -21.75118,-3.24187 -30.59375,-7.59638c-2.63319,-1.29671 -4.71239,-3.10233 -7.38165,-4.22793l0.9171,-2.03741l-0.57451,-0.53275c0.7385,-3.88052 1.67845,-6.91414 3.42924,-10.47112c0.82822,-0.9879 1.31003,-1.73433 1.8221,-2.25607c-0.42048,-0.76074 -0.83216,-1.52765 -1.37174,-2.20406zM242.88404,251.64963c0.45941,0.29425 0.93081,0.8142 0.9042,1.70404c9.65401,4.76022 19.83128,10.94276 30.87787,9.66328c0.03411,-0.11217 0.06233,-0.17767 0.06233,-0.17767c0.29148,-0.67259 0.62717,-1.32767 0.87443,-2.01774c2.60749,-7.27713 -4.63527,-5.65569 -9.43302,-7.60688c-3.73653,-1.51959 -7.24603,-3.86776 -10.98257,-5.47722c-2.29781,-0.98974 -8.15902,-6.05819 -9.82782,-3.2138c-1.2011,2.48263 -1.91062,4.63126 -2.47541,7.12597z" fill="#6b6b6b"></path>
      </g>
      <g stroke-width="0.5">
        <path d="M342.61306,167.50325c-1.79078,0.69411 -3.02813,1.85316 -5.04078,2.09419c-0.66831,0.08004 -1.34294,0.06328 -2.01771,0.04841c0.1131,0.36218 0.21211,0.80391 0.32135,1.42532h-0.00001c0.12933,0.73573 0.28401,1.49167 0.19112,2.23288c-0.035,0.27925 -0.80217,0.51236 -0.55114,0.63957c0.26549,0.13452 0.41465,-0.44974 0.68645,-0.57101c1.12041,-0.49991 2.34788,-0.71651 3.50171,-1.13355c4.35939,-1.57567 7.35818,-3.66647 11.07626,-6.248c1.75677,-1.21976 2.65791,-1.69349 3.60213,-3.70784c-0.38084,-1.17636 -0.51991,-2.34593 -0.73459,-3.52743c-3.01501,3.67118 -6.7199,7.07499 -11.0348,8.74746zM358.60889,162.91533l-0.53726,0.90548c-2.94323,7.38425 -9.33438,10.94343 -16.67221,13.28454c-2.56565,0.81855 -5.97648,2.83419 -8.41351,0.3066c-0.1539,-0.15962 -0.26334,-0.34638 -0.34634,-0.54926c-0.28054,-0.15425 -0.45199,-0.34668 -0.45199,-0.34668l-0.64372,-1.38281c0.06046,-1.04956 0.12631,-2.09886 0.20074,-3.14753c-0.50423,-1.9999 -1.22286,-1.48489 -2.52259,-3.00662c-1.18249,-1.38449 -1.76255,-3.89727 -2.05745,-5.65203c-0.49323,-2.93481 0.53611,-6.37083 -0.27314,-9.20752c-0.1603,-0.56189 -0.67155,-0.99205 -0.79194,-1.56381c-0.31075,-1.47581 0.48127,-1.76227 -0.22254,-3.02371c-2.03451,-3.6464 -6.92324,-3.113 -10.10783,-5.28753c-2.6267,-2.91068 -4.40586,-5.58452 -4.83105,-9.43792c-0.14878,-1.34833 -0.70541,-2.76482 -0.2977,-4.05861c0.78814,-2.501 3.2485,-4.58927 5.84585,-5.15882c-0.65832,-3.30948 0.20455,-7.43465 3.28156,-9.0747c1.42082,-0.75729 3.06821,-0.84917 4.67234,-0.75833c-0.14096,-2.62323 0.77647,-4.70237 3.97312,-6.40333l1.16814,-0.35303c0,0 0.95235,-0.25767 1.5213,0.4173c0.5889,-0.01741 1.18084,0.09678 1.74967,0.37501c1.40398,0.68671 1.9409,2.24018 2.56497,3.71856c0.77671,-0.13998 1.36155,0.51636 1.36155,0.51636c2.90594,3.47888 4.38424,-0.77218 7.60488,-0.84295c1.41965,-0.03121 2.84976,1.1008 3.94687,1.84908c4.88041,3.32871 7.89343,9.40073 9.42347,14.95502c1.47246,5.44266 2.74357,10.49257 2.82815,16.11369c0.03465,2.30267 -0.73741,3.6489 -1.53981,5.62011c-1.13688,2.79292 -0.63313,5.34825 0.10982,8.09446l-0.01549,1.6075c0,0 -0.02817,0.48913 -0.33186,0.89219c-0.0509,0.34658 -0.19599,0.59927 -0.19599,0.59927zM328.84389,116.72196c-0.01115,0.03396 -0.0225,0.06782 -0.0341,0.1016l0.01673,0.00338l-0.04657,0.23039c0.30815,1.24514 1.08135,2.70622 1.69379,3.61979c1.33064,0.44311 2.65795,0.89933 4.01466,1.32204c4.39974,1.4395 7.48731,-2.18318 11.56936,-1.34219c0.41441,0.08538 0.80277,0.1906 1.16755,0.31413c-0.10984,-0.08831 -0.22305,-0.17221 -0.33979,-0.25142c-0.95253,-0.37361 -1.82532,-1.03153 -2.83969,-1.16547c-2.55212,-0.337 -4.9421,1.25261 -7.51144,0.68722c-1.11284,-0.24489 -3.03533,-1.19774 -3.81967,-2.05725c-0.51964,-0.56944 -1.11789,-3.21532 -2.15574,-3.3969c-0.69814,-0.12213 -1.17281,-0.03762 -1.47492,0.19149c-0.06115,0.66686 -0.0989,1.31236 -0.24016,1.74318zM323.35094,135.28976c-0.86079,0.23286 -1.34828,-0.18443 -1.6021,-0.56115c-1.15832,-0.51434 -2.29585,-1.1793 -3.01528,-2.18876c-0.50942,-0.71478 -0.20818,-1.48543 -1.28034,-1.4791c-4.7071,0.0278 -1.25763,6.66613 0.0233,8.20228c2.06036,2.47088 7.12502,1.49432 9.72735,3.16754c0,0 0.07527,0.05127 0.1761,0.1471c0.87485,0.05405 1.69354,0.35612 2.46868,1.59575c0.78572,1.25652 0.52441,2.93274 1.03692,4.32324l0.71824,2.65001c0,0 0.07635,0.28221 0.03704,0.63115c0.89618,1.79393 1.36819,3.28898 1.10546,5.39919c-0.34336,2.75789 -2.52551,6.22694 0.23189,7.96778l0.05931,0.05918c7.74313,-0.69671 13.78611,-5.16998 18.71702,-10.79623c1.10619,-1.26218 2.34274,-2.57788 2.79421,-4.3161c0.45044,-1.73425 0.20039,-3.81114 0.57603,-5.61426c-0.4923,-5.43601 -1.97567,-9.30655 -4.11196,-14.28508c-1.34216,-3.12784 -1.79935,-5.59912 -5.60512,-6.6066c-1.43222,-0.37914 -3.12622,1.02185 -4.459,1.3838c-2.75955,0.74941 -4.6564,0.70387 -7.35409,-0.10656c-1.1051,-0.34547 -2.19772,-0.70593 -3.28816,-1.0655c-0.8789,0.31787 -1.57167,-0.45959 -1.57167,-0.45959c-0.02286,-0.02588 -0.04579,-0.05214 -0.06878,-0.07878c-0.8508,-0.27664 -1.70342,-0.54787 -2.56276,-0.80618c-1.03438,-0.31092 -1.80559,-1.25895 -2.84594,-1.54927c-2.39454,-0.66823 -1.32911,4.41693 -1.0362,5.18506c1.50617,3.94987 6.90283,6.17779 11.15585,5.94302c0.72974,-0.34445 1.45958,-0.6749 2.24021,-0.74206l0.0283,-0.04594c0,0 1.1199,-0.9979 2.11781,0.12199c0.36241,0.40672 0.4455,0.79735 0.40435,1.12993c0.23285,0.42805 0.40144,0.92284 0.60558,1.34601c1.04497,2.16613 1.62038,4.69697 2.44719,6.97643c0,0 0.5106,1.41042 -0.89983,1.92102c-1.41042,0.5106 -1.92102,-0.89983 -1.92102,-0.89983c-0.63709,-1.76306 -1.28445,-3.44946 -1.95232,-5.17608c-0.23773,-0.61459 0.0325,-1.57948 -0.23194,-2.11039l-0.07613,0.05709c-0.79178,0.20611 -1.63076,0.33214 -2.49564,0.38101c-0.88964,0.38551 -1.74563,0.78012 -1.95293,0.81618c-2.44621,0.42564 -5.31373,0.45298 -7.92197,-0.17604c-0.04367,-0.14748 -0.08668,-0.29516 -0.12901,-0.44303c-0.08699,0.03889 -0.18293,0.07314 -0.28867,0.10175z" fill="#6b6b6b"></path>
        <path d="M347.27429,120.98118c-0.3648,-0.12352 -0.75307,-0.22914 -1.16747,-0.31452c-4.08205,-0.84098 -7.25101,2.81012 -11.65075,1.37063c-1.35671,-0.4227 -2.69997,-0.90408 -4.0306,-1.34719c-1.3225,-1.97273 -3.38879,-6.53812 0.09112,-5.9293c1.03786,0.18157 1.72788,2.86183 2.24752,3.43128c0.78433,0.85951 2.6775,1.75865 3.79035,2.00354c2.56934,0.5654 4.88949,-0.9832 7.44161,-0.6462c1.01439,0.13394 1.98608,0.80585 2.93862,1.17947c0.11674,0.07922 0.22978,0.16399 0.33962,0.25231z" fill="#b7b7b7"></path>
        <path d="M334.69736,168.02491c7.4753,-1.13235 13.66949,-5.41176 18.6653,-10.90633l0.00298,0.16192c0.46036,1.67734 0.52927,3.33447 1.06417,4.98673c-0.94422,2.01435 -1.84279,2.50697 -3.59957,3.72673c-3.71808,2.58153 -6.79608,4.70997 -11.15548,6.28565c-1.15382,0.41704 -2.38852,0.62728 -3.50893,1.12718c-0.27181,0.12127 -0.42109,0.70538 -0.68659,0.57086c-0.25104,-0.12721 0.51585,-0.36064 0.55085,-0.63988c0.09289,-0.74121 -0.06711,-1.50412 -0.19644,-2.23984c-0.29336,-1.66876 -0.51922,-2.0565 -1.13629,-3.07298z" fill="#b7b7b7"></path>
        <path d="M323.62654,134.99426c0.06151,0.21843 0.03,0.40389 0.09444,0.62152c2.60823,0.62903 5.48714,0.58249 7.93335,0.15686c0.20731,-0.03607 1.08056,-0.44249 1.97019,-0.82801c0.86489,-0.04888 1.73014,-0.17811 2.52191,-0.38423l0.07682,-0.05698c0.26443,0.53091 0.00372,1.49831 0.24144,2.1129c0.66788,1.72664 1.33614,3.49192 1.97323,5.25497c0,0 0.43107,1.34997 1.8415,0.83937c1.41042,-0.5106 0.89247,-1.90478 0.89247,-1.90478c-0.82682,-2.27947 -1.37957,-4.75532 -2.42453,-6.92145c-0.20414,-0.42317 -0.36535,-0.9143 -0.5982,-1.34236c0.04116,-0.33257 -0.03742,-0.72166 -0.39984,-1.12838c-0.9979,-1.1199 -2.10514,-0.12003 -2.10514,-0.12003l-0.02812,0.04594c-0.78064,0.06717 -1.49585,0.39574 -2.22559,0.7402c-4.25302,0.23477 -9.69848,-2.07673 -11.20465,-6.02659c-0.2929,-0.76813 -1.35059,-5.85959 1.04395,-5.19136c1.04035,0.29032 1.81492,1.23631 2.8493,1.54723c0.85934,0.25832 1.71676,0.52724 2.56757,0.80387c0.02298,0.02664 0.04599,0.05286 0.06885,0.07874c0,0 0.69641,0.77611 1.57531,0.45823c1.09044,0.35957 2.1924,0.71792 3.29751,1.06339c2.6977,0.81044 4.6187,0.85888 7.37826,0.10947c1.33278,-0.36195 3.0356,-1.75852 4.46783,-1.37938c3.80577,1.00748 4.27934,3.49567 5.6215,6.62351c2.1363,4.97852 3.62498,8.88701 4.11727,14.32302c-0.37565,1.80313 -0.13039,3.89192 -0.58083,5.62617c-0.45147,1.73822 -1.69488,3.06334 -2.80106,4.32551c-4.9309,5.62626 -11.01529,10.11542 -18.75842,10.81213l-0.05943,-0.05919c-2.7574,-1.74084 -0.57797,-5.21022 -0.23461,-7.96812c0.26273,-2.1102 -0.21644,-3.60688 -1.11261,-5.40081c0.03932,-0.34894 -0.03788,-0.63144 -0.03788,-0.63144l-0.72508,-2.65281c-0.51251,-1.3905 -0.26681,-3.07886 -1.05251,-4.33538c-0.77515,-1.23963 -1.60237,-1.55581 -2.47722,-1.60986c-0.10083,-0.09583 -0.17651,-0.14817 -0.17651,-0.14817c-2.60233,-1.67323 -7.67013,-0.71438 -9.73049,-3.18526c-1.28094,-1.53616 -4.72579,-8.19514 -0.0187,-8.22295c1.07216,-0.00633 0.86259,0.80422 1.37202,1.51899c0.86467,1.21323 2.3344,1.9258 3.71716,2.48036c0.37669,-0.01545 0.75286,-0.02941 1.12955,-0.04486z" fill="#b7b7b7"></path>
      </g>
    </g>
  </g>
</svg>
