<?xml version="1.0" encoding="UTF-8"?>
<svg xmlns="http://www.w3.org/2000/svg" xmlns:xlink="http://www.w3.org/1999/xlink" version="1.1" width="96.73431" height="73.4693" viewBox="0,0,96.73431,73.4693">
  <g transform="translate(-112.53629,-207.8854)">
    <g stroke="none" stroke-width="0.5" stroke-miterlimit="10">
      <g>
        <path d="M202.22107,214.14508c-0.5236,2.39261 -0.68206,4.88986 -0.48732,7.31503c0.06567,0.81782 1.82366,8.83253 1.81946,9.69942c-0.00435,0.89889 -0.77907,1.65251 -0.90622,2.54237c-0.35478,2.48272 0.27429,5.0455 -0.04011,7.53365c-0.25853,2.04606 -1.21263,4.07179 -1.78048,6.03351c-0.66997,2.31446 -1.10154,6.46248 -2.49506,8.55845c-2.93494,4.41439 -9.96664,7.18068 -14.72387,8.82844c-3.68849,-0.05532 -7.657,0.33372 -11.31252,-0.05051c-2.72225,-0.28614 -5.44043,-0.93345 -8.17766,-0.92487l-2.33218,-0.82278c0,0 -2.75499,-0.92575 -3.68029,1.81843c-0.24553,0.72818 -0.23227,1.32835 -0.08087,1.81707c-1.34696,2.21882 -2.90876,5.60693 -4.68627,7.10371c-2.72312,2.29307 -6.94462,2.01949 -10.15194,2.01433c-2.49595,-0.00401 -6.38263,0.1405 -8.67622,-1.45806c-1.02015,-0.71101 -1.59137,-1.95717 -2.60399,-2.67886c-1.00278,-0.71468 -2.48245,-0.69342 -3.35016,-1.56716c-0.86769,-0.87372 -0.81104,-2.37189 -1.54323,-3.36193c-1.03905,-1.40495 -2.64654,-2.32985 -3.69747,-3.72593c-1.50534,-1.9997 -2.42792,-4.40787 -3.32044,-6.74631c-1.27599,-3.34318 -0.8009,-6.99768 -1.66108,-10.4898c-0.03021,-1.14695 -0.39667,-2.33978 -0.09055,-3.44554c0.25686,-0.92783 1.25883,-1.48461 1.69163,-2.34458c0.98538,-1.95794 0.70863,-4.43212 1.79579,-6.33542c1.08645,-1.90205 5.38971,-6.10936 7.27781,-7.2351c1.65387,-0.98609 4.8936,-0.34644 6.45648,-0.57152c0.81859,-0.11789 1.49501,-0.86526 2.32182,-0.8844c3.26995,-0.07564 8.00405,3.005 10.76768,4.36882c0.71103,0.35089 1.67131,0.14381 2.29615,0.63192c0.63218,0.49384 0.8353,1.50423 1.25963,2.18502c2.24525,3.6022 4.84184,7.31323 6.12887,11.35582l0.81115,0.43963c-0.53006,2.42291 1.87955,3.17146 1.87955,3.17146c5.57964,1.88136 10.45079,3.21033 16.25144,3.92742c4.1145,0.50865 4.53817,2.30454 8.59823,-0.53525c1.09214,-0.7639 1.49532,-2.20312 2.34519,-3.22977c1.01157,-1.22199 2.65055,-2.0121 3.22802,-3.48962c0.64093,-1.63992 0.36774,-3.51568 0.20248,-5.26864c-0.20482,-2.17264 -1.05473,-4.63682 -1.88137,-6.94567c0.61139,-1.60989 -0.74182,-2.97033 -0.74182,-2.97033l-1.6791,0.59175c-0.54118,-1.11524 -1.1701,-2.20396 -1.16591,-3.4133c0.00233,-0.67341 0.5514,-1.22892 0.78563,-1.86028c0.63366,-1.70799 1.13741,-5.73289 2.74497,-6.94125c1.31191,-0.98613 3.24963,-0.95578 4.80842,-1.46937c3.00414,-0.98981 4.83665,-1.65925 7.9116,-1.6747c-0.00263,0.01088 -0.09815,0.09096 -0.10077,0.10185l-0.57242,-0.02526c0,0 0.20798,0.20958 0.55733,0.42807z" fill="#e36f00"></path>
        <path d="M162.32104,247.27927c4.47189,-1.83482 8.91466,0.18026 13.42404,0.86208c1.48795,0.22498 2.60761,0.10392 3.57431,0.05445c1.16607,-0.30325 2.32612,-0.59053 3.46843,-0.87193l2.63993,-0.8698c0.30642,-0.10897 0.63655,-0.16778 0.98049,-0.16658c1.59939,0.00555 2.89147,1.30661 2.88592,2.90601c-0.00401,1.15607 -0.68488,2.15157 -1.66603,2.61253l-3.65706,1.8127l-0.06528,-0.13168c-0.18296,0.12636 -0.37113,0.24595 -0.56527,0.35776c-1.16091,0.66864 -2.81742,0.69466 -4.56172,0.46649c-3.96448,1.08504 -7.93419,2.45299 -11.19582,4.63025c-3.16358,2.11183 -4.62405,1.91924 -5.30364,5.68813c0,0 -0.66997,2.64085 -3.27172,2.14977c-1.36204,4.32263 -3.06851,7.80237 -7.57763,10.83235c-1.0468,0.3539 -2.09359,0.70781 -3.14038,1.06171l-1.84301,0.14223c0,0 -0.35259,-0.00122 -0.81127,-0.12584c-0.46327,0.166 -1.03732,0.20984 -1.7442,0.03051c-2.80706,-0.7121 -2.09496,-3.51916 -2.09496,-3.51916c0.41904,-1.64805 1.266,-5.42066 2.0859,-7.0498c0.43279,-0.85996 1.4124,-1.4197 1.69134,-2.34113c1.21022,-3.99756 -0.5669,-9.68331 -0.98201,-13.63784c-0.15041,-1.43293 0.37293,-2.91306 0.07075,-4.32182c-0.25761,-1.20101 -1.2122,-2.14218 -1.69913,-3.26987c-2.6522,-6.14241 -5.18167,-10.33814 -9.80094,-15.24012l-2.22125,-0.74896c-1.18211,-0.36803 -2.03847,-1.47284 -2.03395,-2.77556c0.00555,-1.59939 1.3066,-2.89147 2.906,-2.88592l3.70684,0.01285l-0.00026,0.07452c0.11749,-0.01943 0.23548,-0.03669 0.35401,-0.05159c0.06396,-0.00805 7.65743,1.91454 7.86274,1.9745c6.3256,1.84765 12.60099,5.69113 15.65182,11.75628c1.51565,3.01316 2.29774,6.80759 2.5278,10.72901c0.14104,-0.04541 0.27675,-0.09382 0.40522,-0.14652zM143.11477,231.01781l-0.07763,-0.23561c-0.31368,-0.10146 -0.6272,-0.19689 -0.93959,-0.28638c-0.17857,-0.05116 -0.36037,-0.09576 -0.54466,-0.13523c0.43162,0.56289 0.84653,1.13046 1.24692,1.70551c0.03801,-0.3753 0.14763,-0.72934 0.31496,-1.04828zM153.85366,255.4716c0.15533,-0.06772 0.31146,-0.1339 0.46789,-0.19907c-0.20172,-0.12044 -0.38753,-0.26469 -0.55358,-0.42888c0.03059,0.21023 0.05926,0.4196 0.08569,0.62795z" fill="#9f4d00"></path>
        <path d="M201.61753,213.75192l0.6651,-0.04424c0.00262,-0.01089 0.00523,-0.02178 0.00787,-0.03267c-3.07495,0.01545 -4.90471,0.68831 -7.90884,1.67812c-1.55879,0.51359 -3.41113,0.40498 -4.72305,1.39111c-1.60756,1.20836 -2.10777,5.2373 -2.74143,6.94529c-0.23423,0.63136 -0.78222,1.18827 -0.78455,1.86167c-0.0042,1.20935 0.62832,2.30346 1.1695,3.4187l1.67941,-0.59122c0,0 1.35567,1.36522 0.74429,2.97511c0.82664,2.30886 1.68063,4.78558 1.88545,6.95821c0.16526,1.75295 0.43959,3.6384 -0.20135,5.27832c-0.57746,1.47753 -2.21665,2.27478 -3.22822,3.49677c-0.84987,1.02666 -1.25428,2.47356 -2.34642,3.23745c-4.06006,2.83979 -4.4861,1.05165 -8.60059,0.543c-5.80066,-0.7171 -10.72302,-2.00893 -16.30266,-3.89029c0,0 -2.46486,-0.83111 -1.93481,-3.25402l-0.8107,-0.44057c-1.28702,-4.0426 -3.86456,-7.77564 -6.1098,-11.37785c-0.42433,-0.68078 -0.56226,-1.59543 -1.19444,-2.08927c-0.62484,-0.48811 -1.58143,-0.28373 -2.29246,-0.63462c-2.76363,-1.36382 -7.48983,-4.45205 -10.75978,-4.37641c-0.82681,0.01913 -1.50073,0.76338 -2.31932,0.88126c-1.56288,0.22508 -4.79886,-0.42026 -6.45273,0.56583c-1.8881,1.12574 -6.18581,5.31995 -7.27226,7.22201c-1.08716,1.9033 -0.80859,4.36836 -1.79397,6.32631c-0.43279,0.85996 -1.43446,1.41333 -1.69133,2.34116c-0.30612,1.10575 0.06042,2.29389 0.09063,3.44084c0.86019,3.49212 0.38294,7.1323 1.65893,10.47547c0.89252,2.33843 1.81142,4.73697 3.31677,6.73667c1.05093,1.39607 2.65491,2.31475 3.69396,3.71969c0.73219,0.99005 0.67253,2.484 1.54021,3.35773c0.86771,0.87374 2.34423,0.84879 3.34701,1.56347c1.01263,0.7217 1.57993,1.96403 2.60008,2.67504c2.29358,1.59855 6.17038,1.44696 8.66633,1.45097c3.20732,0.00516 7.41466,0.27301 10.13779,-2.02006c1.7775,-1.4968 3.33217,-4.88627 4.67913,-7.10508c-0.15139,-0.48873 -0.16423,-1.08884 0.08129,-1.81702c0.9253,-2.74418 3.66947,-1.81888 3.66947,-1.81888l2.32539,0.82355c2.73723,-0.00859 5.43648,0.64556 8.15872,0.93169c3.65552,0.38424 7.60937,0.00716 11.29787,0.06248c4.75724,-1.64776 11.77692,-4.3924 14.71185,-8.80679c1.39352,-2.09597 1.82279,-6.23123 2.49275,-8.54569c0.56786,-1.96173 1.52201,-3.97894 1.78054,-6.02501c0.31439,-2.48816 -0.31299,-5.04097 0.04179,-7.52369c0.12715,-0.88986 0.90268,-1.64071 0.90702,-2.5396c0.0042,-0.86689 -1.74896,-8.87045 -1.81463,-9.68828c-0.19474,-2.42518 -0.03252,-4.91661 0.49107,-7.30923c-0.34933,-0.21848 -0.55687,-0.42745 -0.55687,-0.42745zM182.32024,232.01406c-0.30277,-0.91896 -1.98158,-5.89382 -1.97953,-6.48292c0.01212,-3.49698 3.169,-11.2449 5.81821,-13.40196c1.00125,-0.81526 2.41023,-0.92784 3.62693,-1.36004c4.42432,-1.57164 8.24962,-2.85776 12.97311,-2.88373l2.96829,1.78521c0,0 0.12247,0.12332 0.27717,0.33953c0.142,0.02991 0.28951,0.07011 0.44268,0.12176c2.74417,0.92531 1.81887,3.66948 1.81887,3.66948c-2.2226,6.27565 1.0197,11.52195 1.00458,17.84858c-0.00252,1.05502 -0.80905,1.9708 -0.96572,3.01413c-0.36151,2.40757 0.30484,4.88951 -0.00962,7.30367c-0.40572,3.11472 -1.16992,4.16765 -1.97129,6.93604c-0.84105,2.90549 -1.39858,7.40491 -3.13174,9.96916c-3.98041,5.88909 -12.26846,9.4178 -18.72026,11.46504c-4.15493,0.02285 -8.66903,0.39988 -12.79649,-0.02107c-2.8425,-0.28991 -5.65848,-0.95249 -8.51559,-0.97953l-0.09861,-0.03204c-1.66505,2.57361 -3.63871,6.74678 -5.89104,8.59091c-4.03502,3.30374 -9.09964,3.48112 -13.97593,3.45662c-3.77023,-0.01894 -8.34527,-0.13176 -11.70833,-2.32657c-1.15382,-0.75299 -1.82559,-2.0955 -2.94087,-2.90446c-1.24057,-0.89983 -2.97391,-1.08165 -4.05382,-2.16907c-1.0799,-1.08742 -1.22204,-2.84221 -2.14091,-4.06874c-1.0477,-1.39849 -2.65702,-2.31318 -3.69396,-3.71969c-0.12944,-0.17558 -3.94078,-7.8277 -4.0455,-8.11633c-1.41594,-3.90261 -0.98755,-7.78672 -1.97078,-11.77836c0.04093,-1.94207 -0.32855,-3.93687 0.12276,-5.82622c0.29408,-1.23118 1.4638,-2.07658 2.03478,-3.20628c0.75509,-1.49394 1.39368,-5.6608 1.95786,-6.63468c1.35687,-2.3422 7.09352,-8.09678 9.46632,-9.4009c2.47473,-1.36015 5.58252,-0.85806 8.38098,-1.23615c1.11792,-0.15104 2.11946,-0.97482 3.24733,-0.95283c4.30093,0.08384 9.69364,3.12239 13.30244,4.9742c1.03456,0.53087 2.36242,0.50044 3.26134,1.23806c1.10393,0.90586 1.6822,2.30844 2.49312,3.48387c2.33576,3.3857 4.59513,7.1566 6.13739,11.01901c0.75903,0.2964 1.62239,0.95275 1.70833,2.40608c4.44012,1.40693 8.48048,2.35361 13.20954,2.98766c0.03591,0.00482 3.41864,1.5905 4.37331,0.58799c0.61848,-0.64949 0.79614,-1.62888 1.3797,-2.30992c0.67577,-0.78864 1.87175,-1.12302 2.35128,-2.04425c0.49168,-0.94455 -0.83057,-3.92342 -1.01579,-4.57259c-0.26704,-0.93592 -0.51293,-1.87825 -0.76367,-2.81906c-1.44707,-0.37197 -1.96686,-1.9496 -1.96686,-1.9496z" fill="#000000"></path>
      </g>
    </g>
  </g>
</svg>
