<?xml version="1.0" encoding="UTF-8"?>
<svg xmlns="http://www.w3.org/2000/svg" xmlns:xlink="http://www.w3.org/1999/xlink" version="1.1" width="525.00077" height="362.90004" viewBox="0,0,525.00077,362.90004">
  <g transform="translate(22.50039,2)">
    <g fill="#000000" stroke="none" stroke-width="0" stroke-miterlimit="10">
      <path d="M-0.39999,53.90002v-55h69c0,0 -40.59802,11.60712 -52.39648,21.01169c-11.16677,8.90105 -16.60352,33.98832 -16.60352,33.98832z"></path>
      <path d="M463.99649,19.91168c-11.79845,-9.40456 -52.39648,-21.01168 -52.39648,-21.01168h69v55c0,0 -5.43675,-25.08726 -16.60352,-33.98831z"></path>
      <path d="M16.10352,339.88835c11.79846,9.40456 52.39648,21.01169 52.39648,21.01169h-69v-55c0,0 5.43675,25.08727 16.60352,33.98832z"></path>
      <path d="M480.5,305.90004v55h-69c0,0 40.59803,-11.60712 52.39648,-21.01168c11.16677,-8.90105 16.60352,-33.98831 16.60352,-33.98831z"></path>
      <path d="M-1,360.71461v-9.42923h480v9.42923z"></path>
      <path d="M0,9.50038v-11.00077h480v11.00077z"></path>
      <path d="M-11.49962,359h-11.00077l0,-361l11.00077,0z"></path>
      <path d="M502.50039,355h-11.00077v-354h11.00077z"></path>
    </g>
  </g>
</svg>
