<?xml version="1.0" encoding="UTF-8"?>
<svg xmlns="http://www.w3.org/2000/svg" xmlns:xlink="http://www.w3.org/1999/xlink" version="1.1" width="269.25099" height="112.77957" viewBox="0,0,269.25099,112.77957">
  <g transform="translate(-108.0328,-124.97757)">
    <g stroke="none" stroke-width="0.5" stroke-miterlimit="10">
      <path d="M173.64578,212.75111c-1.74896,2.64622 -5.11831,7.91853 -7.72383,9.51407c-0.08314,0.05091 -0.16706,0.10014 -0.25171,0.14779l0.02981,0.03974l-3.17981,2.38487c-0.06739,0.05169 -0.13749,0.10003 -0.21005,0.14477c-2.66009,1.93897 -5.28233,3.45557 -8.21179,4.91617c-1.69236,0.8438 -3.69782,1.08318 -5.23663,2.18233c-1.07236,0.76597 -1.67782,2.20135 -2.90503,2.68157c-1.45209,0.56821 -7.21697,0.1391 -8.6066,-0.65018l-0.96544,-0.16091c-0.30218,0.12963 -0.63506,0.2014 -0.9847,0.2014c-0.22871,0 -0.45026,-0.03071 -0.66073,-0.08824l-3.14556,-0.78639l0.00084,-0.00335l-0.00891,0.00132c-2.58096,-0.66367 -5.04063,-1.21804 -7.40445,-2.0868c-0.43082,0.35217 -0.98132,0.56343 -1.58118,0.56343c-1.38071,0 -2.5,-1.11929 -2.5,-2.5c0,-0.00387 0.00001,-0.00775 0.00003,-0.01162c-0.16267,-0.09976 -0.32492,-0.20245 -0.48676,-0.30822c0,0 -1.10771,-0.73847 -1.16756,-1.94597c-1.78946,-2.28544 -3.57976,-6.78931 -3.01437,-9.34563c-1.40005,-0.98803 -0.80304,-2.77909 -0.80304,-2.77909l0.40944,-1.22834c-0.40462,-0.23619 -0.81153,-0.51555 -1.22273,-0.84775c-4.84946,-3.91773 -8.21927,-11.82783 -3.54834,-17.11834c1.07708,-1.21996 2.10441,-2.76618 3.66598,-3.22433c1.48328,-0.43519 3.06052,0.45962 4.56633,0.809c0.04297,0.00997 0.08665,0.02015 0.13101,0.03053c0.06789,-0.2161 0.13396,-0.34824 0.13396,-0.34824l0.66435,-1.27255c0.64997,-1.55737 0.26256,-3.1795 -0.34174,-4.79765c-0.32395,-0.41833 -0.45825,-0.82122 -0.45825,-0.82122c-0.17058,-0.51485 -0.34634,-1.05836 -0.51968,-1.62393c-0.09987,-0.25983 -0.19449,-0.51862 -0.28031,-0.77609c0,0 -0.07422,-0.22268 -0.10895,-0.5543c-1.15047,-4.14526 -1.90294,-9.11401 0.30518,-12.66798c3.60868,-5.80818 11.27995,-4.16966 16.11587,-0.17429l0.74529,-0.72057c0.66917,-0.2392 1.33834,-0.4784 2.00751,-0.7176c-0.04635,-4.02756 -0.34986,-7.65869 -1.4935,-11.65683c-1.03879,-3.63158 -2.53438,-6.13949 -1.5924,-10.2234c0.24559,-1.06476 1.26432,-1.79354 1.74692,-2.77391c0.87474,-1.77699 1.45949,-3.75271 2.71246,-5.28663c0.68323,-0.83643 1.6767,-1.39849 2.30521,-2.27679c1.2335,-1.72374 1.9668,-3.76497 3.14799,-5.52497c0.47418,-0.70654 1.00825,-1.3751 1.43433,-2.11165c0.65087,-1.12515 0.56466,-3.03306 1.79103,-3.46389c6.15568,-2.1625 9.55036,2.95021 11.68792,7.1879c0.01474,0.83149 0.1796,6.93789 -0.0404,7.69886c-0.57268,1.98085 -3.92901,6.77933 -5.42501,8.24328c-0.52626,0.51498 -1.56403,0.39337 -1.96354,1.01187c-0.75208,1.1643 0.89514,2.64411 1.06352,4.01992c0.27845,2.27516 -0.73152,4.67991 -0.07499,6.87601c0.50583,1.692 1.80756,3.06283 2.37899,4.73382l0.07057,1.31476c0.28331,0.25728 0.43786,0.48911 0.43786,0.48911c2.16766,3.39889 6.22871,4.8103 8.70662,7.86925c0.58069,0.71686 0.43425,1.8315 0.93985,2.60316c0.51526,0.78642 1.36078,1.29772 2.04116,1.94658l0.0772,0.07721c1.76714,-0.73166 4.69173,-1.48428 5.71146,-2.94956c1.80545,-2.59429 -0.17859,-7.05534 -1.63655,-9.17314c-1.93765,-2.95015 -4.09386,-6.55833 -2.6296,-10.34347c0.49409,-1.27721 1.91475,-1.96382 2.77636,-3.02825c2.19355,-2.70988 4.00536,-4.14971 6.94656,-6.09516c1.5468,-1.02312 4.88601,-3.6642 6.99817,-2.68455c1.66508,0.77229 2.74441,2.6732 3.2665,4.43284c0.11526,0.38849 -1.50458,5.56796 -1.83207,6.2302c-0.63222,1.27842 -2.21911,2.27731 -2.14581,3.70164c0.08643,1.67955 0.98463,3.8071 1.7082,5.66828c-0.14155,0.26011 -0.14155,0.53171 -0.14155,0.53171c0,6.88889 0,13.77777 0,20.66666c0,0.83986 0,2.44151 0,3.65332c-1.26853,4.46575 -3.14758,8.8943 -5.10439,12.33485c-1.85864,3.26795 -4.45973,5.78281 -6.60862,8.75835zM159.32499,220.99224l2.30721,-2.30727c0.31028,-0.31028 0.70173,-0.53939 1.13978,-0.65272c1.03673,-1.90829 3.04273,-3.67527 4.70578,-5.44677c-0.90833,-2.11255 1.20422,-3.16882 1.20422,-3.16882l0.63789,0.04932c0.11431,-0.17003 0.23028,-0.33825 0.34769,-0.50488l0.16078,-0.499c0,0 0.38487,-1.15457 1.42312,-1.58405c1.79813,-2.23237 3.71772,-4.32418 5.18626,-6.88013c3.28118,-5.71081 6.06769,-14.20727 6.09458,-20.74564c0.56239,-1.53137 0.17251,-3.27337 -0.01355,-4.8941c-0.14845,-1.29318 0.16447,-2.61211 0.01355,-3.905c-0.27779,-2.37989 -1.70717,-5.38362 -2.33261,-7.70149c-0.28022,-1.0385 -0.92487,-2.02361 -0.89969,-3.09895c0.07757,-3.31211 1.36863,-3.35883 2.65424,-5.8984c0.33093,-0.65371 0.39849,-1.41328 0.67407,-2.09217c0.22717,-0.55965 1.24568,-2.00432 0.76037,-1.64475c-3.06895,2.27378 -5.98035,4.3654 -8.4553,7.22029c-0.58728,0.67744 -1.61247,0.97504 -2.02369,1.77174c-0.83856,1.62464 1.45169,4.5984 2.17045,5.65653c1.89773,2.9161 2.31424,2.90519 2.80112,6.68131c0.16244,1.25986 0.19083,2.55501 0,3.81089c-0.83614,5.50281 -5.50661,7.71816 -10.05213,9.89826c-0.16905,0.1065 -0.3364,0.18504 -0.50049,0.2404c-0.41333,0.19904 -0.82442,0.39879 -1.23024,0.6017c-2.29347,1.14674 -4.594,1.50943 -6.17177,3.86853c-0.93806,1.40259 -0.88753,3.25616 -1.30125,4.89203c-1.15253,4.5572 -1.47392,9.79014 2.96138,12.51349c0,0 2.08014,1.38673 0.69341,3.46687c-1.38672,2.08014 -3.46687,0.69341 -3.46687,0.69341c-8.25701,-5.79239 -7.7925,-20.78773 -0.19824,-27.21348c0.96566,-0.81708 2.1782,-1.54782 3.4421,-2.21747c-0.57887,-0.53695 -1.14392,-1.0851 -1.5838,-1.73486c-0.42865,-0.63317 -0.18752,-1.59576 -0.66013,-2.19684c-0.47856,-0.60864 -1.39803,-0.69503 -1.99823,-1.18413c-2.60095,-2.11954 -4.97232,-4.1622 -6.87118,-6.91187c-1.24379,-0.65178 -1.24379,-2.22146 -1.24379,-2.22146l0.1283,-0.80939c-0.55563,-1.72441 -1.93774,-3.12009 -2.42106,-4.86615c-0.40423,-1.4603 0.12322,-5.97505 -0.07498,-7.52401c-0.30463,-2.38063 -1.51198,-4.98725 -0.53646,-7.18009c0.48535,-1.09102 2.00049,-1.3354 2.83639,-2.18814c1.13999,-1.16296 3.74217,-4.61115 4.17508,-6.15669c0.45865,-1.63741 -0.0837,-3.40124 -0.0404,-5.10112c-0.50777,-1.03391 -2.47943,-4.45802 -4.31208,-4.01211c-0.43714,0.10636 0.35486,0.91715 0.19093,1.33611c-0.39065,0.99839 -1.17353,1.79457 -1.76562,2.68833c-1.2041,1.8176 -1.98616,3.89992 -3.25204,5.67505c-0.68672,0.96298 -1.72739,1.62313 -2.49472,2.52319c-1.03629,1.21556 -1.36296,2.88988 -2.08758,4.31341c-0.37702,0.74065 -1.22809,1.22602 -1.45304,2.02608c-0.6877,2.44585 0.96798,5.13568 1.60755,7.37658c1.38531,4.85384 1.69967,9.29974 1.69967,14.29896c0,0 0,1.50281 -1.16515,2.17811c-0.51431,0.71694 -1.34424,0.99358 -1.34424,0.99358c-0.62541,0.18498 -1.25082,0.36997 -1.87623,0.55495l-0.17565,0.18418c0.11001,0.19552 0.2125,0.39256 0.30705,0.59081c0.52428,1.09931 1.00353,2.28151 1.05427,3.49838c0.03091,0.74122 -0.83874,1.32649 -0.82217,2.06817c0.02922,1.30805 2.10197,1.56087 3.1071,2.39847c2.126,1.77167 6.97333,5.84207 7.29293,8.80154c0.15895,1.47181 -0.86074,2.83287 -1.2911,4.24931c-1.09614,0.77611 -2.09906,1.70438 -3.28842,2.32831c-6.80583,3.57031 -12.57072,-1.32077 -16.6317,-6.26082c-0.79663,-0.96908 -1.63161,-1.73325 -2.46717,-2.45669c0.10908,1.25333 0.00684,2.56849 -0.42777,4.06227l-0.68322,1.4075c1.10653,0.38576 2.12388,0.81751 2.82585,1.27531c2.01071,1.31132 3.3882,3.47592 5.44592,4.71217c2.05132,1.23241 5.84044,0.52702 8.04017,0.54674c1.17235,0.42698 2.5546,0.48697 3.51706,1.28094c2.61074,2.15369 3.63098,7.19531 2.25038,10.63504c0.98616,-0.37014 1.96928,-0.95175 2.96401,-0.72612c5.17697,1.17425 6.41709,6.61375 4.31391,10.77626c-0.33747,0.66791 -0.75414,1.29172 -1.23597,1.86089c2.65507,-1.15419 5.35173,-2.2292 7.71516,-4.01977zM126.60753,211.32479c3.96095,1.09898 7.95283,1.73162 12.21807,1.09483c3.16836,-0.47303 3.1202,-5.56655 0.17395,-6.29918c-3.21193,0.03704 -6.60091,0.58208 -9.55981,-1.05329c-2.20257,-1.21735 -3.68014,-3.46225 -5.75404,-4.88781c-1.23222,-0.847 -2.85789,-0.88156 -4.27623,-1.35493c-1.39977,-0.46717 -2.71548,-1.93964 -4.14212,-1.56242c-0.6256,0.16541 -0.75235,1.05309 -1.13395,1.57571c-2.27332,3.11344 0.15088,10.35108 4.39107,11.22227c0.3885,0.07982 0.78045,0.13865 1.17461,0.18391c0.33659,-0.5678 0.95709,-1.09116 2.10094,-1.09116c1.35456,0 1.97518,0.73394 2.25954,1.40648c0.52066,0.0599 1.03722,0.14356 1.5468,0.26815c0,0 0.50819,0.12705 1.00117,0.49744zM132.03224,175.82047c-0.46349,-0.4635 -0.68394,-0.927 -0.75692,-1.35863c-0.41542,-0.2491 -0.85945,-0.46198 -1.26209,-0.72899c-0.68283,-0.45282 -1.27529,-1.06239 -2.02459,-1.39384c-0.78235,-0.34607 -1.65145,-0.45736 -2.49408,-0.60501c-3.91519,-0.68604 -4.13978,3.35246 -3.51787,7.18598c0.69928,0.33972 1.10347,0.94601 1.10347,0.94601l1.59997,2.39998c1.72202,2.7 4.14387,3.70147 6.25325,6.20177c3.54519,4.2022 6.71412,7.16171 12.07988,4.06749c0.3024,-0.53913 -0.31438,-1.25559 -0.74658,-1.69753c-1.46725,-1.50034 -2.83953,-3.10819 -4.45166,-4.45164c-0.80115,-0.66762 -1.8967,-0.98017 -2.58276,-1.76558c-0.98194,-1.12415 -1.97103,-2.38235 -2.31015,-3.83594c-0.21511,-0.92205 0.72353,-1.78657 0.77793,-2.73182c0.01578,-0.27418 -0.32958,-0.94422 -0.71102,-1.58553c-0.31177,-0.11936 -0.63428,-0.3242 -0.95679,-0.64671zM138.62832,218.04327c-0.06825,-0.20473 -0.11293,-0.39768 -0.1376,-0.57936c-0.75959,-0.00916 -1.53484,-0.11842 -2.29067,-0.11117c-0.85378,0.00818 -7.37702,-0.00344 -7.60046,-0.03228c-2.02121,-0.26093 -4.29969,-1.26889 -6.35391,-2.0505c-0.44415,-0.05991 -0.87899,-0.10708 -1.30649,-0.15103c0.05918,0.14294 0.11245,0.28877 0.15898,0.43786c0.32758,1.04956 -0.77165,2.10087 -0.79999,3.2c-0.01261,0.48928 1.45675,4.97518 1.8815,5.09177c1.03876,0.28515 2.14849,-0.36588 3.22082,-0.26353c0.83944,0.08012 1.56818,0.66134 2.39996,0.79999c2.81308,0.46893 4.53711,-1.21334 7.19906,-1.60003c0.29879,-0.04341 6.90219,-0.04269 7.20099,0c1.78446,0.25493 3.48785,1.03932 5.28206,-0.31905c1.68086,-1.27255 2.35504,-6.20481 -0.89199,-4.4415c-0.8,0.26666 -1.60001,0.53332 -2.40001,0.79998l-2.39996,0.79999c0,0 -2.37171,0.79057 -3.16228,-1.58114zM138.21101,229.18674l-0.00133,0.00802c0.01368,-0.00037 0.02736,-0.00073 0.04104,-0.00107c1.95602,-0.04863 4.04152,1.82231 5.7926,0.94933c0.66829,-0.33317 0.98136,-1.11506 1.46149,-1.70098c-0.42911,0.06611 -0.8649,0.10367 -1.30476,0.11071c-0.97374,0.0156 -1.83643,-0.6946 -2.80051,-0.83234c-1.84759,-0.26396 -3.75066,-0.25817 -5.59907,0c-0.75273,0.10513 -1.46226,0.39565 -2.16768,0.7033z" fill="#000000"></path>
      <path d="M133.58299,228.41929c0.70542,-0.30765 1.41722,-0.60926 2.16995,-0.71439c1.84841,-0.25817 3.84052,-0.27633 5.68811,-0.01237c0.96408,0.13774 1.83508,0.87155 2.80882,0.85595c0.43986,-0.00704 0.87565,-0.04459 1.30477,-0.1107c-0.48013,0.58592 -0.79471,1.38495 -1.463,1.71812c-1.75108,0.87298 -3.93406,-1.00176 -5.89008,-0.95312c-0.01368,0.00034 -0.0274,0.00047 -0.04108,0.00084l0.00128,-0.00829z" fill="#ffac33"></path>
      <path d="M138.67421,218.02339c0.79057,2.37171 3.06641,1.60219 3.06641,1.60219l2.4002,-0.79614c0.8,-0.26666 1.69923,-0.54563 2.49922,-0.81229c3.24703,-1.76331 2.57234,3.1864 0.89148,4.45895c-1.79421,1.35837 -3.50003,0.58212 -5.28448,0.32719c-0.2988,-0.04269 -6.94198,-0.01216 -7.24077,0.03125c-2.66195,0.38669 -4.43416,2.04743 -7.24724,1.5785c-0.83178,-0.13865 -1.56532,-0.72881 -2.40476,-0.80893c-1.07233,-0.10235 -2.18337,0.54514 -3.22213,0.25999c-0.42475,-0.11659 -1.89645,-4.62163 -1.88384,-5.11092c0.02834,-1.09913 1.12974,-2.1618 0.80216,-3.21136c-0.04653,-0.14909 -0.0994,-0.29614 -0.15858,-0.43908c0.4275,0.04395 0.8627,0.09011 1.30685,0.15002c2.05422,0.78161 4.33343,1.7877 6.35464,2.04863c0.22344,0.02884 6.82042,0.01779 7.6742,0.0096c0.75583,-0.00725 1.54648,0.11811 2.30607,0.12727c0.02467,0.18168 0.07231,0.38038 0.14055,0.58512z" fill="#ffac33"></path>
      <path d="M125.59305,210.87555c-0.50958,-0.12459 -1.03741,-0.21291 -1.55806,-0.27281c-0.28436,-0.67254 -0.91991,-1.41937 -2.27447,-1.41937c-1.14385,0 -1.76572,0.5215 -2.10231,1.0893c-0.39416,-0.04526 -0.78833,-0.10753 -1.17683,-0.18735c-4.24019,-0.87119 -6.66662,-8.15529 -4.3933,-11.26873c0.3816,-0.52262 0.51159,-1.41619 1.13719,-1.5816c1.42664,-0.37722 2.74504,1.09146 4.14481,1.55863c1.41834,0.47337 3.05352,0.49863 4.28574,1.34563c2.0739,1.42556 3.63127,3.71348 5.83384,4.93083c2.9589,1.63537 6.34772,1.09239 9.55965,1.05535c2.94625,0.73263 2.98667,5.84826 -0.18169,6.32129c-4.26524,0.63679 -8.30401,0.0268 -12.26496,-1.07218c-0.49298,-0.37039 -1.0096,-0.49901 -1.0096,-0.49901z" fill="#ffac33"></path>
      <path d="M132.02956,175.77056c0.32251,0.32251 0.65234,0.5275 0.96411,0.64686c0.38144,0.64131 0.73549,1.31294 0.71971,1.58712c-0.0544,0.94525 -0.99354,1.80963 -0.77843,2.73168c0.33912,1.45359 1.35699,2.78782 2.33893,3.91197c0.68606,0.78541 1.78144,1.09821 2.58259,1.76583c1.61213,1.34345 2.98159,2.95508 4.44884,4.45542c0.4322,0.44194 1.04708,1.16059 0.74468,1.69972c-5.36576,3.09422 -8.58384,0.14922 -12.12904,-4.05298c-2.10938,-2.5003 -4.56871,-3.55325 -6.29073,-6.25325l-1.59785,-2.41165c0,0 -0.40336,-0.60877 -1.10264,-0.94849c-0.62191,-3.83352 -0.37695,-7.89717 3.53824,-7.21113c0.84263,0.14765 1.71878,0.25526 2.50113,0.60133c0.7493,0.33145 1.34848,0.93872 2.03131,1.39154c0.40264,0.26701 0.85274,0.47868 1.26817,0.72778c0.07298,0.43163 0.29751,0.89474 0.76099,1.35824z" fill="#ffac33"></path>
      <path d="M159.33161,221.04186c-2.36343,1.79057 -5.0687,2.86598 -7.72377,4.02017c0.48183,-0.56917 0.90121,-1.29293 1.23868,-1.96085c2.10318,-4.16251 0.8553,-9.50251 -4.32166,-10.67676c-0.99473,-0.22563 -1.98166,0.35529 -2.96782,0.72543c1.3806,-3.43973 0.35239,-8.48383 -2.25835,-10.63753c-0.96246,-0.79397 -2.35085,-0.85695 -3.5232,-1.28393c-2.19973,-0.01972 -5.99805,0.67885 -8.04937,-0.55356c-2.05772,-1.23625 -3.44237,-3.4092 -5.45308,-4.72052c-0.70197,-0.4578 -1.72135,-0.89279 -2.82788,-1.27855l0.68258,-1.40866c0.43461,-1.49378 0.53454,-2.81382 0.42546,-4.06715c0.83556,0.72344 1.76085,1.44501 2.55748,2.41409c4.06098,4.94005 9.80342,9.80974 16.60925,6.23943c1.18936,-0.62393 2.18758,-1.55416 3.28372,-2.33027c0.43036,-1.41644 1.41562,-2.68362 1.25666,-4.15543c-0.3196,-2.95947 -5.19564,-7.05774 -7.32164,-8.82941c-1.00513,-0.8376 -3.08086,-1.10077 -3.11008,-2.40882c-0.01657,-0.74168 0.85238,-1.33333 0.82147,-2.07455c-0.05074,-1.21687 -0.52926,-2.41011 -1.05353,-3.50942c-0.09455,-0.19825 -0.19674,-0.39686 -0.30675,-0.59238l0.1758,-0.18483c0.62541,-0.18498 1.25163,-0.37311 1.87704,-0.55809c0,0 0.83153,-0.28122 1.34584,-0.99815c1.16515,-0.6753 1.16925,-2.1861 1.16925,-2.1861c0,-4.99922 -0.29829,-9.46099 -1.6836,-14.31483c-0.63957,-2.2409 -2.29191,-4.9326 -1.60421,-7.37846c0.22495,-0.80006 1.07898,-1.28683 1.456,-2.02748c0.72462,-1.42353 1.05587,-3.09957 2.09216,-4.31513c0.76733,-0.90006 1.8119,-1.56129 2.49862,-2.52427c1.26588,-1.77513 2.05294,-3.85836 3.25704,-5.67596c0.59209,-0.89376 1.37722,-1.69018 1.76787,-2.68857c0.16393,-0.41896 -0.62815,-1.22975 -0.19101,-1.33611c1.83265,-0.44591 3.80885,2.97802 4.31662,4.01193c-0.0433,1.69988 0.49835,3.56371 0.0397,5.20112c-0.43291,1.54554 -3.02874,4.99337 -4.16873,6.15633c-0.8359,0.85274 -2.34612,1.09628 -2.83147,2.1873c-0.97552,2.19284 0.23395,4.79894 0.53858,7.17957c0.1982,1.54896 -0.32385,6.06193 0.08038,7.52223c0.48332,1.74606 1.8306,3.04802 2.38623,4.77243l-0.09367,0.90318c0,0 -0.0343,1.47577 1.20949,2.12756c1.89886,2.74967 4.33586,4.83268 6.93681,6.95222c0.6002,0.4891 1.51995,0.58701 1.99851,1.19565c0.47261,0.60108 0.22815,1.57761 0.6568,2.21078c0.43988,0.64976 1.0027,1.20274 1.58157,1.73969c-1.2639,0.66965 -2.49042,1.41688 -3.45608,2.23396c-7.59426,6.42575 -8.09675,21.33188 0.16026,27.12427c0,0 2.07512,1.38779 3.46184,-0.69235c1.38673,-2.08014 -0.66755,-3.37027 -0.66755,-3.37027c-4.4353,-2.72335 -4.14123,-8.05248 -2.9887,-12.60968c0.41372,-1.63587 0.35437,-3.48588 1.29243,-4.88847c1.57777,-2.3591 3.8599,-2.7054 6.15337,-3.85214c0.40582,-0.20291 0.81494,-0.3995 1.22827,-0.59853c0.16409,-0.05536 0.33076,-0.13267 0.49981,-0.23917c4.54552,-2.1801 9.21028,-4.3673 10.04642,-9.87011c0.19083,-1.25588 0.16371,-2.54355 0.00127,-3.80342c-0.48688,-3.77612 -0.89793,-3.75184 -2.79566,-6.66794c-0.71876,-1.05813 -3.00224,-4.02291 -2.16368,-5.64755c0.41122,-0.7967 1.50913,-1.16295 2.09641,-1.84038c2.47495,-2.85489 5.38679,-4.94603 8.45574,-7.21981c0.48531,-0.35957 -0.53259,1.08577 -0.75976,1.64542c-0.27558,0.67889 -0.34215,1.43962 -0.67308,2.09332c-1.28561,2.53957 -2.57393,2.58991 -2.6515,5.90202c-0.02518,1.07534 0.62211,2.06474 0.90233,3.10324c0.62544,2.31787 2.05961,5.33402 2.3374,7.71391c0.15092,1.29289 -0.1609,2.61824 -0.01245,3.91142c0.18606,1.62073 0.57611,3.37113 0.01372,4.9025c-0.02689,6.53837 -2.82769,15.06673 -6.10887,20.77755c-1.46854,2.55595 -3.39795,4.6555 -5.19608,6.88787c-1.03825,0.42948 -1.42565,1.58548 -1.42565,1.58548l-0.16125,0.49924c-0.11741,0.16663 -0.23406,0.33519 -0.34837,0.50522l-0.63859,-0.04898c0,0 -2.11551,1.05756 -1.20718,3.17011c-1.66305,1.7715 -3.67639,3.54076 -4.71312,5.44905c-0.43805,0.11333 -0.83096,0.34275 -1.14124,0.65303l-2.31025,2.30777z" fill="#ffac33"></path>
      <path d="M311.1629,214.00062c-2.14889,-2.97554 -4.74998,-5.4904 -6.60862,-8.75835c-1.95681,-3.44055 -3.83586,-7.8691 -5.10439,-12.33485c0,-1.21181 0,-2.81346 0,-3.65332c0,-6.88889 0,-13.77777 0,-20.66666c0,0 0,-0.2716 -0.14155,-0.53171c0.72357,-1.86118 1.62177,-3.98873 1.7082,-5.66828c0.0733,-1.42433 -1.51359,-2.42322 -2.14581,-3.70164c-0.32749,-0.66224 -1.94733,-5.84171 -1.83207,-6.2302c0.52209,-1.75964 1.60142,-3.66055 3.2665,-4.43284c2.11216,-0.97965 5.45137,1.66143 6.99817,2.68455c2.9412,1.94545 4.75301,3.38528 6.94656,6.09516c0.86161,1.06443 2.28227,1.75104 2.77636,3.02825c1.46426,3.78514 -0.69195,7.39332 -2.6296,10.34347c-1.45796,2.1178 -3.442,6.57885 -1.63655,9.17314c1.01973,1.46528 3.94432,2.2179 5.71146,2.94956l0.0772,-0.07721c0.68038,-0.64886 1.5259,-1.16016 2.04116,-1.94658c0.5056,-0.77166 0.35916,-1.8863 0.93985,-2.60316c2.47791,-3.05895 6.53896,-4.47036 8.70662,-7.86925c0,0 0.15455,-0.23183 0.43786,-0.48911l0.07057,-1.31476c0.57143,-1.67099 1.87316,-3.04182 2.37899,-4.73382c0.65653,-2.1961 -0.35344,-4.60085 -0.07499,-6.87601c0.16838,-1.37581 1.8156,-2.85562 1.06352,-4.01992c-0.39951,-0.6185 -1.43728,-0.49689 -1.96354,-1.01187c-1.496,-1.46395 -4.85233,-6.26243 -5.42501,-8.24328c-0.22,-0.76097 -0.05514,-6.86737 -0.0404,-7.69886c2.13756,-4.23769 5.53224,-9.3504 11.68792,-7.1879c1.22637,0.43083 1.14016,2.33874 1.79103,3.46389c0.42608,0.73655 0.96015,1.40511 1.43433,2.11165c1.18119,1.76 1.91449,3.80123 3.14799,5.52497c0.62851,0.8783 1.62198,1.44036 2.30521,2.27679c1.25297,1.53392 1.83772,3.50964 2.71246,5.28663c0.4826,0.98037 1.50133,1.70915 1.74692,2.77391c0.94198,4.08391 -0.55361,6.59182 -1.5924,10.2234c-1.14364,3.99814 -1.44715,7.62927 -1.4935,11.65683c0.66917,0.2392 1.33834,0.4784 2.00751,0.7176l0.74529,0.72057c4.83592,-3.99537 12.50719,-5.63389 16.11587,0.17429c2.20812,3.55397 1.45565,8.52272 0.30518,12.66798c-0.03473,0.33162 -0.10895,0.5543 -0.10895,0.5543c-0.08582,0.25747 -0.18044,0.51626 -0.28031,0.77609c-0.17334,0.56557 -0.3491,1.10908 -0.51968,1.62393c0,0 -0.1343,0.40289 -0.45825,0.82122c-0.6043,1.61815 -0.99171,3.24028 -0.34174,4.79765l0.66435,1.27255c0,0 0.06607,0.13214 0.13396,0.34824c0.04436,-0.01038 0.08804,-0.02056 0.13101,-0.03053c1.50581,-0.34938 3.08305,-1.24419 4.56633,-0.809c1.56157,0.45815 2.5889,2.00437 3.66598,3.22433c4.67093,5.29051 1.30112,13.20061 -3.54834,17.11834c-0.4112,0.3322 -0.81811,0.61156 -1.22273,0.84775l0.40944,1.22834c0,0 0.59701,1.79106 -0.80304,2.77909c0.56539,2.55632 -1.22491,7.06019 -3.01437,9.34563c-0.05985,1.2075 -1.16756,1.94597 -1.16756,1.94597c-0.16184,0.10577 -0.32409,0.20846 -0.48676,0.30822c0.00002,0.00387 0.00003,0.00775 0.00003,0.01162c0,1.38071 -1.11929,2.5 -2.5,2.5c-0.59986,0 -1.15036,-0.21126 -1.58118,-0.56343c-2.36382,0.86876 -4.82349,1.42313 -7.40445,2.0868l-0.00891,-0.00132l0.00084,0.00335l-3.14556,0.78639c-0.21047,0.05753 -0.43202,0.08824 -0.66073,0.08824c-0.34964,0 -0.68252,-0.07177 -0.9847,-0.2014l-0.96544,0.16091c-1.38963,0.78928 -7.15451,1.21839 -8.6066,0.65018c-1.22721,-0.48022 -1.83267,-1.9156 -2.90503,-2.68157c-1.53881,-1.09915 -3.54427,-1.33853 -5.23663,-2.18233c-2.92946,-1.4606 -5.5517,-2.9772 -8.21179,-4.91617c-0.07256,-0.04474 -0.14266,-0.09308 -0.21005,-0.14477l-3.17981,-2.38487l0.02981,-0.03974c-0.08465,-0.04765 -0.16857,-0.09688 -0.25171,-0.14779c-2.60552,-1.59554 -5.97487,-6.86785 -7.72383,-9.51407zM325.99159,223.72702c2.36343,1.79057 5.06009,2.86558 7.71516,4.01977c-0.48183,-0.56917 -0.8985,-1.19298 -1.23597,-1.86089c-2.10318,-4.16251 -0.86306,-9.60201 4.31391,-10.77626c0.99473,-0.22563 1.97785,0.35598 2.96401,0.72612c-1.3806,-3.43973 -0.36036,-8.48135 2.25038,-10.63504c0.96246,-0.79397 2.34471,-0.85396 3.51706,-1.28094c2.19973,-0.01972 5.98885,0.68567 8.04017,-0.54674c2.05772,-1.23625 3.43521,-3.40085 5.44592,-4.71217c0.70197,-0.4578 1.71932,-0.88955 2.82585,-1.27531l-0.68322,-1.4075c-0.43461,-1.49378 -0.53685,-2.80894 -0.42777,-4.06227c-0.83556,0.72344 -1.67054,1.48761 -2.46717,2.45669c-4.06098,4.94005 -9.82587,9.83113 -16.6317,6.26082c-1.18936,-0.62393 -2.19228,-1.5522 -3.28842,-2.32831c-0.43036,-1.41644 -1.45005,-2.7775 -1.2911,-4.24931c0.3196,-2.95947 5.16693,-7.02987 7.29293,-8.80154c1.00513,-0.8376 3.07788,-1.09042 3.1071,-2.39847c0.01657,-0.74168 -0.85308,-1.32695 -0.82217,-2.06817c0.05074,-1.21687 0.52999,-2.39907 1.05427,-3.49838c0.09455,-0.19825 0.19704,-0.39529 0.30705,-0.59081l-0.17565,-0.18418c-0.62541,-0.18498 -1.25082,-0.36997 -1.87623,-0.55495c0,0 -0.82993,-0.27664 -1.34424,-0.99358c-1.16515,-0.6753 -1.16515,-2.17811 -1.16515,-2.17811c0,-4.99922 0.31436,-9.44512 1.69967,-14.29896c0.63957,-2.2409 2.29525,-4.93073 1.60755,-7.37658c-0.22495,-0.80006 -1.07602,-1.28543 -1.45304,-2.02608c-0.72462,-1.42353 -1.05129,-3.09785 -2.08758,-4.31341c-0.76733,-0.90006 -1.808,-1.56021 -2.49472,-2.52319c-1.26588,-1.77513 -2.04794,-3.85745 -3.25204,-5.67505c-0.59209,-0.89376 -1.37497,-1.68994 -1.76562,-2.68833c-0.16393,-0.41896 0.62807,-1.22975 0.19093,-1.33611c-1.83265,-0.44591 -3.80431,2.9782 -4.31208,4.01211c0.0433,1.69988 -0.49905,3.46371 -0.0404,5.10112c0.43291,1.54554 3.03509,4.99373 4.17508,6.15669c0.8359,0.85274 2.35104,1.09712 2.83639,2.18814c0.97552,2.19284 -0.23183,4.79946 -0.53646,7.18009c-0.1982,1.54896 0.32925,6.06371 -0.07498,7.52401c-0.48332,1.74606 -1.86543,3.14174 -2.42106,4.86615l0.1283,0.80939c0,0 0,1.56968 -1.24379,2.22146c-1.89886,2.74967 -4.27023,4.79233 -6.87118,6.91187c-0.6002,0.4891 -1.51967,0.57549 -1.99823,1.18413c-0.47261,0.60108 -0.23148,1.56367 -0.66013,2.19684c-0.43988,0.64976 -1.00493,1.19791 -1.5838,1.73486c1.2639,0.66965 2.47644,1.40039 3.4421,2.21747c7.59426,6.42575 8.05877,21.42109 -0.19824,27.21348c0,0 -2.08015,1.38673 -3.46687,-0.69341c-1.38673,-2.08014 0.69341,-3.46687 0.69341,-3.46687c4.4353,-2.72335 4.11391,-7.95629 2.96138,-12.51349c-0.41372,-1.63587 -0.36319,-3.48944 -1.30125,-4.89203c-1.57777,-2.3591 -3.8783,-2.72179 -6.17177,-3.86853c-0.40582,-0.20291 -0.81691,-0.40266 -1.23024,-0.6017c-0.16409,-0.05536 -0.33144,-0.1339 -0.50049,-0.2404c-4.54552,-2.1801 -9.21599,-4.39545 -10.05213,-9.89826c-0.19083,-1.25588 -0.16244,-2.55103 0,-3.81089c0.48688,-3.77612 0.90339,-3.76521 2.80112,-6.68131c0.71876,-1.05813 3.00901,-4.03189 2.17045,-5.65653c-0.41122,-0.7967 -1.43641,-1.0943 -2.02369,-1.77174c-2.47495,-2.85489 -5.38635,-4.94651 -8.4553,-7.22029c-0.48531,-0.35957 0.5332,1.0851 0.76037,1.64475c0.27558,0.67889 0.34314,1.43846 0.67407,2.09217c1.28561,2.53957 2.57667,2.58629 2.65424,5.8984c0.02518,1.07534 -0.61947,2.06045 -0.89969,3.09895c-0.62544,2.31787 -2.05482,5.3216 -2.33261,7.70149c-0.15092,1.29289 0.162,2.61182 0.01355,3.905c-0.18606,1.62073 -0.57594,3.36273 -0.01355,4.8941c0.02689,6.53837 2.8134,15.03483 6.09458,20.74564c1.46854,2.55595 3.38813,4.64776 5.18626,6.88013c1.03825,0.42948 1.42312,1.58405 1.42312,1.58405l0.16078,0.499c0.11741,0.16663 0.23338,0.33485 0.34769,0.50488l0.63789,-0.04932c0,0 2.11255,1.05627 1.20422,3.16882c1.66305,1.7715 3.66905,3.53848 4.70578,5.44677c0.43805,0.11333 0.8295,0.34244 1.13978,0.65272l2.30721,2.30727zM359.71022,213.56207c0.50958,-0.12459 1.02614,-0.20825 1.5468,-0.26815c0.28436,-0.67254 0.90498,-1.40648 2.25954,-1.40648c1.14385,0 1.76435,0.52336 2.10094,1.09116c0.39416,-0.04526 0.78611,-0.10409 1.17461,-0.18391c4.24019,-0.87119 6.66439,-8.10883 4.39107,-11.22227c-0.3816,-0.52262 -0.50835,-1.4103 -1.13395,-1.57571c-1.42664,-0.37722 -2.74235,1.09525 -4.14212,1.56242c-1.41834,0.47337 -3.04401,0.50793 -4.27623,1.35493c-2.0739,1.42556 -3.55147,3.67046 -5.75404,4.88781c-2.9589,1.63537 -6.34788,1.09033 -9.55981,1.05329c-2.94625,0.73263 -2.99441,5.82615 0.17395,6.29918c4.26524,0.63679 8.25712,0.00415 12.21807,-1.09483c0.49298,-0.37039 1.00117,-0.49744 1.00117,-0.49744zM353.28435,178.5552c-0.32251,0.32251 -0.64502,0.52735 -0.95679,0.64671c-0.38144,0.64131 -0.7268,1.31135 -0.71102,1.58553c0.0544,0.94525 0.99304,1.80977 0.77793,2.73182c-0.33912,1.45359 -1.32821,2.71179 -2.31015,3.83594c-0.68606,0.78541 -1.78161,1.09796 -2.58276,1.76558c-1.61213,1.34345 -2.98441,2.9513 -4.45166,4.45164c-0.4322,0.44194 -1.04898,1.1584 -0.74658,1.69753c5.36576,3.09422 8.53469,0.13471 12.07988,-4.06749c2.10938,-2.5003 4.53123,-3.50177 6.25325,-6.20177l1.59997,-2.39998c0,0 0.40419,-0.60629 1.10347,-0.94601c0.62191,-3.83352 0.39732,-7.87202 -3.51787,-7.18598c-0.84263,0.14765 -1.71173,0.25894 -2.49408,0.60501c-0.7493,0.33145 -1.34176,0.94102 -2.02459,1.39384c-0.40264,0.26701 -0.84667,0.47989 -1.26209,0.72899c-0.07298,0.43163 -0.29343,0.89513 -0.75692,1.35863zM346.68825,220.77799c-0.79057,2.37171 -3.16228,1.58114 -3.16228,1.58114l-2.39996,-0.79999c-0.8,-0.26666 -1.60001,-0.53332 -2.40001,-0.79998c-3.24703,-1.76331 -2.57285,3.16895 -0.89199,4.4415c1.79421,1.35837 3.4976,0.57398 5.28206,0.31905c0.2988,-0.04269 6.9022,-0.04341 7.20099,0c2.66195,0.38669 4.38598,2.06896 7.19906,1.60003c0.83178,-0.13865 1.56052,-0.71987 2.39996,-0.79999c1.07233,-0.10235 2.18206,0.54868 3.22082,0.26353c0.42475,-0.11659 1.89411,-4.60249 1.8815,-5.09177c-0.02834,-1.09913 -1.12757,-2.15044 -0.79999,-3.2c0.04653,-0.14909 0.0998,-0.29492 0.15898,-0.43786c-0.4275,0.04395 -0.86234,0.09112 -1.30649,0.15103c-2.05422,0.78161 -4.3327,1.78957 -6.35391,2.0505c-0.22344,0.02884 -6.74668,0.04046 -7.60046,0.03228c-0.75583,-0.00725 -1.53108,0.10201 -2.29067,0.11117c-0.02467,0.18168 -0.06935,0.37463 -0.1376,0.57936zM351.68379,231.15843c-0.70542,-0.30765 -1.41495,-0.59817 -2.16768,-0.7033c-1.84841,-0.25817 -3.75148,-0.26396 -5.59907,0c-0.96408,0.13774 -1.82677,0.84794 -2.80051,0.83234c-0.43986,-0.00704 -0.87565,-0.0446 -1.30476,-0.11071c0.48013,0.58592 0.7932,1.36781 1.46149,1.70098c1.75108,0.87298 3.83658,-0.99796 5.7926,-0.94933c0.01368,0.00034 0.02736,0.0007 0.04104,0.00107l-0.00133,-0.00802z" fill="#000000"></path>
      <path d="M347.15482,231.93005l0.00128,0.00829c-0.01368,-0.00037 -0.0274,-0.0005 -0.04108,-0.00084c-1.95602,-0.04864 -4.139,1.8261 -5.89008,0.95312c-0.66829,-0.33317 -0.98287,-1.1322 -1.463,-1.71812c0.42912,0.06611 0.86491,0.10366 1.30477,0.1107c0.97374,0.0156 1.84474,-0.71821 2.80882,-0.85595c1.84759,-0.26396 3.8397,-0.2458 5.68811,0.01237c0.75273,0.10513 1.46453,0.40674 2.16995,0.71439z" fill="#ffac33"></path>
      <path d="M346.64239,220.7581c0.06824,-0.20474 0.11588,-0.40344 0.14055,-0.58512c0.75959,-0.00916 1.55024,-0.13452 2.30607,-0.12727c0.85378,0.00819 7.45076,0.01924 7.6742,-0.0096c2.02121,-0.26093 4.30042,-1.26702 6.35464,-2.04863c0.44415,-0.05991 0.87935,-0.10607 1.30685,-0.15002c-0.05918,0.14294 -0.11205,0.28999 -0.15858,0.43908c-0.32758,1.04956 0.77382,2.11223 0.80216,3.21136c0.01261,0.48929 -1.45909,4.99433 -1.88384,5.11092c-1.03876,0.28515 -2.1498,-0.36234 -3.22213,-0.25999c-0.83944,0.08012 -1.57298,0.67028 -2.40476,0.80893c-2.81308,0.46893 -4.58529,-1.19181 -7.24724,-1.5785c-0.29879,-0.04341 -6.94197,-0.07394 -7.24077,-0.03125c-1.78445,0.25493 -3.49027,1.03118 -5.28448,-0.32719c-1.68086,-1.27255 -2.35555,-6.22226 0.89148,-4.45895c0.79999,0.26666 1.69922,0.54563 2.49922,0.81229l2.4002,0.79614c0,0 2.27584,0.76952 3.06641,-1.60219z" fill="#ffac33"></path>
      <path d="M359.72352,213.61025c0,0 -0.51662,0.12862 -1.0096,0.49901c-3.96095,1.09898 -7.99972,1.70897 -12.26496,1.07218c-3.16836,-0.47303 -3.12794,-5.58866 -0.18169,-6.32129c3.21193,0.03704 6.60075,0.58002 9.55965,-1.05535c2.20257,-1.21735 3.75994,-3.50527 5.83384,-4.93083c1.23222,-0.847 2.8674,-0.87226 4.28574,-1.34563c1.39977,-0.46717 2.71817,-1.93585 4.14481,-1.55863c0.6256,0.16541 0.75559,1.05898 1.13719,1.5816c2.27332,3.11344 -0.15311,10.39754 -4.3933,11.26873c-0.3885,0.07982 -0.78267,0.14209 -1.17683,0.18735c-0.33659,-0.5678 -0.95846,-1.0893 -2.10231,-1.0893c-1.35456,0 -1.99011,0.74683 -2.27447,1.41937c-0.52065,0.0599 -1.04848,0.14822 -1.55806,0.27281z" fill="#ffac33"></path>
      <path d="M353.28701,178.50527c0.46348,-0.4635 0.68801,-0.92661 0.76099,-1.35824c0.41543,-0.2491 0.86553,-0.46077 1.26817,-0.72778c0.68283,-0.45282 1.28201,-1.06009 2.03131,-1.39154c0.78235,-0.34607 1.6585,-0.45368 2.50113,-0.60133c3.91519,-0.68604 4.16015,3.37761 3.53824,7.21113c-0.69928,0.33972 -1.10264,0.94849 -1.10264,0.94849l-1.59785,2.41165c-1.72202,2.7 -4.18135,3.75295 -6.29073,6.25325c-3.5452,4.2022 -6.76328,7.1472 -12.12904,4.05298c-0.3024,-0.53913 0.31248,-1.25778 0.74468,-1.69972c1.46725,-1.50034 2.83671,-3.11197 4.44884,-4.45542c0.80115,-0.66762 1.89653,-0.98042 2.58259,-1.76583c0.98194,-1.12415 1.99981,-2.45838 2.33893,-3.91197c0.21511,-0.92205 -0.72403,-1.78643 -0.77843,-2.73168c-0.01578,-0.27418 0.33827,-0.94581 0.71971,-1.58712c0.31177,-0.11936 0.6416,-0.32435 0.96411,-0.64686z" fill="#ffac33"></path>
      <path d="M325.98497,223.7765l-2.31025,-2.30777c-0.31028,-0.31028 -0.70319,-0.5397 -1.14124,-0.65303c-1.03673,-1.90829 -3.05007,-3.67755 -4.71312,-5.44905c0.90833,-2.11255 -1.20718,-3.17011 -1.20718,-3.17011l-0.63859,0.04898c-0.11431,-0.17003 -0.23096,-0.33859 -0.34837,-0.50522l-0.16125,-0.49924c0,0 -0.3874,-1.156 -1.42565,-1.58548c-1.79813,-2.23237 -3.72754,-4.33192 -5.19608,-6.88787c-3.28118,-5.71082 -6.08198,-14.23918 -6.10887,-20.77755c-0.56239,-1.53137 -0.17234,-3.28177 0.01372,-4.9025c0.14845,-1.29318 -0.16337,-2.61853 -0.01245,-3.91142c0.27779,-2.37989 1.71196,-5.39604 2.3374,-7.71391c0.28022,-1.0385 0.92751,-2.0279 0.90233,-3.10324c-0.07757,-3.31211 -1.36589,-3.36245 -2.6515,-5.90202c-0.33093,-0.6537 -0.3975,-1.41443 -0.67308,-2.09332c-0.22717,-0.55965 -1.24507,-2.00499 -0.75976,-1.64542c3.06895,2.27378 5.98079,4.36492 8.45574,7.21981c0.58728,0.67743 1.68519,1.04368 2.09641,1.84038c0.83856,1.62464 -1.44492,4.58942 -2.16368,5.64755c-1.89773,2.9161 -2.30878,2.89182 -2.79566,6.66794c-0.16244,1.25987 -0.18956,2.54754 0.00127,3.80342c0.83614,5.50281 5.5009,7.69001 10.04642,9.87011c0.16905,0.1065 0.33572,0.18381 0.49981,0.23917c0.41333,0.19903 0.82245,0.39562 1.22827,0.59853c2.29347,1.14674 4.5756,1.49304 6.15337,3.85214c0.93806,1.40259 0.87871,3.2526 1.29243,4.88847c1.15253,4.5572 1.4466,9.88633 -2.9887,12.60968c0,0 -2.05428,1.29013 -0.66755,3.37027c1.38672,2.08014 3.46184,0.69235 3.46184,0.69235c8.25701,-5.79239 7.75452,-20.69852 0.16026,-27.12427c-0.96566,-0.81708 -2.19218,-1.56431 -3.45608,-2.23396c0.57887,-0.53695 1.14169,-1.08993 1.58157,-1.73969c0.42865,-0.63317 0.18419,-1.6097 0.6568,-2.21078c0.47856,-0.60864 1.39831,-0.70655 1.99851,-1.19565c2.60095,-2.11954 5.03795,-4.20255 6.93681,-6.95222c1.24379,-0.65179 1.20949,-2.12756 1.20949,-2.12756l-0.09367,-0.90318c0.55563,-1.72441 1.90291,-3.02637 2.38623,-4.77243c0.40423,-1.4603 -0.11782,-5.97327 0.08038,-7.52223c0.30463,-2.38063 1.5141,-4.98673 0.53858,-7.17957c-0.48535,-1.09102 -1.99557,-1.33456 -2.83147,-2.1873c-1.13999,-1.16296 -3.73582,-4.61079 -4.16873,-6.15633c-0.45865,-1.63741 0.083,-3.50124 0.0397,-5.20112c0.50777,-1.03391 2.48397,-4.45784 4.31662,-4.01193c0.43714,0.10636 -0.35494,0.91715 -0.19101,1.33611c0.39065,0.99839 1.17578,1.79481 1.76787,2.68857c1.2041,1.8176 1.99116,3.90083 3.25704,5.67596c0.68672,0.96298 1.73129,1.62421 2.49862,2.52427c1.03629,1.21556 1.36754,2.8916 2.09216,4.31513c0.37702,0.74065 1.23105,1.22742 1.456,2.02748c0.6877,2.44586 -0.96464,5.13756 -1.60421,7.37846c-1.38531,4.85384 -1.6836,9.31561 -1.6836,14.31483c0,0 0.0041,1.5108 1.16925,2.1861c0.51431,0.71693 1.34584,0.99815 1.34584,0.99815c0.62541,0.18498 1.25163,0.37311 1.87704,0.55809l0.1758,0.18483c-0.11001,0.19552 -0.2122,0.39413 -0.30675,0.59238c-0.52427,1.09931 -1.00279,2.29255 -1.05353,3.50942c-0.03091,0.74122 0.83804,1.33287 0.82147,2.07455c-0.02922,1.30805 -2.10495,1.57122 -3.11008,2.40882c-2.126,1.77167 -7.00204,5.86994 -7.32164,8.82941c-0.15896,1.47181 0.8263,2.73899 1.25666,4.15543c1.09614,0.77611 2.09436,1.70634 3.28372,2.33027c6.80583,3.57031 12.54827,-1.29938 16.60925,-6.23943c0.79663,-0.96908 1.72192,-1.69065 2.55748,-2.41409c-0.10908,1.25333 -0.00915,2.57337 0.42546,4.06715l0.68258,1.40866c-1.10653,0.38576 -2.12591,0.82075 -2.82788,1.27855c-2.01071,1.31132 -3.39536,3.48427 -5.45308,4.72052c-2.05132,1.23241 -5.84964,0.53384 -8.04937,0.55356c-1.17235,0.42698 -2.56074,0.48996 -3.5232,1.28393c-2.61074,2.1537 -3.63895,7.1978 -2.25835,10.63753c-0.98616,-0.37014 -1.97309,-0.95106 -2.96782,-0.72543c-5.17696,1.17425 -6.42484,6.51425 -4.32166,10.67676c0.33747,0.66792 0.75685,1.39168 1.23868,1.96085c-2.65507,-1.15419 -5.36034,-2.2296 -7.72377,-4.02017z" fill="#ffac33"></path>
    </g>
  </g>
</svg>
