<?xml version="1.0" encoding="UTF-8"?>
<svg xmlns="http://www.w3.org/2000/svg" xmlns:xlink="http://www.w3.org/1999/xlink" version="1.1" width="40.53036" height="40.53036" viewBox="0,0,40.53036,40.53036">
  <g transform="translate(-39.73481,-40.06815)">
    <g stroke="none" stroke-miterlimit="10">
      <path d="M39.73481,60.33333c0,-11.19215 9.07303,-20.26518 20.26518,-20.26518c11.19215,0 20.26518,9.07303 20.26518,20.26518c0,11.19215 -9.07303,20.26518 -20.26518,20.26518c-11.19215,0 -20.26518,-9.07303 -20.26518,-20.26518z" fill="#ffcc4d"></path>
      <path d="M58.66318,58.693c0.212,-0.29389 0.26957,-0.67185 0.1547,-1.01553c-0.14185,-0.42444 -1.4681,-4.1476 -4.44596,-4.1476c-2.97785,0 -4.30522,3.72317 -4.44595,4.1476c-0.13353,0.38318 -0.05053,0.80857 0.21726,1.11344c0.26779,0.30488 0.67892,0.44206 1.07612,0.35908c0.3972,-0.08298 0.71902,-0.37329 0.84235,-0.75987c0.18351,-0.55054 1.11346,-2.60746 2.30911,-2.60746c1.163,0 2.08056,1.93307 2.3091,2.60746c0.15762,0.47173 0.59669,0.77008 1.06842,0.77008c0.36236,0.00057 0.70285,-0.17332 0.91485,-0.4672zM69.91922,58.69163c0.21121,-0.29373 0.26839,-0.67105 0.15371,-1.01416c-0.14073,-0.42444 -1.4681,-4.1476 -4.44483,-4.1476c-2.97673,0 -4.3041,3.72317 -4.44483,4.1476c-0.18722,0.58683 0.13192,1.21517 0.71622,1.41014c0.5843,0.19497 1.21681,-0.11582 1.41951,-0.69748c0.18351,-0.55053 1.11458,-2.60745 2.31023,-2.60745c1.16299,0 2.08169,1.93307 2.31023,2.60745c0.15277,0.45978 0.5828,0.77006 1.0673,0.77008c0.36177,-0.00052 0.70126,-0.17485 0.91247,-0.46858zM70.61558,64.07c-0.14411,0.24206 -3.62184,5.9028 -10.61558,5.9028c-6.99374,0 -10.47034,-5.66074 -10.61557,-5.9028c-0.13844,-0.23087 -0.09406,-0.52744 0.10591,-0.70766c0.19997,-0.18022 0.49955,-0.19364 0.71483,-0.03202c0.04279,0.03265 4.42907,3.26495 9.79483,3.26495c5.37928,0 9.75093,-3.2323 9.79484,-3.26495c0.21558,-0.16105 0.5149,-0.14737 0.71491,0.03265c0.20002,0.17993 0.24441,0.47642 0.10583,0.70703z" fill="#664500"></path>
      <g>
        <path d="M66.4736,41.12532c3.46523,1.17108 6.54956,3.25686 8.92681,6.03677c-1.18439,2.32261 -3.63985,4.42907 -5.51438,5.11021c-2.37103,-0.86239 -5.67988,-4.00126 -6.15837,-6.97685c-0.05855,-0.25219 -0.09232,-0.51338 -0.09232,-0.78359c0.0018,-1.66698 1.19725,-3.09335 2.83825,-3.38653zM51.34001,78.65868c-3.84497,-1.82258 -7.02173,-4.80483 -9.08331,-8.52714c0.65487,-1.17739 1.89518,-1.90866 3.24243,-1.91169c1.20531,0.00021 2.33628,0.58267 3.0364,1.56379c0.69987,-0.98141 1.831,-1.56395 3.0364,-1.56379c2.06371,0 3.73667,1.67297 3.73667,3.73668c0,0.29272 -0.03715,0.57643 -0.10133,0.84888c-0.34226,2.13009 -2.02427,4.33225 -3.86727,5.85326zM73.55854,75.39374c-1.75745,-0.74868 -4.05529,-2.99024 -4.40093,-5.13497c-0.27494,-1.20015 0.33361,-2.42786 1.45519,-2.93578c1.12158,-0.50793 2.44574,-0.15546 3.16639,0.84284c0.57304,-0.80367 1.55463,-1.20963 2.52792,-1.0455c0.9733,0.16414 1.76746,0.86956 2.04525,1.8167c-1.15176,2.45016 -2.78163,4.6454 -4.79384,6.45671z" fill="#ffac33"></path>
        <path d="M77.49786,44.53325c-0.47849,2.97448 -3.78621,6.11333 -6.15723,6.97572c-2.37103,-0.86239 -5.67875,-4.00125 -6.15837,-6.97685c-0.36759,-1.59961 0.44319,-3.23665 1.93834,-3.9137c1.49515,-0.67706 3.26031,-0.20649 4.22002,1.12499c0.64593,-0.90571 1.68979,-1.44336 2.80223,-1.44333c1.90453,0 3.44845,1.54393 3.44845,3.44846c0,0.2702 -0.03378,0.5314 -0.09345,0.78471zM53.37667,72.90112c-0.51902,3.22329 -4.10258,6.62446 -6.67175,7.55778c-2.56918,-0.93445 -6.15273,-4.33562 -6.67175,-7.55891c-0.25894,-1.11006 0.00293,-2.27759 0.71119,-3.1707c0.70826,-0.89311 1.78543,-1.4141 2.92529,-1.41487c1.20544,-0.00035 2.33665,0.58224 3.0364,1.56379c0.69987,-0.98141 1.83101,-1.56395 3.03641,-1.56379c2.06371,0 3.73667,1.67297 3.73667,3.73668c0,0.2916 -0.03715,0.57531 -0.10245,0.85001zM80.13572,70.07075c-0.35802,2.23255 -2.84163,4.58893 -4.62046,5.23517c-1.77996,-0.64624 -4.26244,-3.00262 -4.62158,-5.23517c-0.27494,-1.20015 0.33361,-2.42786 1.4552,-2.93579c1.12158,-0.50793 2.44574,-0.15545 3.16639,0.84284c0.65493,-0.9129 1.82403,-1.29903 2.89384,-0.95578c1.06982,0.34325 1.79601,1.33749 1.79755,2.46102c0,0.20265 -0.0259,0.39855 -0.07093,0.58769z" fill="#dd2e44"></path>
      </g>
    </g>
  </g>
</svg>
