<?xml version="1.0" encoding="UTF-8"?>
<svg xmlns="http://www.w3.org/2000/svg" xmlns:xlink="http://www.w3.org/1999/xlink" version="1.1" width="62.67519" height="62.6752" viewBox="0,0,62.67519,62.6752">
  <g transform="translate(-208.66241,-148.6624)">
    <g stroke="none" stroke-miterlimit="10">
      <g>
        <path d="M218.69044,211.3376c-5.53833,0 -10.02803,-4.4897 -10.02803,-10.02803v-42.61913c0,-5.53833 4.4897,-10.02804 10.02803,-10.02804h42.61913c5.53833,0 10.02803,4.48971 10.02803,10.02804v42.61913c0,5.53833 -4.4897,10.02803 -10.02803,10.02803z" fill="#393a41" fill-rule="nonzero" stroke-width="1"></path>
        <path d="M226.99496,192.02152v-23.4989h27.52729v23.4989z" fill="#ffffff" fill-rule="nonzero" stroke-width="0"></path>
        <path d="M258.28045,180c0,8.61721 0,12.92613 -2.67748,15.60299c-2.67685,2.67749 -6.98578,2.67749 -15.60299,2.67749c-8.61721,0 -12.92613,0 -15.60299,-2.67749c-2.67749,-2.67685 -2.67749,-6.98578 -2.67749,-15.60299c0,-8.61721 0,-12.92613 2.67749,-15.60299c2.67685,-2.67749 6.98578,-2.67749 15.60299,-2.67749c8.61721,0 12.92613,0 15.60299,2.67749c2.67749,2.67685 2.67748,6.98578 2.67748,15.60299zM249.97097,170.68333c0.60231,0.45878 0.71888,1.31931 0.25947,1.92162l-12.53504,16.45224c-0.24945,0.32716 -0.63302,0.52584 -1.0448,0.539c-0.41178,0.01379 -0.80726,-0.15794 -1.07864,-0.46818l-5.7448,-6.58089c-0.49827,-0.57035 -0.43935,-1.43651 0.13099,-1.93479c0.57035,-0.49764 1.43651,-0.43935 1.93478,0.13162l4.63985,5.31486l11.51657,-15.11601c0.45941,-0.60231 1.31931,-0.71825 1.92162,-0.25947z" fill="#77b255" fill-rule="evenodd" stroke-width="1"></path>
      </g>
    </g>
  </g>
</svg>
