<?xml version="1.0" encoding="UTF-8"?>
<svg xmlns="http://www.w3.org/2000/svg" xmlns:xlink="http://www.w3.org/1999/xlink" version="1.1" width="222.65276" height="269.87216" viewBox="0,0,222.65276,269.87216">
  <g transform="translate(-78.47468,-56.21436)">
    <g stroke="none" stroke-miterlimit="10">
      <g stroke-width="0.5">
        <g>
          <path d="M189.7271,154.6367c0.2952,-0.55776 0.7715,-0.95786 1.31822,-1.16625c0.18211,-0.25287 0.3656,-0.50294 0.55034,-0.75012c0.0337,-0.30381 0.12408,-0.60649 0.27573,-0.89304c0.28832,-0.54475 0.74939,-0.93911 1.28008,-1.15136c3.32395,-6.26705 7.97929,-10.81689 13.52756,-15.17878c1.34861,-1.06025 3.34258,-3.04547 4.92821,-3.80334c0.90621,-0.43313 5.37181,-1.5964 6.48831,-2.02445c3.07942,-1.18061 6.16663,-2.77083 9.31257,-3.73257c3.9928,-1.22064 8.52336,-1.49581 12.64595,-2.14725c0,0 1.70594,-0.26957 2.50603,1.05734c5.33554,0.16466 10.06612,2.11077 15.2101,3.25636c7.18574,1.60029 15.77895,2.903 20.74136,9.14717c0.67071,0.84396 0.88292,1.97145 1.42572,2.90284c1.38351,2.37397 3.51033,4.25118 4.99075,6.52601c1.17898,1.81164 1.97448,3.84966 3.09244,5.69959c1.16258,2.45924 3.12938,5.14833 4.09832,7.60385c0.40411,1.02409 0.31788,2.18191 0.57525,3.25234c1.00716,4.18896 2.58749,8.0559 2.89972,12.41912c0.28084,3.92461 -0.69377,7.76124 -0.7793,11.65066c-0.05512,2.50636 0.06331,5.05904 -0.48545,7.50521c-1.56204,6.96308 -5.76561,13.58942 -9.1097,19.84923c-6.42404,7.93782 -14.76501,13.93842 -23.98991,18.2606c-0.98453,0.46129 -5.30582,1.57267 -6.48836,2.02444c-1.14724,0.43828 -4.38582,2.2164 -5.42312,2.5357c-3.83981,1.18196 -7.62061,0.62117 -11.50314,0.89171c-1.07541,0.07494 -2.12647,0.52506 -3.20211,0.45348c-1.92136,-0.12787 -3.77533,-0.88841 -5.70032,-0.93709c-5.12406,-1.667 -8.80165,-3.28938 -12.85608,-6.30676l-0.85519,-0.15954c-7.25852,-5.66673 -14.64982,-10.53722 -20.09655,-18.16075c-2.51879,-3.55228 -3.60172,-6.88907 -4.79668,-10.95721c-0.60473,-2.05873 -1.38572,-2.33778 -2.4805,-4.15342c-1.82868,-3.03276 -3.93229,-6.90395 -4.98211,-10.31445c-3.24017,-10.5262 0.63075,-22.72405 6.59115,-32.00096c-0.00502,-0.40437 0.08821,-0.81572 0.2907,-1.19832zM215.10455,225.06169l2.46478,1.35944c0.249,0.20308 0.49442,0.39933 0.73691,0.58924l1.96025,0.2711c0,0 2.20245,0.36682 2.09786,2.48856c2.21099,1.26639 4.49149,2.1933 7.40565,3.19216c1.74875,0.03657 3.42941,0.74967 5.17413,0.87399c0.85686,0.06105 1.68026,-0.38969 2.53695,-0.45333c3.48148,-0.25863 6.92597,0.37727 10.36588,-0.68158c1.79487,-0.55248 3.33404,-1.74828 5.08802,-2.41938c1.97704,-0.75643 4.16485,-0.93531 6.07698,-1.84342c8.39883,-3.98877 16.1067,-9.33336 22.04012,-16.5422c3.01346,-5.75728 6.97864,-11.84203 8.40544,-18.21252c0.47502,-2.12092 0.306,-4.33769 0.35868,-6.51051c0.09037,-3.72771 1.06063,-7.42929 0.78872,-11.18537c-0.29581,-4.08622 -1.87009,-7.69213 -2.78185,-11.62432c-0.18889,-0.81461 -0.02545,-1.70849 -0.33157,-2.48667c-0.91048,-2.31449 -2.77641,-4.79212 -3.87784,-7.13585c-1.0491,-1.73598 -1.78335,-3.65508 -2.88969,-5.35515c-1.51844,-2.33333 -3.68757,-4.25444 -5.09959,-6.70306c-0.42915,-0.74419 -0.5265,-1.67305 -1.05181,-2.35277c-4.01853,-5.19964 -12.04865,-6.02917 -17.86399,-7.34082c-4.79288,-1.08104 -9.29466,-3.07724 -14.26799,-3.14381c0,0 -1.3582,-0.03143 -2.04896,-1.04919c-3.73287,0.5567 -7.85865,0.78515 -11.43805,1.89574c-3.05686,0.94845 -6.05137,2.49559 -9.05194,3.63983c-1.97787,0.75423 -4.15567,0.95486 -6.07693,1.84342c-0.76432,0.35349 -3.78632,3.04145 -4.07241,3.26594c-5.22707,4.10179 -9.38505,8.29373 -12.53054,14.1818c-6.81725,8.42369 -13.04526,21.54239 -9.59778,32.74204c1.26891,4.12223 3.90895,7.63356 5.99095,11.3108c2.36492,4.17694 2.64311,8.63523 5.55796,12.6786c2.26674,3.17263 4.5803,4.94167 7.32928,7.64206c2.06582,2.0293 3.7789,4.2001 6.24676,5.83223c0.50402,0.33333 1.02082,0.65026 1.53672,0.96856c0.48122,0.0857 0.81892,0.26443 0.81892,0.26443z" fill="#c19e4b"></path>
          <path d="M214.2607,224.84059c-0.51591,-0.3183 -1.03421,-0.63612 -1.53824,-0.96946c-2.46786,-1.63214 -4.1876,-3.8079 -6.25341,-5.8372c-2.74899,-2.70039 -5.06959,-4.47709 -7.33632,-7.64973c-2.91485,-4.04337 -3.19964,-8.51368 -5.56455,-12.69062c-2.082,-3.67724 -4.72494,-7.20032 -5.99384,-11.32255c-3.44749,-11.19966 2.78758,-24.35057 9.60483,-32.77426c3.1455,-5.88808 7.31612,-10.09385 12.54319,-14.19565c0.28609,-0.2245 3.31233,-2.9153 4.07665,-3.26879c1.92126,-0.88857 4.10456,-1.09203 6.08243,-1.84626c3.00056,-1.14424 6.0043,-2.69441 9.06115,-3.64287c3.57941,-1.11059 7.7165,-1.34026 11.44937,-1.89696c0.69077,1.01775 2.05101,1.04925 2.05101,1.04925c4.97333,0.06657 9.48943,2.06558 14.28231,3.14661c5.81532,1.31164 13.86158,2.15059 17.88013,7.35023c0.52531,0.67972 0.62434,1.61011 1.05348,2.35429c1.41202,2.44861 3.58661,4.37584 5.10505,6.70917c1.10634,1.70006 1.84389,3.62415 2.89299,5.36013c1.10143,2.34373 2.97082,4.82862 3.8813,7.14311c0.30612,0.77818 0.1435,1.67434 0.33238,2.48896c0.91176,3.93219 2.48837,7.5497 2.78418,11.63592c0.27191,3.75608 -0.69869,7.46875 -0.78907,11.19646c-0.05268,2.17282 0.11504,4.39581 -0.35998,6.51673c-1.42679,6.37052 -5.40071,12.47262 -8.41417,18.22989c-5.93343,7.20884 -13.66255,12.56929 -22.06137,16.55806c-1.91213,0.9081 -4.10577,1.08885 -6.08281,1.84529c-1.75398,0.67109 -3.29824,1.86792 -5.09311,2.4204c-3.43992,1.05886 -6.89413,0.42342 -10.37561,0.68205c-0.85668,0.06364 -1.6824,0.51422 -2.53927,0.45316c-1.74472,-0.12431 -3.43018,-0.83811 -5.17893,-0.87468c-2.91416,-0.99886 -5.20188,-1.92775 -7.41287,-3.19414c0.1046,-2.12175 -2.1004,-2.48955 -2.1004,-2.48955l-1.96194,-0.27185c-0.24249,-0.18991 -0.48872,-0.38654 -0.73772,-0.58962l-2.4672,-1.3607c0,0 -0.33841,-0.17912 -0.81963,-0.26483z" fill="#ffce66"></path>
        </g>
        <path d="M214.80056,195.12761c5.52014,7.81681 15.9527,15.94677 26.02232,15.40576c0.4723,-0.08787 0.94459,-0.17573 1.41688,-0.26361l1.41087,-0.62199c0,0 1.07168,-0.46485 1.7338,0.37162l1.40355,-1.07126c0.38822,0.40661 0.77645,0.81322 1.16467,1.21983c3.12127,3.26911 7.31267,6.94237 8.78,11.32836c0.70752,2.11484 0.1846,5.36189 -2.60369,6.00418c-2.93653,0.67644 -7.35391,-4.24823 -9.27462,-6.54588c0.2859,3.59693 -0.58006,7.41953 -5.21116,6.46553c-2.32377,-0.47869 -4.88844,-3.427 -5.83002,-5.49545c-0.28628,-0.62891 -0.6713,-2.14353 -0.82341,-3.08344c-0.24404,0.28563 -0.5197,0.53995 -0.68305,0.75408c-2.53167,2.37377 -7.33183,4.24256 -9.61097,0.13102c-0.18949,-0.34184 -0.30547,-3.11212 -0.33843,-3.72593c-0.01557,-0.28994 0.04167,-0.81222 0.13066,-1.25492c-0.51045,0.22618 -1.3416,0.3011 -1.83828,0.32983c-2.35775,0.1364 -6.66796,-0.25154 -7.33927,-3.33205c-0.1956,-0.89757 0.02884,-1.70814 0.47894,-2.43556c-3.62437,0.17409 -7.36173,-0.077 -9.88052,-2.94866c-1.40929,-1.60673 -1.44314,-3.33558 -0.63932,-4.69799c-2.32377,-0.4338 -4.55257,-1.21336 -6.25976,-2.7998c-1.8212,-1.69241 -2.83452,-2.92158 -0.31922,-5.09404c0.23484,-0.20282 3.37906,-0.41508 3.93454,-0.40279c3.81133,0.08435 7.70288,0.38716 11.48288,0.87033c0,0 0.47921,0.06169 0.85867,0.387c1.08325,-0.54493 1.83395,0.5058 1.83395,0.5058z" fill="#292f33"></path>
        <path d="M288.58721,191.77132l-0.04993,-0.07582l-0.68095,0.32101c-0.69232,0.33558 -1.5297,0.34816 -2.2618,-0.03931c-1.22033,-0.64587 -1.68602,-2.15874 -1.04014,-3.37906c0.19642,-0.37112 0.47302,-0.67244 0.79719,-0.89393l0.28475,-0.20345l-0.12138,-0.39434l1.18297,-0.36414l0.72697,-0.5194c0,0 1.60234,-1.14482 2.97883,0.01981c0.05298,0.02351 0.10551,0.04901 0.1575,0.07654c1.22033,0.64587 1.68602,2.15874 1.04014,3.37907c-0.26753,0.50548 -0.68381,0.88147 -1.16643,1.10263l-0.06901,0.03253c-0.66077,0.82433 -1.7787,0.93787 -1.7787,0.93787z" fill="#363636"></path>
        <path d="M230.38802,165.77792c-0.21259,-1.15784 -0.42517,-2.31836 -0.65887,-3.48373c0,0 -0.29419,-1.47087 1.17668,-1.76506c1.47087,-0.29419 1.76506,1.17668 1.76506,1.17668c0.03847,0.19284 0.07637,0.38552 0.11379,0.57807c0.71536,0.40051 0.71536,1.31613 0.71536,1.31613v0.39999c-0.00281,0.44619 -0.06929,0.88831 -0.14734,1.32967c0.38603,2.10624 0.77669,4.20309 1.30253,6.3065l0.26411,1.05636c0.59858,0.44928 0.99505,0.97683 0.97692,1.60112c-0.0819,2.82049 -4.38098,4.55672 -7.50288,5.58857c-1.39213,0.84351 -3.01898,1.4652 -4.50745,2.25177l-0.01784,0.00211l0.00277,0.00553l-1.57299,0.78651c-0.20845,0.10975 -0.44588,0.17186 -0.69782,0.17186c-0.82843,0 -1.5,-0.67157 -1.5,-1.5c0,-0.35882 0.12599,-0.68822 0.33615,-0.94637l0.91671,-1.1459l-2.03168,0.69924c-0.16234,0.06016 -0.33794,0.09303 -0.52121,0.09303c-0.82843,0 -1.5,-0.67157 -1.5,-1.5c0,-0.47887 0.2244,-0.90533 0.57378,-1.17996l0.33203,-0.26563c-0.06826,-0.17151 -0.10579,-0.35858 -0.10579,-0.55442c0,-0.08912 0.00777,-0.17642 0.02267,-0.26127c-0.39192,-0.19867 -0.68483,-0.56439 -0.78508,-1.00347l-0.83005,0.27668c-0.15852,0.05699 -0.32941,0.08805 -0.50755,0.08805c-0.82843,0 -1.5,-0.67157 -1.5,-1.5c0,-0.2875 0.08088,-0.5561 0.22113,-0.78431c-0.37632,-0.27253 -0.62113,-0.71553 -0.62113,-1.21569c0,-0.04342 0.00184,-0.08641 0.00546,-0.1289c-0.52183,-0.10389 -0.94608,-0.4785 -1.12018,-0.97125l-0.58886,0.14721c-0.12628,0.03452 -0.2592,0.05294 -0.39643,0.05294c-0.56266,0 -1.05296,-0.3098 -1.30964,-0.76812l-0.39253,0.19627c-0.20845,0.10975 -0.44588,0.17186 -0.69782,0.17186c-0.82843,0 -1.5,-0.67157 -1.5,-1.5c0,-0.41421 0.16789,-0.7892 0.43933,-1.06065v0l0.44428,-0.44428c-0.05417,-0.15499 -0.08362,-0.32159 -0.08362,-0.49507c0,-0.34315 0.11522,-0.65938 0.30909,-0.91212l0.26505,-0.3534c-0.5148,0.06889 -1.12208,0.25859 -1.2459,-0.12764c-0.03249,-0.10133 -0.03888,-0.19892 -0.02473,-0.29354l-0.89596,0.29865c-0.15852,0.05699 -0.32941,0.08805 -0.50756,0.08805c-0.78466,0 -1.42861,-0.60249 -1.49445,-1.3701c-0.4788,-0.25054 -0.80553,-0.75206 -0.80553,-1.3299c0,-0.64386 0.40567,-1.19298 0.97535,-1.40569l1.96756,-0.78703l0.01182,0.02955l0.06005,-0.05619c0.02645,-0.00039 0.0529,-0.00079 0.07935,-0.00118l-0.00621,-0.02175l0.69802,-0.19944c-0.21807,-0.33343 -0.33723,-0.80981 -0.02757,-1.42912c0.67083,-1.34164 2.01247,-0.67081 2.01247,-0.67081c6.26102,3.13644 11.77339,7.53265 18.04846,10.67569c0.24228,0.05252 0.46273,0.16358 0.64583,0.31763c0.41285,0.19925 0.82917,0.39281 1.24937,0.57996c0.04323,0.01926 0.08934,0.03889 0.1381,0.05892c-0.37745,-1.51112 -0.12911,-3.30613 0.03539,-4.91264zM224.34728,171.31693c-0.11097,-0.06391 -0.22088,-0.12829 -0.32964,-0.19313c0.0591,0.08199 0.11013,0.17018 0.15191,0.26342c0.05938,-0.02322 0.11864,-0.04663 0.17773,-0.07029z" fill="#714c19"></path>
        <path d="M262.98202,184.59263c-0.44621,0.03684 -0.89358,0.06943 -1.34153,0.10032c0.96865,0.49694 1.89134,1.10012 2.90044,1.50798c5.11513,2.06743 10.74106,3.19154 15.72993,5.65743l-0.80002,3.08329c0,0 -0.1392,0.0696 -0.35034,0.11913c-0.00552,0.03766 -0.01244,0.07544 -0.02068,0.11329c0.00015,0.00863 0.00022,0.01727 0.00022,0.02594c0,0.49699 -0.2417,0.93753 -0.61397,1.21048l-1.50076,1.12556l-1.12463,1.12463c-0.27145,0.27145 -0.64645,0.43934 -1.06066,0.43934c-0.57456,0 -1.07368,-0.32304 -1.32562,-0.79741c-0.14409,0.03122 -0.28928,0.05596 -0.43891,0.07472l0.05871,0.29355l-1.96963,0.39393c-0.10451,0.02305 -0.21311,0.0352 -0.32455,0.0352c-0.82843,0 -1.5,-0.67157 -1.5,-1.5c0,-0.12845 0.01615,-0.25313 0.04652,-0.37212c-1.2608,0.31335 -2.54548,0.54703 -3.8225,0.7607l1.02272,-1.63173l-1.55807,0.62323c-0.18074,0.07719 -0.37972,0.11992 -0.58867,0.11992c-0.13341,0 -0.26275,-0.01742 -0.38587,-0.0501l-1.82545,0.73017c-0.18074,0.07719 -0.37971,0.11992 -0.58866,0.11992c-0.47178,0 -0.8927,-0.21781 -1.16767,-0.55835l-1.021,0.42852c-0.18672,0.08344 -0.39362,0.12983 -0.61135,0.12983c-0.73454,0 -1.34576,-0.52798 -1.47487,-1.22513c-0.15889,-0.02943 -0.30899,-0.0839 -0.44605,-0.15916l-0.36692,0.2752c-0.25274,0.19387 -0.56898,0.3091 -0.91214,0.3091c-0.82751,0 -1.49852,-0.67009 -1.5,-1.49725l-0.05092,0.03395c-0.24143,0.16608 -0.53392,0.26329 -0.84911,0.26329c-0.82843,0 -1.5,-0.67157 -1.5,-1.5c0,-0.41159 0.16577,-0.78446 0.43419,-1.05549c-0.20793,-0.10316 -0.38851,-0.25314 -0.52798,-0.43615l-0.11727,0.12326c-0.27337,0.28846 -0.66014,0.46838 -1.08893,0.46838c-0.82843,0 -1.5,-0.67157 -1.5,-1.5c0,-0.04343 0.00185,-0.08642 0.00546,-0.12891c-0.18262,-0.03636 -0.35328,-0.10587 -0.50546,-0.202c-0.23154,0.14626 -0.50588,0.2309 -0.79999,0.2309c-0.06782,0 -0.13458,-0.0045 -0.20001,-0.01322c-0.06543,0.00872 -0.1322,0.01322 -0.20001,0.01322c-0.82843,0 -1.5,-0.67157 -1.5,-1.5c0,-0.25194 0.06211,-0.48938 0.17186,-0.69783l0.78652,-1.573l0.02046,0.01023l0.00627,-0.06121c1.16489,-1.94152 1.86866,-2.66058 1.81491,-4.87819c0,0 0,-0.81569 0.60151,-1.24405c-0.24295,-0.37766 -0.41791,-0.96742 0.09848,-1.65594c0.9,-1.2 2.1,-0.30001 2.1,-0.30001c1.16837,0.90851 2.57236,1.63404 4.04506,2.26143c3.73484,-0.49992 7.64579,-0.36367 11.26836,-1.16748l-0.02555,-0.17888l2.77447,-0.39634c0.07741,-0.01232 0.15679,-0.01872 0.23767,-0.01872c0.82843,0 1.5,0.67157 1.5,1.5c0,0.73733 -0.53199,1.3504 -1.23308,1.47632l-1.94783,0.38956c-0.98946,0.24053 -1.997,0.4079 -3.0153,0.53325c-0.21784,0.06887 -0.43563,0.12984 -0.65043,0.18369l-0.28956,0.07239c0,0 -0.4964,0.1241 -0.98183,-0.06258zM251.45431,184.12148c0.06651,0.01136 0.13152,0.02709 0.19473,0.0469l0.26483,-0.17981c-0.14474,-0.086 -0.28881,-0.17307 -0.43218,-0.26126c-0.00724,0.13503 -0.01637,0.26629 -0.02739,0.39417zM258.4367,187.64911l-0.0998,0.1497c0.03855,0.0038 0.07711,0.00759 0.11566,0.01139l-0.01635,-0.06542l1.01545,-0.25386c-0.26818,-0.10006 -0.5355,-0.20154 -0.80187,-0.30461c-0.04454,0.1676 -0.11738,0.32367 -0.21308,0.46279z" fill="#714c19"></path>
        <path d="M279.66965,204.56827c-0.93916,0.79184 -1.87833,1.5837 -2.81749,2.37554c-1.40819,0.66213 -2.94745,1.17187 -4.56664,1.52845c-2.85988,1.37369 -5.53933,3.03164 -8.84882,3.00917c-7.93358,-0.05388 -19.16241,-5.20373 -21.13436,-13.85089c-0.81269,-3.56373 0.34438,-8.96604 1.34728,-12.37753c0.86392,-2.93873 2.01254,-4.91879 1.43594,-7.95845c0,0 -0.01415,-0.0895 -0.02,-0.23713c-0.34695,-0.26395 -0.86876,-0.76965 -1.01775,-1.50445h0.00005c-0.7971,-0.79758 -1.8832,-1.47793 -2.74262,-0.69134c-0.36377,0.33293 -0.62607,0.73846 -0.83612,1.18211c0.19058,0.99603 -0.38197,1.76073 -0.76048,2.14287c-0.13325,0.38987 -0.28084,0.77068 -0.46906,1.12397c-4.58167,6.02973 -8.9873,10.33514 -16.98027,10.93524c-7.50521,0.56348 -12.95891,-2.46241 -18.69942,-6.88549c-1.97556,-1.52218 -3.40356,-2.54245 -4.52137,-4.85849c-1.57973,-3.27314 -1.89189,-6.64505 -1.39086,-10.01829l0.98411,-1.8594c0.31805,-0.61157 0.77169,-1.27021 1.2815,-1.96455c-0.69497,-1.1377 0.00046,-2.45169 0.00046,-2.45169l0.81585,-1.4377c1.29298,-1.58532 2.48472,-3.94901 4.37753,-4.93632c-0.39882,-0.00351 -0.79909,-0.03392 -1.19611,-0.05972c-0.17905,-0.01164 -0.35762,-0.03051 -0.53591,-0.05343l-1.33294,0.41031l-0.02194,-0.07128c-0.12157,0.05617 -0.24494,0.10903 -0.37029,0.15823c-1.29594,0.50871 -2.78288,-0.03777 -4.17607,-0.0663l-3.27179,0.17565c-0.45075,0.03207 -0.91569,-0.05763 -1.34452,-0.28459c-1.22033,-0.64587 -1.68602,-2.15874 -1.04015,-3.37907c0.38109,-0.72004 1.06402,-1.17735 1.8106,-1.29862l0.00397,-0.00285c-0.33269,-0.18785 -0.66324,-0.37858 -0.99284,-0.56697c0.24162,-0.33332 0.48322,-0.66664 0.72484,-0.99995v-0.00001c0,0 0.44696,-0.61472 1.18695,-0.91983c0.00475,-0.00552 0.00954,-0.01101 0.01433,-0.01648c0.04799,-0.18555 0.11824,-0.36848 0.21181,-0.54529c0.46686,-0.88208 1.38667,-1.36988 2.32158,-1.32861l2.5436,0.05886l-0.00104,0.04493c0.05911,-0.0123 0.11848,-0.02384 0.17807,-0.03455c0.02876,-0.00517 3.33839,0.54862 5.57383,0.9238c-0.4075,-1.20017 -0.65201,-2.50498 -0.42788,-3.73501c1.13249,-6.21518 6.77884,-6.4596 11.58616,-5.36863c-0.94359,-4.25289 5.46382,-10.63528 10.33086,-9.09425c1.14342,0.36204 1.5179,1.86293 2.36751,2.70948c0.79253,0.78967 1.96117,1.23309 2.54634,2.18666c0.76926,1.25355 1.10165,2.74821 1.36954,4.19438c0.1546,0.83463 0.20128,1.7164 0.05787,2.5558c2.37347,-0.78483 5.26779,-0.5066 7.37656,0.88669c4.55562,3.00996 2.86672,7.9748 3.85389,12.19341c0.63866,2.72926 2.22241,4.62589 3.41291,7.13137l1.38114,1.93312c0.16541,0.22154 0.29189,0.46797 0.37597,0.72798c1.27329,0.47896 2.51864,1.03517 3.72095,1.66557l1.00714,0.86027c1.43854,-0.27339 3.08624,-0.8878 4.59043,-1.68959l1.37877,-0.98507l0.06272,0.08778c0.1291,-0.12375 0.2646,-0.24147 0.40749,-0.35221c0.24744,-0.19177 0.50921,-0.35317 0.78257,-0.49012c0.21456,-0.17906 0.41674,-0.36107 0.60438,-0.54512c1.68173,-1.64951 2.45505,-4.06913 5.28535,-4.44902c2.77188,-0.37205 7.25231,2.19075 8.03441,4.93117c0.26844,0.94062 -1.50335,1.35178 -1.8769,2.25582c-0.11958,0.28941 0.63068,0.06611 0.93932,0.01323c0.67681,-0.11595 1.3134,-0.42753 1.99437,-0.51584c1.11993,-0.14526 2.25916,-0.07126 3.38306,-0.18162c3.0097,-0.29555 5.36688,-2.07056 8.16559,-2.56234c1.66645,-0.29282 3.7817,-1.17676 5.07523,-0.08607c4.21205,3.55159 0.70384,6.48375 -1.10453,8.93803c-0.79534,0.6747 -1.50733,1.46222 -2.38601,2.02408c-0.33737,0.21572 -1.25705,-0.13923 -1.17448,0.2526c0.0864,0.41001 0.83402,0.08268 1.25182,0.1145c0.78211,0.05956 1.56421,0.12251 2.34771,0.15962c3.92156,0.18572 9.37014,0.47643 8.99579,6.33195c-0.09871,1.54406 -1.58794,2.68411 -2.64354,3.81529c-0.94121,1.0086 -1.96721,1.71669 -3.04976,2.19016c0.20871,1.07156 0.5553,2.15371 0.28607,3.18857c-0.3141,1.20728 -1.47236,2.01416 -2.20244,3.02567c-0.84159,1.16599 -1.15548,3.03115 -2.51254,3.50674c-1.51362,0.53047 -3.18781,-0.47522 -4.71189,-0.97485c-0.2663,-0.0873 -0.51549,-0.98546 -0.44251,-0.71487c0.82923,3.07447 -1.12222,4.83947 -3.08067,7.2332c-0.96064,1.17416 -1.93278,2.19064 -2.96197,3.07522zM252.01088,177.48297c-1.01504,3.04533 -1.41552,5.3298 -1.92504,8.38899c-0.41228,2.47539 -1.32799,4.69887 -0.95888,7.30262c0.72104,5.08619 5.48316,8.08049 9.92818,9.39396c3.98109,1.17638 7.2746,2.09351 10.86602,1.51739c0.24782,-0.12595 0.49685,-0.2489 0.74799,-0.36666c2.20499,-0.65833 4.02551,-1.62248 5.62579,-2.893l1.52506,-1.88457c0,0 0.49095,-0.60196 1.26108,-0.86114c0.52109,-0.62063 1.02564,-1.28444 1.52233,-1.99144c1.12429,-1.60035 0.24434,-4.37618 1.77625,-5.59208c1.25062,-0.99264 3.164,-0.75127 4.75299,-0.59466c0.78242,0.07711 1.21873,1.3897 1.99411,1.25962c0.53963,-0.09053 -0.05722,-1.1486 0.20541,-1.62861c0.32983,-0.60281 1.20991,-0.83584 1.49418,-1.4406c-0.45158,-0.38506 -0.66371,-0.82864 -0.74302,-1.25454c-1.55209,-0.1244 -3.1259,-0.47444 -4.65873,-0.90392c-0.70504,0.43594 -1.50435,0.41744 -1.50435,0.41744l-2.03132,-0.15761c-9.48208,-3.18349 -18.34154,-7.70835 -27.19788,-12.38484c-0.02276,0.05074 -0.04718,0.09995 -0.07301,0.14766l0.10617,0.79669c0,0 -0.52538,2.13039 -2.5876,1.90725c-0.00974,0.47394 -0.12574,0.82205 -0.12574,0.82205zM214.20802,155.26098c-0.96283,0.68273 -2.13607,1.06154 -3.17699,1.61927c-0.36537,0.64442 -1.07611,1.14785 -1.75366,1.66741c-0.17281,0.45989 -0.27554,0.97097 -0.54009,1.37767c-0.4942,0.75973 -1.31681,1.28587 -1.74651,2.08385c-4.082,7.58063 0.73732,14.4545 7.26347,18.10816c2.07319,1.16067 2.41718,0.20697 4.73238,0.67076c1.08315,0.21698 2.03349,0.95527 3.13008,1.08868c1.60969,0.19583 3.19356,-0.5674 4.79766,-0.8047c3.29016,-1.59083 5.72631,-2.58809 8.04046,-5.47469l1.02719,-0.80602c0.87259,-1.64864 2.02265,-3.73883 2.41652,-3.99803c0.36929,-0.24304 0.73729,-0.44399 1.10305,-0.60624c-0.03085,-0.44887 0.05906,-0.91159 0.28501,-1.3385c0.22696,-0.42881 0.56098,-0.76445 0.95173,-0.99142l1.5331,-0.92652l0.82336,-0.69848c-1.07647,-0.2056 -2.12195,-0.53724 -3.32037,-1.06092c-1.96367,1.27308 -3.35346,-0.67216 -3.35346,-0.67216c-1.6013,-2.40543 -3.71887,-2.98058 -6.29474,-4.34773c-4.82147,-2.55899 -9.99007,-4.10355 -15.20461,-5.66395c-0.31769,0.49076 -0.71355,0.77358 -0.71355,0.77358z" fill="#292f33"></path>
        <g>
          <path d="M248.42018,203.78367c0.93265,3.48994 -1.46943,8.34091 -4.8984,9.72328c-1.95424,0.78784 -6.09276,0.95184 -7.97577,-1.1208c-0.58417,0.26389 -1.16178,0.46266 -1.69897,0.55621c-6.14076,1.06929 -10.85891,-4.66769 -13.3897,-9.71754c-0.61707,-0.05909 -1.22188,-0.15957 -1.78213,-0.41029c-4.20195,-1.88043 -5.54571,-6.49428 -3.3809,-10.55137c1.67389,-3.13704 5.31821,-3.87781 8.41214,-4.48359c0,0 1.4224,-0.27055 2.30813,0.68262c0.89535,-0.70363 1.76095,-1.36684 2.51229,-1.98333c3.37338,-2.76794 6.23335,-6.30848 9.39048,-9.32422l0.41154,-0.02714c0.09009,-0.33975 0.20727,-0.56117 0.20727,-0.56117c0.67148,-1.10052 0.91835,-2.62287 2.01443,-3.30156c3.27729,-2.02928 7.17551,-1.58583 9.16304,2.06748c0.61524,1.13089 -0.17546,2.56883 -0.2632,3.85325l-0.4337,1.78922c0,0 -0.13007,0.52739 -0.51478,1.02987c0.05059,0.66536 -0.15693,1.21265 -0.15693,1.21265c-1.86114,4.84853 -2.01759,10.79888 -3.1987,16.19826c1.21347,1.2502 2.91702,3.03291 3.27384,4.36816zM227.20765,200.5275c-0.06554,-0.10905 -0.12725,-0.21975 -0.18481,-0.33172c-0.006,0.07129 -0.01545,0.14056 -0.02801,0.20782c0.04253,0.09785 0.08902,0.19859 0.14012,0.30324c0.00603,-0.01596 0.01216,-0.03186 0.01837,-0.04766c0.01744,-0.0443 0.03554,-0.08819 0.05431,-0.13166z" fill="#ff924c"></path>
          <path d="M225.19409,188.3928c0.06418,-0.03721 0.12874,-0.07369 0.19369,-0.10942c0,0 0.00444,-0.0024 0.01292,-0.00662c0.2249,-0.1292 0.54163,-0.23481 0.89849,-0.12859c0.16275,0.03512 0.32958,0.11042 0.48404,0.24939c0.14917,0.1091 0.28455,0.26315 0.36689,0.48063c0.08175,0.16756 0.11046,0.33202 0.1069,0.48516c0.01096,0.20439 -0.03751,0.38205 -0.11295,0.53189c-0.08922,0.23329 -0.23627,0.39281 -0.3971,0.50187c-0.94302,1.07043 -1.00455,2.08202 -1.71774,3.45926l0.2563,-0.41183c0,0 0.36774,1.19468 -0.82693,1.56242c-1.19467,0.36775 -1.56243,-0.82693 -1.56243,-0.82693l-0.05057,-0.98648c-0.38785,-0.28764 -0.5709,-0.7724 -0.48231,-1.23702l0.20307,-1.21929l0.19607,0.03265l-0.06785,-0.41203c0.33289,-0.33687 0.68454,-0.65912 1.05358,-0.96c0.05628,-0.22346 0.13814,-0.43658 0.23552,-0.62057z" fill="#863528"></path>
          <path d="M245.66695,204.32127l-1.57672,0.62342c0,0 -0.65829,0.20264 -1.14799,-0.18158c-0.15654,-0.06294 -0.31766,-0.16971 -0.47738,-0.33701c-0.86321,-0.90409 0.04088,-1.76729 0.04088,-1.76729l0.67327,-0.55414c0.08325,-0.68921 0.3273,-1.35274 0.6233,-1.98897c0.03337,-0.14778 0.10242,-0.30182 0.22227,-0.45666c0.03662,-0.07245 0.07357,-0.14454 0.11069,-0.21625c0,0 0.58473,-1.1048 1.68954,-0.52007c0.67599,0.35778 0.71946,0.91026 0.65136,1.28524c1.02139,1.52948 0.71536,2.54082 -0.80922,4.11331z" fill="#863528"></path>
        </g>
      </g>
      <path d="M78.47468,56.21436z" fill="#ff9500" stroke-width="0"></path>
      <g stroke-width="0.5">
        <g>
          <path d="M146.62151,206.91459c-0.21783,-0.94042 -1.20954,-1.34817 -1.20954,-1.34817l-1.6743,-0.68275c-5.95093,-1.92733 -10.68439,-5.05956 -16.07722,-8.15106c-3.44554,-4.05866 -7.04211,-7.96932 -9.60788,-12.68745c-2.47089,-4.54369 -2.17509,-9.63824 -2.38458,-14.57317c-0.21964,-5.17443 -0.11011,-9.90613 1.50764,-14.90117c1.41922,-4.47387 3.92464,-6.28959 7.34014,-8.97613c1.6191,-1.27355 2.11113,-3.73089 3.84068,-4.84984c1.24437,-0.80507 5.67682,-1.13345 7.13921,-1.27827c4.4872,-0.44441 8.96202,0.83977 13.34,1.9486c5.41141,1.37056 10.31013,2.23991 14.63974,5.97446c2.18525,1.22324 2.92753,2.86769 4.56348,4.74365c8.54486,9.79848 6.94427,21.71412 6.07011,33.624c0,0 -0.05789,0.86056 0.46902,1.47814c0.04497,0.29334 0.12812,0.49372 0.12812,0.49372c2.62215,5.96416 9.65577,9.81419 14.02666,14.58357c4.1984,4.58118 2.5246,13.50013 0.93782,18.79307c-3.39346,3.83336 -5.47837,7.59774 -11.07438,8.09778c-3.8512,0.34413 -6.47731,-3.44495 -10.97493,-1.61438c-1.08497,0.4416 -4.06718,2.58138 -4.78475,3.62229c-1.69409,2.45747 -2.48322,10.60784 -6.51891,5.65789c-1.78616,-4.37163 -0.53727,-9.20852 -0.79457,-13.80401c-0.38569,-6.88898 -4.10484,-11.79239 -8.9016,-16.15074z" fill="#781616"></path>
          <g>
            <g>
              <path d="M185.73543,224.94083c-0.07881,-0.04638 -0.15177,-0.09428 -0.21927,-0.14344c-5.53117,-2.22525 -9.54671,-7.39964 -10.56461,-13.4079c-0.59114,-3.48928 0.08777,-7.35876 -1.17432,-10.68987c-4.54546,-7.89104 -13.69939,-9.96211 -19.10547,-17.07651c-4.8202,-6.34337 -3.67019,-12.657 -5.30615,-19.86013c-3.1513,-10.25705 -14.57151,-5.79906 -21.74751,-9.33904c-4.76566,-2.35094 -7.87305,-6.86804 -5.90652,-12.0363c0,0 0.57742,-1.40478 1.95237,-1.23169c0.35426,-0.12357 0.64547,-0.13273 0.64547,-0.13273c2.77056,-0.00112 5.09889,-1.73927 8.0042,-1.95511c10.60817,-0.78811 22.56095,0.67414 31.49328,6.87304c3.6569,3.26179 7.48919,5.87126 9.36219,10.63616c4.00493,10.18853 -1.14872,21.56303 2.47803,31.40837l0.38584,0.72848c0.23337,0.21233 0.36007,0.40771 0.36007,0.40771c5.37175,8.33038 17.9413,12.95323 16.50771,24.59779c-0.43308,3.51774 -2.5802,6.97623 -4.20377,10.04624l-0.28029,0.48029c0,0 -0.30826,0.52382 -0.87315,0.81613l-0.05942,0.383c-0.22816,-0.0591 -0.4543,-0.12307 -0.67831,-0.19173c-0.31591,0.00588 -0.67397,-0.07951 -1.07036,-0.31277zM189.01052,213.26202c1.08129,-9.59893 -11.31962,-14.97298 -15.9041,-22.00907c0,0 -0.00128,-0.00197 -0.00368,-0.00583c-0.32277,-0.29542 -0.4856,-0.61427 -0.4856,-0.61427l-0.64962,-1.30408c-3.60567,-9.95729 1.45159,-21.21545 -2.44767,-31.32793c-1.56085,-4.04798 -5.05632,-6.22392 -8.14223,-8.98693c-8.03725,-5.63177 -19.24775,-6.73636 -28.76745,-6.04001c-2.80257,0.205 -4.8786,1.60456 -7.59069,1.9155c-0.51477,3.14025 3.15749,6.06784 6.14576,6.66098c2.81031,0.55782 5.83673,0.12188 8.67045,0.58315c6.08402,0.99033 11.34484,4.71104 13.30734,10.5932c1.5053,6.63415 0.24057,12.74829 4.63513,18.51037c5.61753,7.36561 14.76672,9.4062 19.55147,17.81231c2.70623,7.59121 0.25235,17.88611 8.5451,21.71434c1.29899,-2.32573 2.84945,-4.95976 3.13578,-7.5017z" fill="#783232"></path>
              <path d="M185.91346,220.81629c-8.29275,-3.82824 -5.927,-14.21836 -8.63323,-21.80957c-4.78475,-8.4061 -13.94917,-10.39486 -19.5667,-17.76049c-4.39454,-5.76208 -3.05244,-11.82134 -4.55774,-18.45549c-1.96251,-5.88217 -7.20322,-9.61048 -13.28726,-10.60082c-2.83372,-0.46126 -5.85035,-0.03229 -8.66068,-0.5901c-2.98828,-0.59314 -6.74608,-3.61938 -6.2313,-6.75962c2.71209,-0.31094 4.79618,-1.71652 7.59876,-1.92151c9.51971,-0.69635 20.77411,0.39878 28.81136,6.03057c3.08592,2.76301 6.60345,4.94621 8.16429,8.99419c3.89925,10.11247 -1.13134,21.45846 2.47432,31.41575l0.64813,1.30674c0,0 0.16234,0.31969 0.4851,0.6151c0.00241,0.00385 0.00367,0.00582 0.00367,0.00582c4.58447,7.03609 16.97596,12.42218 15.89468,22.02112c-0.28635,2.54194 -1.84444,5.18257 -3.14341,7.50829z" fill="#a14343"></path>
            </g>
            <path d="M187.44015,211.70716c-1.47608,1.28723 -2.7633,-0.18886 -2.7633,-0.18886l0.21625,0.13332c-2.5624,-1.66903 -5.85494,-3.82998 -6.71112,-6.99283c-0.59143,-2.1848 0.11682,-3.79892 -1.20235,-5.81984c-2.49811,-3.82708 -7.25589,-5.15633 -9.67312,-9.31607c-1.57077,-2.70311 -1.13505,-5.77573 -2.60565,-8.40459c0,0 -0.1363,-0.25528 -0.20595,-0.622c-0.06275,-0.05933 -0.09645,-0.09799 -0.09645,-0.09799l-1.42817,-1.64226c-1.89368,-2.79131 -2.90427,-4.68183 -2.00262,-8.10939c0.95901,-3.6456 6.06037,-8.24009 1.54292,-11.51949c-4.31976,-1.07602 -6.88273,-2.47451 -10.29323,-5.3219c-2.24436,-1.8738 -3.65987,-4.51259 -6.71903,-5.1315c-5.71464,-1.15616 -10.89955,3.11181 -16.25939,0.4167c-2.00364,-1.0075 -2.41848,-1.95108 -3.77889,-3.68408c0,0 -1.19832,-1.54914 0.3508,-2.74744c1.54913,-1.19832 2.74744,0.35081 2.74744,0.35081c3.45901,4.55489 5.35082,2.4844 10.04059,1.566c2.06327,-0.40404 5.59839,-0.20073 7.68285,0.26014c5.04764,1.11604 7.88656,5.90066 11.87139,8.82056c1.65929,1.21585 4.17346,1.40823 6.09967,1.96251c0.83141,0.65625 1.86555,1.11631 2.49423,1.96876c5.24958,7.118 -5.24565,12.39517 -0.68677,18.76109l1.29031,1.47507c0,0 0.37068,0.42508 0.4861,1.01794c0.21148,0.22932 0.31957,0.43177 0.31957,0.43177c1.37114,2.65541 1.01354,5.73548 2.53594,8.27958c2.39168,3.99676 7.0872,5.30266 9.58411,9.17047c1.54479,2.39293 1.18939,4.36777 1.69458,6.94183c0.38771,1.97547 3.55253,3.73116 5.05345,4.69975l0.60461,0.57865c0,0 1.28723,1.47608 -0.18886,2.7633z" fill="#b17878"></path>
          </g>
          <g>
            <path d="M155.27235,191.03714c-0.25815,0.25883 -0.50652,0.39143 -0.50652,0.39143c-3.69288,1.96495 -10.66157,6.06665 -12.55491,9.93661c-0.363,0.74198 2.64437,2.62904 2.95441,2.87511c4.01358,3.18534 8.16395,6.95131 11.77317,10.54174c3.23549,2.88929 6.48103,5.49408 9.94206,8.08258c0.97793,0.73138 1.76327,1.77165 2.88148,2.2625c0.49638,0.21789 1.65777,0.72872 1.61536,0.18829c-0.0813,-1.0361 -0.8753,-1.89969 -1.11996,-2.90978c-1.57163,-6.48896 -4.0701,-12.73773 -7.11859,-18.70518c-2.17114,-4.26287 -4.83047,-8.8086 -7.86652,-12.6633zM153.90543,187.7278l2.79285,-1.1045c3.87351,4.46189 7.23857,10.0409 9.92901,15.29556c3.1856,6.23926 5.79243,12.77499 7.43645,19.56187c0.31638,1.30609 1.34734,4.60396 0.81136,5.59801c-1.14781,2.12871 -4.53815,2.337 -6.4471,1.7312c-0.57176,-0.18143 -3.34443,-2.3973 -3.89147,-2.80711c-3.57986,-2.68181 -6.94582,-5.38503 -10.29132,-8.37668c-3.47808,-3.52407 -7.59832,-7.21352 -11.51006,-10.31386c-2.09486,-1.66032 -4.95365,-3.58328 -4.33884,-6.8367c0.18096,-0.95749 1.15738,-1.56801 1.73581,-2.35222c3.04686,-4.13076 8.28187,-7.73687 12.78905,-10.15024c0,0 0.43465,-0.23204 0.9843,-0.24534z" fill="#868686"></path>
            <path d="M163.19238,203.663c3.0485,5.96743 5.5372,12.30211 7.10882,18.79107c0.24464,1.01009 1.03618,1.87579 1.11748,2.91189c0.04241,0.54045 -1.12171,0.03173 -1.6181,-0.18617c-1.1182,-0.49084 -1.90652,-1.52903 -2.88447,-2.26044c-3.46101,-2.58849 -6.74418,-5.18281 -9.97967,-8.0721c-3.60923,-3.59044 -7.81997,-7.44062 -11.83355,-10.62597c-0.31005,-0.24606 -3.31479,-2.14026 -2.95179,-2.88225c1.89332,-3.86997 8.91248,-8.01018 12.60536,-9.97511c0,0 0.25052,-0.13288 0.50865,-0.39169c3.03606,3.85468 5.75614,8.42787 7.92727,12.69074z" fill="#a2a2a2"></path>
          </g>
          <path d="M154.20304,194.59963c3.20569,-0.91503 7.45804,-5.26139 9.57955,-7.61758c0.70344,-0.78125 2.22145,-1.33493 2.07415,-2.37585c-0.11919,-0.84234 -1.03112,-2.29146 -1.8881,-3.57173c-3.66779,3.79421 -7.46109,6.64355 -12.44344,8.51523l-0.29638,0.12398c0.57041,1.52057 1.95149,5.21789 2.97419,4.92597zM163.30566,176.25518c1.69986,-0.97274 2.67261,0.72711 2.67261,0.72711c0.91588,1.60117 3.7651,5.43178 3.78715,7.36817c0.05549,4.8742 -7.04985,9.07605 -10.488,11.52847c-0.79138,0.56449 -3.64308,2.56762 -4.63516,2.61299c-4.57828,0.20936 -5.69285,-4.49062 -7.19896,-7.76497l-0.44798,-1.60623c0,0 -0.38552,-1.48795 0.84468,-2.16901c0.27295,-0.22086 0.51949,-0.32375 0.51949,-0.32375l1.79177,-0.74642c4.48853,-1.67593 7.84801,-4.25858 11.13867,-7.71233c0,0 0.41731,-0.43647 1.03088,-0.59295c0.0673,-0.45521 0.32426,-0.94305 0.98485,-1.32108z" fill="#343434"></path>
          <path d="M151.16563,189.68999l0.29627,-0.12438c4.98235,-1.87168 8.87997,-4.78775 12.54777,-8.58195c0.85698,1.28027 1.78778,2.75421 1.90696,3.59654c0.14729,1.04092 -1.36609,1.61067 -2.06952,2.39193c-2.12151,2.35619 -6.47329,6.76762 -9.67899,7.68265c-1.02272,0.29193 -2.4321,-3.44423 -3.00251,-4.96479z" fill="#434343"></path>
          <path d="M162.45604,212.63037c-0.75439,-1.80739 1.053,-2.56178 1.053,-2.56178l0.69422,-0.28019c4.08201,-2.17427 7.74612,-4.46846 9.63968,-8.8171c0,0 0.79324,-1.79067 2.58392,-0.99742c0.17712,0.07846 0.32896,0.16668 0.45879,0.26196c1.63457,-0.59292 2.38882,1.04691 2.38882,1.04691c0.6994,1.52104 1.37652,3.0527 2.02158,4.59756l0.17992,0.43105c0,0 0.5222,1.25106 -0.34318,2.10593c-1.13379,4.28548 -4.23388,8.3264 -8.19316,10.35851c-2.59328,1.33101 -6.06357,1.94667 -8.35654,-0.40924c-0.75505,-0.77575 -0.96699,-1.93713 -1.45049,-2.9057l-0.51894,-1.01248c0,0 -0.43958,-0.86075 -0.09648,-1.68172c-0.02106,-0.04373 -0.04147,-0.08914 -0.06116,-0.1363zM166.69125,213.82402c2.55195,6.4058 9.84355,-2.95603 10.78044,-6.93404c-0.34161,-0.80828 -0.69213,-1.61284 -1.05,-2.41411c-2.37208,3.93581 -5.95244,6.38064 -10.10056,8.62115z" fill="#343434"></path>
          <path d="M166.26331,213.12736c4.14809,-2.24051 7.82692,-4.76675 10.199,-8.70256c0.35788,0.80127 0.72402,1.6238 1.06564,2.43209c-0.93688,3.97801 -8.33819,13.41046 -10.89013,7.00467z" fill="#434343"></path>
          <g>
            <path d="M131.25814,188.06318c-0.86336,-0.25823 -0.64933,-1.1586 -0.64933,-1.1586c1.29271,-5.02217 8.02905,-4.10513 9.18761,0.71424c0.51642,2.14817 -1.49164,4.67049 -3.73566,4.56995c-2.53181,-0.11342 -4.10626,-2.01499 -4.80262,-4.12559zM133.46849,185.80619c-0.01487,0.15113 -0.05255,0.25548 -0.05255,0.25548l-0.46062,1.16464c0.4082,1.74347 4.0581,4.69544 4.8545,1.61193c0.57484,-2.22564 -2.61697,-4.16586 -4.34134,-3.03203z" fill="#868686"></path>
            <path d="M137.86988,188.8638c-0.7964,3.08353 -4.56985,0.09068 -4.97804,-1.65279l0.47504,-1.19244c0,0 0.04134,-0.10817 0.05621,-0.25931c1.72437,-1.13382 5.02163,0.8789 4.4468,3.10455z" fill="#a2a2a2"></path>
          </g>
          <g>
            <path d="M126.23337,166.77038c-0.02006,-0.02607 -0.03044,-0.04206 -0.03044,-0.04206c-2.70041,-5.02555 5.92977,-5.37076 7.8114,-1.36497c1.33145,2.83449 -0.02383,6.05892 -3.56134,5.81716c-2.24615,-0.15351 -3.23234,-1.7641 -4.25341,-3.47459zM127.567,165.27958c0.69683,0.20892 0.64297,0.997 0.64297,0.997l-0.11448,0.93816c0.6866,0.91539 1.17104,1.92162 2.49104,2.01183c2.21205,0.15118 2.80059,-2.49737 1.29245,-3.84434c-0.82189,-0.73405 -4.70039,-1.14069 -4.31197,-0.10265z" fill="#868686"></path>
            <path d="M131.92813,165.3393c1.50814,1.34697 0.88474,4.10218 -1.32731,3.951c-1.31998,-0.09022 -1.88344,-1.15172 -2.57005,-2.06712l0.11788,-0.96893c0,0 0.06092,-0.80201 -0.63591,-1.01093c-0.38842,-1.03804 3.59353,-0.63807 4.41542,0.09598z" fill="#a2a2a2"></path>
          </g>
          <g>
            <path d="M122.54077,177.03607c0.07066,-4.88347 9.28355,-2.59128 7.57513,3.29572c-1.48024,5.10075 -8.80557,1.95692 -7.79254,-2.83883zM124.71479,176.66291c0.02782,0.30704 -0.09823,0.56882 -0.09823,0.56882l-0.44751,0.91633c-0.49039,1.68998 2.49945,4.11152 3.77056,2.51996c2.73037,-3.41866 -2.05539,-4.2609 -3.22481,-4.00512z" fill="#868686"></path>
            <path d="M127.98248,180.71726c-1.27111,1.59156 -4.3655,-0.90055 -3.87514,-2.59052l0.46161,-0.93968c0,0 0.13432,-0.26922 0.1065,-0.57626c1.16942,-0.25577 6.03738,0.68782 3.30701,4.10647z" fill="#a2a2a2"></path>
          </g>
          <g>
            <path d="M133.87997,177.28531c-0.275,-0.23166 -0.35063,-0.58631 -0.35063,-0.58631c-1.11138,-6.30169 7.21997,-4.56845 7.95388,0.25784c0.78224,5.14408 -5.99497,5.17612 -7.65944,1.39331zM135.34786,175.84808c0.566,0.25948 0.51879,0.95041 0.51879,0.95041l-0.11051,1.23271c0.66749,1.82919 4.30128,1.44447 3.79472,-0.75539c-0.47908,-2.08061 -4.6448,-4.24375 -4.20301,-1.42771z" fill="#868686"></path>
            <path d="M139.61506,177.28768c0.50656,2.19986 -3.24533,2.60952 -3.91282,0.78034l0.09922,-1.2731c0,0 0.05393,-0.71638 -0.51207,-0.97587c-0.4418,-2.81605 3.84659,-0.61199 4.32567,1.46863z" fill="#a2a2a2"></path>
          </g>
          <path d="M169.03695,231.17132c-4.83363,2.10101 -3.44297,8.75725 -8.04298,10.95032c-3.10855,1.482 -6.24875,-1.29326 -8.00675,-3.24914c-2.69598,-6.37389 -0.12411,-12.98952 -2.06002,-19.4531c-1.35999,-4.54077 -4.1394,-7.27117 -7.55029,-10.23628c-0.29805,-0.05043 -0.98958,-0.22794 -1.38739,-0.81929c-6.1527,-2.08543 -11.1864,-5.28074 -16.76806,-8.63538c-3.85323,-4.33034 -7.8473,-8.6722 -10.56896,-13.84649c-4.69787,-8.93134 -4.1926,-23.09748 -1.15615,-32.47293c1.70061,-5.16368 4.5847,-7.76713 8.68492,-10.87819c1.74487,-1.32393 2.33532,-3.88344 4.17233,-5.07625c1.65209,-1.07274 6.88493,-1.64334 8.78515,-1.82524c4.98806,-0.47749 9.8217,0.82666 14.67033,2.05506c5.85919,1.48443 11.23333,2.53128 15.93272,6.58479c2.43277,1.48797 3.38901,3.24464 5.22526,5.3503c9.29895,10.66321 7.84462,23.17783 7.00357,36.13491c0.19426,0.25278 0.28515,0.47053 0.28515,0.47053c2.08824,5.42202 9.62478,9.03819 13.36792,13.49062c5.19681,6.18159 3.80339,16.2499 1.41165,23.26775c-0.03786,0.04486 -0.07564,0.08977 -0.11335,0.13467c-0.58955,0.04057 -1.03604,0.42992 -1.03604,0.42992c-1.04295,0.92803 -1.95155,2.02997 -2.66914,3.22749l-0.57562,1.39121c-1.61558,1.70369 -3.37148,3.14953 -5.56249,4.02028c-0.18033,-0.04784 -0.30707,-0.05651 -0.30707,-0.05651c-1.91054,-0.13057 -5.38421,-0.36798 -7.29474,-0.49855c0,0 -0.51494,-0.0352 -0.98545,0.22358c-1.78763,-0.7776 -3.56948,-1.50349 -5.45452,-0.68412zM155.51897,223.00018c0.25728,4.59549 -0.99149,9.43237 0.79467,13.804c4.0357,4.94994 4.81449,-3.19895 6.50858,-5.65642c0.71757,-1.04091 3.69141,-3.1782 4.77638,-3.6198c4.49762,-1.83058 7.11162,1.9645 10.96282,1.62037c5.596,-0.50005 7.66668,-4.25227 11.06015,-8.08564c1.58677,-5.29293 3.24839,-14.19144 -0.95,-18.77263c-4.37088,-4.7694 -11.40837,-8.59214 -14.03053,-14.5563c0,0 -0.08301,-0.19886 -0.12799,-0.49219c-0.52689,-0.61757 -0.46841,-1.47346 -0.46841,-1.47346c0.87413,-11.90988 2.51516,-23.77564 -6.02971,-33.57413c-1.63595,-1.87596 -2.36955,-3.51765 -4.55481,-4.7409c-4.32961,-3.73455 -9.20684,-4.60236 -14.61826,-5.97293c-4.37798,-1.10882 -8.8369,-2.39657 -13.3241,-1.95216c-1.46238,0.14484 -5.88697,0.46978 -7.13134,1.27485c-1.72956,1.11895 -2.21551,3.57273 -3.83462,4.84627c-3.41551,2.68654 -5.9098,4.49295 -7.32901,8.96683c-1.61777,4.99504 -1.71662,9.7119 -1.49698,14.88633c0.20948,4.93494 -0.07954,10.00869 2.39136,14.55238c2.56576,4.71814 6.16042,8.60104 9.60596,12.65973c5.39282,3.0915 10.09789,6.18639 16.04882,8.11373l1.66867,0.67965c0,0 0.9864,0.40544 1.20423,1.34586c4.79676,4.35835 8.48843,9.25758 8.87412,16.14656z" fill="#4e0e0e"></path>
        </g>
        <g>
          <path d="M228.53757,315.89204l0.42129,-0.44816c-1.18242,-1.50659 -2.40818,-2.97568 -3.71754,-4.36762c0.17722,2.28296 0.62463,4.69263 3.23991,5.02353c0.02246,-0.12534 0.05633,-0.20777 0.05633,-0.20777zM236.38532,324.19372l-0.25167,0.06583c0.0117,0.07926 0.01523,0.16653 0.00866,0.26258c-0.0583,0.85315 -0.81071,0.91035 -1.00051,0.91116l-0.68057,0.42768c0,0 -0.40464,0.16888 -0.7854,0.00988c-0.50901,0.14443 -0.97265,0.25032 -1.12198,0.20511c-0.95637,-0.28962 -3.50657,-4.33078 -3.72815,-5.32914c-0.18984,-0.85532 0.54314,-2.22514 0.91009,-3.22969l-1.04507,0.56725c-5.18059,-0.40889 -5.06858,-5.38303 -5.57358,-9.12698c0,0 -0.05153,-0.39678 0.1649,-0.71603c-0.08918,-0.3013 -0.09646,-0.53283 -0.09646,-0.53283l-0.06598,-2.09847c-0.05157,-1.89602 0.19669,-3.6635 0.23459,-5.519c-0.45377,-0.60809 -0.40044,-1.38831 -0.40044,-1.38831l0.04024,-0.03107c-0.73907,-5.87901 3.74906,-13.16421 10.77927,-11.63746c0.63842,0.13864 1.35968,0.52323 2.05908,0.97361c0.47895,0.14574 0.80561,0.42751 0.80561,0.42751c2.05705,2.03506 6.20206,0.87197 9.01,1.06074l1.7197,0.34666c0,0 0.95112,0.20285 1.36997,0.99289c0.94711,-0.1141 1.84998,-0.54393 2.79691,-0.37036c2.97938,0.54609 3.65216,4.71939 2.64876,6.96725l-0.68403,0.70157c0,0 -0.41998,0.36624 -0.90259,0.22936c0.50389,0.86856 1.00466,1.7429 1.49525,2.6221c0.05767,-0.02278 0.09479,-0.03241 0.09479,-0.03241l0.00001,0.00004c1.11465,-0.28717 2.7936,-0.86471 3.94822,-0.37311c2.44957,1.04297 3.49673,6.66423 1.65609,8.12617l-0.55716,0.49893c0,0 -0.50403,0.43956 -1.04228,0.17564c0.13329,0.33652 0.26205,0.67328 0.38589,1.0103l0.23419,0.35257c0,0 0.67521,1.1799 -0.0825,2.1362c0.29077,1.03171 -0.55718,1.87684 -0.55718,1.87684c-4.69553,4.60201 -11.7278,7.74933 -18.04037,9.38764l-1.87529,-0.02741c0,0 -0.25672,-0.01754 -0.57769,-0.13297c-0.54183,0.26585 -1.10391,0.22742 -1.10391,0.22742l-0.09836,-0.0471c-0.03035,0.00979 -0.06072,0.01961 -0.09107,0.0294zM230.73448,320.30841c0.77099,2.10433 1.68312,3.60783 3.43373,3.32084c0.09792,-0.14219 0.19903,-0.2823 0.30281,-0.42054c0.01877,-0.10218 0.05437,-0.19119 0.10017,-0.26848c-1.081,-1.43442 -2.1422,-2.89287 -3.21722,-4.34226c-0.3047,0.75685 -0.64979,1.62774 -0.61948,1.71046zM235.25775,325.37303c-0.01282,0.00414 -0.02667,0.00864 -0.04145,0.01346l-0.00777,0.00489zM257.94667,307.72914l0.77884,-0.66613c0.48815,-0.14794 -0.33952,-3.50138 -0.75336,-4.3545c-0.34733,-0.71598 -2.0803,-0.22385 -2.92095,0.03c0.95203,1.77804 1.844,3.57315 2.61839,5.37786c0.10556,-0.23764 0.27708,-0.38722 0.27708,-0.38722zM252.21208,296.65805l0.20664,-0.07515c1.81252,-3.34399 -0.83151,-3.67059 -3.04706,-3.73672c0.81723,1.41624 1.66905,2.85458 2.52145,4.31056c0.09273,-0.3014 0.31898,-0.4987 0.31898,-0.4987zM235.5977,292.64642c-4.52489,-3.29546 -9.25773,-0.22259 -8.76162,5.14835c0.41695,0.55042 0.43229,1.23458 0.43229,1.23458c0.0418,2.21503 -0.31407,4.25668 -0.23363,6.45766l0.05883,1.87149c3.93052,3.94964 7.10555,8.58308 10.45175,13.02164c0.49962,-0.20378 0.97815,-0.17106 0.97815,-0.17106l0.62577,0.14352c5.45932,-1.41189 11.92566,-4.11404 16.01363,-8.12621l-0.26491,-0.49214c-2.2231,-6.13833 -6.2523,-12.31312 -9.50145,-17.94691c0,0 -0.08746,-0.15281 -0.1641,-0.39305c-2.89418,-0.18029 -5.5068,0.2613 -7.99126,-0.39263c-0.86271,0.21027 -1.64346,-0.35521 -1.64346,-0.35521z" fill="#343434"></path>
          <g>
            <path d="M225.46412,294.99651c0.89086,0.26643 1.53695,-1.0579 2.36919,-1.47262c0.84428,-0.42071 5.63524,-2.7692 5.58477,-3.86606c-0.0136,-0.29564 -1.40379,-1.6576 -2.4038,-2.62689c-0.10846,0.10319 -0.21718,0.20522 -0.32631,0.30563c0.03808,-0.16657 0.10029,-0.31648 0.1769,-0.4504c-0.40159,-0.38892 -0.71843,-0.69541 -0.8194,-0.8112c0,0 -0.47633,-0.54622 -0.5172,-1.26386c-3.74293,-5.21845 -7.61168,-10.32351 -11.28554,-15.61857c-8.82939,-12.72742 -17.79341,-25.33224 -26.66035,-38.02368c-0.21741,-0.23327 -0.32856,-0.44147 -0.32856,-0.44147c-0.0171,-0.03211 -0.0357,-0.06845 -0.05569,-0.10866c-0.0597,-0.08549 -0.11939,-0.17099 -0.17908,-0.2565c0.01372,-0.0112 0.02717,-0.02253 0.04033,-0.03399c-0.53238,-1.14448 -1.59531,-3.65721 -2.25795,-3.98111c-0.66982,-0.32742 -3.64866,1.60621 -4.17867,1.94996c-3.52994,2.28947 -5.16785,3.31815 -2.12685,6.73202l0.22565,0.35628c0.0665,-0.0038 0.14879,-0.01175 0.24052,-0.02754c9.84139,12.35335 17.63032,26.22122 28.03633,38.13285c3.96601,5.72179 8.21743,11.33851 12.02067,17.181l0.48086,1.08784c-0.12614,0.07055 -0.25209,0.1416 -0.37778,0.21324c0.83002,1.23683 1.94076,2.90373 2.34198,3.02372zM237.33511,289.65798c-0.07343,3.75152 -6.5801,7.25644 -9.56392,8.33313c-1.02322,0.36924 -2.0978,1.08004 -3.15631,0.82925c-1.98759,-0.47091 -4.0198,-4.03015 -5.32336,-5.52334l-1.35924,-1.55867c0,0 -0.90682,-1.03986 -0.32543,-2.13513c-3.14819,-4.62099 -6.52648,-9.13728 -9.69849,-13.70524c-9.8223,-11.28309 -17.32331,-24.30148 -26.44913,-36.11758c-0.74249,-0.22133 -1.16468,-0.90682 -1.16468,-0.90682l-0.75086,-1.26999c-1.75338,-2.04379 -3.82804,-4.68613 -2.65836,-7.67401c0.35395,-0.90415 1.35921,-1.38772 2.06676,-2.05266c2.45174,-2.30408 7.64386,-6.59389 11.39013,-5.13098c1.71433,0.66945 3.3201,4.1248 4.23119,5.8787c8.92514,12.80844 17.98499,25.50214 26.88767,38.33522c4.08092,5.88352 8.40263,11.53122 12.52682,17.36139c-0.04394,0.03231 -0.08768,0.06502 -0.13123,0.0981c1.44008,1.49468 3.51038,3.60507 3.47841,5.23863z" fill="#343434"></path>
            <path d="M223.15179,292.03096c0.12571,-0.07164 0.19164,-0.25866 0.31778,-0.32922l-0.42002,-0.9723c-3.80324,-5.84249 -8.06648,-11.45438 -12.0325,-17.17617c-10.406,-11.91163 -18.25874,-25.88923 -28.10012,-38.24259c-0.09175,0.01577 -0.08353,0.11784 -0.15002,0.12165l-0.31629,-0.45025c-3.04101,-3.41388 -1.39513,-4.44908 2.13481,-6.73855c0.52999,-0.34374 3.51535,-2.28137 4.18517,-1.95396c0.66265,0.32391 1.78701,2.95187 2.31939,4.09635c-0.01317,0.01145 -0.02652,0.02274 -0.04024,0.03393c0.0597,0.08551 0.05804,0.05574 0.11773,0.14123c0.01999,0.04021 0.0386,0.07656 0.0557,0.10867c0,0 0.11129,0.20811 0.3287,0.44138c8.86694,12.69144 17.9132,25.39378 26.74258,38.12121c3.67387,5.29507 7.53524,10.40822 11.27817,15.62667c0.04087,0.71764 0.51653,1.26448 0.51653,1.26448c0.10097,0.11579 0.41791,0.42219 0.8195,0.81111c-0.0766,0.13391 -0.22577,0.18642 -0.26386,0.35299c0.10915,-0.10042 0.21724,-0.20191 0.32572,-0.30509c1,0.96931 2.4778,2.42809 2.49139,2.72373c0.05047,1.09685 -4.74955,3.45222 -5.59383,3.87293c-0.83225,0.41472 -1.48239,1.74138 -2.37324,1.47497c-0.40122,-0.11998 -1.51302,-1.78633 -2.34304,-3.02317z" fill="#434343"></path>
          </g>
          <path d="M257.68562,308.17964c-0.77439,-1.80471 -1.72204,-3.71497 -2.67407,-5.493c0.84065,-0.25383 2.63856,-0.75433 2.98589,-0.03834c0.41384,0.85312 1.26146,4.31384 0.77331,4.46177l-0.79976,0.67964c0,0 -0.17981,0.15228 -0.28537,0.38991z" fill="#888888"></path>
          <path d="M251.91554,297.21806c-0.85239,-1.45598 -1.7674,-3.00663 -2.58463,-4.42287c2.21555,0.06612 4.94229,0.49375 3.12976,3.83774l-0.21213,0.07927c0,0 -0.24029,0.20446 -0.333,0.50585z" fill="#888888"></path>
          <path d="M235.57415,292.58556c0,0 0.78709,0.5634 1.6498,0.35313c2.48445,0.65392 5.1353,0.21348 8.02948,0.39378c0.07664,0.24023 0.1654,0.3935 0.1654,0.3935c3.24916,5.63379 7.31683,11.89367 9.53993,18.03201l0.26434,0.49354c-4.08797,4.01217 -10.62242,6.75395 -16.08174,8.16584l-0.62868,-0.14393c0,0 -0.48265,-0.03355 -0.98228,0.17023c-3.34619,-4.43855 -6.5714,-9.13032 -10.50191,-13.07995l-0.05895,-1.88034c-0.08044,-2.20098 0.28295,-4.26967 0.24115,-6.48469c0,0 -0.0136,-0.68723 -0.43055,-1.23765c-0.4961,-5.37094 4.26908,-8.47099 8.79397,-5.17553z" fill="#434343"></path>
          <path d="M230.29106,303.85332c-0.19318,-5.31553 11.02652,-0.80887 6.4818,4.34799c-2.99892,3.40287 -8.07442,-0.54288 -6.4818,-4.34799zM231.87627,305.59409c0.15227,1.54449 2.31623,2.67388 3.42695,1.31266c1.56985,-1.9239 -1.05015,-3.56563 -2.37596,-3.52524c-0.04713,0.38571 -0.35179,0.65141 -0.35179,0.65141l-0.28555,0.21023c-0.00224,0.00299 -0.00449,0.00598 -0.00673,0.00896c0.01695,0.05464 0.03823,0.11209 0.06401,0.17239c0,0 0.26454,0.81945 -0.47093,1.16958z" fill="#343434"></path>
          <path d="M228.57271,315.94705c0,0 -0.037,0.08429 -0.05946,0.20963c-2.61528,-0.3309 -3.13305,-2.85029 -3.31028,-5.13325c1.30936,1.39193 2.62015,2.9595 3.80257,4.46609l-0.43284,0.45753z" fill="#888888"></path>
          <path d="M230.67448,320.28274c-0.03031,-0.08272 0.34455,-0.98577 0.64926,-1.74262c1.07503,1.44939 2.21374,3.01072 3.29474,4.44514c-0.04581,0.07729 -0.08597,0.17066 -0.10473,0.27283c-0.10377,0.13824 -0.21413,0.28502 -0.31205,0.42721c-1.75061,0.28699 -2.75622,-1.29825 -3.52722,-3.40258z" fill="#888888"></path>
          <path d="M258.24861,307.17053c-0.25707,0.94491 -1.20198,0.68784 -1.20198,0.68784l-0.48449,-0.28809c-1.8031,3.92404 -8.40735,8.91595 -11.87089,3.8862c-3.50659,-5.53469 -6.10504,-11.80902 -9.85719,-17.29729c-1.29363,-1.0804 -2.51199,-2.36664 -3.8807,-3.54721c0,0 -0.60459,-0.52148 -0.25106,-1.16859c-1.40246,-1.58561 -2.83919,-3.10215 -4.24921,-4.66987c-0.85621,0.30761 -1.21504,-0.55209 -1.21504,-0.55209l-0.09576,-0.49784c-5.70751,-5.07236 -9.77808,-13.16629 -13.93487,-19.57542c-4.11772,-6.38572 -9.34924,-12.00901 -13.56241,-18.31645c-0.51045,-0.0781 -0.73204,-0.60903 -0.73204,-0.60903l-0.49503,-1.20015c-0.24102,-0.34445 -0.48203,-0.6889 -0.72304,-1.03334c-3.69108,-5.99631 -7.1049,-12.26283 -10.90828,-18.12843c0,0 -0.00163,-0.00252 -0.00459,-0.0074c-0.07626,-0.06454 -0.14233,-0.14043 -0.19579,-0.22483l-0.56209,-0.86686l0.0205,-0.01329l-0.04685,-0.02975c-0.24382,-0.47624 -0.48675,-0.95204 -0.72954,-1.42721c-0.74714,-0.82025 -1.09173,-1.97852 -1.7049,-3.17915c-0.98731,-1.9332 -2.10004,-3.78497 -3.19639,-5.65847c-0.04098,0.00928 -0.08309,0.01779 -0.12634,0.02552l0.00002,0.00001c-1.928,0.34436 -2.27236,-1.58365 -2.27236,-1.58365l-0.11937,-0.70108c-0.73218,-2.92732 -2.52719,-5.1796 -4.04351,-7.74401c-4.01012,-6.78185 -7.25866,-13.85668 -13.33076,-19.08689c0,0 -1.48304,-1.27919 -0.20383,-2.76224c1.2792,-1.48305 2.76223,-0.20383 2.76223,-0.20383c6.42173,5.54627 9.90177,12.88659 14.14639,20.06328c1.71995,2.90806 3.58068,5.44253 4.46128,8.75128l0.18354,0.99478c0,0 0.04926,0.27586 0.00619,0.63752c1.17119,1.93805 2.25571,3.91672 3.3072,5.91881c0.11782,0.2211 0.23387,0.44288 0.34789,0.66541c0.60366,1.15958 1.19827,2.32636 1.79415,3.49702l0.01157,-0.00663l0.95519,1.66917c0.11886,0.10736 0.18344,0.20695 0.18344,0.20695c3.80328,5.86544 7.21065,12.1281 10.90402,18.12187c0.2673,0.38826 0.53459,0.77657 0.8019,1.16483l0.27362,0.64892c0.28709,0.13405 0.45157,0.38769 0.45157,0.38769c4.25448,6.59768 9.69621,12.37447 13.98973,18.96408c3.881,5.9869 7.84267,14.25901 13.29661,18.92733c0.45893,-0.02204 0.78944,0.35698 0.78944,0.35698c1.85802,2.13061 3.78507,4.11564 5.64539,6.2489l0.77671,0.89067c0,0 0.12271,0.14072 0.19952,0.35283c0.50158,-0.07669 0.8725,0.34865 0.8725,0.34865l0.70969,0.82106c1.1842,0.90621 2.38341,2.14964 3.72678,2.82041c0.90084,0.44979 1.91473,0.67445 2.98363,0.76111l0.22288,-0.04012c0.30912,-0.33736 0.8083,-0.30324 0.8083,-0.30324c0.98631,0.06741 1.96232,0.19116 2.9306,0.21209c0.79408,-0.08434 1.58098,-0.18589 2.33982,-0.27339l-0.04429,-0.1061l1.2751,-0.53221c0.14064,-0.06219 0.29804,-0.09207 0.46213,-0.08086c0.53957,0.03688 0.94708,0.50417 0.9102,1.04374c-0.02212,0.3237 -0.19915,0.59987 -0.45378,0.76108l-0.86686,0.56209l-0.03331,-0.05137l-0.07902,0.11413c-0.72834,0.23678 -1.43642,0.3682 -2.14004,0.43234c-0.72899,0.17059 -1.5663,0.20077 -2.26755,0.2251c-0.42553,0.01476 -0.83795,0.01449 -1.23885,-0.00031c-0.29776,0.42354 -0.87339,0.3842 -0.87339,0.3842c-0.71901,-0.0516 -1.43645,-0.15782 -2.14128,-0.31452c-0.7926,-0.01677 -1.51884,-0.1437 -2.19624,-0.35666c2.7124,4.67487 4.93823,9.72241 7.86906,14.10443c0.69004,1.18131 1.46552,1.02776 2.73259,0.86017c3.84882,-0.50905 4.2749,-3.0218 6.92238,-5.55376l1.57125,0.2712c0,0 0.94491,0.25707 0.68784,1.20198z" fill="#1f1f1f"></path>
          <path d="M235.69731,321.83544c-0.64361,-0.73805 0.09444,-1.38166 0.09444,-1.38166l0.78809,-0.5822c3.69509,-1.18072 4.49286,-3.47141 5.91759,-6.71803c-0.3477,-3.13022 -2.82149,-4.77669 -4.85062,-6.84204c-1.93071,-1.96517 -3.89754,-3.73735 -5.79585,-5.5978c0.01658,0.30422 0.02474,0.61016 0.02473,0.9169c0.01084,0.05601 0.0215,0.11206 0.03196,0.16818c0,0 0.04728,0.2647 -0.04642,0.54147c-0.14283,3.52657 -1.33549,7.06927 -3.19964,9.27704l0.17847,0.26085c0,0 -0.06677,0.97697 -1.04374,0.9102h-0.00001c-0.97697,-0.06677 -0.9102,-1.04374 -0.9102,-1.04374l0.29244,-1.40651c0.67921,-0.76513 1.25847,-1.78175 1.70886,-2.93962c-0.09064,-0.03597 -0.18492,-0.08921 -0.28196,-0.16395l-0.00003,0.00002c-0.77586,-0.59748 -0.17837,-1.37334 -0.17837,-1.37334l0.35313,-0.42413c0.70085,-1.44092 1.01029,-2.82427 1.03117,-4.16212c-0.47231,-2.19731 -1.27501,-4.33889 -2.15686,-6.47969c-0.23513,-0.23367 -0.48993,-0.44644 -0.76517,-0.63554c0,0 -0.80339,-0.5599 -0.24348,-1.3633c0.01687,-0.02423 0.03399,-0.04719 0.05128,-0.06899c-0.63555,-0.99947 -1.30969,-1.98625 -1.96199,-2.96742c-0.35727,-0.10082 -0.57349,-0.41249 -0.57349,-0.41249l-0.73038,-1.05544c-2.98114,-3.41854 -6.73736,-6.08314 -9.21818,-9.90907c-4.03757,-6.26141 -7.79684,-14.95285 -13.41807,-19.86685c-3.88442,-5.88285 -8.66831,-10.96066 -11.90174,-17.25359c-0.1847,-0.17321 -0.26914,-0.37552 -0.26914,-0.37552l-0.49029,-1.19159c-1.14673,-1.57684 -2.10871,-3.059 -3.39612,-4.54436c-3.29205,-5.81602 -7.69769,-11.13901 -11.40947,-16.75557c-1.32711,0.32941 -2.07317,-0.97431 -2.07317,-0.97431l-0.69165,-1.21472c-6.15698,-9.49546 -13.30328,-19.78477 -17.1971,-30.45237c0,0 -0.67155,-1.83979 1.16823,-2.51132c1.83979,-0.67155 2.51132,1.16824 2.51132,1.16824c3.79228,10.38944 10.80901,20.4186 16.80411,29.66439l0.8048,1.40028c0,0 0.47172,0.82435 0.18413,1.65342c3.72557,5.67787 8.11581,11.04167 11.49455,16.88647c1.34071,1.52676 2.3299,3.08593 3.50875,4.72212l0.53526,1.26695c0.14402,0.14024 0.21664,0.28243 0.21664,0.28243c3.17159,6.21006 7.96216,11.07406 11.67701,16.94181c5.72475,4.86293 9.49424,13.80972 13.58526,20.08852c2.43717,3.7586 6.18536,6.40589 9.11991,9.77098l0.21022,0.30232c0.39632,0.08877 0.62987,0.44897 0.62987,0.44897c0.52316,0.80681 1.05879,1.61144 1.58381,2.4181l0.73042,0.61216c0.23079,0.55291 0.4627,1.10391 0.69251,1.65404c0.38136,0.6399 0.74285,1.28344 1.0733,1.93269c0.59131,0.83958 1.04042,1.79645 1.36013,2.82495c4.61085,4.6528 12.57357,9.45523 13.17838,16.15787c-1.55917,3.99664 -2.85047,6.86173 -7.2534,8.29583l-0.10257,0.19449c0,0 -0.73805,0.6436 -1.38165,-0.09444z" fill="#1f1f1f"></path>
          <path d="M237.23434,297.67304c-2.1226,-5.38648 6.79769,-4.73726 7.75865,-0.28713c0.59319,2.74702 -2.74838,5.26959 -5.29974,4.22966c-1.24742,-0.50844 -1.85467,-2.01317 -2.41311,-3.10381zM238.92115,296.75224c0.14029,0.15456 0.20301,0.34292 0.23067,0.49291c0.03547,0.15735 0.0517,0.36962 -0.03103,0.57802c0.28118,0.61476 0.73204,1.73519 1.31703,1.98096c0.9839,0.41339 2.96526,-0.73432 2.65926,-1.92702c-0.5102,-1.98853 -5.07095,-2.90143 -4.17592,-1.12486z" fill="#343434"></path>
          <g>
            <path d="M238.40868,308.68102c-0.00107,-0.04059 -0.00018,-0.08297 0.00284,-0.1272c0.06677,-0.97697 1.04375,-0.9102 1.04375,-0.9102l1.26355,0.18998c1.30993,0.77571 2.13506,1.37462 2.94085,2.32722c-0.15268,-1.59563 0.20212,-3.12762 1.16628,-3.85264c0.02212,-0.41595 0.35674,-0.70776 0.35674,-0.70776l0.79421,-0.43273c2.55614,-0.16664 3.97634,0.45364 5.87345,2.09736c2.94992,3.4945 -0.5147,9.66606 -5.25601,7.80469c-0.91615,-0.35966 -1.64533,-1.16799 -2.15177,-2.16369c-0.05236,0.25829 -0.12508,0.50944 -0.2159,0.75223c0.5561,2.65123 -2.92175,4.39277 -5.24469,3.63575c-0.03502,-0.01141 -0.06944,-0.02352 -0.10326,-0.03629c-1.43833,-0.10368 -2.78043,-0.95905 -3.50343,-2.85711c-1.29467,-3.39882 0.48122,-5.85873 3.0334,-5.71958zM238.69989,311.70894c0.25388,0.36687 0.12658,0.83483 0.12658,0.83483l-0.24555,0.74796c0.14451,0.38205 0.37497,1.61626 0.7742,2.01364c1.03779,-0.00495 2.16407,-0.60742 2.804,-1.50239c-0.64703,-0.84797 -2.62013,-2.25114 -3.4592,-2.09405zM246.65387,308.29935c0.00053,0.00041 0.00104,0.0008 0.00157,0.0012c0.77586,0.59748 0.17838,1.37333 0.17838,1.37333l-0.27439,-0.27259c-0.00331,0.01014 -0.00679,0.02033 -0.01047,0.03055c0.23712,0.77456 0.46986,2.2184 1.21797,2.65772c0.92892,0.54548 3.09302,0.11599 2.86097,-1.25884c-0.26299,-1.55823 -3.39132,-3.28316 -3.97403,-2.53138z" fill="#343434"></path>
            <path d="M238.65656,311.66012c0.83908,-0.15709 2.92034,1.30271 3.56737,2.15068c-0.63994,0.89497 -1.86415,1.54587 -2.90194,1.55082c-0.39924,-0.39738 -0.66098,-1.69849 -0.80549,-2.08053l0.2559,-0.77392c0,0 0.13802,-0.48018 -0.11585,-0.84705z" fill="#888888"></path>
            <path d="M246.608,308.25292c0.58271,-0.75178 3.81981,1.0371 4.0828,2.59533c0.23203,1.37485 -2.02194,1.84624 -2.95086,1.30075c-0.74811,-0.43932 -1.01433,-1.9672 -1.25145,-2.74175c0.00368,-0.01022 0.12775,0.02965 0.13106,0.01951l0.15239,0.22638c0,0 0.61349,-0.80156 -0.16236,-1.39903c-0.00054,-0.0004 0.09072,0.09206 0.09019,0.09166z" fill="#888888"></path>
            <path d="M230.34112,305.08931c-0.21398,-0.16152 -0.32206,-0.37318 -0.32206,-0.37318c-2.11564,-4.77357 5.38659,-5.80591 7.44504,-2.24524c3.12924,5.41291 -3.76983,10.42763 -6.96222,4.37219l-0.24333,-1.12114c0,0 -0.05821,-0.32595 0.08258,-0.63263zM231.7852,304.72292c0.32663,0.23629 0.40136,0.65467 0.40136,0.65467l0.05954,0.5747c1.86822,3.824 5.34349,0.73795 3.55481,-2.44724c-0.86731,-1.54449 -5.36539,-1.6954 -4.03763,0.32029c0,0 0.24057,0.47105 0.02192,0.89758z" fill="#343434"></path>
            <path d="M231.70673,303.79269c-1.32776,-2.01569 3.27815,-1.8725 4.14547,-0.32801c1.78868,3.1852 -1.79462,6.34392 -3.66284,2.51993l-0.06678,-0.59389c0,0 -0.07534,-0.44123 -0.40196,-0.67751c0.21865,-0.42653 -0.01389,-0.92051 -0.01389,-0.92051z" fill="#888888"></path>
            <path d="M239.1777,295.55587c0.03786,0.69725 -0.68944,0.93204 -0.68944,0.93204c-2.24758,0.30448 0.34802,3.73053 1.63484,4.09963c3.78653,1.08603 4.32423,-4.06036 0.58407,-5.13414c-0.31992,0.04635 -0.63984,0.0927 -0.95974,0.13904zM237.70265,294.70365c-0.00798,-0.06988 -0.00976,-0.14573 -0.00414,-0.22802c0.06677,-0.97697 1.04375,-0.9102 1.04375,-0.9102l0.9455,0.06939c0.38431,-0.04512 0.76864,-0.09026 1.15296,-0.13539c1.72519,0.45558 3.78226,1.32707 4.44726,3.1882c1.20224,3.36473 -2.37402,6.66409 -5.6655,5.79332c-3.45616,-0.91432 -5.60845,-6.08433 -1.91981,-7.77733z" fill="#343434"></path>
            <path d="M239.73024,295.52946c0.31992,-0.04635 0.6641,-0.09461 0.98401,-0.14096c3.74016,1.07379 3.18769,6.3499 -0.59884,5.26387c-1.28683,-0.36908 -3.92533,-3.90123 -1.67775,-4.20571c0,0 0.74888,-0.252 0.71102,-0.94926z" fill="#888888"></path>
            <path d="M241.09153,301.08782c-0.17218,-0.964 0.79183,-1.13618 0.79183,-1.13618l0.27464,0.0089c0.48847,-0.26527 0.92755,-0.64817 1.25681,-1.096c0,0 0.59748,-0.77586 1.37333,-0.17837c0.77586,0.59749 0.17837,1.37334 0.17837,1.37334c-0.5052,0.63559 -1.13736,1.18686 -1.83577,1.6009l-0.90304,0.21924c0,0 -0.964,0.17217 -1.13618,-0.79183z" fill="#343434"></path>
          </g>
        </g>
      </g>
      <g stroke-width="0.5">
        <path d="M133.20065,167.72119l0.36306,0.23275c1.85711,1.17261 3.91419,2.18777 6.09701,2.43109c0.17669,0.0197 0.32283,0.12945 0.498,0.13923c-0.18881,0.13877 -0.933,0.75762 -0.59296,1.6796c-2.32183,3.31553 -6.01142,5.659 -9.6388,3.16021c-5.81249,-4.00403 -8.55707,-12.29059 -11.035,-18.53972c-0.95522,-7.73815 2.55926,-12.14452 9.02988,-15.54761c1.22949,-0.64661 2.45838,-1.60811 3.84746,-1.62362c3.43364,-0.03832 5.80692,3.57259 9.28962,3.68401c2.0251,0.06479 4.75268,-1.5563 6.62752,-2.81726c1.81718,2.01269 4.61093,3.78188 6.00161,5.66253c3.11065,4.20658 6.70091,9.66476 9.12321,14.34467c0.93347,1.80345 0.73491,3.06526 2.37464,4.45512c0.19874,1.59874 -0.15475,3.24512 0.04653,4.84418c0.10162,0.80724 1.29429,2.75029 1.11212,3.84799c-1.06579,6.42228 -10.50155,6.50107 -14.4589,2.64029c1.09013,-0.81133 0.28457,-2.07888 0.28457,-2.07888l-0.2557,-0.38933c-0.66033,-1.0231 -1.25576,-2.15043 -1.77611,-3.21651c2.05957,1.8522 3.48767,3.23358 6.20539,3.86536c0,0 1.46201,0.32213 1.78062,-1.14364c0.31862,-1.46577 -1.07423,-1.71597 -1.07423,-1.71597c-2.07876,-0.40731 -3.21006,-1.66474 -4.74406,-3.07342c0.29042,-0.10235 0.54318,-0.25106 0.7292,-0.49743c0.00107,-0.00143 0.00216,-0.00286 0.00324,-0.0043c0.04959,-0.0318 0.09921,-0.06347 0.1498,-0.096l0.03435,-0.12213l0.04826,0.05572l1.49663,-1.29292c0.24313,-0.2058 0.42106,-0.48731 0.49395,-0.82262c0.17597,-0.80953 -0.24836,-1.56355 -1.05787,-1.73952c-0.48564,-0.10556 -0.96923,0.04058 -1.31504,0.34638l-1.30131,1.12871c-0.57839,-0.11498 -1.13622,0.39942 -1.70203,0.58693l-1.4331,0.03181c0,0 -0.82354,0.02948 -1.23278,0.64537c-0.30926,0.05195 -0.67131,0.20152 -0.91597,0.57157c-4.01532,-0.44511 -7.31338,0.68617 -11.19531,-1.86038l-0.36523,-0.23548c0,0 -1.17824,-0.8654 -1.98907,0.39656c-0.81082,1.26197 0.44678,2.06667 0.44678,2.06667z" fill="#b7b7b7"></path>
        <path d="M170.22024,161.89258c-2.90868,1.55403 -5.27874,-5.82486 -6.72133,-7.86899c-2.34583,-3.32403 -4.15894,-7.2317 -6.55169,-10.47911c-3.07232,-4.16969 -10.07977,-6.58822 -4.05545,-11.4321c0.57127,-0.45933 1.2049,-0.84588 1.80473,-1.26722c0,0 0.05872,-0.04135 0.1464,-0.1192c10.08848,4.67833 15.60342,15.3377 21.34991,24.4392c-0.48744,0.74493 -0.35998,1.43863 -0.1219,1.9295c-1.78458,1.83244 -3.52976,3.30809 -5.85066,4.7979z" fill="#b7b7b7"></path>
        <path d="M135.68513,154.31107c-1.44929,0.38671 -1.83599,-1.06258 -1.83599,-1.06258l-0.26993,-1.01736c-0.79569,-2.54047 -1.92303,-4.82112 -2.7777,-7.33459c0,0 -0.48093,-1.42082 0.9399,-1.90174c1.42082,-0.48093 1.90174,0.9399 1.90174,0.9399c0.85351,2.53423 1.98658,4.83337 2.79752,7.39526l0.30707,1.14512c0,0 0.38671,1.44929 -1.06259,1.83599z" fill="#6b6b6b"></path>
        <path d="M136.00895,162.16668c-1.45352,0.37052 -1.82403,-1.083 -1.82403,-1.083l-0.02919,-0.42609c-1.79362,-2.82702 -3.24121,-6.23534 -4.32283,-9.42214c0,0 -0.48093,-1.42082 0.93989,-1.90174c1.42082,-0.48093 1.90174,0.9399 1.90174,0.9399c0.99097,2.93619 2.32234,6.18693 4.00473,8.7617l0.4127,1.30733c0,0 0.37052,1.45353 -1.08301,1.82404z" fill="#6b6b6b"></path>
        <path d="M132.71112,165.68046c0.81082,-1.26197 2.0728,-0.45115 2.0728,-0.45115l0.36409,0.23392c3.88192,2.54655 7.12351,1.39833 11.13884,1.84344c0.24467,-0.37006 0.60099,-0.51718 0.91025,-0.56914c0.40923,-0.61589 1.22583,-0.64115 1.22583,-0.64115l1.42829,-0.02785c0.56581,-0.1875 1.11825,-0.696 1.69665,-0.58103l1.29702,-1.12217c0.3458,-0.30579 0.82762,-0.4484 1.31327,-0.34283c0.80953,0.17597 1.32312,0.97487 1.14715,1.7844c-0.07289,0.33532 -0.25265,0.61986 -0.49579,0.82566l-1.50102,1.29869l-0.04825,-0.05576l-0.03465,0.12247c-0.0506,0.03252 -0.10065,0.0647 -0.15024,0.09649c-0.00107,0.00143 -0.00217,0.00287 -0.00324,0.00431c-0.18602,0.24636 -0.44112,0.39744 -0.73153,0.49981c1.53399,1.40867 2.59398,2.59611 4.67274,3.0034c0,0 1.46577,0.31862 1.14715,1.78439c-0.31862,1.46577 -1.7844,1.14714 -1.7844,1.14714c-2.71772,-0.63179 -4.15275,-2.00824 -6.21233,-3.86044c0.52035,1.06609 1.06541,2.10704 1.72573,3.13014l0.30589,0.47581c0,0 0.75829,1.17951 -0.33185,1.99083c3.95735,3.86076 13.373,3.80009 14.43877,-2.6222c0.18216,-1.09769 -1.01317,-3.03596 -1.11478,-3.8432c-0.20128,-1.59905 0.14883,-3.23639 -0.0499,-4.83512c-1.63972,-1.38986 -1.44273,-2.64225 -2.3762,-4.4457c-2.42229,-4.6799 -5.99366,-10.09539 -9.10431,-14.30197c-1.39068,-1.88064 -4.16459,-3.64035 -5.98177,-5.65303c-1.87484,1.26096 -4.58391,2.88276 -6.60901,2.81798c-3.4827,-0.11142 -5.83774,-3.72884 -9.27138,-3.69053c-1.38907,0.01549 -2.61086,0.97187 -3.84035,1.61848c-6.47063,3.40308 -9.96806,7.77644 -9.01283,15.51459c2.47793,6.24913 5.20475,14.49249 11.01725,18.49653c3.62739,2.49879 7.29914,0.14578 9.62098,-3.16975c-0.34005,-0.92198 0.40377,-1.54094 0.59258,-1.67971c-0.17516,-0.00977 -0.35103,-0.02408 -0.52773,-0.04377c-2.18281,-0.24332 -4.26135,-1.27266 -6.11845,-2.44527l-0.36409,-0.23393c0,0 -1.26198,-0.81082 -0.45114,-2.07279zM169.40971,169.21916c0.21274,1.70935 1.35404,3.34183 1.11005,5.047c-1.43946,10.05933 -14.12085,10.61035 -20.64497,5.63476c-2.5371,-1.9349 -3.7322,-4.9716 -5.40979,-7.66679c-3.18802,6.21069 -10.0526,10.97448 -16.83027,6.66478c-6.79081,-4.31805 -10.11162,-13.88631 -12.82618,-21.02725c-1.22474,-9.69022 2.8447,-16.03422 11.22209,-20.36083c1.79649,-0.92781 3.67737,-2.0554 5.6992,-2.07686c3.83444,-0.04068 6.09551,3.54851 9.43501,3.69117c1.23657,0.05283 3.59634,-1.67797 4.69226,-2.47141c-0.3242,-4.13023 3.39234,-7.11202 6.40527,-9.2472c0,0 0.57961,-0.40904 1.30604,-0.42075c0.95144,-1.03154 2.37373,-0.40348 2.37373,-0.40348c9.13166,4.11715 16.85564,14.12483 22.12206,22.45656c1.56826,2.48107 2.39831,5.10678 4.0867,7.46077l-1.84618,1.25847l0.21168,0.75437c-2.65651,2.9235 -5.04247,5.01957 -8.39324,7.13845c-1.22225,0.40989 -2.02296,0.79479 -2.73215,0.97227c-0.03875,0.86835 -0.08822,1.73736 0.01864,2.59599zM176.03208,157.06319c-0.23809,-0.49087 -0.36853,-1.18048 0.11891,-1.92541c-5.7465,-9.1015 -11.19636,-19.6892 -21.28484,-24.36754c-0.08767,0.07784 -0.14595,0.11895 -0.14595,0.11895c-0.59984,0.42132 -1.22825,0.80464 -1.79952,1.26397c-6.02431,4.84389 0.99896,7.24393 4.07128,11.41364c2.39275,3.2474 4.15915,7.0828 6.50499,10.40682c1.44259,2.04413 3.7937,9.42757 6.70238,7.87354c2.3209,-1.4898 4.04816,-2.95153 5.83273,-4.78397z" fill="#6b6b6b"></path>
      </g>
      <g stroke-width="0.5">
        <path d="M171.77783,262.04812c0.08902,-1.91853 -0.47095,-3.51881 0.12217,-5.45712c0.19694,-0.64363 0.48498,-1.2539 0.77135,-1.86508c-0.37699,-0.04295 -0.82104,-0.13096 -1.43358,-0.28224l0.00001,-0.00001c-0.72522,-0.17911 -1.47917,-0.3432 -2.11957,-0.72779c-0.24127,-0.14489 -0.14437,-0.94083 -0.3622,-0.76264c-0.23036,0.18845 0.24375,0.56106 0.24479,0.85869c0.00433,1.22686 -0.29373,2.43714 -0.37869,3.66107c-0.321,4.62428 0.37917,8.21231 1.23741,12.65661c0.40552,2.09991 0.47457,3.11564 1.93531,4.79353c1.22991,0.12719 2.35587,0.47275 3.52334,0.75401c-2.13912,-4.2417 -3.7548,-9.00634 -3.54031,-13.62906zM169.5082,278.53341l-0.61103,-0.85743c-5.56431,-5.67699 -6.23625,-12.96143 -5.41138,-20.61937c0.28842,-2.67757 -0.17644,-6.6121 3.12056,-7.81942c0.20821,-0.07625 0.42326,-0.10085 0.64239,-0.09475c0.25449,-0.19423 0.49981,-0.27328 0.49981,-0.27328l1.52501,-0.02981c0.93554,0.47956 1.86867,0.96395 2.79776,1.45593c2.03305,0.34723 1.85248,-0.51826 3.76973,-1.09193c1.74433,-0.52192 4.27714,-0.03674 6.00136,0.40286c2.88373,0.7352 5.61041,3.06563 8.53214,3.47214c0.57873,0.08052 1.17885,-0.21321 1.75048,-0.09221c1.47548,0.31234 1.41732,1.15256 2.85561,1.01872c4.15762,-0.38689 5.64591,-5.07402 8.92218,-7.10782c3.72406,-1.22594 6.88891,-1.77242 10.58532,-0.60365c1.29339,0.40896 2.81401,0.47242 3.83257,1.36832c1.96897,1.73186 2.88446,4.82639 2.35548,7.43231c3.29316,0.73565 6.71747,3.1924 6.97374,6.66977c0.11832,1.60568 -0.46357,3.14962 -1.19509,4.58013c2.45633,0.93146 3.98718,2.61105 4.2508,6.22247l-0.14929,1.21115c0,0 -0.1493,0.97523 -0.99665,1.22278c-0.22213,0.54569 -0.56586,1.04094 -1.05028,1.44876c-1.19564,1.00656 -2.83356,0.8697 -4.43805,0.84291c-0.18593,0.76701 -1.02268,1.03662 -1.02268,1.03662c-4.35665,1.25167 -1.06596,4.32221 -2.30312,7.2966c-0.54532,1.31111 -2.1588,2.16158 -3.28671,2.86258c-5.01744,3.11834 -11.78921,3.41973 -17.48798,2.57397c-5.57338,-0.8533 -10.70614,-1.73199 -15.88173,-3.92685c-2.12016,-0.89912 -3.03941,-2.14947 -4.51803,-3.68021c-2.095,-2.16884 -4.63588,-2.74103 -7.44804,-3.17158l-1.46405,-0.66397c0,0 -0.43599,-0.22348 -0.6819,-0.66419c-0.29642,-0.18665 -0.4689,-0.4215 -0.4689,-0.4215zM223.79121,269.98144c-0.02655,-0.02392 -0.05294,-0.048 -0.07915,-0.07226l-0.00986,0.01393l-0.19191,-0.13572c-1.26344,-0.22147 -2.91238,-0.10487 -3.99554,0.08601c-0.94317,1.03796 -1.897,2.06757 -2.83206,3.13763c-3.09516,3.44236 -1.02975,7.73083 -3.44905,11.12455c-0.24562,0.34453 -0.49883,0.6572 -0.75928,0.94092c0.12517,-0.06476 0.24768,-0.1344 0.36732,-0.20916c0.72677,-0.72021 1.68134,-1.25257 2.2139,-2.12622c1.33989,-2.19809 0.85204,-5.02666 2.40778,-7.14819c0.67383,-0.91887 2.3225,-2.29213 3.42571,-2.66209c0.7309,-0.24511 3.39281,0.27725 3.97841,-0.59864c0.39392,-0.58919 0.50849,-1.05751 0.42105,-1.42646c-0.58522,-0.32549 -1.16037,-0.62096 -1.49733,-0.92431zM209.02847,257.45159c0.13497,-0.88145 0.7137,-1.15867 1.16087,-1.23854c0.93867,-0.85155 2.00671,-1.62321 3.22083,-1.87319c0.8597,-0.17701 1.44281,0.41005 1.87042,-0.57317c1.87733,-4.31662 -5.58885,-3.84495 -7.5117,-3.2943c-3.09287,0.88572 -4.24695,5.9129 -6.82932,7.61678c0,0 -0.07732,0.04813 -0.20572,0.10161c-0.40307,0.77833 -1.01031,1.40505 -2.45748,1.61294c-1.46689,0.21074 -2.89444,-0.70585 -4.37343,-0.79916l-2.71419,-0.41428c0,0 -0.28899,-0.04424 -0.59225,-0.22125c-2.0031,0.09453 -3.56135,-0.07808 -5.38528,-1.1714c-2.38374,-1.42889 -4.67463,-4.8271 -7.38152,-3.00872l-0.07811,0.03032c-2.49276,7.36394 -0.84401,14.69943 2.30886,21.48382c0.7073,1.522 1.41087,3.18486 2.81824,4.30045c1.40416,1.11303 3.40488,1.72387 4.90227,2.79633c5.17109,1.74712 9.31092,1.95494 14.72813,2.01343c3.40344,0.03675 5.84863,0.61755 8.30854,-2.45617c0.92573,-1.15673 0.32907,-3.27248 0.53677,-4.63783c0.43003,-2.82698 1.23846,-4.54354 3.07021,-6.6834c0.7627,-0.87114 1.53408,-1.7248 2.30374,-2.57683c0.06454,-0.93238 1.05569,-1.25177 1.05569,-1.25177c0.03291,-0.01045 0.0662,-0.0208 0.09986,-0.03107c0.59694,-0.66637 1.18968,-1.33658 1.77333,-2.01817c0.70252,-0.82042 1.88138,-1.14259 2.56747,-1.9768c1.57915,-1.92006 -3.50271,-3.00112 -4.32369,-3.04372c-4.22161,-0.21903 -8.44089,3.81647 -9.94536,7.80142c0.02007,0.8067 0.02729,1.60783 -0.22683,2.349l0.03058,0.04445c0,0 0.46004,1.42771 -0.96766,1.88776c-0.51851,0.16707 -0.90939,0.08517 -1.19695,-0.08691c-0.48564,0.03995 -1.00634,-0.00586 -1.47594,0.00981c-2.40367,0.08018 -4.95113,-0.41657 -7.37028,-0.58175c0,0 -1.49645,-0.10311 -1.39334,-1.59957c0.10311,-1.49645 1.59957,-1.39334 1.59957,-1.39334c1.87013,0.12996 3.67429,0.21955 5.52353,0.30662c0.65824,0.03099 1.43154,0.6682 2.02403,0.64094l-0.02145,-0.09271c0.13153,-0.80752 0.35541,-1.62585 0.66031,-2.43667c0.00701,-0.96956 -0.00791,-1.912 0.04291,-2.1162c0.59952,-2.4095 1.73365,-5.04335 3.36333,-7.17473c0.15254,0.01969 0.30501,0.04004 0.45737,0.06109c-0.00042,-0.09529 0.00704,-0.19688 0.02363,-0.30516z" fill="#6b6b6b"></path>
        <path d="M212.44536,285.11721c0.26044,-0.28373 0.51399,-0.59617 0.7596,-0.9407c2.4193,-3.39373 0.36078,-7.76812 3.45594,-11.21049c0.93504,-1.07005 1.91833,-2.10409 2.8615,-3.14204c2.33897,-0.4122 7.35,-0.45668 5.38645,2.48014c-0.58561,0.87589 -3.31606,0.42358 -4.04696,0.66869c-1.10321,0.36995 -2.6909,1.7381 -3.36472,2.65697c-1.55574,2.12151 -1.0772,4.86965 -2.41707,7.06774c-0.53256,0.87368 -1.53991,1.49083 -2.26669,2.21105c-0.11965,0.07476 -0.24288,0.14387 -0.36806,0.20865z" fill="#b7b7b7"></path>
        <path d="M174.50046,254.5971c-1.98603,7.29507 -0.57572,14.6905 2.43046,21.48102l-0.14931,-0.06272c-1.72029,-0.25696 -3.26385,-0.8638 -4.99132,-1.04244c-1.46075,-1.6779 -1.54811,-2.69892 -1.95363,-4.79882c-0.85825,-4.4443 -1.56082,-8.12 -1.23982,-12.74429c0.08496,-1.22393 0.39176,-2.43825 0.38743,-3.66511c-0.00105,-0.29763 -0.47496,-0.67029 -0.2446,-0.85876c0.21783,-0.17819 0.12133,0.61761 0.3626,0.7625c0.6404,0.38458 1.40288,0.54663 2.12809,0.72573c1.64493,0.40624 2.09089,0.35641 3.27005,0.20288z" fill="#b7b7b7"></path>
        <path d="M209.18734,257.82313c-0.22465,-0.03204 -0.38155,-0.13582 -0.60665,-0.16486c-1.62968,2.13136 -2.75085,4.78339 -3.35037,7.19288c-0.05081,0.20419 -0.03207,1.16722 -0.03907,2.13676c-0.30491,0.81084 -0.53647,1.65448 -0.668,2.46199l0.02107,0.0933c-0.59249,0.02724 -1.37196,-0.60226 -2.03018,-0.63327c-1.84925,-0.08708 -3.73402,-0.18943 -5.60413,-0.31938c0,0 -1.40902,-0.15142 -1.51213,1.34504c-0.10311,1.49645 1.38146,1.58627 1.38146,1.58627c2.41916,0.16517 4.90715,0.66042 7.31082,0.58024c0.46957,-0.01567 0.98396,0.03542 1.46961,-0.00453c0.28755,0.17208 0.6752,0.25749 1.19371,0.09041c1.42771,-0.46004 0.96074,-1.87696 0.96074,-1.87696l-0.03065,-0.04429c0.25412,-0.74117 0.2427,-1.52817 0.22263,-2.33486c1.50447,-3.98495 5.81991,-8.03131 10.04152,-7.81228c0.82098,0.0426 5.90547,1.1333 4.32632,3.05337c-0.68609,0.83421 -1.86445,1.16027 -2.56697,1.98069c-0.58365,0.68159 -1.17621,1.35712 -1.77315,2.02349c-0.03366,0.01025 -0.06694,0.0207 -0.09985,0.03115c0,0 -0.99138,0.32325 -1.05592,1.25564c-0.76968,0.85202 -1.54289,1.71509 -2.30559,2.58623c-1.83177,2.13987 -2.6526,3.87734 -3.08265,6.70433c-0.2077,1.36534 0.38136,3.48738 -0.54438,4.64412c-2.4599,3.07373 -4.92717,2.50107 -8.33062,2.46432c-5.4172,-0.05849 -9.59389,-0.27679 -14.76498,-2.02391c-1.49739,-1.07247 -3.50707,-1.69249 -4.91123,-2.80553c-1.40737,-1.11559 -2.11678,-2.78853 -2.82409,-4.31052c-3.15287,-6.78439 -4.79943,-14.16417 -2.30667,-21.52811l0.07816,-0.03043c2.7069,-1.81837 4.99921,1.57748 7.38294,3.00637c1.82391,1.09332 3.38654,1.26005 5.38964,1.16551c0.30326,0.17701 0.59286,0.2206 0.59286,0.2206l2.71951,0.40915c1.479,0.09331 2.92396,1.00054 4.39084,0.7898c1.44718,-0.2079 2.07076,-0.83671 2.47384,-1.61504c0.12841,-0.05348 0.20687,-0.10155 0.20687,-0.10155c2.58238,-1.70387 3.75391,-6.72676 6.84679,-7.61247c1.92286,-0.55066 9.40606,-1.00975 7.52874,3.30686c-0.42761,0.98323 -1.08427,0.46388 -1.94396,0.6409c-1.45921,0.30045 -2.70508,1.35671 -3.77127,2.39729c-0.13814,0.3508 -0.27743,0.7005 -0.41557,1.05129z" fill="#b7b7b7"></path>
      </g>
    </g>
  </g>
</svg>
