<?xml version="1.0" encoding="UTF-8"?>
<svg xmlns="http://www.w3.org/2000/svg" xmlns:xlink="http://www.w3.org/1999/xlink" version="1.1" width="240.93872" height="254.55652" viewBox="0,0,240.93872,254.55652">
  <g transform="translate(-119.53064,-8.17947)">
    <g stroke-miterlimit="10">
      <path d="M286.3822,246.81446c0,0 -1.92621,0.96584 -1.31138,2.89057c-5.44045,1.97732 -10.76863,2.88235 -16.51003,4.11982c-3.24354,0.69909 -6.89726,2.00963 -10.19183,2.37205c-4.59462,0.50544 -9.38568,-0.42764 -13.99395,0.00043c-6.94036,0.64469 -13.6165,2.23779 -20.70875,1.58457c-2.48631,-0.22899 -4.95477,-0.80889 -7.45159,-0.8177c-2.01606,0.01808 -4.00049,-0.53283 -6.00243,-0.77171c-1.21695,-0.14521 -2.4858,0.36115 -3.67709,0.07324c-0.80785,-0.19525 -1.28609,-1.07919 -2.02729,-1.45516c-3.05455,-1.54941 -5.68817,-1.98611 -7.7794,-4.41049c0.60015,-0.324 1.17762,-0.94955 1.17762,-2.15162c0,-2.5 -2.50085,-2.50283 -2.50085,-2.50283c-0.39539,0 -0.79143,0.00984 -1.18763,0.02427c-0.1293,-0.01602 -0.26664,-0.02463 -0.41245,-0.02463c-0.25162,0 -0.47794,0.02524 -0.68146,0.07079c-1.27549,0.05644 -2.55046,0.10216 -3.81335,-0.05297c-2.61052,-0.32067 -5.09756,-1.61535 -7.6071,-2.32196c-0.60735,-0.17102 -3.59774,-0.54591 -4.31244,-1.51879c-3.20667,-4.36508 0.29474,-12.55553 3.14629,-16.1092c0.35831,-0.44653 1.74933,-2.31352 2.86686,-2.28695c1.18589,0.02819 2.47917,1.10878 3.51804,0.53618c1.17614,-0.64826 1.28568,-2.36161 1.92827,-3.54086c1.56034,-2.29718 2.8469,-4.5877 4.99383,-6.41599c6.9006,-5.87644 14.75081,-6.69465 23.37732,-7.41351c2.91332,-0.24277 4.71417,-1.1887 7.49393,-0.81586c1.08974,0.14616 2.10954,0.6768 3.20233,0.7981c3.94962,0.4384 8.0694,0.31823 12.01613,0.7918c5.67875,0.68139 12.26257,3.54656 16.78343,6.93719c3.08038,1.06134 5.93408,1.7676 8.85783,3.23493c2.77381,1.39208 5.58411,3.77369 8.72495,4.24496c2.59939,0.39003 5.23529,-0.48674 7.84767,-0.7773c4.36821,-0.48585 8.73723,-0.76447 13.11666,-1.52693c1.36721,-0.23803 2.68501,-0.85165 4.07273,-0.8639c0.89612,-0.00792 1.66912,0.81113 2.56526,0.80665c0.97381,-0.00487 1.83634,-0.69471 2.80037,-0.83243c2.84512,-0.40644 5.80222,-0.03291 8.501,0.73447c2.27287,0.64627 6.2937,1.08203 4.69916,4.10416c-3.11919,13.13015 -18.15069,18.54427 -29.59259,22.34923l-1.92807,0.93732z" fill="#a2f9ff" stroke="none" stroke-width="0.25"></path>
      <path d="M211.35354,230.63275c-0.05932,-0.80074 0.32383,-1.53167 0.93688,-2.15001c-0.18593,-0.0746 -0.37766,-0.13175 -0.57801,-0.16343c-0.41262,-0.06526 -0.57449,0.60871 -0.89115,0.88118c-0.27128,0.23342 -0.86774,0.27436 -0.86774,0.63224c0,0.35788 0.56976,0.43403 0.86775,0.63222c0.18295,0.12167 0.36629,0.24274 0.54993,0.36337c-0.00686,-0.06428 -0.01275,-0.12946 -0.01765,-0.19557zM238.72334,244.55424c-0.72757,0.57849 -1.66984,0.57849 -1.66984,0.57849c-2.68428,-0.03297 -5.28351,-0.98689 -7.87359,-1.69251c-6.2808,-1.71108 -11.12898,-2.21125 -16.7131,-5.92737c-2.55581,-1.70084 -7.51329,-3.8831 -7.51329,-7.68009c0,-2.36887 3.88638,-6.32559 6.2411,-6.48657c1.76594,-0.12073 3.33489,1.19178 5.02806,1.7078c1.91344,0.58315 4.10513,0.82877 5.9292,1.73293c2.70139,1.33903 5.33251,3.53226 7.81967,5.2297c1.82822,2.43757 5.41675,6.52993 8.60646,7.4234c3.00031,0.84041 6.24108,-0.68967 8.90632,-1.58604c4.55856,-1.53313 8.97488,-2.8328 13.41251,-4.73096c3.27123,-1.39924 6.86079,-4.45411 10.65261,-4.18846c5.92401,0.41503 6.84718,5.96344 3.32017,9.81618c-3.29101,3.59494 -8.03089,4.40448 -12.50532,5.52927c-5.45442,0.90205 -10.59496,0.86989 -16.11122,0.82044l-0.33788,-0.25268l-0.05222,0.15668l-2.27601,-0.75865c-1.59744,0.34808 -3.22581,0.51724 -4.86364,0.30844z" fill="#6ba3a7" stroke="none" stroke-width="0.5"></path>
      <path d="M201.9195,242.22174c0.41099,2.46599 -2.05499,2.87698 -2.05499,2.87698l-3.09994,0.4738c-0.44357,0.69745 -1.22327,1.16019 -2.11104,1.16019h-5v-0.05204c-0.08609,0.01378 -0.17239,0.02666 -0.2589,0.0386c-0.81496,0.11243 -1.62211,-0.08978 -2.42546,-0.34146c-2.89108,0.30868 -5.71038,1.69784 -8.82998,-0.01847c-1.59898,-0.87971 -2.17317,-3.01072 -2.71876,-4.75226c-1.88916,-6.03024 3.16598,-12.16412 4.8614,-17.36492c0,0 0.79055,-2.37171 3.16227,-1.58116c2.37171,0.79055 1.58116,3.16227 1.58116,3.16227c-1.17708,3.4696 -3.03369,6.31539 -4.08436,9.70406c0.03349,-0.01976 0.06727,-0.03951 0.10134,-0.05925c1.17658,-0.68186 2.68318,0.4607 4.00184,0.79297c3.65436,0.9208 6.38286,3.41437 9.80501,4.67936l4.19345,-0.77363c0,0 2.46599,-0.41099 2.87698,2.05499z" fill-opacity="0.53333" fill="#76b3b8" stroke="none" stroke-width="0.5"></path>
      <path d="M286.97156,248.06882c-4.29907,2.14634 -8.5437,3.79342 -13.19575,4.95837l-2.27635,0.75878c-0.2642,0.09499 -0.54902,0.14675 -0.84593,0.14675c-1.38071,0 -2.5,-1.11929 -2.5,-2.5c0,-0.998 0.58479,-1.85942 1.4304,-2.26028l4.42368,-2.21187l0.16059,0.32118c1.06845,-0.78446 2.18458,-1.49375 3.36731,-2.08511l0.15024,-0.33168c0,0 1.36097,-1.36097 2.88876,-0.50044c0.56604,-0.73046 1.47265,-0.95712 1.47265,-0.95712l2.79498,-0.66098c0.86719,-0.5889 1.75658,-1.1136 2.66174,-1.59013l1.80591,-3.00982l0.08328,0.04997c0.11244,-0.20344 0.23265,-0.40299 0.36183,-0.59804c0.71358,-1.07738 2.38375,-1.04481 3.43684,-1.79376c1.78335,-1.2683 2.96162,-3.23716 4.62377,-4.66059c1.75986,-1.5071 3.87241,-2.56216 5.65299,-4.04471c0.75707,-0.63035 1.85647,-1.88262 3.04067,-3.09147c0.03137,-0.18808 0.04699,-0.37965 0.04431,-0.57515c-0.02271,-1.65482 -1.39317,-3.00306 -2.13603,-4.48194c0,0 -1.11803,-2.23607 1.11803,-3.3541c2.23607,-1.11803 3.3541,1.11803 3.3541,1.11803c0.41748,0.83847 1.21509,2.2847 1.82918,3.71577c0.55237,-0.618 1.16088,-1.10853 1.91855,-1.06285c8.25453,0.49768 6.14874,4.43314 4.22877,9.22896c-0.39803,0.99421 -1.18117,1.78673 -1.77175,2.68009c-2.8817,3.80788 -2.62898,4.06602 -6.99045,6.98064c-2.05182,1.37116 -4.2873,2.3562 -6.5906,3.19816c-0.41132,0.31748 -0.83399,0.63143 -1.2694,0.94242l-2.30802,2.08409c-0.44413,0.40428 -1.03446,0.65074 -1.68236,0.65074c-0.90439,0 -1.69662,-0.48023 -2.13559,-1.1996c-0.01671,0.00585 -0.03342,0.0117 -0.05012,0.01756c-0.52792,0.3318 -1.05682,0.6521 -1.58513,0.96038l-0.26829,0.00429l0.02969,0.08908l-2.34466,0.78153c-0.18851,0.06777 -0.38751,0.11354 -0.59391,0.1342c-0.32496,0.16317 -0.64689,0.3327 -0.9654,0.50939c-0.27569,1.09284 -1.36854,1.63926 -1.36854,1.63926z" fill-opacity="0.53333" fill="#76b3b8" stroke="none" stroke-width="0.5"></path>
      <path d="M252.73367,220.81944c-1.38673,2.08014 -3.46687,0.69342 -3.46687,0.69342l-2.26811,-1.51784c-0.22795,-0.11358 -0.45552,-0.22652 -0.68278,-0.33858c0.06036,0.52138 0.12676,1.03992 0.2473,1.53297l-4.39166,2.8794c0,0 -2.23606,1.11805 -3.35411,-1.11801c-1.11805,-2.23606 1.11801,-3.35411 1.11801,-3.35411l1.76451,-0.28174c-1.06968,-0.00854 -4.53381,-1.31608 -5.10943,-1.42547c-4.10032,-0.77918 -8.33314,-1.01049 -12.45713,-1.68261c-3.65868,-0.59628 -7.50996,-2.12147 -11.08933,-0.80246c0,0 -2.37171,0.79055 -3.16227,-1.58116c-0.79055,-2.37171 1.58116,-3.16227 1.58116,-3.16227c4.66984,-1.45303 8.74448,-0.16057 13.47504,0.61105c1.16529,0.19007 2.34089,0.34269 3.52036,0.48205c0.46801,-0.28541 0.90487,-0.37279 0.90487,-0.37279c7.44205,-1.38689 13.51255,0.9621 20.1451,4.28917l2.53194,1.68211c0,0 2.08014,1.38673 0.69342,3.46687z" fill="#d3fcff" stroke="none" stroke-width="0.5"></path>
      <path d="M286.33548,246.79662l1.92746,-0.93563c11.4419,-3.80496 26.47107,-9.1971 29.59026,-22.32725c1.59454,-3.02213 -2.42577,-3.45448 -4.69864,-4.10075c-2.69878,-0.76738 -5.65548,-1.13901 -8.5006,-0.73257c-0.96403,0.13772 -1.8266,0.8274 -2.80041,0.83227c-0.89614,0.00448 -1.66885,-0.81335 -2.56497,-0.80543c-1.38772,0.01225 -2.70548,0.62602 -4.07269,0.86405c-4.37943,0.76246 -8.7478,1.04341 -13.11601,1.52926c-2.61238,0.29056 -5.24741,1.1699 -7.8468,0.77987c-3.14084,-0.47127 -5.94376,-2.83956 -8.71757,-4.23164c-2.92375,-1.46733 -5.76185,-2.1603 -8.84223,-3.22164c-4.52086,-3.39063 -11.06648,-6.25177 -16.74523,-6.93316c-3.94673,-0.47357 -8.05038,-0.36162 -12,-0.80002c-1.09279,-0.1213 -2.11027,-0.65383 -3.20001,-0.79999c-2.77976,-0.37284 -4.57503,0.56743 -7.48835,0.8102c-8.62651,0.71886 -16.46757,1.5207 -23.36817,7.39714c-2.14693,1.82829 -3.43185,4.11256 -4.99219,6.40974c-0.64259,1.17925 -0.75162,2.88948 -1.92776,3.53774c-1.03887,0.5726 -2.33216,-0.50793 -3.51805,-0.53612c-1.11753,-0.02657 -2.50833,1.83846 -2.86664,2.28499c-2.85155,3.55367 -6.35327,11.73247 -3.1466,16.09755c0.7147,0.97288 3.70484,1.3462 4.31219,1.51722c2.50954,0.70661 4.99596,1.99832 7.60648,2.31899c1.26289,0.15513 2.53766,0.10859 3.81315,0.05215c0.20352,-0.04555 0.42982,-0.07088 0.68144,-0.07088c0.14581,0 0.28312,0.0085 0.41242,0.02452c0.3962,-0.01443 0.79217,-0.02452 1.18756,-0.02452c0,0 2.5,0 2.5,2.5c0,1.20207 -0.57798,1.82615 -1.17813,2.15015c2.09123,2.42438 4.72196,2.85464 7.77651,4.40405c0.7412,0.37597 1.21827,1.25785 2.02612,1.4531c1.19129,0.28791 2.45904,-0.2202 3.67599,-0.07499c2.00194,0.23888 3.98345,0.78579 5.99951,0.76771c2.49682,0.00881 4.96004,0.58316 7.44635,0.81215c7.09225,0.65322 13.74053,-0.95252 20.68089,-1.59721c4.60827,-0.42807 9.37271,0.50924 13.96733,0.0038c3.29457,-0.36242 6.93429,-1.66336 10.17783,-2.36245c5.7414,-1.23747 11.05922,-2.12797 16.49967,-4.10529c-0.61483,-1.92473 1.3099,-2.88709 1.3099,-2.88709zM180.35451,248.23304c-2.88527,-0.83546 -4.74599,-0.70176 -6.88776,-3.28283c-4.39292,-5.29398 -1.51178,-14.43571 1.42446,-19.57229c1.07601,-1.88235 3.01324,-4.55053 4.84793,-5.67179c1.10792,-0.6771 2.41624,-1.14499 3.71437,-1.17343c0.5552,-0.01216 0.73828,1.17699 1.282,1.06398c0.42563,-0.08847 -0.21852,-0.84154 -0.32779,-1.26231c1.90935,-2.90723 3.53203,-5.6845 6.20776,-7.99028c7.71023,-6.64421 16.54195,-7.79538 26.23181,-8.60286c2.83956,-0.23663 5.68162,-1.12152 8.51165,-0.78978c1.09202,0.12801 2.10725,0.67845 3.20001,0.79999c3.94335,0.4386 8.0601,0.29063 12,0.80002c6.23177,0.8057 13.46679,3.72579 18.45485,7.4668c3.10234,0.98277 5.80941,1.70915 8.75774,3.17839c2.03776,1.01547 4.93183,3.46016 7.28243,3.76836c2.77895,0.36436 3.5303,-0.48456 6.55323,-0.8201c4.26297,-0.47318 8.50221,-0.79983 12.78347,-1.48502c1.74724,-0.27963 3.45857,-0.89157 5.22778,-0.92172c0.79059,-0.01347 1.4444,0.78953 2.23508,0.79454c0.71393,0.00452 1.29275,-0.66674 1.99952,-0.76771c0.5211,-0.07444 7.95649,-0.00563 8.00091,0c4.28896,0.54356 10.70191,2.78755 11.67741,7.73594c0.2283,1.15811 -0.58504,2.28716 -0.87757,3.43075c-3.88552,14.93173 -19.51037,21.22855 -32.80976,25.67275l-0.02601,0.01358c0.80919,2.23783 -1.43606,3.13592 -1.43606,3.13592c-5.12935,2.05025 -9.58794,3.05663 -15.01861,4.0433c-4.76781,0.86624 -9.60299,2.77883 -14.40439,3.31678c-4.62532,0.51823 -9.4026,-0.42756 -14.03267,0.0038c-4.55352,0.42424 -8.78676,1.55627 -13.44783,1.61478c-5.16719,0.06486 -10.13149,-0.82084 -15.22498,-0.79986c-8.67959,-0.06367 -19.19696,-2.23034 -24.48009,-9.91324l-0.16081,-1.4503c-3.84241,-0.33638 -7.24148,-1.17309 -11.2581,-2.33614z" fill="#293e40" stroke="none" stroke-width="0.5"></path>
      <path d="M119.53064,53.17947v-45h240.93872v45z" fill="#ffffff" stroke="none" stroke-width="0"></path>
      <text transform="translate(132.54956,38.98335) scale(0.69199,0.69199)" font-size="40" xml:space="preserve" fill="#000000" stroke="#000000" stroke-width="3" font-family="&quot;JetBrains Mono&quot;, Sans Serif" font-weight="normal" text-anchor="start">
        <tspan x="0" dy="0">Этап пройден!</tspan>
      </text>
    </g>
  </g>
</svg>
