<?xml version="1.0" encoding="UTF-8"?>
<svg xmlns="http://www.w3.org/2000/svg" xmlns:xlink="http://www.w3.org/1999/xlink" version="1.1" width="62.92292" height="45.36738" viewBox="0,0,62.92292,45.36738">
  <g transform="translate(-208.53854,-157.31631)">
    <g stroke="none" stroke-miterlimit="10">
      <path d="M247.0298,186.23555c-9.71274,0 -34.13501,0 -34.13501,0v-14.02577c0,0 23.78805,0 33.45907,0c0.48774,0 0.48937,-9.46317 1.01391,-9.46317c1.94047,0 4.15424,-1.3562 6.0117,0.03962c2.06698,1.55327 2.75936,3.24684 4.84473,4.89765c3.22212,2.55067 8.06992,7.39865 8.06992,7.39865l-0.16899,10.3081c0,0 -3.6659,3.21607 -6.85733,6.14579c-1.78435,1.63802 -3.57618,3.92817 -5.37783,5.34923c-1.99205,1.57123 -4.16508,0.67191 -6.18424,0.67191c-0.94528,0 0.1726,-11.32201 -0.67594,-11.32201z" fill="#c87312" stroke-width="0"></path>
      <g fill="#592808">
        <path d="M214.35702,168.72032v5.78695h-5.78695v-5.78695z" stroke-width="NaN"></path>
        <path d="M220.0319,168.72032v5.78695h-5.78695v-5.78695z" stroke-width="NaN"></path>
        <path d="M225.54032,168.72032v5.78695h-5.78695v-5.78695z" stroke-width="NaN"></path>
        <path d="M231.21521,168.72032v5.78695h-5.78695v-5.78695z" stroke-width="NaN"></path>
        <path d="M236.78669,168.72032v5.78695h-5.78695v-5.78695z" stroke-width="NaN"></path>
        <path d="M214.32549,185.64157v5.78695h-5.78695v-5.78695z" stroke-width="NaN"></path>
        <path d="M220.00037,185.64157v5.78695h-5.78695v-5.78695z" stroke-width="NaN"></path>
        <path d="M225.50879,185.64157v5.78695h-5.78695v-5.78695z" stroke-width="NaN"></path>
        <path d="M231.18367,185.64157v5.78695h-5.78695v-5.78695z" stroke-width="NaN"></path>
        <path d="M236.75516,185.64157v5.78695h-5.78695v-5.78695z" stroke-width="NaN"></path>
        <path d="M214.35702,174.39521v5.78695h-5.78695v-5.78695z" stroke-width="NaN"></path>
        <path d="M214.35702,180.07009v5.78695h-5.78695v-5.78695z" stroke-width="NaN"></path>
        <path d="M242.16899,168.65727v5.78695h-5.78695v-5.78695z" stroke-width="NaN"></path>
        <path d="M247.74047,168.65727v5.78695h-5.78695v-5.78695z" stroke-width="NaN"></path>
        <path d="M242.13746,185.57851v5.78695h-5.78695v-5.78695z" stroke-width="NaN"></path>
        <path d="M247.70894,185.57851v5.78695h-5.78695v-5.78695z" stroke-width="NaN"></path>
        <path d="M241.95352,162.88779h5.78695v5.78695h-5.78695z" stroke-width="NaN"></path>
        <path d="M241.95352,157.31631h5.78695v5.78695h-5.78695z" stroke-width="NaN"></path>
        <path d="M241.92199,196.79333h5.78695v5.78695h-5.78695z" stroke-width="NaN"></path>
        <path d="M241.92199,191.22186h5.78695v5.78695h-5.78695z" stroke-width="NaN"></path>
        <path d="M244.847,157.31631h8.79787v5.78695h-8.79787z" stroke-width="NaN"></path>
        <path d="M244.847,196.89674h8.79787v5.78695h-8.79787z" stroke-width="NaN"></path>
        <path d="M253.76232,162.88779h5.78695v5.78695h-5.78695z" stroke-width="NaN"></path>
        <path d="M253.76232,191.1588h5.78695v5.78695h-5.78695z" stroke-width="NaN"></path>
        <path d="M259.83317,168.65726h5.78695v5.78695h-5.78695z" stroke-width="NaN"></path>
        <path d="M259.83317,185.52426h5.78695v5.78695h-5.78695z" stroke-width="NaN"></path>
        <path d="M265.67451,174.3952h5.78695v5.78695h-5.78695z" stroke-width="NaN"></path>
        <path d="M265.67451,180.11923h5.78695v5.78695h-5.78695z" stroke-width="NaN"></path>
      </g>
    </g>
  </g>
</svg>
