<?xml version="1.0" encoding="UTF-8"?>
<svg xmlns="http://www.w3.org/2000/svg" xmlns:xlink="http://www.w3.org/1999/xlink" version="1.1" width="321.19993" height="336.7792" viewBox="0,0,321.19993,336.7792">
  <g transform="translate(-79.40003,-11.6104)">
    <g stroke="none" stroke-miterlimit="10">
      <g stroke-width="0">
        <path d="M88.31565,328.6104c0,0 16,-20.5985 16,-32.10001c0,-24.14805 -6.06414,4.50221 -10.04872,-44.1924c-0.59522,-7.27412 3.74438,-65.15844 3.01263,-73.75344c-0.23731,-2.78745 -17.45194,-68.53772 -17.64152,-71.24481c-1.94572,-27.78276 8.67761,-71.70934 8.67761,-71.70934c0,0 -12.60264,-21.46011 8.4239,-20.44654c5.86827,0.28288 21.73281,18.2132 32.25081,17.57214c19.88693,-1.21209 85.77117,-14.42446 107.91596,-15.43106c14.92427,-0.67839 40.54072,1.62046 54.14997,0.91386c29.89262,-1.55204 65.36001,-6.60839 73.85938,-6.60839c6.34357,0 25.39999,15 25.39999,15c0,0 -4.30426,16.55744 -1.677,49.84293c2.20947,27.99243 11.3705,71.03601 11.83896,94.14703c0.97157,47.9307 -4.16196,152.01005 -4.16196,152.01005c0,0 6.8751,16.10871 -32.52064,19.49727c-5.19656,0.44698 -28.0068,-7.08378 -34.50223,-6.59417c-5.41818,0.40841 -27.16192,3.80264 -33.24331,4.17608c-4.59181,0.28197 -30.28214,8.51628 -35.06363,8.69531c-8.42783,0.31554 -43.80911,-15.34526 -52.03061,-14.98105c-9.93324,0.44004 -39.34412,6.82986 -47.9634,7.15102c-2.72426,0.1015 -17.35563,-9.79234 -19.88468,-9.68134c-10.6975,0.46953 -30.35234,15.73688 -36.1915,15.73688c-17.79261,0 -16.6,-18 -16.6,-18z" fill="#d6d6d6"></path>
        <path d="M114.91565,303.51039l-11,-15c0,0 12.57555,13.59144 33.19615,18.10359c30.25914,6.62123 74.38191,5.22504 93.09351,7.37227c14.12883,1.62134 55.71035,9.52414 55.71035,9.52414l65,-5c0,0 -60.0161,13.57931 -88.76511,11.92299c-10.7767,-0.62088 -41.27907,-11.44 -57.09454,-13.84571c-8.9022,-1.35412 -54.71337,6.39113 -63.18379,5.2433c-39.11052,-5.29991 -26.95656,-18.32058 -26.95656,-18.32058z" fill="#9e9e9e"></path>
        <path d="M121.87221,32.25288c8.47042,-1.14784 54.2816,6.59742 63.18379,5.2433c15.81547,-2.4057 46.31783,-13.22483 57.09454,-13.84571c28.74901,-1.65632 88.76511,11.923 88.76511,11.923l-65,-5c0,0 -41.58152,7.9028 -55.71035,9.52414c-18.71159,2.14723 -62.83437,0.75104 -93.0935,7.37226c-20.6206,4.51215 -33.19615,18.10359 -33.19615,18.10359l11,-15c0,0 -12.15397,-13.02067 26.95656,-18.32058z" fill="#9e9e9e"></path>
      </g>
      <path d="M181.6,149.6c0.73014,0.00842 5.19883,0.24027 5.79581,-1.07964c0.23863,-0.52759 -0.15196,-1.14954 -0.27708,-1.71491c-0.62021,-2.80238 -2.08055,-5.88684 -2.38641,-8.70499c-0.27305,-2.51584 0.31616,-5.13103 1.2916,-7.50598l-1.22206,-0.36535c-0.03332,0 -0.06662,0.00002 -0.09991,0.00006c-0.00194,-0.17775 -0.00266,-0.3542 -0.00191,-0.52918c0.00858,-2.01928 0.60572,-3.9939 0.83227,-6.00045c0.30491,-2.70059 -0.02893,-5.43549 -0.02012,-8.15323c-0.9538,-4.7691 -1.00343,-9.55154 -1.59347,-14.34088c-0.68246,-5.53945 -2.58468,-11.06656 -3.93498,-16.46375c-0.96744,-3.86693 -1.50938,-6.78305 -3.12916,-10.43515c-1.57644,-3.55437 -2.93802,-10.94088 -6.75293,-12.76078c-2.71015,-1.29288 -4.64511,-0.10042 -7.39622,0.23548c-0.33661,0.0411 -5.83652,0.00913 -6.45907,0.00657c-2.57715,0.51544 -5.23608,0.46971 -7.8459,0.7799c-3.56365,0.42356 -7.39944,2.62773 -10.74057,3.87974c-5.77604,2.16443 -11.81181,3.54647 -17.61928,5.60699c-6.68053,2.37029 -13.54111,4.93456 -18.10724,10.4305c-1.29073,1.55357 -2.88567,2.98888 -3.58867,4.8824c-1.04273,2.80854 -0.6447,5.8044 -0.6447,8.73264c0,6.03045 0.91703,11.10929 2.3187,16.96765c1.07407,4.48914 1.27906,9.11568 2.39758,13.59068c0.69116,2.76523 1.98497,5.08885 3.09345,7.68494c0.63307,1.48266 0.69404,3.20296 1.50473,4.59646c0.67047,1.15249 1.73913,2.04197 2.40002,3.19998c1.35907,2.38132 2.76367,4.99884 4.12047,7.44846c1.50028,2.70864 1.51009,4.40159 3.92684,6.08372c1.32943,0.92532 3.01951,1.43141 4.53867,1.96039c3.10361,-0.03579 6.53332,0.36712 9.59909,0c2.42193,-0.29003 4.77747,-1.23557 7.1532,-2.14548c-0.07859,0.19037 -0.15147,0.38371 -0.21843,0.57979c1.68885,-0.3519 3.40292,-0.60374 5.06526,-0.83431c3.94543,-0.54723 7.79721,0.63145 11.60987,-0.704l2.39997,-0.79999c0,0 0.34981,-0.1166 0.82551,-0.1259c0.29406,-3.31512 0.67697,-6.61506 1.17397,-9.88834c-0.13476,0.19404 -0.26304,0.39218 -0.38352,0.59526c-1.51758,0.27784 -3.70217,1.09935 -5.44279,1.83334c-0.11713,-0.18743 -0.19719,-0.37617 -0.24824,-0.56218c-2.37601,1.11128 -4.8987,1.93539 -7.328,2.5449c-0.66959,0.168 -6.61988,1.67587 -7.00629,1.67462c-5.2846,-0.01718 -10.05603,-3.86406 -14.61142,-5.81369c-2.14341,-0.91735 -4.68004,-1.29817 -6.35636,-2.91854c-2.01776,-1.95041 -3.63652,-5.36786 -5.1945,-7.71293c-1.04723,-2.09442 -2.76747,-3.88455 -3.43047,-6.13037c-0.33267,-1.12686 0.08878,-2.36055 -0.07499,-3.52402c-0.48935,-3.4764 -1.94838,-6.8992 -2.40002,-10.4c-0.30492,-2.36351 0.48892,-4.74145 0.78644,-7.1059c0.14014,-1.1137 -0.21855,-2.27191 0.02638,-3.36734c1.58039,-7.06816 6.41688,-14.83871 12.19313,-19.1553c4.69232,-3.50658 10.78388,-5.49079 16.35632,-6.85318c2.4346,-0.0049 4.83438,-0.58786 7.25914,-0.80656c2.35521,-0.21242 4.70576,0.48567 7.04676,0.8201c4.58659,0.65524 9.22689,1.24491 13.47402,3.41039c5.72854,2.9208 6.8358,7.10087 9.20616,12.43321c2.41575,5.43444 3.98182,12.0292 3.40719,18.07048c-0.23467,2.46712 -1.30308,4.79951 -1.60654,7.25912c-0.26434,2.14249 -0.35921,4.34283 -1.03547,6.3929c-1.81856,2.7278 -2.72374,6.01788 -4.31139,8.82292c-1.07991,0.58996 -2.13541,1.29071 -3.16795,2.12145l0.11367,0.17051l-0.3128,0.20854c3.55976,3.57353 6.41266,7.56575 9.766,11.59323c1.05237,1.26393 2.27254,2.38882 3.49797,3.50984zM189.91803,128.26392c2.23607,1.11802 1.11806,3.35409 1.11806,3.35409c-2.24391,4.24873 -0.89978,6.67423 0.18928,11.07564c0.5692,2.30041 1.784,5.84396 0.57882,8.186c-0.67175,1.30543 -2.22399,1.95027 -3.50577,2.66612c-0.94937,0.5302 -2.02378,0.8529 -3.09795,1.02195c-0.51268,0.08069 -1.03079,0.09562 -1.55082,0.08745c1.18224,1.43466 2.22114,2.99728 3.53532,4.31147l2.2018,1.45323c0,0 1.12862,0.75241 1.16897,1.98012h2.24427c1.38071,0 2.5,1.11929 2.5,2.5c0,1.12459 -0.74256,2.07576 -1.76411,2.38994l-1.72091,0.57364c-0.88043,1.51008 -1.85674,2.96383 -2.84719,4.40419c-1.94494,1.30541 -2.36395,2.19573 -3.39145,2.11813c0.39001,0.64378 0.32643,1.52966 0.66947,2.21575c1.11299,2.22602 4.47493,6.62811 3.1903,9.41635c-0.56197,1.21973 -2.3664,1.2709 -3.53773,1.92781c-1.06361,0.59649 -1.9482,1.78089 -3.16658,1.83207c-5.75123,0.24154 -4.81414,-3.46347 -6.5776,-6.97947c-0.38148,-0.76061 -1.07553,-1.34011 -1.43433,-2.11168c-0.19546,-0.42031 0.26108,-1.26443 -0.18838,-1.37778c-0.4615,-0.11639 -0.49362,0.86898 -0.9092,1.10098c-3.30291,1.84386 -6.66897,2.85108 -9.83558,4.97021c0,0 -2.08014,1.38672 -3.46687,-0.69342c-0.5443,-0.81647 -0.55449,-1.52611 -0.36599,-2.087c-2.45382,-0.03059 -2.45382,-2.49971 -2.45382,-2.49971c0,-7.04966 0.09929,-14.16798 0.54031,-21.24489l-1.24973,0.41658c-6.47175,2.07835 -13.55373,0.1421 -20,2.39999c0,0 -0.48138,0.16046 -1.08268,0.11993c-1.08982,0.35024 -2.18859,0.63165 -3.30742,0.77609c-3.53994,0.45701 -7.62129,0.03209 -11.20096,0c-2.39238,-0.77532 -4.54859,-1.30437 -6.66127,-2.8396c-4.7601,-3.45901 -6.74685,-10.36394 -9.55267,-15.26787c-0.66215,-1.1573 -1.74644,-2.03782 -2.40002,-3.19998c-0.40964,-0.7284 -1.29612,-4.076 -1.69523,-5.00358c-1.20013,-2.78927 -2.56198,-5.33718 -3.30656,-8.31506c-1.12145,-4.48516 -1.31972,-9.11684 -2.40248,-13.60927c-1.5089,-6.26056 -2.48129,-11.77568 -2.48129,-18.23237c0,-3.58383 -0.3444,-7.02529 0.95528,-10.46737c0.90729,-2.40287 2.76456,-4.3466 4.41139,-6.31762c8.011,-9.58803 21.59226,-12.69407 33.23438,-16.01531c5.41926,-1.54599 10.71701,-4.92201 16.29853,-5.66743c2.70771,-0.36162 5.4754,-0.28438 8.1541,-0.82013c2.11361,-0.00746 4.24439,0.27531 6.34086,0.00657c3.69199,-0.47328 6.56258,-1.62948 10.20389,0.23548c5.45315,2.79293 6.82478,10.01132 9.12545,15.22216c1.70333,3.85791 2.37827,7.12263 3.39236,11.18195c1.40442,5.62173 3.33423,11.36534 4.06503,17.13622c0.61136,4.8277 0.645,9.65104 1.6066,14.45911c0.0118,4.11598 -0.23392,7.87662 -0.82011,11.84681c-0.05921,0.40103 -0.10662,0.79953 -0.14421,1.19582c0.12739,0.04438 0.25887,0.09985 0.39449,0.16765zM186.86494,166.57104c-0.32799,-0.36871 -0.56493,-0.90141 -0.56493,-1.67105c0,-0.18124 0.01314,-0.34934 0.03751,-0.50525l-2.3225,-1.5614c-1.58838,-1.5884 -2.91324,-3.42024 -4.34838,-5.14836c-2.15802,-2.59857 -5.03446,-4.60332 -7.20001,-7.20002c-1.45445,-1.74402 -2.45714,-3.84034 -3.95528,-5.54697c-0.58664,-0.66828 -2.12438,-2.06385 -3.46969,-3.48138c-2.15886,12.67762 -2.54164,25.72715 -2.54164,38.6434c0,0 0,0.06533 -0.01056,0.17486c2.87804,-1.77365 5.87007,-3.22185 9.07974,-4.42398c1.40761,-0.5272 2.85274,-1.76793 4.29938,-1.35984c0.84385,0.23804 4.20654,4.96653 4.77719,6.11058c0.42578,0.85361 0.67591,1.78724 0.92596,2.70779c0.13912,0.51213 0.05369,1.80528 0.49643,1.51269c0.5925,-0.39156 0.96509,-1.12781 1.63348,-1.36789c0.40913,-0.14695 0.87363,0.52247 1.26231,0.32776c0.31498,-0.15778 -0.74937,-0.19239 -0.93567,-0.49139c-0.38746,-0.62187 -0.34315,-1.4385 -0.67407,-2.09222c-0.81903,-1.61792 -4.78507,-7.57588 -4.08602,-9.19986c0.91939,-2.13585 4.22153,-1.98811 6.16407,-3.26628c0.46474,-0.72872 0.94395,-1.44815 1.43267,-2.16119zM163.20004,132c0.48466,0 0.93711,0.13792 1.32024,0.37664c0.19141,-0.26256 0.376,-0.52638 0.55313,-0.79098c1.89156,-2.82556 2.7379,-6.4697 4.68083,-9.38406c0.51882,-1.52766 0.36196,-3.20645 0.5645,-4.80705c0.30618,-2.41954 1.33623,-4.71566 1.59341,-7.1409c0.23535,-2.21936 -0.51661,-4.43366 -0.79343,-6.64822c-0.47805,-3.82441 -0.59457,-5.27005 -2.19929,-8.88129c-1.84468,-4.15126 -2.28997,-7.77149 -6.79384,-9.96681c-0.92185,-0.44934 -2.03221,-0.35385 -2.99294,-0.71262c-3.98526,-1.4882 -7.32065,-2.50598 -11.5331,-3.077c-3.51605,-0.47662 -6.95976,0.82093 -10.49409,0.81354c-4.75114,1.21945 -10.04583,2.93527 -14.0437,5.94687c-4.72149,3.55669 -8.92416,10.23074 -10.20689,16.04465c-0.2178,0.98719 0.1509,2.02945 0.02638,3.03269c-0.23616,1.9027 -1.11773,3.80107 -0.81354,5.69409c0.29917,1.86173 0.54747,3.73135 0.79999,5.59998c0.22586,1.67136 1.35818,3.13089 1.60004,4.80002c0.13752,0.94908 -0.32736,1.95082 -0.07498,2.87601c0.5154,1.88941 2.09369,3.31796 2.96955,5.06964c1.39182,2.07978 2.69246,4.87513 4.40548,6.68704c1.58496,1.67645 2.64548,0.93823 4.84358,1.88151c3.78916,1.62606 8.1977,5.40786 12.58866,5.38627c2.49328,-0.01226 6.45545,-1.49657 8.8308,-2.27873c4.19072,-1.37992 9.88043,-4.35874 11.19745,-8.81182c0,0 0.79056,-2.37171 3.16227,-1.58115c0.0028,0.00093 0.00561,0.00187 0.0084,0.00281c0.25148,-0.08501 0.52089,-0.1311 0.80107,-0.1311z" fill="#696969" stroke-width="0.5"></path>
      <path d="M154.88199,115.46394c2.23607,-1.11804 3.35411,1.11804 3.35411,1.11804l1.06392,2.71801c-0.03575,1.30815 0.25617,2.6673 -0.10727,3.92447c-2.39112,8.27099 -13.81741,12.37227 -21.51721,10.46827c-1.06076,-0.2623 -1.79444,-1.26244 -2.77389,-1.74692c-0.82844,-0.40979 -1.85209,-0.39887 -2.61598,-0.91918c-2.19471,-1.49492 -3.93514,-4.16576 -5.48565,-6.22662c0,0 -1.50001,-2 0.49998,-3.50001c2,-1.50001 3.50001,0.49999 3.50001,0.49999c0.54954,0.73524 2.9757,4.23729 4.11433,4.97339c0.6404,0.41401 1.50387,0.33609 2.18407,0.68085c0.7413,0.37573 1.22052,1.24856 2.02604,1.45304c6.25551,1.58791 15.47741,-2.64124 15.17556,-9.60727l-0.53605,-0.48194c0,0 -1.11804,-2.23606 1.11803,-3.3541z" fill="#696969" stroke-width="0.5"></path>
      <path d="M122.88201,116.73607c-0.51117,-0.25558 -0.84706,-0.56959 -1.06109,-0.90196c-0.71618,-0.51437 -0.99258,-1.3435 -0.99258,-1.3435c-0.00065,-0.0042 -0.00129,-0.00841 -0.00194,-0.01261c-1.00207,-0.32577 -1.7264,-1.2673 -1.7264,-2.37801c0,-0.88153 0.45627,-1.6565 1.14552,-2.10164l1.40778,-0.93851l-0.04386,-0.13158l0.48246,-0.16081l0.52139,-0.34759l0.0948,0.1422l1.24602,-0.41533c0.2642,-0.09498 0.54901,-0.14674 0.84592,-0.14674c1.38071,0 2.5,1.11929 2.5,2.5c0,0.2969 -0.05176,0.58172 -0.14675,0.84592l-0.14747,0.4424c0.05168,0.11371 0.10667,0.22134 0.16592,0.32111l-0.93562,3.50858c0,0 -1.11802,2.23607 -3.35409,1.11806z" fill="#696969" stroke-width="0.5"></path>
      <path d="M158.93187,108.18993c-2.23182,-0.17207 -2.23183,-2.48992 -2.23183,-2.48992l0.20026,-0.13059c-0.82652,-4.8378 2.63165,-9.08604 7.26744,-4.8372c3.69335,3.38506 0.78651,8.34274 -3.85803,8.21923c-0.5678,-0.0151 -1.00312,-0.32167 -1.37785,-0.76151z" fill="#696969" stroke-width="0.5"></path>
      <path d="M217.02782,114.7988c-0.56919,-0.13478 -1.11649,-0.32356 -1.61891,-0.62158c-0.73714,-0.43724 -1.17072,-1.21074 -1.60515,-1.98329c-0.74789,0.09264 -1.78538,-0.06703 -2.43982,-1.37589c-1.11803,-2.23607 1.11803,-3.3541 1.11803,-3.3541l4.10484,-0.64406c0.99999,0.72088 2.21452,1.21254 2.99997,2.16265c0.3766,0.45556 0.64563,1.00429 0.89673,1.56511c1.52569,0.33892 3.29435,0.31731 4.95818,0.73612c1.54003,0.38765 5.96258,2.12367 6.86926,2.57663c2.24636,1.12224 4.14547,2.86285 6.38744,3.99383c0.26713,0.13476 0.55752,0.22422 0.8537,0.30107c0.4892,-0.86626 0.99441,-1.72383 1.52133,-2.56962c1.15538,-1.85456 2.42579,-3.62012 3.69781,-5.38265c1.13464,-2.61737 2.20281,-5.27529 3.31906,-7.85974c0.86027,-1.99178 2.36979,-3.66 3.22342,-5.65463c0.46421,-1.0847 0.31501,-2.402 0.91078,-3.42039c0.68378,-1.16885 1.87185,-1.95735 2.80777,-2.93602c0,0 1.76777,-1.76776 3.53553,0.00002c0.82407,0.82408 0.87983,1.64816 0.70452,2.29315c1.5911,1.29469 0.47143,3.16083 0.47143,3.16083l-2.45597,4.08905c-2.83704,3.92549 -5.40633,8.01217 -7.8583,12.16922c-0.76787,1.76806 -1.56443,3.51894 -2.41689,5.21937c-0.84946,1.69444 -1.73545,3.38097 -2.65151,5.05927c0.51507,0.14479 1.13268,0.09531 1.5992,0.36241c2.1211,1.2144 3.79548,3.10614 5.83365,4.44808c3.14912,0.5404 6.88943,1.09972 9.12232,2.78628c0.79432,0.17665 1.56113,0.37122 2.27432,0.6084v0v0l2.34534,0.78179c1.02155,0.31418 1.76412,1.26534 1.76412,2.38993c0,1.38071 -1.11929,2.5 -2.5,2.5c-0.18574,0 -0.36674,-0.02025 -0.54093,-0.05867l-3.94938,-0.78989l0.01407,-0.07033c-0.11165,-0.00358 -0.22335,-0.00901 -0.33511,-0.01644c-0.74556,-0.04957 -1.37447,-0.50106 -2.01515,-0.93413c-2.67685,-0.5784 -5.46287,-1.08831 -7.73554,-2.30723c-3.18467,-0.84543 -6.47768,-1.86153 -9.65162,-3.08972c-4.3352,7.29407 -9.08804,14.42064 -13.70621,21.35313c-1.06666,1.60001 -2.13333,3.20002 -3.20001,4.80002l-1.57846,2.36773c-0.03655,0.0566 -0.07533,0.11163 -0.11621,0.16496c4.19234,-1.1558 8.41459,-1.13598 12.5156,-2.31973c6.74878,-1.94801 12.47426,-5.06328 19.44823,-6.45876c5.41009,-0.90203 12.18471,-1.43172 17.08297,-4.10872c0.79656,-0.43534 -0.56745,-1.73373 -0.69996,-2.63176c-0.54664,-3.70455 -0.40651,-7.47521 -0.79999,-11.20002c-0.20727,-1.96213 -1.38626,-3.73507 -1.61359,-5.69498c-0.54323,-4.68363 -0.11496,-9.65656 -0.78644,-14.30502c-0.32174,-2.22734 -1.41037,-4.31345 -1.62009,-6.55411c-0.36911,-3.94352 0.64042,-7.67488 -0.68385,-11.45575c-1.05163,-3.1737 -2.13477,-6.76124 -2.50959,-10.08514c-0.14586,-1.29348 -0.1236,-2.61057 0.01355,-3.905c0.0269,-0.25391 0.69491,-0.71939 0.4647,-0.60894c-4.33207,2.07864 -9.32421,2.65337 -13.6986,4.85427c-4.75434,2.39207 -10.44545,5.37086 -15.7563,6.59472c-2.81573,0.64887 -5.79857,0.59221 -8.53338,1.52508c-5.39153,1.8391 -9.91142,4.65263 -15.41947,6.03554c-1.62885,0.6826 -3.17415,1.61566 -4.88657,2.04782c-1.0673,0.26935 -2.21194,-0.13283 -3.30221,0.01877c-0.73478,0.10217 -1.36252,0.66754 -2.10151,0.7326c-0.58209,0.05124 -1.21356,-0.70963 -1.70741,-0.39728c-0.37718,0.23856 0.96133,0.36526 1.07619,0.79652c0.28268,1.06135 -0.11738,2.20449 0.01355,3.29501c0.31323,2.6089 1.61458,5.09924 2.31899,7.60648c1.08422,3.85914 0.01254,7.71005 0.85465,11.4262c0.61239,2.70243 2.24671,5.07511 3.12379,7.70358c1.59879,4.79131 2.45845,9.78731 3.28726,14.75822c0,0 0.34515,2.0709 -1.49491,2.73345c0.34689,2.41835 0.58904,4.84967 1.40063,7.28698c0.47077,1.41379 0.10199,3.43858 1.34264,4.26393c0.53349,0.35492 1.24662,-0.32684 1.88569,-0.37337c2.58939,-0.18851 5.17401,-0.3747 7.71452,-0.84731c-0.83704,-0.40408 -1.41453,-1.26094 -1.41453,-2.25269c0,-0.29691 0.05176,-0.58172 0.14674,-0.84592l0.78153,-2.34464l0.07812,0.02604c0.02132,-0.13237 0.04751,-0.26431 0.07914,-0.39574c0.33315,-1.3844 1.75176,-2.24877 2.53985,-3.43472c2.69516,-4.0558 5.54716,-8.0419 8.24067,-12.08175c2.22494,-3.33706 4.04595,-6.89151 5.83249,-10.46376c-0.69956,-0.35236 -1.38503,-0.71792 -2.05341,-1.09726c-3.53754,-2.00771 -6.87248,-4.37859 -10.39997,-6.4c-1.10564,-0.63358 -2.38706,-0.97018 -3.40696,-1.73416c-1.14358,-0.85663 -1.79763,-1.70945 -2.31042,-2.5293zM202.6128,143.03921c-0.64919,-3.7061 -1.4018,-7.39683 -2.59154,-10.97004c-0.36774,-1.10444 -3.08525,-7.42423 -3.27612,-8.29642c-0.79782,-3.64575 0.33439,-7.26807 -0.74545,-10.97376c-1.16553,-3.99973 -2.16761,-7.32214 -2.46739,-11.49855c-0.09635,-1.34241 -1.29164,-2.89815 -0.52378,-4.00347c2.09788,-3.01984 7.63189,-2.12323 10.48883,-2.84593c1.51949,-0.38438 2.86992,-1.26093 4.30488,-1.89138c5.47293,-1.31477 10.01197,-4.22654 15.38908,-6.02526c2.91459,-0.97497 6.06909,-0.99644 9.0666,-1.67494c6.00757,-1.35985 11.61302,-4.97613 17.28217,-7.10693c3.42801,-1.28844 6.95216,-2.58619 10.56095,-3.25285c1.68356,-0.311 3.57212,-1.35967 5.10201,-0.5912c1.39164,0.69903 1.68582,2.6805 2.06468,4.19105c0.33207,1.324 -0.13487,2.73808 0.01355,4.095c0.32763,2.99534 1.33152,6.25767 2.29046,9.11487c1.36642,4.255 0.5323,8.17234 0.91612,12.54425c0.18782,2.1393 1.2788,4.11956 1.57986,6.24588c0.30627,2.16313 -0.22583,4.38328 0.02012,6.55411c0.29946,2.64323 0.51406,5.29544 0.79342,7.94087c0.20054,1.89913 1.36642,3.60806 1.58649,5.50503c0.18804,1.62079 -0.14961,3.2715 0.01355,4.89499c0.39368,3.91725 3.13002,9.78492 0.08648,13.27324c-0.78544,0.90022 -2.20163,0.92862 -3.3079,1.37968c-5.45482,2.22412 -10.59629,3.14318 -16.40919,4.11157c-6.75759,1.35088 -12.36774,4.47542 -18.95167,6.34128c-2.19696,0.62261 -4.52688,0.60443 -6.79355,0.88096c-2.96431,0.36164 -5.78645,1.95726 -8.70498,2.38645c-1.05532,0.15519 -2.14406,-0.15086 -3.20001,-0.00001c-2.7313,0.3902 -7.87871,2.2176 -10.51477,0.45894c-1.40933,-0.94025 -1.83961,-2.85368 -2.59542,-4.36993c-2.31944,-4.65313 -1.63022,-9.90747 -3.26197,-14.56615z" fill="#696969" stroke-width="0.5"></path>
      <path d="M225.11993,165.91322c1.38677,-2.08012 3.46688,-0.69334 3.46688,-0.69334l2.29075,1.5312c4.06089,2.14404 8.96708,4.91545 12.15658,8.26168c4.00301,4.1997 7.01822,10.80819 9.60193,15.96923c0,0 1.11802,2.23608 -1.11806,3.3541c-2.23607,1.11802 -3.3541,-1.11806 -3.3541,-1.11806c-2.35147,-4.70927 -5.08354,-10.92964 -8.74502,-14.75128c-2.89314,-3.01969 -7.42556,-5.4896 -11.09644,-7.41783l-2.50917,-1.66881c0,0 -2.08012,-1.38676 -0.69334,-3.46688z" fill="#696969" stroke-width="0.5"></path>
      <path d="M252.31985,160.31328c1.38672,-2.08014 3.46687,-0.69342 3.46687,-0.69342l2.59826,1.74676c2.6565,2.68309 3.93114,5.57052 6.58282,8.16558c0,0 1.76778,1.76776 0.00002,3.53554c-1.76776,1.76778 -3.53554,0.00002 -3.53554,0.00002c-2.51738,-2.56054 -3.70511,-5.35881 -6.21723,-7.83442l-2.20179,-1.45319c0,0 -2.08014,-1.38673 -0.69342,-3.46687z" fill="#696969" stroke-width="0.5"></path>
      <path d="M280.51097,92.86243c1.63756,-1.88902 3.52659,-0.25145 3.52659,-0.25145l1.58544,1.3744c3.82805,3.32666 6.72836,6.84025 10.96379,9.6345c0,0 2.08013,1.38675 0.69339,3.46688c-1.38675,2.08013 -3.46687,0.69339 -3.46687,0.69339c-4.42059,-2.974 -7.45832,-6.55218 -11.46544,-10.01673l-1.58544,-1.37439c0,0 -1.88902,-1.63756 -0.25146,-3.52658z" fill="#696969" stroke-width="0.5"></path>
      <path d="M187.1,64.1c0,-2.5 2.5,-2.5 2.5,-2.5l2.81102,0.03401c7.12357,1.20444 15.96615,3.02466 18.76071,10.47542c0,0 0.79056,2.37171 -1.58115,3.16227c-2.37171,0.79056 -3.16227,-1.58115 -3.16227,-1.58115c-1.33611,-5.18715 -10.28807,-6.37818 -14.83926,-7.12457l-1.98904,0.03401c0,0 -2.5,0 -2.5,-2.5z" fill="#696969" stroke-width="0.5"></path>
      <path d="M186.30002,76.1c0,-2.5 2.5,-2.5 2.5,-2.5h4.79999c2.84418,0.00815 5.69977,0.2986 8.49029,0.84853c0,0 2.45145,0.49028 1.96117,2.94174c-0.49029,2.45145 -2.94173,1.96117 -2.94173,1.96117c-2.46531,-0.5012 -4.99399,-0.7596 -7.50972,-0.75144h-4.79999c0,0 -2.5,0 -2.5,-2.5z" fill="#696969" stroke-width="0.5"></path>
      <path d="M376.80002,259.39999c-2.5,0 -2.5,-2.5 -2.5,-2.5l0.01873,-2.89455c-0.44075,-1.7203 -0.92758,-3.43057 -1.49042,-5.11488c0,0 -0.79055,-2.37172 1.58116,-3.16227c0.59238,-0.19745 1.08611,-0.19763 1.49352,-0.08677c-1.60308,-2.21621 -3.31886,-4.38692 -4.54879,-6.84316c-1.64889,-3.2929 -2.69043,-7.16891 -4.08465,-10.59184c-1.87316,-4.59878 -4.09518,-8.94886 -6.30689,-13.39107c-1.83896,-3.69354 -3.17308,-7.52726 -4.84328,-11.29131c-0.3659,-0.82462 -0.77081,-1.64072 -1.11064,-2.47785c-0.73004,2.93912 -2.1071,5.19646 -3.46465,8.2588c-2.6177,5.90496 -5.00593,12.35925 -7.15905,18.46141c-0.60672,1.71953 -2.29993,7.95716 -2.89649,9.59679c-0.27921,0.7674 -0.56548,1.53283 -0.85763,2.2966c0.46557,0.90241 0.17287,1.92688 0.17287,1.92688c-0.05021,0.17557 -0.10011,0.35124 -0.14967,0.52701c0.4056,0.855 0.17122,1.79255 0.17122,1.79255c-0.26605,1.02136 -0.53209,2.04273 -0.79814,3.06409c1.47195,1.11193 0.65732,2.9449 0.65732,2.9449c-0.67689,1.52302 -1.35377,3.04605 -2.03066,4.56907l-1.16929,2.63094c0,0 -0.01756,0.03951 -0.05325,0.10582c1.57539,0.9645 0.94041,2.86943 0.94041,2.86943c-0.51696,1.55088 -1.03536,3.10128 -1.5555,4.6511l-0.52186,2.62615c1.76806,-0.57222 3.5375,-1.12227 5.3781,-1.2618c0.02461,-0.00187 0.04923,-0.00367 0.07385,-0.0054l-0.00333,-0.01332l4.23588,-1.05895c0.45463,-0.62331 1.19059,-1.02834 2.02115,-1.02834c1.1246,0 2.07577,0.74256 2.38994,1.76412l0.76331,2.28992c0.05152,0.1433 0.09032,0.29268 0.11505,0.44675c0.49942,1.09067 0.02661,2.39947 0.0317,3.59919c0.01698,3.99928 0.01898,8.00074 0,12c-0.00499,1.05057 -0.56682,2.35379 -0.26401,3.28609l0.17342,-0.05781l0.02274,0.0682l0.12618,-0.11275c1.62342,-0.29109 3.30518,-1.39358 4.87027,-0.87327c0.22693,0.07545 0.44753,0.16314 0.66269,0.26137l0.03722,-0.09303l1.49723,0.5989c1.29186,-0.15181 2.61072,-0.21721 3.90643,-0.37165c-0.00673,-0.01987 -0.0134,-0.03976 -0.02,-0.05969c-1.2577,-3.79613 0.7103,-9.88339 0.78782,-13.86486v-3.18153v0c0,-0.72994 0.31283,-1.38681 0.81173,-1.84386c0.08646,-0.89303 0.64276,-1.64859 1.41866,-2.0164l4.4237,-2.21185l0.01585,0.03169l0.51413,-0.24091c0.59987,-0.43827 1.24634,-0.85248 1.92118,-1.24901c1.70089,-1.14691 3.23789,-2.03958 4.79253,-2.77506c-0.06412,0.00357 -0.13002,0.00541 -0.19776,0.00541zM378.62402,258.68415c0.12044,-0.0484 0.24134,-0.09609 0.36278,-0.14311l-0.07871,-0.24433c-0.0781,0.13347 -0.17175,0.26469 -0.28406,0.38743zM378.08194,248.92606c0.22668,0.75591 0.4393,1.51621 0.64209,2.27913c0.164,-0.03981 0.32171,-0.0591 0.47265,-0.06172c-0.32229,-0.76481 -0.69961,-1.50077 -1.11473,-2.21741zM331.14855,267.60972l0.83519,-4.15141c0.54676,-1.6501 1.09486,-3.29975 1.64457,-4.94887c0,0 0.04638,-0.13912 0.15036,-0.33875c-0.25408,-0.15819 -0.4526,-0.33547 -0.60631,-0.52298c-0.78071,1.90035 -1.53954,3.80609 -2.25785,5.72226c-0.84713,2.25984 -1.46825,4.24919 -2.21062,6.15868l2.48703,-0.70536c-0.15619,-0.64457 -0.04239,-1.21357 -0.04239,-1.21357zM384.63606,200.41802c-0.49207,0.98414 -1.2007,1.31856 -1.83996,1.38455c-0.4074,0.76782 -0.95621,1.48663 -1.23138,2.30877c-0.80198,2.3961 -1.22776,4.92055 -1.47688,7.43499c-0.63522,6.41129 -0.66304,12.95128 -1.62009,19.35415c-0.2726,1.82374 -1.07131,3.79605 -1.78955,5.66002c0.13755,0.30589 0.22179,0.68057 0.22179,1.13948c0,0.25638 -0.0263,0.48648 -0.07349,0.69297c2.78033,4.68488 6.56414,8.39286 7.99885,13.90071l0.61074,1.08829c0,0 0.4823,0.96456 0.17985,1.94343c0.2466,-0.08138 0.51018,-0.12541 0.78405,-0.12541c1.38071,0 2.5,1.11929 2.5,2.5c0,0.95781 -0.53865,1.78983 -1.32954,2.20964l-2.8425,1.57918l1.62618,-0.54205c0.26419,-0.09499 0.54901,-0.14673 0.84591,-0.14673c1.38071,0 2.5,1.11929 2.5,2.5c0,1.1246 -0.74257,2.07577 -1.76414,2.38994l-2.21894,0.73963c-5.02378,2.51329 -9.92202,5.23602 -15.21694,7.05463v1.8158c-0.02326,3.59423 1.78747,7.56952 0.69272,11.12441c-0.767,2.49063 -1.72679,3.46407 -3.09216,3.9671l-0.00061,0.11971c-0.00604,1.37556 -1.123,2.48879 -2.49998,2.48879c-1.07603,0 -1.99329,-0.67981 -2.34571,-1.63338c-0.33653,0.06526 -0.66433,0.12606 -0.98439,0.1825c-0.39659,0.85663 -1.26384,1.45087 -2.26988,1.45087h-4.79998c-1.20016,-0.01076 -2.42542,0.21209 -3.60049,-0.03229c-0.17397,-0.03618 -0.34245,-0.07566 -0.50564,-0.11833l-1.18171,0.13131c-0.10228,0.01274 -0.20647,0.0193 -0.3122,0.0193c-0.89528,0 -1.68065,-0.4706 -2.12222,-1.17793c-0.5049,-0.31525 -0.88916,-0.8057 -1.0677,-1.38624l-0.78176,-2.34527l0.0728,-0.02427l-0.11734,-0.12464c-0.67116,-3.38467 -0.75298,-6.42721 -0.52722,-9.46456c-0.15067,-2.02263 -0.20881,-3.98699 -0.0082,-6.05925c-6.07907,1.55201 -11.97774,3.29746 -18.15805,4.53359c0,0 -1.24829,0.24967 -2.1415,-0.49806c-0.58958,0.48362 -1.70657,1.05325 -3.04875,0.04663c-2.00002,-1.49998 -0.50003,-3.5 -0.50003,-3.5c2.90683,-3.82876 3.35938,-6.92224 5.03269,-11.38525c1.08637,-2.89754 2.22203,-5.81693 3.37834,-8.72964c-0.30804,-0.12005 -0.56044,-0.28222 -0.73175,-0.41023c-4.98874,1.06969 -9.89115,-0.37064 -14.87975,-1.10721c-3.08914,-0.45611 -6.39603,0.40756 -9.50498,0.01355c-1.71573,-0.21744 -3.81468,-0.94483 -5.57031,-1.53691c-0.81092,0.04011 -1.62103,0.02947 -2.42969,-0.06306c-4.46884,-0.51137 -7.50674,-2.89919 -11.96131,-3.17418l-0.83162,1.24742c-0.44513,0.68924 -1.2201,1.1455 -2.10163,1.1455c-1.1246,0 -2.07578,-0.74257 -2.38995,-1.76414l-0.73414,-2.20248c-0.08833,-0.14319 -0.17542,-0.28934 -0.26236,-0.44093c-0.47202,-0.18509 -0.94619,-0.3636 -1.4249,-0.52782c-4.20299,-1.44182 -8.72425,-0.2982 -13.03497,-0.67683c-2.8523,-0.25054 -5.69037,-0.79232 -8.55365,-0.78782c-3.06919,0.00482 -11.16396,0.80528 -13.22812,-1.03822c-1.15431,-1.03092 1.49298,-8.36961 2.18228,-9.76019c4.16168,-8.39562 9.21357,-17.18918 11.23109,-26.46882c6.50122,-16.09906 12.81371,-32.33674 19.08352,-48.53583c4.18112,-10.8026 7.70892,-21.83754 12.89511,-32.21496c0,0 1.01776,-2.03554 3.0533,-1.25133c0.10924,-0.0392 0.17645,-0.056 0.17645,-0.056c4.97192,-1.2156 9.89981,-0.87466 15.00633,-0.87466c5.82761,0 11.50202,0.10171 17.20043,0.8323c2.13011,0.27309 4.10848,1.37181 6.24592,1.57986c2.20565,0.21469 4.44955,0.28372 6.64822,0.00656c1.17131,-0.14766 2.26545,-0.82744 3.44599,-0.81802c2.35035,0.01876 4.53206,1.30654 6.8599,1.63159c2.0976,0.2929 4.25029,0.27276 6.30501,0.78643c6.30921,-0.03199 12.36567,0.70856 18.49497,1.61355c2.07914,0.30698 4.21884,-0.26826 6.30502,-0.01355c1.6916,0.20654 3.4578,0.38082 5.24085,0.57912l0.23852,-0.15902c0.40238,-0.2768 0.88986,-0.43883 1.41519,-0.43883c0.84521,0 1.59247,0.41944 2.04496,1.06152c2.33152,0.3386 4.62342,0.78526 6.74559,1.46676l1.9275,0.93568c0,0 2.23605,1.11807 1.11798,3.35412c-1.11807,2.23605 -3.35411,1.11799 -3.35411,1.11799l-1.27246,-0.66436c-0.00924,-0.00323 -0.01848,-0.00645 -0.02774,-0.00965c-0.07502,0.23468 -0.18378,0.45428 -0.32055,0.65311l-1.58102,2.37155l-0.0919,-0.06126l-0.05487,0.2595c-1.51451,1.51449 -2.91539,3.16023 -4.11721,4.93308c-6.0216,4.54112 -9.96743,11.53835 -15.27955,16.85931c-5.53021,5.53941 -11.77031,10.37583 -17.75167,15.35601c-5.66067,4.71317 -10.53722,10.65585 -15.34527,16.15108c-2.67685,3.05944 -5.13885,5.56948 -7.3988,8.95946c-2.98416,3.91505 -6.47712,6.79097 -9.70753,10.54107c-2.12765,2.46992 -3.47753,5.56935 -5.6447,8.05303c-2.36252,2.70756 -4.85291,5.1973 -7.15529,7.94695c-1.15557,1.38005 -2.12032,3.71385 -3.3547,4.97188c-1.77898,1.81305 -3.84991,3.36377 -5.40232,5.37423c-0.86915,1.1256 -2.68583,3.72663 -4.67942,5.83121c1.23314,0.60481 2.46332,1.21304 3.80853,1.35647c0.45293,0.04829 0.85337,0.08003 1.21382,0.0978c0.65978,-0.20763 1.31232,-0.08246 1.56343,-0.0187c1.20511,-0.10432 2.01149,-0.41342 3.66199,-0.67025c-0.16758,0.44953 -0.31715,0.93116 -0.44613,1.4471c-0.00136,0.00543 -0.00271,0.01086 -0.00406,0.01628c3.90504,0.64175 7.54694,0.16444 11.70592,0.7413c4.52039,0.62698 9.50081,2.47518 14.00894,0.89602l2.59332,1.08417c0.49176,-1.21827 0.98458,-2.43276 1.47633,-3.64139c2.53062,-6.21983 4.5622,-12.35091 6.79091,-18.66815c3.69995,-10.48748 8.67273,-20.36488 12.09578,-30.90155c1.78413,-0.44581 3.60621,-1.91431 5.35237,-1.33742c1.35685,0.44827 1.42368,2.48192 2.02941,3.77617c1.09863,2.34739 2.19815,4.69741 3.16224,7.10318c2.3201,5.7895 5.04116,11.17432 7.63681,16.86309c1.33684,2.92989 2.35233,6.07608 3.46974,9.15256c0.04757,-0.22259 0.08677,-0.44262 0.11603,-0.65938c0.85264,-6.31662 0.94302,-12.73424 1.57986,-19.04593c0.31034,-3.07573 1.37778,-5.90684 2.19335,-8.75038c-0.60549,0.25818 -1.20188,0.53667 -1.78749,0.83279c0,0 -2.23607,1.11804 -3.35411,-1.11803c-1.11804,-2.23607 1.11804,-3.35411 1.11804,-3.35411c1.59829,-0.79142 3.25851,-1.47729 4.95926,-2.02585c0.02046,-0.06359 0.04088,-0.12719 0.06126,-0.19077c0.0006,-0.11548 -0.0002,-0.23124 -0.00246,-0.3473c0,0 -0.00001,-1.03851 0.66934,-1.77686c3.66691,-11.92957 5.9698,-23.71206 7.34939,-36.1286c0.64119,-5.77079 2.44822,-11.49141 2.38129,-17.29455l1.53222,-2.56775c0,0 1.76776,-1.76776 3.53553,0c1.76776,1.76776 0,3.53553 0,3.53553l-0.06775,-0.96778c-0.05449,6.07719 -1.7501,11.88752 -2.41875,17.90546c-1.44104,12.96954 -3.88346,25.30175 -7.77767,37.77781c-0.06725,0.0087 -0.13428,0.01808 -0.2011,0.02811c0.00286,0.13055 0.00717,0.26128 0.01238,0.3921l0.20313,0.06044c0,0 2.23606,1.11803 1.11803,3.3541zM274.61,235.36481l-1.54021,-1.78104l0.00885,-0.00765c-0.01833,-0.01567 -0.03663,-0.03139 -0.05489,-0.04715c-1.91332,-1.65138 -4.47252,-6.34356 -5.71719,-8.43391l-0.01837,-0.33454l-0.092,0.02629l-0.60602,-2.12109c-0.30201,-0.47497 -0.58318,-0.96259 -0.83594,-1.46734c-1.13132,-2.25921 -1.72542,-5.10622 -2.52594,-7.50781l-0.78154,-2.34463c-0.09499,-0.2642 -0.14674,-0.54901 -0.14674,-0.84592c0,-1.38071 1.11929,-2.5 2.5,-2.5c0.40947,0 0.79594,0.09844 1.13705,0.27295c-0.27689,-0.38987 -0.54957,-0.7849 -0.81716,-1.1862c0,0 -1.38674,-2.08013 0.6934,-3.46687c2.08013,-1.38674 3.46687,0.6934 3.46687,0.6934c4.8375,7.25815 10.40942,13.6085 14.59773,21.33535c1.28449,2.36971 2.66934,4.70471 4.28328,6.86406c1.72929,-1.47564 3.67779,-2.72451 5.15023,-4.45071c1.64808,-1.9321 3.13338,-4.49709 4.79999,-6.39996c0.94488,-1.07883 2.19933,-1.87704 3.06053,-3.02377c2.73533,-3.64224 4.42077,-7.53499 7.8092,-10.87977c1.49496,-1.4757 3.06004,-2.9049 4.61954,-4.34375c5.89194,-7.12991 11.82782,-14.30741 18.18041,-21.02979c1.44142,-1.52533 2.98368,-2.99633 4.5535,-4.45614c2.15594,-3.00847 4.21413,-6.08483 6.51679,-8.99491c5.03688,-6.36558 10.8017,-12.3006 16.71189,-17.98362c2.90231,-3.58682 5.91321,-7.0663 9.13667,-10.28323c1.83814,-1.83442 4.40492,-2.82654 6.24122,-4.66279c0.88473,-0.8847 1.6139,-1.90901 2.36813,-2.91084c-0.2712,-0.03973 -0.54275,-0.07726 -0.81472,-0.11212c-2.14744,-0.27528 -4.35054,0.2839 -6.49502,-0.01355c-6.07592,-0.84274 -12.0497,-1.55924 -18.30496,-1.58646c-2.11678,-0.52919 -4.33592,-0.49891 -6.49504,-0.81355c-2.87351,-0.41873 -2.75751,-1.60152 -5.94002,-1.56843c-1.01853,0.01059 -1.94318,0.65666 -2.95403,0.78196c-2.56431,0.31786 -5.18127,0.26944 -7.7518,0.00657c-2.23879,-0.22895 -4.32011,-1.34858 -6.55413,-1.62009c-6.48875,-0.78862 -12.96393,-0.76774 -19.59956,-0.76774c-3.80472,0 -6.94409,-0.21135 -10.59359,0.72537c0,0 -0.26718,0.06679 -0.64634,0.06737c-4.75286,9.83022 -8.0883,20.233 -12.02885,30.41034c-6.22895,16.08765 -12.45761,32.24643 -18.97061,48.21176c-1.6495,7.4264 -5.55182,14.34036 -8.21588,21.35254c-1.10411,2.90616 -3.01565,5.00565 -3.97301,7.92321c-0.20394,0.62151 -0.26508,1.31947 -0.52097,1.91423c5.0375,-1.79273 11.93284,-0.03029 16.79563,0.40735c4.07342,0.3666 5.50953,-0.40651 9.59997,0c0.6544,0.06503 1.27737,0.17108 1.87828,0.30701c-0.37273,-1.11335 -0.72783,-2.24167 -1.11462,-3.35435zM375.55354,142.61707c0.41019,-0.4366 0.8316,-0.86086 1.27697,-1.25837c2.38196,-2.12598 4.68479,-3.78587 7.14149,-5.28669l-0.13977,-0.13977l1.45889,-1.45888c-0.29458,-0.04224 -0.58875,-0.08717 -0.88258,-0.13423c-0.0244,0.04887 -0.04944,0.09749 -0.0752,0.14584c-1.27362,2.39142 -4.73233,4.17576 -6.69532,5.90366c-0.78396,0.69007 -1.5776,1.39352 -2.37537,2.10736c0.09725,0.03204 0.19452,0.07199 0.29089,0.12108zM310.11139,216.06201c1.5551,-1.77212 2.91554,-3.70614 4.25944,-5.65332c-1.54893,1.96994 -3.05763,3.97148 -4.55164,5.98466c0.09764,-0.11018 0.19504,-0.22062 0.2922,-0.33134zM289.57007,239.71874c0.08067,-0.11386 0.16883,-0.2218 0.26254,-0.3254c-0.08391,0.00581 -0.16774,0.00806 -0.25146,0.00659c-0.19753,-0.00348 -0.39803,-0.02894 -0.60057,-0.07397c-0.00276,0.00312 -0.00552,0.00624 -0.00828,0.00935c0.23116,0.09901 0.4294,0.23394 0.59778,0.38343zM275.09374,220.38277c0.06579,0.17315 0.13205,0.34614 0.19877,0.51895c0.03178,-0.00976 0.06327,-0.01895 0.09447,-0.02757c-0.09679,-0.1644 -0.19449,-0.32822 -0.29323,-0.49138zM281.54424,240.02129c0.10858,0.2385 0.24132,0.46895 0.38325,0.69606c0.00513,-0.01044 0.01026,-0.02087 0.01541,-0.0313c-0.13394,-0.22087 -0.26662,-0.44259 -0.39866,-0.66476z" fill="#696969" stroke-width="0.5"></path>
      <path d="M376.1,181.70001c0,1.71614 -1.17806,2.25423 -1.9168,2.42294c-2.06043,3.05166 -3.74908,5.59279 -3.68318,9.57706c0,0 0,2.5 -2.5,2.5c-2.5,0 -2.5,-2.5 -2.5,-2.5c0.06754,-5.49889 2.27355,-8.96721 5.21985,-13.38673l2.88012,-1.11327c0,0 2.5,0 2.5,2.5z" fill="#696969" stroke-width="0.5"></path>
      <path d="M328.70004,208.89999c0,-2.5 2.5,-2.5 2.5,-2.5l0.19366,0.07464c3.8682,-0.96703 6.30815,-1.91054 10.19689,-0.74634c0,0 2.37171,0.79058 1.58113,3.16228c-0.79058,2.3717 -3.16228,1.58113 -3.16228,1.58113c-2.60604,-1.02929 -4.7067,0.17956 -7.40308,0.85365l-1.40632,0.07464c0,0 -2.5,0 -2.5,-2.5z" fill="#696969" stroke-width="0.5"></path>
      <path d="M327.03225,225.86777c-1.76776,-1.76776 0,-3.53553 0,-3.53553l2.58282,-2.56562c1.2177,-0.71483 2.26166,-1.90436 3.6531,-2.1445c1.19471,-0.20618 2.34827,0.6041 3.52241,0.90615c0,0 2.37171,0.79055 1.58116,3.16226c-0.79055,2.37171 -3.16226,1.58117 -3.16226,1.58117c-0.42588,-0.23128 -0.79831,-0.76532 -1.27763,-0.69383c-0.51385,0.07665 -0.76456,0.70363 -1.14684,1.05545l-2.21723,2.23444c0,0 -1.76777,1.76776 -3.53554,0z" fill="#696969" stroke-width="0.5"></path>
      <path d="M136.00003,274.39999l-0.16777,0.73221c2.3475,-2.34744 6.74766,-5.24459 6.48268,-9.15943c-0.3383,-4.9982 -8.94691,-1.62742 -9.60274,-7.22639c-0.20013,-1.70856 1.97899,-2.81441 2.95443,-4.23135c1.6586,-2.40929 3.25867,-5.00972 2.74064,-8.0906c-0.34982,-2.08047 -3.28033,-1.46624 -4.42764,-0.92023c-1.75979,0.83749 -1.60621,2.37315 -1.95428,4.00211c0,0 -0.12301,0.49205 -0.47984,0.97748c0.84335,3.98472 1.00561,7.69356 1.34595,11.81001c0.34256,4.14322 1.27546,8.22032 2.15246,12.29268c0.51306,-0.1865 0.95609,-0.1865 0.95609,-0.1865zM131.62039,241.09582c4.24001,-2.16757 10.09915,-1.26411 11.57236,3.8797c0.97559,3.40634 -0.40754,10.96893 -4.21788,12.87522c0.97564,0.11389 1.95113,0.34761 2.83654,0.76297c2.90161,1.36118 4.95618,3.39747 5.47369,6.81348c0.85517,5.64491 -4.53577,9.85912 -7.91734,13.2406l-3.3536,0.72914c0.01618,0.09003 0.03221,0.18008 0.04808,0.27013l-1.78573,-0.41997l-3.13872,1.28587c-0.22353,-1.27425 -0.47678,-2.546 -0.74166,-3.81726l0.10391,2.58432c0,0 0,2.5 -2.5,2.5c-2.5,0 -2.5,-2.5 -2.5,-2.5l0.12829,-1.60945c-1.05534,-3.16603 -2.33118,-6.13046 -3.71407,-9.03279l-1.91423,1.14225c-1.45712,-0.06314 -3.04139,0.31191 -4.21331,1.18012c0,0 -2.08014,1.38673 -3.46687,-0.69342c-0.23765,-0.35649 -0.37348,-0.69261 -0.43541,-1.00487c-0.40332,2.36787 1.46107,5.02651 1.78332,7.21766c0.25498,1.73379 0.1247,3.55605 0.70399,5.20997c0,0 0.79055,2.37171 -1.58116,3.16227c-2.37171,0.79055 -3.16227,-1.58116 -3.16227,-1.58116c-0.61729,-1.92223 -0.61961,-3.9902 -0.89599,-5.9901c-0.48018,-3.47472 -2.56576,-6.13263 -1.52505,-9.92494c0.47609,-1.73485 2.87089,-2.62499 3.11486,-4.40736c0.08342,-0.60942 -0.69499,-1.05999 -0.78983,-1.66774c-0.54739,-3.50778 0.01525,-7.22368 0.84235,-10.60675l-0.07464,-1.7937c0,0 0,-2.3058 2.21443,-2.48853c-0.5161,-0.38514 -1.01806,-0.77533 -1.22414,-1.35474c-0.55408,-1.55785 -0.12687,-3.30447 -0.1903,-4.95671c0,0 0,-2.5 2.5,-2.5c2.5,0 2.5,2.5 2.5,2.5c-0.06343,1.01443 -0.57029,2.10058 -0.1903,3.04329c0.39416,0.97788 1.83134,1.22995 2.29451,2.17709c1.42784,2.91977 0.93415,6.72204 2.44156,9.68124c3.46906,6.81007 6.95246,13.09597 9.45276,20.30452c-0.88986,-4.17375 -1.83316,-8.35011 -2.19002,-12.5999c-0.36548,-4.35237 -0.46014,-8.11634 -1.53385,-12.39993c0,0 -0.45014,-1.80059 0.97673,-2.68675c0.74137,-2.94791 0.85456,-4.77821 4.269,-6.52374zM116.07557,264.90728c1.25716,-0.36344 2.61631,-0.07151 3.92446,-0.10727l-0.96778,-0.06775c0,0 0.26639,-0.26639 0.69576,-0.48894c-1.17915,-2.31803 -2.39023,-4.64198 -3.57381,-7.04494c-0.66046,-1.34091 -0.91588,-2.8904 -1.13682,-4.43849c-0.57784,2.50867 -0.88699,5.16705 -0.54964,7.73966c0.14022,1.06931 1.00149,2.07096 0.81015,3.13231c-0.19787,1.09751 -0.9761,1.95878 -1.741,2.83177c0.81405,-0.59087 1.58406,-1.28037 2.53868,-1.55634z" fill="#696969" stroke-width="0.5"></path>
      <path d="M158.39999,281.00003c-2.5,0 -2.5,-2.5 -2.5,-2.5l0.07465,-1.40643c1.30576,-5.21965 1.52538,-9.81343 1.52538,-15.19361c0,-3.56764 0.51469,-7.22226 -0.6717,-10.60939c0,0 -0.36805,-1.10414 0.15147,-2.05681c-0.18845,-0.66378 -0.40343,-1.32027 -0.64869,-1.9681c-1.99022,0.63957 -4.02586,1.16453 -5.00262,1.55553c0,0 -2.32118,0.9285 -3.24968,-1.39269c-0.9285,-2.32118 1.39269,-3.24968 1.39269,-3.24968c4.73913,-1.89434 8.98939,-3.15246 14.0465,-3.9149l2.05373,3.84542c0,0 0.79062,2.37169 -1.58107,3.16231c-1.31292,0.43767 -2.14132,-0.09375 -2.6193,-0.65544c2.05568,6.4775 1.94118,13.33691 1.90992,20.18925l-0.8559,3.50083c0,0 -0.08617,0.34468 -0.32348,0.74168c-0.25207,2.38103 -0.65237,4.76038 -1.27657,7.25836l0.07465,0.19367c0,0 0,2.5 -2.5,2.5zM161.28198,244.73611c-0.09439,0.15611 -0.2297,0.30922 -0.39957,0.45922c0.02665,0.07167 0.053,0.14339 0.07907,0.21517z" fill="#696969" stroke-width="0.5"></path>
      <path d="M191.20004,258.39999c1.3087,0 1.93232,0.68507 2.22949,1.33798c0.31452,-0.40417 0.45748,-1.0126 0.80272,-1.40572c1.68866,-1.92286 2.8119,-1.90902 3.26886,-4.70571c0.30815,-1.88598 -2.82846,-4.06687 -4.54437,-3.21683c-0.73026,0.36176 -1.03181,1.26335 -1.58897,1.85809c-0.04203,0.04487 -0.08422,0.08958 -0.12655,0.13416c0.05879,0.29283 0.05879,0.49804 0.05879,0.49804c-0.00647,1.76455 -0.08476,3.61858 -0.237,5.50257c0.04482,-0.0017 0.09049,-0.00257 0.13702,-0.00257zM185.43228,254.66776c-0.21312,-0.21312 -0.37486,-0.42624 -0.4945,-0.63627c-2.04477,6.7058 -3.65686,13.36453 -6.35963,19.9546c-1.46345,3.56827 -2.44806,8.79144 -8.1235,8.50021c-1.44696,-0.07425 -1.53135,-2.46004 -2.30044,-3.68792c-1.28111,-2.04536 -2.06992,-4.60179 -1.83547,-7.00382c0.41941,-4.2969 2.06252,-8.34259 3.28493,-12.40692c1.23394,-4.1027 2.12942,-8.51764 3.17102,-12.69399c0,0 0.5791,-2.31626 2.86902,-1.85571c0.24075,-0.62202 0.5487,-1.20358 0.98852,-1.70571c1.90843,-2.17879 6.8598,-1.99701 8.59591,0.30599c0.54737,0.7261 0.48763,5.32609 0.45228,7.44469c1.15851,-1.16613 4.84553,-4.88614 5.36289,-5.0926c4.90372,-1.95686 12.06743,2.31996 11.45563,7.98312c-0.3746,3.46753 -4.63078,10.0534 -8.32459,11.15973c-1.23329,0.36938 -2.50996,-0.57433 -3.76494,-0.86149l-0.01926,-0.03573c-0.40091,2.51088 -0.9368,4.97019 -1.61271,7.23721c-0.63452,2.12815 -1.8241,4.07612 -2.35206,6.23317l-4.32016,-1.23352l-0.53055,0.02086c0.01363,-0.05357 0.02761,-0.10703 0.04192,-0.16038l-0.11656,-0.03328c0,0 0,-1.12572 0.7554,-1.86636c0.58712,-1.50183 1.30106,-2.9639 1.76711,-4.50673c1.32744,-4.3944 2.0675,-9.6851 2.23906,-14.46583c-0.27182,-0.12372 -0.55058,-0.31457 -0.82933,-0.59332zM192.18586,259.50777c0.20521,0.22198 0.40363,0.51102 0.62487,0.57455zM176.49623,252.19513c-1.56734,5.73418 -3.28754,11.40811 -4.44861,17.21393c-0.18292,0.91467 -1.25998,3.92071 -0.85488,5.1665c0.20304,0.62438 0.87118,1.02234 1.23839,1.56042c0.47958,-1.34366 0.98799,-2.67701 1.50464,-4.00686c1.54019,-3.96446 3.22037,-7.79209 4.44556,-11.87315c0.93177,-3.10369 1.28784,-6.29051 2.35099,-9.35643c-0.01752,-1.51957 0.33855,-3.02145 0.43961,-4.53776c0.02327,-0.34915 -0.86874,-0.01666 -1.00419,0.30599c-0.50201,1.19588 -0.65145,2.51081 -0.97717,3.76621l-0.01885,0.05657c0,0 -0.6811,2.04331 -2.6755,1.70459z" fill="#696969" stroke-width="0.5"></path>
      <path d="M213.60001,286.60001c-2.5,0 -2.5,-2.5 -2.5,-2.5l0.12829,-1.59054c0.719,-2.15409 1.67302,-4.22489 2.39301,-6.37865c0.7054,-2.11014 1.05334,-4.35712 1.5195,-6.53013c-1.11347,1.95793 -2.17288,3.99496 -3.56106,5.78601c-2.1545,2.77978 -4.27656,4.68044 -6.68062,6.41238l0.06869,0.06869l-3.20001,3.20001c-0.45241,0.45241 -1.07741,0.73223 -1.76777,0.73223c-1.38071,0 -2.5,-1.11929 -2.5,-2.5v-3.20001h0.09881l-0.08008,-0.30545c1.13839,-4.65637 3.43168,-9.65589 4,-14.40002c0.5452,-4.55113 1.3409,-8.62996 2.45587,-13.10086c0,0 0.60633,-2.42536 3.03169,-1.81903c2.42536,0.60633 1.81903,3.03169 1.81903,3.03169c-1.07804,4.30231 -1.7793,8.13863 -2.34405,12.49911c-0.44268,3.41795 -1.68313,6.91732 -2.79325,10.34481c1.22633,-1.23441 2.65751,-2.38487 3.93405,-4.01919c3.09706,-3.96508 4.50467,-9.16372 8.60657,-12.02273l0.58146,-1.74424c0.31419,-1.02153 1.26534,-1.76407 2.38992,-1.76407c1.38071,0 2.5,1.11929 2.5,2.5v4.79999h-0.05627c0.01371,0.1016 0.02625,0.20342 0.03754,0.30547c0.0077,0.06964 -1.59404,6.45327 -1.65595,6.70088c-1.11734,4.46939 -2.60234,8.6238 -4.05364,12.98421l0.12829,0.00944c0,0 0,2.5 -2.5,2.5z" fill="#696969" stroke-width="0.5"></path>
      <path d="M224.31985,278.71328c1.38673,-2.08014 3.46687,-0.69342 3.46687,-0.69342l2.11168,1.43433c2.23329,1.09661 6.58001,-1.68736 6.80738,-4.32345c0.32136,-3.72579 -4.80419,-4.40473 -5.47045,-7.01936c-1.53831,-6.0368 6.05176,-5.13161 5.46579,-9.53794c-0.53388,-4.01464 -2.47236,-3.25326 -4.71615,-1.34008c-0.79842,0.68077 -1.47812,1.48959 -2.21717,2.23438c0,0 -1.76777,1.76777 -3.53553,0c-1.76777,-1.76777 0,-3.53553 0,-3.53553c3.34517,-3.32289 8.96384,-8.64725 13.30909,-3.00736c2.61724,3.39703 2.7107,5.66667 1.10443,9.07353c-0.52691,1.11756 -1.22059,2.17977 -2.07799,3.0694c-0.59329,0.61559 -1.43059,0.94008 -2.18103,1.3497c-0.12524,0.06836 -0.54966,0.00731 -0.42208,0.07117c5.3731,2.68946 7.69154,9.27007 3.47502,14.50415c-0.93456,1.16009 -2.58723,1.48105 -3.92166,2.14325c-1.35512,0.67247 -2.63603,1.70181 -4.14077,1.85768c-1.26725,0.13128 -2.45042,-0.69865 -3.67563,-1.04797l-2.68837,-1.76562c0,0 -2.08014,-1.38673 -0.69342,-3.46687z" fill="#696969" stroke-width="0.5"></path>
      <path d="M252.3055,276.9813c-1.01233,0.0044 -2.02466,0.00881 -3.037,0.01321c-1.28978,2.47771 -2.59352,4.94577 -3.8324,7.42353c0,0 -1.11803,2.23607 -3.3541,1.11805c-2.23607,-1.11803 -1.11805,-3.3541 -1.11805,-3.3541c2.89788,-5.79582 6.16673,-11.53741 8.74447,-17.48131c1.06929,-2.46564 1.94954,-5.03025 3.27907,-7.36575l1.55222,-3.10449c0.40086,-0.84562 1.26228,-1.43043 2.2603,-1.43043c1.38071,0 2.5,1.11929 2.5,2.5v5l-0.41411,0c0.96749,6.40753 1.15841,13.15545 0.38183,19.40046c-0.14948,1.20209 -2.32555,6.3751 -2.54656,6.928l-0.88509,1.78954c0,0 -1.118,2.23609 -3.35408,1.11809c-2.23609,-1.118 -1.11809,-3.35408 -1.11809,-3.35408l0.71489,-1.41053c0.77913,-1.94634 2.02633,-3.78777 2.25349,-5.87192c0.08795,-0.80695 0.14345,-1.6274 0.17528,-2.45667zM254.3218,266.62963c-0.01004,0.02323 -0.0201,0.04644 -0.03017,0.06965c-0.77203,1.77766 -1.6038,3.53759 -2.46831,5.28644l2.65839,-0.68234c-0.05221,-1.57019 -0.12426,-3.13805 -0.1599,-4.67374z" fill="#696969" stroke-width="0.5"></path>
      <path d="M269.62832,275.30945c1.21647,-3.64951 2.21285,-7.28193 3.14638,-11.01583c0,0 0.60637,-2.42535 3.03172,-1.81898c2.42535,0.60637 1.81898,3.03172 1.81898,3.03172c-0.83703,3.34793 -1.72564,6.62082 -2.76752,9.89218c0.70108,-0.17469 1.34526,-0.20362 1.80394,0.27332c4.00718,4.16679 0.12199,5.75848 -0.62868,9.00253c-0.25747,1.11269 0.04459,2.28374 0.06688,3.42561l-1.53222,2.56775c0,0 -1.76777,1.76777 -3.53553,0c-1.76777,-1.76777 0,-3.53553 0,-3.53553l0.06775,0.96778c0.02229,-1.5248 -0.25282,-3.08332 0.06688,-4.57439c0.18601,-0.86755 0.61078,-1.66889 1.09145,-2.42899c-0.77532,-0.00574 -1.58163,-0.20819 -2.35287,-0.11533c-2.82688,0.3404 -5.78089,2.506 -8.14149,-1.36323c-0.74067,-1.21402 0.3645,-2.82274 0.63622,-4.21866c0.5124,-2.63236 1.80629,-5.07017 2.33214,-7.69988c0.52618,-2.63142 0.365,-5.36279 0.80172,-8.01053c0,0 0.41099,-2.46599 2.87698,-2.05499c2.46599,0.41099 2.05499,2.87698 2.05499,2.87698c-0.80248,4.76126 -1.06198,8.37379 -2.44733,13.03302c-0.03393,0.11412 -0.08944,1.809 -0.61905,2.90791c0.61627,-0.20449 1.25396,-0.34962 1.89491,-0.43317c0.09894,-0.0129 0.19805,-0.02273 0.29731,-0.03001z" fill="#696969" stroke-width="0.5"></path>
      <path d="M293.60001,290.60001c-2.5,0 -2.5,-2.5 -2.5,-2.5l0.41988,-2.18675c1.63627,-2.37675 2.22538,-5.12148 2.93013,-7.87921c-0.93428,1.07704 -1.88346,2.1822 -2.77783,3.46454c-1.12903,1.61879 -3.27455,6.57182 -4.26278,7.49682c-4.72291,4.42073 -7.64863,6.40327 -9.10755,-0.79947c-0.53058,-2.61946 1.07503,-5.23637 1.65904,-7.84443c0.45185,-2.01783 0.49588,-4.1058 0.75787,-6.15693c0.52155,-4.08325 2.42883,-7.5667 2.38123,-11.69455c0,0 0,-2.5 2.5,-2.5c2.5,0 2.5,2.5 2.5,2.5c-0.03972,4.42997 -1.89062,7.97695 -2.41869,12.30545c-0.2703,2.21563 -0.36132,4.46336 -0.84223,6.64299c-0.01286,0.05829 -0.21393,1.17755 -0.47813,2.48119c0.50151,-0.703 1.00923,-1.40368 1.41727,-2.13658c2.63545,-4.73366 6.66408,-8.13092 9.10241,-12.89493l0.5389,-0.23876l-0.11953,-0.15937l3.17981,-2.38487c0.42124,-0.32312 0.9483,-0.51516 1.52021,-0.51516c1.38071,0 2.5,1.11929 2.5,2.5c0,0.22871 -0.03071,0.45025 -0.08824,0.66072l-0.78639,3.14562l-0.01839,-0.0046c-0.00211,0.03242 -0.00434,0.06484 -0.00667,0.09726c-0.16506,2.28836 -1.76666,4.98175 -2.40002,7.19998c-1.01718,3.56248 -1.47113,6.33921 -3.5202,9.48779l0.41988,-0.58677c0,0 0,2.5 -2.5,2.5z" fill="#696969" stroke-width="0.5"></path>
      <path d="M297.43228,290.66776c-1.76777,-1.76777 0,-3.53553 0,-3.53553l0.79997,-0.79997c4.00974,-3.9942 6.76658,-8.0598 11.78102,-10.94975c1.30071,-0.21927 -0.55883,0.16482 -1.38104,-0.71476c-0.99909,-1.06881 -2.0681,-2.29577 -2.29552,-3.74104c-0.24559,-1.56075 0.40944,-3.16359 0.97702,-4.63808c1.1611,-3.01638 4.78284,-7.00341 8.28584,-7.05637c1.90571,-0.02881 4.3427,-0.40082 5.6286,1.00596c1.04979,1.14847 -0.78807,5.41915 -1.22785,6.96077c-1.25423,4.3966 -2.81105,8.5442 -4.25455,12.88267c-1.50357,4.51904 -2.2361,8.60135 -4.8656,12.60508c0,0 -1.38673,2.08014 -3.46687,0.69342c-2.08014,-1.38673 -0.69342,-3.46687 -0.69342,-3.46687c1.86335,-2.7433 3.11341,-6.04128 4.16706,-9.42007c-0.72266,0.48433 -1.43224,0.98579 -2.10192,1.54014c-2.69731,2.23277 -4.54202,5.35042 -7.0172,7.83439l-0.80001,0.80001c0,0 -1.76777,1.76777 -3.53553,0zM313.38949,272.03849c0.07888,-0.24581 0.15869,-0.4897 0.23963,-0.73146c0.63471,-1.89581 0.86497,-4.75075 1.72708,-6.78923c-0.25294,0.06528 -0.43112,0.10124 -0.44185,0.10885c-1.18114,0.83775 -3.82137,3.73948 -3.65101,5.4467c0.09684,0.97046 1.13768,1.44672 2.12616,1.96514z" fill="#696969" stroke-width="0.5"></path>
      <path d="M143.03224,173.06774c-1.76776,-1.76778 0.00002,-3.53553 0.00002,-3.53553l2.23443,-2.21719c0.83,-1.23345 1.50569,-2.5905 1.96161,-4.00558c0,0 0.79056,-2.37171 3.16227,-1.58115c2.37171,0.79056 1.58115,3.16227 1.58115,3.16227c-0.67656,1.9786 -1.68342,3.85119 -2.83832,5.5944l-2.56562,2.5828c0,0 -1.76778,1.76776 -3.53553,-0.00002z" fill="#696969" stroke-width="0.5"></path>
      <path d="M180.00003,133c-0.24028,0 -0.45747,-0.02309 -0.65378,-0.06484c-1.89446,1.00378 -3.87539,1.85776 -5.9399,2.3902c0,0 -2.42536,0.60633 -3.03169,-1.81903c-0.60633,-2.42536 1.81903,-3.03169 1.81903,-3.03169c2.31532,-0.55601 4.48609,-1.68036 6.5201,-2.91836l3.78624,2.94372c0,0 0,2.5 -2.5,2.5z" fill="#696969" stroke-width="0.5"></path>
      <path d="M182.37174,142.49059c-0.79058,2.37171 -3.16228,1.58113 -3.16228,1.58113l-2.00991,-0.70401c-0.93318,0.01076 -1.86637,0.02152 -2.79955,0.03228c0,0 -2.5,0 -2.5,-2.5c0,-2.5 2.5,-2.5 2.5,-2.5c1.20016,0.01076 2.40032,0.02152 3.60047,0.03228l2.79014,0.89603c0,0 2.37171,0.79058 1.58113,3.16228z" fill="#696969" stroke-width="0.5"></path>
    </g>
  </g>
</svg>
