<?xml version="1.0" encoding="UTF-8"?>
<svg xmlns="http://www.w3.org/2000/svg" xmlns:xlink="http://www.w3.org/1999/xlink" version="1.1" width="288.10199" height="221.4367" viewBox="0,0,288.10199,221.4367">
  <g transform="translate(-78.47468,-56.21436)">
    <g stroke="none" stroke-miterlimit="10">
      <g stroke-width="0.5">
        <g>
          <path d="M183.70209,181.09973c0,-0.63106 0.23381,-1.2075 0.61954,-1.64743c0.04267,-0.30868 0.08786,-0.61554 0.13552,-0.92043c-0.11233,-0.28428 -0.17404,-0.59408 -0.17404,-0.91829c0,-0.61634 0.22304,-1.18058 0.5928,-1.61643c0.00622,-7.09398 1.99246,-13.29301 4.85584,-19.74363c0.696,-1.56795 1.52969,-4.25532 2.57662,-5.6669c0.59833,-0.80673 4.00107,-3.92381 4.78764,-4.82442c2.16945,-2.48398 4.15418,-5.33363 6.48481,-7.65528c2.95801,-2.94662 6.83359,-5.30916 10.17258,-7.81341c0,0 1.38168,-1.03627 2.70954,-0.23776c4.79281,-2.35035 9.88425,-2.84319 14.96661,-4.23694c7.09966,-1.94697 15.30409,-4.81535 22.611,-1.61783c0.9876,0.43218 1.70257,1.32944 2.61801,1.89873c2.33331,1.45103 5.09122,2.11529 7.46381,3.43337c1.88949,1.0497 3.54594,2.47886 5.39941,3.59094c2.17793,1.62974 5.17419,3.08644 7.17924,4.80348c0.83622,0.7161 1.30162,1.77976 2.02982,2.60546c2.84971,3.23125 6.05536,5.90977 8.37237,9.62011c2.08409,3.33736 3.0174,7.18425 4.76122,10.66189c1.12372,2.24101 2.4225,4.44178 3.08176,6.86051c1.87662,6.88496 1.26102,14.70797 1.23362,21.80498c-1.96465,10.02085 -6.52976,19.22621 -12.66127,27.3616c-0.65438,0.86825 -3.95384,3.87198 -4.78769,4.82445c-0.80896,0.92403 -2.83958,4.01056 -3.60703,4.77801c-2.84089,2.84087 -6.44484,4.11382 -9.74984,6.16912c-0.91544,0.56929 -1.63385,1.4588 -2.61803,1.8987c-1.75799,0.78577 -3.75238,0.98082 -5.47654,1.83828c-5.30866,0.92359 -9.318,1.20999 -14.31296,0.4397l-0.83048,0.25904c-9.0662,-1.61307 -17.87728,-2.46028 -26.2575,-6.65039c-3.88791,-1.96141 -6.40596,-4.40403 -9.36512,-7.44064c-1.49752,-1.53671 -2.31834,-1.41801 -4.13528,-2.51063c-3.03494,-1.82505 -6.70509,-4.26254 -9.22834,-6.78579c-7.78779,-7.7878 -10.07247,-20.37954 -9.14401,-31.36705c-0.1936,-0.35505 -0.30362,-0.76223 -0.30362,-1.19511zM239.07549,231.47315l2.8144,0.04855c0.31507,0.06301 0.62379,0.12166 0.92695,0.17608l1.85937,-0.67736c0,0 2.11821,-0.70606 3.01828,1.21815c2.54657,0.08502 4.99577,-0.16252 8.03868,-0.64288c1.56273,-0.78572 3.38174,-0.94163 4.98195,-1.64791c0.78589,-0.34687 1.3028,-1.13042 2.0302,-1.58741c2.9561,-1.85718 6.29795,-2.90641 8.84298,-5.45141c1.32794,-1.32792 2.12894,-3.10482 3.36526,-4.51845c1.39354,-1.59339 3.24355,-2.77492 4.50877,-4.47201c5.55736,-7.45428 9.86979,-15.78368 11.74182,-24.93073c-0.02974,-6.49818 0.62851,-13.73099 -1.09045,-20.02894c-0.57229,-2.09677 -1.75865,-3.97698 -2.7285,-5.92205c-1.66389,-3.33699 -2.53788,-7.06246 -4.53524,-10.25505c-2.17292,-3.4732 -5.25112,-5.92383 -7.89639,-8.97277c-0.54801,-0.63163 -0.8217,-1.49813 -1.45628,-2.04272c-1.8874,-1.61974 -4.6956,-2.93672 -6.76544,-4.49298c-1.7393,-1.04358 -3.28599,-2.39629 -5.05909,-3.38136c-2.43356,-1.35199 -5.24939,-2.03526 -7.64282,-3.53894c-0.72742,-0.457 -1.24796,-1.23243 -2.03022,-1.58746c-5.98406,-2.71585 -13.46947,0.30734 -19.22288,1.86837c-4.74185,1.28656 -9.6545,1.6281 -14.08128,3.89571c0,0 -1.21514,0.60756 -2.30176,0.03115c-3.03885,2.23822 -6.57853,4.3701 -9.22264,7.02607c-2.25811,2.26823 -4.18107,5.03645 -6.29784,7.4514c-1.3953,1.59184 -3.22629,2.7879 -4.50872,4.47199c-0.51018,0.66996 -1.92377,4.45935 -2.07161,4.79159c-2.70115,6.07047 -4.41523,11.72053 -4.441,18.39607c-2.08491,10.63422 -1.45276,25.14245 6.83329,33.4285c3.04984,3.04983 7.02575,4.91832 10.58607,7.1945c4.04413,2.58549 6.37552,6.39578 10.84322,8.60596c3.48754,1.74376 6.35989,2.22506 10.05277,3.32585c2.77514,0.82722 5.30469,1.94451 8.24938,2.23264c0.6014,0.05884 1.20643,0.09721 1.8113,0.1372c0.46542,-0.14936 0.84749,-0.14936 0.84749,-0.14936z" fill="#c19e4b"></path>
          <path d="M238.22621,231.67248c-0.60487,-0.03999 -1.21165,-0.07845 -1.81306,-0.13729c-2.94469,-0.28813 -5.48245,-1.40669 -8.25758,-2.23391c-3.69288,-1.10079 -6.57504,-1.58557 -10.06258,-3.32934c-4.4677,-2.21018 -6.81054,-6.02801 -10.85466,-8.6135c-3.56032,-2.27618 -7.5443,-4.1537 -10.59413,-7.20353c-8.28606,-8.28605 -8.92704,-22.82606 -6.84213,-33.46028c0.02577,-6.67555 1.74455,-12.34374 4.4457,-18.41422c0.14784,-0.33225 1.56385,-4.12613 2.07403,-4.79609c1.28243,-1.68409 3.11695,-2.88523 4.51225,-4.47707c2.11677,-2.41494 4.04645,-5.19016 6.30456,-7.45839c2.64412,-2.65598 6.19322,-4.79423 9.23207,-7.03245c1.08662,0.5764 2.30359,-0.03206 2.30359,-0.03206c4.42678,-2.26761 9.35341,-2.61336 14.09525,-3.89993c5.7534,-1.56103 13.25747,-4.58345 19.24154,-1.8676c0.78226,0.35503 1.305,1.13102 2.03241,1.58802c2.39343,1.50367 5.21695,2.1898 7.65051,3.54179c1.7731,0.98506 3.32504,2.34064 5.06434,3.38422c2.06985,1.55626 4.88449,2.87803 6.77189,4.49777c0.63458,0.54459 0.91006,1.41272 1.45807,2.04436c2.64527,3.04893 5.73096,5.50873 7.90388,8.98193c1.99736,3.19259 2.87623,6.92803 4.54012,10.26502c0.96985,1.94508 2.15797,3.83139 2.73026,5.92815c1.71897,6.29796 1.06112,13.5502 1.09086,20.04837c-1.87203,9.14705 -6.19582,17.5004 -11.75318,24.95469c-1.26522,1.69708 -3.1195,2.88299 -4.51304,4.47639c-1.23632,1.41362 -2.04134,3.19381 -3.36928,4.52173c-2.54503,2.54501 -5.89526,3.5992 -8.85136,5.45638c-0.7274,0.45699 -1.24643,1.24148 -2.03233,1.58835c-1.60021,0.70628 -3.42379,0.86382 -4.98652,1.64954c-3.04291,0.48036 -5.49941,0.72953 -8.04598,0.64451c-0.90007,-1.92422 -3.021,-1.21783 -3.021,-1.21783l-1.86121,0.67749c-0.30316,-0.05442 -0.61277,-0.11303 -0.92784,-0.17604l-2.81713,-0.04853c0,0 -0.38289,-0.00002 -0.8483,0.14934z" fill="#ffce66"></path>
        </g>
        <path d="M224.80411,205.15833c8.53552,4.3266 21.55932,6.63201 30.20621,1.44343c0.37633,-0.2986 0.75266,-0.59718 1.12899,-0.89578l0.95603,-1.20972c0,0 0.72975,-0.91217 1.70624,-0.48259l0.7394,-1.60339c0.53333,0.17777 1.06667,0.35555 1.6,0.53332c4.28795,1.4293 9.71078,2.71521 13.05937,5.90534c1.61462,1.53822 2.67136,4.65272 0.50741,6.52472c-2.279,1.97153 -8.48696,-0.31472 -11.25937,-1.447c1.93528,3.04538 2.95806,6.82904 -1.58137,8.15221c-2.27777,0.66394 -5.9237,-0.74219 -7.7235,-2.12992c-0.54722,-0.42194 -1.59604,-1.58052 -2.17015,-2.3401c-0.08208,0.36661 -0.20676,0.72034 -0.25097,0.98601c-1.12718,3.28232 -4.49558,7.17947 -8.4333,4.61166c-0.32739,-0.21349 -1.72579,-2.60773 -2.04205,-3.13482c-0.14939,-0.24898 -0.34311,-0.73737 -0.47155,-1.17027c-0.34535,0.43868 -1.04491,0.8937 -1.47046,1.15144c-2.02007,1.22348 -6.01109,2.89684 -8.04544,0.48819c-0.59275,-0.70181 -0.77355,-1.52322 -0.71601,-2.37669c-3.12194,1.8493 -6.54263,3.37565 -10.11216,2.01581c-1.9972,-0.76085 -2.83584,-2.27305 -2.76271,-3.85322c-2.25677,0.70361 -4.59134,1.0572 -6.84234,0.45363c-2.40134,-0.64389 -3.87193,-1.25627 -2.66505,-4.353c0.11268,-0.28912 2.79239,-1.94754 3.28909,-2.19652c3.40807,-1.70833 6.98924,-3.26109 10.55619,-4.60227c0,0 0.4524,-0.16965 0.93996,-0.05963c0.70251,-0.98835 1.85753,-0.41085 1.85753,-0.41085z" fill="#292f33"></path>
        <path d="M288.44986,167.67566l-0.0796,-0.04366l-0.45169,0.60226c-0.45492,0.62045 -1.18915,1.02329 -2.01746,1.02329c-1.38071,0 -2.5,-1.11929 -2.5,-2.5c0,-0.41989 0.10352,-0.8156 0.28642,-1.16301l0.15651,-0.31302l-0.29175,-0.29175l0.87522,-0.87521l0.39956,-0.79913c0,0 0.88069,-1.76139 2.64208,-1.37594c0.05782,-0.004 0.11618,-0.00603 0.17501,-0.00603c1.38071,0 2.5,1.11929 2.5,2.5c0,0.57191 -0.19204,1.09896 -0.51515,1.52019l-0.04577,0.06103c-0.1984,1.03768 -1.13337,1.66098 -1.13337,1.66098z" fill="#363636"></path>
        <path d="M227.21741,171.66566c0.99037,0 1.84623,0.57587 2.251,1.41103c0.83518,0.40476 1.41108,1.26064 1.41108,2.25102c0,1.07264 -0.67553,1.9875 -1.62436,2.34236l2.20538,-0.01827c-0.078,5.84082 -2.73528,14.30756 -10.05336,14.12053c-1.51816,-0.0388 -3.2037,-0.1884 -4.42262,-1.09425c-4.68436,-3.48123 -1.26378,-10.18057 -0.99591,-14.6267c-0.46235,0.06007 -2.41181,0.18039 -2.84318,-1.97644c-0.4903,-2.45145 1.96115,-2.94175 1.96115,-2.94175c2.95273,-0.52995 5.20957,-0.25075 7.64949,0.53076c1.07537,-0.03242 2.23938,-0.42928 3.19106,0.04682c0.09834,0.0492 0.19524,0.10061 0.29079,0.15406c0.3008,-0.12822 0.63186,-0.19917 0.97949,-0.19917z" fill="#714c19"></path>
        <path d="M276.18734,177.55074c0,3.00068 -0.02015,7.19886 -1.3676,9.98216c-2.4368,5.03347 -10.43798,7.90499 -14.27471,2.63663c-0.75714,-1.03967 -0.6381,-2.49233 -0.9175,-3.74777c-0.71218,-3.2001 -0.63647,-6.17393 -0.62996,-9.41543c-0.22757,0.13863 -0.44398,0.29353 -0.64778,0.46663c0,0 -1.99999,1.50001 -3.5,-0.49998c-1.50001,-1.99999 0.49998,-3.5 0.49998,-3.5c1.01117,-0.70493 1.84784,-1.77777 3.03351,-2.11479c3.3212,-0.94404 7.88839,-0.07756 11.41909,-0.6753l2.94464,0.67529c0,0 1.07991,0.35996 1.53943,1.3228c0.66681,0.35297 1.15477,0.99877 1.29259,1.7661l0.57193,2.85972l-0.08844,0.01769z" fill="#714c19"></path>
        <path d="M286.55437,183.15764c-0.45966,1.13919 -0.91932,2.27839 -1.37898,3.41758c-0.93489,1.24395 -2.0569,2.41452 -3.32121,3.48711c-1.88509,2.55194 -3.47775,5.27071 -6.41332,6.79897c-7.03724,3.66359 -19.37078,4.3646 -25.15868,-2.35568c-2.38535,-2.76961 -3.88979,-8.08566 -4.59923,-11.57003c-0.61112,-3.0015 -0.52216,-5.28887 -2.4537,-7.70572c0,0 -0.05437,-0.07249 -0.1286,-0.20023c-0.43012,-0.07099 -1.12788,-0.27385 -1.60329,-0.85361l0.00004,-0.00002c-1.07761,-0.33207 -2.3558,-0.42533 -2.74744,0.67191c-0.16577,0.46442 -0.20791,0.94555 -0.18603,1.43592c0.63437,0.79118 0.48604,1.73489 0.33025,2.2497c0.0646,0.40692 0.11229,0.81253 0.1112,1.21283c-1.22886,7.47257 -3.10874,13.33875 -9.89255,17.60813c-6.36984,4.00885 -12.60552,3.88559 -19.74827,2.66161c-2.45814,-0.42123 -4.19753,-0.65499 -6.2689,-2.17911c-2.92736,-2.15397 -4.78058,-4.98818 -5.9157,-8.20397v-2.10377c-0.00497,-0.68931 0.08787,-1.48364 0.21366,-2.33582c-1.14645,-0.68045 -1.14645,-2.16713 -1.14645,-2.16713l0.04855,-1.65234c0.4012,-2.00601 0.34882,-4.65262 1.55992,-6.41067c-0.35414,0.18346 -0.72214,0.34383 -1.08511,0.50674c-0.16369,0.07347 -0.33035,0.14032 -0.49865,0.20347l-0.98618,0.98618l-0.05273,-0.05273c-0.08117,0.10651 -0.16549,0.21094 -0.25326,0.31307c-0.90744,1.05584 -2.4773,1.26841 -3.72201,1.8949l-2.80958,1.68574c-0.38339,0.2392 -0.83629,0.37741 -1.32147,0.37741c-1.38071,0 -2.5,-1.11929 -2.5,-2.5c0,-0.81467 0.38967,-1.53833 0.9928,-1.99475l0.00218,-0.00437c-0.38192,-0.0104 -0.76329,-0.02436 -1.14273,-0.03668c0.05763,-0.40763 0.11525,-0.81525 0.17288,-1.22287l-0.00001,-0.00001c0,0 0.10749,-0.7524 0.6188,-1.36822c0.00162,-0.0071 0.00328,-0.01419 0.00496,-0.02127c-0.04438,-0.18645 -0.06787,-0.38099 -0.06787,-0.58103c0,-0.99801 0.58479,-1.85943 1.43041,-2.26029l2.27567,-1.13783l0.0201,0.0402c0.04649,-0.03853 0.09356,-0.07649 0.14122,-0.11383c0.02301,-0.01802 3.20725,-1.07675 5.35853,-1.79085c-0.92159,-0.87014 -1.74806,-1.90901 -2.12536,-3.10101c-1.90642,-6.023 2.96973,-8.8803 7.72898,-10.16485c-2.82343,-3.31749 -0.14586,-11.95581 4.87671,-12.87051c1.17996,-0.21489 2.21303,0.93649 3.35996,1.28727c1.06987,0.32721 2.31019,0.17246 3.27345,0.74152c1.2663,0.74809 2.25926,1.91365 3.17252,3.06652c0.52707,0.66536 0.9808,1.42287 1.24671,2.23185c1.73064,-1.80394 4.41892,-2.91194 6.9345,-2.66694c5.43447,0.52928 6.26422,5.70746 9.11012,8.97426c1.84118,2.11348 4.12817,3.04895 6.35242,4.7065l2.12499,1.0625c0.24983,0.11843 0.4769,0.27707 0.67284,0.46755c1.34944,-0.1723 2.71032,-0.26326 4.06786,-0.2685l1.29257,0.28922c1.14355,-0.91456 2.31245,-2.22837 3.26686,-3.64066l0.75781,-1.51561l0.0965,0.04825c0.05622,-0.16977 0.12091,-0.3372 0.1954,-0.50192c0.12899,-0.28524 0.28485,-0.55034 0.4624,-0.79926c0.10588,-0.25863 0.19942,-0.51408 0.27917,-0.76452c0.71477,-2.24459 0.26641,-4.7449 2.59024,-6.40464c2.27586,-1.62548 7.4347,-1.45624 9.40788,0.60001c0.67727,0.70578 -0.69638,1.898 -0.60365,2.87177c0.02969,0.31173 0.58835,-0.23659 0.8364,-0.4277c0.54395,-0.41908 0.96085,-0.99226 1.5214,-1.38886c0.92189,-0.65227 1.9634,-1.11978 2.90513,-1.74307c2.52185,-1.66911 3.77491,-4.34059 6.01848,-6.08444c1.3359,-1.03835 2.79196,-2.8091 4.44544,-2.45019c5.38417,1.16872 3.65508,5.40137 3.20484,8.41649c-0.38734,0.96837 -0.64824,1.99748 -1.16203,2.90511c-0.19727,0.34848 -1.17616,0.46496 -0.91989,0.77266c0.26816,0.32197 0.77582,-0.31707 1.15997,-0.48439c0.71913,-0.31322 1.43983,-0.62343 2.14968,-0.95714c3.55292,-1.6703 8.5046,-3.96212 10.91285,1.38836c0.63504,1.41088 -0.14791,3.11514 -0.55174,4.60872c-0.36007,1.33172 -0.93566,2.43752 -1.67099,3.36239c0.68572,0.84946 1.49827,1.64377 1.7444,2.68437c0.28713,1.21397 -0.35914,2.46895 -0.53125,3.70448c-0.1984,1.42423 0.39666,3.21957 -0.58029,4.27473c-1.08966,1.1769 -3.03982,1.07119 -4.62059,1.34254c-0.27621,0.04741 -0.91659,-0.62986 -0.72551,-0.42484c2.1711,2.32944 1.27196,4.80228 0.66075,7.8341c-0.2998,1.48714 -0.68353,2.84031 -1.17937,4.10358zM249.43829,172.15684c0.52742,3.16642 1.2421,5.37286 2.22281,8.31505c0.79356,2.38072 1.02432,4.77428 2.56855,6.90292c3.01652,4.1581 8.62617,4.57694 13.16929,3.65853c4.06894,-0.82256 7.40891,-1.55261 10.31366,-3.74182c0.16012,-0.22724 0.32271,-0.45241 0.48959,-0.67397c1.64091,-1.61332 2.79895,-3.31708 3.61902,-5.18861l0.46634,-2.37907c0,0 0.15234,-0.7617 0.71177,-1.35102c0.17024,-0.7923 0.30567,-1.61502 0.41394,-2.47225c0.24508,-1.94038 -1.83115,-3.98215 -1.04596,-5.77342c0.64101,-1.46236 2.44505,-2.14407 3.92272,-2.74896c0.72761,-0.29785 1.72725,0.65818 2.35171,0.1805c0.4346,-0.33244 -0.58787,-0.98841 -0.58029,-1.53553c0.00953,-0.68708 0.67838,-1.30473 0.64673,-1.97222c-0.57925,-0.12909 -0.97424,-0.42192 -1.24357,-0.76124c-1.43,0.61609 -2.98474,1.04292 -4.54043,1.38036c-0.41922,0.71511 -1.13434,1.07266 -1.13434,1.07266l-1.86909,0.81092c-9.86985,1.62186 -19.81688,1.76692 -29.83208,1.7765c0.00362,0.05549 0.00505,0.11042 0.00454,0.16467l0.46651,0.65448c0,0 0.53221,2.1287 -1.39485,2.89615c0.21309,0.42344 0.27341,0.78538 0.27341,0.78538zM205.6314,170.1997c-0.53162,1.05382 -1.39138,1.93745 -2.05049,2.91732c-0.02148,0.74048 -0.41417,1.51791 -0.76998,2.29406c0.0624,0.48731 0.21068,0.98708 0.1671,1.47029c-0.08141,0.90266 -0.56235,1.75249 -0.56885,2.65879c-0.06174,8.60958 7.41327,12.43059 14.89048,12.60702c2.37532,0.05605 2.23322,-0.94778 4.49645,-1.62088c1.05883,-0.3149 2.24415,-0.10693 3.27577,-0.50198c1.51432,-0.5799 2.55718,-1.99538 3.86395,-2.95549c2.16382,-2.94513 3.85049,-4.96614 4.54552,-8.59997l0.53083,-1.1929c0.00003,-1.86532 0.03874,-4.2507 0.2656,-4.66404c0.2127,-0.38756 0.44396,-0.73731 0.69133,-1.05181c-0.23724,-0.3823 -0.37422,-0.83333 -0.37422,-1.31635c0,-0.48517 0.13821,-0.93807 0.3774,-1.32146l0.92161,-1.53605l0.40099,-1.0025c-1.04761,0.32184 -2.12679,0.51778 -3.43097,0.61553c-1.14005,2.04377 -3.27836,0.97462 -3.27836,0.97462c-2.54052,-1.37695 -4.68116,-0.89474 -7.59736,-0.89813c-5.45848,-0.00633 -10.74923,1.04631 -16.08799,2.10644c-0.05122,0.58236 -0.26879,1.01751 -0.26879,1.01751z" fill="#292f33"></path>
        <g>
          <path d="M258.56773,197.0822c2.45685,2.64828 2.60301,8.05943 0.21899,10.88524c-1.3587,1.61049 -4.93979,3.69138 -7.57362,2.74033c-0.39287,0.5065 -0.81041,0.95238 -1.24144,1.28635c-4.92727,3.81763 -11.78104,0.95413 -16.3801,-2.32528c-0.57304,0.23643 -1.1546,0.43054 -1.76705,0.47102c-4.5935,0.30361 -7.93946,-3.14573 -7.92395,-7.74422c0.012,-3.55567 2.88648,-5.91515 5.33766,-7.89785c0,0 1.13062,-0.9045 2.35934,-0.47638c0.4622,-1.04073 0.91702,-2.03182 1.2927,-2.92816c1.68673,-4.02444 2.55829,-8.49157 3.93798,-12.63386l0.35104,-0.2165c-0.0793,-0.34243 -0.07931,-0.59294 -0.07931,-0.59294c0.07868,-1.28679 -0.41526,-2.74779 0.23602,-3.86038c1.94734,-3.32662 5.60019,-4.75822 9.06582,-2.459c1.07279,0.71173 1.04658,2.35252 1.56986,3.52879l0.45365,1.78427c0,0 0.13174,0.52697 0.02677,1.15105c0.35596,0.5644 0.42856,1.1452 0.42856,1.1452c0.62311,5.15595 3.26831,10.4883 4.75015,15.81301c1.65735,0.53734 3.99693,1.31608 4.93692,2.32932zM238.29599,204.12715c-0.10894,-0.06572 -0.21526,-0.1347 -0.31851,-0.20674c0.02805,0.06582 0.05209,0.13146 0.07245,0.19678c0.08336,0.06659 0.17158,0.13388 0.2657,0.20247c-0.00214,-0.01693 -0.00416,-0.03384 -0.00606,-0.05072c-0.00531,-0.04731 -0.00984,-0.09458 -0.01359,-0.14178z" fill="#ff924c"></path>
          <path d="M230.83991,194.34389c0.03932,-0.06291 0.07932,-0.12535 0.12001,-0.18731c0,0 0.0028,-0.0042 0.00832,-0.0119c0.13834,-0.21939 0.36888,-0.4609 0.73398,-0.53395c0.16027,-0.04509 0.34295,-0.05658 0.54447,-0.00601c0.18288,0.02665 0.37459,0.09948 0.54911,0.25318c0.15064,0.10986 0.25294,0.24178 0.32143,0.3788c0.1053,0.17552 0.14557,0.35521 0.14898,0.52295c0.03027,0.24793 -0.02508,0.4577 -0.11621,0.62933c-0.33275,1.38722 0.08607,2.3101 0.09998,3.86098l0.03388,-0.48389c0,0 0.88388,0.88388 0,1.76776c-0.88388,0.88388 -1.76777,0 -1.76777,0l-0.50615,-0.84823c-0.47735,-0.0728 -0.86591,-0.41562 -1.00495,-0.86772l-0.39088,-1.17265l0.18857,-0.06286l-0.25271,-0.33243c0.13664,-0.45346 0.29669,-0.90277 0.48212,-1.34134c-0.05479,-0.22383 -0.08213,-0.45049 -0.08213,-0.65866z" fill="#863528"></path>
          <path d="M256.38578,198.84527l-1.10195,1.28857c0,0 -0.48703,0.48704 -1.09958,0.37652c-0.1678,0.0176 -0.36015,-0.00141 -0.57958,-0.07455c-1.18586,-0.39528 -0.79058,-1.58113 -0.79058,-1.58113l0.33585,-0.80472c-0.24883,-0.6481 -0.34351,-1.34872 -0.37951,-2.04951c-0.03964,-0.14622 -0.05066,-0.31467 -0.01717,-0.50759c-0.00153,-0.08116 -0.00259,-0.16216 -0.00332,-0.24291c0,0 0,-1.25 1.25,-1.25c0.76483,0 1.06169,0.46797 1.17691,0.83125c1.61821,0.87403 1.82082,1.91106 1.20892,4.01406z" fill="#863528"></path>
        </g>
      </g>
      <path d="M78.47468,56.21436z" fill="#ff9500" stroke-width="0"></path>
      <g stroke-width="0.5">
        <g>
          <path d="M214.3283,262.71046c-0.90122,-0.34587 -1.79421,0.2477 -1.79421,0.2477l-1.50293,1.00529c-4.92804,3.8526 -10.1731,6.02192 -15.75347,8.76042c-5.29188,0.58348 -10.54566,1.37496 -15.89159,0.86028c-5.14828,-0.49567 -9.20444,-3.59235 -13.41115,-6.18098c-4.41087,-2.71427 -8.2706,-5.4535 -11.50437,-9.58997c-2.91301,-3.68023 -3.01529,-6.77272 -3.32981,-11.1068c-0.1491,-2.05455 -1.91004,-3.83774 -1.86921,-5.89728c0.02937,-1.4818 2.23822,-5.33866 2.93675,-6.63157c2.14334,-3.96718 5.7122,-6.95656 9.08154,-9.96384c4.16468,-3.71716 7.62704,-7.29001 13.14517,-8.78752c2.23682,-1.12618 4.01501,-0.82084 6.48526,-1.12649c12.90257,-1.59643 21.88087,6.39948 31.26101,13.79018c0,0 0.68072,0.52965 1.48742,0.43869c0.26825,0.12692 0.48084,0.17018 0.48084,0.17018c6.41005,1.1654 13.53739,-2.50822 19.93618,-3.4607c6.14627,-0.91489 12.60032,5.46434 16.09828,9.74188c1.27719,4.95772 3.22966,8.79247 0.51179,13.70963c-1.87046,3.38402 -6.48029,3.43935 -7.48078,8.19104c-0.24135,1.14626 -0.1374,4.81525 0.32353,5.99251c1.08822,2.77937 7.40053,7.9953 1.03974,8.56895c-4.62243,-0.96679 -7.9316,-4.70905 -11.88379,-7.06807c-5.92462,-3.53635 -12.06966,-3.19896 -18.36621,-1.6635z" fill="#781616"></path>
          <g>
            <g>
              <path d="M251.1594,240.38753c-0.08254,0.03935 -0.16308,0.07301 -0.2416,0.10142c-4.93997,3.33801 -11.47547,3.76933 -17.02412,1.24984c-3.22236,-1.46319 -6.0489,-4.19164 -9.51574,-5.0103c-9.08334,-0.65013 -15.9233,5.77627 -24.84477,6.27402c-7.9546,0.44381 -12.54286,-4.04309 -19.42761,-6.71921c-10.26364,-3.12976 -12.96163,8.82915 -19.91175,12.79429c-4.61565,2.6333 -10.09815,2.67997 -13.28024,-1.84247c0,0 -0.84091,-1.26479 0.07212,-2.30729c0.09589,-0.36273 0.2513,-0.60918 0.2513,-0.60918c1.54983,-2.29652 1.41271,-5.19885 2.86003,-7.72721c5.28462,-9.23186 13.18666,-18.31838 23.32323,-22.25068c4.74984,-1.20467 9.05729,-2.91979 14.05421,-1.80485c10.68466,2.38403 17.22578,13.02137 27.41437,15.52669l0.81964,0.08801c0.30658,-0.07454 0.5394,-0.07017 0.5394,-0.07017c9.9099,0.21132 20.7763,-7.61722 29.62344,0.08856c2.67266,2.32786 4.33682,6.04295 5.9721,9.10673l0.24112,0.5011c0,0 0.26154,0.54865 0.18758,1.18037l0.28413,0.26362c-0.17669,0.15599 -0.35627,0.30758 -0.53855,0.45478c-0.17195,0.26508 -0.44313,0.514 -0.8583,0.71191zM243.31462,231.13657c-7.34917,-6.26883 -18.74367,0.99948 -27.14037,0.86022c0,0 -0.00235,-0.00004 -0.00689,-0.00021c-0.42547,0.10211 -0.78084,0.05858 -0.78084,0.05858l-1.44427,-0.19161c-10.26956,-2.58545 -16.76824,-13.0778 -27.33073,-15.50683c-4.22811,-0.97233 -7.98777,0.70634 -12.00469,1.71703c-9.16559,3.50801 -16.35579,12.17961 -21.10719,20.45812c-1.3988,2.43717 -1.40103,4.94089 -2.6614,7.36238c2.31412,2.18427 6.7956,0.77981 8.95975,-1.3645c2.03526,-2.01661 3.36799,-4.76854 5.33634,-6.85859c4.22607,-4.48736 10.25396,-6.76429 16.22683,-5.09815c6.34012,2.46592 10.69885,6.93623 17.93351,6.51977c9.248,-0.53236 16.06005,-6.97189 25.70415,-6.23176c7.8054,2.00643 14.96303,9.80225 22.77708,5.07303c-1.20019,-2.37822 -2.51511,-5.13739 -4.46129,-6.79747z" fill="#783232"></path>
              <path d="M247.84114,237.93137c-7.81406,4.72923 -15.09992,-3.04687 -22.90533,-5.0533c-9.6441,-0.74013 -16.42172,5.74104 -25.66973,6.27339c-7.23465,0.41645 -11.5046,-4.08726 -17.84472,-6.55319c-5.97289,-1.66614 -11.99582,0.58987 -16.2219,5.07724c-1.96835,2.09005 -3.30137,4.82998 -5.33664,6.8466c-2.16415,2.14432 -6.77526,3.56444 -9.08937,1.38017c1.26037,-2.42148 1.26212,-4.93526 2.66093,-7.37243c4.75141,-8.27852 11.95833,-16.99179 21.12394,-20.49979c4.01692,-1.01069 7.79494,-2.70358 12.02306,-1.73124c10.56248,2.42903 17.14887,12.94844 27.41842,15.5339l1.44564,0.19433c0,0 0.35578,0.04441 0.78124,-0.0577c0.00454,0.00016 0.00688,0.00022 0.00688,0.00022c8.3967,0.13926 19.7959,-7.11451 27.14508,-0.84567c1.94617,1.66009 3.26228,4.42927 4.46248,6.80747z" fill="#a14343"></path>
            </g>
            <path d="M241.14716,231.56759c0.24049,1.94369 -1.7032,2.18417 -1.7032,2.18417l0.23152,-0.10458c-2.81733,1.1892 -6.45099,2.7081 -9.5512,1.64725c-2.14153,-0.73279 -3.08269,-2.22317 -5.49575,-2.26118c-4.56967,-0.07201 -8.33425,3.12664 -13.13432,2.80141c-3.11921,-0.21135 -5.42153,-2.29226 -8.42314,-2.54506c0,0 -0.28784,-0.02994 -0.63072,-0.17748c-0.08429,0.01879 -0.13518,0.02508 -0.13518,0.02508l-2.16029,0.26427c-3.37304,0.00686 -5.50532,-0.21386 -7.84098,-2.87954c-2.48423,-2.83526 -3.4362,-9.6343 -8.6823,-7.72637c-3.30957,2.9774 -5.90304,4.3185 -10.17155,5.55093c-2.80901,0.81103 -5.788,0.50701 -8.01318,2.69564c-4.15674,4.08845 -3.52212,10.77396 -8.75555,13.707c-1.95638,1.09644 -2.97051,0.91206 -5.16807,1.06939c0,0 -1.95446,0.12592 -2.08038,-1.82853c-0.12592,-1.95446 1.82853,-2.08038 1.82853,-2.08038c5.71064,-0.31689 5.05377,-3.04351 6.91772,-7.44386c0.82005,-1.93593 2.96724,-4.7516 4.51589,-6.22098c3.75014,-3.55818 9.30407,-3.23263 13.95414,-4.90041c1.9363,-0.69447 3.50297,-2.67022 5.04045,-3.95618c1.00919,-0.32165 1.96926,-0.9211 3.02756,-0.96493c8.83686,-0.36605 7.33544,11.28488 15.16246,11.07023l1.94458,-0.24361c0,0 0.55973,-0.06925 1.11562,0.16695c0.3084,-0.04689 0.53667,-0.02314 0.53667,-0.02314c2.96794,0.35008 5.32016,2.37042 8.28053,2.53285c4.65071,0.25517 8.36109,-2.90494 12.96385,-2.80915c2.84763,0.05926 4.28521,1.45915 6.70104,2.48129c1.85404,0.78444 5.08037,-0.85546 6.72313,-1.55709l0.81793,-0.17713c0,0 1.94369,-0.24049 2.18417,1.7032z" fill="#b17878"></path>
          </g>
          <g>
            <path d="M206.01317,246.65466c0.06999,0.35879 0.04086,0.63883 0.04086,0.63883c-0.43871,4.16004 -0.94031,12.23067 1.20688,15.96576c0.41168,0.71612 3.65876,-0.71977 4.03621,-0.83896c4.88613,-1.54303 10.32998,-2.87442 15.32547,-3.85563c4.20528,-1.06395 8.18043,-2.29547 12.2627,-3.71468c1.15346,-0.40101 2.45507,-0.46954 3.48772,-1.12143c0.4584,-0.28938 1.53178,-0.96587 1.06019,-1.23322c-0.9041,-0.51257 -2.06416,-0.33797 -3.03814,-0.70061c-6.25693,-2.32968 -12.8336,-3.75688 -19.48501,-4.57083c-4.74779,-0.58688 -10.00323,-0.92754 -14.89689,-0.56922zM202.5057,245.93505l0.64797,-2.93258c5.86558,-0.71244 12.37228,-0.37825 18.23261,0.33344c6.95339,0.85247 13.82852,2.35048 20.37285,4.78694c1.25942,0.46888 4.56934,1.46047 5.09307,2.46102c1.12155,2.14266 -0.60352,5.06874 -2.17402,6.31156c-0.47038,0.37225 -3.85856,1.4296 -4.50435,1.65354c-4.2261,1.46545 -8.35022,2.74168 -12.7019,3.8395c-4.86709,0.90968 -10.23067,2.25892 -14.98936,3.76514c-2.54842,0.80663 -5.74208,2.09931 -8.09398,-0.2312c-0.69217,-0.68589 -0.65155,-1.83676 -0.97764,-2.75503c-1.71765,-4.83697 -1.77576,-11.19354 -1.25285,-16.27936c0,0 0.051,-0.49006 0.34763,-0.95299z" fill="#868686"></path>
            <path d="M220.90898,247.15859c6.6514,0.81393 13.29379,2.29731 19.55071,4.627c0.97397,0.36265 2.1344,0.19128 3.0385,0.70384c0.47159,0.26736 -0.60156,0.94729 -1.05997,1.23667c-1.03264,0.65189 -2.33421,0.72405 -3.48769,1.12506c-4.08225,1.4192 -8.06978,2.68777 -12.27506,3.75173c-4.9955,0.98121 -10.54293,2.31549 -15.42907,3.85851c-0.37745,0.1192 -3.62896,1.54892 -4.04065,0.8328c-2.1472,-3.73508 -1.64927,-11.86908 -1.21055,-16.02911c0,0 0.03011,-0.28197 -0.03988,-0.64075c4.89365,-0.35833 10.20585,-0.05265 14.95363,0.53424z" fill="#a2a2a2"></path>
          </g>
          <path d="M208.36679,249.5348c1.03606,-3.16865 -0.1855,-9.12525 -0.95055,-12.20212c-0.25367,-1.02022 0.13718,-2.58806 -0.80785,-3.04863c-0.76474,-0.37271 -2.47602,-0.42813 -4.01663,-0.43458c1.0912,5.16314 1.32916,9.90142 0.09141,15.0778l-0.06315,0.315c1.57933,0.37842 5.41624,1.30345 5.74677,0.29256zM198.26019,231.72376c0.14537,-1.9531 2.09848,-1.80774 2.09848,-1.80774c1.83949,0.13725 6.60862,-0.07972 8.2256,0.98586c4.07019,2.68225 3.57509,10.92217 3.68292,15.14397c0.02482,0.97176 0.08859,4.45611 -0.42911,5.30361c-2.3891,3.9111 -6.90772,2.20399 -10.46411,1.61932l-1.5818,-0.52782c0,0 -1.44881,-0.51338 -1.32461,-1.91403c-0.03024,-0.34981 0.02249,-0.6117 0.02249,-0.6117l0.38436,-1.90259c1.12356,-4.6576 0.86378,-8.8871 -0.15638,-13.54716c0,0 -0.12811,-0.59012 0.08565,-1.18615c-0.33955,-0.31056 -0.59999,-0.79656 -0.5435,-1.55557z" fill="#343434"></path>
          <path d="M202.59817,249.30375l0.06276,-0.31513c1.23775,-5.17638 1.00289,-10.03846 -0.0883,-15.2016c1.5406,0.00645 3.28302,0.06013 4.04775,0.43284c0.94502,0.46058 0.57008,2.03358 0.82376,3.05379c0.76505,3.07687 1.98487,9.15229 0.94881,12.32094c-0.33053,1.0109 -4.21546,0.08759 -5.79479,-0.29083z" fill="#434343"></path>
          <path d="M227.92788,252.78806c-1.91999,-0.3865 -1.53348,-2.3065 -1.53348,-2.3065l0.15638,-0.73211c0.48305,-4.59967 0.63283,-8.92015 -1.9109,-12.92336c0,0 -1.03989,-1.65963 0.61975,-2.69952c0.16416,-0.10286 0.32225,-0.1793 0.47387,-0.23356c0.42358,-1.6864 2.20465,-1.39357 2.20465,-1.39357c1.65192,0.27179 3.30018,0.56799 4.94142,0.89815l0.45791,0.09217c0,0 1.32901,0.26752 1.55304,1.46313c2.91666,3.33826 4.53006,8.16904 3.99789,12.58743c-0.34856,2.89399 -1.78079,6.11434 -5.01652,6.6958c-1.06547,0.19148 -2.14651,-0.28295 -3.21977,-0.42442l-1.12948,-0.13668c0,0 -0.95933,-0.11751 -1.44761,-0.86136c-0.04803,-0.00703 -0.09708,-0.01553 -0.14718,-0.02561zM231.2876,249.94656c6.73673,1.47077 3.06013,-9.81169 0.28805,-12.81467c-0.86101,-0.16933 -1.72393,-0.3292 -2.58823,-0.48113c1.93379,4.16868 1.95573,8.50407 1.49056,13.19559z" fill="#343434"></path>
          <path d="M230.47076,249.91124c0.46515,-4.6915 0.43087,-9.15406 -1.50292,-13.32274c0.8643,0.15193 1.75086,0.30891 2.61188,0.47824c2.77208,3.00298 6.44579,14.41588 -0.29093,12.9451z" fill="#434343"></path>
          <g>
            <path d="M190.10727,264.89003c-0.69724,0.57091 -1.32355,-0.11042 -1.32355,-0.11042c-3.43818,-3.88229 1.09227,-8.95124 5.73444,-7.21377c2.06919,0.77445 3.03541,3.8503 1.69605,5.65359c-1.51112,2.03457 -3.96817,2.27491 -6.10694,1.6706zM189.47416,261.79506c0.11691,0.09691 0.1823,0.18655 0.1823,0.18655l0.70728,1.03359c1.67325,0.63761 6.16243,-0.73468 4.05297,-3.12057c-1.52258,-1.72211 -4.91694,-0.16314 -4.94254,1.90044z" fill="#868686"></path>
            <path d="M194.47151,259.85917c2.10947,2.3859 -2.48273,3.83768 -4.15598,3.20007l-0.72225,-1.0611c0,0 -0.06651,-0.0948 -0.18343,-0.19172c0.02561,-2.06357 3.53907,-3.66936 5.06166,-1.94725z" fill="#a2a2a2"></path>
          </g>
          <g>
            <path d="M169.64994,257.13574c-0.03283,0.00203 -0.05189,0.00168 -0.05189,0.00168c-5.67605,-0.57519 -1.13155,-7.92002 3.24115,-7.23713c3.09412,0.48321 5.00754,3.41111 2.82715,6.20723c-1.38445,1.77541 -3.27109,1.69114 -5.26006,1.57987zM169.16102,255.19615c0.56317,-0.46051 1.18608,0.02524 1.18608,0.02524l0.71335,0.61998c1.14287,-0.0566 2.24787,0.10517 3.06147,-0.93818c1.36343,-1.74845 -0.50194,-3.71863 -2.46229,-3.22281c-1.06832,0.27021 -3.57621,3.25662 -2.4986,3.51576z" fill="#868686"></path>
            <path d="M171.65155,251.61562c1.96035,-0.49582 3.89459,1.56295 2.53116,3.3114c-0.81359,1.04334 -2.00862,0.91611 -3.1515,0.97271l-0.73695,-0.64002c0,0 -0.6305,-0.49939 -1.19367,-0.03888c-1.07761,-0.25914 1.48265,-3.33502 2.55097,-3.60523z" fill="#a2a2a2"></path>
          </g>
          <g>
            <path d="M176.09001,265.94172c-4.00726,-2.79197 3.04894,-9.14347 6.9711,-4.43261c3.39833,4.08168 -3.30708,8.3923 -6.71418,4.86851zM176.99765,263.93128c0.27001,0.14881 0.41638,0.39979 0.41638,0.39979l0.50886,0.88374c1.12596,1.3523 4.80613,0.2301 4.19872,-1.71408c-1.30469,-4.17611 -4.68136,-0.6817 -5.12396,0.43054z" fill="#868686"></path>
            <path d="M182.1864,263.49277c0.60741,1.94418 -3.18976,3.11352 -4.31573,1.76124l-0.52031,-0.90849c0,0 -0.14791,-0.262 -0.41792,-0.41081c0.4426,-1.11223 3.94927,-4.61804 5.25396,-0.44193z" fill="#a2a2a2"></path>
          </g>
          <g>
            <path d="M182.64343,256.6847c-0.3459,0.09822 -0.68211,-0.03762 -0.68211,-0.03762c-5.84413,-2.60627 0.25546,-8.54011 4.66568,-6.44687c4.70062,2.23107 0.93376,7.86511 -3.13261,7.12707zM182.27406,254.66383c0.53183,-0.3238 1.07796,0.10207 1.07796,0.10207l0.95966,0.78155c1.88942,0.47072 3.60455,-2.75585 1.49804,-3.5674c-1.99231,-0.76757 -6.11653,1.47368 -3.53565,2.6838z" fill="#868686"></path>
            <path d="M185.85549,251.93349c2.10651,0.81155 0.34595,4.14995 -1.54347,3.67924l-0.99945,-0.79481c0,0 -0.56346,-0.44567 -1.0953,-0.12188c-2.58088,-1.21012 1.64591,-3.53012 3.63822,-2.76255z" fill="#a2a2a2"></path>
          </g>
          <path d="M246.97584,257.71252c-0.96447,5.18151 5.32979,7.75479 4.57237,12.79423c-0.51185,3.4055 -4.5693,4.45432 -7.17409,4.81637c-6.7909,-1.33356 -10.83357,-7.16776 -17.27337,-9.18138c-4.52405,-1.41461 -8.34238,-0.63967 -12.70867,0.5272c-0.20862,0.21876 -0.74278,0.69245 -1.45549,0.69112c-5.17199,3.93132 -10.63738,6.31412 -16.5415,9.06182c-5.74522,0.76926 -11.57881,1.64878 -17.39,1.00796c-10.03072,-1.10612 -21.48704,-9.45402 -27.55666,-17.21796c-3.32714,-4.29952 -3.87024,-8.14672 -4.15329,-13.28583c-0.12045,-2.18697 -1.91096,-4.10889 -1.87119,-6.29883c0.03577,-1.96949 2.49189,-6.6252 3.40476,-8.30168c2.39628,-4.40075 6.18253,-7.6763 9.91439,-11.00667c4.50967,-4.02449 8.38523,-7.89195 14.37466,-9.51736c2.59473,-1.18312 4.58568,-0.99227 7.35839,-1.33533c14.04123,-1.73731 23.59777,6.47266 33.86423,14.42207c0.31821,-0.01949 0.54952,0.02708 0.54952,0.02708c5.66195,1.30439 12.877,-2.91689 18.66176,-3.52658c8.03134,-0.84646 15.59477,5.94376 20.07156,11.85383c0.01599,0.05648 0.03205,0.11293 0.04815,0.16931c-0.29637,0.51126 -0.22363,1.09918 -0.22363,1.09918c0.18527,1.38371 0.58984,2.75343 1.18054,4.01837l0.83067,1.2557c0.50752,2.29239 0.72283,4.55675 0.21802,6.85977c-0.14058,0.12266 -0.2187,0.22283 -0.2187,0.22283c-1.17758,1.51013 -3.31864,4.2558 -4.49622,5.76592c0,0 -0.31739,0.40701 -0.36631,0.94176c-1.64497,1.04612 -3.24384,2.1164 -3.61996,4.13711zM232.63821,264.34092c3.95218,2.35903 7.26141,6.10119 11.88384,7.06798c6.36079,-0.57366 0.04392,-5.78019 -1.0443,-8.55956c-0.46093,-1.17726 -0.56751,-4.83792 -0.32616,-5.98418c1.0005,-4.7517 5.60851,-4.79364 7.47897,-8.17765c2.71787,-4.91716 0.76751,-8.73331 -0.50969,-13.69104c-3.49796,-4.27753 -9.94188,-10.63523 -16.08816,-9.72035c-6.39879,0.95247 -13.5057,4.64457 -19.91575,3.47918c0,0 -0.21125,-0.04252 -0.4795,-0.16943c-0.80669,0.09095 -1.4832,-0.43658 -1.4832,-0.43658c-9.38015,-7.39068 -18.29449,-15.39217 -31.19707,-13.79574c-2.47025,0.30565 -4.2413,-0.00534 -6.47813,1.12084c-5.51814,1.49751 -8.9672,5.05341 -13.13188,8.77058c-3.36934,3.00729 -6.93225,5.9815 -9.07559,9.94868c-0.69851,1.29291 -2.90581,5.14134 -2.93518,6.62314c-0.04083,2.05955 1.72055,3.8357 1.86964,5.89025c0.31451,4.33409 0.41532,7.41214 3.32833,11.09237c3.23376,4.13647 7.08717,6.85855 11.49804,9.57282c4.20672,2.58864 8.24944,5.66807 13.39772,6.16373c5.34594,0.51469 10.57564,-0.29074 15.86754,-0.87421c5.58037,-2.7385 10.77859,-4.90517 15.70664,-8.75777l1.49721,-1.00237c0,0 0.8881,-0.59047 1.78932,-0.2446c6.29655,-1.53546 12.42275,-1.85242 18.34737,1.68393z" fill="#4e0e0e"></path>
        </g>
        <g>
          <path d="M350.48606,255.82645l-0.13557,-0.59996c-1.91031,0.13656 -3.8138,0.33002 -5.70015,0.63595c1.99103,1.13098 4.23829,2.10899 5.97635,0.12699c-0.0913,-0.08877 -0.14064,-0.16298 -0.14064,-0.16298zM361.75807,253.96991l-0.08631,0.2454c0.07223,0.03467 0.14652,0.08059 0.22244,0.1398c0.67435,0.52585 0.30061,1.18137 0.19504,1.3391l-0.02652,0.80336c0,0 -0.08653,0.42984 -0.43142,0.65637c-0.16522,0.50264 -0.33699,0.94612 -0.45804,1.04456c-0.7753,0.63041 -5.55155,0.48175 -6.50289,0.10656c-0.81505,-0.32143 -1.53991,-1.69557 -2.16696,-2.56193l-0.11489,1.18354c-3.23856,4.06416 -7.29782,1.18717 -10.683,-0.48995c0,0 -0.35764,-0.17939 -0.50105,-0.53743c-0.2996,-0.09474 -0.49554,-0.21831 -0.49554,-0.21831l-1.77588,-1.1199c-1.60005,-1.01852 -2.92576,-2.21355 -4.44215,-3.28354c-0.75789,0.03566 -1.37459,-0.44524 -1.37459,-0.44524l-0.00322,-0.05074c-5.28547,-2.67821 -8.8104,-10.47515 -3.61021,-15.44635c0.47223,-0.45144 1.19464,-0.83386 1.95933,-1.16135c0.38885,-0.31532 0.8052,-0.4283 0.8052,-0.4283c2.8378,-0.56555 4.19405,-4.65143 5.92216,-6.87264l1.24983,-1.23103c0,0 0.70047,-0.67463 1.58959,-0.57951c0.43557,-0.84872 0.58475,-1.83749 1.2586,-2.52504c2.12017,-2.16328 5.95507,-0.38487 7.25618,1.70481l0.1985,0.95952c0,0 0.06842,0.55303 -0.31514,0.87634c1.0018,0.0686 2.00664,0.14301 3.00981,0.22858c0.0134,-0.06054 0.0262,-0.09668 0.0262,-0.09668l0.00004,0.00001c0.38593,-1.08442 0.84709,-2.79899 1.90074,-3.48063c2.23538,-1.44612 7.47971,0.83251 7.66093,3.17609l0.10159,0.74097c0,0 0.08213,0.66371 -0.43785,0.96202c0.35347,0.07791 0.70461,0.15971 1.05321,0.24572l0.42325,0.00327c0,0 1.35569,0.1009 1.72404,1.26406c1.01771,0.33652 1.24342,1.51224 1.24342,1.51224c1.18535,6.46695 -0.14271,14.05607 -2.31841,20.20415l-1.07237,1.53866c0,0 -0.15823,0.20292 -0.43354,0.40429c-0.08297,0.59781 -0.42943,1.04208 -0.42943,1.04208l-0.09408,0.05515c-0.00887,0.03063 -0.01774,0.06129 -0.02661,0.09192zM355.37548,256.47789c2.17536,0.53895 3.93182,0.62464 4.67386,-0.98668c-0.06302,-0.16073 -0.12253,-0.32294 -0.179,-0.48631c-0.07417,-0.07274 -0.128,-0.15207 -0.16642,-0.23329c-1.79374,0.09291 -3.5963,0.15596 -5.3991,0.23554c0.45664,0.67613 0.98516,1.44956 1.07067,1.47074zM362.10421,255.56438c-0.00375,0.01294 -0.00777,0.02693 -0.01205,0.04188l-0.0003,0.00917zM360.18279,226.88684l-0.11607,-1.01826c0.15064,-0.48732 -3.09155,-1.67847 -4.03015,-1.81305c-0.78773,-0.11293 -1.3499,1.5986 -1.61008,2.43731c2.0063,0.20629 3.99312,0.47192 5.92209,0.84035c-0.13784,-0.22049 -0.16579,-0.44635 -0.16579,-0.44635zM347.79863,225.44214l0.05339,-0.2133c-1.75656,-3.37372 -3.50715,-1.36548 -4.80205,0.43348c1.63103,0.11549 3.29974,0.21468 4.98338,0.32328c-0.19786,-0.24554 -0.23472,-0.54347 -0.23472,-0.54347zM335.17473,236.96466c-5.26357,1.9051 -5.36627,7.54706 -0.63782,10.14222c0.6895,-0.03743 1.26503,0.3328 1.26503,0.3328c1.85893,1.20518 3.35161,2.64285 5.22054,3.80814l1.58379,0.99878c5.47299,-1.0464 11.08977,-1.084 16.64086,-1.37252c0.11078,-0.52808 0.40575,-0.90632 0.40575,-0.90632l0.46919,-0.43823c1.88574,-5.31428 3.26593,-12.18525 2.2293,-17.81858l-0.5561,-0.05594c-6.33102,-1.59358 -13.70317,-1.71088 -20.1904,-2.17178c0,0 -0.17559,-0.01306 -0.41756,-0.08402c-1.76936,2.29743 -2.86578,4.70961 -4.7983,6.4024c-0.30864,0.8326 -1.21425,1.16307 -1.21425,1.16307z" fill="#343434"></path>
          <g>
            <path d="M331.45014,246.67752c0.71943,-0.58911 -0.01638,-1.86576 0.10578,-2.78756c0.12393,-0.93512 0.85944,-6.21979 -0.07775,-6.79191c-0.2526,-0.15421 -2.15935,0.23548 -3.52232,0.52162c0.0248,0.14764 0.0485,0.29484 0.07062,0.44148c-0.11672,-0.12479 -0.20612,-0.26025 -0.27422,-0.39869c-0.54708,0.1151 -0.97839,0.2061 -1.13086,0.22496c0,0 -0.71925,0.08899 -1.33682,-0.27882c-6.41943,0.18076 -12.81533,0.52925 -19.25958,0.60989c-15.48897,0.19279 -30.95169,0.56578 -46.43187,0.80983c-0.31499,0.04959 -0.54974,0.02517 -0.54974,0.02517c-0.03618,-0.0038 -0.0767,-0.00873 -0.12122,-0.01467c-0.10426,0.00162 -0.20852,0.00323 -0.31279,0.00483c-0.0016,-0.01764 -0.00346,-0.03512 -0.00559,-0.05244c-1.24639,-0.19943 -3.92359,-0.72505 -4.56289,-0.35723c-0.64624,0.3718 -0.71123,3.9226 -0.72303,4.55421c-0.07858,4.20666 -0.14293,6.13974 4.3882,5.53058l0.42154,0.01243c0.03407,-0.05723 0.07354,-0.12987 0.11181,-0.21473c15.74543,-1.24079 31.59709,0.06696 47.29251,-1.88896c6.9614,-0.08389 13.99549,-0.46309 20.9658,-0.34453l1.17062,0.21041c-0.01214,0.14402 -0.02376,0.28816 -0.03475,0.43242c1.48952,0.00448 3.49255,0.01704 3.81656,-0.24828zM333.67077,233.85218c3.06769,2.16069 2.33016,9.51441 1.55226,12.58968c-0.26675,1.05459 -0.27919,2.34293 -1.07949,3.07971c-1.50275,1.38349 -5.58969,1.07532 -7.5567,1.31977l-2.05244,0.25393c0,0 -1.36928,0.16942 -1.95148,-0.92542c-5.59144,0.02232 -11.2249,0.29393 -16.78573,0.36568c-14.84785,1.82403 -29.83441,0.75316 -44.73411,1.7017c-0.599,0.4914 -1.40336,0.45757 -1.40336,0.45757l-1.47269,-0.08863c-2.67506,0.30901 -6.02594,0.54924 -7.84723,-2.09245c-0.55113,-0.79939 -0.38918,-1.90309 -0.54416,-2.8616c-0.53702,-3.32136 -1.18571,-10.02507 2.12347,-12.31068c1.51432,-1.04591 5.27647,-0.44251 7.23986,-0.2158c15.6097,-0.2268 31.19973,-0.62944 46.81727,-0.82382c7.15974,-0.08858 14.25883,-0.5087 21.39858,-0.663c0.00218,0.05449 0.0048,0.10905 0.00784,0.16365c2.04466,-0.35674 4.95229,-0.89111 6.28809,0.04974z" fill="#343434"></path>
            <path d="M327.69838,246.93379c0.01099,-0.14427 -0.10707,-0.30359 -0.09494,-0.44761l-1.04082,-0.19617c-6.97031,-0.11856 -14.00701,0.27315 -20.96841,0.35704c-15.69542,1.95592 -31.67372,0.63962 -47.41916,1.8804c-0.03828,0.08486 0.0509,0.13518 0.01684,0.19241l-0.55015,0.01009c-4.53114,0.60916 -4.46774,-1.33417 -4.38916,-5.54083c0.0118,-0.63159 0.07712,-4.19003 0.72336,-4.56183c0.63932,-0.36782 3.44638,0.17139 4.69277,0.37082c0.00211,0.01732 0.004,0.03471 0.00559,0.05234c0.10427,-0.00161 0.07868,-0.0169 0.18294,-0.01851c0.04451,0.00594 0.08504,0.01087 0.12122,0.01467c0,0 0.23476,0.02426 0.54975,-0.02533c15.48018,-0.24405 31.06975,-0.6306 46.55872,-0.82338c6.44427,-0.08064 12.84273,-0.41849 19.26216,-0.59924c0.61757,0.36781 1.33696,0.27973 1.33696,0.27973c0.15247,-0.01886 0.58377,-0.11 1.13084,-0.22509c0.06809,0.13843 0.02811,0.29144 0.14483,0.41623c-0.02212,-0.14666 -0.04572,-0.29303 -0.07051,-0.44068c1.36297,-0.28613 3.399,-0.69423 3.65159,-0.54001c0.93718,0.57212 0.20231,5.86815 0.07837,6.80326c-0.12217,0.92179 0.61331,2.20312 -0.1061,2.79223c-0.324,0.26532 -2.32717,0.25395 -3.81669,0.24947z" fill="#434343"></path>
          </g>
          <path d="M360.40999,227.35532c-1.92897,-0.36843 -4.04238,-0.65236 -6.04867,-0.85865c0.26019,-0.83871 0.85179,-2.60873 1.63952,-2.4958c0.9386,0.13457 4.28085,1.36924 4.13021,1.85656l0.11555,1.04315c0,0 0.02555,0.23424 0.16338,0.45473z" fill="#888888"></path>
          <path d="M348.09672,226.00132c-1.68364,-0.1086 -3.48079,-0.21829 -5.11182,-0.33379c1.2949,-1.79896 3.1755,-3.81919 4.93206,-0.44546l-0.05304,0.22016c0,0 0.03494,0.31356 0.2328,0.55909z" fill="#888888"></path>
          <path d="M335.11112,236.95011c0,0 0.90743,-0.3369 1.21607,-1.1695c1.93251,-1.69279 3.05129,-4.13601 4.82065,-6.43343c0.24197,0.07096 0.41866,0.08319 0.41866,0.08319c6.48723,0.4609 13.95144,0.59395 20.28246,2.18753l0.55695,0.0572c1.03663,5.63333 -0.34884,12.58292 -2.23458,17.8972l-0.47117,0.44041c0,0 -0.29796,0.38119 -0.40875,0.90928c-5.55108,0.28852 -11.24427,0.33505 -16.71725,1.38145l-1.59119,-1.00363c-1.86892,-1.16529 -3.3798,-2.62433 -5.23873,-3.82951c0,0 -0.5771,-0.37339 -1.2666,-0.33596c-4.72845,-2.59516 -4.63017,-8.27914 0.6334,-10.18424z" fill="#434343"></path>
          <path d="M341.49135,247.63495c-4.51298,-2.81517 5.50157,-9.59015 7.23113,-2.93761c1.1413,4.38982 -4.96936,6.38721 -7.23113,2.93761zM343.82116,247.2957c1.36511,0.73831 3.51224,-0.42275 3.00594,-2.1051c-0.71559,-2.37776 -3.54254,-1.12555 -4.25117,-0.00428c0.29325,0.25495 0.3429,0.65614 0.3429,0.65614l0.01438,0.3543c0.00122,0.00353 0.00244,0.00707 0.00366,0.01059c0.05477,0.01654 0.11428,0.03106 0.17868,0.04345c0,0 0.82713,0.23945 0.70561,1.0449z" fill="#343434"></path>
          <path d="M350.55131,255.82814c0,0 0.04914,0.07784 0.14044,0.16661c-1.73806,1.982 -4.11563,1.00089 -6.10666,-0.13008c1.88635,-0.30593 3.91904,-0.51474 5.82935,-0.6513l0.13687,0.61478z" fill="#888888"></path>
          <path d="M355.32062,256.51325c-0.08551,-0.02118 -0.62403,-0.83729 -1.08066,-1.51343c1.8028,-0.07958 3.734,-0.14928 5.52774,-0.24219c0.03841,0.08122 0.0933,0.16677 0.16747,0.2395c0.05648,0.16337 0.11634,0.33698 0.17936,0.49771c-0.74204,1.61132 -2.61856,1.55734 -4.79392,1.01839z" fill="#888888"></path>
          <path d="M359.88889,226.32395c0.63914,0.74192 -0.10279,1.38105 -0.10279,1.38105l-0.50991,0.24023c2.24251,3.69059 2.68259,11.95749 -3.42408,12.01234c-6.5492,-0.1921 -13.20302,-1.55075 -19.8512,-1.51338c-1.61938,0.46727 -3.36721,0.75695 -5.11163,1.23036c0,0 -0.77054,0.20912 -1.10891,-0.44605c-2.09895,0.27467 -4.15986,0.6164 -6.24822,0.90735c-0.22434,0.8817 -1.13759,0.69785 -1.13759,0.69785l-0.46615,-0.1993c-7.398,1.89053 -16.38366,0.7333 -24.02143,0.59055c-7.59649,-0.16202 -15.18462,1.0257 -22.76967,0.98659c-0.35043,0.37928 -0.91443,0.26574 -0.91443,0.26574l-1.27162,-0.26154c-0.42034,0.00693 -0.84068,0.01385 -1.26101,0.02078c-7.035,-0.2976 -14.13873,-0.97621 -21.12827,-1.10758c0,0 -0.003,-0.00006 -0.0087,-0.00033c-0.09616,0.02707 -0.19604,0.03934 -0.2959,0.0364l-1.03297,-0.01941l0.00046,-0.02443l-0.05088,0.02217c-0.53112,-0.06451 -1.06138,-0.12952 -1.59104,-0.1943c-1.09792,0.16002 -2.25063,-0.20275 -3.58877,-0.36665c-2.15462,-0.2639 -4.31197,-0.3783 -6.47815,-0.51844c-0.01525,0.03915 -0.03176,0.07882 -0.04956,0.11898l0.00001,-0.00001c-0.79379,1.79043 -2.58423,0.99663 -2.58423,0.99663l-0.64778,-0.2935c-2.83562,-1.03177 -5.70675,-0.80495 -8.68054,-0.98378c-7.86453,-0.47291 -15.54558,-1.74091 -23.27846,0.36339c0,0 -1.89013,0.51296 -2.40309,-1.37719c-0.51296,-1.89015 1.37719,-2.40309 1.37719,-2.40309c8.19048,-2.21712 16.22111,-0.99236 24.5441,-0.49277c3.37255,0.20244 6.5143,0.07912 9.74908,1.20139l0.92708,0.40471c0,0 0.25617,0.11358 0.53176,0.35171c2.26156,0.11425 4.50827,0.32305 6.75591,0.57233c0.24917,0.02613 0.49791,0.05409 0.74614,0.08416c1.2988,0.14882 2.5985,0.30916 3.90213,0.47062l0.00099,-0.0133l1.91785,0.14275c0.1555,-0.0384 0.27417,-0.03618 0.27417,-0.03618c6.98936,0.13137 14.08627,0.81315 21.12045,1.10744c0.47136,-0.00418 0.94275,-0.00834 1.41411,-0.01252l0.69089,0.13648c0.27178,-0.16287 0.57403,-0.1572 0.57403,-0.1572c7.84869,0.16733 15.68168,-1.10867 23.54553,-0.97821c7.13351,0.13495 16.20587,1.48215 23.12712,-0.4244c0.23861,-0.39264 0.73769,-0.45438 0.73769,-0.45438c2.80558,-0.34713 5.52914,-0.83295 8.3382,-1.1805l1.17282,-0.14511c0,0 0.18529,-0.02292 0.40406,0.03215c0.21719,-0.45857 0.77728,-0.52787 0.77728,-0.52787l1.07763,-0.12853c1.41378,-0.47409 3.11542,-0.77186 4.42319,-1.50963c0.87695,-0.49474 1.63063,-1.20918 2.30074,-2.04645l0.09151,-0.20715c-0.10654,-0.44499 0.20114,-0.83955 0.20114,-0.83955c0.60793,-0.7796 1.25678,-1.51913 1.8161,-2.3098c0.37458,-0.70524 0.73088,-1.41417 1.08312,-2.09198l-0.11271,-0.02269l0.27268,-1.35453c0.02718,-0.15136 0.09052,-0.29852 0.19166,-0.42822c0.33257,-0.42648 0.94791,-0.50262 1.37439,-0.17005c0.25586,0.19952 0.38563,0.5008 0.37669,0.80203l-0.01942,1.03296l-0.06121,-0.00115l0.05034,0.12936c-0.21146,0.73609 -0.49889,1.39642 -0.83957,2.01539c-0.26667,0.69958 -0.71033,1.41034 -1.08267,2.00506c-0.22595,0.36089 -0.45702,0.7025 -0.69368,1.02643c0.18431,0.48381 -0.17048,0.9388 -0.17048,0.9388c-0.44521,0.56694 -0.9348,1.10202 -1.45917,1.59838c-0.45753,0.64742 -0.96922,1.17819 -1.52485,1.62033c5.39216,0.36896 10.8208,1.34973 16.09254,1.37376c1.36516,0.08939 1.67197,-0.63918 2.24231,-1.78297c1.73246,-3.47435 -0.1113,-5.2339 -0.72761,-8.84501l1.10421,-1.15025c0,0 0.74192,-0.63914 1.38105,0.10279z" fill="#1f1f1f"></path>
          <path d="M359.41872,253.22005c-0.97185,0.12023 -1.09208,-0.85161 -1.09208,-0.85161l-0.04134,-0.97895c1.08981,-3.72292 -0.36189,-5.66618 -2.25482,-8.66404c-2.78856,-1.46395 -5.5376,-0.33555 -8.38487,0.1899c-2.70916,0.49997 -5.27861,1.1379 -7.88287,1.66963c0.26138,0.15654 0.51947,0.32102 0.77366,0.49272c0.05248,0.02236 0.1049,0.04491 0.15726,0.06765c0,0 0.24581,0.10898 0.42272,0.34155c2.84244,2.09229 5.11062,5.06356 5.89672,7.84409l0.31606,-0.00189c0,0 0.77222,0.60217 0.17005,1.37439l-0.00001,0.00001c-0.60217,0.77222 -1.37439,0.17005 -1.37439,0.17005l-1.00186,-1.0296c-0.25387,-0.99111 -0.77209,-2.04016 -1.47949,-3.06148c-0.08054,0.05498 -0.17743,0.1033 -0.29368,0.14189l-0.00001,0.00004c-0.92939,0.30851 -1.23789,-0.62089 -1.23789,-0.62089l-0.15381,-0.53003c-0.80177,-1.38731 -1.77491,-2.41803 -2.87187,-3.18416c-2.08522,-0.83851 -4.30919,-1.37203 -6.57682,-1.83954c-0.32524,0.06405 -0.64418,0.15611 -0.95494,0.27835c0,0 -0.91366,0.35236 -1.26602,-0.56131c-0.01063,-0.02754 -0.02009,-0.05458 -0.02847,-0.08111c-1.18397,-0.03277 -2.37903,-0.02645 -3.55721,-0.03509c-0.28352,0.23963 -0.66282,0.24435 -0.66282,0.24435l-1.28343,0.01448c-4.50149,0.55695 -8.81205,2.17818 -13.37109,2.09249c-7.44863,-0.15886 -16.75519,-1.9085 -23.97366,-0.00083c-7.0492,-0.07387 -13.93473,1.04822 -20.95937,0.20535c-0.24692,0.0561 -0.46183,0.01284 -0.46183,0.01284l-1.26187,-0.26068c-1.94855,0.06766 -3.71523,0.03523 -5.66671,0.27068c-6.66225,-0.52736 -13.53925,0.14406 -20.27115,0.07617c-0.46985,1.28413 -1.9678,1.17263 -1.9678,1.17263l-1.39374,-0.10676c-11.3149,-0.21274 -23.8414,-0.05 -34.86086,-2.79425c0,0 -1.90047,-0.47329 -1.42718,-2.37375c0.47329,-1.90047 2.37375,-1.42718 2.37375,-1.42718c10.73213,2.6727 22.97052,2.47172 33.98791,2.67886l1.61085,0.11687c0,0 0.94715,0.0705 1.47321,0.77288c6.79042,0.09078 13.69262,-0.54503 20.42724,-0.0734c2.01562,-0.25645 3.86135,-0.20345 5.87706,-0.26451l1.34949,0.26559c0.19683,-0.04085 0.35531,-0.02144 0.35531,-0.02144c6.92136,0.84773 13.63346,-0.39958 20.57523,-0.19363c7.23411,-2.02204 16.75798,-0.13794 24.25094,-0.01365c4.47882,0.08418 8.77054,-1.5401 13.20166,-2.08835l0.36819,-0.00498c0.29539,-0.27874 0.72461,-0.27066 0.72461,-0.27066c0.96141,0.01807 1.928,0.02458 2.89033,0.04102l0.91612,-0.26264c0.58736,0.11823 1.17377,0.23446 1.75828,0.35195c0.74372,0.04215 1.47936,0.10279 2.20233,0.19236c1.02671,-0.02006 2.07103,0.14336 3.10227,0.4541c6.43649,-1.21659 14.87311,-5.12705 20.76595,-1.87658c2.4392,3.52908 4.09066,6.20283 2.81461,10.65414l0.10376,0.19386c0,0 0.12023,0.97185 -0.85161,1.09208z" fill="#1f1f1f"></path>
          <path d="M340.25625,238.42196c-5.65173,-1.25602 -0.12079,-8.28467 4.10481,-6.59012c2.60841,1.04603 2.82844,5.22706 0.5386,6.75923c-1.11955,0.74912 -2.70638,0.41009 -3.92274,0.26239zM340.43736,236.50874c0.20661,-0.02974 0.39781,0.02371 0.53758,0.08474c0.15025,0.05868 0.33523,0.16405 0.46162,0.34925c0.66683,0.11109 1.84765,0.3646 2.37875,0.01741c0.89328,-0.58395 1.05123,-2.86826 -0.10841,-3.28227c-1.93342,-0.69025 -5.24271,2.57816 -3.26953,2.83086z" fill="#343434"></path>
          <g>
            <path d="M350.0356,243.6103c-0.03424,-0.02183 -0.06885,-0.04629 -0.10381,-0.07355c-0.77222,-0.60217 -0.17005,-1.37439 -0.17005,-1.37439l0.86468,-0.94074c1.37602,-0.65132 2.33417,-0.99986 3.5746,-1.1344c-1.40772,-0.7666 -2.47865,-1.91811 -2.53979,-3.12291c-0.33231,-0.25115 -0.38683,-0.69178 -0.38683,-0.69178l0.08594,-0.90035c1.29265,-2.21148 2.6016,-3.04118 5.02557,-3.69323c4.54696,-0.48855 7.72194,5.83689 3.52562,8.72404c-0.81084,0.55788 -1.88883,0.70969 -2.99741,0.57204c0.18473,0.18796 0.35215,0.3888 0.50251,0.59996c2.50828,1.02315 2.0048,4.87994 0.07726,6.38118c-0.02906,0.02264 -0.05836,0.04438 -0.08788,0.06526c-0.891,1.13388 -2.35103,1.76726 -4.32859,1.304c-3.54118,-0.82956 -4.58564,-3.67808 -3.0418,-5.71512zM352.70777,245.06379c0.44612,-0.00504 0.76265,0.36239 0.76265,0.36239l0.48237,0.62214c0.39748,0.0941 1.54924,0.59395 2.102,0.48553c0.57677,-0.86276 0.70794,-2.13331 0.32449,-3.16454c-1.06485,0.06154 -3.33203,0.91121 -3.67151,1.69446zM354.3344,236.56408c0.00063,-0.00021 0.00125,-0.00042 0.00188,-0.00063c0.92939,-0.30851 1.23789,0.62088 1.23789,0.62088l-0.37948,0.0748c0.00655,0.00842 0.01304,0.01701 0.01945,0.02578c0.77458,0.23704 2.10134,0.85234 2.88413,0.4783c0.97197,-0.46445 1.82737,-2.49818 0.5582,-3.07543c-1.43847,-0.65425 -4.61889,0.97262 -4.32207,1.87629z" fill="#343434"></path>
            <path d="M352.64306,245.07237c0.33948,-0.78325 2.71413,-1.69085 3.77898,-1.75239c0.38345,1.03124 0.2376,2.41005 -0.33918,3.27281c-0.55276,0.10841 -1.77746,-0.40296 -2.17494,-0.49705l-0.49809,-0.64524c0,0 -0.32066,-0.38315 -0.76678,-0.37812z" fill="#888888"></path>
            <path d="M354.27025,236.5761c-0.29682,-0.90367 2.99748,-2.58488 4.43595,-1.93063c1.26918,0.57726 0.3982,2.70893 -0.57378,3.17338c-0.78279,0.37404 -2.19792,-0.26055 -2.9725,-0.49759c-0.00641,-0.00877 0.09608,-0.08926 0.08953,-0.09768l0.27289,0.00043c0,0 -0.32084,-0.95704 -1.25022,-0.64853c-0.00063,0.00022 0.12707,-0.02365 0.12644,-0.02344z" fill="#888888"></path>
            <path d="M342.54361,248.28529c-0.25361,0.08691 -0.48951,0.05801 -0.48951,0.05801c-5.13993,-0.91873 -1.79618,-7.71347 2.30663,-7.42625c6.23707,0.43663 6.53104,8.96061 -0.27383,8.21666l-1.06526,-0.42589c0,0 -0.30269,-0.13421 -0.47802,-0.42254zM343.04827,246.88355c0.37863,-0.13841 0.76716,0.03384 0.76716,0.03384l0.50957,0.27233c4.21455,0.59225 3.60243,-4.01496 -0.03824,-4.31557c-1.76534,-0.14577 -4.4081,3.49721 -1.99456,3.52516c0,0 0.525,0.06431 0.75607,0.48424z" fill="#343434"></path>
            <path d="M342.2335,246.42788c-2.41354,-0.02795 0.28318,-3.76461 2.04853,-3.61884c3.64067,0.30061 4.25255,5.03803 0.038,4.44578l-0.52951,-0.27708c0,0 -0.40781,-0.18454 -0.78643,-0.04613c-0.23107,-0.41993 -0.77058,-0.50373 -0.77058,-0.50373z" fill="#888888"></path>
            <path d="M339.58956,235.6265c0.59899,0.3589 0.38646,1.09301 0.38646,1.09301c-1.00572,2.03294 3.2862,1.79969 4.31233,0.93992c3.0194,-2.52993 -0.94432,-5.85608 -3.92762,-3.35773c-0.14066,0.29105 -0.28132,0.5821 -0.42198,0.87314zM338.05771,236.37183c-0.06238,-0.0325 -0.12622,-0.07348 -0.19127,-0.1242c-0.77222,-0.60217 -0.17005,-1.37439 -0.17005,-1.37439l0.58673,-0.74467c0.17772,-0.34373 0.35543,-0.68748 0.53315,-1.03121c1.34317,-1.17462 3.21676,-2.39147 5.13125,-1.90081c3.46119,0.88707 4.19356,5.69738 1.62964,7.93756c-2.69219,2.35227 -8.18115,1.24202 -7.51946,-2.76229z" fill="#343434"></path>
            <path d="M339.87694,235.15384c0.14066,-0.29105 0.29331,-0.60328 0.43397,-0.89433c2.9833,-2.49835 7.04625,0.91265 4.02685,3.44258c-1.02613,0.85978 -5.42997,1.06919 -4.42425,-0.96375c0,0 0.21034,-0.76163 -0.38865,-1.12053z" fill="#888888"></path>
            <path d="M345.24498,237.13695c-0.89521,-0.3969 -0.49831,-1.29212 -0.49831,-1.29212l0.1611,-0.22261c0.05359,-0.55327 -0.01795,-1.13143 -0.20476,-1.65495c0,0 -0.3085,-0.92939 0.62089,-1.23789c0.92939,-0.3085 1.23789,0.62089 1.23789,0.62089c0.24392,0.77441 0.34691,1.60682 0.29909,2.41733l-0.32378,0.87104c0,0 -0.3969,0.89521 -1.29212,0.49831z" fill="#343434"></path>
          </g>
        </g>
      </g>
      <g stroke-width="0.5">
        <path d="M199.329,253.42336l0.23401,-0.36226c1.17902,-1.85305 2.2013,-3.9066 2.45217,-6.08856c0.02031,-0.17662 0.13057,-0.32238 0.14095,-0.49751c0.13811,0.18929 0.75439,0.93561 1.67754,0.59876c3.30748,2.33329 5.63817,6.03096 3.12685,9.64968c-4.02411,5.79861 -12.32011,8.5145 -18.57778,10.9708c-7.74141,0.92845 -12.13559,-2.60125 -15.51628,-9.0836c-0.64236,-1.23172 -1.5996,-2.46393 -1.6103,-3.85305c-0.02644,-3.43375 3.59265,-5.79453 3.71612,-9.27682c0.07179,-2.02487 -1.53985,-4.75804 -2.79432,-6.63723c2.01896,-1.81021 3.79781,-4.59782 5.68326,-5.98199c4.21732,-3.09608 9.68788,-6.66744 14.37614,-9.07354c1.80667,-0.92722 3.06778,-0.7243 4.4633,-2.35921c1.59942,-0.19321 3.24457,0.16598 4.84431,-0.02977c0.80759,-0.09882 2.75475,-1.28476 3.85181,-1.0988c6.41855,1.088 6.46471,10.52397 2.59026,14.46794c-0.80755,-1.09293 -2.07788,-0.29176 -2.07788,-0.29176l-0.39021,0.25435c-1.02538,0.65678 -2.15476,1.24832 -3.22264,1.76497c1.85932,-2.05315 3.24562,-3.47647 3.8868,-6.19198c0,0 0.32719,-1.46089 -1.13747,-1.78457c-1.46466,-0.32369 -1.71968,1.06829 -1.71968,1.06829c-0.4145,2.07734 -1.67583,3.20428 -3.08981,4.7334c-0.10135,-0.29077 -0.24918,-0.54405 -0.4949,-0.73092c-0.00143,-0.00108 -0.00285,-0.00217 -0.00429,-0.00325c-0.03163,-0.0497 -0.06313,-0.09943 -0.09548,-0.15013l-0.12201,-0.03477l0.05589,-0.04807l-1.28773,-1.5011c-0.20496,-0.24384 -0.48585,-0.42274 -0.82091,-0.49679c-0.80891,-0.17877 -1.5644,0.24295 -1.74317,1.05185c-0.10724,0.48527 0.03723,0.96937 0.34183,1.31623l1.12421,1.30521c-0.11698,0.57799 0.39549,1.1376 0.58104,1.70405l0.02686,1.4332c0,0 0.02663,0.82364 0.6411,1.23501c0.05088,0.30944 0.1992,0.672 0.5684,0.91794c-0.45899,4.01376 0.66087,7.31571 -1.89909,11.18881l-0.23675,0.36441c0,0 -0.86947,1.17524 0.38968,1.99043c1.25916,0.81518 2.0682,-0.43962 2.0682,-0.43962z" fill="#b7b7b7"></path>
        <path d="M193.62847,216.38383c1.54396,2.91404 -5.84309,5.25856 -7.8922,6.69407c-3.33212,2.33432 -7.24604,4.1339 -10.5017,6.51541c-4.18029,3.05788 -6.62304,10.05692 -11.44606,4.01588c-0.45735,-0.57285 -0.84171,-1.20782 -1.26097,-1.80911c0,0 -0.04115,-0.05886 -0.11869,-0.14681c4.71319,-10.07224 15.39158,-15.55027 24.5129,-21.26525c0.74324,0.49001 1.43738,0.36496 1.92907,0.12858c1.82625,1.79091 3.29586,3.54118 4.77764,5.86722z" fill="#b7b7b7"></path>
        <path d="M185.92756,250.89252c0.38169,1.45062 -1.06893,1.83231 -1.06893,1.83231l-1.01828,0.2664c-2.5432,0.7869 -4.82775,1.90635 -7.34415,2.75232c0,0 -1.42247,0.47601 -1.89848,-0.94647c-0.47601,-1.42247 0.94647,-1.89848 0.94647,-1.89848c2.53717,-0.84474 4.84021,-1.96985 7.40489,-2.77193l1.14617,-0.30311c0,0 1.45062,-0.38169 1.83231,1.06894z" fill="#6b6b6b"></path>
        <path d="M193.78424,250.59586c0.36549,1.45479 -1.0893,1.82027 -1.0893,1.82027l-0.42618,0.02771c-2.83321,1.78383 -6.24652,3.21962 -9.43704,4.29022c0,0 -1.42247,0.47601 -1.89848,-0.94646c-0.47601,-1.42247 0.94647,-1.89848 0.94647,-1.89848c2.9396,-0.98081 6.19493,-2.30093 8.7755,-3.9744l1.30875,-0.40817c0,0 1.4548,-0.36549 1.82028,1.08931z" fill="#6b6b6b"></path>
        <path d="M197.28659,253.90582c-1.25916,-0.81518 -0.44398,-2.07434 -0.44398,-2.07434l0.23518,-0.36328c2.55996,-3.87309 1.42297,-7.11863 1.88196,-11.13239c-0.36921,-0.24595 -0.5151,-0.60278 -0.56599,-0.91222c-0.61447,-0.41136 -0.63691,-1.22804 -0.63691,-1.22804l-0.02291,-1.42838c-0.18554,-0.56645 -0.69213,-1.12065 -0.57516,-1.69865l-1.11768,-1.30089c-0.30459,-0.34685 -0.44553,-0.82917 -0.33828,-1.31445c0.17877,-0.80891 0.97944,-1.31974 1.78835,-1.14097c0.33506,0.07405 0.61898,0.25479 0.82394,0.49864l1.29349,1.50551l-0.05592,0.04805l0.12235,0.03507c0.03235,0.05071 0.06435,0.10088 0.09597,0.15058c0.00143,0.00108 0.00286,0.00218 0.0043,0.00326c0.24572,0.18687 0.39591,0.44249 0.49728,0.73325c1.41397,-1.52911 2.60506,-2.58498 3.01954,-4.66232c0,0 0.32369,-1.46466 1.78835,-1.14097c1.46466,0.32369 1.14097,1.78835 1.14097,1.78835c-0.64118,2.71552 -2.02259,4.14578 -3.88191,6.19894c1.06789,-0.51666 2.11071,-1.05812 3.13609,-1.7149l0.47687,-0.30424c0,0 1.18212,-0.7542 1.98967,0.33874c3.87443,-3.94397 3.84632,-13.35977 -2.57224,-14.44776c-1.09706,-0.18596 -3.03944,1.00267 -3.84703,1.10148c-1.59974,0.19575 -3.23585,-0.16003 -4.83526,0.03318c-1.39552,1.63491 -2.64722,1.43359 -4.45389,2.36081c-4.68825,2.40609 -10.11606,5.95871 -14.33338,9.05479c-1.88544,1.38417 -3.65473,4.15197 -5.67368,5.96218c1.25447,1.87919 2.86689,4.59385 2.7951,6.61872c-0.12347,3.48229 -3.74901,5.82481 -3.72257,9.25856c0.01069,1.38912 0.96283,2.61421 1.60519,3.84593c3.38068,6.48236 7.74191,9.9949 15.48332,9.06644c6.25767,-2.4563 14.51041,-5.1546 18.53453,-10.95321c2.51132,-3.61872 0.17103,-7.29859 -3.13645,-9.63188c-0.92315,0.33686 -1.53954,-0.4091 -1.67765,-0.59839c-0.01038,0.17513 -0.0253,0.35095 -0.0456,0.52758c-0.25087,2.18195 -1.2874,4.25692 -2.46642,6.10995l-0.23518,0.36328c0,0 -0.81518,1.25916 -2.07434,0.44397zM200.9522,217.21969c1.71008,-0.20682 3.34649,-1.34247 5.05081,-1.09258c10.05429,1.47424 10.56145,14.15746 5.56332,20.66433c-1.94367,2.53039 -4.98449,3.71498 -7.68546,5.38324c6.19962,3.20948 10.93964,10.0905 6.60653,16.85322c-4.34152,6.77583 -13.9212,10.06353 -21.07149,12.75337c-9.6944,1.19122 -16.02428,-2.90014 -20.32189,-11.29245c-0.92159,-1.79969 -2.04267,-3.68446 -2.05713,-5.70635c-0.02742,-3.83456 3.56957,-6.0832 3.72378,-9.42219c0.0571,-1.23638 -1.66552,-3.60212 -2.45517,-4.70078c-4.13133,0.30991 -7.10024,-3.41692 -9.22499,-6.43722c0,0 -0.40704,-0.58103 -0.41623,-1.30749c-1.02825,-0.955 -0.39526,-2.37511 -0.39526,-2.37511c4.14871,-9.11737 14.18305,-16.80668 22.53294,-22.04425c2.48648,-1.55967 5.11505,-2.38063 7.47486,-4.06087l1.25207,1.85052l0.7551,-0.20907c2.91429,2.6666 5.0021,5.0598 7.10938,8.41788c0.40566,1.22366 0.78778,2.0257 0.96281,2.73549c0.86821,0.04175 1.73704,0.09423 2.59604,-0.00966zM188.81921,210.55534c-0.49169,0.23639 -1.18174,0.36444 -1.92498,-0.12557c-9.12132,5.71498 -19.72782,11.12819 -24.44102,21.20043c0.07754,0.08794 0.11845,0.14636 0.11845,0.14636c0.41925,0.6013 0.80039,1.23103 1.25774,1.80388c4.82302,6.04103 7.24735,-0.9739 11.42765,-4.03178c3.25565,-2.38151 7.09714,-4.13463 10.42926,-6.46895c2.04911,-1.43551 9.44064,-3.76107 7.89667,-6.67511c-1.48177,-2.32604 -2.93751,-4.05834 -4.76377,-5.84924z" fill="#6b6b6b"></path>
      </g>
      <g stroke-width="0.5">
        <path d="M283.68908,261.7662c-1.10709,-1.5694 -2.53128,-2.48926 -3.2525,-4.38364c-0.23949,-0.62904 -0.38659,-1.28765 -0.53556,-1.94594c-0.32401,0.19744 -0.72862,0.40047 -1.30508,0.65693l0,-0.00001c-0.68252,0.30364 -1.3785,0.63677 -2.12015,0.72613c-0.27941,0.03366 -0.69136,-0.65423 -0.75399,-0.37986c-0.06623,0.29016 0.53676,0.2934 0.72024,0.52775c0.75634,0.96601 1.26373,2.1045 1.94776,3.123c2.58441,3.8481 5.33915,6.25134 8.74419,9.23364c1.60886,1.40912 2.28671,2.16872 4.46975,2.59706c1.04913,-0.65436 2.15021,-1.07251 3.24457,-1.5669c-4.29201,-2.03629 -8.49167,-4.80668 -11.15922,-8.58817zM292.01389,276.175l-1.00863,-0.30201c-7.87719,-1.06752 -12.87808,-6.40659 -16.92638,-12.95913c-1.41547,-2.29108 -4.19706,-5.1123 -2.33483,-8.08886c0.1176,-0.18797 0.2723,-0.33938 0.44905,-0.46904c0.08173,-0.30954 0.22691,-0.52249 0.22691,-0.52249l1.18578,-0.95941c1.03296,-0.19549 2.06698,-0.38569 3.10246,-0.56742c1.81828,-0.9735 1.14458,-1.54604 2.30629,-3.17557c1.05694,-1.48255 3.35447,-2.65383 4.9856,-3.36487c2.72803,-1.18922 6.31104,-1.02256 8.86735,-2.49463c0.50635,-0.29159 0.79991,-0.89179 1.3255,-1.14705c1.35664,-0.65887 1.82636,0.04021 2.87983,-0.94812c3.04522,-2.85694 1.34387,-7.47101 2.68253,-11.08739c2.18799,-3.25335 4.35142,-5.62704 7.98718,-6.97268c1.27217,-0.47085 2.51172,-1.35392 3.86573,-1.27164c2.61742,0.15906 5.23932,2.04052 6.42087,4.42265c3.05157,-1.44013 7.26291,-1.60186 9.59926,0.98643c1.07881,1.19515 1.56687,2.77127 1.86718,4.34965c2.51102,-0.77199 4.75044,-0.38533 7.17486,2.30429l0.62539,1.04789c0,0 0.48061,0.86161 -0.0365,1.57707c0.1595,0.56716 0.19204,1.16913 0.05984,1.78841c-0.3263,1.52848 -1.70351,2.4256 -2.98678,3.38909c0.3239,0.7197 -0.17129,1.44607 -0.17129,1.44607c-2.67166,3.66187 1.81085,4.06677 2.6594,7.17442c0.37405,1.36984 -0.37796,3.03151 -0.8383,4.27716c-2.04784,5.54122 -7.20953,9.93492 -12.22802,12.76441c-4.92412,2.74659 -9.51593,5.20272 -14.94927,6.64595c-2.22575,0.59122 -3.71887,0.16813 -5.82571,-0.13306c-2.9851,-0.42673 -5.34239,0.6808 -7.82696,2.06664l-1.56341,0.37423c0,0 -0.48139,0.09111 -0.946,-0.10594c-0.34859,0.03454 -0.62889,-0.04504 -0.62889,-0.04504zM329.6248,236.11004c-0.03565,-0.00259 -0.07125,-0.00541 -0.10683,-0.00848l0.00077,0.01705l-0.23481,0.01061c-1.13346,0.60049 -2.36383,1.70449 -3.1019,2.51992c-0.1077,1.39834 -0.22894,2.79662 -0.31053,4.21531c-0.33125,4.61737 3.93127,6.73581 4.10379,10.90002c0.01751,0.42275 0.00946,0.82503 -0.02206,1.20887c0.05908,-0.12795 0.11307,-0.25811 0.16166,-0.39056c0.13183,-1.01465 0.55882,-2.02078 0.44315,-3.0374c-0.29103,-2.55777 -2.41207,-4.49169 -2.48568,-7.12147c-0.03188,-1.13902 0.42708,-3.23503 1.07108,-4.20416c0.42666,-0.64207 2.84893,-1.86322 2.77378,-2.91415c-0.05056,-0.70694 -0.2475,-1.14701 -0.54295,-1.38465c-0.66182,0.10215 -1.29725,0.22183 -1.74946,0.1891zM310.27948,235.2768c-0.43437,-0.77878 -0.14755,-1.35281 0.1565,-1.6903c0.21854,-1.24839 0.58826,-2.51309 1.39346,-3.45555c0.57015,-0.66734 1.39081,-0.56168 1.12504,-1.6004c-1.16681,-4.56028 -6.77227,0.39402 -7.95252,2.00881c-1.89842,2.59737 0.27549,7.27482 -0.71777,10.20488c0,0 -0.03152,0.08545 -0.10008,0.20648c0.15941,0.8619 0.06457,1.72937 -0.95046,2.78162c-1.02886,1.0666 -2.71847,1.21897 -3.94348,2.05294l-2.39722,1.33857c0,0 -0.25532,0.14242 -0.6034,0.18877c-1.52353,1.30391 -2.85978,2.1239 -4.97081,2.37999c-2.75896,0.33469 -6.65317,-0.94248 -7.67449,2.1544l-0.04306,0.07188c2.55099,7.34397 8.35445,12.12389 15.00729,15.54563c1.49248,0.76763 3.06846,1.64878 4.86427,1.6659c1.79171,0.01708 3.74624,-0.72845 5.58666,-0.80062c5.15501,-1.79399 8.55116,-4.17047 12.86421,-7.44875c2.70974,-2.05963 4.99676,-3.10164 5.05268,-7.03811c0.02104,-1.4814 -1.74846,-2.78573 -2.42237,-3.9912c-1.39534,-2.49595 -1.81048,-4.34737 -1.67742,-7.16102c0.06758,-1.15587 0.15274,-2.30326 0.23755,-3.44831c-0.52124,-0.77577 0.06533,-1.63619 0.06533,-1.63619c0.01957,-0.02845 0.0395,-0.05705 0.05978,-0.08581c0.06238,-0.89247 0.11908,-1.78539 0.16161,-2.68171c0.05119,-1.07889 0.78425,-2.05671 0.81401,-3.1364c0.0685,-2.48509 -4.60732,-0.21998 -5.28166,0.25021c-3.46759,2.41781 -4.32239,8.19336 -3.06473,12.26295c0.51091,0.62461 1.00825,1.25271 1.26245,1.99385l0.05142,0.01633c0,0 1.23939,0.84493 0.39447,2.08432c-0.30686,0.45011 -0.66574,0.62532 -0.99839,0.66593c-0.35893,0.32957 -0.79816,0.61296 -1.15931,0.9135c-1.84862,1.5384 -4.1648,2.70954 -6.17621,4.06372c0,0 -1.2448,0.83694 -2.08174,-0.40787c-0.83694,-1.2448 0.40787,-2.08174 0.40787,-2.08174c1.55631,-1.04506 3.03576,-2.08152 4.54927,-3.14762c0.53873,-0.37948 1.54034,-0.35094 1.99142,-0.73607l-0.07383,-0.06004c-0.39171,-0.7183 -0.71715,-1.5018 -0.974,-2.3291c-0.58947,-0.76981 -1.17961,-1.50477 -1.2648,-1.69717c-1.00533,-2.27034 -1.72623,-5.04589 -1.74752,-7.72883c0.13252,-0.07808 0.26539,-0.15557 0.39861,-0.23245c-0.0588,-0.07498 -0.11526,-0.15977 -0.16862,-0.25544z" fill="#6b6b6b"></path>
        <path d="M329.9553,255.02328c0.03151,-0.38385 0.03996,-0.78614 0.02245,-1.20888c-0.17253,-4.16421 -4.48234,-6.35473 -4.15109,-10.9721c0.08159,-1.41869 0.22337,-2.83854 0.33108,-4.23687c1.59377,-1.76084 5.52293,-4.87116 5.7749,-1.34739c0.07515,1.05094 -2.35825,2.36945 -2.78492,3.01152c-0.644,0.96912 -1.05795,3.02368 -1.02607,4.1627c0.0736,2.62978 2.13794,4.50589 2.42897,7.06366c0.11568,1.01663 -0.30093,2.12211 -0.43277,3.13677c-0.04859,0.13245 -0.10347,0.26265 -0.16256,0.39061z" fill="#b7b7b7"></path>
        <path d="M281.26614,254.21241c2.90881,6.97862 8.5608,11.95219 15.10158,15.46879l-0.15638,0.0421c-1.51594,0.85283 -3.10707,1.32097 -4.58062,2.24005c-2.18304,-0.42834 -2.8786,-1.18088 -4.48746,-2.59c-3.40504,-2.9823 -6.21548,-5.45329 -8.7999,-9.30139c-0.68403,-1.01849 -1.187,-2.16554 -1.94333,-3.13155c-0.18348,-0.23435 -0.78636,-0.23775 -0.72013,-0.52792c0.06263,-0.27437 0.47482,0.41317 0.75423,0.37951c0.74164,-0.08936 1.4431,-0.42934 2.12561,-0.73298c1.54806,-0.68872 1.86957,-1.00175 2.70637,-1.8466z" fill="#b7b7b7"></path>
        <path d="M310.63292,235.47265c-0.19704,0.11257 -0.3846,0.12691 -0.58015,0.24213c0.02128,2.68293 0.76357,5.46488 1.76889,7.73522c0.0852,0.1924 0.69098,0.94125 1.28045,1.71105c0.25686,0.82731 0.59177,1.63552 0.98348,2.35381l0.07389,0.06073c-0.45108,0.38512 -1.45282,0.36643 -1.99155,0.7459c-1.51352,1.06611 -3.06445,2.14195 -4.62075,3.18701c0,0 -1.20541,0.74514 -0.36846,1.98995c0.83694,1.2448 2.0642,0.40466 2.0642,0.40466c2.01141,-1.35419 4.27973,-2.49002 6.12835,-4.02842c0.36114,-0.30054 0.79862,-0.57588 1.15755,-0.90545c0.33264,-0.0406 0.69112,-0.21106 0.99798,-0.66118c0.84493,-1.23939 -0.39331,-2.07155 -0.39331,-2.07155l-0.05138,-0.01616c-0.2542,-0.74114 -0.74619,-1.3555 -1.2571,-1.98011c-1.25766,-4.06959 -0.33359,-9.91272 3.134,-12.33053c0.67434,-0.47019 5.35815,-2.72931 5.28965,-0.24422c-0.02976,1.07969 -0.76003,2.06028 -0.81122,3.13917c-0.04254,0.89632 -0.09583,1.79334 -0.1582,2.68581c-0.02028,0.02875 -0.04015,0.05742 -0.05972,0.08587c0,0 -0.58437,0.86362 -0.06313,1.63939c-0.08482,1.14506 -0.16566,2.301 -0.23324,3.45687c-0.13307,2.81366 0.28511,4.68922 1.68045,7.18518c0.67391,1.20547 2.44126,2.51943 2.42022,4.00084c-0.05592,3.93647 -2.35538,4.99846 -5.06512,7.05809c-4.31304,3.27828 -7.74472,5.6691 -12.89973,7.46309c-1.84043,0.07216 -3.80766,0.81593 -5.59937,0.79885c-1.79581,-0.01712 -3.38259,-0.90264 -4.87506,-1.67026c-6.65284,-3.42174 -12.48175,-8.23798 -15.03274,-15.58195l0.04304,-0.07199c1.02132,-3.09688 4.9152,-1.82244 7.67416,-2.15713c2.11102,-0.25608 3.44712,-1.08341 4.97065,-2.38732c0.34808,-0.04635 0.60347,-0.18966 0.60347,-0.18966l2.39828,-1.34589c1.22501,-0.83397 2.92262,-1.00442 3.95148,-2.07101c1.01503,-1.05226 1.12149,-1.93142 0.96208,-2.79332c0.06856,-0.12103 0.10102,-0.20714 0.10102,-0.20714c0.99327,-2.93006 -1.16422,-7.61484 0.7342,-10.21221c1.18026,-1.6148 6.80688,-6.56962 7.97369,-2.00935c0.26577,1.03872 -0.57141,1.03166 -1.14154,1.69901c-0.96774,1.13272 -1.3032,2.73126 -1.50642,4.20716c0.10621,0.36174 0.21084,0.72333 0.31705,1.08507z" fill="#b7b7b7"></path>
      </g>
    </g>
  </g>
</svg>
