<?xml version="1.0" encoding="UTF-8"?>
<svg xmlns="http://www.w3.org/2000/svg" xmlns:xlink="http://www.w3.org/1999/xlink" version="1.1" width="483.2598" height="411.72658" viewBox="0,0,483.2598,411.72658">
  <defs>
    <linearGradient x1="346.10002" y1="-4.10001" x2="346.10002" y2="363.9" gradientUnits="userSpaceOnUse" id="color-1">
      <stop offset="0" stop-color="#3f1c6c"></stop>
      <stop offset="1" stop-color="#8239de"></stop>
    </linearGradient>
    <linearGradient x1="110.60005" y1="-1.1" x2="110.60005" y2="360.9" gradientUnits="userSpaceOnUse" id="color-2">
      <stop offset="0" stop-color="#ffffff"></stop>
      <stop offset="1" stop-color="#b5b5b5"></stop>
    </linearGradient>
    <linearGradient x1="353.32991" y1="364.16328" x2="353.32991" y2="156.16328" gradientUnits="userSpaceOnUse" id="color-3">
      <stop offset="0" stop-color="#ffffff" stop-opacity="0.46275"></stop>
      <stop offset="1" stop-color="#ffffff" stop-opacity="0"></stop>
    </linearGradient>
  </defs>
  <g transform="translate(-0.60003,4.1)">
    <g stroke-miterlimit="10">
      <path d="M211.60007,363.9v-368h269v368z" fill="url(#color-1)" stroke="none" stroke-width="0"></path>
      <path d="M0.60003,360.9v-362h220.00001v362z" fill="url(#color-2)" stroke="none" stroke-width="0"></path>
      <path d="M30.26669,174.90374c0,-6.23515 0,-14.75861 0,-18.51685c0,-3.59685 2.634,-8.48689 5.95062,-8.48689c14.90579,0 123.72816,0 149.33216,0c3.44539,0 5.38389,6.23248 5.38389,10.41573c0,3.47631 0,10.33269 0,15.81648c0,4.51599 -1.93861,8.10112 -5.38389,8.10112c-25.53945,0 -133.87162,0 -149.0488,0c-3.46068,0 -6.23398,-3.15091 -6.23398,-7.32959z" fill="none" stroke="#606163" stroke-width="2"></path>
      <path d="M30.26669,210.5704c0,-6.23515 0,-14.75861 0,-18.51685c0,-3.59685 2.634,-8.48689 5.95062,-8.48689c14.90579,0 123.72816,0 149.33216,0c3.44539,0 5.38389,6.23248 5.38389,10.41573c0,3.47631 0,10.33268 0,15.81648c0,4.51599 -1.93861,8.10112 -5.38389,8.10112c-25.53945,0 -133.87162,0 -149.0488,0c-3.46068,0 -6.23398,-3.15091 -6.23398,-7.32959z" fill="none" stroke="#606163" stroke-width="2"></path>
      <path d="M30.26669,244.90374c0,-6.23515 0,-14.75861 0,-18.51685c0,-3.59685 2.634,-8.48689 5.95062,-8.48689c14.90579,0 123.72816,0 149.33216,0c3.44539,0 5.38389,6.23248 5.38389,10.41573c0,3.47631 0,10.33269 0,15.81648c0,4.51599 -1.93861,8.10112 -5.38389,8.10112c-25.53945,0 -133.87162,0 -149.0488,0c-3.46068,0 -6.23398,-3.15091 -6.23398,-7.32959z" fill="none" stroke="#606163" stroke-width="2"></path>
      <path d="M30.26669,279.90374c0,-6.23516 0,-14.75861 0,-18.51685c0,-3.59684 2.634,-8.48689 5.95062,-8.48689c14.90579,0 123.72816,0 149.33216,0c3.44539,0 5.38389,6.23248 5.38389,10.41573c0,3.47631 0,10.33269 0,15.81648c0,4.51599 -1.93861,8.10112 -5.38389,8.10112c-25.53945,0 -133.87162,0 -149.0488,0c-3.46068,0 -6.23398,-3.15091 -6.23398,-7.32959z" fill="none" stroke="#606163" stroke-width="2"></path>
      <path d="M30.26669,335.5704c0,-6.23516 0,-14.75861 0,-18.51685c0,-3.59684 2.634,-8.48689 5.95062,-8.48689c14.90579,0 123.72816,0 149.33216,0c3.44539,0 5.38389,6.23248 5.38389,10.41573c0,3.47631 0,10.33269 0,15.81648c0,4.51599 -1.93861,8.10112 -5.38389,8.10112c-25.53945,0 -133.87162,0 -149.0488,0c-3.46068,0 -6.23398,-3.15091 -6.23398,-7.32959z" fill="none" stroke="#606163" stroke-width="2"></path>
      <g stroke="none" stroke-width="0.5">
        <path d="M323.2926,227.31328l-0.53269,-0.50832c0.00777,-0.01212 -0.00296,-0.17192 0.00479,-0.18406c2.72137,2.86503 3.73096,5.15983 5.48584,8.82606c0.91058,1.90233 2.66264,3.67207 2.91542,5.76591c0.30973,2.56567 -2.97423,6.61363 -3.99424,8.72074c-0.37705,0.7789 -0.40367,1.78224 -1.02602,2.38351c-1.11765,1.07981 -2.68672,1.46525 -4.2023,1.95563l-0.94514,-2.08343c0,0 -2.46539,-0.04445 -3.41425,1.95476c-2.87635,1.28761 -5.91745,2.69183 -8.11428,4.43484c-1.77246,1.40631 -3.75484,2.8218 -4.70526,4.8751c-0.8563,1.84997 -0.13078,4.07267 -0.36392,6.09783c-0.19587,1.70145 -1.17173,3.35573 -0.9084,5.04805c0.97889,6.29122 3.02107,5.08632 7.15327,8.449c5.82561,4.74075 11.39163,8.07523 18.10018,11.57523c0,0 2.83785,1.56838 4.61295,-1.07872l1.12931,0.36102c4.89357,-2.40317 10.64476,-3.29702 15.98249,-4.41988c1.00878,-0.21221 2.1264,-0.92278 3.14675,-0.77595c1.00851,0.14513 1.67083,1.2198 2.62876,1.56695c3.72334,1.34926 10.7917,2.99824 13.63073,6.09764c0.71786,0.78368 0.62664,2.07583 1.24559,2.93976c1.18174,1.64945 4.65715,4.08445 5.21419,6.49532c0.63593,2.75231 0.56312,10.48566 -0.23399,13.1853c-0.79764,2.7014 -3.33807,4.64598 -4.27693,7.3016c-0.41237,1.1664 -0.03723,2.59085 -0.66904,3.65449c-0.75298,1.26761 -2.18508,1.98902 -3.27547,2.98142c-4.0034,2.3092 -6.9694,6.00106 -11.20462,7.79221c-2.96238,1.25285 -6.01619,2.53984 -9.20969,2.92307c-2.22951,0.26755 -4.51727,-0.40016 -6.74444,-0.11368c-1.56944,0.20188 -2.90822,1.58729 -4.49036,1.56003c-1.58215,-0.02725 -2.87887,-1.41822 -4.4337,-1.71222c-1.57009,-0.29689 -3.23381,0.28211 -4.8007,-0.03127c-3.52282,-0.70457 -6.84668,-4.43711 -9.07098,-6.74793c-2.85825,-2.96944 -6.86767,-6.64047 -7.16407,-11.20559c-0.19347,-2.97986 1.5587,-7.44237 2.41777,-10.66536c0.58786,-0.29443 1.15618,-0.81606 1.61295,-1.69158c1.72136,-3.29941 -1.58807,-5.0304 -1.58807,-5.0304l-2.83782,-1.43055c-2.42727,-2.54578 -5.44578,-4.49032 -8.13301,-6.75999c-3.60851,-3.04779 -6.77842,-7.07375 -10.11126,-10.44473c-2.70447,-5.87718 -6.39528,-14.85847 -4.91312,-21.50729c0.70373,-3.15689 4.16607,-7.24742 5.71614,-9.92778c1.31383,-2.27184 2.34336,-4.95876 4.0106,-7.0188c2.02747,-2.50516 4.9635,-4.20189 6.94999,-6.73967c0.712,-0.9096 0.72155,-2.29843 1.55121,-3.10218c0.8001,-0.77514 9.79586,-6.27547 10.61262,-6.94217c2.42203,-1.97703 4.59665,-4.3457 6.3494,-6.95984c0.51338,0.12955 0.89278,0.13594 0.89278,0.13594z" fill="#e36f00"></path>
        <path d="M327.39829,294.15976c3.84087,-3.27544 8.0551,-5.92602 12.19751,-7.20135c8.33823,-2.56708 17.48517,-0.16757 24.82612,4.05412c0.23827,0.13702 8.77669,5.4677 8.82613,5.53416c0.09164,0.12318 0.18061,0.24795 0.26712,0.37417l0.06887,-0.06654l3.30978,3.42577c1.42807,1.47812 1.38751,3.83406 -0.09062,5.26215c-1.20395,1.16318 -2.99025,1.35202 -4.38321,0.58332l-2.67067,-1.39335c-8.65504,0.07786 -14.79597,1.46521 -22.85119,4.47064c-1.47887,0.55177 -3.20086,0.50393 -4.5437,1.33356c-1.57512,0.97314 -2.48199,2.77526 -3.9445,3.91062c-4.03619,3.13331 -10.88942,6.54391 -13.51953,11.2226c-0.60623,1.07842 -0.25375,2.48476 -0.66611,3.65115c-0.7812,2.20967 -3.52586,6.3514 -4.68124,8.20618c0,0 -1.96934,3.15767 -5.12701,1.18832c-0.79519,-0.49595 -1.26525,-1.06724 -1.52349,-1.64449c-0.52364,-0.31445 -0.83845,-0.6403 -0.83845,-0.6403l-1.50779,-1.8355c-0.60314,-1.28551 -1.20628,-2.57102 -1.80942,-3.85652c-1.20205,-6.87683 0.50637,-11.55498 3.30282,-16.66367c-2.77005,-1.9756 -0.91735,-4.94632 -0.91735,-4.94632c2.89014,-3.98325 1.41223,-5.16615 0.55589,-9.97843c-0.88288,-4.96143 -3.14617,-9.85941 -5.66713,-14.50085c-1.76343,-1.41444 -3.21304,-2.9736 -3.62586,-4.64493c-0.06904,-0.2795 -0.12559,-0.56037 -0.17119,-0.84245l-0.18016,0.05663l-1.57273,-5.00376c-0.44548,-1.31988 -0.12814,-2.8369 0.94027,-3.86914c1.47812,-1.42807 3.83406,-1.38751 5.26215,0.09062c0.30709,0.31785 0.54627,0.67629 0.71785,1.05738l1.54213,3.22174c0.75535,1.30958 1.52104,2.64083 2.27727,3.99187c0.81419,0.94039 1.69805,2.08632 3.23045,3.26587c4.64408,3.57479 10.46518,5.90164 12.74232,11.68064c0.06542,0.16601 0.14128,0.33492 0.22465,0.5061zM358.64775,298.22024c0.88944,-0.14034 1.78485,-0.26055 2.6908,-0.36111c-0.20056,-0.13577 -0.40365,-0.26467 -0.60996,-0.38474c-0.36093,-0.21005 -0.72833,-0.41587 -1.10148,-0.61646l-0.28753,0.13762c-0.14688,0.43891 -0.37763,0.85554 -0.69183,1.22468zM327.76887,308.31439c-0.29998,-0.0079 -0.59906,-0.05187 -0.8902,-0.13176c0.07875,0.20304 0.15629,0.40669 0.23168,0.61097c0.2167,-0.16085 0.43636,-0.32054 0.65852,-0.4792z" fill="#9f4d00"></path>
        <path d="M322.40954,227.25113c-1.75274,2.61415 -3.91864,4.98113 -6.34067,6.95817c-0.81676,0.6667 -9.79789,6.16161 -10.59799,6.93673c-0.82965,0.80376 -0.83593,2.19086 -1.54793,3.10046c-1.98649,2.53777 -4.91179,4.2272 -6.93925,6.73235c-1.66724,2.06005 -2.68884,4.73945 -4.00266,7.0113c-1.55006,2.68034 -5.00263,6.75741 -5.70637,9.91429c-1.48216,6.64882 2.21803,15.59971 4.9225,21.47689c3.33284,3.37098 6.50081,7.37272 10.10932,10.4205c2.68724,2.26967 5.69521,4.1906 8.12249,6.73638l2.83247,1.42356c0,0 3.29941,1.72136 1.57804,5.02076c-0.45677,0.87552 -1.02465,1.39749 -1.61253,1.69193c-0.85907,3.223 -2.61885,7.6801 -2.42538,10.65996c0.2964,4.56512 4.28792,8.22814 7.14616,11.19756c2.2243,2.31083 5.5328,6.04051 9.05561,6.74507c1.56689,0.31338 3.22358,-0.26585 4.79368,0.03105c1.55484,0.29401 2.84533,1.68532 4.42749,1.71258c1.58213,0.02725 2.91433,-1.35722 4.48377,-1.55908c2.22717,-0.28648 4.50603,0.38351 6.73554,0.11595c3.1935,-0.38324 6.2351,-1.66506 9.19748,-2.91791c4.23521,-1.79114 7.18602,-5.47223 11.18941,-7.78144c1.0904,-0.9924 2.51821,-1.70957 3.2712,-2.97718c0.63182,-1.06365 0.25377,-2.48478 0.66614,-3.65116c0.93887,-2.65563 3.47246,-4.59042 4.2701,-7.29181c0.79712,-2.69963 0.8627,-10.41619 0.22676,-13.16849c-0.55703,-2.41087 -4.0344,-4.83732 -5.21613,-6.48677c-0.61896,-0.86394 -0.52841,-2.15097 -1.24627,-2.93465c-2.83904,-3.0994 -9.90741,-4.73431 -13.63074,-6.08357c-0.95794,-0.34714 -1.61948,-1.41598 -2.62799,-1.56114c-1.02035,-0.14685 -1.99118,0.539 -2.99996,0.75121c-5.33772,1.12285 -11.09239,2.05398 -15.98596,4.45715l-1.12978,-0.35976c-1.7751,2.6471 -4.73866,1.10094 -4.73866,1.10094c-6.70855,-3.5 -12.28569,-6.91502 -18.11131,-11.65577c-4.1322,-3.36269 -6.1693,-2.16688 -7.14819,-8.4581c-0.26332,-1.69232 0.71854,-3.35458 0.91442,-5.05602c0.23314,-2.02516 -0.48593,-4.25441 0.37037,-6.10439c0.95042,-2.0533 2.94278,-3.47636 4.71524,-4.88267c2.19682,-1.74301 5.25319,-3.1546 8.12953,-4.4422c0.94885,-1.9992 3.42088,-1.95673 3.42088,-1.95673l0.9459,2.08325c1.51558,-0.49038 3.09285,-0.87727 4.2105,-1.95708c0.62235,-0.60127 0.65122,-1.60486 1.02827,-2.38376c1.02,-2.10711 4.31086,-6.15537 4.00113,-8.72104c-0.25277,-2.09383 -2.00146,-3.71481 -2.91204,-5.61714c-1.75487,-3.66622 -2.75883,-5.96151 -5.4802,-8.82654c-0.00775,0.01212 -0.01551,0.02424 -0.02328,0.03636l0.55069,0.65608c0,0 -0.37842,-0.00652 -0.89179,-0.13607zM319.97812,261.43885c-1.09546,0.60451 -2.188,1.21488 -3.29343,1.79992c-0.76674,0.40579 -4.70528,1.82993 -5.14372,3.12619c-0.42758,1.26424 0.32638,2.67072 0.19632,3.99895c-0.11232,1.14702 -0.86243,2.18306 -0.91441,3.3344c-0.08026,1.77713 4.39962,3.50309 4.43603,3.5321c4.79524,3.82098 9.26765,6.72522 14.52248,9.59067c1.42408,-1.21328 2.80078,-0.99666 3.75091,-0.55655c4.95358,-2.00619 10.46028,-3.26602 15.67776,-4.11232c1.81139,-0.29382 3.62642,-1.00545 5.44853,-0.78772c1.48369,0.17729 2.63686,1.43564 4.04952,1.92265c4.92775,1.69881 12.54302,3.99596 16.44717,7.90945c1.02382,1.02627 1.151,2.68786 2.00553,3.85884c2.13913,2.93129 5.3696,5.36631 6.31008,8.87114c0.90175,3.36046 0.66948,13.79951 -0.29519,17.14147c-0.4011,1.38957 -3.69675,5.68884 -4.41024,7.71813c-0.53954,1.53454 -0.28279,3.37128 -1.16277,4.73932c-1.35041,2.09937 -3.52881,3.5315 -5.29321,5.29725c-4.57605,2.63952 -7.7965,6.49233 -12.67497,8.65143c-0.3608,0.15968 -10.84716,3.43344 -11.12512,3.46962c-2.22672,0.28982 -4.50664,-0.38865 -6.73554,-0.11595c-1.9548,0.23917 -3.70841,1.66856 -5.67749,1.63465c-1.96909,-0.03392 -3.67978,-1.47943 -5.61786,-1.8292c-1.74235,-0.31445 -3.58487,0.25703 -5.30961,-0.14293c-5.02718,-1.16579 -9.20207,-5.30768 -12.57389,-8.78684c-4.36101,-4.49981 -8.70237,-9.35384 -9.22878,-16.0346c-0.29384,-3.72917 1.81989,-9.272 2.72495,-13.10562l-0.11745,-0.06294c-2.56697,-2.62525 -5.68666,-4.64689 -8.48436,-7.02472c-4.06242,-3.45273 -7.72886,-7.97392 -11.4042,-11.84696c-3.84165,-7.80388 -7.94324,-18.62846 -6.02376,-27.5587c0.83578,-3.88845 4.51192,-8.40841 6.45781,-11.77321c1.85407,-3.20603 2.15054,-4.85142 4.67773,-7.9987c1.95879,-2.4394 4.85304,-4.02962 6.76385,-6.50679c0.82806,-1.07348 0.95969,-2.63609 1.93573,-3.57705c5.85299,-5.64263 13.60227,-7.30365 17.44406,-14.94784c0,0 1.72135,-3.29942 5.02075,-1.57807c0.18417,0.09608 0.35269,0.19708 0.50675,0.30215c0.33812,-0.0489 0.56143,-0.04504 0.56143,-0.04504l4.29616,1.16413c4.17827,4.40302 6.38895,9.0943 8.86781,14.59505c0.68169,1.51271 1.83081,2.91938 1.96566,4.5731c0.35676,4.37558 -4.01901,14.19592 -7.25084,17.31833c-0.54443,0.526 -6.65102,3.39529 -7.77251,3.93211c0,0 -1.92532,0.92159 -3.55765,-0.08929z" fill="#000000"></path>
      </g>
      <g stroke="none" stroke-width="0.5">
        <path d="M392.50717,231.01727c-3.59199,11.39282 -1.39506,22.07091 1.83941,33.67748c1.60249,5.75036 2.74092,13.01025 6.78709,17.73791c1.0947,1.27907 2.85749,1.76991 3.97298,3.02856c3.0096,3.39588 5.33595,8.48215 7.42088,12.6877c-0.00742,0.03366 -0.01428,0.0673 -0.02064,0.10063l-0.11735,0.03001c0,0 0.01875,0.12053 0.06952,0.31418c-0.18014,2.04193 1.57181,3.38107 1.57181,3.38107c4.98377,3.53442 3.53819,4.83274 5.28829,10.59983c0.74424,2.45247 2.68148,4.3835 3.39315,6.84684c2.68295,9.28675 4.80605,18.94662 4.48544,28.80041c-0.079,2.42795 0.115,4.86723 -0.00715,7.29316c-0.27831,5.52694 -3.97549,11.94387 4.00256,14.6751c4.23287,1.4491 10.74324,-2.10775 15.53419,-1.21592c1.70506,0.27049 3.97719,-0.41944 5.08812,0.98068c0.50697,0.63895 0.78747,1.78497 0.50046,2.56295c-0.24489,0.66381 -1.12558,0.78194 -1.71274,1.12749c-2.51564,1.48059 -6.34161,4.41935 -9.16154,4.93457c-3.55888,0.65023 -9.72417,-1.82143 -13.36366,-2.41524c-3.29148,-0.53704 -6.66593,0.141 -9.9905,0.34477c-4.6423,0.28453 -8.12993,-1.02836 -12.87332,-0.21902l-4.29231,-0.39933c0,0 -0.16729,-0.01431 -0.43204,0.00121c-1.71712,-1.65758 -4.00004,-0.37967 -4.00004,-0.37967l-0.53205,1.39076c0.66996,-2.47201 -1.19195,-5.31742 -1.61185,-8.02234c0.37114,-2.38169 1.6251,-4.51831 2.16348,-6.86369c1.86541,-8.12633 2.28883,-17.46549 3.13669,-25.79461c0.29062,-2.85494 2.39515,-5.37599 2.30034,-8.24579c-0.25744,-7.79226 -9.12102,-17.63512 -15.22027,-20.91211c-1.5308,-0.82246 -3.36817,-0.8143 -4.91424,-1.60387c-1.70847,-0.8725 -2.89201,-2.80979 -4.7336,-3.2875c-1.75127,-0.45429 -3.52775,0.692 -5.33033,0.71785c-1.40078,0.02008 -2.7441,-0.83111 -4.12252,-0.56557c-1.46226,0.28169 -7.21703,3.94802 -8.43376,4.6976c-0.65311,1.39583 -3.74232,7.75818 -4.25087,9.50872c-1.41825,4.88183 -0.90504,10.37153 -2.31454,15.24076c-0.46193,1.59577 -1.66537,2.9538 -1.83269,4.6138c-0.78098,7.74825 3.66566,16.01978 5.77439,23.01157c2.52691,8.3783 1.83502,16.84484 0.56285,25.30665c0,0 -0.06637,0.41454 -0.0589,0.81448c-7.87203,5.91542 -18.49561,10.70275 -27.50157,13.93816c-2.20992,0.79392 -4.67051,-0.06874 -7.0029,-0.01544c-2.36632,0.05407 -4.80965,0.99176 -7.09674,0.34458c-1.07043,-0.3029 -3.01436,-0.52094 -2.91869,-1.69308c0.10774,-1.31986 5.61727,-4.84094 6.41669,-5.6425c4.29986,-1.99668 8.22753,-2.88625 9.84981,-8.94941c0.75724,-2.83016 -2.8545,-6.01189 -3.55246,-8.5896c-0.53008,-1.95771 -0.39491,-4.07908 -0.93924,-6.03238c-1.14047,-4.0925 -2.86412,-7.4705 -3.01779,-12.01339c-0.29819,-8.8153 0.50689,-15.70889 2.90828,-24.07646c0.67349,-2.34674 0.03935,-5.06839 1.02586,-7.28674c1.21781,-2.73845 2.87506,-5.36821 3.52555,-8.30392c4.97284,-12.09761 6.44839,-25.15794 9.41443,-37.94415c0.86093,-3.71136 2.17372,-7.46045 2.00988,-11.27882c-0.1705,-3.9737 -0.75335,-7.96637 -1.82243,-11.77869c-0.81017,-2.88905 -2.7669,-5.31024 -3.62191,-8.18467c-0.50914,-1.71167 -0.18449,-3.68338 -0.92951,-5.29464c-0.01694,-0.03665 -0.03426,-0.07304 -0.05195,-0.10916c0.00151,-0.00899 0.00222,-0.01366 0.00222,-0.01366c0.32142,-2.13756 -0.24122,-4.56723 0.77457,-6.44388c2.51433,-4.64517 7.96051,-6.09238 12.38256,-6.84383c4.17389,-0.70928 8.84133,-2.2275 13.06172,-2.33797c4.00425,-0.10482 7.95171,1.83659 12.06569,1.62566c6.31355,-0.32371 12.0678,-1.9705 17.98491,0.22668c0.34243,0.83324 1.05748,1.94104 2.46828,2.19525z" fill="#e36f00"></path>
        <path d="M335.7646,252.76331c-0.53725,0.25824 -0.96876,0.3338 -0.96876,0.3338l-5.27181,-4.17206c1.32834,-6.53109 -4.07091,-7.5854 1.33134,-14.4728c3.08204,-3.92936 10.06296,-3.82059 14.33682,-4.54391c2.60558,-0.44098 4.93979,-2.08818 7.54186,-2.55193c7.77207,-1.38516 15.99841,-0.01495 23.84313,-0.44755c2.75499,-0.15192 5.49286,-0.69452 8.17049,-1.39957c1.84281,-0.48525 3.73015,-2.73148 5.42876,-1.83063c6.84771,3.6316 4.1241,7.22897 2.48984,11.5806c0.80151,4.20967 2.16635,8.54785 3.26666,12.69817c0.42867,1.61694 1.71514,2.95486 1.88432,4.62502c0.30034,2.96521 1.69295,7.08288 -0.51131,8.93046c-2.15382,1.8053 -5.5529,-0.57232 -8.06646,-1.7407c-3.03925,-1.41274 -4.982,-7.0553 -8.95445,-7.37428c-1.33039,-0.10683 -2.59367,0.76091 -3.9265,0.82466c-1.58004,0.07559 -3.14853,-0.47093 -4.72915,-0.41062c-3.06683,0.11702 -6.01713,1.46898 -9.08381,1.59065c-2.69208,0.10681 -5.37298,-1.56977 -8.02153,-1.04671c-1.48416,0.29311 -2.64404,1.7058 -4.13387,1.9644c-3.45612,0.5999 -7.0378,-0.02083 -10.49074,0.59935c0,0 -3.54839,0.62135 -4.13343,-3.14728c-0.00047,-0.00302 -0.00094,-0.00604 -0.00139,-0.00906z" fill="#9f4d00"></path>
        <path d="M354.44725,344.65321l0.00559,0.95354c4.26525,8.59292 6.44548,17.49113 7.89223,27.09448c0.2727,1.81018 0.36061,3.66039 0.79653,5.43416c0.44545,1.81256 2.23457,3.44688 1.83443,5.27131c-0.92224,4.20496 -7.82657,8.68199 -11.15235,10.5627c-12.87528,7.28087 -26.72797,7.94343 -41.06766,9.40942c-1.74007,-2.4905 -5.32118,-4.37208 -5.22021,-7.47152c0.08304,-2.5489 3.47454,-3.64099 5.6196,-4.78752c4.14466,-2.21531 9.71274,-0.13727 13.66662,-3.3061c2.48602,-1.99243 7.28752,-6.72388 9.1748,-9.51977c3.47566,-5.14893 4.03558,-12.72717 5.75388,-18.55218c1.93281,-6.55221 5.20261,-12.31399 6.16894,-19.1847c0,0 0.56707,-3.77172 4.11836,-3.16946c3.5513,0.60227 2.98423,4.37398 2.98423,4.37398c-0.15534,0.98428 -0.34985,1.94642 -0.57499,2.89164z" fill="#9f4d00"></path>
        <path d="M397.41628,344.10775c0.26711,-0.04677 0.51743,-0.06867 0.75197,-0.06917c-0.85207,-4.68279 -1.04047,-9.55383 -0.69482,-14.35105c0,0 0.29303,-3.80681 3.87736,-3.49559c3.58433,0.31122 3.2913,4.11802 3.2913,4.11802c-0.78454,9.46251 0.90569,19.58446 7.13038,26.63384c1.44001,1.6308 3.49381,4.38553 5.54058,5.31658c1.21989,0.55491 2.75703,0.08075 3.9147,0.76981c1.34136,0.79838 2.01947,2.49372 3.23914,3.48817c1.49823,1.22158 4.16422,1.24041 4.85187,3.1088c2.20115,5.98074 -1.62631,10.54327 -6.85056,11.24772c-1.69477,0.22853 -3.12692,-1.52142 -4.79026,-1.93529c-3.80526,-0.94683 -8.68548,-0.99825 -12.58184,-1.33655c-3.08794,-0.56977 -12.91327,1.79917 -14.68395,-0.00183c-1.88742,-1.91975 -0.73671,-5.51325 -0.74702,-8.28879c-0.02479,-6.67239 4.2369,-13.06785 5.1593,-19.62639l-0.37149,-1.18829c0,0 -0.58504,-3.76863 2.96335,-4.38999zM396.03178,371.04403c-0.34939,0.26245 -0.68742,0.52458 -0.74602,0.93914c-0.07181,0.50805 0.2909,-0.25887 0.74602,-0.93914z" fill="#9f4d00"></path>
        <path d="M390.02098,228.89598c-5.91711,-2.19718 -11.65471,-0.54799 -17.96826,-0.22427c-4.11398,0.21093 -8.05021,-1.73118 -12.05446,-1.62638c-4.22039,0.11047 -8.87593,1.62583 -13.04983,2.33511c-4.42205,0.75146 -9.85637,2.19337 -12.3707,6.83854c-1.01579,1.87665 -0.45008,4.30449 -0.77151,6.44205c0,0 -0.0007,0.00466 -0.00221,0.01366c0.01768,0.03612 0.03501,0.07251 0.05195,0.10916c0.74502,1.61125 0.42195,3.58192 0.93109,5.2936c0.85501,2.87444 2.81281,5.29489 3.62298,8.18394c1.06908,3.81234 1.65736,7.80082 1.82787,11.77453c0.16384,3.81837 -1.13898,7.5572 -1.9999,11.26856c-2.96604,12.78621 -4.42577,25.78253 -9.3986,37.88016c-0.6505,2.93574 -2.31048,5.55472 -3.52829,8.29316c-0.98651,2.21833 -0.35567,4.93162 -1.02916,7.27837c-2.40139,8.36757 -3.21815,15.24306 -2.91995,24.05835c0.15367,4.54289 1.86989,7.91347 3.01037,12.00597c0.54434,1.9533 0.40596,4.07207 0.93606,6.02978c0.69795,2.57769 4.30411,5.75553 3.54687,8.58569c-1.62228,6.06315 -5.62605,7.08234 -9.92591,9.07901c-0.79942,0.80156 -6.22872,4.19583 -6.33645,5.5157c-0.09568,1.17214 1.84631,1.3888 2.91674,1.69171c2.28709,0.64718 4.72677,-0.29282 7.09309,-0.34689c2.3324,-0.05328 4.78887,0.80711 6.99879,0.01318c9.00596,-3.23541 19.61167,-8.02897 27.48368,-13.94438c-0.00745,-0.39994 0.03229,-0.66435 0.03229,-0.66435c1.27218,-8.4618 1.95709,-16.93013 -0.56983,-25.30843c-2.10873,-6.99178 -6.57855,-15.27575 -5.79756,-23.02401c0.16732,-1.65999 1.36844,-3.01999 1.83036,-4.61575c1.40951,-4.86922 0.87715,-10.38502 2.2954,-15.26685c0.50856,-1.75052 3.5914,-8.15544 4.2445,-9.55129c1.21673,-0.74959 7.00991,-4.47406 8.47218,-4.75574c1.37841,-0.26554 2.76889,0.5787 4.16967,0.55862c1.80258,-0.02585 3.61719,-1.14966 5.36844,-0.69537c1.84158,0.47772 3.04233,2.44783 4.7508,3.32035c1.54607,0.78957 3.38555,0.79413 4.91635,1.61659c6.09925,3.27699 14.95333,13.16519 15.21076,20.95744c0.09481,2.86981 -2.01832,5.40338 -2.30894,8.25833c-0.84786,8.32915 -1.29193,17.68521 -3.15734,25.81153c-0.53839,2.3454 -1.79753,4.48455 -2.16866,6.86624c0.41991,2.70492 2.28045,5.55092 1.61049,8.02292l0.47845,-1.53254c0,0 2.27957,-1.27633 3.99669,0.38124c0.26475,-0.01553 0.43167,-0.00103 0.43167,-0.00103l4.28902,0.4011c4.7434,-0.80934 8.22245,0.50936 12.86476,0.22483c3.32457,-0.20377 6.69367,-0.87714 9.98516,-0.34012c3.63949,0.5938 9.80031,3.07012 13.35919,2.4199c2.81992,-0.51522 6.64145,-3.44838 9.15709,-4.92898c0.58714,-0.34558 1.46704,-0.46257 1.71193,-1.12637c0.28701,-0.77799 0.123,-1.83436 -0.38397,-2.47332c-1.11093,-1.40015 -3.38403,-0.70877 -5.08911,-0.97926c-4.79095,-0.89182 -11.307,2.67213 -15.53987,1.22304c-7.97805,-2.73124 -4.38948,-9.24805 -4.11117,-14.77499c0.12215,-2.42594 -0.0752,-4.86025 0.0038,-7.2882c0.32062,-9.85379 -1.81304,-19.48625 -4.49599,-28.77302c-0.71167,-2.46335 -2.65003,-4.38556 -3.39427,-6.83803c-1.7501,-5.76709 -0.304,-7.04867 -5.28777,-10.58309c0,0 -1.75091,-1.3332 -1.57077,-3.37515c-0.05078,-0.19365 -0.06941,-0.31365 -0.06941,-0.31365l0.11735,-0.03001c0.00635,-0.03333 0.01324,-0.06681 0.02067,-0.10048c-2.08494,-4.20554 -4.40207,-9.26845 -7.41166,-12.66433c-1.11548,-1.25866 -2.87342,-1.74229 -3.96812,-3.02137c-4.04617,-4.72764 -5.16442,-11.96929 -6.76691,-17.71965c-3.23447,-11.60659 -5.41626,-22.27775 -1.82425,-33.67058c-1.4108,-0.25423 -2.12321,-1.36123 -2.46564,-2.19448zM328.22758,232.63155c4.55741,-8.73662 13.90907,-10.15067 22.09258,-11.58368c0.72157,-0.12635 9.24117,-1.63302 9.65982,-1.64153c3.94112,-0.0802 7.78827,1.87734 11.77846,1.63273c8.1879,-0.50192 14.99929,-2.10394 22.81618,1.58084l1.51557,2.73312c0.66465,-0.20056 1.4794,-0.17895 2.45246,0.28828c3.27697,1.57343 1.79547,5.0538 1.79547,5.0538c-4.74027,10.88374 -2.15995,21.02694 0.87334,31.91163c1.26378,4.53494 1.93798,11.17087 5.288,14.85428c1.13071,1.24324 2.86116,1.75425 3.96812,3.02137c3.40622,3.89904 6.04005,9.46315 8.39436,14.20594l0.45264,1.93184c1.26594,0.85659 2.58873,1.65127 3.50812,2.88527c2.17604,2.92063 2.2142,7.06859 3.24243,10.6293c0.71138,2.46347 2.64983,4.3857 3.3943,6.83811c2.4718,8.14259 4.91727,17.46479 5.25134,26.18712c0.16489,4.30517 -0.17632,8.6172 -0.40732,12.91894c-0.07441,1.38572 -0.32526,2.75841 -0.60739,4.11364c-0.19123,0.91857 -1.01493,2.91669 -0.13397,2.8187c5.32177,-0.59199 8.88719,-2.39683 14.35698,-1.5347c7.08177,1.26068 13.17249,3.2237 11.14808,13.45688c-0.79065,3.99668 -8.17167,7.3194 -11.32119,8.82742c-1.7899,0.85702 -3.5216,2.01554 -5.46011,2.34646c-5.9086,1.00866 -12.47934,-3.31494 -18.40763,-3.01752c-1.87041,0.09384 -3.66912,0.89509 -5.53944,0.99097c-4.91864,0.25216 -7.97246,-1.10481 -12.86468,-0.22483l-5.16928,-0.42011c0,0 -1.01082,-0.08776 -1.91499,-0.74019l-4.53303,1.57617c-4.1553,-5.75841 -5.56971,-8.176 -6.67579,-15.30093c0.44449,-3.01641 1.70275,-5.83569 2.39776,-8.79825c1.82965,-7.79909 2.06265,-16.80815 2.97992,-24.81295c0.17134,-1.49522 0.26287,-3.0242 0.69967,-4.45722c0.32686,-1.07233 1.55277,-1.82184 1.55781,-2.94894c0.0115,-2.56977 -4.00154,-6.99018 -5.44583,-8.62584c-3.78669,-4.2884 -5.88542,-4.47221 -10.6893,-7.04504c-1.21689,-0.65174 -1.86288,-2.37229 -3.18526,-2.72242c-1.23224,-0.32628 -2.44617,0.85099 -3.71544,0.89529c-1.02648,0.03582 -2.00029,-0.80912 -3.01773,-0.66036c-1.64252,0.24016 -2.88187,1.75772 -4.40472,2.4541c-0.78036,2.20585 -1.93403,4.26072 -2.59285,6.51086c-1.42353,4.86198 -0.86398,10.39164 -2.29541,15.26689c-0.3559,1.21214 -1.4367,2.15584 -1.58823,3.41531c-0.74207,6.16799 3.8494,14.00757 5.48393,19.59524c2.80267,9.58099 2.31804,19.18547 0.86445,28.88209c0.16078,0.35146 0.28608,0.76555 0.36177,1.2531c0.58504,3.76863 -2.96335,4.38999 -2.96335,4.38999l0.38968,-0.47693c-8.10075,6.18358 -17.473,9.43453 -26.57509,13.60378c-2.94849,1.35057 -6.01977,2.80117 -9.22832,2.93438c-1.21211,0.05032 -2.38085,-0.63717 -3.5936,-0.60946c-5.84997,0.13366 -17.10417,1.49093 -17.21731,-8.75256c-0.02698,-2.44207 1.29849,-4.80069 2.68518,-6.74891c1.72145,-2.41853 4.80401,-3.32926 6.89944,-5.38818c0.1658,-0.07536 6.2428,-2.48474 6.74418,-3.75003c0.21717,-0.54806 -1.00328,-0.61463 -1.31695,-1.10716c-0.78724,-1.23621 -1.51674,-2.55518 -1.92476,-3.98329c-0.55693,-1.94931 -0.39172,-4.07651 -0.93606,-6.02983c-1.31766,-4.72829 -3.1734,-8.91459 -3.37923,-14.12747c-0.37716,-9.55251 0.5244,-17.48832 3.21732,-26.56605c0.88988,-2.99975 -0.00763,-4.88345 1.26632,-7.98856c0.98655,-2.40463 2.85029,-4.51514 3.18457,-7.10897l-0.17546,-0.054c0,0 -0.42739,-2.75309 1.66401,-3.94106c3.6205,-9.46115 5.42981,-19.91845 7.29672,-29.92807c0.79888,-4.28328 2.68015,-8.7794 2.42245,-13.19189c-0.40851,-6.99471 -3.20944,-11.51143 -5.08198,-17.83689c-0.68606,-2.31755 -1.15797,-4.96287 -2.80051,-6.65367c0,0 -2.45505,-2.79104 0.17287,-5.39847c0.68416,-0.67882 1.35659,-0.99175 1.97705,-1.08328c0.33775,-2.15143 0.71929,-4.38113 0.90885,-4.74454z" fill="#3e1e00"></path>
      </g>
      <g stroke="none">
        <path d="M336.08937,75.39467c0.4124,2.23739 1.91381,2.89764 3.05967,3.06574c0.00834,0.06449 0.01486,0.09985 0.01486,0.09985c1.46975,7.59126 1.90458,15.92365 0.81314,23.65587l0.45483,3.4786c0,0 0.70141,3.75946 4.46121,3.06645c2.38308,-0.43925 2.98295,-2.11029 3.09858,-3.27537c0.03348,0.00598 0.05166,0.00852 0.05166,0.00852c3.46252,0.4473 6.99424,-0.30181 10.478,-0.53091c2.5736,-0.16926 5.09628,1.16787 7.67397,1.08072c6.76307,-0.22866 13.885,-0.50853 20.28118,-3.00181c0.55224,0.22459 1.23637,0.32161 2.07793,0.18989c0.76327,3.59339 4.42769,2.92341 4.42769,2.92341l-0.55194,-0.30932c4.72454,1.34577 9.57537,1.04349 14.16059,2.39167c4.93081,1.4498 10.90425,4.144 15.399,6.64013c6.54695,3.63581 9.64337,9.25192 12.81262,15.63944c2.1325,4.298 4.61585,8.48921 6.01466,13.12696c2.96027,9.81474 2.53364,20.14074 4.25184,29.95525c1.69319,8.86385 1.51968,18.3685 0.25528,27.35117c-0.41631,2.95766 -0.17834,7.93209 -1.39348,10.64349c-1.74155,3.88597 -4.63439,7.11828 -7.2127,10.3246c-2.79483,3.47557 -4.35025,7.812 -6.88249,11.4833c-2.76153,4.00371 -5.55505,7.48222 -8.12148,11.31513c0.28268,-6.28565 -0.46089,-12.42377 -1.73192,-19.31948c-1.07731,-5.84474 -1.665,-11.28568 -4.50274,-16.5676c0,0 -0.57426,-1.14905 -1.87414,-1.70022c-0.78944,-0.73726 -1.72208,-1.00655 -1.72208,-1.00655l-5.73161,-0.31804c-1.85738,1.17172 -3.71897,2.34745 -5.57634,3.51915c-3.23689,2.04416 -5.95571,4.97979 -9.44793,6.54839c-1.40722,0.63207 -3.10077,0.30015 -4.56393,0.78893c-1.2231,0.40861 -2.15677,1.49563 -3.39074,1.87019c-5.70619,1.7321 -12.02511,1.63029 -17.77721,3.24322c-2.26847,0.63609 -4.31812,2.0285 -6.63525,2.45459c-2.14094,0.39368 -4.39598,-0.42749 -6.53667,-0.03239c-1.23946,0.22876 -2.06359,1.61589 -3.30251,1.84773c-1.45612,0.27246 -2.95245,-0.50523 -4.43024,-0.40179c-7.0344,0.49239 -13.86036,1.9316 -20.84609,2.57667c-5.7623,0.5321 -11.58318,-0.83577 -17.22412,-0.52771c-5.26267,0.2874 -8.75606,1.06054 -14.00952,0.33359c-6.43789,-1.86081 -14.29705,-2.82859 -19.97627,-6.75816c-4.18443,-2.89528 -9.13601,-8.89714 -11.34249,-13.46344c-1.74048,-3.60189 -1.94544,-7.78394 -3.31285,-11.54334c-2.9172,-8.0202 -5.00845,-16.77333 -5.87432,-25.32847c-0.70838,-6.99899 -0.13466,-13.67101 -1.30804,-20.64119c0.34625,-3.43569 -0.12257,-7.79188 1.88144,-10.65031c2.49118,-3.55329 8.36459,-5.48056 12.02758,-7.50554c5.04934,-2.7914 11.15253,-6.06663 16.60309,-7.89836c3.09246,-1.03927 6.53079,-0.75346 9.6275,-1.78002c7.36307,-2.44085 15.87329,-4.39334 22.77118,-8.09932c2.25848,-1.24562 4.52729,-2.49957 6.78576,-3.74523l1.25443,-0.03248c0,0 1.50278,-0.27875 2.43336,-1.42838c0.60918,0.94291 1.75306,1.89754 3.81299,1.51785c3.75981,-0.69302 3.07459,-4.45592 3.07459,-4.45592c-0.25713,-1.39498 -2.00291,-10.94472 -2.15331,-11.42223c-0.06312,-0.20042 -0.15539,-0.3888 -0.26497,-0.56986c0.07991,-0.70581 -0.01868,-1.24324 -0.01868,-1.24324l-0.66481,-3.60955c-0.32455,-1.72656 0.186,-3.67716 -0.93156,-5.03265c-0.07293,-0.08846 -0.15131,-0.16845 -0.23485,-0.24084c-0.00141,-0.0231 -0.0447,-0.19328 -0.04618,-0.21638l0.11717,-0.04674l-0.1052,-0.22071c-0.00373,-0.04636 -0.04921,-0.23986 -0.05321,-0.2862c0.31323,-0.18436 3.26159,-1.86032 1.513,-5.03068c-1.45822,-2.64391 -3.84856,-2.04926 -4.79098,-1.68187c-0.83542,-0.66556 -1.941,-0.98024 -3.07391,-0.77142c-1.20606,0.2223 -2.17171,0.98688 -2.69696,1.99663c-6.13571,-1.54401 -10.87573,-12.08742 -12.40429,-17.00914c-1.64106,-5.28398 -0.58341,-6.73872 1.99872,-11.12343c2.45551,-4.16966 1.9552,-5.88665 5.82244,-8.81914c2.36892,-1.79633 6.46517,-2.06142 9.06421,-2.53781c6.63308,-1.21586 11.14945,-1.64321 16.62648,2.27492c7.99423,2.94242 12.21084,18.04839 6.8745,25.47532c-1.57016,2.18531 -3.9082,3.69385 -5.83951,5.56763l-0.43667,-0.57237c0,0 -3.75622,0.69269 -3.06321,4.45249z" fill="#e36f00" stroke-width="0.25"></path>
        <path d="M330.36517,165.0079c-0.75019,0.13828 -1.37828,0.09928 -1.90313,-0.05174l-0.55297,0.30497l-0.1371,-0.24858l-0.42297,0.50111c-7.91478,1.50799 -13.68964,6.15335 -21.414,7.72657c-0.05577,0.01211 -0.11258,0.02349 -0.17043,0.03415c-1.30577,0.24068 -2.24163,-0.05572 -2.90703,-0.54517c-0.69453,-0.44717 -1.30511,-1.21586 -1.54579,-2.52162c-0.0031,-0.0168 -0.0061,-0.03355 -0.00903,-0.05023c-1.98035,-10.98307 -8.63646,-23.5268 0.02939,-33.96828c2.92018,-3.51852 6.35894,-4.64584 10.25108,-6.43964c1.63946,-0.7556 3.11129,-2.26129 4.91645,-2.27084c5.86511,-0.03107 13.01003,6.45101 15.30873,11.33434c3.00072,6.3747 1.8898,14.66177 1.46258,21.39304c-0.00109,0.02669 -0.00248,0.05333 -0.00413,0.0799l0.16511,0.26922c0,0 0.69302,3.75981 -3.0668,4.45283zM324.80836,141.88952c-0.81747,-1.89709 -5.60324,-6.89202 -7.93311,-6.77387c-0.78814,0.03996 -1.1679,1.0849 -1.85893,1.466c-2.4229,1.33627 -5.7619,2.04335 -7.66863,4.32741c-1.74096,2.08549 -1.90084,5.1046 -2.52911,7.74761c-1.26417,5.31806 1.28929,10.91623 2.98177,16.24638c1.65681,-0.53922 3.24915,-1.22623 4.82974,-1.95724c0.35533,-2.5095 3.11452,-3.01808 3.11452,-3.01808l1.68234,-0.2346c2.05025,-0.81143 3.94969,-2.30264 6.15071,-2.43428c0.12679,-0.00758 0.25347,-0.01299 0.38005,-0.01634l-0.01295,-0.07025l1.91893,-0.3537c0.41074,-4.94626 0.86131,-10.48103 -1.05535,-14.92903z" fill="#262626" stroke-width="0.5"></path>
        <path d="M325.9267,156.86187l-1.92449,0.36085l0.01276,0.07046c-0.12659,0.00334 -0.25446,0.01007 -0.38123,0.01766c-2.20102,0.13165 -4.14018,1.64555 -6.19042,2.45697l-1.69465,0.23626c0,0 -2.77753,0.50734 -3.13285,3.01684c-1.5806,0.73101 -3.19168,1.41187 -4.8485,1.95109c-1.69248,-5.33015 -4.28912,-11.00332 -3.02495,-16.32138c0.62826,-2.643 0.81274,-5.71248 2.55371,-7.79797c1.90674,-2.28406 5.29631,-3.01119 7.71922,-4.34746c0.69103,-0.3811 1.08074,-1.42554 1.86888,-1.4655c2.32987,-0.11815 7.16676,4.90536 7.98424,6.80245c1.91665,4.448 1.46908,10.07346 1.05832,15.01972z" fill="#ffffff" stroke-width="0.25"></path>
        <path d="M383.37868,149.48211c-1.23372,-6.37218 -1.85669,-12.75845 -4.56697,-18.59686c-0.53626,-1.1552 -0.53199,-2.59735 -1.34817,-3.57505c-0.83307,-0.99793 -5.8656,-0.98926 -6.1847,-0.97306c-4.82601,0.24469 -7.62904,3.24582 -10.40869,7.02912c-3.93704,5.35861 -0.02471,16.20766 2.39404,21.54691c5.67078,-0.98082 10.83263,-1.58743 16.50441,-1.37574c0.82051,-0.46224 1.66091,-0.84079 2.58151,-0.88137c0.1578,-0.00696 0.31544,-0.01069 0.47287,-0.01144l-0.01869,-0.10141l0.10014,-0.01846zM356.49294,158.49134c-3.08562,-6.87163 -6.04998,-16.46146 -4.23105,-24.12797c2.71717,-11.45257 20.3545,-22.31582 30.54993,-12.51782c1.50966,1.45081 1.8687,3.74765 2.8322,5.60656c3.48032,6.71479 4.06755,14.44492 5.37927,21.86635l-0.39493,3.05758c0.72921,0.55581 1.26199,1.37418 1.44129,2.34691c0.3298,1.78929 -0.6441,3.51704 -2.24838,4.20562l-4.51795,2.05702l-0.17485,-0.38402l-0.71634,0.66436c-0.64837,-0.02828 -1.28694,-0.05088 -1.91724,-0.06777c-0.67739,0.21303 -1.38495,0.38789 -2.00415,0.67451l-3.29751,0.72387c0,0 -2.3281,0.42912 -3.65802,-1.21996c-3.63608,0.25612 -7.25324,0.74312 -11.22313,1.47486c0,0 -3.46911,0.63943 -4.35694,-2.64243c-0.99159,-0.68403 -1.46219,-1.71766 -1.46219,-1.71766z" fill="#262626" stroke-width="0.5"></path>
        <path d="M382.96016,152.57714l-0.10038,0.01872l0.01851,0.1016c-0.15743,0.00075 -0.31613,0.00557 -0.47393,0.01252c-0.9206,0.04058 -1.77001,0.42688 -2.59054,0.88912c-5.67178,-0.21171 -10.91355,0.40138 -16.58432,1.38219c-2.41873,-5.33926 -6.3567,-16.30339 -2.41964,-21.662c2.77965,-3.7833 5.6474,-6.81381 10.47341,-7.0585c0.3191,-0.0162 5.38249,-0.01638 6.21555,0.98154c0.81618,0.9777 0.82591,2.42921 1.36218,3.5844c2.71027,5.83841 3.34754,12.32574 4.58126,18.69791z" fill="#ffffff" stroke-width="0.25"></path>
        <path d="M332.50987,103.10064c-0.0038,-0.02485 -0.00757,-0.04925 -0.01128,-0.0732c-0.22954,-1.48158 -1.75208,-8.70253 -1.78006,-9.77168c-0.04352,-1.66232 0.20988,-3.34675 0.67811,-4.94234c0.30581,-1.04212 1.55524,-1.75083 1.6044,-2.83578c0.03354,-0.74034 -1.04192,-1.07893 -1.39761,-1.7291c-1.68675,-3.08317 -2.63714,-1.95131 -6.71453,-2.52372c0,0 -3.17037,-0.44507 -3.30148,-3.42182l-0.56132,-0.45101l-0.1863,0.43369l-3.19803,-1.37379c-4.80726,0.41394 -9.62909,-0.21038 -13.55154,-1.75897c0,0 -3.51276,-1.50897 -2.00377,-5.02173c1.50897,-3.51276 5.02172,-2.00377 5.02172,-2.00377c2.18389,1.06941 4.84554,0.65556 7.27466,0.54442c1.6891,-0.07728 3.44633,0.27679 5.13445,0.24741l2.58386,-0.47626c8.63922,-3.23111 11.59311,-12.31598 12.70146,-20.83121v0l0.52557,-3.74387c0.1893,-1.62344 1.41395,-3.00387 3.10525,-3.31562c1.09742,-0.20228 2.17167,0.08585 2.99723,0.70905c0.78522,-0.03591 1.38536,0.13757 1.38536,0.13757l4.91425,2.58602c0.76016,1.51368 1.97345,2.87526 2.28049,4.54103c0.93718,5.08455 -1.19535,12.0454 -4.49025,17.22391c-0.78588,3.16404 -2.23502,6.05808 -4.64262,8.15354c0.85127,0.12975 1.62828,0.54475 2.20889,1.16089l3.03024,3.12333l-0.33877,0.32867l0.99247,0.5807c1.45619,7.06722 3.1268,21.21299 -2.68928,27.19223c-1.04908,1.07852 -2.52734,1.56872 -3.9648,2.11908c-0.20114,0.67736 -0.49047,1.33639 -0.88839,1.97116c-1.22565,1.95523 -3.94938,2.38808 -5.92408,3.58212l-1.14812,-0.51816l-0.07643,0.54437l-3.74391,-0.5256c-1.62343,-0.18932 -3.00385,-1.41395 -3.31559,-3.10526c-0.32981,-1.7893 0.64409,-3.51706 2.24839,-4.20564l4.39501,-2.00103c0.2661,-0.20889 0.54982,-0.38953 0.84634,-0.54963zM336.48288,76.98255c0.02202,-0.42419 0.1147,-0.83496 0.26833,-1.21814c-0.29177,0.09896 -0.5938,0.1923 -0.90462,0.28051c0.18914,0.25881 0.40433,0.57694 0.63629,0.93764z" fill="#9f4d00" stroke-width="0.5"></path>
        <path d="M446.69136,182.01938c3.78602,0.53149 3.25453,4.3175 3.25453,4.3175l-0.53784,3.83121c-0.53947,3.84222 -1.03281,6.9886 -2.22008,10.42507c0.29455,7.50489 -0.66311,16.16412 -3.72485,21.76237c-2.49645,4.56463 -6.27694,8.41715 -8.88495,12.91627c-1.39678,2.40961 -3.65501,8.39199 -6.04126,10.2809c-0.09929,0.0786 -0.19974,0.1554 -0.30126,0.23052l0.04383,0.04517l-3.1284,3.03519c-0.52843,0.52784 -1.21664,0.90665 -2.00669,1.05227c-2.07648,0.38274 -4.07009,-0.9903 -4.45283,-3.0668c-0.0823,-0.44652 -0.08341,-0.88921 -0.0138,-1.31288l0.39114,-2.78631c-2.10376,-3.58771 -3.39719,-8.75266 -4.019,-13.46306c-1.04449,-4.23824 -1.88251,-9.02684 -2.24909,-13.17422c-0.93997,-3.63512 -1.33884,-7.47065 -1.16339,-11.195c-0.12364,-0.2716 -0.2624,-0.55356 -0.41809,-0.84814c-0.76287,0.61006 -1.54078,1.15967 -2.33222,1.65784c0.03754,1.46825 -0.77655,2.81759 -2.05339,3.48335l-3.31049,1.82584v0c-0.61344,0.32959 -1.24265,0.64718 -1.88501,0.95286c-0.60453,0.49024 -1.46576,0.73674 -2.26733,1.00871c-0.55238,0.22977 -1.11167,0.45149 -1.67637,0.6652c-3.92628,1.59176 -7.9949,2.82885 -11.89844,4.47759c-4.58903,1.93827 -6.28838,3.423 -11.5378,3.50283c-4.0582,1.00653 -6.83489,3.03122 -10.87121,4.40419c-7.60668,2.58744 -14.90258,4.36888 -23.00057,4.21421c-2.3264,-0.04443 -4.84341,0.74741 -6.97819,-0.17823c-0.22839,-0.09903 -0.4507,-0.20793 -0.66764,-0.32549l-0.04272,0.09945l-3.99849,-1.71753c-0.35744,-0.1474 -0.69029,-0.34805 -0.98691,-0.5939c-3.22114,0.40797 -6.33497,1.70571 -9.58338,1.88852c-4.67843,0.26327 -9.25477,-1.5189 -13.8998,-1.17c-0.17574,0.0132 -10.69206,2.07339 -10.97489,2.00184c-0.20072,-0.05077 -0.39867,-0.10849 -0.59419,-0.17242l-0.01912,0.13618l-3.74391,-0.52556c-1.27079,-0.14817 -2.39266,-0.93073 -2.96963,-2.07492c-2.32872,-0.20525 -4.6431,-0.60285 -6.92451,-1.3016c-3.15332,-0.9658 -5.5477,-3.5696 -8.26376,-5.44023c-1.21094,-0.83401 -2.84866,-0.89743 -4.05299,-1.74098c-4.03116,-2.82358 -4.89557,-5.8256 -9.53642,-7.7086c0,0 -3.51277,-1.50893 -2.00383,-5.0217c1.50893,-3.51277 5.0217,-2.00383 5.0217,-2.00383c1.57087,0.70171 3.29567,1.12926 4.7126,2.10513c2.42186,1.66801 3.70565,4.68659 6.14308,6.33177c1.21873,0.82259 2.84205,0.90697 4.05299,1.74098c2.03502,1.40158 3.59542,3.74559 5.98527,4.37352c7.23719,1.90154 14.19862,0.97512 21.43247,0.68051c4.44263,-0.18094 9.02914,0.28594 13.53139,-0.02721c7.77759,-0.54097 14.58124,-3.23643 22.49246,-2.77591c4.71382,0.7276 8.72317,-0.50708 13.41642,-1.38377c2.8072,-1.16048 5.6653,-2.28844 8.36438,-2.78594c0.00578,-0.00106 0.01157,-0.00213 0.01735,-0.00318c0.9847,-0.25602 1.98234,-0.4389 3.00019,-0.50281c0.51555,-0.03238 1.01723,-0.03546 1.50772,-0.01586c5.79713,-1.84396 11.4391,-3.99634 17.29757,-5.93841c8.54012,-2.83102 18.72551,-2.37575 25.40929,-9.05685l4.37541,-1.45939c0,0 3.48656,-0.64266 4.36358,2.66724c0.2953,0.20575 0.54284,0.43699 0.74095,0.65261c2.89794,0.91825 2.44604,4.13738 2.44604,4.13738c-0.04383,0.28118 -0.082,0.5652 -0.11464,0.85164c0.87099,3.04194 0.80886,5.80954 0.94364,9.58501c0.01459,0.40839 0.04155,0.82128 0.07913,1.23779c0.11407,0.39505 0.23557,0.78449 0.36415,1.16713c0.47436,1.41169 1.75802,2.5164 2.02797,3.98099c0.26995,1.46457 -0.53549,2.95433 -0.47537,4.44235c0.00232,0.05738 0.00479,0.11486 0.00742,0.17243c0.22051,0.96131 0.426,1.90671 0.59541,2.82578c0.04874,0.26442 0.2502,0.85556 0.4507,1.58982c1.42298,-1.91123 3.16996,-3.63789 4.08635,-5.82652c0.32602,-0.77864 3.59153,-8.39132 3.84613,-8.76551c2.1686,-3.18737 4.23745,-2.9893 5.69598,-6.56484c1.04973,-2.57339 1.24936,-5.44485 2.32874,-8.00595c0.06847,-0.15565 0.13467,-0.31004 0.19872,-0.46325c-0.09414,-1.66944 -0.27952,-3.27895 -0.57323,-4.7754l-0.22176,-1.20312c0,0 -0.69302,-3.75981 3.0668,-4.45283c0.03266,-0.00602 0.06511,-0.01171 0.09731,-0.01706l0.51343,-3.65738c0,0 0.53149,-3.78602 4.3175,-3.25453z" fill="#9f4d00" stroke-width="0.5"></path>
        <path d="M336.09827,75.47065c-0.69302,-3.75981 3.0668,-4.45283 3.0668,-4.45283l0.43707,0.57234c1.93131,-1.87378 4.27523,-3.38247 5.84539,-5.56779c5.33633,-7.42693 1.1229,-22.3801 -6.87133,-25.32252c-5.47702,-3.91813 -9.98206,-3.49224 -16.61514,-2.27639c-2.59905,0.4764 -6.68897,0.73989 -9.05789,2.53623c-3.86724,2.93248 -3.36128,4.64755 -5.81678,8.81721c-2.58213,4.3847 -3.6354,5.8376 -1.99434,11.12157c1.52855,4.92173 6.20881,15.32444 12.34452,16.86845c0.52526,-1.00975 1.49401,-1.77548 2.70007,-1.99778c1.13292,-0.20882 2.24115,0.105 3.07656,0.77057c0.94242,-0.36739 3.33707,-0.9632 4.79528,1.6807c1.7486,3.17035 -1.16117,4.99426 -1.47438,5.17862c0.004,0.04633 0.00786,0.09268 0.01159,0.13904l0.14678,0.36788l-0.11703,0.0467c0.00148,0.0231 0.00292,0.04619 0.00433,0.06929c0.08354,0.07239 0.1621,0.15234 0.23503,0.2408c1.11756,1.3555 0.64909,3.45312 0.97366,5.17967l0.66529,3.60941c0,0 0.09904,0.5373 0.01913,1.2431c0.10958,0.18105 0.20174,0.36947 0.26486,0.56989c0.15038,0.47752 1.89831,10.02658 2.15544,11.42156c0,0 0.69302,3.75981 -3.0668,4.45283c-2.05993,0.37969 -3.19928,-0.57723 -3.80845,-1.52014c-0.93059,1.14962 -2.429,1.42581 -2.429,1.42581l-1.25284,0.03143c-2.25846,1.24566 -4.51693,2.49127 -6.7754,3.7369c-6.89789,3.70597 -15.39127,5.6346 -22.75434,8.07545c-3.09671,1.02655 -6.53267,0.73485 -9.62514,1.77412c-5.45055,1.83173 -11.55061,5.09512 -16.59995,7.88651c-3.66299,2.02499 -9.53541,3.9444 -12.02658,7.49769c-2.00401,2.85843 -1.53503,7.20584 -1.88128,10.64153c1.17339,6.97017 0.59719,13.62576 1.30557,20.62475c0.86589,8.55514 2.94949,17.28969 5.86671,25.30989c1.36741,3.75938 1.56767,7.93421 3.30813,11.5361c2.2065,4.56631 7.14951,10.55839 11.33394,13.45367c5.67923,3.92956 13.52646,4.88797 19.96437,6.74877c5.25346,0.72696 8.73812,-0.05098 14.00079,-0.33838c5.64092,-0.30806 11.44822,1.05495 17.21054,0.52285c6.98573,-0.64507 13.79276,-2.08665 20.82716,-2.57902c1.47777,-0.10343 2.96986,0.6744 4.42598,0.40193c1.23892,-0.23182 2.05972,-1.61871 3.29918,-1.84746c2.14068,-0.39508 4.3895,0.42697 6.53043,0.03329c2.31713,-0.42609 4.36011,-1.81695 6.6286,-2.45304c5.7521,-1.61293 12.05533,-1.50479 17.7615,-3.23689c1.23397,-0.37457 2.16449,-1.45979 3.38759,-1.86841c1.46316,-0.4888 3.15337,-0.15474 4.56059,-0.78681c3.49223,-1.5686 6.2028,-4.4978 9.43969,-6.54196c1.85738,-1.17172 3.71477,-2.34341 5.57216,-3.51512l5.72945,0.32037c0,0 0.93244,0.26952 1.72186,1.00679c1.29989,0.55115 1.9892,1.80095 1.9892,1.80095c2.83774,5.28192 3.42084,10.72766 4.49815,16.57239c1.27103,6.8957 1.91437,12.91856 1.63169,19.20423c2.56643,-3.83291 5.35363,-7.30585 8.11516,-11.30957c2.53225,-3.6713 4.08205,-8.00156 6.87688,-11.47714c2.57832,-3.20632 5.46638,-6.43211 7.20793,-10.31808c1.21515,-2.7114 0.97386,-7.68027 1.39018,-10.63794c1.2644,-8.98266 1.43138,-18.47087 -0.26181,-27.33472c-1.7182,-9.81451 -1.29416,-20.11837 -4.25442,-29.93312c-1.39881,-4.63775 -3.88102,-8.81792 -6.01352,-13.11592c-3.16925,-6.38752 -6.26118,-11.98809 -12.80812,-15.6239c-4.49476,-2.49614 -10.46251,-5.17913 -15.39331,-6.62893c-4.58522,-1.34818 -9.42928,-1.03657 -14.15384,-2.38234l0.55149,0.30876c0,0 -3.66021,0.67466 -4.42348,-2.91873c-0.84155,0.13172 -1.52424,0.03611 -2.0765,-0.18847c-6.39618,2.49328 -13.50118,2.78553 -20.26427,3.01418c-2.57767,0.08714 -5.08872,-1.24491 -7.66232,-1.07565c-3.48376,0.22911 -6.99768,0.98197 -10.46019,0.53469c0,0 -0.01808,-0.00255 -0.05156,-0.00852c-0.11563,1.16507 -0.70982,2.83639 -3.0929,3.27565c-3.75981,0.69302 -4.45283,-3.0668 -4.45283,-3.0668l-0.46974,-3.63079c1.09144,-7.73222 0.67002,-15.91229 -0.79973,-23.50355c0,0 -0.00652,-0.03535 -0.01486,-0.09985c-1.14586,-0.16809 -2.64428,-0.82865 -3.05668,-3.06604zM296.71538,57.37451c-0.16917,-4.02461 1.77543,-7.98464 3.78212,-11.4774c1.06054,-1.84594 1.63374,-3.97198 2.86818,-5.70646c5.29045,-7.43341 13.6813,-9.61236 22.39572,-10.22381c6.98059,-0.4898 10.8492,0.26157 16.51024,4.03911c11.98243,5.66176 17.18432,24.85287 9.47309,36.35356c-0.19309,0.28799 -3.65439,3.6537 -5.58781,5.52722c0.41217,0.71128 0.53245,1.36379 0.53245,1.36379c1.19846,6.78062 1.79357,13.81042 1.36939,20.75477c0.60095,-0.06854 1.04085,-0.00678 1.04085,-0.00678c3.04766,0.4751 6.153,-0.44973 9.23345,-0.60719c2.5758,-0.13167 5.08616,1.19932 7.66235,1.07566c6.53124,-0.31351 14.02377,-0.16365 19.89192,-3.51722l5.64429,3.73627c0.00372,-0.00073 0.00563,-0.00108 0.00563,-0.00108l2.95772,-0.13476c4.7337,1.39143 9.42186,1.03244 14.0893,2.36399c5.38922,1.53747 12.15512,4.52817 17.03017,7.29891c14.76536,8.39191 21.44407,27.63082 24.3333,43.30574c0.1573,0.85338 2.24809,12.11404 2.28011,12.64258c0.16198,2.67432 -0.22924,5.40349 0.28677,8.03255c1.74185,9.7418 1.69374,19.93144 0.31423,29.78374c-0.50991,3.64178 -0.43588,8.98239 -1.83695,12.34919c-1.93364,4.6466 -5.41408,8.6923 -8.49395,12.48035c-2.65598,3.26668 -4.03312,7.40886 -6.41892,10.87778c-1.13567,1.65125 -2.95158,2.75775 -4.08831,4.40825c-0.85373,1.23959 -0.94637,2.90146 -1.7999,4.14118c-0.83381,1.21108 -2.3292,1.86249 -3.16592,3.07155c-1.88337,2.72144 -2.32485,6.56607 -4.91411,8.62739c-0.09905,0.07884 -0.19925,0.15588 -0.30057,0.2312l0.04315,0.04447l-3.12832,3.03514c-0.52843,0.52784 -1.21665,0.90665 -2.00669,1.05227c-2.07648,0.38274 -4.07009,-0.9903 -4.45283,-3.0668c-0.08231,-0.44653 -0.08341,-0.88921 -0.01381,-1.31288l0.52542,-3.74279l0.03941,0.00553l-0.02216,-0.1165c1.98938,-9.8478 1.53117,-17.40277 -0.27905,-27.22375c-0.88832,-4.81941 -1.13591,-9.58166 -3.4731,-13.90435c-1.47949,0.93332 -2.95898,1.86663 -4.43847,2.79995c-3.55726,2.24149 -6.62341,5.31673 -10.44271,7.07495c-1.56236,0.71925 -3.43508,0.43677 -5.06456,0.98731c-1.22172,0.41278 -2.15238,1.49799 -3.38759,1.86841c-5.93536,1.77989 -12.37286,1.75067 -18.33264,3.41605c-2.50912,0.70115 -4.80361,2.14105 -7.36551,2.61436c-1.94918,0.36012 -3.99504,-0.51413 -5.94447,-0.1553c-1.29705,0.23875 -2.17867,1.65329 -3.47619,1.88938c-1.85205,0.33698 -3.76527,-0.36807 -5.64268,-0.2302c-6.91886,0.50816 -13.66321,1.9277 -20.52298,2.55472c-5.92938,0.54198 -12.01927,-0.84397 -17.80799,-0.48663c-5.69488,0.35155 -9.99182,0.99079 -15.7615,0.17148c-7.38062,-2.13329 -16.00445,-3.33408 -22.52798,-7.81126c-5.35928,-3.67813 -11.31795,-10.78567 -14.12559,-16.68603c-1.80309,-3.78928 -2.09695,-8.14026 -3.53341,-12.08315c-3.13869,-8.61532 -5.36845,-17.99805 -6.29737,-27.18456c-0.70835,-7.00525 -0.01811,-13.6128 -1.31932,-20.58441c0,0 -0.04436,-0.24068 -0.04975,-0.61147c-0.01049,-0.37067 0.02354,-0.61303 0.02354,-0.61303c0.71463,-5.0628 0.17852,-10.07891 3.23233,-14.55551c3.27661,-4.80321 9.71944,-7.15302 14.63102,-9.85603c9.82043,-5.40449 20.31498,-8.73273 30.73284,-12.03411c6.0256,-1.90948 12.71276,-2.53951 18.24658,-5.70199c2.25846,-1.2456 4.5169,-2.49124 6.77535,-3.73687l3.55964,-0.85561c0,0 1.32349,-0.24395 2.54474,0.34286c-0.27884,-2.04116 -0.58767,-4.07461 -1.21041,-6.03065c-0.43748,-1.3742 -1.73414,-2.41947 -1.9986,-3.83716c-0.46411,-2.48793 -0.10687,-5.07028 -0.24176,-7.59689l-0.04569,-0.11452c-12.793,-0.28815 -22.07587,-17.57471 -22.53573,-28.51443z" fill="#3e1e00" stroke-width="0.5"></path>
      </g>
      <g stroke="none" stroke-width="0.5">
        <path d="M393.08962,247.44158c-0.02577,-0.41123 -0.11103,-0.69392 -0.11103,-0.69392l-0.25037,0.51539c-0.01082,-0.00288 -0.12673,0.04299 -0.13755,0.04012c1.4778,-2.69661 2.93907,-3.98926 5.23995,-6.15963c1.19388,-1.12617 2.08987,-2.84455 3.58173,-3.52861c1.82805,-0.83822 5.60724,0.63536 7.41088,0.89145c0.66672,0.09467 1.41666,-0.12363 2.00993,0.19498c1.06543,0.57217 1.72333,1.64364 2.44632,2.65056l-1.3199,1.19474c0,0 0.55194,1.83776 2.25872,2.06672c1.63666,1.82632 3.39885,3.74708 5.21183,4.96174c1.46277,0.98003 2.98214,2.11346 4.7294,2.33074c1.57424,0.19576 3.04946,-0.86925 4.6057,-1.17689c1.30747,-0.25847 2.76504,0.07232 3.95683,-0.52431c4.43047,-2.21798 3.05299,-3.44569 4.56493,-7.30599c2.13154,-5.44227 3.28243,-10.35854 4.28494,-16.16086c0,0 0.48916,-2.47532 -1.89383,-3.16295l-0.00034,-0.92263c-2.94201,-3.05673 -4.96886,-7.10714 -7.06734,-10.79678c-0.39659,-0.69731 -1.18836,-1.35704 -1.3216,-2.14811c-0.13169,-0.78188 0.50767,-1.5277 0.53769,-2.32003c0.11669,-3.07961 -0.33802,-8.70947 1.28557,-11.54889c0.41053,-0.71795 1.38982,-0.95687 1.88328,-1.62057c0.94213,-1.26714 1.92233,-4.42059 3.57698,-5.40537c1.88899,-1.12426 7.63778,-2.90492 9.8277,-2.95458c2.19135,-0.0497 4.23524,1.3718 6.42617,1.43764c0.9623,0.02891 1.92902,-0.58705 2.86722,-0.37111c1.11811,0.25735 1.99253,1.14759 2.98671,1.7203c2.66119,2.41926 6.10102,3.74167 8.43325,6.45566c1.63131,1.89834 3.30962,3.85632 4.35126,6.13225c0.72721,1.58892 0.77507,3.44288 1.51575,5.02557c0.52194,1.11528 1.86633,1.77885 2.22147,2.95791c0.35514,1.17907 -0.36814,2.4701 -0.21718,3.6922c0.15244,1.2341 0.97625,2.32979 1.11571,3.56543c0.31354,2.77806 -1.66427,6.127 -2.84925,8.32373c-1.52271,2.82282 -3.29231,6.66528 -6.6054,7.96795c-2.1626,0.85032 -5.88563,0.61036 -8.47814,0.73827c-0.35767,-0.36585 -0.8791,-0.6633 -1.63635,-0.79413c-2.8537,-0.49304 -3.35151,2.37037 -3.35151,2.37037l-0.38701,2.44259c-1.31095,2.40291 -2.03606,5.10136 -3.08071,7.63143c-1.40279,3.39744 -3.6346,6.70191 -5.34232,9.97173c-3.71424,3.39865 -9.49508,8.26474 -14.77443,8.74357c-2.50665,0.22734 -6.35972,-1.36833 -8.71396,-1.88128c-1.99544,-0.43478 -4.23108,-0.5604 -6.15339,-1.30734c-2.33766,-0.90832 -4.2917,-2.68183 -6.64382,-3.55206c-0.84305,-0.31192 -1.87465,0.01048 -2.66716,-0.41373c-0.7643,-0.4091 -6.97493,-5.77138 -7.66281,-6.21856c-2.03984,-1.32605 -4.31126,-2.37584 -6.66453,-3.05471z" fill="#e36f00"></path>
        <path d="M441.22556,228.13315c0.10752,-0.08787 0.2147,-0.18417 0.32179,-0.28656c-3.33875,-2.06959 -6.30297,-4.56413 -8.23089,-7.33171c-3.88067,-5.57082 -4.27226,-12.91926 -2.8849,-19.36148c0.04502,-0.20909 1.97022,-7.80191 2.00775,-7.85432c0.06954,-0.09714 0.14091,-0.19267 0.21394,-0.28673l-0.06565,-0.03526l1.7538,-3.26573c0.75672,-1.40907 2.51244,-1.93791 3.9215,-1.1812c1.1477,0.61635 1.71144,1.89547 1.47218,3.1102l-0.3991,2.30989c2.11098,6.39616 4.59602,10.61835 8.73445,15.87542c0.75978,0.96516 1.13284,2.25274 2.06628,3.05116c1.0949,0.93653 2.64566,1.18113 3.83409,1.99572c3.27976,2.24808 7.43331,6.5182 11.52484,7.35753c0.94309,0.19347 1.90176,-0.4014 2.86405,-0.37249c1.823,0.05477 5.54375,1.10641 7.1925,1.52269c0,0 2.80748,0.71047 2.09701,3.51794c-0.17891,0.707 -0.49081,1.19091 -0.85738,1.51924c-0.10883,0.46268 -0.27564,0.77331 -0.27564,0.77331l-1.00267,1.55293c-0.80966,0.75198 -1.61932,1.50396 -2.42898,2.25594c-4.81155,2.5223 -8.68403,2.36592 -13.13371,1.50531c-0.80706,2.52168 -3.44831,1.85332 -3.44831,1.85332c-3.63779,-1.19705 -4.16388,0.17892 -7.52733,1.95522c-3.46768,1.83136 -6.56086,4.67074 -9.40278,7.64025c-0.62995,1.6425 -1.44162,3.08676 -2.58239,3.78921c-0.19077,0.11747 -0.38553,0.226 -0.58377,0.32672l0.08471,0.1201l-3.3354,2.35267c-0.87255,0.64328 -2.07216,0.76798 -3.09066,0.22101c-1.40907,-0.75672 -1.93791,-2.51244 -1.1812,-3.9215c0.16273,-0.30301 0.37164,-0.56531 0.61337,-0.78288l2.02192,-1.90724c0.79139,-0.8705 1.5964,-1.7538 2.41831,-2.63478c0.50381,-0.82652 1.14343,-1.75345 1.65411,-3.169c1.54769,-4.28999 1.89126,-9.15627 5.63412,-12.21493zM436.0716,203.50079c0.36014,0.00473 0.72366,0.07693 1.07178,0.22221c-0.31502,-0.62591 -0.61653,-1.26102 -0.90598,-1.9086c-0.05305,0.18085 -0.1004,0.36195 -0.14044,0.54334c-0.07006,0.31733 -0.13543,0.63845 -0.19558,0.9626l0.17022,0.18046zM451.95008,224.21396c0.06531,0.2242 0.10368,0.45629 0.11353,0.69102c0.1318,-0.10653 0.26434,-0.21231 0.39785,-0.31665c-0.17062,-0.12245 -0.34109,-0.24736 -0.51138,-0.37437z" fill="#9f4d00"></path>
        <path d="M393.03126,246.72367c0,0 0.08494,0.282 0.11071,0.69323c2.35328,0.67888 4.62136,1.72258 6.66122,3.04864c0.68789,0.44717 6.89102,5.7999 7.65532,6.20901c0.79251,0.42421 1.82205,0.09979 2.6651,0.4117c2.35211,0.87023 4.2982,2.63751 6.63586,3.54584c1.92232,0.74694 4.1505,0.86845 6.14594,1.30323c2.35424,0.51296 6.195,2.10459 8.70165,1.87724c5.27934,-0.47882 11.03543,-5.34465 14.74967,-8.74331c1.70772,-3.26983 3.92204,-6.56709 5.32482,-9.96454c1.04465,-2.53006 1.75473,-5.21512 3.06569,-7.61803l0.3831,-2.43698c0,0 0.49304,-2.85369 3.34674,-2.36065c0.75724,0.13084 1.27883,0.42789 1.63651,0.79373c2.5925,-0.12791 6.31334,0.11897 8.47595,-0.73134c3.3131,-1.30268 5.08099,-5.12995 6.6037,-7.95277c1.18498,-2.19673 3.16432,-5.53361 2.85078,-8.31166c-0.13946,-1.23564 -0.96177,-2.32606 -1.11421,-3.56017c-0.15096,-1.22211 0.57406,-2.50861 0.21892,-3.68768c-0.35515,-1.17905 -1.69727,-1.83797 -2.21921,-2.95326c-0.74067,-1.58268 -0.78474,-3.43059 -1.51195,-5.0195c-1.04163,-2.27593 -2.71323,-4.2261 -4.34454,-6.12444c-2.33223,-2.71398 -5.76048,-4.02768 -8.42167,-6.44694c-0.99419,-0.57272 -1.86444,-1.46079 -2.98255,-1.71814c-0.93821,-0.21593 -1.90178,0.40139 -2.86407,0.37248c-2.19093,-0.06583 -4.22593,-1.4846 -6.41728,-1.4349c-2.18991,0.04966 -7.92456,1.83169 -9.81355,2.95594c-1.65465,0.98478 -2.62806,4.13764 -3.57019,5.40478c-0.49345,0.66369 -1.46882,0.90191 -1.87934,1.61986c-1.62358,2.83942 -1.15844,8.46594 -1.27513,11.54556c-0.03002,0.79233 -0.66525,1.53619 -0.53357,2.31807c0.13323,0.79107 0.87185,1.34788 1.26844,2.04519c2.09848,3.68964 4.15378,7.73378 7.09579,10.79051l0.00139,0.92268c2.38299,0.68763 1.94012,3.25086 1.94012,3.25086c-1.00251,5.80232 -2.21043,10.74594 -4.34198,16.18821c-1.51194,3.8603 -0.1424,5.08639 -4.57287,7.30438c-1.19178,0.59664 -2.65668,0.26326 -3.96416,0.52173c-1.55624,0.30765 -3.03784,1.36943 -4.61208,1.17367c-1.74726,-0.21728 -3.27461,-1.35632 -4.73737,-2.33634c-1.81298,-1.21466 -3.58424,-3.14498 -5.22091,-4.9713c-1.70678,-0.22897 -2.26175,-2.07116 -2.26175,-2.07116l1.31958,-1.19527c-0.72299,-1.00693 -1.38391,-2.08413 -2.44935,-2.6563c-0.59327,-0.31861 -1.34392,-0.10192 -2.01064,-0.19659c-1.80365,-0.25609 -5.58469,-1.73471 -7.41274,-0.89649c-1.49187,0.68407 -2.27839,2.36464 -3.47227,3.49081c-2.30088,2.17036 -3.76385,3.45895 -5.24165,6.15556c0.01083,0.00288 0.02164,0.00575 0.03247,0.00864l0.35561,-0.56379zM418.27899,238.45056c0,0 1.13978,1.20831 0.77781,2.65791c0.70791,0.66848 1.41946,1.33341 2.11531,2.0139c0.48265,0.47199 2.4725,3.05317 3.53722,3.07059c1.03843,0.01699 1.90196,-0.87548 2.91723,-1.09418c0.87675,-0.18886 1.82257,0.12128 2.68821,-0.11331c1.33615,-0.36212 1.55255,-4.0918 1.56541,-4.12567c1.6943,-4.46042 2.78575,-8.4641 3.66284,-13.03847c-1.23706,-0.76761 -1.40311,-1.83934 -1.30232,-2.64793c-2.66203,-3.19537 -4.90211,-6.97776 -6.7671,-10.64389c-0.64748,-1.27279 -1.60548,-2.44918 -1.87639,-3.85126c-0.22059,-1.1417 0.43847,-2.29487 0.46428,-3.45739c0.09003,-4.05518 -0.01404,-10.24415 1.96022,-14.0661c0.51773,-1.00227 1.71904,-1.4907 2.38417,-2.40183c1.66503,-2.28079 2.70336,-5.25272 5.07782,-6.78121c2.27666,-1.46554 10.06859,-3.76988 12.77431,-3.84775c1.12503,-0.03238 5.09324,1.39024 6.76649,1.43762c1.2653,0.03584 2.56569,-0.59019 3.78836,-0.26253c1.8763,0.5028 3.4545,1.77757 5.18175,2.66635c3.04185,2.76532 6.66134,4.23813 9.41887,7.34156c0.20394,0.22952 5.11797,7.22477 5.21073,7.4222c0.74305,1.58157 0.78107,3.43228 1.51195,5.0195c0.641,1.39205 2.1164,2.35263 2.5584,3.82004c0.442,1.46743 -0.2235,3.07821 -0.02295,4.59759c0.18029,1.36593 1.04095,2.59592 1.15368,3.96909c0.3286,4.00242 -1.75072,8.07921 -3.52935,11.40358c-2.30042,4.29964 -4.86804,8.66875 -9.69456,10.64379c-2.69414,1.10246 -7.30363,0.85084 -10.35959,1.08952l-0.01878,0.10197c-1.3367,2.52528 -2.09496,5.31702 -3.19356,7.95462c-1.59523,3.82994 -4.07627,7.61987 -6.07484,11.26264c-4.87242,4.69855 -11.92196,10.30637 -18.99591,11.00231c-3.08016,0.30303 -7.3022,-1.34922 -10.25763,-1.99316c-2.81597,-0.61356 -4.10577,-0.44293 -7.0379,-1.56931c-2.27264,-0.87304 -4.13783,-2.64083 -6.42707,-3.46936c-0.99205,-0.35904 -2.1814,-0.08589 -3.11033,-0.58605c-5.57052,-2.99928 -8.63996,-8.34856 -15.2168,-9.38242c0,0 -2.85369,-0.49304 -2.36066,-3.34673c0.02752,-0.15929 0.0624,-0.30815 0.10372,-0.44725c-0.11645,-0.239 -0.16658,-0.40541 -0.16658,-0.40541l-0.15641,-3.46024c2.27204,-4.14124 5.22451,-6.8926 8.71328,-10.03475c0.95942,-0.8641 1.72934,-2.04947 2.923,-2.54172c3.15829,-1.30245 11.47466,-0.38908 14.5555,1.26543c0.519,0.27872 4.09425,4.12388 4.75816,4.82771z" fill="#000000"></path>
      </g>
      <g stroke="none" stroke-width="1">
        <path d="M262.59297,28.37981v-18.56646h-5.82179v-4.40544h16.36386v4.40544h-5.8218v18.56646zM283.82178,28.69441c-1.53141,0 -2.86352,-0.28332 -3.99633,-0.84949c-1.13281,-0.58764 -2.01404,-1.39512 -2.64369,-2.42291c-0.60818,-1.04926 -0.9125,-2.26608 -0.9125,-3.65046v-9.75511c0,-1.38486 0.30432,-2.59094 0.9125,-3.61919c0.62965,-1.04879 1.51088,-1.85627 2.64369,-2.42286c1.13281,-0.5874 2.46492,-0.88114 3.99633,-0.88114c1.55242,0 2.88452,0.29373 3.99633,0.88114c1.1328,0.56659 2.00377,1.37407 2.61195,2.42286c0.62965,1.02826 0.94424,2.23434 0.94424,3.61919v9.75511c0,1.38438 -0.31459,2.6012 -0.94424,3.65046c-0.60818,1.02779 -1.47914,1.83527 -2.61195,2.42291c-1.11181,0.56617 -2.44391,0.84949 -3.99633,0.84949zM283.82178,24.6038c0.94424,0 1.6467,-0.24131 2.10832,-0.72393c0.48262,-0.50362 0.72393,-1.20609 0.72393,-2.10832v-9.75511c0,-0.92323 -0.23104,-1.62617 -0.69219,-2.10832c-0.46162,-0.48262 -1.17481,-0.72393 -2.14006,-0.72393c-0.96524,0 -1.67844,0.24131 -2.14006,0.72393c-0.46115,0.48215 -0.69219,1.18509 -0.69219,2.10832v9.75511c0,0.90223 0.23104,1.6047 0.69219,2.10832c0.48262,0.48262 1.19582,0.72393 2.14006,0.72393zM294.03666,28.37981l5.63276,-22.9719h5.9791l5.69577,22.9719h-4.81455l-1.10154,-5.19215h-5.47547l-1.10153,5.19215zM300.73965,19.41118h3.87031l-1.10107,-5.53848c-0.14703,-0.79721 -0.30433,-1.58369 -0.47235,-2.3599c-0.14656,-0.79721 -0.26231,-1.41613 -0.34586,-1.85674c-0.08401,0.44062 -0.1993,1.04926 -0.34633,1.82547c-0.12602,0.77621 -0.27259,1.56269 -0.44062,2.3599zM333.06413,28.37981v-22.9719h7.39522c2.32862,0 4.18536,0.53495 5.56975,1.60493c1.38485,1.04879 2.07704,2.47565 2.07704,4.27965c0,1.00679 -0.24131,1.88802 -0.72347,2.64322c-0.46162,0.7552 -1.09127,1.34284 -1.88848,1.76245c-0.77621,0.41961 -1.6257,0.62918 -2.54893,0.62918v0.09428c1.02826,-0.02054 1.96175,0.16803 2.80097,0.56663c0.86023,0.39861 1.55242,0.99652 2.07658,1.79373c0.52463,0.79721 0.78695,1.78299 0.78695,2.95781c0,1.34284 -0.32533,2.51766 -0.97551,3.52445c-0.62965,0.98624 -1.53141,1.75172 -2.70623,2.29735c-1.17481,0.54564 -2.56994,0.81822 -4.18537,0.81822zM337.62714,24.57206h2.92653c1.02826,0 1.83574,-0.27258 2.42338,-0.81821c0.58718,-0.54516 0.88123,-1.30037 0.88123,-2.26562c0,-0.96478 -0.29405,-1.72045 -0.88123,-2.26562c-0.58764,-0.56663 -1.39513,-0.84995 -2.42338,-0.84995h-2.92653zM337.62714,14.65964h2.76924c0.92324,0 1.64717,-0.24131 2.17133,-0.72393c0.52463,-0.50316 0.78694,-1.17482 0.78694,-2.01403c0,-0.85975 -0.26231,-1.52067 -0.78694,-1.9823c-0.52416,-0.48262 -1.2481,-0.72394 -2.17133,-0.72394h-2.76924zM359.29656,28.69441c-1.53142,0 -2.86353,-0.28332 -3.99633,-0.84949c-1.1328,-0.58764 -2.01404,-1.39512 -2.64321,-2.42291c-0.60864,-1.04926 -0.9125,-2.26608 -0.9125,-3.65046v-4.09108c0,-1.38439 0.30385,-2.59094 0.9125,-3.61873c0.62918,-1.04879 1.51041,-1.85674 2.64321,-2.42291c1.1328,-0.58764 2.46491,-0.88123 3.99633,-0.88123c1.55241,0 2.88453,0.29359 3.9968,0.88123c1.1328,0.56617 2.0033,1.37412 2.61148,2.42291c0.62965,1.02779 0.94424,2.23434 0.94424,3.61873v4.09108c0,1.38438 -0.31459,2.6012 -0.94424,3.65046c-0.60818,1.02779 -1.47867,1.83527 -2.61148,2.42291c-1.11227,0.56617 -2.44439,0.84949 -3.9968,0.84949zM359.29656,24.6038c0.92324,0 1.62617,-0.24131 2.10832,-0.72393c0.48262,-0.50362 0.72393,-1.20609 0.72393,-2.10832v-4.09108c0,-0.92277 -0.24131,-1.6257 -0.72393,-2.10832c-0.48216,-0.48262 -1.18509,-0.72393 -2.10832,-0.72393c-0.90177,0 -1.60469,0.24131 -2.10832,0.72393c-0.48262,0.48262 -0.72346,1.18555 -0.72346,2.10832v4.09108c0,0.90223 0.24084,1.6047 0.72346,2.10832c0.50362,0.48262 1.20655,0.72393 2.10832,0.72393zM380.05346,28.37981c-1.76199,0 -3.14684,-0.50363 -4.15362,-1.51041c-1.00725,-1.00725 -1.51041,-2.39164 -1.51041,-4.15409v-7.39475h-4.56296v-4.24838h4.56296v-4.87756h4.7198v4.87756h6.45144v4.24838h-6.45144v7.39475c0,0.94424 0.47235,1.41613 1.41612,1.41613h4.72026v4.24838z" fill="#dc6d00"></path>
        <path d="M405.33507,30.71358c-4.12448,0 -7.46803,-3.34355 -7.46803,-7.46803v-12.6023c0,-4.12448 3.34355,-7.46803 7.46803,-7.46803h33.60613c4.12448,0 7.46803,3.34355 7.46803,7.46803v12.6023c0,4.12448 -3.34355,7.46803 -7.46803,7.46803z" fill="#683fff"></path>
        <path d="M406.578,23.71228v-13.62916h8.62557v2.61381h-5.91842v2.72583h1.82967c0.9461,0 1.76759,0.1741 2.46445,0.52276c0.69732,0.33606 1.23877,0.81542 1.6243,1.4376c0.3986,0.61004 0.59744,1.33164 0.59744,2.16573c0,0.83409 -0.19884,1.56222 -0.59744,2.1844c-0.38554,0.62218 -0.92698,1.1076 -1.6243,1.45627c-0.69686,0.34866 -1.51227,0.52277 -2.44578,0.52277zM409.2852,21.37854h1.84834c0.57271,0 1.02686,-0.16197 1.36292,-0.48542c0.33606,-0.32346 0.50409,-0.75941 0.50409,-1.30691c0,-0.5601 -0.16803,-1.00212 -0.50409,-1.32558c-0.33606,-0.33606 -0.79021,-0.50409 -1.36292,-0.50409h-1.84834zM422.1419,23.899c-0.90877,0 -1.69898,-0.16803 -2.3711,-0.50409c-0.67212,-0.34866 -1.19488,-0.82755 -1.56829,-1.4376c-0.36127,-0.62218 -0.54143,-1.34424 -0.54143,-2.16573v-5.78773c0,-0.82149 0.18016,-1.53701 0.54143,-2.14706c0.3734,-0.62218 0.89616,-1.10153 1.56829,-1.4376c0.67212,-0.34866 1.46233,-0.52276 2.3711,-0.52276c0.9209,0 1.71112,0.1741 2.3711,0.52276c0.67212,0.33606 1.18835,0.81542 1.54961,1.4376c0.3734,0.61004 0.56011,1.32557 0.56011,2.14706v5.78773c0,0.82149 -0.18671,1.54355 -0.56011,2.16573c-0.36127,0.61004 -0.87749,1.08893 -1.54961,1.4376c-0.65999,0.33606 -1.4502,0.50409 -2.3711,0.50409zM422.1419,21.47189c0.5601,0 0.97691,-0.14329 1.2509,-0.42941c0.28612,-0.29872 0.42942,-0.71553 0.42942,-1.25089v-5.78773c0,-0.5475 -0.13723,-0.96478 -0.41075,-1.25089c-0.27398,-0.28612 -0.69732,-0.42941 -1.26956,-0.42941c-0.5727,0 -0.99605,0.1433 -1.26956,0.42941c-0.27398,0.28612 -0.41074,0.7034 -0.41074,1.25089v5.78773c0,0.53536 0.13675,0.95217 0.41074,1.25089c0.28612,0.28612 0.70947,0.42941 1.26957,0.42941zM431.93616,23.71228v-11.01535h-3.45397v-2.61381h9.70844v2.61381h-3.45396v11.01535z" fill="#ffffff"></path>
      </g>
      <path d="M479.82991,156.16328v208h-253v-208z" fill="url(#color-3)" stroke="none" stroke-width="0"></path>
      <path d="M221.60001,364.90008v-367h8v367z" fill="#949494" stroke="none" stroke-width="0"></path>
    </g>
  </g>
</svg>
