<?xml version="1.0" encoding="UTF-8"?>
<svg xmlns="http://www.w3.org/2000/svg" xmlns:xlink="http://www.w3.org/1999/xlink" version="1.1" width="240.93872" height="250.3993" viewBox="0,0,240.93872,250.3993">
  <g transform="translate(-119.53064,-8.17947)">
    <g stroke-miterlimit="10">
      <path d="M202.89149,245.7078l-1.97723,-0.82875c-11.63563,-3.16336 -26.94528,-7.73433 -30.78917,-20.67089c-1.75999,-2.92887 2.23036,-3.58732 4.46381,-4.35887c2.65198,-0.91614 5.5837,-1.45329 8.44701,-1.20556c0.9702,0.08394 1.86972,0.72485 2.8423,0.67561c0.89501,-0.04532 1.62127,-0.90602 2.51645,-0.9479c1.38626,-0.06488 2.7361,0.47466 4.11442,0.63636c4.41503,0.51796 8.79264,0.55378 13.1811,0.79618c2.62449,0.14496 5.30485,0.87428 7.87855,0.34043c3.1098,-0.64505 5.78284,-3.17929 8.47502,-4.72333c2.8377,-1.62751 5.64767,-2.49218 8.66432,-3.72303c4.32549,-3.63658 10.74191,-6.86372 16.37403,-7.85957c3.91432,-0.69212 8.03466,-0.80052 11.95382,-1.45769c1.08436,-0.18183 2.07305,-0.76826 3.15299,-0.97474c2.75475,-0.52671 4.60525,0.31785 7.52756,0.39838c8.65312,0.23846 16.53621,0.61929 23.75265,6.10325c2.2452,1.70618 3.6569,3.92169 5.34246,6.12863c0.70712,1.14173 0.91161,2.84635 2.12195,3.42826c1.06908,0.51399 2.30032,-0.63684 3.48281,-0.73088c1.11433,-0.08862 2.60689,1.69818 2.98946,2.12411c3.04459,3.38975 6.99546,11.37296 4.03627,15.90946c-0.65954,1.01109 -3.62452,1.5516 -4.22143,1.7561c-2.46641,0.84495 -4.87774,2.27589 -7.46641,2.74111c-1.25232,0.22506 -2.52789,0.2503 -3.80455,0.26481c-0.20574,-0.03417 -0.43312,-0.04679 -0.68435,-0.03281c-0.14558,0.0081 -0.28224,0.02434 -0.41045,0.04752c-0.39639,0.00761 -0.79237,0.0198 -1.18715,0.04177c0,0 -2.49689,0.14177 -2.35799,2.63791c0.06678,1.20021 0.6781,1.79266 1.29532,2.08281c-1.95329,2.53683 -4.55873,3.11915 -7.52248,4.83588c-0.71916,0.41657 -1.14759,1.32569 -1.94334,1.56552c-1.17346,0.35366 -2.46854,-0.08141 -3.67554,0.13119c-1.98558,0.34974 -3.93644,1.01001 -5.95039,1.10397c-2.49247,0.14752 -4.925,0.86353 -7.39475,1.23031c-7.045,1.04626 -13.79877,-0.17418 -20.76423,-0.43226c-4.62493,-0.17137 -9.35566,1.02677 -13.97127,0.77739c-3.30962,-0.17881 -7.03036,-1.28378 -10.30773,-1.80158c-5.80129,-0.91656 -11.17194,-1.5239 -16.71385,-3.19589c0.50694,-1.95592 -1.47003,-2.81317 -1.47003,-2.81317z" fill="#a2f9ff" stroke="none" stroke-width="0.25"></path>
      <path d="M275.40302,224.02847c0.0311,-0.01118 0.06248,-0.02176 0.09414,-0.03173c-0.54916,-0.08381 -1.23273,0.012 -1.96266,0.20594c0.07934,0.11974 0.14864,0.24672 0.20671,0.37972zM243.5014,231.52756c0.63958,-0.29412 1.27105,-0.59697 1.89267,-0.90814c6.88364,-4.60659 13.556,-6.69686 21.34251,-9.03408c3.47137,-1.04197 4.95546,-2.68445 8.8677,-2.49877c3.55139,0.16855 8.13034,4.78643 7.07776,8.66954c-0.41191,1.51958 -1.99529,2.43855 -3.06539,3.59341c-3.45554,3.72925 -8.09409,7.27671 -13.36731,7.8999c-3.15645,0.37303 -6.77106,-0.26451 -9.94151,0.01884c-0.90646,0.08101 -6.06938,1.37856 -6.95347,1.59475c-4.16538,0.01407 -8.16612,-0.6848 -12.32773,-0.78126h-2.28962c-0.89439,0.25955 -1.78918,0.50165 -2.68175,0.72535c-2.0785,0.52091 -4.06419,1.72479 -6.20638,1.67462c-0.30117,-0.00705 -0.59289,-0.03204 -0.87604,-0.07317c-0.7848,0.1881 -1.51448,-0.05512 -1.51448,-0.05512c-2.28203,-0.76582 -3.22735,-1.18664 -5.85581,-1.48386c-3.17718,-0.35926 -5.03344,0.86328 -7.34042,-2.5704c-2.60306,-3.87437 -1.37656,-6.74293 3.25492,-7.99535c3.44853,-0.93253 7.00744,3.54126 9.11681,5.34456c0.13471,0.11516 2.53188,1.86848 3.21504,1.83333c1.73819,-0.08944 3.30492,-1.10422 4.99369,-1.52533c0.51393,-0.12815 1.02949,-0.26287 1.54593,-0.40398c0.17901,-0.12905 0.37578,-0.23499 0.58594,-0.31346l3.94593,-1.57841l0.00442,0.01105c0.02135,-0.0125 0.04274,-0.02495 0.06417,-0.03733c1.47987,-0.85492 3.2314,-1.1161 4.86393,-1.62182c0.54807,-0.16978 1.09764,-0.33097 1.64846,-0.48486zM215.41666,235.99569c-0.08915,-0.05553 -0.17798,-0.11144 -0.26613,-0.16817c-0.12565,-0.08086 -0.34296,-0.17478 -0.5712,-0.26526c0.25069,0.18476 0.49964,0.37871 0.79404,0.42674c0.01442,0.00235 0.02885,0.00458 0.04329,0.00669zM248.05135,235.43832c-0.43092,0.11655 -0.85795,0.2526 -1.28243,0.40102c0.6555,0.03567 1.31328,0.05809 1.97455,0.06112c0.75455,-0.19347 1.92157,-0.50221 3.12051,-0.79862c-0.11991,-0.15634 -0.22176,-0.32725 -0.30245,-0.50963c-1.17058,0.25371 -2.34101,0.52989 -3.51018,0.84611zM272.2297,231.23028c-0.7348,0.55742 -1.48701,1.07891 -2.28807,1.58734c0.80288,-0.46263 1.55895,-1.00355 2.28807,-1.58734z" fill="#6ba3a7" stroke="none" stroke-width="0.5"></path>
      <path d="M174.61187,220.49228c0.05489,-0.02615 0.10996,-0.05184 0.1652,-0.07706l-0.02617,-0.03496l3.084,-2.30826c0.42093,-0.32227 0.9473,-0.51376 1.51838,-0.51376c1.36587,0 2.47591,1.09536 2.49961,2.45558c0.30067,0.10205 0.57564,0.25977 0.81263,0.46087l1.94213,-1.06352c0.36573,-0.20959 0.7895,-0.32942 1.24125,-0.32942c0.42509,0 0.82539,0.10609 1.17589,0.29325c0.8153,-0.54183 1.90346,-0.61866 2.83348,-0.96499c0,0 2.37169,-0.79062 3.16231,1.58107c0.79062,2.37169 -1.58107,3.16231 -1.58107,3.16231c-3.05652,0.80701 -3.58995,2.81713 -3.90277,5.87465c-0.21577,2.10895 0.15382,4.04346 1.00677,5.66121c1.43606,0.89514 2.85885,1.66652 4.06928,2.27991c1.42477,0.72201 3.41193,0.62524 4.41134,1.87121c0.15651,0.19513 0.2937,0.40059 0.41502,0.61455l0.08993,-0.05995l1.58101,2.37158c0.2768,0.40238 0.43882,0.88985 0.43882,1.41517c0,1.38071 -1.11929,2.5 -2.5,2.5c-0.41989,0 -0.8156,-0.10351 -1.163,-0.28642l-2.97581,-1.48788c-1.16923,-0.30512 -2.45373,-0.33706 -3.49297,-0.95024c-0.63834,-0.37664 -1.23739,-0.80797 -1.79542,-1.28583c-0.10828,0.01036 -0.17277,0.01036 -0.17277,0.01036l-2.71805,-0.26392c-1.4639,-0.95978 -3.5708,-1.33329 -4.3917,-2.87935c-0.57296,-1.07911 0.20431,-2.38851 0.58853,-3.60893c-0.98053,-0.80942 -1.93173,-1.69922 -2.72529,-2.64798c-1.77093,0.30999 -3.48806,0.13498 -5.06319,-2.54315c-0.21588,-0.36705 -0.25748,-0.84407 -0.16784,-1.36701l-0.10723,0.07149c-0.40239,0.27682 -0.88989,0.43886 -1.41522,0.43886c-1.38071,0 -2.5,-1.11929 -2.5,-2.5c0,-0.8283 0.40282,-1.56252 1.02325,-2.01744l2.82257,-2.11698c0.54536,-0.67027 1.05454,-1.39167 1.81711,-1.75503z" fill-opacity="0.53333" fill="#76b3b8" stroke="none" stroke-width="0.5"></path>
      <path d="M302.64889,238.4817c-0.92584,0 -1.73414,-0.50328 -2.16623,-1.25119l-1.21859,0.81237c-0.40238,0.2768 -0.88985,0.43882 -1.41517,0.43882c-1.38071,0 -2.5,-1.11929 -2.5,-2.5c0,-0.29691 0.05176,-0.58173 0.14675,-0.84593l0.78153,-2.3446l0.09256,0.03085c0.04081,-0.18668 0.09109,-0.37166 0.15252,-0.55461c0.40233,-1.19819 1.81916,-1.7609 2.63802,-2.7237c0.67907,-0.79845 1.33222,-1.62203 1.99846,-2.43336c0.2031,-0.76292 0.39984,-1.66507 0.64256,-2.83773c0.48216,-2.32949 2.01204,-5.0428 -1.55238,-4.19088c0,0 -2.5,0 -2.5,-2.5c0,-2.5 2.5,-2.5 2.5,-2.5c1.53386,0.14328 3.43813,-0.57993 4.60159,0.42984c2.33204,2.02399 2.86374,3.64429 2.74894,5.3572c0.90927,0.37409 1.54943,1.26876 1.54943,2.31294v1.68484l3.95457,-1.159c-0.48701,2.19709 -0.97898,4.42117 -1.65542,6.57413c0.0003,0 0.0006,0 0.0009,0c1.38071,0 2.5,1.11929 2.5,2.5c0,0.29692 -0.05176,0.58176 -0.14676,0.84597l-0.78159,2.34466l-1.40392,1.77715c0,0 -1.65921,1.65921 -3.37018,0.15525c-0.43321,0.3603 -0.9901,0.57698 -1.5976,0.57698c-0.8178,0 -1.54389,-0.39267 -2,-0.99976c-0.45611,0.60708 -1.1822,0.99976 -2,0.99976z" fill-opacity="0.53333" fill="#76b3b8" stroke="none" stroke-width="0.5"></path>
      <path d="M251.37011,217.71016c-0.92846,2.3212 -3.24966,1.39273 -3.24966,1.39273l-2.04955,-0.81981c-0.62639,0.32056 -1.51021,0.45746 -2.52199,-0.30138c-0.9879,-0.74093 -1.12184,-1.60385 -1.00442,-2.28747c-0.07549,-0.4039 -0.04033,-0.88206 0.18323,-1.44098c0.41433,-1.03584 1.10601,-1.42454 1.745,-1.53739c4.6369,-5.37832 11.44816,-9.96817 18.64985,-10.57489c2.38258,-0.20072 5.9935,-1.69568 7.16245,0.39011c1.33481,2.38172 -0.8767,5.64411 -2.58869,7.77094c-0.96296,1.19631 -8.80112,3.27958 -10.41492,3.74992l-3.47056,1.11081c0,0 -2.38106,0.76194 -3.143,-1.61912c-0.00586,-0.0183 -0.01153,-0.03651 -0.01702,-0.05463c-0.31173,0.27992 -0.61838,0.57043 -0.92088,0.87252l0.24743,0.09897c0,0 2.3212,0.92846 1.39273,3.24966z" fill="#d3fcff" stroke="none" stroke-width="0.5"></path>
      <path d="M202.93656,245.68623c0,0 1.97523,0.85393 1.46829,2.80985c5.54191,1.67199 10.90099,2.26565 16.70228,3.18221c3.27737,0.5178 6.98375,1.6145 10.29337,1.79331c4.61561,0.24938 9.32061,-0.9512 13.94554,-0.77983c6.96546,0.25808 13.69269,1.49196 20.73769,0.4457c2.46975,-0.36678 4.89725,-1.0771 7.38972,-1.22462c2.01395,-0.09396 3.96201,-0.75012 5.94759,-1.09986c1.207,-0.2126 2.50102,0.22429 3.67448,-0.12937c0.79575,-0.23983 1.22309,-1.14686 1.94225,-1.56343c2.96375,-1.71673 5.56651,-2.29249 7.5198,-4.82932c-0.61722,-0.29015 -1.22899,-0.88116 -1.29577,-2.08137c-0.1389,-2.49614 2.35724,-2.63504 2.35724,-2.63504c0.39478,-0.02197 0.7907,-0.03389 1.18709,-0.0415c0.12821,-0.02318 0.26484,-0.0393 0.41042,-0.0474c0.25123,-0.01398 0.47859,-0.00126 0.68433,0.03291c1.27666,-0.01451 2.55204,-0.03887 3.80436,-0.26393c2.58867,-0.46522 4.99948,-1.89308 7.46589,-2.73803c0.59691,-0.2045 3.56169,-0.74338 4.22123,-1.75447c2.95919,-4.5365 -0.99154,-12.50811 -4.03613,-15.89786c-0.38257,-0.42593 -1.87484,-2.21081 -2.98917,-2.12219c-1.18249,0.09404 -2.41375,1.24475 -3.48283,0.73076c-1.21034,-0.58191 -1.41422,-2.28344 -2.12134,-3.42517c-1.68556,-2.20694 -3.09541,-4.41629 -5.34061,-6.12247c-7.21644,-5.48396 -15.08994,-5.8489 -23.74306,-6.08736c-2.92231,-0.08053 -4.76705,-0.9196 -7.5218,-0.39289c-1.07994,0.20648 -2.06626,0.79472 -3.15062,0.97655c-3.91916,0.65717 -8.02269,0.77339 -11.93701,1.46551c-5.63212,0.99585 -12.00866,4.21625 -16.33415,7.85283c-3.01665,1.23085 -5.81187,2.08044 -8.64957,3.70795c-2.69218,1.54404 -5.35919,4.06441 -8.46899,4.70946c-2.5737,0.53385 -5.25352,-0.19773 -7.87801,-0.34269c-4.38846,-0.2424 -8.76569,-0.2802 -13.18072,-0.79816c-1.37832,-0.1617 -2.72815,-0.70131 -4.11441,-0.63643c-0.89518,0.04188 -1.62125,0.90138 -2.51626,0.9467c-0.97258,0.04924 -1.87213,-0.59145 -2.84233,-0.67539c-2.86331,-0.24773 -5.79479,0.2876 -8.44677,1.20374c-2.23345,0.77155 -6.22353,1.42661 -4.46354,4.35548c3.84389,12.93656 19.14944,17.48534 30.78507,20.6487l1.97647,0.82709zM308.83366,241.23203c-3.9458,1.38442 -7.29313,2.40869 -11.11091,2.95804l-0.07998,1.45699c-4.8481,7.96457 -15.22884,10.71224 -23.89149,11.25806c-5.08679,0.26205 -9.99421,1.4222 -15.15702,1.64454c-4.65712,0.20055 -8.94672,-0.69453 -13.51678,-0.86511c-4.64688,-0.17344 -9.36424,1.03632 -14.0112,0.77587c-4.82387,-0.27035 -9.75785,-1.91134 -14.56642,-2.51134c-5.4771,-0.68341 -9.98472,-1.44052 -15.22006,-3.20261c0,0 -2.29168,-0.77195 -1.60808,-3.05129l-0.02672,-0.01211c-13.52577,-3.69841 -29.47634,-9.11737 -34.18548,-23.81016c-0.35562,-1.12557 -1.23043,-2.20769 -1.06683,-3.37669c0.69906,-4.99495 6.97742,-7.59178 11.22956,-8.3728c0.04404,-0.00809 7.46412,-0.48991 7.98855,-0.44454c0.71129,0.06155 1.32651,0.69961 2.03909,0.65543c0.78918,-0.04893 1.39736,-0.88702 2.18748,-0.9175c1.76815,-0.0682 3.51084,0.44772 5.27092,0.62984c4.31272,0.44626 8.56356,0.53687 12.84623,0.77247c3.0369,0.16707 3.83426,0.97293 6.58867,0.45473c2.32985,-0.43833 5.08362,-3.04004 7.06181,-4.16716c2.86214,-1.63078 5.52467,-2.50645 8.56762,-3.66007c4.7725,-4.01237 11.8341,-7.32994 18.01148,-8.48063c3.90551,-0.72751 8.02412,-0.8085 11.93701,-1.46551c1.08432,-0.18207 2.0674,-0.78806 3.15062,-0.97655c2.80723,-0.48847 5.69406,0.23715 8.54238,0.31565c9.71976,0.26786 18.60179,0.92655 26.66927,7.13211c2.79971,2.15355 4.57419,4.83637 6.64212,7.63303c-0.08572,0.42619 -0.68704,1.21389 -0.25715,1.27857c0.54916,0.08263 0.66589,-1.11486 1.2209,-1.13357c1.2977,-0.04373 2.63,0.35075 3.77383,0.96524c1.89415,1.01759 3.97664,3.57402 5.15557,5.39367c3.2171,4.96551 6.60171,13.93304 2.50971,19.46291c-1.99506,2.69608 -3.86033,2.66597 -6.69472,3.66045z" fill="#293e40" stroke="none" stroke-width="0.5"></path>
      <path d="M119.53064,53.17947v-45h240.93872v45z" fill="#ffffff" stroke="none" stroke-width="0"></path>
      <text transform="translate(132.54956,38.98335) scale(0.69199,0.69199)" font-size="40" xml:space="preserve" fill="#000000" stroke="#000000" stroke-width="3" font-family="&quot;JetBrains Mono&quot;, Sans Serif" font-weight="normal" text-anchor="start">
        <tspan x="0" dy="0">Этап пройден!</tspan>
      </text>
    </g>
  </g>
</svg>
