<?xml version="1.0" encoding="UTF-8"?>
<svg xmlns="http://www.w3.org/2000/svg" xmlns:xlink="http://www.w3.org/1999/xlink" version="1.1" width="188.97918" height="188.97917" viewBox="0,0,188.97918,188.97917">
  <g transform="translate(-145.51042,-84.95269)">
    <g stroke="none" stroke-miterlimit="10">
      <path d="M146.06815,180.00001c0,-51.87715 42.05473,-93.93185 93.93185,-93.93185c51.87715,0 93.93185,42.0547 93.93185,93.93185c0,51.87715 -42.0547,93.93185 -93.93185,93.93185c-51.87715,0 -93.93185,-42.05473 -93.93185,-93.93185z" fill="#ffcc4d" stroke-width="1"></path>
      <path d="M217.14859,156.592c0,8.63759 -4.46511,15.63969 -9.97311,15.63969c-5.50803,0 -9.97311,-7.00214 -9.97311,-15.63969c0,-8.63759 4.46511,-15.63969 9.97311,-15.63969c5.50803,0 9.97311,7.00214 9.97311,15.63969z" fill="#65471b" stroke-width="0"></path>
      <path d="M283.44539,156.592c0,8.63756 -4.46511,15.63972 -9.97311,15.63972c-5.50803,0 -9.97314,-7.00214 -9.97314,-15.63972c0,-8.63756 4.46511,-15.63969 9.97314,-15.63969c5.508,0 9.97311,7.00214 9.97311,15.63969z" fill="#65471b" stroke-width="0"></path>
      <path d="M285.625,202.24805c0,5.96303 -19.94788,29.15196 -45.44466,29.15196c-25.49678,0 -45.80534,-24.26863 -45.80534,-30.23166c0,-5.96303 20.30856,8.63762 45.80534,8.63762c25.49678,0 45.44466,-13.52095 45.44466,-7.55792z" fill="#65471b" stroke-width="0"></path>
      <path d="M334.48959,179.44228c0,52.18345 -42.30614,94.48959 -94.48959,94.48959c-52.18345,0 -94.48958,-42.30614 -94.48958,-94.48959c0,-52.18345 42.30614,-94.48958 94.48959,-94.48958c52.18345,0 94.48959,42.30614 94.48959,94.48959" fill="#ffcc4d" stroke-width="1"></path>
      <path d="M288.91413,211.7136c0.63674,-1.06426 0.43373,-2.43 -0.48504,-3.26304c-0.91939,-0.83091 -2.29935,-0.89171 -3.28825,-0.14488c-0.20158,0.14488 -20.34677,15.04904 -45.13453,15.04904c-24.72478,0 -44.93295,-14.89785 -45.13453,-15.04904c-0.98751,-0.76827 -2.38369,-0.71824 -3.31367,0.11874c-0.92998,0.83699 -1.12629,2.22019 -0.46592,3.28289c0.66142,1.12128 16.68056,27.2004 48.90781,27.2004c32.22095,0 48.24638,-26.08542 48.91411,-27.1941zM219.25007,171.66263c0,10.0348 -5.80795,18.1609 -12.97026,18.1609c-7.16231,0 -12.97027,-8.1261 -12.97027,-18.1609c0,-10.0222 5.80166,-18.1546 12.97027,-18.1546c7.16859,0 12.97026,8.12611 12.97026,18.1546zM286.69046,171.66263c0,10.0348 -5.80796,18.1609 -12.97657,18.1609c-7.16231,0 -12.97027,-8.1261 -12.97027,-18.1609c0,-10.0222 5.80796,-18.1546 12.97027,-18.1546c7.16862,-0.00631 12.97657,8.12611 12.97657,18.1546z" fill="#664500" stroke-width="1"></path>
    </g>
  </g>
</svg>
