<?xml version="1.0" encoding="UTF-8"?>
<svg xmlns="http://www.w3.org/2000/svg" xmlns:xlink="http://www.w3.org/1999/xlink" version="1.1" width="184.72853" height="184.21306" viewBox="0,0,184.72853,184.21306">
  <g transform="translate(-147.63574,-87.89347)">
    <g stroke="none" stroke-miterlimit="10">
      <g>
        <path d="M269.36928,91.67897c15.89538,5.37187 30.04357,14.9396 40.94828,27.69136c-5.43292,10.65409 -16.69641,20.31663 -25.29509,23.44107c-10.87616,-3.9559 -26.05425,-18.35418 -28.24911,-32.0036c-0.26855,-1.15682 -0.42347,-2.35495 -0.42347,-3.5944c0.00829,-7.64663 5.49194,-14.18958 13.01937,-15.53442zM199.94983,263.84871c-17.63732,-8.36038 -32.20948,-22.0403 -41.66614,-39.11493c3.00395,-5.40082 8.69339,-8.75522 14.87339,-8.7691c5.52889,0.00097 10.71675,2.67281 13.92831,7.17331c3.2104,-4.50183 8.39901,-7.17405 13.92831,-7.17331c9.46646,0 17.14054,7.67408 17.14054,17.14054c0,1.34274 -0.17042,2.64415 -0.46479,3.89393c-1.56996,9.77098 -9.28553,19.87249 -17.73961,26.84956zM301.86866,248.87205c-8.06159,-3.43431 -18.60206,-13.71657 -20.18752,-23.55469c-1.26117,-5.50521 1.5303,-11.13686 6.67514,-13.46677c5.14484,-2.3299 11.21888,-0.7131 14.52459,3.8662c2.62858,-3.68652 7.13123,-5.54872 11.59586,-4.79582c4.46464,0.7529 8.10756,3.98874 9.38181,8.33342c-5.28325,11.23915 -12.75967,21.30896 -21.98988,29.61766z" fill="#ffac33"></path>
        <path d="M319.9388,107.31152c-2.19486,13.64427 -17.36778,28.04253 -28.24393,31.99843c-10.87616,-3.9559 -26.04907,-18.35418 -28.24911,-32.0036c-1.68618,-7.3376 2.03294,-14.84686 8.89136,-17.9526c6.85844,-3.10572 14.95543,-0.9472 19.35773,5.16045c2.96292,-4.15459 7.75122,-6.62089 12.85411,-6.62073c8.7363,0 15.81846,7.08217 15.81846,15.81846c0,1.23945 -0.15494,2.43759 -0.42865,3.59956zM209.29218,237.43812c-2.38077,14.78559 -18.81897,30.38715 -30.60406,34.66841c-11.78509,-4.28643 -28.22328,-19.88798 -30.60406,-34.67358c-1.18782,-5.09194 0.01345,-10.44757 3.2623,-14.54436c3.24887,-4.09679 8.18997,-6.48662 13.41861,-6.49013c5.52951,-0.00161 10.71848,2.67081 13.92831,7.17331c3.2104,-4.50183 8.39901,-7.17405 13.92831,-7.17331c9.46646,0 17.14054,7.67408 17.14054,17.14054c0,1.33757 -0.17042,2.63899 -0.46996,3.8991zM332.03891,224.45491c-1.64227,10.24095 -13.03487,21.04997 -21.19458,24.01432c-8.16488,-2.96435 -19.55231,-13.77337 -21.19973,-24.01432c-1.26117,-5.50521 1.5303,-11.13686 6.67514,-13.46677c5.14484,-2.3299 11.21888,-0.7131 14.52459,3.8662c3.00425,-4.1876 8.36702,-5.95879 13.27438,-4.38425c4.90737,1.57455 8.23852,6.13523 8.24555,11.28901c0,0.92958 -0.11878,1.82819 -0.32536,2.69579z" fill="#dd2e44"></path>
      </g>
    </g>
  </g>
</svg>
