<?xml version="1.0" encoding="UTF-8"?>
<svg xmlns="http://www.w3.org/2000/svg" xmlns:xlink="http://www.w3.org/1999/xlink" version="1.1" width="47.76168" height="46.56524" viewBox="0,0,47.76168,46.56524">
  <g transform="translate(-36.15294,-33.87193)">
    <g stroke="none" stroke-miterlimit="10">
      <path d="M79.99031,60.48063c0,11.02133 -8.93521,19.95654 -19.95654,19.95654c-11.02133,0 -19.95654,-8.93521 -19.95654,-19.95654c0,-11.02133 8.93521,-19.95653 19.95654,-19.95653c11.02133,0 19.95654,8.9352 19.95654,19.95653" fill="#ffcc4d"></path>
      <path d="M70.36459,67.29645c-0.14103,0.23416 -3.52565,5.74349 -10.33083,5.74349c-6.80651,0 -10.18981,-5.50801 -10.3295,-5.74482c-0.13947,-0.22445 -0.09801,-0.51658 0.0984,-0.69336c0.19642,-0.17677 0.4913,-0.18734 0.69986,-0.02508c0.04257,0.03194 4.31061,3.17842 9.53258,3.17842c5.23526,0 9.49,-3.14781 9.53257,-3.17842c0.20886,-0.15774 0.50031,-0.14488 0.69449,0.03061c0.19405,0.17594 0.23692,0.46438 0.10244,0.68916zM52.91195,55.00323c-1.51403,0 -2.73937,1.71759 -2.73937,3.83431c0,2.11939 1.22667,3.83565 2.73937,3.83565c1.5127,0 2.73936,-1.71626 2.73936,-3.83565c0,-2.11805 -1.22534,-3.83431 -2.73936,-3.83431zM67.15426,55.00323c-1.5127,0 -2.73936,1.71759 -2.73936,3.83431c0,2.11939 1.22666,3.83565 2.73936,3.83565c1.51404,0 2.7407,-1.71626 2.7407,-3.83565c0,-2.11805 -1.22666,-3.83564 -2.7407,-3.83431zM83.39356,43.58942c-3.03207,6.00957 -10.36276,10.23904 -23.35979,10.23904c-12.99836,0 -20.32905,-4.22946 -23.35979,-10.23904c-1.91849,-3.80504 1.86926,-6.35948 4.73369,-2.89236c1.58322,1.91582 4.23345,2.59568 6.7533,2.82185c0.42307,-2.04621 2.23913,-9.64698 5.88585,-9.64698c3.19703,0 4.34919,1.4515 5.98696,1.4515c1.63777,0 2.78992,-1.4515 5.98696,-1.4515c3.64673,0 5.46278,7.60077 5.88585,9.64698c2.51985,-0.22618 5.17007,-0.90469 6.75329,-2.82185c2.86442,-3.46711 6.65218,-0.91268 4.73369,2.89236z" fill="#664500"></path>
      <path d="M69.34682,45.51323c0,0 -1.70428,2.99348 -9.31305,2.99348c-7.60744,0 -9.31305,-2.99348 -9.31305,-2.99348c0,0 1.37966,-8.98044 4.65653,-8.98044c2.48659,0 3.3833,1.28254 4.65653,1.28254c1.27322,0 2.16994,-1.28254 4.65653,-1.28254c3.27687,0 4.65652,8.98045 4.65652,8.98045z" fill="#825d0e"></path>
      <path d="M50.72072,40.5241c0,0 2.75932,2.66087 9.31305,2.66087c6.55506,0 9.31305,-2.66087 9.31305,-2.66087v2.66087c0,0 -2.95623,2.66087 -9.31305,2.66087c-6.35682,0 -9.31305,-2.66087 -9.31305,-2.66087z" fill="#664500"></path>
    </g>
  </g>
</svg>
