<?xml version="1.0" encoding="UTF-8"?>
<svg xmlns="http://www.w3.org/2000/svg" xmlns:xlink="http://www.w3.org/1999/xlink" version="1.1" width="77.09209" height="33.10129" viewBox="0,0,77.09209,33.10129">
  <g transform="translate(-364.71065,-60.032)">
    <g fill="#d6d6d6" stroke="none" stroke-width="0.5" stroke-miterlimit="10">
      <path d="M376.80002,92.20001h-3.20001c-1.30816,-0.03576 -2.68853,0.32283 -3.92448,-0.10727c-5.51451,-1.91901 -4.9568,-6.87044 -4.9432,-11.5932c0.36469,-1.13563 1.77105,-5.92502 2.60592,-6.42764c4.39899,-2.64839 5.92399,1.17633 9.55772,1.12995c1.82375,-0.02328 3.62032,-0.66028 5.2927,-1.38813c0.8816,-0.38369 1.51516,-1.22378 2.39996,-1.60001c3.32638,-1.41441 7.91448,-1.66649 10.89708,-3.84035c1.13079,-0.82417 1.86938,-2.09328 2.92936,-3.00674c4.87003,-4.19685 9.3342,-6.41773 15.5776,-4.56142l2.40691,-0.77293c2.62845,-0.01374 5.23502,0.48397 7.8468,0.77987c5.90628,0.66916 11.49782,-0.56636 15.48027,5.17352c0.25961,0.37417 1.78021,5.21282 1.94112,5.71385c-0.025,1.44164 0.36358,2.95138 -0.07499,4.32493c-0.95584,2.9936 -3.42488,5.13807 -6.72456,4.95342c-1.08553,-0.06075 -1.76043,-1.34371 -2.79265,-1.68515c-1.32608,-0.43865 -4.99676,0.64038 -6.05813,1.44271c-5.76465,4.35772 -9.65506,11.31355 -17.61695,12.23228c-1.43235,0.16528 -2.93258,0.29963 -4.32492,-0.07499c-2.64431,-0.71148 -4.64687,-4.14984 -7.2,-4.79998c-3.60274,-0.91743 -5.18241,1.55495 -8.15106,2.39999c-1.1606,0.33037 -2.41269,0.05903 -3.61903,0.08854c-1.93609,0.48401 -4.48971,1.31186 -6.70263,1.09149c-0.71705,0.52724 -1.60282,0.52724 -1.60282,0.52724z"></path>
    </g>
  </g>
</svg>
