<?xml version="1.0" encoding="UTF-8"?>
<svg xmlns="http://www.w3.org/2000/svg" xmlns:xlink="http://www.w3.org/1999/xlink" version="1.1" width="321.19994" height="336.77921" viewBox="0,0,321.19994,336.77921">
  <g transform="translate(-79.40002,-11.61039)">
    <g stroke="none" stroke-miterlimit="10">
      <path d="M88.31564,328.61039c0,0 16,-20.5985 16,-32.10001c0,-24.14805 -6.06414,4.50221 -10.04872,-44.1924c-0.59522,-7.27412 3.74438,-65.15844 3.01263,-73.75344c-0.23731,-2.78745 -17.45194,-68.53772 -17.64152,-71.24481c-1.94572,-27.78276 8.67761,-71.70934 8.67761,-71.70934c0,0 -12.60264,-21.46011 8.4239,-20.44654c5.86827,0.28288 21.73281,18.2132 32.25081,17.57214c19.88693,-1.21209 85.77117,-14.42446 107.91596,-15.43106c14.92427,-0.67839 40.54072,1.62046 54.14997,0.91386c29.89262,-1.55204 65.36001,-6.60839 73.85938,-6.60839c6.34357,0 25.39999,15 25.39999,15c0,0 -4.30426,16.55744 -1.677,49.84293c2.20947,27.99243 11.3705,71.03601 11.83896,94.14703c0.97157,47.9307 -4.16196,152.01005 -4.16196,152.01005c0,0 6.8751,16.10871 -32.52064,19.49727c-5.19656,0.44698 -28.0068,-7.08378 -34.50223,-6.59417c-5.41818,0.40841 -27.16192,3.80264 -33.24331,4.17608c-4.59181,0.28197 -30.28214,8.51628 -35.06363,8.69531c-8.42783,0.31554 -43.80911,-15.34526 -52.03061,-14.98105c-9.93324,0.44004 -39.34412,6.82986 -47.9634,7.15102c-2.72426,0.1015 -17.35563,-9.79234 -19.88468,-9.68134c-10.6975,0.46953 -30.35234,15.73688 -36.1915,15.73688c-17.79261,0 -16.6,-18 -16.6,-18z" fill="#d6d6d6" stroke-width="0"></path>
      <path d="M114.91564,303.51038l-11,-15c0,0 12.57555,13.59144 33.19615,18.10359c30.25914,6.62123 74.38191,5.22504 93.09351,7.37227c14.12883,1.62134 55.71035,9.52414 55.71035,9.52414l65,-5c0,0 -60.0161,13.57931 -88.76511,11.92299c-10.7767,-0.62088 -41.27907,-11.44 -57.09454,-13.84571c-8.9022,-1.35412 -54.71337,6.39113 -63.18379,5.2433c-39.11052,-5.29991 -26.95656,-18.32058 -26.95656,-18.32058z" fill="#9e9e9e" stroke-width="0"></path>
      <path d="M121.8722,32.25287c8.47042,-1.14784 54.2816,6.59742 63.18379,5.2433c15.81547,-2.4057 46.31783,-13.22483 57.09454,-13.84571c28.74901,-1.65632 88.76511,11.923 88.76511,11.923l-65,-5c0,0 -41.58152,7.9028 -55.71035,9.52414c-18.71159,2.14723 -62.83437,0.75104 -93.0935,7.37226c-20.6206,4.51215 -33.19615,18.10359 -33.19615,18.10359l11,-15c0,0 -12.15397,-13.02067 26.95656,-18.32058z" fill="#9e9e9e" stroke-width="0"></path>
      <path d="M131.25988,88.84747c-1.31047,0.52457 -2.62094,1.04915 -3.93141,1.57373c0,0 -1.75715,0.70287 -2.82533,-0.64329c-0.90693,3.70546 -1.8658,7.38377 -2.89929,11.0089c0,0 -0.68679,2.40381 -3.0906,1.71702c-1.88135,-0.53752 -1.86957,-2.1268 -1.77557,-2.79225c-0.20981,0.14324 -0.46314,0.26842 -0.76829,0.36712c-2.37868,0.76935 -3.14803,-1.60933 -3.14803,-1.60933l-0.16047,-0.49613c-1.69455,-5.24964 -2.78598,-10.61706 -4.1407,-15.94473l-1.32963,0.44322c-1.64807,0.54807 -3.32112,1.02159 -5.00338,1.45525c1.28978,5.00764 2.50162,10.03692 3.50069,15.12667l0.01217,3.44636c0,0 0,2.5 -2.5,2.5c-2.5,0 -2.5,-2.5 -2.5,-2.5l0.01216,-2.95367c-2.40295,-11.75876 -5.82663,-23.22301 -8.73754,-34.83999c0,0 -0.60634,-2.42535 1.81902,-3.03169c2.42536,-0.60634 3.03169,1.81902 3.03169,1.81902c1.30137,5.21831 2.71684,10.40285 4.09504,15.59722c1.57695,-0.40455 3.14535,-0.84674 4.689,-1.36259l1.58913,-0.52972c-1.43799,-4.98029 -3.03379,-10.60037 -1.57023,-15.48914c0,0 0.79056,-2.37171 3.16227,-1.58115c2.37171,0.79056 1.58115,3.16227 1.58115,3.16227c-1.0006,2.53347 0.17528,6.69907 0.69801,9.27116c0.65634,3.22952 1.9154,6.30928 2.72003,9.50509c1.22062,4.84807 2.08339,9.60053 3.62848,14.36773l0.11404,0.35259c3.08031,-11.22416 5.4735,-22.90484 7.90711,-34.25681l0.06615,-0.0942l-0.03625,-0.01115l0.92456,-3.00586c0.29649,-1.04979 1.26148,-1.8191 2.40615,-1.8191c1.21151,0 2.22174,0.86176 2.45115,2.00575l1.07396,4.83287l-0.01537,0.00342c0.01271,0.03636 0.02527,0.07276 0.0377,0.10923c0.04281,0.12562 1.20659,9.60711 1.25968,9.89304c0.6054,3.26072 1.69937,6.41497 2.3708,9.66274c1.02019,4.93471 1.56329,9.52206 3.16724,14.32249l0.0272,0.08182c0,0 0.78863,2.37235 -1.58372,3.16098c-2.37235,0.78863 -3.16099,-1.58372 -3.16099,-1.58372l-0.0272,-0.08183c-1.26329,-3.81831 -1.91684,-7.51216 -2.62825,-11.32985zM125.47152,85.77882c1.3562,-0.5421 2.71239,-1.08418 4.06859,-1.62628l1.21298,-0.40488c-0.63833,-2.59783 -1.96653,-7.8768 -2.06194,-8.39061c-0.13687,-0.73717 -0.27989,-1.4676 -0.4146,-2.19211c-0.90502,4.20405 -1.8332,8.4228 -2.81708,12.6189c0.00789,-0.00336 0.01205,-0.00503 0.01205,-0.00503z" fill="#696969" stroke-width="0.5"></path>
      <path d="M156.00003,96.20001c-2.5,0 -2.5,-2.5 -2.5,-2.5v-1.60001c0.00139,-2.21771 -0.31584,-4.63159 -0.60224,-7.07732c-0.35444,1.10947 -0.74445,2.20597 -1.1841,3.28375c-0.66446,1.62888 -0.95404,3.47016 -2.00212,4.88305c-0.05522,0.07443 -0.11128,0.14813 -0.16814,0.22113l0.02212,0.01542l-2.83871,4.07304c-0.4495,0.66349 -1.20943,1.09954 -2.07121,1.09954c-1.24434,0 -2.27634,-0.9091 -2.46806,-2.09935l-0.87891,-4.87813l0.01218,-0.0022l-0.02152,-0.05318c-1.23138,-9.18073 -3.54411,-19.794 -1.32469,-28.87209c0,0 0.60632,-2.42536 3.03168,-1.81903c2.42536,0.60633 1.81904,3.03168 1.81904,3.03168c-1.0949,4.26605 -0.58562,7.73398 -0.11934,12.08945c0.48002,4.4838 0.80669,8.95396 1.35697,13.42567c0.59921,-1.73204 1.38339,-3.38414 1.96046,-5.29737c1.24753,-4.136 2.10291,-8.43725 3.15119,-12.63039l0.78731,-3.14928c0.25264,-1.11331 1.24829,-1.9444 2.43804,-1.9444c1.27327,0 2.32421,0.95185 2.48007,2.18281l0.70195,4.91336l-0.02305,0.00329c0.0138,0.05141 0.02731,0.10291 0.0405,0.15452c0.4184,1.63635 -0.00825,3.37961 0.07867,5.06636c0.23191,4.50082 0.81922,8.86402 0.8219,13.37967v1.60001c0,0 0,2.5 -2.5,2.5z" fill="#696969" stroke-width="0.5"></path>
      <path d="M153.63452,48.94338c2.35661,0.8345 1.5221,3.19111 1.5221,3.19111l-1.46189,3.3685c-6.52326,2.14258 -6.74432,4.25905 -11.7228,-1.14122c-0.74044,-0.80318 -0.76239,-2.04747 -1.1436,-3.07121c0,0 -0.79056,-2.37171 1.58115,-3.16227c2.37171,-0.79056 3.16227,1.58115 3.16227,1.58115c0.83115,3.14842 1.56726,3.28265 4.62045,2.22531l0.25121,-1.46926c0,0 0.8345,-2.35661 3.19111,-1.52211z" fill="#696969" stroke-width="0.5"></path>
      <path d="M179.10001,73.70001l0.26393,0.31801c-1.48125,-2.96653 -3.20916,-6.04945 -4.14108,-9.25992c-0.72284,4.35696 -1.45,8.71319 -2.17629,13.06958c2.15302,-0.68498 4.26337,-1.56279 6.50057,-1.78632c0.2626,-0.02624 0.53084,-0.06703 0.80282,-0.11668c-1.24995,-0.64982 -1.24995,-2.22468 -1.24995,-2.22468zM167.93402,78.08898c1.07745,-6.46429 2.15257,-12.92895 3.23971,-19.39161l0.11841,-0.16665l-0.06384,-0.02128l0.78176,-2.3453c0.31417,-1.02157 1.26534,-1.76413 2.38994,-1.76413c0.99801,0 1.85943,0.58479 2.26029,1.43041l2.21185,4.42369l-0.01016,0.00508c0.01773,0.02826 0.03538,0.05658 0.05295,0.08495c2.07797,3.35594 3.12692,7.85447 4.92115,11.43785l0.26393,1.91804c0,0 0,0.86471 -0.50855,1.57702c1.02849,-0.12134 2.00425,-0.05193 2.82451,0.51543c1.54699,1.07004 0.99286,3.70559 0.83895,5.58029c-0.12228,1.48946 -1.26706,2.72556 -1.63967,4.17284c-0.68291,2.65256 -0.85141,5.42653 -1.61592,8.05674l0.10068,0.09768c0,0 0,2.5 -2.5,2.5c-2.5,0 -2.5,-2.5 -2.5,-2.5l0.10068,-1.50236c0.764,-2.58955 0.90936,-5.32906 1.58415,-7.94327c0.34432,-1.33394 0.92825,-2.60303 1.56028,-3.82716c0.17936,-0.3474 1.21536,-0.92538 0.83895,-0.81967c-3.81367,1.07103 -7.60709,2.98892 -11.58358,3.76015c-1.17825,0.22852 -2.42187,0.25902 -3.60047,0.03229c-0.5109,-0.09829 -1.33443,-1.47104 -1.2295,-0.96147c0.12679,0.61574 1.16206,0.74521 1.31074,1.35603c0.71788,2.94903 0.01873,6.07028 0.01873,9.10544c0,0 0,2.5 -2.5,2.5c-2.5,0 -2.5,-2.5 -2.5,-2.5c0,-2.83152 0.10838,-5.66443 0.01873,-8.49453c-0.05333,-1.68325 -1.35144,-3.73715 -0.28922,-5.044c1.08658,-1.33682 3.34919,-0.77871 5.07958,-0.95163c0.00427,-0.19692 0.02492,-0.32085 0.02492,-0.32085z" fill="#696969" stroke-width="0.5"></path>
      <path d="M207.00632,96.12537c-2.42536,0.60633 -3.03168,-1.81903 -3.03168,-1.81903l-0.85745,-3.51378c0.01914,-3.86407 0.08337,-7.71286 0.26927,-11.5598c-0.90014,2.11361 -1.85829,4.20643 -2.8947,6.27308c-1.13941,2.27204 -3.77769,10.01071 -9.06072,6.62735c-1.97217,-1.26302 -1.62682,-4.40598 -2.15054,-6.68861c-1.00508,-4.38066 -0.4717,-9.03139 -0.65302,-13.46886c-0.2066,-5.05617 -0.72584,-10.00558 -0.72749,-15.07572c0,0 0,-2.5 2.5,-2.5c2.5,0 2.5,2.5 2.5,2.5c-0.00343,10.21939 0.4369,20.76714 1.0679,30.92456c0.01881,0.30287 0.27516,-0.5412 0.39963,-0.81795c0.54646,-1.21497 1.06688,-2.44155 1.61293,-3.65671c0.67704,-1.50668 1.37057,-3.00588 2.05628,-4.50863c2.75878,-6.04591 4.86884,-12.23995 6.98803,-18.5336l0.05919,-0.06472l-0.02909,-0.01197l1.41121,-3.42878c0.36074,-0.93715 1.26968,-1.60217 2.33394,-1.60217c1.38071,0 2.5,1.11929 2.5,2.5c0,0.22872 -0.03071,0.45025 -0.08824,0.66072l-1.19907,4.79633l-0.31575,-0.07894c-0.21696,9.02623 -1.46057,18.06384 -1.61413,27.12932l0.74253,2.88624c0,0 0.60632,2.42536 -1.81904,3.03169z" fill="#696969" stroke-width="0.5"></path>
      <path d="M247.1,77.29999c0,0 -2,1.5 -3.5,-0.50001c-0.4041,-0.5388 -0.55418,-1.04131 -0.55778,-1.48798c-1.97091,3.37631 -4.17805,6.609 -6.74409,9.61498c0,0 -1.62699,1.89813 -3.52513,0.27114c-1.89813,-1.62699 -0.27113,-3.52513 -0.27113,-3.52513c8.31521,-9.65747 12.63082,-22.0309 17.59262,-33.60496l0.03567,-0.04524l-0.01178,-0.00569l2.00638,-4.15458c0.3941,-0.86289 1.26464,-1.46253 2.27523,-1.46253c1.12459,0 2.07576,0.74255 2.38994,1.76411l1.56293,4.68872l-0.04446,0.01482c0.06183,0.18952 0.11705,0.38162 0.16482,0.57665c0.12804,0.52275 -1.50021,9.03582 -1.58146,10.05835c-0.25045,3.15223 0.12397,6.32649 0.00664,9.48647c-0.02094,0.56413 -0.04585,1.1276 -0.07458,1.69046c0.19356,0.69406 0.11028,1.24532 -0.09686,1.67561c-0.36466,5.65372 -1.10536,11.25035 -2.09768,16.83799l-0.14075,1.54628c0,0 -0.23944,2.48851 -2.72795,2.24907c-2.48851,-0.23944 -2.24907,-2.72795 -2.24907,-2.72795l0.19491,-1.94234c0.79656,-4.47828 1.4258,-8.96166 1.81845,-13.47808c-1.59491,0.5514 -3.09533,1.43306 -4.42489,2.45985zM251.30106,69.69971l0.57249,-0.19132c0.01003,-0.23238 0.01939,-0.46489 0.02804,-0.69751c0.17904,-4.81497 0.18402,-9.40849 0.7752,-14.00901c-2.60646,6.22568 -5.21278,12.49981 -8.44235,18.40018c2.13097,-1.54314 4.52528,-2.83212 7.06661,-3.50234z" fill="#696969" stroke-width="0.5"></path>
      <path d="M270.98388,59.98198c1.6198,-1.89997 1.94447,-4.25836 1.74845,-6.68151c-0.02752,-0.34018 -0.6877,-1.99022 -1.44631,-2.19742c0.02314,0.39878 -0.03455,0.68722 -0.03455,0.68722c-0.65015,3.24674 -1.31619,6.53447 -1.92048,9.82688c0.75119,-0.08059 1.15319,-1.04903 1.65289,-1.63517zM264.87885,52.77155c0.75905,-1.65165 0.88484,-3.78637 2.27715,-4.95494c3.18962,-2.67703 6.853,-1.58469 9.23075,1.1659c4.19041,4.84747 -0.02179,16.68766 -6.45896,17.59592c-0.48757,0.06879 -0.96419,0.01769 -1.43421,-0.10537c-0.14873,0.93193 -0.28944,1.86281 -0.42034,2.7918c-0.80146,5.68747 -0.46466,11.33947 -1.62683,16.95018l-3.25109,-1.39014l-1.64166,0.3601c0.06988,-0.32595 0.13423,-0.65239 0.19362,-0.97927l-0.24725,-0.10572c0,0 0.00001,-0.86897 0.51232,-1.58228c0.62005,-4.61946 0.455,-9.3144 1.11442,-13.98259c0.34105,-2.41438 0.74669,-4.84089 1.18696,-7.26579l-0.14983,-1.48736c0,0 0.1879,-0.3758 0.56369,-0.74225c0.22347,-1.18032 0.45298,-2.35925 0.68506,-3.53521c-1.19742,-1.07393 -0.53382,-2.73297 -0.53382,-2.73297z" fill="#696969" stroke-width="0.5"></path>
      <path d="M293.26461,86.57741c-2.4774,-0.3354 -2.142,-2.8128 -2.142,-2.8128l0.38317,-2.82342c0.94459,-4.95243 2.14431,-9.82577 3.15643,-14.76416c0.12354,-0.60278 0.23808,-1.20315 0.35046,-1.80031c-2.05074,4.07359 -4.31615,8.10581 -7.39279,11.07144c-0.02576,0.02483 -0.05161,0.04958 -0.07753,0.07422l0.00975,0.00836l-3.2434,3.78393c-0.45859,0.54156 -1.1435,0.88535 -1.90871,0.88535c-1.38071,0 -2.5,-1.11929 -2.5,-2.5v-3c0.00982,-9.47459 1.45633,-18.70354 4.97886,-27.5285c0,0 0.92849,-2.32118 3.24968,-1.39269c2.32119,0.92849 1.39269,3.24968 1.39269,3.24968c-2.80966,7.00813 -4.19568,14.31724 -4.53632,21.79337c0.97697,-1.54837 2.19533,-2.94483 3.2752,-4.8145c2.22881,-3.85893 4.15884,-7.95111 6.3213,-11.86032l1.55829,-3.11662c0.40086,-0.84562 1.26228,-1.43042 2.26029,-1.43042c1.25482,0 2.29372,0.92449 2.47274,2.12951l0.7933,4.75945l-0.04665,0.00777c0.03078,0.1556 0.0575,0.31228 0.07978,0.47014c0.25412,1.80098 -0.76616,3.55604 -1.13893,5.33625c-1.35784,6.48464 -2.87876,12.93714 -4.11953,19.44215l-0.36329,2.69013c0,0 -0.3354,2.4774 -2.8128,2.14199z" fill="#696969" stroke-width="0.5"></path>
      <path d="M308.55003,64.75445c-0.66001,2.91764 -1.02125,5.94621 -1.25532,9.10828c-0.06973,0.94195 -0.37347,5.11404 0.48815,6.55456c0.55789,0.93272 1.57835,-1.53505 2.1196,-2.47752c0.80172,-1.39605 1.5549,-2.81944 2.3404,-4.22467c2.66739,-4.77186 3.01493,-10.50181 2.85869,-15.92727c-0.04101,-1.42408 -0.38955,-2.82476 -0.48914,-4.24595c-0.03249,-0.46361 0.52993,-1.55246 0.0941,-1.39106c-0.60294,0.2233 -0.56567,1.15863 -0.91828,1.69629c-0.7851,1.19711 -1.65959,2.33314 -2.48939,3.49971c-0.84398,2.26485 -1.68864,4.52946 -2.54318,6.79034zM311.15199,49.54325c4.07129,-3.41678 5.72774,-3.41307 8.19529,2.39212c1.18442,2.78648 0.66328,7.4763 0.50402,10.42616c-0.27724,5.1351 -0.7297,9.24293 -3.23767,13.78179c-1.98219,3.58732 -5.41404,12.5331 -11.59652,8.43939c-3.25585,-2.15584 -2.88593,-8.01588 -2.7118,-11.04542c0.14438,-2.51185 0.40359,-4.96084 0.82349,-7.34785c-0.09726,-0.68973 0.09948,-1.27998 0.09948,-1.27998l0.40459,-1.21304c1.04751,-4.55906 2.76404,-8.88466 5.48705,-12.98318c0,0 0.77367,-1.16048 2.03206,-1.16999z" fill="#696969" stroke-width="0.5"></path>
      <path d="M333.11807,55.46395l-0.30861,0.66434c0.75363,-0.24896 4.07918,-1.26689 4.62282,-1.79604c1.87018,-1.82036 2.49278,-7.19598 0.25028,-9.0455c-1.26897,-1.04659 -4.39445,-1.04425 -5.07837,0.79289c-0.13639,0.36637 -0.22246,0.74618 -0.28457,1.13238c0.7067,0.83306 0.56108,1.99806 0.56108,1.99806c-0.2509,2.00104 -0.52728,3.99375 -0.81664,5.98209c0.60059,0.04506 1.05402,0.27178 1.05402,0.27178zM327.14856,48.40971c0.34909,-1.56312 0.25288,-3.29861 1.04726,-4.68936c2.42645,-4.24813 8.62712,-5.48819 12.52172,-2.40712c4.6821,3.70406 4.20756,12.53963 0.25028,16.55454c-1.40317,1.42361 -4.60071,2.34001 -6.57726,3.00395l-3.05464,-0.81459c-0.89904,5.90117 -1.82269,11.79236 -2.44212,17.77796l-0.86174,3.64379c0,0 -0.57888,2.43205 -3.01094,1.85317c-2.43205,-0.57888 -1.85317,-3.01093 -1.85317,-3.01093l0.79613,-3.32145c0.90217,-8.90628 2.52345,-17.59741 3.69959,-26.42838c-0.76855,-0.89445 -0.51513,-2.16158 -0.51513,-2.16158z" fill="#696969" stroke-width="0.5"></path>
      <path d="M355.83224,70.66776l0.96778,-0.06776c-2.40001,0 -4.80001,0 -7.20002,0c0,0 -0.62092,0 -1.24388,-0.30945c-1.81028,2.61762 -3.75274,5.12176 -5.41239,7.89569c0,0 -1.28625,2.14372 -3.42997,0.85747c-2.14373,-1.28625 -0.85748,-3.42997 -0.85748,-3.42997c2.48946,-4.13812 5.63298,-7.6873 7.95428,-11.92053c3.03718,-5.53874 5.76361,-11.34291 8.24929,-17.1457l1.85116,-4.56244c0.35764,-0.94336 1.26973,-1.61395 2.33844,-1.61395c1.31013,0 2.38487,1.00777 2.49133,2.2904l0.46931,4.95139c0.63394,2.53502 0.48408,7.64652 0.48688,10.21163c0.00795,7.29181 0.00304,14.58366 0.00304,21.87548v3.59998c0,0 0,2.5 -2.5,2.5c-2.5,0 -2.5,-2.5 -2.5,-2.5v-3.59998c0,-2.75102 0.00006,-5.50204 -0.00005,-8.25306c-0.96373,-0.07519 -1.66773,-0.7792 -1.66773,-0.7792zM356.80002,65.60001l0.69944,0.41737c-0.00043,-2.72964 -0.00118,-5.45928 -0.00247,-8.18892c-0.00065,-1.3695 -0.17246,-2.74397 -0.33353,-4.11632c-1.83142,4.02907 -3.78494,8.02433 -5.89579,11.88787c1.84411,0 3.68824,0 5.53235,0z" fill="#696969" stroke-width="0.5"></path>
      <path d="M355.30002,315.30002c0,2.5 -2.5,2.5 -2.5,2.5l-3.68009,-1.11324c-2.47046,-3.70565 -5.93004,-7.56083 -7.10667,-11.86928c-2.7467,-1.69982 -3.2285,-4.03727 -5.38103,-6.14973c-0.68622,-0.67344 -1.7215,-0.91871 -2.39996,-1.59997c-0.73591,-0.73895 -1.09799,-1.78166 -1.76562,-2.58282c-2.88185,-3.45821 -6.92431,-6.05165 -9.63713,-9.6464c-0.93666,-1.24117 -1.46708,-2.75608 -2.40004,-4.00002c-0.69783,-0.93043 -1.78287,-1.52943 -2.45756,-2.47678c-0.64812,-0.91007 -0.7435,-2.15856 -1.45632,-3.0189c-0.58344,-0.70418 -1.64743,-0.8585 -2.29293,-1.50626c-3.71661,-3.7296 -6.44878,-10.5783 -11.8132,-12.16488c0,0 -1.54428,-0.51475 -1.72524,-1.95964c-0.00748,0.00533 -0.01495,0.01065 -0.02242,0.01601c-0.94743,0.67874 -1.49589,1.84352 -2.48558,2.45902c-3.65112,2.27071 -7.85909,2.7169 -11.67474,4.2447c-1.42534,0.57072 -2.53916,1.76025 -3.94479,2.37792c-6.68626,2.93811 -14.53835,2.78365 -21.51034,4.17813c-7.16647,0.02053 -15.04156,0.8811 -22.15181,-0.00657c-9.19377,-1.14778 -18.14214,-5.35341 -24.61257,-11.86514c-2.33536,-2.35027 -4.12534,-5.66935 -5.96212,-8.42938c-2.2038,-3.31154 -4.50991,-6.92111 -5.76565,-10.68841c-3.77136,-5.65703 -4.90106,-12.53913 -5.82518,-19.11861c-0.52149,-3.71283 -2.09572,-6.70646 -2.42051,-10.57355c-0.46922,-5.5867 -0.60317,-12.60776 0.02376,-18.20666c1.0642,-9.50385 6.00422,-18.24748 9.02192,-27.09793c1.22744,-1.85263 2.92261,-3.3574 4.21768,-5.16341c1.6184,-2.25689 2.39124,-5.05501 4.05759,-7.27674c2.00666,-2.67546 5.03392,-5.06044 7.40277,-7.42926c4.86966,-4.86961 9.76152,-9.80128 15.80749,-13.24665c1.77819,-1.01332 3.8118,-1.50602 5.64222,-2.42162c6.05646,-3.02954 12.68414,-5.80267 19.51805,-5.86394c19.91623,0 40.90509,1.36685 56.83802,15.01136c4.91467,4.20879 8.06723,9.58828 11.63961,14.8982c1.62248,2.47025 4.17249,6.69115 5.0783,9.35399c2.01868,5.93439 1.04715,12.90134 1.73189,18.99011c0.33468,2.97604 1.33249,5.85762 1.60363,8.84013c0.60046,6.60532 -0.23478,12.77424 -1.65236,19.15466c-0.97006,4.36621 -1.4012,8.5406 -3.42656,12.61544c-1.23028,2.47521 -3.21077,4.84374 -4.76675,7.1345c-1.02141,3.06421 -2.89141,5.11593 -4.7343,7.41494c0.60908,1.21277 -0.23136,2.47343 -0.23136,2.47343c-2.63289,3.87283 -6.29046,6.11972 -9.76567,9.20443c-2.0577,1.82648 -3.80863,3.98946 -5.9295,5.7422c-0.41996,0.34706 -0.87302,0.64563 -1.34418,0.91787c5.80205,2.61095 8.1544,8.40768 12.58353,12.82081c0.76984,0.76706 1.9629,1.05135 2.66006,1.88501c0.81349,0.97278 1.00531,2.35022 1.74376,3.38113c0.6404,0.89402 1.68255,1.4435 2.34238,2.32327c0.93294,1.24394 1.47103,2.75307 2.4,3.99997c1.87631,2.51848 4.77834,4.74417 6.99728,6.9708c1.47016,1.47526 2.52398,3.33058 4,4.79998c0.68138,0.67833 1.7255,0.91477 2.39997,1.59998c2.51898,2.55908 2.77794,4.5018 5.81905,6.65032c1.66728,4.43827 4.66789,8.19255 7.29336,12.13072l-0.48014,-1.11323c0,0 2.5,0 2.5,2.5zM315.51178,241.57643c-0.24608,-0.35488 -0.41178,-0.8328 -0.41178,-1.47642c0,-1.75331 1.22965,-2.27698 1.96418,-2.43339c2.06244,-2.7584 4.34413,-4.82721 5.49004,-8.26495c1.54001,-2.34485 3.571,-4.75942 4.83323,-7.26552c1.81466,-3.60294 2.11158,-7.50677 2.97347,-11.38462c1.3111,-5.8989 2.10402,-11.52457 1.54758,-17.64533c-0.26871,-2.95585 -1.27204,-5.80958 -1.59632,-8.75985c-0.38412,-3.49459 -0.29296,-6.82113 -0.78848,-10.30315c-0.41087,-2.88714 0.38108,-4.52416 -0.67957,-7.50674c-0.82061,-2.30758 -3.05709,-6.08982 -4.5218,-8.24604c-3.32729,-4.96102 -6.21186,-9.99919 -10.76029,-13.90179c-14.93765,-12.81669 -34.93225,-13.78862 -53.562,-13.78862c-5.9581,-0.0687 -12.02543,2.70893 -17.28199,5.33607c-1.8025,0.90086 -3.80956,1.37614 -5.55773,2.37837c-5.59001,3.20478 -10.08284,7.84369 -14.59253,12.35332c-2.22503,2.22501 -5.11095,4.45557 -6.99726,6.97077c-1.62824,2.17109 -2.36863,4.91235 -3.94241,7.12323c-1.12698,1.5832 -2.69735,2.82435 -3.78232,4.43663c-2.7304,8.4626 -7.58233,16.65704 -8.57805,25.70206c-0.57833,5.25345 -0.38995,11.75415 0.02376,16.99335c0.29146,3.69106 1.85099,6.63299 2.37953,10.22651c0.90215,6.13359 1.85294,12.39854 5.37478,17.68132c4.80992,14.43018 17.14549,26.29969 32.45971,28.21714c6.74979,0.84512 14.23776,-0.02864 21.04814,-0.00656c6.46023,-1.29212 13.91563,-1.04422 20.08964,-3.82187c1.43588,-0.646 2.59313,-1.83787 4.05521,-2.42213c3.46024,-1.38276 7.43423,-1.68679 10.72528,-3.7553c0.92906,-0.58393 1.42069,-1.70441 2.31447,-2.34103c1.70934,-1.21751 3.87129,-1.7537 5.47679,-3.10521c2.05388,-1.72895 3.76941,-3.82958 5.77705,-5.61202c2.1468,-1.90599 4.51329,-3.44882 6.51968,-5.37822z" fill="#696969" stroke-width="0.5"></path>
      <path d="M379.0445,302.57265l-3.52464,2.91408c-0.63752,-1.02077 -1.56103,-1.91129 -1.91257,-3.0623c-0.31156,-1.02013 0.24959,-2.1629 0.00001,-3.19993c-0.41314,-1.71658 -2.42459,-2.5714 -3.54062,-3.93954c-1.1485,-1.40793 -1.30367,-3.4606 -2.45345,-4.86749c-0.541,-0.66199 -1.57918,-0.74241 -2.18095,-1.34968c-2.59323,-2.61691 -4.53145,-6.7008 -6.56561,-9.78283c-5.94092,-5.89501 -11.39942,-12.06986 -16.79998,-18.39996c-2.97917,-3.49194 -4.57663,-8.62008 -7.83442,-11.81722c-2.01974,-1.98213 -4.41741,-3.58585 -6.40002,-5.60003c-2.16877,-2.20329 -3.97453,-5.79207 -5.83222,-8.26778c0,0 -1.49998,-2.00001 0.50003,-3.49999c2.00002,-1.49998 3.5,0.50003 3.5,0.50003c1.66251,2.2178 3.37809,5.77962 5.36773,7.73222c2.01974,1.98213 4.41741,3.58585 6.40003,5.60003c3.37824,3.43203 5.02742,8.53982 8.16557,12.18278c5.43829,6.31311 10.89383,12.45434 16.8,18.39997c1.93503,2.87831 3.77999,6.98628 6.23443,9.41724c0.75943,0.75217 1.95758,1.01059 2.61897,1.85027c0.62114,0.78857 0.61306,1.91978 1.059,2.81912c0.84033,1.69471 2.51699,2.8275 3.68758,4.31341c1.42847,1.81324 1.61581,3.28178 1.9136,4.74834c1.85306,0.38903 1.85305,2.4366 1.85305,2.4366l-0.71337,0.5898c0.09003,0.13941 0.18759,0.28051 0.29352,0.4235z" fill="#696969" stroke-width="0.5"></path>
      <path d="M239.23429,152.05715c-0.11593,0.32841 -0.3254,0.66951 -0.6665,1.01061c-0.90464,0.90464 -1.80928,0.8834 -2.47702,0.64699c-5.62487,3.87744 -9.45551,9.36384 -13.21061,14.97198c-1.62428,2.42583 -4.15847,4.30647 -5.43433,6.91168c-0.71911,1.46838 -0.89409,3.15461 -1.53612,4.65829c-2.2163,5.19076 -4.65343,10.4176 -4.62842,16.14878c-1.39751,5.70056 -2.46444,11.73892 -1.61353,17.69409c0.68999,4.82891 3.28887,9.56456 4,14.39996c0.50476,3.43223 0.48075,8.72354 3.30005,11.43271c1.38655,1.33238 3.43408,1.84646 4.79999,3.20001c0.60728,0.60179 0.68046,1.64898 1.3497,2.18103c0.6601,0.52478 1.74655,0.26699 2.40002,0.79999c0.89158,0.72722 1.3439,1.86787 2.01584,2.80181c2.7929,2.91415 8.67583,5.82625 12.86712,6.31721c1.32429,0.15512 2.67699,-0.16538 4.00004,0.00001c4.58186,0.57278 9.65131,1.46318 14.39904,0.80004c1.67034,-0.23331 3.13098,-1.3576 4.80003,-1.60004c2.11117,-0.30666 4.28953,0.3116 6.39997,0c4.49167,-0.6632 8.51056,-1.5631 12.90209,-2.97808c2.40347,-1.63257 4.63767,-2.75988 7.20001,-4c2.60264,-1.25962 4.49709,-3.81106 6.9116,-5.43432l0.4191,-0.4877c0,0 0.75275,-0.75269 1.76701,-0.78456c0.09859,-0.11461 0.19062,-0.23468 0.27401,-0.36196c0.50558,-0.77166 0.35205,-1.8921 0.93986,-2.60312c1.29357,-1.56474 3.58348,-2.01473 5.01905,-3.4503c1.24422,-1.24422 1.91154,-2.95491 2.88759,-4.41898c2.57001,-3.85499 4.96612,-7.62604 7.03435,-11.71164c1.34775,-2.66237 2.56113,-6.79758 2.97808,-9.70207c0.16695,-1.163 -0.24468,-2.39338 0.07499,-3.52398c0.26159,-0.92521 1.3185,-1.48066 1.59997,-2.40002c0.2418,-0.78976 -0.07151,-1.65035 -0.10726,-2.47553c0.01149,-2.1499 0.80005,-4.25006 0.80005,-6.4c0,-0.99937 -0.65447,-1.90324 -0.78132,-2.89453c-0.38623,-3.01818 -0.67704,-4.66396 -1.51901,-7.60652c-0.96408,-3.36931 -2.76756,-7.24876 -3.26743,-10.69851c-0.13752,-0.94908 0.31872,-1.9485 0.07499,-2.87601c-0.46353,-1.76396 -2.368,-2.83973 -3.09356,-4.51305c-0.40555,-0.9353 -0.20892,-2.08046 -0.68921,-2.97967c-0.56561,-1.05896 -3.12291,-2.56223 -4.01123,-3.15161c-3.5784,-2.37421 -7.32181,-4.79327 -11.40381,-6.10841c-1.79726,-0.61455 -3.41318,-1.66804 -5.10782,-2.52593c-1.50471,-0.76174 -3.28819,-0.85238 -4.79997,-1.6c-2.15357,-1.06499 -3.99432,-2.62783 -6.50211,-2.97808c-3.09819,-0.43272 -6.39112,0.40961 -9.50502,0.01355c-0.96094,-0.12222 -1.82988,-0.78041 -2.79856,-0.78309c-0.74411,-0.00206 -1.35913,0.66254 -2.09551,0.76955c-1.05557,0.15339 -2.14294,-0.14284 -3.19999,0c-5.14442,0.69517 -10.00784,4.03645 -15.20002,4.80002c-1.73376,0.25497 -3.55598,0.1247 -5.20987,0.70398c-0.78543,0.26182 -1.57087,0.52362 -2.3563,0.78544zM235.20946,148.12829c1.6,-0.53333 3.2,-1.06666 4.79999,-1.6c1.92222,-0.61729 3.99018,-0.61963 5.99008,-0.89599c5.20775,-0.71965 10.02342,-4.02568 15.2,-4.80002c3.55208,-0.53134 6.00303,-0.44394 9.50591,-0.01355c3.17744,0.39041 6.518,-0.44796 9.69505,0.01355c3.01793,0.4384 5.30521,2.10944 7.89792,3.42194c1.50473,0.76174 3.28821,0.85239 4.8,1.60002c1.50441,0.74397 2.89469,1.75939 4.49214,2.27406c4.50835,1.54157 8.62956,4.03556 12.59619,6.69158c2.07051,1.38639 4.24031,2.59413 5.58875,4.8484c0.60566,1.01253 0.45088,2.33382 0.91076,3.42036c0.78828,1.8624 2.72219,3.1508 3.30647,5.08693c0.33945,1.12483 -0.08879,2.36055 0.07498,3.52401c0.32036,2.27589 1.69889,4.68672 2.33261,6.90148c1.14636,4.00636 1.9826,7.52193 2.48093,11.59349c0.14578,1.19106 0.81878,2.30554 0.81878,3.50549c0,2.14993 -0.81396,4.2501 -0.80005,6.39999c-0.03575,1.30814 0.23379,2.66102 -0.10726,3.92443c-0.25058,0.92826 -1.333,1.47636 -1.59998,2.40002c-0.26629,0.92128 0.20995,1.92654 0.07499,2.87598c-0.47902,3.36984 -1.89812,8.01647 -3.42194,11.09791c-2.11982,4.28666 -4.68396,8.26586 -7.36568,12.28842c-0.31624,0.47437 -3.28755,4.95624 -3.51231,5.181c-1.28424,1.28424 -3.48149,1.5042 -4.58104,2.94972c-0.46291,0.60856 -0.23149,1.56364 -0.66013,2.1968c-0.74168,1.09557 -1.8392,1.9023 -2.75881,2.85345c0,0 -0.79534,0.79537 -1.85255,0.78561c-1.38018,1.03215 -2.59248,2.2887 -3.9303,3.38c-2.94644,2.40351 -6.85789,3.79189 -10.08655,5.9124c-4.82513,1.65001 -9.33512,2.7336 -14.29799,3.42195c-2.11309,0.29309 -4.28715,-0.29507 -6.39997,0c-1.67032,0.23328 -3.13093,1.35757 -4.79995,1.60003c-5.25573,0.76349 -10.91462,-0.16422 -16.00098,-0.80005c-1.32303,-0.16539 -2.6781,0.17443 -3.99996,0.00001c-5.62183,-0.74183 -12.03906,-4.2887 -15.93293,-8.0827c-0.3947,-0.66608 -0.57384,-1.52177 -1.18411,-1.99823c-0.66469,-0.51895 -1.74295,-0.27143 -2.40002,-0.79999c-0.83286,-0.66997 -1.09808,-1.85958 -1.85025,-2.61902c-2.51112,-2.53537 -5.04022,-2.73488 -6.87804,-6.26935c-1.83516,-3.52935 -2.10198,-7.33572 -2.6219,-11.09793c-0.6671,-4.8273 -3.30958,-9.56618 -4,-14.40003c-0.90837,-6.35973 0.02518,-13.01209 1.58642,-19.1059c0.02536,-6.16832 2.56851,-11.86611 4.97155,-17.45126c0.48344,-1.12361 1.15787,-3.94418 1.66396,-4.94169c1.02894,-2.02803 2.85245,-3.54296 4.31242,-5.28656c2.45302,-2.92957 3.95284,-6.65996 6.39997,-9.60001c2.85962,-3.43563 6.45499,-6.81331 10.14665,-9.29517c0,0 0.60142,-0.40095 1.37308,-0.44827z" fill="#696969" stroke-width="0.5"></path>
      <path d="M288.80002,204.20001c-0.20559,0 -0.39427,-0.01691 -0.56744,-0.04793l-1.31824,1.27454c-3.96736,1.41891 -7.97639,3.50819 -12.1139,4.3411c-1.09194,0.21982 -2.23489,-0.10805 -3.34149,0.01883c-8.91891,1.02265 -19.32709,1.5128 -27.24569,-3.60641c0,0 -0.2044,-0.13627 -0.44234,-0.38745c-0.15764,-0.01027 -0.30434,-0.03111 -0.44085,-0.06104c1.31727,1.93224 3.54164,5.74974 3.66147,5.96533c1.68589,3.03315 3.22555,6.17405 4.4658,9.41067c4.05973,-4.04899 8.60915,-8.3674 14.36827,-9.84076c1.12034,-0.28662 2.32158,0.0964 3.46893,-0.04814c5.304,-0.66821 10.10136,-2.42014 15.50548,-2.41876c1.98611,0.00051 4.12149,0.05057 6.26725,0.26422c-0.0113,-0.85512 0.45263,-1.551 0.45263,-1.551c1.5944,-2.3472 1.7987,-4.4188 3.03432,-6.91157c2.89919,-5.84891 6.53381,-10.85639 12.02134,-14.55612c1.01047,-0.68127 1.92376,-1.61933 3.09997,-1.93826c3.02971,-0.8215 4.49126,-0.02158 7.11505,0.821l1.77724,1.404c0,0 1.76773,1.7678 -0.00007,3.53553c-1.7678,1.76773 -3.53553,-0.00007 -3.53553,-0.00007l0.17726,-0.19604c-3.80845,-1.33392 -5.41143,-0.25279 -8.45396,2.3969c-5.72589,4.98658 -6.99262,11.78379 -10.81932,17.82126c3.11298,0.79255 6.01189,2.14606 8.23156,4.44239c2.47492,2.56039 2.73644,5.78263 3.80396,8.97722c0.26666,0.80001 0.53332,1.60002 0.79999,2.40002l-3.1717,3.29055c0,0 -2.5,0 -2.5,-2.5c0,-0.49882 0.09953,-0.89811 0.25887,-1.21773c-0.04352,-0.13058 -0.08706,-0.26117 -0.13058,-0.39175c-0.72222,-2.17177 -0.85213,-5.37402 -2.59606,-7.02278c-4.07731,-3.85479 -10.57264,-4.06933 -15.83221,-4.06778c-5.15573,0.00152 -9.81498,1.75141 -14.89455,2.38129c-0.96974,0.12025 -1.98145,-0.2784 -2.93109,-0.04814c-4.97556,1.20642 -8.96732,5.49538 -12.40659,8.93465c0,0 -0.64628,0.64628 -1.54807,0.76654c0.92012,3.33548 1.46507,6.76143 1.48032,10.26569c-0.03047,3.39914 -0.58428,7.33954 -1.79033,10.55668c-0.35546,0.94818 -1.20496,1.63902 -1.66388,2.54167c-0.43372,0.85308 -1.29788,4.61661 -1.42041,5.10796l-1.45764,1.96147c0,0 -1.76777,1.76776 -3.53553,0c-1.76776,-1.76776 0,-3.53553 0,-3.53553l0.14246,0.36138c1.4744,-5.88403 4.79671,-10.80506 4.72535,-16.99364c0.03946,-7.78259 -3.14953,-15.25796 -6.89153,-21.99699c-1.09814,-1.97767 -1.81129,-4.32727 -3.5337,-5.7937c-1.68737,-1.4366 -4.1026,-1.7263 -5.98271,-2.89943c-1.38181,-0.8622 -2.38229,-2.27074 -3.80166,-3.0696c-0.83132,-0.46789 -1.87014,-0.38494 -2.78936,-0.64c-5.06243,-1.40472 -9.32436,-3.43791 -13.91428,-0.32018c0,0 -2.08013,1.38675 -3.46688,-0.69338c-1.38675,-2.08013 0.69338,-3.46688 0.69338,-3.46688c1.79675,-1.18007 3.66663,-2.75555 5.99119,-2.81221c3.91824,-0.09551 8.3542,1.3973 12.09453,2.49203c1.19519,0.34982 2.5162,0.36567 3.61054,0.96004c1.49794,0.81358 2.56221,2.27278 4.00705,3.17732c1.90831,1.19469 4.21535,1.76024 6.09197,2.97231c-0.10853,-0.40055 -0.10854,-0.70937 -0.10854,-0.70937c0,-3.48755 0.47786,-6.51376 0.81872,-9.90544c0.44621,-4.43995 0.33673,-8.76098 2.66685,-12.85482c2.02946,-3.56561 6.21387,-7.86155 9.79248,-9.79514c3.52783,-1.90615 4.44246,-0.71747 8.11649,-1.12586c2.89596,-0.3219 5.81013,-1.10973 8.70594,-0.78647c6.28512,0.70161 11.95795,5.66155 16.12613,9.95342c1.28442,3.5934 3.12024,7.59486 3.55465,11.40886c0.02453,0.21537 0.01873,7.90887 0.01873,8.30545v3.20001c0,0 0,2.5 -2.5,2.5zM286.30002,198.5c0,-2.56485 0.29343,-5.14444 0.01873,-7.69455c-0.33938,-3.15053 -1.94933,-6.36144 -2.84538,-9.39113c-3.29841,-3.15059 -7.89986,-7.11959 -12.67379,-7.64662c-2.43166,-0.26845 -4.86258,0.5435 -7.29406,0.81357c-1.91704,0.21293 -4.58177,-0.46661 -6.47485,0.62717c-2.66611,1.54043 -6.06673,4.92814 -7.61617,7.65184c-2.04532,3.59538 -1.74667,7.25995 -2.1332,11.14518c-0.27213,2.73535 -0.64207,5.10535 -0.75032,7.78348c0.28142,0.11469 0.45578,0.23093 0.45578,0.23093c3.01068,2.0944 6.12796,1.97864 9.65496,2.86386c4.9026,1.23048 9.32827,0.49591 14.29942,-0.07031c1.01294,-0.11538 2.05804,0.21533 3.05842,0.01884c3.53936,-0.69519 6.83294,-2.63101 10.28613,-3.65891l1.9466,-2.04115c0,0 0.02348,-0.02348 0.06775,-0.06233z" fill="#696969" stroke-width="0.5"></path>
      <path d="M269.26776,198.57417c-0.68039,0.09019 -1.25832,-0.10245 -1.25832,-0.10245c-2.06766,-0.69097 -4.50616,-0.61918 -6.2495,-1.92817c-7.34787,-5.51713 0.31494,-13.37715 6.08337,-15.55326c1.5688,-0.59182 3.4411,-1.57706 4.95627,-0.85898c2.15686,1.02218 3.68023,3.25396 4.67517,5.42351c0.72694,1.58515 0.36332,3.4904 0.20931,5.22747c-0.35637,4.01951 -1.35244,4.43657 -3.68402,7.6177l-2.79999,1.00001c0,0 -1.19465,0 -1.93229,-0.82583zM270.69301,194.43556c1.7819,-2.65007 4.17873,-7.56518 0.50747,-9.56687c-0.47493,-0.25895 -0.97508,0.4709 -1.44376,0.74099c-1.81197,1.0442 -6.57789,2.86911 -5.764,5.76584c0.50904,1.81173 4.06438,1.84279 5.59787,2.35277c0,0 0.60532,0.20178 1.10241,0.70726z" fill="#696969" stroke-width="0.5"></path>
      <path d="M227.83224,245.06779c-1.76776,-1.76776 0,-3.53553 0,-3.53553l1.85809,-1.58897c-0.37059,-5.92636 -0.578,-8.62554 -4.97979,-13.20054c-1.21632,-1.26417 -4.71855,-2.48705 -6.44874,-2.21461c-0.26319,0.04145 0.18822,0.50647 0.20595,0.77232c0.06211,0.93118 0.02152,1.86637 0.03228,2.79955c0,0 0,2.5 -2.5,2.5c-2.5,0 -2.5,-2.5 -2.5,-2.5c0.0178,-1.98516 -0.42485,-6.28911 1.83821,-7.62808c3.45169,-2.04225 10.07097,-0.00619 12.75121,2.58532c2.50394,2.42104 5.80159,6.58248 6.3783,10.24228c0.20007,1.26964 -0.13241,7.88996 -0.15802,8.55718l-2.94196,3.21108c0,0 -1.76777,1.76776 -3.53553,0z" fill="#696969" stroke-width="0.5"></path>
      <path d="M281.60001,241.80002c-2.5,0 -2.5,-2.5 -2.5,-2.5l0.07464,-0.19366c-0.38963,-1.56234 -0.19473,-3.40113 -1.16138,-4.68888c-2.13716,-2.84707 -6.49674,-0.64868 -7.97694,1.56263c-0.77963,1.1647 -0.83119,2.67706 -1.23603,4.01888c-0.71334,2.36435 -1.56788,3.00435 0.79028,3.32927c0,0 2.37171,0.79056 1.58116,3.16227c-0.79055,2.37171 -3.16227,1.58116 -3.16227,1.58116c-1.12574,-0.46797 -2.56355,-0.49606 -3.37723,-1.40393c-2.38826,-2.66472 -1.49282,-5.18422 -0.63254,-8.06672c0.55264,-1.85173 0.80909,-3.89118 1.92632,-5.46793c3.67653,-5.18867 11.59672,-7.18588 16.06078,-1.75061c0.77844,0.9478 1.75813,5.39199 2.03857,6.51119l0.07464,1.40632c0,0 0,2.5 -2.5,2.5z" fill="#696969" stroke-width="0.5"></path>
      <path d="M315.03609,201.38197c1.11804,2.23607 -1.11804,3.35411 -1.11804,3.35411l-0.63789,-0.04932c-1.28335,1.90889 -3.15163,3.35951 -4.57047,5.16996c-0.23186,0.29586 -0.32575,0.84646 -0.07363,1.12526c0.64703,0.71551 1.64263,1.01202 2.46394,1.51803c0,0 2,1.5 0.50001,3.5c-1.5,2 -3.5,0.50001 -3.5,0.50001c-1.31203,-1.09399 -3.21121,-1.7351 -3.93608,-3.28196c-2.49408,-5.32236 2.56512,-7.68246 4.956,-11.30482l2.56206,-1.6493c0,0 2.23606,-1.11803 3.3541,1.11804z" fill="#696969" stroke-width="0.5"></path>
      <path d="M195.36776,202.66778c-1.76779,1.76775 -3.53553,-0.00003 -3.53553,-0.00003l0.95839,-0.99605c-0.80001,0.26667 -1.60002,0.53334 -2.40002,0.80002c0,0 -0.75669,0.25223 -1.55772,0.04434c-3.58089,2.19747 -8.8459,6.52624 -8.73286,11.18395c0.03666,1.51044 0.96382,6.08961 1.8868,7.28254c2.07197,2.67801 8.27517,1.63803 10.82263,0.74574l0.62287,-0.99607c0,0 1.7678,-1.76773 3.53554,0.00007c1.76773,1.7678 -0.00007,3.53554 -0.00007,3.53554l-2.5772,2.20388c-4.8947,1.57188 -12.66184,2.12367 -16.37732,-2.45421c-0.76424,-0.94162 -1.77211,-5.39809 -2.03862,-6.51116c-0.30314,-1.26605 -0.8938,-2.50463 -0.87463,-3.80633c0.10115,-6.87 6.34867,-12.52916 11.61379,-15.74375c0,0 1.08558,-0.65135 2.17522,-0.2545c0.77347,-0.25783 1.54696,-0.51566 2.32043,-0.77349l4.15834,2.20396c0,0 1.76775,1.76778 -0.00004,3.53553z" fill="#696969" stroke-width="0.5"></path>
      <path d="M194.66929,213.00346c0.23007,0.12241 0.46426,0.29454 0.69845,0.52873c1.7678,1.76773 0.00007,3.53554 0.00007,3.53554l-2.56779,1.53229c-1.65592,-0.24408 -4.06229,0.67552 -4.96778,-0.73223c-4.68709,-7.28693 0.46739,-7.55396 4.36143,-8.99314c0,0 2.42535,-0.60635 3.0317,1.819c0.27882,1.11526 -0.0834,1.8459 -0.55608,2.30982zM192.4913,213.75229c-1.3341,0.15182 -1.53855,0.72917 0,0z" fill="#696969" stroke-width="0.5"></path>
      <path d="M133.62832,256.10943c0.79057,-2.37171 3.16228,-1.58114 3.16228,-1.58114l1.76474,0.67653c4.34846,-0.9406 8.30222,-2.9976 10.26725,-7.07794c0.37623,-2.1746 0.4933,-4.48102 -0.0479,-6.62053c-1.06526,-4.21129 -4.63174,-9.09256 -9.57465,-9.30636c-0.75804,-0.03279 -3.40446,1.97572 -3.46318,2.01256c-3.87733,2.43234 -6.64886,3.50408 -8.68943,7.78251c-1.52129,3.18966 -4.4245,10.80624 0.94317,12.53323c0.76561,0.24633 1.60626,-0.08552 2.40939,-0.12829c0,0 2.5,0 2.5,2.5c0,2.5 -2.5,2.5 -2.5,2.5c-1.33017,-0.04276 -2.75614,0.36921 -3.99051,-0.12829c-6.22561,-2.5092 -7.20143,-8.53622 -5.81441,-14.34034c1.82743,-7.64706 6.21255,-11.04748 12.46805,-14.94389c2.0415,-1.2716 3.50016,-2.73786 6.13692,-2.78749c4.18649,-0.07881 9.06394,3.50959 11.53332,6.51506c2.2664,2.75843 2.03952,3.13819 2.89202,6.5786c0.75198,3.03475 0.4529,6.29331 -0.0479,9.37947c-0.68604,1.34293 -1.08962,2.87286 -2.05811,4.02877c-3.35306,4.00192 -8.44611,5.5734 -13.27474,6.49327l-3.03518,-0.92345c0,0 -2.37171,-0.79057 -1.58114,-3.16228z" fill="#696969" stroke-width="0.5"></path>
      <path d="M140.09227,249.12636c0.1118,0.46594 0.07472,1.02982 -0.25619,1.69165c-1.11802,2.23607 -3.3541,1.11806 -3.3541,1.11806c-1.40287,-0.84057 -3.45101,-1.07236 -4.20862,-2.52172c-2.83284,-5.41947 2.81078,-14.64443 9.45189,-8.72362c1.51172,1.34775 0.93771,3.94049 1.40657,5.91074zM136.32615,245.89868c0.32223,-0.43554 0.68708,-0.67878 0.68708,-0.67878l1.45498,-0.4214c-0.77042,-1.94854 -2.05749,-0.23791 -2.14206,1.10019z" fill="#696969" stroke-width="0.5"></path>
      <path d="M176.72604,262.05956c-0.0206,-0.14179 -0.0319,-0.27662 -0.0349,-0.40484c-0.68052,-0.8968 -1.5451,-1.74203 -1.56901,-2.82282c-0.03756,-1.69781 0.35455,-3.89518 1.81608,-4.75999c3.19997,-1.89346 11.58064,-0.34529 10.29493,5.8025c-0.4761,2.27656 -3.85816,2.59848 -5.78724,3.89773l-1.11483,0.2375c0.14612,0.02625 0.29922,0.06524 0.45954,0.11868c2.37171,0.79057 1.58114,3.16228 1.58114,3.16228c-0.50573,1.1612 -0.46468,2.77906 -1.51719,3.48359c-8.93567,5.98134 -14.80195,-5.69918 -16.10218,-12.60999c-1.71881,-9.13562 9.44213,-18.51065 18.222,-16.49732c1.2605,0.28905 2.28114,1.23695 3.49301,1.68839c1.07843,0.40172 2.2889,0.39903 3.34403,0.85847c3.71276,1.61667 6.04887,4.39194 8.40308,7.52599c2.04568,6.13718 1.43255,12.94068 -3.81261,17.47967c-1.07288,0.92843 -2.51848,1.30746 -3.77773,1.96119l-4.09564,1.64062c0,0 -2.32119,0.92849 -3.24968,-1.39269c-0.92849,-2.32119 1.39269,-3.24968 1.39269,-3.24968l3.90435,-1.55945c4.98262,-2.35377 6.99668,-7.19807 5.20972,-12.55914c-2.7132,-3.62615 -4.99304,-4.48149 -9.05295,-6.01557c-1.02167,-0.38605 -1.85529,-1.21711 -2.90702,-1.51156c-2.40562,-0.67349 -5.03477,0.69513 -6.84206,2.05884c-2.16052,1.63025 -4.91022,3.30571 -5.31465,6.30135c-0.50812,3.76362 1.897,9.29183 4.59287,11.97855c1.29255,1.28816 3.25735,0.57366 3.36653,-1.16242c0,0 0.35567,-1.06699 1.30555,-1.53108c-0.75829,-0.06973 -1.96505,-0.44836 -2.20784,-2.11882zM180.8235,259.10971c0.53504,-0.06327 1.05974,-0.15908 1.5434,-0.38407c0.3484,-0.16207 -0.71116,-0.30041 -1.08493,-0.38956c-0.46539,-0.111 -0.94633,-0.14189 -1.42019,-0.20797c-0.50236,-0.07006 0.34261,0.49318 0.96172,0.9816z" fill="#696969" stroke-width="0.5"></path>
      <path d="M137.76782,307.46773c-1.76775,1.76779 -3.53554,0.00003 -3.53554,0.00003l-3.36562,-3.38277c-3.61323,-5.45387 -3.62198,-11.85115 -6.49477,-17.72322c-0.60334,-0.59456 -2.63312,-2.81172 -3.69124,-3.13696c-2.732,-0.83976 -6.01731,-0.94615 -8.04843,-2.95702c-1.94967,-1.93023 -2.77586,-4.40626 -3.11275,-7.05658c-0.07793,-0.61306 0.29188,-6.19379 -0.58125,-7.0831c-0.48884,-0.4979 -1.3511,0.53835 -2.04364,0.45316c-3.78457,-0.46551 -5.28572,-1.11408 -6.80429,-4.72457c-2.57312,-6.11774 0.6859,-10.85246 0.62022,-16.72814c-0.03652,-3.26767 -1.2571,-2.6343 -3.11995,-1.85685c0,0 -2.37172,0.79055 -3.16227,-1.58117c-0.79055,-2.37171 1.58116,-3.16226 1.58116,-3.16226c1.06353,-0.30943 2.08611,-1.01184 3.19058,-0.92827c4.3701,0.33067 5.83643,2.68907 6.48952,7.07142c0.23548,1.58012 -0.54144,3.14908 -0.83813,4.71887c-0.69864,3.6966 -1.23217,6.84153 -0.14176,10.55299c1.00924,3.43512 5.13963,0.15211 7.15207,2.12861c4.58071,4.49891 0.31898,10.59235 4.306,14.66037c1.97007,2.01011 3.35173,0.77826 6.3516,1.84291c2.30785,0.81905 4.2945,3.23264 5.90874,4.86304c1.89953,3.74032 2.46835,4.40812 3.57877,8.8003c0.99522,3.93652 0.60482,5.52348 2.72651,8.67654l3.0344,3.01714c0,0 1.76779,1.76774 0.00004,3.53553z" fill="#696969" stroke-width="0.5"></path>
      <path d="M394.56777,222.66778c-1.34005,1.34002 -2.68008,0.64844 -3.2501,0.23532c0.11302,0.95785 -0.43752,1.78367 -0.43752,1.78367c-3.85811,5.65324 -10.709,7.5523 -13.71716,14.06282c-1.54913,3.35276 0.49696,8.00236 -0.32986,11.52477c-1.13641,4.84123 -6.04179,9.50971 -9.64812,12.55898c-0.59123,0.4999 -1.46813,0.61984 -1.99819,1.18419c-1.39008,1.47997 -0.05855,4.06927 -0.31909,6.08291c-0.33012,2.55138 -1.43821,3.7318 -2.78754,5.78632l-1.11237,1.18103c0,0 -1.76777,1.76776 -3.53553,0c-1.76776,-1.76776 0,-3.53554 0,-3.53554l0.48762,-0.41894c0.74367,-1.09487 1.88412,-2.37101 2.01238,-3.81377c0.28177,-3.16929 -0.76729,-5.54118 1.281,-8.317c0.68313,-0.92577 1.93282,-1.26175 2.80174,-2.01589c2.61263,-2.26752 7.1446,-6.1668 7.95185,-9.84104c0.84895,-3.86399 -1.13698,-8.31366 0.52318,-12.15471c0.44293,-1.0248 4.36262,-6.79253 5.65601,-7.93621c3.12517,-2.76342 6.29602,-3.59438 8.57384,-7.12142c0,0 0.9692,-1.4538 2.50248,-1.12038l-0.10244,-0.10612c-1.90929,-2.93377 -3.67991,-7.07093 -4.37478,-10.51399c-0.38647,-1.91494 0.25831,-4.08138 -0.61644,-5.82814c-0.57371,-1.14563 -1.09119,-2.35791 -1.938,-3.31943c-0.69358,-0.78752 -1.92901,-0.98264 -2.57747,-1.8077c-0.6203,-0.78924 -0.60331,-1.92472 -1.05902,-2.81915c-2.23405,-4.38482 -4.50361,-8.72077 -6.26854,-13.37172c-3.33254,0.49741 -5.4706,2.03807 -8.79998,0c-5.62509,-3.4434 -6.33596,-10.99751 -10.20504,-15.72475c-2.4502,-2.99366 -5.98532,-2.10222 -9.25375,-3.2244c-1.54761,-0.53136 -3.12671,-1.21513 -4.31554,-2.33947c-0.70589,-0.6676 -0.47597,-1.93114 -1.03798,-2.72367c-1.31937,-1.86053 -2.91348,-3.62149 -4.84958,-4.82723c-0.32293,-0.20111 -6.44138,-2.3658 -6.79156,-2.71932c-0.85795,-0.86616 -0.93595,-2.2515 -1.40393,-3.37724c0,0 -0.79055,-2.37171 1.58116,-3.16226c2.37171,-0.79055 3.16226,1.58116 3.16226,1.58116c0.35805,2.59867 3.86674,2.03842 6.20454,3.50348c1.10074,0.68982 1.87457,1.79916 2.7915,2.71933c1.20004,1.20427 2.56621,2.27324 3.55887,3.65345c0.41865,0.5821 0.08201,1.54367 0.562,2.07631c1.54073,1.70979 4.47213,1.09078 6.71398,1.61171c2.73548,0.63563 4.97923,1.83385 6.91681,4.02444c3.75534,4.24572 4.38221,11.00621 8.99491,14.67522c1.41932,1.12895 1.33015,-0.24402 3.08519,-0.34109c1.90541,-0.10538 3.80987,0.22739 5.71479,0.34109c1.8103,3.14196 3.50944,5.83943 4.96627,9.10249c0.96123,2.15299 2.12948,4.20762 3.16521,6.32577c0.30067,0.6149 0.10717,1.45143 0.54095,1.9809c0.55403,0.67624 1.66137,0.72196 2.22258,1.39225c1.17397,1.40216 2.04476,3.04456 2.86192,4.68057c1.04874,2.09964 0.52781,4.66962 0.98367,6.97191c0.53156,2.68463 2.06051,6.41321 3.62521,8.68597l1.28765,1.21903c0,0 1.76776,1.76778 -0.00003,3.53553z" fill="#696969" stroke-width="0.5"></path>
      <path d="M315.83224,314.66776c-1.76776,-1.76776 0,-3.53553 0,-3.53553l3.30537,-3.29944c5.38315,-4.2575 9.39902,-9.04466 13.18225,-14.71951c0,0 1.38675,-2.08012 3.46688,-0.69337c2.08013,1.38675 0.69338,3.46687 0.69338,3.46687c-4.01239,6.01858 -8.31369,11.16315 -14.0177,15.6804l-3.09465,3.10058c0,0 -1.76777,1.76776 -3.53553,0z" fill="#696969" stroke-width="0.5"></path>
      <path d="M107.682,218.33609c-2.23607,-1.11802 -1.11806,-3.3541 -1.11806,-3.3541l0.53606,-0.48199c0.1573,-1.11274 0.36683,-2.21935 0.47189,-3.33822c0.06161,-0.65615 -1.37158,0.44622 -1.69258,1.02179c-0.65934,1.18223 -0.73841,2.60468 -1.10761,3.90701c0,0 -0.79059,2.37171 -3.16229,1.58112c-2.3717,-0.79059 -1.58111,-3.16229 -1.58111,-3.16229c0.26278,-0.71362 0.43596,-1.47998 0.62267,-2.23838c-0.91993,1.41892 -1.69639,2.9091 -2.1528,4.53303c3.24115,8.38475 16.30989,5.32929 18.26876,-2.87844c0.20324,-0.85157 -0.0602,-1.75016 -0.06687,-2.62562c-0.02567,-3.3699 -0.60608,-12.90817 -6.37558,-11.20725c-0.89175,0.26289 -3.5389,3.15557 -3.75668,3.37504c0,0 -0.12774,0.12774 -0.34889,0.28021c0.00576,0.01123 0.0115,0.02256 0.0172,0.03397c0.71703,1.43405 0.05451,2.40825 -0.51299,2.92261c2.15699,-0.67977 4.59328,-0.55115 5.90501,1.53368c1.11469,1.77167 0.31459,4.1745 0.47189,6.26175l-1.06391,2.71803c0,0 -1.11802,2.23607 -3.3541,1.11806zM102.55716,202.86497c-0.91209,-1.54555 0.4751,-2.93272 0.4751,-2.93272c1.5042,-1.49418 3.66546,-4.01218 5.84329,-4.62497c0.79439,-0.22352 1.54441,-0.3533 2.25201,-0.39924c-1.54518,-0.41399 -3.16808,-0.99346 -4.23298,-1.12679c-2.01579,-0.25238 -4.06302,0.01874 -6.09455,0.01874c0,0 -2.5,0 -2.5,-2.5c0,-2.5 2.5,-2.5 2.5,-2.5c0.37351,0 6.50978,-0.0057 6.70549,0.01873c1.19206,0.14882 2.36238,0.4724 3.50083,0.85593c0.60449,0.20364 1.09502,1.11775 1.69219,0.89353c0.59704,-0.22416 0.22748,-1.34235 0.68539,-1.78623c0.71616,-0.69421 1.9638,-0.68491 2.6298,-1.42737c0.22373,-0.24941 -0.55008,-0.41114 -0.72341,-0.69788c-1.10198,-1.82306 -2.38228,-3.5687 -3.17659,-5.54531c-0.3153,-0.7846 0.14945,-1.82901 -0.34802,-2.51279c-0.33007,-0.45368 -1.15968,-0.00704 -1.66403,-0.25282c-1.09024,-0.5313 -2.17484,-1.15952 -3.01968,-2.02966c-3.31473,-3.41398 -4.2229,-6.29737 -2.21375,-10.51466l-1.45496,-0.42136c0,0 -2.08013,-1.38675 -0.69338,-3.46688c0.50499,-0.75749 1.10192,-1.05524 1.65687,-1.12763c-0.07449,-0.11108 -0.14569,-0.23329 -0.21285,-0.3676c-1.11801,-2.23607 1.11806,-3.3541 1.11806,-3.3541c2.29588,-1.13682 5.6552,-3.22709 8.41953,-2.49572c1.08866,0.28803 1.15336,2.02881 2.0896,2.65459c0.68814,0.45996 1.62815,0.44393 2.45354,0.38206c2.87419,-0.21546 5.91052,-2.93532 8.58366,-3.17705c3.19992,-0.28938 6.1557,1.95709 9.341,2.37794c0.8368,0.11056 1.60988,-0.50965 2.4244,-0.73109c3.16543,-0.86058 6.35548,-1.49088 9.50735,-2.37493c3.32514,-0.93265 4.63934,-1.29389 8.29944,-0.86744c0.49879,0.05811 2.0958,1.34386 2.88202,0.48096c0.60958,-0.66902 0.97531,-1.52496 1.46296,-2.28743c2.7083,-1.40056 7.71906,-4.5513 11.1586,-4.62396c1.13016,-0.02388 2.16563,0.7842 3.29595,0.79817c1.7743,0.02194 3.64045,-0.37302 5.16823,-1.27551c0.89767,-0.53027 1.32223,-1.64572 2.16999,-2.2526c0.92262,-0.66046 2.19841,-0.75284 3.0599,-1.49126c1.05569,-0.90489 1.45764,-2.43601 2.54006,-3.30874c0.80441,-0.64857 1.95805,-0.6683 2.9051,-1.08159c1.9232,-0.83928 3.57824,-2.20417 5.45829,-3.1361c2.32922,-1.15457 7.11223,-2.89538 9.42561,-3.40909c2.48621,-0.55209 5.22174,0.19606 7.60898,-0.69116c4.81831,-1.79072 6.91376,-5.73289 12.85436,-4.02567c1.28147,0.36827 2.13335,1.59999 3.20002,2.4c3.2027,-0.13756 5.41637,-1.5479 8.08494,-3.221l3.92448,-0.10728c0,0 2.5,0 2.5,2.5c0,2.5 -2.5,2.5 -2.5,2.5l-2.47554,-0.10727c-3.73164,2.70245 -6.57749,3.26352 -11.11501,3.17896c-1.06667,-0.8 -1.96238,-1.90397 -3.20002,-2.39999c-3.1818,-1.2752 -7.12888,3.11092 -9.54566,3.97432c-2.64937,0.94651 -5.64476,0.29809 -8.39102,0.90888c-3.51834,0.78251 -7.32907,2.75149 -10.41789,4.50736c-1.69515,0.96364 -3.92111,0.98699 -5.39309,2.26583c-0.96356,0.83713 -1.29074,2.2606 -2.25986,3.09128c-0.94953,0.81389 -2.32179,0.98277 -3.34012,1.70874c-0.99381,0.70848 -1.56392,1.9533 -2.63006,2.5474c-0.37712,0.21015 -7.16765,1.9196 -7.63169,1.92449c-1.0686,0.01126 -2.03585,-0.77164 -3.10408,-0.80186c-2.08669,-0.05904 -6.4533,2.61891 -8.04147,3.37604c-0.57899,0.83752 -0.8937,1.94199 -1.73699,2.51255c-3.73793,2.52907 -6.09504,0.02413 -10.01201,0.49451c-4.1176,0.49447 -8.44475,2.20131 -12.49912,3.14411c-1.32124,0.30724 -2.6254,0.9991 -3.97563,0.86889c-3.36249,-0.32428 -4.7893,-2.81805 -8.25897,-2.42205c-1.01981,0.11639 -1.74598,1.1051 -2.70439,1.47252c-2.03875,0.78158 -4.13021,1.83349 -6.31206,1.75046c-1.8915,-0.07198 -3.85698,-0.36437 -5.54645,-1.21798c-0.71871,-0.36313 -0.39719,-1.7715 -1.11036,-2.1454c-0.48591,-0.25475 -0.94559,0.55751 -1.43116,0.81293c-0.97499,0.51287 -1.96624,0.99423 -2.94936,1.49134c0,0 -0.27714,0.13856 -0.68506,0.22056l2.6989,2.24188c-0.31911,2.16162 -1.5409,4.47011 -0.76015,6.5109c1.35573,3.5437 4.68114,2.3282 6.66262,4.69196c0.87452,1.04324 0.69192,2.64648 1.25196,3.88724c1.12682,2.49646 5.31356,6.62189 4.10001,9.7568c-0.60871,1.57245 -2.58741,2.17081 -3.77011,3.37262c-0.9177,0.93254 -1.26837,2.61561 -2.51468,3.01376c-0.08624,0.02755 -0.1775,0.04955 -0.27329,0.06644c5.62441,1.94016 7.50551,10.35153 7.47184,16.00175c-0.0075,1.25831 0.2468,2.55579 -0.06688,3.7744c-2.39169,9.29163 -12.27812,13.571 -20.82372,10.59734c-1.03172,-0.35901 -2.23363,-0.44228 -3.07118,-1.1436c-3.14633,-2.63453 -3.16777,-4.11606 -4.23642,-7.5322c1.23168,-5.24289 3.69723,-8.52588 6.89815,-12.79592zM104.4,207.20001c-0.01437,0.01915 -0.02875,0.03829 -0.04315,0.05744c0.04444,-0.02214 0.0892,-0.04399 0.13423,-0.06555z" fill="#696969" stroke-width="0.5"></path>
      <path d="M161.4323,211.4678c-0.24319,-0.24319 -0.41948,-0.48637 -0.54265,-0.72496c-0.3875,0.32889 -0.76112,0.47834 -0.76112,0.47834c-2.82811,1.10041 -5.89383,1.774 -8.92848,1.77882c-4.28017,0.0068 -4.41514,0.2557 -9.03581,-1.83244c-6.91909,-3.12682 -8.40606,-10.59876 -5.20997,-16.96596c3.32073,-6.61552 13.82166,-12.75009 21.37019,-10.89432c1.04787,0.25761 5.61882,3.82635 6.31952,4.35189c1.91625,1.28766 4.38963,2.69103 5.53155,4.8091c2.62807,4.87464 -0.75677,11.41203 -2.44889,16.14603l-2.75881,2.85346c0,0 -1.76774,1.76779 -3.53553,0.00005zM161.48432,207.88262l1.98905,-1.89693c0.72643,-2.45614 1.39024,-4.93587 2.12636,-7.38465c0.48269,-1.60571 1.31554,-1.96617 0.22481,-3.66927c-0.76132,-1.18875 -2.98069,-2.47223 -4.06842,-3.1909c-1.62488,-1.21867 -2.91361,-3.14162 -4.88055,-3.64811c-1.95179,-0.5026 -3.1794,0.19944 -4.88496,0.77896c-4.09564,1.39164 -8.50035,3.41386 -10.54478,7.52666c-1.9585,3.93994 -1.62078,8.30997 2.90317,10.27177c2.13427,0.92552 4.52474,1.32514 6.85104,1.32986c2.4043,0.00487 4.84984,-0.50207 7.07152,-1.4212c0,0 2.26122,-0.90449 3.21275,1.30381z" fill="#696969" stroke-width="0.5"></path>
      <path d="M152.71431,203.54735c-0.2246,0.57021 -0.70926,1.12833 -1.70799,1.37802c-2.42536,0.60633 -3.03168,-1.81903 -3.03168,-1.81903c-0.27506,-1.43374 -1.22369,-2.89678 -0.82516,-4.30122c1.316,-4.63771 8.87489,-9.43971 11.98235,-2.80662c0.67319,1.43697 -0.47096,3.13856 -0.70643,4.70784l-2.25764,2.76146c0,0 -1.71347,1.71344 -3.45344,0.07955zM152.16703,200.58311c0.21731,-0.40297 0.46522,-0.65088 0.46522,-0.65088l0.94242,-0.43855c0.29785,-0.56406 0.71722,-1.07917 0.89354,-1.69219c0.09749,-0.33895 -0.75697,0.07727 -1.0064,0.32662c-0.51485,0.51468 -1.28995,0.94894 -1.41128,1.66675c-0.04575,0.27065 0.01216,0.53162 0.11649,0.78825z" fill="#696969" stroke-width="0.5"></path>
      <path d="M188.7747,169.50637c-0.18875,-1.66978 -1.44658,-3.578 -0.56623,-5.00936c3.45531,-5.61795 7.23358,-0.13205 9.4794,1.75665l-2.64134,3.73679c0.37293,0.25632 0.70846,0.66883 0.92518,1.31898c0.79057,2.37171 -1.58114,3.16228 -1.58114,3.16228c-6.83196,1.98775 -15.17087,-2.47251 -15.29031,-10.40759c-0.07449,-4.94867 4.61656,-8.81041 8.53949,-10.97859c8.05262,-4.45063 21.24373,3.66184 17.932,13.40506c-0.51408,1.51245 -1.84783,2.60628 -2.77175,3.90942l-2.4819,1.53606c0,0 -2.23605,1.11807 -3.35412,-1.11799c-1.11807,-2.23605 1.11799,-3.35412 1.11799,-3.35412l0.71805,-0.06398c0.67611,-0.83018 1.59565,-1.51119 2.02831,-2.49054c2.33906,-5.29467 -6.86721,-9.79865 -10.86805,-7.39499c-2.19747,1.32022 -5.88744,3.68939 -5.86053,6.62144c0.02414,2.62951 2.25474,4.82203 4.76136,5.62801c-0.06106,-0.15614 -0.08641,-0.25752 -0.08641,-0.25752z" fill="#696969" stroke-width="0.5"></path>
      <path d="M350.56399,220.58188c1.1181,-2.23603 3.35413,-1.11793 3.35413,-1.11793l0.48188,0.53608c1.06981,0.04277 2.13961,0.08553 3.20943,0.12829c2.25662,-1.83875 6.15573,-4.38836 7.21891,-7.21889c0.2828,-0.75292 -0.11553,-1.60525 -0.12829,-2.40944c-0.04402,-2.77423 0.48018,-7.8711 -2.2352,-10.02688c-0.82689,-0.65648 -2.05303,-0.49403 -3.07734,-0.75001c-1.49914,-0.37464 -2.96826,-0.89047 -4.49293,-1.14183c-0.97728,-0.16111 -2.00552,-0.31357 -2.97008,-0.08854c-3.71659,0.86709 -7.24949,7.81284 -6.29134,11.43289c0.24296,0.91795 0.88168,1.68206 1.32914,2.51959c0.28821,0.53946 0.3593,1.28688 0.87781,1.61126c0.67903,0.42479 1.57748,0.27878 2.36622,0.41817c0,0 2.42536,0.60632 1.81903,3.03168c-0.60633,2.42536 -3.03169,1.81904 -3.03169,1.81904c-1.3446,-0.39393 -2.87929,-0.38793 -4.03381,-1.18181c-1.08346,-0.74501 -1.65135,-2.05782 -2.32214,-3.18873c-4.04938,-6.82712 -1.24399,-14.35574 4.57732,-19.18816c0.98909,-0.82107 2.01614,-1.73698 3.26053,-2.05937c3.3109,-0.8578 7.14114,0.29694 10.23841,1.195c1.62878,0.47227 3.51665,0.54107 4.82122,1.6246c4.16731,3.46125 4.22236,9.19677 4.16483,13.97312c-0.01603,1.33079 0.33862,2.7443 -0.12829,3.99059c-1.66477,4.44359 -6.75115,7.79538 -10.38119,10.38115c-1.59686,0.04277 -3.19371,0.08553 -4.79057,0.12829l-2.71808,-1.06402c0,0 -2.23603,-1.1181 -1.11793,-3.35413z" fill="#696969" stroke-width="0.5"></path>
      <path d="M358.4,216.20001c-0.29561,0 -0.55626,-0.03495 -0.7861,-0.09659c-0.81808,0.23043 -1.60446,-0.0317 -1.60446,-0.0317c-1.12574,-0.46799 -2.5861,-0.47637 -3.37722,-1.40396c-4.14089,-4.85521 1.58728,-14.82858 7.89441,-7.08208c1.12121,1.37709 0.24891,3.54288 0.37337,5.31432v0.80002c0,0 0,2.5 -2.5,2.5zM356.20989,210.98634c0.03274,-0.25638 0.05622,-0.51353 0.06348,-0.77203c0.00572,-0.20388 -0.20898,-0.73276 -0.28277,-0.54262c-0.2772,0.71431 -0.11919,1.09642 0.21929,1.31464z" fill="#696969" stroke-width="0.5"></path>
      <path d="M215.03223,302.66774c-0.5737,-0.57371 -0.77502,-1.14742 -0.78524,-1.66071c-0.14355,-0.01524 -0.29456,-0.04194 -0.45337,-0.08165c-2.42535,-0.60637 -1.81897,-3.03172 -1.81897,-3.03172c0.39395,-1.34458 0.25695,-2.9813 1.18185,-4.03376c3.34334,-3.80446 7.09297,-3.73161 9.27665,1.66572c0.55372,1.36863 -0.73766,2.85917 -1.10649,4.28875l-2.7589,2.85342c0,0 -0.0068,0.0068 -0.01998,0.01913c0.28991,-0.07072 0.57243,-0.14209 0.84591,-0.21228c0,0 1.24169,-0.31041 2.17028,0.40141c3.52893,-1.88308 7.16127,-3.662 7.98116,-8.0488c0.74977,-4.01162 -2.41704,-10.65337 -7.4205,-9.88288c-0.70082,0.10792 -1.06151,0.95353 -1.66979,1.31793c-4.25014,2.54613 -9.05316,4.90362 -10.91009,9.9051c-0.41891,1.12831 -1.9285,5.87647 -0.14318,6.66242c1.89587,0.83461 4.22388,0.77158 6.43268,0.41862c-0.26317,-0.12395 -0.5326,-0.31126 -0.80203,-0.58069zM216.79331,297.45282l0.28011,-0.26712c0.23994,-0.2486 0.61884,-1.06671 0.28027,-0.99788c-0.51103,0.1039 -0.58209,0.63932 -0.56038,1.265zM219.84245,307.5156c-3.22524,0.81628 -4.03902,1.16223 -8.30133,0.67094c-1.68554,-0.19428 -3.52566,-0.2831 -4.94263,-1.21636c-4.07929,-2.68675 -3.16894,-8.76149 -1.74314,-12.53753c2.28911,-6.06243 7.69925,-9.52592 13.0899,-12.49492c1.06641,-0.58735 1.91754,-1.7733 3.13013,-1.88202c8.65094,-0.77565 14.81521,7.68022 13.37955,15.71709c-1.10028,6.15941 -5.81885,8.91394 -10.78757,11.64844l-0.87249,0.47473c0,0 -1.72808,0.94026 -2.95241,-0.38037z" fill="#696969" stroke-width="0.5"></path>
      <path d="M172.88638,309.84707c-0.94707,-2.31367 1.3666,-3.26074 1.3666,-3.26074l3.77537,-1.51779c1.16813,-0.94378 2.32617,-1.90017 3.50438,-2.83134c0.54832,-0.43334 1.51,-0.58243 1.67454,-1.26166c0.20266,-0.83657 -0.43948,-1.67024 -0.77193,-2.46421c-1.3026,-3.11088 -3.00225,-5.9512 -5.00307,-8.64356c-2.96374,-2.20256 -5.02603,-3.12025 -8.51453,-4.16264c-0.60243,-0.18001 -1.13377,-0.76968 -1.75695,-0.68627c-1.39678,0.18696 -2.64141,0.98362 -3.97022,1.45287c-6.00487,2.12052 -15.59401,8.74894 -11.46392,16.31396c1.42965,2.61867 6.4198,3.34058 9.75694,4.09163c-0.16124,-0.82199 0.18942,-1.47833 0.54158,-1.9052c-0.01324,-0.00199 -0.02644,-0.00408 -0.0396,-0.00628c-1.48518,0.30831 -3.07154,1.32532 -4.42203,0.69009c-3.45876,-1.62689 -5.61492,-7.12439 -3.81676,-10.63889c1.01119,-1.97637 3.13372,-3.24329 5.08645,-4.29942c1.56758,-0.84782 7.71822,-1.75716 9.54648,-0.8218c1.87342,0.95846 4.3915,6.88728 4.51455,8.43493c0.35059,4.40951 -2.19911,5.713 -4.90927,8.50258l-2.59816,1.7468c0,0 -0.22324,0.14884 -0.57222,0.27585c0.15203,0.43298 0.17792,0.97209 -0.0429,1.63457c-0.79057,2.37171 -3.16228,1.58114 -3.16228,1.58114c-4.60127,-1.53763 -11.46659,-1.92155 -14.13605,-6.65736c-5.94541,-10.54762 4.82074,-20.72259 14.13606,-23.68604c1.83453,-0.58362 3.60033,-1.52519 5.51663,-1.70933c1.08683,-0.10444 2.10092,0.59584 3.15621,0.87596c4.35304,1.15547 7.0713,2.70806 10.68554,5.43733c2.81813,3.73199 8.33166,10.93076 7.02492,16.09218c-0.46537,1.83814 -6.39998,6.1369 -7.42968,6.95401l-4.41595,1.83522c0,0 -2.31367,0.94707 -3.26074,-1.3666zM162.39999,300.00003c1.38071,0 2.5,1.11929 2.5,2.5c0,0.1428 -0.01197,0.2828 -0.03497,0.41906c0.85928,-0.81163 1.86978,-1.49189 2.55948,-2.45085c1.25644,-1.74696 -0.13743,-3.18451 -0.83705,-4.80435c-0.19472,-0.45081 -0.12156,-1.15313 -0.56707,-1.3597c-0.53822,-0.24956 -1.1739,0.17426 -1.75731,0.28195c-1.09847,0.20277 -2.26218,0.20622 -3.28757,0.64929c-1.02419,0.44256 -2.12138,1.00743 -2.72223,1.94755c-0.26624,0.41658 0.15029,3.51806 0.98317,3.76113c0.62734,0.18309 1.17149,-0.57962 1.75723,-0.86943c0,0 0.45625,-0.11406 1.02244,-0.04535c0.12514,-0.01929 0.25333,-0.02929 0.38387,-0.02929z" fill="#696969" stroke-width="0.5"></path>
      <path d="M297.01323,301.38014c-2.08012,-1.38677 -0.69335,-3.46688 -0.69335,-3.46688l1.60003,-2.40002c3.33273,-2.86145 -4.82736,-0.00636 -4.24145,2.65899c0.19993,0.90948 1.28103,1.35183 1.92155,2.02775c0,0 1.5,2 -0.5,3.5c-0.68795,0.51596 -1.31673,0.61781 -1.84566,0.52938c0.05428,0.08519 0.10574,0.1771 0.15392,0.27618c5.92712,-1.78008 10.31995,-3.71914 13.89818,-8.9368c0.4243,-4.19802 0.28752,-8.15001 -0.87111,-12.25738c-0.21372,-0.75765 -0.31554,-1.67717 -0.92808,-2.17165c-5.71419,-4.61284 -16.01493,1.58252 -18.39754,7.11702c-1.36977,3.18181 -2.76199,9.85997 -0.93418,13.01156c1.04804,1.80708 2.56452,2.96663 4.2339,2.06c0,0 0.54843,-0.18282 1.20574,-0.1089c-0.01004,-0.01256 -0.01517,-0.0194 -0.01517,-0.0194c-0.95946,-1.45738 -2.75975,-2.63133 -2.87838,-4.37214c-0.31504,-4.62313 3.46107,-7.99115 7.41105,-9.13711c3.77364,-1.09481 7.47977,0.26605 7.96733,4.80933c0.15265,1.42241 -1.34657,2.52447 -2.01986,3.7867l-1.60004,2.40003c0,0 -1.38676,2.08012 -3.46688,0.69335zM289.95261,308.81394c-0.49061,0.15832 -0.9839,0.25035 -1.48442,0.16397c-7.0028,-1.20851 -8.23913,-9.39518 -7.75471,-14.9368c0.36888,-4.21985 1.81551,-9.18498 4.63006,-12.41544c1.88871,-2.1678 4.65342,-3.32119 7.13842,-4.56173c5.13886,-2.56538 11.4322,-4.00936 16.41086,0.39638c2.10552,1.86322 2.77328,6.11939 3.17489,8.63925c0.5871,3.68362 0.389,7.48797 -0.06679,11.19013c-0.98639,1.50029 -1.74714,3.17618 -2.95917,4.50088c-3.85611,4.21458 -9.01645,5.93122 -14.27299,7.52693l-2.31704,0.44135c0,0 -1.65534,0.30409 -2.49912,-0.94494z" fill="#696969" stroke-width="0.5"></path>
      <path d="M283.30002,166.5c0,2.5 -2.5,2.5 -2.5,2.5l-3.50546,-0.01873c-2.41401,-0.61493 -6.11937,-1.02372 -7.49871,-3.70163c-0.70569,-1.37006 -0.87355,-3.08708 -0.50489,-4.55393c-0.32578,0.0162 -0.65155,0.03236 -0.97304,0.03869c-0.55162,1.59421 -1.19539,3.12063 -2.23775,4.72234c0,0 -1.38674,2.08013 -3.46687,0.6934c-2.08013,-1.38674 -0.6934,-3.46687 -0.6934,-3.46687c0.94233,-1.3688 1.46099,-2.71591 1.90687,-4.13279c-1.00449,-1.393 -0.29484,-2.16259 0.78471,-2.59776c0.05807,-0.18442 0.11808,-0.37063 0.18065,-0.5588l0.76987,-3.07952c0.25264,-1.11331 1.24829,-1.94441 2.43804,-1.94441c1.38071,0 2.5,1.11929 2.5,2.5v1.29998l0.28254,-0.37671c0.45492,-0.62044 1.18914,-1.02327 2.01745,-1.02327c1.38071,0 2.5,1.11929 2.5,2.5v3.20001h-0.08288c0.01959,0.13296 0.03655,0.26643 0.0506,0.40045c0.14443,1.37853 -1.62865,2.75429 -1.06352,4.01992c0.52471,1.1751 2.45058,0.79498 3.70124,1.09836l2.89456,-0.01873c0,0 2.5,0 2.5,2.5z" fill="#696969" stroke-width="0.5"></path>
      <path d="M233.79032,194.52453c-2.42452,-0.60967 -1.81485,-3.03419 -1.81485,-3.03419l0.8436,-3.34752c0.59648,-0.9466 1.70883,-1.72384 1.78943,-2.83979c0.04008,-0.55494 -1.0989,0.63057 -1.61484,0.42232c-1.84739,-0.74568 -3.39455,-2.08627 -5.09183,-3.12941l3.58386,-3.02256c0.40884,-0.00901 1.62479,0.06572 1.22651,-0.02703c-2.32071,-0.54046 -5.24415,1.65476 -3.87685,-5.05771c0.28566,-1.40237 2.45651,-1.46975 3.66627,-2.23442c2.86797,-1.81281 5.18168,-2.55006 8.49203,-3.37958c0,0 2.42535,-0.60635 3.0317,1.819c0.60635,2.42535 -1.819,3.0317 -1.819,3.0317c-0.4821,0.12023 -4.2609,0.98822 -5.10795,1.42044c-0.63776,0.32543 -1.14224,0.9129 -1.74129,1.29634c1.12496,0.68937 2.39831,1.43547 2.33075,2.61151c-0.02426,0.42236 -0.14613,0.80908 -0.33445,1.17155c0.54508,0.45994 1.09752,1.2984 1.6381,2.67181c0.82864,2.10524 -0.91521,4.43137 -1.37282,6.64706l-0.7942,3.16564c0,0 -0.60967,2.42452 -3.03419,1.81485z" fill="#696969" stroke-width="0.5"></path>
      <path d="M312.96697,169.3459c0.29573,-0.65527 0.91909,-1.3459 2.23308,-1.3459c2.5,0 2.5,2.5 2.5,2.5l-1.70942,3.17169c-3.17415,1.01935 -6.54385,1.32862 -9.8961,0.90958c-0.99164,-0.12396 -1.89513,-0.78401 -2.89449,-0.78129c-3.33937,0.00911 -3.98978,2.64579 -7.3678,-0.73224c-2.43688,-2.43688 -1.44999,-5.47004 -0.61096,-8.13692c1.34559,-4.27699 3.11055,-7.44498 6.21101,-10.5986c0,0 1.76778,-1.76776 3.53553,0.00002c1.76776,1.76778 -0.00002,3.53553 -0.00002,3.53553c-2.65693,2.6002 -3.72002,5.06613 -4.98906,8.60141c-0.35175,0.9799 -1.34714,2.32685 -0.61096,3.06304c0.91962,0.91961 2.53174,-0.73556 3.83227,-0.73224c1.19992,0.00307 2.31476,0.66991 3.50541,0.81875c2.06029,0.25754 4.23599,0.19929 6.2615,-0.27284z" fill="#696969" stroke-width="0.5"></path>
      <path d="M223.36394,166.18195c1.11803,-2.23607 3.3541,-1.11803 3.3541,-1.11803l-0.63605,0.80003c2.74469,-1.33769 6.5059,-2.81993 3.8379,-5.97721c0,0 -1.38674,-2.08013 0.6934,-3.46687c2.08013,-1.38674 3.46687,0.6934 3.46687,0.6934c0.66105,1.12002 1.84231,2.06715 1.98316,3.36005c0.59213,5.4352 -3.77029,7.83476 -7.74523,9.86275l-3.83612,-0.80001c0,0 -2.23607,-1.11803 -1.11803,-3.3541z" fill="#696969" stroke-width="0.5"></path>
      <path d="M176.10001,144.89999c0,2.5 -2.5,2.5 -2.5,2.5l-2.01097,-0.03401c-2.63919,-0.44482 -5.34217,-0.40453 -7.98947,-0.79826c-1.66819,-0.24811 -3.12863,-1.37417 -4.79998,-1.60001c-4.54469,-0.6141 -9.14199,-0.68568 -13.59912,0.79999c-5.2027,0.02139 -9.36882,2.4814 -14.40002,3.20001c-4.23121,0.60435 -10.02596,0.54267 -14.24676,0.02011c-1.61396,-0.19981 -3.27862,-0.36653 -4.77408,-1.00556c-1.24392,-0.53154 -2.04929,-1.80971 -3.25402,-2.42494c-4.96843,-2.5373 -13.80853,-2.45445 -18.3388,0.6228c0,0 -2.08012,1.38676 -3.46688,-0.69337c-1.38676,-2.08012 0.69337,-3.46688 0.69337,-3.46688c6.07459,-3.98968 16.59472,-4.2479 23.26117,-0.97724c2.10375,1.03213 4.03896,2.74971 6.37193,2.96952c3.92832,0.37013 9.03222,0.58037 12.95319,0.02011c5.01326,-0.71633 9.17756,-3.2228 14.40002,-3.20001c4.87211,-1.624 10.21545,-1.54571 15.20093,-0.79999c1.66799,0.2495 3.12875,1.37335 4.79999,1.60001c2.65917,0.36065 5.36279,0.365 8.01053,0.80172l1.18898,-0.03401c0,0 2.5,0 2.5,2.5z" fill="#696969" stroke-width="0.5"></path>
      <path d="M392.7717,141.70943c0.79057,2.37171 -1.58114,3.16228 -1.58114,3.16228l-2.54886,0.84453c-3.06732,0.61684 -6.14849,1.16583 -9.23546,1.67524c-3.54519,0.00887 -7.50012,0.48559 -11.00667,-0.02376c-0.81157,-0.11789 -4.07785,-1.41176 -5.04122,-1.65148c-4.53341,-1.12806 -9.15681,-1.93143 -13.65733,-3.21593c-2.84417,-0.81176 -5.35801,-1.96109 -8.34735,-2.31246c-1.9538,-0.22965 -3.89604,0.54993 -5.84816,0.79342c-3.95302,0.49307 -7.6237,0.98457 -11.51489,2.29043c0,0 -2.37171,0.79057 -3.16228,-1.58114c-0.79057,-2.37171 1.58114,-3.16228 1.58114,-3.16228c4.1985,-1.39111 8.20173,-1.97303 12.48511,-2.50955c2.31471,-0.28993 4.632,-1.05285 6.95176,-0.80655c3.34368,0.35501 6.09609,1.5846 9.25262,2.48753c4.46087,1.27603 9.05059,2.05597 13.54274,3.18403c1.55653,0.39088 2.96932,1.32655 4.55875,1.54853c3.1246,0.43638 6.62832,-0.03277 9.79338,-0.02376c2.79473,-0.47088 5.58479,-0.97217 8.36451,-1.52477l2.25107,-0.75545c0,0 2.37171,-0.79057 3.16228,1.58114z" fill="#696969" stroke-width="0.5"></path>
    </g>
  </g>
</svg>
