<?xml version="1.0" encoding="UTF-8"?>
<svg xmlns="http://www.w3.org/2000/svg" xmlns:xlink="http://www.w3.org/1999/xlink" version="1.1" width="247.58586" height="114.89509" viewBox="0,0,247.58586,114.89509">
  <g transform="translate(-116.26716,-123.21451)">
    <g stroke-width="0" stroke-miterlimit="10">
      <path d="M121.21956,232.93478l0.57743,-105.61541l93.70306,-0.25416h3.9323c0,0 8.00645,2.65992 15.00335,6.81417c7.46723,4.43349 30.25196,14.73911 51.98336,26.28754c7.74581,4.11625 13.1754,9.26335 20.77388,13.14109c25.36574,12.94494 41.78474,21.77772 48.353,27.50657c7.42452,6.47568 3.23459,8.98543 3.23459,8.98543v23.13477z" fill="#ffffff" stroke="#000000"></path>
      <path d="M353.55001,220.2h-137.83038v-8h137.83038z" fill="#b7b7b7" stroke="none"></path>
      <path d="M125.80002,227.95v-96.5h11v96.5z" fill="#b7b7b7" stroke="none"></path>
      <path d="M116.26717,236.1096v-112.89509h10.14499v112.89509z" fill="#000000" stroke="none"></path>
      <path d="M116.90256,227.86229h246.83038v10.14499h-246.83037z" fill="#000000" stroke="none"></path>
      <path d="M116.40256,123.21451h103.39501v10.14499h-103.39501z" fill="#000000" stroke="none"></path>
      <path d="M353.70804,238.1096v-37.66038h10.14499v37.66038z" fill="#000000" stroke="none"></path>
      <path d="M218.67887,133.84603v-10.51976h10.51976v10.51976z" fill="#000000" stroke="none"></path>
      <path d="M228.93873,139.48798v-10.51976h10.51976v10.51976z" fill="#000000" stroke="none"></path>
      <path d="M239.63697,145.161v-10.51976h10.51976v10.51976z" fill="#000000" stroke="none"></path>
      <path d="M250.41659,150.13417v-10.51977h10.51976v10.51977z" fill="#000000" stroke="none"></path>
      <path d="M260.67644,155.77612v-10.51976h10.51976v10.51976z" fill="#000000" stroke="none"></path>
      <path d="M271.37466,161.44914v-10.51976h10.51976v10.51976z" fill="#000000" stroke="none"></path>
      <path d="M282.15432,165.7622v-10.51977h10.51976v10.51977z" fill="#000000" stroke="none"></path>
      <path d="M292.41418,171.40415v-10.51976h10.51976v10.51976z" fill="#000000" stroke="none"></path>
      <path d="M303.5595,178.84603v-10.51976h10.51976v10.51976z" fill="#000000" stroke="none"></path>
      <path d="M313.81939,184.48798v-10.51976h10.51976v10.51976z" fill="#000000" stroke="none"></path>
      <path d="M324.51758,190.161v-10.51976h10.51976v10.51976z" fill="#000000" stroke="none"></path>
      <path d="M335.29721,195.13417v-10.51977h10.51976v10.51977z" fill="#000000" stroke="none"></path>
      <path d="M345.55712,200.77612v-10.51976h10.51976v10.51976z" fill="#000000" stroke="none"></path>
      <path d="M215.26717,212.1096v-87.89509h10.14499v87.89509z" fill="#000000" stroke="none"></path>
      <path d="M215.40255,202.36229h141.33038v10.14499h-141.33037z" fill="#000000" stroke="none"></path>
    </g>
  </g>
</svg>
