<?xml version="1.0" encoding="UTF-8"?>
<svg xmlns="http://www.w3.org/2000/svg" xmlns:xlink="http://www.w3.org/1999/xlink" version="1.1" width="14.76668" height="45.39261" viewBox="0,0,14.76668,45.39261">
  <g transform="translate(-233.28333,-135.97035)">
    <g fill="#000000" stroke="none" stroke-width="0.5" stroke-miterlimit="10">
      <path d="M236.8338,149.78229c-0.08917,0.11507 -0.17907,0.22747 -0.26964,0.33709l-0.09125,-0.12547c-0.00874,0.0046 -0.0175,0.00918 -0.02629,0.01373l0.06316,0.16635l-0.25891,0.24547l0.08002,0.31613l-1.30701,0.82613c-0.15061,0.10165 -0.31642,0.15791 -0.49055,0.15791c-0.69036,0 -1.25,-0.88434 -1.25,-1.97524c0,-0.73212 0.25206,-1.3712 0.62653,-1.71238l1.27436,-1.20823c1.59202,-1.83951 3.22971,-5.71671 3.16577,-8.87817c0,0 0,-1.97524 1.25,-1.97524c0.86485,0 1.13133,0.94556 1.21344,1.52824c0.05143,0.0942 0.09734,0.19613 0.13691,0.30458l0.7882,2.07589l-0.03492,0.03311c0.04427,0.08854 0.0873,0.17877 0.12896,0.27088c1.14041,2.52182 0.937,6.51532 3.6341,6.32195h1.33333c0.69036,0 1.25,0.88434 1.25,1.97524c0,0.84785 -0.33806,1.57095 -0.81279,1.85106l-1.3063,0.82568l-0.09423,-0.37225c-1.04103,0.89573 -1.86936,0.59859 -3.44179,-1.1711c0.01156,0.64197 0.02341,1.20705 0.04903,1.62168c0.421,6.81312 1.33942,13.53234 1.33942,20.42114c0,2.49938 0.31598,5.3852 -0.7912,7.5223c-1.00219,1.93444 -2.78568,3.20988 -4.24802,1.0778c-0.13441,0.07391 -0.29221,0.1173 -0.47746,0.1173c-1.25,0 -1.25,-1.97524 -1.25,-1.97524c0,-9.51796 -0.02809,-19.9896 0.90007,-29.58358c-0.32459,0.38489 -0.68213,0.70684 -1.08293,0.96727z"></path>
    </g>
  </g>
</svg>
